<?xml version="1.0" encoding="UTF-8" standalone="no"?>
<!DOCTYPE svg PUBLIC "-//W3C//DTD SVG 1.1//EN"
 "http://www.w3.org/Graphics/SVG/1.1/DTD/svg11.dtd">
<!-- Generated by graphviz version 2.43.0 (0)
 -->
<!-- Title: DiscordCoreAPI::InputEventData::getChannelId Pages: 1 -->
<svg width="367pt" height="137pt"
 viewBox="0.00 0.00 367.00 137.00" xmlns="http://www.w3.org/2000/svg" xmlns:xlink="http://www.w3.org/1999/xlink">
<g id="graph0" class="graph" transform="scale(1 1) rotate(0) translate(4 133)">
<title>DiscordCoreAPI::InputEventData::getChannelId</title>
<!-- Node1 -->
<g id="node1" class="node">
<title>Node1</title>
<g id="a_node1"><a xlink:title="Returns the Channel id of this input&#45;event.">
<polygon fill="#bfbfbf" stroke="black" points="209,-49.5 209,-79.5 359,-79.5 359,-49.5 209,-49.5"/>
<text text-anchor="start" x="217" y="-67.5" font-family="Helvetica,sans-Serif" font-size="10.00">DiscordCoreAPI::InputEvent</text>
<text text-anchor="middle" x="284" y="-56.5" font-family="Helvetica,sans-Serif" font-size="10.00">Data::getChannelId</text>
</a>
</g>
</g>
<!-- Node2 -->
<g id="node2" class="node">
<title>Node2</title>
<g id="a_node2"><a xlink:href="../../dc/d10/a03169.html#ac243db78f0fe0ce88c8c428110d77c37" target="_top" xlink:title="Constructor.">
<polygon fill="none" stroke="black" points="0,-98.5 0,-128.5 173,-128.5 173,-98.5 0,-98.5"/>
<text text-anchor="start" x="8" y="-116.5" font-family="Helvetica,sans-Serif" font-size="10.00">DiscordCoreAPI::ButtonCollector</text>
<text text-anchor="middle" x="86.5" y="-105.5" font-family="Helvetica,sans-Serif" font-size="10.00">::ButtonCollector</text>
</a>
</g>
</g>
<!-- Node1&#45;&gt;Node2 -->
<g id="edge1" class="edge">
<title>Node1&#45;&gt;Node2</title>
<path fill="none" stroke="midnightblue" d="M213.27,-81.98C191.72,-87.38 168.19,-93.28 147.37,-98.49"/>
<polygon fill="midnightblue" stroke="midnightblue" points="214.17,-85.36 223.01,-79.53 212.46,-78.57 214.17,-85.36"/>
</g>
<!-- Node3 -->
<g id="node3" class="node">
<title>Node3</title>
<g id="a_node3"><a xlink:href="../../d7/d90/a03177.html#a7eeb5804fc42207c363474e79cbd7fa4" target="_top" xlink:title="Constructor.">
<polygon fill="none" stroke="black" points="1,-49.5 1,-79.5 172,-79.5 172,-49.5 1,-49.5"/>
<text text-anchor="start" x="9" y="-67.5" font-family="Helvetica,sans-Serif" font-size="10.00">DiscordCoreAPI::ModalCollector</text>
<text text-anchor="middle" x="86.5" y="-56.5" font-family="Helvetica,sans-Serif" font-size="10.00">::ModalCollector</text>
</a>
</g>
</g>
<!-- Node1&#45;&gt;Node3 -->
<g id="edge2" class="edge">
<title>Node1&#45;&gt;Node3</title>
<path fill="none" stroke="midnightblue" d="M198.59,-64.5C189.82,-64.5 180.89,-64.5 172.11,-64.5"/>
<polygon fill="midnightblue" stroke="midnightblue" points="198.81,-68 208.81,-64.5 198.81,-61 198.81,-68"/>
</g>
<!-- Node4 -->
<g id="node4" class="node">
<title>Node4</title>
<g id="a_node4"><a xlink:href="../../d0/d04/a03161.html#a6e996a3f44583a72b1a01a784aa6021c" target="_top" xlink:title="Constructor.">
<polygon fill="none" stroke="black" points="3,-0.5 3,-30.5 170,-30.5 170,-0.5 3,-0.5"/>
<text text-anchor="start" x="11" y="-18.5" font-family="Helvetica,sans-Serif" font-size="10.00">DiscordCoreAPI::SelectMenu</text>
<text text-anchor="middle" x="86.5" y="-7.5" font-family="Helvetica,sans-Serif" font-size="10.00">Collector::SelectMenuCollector</text>
</a>
</g>
</g>
<!-- Node1&#45;&gt;Node4 -->
<g id="edge3" class="edge">
<title>Node1&#45;&gt;Node4</title>
<path fill="none" stroke="midnightblue" d="M213.27,-47.02C191.72,-41.62 168.19,-35.72 147.37,-30.51"/>
<polygon fill="midnightblue" stroke="midnightblue" points="212.46,-50.43 223.01,-49.47 214.17,-43.64 212.46,-50.43"/>
</g>
</g>
</svg>
