<?xml version="1.0" encoding="UTF-8" standalone="no"?>
<!DOCTYPE svg PUBLIC "-//W3C//DTD SVG 1.1//EN"
 "http://www.w3.org/Graphics/SVG/1.1/DTD/svg11.dtd">
<!-- Generated by graphviz version 2.43.0 (0)
 -->
<!-- Title: DiscordCoreAPI::InputEventData::getMessageId Pages: 1 -->
<svg width="367pt" height="86pt"
 viewBox="0.00 0.00 367.00 86.00" xmlns="http://www.w3.org/2000/svg" xmlns:xlink="http://www.w3.org/1999/xlink">
<g id="graph0" class="graph" transform="scale(1 1) rotate(0) translate(4 82)">
<title>DiscordCoreAPI::InputEventData::getMessageId</title>
<!-- Node1 -->
<g id="node1" class="node">
<title>Node1</title>
<g id="a_node1"><a xlink:title="Returns the Message id, if applicable, of this input&#45;event.">
<polygon fill="#bfbfbf" stroke="black" points="359,-54 209,-54 209,-24 359,-24 359,-54"/>
<text text-anchor="start" x="217" y="-42" font-family="Helvetica,sans-Serif" font-size="10.00">DiscordCoreAPI::InputEvent</text>
<text text-anchor="middle" x="284" y="-31" font-family="Helvetica,sans-Serif" font-size="10.00">Data::getMessageId</text>
</a>
</g>
</g>
<!-- Node2 -->
<g id="node2" class="node">
<title>Node2</title>
<g id="a_node2"><a xlink:href="../../dc/d10/a03169.html#ac243db78f0fe0ce88c8c428110d77c37" target="_top" xlink:title="Constructor.">
<polygon fill="none" stroke="black" points="173,-78 0,-78 0,-48 173,-48 173,-78"/>
<text text-anchor="start" x="8" y="-66" font-family="Helvetica,sans-Serif" font-size="10.00">DiscordCoreAPI::ButtonCollector</text>
<text text-anchor="middle" x="86.5" y="-55" font-family="Helvetica,sans-Serif" font-size="10.00">::ButtonCollector</text>
</a>
</g>
</g>
<!-- Node1&#45;&gt;Node2 -->
<g id="edge1" class="edge">
<title>Node1&#45;&gt;Node2</title>
<path fill="none" stroke="midnightblue" d="M198.87,-49.33C190.33,-50.38 181.66,-51.44 173.1,-52.49"/>
<polygon fill="midnightblue" stroke="midnightblue" points="199.31,-52.8 208.81,-48.11 198.46,-45.85 199.31,-52.8"/>
</g>
<!-- Node3 -->
<g id="node3" class="node">
<title>Node3</title>
<g id="a_node3"><a xlink:href="../../d0/d04/a03161.html#a6e996a3f44583a72b1a01a784aa6021c" target="_top" xlink:title="Constructor.">
<polygon fill="none" stroke="black" points="170,-30 3,-30 3,0 170,0 170,-30"/>
<text text-anchor="start" x="11" y="-18" font-family="Helvetica,sans-Serif" font-size="10.00">DiscordCoreAPI::SelectMenu</text>
<text text-anchor="middle" x="86.5" y="-7" font-family="Helvetica,sans-Serif" font-size="10.00">Collector::SelectMenuCollector</text>
</a>
</g>
</g>
<!-- Node1&#45;&gt;Node3 -->
<g id="edge2" class="edge">
<title>Node1&#45;&gt;Node3</title>
<path fill="none" stroke="midnightblue" d="M198.64,-28.64C189.19,-27.48 179.57,-26.3 170.14,-25.14"/>
<polygon fill="midnightblue" stroke="midnightblue" points="198.46,-32.15 208.81,-29.89 199.31,-25.2 198.46,-32.15"/>
</g>
</g>
</svg>
