<?xml version="1.0" encoding="UTF-8" standalone="no"?>
<!DOCTYPE svg PUBLIC "-//W3C//DTD SVG 1.1//EN"
 "http://www.w3.org/Graphics/SVG/1.1/DTD/svg11.dtd">
<!-- Generated by graphviz version 3.0.0 (20220226.1711)
 -->
<!-- Title: ApplicationCommandEntities.hpp Pages: 1 -->
<svg width="1390pt" height="252pt"
 viewBox="0.00 0.00 1390.00 252.00" xmlns="http://www.w3.org/2000/svg" xmlns:xlink="http://www.w3.org/1999/xlink">
<g id="graph0" class="graph" transform="scale(1 1) rotate(0) translate(4 248)">
<title>ApplicationCommandEntities.hpp</title>
<!-- Node1 -->
<g id="node1" class="node">
<title>Node1</title>
<g id="a_node1"><a xlink:title=" ">
<polygon fill="#bfbfbf" stroke="black" points="607,-224.5 607,-243.5 768,-243.5 768,-224.5 607,-224.5"/>
<text text-anchor="middle" x="687.5" y="-231.5" font-family="Helvetica,sans-Serif" font-size="10.00">ApplicationCommandEntities.hpp</text>
</a>
</g>
</g>
<!-- Node2 -->
<g id="node2" class="node">
<title>Node2</title>
<g id="a_node2"><a xlink:href="../../da/d96/a00782.html" target="_top" xlink:title=" ">
<polygon fill="none" stroke="black" points="0,-56.5 0,-75.5 161,-75.5 161,-56.5 0,-56.5"/>
<text text-anchor="middle" x="80.5" y="-63.5" font-family="Helvetica,sans-Serif" font-size="10.00">ApplicationCommandEntities.cpp</text>
</a>
</g>
</g>
<!-- Node1&#45;&gt;Node2 -->
<g id="edge1" class="edge">
<title>Node1&#45;&gt;Node2</title>
<path fill="none" stroke="midnightblue" d="M646.37,-221.75C532.16,-190.52 212.85,-103.19 111.67,-75.52"/>
<polygon fill="midnightblue" stroke="midnightblue" points="645.57,-225.16 656.14,-224.42 647.42,-218.41 645.57,-225.16"/>
</g>
<!-- Node3 -->
<g id="node3" class="node">
<title>Node3</title>
<g id="a_node3"><a xlink:href="../../df/d0e/a00800.html" target="_top" xlink:title=" ">
<polygon fill="none" stroke="black" points="575,-168.5 575,-187.5 706,-187.5 706,-168.5 575,-168.5"/>
<text text-anchor="middle" x="640.5" y="-175.5" font-family="Helvetica,sans-Serif" font-size="10.00">DataParsingFunctions.cpp</text>
</a>
</g>
</g>
<!-- Node1&#45;&gt;Node3 -->
<g id="edge2" class="edge">
<title>Node1&#45;&gt;Node3</title>
<path fill="none" stroke="midnightblue" d="M673.08,-216.43C664.84,-206.97 654.85,-195.48 648.12,-187.75"/>
<polygon fill="midnightblue" stroke="midnightblue" points="670.53,-218.84 679.74,-224.08 675.81,-214.24 670.53,-218.84"/>
</g>
<!-- Node4 -->
<g id="node4" class="node">
<title>Node4</title>
<g id="a_node4"><a xlink:href="../../df/dbb/a00698.html" target="_top" xlink:title=" ">
<polygon fill="none" stroke="black" points="678,-112.5 678,-131.5 791,-131.5 791,-112.5 678,-112.5"/>
<text text-anchor="middle" x="734.5" y="-119.5" font-family="Helvetica,sans-Serif" font-size="10.00">DiscordCoreClient.hpp</text>
</a>
</g>
</g>
<!-- Node1&#45;&gt;Node4 -->
<g id="edge3" class="edge">
<title>Node1&#45;&gt;Node4</title>
<path fill="none" stroke="midnightblue" d="M699.17,-215.79C704.35,-207.62 710.23,-197.57 714.5,-188 723.16,-168.59 729.53,-144.34 732.55,-131.65"/>
<polygon fill="midnightblue" stroke="midnightblue" points="696.09,-214.1 693.54,-224.38 701.95,-217.93 696.09,-214.1"/>
</g>
<!-- Node17 -->
<g id="node17" class="node">
<title>Node17</title>
<g id="a_node17"><a xlink:href="../../d1/d56/a00707.html" target="_top" xlink:title=" ">
<polygon fill="none" stroke="black" points="861,-168.5 861,-187.5 958,-187.5 958,-168.5 861,-168.5"/>
<text text-anchor="middle" x="909.5" y="-175.5" font-family="Helvetica,sans-Serif" font-size="10.00">EventManager.hpp</text>
</a>
</g>
</g>
<!-- Node1&#45;&gt;Node17 -->
<g id="edge17" class="edge">
<title>Node1&#45;&gt;Node17</title>
<path fill="none" stroke="midnightblue" d="M732.62,-222.02C774.56,-211.82 836.15,-196.84 874.49,-187.52"/>
<polygon fill="midnightblue" stroke="midnightblue" points="731.57,-218.68 722.68,-224.44 733.22,-225.48 731.57,-218.68"/>
</g>
<!-- Node4&#45;&gt;Node2 -->
<g id="edge4" class="edge">
<title>Node4&#45;&gt;Node2</title>
<path fill="none" stroke="midnightblue" d="M667.72,-116.14C561.97,-108.35 349.47,-92.26 169.5,-76 166.72,-75.75 163.88,-75.49 161.02,-75.22"/>
<polygon fill="midnightblue" stroke="midnightblue" points="667.7,-119.65 677.93,-116.9 668.21,-112.67 667.7,-119.65"/>
</g>
<!-- Node5 -->
<g id="node5" class="node">
<title>Node5</title>
<g id="a_node5"><a xlink:href="../../d0/dad/a00806.html" target="_top" xlink:title=" ">
<polygon fill="none" stroke="black" points="286,-56.5 286,-75.5 399,-75.5 399,-56.5 286,-56.5"/>
<text text-anchor="middle" x="342.5" y="-63.5" font-family="Helvetica,sans-Serif" font-size="10.00">DiscordCoreClient.cpp</text>
</a>
</g>
</g>
<!-- Node4&#45;&gt;Node5 -->
<g id="edge5" class="edge">
<title>Node4&#45;&gt;Node5</title>
<path fill="none" stroke="midnightblue" d="M667.51,-111.8C601.41,-102.71 497.49,-88.42 407.5,-76 404.79,-75.63 402.02,-75.24 399.22,-74.86"/>
<polygon fill="midnightblue" stroke="midnightblue" points="667.4,-115.32 677.79,-113.21 668.36,-108.38 667.4,-115.32"/>
</g>
<!-- Node6 -->
<g id="node6" class="node">
<title>Node6</title>
<g id="a_node6"><a xlink:href="../../d8/d2d/a00815.html" target="_top" xlink:title=" ">
<polygon fill="none" stroke="black" points="1148,-56.5 1148,-75.5 1245,-75.5 1245,-56.5 1148,-56.5"/>
<text text-anchor="middle" x="1196.5" y="-63.5" font-family="Helvetica,sans-Serif" font-size="10.00">EventManager.cpp</text>
</a>
</g>
</g>
<!-- Node4&#45;&gt;Node6 -->
<g id="edge6" class="edge">
<title>Node4&#45;&gt;Node6</title>
<path fill="none" stroke="midnightblue" d="M801.09,-114.47C881.26,-106.4 1019.93,-91.8 1138.5,-76 1141.53,-75.6 1144.65,-75.16 1147.79,-74.71"/>
<polygon fill="midnightblue" stroke="midnightblue" points="800.73,-110.99 791.13,-115.47 801.43,-117.95 800.73,-110.99"/>
</g>
<!-- Node7 -->
<g id="node7" class="node">
<title>Node7</title>
<g id="a_node7"><a xlink:href="../../d6/d8b/a00821.html" target="_top" xlink:title=" ">
<polygon fill="none" stroke="black" points="417,-56.5 417,-75.5 508,-75.5 508,-56.5 417,-56.5"/>
<text text-anchor="middle" x="462.5" y="-63.5" font-family="Helvetica,sans-Serif" font-size="10.00">GuildEntities.cpp</text>
</a>
</g>
</g>
<!-- Node4&#45;&gt;Node7 -->
<g id="edge7" class="edge">
<title>Node4&#45;&gt;Node7</title>
<path fill="none" stroke="midnightblue" d="M681.48,-110.47C630.07,-100.27 553.06,-84.98 505.4,-75.52"/>
<polygon fill="midnightblue" stroke="midnightblue" points="680.91,-113.93 691.4,-112.44 682.27,-107.06 680.91,-113.93"/>
</g>
<!-- Node8 -->
<g id="node8" class="node">
<title>Node8</title>
<g id="a_node8"><a xlink:href="../../d9/daf/a00830.html" target="_top" xlink:title=" ">
<polygon fill="none" stroke="black" points="526,-56.5 526,-75.5 585,-75.5 585,-56.5 526,-56.5"/>
<text text-anchor="middle" x="555.5" y="-63.5" font-family="Helvetica,sans-Serif" font-size="10.00">Https.cpp</text>
</a>
</g>
</g>
<!-- Node4&#45;&gt;Node8 -->
<g id="edge8" class="edge">
<title>Node4&#45;&gt;Node8</title>
<path fill="none" stroke="midnightblue" d="M696.17,-109.44C662.42,-99.26 614.05,-84.66 583.73,-75.52"/>
<polygon fill="midnightblue" stroke="midnightblue" points="695.55,-112.91 706.14,-112.44 697.57,-106.2 695.55,-112.91"/>
</g>
<!-- Node9 -->
<g id="node9" class="node">
<title>Node9</title>
<g id="a_node9"><a xlink:href="../../d8/db9/a00725.html" target="_top" xlink:title=" ">
<polygon fill="none" stroke="black" points="603,-56.5 603,-75.5 662,-75.5 662,-56.5 603,-56.5"/>
<text text-anchor="middle" x="632.5" y="-63.5" font-family="Helvetica,sans-Serif" font-size="10.00">Index.hpp</text>
</a>
</g>
</g>
<!-- Node4&#45;&gt;Node9 -->
<g id="edge9" class="edge">
<title>Node4&#45;&gt;Node9</title>
<path fill="none" stroke="midnightblue" d="M709.17,-107.59C690.31,-97.61 665.12,-84.27 648.85,-75.65"/>
<polygon fill="midnightblue" stroke="midnightblue" points="707.64,-110.74 718.11,-112.32 710.91,-104.55 707.64,-110.74"/>
</g>
<!-- Node11 -->
<g id="node11" class="node">
<title>Node11</title>
<g id="a_node11"><a xlink:href="../../df/de8/a00839.html" target="_top" xlink:title=" ">
<polygon fill="none" stroke="black" points="680.5,-56.5 680.5,-75.5 788.5,-75.5 788.5,-56.5 680.5,-56.5"/>
<text text-anchor="middle" x="734.5" y="-63.5" font-family="Helvetica,sans-Serif" font-size="10.00">MessageEntities.cpp</text>
</a>
</g>
</g>
<!-- Node4&#45;&gt;Node11 -->
<g id="edge11" class="edge">
<title>Node4&#45;&gt;Node11</title>
<path fill="none" stroke="midnightblue" d="M734.5,-101.8C734.5,-92.91 734.5,-82.78 734.5,-75.75"/>
<polygon fill="midnightblue" stroke="midnightblue" points="731,-102.08 734.5,-112.08 738,-102.08 731,-102.08"/>
</g>
<!-- Node12 -->
<g id="node12" class="node">
<title>Node12</title>
<g id="a_node12"><a xlink:href="../../d9/d30/a00848.html" target="_top" xlink:title=" ">
<polygon fill="none" stroke="black" points="806.5,-56.5 806.5,-75.5 880.5,-75.5 880.5,-56.5 806.5,-56.5"/>
<text text-anchor="middle" x="843.5" y="-63.5" font-family="Helvetica,sans-Serif" font-size="10.00">SongAPI.cpp</text>
</a>
</g>
</g>
<!-- Node4&#45;&gt;Node12 -->
<g id="edge12" class="edge">
<title>Node4&#45;&gt;Node12</title>
<path fill="none" stroke="midnightblue" d="M761.02,-107.86C781.23,-97.85 808.49,-84.35 826.03,-75.65"/>
<polygon fill="midnightblue" stroke="midnightblue" points="759.42,-104.75 752.01,-112.32 762.53,-111.02 759.42,-104.75"/>
</g>
<!-- Node13 -->
<g id="node13" class="node">
<title>Node13</title>
<g id="a_node13"><a xlink:href="../../df/d4c/a00851.html" target="_top" xlink:title=" ">
<polygon fill="none" stroke="black" points="898.5,-56.5 898.5,-75.5 1002.5,-75.5 1002.5,-56.5 898.5,-56.5"/>
<text text-anchor="middle" x="950.5" y="-63.5" font-family="Helvetica,sans-Serif" font-size="10.00">SoundCloudAPI.cpp</text>
</a>
</g>
</g>
<!-- Node4&#45;&gt;Node13 -->
<g id="edge13" class="edge">
<title>Node4&#45;&gt;Node13</title>
<path fill="none" stroke="midnightblue" d="M778.66,-109.96C819.46,-99.76 879.21,-84.82 916.43,-75.52"/>
<polygon fill="midnightblue" stroke="midnightblue" points="777.58,-106.62 768.73,-112.44 779.28,-113.41 777.58,-106.62"/>
</g>
<!-- Node14 -->
<g id="node14" class="node">
<title>Node14</title>
<g id="a_node14"><a xlink:href="../../d1/d93/a00875.html" target="_top" xlink:title=" ">
<polygon fill="none" stroke="black" points="1021,-56.5 1021,-75.5 1130,-75.5 1130,-56.5 1021,-56.5"/>
<text text-anchor="middle" x="1075.5" y="-63.5" font-family="Helvetica,sans-Serif" font-size="10.00">VoiceConnection.cpp</text>
</a>
</g>
</g>
<!-- Node4&#45;&gt;Node14 -->
<g id="edge14" class="edge">
<title>Node4&#45;&gt;Node14</title>
<path fill="none" stroke="midnightblue" d="M798.57,-110.85C863,-100.65 961.22,-85.1 1021.72,-75.52"/>
<polygon fill="midnightblue" stroke="midnightblue" points="797.86,-107.42 788.53,-112.44 798.96,-114.34 797.86,-107.42"/>
</g>
<!-- Node15 -->
<g id="node15" class="node">
<title>Node15</title>
<g id="a_node15"><a xlink:href="../../df/d41/a00881.html" target="_top" xlink:title=" ">
<polygon fill="none" stroke="black" points="1263,-56.5 1263,-75.5 1382,-75.5 1382,-56.5 1263,-56.5"/>
<text text-anchor="middle" x="1322.5" y="-63.5" font-family="Helvetica,sans-Serif" font-size="10.00">WebSocketEntities.cpp</text>
</a>
</g>
</g>
<!-- Node4&#45;&gt;Node15 -->
<g id="edge15" class="edge">
<title>Node4&#45;&gt;Node15</title>
<path fill="none" stroke="midnightblue" d="M801.3,-116.19C900.37,-108.84 1092.03,-93.77 1254.5,-76 1257.22,-75.7 1260.01,-75.39 1262.81,-75.05"/>
<polygon fill="midnightblue" stroke="midnightblue" points="800.85,-112.71 791.14,-116.94 801.37,-119.7 800.85,-112.71"/>
</g>
<!-- Node16 -->
<g id="node16" class="node">
<title>Node16</title>
<g id="a_node16"><a xlink:href="../../dd/d08/a00884.html" target="_top" xlink:title=" ">
<polygon fill="none" stroke="black" points="179,-56.5 179,-75.5 268,-75.5 268,-56.5 179,-56.5"/>
<text text-anchor="middle" x="223.5" y="-63.5" font-family="Helvetica,sans-Serif" font-size="10.00">YouTubeAPI.cpp</text>
</a>
</g>
</g>
<!-- Node4&#45;&gt;Node16 -->
<g id="edge16" class="edge">
<title>Node4&#45;&gt;Node16</title>
<path fill="none" stroke="midnightblue" d="M667.96,-115.94C578.68,-108.81 415.28,-94.58 276.5,-76 273.82,-75.64 271.06,-75.25 268.29,-74.83"/>
<polygon fill="midnightblue" stroke="midnightblue" points="667.7,-119.43 677.95,-116.73 668.25,-112.45 667.7,-119.43"/>
</g>
<!-- Node10 -->
<g id="node10" class="node">
<title>Node10</title>
<g id="a_node10"><a xlink:href="../../dd/d7e/a00809.html" target="_top" xlink:title=" ">
<polygon fill="none" stroke="black" points="598.5,-0.5 598.5,-19.5 666.5,-19.5 666.5,-0.5 598.5,-0.5"/>
<text text-anchor="middle" x="632.5" y="-7.5" font-family="Helvetica,sans-Serif" font-size="10.00">DllMain.cpp</text>
</a>
</g>
</g>
<!-- Node9&#45;&gt;Node10 -->
<g id="edge10" class="edge">
<title>Node9&#45;&gt;Node10</title>
<path fill="none" stroke="midnightblue" d="M632.5,-45.8C632.5,-36.91 632.5,-26.78 632.5,-19.75"/>
<polygon fill="midnightblue" stroke="midnightblue" points="629,-46.08 632.5,-56.08 636,-46.08 629,-46.08"/>
</g>
<!-- Node17&#45;&gt;Node4 -->
<g id="edge18" class="edge">
<title>Node17&#45;&gt;Node4</title>
<path fill="none" stroke="midnightblue" d="M872.03,-165.44C839.03,-155.26 791.74,-140.66 762.1,-131.52"/>
<polygon fill="midnightblue" stroke="midnightblue" points="871.18,-168.84 881.77,-168.44 873.25,-162.15 871.18,-168.84"/>
</g>
<!-- Node17&#45;&gt;Node6 -->
<g id="edge19" class="edge">
<title>Node17&#45;&gt;Node6</title>
<path fill="none" stroke="midnightblue" d="M941.52,-164.73C1000.18,-142.25 1123.47,-94.99 1174.08,-75.59"/>
<polygon fill="midnightblue" stroke="midnightblue" points="940.11,-161.52 932.02,-168.37 942.61,-168.06 940.11,-161.52"/>
</g>
<!-- Node17&#45;&gt;Node15 -->
<g id="edge20" class="edge">
<title>Node17&#45;&gt;Node15</title>
<path fill="none" stroke="midnightblue" d="M951.37,-165.85C1034.02,-143.84 1216.52,-95.23 1290.46,-75.53"/>
<polygon fill="midnightblue" stroke="midnightblue" points="950.33,-162.5 941.56,-168.46 952.13,-169.27 950.33,-162.5"/>
</g>
</g>
</svg>
