<?xml version="1.0" encoding="UTF-8" standalone="no"?>
<!DOCTYPE svg PUBLIC "-//W3C//DTD SVG 1.1//EN"
 "http://www.w3.org/Graphics/SVG/1.1/DTD/svg11.dtd">
<!-- Generated by graphviz version 2.43.0 (0)
 -->
<!-- Title: DiscordCoreAPI::Guilds::getGuildAsync Pages: 1 -->
<svg width="301pt" height="38pt"
 viewBox="0.00 0.00 301.00 38.00" xmlns="http://www.w3.org/2000/svg" xmlns:xlink="http://www.w3.org/1999/xlink">
<g id="graph0" class="graph" transform="scale(1 1) rotate(0) translate(4 34)">
<title>DiscordCoreAPI::Guilds::getGuildAsync</title>
<!-- Node1 -->
<g id="node1" class="node">
<title>Node1</title>
<g id="a_node1"><a xlink:title="Collects a Guild from the Discord servers.">
<polygon fill="#bfbfbf" stroke="black" points="128,-30 0,-30 0,0 128,0 128,-30"/>
<text text-anchor="start" x="8" y="-18" font-family="Helvetica,sans-Serif" font-size="10.00">DiscordCoreAPI::Guilds</text>
<text text-anchor="middle" x="64" y="-7" font-family="Helvetica,sans-Serif" font-size="10.00">::getGuildAsync</text>
</a>
</g>
</g>
<!-- Node2 -->
<g id="node2" class="node">
<title>Node2</title>
<g id="a_node2"><a xlink:href="../../d6/d5d/a02992.html#a82ab9685bbc1cd69019bfb42e2870a0e" target="_top" xlink:title="Collects a Guild from the library&#39;s cache.">
<polygon fill="none" stroke="black" points="293,-30 164,-30 164,0 293,0 293,-30"/>
<text text-anchor="start" x="172" y="-18" font-family="Helvetica,sans-Serif" font-size="10.00">DiscordCoreAPI::Guilds</text>
<text text-anchor="middle" x="228.5" y="-7" font-family="Helvetica,sans-Serif" font-size="10.00">::getCachedGuildAsync</text>
</a>
</g>
</g>
<!-- Node1&#45;&gt;Node2 -->
<g id="edge1" class="edge">
<title>Node1&#45;&gt;Node2</title>
<path fill="none" stroke="midnightblue" d="M128.29,-8.4C136.59,-8.26 145.15,-8.22 153.61,-8.27"/>
<polygon fill="midnightblue" stroke="midnightblue" points="153.81,-11.78 163.85,-8.39 153.89,-4.78 153.81,-11.78"/>
</g>
<!-- Node2&#45;&gt;Node1 -->
<g id="edge2" class="edge">
<title>Node2&#45;&gt;Node1</title>
<path fill="none" stroke="midnightblue" d="M163.85,-21.61C155.54,-21.74 146.97,-21.78 138.52,-21.72"/>
<polygon fill="midnightblue" stroke="midnightblue" points="138.33,-18.22 128.29,-21.6 138.25,-25.22 138.33,-18.22"/>
</g>
</g>
</svg>
