<?xml version="1.0" encoding="UTF-8" standalone="no"?>
<!DOCTYPE svg PUBLIC "-//W3C//DTD SVG 1.1//EN"
 "http://www.w3.org/Graphics/SVG/1.1/DTD/svg11.dtd">
<!-- Generated by graphviz version 2.43.0 (0)
 -->
<!-- Title: DiscordCoreAPI::DiscordCoreClient::DiscordCoreClient Pages: 1 -->
<svg width="369pt" height="662pt"
 viewBox="0.00 0.00 369.00 662.00" xmlns="http://www.w3.org/2000/svg" xmlns:xlink="http://www.w3.org/1999/xlink">
<g id="graph0" class="graph" transform="scale(1 1) rotate(0) translate(4 658)">
<title>DiscordCoreAPI::DiscordCoreClient::DiscordCoreClient</title>
<!-- Node1 -->
<g id="node1" class="node">
<title>Node1</title>
<g id="a_node1"><a xlink:title="DiscordCoreClient constructor.">
<polygon fill="#bfbfbf" stroke="black" points="157,-342 0,-342 0,-312 157,-312 157,-342"/>
<text text-anchor="start" x="8" y="-330" font-family="Helvetica,sans-Serif" font-size="10.00">DiscordCoreAPI::DiscordCore</text>
<text text-anchor="middle" x="78.5" y="-319" font-family="Helvetica,sans-Serif" font-size="10.00">Client::DiscordCoreClient</text>
</a>
</g>
</g>
<!-- Node2 -->
<g id="node2" class="node">
<title>Node2</title>
<g id="a_node2"><a xlink:href="../../d9/d13/a02237.html#ab1f1240c5018a2ef19fd5d94e2ae3709" target="_top" xlink:title="For adding a function to handle this event.">
<polygon fill="none" stroke="black" points="361,-654 193,-654 193,-624 361,-624 361,-654"/>
<text text-anchor="start" x="201" y="-642" font-family="Helvetica,sans-Serif" font-size="10.00">DiscordCoreAPI::EventManager</text>
<text text-anchor="middle" x="277" y="-631" font-family="Helvetica,sans-Serif" font-size="10.00">::onChannelCreation</text>
</a>
</g>
</g>
<!-- Node1&#45;&gt;Node2 -->
<g id="edge1" class="edge">
<title>Node1&#45;&gt;Node2</title>
<path fill="none" stroke="midnightblue" d="M80.87,-342.12C85.99,-389.74 108.35,-537.95 193,-615 194.3,-616.18 195.65,-617.3 197.05,-618.37"/>
<polygon fill="midnightblue" stroke="midnightblue" points="195.23,-621.36 205.51,-623.9 199.06,-615.5 195.23,-621.36"/>
</g>
<!-- Node3 -->
<g id="node3" class="node">
<title>Node3</title>
<g id="a_node3"><a xlink:href="../../d9/d13/a02237.html#a13654bf9a8148f798de2d23f51043212" target="_top" xlink:title="For adding a function to handle this event.">
<polygon fill="none" stroke="black" points="361,-606 193,-606 193,-576 361,-576 361,-606"/>
<text text-anchor="start" x="201" y="-594" font-family="Helvetica,sans-Serif" font-size="10.00">DiscordCoreAPI::EventManager</text>
<text text-anchor="middle" x="277" y="-583" font-family="Helvetica,sans-Serif" font-size="10.00">::onChannelDeletion</text>
</a>
</g>
</g>
<!-- Node1&#45;&gt;Node3 -->
<g id="edge2" class="edge">
<title>Node1&#45;&gt;Node3</title>
<path fill="none" stroke="midnightblue" d="M82.21,-342.29C90.56,-384.68 119.83,-504.7 193,-567 194.37,-568.17 195.8,-569.28 197.28,-570.34"/>
<polygon fill="midnightblue" stroke="midnightblue" points="195.82,-573.56 206.17,-575.83 199.5,-567.6 195.82,-573.56"/>
</g>
<!-- Node4 -->
<g id="node4" class="node">
<title>Node4</title>
<g id="a_node4"><a xlink:href="../../d9/d13/a02237.html#a098c5aeea1a1f9a38551c44850b91dc0" target="_top" xlink:title="For adding a function to handle this event.">
<polygon fill="none" stroke="black" points="361,-558 193,-558 193,-528 361,-528 361,-558"/>
<text text-anchor="start" x="201" y="-546" font-family="Helvetica,sans-Serif" font-size="10.00">DiscordCoreAPI::EventManager</text>
<text text-anchor="middle" x="277" y="-535" font-family="Helvetica,sans-Serif" font-size="10.00">::onChannelUpdate</text>
</a>
</g>
</g>
<!-- Node1&#45;&gt;Node4 -->
<g id="edge3" class="edge">
<title>Node1&#45;&gt;Node4</title>
<path fill="none" stroke="midnightblue" d="M84.09,-342.09C95.9,-378.34 130.86,-470.86 193,-519 194.78,-520.38 196.64,-521.68 198.56,-522.91"/>
<polygon fill="midnightblue" stroke="midnightblue" points="196.9,-525.99 207.33,-527.82 200.32,-519.88 196.9,-525.99"/>
</g>
<!-- Node5 -->
<g id="node5" class="node">
<title>Node5</title>
<g id="a_node5"><a xlink:href="../../d9/d13/a02237.html#ae9ae6b6a2349682fec0fa16261127d2a" target="_top" xlink:title="For adding a function to handle this event.">
<polygon fill="none" stroke="black" points="361,-510 193,-510 193,-480 361,-480 361,-510"/>
<text text-anchor="start" x="201" y="-498" font-family="Helvetica,sans-Serif" font-size="10.00">DiscordCoreAPI::EventManager</text>
<text text-anchor="middle" x="277" y="-487" font-family="Helvetica,sans-Serif" font-size="10.00">::onGuildCreation</text>
</a>
</g>
</g>
<!-- Node1&#45;&gt;Node5 -->
<g id="edge4" class="edge">
<title>Node1&#45;&gt;Node5</title>
<path fill="none" stroke="midnightblue" d="M87.23,-342.18C103,-371.6 141.77,-436.52 193,-471 195.39,-472.61 197.89,-474.11 200.47,-475.52"/>
<polygon fill="midnightblue" stroke="midnightblue" points="198.98,-478.68 209.5,-479.92 202.04,-472.39 198.98,-478.68"/>
</g>
<!-- Node6 -->
<g id="node6" class="node">
<title>Node6</title>
<g id="a_node6"><a xlink:href="../../d9/d13/a02237.html#a1074bd3961a496b1aecda8c1921bbd28" target="_top" xlink:title="For adding a function to handle this event.">
<polygon fill="none" stroke="black" points="361,-462 193,-462 193,-432 361,-432 361,-462"/>
<text text-anchor="start" x="201" y="-450" font-family="Helvetica,sans-Serif" font-size="10.00">DiscordCoreAPI::EventManager</text>
<text text-anchor="middle" x="277" y="-439" font-family="Helvetica,sans-Serif" font-size="10.00">::onGuildDeletion</text>
</a>
</g>
</g>
<!-- Node1&#45;&gt;Node6 -->
<g id="edge5" class="edge">
<title>Node1&#45;&gt;Node6</title>
<path fill="none" stroke="midnightblue" d="M93.41,-342.26C113.45,-363.37 152.51,-401.31 193,-423 196.47,-424.86 200.1,-426.59 203.83,-428.2"/>
<polygon fill="midnightblue" stroke="midnightblue" points="202.64,-431.49 213.23,-431.95 205.24,-424.99 202.64,-431.49"/>
</g>
<!-- Node7 -->
<g id="node7" class="node">
<title>Node7</title>
<g id="a_node7"><a xlink:href="../../d9/d13/a02237.html#a2c0cbfac0943bfb869ec08a6003cce1c" target="_top" xlink:title="For adding a function to handle this event.">
<polygon fill="none" stroke="black" points="361,-414 193,-414 193,-384 361,-384 361,-414"/>
<text text-anchor="start" x="201" y="-402" font-family="Helvetica,sans-Serif" font-size="10.00">DiscordCoreAPI::EventManager</text>
<text text-anchor="middle" x="277" y="-391" font-family="Helvetica,sans-Serif" font-size="10.00">::onGuildMemberAdd</text>
</a>
</g>
</g>
<!-- Node1&#45;&gt;Node7 -->
<g id="edge6" class="edge">
<title>Node1&#45;&gt;Node7</title>
<path fill="none" stroke="midnightblue" d="M112.37,-342.12C134.81,-352.15 165.38,-365.2 193,-375 198.62,-376.99 204.49,-378.94 210.4,-380.82"/>
<polygon fill="midnightblue" stroke="midnightblue" points="209.76,-384.28 220.35,-383.9 211.83,-377.6 209.76,-384.28"/>
</g>
<!-- Node8 -->
<g id="node8" class="node">
<title>Node8</title>
<g id="a_node8"><a xlink:href="../../d9/d13/a02237.html#a9b1234877c0ae908e4a4a85e381293a6" target="_top" xlink:title="For adding a function to handle this event.">
<polygon fill="none" stroke="black" points="361,-366 193,-366 193,-336 361,-336 361,-366"/>
<text text-anchor="start" x="201" y="-354" font-family="Helvetica,sans-Serif" font-size="10.00">DiscordCoreAPI::EventManager</text>
<text text-anchor="middle" x="277" y="-343" font-family="Helvetica,sans-Serif" font-size="10.00">::onGuildMemberRemove</text>
</a>
</g>
</g>
<!-- Node1&#45;&gt;Node8 -->
<g id="edge7" class="edge">
<title>Node1&#45;&gt;Node8</title>
<path fill="none" stroke="midnightblue" d="M157.16,-336.49C165.57,-337.51 174.18,-338.56 182.75,-339.61"/>
<polygon fill="midnightblue" stroke="midnightblue" points="182.41,-343.09 192.76,-340.83 183.26,-336.15 182.41,-343.09"/>
</g>
<!-- Node9 -->
<g id="node9" class="node">
<title>Node9</title>
<g id="a_node9"><a xlink:href="../../d9/d13/a02237.html#a3838e406997b4f22aa86822046bbbc7d" target="_top" xlink:title="For adding a function to handle this event.">
<polygon fill="none" stroke="black" points="361,-318 193,-318 193,-288 361,-288 361,-318"/>
<text text-anchor="start" x="201" y="-306" font-family="Helvetica,sans-Serif" font-size="10.00">DiscordCoreAPI::EventManager</text>
<text text-anchor="middle" x="277" y="-295" font-family="Helvetica,sans-Serif" font-size="10.00">::onGuildMemberUpdate</text>
</a>
</g>
</g>
<!-- Node1&#45;&gt;Node9 -->
<g id="edge8" class="edge">
<title>Node1&#45;&gt;Node9</title>
<path fill="none" stroke="midnightblue" d="M157.16,-317.51C165.57,-316.49 174.18,-315.44 182.75,-314.39"/>
<polygon fill="midnightblue" stroke="midnightblue" points="183.26,-317.85 192.76,-313.17 182.41,-310.91 183.26,-317.85"/>
</g>
<!-- Node10 -->
<g id="node10" class="node">
<title>Node10</title>
<g id="a_node10"><a xlink:href="../../d9/d13/a02237.html#a145a73ddbb5a3c480586799f9e122e17" target="_top" xlink:title="For adding a function to handle this event.">
<polygon fill="none" stroke="black" points="361,-270 193,-270 193,-240 361,-240 361,-270"/>
<text text-anchor="start" x="201" y="-258" font-family="Helvetica,sans-Serif" font-size="10.00">DiscordCoreAPI::EventManager</text>
<text text-anchor="middle" x="277" y="-247" font-family="Helvetica,sans-Serif" font-size="10.00">::onGuildUpdate</text>
</a>
</g>
</g>
<!-- Node1&#45;&gt;Node10 -->
<g id="edge9" class="edge">
<title>Node1&#45;&gt;Node10</title>
<path fill="none" stroke="midnightblue" d="M112.37,-311.88C134.81,-301.85 165.38,-288.8 193,-279 198.62,-277.01 204.49,-275.06 210.4,-273.18"/>
<polygon fill="midnightblue" stroke="midnightblue" points="211.83,-276.4 220.35,-270.1 209.76,-269.72 211.83,-276.4"/>
</g>
<!-- Node11 -->
<g id="node11" class="node">
<title>Node11</title>
<g id="a_node11"><a xlink:href="../../d9/d13/a02237.html#ad804ae50994389c1a1c92ba778132529" target="_top" xlink:title="For adding a function to handle this event.">
<polygon fill="none" stroke="black" points="361,-222 193,-222 193,-192 361,-192 361,-222"/>
<text text-anchor="start" x="201" y="-210" font-family="Helvetica,sans-Serif" font-size="10.00">DiscordCoreAPI::EventManager</text>
<text text-anchor="middle" x="277" y="-199" font-family="Helvetica,sans-Serif" font-size="10.00">::onRoleCreation</text>
</a>
</g>
</g>
<!-- Node1&#45;&gt;Node11 -->
<g id="edge10" class="edge">
<title>Node1&#45;&gt;Node11</title>
<path fill="none" stroke="midnightblue" d="M93.41,-311.74C113.45,-290.63 152.51,-252.69 193,-231 196.47,-229.14 200.1,-227.41 203.83,-225.8"/>
<polygon fill="midnightblue" stroke="midnightblue" points="205.24,-229.01 213.23,-222.05 202.64,-222.51 205.24,-229.01"/>
</g>
<!-- Node12 -->
<g id="node12" class="node">
<title>Node12</title>
<g id="a_node12"><a xlink:href="../../d9/d13/a02237.html#aab179fd16b55ebd8b50115a15853d731" target="_top" xlink:title="For adding a function to handle this event.">
<polygon fill="none" stroke="black" points="361,-174 193,-174 193,-144 361,-144 361,-174"/>
<text text-anchor="start" x="201" y="-162" font-family="Helvetica,sans-Serif" font-size="10.00">DiscordCoreAPI::EventManager</text>
<text text-anchor="middle" x="277" y="-151" font-family="Helvetica,sans-Serif" font-size="10.00">::onRoleDeletion</text>
</a>
</g>
</g>
<!-- Node1&#45;&gt;Node12 -->
<g id="edge11" class="edge">
<title>Node1&#45;&gt;Node12</title>
<path fill="none" stroke="midnightblue" d="M87.23,-311.82C103,-282.4 141.77,-217.48 193,-183 195.39,-181.39 197.89,-179.89 200.47,-178.48"/>
<polygon fill="midnightblue" stroke="midnightblue" points="202.04,-181.61 209.5,-174.08 198.98,-175.32 202.04,-181.61"/>
</g>
<!-- Node13 -->
<g id="node13" class="node">
<title>Node13</title>
<g id="a_node13"><a xlink:href="../../d9/d13/a02237.html#ab267a93be7272fd518078d22d838c4fa" target="_top" xlink:title="For adding a function to handle this event.">
<polygon fill="none" stroke="black" points="361,-126 193,-126 193,-96 361,-96 361,-126"/>
<text text-anchor="start" x="201" y="-114" font-family="Helvetica,sans-Serif" font-size="10.00">DiscordCoreAPI::EventManager</text>
<text text-anchor="middle" x="277" y="-103" font-family="Helvetica,sans-Serif" font-size="10.00">::onRoleUpdate</text>
</a>
</g>
</g>
<!-- Node1&#45;&gt;Node13 -->
<g id="edge12" class="edge">
<title>Node1&#45;&gt;Node13</title>
<path fill="none" stroke="midnightblue" d="M84.09,-311.91C95.9,-275.66 130.86,-183.14 193,-135 194.78,-133.62 196.64,-132.32 198.56,-131.09"/>
<polygon fill="midnightblue" stroke="midnightblue" points="200.32,-134.12 207.33,-126.18 196.9,-128.01 200.32,-134.12"/>
</g>
<!-- Node14 -->
<g id="node14" class="node">
<title>Node14</title>
<g id="a_node14"><a xlink:href="../../d9/d13/a02237.html#a3da4855acd5d0910d7444942720b67bf" target="_top" xlink:title="For adding a function to handle this event.">
<polygon fill="none" stroke="black" points="361,-78 193,-78 193,-48 361,-48 361,-78"/>
<text text-anchor="start" x="201" y="-66" font-family="Helvetica,sans-Serif" font-size="10.00">DiscordCoreAPI::EventManager</text>
<text text-anchor="middle" x="277" y="-55" font-family="Helvetica,sans-Serif" font-size="10.00">::onUserUpdate</text>
</a>
</g>
</g>
<!-- Node1&#45;&gt;Node14 -->
<g id="edge13" class="edge">
<title>Node1&#45;&gt;Node14</title>
<path fill="none" stroke="midnightblue" d="M82.21,-311.71C90.56,-269.32 119.83,-149.3 193,-87 194.37,-85.83 195.8,-84.72 197.28,-83.66"/>
<polygon fill="midnightblue" stroke="midnightblue" points="199.5,-86.4 206.17,-78.17 195.82,-80.44 199.5,-86.4"/>
</g>
<!-- Node15 -->
<g id="node15" class="node">
<title>Node15</title>
<g id="a_node15"><a xlink:href="../../d9/d13/a02237.html#ad7bf4a8b8f430d48f1165e6d3b52dc8a" target="_top" xlink:title="For adding a function to handle this event.">
<polygon fill="none" stroke="black" points="361,-30 193,-30 193,0 361,0 361,-30"/>
<text text-anchor="start" x="201" y="-18" font-family="Helvetica,sans-Serif" font-size="10.00">DiscordCoreAPI::EventManager</text>
<text text-anchor="middle" x="277" y="-7" font-family="Helvetica,sans-Serif" font-size="10.00">::onVoiceStateUpdate</text>
</a>
</g>
</g>
<!-- Node1&#45;&gt;Node15 -->
<g id="edge14" class="edge">
<title>Node1&#45;&gt;Node15</title>
<path fill="none" stroke="midnightblue" d="M80.87,-311.88C85.99,-264.26 108.35,-116.05 193,-39 194.3,-37.82 195.65,-36.7 197.05,-35.63"/>
<polygon fill="midnightblue" stroke="midnightblue" points="199.06,-38.5 205.51,-30.1 195.23,-32.64 199.06,-38.5"/>
</g>
</g>
</svg>
