<?xml version="1.0" encoding="UTF-8" standalone="no"?>
<!DOCTYPE svg PUBLIC "-//W3C//DTD SVG 1.1//EN"
 "http://www.w3.org/Graphics/SVG/1.1/DTD/svg11.dtd">
<!-- Generated by graphviz version 3.0.0 (20220226.1711)
 -->
<!-- Title: UserEntities.hpp Pages: 1 -->
<svg width="2273pt" height="610pt"
 viewBox="0.00 0.00 2272.70 610.00" xmlns="http://www.w3.org/2000/svg" xmlns:xlink="http://www.w3.org/1999/xlink">
<g id="graph0" class="graph" transform="scale(1 1) rotate(0) translate(4 606)">
<title>UserEntities.hpp</title>
<!-- Node1 -->
<g id="node1" class="node">
<title>Node1</title>
<g id="a_node1"><a xlink:title=" ">
<polygon fill="#bfbfbf" stroke="black" points="485.7,-582.5 485.7,-601.5 574.7,-601.5 574.7,-582.5 485.7,-582.5"/>
<text text-anchor="middle" x="530.2" y="-589.5" font-family="Helvetica,sans-Serif" font-size="10.00">UserEntities.hpp</text>
</a>
</g>
</g>
<!-- Node2 -->
<g id="node2" class="node">
<title>Node2</title>
<g id="a_node2"><a xlink:href="../../d4/deb/a00710.html" target="_top" xlink:title=" ">
<polygon fill="none" stroke="black" points="1476.7,-112.5 1476.7,-142.5 1607.7,-142.5 1607.7,-112.5 1476.7,-112.5"/>
<text text-anchor="start" x="1484.7" y="-130.5" font-family="Helvetica,sans-Serif" font-size="10.00">discordcoreapi/Foundation</text>
<text text-anchor="middle" x="1542.2" y="-119.5" font-family="Helvetica,sans-Serif" font-size="10.00">Entities.hpp</text>
</a>
</g>
</g>
<!-- Node1&#45;&gt;Node2 -->
<g id="edge1" class="edge">
<title>Node1&#45;&gt;Node2</title>
<path fill="none" stroke="midnightblue" d="M485.55,-590.28C358.01,-587.02 1.2,-569.04 1.2,-470 1.2,-470 1.2,-470 1.2,-244 1.2,-213.9 -3.59,-197.45 20.2,-179 77.77,-134.33 1165.42,-129.15 1465.87,-128.57"/>
<polygon fill="midnightblue" stroke="midnightblue" points="1466.23,-132.07 1476.23,-128.55 1466.22,-125.07 1466.23,-132.07"/>
</g>
<!-- Node27 -->
<g id="node27" class="node">
<title>Node27</title>
<g id="a_node27"><a xlink:href="../../d9/dd4/a00776.html" target="_top" xlink:title=" ">
<polygon fill="none" stroke="black" points="1157.2,-515.5 1157.2,-545.5 1291.2,-545.5 1291.2,-515.5 1157.2,-515.5"/>
<text text-anchor="start" x="1165.2" y="-533.5" font-family="Helvetica,sans-Serif" font-size="10.00">discordcoreapi/WebSocket</text>
<text text-anchor="middle" x="1224.2" y="-522.5" font-family="Helvetica,sans-Serif" font-size="10.00">Entities.hpp</text>
</a>
</g>
</g>
<!-- Node1&#45;&gt;Node27 -->
<g id="edge26" class="edge">
<title>Node1&#45;&gt;Node27</title>
<path fill="none" stroke="midnightblue" d="M574.93,-587.16C690.71,-577.24 1001.28,-550.61 1146.87,-538.13"/>
<polygon fill="midnightblue" stroke="midnightblue" points="1147.4,-541.6 1157.06,-537.26 1146.8,-534.62 1147.4,-541.6"/>
</g>
<!-- Node3 -->
<g id="node3" class="node">
<title>Node3</title>
<g id="a_node3"><a xlink:href="../../d5/dae/a00767.html" target="_top" xlink:title=" ">
<polygon fill="none" stroke="black" points="1475.2,-56.5 1475.2,-75.5 1609.2,-75.5 1609.2,-56.5 1475.2,-56.5"/>
<text text-anchor="middle" x="1542.2" y="-63.5" font-family="Helvetica,sans-Serif" font-size="10.00">discordcoreapi/Utilities.hpp</text>
</a>
</g>
</g>
<!-- Node2&#45;&gt;Node3 -->
<g id="edge2" class="edge">
<title>Node2&#45;&gt;Node3</title>
<path fill="none" stroke="midnightblue" d="M1542.2,-112.4C1542.2,-104.47 1542.2,-94.46 1542.2,-85.86"/>
<polygon fill="midnightblue" stroke="midnightblue" points="1545.7,-85.66 1542.2,-75.66 1538.7,-85.66 1545.7,-85.66"/>
</g>
<!-- Node4 -->
<g id="node4" class="node">
<title>Node4</title>
<g id="a_node4"><a xlink:title=" ">
<polygon fill="none" stroke="#bfbfbf" points="548.7,-0.5 548.7,-19.5 605.7,-19.5 605.7,-0.5 548.7,-0.5"/>
<text text-anchor="middle" x="577.2" y="-7.5" font-family="Helvetica,sans-Serif" font-size="10.00">pthread.h</text>
</a>
</g>
</g>
<!-- Node3&#45;&gt;Node4 -->
<g id="edge3" class="edge">
<title>Node3&#45;&gt;Node4</title>
<path fill="none" stroke="midnightblue" d="M1475.14,-63.35C1294.63,-58.65 800.22,-44.07 615.84,-19.74"/>
<polygon fill="midnightblue" stroke="midnightblue" points="616.1,-16.24 605.72,-18.35 615.15,-23.18 616.1,-16.24"/>
</g>
<!-- Node5 -->
<g id="node5" class="node">
<title>Node5</title>
<g id="a_node5"><a xlink:title=" ">
<polygon fill="none" stroke="#bfbfbf" points="624.2,-0.5 624.2,-19.5 686.2,-19.5 686.2,-0.5 624.2,-0.5"/>
<text text-anchor="middle" x="655.2" y="-7.5" font-family="Helvetica,sans-Serif" font-size="10.00">sys/time.h</text>
</a>
</g>
</g>
<!-- Node3&#45;&gt;Node5 -->
<g id="edge4" class="edge">
<title>Node3&#45;&gt;Node5</title>
<path fill="none" stroke="midnightblue" d="M1475.13,-65.26C1333.04,-64.97 991.26,-59.92 696.57,-19.95"/>
<polygon fill="midnightblue" stroke="midnightblue" points="696.93,-16.47 686.55,-18.58 695.98,-23.4 696.93,-16.47"/>
</g>
<!-- Node6 -->
<g id="node6" class="node">
<title>Node6</title>
<g id="a_node6"><a xlink:title=" ">
<polygon fill="none" stroke="#bfbfbf" points="704.2,-0.5 704.2,-19.5 748.2,-19.5 748.2,-0.5 704.2,-0.5"/>
<text text-anchor="middle" x="726.2" y="-7.5" font-family="Helvetica,sans-Serif" font-size="10.00">time.h</text>
</a>
</g>
</g>
<!-- Node3&#45;&gt;Node6 -->
<g id="edge5" class="edge">
<title>Node3&#45;&gt;Node6</title>
<path fill="none" stroke="midnightblue" d="M1475.17,-63.1C1315.11,-58.25 913.03,-44.19 758.65,-19.8"/>
<polygon fill="midnightblue" stroke="midnightblue" points="758.84,-16.28 748.41,-18.1 757.7,-23.19 758.84,-16.28"/>
</g>
<!-- Node7 -->
<g id="node7" class="node">
<title>Node7</title>
<g id="a_node7"><a xlink:title=" ">
<polygon fill="none" stroke="#bfbfbf" points="766.7,-0.5 766.7,-19.5 807.7,-19.5 807.7,-0.5 766.7,-0.5"/>
<text text-anchor="middle" x="787.2" y="-7.5" font-family="Helvetica,sans-Serif" font-size="10.00">ctime</text>
</a>
</g>
</g>
<!-- Node3&#45;&gt;Node7 -->
<g id="edge6" class="edge">
<title>Node3&#45;&gt;Node7</title>
<path fill="none" stroke="midnightblue" d="M1475.09,-62.89C1323.99,-57.82 959.85,-43.7 818.17,-19.9"/>
<polygon fill="midnightblue" stroke="midnightblue" points="818.41,-16.39 807.96,-18.09 817.19,-23.28 818.41,-16.39"/>
</g>
<!-- Node8 -->
<g id="node8" class="node">
<title>Node8</title>
<g id="a_node8"><a xlink:title=" ">
<polygon fill="none" stroke="#bfbfbf" points="825.7,-0.5 825.7,-19.5 918.7,-19.5 918.7,-0.5 825.7,-0.5"/>
<text text-anchor="middle" x="872.2" y="-7.5" font-family="Helvetica,sans-Serif" font-size="10.00">condition_variable</text>
</a>
</g>
</g>
<!-- Node3&#45;&gt;Node8 -->
<g id="edge7" class="edge">
<title>Node3&#45;&gt;Node8</title>
<path fill="none" stroke="midnightblue" d="M1474.78,-61.96C1363.39,-56.53 1133.74,-43.55 928.95,-19.98"/>
<polygon fill="midnightblue" stroke="midnightblue" points="929.24,-16.49 918.9,-18.82 928.43,-23.45 929.24,-16.49"/>
</g>
<!-- Node9 -->
<g id="node9" class="node">
<title>Node9</title>
<g id="a_node9"><a xlink:title=" ">
<polygon fill="none" stroke="#bfbfbf" points="937.2,-0.5 937.2,-19.5 1035.2,-19.5 1035.2,-0.5 937.2,-0.5"/>
<text text-anchor="middle" x="986.2" y="-7.5" font-family="Helvetica,sans-Serif" font-size="10.00">nlohmann/json.hpp</text>
</a>
</g>
</g>
<!-- Node3&#45;&gt;Node9 -->
<g id="edge8" class="edge">
<title>Node3&#45;&gt;Node9</title>
<path fill="none" stroke="midnightblue" d="M1475.19,-60.31C1381.4,-53.44 1205.41,-39.45 1045.25,-20.06"/>
<polygon fill="midnightblue" stroke="midnightblue" points="1045.56,-16.57 1035.21,-18.83 1044.71,-23.52 1045.56,-16.57"/>
</g>
<!-- Node10 -->
<g id="node10" class="node">
<title>Node10</title>
<g id="a_node10"><a xlink:title=" ">
<polygon fill="none" stroke="#bfbfbf" points="1053.7,-0.5 1053.7,-19.5 1138.7,-19.5 1138.7,-0.5 1053.7,-0.5"/>
<text text-anchor="middle" x="1096.2" y="-7.5" font-family="Helvetica,sans-Serif" font-size="10.00">source_location</text>
</a>
</g>
</g>
<!-- Node3&#45;&gt;Node10 -->
<g id="edge9" class="edge">
<title>Node3&#45;&gt;Node10</title>
<path fill="none" stroke="midnightblue" d="M1474.94,-58.6C1398.35,-51.04 1269.25,-37.42 1148.87,-20.17"/>
<polygon fill="midnightblue" stroke="midnightblue" points="1149.14,-16.67 1138.74,-18.71 1148.14,-23.6 1149.14,-16.67"/>
</g>
<!-- Node11 -->
<g id="node11" class="node">
<title>Node11</title>
<g id="a_node11"><a xlink:title=" ">
<polygon fill="none" stroke="#bfbfbf" points="1156.7,-0.5 1156.7,-19.5 1239.7,-19.5 1239.7,-0.5 1156.7,-0.5"/>
<text text-anchor="middle" x="1198.2" y="-7.5" font-family="Helvetica,sans-Serif" font-size="10.00">unordered_map</text>
</a>
</g>
</g>
<!-- Node3&#45;&gt;Node11 -->
<g id="edge10" class="edge">
<title>Node3&#45;&gt;Node11</title>
<path fill="none" stroke="midnightblue" d="M1484.32,-56.5C1427.37,-48.05 1337.66,-34.5 1250.05,-20.11"/>
<polygon fill="midnightblue" stroke="midnightblue" points="1250.37,-16.62 1239.93,-18.44 1249.23,-23.52 1250.37,-16.62"/>
</g>
<!-- Node12 -->
<g id="node12" class="node">
<title>Node12</title>
<g id="a_node12"><a xlink:title=" ">
<polygon fill="none" stroke="#bfbfbf" points="1258.2,-0.5 1258.2,-19.5 1336.2,-19.5 1336.2,-0.5 1258.2,-0.5"/>
<text text-anchor="middle" x="1297.2" y="-7.5" font-family="Helvetica,sans-Serif" font-size="10.00">shared_mutex</text>
</a>
</g>
</g>
<!-- Node3&#45;&gt;Node12 -->
<g id="edge11" class="edge">
<title>Node3&#45;&gt;Node12</title>
<path fill="none" stroke="midnightblue" d="M1503.37,-56.44C1460.63,-47.02 1391.86,-31.87 1345.63,-21.68"/>
<polygon fill="midnightblue" stroke="midnightblue" points="1346.35,-18.25 1335.83,-19.52 1344.85,-25.09 1346.35,-18.25"/>
</g>
<!-- Node13 -->
<g id="node13" class="node">
<title>Node13</title>
<g id="a_node13"><a xlink:title=" ">
<polygon fill="none" stroke="#bfbfbf" points="1354.2,-0.5 1354.2,-19.5 1412.2,-19.5 1412.2,-0.5 1354.2,-0.5"/>
<text text-anchor="middle" x="1383.2" y="-7.5" font-family="Helvetica,sans-Serif" font-size="10.00">functional</text>
</a>
</g>
</g>
<!-- Node3&#45;&gt;Node13 -->
<g id="edge12" class="edge">
<title>Node3&#45;&gt;Node13</title>
<path fill="none" stroke="midnightblue" d="M1517,-56.44C1490.25,-47.36 1447.79,-32.94 1417.89,-22.78"/>
<polygon fill="midnightblue" stroke="midnightblue" points="1418.87,-19.42 1408.27,-19.52 1416.61,-26.05 1418.87,-19.42"/>
</g>
<!-- Node14 -->
<g id="node14" class="node">
<title>Node14</title>
<g id="a_node14"><a xlink:title=" ">
<polygon fill="none" stroke="#bfbfbf" points="1430.7,-0.5 1430.7,-19.5 1495.7,-19.5 1495.7,-0.5 1430.7,-0.5"/>
<text text-anchor="middle" x="1463.2" y="-7.5" font-family="Helvetica,sans-Serif" font-size="10.00">semaphore</text>
</a>
</g>
</g>
<!-- Node3&#45;&gt;Node14 -->
<g id="edge13" class="edge">
<title>Node3&#45;&gt;Node14</title>
<path fill="none" stroke="midnightblue" d="M1529.5,-56.32C1517.29,-47.98 1498.62,-35.21 1484.19,-25.35"/>
<polygon fill="midnightblue" stroke="midnightblue" points="1486.09,-22.41 1475.86,-19.65 1482.14,-28.19 1486.09,-22.41"/>
</g>
<!-- Node15 -->
<g id="node15" class="node">
<title>Node15</title>
<g id="a_node15"><a xlink:title=" ">
<polygon fill="none" stroke="#bfbfbf" points="1514.2,-0.5 1514.2,-19.5 1570.2,-19.5 1570.2,-0.5 1514.2,-0.5"/>
<text text-anchor="middle" x="1542.2" y="-7.5" font-family="Helvetica,sans-Serif" font-size="10.00">concepts</text>
</a>
</g>
</g>
<!-- Node3&#45;&gt;Node15 -->
<g id="edge14" class="edge">
<title>Node3&#45;&gt;Node15</title>
<path fill="none" stroke="midnightblue" d="M1542.2,-56.08C1542.2,-49.01 1542.2,-38.86 1542.2,-29.99"/>
<polygon fill="midnightblue" stroke="midnightblue" points="1545.7,-29.75 1542.2,-19.75 1538.7,-29.75 1545.7,-29.75"/>
</g>
<!-- Node16 -->
<g id="node16" class="node">
<title>Node16</title>
<g id="a_node16"><a xlink:title=" ">
<polygon fill="none" stroke="#bfbfbf" points="1588.2,-0.5 1588.2,-19.5 1642.2,-19.5 1642.2,-0.5 1588.2,-0.5"/>
<text text-anchor="middle" x="1615.2" y="-7.5" font-family="Helvetica,sans-Serif" font-size="10.00">iostream</text>
</a>
</g>
</g>
<!-- Node3&#45;&gt;Node16 -->
<g id="edge15" class="edge">
<title>Node3&#45;&gt;Node16</title>
<path fill="none" stroke="midnightblue" d="M1553.92,-56.32C1565.03,-48.11 1581.94,-35.6 1595.18,-25.81"/>
<polygon fill="midnightblue" stroke="midnightblue" points="1597.3,-28.59 1603.25,-19.83 1593.13,-22.97 1597.3,-28.59"/>
</g>
<!-- Node17 -->
<g id="node17" class="node">
<title>Node17</title>
<g id="a_node17"><a xlink:title=" ">
<polygon fill="none" stroke="#bfbfbf" points="1660.7,-0.5 1660.7,-19.5 1709.7,-19.5 1709.7,-0.5 1660.7,-0.5"/>
<text text-anchor="middle" x="1685.2" y="-7.5" font-family="Helvetica,sans-Serif" font-size="10.00">fstream</text>
</a>
</g>
</g>
<!-- Node3&#45;&gt;Node17 -->
<g id="edge16" class="edge">
<title>Node3&#45;&gt;Node17</title>
<path fill="none" stroke="midnightblue" d="M1564.85,-56.44C1588.6,-47.48 1626.1,-33.31 1652.93,-23.18"/>
<polygon fill="midnightblue" stroke="midnightblue" points="1654.52,-26.32 1662.64,-19.52 1652.05,-19.77 1654.52,-26.32"/>
</g>
<!-- Node18 -->
<g id="node18" class="node">
<title>Node18</title>
<g id="a_node18"><a xlink:title=" ">
<polygon fill="none" stroke="#bfbfbf" points="1727.7,-0.5 1727.7,-19.5 1768.7,-19.5 1768.7,-0.5 1727.7,-0.5"/>
<text text-anchor="middle" x="1748.2" y="-7.5" font-family="Helvetica,sans-Serif" font-size="10.00">bitset</text>
</a>
</g>
</g>
<!-- Node3&#45;&gt;Node18 -->
<g id="edge17" class="edge">
<title>Node3&#45;&gt;Node18</title>
<path fill="none" stroke="midnightblue" d="M1577.37,-56.46C1610.96,-48.2 1663.23,-35.09 1717.73,-20.04"/>
<polygon fill="midnightblue" stroke="midnightblue" points="1718.87,-23.36 1727.57,-17.31 1717,-16.61 1718.87,-23.36"/>
</g>
<!-- Node19 -->
<g id="node19" class="node">
<title>Node19</title>
<g id="a_node19"><a xlink:title=" ">
<polygon fill="none" stroke="#bfbfbf" points="1787.2,-0.5 1787.2,-19.5 1839.2,-19.5 1839.2,-0.5 1787.2,-0.5"/>
<text text-anchor="middle" x="1813.2" y="-7.5" font-family="Helvetica,sans-Serif" font-size="10.00">memory</text>
</a>
</g>
</g>
<!-- Node3&#45;&gt;Node19 -->
<g id="edge18" class="edge">
<title>Node3&#45;&gt;Node19</title>
<path fill="none" stroke="midnightblue" d="M1590.97,-56.48C1636.47,-48.35 1706.46,-35.37 1776.94,-19.95"/>
<polygon fill="midnightblue" stroke="midnightblue" points="1777.88,-23.33 1786.89,-17.76 1776.37,-16.49 1777.88,-23.33"/>
</g>
<!-- Node20 -->
<g id="node20" class="node">
<title>Node20</title>
<g id="a_node20"><a xlink:title=" ">
<polygon fill="none" stroke="#bfbfbf" points="1857.7,-0.5 1857.7,-19.5 1906.7,-19.5 1906.7,-0.5 1857.7,-0.5"/>
<text text-anchor="middle" x="1882.2" y="-7.5" font-family="Helvetica,sans-Serif" font-size="10.00">random</text>
</a>
</g>
</g>
<!-- Node3&#45;&gt;Node20 -->
<g id="edge19" class="edge">
<title>Node3&#45;&gt;Node20</title>
<path fill="none" stroke="midnightblue" d="M1609.43,-57.33C1669.44,-49.97 1759.84,-37.66 1847.54,-19.93"/>
<polygon fill="midnightblue" stroke="midnightblue" points="1848.29,-23.35 1857.39,-17.91 1846.89,-16.49 1848.29,-23.35"/>
</g>
<!-- Node21 -->
<g id="node21" class="node">
<title>Node21</title>
<g id="a_node21"><a xlink:title=" ">
<polygon fill="none" stroke="#bfbfbf" points="1924.7,-0.5 1924.7,-19.5 1965.7,-19.5 1965.7,-0.5 1924.7,-0.5"/>
<text text-anchor="middle" x="1945.2" y="-7.5" font-family="Helvetica,sans-Serif" font-size="10.00">string</text>
</a>
</g>
</g>
<!-- Node3&#45;&gt;Node21 -->
<g id="edge20" class="edge">
<title>Node3&#45;&gt;Node21</title>
<path fill="none" stroke="midnightblue" d="M1609.46,-60.37C1682.46,-54.57 1802.49,-42.75 1914.85,-19.71"/>
<polygon fill="midnightblue" stroke="midnightblue" points="1915.58,-23.13 1924.66,-17.67 1914.15,-16.28 1915.58,-23.13"/>
</g>
<!-- Node22 -->
<g id="node22" class="node">
<title>Node22</title>
<g id="a_node22"><a xlink:title=" ">
<polygon fill="none" stroke="#bfbfbf" points="1984.2,-0.5 1984.2,-19.5 2026.2,-19.5 2026.2,-0.5 1984.2,-0.5"/>
<text text-anchor="middle" x="2005.2" y="-7.5" font-family="Helvetica,sans-Serif" font-size="10.00">vector</text>
</a>
</g>
</g>
<!-- Node3&#45;&gt;Node22 -->
<g id="edge21" class="edge">
<title>Node3&#45;&gt;Node22</title>
<path fill="none" stroke="midnightblue" d="M1609.35,-61.73C1694.77,-56.72 1846.54,-44.97 1974.2,-20 1974.29,-19.98 1974.39,-19.96 1974.49,-19.94"/>
<polygon fill="midnightblue" stroke="midnightblue" points="1975.04,-23.41 1983.97,-17.7 1973.44,-16.59 1975.04,-23.41"/>
</g>
<!-- Node23 -->
<g id="node23" class="node">
<title>Node23</title>
<g id="a_node23"><a xlink:title=" ">
<polygon fill="none" stroke="#bfbfbf" points="2044.2,-0.5 2044.2,-19.5 2088.2,-19.5 2088.2,-0.5 2044.2,-0.5"/>
<text text-anchor="middle" x="2066.2" y="-7.5" font-family="Helvetica,sans-Serif" font-size="10.00">thread</text>
</a>
</g>
</g>
<!-- Node3&#45;&gt;Node23 -->
<g id="edge22" class="edge">
<title>Node3&#45;&gt;Node23</title>
<path fill="none" stroke="midnightblue" d="M1609.34,-62.94C1702.69,-59.18 1876.97,-48.9 2033.67,-19.94"/>
<polygon fill="midnightblue" stroke="midnightblue" points="2034.79,-23.29 2043.97,-18.01 2033.49,-16.41 2034.79,-23.29"/>
</g>
<!-- Node24 -->
<g id="node24" class="node">
<title>Node24</title>
<g id="a_node24"><a xlink:title=" ">
<polygon fill="none" stroke="#bfbfbf" points="2106.2,-0.5 2106.2,-19.5 2150.2,-19.5 2150.2,-0.5 2106.2,-0.5"/>
<text text-anchor="middle" x="2128.2" y="-7.5" font-family="Helvetica,sans-Serif" font-size="10.00">mutex</text>
</a>
</g>
</g>
<!-- Node3&#45;&gt;Node24 -->
<g id="edge23" class="edge">
<title>Node3&#45;&gt;Node24</title>
<path fill="none" stroke="midnightblue" d="M1609.4,-63.91C1712.46,-61.28 1915.69,-52.3 2096.04,-19.85"/>
<polygon fill="midnightblue" stroke="midnightblue" points="2096.77,-23.27 2105.97,-18.03 2095.51,-16.39 2096.77,-23.27"/>
</g>
<!-- Node25 -->
<g id="node25" class="node">
<title>Node25</title>
<g id="a_node25"><a xlink:title=" ">
<polygon fill="none" stroke="#bfbfbf" points="2168.7,-0.5 2168.7,-19.5 2211.7,-19.5 2211.7,-0.5 2168.7,-0.5"/>
<text text-anchor="middle" x="2190.2" y="-7.5" font-family="Helvetica,sans-Serif" font-size="10.00">queue</text>
</a>
</g>
</g>
<!-- Node3&#45;&gt;Node25 -->
<g id="edge24" class="edge">
<title>Node3&#45;&gt;Node25</title>
<path fill="none" stroke="midnightblue" d="M1609.42,-64.69C1721.57,-63.17 1953.87,-55.74 2158.62,-19.68"/>
<polygon fill="midnightblue" stroke="midnightblue" points="2159.42,-23.09 2168.65,-17.88 2158.19,-16.2 2159.42,-23.09"/>
</g>
<!-- Node26 -->
<g id="node26" class="node">
<title>Node26</title>
<g id="a_node26"><a xlink:title=" ">
<polygon fill="none" stroke="#bfbfbf" points="2229.7,-0.5 2229.7,-19.5 2264.7,-19.5 2264.7,-0.5 2229.7,-0.5"/>
<text text-anchor="middle" x="2247.2" y="-7.5" font-family="Helvetica,sans-Serif" font-size="10.00">map</text>
</a>
</g>
</g>
<!-- Node3&#45;&gt;Node26 -->
<g id="edge25" class="edge">
<title>Node3&#45;&gt;Node26</title>
<path fill="none" stroke="midnightblue" d="M1609.38,-62.83C1753.23,-57.81 2087.98,-44.13 2219.6,-19.76"/>
<polygon fill="midnightblue" stroke="midnightblue" points="2220.32,-23.19 2229.47,-17.84 2218.98,-16.32 2220.32,-23.19"/>
</g>
<!-- Node27&#45;&gt;Node2 -->
<g id="edge27" class="edge">
<title>Node27&#45;&gt;Node2</title>
<path fill="none" stroke="midnightblue" d="M1291.39,-523.58C1448.22,-508.85 1825.2,-467.86 1825.2,-414 1825.2,-414 1825.2,-414 1825.2,-244 1825.2,-199.08 1701.43,-163.06 1617.59,-143.81"/>
<polygon fill="midnightblue" stroke="midnightblue" points="1618.36,-140.4 1607.83,-141.61 1616.81,-147.23 1618.36,-140.4"/>
</g>
<!-- Node28 -->
<g id="node28" class="node">
<title>Node28</title>
<g id="a_node28"><a xlink:href="../../d4/d9b/a00680.html" target="_top" xlink:title=" ">
<polygon fill="none" stroke="black" points="246.2,-235.5 246.2,-254.5 408.2,-254.5 408.2,-235.5 246.2,-235.5"/>
<text text-anchor="middle" x="327.2" y="-242.5" font-family="Helvetica,sans-Serif" font-size="10.00">discordcoreapi/AudioDecoder.hpp</text>
</a>
</g>
</g>
<!-- Node27&#45;&gt;Node28 -->
<g id="edge28" class="edge">
<title>Node27&#45;&gt;Node28</title>
<path fill="none" stroke="midnightblue" d="M1156.92,-525.87C976.45,-515.24 495.2,-480.63 495.2,-414 495.2,-414 495.2,-414 495.2,-356 495.2,-300.23 429.59,-271.2 380.37,-257.28"/>
<polygon fill="midnightblue" stroke="midnightblue" points="381.03,-253.83 370.46,-254.61 379.21,-260.59 381.03,-253.83"/>
</g>
<!-- Node29 -->
<g id="node29" class="node">
<title>Node29</title>
<g id="a_node29"><a xlink:href="../../d4/d6a/a00704.html" target="_top" xlink:title=" ">
<polygon fill="none" stroke="black" points="355.2,-179.5 355.2,-198.5 513.2,-198.5 513.2,-179.5 355.2,-179.5"/>
<text text-anchor="middle" x="434.2" y="-186.5" font-family="Helvetica,sans-Serif" font-size="10.00">discordcoreapi/EventEntities.hpp</text>
</a>
</g>
</g>
<!-- Node27&#45;&gt;Node29 -->
<g id="edge60" class="edge">
<title>Node27&#45;&gt;Node29</title>
<path fill="none" stroke="midnightblue" d="M1157.02,-523.81C1044.04,-512.38 828.2,-481.68 828.2,-414 828.2,-414 828.2,-414 828.2,-300 828.2,-265.65 603.19,-220.4 493.25,-200.34"/>
<polygon fill="midnightblue" stroke="midnightblue" points="493.76,-196.87 483.3,-198.53 492.51,-203.76 493.76,-196.87"/>
</g>
<!-- Node32 -->
<g id="node32" class="node">
<title>Node32</title>
<g id="a_node32"><a xlink:href="../../d0/db6/a00692.html" target="_top" xlink:title=" ">
<polygon fill="none" stroke="black" points="1367.7,-459.5 1367.7,-478.5 1554.7,-478.5 1554.7,-459.5 1367.7,-459.5"/>
<text text-anchor="middle" x="1461.2" y="-466.5" font-family="Helvetica,sans-Serif" font-size="10.00">discordcoreapi/CommandController.hpp</text>
</a>
</g>
</g>
<!-- Node27&#45;&gt;Node32 -->
<g id="edge34" class="edge">
<title>Node27&#45;&gt;Node32</title>
<path fill="none" stroke="midnightblue" d="M1280.06,-515.47C1322.02,-504.94 1378.68,-490.72 1417.39,-481"/>
<polygon fill="midnightblue" stroke="midnightblue" points="1418.47,-484.34 1427.31,-478.51 1416.76,-477.55 1418.47,-484.34"/>
</g>
<!-- Node34 -->
<g id="node34" class="node">
<title>Node34</title>
<g id="a_node34"><a xlink:href="../../d3/d4f/a00761.html" target="_top" xlink:title=" ">
<polygon fill="none" stroke="black" points="1346.2,-347.5 1346.2,-366.5 1496.2,-366.5 1496.2,-347.5 1346.2,-347.5"/>
<text text-anchor="middle" x="1421.2" y="-354.5" font-family="Helvetica,sans-Serif" font-size="10.00">discordcoreapi/ThreadPool.hpp</text>
</a>
</g>
</g>
<!-- Node27&#45;&gt;Node34 -->
<g id="edge62" class="edge">
<title>Node27&#45;&gt;Node34</title>
<path fill="none" stroke="midnightblue" d="M1240.32,-515.47C1276.88,-483.63 1365.86,-406.17 1403.7,-373.23"/>
<polygon fill="midnightblue" stroke="midnightblue" points="1406.12,-375.77 1411.36,-366.56 1401.52,-370.49 1406.12,-375.77"/>
</g>
<!-- Node36 -->
<g id="node36" class="node">
<title>Node36</title>
<g id="a_node36"><a xlink:href="../../d5/de8/a00749.html" target="_top" xlink:title=" ">
<polygon fill="none" stroke="black" points="1023.2,-235.5 1023.2,-254.5 1173.2,-254.5 1173.2,-235.5 1023.2,-235.5"/>
<text text-anchor="middle" x="1098.2" y="-242.5" font-family="Helvetica,sans-Serif" font-size="10.00">discordcoreapi/SSLClients.hpp</text>
</a>
</g>
</g>
<!-- Node27&#45;&gt;Node36 -->
<g id="edge61" class="edge">
<title>Node27&#45;&gt;Node36</title>
<path fill="none" stroke="midnightblue" d="M1200.22,-515.24C1171.49,-496.12 1127.2,-459.3 1127.2,-414 1127.2,-414 1127.2,-414 1127.2,-356 1127.2,-322.72 1114.63,-285.58 1106.04,-264.09"/>
<polygon fill="midnightblue" stroke="midnightblue" points="1109.18,-262.53 1102.11,-254.64 1102.71,-265.21 1109.18,-262.53"/>
</g>
<!-- Node50 -->
<g id="node50" class="node">
<title>Node50</title>
<g id="a_node50"><a xlink:href="../../dd/d57/a00701.html" target="_top" xlink:title=" ">
<polygon fill="none" stroke="black" points="1653.2,-403.5 1653.2,-422.5 1797.2,-422.5 1797.2,-403.5 1653.2,-403.5"/>
<text text-anchor="middle" x="1725.2" y="-410.5" font-family="Helvetica,sans-Serif" font-size="10.00">discordcoreapi/ErlPacker.hpp</text>
</a>
</g>
</g>
<!-- Node27&#45;&gt;Node50 -->
<g id="edge58" class="edge">
<title>Node27&#45;&gt;Node50</title>
<path fill="none" stroke="midnightblue" d="M1291.4,-524.15C1360.49,-517.58 1470.73,-504.07 1563.2,-479 1612.29,-465.69 1666.64,-441.9 1698.25,-427.08"/>
<polygon fill="midnightblue" stroke="midnightblue" points="1700.15,-430.06 1707.68,-422.61 1697.15,-423.73 1700.15,-430.06"/>
</g>
<!-- Node28&#45;&gt;Node2 -->
<g id="edge31" class="edge">
<title>Node28&#45;&gt;Node2</title>
<path fill="none" stroke="midnightblue" d="M326.82,-235.1C326.75,-220.69 328.98,-192.48 346.2,-179 390.33,-144.44 1209.62,-132.26 1466.1,-129.29"/>
<polygon fill="midnightblue" stroke="midnightblue" points="1466.48,-132.79 1476.44,-129.17 1466.4,-125.79 1466.48,-132.79"/>
</g>
<!-- Node28&#45;&gt;Node29 -->
<g id="edge29" class="edge">
<title>Node28&#45;&gt;Node29</title>
<path fill="none" stroke="midnightblue" d="M344.39,-235.32C361.55,-226.66 388.14,-213.24 407.94,-203.25"/>
<polygon fill="midnightblue" stroke="midnightblue" points="409.7,-206.28 417.05,-198.65 406.54,-200.04 409.7,-206.28"/>
</g>
<!-- Node30 -->
<g id="node30" class="node">
<title>Node30</title>
<g id="a_node30"><a xlink:title=" ">
<polygon fill="none" stroke="#bfbfbf" points="29.2,-179.5 29.2,-198.5 139.2,-198.5 139.2,-179.5 29.2,-179.5"/>
<text text-anchor="middle" x="84.2" y="-186.5" font-family="Helvetica,sans-Serif" font-size="10.00">libavformat/avformat.h</text>
</a>
</g>
</g>
<!-- Node28&#45;&gt;Node30 -->
<g id="edge32" class="edge">
<title>Node28&#45;&gt;Node30</title>
<path fill="none" stroke="midnightblue" d="M288.69,-235.44C246.39,-226.04 178.38,-210.93 132.52,-200.74"/>
<polygon fill="midnightblue" stroke="midnightblue" points="133.04,-197.27 122.52,-198.52 131.52,-204.1 133.04,-197.27"/>
</g>
<!-- Node31 -->
<g id="node31" class="node">
<title>Node31</title>
<g id="a_node31"><a xlink:title=" ">
<polygon fill="none" stroke="#bfbfbf" points="157.7,-179.5 157.7,-198.5 298.7,-198.5 298.7,-179.5 157.7,-179.5"/>
<text text-anchor="middle" x="228.2" y="-186.5" font-family="Helvetica,sans-Serif" font-size="10.00">libswresample/swresample.h</text>
</a>
</g>
</g>
<!-- Node28&#45;&gt;Node31 -->
<g id="edge33" class="edge">
<title>Node28&#45;&gt;Node31</title>
<path fill="none" stroke="midnightblue" d="M311.29,-235.32C295.56,-226.74 271.25,-213.49 252.99,-203.52"/>
<polygon fill="midnightblue" stroke="midnightblue" points="254.52,-200.37 244.06,-198.65 251.16,-206.52 254.52,-200.37"/>
</g>
<!-- Node29&#45;&gt;Node2 -->
<g id="edge30" class="edge">
<title>Node29&#45;&gt;Node2</title>
<path fill="none" stroke="midnightblue" d="M513.33,-179.71C516.32,-179.46 519.29,-179.22 522.2,-179 874.77,-152.26 1297.02,-136.54 1466.43,-130.89"/>
<polygon fill="midnightblue" stroke="midnightblue" points="1466.61,-134.39 1476.49,-130.56 1466.38,-127.39 1466.61,-134.39"/>
</g>
<!-- Node32&#45;&gt;Node2 -->
<g id="edge35" class="edge">
<title>Node32&#45;&gt;Node2</title>
<path fill="none" stroke="midnightblue" d="M1462.81,-459.26C1465.39,-446.47 1471.07,-422.1 1480.2,-403 1488.59,-385.42 1497.5,-384.89 1505.2,-367 1535.33,-296.94 1531.3,-274.75 1540.2,-199 1542,-183.65 1542.51,-166.29 1542.56,-152.64"/>
<polygon fill="midnightblue" stroke="midnightblue" points="1546.06,-152.58 1542.53,-142.6 1539.06,-152.61 1546.06,-152.58"/>
</g>
<!-- Node33 -->
<g id="node33" class="node">
<title>Node33</title>
<g id="a_node33"><a xlink:href="../../d5/d5b/a00695.html" target="_top" xlink:title=" ">
<polygon fill="none" stroke="black" points="1489.2,-403.5 1489.2,-422.5 1635.2,-422.5 1635.2,-403.5 1489.2,-403.5"/>
<text text-anchor="middle" x="1562.2" y="-410.5" font-family="Helvetica,sans-Serif" font-size="10.00">discordcoreapi/CoRoutine.hpp</text>
</a>
</g>
</g>
<!-- Node32&#45;&gt;Node33 -->
<g id="edge36" class="edge">
<title>Node32&#45;&gt;Node33</title>
<path fill="none" stroke="midnightblue" d="M1477.42,-459.32C1493.55,-450.7 1518.5,-437.36 1537.16,-427.39"/>
<polygon fill="midnightblue" stroke="midnightblue" points="1538.84,-430.46 1546.01,-422.65 1535.54,-424.28 1538.84,-430.46"/>
</g>
<!-- Node33&#45;&gt;Node2 -->
<g id="edge37" class="edge">
<title>Node33&#45;&gt;Node2</title>
<path fill="none" stroke="midnightblue" d="M1573.43,-403.36C1594.14,-386.38 1636.2,-346.42 1636.2,-302 1636.2,-302 1636.2,-302 1636.2,-244 1636.2,-203.23 1600.53,-168.87 1573.14,-148.48"/>
<polygon fill="midnightblue" stroke="midnightblue" points="1575.12,-145.59 1564.95,-142.61 1571.04,-151.28 1575.12,-145.59"/>
</g>
<!-- Node33&#45;&gt;Node34 -->
<g id="edge38" class="edge">
<title>Node33&#45;&gt;Node34</title>
<path fill="none" stroke="midnightblue" d="M1539.85,-403.44C1516.44,-394.48 1479.46,-380.31 1453.01,-370.18"/>
<polygon fill="midnightblue" stroke="midnightblue" points="1454.02,-366.82 1443.43,-366.52 1451.52,-373.36 1454.02,-366.82"/>
</g>
<!-- Node49 -->
<g id="node49" class="node">
<title>Node49</title>
<g id="a_node49"><a xlink:title=" ">
<polygon fill="none" stroke="#bfbfbf" points="1552.2,-291.5 1552.2,-310.5 1608.2,-310.5 1608.2,-291.5 1552.2,-291.5"/>
<text text-anchor="middle" x="1580.2" y="-298.5" font-family="Helvetica,sans-Serif" font-size="10.00">coroutine</text>
</a>
</g>
</g>
<!-- Node33&#45;&gt;Node49 -->
<g id="edge57" class="edge">
<title>Node33&#45;&gt;Node49</title>
<path fill="none" stroke="midnightblue" d="M1563.61,-403.37C1566.51,-385.62 1573.21,-344.67 1577.15,-320.6"/>
<polygon fill="midnightblue" stroke="midnightblue" points="1580.63,-321.03 1578.79,-310.59 1573.72,-319.89 1580.63,-321.03"/>
</g>
<!-- Node34&#45;&gt;Node2 -->
<g id="edge39" class="edge">
<title>Node34&#45;&gt;Node2</title>
<path fill="none" stroke="midnightblue" d="M1428.11,-347.34C1446.06,-324.43 1494.73,-259.85 1522.2,-199 1528.91,-184.12 1533.92,-166.45 1537.24,-152.52"/>
<polygon fill="midnightblue" stroke="midnightblue" points="1540.67,-153.23 1539.46,-142.71 1533.84,-151.69 1540.67,-153.23"/>
</g>
<!-- Node35 -->
<g id="node35" class="node">
<title>Node35</title>
<g id="a_node35"><a xlink:href="../../db/d7c/a00722.html" target="_top" xlink:title=" ">
<polygon fill="none" stroke="black" points="1219.7,-291.5 1219.7,-310.5 1344.7,-310.5 1344.7,-291.5 1219.7,-291.5"/>
<text text-anchor="middle" x="1282.2" y="-298.5" font-family="Helvetica,sans-Serif" font-size="10.00">discordcoreapi/Https.hpp</text>
</a>
</g>
</g>
<!-- Node34&#45;&gt;Node35 -->
<g id="edge40" class="edge">
<title>Node34&#45;&gt;Node35</title>
<path fill="none" stroke="midnightblue" d="M1399.17,-347.44C1376.09,-338.48 1339.63,-324.31 1313.55,-314.18"/>
<polygon fill="midnightblue" stroke="midnightblue" points="1314.71,-310.88 1304.12,-310.52 1312.17,-317.4 1314.71,-310.88"/>
</g>
<!-- Node34&#45;&gt;Node49 -->
<g id="edge56" class="edge">
<title>Node34&#45;&gt;Node49</title>
<path fill="none" stroke="midnightblue" d="M1446.39,-347.44C1473.14,-338.36 1515.6,-323.94 1545.5,-313.78"/>
<polygon fill="midnightblue" stroke="midnightblue" points="1546.78,-317.05 1555.12,-310.52 1544.52,-310.42 1546.78,-317.05"/>
</g>
<!-- Node35&#45;&gt;Node36 -->
<g id="edge41" class="edge">
<title>Node35&#45;&gt;Node36</title>
<path fill="none" stroke="midnightblue" d="M1253.04,-291.44C1221.68,-282.24 1171.66,-267.56 1137,-257.39"/>
<polygon fill="midnightblue" stroke="midnightblue" points="1137.8,-253.97 1127.21,-254.52 1135.82,-260.69 1137.8,-253.97"/>
</g>
<!-- Node36&#45;&gt;Node2 -->
<g id="edge42" class="edge">
<title>Node36&#45;&gt;Node2</title>
<path fill="none" stroke="midnightblue" d="M1112.48,-235.31C1140.28,-218.45 1199.86,-182.64 1210.2,-179 1294.81,-149.22 1397.63,-137 1466.22,-131.98"/>
<polygon fill="midnightblue" stroke="midnightblue" points="1466.77,-135.45 1476.5,-131.26 1466.28,-128.47 1466.77,-135.45"/>
</g>
<!-- Node36&#45;&gt;Node29 -->
<g id="edge43" class="edge">
<title>Node36&#45;&gt;Node29</title>
<path fill="none" stroke="midnightblue" d="M1023.13,-238.71C915.13,-230.98 709.37,-215.76 523.57,-199.11"/>
<polygon fill="midnightblue" stroke="midnightblue" points="523.61,-195.59 513.34,-198.18 522.99,-202.57 523.61,-195.59"/>
</g>
<!-- Node37 -->
<g id="node37" class="node">
<title>Node37</title>
<g id="a_node37"><a xlink:title=" ">
<polygon fill="none" stroke="#bfbfbf" points="1219.7,-179.5 1219.7,-198.5 1292.7,-198.5 1292.7,-179.5 1219.7,-179.5"/>
<text text-anchor="middle" x="1256.2" y="-186.5" font-family="Helvetica,sans-Serif" font-size="10.00">openssl/err.h</text>
</a>
</g>
</g>
<!-- Node36&#45;&gt;Node37 -->
<g id="edge44" class="edge">
<title>Node36&#45;&gt;Node37</title>
<path fill="none" stroke="midnightblue" d="M1123.23,-235.44C1149.81,-226.36 1192,-211.94 1221.72,-201.78"/>
<polygon fill="midnightblue" stroke="midnightblue" points="1222.95,-205.06 1231.28,-198.52 1220.68,-198.44 1222.95,-205.06"/>
</g>
<!-- Node38 -->
<g id="node38" class="node">
<title>Node38</title>
<g id="a_node38"><a xlink:title=" ">
<polygon fill="none" stroke="#bfbfbf" points="1311.2,-179.5 1311.2,-198.5 1385.2,-198.5 1385.2,-179.5 1311.2,-179.5"/>
<text text-anchor="middle" x="1348.2" y="-186.5" font-family="Helvetica,sans-Serif" font-size="10.00">openssl/ssl.h</text>
</a>
</g>
</g>
<!-- Node36&#45;&gt;Node38 -->
<g id="edge45" class="edge">
<title>Node36&#45;&gt;Node38</title>
<path fill="none" stroke="midnightblue" d="M1137.81,-235.44C1182.06,-225.88 1253.66,-210.42 1300.84,-200.23"/>
<polygon fill="midnightblue" stroke="midnightblue" points="1301.77,-203.61 1310.81,-198.08 1300.3,-196.77 1301.77,-203.61"/>
</g>
<!-- Node39 -->
<g id="node39" class="node">
<title>Node39</title>
<g id="a_node39"><a xlink:title=" ">
<polygon fill="none" stroke="#bfbfbf" points="1403.7,-179.5 1403.7,-198.5 1446.7,-198.5 1446.7,-179.5 1403.7,-179.5"/>
<text text-anchor="middle" x="1425.2" y="-186.5" font-family="Helvetica,sans-Serif" font-size="10.00">fcntl.h</text>
</a>
</g>
</g>
<!-- Node36&#45;&gt;Node39 -->
<g id="edge46" class="edge">
<title>Node36&#45;&gt;Node39</title>
<path fill="none" stroke="midnightblue" d="M1172.29,-235.49C1230.11,-228.21 1312.57,-216.45 1393.72,-198.84"/>
<polygon fill="midnightblue" stroke="midnightblue" points="1394.59,-202.23 1403.61,-196.66 1393.09,-195.39 1394.59,-202.23"/>
</g>
<!-- Node40 -->
<g id="node40" class="node">
<title>Node40</title>
<g id="a_node40"><a xlink:title=" ">
<polygon fill="none" stroke="#bfbfbf" points="1464.7,-179.5 1464.7,-198.5 1513.7,-198.5 1513.7,-179.5 1464.7,-179.5"/>
<text text-anchor="middle" x="1489.2" y="-186.5" font-family="Helvetica,sans-Serif" font-size="10.00">netdb.h</text>
</a>
</g>
</g>
<!-- Node36&#45;&gt;Node40 -->
<g id="edge47" class="edge">
<title>Node36&#45;&gt;Node40</title>
<path fill="none" stroke="midnightblue" d="M1173.53,-237.45C1243.83,-230.67 1351.77,-218.54 1454.48,-198.9"/>
<polygon fill="midnightblue" stroke="midnightblue" points="1455.25,-202.31 1464.4,-196.97 1453.92,-195.44 1455.25,-202.31"/>
</g>
<!-- Node41 -->
<g id="node41" class="node">
<title>Node41</title>
<g id="a_node41"><a xlink:title=" ">
<polygon fill="none" stroke="#bfbfbf" points="531.7,-179.5 531.7,-198.5 596.7,-198.5 596.7,-179.5 531.7,-179.5"/>
<text text-anchor="middle" x="564.2" y="-186.5" font-family="Helvetica,sans-Serif" font-size="10.00">netinet/in.h</text>
</a>
</g>
</g>
<!-- Node36&#45;&gt;Node41 -->
<g id="edge48" class="edge">
<title>Node36&#45;&gt;Node41</title>
<path fill="none" stroke="midnightblue" d="M1023.09,-240.07C928.2,-234.46 759.78,-222.31 606.85,-199.09"/>
<polygon fill="midnightblue" stroke="midnightblue" points="607.22,-195.6 596.8,-197.54 606.15,-202.52 607.22,-195.6"/>
</g>
<!-- Node42 -->
<g id="node42" class="node">
<title>Node42</title>
<g id="a_node42"><a xlink:title=" ">
<polygon fill="none" stroke="#bfbfbf" points="614.7,-179.5 614.7,-198.5 685.7,-198.5 685.7,-179.5 614.7,-179.5"/>
<text text-anchor="middle" x="650.2" y="-186.5" font-family="Helvetica,sans-Serif" font-size="10.00">netinet/tcp.h</text>
</a>
</g>
</g>
<!-- Node36&#45;&gt;Node42 -->
<g id="edge49" class="edge">
<title>Node36&#45;&gt;Node42</title>
<path fill="none" stroke="midnightblue" d="M1023.09,-237.69C943.99,-230.58 815.61,-217.72 696.21,-199.21"/>
<polygon fill="midnightblue" stroke="midnightblue" points="696.59,-195.73 686.17,-197.63 695.5,-202.64 696.59,-195.73"/>
</g>
<!-- Node43 -->
<g id="node43" class="node">
<title>Node43</title>
<g id="a_node43"><a xlink:title=" ">
<polygon fill="none" stroke="#bfbfbf" points="703.7,-179.5 703.7,-198.5 752.7,-198.5 752.7,-179.5 703.7,-179.5"/>
<text text-anchor="middle" x="728.2" y="-186.5" font-family="Helvetica,sans-Serif" font-size="10.00">stdint.h</text>
</a>
</g>
</g>
<!-- Node36&#45;&gt;Node43 -->
<g id="edge50" class="edge">
<title>Node36&#45;&gt;Node43</title>
<path fill="none" stroke="midnightblue" d="M1023.02,-236.67C956.97,-229.6 858.13,-217.51 763.07,-198.94"/>
<polygon fill="midnightblue" stroke="midnightblue" points="763.48,-195.46 752.99,-196.95 762.12,-202.33 763.48,-195.46"/>
</g>
<!-- Node44 -->
<g id="node44" class="node">
<title>Node44</title>
<g id="a_node44"><a xlink:title=" ">
<polygon fill="none" stroke="#bfbfbf" points="771.2,-179.5 771.2,-198.5 835.2,-198.5 835.2,-179.5 771.2,-179.5"/>
<text text-anchor="middle" x="803.2" y="-186.5" font-family="Helvetica,sans-Serif" font-size="10.00">sys/epoll.h</text>
</a>
</g>
</g>
<!-- Node36&#45;&gt;Node44 -->
<g id="edge51" class="edge">
<title>Node36&#45;&gt;Node44</title>
<path fill="none" stroke="midnightblue" d="M1046.51,-235.48C997.32,-227.22 920.95,-214.04 845.55,-199.21"/>
<polygon fill="midnightblue" stroke="midnightblue" points="845.89,-195.71 835.4,-197.2 844.53,-202.57 845.89,-195.71"/>
</g>
<!-- Node45 -->
<g id="node45" class="node">
<title>Node45</title>
<g id="a_node45"><a xlink:title=" ">
<polygon fill="none" stroke="#bfbfbf" points="853.2,-179.5 853.2,-198.5 915.2,-198.5 915.2,-179.5 853.2,-179.5"/>
<text text-anchor="middle" x="884.2" y="-186.5" font-family="Helvetica,sans-Serif" font-size="10.00">arpa/inet.h</text>
</a>
</g>
</g>
<!-- Node36&#45;&gt;Node45 -->
<g id="edge52" class="edge">
<title>Node36&#45;&gt;Node45</title>
<path fill="none" stroke="midnightblue" d="M1064.29,-235.44C1026.59,-225.93 965.69,-210.57 925.31,-200.37"/>
<polygon fill="midnightblue" stroke="midnightblue" points="926.06,-196.95 915.51,-197.9 924.35,-203.74 926.06,-196.95"/>
</g>
<!-- Node46 -->
<g id="node46" class="node">
<title>Node46</title>
<g id="a_node46"><a xlink:title=" ">
<polygon fill="none" stroke="#bfbfbf" points="933.7,-179.5 933.7,-198.5 1006.7,-198.5 1006.7,-179.5 933.7,-179.5"/>
<text text-anchor="middle" x="970.2" y="-186.5" font-family="Helvetica,sans-Serif" font-size="10.00">sys/socket.h</text>
</a>
</g>
</g>
<!-- Node36&#45;&gt;Node46 -->
<g id="edge53" class="edge">
<title>Node36&#45;&gt;Node46</title>
<path fill="none" stroke="midnightblue" d="M1077.91,-235.44C1056.85,-226.56 1023.68,-212.56 999.71,-202.45"/>
<polygon fill="midnightblue" stroke="midnightblue" points="1000.96,-199.18 990.38,-198.52 998.24,-205.63 1000.96,-199.18"/>
</g>
<!-- Node47 -->
<g id="node47" class="node">
<title>Node47</title>
<g id="a_node47"><a xlink:title=" ">
<polygon fill="none" stroke="#bfbfbf" points="1025.2,-179.5 1025.2,-198.5 1093.2,-198.5 1093.2,-179.5 1025.2,-179.5"/>
<text text-anchor="middle" x="1059.2" y="-186.5" font-family="Helvetica,sans-Serif" font-size="10.00">sys/types.h</text>
</a>
</g>
</g>
<!-- Node36&#45;&gt;Node47 -->
<g id="edge54" class="edge">
<title>Node36&#45;&gt;Node47</title>
<path fill="none" stroke="midnightblue" d="M1091.76,-235.08C1086.25,-227.46 1078.16,-216.26 1071.43,-206.94"/>
<polygon fill="midnightblue" stroke="midnightblue" points="1074.21,-204.81 1065.52,-198.75 1068.53,-208.91 1074.21,-204.81"/>
</g>
<!-- Node48 -->
<g id="node48" class="node">
<title>Node48</title>
<g id="a_node48"><a xlink:title=" ">
<polygon fill="none" stroke="#bfbfbf" points="1111.7,-179.5 1111.7,-198.5 1162.7,-198.5 1162.7,-179.5 1111.7,-179.5"/>
<text text-anchor="middle" x="1137.2" y="-186.5" font-family="Helvetica,sans-Serif" font-size="10.00">unistd.h</text>
</a>
</g>
</g>
<!-- Node36&#45;&gt;Node48 -->
<g id="edge55" class="edge">
<title>Node36&#45;&gt;Node48</title>
<path fill="none" stroke="midnightblue" d="M1104.64,-235.08C1110.14,-227.46 1118.23,-216.26 1124.96,-206.94"/>
<polygon fill="midnightblue" stroke="midnightblue" points="1127.86,-208.91 1130.88,-198.75 1122.18,-204.81 1127.86,-208.91"/>
</g>
<!-- Node50&#45;&gt;Node2 -->
<g id="edge59" class="edge">
<title>Node50&#45;&gt;Node2</title>
<path fill="none" stroke="midnightblue" d="M1720.61,-403.44C1711.33,-385.29 1691.2,-341.38 1691.2,-302 1691.2,-302 1691.2,-302 1691.2,-244 1691.2,-195.01 1640.26,-163.82 1597.95,-146.37"/>
<polygon fill="midnightblue" stroke="midnightblue" points="1599.11,-143.06 1588.52,-142.64 1596.54,-149.57 1599.11,-143.06"/>
</g>
</g>
</svg>
