<?xml version="1.0" encoding="UTF-8" standalone="no"?>
<!DOCTYPE svg PUBLIC "-//W3C//DTD SVG 1.1//EN"
 "http://www.w3.org/Graphics/SVG/1.1/DTD/svg11.dtd">
<!-- Generated by graphviz version 2.43.0 (0)
 -->
<!-- Title: UserEntities.hpp Pages: 1 -->
<svg width="2441pt" height="610pt"
 viewBox="0.00 0.00 2441.20 610.00" xmlns="http://www.w3.org/2000/svg" xmlns:xlink="http://www.w3.org/1999/xlink">
<g id="graph0" class="graph" transform="scale(1 1) rotate(0) translate(4 606)">
<title>UserEntities.hpp</title>
<!-- Node1 -->
<g id="node1" class="node">
<title>Node1</title>
<g id="a_node1"><a xlink:title=" ">
<polygon fill="#bfbfbf" stroke="black" points="526.7,-582.5 526.7,-601.5 623.7,-601.5 623.7,-582.5 526.7,-582.5"/>
<text text-anchor="middle" x="575.2" y="-589.5" font-family="Helvetica,sans-Serif" font-size="10.00">UserEntities.hpp</text>
</a>
</g>
</g>
<!-- Node2 -->
<g id="node2" class="node">
<title>Node2</title>
<g id="a_node2"><a xlink:href="../../d4/deb/a00710.html" target="_top" xlink:title=" ">
<polygon fill="none" stroke="black" points="1586.7,-112.5 1586.7,-142.5 1731.7,-142.5 1731.7,-112.5 1586.7,-112.5"/>
<text text-anchor="start" x="1594.7" y="-130.5" font-family="Helvetica,sans-Serif" font-size="10.00">discordcoreapi/Foundation</text>
<text text-anchor="middle" x="1659.2" y="-119.5" font-family="Helvetica,sans-Serif" font-size="10.00">Entities.hpp</text>
</a>
</g>
</g>
<!-- Node1&#45;&gt;Node2 -->
<g id="edge1" class="edge">
<title>Node1&#45;&gt;Node2</title>
<path fill="none" stroke="midnightblue" d="M526.26,-591.04C387.45,-589.85 1.2,-576.94 1.2,-470 1.2,-470 1.2,-470 1.2,-244 1.2,-213.9 -3.6,-197.42 20.2,-179 82.21,-131.01 1251.85,-128.22 1576.34,-128.37"/>
<polygon fill="midnightblue" stroke="midnightblue" points="1576.61,-131.87 1586.61,-128.38 1576.61,-124.87 1576.61,-131.87"/>
</g>
<!-- Node27 -->
<g id="node27" class="node">
<title>Node27</title>
<g id="a_node27"><a xlink:href="../../d9/dd4/a00776.html" target="_top" xlink:title=" ">
<polygon fill="none" stroke="black" points="1163.2,-515.5 1163.2,-545.5 1307.2,-545.5 1307.2,-515.5 1163.2,-515.5"/>
<text text-anchor="start" x="1171.2" y="-533.5" font-family="Helvetica,sans-Serif" font-size="10.00">discordcoreapi/WebSocket</text>
<text text-anchor="middle" x="1235.2" y="-522.5" font-family="Helvetica,sans-Serif" font-size="10.00">Entities.hpp</text>
</a>
</g>
</g>
<!-- Node1&#45;&gt;Node27 -->
<g id="edge26" class="edge">
<title>Node1&#45;&gt;Node27</title>
<path fill="none" stroke="midnightblue" d="M623.73,-586.62C735.76,-576.53 1013.46,-551.49 1152.75,-538.93"/>
<polygon fill="midnightblue" stroke="midnightblue" points="1153.3,-542.4 1162.95,-538.01 1152.67,-535.43 1153.3,-542.4"/>
</g>
<!-- Node3 -->
<g id="node3" class="node">
<title>Node3</title>
<g id="a_node3"><a xlink:href="../../d5/dae/a00767.html" target="_top" xlink:title=" ">
<polygon fill="none" stroke="black" points="1584.2,-56.5 1584.2,-75.5 1734.2,-75.5 1734.2,-56.5 1584.2,-56.5"/>
<text text-anchor="middle" x="1659.2" y="-63.5" font-family="Helvetica,sans-Serif" font-size="10.00">discordcoreapi/Utilities.hpp</text>
</a>
</g>
</g>
<!-- Node2&#45;&gt;Node3 -->
<g id="edge2" class="edge">
<title>Node2&#45;&gt;Node3</title>
<path fill="none" stroke="midnightblue" d="M1659.2,-112.4C1659.2,-104.47 1659.2,-94.46 1659.2,-85.86"/>
<polygon fill="midnightblue" stroke="midnightblue" points="1662.7,-85.66 1659.2,-75.66 1655.7,-85.66 1662.7,-85.66"/>
</g>
<!-- Node4 -->
<g id="node4" class="node">
<title>Node4</title>
<g id="a_node4"><a xlink:title=" ">
<polygon fill="none" stroke="#bfbfbf" points="579.7,-0.5 579.7,-19.5 642.7,-19.5 642.7,-0.5 579.7,-0.5"/>
<text text-anchor="middle" x="611.2" y="-7.5" font-family="Helvetica,sans-Serif" font-size="10.00">pthread.h</text>
</a>
</g>
</g>
<!-- Node3&#45;&gt;Node4 -->
<g id="edge3" class="edge">
<title>Node3&#45;&gt;Node4</title>
<path fill="none" stroke="midnightblue" d="M1583.85,-63.31C1385.45,-58.59 850.91,-44.11 652.91,-19.8"/>
<polygon fill="midnightblue" stroke="midnightblue" points="653.25,-16.31 642.89,-18.52 652.37,-23.26 653.25,-16.31"/>
</g>
<!-- Node5 -->
<g id="node5" class="node">
<title>Node5</title>
<g id="a_node5"><a xlink:title=" ">
<polygon fill="none" stroke="#bfbfbf" points="661.2,-0.5 661.2,-19.5 729.2,-19.5 729.2,-0.5 661.2,-0.5"/>
<text text-anchor="middle" x="695.2" y="-7.5" font-family="Helvetica,sans-Serif" font-size="10.00">sys/time.h</text>
</a>
</g>
</g>
<!-- Node3&#45;&gt;Node5 -->
<g id="edge4" class="edge">
<title>Node3&#45;&gt;Node5</title>
<path fill="none" stroke="midnightblue" d="M1583.94,-65.32C1428.04,-65.13 1058.46,-60.16 739.75,-19.98"/>
<polygon fill="midnightblue" stroke="midnightblue" points="739.75,-16.45 729.39,-18.66 738.86,-23.4 739.75,-16.45"/>
</g>
<!-- Node6 -->
<g id="node6" class="node">
<title>Node6</title>
<g id="a_node6"><a xlink:title=" ">
<polygon fill="none" stroke="#bfbfbf" points="747.2,-0.5 747.2,-19.5 795.2,-19.5 795.2,-0.5 747.2,-0.5"/>
<text text-anchor="middle" x="771.2" y="-7.5" font-family="Helvetica,sans-Serif" font-size="10.00">time.h</text>
</a>
</g>
</g>
<!-- Node3&#45;&gt;Node6 -->
<g id="edge5" class="edge">
<title>Node3&#45;&gt;Node6</title>
<path fill="none" stroke="midnightblue" d="M1583.92,-63.1C1407.75,-58.33 971.63,-44.55 805.31,-19.76"/>
<polygon fill="midnightblue" stroke="midnightblue" points="805.64,-16.27 795.22,-18.19 804.56,-23.19 805.64,-16.27"/>
</g>
<!-- Node7 -->
<g id="node7" class="node">
<title>Node7</title>
<g id="a_node7"><a xlink:title=" ">
<polygon fill="none" stroke="#bfbfbf" points="813.2,-0.5 813.2,-19.5 857.2,-19.5 857.2,-0.5 813.2,-0.5"/>
<text text-anchor="middle" x="835.2" y="-7.5" font-family="Helvetica,sans-Serif" font-size="10.00">ctime</text>
</a>
</g>
</g>
<!-- Node3&#45;&gt;Node7 -->
<g id="edge6" class="edge">
<title>Node3&#45;&gt;Node7</title>
<path fill="none" stroke="midnightblue" d="M1584.03,-62.9C1417.58,-57.91 1021.14,-44.04 867.6,-19.79"/>
<polygon fill="midnightblue" stroke="midnightblue" points="867.85,-16.28 857.41,-18.1 866.71,-23.19 867.85,-16.28"/>
</g>
<!-- Node8 -->
<g id="node8" class="node">
<title>Node8</title>
<g id="a_node8"><a xlink:title=" ">
<polygon fill="none" stroke="#bfbfbf" points="875.7,-0.5 875.7,-19.5 982.7,-19.5 982.7,-0.5 875.7,-0.5"/>
<text text-anchor="middle" x="929.2" y="-7.5" font-family="Helvetica,sans-Serif" font-size="10.00">condition_variable</text>
</a>
</g>
</g>
<!-- Node3&#45;&gt;Node8 -->
<g id="edge7" class="edge">
<title>Node3&#45;&gt;Node8</title>
<path fill="none" stroke="midnightblue" d="M1584.02,-61.76C1462.22,-56.1 1213.98,-42.89 992.95,-19.99"/>
<polygon fill="midnightblue" stroke="midnightblue" points="993.09,-16.49 982.78,-18.93 992.37,-23.45 993.09,-16.49"/>
</g>
<!-- Node9 -->
<g id="node9" class="node">
<title>Node9</title>
<g id="a_node9"><a xlink:title=" ">
<polygon fill="none" stroke="#bfbfbf" points="1001.2,-0.5 1001.2,-19.5 1111.2,-19.5 1111.2,-0.5 1001.2,-0.5"/>
<text text-anchor="middle" x="1056.2" y="-7.5" font-family="Helvetica,sans-Serif" font-size="10.00">nlohmann/json.hpp</text>
</a>
</g>
</g>
<!-- Node3&#45;&gt;Node9 -->
<g id="edge8" class="edge">
<title>Node3&#45;&gt;Node9</title>
<path fill="none" stroke="midnightblue" d="M1584.08,-60.07C1481.79,-53.06 1292.75,-39.04 1121.3,-20.06"/>
<polygon fill="midnightblue" stroke="midnightblue" points="1121.66,-16.58 1111.33,-18.95 1120.88,-23.54 1121.66,-16.58"/>
</g>
<!-- Node10 -->
<g id="node10" class="node">
<title>Node10</title>
<g id="a_node10"><a xlink:title=" ">
<polygon fill="none" stroke="#bfbfbf" points="1129.7,-0.5 1129.7,-19.5 1222.7,-19.5 1222.7,-0.5 1129.7,-0.5"/>
<text text-anchor="middle" x="1176.2" y="-7.5" font-family="Helvetica,sans-Serif" font-size="10.00">source_location</text>
</a>
</g>
</g>
<!-- Node3&#45;&gt;Node10 -->
<g id="edge9" class="edge">
<title>Node3&#45;&gt;Node10</title>
<path fill="none" stroke="midnightblue" d="M1584.05,-58.42C1500.63,-50.81 1361.77,-37.27 1233.02,-20.18"/>
<polygon fill="midnightblue" stroke="midnightblue" points="1233.36,-16.7 1222.98,-18.84 1232.43,-23.64 1233.36,-16.7"/>
</g>
<!-- Node11 -->
<g id="node11" class="node">
<title>Node11</title>
<g id="a_node11"><a xlink:title=" ">
<polygon fill="none" stroke="#bfbfbf" points="1240.7,-0.5 1240.7,-19.5 1333.7,-19.5 1333.7,-0.5 1240.7,-0.5"/>
<text text-anchor="middle" x="1287.2" y="-7.5" font-family="Helvetica,sans-Serif" font-size="10.00">unordered_map</text>
</a>
</g>
</g>
<!-- Node3&#45;&gt;Node11 -->
<g id="edge10" class="edge">
<title>Node3&#45;&gt;Node11</title>
<path fill="none" stroke="midnightblue" d="M1597.09,-56.49C1535.52,-47.98 1438.21,-34.32 1343.94,-20.09"/>
<polygon fill="midnightblue" stroke="midnightblue" points="1344.35,-16.61 1333.94,-18.58 1343.31,-23.53 1344.35,-16.61"/>
</g>
<!-- Node12 -->
<g id="node12" class="node">
<title>Node12</title>
<g id="a_node12"><a xlink:title=" ">
<polygon fill="none" stroke="#bfbfbf" points="1352.2,-0.5 1352.2,-19.5 1438.2,-19.5 1438.2,-0.5 1352.2,-0.5"/>
<text text-anchor="middle" x="1395.2" y="-7.5" font-family="Helvetica,sans-Serif" font-size="10.00">shared_mutex</text>
</a>
</g>
</g>
<!-- Node3&#45;&gt;Node12 -->
<g id="edge11" class="edge">
<title>Node3&#45;&gt;Node12</title>
<path fill="none" stroke="midnightblue" d="M1617.37,-56.44C1571.12,-46.98 1496.59,-31.74 1446.76,-21.55"/>
<polygon fill="midnightblue" stroke="midnightblue" points="1447.34,-18.09 1436.84,-19.52 1445.93,-24.95 1447.34,-18.09"/>
</g>
<!-- Node13 -->
<g id="node13" class="node">
<title>Node13</title>
<g id="a_node13"><a xlink:title=" ">
<polygon fill="none" stroke="#bfbfbf" points="1456.7,-0.5 1456.7,-19.5 1521.7,-19.5 1521.7,-0.5 1456.7,-0.5"/>
<text text-anchor="middle" x="1489.2" y="-7.5" font-family="Helvetica,sans-Serif" font-size="10.00">functional</text>
</a>
</g>
</g>
<!-- Node3&#45;&gt;Node13 -->
<g id="edge12" class="edge">
<title>Node3&#45;&gt;Node13</title>
<path fill="none" stroke="midnightblue" d="M1632.26,-56.44C1603.54,-47.32 1557.87,-32.81 1525.88,-22.65"/>
<polygon fill="midnightblue" stroke="midnightblue" points="1526.6,-19.21 1516.01,-19.52 1524.48,-25.88 1526.6,-19.21"/>
</g>
<!-- Node14 -->
<g id="node14" class="node">
<title>Node14</title>
<g id="a_node14"><a xlink:title=" ">
<polygon fill="none" stroke="#bfbfbf" points="1539.7,-0.5 1539.7,-19.5 1610.7,-19.5 1610.7,-0.5 1539.7,-0.5"/>
<text text-anchor="middle" x="1575.2" y="-7.5" font-family="Helvetica,sans-Serif" font-size="10.00">semaphore</text>
</a>
</g>
</g>
<!-- Node3&#45;&gt;Node14 -->
<g id="edge13" class="edge">
<title>Node3&#45;&gt;Node14</title>
<path fill="none" stroke="midnightblue" d="M1645.7,-56.32C1632.6,-47.9 1612.49,-34.97 1597.09,-25.07"/>
<polygon fill="midnightblue" stroke="midnightblue" points="1598.97,-22.12 1588.66,-19.65 1595.18,-28.01 1598.97,-22.12"/>
</g>
<!-- Node15 -->
<g id="node15" class="node">
<title>Node15</title>
<g id="a_node15"><a xlink:title=" ">
<polygon fill="none" stroke="#bfbfbf" points="1629.2,-0.5 1629.2,-19.5 1689.2,-19.5 1689.2,-0.5 1629.2,-0.5"/>
<text text-anchor="middle" x="1659.2" y="-7.5" font-family="Helvetica,sans-Serif" font-size="10.00">concepts</text>
</a>
</g>
</g>
<!-- Node3&#45;&gt;Node15 -->
<g id="edge14" class="edge">
<title>Node3&#45;&gt;Node15</title>
<path fill="none" stroke="midnightblue" d="M1659.2,-56.08C1659.2,-49.01 1659.2,-38.86 1659.2,-29.99"/>
<polygon fill="midnightblue" stroke="midnightblue" points="1662.7,-29.75 1659.2,-19.75 1655.7,-29.75 1662.7,-29.75"/>
</g>
<!-- Node16 -->
<g id="node16" class="node">
<title>Node16</title>
<g id="a_node16"><a xlink:title=" ">
<polygon fill="none" stroke="#bfbfbf" points="1707.2,-0.5 1707.2,-19.5 1767.2,-19.5 1767.2,-0.5 1707.2,-0.5"/>
<text text-anchor="middle" x="1737.2" y="-7.5" font-family="Helvetica,sans-Serif" font-size="10.00">iostream</text>
</a>
</g>
</g>
<!-- Node3&#45;&gt;Node16 -->
<g id="edge15" class="edge">
<title>Node3&#45;&gt;Node16</title>
<path fill="none" stroke="midnightblue" d="M1671.73,-56.32C1683.79,-47.98 1702.23,-35.21 1716.47,-25.35"/>
<polygon fill="midnightblue" stroke="midnightblue" points="1718.47,-28.22 1724.7,-19.65 1714.49,-22.47 1718.47,-28.22"/>
</g>
<!-- Node17 -->
<g id="node17" class="node">
<title>Node17</title>
<g id="a_node17"><a xlink:title=" ">
<polygon fill="none" stroke="#bfbfbf" points="1785.7,-0.5 1785.7,-19.5 1840.7,-19.5 1840.7,-0.5 1785.7,-0.5"/>
<text text-anchor="middle" x="1813.2" y="-7.5" font-family="Helvetica,sans-Serif" font-size="10.00">fstream</text>
</a>
</g>
</g>
<!-- Node3&#45;&gt;Node17 -->
<g id="edge16" class="edge">
<title>Node3&#45;&gt;Node17</title>
<path fill="none" stroke="midnightblue" d="M1683.6,-56.44C1709.4,-47.4 1750.28,-33.06 1779.22,-22.92"/>
<polygon fill="midnightblue" stroke="midnightblue" points="1780.63,-26.13 1788.91,-19.52 1778.32,-19.52 1780.63,-26.13"/>
</g>
<!-- Node18 -->
<g id="node18" class="node">
<title>Node18</title>
<g id="a_node18"><a xlink:title=" ">
<polygon fill="none" stroke="#bfbfbf" points="1859.2,-0.5 1859.2,-19.5 1903.2,-19.5 1903.2,-0.5 1859.2,-0.5"/>
<text text-anchor="middle" x="1881.2" y="-7.5" font-family="Helvetica,sans-Serif" font-size="10.00">bitset</text>
</a>
</g>
</g>
<!-- Node3&#45;&gt;Node18 -->
<g id="edge17" class="edge">
<title>Node3&#45;&gt;Node18</title>
<path fill="none" stroke="midnightblue" d="M1697.17,-56.5C1735.6,-47.77 1796.69,-33.6 1849.2,-20 1849.3,-19.97 1849.4,-19.95 1849.5,-19.92"/>
<polygon fill="midnightblue" stroke="midnightblue" points="1850.45,-23.29 1859.2,-17.32 1848.63,-16.53 1850.45,-23.29"/>
</g>
<!-- Node19 -->
<g id="node19" class="node">
<title>Node19</title>
<g id="a_node19"><a xlink:title=" ">
<polygon fill="none" stroke="#bfbfbf" points="1921.2,-0.5 1921.2,-19.5 1979.2,-19.5 1979.2,-0.5 1921.2,-0.5"/>
<text text-anchor="middle" x="1950.2" y="-7.5" font-family="Helvetica,sans-Serif" font-size="10.00">memory</text>
</a>
</g>
</g>
<!-- Node3&#45;&gt;Node19 -->
<g id="edge18" class="edge">
<title>Node3&#45;&gt;Node19</title>
<path fill="none" stroke="midnightblue" d="M1712.19,-56.47C1761.29,-48.37 1836.58,-35.43 1911.15,-20.12"/>
<polygon fill="midnightblue" stroke="midnightblue" points="1912.11,-23.5 1921.19,-18.05 1910.69,-16.65 1912.11,-23.5"/>
</g>
<!-- Node20 -->
<g id="node20" class="node">
<title>Node20</title>
<g id="a_node20"><a xlink:title=" ">
<polygon fill="none" stroke="#bfbfbf" points="1997.2,-0.5 1997.2,-19.5 2051.2,-19.5 2051.2,-0.5 1997.2,-0.5"/>
<text text-anchor="middle" x="2024.2" y="-7.5" font-family="Helvetica,sans-Serif" font-size="10.00">random</text>
</a>
</g>
</g>
<!-- Node3&#45;&gt;Node20 -->
<g id="edge19" class="edge">
<title>Node3&#45;&gt;Node20</title>
<path fill="none" stroke="midnightblue" d="M1734.39,-57.08C1798.97,-49.74 1894.71,-37.56 1987.06,-20.04"/>
<polygon fill="midnightblue" stroke="midnightblue" points="1987.98,-23.42 1997.14,-18.1 1986.66,-16.55 1987.98,-23.42"/>
</g>
<!-- Node21 -->
<g id="node21" class="node">
<title>Node21</title>
<g id="a_node21"><a xlink:title=" ">
<polygon fill="none" stroke="#bfbfbf" points="2069.2,-0.5 2069.2,-19.5 2113.2,-19.5 2113.2,-0.5 2069.2,-0.5"/>
<text text-anchor="middle" x="2091.2" y="-7.5" font-family="Helvetica,sans-Serif" font-size="10.00">string</text>
</a>
</g>
</g>
<!-- Node3&#45;&gt;Node21 -->
<g id="edge20" class="edge">
<title>Node3&#45;&gt;Node21</title>
<path fill="none" stroke="midnightblue" d="M1734.43,-60.41C1813.25,-54.73 1940.68,-43.09 2059.01,-19.93"/>
<polygon fill="midnightblue" stroke="midnightblue" points="2059.84,-23.33 2068.96,-17.95 2058.47,-16.47 2059.84,-23.33"/>
</g>
<!-- Node22 -->
<g id="node22" class="node">
<title>Node22</title>
<g id="a_node22"><a xlink:title=" ">
<polygon fill="none" stroke="#bfbfbf" points="2131.7,-0.5 2131.7,-19.5 2178.7,-19.5 2178.7,-0.5 2131.7,-0.5"/>
<text text-anchor="middle" x="2155.2" y="-7.5" font-family="Helvetica,sans-Serif" font-size="10.00">vector</text>
</a>
</g>
</g>
<!-- Node3&#45;&gt;Node22 -->
<g id="edge21" class="edge">
<title>Node3&#45;&gt;Node22</title>
<path fill="none" stroke="midnightblue" d="M1734.32,-61.61C1824.2,-56.69 1979.29,-45.41 2121.32,-19.84"/>
<polygon fill="midnightblue" stroke="midnightblue" points="2122.31,-23.22 2131.52,-17.97 2121.05,-16.33 2122.31,-23.22"/>
</g>
<!-- Node23 -->
<g id="node23" class="node">
<title>Node23</title>
<g id="a_node23"><a xlink:title=" ">
<polygon fill="none" stroke="#bfbfbf" points="2197.2,-0.5 2197.2,-19.5 2245.2,-19.5 2245.2,-0.5 2197.2,-0.5"/>
<text text-anchor="middle" x="2221.2" y="-7.5" font-family="Helvetica,sans-Serif" font-size="10.00">thread</text>
</a>
</g>
</g>
<!-- Node3&#45;&gt;Node23 -->
<g id="edge22" class="edge">
<title>Node3&#45;&gt;Node23</title>
<path fill="none" stroke="midnightblue" d="M1734.49,-62.69C1837.39,-58.61 2027.44,-47.74 2187.2,-20 2187.3,-19.98 2187.4,-19.96 2187.51,-19.95"/>
<polygon fill="midnightblue" stroke="midnightblue" points="2188.1,-23.4 2197.17,-17.91 2186.66,-16.55 2188.1,-23.4"/>
</g>
<!-- Node24 -->
<g id="node24" class="node">
<title>Node24</title>
<g id="a_node24"><a xlink:title=" ">
<polygon fill="none" stroke="#bfbfbf" points="2263.2,-0.5 2263.2,-19.5 2311.2,-19.5 2311.2,-0.5 2263.2,-0.5"/>
<text text-anchor="middle" x="2287.2" y="-7.5" font-family="Helvetica,sans-Serif" font-size="10.00">mutex</text>
</a>
</g>
</g>
<!-- Node3&#45;&gt;Node24 -->
<g id="edge23" class="edge">
<title>Node3&#45;&gt;Node24</title>
<path fill="none" stroke="midnightblue" d="M1734.44,-63.9C1845.95,-61.25 2061.64,-52.24 2253.2,-19.84"/>
<polygon fill="midnightblue" stroke="midnightblue" points="2253.91,-23.27 2263.17,-18.12 2252.72,-16.37 2253.91,-23.27"/>
</g>
<!-- Node25 -->
<g id="node25" class="node">
<title>Node25</title>
<g id="a_node25"><a xlink:title=" ">
<polygon fill="none" stroke="#bfbfbf" points="2329.7,-0.5 2329.7,-19.5 2376.7,-19.5 2376.7,-0.5 2329.7,-0.5"/>
<text text-anchor="middle" x="2353.2" y="-7.5" font-family="Helvetica,sans-Serif" font-size="10.00">queue</text>
</a>
</g>
</g>
<!-- Node3&#45;&gt;Node25 -->
<g id="edge24" class="edge">
<title>Node3&#45;&gt;Node25</title>
<path fill="none" stroke="midnightblue" d="M1734.61,-64.71C1856.07,-63.18 2102.49,-55.67 2319.55,-19.74"/>
<polygon fill="midnightblue" stroke="midnightblue" points="2320.25,-23.17 2329.53,-18.06 2319.09,-16.26 2320.25,-23.17"/>
</g>
<!-- Node26 -->
<g id="node26" class="node">
<title>Node26</title>
<g id="a_node26"><a xlink:title=" ">
<polygon fill="none" stroke="#bfbfbf" points="2395.2,-0.5 2395.2,-19.5 2433.2,-19.5 2433.2,-0.5 2395.2,-0.5"/>
<text text-anchor="middle" x="2414.2" y="-7.5" font-family="Helvetica,sans-Serif" font-size="10.00">map</text>
</a>
</g>
</g>
<!-- Node3&#45;&gt;Node26 -->
<g id="edge25" class="edge">
<title>Node3&#45;&gt;Node26</title>
<path fill="none" stroke="midnightblue" d="M1734.39,-62.72C1890.27,-57.61 2245.06,-43.94 2384.99,-19.68"/>
<polygon fill="midnightblue" stroke="midnightblue" points="2385.87,-23.08 2395.08,-17.84 2384.62,-16.19 2385.87,-23.08"/>
</g>
<!-- Node27&#45;&gt;Node2 -->
<g id="edge27" class="edge">
<title>Node27&#45;&gt;Node2</title>
<path fill="none" stroke="midnightblue" d="M1307.2,-524.06C1475.25,-510.4 1879.2,-471.58 1879.2,-414 1879.2,-414 1879.2,-414 1879.2,-244 1879.2,-179.51 1804.17,-150.95 1741.74,-138.35"/>
<polygon fill="midnightblue" stroke="midnightblue" points="1742.33,-134.9 1731.85,-136.46 1741.01,-141.78 1742.33,-134.9"/>
</g>
<!-- Node28 -->
<g id="node28" class="node">
<title>Node28</title>
<g id="a_node28"><a xlink:href="../../d4/d9b/a00680.html" target="_top" xlink:title=" ">
<polygon fill="none" stroke="black" points="275.7,-235.5 275.7,-254.5 454.7,-254.5 454.7,-235.5 275.7,-235.5"/>
<text text-anchor="middle" x="365.2" y="-242.5" font-family="Helvetica,sans-Serif" font-size="10.00">discordcoreapi/AudioDecoder.hpp</text>
</a>
</g>
</g>
<!-- Node27&#45;&gt;Node28 -->
<g id="edge28" class="edge">
<title>Node27&#45;&gt;Node28</title>
<path fill="none" stroke="midnightblue" d="M1163.04,-529.33C1013.41,-527.01 683.2,-510.93 683.2,-414 683.2,-414 683.2,-414 683.2,-356 683.2,-304.22 530.68,-271.4 436.9,-256.12"/>
<polygon fill="midnightblue" stroke="midnightblue" points="437.32,-252.64 426.89,-254.51 436.21,-259.55 437.32,-252.64"/>
</g>
<!-- Node29 -->
<g id="node29" class="node">
<title>Node29</title>
<g id="a_node29"><a xlink:href="../../d4/d6a/a00704.html" target="_top" xlink:title=" ">
<polygon fill="none" stroke="black" points="393.2,-179.5 393.2,-198.5 569.2,-198.5 569.2,-179.5 393.2,-179.5"/>
<text text-anchor="middle" x="481.2" y="-186.5" font-family="Helvetica,sans-Serif" font-size="10.00">discordcoreapi/EventEntities.hpp</text>
</a>
</g>
</g>
<!-- Node27&#45;&gt;Node29 -->
<g id="edge59" class="edge">
<title>Node27&#45;&gt;Node29</title>
<path fill="none" stroke="midnightblue" d="M1163.19,-519.12C1066.09,-503.05 905.2,-468.25 905.2,-414 905.2,-414 905.2,-414 905.2,-300 905.2,-263.38 665.12,-219.58 546.27,-200.15"/>
<polygon fill="midnightblue" stroke="midnightblue" points="546.63,-196.66 536.2,-198.51 545.51,-203.57 546.63,-196.66"/>
</g>
<!-- Node32 -->
<g id="node32" class="node">
<title>Node32</title>
<g id="a_node32"><a xlink:href="../../d0/db6/a00692.html" target="_top" xlink:title=" ">
<polygon fill="none" stroke="black" points="1394.7,-459.5 1394.7,-478.5 1603.7,-478.5 1603.7,-459.5 1394.7,-459.5"/>
<text text-anchor="middle" x="1499.2" y="-466.5" font-family="Helvetica,sans-Serif" font-size="10.00">discordcoreapi/CommandController.hpp</text>
</a>
</g>
</g>
<!-- Node27&#45;&gt;Node32 -->
<g id="edge34" class="edge">
<title>Node27&#45;&gt;Node32</title>
<path fill="none" stroke="midnightblue" d="M1297.43,-515.47C1344.57,-504.85 1408.36,-490.47 1451.5,-480.75"/>
<polygon fill="midnightblue" stroke="midnightblue" points="1452.47,-484.12 1461.46,-478.51 1450.93,-477.29 1452.47,-484.12"/>
</g>
<!-- Node34 -->
<g id="node34" class="node">
<title>Node34</title>
<g id="a_node34"><a xlink:href="../../d3/d4f/a00761.html" target="_top" xlink:title=" ">
<polygon fill="none" stroke="black" points="1329.7,-347.5 1329.7,-366.5 1496.7,-366.5 1496.7,-347.5 1329.7,-347.5"/>
<text text-anchor="middle" x="1413.2" y="-354.5" font-family="Helvetica,sans-Serif" font-size="10.00">discordcoreapi/ThreadPool.hpp</text>
</a>
</g>
</g>
<!-- Node27&#45;&gt;Node34 -->
<g id="edge61" class="edge">
<title>Node27&#45;&gt;Node34</title>
<path fill="none" stroke="midnightblue" d="M1249.77,-515.47C1282.67,-483.77 1362.53,-406.82 1396.96,-373.65"/>
<polygon fill="midnightblue" stroke="midnightblue" points="1399.54,-376.02 1404.32,-366.56 1394.69,-370.98 1399.54,-376.02"/>
</g>
<!-- Node36 -->
<g id="node36" class="node">
<title>Node36</title>
<g id="a_node36"><a xlink:href="../../d5/de8/a00749.html" target="_top" xlink:title=" ">
<polygon fill="none" stroke="black" points="1092.7,-235.5 1092.7,-254.5 1255.7,-254.5 1255.7,-235.5 1092.7,-235.5"/>
<text text-anchor="middle" x="1174.2" y="-242.5" font-family="Helvetica,sans-Serif" font-size="10.00">discordcoreapi/SSLClients.hpp</text>
</a>
</g>
</g>
<!-- Node27&#45;&gt;Node36 -->
<g id="edge60" class="edge">
<title>Node27&#45;&gt;Node36</title>
<path fill="none" stroke="midnightblue" d="M1224.81,-515.37C1210.43,-494.38 1186.2,-453.21 1186.2,-414 1186.2,-414 1186.2,-414 1186.2,-356 1186.2,-323.76 1181.04,-286.51 1177.49,-264.68"/>
<polygon fill="midnightblue" stroke="midnightblue" points="1180.89,-263.8 1175.77,-254.52 1173.99,-264.97 1180.89,-263.8"/>
</g>
<!-- Node50 -->
<g id="node50" class="node">
<title>Node50</title>
<g id="a_node50"><a xlink:href="../../dd/d57/a00701.html" target="_top" xlink:title=" ">
<polygon fill="none" stroke="black" points="1695.7,-403.5 1695.7,-422.5 1850.7,-422.5 1850.7,-403.5 1695.7,-403.5"/>
<text text-anchor="middle" x="1773.2" y="-410.5" font-family="Helvetica,sans-Serif" font-size="10.00">discordcoreapi/ErlPacker.hpp</text>
</a>
</g>
</g>
<!-- Node27&#45;&gt;Node50 -->
<g id="edge57" class="edge">
<title>Node27&#45;&gt;Node50</title>
<path fill="none" stroke="midnightblue" d="M1307.47,-525.21C1384.13,-519.42 1508.3,-506.47 1612.2,-479 1661.11,-466.07 1715.09,-442.16 1746.47,-427.22"/>
<polygon fill="midnightblue" stroke="midnightblue" points="1748.34,-430.2 1755.83,-422.71 1745.3,-423.9 1748.34,-430.2"/>
</g>
<!-- Node28&#45;&gt;Node2 -->
<g id="edge31" class="edge">
<title>Node28&#45;&gt;Node2</title>
<path fill="none" stroke="midnightblue" d="M364.82,-235.1C364.75,-220.67 366.97,-192.46 384.2,-179 431.17,-142.32 1300.41,-131.62 1576.07,-129.14"/>
<polygon fill="midnightblue" stroke="midnightblue" points="1576.44,-132.64 1586.41,-129.05 1576.38,-125.64 1576.44,-132.64"/>
</g>
<!-- Node28&#45;&gt;Node29 -->
<g id="edge29" class="edge">
<title>Node28&#45;&gt;Node29</title>
<path fill="none" stroke="midnightblue" d="M383.58,-235.44C402.42,-226.68 431.93,-212.94 453.58,-202.86"/>
<polygon fill="midnightblue" stroke="midnightblue" points="455.32,-205.91 462.91,-198.52 452.36,-199.56 455.32,-205.91"/>
</g>
<!-- Node30 -->
<g id="node30" class="node">
<title>Node30</title>
<g id="a_node30"><a xlink:title=" ">
<polygon fill="none" stroke="#bfbfbf" points="29.7,-179.5 29.7,-198.5 160.7,-198.5 160.7,-179.5 29.7,-179.5"/>
<text text-anchor="middle" x="95.2" y="-186.5" font-family="Helvetica,sans-Serif" font-size="10.00">libavformat/avformat.h</text>
</a>
</g>
</g>
<!-- Node28&#45;&gt;Node30 -->
<g id="edge32" class="edge">
<title>Node28&#45;&gt;Node30</title>
<path fill="none" stroke="midnightblue" d="M322.42,-235.44C275.02,-225.96 198.57,-210.67 147.62,-200.48"/>
<polygon fill="midnightblue" stroke="midnightblue" points="148.28,-197.05 137.78,-198.52 146.9,-203.91 148.28,-197.05"/>
</g>
<!-- Node31 -->
<g id="node31" class="node">
<title>Node31</title>
<g id="a_node31"><a xlink:title=" ">
<polygon fill="none" stroke="#bfbfbf" points="178.7,-179.5 178.7,-198.5 337.7,-198.5 337.7,-179.5 178.7,-179.5"/>
<text text-anchor="middle" x="258.2" y="-186.5" font-family="Helvetica,sans-Serif" font-size="10.00">libswresample/swresample.h</text>
</a>
</g>
</g>
<!-- Node28&#45;&gt;Node31 -->
<g id="edge33" class="edge">
<title>Node28&#45;&gt;Node31</title>
<path fill="none" stroke="midnightblue" d="M348.01,-235.32C330.85,-226.66 304.25,-213.24 284.45,-203.25"/>
<polygon fill="midnightblue" stroke="midnightblue" points="285.85,-200.04 275.35,-198.65 282.7,-206.28 285.85,-200.04"/>
</g>
<!-- Node29&#45;&gt;Node2 -->
<g id="edge30" class="edge">
<title>Node29&#45;&gt;Node2</title>
<path fill="none" stroke="midnightblue" d="M569.21,-179.66C572.25,-179.43 575.25,-179.21 578.2,-179 950.05,-153.08 1394.8,-137 1576.12,-131.08"/>
<polygon fill="midnightblue" stroke="midnightblue" points="1576.5,-134.57 1586.38,-130.75 1576.27,-127.58 1576.5,-134.57"/>
</g>
<!-- Node32&#45;&gt;Node2 -->
<g id="edge35" class="edge">
<title>Node32&#45;&gt;Node2</title>
<path fill="none" stroke="midnightblue" d="M1538.44,-459.5C1605.54,-442.4 1735.2,-397.05 1735.2,-302 1735.2,-302 1735.2,-302 1735.2,-244 1735.2,-205.99 1706.13,-170.82 1683.95,-149.51"/>
<polygon fill="midnightblue" stroke="midnightblue" points="1686.16,-146.79 1676.45,-142.57 1681.41,-151.93 1686.16,-146.79"/>
</g>
<!-- Node33 -->
<g id="node33" class="node">
<title>Node33</title>
<g id="a_node33"><a xlink:href="../../d5/d5b/a00695.html" target="_top" xlink:title=" ">
<polygon fill="none" stroke="black" points="1418.2,-403.5 1418.2,-422.5 1580.2,-422.5 1580.2,-403.5 1418.2,-403.5"/>
<text text-anchor="middle" x="1499.2" y="-410.5" font-family="Helvetica,sans-Serif" font-size="10.00">discordcoreapi/CoRoutine.hpp</text>
</a>
</g>
</g>
<!-- Node32&#45;&gt;Node33 -->
<g id="edge36" class="edge">
<title>Node32&#45;&gt;Node33</title>
<path fill="none" stroke="midnightblue" d="M1499.2,-459.08C1499.2,-452.01 1499.2,-441.86 1499.2,-432.99"/>
<polygon fill="midnightblue" stroke="midnightblue" points="1502.7,-432.75 1499.2,-422.75 1495.7,-432.75 1502.7,-432.75"/>
</g>
<!-- Node33&#45;&gt;Node2 -->
<g id="edge37" class="edge">
<title>Node33&#45;&gt;Node2</title>
<path fill="none" stroke="midnightblue" d="M1563.21,-403.46C1621.06,-391.73 1697.2,-364.43 1697.2,-302 1697.2,-302 1697.2,-302 1697.2,-244 1697.2,-210.72 1682.79,-174.62 1671.71,-151.8"/>
<polygon fill="midnightblue" stroke="midnightblue" points="1674.7,-149.95 1667.07,-142.59 1668.45,-153.1 1674.7,-149.95"/>
</g>
<!-- Node33&#45;&gt;Node34 -->
<g id="edge38" class="edge">
<title>Node33&#45;&gt;Node34</title>
<path fill="none" stroke="midnightblue" d="M1485.38,-403.32C1471.97,-394.9 1451.38,-381.97 1435.62,-372.07"/>
<polygon fill="midnightblue" stroke="midnightblue" points="1437.31,-369.01 1426.98,-366.65 1433.59,-374.94 1437.31,-369.01"/>
</g>
<!-- Node34&#45;&gt;Node2 -->
<g id="edge39" class="edge">
<title>Node34&#45;&gt;Node2</title>
<path fill="none" stroke="midnightblue" d="M1434.52,-347.5C1479.81,-328.3 1585.81,-277.09 1639.2,-199 1648.58,-185.27 1653.6,-167.19 1656.26,-152.77"/>
<polygon fill="midnightblue" stroke="midnightblue" points="1659.77,-153.02 1657.87,-142.6 1652.85,-151.93 1659.77,-153.02"/>
</g>
<!-- Node35 -->
<g id="node35" class="node">
<title>Node35</title>
<g id="a_node35"><a xlink:href="../../db/d7c/a00722.html" target="_top" xlink:title=" ">
<polygon fill="none" stroke="black" points="1344.2,-291.5 1344.2,-310.5 1482.2,-310.5 1482.2,-291.5 1344.2,-291.5"/>
<text text-anchor="middle" x="1413.2" y="-298.5" font-family="Helvetica,sans-Serif" font-size="10.00">discordcoreapi/Https.hpp</text>
</a>
</g>
</g>
<!-- Node34&#45;&gt;Node35 -->
<g id="edge40" class="edge">
<title>Node34&#45;&gt;Node35</title>
<path fill="none" stroke="midnightblue" d="M1413.2,-347.08C1413.2,-340.01 1413.2,-329.86 1413.2,-320.99"/>
<polygon fill="midnightblue" stroke="midnightblue" points="1416.7,-320.75 1413.2,-310.75 1409.7,-320.75 1416.7,-320.75"/>
</g>
<!-- Node49 -->
<g id="node49" class="node">
<title>Node49</title>
<g id="a_node49"><a xlink:title=" ">
<polygon fill="none" stroke="#bfbfbf" points="1264.2,-291.5 1264.2,-310.5 1326.2,-310.5 1326.2,-291.5 1264.2,-291.5"/>
<text text-anchor="middle" x="1295.2" y="-298.5" font-family="Helvetica,sans-Serif" font-size="10.00">coroutine</text>
</a>
</g>
</g>
<!-- Node34&#45;&gt;Node49 -->
<g id="edge56" class="edge">
<title>Node34&#45;&gt;Node49</title>
<path fill="none" stroke="midnightblue" d="M1394.5,-347.44C1375.26,-338.64 1345.05,-324.81 1323,-314.72"/>
<polygon fill="midnightblue" stroke="midnightblue" points="1324.36,-311.5 1313.81,-310.52 1321.45,-317.86 1324.36,-311.5"/>
</g>
<!-- Node35&#45;&gt;Node36 -->
<g id="edge41" class="edge">
<title>Node35&#45;&gt;Node36</title>
<path fill="none" stroke="midnightblue" d="M1375.33,-291.44C1333.72,-282.04 1266.83,-266.93 1221.73,-256.74"/>
<polygon fill="midnightblue" stroke="midnightblue" points="1222.42,-253.31 1211.89,-254.52 1220.88,-260.13 1222.42,-253.31"/>
</g>
<!-- Node36&#45;&gt;Node2 -->
<g id="edge42" class="edge">
<title>Node36&#45;&gt;Node2</title>
<path fill="none" stroke="midnightblue" d="M1192.88,-235.43C1212.12,-226.55 1242.92,-212.13 1269.2,-199 1286.27,-190.47 1289.05,-184.89 1307.2,-179 1396.52,-150.04 1503.96,-137.67 1576.46,-132.39"/>
<polygon fill="midnightblue" stroke="midnightblue" points="1576.72,-135.88 1586.45,-131.7 1576.23,-128.9 1576.72,-135.88"/>
</g>
<!-- Node36&#45;&gt;Node29 -->
<g id="edge43" class="edge">
<title>Node36&#45;&gt;Node29</title>
<path fill="none" stroke="midnightblue" d="M1092.22,-238.26C979.31,-230.25 769.28,-214.99 579.4,-199.09"/>
<polygon fill="midnightblue" stroke="midnightblue" points="579.48,-195.58 569.22,-198.23 578.9,-202.56 579.48,-195.58"/>
</g>
<!-- Node37 -->
<g id="node37" class="node">
<title>Node37</title>
<g id="a_node37"><a xlink:title=" ">
<polygon fill="none" stroke="#bfbfbf" points="1316.7,-179.5 1316.7,-198.5 1395.7,-198.5 1395.7,-179.5 1316.7,-179.5"/>
<text text-anchor="middle" x="1356.2" y="-186.5" font-family="Helvetica,sans-Serif" font-size="10.00">openssl/err.h</text>
</a>
</g>
</g>
<!-- Node36&#45;&gt;Node37 -->
<g id="edge44" class="edge">
<title>Node36&#45;&gt;Node37</title>
<path fill="none" stroke="midnightblue" d="M1203.04,-235.44C1234.06,-226.24 1283.53,-211.56 1317.82,-201.39"/>
<polygon fill="midnightblue" stroke="midnightblue" points="1318.91,-204.72 1327.5,-198.52 1316.91,-198.01 1318.91,-204.72"/>
</g>
<!-- Node38 -->
<g id="node38" class="node">
<title>Node38</title>
<g id="a_node38"><a xlink:title=" ">
<polygon fill="none" stroke="#bfbfbf" points="1414.2,-179.5 1414.2,-198.5 1494.2,-198.5 1494.2,-179.5 1414.2,-179.5"/>
<text text-anchor="middle" x="1454.2" y="-186.5" font-family="Helvetica,sans-Serif" font-size="10.00">openssl/ssl.h</text>
</a>
</g>
</g>
<!-- Node36&#45;&gt;Node38 -->
<g id="edge45" class="edge">
<title>Node36&#45;&gt;Node38</title>
<path fill="none" stroke="midnightblue" d="M1218.57,-235.44C1269.02,-225.71 1351.22,-209.86 1403.98,-199.69"/>
<polygon fill="midnightblue" stroke="midnightblue" points="1404.97,-203.06 1414.12,-197.73 1403.64,-196.19 1404.97,-203.06"/>
</g>
<!-- Node39 -->
<g id="node39" class="node">
<title>Node39</title>
<g id="a_node39"><a xlink:title=" ">
<polygon fill="none" stroke="#bfbfbf" points="1512.7,-179.5 1512.7,-198.5 1559.7,-198.5 1559.7,-179.5 1512.7,-179.5"/>
<text text-anchor="middle" x="1536.2" y="-186.5" font-family="Helvetica,sans-Serif" font-size="10.00">fcntl.h</text>
</a>
</g>
</g>
<!-- Node36&#45;&gt;Node39 -->
<g id="edge46" class="edge">
<title>Node36&#45;&gt;Node39</title>
<path fill="none" stroke="midnightblue" d="M1255.82,-235.83C1320.35,-228.68 1412.82,-216.91 1502.69,-198.86"/>
<polygon fill="midnightblue" stroke="midnightblue" points="1503.4,-202.29 1512.5,-196.86 1502,-195.43 1503.4,-202.29"/>
</g>
<!-- Node40 -->
<g id="node40" class="node">
<title>Node40</title>
<g id="a_node40"><a xlink:title=" ">
<polygon fill="none" stroke="#bfbfbf" points="1577.7,-179.5 1577.7,-198.5 1630.7,-198.5 1630.7,-179.5 1577.7,-179.5"/>
<text text-anchor="middle" x="1604.2" y="-186.5" font-family="Helvetica,sans-Serif" font-size="10.00">netdb.h</text>
</a>
</g>
</g>
<!-- Node36&#45;&gt;Node40 -->
<g id="edge47" class="edge">
<title>Node36&#45;&gt;Node40</title>
<path fill="none" stroke="midnightblue" d="M1255.78,-237.83C1333.51,-231.23 1453.94,-219.14 1567.63,-198.87"/>
<polygon fill="midnightblue" stroke="midnightblue" points="1568.33,-202.3 1577.55,-197.08 1567.09,-195.41 1568.33,-202.3"/>
</g>
<!-- Node41 -->
<g id="node41" class="node">
<title>Node41</title>
<g id="a_node41"><a xlink:title=" ">
<polygon fill="none" stroke="#bfbfbf" points="587.2,-179.5 587.2,-198.5 659.2,-198.5 659.2,-179.5 587.2,-179.5"/>
<text text-anchor="middle" x="623.2" y="-186.5" font-family="Helvetica,sans-Serif" font-size="10.00">netinet/in.h</text>
</a>
</g>
</g>
<!-- Node36&#45;&gt;Node41 -->
<g id="edge48" class="edge">
<title>Node36&#45;&gt;Node41</title>
<path fill="none" stroke="midnightblue" d="M1092.38,-239.47C994.22,-233.41 824.52,-220.99 669.67,-199.07"/>
<polygon fill="midnightblue" stroke="midnightblue" points="669.89,-195.56 659.49,-197.61 668.89,-202.49 669.89,-195.56"/>
</g>
<!-- Node42 -->
<g id="node42" class="node">
<title>Node42</title>
<g id="a_node42"><a xlink:title=" ">
<polygon fill="none" stroke="#bfbfbf" points="677.2,-179.5 677.2,-198.5 755.2,-198.5 755.2,-179.5 677.2,-179.5"/>
<text text-anchor="middle" x="716.2" y="-186.5" font-family="Helvetica,sans-Serif" font-size="10.00">netinet/tcp.h</text>
</a>
</g>
</g>
<!-- Node36&#45;&gt;Node42 -->
<g id="edge49" class="edge">
<title>Node36&#45;&gt;Node42</title>
<path fill="none" stroke="midnightblue" d="M1092.67,-236.89C1012.03,-229.44 884.89,-216.57 765.5,-199.1"/>
<polygon fill="midnightblue" stroke="midnightblue" points="765.86,-195.61 755.45,-197.61 764.83,-202.54 765.86,-195.61"/>
</g>
<!-- Node43 -->
<g id="node43" class="node">
<title>Node43</title>
<g id="a_node43"><a xlink:title=" ">
<polygon fill="none" stroke="#bfbfbf" points="773.7,-179.5 773.7,-198.5 826.7,-198.5 826.7,-179.5 773.7,-179.5"/>
<text text-anchor="middle" x="800.2" y="-186.5" font-family="Helvetica,sans-Serif" font-size="10.00">stdint.h</text>
</a>
</g>
</g>
<!-- Node36&#45;&gt;Node43 -->
<g id="edge50" class="edge">
<title>Node36&#45;&gt;Node43</title>
<path fill="none" stroke="midnightblue" d="M1092.59,-235.94C1026,-228.72 929.36,-216.8 836.7,-199.11"/>
<polygon fill="midnightblue" stroke="midnightblue" points="837.36,-195.67 826.88,-197.21 836.03,-202.55 837.36,-195.67"/>
</g>
<!-- Node44 -->
<g id="node44" class="node">
<title>Node44</title>
<g id="a_node44"><a xlink:title=" ">
<polygon fill="none" stroke="#bfbfbf" points="844.7,-179.5 844.7,-198.5 913.7,-198.5 913.7,-179.5 844.7,-179.5"/>
<text text-anchor="middle" x="879.2" y="-186.5" font-family="Helvetica,sans-Serif" font-size="10.00">sys/epoll.h</text>
</a>
</g>
</g>
<!-- Node36&#45;&gt;Node44 -->
<g id="edge51" class="edge">
<title>Node36&#45;&gt;Node44</title>
<path fill="none" stroke="midnightblue" d="M1123.92,-235.47C1075.18,-227.11 998.91,-213.74 924,-199.31"/>
<polygon fill="midnightblue" stroke="midnightblue" points="924.4,-195.82 913.92,-197.36 923.07,-202.69 924.4,-195.82"/>
</g>
<!-- Node45 -->
<g id="node45" class="node">
<title>Node45</title>
<g id="a_node45"><a xlink:title=" ">
<polygon fill="none" stroke="#bfbfbf" points="931.7,-179.5 931.7,-198.5 1000.7,-198.5 1000.7,-179.5 931.7,-179.5"/>
<text text-anchor="middle" x="966.2" y="-186.5" font-family="Helvetica,sans-Serif" font-size="10.00">arpa/inet.h</text>
</a>
</g>
</g>
<!-- Node36&#45;&gt;Node45 -->
<g id="edge52" class="edge">
<title>Node36&#45;&gt;Node45</title>
<path fill="none" stroke="midnightblue" d="M1141.24,-235.44C1105.41,-226.14 1048.04,-211.25 1008.81,-201.06"/>
<polygon fill="midnightblue" stroke="midnightblue" points="1009.56,-197.64 999,-198.52 1007.8,-204.42 1009.56,-197.64"/>
</g>
<!-- Node46 -->
<g id="node46" class="node">
<title>Node46</title>
<g id="a_node46"><a xlink:title=" ">
<polygon fill="none" stroke="#bfbfbf" points="1018.7,-179.5 1018.7,-198.5 1095.7,-198.5 1095.7,-179.5 1018.7,-179.5"/>
<text text-anchor="middle" x="1057.2" y="-186.5" font-family="Helvetica,sans-Serif" font-size="10.00">sys/socket.h</text>
</a>
</g>
</g>
<!-- Node36&#45;&gt;Node46 -->
<g id="edge53" class="edge">
<title>Node36&#45;&gt;Node46</title>
<path fill="none" stroke="midnightblue" d="M1155.66,-235.44C1136.58,-226.64 1106.63,-212.81 1084.76,-202.72"/>
<polygon fill="midnightblue" stroke="midnightblue" points="1086.2,-199.53 1075.65,-198.52 1083.27,-205.88 1086.2,-199.53"/>
</g>
<!-- Node47 -->
<g id="node47" class="node">
<title>Node47</title>
<g id="a_node47"><a xlink:title=" ">
<polygon fill="none" stroke="#bfbfbf" points="1114.2,-179.5 1114.2,-198.5 1186.2,-198.5 1186.2,-179.5 1114.2,-179.5"/>
<text text-anchor="middle" x="1150.2" y="-186.5" font-family="Helvetica,sans-Serif" font-size="10.00">sys/types.h</text>
</a>
</g>
</g>
<!-- Node36&#45;&gt;Node47 -->
<g id="edge54" class="edge">
<title>Node36&#45;&gt;Node47</title>
<path fill="none" stroke="midnightblue" d="M1170.24,-235.08C1166.99,-227.77 1162.28,-217.18 1158.25,-208.1"/>
<polygon fill="midnightblue" stroke="midnightblue" points="1161.35,-206.47 1154.09,-198.75 1154.95,-209.31 1161.35,-206.47"/>
</g>
<!-- Node48 -->
<g id="node48" class="node">
<title>Node48</title>
<g id="a_node48"><a xlink:title=" ">
<polygon fill="none" stroke="#bfbfbf" points="1204.2,-179.5 1204.2,-198.5 1260.2,-198.5 1260.2,-179.5 1204.2,-179.5"/>
<text text-anchor="middle" x="1232.2" y="-186.5" font-family="Helvetica,sans-Serif" font-size="10.00">unistd.h</text>
</a>
</g>
</g>
<!-- Node36&#45;&gt;Node48 -->
<g id="edge55" class="edge">
<title>Node36&#45;&gt;Node48</title>
<path fill="none" stroke="midnightblue" d="M1183.52,-235.32C1192.09,-227.34 1205.01,-215.31 1215.39,-205.65"/>
<polygon fill="midnightblue" stroke="midnightblue" points="1217.78,-208.21 1222.71,-198.83 1213.01,-203.09 1217.78,-208.21"/>
</g>
<!-- Node50&#45;&gt;Node2 -->
<g id="edge58" class="edge">
<title>Node50&#45;&gt;Node2</title>
<path fill="none" stroke="midnightblue" d="M1773.2,-403.44C1773.2,-384.94 1773.2,-339.81 1773.2,-302 1773.2,-302 1773.2,-302 1773.2,-244 1773.2,-213.2 1769.19,-202.42 1749.2,-179 1737.83,-165.68 1722.03,-155.18 1706.84,-147.27"/>
<polygon fill="midnightblue" stroke="midnightblue" points="1708.02,-143.95 1697.5,-142.68 1704.93,-150.24 1708.02,-143.95"/>
</g>
</g>
</svg>
