<?xml version="1.0" encoding="UTF-8" standalone="no"?>
<!DOCTYPE svg PUBLIC "-//W3C//DTD SVG 1.1//EN"
 "http://www.w3.org/Graphics/SVG/1.1/DTD/svg11.dtd">
<!-- Generated by graphviz version 3.0.0 (20220226.1711)
 -->
<!-- Title: UserEntities.hpp Pages: 1 -->
<svg width="1816pt" height="610pt"
 viewBox="0.00 0.00 1815.50 610.00" xmlns="http://www.w3.org/2000/svg" xmlns:xlink="http://www.w3.org/1999/xlink">
<g id="graph0" class="graph" transform="scale(1 1) rotate(0) translate(4 606)">
<title>UserEntities.hpp</title>
<!-- Node1 -->
<g id="node1" class="node">
<title>Node1</title>
<g id="a_node1"><a xlink:title=" ">
<polygon fill="#bfbfbf" stroke="black" points="431.5,-582.5 431.5,-601.5 520.5,-601.5 520.5,-582.5 431.5,-582.5"/>
<text text-anchor="middle" x="476" y="-589.5" font-family="Helvetica,sans-Serif" font-size="10.00">UserEntities.hpp</text>
</a>
</g>
</g>
<!-- Node2 -->
<g id="node2" class="node">
<title>Node2</title>
<g id="a_node2"><a xlink:href="../../d4/deb/a00710.html" target="_top" xlink:title=" ">
<polygon fill="none" stroke="black" points="1193.5,-112.5 1193.5,-142.5 1324.5,-142.5 1324.5,-112.5 1193.5,-112.5"/>
<text text-anchor="start" x="1201.5" y="-130.5" font-family="Helvetica,sans-Serif" font-size="10.00">discordcoreapi/Foundation</text>
<text text-anchor="middle" x="1259" y="-119.5" font-family="Helvetica,sans-Serif" font-size="10.00">Entities.hpp</text>
</a>
</g>
</g>
<!-- Node1&#45;&gt;Node2 -->
<g id="edge1" class="edge">
<title>Node1&#45;&gt;Node2</title>
<path fill="none" stroke="midnightblue" d="M431.22,-589.14C312.73,-583.02 0,-558.46 0,-470 0,-470 0,-470 0,-244 0,-205.58 22.34,-195.59 57,-179 158.1,-130.6 934.84,-127.86 1183.02,-128.24"/>
<polygon fill="midnightblue" stroke="midnightblue" points="1183.38,-131.74 1193.39,-128.26 1183.39,-124.74 1183.38,-131.74"/>
</g>
<!-- Node28 -->
<g id="node28" class="node">
<title>Node28</title>
<g id="a_node28"><a xlink:href="../../d9/dd4/a00776.html" target="_top" xlink:title=" ">
<polygon fill="none" stroke="black" points="1053,-515.5 1053,-545.5 1187,-545.5 1187,-515.5 1053,-515.5"/>
<text text-anchor="start" x="1061" y="-533.5" font-family="Helvetica,sans-Serif" font-size="10.00">discordcoreapi/WebSocket</text>
<text text-anchor="middle" x="1120" y="-522.5" font-family="Helvetica,sans-Serif" font-size="10.00">Entities.hpp</text>
</a>
</g>
</g>
<!-- Node1&#45;&gt;Node28 -->
<g id="edge27" class="edge">
<title>Node1&#45;&gt;Node28</title>
<path fill="none" stroke="midnightblue" d="M520.52,-586.89C628.67,-576.89 906.31,-551.24 1042.42,-538.67"/>
<polygon fill="midnightblue" stroke="midnightblue" points="1043.13,-542.12 1052.77,-537.71 1042.49,-535.15 1043.13,-542.12"/>
</g>
<!-- Node3 -->
<g id="node3" class="node">
<title>Node3</title>
<g id="a_node3"><a xlink:href="../../d5/dae/a00767.html" target="_top" xlink:title=" ">
<polygon fill="none" stroke="black" points="1016,-56.5 1016,-75.5 1150,-75.5 1150,-56.5 1016,-56.5"/>
<text text-anchor="middle" x="1083" y="-63.5" font-family="Helvetica,sans-Serif" font-size="10.00">discordcoreapi/Utilities.hpp</text>
</a>
</g>
</g>
<!-- Node2&#45;&gt;Node3 -->
<g id="edge2" class="edge">
<title>Node2&#45;&gt;Node3</title>
<path fill="none" stroke="midnightblue" d="M1217.29,-112.4C1187.01,-102.16 1146.51,-88.47 1117.93,-78.81"/>
<polygon fill="midnightblue" stroke="midnightblue" points="1118.95,-75.46 1108.35,-75.57 1116.7,-82.09 1118.95,-75.46"/>
</g>
<!-- Node4 -->
<g id="node4" class="node">
<title>Node4</title>
<g id="a_node4"><a xlink:title=" ">
<polygon fill="none" stroke="#bfbfbf" points="1750.5,-0.5 1750.5,-19.5 1807.5,-19.5 1807.5,-0.5 1750.5,-0.5"/>
<text text-anchor="middle" x="1779" y="-7.5" font-family="Helvetica,sans-Serif" font-size="10.00">pthread.h</text>
</a>
</g>
</g>
<!-- Node3&#45;&gt;Node4 -->
<g id="edge3" class="edge">
<title>Node3&#45;&gt;Node4</title>
<path fill="none" stroke="midnightblue" d="M1150.3,-64.18C1268.2,-61.92 1519.76,-53.42 1740.27,-20.02"/>
<polygon fill="midnightblue" stroke="midnightblue" points="1741.06,-23.44 1750.41,-18.46 1740,-16.52 1741.06,-23.44"/>
</g>
<!-- Node5 -->
<g id="node5" class="node">
<title>Node5</title>
<g id="a_node5"><a xlink:title=" ">
<polygon fill="none" stroke="#bfbfbf" points="92,-0.5 92,-19.5 154,-19.5 154,-0.5 92,-0.5"/>
<text text-anchor="middle" x="123" y="-7.5" font-family="Helvetica,sans-Serif" font-size="10.00">sys/time.h</text>
</a>
</g>
</g>
<!-- Node3&#45;&gt;Node5 -->
<g id="edge4" class="edge">
<title>Node3&#45;&gt;Node5</title>
<path fill="none" stroke="midnightblue" d="M1015.97,-65.66C865.21,-66.31 487.95,-63.17 164.39,-19.95"/>
<polygon fill="midnightblue" stroke="midnightblue" points="164.73,-16.46 154.35,-18.59 163.79,-23.4 164.73,-16.46"/>
</g>
<!-- Node6 -->
<g id="node6" class="node">
<title>Node6</title>
<g id="a_node6"><a xlink:title=" ">
<polygon fill="none" stroke="#bfbfbf" points="172,-0.5 172,-19.5 216,-19.5 216,-0.5 172,-0.5"/>
<text text-anchor="middle" x="194" y="-7.5" font-family="Helvetica,sans-Serif" font-size="10.00">time.h</text>
</a>
</g>
</g>
<!-- Node3&#45;&gt;Node6 -->
<g id="edge5" class="edge">
<title>Node3&#45;&gt;Node6</title>
<path fill="none" stroke="midnightblue" d="M1015.89,-63.48C844.93,-59.28 395.25,-46.2 226.21,-19.75"/>
<polygon fill="midnightblue" stroke="midnightblue" points="226.64,-16.27 216.21,-18.11 225.51,-23.18 226.64,-16.27"/>
</g>
<!-- Node7 -->
<g id="node7" class="node">
<title>Node7</title>
<g id="a_node7"><a xlink:title=" ">
<polygon fill="none" stroke="#bfbfbf" points="234.5,-0.5 234.5,-19.5 275.5,-19.5 275.5,-0.5 234.5,-0.5"/>
<text text-anchor="middle" x="255" y="-7.5" font-family="Helvetica,sans-Serif" font-size="10.00">ctime</text>
</a>
</g>
</g>
<!-- Node3&#45;&gt;Node7 -->
<g id="edge6" class="edge">
<title>Node3&#45;&gt;Node7</title>
<path fill="none" stroke="midnightblue" d="M1015.98,-63.33C853.67,-58.97 442,-45.82 285.68,-19.84"/>
<polygon fill="midnightblue" stroke="midnightblue" points="286.21,-16.38 275.76,-18.11 285.01,-23.27 286.21,-16.38"/>
</g>
<!-- Node8 -->
<g id="node8" class="node">
<title>Node8</title>
<g id="a_node8"><a xlink:title=" ">
<polygon fill="none" stroke="#bfbfbf" points="293.5,-0.5 293.5,-19.5 386.5,-19.5 386.5,-0.5 293.5,-0.5"/>
<text text-anchor="middle" x="340" y="-7.5" font-family="Helvetica,sans-Serif" font-size="10.00">condition_variable</text>
</a>
</g>
</g>
<!-- Node3&#45;&gt;Node8 -->
<g id="edge7" class="edge">
<title>Node3&#45;&gt;Node8</title>
<path fill="none" stroke="midnightblue" d="M1015.53,-62.68C893.95,-58.05 629.88,-45.89 396.73,-19.97"/>
<polygon fill="midnightblue" stroke="midnightblue" points="397.03,-16.48 386.71,-18.84 396.25,-23.44 397.03,-16.48"/>
</g>
<!-- Node9 -->
<g id="node9" class="node">
<title>Node9</title>
<g id="a_node9"><a xlink:title=" ">
<polygon fill="none" stroke="#bfbfbf" points="405,-0.5 405,-19.5 503,-19.5 503,-0.5 405,-0.5"/>
<text text-anchor="middle" x="454" y="-7.5" font-family="Helvetica,sans-Serif" font-size="10.00">nlohmann/json.hpp</text>
</a>
</g>
</g>
<!-- Node3&#45;&gt;Node9 -->
<g id="edge8" class="edge">
<title>Node3&#45;&gt;Node9</title>
<path fill="none" stroke="midnightblue" d="M1015.6,-61.34C910.5,-55.26 701.02,-41.69 513.08,-20.04"/>
<polygon fill="midnightblue" stroke="midnightblue" points="513.35,-16.55 503.01,-18.87 512.54,-23.5 513.35,-16.55"/>
</g>
<!-- Node10 -->
<g id="node10" class="node">
<title>Node10</title>
<g id="a_node10"><a xlink:title=" ">
<polygon fill="none" stroke="#bfbfbf" points="521.5,-0.5 521.5,-19.5 606.5,-19.5 606.5,-0.5 521.5,-0.5"/>
<text text-anchor="middle" x="564" y="-7.5" font-family="Helvetica,sans-Serif" font-size="10.00">source_location</text>
</a>
</g>
</g>
<!-- Node3&#45;&gt;Node10 -->
<g id="edge9" class="edge">
<title>Node3&#45;&gt;Node10</title>
<path fill="none" stroke="midnightblue" d="M1015.77,-60.21C926.74,-53.49 764.63,-39.97 616.71,-20.14"/>
<polygon fill="midnightblue" stroke="midnightblue" points="616.92,-16.64 606.54,-18.77 615.98,-23.57 616.92,-16.64"/>
</g>
<!-- Node11 -->
<g id="node11" class="node">
<title>Node11</title>
<g id="a_node11"><a xlink:title=" ">
<polygon fill="none" stroke="#bfbfbf" points="624.5,-0.5 624.5,-19.5 707.5,-19.5 707.5,-0.5 624.5,-0.5"/>
<text text-anchor="middle" x="666" y="-7.5" font-family="Helvetica,sans-Serif" font-size="10.00">unordered_map</text>
</a>
</g>
</g>
<!-- Node3&#45;&gt;Node11 -->
<g id="edge10" class="edge">
<title>Node3&#45;&gt;Node11</title>
<path fill="none" stroke="midnightblue" d="M1015.74,-57.8C944.36,-49.91 828.06,-36.38 717.69,-20.03"/>
<polygon fill="midnightblue" stroke="midnightblue" points="718.13,-16.56 707.72,-18.55 717.09,-23.48 718.13,-16.56"/>
</g>
<!-- Node12 -->
<g id="node12" class="node">
<title>Node12</title>
<g id="a_node12"><a xlink:title=" ">
<polygon fill="none" stroke="#bfbfbf" points="726,-0.5 726,-19.5 804,-19.5 804,-0.5 726,-0.5"/>
<text text-anchor="middle" x="765" y="-7.5" font-family="Helvetica,sans-Serif" font-size="10.00">shared_mutex</text>
</a>
</g>
</g>
<!-- Node3&#45;&gt;Node12 -->
<g id="edge11" class="edge">
<title>Node3&#45;&gt;Node12</title>
<path fill="none" stroke="midnightblue" d="M1029.92,-56.48C977.56,-48 894.98,-34.43 813.9,-20.13"/>
<polygon fill="midnightblue" stroke="midnightblue" points="814.48,-16.68 804.02,-18.38 813.26,-23.57 814.48,-16.68"/>
</g>
<!-- Node13 -->
<g id="node13" class="node">
<title>Node13</title>
<g id="a_node13"><a xlink:title=" ">
<polygon fill="none" stroke="#bfbfbf" points="4,-0.5 4,-19.5 74,-19.5 74,-0.5 4,-0.5"/>
<text text-anchor="middle" x="39" y="-7.5" font-family="Helvetica,sans-Serif" font-size="10.00">opus/opus.h</text>
</a>
</g>
</g>
<!-- Node3&#45;&gt;Node13 -->
<g id="edge12" class="edge">
<title>Node3&#45;&gt;Node13</title>
<path fill="none" stroke="midnightblue" d="M1015.99,-65.6C856.18,-66.25 440.06,-63.36 84.44,-19.98"/>
<polygon fill="midnightblue" stroke="midnightblue" points="84.82,-16.5 74.46,-18.75 83.96,-23.45 84.82,-16.5"/>
</g>
<!-- Node14 -->
<g id="node14" class="node">
<title>Node14</title>
<g id="a_node14"><a xlink:title=" ">
<polygon fill="none" stroke="#bfbfbf" points="822,-0.5 822,-19.5 880,-19.5 880,-0.5 822,-0.5"/>
<text text-anchor="middle" x="851" y="-7.5" font-family="Helvetica,sans-Serif" font-size="10.00">functional</text>
</a>
</g>
</g>
<!-- Node3&#45;&gt;Node14 -->
<g id="edge13" class="edge">
<title>Node3&#45;&gt;Node14</title>
<path fill="none" stroke="midnightblue" d="M1045.8,-56.42C1008.8,-47.88 950.13,-34.31 890.08,-20.25"/>
<polygon fill="midnightblue" stroke="midnightblue" points="890.58,-16.77 880.04,-17.89 888.98,-23.58 890.58,-16.77"/>
</g>
<!-- Node15 -->
<g id="node15" class="node">
<title>Node15</title>
<g id="a_node15"><a xlink:title=" ">
<polygon fill="none" stroke="#bfbfbf" points="898.5,-0.5 898.5,-19.5 963.5,-19.5 963.5,-0.5 898.5,-0.5"/>
<text text-anchor="middle" x="931" y="-7.5" font-family="Helvetica,sans-Serif" font-size="10.00">semaphore</text>
</a>
</g>
</g>
<!-- Node3&#45;&gt;Node15 -->
<g id="edge14" class="edge">
<title>Node3&#45;&gt;Node15</title>
<path fill="none" stroke="midnightblue" d="M1058.92,-56.44C1033.46,-47.4 993.11,-33.06 964.54,-22.92"/>
<polygon fill="midnightblue" stroke="midnightblue" points="965.57,-19.57 954.97,-19.52 963.22,-26.16 965.57,-19.57"/>
</g>
<!-- Node16 -->
<g id="node16" class="node">
<title>Node16</title>
<g id="a_node16"><a xlink:title=" ">
<polygon fill="none" stroke="#bfbfbf" points="982,-0.5 982,-19.5 1038,-19.5 1038,-0.5 982,-0.5"/>
<text text-anchor="middle" x="1010" y="-7.5" font-family="Helvetica,sans-Serif" font-size="10.00">concepts</text>
</a>
</g>
</g>
<!-- Node3&#45;&gt;Node16 -->
<g id="edge15" class="edge">
<title>Node3&#45;&gt;Node16</title>
<path fill="none" stroke="midnightblue" d="M1071.27,-56.32C1060.16,-48.11 1043.26,-35.6 1030.02,-25.81"/>
<polygon fill="midnightblue" stroke="midnightblue" points="1032.06,-22.97 1021.94,-19.83 1027.9,-28.59 1032.06,-22.97"/>
</g>
<!-- Node17 -->
<g id="node17" class="node">
<title>Node17</title>
<g id="a_node17"><a xlink:title=" ">
<polygon fill="none" stroke="#bfbfbf" points="1056,-0.5 1056,-19.5 1110,-19.5 1110,-0.5 1056,-0.5"/>
<text text-anchor="middle" x="1083" y="-7.5" font-family="Helvetica,sans-Serif" font-size="10.00">iostream</text>
</a>
</g>
</g>
<!-- Node3&#45;&gt;Node17 -->
<g id="edge16" class="edge">
<title>Node3&#45;&gt;Node17</title>
<path fill="none" stroke="midnightblue" d="M1083,-56.08C1083,-49.01 1083,-38.86 1083,-29.99"/>
<polygon fill="midnightblue" stroke="midnightblue" points="1086.5,-29.75 1083,-19.75 1079.5,-29.75 1086.5,-29.75"/>
</g>
<!-- Node18 -->
<g id="node18" class="node">
<title>Node18</title>
<g id="a_node18"><a xlink:title=" ">
<polygon fill="none" stroke="#bfbfbf" points="1128.5,-0.5 1128.5,-19.5 1177.5,-19.5 1177.5,-0.5 1128.5,-0.5"/>
<text text-anchor="middle" x="1153" y="-7.5" font-family="Helvetica,sans-Serif" font-size="10.00">fstream</text>
</a>
</g>
</g>
<!-- Node3&#45;&gt;Node18 -->
<g id="edge17" class="edge">
<title>Node3&#45;&gt;Node18</title>
<path fill="none" stroke="midnightblue" d="M1094.25,-56.32C1104.8,-48.18 1120.8,-35.84 1133.44,-26.09"/>
<polygon fill="midnightblue" stroke="midnightblue" points="1135.77,-28.71 1141.55,-19.83 1131.49,-23.17 1135.77,-28.71"/>
</g>
<!-- Node19 -->
<g id="node19" class="node">
<title>Node19</title>
<g id="a_node19"><a xlink:title=" ">
<polygon fill="none" stroke="#bfbfbf" points="1195.5,-0.5 1195.5,-19.5 1236.5,-19.5 1236.5,-0.5 1195.5,-0.5"/>
<text text-anchor="middle" x="1216" y="-7.5" font-family="Helvetica,sans-Serif" font-size="10.00">bitset</text>
</a>
</g>
</g>
<!-- Node3&#45;&gt;Node19 -->
<g id="edge18" class="edge">
<title>Node3&#45;&gt;Node19</title>
<path fill="none" stroke="midnightblue" d="M1104.07,-56.44C1126.19,-47.46 1161.14,-33.27 1186.1,-23.14"/>
<polygon fill="midnightblue" stroke="midnightblue" points="1187.51,-26.34 1195.46,-19.34 1184.88,-19.86 1187.51,-26.34"/>
</g>
<!-- Node20 -->
<g id="node20" class="node">
<title>Node20</title>
<g id="a_node20"><a xlink:title=" ">
<polygon fill="none" stroke="#bfbfbf" points="1255,-0.5 1255,-19.5 1307,-19.5 1307,-0.5 1255,-0.5"/>
<text text-anchor="middle" x="1281" y="-7.5" font-family="Helvetica,sans-Serif" font-size="10.00">memory</text>
</a>
</g>
</g>
<!-- Node3&#45;&gt;Node20 -->
<g id="edge19" class="edge">
<title>Node3&#45;&gt;Node20</title>
<path fill="none" stroke="midnightblue" d="M1114.37,-56.44C1149.86,-46.77 1207.54,-31.03 1244.88,-20.85"/>
<polygon fill="midnightblue" stroke="midnightblue" points="1246.1,-24.14 1254.83,-18.14 1244.26,-17.39 1246.1,-24.14"/>
</g>
<!-- Node21 -->
<g id="node21" class="node">
<title>Node21</title>
<g id="a_node21"><a xlink:title=" ">
<polygon fill="none" stroke="#bfbfbf" points="1325.5,-0.5 1325.5,-19.5 1374.5,-19.5 1374.5,-0.5 1325.5,-0.5"/>
<text text-anchor="middle" x="1350" y="-7.5" font-family="Helvetica,sans-Serif" font-size="10.00">random</text>
</a>
</g>
</g>
<!-- Node3&#45;&gt;Node21 -->
<g id="edge20" class="edge">
<title>Node3&#45;&gt;Node21</title>
<path fill="none" stroke="midnightblue" d="M1132.3,-56.48C1177.38,-48.47 1246.13,-35.69 1315.01,-20.1"/>
<polygon fill="midnightblue" stroke="midnightblue" points="1316.2,-23.42 1325.17,-17.78 1314.64,-16.6 1316.2,-23.42"/>
</g>
<!-- Node22 -->
<g id="node22" class="node">
<title>Node22</title>
<g id="a_node22"><a xlink:title=" ">
<polygon fill="none" stroke="#bfbfbf" points="1392.5,-0.5 1392.5,-19.5 1433.5,-19.5 1433.5,-0.5 1392.5,-0.5"/>
<text text-anchor="middle" x="1413" y="-7.5" font-family="Helvetica,sans-Serif" font-size="10.00">string</text>
</a>
</g>
</g>
<!-- Node3&#45;&gt;Node22 -->
<g id="edge21" class="edge">
<title>Node3&#45;&gt;Node22</title>
<path fill="none" stroke="midnightblue" d="M1150.23,-57.7C1209.1,-50.67 1297.03,-38.65 1382.57,-19.8"/>
<polygon fill="midnightblue" stroke="midnightblue" points="1383.45,-23.19 1392.45,-17.59 1381.92,-16.36 1383.45,-23.19"/>
</g>
<!-- Node23 -->
<g id="node23" class="node">
<title>Node23</title>
<g id="a_node23"><a xlink:title=" ">
<polygon fill="none" stroke="#bfbfbf" points="1452,-0.5 1452,-19.5 1494,-19.5 1494,-0.5 1452,-0.5"/>
<text text-anchor="middle" x="1473" y="-7.5" font-family="Helvetica,sans-Serif" font-size="10.00">vector</text>
</a>
</g>
</g>
<!-- Node3&#45;&gt;Node23 -->
<g id="edge22" class="edge">
<title>Node3&#45;&gt;Node23</title>
<path fill="none" stroke="midnightblue" d="M1150.01,-59.78C1222.52,-53.4 1341.27,-40.8 1442,-20 1442.1,-19.98 1442.2,-19.96 1442.3,-19.94"/>
<polygon fill="midnightblue" stroke="midnightblue" points="1442.87,-23.4 1451.77,-17.64 1441.22,-16.6 1442.87,-23.4"/>
</g>
<!-- Node24 -->
<g id="node24" class="node">
<title>Node24</title>
<g id="a_node24"><a xlink:title=" ">
<polygon fill="none" stroke="#bfbfbf" points="1512,-0.5 1512,-19.5 1556,-19.5 1556,-0.5 1512,-0.5"/>
<text text-anchor="middle" x="1534" y="-7.5" font-family="Helvetica,sans-Serif" font-size="10.00">thread</text>
</a>
</g>
</g>
<!-- Node3&#45;&gt;Node24 -->
<g id="edge23" class="edge">
<title>Node3&#45;&gt;Node24</title>
<path fill="none" stroke="midnightblue" d="M1150.1,-61.46C1231.36,-56.35 1372.4,-44.89 1501.68,-19.94"/>
<polygon fill="midnightblue" stroke="midnightblue" points="1502.63,-23.32 1511.76,-17.96 1501.28,-16.45 1502.63,-23.32"/>
</g>
<!-- Node25 -->
<g id="node25" class="node">
<title>Node25</title>
<g id="a_node25"><a xlink:title=" ">
<polygon fill="none" stroke="#bfbfbf" points="1574,-0.5 1574,-19.5 1618,-19.5 1618,-0.5 1574,-0.5"/>
<text text-anchor="middle" x="1596" y="-7.5" font-family="Helvetica,sans-Serif" font-size="10.00">mutex</text>
</a>
</g>
</g>
<!-- Node3&#45;&gt;Node25 -->
<g id="edge24" class="edge">
<title>Node3&#45;&gt;Node25</title>
<path fill="none" stroke="midnightblue" d="M1150.22,-62.74C1241.88,-58.77 1411.18,-48.28 1563.75,-19.9"/>
<polygon fill="midnightblue" stroke="midnightblue" points="1564.6,-23.3 1573.77,-18 1563.3,-16.42 1564.6,-23.3"/>
</g>
<!-- Node26 -->
<g id="node26" class="node">
<title>Node26</title>
<g id="a_node26"><a xlink:title=" ">
<polygon fill="none" stroke="#bfbfbf" points="1636.5,-0.5 1636.5,-19.5 1679.5,-19.5 1679.5,-0.5 1636.5,-0.5"/>
<text text-anchor="middle" x="1658" y="-7.5" font-family="Helvetica,sans-Serif" font-size="10.00">queue</text>
</a>
</g>
</g>
<!-- Node3&#45;&gt;Node26 -->
<g id="edge25" class="edge">
<title>Node3&#45;&gt;Node26</title>
<path fill="none" stroke="midnightblue" d="M1150.14,-63.75C1251.51,-60.93 1449.63,-51.7 1626.45,-19.69"/>
<polygon fill="midnightblue" stroke="midnightblue" points="1627.25,-23.1 1636.45,-17.85 1625.98,-16.22 1627.25,-23.1"/>
</g>
<!-- Node27 -->
<g id="node27" class="node">
<title>Node27</title>
<g id="a_node27"><a xlink:title=" ">
<polygon fill="none" stroke="#bfbfbf" points="1697.5,-0.5 1697.5,-19.5 1732.5,-19.5 1732.5,-0.5 1697.5,-0.5"/>
<text text-anchor="middle" x="1715" y="-7.5" font-family="Helvetica,sans-Serif" font-size="10.00">map</text>
</a>
</g>
</g>
<!-- Node3&#45;&gt;Node27 -->
<g id="edge26" class="edge">
<title>Node3&#45;&gt;Node27</title>
<path fill="none" stroke="midnightblue" d="M1150.14,-65.65C1260.88,-65.5 1488.59,-59.99 1687.23,-19.88"/>
<polygon fill="midnightblue" stroke="midnightblue" points="1688.18,-23.26 1697.27,-17.82 1686.77,-16.4 1688.18,-23.26"/>
</g>
<!-- Node28&#45;&gt;Node2 -->
<g id="edge28" class="edge">
<title>Node28&#45;&gt;Node2</title>
<path fill="none" stroke="midnightblue" d="M1187.27,-528.78C1329.75,-525.42 1649,-507.48 1649,-414 1649,-414 1649,-414 1649,-244 1649,-179.14 1448.17,-147.89 1334.74,-135.41"/>
<polygon fill="midnightblue" stroke="midnightblue" points="1335.03,-131.92 1324.72,-134.33 1334.29,-138.88 1335.03,-131.92"/>
</g>
<!-- Node29 -->
<g id="node29" class="node">
<title>Node29</title>
<g id="a_node29"><a xlink:href="../../d5/d5b/a00695.html" target="_top" xlink:title=" ">
<polygon fill="none" stroke="black" points="150,-235.5 150,-254.5 290,-254.5 290,-235.5 150,-235.5"/>
<text text-anchor="middle" x="220" y="-242.5" font-family="Helvetica,sans-Serif" font-size="10.00">discordcoreapi/Demuxer.hpp</text>
</a>
</g>
</g>
<!-- Node28&#45;&gt;Node29 -->
<g id="edge29" class="edge">
<title>Node28&#45;&gt;Node29</title>
<path fill="none" stroke="midnightblue" d="M1052.82,-525.86C872.59,-515.2 392,-480.54 392,-414 392,-414 392,-414 392,-356 392,-299.51 325.34,-270.72 275.01,-257.04"/>
<polygon fill="midnightblue" stroke="midnightblue" points="275.75,-253.61 265.19,-254.5 274,-260.39 275.75,-253.61"/>
</g>
<!-- Node30 -->
<g id="node30" class="node">
<title>Node30</title>
<g id="a_node30"><a xlink:href="../../d4/d6a/a00704.html" target="_top" xlink:title=" ">
<polygon fill="none" stroke="black" points="248,-179.5 248,-198.5 406,-198.5 406,-179.5 248,-179.5"/>
<text text-anchor="middle" x="327" y="-186.5" font-family="Helvetica,sans-Serif" font-size="10.00">discordcoreapi/EventEntities.hpp</text>
</a>
</g>
</g>
<!-- Node28&#45;&gt;Node30 -->
<g id="edge60" class="edge">
<title>Node28&#45;&gt;Node30</title>
<path fill="none" stroke="midnightblue" d="M1052.99,-523.78C940.3,-512.3 725,-481.52 725,-414 725,-414 725,-414 725,-300 725,-265.37 498.28,-220.35 387.07,-200.35"/>
<polygon fill="midnightblue" stroke="midnightblue" points="387.46,-196.87 377,-198.56 386.23,-203.76 387.46,-196.87"/>
</g>
<!-- Node32 -->
<g id="node32" class="node">
<title>Node32</title>
<g id="a_node32"><a xlink:href="../../d1/d87/a00689.html" target="_top" xlink:title=" ">
<polygon fill="none" stroke="black" points="1227.5,-459.5 1227.5,-478.5 1414.5,-478.5 1414.5,-459.5 1227.5,-459.5"/>
<text text-anchor="middle" x="1321" y="-466.5" font-family="Helvetica,sans-Serif" font-size="10.00">discordcoreapi/CommandController.hpp</text>
</a>
</g>
</g>
<!-- Node28&#45;&gt;Node32 -->
<g id="edge35" class="edge">
<title>Node28&#45;&gt;Node32</title>
<path fill="none" stroke="midnightblue" d="M1167.38,-515.47C1202.51,-505.08 1249.79,-491.08 1282.58,-481.37"/>
<polygon fill="midnightblue" stroke="midnightblue" points="1283.67,-484.7 1292.26,-478.51 1281.68,-477.99 1283.67,-484.7"/>
</g>
<!-- Node34 -->
<g id="node34" class="node">
<title>Node34</title>
<g id="a_node34"><a xlink:href="../../d3/d4f/a00761.html" target="_top" xlink:title=" ">
<polygon fill="none" stroke="black" points="1158,-347.5 1158,-366.5 1308,-366.5 1308,-347.5 1158,-347.5"/>
<text text-anchor="middle" x="1233" y="-354.5" font-family="Helvetica,sans-Serif" font-size="10.00">discordcoreapi/ThreadPool.hpp</text>
</a>
</g>
</g>
<!-- Node28&#45;&gt;Node34 -->
<g id="edge62" class="edge">
<title>Node28&#45;&gt;Node34</title>
<path fill="none" stroke="midnightblue" d="M1129.25,-515.47C1149.87,-484.17 1199.55,-408.76 1221.85,-374.93"/>
<polygon fill="midnightblue" stroke="midnightblue" points="1224.78,-376.84 1227.36,-366.56 1218.94,-372.98 1224.78,-376.84"/>
</g>
<!-- Node36 -->
<g id="node36" class="node">
<title>Node36</title>
<g id="a_node36"><a xlink:href="../../d5/de8/a00749.html" target="_top" xlink:title=" ">
<polygon fill="none" stroke="black" points="901,-235.5 901,-254.5 1051,-254.5 1051,-235.5 901,-235.5"/>
<text text-anchor="middle" x="976" y="-242.5" font-family="Helvetica,sans-Serif" font-size="10.00">discordcoreapi/SSLClients.hpp</text>
</a>
</g>
</g>
<!-- Node28&#45;&gt;Node36 -->
<g id="edge61" class="edge">
<title>Node28&#45;&gt;Node36</title>
<path fill="none" stroke="midnightblue" d="M1096.27,-515.17C1067.84,-496 1024,-459.11 1024,-414 1024,-414 1024,-414 1024,-356 1024,-320.58 1002.84,-283.71 988.62,-262.92"/>
<polygon fill="midnightblue" stroke="midnightblue" points="991.32,-260.68 982.67,-254.56 985.62,-264.74 991.32,-260.68"/>
</g>
<!-- Node50 -->
<g id="node50" class="node">
<title>Node50</title>
<g id="a_node50"><a xlink:href="../../dd/d57/a00701.html" target="_top" xlink:title=" ">
<polygon fill="none" stroke="black" points="1477,-403.5 1477,-422.5 1621,-422.5 1621,-403.5 1477,-403.5"/>
<text text-anchor="middle" x="1549" y="-410.5" font-family="Helvetica,sans-Serif" font-size="10.00">discordcoreapi/ErlPacker.hpp</text>
</a>
</g>
</g>
<!-- Node28&#45;&gt;Node50 -->
<g id="edge58" class="edge">
<title>Node28&#45;&gt;Node50</title>
<path fill="none" stroke="midnightblue" d="M1187.04,-524.35C1249.41,-518.16 1344.3,-505.14 1423,-479 1461.53,-466.2 1502.71,-442.92 1527.13,-427.97"/>
<polygon fill="midnightblue" stroke="midnightblue" points="1528.99,-430.94 1535.64,-422.68 1525.29,-424.99 1528.99,-430.94"/>
</g>
<!-- Node29&#45;&gt;Node2 -->
<g id="edge32" class="edge">
<title>Node29&#45;&gt;Node2</title>
<path fill="none" stroke="midnightblue" d="M219.63,-235.12C219.58,-220.72 221.83,-192.54 239,-179 275.93,-149.87 952.7,-134.33 1183.01,-129.87"/>
<polygon fill="midnightblue" stroke="midnightblue" points="1183.38,-133.36 1193.31,-129.67 1183.24,-126.36 1183.38,-133.36"/>
</g>
<!-- Node29&#45;&gt;Node13 -->
<g id="edge33" class="edge">
<title>Node29&#45;&gt;Node13</title>
<path fill="none" stroke="midnightblue" d="M164.06,-235.46C122.56,-227.91 70.87,-215.53 57,-199 15.92,-150.07 26.95,-66.72 34.56,-29.68"/>
<polygon fill="midnightblue" stroke="midnightblue" points="38.01,-30.29 36.75,-19.77 31.17,-28.78 38.01,-30.29"/>
</g>
<!-- Node29&#45;&gt;Node30 -->
<g id="edge30" class="edge">
<title>Node29&#45;&gt;Node30</title>
<path fill="none" stroke="midnightblue" d="M237.19,-235.32C254.35,-226.66 280.95,-213.24 300.75,-203.25"/>
<polygon fill="midnightblue" stroke="midnightblue" points="302.5,-206.28 309.85,-198.65 299.35,-200.04 302.5,-206.28"/>
</g>
<!-- Node31 -->
<g id="node31" class="node">
<title>Node31</title>
<g id="a_node31"><a xlink:title=" ">
<polygon fill="none" stroke="#bfbfbf" points="66,-179.5 66,-198.5 192,-198.5 192,-179.5 66,-179.5"/>
<text text-anchor="middle" x="129" y="-186.5" font-family="Helvetica,sans-Serif" font-size="10.00">opus/opus_multistream.h</text>
</a>
</g>
</g>
<!-- Node29&#45;&gt;Node31 -->
<g id="edge34" class="edge">
<title>Node29&#45;&gt;Node31</title>
<path fill="none" stroke="midnightblue" d="M205.38,-235.32C191.05,-226.82 168.99,-213.73 152.25,-203.8"/>
<polygon fill="midnightblue" stroke="midnightblue" points="153.97,-200.75 143.58,-198.65 150.4,-206.77 153.97,-200.75"/>
</g>
<!-- Node30&#45;&gt;Node2 -->
<g id="edge31" class="edge">
<title>Node30&#45;&gt;Node2</title>
<path fill="none" stroke="midnightblue" d="M406.14,-179.75C409.13,-179.49 412.09,-179.24 415,-179 697.9,-156.08 1034.94,-138.97 1182.95,-131.97"/>
<polygon fill="midnightblue" stroke="midnightblue" points="1183.45,-135.45 1193.27,-131.49 1183.12,-128.46 1183.45,-135.45"/>
</g>
<!-- Node32&#45;&gt;Node2 -->
<g id="edge36" class="edge">
<title>Node32&#45;&gt;Node2</title>
<path fill="none" stroke="midnightblue" d="M1346.62,-459.36C1398.49,-440.08 1511,-388.29 1511,-302 1511,-302 1511,-302 1511,-244 1511,-165.63 1409.04,-140.23 1334.83,-132.12"/>
<polygon fill="midnightblue" stroke="midnightblue" points="1334.85,-128.6 1324.55,-131.09 1334.15,-135.57 1334.85,-128.6"/>
</g>
<!-- Node33 -->
<g id="node33" class="node">
<title>Node33</title>
<g id="a_node33"><a xlink:href="../../d0/db6/a00692.html" target="_top" xlink:title=" ">
<polygon fill="none" stroke="black" points="1248,-403.5 1248,-422.5 1394,-422.5 1394,-403.5 1248,-403.5"/>
<text text-anchor="middle" x="1321" y="-410.5" font-family="Helvetica,sans-Serif" font-size="10.00">discordcoreapi/CoRoutine.hpp</text>
</a>
</g>
</g>
<!-- Node32&#45;&gt;Node33 -->
<g id="edge37" class="edge">
<title>Node32&#45;&gt;Node33</title>
<path fill="none" stroke="midnightblue" d="M1321,-459.08C1321,-452.01 1321,-441.86 1321,-432.99"/>
<polygon fill="midnightblue" stroke="midnightblue" points="1324.5,-432.75 1321,-422.75 1317.5,-432.75 1324.5,-432.75"/>
</g>
<!-- Node33&#45;&gt;Node2 -->
<g id="edge38" class="edge">
<title>Node33&#45;&gt;Node2</title>
<path fill="none" stroke="midnightblue" d="M1355.87,-403.4C1400.75,-390 1473,-359.49 1473,-302 1473,-302 1473,-302 1473,-244 1473,-179.31 1396.34,-150.68 1334.79,-138.12"/>
<polygon fill="midnightblue" stroke="midnightblue" points="1335.14,-134.63 1324.66,-136.17 1333.82,-141.5 1335.14,-134.63"/>
</g>
<!-- Node33&#45;&gt;Node34 -->
<g id="edge39" class="edge">
<title>Node33&#45;&gt;Node34</title>
<path fill="none" stroke="midnightblue" d="M1306.86,-403.32C1293.13,-394.9 1272.06,-381.97 1255.94,-372.07"/>
<polygon fill="midnightblue" stroke="midnightblue" points="1257.46,-368.9 1247.1,-366.65 1253.8,-374.87 1257.46,-368.9"/>
</g>
<!-- Node34&#45;&gt;Node2 -->
<g id="edge40" class="edge">
<title>Node34&#45;&gt;Node2</title>
<path fill="none" stroke="midnightblue" d="M1251.65,-347.39C1291.41,-327.8 1383.47,-275.6 1415,-199 1430.95,-160.26 1382.02,-142.8 1334.84,-134.94"/>
<polygon fill="midnightblue" stroke="midnightblue" points="1335.24,-131.46 1324.82,-133.41 1334.18,-138.38 1335.24,-131.46"/>
</g>
<!-- Node35 -->
<g id="node35" class="node">
<title>Node35</title>
<g id="a_node35"><a xlink:href="../../db/d7c/a00722.html" target="_top" xlink:title=" ">
<polygon fill="none" stroke="black" points="1170.5,-291.5 1170.5,-310.5 1295.5,-310.5 1295.5,-291.5 1170.5,-291.5"/>
<text text-anchor="middle" x="1233" y="-298.5" font-family="Helvetica,sans-Serif" font-size="10.00">discordcoreapi/Https.hpp</text>
</a>
</g>
</g>
<!-- Node34&#45;&gt;Node35 -->
<g id="edge41" class="edge">
<title>Node34&#45;&gt;Node35</title>
<path fill="none" stroke="midnightblue" d="M1233,-347.08C1233,-340.01 1233,-329.86 1233,-320.99"/>
<polygon fill="midnightblue" stroke="midnightblue" points="1236.5,-320.75 1233,-310.75 1229.5,-320.75 1236.5,-320.75"/>
</g>
<!-- Node49 -->
<g id="node49" class="node">
<title>Node49</title>
<g id="a_node49"><a xlink:title=" ">
<polygon fill="none" stroke="#bfbfbf" points="1096,-291.5 1096,-310.5 1152,-310.5 1152,-291.5 1096,-291.5"/>
<text text-anchor="middle" x="1124" y="-298.5" font-family="Helvetica,sans-Serif" font-size="10.00">coroutine</text>
</a>
</g>
</g>
<!-- Node34&#45;&gt;Node49 -->
<g id="edge57" class="edge">
<title>Node34&#45;&gt;Node49</title>
<path fill="none" stroke="midnightblue" d="M1215.49,-347.32C1197.93,-338.62 1170.67,-325.12 1150.47,-315.11"/>
<polygon fill="midnightblue" stroke="midnightblue" points="1151.98,-311.96 1141.47,-310.65 1148.88,-318.23 1151.98,-311.96"/>
</g>
<!-- Node35&#45;&gt;Node36 -->
<g id="edge42" class="edge">
<title>Node35&#45;&gt;Node36</title>
<path fill="none" stroke="midnightblue" d="M1192.28,-291.44C1147.35,-282 1075,-266.8 1026.5,-256.61"/>
<polygon fill="midnightblue" stroke="midnightblue" points="1027.04,-253.15 1016.53,-254.52 1025.6,-260 1027.04,-253.15"/>
</g>
<!-- Node36&#45;&gt;Node2 -->
<g id="edge43" class="edge">
<title>Node36&#45;&gt;Node2</title>
<path fill="none" stroke="midnightblue" d="M992.87,-235.38C1010.59,-226.33 1039.26,-211.67 1064,-199 1081.34,-190.12 1085.01,-186.47 1103,-179 1134.06,-166.11 1169.68,-154.36 1199.03,-145.44"/>
<polygon fill="midnightblue" stroke="midnightblue" points="1200.16,-148.76 1208.73,-142.53 1198.15,-142.05 1200.16,-148.76"/>
</g>
<!-- Node36&#45;&gt;Node30 -->
<g id="edge44" class="edge">
<title>Node36&#45;&gt;Node30</title>
<path fill="none" stroke="midnightblue" d="M900.64,-238.48C794.91,-230.62 596.23,-215.42 416.33,-199.1"/>
<polygon fill="midnightblue" stroke="midnightblue" points="416.42,-195.6 406.15,-198.18 415.79,-202.57 416.42,-195.6"/>
</g>
<!-- Node37 -->
<g id="node37" class="node">
<title>Node37</title>
<g id="a_node37"><a xlink:title=" ">
<polygon fill="none" stroke="#bfbfbf" points="1112.5,-179.5 1112.5,-198.5 1185.5,-198.5 1185.5,-179.5 1112.5,-179.5"/>
<text text-anchor="middle" x="1149" y="-186.5" font-family="Helvetica,sans-Serif" font-size="10.00">openssl/err.h</text>
</a>
</g>
</g>
<!-- Node36&#45;&gt;Node37 -->
<g id="edge45" class="edge">
<title>Node36&#45;&gt;Node37</title>
<path fill="none" stroke="midnightblue" d="M1003.41,-235.44C1032.77,-226.28 1079.52,-211.69 1112.1,-201.52"/>
<polygon fill="midnightblue" stroke="midnightblue" points="1113.21,-204.84 1121.72,-198.52 1111.13,-198.16 1113.21,-204.84"/>
</g>
<!-- Node38 -->
<g id="node38" class="node">
<title>Node38</title>
<g id="a_node38"><a xlink:title=" ">
<polygon fill="none" stroke="#bfbfbf" points="1204,-179.5 1204,-198.5 1278,-198.5 1278,-179.5 1204,-179.5"/>
<text text-anchor="middle" x="1241" y="-186.5" font-family="Helvetica,sans-Serif" font-size="10.00">openssl/ssl.h</text>
</a>
</g>
</g>
<!-- Node36&#45;&gt;Node38 -->
<g id="edge46" class="edge">
<title>Node36&#45;&gt;Node38</title>
<path fill="none" stroke="midnightblue" d="M1017.99,-235.44C1065.91,-225.68 1144.1,-209.75 1194.01,-199.57"/>
<polygon fill="midnightblue" stroke="midnightblue" points="1194.81,-202.98 1203.91,-197.56 1193.41,-196.13 1194.81,-202.98"/>
</g>
<!-- Node39 -->
<g id="node39" class="node">
<title>Node39</title>
<g id="a_node39"><a xlink:title=" ">
<polygon fill="none" stroke="#bfbfbf" points="1296.5,-179.5 1296.5,-198.5 1339.5,-198.5 1339.5,-179.5 1296.5,-179.5"/>
<text text-anchor="middle" x="1318" y="-186.5" font-family="Helvetica,sans-Serif" font-size="10.00">fcntl.h</text>
</a>
</g>
</g>
<!-- Node36&#45;&gt;Node39 -->
<g id="edge47" class="edge">
<title>Node36&#45;&gt;Node39</title>
<path fill="none" stroke="midnightblue" d="M1051.3,-236.07C1112.26,-228.97 1200.45,-217.17 1286.48,-198.83"/>
<polygon fill="midnightblue" stroke="midnightblue" points="1287.38,-202.22 1296.42,-196.68 1285.9,-195.37 1287.38,-202.22"/>
</g>
<!-- Node40 -->
<g id="node40" class="node">
<title>Node40</title>
<g id="a_node40"><a xlink:title=" ">
<polygon fill="none" stroke="#bfbfbf" points="1357.5,-179.5 1357.5,-198.5 1406.5,-198.5 1406.5,-179.5 1357.5,-179.5"/>
<text text-anchor="middle" x="1382" y="-186.5" font-family="Helvetica,sans-Serif" font-size="10.00">netdb.h</text>
</a>
</g>
</g>
<!-- Node36&#45;&gt;Node40 -->
<g id="edge48" class="edge">
<title>Node36&#45;&gt;Node40</title>
<path fill="none" stroke="midnightblue" d="M1051.29,-237.97C1124.48,-231.41 1238.91,-219.31 1347.1,-198.92"/>
<polygon fill="midnightblue" stroke="midnightblue" points="1348.04,-202.3 1357.21,-196.99 1346.73,-195.43 1348.04,-202.3"/>
</g>
<!-- Node41 -->
<g id="node41" class="node">
<title>Node41</title>
<g id="a_node41"><a xlink:title=" ">
<polygon fill="none" stroke="#bfbfbf" points="424.5,-179.5 424.5,-198.5 489.5,-198.5 489.5,-179.5 424.5,-179.5"/>
<text text-anchor="middle" x="457" y="-186.5" font-family="Helvetica,sans-Serif" font-size="10.00">netinet/in.h</text>
</a>
</g>
</g>
<!-- Node36&#45;&gt;Node41 -->
<g id="edge49" class="edge">
<title>Node36&#45;&gt;Node41</title>
<path fill="none" stroke="midnightblue" d="M900.72,-239.77C808.37,-233.93 646.9,-221.66 499.73,-199.11"/>
<polygon fill="midnightblue" stroke="midnightblue" points="500.02,-195.61 489.61,-197.53 498.95,-202.53 500.02,-195.61"/>
</g>
<!-- Node42 -->
<g id="node42" class="node">
<title>Node42</title>
<g id="a_node42"><a xlink:title=" ">
<polygon fill="none" stroke="#bfbfbf" points="507.5,-179.5 507.5,-198.5 578.5,-198.5 578.5,-179.5 507.5,-179.5"/>
<text text-anchor="middle" x="543" y="-186.5" font-family="Helvetica,sans-Serif" font-size="10.00">netinet/tcp.h</text>
</a>
</g>
</g>
<!-- Node36&#45;&gt;Node42 -->
<g id="edge50" class="edge">
<title>Node36&#45;&gt;Node42</title>
<path fill="none" stroke="midnightblue" d="M900.8,-237.25C824.48,-229.95 702.72,-217.11 588.9,-199.2"/>
<polygon fill="midnightblue" stroke="midnightblue" points="589.4,-195.74 578.97,-197.62 588.3,-202.65 589.4,-195.74"/>
</g>
<!-- Node43 -->
<g id="node43" class="node">
<title>Node43</title>
<g id="a_node43"><a xlink:title=" ">
<polygon fill="none" stroke="#bfbfbf" points="596.5,-179.5 596.5,-198.5 645.5,-198.5 645.5,-179.5 596.5,-179.5"/>
<text text-anchor="middle" x="621" y="-186.5" font-family="Helvetica,sans-Serif" font-size="10.00">stdint.h</text>
</a>
</g>
</g>
<!-- Node36&#45;&gt;Node43 -->
<g id="edge51" class="edge">
<title>Node36&#45;&gt;Node43</title>
<path fill="none" stroke="midnightblue" d="M900.98,-236.05C838.01,-228.79 745.55,-216.76 655.87,-198.96"/>
<polygon fill="midnightblue" stroke="midnightblue" points="656.3,-195.47 645.8,-196.93 654.91,-202.34 656.3,-195.47"/>
</g>
<!-- Node44 -->
<g id="node44" class="node">
<title>Node44</title>
<g id="a_node44"><a xlink:title=" ">
<polygon fill="none" stroke="#bfbfbf" points="664,-179.5 664,-198.5 728,-198.5 728,-179.5 664,-179.5"/>
<text text-anchor="middle" x="696" y="-186.5" font-family="Helvetica,sans-Serif" font-size="10.00">sys/epoll.h</text>
</a>
</g>
</g>
<!-- Node36&#45;&gt;Node44 -->
<g id="edge52" class="edge">
<title>Node36&#45;&gt;Node44</title>
<path fill="none" stroke="midnightblue" d="M928.3,-235.45C882.17,-227.09 810.04,-213.76 738.32,-199.22"/>
<polygon fill="midnightblue" stroke="midnightblue" points="738.71,-195.73 728.21,-197.17 737.31,-202.59 738.71,-195.73"/>
</g>
<!-- Node45 -->
<g id="node45" class="node">
<title>Node45</title>
<g id="a_node45"><a xlink:title=" ">
<polygon fill="none" stroke="#bfbfbf" points="746,-179.5 746,-198.5 808,-198.5 808,-179.5 746,-179.5"/>
<text text-anchor="middle" x="777" y="-186.5" font-family="Helvetica,sans-Serif" font-size="10.00">arpa/inet.h</text>
</a>
</g>
</g>
<!-- Node36&#45;&gt;Node45 -->
<g id="edge53" class="edge">
<title>Node36&#45;&gt;Node45</title>
<path fill="none" stroke="midnightblue" d="M944.47,-235.44C910.31,-226.17 855.67,-211.35 818.15,-201.17"/>
<polygon fill="midnightblue" stroke="midnightblue" points="818.62,-197.67 808.06,-198.43 816.79,-204.42 818.62,-197.67"/>
</g>
<!-- Node46 -->
<g id="node46" class="node">
<title>Node46</title>
<g id="a_node46"><a xlink:title=" ">
<polygon fill="none" stroke="#bfbfbf" points="826.5,-179.5 826.5,-198.5 899.5,-198.5 899.5,-179.5 826.5,-179.5"/>
<text text-anchor="middle" x="863" y="-186.5" font-family="Helvetica,sans-Serif" font-size="10.00">sys/socket.h</text>
</a>
</g>
</g>
<!-- Node36&#45;&gt;Node46 -->
<g id="edge54" class="edge">
<title>Node36&#45;&gt;Node46</title>
<path fill="none" stroke="midnightblue" d="M958.09,-235.44C939.75,-226.68 910.99,-212.94 889.91,-202.86"/>
<polygon fill="midnightblue" stroke="midnightblue" points="891.35,-199.67 880.82,-198.52 888.33,-205.99 891.35,-199.67"/>
</g>
<!-- Node47 -->
<g id="node47" class="node">
<title>Node47</title>
<g id="a_node47"><a xlink:title=" ">
<polygon fill="none" stroke="#bfbfbf" points="918,-179.5 918,-198.5 986,-198.5 986,-179.5 918,-179.5"/>
<text text-anchor="middle" x="952" y="-186.5" font-family="Helvetica,sans-Serif" font-size="10.00">sys/types.h</text>
</a>
</g>
</g>
<!-- Node36&#45;&gt;Node47 -->
<g id="edge55" class="edge">
<title>Node36&#45;&gt;Node47</title>
<path fill="none" stroke="midnightblue" d="M972.04,-235.08C968.79,-227.77 964.08,-217.18 960.05,-208.1"/>
<polygon fill="midnightblue" stroke="midnightblue" points="963.15,-206.47 955.89,-198.75 956.75,-209.31 963.15,-206.47"/>
</g>
<!-- Node48 -->
<g id="node48" class="node">
<title>Node48</title>
<g id="a_node48"><a xlink:title=" ">
<polygon fill="none" stroke="#bfbfbf" points="1004.5,-179.5 1004.5,-198.5 1055.5,-198.5 1055.5,-179.5 1004.5,-179.5"/>
<text text-anchor="middle" x="1030" y="-186.5" font-family="Helvetica,sans-Serif" font-size="10.00">unistd.h</text>
</a>
</g>
</g>
<!-- Node36&#45;&gt;Node48 -->
<g id="edge56" class="edge">
<title>Node36&#45;&gt;Node48</title>
<path fill="none" stroke="midnightblue" d="M984.92,-235.08C992.78,-227.22 1004.43,-215.57 1013.92,-206.08"/>
<polygon fill="midnightblue" stroke="midnightblue" points="1016.65,-208.3 1021.25,-198.75 1011.7,-203.35 1016.65,-208.3"/>
</g>
<!-- Node50&#45;&gt;Node2 -->
<g id="edge59" class="edge">
<title>Node50&#45;&gt;Node2</title>
<path fill="none" stroke="midnightblue" d="M1549,-403.44C1549,-384.94 1549,-339.81 1549,-302 1549,-302 1549,-302 1549,-244 1549,-213.2 1548.51,-198.89 1525,-179 1496.84,-155.17 1403.24,-141.58 1335.01,-134.63"/>
<polygon fill="midnightblue" stroke="midnightblue" points="1335.01,-131.11 1324.72,-133.61 1334.32,-138.08 1335.01,-131.11"/>
</g>
</g>
</svg>
