<?xml version="1.0" encoding="UTF-8" standalone="no"?>
<!DOCTYPE svg PUBLIC "-//W3C//DTD SVG 1.1//EN"
 "http://www.w3.org/Graphics/SVG/1.1/DTD/svg11.dtd">
<!-- Generated by graphviz version 3.0.0 (20220226.1711)
 -->
<!-- Title: UserEntities.hpp Pages: 1 -->
<svg width="1925pt" height="610pt"
 viewBox="0.00 0.00 1924.68 610.00" xmlns="http://www.w3.org/2000/svg" xmlns:xlink="http://www.w3.org/1999/xlink">
<g id="graph0" class="graph" transform="scale(1 1) rotate(0) translate(4 606)">
<title>UserEntities.hpp</title>
<!-- Node1 -->
<g id="node1" class="node">
<title>Node1</title>
<g id="a_node1"><a xlink:title=" ">
<polygon fill="#bfbfbf" stroke="black" points="478.68,-582.5 478.68,-601.5 567.68,-601.5 567.68,-582.5 478.68,-582.5"/>
<text text-anchor="middle" x="523.18" y="-589.5" font-family="Helvetica,sans-Serif" font-size="10.00">UserEntities.hpp</text>
</a>
</g>
</g>
<!-- Node2 -->
<g id="node2" class="node">
<title>Node2</title>
<g id="a_node2"><a xlink:href="../../d4/deb/a00710.html" target="_top" xlink:title=" ">
<polygon fill="none" stroke="black" points="1277.68,-112.5 1277.68,-142.5 1408.68,-142.5 1408.68,-112.5 1277.68,-112.5"/>
<text text-anchor="start" x="1285.68" y="-130.5" font-family="Helvetica,sans-Serif" font-size="10.00">discordcoreapi/Foundation</text>
<text text-anchor="middle" x="1343.18" y="-119.5" font-family="Helvetica,sans-Serif" font-size="10.00">Entities.hpp</text>
</a>
</g>
</g>
<!-- Node1&#45;&gt;Node2 -->
<g id="edge1" class="edge">
<title>Node1&#45;&gt;Node2</title>
<path fill="none" stroke="midnightblue" d="M478.68,-590.15C352.44,-586.53 1.18,-567.68 1.18,-470 1.18,-470 1.18,-470 1.18,-244 1.18,-213.9 -3.55,-197.51 20.18,-179 69.54,-140.52 992.74,-130.96 1266.99,-128.97"/>
<polygon fill="midnightblue" stroke="midnightblue" points="1267.27,-132.46 1277.24,-128.89 1267.22,-125.47 1267.27,-132.46"/>
</g>
<!-- Node28 -->
<g id="node28" class="node">
<title>Node28</title>
<g id="a_node28"><a xlink:href="../../d9/dd4/a00776.html" target="_top" xlink:title=" ">
<polygon fill="none" stroke="black" points="1105.18,-515.5 1105.18,-545.5 1239.18,-545.5 1239.18,-515.5 1105.18,-515.5"/>
<text text-anchor="start" x="1113.18" y="-533.5" font-family="Helvetica,sans-Serif" font-size="10.00">discordcoreapi/WebSocket</text>
<text text-anchor="middle" x="1172.18" y="-522.5" font-family="Helvetica,sans-Serif" font-size="10.00">Entities.hpp</text>
</a>
</g>
</g>
<!-- Node1&#45;&gt;Node28 -->
<g id="edge27" class="edge">
<title>Node1&#45;&gt;Node28</title>
<path fill="none" stroke="midnightblue" d="M567.79,-586.91C676.89,-576.91 958.26,-551.11 1095.12,-538.56"/>
<polygon fill="midnightblue" stroke="midnightblue" points="1095.49,-542.05 1105.12,-537.65 1094.85,-535.08 1095.49,-542.05"/>
</g>
<!-- Node3 -->
<g id="node3" class="node">
<title>Node3</title>
<g id="a_node3"><a xlink:href="../../d5/dae/a00767.html" target="_top" xlink:title=" ">
<polygon fill="none" stroke="black" points="1112.18,-56.5 1112.18,-75.5 1246.18,-75.5 1246.18,-56.5 1112.18,-56.5"/>
<text text-anchor="middle" x="1179.18" y="-63.5" font-family="Helvetica,sans-Serif" font-size="10.00">discordcoreapi/Utilities.hpp</text>
</a>
</g>
</g>
<!-- Node2&#45;&gt;Node3 -->
<g id="edge2" class="edge">
<title>Node2&#45;&gt;Node3</title>
<path fill="none" stroke="midnightblue" d="M1304.32,-112.4C1276.43,-102.28 1239.24,-88.79 1212.67,-79.15"/>
<polygon fill="midnightblue" stroke="midnightblue" points="1213.64,-75.78 1203.05,-75.66 1211.25,-82.36 1213.64,-75.78"/>
</g>
<!-- Node4 -->
<g id="node4" class="node">
<title>Node4</title>
<g id="a_node4"><a xlink:title=" ">
<polygon fill="none" stroke="#bfbfbf" points="1776.68,-0.5 1776.68,-19.5 1833.68,-19.5 1833.68,-0.5 1776.68,-0.5"/>
<text text-anchor="middle" x="1805.18" y="-7.5" font-family="Helvetica,sans-Serif" font-size="10.00">pthread.h</text>
</a>
</g>
</g>
<!-- Node3&#45;&gt;Node4 -->
<g id="edge3" class="edge">
<title>Node3&#45;&gt;Node4</title>
<path fill="none" stroke="midnightblue" d="M1246.6,-63.26C1354.43,-59.73 1572.42,-49.5 1766.54,-19.83"/>
<polygon fill="midnightblue" stroke="midnightblue" points="1767.3,-23.25 1776.64,-18.26 1766.23,-16.34 1767.3,-23.25"/>
</g>
<!-- Node5 -->
<g id="node5" class="node">
<title>Node5</title>
<g id="a_node5"><a xlink:title=" ">
<polygon fill="none" stroke="#bfbfbf" points="128.18,-0.5 128.18,-19.5 190.18,-19.5 190.18,-0.5 128.18,-0.5"/>
<text text-anchor="middle" x="159.18" y="-7.5" font-family="Helvetica,sans-Serif" font-size="10.00">sys/time.h</text>
</a>
</g>
</g>
<!-- Node3&#45;&gt;Node5 -->
<g id="edge4" class="edge">
<title>Node3&#45;&gt;Node5</title>
<path fill="none" stroke="midnightblue" d="M1112.12,-63.45C924.39,-58.89 395.26,-44.32 200.65,-19.92"/>
<polygon fill="midnightblue" stroke="midnightblue" points="200.9,-16.42 190.53,-18.6 200,-23.36 200.9,-16.42"/>
</g>
<!-- Node6 -->
<g id="node6" class="node">
<title>Node6</title>
<g id="a_node6"><a xlink:title=" ">
<polygon fill="none" stroke="#bfbfbf" points="208.18,-0.5 208.18,-19.5 252.18,-19.5 252.18,-0.5 208.18,-0.5"/>
<text text-anchor="middle" x="230.18" y="-7.5" font-family="Helvetica,sans-Serif" font-size="10.00">time.h</text>
</a>
</g>
</g>
<!-- Node3&#45;&gt;Node6 -->
<g id="edge5" class="edge">
<title>Node3&#45;&gt;Node6</title>
<path fill="none" stroke="midnightblue" d="M1112.06,-63.74C932.58,-60.06 443.56,-47.86 262.33,-19.73"/>
<polygon fill="midnightblue" stroke="midnightblue" points="262.82,-16.27 252.39,-18.12 261.7,-23.18 262.82,-16.27"/>
</g>
<!-- Node7 -->
<g id="node7" class="node">
<title>Node7</title>
<g id="a_node7"><a xlink:title=" ">
<polygon fill="none" stroke="#bfbfbf" points="270.68,-0.5 270.68,-19.5 311.68,-19.5 311.68,-0.5 270.68,-0.5"/>
<text text-anchor="middle" x="291.18" y="-7.5" font-family="Helvetica,sans-Serif" font-size="10.00">ctime</text>
</a>
</g>
</g>
<!-- Node3&#45;&gt;Node7 -->
<g id="edge6" class="edge">
<title>Node3&#45;&gt;Node7</title>
<path fill="none" stroke="midnightblue" d="M1111.96,-63.64C940.74,-59.82 490.4,-47.58 321.91,-19.84"/>
<polygon fill="midnightblue" stroke="midnightblue" points="322.39,-16.37 311.94,-18.12 321.2,-23.27 322.39,-16.37"/>
</g>
<!-- Node8 -->
<g id="node8" class="node">
<title>Node8</title>
<g id="a_node8"><a xlink:title=" ">
<polygon fill="none" stroke="#bfbfbf" points="329.68,-0.5 329.68,-19.5 422.68,-19.5 422.68,-0.5 329.68,-0.5"/>
<text text-anchor="middle" x="376.18" y="-7.5" font-family="Helvetica,sans-Serif" font-size="10.00">condition_variable</text>
</a>
</g>
</g>
<!-- Node3&#45;&gt;Node8 -->
<g id="edge7" class="edge">
<title>Node3&#45;&gt;Node8</title>
<path fill="none" stroke="midnightblue" d="M1112.03,-63.19C982.71,-59.21 689.92,-47.84 433.16,-19.99"/>
<polygon fill="midnightblue" stroke="midnightblue" points="433.21,-16.47 422.89,-18.86 432.45,-23.43 433.21,-16.47"/>
</g>
<!-- Node9 -->
<g id="node9" class="node">
<title>Node9</title>
<g id="a_node9"><a xlink:title=" ">
<polygon fill="none" stroke="#bfbfbf" points="441.18,-0.5 441.18,-19.5 539.18,-19.5 539.18,-0.5 441.18,-0.5"/>
<text text-anchor="middle" x="490.18" y="-7.5" font-family="Helvetica,sans-Serif" font-size="10.00">nlohmann/json.hpp</text>
</a>
</g>
</g>
<!-- Node3&#45;&gt;Node9 -->
<g id="edge8" class="edge">
<title>Node3&#45;&gt;Node9</title>
<path fill="none" stroke="midnightblue" d="M1111.78,-62.03C997.99,-56.61 760.38,-43.55 549.23,-20.02"/>
<polygon fill="midnightblue" stroke="midnightblue" points="549.52,-16.54 539.19,-18.9 548.74,-23.49 549.52,-16.54"/>
</g>
<!-- Node10 -->
<g id="node10" class="node">
<title>Node10</title>
<g id="a_node10"><a xlink:title=" ">
<polygon fill="none" stroke="#bfbfbf" points="557.68,-0.5 557.68,-19.5 642.68,-19.5 642.68,-0.5 557.68,-0.5"/>
<text text-anchor="middle" x="600.18" y="-7.5" font-family="Helvetica,sans-Serif" font-size="10.00">source_location</text>
</a>
</g>
</g>
<!-- Node3&#45;&gt;Node10 -->
<g id="edge9" class="edge">
<title>Node3&#45;&gt;Node10</title>
<path fill="none" stroke="midnightblue" d="M1111.88,-61.2C1013.25,-55.21 823.47,-42.05 652.64,-20.09"/>
<polygon fill="midnightblue" stroke="midnightblue" points="653.08,-16.62 642.72,-18.8 652.18,-23.56 653.08,-16.62"/>
</g>
<!-- Node11 -->
<g id="node11" class="node">
<title>Node11</title>
<g id="a_node11"><a xlink:title=" ">
<polygon fill="none" stroke="#bfbfbf" points="660.68,-0.5 660.68,-19.5 743.68,-19.5 743.68,-0.5 660.68,-0.5"/>
<text text-anchor="middle" x="702.18" y="-7.5" font-family="Helvetica,sans-Serif" font-size="10.00">unordered_map</text>
</a>
</g>
</g>
<!-- Node3&#45;&gt;Node11 -->
<g id="edge10" class="edge">
<title>Node3&#45;&gt;Node11</title>
<path fill="none" stroke="midnightblue" d="M1111.86,-59.34C1029.8,-52.12 886.68,-38.48 753.85,-20"/>
<polygon fill="midnightblue" stroke="midnightblue" points="754.28,-16.53 743.89,-18.6 753.31,-23.46 754.28,-16.53"/>
</g>
<!-- Node12 -->
<g id="node12" class="node">
<title>Node12</title>
<g id="a_node12"><a xlink:title=" ">
<polygon fill="none" stroke="#bfbfbf" points="762.18,-0.5 762.18,-19.5 840.18,-19.5 840.18,-0.5 762.18,-0.5"/>
<text text-anchor="middle" x="801.18" y="-7.5" font-family="Helvetica,sans-Serif" font-size="10.00">shared_mutex</text>
</a>
</g>
</g>
<!-- Node3&#45;&gt;Node12 -->
<g id="edge11" class="edge">
<title>Node3&#45;&gt;Node12</title>
<path fill="none" stroke="midnightblue" d="M1112.04,-56.84C1047.48,-48.77 946.89,-35.6 850.14,-20.09"/>
<polygon fill="midnightblue" stroke="midnightblue" points="850.62,-16.62 840.19,-18.48 849.5,-23.53 850.62,-16.62"/>
</g>
<!-- Node13 -->
<g id="node13" class="node">
<title>Node13</title>
<g id="a_node13"><a xlink:title=" ">
<polygon fill="none" stroke="#bfbfbf" points="858.18,-0.5 858.18,-19.5 916.18,-19.5 916.18,-0.5 858.18,-0.5"/>
<text text-anchor="middle" x="887.18" y="-7.5" font-family="Helvetica,sans-Serif" font-size="10.00">functional</text>
</a>
</g>
</g>
<!-- Node3&#45;&gt;Node13 -->
<g id="edge12" class="edge">
<title>Node3&#45;&gt;Node13</title>
<path fill="none" stroke="midnightblue" d="M1125.99,-56.49C1076.69,-48.39 1001.1,-35.46 926.26,-20.13"/>
<polygon fill="midnightblue" stroke="midnightblue" points="926.69,-16.64 916.19,-18.05 925.28,-23.5 926.69,-16.64"/>
</g>
<!-- Node14 -->
<g id="node14" class="node">
<title>Node14</title>
<g id="a_node14"><a xlink:title=" ">
<polygon fill="none" stroke="#bfbfbf" points="934.18,-0.5 934.18,-19.5 990.18,-19.5 990.18,-0.5 934.18,-0.5"/>
<text text-anchor="middle" x="962.18" y="-7.5" font-family="Helvetica,sans-Serif" font-size="10.00">coroutine</text>
</a>
</g>
</g>
<!-- Node3&#45;&gt;Node14 -->
<g id="edge13" class="edge">
<title>Node3&#45;&gt;Node14</title>
<path fill="none" stroke="midnightblue" d="M1144.8,-56.44C1105.36,-46.63 1040.89,-30.59 1000.04,-20.42"/>
<polygon fill="midnightblue" stroke="midnightblue" points="1000.75,-16.99 990.2,-17.97 999.06,-23.78 1000.75,-16.99"/>
</g>
<!-- Node15 -->
<g id="node15" class="node">
<title>Node15</title>
<g id="a_node15"><a xlink:title=" ">
<polygon fill="none" stroke="#bfbfbf" points="1851.68,-0.5 1851.68,-19.5 1916.68,-19.5 1916.68,-0.5 1851.68,-0.5"/>
<text text-anchor="middle" x="1884.18" y="-7.5" font-family="Helvetica,sans-Serif" font-size="10.00">semaphore</text>
</a>
</g>
</g>
<!-- Node3&#45;&gt;Node15 -->
<g id="edge14" class="edge">
<title>Node3&#45;&gt;Node15</title>
<path fill="none" stroke="midnightblue" d="M1246.33,-63.62C1364.66,-60.49 1618.12,-50.68 1841.31,-19.91"/>
<polygon fill="midnightblue" stroke="midnightblue" points="1841.83,-23.37 1851.25,-18.52 1840.86,-16.44 1841.83,-23.37"/>
</g>
<!-- Node16 -->
<g id="node16" class="node">
<title>Node16</title>
<g id="a_node16"><a xlink:title=" ">
<polygon fill="none" stroke="#bfbfbf" points="1008.18,-0.5 1008.18,-19.5 1064.18,-19.5 1064.18,-0.5 1008.18,-0.5"/>
<text text-anchor="middle" x="1036.18" y="-7.5" font-family="Helvetica,sans-Serif" font-size="10.00">concepts</text>
</a>
</g>
</g>
<!-- Node3&#45;&gt;Node16 -->
<g id="edge15" class="edge">
<title>Node3&#45;&gt;Node16</title>
<path fill="none" stroke="midnightblue" d="M1156.52,-56.44C1132.78,-47.48 1095.27,-33.31 1068.45,-23.18"/>
<polygon fill="midnightblue" stroke="midnightblue" points="1069.33,-19.77 1058.74,-19.52 1066.86,-26.32 1069.33,-19.77"/>
</g>
<!-- Node17 -->
<g id="node17" class="node">
<title>Node17</title>
<g id="a_node17"><a xlink:title=" ">
<polygon fill="none" stroke="#bfbfbf" points="1082.18,-0.5 1082.18,-19.5 1136.18,-19.5 1136.18,-0.5 1082.18,-0.5"/>
<text text-anchor="middle" x="1109.18" y="-7.5" font-family="Helvetica,sans-Serif" font-size="10.00">iostream</text>
</a>
</g>
</g>
<!-- Node3&#45;&gt;Node17 -->
<g id="edge16" class="edge">
<title>Node3&#45;&gt;Node17</title>
<path fill="none" stroke="midnightblue" d="M1167.94,-56.32C1157.39,-48.18 1141.38,-35.84 1128.74,-26.09"/>
<polygon fill="midnightblue" stroke="midnightblue" points="1130.69,-23.17 1120.64,-19.83 1126.42,-28.71 1130.69,-23.17"/>
</g>
<!-- Node18 -->
<g id="node18" class="node">
<title>Node18</title>
<g id="a_node18"><a xlink:title=" ">
<polygon fill="none" stroke="#bfbfbf" points="1154.68,-0.5 1154.68,-19.5 1203.68,-19.5 1203.68,-0.5 1154.68,-0.5"/>
<text text-anchor="middle" x="1179.18" y="-7.5" font-family="Helvetica,sans-Serif" font-size="10.00">fstream</text>
</a>
</g>
</g>
<!-- Node3&#45;&gt;Node18 -->
<g id="edge17" class="edge">
<title>Node3&#45;&gt;Node18</title>
<path fill="none" stroke="midnightblue" d="M1179.18,-56.08C1179.18,-49.01 1179.18,-38.86 1179.18,-29.99"/>
<polygon fill="midnightblue" stroke="midnightblue" points="1182.68,-29.75 1179.18,-19.75 1175.68,-29.75 1182.68,-29.75"/>
</g>
<!-- Node19 -->
<g id="node19" class="node">
<title>Node19</title>
<g id="a_node19"><a xlink:title=" ">
<polygon fill="none" stroke="#bfbfbf" points="1221.68,-0.5 1221.68,-19.5 1262.68,-19.5 1262.68,-0.5 1221.68,-0.5"/>
<text text-anchor="middle" x="1242.18" y="-7.5" font-family="Helvetica,sans-Serif" font-size="10.00">bitset</text>
</a>
</g>
</g>
<!-- Node3&#45;&gt;Node19 -->
<g id="edge18" class="edge">
<title>Node3&#45;&gt;Node19</title>
<path fill="none" stroke="midnightblue" d="M1189.31,-56.32C1198.71,-48.26 1212.93,-36.08 1224.25,-26.37"/>
<polygon fill="midnightblue" stroke="midnightblue" points="1226.56,-29 1231.88,-19.83 1222.01,-23.68 1226.56,-29"/>
</g>
<!-- Node20 -->
<g id="node20" class="node">
<title>Node20</title>
<g id="a_node20"><a xlink:title=" ">
<polygon fill="none" stroke="#bfbfbf" points="1281.18,-0.5 1281.18,-19.5 1333.18,-19.5 1333.18,-0.5 1281.18,-0.5"/>
<text text-anchor="middle" x="1307.18" y="-7.5" font-family="Helvetica,sans-Serif" font-size="10.00">memory</text>
</a>
</g>
</g>
<!-- Node3&#45;&gt;Node20 -->
<g id="edge19" class="edge">
<title>Node3&#45;&gt;Node20</title>
<path fill="none" stroke="midnightblue" d="M1199.47,-56.44C1220.53,-47.56 1253.7,-33.56 1277.67,-23.45"/>
<polygon fill="midnightblue" stroke="midnightblue" points="1279.14,-26.63 1287,-19.52 1276.42,-20.18 1279.14,-26.63"/>
</g>
<!-- Node21 -->
<g id="node21" class="node">
<title>Node21</title>
<g id="a_node21"><a xlink:title=" ">
<polygon fill="none" stroke="#bfbfbf" points="1351.68,-0.5 1351.68,-19.5 1400.68,-19.5 1400.68,-0.5 1351.68,-0.5"/>
<text text-anchor="middle" x="1376.18" y="-7.5" font-family="Helvetica,sans-Serif" font-size="10.00">random</text>
</a>
</g>
</g>
<!-- Node3&#45;&gt;Node21 -->
<g id="edge20" class="edge">
<title>Node3&#45;&gt;Node21</title>
<path fill="none" stroke="midnightblue" d="M1210.4,-56.44C1246.2,-46.63 1304.71,-30.59 1341.8,-20.43"/>
<polygon fill="midnightblue" stroke="midnightblue" points="1342.93,-23.74 1351.65,-17.73 1341.08,-16.99 1342.93,-23.74"/>
</g>
<!-- Node22 -->
<g id="node22" class="node">
<title>Node22</title>
<g id="a_node22"><a xlink:title=" ">
<polygon fill="none" stroke="#bfbfbf" points="1418.68,-0.5 1418.68,-19.5 1459.68,-19.5 1459.68,-0.5 1418.68,-0.5"/>
<text text-anchor="middle" x="1439.18" y="-7.5" font-family="Helvetica,sans-Serif" font-size="10.00">string</text>
</a>
</g>
</g>
<!-- Node3&#45;&gt;Node22 -->
<g id="edge21" class="edge">
<title>Node3&#45;&gt;Node22</title>
<path fill="none" stroke="midnightblue" d="M1230.66,-56.42C1275.28,-48.65 1341.76,-36.27 1408.72,-19.91"/>
<polygon fill="midnightblue" stroke="midnightblue" points="1409.73,-23.26 1418.6,-17.47 1408.05,-16.47 1409.73,-23.26"/>
</g>
<!-- Node23 -->
<g id="node23" class="node">
<title>Node23</title>
<g id="a_node23"><a xlink:title=" ">
<polygon fill="none" stroke="#bfbfbf" points="1478.18,-0.5 1478.18,-19.5 1520.18,-19.5 1520.18,-0.5 1478.18,-0.5"/>
<text text-anchor="middle" x="1499.18" y="-7.5" font-family="Helvetica,sans-Serif" font-size="10.00">vector</text>
</a>
</g>
</g>
<!-- Node3&#45;&gt;Node23 -->
<g id="edge22" class="edge">
<title>Node3&#45;&gt;Node23</title>
<path fill="none" stroke="midnightblue" d="M1246.21,-57.04C1305.08,-49.46 1392.84,-36.73 1468.18,-20 1468.28,-19.98 1468.38,-19.96 1468.48,-19.93"/>
<polygon fill="midnightblue" stroke="midnightblue" points="1469.09,-23.39 1477.93,-17.56 1467.38,-16.6 1469.09,-23.39"/>
</g>
<!-- Node24 -->
<g id="node24" class="node">
<title>Node24</title>
<g id="a_node24"><a xlink:title=" ">
<polygon fill="none" stroke="#bfbfbf" points="1538.18,-0.5 1538.18,-19.5 1582.18,-19.5 1582.18,-0.5 1538.18,-0.5"/>
<text text-anchor="middle" x="1560.18" y="-7.5" font-family="Helvetica,sans-Serif" font-size="10.00">thread</text>
</a>
</g>
</g>
<!-- Node3&#45;&gt;Node24 -->
<g id="edge23" class="edge">
<title>Node3&#45;&gt;Node24</title>
<path fill="none" stroke="midnightblue" d="M1246.47,-59.46C1315.1,-53.12 1424.75,-41.04 1527.97,-19.97"/>
<polygon fill="midnightblue" stroke="midnightblue" points="1528.86,-23.36 1537.94,-17.91 1527.43,-16.51 1528.86,-23.36"/>
</g>
<!-- Node25 -->
<g id="node25" class="node">
<title>Node25</title>
<g id="a_node25"><a xlink:title=" ">
<polygon fill="none" stroke="#bfbfbf" points="1600.18,-0.5 1600.18,-19.5 1644.18,-19.5 1644.18,-0.5 1600.18,-0.5"/>
<text text-anchor="middle" x="1622.18" y="-7.5" font-family="Helvetica,sans-Serif" font-size="10.00">mutex</text>
</a>
</g>
</g>
<!-- Node3&#45;&gt;Node25 -->
<g id="edge24" class="edge">
<title>Node3&#45;&gt;Node25</title>
<path fill="none" stroke="midnightblue" d="M1246.45,-61.25C1326.38,-56 1463.82,-44.42 1590.1,-19.9"/>
<polygon fill="midnightblue" stroke="midnightblue" points="1590.81,-23.33 1599.95,-17.96 1589.46,-16.46 1590.81,-23.33"/>
</g>
<!-- Node26 -->
<g id="node26" class="node">
<title>Node26</title>
<g id="a_node26"><a xlink:title=" ">
<polygon fill="none" stroke="#bfbfbf" points="1662.68,-0.5 1662.68,-19.5 1705.68,-19.5 1705.68,-0.5 1662.68,-0.5"/>
<text text-anchor="middle" x="1684.18" y="-7.5" font-family="Helvetica,sans-Serif" font-size="10.00">queue</text>
</a>
</g>
</g>
<!-- Node3&#45;&gt;Node26 -->
<g id="edge25" class="edge">
<title>Node3&#45;&gt;Node26</title>
<path fill="none" stroke="midnightblue" d="M1246.47,-62.59C1336.88,-58.47 1502.56,-47.82 1652.76,-19.7"/>
<polygon fill="midnightblue" stroke="midnightblue" points="1653.46,-23.13 1662.63,-17.82 1652.15,-16.25 1653.46,-23.13"/>
</g>
<!-- Node27 -->
<g id="node27" class="node">
<title>Node27</title>
<g id="a_node27"><a xlink:title=" ">
<polygon fill="none" stroke="#bfbfbf" points="1723.68,-0.5 1723.68,-19.5 1758.68,-19.5 1758.68,-0.5 1723.68,-0.5"/>
<text text-anchor="middle" x="1741.18" y="-7.5" font-family="Helvetica,sans-Serif" font-size="10.00">map</text>
</a>
</g>
</g>
<!-- Node3&#45;&gt;Node27 -->
<g id="edge26" class="edge">
<title>Node3&#45;&gt;Node27</title>
<path fill="none" stroke="midnightblue" d="M1246.22,-64.45C1346.32,-62.52 1540.67,-54.44 1713.58,-19.58"/>
<polygon fill="midnightblue" stroke="midnightblue" points="1714.54,-22.96 1723.63,-17.52 1713.13,-16.1 1714.54,-22.96"/>
</g>
<!-- Node28&#45;&gt;Node2 -->
<g id="edge60" class="edge">
<title>Node28&#45;&gt;Node2</title>
<path fill="none" stroke="midnightblue" d="M1239.23,-524.01C1399.81,-509.97 1793.18,-469.86 1793.18,-414 1793.18,-414 1793.18,-414 1793.18,-244 1793.18,-167.73 1547.57,-141.11 1419.26,-132.41"/>
<polygon fill="midnightblue" stroke="midnightblue" points="1419.31,-128.91 1409.1,-131.74 1418.85,-135.89 1419.31,-128.91"/>
</g>
<!-- Node29 -->
<g id="node29" class="node">
<title>Node29</title>
<g id="a_node29"><a xlink:href="../../d4/d9b/a00680.html" target="_top" xlink:title=" ">
<polygon fill="none" stroke="black" points="201.18,-235.5 201.18,-254.5 363.18,-254.5 363.18,-235.5 201.18,-235.5"/>
<text text-anchor="middle" x="282.18" y="-242.5" font-family="Helvetica,sans-Serif" font-size="10.00">discordcoreapi/AudioDecoder.hpp</text>
</a>
</g>
</g>
<!-- Node28&#45;&gt;Node29 -->
<g id="edge28" class="edge">
<title>Node28&#45;&gt;Node29</title>
<path fill="none" stroke="midnightblue" d="M1104.92,-530.07C952.34,-529.54 593.18,-517.33 593.18,-414 593.18,-414 593.18,-414 593.18,-356 593.18,-305.01 442.7,-271.73 351.09,-256.2"/>
<polygon fill="midnightblue" stroke="midnightblue" points="351.49,-252.72 341.05,-254.53 350.34,-259.62 351.49,-252.72"/>
</g>
<!-- Node30 -->
<g id="node30" class="node">
<title>Node30</title>
<g id="a_node30"><a xlink:href="../../d4/d6a/a00704.html" target="_top" xlink:title=" ">
<polygon fill="none" stroke="black" points="355.18,-179.5 355.18,-198.5 513.18,-198.5 513.18,-179.5 355.18,-179.5"/>
<text text-anchor="middle" x="434.18" y="-186.5" font-family="Helvetica,sans-Serif" font-size="10.00">discordcoreapi/EventEntities.hpp</text>
</a>
</g>
</g>
<!-- Node28&#45;&gt;Node30 -->
<g id="edge59" class="edge">
<title>Node28&#45;&gt;Node30</title>
<path fill="none" stroke="midnightblue" d="M1105.14,-527.4C972.26,-521.42 688.18,-498.71 688.18,-414 688.18,-414 688.18,-414 688.18,-300 688.18,-255.94 557.86,-218.56 483.91,-200.9"/>
<polygon fill="midnightblue" stroke="midnightblue" points="484.41,-197.42 473.87,-198.54 482.81,-204.23 484.41,-197.42"/>
</g>
<!-- Node33 -->
<g id="node33" class="node">
<title>Node33</title>
<g id="a_node33"><a xlink:href="../../d0/db6/a00692.html" target="_top" xlink:title=" ">
<polygon fill="none" stroke="black" points="1370.68,-459.5 1370.68,-478.5 1557.68,-478.5 1557.68,-459.5 1370.68,-459.5"/>
<text text-anchor="middle" x="1464.18" y="-466.5" font-family="Helvetica,sans-Serif" font-size="10.00">discordcoreapi/CommandController.hpp</text>
</a>
</g>
</g>
<!-- Node28&#45;&gt;Node33 -->
<g id="edge34" class="edge">
<title>Node28&#45;&gt;Node33</title>
<path fill="none" stroke="midnightblue" d="M1239.54,-515.77C1292.22,-505.04 1364.36,-490.34 1412.53,-480.52"/>
<polygon fill="midnightblue" stroke="midnightblue" points="1413.33,-483.93 1422.43,-478.51 1411.94,-477.07 1413.33,-483.93"/>
</g>
<!-- Node35 -->
<g id="node35" class="node">
<title>Node35</title>
<g id="a_node35"><a xlink:href="../../d3/d4f/a00761.html" target="_top" xlink:title=" ">
<polygon fill="none" stroke="black" points="1375.18,-347.5 1375.18,-366.5 1525.18,-366.5 1525.18,-347.5 1375.18,-347.5"/>
<text text-anchor="middle" x="1450.18" y="-354.5" font-family="Helvetica,sans-Serif" font-size="10.00">discordcoreapi/ThreadPool.hpp</text>
</a>
</g>
</g>
<!-- Node28&#45;&gt;Node35 -->
<g id="edge62" class="edge">
<title>Node28&#45;&gt;Node35</title>
<path fill="none" stroke="midnightblue" d="M1194.93,-515.47C1247.18,-483.23 1375.27,-404.21 1427.48,-372.01"/>
<polygon fill="midnightblue" stroke="midnightblue" points="1429.64,-374.79 1436.31,-366.56 1425.96,-368.83 1429.64,-374.79"/>
</g>
<!-- Node37 -->
<g id="node37" class="node">
<title>Node37</title>
<g id="a_node37"><a xlink:href="../../d5/de8/a00749.html" target="_top" xlink:title=" ">
<polygon fill="none" stroke="black" points="1016.18,-235.5 1016.18,-254.5 1166.18,-254.5 1166.18,-235.5 1016.18,-235.5"/>
<text text-anchor="middle" x="1091.18" y="-242.5" font-family="Helvetica,sans-Serif" font-size="10.00">discordcoreapi/SSLClients.hpp</text>
</a>
</g>
</g>
<!-- Node28&#45;&gt;Node37 -->
<g id="edge61" class="edge">
<title>Node28&#45;&gt;Node37</title>
<path fill="none" stroke="midnightblue" d="M1160.47,-515.19C1144.58,-494.3 1118.18,-453.62 1118.18,-414 1118.18,-414 1118.18,-414 1118.18,-356 1118.18,-322.86 1106.48,-285.68 1098.49,-264.14"/>
<polygon fill="midnightblue" stroke="midnightblue" points="1101.69,-262.73 1094.83,-254.66 1095.16,-265.25 1101.69,-262.73"/>
</g>
<!-- Node50 -->
<g id="node50" class="node">
<title>Node50</title>
<g id="a_node50"><a xlink:href="../../dd/d57/a00701.html" target="_top" xlink:title=" ">
<polygon fill="none" stroke="black" points="1621.18,-403.5 1621.18,-422.5 1765.18,-422.5 1765.18,-403.5 1621.18,-403.5"/>
<text text-anchor="middle" x="1693.18" y="-410.5" font-family="Helvetica,sans-Serif" font-size="10.00">discordcoreapi/ErlPacker.hpp</text>
</a>
</g>
</g>
<!-- Node28&#45;&gt;Node50 -->
<g id="edge57" class="edge">
<title>Node28&#45;&gt;Node50</title>
<path fill="none" stroke="midnightblue" d="M1239.19,-527.91C1318.81,-524.44 1454.85,-513.47 1566.18,-479 1605.42,-466.85 1647.11,-443.17 1671.61,-427.99"/>
<polygon fill="midnightblue" stroke="midnightblue" points="1673.52,-430.93 1680.12,-422.64 1669.79,-425 1673.52,-430.93"/>
</g>
<!-- Node29&#45;&gt;Node2 -->
<g id="edge31" class="edge">
<title>Node29&#45;&gt;Node2</title>
<path fill="none" stroke="midnightblue" d="M262.98,-235.46C237.69,-223.1 198.59,-199.49 218.18,-179 254.42,-141.1 1020.06,-131.26 1267.08,-129.06"/>
<polygon fill="midnightblue" stroke="midnightblue" points="1267.43,-132.56 1277.4,-128.97 1267.37,-125.56 1267.43,-132.56"/>
</g>
<!-- Node29&#45;&gt;Node30 -->
<g id="edge29" class="edge">
<title>Node29&#45;&gt;Node30</title>
<path fill="none" stroke="midnightblue" d="M306.27,-235.44C331.73,-226.4 372.08,-212.06 400.64,-201.92"/>
<polygon fill="midnightblue" stroke="midnightblue" points="401.96,-205.16 410.21,-198.52 399.62,-198.57 401.96,-205.16"/>
</g>
<!-- Node31 -->
<g id="node31" class="node">
<title>Node31</title>
<g id="a_node31"><a xlink:title=" ">
<polygon fill="none" stroke="#bfbfbf" points="227.18,-179.5 227.18,-198.5 337.18,-198.5 337.18,-179.5 227.18,-179.5"/>
<text text-anchor="middle" x="282.18" y="-186.5" font-family="Helvetica,sans-Serif" font-size="10.00">libavformat/avformat.h</text>
</a>
</g>
</g>
<!-- Node29&#45;&gt;Node31 -->
<g id="edge32" class="edge">
<title>Node29&#45;&gt;Node31</title>
<path fill="none" stroke="midnightblue" d="M282.18,-235.08C282.18,-228.01 282.18,-217.86 282.18,-208.99"/>
<polygon fill="midnightblue" stroke="midnightblue" points="285.68,-208.75 282.18,-198.75 278.68,-208.75 285.68,-208.75"/>
</g>
<!-- Node32 -->
<g id="node32" class="node">
<title>Node32</title>
<g id="a_node32"><a xlink:title=" ">
<polygon fill="none" stroke="#bfbfbf" points="29.68,-179.5 29.68,-198.5 170.68,-198.5 170.68,-179.5 29.68,-179.5"/>
<text text-anchor="middle" x="100.18" y="-186.5" font-family="Helvetica,sans-Serif" font-size="10.00">libswresample/swresample.h</text>
</a>
</g>
</g>
<!-- Node29&#45;&gt;Node32 -->
<g id="edge33" class="edge">
<title>Node29&#45;&gt;Node32</title>
<path fill="none" stroke="midnightblue" d="M253.35,-235.44C222.33,-226.24 172.85,-211.56 138.57,-201.39"/>
<polygon fill="midnightblue" stroke="midnightblue" points="139.47,-198.01 128.89,-198.52 137.48,-204.72 139.47,-198.01"/>
</g>
<!-- Node30&#45;&gt;Node2 -->
<g id="edge30" class="edge">
<title>Node30&#45;&gt;Node2</title>
<path fill="none" stroke="midnightblue" d="M513.32,-179.75C516.31,-179.49 519.28,-179.24 522.18,-179 796.35,-156.56 1122.76,-139.3 1267.56,-132.13"/>
<polygon fill="midnightblue" stroke="midnightblue" points="1267.85,-135.62 1277.67,-131.63 1267.51,-128.62 1267.85,-135.62"/>
</g>
<!-- Node33&#45;&gt;Node2 -->
<g id="edge56" class="edge">
<title>Node33&#45;&gt;Node2</title>
<path fill="none" stroke="midnightblue" d="M1489.94,-459.4C1542.08,-440.2 1655.18,-388.55 1655.18,-302 1655.18,-302 1655.18,-302 1655.18,-244 1655.18,-208.86 1639.65,-198.14 1610.18,-179 1579.28,-158.93 1486.66,-144.54 1419.15,-136.38"/>
<polygon fill="midnightblue" stroke="midnightblue" points="1419.31,-132.88 1408.97,-135.18 1418.49,-139.83 1419.31,-132.88"/>
</g>
<!-- Node34 -->
<g id="node34" class="node">
<title>Node34</title>
<g id="a_node34"><a xlink:href="../../d5/d5b/a00695.html" target="_top" xlink:title=" ">
<polygon fill="none" stroke="black" points="1391.18,-403.5 1391.18,-422.5 1537.18,-422.5 1537.18,-403.5 1391.18,-403.5"/>
<text text-anchor="middle" x="1464.18" y="-410.5" font-family="Helvetica,sans-Serif" font-size="10.00">discordcoreapi/CoRoutine.hpp</text>
</a>
</g>
</g>
<!-- Node33&#45;&gt;Node34 -->
<g id="edge35" class="edge">
<title>Node33&#45;&gt;Node34</title>
<path fill="none" stroke="midnightblue" d="M1464.18,-459.08C1464.18,-452.01 1464.18,-441.86 1464.18,-432.99"/>
<polygon fill="midnightblue" stroke="midnightblue" points="1467.68,-432.75 1464.18,-422.75 1460.68,-432.75 1467.68,-432.75"/>
</g>
<!-- Node34&#45;&gt;Node2 -->
<g id="edge36" class="edge">
<title>Node34&#45;&gt;Node2</title>
<path fill="none" stroke="midnightblue" d="M1499.29,-403.47C1544.46,-390.15 1617.18,-359.74 1617.18,-302 1617.18,-302 1617.18,-302 1617.18,-244 1617.18,-157.61 1500.1,-134.81 1419.01,-129.38"/>
<polygon fill="midnightblue" stroke="midnightblue" points="1419,-125.87 1408.81,-128.77 1418.59,-132.86 1419,-125.87"/>
</g>
<!-- Node34&#45;&gt;Node35 -->
<g id="edge37" class="edge">
<title>Node34&#45;&gt;Node35</title>
<path fill="none" stroke="midnightblue" d="M1461.87,-403.08C1460.02,-395.93 1457.35,-385.64 1455.03,-376.69"/>
<polygon fill="midnightblue" stroke="midnightblue" points="1458.35,-375.55 1452.45,-366.75 1451.57,-377.31 1458.35,-375.55"/>
</g>
<!-- Node35&#45;&gt;Node2 -->
<g id="edge38" class="edge">
<title>Node35&#45;&gt;Node2</title>
<path fill="none" stroke="midnightblue" d="M1449.21,-347.28C1448.11,-334.5 1447.29,-310.15 1454.18,-291 1473.83,-236.42 1556.16,-225.28 1521.18,-179 1508.38,-162.06 1461.33,-149.15 1418.82,-140.62"/>
<polygon fill="midnightblue" stroke="midnightblue" points="1419.47,-137.18 1408.99,-138.71 1418.14,-144.06 1419.47,-137.18"/>
</g>
<!-- Node36 -->
<g id="node36" class="node">
<title>Node36</title>
<g id="a_node36"><a xlink:href="../../db/d7c/a00722.html" target="_top" xlink:title=" ">
<polygon fill="none" stroke="black" points="1463.68,-291.5 1463.68,-310.5 1588.68,-310.5 1588.68,-291.5 1463.68,-291.5"/>
<text text-anchor="middle" x="1526.18" y="-298.5" font-family="Helvetica,sans-Serif" font-size="10.00">discordcoreapi/Https.hpp</text>
</a>
</g>
</g>
<!-- Node35&#45;&gt;Node36 -->
<g id="edge39" class="edge">
<title>Node35&#45;&gt;Node36</title>
<path fill="none" stroke="midnightblue" d="M1462.39,-347.32C1473.96,-339.11 1491.56,-326.6 1505.34,-316.81"/>
<polygon fill="midnightblue" stroke="midnightblue" points="1507.63,-319.48 1513.75,-310.83 1503.57,-313.77 1507.63,-319.48"/>
</g>
<!-- Node36&#45;&gt;Node15 -->
<g id="edge55" class="edge">
<title>Node36&#45;&gt;Node15</title>
<path fill="none" stroke="midnightblue" d="M1533.78,-291.28C1548.43,-273.52 1579.18,-231.34 1579.18,-190 1579.18,-190 1579.18,-190 1579.18,-126.5 1579.18,-98.65 1759.34,-45.38 1842.74,-22.22"/>
<polygon fill="midnightblue" stroke="midnightblue" points="1843.7,-25.59 1852.41,-19.55 1841.84,-18.84 1843.7,-25.59"/>
</g>
<!-- Node36&#45;&gt;Node37 -->
<g id="edge40" class="edge">
<title>Node36&#45;&gt;Node37</title>
<path fill="none" stroke="midnightblue" d="M1463.4,-292.21C1385.85,-282.58 1253.89,-266.2 1169.72,-255.75"/>
<polygon fill="midnightblue" stroke="midnightblue" points="1170.05,-252.26 1159.69,-254.5 1169.19,-259.21 1170.05,-252.26"/>
</g>
<!-- Node37&#45;&gt;Node2 -->
<g id="edge51" class="edge">
<title>Node37&#45;&gt;Node2</title>
<path fill="none" stroke="midnightblue" d="M1109.24,-235.36C1127.85,-226.41 1157.66,-211.96 1183.18,-199 1200.2,-190.36 1203.9,-187.1 1221.18,-179 1245.97,-167.38 1274.19,-155.61 1297.23,-146.36"/>
<polygon fill="midnightblue" stroke="midnightblue" points="1298.78,-149.51 1306.77,-142.55 1296.19,-143.01 1298.78,-149.51"/>
</g>
<!-- Node37&#45;&gt;Node30 -->
<g id="edge52" class="edge">
<title>Node37&#45;&gt;Node30</title>
<path fill="none" stroke="midnightblue" d="M1016.12,-238.62C909.19,-230.82 706.57,-215.6 523.42,-199.09"/>
<polygon fill="midnightblue" stroke="midnightblue" points="523.6,-195.6 513.33,-198.18 522.97,-202.57 523.6,-195.6"/>
</g>
<!-- Node38 -->
<g id="node38" class="node">
<title>Node38</title>
<g id="a_node38"><a xlink:title=" ">
<polygon fill="none" stroke="#bfbfbf" points="1230.68,-179.5 1230.68,-198.5 1273.68,-198.5 1273.68,-179.5 1230.68,-179.5"/>
<text text-anchor="middle" x="1252.18" y="-186.5" font-family="Helvetica,sans-Serif" font-size="10.00">fcntl.h</text>
</a>
</g>
</g>
<!-- Node37&#45;&gt;Node38 -->
<g id="edge41" class="edge">
<title>Node37&#45;&gt;Node38</title>
<path fill="none" stroke="midnightblue" d="M1116.69,-235.44C1144.89,-225.99 1190.34,-210.74 1220.73,-200.55"/>
<polygon fill="midnightblue" stroke="midnightblue" points="1222.04,-203.8 1230.41,-197.3 1219.81,-197.17 1222.04,-203.8"/>
</g>
<!-- Node39 -->
<g id="node39" class="node">
<title>Node39</title>
<g id="a_node39"><a xlink:title=" ">
<polygon fill="none" stroke="#bfbfbf" points="1291.68,-179.5 1291.68,-198.5 1340.68,-198.5 1340.68,-179.5 1291.68,-179.5"/>
<text text-anchor="middle" x="1316.18" y="-186.5" font-family="Helvetica,sans-Serif" font-size="10.00">netdb.h</text>
</a>
</g>
</g>
<!-- Node37&#45;&gt;Node39 -->
<g id="edge42" class="edge">
<title>Node37&#45;&gt;Node39</title>
<path fill="none" stroke="midnightblue" d="M1128.95,-235.42C1165.5,-227.05 1222.71,-213.76 1281.49,-199.12"/>
<polygon fill="midnightblue" stroke="midnightblue" points="1282.47,-202.49 1291.32,-196.67 1280.77,-195.69 1282.47,-202.49"/>
</g>
<!-- Node40 -->
<g id="node40" class="node">
<title>Node40</title>
<g id="a_node40"><a xlink:title=" ">
<polygon fill="none" stroke="#bfbfbf" points="1358.68,-179.5 1358.68,-198.5 1423.68,-198.5 1423.68,-179.5 1358.68,-179.5"/>
<text text-anchor="middle" x="1391.18" y="-186.5" font-family="Helvetica,sans-Serif" font-size="10.00">netinet/in.h</text>
</a>
</g>
</g>
<!-- Node37&#45;&gt;Node40 -->
<g id="edge43" class="edge">
<title>Node37&#45;&gt;Node40</title>
<path fill="none" stroke="midnightblue" d="M1143.67,-235.45C1193.74,-227.16 1271.51,-213.93 1348.75,-199.02"/>
<polygon fill="midnightblue" stroke="midnightblue" points="1349.5,-202.44 1358.65,-197.1 1348.17,-195.57 1349.5,-202.44"/>
</g>
<!-- Node41 -->
<g id="node41" class="node">
<title>Node41</title>
<g id="a_node41"><a xlink:title=" ">
<polygon fill="none" stroke="#bfbfbf" points="1441.68,-179.5 1441.68,-198.5 1512.68,-198.5 1512.68,-179.5 1441.68,-179.5"/>
<text text-anchor="middle" x="1477.18" y="-186.5" font-family="Helvetica,sans-Serif" font-size="10.00">netinet/tcp.h</text>
</a>
</g>
</g>
<!-- Node37&#45;&gt;Node41 -->
<g id="edge44" class="edge">
<title>Node37&#45;&gt;Node41</title>
<path fill="none" stroke="midnightblue" d="M1166.23,-235.54C1233.17,-227.67 1334.05,-214.99 1431.35,-199.04"/>
<polygon fill="midnightblue" stroke="midnightblue" points="1432.07,-202.47 1441.36,-197.39 1430.92,-195.56 1432.07,-202.47"/>
</g>
<!-- Node42 -->
<g id="node42" class="node">
<title>Node42</title>
<g id="a_node42"><a xlink:title=" ">
<polygon fill="none" stroke="#bfbfbf" points="531.68,-179.5 531.68,-198.5 580.68,-198.5 580.68,-179.5 531.68,-179.5"/>
<text text-anchor="middle" x="556.18" y="-186.5" font-family="Helvetica,sans-Serif" font-size="10.00">stdint.h</text>
</a>
</g>
</g>
<!-- Node37&#45;&gt;Node42 -->
<g id="edge45" class="edge">
<title>Node37&#45;&gt;Node42</title>
<path fill="none" stroke="midnightblue" d="M1015.97,-241.21C919.62,-236.76 747.44,-225.82 591.22,-198.87"/>
<polygon fill="midnightblue" stroke="midnightblue" points="591.41,-195.35 580.96,-197.08 590.2,-202.25 591.41,-195.35"/>
</g>
<!-- Node43 -->
<g id="node43" class="node">
<title>Node43</title>
<g id="a_node43"><a xlink:title=" ">
<polygon fill="none" stroke="#bfbfbf" points="599.18,-179.5 599.18,-198.5 663.18,-198.5 663.18,-179.5 599.18,-179.5"/>
<text text-anchor="middle" x="631.18" y="-186.5" font-family="Helvetica,sans-Serif" font-size="10.00">sys/epoll.h</text>
</a>
</g>
</g>
<!-- Node37&#45;&gt;Node43 -->
<g id="edge46" class="edge">
<title>Node37&#45;&gt;Node43</title>
<path fill="none" stroke="midnightblue" d="M1015.92,-238.41C934.01,-231.76 799.04,-219.16 673.52,-199.06"/>
<polygon fill="midnightblue" stroke="midnightblue" points="673.78,-195.55 663.35,-197.41 672.66,-202.46 673.78,-195.55"/>
</g>
<!-- Node44 -->
<g id="node44" class="node">
<title>Node44</title>
<g id="a_node44"><a xlink:title=" ">
<polygon fill="none" stroke="#bfbfbf" points="681.18,-179.5 681.18,-198.5 743.18,-198.5 743.18,-179.5 681.18,-179.5"/>
<text text-anchor="middle" x="712.18" y="-186.5" font-family="Helvetica,sans-Serif" font-size="10.00">arpa/inet.h</text>
</a>
</g>
</g>
<!-- Node37&#45;&gt;Node44 -->
<g id="edge47" class="edge">
<title>Node37&#45;&gt;Node44</title>
<path fill="none" stroke="midnightblue" d="M1016.15,-235.99C949.55,-228.43 849.4,-215.98 753.44,-199.1"/>
<polygon fill="midnightblue" stroke="midnightblue" points="754.03,-195.65 743.57,-197.34 752.81,-202.54 754.03,-195.65"/>
</g>
<!-- Node45 -->
<g id="node45" class="node">
<title>Node45</title>
<g id="a_node45"><a xlink:title=" ">
<polygon fill="none" stroke="#bfbfbf" points="761.68,-179.5 761.68,-198.5 834.68,-198.5 834.68,-179.5 761.68,-179.5"/>
<text text-anchor="middle" x="798.18" y="-186.5" font-family="Helvetica,sans-Serif" font-size="10.00">sys/socket.h</text>
</a>
</g>
</g>
<!-- Node37&#45;&gt;Node45 -->
<g id="edge48" class="edge">
<title>Node37&#45;&gt;Node45</title>
<path fill="none" stroke="midnightblue" d="M1043.34,-235.47C995.69,-226.94 920.19,-213.3 844.96,-199.13"/>
<polygon fill="midnightblue" stroke="midnightblue" points="845.31,-195.63 834.83,-197.22 844.01,-202.51 845.31,-195.63"/>
</g>
<!-- Node46 -->
<g id="node46" class="node">
<title>Node46</title>
<g id="a_node46"><a xlink:title=" ">
<polygon fill="none" stroke="#bfbfbf" points="853.18,-179.5 853.18,-198.5 921.18,-198.5 921.18,-179.5 853.18,-179.5"/>
<text text-anchor="middle" x="887.18" y="-186.5" font-family="Helvetica,sans-Serif" font-size="10.00">sys/types.h</text>
</a>
</g>
</g>
<!-- Node37&#45;&gt;Node46 -->
<g id="edge49" class="edge">
<title>Node37&#45;&gt;Node46</title>
<path fill="none" stroke="midnightblue" d="M1058.86,-235.44C1023.79,-226.16 967.69,-211.31 929.22,-201.13"/>
<polygon fill="midnightblue" stroke="midnightblue" points="929.92,-197.69 919.36,-198.52 928.13,-204.46 929.92,-197.69"/>
</g>
<!-- Node47 -->
<g id="node47" class="node">
<title>Node47</title>
<g id="a_node47"><a xlink:title=" ">
<polygon fill="none" stroke="#bfbfbf" points="939.68,-179.5 939.68,-198.5 990.68,-198.5 990.68,-179.5 939.68,-179.5"/>
<text text-anchor="middle" x="965.18" y="-186.5" font-family="Helvetica,sans-Serif" font-size="10.00">unistd.h</text>
</a>
</g>
</g>
<!-- Node37&#45;&gt;Node47 -->
<g id="edge50" class="edge">
<title>Node37&#45;&gt;Node47</title>
<path fill="none" stroke="midnightblue" d="M1071.22,-235.44C1050.57,-226.6 1018.12,-212.69 994.55,-202.59"/>
<polygon fill="midnightblue" stroke="midnightblue" points="995.63,-199.24 985.06,-198.52 992.87,-205.67 995.63,-199.24"/>
</g>
<!-- Node48 -->
<g id="node48" class="node">
<title>Node48</title>
<g id="a_node48"><a xlink:title=" ">
<polygon fill="none" stroke="#bfbfbf" points="1008.68,-179.5 1008.68,-198.5 1081.68,-198.5 1081.68,-179.5 1008.68,-179.5"/>
<text text-anchor="middle" x="1045.18" y="-186.5" font-family="Helvetica,sans-Serif" font-size="10.00">openssl/err.h</text>
</a>
</g>
</g>
<!-- Node37&#45;&gt;Node48 -->
<g id="edge53" class="edge">
<title>Node37&#45;&gt;Node48</title>
<path fill="none" stroke="midnightblue" d="M1083.59,-235.08C1076.96,-227.3 1067.16,-215.8 1059.13,-206.37"/>
<polygon fill="midnightblue" stroke="midnightblue" points="1061.79,-204.09 1052.64,-198.75 1056.46,-208.63 1061.79,-204.09"/>
</g>
<!-- Node49 -->
<g id="node49" class="node">
<title>Node49</title>
<g id="a_node49"><a xlink:title=" ">
<polygon fill="none" stroke="#bfbfbf" points="1100.18,-179.5 1100.18,-198.5 1174.18,-198.5 1174.18,-179.5 1100.18,-179.5"/>
<text text-anchor="middle" x="1137.18" y="-186.5" font-family="Helvetica,sans-Serif" font-size="10.00">openssl/ssl.h</text>
</a>
</g>
</g>
<!-- Node37&#45;&gt;Node49 -->
<g id="edge54" class="edge">
<title>Node37&#45;&gt;Node49</title>
<path fill="none" stroke="midnightblue" d="M1098.78,-235.08C1105.41,-227.3 1115.2,-215.8 1123.24,-206.37"/>
<polygon fill="midnightblue" stroke="midnightblue" points="1125.91,-208.63 1129.73,-198.75 1120.58,-204.09 1125.91,-208.63"/>
</g>
<!-- Node50&#45;&gt;Node2 -->
<g id="edge58" class="edge">
<title>Node50&#45;&gt;Node2</title>
<path fill="none" stroke="midnightblue" d="M1693.18,-403.44C1693.18,-384.94 1693.18,-339.81 1693.18,-302 1693.18,-302 1693.18,-302 1693.18,-244 1693.18,-213.2 1693.02,-198.49 1669.18,-179 1631.9,-148.52 1502.93,-136.29 1418.82,-131.49"/>
<polygon fill="midnightblue" stroke="midnightblue" points="1418.97,-127.99 1408.79,-130.94 1418.58,-134.98 1418.97,-127.99"/>
</g>
</g>
</svg>
