<?xml version="1.0" encoding="UTF-8" standalone="no"?>
<!DOCTYPE svg PUBLIC "-//W3C//DTD SVG 1.1//EN"
 "http://www.w3.org/Graphics/SVG/1.1/DTD/svg11.dtd">
<!-- Generated by graphviz version 2.43.0 (0)
 -->
<!-- Title: GuildEntities.hpp Pages: 1 -->
<svg width="2202pt" height="789pt"
 viewBox="0.00 0.00 2202.00 789.00" xmlns="http://www.w3.org/2000/svg" xmlns:xlink="http://www.w3.org/1999/xlink">
<g id="graph0" class="graph" transform="scale(1 1) rotate(0) translate(4 785)">
<title>GuildEntities.hpp</title>
<!-- Node1 -->
<g id="node1" class="node">
<title>Node1</title>
<g id="a_node1"><a xlink:title=" ">
<polygon fill="#bfbfbf" stroke="black" points="308,-761.5 308,-780.5 408,-780.5 408,-761.5 308,-761.5"/>
<text text-anchor="middle" x="358" y="-768.5" font-family="Helvetica,sans-Serif" font-size="10.00">GuildEntities.hpp</text>
</a>
</g>
</g>
<!-- Node2 -->
<g id="node2" class="node">
<title>Node2</title>
<g id="a_node2"><a xlink:href="../../d4/deb/a00710.html" target="_top" xlink:title=" ">
<polygon fill="none" stroke="black" points="1347.5,-112.5 1347.5,-142.5 1492.5,-142.5 1492.5,-112.5 1347.5,-112.5"/>
<text text-anchor="start" x="1355.5" y="-130.5" font-family="Helvetica,sans-Serif" font-size="10.00">discordcoreapi/Foundation</text>
<text text-anchor="middle" x="1420" y="-119.5" font-family="Helvetica,sans-Serif" font-size="10.00">Entities.hpp</text>
</a>
</g>
</g>
<!-- Node1&#45;&gt;Node2 -->
<g id="edge1" class="edge">
<title>Node1&#45;&gt;Node2</title>
<path fill="none" stroke="midnightblue" d="M307.84,-764.44C209.32,-752.12 0,-718.42 0,-654.5 0,-654.5 0,-654.5 0,-244 0,-203.46 26.9,-195.35 64,-179 180.06,-127.84 1060.46,-127.02 1337.09,-128.05"/>
<polygon fill="midnightblue" stroke="midnightblue" points="1337.44,-131.55 1347.46,-128.09 1337.47,-124.55 1337.44,-131.55"/>
</g>
<!-- Node27 -->
<g id="node27" class="node">
<title>Node27</title>
<g id="a_node27"><a xlink:href="../../d0/d7e/a00770.html" target="_top" xlink:title=" ">
<polygon fill="none" stroke="black" points="168.5,-582.5 168.5,-601.5 361.5,-601.5 361.5,-582.5 168.5,-582.5"/>
<text text-anchor="middle" x="265" y="-589.5" font-family="Helvetica,sans-Serif" font-size="10.00">discordcoreapi/VoiceConnection.hpp</text>
</a>
</g>
</g>
<!-- Node1&#45;&gt;Node27 -->
<g id="edge26" class="edge">
<title>Node1&#45;&gt;Node27</title>
<path fill="none" stroke="midnightblue" d="M353.51,-761.46C339.19,-734.19 294.31,-648.78 274.53,-611.13"/>
<polygon fill="midnightblue" stroke="midnightblue" points="277.41,-609.09 269.66,-601.87 271.21,-612.35 277.41,-609.09"/>
</g>
<!-- Node55 -->
<g id="node55" class="node">
<title>Node55</title>
<g id="a_node55"><a xlink:href="../../dc/dce/a00740.html" target="_top" xlink:title=" ">
<polygon fill="none" stroke="black" points="492,-705.5 492,-724.5 662,-724.5 662,-705.5 492,-705.5"/>
<text text-anchor="middle" x="577" y="-712.5" font-family="Helvetica,sans-Serif" font-size="10.00">discordcoreapi/RoleEntities.hpp</text>
</a>
</g>
</g>
<!-- Node1&#45;&gt;Node55 -->
<g id="edge69" class="edge">
<title>Node1&#45;&gt;Node55</title>
<path fill="none" stroke="midnightblue" d="M392.7,-761.44C430.58,-752.1 491.35,-737.12 532.66,-726.93"/>
<polygon fill="midnightblue" stroke="midnightblue" points="533.59,-730.31 542.46,-724.52 531.91,-723.51 533.59,-730.31"/>
</g>
<!-- Node58 -->
<g id="node58" class="node">
<title>Node58</title>
<g id="a_node58"><a xlink:href="../../d1/d87/a00689.html" target="_top" xlink:title=" ">
<polygon fill="none" stroke="black" points="150,-347.5 150,-366.5 338,-366.5 338,-347.5 150,-347.5"/>
<text text-anchor="middle" x="244" y="-354.5" font-family="Helvetica,sans-Serif" font-size="10.00">discordcoreapi/ChannelEntities.hpp</text>
</a>
</g>
</g>
<!-- Node1&#45;&gt;Node58 -->
<g id="edge78" class="edge">
<title>Node1&#45;&gt;Node58</title>
<path fill="none" stroke="midnightblue" d="M362.18,-761.24C370.86,-742.26 390,-695.7 390,-654.5 390,-654.5 390,-654.5 390,-468 390,-415.44 328.91,-384.85 285.76,-369.8"/>
<polygon fill="midnightblue" stroke="midnightblue" points="286.63,-366.4 276.04,-366.56 284.42,-373.05 286.63,-366.4"/>
</g>
<!-- Node3 -->
<g id="node3" class="node">
<title>Node3</title>
<g id="a_node3"><a xlink:href="../../d5/dae/a00767.html" target="_top" xlink:title=" ">
<polygon fill="none" stroke="black" points="1345,-56.5 1345,-75.5 1495,-75.5 1495,-56.5 1345,-56.5"/>
<text text-anchor="middle" x="1420" y="-63.5" font-family="Helvetica,sans-Serif" font-size="10.00">discordcoreapi/Utilities.hpp</text>
</a>
</g>
</g>
<!-- Node2&#45;&gt;Node3 -->
<g id="edge2" class="edge">
<title>Node2&#45;&gt;Node3</title>
<path fill="none" stroke="midnightblue" d="M1420,-112.4C1420,-104.47 1420,-94.46 1420,-85.86"/>
<polygon fill="midnightblue" stroke="midnightblue" points="1423.5,-85.66 1420,-75.66 1416.5,-85.66 1423.5,-85.66"/>
</g>
<!-- Node4 -->
<g id="node4" class="node">
<title>Node4</title>
<g id="a_node4"><a xlink:title=" ">
<polygon fill="none" stroke="#bfbfbf" points="340.5,-0.5 340.5,-19.5 403.5,-19.5 403.5,-0.5 340.5,-0.5"/>
<text text-anchor="middle" x="372" y="-7.5" font-family="Helvetica,sans-Serif" font-size="10.00">pthread.h</text>
</a>
</g>
</g>
<!-- Node3&#45;&gt;Node4 -->
<g id="edge3" class="edge">
<title>Node3&#45;&gt;Node4</title>
<path fill="none" stroke="midnightblue" d="M1344.65,-63.31C1146.25,-58.59 611.71,-44.11 413.71,-19.8"/>
<polygon fill="midnightblue" stroke="midnightblue" points="414.05,-16.31 403.69,-18.52 413.17,-23.26 414.05,-16.31"/>
</g>
<!-- Node5 -->
<g id="node5" class="node">
<title>Node5</title>
<g id="a_node5"><a xlink:title=" ">
<polygon fill="none" stroke="#bfbfbf" points="422,-0.5 422,-19.5 490,-19.5 490,-0.5 422,-0.5"/>
<text text-anchor="middle" x="456" y="-7.5" font-family="Helvetica,sans-Serif" font-size="10.00">sys/time.h</text>
</a>
</g>
</g>
<!-- Node3&#45;&gt;Node5 -->
<g id="edge4" class="edge">
<title>Node3&#45;&gt;Node5</title>
<path fill="none" stroke="midnightblue" d="M1344.74,-65.32C1188.84,-65.13 819.26,-60.16 500.55,-19.98"/>
<polygon fill="midnightblue" stroke="midnightblue" points="500.55,-16.45 490.19,-18.66 499.66,-23.4 500.55,-16.45"/>
</g>
<!-- Node6 -->
<g id="node6" class="node">
<title>Node6</title>
<g id="a_node6"><a xlink:title=" ">
<polygon fill="none" stroke="#bfbfbf" points="508,-0.5 508,-19.5 556,-19.5 556,-0.5 508,-0.5"/>
<text text-anchor="middle" x="532" y="-7.5" font-family="Helvetica,sans-Serif" font-size="10.00">time.h</text>
</a>
</g>
</g>
<!-- Node3&#45;&gt;Node6 -->
<g id="edge5" class="edge">
<title>Node3&#45;&gt;Node6</title>
<path fill="none" stroke="midnightblue" d="M1344.72,-63.1C1168.55,-58.33 732.43,-44.55 566.11,-19.76"/>
<polygon fill="midnightblue" stroke="midnightblue" points="566.44,-16.27 556.02,-18.19 565.36,-23.19 566.44,-16.27"/>
</g>
<!-- Node7 -->
<g id="node7" class="node">
<title>Node7</title>
<g id="a_node7"><a xlink:title=" ">
<polygon fill="none" stroke="#bfbfbf" points="574,-0.5 574,-19.5 618,-19.5 618,-0.5 574,-0.5"/>
<text text-anchor="middle" x="596" y="-7.5" font-family="Helvetica,sans-Serif" font-size="10.00">ctime</text>
</a>
</g>
</g>
<!-- Node3&#45;&gt;Node7 -->
<g id="edge6" class="edge">
<title>Node3&#45;&gt;Node7</title>
<path fill="none" stroke="midnightblue" d="M1344.94,-62.82C1178.72,-57.66 782.83,-43.45 628.49,-19.58"/>
<polygon fill="midnightblue" stroke="midnightblue" points="628.67,-16.07 618.24,-17.92 627.55,-22.98 628.67,-16.07"/>
</g>
<!-- Node8 -->
<g id="node8" class="node">
<title>Node8</title>
<g id="a_node8"><a xlink:title=" ">
<polygon fill="none" stroke="#bfbfbf" points="636.5,-0.5 636.5,-19.5 743.5,-19.5 743.5,-0.5 636.5,-0.5"/>
<text text-anchor="middle" x="690" y="-7.5" font-family="Helvetica,sans-Serif" font-size="10.00">condition_variable</text>
</a>
</g>
</g>
<!-- Node3&#45;&gt;Node8 -->
<g id="edge7" class="edge">
<title>Node3&#45;&gt;Node8</title>
<path fill="none" stroke="midnightblue" d="M1344.82,-61.76C1223.02,-56.1 974.78,-42.89 753.75,-19.99"/>
<polygon fill="midnightblue" stroke="midnightblue" points="753.89,-16.49 743.58,-18.93 753.16,-23.45 753.89,-16.49"/>
</g>
<!-- Node9 -->
<g id="node9" class="node">
<title>Node9</title>
<g id="a_node9"><a xlink:title=" ">
<polygon fill="none" stroke="#bfbfbf" points="762,-0.5 762,-19.5 872,-19.5 872,-0.5 762,-0.5"/>
<text text-anchor="middle" x="817" y="-7.5" font-family="Helvetica,sans-Serif" font-size="10.00">nlohmann/json.hpp</text>
</a>
</g>
</g>
<!-- Node3&#45;&gt;Node9 -->
<g id="edge8" class="edge">
<title>Node3&#45;&gt;Node9</title>
<path fill="none" stroke="midnightblue" d="M1344.58,-59.99C1242.39,-52.9 1054,-38.82 882.27,-19.97"/>
<polygon fill="midnightblue" stroke="midnightblue" points="882.62,-16.48 872.29,-18.86 881.85,-23.44 882.62,-16.48"/>
</g>
<!-- Node10 -->
<g id="node10" class="node">
<title>Node10</title>
<g id="a_node10"><a xlink:title=" ">
<polygon fill="none" stroke="#bfbfbf" points="890.5,-0.5 890.5,-19.5 983.5,-19.5 983.5,-0.5 890.5,-0.5"/>
<text text-anchor="middle" x="937" y="-7.5" font-family="Helvetica,sans-Serif" font-size="10.00">source_location</text>
</a>
</g>
</g>
<!-- Node3&#45;&gt;Node10 -->
<g id="edge9" class="edge">
<title>Node3&#45;&gt;Node10</title>
<path fill="none" stroke="midnightblue" d="M1344.65,-58.31C1261.39,-50.63 1123.09,-37.04 993.81,-20.04"/>
<polygon fill="midnightblue" stroke="midnightblue" points="994.1,-16.55 983.72,-18.7 993.18,-23.49 994.1,-16.55"/>
</g>
<!-- Node11 -->
<g id="node11" class="node">
<title>Node11</title>
<g id="a_node11"><a xlink:title=" ">
<polygon fill="none" stroke="#bfbfbf" points="1001.5,-0.5 1001.5,-19.5 1094.5,-19.5 1094.5,-0.5 1001.5,-0.5"/>
<text text-anchor="middle" x="1048" y="-7.5" font-family="Helvetica,sans-Serif" font-size="10.00">unordered_map</text>
</a>
</g>
</g>
<!-- Node3&#45;&gt;Node11 -->
<g id="edge10" class="edge">
<title>Node3&#45;&gt;Node11</title>
<path fill="none" stroke="midnightblue" d="M1357.89,-56.49C1296.32,-47.98 1199.01,-34.32 1104.74,-20.09"/>
<polygon fill="midnightblue" stroke="midnightblue" points="1105.15,-16.61 1094.74,-18.58 1104.1,-23.53 1105.15,-16.61"/>
</g>
<!-- Node12 -->
<g id="node12" class="node">
<title>Node12</title>
<g id="a_node12"><a xlink:title=" ">
<polygon fill="none" stroke="#bfbfbf" points="1113,-0.5 1113,-19.5 1199,-19.5 1199,-0.5 1113,-0.5"/>
<text text-anchor="middle" x="1156" y="-7.5" font-family="Helvetica,sans-Serif" font-size="10.00">shared_mutex</text>
</a>
</g>
</g>
<!-- Node3&#45;&gt;Node12 -->
<g id="edge11" class="edge">
<title>Node3&#45;&gt;Node12</title>
<path fill="none" stroke="midnightblue" d="M1378.17,-56.44C1331.92,-46.98 1257.39,-31.74 1207.56,-21.55"/>
<polygon fill="midnightblue" stroke="midnightblue" points="1208.13,-18.09 1197.64,-19.52 1206.73,-24.95 1208.13,-18.09"/>
</g>
<!-- Node13 -->
<g id="node13" class="node">
<title>Node13</title>
<g id="a_node13"><a xlink:title=" ">
<polygon fill="none" stroke="#bfbfbf" points="1217.5,-0.5 1217.5,-19.5 1282.5,-19.5 1282.5,-0.5 1217.5,-0.5"/>
<text text-anchor="middle" x="1250" y="-7.5" font-family="Helvetica,sans-Serif" font-size="10.00">functional</text>
</a>
</g>
</g>
<!-- Node3&#45;&gt;Node13 -->
<g id="edge12" class="edge">
<title>Node3&#45;&gt;Node13</title>
<path fill="none" stroke="midnightblue" d="M1393.06,-56.44C1364.34,-47.32 1318.67,-32.81 1286.68,-22.65"/>
<polygon fill="midnightblue" stroke="midnightblue" points="1287.4,-19.21 1276.81,-19.52 1285.28,-25.88 1287.4,-19.21"/>
</g>
<!-- Node14 -->
<g id="node14" class="node">
<title>Node14</title>
<g id="a_node14"><a xlink:title=" ">
<polygon fill="none" stroke="#bfbfbf" points="1300.5,-0.5 1300.5,-19.5 1371.5,-19.5 1371.5,-0.5 1300.5,-0.5"/>
<text text-anchor="middle" x="1336" y="-7.5" font-family="Helvetica,sans-Serif" font-size="10.00">semaphore</text>
</a>
</g>
</g>
<!-- Node3&#45;&gt;Node14 -->
<g id="edge13" class="edge">
<title>Node3&#45;&gt;Node14</title>
<path fill="none" stroke="midnightblue" d="M1406.5,-56.32C1393.4,-47.9 1373.29,-34.97 1357.89,-25.07"/>
<polygon fill="midnightblue" stroke="midnightblue" points="1359.77,-22.12 1349.46,-19.65 1355.98,-28.01 1359.77,-22.12"/>
</g>
<!-- Node15 -->
<g id="node15" class="node">
<title>Node15</title>
<g id="a_node15"><a xlink:title=" ">
<polygon fill="none" stroke="#bfbfbf" points="1390,-0.5 1390,-19.5 1450,-19.5 1450,-0.5 1390,-0.5"/>
<text text-anchor="middle" x="1420" y="-7.5" font-family="Helvetica,sans-Serif" font-size="10.00">concepts</text>
</a>
</g>
</g>
<!-- Node3&#45;&gt;Node15 -->
<g id="edge14" class="edge">
<title>Node3&#45;&gt;Node15</title>
<path fill="none" stroke="midnightblue" d="M1420,-56.08C1420,-49.01 1420,-38.86 1420,-29.99"/>
<polygon fill="midnightblue" stroke="midnightblue" points="1423.5,-29.75 1420,-19.75 1416.5,-29.75 1423.5,-29.75"/>
</g>
<!-- Node16 -->
<g id="node16" class="node">
<title>Node16</title>
<g id="a_node16"><a xlink:title=" ">
<polygon fill="none" stroke="#bfbfbf" points="1468,-0.5 1468,-19.5 1528,-19.5 1528,-0.5 1468,-0.5"/>
<text text-anchor="middle" x="1498" y="-7.5" font-family="Helvetica,sans-Serif" font-size="10.00">iostream</text>
</a>
</g>
</g>
<!-- Node3&#45;&gt;Node16 -->
<g id="edge15" class="edge">
<title>Node3&#45;&gt;Node16</title>
<path fill="none" stroke="midnightblue" d="M1432.53,-56.32C1444.59,-47.98 1463.03,-35.21 1477.27,-25.35"/>
<polygon fill="midnightblue" stroke="midnightblue" points="1479.27,-28.22 1485.5,-19.65 1475.28,-22.47 1479.27,-28.22"/>
</g>
<!-- Node17 -->
<g id="node17" class="node">
<title>Node17</title>
<g id="a_node17"><a xlink:title=" ">
<polygon fill="none" stroke="#bfbfbf" points="1546.5,-0.5 1546.5,-19.5 1601.5,-19.5 1601.5,-0.5 1546.5,-0.5"/>
<text text-anchor="middle" x="1574" y="-7.5" font-family="Helvetica,sans-Serif" font-size="10.00">fstream</text>
</a>
</g>
</g>
<!-- Node3&#45;&gt;Node17 -->
<g id="edge16" class="edge">
<title>Node3&#45;&gt;Node17</title>
<path fill="none" stroke="midnightblue" d="M1444.4,-56.44C1470.2,-47.4 1511.08,-33.06 1540.02,-22.92"/>
<polygon fill="midnightblue" stroke="midnightblue" points="1541.43,-26.13 1549.71,-19.52 1539.12,-19.52 1541.43,-26.13"/>
</g>
<!-- Node18 -->
<g id="node18" class="node">
<title>Node18</title>
<g id="a_node18"><a xlink:title=" ">
<polygon fill="none" stroke="#bfbfbf" points="1620,-0.5 1620,-19.5 1664,-19.5 1664,-0.5 1620,-0.5"/>
<text text-anchor="middle" x="1642" y="-7.5" font-family="Helvetica,sans-Serif" font-size="10.00">bitset</text>
</a>
</g>
</g>
<!-- Node3&#45;&gt;Node18 -->
<g id="edge17" class="edge">
<title>Node3&#45;&gt;Node18</title>
<path fill="none" stroke="midnightblue" d="M1458.92,-56.44C1495.5,-48.26 1552.01,-35.28 1609.67,-20.25"/>
<polygon fill="midnightblue" stroke="midnightblue" points="1610.9,-23.55 1619.69,-17.63 1609.13,-16.78 1610.9,-23.55"/>
</g>
<!-- Node19 -->
<g id="node19" class="node">
<title>Node19</title>
<g id="a_node19"><a xlink:title=" ">
<polygon fill="none" stroke="#bfbfbf" points="1682,-0.5 1682,-19.5 1740,-19.5 1740,-0.5 1682,-0.5"/>
<text text-anchor="middle" x="1711" y="-7.5" font-family="Helvetica,sans-Serif" font-size="10.00">memory</text>
</a>
</g>
</g>
<!-- Node3&#45;&gt;Node19 -->
<g id="edge18" class="edge">
<title>Node3&#45;&gt;Node19</title>
<path fill="none" stroke="midnightblue" d="M1472.98,-56.47C1522.08,-48.37 1597.38,-35.43 1671.95,-20.12"/>
<polygon fill="midnightblue" stroke="midnightblue" points="1672.91,-23.5 1681.99,-18.05 1671.49,-16.65 1672.91,-23.5"/>
</g>
<!-- Node20 -->
<g id="node20" class="node">
<title>Node20</title>
<g id="a_node20"><a xlink:title=" ">
<polygon fill="none" stroke="#bfbfbf" points="1758,-0.5 1758,-19.5 1812,-19.5 1812,-0.5 1758,-0.5"/>
<text text-anchor="middle" x="1785" y="-7.5" font-family="Helvetica,sans-Serif" font-size="10.00">random</text>
</a>
</g>
</g>
<!-- Node3&#45;&gt;Node20 -->
<g id="edge19" class="edge">
<title>Node3&#45;&gt;Node20</title>
<path fill="none" stroke="midnightblue" d="M1495.19,-57.08C1559.77,-49.74 1655.51,-37.56 1747.86,-20.04"/>
<polygon fill="midnightblue" stroke="midnightblue" points="1748.78,-23.42 1757.94,-18.1 1747.46,-16.55 1748.78,-23.42"/>
</g>
<!-- Node21 -->
<g id="node21" class="node">
<title>Node21</title>
<g id="a_node21"><a xlink:title=" ">
<polygon fill="none" stroke="#bfbfbf" points="1830,-0.5 1830,-19.5 1874,-19.5 1874,-0.5 1830,-0.5"/>
<text text-anchor="middle" x="1852" y="-7.5" font-family="Helvetica,sans-Serif" font-size="10.00">string</text>
</a>
</g>
</g>
<!-- Node3&#45;&gt;Node21 -->
<g id="edge20" class="edge">
<title>Node3&#45;&gt;Node21</title>
<path fill="none" stroke="midnightblue" d="M1495.23,-60.41C1574.05,-54.73 1701.48,-43.09 1819.8,-19.93"/>
<polygon fill="midnightblue" stroke="midnightblue" points="1820.64,-23.33 1829.76,-17.95 1819.27,-16.47 1820.64,-23.33"/>
</g>
<!-- Node22 -->
<g id="node22" class="node">
<title>Node22</title>
<g id="a_node22"><a xlink:title=" ">
<polygon fill="none" stroke="#bfbfbf" points="1892.5,-0.5 1892.5,-19.5 1939.5,-19.5 1939.5,-0.5 1892.5,-0.5"/>
<text text-anchor="middle" x="1916" y="-7.5" font-family="Helvetica,sans-Serif" font-size="10.00">vector</text>
</a>
</g>
</g>
<!-- Node3&#45;&gt;Node22 -->
<g id="edge21" class="edge">
<title>Node3&#45;&gt;Node22</title>
<path fill="none" stroke="midnightblue" d="M1495.12,-61.61C1585,-56.69 1740.08,-45.41 1882.12,-19.84"/>
<polygon fill="midnightblue" stroke="midnightblue" points="1883.11,-23.22 1892.32,-17.97 1881.85,-16.33 1883.11,-23.22"/>
</g>
<!-- Node23 -->
<g id="node23" class="node">
<title>Node23</title>
<g id="a_node23"><a xlink:title=" ">
<polygon fill="none" stroke="#bfbfbf" points="1958,-0.5 1958,-19.5 2006,-19.5 2006,-0.5 1958,-0.5"/>
<text text-anchor="middle" x="1982" y="-7.5" font-family="Helvetica,sans-Serif" font-size="10.00">thread</text>
</a>
</g>
</g>
<!-- Node3&#45;&gt;Node23 -->
<g id="edge22" class="edge">
<title>Node3&#45;&gt;Node23</title>
<path fill="none" stroke="midnightblue" d="M1495.02,-62.9C1596.04,-59.11 1781.4,-48.83 1948.03,-19.85"/>
<polygon fill="midnightblue" stroke="midnightblue" points="1948.72,-23.28 1957.96,-18.1 1947.51,-16.39 1948.72,-23.28"/>
</g>
<!-- Node24 -->
<g id="node24" class="node">
<title>Node24</title>
<g id="a_node24"><a xlink:title=" ">
<polygon fill="none" stroke="#bfbfbf" points="2024,-0.5 2024,-19.5 2072,-19.5 2072,-0.5 2024,-0.5"/>
<text text-anchor="middle" x="2048" y="-7.5" font-family="Helvetica,sans-Serif" font-size="10.00">mutex</text>
</a>
</g>
</g>
<!-- Node3&#45;&gt;Node24 -->
<g id="edge23" class="edge">
<title>Node3&#45;&gt;Node24</title>
<path fill="none" stroke="midnightblue" d="M1495.24,-63.9C1606.75,-61.25 1822.44,-52.24 2014,-19.84"/>
<polygon fill="midnightblue" stroke="midnightblue" points="2014.71,-23.27 2023.97,-18.12 2013.52,-16.37 2014.71,-23.27"/>
</g>
<!-- Node25 -->
<g id="node25" class="node">
<title>Node25</title>
<g id="a_node25"><a xlink:title=" ">
<polygon fill="none" stroke="#bfbfbf" points="2090.5,-0.5 2090.5,-19.5 2137.5,-19.5 2137.5,-0.5 2090.5,-0.5"/>
<text text-anchor="middle" x="2114" y="-7.5" font-family="Helvetica,sans-Serif" font-size="10.00">queue</text>
</a>
</g>
</g>
<!-- Node3&#45;&gt;Node25 -->
<g id="edge24" class="edge">
<title>Node3&#45;&gt;Node25</title>
<path fill="none" stroke="midnightblue" d="M1495.41,-64.71C1616.87,-63.18 1863.29,-55.67 2080.35,-19.74"/>
<polygon fill="midnightblue" stroke="midnightblue" points="2081.05,-23.17 2090.33,-18.06 2079.89,-16.26 2081.05,-23.17"/>
</g>
<!-- Node26 -->
<g id="node26" class="node">
<title>Node26</title>
<g id="a_node26"><a xlink:title=" ">
<polygon fill="none" stroke="#bfbfbf" points="2156,-0.5 2156,-19.5 2194,-19.5 2194,-0.5 2156,-0.5"/>
<text text-anchor="middle" x="2175" y="-7.5" font-family="Helvetica,sans-Serif" font-size="10.00">map</text>
</a>
</g>
</g>
<!-- Node3&#45;&gt;Node26 -->
<g id="edge25" class="edge">
<title>Node3&#45;&gt;Node26</title>
<path fill="none" stroke="midnightblue" d="M1495.19,-62.72C1651.07,-57.61 2005.86,-43.94 2145.79,-19.68"/>
<polygon fill="midnightblue" stroke="midnightblue" points="2146.67,-23.08 2155.88,-17.84 2145.42,-16.19 2146.67,-23.08"/>
</g>
<!-- Node27&#45;&gt;Node2 -->
<g id="edge27" class="edge">
<title>Node27&#45;&gt;Node2</title>
<path fill="none" stroke="midnightblue" d="M185.11,-582.47C134.54,-575.47 75.34,-563.77 57,-546 31.99,-521.78 38,-504.82 38,-470 38,-470 38,-470 38,-244 38,-187.98 92.33,-195.06 146,-179 259.4,-145.07 1072.67,-132.59 1337.14,-129.4"/>
<polygon fill="midnightblue" stroke="midnightblue" points="1337.49,-132.89 1347.44,-129.27 1337.4,-125.89 1337.49,-132.89"/>
</g>
<!-- Node28 -->
<g id="node28" class="node">
<title>Node28</title>
<g id="a_node28"><a xlink:href="../../db/d77/a00683.html" target="_top" xlink:title=" ">
<polygon fill="none" stroke="black" points="66,-521 66,-540 244,-540 244,-521 66,-521"/>
<text text-anchor="middle" x="155" y="-528" font-family="Helvetica,sans-Serif" font-size="10.00">discordcoreapi/AudioEncoder.hpp</text>
</a>
</g>
</g>
<!-- Node27&#45;&gt;Node28 -->
<g id="edge28" class="edge">
<title>Node27&#45;&gt;Node28</title>
<path fill="none" stroke="midnightblue" d="M249.24,-582.48C231.02,-572.62 200.83,-556.29 179.53,-544.77"/>
<polygon fill="midnightblue" stroke="midnightblue" points="181.19,-541.69 170.73,-540.01 177.86,-547.85 181.19,-541.69"/>
</g>
<!-- Node30 -->
<g id="node30" class="node">
<title>Node30</title>
<g id="a_node30"><a xlink:href="../../d5/d5b/a00695.html" target="_top" xlink:title=" ">
<polygon fill="none" stroke="black" points="456,-403.5 456,-422.5 618,-422.5 618,-403.5 456,-403.5"/>
<text text-anchor="middle" x="537" y="-410.5" font-family="Helvetica,sans-Serif" font-size="10.00">discordcoreapi/CoRoutine.hpp</text>
</a>
</g>
</g>
<!-- Node27&#45;&gt;Node30 -->
<g id="edge31" class="edge">
<title>Node27&#45;&gt;Node30</title>
<path fill="none" stroke="midnightblue" d="M278.12,-582.46C321.56,-554.2 461,-463.46 515.18,-428.2"/>
<polygon fill="midnightblue" stroke="midnightblue" points="517.22,-431.05 523.69,-422.66 513.4,-425.18 517.22,-431.05"/>
</g>
<!-- Node48 -->
<g id="node48" class="node">
<title>Node48</title>
<g id="a_node48"><a xlink:href="../../d9/dd4/a00776.html" target="_top" xlink:title=" ">
<polygon fill="none" stroke="black" points="1531,-515.5 1531,-545.5 1675,-545.5 1675,-515.5 1531,-515.5"/>
<text text-anchor="start" x="1539" y="-533.5" font-family="Helvetica,sans-Serif" font-size="10.00">discordcoreapi/WebSocket</text>
<text text-anchor="middle" x="1603" y="-522.5" font-family="Helvetica,sans-Serif" font-size="10.00">Entities.hpp</text>
</a>
</g>
</g>
<!-- Node27&#45;&gt;Node48 -->
<g id="edge53" class="edge">
<title>Node27&#45;&gt;Node48</title>
<path fill="none" stroke="midnightblue" d="M361.76,-586.7C613.59,-575.5 1286.05,-545.59 1520.78,-535.16"/>
<polygon fill="midnightblue" stroke="midnightblue" points="1521.12,-538.64 1530.95,-534.7 1520.81,-531.65 1521.12,-538.64"/>
</g>
<!-- Node54 -->
<g id="node54" class="node">
<title>Node54</title>
<g id="a_node54"><a xlink:title=" ">
<polygon fill="none" stroke="#bfbfbf" points="262,-521 262,-540 324,-540 324,-521 262,-521"/>
<text text-anchor="middle" x="293" y="-528" font-family="Helvetica,sans-Serif" font-size="10.00">sodium.h</text>
</a>
</g>
</g>
<!-- Node27&#45;&gt;Node54 -->
<g id="edge68" class="edge">
<title>Node27&#45;&gt;Node54</title>
<path fill="none" stroke="midnightblue" d="M269.01,-582.48C273.09,-573.82 279.52,-560.15 284.7,-549.15"/>
<polygon fill="midnightblue" stroke="midnightblue" points="287.9,-550.55 289,-540.01 281.57,-547.57 287.9,-550.55"/>
</g>
<!-- Node28&#45;&gt;Node2 -->
<g id="edge29" class="edge">
<title>Node28&#45;&gt;Node2</title>
<path fill="none" stroke="midnightblue" d="M150.69,-520.76C141.74,-501.8 122,-455.29 122,-414 122,-414 122,-414 122,-244 122,-180.2 188.28,-195.19 250,-179 354.2,-151.67 1087.77,-134.98 1337.21,-130.04"/>
<polygon fill="midnightblue" stroke="midnightblue" points="1337.37,-133.54 1347.3,-129.85 1337.23,-126.54 1337.37,-133.54"/>
</g>
<!-- Node29 -->
<g id="node29" class="node">
<title>Node29</title>
<g id="a_node29"><a xlink:title=" ">
<polygon fill="none" stroke="#bfbfbf" points="150.5,-459.5 150.5,-478.5 225.5,-478.5 225.5,-459.5 150.5,-459.5"/>
<text text-anchor="middle" x="188" y="-466.5" font-family="Helvetica,sans-Serif" font-size="10.00">opus/opus.h</text>
</a>
</g>
</g>
<!-- Node28&#45;&gt;Node29 -->
<g id="edge30" class="edge">
<title>Node28&#45;&gt;Node29</title>
<path fill="none" stroke="midnightblue" d="M159.73,-520.98C164.58,-512.23 172.27,-498.37 178.4,-487.31"/>
<polygon fill="midnightblue" stroke="midnightblue" points="181.49,-488.95 183.28,-478.51 175.37,-485.56 181.49,-488.95"/>
</g>
<!-- Node30&#45;&gt;Node2 -->
<g id="edge32" class="edge">
<title>Node30&#45;&gt;Node2</title>
<path fill="none" stroke="midnightblue" d="M511.15,-403.42C491.49,-395.99 464.57,-383.78 445,-367 375.66,-307.55 298.97,-245.11 362,-179 395.5,-143.86 1093.93,-132.33 1337.27,-129.37"/>
<polygon fill="midnightblue" stroke="midnightblue" points="1337.51,-132.87 1347.47,-129.25 1337.43,-125.87 1337.51,-132.87"/>
</g>
<!-- Node31 -->
<g id="node31" class="node">
<title>Node31</title>
<g id="a_node31"><a xlink:href="../../d3/d4f/a00761.html" target="_top" xlink:title=" ">
<polygon fill="none" stroke="black" points="453.5,-347.5 453.5,-366.5 620.5,-366.5 620.5,-347.5 453.5,-347.5"/>
<text text-anchor="middle" x="537" y="-354.5" font-family="Helvetica,sans-Serif" font-size="10.00">discordcoreapi/ThreadPool.hpp</text>
</a>
</g>
</g>
<!-- Node30&#45;&gt;Node31 -->
<g id="edge33" class="edge">
<title>Node30&#45;&gt;Node31</title>
<path fill="none" stroke="midnightblue" d="M537,-403.08C537,-396.01 537,-385.86 537,-376.99"/>
<polygon fill="midnightblue" stroke="midnightblue" points="540.5,-376.75 537,-366.75 533.5,-376.75 540.5,-376.75"/>
</g>
<!-- Node31&#45;&gt;Node2 -->
<g id="edge34" class="edge">
<title>Node31&#45;&gt;Node2</title>
<path fill="none" stroke="midnightblue" d="M518.42,-347.36C464.88,-321.43 317.88,-242.1 378,-179 410.93,-144.44 1096.45,-132.55 1337.26,-129.43"/>
<polygon fill="midnightblue" stroke="midnightblue" points="1337.4,-132.93 1347.36,-129.3 1337.31,-125.93 1337.4,-132.93"/>
</g>
<!-- Node32 -->
<g id="node32" class="node">
<title>Node32</title>
<g id="a_node32"><a xlink:href="../../db/d7c/a00722.html" target="_top" xlink:title=" ">
<polygon fill="none" stroke="black" points="584,-291.5 584,-310.5 722,-310.5 722,-291.5 584,-291.5"/>
<text text-anchor="middle" x="653" y="-298.5" font-family="Helvetica,sans-Serif" font-size="10.00">discordcoreapi/Https.hpp</text>
</a>
</g>
</g>
<!-- Node31&#45;&gt;Node32 -->
<g id="edge35" class="edge">
<title>Node31&#45;&gt;Node32</title>
<path fill="none" stroke="midnightblue" d="M555.38,-347.44C574.22,-338.68 603.73,-324.94 625.38,-314.86"/>
<polygon fill="midnightblue" stroke="midnightblue" points="627.12,-317.91 634.71,-310.52 624.16,-311.56 627.12,-317.91"/>
</g>
<!-- Node47 -->
<g id="node47" class="node">
<title>Node47</title>
<g id="a_node47"><a xlink:title=" ">
<polygon fill="none" stroke="#bfbfbf" points="504,-291.5 504,-310.5 566,-310.5 566,-291.5 504,-291.5"/>
<text text-anchor="middle" x="535" y="-298.5" font-family="Helvetica,sans-Serif" font-size="10.00">coroutine</text>
</a>
</g>
</g>
<!-- Node31&#45;&gt;Node47 -->
<g id="edge52" class="edge">
<title>Node31&#45;&gt;Node47</title>
<path fill="none" stroke="midnightblue" d="M536.67,-347.08C536.41,-340.01 536.03,-329.86 535.7,-320.99"/>
<polygon fill="midnightblue" stroke="midnightblue" points="539.19,-320.61 535.32,-310.75 532.2,-320.87 539.19,-320.61"/>
</g>
<!-- Node33 -->
<g id="node33" class="node">
<title>Node33</title>
<g id="a_node33"><a xlink:href="../../d5/de8/a00749.html" target="_top" xlink:title=" ">
<polygon fill="none" stroke="black" points="865.5,-235.5 865.5,-254.5 1028.5,-254.5 1028.5,-235.5 865.5,-235.5"/>
<text text-anchor="middle" x="947" y="-242.5" font-family="Helvetica,sans-Serif" font-size="10.00">discordcoreapi/SSLClients.hpp</text>
</a>
</g>
</g>
<!-- Node32&#45;&gt;Node33 -->
<g id="edge36" class="edge">
<title>Node32&#45;&gt;Node33</title>
<path fill="none" stroke="midnightblue" d="M699.59,-291.44C751.41,-281.92 835.13,-266.55 890.62,-256.36"/>
<polygon fill="midnightblue" stroke="midnightblue" points="891.43,-259.77 900.63,-254.52 890.16,-252.88 891.43,-259.77"/>
</g>
<!-- Node33&#45;&gt;Node2 -->
<g id="edge37" class="edge">
<title>Node33&#45;&gt;Node2</title>
<path fill="none" stroke="midnightblue" d="M1028.69,-240.88C1151.74,-235.45 1373.26,-222.51 1401,-199 1414.28,-187.74 1418.78,-168.28 1420.1,-152.65"/>
<polygon fill="midnightblue" stroke="midnightblue" points="1423.6,-152.75 1420.57,-142.59 1416.6,-152.42 1423.6,-152.75"/>
</g>
<!-- Node34 -->
<g id="node34" class="node">
<title>Node34</title>
<g id="a_node34"><a xlink:href="../../d4/d6a/a00704.html" target="_top" xlink:title=" ">
<polygon fill="none" stroke="black" points="1448,-179.5 1448,-198.5 1624,-198.5 1624,-179.5 1448,-179.5"/>
<text text-anchor="middle" x="1536" y="-186.5" font-family="Helvetica,sans-Serif" font-size="10.00">discordcoreapi/EventEntities.hpp</text>
</a>
</g>
</g>
<!-- Node33&#45;&gt;Node34 -->
<g id="edge38" class="edge">
<title>Node33&#45;&gt;Node34</title>
<path fill="none" stroke="midnightblue" d="M1028.59,-236.52C1135.59,-226.71 1323.14,-209.52 1437.8,-199"/>
<polygon fill="midnightblue" stroke="midnightblue" points="1438.34,-202.47 1447.98,-198.07 1437.7,-195.5 1438.34,-202.47"/>
</g>
<!-- Node35 -->
<g id="node35" class="node">
<title>Node35</title>
<g id="a_node35"><a xlink:title=" ">
<polygon fill="none" stroke="#bfbfbf" points="1214.5,-179.5 1214.5,-198.5 1293.5,-198.5 1293.5,-179.5 1214.5,-179.5"/>
<text text-anchor="middle" x="1254" y="-186.5" font-family="Helvetica,sans-Serif" font-size="10.00">openssl/err.h</text>
</a>
</g>
</g>
<!-- Node33&#45;&gt;Node35 -->
<g id="edge40" class="edge">
<title>Node33&#45;&gt;Node35</title>
<path fill="none" stroke="midnightblue" d="M996.97,-235.42C1046.82,-226.83 1125.9,-213.12 1204.36,-199.1"/>
<polygon fill="midnightblue" stroke="midnightblue" points="1205.2,-202.51 1214.43,-197.3 1203.96,-195.62 1205.2,-202.51"/>
</g>
<!-- Node36 -->
<g id="node36" class="node">
<title>Node36</title>
<g id="a_node36"><a xlink:title=" ">
<polygon fill="none" stroke="#bfbfbf" points="1312,-179.5 1312,-198.5 1392,-198.5 1392,-179.5 1312,-179.5"/>
<text text-anchor="middle" x="1352" y="-186.5" font-family="Helvetica,sans-Serif" font-size="10.00">openssl/ssl.h</text>
</a>
</g>
</g>
<!-- Node33&#45;&gt;Node36 -->
<g id="edge41" class="edge">
<title>Node33&#45;&gt;Node36</title>
<path fill="none" stroke="midnightblue" d="M1024.26,-235.5C1094.16,-227.51 1200.17,-214.69 1301.78,-199.12"/>
<polygon fill="midnightblue" stroke="midnightblue" points="1302.57,-202.54 1311.92,-197.55 1301.5,-195.62 1302.57,-202.54"/>
</g>
<!-- Node37 -->
<g id="node37" class="node">
<title>Node37</title>
<g id="a_node37"><a xlink:title=" ">
<polygon fill="none" stroke="#bfbfbf" points="386.5,-179.5 386.5,-198.5 433.5,-198.5 433.5,-179.5 386.5,-179.5"/>
<text text-anchor="middle" x="410" y="-186.5" font-family="Helvetica,sans-Serif" font-size="10.00">fcntl.h</text>
</a>
</g>
</g>
<!-- Node33&#45;&gt;Node37 -->
<g id="edge42" class="edge">
<title>Node33&#45;&gt;Node37</title>
<path fill="none" stroke="midnightblue" d="M865.23,-241.15C767.19,-236.74 597.89,-225.95 443.8,-198.81"/>
<polygon fill="midnightblue" stroke="midnightblue" points="444.14,-195.31 433.68,-197 442.91,-202.2 444.14,-195.31"/>
</g>
<!-- Node38 -->
<g id="node38" class="node">
<title>Node38</title>
<g id="a_node38"><a xlink:title=" ">
<polygon fill="none" stroke="#bfbfbf" points="451.5,-179.5 451.5,-198.5 504.5,-198.5 504.5,-179.5 451.5,-179.5"/>
<text text-anchor="middle" x="478" y="-186.5" font-family="Helvetica,sans-Serif" font-size="10.00">netdb.h</text>
</a>
</g>
</g>
<!-- Node33&#45;&gt;Node38 -->
<g id="edge43" class="edge">
<title>Node33&#45;&gt;Node38</title>
<path fill="none" stroke="midnightblue" d="M865.12,-238.96C779.91,-232.92 642.52,-220.99 514.62,-198.86"/>
<polygon fill="midnightblue" stroke="midnightblue" points="515.1,-195.39 504.65,-197.11 513.89,-202.28 515.1,-195.39"/>
</g>
<!-- Node39 -->
<g id="node39" class="node">
<title>Node39</title>
<g id="a_node39"><a xlink:title=" ">
<polygon fill="none" stroke="#bfbfbf" points="523,-179.5 523,-198.5 595,-198.5 595,-179.5 523,-179.5"/>
<text text-anchor="middle" x="559" y="-186.5" font-family="Helvetica,sans-Serif" font-size="10.00">netinet/in.h</text>
</a>
</g>
</g>
<!-- Node33&#45;&gt;Node39 -->
<g id="edge44" class="edge">
<title>Node33&#45;&gt;Node39</title>
<path fill="none" stroke="midnightblue" d="M870.83,-235.49C803.49,-227.63 702.38,-214.99 605.3,-199.13"/>
<polygon fill="midnightblue" stroke="midnightblue" points="605.75,-195.65 595.31,-197.48 604.61,-202.56 605.75,-195.65"/>
</g>
<!-- Node40 -->
<g id="node40" class="node">
<title>Node40</title>
<g id="a_node40"><a xlink:title=" ">
<polygon fill="none" stroke="#bfbfbf" points="613,-179.5 613,-198.5 691,-198.5 691,-179.5 613,-179.5"/>
<text text-anchor="middle" x="652" y="-186.5" font-family="Helvetica,sans-Serif" font-size="10.00">netinet/tcp.h</text>
</a>
</g>
</g>
<!-- Node33&#45;&gt;Node40 -->
<g id="edge45" class="edge">
<title>Node33&#45;&gt;Node40</title>
<path fill="none" stroke="midnightblue" d="M900.3,-235.47C850.81,-226.42 770.4,-211.72 701,-199 700.9,-198.98 700.8,-198.96 700.7,-198.94"/>
<polygon fill="midnightblue" stroke="midnightblue" points="701.52,-195.54 691.05,-197.17 700.25,-202.42 701.52,-195.54"/>
</g>
<!-- Node41 -->
<g id="node41" class="node">
<title>Node41</title>
<g id="a_node41"><a xlink:title=" ">
<polygon fill="none" stroke="#bfbfbf" points="709.5,-179.5 709.5,-198.5 762.5,-198.5 762.5,-179.5 709.5,-179.5"/>
<text text-anchor="middle" x="736" y="-186.5" font-family="Helvetica,sans-Serif" font-size="10.00">stdint.h</text>
</a>
</g>
</g>
<!-- Node33&#45;&gt;Node41 -->
<g id="edge46" class="edge">
<title>Node33&#45;&gt;Node41</title>
<path fill="none" stroke="midnightblue" d="M913.57,-235.44C875.08,-225.59 812.09,-209.47 772.4,-199.32"/>
<polygon fill="midnightblue" stroke="midnightblue" points="773.15,-195.9 762.6,-196.81 771.42,-202.68 773.15,-195.9"/>
</g>
<!-- Node42 -->
<g id="node42" class="node">
<title>Node42</title>
<g id="a_node42"><a xlink:title=" ">
<polygon fill="none" stroke="#bfbfbf" points="780.5,-179.5 780.5,-198.5 849.5,-198.5 849.5,-179.5 780.5,-179.5"/>
<text text-anchor="middle" x="815" y="-186.5" font-family="Helvetica,sans-Serif" font-size="10.00">sys/epoll.h</text>
</a>
</g>
</g>
<!-- Node33&#45;&gt;Node42 -->
<g id="edge47" class="edge">
<title>Node33&#45;&gt;Node42</title>
<path fill="none" stroke="midnightblue" d="M926.08,-235.44C904.26,-226.52 869.85,-212.44 845.11,-202.32"/>
<polygon fill="midnightblue" stroke="midnightblue" points="846.4,-199.06 835.82,-198.52 843.75,-205.54 846.4,-199.06"/>
</g>
<!-- Node43 -->
<g id="node43" class="node">
<title>Node43</title>
<g id="a_node43"><a xlink:title=" ">
<polygon fill="none" stroke="#bfbfbf" points="867.5,-179.5 867.5,-198.5 936.5,-198.5 936.5,-179.5 867.5,-179.5"/>
<text text-anchor="middle" x="902" y="-186.5" font-family="Helvetica,sans-Serif" font-size="10.00">arpa/inet.h</text>
</a>
</g>
</g>
<!-- Node33&#45;&gt;Node43 -->
<g id="edge48" class="edge">
<title>Node33&#45;&gt;Node43</title>
<path fill="none" stroke="midnightblue" d="M939.57,-235.08C933.15,-227.38 923.69,-216.03 915.88,-206.65"/>
<polygon fill="midnightblue" stroke="midnightblue" points="918.38,-204.19 909.29,-198.75 913.01,-208.67 918.38,-204.19"/>
</g>
<!-- Node44 -->
<g id="node44" class="node">
<title>Node44</title>
<g id="a_node44"><a xlink:title=" ">
<polygon fill="none" stroke="#bfbfbf" points="954.5,-179.5 954.5,-198.5 1031.5,-198.5 1031.5,-179.5 954.5,-179.5"/>
<text text-anchor="middle" x="993" y="-186.5" font-family="Helvetica,sans-Serif" font-size="10.00">sys/socket.h</text>
</a>
</g>
</g>
<!-- Node33&#45;&gt;Node44 -->
<g id="edge49" class="edge">
<title>Node33&#45;&gt;Node44</title>
<path fill="none" stroke="midnightblue" d="M954.6,-235.08C961.23,-227.3 971.02,-215.8 979.06,-206.37"/>
<polygon fill="midnightblue" stroke="midnightblue" points="981.73,-208.63 985.55,-198.75 976.4,-204.09 981.73,-208.63"/>
</g>
<!-- Node45 -->
<g id="node45" class="node">
<title>Node45</title>
<g id="a_node45"><a xlink:title=" ">
<polygon fill="none" stroke="#bfbfbf" points="1050,-179.5 1050,-198.5 1122,-198.5 1122,-179.5 1050,-179.5"/>
<text text-anchor="middle" x="1086" y="-186.5" font-family="Helvetica,sans-Serif" font-size="10.00">sys/types.h</text>
</a>
</g>
</g>
<!-- Node33&#45;&gt;Node45 -->
<g id="edge50" class="edge">
<title>Node33&#45;&gt;Node45</title>
<path fill="none" stroke="midnightblue" d="M969.02,-235.44C992.1,-226.48 1028.56,-212.31 1054.64,-202.18"/>
<polygon fill="midnightblue" stroke="midnightblue" points="1056.02,-205.4 1064.08,-198.52 1053.49,-198.88 1056.02,-205.4"/>
</g>
<!-- Node46 -->
<g id="node46" class="node">
<title>Node46</title>
<g id="a_node46"><a xlink:title=" ">
<polygon fill="none" stroke="#bfbfbf" points="1140,-179.5 1140,-198.5 1196,-198.5 1196,-179.5 1140,-179.5"/>
<text text-anchor="middle" x="1168" y="-186.5" font-family="Helvetica,sans-Serif" font-size="10.00">unistd.h</text>
</a>
</g>
</g>
<!-- Node33&#45;&gt;Node46 -->
<g id="edge51" class="edge">
<title>Node33&#45;&gt;Node46</title>
<path fill="none" stroke="midnightblue" d="M982.02,-235.44C1022.38,-225.58 1088.49,-209.43 1130.06,-199.27"/>
<polygon fill="midnightblue" stroke="midnightblue" points="1130.92,-202.66 1139.81,-196.89 1129.26,-195.86 1130.92,-202.66"/>
</g>
<!-- Node34&#45;&gt;Node2 -->
<g id="edge39" class="edge">
<title>Node34&#45;&gt;Node2</title>
<path fill="none" stroke="midnightblue" d="M1519.38,-179.48C1503.01,-171.08 1477.46,-157.97 1456.37,-147.15"/>
<polygon fill="midnightblue" stroke="midnightblue" points="1457.83,-143.97 1447.34,-142.52 1454.64,-150.2 1457.83,-143.97"/>
</g>
<!-- Node48&#45;&gt;Node2 -->
<g id="edge54" class="edge">
<title>Node48&#45;&gt;Node2</title>
<path fill="none" stroke="midnightblue" d="M1675.15,-527.35C1811.18,-521.31 2092,-498.61 2092,-414 2092,-414 2092,-414 2092,-244 2092,-210.08 2080.93,-196.71 2052,-179 2006.24,-150.98 1663.6,-136.35 1502.83,-130.96"/>
<polygon fill="midnightblue" stroke="midnightblue" points="1502.62,-127.46 1492.51,-130.62 1502.39,-134.45 1502.62,-127.46"/>
</g>
<!-- Node48&#45;&gt;Node31 -->
<g id="edge67" class="edge">
<title>Node48&#45;&gt;Node31</title>
<path fill="none" stroke="midnightblue" d="M1530.87,-520.53C1455.84,-511 1335.02,-495.12 1231,-479 992.6,-442.05 709.56,-390.2 592.21,-368.35"/>
<polygon fill="midnightblue" stroke="midnightblue" points="592.85,-364.91 582.37,-366.52 591.56,-371.79 592.85,-364.91"/>
</g>
<!-- Node48&#45;&gt;Node33 -->
<g id="edge66" class="edge">
<title>Node48&#45;&gt;Node33</title>
<path fill="none" stroke="midnightblue" d="M1530.98,-521.08C1426.44,-506.83 1245,-473.51 1245,-414 1245,-414 1245,-414 1245,-356 1245,-306.48 1098.36,-272.31 1010.81,-256.32"/>
<polygon fill="midnightblue" stroke="midnightblue" points="1011.43,-252.87 1000.97,-254.55 1010.19,-259.76 1011.43,-252.87"/>
</g>
<!-- Node48&#45;&gt;Node34 -->
<g id="edge65" class="edge">
<title>Node48&#45;&gt;Node34</title>
<path fill="none" stroke="midnightblue" d="M1586.62,-515.49C1576.53,-506.08 1564.03,-492.9 1556,-479 1540.88,-452.83 1536,-444.23 1536,-414 1536,-414 1536,-414 1536,-300 1536,-267.95 1536,-230.64 1536,-208.75"/>
<polygon fill="midnightblue" stroke="midnightblue" points="1539.5,-208.56 1536,-198.56 1532.5,-208.56 1539.5,-208.56"/>
</g>
<!-- Node49 -->
<g id="node49" class="node">
<title>Node49</title>
<g id="a_node49"><a xlink:href="../../d4/d9b/a00680.html" target="_top" xlink:title=" ">
<polygon fill="none" stroke="black" points="1656.5,-235.5 1656.5,-254.5 1835.5,-254.5 1835.5,-235.5 1656.5,-235.5"/>
<text text-anchor="middle" x="1746" y="-242.5" font-family="Helvetica,sans-Serif" font-size="10.00">discordcoreapi/AudioDecoder.hpp</text>
</a>
</g>
</g>
<!-- Node48&#45;&gt;Node49 -->
<g id="edge55" class="edge">
<title>Node48&#45;&gt;Node49</title>
<path fill="none" stroke="midnightblue" d="M1675.06,-529.18C1757.13,-524.57 1880,-502.84 1880,-414 1880,-414 1880,-414 1880,-356 1880,-305.39 1822.2,-273.81 1782.52,-258.09"/>
<polygon fill="midnightblue" stroke="midnightblue" points="1783.71,-254.8 1773.12,-254.53 1781.23,-261.35 1783.71,-254.8"/>
</g>
<!-- Node52 -->
<g id="node52" class="node">
<title>Node52</title>
<g id="a_node52"><a xlink:href="../../d0/db6/a00692.html" target="_top" xlink:title=" ">
<polygon fill="none" stroke="black" points="1564.5,-459.5 1564.5,-478.5 1773.5,-478.5 1773.5,-459.5 1564.5,-459.5"/>
<text text-anchor="middle" x="1669" y="-466.5" font-family="Helvetica,sans-Serif" font-size="10.00">discordcoreapi/CommandController.hpp</text>
</a>
</g>
</g>
<!-- Node48&#45;&gt;Node52 -->
<g id="edge60" class="edge">
<title>Node48&#45;&gt;Node52</title>
<path fill="none" stroke="midnightblue" d="M1618.64,-515.4C1628.63,-506.4 1641.58,-494.72 1651.85,-485.47"/>
<polygon fill="midnightblue" stroke="midnightblue" points="1654.31,-487.95 1659.4,-478.66 1649.63,-482.75 1654.31,-487.95"/>
</g>
<!-- Node53 -->
<g id="node53" class="node">
<title>Node53</title>
<g id="a_node53"><a xlink:href="../../dd/d57/a00701.html" target="_top" xlink:title=" ">
<polygon fill="none" stroke="black" points="1908.5,-403.5 1908.5,-422.5 2063.5,-422.5 2063.5,-403.5 1908.5,-403.5"/>
<text text-anchor="middle" x="1986" y="-410.5" font-family="Helvetica,sans-Serif" font-size="10.00">discordcoreapi/ErlPacker.hpp</text>
</a>
</g>
</g>
<!-- Node48&#45;&gt;Node53 -->
<g id="edge63" class="edge">
<title>Node48&#45;&gt;Node53</title>
<path fill="none" stroke="midnightblue" d="M1675.12,-525.84C1735.56,-520.72 1823.08,-508.44 1894,-479 1923.03,-466.95 1951.86,-444.42 1969.31,-429.31"/>
<polygon fill="midnightblue" stroke="midnightblue" points="1971.75,-431.82 1976.91,-422.57 1967.11,-426.58 1971.75,-431.82"/>
</g>
<!-- Node49&#45;&gt;Node2 -->
<g id="edge57" class="edge">
<title>Node49&#45;&gt;Node2</title>
<path fill="none" stroke="midnightblue" d="M1732.13,-235.34C1706.66,-219.57 1653.2,-187.01 1633,-179 1591.31,-162.47 1542.8,-150.45 1502.61,-142.3"/>
<polygon fill="midnightblue" stroke="midnightblue" points="1503.07,-138.82 1492.58,-140.31 1501.71,-145.69 1503.07,-138.82"/>
</g>
<!-- Node49&#45;&gt;Node34 -->
<g id="edge56" class="edge">
<title>Node49&#45;&gt;Node34</title>
<path fill="none" stroke="midnightblue" d="M1712.72,-235.44C1676.55,-226.14 1618.62,-211.25 1579.02,-201.06"/>
<polygon fill="midnightblue" stroke="midnightblue" points="1579.68,-197.62 1569.12,-198.52 1577.93,-204.4 1579.68,-197.62"/>
</g>
<!-- Node50 -->
<g id="node50" class="node">
<title>Node50</title>
<g id="a_node50"><a xlink:title=" ">
<polygon fill="none" stroke="#bfbfbf" points="1680.5,-179.5 1680.5,-198.5 1811.5,-198.5 1811.5,-179.5 1680.5,-179.5"/>
<text text-anchor="middle" x="1746" y="-186.5" font-family="Helvetica,sans-Serif" font-size="10.00">libavformat/avformat.h</text>
</a>
</g>
</g>
<!-- Node49&#45;&gt;Node50 -->
<g id="edge58" class="edge">
<title>Node49&#45;&gt;Node50</title>
<path fill="none" stroke="midnightblue" d="M1746,-235.08C1746,-228.01 1746,-217.86 1746,-208.99"/>
<polygon fill="midnightblue" stroke="midnightblue" points="1749.5,-208.75 1746,-198.75 1742.5,-208.75 1749.5,-208.75"/>
</g>
<!-- Node51 -->
<g id="node51" class="node">
<title>Node51</title>
<g id="a_node51"><a xlink:title=" ">
<polygon fill="none" stroke="#bfbfbf" points="1829.5,-179.5 1829.5,-198.5 1988.5,-198.5 1988.5,-179.5 1829.5,-179.5"/>
<text text-anchor="middle" x="1909" y="-186.5" font-family="Helvetica,sans-Serif" font-size="10.00">libswresample/swresample.h</text>
</a>
</g>
</g>
<!-- Node49&#45;&gt;Node51 -->
<g id="edge59" class="edge">
<title>Node49&#45;&gt;Node51</title>
<path fill="none" stroke="midnightblue" d="M1771.83,-235.44C1799.25,-226.36 1842.78,-211.94 1873.43,-201.78"/>
<polygon fill="midnightblue" stroke="midnightblue" points="1874.9,-204.98 1883.29,-198.52 1872.7,-198.34 1874.9,-204.98"/>
</g>
<!-- Node52&#45;&gt;Node2 -->
<g id="edge61" class="edge">
<title>Node52&#45;&gt;Node2</title>
<path fill="none" stroke="midnightblue" d="M1694.36,-459.44C1789.01,-426.26 2110.62,-301.89 1998,-179 1965.24,-143.25 1654.69,-132.71 1502.82,-129.68"/>
<polygon fill="midnightblue" stroke="midnightblue" points="1502.68,-126.18 1492.61,-129.48 1502.54,-133.18 1502.68,-126.18"/>
</g>
<!-- Node52&#45;&gt;Node30 -->
<g id="edge62" class="edge">
<title>Node52&#45;&gt;Node30</title>
<path fill="none" stroke="midnightblue" d="M1564.28,-463C1344.12,-452.5 836.47,-428.29 628.44,-418.36"/>
<polygon fill="midnightblue" stroke="midnightblue" points="628.32,-414.85 618.17,-417.87 627.99,-421.84 628.32,-414.85"/>
</g>
<!-- Node53&#45;&gt;Node2 -->
<g id="edge64" class="edge">
<title>Node53&#45;&gt;Node2</title>
<path fill="none" stroke="midnightblue" d="M1996.03,-403.43C2014.95,-386.27 2054,-345.56 2054,-302 2054,-302 2054,-302 2054,-244 2054,-213.2 2054.52,-197.63 2030,-179 1988.97,-147.82 1659.85,-134.9 1502.81,-130.46"/>
<polygon fill="midnightblue" stroke="midnightblue" points="1502.81,-126.96 1492.72,-130.19 1502.62,-133.96 1502.81,-126.96"/>
</g>
<!-- Node55&#45;&gt;Node2 -->
<g id="edge70" class="edge">
<title>Node55&#45;&gt;Node2</title>
<path fill="none" stroke="midnightblue" d="M548.97,-705.47C505.81,-690.39 428,-654.65 428,-593 428,-593 428,-593 428,-468 428,-334.12 243.16,-268.2 343,-179 379.9,-146.04 1090.7,-133.07 1336.9,-129.56"/>
<polygon fill="midnightblue" stroke="midnightblue" points="1337.27,-133.06 1347.22,-129.41 1337.17,-126.06 1337.27,-133.06"/>
</g>
<!-- Node55&#45;&gt;Node32 -->
<g id="edge77" class="edge">
<title>Node55&#45;&gt;Node32</title>
<path fill="none" stroke="midnightblue" d="M586.98,-705.41C607.18,-687.01 651,-641.51 651,-593 651,-593 651,-593 651,-412 651,-379.94 651.86,-342.64 652.45,-320.75"/>
<polygon fill="midnightblue" stroke="midnightblue" points="655.96,-320.65 652.74,-310.56 648.96,-320.45 655.96,-320.65"/>
</g>
<!-- Node56 -->
<g id="node56" class="node">
<title>Node56</title>
<g id="a_node56"><a xlink:href="../../d2/d94/a00716.html" target="_top" xlink:title=" ">
<polygon fill="none" stroke="black" points="1284.5,-638.5 1284.5,-668.5 1441.5,-668.5 1441.5,-638.5 1284.5,-638.5"/>
<text text-anchor="start" x="1292.5" y="-656.5" font-family="Helvetica,sans-Serif" font-size="10.00">discordcoreapi/GuildMember</text>
<text text-anchor="middle" x="1363" y="-645.5" font-family="Helvetica,sans-Serif" font-size="10.00">Entities.hpp</text>
</a>
</g>
</g>
<!-- Node55&#45;&gt;Node56 -->
<g id="edge71" class="edge">
<title>Node55&#45;&gt;Node56</title>
<path fill="none" stroke="midnightblue" d="M662.24,-707.55C812.2,-696.2 1121.73,-672.76 1274.18,-661.22"/>
<polygon fill="midnightblue" stroke="midnightblue" points="1274.73,-664.69 1284.44,-660.45 1274.2,-657.71 1274.73,-664.69"/>
</g>
<!-- Node56&#45;&gt;Node2 -->
<g id="edge72" class="edge">
<title>Node56&#45;&gt;Node2</title>
<path fill="none" stroke="midnightblue" d="M1441.65,-648.86C1644.21,-638.45 2168,-604.46 2168,-531.5 2168,-531.5 2168,-531.5 2168,-244 2168,-204.68 2143.41,-196.08 2108,-179 2054.71,-153.3 1673.83,-137.19 1502.79,-131.17"/>
<polygon fill="midnightblue" stroke="midnightblue" points="1502.69,-127.67 1492.57,-130.82 1502.44,-134.66 1502.69,-127.67"/>
</g>
<!-- Node56&#45;&gt;Node32 -->
<g id="edge76" class="edge">
<title>Node56&#45;&gt;Node32</title>
<path fill="none" stroke="midnightblue" d="M1284.42,-645.29C1214.42,-634.04 1123,-605.23 1123,-531.5 1123,-531.5 1123,-531.5 1123,-412 1123,-332.72 866.29,-310.54 732.31,-304.37"/>
<polygon fill="midnightblue" stroke="midnightblue" points="732.24,-300.86 722.1,-303.92 731.93,-307.85 732.24,-300.86"/>
</g>
<!-- Node57 -->
<g id="node57" class="node">
<title>Node57</title>
<g id="a_node57"><a xlink:href="../../d3/d2c/a00764.html" target="_top" xlink:title=" ">
<polygon fill="none" stroke="black" points="1517.5,-582.5 1517.5,-601.5 1688.5,-601.5 1688.5,-582.5 1517.5,-582.5"/>
<text text-anchor="middle" x="1603" y="-589.5" font-family="Helvetica,sans-Serif" font-size="10.00">discordcoreapi/UserEntities.hpp</text>
</a>
</g>
</g>
<!-- Node56&#45;&gt;Node57 -->
<g id="edge73" class="edge">
<title>Node56&#45;&gt;Node57</title>
<path fill="none" stroke="midnightblue" d="M1419.57,-638.47C1462.15,-627.92 1519.68,-613.66 1558.89,-603.94"/>
<polygon fill="midnightblue" stroke="midnightblue" points="1559.82,-607.31 1568.69,-601.51 1558.14,-600.52 1559.82,-607.31"/>
</g>
<!-- Node57&#45;&gt;Node2 -->
<g id="edge74" class="edge">
<title>Node57&#45;&gt;Node2</title>
<path fill="none" stroke="midnightblue" d="M1688.55,-588.86C1837.79,-582.79 2130,-559.47 2130,-470 2130,-470 2130,-470 2130,-244 2130,-207 2110.71,-196.29 2078,-179 2028.3,-152.73 1668.05,-137.06 1502.64,-131.17"/>
<polygon fill="midnightblue" stroke="midnightblue" points="1502.63,-127.67 1492.51,-130.82 1502.38,-134.67 1502.63,-127.67"/>
</g>
<!-- Node57&#45;&gt;Node48 -->
<g id="edge75" class="edge">
<title>Node57&#45;&gt;Node48</title>
<path fill="none" stroke="midnightblue" d="M1603,-582.48C1603,-575.47 1603,-565.19 1603,-555.7"/>
<polygon fill="midnightblue" stroke="midnightblue" points="1606.5,-555.52 1603,-545.52 1599.5,-555.52 1606.5,-555.52"/>
</g>
<!-- Node58&#45;&gt;Node2 -->
<g id="edge79" class="edge">
<title>Node58&#45;&gt;Node2</title>
<path fill="none" stroke="midnightblue" d="M241.86,-347.29C235.3,-318.24 218.76,-223.95 268,-179 307.39,-143.04 1079.83,-131.95 1337.3,-129.25"/>
<polygon fill="midnightblue" stroke="midnightblue" points="1337.37,-132.75 1347.34,-129.14 1337.3,-125.75 1337.37,-132.75"/>
</g>
<!-- Node58&#45;&gt;Node32 -->
<g id="edge80" class="edge">
<title>Node58&#45;&gt;Node32</title>
<path fill="none" stroke="midnightblue" d="M308.81,-347.44C382.1,-337.77 501.25,-322.04 578.37,-311.85"/>
<polygon fill="midnightblue" stroke="midnightblue" points="579.04,-315.3 588.5,-310.52 578.12,-308.36 579.04,-315.3"/>
</g>
</g>
</svg>
