<?xml version="1.0" encoding="UTF-8" standalone="no"?>
<!DOCTYPE svg PUBLIC "-//W3C//DTD SVG 1.1//EN"
 "http://www.w3.org/Graphics/SVG/1.1/DTD/svg11.dtd">
<!-- Generated by graphviz version 3.0.0 (20220226.1711)
 -->
<!-- Title: GuildEntities.hpp Pages: 1 -->
<svg width="2069pt" height="789pt"
 viewBox="0.00 0.00 2068.50 789.00" xmlns="http://www.w3.org/2000/svg" xmlns:xlink="http://www.w3.org/1999/xlink">
<g id="graph0" class="graph" transform="scale(1 1) rotate(0) translate(4 785)">
<title>GuildEntities.hpp</title>
<!-- Node1 -->
<g id="node1" class="node">
<title>Node1</title>
<g id="a_node1"><a xlink:title=" ">
<polygon fill="#bfbfbf" stroke="black" points="293.5,-761.5 293.5,-780.5 384.5,-780.5 384.5,-761.5 293.5,-761.5"/>
<text text-anchor="middle" x="339" y="-768.5" font-family="Helvetica,sans-Serif" font-size="10.00">GuildEntities.hpp</text>
</a>
</g>
</g>
<!-- Node2 -->
<g id="node2" class="node">
<title>Node2</title>
<g id="a_node2"><a xlink:href="$d4/deb/a00710.html" xlink:title=" ">
<polygon fill="none" stroke="black" points="1272.5,-112.5 1272.5,-142.5 1403.5,-142.5 1403.5,-112.5 1272.5,-112.5"/>
<text text-anchor="start" x="1280.5" y="-130.5" font-family="Helvetica,sans-Serif" font-size="10.00">discordcoreapi/Foundation</text>
<text text-anchor="middle" x="1338" y="-119.5" font-family="Helvetica,sans-Serif" font-size="10.00">Entities.hpp</text>
</a>
</g>
</g>
<!-- Node1&#45;&gt;Node2 -->
<g id="edge1" class="edge">
<title>Node1&#45;&gt;Node2</title>
<path fill="none" stroke="midnightblue" d="M293.28,-764.18C200.75,-751.13 0,-715.74 0,-654.5 0,-654.5 0,-654.5 0,-244 0,-203.77 26.27,-195.42 63,-179 172.21,-130.19 1004.74,-127.79 1262.3,-128.24"/>
<polygon fill="midnightblue" stroke="midnightblue" points="1262.31,-131.74 1272.32,-128.26 1262.32,-124.74 1262.31,-131.74"/>
</g>
<!-- Node27 -->
<g id="node27" class="node">
<title>Node27</title>
<g id="a_node27"><a xlink:href="$d0/d7e/a00770.html" xlink:title=" ">
<polygon fill="none" stroke="black" points="164.5,-582.5 164.5,-601.5 339.5,-601.5 339.5,-582.5 164.5,-582.5"/>
<text text-anchor="middle" x="252" y="-589.5" font-family="Helvetica,sans-Serif" font-size="10.00">discordcoreapi/VoiceConnection.hpp</text>
</a>
</g>
</g>
<!-- Node1&#45;&gt;Node27 -->
<g id="edge26" class="edge">
<title>Node1&#45;&gt;Node27</title>
<path fill="none" stroke="midnightblue" d="M334.8,-761.46C321.4,-734.19 279.42,-648.78 260.91,-611.13"/>
<polygon fill="midnightblue" stroke="midnightblue" points="263.91,-609.3 256.36,-601.87 257.63,-612.39 263.91,-609.3"/>
</g>
<!-- Node55 -->
<g id="node55" class="node">
<title>Node55</title>
<g id="a_node55"><a xlink:href="$dc/dce/a00740.html" xlink:title=" ">
<polygon fill="none" stroke="black" points="464,-705.5 464,-724.5 618,-724.5 618,-705.5 464,-705.5"/>
<text text-anchor="middle" x="541" y="-712.5" font-family="Helvetica,sans-Serif" font-size="10.00">discordcoreapi/RoleEntities.hpp</text>
</a>
</g>
</g>
<!-- Node1&#45;&gt;Node55 -->
<g id="edge69" class="edge">
<title>Node1&#45;&gt;Node55</title>
<path fill="none" stroke="midnightblue" d="M371.01,-761.44C405.73,-752.16 461.29,-737.31 499.38,-727.13"/>
<polygon fill="midnightblue" stroke="midnightblue" points="500.39,-730.48 509.14,-724.52 498.58,-723.72 500.39,-730.48"/>
</g>
<!-- Node58 -->
<g id="node58" class="node">
<title>Node58</title>
<g id="a_node58"><a xlink:href="$d1/d87/a00689.html" xlink:title=" ">
<polygon fill="none" stroke="black" points="140,-347.5 140,-366.5 310,-366.5 310,-347.5 140,-347.5"/>
<text text-anchor="middle" x="225" y="-354.5" font-family="Helvetica,sans-Serif" font-size="10.00">discordcoreapi/ChannelEntities.hpp</text>
</a>
</g>
</g>
<!-- Node1&#45;&gt;Node58 -->
<g id="edge78" class="edge">
<title>Node1&#45;&gt;Node58</title>
<path fill="none" stroke="midnightblue" d="M342.67,-761.49C350.48,-742.61 368,-695.64 368,-654.5 368,-654.5 368,-654.5 368,-468 368,-415.84 307.49,-384.99 265.19,-369.8"/>
<polygon fill="midnightblue" stroke="midnightblue" points="266.27,-366.47 255.68,-366.54 264,-373.09 266.27,-366.47"/>
</g>
<!-- Node3 -->
<g id="node3" class="node">
<title>Node3</title>
<g id="a_node3"><a xlink:href="$d5/dae/a00767.html" xlink:title=" ">
<polygon fill="none" stroke="black" points="1271,-56.5 1271,-75.5 1405,-75.5 1405,-56.5 1271,-56.5"/>
<text text-anchor="middle" x="1338" y="-63.5" font-family="Helvetica,sans-Serif" font-size="10.00">discordcoreapi/Utilities.hpp</text>
</a>
</g>
</g>
<!-- Node2&#45;&gt;Node3 -->
<g id="edge2" class="edge">
<title>Node2&#45;&gt;Node3</title>
<path fill="none" stroke="midnightblue" d="M1338,-112.4C1338,-104.47 1338,-94.46 1338,-85.86"/>
<polygon fill="midnightblue" stroke="midnightblue" points="1341.5,-85.66 1338,-75.66 1334.5,-85.66 1341.5,-85.66"/>
</g>
<!-- Node4 -->
<g id="node4" class="node">
<title>Node4</title>
<g id="a_node4"><a xlink:title=" ">
<polygon fill="none" stroke="#bfbfbf" points="344.5,-0.5 344.5,-19.5 401.5,-19.5 401.5,-0.5 344.5,-0.5"/>
<text text-anchor="middle" x="373" y="-7.5" font-family="Helvetica,sans-Serif" font-size="10.00">pthread.h</text>
</a>
</g>
</g>
<!-- Node3&#45;&gt;Node4 -->
<g id="edge3" class="edge">
<title>Node3&#45;&gt;Node4</title>
<path fill="none" stroke="midnightblue" d="M1270.95,-63.35C1090.43,-58.65 596.03,-44.07 411.65,-19.74"/>
<polygon fill="midnightblue" stroke="midnightblue" points="411.91,-16.24 401.53,-18.35 410.96,-23.18 411.91,-16.24"/>
</g>
<!-- Node5 -->
<g id="node5" class="node">
<title>Node5</title>
<g id="a_node5"><a xlink:title=" ">
<polygon fill="none" stroke="#bfbfbf" points="420,-0.5 420,-19.5 482,-19.5 482,-0.5 420,-0.5"/>
<text text-anchor="middle" x="451" y="-7.5" font-family="Helvetica,sans-Serif" font-size="10.00">sys/time.h</text>
</a>
</g>
</g>
<!-- Node3&#45;&gt;Node5 -->
<g id="edge4" class="edge">
<title>Node3&#45;&gt;Node5</title>
<path fill="none" stroke="midnightblue" d="M1270.93,-65.26C1128.85,-64.97 787.07,-59.92 492.37,-19.95"/>
<polygon fill="midnightblue" stroke="midnightblue" points="492.73,-16.47 482.35,-18.58 491.78,-23.4 492.73,-16.47"/>
</g>
<!-- Node6 -->
<g id="node6" class="node">
<title>Node6</title>
<g id="a_node6"><a xlink:title=" ">
<polygon fill="none" stroke="#bfbfbf" points="500,-0.5 500,-19.5 544,-19.5 544,-0.5 500,-0.5"/>
<text text-anchor="middle" x="522" y="-7.5" font-family="Helvetica,sans-Serif" font-size="10.00">time.h</text>
</a>
</g>
</g>
<!-- Node3&#45;&gt;Node6 -->
<g id="edge5" class="edge">
<title>Node3&#45;&gt;Node6</title>
<path fill="none" stroke="midnightblue" d="M1270.77,-63.01C1110.73,-57.99 709.63,-43.6 554.54,-19.59"/>
<polygon fill="midnightblue" stroke="midnightblue" points="554.67,-16.07 544.24,-17.92 553.55,-22.98 554.67,-16.07"/>
</g>
<!-- Node7 -->
<g id="node7" class="node">
<title>Node7</title>
<g id="a_node7"><a xlink:title=" ">
<polygon fill="none" stroke="#bfbfbf" points="562.5,-0.5 562.5,-19.5 603.5,-19.5 603.5,-0.5 562.5,-0.5"/>
<text text-anchor="middle" x="583" y="-7.5" font-family="Helvetica,sans-Serif" font-size="10.00">ctime</text>
</a>
</g>
</g>
<!-- Node3&#45;&gt;Node7 -->
<g id="edge6" class="edge">
<title>Node3&#45;&gt;Node7</title>
<path fill="none" stroke="midnightblue" d="M1271,-62.81C1119.98,-57.55 755.83,-43.07 613.37,-19.54"/>
<polygon fill="midnightblue" stroke="midnightblue" points="613.96,-16.09 603.51,-17.83 612.76,-22.98 613.96,-16.09"/>
</g>
<!-- Node8 -->
<g id="node8" class="node">
<title>Node8</title>
<g id="a_node8"><a xlink:title=" ">
<polygon fill="none" stroke="#bfbfbf" points="621.5,-0.5 621.5,-19.5 714.5,-19.5 714.5,-0.5 621.5,-0.5"/>
<text text-anchor="middle" x="668" y="-7.5" font-family="Helvetica,sans-Serif" font-size="10.00">condition_variable</text>
</a>
</g>
</g>
<!-- Node3&#45;&gt;Node8 -->
<g id="edge7" class="edge">
<title>Node3&#45;&gt;Node8</title>
<path fill="none" stroke="midnightblue" d="M1270.59,-61.96C1159.2,-56.53 929.55,-43.55 724.75,-19.98"/>
<polygon fill="midnightblue" stroke="midnightblue" points="725.05,-16.49 714.71,-18.82 724.24,-23.45 725.05,-16.49"/>
</g>
<!-- Node9 -->
<g id="node9" class="node">
<title>Node9</title>
<g id="a_node9"><a xlink:title=" ">
<polygon fill="none" stroke="#bfbfbf" points="733,-0.5 733,-19.5 831,-19.5 831,-0.5 733,-0.5"/>
<text text-anchor="middle" x="782" y="-7.5" font-family="Helvetica,sans-Serif" font-size="10.00">nlohmann/json.hpp</text>
</a>
</g>
</g>
<!-- Node3&#45;&gt;Node9 -->
<g id="edge8" class="edge">
<title>Node3&#45;&gt;Node9</title>
<path fill="none" stroke="midnightblue" d="M1270.74,-60.22C1177.04,-53.27 1001.68,-39.21 841.28,-19.95"/>
<polygon fill="midnightblue" stroke="midnightblue" points="841.57,-16.46 831.22,-18.74 840.73,-23.41 841.57,-16.46"/>
</g>
<!-- Node10 -->
<g id="node10" class="node">
<title>Node10</title>
<g id="a_node10"><a xlink:title=" ">
<polygon fill="none" stroke="#bfbfbf" points="849.5,-0.5 849.5,-19.5 934.5,-19.5 934.5,-0.5 849.5,-0.5"/>
<text text-anchor="middle" x="892" y="-7.5" font-family="Helvetica,sans-Serif" font-size="10.00">source_location</text>
</a>
</g>
</g>
<!-- Node3&#45;&gt;Node10 -->
<g id="edge9" class="edge">
<title>Node3&#45;&gt;Node10</title>
<path fill="none" stroke="midnightblue" d="M1270.92,-58.53C1194.54,-50.89 1065.77,-37.21 944.72,-20.02"/>
<polygon fill="midnightblue" stroke="midnightblue" points="944.93,-16.52 934.54,-18.57 943.94,-23.45 944.93,-16.52"/>
</g>
<!-- Node11 -->
<g id="node11" class="node">
<title>Node11</title>
<g id="a_node11"><a xlink:title=" ">
<polygon fill="none" stroke="#bfbfbf" points="952.5,-0.5 952.5,-19.5 1035.5,-19.5 1035.5,-0.5 952.5,-0.5"/>
<text text-anchor="middle" x="994" y="-7.5" font-family="Helvetica,sans-Serif" font-size="10.00">unordered_map</text>
</a>
</g>
</g>
<!-- Node3&#45;&gt;Node11 -->
<g id="edge10" class="edge">
<title>Node3&#45;&gt;Node11</title>
<path fill="none" stroke="midnightblue" d="M1280.12,-56.5C1223.17,-48.05 1133.46,-34.5 1045.85,-20.11"/>
<polygon fill="midnightblue" stroke="midnightblue" points="1046.17,-16.62 1035.74,-18.44 1045.03,-23.52 1046.17,-16.62"/>
</g>
<!-- Node12 -->
<g id="node12" class="node">
<title>Node12</title>
<g id="a_node12"><a xlink:title=" ">
<polygon fill="none" stroke="#bfbfbf" points="1054,-0.5 1054,-19.5 1132,-19.5 1132,-0.5 1054,-0.5"/>
<text text-anchor="middle" x="1093" y="-7.5" font-family="Helvetica,sans-Serif" font-size="10.00">shared_mutex</text>
</a>
</g>
</g>
<!-- Node3&#45;&gt;Node12 -->
<g id="edge11" class="edge">
<title>Node3&#45;&gt;Node12</title>
<path fill="none" stroke="midnightblue" d="M1299.18,-56.44C1256.44,-47.02 1187.67,-31.87 1141.43,-21.68"/>
<polygon fill="midnightblue" stroke="midnightblue" points="1142.16,-18.25 1131.64,-19.52 1140.65,-25.09 1142.16,-18.25"/>
</g>
<!-- Node13 -->
<g id="node13" class="node">
<title>Node13</title>
<g id="a_node13"><a xlink:title=" ">
<polygon fill="none" stroke="#bfbfbf" points="1150,-0.5 1150,-19.5 1208,-19.5 1208,-0.5 1150,-0.5"/>
<text text-anchor="middle" x="1179" y="-7.5" font-family="Helvetica,sans-Serif" font-size="10.00">functional</text>
</a>
</g>
</g>
<!-- Node3&#45;&gt;Node13 -->
<g id="edge12" class="edge">
<title>Node3&#45;&gt;Node13</title>
<path fill="none" stroke="midnightblue" d="M1312.81,-56.44C1286.06,-47.36 1243.6,-32.94 1213.69,-22.78"/>
<polygon fill="midnightblue" stroke="midnightblue" points="1214.67,-19.42 1204.08,-19.52 1212.42,-26.05 1214.67,-19.42"/>
</g>
<!-- Node14 -->
<g id="node14" class="node">
<title>Node14</title>
<g id="a_node14"><a xlink:title=" ">
<polygon fill="none" stroke="#bfbfbf" points="1226.5,-0.5 1226.5,-19.5 1291.5,-19.5 1291.5,-0.5 1226.5,-0.5"/>
<text text-anchor="middle" x="1259" y="-7.5" font-family="Helvetica,sans-Serif" font-size="10.00">semaphore</text>
</a>
</g>
</g>
<!-- Node3&#45;&gt;Node14 -->
<g id="edge13" class="edge">
<title>Node3&#45;&gt;Node14</title>
<path fill="none" stroke="midnightblue" d="M1325.31,-56.32C1313.1,-47.98 1294.42,-35.21 1280,-25.35"/>
<polygon fill="midnightblue" stroke="midnightblue" points="1281.89,-22.41 1271.66,-19.65 1277.94,-28.19 1281.89,-22.41"/>
</g>
<!-- Node15 -->
<g id="node15" class="node">
<title>Node15</title>
<g id="a_node15"><a xlink:title=" ">
<polygon fill="none" stroke="#bfbfbf" points="1310,-0.5 1310,-19.5 1366,-19.5 1366,-0.5 1310,-0.5"/>
<text text-anchor="middle" x="1338" y="-7.5" font-family="Helvetica,sans-Serif" font-size="10.00">concepts</text>
</a>
</g>
</g>
<!-- Node3&#45;&gt;Node15 -->
<g id="edge14" class="edge">
<title>Node3&#45;&gt;Node15</title>
<path fill="none" stroke="midnightblue" d="M1338,-56.08C1338,-49.01 1338,-38.86 1338,-29.99"/>
<polygon fill="midnightblue" stroke="midnightblue" points="1341.5,-29.75 1338,-19.75 1334.5,-29.75 1341.5,-29.75"/>
</g>
<!-- Node16 -->
<g id="node16" class="node">
<title>Node16</title>
<g id="a_node16"><a xlink:title=" ">
<polygon fill="none" stroke="#bfbfbf" points="1384,-0.5 1384,-19.5 1438,-19.5 1438,-0.5 1384,-0.5"/>
<text text-anchor="middle" x="1411" y="-7.5" font-family="Helvetica,sans-Serif" font-size="10.00">iostream</text>
</a>
</g>
</g>
<!-- Node3&#45;&gt;Node16 -->
<g id="edge15" class="edge">
<title>Node3&#45;&gt;Node16</title>
<path fill="none" stroke="midnightblue" d="M1349.73,-56.32C1360.84,-48.11 1377.74,-35.6 1390.98,-25.81"/>
<polygon fill="midnightblue" stroke="midnightblue" points="1393.1,-28.59 1399.06,-19.83 1388.94,-22.97 1393.1,-28.59"/>
</g>
<!-- Node17 -->
<g id="node17" class="node">
<title>Node17</title>
<g id="a_node17"><a xlink:title=" ">
<polygon fill="none" stroke="#bfbfbf" points="1456.5,-0.5 1456.5,-19.5 1505.5,-19.5 1505.5,-0.5 1456.5,-0.5"/>
<text text-anchor="middle" x="1481" y="-7.5" font-family="Helvetica,sans-Serif" font-size="10.00">fstream</text>
</a>
</g>
</g>
<!-- Node3&#45;&gt;Node17 -->
<g id="edge16" class="edge">
<title>Node3&#45;&gt;Node17</title>
<path fill="none" stroke="midnightblue" d="M1360.66,-56.44C1384.4,-47.48 1421.91,-33.31 1448.74,-23.18"/>
<polygon fill="midnightblue" stroke="midnightblue" points="1450.33,-26.32 1458.45,-19.52 1447.86,-19.77 1450.33,-26.32"/>
</g>
<!-- Node18 -->
<g id="node18" class="node">
<title>Node18</title>
<g id="a_node18"><a xlink:title=" ">
<polygon fill="none" stroke="#bfbfbf" points="1523.5,-0.5 1523.5,-19.5 1564.5,-19.5 1564.5,-0.5 1523.5,-0.5"/>
<text text-anchor="middle" x="1544" y="-7.5" font-family="Helvetica,sans-Serif" font-size="10.00">bitset</text>
</a>
</g>
</g>
<!-- Node3&#45;&gt;Node18 -->
<g id="edge17" class="edge">
<title>Node3&#45;&gt;Node18</title>
<path fill="none" stroke="midnightblue" d="M1373.74,-56.49C1407.57,-48.31 1459.97,-35.31 1513.75,-20.26"/>
<polygon fill="midnightblue" stroke="midnightblue" points="1514.77,-23.61 1523.44,-17.52 1512.87,-16.87 1514.77,-23.61"/>
</g>
<!-- Node19 -->
<g id="node19" class="node">
<title>Node19</title>
<g id="a_node19"><a xlink:title=" ">
<polygon fill="none" stroke="#bfbfbf" points="1583,-0.5 1583,-19.5 1635,-19.5 1635,-0.5 1583,-0.5"/>
<text text-anchor="middle" x="1609" y="-7.5" font-family="Helvetica,sans-Serif" font-size="10.00">memory</text>
</a>
</g>
</g>
<!-- Node3&#45;&gt;Node19 -->
<g id="edge18" class="edge">
<title>Node3&#45;&gt;Node19</title>
<path fill="none" stroke="midnightblue" d="M1387.91,-56.43C1433.66,-48.36 1503.47,-35.51 1572.88,-20.15"/>
<polygon fill="midnightblue" stroke="midnightblue" points="1573.67,-23.56 1582.67,-17.96 1572.15,-16.72 1573.67,-23.56"/>
</g>
<!-- Node20 -->
<g id="node20" class="node">
<title>Node20</title>
<g id="a_node20"><a xlink:title=" ">
<polygon fill="none" stroke="#bfbfbf" points="1653.5,-0.5 1653.5,-19.5 1702.5,-19.5 1702.5,-0.5 1653.5,-0.5"/>
<text text-anchor="middle" x="1678" y="-7.5" font-family="Helvetica,sans-Serif" font-size="10.00">random</text>
</a>
</g>
</g>
<!-- Node3&#45;&gt;Node20 -->
<g id="edge19" class="edge">
<title>Node3&#45;&gt;Node20</title>
<path fill="none" stroke="midnightblue" d="M1405.24,-57.33C1465.24,-49.97 1555.65,-37.66 1643.34,-19.93"/>
<polygon fill="midnightblue" stroke="midnightblue" points="1644.1,-23.35 1653.19,-17.91 1642.7,-16.49 1644.1,-23.35"/>
</g>
<!-- Node21 -->
<g id="node21" class="node">
<title>Node21</title>
<g id="a_node21"><a xlink:title=" ">
<polygon fill="none" stroke="#bfbfbf" points="1720.5,-0.5 1720.5,-19.5 1761.5,-19.5 1761.5,-0.5 1720.5,-0.5"/>
<text text-anchor="middle" x="1741" y="-7.5" font-family="Helvetica,sans-Serif" font-size="10.00">string</text>
</a>
</g>
</g>
<!-- Node3&#45;&gt;Node21 -->
<g id="edge20" class="edge">
<title>Node3&#45;&gt;Node21</title>
<path fill="none" stroke="midnightblue" d="M1405.15,-60.6C1478.27,-54.99 1598.68,-43.34 1710.14,-20.08"/>
<polygon fill="midnightblue" stroke="midnightblue" points="1711.16,-23.45 1720.21,-17.95 1709.7,-16.6 1711.16,-23.45"/>
</g>
<!-- Node22 -->
<g id="node22" class="node">
<title>Node22</title>
<g id="a_node22"><a xlink:title=" ">
<polygon fill="none" stroke="#bfbfbf" points="1780,-0.5 1780,-19.5 1822,-19.5 1822,-0.5 1780,-0.5"/>
<text text-anchor="middle" x="1801" y="-7.5" font-family="Helvetica,sans-Serif" font-size="10.00">vector</text>
</a>
</g>
</g>
<!-- Node3&#45;&gt;Node22 -->
<g id="edge21" class="edge">
<title>Node3&#45;&gt;Node22</title>
<path fill="none" stroke="midnightblue" d="M1405.35,-61.93C1488.91,-57.24 1635.77,-46.14 1769.78,-19.89"/>
<polygon fill="midnightblue" stroke="midnightblue" points="1770.7,-23.28 1779.82,-17.89 1769.33,-16.41 1770.7,-23.28"/>
</g>
<!-- Node23 -->
<g id="node23" class="node">
<title>Node23</title>
<g id="a_node23"><a xlink:title=" ">
<polygon fill="none" stroke="#bfbfbf" points="1840,-0.5 1840,-19.5 1884,-19.5 1884,-0.5 1840,-0.5"/>
<text text-anchor="middle" x="1862" y="-7.5" font-family="Helvetica,sans-Serif" font-size="10.00">thread</text>
</a>
</g>
</g>
<!-- Node3&#45;&gt;Node23 -->
<g id="edge22" class="edge">
<title>Node3&#45;&gt;Node23</title>
<path fill="none" stroke="midnightblue" d="M1405.15,-62.94C1498.5,-59.18 1672.77,-48.9 1829.48,-19.94"/>
<polygon fill="midnightblue" stroke="midnightblue" points="1830.59,-23.29 1839.77,-18.01 1829.3,-16.41 1830.59,-23.29"/>
</g>
<!-- Node24 -->
<g id="node24" class="node">
<title>Node24</title>
<g id="a_node24"><a xlink:title=" ">
<polygon fill="none" stroke="#bfbfbf" points="1902,-0.5 1902,-19.5 1946,-19.5 1946,-0.5 1902,-0.5"/>
<text text-anchor="middle" x="1924" y="-7.5" font-family="Helvetica,sans-Serif" font-size="10.00">mutex</text>
</a>
</g>
</g>
<!-- Node3&#45;&gt;Node24 -->
<g id="edge23" class="edge">
<title>Node3&#45;&gt;Node24</title>
<path fill="none" stroke="midnightblue" d="M1405.21,-63.91C1508.27,-61.28 1711.49,-52.3 1891.85,-19.85"/>
<polygon fill="midnightblue" stroke="midnightblue" points="1892.57,-23.27 1901.78,-18.03 1891.31,-16.39 1892.57,-23.27"/>
</g>
<!-- Node25 -->
<g id="node25" class="node">
<title>Node25</title>
<g id="a_node25"><a xlink:title=" ">
<polygon fill="none" stroke="#bfbfbf" points="1964.5,-0.5 1964.5,-19.5 2007.5,-19.5 2007.5,-0.5 1964.5,-0.5"/>
<text text-anchor="middle" x="1986" y="-7.5" font-family="Helvetica,sans-Serif" font-size="10.00">queue</text>
</a>
</g>
</g>
<!-- Node3&#45;&gt;Node25 -->
<g id="edge24" class="edge">
<title>Node3&#45;&gt;Node25</title>
<path fill="none" stroke="midnightblue" d="M1405.22,-64.69C1517.38,-63.17 1749.68,-55.74 1954.42,-19.68"/>
<polygon fill="midnightblue" stroke="midnightblue" points="1955.23,-23.09 1964.46,-17.88 1954,-16.2 1955.23,-23.09"/>
</g>
<!-- Node26 -->
<g id="node26" class="node">
<title>Node26</title>
<g id="a_node26"><a xlink:title=" ">
<polygon fill="none" stroke="#bfbfbf" points="2025.5,-0.5 2025.5,-19.5 2060.5,-19.5 2060.5,-0.5 2025.5,-0.5"/>
<text text-anchor="middle" x="2043" y="-7.5" font-family="Helvetica,sans-Serif" font-size="10.00">map</text>
</a>
</g>
</g>
<!-- Node3&#45;&gt;Node26 -->
<g id="edge25" class="edge">
<title>Node3&#45;&gt;Node26</title>
<path fill="none" stroke="midnightblue" d="M1405.19,-62.83C1549.04,-57.81 1883.78,-44.13 2015.41,-19.76"/>
<polygon fill="midnightblue" stroke="midnightblue" points="2016.13,-23.19 2025.27,-17.84 2014.79,-16.32 2016.13,-23.19"/>
</g>
<!-- Node27&#45;&gt;Node2 -->
<g id="edge27" class="edge">
<title>Node27&#45;&gt;Node2</title>
<path fill="none" stroke="midnightblue" d="M181.16,-582.5C132.88,-575.28 74.63,-563.31 57,-546 32.16,-521.61 38,-504.82 38,-470 38,-470 38,-470 38,-244 38,-191.73 86.29,-195.13 136,-179 242.56,-144.42 1014.73,-132.33 1262.03,-129.32"/>
<polygon fill="midnightblue" stroke="midnightblue" points="1262.4,-132.82 1272.35,-129.2 1262.31,-125.82 1262.4,-132.82"/>
</g>
<!-- Node28 -->
<g id="node28" class="node">
<title>Node28</title>
<g id="a_node28"><a xlink:href="$db/d77/a00683.html" xlink:title=" ">
<polygon fill="none" stroke="black" points="66,-521 66,-540 228,-540 228,-521 66,-521"/>
<text text-anchor="middle" x="147" y="-528" font-family="Helvetica,sans-Serif" font-size="10.00">discordcoreapi/AudioEncoder.hpp</text>
</a>
</g>
</g>
<!-- Node27&#45;&gt;Node28 -->
<g id="edge28" class="edge">
<title>Node27&#45;&gt;Node28</title>
<path fill="none" stroke="midnightblue" d="M236.96,-582.48C219.72,-572.71 191.26,-556.58 170.97,-545.08"/>
<polygon fill="midnightblue" stroke="midnightblue" points="172.44,-541.89 162.02,-540.01 168.99,-547.98 172.44,-541.89"/>
</g>
<!-- Node30 -->
<g id="node30" class="node">
<title>Node30</title>
<g id="a_node30"><a xlink:href="$d5/d5b/a00695.html" xlink:title=" ">
<polygon fill="none" stroke="black" points="434,-403.5 434,-422.5 580,-422.5 580,-403.5 434,-403.5"/>
<text text-anchor="middle" x="507" y="-410.5" font-family="Helvetica,sans-Serif" font-size="10.00">discordcoreapi/CoRoutine.hpp</text>
</a>
</g>
</g>
<!-- Node27&#45;&gt;Node30 -->
<g id="edge31" class="edge">
<title>Node27&#45;&gt;Node30</title>
<path fill="none" stroke="midnightblue" d="M264.3,-582.46C304.94,-554.26 435.21,-463.83 486.23,-428.42"/>
<polygon fill="midnightblue" stroke="midnightblue" points="488.31,-431.24 494.53,-422.66 484.31,-425.49 488.31,-431.24"/>
</g>
<!-- Node48 -->
<g id="node48" class="node">
<title>Node48</title>
<g id="a_node48"><a xlink:href="$d9/dd4/a00776.html" xlink:title=" ">
<polygon fill="none" stroke="black" points="1439,-515.5 1439,-545.5 1573,-545.5 1573,-515.5 1439,-515.5"/>
<text text-anchor="start" x="1447" y="-533.5" font-family="Helvetica,sans-Serif" font-size="10.00">discordcoreapi/WebSocket</text>
<text text-anchor="middle" x="1506" y="-522.5" font-family="Helvetica,sans-Serif" font-size="10.00">Entities.hpp</text>
</a>
</g>
</g>
<!-- Node27&#45;&gt;Node48 -->
<g id="edge53" class="edge">
<title>Node27&#45;&gt;Node48</title>
<path fill="none" stroke="midnightblue" d="M339.68,-586.84C573.17,-575.76 1207.26,-545.67 1428.55,-535.17"/>
<polygon fill="midnightblue" stroke="midnightblue" points="1428.95,-538.66 1438.77,-534.69 1428.62,-531.67 1428.95,-538.66"/>
</g>
<!-- Node54 -->
<g id="node54" class="node">
<title>Node54</title>
<g id="a_node54"><a xlink:title=" ">
<polygon fill="none" stroke="#bfbfbf" points="246,-521 246,-540 302,-540 302,-521 246,-521"/>
<text text-anchor="middle" x="274" y="-528" font-family="Helvetica,sans-Serif" font-size="10.00">sodium.h</text>
</a>
</g>
</g>
<!-- Node27&#45;&gt;Node54 -->
<g id="edge68" class="edge">
<title>Node27&#45;&gt;Node54</title>
<path fill="none" stroke="midnightblue" d="M255.15,-582.48C258.32,-573.9 263.3,-560.43 267.35,-549.48"/>
<polygon fill="midnightblue" stroke="midnightblue" points="270.67,-550.6 270.85,-540.01 264.1,-548.17 270.67,-550.6"/>
</g>
<!-- Node28&#45;&gt;Node2 -->
<g id="edge29" class="edge">
<title>Node28&#45;&gt;Node2</title>
<path fill="none" stroke="midnightblue" d="M142.42,-520.79C132.94,-501.89 112,-455.49 112,-414 112,-414 112,-414 112,-244 112,-183.74 172.96,-195.23 231,-179 329.53,-151.44 1028.6,-134.81 1262.2,-129.98"/>
<polygon fill="midnightblue" stroke="midnightblue" points="1262.38,-133.48 1272.31,-129.77 1262.24,-126.48 1262.38,-133.48"/>
</g>
<!-- Node29 -->
<g id="node29" class="node">
<title>Node29</title>
<g id="a_node29"><a xlink:title=" ">
<polygon fill="none" stroke="#bfbfbf" points="140,-459.5 140,-478.5 210,-478.5 210,-459.5 140,-459.5"/>
<text text-anchor="middle" x="175" y="-466.5" font-family="Helvetica,sans-Serif" font-size="10.00">opus/opus.h</text>
</a>
</g>
</g>
<!-- Node28&#45;&gt;Node29 -->
<g id="edge30" class="edge">
<title>Node28&#45;&gt;Node29</title>
<path fill="none" stroke="midnightblue" d="M151.01,-520.98C155.09,-512.32 161.52,-498.65 166.7,-487.65"/>
<polygon fill="midnightblue" stroke="midnightblue" points="169.9,-489.05 171,-478.51 163.57,-486.07 169.9,-489.05"/>
</g>
<!-- Node30&#45;&gt;Node2 -->
<g id="edge32" class="edge">
<title>Node30&#45;&gt;Node2</title>
<path fill="none" stroke="midnightblue" d="M484.48,-403.48C466.43,-395.87 441.19,-383.39 423,-367 355.53,-306.23 280.44,-244.82 343,-179 374.56,-145.8 1035.4,-132.96 1262.3,-129.52"/>
<polygon fill="midnightblue" stroke="midnightblue" points="1262.51,-133.02 1272.45,-129.37 1262.4,-126.02 1262.51,-133.02"/>
</g>
<!-- Node31 -->
<g id="node31" class="node">
<title>Node31</title>
<g id="a_node31"><a xlink:href="$d3/d4f/a00761.html" xlink:title=" ">
<polygon fill="none" stroke="black" points="432,-347.5 432,-366.5 582,-366.5 582,-347.5 432,-347.5"/>
<text text-anchor="middle" x="507" y="-354.5" font-family="Helvetica,sans-Serif" font-size="10.00">discordcoreapi/ThreadPool.hpp</text>
</a>
</g>
</g>
<!-- Node30&#45;&gt;Node31 -->
<g id="edge33" class="edge">
<title>Node30&#45;&gt;Node31</title>
<path fill="none" stroke="midnightblue" d="M507,-403.08C507,-396.01 507,-385.86 507,-376.99"/>
<polygon fill="midnightblue" stroke="midnightblue" points="510.5,-376.75 507,-366.75 503.5,-376.75 510.5,-376.75"/>
</g>
<!-- Node31&#45;&gt;Node2 -->
<g id="edge34" class="edge">
<title>Node31&#45;&gt;Node2</title>
<path fill="none" stroke="midnightblue" d="M489.85,-347.38C439.74,-321.17 300.66,-240.43 359,-179 389.99,-146.38 1037.99,-133.19 1262.35,-129.59"/>
<polygon fill="midnightblue" stroke="midnightblue" points="1262.44,-133.09 1272.39,-129.43 1262.33,-126.09 1262.44,-133.09"/>
</g>
<!-- Node32 -->
<g id="node32" class="node">
<title>Node32</title>
<g id="a_node32"><a xlink:href="$db/d7c/a00722.html" xlink:title=" ">
<polygon fill="none" stroke="black" points="551.5,-291.5 551.5,-310.5 676.5,-310.5 676.5,-291.5 551.5,-291.5"/>
<text text-anchor="middle" x="614" y="-298.5" font-family="Helvetica,sans-Serif" font-size="10.00">discordcoreapi/Https.hpp</text>
</a>
</g>
</g>
<!-- Node31&#45;&gt;Node32 -->
<g id="edge35" class="edge">
<title>Node31&#45;&gt;Node32</title>
<path fill="none" stroke="midnightblue" d="M524.19,-347.32C541.35,-338.66 567.95,-325.24 587.75,-315.25"/>
<polygon fill="midnightblue" stroke="midnightblue" points="589.5,-318.28 596.85,-310.65 586.35,-312.04 589.5,-318.28"/>
</g>
<!-- Node47 -->
<g id="node47" class="node">
<title>Node47</title>
<g id="a_node47"><a xlink:title=" ">
<polygon fill="none" stroke="#bfbfbf" points="477,-291.5 477,-310.5 533,-310.5 533,-291.5 477,-291.5"/>
<text text-anchor="middle" x="505" y="-298.5" font-family="Helvetica,sans-Serif" font-size="10.00">coroutine</text>
</a>
</g>
</g>
<!-- Node31&#45;&gt;Node47 -->
<g id="edge52" class="edge">
<title>Node31&#45;&gt;Node47</title>
<path fill="none" stroke="midnightblue" d="M506.67,-347.08C506.41,-340.01 506.03,-329.86 505.7,-320.99"/>
<polygon fill="midnightblue" stroke="midnightblue" points="509.19,-320.61 505.32,-310.75 502.2,-320.87 509.19,-320.61"/>
</g>
<!-- Node33 -->
<g id="node33" class="node">
<title>Node33</title>
<g id="a_node33"><a xlink:href="$d5/de8/a00749.html" xlink:title=" ">
<polygon fill="none" stroke="black" points="816,-235.5 816,-254.5 966,-254.5 966,-235.5 816,-235.5"/>
<text text-anchor="middle" x="891" y="-242.5" font-family="Helvetica,sans-Serif" font-size="10.00">discordcoreapi/SSLClients.hpp</text>
</a>
</g>
</g>
<!-- Node32&#45;&gt;Node33 -->
<g id="edge36" class="edge">
<title>Node32&#45;&gt;Node33</title>
<path fill="none" stroke="midnightblue" d="M657.89,-291.44C706.52,-281.96 784.95,-266.67 837.22,-256.48"/>
<polygon fill="midnightblue" stroke="midnightblue" points="838.17,-259.87 847.31,-254.52 836.83,-252.99 838.17,-259.87"/>
</g>
<!-- Node33&#45;&gt;Node2 -->
<g id="edge37" class="edge">
<title>Node33&#45;&gt;Node2</title>
<path fill="none" stroke="midnightblue" d="M966.37,-240.66C1082.04,-234.87 1292.78,-221.36 1319,-199 1332.24,-187.7 1336.75,-168.24 1338.07,-152.63"/>
<polygon fill="midnightblue" stroke="midnightblue" points="1341.57,-152.73 1338.56,-142.58 1334.58,-152.4 1341.57,-152.73"/>
</g>
<!-- Node34 -->
<g id="node34" class="node">
<title>Node34</title>
<g id="a_node34"><a xlink:href="$d4/d6a/a00704.html" xlink:title=" ">
<polygon fill="none" stroke="black" points="1366,-179.5 1366,-198.5 1524,-198.5 1524,-179.5 1366,-179.5"/>
<text text-anchor="middle" x="1445" y="-186.5" font-family="Helvetica,sans-Serif" font-size="10.00">discordcoreapi/EventEntities.hpp</text>
</a>
</g>
</g>
<!-- Node33&#45;&gt;Node34 -->
<g id="edge38" class="edge">
<title>Node33&#45;&gt;Node34</title>
<path fill="none" stroke="midnightblue" d="M966,-236.69C1067.23,-226.82 1247.33,-209.27 1355.51,-198.72"/>
<polygon fill="midnightblue" stroke="midnightblue" points="1356.14,-202.18 1365.75,-197.72 1355.46,-195.21 1356.14,-202.18"/>
</g>
<!-- Node35 -->
<g id="node35" class="node">
<title>Node35</title>
<g id="a_node35"><a xlink:title=" ">
<polygon fill="none" stroke="#bfbfbf" points="1144.5,-179.5 1144.5,-198.5 1217.5,-198.5 1217.5,-179.5 1144.5,-179.5"/>
<text text-anchor="middle" x="1181" y="-186.5" font-family="Helvetica,sans-Serif" font-size="10.00">openssl/err.h</text>
</a>
</g>
</g>
<!-- Node33&#45;&gt;Node35 -->
<g id="edge40" class="edge">
<title>Node33&#45;&gt;Node35</title>
<path fill="none" stroke="midnightblue" d="M938.93,-235.43C986.22,-226.92 1060.86,-213.35 1134.29,-199.31"/>
<polygon fill="midnightblue" stroke="midnightblue" points="1135.01,-202.73 1144.17,-197.41 1133.69,-195.86 1135.01,-202.73"/>
</g>
<!-- Node36 -->
<g id="node36" class="node">
<title>Node36</title>
<g id="a_node36"><a xlink:title=" ">
<polygon fill="none" stroke="#bfbfbf" points="1236,-179.5 1236,-198.5 1310,-198.5 1310,-179.5 1236,-179.5"/>
<text text-anchor="middle" x="1273" y="-186.5" font-family="Helvetica,sans-Serif" font-size="10.00">openssl/ssl.h</text>
</a>
</g>
</g>
<!-- Node33&#45;&gt;Node36 -->
<g id="edge41" class="edge">
<title>Node33&#45;&gt;Node36</title>
<path fill="none" stroke="midnightblue" d="M964.27,-235.47C1030.2,-227.51 1129.95,-214.73 1226,-199.08"/>
<polygon fill="midnightblue" stroke="midnightblue" points="1226.58,-202.54 1235.88,-197.46 1225.44,-195.63 1226.58,-202.54"/>
</g>
<!-- Node37 -->
<g id="node37" class="node">
<title>Node37</title>
<g id="a_node37"><a xlink:title=" ">
<polygon fill="none" stroke="#bfbfbf" points="367.5,-179.5 367.5,-198.5 410.5,-198.5 410.5,-179.5 367.5,-179.5"/>
<text text-anchor="middle" x="389" y="-186.5" font-family="Helvetica,sans-Serif" font-size="10.00">fcntl.h</text>
</a>
</g>
</g>
<!-- Node33&#45;&gt;Node37 -->
<g id="edge42" class="edge">
<title>Node33&#45;&gt;Node37</title>
<path fill="none" stroke="midnightblue" d="M815.75,-241.15C724.35,-236.73 565.5,-225.92 420.53,-198.72"/>
<polygon fill="midnightblue" stroke="midnightblue" points="421.03,-195.25 410.55,-196.82 419.72,-202.13 421.03,-195.25"/>
</g>
<!-- Node38 -->
<g id="node38" class="node">
<title>Node38</title>
<g id="a_node38"><a xlink:title=" ">
<polygon fill="none" stroke="#bfbfbf" points="428.5,-179.5 428.5,-198.5 477.5,-198.5 477.5,-179.5 428.5,-179.5"/>
<text text-anchor="middle" x="453" y="-186.5" font-family="Helvetica,sans-Serif" font-size="10.00">netdb.h</text>
</a>
</g>
</g>
<!-- Node33&#45;&gt;Node38 -->
<g id="edge43" class="edge">
<title>Node33&#45;&gt;Node38</title>
<path fill="none" stroke="midnightblue" d="M815.68,-238.96C736.39,-232.89 607.86,-220.92 487.88,-198.9"/>
<polygon fill="midnightblue" stroke="midnightblue" points="488.26,-195.41 477.79,-197.01 486.98,-202.29 488.26,-195.41"/>
</g>
<!-- Node39 -->
<g id="node39" class="node">
<title>Node39</title>
<g id="a_node39"><a xlink:title=" ">
<polygon fill="none" stroke="#bfbfbf" points="495.5,-179.5 495.5,-198.5 560.5,-198.5 560.5,-179.5 495.5,-179.5"/>
<text text-anchor="middle" x="528" y="-186.5" font-family="Helvetica,sans-Serif" font-size="10.00">netinet/in.h</text>
</a>
</g>
</g>
<!-- Node33&#45;&gt;Node39 -->
<g id="edge44" class="edge">
<title>Node33&#45;&gt;Node39</title>
<path fill="none" stroke="midnightblue" d="M819.69,-235.49C756.78,-227.65 662.39,-215.05 570.54,-198.98"/>
<polygon fill="midnightblue" stroke="midnightblue" points="570.97,-195.5 560.51,-197.21 569.75,-202.39 570.97,-195.5"/>
</g>
<!-- Node40 -->
<g id="node40" class="node">
<title>Node40</title>
<g id="a_node40"><a xlink:title=" ">
<polygon fill="none" stroke="#bfbfbf" points="578.5,-179.5 578.5,-198.5 649.5,-198.5 649.5,-179.5 578.5,-179.5"/>
<text text-anchor="middle" x="614" y="-186.5" font-family="Helvetica,sans-Serif" font-size="10.00">netinet/tcp.h</text>
</a>
</g>
</g>
<!-- Node33&#45;&gt;Node40 -->
<g id="edge45" class="edge">
<title>Node33&#45;&gt;Node40</title>
<path fill="none" stroke="midnightblue" d="M846.51,-235.45C801.89,-226.86 730.95,-213.15 659.88,-199.17"/>
<polygon fill="midnightblue" stroke="midnightblue" points="660.35,-195.69 649.86,-197.19 658.99,-202.56 660.35,-195.69"/>
</g>
<!-- Node41 -->
<g id="node41" class="node">
<title>Node41</title>
<g id="a_node41"><a xlink:title=" ">
<polygon fill="none" stroke="#bfbfbf" points="667.5,-179.5 667.5,-198.5 716.5,-198.5 716.5,-179.5 667.5,-179.5"/>
<text text-anchor="middle" x="692" y="-186.5" font-family="Helvetica,sans-Serif" font-size="10.00">stdint.h</text>
</a>
</g>
</g>
<!-- Node33&#45;&gt;Node41 -->
<g id="edge46" class="edge">
<title>Node33&#45;&gt;Node41</title>
<path fill="none" stroke="midnightblue" d="M859.47,-235.44C823.3,-225.63 764.19,-209.59 726.74,-199.43"/>
<polygon fill="midnightblue" stroke="midnightblue" points="727.35,-195.97 716.78,-196.73 725.52,-202.72 727.35,-195.97"/>
</g>
<!-- Node42 -->
<g id="node42" class="node">
<title>Node42</title>
<g id="a_node42"><a xlink:title=" ">
<polygon fill="none" stroke="#bfbfbf" points="735,-179.5 735,-198.5 799,-198.5 799,-179.5 735,-179.5"/>
<text text-anchor="middle" x="767" y="-186.5" font-family="Helvetica,sans-Serif" font-size="10.00">sys/epoll.h</text>
</a>
</g>
</g>
<!-- Node33&#45;&gt;Node42 -->
<g id="edge47" class="edge">
<title>Node33&#45;&gt;Node42</title>
<path fill="none" stroke="midnightblue" d="M871.35,-235.44C851.04,-226.6 819.1,-212.69 795.9,-202.59"/>
<polygon fill="midnightblue" stroke="midnightblue" points="797.12,-199.3 786.56,-198.52 794.33,-205.72 797.12,-199.3"/>
</g>
<!-- Node43 -->
<g id="node43" class="node">
<title>Node43</title>
<g id="a_node43"><a xlink:title=" ">
<polygon fill="none" stroke="#bfbfbf" points="817,-179.5 817,-198.5 879,-198.5 879,-179.5 817,-179.5"/>
<text text-anchor="middle" x="848" y="-186.5" font-family="Helvetica,sans-Serif" font-size="10.00">arpa/inet.h</text>
</a>
</g>
</g>
<!-- Node33&#45;&gt;Node43 -->
<g id="edge48" class="edge">
<title>Node33&#45;&gt;Node43</title>
<path fill="none" stroke="midnightblue" d="M883.9,-235.08C877.76,-227.38 868.73,-216.03 861.26,-206.65"/>
<polygon fill="midnightblue" stroke="midnightblue" points="863.94,-204.39 854.97,-198.75 858.46,-208.75 863.94,-204.39"/>
</g>
<!-- Node44 -->
<g id="node44" class="node">
<title>Node44</title>
<g id="a_node44"><a xlink:title=" ">
<polygon fill="none" stroke="#bfbfbf" points="897.5,-179.5 897.5,-198.5 970.5,-198.5 970.5,-179.5 897.5,-179.5"/>
<text text-anchor="middle" x="934" y="-186.5" font-family="Helvetica,sans-Serif" font-size="10.00">sys/socket.h</text>
</a>
</g>
</g>
<!-- Node33&#45;&gt;Node44 -->
<g id="edge49" class="edge">
<title>Node33&#45;&gt;Node44</title>
<path fill="none" stroke="midnightblue" d="M898.1,-235.08C904.24,-227.38 913.27,-216.03 920.74,-206.65"/>
<polygon fill="midnightblue" stroke="midnightblue" points="923.54,-208.75 927.03,-198.75 918.06,-204.39 923.54,-208.75"/>
</g>
<!-- Node45 -->
<g id="node45" class="node">
<title>Node45</title>
<g id="a_node45"><a xlink:title=" ">
<polygon fill="none" stroke="#bfbfbf" points="989,-179.5 989,-198.5 1057,-198.5 1057,-179.5 989,-179.5"/>
<text text-anchor="middle" x="1023" y="-186.5" font-family="Helvetica,sans-Serif" font-size="10.00">sys/types.h</text>
</a>
</g>
</g>
<!-- Node33&#45;&gt;Node45 -->
<g id="edge50" class="edge">
<title>Node33&#45;&gt;Node45</title>
<path fill="none" stroke="midnightblue" d="M911.92,-235.44C933.74,-226.52 968.15,-212.44 992.89,-202.32"/>
<polygon fill="midnightblue" stroke="midnightblue" points="994.25,-205.54 1002.18,-198.52 991.6,-199.06 994.25,-205.54"/>
</g>
<!-- Node46 -->
<g id="node46" class="node">
<title>Node46</title>
<g id="a_node46"><a xlink:title=" ">
<polygon fill="none" stroke="#bfbfbf" points="1075.5,-179.5 1075.5,-198.5 1126.5,-198.5 1126.5,-179.5 1075.5,-179.5"/>
<text text-anchor="middle" x="1101" y="-186.5" font-family="Helvetica,sans-Serif" font-size="10.00">unistd.h</text>
</a>
</g>
</g>
<!-- Node33&#45;&gt;Node46 -->
<g id="edge51" class="edge">
<title>Node33&#45;&gt;Node46</title>
<path fill="none" stroke="midnightblue" d="M924.28,-235.44C962.9,-225.51 1026.31,-209.21 1065.75,-199.06"/>
<polygon fill="midnightblue" stroke="midnightblue" points="1066.66,-202.44 1075.48,-196.56 1064.92,-195.66 1066.66,-202.44"/>
</g>
<!-- Node34&#45;&gt;Node2 -->
<g id="edge39" class="edge">
<title>Node34&#45;&gt;Node2</title>
<path fill="none" stroke="midnightblue" d="M1429.67,-179.48C1414.7,-171.15 1391.42,-158.21 1372.07,-147.45"/>
<polygon fill="midnightblue" stroke="midnightblue" points="1373.66,-144.32 1363.22,-142.52 1370.26,-150.44 1373.66,-144.32"/>
</g>
<!-- Node48&#45;&gt;Node2 -->
<g id="edge54" class="edge">
<title>Node48&#45;&gt;Node2</title>
<path fill="none" stroke="midnightblue" d="M1573.07,-526.1C1698.05,-517.93 1954,-491.71 1954,-414 1954,-414 1954,-414 1954,-244 1954,-210.08 1942.86,-196.83 1914,-179 1872.4,-153.31 1560.52,-137.47 1413.83,-131.37"/>
<polygon fill="midnightblue" stroke="midnightblue" points="1413.7,-127.86 1403.56,-130.95 1413.41,-134.86 1413.7,-127.86"/>
</g>
<!-- Node48&#45;&gt;Node31 -->
<g id="edge67" class="edge">
<title>Node48&#45;&gt;Node31</title>
<path fill="none" stroke="midnightblue" d="M1438.86,-522.27C1360.63,-513.52 1227.59,-497.62 1114,-479 904.86,-444.72 657.69,-391.44 555.22,-368.79"/>
<polygon fill="midnightblue" stroke="midnightblue" points="555.7,-365.31 545.18,-366.56 554.19,-372.14 555.7,-365.31"/>
</g>
<!-- Node48&#45;&gt;Node33 -->
<g id="edge66" class="edge">
<title>Node48&#45;&gt;Node33</title>
<path fill="none" stroke="midnightblue" d="M1438.86,-522.88C1330.23,-510.3 1128,-478.25 1128,-414 1128,-414 1128,-414 1128,-356 1128,-287.07 1044.5,-261.22 976.63,-251.58"/>
<polygon fill="midnightblue" stroke="midnightblue" points="976.69,-248.06 966.31,-250.23 975.77,-255 976.69,-248.06"/>
</g>
<!-- Node48&#45;&gt;Node34 -->
<g id="edge65" class="edge">
<title>Node48&#45;&gt;Node34</title>
<path fill="none" stroke="midnightblue" d="M1491.79,-515.12C1483.02,-505.56 1472.12,-492.35 1465,-479 1450.77,-452.33 1445,-444.23 1445,-414 1445,-414 1445,-414 1445,-300 1445,-267.95 1445,-230.64 1445,-208.75"/>
<polygon fill="midnightblue" stroke="midnightblue" points="1448.5,-208.56 1445,-198.56 1441.5,-208.56 1448.5,-208.56"/>
</g>
<!-- Node49 -->
<g id="node49" class="node">
<title>Node49</title>
<g id="a_node49"><a xlink:href="$d4/d9b/a00680.html" xlink:title=" ">
<polygon fill="none" stroke="black" points="1554,-235.5 1554,-254.5 1716,-254.5 1716,-235.5 1554,-235.5"/>
<text text-anchor="middle" x="1635" y="-242.5" font-family="Helvetica,sans-Serif" font-size="10.00">discordcoreapi/AudioDecoder.hpp</text>
</a>
</g>
</g>
<!-- Node48&#45;&gt;Node49 -->
<g id="edge55" class="edge">
<title>Node48&#45;&gt;Node49</title>
<path fill="none" stroke="midnightblue" d="M1573.11,-526.29C1646.56,-518.75 1754,-494.03 1754,-414 1754,-414 1754,-414 1754,-356 1754,-308.3 1701.8,-275.53 1666.54,-258.84"/>
<polygon fill="midnightblue" stroke="midnightblue" points="1667.66,-255.5 1657.1,-254.56 1664.77,-261.88 1667.66,-255.5"/>
</g>
<!-- Node52 -->
<g id="node52" class="node">
<title>Node52</title>
<g id="a_node52"><a xlink:href="$d0/db6/a00692.html" xlink:title=" ">
<polygon fill="none" stroke="black" points="1473.5,-459.5 1473.5,-478.5 1660.5,-478.5 1660.5,-459.5 1473.5,-459.5"/>
<text text-anchor="middle" x="1567" y="-466.5" font-family="Helvetica,sans-Serif" font-size="10.00">discordcoreapi/CommandController.hpp</text>
</a>
</g>
</g>
<!-- Node48&#45;&gt;Node52 -->
<g id="edge60" class="edge">
<title>Node48&#45;&gt;Node52</title>
<path fill="none" stroke="midnightblue" d="M1520.46,-515.4C1529.59,-506.49 1541.42,-494.95 1550.86,-485.74"/>
<polygon fill="midnightblue" stroke="midnightblue" points="1553.41,-488.15 1558.12,-478.66 1548.52,-483.13 1553.41,-488.15"/>
</g>
<!-- Node53 -->
<g id="node53" class="node">
<title>Node53</title>
<g id="a_node53"><a xlink:href="$dd/d57/a00701.html" xlink:title=" ">
<polygon fill="none" stroke="black" points="1782,-403.5 1782,-422.5 1926,-422.5 1926,-403.5 1782,-403.5"/>
<text text-anchor="middle" x="1854" y="-410.5" font-family="Helvetica,sans-Serif" font-size="10.00">discordcoreapi/ErlPacker.hpp</text>
</a>
</g>
</g>
<!-- Node48&#45;&gt;Node53 -->
<g id="edge63" class="edge">
<title>Node48&#45;&gt;Node53</title>
<path fill="none" stroke="midnightblue" d="M1573.1,-525.01C1627.59,-519.4 1705.37,-506.88 1768,-479 1795.08,-466.94 1821.57,-444.92 1837.84,-429.89"/>
<polygon fill="midnightblue" stroke="midnightblue" points="1840.52,-432.17 1845.36,-422.75 1835.7,-427.09 1840.52,-432.17"/>
</g>
<!-- Node49&#45;&gt;Node2 -->
<g id="edge57" class="edge">
<title>Node49&#45;&gt;Node2</title>
<path fill="none" stroke="midnightblue" d="M1622.53,-235.35C1599.62,-219.58 1551.48,-187.04 1533,-179 1495.19,-162.55 1450.84,-150.54 1414,-142.37"/>
<polygon fill="midnightblue" stroke="midnightblue" points="1414.33,-138.86 1403.82,-140.17 1412.85,-145.7 1414.33,-138.86"/>
</g>
<!-- Node49&#45;&gt;Node34 -->
<g id="edge56" class="edge">
<title>Node49&#45;&gt;Node34</title>
<path fill="none" stroke="midnightblue" d="M1604.89,-235.44C1572.37,-226.2 1520.42,-211.44 1484.61,-201.26"/>
<polygon fill="midnightblue" stroke="midnightblue" points="1485.54,-197.88 1474.97,-198.52 1483.63,-204.62 1485.54,-197.88"/>
</g>
<!-- Node50 -->
<g id="node50" class="node">
<title>Node50</title>
<g id="a_node50"><a xlink:title=" ">
<polygon fill="none" stroke="#bfbfbf" points="1580,-179.5 1580,-198.5 1690,-198.5 1690,-179.5 1580,-179.5"/>
<text text-anchor="middle" x="1635" y="-186.5" font-family="Helvetica,sans-Serif" font-size="10.00">libavformat/avformat.h</text>
</a>
</g>
</g>
<!-- Node49&#45;&gt;Node50 -->
<g id="edge58" class="edge">
<title>Node49&#45;&gt;Node50</title>
<path fill="none" stroke="midnightblue" d="M1635,-235.08C1635,-228.01 1635,-217.86 1635,-208.99"/>
<polygon fill="midnightblue" stroke="midnightblue" points="1638.5,-208.75 1635,-198.75 1631.5,-208.75 1638.5,-208.75"/>
</g>
<!-- Node51 -->
<g id="node51" class="node">
<title>Node51</title>
<g id="a_node51"><a xlink:title=" ">
<polygon fill="none" stroke="#bfbfbf" points="1708.5,-179.5 1708.5,-198.5 1849.5,-198.5 1849.5,-179.5 1708.5,-179.5"/>
<text text-anchor="middle" x="1779" y="-186.5" font-family="Helvetica,sans-Serif" font-size="10.00">libswresample/swresample.h</text>
</a>
</g>
</g>
<!-- Node49&#45;&gt;Node51 -->
<g id="edge59" class="edge">
<title>Node49&#45;&gt;Node51</title>
<path fill="none" stroke="midnightblue" d="M1657.82,-235.44C1681.83,-226.44 1719.83,-212.19 1746.87,-202.05"/>
<polygon fill="midnightblue" stroke="midnightblue" points="1748.16,-205.3 1756.29,-198.52 1745.7,-198.75 1748.16,-205.3"/>
</g>
<!-- Node52&#45;&gt;Node2 -->
<g id="edge61" class="edge">
<title>Node52&#45;&gt;Node2</title>
<path fill="none" stroke="midnightblue" d="M1588.67,-459.47C1672.35,-425.41 1964.59,-295.32 1859,-179 1829.67,-146.69 1551.08,-134.44 1413.76,-130.33"/>
<polygon fill="midnightblue" stroke="midnightblue" points="1413.82,-126.83 1403.72,-130.04 1413.62,-133.83 1413.82,-126.83"/>
</g>
<!-- Node52&#45;&gt;Node30 -->
<g id="edge62" class="edge">
<title>Node52&#45;&gt;Node30</title>
<path fill="none" stroke="midnightblue" d="M1473.4,-463.23C1268.86,-452.81 784.83,-428.15 590.19,-418.24"/>
<polygon fill="midnightblue" stroke="midnightblue" points="590.19,-414.73 580.02,-417.72 589.83,-421.72 590.19,-414.73"/>
</g>
<!-- Node53&#45;&gt;Node2 -->
<g id="edge64" class="edge">
<title>Node53&#45;&gt;Node2</title>
<path fill="none" stroke="midnightblue" d="M1863.15,-403.25C1880.39,-385.77 1916,-344.53 1916,-302 1916,-302 1916,-302 1916,-244 1916,-213.2 1916.44,-197.73 1892,-179 1854.85,-150.53 1556.31,-136.22 1413.54,-130.95"/>
<polygon fill="midnightblue" stroke="midnightblue" points="1413.66,-127.45 1403.53,-130.59 1413.4,-134.45 1413.66,-127.45"/>
</g>
<!-- Node55&#45;&gt;Node2 -->
<g id="edge70" class="edge">
<title>Node55&#45;&gt;Node2</title>
<path fill="none" stroke="midnightblue" d="M517.48,-705.45C478.81,-689.69 406,-652.17 406,-593 406,-593 406,-593 406,-468 406,-334.49 224.56,-268.1 324,-179 358.81,-147.81 1032.08,-133.64 1261.89,-129.69"/>
<polygon fill="midnightblue" stroke="midnightblue" points="1262.23,-133.19 1272.17,-129.52 1262.11,-126.19 1262.23,-133.19"/>
</g>
<!-- Node55&#45;&gt;Node32 -->
<g id="edge77" class="edge">
<title>Node55&#45;&gt;Node32</title>
<path fill="none" stroke="midnightblue" d="M550.71,-705.35C570.36,-686.85 613,-641.16 613,-593 613,-593 613,-593 613,-412 613,-379.95 613.43,-342.64 613.73,-320.75"/>
<polygon fill="midnightblue" stroke="midnightblue" points="617.23,-320.61 613.87,-310.56 610.23,-320.51 617.23,-320.61"/>
</g>
<!-- Node56 -->
<g id="node56" class="node">
<title>Node56</title>
<g id="a_node56"><a xlink:href="$d2/d94/a00716.html" xlink:title=" ">
<polygon fill="none" stroke="black" points="1124,-638.5 1124,-668.5 1264,-668.5 1264,-638.5 1124,-638.5"/>
<text text-anchor="start" x="1132" y="-656.5" font-family="Helvetica,sans-Serif" font-size="10.00">discordcoreapi/GuildMember</text>
<text text-anchor="middle" x="1194" y="-645.5" font-family="Helvetica,sans-Serif" font-size="10.00">Entities.hpp</text>
</a>
</g>
</g>
<!-- Node55&#45;&gt;Node56 -->
<g id="edge71" class="edge">
<title>Node55&#45;&gt;Node56</title>
<path fill="none" stroke="midnightblue" d="M618.15,-706.97C742.85,-695.61 987.47,-673.32 1113.98,-661.79"/>
<polygon fill="midnightblue" stroke="midnightblue" points="1114.36,-665.27 1124,-660.88 1113.72,-658.3 1114.36,-665.27"/>
</g>
<!-- Node56&#45;&gt;Node2 -->
<g id="edge72" class="edge">
<title>Node56&#45;&gt;Node2</title>
<path fill="none" stroke="midnightblue" d="M1264.2,-649.69C1465.43,-640.71 2030,-608.63 2030,-531.5 2030,-531.5 2030,-531.5 2030,-244 2030,-204.68 2005.36,-196.19 1970,-179 1873.87,-132.26 1559.85,-127.37 1413.87,-127.74"/>
<polygon fill="midnightblue" stroke="midnightblue" points="1413.65,-124.24 1403.66,-127.77 1413.67,-131.24 1413.65,-124.24"/>
</g>
<!-- Node56&#45;&gt;Node32 -->
<g id="edge76" class="edge">
<title>Node56&#45;&gt;Node32</title>
<path fill="none" stroke="midnightblue" d="M1123.98,-639.89C1031.99,-621.29 882,-583.06 882,-531.5 882,-531.5 882,-531.5 882,-412 882,-327.53 766.64,-306.55 687.29,-302.11"/>
<polygon fill="midnightblue" stroke="midnightblue" points="686.99,-298.59 676.83,-301.61 686.65,-305.58 686.99,-298.59"/>
</g>
<!-- Node57 -->
<g id="node57" class="node">
<title>Node57</title>
<g id="a_node57"><a xlink:href="$d3/d2c/a00764.html" xlink:title=" ">
<polygon fill="none" stroke="black" points="1428.5,-582.5 1428.5,-601.5 1583.5,-601.5 1583.5,-582.5 1428.5,-582.5"/>
<text text-anchor="middle" x="1506" y="-589.5" font-family="Helvetica,sans-Serif" font-size="10.00">discordcoreapi/UserEntities.hpp</text>
</a>
</g>
</g>
<!-- Node56&#45;&gt;Node57 -->
<g id="edge73" class="edge">
<title>Node56&#45;&gt;Node57</title>
<path fill="none" stroke="midnightblue" d="M1264.02,-639.15C1320.61,-628.35 1399.16,-613.37 1451.23,-603.44"/>
<polygon fill="midnightblue" stroke="midnightblue" points="1452.11,-606.84 1461.28,-601.53 1450.8,-599.96 1452.11,-606.84"/>
</g>
<!-- Node57&#45;&gt;Node2 -->
<g id="edge74" class="edge">
<title>Node57&#45;&gt;Node2</title>
<path fill="none" stroke="midnightblue" d="M1583.55,-587.65C1720.76,-579.59 1992,-553.15 1992,-470 1992,-470 1992,-470 1992,-244 1992,-207 1972.64,-196.41 1940,-179 1894.6,-154.79 1565.05,-138.02 1413.67,-131.51"/>
<polygon fill="midnightblue" stroke="midnightblue" points="1413.67,-128.01 1403.53,-131.08 1413.37,-135 1413.67,-128.01"/>
</g>
<!-- Node57&#45;&gt;Node48 -->
<g id="edge75" class="edge">
<title>Node57&#45;&gt;Node48</title>
<path fill="none" stroke="midnightblue" d="M1506,-582.48C1506,-575.47 1506,-565.19 1506,-555.7"/>
<polygon fill="midnightblue" stroke="midnightblue" points="1509.5,-555.52 1506,-545.52 1502.5,-555.52 1509.5,-555.52"/>
</g>
<!-- Node58&#45;&gt;Node2 -->
<g id="edge79" class="edge">
<title>Node58&#45;&gt;Node2</title>
<path fill="none" stroke="midnightblue" d="M222.87,-347.3C216.32,-318.26 199.82,-224.01 249,-179 286.31,-144.85 1020.89,-132.52 1262.04,-129.38"/>
<polygon fill="midnightblue" stroke="midnightblue" points="1262.16,-132.88 1272.12,-129.25 1262.07,-125.88 1262.16,-132.88"/>
</g>
<!-- Node58&#45;&gt;Node32 -->
<g id="edge80" class="edge">
<title>Node58&#45;&gt;Node32</title>
<path fill="none" stroke="midnightblue" d="M286.64,-347.44C356.21,-337.79 469.21,-322.1 542.57,-311.92"/>
<polygon fill="midnightblue" stroke="midnightblue" points="543.23,-315.36 552.65,-310.52 542.26,-308.42 543.23,-315.36"/>
</g>
</g>
</svg>
