<?xml version="1.0" encoding="UTF-8" standalone="no"?>
<!DOCTYPE svg PUBLIC "-//W3C//DTD SVG 1.1//EN"
 "http://www.w3.org/Graphics/SVG/1.1/DTD/svg11.dtd">
<!-- Generated by graphviz version 3.0.0 (20220226.1711)
 -->
<!-- Title: GuildScheduledEventEntities.hpp Pages: 1 -->
<svg width="2076pt" height="487pt"
 viewBox="0.00 0.00 2076.00 487.00" xmlns="http://www.w3.org/2000/svg" xmlns:xlink="http://www.w3.org/1999/xlink">
<g id="graph0" class="graph" transform="scale(1 1) rotate(0) translate(4 483)">
<title>GuildScheduledEventEntities.hpp</title>
<!-- Node1 -->
<g id="node1" class="node">
<title>Node1</title>
<g id="a_node1"><a xlink:title=" ">
<polygon fill="#bfbfbf" stroke="black" points="747.5,-459.5 747.5,-478.5 908.5,-478.5 908.5,-459.5 747.5,-459.5"/>
<text text-anchor="middle" x="828" y="-466.5" font-family="Helvetica,sans-Serif" font-size="10.00">GuildScheduledEventEntities.hpp</text>
</a>
</g>
</g>
<!-- Node2 -->
<g id="node2" class="node">
<title>Node2</title>
<g id="a_node2"><a xlink:href="../../d5/d5b/a00695.html" target="_top" xlink:title=" ">
<polygon fill="none" stroke="black" points="806,-403.5 806,-422.5 952,-422.5 952,-403.5 806,-403.5"/>
<text text-anchor="middle" x="879" y="-410.5" font-family="Helvetica,sans-Serif" font-size="10.00">discordcoreapi/CoRoutine.hpp</text>
</a>
</g>
</g>
<!-- Node1&#45;&gt;Node2 -->
<g id="edge1" class="edge">
<title>Node1&#45;&gt;Node2</title>
<path fill="none" stroke="midnightblue" d="M836.42,-459.08C843.85,-451.22 854.85,-439.57 863.81,-430.08"/>
<polygon fill="midnightblue" stroke="midnightblue" points="866.41,-432.42 870.74,-422.75 861.32,-427.62 866.41,-432.42"/>
</g>
<!-- Node3 -->
<g id="node3" class="node">
<title>Node3</title>
<g id="a_node3"><a xlink:href="../../d4/deb/a00710.html" target="_top" xlink:title=" ">
<polygon fill="none" stroke="black" points="807.5,-112.5 807.5,-142.5 938.5,-142.5 938.5,-112.5 807.5,-112.5"/>
<text text-anchor="start" x="815.5" y="-130.5" font-family="Helvetica,sans-Serif" font-size="10.00">discordcoreapi/Foundation</text>
<text text-anchor="middle" x="873" y="-119.5" font-family="Helvetica,sans-Serif" font-size="10.00">Entities.hpp</text>
</a>
</g>
</g>
<!-- Node1&#45;&gt;Node3 -->
<g id="edge48" class="edge">
<title>Node1&#45;&gt;Node3</title>
<path fill="none" stroke="midnightblue" d="M820.68,-459.22C813.74,-450.51 803.44,-436.54 797,-423 784.08,-395.82 778,-388.1 778,-358 778,-358 778,-358 778,-244 778,-203.06 814.04,-168.73 841.73,-148.4"/>
<polygon fill="midnightblue" stroke="midnightblue" points="843.86,-151.19 850,-142.55 839.82,-145.47 843.86,-151.19"/>
</g>
<!-- Node2&#45;&gt;Node3 -->
<g id="edge2" class="edge">
<title>Node2&#45;&gt;Node3</title>
<path fill="none" stroke="midnightblue" d="M867.66,-403.18C857.69,-394.86 843.5,-381.52 835,-367 819.8,-341.02 816,-332.1 816,-302 816,-302 816,-302 816,-244 816,-208.66 837.72,-172.94 854.34,-150.78"/>
<polygon fill="midnightblue" stroke="midnightblue" points="857.25,-152.74 860.63,-142.7 851.73,-148.44 857.25,-152.74"/>
</g>
<!-- Node29 -->
<g id="node29" class="node">
<title>Node29</title>
<g id="a_node29"><a xlink:href="../../d3/d4f/a00761.html" target="_top" xlink:title=" ">
<polygon fill="none" stroke="black" points="844,-347.5 844,-366.5 994,-366.5 994,-347.5 844,-347.5"/>
<text text-anchor="middle" x="919" y="-354.5" font-family="Helvetica,sans-Serif" font-size="10.00">discordcoreapi/ThreadPool.hpp</text>
</a>
</g>
</g>
<!-- Node2&#45;&gt;Node29 -->
<g id="edge28" class="edge">
<title>Node2&#45;&gt;Node29</title>
<path fill="none" stroke="midnightblue" d="M885.61,-403.08C891.26,-395.46 899.54,-384.26 906.45,-374.94"/>
<polygon fill="midnightblue" stroke="midnightblue" points="909.38,-376.87 912.52,-366.75 903.75,-372.7 909.38,-376.87"/>
</g>
<!-- Node4 -->
<g id="node4" class="node">
<title>Node4</title>
<g id="a_node4"><a xlink:href="../../d5/dae/a00767.html" target="_top" xlink:title=" ">
<polygon fill="none" stroke="black" points="904,-56.5 904,-75.5 1038,-75.5 1038,-56.5 904,-56.5"/>
<text text-anchor="middle" x="971" y="-63.5" font-family="Helvetica,sans-Serif" font-size="10.00">discordcoreapi/Utilities.hpp</text>
</a>
</g>
</g>
<!-- Node3&#45;&gt;Node4 -->
<g id="edge3" class="edge">
<title>Node3&#45;&gt;Node4</title>
<path fill="none" stroke="midnightblue" d="M896.22,-112.4C911.79,-102.95 932.2,-90.56 947.76,-81.11"/>
<polygon fill="midnightblue" stroke="midnightblue" points="950.01,-83.84 956.74,-75.66 946.38,-77.86 950.01,-83.84"/>
</g>
<!-- Node5 -->
<g id="node5" class="node">
<title>Node5</title>
<g id="a_node5"><a xlink:title=" ">
<polygon fill="none" stroke="#bfbfbf" points="1568.5,-0.5 1568.5,-19.5 1625.5,-19.5 1625.5,-0.5 1568.5,-0.5"/>
<text text-anchor="middle" x="1597" y="-7.5" font-family="Helvetica,sans-Serif" font-size="10.00">pthread.h</text>
</a>
</g>
</g>
<!-- Node4&#45;&gt;Node5 -->
<g id="edge4" class="edge">
<title>Node4&#45;&gt;Node5</title>
<path fill="none" stroke="midnightblue" d="M1038.1,-63.41C1145.99,-60.09 1364.73,-50.13 1558.33,-20.03"/>
<polygon fill="midnightblue" stroke="midnightblue" points="1559.08,-23.46 1568.41,-18.44 1557.99,-16.54 1559.08,-23.46"/>
</g>
<!-- Node6 -->
<g id="node6" class="node">
<title>Node6</title>
<g id="a_node6"><a xlink:title=" ">
<polygon fill="none" stroke="#bfbfbf" points="1644,-0.5 1644,-19.5 1706,-19.5 1706,-0.5 1644,-0.5"/>
<text text-anchor="middle" x="1675" y="-7.5" font-family="Helvetica,sans-Serif" font-size="10.00">sys/time.h</text>
</a>
</g>
</g>
<!-- Node4&#45;&gt;Node6 -->
<g id="edge5" class="edge">
<title>Node4&#45;&gt;Node6</title>
<path fill="none" stroke="midnightblue" d="M1038.28,-63.85C1156.83,-61.08 1410.75,-51.8 1633.72,-19.97"/>
<polygon fill="midnightblue" stroke="midnightblue" points="1634.25,-23.43 1643.64,-18.53 1633.24,-16.5 1634.25,-23.43"/>
</g>
<!-- Node7 -->
<g id="node7" class="node">
<title>Node7</title>
<g id="a_node7"><a xlink:title=" ">
<polygon fill="none" stroke="#bfbfbf" points="0,-0.5 0,-19.5 44,-19.5 44,-0.5 0,-0.5"/>
<text text-anchor="middle" x="22" y="-7.5" font-family="Helvetica,sans-Serif" font-size="10.00">time.h</text>
</a>
</g>
</g>
<!-- Node4&#45;&gt;Node7 -->
<g id="edge6" class="edge">
<title>Node4&#45;&gt;Node7</title>
<path fill="none" stroke="midnightblue" d="M903.87,-63.74C724.4,-60.06 235.37,-47.86 54.15,-19.73"/>
<polygon fill="midnightblue" stroke="midnightblue" points="54.64,-16.27 44.21,-18.12 53.52,-23.18 54.64,-16.27"/>
</g>
<!-- Node8 -->
<g id="node8" class="node">
<title>Node8</title>
<g id="a_node8"><a xlink:title=" ">
<polygon fill="none" stroke="#bfbfbf" points="62.5,-0.5 62.5,-19.5 103.5,-19.5 103.5,-0.5 62.5,-0.5"/>
<text text-anchor="middle" x="83" y="-7.5" font-family="Helvetica,sans-Serif" font-size="10.00">ctime</text>
</a>
</g>
</g>
<!-- Node4&#45;&gt;Node8 -->
<g id="edge7" class="edge">
<title>Node4&#45;&gt;Node8</title>
<path fill="none" stroke="midnightblue" d="M903.78,-63.64C732.56,-59.82 282.22,-47.58 113.72,-19.84"/>
<polygon fill="midnightblue" stroke="midnightblue" points="114.21,-16.37 103.76,-18.12 113.02,-23.27 114.21,-16.37"/>
</g>
<!-- Node9 -->
<g id="node9" class="node">
<title>Node9</title>
<g id="a_node9"><a xlink:title=" ">
<polygon fill="none" stroke="#bfbfbf" points="121.5,-0.5 121.5,-19.5 214.5,-19.5 214.5,-0.5 121.5,-0.5"/>
<text text-anchor="middle" x="168" y="-7.5" font-family="Helvetica,sans-Serif" font-size="10.00">condition_variable</text>
</a>
</g>
</g>
<!-- Node4&#45;&gt;Node9 -->
<g id="edge8" class="edge">
<title>Node4&#45;&gt;Node9</title>
<path fill="none" stroke="midnightblue" d="M903.85,-63.19C774.52,-59.21 481.74,-47.84 224.97,-19.99"/>
<polygon fill="midnightblue" stroke="midnightblue" points="225.03,-16.47 214.7,-18.86 224.26,-23.43 225.03,-16.47"/>
</g>
<!-- Node10 -->
<g id="node10" class="node">
<title>Node10</title>
<g id="a_node10"><a xlink:title=" ">
<polygon fill="none" stroke="#bfbfbf" points="233,-0.5 233,-19.5 331,-19.5 331,-0.5 233,-0.5"/>
<text text-anchor="middle" x="282" y="-7.5" font-family="Helvetica,sans-Serif" font-size="10.00">nlohmann/json.hpp</text>
</a>
</g>
</g>
<!-- Node4&#45;&gt;Node10 -->
<g id="edge9" class="edge">
<title>Node4&#45;&gt;Node10</title>
<path fill="none" stroke="midnightblue" d="M903.59,-62.03C789.81,-56.61 552.2,-43.55 341.04,-20.02"/>
<polygon fill="midnightblue" stroke="midnightblue" points="341.34,-16.54 331.01,-18.9 340.56,-23.49 341.34,-16.54"/>
</g>
<!-- Node11 -->
<g id="node11" class="node">
<title>Node11</title>
<g id="a_node11"><a xlink:title=" ">
<polygon fill="none" stroke="#bfbfbf" points="349.5,-0.5 349.5,-19.5 434.5,-19.5 434.5,-0.5 349.5,-0.5"/>
<text text-anchor="middle" x="392" y="-7.5" font-family="Helvetica,sans-Serif" font-size="10.00">source_location</text>
</a>
</g>
</g>
<!-- Node4&#45;&gt;Node11 -->
<g id="edge10" class="edge">
<title>Node4&#45;&gt;Node11</title>
<path fill="none" stroke="midnightblue" d="M903.7,-61.2C805.07,-55.21 615.29,-42.05 444.46,-20.09"/>
<polygon fill="midnightblue" stroke="midnightblue" points="444.9,-16.62 434.53,-18.8 444,-23.56 444.9,-16.62"/>
</g>
<!-- Node12 -->
<g id="node12" class="node">
<title>Node12</title>
<g id="a_node12"><a xlink:title=" ">
<polygon fill="none" stroke="#bfbfbf" points="452.5,-0.5 452.5,-19.5 535.5,-19.5 535.5,-0.5 452.5,-0.5"/>
<text text-anchor="middle" x="494" y="-7.5" font-family="Helvetica,sans-Serif" font-size="10.00">unordered_map</text>
</a>
</g>
</g>
<!-- Node4&#45;&gt;Node12 -->
<g id="edge11" class="edge">
<title>Node4&#45;&gt;Node12</title>
<path fill="none" stroke="midnightblue" d="M903.68,-59.34C821.62,-52.12 678.5,-38.48 545.66,-20"/>
<polygon fill="midnightblue" stroke="midnightblue" points="546.1,-16.53 535.71,-18.6 545.13,-23.46 546.1,-16.53"/>
</g>
<!-- Node13 -->
<g id="node13" class="node">
<title>Node13</title>
<g id="a_node13"><a xlink:title=" ">
<polygon fill="none" stroke="#bfbfbf" points="554,-0.5 554,-19.5 632,-19.5 632,-0.5 554,-0.5"/>
<text text-anchor="middle" x="593" y="-7.5" font-family="Helvetica,sans-Serif" font-size="10.00">shared_mutex</text>
</a>
</g>
</g>
<!-- Node4&#45;&gt;Node13 -->
<g id="edge12" class="edge">
<title>Node4&#45;&gt;Node13</title>
<path fill="none" stroke="midnightblue" d="M903.86,-56.84C839.29,-48.77 738.71,-35.6 641.96,-20.09"/>
<polygon fill="midnightblue" stroke="midnightblue" points="642.43,-16.62 632,-18.48 641.32,-23.53 642.43,-16.62"/>
</g>
<!-- Node14 -->
<g id="node14" class="node">
<title>Node14</title>
<g id="a_node14"><a xlink:title=" ">
<polygon fill="none" stroke="#bfbfbf" points="650,-0.5 650,-19.5 708,-19.5 708,-0.5 650,-0.5"/>
<text text-anchor="middle" x="679" y="-7.5" font-family="Helvetica,sans-Serif" font-size="10.00">functional</text>
</a>
</g>
</g>
<!-- Node4&#45;&gt;Node14 -->
<g id="edge13" class="edge">
<title>Node4&#45;&gt;Node14</title>
<path fill="none" stroke="midnightblue" d="M917.8,-56.49C868.51,-48.39 792.91,-35.46 718.08,-20.13"/>
<polygon fill="midnightblue" stroke="midnightblue" points="718.51,-16.64 708.01,-18.05 717.09,-23.5 718.51,-16.64"/>
</g>
<!-- Node15 -->
<g id="node15" class="node">
<title>Node15</title>
<g id="a_node15"><a xlink:title=" ">
<polygon fill="none" stroke="#bfbfbf" points="726,-0.5 726,-19.5 782,-19.5 782,-0.5 726,-0.5"/>
<text text-anchor="middle" x="754" y="-7.5" font-family="Helvetica,sans-Serif" font-size="10.00">coroutine</text>
</a>
</g>
</g>
<!-- Node4&#45;&gt;Node15 -->
<g id="edge14" class="edge">
<title>Node4&#45;&gt;Node15</title>
<path fill="none" stroke="midnightblue" d="M936.62,-56.44C897.17,-46.63 832.7,-30.59 791.86,-20.42"/>
<polygon fill="midnightblue" stroke="midnightblue" points="792.56,-16.99 782.01,-17.97 790.87,-23.78 792.56,-16.99"/>
</g>
<!-- Node16 -->
<g id="node16" class="node">
<title>Node16</title>
<g id="a_node16"><a xlink:title=" ">
<polygon fill="none" stroke="#bfbfbf" points="1938.5,-0.5 1938.5,-19.5 2003.5,-19.5 2003.5,-0.5 1938.5,-0.5"/>
<text text-anchor="middle" x="1971" y="-7.5" font-family="Helvetica,sans-Serif" font-size="10.00">semaphore</text>
</a>
</g>
</g>
<!-- Node4&#45;&gt;Node16 -->
<g id="edge15" class="edge">
<title>Node4&#45;&gt;Node16</title>
<path fill="none" stroke="midnightblue" d="M1038.17,-61.37C1229.09,-51.06 1771.26,-21.79 1928.04,-13.32"/>
<polygon fill="midnightblue" stroke="midnightblue" points="1928.43,-16.8 1938.23,-12.77 1928.06,-9.81 1928.43,-16.8"/>
</g>
<!-- Node17 -->
<g id="node17" class="node">
<title>Node17</title>
<g id="a_node17"><a xlink:title=" ">
<polygon fill="none" stroke="#bfbfbf" points="800,-0.5 800,-19.5 856,-19.5 856,-0.5 800,-0.5"/>
<text text-anchor="middle" x="828" y="-7.5" font-family="Helvetica,sans-Serif" font-size="10.00">concepts</text>
</a>
</g>
</g>
<!-- Node4&#45;&gt;Node17 -->
<g id="edge16" class="edge">
<title>Node4&#45;&gt;Node17</title>
<path fill="none" stroke="midnightblue" d="M948.34,-56.44C924.6,-47.48 887.09,-33.31 860.26,-23.18"/>
<polygon fill="midnightblue" stroke="midnightblue" points="861.14,-19.77 850.55,-19.52 858.67,-26.32 861.14,-19.77"/>
</g>
<!-- Node18 -->
<g id="node18" class="node">
<title>Node18</title>
<g id="a_node18"><a xlink:title=" ">
<polygon fill="none" stroke="#bfbfbf" points="874,-0.5 874,-19.5 928,-19.5 928,-0.5 874,-0.5"/>
<text text-anchor="middle" x="901" y="-7.5" font-family="Helvetica,sans-Serif" font-size="10.00">iostream</text>
</a>
</g>
</g>
<!-- Node4&#45;&gt;Node18 -->
<g id="edge17" class="edge">
<title>Node4&#45;&gt;Node18</title>
<path fill="none" stroke="midnightblue" d="M959.75,-56.32C949.2,-48.18 933.2,-35.84 920.56,-26.09"/>
<polygon fill="midnightblue" stroke="midnightblue" points="922.51,-23.17 912.45,-19.83 918.23,-28.71 922.51,-23.17"/>
</g>
<!-- Node19 -->
<g id="node19" class="node">
<title>Node19</title>
<g id="a_node19"><a xlink:title=" ">
<polygon fill="none" stroke="#bfbfbf" points="946.5,-0.5 946.5,-19.5 995.5,-19.5 995.5,-0.5 946.5,-0.5"/>
<text text-anchor="middle" x="971" y="-7.5" font-family="Helvetica,sans-Serif" font-size="10.00">fstream</text>
</a>
</g>
</g>
<!-- Node4&#45;&gt;Node19 -->
<g id="edge18" class="edge">
<title>Node4&#45;&gt;Node19</title>
<path fill="none" stroke="midnightblue" d="M971,-56.08C971,-49.01 971,-38.86 971,-29.99"/>
<polygon fill="midnightblue" stroke="midnightblue" points="974.5,-29.75 971,-19.75 967.5,-29.75 974.5,-29.75"/>
</g>
<!-- Node20 -->
<g id="node20" class="node">
<title>Node20</title>
<g id="a_node20"><a xlink:title=" ">
<polygon fill="none" stroke="#bfbfbf" points="1013.5,-0.5 1013.5,-19.5 1054.5,-19.5 1054.5,-0.5 1013.5,-0.5"/>
<text text-anchor="middle" x="1034" y="-7.5" font-family="Helvetica,sans-Serif" font-size="10.00">bitset</text>
</a>
</g>
</g>
<!-- Node4&#45;&gt;Node20 -->
<g id="edge19" class="edge">
<title>Node4&#45;&gt;Node20</title>
<path fill="none" stroke="midnightblue" d="M981.12,-56.32C990.53,-48.26 1004.74,-36.08 1016.07,-26.37"/>
<polygon fill="midnightblue" stroke="midnightblue" points="1018.38,-29 1023.69,-19.83 1013.82,-23.68 1018.38,-29"/>
</g>
<!-- Node21 -->
<g id="node21" class="node">
<title>Node21</title>
<g id="a_node21"><a xlink:title=" ">
<polygon fill="none" stroke="#bfbfbf" points="1073,-0.5 1073,-19.5 1125,-19.5 1125,-0.5 1073,-0.5"/>
<text text-anchor="middle" x="1099" y="-7.5" font-family="Helvetica,sans-Serif" font-size="10.00">memory</text>
</a>
</g>
</g>
<!-- Node4&#45;&gt;Node21 -->
<g id="edge20" class="edge">
<title>Node4&#45;&gt;Node21</title>
<path fill="none" stroke="midnightblue" d="M991.28,-56.44C1012.35,-47.56 1045.52,-33.56 1069.49,-23.45"/>
<polygon fill="midnightblue" stroke="midnightblue" points="1070.96,-26.63 1078.81,-19.52 1068.24,-20.18 1070.96,-26.63"/>
</g>
<!-- Node22 -->
<g id="node22" class="node">
<title>Node22</title>
<g id="a_node22"><a xlink:title=" ">
<polygon fill="none" stroke="#bfbfbf" points="1143.5,-0.5 1143.5,-19.5 1192.5,-19.5 1192.5,-0.5 1143.5,-0.5"/>
<text text-anchor="middle" x="1168" y="-7.5" font-family="Helvetica,sans-Serif" font-size="10.00">random</text>
</a>
</g>
</g>
<!-- Node4&#45;&gt;Node22 -->
<g id="edge21" class="edge">
<title>Node4&#45;&gt;Node22</title>
<path fill="none" stroke="midnightblue" d="M1002.22,-56.44C1038.02,-46.63 1096.53,-30.59 1133.61,-20.43"/>
<polygon fill="midnightblue" stroke="midnightblue" points="1134.75,-23.74 1143.47,-17.73 1132.9,-16.99 1134.75,-23.74"/>
</g>
<!-- Node23 -->
<g id="node23" class="node">
<title>Node23</title>
<g id="a_node23"><a xlink:title=" ">
<polygon fill="none" stroke="#bfbfbf" points="1210.5,-0.5 1210.5,-19.5 1251.5,-19.5 1251.5,-0.5 1210.5,-0.5"/>
<text text-anchor="middle" x="1231" y="-7.5" font-family="Helvetica,sans-Serif" font-size="10.00">string</text>
</a>
</g>
</g>
<!-- Node4&#45;&gt;Node23 -->
<g id="edge22" class="edge">
<title>Node4&#45;&gt;Node23</title>
<path fill="none" stroke="midnightblue" d="M1023.19,-56.5C1068.04,-48.82 1134.58,-36.53 1200.73,-20.12"/>
<polygon fill="midnightblue" stroke="midnightblue" points="1201.64,-23.5 1210.48,-17.67 1199.93,-16.71 1201.64,-23.5"/>
</g>
<!-- Node24 -->
<g id="node24" class="node">
<title>Node24</title>
<g id="a_node24"><a xlink:title=" ">
<polygon fill="none" stroke="#bfbfbf" points="1270,-0.5 1270,-19.5 1312,-19.5 1312,-0.5 1270,-0.5"/>
<text text-anchor="middle" x="1291" y="-7.5" font-family="Helvetica,sans-Serif" font-size="10.00">vector</text>
</a>
</g>
</g>
<!-- Node4&#45;&gt;Node24 -->
<g id="edge23" class="edge">
<title>Node4&#45;&gt;Node24</title>
<path fill="none" stroke="midnightblue" d="M1038.01,-57.26C1094.8,-50.09 1178.5,-38.11 1259.88,-20"/>
<polygon fill="midnightblue" stroke="midnightblue" points="1260.81,-23.37 1269.79,-17.76 1259.27,-16.55 1260.81,-23.37"/>
</g>
<!-- Node25 -->
<g id="node25" class="node">
<title>Node25</title>
<g id="a_node25"><a xlink:title=" ">
<polygon fill="none" stroke="#bfbfbf" points="1330,-0.5 1330,-19.5 1374,-19.5 1374,-0.5 1330,-0.5"/>
<text text-anchor="middle" x="1352" y="-7.5" font-family="Helvetica,sans-Serif" font-size="10.00">thread</text>
</a>
</g>
</g>
<!-- Node4&#45;&gt;Node25 -->
<g id="edge24" class="edge">
<title>Node4&#45;&gt;Node25</title>
<path fill="none" stroke="midnightblue" d="M1038.28,-59.46C1106.92,-53.12 1216.57,-41.04 1319.79,-19.97"/>
<polygon fill="midnightblue" stroke="midnightblue" points="1320.67,-23.36 1329.75,-17.91 1319.25,-16.51 1320.67,-23.36"/>
</g>
<!-- Node26 -->
<g id="node26" class="node">
<title>Node26</title>
<g id="a_node26"><a xlink:title=" ">
<polygon fill="none" stroke="#bfbfbf" points="1392,-0.5 1392,-19.5 1436,-19.5 1436,-0.5 1392,-0.5"/>
<text text-anchor="middle" x="1414" y="-7.5" font-family="Helvetica,sans-Serif" font-size="10.00">mutex</text>
</a>
</g>
</g>
<!-- Node4&#45;&gt;Node26 -->
<g id="edge25" class="edge">
<title>Node4&#45;&gt;Node26</title>
<path fill="none" stroke="midnightblue" d="M1038.26,-61.25C1118.2,-56 1255.64,-44.42 1381.92,-19.9"/>
<polygon fill="midnightblue" stroke="midnightblue" points="1382.63,-23.33 1391.76,-17.96 1381.27,-16.46 1382.63,-23.33"/>
</g>
<!-- Node27 -->
<g id="node27" class="node">
<title>Node27</title>
<g id="a_node27"><a xlink:title=" ">
<polygon fill="none" stroke="#bfbfbf" points="1454.5,-0.5 1454.5,-19.5 1497.5,-19.5 1497.5,-0.5 1454.5,-0.5"/>
<text text-anchor="middle" x="1476" y="-7.5" font-family="Helvetica,sans-Serif" font-size="10.00">queue</text>
</a>
</g>
</g>
<!-- Node4&#45;&gt;Node27 -->
<g id="edge26" class="edge">
<title>Node4&#45;&gt;Node27</title>
<path fill="none" stroke="midnightblue" d="M1038.28,-62.59C1128.69,-58.47 1294.38,-47.82 1444.58,-19.7"/>
<polygon fill="midnightblue" stroke="midnightblue" points="1445.28,-23.13 1454.45,-17.82 1443.97,-16.25 1445.28,-23.13"/>
</g>
<!-- Node28 -->
<g id="node28" class="node">
<title>Node28</title>
<g id="a_node28"><a xlink:title=" ">
<polygon fill="none" stroke="#bfbfbf" points="1515.5,-0.5 1515.5,-19.5 1550.5,-19.5 1550.5,-0.5 1515.5,-0.5"/>
<text text-anchor="middle" x="1533" y="-7.5" font-family="Helvetica,sans-Serif" font-size="10.00">map</text>
</a>
</g>
</g>
<!-- Node4&#45;&gt;Node28 -->
<g id="edge27" class="edge">
<title>Node4&#45;&gt;Node28</title>
<path fill="none" stroke="midnightblue" d="M1038.21,-64.71C1138.56,-63.09 1333.35,-55.43 1505.28,-19.9"/>
<polygon fill="midnightblue" stroke="midnightblue" points="1506.2,-23.28 1515.26,-17.79 1504.76,-16.43 1506.2,-23.28"/>
</g>
<!-- Node29&#45;&gt;Node3 -->
<g id="edge29" class="edge">
<title>Node29&#45;&gt;Node3</title>
<path fill="none" stroke="midnightblue" d="M917.25,-347.36C910.77,-315.3 887.95,-202.44 877.86,-152.53"/>
<polygon fill="midnightblue" stroke="midnightblue" points="881.27,-151.73 875.86,-142.62 874.41,-153.12 881.27,-151.73"/>
</g>
<!-- Node30 -->
<g id="node30" class="node">
<title>Node30</title>
<g id="a_node30"><a xlink:href="../../db/d7c/a00722.html" target="_top" xlink:title=" ">
<polygon fill="none" stroke="black" points="1428.5,-291.5 1428.5,-310.5 1553.5,-310.5 1553.5,-291.5 1428.5,-291.5"/>
<text text-anchor="middle" x="1491" y="-298.5" font-family="Helvetica,sans-Serif" font-size="10.00">discordcoreapi/Https.hpp</text>
</a>
</g>
</g>
<!-- Node29&#45;&gt;Node30 -->
<g id="edge30" class="edge">
<title>Node29&#45;&gt;Node30</title>
<path fill="none" stroke="midnightblue" d="M994.07,-348.91C1104.33,-338.5 1308.76,-319.2 1417.88,-308.9"/>
<polygon fill="midnightblue" stroke="midnightblue" points="1418.51,-312.36 1428.14,-307.93 1417.86,-305.39 1418.51,-312.36"/>
</g>
<!-- Node30&#45;&gt;Node16 -->
<g id="edge47" class="edge">
<title>Node30&#45;&gt;Node16</title>
<path fill="none" stroke="midnightblue" d="M1553.57,-294.59C1702.95,-280.84 2068,-241.91 2068,-190 2068,-190 2068,-190 2068,-126.5 2068,-81.13 2023.57,-44.27 1994.85,-25.18"/>
<polygon fill="midnightblue" stroke="midnightblue" points="1996.47,-22.06 1986.16,-19.62 1992.7,-27.96 1996.47,-22.06"/>
</g>
<!-- Node31 -->
<g id="node31" class="node">
<title>Node31</title>
<g id="a_node31"><a xlink:href="../../d5/de8/a00749.html" target="_top" xlink:title=" ">
<polygon fill="none" stroke="black" points="1416,-235.5 1416,-254.5 1566,-254.5 1566,-235.5 1416,-235.5"/>
<text text-anchor="middle" x="1491" y="-242.5" font-family="Helvetica,sans-Serif" font-size="10.00">discordcoreapi/SSLClients.hpp</text>
</a>
</g>
</g>
<!-- Node30&#45;&gt;Node31 -->
<g id="edge31" class="edge">
<title>Node30&#45;&gt;Node31</title>
<path fill="none" stroke="midnightblue" d="M1491,-291.08C1491,-284.01 1491,-273.86 1491,-264.99"/>
<polygon fill="midnightblue" stroke="midnightblue" points="1494.5,-264.75 1491,-254.75 1487.5,-264.75 1494.5,-264.75"/>
</g>
<!-- Node31&#45;&gt;Node3 -->
<g id="edge42" class="edge">
<title>Node31&#45;&gt;Node3</title>
<path fill="none" stroke="midnightblue" d="M1415.78,-242.15C1268.4,-237.95 952.35,-225.91 911,-199 894.75,-188.42 884.93,-168.45 879.35,-152.46"/>
<polygon fill="midnightblue" stroke="midnightblue" points="882.61,-151.15 876.28,-142.66 875.93,-153.25 882.61,-151.15"/>
</g>
<!-- Node32 -->
<g id="node32" class="node">
<title>Node32</title>
<g id="a_node32"><a xlink:title=" ">
<polygon fill="none" stroke="#bfbfbf" points="1757.5,-179.5 1757.5,-198.5 1800.5,-198.5 1800.5,-179.5 1757.5,-179.5"/>
<text text-anchor="middle" x="1779" y="-186.5" font-family="Helvetica,sans-Serif" font-size="10.00">fcntl.h</text>
</a>
</g>
</g>
<!-- Node31&#45;&gt;Node32 -->
<g id="edge32" class="edge">
<title>Node31&#45;&gt;Node32</title>
<path fill="none" stroke="midnightblue" d="M1550.32,-235.5C1600.4,-227.89 1674.15,-215.69 1747.52,-198.89"/>
<polygon fill="midnightblue" stroke="midnightblue" points="1748.45,-202.27 1757.4,-196.6 1746.87,-195.45 1748.45,-202.27"/>
</g>
<!-- Node33 -->
<g id="node33" class="node">
<title>Node33</title>
<g id="a_node33"><a xlink:title=" ">
<polygon fill="none" stroke="#bfbfbf" points="1818.5,-179.5 1818.5,-198.5 1867.5,-198.5 1867.5,-179.5 1818.5,-179.5"/>
<text text-anchor="middle" x="1843" y="-186.5" font-family="Helvetica,sans-Serif" font-size="10.00">netdb.h</text>
</a>
</g>
</g>
<!-- Node31&#45;&gt;Node33 -->
<g id="edge33" class="edge">
<title>Node31&#45;&gt;Node33</title>
<path fill="none" stroke="midnightblue" d="M1566.23,-236.1C1628.81,-228.91 1720.38,-216.95 1808.34,-199.15"/>
<polygon fill="midnightblue" stroke="midnightblue" points="1809.12,-202.56 1818.21,-197.12 1807.72,-195.7 1809.12,-202.56"/>
</g>
<!-- Node34 -->
<g id="node34" class="node">
<title>Node34</title>
<g id="a_node34"><a xlink:title=" ">
<polygon fill="none" stroke="#bfbfbf" points="1885.5,-179.5 1885.5,-198.5 1950.5,-198.5 1950.5,-179.5 1885.5,-179.5"/>
<text text-anchor="middle" x="1918" y="-186.5" font-family="Helvetica,sans-Serif" font-size="10.00">netinet/in.h</text>
</a>
</g>
</g>
<!-- Node31&#45;&gt;Node34 -->
<g id="edge34" class="edge">
<title>Node31&#45;&gt;Node34</title>
<path fill="none" stroke="midnightblue" d="M1566.03,-237.49C1641.83,-230.41 1762.47,-217.75 1875.52,-199.11"/>
<polygon fill="midnightblue" stroke="midnightblue" points="1876.1,-202.57 1885.38,-197.47 1874.94,-195.66 1876.1,-202.57"/>
</g>
<!-- Node35 -->
<g id="node35" class="node">
<title>Node35</title>
<g id="a_node35"><a xlink:title=" ">
<polygon fill="none" stroke="#bfbfbf" points="1968.5,-179.5 1968.5,-198.5 2039.5,-198.5 2039.5,-179.5 1968.5,-179.5"/>
<text text-anchor="middle" x="2004" y="-186.5" font-family="Helvetica,sans-Serif" font-size="10.00">netinet/tcp.h</text>
</a>
</g>
</g>
<!-- Node31&#45;&gt;Node35 -->
<g id="edge35" class="edge">
<title>Node31&#45;&gt;Node35</title>
<path fill="none" stroke="midnightblue" d="M1566.03,-239.27C1656.7,-232.99 1814.08,-220.34 1957.72,-199.22"/>
<polygon fill="midnightblue" stroke="midnightblue" points="1958.66,-202.61 1968.04,-197.68 1957.63,-195.69 1958.66,-202.61"/>
</g>
<!-- Node36 -->
<g id="node36" class="node">
<title>Node36</title>
<g id="a_node36"><a xlink:title=" ">
<polygon fill="none" stroke="#bfbfbf" points="1096.5,-179.5 1096.5,-198.5 1145.5,-198.5 1145.5,-179.5 1096.5,-179.5"/>
<text text-anchor="middle" x="1121" y="-186.5" font-family="Helvetica,sans-Serif" font-size="10.00">stdint.h</text>
</a>
</g>
</g>
<!-- Node31&#45;&gt;Node36 -->
<g id="edge36" class="edge">
<title>Node31&#45;&gt;Node36</title>
<path fill="none" stroke="midnightblue" d="M1415.82,-236.67C1349.77,-229.6 1250.94,-217.51 1155.88,-198.94"/>
<polygon fill="midnightblue" stroke="midnightblue" points="1156.29,-195.46 1145.8,-196.95 1154.93,-202.33 1156.29,-195.46"/>
</g>
<!-- Node37 -->
<g id="node37" class="node">
<title>Node37</title>
<g id="a_node37"><a xlink:title=" ">
<polygon fill="none" stroke="#bfbfbf" points="1164,-179.5 1164,-198.5 1228,-198.5 1228,-179.5 1164,-179.5"/>
<text text-anchor="middle" x="1196" y="-186.5" font-family="Helvetica,sans-Serif" font-size="10.00">sys/epoll.h</text>
</a>
</g>
</g>
<!-- Node31&#45;&gt;Node37 -->
<g id="edge37" class="edge">
<title>Node31&#45;&gt;Node37</title>
<path fill="none" stroke="midnightblue" d="M1439.32,-235.48C1390.12,-227.22 1313.76,-214.04 1238.35,-199.21"/>
<polygon fill="midnightblue" stroke="midnightblue" points="1238.69,-195.71 1228.2,-197.2 1237.33,-202.57 1238.69,-195.71"/>
</g>
<!-- Node38 -->
<g id="node38" class="node">
<title>Node38</title>
<g id="a_node38"><a xlink:title=" ">
<polygon fill="none" stroke="#bfbfbf" points="1246,-179.5 1246,-198.5 1308,-198.5 1308,-179.5 1246,-179.5"/>
<text text-anchor="middle" x="1277" y="-186.5" font-family="Helvetica,sans-Serif" font-size="10.00">arpa/inet.h</text>
</a>
</g>
</g>
<!-- Node31&#45;&gt;Node38 -->
<g id="edge38" class="edge">
<title>Node31&#45;&gt;Node38</title>
<path fill="none" stroke="midnightblue" d="M1457.09,-235.44C1419.39,-225.93 1358.5,-210.57 1318.11,-200.37"/>
<polygon fill="midnightblue" stroke="midnightblue" points="1318.87,-196.95 1308.31,-197.9 1317.15,-203.74 1318.87,-196.95"/>
</g>
<!-- Node39 -->
<g id="node39" class="node">
<title>Node39</title>
<g id="a_node39"><a xlink:title=" ">
<polygon fill="none" stroke="#bfbfbf" points="1326.5,-179.5 1326.5,-198.5 1399.5,-198.5 1399.5,-179.5 1326.5,-179.5"/>
<text text-anchor="middle" x="1363" y="-186.5" font-family="Helvetica,sans-Serif" font-size="10.00">sys/socket.h</text>
</a>
</g>
</g>
<!-- Node31&#45;&gt;Node39 -->
<g id="edge39" class="edge">
<title>Node31&#45;&gt;Node39</title>
<path fill="none" stroke="midnightblue" d="M1470.72,-235.44C1449.65,-226.56 1416.48,-212.56 1392.51,-202.45"/>
<polygon fill="midnightblue" stroke="midnightblue" points="1393.76,-199.18 1383.19,-198.52 1391.04,-205.63 1393.76,-199.18"/>
</g>
<!-- Node40 -->
<g id="node40" class="node">
<title>Node40</title>
<g id="a_node40"><a xlink:title=" ">
<polygon fill="none" stroke="#bfbfbf" points="1418,-179.5 1418,-198.5 1486,-198.5 1486,-179.5 1418,-179.5"/>
<text text-anchor="middle" x="1452" y="-186.5" font-family="Helvetica,sans-Serif" font-size="10.00">sys/types.h</text>
</a>
</g>
</g>
<!-- Node31&#45;&gt;Node40 -->
<g id="edge40" class="edge">
<title>Node31&#45;&gt;Node40</title>
<path fill="none" stroke="midnightblue" d="M1484.56,-235.08C1479.05,-227.46 1470.97,-216.26 1464.24,-206.94"/>
<polygon fill="midnightblue" stroke="midnightblue" points="1467.01,-204.81 1458.32,-198.75 1461.34,-208.91 1467.01,-204.81"/>
</g>
<!-- Node41 -->
<g id="node41" class="node">
<title>Node41</title>
<g id="a_node41"><a xlink:title=" ">
<polygon fill="none" stroke="#bfbfbf" points="1504.5,-179.5 1504.5,-198.5 1555.5,-198.5 1555.5,-179.5 1504.5,-179.5"/>
<text text-anchor="middle" x="1530" y="-186.5" font-family="Helvetica,sans-Serif" font-size="10.00">unistd.h</text>
</a>
</g>
</g>
<!-- Node31&#45;&gt;Node41 -->
<g id="edge41" class="edge">
<title>Node31&#45;&gt;Node41</title>
<path fill="none" stroke="midnightblue" d="M1497.44,-235.08C1502.95,-227.46 1511.03,-216.26 1517.76,-206.94"/>
<polygon fill="midnightblue" stroke="midnightblue" points="1520.66,-208.91 1523.68,-198.75 1514.99,-204.81 1520.66,-208.91"/>
</g>
<!-- Node42 -->
<g id="node42" class="node">
<title>Node42</title>
<g id="a_node42"><a xlink:href="../../d4/d6a/a00704.html" target="_top" xlink:title=" ">
<polygon fill="none" stroke="black" points="920,-179.5 920,-198.5 1078,-198.5 1078,-179.5 920,-179.5"/>
<text text-anchor="middle" x="999" y="-186.5" font-family="Helvetica,sans-Serif" font-size="10.00">discordcoreapi/EventEntities.hpp</text>
</a>
</g>
</g>
<!-- Node31&#45;&gt;Node42 -->
<g id="edge43" class="edge">
<title>Node31&#45;&gt;Node42</title>
<path fill="none" stroke="midnightblue" d="M1415.74,-235.74C1327.17,-226.02 1180.35,-209.9 1086.71,-199.63"/>
<polygon fill="midnightblue" stroke="midnightblue" points="1087.01,-196.14 1076.69,-198.53 1086.25,-203.1 1087.01,-196.14"/>
</g>
<!-- Node43 -->
<g id="node43" class="node">
<title>Node43</title>
<g id="a_node43"><a xlink:title=" ">
<polygon fill="none" stroke="#bfbfbf" points="1573.5,-179.5 1573.5,-198.5 1646.5,-198.5 1646.5,-179.5 1573.5,-179.5"/>
<text text-anchor="middle" x="1610" y="-186.5" font-family="Helvetica,sans-Serif" font-size="10.00">openssl/err.h</text>
</a>
</g>
</g>
<!-- Node31&#45;&gt;Node43 -->
<g id="edge45" class="edge">
<title>Node31&#45;&gt;Node43</title>
<path fill="none" stroke="midnightblue" d="M1509.86,-235.44C1529.27,-226.64 1559.73,-212.81 1581.96,-202.72"/>
<polygon fill="midnightblue" stroke="midnightblue" points="1583.57,-205.84 1591.23,-198.52 1580.68,-199.46 1583.57,-205.84"/>
</g>
<!-- Node44 -->
<g id="node44" class="node">
<title>Node44</title>
<g id="a_node44"><a xlink:title=" ">
<polygon fill="none" stroke="#bfbfbf" points="1665,-179.5 1665,-198.5 1739,-198.5 1739,-179.5 1665,-179.5"/>
<text text-anchor="middle" x="1702" y="-186.5" font-family="Helvetica,sans-Serif" font-size="10.00">openssl/ssl.h</text>
</a>
</g>
</g>
<!-- Node31&#45;&gt;Node44 -->
<g id="edge46" class="edge">
<title>Node31&#45;&gt;Node44</title>
<path fill="none" stroke="midnightblue" d="M1524.43,-235.44C1560.86,-226.12 1619.23,-211.18 1659.03,-201"/>
<polygon fill="midnightblue" stroke="midnightblue" points="1659.9,-204.39 1668.72,-198.52 1658.17,-197.61 1659.9,-204.39"/>
</g>
<!-- Node42&#45;&gt;Node3 -->
<g id="edge44" class="edge">
<title>Node42&#45;&gt;Node3</title>
<path fill="none" stroke="midnightblue" d="M980.95,-179.48C963.01,-171 934.91,-157.74 911.89,-146.86"/>
<polygon fill="midnightblue" stroke="midnightblue" points="913.23,-143.63 902.7,-142.52 910.24,-149.96 913.23,-143.63"/>
</g>
</g>
</svg>
