<?xml version="1.0" encoding="UTF-8" standalone="no"?>
<!DOCTYPE svg PUBLIC "-//W3C//DTD SVG 1.1//EN"
 "http://www.w3.org/Graphics/SVG/1.1/DTD/svg11.dtd">
<!-- Generated by graphviz version 2.43.0 (0)
 -->
<!-- Title: Utilities.hpp Pages: 1 -->
<svg width="1862pt" height="82pt"
 viewBox="0.00 0.00 1861.50 82.00" xmlns="http://www.w3.org/2000/svg" xmlns:xlink="http://www.w3.org/1999/xlink">
<g id="graph0" class="graph" transform="scale(1 1) rotate(0) translate(4 78)">
<title>Utilities.hpp</title>
<!-- Node1 -->
<g id="node1" class="node">
<title>Node1</title>
<g id="a_node1"><a xlink:title=" ">
<polygon fill="#bfbfbf" stroke="black" points="1117.5,-74 1041.5,-74 1041.5,-55 1117.5,-55 1117.5,-74"/>
<text text-anchor="middle" x="1079.5" y="-62" font-family="Helvetica,sans-Serif" font-size="10.00">Utilities.hpp</text>
</a>
</g>
</g>
<!-- Node2 -->
<g id="node2" class="node">
<title>Node2</title>
<g id="a_node2"><a xlink:title=" ">
<polygon fill="none" stroke="#bfbfbf" points="63,-19 0,-19 0,0 63,0 63,-19"/>
<text text-anchor="middle" x="31.5" y="-7" font-family="Helvetica,sans-Serif" font-size="10.00">pthread.h</text>
</a>
</g>
</g>
<!-- Node1&#45;&gt;Node2 -->
<g id="edge1" class="edge">
<title>Node1&#45;&gt;Node2</title>
<path fill="none" stroke="midnightblue" d="M1041.36,-64.01C908.85,-65.31 456.07,-65.9 73.36,-18.86"/>
<polygon fill="midnightblue" stroke="midnightblue" points="73.56,-15.35 63.2,-17.6 72.69,-22.3 73.56,-15.35"/>
</g>
<!-- Node3 -->
<g id="node3" class="node">
<title>Node3</title>
<g id="a_node3"><a xlink:title=" ">
<polygon fill="none" stroke="#bfbfbf" points="149.5,-19 81.5,-19 81.5,0 149.5,0 149.5,-19"/>
<text text-anchor="middle" x="115.5" y="-7" font-family="Helvetica,sans-Serif" font-size="10.00">sys/time.h</text>
</a>
</g>
</g>
<!-- Node1&#45;&gt;Node3 -->
<g id="edge2" class="edge">
<title>Node1&#45;&gt;Node3</title>
<path fill="none" stroke="midnightblue" d="M1041.17,-63.66C915.84,-63.75 506.83,-60.7 159.69,-18.94"/>
<polygon fill="midnightblue" stroke="midnightblue" points="160.04,-15.46 149.69,-17.73 159.2,-22.41 160.04,-15.46"/>
</g>
<!-- Node4 -->
<g id="node4" class="node">
<title>Node4</title>
<g id="a_node4"><a xlink:title=" ">
<polygon fill="none" stroke="#bfbfbf" points="215.5,-19 167.5,-19 167.5,0 215.5,0 215.5,-19"/>
<text text-anchor="middle" x="191.5" y="-7" font-family="Helvetica,sans-Serif" font-size="10.00">time.h</text>
</a>
</g>
</g>
<!-- Node1&#45;&gt;Node4 -->
<g id="edge3" class="edge">
<title>Node1&#45;&gt;Node4</title>
<path fill="none" stroke="midnightblue" d="M1041.16,-62.52C899.47,-58.77 404.72,-44.22 225.6,-18.78"/>
<polygon fill="midnightblue" stroke="midnightblue" points="225.94,-15.29 215.54,-17.28 224.91,-22.21 225.94,-15.29"/>
</g>
<!-- Node5 -->
<g id="node5" class="node">
<title>Node5</title>
<g id="a_node5"><a xlink:title=" ">
<polygon fill="none" stroke="#bfbfbf" points="277.5,-19 233.5,-19 233.5,0 277.5,0 277.5,-19"/>
<text text-anchor="middle" x="255.5" y="-7" font-family="Helvetica,sans-Serif" font-size="10.00">ctime</text>
</a>
</g>
</g>
<!-- Node1&#45;&gt;Node5 -->
<g id="edge4" class="edge">
<title>Node1&#45;&gt;Node5</title>
<path fill="none" stroke="midnightblue" d="M1041.13,-62.42C906.25,-58.47 453.59,-43.78 287.76,-18.78"/>
<polygon fill="midnightblue" stroke="midnightblue" points="288.15,-15.3 277.73,-17.2 287.06,-22.22 288.15,-15.3"/>
</g>
<!-- Node6 -->
<g id="node6" class="node">
<title>Node6</title>
<g id="a_node6"><a xlink:title=" ">
<polygon fill="none" stroke="#bfbfbf" points="403,-19 296,-19 296,0 403,0 403,-19"/>
<text text-anchor="middle" x="349.5" y="-7" font-family="Helvetica,sans-Serif" font-size="10.00">condition_variable</text>
</a>
</g>
</g>
<!-- Node1&#45;&gt;Node6 -->
<g id="edge5" class="edge">
<title>Node1&#45;&gt;Node6</title>
<path fill="none" stroke="midnightblue" d="M1041.45,-61.86C940.8,-57.34 659.08,-43.43 413.29,-19"/>
<polygon fill="midnightblue" stroke="midnightblue" points="413.39,-15.49 403.09,-17.98 412.69,-22.46 413.39,-15.49"/>
</g>
<!-- Node7 -->
<g id="node7" class="node">
<title>Node7</title>
<g id="a_node7"><a xlink:title=" ">
<polygon fill="none" stroke="#bfbfbf" points="531.5,-19 421.5,-19 421.5,0 531.5,0 531.5,-19"/>
<text text-anchor="middle" x="476.5" y="-7" font-family="Helvetica,sans-Serif" font-size="10.00">nlohmann/json.hpp</text>
</a>
</g>
</g>
<!-- Node1&#45;&gt;Node7 -->
<g id="edge6" class="edge">
<title>Node1&#45;&gt;Node7</title>
<path fill="none" stroke="midnightblue" d="M1041.21,-60.99C954.36,-55.17 735.56,-39.71 541.72,-19.08"/>
<polygon fill="midnightblue" stroke="midnightblue" points="541.95,-15.58 531.64,-18 541.21,-22.55 541.95,-15.58"/>
</g>
<!-- Node8 -->
<g id="node8" class="node">
<title>Node8</title>
<g id="a_node8"><a xlink:title=" ">
<polygon fill="none" stroke="#bfbfbf" points="643,-19 550,-19 550,0 643,0 643,-19"/>
<text text-anchor="middle" x="596.5" y="-7" font-family="Helvetica,sans-Serif" font-size="10.00">source_location</text>
</a>
</g>
</g>
<!-- Node1&#45;&gt;Node8 -->
<g id="edge7" class="edge">
<title>Node1&#45;&gt;Node8</title>
<path fill="none" stroke="midnightblue" d="M1041.35,-60.18C968.15,-53.66 802.7,-38.26 653.54,-19.21"/>
<polygon fill="midnightblue" stroke="midnightblue" points="653.65,-15.7 643.29,-17.89 652.76,-22.64 653.65,-15.7"/>
</g>
<!-- Node9 -->
<g id="node9" class="node">
<title>Node9</title>
<g id="a_node9"><a xlink:title=" ">
<polygon fill="none" stroke="#bfbfbf" points="754,-19 661,-19 661,0 754,0 754,-19"/>
<text text-anchor="middle" x="707.5" y="-7" font-family="Helvetica,sans-Serif" font-size="10.00">unordered_map</text>
</a>
</g>
</g>
<!-- Node1&#45;&gt;Node9 -->
<g id="edge8" class="edge">
<title>Node1&#45;&gt;Node9</title>
<path fill="none" stroke="midnightblue" d="M1041.05,-58.22C983.34,-50.27 870.64,-34.62 764.19,-19.09"/>
<polygon fill="midnightblue" stroke="midnightblue" points="764.65,-15.62 754.25,-17.63 763.63,-22.54 764.65,-15.62"/>
</g>
<!-- Node10 -->
<g id="node10" class="node">
<title>Node10</title>
<g id="a_node10"><a xlink:title=" ">
<polygon fill="none" stroke="#bfbfbf" points="858.5,-19 772.5,-19 772.5,0 858.5,0 858.5,-19"/>
<text text-anchor="middle" x="815.5" y="-7" font-family="Helvetica,sans-Serif" font-size="10.00">shared_mutex</text>
</a>
</g>
</g>
<!-- Node1&#45;&gt;Node10 -->
<g id="edge9" class="edge">
<title>Node1&#45;&gt;Node10</title>
<path fill="none" stroke="midnightblue" d="M1041.39,-55.85C995.75,-46.69 919.03,-31.29 867.85,-21.01"/>
<polygon fill="midnightblue" stroke="midnightblue" points="868.46,-17.56 857.97,-19.03 867.08,-24.43 868.46,-17.56"/>
</g>
<!-- Node11 -->
<g id="node11" class="node">
<title>Node11</title>
<g id="a_node11"><a xlink:title=" ">
<polygon fill="none" stroke="#bfbfbf" points="942,-19 877,-19 877,0 942,0 942,-19"/>
<text text-anchor="middle" x="909.5" y="-7" font-family="Helvetica,sans-Serif" font-size="10.00">functional</text>
</a>
</g>
</g>
<!-- Node1&#45;&gt;Node11 -->
<g id="edge10" class="edge">
<title>Node1&#45;&gt;Node11</title>
<path fill="none" stroke="midnightblue" d="M1052.19,-54.98C1023.65,-46.09 978.67,-32.07 946.86,-22.15"/>
<polygon fill="midnightblue" stroke="midnightblue" points="947.62,-18.72 937.03,-19.08 945.53,-25.4 947.62,-18.72"/>
</g>
<!-- Node12 -->
<g id="node12" class="node">
<title>Node12</title>
<g id="a_node12"><a xlink:title=" ">
<polygon fill="none" stroke="#bfbfbf" points="1031,-19 960,-19 960,0 1031,0 1031,-19"/>
<text text-anchor="middle" x="995.5" y="-7" font-family="Helvetica,sans-Serif" font-size="10.00">semaphore</text>
</a>
</g>
</g>
<!-- Node1&#45;&gt;Node12 -->
<g id="edge11" class="edge">
<title>Node1&#45;&gt;Node12</title>
<path fill="none" stroke="midnightblue" d="M1066,-54.98C1053.1,-46.84 1033.4,-34.41 1018.1,-24.76"/>
<polygon fill="midnightblue" stroke="midnightblue" points="1019.57,-21.55 1009.24,-19.17 1015.83,-27.47 1019.57,-21.55"/>
</g>
<!-- Node13 -->
<g id="node13" class="node">
<title>Node13</title>
<g id="a_node13"><a xlink:title=" ">
<polygon fill="none" stroke="#bfbfbf" points="1109.5,-19 1049.5,-19 1049.5,0 1109.5,0 1109.5,-19"/>
<text text-anchor="middle" x="1079.5" y="-7" font-family="Helvetica,sans-Serif" font-size="10.00">concepts</text>
</a>
</g>
</g>
<!-- Node1&#45;&gt;Node13 -->
<g id="edge12" class="edge">
<title>Node1&#45;&gt;Node13</title>
<path fill="none" stroke="midnightblue" d="M1079.5,-54.75C1079.5,-47.8 1079.5,-37.85 1079.5,-29.13"/>
<polygon fill="midnightblue" stroke="midnightblue" points="1083,-29.09 1079.5,-19.09 1076,-29.09 1083,-29.09"/>
</g>
<!-- Node14 -->
<g id="node14" class="node">
<title>Node14</title>
<g id="a_node14"><a xlink:title=" ">
<polygon fill="none" stroke="#bfbfbf" points="1187.5,-19 1127.5,-19 1127.5,0 1187.5,0 1187.5,-19"/>
<text text-anchor="middle" x="1157.5" y="-7" font-family="Helvetica,sans-Serif" font-size="10.00">iostream</text>
</a>
</g>
</g>
<!-- Node1&#45;&gt;Node14 -->
<g id="edge13" class="edge">
<title>Node1&#45;&gt;Node14</title>
<path fill="none" stroke="midnightblue" d="M1092.03,-54.98C1103.9,-46.92 1121.96,-34.65 1136.11,-25.03"/>
<polygon fill="midnightblue" stroke="midnightblue" points="1138.44,-27.69 1144.74,-19.17 1134.5,-21.9 1138.44,-27.69"/>
</g>
<!-- Node15 -->
<g id="node15" class="node">
<title>Node15</title>
<g id="a_node15"><a xlink:title=" ">
<polygon fill="none" stroke="#bfbfbf" points="1261,-19 1206,-19 1206,0 1261,0 1261,-19"/>
<text text-anchor="middle" x="1233.5" y="-7" font-family="Helvetica,sans-Serif" font-size="10.00">fstream</text>
</a>
</g>
</g>
<!-- Node1&#45;&gt;Node15 -->
<g id="edge14" class="edge">
<title>Node1&#45;&gt;Node15</title>
<path fill="none" stroke="midnightblue" d="M1104.24,-54.98C1129.87,-46.16 1170.13,-32.31 1198.91,-22.41"/>
<polygon fill="midnightblue" stroke="midnightblue" points="1200.25,-25.65 1208.56,-19.08 1197.97,-19.03 1200.25,-25.65"/>
</g>
<!-- Node16 -->
<g id="node16" class="node">
<title>Node16</title>
<g id="a_node16"><a xlink:title=" ">
<polygon fill="none" stroke="#bfbfbf" points="1323.5,-19 1279.5,-19 1279.5,0 1323.5,0 1323.5,-19"/>
<text text-anchor="middle" x="1301.5" y="-7" font-family="Helvetica,sans-Serif" font-size="10.00">bitset</text>
</a>
</g>
</g>
<!-- Node1&#45;&gt;Node16 -->
<g id="edge15" class="edge">
<title>Node1&#45;&gt;Node16</title>
<path fill="none" stroke="midnightblue" d="M1117.66,-55.07C1154.25,-46.88 1211.28,-33.85 1269.45,-19.19"/>
<polygon fill="midnightblue" stroke="midnightblue" points="1270.34,-22.58 1279.18,-16.73 1268.62,-15.79 1270.34,-22.58"/>
</g>
<!-- Node17 -->
<g id="node17" class="node">
<title>Node17</title>
<g id="a_node17"><a xlink:title=" ">
<polygon fill="none" stroke="#bfbfbf" points="1399.5,-19 1341.5,-19 1341.5,0 1399.5,0 1399.5,-19"/>
<text text-anchor="middle" x="1370.5" y="-7" font-family="Helvetica,sans-Serif" font-size="10.00">memory</text>
</a>
</g>
</g>
<!-- Node1&#45;&gt;Node17 -->
<g id="edge16" class="edge">
<title>Node1&#45;&gt;Node17</title>
<path fill="none" stroke="midnightblue" d="M1117.75,-57.33C1165.45,-49.52 1249.71,-35.32 1331.52,-19.12"/>
<polygon fill="midnightblue" stroke="midnightblue" points="1332.36,-22.52 1341.48,-17.13 1330.99,-15.66 1332.36,-22.52"/>
</g>
<!-- Node18 -->
<g id="node18" class="node">
<title>Node18</title>
<g id="a_node18"><a xlink:title=" ">
<polygon fill="none" stroke="#bfbfbf" points="1471.5,-19 1417.5,-19 1417.5,0 1471.5,0 1471.5,-19"/>
<text text-anchor="middle" x="1444.5" y="-7" font-family="Helvetica,sans-Serif" font-size="10.00">random</text>
</a>
</g>
</g>
<!-- Node1&#45;&gt;Node18 -->
<g id="edge17" class="edge">
<title>Node1&#45;&gt;Node18</title>
<path fill="none" stroke="midnightblue" d="M1117.69,-59.56C1177.4,-53.13 1296.68,-39.21 1407.43,-19.03"/>
<polygon fill="midnightblue" stroke="midnightblue" points="1408.23,-22.44 1417.43,-17.19 1406.96,-15.56 1408.23,-22.44"/>
</g>
<!-- Node19 -->
<g id="node19" class="node">
<title>Node19</title>
<g id="a_node19"><a xlink:title=" ">
<polygon fill="none" stroke="#bfbfbf" points="1533.5,-19 1489.5,-19 1489.5,0 1533.5,0 1533.5,-19"/>
<text text-anchor="middle" x="1511.5" y="-7" font-family="Helvetica,sans-Serif" font-size="10.00">string</text>
</a>
</g>
</g>
<!-- Node1&#45;&gt;Node19 -->
<g id="edge18" class="edge">
<title>Node1&#45;&gt;Node19</title>
<path fill="none" stroke="midnightblue" d="M1117.67,-61.27C1187.63,-56.75 1341.16,-44.82 1479.33,-18.94"/>
<polygon fill="midnightblue" stroke="midnightblue" points="1480.08,-22.36 1489.25,-17.05 1478.77,-15.48 1480.08,-22.36"/>
</g>
<!-- Node20 -->
<g id="node20" class="node">
<title>Node20</title>
<g id="a_node20"><a xlink:title=" ">
<polygon fill="none" stroke="#bfbfbf" points="1599,-19 1552,-19 1552,0 1599,0 1599,-19"/>
<text text-anchor="middle" x="1575.5" y="-7" font-family="Helvetica,sans-Serif" font-size="10.00">vector</text>
</a>
</g>
</g>
<!-- Node1&#45;&gt;Node20 -->
<g id="edge19" class="edge">
<title>Node1&#45;&gt;Node20</title>
<path fill="none" stroke="midnightblue" d="M1117.58,-61.86C1195.43,-58.06 1378.5,-46.93 1541.59,-18.86"/>
<polygon fill="midnightblue" stroke="midnightblue" points="1542.56,-22.25 1551.8,-17.08 1541.35,-15.35 1542.56,-22.25"/>
</g>
<!-- Node21 -->
<g id="node21" class="node">
<title>Node21</title>
<g id="a_node21"><a xlink:title=" ">
<polygon fill="none" stroke="#bfbfbf" points="1665.5,-19 1617.5,-19 1617.5,0 1665.5,0 1665.5,-19"/>
<text text-anchor="middle" x="1641.5" y="-7" font-family="Helvetica,sans-Serif" font-size="10.00">thread</text>
</a>
</g>
</g>
<!-- Node1&#45;&gt;Node21 -->
<g id="edge20" class="edge">
<title>Node1&#45;&gt;Node21</title>
<path fill="none" stroke="midnightblue" d="M1117.62,-62.49C1203.48,-59.74 1418.57,-50.24 1607.34,-18.9"/>
<polygon fill="midnightblue" stroke="midnightblue" points="1608.17,-22.31 1617.45,-17.19 1607.01,-15.4 1608.17,-22.31"/>
</g>
<!-- Node22 -->
<g id="node22" class="node">
<title>Node22</title>
<g id="a_node22"><a xlink:title=" ">
<polygon fill="none" stroke="#bfbfbf" points="1731.5,-19 1683.5,-19 1683.5,0 1731.5,0 1731.5,-19"/>
<text text-anchor="middle" x="1707.5" y="-7" font-family="Helvetica,sans-Serif" font-size="10.00">mutex</text>
</a>
</g>
</g>
<!-- Node1&#45;&gt;Node22 -->
<g id="edge21" class="edge">
<title>Node1&#45;&gt;Node22</title>
<path fill="none" stroke="midnightblue" d="M1117.72,-62.99C1211.15,-61.23 1458.61,-53.57 1673.57,-18.84"/>
<polygon fill="midnightblue" stroke="midnightblue" points="1674.15,-22.29 1683.45,-17.22 1673.02,-15.38 1674.15,-22.29"/>
</g>
<!-- Node23 -->
<g id="node23" class="node">
<title>Node23</title>
<g id="a_node23"><a xlink:title=" ">
<polygon fill="none" stroke="#bfbfbf" points="1797,-19 1750,-19 1750,0 1797,0 1797,-19"/>
<text text-anchor="middle" x="1773.5" y="-7" font-family="Helvetica,sans-Serif" font-size="10.00">queue</text>
</a>
</g>
</g>
<!-- Node1&#45;&gt;Node23 -->
<g id="edge22" class="edge">
<title>Node1&#45;&gt;Node23</title>
<path fill="none" stroke="midnightblue" d="M1117.78,-63.39C1218.33,-62.57 1498.22,-56.92 1739.79,-18.76"/>
<polygon fill="midnightblue" stroke="midnightblue" points="1740.5,-22.2 1749.82,-17.16 1739.39,-15.28 1740.5,-22.2"/>
</g>
<!-- Node24 -->
<g id="node24" class="node">
<title>Node24</title>
<g id="a_node24"><a xlink:title=" ">
<polygon fill="none" stroke="#bfbfbf" points="1853.5,-19 1815.5,-19 1815.5,0 1853.5,0 1853.5,-19"/>
<text text-anchor="middle" x="1834.5" y="-7" font-family="Helvetica,sans-Serif" font-size="10.00">map</text>
</a>
</g>
</g>
<!-- Node1&#45;&gt;Node24 -->
<g id="edge23" class="edge">
<title>Node1&#45;&gt;Node24</title>
<path fill="none" stroke="midnightblue" d="M1117.81,-62.34C1245,-58.29 1653.33,-43.81 1805.3,-18.7"/>
<polygon fill="midnightblue" stroke="midnightblue" points="1806.11,-22.11 1815.36,-16.95 1804.91,-15.22 1806.11,-22.11"/>
</g>
</g>
</svg>
