<?xml version="1.0" encoding="UTF-8" standalone="no"?>
<!DOCTYPE svg PUBLIC "-//W3C//DTD SVG 1.1//EN"
 "http://www.w3.org/Graphics/SVG/1.1/DTD/svg11.dtd">
<!-- Generated by graphviz version 2.43.0 (0)
 -->
<!-- Title: SoundCloudAPI.hpp Pages: 1 -->
<svg width="1882pt" height="478pt"
 viewBox="0.00 0.00 1881.50 478.00" xmlns="http://www.w3.org/2000/svg" xmlns:xlink="http://www.w3.org/1999/xlink">
<g id="graph0" class="graph" transform="scale(1 1) rotate(0) translate(4 474)">
<title>SoundCloudAPI.hpp</title>
<!-- Node1 -->
<g id="node1" class="node">
<title>Node1</title>
<g id="a_node1"><a xlink:title=" ">
<polygon fill="#bfbfbf" stroke="black" points="1589,-470 1478,-470 1478,-451 1589,-451 1589,-470"/>
<text text-anchor="middle" x="1533.5" y="-458" font-family="Helvetica,sans-Serif" font-size="10.00">SoundCloudAPI.hpp</text>
</a>
</g>
</g>
<!-- Node2 -->
<g id="node2" class="node">
<title>Node2</title>
<g id="a_node2"><a xlink:href="../../d3/d95/a00779.html" target="_top" xlink:title=" ">
<polygon fill="none" stroke="black" points="426,-250 247,-250 247,-231 426,-231 426,-250"/>
<text text-anchor="middle" x="336.5" y="-238" font-family="Helvetica,sans-Serif" font-size="10.00">discordcoreapi/AudioDecoder.hpp</text>
</a>
</g>
</g>
<!-- Node1&#45;&gt;Node2 -->
<g id="edge1" class="edge">
<title>Node1&#45;&gt;Node2</title>
<path fill="none" stroke="midnightblue" d="M1486.58,-450.95C1298.38,-416.68 598.57,-289.23 393.39,-251.86"/>
<polygon fill="midnightblue" stroke="midnightblue" points="393.89,-248.39 383.42,-250.05 392.63,-255.28 393.89,-248.39"/>
</g>
<!-- Node31 -->
<g id="node31" class="node">
<title>Node31</title>
<g id="a_node31"><a xlink:href="../../df/df7/a00731.html" target="_top" xlink:title=" ">
<polygon fill="none" stroke="black" points="1866.5,-415 1688.5,-415 1688.5,-396 1866.5,-396 1866.5,-415"/>
<text text-anchor="middle" x="1777.5" y="-403" font-family="Helvetica,sans-Serif" font-size="10.00">discordcoreapi/AudioEncoder.hpp</text>
</a>
</g>
</g>
<!-- Node1&#45;&gt;Node31 -->
<g id="edge31" class="edge">
<title>Node1&#45;&gt;Node31</title>
<path fill="none" stroke="midnightblue" d="M1572.7,-450.98C1614.91,-441.82 1682.15,-427.21 1727.98,-417.26"/>
<polygon fill="midnightblue" stroke="midnightblue" points="1728.96,-420.63 1737.99,-415.08 1727.47,-413.78 1728.96,-420.63"/>
</g>
<!-- Node33 -->
<g id="node33" class="node">
<title>Node33</title>
<g id="a_node33"><a xlink:href="../../d4/d9b/a00680.html" target="_top" xlink:title=" ">
<polygon fill="none" stroke="black" points="1670.5,-415 1508.5,-415 1508.5,-396 1670.5,-396 1670.5,-415"/>
<text text-anchor="middle" x="1589.5" y="-403" font-family="Helvetica,sans-Serif" font-size="10.00">discordcoreapi/CoRoutine.hpp</text>
</a>
</g>
</g>
<!-- Node1&#45;&gt;Node33 -->
<g id="edge34" class="edge">
<title>Node1&#45;&gt;Node33</title>
<path fill="none" stroke="midnightblue" d="M1542.5,-450.98C1550.69,-443.23 1563.01,-431.58 1572.97,-422.14"/>
<polygon fill="midnightblue" stroke="midnightblue" points="1575.48,-424.59 1580.34,-415.17 1570.67,-419.5 1575.48,-424.59"/>
</g>
<!-- Node35 -->
<g id="node35" class="node">
<title>Node35</title>
<g id="a_node35"><a xlink:href="../../d4/d6a/a00704.html" target="_top" xlink:title=" ">
<polygon fill="none" stroke="black" points="1548.5,-305 1410.5,-305 1410.5,-286 1548.5,-286 1548.5,-305"/>
<text text-anchor="middle" x="1479.5" y="-293" font-family="Helvetica,sans-Serif" font-size="10.00">discordcoreapi/Https.hpp</text>
</a>
</g>
</g>
<!-- Node1&#45;&gt;Node35 -->
<g id="edge55" class="edge">
<title>Node1&#45;&gt;Node35</title>
<path fill="none" stroke="midnightblue" d="M1524.76,-450.8C1516.85,-442.39 1505.54,-428.91 1499.5,-415 1485.14,-381.95 1481.05,-339.55 1479.91,-315.46"/>
<polygon fill="midnightblue" stroke="midnightblue" points="1483.4,-315.11 1479.56,-305.23 1476.41,-315.35 1483.4,-315.11"/>
</g>
<!-- Node3 -->
<g id="node3" class="node">
<title>Node3</title>
<g id="a_node3"><a xlink:href="../../d2/ddd/a00755.html" target="_top" xlink:title=" ">
<polygon fill="none" stroke="black" points="540.5,-195 364.5,-195 364.5,-176 540.5,-176 540.5,-195"/>
<text text-anchor="middle" x="452.5" y="-183" font-family="Helvetica,sans-Serif" font-size="10.00">discordcoreapi/EventEntities.hpp</text>
</a>
</g>
</g>
<!-- Node2&#45;&gt;Node3 -->
<g id="edge2" class="edge">
<title>Node2&#45;&gt;Node3</title>
<path fill="none" stroke="midnightblue" d="M355.14,-230.98C373.8,-222.46 402.75,-209.23 424.24,-199.41"/>
<polygon fill="midnightblue" stroke="midnightblue" points="425.88,-202.51 433.52,-195.17 422.97,-196.14 425.88,-202.51"/>
</g>
<!-- Node4 -->
<g id="node4" class="node">
<title>Node4</title>
<g id="a_node4"><a xlink:href="../../d3/d2c/a00764.html" target="_top" xlink:title=" ">
<polygon fill="none" stroke="black" points="1172,-140 1027,-140 1027,-110 1172,-110 1172,-140"/>
<text text-anchor="start" x="1035" y="-128" font-family="Helvetica,sans-Serif" font-size="10.00">discordcoreapi/Foundation</text>
<text text-anchor="middle" x="1099.5" y="-117" font-family="Helvetica,sans-Serif" font-size="10.00">Entities.hpp</text>
</a>
</g>
</g>
<!-- Node2&#45;&gt;Node4 -->
<g id="edge28" class="edge">
<title>Node2&#45;&gt;Node4</title>
<path fill="none" stroke="midnightblue" d="M336.23,-230.85C336.32,-216.82 338.77,-189.35 355.5,-176 406.21,-135.53 833.7,-127.78 1016.8,-126.32"/>
<polygon fill="midnightblue" stroke="midnightblue" points="1016.94,-129.82 1026.92,-126.25 1016.89,-122.82 1016.94,-129.82"/>
</g>
<!-- Node29 -->
<g id="node29" class="node">
<title>Node29</title>
<g id="a_node29"><a xlink:title=" ">
<polygon fill="none" stroke="#bfbfbf" points="308,-195 177,-195 177,-176 308,-176 308,-195"/>
<text text-anchor="middle" x="242.5" y="-183" font-family="Helvetica,sans-Serif" font-size="10.00">libavformat/avformat.h</text>
</a>
</g>
</g>
<!-- Node2&#45;&gt;Node29 -->
<g id="edge29" class="edge">
<title>Node2&#45;&gt;Node29</title>
<path fill="none" stroke="midnightblue" d="M321.4,-230.98C306.68,-222.69 284.08,-209.94 266.83,-200.22"/>
<polygon fill="midnightblue" stroke="midnightblue" points="268.31,-197.03 257.88,-195.17 264.87,-203.13 268.31,-197.03"/>
</g>
<!-- Node30 -->
<g id="node30" class="node">
<title>Node30</title>
<g id="a_node30"><a xlink:title=" ">
<polygon fill="none" stroke="#bfbfbf" points="159,-195 0,-195 0,-176 159,-176 159,-195"/>
<text text-anchor="middle" x="79.5" y="-183" font-family="Helvetica,sans-Serif" font-size="10.00">libswresample/swresample.h</text>
</a>
</g>
</g>
<!-- Node2&#45;&gt;Node30 -->
<g id="edge30" class="edge">
<title>Node2&#45;&gt;Node30</title>
<path fill="none" stroke="midnightblue" d="M295.21,-230.98C250.57,-221.78 179.34,-207.09 131.05,-197.13"/>
<polygon fill="midnightblue" stroke="midnightblue" points="131.62,-193.67 121.12,-195.08 130.2,-200.53 131.62,-193.67"/>
</g>
<!-- Node3&#45;&gt;Node4 -->
<g id="edge3" class="edge">
<title>Node3&#45;&gt;Node4</title>
<path fill="none" stroke="midnightblue" d="M540.77,-176.52C666.22,-165.18 894.43,-144.54 1016.77,-133.48"/>
<polygon fill="midnightblue" stroke="midnightblue" points="1017.19,-136.96 1026.84,-132.57 1016.56,-129.98 1017.19,-136.96"/>
</g>
<!-- Node5 -->
<g id="node5" class="node">
<title>Node5</title>
<g id="a_node5"><a xlink:href="../../d8/db9/a00725.html" target="_top" xlink:title=" ">
<polygon fill="none" stroke="black" points="1174.5,-74 1024.5,-74 1024.5,-55 1174.5,-55 1174.5,-74"/>
<text text-anchor="middle" x="1099.5" y="-62" font-family="Helvetica,sans-Serif" font-size="10.00">discordcoreapi/Utilities.hpp</text>
</a>
</g>
</g>
<!-- Node4&#45;&gt;Node5 -->
<g id="edge4" class="edge">
<title>Node4&#45;&gt;Node5</title>
<path fill="none" stroke="midnightblue" d="M1099.5,-109.84C1099.5,-102.21 1099.5,-92.7 1099.5,-84.45"/>
<polygon fill="midnightblue" stroke="midnightblue" points="1103,-84.27 1099.5,-74.27 1096,-84.27 1103,-84.27"/>
</g>
<!-- Node6 -->
<g id="node6" class="node">
<title>Node6</title>
<g id="a_node6"><a xlink:title=" ">
<polygon fill="none" stroke="#bfbfbf" points="83,-19 20,-19 20,0 83,0 83,-19"/>
<text text-anchor="middle" x="51.5" y="-7" font-family="Helvetica,sans-Serif" font-size="10.00">pthread.h</text>
</a>
</g>
</g>
<!-- Node5&#45;&gt;Node6 -->
<g id="edge5" class="edge">
<title>Node5&#45;&gt;Node6</title>
<path fill="none" stroke="midnightblue" d="M1024.31,-64.28C858.04,-65.12 446.64,-62.31 93.37,-18.86"/>
<polygon fill="midnightblue" stroke="midnightblue" points="93.56,-15.36 83.2,-17.6 92.69,-22.3 93.56,-15.36"/>
</g>
<!-- Node7 -->
<g id="node7" class="node">
<title>Node7</title>
<g id="a_node7"><a xlink:title=" ">
<polygon fill="none" stroke="#bfbfbf" points="169.5,-19 101.5,-19 101.5,0 169.5,0 169.5,-19"/>
<text text-anchor="middle" x="135.5" y="-7" font-family="Helvetica,sans-Serif" font-size="10.00">sys/time.h</text>
</a>
</g>
</g>
<!-- Node5&#45;&gt;Node7 -->
<g id="edge6" class="edge">
<title>Node5&#45;&gt;Node7</title>
<path fill="none" stroke="midnightblue" d="M1024.27,-63.6C868.44,-62.99 498.98,-57.34 180.07,-18.99"/>
<polygon fill="midnightblue" stroke="midnightblue" points="180.04,-15.46 169.69,-17.73 179.2,-22.41 180.04,-15.46"/>
</g>
<!-- Node8 -->
<g id="node8" class="node">
<title>Node8</title>
<g id="a_node8"><a xlink:title=" ">
<polygon fill="none" stroke="#bfbfbf" points="235.5,-19 187.5,-19 187.5,0 235.5,0 235.5,-19"/>
<text text-anchor="middle" x="211.5" y="-7" font-family="Helvetica,sans-Serif" font-size="10.00">time.h</text>
</a>
</g>
</g>
<!-- Node5&#45;&gt;Node8 -->
<g id="edge7" class="edge">
<title>Node5&#45;&gt;Node8</title>
<path fill="none" stroke="midnightblue" d="M1024.24,-61.52C848.11,-56.56 412.09,-42.46 245.63,-18.78"/>
<polygon fill="midnightblue" stroke="midnightblue" points="245.94,-15.29 235.54,-17.28 244.91,-22.21 245.94,-15.29"/>
</g>
<!-- Node9 -->
<g id="node9" class="node">
<title>Node9</title>
<g id="a_node9"><a xlink:title=" ">
<polygon fill="none" stroke="#bfbfbf" points="297.5,-19 253.5,-19 253.5,0 297.5,0 297.5,-19"/>
<text text-anchor="middle" x="275.5" y="-7" font-family="Helvetica,sans-Serif" font-size="10.00">ctime</text>
</a>
</g>
</g>
<!-- Node5&#45;&gt;Node9 -->
<g id="edge8" class="edge">
<title>Node5&#45;&gt;Node9</title>
<path fill="none" stroke="midnightblue" d="M1024.36,-61.31C857.95,-56.15 461.6,-41.99 307.93,-18.81"/>
<polygon fill="midnightblue" stroke="midnightblue" points="308.15,-15.3 297.73,-17.2 307.06,-22.22 308.15,-15.3"/>
</g>
<!-- Node10 -->
<g id="node10" class="node">
<title>Node10</title>
<g id="a_node10"><a xlink:title=" ">
<polygon fill="none" stroke="#bfbfbf" points="423,-19 316,-19 316,0 423,0 423,-19"/>
<text text-anchor="middle" x="369.5" y="-7" font-family="Helvetica,sans-Serif" font-size="10.00">condition_variable</text>
</a>
</g>
</g>
<!-- Node5&#45;&gt;Node10 -->
<g id="edge9" class="edge">
<title>Node5&#45;&gt;Node10</title>
<path fill="none" stroke="midnightblue" d="M1024.34,-60.14C902.56,-54.34 654.36,-40.98 433.26,-19"/>
<polygon fill="midnightblue" stroke="midnightblue" points="433.39,-15.5 423.09,-17.98 432.69,-22.46 433.39,-15.5"/>
</g>
<!-- Node11 -->
<g id="node11" class="node">
<title>Node11</title>
<g id="a_node11"><a xlink:title=" ">
<polygon fill="none" stroke="#bfbfbf" points="551.5,-19 441.5,-19 441.5,0 551.5,0 551.5,-19"/>
<text text-anchor="middle" x="496.5" y="-7" font-family="Helvetica,sans-Serif" font-size="10.00">nlohmann/json.hpp</text>
</a>
</g>
</g>
<!-- Node5&#45;&gt;Node11 -->
<g id="edge10" class="edge">
<title>Node5&#45;&gt;Node11</title>
<path fill="none" stroke="midnightblue" d="M1024.4,-58.48C922.13,-51.39 733.11,-37.33 561.6,-19.07"/>
<polygon fill="midnightblue" stroke="midnightblue" points="561.95,-15.59 551.64,-18 561.21,-22.55 561.95,-15.59"/>
</g>
<!-- Node12 -->
<g id="node12" class="node">
<title>Node12</title>
<g id="a_node12"><a xlink:title=" ">
<polygon fill="none" stroke="#bfbfbf" points="663,-19 570,-19 570,0 663,0 663,-19"/>
<text text-anchor="middle" x="616.5" y="-7" font-family="Helvetica,sans-Serif" font-size="10.00">source_location</text>
</a>
</g>
</g>
<!-- Node5&#45;&gt;Node12 -->
<g id="edge11" class="edge">
<title>Node5&#45;&gt;Node12</title>
<path fill="none" stroke="midnightblue" d="M1024.37,-56.83C940.98,-49.17 802.13,-35.64 673.33,-19.18"/>
<polygon fill="midnightblue" stroke="midnightblue" points="673.65,-15.7 663.29,-17.89 672.76,-22.64 673.65,-15.7"/>
</g>
<!-- Node13 -->
<g id="node13" class="node">
<title>Node13</title>
<g id="a_node13"><a xlink:title=" ">
<polygon fill="none" stroke="#bfbfbf" points="774,-19 681,-19 681,0 774,0 774,-19"/>
<text text-anchor="middle" x="727.5" y="-7" font-family="Helvetica,sans-Serif" font-size="10.00">unordered_map</text>
</a>
</g>
</g>
<!-- Node5&#45;&gt;Node13 -->
<g id="edge12" class="edge">
<title>Node5&#45;&gt;Node13</title>
<path fill="none" stroke="midnightblue" d="M1037.71,-55C976.17,-46.49 878.7,-32.88 784.26,-19.1"/>
<polygon fill="midnightblue" stroke="midnightblue" points="784.65,-15.62 774.25,-17.63 783.63,-22.54 784.65,-15.62"/>
</g>
<!-- Node14 -->
<g id="node14" class="node">
<title>Node14</title>
<g id="a_node14"><a xlink:title=" ">
<polygon fill="none" stroke="#bfbfbf" points="878.5,-19 792.5,-19 792.5,0 878.5,0 878.5,-19"/>
<text text-anchor="middle" x="835.5" y="-7" font-family="Helvetica,sans-Serif" font-size="10.00">shared_mutex</text>
</a>
</g>
</g>
<!-- Node5&#45;&gt;Node14 -->
<g id="edge13" class="edge">
<title>Node5&#45;&gt;Node14</title>
<path fill="none" stroke="midnightblue" d="M1057.08,-54.98C1011.13,-45.76 937.75,-31.03 888.15,-21.07"/>
<polygon fill="midnightblue" stroke="midnightblue" points="888.74,-17.62 878.25,-19.08 887.36,-24.48 888.74,-17.62"/>
</g>
<!-- Node15 -->
<g id="node15" class="node">
<title>Node15</title>
<g id="a_node15"><a xlink:title=" ">
<polygon fill="none" stroke="#bfbfbf" points="962,-19 897,-19 897,0 962,0 962,-19"/>
<text text-anchor="middle" x="929.5" y="-7" font-family="Helvetica,sans-Serif" font-size="10.00">functional</text>
</a>
</g>
</g>
<!-- Node5&#45;&gt;Node15 -->
<g id="edge14" class="edge">
<title>Node5&#45;&gt;Node15</title>
<path fill="none" stroke="midnightblue" d="M1072.19,-54.98C1043.65,-46.09 998.67,-32.07 966.86,-22.15"/>
<polygon fill="midnightblue" stroke="midnightblue" points="967.62,-18.72 957.03,-19.08 965.53,-25.4 967.62,-18.72"/>
</g>
<!-- Node16 -->
<g id="node16" class="node">
<title>Node16</title>
<g id="a_node16"><a xlink:title=" ">
<polygon fill="none" stroke="#bfbfbf" points="1051,-19 980,-19 980,0 1051,0 1051,-19"/>
<text text-anchor="middle" x="1015.5" y="-7" font-family="Helvetica,sans-Serif" font-size="10.00">semaphore</text>
</a>
</g>
</g>
<!-- Node5&#45;&gt;Node16 -->
<g id="edge15" class="edge">
<title>Node5&#45;&gt;Node16</title>
<path fill="none" stroke="midnightblue" d="M1086,-54.98C1073.1,-46.84 1053.4,-34.41 1038.1,-24.76"/>
<polygon fill="midnightblue" stroke="midnightblue" points="1039.57,-21.55 1029.24,-19.17 1035.83,-27.47 1039.57,-21.55"/>
</g>
<!-- Node17 -->
<g id="node17" class="node">
<title>Node17</title>
<g id="a_node17"><a xlink:title=" ">
<polygon fill="none" stroke="#bfbfbf" points="1129.5,-19 1069.5,-19 1069.5,0 1129.5,0 1129.5,-19"/>
<text text-anchor="middle" x="1099.5" y="-7" font-family="Helvetica,sans-Serif" font-size="10.00">concepts</text>
</a>
</g>
</g>
<!-- Node5&#45;&gt;Node17 -->
<g id="edge16" class="edge">
<title>Node5&#45;&gt;Node17</title>
<path fill="none" stroke="midnightblue" d="M1099.5,-54.75C1099.5,-47.8 1099.5,-37.85 1099.5,-29.13"/>
<polygon fill="midnightblue" stroke="midnightblue" points="1103,-29.09 1099.5,-19.09 1096,-29.09 1103,-29.09"/>
</g>
<!-- Node18 -->
<g id="node18" class="node">
<title>Node18</title>
<g id="a_node18"><a xlink:title=" ">
<polygon fill="none" stroke="#bfbfbf" points="1207.5,-19 1147.5,-19 1147.5,0 1207.5,0 1207.5,-19"/>
<text text-anchor="middle" x="1177.5" y="-7" font-family="Helvetica,sans-Serif" font-size="10.00">iostream</text>
</a>
</g>
</g>
<!-- Node5&#45;&gt;Node18 -->
<g id="edge17" class="edge">
<title>Node5&#45;&gt;Node18</title>
<path fill="none" stroke="midnightblue" d="M1112.03,-54.98C1123.9,-46.92 1141.96,-34.65 1156.11,-25.03"/>
<polygon fill="midnightblue" stroke="midnightblue" points="1158.44,-27.69 1164.74,-19.17 1154.5,-21.9 1158.44,-27.69"/>
</g>
<!-- Node19 -->
<g id="node19" class="node">
<title>Node19</title>
<g id="a_node19"><a xlink:title=" ">
<polygon fill="none" stroke="#bfbfbf" points="1281,-19 1226,-19 1226,0 1281,0 1281,-19"/>
<text text-anchor="middle" x="1253.5" y="-7" font-family="Helvetica,sans-Serif" font-size="10.00">fstream</text>
</a>
</g>
</g>
<!-- Node5&#45;&gt;Node19 -->
<g id="edge18" class="edge">
<title>Node5&#45;&gt;Node19</title>
<path fill="none" stroke="midnightblue" d="M1124.24,-54.98C1149.87,-46.16 1190.13,-32.31 1218.91,-22.41"/>
<polygon fill="midnightblue" stroke="midnightblue" points="1220.25,-25.65 1228.56,-19.08 1217.97,-19.03 1220.25,-25.65"/>
</g>
<!-- Node20 -->
<g id="node20" class="node">
<title>Node20</title>
<g id="a_node20"><a xlink:title=" ">
<polygon fill="none" stroke="#bfbfbf" points="1343.5,-19 1299.5,-19 1299.5,0 1343.5,0 1343.5,-19"/>
<text text-anchor="middle" x="1321.5" y="-7" font-family="Helvetica,sans-Serif" font-size="10.00">bitset</text>
</a>
</g>
</g>
<!-- Node5&#45;&gt;Node20 -->
<g id="edge19" class="edge">
<title>Node5&#45;&gt;Node20</title>
<path fill="none" stroke="midnightblue" d="M1137.43,-54.96C1175.84,-46.24 1236.91,-32.14 1289.5,-19 1289.6,-18.97 1289.7,-18.95 1289.8,-18.92"/>
<polygon fill="midnightblue" stroke="midnightblue" points="1290.67,-22.31 1299.49,-16.44 1288.93,-15.53 1290.67,-22.31"/>
</g>
<!-- Node21 -->
<g id="node21" class="node">
<title>Node21</title>
<g id="a_node21"><a xlink:title=" ">
<polygon fill="none" stroke="#bfbfbf" points="1419.5,-19 1361.5,-19 1361.5,0 1419.5,0 1419.5,-19"/>
<text text-anchor="middle" x="1390.5" y="-7" font-family="Helvetica,sans-Serif" font-size="10.00">memory</text>
</a>
</g>
</g>
<!-- Node5&#45;&gt;Node21 -->
<g id="edge20" class="edge">
<title>Node5&#45;&gt;Node21</title>
<path fill="none" stroke="midnightblue" d="M1151.96,-55C1201.02,-46.88 1276.56,-33.97 1351.41,-19.14"/>
<polygon fill="midnightblue" stroke="midnightblue" points="1352.36,-22.52 1361.48,-17.13 1350.99,-15.66 1352.36,-22.52"/>
</g>
<!-- Node22 -->
<g id="node22" class="node">
<title>Node22</title>
<g id="a_node22"><a xlink:title=" ">
<polygon fill="none" stroke="#bfbfbf" points="1491.5,-19 1437.5,-19 1437.5,0 1491.5,0 1491.5,-19"/>
<text text-anchor="middle" x="1464.5" y="-7" font-family="Helvetica,sans-Serif" font-size="10.00">random</text>
</a>
</g>
</g>
<!-- Node5&#45;&gt;Node22 -->
<g id="edge21" class="edge">
<title>Node5&#45;&gt;Node22</title>
<path fill="none" stroke="midnightblue" d="M1174.64,-55.45C1239.18,-48.05 1334.91,-35.92 1427.34,-19.05"/>
<polygon fill="midnightblue" stroke="midnightblue" points="1428.24,-22.45 1437.43,-17.19 1426.96,-15.56 1428.24,-22.45"/>
</g>
<!-- Node23 -->
<g id="node23" class="node">
<title>Node23</title>
<g id="a_node23"><a xlink:title=" ">
<polygon fill="none" stroke="#bfbfbf" points="1553.5,-19 1509.5,-19 1509.5,0 1553.5,0 1553.5,-19"/>
<text text-anchor="middle" x="1531.5" y="-7" font-family="Helvetica,sans-Serif" font-size="10.00">string</text>
</a>
</g>
</g>
<!-- Node5&#45;&gt;Node23 -->
<g id="edge22" class="edge">
<title>Node5&#45;&gt;Node23</title>
<path fill="none" stroke="midnightblue" d="M1174.67,-58.7C1253.43,-52.87 1380.82,-41.19 1499.28,-18.95"/>
<polygon fill="midnightblue" stroke="midnightblue" points="1500.08,-22.36 1509.25,-17.05 1498.77,-15.49 1500.08,-22.36"/>
</g>
<!-- Node24 -->
<g id="node24" class="node">
<title>Node24</title>
<g id="a_node24"><a xlink:title=" ">
<polygon fill="none" stroke="#bfbfbf" points="1619,-19 1572,-19 1572,0 1619,0 1619,-19"/>
<text text-anchor="middle" x="1595.5" y="-7" font-family="Helvetica,sans-Serif" font-size="10.00">vector</text>
</a>
</g>
</g>
<!-- Node5&#45;&gt;Node24 -->
<g id="edge23" class="edge">
<title>Node5&#45;&gt;Node24</title>
<path fill="none" stroke="midnightblue" d="M1174.56,-59.9C1264.39,-54.78 1419.42,-43.38 1561.59,-18.86"/>
<polygon fill="midnightblue" stroke="midnightblue" points="1562.56,-22.25 1571.8,-17.08 1561.35,-15.35 1562.56,-22.25"/>
</g>
<!-- Node25 -->
<g id="node25" class="node">
<title>Node25</title>
<g id="a_node25"><a xlink:title=" ">
<polygon fill="none" stroke="#bfbfbf" points="1685.5,-19 1637.5,-19 1637.5,0 1685.5,0 1685.5,-19"/>
<text text-anchor="middle" x="1661.5" y="-7" font-family="Helvetica,sans-Serif" font-size="10.00">thread</text>
</a>
</g>
</g>
<!-- Node5&#45;&gt;Node25 -->
<g id="edge24" class="edge">
<title>Node5&#45;&gt;Node25</title>
<path fill="none" stroke="midnightblue" d="M1174.9,-61.14C1275.96,-57.1 1460.94,-46.58 1627.52,-18.87"/>
<polygon fill="midnightblue" stroke="midnightblue" points="1628.17,-22.31 1637.45,-17.19 1627.01,-15.41 1628.17,-22.31"/>
</g>
<!-- Node26 -->
<g id="node26" class="node">
<title>Node26</title>
<g id="a_node26"><a xlink:title=" ">
<polygon fill="none" stroke="#bfbfbf" points="1751.5,-19 1703.5,-19 1703.5,0 1751.5,0 1751.5,-19"/>
<text text-anchor="middle" x="1727.5" y="-7" font-family="Helvetica,sans-Serif" font-size="10.00">mutex</text>
</a>
</g>
</g>
<!-- Node5&#45;&gt;Node26 -->
<g id="edge25" class="edge">
<title>Node5&#45;&gt;Node26</title>
<path fill="none" stroke="midnightblue" d="M1174.68,-62.14C1286.12,-59.19 1501.72,-49.86 1693.47,-18.86"/>
<polygon fill="midnightblue" stroke="midnightblue" points="1694.15,-22.29 1703.45,-17.22 1693.02,-15.38 1694.15,-22.29"/>
</g>
<!-- Node27 -->
<g id="node27" class="node">
<title>Node27</title>
<g id="a_node27"><a xlink:title=" ">
<polygon fill="none" stroke="#bfbfbf" points="1817,-19 1770,-19 1770,0 1817,0 1817,-19"/>
<text text-anchor="middle" x="1793.5" y="-7" font-family="Helvetica,sans-Serif" font-size="10.00">queue</text>
</a>
</g>
</g>
<!-- Node5&#45;&gt;Node27 -->
<g id="edge26" class="edge">
<title>Node5&#45;&gt;Node27</title>
<path fill="none" stroke="midnightblue" d="M1174.85,-62.94C1296.23,-61.05 1542.54,-53.12 1759.82,-18.76"/>
<polygon fill="midnightblue" stroke="midnightblue" points="1760.5,-22.2 1769.82,-17.16 1759.39,-15.29 1760.5,-22.2"/>
</g>
<!-- Node28 -->
<g id="node28" class="node">
<title>Node28</title>
<g id="a_node28"><a xlink:title=" ">
<polygon fill="none" stroke="#bfbfbf" points="1873.5,-19 1835.5,-19 1835.5,0 1873.5,0 1873.5,-19"/>
<text text-anchor="middle" x="1854.5" y="-7" font-family="Helvetica,sans-Serif" font-size="10.00">map</text>
</a>
</g>
</g>
<!-- Node5&#45;&gt;Node28 -->
<g id="edge27" class="edge">
<title>Node5&#45;&gt;Node28</title>
<path fill="none" stroke="midnightblue" d="M1174.66,-61.13C1330.48,-55.85 1685.18,-41.9 1825.26,-18.71"/>
<polygon fill="midnightblue" stroke="midnightblue" points="1826.11,-22.12 1835.36,-16.95 1824.91,-15.22 1826.11,-22.12"/>
</g>
<!-- Node31&#45;&gt;Node4 -->
<g id="edge32" class="edge">
<title>Node31&#45;&gt;Node4</title>
<path fill="none" stroke="midnightblue" d="M1773.19,-395.78C1764.67,-377.73 1746.5,-334.73 1746.5,-296.5 1746.5,-296.5 1746.5,-296.5 1746.5,-239.5 1746.5,-194.45 1709.29,-192.81 1667.5,-176 1581.68,-141.48 1318.47,-130.72 1182.59,-127.42"/>
<polygon fill="midnightblue" stroke="midnightblue" points="1182.32,-123.91 1172.24,-127.17 1182.15,-130.91 1182.32,-123.91"/>
</g>
<!-- Node32 -->
<g id="node32" class="node">
<title>Node32</title>
<g id="a_node32"><a xlink:title=" ">
<polygon fill="none" stroke="#bfbfbf" points="1850,-360 1775,-360 1775,-341 1850,-341 1850,-360"/>
<text text-anchor="middle" x="1812.5" y="-348" font-family="Helvetica,sans-Serif" font-size="10.00">opus/opus.h</text>
</a>
</g>
</g>
<!-- Node31&#45;&gt;Node32 -->
<g id="edge33" class="edge">
<title>Node31&#45;&gt;Node32</title>
<path fill="none" stroke="midnightblue" d="M1783.28,-395.75C1788.12,-388.42 1795.18,-377.73 1801.14,-368.7"/>
<polygon fill="midnightblue" stroke="midnightblue" points="1804.24,-370.36 1806.83,-360.09 1798.4,-366.5 1804.24,-370.36"/>
</g>
<!-- Node33&#45;&gt;Node4 -->
<g id="edge35" class="edge">
<title>Node33&#45;&gt;Node4</title>
<path fill="none" stroke="midnightblue" d="M1621.94,-395.85C1641.99,-389.04 1666.98,-377.67 1683.5,-360 1704.22,-337.85 1708.5,-326.83 1708.5,-296.5 1708.5,-296.5 1708.5,-296.5 1708.5,-239.5 1708.5,-194.11 1670.61,-192.95 1628.5,-176 1549.65,-144.27 1310.25,-132.31 1182.27,-128.1"/>
<polygon fill="midnightblue" stroke="midnightblue" points="1182.23,-124.6 1172.12,-127.78 1182.01,-131.6 1182.23,-124.6"/>
</g>
<!-- Node34 -->
<g id="node34" class="node">
<title>Node34</title>
<g id="a_node34"><a xlink:href="../../d1/d56/a00707.html" target="_top" xlink:title=" ">
<polygon fill="none" stroke="black" points="1674,-360 1507,-360 1507,-341 1674,-341 1674,-360"/>
<text text-anchor="middle" x="1590.5" y="-348" font-family="Helvetica,sans-Serif" font-size="10.00">discordcoreapi/ThreadPool.hpp</text>
</a>
</g>
</g>
<!-- Node33&#45;&gt;Node34 -->
<g id="edge36" class="edge">
<title>Node33&#45;&gt;Node34</title>
<path fill="none" stroke="midnightblue" d="M1589.67,-395.75C1589.8,-388.8 1589.98,-378.85 1590.15,-370.13"/>
<polygon fill="midnightblue" stroke="midnightblue" points="1593.65,-370.15 1590.34,-360.09 1586.65,-370.02 1593.65,-370.15"/>
</g>
<!-- Node34&#45;&gt;Node4 -->
<g id="edge37" class="edge">
<title>Node34&#45;&gt;Node4</title>
<path fill="none" stroke="midnightblue" d="M1593.22,-340.79C1602.87,-309.09 1633.72,-200.5 1611.5,-176 1583.25,-144.86 1319.59,-132.48 1182.08,-128.11"/>
<polygon fill="midnightblue" stroke="midnightblue" points="1182.11,-124.61 1172,-127.79 1181.89,-131.6 1182.11,-124.61"/>
</g>
<!-- Node34&#45;&gt;Node35 -->
<g id="edge38" class="edge">
<title>Node34&#45;&gt;Node35</title>
<path fill="none" stroke="midnightblue" d="M1572.67,-340.98C1554.89,-332.5 1527.35,-319.35 1506.82,-309.54"/>
<polygon fill="midnightblue" stroke="midnightblue" points="1508.19,-306.32 1497.66,-305.17 1505.17,-312.64 1508.19,-306.32"/>
</g>
<!-- Node49 -->
<g id="node49" class="node">
<title>Node49</title>
<g id="a_node49"><a xlink:title=" ">
<polygon fill="none" stroke="#bfbfbf" points="1680.5,-305 1618.5,-305 1618.5,-286 1680.5,-286 1680.5,-305"/>
<text text-anchor="middle" x="1649.5" y="-293" font-family="Helvetica,sans-Serif" font-size="10.00">coroutine</text>
</a>
</g>
</g>
<!-- Node34&#45;&gt;Node49 -->
<g id="edge54" class="edge">
<title>Node34&#45;&gt;Node49</title>
<path fill="none" stroke="midnightblue" d="M1599.98,-340.98C1608.7,-333.15 1621.84,-321.34 1632.4,-311.86"/>
<polygon fill="midnightblue" stroke="midnightblue" points="1634.75,-314.46 1639.85,-305.17 1630.07,-309.25 1634.75,-314.46"/>
</g>
<!-- Node36 -->
<g id="node36" class="node">
<title>Node36</title>
<g id="a_node36"><a xlink:href="../../dc/de4/a00677.html" target="_top" xlink:title=" ">
<polygon fill="none" stroke="black" points="1148,-250 985,-250 985,-231 1148,-231 1148,-250"/>
<text text-anchor="middle" x="1066.5" y="-238" font-family="Helvetica,sans-Serif" font-size="10.00">discordcoreapi/SSLClients.hpp</text>
</a>
</g>
</g>
<!-- Node35&#45;&gt;Node36 -->
<g id="edge39" class="edge">
<title>Node35&#45;&gt;Node36</title>
<path fill="none" stroke="midnightblue" d="M1413.14,-285.98C1339.49,-276.53 1220.81,-261.3 1143.23,-251.35"/>
<polygon fill="midnightblue" stroke="midnightblue" points="1143.4,-247.84 1133.03,-250.04 1142.51,-254.78 1143.4,-247.84"/>
</g>
<!-- Node36&#45;&gt;Node3 -->
<g id="edge41" class="edge">
<title>Node36&#45;&gt;Node3</title>
<path fill="none" stroke="midnightblue" d="M984.97,-232.46C872.84,-222.78 671.27,-205.38 550.9,-194.99"/>
<polygon fill="midnightblue" stroke="midnightblue" points="550.85,-191.48 540.59,-194.1 550.25,-198.45 550.85,-191.48"/>
</g>
<!-- Node36&#45;&gt;Node4 -->
<g id="edge40" class="edge">
<title>Node36&#45;&gt;Node4</title>
<path fill="none" stroke="midnightblue" d="M984.77,-237.78C854.99,-234.2 613.68,-223.72 587.5,-195 581.81,-188.76 581.83,-182.25 587.5,-176 615.75,-144.86 879.41,-132.48 1016.92,-128.11"/>
<polygon fill="midnightblue" stroke="midnightblue" points="1017.11,-131.6 1027,-127.79 1016.89,-124.61 1017.11,-131.6"/>
</g>
<!-- Node37 -->
<g id="node37" class="node">
<title>Node37</title>
<g id="a_node37"><a xlink:title=" ">
<polygon fill="none" stroke="#bfbfbf" points="1367,-195 1288,-195 1288,-176 1367,-176 1367,-195"/>
<text text-anchor="middle" x="1327.5" y="-183" font-family="Helvetica,sans-Serif" font-size="10.00">openssl/err.h</text>
</a>
</g>
</g>
<!-- Node36&#45;&gt;Node37 -->
<g id="edge42" class="edge">
<title>Node36&#45;&gt;Node37</title>
<path fill="none" stroke="midnightblue" d="M1108.43,-230.98C1154.58,-221.61 1228.69,-206.56 1277.74,-196.6"/>
<polygon fill="midnightblue" stroke="midnightblue" points="1278.71,-199.98 1287.81,-194.56 1277.31,-193.12 1278.71,-199.98"/>
</g>
<!-- Node38 -->
<g id="node38" class="node">
<title>Node38</title>
<g id="a_node38"><a xlink:title=" ">
<polygon fill="none" stroke="#bfbfbf" points="1465.5,-195 1385.5,-195 1385.5,-176 1465.5,-176 1465.5,-195"/>
<text text-anchor="middle" x="1425.5" y="-183" font-family="Helvetica,sans-Serif" font-size="10.00">openssl/ssl.h</text>
</a>
</g>
</g>
<!-- Node36&#45;&gt;Node38 -->
<g id="edge43" class="edge">
<title>Node36&#45;&gt;Node38</title>
<path fill="none" stroke="midnightblue" d="M1129.01,-230.97C1191.48,-222.34 1290.23,-208.39 1375.5,-195 1375.6,-194.98 1375.7,-194.97 1375.8,-194.95"/>
<polygon fill="midnightblue" stroke="midnightblue" points="1376.08,-198.45 1385.4,-193.41 1374.97,-191.54 1376.08,-198.45"/>
</g>
<!-- Node39 -->
<g id="node39" class="node">
<title>Node39</title>
<g id="a_node39"><a xlink:title=" ">
<polygon fill="none" stroke="#bfbfbf" points="1531,-195 1484,-195 1484,-176 1531,-176 1531,-195"/>
<text text-anchor="middle" x="1507.5" y="-183" font-family="Helvetica,sans-Serif" font-size="10.00">fcntl.h</text>
</a>
</g>
</g>
<!-- Node36&#45;&gt;Node39 -->
<g id="edge44" class="edge">
<title>Node36&#45;&gt;Node39</title>
<path fill="none" stroke="midnightblue" d="M1148.28,-234.05C1228.75,-227.89 1355.2,-216.12 1473.81,-194.85"/>
<polygon fill="midnightblue" stroke="midnightblue" points="1474.58,-198.27 1483.8,-193.04 1473.33,-191.39 1474.58,-198.27"/>
</g>
<!-- Node40 -->
<g id="node40" class="node">
<title>Node40</title>
<g id="a_node40"><a xlink:title=" ">
<polygon fill="none" stroke="#bfbfbf" points="1602,-195 1549,-195 1549,-176 1602,-176 1602,-195"/>
<text text-anchor="middle" x="1575.5" y="-183" font-family="Helvetica,sans-Serif" font-size="10.00">netdb.h</text>
</a>
</g>
</g>
<!-- Node36&#45;&gt;Node40 -->
<g id="edge45" class="edge">
<title>Node36&#45;&gt;Node40</title>
<path fill="none" stroke="midnightblue" d="M1148.32,-235.42C1240.95,-229.99 1396.46,-218.43 1538.62,-195.1"/>
<polygon fill="midnightblue" stroke="midnightblue" points="1539.54,-198.49 1548.83,-193.4 1538.39,-191.59 1539.54,-198.49"/>
</g>
<!-- Node41 -->
<g id="node41" class="node">
<title>Node41</title>
<g id="a_node41"><a xlink:title=" ">
<polygon fill="none" stroke="#bfbfbf" points="668.5,-195 596.5,-195 596.5,-176 668.5,-176 668.5,-195"/>
<text text-anchor="middle" x="632.5" y="-183" font-family="Helvetica,sans-Serif" font-size="10.00">netinet/in.h</text>
</a>
</g>
</g>
<!-- Node36&#45;&gt;Node41 -->
<g id="edge46" class="edge">
<title>Node36&#45;&gt;Node41</title>
<path fill="none" stroke="midnightblue" d="M984.69,-231.89C908.12,-224.36 790.33,-211.77 678.88,-195.11"/>
<polygon fill="midnightblue" stroke="midnightblue" points="679.22,-191.62 668.81,-193.59 678.18,-198.55 679.22,-191.62"/>
</g>
<!-- Node42 -->
<g id="node42" class="node">
<title>Node42</title>
<g id="a_node42"><a xlink:title=" ">
<polygon fill="none" stroke="#bfbfbf" points="764.5,-195 686.5,-195 686.5,-176 764.5,-176 764.5,-195"/>
<text text-anchor="middle" x="725.5" y="-183" font-family="Helvetica,sans-Serif" font-size="10.00">netinet/tcp.h</text>
</a>
</g>
</g>
<!-- Node36&#45;&gt;Node42 -->
<g id="edge47" class="edge">
<title>Node36&#45;&gt;Node42</title>
<path fill="none" stroke="midnightblue" d="M1007.51,-230.97C950.49,-222.64 861.39,-209.35 774.55,-195.14"/>
<polygon fill="midnightblue" stroke="midnightblue" points="774.95,-191.66 764.52,-193.49 773.82,-198.57 774.95,-191.66"/>
</g>
<!-- Node43 -->
<g id="node43" class="node">
<title>Node43</title>
<g id="a_node43"><a xlink:title=" ">
<polygon fill="none" stroke="#bfbfbf" points="836,-195 783,-195 783,-176 836,-176 836,-195"/>
<text text-anchor="middle" x="809.5" y="-183" font-family="Helvetica,sans-Serif" font-size="10.00">stdint.h</text>
</a>
</g>
</g>
<!-- Node36&#45;&gt;Node43 -->
<g id="edge48" class="edge">
<title>Node36&#45;&gt;Node43</title>
<path fill="none" stroke="midnightblue" d="M1021.32,-231C978.57,-222.83 912.38,-209.86 846.39,-195.35"/>
<polygon fill="midnightblue" stroke="midnightblue" points="846.75,-191.85 836.23,-193.11 845.24,-198.69 846.75,-191.85"/>
</g>
<!-- Node44 -->
<g id="node44" class="node">
<title>Node44</title>
<g id="a_node44"><a xlink:title=" ">
<polygon fill="none" stroke="#bfbfbf" points="923,-195 854,-195 854,-176 923,-176 923,-195"/>
<text text-anchor="middle" x="888.5" y="-183" font-family="Helvetica,sans-Serif" font-size="10.00">sys/epoll.h</text>
</a>
</g>
</g>
<!-- Node36&#45;&gt;Node44 -->
<g id="edge49" class="edge">
<title>Node36&#45;&gt;Node44</title>
<path fill="none" stroke="midnightblue" d="M1037.9,-230.98C1007.89,-222.05 960.52,-207.94 927.18,-198.02"/>
<polygon fill="midnightblue" stroke="midnightblue" points="927.91,-194.58 917.32,-195.08 925.91,-201.29 927.91,-194.58"/>
</g>
<!-- Node45 -->
<g id="node45" class="node">
<title>Node45</title>
<g id="a_node45"><a xlink:title=" ">
<polygon fill="none" stroke="#bfbfbf" points="1010,-195 941,-195 941,-176 1010,-176 1010,-195"/>
<text text-anchor="middle" x="975.5" y="-183" font-family="Helvetica,sans-Serif" font-size="10.00">arpa/inet.h</text>
</a>
</g>
</g>
<!-- Node36&#45;&gt;Node45 -->
<g id="edge50" class="edge">
<title>Node36&#45;&gt;Node45</title>
<path fill="none" stroke="midnightblue" d="M1051.88,-230.98C1037.64,-222.69 1015.75,-209.94 999.05,-200.22"/>
<polygon fill="midnightblue" stroke="midnightblue" points="1000.79,-197.18 990.39,-195.17 997.27,-203.23 1000.79,-197.18"/>
</g>
<!-- Node46 -->
<g id="node46" class="node">
<title>Node46</title>
<g id="a_node46"><a xlink:title=" ">
<polygon fill="none" stroke="#bfbfbf" points="1105,-195 1028,-195 1028,-176 1105,-176 1105,-195"/>
<text text-anchor="middle" x="1066.5" y="-183" font-family="Helvetica,sans-Serif" font-size="10.00">sys/socket.h</text>
</a>
</g>
</g>
<!-- Node36&#45;&gt;Node46 -->
<g id="edge51" class="edge">
<title>Node36&#45;&gt;Node46</title>
<path fill="none" stroke="midnightblue" d="M1066.5,-230.75C1066.5,-223.8 1066.5,-213.85 1066.5,-205.13"/>
<polygon fill="midnightblue" stroke="midnightblue" points="1070,-205.09 1066.5,-195.09 1063,-205.09 1070,-205.09"/>
</g>
<!-- Node47 -->
<g id="node47" class="node">
<title>Node47</title>
<g id="a_node47"><a xlink:title=" ">
<polygon fill="none" stroke="#bfbfbf" points="1195.5,-195 1123.5,-195 1123.5,-176 1195.5,-176 1195.5,-195"/>
<text text-anchor="middle" x="1159.5" y="-183" font-family="Helvetica,sans-Serif" font-size="10.00">sys/types.h</text>
</a>
</g>
</g>
<!-- Node36&#45;&gt;Node47 -->
<g id="edge52" class="edge">
<title>Node36&#45;&gt;Node47</title>
<path fill="none" stroke="midnightblue" d="M1081.44,-230.98C1096,-222.69 1118.37,-209.94 1135.43,-200.22"/>
<polygon fill="midnightblue" stroke="midnightblue" points="1137.33,-203.16 1144.29,-195.17 1133.86,-197.08 1137.33,-203.16"/>
</g>
<!-- Node48 -->
<g id="node48" class="node">
<title>Node48</title>
<g id="a_node48"><a xlink:title=" ">
<polygon fill="none" stroke="#bfbfbf" points="1269.5,-195 1213.5,-195 1213.5,-176 1269.5,-176 1269.5,-195"/>
<text text-anchor="middle" x="1241.5" y="-183" font-family="Helvetica,sans-Serif" font-size="10.00">unistd.h</text>
</a>
</g>
</g>
<!-- Node36&#45;&gt;Node48 -->
<g id="edge53" class="edge">
<title>Node36&#45;&gt;Node48</title>
<path fill="none" stroke="midnightblue" d="M1094.62,-230.98C1124.21,-222.02 1170.97,-207.86 1203.76,-197.93"/>
<polygon fill="midnightblue" stroke="midnightblue" points="1204.9,-201.24 1213.45,-194.99 1202.87,-194.54 1204.9,-201.24"/>
</g>
</g>
</svg>
