<?xml version="1.0" encoding="UTF-8" standalone="no"?>
<!DOCTYPE svg PUBLIC "-//W3C//DTD SVG 1.1//EN"
 "http://www.w3.org/Graphics/SVG/1.1/DTD/svg11.dtd">
<!-- Generated by graphviz version 2.43.0 (0)
 -->
<!-- Title: DiscordCoreAPI::GuildMembers::getCachedGuildMemberAsync Pages: 1 -->
<svg width="383pt" height="86pt"
 viewBox="0.00 0.00 383.00 86.00" xmlns="http://www.w3.org/2000/svg" xmlns:xlink="http://www.w3.org/1999/xlink">
<g id="graph0" class="graph" transform="scale(1 1) rotate(0) translate(4 82)">
<title>DiscordCoreAPI::GuildMembers::getCachedGuildMemberAsync</title>
<!-- Node1 -->
<g id="node1" class="node">
<title>Node1</title>
<g id="a_node1"><a xlink:title="Collects a GuildMember from the library&#39;s cache.">
<polygon fill="#bfbfbf" stroke="black" points="375,-78 205,-78 205,-48 375,-48 375,-78"/>
<text text-anchor="start" x="213" y="-66" font-family="Helvetica,sans-Serif" font-size="10.00">DiscordCoreAPI::GuildMembers</text>
<text text-anchor="middle" x="290" y="-55" font-family="Helvetica,sans-Serif" font-size="10.00">::getCachedGuildMemberAsync</text>
</a>
</g>
</g>
<!-- Node2 -->
<g id="node2" class="node">
<title>Node2</title>
<g id="a_node2"><a xlink:href="../../d6/def/a03033.html#a997c281bf11d3d686116c2f6dc35bf5b" target="_top" xlink:title="Collects a GuildMember from the Discord servers.">
<polygon fill="none" stroke="black" points="169,-78 0,-78 0,-48 169,-48 169,-78"/>
<text text-anchor="start" x="8" y="-66" font-family="Helvetica,sans-Serif" font-size="10.00">DiscordCoreAPI::GuildMembers</text>
<text text-anchor="middle" x="84.5" y="-55" font-family="Helvetica,sans-Serif" font-size="10.00">::getGuildMemberAsync</text>
</a>
</g>
</g>
<!-- Node1&#45;&gt;Node2 -->
<g id="edge1" class="edge">
<title>Node1&#45;&gt;Node2</title>
<path fill="none" stroke="midnightblue" d="M194.73,-56.27C186.15,-56.23 177.5,-56.26 169.02,-56.35"/>
<polygon fill="midnightblue" stroke="midnightblue" points="194.73,-59.77 204.76,-56.34 194.79,-52.77 194.73,-59.77"/>
</g>
<!-- Node3 -->
<g id="node3" class="node">
<title>Node3</title>
<g id="a_node3"><a xlink:href="../../d6/def/a03033.html#a88420174e234c67b17f7760adb8beda9" target="_top" xlink:title="Times&#45;out a chosen GuildMember from a chosen Guild.">
<polygon fill="none" stroke="black" points="169,-30 0,-30 0,0 169,0 169,-30"/>
<text text-anchor="start" x="8" y="-18" font-family="Helvetica,sans-Serif" font-size="10.00">DiscordCoreAPI::GuildMembers</text>
<text text-anchor="middle" x="84.5" y="-7" font-family="Helvetica,sans-Serif" font-size="10.00">::timeoutGuildMemberAsync</text>
</a>
</g>
</g>
<!-- Node1&#45;&gt;Node3 -->
<g id="edge3" class="edge">
<title>Node1&#45;&gt;Node3</title>
<path fill="none" stroke="midnightblue" d="M215.35,-45.63C193.65,-40.51 170.11,-34.96 149.1,-30"/>
<polygon fill="midnightblue" stroke="midnightblue" points="214.63,-49.05 225.17,-47.94 216.24,-42.24 214.63,-49.05"/>
</g>
<!-- Node2&#45;&gt;Node1 -->
<g id="edge2" class="edge">
<title>Node2&#45;&gt;Node1</title>
<path fill="none" stroke="midnightblue" d="M179.04,-69.73C187.62,-69.77 196.27,-69.75 204.76,-69.66"/>
<polygon fill="midnightblue" stroke="midnightblue" points="179.05,-66.23 169.02,-69.65 178.99,-73.23 179.05,-66.23"/>
</g>
</g>
</svg>
