<?xml version="1.0" encoding="UTF-8" standalone="no"?>
<!DOCTYPE svg PUBLIC "-//W3C//DTD SVG 1.1//EN"
 "http://www.w3.org/Graphics/SVG/1.1/DTD/svg11.dtd">
<!-- Generated by graphviz version 3.0.0 (20220226.1711)
 -->
<!-- Title: Demuxer.cpp Pages: 1 -->
<svg width="1813pt" height="319pt"
 viewBox="0.00 0.00 1812.50 319.00" xmlns="http://www.w3.org/2000/svg" xmlns:xlink="http://www.w3.org/1999/xlink">
<g id="graph0" class="graph" transform="scale(1 1) rotate(0) translate(4 315)">
<title>Demuxer.cpp</title>
<!-- Node1 -->
<g id="node1" class="node">
<title>Node1</title>
<g id="a_node1"><a xlink:title=" ">
<polygon fill="#bfbfbf" stroke="black" points="1434.5,-291.5 1434.5,-310.5 1508.5,-310.5 1508.5,-291.5 1434.5,-291.5"/>
<text text-anchor="middle" x="1471.5" y="-298.5" font-family="Helvetica,sans-Serif" font-size="10.00">Demuxer.cpp</text>
</a>
</g>
</g>
<!-- Node2 -->
<g id="node2" class="node">
<title>Node2</title>
<g id="a_node2"><a xlink:href="../../d5/d5b/a00695.html" target="_top" xlink:title=" ">
<polygon fill="none" stroke="black" points="1401.5,-235.5 1401.5,-254.5 1541.5,-254.5 1541.5,-235.5 1401.5,-235.5"/>
<text text-anchor="middle" x="1471.5" y="-242.5" font-family="Helvetica,sans-Serif" font-size="10.00">discordcoreapi/Demuxer.hpp</text>
</a>
</g>
</g>
<!-- Node1&#45;&gt;Node2 -->
<g id="edge1" class="edge">
<title>Node1&#45;&gt;Node2</title>
<path fill="none" stroke="midnightblue" d="M1471.5,-291.08C1471.5,-284.01 1471.5,-273.86 1471.5,-264.99"/>
<polygon fill="midnightblue" stroke="midnightblue" points="1475,-264.75 1471.5,-254.75 1468,-264.75 1475,-264.75"/>
</g>
<!-- Node3 -->
<g id="node3" class="node">
<title>Node3</title>
<g id="a_node3"><a xlink:href="../../d4/d6a/a00704.html" target="_top" xlink:title=" ">
<polygon fill="none" stroke="black" points="1266.5,-179.5 1266.5,-198.5 1424.5,-198.5 1424.5,-179.5 1266.5,-179.5"/>
<text text-anchor="middle" x="1345.5" y="-186.5" font-family="Helvetica,sans-Serif" font-size="10.00">discordcoreapi/EventEntities.hpp</text>
</a>
</g>
</g>
<!-- Node2&#45;&gt;Node3 -->
<g id="edge2" class="edge">
<title>Node2&#45;&gt;Node3</title>
<path fill="none" stroke="midnightblue" d="M1451.53,-235.44C1430.89,-226.6 1398.44,-212.69 1374.87,-202.59"/>
<polygon fill="midnightblue" stroke="midnightblue" points="1375.94,-199.24 1365.37,-198.52 1373.18,-205.67 1375.94,-199.24"/>
</g>
<!-- Node4 -->
<g id="node4" class="node">
<title>Node4</title>
<g id="a_node4"><a xlink:href="../../d4/deb/a00710.html" target="_top" xlink:title=" ">
<polygon fill="none" stroke="black" points="1280,-112.5 1280,-142.5 1411,-142.5 1411,-112.5 1280,-112.5"/>
<text text-anchor="start" x="1288" y="-130.5" font-family="Helvetica,sans-Serif" font-size="10.00">discordcoreapi/Foundation</text>
<text text-anchor="middle" x="1345.5" y="-119.5" font-family="Helvetica,sans-Serif" font-size="10.00">Entities.hpp</text>
</a>
</g>
</g>
<!-- Node2&#45;&gt;Node4 -->
<g id="edge29" class="edge">
<title>Node2&#45;&gt;Node4</title>
<path fill="none" stroke="midnightblue" d="M1468.23,-235.49C1462.74,-222.11 1450.58,-195.94 1433.5,-179 1420.54,-166.14 1403.64,-155.42 1388.13,-147.21"/>
<polygon fill="midnightblue" stroke="midnightblue" points="1389.69,-144.07 1379.19,-142.66 1386.52,-150.31 1389.69,-144.07"/>
</g>
<!-- Node15 -->
<g id="node15" class="node">
<title>Node15</title>
<g id="a_node15"><a xlink:title=" ">
<polygon fill="none" stroke="#bfbfbf" points="1734.5,-0.5 1734.5,-19.5 1804.5,-19.5 1804.5,-0.5 1734.5,-0.5"/>
<text text-anchor="middle" x="1769.5" y="-7.5" font-family="Helvetica,sans-Serif" font-size="10.00">opus/opus.h</text>
</a>
</g>
</g>
<!-- Node2&#45;&gt;Node15 -->
<g id="edge30" class="edge">
<title>Node2&#45;&gt;Node15</title>
<path fill="none" stroke="midnightblue" d="M1475.07,-235.16C1480.79,-221.79 1493.06,-196.19 1509.5,-179 1580.16,-105.11 1689.38,-48.26 1740.83,-23.93"/>
<polygon fill="midnightblue" stroke="midnightblue" points="1742.45,-27.04 1750.04,-19.64 1739.49,-20.7 1742.45,-27.04"/>
</g>
<!-- Node30 -->
<g id="node30" class="node">
<title>Node30</title>
<g id="a_node30"><a xlink:title=" ">
<polygon fill="none" stroke="#bfbfbf" points="1518.5,-179.5 1518.5,-198.5 1644.5,-198.5 1644.5,-179.5 1518.5,-179.5"/>
<text text-anchor="middle" x="1581.5" y="-186.5" font-family="Helvetica,sans-Serif" font-size="10.00">opus/opus_multistream.h</text>
</a>
</g>
</g>
<!-- Node2&#45;&gt;Node30 -->
<g id="edge31" class="edge">
<title>Node2&#45;&gt;Node30</title>
<path fill="none" stroke="midnightblue" d="M1489.17,-235.32C1506.89,-226.62 1534.4,-213.12 1554.79,-203.11"/>
<polygon fill="midnightblue" stroke="midnightblue" points="1556.44,-206.2 1563.87,-198.65 1553.35,-199.92 1556.44,-206.2"/>
</g>
<!-- Node3&#45;&gt;Node4 -->
<g id="edge3" class="edge">
<title>Node3&#45;&gt;Node4</title>
<path fill="none" stroke="midnightblue" d="M1345.5,-179.48C1345.5,-172.47 1345.5,-162.19 1345.5,-152.7"/>
<polygon fill="midnightblue" stroke="midnightblue" points="1349,-152.52 1345.5,-142.52 1342,-152.52 1349,-152.52"/>
</g>
<!-- Node5 -->
<g id="node5" class="node">
<title>Node5</title>
<g id="a_node5"><a xlink:href="../../d5/dae/a00767.html" target="_top" xlink:title=" ">
<polygon fill="none" stroke="black" points="999.5,-56.5 999.5,-75.5 1133.5,-75.5 1133.5,-56.5 999.5,-56.5"/>
<text text-anchor="middle" x="1066.5" y="-63.5" font-family="Helvetica,sans-Serif" font-size="10.00">discordcoreapi/Utilities.hpp</text>
</a>
</g>
</g>
<!-- Node4&#45;&gt;Node5 -->
<g id="edge4" class="edge">
<title>Node4&#45;&gt;Node5</title>
<path fill="none" stroke="midnightblue" d="M1279.73,-112.47C1229.71,-101.81 1161.93,-87.35 1116.33,-77.63"/>
<polygon fill="midnightblue" stroke="midnightblue" points="1116.9,-74.17 1106.39,-75.51 1115.44,-81.02 1116.9,-74.17"/>
</g>
<!-- Node6 -->
<g id="node6" class="node">
<title>Node6</title>
<g id="a_node6"><a xlink:title=" ">
<polygon fill="none" stroke="#bfbfbf" points="0,-0.5 0,-19.5 57,-19.5 57,-0.5 0,-0.5"/>
<text text-anchor="middle" x="28.5" y="-7.5" font-family="Helvetica,sans-Serif" font-size="10.00">pthread.h</text>
</a>
</g>
</g>
<!-- Node5&#45;&gt;Node6 -->
<g id="edge5" class="edge">
<title>Node5&#45;&gt;Node6</title>
<path fill="none" stroke="midnightblue" d="M999.44,-63.62C809,-59.46 266.41,-45.75 67.11,-19.73"/>
<polygon fill="midnightblue" stroke="midnightblue" points="67.4,-16.24 57.02,-18.36 66.46,-23.18 67.4,-16.24"/>
</g>
<!-- Node7 -->
<g id="node7" class="node">
<title>Node7</title>
<g id="a_node7"><a xlink:title=" ">
<polygon fill="none" stroke="#bfbfbf" points="75.5,-0.5 75.5,-19.5 137.5,-19.5 137.5,-0.5 75.5,-0.5"/>
<text text-anchor="middle" x="106.5" y="-7.5" font-family="Helvetica,sans-Serif" font-size="10.00">sys/time.h</text>
</a>
</g>
</g>
<!-- Node5&#45;&gt;Node7 -->
<g id="edge6" class="edge">
<title>Node5&#45;&gt;Node7</title>
<path fill="none" stroke="midnightblue" d="M999.47,-65.66C848.71,-66.31 471.45,-63.17 147.89,-19.95"/>
<polygon fill="midnightblue" stroke="midnightblue" points="148.23,-16.46 137.85,-18.59 147.29,-23.4 148.23,-16.46"/>
</g>
<!-- Node8 -->
<g id="node8" class="node">
<title>Node8</title>
<g id="a_node8"><a xlink:title=" ">
<polygon fill="none" stroke="#bfbfbf" points="155.5,-0.5 155.5,-19.5 199.5,-19.5 199.5,-0.5 155.5,-0.5"/>
<text text-anchor="middle" x="177.5" y="-7.5" font-family="Helvetica,sans-Serif" font-size="10.00">time.h</text>
</a>
</g>
</g>
<!-- Node5&#45;&gt;Node8 -->
<g id="edge7" class="edge">
<title>Node5&#45;&gt;Node8</title>
<path fill="none" stroke="midnightblue" d="M999.39,-63.48C828.43,-59.28 378.75,-46.2 209.71,-19.75"/>
<polygon fill="midnightblue" stroke="midnightblue" points="210.14,-16.27 199.71,-18.11 209.01,-23.18 210.14,-16.27"/>
</g>
<!-- Node9 -->
<g id="node9" class="node">
<title>Node9</title>
<g id="a_node9"><a xlink:title=" ">
<polygon fill="none" stroke="#bfbfbf" points="218,-0.5 218,-19.5 259,-19.5 259,-0.5 218,-0.5"/>
<text text-anchor="middle" x="238.5" y="-7.5" font-family="Helvetica,sans-Serif" font-size="10.00">ctime</text>
</a>
</g>
</g>
<!-- Node5&#45;&gt;Node9 -->
<g id="edge8" class="edge">
<title>Node5&#45;&gt;Node9</title>
<path fill="none" stroke="midnightblue" d="M999.48,-63.33C837.17,-58.97 425.5,-45.82 269.18,-19.84"/>
<polygon fill="midnightblue" stroke="midnightblue" points="269.71,-16.38 259.26,-18.11 268.51,-23.27 269.71,-16.38"/>
</g>
<!-- Node10 -->
<g id="node10" class="node">
<title>Node10</title>
<g id="a_node10"><a xlink:title=" ">
<polygon fill="none" stroke="#bfbfbf" points="277,-0.5 277,-19.5 370,-19.5 370,-0.5 277,-0.5"/>
<text text-anchor="middle" x="323.5" y="-7.5" font-family="Helvetica,sans-Serif" font-size="10.00">condition_variable</text>
</a>
</g>
</g>
<!-- Node5&#45;&gt;Node10 -->
<g id="edge9" class="edge">
<title>Node5&#45;&gt;Node10</title>
<path fill="none" stroke="midnightblue" d="M999.03,-62.68C877.45,-58.05 613.38,-45.89 380.23,-19.97"/>
<polygon fill="midnightblue" stroke="midnightblue" points="380.53,-16.48 370.21,-18.84 379.75,-23.44 380.53,-16.48"/>
</g>
<!-- Node11 -->
<g id="node11" class="node">
<title>Node11</title>
<g id="a_node11"><a xlink:title=" ">
<polygon fill="none" stroke="#bfbfbf" points="388.5,-0.5 388.5,-19.5 486.5,-19.5 486.5,-0.5 388.5,-0.5"/>
<text text-anchor="middle" x="437.5" y="-7.5" font-family="Helvetica,sans-Serif" font-size="10.00">nlohmann/json.hpp</text>
</a>
</g>
</g>
<!-- Node5&#45;&gt;Node11 -->
<g id="edge10" class="edge">
<title>Node5&#45;&gt;Node11</title>
<path fill="none" stroke="midnightblue" d="M999.1,-61.34C894,-55.26 684.52,-41.69 496.58,-20.04"/>
<polygon fill="midnightblue" stroke="midnightblue" points="496.85,-16.55 486.51,-18.87 496.04,-23.5 496.85,-16.55"/>
</g>
<!-- Node12 -->
<g id="node12" class="node">
<title>Node12</title>
<g id="a_node12"><a xlink:title=" ">
<polygon fill="none" stroke="#bfbfbf" points="505,-0.5 505,-19.5 590,-19.5 590,-0.5 505,-0.5"/>
<text text-anchor="middle" x="547.5" y="-7.5" font-family="Helvetica,sans-Serif" font-size="10.00">source_location</text>
</a>
</g>
</g>
<!-- Node5&#45;&gt;Node12 -->
<g id="edge11" class="edge">
<title>Node5&#45;&gt;Node12</title>
<path fill="none" stroke="midnightblue" d="M999.27,-60.21C910.24,-53.49 748.13,-39.97 600.21,-20.14"/>
<polygon fill="midnightblue" stroke="midnightblue" points="600.42,-16.64 590.04,-18.77 599.48,-23.57 600.42,-16.64"/>
</g>
<!-- Node13 -->
<g id="node13" class="node">
<title>Node13</title>
<g id="a_node13"><a xlink:title=" ">
<polygon fill="none" stroke="#bfbfbf" points="608,-0.5 608,-19.5 691,-19.5 691,-0.5 608,-0.5"/>
<text text-anchor="middle" x="649.5" y="-7.5" font-family="Helvetica,sans-Serif" font-size="10.00">unordered_map</text>
</a>
</g>
</g>
<!-- Node5&#45;&gt;Node13 -->
<g id="edge12" class="edge">
<title>Node5&#45;&gt;Node13</title>
<path fill="none" stroke="midnightblue" d="M999.24,-57.8C927.86,-49.91 811.56,-36.38 701.19,-20.03"/>
<polygon fill="midnightblue" stroke="midnightblue" points="701.63,-16.56 691.22,-18.55 700.59,-23.48 701.63,-16.56"/>
</g>
<!-- Node14 -->
<g id="node14" class="node">
<title>Node14</title>
<g id="a_node14"><a xlink:title=" ">
<polygon fill="none" stroke="#bfbfbf" points="709.5,-0.5 709.5,-19.5 787.5,-19.5 787.5,-0.5 709.5,-0.5"/>
<text text-anchor="middle" x="748.5" y="-7.5" font-family="Helvetica,sans-Serif" font-size="10.00">shared_mutex</text>
</a>
</g>
</g>
<!-- Node5&#45;&gt;Node14 -->
<g id="edge13" class="edge">
<title>Node5&#45;&gt;Node14</title>
<path fill="none" stroke="midnightblue" d="M1013.42,-56.48C961.06,-48 878.48,-34.43 797.4,-20.13"/>
<polygon fill="midnightblue" stroke="midnightblue" points="797.98,-16.68 787.52,-18.38 796.76,-23.57 797.98,-16.68"/>
</g>
<!-- Node5&#45;&gt;Node15 -->
<g id="edge14" class="edge">
<title>Node5&#45;&gt;Node15</title>
<path fill="none" stroke="midnightblue" d="M1133.68,-63.37C1251.4,-59.88 1502.69,-49.52 1723.85,-20.05"/>
<polygon fill="midnightblue" stroke="midnightblue" points="1724.59,-23.48 1734.03,-18.68 1723.65,-16.55 1724.59,-23.48"/>
</g>
<!-- Node16 -->
<g id="node16" class="node">
<title>Node16</title>
<g id="a_node16"><a xlink:title=" ">
<polygon fill="none" stroke="#bfbfbf" points="805.5,-0.5 805.5,-19.5 863.5,-19.5 863.5,-0.5 805.5,-0.5"/>
<text text-anchor="middle" x="834.5" y="-7.5" font-family="Helvetica,sans-Serif" font-size="10.00">functional</text>
</a>
</g>
</g>
<!-- Node5&#45;&gt;Node16 -->
<g id="edge15" class="edge">
<title>Node5&#45;&gt;Node16</title>
<path fill="none" stroke="midnightblue" d="M1029.3,-56.42C992.3,-47.88 933.63,-34.31 873.58,-20.25"/>
<polygon fill="midnightblue" stroke="midnightblue" points="874.08,-16.77 863.54,-17.89 872.48,-23.58 874.08,-16.77"/>
</g>
<!-- Node17 -->
<g id="node17" class="node">
<title>Node17</title>
<g id="a_node17"><a xlink:title=" ">
<polygon fill="none" stroke="#bfbfbf" points="882,-0.5 882,-19.5 947,-19.5 947,-0.5 882,-0.5"/>
<text text-anchor="middle" x="914.5" y="-7.5" font-family="Helvetica,sans-Serif" font-size="10.00">semaphore</text>
</a>
</g>
</g>
<!-- Node5&#45;&gt;Node17 -->
<g id="edge16" class="edge">
<title>Node5&#45;&gt;Node17</title>
<path fill="none" stroke="midnightblue" d="M1042.42,-56.44C1016.96,-47.4 976.61,-33.06 948.04,-22.92"/>
<polygon fill="midnightblue" stroke="midnightblue" points="949.07,-19.57 938.47,-19.52 946.72,-26.16 949.07,-19.57"/>
</g>
<!-- Node18 -->
<g id="node18" class="node">
<title>Node18</title>
<g id="a_node18"><a xlink:title=" ">
<polygon fill="none" stroke="#bfbfbf" points="965.5,-0.5 965.5,-19.5 1021.5,-19.5 1021.5,-0.5 965.5,-0.5"/>
<text text-anchor="middle" x="993.5" y="-7.5" font-family="Helvetica,sans-Serif" font-size="10.00">concepts</text>
</a>
</g>
</g>
<!-- Node5&#45;&gt;Node18 -->
<g id="edge17" class="edge">
<title>Node5&#45;&gt;Node18</title>
<path fill="none" stroke="midnightblue" d="M1054.77,-56.32C1043.66,-48.11 1026.76,-35.6 1013.52,-25.81"/>
<polygon fill="midnightblue" stroke="midnightblue" points="1015.56,-22.97 1005.44,-19.83 1011.4,-28.59 1015.56,-22.97"/>
</g>
<!-- Node19 -->
<g id="node19" class="node">
<title>Node19</title>
<g id="a_node19"><a xlink:title=" ">
<polygon fill="none" stroke="#bfbfbf" points="1039.5,-0.5 1039.5,-19.5 1093.5,-19.5 1093.5,-0.5 1039.5,-0.5"/>
<text text-anchor="middle" x="1066.5" y="-7.5" font-family="Helvetica,sans-Serif" font-size="10.00">iostream</text>
</a>
</g>
</g>
<!-- Node5&#45;&gt;Node19 -->
<g id="edge18" class="edge">
<title>Node5&#45;&gt;Node19</title>
<path fill="none" stroke="midnightblue" d="M1066.5,-56.08C1066.5,-49.01 1066.5,-38.86 1066.5,-29.99"/>
<polygon fill="midnightblue" stroke="midnightblue" points="1070,-29.75 1066.5,-19.75 1063,-29.75 1070,-29.75"/>
</g>
<!-- Node20 -->
<g id="node20" class="node">
<title>Node20</title>
<g id="a_node20"><a xlink:title=" ">
<polygon fill="none" stroke="#bfbfbf" points="1112,-0.5 1112,-19.5 1161,-19.5 1161,-0.5 1112,-0.5"/>
<text text-anchor="middle" x="1136.5" y="-7.5" font-family="Helvetica,sans-Serif" font-size="10.00">fstream</text>
</a>
</g>
</g>
<!-- Node5&#45;&gt;Node20 -->
<g id="edge19" class="edge">
<title>Node5&#45;&gt;Node20</title>
<path fill="none" stroke="midnightblue" d="M1077.75,-56.32C1088.3,-48.18 1104.3,-35.84 1116.94,-26.09"/>
<polygon fill="midnightblue" stroke="midnightblue" points="1119.27,-28.71 1125.05,-19.83 1114.99,-23.17 1119.27,-28.71"/>
</g>
<!-- Node21 -->
<g id="node21" class="node">
<title>Node21</title>
<g id="a_node21"><a xlink:title=" ">
<polygon fill="none" stroke="#bfbfbf" points="1179,-0.5 1179,-19.5 1220,-19.5 1220,-0.5 1179,-0.5"/>
<text text-anchor="middle" x="1199.5" y="-7.5" font-family="Helvetica,sans-Serif" font-size="10.00">bitset</text>
</a>
</g>
</g>
<!-- Node5&#45;&gt;Node21 -->
<g id="edge20" class="edge">
<title>Node5&#45;&gt;Node21</title>
<path fill="none" stroke="midnightblue" d="M1087.57,-56.44C1109.69,-47.46 1144.64,-33.27 1169.6,-23.14"/>
<polygon fill="midnightblue" stroke="midnightblue" points="1171.01,-26.34 1178.96,-19.34 1168.38,-19.86 1171.01,-26.34"/>
</g>
<!-- Node22 -->
<g id="node22" class="node">
<title>Node22</title>
<g id="a_node22"><a xlink:title=" ">
<polygon fill="none" stroke="#bfbfbf" points="1238.5,-0.5 1238.5,-19.5 1290.5,-19.5 1290.5,-0.5 1238.5,-0.5"/>
<text text-anchor="middle" x="1264.5" y="-7.5" font-family="Helvetica,sans-Serif" font-size="10.00">memory</text>
</a>
</g>
</g>
<!-- Node5&#45;&gt;Node22 -->
<g id="edge21" class="edge">
<title>Node5&#45;&gt;Node22</title>
<path fill="none" stroke="midnightblue" d="M1097.87,-56.44C1133.36,-46.77 1191.04,-31.03 1228.38,-20.85"/>
<polygon fill="midnightblue" stroke="midnightblue" points="1229.6,-24.14 1238.33,-18.14 1227.76,-17.39 1229.6,-24.14"/>
</g>
<!-- Node23 -->
<g id="node23" class="node">
<title>Node23</title>
<g id="a_node23"><a xlink:title=" ">
<polygon fill="none" stroke="#bfbfbf" points="1309,-0.5 1309,-19.5 1358,-19.5 1358,-0.5 1309,-0.5"/>
<text text-anchor="middle" x="1333.5" y="-7.5" font-family="Helvetica,sans-Serif" font-size="10.00">random</text>
</a>
</g>
</g>
<!-- Node5&#45;&gt;Node23 -->
<g id="edge22" class="edge">
<title>Node5&#45;&gt;Node23</title>
<path fill="none" stroke="midnightblue" d="M1115.8,-56.48C1160.88,-48.47 1229.63,-35.69 1298.51,-20.1"/>
<polygon fill="midnightblue" stroke="midnightblue" points="1299.7,-23.42 1308.67,-17.78 1298.14,-16.6 1299.7,-23.42"/>
</g>
<!-- Node24 -->
<g id="node24" class="node">
<title>Node24</title>
<g id="a_node24"><a xlink:title=" ">
<polygon fill="none" stroke="#bfbfbf" points="1376,-0.5 1376,-19.5 1417,-19.5 1417,-0.5 1376,-0.5"/>
<text text-anchor="middle" x="1396.5" y="-7.5" font-family="Helvetica,sans-Serif" font-size="10.00">string</text>
</a>
</g>
</g>
<!-- Node5&#45;&gt;Node24 -->
<g id="edge23" class="edge">
<title>Node5&#45;&gt;Node24</title>
<path fill="none" stroke="midnightblue" d="M1133.73,-57.7C1192.6,-50.67 1280.53,-38.65 1366.07,-19.8"/>
<polygon fill="midnightblue" stroke="midnightblue" points="1366.95,-23.19 1375.95,-17.59 1365.42,-16.36 1366.95,-23.19"/>
</g>
<!-- Node25 -->
<g id="node25" class="node">
<title>Node25</title>
<g id="a_node25"><a xlink:title=" ">
<polygon fill="none" stroke="#bfbfbf" points="1435.5,-0.5 1435.5,-19.5 1477.5,-19.5 1477.5,-0.5 1435.5,-0.5"/>
<text text-anchor="middle" x="1456.5" y="-7.5" font-family="Helvetica,sans-Serif" font-size="10.00">vector</text>
</a>
</g>
</g>
<!-- Node5&#45;&gt;Node25 -->
<g id="edge24" class="edge">
<title>Node5&#45;&gt;Node25</title>
<path fill="none" stroke="midnightblue" d="M1133.51,-59.78C1206.02,-53.4 1324.77,-40.8 1425.5,-20 1425.6,-19.98 1425.7,-19.96 1425.8,-19.94"/>
<polygon fill="midnightblue" stroke="midnightblue" points="1426.37,-23.4 1435.27,-17.64 1424.72,-16.6 1426.37,-23.4"/>
</g>
<!-- Node26 -->
<g id="node26" class="node">
<title>Node26</title>
<g id="a_node26"><a xlink:title=" ">
<polygon fill="none" stroke="#bfbfbf" points="1495.5,-0.5 1495.5,-19.5 1539.5,-19.5 1539.5,-0.5 1495.5,-0.5"/>
<text text-anchor="middle" x="1517.5" y="-7.5" font-family="Helvetica,sans-Serif" font-size="10.00">thread</text>
</a>
</g>
</g>
<!-- Node5&#45;&gt;Node26 -->
<g id="edge25" class="edge">
<title>Node5&#45;&gt;Node26</title>
<path fill="none" stroke="midnightblue" d="M1133.6,-61.46C1214.86,-56.35 1355.9,-44.89 1485.18,-19.94"/>
<polygon fill="midnightblue" stroke="midnightblue" points="1486.13,-23.32 1495.26,-17.96 1484.78,-16.45 1486.13,-23.32"/>
</g>
<!-- Node27 -->
<g id="node27" class="node">
<title>Node27</title>
<g id="a_node27"><a xlink:title=" ">
<polygon fill="none" stroke="#bfbfbf" points="1557.5,-0.5 1557.5,-19.5 1601.5,-19.5 1601.5,-0.5 1557.5,-0.5"/>
<text text-anchor="middle" x="1579.5" y="-7.5" font-family="Helvetica,sans-Serif" font-size="10.00">mutex</text>
</a>
</g>
</g>
<!-- Node5&#45;&gt;Node27 -->
<g id="edge26" class="edge">
<title>Node5&#45;&gt;Node27</title>
<path fill="none" stroke="midnightblue" d="M1133.72,-62.74C1225.38,-58.77 1394.68,-48.28 1547.25,-19.9"/>
<polygon fill="midnightblue" stroke="midnightblue" points="1548.1,-23.3 1557.27,-18 1546.8,-16.42 1548.1,-23.3"/>
</g>
<!-- Node28 -->
<g id="node28" class="node">
<title>Node28</title>
<g id="a_node28"><a xlink:title=" ">
<polygon fill="none" stroke="#bfbfbf" points="1620,-0.5 1620,-19.5 1663,-19.5 1663,-0.5 1620,-0.5"/>
<text text-anchor="middle" x="1641.5" y="-7.5" font-family="Helvetica,sans-Serif" font-size="10.00">queue</text>
</a>
</g>
</g>
<!-- Node5&#45;&gt;Node28 -->
<g id="edge27" class="edge">
<title>Node5&#45;&gt;Node28</title>
<path fill="none" stroke="midnightblue" d="M1133.64,-63.75C1235.01,-60.93 1433.13,-51.7 1609.95,-19.69"/>
<polygon fill="midnightblue" stroke="midnightblue" points="1610.75,-23.1 1619.95,-17.85 1609.48,-16.22 1610.75,-23.1"/>
</g>
<!-- Node29 -->
<g id="node29" class="node">
<title>Node29</title>
<g id="a_node29"><a xlink:title=" ">
<polygon fill="none" stroke="#bfbfbf" points="1681,-0.5 1681,-19.5 1716,-19.5 1716,-0.5 1681,-0.5"/>
<text text-anchor="middle" x="1698.5" y="-7.5" font-family="Helvetica,sans-Serif" font-size="10.00">map</text>
</a>
</g>
</g>
<!-- Node5&#45;&gt;Node29 -->
<g id="edge28" class="edge">
<title>Node5&#45;&gt;Node29</title>
<path fill="none" stroke="midnightblue" d="M1133.64,-65.65C1244.38,-65.5 1472.09,-59.99 1670.73,-19.88"/>
<polygon fill="midnightblue" stroke="midnightblue" points="1671.68,-23.26 1680.77,-17.82 1670.27,-16.4 1671.68,-23.26"/>
</g>
</g>
</svg>
