<?xml version="1.0" encoding="UTF-8" standalone="no"?>
<!DOCTYPE svg PUBLIC "-//W3C//DTD SVG 1.1//EN"
 "http://www.w3.org/Graphics/SVG/1.1/DTD/svg11.dtd">
<!-- Generated by graphviz version 3.0.0 (20220226.1711)
 -->
<!-- Title: YouTubeAPI.hpp Pages: 1 -->
<svg width="2044pt" height="487pt"
 viewBox="0.00 0.00 2043.50 487.00" xmlns="http://www.w3.org/2000/svg" xmlns:xlink="http://www.w3.org/1999/xlink">
<g id="graph0" class="graph" transform="scale(1 1) rotate(0) translate(4 483)">
<title>YouTubeAPI.hpp</title>
<!-- Node1 -->
<g id="node1" class="node">
<title>Node1</title>
<g id="a_node1"><a xlink:title=" ">
<polygon fill="#bfbfbf" stroke="black" points="1018.5,-459.5 1018.5,-478.5 1107.5,-478.5 1107.5,-459.5 1018.5,-459.5"/>
<text text-anchor="middle" x="1063" y="-466.5" font-family="Helvetica,sans-Serif" font-size="10.00">YouTubeAPI.hpp</text>
</a>
</g>
</g>
<!-- Node2 -->
<g id="node2" class="node">
<title>Node2</title>
<g id="a_node2"><a xlink:href="../../d4/deb/a00710.html" target="_top" xlink:title=" ">
<polygon fill="none" stroke="black" points="1018.5,-112.5 1018.5,-142.5 1149.5,-142.5 1149.5,-112.5 1018.5,-112.5"/>
<text text-anchor="start" x="1026.5" y="-130.5" font-family="Helvetica,sans-Serif" font-size="10.00">discordcoreapi/Foundation</text>
<text text-anchor="middle" x="1084" y="-119.5" font-family="Helvetica,sans-Serif" font-size="10.00">Entities.hpp</text>
</a>
</g>
</g>
<!-- Node1&#45;&gt;Node2 -->
<g id="edge1" class="edge">
<title>Node1&#45;&gt;Node2</title>
<path fill="none" stroke="midnightblue" d="M1018.34,-468.14C816.59,-468.21 0,-462.07 0,-358 0,-358 0,-358 0,-244 0,-205.58 22.4,-195.71 57,-179 141.8,-138.04 784.64,-130.29 1007.9,-128.84"/>
<polygon fill="midnightblue" stroke="midnightblue" points="1008.23,-132.33 1018.21,-128.77 1008.19,-125.33 1008.23,-132.33"/>
</g>
<!-- Node28 -->
<g id="node28" class="node">
<title>Node28</title>
<g id="a_node28"><a xlink:href="../../d5/d5b/a00695.html" target="_top" xlink:title=" ">
<polygon fill="none" stroke="black" points="150,-235.5 150,-254.5 290,-254.5 290,-235.5 150,-235.5"/>
<text text-anchor="middle" x="220" y="-242.5" font-family="Helvetica,sans-Serif" font-size="10.00">discordcoreapi/Demuxer.hpp</text>
</a>
</g>
</g>
<!-- Node1&#45;&gt;Node28 -->
<g id="edge27" class="edge">
<title>Node1&#45;&gt;Node28</title>
<path fill="none" stroke="midnightblue" d="M1030.47,-459.43C899.42,-424.92 410.14,-296.07 262.47,-257.18"/>
<polygon fill="midnightblue" stroke="midnightblue" points="262.99,-253.7 252.43,-254.54 261.21,-260.47 262.99,-253.7"/>
</g>
<!-- Node31 -->
<g id="node31" class="node">
<title>Node31</title>
<g id="a_node31"><a xlink:href="../../d4/d9b/a00680.html" target="_top" xlink:title=" ">
<polygon fill="none" stroke="black" points="1501,-179.5 1501,-198.5 1663,-198.5 1663,-179.5 1501,-179.5"/>
<text text-anchor="middle" x="1582" y="-186.5" font-family="Helvetica,sans-Serif" font-size="10.00">discordcoreapi/AudioEncoder.hpp</text>
</a>
</g>
</g>
<!-- Node1&#45;&gt;Node31 -->
<g id="edge33" class="edge">
<title>Node1&#45;&gt;Node31</title>
<path fill="none" stroke="midnightblue" d="M1107.57,-467.28C1227.14,-464.16 1546,-447.44 1546,-358 1546,-358 1546,-358 1546,-300 1546,-265.98 1561.74,-228.85 1572.41,-207.6"/>
<polygon fill="midnightblue" stroke="midnightblue" points="1575.62,-209.01 1577.14,-198.53 1569.41,-205.77 1575.62,-209.01"/>
</g>
<!-- Node32 -->
<g id="node32" class="node">
<title>Node32</title>
<g id="a_node32"><a xlink:href="../../d0/db6/a00692.html" target="_top" xlink:title=" ">
<polygon fill="none" stroke="black" points="1131,-403.5 1131,-422.5 1277,-422.5 1277,-403.5 1131,-403.5"/>
<text text-anchor="middle" x="1204" y="-410.5" font-family="Helvetica,sans-Serif" font-size="10.00">discordcoreapi/CoRoutine.hpp</text>
</a>
</g>
</g>
<!-- Node1&#45;&gt;Node32 -->
<g id="edge36" class="edge">
<title>Node1&#45;&gt;Node32</title>
<path fill="none" stroke="midnightblue" d="M1085.34,-459.44C1108.75,-450.48 1145.74,-436.31 1172.19,-426.18"/>
<polygon fill="midnightblue" stroke="midnightblue" points="1173.68,-429.36 1181.76,-422.52 1171.17,-422.82 1173.68,-429.36"/>
</g>
<!-- Node3 -->
<g id="node3" class="node">
<title>Node3</title>
<g id="a_node3"><a xlink:href="../../d5/dae/a00767.html" target="_top" xlink:title=" ">
<polygon fill="none" stroke="black" points="1206,-56.5 1206,-75.5 1340,-75.5 1340,-56.5 1206,-56.5"/>
<text text-anchor="middle" x="1273" y="-63.5" font-family="Helvetica,sans-Serif" font-size="10.00">discordcoreapi/Utilities.hpp</text>
</a>
</g>
</g>
<!-- Node2&#45;&gt;Node3 -->
<g id="edge2" class="edge">
<title>Node2&#45;&gt;Node3</title>
<path fill="none" stroke="midnightblue" d="M1128.79,-112.4C1161.45,-102.12 1205.18,-88.35 1235.89,-78.68"/>
<polygon fill="midnightblue" stroke="midnightblue" points="1237.29,-81.91 1245.77,-75.57 1235.19,-75.24 1237.29,-81.91"/>
</g>
<!-- Node4 -->
<g id="node4" class="node">
<title>Node4</title>
<g id="a_node4"><a xlink:title=" ">
<polygon fill="none" stroke="#bfbfbf" points="319.5,-0.5 319.5,-19.5 376.5,-19.5 376.5,-0.5 319.5,-0.5"/>
<text text-anchor="middle" x="348" y="-7.5" font-family="Helvetica,sans-Serif" font-size="10.00">pthread.h</text>
</a>
</g>
</g>
<!-- Node3&#45;&gt;Node4 -->
<g id="edge3" class="edge">
<title>Node3&#45;&gt;Node4</title>
<path fill="none" stroke="midnightblue" d="M1205.85,-57.19C1201.17,-56.76 1196.51,-56.35 1192,-56 837.82,-28.44 742.9,-68.78 386.6,-19.76"/>
<polygon fill="midnightblue" stroke="midnightblue" points="386.91,-16.27 376.52,-18.36 385.95,-23.21 386.91,-16.27"/>
</g>
<!-- Node5 -->
<g id="node5" class="node">
<title>Node5</title>
<g id="a_node5"><a xlink:title=" ">
<polygon fill="none" stroke="#bfbfbf" points="395,-0.5 395,-19.5 457,-19.5 457,-0.5 395,-0.5"/>
<text text-anchor="middle" x="426" y="-7.5" font-family="Helvetica,sans-Serif" font-size="10.00">sys/time.h</text>
</a>
</g>
</g>
<!-- Node3&#45;&gt;Node5 -->
<g id="edge4" class="edge">
<title>Node3&#45;&gt;Node5</title>
<path fill="none" stroke="midnightblue" d="M1205.85,-57.22C1201.16,-56.77 1196.51,-56.36 1192,-56 873.27,-30.41 787.85,-62.94 467.39,-19.95"/>
<polygon fill="midnightblue" stroke="midnightblue" points="467.73,-16.46 457.35,-18.59 466.79,-23.4 467.73,-16.46"/>
</g>
<!-- Node6 -->
<g id="node6" class="node">
<title>Node6</title>
<g id="a_node6"><a xlink:title=" ">
<polygon fill="none" stroke="#bfbfbf" points="475,-0.5 475,-19.5 519,-19.5 519,-0.5 475,-0.5"/>
<text text-anchor="middle" x="497" y="-7.5" font-family="Helvetica,sans-Serif" font-size="10.00">time.h</text>
</a>
</g>
</g>
<!-- Node3&#45;&gt;Node6 -->
<g id="edge5" class="edge">
<title>Node3&#45;&gt;Node6</title>
<path fill="none" stroke="midnightblue" d="M1205.84,-57.24C1201.16,-56.79 1196.51,-56.37 1192,-56 900.77,-31.94 821.15,-68.68 529.24,-19.81"/>
<polygon fill="midnightblue" stroke="midnightblue" points="529.65,-16.33 519.21,-18.11 528.48,-23.23 529.65,-16.33"/>
</g>
<!-- Node7 -->
<g id="node7" class="node">
<title>Node7</title>
<g id="a_node7"><a xlink:title=" ">
<polygon fill="none" stroke="#bfbfbf" points="537.5,-0.5 537.5,-19.5 578.5,-19.5 578.5,-0.5 537.5,-0.5"/>
<text text-anchor="middle" x="558" y="-7.5" font-family="Helvetica,sans-Serif" font-size="10.00">ctime</text>
</a>
</g>
</g>
<!-- Node3&#45;&gt;Node7 -->
<g id="edge6" class="edge">
<title>Node3&#45;&gt;Node7</title>
<path fill="none" stroke="midnightblue" d="M1205.84,-57.27C1201.16,-56.81 1196.51,-56.38 1192,-56 926.89,-33.4 853.78,-67.42 588.68,-19.9"/>
<polygon fill="midnightblue" stroke="midnightblue" points="589.22,-16.44 578.76,-18.1 587.97,-23.33 589.22,-16.44"/>
</g>
<!-- Node8 -->
<g id="node8" class="node">
<title>Node8</title>
<g id="a_node8"><a xlink:title=" ">
<polygon fill="none" stroke="#bfbfbf" points="596.5,-0.5 596.5,-19.5 689.5,-19.5 689.5,-0.5 596.5,-0.5"/>
<text text-anchor="middle" x="643" y="-7.5" font-family="Helvetica,sans-Serif" font-size="10.00">condition_variable</text>
</a>
</g>
</g>
<!-- Node3&#45;&gt;Node8 -->
<g id="edge7" class="edge">
<title>Node3&#45;&gt;Node8</title>
<path fill="none" stroke="midnightblue" d="M1205.84,-57.34C1201.16,-56.87 1196.51,-56.41 1192,-56 976.54,-36.17 918.95,-45.17 699.92,-20"/>
<polygon fill="midnightblue" stroke="midnightblue" points="700.05,-16.49 689.71,-18.82 699.24,-23.45 700.05,-16.49"/>
</g>
<!-- Node9 -->
<g id="node9" class="node">
<title>Node9</title>
<g id="a_node9"><a xlink:title=" ">
<polygon fill="none" stroke="#bfbfbf" points="708,-0.5 708,-19.5 806,-19.5 806,-0.5 708,-0.5"/>
<text text-anchor="middle" x="757" y="-7.5" font-family="Helvetica,sans-Serif" font-size="10.00">nlohmann/json.hpp</text>
</a>
</g>
</g>
<!-- Node3&#45;&gt;Node9 -->
<g id="edge8" class="edge">
<title>Node3&#45;&gt;Node9</title>
<path fill="none" stroke="midnightblue" d="M1205.82,-57.46C1201.15,-56.95 1196.5,-56.47 1192,-56 1027.84,-39.04 983.72,-40.83 816.18,-20.08"/>
<polygon fill="midnightblue" stroke="midnightblue" points="816.38,-16.58 806.02,-18.81 815.51,-23.52 816.38,-16.58"/>
</g>
<!-- Node10 -->
<g id="node10" class="node">
<title>Node10</title>
<g id="a_node10"><a xlink:title=" ">
<polygon fill="none" stroke="#bfbfbf" points="824.5,-0.5 824.5,-19.5 909.5,-19.5 909.5,-0.5 824.5,-0.5"/>
<text text-anchor="middle" x="867" y="-7.5" font-family="Helvetica,sans-Serif" font-size="10.00">source_location</text>
</a>
</g>
</g>
<!-- Node3&#45;&gt;Node10 -->
<g id="edge9" class="edge">
<title>Node3&#45;&gt;Node10</title>
<path fill="none" stroke="midnightblue" d="M1205.8,-57.47C1136.54,-49.48 1025.2,-36.02 919.74,-20.21"/>
<polygon fill="midnightblue" stroke="midnightblue" points="919.96,-16.7 909.55,-18.67 918.92,-23.62 919.96,-16.7"/>
</g>
<!-- Node11 -->
<g id="node11" class="node">
<title>Node11</title>
<g id="a_node11"><a xlink:title=" ">
<polygon fill="none" stroke="#bfbfbf" points="927.5,-0.5 927.5,-19.5 1010.5,-19.5 1010.5,-0.5 927.5,-0.5"/>
<text text-anchor="middle" x="969" y="-7.5" font-family="Helvetica,sans-Serif" font-size="10.00">unordered_map</text>
</a>
</g>
</g>
<!-- Node3&#45;&gt;Node11 -->
<g id="edge10" class="edge">
<title>Node3&#45;&gt;Node11</title>
<path fill="none" stroke="midnightblue" d="M1224.83,-56.44C1169.08,-46.54 1077.63,-30.3 1020.5,-20.15"/>
<polygon fill="midnightblue" stroke="midnightblue" points="1021.05,-16.69 1010.59,-18.39 1019.83,-23.58 1021.05,-16.69"/>
</g>
<!-- Node12 -->
<g id="node12" class="node">
<title>Node12</title>
<g id="a_node12"><a xlink:title=" ">
<polygon fill="none" stroke="#bfbfbf" points="1029,-0.5 1029,-19.5 1107,-19.5 1107,-0.5 1029,-0.5"/>
<text text-anchor="middle" x="1068" y="-7.5" font-family="Helvetica,sans-Serif" font-size="10.00">shared_mutex</text>
</a>
</g>
</g>
<!-- Node3&#45;&gt;Node12 -->
<g id="edge11" class="edge">
<title>Node3&#45;&gt;Node12</title>
<path fill="none" stroke="midnightblue" d="M1240.52,-56.44C1205.28,-47.16 1148.9,-32.31 1110.24,-22.13"/>
<polygon fill="midnightblue" stroke="midnightblue" points="1110.89,-18.68 1100.33,-19.52 1109.11,-25.45 1110.89,-18.68"/>
</g>
<!-- Node13 -->
<g id="node13" class="node">
<title>Node13</title>
<g id="a_node13"><a xlink:title=" ">
<polygon fill="none" stroke="#bfbfbf" points="231,-0.5 231,-19.5 301,-19.5 301,-0.5 231,-0.5"/>
<text text-anchor="middle" x="266" y="-7.5" font-family="Helvetica,sans-Serif" font-size="10.00">opus/opus.h</text>
</a>
</g>
</g>
<!-- Node3&#45;&gt;Node13 -->
<g id="edge12" class="edge">
<title>Node3&#45;&gt;Node13</title>
<path fill="none" stroke="midnightblue" d="M1205.85,-57.17C1201.17,-56.74 1196.51,-56.34 1192,-56 804.14,-26.57 701.2,-66.77 311.6,-19.99"/>
<polygon fill="midnightblue" stroke="midnightblue" points="311.81,-16.49 301.46,-18.76 310.97,-23.44 311.81,-16.49"/>
</g>
<!-- Node14 -->
<g id="node14" class="node">
<title>Node14</title>
<g id="a_node14"><a xlink:title=" ">
<polygon fill="none" stroke="#bfbfbf" points="1125,-0.5 1125,-19.5 1183,-19.5 1183,-0.5 1125,-0.5"/>
<text text-anchor="middle" x="1154" y="-7.5" font-family="Helvetica,sans-Serif" font-size="10.00">functional</text>
</a>
</g>
</g>
<!-- Node3&#45;&gt;Node14 -->
<g id="edge13" class="edge">
<title>Node3&#45;&gt;Node14</title>
<path fill="none" stroke="midnightblue" d="M1254.14,-56.44C1234.73,-47.64 1204.27,-33.81 1182.04,-23.72"/>
<polygon fill="midnightblue" stroke="midnightblue" points="1183.32,-20.46 1172.77,-19.52 1180.43,-26.84 1183.32,-20.46"/>
</g>
<!-- Node15 -->
<g id="node15" class="node">
<title>Node15</title>
<g id="a_node15"><a xlink:title=" ">
<polygon fill="none" stroke="#bfbfbf" points="1201.5,-0.5 1201.5,-19.5 1266.5,-19.5 1266.5,-0.5 1201.5,-0.5"/>
<text text-anchor="middle" x="1234" y="-7.5" font-family="Helvetica,sans-Serif" font-size="10.00">semaphore</text>
</a>
</g>
</g>
<!-- Node3&#45;&gt;Node15 -->
<g id="edge14" class="edge">
<title>Node3&#45;&gt;Node15</title>
<path fill="none" stroke="midnightblue" d="M1266.56,-56.08C1261.05,-48.46 1252.97,-37.26 1246.24,-27.94"/>
<polygon fill="midnightblue" stroke="midnightblue" points="1249.01,-25.81 1240.32,-19.75 1243.34,-29.91 1249.01,-25.81"/>
</g>
<!-- Node16 -->
<g id="node16" class="node">
<title>Node16</title>
<g id="a_node16"><a xlink:title=" ">
<polygon fill="none" stroke="#bfbfbf" points="1285,-0.5 1285,-19.5 1341,-19.5 1341,-0.5 1285,-0.5"/>
<text text-anchor="middle" x="1313" y="-7.5" font-family="Helvetica,sans-Serif" font-size="10.00">concepts</text>
</a>
</g>
</g>
<!-- Node3&#45;&gt;Node16 -->
<g id="edge15" class="edge">
<title>Node3&#45;&gt;Node16</title>
<path fill="none" stroke="midnightblue" d="M1279.61,-56.08C1285.26,-48.46 1293.54,-37.26 1300.45,-27.94"/>
<polygon fill="midnightblue" stroke="midnightblue" points="1303.38,-29.87 1306.52,-19.75 1297.75,-25.7 1303.38,-29.87"/>
</g>
<!-- Node17 -->
<g id="node17" class="node">
<title>Node17</title>
<g id="a_node17"><a xlink:title=" ">
<polygon fill="none" stroke="#bfbfbf" points="1359,-0.5 1359,-19.5 1413,-19.5 1413,-0.5 1359,-0.5"/>
<text text-anchor="middle" x="1386" y="-7.5" font-family="Helvetica,sans-Serif" font-size="10.00">iostream</text>
</a>
</g>
</g>
<!-- Node3&#45;&gt;Node17 -->
<g id="edge16" class="edge">
<title>Node3&#45;&gt;Node17</title>
<path fill="none" stroke="midnightblue" d="M1290.91,-56.44C1309.25,-47.68 1338.01,-33.94 1359.09,-23.86"/>
<polygon fill="midnightblue" stroke="midnightblue" points="1360.67,-26.99 1368.18,-19.52 1357.65,-20.67 1360.67,-26.99"/>
</g>
<!-- Node18 -->
<g id="node18" class="node">
<title>Node18</title>
<g id="a_node18"><a xlink:title=" ">
<polygon fill="none" stroke="#bfbfbf" points="1431.5,-0.5 1431.5,-19.5 1480.5,-19.5 1480.5,-0.5 1431.5,-0.5"/>
<text text-anchor="middle" x="1456" y="-7.5" font-family="Helvetica,sans-Serif" font-size="10.00">fstream</text>
</a>
</g>
</g>
<!-- Node3&#45;&gt;Node18 -->
<g id="edge17" class="edge">
<title>Node3&#45;&gt;Node18</title>
<path fill="none" stroke="midnightblue" d="M1302,-56.44C1334.47,-46.86 1387.06,-31.34 1421.59,-21.15"/>
<polygon fill="midnightblue" stroke="midnightblue" points="1422.65,-24.49 1431.25,-18.3 1420.67,-17.78 1422.65,-24.49"/>
</g>
<!-- Node19 -->
<g id="node19" class="node">
<title>Node19</title>
<g id="a_node19"><a xlink:title=" ">
<polygon fill="none" stroke="#bfbfbf" points="1498.5,-0.5 1498.5,-19.5 1539.5,-19.5 1539.5,-0.5 1498.5,-0.5"/>
<text text-anchor="middle" x="1519" y="-7.5" font-family="Helvetica,sans-Serif" font-size="10.00">bitset</text>
</a>
</g>
</g>
<!-- Node3&#45;&gt;Node19 -->
<g id="edge18" class="edge">
<title>Node3&#45;&gt;Node19</title>
<path fill="none" stroke="midnightblue" d="M1319.61,-56.49C1361.39,-48.59 1424.54,-36 1488.55,-19.93"/>
<polygon fill="midnightblue" stroke="midnightblue" points="1489.58,-23.28 1498.41,-17.43 1487.85,-16.5 1489.58,-23.28"/>
</g>
<!-- Node20 -->
<g id="node20" class="node">
<title>Node20</title>
<g id="a_node20"><a xlink:title=" ">
<polygon fill="none" stroke="#bfbfbf" points="1558,-0.5 1558,-19.5 1610,-19.5 1610,-0.5 1558,-0.5"/>
<text text-anchor="middle" x="1584" y="-7.5" font-family="Helvetica,sans-Serif" font-size="10.00">memory</text>
</a>
</g>
</g>
<!-- Node3&#45;&gt;Node20 -->
<g id="edge19" class="edge">
<title>Node3&#45;&gt;Node20</title>
<path fill="none" stroke="midnightblue" d="M1334.16,-56.47C1387.77,-48.66 1468.01,-36.17 1547.52,-19.94"/>
<polygon fill="midnightblue" stroke="midnightblue" points="1548.62,-23.29 1557.71,-17.84 1547.21,-16.43 1548.62,-23.29"/>
</g>
<!-- Node21 -->
<g id="node21" class="node">
<title>Node21</title>
<g id="a_node21"><a xlink:title=" ">
<polygon fill="none" stroke="#bfbfbf" points="1628.5,-0.5 1628.5,-19.5 1677.5,-19.5 1677.5,-0.5 1628.5,-0.5"/>
<text text-anchor="middle" x="1653" y="-7.5" font-family="Helvetica,sans-Serif" font-size="10.00">random</text>
</a>
</g>
</g>
<!-- Node3&#45;&gt;Node21 -->
<g id="edge20" class="edge">
<title>Node3&#45;&gt;Node21</title>
<path fill="none" stroke="midnightblue" d="M1340.07,-58.88C1407.89,-52.1 1515.85,-39.7 1618.31,-19.9"/>
<polygon fill="midnightblue" stroke="midnightblue" points="1619.06,-23.32 1628.2,-17.96 1617.72,-16.45 1619.06,-23.32"/>
</g>
<!-- Node22 -->
<g id="node22" class="node">
<title>Node22</title>
<g id="a_node22"><a xlink:title=" ">
<polygon fill="none" stroke="#bfbfbf" points="1695.5,-0.5 1695.5,-19.5 1736.5,-19.5 1736.5,-0.5 1695.5,-0.5"/>
<text text-anchor="middle" x="1716" y="-7.5" font-family="Helvetica,sans-Serif" font-size="10.00">string</text>
</a>
</g>
</g>
<!-- Node3&#45;&gt;Node22 -->
<g id="edge21" class="edge">
<title>Node3&#45;&gt;Node22</title>
<path fill="none" stroke="midnightblue" d="M1340.3,-61.68C1420.64,-56.82 1559.05,-45.63 1685.37,-20.01"/>
<polygon fill="midnightblue" stroke="midnightblue" points="1686.13,-23.42 1695.22,-17.98 1684.72,-16.57 1686.13,-23.42"/>
</g>
<!-- Node23 -->
<g id="node23" class="node">
<title>Node23</title>
<g id="a_node23"><a xlink:title=" ">
<polygon fill="none" stroke="#bfbfbf" points="1755,-0.5 1755,-19.5 1797,-19.5 1797,-0.5 1755,-0.5"/>
<text text-anchor="middle" x="1776" y="-7.5" font-family="Helvetica,sans-Serif" font-size="10.00">vector</text>
</a>
</g>
</g>
<!-- Node3&#45;&gt;Node23 -->
<g id="edge22" class="edge">
<title>Node3&#45;&gt;Node23</title>
<path fill="none" stroke="midnightblue" d="M1340.18,-62.76C1430.34,-58.84 1595.49,-48.43 1744.57,-19.91"/>
<polygon fill="midnightblue" stroke="midnightblue" points="1745.68,-23.26 1754.82,-17.91 1744.34,-16.39 1745.68,-23.26"/>
</g>
<!-- Node24 -->
<g id="node24" class="node">
<title>Node24</title>
<g id="a_node24"><a xlink:title=" ">
<polygon fill="none" stroke="#bfbfbf" points="1815,-0.5 1815,-19.5 1859,-19.5 1859,-0.5 1815,-0.5"/>
<text text-anchor="middle" x="1837" y="-7.5" font-family="Helvetica,sans-Serif" font-size="10.00">thread</text>
</a>
</g>
</g>
<!-- Node3&#45;&gt;Node24 -->
<g id="edge23" class="edge">
<title>Node3&#45;&gt;Node24</title>
<path fill="none" stroke="midnightblue" d="M1340.04,-63.59C1439.69,-60.57 1632.75,-51.11 1804.78,-19.87"/>
<polygon fill="midnightblue" stroke="midnightblue" points="1805.58,-23.28 1814.78,-18.02 1804.31,-16.4 1805.58,-23.28"/>
</g>
<!-- Node25 -->
<g id="node25" class="node">
<title>Node25</title>
<g id="a_node25"><a xlink:title=" ">
<polygon fill="none" stroke="#bfbfbf" points="1877,-0.5 1877,-19.5 1921,-19.5 1921,-0.5 1877,-0.5"/>
<text text-anchor="middle" x="1899" y="-7.5" font-family="Helvetica,sans-Serif" font-size="10.00">mutex</text>
</a>
</g>
</g>
<!-- Node3&#45;&gt;Node25 -->
<g id="edge24" class="edge">
<title>Node3&#45;&gt;Node25</title>
<path fill="none" stroke="midnightblue" d="M1340.05,-64.43C1448.99,-62.53 1671.12,-54.54 1866.89,-19.83"/>
<polygon fill="midnightblue" stroke="midnightblue" points="1867.56,-23.26 1876.78,-18.05 1866.32,-16.38 1867.56,-23.26"/>
</g>
<!-- Node26 -->
<g id="node26" class="node">
<title>Node26</title>
<g id="a_node26"><a xlink:title=" ">
<polygon fill="none" stroke="#bfbfbf" points="1939.5,-0.5 1939.5,-19.5 1982.5,-19.5 1982.5,-0.5 1939.5,-0.5"/>
<text text-anchor="middle" x="1961" y="-7.5" font-family="Helvetica,sans-Serif" font-size="10.00">queue</text>
</a>
</g>
</g>
<!-- Node3&#45;&gt;Node26 -->
<g id="edge25" class="edge">
<title>Node3&#45;&gt;Node26</title>
<path fill="none" stroke="midnightblue" d="M1340.26,-65.12C1458.04,-64.3 1709.2,-57.97 1929.33,-19.68"/>
<polygon fill="midnightblue" stroke="midnightblue" points="1930.22,-23.08 1939.46,-17.89 1929,-16.19 1930.22,-23.08"/>
</g>
<!-- Node27 -->
<g id="node27" class="node">
<title>Node27</title>
<g id="a_node27"><a xlink:title=" ">
<polygon fill="none" stroke="#bfbfbf" points="2000.5,-0.5 2000.5,-19.5 2035.5,-19.5 2035.5,-0.5 2000.5,-0.5"/>
<text text-anchor="middle" x="2018" y="-7.5" font-family="Helvetica,sans-Serif" font-size="10.00">map</text>
</a>
</g>
</g>
<!-- Node3&#45;&gt;Node27 -->
<g id="edge26" class="edge">
<title>Node3&#45;&gt;Node27</title>
<path fill="none" stroke="midnightblue" d="M1340.09,-63.12C1490.19,-58.54 1850.3,-45.43 1990.19,-19.79"/>
<polygon fill="midnightblue" stroke="midnightblue" points="1991.12,-23.18 2000.27,-17.85 1989.79,-16.31 1991.12,-23.18"/>
</g>
<!-- Node28&#45;&gt;Node2 -->
<g id="edge30" class="edge">
<title>Node28&#45;&gt;Node2</title>
<path fill="none" stroke="midnightblue" d="M219.65,-235.14C219.62,-220.77 221.9,-192.63 239,-179 298.34,-131.69 812.03,-127.85 1008.25,-128.13"/>
<polygon fill="midnightblue" stroke="midnightblue" points="1008.46,-131.63 1018.47,-128.15 1008.48,-124.63 1008.46,-131.63"/>
</g>
<!-- Node28&#45;&gt;Node13 -->
<g id="edge31" class="edge">
<title>Node28&#45;&gt;Node13</title>
<path fill="none" stroke="midnightblue" d="M149.94,-241.08C97.2,-235.6 37.15,-220.42 57,-179 94.64,-100.45 188.91,-46.97 236.92,-23.88"/>
<polygon fill="midnightblue" stroke="midnightblue" points="238.59,-26.97 246.15,-19.55 235.61,-20.63 238.59,-26.97"/>
</g>
<!-- Node29 -->
<g id="node29" class="node">
<title>Node29</title>
<g id="a_node29"><a xlink:href="../../d4/d6a/a00704.html" target="_top" xlink:title=" ">
<polygon fill="none" stroke="black" points="248,-179.5 248,-198.5 406,-198.5 406,-179.5 248,-179.5"/>
<text text-anchor="middle" x="327" y="-186.5" font-family="Helvetica,sans-Serif" font-size="10.00">discordcoreapi/EventEntities.hpp</text>
</a>
</g>
</g>
<!-- Node28&#45;&gt;Node29 -->
<g id="edge28" class="edge">
<title>Node28&#45;&gt;Node29</title>
<path fill="none" stroke="midnightblue" d="M237.19,-235.32C254.35,-226.66 280.95,-213.24 300.75,-203.25"/>
<polygon fill="midnightblue" stroke="midnightblue" points="302.5,-206.28 309.85,-198.65 299.35,-200.04 302.5,-206.28"/>
</g>
<!-- Node30 -->
<g id="node30" class="node">
<title>Node30</title>
<g id="a_node30"><a xlink:title=" ">
<polygon fill="none" stroke="#bfbfbf" points="66,-179.5 66,-198.5 192,-198.5 192,-179.5 66,-179.5"/>
<text text-anchor="middle" x="129" y="-186.5" font-family="Helvetica,sans-Serif" font-size="10.00">opus/opus_multistream.h</text>
</a>
</g>
</g>
<!-- Node28&#45;&gt;Node30 -->
<g id="edge32" class="edge">
<title>Node28&#45;&gt;Node30</title>
<path fill="none" stroke="midnightblue" d="M205.38,-235.32C191.05,-226.82 168.99,-213.73 152.25,-203.8"/>
<polygon fill="midnightblue" stroke="midnightblue" points="153.97,-200.75 143.58,-198.65 150.4,-206.77 153.97,-200.75"/>
</g>
<!-- Node29&#45;&gt;Node2 -->
<g id="edge29" class="edge">
<title>Node29&#45;&gt;Node2</title>
<path fill="none" stroke="midnightblue" d="M406.14,-179.81C409.13,-179.53 412.09,-179.26 415,-179 629.97,-159.9 884.23,-141.99 1008.28,-133.56"/>
<polygon fill="midnightblue" stroke="midnightblue" points="1008.69,-137.04 1018.43,-132.87 1008.22,-130.05 1008.69,-137.04"/>
</g>
<!-- Node31&#45;&gt;Node2 -->
<g id="edge34" class="edge">
<title>Node31&#45;&gt;Node2</title>
<path fill="none" stroke="midnightblue" d="M1500.6,-179.94C1397.86,-169.65 1226.94,-152.08 1164,-143 1162.7,-142.81 1161.4,-142.62 1160.08,-142.42"/>
<polygon fill="midnightblue" stroke="midnightblue" points="1160.28,-138.91 1149.86,-140.83 1159.2,-145.83 1160.28,-138.91"/>
</g>
<!-- Node31&#45;&gt;Node13 -->
<g id="edge35" class="edge">
<title>Node31&#45;&gt;Node13</title>
<path fill="none" stroke="midnightblue" d="M1540.03,-179.48C1464.08,-164.28 1298.65,-132.21 1158,-112 786.05,-58.55 686.31,-78.14 311.06,-20.03"/>
<polygon fill="midnightblue" stroke="midnightblue" points="311.43,-16.55 301.01,-18.47 310.35,-23.47 311.43,-16.55"/>
</g>
<!-- Node32&#45;&gt;Node2 -->
<g id="edge37" class="edge">
<title>Node32&#45;&gt;Node2</title>
<path fill="none" stroke="midnightblue" d="M1248.12,-403.46C1324.43,-387.41 1473,-350 1473,-302 1473,-302 1473,-302 1473,-244 1473,-210.54 1462.91,-197.47 1435,-179 1384.96,-145.89 1231.44,-152.63 1159.54,-143.68"/>
<polygon fill="midnightblue" stroke="midnightblue" points="1159.95,-140.2 1149.55,-142.24 1158.95,-147.13 1159.95,-140.2"/>
</g>
<!-- Node33 -->
<g id="node33" class="node">
<title>Node33</title>
<g id="a_node33"><a xlink:href="../../d3/d4f/a00761.html" target="_top" xlink:title=" ">
<polygon fill="none" stroke="black" points="1129,-347.5 1129,-366.5 1279,-366.5 1279,-347.5 1129,-347.5"/>
<text text-anchor="middle" x="1204" y="-354.5" font-family="Helvetica,sans-Serif" font-size="10.00">discordcoreapi/ThreadPool.hpp</text>
</a>
</g>
</g>
<!-- Node32&#45;&gt;Node33 -->
<g id="edge38" class="edge">
<title>Node32&#45;&gt;Node33</title>
<path fill="none" stroke="midnightblue" d="M1204,-403.08C1204,-396.01 1204,-385.86 1204,-376.99"/>
<polygon fill="midnightblue" stroke="midnightblue" points="1207.5,-376.75 1204,-366.75 1200.5,-376.75 1207.5,-376.75"/>
</g>
<!-- Node33&#45;&gt;Node2 -->
<g id="edge39" class="edge">
<title>Node33&#45;&gt;Node2</title>
<path fill="none" stroke="midnightblue" d="M1230.62,-347.49C1300.64,-323.79 1480.26,-253.88 1415,-179 1378.49,-137.1 1228.11,-151.27 1159.79,-143.64"/>
<polygon fill="midnightblue" stroke="midnightblue" points="1159.94,-140.13 1149.55,-142.22 1158.98,-147.06 1159.94,-140.13"/>
</g>
<!-- Node34 -->
<g id="node34" class="node">
<title>Node34</title>
<g id="a_node34"><a xlink:href="../../db/d7c/a00722.html" target="_top" xlink:title=" ">
<polygon fill="none" stroke="black" points="1141.5,-291.5 1141.5,-310.5 1266.5,-310.5 1266.5,-291.5 1141.5,-291.5"/>
<text text-anchor="middle" x="1204" y="-298.5" font-family="Helvetica,sans-Serif" font-size="10.00">discordcoreapi/Https.hpp</text>
</a>
</g>
</g>
<!-- Node33&#45;&gt;Node34 -->
<g id="edge40" class="edge">
<title>Node33&#45;&gt;Node34</title>
<path fill="none" stroke="midnightblue" d="M1204,-347.08C1204,-340.01 1204,-329.86 1204,-320.99"/>
<polygon fill="midnightblue" stroke="midnightblue" points="1207.5,-320.75 1204,-310.75 1200.5,-320.75 1207.5,-320.75"/>
</g>
<!-- Node48 -->
<g id="node48" class="node">
<title>Node48</title>
<g id="a_node48"><a xlink:title=" ">
<polygon fill="none" stroke="#bfbfbf" points="1067,-291.5 1067,-310.5 1123,-310.5 1123,-291.5 1067,-291.5"/>
<text text-anchor="middle" x="1095" y="-298.5" font-family="Helvetica,sans-Serif" font-size="10.00">coroutine</text>
</a>
</g>
</g>
<!-- Node33&#45;&gt;Node48 -->
<g id="edge56" class="edge">
<title>Node33&#45;&gt;Node48</title>
<path fill="none" stroke="midnightblue" d="M1186.49,-347.32C1168.93,-338.62 1141.67,-325.12 1121.47,-315.11"/>
<polygon fill="midnightblue" stroke="midnightblue" points="1122.98,-311.96 1112.47,-310.65 1119.88,-318.23 1122.98,-311.96"/>
</g>
<!-- Node35 -->
<g id="node35" class="node">
<title>Node35</title>
<g id="a_node35"><a xlink:href="../../d5/de8/a00749.html" target="_top" xlink:title=" ">
<polygon fill="none" stroke="black" points="877,-235.5 877,-254.5 1027,-254.5 1027,-235.5 877,-235.5"/>
<text text-anchor="middle" x="952" y="-242.5" font-family="Helvetica,sans-Serif" font-size="10.00">discordcoreapi/SSLClients.hpp</text>
</a>
</g>
</g>
<!-- Node34&#45;&gt;Node35 -->
<g id="edge41" class="edge">
<title>Node34&#45;&gt;Node35</title>
<path fill="none" stroke="midnightblue" d="M1164.07,-291.44C1120.11,-282.02 1049.37,-266.87 1001.82,-256.68"/>
<polygon fill="midnightblue" stroke="midnightblue" points="1002.25,-253.19 991.74,-254.52 1000.79,-260.03 1002.25,-253.19"/>
</g>
<!-- Node35&#45;&gt;Node2 -->
<g id="edge42" class="edge">
<title>Node35&#45;&gt;Node2</title>
<path fill="none" stroke="midnightblue" d="M998.16,-235.46C1020.88,-229.03 1046.97,-217.93 1064,-199 1075.37,-186.37 1080.32,-167.72 1082.45,-152.78"/>
<polygon fill="midnightblue" stroke="midnightblue" points="1085.95,-153.01 1083.56,-142.69 1078.99,-152.25 1085.95,-153.01"/>
</g>
<!-- Node35&#45;&gt;Node29 -->
<g id="edge43" class="edge">
<title>Node35&#45;&gt;Node29</title>
<path fill="none" stroke="midnightblue" d="M876.81,-238.14C774.95,-230.09 587.16,-214.92 416.34,-199.11"/>
<polygon fill="midnightblue" stroke="midnightblue" points="416.43,-195.6 406.15,-198.16 415.78,-202.57 416.43,-195.6"/>
</g>
<!-- Node36 -->
<g id="node36" class="node">
<title>Node36</title>
<g id="a_node36"><a xlink:title=" ">
<polygon fill="none" stroke="#bfbfbf" points="1112.5,-179.5 1112.5,-198.5 1185.5,-198.5 1185.5,-179.5 1112.5,-179.5"/>
<text text-anchor="middle" x="1149" y="-186.5" font-family="Helvetica,sans-Serif" font-size="10.00">openssl/err.h</text>
</a>
</g>
</g>
<!-- Node35&#45;&gt;Node36 -->
<g id="edge44" class="edge">
<title>Node35&#45;&gt;Node36</title>
<path fill="none" stroke="midnightblue" d="M983.22,-235.44C1016.93,-226.2 1070.8,-211.44 1107.93,-201.26"/>
<polygon fill="midnightblue" stroke="midnightblue" points="1109.21,-204.54 1117.93,-198.52 1107.36,-197.78 1109.21,-204.54"/>
</g>
<!-- Node37 -->
<g id="node37" class="node">
<title>Node37</title>
<g id="a_node37"><a xlink:title=" ">
<polygon fill="none" stroke="#bfbfbf" points="1204,-179.5 1204,-198.5 1278,-198.5 1278,-179.5 1204,-179.5"/>
<text text-anchor="middle" x="1241" y="-186.5" font-family="Helvetica,sans-Serif" font-size="10.00">openssl/ssl.h</text>
</a>
</g>
</g>
<!-- Node35&#45;&gt;Node37 -->
<g id="edge45" class="edge">
<title>Node35&#45;&gt;Node37</title>
<path fill="none" stroke="midnightblue" d="M998.41,-235.45C1045.04,-226.84 1119.25,-213.08 1193.77,-199.04"/>
<polygon fill="midnightblue" stroke="midnightblue" points="1194.63,-202.44 1203.8,-197.14 1193.33,-195.56 1194.63,-202.44"/>
</g>
<!-- Node38 -->
<g id="node38" class="node">
<title>Node38</title>
<g id="a_node38"><a xlink:title=" ">
<polygon fill="none" stroke="#bfbfbf" points="1296.5,-179.5 1296.5,-198.5 1339.5,-198.5 1339.5,-179.5 1296.5,-179.5"/>
<text text-anchor="middle" x="1318" y="-186.5" font-family="Helvetica,sans-Serif" font-size="10.00">fcntl.h</text>
</a>
</g>
</g>
<!-- Node35&#45;&gt;Node38 -->
<g id="edge46" class="edge">
<title>Node35&#45;&gt;Node38</title>
<path fill="none" stroke="midnightblue" d="M1027.06,-237.15C1092.98,-230.4 1191.56,-218.51 1286.37,-198.83"/>
<polygon fill="midnightblue" stroke="midnightblue" points="1287.36,-202.2 1296.42,-196.71 1285.92,-195.35 1287.36,-202.2"/>
</g>
<!-- Node39 -->
<g id="node39" class="node">
<title>Node39</title>
<g id="a_node39"><a xlink:title=" ">
<polygon fill="none" stroke="#bfbfbf" points="1357.5,-179.5 1357.5,-198.5 1406.5,-198.5 1406.5,-179.5 1357.5,-179.5"/>
<text text-anchor="middle" x="1382" y="-186.5" font-family="Helvetica,sans-Serif" font-size="10.00">netdb.h</text>
</a>
</g>
</g>
<!-- Node35&#45;&gt;Node39 -->
<g id="edge47" class="edge">
<title>Node35&#45;&gt;Node39</title>
<path fill="none" stroke="midnightblue" d="M1027.3,-238.73C1105.14,-232.53 1230.26,-220.5 1347.36,-198.86"/>
<polygon fill="midnightblue" stroke="midnightblue" points="1348.03,-202.29 1357.21,-197.01 1346.74,-195.41 1348.03,-202.29"/>
</g>
<!-- Node40 -->
<g id="node40" class="node">
<title>Node40</title>
<g id="a_node40"><a xlink:title=" ">
<polygon fill="none" stroke="#bfbfbf" points="424.5,-179.5 424.5,-198.5 489.5,-198.5 489.5,-179.5 424.5,-179.5"/>
<text text-anchor="middle" x="457" y="-186.5" font-family="Helvetica,sans-Serif" font-size="10.00">netinet/in.h</text>
</a>
</g>
</g>
<!-- Node35&#45;&gt;Node40 -->
<g id="edge48" class="edge">
<title>Node35&#45;&gt;Node40</title>
<path fill="none" stroke="midnightblue" d="M876.94,-239.27C788.75,-233.1 637.87,-220.65 499.54,-199.09"/>
<polygon fill="midnightblue" stroke="midnightblue" points="500.03,-195.62 489.61,-197.52 498.94,-202.54 500.03,-195.62"/>
</g>
<!-- Node41 -->
<g id="node41" class="node">
<title>Node41</title>
<g id="a_node41"><a xlink:title=" ">
<polygon fill="none" stroke="#bfbfbf" points="507.5,-179.5 507.5,-198.5 578.5,-198.5 578.5,-179.5 507.5,-179.5"/>
<text text-anchor="middle" x="543" y="-186.5" font-family="Helvetica,sans-Serif" font-size="10.00">netinet/tcp.h</text>
</a>
</g>
</g>
<!-- Node35&#45;&gt;Node41 -->
<g id="edge49" class="edge">
<title>Node35&#45;&gt;Node41</title>
<path fill="none" stroke="midnightblue" d="M876.95,-236.5C805.3,-228.94 694.09,-216.17 589.11,-199.25"/>
<polygon fill="midnightblue" stroke="midnightblue" points="589.41,-195.75 578.98,-197.6 588.28,-202.66 589.41,-195.75"/>
</g>
<!-- Node42 -->
<g id="node42" class="node">
<title>Node42</title>
<g id="a_node42"><a xlink:title=" ">
<polygon fill="none" stroke="#bfbfbf" points="596.5,-179.5 596.5,-198.5 645.5,-198.5 645.5,-179.5 596.5,-179.5"/>
<text text-anchor="middle" x="621" y="-186.5" font-family="Helvetica,sans-Serif" font-size="10.00">stdint.h</text>
</a>
</g>
</g>
<!-- Node35&#45;&gt;Node42 -->
<g id="edge50" class="edge">
<title>Node35&#45;&gt;Node42</title>
<path fill="none" stroke="midnightblue" d="M881.41,-235.5C823.29,-227.99 738.6,-215.91 655.65,-198.94"/>
<polygon fill="midnightblue" stroke="midnightblue" points="656.31,-195.5 645.81,-196.9 654.89,-202.35 656.31,-195.5"/>
</g>
<!-- Node43 -->
<g id="node43" class="node">
<title>Node43</title>
<g id="a_node43"><a xlink:title=" ">
<polygon fill="none" stroke="#bfbfbf" points="664,-179.5 664,-198.5 728,-198.5 728,-179.5 664,-179.5"/>
<text text-anchor="middle" x="696" y="-186.5" font-family="Helvetica,sans-Serif" font-size="10.00">sys/epoll.h</text>
</a>
</g>
</g>
<!-- Node35&#45;&gt;Node43 -->
<g id="edge51" class="edge">
<title>Node35&#45;&gt;Node43</title>
<path fill="none" stroke="midnightblue" d="M910.76,-235.49C869.57,-226.97 804.18,-213.36 738.36,-199.28"/>
<polygon fill="midnightblue" stroke="midnightblue" points="738.73,-195.78 728.22,-197.1 737.27,-202.62 738.73,-195.78"/>
</g>
<!-- Node44 -->
<g id="node44" class="node">
<title>Node44</title>
<g id="a_node44"><a xlink:title=" ">
<polygon fill="none" stroke="#bfbfbf" points="746,-179.5 746,-198.5 808,-198.5 808,-179.5 746,-179.5"/>
<text text-anchor="middle" x="777" y="-186.5" font-family="Helvetica,sans-Serif" font-size="10.00">arpa/inet.h</text>
</a>
</g>
</g>
<!-- Node35&#45;&gt;Node44 -->
<g id="edge52" class="edge">
<title>Node35&#45;&gt;Node44</title>
<path fill="none" stroke="midnightblue" d="M924.27,-235.44C894.57,-226.28 847.28,-211.69 814.33,-201.52"/>
<polygon fill="midnightblue" stroke="midnightblue" points="815.19,-198.12 804.6,-198.52 813.12,-204.81 815.19,-198.12"/>
</g>
<!-- Node45 -->
<g id="node45" class="node">
<title>Node45</title>
<g id="a_node45"><a xlink:title=" ">
<polygon fill="none" stroke="#bfbfbf" points="826.5,-179.5 826.5,-198.5 899.5,-198.5 899.5,-179.5 826.5,-179.5"/>
<text text-anchor="middle" x="863" y="-186.5" font-family="Helvetica,sans-Serif" font-size="10.00">sys/socket.h</text>
</a>
</g>
</g>
<!-- Node35&#45;&gt;Node45 -->
<g id="edge53" class="edge">
<title>Node35&#45;&gt;Node45</title>
<path fill="none" stroke="midnightblue" d="M937.7,-235.32C923.82,-226.9 902.51,-213.97 886.2,-204.07"/>
<polygon fill="midnightblue" stroke="midnightblue" points="887.63,-200.85 877.26,-198.65 884,-206.83 887.63,-200.85"/>
</g>
<!-- Node46 -->
<g id="node46" class="node">
<title>Node46</title>
<g id="a_node46"><a xlink:title=" ">
<polygon fill="none" stroke="#bfbfbf" points="918,-179.5 918,-198.5 986,-198.5 986,-179.5 918,-179.5"/>
<text text-anchor="middle" x="952" y="-186.5" font-family="Helvetica,sans-Serif" font-size="10.00">sys/types.h</text>
</a>
</g>
</g>
<!-- Node35&#45;&gt;Node46 -->
<g id="edge54" class="edge">
<title>Node35&#45;&gt;Node46</title>
<path fill="none" stroke="midnightblue" d="M952,-235.08C952,-228.01 952,-217.86 952,-208.99"/>
<polygon fill="midnightblue" stroke="midnightblue" points="955.5,-208.75 952,-198.75 948.5,-208.75 955.5,-208.75"/>
</g>
<!-- Node47 -->
<g id="node47" class="node">
<title>Node47</title>
<g id="a_node47"><a xlink:title=" ">
<polygon fill="none" stroke="#bfbfbf" points="1004.5,-179.5 1004.5,-198.5 1055.5,-198.5 1055.5,-179.5 1004.5,-179.5"/>
<text text-anchor="middle" x="1030" y="-186.5" font-family="Helvetica,sans-Serif" font-size="10.00">unistd.h</text>
</a>
</g>
</g>
<!-- Node35&#45;&gt;Node47 -->
<g id="edge55" class="edge">
<title>Node35&#45;&gt;Node47</title>
<path fill="none" stroke="midnightblue" d="M964.53,-235.32C976.59,-226.98 995.03,-214.21 1009.27,-204.35"/>
<polygon fill="midnightblue" stroke="midnightblue" points="1011.27,-207.22 1017.5,-198.65 1007.28,-201.47 1011.27,-207.22"/>
</g>
</g>
</svg>
