<?xml version="1.0" encoding="UTF-8" standalone="no"?>
<!DOCTYPE svg PUBLIC "-//W3C//DTD SVG 1.1//EN"
 "http://www.w3.org/Graphics/SVG/1.1/DTD/svg11.dtd">
<!-- Generated by graphviz version 2.43.0 (0)
 -->
<!-- Title: YouTubeAPI.hpp Pages: 1 -->
<svg width="2408pt" height="487pt"
 viewBox="0.00 0.00 2408.00 487.00" xmlns="http://www.w3.org/2000/svg" xmlns:xlink="http://www.w3.org/1999/xlink">
<g id="graph0" class="graph" transform="scale(1 1) rotate(0) translate(4 483)">
<title>YouTubeAPI.hpp</title>
<!-- Node1 -->
<g id="node1" class="node">
<title>Node1</title>
<g id="a_node1"><a xlink:title=" ">
<polygon fill="#bfbfbf" stroke="black" points="862.5,-459.5 862.5,-478.5 954.5,-478.5 954.5,-459.5 862.5,-459.5"/>
<text text-anchor="middle" x="908.5" y="-466.5" font-family="Helvetica,sans-Serif" font-size="10.00">YouTubeAPI.hpp</text>
</a>
</g>
</g>
<!-- Node2 -->
<g id="node2" class="node">
<title>Node2</title>
<g id="a_node2"><a xlink:href="../../d4/deb/a00710.html" target="_top" xlink:title=" ">
<polygon fill="none" stroke="black" points="1007,-112.5 1007,-142.5 1152,-142.5 1152,-112.5 1007,-112.5"/>
<text text-anchor="start" x="1015" y="-130.5" font-family="Helvetica,sans-Serif" font-size="10.00">discordcoreapi/Foundation</text>
<text text-anchor="middle" x="1079.5" y="-119.5" font-family="Helvetica,sans-Serif" font-size="10.00">Entities.hpp</text>
</a>
</g>
</g>
<!-- Node1&#45;&gt;Node2 -->
<g id="edge1" class="edge">
<title>Node1&#45;&gt;Node2</title>
<path fill="none" stroke="midnightblue" d="M862.42,-463.17C768.03,-451.99 561.5,-420.41 561.5,-358 561.5,-358 561.5,-358 561.5,-244 561.5,-209.36 574.9,-196.99 604.5,-179 668.45,-140.13 878.34,-130.97 996.59,-128.94"/>
<polygon fill="midnightblue" stroke="midnightblue" points="996.75,-132.44 1006.69,-128.78 996.64,-125.44 996.75,-132.44"/>
</g>
<!-- Node27 -->
<g id="node27" class="node">
<title>Node27</title>
<g id="a_node27"><a xlink:href="../../d4/d9b/a00680.html" target="_top" xlink:title=" ">
<polygon fill="none" stroke="black" points="756,-235.5 756,-254.5 935,-254.5 935,-235.5 756,-235.5"/>
<text text-anchor="middle" x="845.5" y="-242.5" font-family="Helvetica,sans-Serif" font-size="10.00">discordcoreapi/AudioDecoder.hpp</text>
</a>
</g>
</g>
<!-- Node1&#45;&gt;Node27 -->
<g id="edge26" class="edge">
<title>Node1&#45;&gt;Node27</title>
<path fill="none" stroke="midnightblue" d="M899.46,-459.25C891.29,-450.78 879.64,-437.17 873.5,-423 850.04,-368.87 845.97,-297.8 845.44,-264.6"/>
<polygon fill="midnightblue" stroke="midnightblue" points="848.94,-264.5 845.37,-254.53 841.94,-264.55 848.94,-264.5"/>
</g>
<!-- Node31 -->
<g id="node31" class="node">
<title>Node31</title>
<g id="a_node31"><a xlink:href="../../db/d77/a00683.html" target="_top" xlink:title=" ">
<polygon fill="none" stroke="black" points="2207.5,-403.5 2207.5,-422.5 2385.5,-422.5 2385.5,-403.5 2207.5,-403.5"/>
<text text-anchor="middle" x="2296.5" y="-410.5" font-family="Helvetica,sans-Serif" font-size="10.00">discordcoreapi/AudioEncoder.hpp</text>
</a>
</g>
</g>
<!-- Node1&#45;&gt;Node31 -->
<g id="edge32" class="edge">
<title>Node1&#45;&gt;Node31</title>
<path fill="none" stroke="midnightblue" d="M954.68,-466.2C1151.34,-458.55 1921.53,-428.59 2197.47,-417.85"/>
<polygon fill="midnightblue" stroke="midnightblue" points="2197.62,-421.35 2207.47,-417.46 2197.34,-414.36 2197.62,-421.35"/>
</g>
<!-- Node33 -->
<g id="node33" class="node">
<title>Node33</title>
<g id="a_node33"><a xlink:href="../../d5/d5b/a00695.html" target="_top" xlink:title=" ">
<polygon fill="none" stroke="black" points="882.5,-403.5 882.5,-422.5 1044.5,-422.5 1044.5,-403.5 882.5,-403.5"/>
<text text-anchor="middle" x="963.5" y="-410.5" font-family="Helvetica,sans-Serif" font-size="10.00">discordcoreapi/CoRoutine.hpp</text>
</a>
</g>
</g>
<!-- Node1&#45;&gt;Node33 -->
<g id="edge35" class="edge">
<title>Node1&#45;&gt;Node33</title>
<path fill="none" stroke="midnightblue" d="M917.58,-459.08C925.67,-451.14 937.7,-439.34 947.41,-429.8"/>
<polygon fill="midnightblue" stroke="midnightblue" points="949.9,-432.25 954.59,-422.75 945,-427.26 949.9,-432.25"/>
</g>
<!-- Node3 -->
<g id="node3" class="node">
<title>Node3</title>
<g id="a_node3"><a xlink:href="../../d5/dae/a00767.html" target="_top" xlink:title=" ">
<polygon fill="none" stroke="black" points="1004.5,-56.5 1004.5,-75.5 1154.5,-75.5 1154.5,-56.5 1004.5,-56.5"/>
<text text-anchor="middle" x="1079.5" y="-63.5" font-family="Helvetica,sans-Serif" font-size="10.00">discordcoreapi/Utilities.hpp</text>
</a>
</g>
</g>
<!-- Node2&#45;&gt;Node3 -->
<g id="edge2" class="edge">
<title>Node2&#45;&gt;Node3</title>
<path fill="none" stroke="midnightblue" d="M1079.5,-112.4C1079.5,-104.47 1079.5,-94.46 1079.5,-85.86"/>
<polygon fill="midnightblue" stroke="midnightblue" points="1083,-85.66 1079.5,-75.66 1076,-85.66 1083,-85.66"/>
</g>
<!-- Node4 -->
<g id="node4" class="node">
<title>Node4</title>
<g id="a_node4"><a xlink:title=" ">
<polygon fill="none" stroke="#bfbfbf" points="0,-0.5 0,-19.5 63,-19.5 63,-0.5 0,-0.5"/>
<text text-anchor="middle" x="31.5" y="-7.5" font-family="Helvetica,sans-Serif" font-size="10.00">pthread.h</text>
</a>
</g>
</g>
<!-- Node3&#45;&gt;Node4 -->
<g id="edge3" class="edge">
<title>Node3&#45;&gt;Node4</title>
<path fill="none" stroke="midnightblue" d="M1004.15,-63.31C805.75,-58.59 271.21,-44.11 73.21,-19.8"/>
<polygon fill="midnightblue" stroke="midnightblue" points="73.55,-16.31 63.19,-18.52 72.67,-23.26 73.55,-16.31"/>
</g>
<!-- Node5 -->
<g id="node5" class="node">
<title>Node5</title>
<g id="a_node5"><a xlink:title=" ">
<polygon fill="none" stroke="#bfbfbf" points="81.5,-0.5 81.5,-19.5 149.5,-19.5 149.5,-0.5 81.5,-0.5"/>
<text text-anchor="middle" x="115.5" y="-7.5" font-family="Helvetica,sans-Serif" font-size="10.00">sys/time.h</text>
</a>
</g>
</g>
<!-- Node3&#45;&gt;Node5 -->
<g id="edge4" class="edge">
<title>Node3&#45;&gt;Node5</title>
<path fill="none" stroke="midnightblue" d="M1004.24,-65.32C848.34,-65.13 478.76,-60.16 160.05,-19.98"/>
<polygon fill="midnightblue" stroke="midnightblue" points="160.05,-16.45 149.69,-18.66 159.16,-23.4 160.05,-16.45"/>
</g>
<!-- Node6 -->
<g id="node6" class="node">
<title>Node6</title>
<g id="a_node6"><a xlink:title=" ">
<polygon fill="none" stroke="#bfbfbf" points="167.5,-0.5 167.5,-19.5 215.5,-19.5 215.5,-0.5 167.5,-0.5"/>
<text text-anchor="middle" x="191.5" y="-7.5" font-family="Helvetica,sans-Serif" font-size="10.00">time.h</text>
</a>
</g>
</g>
<!-- Node3&#45;&gt;Node6 -->
<g id="edge5" class="edge">
<title>Node3&#45;&gt;Node6</title>
<path fill="none" stroke="midnightblue" d="M1004.22,-63.1C828.05,-58.33 391.93,-44.55 225.61,-19.76"/>
<polygon fill="midnightblue" stroke="midnightblue" points="225.94,-16.27 215.52,-18.19 224.86,-23.19 225.94,-16.27"/>
</g>
<!-- Node7 -->
<g id="node7" class="node">
<title>Node7</title>
<g id="a_node7"><a xlink:title=" ">
<polygon fill="none" stroke="#bfbfbf" points="233.5,-0.5 233.5,-19.5 277.5,-19.5 277.5,-0.5 233.5,-0.5"/>
<text text-anchor="middle" x="255.5" y="-7.5" font-family="Helvetica,sans-Serif" font-size="10.00">ctime</text>
</a>
</g>
</g>
<!-- Node3&#45;&gt;Node7 -->
<g id="edge6" class="edge">
<title>Node3&#45;&gt;Node7</title>
<path fill="none" stroke="midnightblue" d="M1004.33,-62.9C837.88,-57.91 441.44,-44.04 287.9,-19.79"/>
<polygon fill="midnightblue" stroke="midnightblue" points="288.15,-16.28 277.71,-18.1 287,-23.19 288.15,-16.28"/>
</g>
<!-- Node8 -->
<g id="node8" class="node">
<title>Node8</title>
<g id="a_node8"><a xlink:title=" ">
<polygon fill="none" stroke="#bfbfbf" points="296,-0.5 296,-19.5 403,-19.5 403,-0.5 296,-0.5"/>
<text text-anchor="middle" x="349.5" y="-7.5" font-family="Helvetica,sans-Serif" font-size="10.00">condition_variable</text>
</a>
</g>
</g>
<!-- Node3&#45;&gt;Node8 -->
<g id="edge7" class="edge">
<title>Node3&#45;&gt;Node8</title>
<path fill="none" stroke="midnightblue" d="M1004.32,-61.76C882.52,-56.1 634.28,-42.89 413.25,-19.99"/>
<polygon fill="midnightblue" stroke="midnightblue" points="413.39,-16.49 403.08,-18.93 412.66,-23.45 413.39,-16.49"/>
</g>
<!-- Node9 -->
<g id="node9" class="node">
<title>Node9</title>
<g id="a_node9"><a xlink:title=" ">
<polygon fill="none" stroke="#bfbfbf" points="421.5,-0.5 421.5,-19.5 531.5,-19.5 531.5,-0.5 421.5,-0.5"/>
<text text-anchor="middle" x="476.5" y="-7.5" font-family="Helvetica,sans-Serif" font-size="10.00">nlohmann/json.hpp</text>
</a>
</g>
</g>
<!-- Node3&#45;&gt;Node9 -->
<g id="edge8" class="edge">
<title>Node3&#45;&gt;Node9</title>
<path fill="none" stroke="midnightblue" d="M1004.38,-60.07C902.09,-53.06 713.05,-39.04 541.6,-20.06"/>
<polygon fill="midnightblue" stroke="midnightblue" points="541.96,-16.58 531.63,-18.95 541.18,-23.54 541.96,-16.58"/>
</g>
<!-- Node10 -->
<g id="node10" class="node">
<title>Node10</title>
<g id="a_node10"><a xlink:title=" ">
<polygon fill="none" stroke="#bfbfbf" points="550,-0.5 550,-19.5 643,-19.5 643,-0.5 550,-0.5"/>
<text text-anchor="middle" x="596.5" y="-7.5" font-family="Helvetica,sans-Serif" font-size="10.00">source_location</text>
</a>
</g>
</g>
<!-- Node3&#45;&gt;Node10 -->
<g id="edge9" class="edge">
<title>Node3&#45;&gt;Node10</title>
<path fill="none" stroke="midnightblue" d="M1004.35,-58.42C920.93,-50.81 782.07,-37.27 653.32,-20.18"/>
<polygon fill="midnightblue" stroke="midnightblue" points="653.66,-16.7 643.28,-18.84 652.73,-23.64 653.66,-16.7"/>
</g>
<!-- Node11 -->
<g id="node11" class="node">
<title>Node11</title>
<g id="a_node11"><a xlink:title=" ">
<polygon fill="none" stroke="#bfbfbf" points="661,-0.5 661,-19.5 754,-19.5 754,-0.5 661,-0.5"/>
<text text-anchor="middle" x="707.5" y="-7.5" font-family="Helvetica,sans-Serif" font-size="10.00">unordered_map</text>
</a>
</g>
</g>
<!-- Node3&#45;&gt;Node11 -->
<g id="edge10" class="edge">
<title>Node3&#45;&gt;Node11</title>
<path fill="none" stroke="midnightblue" d="M1017.39,-56.49C955.82,-47.98 858.51,-34.32 764.24,-20.09"/>
<polygon fill="midnightblue" stroke="midnightblue" points="764.65,-16.61 754.24,-18.58 763.6,-23.53 764.65,-16.61"/>
</g>
<!-- Node12 -->
<g id="node12" class="node">
<title>Node12</title>
<g id="a_node12"><a xlink:title=" ">
<polygon fill="none" stroke="#bfbfbf" points="772.5,-0.5 772.5,-19.5 858.5,-19.5 858.5,-0.5 772.5,-0.5"/>
<text text-anchor="middle" x="815.5" y="-7.5" font-family="Helvetica,sans-Serif" font-size="10.00">shared_mutex</text>
</a>
</g>
</g>
<!-- Node3&#45;&gt;Node12 -->
<g id="edge11" class="edge">
<title>Node3&#45;&gt;Node12</title>
<path fill="none" stroke="midnightblue" d="M1037.67,-56.44C991.42,-46.98 916.89,-31.74 867.06,-21.55"/>
<polygon fill="midnightblue" stroke="midnightblue" points="867.63,-18.09 857.14,-19.52 866.23,-24.95 867.63,-18.09"/>
</g>
<!-- Node13 -->
<g id="node13" class="node">
<title>Node13</title>
<g id="a_node13"><a xlink:title=" ">
<polygon fill="none" stroke="#bfbfbf" points="877,-0.5 877,-19.5 942,-19.5 942,-0.5 877,-0.5"/>
<text text-anchor="middle" x="909.5" y="-7.5" font-family="Helvetica,sans-Serif" font-size="10.00">functional</text>
</a>
</g>
</g>
<!-- Node3&#45;&gt;Node13 -->
<g id="edge12" class="edge">
<title>Node3&#45;&gt;Node13</title>
<path fill="none" stroke="midnightblue" d="M1052.56,-56.44C1023.84,-47.32 978.17,-32.81 946.18,-22.65"/>
<polygon fill="midnightblue" stroke="midnightblue" points="946.9,-19.21 936.31,-19.52 944.78,-25.88 946.9,-19.21"/>
</g>
<!-- Node14 -->
<g id="node14" class="node">
<title>Node14</title>
<g id="a_node14"><a xlink:title=" ">
<polygon fill="none" stroke="#bfbfbf" points="960,-0.5 960,-19.5 1031,-19.5 1031,-0.5 960,-0.5"/>
<text text-anchor="middle" x="995.5" y="-7.5" font-family="Helvetica,sans-Serif" font-size="10.00">semaphore</text>
</a>
</g>
</g>
<!-- Node3&#45;&gt;Node14 -->
<g id="edge13" class="edge">
<title>Node3&#45;&gt;Node14</title>
<path fill="none" stroke="midnightblue" d="M1066,-56.32C1052.9,-47.9 1032.79,-34.97 1017.39,-25.07"/>
<polygon fill="midnightblue" stroke="midnightblue" points="1019.27,-22.12 1008.96,-19.65 1015.48,-28.01 1019.27,-22.12"/>
</g>
<!-- Node15 -->
<g id="node15" class="node">
<title>Node15</title>
<g id="a_node15"><a xlink:title=" ">
<polygon fill="none" stroke="#bfbfbf" points="1049.5,-0.5 1049.5,-19.5 1109.5,-19.5 1109.5,-0.5 1049.5,-0.5"/>
<text text-anchor="middle" x="1079.5" y="-7.5" font-family="Helvetica,sans-Serif" font-size="10.00">concepts</text>
</a>
</g>
</g>
<!-- Node3&#45;&gt;Node15 -->
<g id="edge14" class="edge">
<title>Node3&#45;&gt;Node15</title>
<path fill="none" stroke="midnightblue" d="M1079.5,-56.08C1079.5,-49.01 1079.5,-38.86 1079.5,-29.99"/>
<polygon fill="midnightblue" stroke="midnightblue" points="1083,-29.75 1079.5,-19.75 1076,-29.75 1083,-29.75"/>
</g>
<!-- Node16 -->
<g id="node16" class="node">
<title>Node16</title>
<g id="a_node16"><a xlink:title=" ">
<polygon fill="none" stroke="#bfbfbf" points="1127.5,-0.5 1127.5,-19.5 1187.5,-19.5 1187.5,-0.5 1127.5,-0.5"/>
<text text-anchor="middle" x="1157.5" y="-7.5" font-family="Helvetica,sans-Serif" font-size="10.00">iostream</text>
</a>
</g>
</g>
<!-- Node3&#45;&gt;Node16 -->
<g id="edge15" class="edge">
<title>Node3&#45;&gt;Node16</title>
<path fill="none" stroke="midnightblue" d="M1092.03,-56.32C1104.09,-47.98 1122.53,-35.21 1136.77,-25.35"/>
<polygon fill="midnightblue" stroke="midnightblue" points="1138.77,-28.22 1145,-19.65 1134.78,-22.47 1138.77,-28.22"/>
</g>
<!-- Node17 -->
<g id="node17" class="node">
<title>Node17</title>
<g id="a_node17"><a xlink:title=" ">
<polygon fill="none" stroke="#bfbfbf" points="1206,-0.5 1206,-19.5 1261,-19.5 1261,-0.5 1206,-0.5"/>
<text text-anchor="middle" x="1233.5" y="-7.5" font-family="Helvetica,sans-Serif" font-size="10.00">fstream</text>
</a>
</g>
</g>
<!-- Node3&#45;&gt;Node17 -->
<g id="edge16" class="edge">
<title>Node3&#45;&gt;Node17</title>
<path fill="none" stroke="midnightblue" d="M1103.9,-56.44C1129.7,-47.4 1170.58,-33.06 1199.52,-22.92"/>
<polygon fill="midnightblue" stroke="midnightblue" points="1200.93,-26.13 1209.21,-19.52 1198.62,-19.52 1200.93,-26.13"/>
</g>
<!-- Node18 -->
<g id="node18" class="node">
<title>Node18</title>
<g id="a_node18"><a xlink:title=" ">
<polygon fill="none" stroke="#bfbfbf" points="1279.5,-0.5 1279.5,-19.5 1323.5,-19.5 1323.5,-0.5 1279.5,-0.5"/>
<text text-anchor="middle" x="1301.5" y="-7.5" font-family="Helvetica,sans-Serif" font-size="10.00">bitset</text>
</a>
</g>
</g>
<!-- Node3&#45;&gt;Node18 -->
<g id="edge17" class="edge">
<title>Node3&#45;&gt;Node18</title>
<path fill="none" stroke="midnightblue" d="M1117.47,-56.5C1155.9,-47.77 1216.99,-33.6 1269.5,-20 1269.6,-19.97 1269.7,-19.95 1269.8,-19.92"/>
<polygon fill="midnightblue" stroke="midnightblue" points="1270.75,-23.29 1279.5,-17.32 1268.93,-16.53 1270.75,-23.29"/>
</g>
<!-- Node19 -->
<g id="node19" class="node">
<title>Node19</title>
<g id="a_node19"><a xlink:title=" ">
<polygon fill="none" stroke="#bfbfbf" points="1341.5,-0.5 1341.5,-19.5 1399.5,-19.5 1399.5,-0.5 1341.5,-0.5"/>
<text text-anchor="middle" x="1370.5" y="-7.5" font-family="Helvetica,sans-Serif" font-size="10.00">memory</text>
</a>
</g>
</g>
<!-- Node3&#45;&gt;Node19 -->
<g id="edge18" class="edge">
<title>Node3&#45;&gt;Node19</title>
<path fill="none" stroke="midnightblue" d="M1132.48,-56.47C1181.58,-48.37 1256.88,-35.43 1331.45,-20.12"/>
<polygon fill="midnightblue" stroke="midnightblue" points="1332.41,-23.5 1341.49,-18.05 1330.99,-16.65 1332.41,-23.5"/>
</g>
<!-- Node20 -->
<g id="node20" class="node">
<title>Node20</title>
<g id="a_node20"><a xlink:title=" ">
<polygon fill="none" stroke="#bfbfbf" points="1417.5,-0.5 1417.5,-19.5 1471.5,-19.5 1471.5,-0.5 1417.5,-0.5"/>
<text text-anchor="middle" x="1444.5" y="-7.5" font-family="Helvetica,sans-Serif" font-size="10.00">random</text>
</a>
</g>
</g>
<!-- Node3&#45;&gt;Node20 -->
<g id="edge19" class="edge">
<title>Node3&#45;&gt;Node20</title>
<path fill="none" stroke="midnightblue" d="M1154.69,-57.08C1219.27,-49.74 1315.01,-37.56 1407.36,-20.04"/>
<polygon fill="midnightblue" stroke="midnightblue" points="1408.28,-23.42 1417.44,-18.1 1406.96,-16.55 1408.28,-23.42"/>
</g>
<!-- Node21 -->
<g id="node21" class="node">
<title>Node21</title>
<g id="a_node21"><a xlink:title=" ">
<polygon fill="none" stroke="#bfbfbf" points="1489.5,-0.5 1489.5,-19.5 1533.5,-19.5 1533.5,-0.5 1489.5,-0.5"/>
<text text-anchor="middle" x="1511.5" y="-7.5" font-family="Helvetica,sans-Serif" font-size="10.00">string</text>
</a>
</g>
</g>
<!-- Node3&#45;&gt;Node21 -->
<g id="edge20" class="edge">
<title>Node3&#45;&gt;Node21</title>
<path fill="none" stroke="midnightblue" d="M1154.73,-60.41C1233.55,-54.73 1360.98,-43.09 1479.3,-19.93"/>
<polygon fill="midnightblue" stroke="midnightblue" points="1480.14,-23.33 1489.26,-17.95 1478.77,-16.47 1480.14,-23.33"/>
</g>
<!-- Node22 -->
<g id="node22" class="node">
<title>Node22</title>
<g id="a_node22"><a xlink:title=" ">
<polygon fill="none" stroke="#bfbfbf" points="1552,-0.5 1552,-19.5 1599,-19.5 1599,-0.5 1552,-0.5"/>
<text text-anchor="middle" x="1575.5" y="-7.5" font-family="Helvetica,sans-Serif" font-size="10.00">vector</text>
</a>
</g>
</g>
<!-- Node3&#45;&gt;Node22 -->
<g id="edge21" class="edge">
<title>Node3&#45;&gt;Node22</title>
<path fill="none" stroke="midnightblue" d="M1154.62,-61.61C1244.5,-56.69 1399.58,-45.41 1541.62,-19.84"/>
<polygon fill="midnightblue" stroke="midnightblue" points="1542.61,-23.22 1551.82,-17.97 1541.35,-16.33 1542.61,-23.22"/>
</g>
<!-- Node23 -->
<g id="node23" class="node">
<title>Node23</title>
<g id="a_node23"><a xlink:title=" ">
<polygon fill="none" stroke="#bfbfbf" points="1617.5,-0.5 1617.5,-19.5 1665.5,-19.5 1665.5,-0.5 1617.5,-0.5"/>
<text text-anchor="middle" x="1641.5" y="-7.5" font-family="Helvetica,sans-Serif" font-size="10.00">thread</text>
</a>
</g>
</g>
<!-- Node3&#45;&gt;Node23 -->
<g id="edge22" class="edge">
<title>Node3&#45;&gt;Node23</title>
<path fill="none" stroke="midnightblue" d="M1154.78,-62.69C1257.69,-58.61 1447.74,-47.74 1607.5,-20 1607.6,-19.98 1607.7,-19.96 1607.8,-19.95"/>
<polygon fill="midnightblue" stroke="midnightblue" points="1608.4,-23.4 1617.47,-17.91 1606.96,-16.55 1608.4,-23.4"/>
</g>
<!-- Node24 -->
<g id="node24" class="node">
<title>Node24</title>
<g id="a_node24"><a xlink:title=" ">
<polygon fill="none" stroke="#bfbfbf" points="1683.5,-0.5 1683.5,-19.5 1731.5,-19.5 1731.5,-0.5 1683.5,-0.5"/>
<text text-anchor="middle" x="1707.5" y="-7.5" font-family="Helvetica,sans-Serif" font-size="10.00">mutex</text>
</a>
</g>
</g>
<!-- Node3&#45;&gt;Node24 -->
<g id="edge23" class="edge">
<title>Node3&#45;&gt;Node24</title>
<path fill="none" stroke="midnightblue" d="M1154.74,-63.9C1266.25,-61.25 1481.94,-52.24 1673.5,-19.84"/>
<polygon fill="midnightblue" stroke="midnightblue" points="1674.21,-23.27 1683.47,-18.12 1673.02,-16.37 1674.21,-23.27"/>
</g>
<!-- Node25 -->
<g id="node25" class="node">
<title>Node25</title>
<g id="a_node25"><a xlink:title=" ">
<polygon fill="none" stroke="#bfbfbf" points="1750,-0.5 1750,-19.5 1797,-19.5 1797,-0.5 1750,-0.5"/>
<text text-anchor="middle" x="1773.5" y="-7.5" font-family="Helvetica,sans-Serif" font-size="10.00">queue</text>
</a>
</g>
</g>
<!-- Node3&#45;&gt;Node25 -->
<g id="edge24" class="edge">
<title>Node3&#45;&gt;Node25</title>
<path fill="none" stroke="midnightblue" d="M1154.91,-64.71C1276.37,-63.18 1522.79,-55.67 1739.85,-19.74"/>
<polygon fill="midnightblue" stroke="midnightblue" points="1740.55,-23.17 1749.83,-18.06 1739.39,-16.26 1740.55,-23.17"/>
</g>
<!-- Node26 -->
<g id="node26" class="node">
<title>Node26</title>
<g id="a_node26"><a xlink:title=" ">
<polygon fill="none" stroke="#bfbfbf" points="1815.5,-0.5 1815.5,-19.5 1853.5,-19.5 1853.5,-0.5 1815.5,-0.5"/>
<text text-anchor="middle" x="1834.5" y="-7.5" font-family="Helvetica,sans-Serif" font-size="10.00">map</text>
</a>
</g>
</g>
<!-- Node3&#45;&gt;Node26 -->
<g id="edge25" class="edge">
<title>Node3&#45;&gt;Node26</title>
<path fill="none" stroke="midnightblue" d="M1154.57,-62.62C1314.09,-57.2 1682.3,-42.6 1805.5,-20 1805.6,-19.98 1805.7,-19.96 1805.8,-19.94"/>
<polygon fill="midnightblue" stroke="midnightblue" points="1806.41,-23.4 1815.32,-17.66 1804.78,-16.59 1806.41,-23.4"/>
</g>
<!-- Node27&#45;&gt;Node2 -->
<g id="edge29" class="edge">
<title>Node27&#45;&gt;Node2</title>
<path fill="none" stroke="midnightblue" d="M755.96,-244.07C674.96,-241.1 574.58,-227.99 618.5,-179 643.22,-151.42 870.6,-137.4 996.52,-131.69"/>
<polygon fill="midnightblue" stroke="midnightblue" points="996.68,-135.19 1006.52,-131.25 996.37,-128.19 996.68,-135.19"/>
</g>
<!-- Node28 -->
<g id="node28" class="node">
<title>Node28</title>
<g id="a_node28"><a xlink:href="../../d4/d6a/a00704.html" target="_top" xlink:title=" ">
<polygon fill="none" stroke="black" points="991.5,-179.5 991.5,-198.5 1167.5,-198.5 1167.5,-179.5 991.5,-179.5"/>
<text text-anchor="middle" x="1079.5" y="-186.5" font-family="Helvetica,sans-Serif" font-size="10.00">discordcoreapi/EventEntities.hpp</text>
</a>
</g>
</g>
<!-- Node27&#45;&gt;Node28 -->
<g id="edge27" class="edge">
<title>Node27&#45;&gt;Node28</title>
<path fill="none" stroke="midnightblue" d="M882.58,-235.44C923.23,-226.06 988.53,-210.99 1032.68,-200.8"/>
<polygon fill="midnightblue" stroke="midnightblue" points="1033.64,-204.18 1042.6,-198.52 1032.06,-197.35 1033.64,-204.18"/>
</g>
<!-- Node29 -->
<g id="node29" class="node">
<title>Node29</title>
<g id="a_node29"><a xlink:title=" ">
<polygon fill="none" stroke="#bfbfbf" points="628,-179.5 628,-198.5 759,-198.5 759,-179.5 628,-179.5"/>
<text text-anchor="middle" x="693.5" y="-186.5" font-family="Helvetica,sans-Serif" font-size="10.00">libavformat/avformat.h</text>
</a>
</g>
</g>
<!-- Node27&#45;&gt;Node29 -->
<g id="edge30" class="edge">
<title>Node27&#45;&gt;Node29</title>
<path fill="none" stroke="midnightblue" d="M821.42,-235.44C795.96,-226.4 755.61,-212.06 727.04,-201.92"/>
<polygon fill="midnightblue" stroke="midnightblue" points="728.07,-198.57 717.47,-198.52 725.72,-205.16 728.07,-198.57"/>
</g>
<!-- Node30 -->
<g id="node30" class="node">
<title>Node30</title>
<g id="a_node30"><a xlink:title=" ">
<polygon fill="none" stroke="#bfbfbf" points="777,-179.5 777,-198.5 936,-198.5 936,-179.5 777,-179.5"/>
<text text-anchor="middle" x="856.5" y="-186.5" font-family="Helvetica,sans-Serif" font-size="10.00">libswresample/swresample.h</text>
</a>
</g>
</g>
<!-- Node27&#45;&gt;Node30 -->
<g id="edge31" class="edge">
<title>Node27&#45;&gt;Node30</title>
<path fill="none" stroke="midnightblue" d="M847.32,-235.08C848.77,-227.93 850.87,-217.64 852.69,-208.69"/>
<polygon fill="midnightblue" stroke="midnightblue" points="856.15,-209.25 854.72,-198.75 849.29,-207.85 856.15,-209.25"/>
</g>
<!-- Node28&#45;&gt;Node2 -->
<g id="edge28" class="edge">
<title>Node28&#45;&gt;Node2</title>
<path fill="none" stroke="midnightblue" d="M1079.5,-179.48C1079.5,-172.47 1079.5,-162.19 1079.5,-152.7"/>
<polygon fill="midnightblue" stroke="midnightblue" points="1083,-152.52 1079.5,-142.52 1076,-152.52 1083,-152.52"/>
</g>
<!-- Node31&#45;&gt;Node2 -->
<g id="edge33" class="edge">
<title>Node31&#45;&gt;Node2</title>
<path fill="none" stroke="midnightblue" d="M2296.5,-403.44C2296.5,-384.94 2296.5,-339.81 2296.5,-302 2296.5,-302 2296.5,-302 2296.5,-244 2296.5,-210.31 2286.45,-196.22 2257.5,-179 2210.54,-151.07 1422.41,-134.6 1162.16,-129.9"/>
<polygon fill="midnightblue" stroke="midnightblue" points="1162.07,-126.4 1152.01,-129.72 1161.95,-133.4 1162.07,-126.4"/>
</g>
<!-- Node32 -->
<g id="node32" class="node">
<title>Node32</title>
<g id="a_node32"><a xlink:title=" ">
<polygon fill="none" stroke="#bfbfbf" points="2325,-347.5 2325,-366.5 2400,-366.5 2400,-347.5 2325,-347.5"/>
<text text-anchor="middle" x="2362.5" y="-354.5" font-family="Helvetica,sans-Serif" font-size="10.00">opus/opus.h</text>
</a>
</g>
</g>
<!-- Node31&#45;&gt;Node32 -->
<g id="edge34" class="edge">
<title>Node31&#45;&gt;Node32</title>
<path fill="none" stroke="midnightblue" d="M2307.1,-403.32C2316.96,-395.26 2331.85,-383.08 2343.72,-373.37"/>
<polygon fill="midnightblue" stroke="midnightblue" points="2346.18,-375.88 2351.7,-366.83 2341.75,-370.46 2346.18,-375.88"/>
</g>
<!-- Node33&#45;&gt;Node2 -->
<g id="edge36" class="edge">
<title>Node33&#45;&gt;Node2</title>
<path fill="none" stroke="midnightblue" d="M963.5,-403.44C963.5,-384.94 963.5,-339.81 963.5,-302 963.5,-302 963.5,-302 963.5,-244 963.5,-213.9 963.4,-202.26 982.5,-179 993.88,-165.14 1010.07,-154.63 1025.97,-146.89"/>
<polygon fill="midnightblue" stroke="midnightblue" points="1027.62,-149.99 1035.26,-142.65 1024.71,-143.62 1027.62,-149.99"/>
</g>
<!-- Node34 -->
<g id="node34" class="node">
<title>Node34</title>
<g id="a_node34"><a xlink:href="../../d3/d4f/a00761.html" target="_top" xlink:title=" ">
<polygon fill="none" stroke="black" points="1521,-347.5 1521,-366.5 1688,-366.5 1688,-347.5 1521,-347.5"/>
<text text-anchor="middle" x="1604.5" y="-354.5" font-family="Helvetica,sans-Serif" font-size="10.00">discordcoreapi/ThreadPool.hpp</text>
</a>
</g>
</g>
<!-- Node33&#45;&gt;Node34 -->
<g id="edge37" class="edge">
<title>Node33&#45;&gt;Node34</title>
<path fill="none" stroke="midnightblue" d="M1044.68,-405.16C1163.75,-395.13 1385.19,-376.48 1510.93,-365.88"/>
<polygon fill="midnightblue" stroke="midnightblue" points="1511.26,-369.37 1520.93,-365.04 1510.67,-362.39 1511.26,-369.37"/>
</g>
<!-- Node34&#45;&gt;Node2 -->
<g id="edge38" class="edge">
<title>Node34&#45;&gt;Node2</title>
<path fill="none" stroke="midnightblue" d="M1682.33,-347.48C1868.65,-325.6 2319.11,-263.2 2238.5,-179 2201.37,-140.22 1421.68,-131 1162.47,-129.01"/>
<polygon fill="midnightblue" stroke="midnightblue" points="1162.39,-125.51 1152.36,-128.93 1162.33,-132.51 1162.39,-125.51"/>
</g>
<!-- Node35 -->
<g id="node35" class="node">
<title>Node35</title>
<g id="a_node35"><a xlink:href="../../db/d7c/a00722.html" target="_top" xlink:title=" ">
<polygon fill="none" stroke="black" points="1594.5,-291.5 1594.5,-310.5 1732.5,-310.5 1732.5,-291.5 1594.5,-291.5"/>
<text text-anchor="middle" x="1663.5" y="-298.5" font-family="Helvetica,sans-Serif" font-size="10.00">discordcoreapi/Https.hpp</text>
</a>
</g>
</g>
<!-- Node34&#45;&gt;Node35 -->
<g id="edge39" class="edge">
<title>Node34&#45;&gt;Node35</title>
<path fill="none" stroke="midnightblue" d="M1613.98,-347.32C1622.7,-339.34 1635.84,-327.31 1646.4,-317.65"/>
<polygon fill="midnightblue" stroke="midnightblue" points="1648.83,-320.17 1653.85,-310.83 1644.11,-315 1648.83,-320.17"/>
</g>
<!-- Node49 -->
<g id="node49" class="node">
<title>Node49</title>
<g id="a_node49"><a xlink:title=" ">
<polygon fill="none" stroke="#bfbfbf" points="1514.5,-291.5 1514.5,-310.5 1576.5,-310.5 1576.5,-291.5 1514.5,-291.5"/>
<text text-anchor="middle" x="1545.5" y="-298.5" font-family="Helvetica,sans-Serif" font-size="10.00">coroutine</text>
</a>
</g>
</g>
<!-- Node34&#45;&gt;Node49 -->
<g id="edge55" class="edge">
<title>Node34&#45;&gt;Node49</title>
<path fill="none" stroke="midnightblue" d="M1595.02,-347.32C1586.3,-339.34 1573.16,-327.31 1562.6,-317.65"/>
<polygon fill="midnightblue" stroke="midnightblue" points="1564.89,-315 1555.15,-310.83 1560.17,-320.17 1564.89,-315"/>
</g>
<!-- Node36 -->
<g id="node36" class="node">
<title>Node36</title>
<g id="a_node36"><a xlink:href="../../d5/de8/a00749.html" target="_top" xlink:title=" ">
<polygon fill="none" stroke="black" points="1582,-235.5 1582,-254.5 1745,-254.5 1745,-235.5 1582,-235.5"/>
<text text-anchor="middle" x="1663.5" y="-242.5" font-family="Helvetica,sans-Serif" font-size="10.00">discordcoreapi/SSLClients.hpp</text>
</a>
</g>
</g>
<!-- Node35&#45;&gt;Node36 -->
<g id="edge40" class="edge">
<title>Node35&#45;&gt;Node36</title>
<path fill="none" stroke="midnightblue" d="M1663.5,-291.08C1663.5,-284.01 1663.5,-273.86 1663.5,-264.99"/>
<polygon fill="midnightblue" stroke="midnightblue" points="1667,-264.75 1663.5,-254.75 1660,-264.75 1667,-264.75"/>
</g>
<!-- Node36&#45;&gt;Node2 -->
<g id="edge41" class="edge">
<title>Node36&#45;&gt;Node2</title>
<path fill="none" stroke="midnightblue" d="M1659.38,-235.41C1651.91,-220.91 1634.64,-191.9 1610.5,-179 1535.06,-138.68 1291.96,-130.26 1162.48,-128.69"/>
<polygon fill="midnightblue" stroke="midnightblue" points="1162.25,-125.19 1152.21,-128.58 1162.17,-132.19 1162.25,-125.19"/>
</g>
<!-- Node36&#45;&gt;Node28 -->
<g id="edge42" class="edge">
<title>Node36&#45;&gt;Node28</title>
<path fill="none" stroke="midnightblue" d="M1581.64,-236.45C1487.04,-227.71 1326.38,-212.88 1177.75,-199.12"/>
<polygon fill="midnightblue" stroke="midnightblue" points="1177.81,-195.61 1167.53,-198.17 1177.16,-202.58 1177.81,-195.61"/>
</g>
<!-- Node37 -->
<g id="node37" class="node">
<title>Node37</title>
<g id="a_node37"><a xlink:title=" ">
<polygon fill="none" stroke="#bfbfbf" points="1658,-179.5 1658,-198.5 1737,-198.5 1737,-179.5 1658,-179.5"/>
<text text-anchor="middle" x="1697.5" y="-186.5" font-family="Helvetica,sans-Serif" font-size="10.00">openssl/err.h</text>
</a>
</g>
</g>
<!-- Node36&#45;&gt;Node37 -->
<g id="edge43" class="edge">
<title>Node36&#45;&gt;Node37</title>
<path fill="none" stroke="midnightblue" d="M1669.11,-235.08C1673.87,-227.53 1680.82,-216.49 1686.65,-207.23"/>
<polygon fill="midnightblue" stroke="midnightblue" points="1689.62,-209.08 1691.99,-198.75 1683.7,-205.35 1689.62,-209.08"/>
</g>
<!-- Node38 -->
<g id="node38" class="node">
<title>Node38</title>
<g id="a_node38"><a xlink:title=" ">
<polygon fill="none" stroke="#bfbfbf" points="1755.5,-179.5 1755.5,-198.5 1835.5,-198.5 1835.5,-179.5 1755.5,-179.5"/>
<text text-anchor="middle" x="1795.5" y="-186.5" font-family="Helvetica,sans-Serif" font-size="10.00">openssl/ssl.h</text>
</a>
</g>
</g>
<!-- Node36&#45;&gt;Node38 -->
<g id="edge44" class="edge">
<title>Node36&#45;&gt;Node38</title>
<path fill="none" stroke="midnightblue" d="M1684.42,-235.44C1706.24,-226.52 1740.65,-212.44 1765.39,-202.32"/>
<polygon fill="midnightblue" stroke="midnightblue" points="1766.75,-205.54 1774.68,-198.52 1764.1,-199.06 1766.75,-205.54"/>
</g>
<!-- Node39 -->
<g id="node39" class="node">
<title>Node39</title>
<g id="a_node39"><a xlink:title=" ">
<polygon fill="none" stroke="#bfbfbf" points="1854,-179.5 1854,-198.5 1901,-198.5 1901,-179.5 1854,-179.5"/>
<text text-anchor="middle" x="1877.5" y="-186.5" font-family="Helvetica,sans-Serif" font-size="10.00">fcntl.h</text>
</a>
</g>
</g>
<!-- Node36&#45;&gt;Node39 -->
<g id="edge45" class="edge">
<title>Node36&#45;&gt;Node39</title>
<path fill="none" stroke="midnightblue" d="M1698.94,-235.44C1733.47,-227.04 1787.71,-213.71 1843.95,-199.1"/>
<polygon fill="midnightblue" stroke="midnightblue" points="1844.93,-202.46 1853.72,-196.55 1843.16,-195.69 1844.93,-202.46"/>
</g>
<!-- Node40 -->
<g id="node40" class="node">
<title>Node40</title>
<g id="a_node40"><a xlink:title=" ">
<polygon fill="none" stroke="#bfbfbf" points="1919,-179.5 1919,-198.5 1972,-198.5 1972,-179.5 1919,-179.5"/>
<text text-anchor="middle" x="1945.5" y="-186.5" font-family="Helvetica,sans-Serif" font-size="10.00">netdb.h</text>
</a>
</g>
</g>
<!-- Node36&#45;&gt;Node40 -->
<g id="edge46" class="edge">
<title>Node36&#45;&gt;Node40</title>
<path fill="none" stroke="midnightblue" d="M1715.52,-235.48C1763.3,-227.43 1836.27,-214.57 1909.01,-198.99"/>
<polygon fill="midnightblue" stroke="midnightblue" points="1909.77,-202.41 1918.81,-196.88 1908.29,-195.56 1909.77,-202.41"/>
</g>
<!-- Node41 -->
<g id="node41" class="node">
<title>Node41</title>
<g id="a_node41"><a xlink:title=" ">
<polygon fill="none" stroke="#bfbfbf" points="1990.5,-179.5 1990.5,-198.5 2062.5,-198.5 2062.5,-179.5 1990.5,-179.5"/>
<text text-anchor="middle" x="2026.5" y="-186.5" font-family="Helvetica,sans-Serif" font-size="10.00">netinet/in.h</text>
</a>
</g>
</g>
<!-- Node36&#45;&gt;Node41 -->
<g id="edge47" class="edge">
<title>Node36&#45;&gt;Node41</title>
<path fill="none" stroke="midnightblue" d="M1730.75,-235.49C1795.03,-227.11 1894.58,-213.49 1980.5,-199 1980.6,-198.98 1980.7,-198.97 1980.8,-198.95"/>
<polygon fill="midnightblue" stroke="midnightblue" points="1981.14,-202.44 1990.37,-197.25 1979.92,-195.55 1981.14,-202.44"/>
</g>
<!-- Node42 -->
<g id="node42" class="node">
<title>Node42</title>
<g id="a_node42"><a xlink:title=" ">
<polygon fill="none" stroke="#bfbfbf" points="2080.5,-179.5 2080.5,-198.5 2158.5,-198.5 2158.5,-179.5 2080.5,-179.5"/>
<text text-anchor="middle" x="2119.5" y="-186.5" font-family="Helvetica,sans-Serif" font-size="10.00">netinet/tcp.h</text>
</a>
</g>
</g>
<!-- Node36&#45;&gt;Node42 -->
<g id="edge48" class="edge">
<title>Node36&#45;&gt;Node42</title>
<path fill="none" stroke="midnightblue" d="M1745.01,-236.84C1825.28,-229.36 1951.58,-216.5 2070.26,-199.09"/>
<polygon fill="midnightblue" stroke="midnightblue" points="2070.87,-202.54 2080.25,-197.61 2069.84,-195.61 2070.87,-202.54"/>
</g>
<!-- Node43 -->
<g id="node43" class="node">
<title>Node43</title>
<g id="a_node43"><a xlink:title=" ">
<polygon fill="none" stroke="#bfbfbf" points="2177,-179.5 2177,-198.5 2230,-198.5 2230,-179.5 2177,-179.5"/>
<text text-anchor="middle" x="2203.5" y="-186.5" font-family="Helvetica,sans-Serif" font-size="10.00">stdint.h</text>
</a>
</g>
</g>
<!-- Node36&#45;&gt;Node43 -->
<g id="edge49" class="edge">
<title>Node36&#45;&gt;Node43</title>
<path fill="none" stroke="midnightblue" d="M1745.18,-240.63C1843.13,-235.7 2012.34,-224.4 2166.72,-198.85"/>
<polygon fill="midnightblue" stroke="midnightblue" points="2167.58,-202.26 2176.86,-197.15 2166.42,-195.36 2167.58,-202.26"/>
</g>
<!-- Node44 -->
<g id="node44" class="node">
<title>Node44</title>
<g id="a_node44"><a xlink:title=" ">
<polygon fill="none" stroke="#bfbfbf" points="1186,-179.5 1186,-198.5 1255,-198.5 1255,-179.5 1186,-179.5"/>
<text text-anchor="middle" x="1220.5" y="-186.5" font-family="Helvetica,sans-Serif" font-size="10.00">sys/epoll.h</text>
</a>
</g>
</g>
<!-- Node36&#45;&gt;Node44 -->
<g id="edge50" class="edge">
<title>Node36&#45;&gt;Node44</title>
<path fill="none" stroke="midnightblue" d="M1581.99,-237.1C1503.24,-229.92 1380.41,-217.35 1265.23,-199.16"/>
<polygon fill="midnightblue" stroke="midnightblue" points="1265.61,-195.67 1255.18,-197.55 1264.5,-202.59 1265.61,-195.67"/>
</g>
<!-- Node45 -->
<g id="node45" class="node">
<title>Node45</title>
<g id="a_node45"><a xlink:title=" ">
<polygon fill="none" stroke="#bfbfbf" points="1273,-179.5 1273,-198.5 1342,-198.5 1342,-179.5 1273,-179.5"/>
<text text-anchor="middle" x="1307.5" y="-186.5" font-family="Helvetica,sans-Serif" font-size="10.00">arpa/inet.h</text>
</a>
</g>
</g>
<!-- Node36&#45;&gt;Node45 -->
<g id="edge51" class="edge">
<title>Node36&#45;&gt;Node45</title>
<path fill="none" stroke="midnightblue" d="M1595.53,-235.49C1534.29,-227.54 1441.57,-214.79 1352.23,-199.22"/>
<polygon fill="midnightblue" stroke="midnightblue" points="1352.65,-195.74 1342.2,-197.46 1351.44,-202.64 1352.65,-195.74"/>
</g>
<!-- Node46 -->
<g id="node46" class="node">
<title>Node46</title>
<g id="a_node46"><a xlink:title=" ">
<polygon fill="none" stroke="#bfbfbf" points="1360,-179.5 1360,-198.5 1437,-198.5 1437,-179.5 1360,-179.5"/>
<text text-anchor="middle" x="1398.5" y="-186.5" font-family="Helvetica,sans-Serif" font-size="10.00">sys/socket.h</text>
</a>
</g>
</g>
<!-- Node36&#45;&gt;Node46 -->
<g id="edge52" class="edge">
<title>Node36&#45;&gt;Node46</title>
<path fill="none" stroke="midnightblue" d="M1621.51,-235.44C1574.13,-225.79 1497.18,-210.11 1447.2,-199.92"/>
<polygon fill="midnightblue" stroke="midnightblue" points="1447.77,-196.47 1437.28,-197.9 1446.38,-203.33 1447.77,-196.47"/>
</g>
<!-- Node47 -->
<g id="node47" class="node">
<title>Node47</title>
<g id="a_node47"><a xlink:title=" ">
<polygon fill="none" stroke="#bfbfbf" points="1455.5,-179.5 1455.5,-198.5 1527.5,-198.5 1527.5,-179.5 1455.5,-179.5"/>
<text text-anchor="middle" x="1491.5" y="-186.5" font-family="Helvetica,sans-Serif" font-size="10.00">sys/types.h</text>
</a>
</g>
</g>
<!-- Node36&#45;&gt;Node47 -->
<g id="edge53" class="edge">
<title>Node36&#45;&gt;Node47</title>
<path fill="none" stroke="midnightblue" d="M1636.25,-235.44C1607.06,-226.28 1560.58,-211.69 1528.19,-201.52"/>
<polygon fill="midnightblue" stroke="midnightblue" points="1529.22,-198.17 1518.63,-198.52 1527.12,-204.85 1529.22,-198.17"/>
</g>
<!-- Node48 -->
<g id="node48" class="node">
<title>Node48</title>
<g id="a_node48"><a xlink:title=" ">
<polygon fill="none" stroke="#bfbfbf" points="1545.5,-179.5 1545.5,-198.5 1601.5,-198.5 1601.5,-179.5 1545.5,-179.5"/>
<text text-anchor="middle" x="1573.5" y="-186.5" font-family="Helvetica,sans-Serif" font-size="10.00">unistd.h</text>
</a>
</g>
</g>
<!-- Node36&#45;&gt;Node48 -->
<g id="edge54" class="edge">
<title>Node36&#45;&gt;Node48</title>
<path fill="none" stroke="midnightblue" d="M1649.04,-235.32C1635,-226.9 1613.45,-213.97 1596.96,-204.07"/>
<polygon fill="midnightblue" stroke="midnightblue" points="1598.3,-200.8 1587.92,-198.65 1594.7,-206.8 1598.3,-200.8"/>
</g>
</g>
</svg>
