<?xml version="1.0" encoding="UTF-8" standalone="no"?>
<!DOCTYPE svg PUBLIC "-//W3C//DTD SVG 1.1//EN"
 "http://www.w3.org/Graphics/SVG/1.1/DTD/svg11.dtd">
<!-- Generated by graphviz version 3.0.0 (20220226.1711)
 -->
<!-- Title: YouTubeAPI.hpp Pages: 1 -->
<svg width="2195pt" height="487pt"
 viewBox="0.00 0.00 2194.50 487.00" xmlns="http://www.w3.org/2000/svg" xmlns:xlink="http://www.w3.org/1999/xlink">
<g id="graph0" class="graph" transform="scale(1 1) rotate(0) translate(4 483)">
<title>YouTubeAPI.hpp</title>
<!-- Node1 -->
<g id="node1" class="node">
<title>Node1</title>
<g id="a_node1"><a xlink:title=" ">
<polygon fill="#bfbfbf" stroke="black" points="788,-459.5 788,-478.5 877,-478.5 877,-459.5 788,-459.5"/>
<text text-anchor="middle" x="832.5" y="-466.5" font-family="Helvetica,sans-Serif" font-size="10.00">YouTubeAPI.hpp</text>
</a>
</g>
</g>
<!-- Node2 -->
<g id="node2" class="node">
<title>Node2</title>
<g id="a_node2"><a xlink:href="../../d4/d9b/a00680.html" target="_top" xlink:title=" ">
<polygon fill="none" stroke="black" points="609.5,-235.5 609.5,-254.5 771.5,-254.5 771.5,-235.5 609.5,-235.5"/>
<text text-anchor="middle" x="690.5" y="-242.5" font-family="Helvetica,sans-Serif" font-size="10.00">discordcoreapi/AudioDecoder.hpp</text>
</a>
</g>
</g>
<!-- Node1&#45;&gt;Node2 -->
<g id="edge1" class="edge">
<title>Node1&#45;&gt;Node2</title>
<path fill="none" stroke="midnightblue" d="M806.25,-459.38C788.26,-452.24 765.11,-440.42 750.5,-423 710.6,-375.42 696.83,-300.07 692.41,-265.05"/>
<polygon fill="midnightblue" stroke="midnightblue" points="695.86,-264.36 691.25,-254.82 688.9,-265.15 695.86,-264.36"/>
</g>
<!-- Node4 -->
<g id="node4" class="node">
<title>Node4</title>
<g id="a_node4"><a xlink:href="../../d4/deb/a00710.html" target="_top" xlink:title=" ">
<polygon fill="none" stroke="black" points="825,-112.5 825,-142.5 956,-142.5 956,-112.5 825,-112.5"/>
<text text-anchor="start" x="833" y="-130.5" font-family="Helvetica,sans-Serif" font-size="10.00">discordcoreapi/Foundation</text>
<text text-anchor="middle" x="890.5" y="-119.5" font-family="Helvetica,sans-Serif" font-size="10.00">Entities.hpp</text>
</a>
</g>
</g>
<!-- Node1&#45;&gt;Node4 -->
<g id="edge56" class="edge">
<title>Node1&#45;&gt;Node4</title>
<path fill="none" stroke="midnightblue" d="M787.73,-465.08C683.91,-457.09 435.5,-430.41 435.5,-358 435.5,-358 435.5,-358 435.5,-244 435.5,-213.9 431.5,-198.41 454.5,-179 507.38,-134.39 704.6,-127.65 814.79,-127.51"/>
<polygon fill="midnightblue" stroke="midnightblue" points="814.85,-131.01 824.85,-127.52 814.85,-124.01 814.85,-131.01"/>
</g>
<!-- Node32 -->
<g id="node32" class="node">
<title>Node32</title>
<g id="a_node32"><a xlink:href="../../db/d77/a00683.html" target="_top" xlink:title=" ">
<polygon fill="none" stroke="black" points="1465.5,-403.5 1465.5,-422.5 1627.5,-422.5 1627.5,-403.5 1465.5,-403.5"/>
<text text-anchor="middle" x="1546.5" y="-410.5" font-family="Helvetica,sans-Serif" font-size="10.00">discordcoreapi/AudioEncoder.hpp</text>
</a>
</g>
</g>
<!-- Node1&#45;&gt;Node32 -->
<g id="edge32" class="edge">
<title>Node1&#45;&gt;Node32</title>
<path fill="none" stroke="midnightblue" d="M877.16,-464.62C992.14,-455.93 1300.1,-432.64 1454.95,-420.92"/>
<polygon fill="midnightblue" stroke="midnightblue" points="1455.67,-424.38 1465.37,-420.14 1455.14,-417.4 1455.67,-424.38"/>
</g>
<!-- Node34 -->
<g id="node34" class="node">
<title>Node34</title>
<g id="a_node34"><a xlink:href="../../d5/d5b/a00695.html" target="_top" xlink:title=" ">
<polygon fill="none" stroke="black" points="759.5,-403.5 759.5,-422.5 905.5,-422.5 905.5,-403.5 759.5,-403.5"/>
<text text-anchor="middle" x="832.5" y="-410.5" font-family="Helvetica,sans-Serif" font-size="10.00">discordcoreapi/CoRoutine.hpp</text>
</a>
</g>
</g>
<!-- Node1&#45;&gt;Node34 -->
<g id="edge35" class="edge">
<title>Node1&#45;&gt;Node34</title>
<path fill="none" stroke="midnightblue" d="M832.5,-459.08C832.5,-452.01 832.5,-441.86 832.5,-432.99"/>
<polygon fill="midnightblue" stroke="midnightblue" points="836,-432.75 832.5,-422.75 829,-432.75 836,-432.75"/>
</g>
<!-- Node50 -->
<g id="node50" class="node">
<title>Node50</title>
<g id="a_node50"><a xlink:title=" ">
<polygon fill="none" stroke="#bfbfbf" points="1646,-403.5 1646,-422.5 1687,-422.5 1687,-403.5 1646,-403.5"/>
<text text-anchor="middle" x="1666.5" y="-410.5" font-family="Helvetica,sans-Serif" font-size="10.00">regex</text>
</a>
</g>
</g>
<!-- Node1&#45;&gt;Node50 -->
<g id="edge57" class="edge">
<title>Node1&#45;&gt;Node50</title>
<path fill="none" stroke="midnightblue" d="M877.14,-466.89C1020.62,-463.09 1469.79,-449.5 1635.94,-422.56"/>
<polygon fill="midnightblue" stroke="midnightblue" points="1636.72,-425.97 1646,-420.85 1635.55,-419.07 1636.72,-425.97"/>
</g>
<!-- Node3 -->
<g id="node3" class="node">
<title>Node3</title>
<g id="a_node3"><a xlink:href="../../d4/d6a/a00704.html" target="_top" xlink:title=" ">
<polygon fill="none" stroke="black" points="865.5,-179.5 865.5,-198.5 1023.5,-198.5 1023.5,-179.5 865.5,-179.5"/>
<text text-anchor="middle" x="944.5" y="-186.5" font-family="Helvetica,sans-Serif" font-size="10.00">discordcoreapi/EventEntities.hpp</text>
</a>
</g>
</g>
<!-- Node2&#45;&gt;Node3 -->
<g id="edge2" class="edge">
<title>Node2&#45;&gt;Node3</title>
<path fill="none" stroke="midnightblue" d="M730.75,-235.44C775.15,-226 846.65,-210.8 894.59,-200.61"/>
<polygon fill="midnightblue" stroke="midnightblue" points="895.39,-204.02 904.44,-198.52 893.93,-197.17 895.39,-204.02"/>
</g>
<!-- Node2&#45;&gt;Node4 -->
<g id="edge29" class="edge">
<title>Node2&#45;&gt;Node4</title>
<path fill="none" stroke="midnightblue" d="M701.83,-235.41C719.28,-222.38 754.01,-197.2 785.5,-179 805.82,-167.25 829.28,-155.78 848.87,-146.75"/>
<polygon fill="midnightblue" stroke="midnightblue" points="850.5,-149.85 858.15,-142.52 847.6,-143.49 850.5,-149.85"/>
</g>
<!-- Node30 -->
<g id="node30" class="node">
<title>Node30</title>
<g id="a_node30"><a xlink:title=" ">
<polygon fill="none" stroke="#bfbfbf" points="623.5,-179.5 623.5,-198.5 733.5,-198.5 733.5,-179.5 623.5,-179.5"/>
<text text-anchor="middle" x="678.5" y="-186.5" font-family="Helvetica,sans-Serif" font-size="10.00">libavformat/avformat.h</text>
</a>
</g>
</g>
<!-- Node2&#45;&gt;Node30 -->
<g id="edge30" class="edge">
<title>Node2&#45;&gt;Node30</title>
<path fill="none" stroke="midnightblue" d="M688.52,-235.08C686.93,-227.93 684.64,-217.64 682.65,-208.69"/>
<polygon fill="midnightblue" stroke="midnightblue" points="686.03,-207.75 680.44,-198.75 679.2,-209.27 686.03,-207.75"/>
</g>
<!-- Node31 -->
<g id="node31" class="node">
<title>Node31</title>
<g id="a_node31"><a xlink:title=" ">
<polygon fill="none" stroke="#bfbfbf" points="464,-179.5 464,-198.5 605,-198.5 605,-179.5 464,-179.5"/>
<text text-anchor="middle" x="534.5" y="-186.5" font-family="Helvetica,sans-Serif" font-size="10.00">libswresample/swresample.h</text>
</a>
</g>
</g>
<!-- Node2&#45;&gt;Node31 -->
<g id="edge31" class="edge">
<title>Node2&#45;&gt;Node31</title>
<path fill="none" stroke="midnightblue" d="M665.78,-235.44C639.65,-226.4 598.24,-212.06 568.92,-201.92"/>
<polygon fill="midnightblue" stroke="midnightblue" points="569.7,-198.48 559.1,-198.52 567.41,-205.1 569.7,-198.48"/>
</g>
<!-- Node3&#45;&gt;Node4 -->
<g id="edge3" class="edge">
<title>Node3&#45;&gt;Node4</title>
<path fill="none" stroke="midnightblue" d="M936.76,-179.48C929.79,-171.79 919.24,-160.17 909.98,-149.96"/>
<polygon fill="midnightblue" stroke="midnightblue" points="912.54,-147.58 903.23,-142.52 907.36,-152.28 912.54,-147.58"/>
</g>
<!-- Node5 -->
<g id="node5" class="node">
<title>Node5</title>
<g id="a_node5"><a xlink:href="../../d5/dae/a00767.html" target="_top" xlink:title=" ">
<polygon fill="none" stroke="black" points="904.5,-56.5 904.5,-75.5 1038.5,-75.5 1038.5,-56.5 904.5,-56.5"/>
<text text-anchor="middle" x="971.5" y="-63.5" font-family="Helvetica,sans-Serif" font-size="10.00">discordcoreapi/Utilities.hpp</text>
</a>
</g>
</g>
<!-- Node4&#45;&gt;Node5 -->
<g id="edge4" class="edge">
<title>Node4&#45;&gt;Node5</title>
<path fill="none" stroke="midnightblue" d="M909.7,-112.4C922.32,-103.13 938.79,-91.03 951.56,-81.65"/>
<polygon fill="midnightblue" stroke="midnightblue" points="953.73,-84.4 959.71,-75.66 949.58,-78.76 953.73,-84.4"/>
</g>
<!-- Node6 -->
<g id="node6" class="node">
<title>Node6</title>
<g id="a_node6"><a xlink:title=" ">
<polygon fill="none" stroke="#bfbfbf" points="1506,-0.5 1506,-19.5 1563,-19.5 1563,-0.5 1506,-0.5"/>
<text text-anchor="middle" x="1534.5" y="-7.5" font-family="Helvetica,sans-Serif" font-size="10.00">pthread.h</text>
</a>
</g>
</g>
<!-- Node5&#45;&gt;Node6 -->
<g id="edge5" class="edge">
<title>Node5&#45;&gt;Node6</title>
<path fill="none" stroke="midnightblue" d="M1038.6,-62.41C1136.89,-57.91 1325.87,-46.63 1496.07,-19.81"/>
<polygon fill="midnightblue" stroke="midnightblue" points="1496.63,-23.27 1505.96,-18.24 1495.53,-16.36 1496.63,-23.27"/>
</g>
<!-- Node7 -->
<g id="node7" class="node">
<title>Node7</title>
<g id="a_node7"><a xlink:title=" ">
<polygon fill="none" stroke="#bfbfbf" points="1581.5,-0.5 1581.5,-19.5 1643.5,-19.5 1643.5,-0.5 1581.5,-0.5"/>
<text text-anchor="middle" x="1612.5" y="-7.5" font-family="Helvetica,sans-Serif" font-size="10.00">sys/time.h</text>
</a>
</g>
</g>
<!-- Node5&#45;&gt;Node7 -->
<g id="edge6" class="edge">
<title>Node5&#45;&gt;Node7</title>
<path fill="none" stroke="midnightblue" d="M1038.56,-63.18C1148.12,-59.51 1372.41,-49.06 1571.1,-20"/>
<polygon fill="midnightblue" stroke="midnightblue" points="1571.76,-23.44 1581.14,-18.51 1570.73,-16.52 1571.76,-23.44"/>
</g>
<!-- Node8 -->
<g id="node8" class="node">
<title>Node8</title>
<g id="a_node8"><a xlink:title=" ">
<polygon fill="none" stroke="#bfbfbf" points="1661.5,-0.5 1661.5,-19.5 1705.5,-19.5 1705.5,-0.5 1661.5,-0.5"/>
<text text-anchor="middle" x="1683.5" y="-7.5" font-family="Helvetica,sans-Serif" font-size="10.00">time.h</text>
</a>
</g>
</g>
<!-- Node5&#45;&gt;Node8 -->
<g id="edge7" class="edge">
<title>Node5&#45;&gt;Node8</title>
<path fill="none" stroke="midnightblue" d="M1038.77,-65.36C1159.85,-64.95 1422.36,-59.31 1651.11,-19.86"/>
<polygon fill="midnightblue" stroke="midnightblue" points="1652.04,-23.25 1661.29,-18.07 1650.83,-16.35 1652.04,-23.25"/>
</g>
<!-- Node9 -->
<g id="node9" class="node">
<title>Node9</title>
<g id="a_node9"><a xlink:title=" ">
<polygon fill="none" stroke="#bfbfbf" points="0,-0.5 0,-19.5 41,-19.5 41,-0.5 0,-0.5"/>
<text text-anchor="middle" x="20.5" y="-7.5" font-family="Helvetica,sans-Serif" font-size="10.00">ctime</text>
</a>
</g>
</g>
<!-- Node5&#45;&gt;Node9 -->
<g id="edge8" class="edge">
<title>Node5&#45;&gt;Node9</title>
<path fill="none" stroke="midnightblue" d="M904.39,-63.92C724.33,-60.67 232.53,-49.45 51.2,-19.83"/>
<polygon fill="midnightblue" stroke="midnightblue" points="51.7,-16.36 41.25,-18.13 50.52,-23.26 51.7,-16.36"/>
</g>
<!-- Node10 -->
<g id="node10" class="node">
<title>Node10</title>
<g id="a_node10"><a xlink:title=" ">
<polygon fill="none" stroke="#bfbfbf" points="59,-0.5 59,-19.5 152,-19.5 152,-0.5 59,-0.5"/>
<text text-anchor="middle" x="105.5" y="-7.5" font-family="Helvetica,sans-Serif" font-size="10.00">condition_variable</text>
</a>
</g>
</g>
<!-- Node5&#45;&gt;Node10 -->
<g id="edge9" class="edge">
<title>Node5&#45;&gt;Node10</title>
<path fill="none" stroke="midnightblue" d="M904.37,-63.63C767.01,-60.31 443.82,-49.87 162.2,-19.95"/>
<polygon fill="midnightblue" stroke="midnightblue" points="162.52,-16.46 152.2,-18.88 161.77,-23.42 162.52,-16.46"/>
</g>
<!-- Node11 -->
<g id="node11" class="node">
<title>Node11</title>
<g id="a_node11"><a xlink:title=" ">
<polygon fill="none" stroke="#bfbfbf" points="170.5,-0.5 170.5,-19.5 268.5,-19.5 268.5,-0.5 170.5,-0.5"/>
<text text-anchor="middle" x="219.5" y="-7.5" font-family="Helvetica,sans-Serif" font-size="10.00">nlohmann/json.hpp</text>
</a>
</g>
</g>
<!-- Node5&#45;&gt;Node11 -->
<g id="edge10" class="edge">
<title>Node5&#45;&gt;Node11</title>
<path fill="none" stroke="midnightblue" d="M904.33,-62.64C781.98,-57.9 514.45,-45.52 278.65,-20.03"/>
<polygon fill="midnightblue" stroke="midnightblue" points="278.83,-16.52 268.51,-18.92 278.07,-23.48 278.83,-16.52"/>
</g>
<!-- Node12 -->
<g id="node12" class="node">
<title>Node12</title>
<g id="a_node12"><a xlink:title=" ">
<polygon fill="none" stroke="#bfbfbf" points="287,-0.5 287,-19.5 372,-19.5 372,-0.5 287,-0.5"/>
<text text-anchor="middle" x="329.5" y="-7.5" font-family="Helvetica,sans-Serif" font-size="10.00">source_location</text>
</a>
</g>
</g>
<!-- Node5&#45;&gt;Node12 -->
<g id="edge11" class="edge">
<title>Node5&#45;&gt;Node12</title>
<path fill="none" stroke="midnightblue" d="M904.37,-62.05C796.39,-56.83 577.28,-44.27 382.18,-20.1"/>
<polygon fill="midnightblue" stroke="midnightblue" points="382.39,-16.6 372.03,-18.83 381.52,-23.54 382.39,-16.6"/>
</g>
<!-- Node13 -->
<g id="node13" class="node">
<title>Node13</title>
<g id="a_node13"><a xlink:title=" ">
<polygon fill="none" stroke="#bfbfbf" points="390,-0.5 390,-19.5 473,-19.5 473,-0.5 390,-0.5"/>
<text text-anchor="middle" x="431.5" y="-7.5" font-family="Helvetica,sans-Serif" font-size="10.00">unordered_map</text>
</a>
</g>
</g>
<!-- Node5&#45;&gt;Node13 -->
<g id="edge12" class="edge">
<title>Node5&#45;&gt;Node13</title>
<path fill="none" stroke="midnightblue" d="M904.47,-60.6C812.1,-54.14 640.28,-40.72 483.51,-20.02"/>
<polygon fill="midnightblue" stroke="midnightblue" points="483.58,-16.5 473.2,-18.65 482.65,-23.44 483.58,-16.5"/>
</g>
<!-- Node14 -->
<g id="node14" class="node">
<title>Node14</title>
<g id="a_node14"><a xlink:title=" ">
<polygon fill="none" stroke="#bfbfbf" points="491.5,-0.5 491.5,-19.5 569.5,-19.5 569.5,-0.5 491.5,-0.5"/>
<text text-anchor="middle" x="530.5" y="-7.5" font-family="Helvetica,sans-Serif" font-size="10.00">shared_mutex</text>
</a>
</g>
</g>
<!-- Node5&#45;&gt;Node14 -->
<g id="edge13" class="edge">
<title>Node5&#45;&gt;Node14</title>
<path fill="none" stroke="midnightblue" d="M904.2,-58.77C827.93,-51.37 699.67,-37.94 579.84,-20.11"/>
<polygon fill="midnightblue" stroke="midnightblue" points="580.16,-16.62 569.75,-18.6 579.12,-23.54 580.16,-16.62"/>
</g>
<!-- Node15 -->
<g id="node15" class="node">
<title>Node15</title>
<g id="a_node15"><a xlink:title=" ">
<polygon fill="none" stroke="#bfbfbf" points="587.5,-0.5 587.5,-19.5 645.5,-19.5 645.5,-0.5 587.5,-0.5"/>
<text text-anchor="middle" x="616.5" y="-7.5" font-family="Helvetica,sans-Serif" font-size="10.00">functional</text>
</a>
</g>
</g>
<!-- Node5&#45;&gt;Node15 -->
<g id="edge14" class="edge">
<title>Node5&#45;&gt;Node15</title>
<path fill="none" stroke="midnightblue" d="M904.42,-57.29C842.32,-49.73 747.23,-37.13 655.87,-20.12"/>
<polygon fill="midnightblue" stroke="midnightblue" points="656.38,-16.65 645.9,-18.24 655.08,-23.53 656.38,-16.65"/>
</g>
<!-- Node16 -->
<g id="node16" class="node">
<title>Node16</title>
<g id="a_node16"><a xlink:title=" ">
<polygon fill="none" stroke="#bfbfbf" points="663.5,-0.5 663.5,-19.5 719.5,-19.5 719.5,-0.5 663.5,-0.5"/>
<text text-anchor="middle" x="691.5" y="-7.5" font-family="Helvetica,sans-Serif" font-size="10.00">coroutine</text>
</a>
</g>
</g>
<!-- Node5&#45;&gt;Node16 -->
<g id="edge15" class="edge">
<title>Node5&#45;&gt;Node16</title>
<path fill="none" stroke="midnightblue" d="M920.61,-56.42C873.54,-48.3 801.42,-35.37 729.84,-20.2"/>
<polygon fill="midnightblue" stroke="midnightblue" points="730.26,-16.71 719.74,-18.04 728.79,-23.55 730.26,-16.71"/>
</g>
<!-- Node17 -->
<g id="node17" class="node">
<title>Node17</title>
<g id="a_node17"><a xlink:title=" ">
<polygon fill="none" stroke="#bfbfbf" points="1938,-0.5 1938,-19.5 2003,-19.5 2003,-0.5 1938,-0.5"/>
<text text-anchor="middle" x="1970.5" y="-7.5" font-family="Helvetica,sans-Serif" font-size="10.00">semaphore</text>
</a>
</g>
</g>
<!-- Node5&#45;&gt;Node17 -->
<g id="edge16" class="edge">
<title>Node5&#45;&gt;Node17</title>
<path fill="none" stroke="midnightblue" d="M1038.6,-61.37C1229.33,-51.06 1770.96,-21.79 1927.59,-13.32"/>
<polygon fill="midnightblue" stroke="midnightblue" points="1927.97,-16.8 1937.76,-12.77 1927.59,-9.81 1927.97,-16.8"/>
</g>
<!-- Node18 -->
<g id="node18" class="node">
<title>Node18</title>
<g id="a_node18"><a xlink:title=" ">
<polygon fill="none" stroke="#bfbfbf" points="737.5,-0.5 737.5,-19.5 793.5,-19.5 793.5,-0.5 737.5,-0.5"/>
<text text-anchor="middle" x="765.5" y="-7.5" font-family="Helvetica,sans-Serif" font-size="10.00">concepts</text>
</a>
</g>
</g>
<!-- Node5&#45;&gt;Node18 -->
<g id="edge17" class="edge">
<title>Node5&#45;&gt;Node18</title>
<path fill="none" stroke="midnightblue" d="M938.86,-56.44C902.1,-46.81 842.43,-31.17 803.57,-20.98"/>
<polygon fill="midnightblue" stroke="midnightblue" points="804.25,-17.54 793.69,-18.39 802.47,-24.31 804.25,-17.54"/>
</g>
<!-- Node19 -->
<g id="node19" class="node">
<title>Node19</title>
<g id="a_node19"><a xlink:title=" ">
<polygon fill="none" stroke="#bfbfbf" points="811.5,-0.5 811.5,-19.5 865.5,-19.5 865.5,-0.5 811.5,-0.5"/>
<text text-anchor="middle" x="838.5" y="-7.5" font-family="Helvetica,sans-Serif" font-size="10.00">iostream</text>
</a>
</g>
</g>
<!-- Node5&#45;&gt;Node19 -->
<g id="edge18" class="edge">
<title>Node5&#45;&gt;Node19</title>
<path fill="none" stroke="midnightblue" d="M950.43,-56.44C928.44,-47.52 893.77,-33.44 868.84,-23.32"/>
<polygon fill="midnightblue" stroke="midnightblue" points="870.06,-20.04 859.48,-19.52 867.42,-26.52 870.06,-20.04"/>
</g>
<!-- Node20 -->
<g id="node20" class="node">
<title>Node20</title>
<g id="a_node20"><a xlink:title=" ">
<polygon fill="none" stroke="#bfbfbf" points="884,-0.5 884,-19.5 933,-19.5 933,-0.5 884,-0.5"/>
<text text-anchor="middle" x="908.5" y="-7.5" font-family="Helvetica,sans-Serif" font-size="10.00">fstream</text>
</a>
</g>
</g>
<!-- Node5&#45;&gt;Node20 -->
<g id="edge19" class="edge">
<title>Node5&#45;&gt;Node20</title>
<path fill="none" stroke="midnightblue" d="M961.38,-56.32C951.97,-48.26 937.76,-36.08 926.43,-26.37"/>
<polygon fill="midnightblue" stroke="midnightblue" points="928.68,-23.68 918.81,-19.83 924.12,-29 928.68,-23.68"/>
</g>
<!-- Node21 -->
<g id="node21" class="node">
<title>Node21</title>
<g id="a_node21"><a xlink:title=" ">
<polygon fill="none" stroke="#bfbfbf" points="951,-0.5 951,-19.5 992,-19.5 992,-0.5 951,-0.5"/>
<text text-anchor="middle" x="971.5" y="-7.5" font-family="Helvetica,sans-Serif" font-size="10.00">bitset</text>
</a>
</g>
</g>
<!-- Node5&#45;&gt;Node21 -->
<g id="edge20" class="edge">
<title>Node5&#45;&gt;Node21</title>
<path fill="none" stroke="midnightblue" d="M971.5,-56.08C971.5,-49.01 971.5,-38.86 971.5,-29.99"/>
<polygon fill="midnightblue" stroke="midnightblue" points="975,-29.75 971.5,-19.75 968,-29.75 975,-29.75"/>
</g>
<!-- Node22 -->
<g id="node22" class="node">
<title>Node22</title>
<g id="a_node22"><a xlink:title=" ">
<polygon fill="none" stroke="#bfbfbf" points="1010.5,-0.5 1010.5,-19.5 1062.5,-19.5 1062.5,-0.5 1010.5,-0.5"/>
<text text-anchor="middle" x="1036.5" y="-7.5" font-family="Helvetica,sans-Serif" font-size="10.00">memory</text>
</a>
</g>
</g>
<!-- Node5&#45;&gt;Node22 -->
<g id="edge21" class="edge">
<title>Node5&#45;&gt;Node22</title>
<path fill="none" stroke="midnightblue" d="M981.94,-56.32C991.65,-48.26 1006.32,-36.08 1018,-26.37"/>
<polygon fill="midnightblue" stroke="midnightblue" points="1020.41,-28.92 1025.87,-19.83 1015.94,-23.53 1020.41,-28.92"/>
</g>
<!-- Node23 -->
<g id="node23" class="node">
<title>Node23</title>
<g id="a_node23"><a xlink:title=" ">
<polygon fill="none" stroke="#bfbfbf" points="1081,-0.5 1081,-19.5 1130,-19.5 1130,-0.5 1081,-0.5"/>
<text text-anchor="middle" x="1105.5" y="-7.5" font-family="Helvetica,sans-Serif" font-size="10.00">random</text>
</a>
</g>
</g>
<!-- Node5&#45;&gt;Node23 -->
<g id="edge22" class="edge">
<title>Node5&#45;&gt;Node23</title>
<path fill="none" stroke="midnightblue" d="M992.73,-56.44C1014.88,-47.52 1049.82,-33.44 1074.94,-23.32"/>
<polygon fill="midnightblue" stroke="midnightblue" points="1076.4,-26.5 1084.37,-19.52 1073.78,-20.01 1076.4,-26.5"/>
</g>
<!-- Node24 -->
<g id="node24" class="node">
<title>Node24</title>
<g id="a_node24"><a xlink:title=" ">
<polygon fill="none" stroke="#bfbfbf" points="1148,-0.5 1148,-19.5 1189,-19.5 1189,-0.5 1148,-0.5"/>
<text text-anchor="middle" x="1168.5" y="-7.5" font-family="Helvetica,sans-Serif" font-size="10.00">string</text>
</a>
</g>
</g>
<!-- Node5&#45;&gt;Node24 -->
<g id="edge23" class="edge">
<title>Node5&#45;&gt;Node24</title>
<path fill="none" stroke="midnightblue" d="M1004.22,-56.48C1035.96,-48.14 1085.74,-34.9 1138.07,-20.06"/>
<polygon fill="midnightblue" stroke="midnightblue" points="1139.21,-23.38 1147.87,-17.27 1137.29,-16.65 1139.21,-23.38"/>
</g>
<!-- Node25 -->
<g id="node25" class="node">
<title>Node25</title>
<g id="a_node25"><a xlink:title=" ">
<polygon fill="none" stroke="#bfbfbf" points="1207.5,-0.5 1207.5,-19.5 1249.5,-19.5 1249.5,-0.5 1207.5,-0.5"/>
<text text-anchor="middle" x="1228.5" y="-7.5" font-family="Helvetica,sans-Serif" font-size="10.00">vector</text>
</a>
</g>
</g>
<!-- Node5&#45;&gt;Node25 -->
<g id="edge24" class="edge">
<title>Node5&#45;&gt;Node25</title>
<path fill="none" stroke="midnightblue" d="M1020.7,-56.46C1066.67,-48.19 1137.07,-34.76 1197.5,-20 1197.6,-19.98 1197.7,-19.95 1197.8,-19.93"/>
<polygon fill="midnightblue" stroke="midnightblue" points="1198.44,-23.38 1207.22,-17.44 1196.66,-16.61 1198.44,-23.38"/>
</g>
<!-- Node26 -->
<g id="node26" class="node">
<title>Node26</title>
<g id="a_node26"><a xlink:title=" ">
<polygon fill="none" stroke="#bfbfbf" points="1267.5,-0.5 1267.5,-19.5 1311.5,-19.5 1311.5,-0.5 1267.5,-0.5"/>
<text text-anchor="middle" x="1289.5" y="-7.5" font-family="Helvetica,sans-Serif" font-size="10.00">thread</text>
</a>
</g>
</g>
<!-- Node5&#45;&gt;Node26 -->
<g id="edge25" class="edge">
<title>Node5&#45;&gt;Node26</title>
<path fill="none" stroke="midnightblue" d="M1038.64,-56.93C1094.81,-49.61 1177.18,-37.59 1257.46,-20"/>
<polygon fill="midnightblue" stroke="midnightblue" points="1258.23,-23.42 1267.24,-17.83 1256.72,-16.58 1258.23,-23.42"/>
</g>
<!-- Node27 -->
<g id="node27" class="node">
<title>Node27</title>
<g id="a_node27"><a xlink:title=" ">
<polygon fill="none" stroke="#bfbfbf" points="1329.5,-0.5 1329.5,-19.5 1373.5,-19.5 1373.5,-0.5 1329.5,-0.5"/>
<text text-anchor="middle" x="1351.5" y="-7.5" font-family="Helvetica,sans-Serif" font-size="10.00">mutex</text>
</a>
</g>
</g>
<!-- Node5&#45;&gt;Node27 -->
<g id="edge26" class="edge">
<title>Node5&#45;&gt;Node27</title>
<path fill="none" stroke="midnightblue" d="M1038.59,-59.45C1107.03,-53.09 1216.37,-41 1319.31,-19.97"/>
<polygon fill="midnightblue" stroke="midnightblue" points="1320.17,-23.36 1329.25,-17.9 1318.75,-16.51 1320.17,-23.36"/>
</g>
<!-- Node28 -->
<g id="node28" class="node">
<title>Node28</title>
<g id="a_node28"><a xlink:title=" ">
<polygon fill="none" stroke="#bfbfbf" points="1392,-0.5 1392,-19.5 1435,-19.5 1435,-0.5 1392,-0.5"/>
<text text-anchor="middle" x="1413.5" y="-7.5" font-family="Helvetica,sans-Serif" font-size="10.00">queue</text>
</a>
</g>
</g>
<!-- Node5&#45;&gt;Node28 -->
<g id="edge27" class="edge">
<title>Node5&#45;&gt;Node28</title>
<path fill="none" stroke="midnightblue" d="M1038.6,-61.24C1118.34,-55.97 1255.45,-44.38 1382.06,-19.73"/>
<polygon fill="midnightblue" stroke="midnightblue" points="1382.81,-23.15 1391.94,-17.78 1381.45,-16.29 1382.81,-23.15"/>
</g>
<!-- Node29 -->
<g id="node29" class="node">
<title>Node29</title>
<g id="a_node29"><a xlink:title=" ">
<polygon fill="none" stroke="#bfbfbf" points="1453,-0.5 1453,-19.5 1488,-19.5 1488,-0.5 1453,-0.5"/>
<text text-anchor="middle" x="1470.5" y="-7.5" font-family="Helvetica,sans-Serif" font-size="10.00">map</text>
</a>
</g>
</g>
<!-- Node5&#45;&gt;Node29 -->
<g id="edge28" class="edge">
<title>Node5&#45;&gt;Node29</title>
<path fill="none" stroke="midnightblue" d="M1038.66,-63.37C1128.87,-60.13 1294.07,-50.49 1443.14,-19.56"/>
<polygon fill="midnightblue" stroke="midnightblue" points="1443.88,-22.98 1452.94,-17.49 1442.43,-16.13 1443.88,-22.98"/>
</g>
<!-- Node32&#45;&gt;Node4 -->
<g id="edge33" class="edge">
<title>Node32&#45;&gt;Node4</title>
<path fill="none" stroke="midnightblue" d="M1627.64,-403.84C1778.84,-387.53 2088.5,-348.45 2088.5,-302 2088.5,-302 2088.5,-302 2088.5,-244 2088.5,-205.58 2066.14,-195.63 2031.5,-179 1936.06,-133.19 1205.83,-128.67 966.32,-128.43"/>
<polygon fill="midnightblue" stroke="midnightblue" points="966.31,-124.93 956.3,-128.42 966.3,-131.93 966.31,-124.93"/>
</g>
<!-- Node33 -->
<g id="node33" class="node">
<title>Node33</title>
<g id="a_node33"><a xlink:title=" ">
<polygon fill="none" stroke="#bfbfbf" points="2116.5,-347.5 2116.5,-366.5 2186.5,-366.5 2186.5,-347.5 2116.5,-347.5"/>
<text text-anchor="middle" x="2151.5" y="-354.5" font-family="Helvetica,sans-Serif" font-size="10.00">opus/opus.h</text>
</a>
</g>
</g>
<!-- Node32&#45;&gt;Node33 -->
<g id="edge34" class="edge">
<title>Node32&#45;&gt;Node33</title>
<path fill="none" stroke="midnightblue" d="M1627.86,-403.87C1631.11,-403.57 1634.34,-403.28 1637.5,-403 1843.98,-384.8 1896.95,-393.76 2102.5,-367 2103.75,-366.84 2105.03,-366.66 2106.31,-366.48"/>
<polygon fill="midnightblue" stroke="midnightblue" points="2106.9,-369.93 2116.24,-364.93 2105.82,-363.01 2106.9,-369.93"/>
</g>
<!-- Node34&#45;&gt;Node4 -->
<g id="edge36" class="edge">
<title>Node34&#45;&gt;Node4</title>
<path fill="none" stroke="midnightblue" d="M828.05,-403.42C819.04,-385.24 799.5,-341.28 799.5,-302 799.5,-302 799.5,-302 799.5,-244 799.5,-203.92 833.73,-169.56 860.2,-148.98"/>
<polygon fill="midnightblue" stroke="midnightblue" points="862.56,-151.58 868.47,-142.79 858.37,-145.98 862.56,-151.58"/>
</g>
<!-- Node35 -->
<g id="node35" class="node">
<title>Node35</title>
<g id="a_node35"><a xlink:href="../../d3/d4f/a00761.html" target="_top" xlink:title=" ">
<polygon fill="none" stroke="black" points="827.5,-347.5 827.5,-366.5 977.5,-366.5 977.5,-347.5 827.5,-347.5"/>
<text text-anchor="middle" x="902.5" y="-354.5" font-family="Helvetica,sans-Serif" font-size="10.00">discordcoreapi/ThreadPool.hpp</text>
</a>
</g>
</g>
<!-- Node34&#45;&gt;Node35 -->
<g id="edge37" class="edge">
<title>Node34&#45;&gt;Node35</title>
<path fill="none" stroke="midnightblue" d="M843.75,-403.32C854.3,-395.18 870.3,-382.84 882.94,-373.09"/>
<polygon fill="midnightblue" stroke="midnightblue" points="885.27,-375.71 891.05,-366.83 880.99,-370.17 885.27,-375.71"/>
</g>
<!-- Node35&#45;&gt;Node4 -->
<g id="edge38" class="edge">
<title>Node35&#45;&gt;Node4</title>
<path fill="none" stroke="midnightblue" d="M899.01,-347.34C889.77,-323.93 864.85,-257.2 856.5,-199 855.24,-190.2 853.9,-187.5 856.5,-179 859.57,-168.95 865.38,-159.08 871.35,-150.78"/>
<polygon fill="midnightblue" stroke="midnightblue" points="874.2,-152.81 877.51,-142.75 868.65,-148.55 874.2,-152.81"/>
</g>
<!-- Node36 -->
<g id="node36" class="node">
<title>Node36</title>
<g id="a_node36"><a xlink:href="../../db/d7c/a00722.html" target="_top" xlink:title=" ">
<polygon fill="none" stroke="black" points="1393,-291.5 1393,-310.5 1518,-310.5 1518,-291.5 1393,-291.5"/>
<text text-anchor="middle" x="1455.5" y="-298.5" font-family="Helvetica,sans-Serif" font-size="10.00">discordcoreapi/Https.hpp</text>
</a>
</g>
</g>
<!-- Node35&#45;&gt;Node36 -->
<g id="edge39" class="edge">
<title>Node35&#45;&gt;Node36</title>
<path fill="none" stroke="midnightblue" d="M977.66,-348.66C1084.11,-338.27 1277.55,-319.38 1382.71,-309.11"/>
<polygon fill="midnightblue" stroke="midnightblue" points="1383.3,-312.57 1392.91,-308.11 1382.62,-305.6 1383.3,-312.57"/>
</g>
<!-- Node36&#45;&gt;Node17 -->
<g id="edge55" class="edge">
<title>Node36&#45;&gt;Node17</title>
<path fill="none" stroke="midnightblue" d="M1518.05,-294.96C1670.81,-281.8 2050.5,-243.71 2050.5,-190 2050.5,-190 2050.5,-190 2050.5,-126.5 2050.5,-84.17 2013.74,-46.15 1990.05,-26.06"/>
<polygon fill="midnightblue" stroke="midnightblue" points="1992.26,-23.34 1982.3,-19.72 1987.83,-28.76 1992.26,-23.34"/>
</g>
<!-- Node37 -->
<g id="node37" class="node">
<title>Node37</title>
<g id="a_node37"><a xlink:href="../../d5/de8/a00749.html" target="_top" xlink:title=" ">
<polygon fill="none" stroke="black" points="1380.5,-235.5 1380.5,-254.5 1530.5,-254.5 1530.5,-235.5 1380.5,-235.5"/>
<text text-anchor="middle" x="1455.5" y="-242.5" font-family="Helvetica,sans-Serif" font-size="10.00">discordcoreapi/SSLClients.hpp</text>
</a>
</g>
</g>
<!-- Node36&#45;&gt;Node37 -->
<g id="edge40" class="edge">
<title>Node36&#45;&gt;Node37</title>
<path fill="none" stroke="midnightblue" d="M1455.5,-291.08C1455.5,-284.01 1455.5,-273.86 1455.5,-264.99"/>
<polygon fill="midnightblue" stroke="midnightblue" points="1459,-264.75 1455.5,-254.75 1452,-264.75 1459,-264.75"/>
</g>
<!-- Node37&#45;&gt;Node3 -->
<g id="edge52" class="edge">
<title>Node37&#45;&gt;Node3</title>
<path fill="none" stroke="midnightblue" d="M1380.37,-236.06C1288.2,-226.32 1132.11,-209.83 1033.87,-199.44"/>
<polygon fill="midnightblue" stroke="midnightblue" points="1033.98,-195.94 1023.67,-198.37 1033.24,-202.9 1033.98,-195.94"/>
</g>
<!-- Node37&#45;&gt;Node4 -->
<g id="edge51" class="edge">
<title>Node37&#45;&gt;Node4</title>
<path fill="none" stroke="midnightblue" d="M1380.38,-243.31C1301.54,-240.74 1174.8,-231.31 1070.5,-199 1052.27,-193.35 1049.98,-186.66 1032.5,-179 1004.11,-166.56 971.59,-154.82 944.84,-145.79"/>
<polygon fill="midnightblue" stroke="midnightblue" points="945.86,-142.44 935.27,-142.6 943.64,-149.08 945.86,-142.44"/>
</g>
<!-- Node38 -->
<g id="node38" class="node">
<title>Node38</title>
<g id="a_node38"><a xlink:title=" ">
<polygon fill="none" stroke="#bfbfbf" points="1333,-179.5 1333,-198.5 1376,-198.5 1376,-179.5 1333,-179.5"/>
<text text-anchor="middle" x="1354.5" y="-186.5" font-family="Helvetica,sans-Serif" font-size="10.00">fcntl.h</text>
</a>
</g>
</g>
<!-- Node37&#45;&gt;Node38 -->
<g id="edge41" class="edge">
<title>Node37&#45;&gt;Node38</title>
<path fill="none" stroke="midnightblue" d="M1439.27,-235.32C1423.15,-226.7 1398.2,-213.36 1379.54,-203.39"/>
<polygon fill="midnightblue" stroke="midnightblue" points="1381.16,-200.28 1370.69,-198.65 1377.86,-206.46 1381.16,-200.28"/>
</g>
<!-- Node39 -->
<g id="node39" class="node">
<title>Node39</title>
<g id="a_node39"><a xlink:title=" ">
<polygon fill="none" stroke="#bfbfbf" points="1394,-179.5 1394,-198.5 1443,-198.5 1443,-179.5 1394,-179.5"/>
<text text-anchor="middle" x="1418.5" y="-186.5" font-family="Helvetica,sans-Serif" font-size="10.00">netdb.h</text>
</a>
</g>
</g>
<!-- Node37&#45;&gt;Node39 -->
<g id="edge42" class="edge">
<title>Node37&#45;&gt;Node39</title>
<path fill="none" stroke="midnightblue" d="M1449.39,-235.08C1444.22,-227.53 1436.65,-216.49 1430.31,-207.23"/>
<polygon fill="midnightblue" stroke="midnightblue" points="1433.04,-205.02 1424.5,-198.75 1427.26,-208.98 1433.04,-205.02"/>
</g>
<!-- Node40 -->
<g id="node40" class="node">
<title>Node40</title>
<g id="a_node40"><a xlink:title=" ">
<polygon fill="none" stroke="#bfbfbf" points="1461,-179.5 1461,-198.5 1526,-198.5 1526,-179.5 1461,-179.5"/>
<text text-anchor="middle" x="1493.5" y="-186.5" font-family="Helvetica,sans-Serif" font-size="10.00">netinet/in.h</text>
</a>
</g>
</g>
<!-- Node37&#45;&gt;Node40 -->
<g id="edge43" class="edge">
<title>Node37&#45;&gt;Node40</title>
<path fill="none" stroke="midnightblue" d="M1461.77,-235.08C1467.14,-227.46 1475.02,-216.26 1481.58,-206.94"/>
<polygon fill="midnightblue" stroke="midnightblue" points="1484.45,-208.94 1487.34,-198.75 1478.72,-204.91 1484.45,-208.94"/>
</g>
<!-- Node41 -->
<g id="node41" class="node">
<title>Node41</title>
<g id="a_node41"><a xlink:title=" ">
<polygon fill="none" stroke="#bfbfbf" points="1544,-179.5 1544,-198.5 1615,-198.5 1615,-179.5 1544,-179.5"/>
<text text-anchor="middle" x="1579.5" y="-186.5" font-family="Helvetica,sans-Serif" font-size="10.00">netinet/tcp.h</text>
</a>
</g>
</g>
<!-- Node37&#45;&gt;Node41 -->
<g id="edge44" class="edge">
<title>Node37&#45;&gt;Node41</title>
<path fill="none" stroke="midnightblue" d="M1475.15,-235.44C1495.46,-226.6 1527.4,-212.69 1550.6,-202.59"/>
<polygon fill="midnightblue" stroke="midnightblue" points="1552.17,-205.72 1559.94,-198.52 1549.38,-199.3 1552.17,-205.72"/>
</g>
<!-- Node42 -->
<g id="node42" class="node">
<title>Node42</title>
<g id="a_node42"><a xlink:title=" ">
<polygon fill="none" stroke="#bfbfbf" points="1633,-179.5 1633,-198.5 1682,-198.5 1682,-179.5 1633,-179.5"/>
<text text-anchor="middle" x="1657.5" y="-186.5" font-family="Helvetica,sans-Serif" font-size="10.00">stdint.h</text>
</a>
</g>
</g>
<!-- Node37&#45;&gt;Node42 -->
<g id="edge45" class="edge">
<title>Node37&#45;&gt;Node42</title>
<path fill="none" stroke="midnightblue" d="M1487.91,-235.43C1519.95,-226.95 1570.63,-213.49 1623.17,-199.35"/>
<polygon fill="midnightblue" stroke="midnightblue" points="1624.25,-202.68 1633,-196.7 1622.43,-195.92 1624.25,-202.68"/>
</g>
<!-- Node43 -->
<g id="node43" class="node">
<title>Node43</title>
<g id="a_node43"><a xlink:title=" ">
<polygon fill="none" stroke="#bfbfbf" points="1700.5,-179.5 1700.5,-198.5 1764.5,-198.5 1764.5,-179.5 1700.5,-179.5"/>
<text text-anchor="middle" x="1732.5" y="-186.5" font-family="Helvetica,sans-Serif" font-size="10.00">sys/epoll.h</text>
</a>
</g>
</g>
<!-- Node37&#45;&gt;Node43 -->
<g id="edge46" class="edge">
<title>Node37&#45;&gt;Node43</title>
<path fill="none" stroke="midnightblue" d="M1502.14,-235.5C1547.67,-227.12 1619.14,-213.72 1690.26,-199.21"/>
<polygon fill="midnightblue" stroke="midnightblue" points="1691.19,-202.59 1700.29,-197.16 1689.79,-195.74 1691.19,-202.59"/>
</g>
<!-- Node44 -->
<g id="node44" class="node">
<title>Node44</title>
<g id="a_node44"><a xlink:title=" ">
<polygon fill="none" stroke="#bfbfbf" points="1782.5,-179.5 1782.5,-198.5 1844.5,-198.5 1844.5,-179.5 1782.5,-179.5"/>
<text text-anchor="middle" x="1813.5" y="-186.5" font-family="Helvetica,sans-Serif" font-size="10.00">arpa/inet.h</text>
</a>
</g>
</g>
<!-- Node37&#45;&gt;Node44 -->
<g id="edge47" class="edge">
<title>Node37&#45;&gt;Node44</title>
<path fill="none" stroke="midnightblue" d="M1527.76,-235.46C1590.05,-227.72 1682.6,-215.29 1772.06,-199.15"/>
<polygon fill="midnightblue" stroke="midnightblue" points="1772.9,-202.55 1782.11,-197.32 1771.64,-195.67 1772.9,-202.55"/>
</g>
<!-- Node45 -->
<g id="node45" class="node">
<title>Node45</title>
<g id="a_node45"><a xlink:title=" ">
<polygon fill="none" stroke="#bfbfbf" points="1863,-179.5 1863,-198.5 1936,-198.5 1936,-179.5 1863,-179.5"/>
<text text-anchor="middle" x="1899.5" y="-186.5" font-family="Helvetica,sans-Serif" font-size="10.00">sys/socket.h</text>
</a>
</g>
</g>
<!-- Node37&#45;&gt;Node45 -->
<g id="edge48" class="edge">
<title>Node37&#45;&gt;Node45</title>
<path fill="none" stroke="midnightblue" d="M1530.56,-237.33C1608.56,-229.99 1734.37,-217 1852.91,-198.97"/>
<polygon fill="midnightblue" stroke="midnightblue" points="1853.54,-202.42 1862.89,-197.44 1852.47,-195.5 1853.54,-202.42"/>
</g>
<!-- Node46 -->
<g id="node46" class="node">
<title>Node46</title>
<g id="a_node46"><a xlink:title=" ">
<polygon fill="none" stroke="#bfbfbf" points="1954.5,-179.5 1954.5,-198.5 2022.5,-198.5 2022.5,-179.5 1954.5,-179.5"/>
<text text-anchor="middle" x="1988.5" y="-186.5" font-family="Helvetica,sans-Serif" font-size="10.00">sys/types.h</text>
</a>
</g>
</g>
<!-- Node37&#45;&gt;Node46 -->
<g id="edge49" class="edge">
<title>Node37&#45;&gt;Node46</title>
<path fill="none" stroke="midnightblue" d="M1530.53,-239.79C1624.88,-233.9 1791.97,-221.48 1944.29,-199.02"/>
<polygon fill="midnightblue" stroke="midnightblue" points="1944.92,-202.47 1954.3,-197.53 1943.89,-195.54 1944.92,-202.47"/>
</g>
<!-- Node47 -->
<g id="node47" class="node">
<title>Node47</title>
<g id="a_node47"><a xlink:title=" ">
<polygon fill="none" stroke="#bfbfbf" points="1080,-179.5 1080,-198.5 1131,-198.5 1131,-179.5 1080,-179.5"/>
<text text-anchor="middle" x="1105.5" y="-186.5" font-family="Helvetica,sans-Serif" font-size="10.00">unistd.h</text>
</a>
</g>
</g>
<!-- Node37&#45;&gt;Node47 -->
<g id="edge50" class="edge">
<title>Node37&#45;&gt;Node47</title>
<path fill="none" stroke="midnightblue" d="M1380.38,-235.82C1318.47,-228.5 1228.23,-216.51 1141.1,-199.14"/>
<polygon fill="midnightblue" stroke="midnightblue" points="1141.54,-195.66 1131.04,-197.11 1140.15,-202.52 1141.54,-195.66"/>
</g>
<!-- Node48 -->
<g id="node48" class="node">
<title>Node48</title>
<g id="a_node48"><a xlink:title=" ">
<polygon fill="none" stroke="#bfbfbf" points="1149,-179.5 1149,-198.5 1222,-198.5 1222,-179.5 1149,-179.5"/>
<text text-anchor="middle" x="1185.5" y="-186.5" font-family="Helvetica,sans-Serif" font-size="10.00">openssl/err.h</text>
</a>
</g>
</g>
<!-- Node37&#45;&gt;Node48 -->
<g id="edge53" class="edge">
<title>Node37&#45;&gt;Node48</title>
<path fill="none" stroke="midnightblue" d="M1412.72,-235.44C1363.47,-225.59 1282.87,-209.47 1232.07,-199.31"/>
<polygon fill="midnightblue" stroke="midnightblue" points="1232.51,-195.83 1222.02,-197.3 1231.14,-202.7 1232.51,-195.83"/>
</g>
<!-- Node49 -->
<g id="node49" class="node">
<title>Node49</title>
<g id="a_node49"><a xlink:title=" ">
<polygon fill="none" stroke="#bfbfbf" points="1240.5,-179.5 1240.5,-198.5 1314.5,-198.5 1314.5,-179.5 1240.5,-179.5"/>
<text text-anchor="middle" x="1277.5" y="-186.5" font-family="Helvetica,sans-Serif" font-size="10.00">openssl/ssl.h</text>
</a>
</g>
</g>
<!-- Node37&#45;&gt;Node49 -->
<g id="edge54" class="edge">
<title>Node37&#45;&gt;Node49</title>
<path fill="none" stroke="midnightblue" d="M1427.3,-235.44C1397.09,-226.28 1348.99,-211.69 1315.47,-201.52"/>
<polygon fill="midnightblue" stroke="midnightblue" points="1316.16,-198.07 1305.57,-198.52 1314.13,-204.77 1316.16,-198.07"/>
</g>
</g>
</svg>
