<?xml version="1.0" encoding="UTF-8" standalone="no"?>
<!DOCTYPE svg PUBLIC "-//W3C//DTD SVG 1.1//EN"
 "http://www.w3.org/Graphics/SVG/1.1/DTD/svg11.dtd">
<!-- Generated by graphviz version 3.0.0 (20220226.1711)
 -->
<!-- Title: YouTubeAPI.hpp Pages: 1 -->
<svg width="1749pt" height="487pt"
 viewBox="0.00 0.00 1748.50 487.00" xmlns="http://www.w3.org/2000/svg" xmlns:xlink="http://www.w3.org/1999/xlink">
<g id="graph0" class="graph" transform="scale(1 1) rotate(0) translate(4 483)">
<title>YouTubeAPI.hpp</title>
<!-- Node1 -->
<g id="node1" class="node">
<title>Node1</title>
<g id="a_node1"><a xlink:title=" ">
<polygon fill="#bfbfbf" stroke="black" points="838.5,-459.5 838.5,-478.5 927.5,-478.5 927.5,-459.5 838.5,-459.5"/>
<text text-anchor="middle" x="883" y="-466.5" font-family="Helvetica,sans-Serif" font-size="10.00">YouTubeAPI.hpp</text>
</a>
</g>
</g>
<!-- Node2 -->
<g id="node2" class="node">
<title>Node2</title>
<g id="a_node2"><a xlink:href="../../d4/deb/a00710.html" target="_top" xlink:title=" ">
<polygon fill="none" stroke="black" points="952.5,-112.5 952.5,-142.5 1083.5,-142.5 1083.5,-112.5 952.5,-112.5"/>
<text text-anchor="start" x="960.5" y="-130.5" font-family="Helvetica,sans-Serif" font-size="10.00">discordcoreapi/Foundation</text>
<text text-anchor="middle" x="1018" y="-119.5" font-family="Helvetica,sans-Serif" font-size="10.00">Entities.hpp</text>
</a>
</g>
</g>
<!-- Node1&#45;&gt;Node2 -->
<g id="edge1" class="edge">
<title>Node1&#45;&gt;Node2</title>
<path fill="none" stroke="midnightblue" d="M838.3,-467.19C658.8,-463.34 0,-443.4 0,-358 0,-358 0,-358 0,-244 0,-209.36 12.92,-196.18 43,-179 120.24,-134.87 726.49,-129.16 942.16,-128.53"/>
<polygon fill="midnightblue" stroke="midnightblue" points="942.45,-132.03 952.44,-128.5 942.43,-125.03 942.45,-132.03"/>
</g>
<!-- Node27 -->
<g id="node27" class="node">
<title>Node27</title>
<g id="a_node27"><a xlink:href="../../d4/d9b/a00680.html" target="_top" xlink:title=" ">
<polygon fill="none" stroke="black" points="184,-235.5 184,-254.5 346,-254.5 346,-235.5 184,-235.5"/>
<text text-anchor="middle" x="265" y="-242.5" font-family="Helvetica,sans-Serif" font-size="10.00">discordcoreapi/AudioDecoder.hpp</text>
</a>
</g>
</g>
<!-- Node1&#45;&gt;Node27 -->
<g id="edge26" class="edge">
<title>Node1&#45;&gt;Node27</title>
<path fill="none" stroke="midnightblue" d="M859.15,-459.43C763.75,-425.16 409.4,-297.87 298.44,-258.01"/>
<polygon fill="midnightblue" stroke="midnightblue" points="299.37,-254.63 288.78,-254.54 297,-261.22 299.37,-254.63"/>
</g>
<!-- Node31 -->
<g id="node31" class="node">
<title>Node31</title>
<g id="a_node31"><a xlink:href="../../db/d77/a00683.html" target="_top" xlink:title=" ">
<polygon fill="none" stroke="black" points="1561,-403.5 1561,-422.5 1723,-422.5 1723,-403.5 1561,-403.5"/>
<text text-anchor="middle" x="1642" y="-410.5" font-family="Helvetica,sans-Serif" font-size="10.00">discordcoreapi/AudioEncoder.hpp</text>
</a>
</g>
</g>
<!-- Node1&#45;&gt;Node31 -->
<g id="edge32" class="edge">
<title>Node1&#45;&gt;Node31</title>
<path fill="none" stroke="midnightblue" d="M927.65,-464.82C1049.03,-456.19 1386.94,-432.15 1550.71,-420.5"/>
<polygon fill="midnightblue" stroke="midnightblue" points="1551.03,-423.98 1560.76,-419.78 1550.54,-417 1551.03,-423.98"/>
</g>
<!-- Node33 -->
<g id="node33" class="node">
<title>Node33</title>
<g id="a_node33"><a xlink:href="../../d5/d5b/a00695.html" target="_top" xlink:title=" ">
<polygon fill="none" stroke="black" points="1106,-403.5 1106,-422.5 1252,-422.5 1252,-403.5 1106,-403.5"/>
<text text-anchor="middle" x="1179" y="-410.5" font-family="Helvetica,sans-Serif" font-size="10.00">discordcoreapi/CoRoutine.hpp</text>
</a>
</g>
</g>
<!-- Node1&#45;&gt;Node33 -->
<g id="edge35" class="edge">
<title>Node1&#45;&gt;Node33</title>
<path fill="none" stroke="midnightblue" d="M927.63,-459.86C979.59,-450.38 1065.48,-434.71 1122.16,-424.37"/>
<polygon fill="midnightblue" stroke="midnightblue" points="1122.83,-427.8 1132.04,-422.57 1121.58,-420.92 1122.83,-427.8"/>
</g>
<!-- Node3 -->
<g id="node3" class="node">
<title>Node3</title>
<g id="a_node3"><a xlink:href="../../d5/dae/a00767.html" target="_top" xlink:title=" ">
<polygon fill="none" stroke="black" points="951,-56.5 951,-75.5 1085,-75.5 1085,-56.5 951,-56.5"/>
<text text-anchor="middle" x="1018" y="-63.5" font-family="Helvetica,sans-Serif" font-size="10.00">discordcoreapi/Utilities.hpp</text>
</a>
</g>
</g>
<!-- Node2&#45;&gt;Node3 -->
<g id="edge2" class="edge">
<title>Node2&#45;&gt;Node3</title>
<path fill="none" stroke="midnightblue" d="M1018,-112.4C1018,-104.47 1018,-94.46 1018,-85.86"/>
<polygon fill="midnightblue" stroke="midnightblue" points="1021.5,-85.66 1018,-75.66 1014.5,-85.66 1021.5,-85.66"/>
</g>
<!-- Node4 -->
<g id="node4" class="node">
<title>Node4</title>
<g id="a_node4"><a xlink:title=" ">
<polygon fill="none" stroke="#bfbfbf" points="24.5,-0.5 24.5,-19.5 81.5,-19.5 81.5,-0.5 24.5,-0.5"/>
<text text-anchor="middle" x="53" y="-7.5" font-family="Helvetica,sans-Serif" font-size="10.00">pthread.h</text>
</a>
</g>
</g>
<!-- Node3&#45;&gt;Node4 -->
<g id="edge3" class="edge">
<title>Node3&#45;&gt;Node4</title>
<path fill="none" stroke="midnightblue" d="M950.95,-63.35C770.43,-58.65 276.03,-44.07 91.65,-19.74"/>
<polygon fill="midnightblue" stroke="midnightblue" points="91.91,-16.24 81.53,-18.35 90.96,-23.18 91.91,-16.24"/>
</g>
<!-- Node5 -->
<g id="node5" class="node">
<title>Node5</title>
<g id="a_node5"><a xlink:title=" ">
<polygon fill="none" stroke="#bfbfbf" points="100,-0.5 100,-19.5 162,-19.5 162,-0.5 100,-0.5"/>
<text text-anchor="middle" x="131" y="-7.5" font-family="Helvetica,sans-Serif" font-size="10.00">sys/time.h</text>
</a>
</g>
</g>
<!-- Node3&#45;&gt;Node5 -->
<g id="edge4" class="edge">
<title>Node3&#45;&gt;Node5</title>
<path fill="none" stroke="midnightblue" d="M950.93,-65.26C808.85,-64.97 467.07,-59.92 172.37,-19.95"/>
<polygon fill="midnightblue" stroke="midnightblue" points="172.73,-16.47 162.35,-18.58 171.78,-23.4 172.73,-16.47"/>
</g>
<!-- Node6 -->
<g id="node6" class="node">
<title>Node6</title>
<g id="a_node6"><a xlink:title=" ">
<polygon fill="none" stroke="#bfbfbf" points="180,-0.5 180,-19.5 224,-19.5 224,-0.5 180,-0.5"/>
<text text-anchor="middle" x="202" y="-7.5" font-family="Helvetica,sans-Serif" font-size="10.00">time.h</text>
</a>
</g>
</g>
<!-- Node3&#45;&gt;Node6 -->
<g id="edge5" class="edge">
<title>Node3&#45;&gt;Node6</title>
<path fill="none" stroke="midnightblue" d="M950.98,-63.1C790.91,-58.25 388.84,-44.19 234.45,-19.8"/>
<polygon fill="midnightblue" stroke="midnightblue" points="234.65,-16.28 224.21,-18.1 233.5,-23.19 234.65,-16.28"/>
</g>
<!-- Node7 -->
<g id="node7" class="node">
<title>Node7</title>
<g id="a_node7"><a xlink:title=" ">
<polygon fill="none" stroke="#bfbfbf" points="242.5,-0.5 242.5,-19.5 283.5,-19.5 283.5,-0.5 242.5,-0.5"/>
<text text-anchor="middle" x="263" y="-7.5" font-family="Helvetica,sans-Serif" font-size="10.00">ctime</text>
</a>
</g>
</g>
<!-- Node3&#45;&gt;Node7 -->
<g id="edge6" class="edge">
<title>Node3&#45;&gt;Node7</title>
<path fill="none" stroke="midnightblue" d="M950.89,-62.89C799.79,-57.82 435.66,-43.7 293.97,-19.9"/>
<polygon fill="midnightblue" stroke="midnightblue" points="294.22,-16.39 283.76,-18.09 293,-23.28 294.22,-16.39"/>
</g>
<!-- Node8 -->
<g id="node8" class="node">
<title>Node8</title>
<g id="a_node8"><a xlink:title=" ">
<polygon fill="none" stroke="#bfbfbf" points="301.5,-0.5 301.5,-19.5 394.5,-19.5 394.5,-0.5 301.5,-0.5"/>
<text text-anchor="middle" x="348" y="-7.5" font-family="Helvetica,sans-Serif" font-size="10.00">condition_variable</text>
</a>
</g>
</g>
<!-- Node3&#45;&gt;Node8 -->
<g id="edge7" class="edge">
<title>Node3&#45;&gt;Node8</title>
<path fill="none" stroke="midnightblue" d="M950.59,-61.96C839.2,-56.53 609.55,-43.55 404.75,-19.98"/>
<polygon fill="midnightblue" stroke="midnightblue" points="405.05,-16.49 394.71,-18.82 404.24,-23.45 405.05,-16.49"/>
</g>
<!-- Node9 -->
<g id="node9" class="node">
<title>Node9</title>
<g id="a_node9"><a xlink:title=" ">
<polygon fill="none" stroke="#bfbfbf" points="413,-0.5 413,-19.5 511,-19.5 511,-0.5 413,-0.5"/>
<text text-anchor="middle" x="462" y="-7.5" font-family="Helvetica,sans-Serif" font-size="10.00">nlohmann/json.hpp</text>
</a>
</g>
</g>
<!-- Node3&#45;&gt;Node9 -->
<g id="edge8" class="edge">
<title>Node3&#45;&gt;Node9</title>
<path fill="none" stroke="midnightblue" d="M951,-60.31C857.2,-53.44 681.21,-39.45 521.05,-20.06"/>
<polygon fill="midnightblue" stroke="midnightblue" points="521.37,-16.57 511.02,-18.83 520.52,-23.52 521.37,-16.57"/>
</g>
<!-- Node10 -->
<g id="node10" class="node">
<title>Node10</title>
<g id="a_node10"><a xlink:title=" ">
<polygon fill="none" stroke="#bfbfbf" points="529.5,-0.5 529.5,-19.5 614.5,-19.5 614.5,-0.5 529.5,-0.5"/>
<text text-anchor="middle" x="572" y="-7.5" font-family="Helvetica,sans-Serif" font-size="10.00">source_location</text>
</a>
</g>
</g>
<!-- Node3&#45;&gt;Node10 -->
<g id="edge9" class="edge">
<title>Node3&#45;&gt;Node10</title>
<path fill="none" stroke="midnightblue" d="M950.74,-58.6C874.16,-51.04 745.05,-37.42 624.68,-20.17"/>
<polygon fill="midnightblue" stroke="midnightblue" points="624.94,-16.67 614.55,-18.71 623.94,-23.6 624.94,-16.67"/>
</g>
<!-- Node11 -->
<g id="node11" class="node">
<title>Node11</title>
<g id="a_node11"><a xlink:title=" ">
<polygon fill="none" stroke="#bfbfbf" points="632.5,-0.5 632.5,-19.5 715.5,-19.5 715.5,-0.5 632.5,-0.5"/>
<text text-anchor="middle" x="674" y="-7.5" font-family="Helvetica,sans-Serif" font-size="10.00">unordered_map</text>
</a>
</g>
</g>
<!-- Node3&#45;&gt;Node11 -->
<g id="edge10" class="edge">
<title>Node3&#45;&gt;Node11</title>
<path fill="none" stroke="midnightblue" d="M960.12,-56.5C903.17,-48.05 813.46,-34.5 725.85,-20.11"/>
<polygon fill="midnightblue" stroke="midnightblue" points="726.17,-16.62 715.74,-18.44 725.03,-23.52 726.17,-16.62"/>
</g>
<!-- Node12 -->
<g id="node12" class="node">
<title>Node12</title>
<g id="a_node12"><a xlink:title=" ">
<polygon fill="none" stroke="#bfbfbf" points="734,-0.5 734,-19.5 812,-19.5 812,-0.5 734,-0.5"/>
<text text-anchor="middle" x="773" y="-7.5" font-family="Helvetica,sans-Serif" font-size="10.00">shared_mutex</text>
</a>
</g>
</g>
<!-- Node3&#45;&gt;Node12 -->
<g id="edge11" class="edge">
<title>Node3&#45;&gt;Node12</title>
<path fill="none" stroke="midnightblue" d="M979.18,-56.44C936.44,-47.02 867.67,-31.87 821.43,-21.68"/>
<polygon fill="midnightblue" stroke="midnightblue" points="822.16,-18.25 811.64,-19.52 820.65,-25.09 822.16,-18.25"/>
</g>
<!-- Node13 -->
<g id="node13" class="node">
<title>Node13</title>
<g id="a_node13"><a xlink:title=" ">
<polygon fill="none" stroke="#bfbfbf" points="830,-0.5 830,-19.5 888,-19.5 888,-0.5 830,-0.5"/>
<text text-anchor="middle" x="859" y="-7.5" font-family="Helvetica,sans-Serif" font-size="10.00">functional</text>
</a>
</g>
</g>
<!-- Node3&#45;&gt;Node13 -->
<g id="edge12" class="edge">
<title>Node3&#45;&gt;Node13</title>
<path fill="none" stroke="midnightblue" d="M992.81,-56.44C966.06,-47.36 923.6,-32.94 893.69,-22.78"/>
<polygon fill="midnightblue" stroke="midnightblue" points="894.67,-19.42 884.08,-19.52 892.42,-26.05 894.67,-19.42"/>
</g>
<!-- Node14 -->
<g id="node14" class="node">
<title>Node14</title>
<g id="a_node14"><a xlink:title=" ">
<polygon fill="none" stroke="#bfbfbf" points="906.5,-0.5 906.5,-19.5 971.5,-19.5 971.5,-0.5 906.5,-0.5"/>
<text text-anchor="middle" x="939" y="-7.5" font-family="Helvetica,sans-Serif" font-size="10.00">semaphore</text>
</a>
</g>
</g>
<!-- Node3&#45;&gt;Node14 -->
<g id="edge13" class="edge">
<title>Node3&#45;&gt;Node14</title>
<path fill="none" stroke="midnightblue" d="M1005.31,-56.32C993.1,-47.98 974.42,-35.21 960,-25.35"/>
<polygon fill="midnightblue" stroke="midnightblue" points="961.89,-22.41 951.66,-19.65 957.94,-28.19 961.89,-22.41"/>
</g>
<!-- Node15 -->
<g id="node15" class="node">
<title>Node15</title>
<g id="a_node15"><a xlink:title=" ">
<polygon fill="none" stroke="#bfbfbf" points="990,-0.5 990,-19.5 1046,-19.5 1046,-0.5 990,-0.5"/>
<text text-anchor="middle" x="1018" y="-7.5" font-family="Helvetica,sans-Serif" font-size="10.00">concepts</text>
</a>
</g>
</g>
<!-- Node3&#45;&gt;Node15 -->
<g id="edge14" class="edge">
<title>Node3&#45;&gt;Node15</title>
<path fill="none" stroke="midnightblue" d="M1018,-56.08C1018,-49.01 1018,-38.86 1018,-29.99"/>
<polygon fill="midnightblue" stroke="midnightblue" points="1021.5,-29.75 1018,-19.75 1014.5,-29.75 1021.5,-29.75"/>
</g>
<!-- Node16 -->
<g id="node16" class="node">
<title>Node16</title>
<g id="a_node16"><a xlink:title=" ">
<polygon fill="none" stroke="#bfbfbf" points="1064,-0.5 1064,-19.5 1118,-19.5 1118,-0.5 1064,-0.5"/>
<text text-anchor="middle" x="1091" y="-7.5" font-family="Helvetica,sans-Serif" font-size="10.00">iostream</text>
</a>
</g>
</g>
<!-- Node3&#45;&gt;Node16 -->
<g id="edge15" class="edge">
<title>Node3&#45;&gt;Node16</title>
<path fill="none" stroke="midnightblue" d="M1029.73,-56.32C1040.84,-48.11 1057.74,-35.6 1070.98,-25.81"/>
<polygon fill="midnightblue" stroke="midnightblue" points="1073.1,-28.59 1079.06,-19.83 1068.94,-22.97 1073.1,-28.59"/>
</g>
<!-- Node17 -->
<g id="node17" class="node">
<title>Node17</title>
<g id="a_node17"><a xlink:title=" ">
<polygon fill="none" stroke="#bfbfbf" points="1136.5,-0.5 1136.5,-19.5 1185.5,-19.5 1185.5,-0.5 1136.5,-0.5"/>
<text text-anchor="middle" x="1161" y="-7.5" font-family="Helvetica,sans-Serif" font-size="10.00">fstream</text>
</a>
</g>
</g>
<!-- Node3&#45;&gt;Node17 -->
<g id="edge16" class="edge">
<title>Node3&#45;&gt;Node17</title>
<path fill="none" stroke="midnightblue" d="M1040.66,-56.44C1064.4,-47.48 1101.91,-33.31 1128.74,-23.18"/>
<polygon fill="midnightblue" stroke="midnightblue" points="1130.33,-26.32 1138.45,-19.52 1127.86,-19.77 1130.33,-26.32"/>
</g>
<!-- Node18 -->
<g id="node18" class="node">
<title>Node18</title>
<g id="a_node18"><a xlink:title=" ">
<polygon fill="none" stroke="#bfbfbf" points="1203.5,-0.5 1203.5,-19.5 1244.5,-19.5 1244.5,-0.5 1203.5,-0.5"/>
<text text-anchor="middle" x="1224" y="-7.5" font-family="Helvetica,sans-Serif" font-size="10.00">bitset</text>
</a>
</g>
</g>
<!-- Node3&#45;&gt;Node18 -->
<g id="edge17" class="edge">
<title>Node3&#45;&gt;Node18</title>
<path fill="none" stroke="midnightblue" d="M1053.18,-56.46C1086.77,-48.2 1139.03,-35.09 1193.54,-20.04"/>
<polygon fill="midnightblue" stroke="midnightblue" points="1194.68,-23.36 1203.38,-17.31 1192.8,-16.61 1194.68,-23.36"/>
</g>
<!-- Node19 -->
<g id="node19" class="node">
<title>Node19</title>
<g id="a_node19"><a xlink:title=" ">
<polygon fill="none" stroke="#bfbfbf" points="1263,-0.5 1263,-19.5 1315,-19.5 1315,-0.5 1263,-0.5"/>
<text text-anchor="middle" x="1289" y="-7.5" font-family="Helvetica,sans-Serif" font-size="10.00">memory</text>
</a>
</g>
</g>
<!-- Node3&#45;&gt;Node19 -->
<g id="edge18" class="edge">
<title>Node3&#45;&gt;Node19</title>
<path fill="none" stroke="midnightblue" d="M1066.77,-56.48C1112.27,-48.35 1182.27,-35.37 1252.75,-19.95"/>
<polygon fill="midnightblue" stroke="midnightblue" points="1253.68,-23.33 1262.69,-17.76 1252.17,-16.49 1253.68,-23.33"/>
</g>
<!-- Node20 -->
<g id="node20" class="node">
<title>Node20</title>
<g id="a_node20"><a xlink:title=" ">
<polygon fill="none" stroke="#bfbfbf" points="1333.5,-0.5 1333.5,-19.5 1382.5,-19.5 1382.5,-0.5 1333.5,-0.5"/>
<text text-anchor="middle" x="1358" y="-7.5" font-family="Helvetica,sans-Serif" font-size="10.00">random</text>
</a>
</g>
</g>
<!-- Node3&#45;&gt;Node20 -->
<g id="edge19" class="edge">
<title>Node3&#45;&gt;Node20</title>
<path fill="none" stroke="midnightblue" d="M1085.24,-57.33C1145.24,-49.97 1235.65,-37.66 1323.34,-19.93"/>
<polygon fill="midnightblue" stroke="midnightblue" points="1324.1,-23.35 1333.19,-17.91 1322.7,-16.49 1324.1,-23.35"/>
</g>
<!-- Node21 -->
<g id="node21" class="node">
<title>Node21</title>
<g id="a_node21"><a xlink:title=" ">
<polygon fill="none" stroke="#bfbfbf" points="1400.5,-0.5 1400.5,-19.5 1441.5,-19.5 1441.5,-0.5 1400.5,-0.5"/>
<text text-anchor="middle" x="1421" y="-7.5" font-family="Helvetica,sans-Serif" font-size="10.00">string</text>
</a>
</g>
</g>
<!-- Node3&#45;&gt;Node21 -->
<g id="edge20" class="edge">
<title>Node3&#45;&gt;Node21</title>
<path fill="none" stroke="midnightblue" d="M1085.27,-60.37C1158.27,-54.57 1278.29,-42.75 1390.66,-19.71"/>
<polygon fill="midnightblue" stroke="midnightblue" points="1391.39,-23.13 1400.46,-17.67 1389.96,-16.28 1391.39,-23.13"/>
</g>
<!-- Node22 -->
<g id="node22" class="node">
<title>Node22</title>
<g id="a_node22"><a xlink:title=" ">
<polygon fill="none" stroke="#bfbfbf" points="1460,-0.5 1460,-19.5 1502,-19.5 1502,-0.5 1460,-0.5"/>
<text text-anchor="middle" x="1481" y="-7.5" font-family="Helvetica,sans-Serif" font-size="10.00">vector</text>
</a>
</g>
</g>
<!-- Node3&#45;&gt;Node22 -->
<g id="edge21" class="edge">
<title>Node3&#45;&gt;Node22</title>
<path fill="none" stroke="midnightblue" d="M1085.15,-61.73C1170.58,-56.72 1322.34,-44.97 1450,-20 1450.1,-19.98 1450.2,-19.96 1450.3,-19.94"/>
<polygon fill="midnightblue" stroke="midnightblue" points="1450.85,-23.41 1459.78,-17.7 1449.24,-16.59 1450.85,-23.41"/>
</g>
<!-- Node23 -->
<g id="node23" class="node">
<title>Node23</title>
<g id="a_node23"><a xlink:title=" ">
<polygon fill="none" stroke="#bfbfbf" points="1520,-0.5 1520,-19.5 1564,-19.5 1564,-0.5 1520,-0.5"/>
<text text-anchor="middle" x="1542" y="-7.5" font-family="Helvetica,sans-Serif" font-size="10.00">thread</text>
</a>
</g>
</g>
<!-- Node3&#45;&gt;Node23 -->
<g id="edge22" class="edge">
<title>Node3&#45;&gt;Node23</title>
<path fill="none" stroke="midnightblue" d="M1085.15,-62.94C1178.5,-59.18 1352.77,-48.9 1509.48,-19.94"/>
<polygon fill="midnightblue" stroke="midnightblue" points="1510.59,-23.29 1519.77,-18.01 1509.3,-16.41 1510.59,-23.29"/>
</g>
<!-- Node24 -->
<g id="node24" class="node">
<title>Node24</title>
<g id="a_node24"><a xlink:title=" ">
<polygon fill="none" stroke="#bfbfbf" points="1582,-0.5 1582,-19.5 1626,-19.5 1626,-0.5 1582,-0.5"/>
<text text-anchor="middle" x="1604" y="-7.5" font-family="Helvetica,sans-Serif" font-size="10.00">mutex</text>
</a>
</g>
</g>
<!-- Node3&#45;&gt;Node24 -->
<g id="edge23" class="edge">
<title>Node3&#45;&gt;Node24</title>
<path fill="none" stroke="midnightblue" d="M1085.21,-63.91C1188.27,-61.28 1391.49,-52.3 1571.85,-19.85"/>
<polygon fill="midnightblue" stroke="midnightblue" points="1572.57,-23.27 1581.78,-18.03 1571.31,-16.39 1572.57,-23.27"/>
</g>
<!-- Node25 -->
<g id="node25" class="node">
<title>Node25</title>
<g id="a_node25"><a xlink:title=" ">
<polygon fill="none" stroke="#bfbfbf" points="1644.5,-0.5 1644.5,-19.5 1687.5,-19.5 1687.5,-0.5 1644.5,-0.5"/>
<text text-anchor="middle" x="1666" y="-7.5" font-family="Helvetica,sans-Serif" font-size="10.00">queue</text>
</a>
</g>
</g>
<!-- Node3&#45;&gt;Node25 -->
<g id="edge24" class="edge">
<title>Node3&#45;&gt;Node25</title>
<path fill="none" stroke="midnightblue" d="M1085.22,-64.69C1197.38,-63.17 1429.68,-55.74 1634.42,-19.68"/>
<polygon fill="midnightblue" stroke="midnightblue" points="1635.23,-23.09 1644.46,-17.88 1634,-16.2 1635.23,-23.09"/>
</g>
<!-- Node26 -->
<g id="node26" class="node">
<title>Node26</title>
<g id="a_node26"><a xlink:title=" ">
<polygon fill="none" stroke="#bfbfbf" points="1705.5,-0.5 1705.5,-19.5 1740.5,-19.5 1740.5,-0.5 1705.5,-0.5"/>
<text text-anchor="middle" x="1723" y="-7.5" font-family="Helvetica,sans-Serif" font-size="10.00">map</text>
</a>
</g>
</g>
<!-- Node3&#45;&gt;Node26 -->
<g id="edge25" class="edge">
<title>Node3&#45;&gt;Node26</title>
<path fill="none" stroke="midnightblue" d="M1085.19,-62.83C1229.04,-57.81 1563.78,-44.13 1695.41,-19.76"/>
<polygon fill="midnightblue" stroke="midnightblue" points="1696.13,-23.19 1705.27,-17.84 1694.79,-16.32 1696.13,-23.19"/>
</g>
<!-- Node27&#45;&gt;Node2 -->
<g id="edge29" class="edge">
<title>Node27&#45;&gt;Node2</title>
<path fill="none" stroke="midnightblue" d="M183.7,-242.09C108.73,-237.59 14.94,-223.32 57,-179 87.33,-147.03 720.66,-133.45 942.25,-129.67"/>
<polygon fill="midnightblue" stroke="midnightblue" points="942.55,-133.16 952.49,-129.5 942.43,-126.16 942.55,-133.16"/>
</g>
<!-- Node28 -->
<g id="node28" class="node">
<title>Node28</title>
<g id="a_node28"><a xlink:href="../../d4/d6a/a00704.html" target="_top" xlink:title=" ">
<polygon fill="none" stroke="black" points="354,-179.5 354,-198.5 512,-198.5 512,-179.5 354,-179.5"/>
<text text-anchor="middle" x="433" y="-186.5" font-family="Helvetica,sans-Serif" font-size="10.00">discordcoreapi/EventEntities.hpp</text>
</a>
</g>
</g>
<!-- Node27&#45;&gt;Node28 -->
<g id="edge27" class="edge">
<title>Node27&#45;&gt;Node28</title>
<path fill="none" stroke="midnightblue" d="M291.62,-235.44C320.01,-226.32 365.14,-211.81 396.75,-201.65"/>
<polygon fill="midnightblue" stroke="midnightblue" points="398.06,-204.91 406.5,-198.52 395.91,-198.24 398.06,-204.91"/>
</g>
<!-- Node29 -->
<g id="node29" class="node">
<title>Node29</title>
<g id="a_node29"><a xlink:title=" ">
<polygon fill="none" stroke="#bfbfbf" points="66,-179.5 66,-198.5 176,-198.5 176,-179.5 66,-179.5"/>
<text text-anchor="middle" x="121" y="-186.5" font-family="Helvetica,sans-Serif" font-size="10.00">libavformat/avformat.h</text>
</a>
</g>
</g>
<!-- Node27&#45;&gt;Node29 -->
<g id="edge30" class="edge">
<title>Node27&#45;&gt;Node29</title>
<path fill="none" stroke="midnightblue" d="M242.18,-235.44C218.17,-226.44 180.17,-212.19 153.13,-202.05"/>
<polygon fill="midnightblue" stroke="midnightblue" points="154.3,-198.75 143.71,-198.52 151.84,-205.3 154.3,-198.75"/>
</g>
<!-- Node30 -->
<g id="node30" class="node">
<title>Node30</title>
<g id="a_node30"><a xlink:title=" ">
<polygon fill="none" stroke="#bfbfbf" points="194.5,-179.5 194.5,-198.5 335.5,-198.5 335.5,-179.5 194.5,-179.5"/>
<text text-anchor="middle" x="265" y="-186.5" font-family="Helvetica,sans-Serif" font-size="10.00">libswresample/swresample.h</text>
</a>
</g>
</g>
<!-- Node27&#45;&gt;Node30 -->
<g id="edge31" class="edge">
<title>Node27&#45;&gt;Node30</title>
<path fill="none" stroke="midnightblue" d="M265,-235.08C265,-228.01 265,-217.86 265,-208.99"/>
<polygon fill="midnightblue" stroke="midnightblue" points="268.5,-208.75 265,-198.75 261.5,-208.75 268.5,-208.75"/>
</g>
<!-- Node28&#45;&gt;Node2 -->
<g id="edge28" class="edge">
<title>Node28&#45;&gt;Node2</title>
<path fill="none" stroke="midnightblue" d="M512.15,-179.9C515.14,-179.6 518.1,-179.3 521,-179 670.37,-163.77 845.01,-146.05 942.43,-136.16"/>
<polygon fill="midnightblue" stroke="midnightblue" points="942.88,-139.64 952.47,-135.14 942.17,-132.67 942.88,-139.64"/>
</g>
<!-- Node31&#45;&gt;Node2 -->
<g id="edge33" class="edge">
<title>Node31&#45;&gt;Node2</title>
<path fill="none" stroke="midnightblue" d="M1653.34,-403.18C1663.31,-394.86 1677.5,-381.52 1686,-367 1701.2,-341.02 1705,-332.1 1705,-302 1705,-302 1705,-302 1705,-244 1705,-176.61 1633,-196.8 1568,-179 1480.77,-155.11 1223.45,-139.01 1094.08,-132.19"/>
<polygon fill="midnightblue" stroke="midnightblue" points="1094.02,-128.68 1083.85,-131.65 1093.66,-135.67 1094.02,-128.68"/>
</g>
<!-- Node32 -->
<g id="node32" class="node">
<title>Node32</title>
<g id="a_node32"><a xlink:title=" ">
<polygon fill="none" stroke="#bfbfbf" points="1607,-347.5 1607,-366.5 1677,-366.5 1677,-347.5 1607,-347.5"/>
<text text-anchor="middle" x="1642" y="-354.5" font-family="Helvetica,sans-Serif" font-size="10.00">opus/opus.h</text>
</a>
</g>
</g>
<!-- Node31&#45;&gt;Node32 -->
<g id="edge34" class="edge">
<title>Node31&#45;&gt;Node32</title>
<path fill="none" stroke="midnightblue" d="M1642,-403.08C1642,-396.01 1642,-385.86 1642,-376.99"/>
<polygon fill="midnightblue" stroke="midnightblue" points="1645.5,-376.75 1642,-366.75 1638.5,-376.75 1645.5,-376.75"/>
</g>
<!-- Node33&#45;&gt;Node2 -->
<g id="edge36" class="edge">
<title>Node33&#45;&gt;Node2</title>
<path fill="none" stroke="midnightblue" d="M1252.37,-406.85C1367.84,-396.7 1579,-368.98 1579,-302 1579,-302 1579,-302 1579,-244 1579,-210.76 1569.9,-197.07 1542,-179 1505.27,-155.21 1230.25,-138.75 1094.01,-131.97"/>
<polygon fill="midnightblue" stroke="midnightblue" points="1093.81,-128.46 1083.65,-131.46 1093.47,-135.45 1093.81,-128.46"/>
</g>
<!-- Node34 -->
<g id="node34" class="node">
<title>Node34</title>
<g id="a_node34"><a xlink:href="../../d3/d4f/a00761.html" target="_top" xlink:title=" ">
<polygon fill="none" stroke="black" points="1156,-347.5 1156,-366.5 1306,-366.5 1306,-347.5 1156,-347.5"/>
<text text-anchor="middle" x="1231" y="-354.5" font-family="Helvetica,sans-Serif" font-size="10.00">discordcoreapi/ThreadPool.hpp</text>
</a>
</g>
</g>
<!-- Node33&#45;&gt;Node34 -->
<g id="edge37" class="edge">
<title>Node33&#45;&gt;Node34</title>
<path fill="none" stroke="midnightblue" d="M1187.59,-403.08C1195.16,-395.22 1206.38,-383.57 1215.51,-374.08"/>
<polygon fill="midnightblue" stroke="midnightblue" points="1218.16,-376.38 1222.57,-366.75 1213.12,-371.53 1218.16,-376.38"/>
</g>
<!-- Node49 -->
<g id="node49" class="node">
<title>Node49</title>
<g id="a_node49"><a xlink:title=" ">
<polygon fill="none" stroke="#bfbfbf" points="1097,-291.5 1097,-310.5 1153,-310.5 1153,-291.5 1097,-291.5"/>
<text text-anchor="middle" x="1125" y="-298.5" font-family="Helvetica,sans-Serif" font-size="10.00">coroutine</text>
</a>
</g>
</g>
<!-- Node33&#45;&gt;Node49 -->
<g id="edge56" class="edge">
<title>Node33&#45;&gt;Node49</title>
<path fill="none" stroke="midnightblue" d="M1171.55,-403.2C1164.46,-394.47 1153.89,-380.49 1147,-367 1139.38,-352.08 1133.49,-333.94 1129.73,-320.62"/>
<polygon fill="midnightblue" stroke="midnightblue" points="1133.06,-319.49 1127.09,-310.74 1126.29,-321.3 1133.06,-319.49"/>
</g>
<!-- Node34&#45;&gt;Node2 -->
<g id="edge38" class="edge">
<title>Node34&#45;&gt;Node2</title>
<path fill="none" stroke="midnightblue" d="M1274.94,-347.49C1374.16,-326.48 1600.93,-267.36 1521,-179 1492.92,-147.96 1227.34,-135.14 1093.84,-130.62"/>
<polygon fill="midnightblue" stroke="midnightblue" points="1093.79,-127.12 1083.68,-130.28 1093.56,-134.11 1093.79,-127.12"/>
</g>
<!-- Node35 -->
<g id="node35" class="node">
<title>Node35</title>
<g id="a_node35"><a xlink:href="../../db/d7c/a00722.html" target="_top" xlink:title=" ">
<polygon fill="none" stroke="black" points="1171.5,-291.5 1171.5,-310.5 1296.5,-310.5 1296.5,-291.5 1171.5,-291.5"/>
<text text-anchor="middle" x="1234" y="-298.5" font-family="Helvetica,sans-Serif" font-size="10.00">discordcoreapi/Https.hpp</text>
</a>
</g>
</g>
<!-- Node34&#45;&gt;Node35 -->
<g id="edge39" class="edge">
<title>Node34&#45;&gt;Node35</title>
<path fill="none" stroke="midnightblue" d="M1231.5,-347.08C1231.89,-340.01 1232.45,-329.86 1232.95,-320.99"/>
<polygon fill="midnightblue" stroke="midnightblue" points="1236.45,-320.93 1233.51,-310.75 1229.46,-320.54 1236.45,-320.93"/>
</g>
<!-- Node34&#45;&gt;Node49 -->
<g id="edge55" class="edge">
<title>Node34&#45;&gt;Node49</title>
<path fill="none" stroke="midnightblue" d="M1213.97,-347.32C1196.97,-338.66 1170.62,-325.24 1151.01,-315.25"/>
<polygon fill="midnightblue" stroke="midnightblue" points="1152.49,-312.08 1141.99,-310.65 1149.31,-318.31 1152.49,-312.08"/>
</g>
<!-- Node36 -->
<g id="node36" class="node">
<title>Node36</title>
<g id="a_node36"><a xlink:href="../../d5/de8/a00749.html" target="_top" xlink:title=" ">
<polygon fill="none" stroke="black" points="943,-235.5 943,-254.5 1093,-254.5 1093,-235.5 943,-235.5"/>
<text text-anchor="middle" x="1018" y="-242.5" font-family="Helvetica,sans-Serif" font-size="10.00">discordcoreapi/SSLClients.hpp</text>
</a>
</g>
</g>
<!-- Node35&#45;&gt;Node36 -->
<g id="edge40" class="edge">
<title>Node35&#45;&gt;Node36</title>
<path fill="none" stroke="midnightblue" d="M1199.77,-291.44C1162.49,-282.12 1102.73,-267.18 1061.99,-257"/>
<polygon fill="midnightblue" stroke="midnightblue" points="1062.62,-253.55 1052.07,-254.52 1060.92,-260.34 1062.62,-253.55"/>
</g>
<!-- Node36&#45;&gt;Node2 -->
<g id="edge41" class="edge">
<title>Node36&#45;&gt;Node2</title>
<path fill="none" stroke="midnightblue" d="M1018,-235.32C1018,-217.97 1018,-178.46 1018,-152.66"/>
<polygon fill="midnightblue" stroke="midnightblue" points="1021.5,-152.55 1018,-142.55 1014.5,-152.55 1021.5,-152.55"/>
</g>
<!-- Node36&#45;&gt;Node28 -->
<g id="edge42" class="edge">
<title>Node36&#45;&gt;Node28</title>
<path fill="none" stroke="midnightblue" d="M942.62,-237.45C847.31,-229.1 677.88,-214.07 522.37,-199.12"/>
<polygon fill="midnightblue" stroke="midnightblue" points="522.44,-195.61 512.15,-198.14 521.77,-202.58 522.44,-195.61"/>
</g>
<!-- Node37 -->
<g id="node37" class="node">
<title>Node37</title>
<g id="a_node37"><a xlink:title=" ">
<polygon fill="none" stroke="#bfbfbf" points="1046.5,-179.5 1046.5,-198.5 1119.5,-198.5 1119.5,-179.5 1046.5,-179.5"/>
<text text-anchor="middle" x="1083" y="-186.5" font-family="Helvetica,sans-Serif" font-size="10.00">openssl/err.h</text>
</a>
</g>
</g>
<!-- Node36&#45;&gt;Node37 -->
<g id="edge43" class="edge">
<title>Node36&#45;&gt;Node37</title>
<path fill="none" stroke="midnightblue" d="M1028.44,-235.32C1038.15,-227.26 1052.82,-215.08 1064.5,-205.37"/>
<polygon fill="midnightblue" stroke="midnightblue" points="1066.91,-207.92 1072.37,-198.83 1062.44,-202.53 1066.91,-207.92"/>
</g>
<!-- Node38 -->
<g id="node38" class="node">
<title>Node38</title>
<g id="a_node38"><a xlink:title=" ">
<polygon fill="none" stroke="#bfbfbf" points="1138,-179.5 1138,-198.5 1212,-198.5 1212,-179.5 1138,-179.5"/>
<text text-anchor="middle" x="1175" y="-186.5" font-family="Helvetica,sans-Serif" font-size="10.00">openssl/ssl.h</text>
</a>
</g>
</g>
<!-- Node36&#45;&gt;Node38 -->
<g id="edge44" class="edge">
<title>Node36&#45;&gt;Node38</title>
<path fill="none" stroke="midnightblue" d="M1042.88,-235.44C1069.29,-226.36 1111.22,-211.94 1140.74,-201.78"/>
<polygon fill="midnightblue" stroke="midnightblue" points="1141.92,-205.08 1150.24,-198.52 1139.64,-198.46 1141.92,-205.08"/>
</g>
<!-- Node39 -->
<g id="node39" class="node">
<title>Node39</title>
<g id="a_node39"><a xlink:title=" ">
<polygon fill="none" stroke="#bfbfbf" points="1230.5,-179.5 1230.5,-198.5 1273.5,-198.5 1273.5,-179.5 1230.5,-179.5"/>
<text text-anchor="middle" x="1252" y="-186.5" font-family="Helvetica,sans-Serif" font-size="10.00">fcntl.h</text>
</a>
</g>
</g>
<!-- Node36&#45;&gt;Node39 -->
<g id="edge45" class="edge">
<title>Node36&#45;&gt;Node39</title>
<path fill="none" stroke="midnightblue" d="M1060.18,-235.48C1099.27,-227.39 1159.26,-214.52 1220.53,-198.99"/>
<polygon fill="midnightblue" stroke="midnightblue" points="1221.55,-202.34 1230.37,-196.47 1219.81,-195.56 1221.55,-202.34"/>
</g>
<!-- Node40 -->
<g id="node40" class="node">
<title>Node40</title>
<g id="a_node40"><a xlink:title=" ">
<polygon fill="none" stroke="#bfbfbf" points="1291.5,-179.5 1291.5,-198.5 1340.5,-198.5 1340.5,-179.5 1291.5,-179.5"/>
<text text-anchor="middle" x="1316" y="-186.5" font-family="Helvetica,sans-Serif" font-size="10.00">netdb.h</text>
</a>
</g>
</g>
<!-- Node36&#45;&gt;Node40 -->
<g id="edge46" class="edge">
<title>Node36&#45;&gt;Node40</title>
<path fill="none" stroke="midnightblue" d="M1077.01,-235.5C1128.4,-227.74 1205.09,-215.32 1280.97,-199.06"/>
<polygon fill="midnightblue" stroke="midnightblue" points="1282.15,-202.38 1291.18,-196.85 1280.67,-195.54 1282.15,-202.38"/>
</g>
<!-- Node41 -->
<g id="node41" class="node">
<title>Node41</title>
<g id="a_node41"><a xlink:title=" ">
<polygon fill="none" stroke="#bfbfbf" points="1358.5,-179.5 1358.5,-198.5 1423.5,-198.5 1423.5,-179.5 1358.5,-179.5"/>
<text text-anchor="middle" x="1391" y="-186.5" font-family="Helvetica,sans-Serif" font-size="10.00">netinet/in.h</text>
</a>
</g>
</g>
<!-- Node36&#45;&gt;Node41 -->
<g id="edge47" class="edge">
<title>Node36&#45;&gt;Node41</title>
<path fill="none" stroke="midnightblue" d="M1092.85,-235.47C1157.81,-227.69 1254.56,-215.2 1348.52,-198.96"/>
<polygon fill="midnightblue" stroke="midnightblue" points="1349.24,-202.39 1358.49,-197.22 1348.04,-195.49 1349.24,-202.39"/>
</g>
<!-- Node42 -->
<g id="node42" class="node">
<title>Node42</title>
<g id="a_node42"><a xlink:title=" ">
<polygon fill="none" stroke="#bfbfbf" points="1441.5,-179.5 1441.5,-198.5 1512.5,-198.5 1512.5,-179.5 1441.5,-179.5"/>
<text text-anchor="middle" x="1477" y="-186.5" font-family="Helvetica,sans-Serif" font-size="10.00">netinet/tcp.h</text>
</a>
</g>
</g>
<!-- Node36&#45;&gt;Node42 -->
<g id="edge48" class="edge">
<title>Node36&#45;&gt;Node42</title>
<path fill="none" stroke="midnightblue" d="M1093.05,-237.87C1174,-230.8 1306.86,-217.87 1431.12,-199.01"/>
<polygon fill="midnightblue" stroke="midnightblue" points="1431.84,-202.44 1441.19,-197.46 1430.77,-195.52 1431.84,-202.44"/>
</g>
<!-- Node43 -->
<g id="node43" class="node">
<title>Node43</title>
<g id="a_node43"><a xlink:title=" ">
<polygon fill="none" stroke="#bfbfbf" points="530.5,-179.5 530.5,-198.5 579.5,-198.5 579.5,-179.5 530.5,-179.5"/>
<text text-anchor="middle" x="555" y="-186.5" font-family="Helvetica,sans-Serif" font-size="10.00">stdint.h</text>
</a>
</g>
</g>
<!-- Node36&#45;&gt;Node43 -->
<g id="edge49" class="edge">
<title>Node36&#45;&gt;Node43</title>
<path fill="none" stroke="midnightblue" d="M942.71,-239.63C858.84,-233.97 719.14,-222.18 589.86,-198.88"/>
<polygon fill="midnightblue" stroke="midnightblue" points="590.25,-195.39 579.78,-197.03 588.99,-202.28 590.25,-195.39"/>
</g>
<!-- Node44 -->
<g id="node44" class="node">
<title>Node44</title>
<g id="a_node44"><a xlink:title=" ">
<polygon fill="none" stroke="#bfbfbf" points="598,-179.5 598,-198.5 662,-198.5 662,-179.5 598,-179.5"/>
<text text-anchor="middle" x="630" y="-186.5" font-family="Helvetica,sans-Serif" font-size="10.00">sys/epoll.h</text>
</a>
</g>
</g>
<!-- Node36&#45;&gt;Node44 -->
<g id="edge50" class="edge">
<title>Node36&#45;&gt;Node44</title>
<path fill="none" stroke="midnightblue" d="M942.92,-236.17C874.71,-228.63 771.15,-216.08 672.06,-199.06"/>
<polygon fill="midnightblue" stroke="midnightblue" points="672.63,-195.6 662.18,-197.34 671.43,-202.5 672.63,-195.6"/>
</g>
<!-- Node45 -->
<g id="node45" class="node">
<title>Node45</title>
<g id="a_node45"><a xlink:title=" ">
<polygon fill="none" stroke="#bfbfbf" points="680,-179.5 680,-198.5 742,-198.5 742,-179.5 680,-179.5"/>
<text text-anchor="middle" x="711" y="-186.5" font-family="Helvetica,sans-Serif" font-size="10.00">arpa/inet.h</text>
</a>
</g>
</g>
<!-- Node36&#45;&gt;Node45 -->
<g id="edge51" class="edge">
<title>Node36&#45;&gt;Node45</title>
<path fill="none" stroke="midnightblue" d="M962.1,-235.48C910.19,-227.37 830.51,-214.4 752.42,-199.2"/>
<polygon fill="midnightblue" stroke="midnightblue" points="752.9,-195.73 742.41,-197.24 751.55,-202.6 752.9,-195.73"/>
</g>
<!-- Node46 -->
<g id="node46" class="node">
<title>Node46</title>
<g id="a_node46"><a xlink:title=" ">
<polygon fill="none" stroke="#bfbfbf" points="760.5,-179.5 760.5,-198.5 833.5,-198.5 833.5,-179.5 760.5,-179.5"/>
<text text-anchor="middle" x="797" y="-186.5" font-family="Helvetica,sans-Serif" font-size="10.00">sys/socket.h</text>
</a>
</g>
</g>
<!-- Node36&#45;&gt;Node46 -->
<g id="edge52" class="edge">
<title>Node36&#45;&gt;Node46</title>
<path fill="none" stroke="midnightblue" d="M982.98,-235.44C944.75,-226.1 883.43,-211.12 841.74,-200.93"/>
<polygon fill="midnightblue" stroke="midnightblue" points="842.4,-197.49 831.85,-198.52 840.74,-204.29 842.4,-197.49"/>
</g>
<!-- Node47 -->
<g id="node47" class="node">
<title>Node47</title>
<g id="a_node47"><a xlink:title=" ">
<polygon fill="none" stroke="#bfbfbf" points="852,-179.5 852,-198.5 920,-198.5 920,-179.5 852,-179.5"/>
<text text-anchor="middle" x="886" y="-186.5" font-family="Helvetica,sans-Serif" font-size="10.00">sys/types.h</text>
</a>
</g>
</g>
<!-- Node36&#45;&gt;Node47 -->
<g id="edge53" class="edge">
<title>Node36&#45;&gt;Node47</title>
<path fill="none" stroke="midnightblue" d="M997.08,-235.44C975.26,-226.52 940.85,-212.44 916.11,-202.32"/>
<polygon fill="midnightblue" stroke="midnightblue" points="917.4,-199.06 906.82,-198.52 914.75,-205.54 917.4,-199.06"/>
</g>
<!-- Node48 -->
<g id="node48" class="node">
<title>Node48</title>
<g id="a_node48"><a xlink:title=" ">
<polygon fill="none" stroke="#bfbfbf" points="938.5,-179.5 938.5,-198.5 989.5,-198.5 989.5,-179.5 938.5,-179.5"/>
<text text-anchor="middle" x="964" y="-186.5" font-family="Helvetica,sans-Serif" font-size="10.00">unistd.h</text>
</a>
</g>
</g>
<!-- Node36&#45;&gt;Node48 -->
<g id="edge54" class="edge">
<title>Node36&#45;&gt;Node48</title>
<path fill="none" stroke="midnightblue" d="M1009.08,-235.08C1001.22,-227.22 989.57,-215.57 980.08,-206.08"/>
<polygon fill="midnightblue" stroke="midnightblue" points="982.3,-203.35 972.75,-198.75 977.35,-208.3 982.3,-203.35"/>
</g>
</g>
</svg>
