<?xml version="1.0" encoding="UTF-8" standalone="no"?>
<!DOCTYPE svg PUBLIC "-//W3C//DTD SVG 1.1//EN"
 "http://www.w3.org/Graphics/SVG/1.1/DTD/svg11.dtd">
<!-- Generated by graphviz version 3.0.0 (20220226.1711)
 -->
<!-- Title: ThreadEntities.hpp Pages: 1 -->
<svg width="1391pt" height="252pt"
 viewBox="0.00 0.00 1390.50 252.00" xmlns="http://www.w3.org/2000/svg" xmlns:xlink="http://www.w3.org/1999/xlink">
<g id="graph0" class="graph" transform="scale(1 1) rotate(0) translate(4 248)">
<title>ThreadEntities.hpp</title>
<!-- Node1 -->
<g id="node1" class="node">
<title>Node1</title>
<g id="a_node1"><a xlink:title=" ">
<polygon fill="#bfbfbf" stroke="black" points="362.5,-224.5 362.5,-243.5 460.5,-243.5 460.5,-224.5 362.5,-224.5"/>
<text text-anchor="middle" x="411.5" y="-231.5" font-family="Helvetica,sans-Serif" font-size="10.00">ThreadEntities.hpp</text>
</a>
</g>
</g>
<!-- Node2 -->
<g id="node2" class="node">
<title>Node2</title>
<g id="a_node2"><a xlink:href="$d5/d72/a00803.html" xlink:title=" ">
<polygon fill="none" stroke="black" points="176,-168.5 176,-187.5 307,-187.5 307,-168.5 176,-168.5"/>
<text text-anchor="middle" x="241.5" y="-175.5" font-family="Helvetica,sans-Serif" font-size="10.00">DataParsingFunctions.cpp</text>
</a>
</g>
</g>
<!-- Node1&#45;&gt;Node2 -->
<g id="edge1" class="edge">
<title>Node1&#45;&gt;Node2</title>
<path fill="none" stroke="midnightblue" d="M374.68,-221.3C342.65,-211.13 296.98,-196.62 268.31,-187.52"/>
<polygon fill="midnightblue" stroke="midnightblue" points="373.97,-224.75 384.56,-224.44 376.09,-218.08 373.97,-224.75"/>
</g>
<!-- Node3 -->
<g id="node3" class="node">
<title>Node3</title>
<g id="a_node3"><a xlink:href="$df/dbb/a00698.html" xlink:title=" ">
<polygon fill="none" stroke="black" points="523,-112.5 523,-131.5 636,-131.5 636,-112.5 523,-112.5"/>
<text text-anchor="middle" x="579.5" y="-119.5" font-family="Helvetica,sans-Serif" font-size="10.00">DiscordCoreClient.hpp</text>
</a>
</g>
</g>
<!-- Node1&#45;&gt;Node3 -->
<g id="edge2" class="edge">
<title>Node1&#45;&gt;Node3</title>
<path fill="none" stroke="midnightblue" d="M423.37,-215.8C434.04,-201.41 450.86,-181.18 469.5,-168 493.59,-150.97 525.09,-138.92 548.21,-131.61"/>
<polygon fill="midnightblue" stroke="midnightblue" points="420.27,-214.11 417.29,-224.28 425.96,-218.19 420.27,-214.11"/>
</g>
<!-- Node17 -->
<g id="node17" class="node">
<title>Node17</title>
<g id="a_node17"><a xlink:href="$d1/d56/a00707.html" xlink:title=" ">
<polygon fill="none" stroke="black" points="325,-168.5 325,-187.5 422,-187.5 422,-168.5 325,-168.5"/>
<text text-anchor="middle" x="373.5" y="-175.5" font-family="Helvetica,sans-Serif" font-size="10.00">EventManager.hpp</text>
</a>
</g>
</g>
<!-- Node1&#45;&gt;Node17 -->
<g id="edge16" class="edge">
<title>Node1&#45;&gt;Node17</title>
<path fill="none" stroke="midnightblue" d="M399.44,-215.86C392.86,-206.5 384.99,-195.33 379.66,-187.75"/>
<polygon fill="midnightblue" stroke="midnightblue" points="396.61,-217.92 405.23,-224.08 402.33,-213.89 396.61,-217.92"/>
</g>
<!-- Node18 -->
<g id="node18" class="node">
<title>Node18</title>
<g id="a_node18"><a xlink:href="$d7/d49/a00863.html" xlink:title=" ">
<polygon fill="none" stroke="black" points="478.5,-168.5 478.5,-187.5 576.5,-187.5 576.5,-168.5 478.5,-168.5"/>
<text text-anchor="middle" x="527.5" y="-175.5" font-family="Helvetica,sans-Serif" font-size="10.00">ThreadEntities.cpp</text>
</a>
</g>
</g>
<!-- Node1&#45;&gt;Node18 -->
<g id="edge20" class="edge">
<title>Node1&#45;&gt;Node18</title>
<path fill="none" stroke="midnightblue" d="M439.22,-220.1C460.89,-210.01 490.4,-196.27 509.21,-187.52"/>
<polygon fill="midnightblue" stroke="midnightblue" points="437.47,-217.05 429.88,-224.44 440.42,-223.4 437.47,-217.05"/>
</g>
<!-- Node4 -->
<g id="node4" class="node">
<title>Node4</title>
<g id="a_node4"><a xlink:href="$da/d96/a00782.html" xlink:title=" ">
<polygon fill="none" stroke="black" points="701,-56.5 701,-75.5 862,-75.5 862,-56.5 701,-56.5"/>
<text text-anchor="middle" x="781.5" y="-63.5" font-family="Helvetica,sans-Serif" font-size="10.00">ApplicationCommandEntities.cpp</text>
</a>
</g>
</g>
<!-- Node3&#45;&gt;Node4 -->
<g id="edge3" class="edge">
<title>Node3&#45;&gt;Node4</title>
<path fill="none" stroke="midnightblue" d="M621.29,-109.83C659.43,-99.63 714.98,-84.78 749.64,-75.52"/>
<polygon fill="midnightblue" stroke="midnightblue" points="620.26,-106.48 611.51,-112.44 622.07,-113.24 620.26,-106.48"/>
</g>
<!-- Node5 -->
<g id="node5" class="node">
<title>Node5</title>
<g id="a_node5"><a xlink:href="$d0/dad/a00806.html" xlink:title=" ">
<polygon fill="none" stroke="black" points="880,-56.5 880,-75.5 993,-75.5 993,-56.5 880,-56.5"/>
<text text-anchor="middle" x="936.5" y="-63.5" font-family="Helvetica,sans-Serif" font-size="10.00">DiscordCoreClient.cpp</text>
</a>
</g>
</g>
<!-- Node3&#45;&gt;Node5 -->
<g id="edge4" class="edge">
<title>Node3&#45;&gt;Node5</title>
<path fill="none" stroke="midnightblue" d="M646.16,-110.92C713.61,-100.71 816.72,-85.12 880.2,-75.52"/>
<polygon fill="midnightblue" stroke="midnightblue" points="645.43,-107.49 636.07,-112.44 646.48,-114.41 645.43,-107.49"/>
</g>
<!-- Node6 -->
<g id="node6" class="node">
<title>Node6</title>
<g id="a_node6"><a xlink:href="$d8/d2d/a00815.html" xlink:title=" ">
<polygon fill="none" stroke="black" points="137,-56.5 137,-75.5 234,-75.5 234,-56.5 137,-56.5"/>
<text text-anchor="middle" x="185.5" y="-63.5" font-family="Helvetica,sans-Serif" font-size="10.00">EventManager.cpp</text>
</a>
</g>
</g>
<!-- Node3&#45;&gt;Node6 -->
<g id="edge5" class="edge">
<title>Node3&#45;&gt;Node6</title>
<path fill="none" stroke="midnightblue" d="M512.85,-112.49C445.02,-103.73 336.86,-89.49 243.5,-76 240.47,-75.56 237.36,-75.1 234.22,-74.64"/>
<polygon fill="midnightblue" stroke="midnightblue" points="512.61,-115.99 522.97,-113.79 513.5,-109.04 512.61,-115.99"/>
</g>
<!-- Node7 -->
<g id="node7" class="node">
<title>Node7</title>
<g id="a_node7"><a xlink:href="$d6/d8b/a00821.html" xlink:title=" ">
<polygon fill="none" stroke="black" points="1011,-56.5 1011,-75.5 1102,-75.5 1102,-56.5 1011,-56.5"/>
<text text-anchor="middle" x="1056.5" y="-63.5" font-family="Helvetica,sans-Serif" font-size="10.00">GuildEntities.cpp</text>
</a>
</g>
</g>
<!-- Node3&#45;&gt;Node7 -->
<g id="edge6" class="edge">
<title>Node3&#45;&gt;Node7</title>
<path fill="none" stroke="midnightblue" d="M646.18,-115.14C729.65,-107.51 876.94,-93.13 1002.5,-76 1005.23,-75.63 1008.04,-75.22 1010.86,-74.8"/>
<polygon fill="midnightblue" stroke="midnightblue" points="645.72,-111.66 636.08,-116.05 646.35,-118.63 645.72,-111.66"/>
</g>
<!-- Node8 -->
<g id="node8" class="node">
<title>Node8</title>
<g id="a_node8"><a xlink:href="$d9/daf/a00830.html" xlink:title=" ">
<polygon fill="none" stroke="black" points="1120,-56.5 1120,-75.5 1179,-75.5 1179,-56.5 1120,-56.5"/>
<text text-anchor="middle" x="1149.5" y="-63.5" font-family="Helvetica,sans-Serif" font-size="10.00">Https.cpp</text>
</a>
</g>
</g>
<!-- Node3&#45;&gt;Node8 -->
<g id="edge7" class="edge">
<title>Node3&#45;&gt;Node8</title>
<path fill="none" stroke="midnightblue" d="M646.21,-118.53C747.36,-114.07 945.36,-102.55 1111.5,-76 1114.18,-75.57 1116.95,-75.06 1119.71,-74.5"/>
<polygon fill="midnightblue" stroke="midnightblue" points="645.97,-115.04 636.13,-118.97 646.27,-122.03 645.97,-115.04"/>
</g>
<!-- Node9 -->
<g id="node9" class="node">
<title>Node9</title>
<g id="a_node9"><a xlink:href="$d8/db9/a00725.html" xlink:title=" ">
<polygon fill="none" stroke="black" points="1197,-56.5 1197,-75.5 1256,-75.5 1256,-56.5 1197,-56.5"/>
<text text-anchor="middle" x="1226.5" y="-63.5" font-family="Helvetica,sans-Serif" font-size="10.00">Index.hpp</text>
</a>
</g>
</g>
<!-- Node3&#45;&gt;Node9 -->
<g id="edge8" class="edge">
<title>Node3&#45;&gt;Node9</title>
<path fill="none" stroke="midnightblue" d="M646.27,-119.53C758.75,-116.28 992.91,-106.19 1188.5,-76 1191.18,-75.59 1193.95,-75.08 1196.72,-74.53"/>
<polygon fill="midnightblue" stroke="midnightblue" points="645.99,-116.04 636.09,-119.81 646.19,-123.03 645.99,-116.04"/>
</g>
<!-- Node11 -->
<g id="node11" class="node">
<title>Node11</title>
<g id="a_node11"><a xlink:href="$df/de8/a00839.html" xlink:title=" ">
<polygon fill="none" stroke="black" points="1274.5,-56.5 1274.5,-75.5 1382.5,-75.5 1382.5,-56.5 1274.5,-56.5"/>
<text text-anchor="middle" x="1328.5" y="-63.5" font-family="Helvetica,sans-Serif" font-size="10.00">MessageEntities.cpp</text>
</a>
</g>
</g>
<!-- Node3&#45;&gt;Node11 -->
<g id="edge10" class="edge">
<title>Node3&#45;&gt;Node11</title>
<path fill="none" stroke="midnightblue" d="M646.09,-118.32C768.82,-113.02 1038.9,-99.58 1265.5,-76 1268.36,-75.7 1271.28,-75.37 1274.24,-75.02"/>
<polygon fill="midnightblue" stroke="midnightblue" points="645.93,-114.83 636.09,-118.75 646.23,-121.82 645.93,-114.83"/>
</g>
<!-- Node12 -->
<g id="node12" class="node">
<title>Node12</title>
<g id="a_node12"><a xlink:href="$d9/d30/a00848.html" xlink:title=" ">
<polygon fill="none" stroke="black" points="252.5,-56.5 252.5,-75.5 326.5,-75.5 326.5,-56.5 252.5,-56.5"/>
<text text-anchor="middle" x="289.5" y="-63.5" font-family="Helvetica,sans-Serif" font-size="10.00">SongAPI.cpp</text>
</a>
</g>
</g>
<!-- Node3&#45;&gt;Node12 -->
<g id="edge11" class="edge">
<title>Node3&#45;&gt;Node12</title>
<path fill="none" stroke="midnightblue" d="M522.37,-110.64C472.9,-101.63 399.44,-88.15 335.5,-76 332.62,-75.45 329.64,-74.88 326.65,-74.3"/>
<polygon fill="midnightblue" stroke="midnightblue" points="521.77,-114.09 532.24,-112.44 523.03,-107.21 521.77,-114.09"/>
</g>
<!-- Node13 -->
<g id="node13" class="node">
<title>Node13</title>
<g id="a_node13"><a xlink:href="$df/d4c/a00851.html" xlink:title=" ">
<polygon fill="none" stroke="black" points="344.5,-56.5 344.5,-75.5 448.5,-75.5 448.5,-56.5 344.5,-56.5"/>
<text text-anchor="middle" x="396.5" y="-63.5" font-family="Helvetica,sans-Serif" font-size="10.00">SoundCloudAPI.cpp</text>
</a>
</g>
</g>
<!-- Node3&#45;&gt;Node13 -->
<g id="edge12" class="edge">
<title>Node3&#45;&gt;Node13</title>
<path fill="none" stroke="midnightblue" d="M540.76,-109.57C506.24,-99.38 456.49,-84.7 425.36,-75.52"/>
<polygon fill="midnightblue" stroke="midnightblue" points="539.92,-112.97 550.5,-112.44 541.9,-106.26 539.92,-112.97"/>
</g>
<!-- Node14 -->
<g id="node14" class="node">
<title>Node14</title>
<g id="a_node14"><a xlink:href="$d1/d93/a00875.html" xlink:title=" ">
<polygon fill="none" stroke="black" points="467,-56.5 467,-75.5 576,-75.5 576,-56.5 467,-56.5"/>
<text text-anchor="middle" x="521.5" y="-63.5" font-family="Helvetica,sans-Serif" font-size="10.00">VoiceConnection.cpp</text>
</a>
</g>
</g>
<!-- Node3&#45;&gt;Node14 -->
<g id="edge13" class="edge">
<title>Node3&#45;&gt;Node14</title>
<path fill="none" stroke="midnightblue" d="M562.59,-105.25C552.3,-95.67 539.53,-83.79 530.99,-75.83"/>
<polygon fill="midnightblue" stroke="midnightblue" points="560.48,-108.07 570.18,-112.32 565.25,-102.95 560.48,-108.07"/>
</g>
<!-- Node15 -->
<g id="node15" class="node">
<title>Node15</title>
<g id="a_node15"><a xlink:href="$df/d41/a00881.html" xlink:title=" ">
<polygon fill="none" stroke="black" points="0,-56.5 0,-75.5 119,-75.5 119,-56.5 0,-56.5"/>
<text text-anchor="middle" x="59.5" y="-63.5" font-family="Helvetica,sans-Serif" font-size="10.00">WebSocketEntities.cpp</text>
</a>
</g>
</g>
<!-- Node3&#45;&gt;Node15 -->
<g id="edge14" class="edge">
<title>Node3&#45;&gt;Node15</title>
<path fill="none" stroke="midnightblue" d="M512.72,-114.97C424.62,-106.88 264.79,-91.68 128.5,-76 125.5,-75.65 122.43,-75.29 119.33,-74.92"/>
<polygon fill="midnightblue" stroke="midnightblue" points="512.56,-118.47 522.84,-115.9 513.2,-111.5 512.56,-118.47"/>
</g>
<!-- Node16 -->
<g id="node16" class="node">
<title>Node16</title>
<g id="a_node16"><a xlink:href="$dd/d08/a00884.html" xlink:title=" ">
<polygon fill="none" stroke="black" points="594,-56.5 594,-75.5 683,-75.5 683,-56.5 594,-56.5"/>
<text text-anchor="middle" x="638.5" y="-63.5" font-family="Helvetica,sans-Serif" font-size="10.00">YouTubeAPI.cpp</text>
</a>
</g>
</g>
<!-- Node3&#45;&gt;Node16 -->
<g id="edge15" class="edge">
<title>Node3&#45;&gt;Node16</title>
<path fill="none" stroke="midnightblue" d="M596.39,-105.54C606.91,-95.91 620.07,-83.87 628.85,-75.83"/>
<polygon fill="midnightblue" stroke="midnightblue" points="593.99,-102.99 588.98,-112.32 598.72,-108.15 593.99,-102.99"/>
</g>
<!-- Node10 -->
<g id="node10" class="node">
<title>Node10</title>
<g id="a_node10"><a xlink:href="$dd/d7e/a00809.html" xlink:title=" ">
<polygon fill="none" stroke="black" points="1192.5,-0.5 1192.5,-19.5 1260.5,-19.5 1260.5,-0.5 1192.5,-0.5"/>
<text text-anchor="middle" x="1226.5" y="-7.5" font-family="Helvetica,sans-Serif" font-size="10.00">DllMain.cpp</text>
</a>
</g>
</g>
<!-- Node9&#45;&gt;Node10 -->
<g id="edge9" class="edge">
<title>Node9&#45;&gt;Node10</title>
<path fill="none" stroke="midnightblue" d="M1226.5,-45.8C1226.5,-36.91 1226.5,-26.78 1226.5,-19.75"/>
<polygon fill="midnightblue" stroke="midnightblue" points="1223,-46.08 1226.5,-56.08 1230,-46.08 1223,-46.08"/>
</g>
<!-- Node17&#45;&gt;Node3 -->
<g id="edge17" class="edge">
<title>Node17&#45;&gt;Node3</title>
<path fill="none" stroke="midnightblue" d="M416.12,-165.83C455.01,-155.63 511.66,-140.78 547.01,-131.52"/>
<polygon fill="midnightblue" stroke="midnightblue" points="414.93,-162.52 406.14,-168.44 416.7,-169.29 414.93,-162.52"/>
</g>
<!-- Node17&#45;&gt;Node6 -->
<g id="edge18" class="edge">
<title>Node17&#45;&gt;Node6</title>
<path fill="none" stroke="midnightblue" d="M350.09,-163.3C310.78,-140.3 232.65,-94.59 200.18,-75.59"/>
<polygon fill="midnightblue" stroke="midnightblue" points="348.35,-166.34 358.75,-168.37 351.88,-160.3 348.35,-166.34"/>
</g>
<!-- Node17&#45;&gt;Node15 -->
<g id="edge19" class="edge">
<title>Node17&#45;&gt;Node15</title>
<path fill="none" stroke="midnightblue" d="M339.54,-165.1C275.84,-142.79 139.8,-95.13 84.08,-75.61"/>
<polygon fill="midnightblue" stroke="midnightblue" points="338.53,-168.46 349.12,-168.46 340.84,-161.85 338.53,-168.46"/>
</g>
</g>
</svg>
