<?xml version="1.0" encoding="UTF-8" standalone="no"?>
<!DOCTYPE svg PUBLIC "-//W3C//DTD SVG 1.1//EN"
 "http://www.w3.org/Graphics/SVG/1.1/DTD/svg11.dtd">
<!-- Generated by graphviz version 2.43.0 (0)
 -->
<!-- Title: DiscordCoreAPI::SelectMenuCollector::SelectMenuCollector Pages: 1 -->
<svg width="361pt" height="134pt"
 viewBox="0.00 0.00 361.00 134.00" xmlns="http://www.w3.org/2000/svg" xmlns:xlink="http://www.w3.org/1999/xlink">
<g id="graph0" class="graph" transform="scale(1 1) rotate(0) translate(4 130)">
<title>DiscordCoreAPI::SelectMenuCollector::SelectMenuCollector</title>
<!-- Node1 -->
<g id="node1" class="node">
<title>Node1</title>
<g id="a_node1"><a xlink:title="Constructor.">
<polygon fill="#bfbfbf" stroke="black" points="167,-78 0,-78 0,-48 167,-48 167,-78"/>
<text text-anchor="start" x="8" y="-66" font-family="Helvetica,sans-Serif" font-size="10.00">DiscordCoreAPI::SelectMenu</text>
<text text-anchor="middle" x="83.5" y="-55" font-family="Helvetica,sans-Serif" font-size="10.00">Collector::SelectMenuCollector</text>
</a>
</g>
</g>
<!-- Node2 -->
<g id="node2" class="node">
<title>Node2</title>
<g id="a_node2"><a xlink:href="../../d0/d5a/a02784.html#a97c397fe274250bfff73cf674810a8f5" target="_top" xlink:title="Returns the Channel id of this input&#45;event.">
<polygon fill="none" stroke="black" points="353,-126 203,-126 203,-96 353,-96 353,-126"/>
<text text-anchor="start" x="211" y="-114" font-family="Helvetica,sans-Serif" font-size="10.00">DiscordCoreAPI::InputEvent</text>
<text text-anchor="middle" x="278" y="-103" font-family="Helvetica,sans-Serif" font-size="10.00">Data::getChannelId</text>
</a>
</g>
</g>
<!-- Node1&#45;&gt;Node2 -->
<g id="edge1" class="edge">
<title>Node1&#45;&gt;Node2</title>
<path fill="none" stroke="midnightblue" d="M144.88,-78.06C164.59,-82.97 186.64,-88.47 207,-93.54"/>
<polygon fill="midnightblue" stroke="midnightblue" points="206.28,-96.97 216.83,-96 207.98,-90.18 206.28,-96.97"/>
</g>
<!-- Node3 -->
<g id="node3" class="node">
<title>Node3</title>
<g id="a_node3"><a xlink:href="../../d0/d5a/a02784.html#a520bbb225cdbd19ef871d3a00189acff" target="_top" xlink:title="Returns the InteractionData, if applicable, of this input&#45;event.">
<polygon fill="none" stroke="black" points="353,-78 203,-78 203,-48 353,-48 353,-78"/>
<text text-anchor="start" x="211" y="-66" font-family="Helvetica,sans-Serif" font-size="10.00">DiscordCoreAPI::InputEvent</text>
<text text-anchor="middle" x="278" y="-55" font-family="Helvetica,sans-Serif" font-size="10.00">Data::getInteractionData</text>
</a>
</g>
</g>
<!-- Node1&#45;&gt;Node3 -->
<g id="edge2" class="edge">
<title>Node1&#45;&gt;Node3</title>
<path fill="none" stroke="midnightblue" d="M167.25,-63C175.66,-63 184.2,-63 192.62,-63"/>
<polygon fill="midnightblue" stroke="midnightblue" points="192.82,-66.5 202.82,-63 192.82,-59.5 192.82,-66.5"/>
</g>
<!-- Node4 -->
<g id="node4" class="node">
<title>Node4</title>
<g id="a_node4"><a xlink:href="../../d0/d5a/a02784.html#af7be2b81b312794ea5398591d1a7e305" target="_top" xlink:title="Returns the Message id, if applicable, of this input&#45;event.">
<polygon fill="none" stroke="black" points="353,-30 203,-30 203,0 353,0 353,-30"/>
<text text-anchor="start" x="211" y="-18" font-family="Helvetica,sans-Serif" font-size="10.00">DiscordCoreAPI::InputEvent</text>
<text text-anchor="middle" x="278" y="-7" font-family="Helvetica,sans-Serif" font-size="10.00">Data::getMessageId</text>
</a>
</g>
</g>
<!-- Node1&#45;&gt;Node4 -->
<g id="edge3" class="edge">
<title>Node1&#45;&gt;Node4</title>
<path fill="none" stroke="midnightblue" d="M144.88,-47.94C164.59,-43.03 186.64,-37.53 207,-32.46"/>
<polygon fill="midnightblue" stroke="midnightblue" points="207.98,-35.82 216.83,-30 206.28,-29.03 207.98,-35.82"/>
</g>
</g>
</svg>
