<?xml version="1.0" encoding="UTF-8" standalone="no"?>
<!DOCTYPE svg PUBLIC "-//W3C//DTD SVG 1.1//EN"
 "http://www.w3.org/Graphics/SVG/1.1/DTD/svg11.dtd">
<!-- Generated by graphviz version 2.43.0 (0)
 -->
<!-- Title: UserEntities.cpp Pages: 1 -->
<svg width="2784pt" height="666pt"
 viewBox="0.00 0.00 2783.50 666.00" xmlns="http://www.w3.org/2000/svg" xmlns:xlink="http://www.w3.org/1999/xlink">
<g id="graph0" class="graph" transform="scale(1 1) rotate(0) translate(4 662)">
<title>UserEntities.cpp</title>
<!-- Node1 -->
<g id="node1" class="node">
<title>Node1</title>
<g id="a_node1"><a xlink:title=" ">
<polygon fill="#bfbfbf" stroke="black" points="884.5,-638.5 884.5,-657.5 980.5,-657.5 980.5,-638.5 884.5,-638.5"/>
<text text-anchor="middle" x="932.5" y="-645.5" font-family="Helvetica,sans-Serif" font-size="10.00">UserEntities.cpp</text>
</a>
</g>
</g>
<!-- Node2 -->
<g id="node2" class="node">
<title>Node2</title>
<g id="a_node2"><a xlink:href="../../d3/d2c/a00764.html" target="_top" xlink:title=" ">
<polygon fill="none" stroke="black" points="733,-582.5 733,-601.5 904,-601.5 904,-582.5 733,-582.5"/>
<text text-anchor="middle" x="818.5" y="-589.5" font-family="Helvetica,sans-Serif" font-size="10.00">discordcoreapi/UserEntities.hpp</text>
</a>
</g>
</g>
<!-- Node1&#45;&gt;Node2 -->
<g id="edge1" class="edge">
<title>Node1&#45;&gt;Node2</title>
<path fill="none" stroke="midnightblue" d="M914.44,-638.44C895.93,-629.68 866.92,-615.94 845.64,-605.86"/>
<polygon fill="midnightblue" stroke="midnightblue" points="847.01,-602.63 836.48,-601.52 844.02,-608.96 847.01,-602.63"/>
</g>
<!-- Node34 -->
<g id="node34" class="node">
<title>Node34</title>
<g id="a_node34"><a xlink:href="../../d5/d5b/a00695.html" target="_top" xlink:title=" ">
<polygon fill="none" stroke="black" points="813.5,-403.5 813.5,-422.5 975.5,-422.5 975.5,-403.5 813.5,-403.5"/>
<text text-anchor="middle" x="894.5" y="-410.5" font-family="Helvetica,sans-Serif" font-size="10.00">discordcoreapi/CoRoutine.hpp</text>
</a>
</g>
</g>
<!-- Node1&#45;&gt;Node34 -->
<g id="edge63" class="edge">
<title>Node1&#45;&gt;Node34</title>
<path fill="none" stroke="midnightblue" d="M931.1,-638.43C925.6,-604.68 905.34,-480.47 897.57,-432.8"/>
<polygon fill="midnightblue" stroke="midnightblue" points="901.01,-432.2 895.95,-422.9 894.11,-433.33 901.01,-432.2"/>
</g>
<!-- Node36 -->
<g id="node36" class="node">
<title>Node36</title>
<g id="a_node36"><a xlink:href="../../db/d7c/a00722.html" target="_top" xlink:title=" ">
<polygon fill="none" stroke="black" points="2039.5,-291.5 2039.5,-310.5 2177.5,-310.5 2177.5,-291.5 2039.5,-291.5"/>
<text text-anchor="middle" x="2108.5" y="-298.5" font-family="Helvetica,sans-Serif" font-size="10.00">discordcoreapi/Https.hpp</text>
</a>
</g>
</g>
<!-- Node1&#45;&gt;Node36 -->
<g id="edge64" class="edge">
<title>Node1&#45;&gt;Node36</title>
<path fill="none" stroke="midnightblue" d="M980.85,-646.57C1271.63,-643.67 2775.5,-624.17 2775.5,-531.5 2775.5,-531.5 2775.5,-531.5 2775.5,-412 2775.5,-353.03 2364.42,-318.86 2187.7,-306.89"/>
<polygon fill="midnightblue" stroke="midnightblue" points="2187.89,-303.39 2177.68,-306.22 2187.42,-310.38 2187.89,-303.39"/>
</g>
<!-- Node3 -->
<g id="node3" class="node">
<title>Node3</title>
<g id="a_node3"><a xlink:href="../../d4/deb/a00710.html" target="_top" xlink:title=" ">
<polygon fill="none" stroke="black" points="1007,-112.5 1007,-142.5 1152,-142.5 1152,-112.5 1007,-112.5"/>
<text text-anchor="start" x="1015" y="-130.5" font-family="Helvetica,sans-Serif" font-size="10.00">discordcoreapi/Foundation</text>
<text text-anchor="middle" x="1079.5" y="-119.5" font-family="Helvetica,sans-Serif" font-size="10.00">Entities.hpp</text>
</a>
</g>
</g>
<!-- Node2&#45;&gt;Node3 -->
<g id="edge2" class="edge">
<title>Node2&#45;&gt;Node3</title>
<path fill="none" stroke="midnightblue" d="M814.45,-582.41C805.64,-562.9 785.5,-513.55 785.5,-470 785.5,-470 785.5,-470 785.5,-244 785.5,-198.32 909.98,-163.19 996.95,-144.21"/>
<polygon fill="midnightblue" stroke="midnightblue" points="997.78,-147.61 1006.83,-142.09 996.31,-140.77 997.78,-147.61"/>
</g>
<!-- Node28 -->
<g id="node28" class="node">
<title>Node28</title>
<g id="a_node28"><a xlink:href="../../d9/dd4/a00776.html" target="_top" xlink:title=" ">
<polygon fill="none" stroke="black" points="1216.5,-515.5 1216.5,-545.5 1360.5,-545.5 1360.5,-515.5 1216.5,-515.5"/>
<text text-anchor="start" x="1224.5" y="-533.5" font-family="Helvetica,sans-Serif" font-size="10.00">discordcoreapi/WebSocket</text>
<text text-anchor="middle" x="1288.5" y="-522.5" font-family="Helvetica,sans-Serif" font-size="10.00">Entities.hpp</text>
</a>
</g>
</g>
<!-- Node2&#45;&gt;Node28 -->
<g id="edge27" class="edge">
<title>Node2&#45;&gt;Node28</title>
<path fill="none" stroke="midnightblue" d="M885.84,-582.48C970.37,-571.77 1115.28,-553.43 1206.27,-541.91"/>
<polygon fill="midnightblue" stroke="midnightblue" points="1206.79,-545.37 1216.27,-540.64 1205.91,-538.43 1206.79,-545.37"/>
</g>
<!-- Node4 -->
<g id="node4" class="node">
<title>Node4</title>
<g id="a_node4"><a xlink:href="../../d5/dae/a00767.html" target="_top" xlink:title=" ">
<polygon fill="none" stroke="black" points="1004.5,-56.5 1004.5,-75.5 1154.5,-75.5 1154.5,-56.5 1004.5,-56.5"/>
<text text-anchor="middle" x="1079.5" y="-63.5" font-family="Helvetica,sans-Serif" font-size="10.00">discordcoreapi/Utilities.hpp</text>
</a>
</g>
</g>
<!-- Node3&#45;&gt;Node4 -->
<g id="edge3" class="edge">
<title>Node3&#45;&gt;Node4</title>
<path fill="none" stroke="midnightblue" d="M1079.5,-112.4C1079.5,-104.47 1079.5,-94.46 1079.5,-85.86"/>
<polygon fill="midnightblue" stroke="midnightblue" points="1083,-85.66 1079.5,-75.66 1076,-85.66 1083,-85.66"/>
</g>
<!-- Node5 -->
<g id="node5" class="node">
<title>Node5</title>
<g id="a_node5"><a xlink:title=" ">
<polygon fill="none" stroke="#bfbfbf" points="0,-0.5 0,-19.5 63,-19.5 63,-0.5 0,-0.5"/>
<text text-anchor="middle" x="31.5" y="-7.5" font-family="Helvetica,sans-Serif" font-size="10.00">pthread.h</text>
</a>
</g>
</g>
<!-- Node4&#45;&gt;Node5 -->
<g id="edge4" class="edge">
<title>Node4&#45;&gt;Node5</title>
<path fill="none" stroke="midnightblue" d="M1004.15,-63.31C805.75,-58.59 271.21,-44.11 73.21,-19.8"/>
<polygon fill="midnightblue" stroke="midnightblue" points="73.55,-16.31 63.19,-18.52 72.67,-23.26 73.55,-16.31"/>
</g>
<!-- Node6 -->
<g id="node6" class="node">
<title>Node6</title>
<g id="a_node6"><a xlink:title=" ">
<polygon fill="none" stroke="#bfbfbf" points="81.5,-0.5 81.5,-19.5 149.5,-19.5 149.5,-0.5 81.5,-0.5"/>
<text text-anchor="middle" x="115.5" y="-7.5" font-family="Helvetica,sans-Serif" font-size="10.00">sys/time.h</text>
</a>
</g>
</g>
<!-- Node4&#45;&gt;Node6 -->
<g id="edge5" class="edge">
<title>Node4&#45;&gt;Node6</title>
<path fill="none" stroke="midnightblue" d="M1004.24,-65.32C848.34,-65.13 478.76,-60.16 160.05,-19.98"/>
<polygon fill="midnightblue" stroke="midnightblue" points="160.05,-16.45 149.69,-18.66 159.16,-23.4 160.05,-16.45"/>
</g>
<!-- Node7 -->
<g id="node7" class="node">
<title>Node7</title>
<g id="a_node7"><a xlink:title=" ">
<polygon fill="none" stroke="#bfbfbf" points="167.5,-0.5 167.5,-19.5 215.5,-19.5 215.5,-0.5 167.5,-0.5"/>
<text text-anchor="middle" x="191.5" y="-7.5" font-family="Helvetica,sans-Serif" font-size="10.00">time.h</text>
</a>
</g>
</g>
<!-- Node4&#45;&gt;Node7 -->
<g id="edge6" class="edge">
<title>Node4&#45;&gt;Node7</title>
<path fill="none" stroke="midnightblue" d="M1004.22,-63.1C828.05,-58.33 391.93,-44.55 225.61,-19.76"/>
<polygon fill="midnightblue" stroke="midnightblue" points="225.94,-16.27 215.52,-18.19 224.86,-23.19 225.94,-16.27"/>
</g>
<!-- Node8 -->
<g id="node8" class="node">
<title>Node8</title>
<g id="a_node8"><a xlink:title=" ">
<polygon fill="none" stroke="#bfbfbf" points="233.5,-0.5 233.5,-19.5 277.5,-19.5 277.5,-0.5 233.5,-0.5"/>
<text text-anchor="middle" x="255.5" y="-7.5" font-family="Helvetica,sans-Serif" font-size="10.00">ctime</text>
</a>
</g>
</g>
<!-- Node4&#45;&gt;Node8 -->
<g id="edge7" class="edge">
<title>Node4&#45;&gt;Node8</title>
<path fill="none" stroke="midnightblue" d="M1004.33,-62.9C837.88,-57.91 441.44,-44.04 287.9,-19.79"/>
<polygon fill="midnightblue" stroke="midnightblue" points="288.15,-16.28 277.71,-18.1 287,-23.19 288.15,-16.28"/>
</g>
<!-- Node9 -->
<g id="node9" class="node">
<title>Node9</title>
<g id="a_node9"><a xlink:title=" ">
<polygon fill="none" stroke="#bfbfbf" points="296,-0.5 296,-19.5 403,-19.5 403,-0.5 296,-0.5"/>
<text text-anchor="middle" x="349.5" y="-7.5" font-family="Helvetica,sans-Serif" font-size="10.00">condition_variable</text>
</a>
</g>
</g>
<!-- Node4&#45;&gt;Node9 -->
<g id="edge8" class="edge">
<title>Node4&#45;&gt;Node9</title>
<path fill="none" stroke="midnightblue" d="M1004.32,-61.76C882.52,-56.1 634.28,-42.89 413.25,-19.99"/>
<polygon fill="midnightblue" stroke="midnightblue" points="413.39,-16.49 403.08,-18.93 412.66,-23.45 413.39,-16.49"/>
</g>
<!-- Node10 -->
<g id="node10" class="node">
<title>Node10</title>
<g id="a_node10"><a xlink:title=" ">
<polygon fill="none" stroke="#bfbfbf" points="421.5,-0.5 421.5,-19.5 531.5,-19.5 531.5,-0.5 421.5,-0.5"/>
<text text-anchor="middle" x="476.5" y="-7.5" font-family="Helvetica,sans-Serif" font-size="10.00">nlohmann/json.hpp</text>
</a>
</g>
</g>
<!-- Node4&#45;&gt;Node10 -->
<g id="edge9" class="edge">
<title>Node4&#45;&gt;Node10</title>
<path fill="none" stroke="midnightblue" d="M1004.38,-60.07C902.09,-53.06 713.05,-39.04 541.6,-20.06"/>
<polygon fill="midnightblue" stroke="midnightblue" points="541.96,-16.58 531.63,-18.95 541.18,-23.54 541.96,-16.58"/>
</g>
<!-- Node11 -->
<g id="node11" class="node">
<title>Node11</title>
<g id="a_node11"><a xlink:title=" ">
<polygon fill="none" stroke="#bfbfbf" points="550,-0.5 550,-19.5 643,-19.5 643,-0.5 550,-0.5"/>
<text text-anchor="middle" x="596.5" y="-7.5" font-family="Helvetica,sans-Serif" font-size="10.00">source_location</text>
</a>
</g>
</g>
<!-- Node4&#45;&gt;Node11 -->
<g id="edge10" class="edge">
<title>Node4&#45;&gt;Node11</title>
<path fill="none" stroke="midnightblue" d="M1004.35,-58.42C920.93,-50.81 782.07,-37.27 653.32,-20.18"/>
<polygon fill="midnightblue" stroke="midnightblue" points="653.66,-16.7 643.28,-18.84 652.73,-23.64 653.66,-16.7"/>
</g>
<!-- Node12 -->
<g id="node12" class="node">
<title>Node12</title>
<g id="a_node12"><a xlink:title=" ">
<polygon fill="none" stroke="#bfbfbf" points="661,-0.5 661,-19.5 754,-19.5 754,-0.5 661,-0.5"/>
<text text-anchor="middle" x="707.5" y="-7.5" font-family="Helvetica,sans-Serif" font-size="10.00">unordered_map</text>
</a>
</g>
</g>
<!-- Node4&#45;&gt;Node12 -->
<g id="edge11" class="edge">
<title>Node4&#45;&gt;Node12</title>
<path fill="none" stroke="midnightblue" d="M1017.39,-56.49C955.82,-47.98 858.51,-34.32 764.24,-20.09"/>
<polygon fill="midnightblue" stroke="midnightblue" points="764.65,-16.61 754.24,-18.58 763.6,-23.53 764.65,-16.61"/>
</g>
<!-- Node13 -->
<g id="node13" class="node">
<title>Node13</title>
<g id="a_node13"><a xlink:title=" ">
<polygon fill="none" stroke="#bfbfbf" points="772.5,-0.5 772.5,-19.5 858.5,-19.5 858.5,-0.5 772.5,-0.5"/>
<text text-anchor="middle" x="815.5" y="-7.5" font-family="Helvetica,sans-Serif" font-size="10.00">shared_mutex</text>
</a>
</g>
</g>
<!-- Node4&#45;&gt;Node13 -->
<g id="edge12" class="edge">
<title>Node4&#45;&gt;Node13</title>
<path fill="none" stroke="midnightblue" d="M1037.67,-56.44C991.42,-46.98 916.89,-31.74 867.06,-21.55"/>
<polygon fill="midnightblue" stroke="midnightblue" points="867.63,-18.09 857.14,-19.52 866.23,-24.95 867.63,-18.09"/>
</g>
<!-- Node14 -->
<g id="node14" class="node">
<title>Node14</title>
<g id="a_node14"><a xlink:title=" ">
<polygon fill="none" stroke="#bfbfbf" points="877,-0.5 877,-19.5 942,-19.5 942,-0.5 877,-0.5"/>
<text text-anchor="middle" x="909.5" y="-7.5" font-family="Helvetica,sans-Serif" font-size="10.00">functional</text>
</a>
</g>
</g>
<!-- Node4&#45;&gt;Node14 -->
<g id="edge13" class="edge">
<title>Node4&#45;&gt;Node14</title>
<path fill="none" stroke="midnightblue" d="M1052.56,-56.44C1023.84,-47.32 978.17,-32.81 946.18,-22.65"/>
<polygon fill="midnightblue" stroke="midnightblue" points="946.9,-19.21 936.31,-19.52 944.78,-25.88 946.9,-19.21"/>
</g>
<!-- Node15 -->
<g id="node15" class="node">
<title>Node15</title>
<g id="a_node15"><a xlink:title=" ">
<polygon fill="none" stroke="#bfbfbf" points="960,-0.5 960,-19.5 1031,-19.5 1031,-0.5 960,-0.5"/>
<text text-anchor="middle" x="995.5" y="-7.5" font-family="Helvetica,sans-Serif" font-size="10.00">semaphore</text>
</a>
</g>
</g>
<!-- Node4&#45;&gt;Node15 -->
<g id="edge14" class="edge">
<title>Node4&#45;&gt;Node15</title>
<path fill="none" stroke="midnightblue" d="M1066,-56.32C1052.9,-47.9 1032.79,-34.97 1017.39,-25.07"/>
<polygon fill="midnightblue" stroke="midnightblue" points="1019.27,-22.12 1008.96,-19.65 1015.48,-28.01 1019.27,-22.12"/>
</g>
<!-- Node16 -->
<g id="node16" class="node">
<title>Node16</title>
<g id="a_node16"><a xlink:title=" ">
<polygon fill="none" stroke="#bfbfbf" points="1049.5,-0.5 1049.5,-19.5 1109.5,-19.5 1109.5,-0.5 1049.5,-0.5"/>
<text text-anchor="middle" x="1079.5" y="-7.5" font-family="Helvetica,sans-Serif" font-size="10.00">concepts</text>
</a>
</g>
</g>
<!-- Node4&#45;&gt;Node16 -->
<g id="edge15" class="edge">
<title>Node4&#45;&gt;Node16</title>
<path fill="none" stroke="midnightblue" d="M1079.5,-56.08C1079.5,-49.01 1079.5,-38.86 1079.5,-29.99"/>
<polygon fill="midnightblue" stroke="midnightblue" points="1083,-29.75 1079.5,-19.75 1076,-29.75 1083,-29.75"/>
</g>
<!-- Node17 -->
<g id="node17" class="node">
<title>Node17</title>
<g id="a_node17"><a xlink:title=" ">
<polygon fill="none" stroke="#bfbfbf" points="1127.5,-0.5 1127.5,-19.5 1187.5,-19.5 1187.5,-0.5 1127.5,-0.5"/>
<text text-anchor="middle" x="1157.5" y="-7.5" font-family="Helvetica,sans-Serif" font-size="10.00">iostream</text>
</a>
</g>
</g>
<!-- Node4&#45;&gt;Node17 -->
<g id="edge16" class="edge">
<title>Node4&#45;&gt;Node17</title>
<path fill="none" stroke="midnightblue" d="M1092.03,-56.32C1104.09,-47.98 1122.53,-35.21 1136.77,-25.35"/>
<polygon fill="midnightblue" stroke="midnightblue" points="1138.77,-28.22 1145,-19.65 1134.78,-22.47 1138.77,-28.22"/>
</g>
<!-- Node18 -->
<g id="node18" class="node">
<title>Node18</title>
<g id="a_node18"><a xlink:title=" ">
<polygon fill="none" stroke="#bfbfbf" points="1206,-0.5 1206,-19.5 1261,-19.5 1261,-0.5 1206,-0.5"/>
<text text-anchor="middle" x="1233.5" y="-7.5" font-family="Helvetica,sans-Serif" font-size="10.00">fstream</text>
</a>
</g>
</g>
<!-- Node4&#45;&gt;Node18 -->
<g id="edge17" class="edge">
<title>Node4&#45;&gt;Node18</title>
<path fill="none" stroke="midnightblue" d="M1103.9,-56.44C1129.7,-47.4 1170.58,-33.06 1199.52,-22.92"/>
<polygon fill="midnightblue" stroke="midnightblue" points="1200.93,-26.13 1209.21,-19.52 1198.62,-19.52 1200.93,-26.13"/>
</g>
<!-- Node19 -->
<g id="node19" class="node">
<title>Node19</title>
<g id="a_node19"><a xlink:title=" ">
<polygon fill="none" stroke="#bfbfbf" points="1279.5,-0.5 1279.5,-19.5 1323.5,-19.5 1323.5,-0.5 1279.5,-0.5"/>
<text text-anchor="middle" x="1301.5" y="-7.5" font-family="Helvetica,sans-Serif" font-size="10.00">bitset</text>
</a>
</g>
</g>
<!-- Node4&#45;&gt;Node19 -->
<g id="edge18" class="edge">
<title>Node4&#45;&gt;Node19</title>
<path fill="none" stroke="midnightblue" d="M1117.47,-56.5C1155.9,-47.77 1216.99,-33.6 1269.5,-20 1269.6,-19.97 1269.7,-19.95 1269.8,-19.92"/>
<polygon fill="midnightblue" stroke="midnightblue" points="1270.75,-23.29 1279.5,-17.32 1268.93,-16.53 1270.75,-23.29"/>
</g>
<!-- Node20 -->
<g id="node20" class="node">
<title>Node20</title>
<g id="a_node20"><a xlink:title=" ">
<polygon fill="none" stroke="#bfbfbf" points="1341.5,-0.5 1341.5,-19.5 1399.5,-19.5 1399.5,-0.5 1341.5,-0.5"/>
<text text-anchor="middle" x="1370.5" y="-7.5" font-family="Helvetica,sans-Serif" font-size="10.00">memory</text>
</a>
</g>
</g>
<!-- Node4&#45;&gt;Node20 -->
<g id="edge19" class="edge">
<title>Node4&#45;&gt;Node20</title>
<path fill="none" stroke="midnightblue" d="M1132.48,-56.47C1181.58,-48.37 1256.88,-35.43 1331.45,-20.12"/>
<polygon fill="midnightblue" stroke="midnightblue" points="1332.41,-23.5 1341.49,-18.05 1330.99,-16.65 1332.41,-23.5"/>
</g>
<!-- Node21 -->
<g id="node21" class="node">
<title>Node21</title>
<g id="a_node21"><a xlink:title=" ">
<polygon fill="none" stroke="#bfbfbf" points="1417.5,-0.5 1417.5,-19.5 1471.5,-19.5 1471.5,-0.5 1417.5,-0.5"/>
<text text-anchor="middle" x="1444.5" y="-7.5" font-family="Helvetica,sans-Serif" font-size="10.00">random</text>
</a>
</g>
</g>
<!-- Node4&#45;&gt;Node21 -->
<g id="edge20" class="edge">
<title>Node4&#45;&gt;Node21</title>
<path fill="none" stroke="midnightblue" d="M1154.69,-57.08C1219.27,-49.74 1315.01,-37.56 1407.36,-20.04"/>
<polygon fill="midnightblue" stroke="midnightblue" points="1408.28,-23.42 1417.44,-18.1 1406.96,-16.55 1408.28,-23.42"/>
</g>
<!-- Node22 -->
<g id="node22" class="node">
<title>Node22</title>
<g id="a_node22"><a xlink:title=" ">
<polygon fill="none" stroke="#bfbfbf" points="1489.5,-0.5 1489.5,-19.5 1533.5,-19.5 1533.5,-0.5 1489.5,-0.5"/>
<text text-anchor="middle" x="1511.5" y="-7.5" font-family="Helvetica,sans-Serif" font-size="10.00">string</text>
</a>
</g>
</g>
<!-- Node4&#45;&gt;Node22 -->
<g id="edge21" class="edge">
<title>Node4&#45;&gt;Node22</title>
<path fill="none" stroke="midnightblue" d="M1154.73,-60.41C1233.55,-54.73 1360.98,-43.09 1479.3,-19.93"/>
<polygon fill="midnightblue" stroke="midnightblue" points="1480.14,-23.33 1489.26,-17.95 1478.77,-16.47 1480.14,-23.33"/>
</g>
<!-- Node23 -->
<g id="node23" class="node">
<title>Node23</title>
<g id="a_node23"><a xlink:title=" ">
<polygon fill="none" stroke="#bfbfbf" points="1552,-0.5 1552,-19.5 1599,-19.5 1599,-0.5 1552,-0.5"/>
<text text-anchor="middle" x="1575.5" y="-7.5" font-family="Helvetica,sans-Serif" font-size="10.00">vector</text>
</a>
</g>
</g>
<!-- Node4&#45;&gt;Node23 -->
<g id="edge22" class="edge">
<title>Node4&#45;&gt;Node23</title>
<path fill="none" stroke="midnightblue" d="M1154.62,-61.61C1244.5,-56.69 1399.58,-45.41 1541.62,-19.84"/>
<polygon fill="midnightblue" stroke="midnightblue" points="1542.61,-23.22 1551.82,-17.97 1541.35,-16.33 1542.61,-23.22"/>
</g>
<!-- Node24 -->
<g id="node24" class="node">
<title>Node24</title>
<g id="a_node24"><a xlink:title=" ">
<polygon fill="none" stroke="#bfbfbf" points="1617.5,-0.5 1617.5,-19.5 1665.5,-19.5 1665.5,-0.5 1617.5,-0.5"/>
<text text-anchor="middle" x="1641.5" y="-7.5" font-family="Helvetica,sans-Serif" font-size="10.00">thread</text>
</a>
</g>
</g>
<!-- Node4&#45;&gt;Node24 -->
<g id="edge23" class="edge">
<title>Node4&#45;&gt;Node24</title>
<path fill="none" stroke="midnightblue" d="M1154.78,-62.69C1257.69,-58.61 1447.74,-47.74 1607.5,-20 1607.6,-19.98 1607.7,-19.96 1607.8,-19.95"/>
<polygon fill="midnightblue" stroke="midnightblue" points="1608.4,-23.4 1617.47,-17.91 1606.96,-16.55 1608.4,-23.4"/>
</g>
<!-- Node25 -->
<g id="node25" class="node">
<title>Node25</title>
<g id="a_node25"><a xlink:title=" ">
<polygon fill="none" stroke="#bfbfbf" points="1683.5,-0.5 1683.5,-19.5 1731.5,-19.5 1731.5,-0.5 1683.5,-0.5"/>
<text text-anchor="middle" x="1707.5" y="-7.5" font-family="Helvetica,sans-Serif" font-size="10.00">mutex</text>
</a>
</g>
</g>
<!-- Node4&#45;&gt;Node25 -->
<g id="edge24" class="edge">
<title>Node4&#45;&gt;Node25</title>
<path fill="none" stroke="midnightblue" d="M1154.74,-63.9C1266.25,-61.25 1481.94,-52.24 1673.5,-19.84"/>
<polygon fill="midnightblue" stroke="midnightblue" points="1674.21,-23.27 1683.47,-18.12 1673.02,-16.37 1674.21,-23.27"/>
</g>
<!-- Node26 -->
<g id="node26" class="node">
<title>Node26</title>
<g id="a_node26"><a xlink:title=" ">
<polygon fill="none" stroke="#bfbfbf" points="1750,-0.5 1750,-19.5 1797,-19.5 1797,-0.5 1750,-0.5"/>
<text text-anchor="middle" x="1773.5" y="-7.5" font-family="Helvetica,sans-Serif" font-size="10.00">queue</text>
</a>
</g>
</g>
<!-- Node4&#45;&gt;Node26 -->
<g id="edge25" class="edge">
<title>Node4&#45;&gt;Node26</title>
<path fill="none" stroke="midnightblue" d="M1154.91,-64.71C1276.37,-63.18 1522.79,-55.67 1739.85,-19.74"/>
<polygon fill="midnightblue" stroke="midnightblue" points="1740.55,-23.17 1749.83,-18.06 1739.39,-16.26 1740.55,-23.17"/>
</g>
<!-- Node27 -->
<g id="node27" class="node">
<title>Node27</title>
<g id="a_node27"><a xlink:title=" ">
<polygon fill="none" stroke="#bfbfbf" points="1815.5,-0.5 1815.5,-19.5 1853.5,-19.5 1853.5,-0.5 1815.5,-0.5"/>
<text text-anchor="middle" x="1834.5" y="-7.5" font-family="Helvetica,sans-Serif" font-size="10.00">map</text>
</a>
</g>
</g>
<!-- Node4&#45;&gt;Node27 -->
<g id="edge26" class="edge">
<title>Node4&#45;&gt;Node27</title>
<path fill="none" stroke="midnightblue" d="M1154.69,-62.72C1310.57,-57.61 1665.36,-43.94 1805.29,-19.68"/>
<polygon fill="midnightblue" stroke="midnightblue" points="1806.17,-23.08 1815.38,-17.84 1804.92,-16.19 1806.17,-23.08"/>
</g>
<!-- Node28&#45;&gt;Node3 -->
<g id="edge28" class="edge">
<title>Node28&#45;&gt;Node3</title>
<path fill="none" stroke="midnightblue" d="M1216.41,-524.21C1147.59,-517.72 1050.39,-504.31 1022.5,-479 1000.21,-458.77 1003.5,-444.1 1003.5,-414 1003.5,-414 1003.5,-414 1003.5,-244 1003.5,-205.99 1032.57,-170.82 1054.75,-149.51"/>
<polygon fill="midnightblue" stroke="midnightblue" points="1057.29,-151.93 1062.25,-142.57 1052.54,-146.79 1057.29,-151.93"/>
</g>
<!-- Node29 -->
<g id="node29" class="node">
<title>Node29</title>
<g id="a_node29"><a xlink:href="../../d4/d9b/a00680.html" target="_top" xlink:title=" ">
<polygon fill="none" stroke="black" points="1218,-235.5 1218,-254.5 1397,-254.5 1397,-235.5 1218,-235.5"/>
<text text-anchor="middle" x="1307.5" y="-242.5" font-family="Helvetica,sans-Serif" font-size="10.00">discordcoreapi/AudioDecoder.hpp</text>
</a>
</g>
</g>
<!-- Node28&#45;&gt;Node29 -->
<g id="edge29" class="edge">
<title>Node28&#45;&gt;Node29</title>
<path fill="none" stroke="midnightblue" d="M1292.34,-515.4C1297.9,-493.76 1307.5,-450.99 1307.5,-414 1307.5,-414 1307.5,-414 1307.5,-356 1307.5,-323.95 1307.5,-286.64 1307.5,-264.75"/>
<polygon fill="midnightblue" stroke="midnightblue" points="1311,-264.56 1307.5,-254.56 1304,-264.56 1311,-264.56"/>
</g>
<!-- Node30 -->
<g id="node30" class="node">
<title>Node30</title>
<g id="a_node30"><a xlink:href="../../d4/d6a/a00704.html" target="_top" xlink:title=" ">
<polygon fill="none" stroke="black" points="1471.5,-179.5 1471.5,-198.5 1647.5,-198.5 1647.5,-179.5 1471.5,-179.5"/>
<text text-anchor="middle" x="1559.5" y="-186.5" font-family="Helvetica,sans-Serif" font-size="10.00">discordcoreapi/EventEntities.hpp</text>
</a>
</g>
</g>
<!-- Node28&#45;&gt;Node30 -->
<g id="edge60" class="edge">
<title>Node28&#45;&gt;Node30</title>
<path fill="none" stroke="midnightblue" d="M1360.71,-518.76C1419.39,-505.46 1492.5,-476.37 1492.5,-414 1492.5,-414 1492.5,-414 1492.5,-300 1492.5,-261.7 1522.49,-225.42 1542.34,-205.59"/>
<polygon fill="midnightblue" stroke="midnightblue" points="1544.83,-208.05 1549.61,-198.6 1539.98,-203 1544.83,-208.05"/>
</g>
<!-- Node33 -->
<g id="node33" class="node">
<title>Node33</title>
<g id="a_node33"><a xlink:href="../../d0/db6/a00692.html" target="_top" xlink:title=" ">
<polygon fill="none" stroke="black" points="1032,-459.5 1032,-478.5 1241,-478.5 1241,-459.5 1032,-459.5"/>
<text text-anchor="middle" x="1136.5" y="-466.5" font-family="Helvetica,sans-Serif" font-size="10.00">discordcoreapi/CommandController.hpp</text>
</a>
</g>
</g>
<!-- Node28&#45;&gt;Node33 -->
<g id="edge35" class="edge">
<title>Node28&#45;&gt;Node33</title>
<path fill="none" stroke="midnightblue" d="M1252.48,-515.4C1226.86,-505.37 1192.77,-492.03 1168.19,-482.4"/>
<polygon fill="midnightblue" stroke="midnightblue" points="1169.21,-479.04 1158.62,-478.66 1166.65,-485.56 1169.21,-479.04"/>
</g>
<!-- Node35 -->
<g id="node35" class="node">
<title>Node35</title>
<g id="a_node35"><a xlink:href="../../d3/d4f/a00761.html" target="_top" xlink:title=" ">
<polygon fill="none" stroke="black" points="1091,-347.5 1091,-366.5 1258,-366.5 1258,-347.5 1091,-347.5"/>
<text text-anchor="middle" x="1174.5" y="-354.5" font-family="Helvetica,sans-Serif" font-size="10.00">discordcoreapi/ThreadPool.hpp</text>
</a>
</g>
</g>
<!-- Node28&#45;&gt;Node35 -->
<g id="edge62" class="edge">
<title>Node28&#45;&gt;Node35</title>
<path fill="none" stroke="midnightblue" d="M1281.41,-515.4C1273.97,-500.94 1261.69,-477.94 1249.5,-459 1229.61,-428.11 1203.47,-394.2 1187.89,-374.58"/>
<polygon fill="midnightblue" stroke="midnightblue" points="1190.51,-372.26 1181.53,-366.63 1185.04,-376.63 1190.51,-372.26"/>
</g>
<!-- Node37 -->
<g id="node37" class="node">
<title>Node37</title>
<g id="a_node37"><a xlink:href="../../d5/de8/a00749.html" target="_top" xlink:title=" ">
<polygon fill="none" stroke="black" points="2027,-235.5 2027,-254.5 2190,-254.5 2190,-235.5 2027,-235.5"/>
<text text-anchor="middle" x="2108.5" y="-242.5" font-family="Helvetica,sans-Serif" font-size="10.00">discordcoreapi/SSLClients.hpp</text>
</a>
</g>
</g>
<!-- Node28&#45;&gt;Node37 -->
<g id="edge61" class="edge">
<title>Node28&#45;&gt;Node37</title>
<path fill="none" stroke="midnightblue" d="M1360.52,-528.26C1502.42,-523.85 1804.5,-503.91 1804.5,-414 1804.5,-414 1804.5,-414 1804.5,-356 1804.5,-305.81 1952.89,-272.06 2042.32,-256.27"/>
<polygon fill="midnightblue" stroke="midnightblue" points="2043.13,-259.68 2052.39,-254.53 2041.94,-252.79 2043.13,-259.68"/>
</g>
<!-- Node51 -->
<g id="node51" class="node">
<title>Node51</title>
<g id="a_node51"><a xlink:href="../../dd/d57/a00701.html" target="_top" xlink:title=" ">
<polygon fill="none" stroke="black" points="2437,-403.5 2437,-422.5 2592,-422.5 2592,-403.5 2437,-403.5"/>
<text text-anchor="middle" x="2514.5" y="-410.5" font-family="Helvetica,sans-Serif" font-size="10.00">discordcoreapi/ErlPacker.hpp</text>
</a>
</g>
</g>
<!-- Node28&#45;&gt;Node51 -->
<g id="edge58" class="edge">
<title>Node28&#45;&gt;Node51</title>
<path fill="none" stroke="midnightblue" d="M1360.61,-522.71C1572.91,-502.71 2195.2,-444.08 2426.55,-422.29"/>
<polygon fill="midnightblue" stroke="midnightblue" points="2426.98,-425.76 2436.6,-421.34 2426.32,-418.79 2426.98,-425.76"/>
</g>
<!-- Node29&#45;&gt;Node3 -->
<g id="edge32" class="edge">
<title>Node29&#45;&gt;Node3</title>
<path fill="none" stroke="midnightblue" d="M1235.57,-235.45C1203.34,-229.1 1166.01,-218.09 1136.5,-199 1117.94,-187 1102.59,-166.95 1092.51,-151.29"/>
<polygon fill="midnightblue" stroke="midnightblue" points="1095.43,-149.35 1087.2,-142.67 1089.47,-153.02 1095.43,-149.35"/>
</g>
<!-- Node29&#45;&gt;Node30 -->
<g id="edge30" class="edge">
<title>Node29&#45;&gt;Node30</title>
<path fill="none" stroke="midnightblue" d="M1347.43,-235.44C1391.39,-226.02 1462.13,-210.87 1509.68,-200.68"/>
<polygon fill="midnightblue" stroke="midnightblue" points="1510.71,-204.03 1519.76,-198.52 1509.25,-197.19 1510.71,-204.03"/>
</g>
<!-- Node31 -->
<g id="node31" class="node">
<title>Node31</title>
<g id="a_node31"><a xlink:title=" ">
<polygon fill="none" stroke="#bfbfbf" points="1146,-179.5 1146,-198.5 1277,-198.5 1277,-179.5 1146,-179.5"/>
<text text-anchor="middle" x="1211.5" y="-186.5" font-family="Helvetica,sans-Serif" font-size="10.00">libavformat/avformat.h</text>
</a>
</g>
</g>
<!-- Node29&#45;&gt;Node31 -->
<g id="edge33" class="edge">
<title>Node29&#45;&gt;Node31</title>
<path fill="none" stroke="midnightblue" d="M1292.08,-235.32C1276.96,-226.82 1253.68,-213.73 1236.03,-203.8"/>
<polygon fill="midnightblue" stroke="midnightblue" points="1237.32,-200.51 1226.89,-198.65 1233.89,-206.61 1237.32,-200.51"/>
</g>
<!-- Node32 -->
<g id="node32" class="node">
<title>Node32</title>
<g id="a_node32"><a xlink:title=" ">
<polygon fill="none" stroke="#bfbfbf" points="1295,-179.5 1295,-198.5 1454,-198.5 1454,-179.5 1295,-179.5"/>
<text text-anchor="middle" x="1374.5" y="-186.5" font-family="Helvetica,sans-Serif" font-size="10.00">libswresample/swresample.h</text>
</a>
</g>
</g>
<!-- Node29&#45;&gt;Node32 -->
<g id="edge34" class="edge">
<title>Node29&#45;&gt;Node32</title>
<path fill="none" stroke="midnightblue" d="M1318.26,-235.32C1328.27,-227.26 1343.39,-215.08 1355.43,-205.37"/>
<polygon fill="midnightblue" stroke="midnightblue" points="1357.95,-207.83 1363.54,-198.83 1353.56,-202.38 1357.95,-207.83"/>
</g>
<!-- Node30&#45;&gt;Node3 -->
<g id="edge31" class="edge">
<title>Node30&#45;&gt;Node3</title>
<path fill="none" stroke="midnightblue" d="M1490.73,-179.48C1404.03,-168.73 1255.12,-150.27 1162.27,-138.76"/>
<polygon fill="midnightblue" stroke="midnightblue" points="1162.43,-135.25 1152.07,-137.5 1161.57,-142.2 1162.43,-135.25"/>
</g>
<!-- Node33&#45;&gt;Node3 -->
<g id="edge36" class="edge">
<title>Node33&#45;&gt;Node3</title>
<path fill="none" stroke="midnightblue" d="M1120.81,-459.4C1093.83,-443.31 1041.5,-405.94 1041.5,-358 1041.5,-358 1041.5,-358 1041.5,-244 1041.5,-210.72 1055.91,-174.62 1066.99,-151.8"/>
<polygon fill="midnightblue" stroke="midnightblue" points="1070.25,-153.1 1071.63,-142.59 1064,-149.95 1070.25,-153.1"/>
</g>
<!-- Node33&#45;&gt;Node34 -->
<g id="edge37" class="edge">
<title>Node33&#45;&gt;Node34</title>
<path fill="none" stroke="midnightblue" d="M1098.15,-459.44C1056.03,-450.04 988.29,-434.93 942.63,-424.74"/>
<polygon fill="midnightblue" stroke="midnightblue" points="943.19,-421.28 932.67,-422.52 941.66,-428.11 943.19,-421.28"/>
</g>
<!-- Node34&#45;&gt;Node3 -->
<g id="edge38" class="edge">
<title>Node34&#45;&gt;Node3</title>
<path fill="none" stroke="midnightblue" d="M899.22,-403.46C908.77,-385.34 929.5,-341.48 929.5,-302 929.5,-302 929.5,-302 929.5,-244 929.5,-194.8 980.78,-163.65 1023.37,-146.26"/>
<polygon fill="midnightblue" stroke="midnightblue" points="1024.82,-149.45 1032.86,-142.55 1022.27,-142.93 1024.82,-149.45"/>
</g>
<!-- Node34&#45;&gt;Node35 -->
<g id="edge39" class="edge">
<title>Node34&#45;&gt;Node35</title>
<path fill="none" stroke="midnightblue" d="M938.87,-403.44C988.12,-393.94 1067.63,-378.61 1120.47,-368.42"/>
<polygon fill="midnightblue" stroke="midnightblue" points="1121.18,-371.85 1130.34,-366.52 1119.86,-364.97 1121.18,-371.85"/>
</g>
<!-- Node35&#45;&gt;Node3 -->
<g id="edge40" class="edge">
<title>Node35&#45;&gt;Node3</title>
<path fill="none" stroke="midnightblue" d="M1164.6,-347.28C1155.57,-338.83 1142.46,-325.23 1134.5,-311 1105.24,-258.64 1089.84,-188.94 1083.34,-152.7"/>
<polygon fill="midnightblue" stroke="midnightblue" points="1086.75,-151.85 1081.61,-142.58 1079.85,-153.03 1086.75,-151.85"/>
</g>
<!-- Node35&#45;&gt;Node36 -->
<g id="edge41" class="edge">
<title>Node35&#45;&gt;Node36</title>
<path fill="none" stroke="midnightblue" d="M1258.21,-351.16C1437.11,-340.82 1854.58,-316.68 2029.35,-306.58"/>
<polygon fill="midnightblue" stroke="midnightblue" points="2029.72,-310.06 2039.5,-305.99 2029.31,-303.07 2029.72,-310.06"/>
</g>
<!-- Node50 -->
<g id="node50" class="node">
<title>Node50</title>
<g id="a_node50"><a xlink:title=" ">
<polygon fill="none" stroke="#bfbfbf" points="1143.5,-291.5 1143.5,-310.5 1205.5,-310.5 1205.5,-291.5 1143.5,-291.5"/>
<text text-anchor="middle" x="1174.5" y="-298.5" font-family="Helvetica,sans-Serif" font-size="10.00">coroutine</text>
</a>
</g>
</g>
<!-- Node35&#45;&gt;Node50 -->
<g id="edge57" class="edge">
<title>Node35&#45;&gt;Node50</title>
<path fill="none" stroke="midnightblue" d="M1174.5,-347.08C1174.5,-340.01 1174.5,-329.86 1174.5,-320.99"/>
<polygon fill="midnightblue" stroke="midnightblue" points="1178,-320.75 1174.5,-310.75 1171,-320.75 1178,-320.75"/>
</g>
<!-- Node36&#45;&gt;Node37 -->
<g id="edge42" class="edge">
<title>Node36&#45;&gt;Node37</title>
<path fill="none" stroke="midnightblue" d="M2108.5,-291.08C2108.5,-284.01 2108.5,-273.86 2108.5,-264.99"/>
<polygon fill="midnightblue" stroke="midnightblue" points="2112,-264.75 2108.5,-254.75 2105,-264.75 2112,-264.75"/>
</g>
<!-- Node37&#45;&gt;Node3 -->
<g id="edge43" class="edge">
<title>Node37&#45;&gt;Node3</title>
<path fill="none" stroke="midnightblue" d="M2190.03,-243.57C2340.13,-241.93 2647.92,-234.25 2680.5,-199 2686.53,-192.47 2686.69,-185.38 2680.5,-179 2653.85,-151.49 1486.86,-133.92 1162.41,-129.56"/>
<polygon fill="midnightblue" stroke="midnightblue" points="1162.19,-126.06 1152.15,-129.43 1162.1,-133.06 1162.19,-126.06"/>
</g>
<!-- Node37&#45;&gt;Node30 -->
<g id="edge44" class="edge">
<title>Node37&#45;&gt;Node30</title>
<path fill="none" stroke="midnightblue" d="M2026.9,-235.97C1927.94,-226.24 1761.34,-209.85 1656.07,-199.5"/>
<polygon fill="midnightblue" stroke="midnightblue" points="1656.38,-196.01 1646.08,-198.52 1655.69,-202.98 1656.38,-196.01"/>
</g>
<!-- Node38 -->
<g id="node38" class="node">
<title>Node38</title>
<g id="a_node38"><a xlink:title=" ">
<polygon fill="none" stroke="#bfbfbf" points="1740,-179.5 1740,-198.5 1819,-198.5 1819,-179.5 1740,-179.5"/>
<text text-anchor="middle" x="1779.5" y="-186.5" font-family="Helvetica,sans-Serif" font-size="10.00">openssl/err.h</text>
</a>
</g>
</g>
<!-- Node37&#45;&gt;Node38 -->
<g id="edge45" class="edge">
<title>Node37&#45;&gt;Node38</title>
<path fill="none" stroke="midnightblue" d="M2053.19,-235.48C1998.82,-227.03 1913.2,-213.49 1829.05,-199.06"/>
<polygon fill="midnightblue" stroke="midnightblue" points="1829.52,-195.59 1819.07,-197.35 1828.33,-202.49 1829.52,-195.59"/>
</g>
<!-- Node39 -->
<g id="node39" class="node">
<title>Node39</title>
<g id="a_node39"><a xlink:title=" ">
<polygon fill="none" stroke="#bfbfbf" points="1837.5,-179.5 1837.5,-198.5 1917.5,-198.5 1917.5,-179.5 1837.5,-179.5"/>
<text text-anchor="middle" x="1877.5" y="-186.5" font-family="Helvetica,sans-Serif" font-size="10.00">openssl/ssl.h</text>
</a>
</g>
</g>
<!-- Node37&#45;&gt;Node39 -->
<g id="edge46" class="edge">
<title>Node37&#45;&gt;Node39</title>
<path fill="none" stroke="midnightblue" d="M2071.9,-235.44C2031.77,-226.06 1967.3,-210.99 1923.72,-200.8"/>
<polygon fill="midnightblue" stroke="midnightblue" points="1924.47,-197.38 1913.93,-198.52 1922.87,-204.2 1924.47,-197.38"/>
</g>
<!-- Node40 -->
<g id="node40" class="node">
<title>Node40</title>
<g id="a_node40"><a xlink:title=" ">
<polygon fill="none" stroke="#bfbfbf" points="1936,-179.5 1936,-198.5 1983,-198.5 1983,-179.5 1936,-179.5"/>
<text text-anchor="middle" x="1959.5" y="-186.5" font-family="Helvetica,sans-Serif" font-size="10.00">fcntl.h</text>
</a>
</g>
</g>
<!-- Node37&#45;&gt;Node40 -->
<g id="edge47" class="edge">
<title>Node37&#45;&gt;Node40</title>
<path fill="none" stroke="midnightblue" d="M2084.89,-235.44C2060.04,-226.44 2020.73,-212.19 1992.75,-202.05"/>
<polygon fill="midnightblue" stroke="midnightblue" points="1993.59,-198.63 1983,-198.52 1991.21,-205.21 1993.59,-198.63"/>
</g>
<!-- Node41 -->
<g id="node41" class="node">
<title>Node41</title>
<g id="a_node41"><a xlink:title=" ">
<polygon fill="none" stroke="#bfbfbf" points="2001,-179.5 2001,-198.5 2054,-198.5 2054,-179.5 2001,-179.5"/>
<text text-anchor="middle" x="2027.5" y="-186.5" font-family="Helvetica,sans-Serif" font-size="10.00">netdb.h</text>
</a>
</g>
</g>
<!-- Node37&#45;&gt;Node41 -->
<g id="edge48" class="edge">
<title>Node37&#45;&gt;Node41</title>
<path fill="none" stroke="midnightblue" d="M2095.49,-235.32C2082.97,-226.98 2063.82,-214.21 2049.03,-204.35"/>
<polygon fill="midnightblue" stroke="midnightblue" points="2050.74,-201.29 2040.48,-198.65 2046.86,-207.11 2050.74,-201.29"/>
</g>
<!-- Node42 -->
<g id="node42" class="node">
<title>Node42</title>
<g id="a_node42"><a xlink:title=" ">
<polygon fill="none" stroke="#bfbfbf" points="2072.5,-179.5 2072.5,-198.5 2144.5,-198.5 2144.5,-179.5 2072.5,-179.5"/>
<text text-anchor="middle" x="2108.5" y="-186.5" font-family="Helvetica,sans-Serif" font-size="10.00">netinet/in.h</text>
</a>
</g>
</g>
<!-- Node37&#45;&gt;Node42 -->
<g id="edge49" class="edge">
<title>Node37&#45;&gt;Node42</title>
<path fill="none" stroke="midnightblue" d="M2108.5,-235.08C2108.5,-228.01 2108.5,-217.86 2108.5,-208.99"/>
<polygon fill="midnightblue" stroke="midnightblue" points="2112,-208.75 2108.5,-198.75 2105,-208.75 2112,-208.75"/>
</g>
<!-- Node43 -->
<g id="node43" class="node">
<title>Node43</title>
<g id="a_node43"><a xlink:title=" ">
<polygon fill="none" stroke="#bfbfbf" points="2162.5,-179.5 2162.5,-198.5 2240.5,-198.5 2240.5,-179.5 2162.5,-179.5"/>
<text text-anchor="middle" x="2201.5" y="-186.5" font-family="Helvetica,sans-Serif" font-size="10.00">netinet/tcp.h</text>
</a>
</g>
</g>
<!-- Node37&#45;&gt;Node43 -->
<g id="edge50" class="edge">
<title>Node37&#45;&gt;Node43</title>
<path fill="none" stroke="midnightblue" d="M2123.44,-235.32C2138.09,-226.82 2160.63,-213.73 2177.74,-203.8"/>
<polygon fill="midnightblue" stroke="midnightblue" points="2179.7,-206.7 2186.6,-198.65 2176.19,-200.65 2179.7,-206.7"/>
</g>
<!-- Node44 -->
<g id="node44" class="node">
<title>Node44</title>
<g id="a_node44"><a xlink:title=" ">
<polygon fill="none" stroke="#bfbfbf" points="2259,-179.5 2259,-198.5 2312,-198.5 2312,-179.5 2259,-179.5"/>
<text text-anchor="middle" x="2285.5" y="-186.5" font-family="Helvetica,sans-Serif" font-size="10.00">stdint.h</text>
</a>
</g>
</g>
<!-- Node37&#45;&gt;Node44 -->
<g id="edge51" class="edge">
<title>Node37&#45;&gt;Node44</title>
<path fill="none" stroke="midnightblue" d="M2136.55,-235.44C2166.94,-226.17 2215.54,-211.34 2248.91,-201.16"/>
<polygon fill="midnightblue" stroke="midnightblue" points="2250.2,-204.43 2258.74,-198.16 2248.16,-197.73 2250.2,-204.43"/>
</g>
<!-- Node45 -->
<g id="node45" class="node">
<title>Node45</title>
<g id="a_node45"><a xlink:title=" ">
<polygon fill="none" stroke="#bfbfbf" points="2330,-179.5 2330,-198.5 2399,-198.5 2399,-179.5 2330,-179.5"/>
<text text-anchor="middle" x="2364.5" y="-186.5" font-family="Helvetica,sans-Serif" font-size="10.00">sys/epoll.h</text>
</a>
</g>
</g>
<!-- Node37&#45;&gt;Node45 -->
<g id="edge52" class="edge">
<title>Node37&#45;&gt;Node45</title>
<path fill="none" stroke="midnightblue" d="M2149.06,-235.44C2195.66,-225.61 2271.86,-209.54 2320.04,-199.38"/>
<polygon fill="midnightblue" stroke="midnightblue" points="2320.81,-202.79 2329.87,-197.3 2319.37,-195.94 2320.81,-202.79"/>
</g>
<!-- Node46 -->
<g id="node46" class="node">
<title>Node46</title>
<g id="a_node46"><a xlink:title=" ">
<polygon fill="none" stroke="#bfbfbf" points="2417,-179.5 2417,-198.5 2486,-198.5 2486,-179.5 2417,-179.5"/>
<text text-anchor="middle" x="2451.5" y="-186.5" font-family="Helvetica,sans-Serif" font-size="10.00">arpa/inet.h</text>
</a>
</g>
</g>
<!-- Node37&#45;&gt;Node46 -->
<g id="edge53" class="edge">
<title>Node37&#45;&gt;Node46</title>
<path fill="none" stroke="midnightblue" d="M2172.46,-235.49C2231.06,-227.45 2320.44,-214.56 2406.83,-199.23"/>
<polygon fill="midnightblue" stroke="midnightblue" points="2407.57,-202.65 2416.8,-197.44 2406.34,-195.76 2407.57,-202.65"/>
</g>
<!-- Node47 -->
<g id="node47" class="node">
<title>Node47</title>
<g id="a_node47"><a xlink:title=" ">
<polygon fill="none" stroke="#bfbfbf" points="2504,-179.5 2504,-198.5 2581,-198.5 2581,-179.5 2504,-179.5"/>
<text text-anchor="middle" x="2542.5" y="-186.5" font-family="Helvetica,sans-Serif" font-size="10.00">sys/socket.h</text>
</a>
</g>
</g>
<!-- Node37&#45;&gt;Node47 -->
<g id="edge54" class="edge">
<title>Node37&#45;&gt;Node47</title>
<path fill="none" stroke="midnightblue" d="M2190.27,-236.25C2266.46,-228.63 2383.44,-215.9 2493.83,-199.17"/>
<polygon fill="midnightblue" stroke="midnightblue" points="2494.45,-202.61 2503.81,-197.64 2493.4,-195.69 2494.45,-202.61"/>
</g>
<!-- Node48 -->
<g id="node48" class="node">
<title>Node48</title>
<g id="a_node48"><a xlink:title=" ">
<polygon fill="none" stroke="#bfbfbf" points="2599.5,-179.5 2599.5,-198.5 2671.5,-198.5 2671.5,-179.5 2599.5,-179.5"/>
<text text-anchor="middle" x="2635.5" y="-186.5" font-family="Helvetica,sans-Serif" font-size="10.00">sys/types.h</text>
</a>
</g>
</g>
<!-- Node37&#45;&gt;Node48 -->
<g id="edge55" class="edge">
<title>Node37&#45;&gt;Node48</title>
<path fill="none" stroke="midnightblue" d="M2190.25,-238.98C2284.22,-232.61 2443.24,-220.05 2589.17,-199.06"/>
<polygon fill="midnightblue" stroke="midnightblue" points="2589.82,-202.5 2599.21,-197.6 2588.81,-195.57 2589.82,-202.5"/>
</g>
<!-- Node49 -->
<g id="node49" class="node">
<title>Node49</title>
<g id="a_node49"><a xlink:title=" ">
<polygon fill="none" stroke="#bfbfbf" points="1665.5,-179.5 1665.5,-198.5 1721.5,-198.5 1721.5,-179.5 1665.5,-179.5"/>
<text text-anchor="middle" x="1693.5" y="-186.5" font-family="Helvetica,sans-Serif" font-size="10.00">unistd.h</text>
</a>
</g>
</g>
<!-- Node37&#45;&gt;Node49 -->
<g id="edge56" class="edge">
<title>Node37&#45;&gt;Node49</title>
<path fill="none" stroke="midnightblue" d="M2026.84,-236.96C1950.22,-229.71 1832.58,-216.94 1731.5,-199 1731.4,-198.98 1731.3,-198.96 1731.2,-198.95"/>
<polygon fill="midnightblue" stroke="midnightblue" points="1732.14,-195.56 1721.65,-197.04 1730.77,-202.43 1732.14,-195.56"/>
</g>
<!-- Node51&#45;&gt;Node3 -->
<g id="edge59" class="edge">
<title>Node51&#45;&gt;Node3</title>
<path fill="none" stroke="midnightblue" d="M2592.18,-405.24C2656.54,-394.87 2737.5,-368.59 2737.5,-302 2737.5,-302 2737.5,-302 2737.5,-244 2737.5,-209.84 2726.15,-195.96 2696.5,-179 2629.44,-140.64 1482.95,-130.91 1162.25,-128.94"/>
<polygon fill="midnightblue" stroke="midnightblue" points="1162.12,-125.44 1152.1,-128.88 1162.08,-132.44 1162.12,-125.44"/>
</g>
</g>
</svg>
