<?xml version="1.0" encoding="UTF-8" standalone="no"?>
<!DOCTYPE svg PUBLIC "-//W3C//DTD SVG 1.1//EN"
 "http://www.w3.org/Graphics/SVG/1.1/DTD/svg11.dtd">
<!-- Generated by graphviz version 2.43.0 (0)
 -->
<!-- Title: InteractionEntities.hpp Pages: 1 -->
<svg width="1491pt" height="252pt"
 viewBox="0.00 0.00 1491.00 252.00" xmlns="http://www.w3.org/2000/svg" xmlns:xlink="http://www.w3.org/1999/xlink">
<g id="graph0" class="graph" transform="scale(1 1) rotate(0) translate(4 248)">
<title>InteractionEntities.hpp</title>
<!-- Node1 -->
<g id="node1" class="node">
<title>Node1</title>
<g id="a_node1"><a xlink:title=" ">
<polygon fill="#bfbfbf" stroke="black" points="1018.5,-224.5 1018.5,-243.5 1145.5,-243.5 1145.5,-224.5 1018.5,-224.5"/>
<text text-anchor="middle" x="1082" y="-231.5" font-family="Helvetica,sans-Serif" font-size="10.00">InteractionEntities.hpp</text>
</a>
</g>
</g>
<!-- Node2 -->
<g id="node2" class="node">
<title>Node2</title>
<g id="a_node2"><a xlink:href="../../df/dbb/a00698.html" target="_top" xlink:title=" ">
<polygon fill="none" stroke="black" points="692.5,-112.5 692.5,-131.5 817.5,-131.5 817.5,-112.5 692.5,-112.5"/>
<text text-anchor="middle" x="755" y="-119.5" font-family="Helvetica,sans-Serif" font-size="10.00">DiscordCoreClient.hpp</text>
</a>
</g>
</g>
<!-- Node1&#45;&gt;Node2 -->
<g id="edge1" class="edge">
<title>Node1&#45;&gt;Node2</title>
<path fill="none" stroke="midnightblue" d="M1047.04,-221.24C980.88,-198.98 838.75,-151.17 780.6,-131.61"/>
<polygon fill="midnightblue" stroke="midnightblue" points="1046.02,-224.59 1056.61,-224.46 1048.25,-217.95 1046.02,-224.59"/>
</g>
<!-- Node16 -->
<g id="node16" class="node">
<title>Node16</title>
<g id="a_node16"><a xlink:href="../../df/d3b/a00728.html" target="_top" xlink:title=" ">
<polygon fill="none" stroke="black" points="996.5,-168.5 996.5,-187.5 1091.5,-187.5 1091.5,-168.5 996.5,-168.5"/>
<text text-anchor="middle" x="1044" y="-175.5" font-family="Helvetica,sans-Serif" font-size="10.00">InputEvents.hpp</text>
</a>
</g>
</g>
<!-- Node1&#45;&gt;Node16 -->
<g id="edge15" class="edge">
<title>Node1&#45;&gt;Node16</title>
<path fill="none" stroke="midnightblue" d="M1069.94,-215.86C1063.36,-206.5 1055.49,-195.33 1050.16,-187.75"/>
<polygon fill="midnightblue" stroke="midnightblue" points="1067.11,-217.92 1075.73,-224.08 1072.83,-213.89 1067.11,-217.92"/>
</g>
<!-- Node17 -->
<g id="node17" class="node">
<title>Node17</title>
<g id="a_node17"><a xlink:href="../../df/d0e/a00800.html" target="_top" xlink:title=" ">
<polygon fill="none" stroke="black" points="836,-112.5 836,-131.5 978,-131.5 978,-112.5 836,-112.5"/>
<text text-anchor="middle" x="907" y="-119.5" font-family="Helvetica,sans-Serif" font-size="10.00">DataParsingFunctions.cpp</text>
</a>
</g>
</g>
<!-- Node1&#45;&gt;Node17 -->
<g id="edge21" class="edge">
<title>Node1&#45;&gt;Node17</title>
<path fill="none" stroke="midnightblue" d="M1050.7,-220.43C1031.68,-212.26 1007.25,-200.76 987,-188 959.45,-170.63 930.64,-145.11 916.28,-131.8"/>
<polygon fill="midnightblue" stroke="midnightblue" points="1049.52,-223.74 1060.1,-224.4 1052.24,-217.29 1049.52,-223.74"/>
</g>
<!-- Node18 -->
<g id="node18" class="node">
<title>Node18</title>
<g id="a_node18"><a xlink:href="../../d8/d2d/a00815.html" target="_top" xlink:title=" ">
<polygon fill="none" stroke="black" points="1110,-112.5 1110,-131.5 1238,-131.5 1238,-112.5 1110,-112.5"/>
<text text-anchor="middle" x="1174" y="-119.5" font-family="Helvetica,sans-Serif" font-size="10.00">FoundationEntities.cpp</text>
</a>
</g>
</g>
<!-- Node1&#45;&gt;Node18 -->
<g id="edge22" class="edge">
<title>Node1&#45;&gt;Node18</title>
<path fill="none" stroke="midnightblue" d="M1095.73,-216.59C1115.56,-192.87 1151.53,-149.87 1166.81,-131.59"/>
<polygon fill="midnightblue" stroke="midnightblue" points="1092.95,-214.45 1089.22,-224.37 1098.32,-218.94 1092.95,-214.45"/>
</g>
<!-- Node20 -->
<g id="node20" class="node">
<title>Node20</title>
<g id="a_node20"><a xlink:href="../../d3/db2/a00869.html" target="_top" xlink:title=" ">
<polygon fill="none" stroke="black" points="1256.5,-112.5 1256.5,-131.5 1331.5,-131.5 1331.5,-112.5 1256.5,-112.5"/>
<text text-anchor="middle" x="1294" y="-119.5" font-family="Helvetica,sans-Serif" font-size="10.00">Utilities.cpp</text>
</a>
</g>
</g>
<!-- Node1&#45;&gt;Node20 -->
<g id="edge24" class="edge">
<title>Node1&#45;&gt;Node20</title>
<path fill="none" stroke="midnightblue" d="M1100.82,-218.17C1119.42,-204 1149.05,-182.68 1177,-168 1206.29,-152.62 1242.04,-139.64 1266.26,-131.63"/>
<polygon fill="midnightblue" stroke="midnightblue" points="1098.65,-215.42 1092.87,-224.31 1102.93,-220.97 1098.65,-215.42"/>
</g>
<!-- Node21 -->
<g id="node21" class="node">
<title>Node21</title>
<g id="a_node21"><a xlink:href="../../dc/d6e/a00833.html" target="_top" xlink:title=" ">
<polygon fill="none" stroke="black" points="1186,-168.5 1186,-187.5 1312,-187.5 1312,-168.5 1186,-168.5"/>
<text text-anchor="middle" x="1249" y="-175.5" font-family="Helvetica,sans-Serif" font-size="10.00">InteractionEntities.cpp</text>
</a>
</g>
</g>
<!-- Node1&#45;&gt;Node21 -->
<g id="edge23" class="edge">
<title>Node1&#45;&gt;Node21</title>
<path fill="none" stroke="midnightblue" d="M1118.17,-221.3C1149.64,-211.13 1194.49,-196.62 1222.66,-187.52"/>
<polygon fill="midnightblue" stroke="midnightblue" points="1116.9,-218.04 1108.46,-224.44 1119.05,-224.7 1116.9,-218.04"/>
</g>
<!-- Node3 -->
<g id="node3" class="node">
<title>Node3</title>
<g id="a_node3"><a xlink:href="../../d8/db9/a00725.html" target="_top" xlink:title=" ">
<polygon fill="none" stroke="black" points="4.5,-56.5 4.5,-75.5 69.5,-75.5 69.5,-56.5 4.5,-56.5"/>
<text text-anchor="middle" x="37" y="-63.5" font-family="Helvetica,sans-Serif" font-size="10.00">Index.hpp</text>
</a>
</g>
</g>
<!-- Node2&#45;&gt;Node3 -->
<g id="edge2" class="edge">
<title>Node2&#45;&gt;Node3</title>
<path fill="none" stroke="midnightblue" d="M681.97,-119.72C557.46,-116.75 296.36,-107.04 78,-76 75.26,-75.61 72.43,-75.14 69.59,-74.62"/>
<polygon fill="midnightblue" stroke="midnightblue" points="682.06,-123.23 692.14,-119.96 682.22,-116.23 682.06,-123.23"/>
</g>
<!-- Node5 -->
<g id="node5" class="node">
<title>Node5</title>
<g id="a_node5"><a xlink:href="../../da/d96/a00782.html" target="_top" xlink:title=" ">
<polygon fill="none" stroke="black" points="87.5,-56.5 87.5,-75.5 266.5,-75.5 266.5,-56.5 87.5,-56.5"/>
<text text-anchor="middle" x="177" y="-63.5" font-family="Helvetica,sans-Serif" font-size="10.00">ApplicationCommandEntities.cpp</text>
</a>
</g>
</g>
<!-- Node2&#45;&gt;Node5 -->
<g id="edge4" class="edge">
<title>Node2&#45;&gt;Node5</title>
<path fill="none" stroke="midnightblue" d="M682.07,-114.19C576.41,-104.32 380.94,-86.05 266.63,-75.37"/>
<polygon fill="midnightblue" stroke="midnightblue" points="682.04,-117.7 692.32,-115.14 682.69,-110.73 682.04,-117.7"/>
</g>
<!-- Node6 -->
<g id="node6" class="node">
<title>Node6</title>
<g id="a_node6"><a xlink:href="../../d5/d72/a00803.html" target="_top" xlink:title=" ">
<polygon fill="none" stroke="black" points="284.5,-56.5 284.5,-75.5 409.5,-75.5 409.5,-56.5 284.5,-56.5"/>
<text text-anchor="middle" x="347" y="-63.5" font-family="Helvetica,sans-Serif" font-size="10.00">DiscordCoreClient.cpp</text>
</a>
</g>
</g>
<!-- Node2&#45;&gt;Node6 -->
<g id="edge5" class="edge">
<title>Node2&#45;&gt;Node6</title>
<path fill="none" stroke="midnightblue" d="M681.96,-111.33C604.36,-101.06 482.96,-84.99 409.59,-75.28"/>
<polygon fill="midnightblue" stroke="midnightblue" points="681.77,-114.84 692.14,-112.68 682.69,-107.9 681.77,-114.84"/>
</g>
<!-- Node7 -->
<g id="node7" class="node">
<title>Node7</title>
<g id="a_node7"><a xlink:href="../../d8/db7/a00812.html" target="_top" xlink:title=" ">
<polygon fill="none" stroke="black" points="427.5,-56.5 427.5,-75.5 534.5,-75.5 534.5,-56.5 427.5,-56.5"/>
<text text-anchor="middle" x="481" y="-63.5" font-family="Helvetica,sans-Serif" font-size="10.00">EventManager.cpp</text>
</a>
</g>
</g>
<!-- Node2&#45;&gt;Node7 -->
<g id="edge6" class="edge">
<title>Node2&#45;&gt;Node7</title>
<path fill="none" stroke="midnightblue" d="M701.59,-110.47C649.8,-100.27 572.23,-84.98 524.21,-75.52"/>
<polygon fill="midnightblue" stroke="midnightblue" points="701.1,-113.94 711.58,-112.44 702.45,-107.08 701.1,-113.94"/>
</g>
<!-- Node8 -->
<g id="node8" class="node">
<title>Node8</title>
<g id="a_node8"><a xlink:href="../../d3/d60/a00818.html" target="_top" xlink:title=" ">
<polygon fill="none" stroke="black" points="552.5,-56.5 552.5,-75.5 651.5,-75.5 651.5,-56.5 552.5,-56.5"/>
<text text-anchor="middle" x="602" y="-63.5" font-family="Helvetica,sans-Serif" font-size="10.00">GuildEntities.cpp</text>
</a>
</g>
</g>
<!-- Node2&#45;&gt;Node8 -->
<g id="edge7" class="edge">
<title>Node2&#45;&gt;Node8</title>
<path fill="none" stroke="midnightblue" d="M721.11,-109.04C692.32,-98.88 651.71,-84.55 626.13,-75.52"/>
<polygon fill="midnightblue" stroke="midnightblue" points="720.16,-112.42 730.76,-112.44 722.49,-105.81 720.16,-112.42"/>
</g>
<!-- Node9 -->
<g id="node9" class="node">
<title>Node9</title>
<g id="a_node9"><a xlink:href="../../dc/d1b/a00827.html" target="_top" xlink:title=" ">
<polygon fill="none" stroke="black" points="669.5,-56.5 669.5,-75.5 732.5,-75.5 732.5,-56.5 669.5,-56.5"/>
<text text-anchor="middle" x="701" y="-63.5" font-family="Helvetica,sans-Serif" font-size="10.00">Https.cpp</text>
</a>
</g>
</g>
<!-- Node2&#45;&gt;Node9 -->
<g id="edge8" class="edge">
<title>Node2&#45;&gt;Node9</title>
<path fill="none" stroke="midnightblue" d="M739,-105C729.43,-95.43 717.64,-83.64 709.75,-75.75"/>
<polygon fill="midnightblue" stroke="midnightblue" points="736.54,-107.49 746.08,-112.08 741.49,-102.54 736.54,-107.49"/>
</g>
<!-- Node10 -->
<g id="node10" class="node">
<title>Node10</title>
<g id="a_node10"><a xlink:href="../../d3/d13/a00836.html" target="_top" xlink:title=" ">
<polygon fill="none" stroke="black" points="750.5,-56.5 750.5,-75.5 867.5,-75.5 867.5,-56.5 750.5,-56.5"/>
<text text-anchor="middle" x="809" y="-63.5" font-family="Helvetica,sans-Serif" font-size="10.00">MessageEntities.cpp</text>
</a>
</g>
</g>
<!-- Node2&#45;&gt;Node10 -->
<g id="edge9" class="edge">
<title>Node2&#45;&gt;Node10</title>
<path fill="none" stroke="midnightblue" d="M771,-105C780.57,-95.43 792.36,-83.64 800.25,-75.75"/>
<polygon fill="midnightblue" stroke="midnightblue" points="768.51,-102.54 763.92,-112.08 773.46,-107.49 768.51,-102.54"/>
</g>
<!-- Node11 -->
<g id="node11" class="node">
<title>Node11</title>
<g id="a_node11"><a xlink:href="../../d7/dcf/a00845.html" target="_top" xlink:title=" ">
<polygon fill="none" stroke="black" points="885.5,-56.5 885.5,-75.5 962.5,-75.5 962.5,-56.5 885.5,-56.5"/>
<text text-anchor="middle" x="924" y="-63.5" font-family="Helvetica,sans-Serif" font-size="10.00">SongAPI.cpp</text>
</a>
</g>
</g>
<!-- Node2&#45;&gt;Node11 -->
<g id="edge10" class="edge">
<title>Node2&#45;&gt;Node11</title>
<path fill="none" stroke="midnightblue" d="M791.6,-109.3C823.45,-99.13 868.84,-84.62 897.35,-75.52"/>
<polygon fill="midnightblue" stroke="midnightblue" points="790.24,-106.07 781.78,-112.44 792.37,-112.73 790.24,-106.07"/>
</g>
<!-- Node12 -->
<g id="node12" class="node">
<title>Node12</title>
<g id="a_node12"><a xlink:href="../../d9/d30/a00848.html" target="_top" xlink:title=" ">
<polygon fill="none" stroke="black" points="981,-56.5 981,-75.5 1091,-75.5 1091,-56.5 981,-56.5"/>
<text text-anchor="middle" x="1036" y="-63.5" font-family="Helvetica,sans-Serif" font-size="10.00">SoundCloudAPI.cpp</text>
</a>
</g>
</g>
<!-- Node2&#45;&gt;Node12 -->
<g id="edge11" class="edge">
<title>Node2&#45;&gt;Node12</title>
<path fill="none" stroke="midnightblue" d="M809.45,-110.54C862.55,-100.33 942.34,-85 991.68,-75.52"/>
<polygon fill="midnightblue" stroke="midnightblue" points="808.69,-107.12 799.53,-112.44 810.01,-113.99 808.69,-107.12"/>
</g>
<!-- Node13 -->
<g id="node13" class="node">
<title>Node13</title>
<g id="a_node13"><a xlink:href="../../dc/d17/a00872.html" target="_top" xlink:title=" ">
<polygon fill="none" stroke="black" points="1109,-56.5 1109,-75.5 1227,-75.5 1227,-56.5 1109,-56.5"/>
<text text-anchor="middle" x="1168" y="-63.5" font-family="Helvetica,sans-Serif" font-size="10.00">VoiceConnection.cpp</text>
</a>
</g>
</g>
<!-- Node2&#45;&gt;Node13 -->
<g id="edge12" class="edge">
<title>Node2&#45;&gt;Node13</title>
<path fill="none" stroke="midnightblue" d="M827.66,-111.56C897.48,-102.49 1005.96,-88.36 1100,-76 1102.83,-75.63 1105.73,-75.25 1108.66,-74.86"/>
<polygon fill="midnightblue" stroke="midnightblue" points="827.11,-108.11 817.64,-112.87 828.01,-115.05 827.11,-108.11"/>
</g>
<!-- Node14 -->
<g id="node14" class="node">
<title>Node14</title>
<g id="a_node14"><a xlink:href="../../d5/d69/a00878.html" target="_top" xlink:title=" ">
<polygon fill="none" stroke="black" points="1245.5,-56.5 1245.5,-75.5 1372.5,-75.5 1372.5,-56.5 1245.5,-56.5"/>
<text text-anchor="middle" x="1309" y="-63.5" font-family="Helvetica,sans-Serif" font-size="10.00">WebSocketEntities.cpp</text>
</a>
</g>
</g>
<!-- Node2&#45;&gt;Node14 -->
<g id="edge13" class="edge">
<title>Node2&#45;&gt;Node14</title>
<path fill="none" stroke="midnightblue" d="M828.01,-111.93C1010.16,-92.76 1057.81,-94.82 1236,-76 1239.05,-75.68 1242.17,-75.34 1245.31,-74.98"/>
<polygon fill="midnightblue" stroke="midnightblue" points="827.39,-108.48 817.81,-113.01 828.13,-115.44 827.39,-108.48"/>
</g>
<!-- Node15 -->
<g id="node15" class="node">
<title>Node15</title>
<g id="a_node15"><a xlink:href="../../df/d41/a00881.html" target="_top" xlink:title=" ">
<polygon fill="none" stroke="black" points="1391,-56.5 1391,-75.5 1483,-75.5 1483,-56.5 1391,-56.5"/>
<text text-anchor="middle" x="1437" y="-63.5" font-family="Helvetica,sans-Serif" font-size="10.00">YouTubeAPI.cpp</text>
</a>
</g>
</g>
<!-- Node2&#45;&gt;Node15 -->
<g id="edge14" class="edge">
<title>Node2&#45;&gt;Node15</title>
<path fill="none" stroke="midnightblue" d="M827.8,-111.99C1074.78,-89.06 1139.64,-103.62 1382,-76 1384.88,-75.67 1387.85,-75.3 1390.83,-74.89"/>
<polygon fill="midnightblue" stroke="midnightblue" points="827.43,-108.51 817.8,-112.93 828.09,-115.47 827.43,-108.51"/>
</g>
<!-- Node4 -->
<g id="node4" class="node">
<title>Node4</title>
<g id="a_node4"><a xlink:href="../../d0/dad/a00806.html" target="_top" xlink:title=" ">
<polygon fill="none" stroke="black" points="0,-0.5 0,-19.5 74,-19.5 74,-0.5 0,-0.5"/>
<text text-anchor="middle" x="37" y="-7.5" font-family="Helvetica,sans-Serif" font-size="10.00">DllMain.cpp</text>
</a>
</g>
</g>
<!-- Node3&#45;&gt;Node4 -->
<g id="edge3" class="edge">
<title>Node3&#45;&gt;Node4</title>
<path fill="none" stroke="midnightblue" d="M37,-45.8C37,-36.91 37,-26.78 37,-19.75"/>
<polygon fill="midnightblue" stroke="midnightblue" points="33.5,-46.08 37,-56.08 40.5,-46.08 33.5,-46.08"/>
</g>
<!-- Node16&#45;&gt;Node2 -->
<g id="edge16" class="edge">
<title>Node16&#45;&gt;Node2</title>
<path fill="none" stroke="midnightblue" d="M988.34,-166.6C933.73,-156.4 851.43,-141.02 800.58,-131.52"/>
<polygon fill="midnightblue" stroke="midnightblue" points="987.73,-170.05 998.21,-168.44 989.02,-163.17 987.73,-170.05"/>
</g>
<!-- Node16&#45;&gt;Node17 -->
<g id="edge17" class="edge">
<title>Node16&#45;&gt;Node17</title>
<path fill="none" stroke="midnightblue" d="M1012.98,-164.77C987.24,-154.63 951.31,-140.47 928.61,-131.52"/>
<polygon fill="midnightblue" stroke="midnightblue" points="1011.71,-168.03 1022.29,-168.44 1014.27,-161.52 1011.71,-168.03"/>
</g>
<!-- Node16&#45;&gt;Node18 -->
<g id="edge18" class="edge">
<title>Node16&#45;&gt;Node18</title>
<path fill="none" stroke="midnightblue" d="M1074.09,-164.5C1098.46,-154.38 1132.14,-140.39 1153.5,-131.52"/>
<polygon fill="midnightblue" stroke="midnightblue" points="1072.49,-161.38 1064.6,-168.44 1075.18,-167.84 1072.49,-161.38"/>
</g>
<!-- Node19 -->
<g id="node19" class="node">
<title>Node19</title>
<g id="a_node19"><a xlink:href="../../d9/daf/a00830.html" target="_top" xlink:title=" ">
<polygon fill="none" stroke="black" points="996.5,-112.5 996.5,-131.5 1091.5,-131.5 1091.5,-112.5 996.5,-112.5"/>
<text text-anchor="middle" x="1044" y="-119.5" font-family="Helvetica,sans-Serif" font-size="10.00">InputEvents.cpp</text>
</a>
</g>
</g>
<!-- Node16&#45;&gt;Node19 -->
<g id="edge19" class="edge">
<title>Node16&#45;&gt;Node19</title>
<path fill="none" stroke="midnightblue" d="M1044,-157.8C1044,-148.91 1044,-138.78 1044,-131.75"/>
<polygon fill="midnightblue" stroke="midnightblue" points="1040.5,-158.08 1044,-168.08 1047.5,-158.08 1040.5,-158.08"/>
</g>
<!-- Node16&#45;&gt;Node20 -->
<g id="edge20" class="edge">
<title>Node16&#45;&gt;Node20</title>
<path fill="none" stroke="midnightblue" d="M1093.44,-166.32C1141.29,-155.99 1212.76,-140.55 1256.21,-131.16"/>
<polygon fill="midnightblue" stroke="midnightblue" points="1092.65,-162.91 1083.61,-168.44 1094.13,-169.75 1092.65,-162.91"/>
</g>
</g>
</svg>
