<?xml version="1.0" encoding="UTF-8" standalone="no"?>
<!DOCTYPE svg PUBLIC "-//W3C//DTD SVG 1.1//EN"
 "http://www.w3.org/Graphics/SVG/1.1/DTD/svg11.dtd">
<!-- Generated by graphviz version 3.0.0 (20220226.1711)
 -->
<!-- Title: InteractionEntities.hpp Pages: 1 -->
<svg width="1390pt" height="252pt"
 viewBox="0.00 0.00 1390.00 252.00" xmlns="http://www.w3.org/2000/svg" xmlns:xlink="http://www.w3.org/1999/xlink">
<g id="graph0" class="graph" transform="scale(1 1) rotate(0) translate(4 248)">
<title>InteractionEntities.hpp</title>
<!-- Node1 -->
<g id="node1" class="node">
<title>Node1</title>
<g id="a_node1"><a xlink:title=" ">
<polygon fill="#bfbfbf" stroke="black" points="788,-224.5 788,-243.5 901,-243.5 901,-224.5 788,-224.5"/>
<text text-anchor="middle" x="844.5" y="-231.5" font-family="Helvetica,sans-Serif" font-size="10.00">InteractionEntities.hpp</text>
</a>
</g>
</g>
<!-- Node2 -->
<g id="node2" class="node">
<title>Node2</title>
<g id="a_node2"><a xlink:href="../../df/d0e/a00800.html" target="_top" xlink:title=" ">
<polygon fill="none" stroke="black" points="486,-112.5 486,-131.5 617,-131.5 617,-112.5 486,-112.5"/>
<text text-anchor="middle" x="551.5" y="-119.5" font-family="Helvetica,sans-Serif" font-size="10.00">DataParsingFunctions.cpp</text>
</a>
</g>
</g>
<!-- Node1&#45;&gt;Node2 -->
<g id="edge1" class="edge">
<title>Node1&#45;&gt;Node2</title>
<path fill="none" stroke="midnightblue" d="M811.81,-220.73C751.93,-198.25 626.06,-150.99 574.38,-131.59"/>
<polygon fill="midnightblue" stroke="midnightblue" points="810.92,-224.13 821.51,-224.37 813.38,-217.58 810.92,-224.13"/>
</g>
<!-- Node3 -->
<g id="node3" class="node">
<title>Node3</title>
<g id="a_node3"><a xlink:href="../../df/dbb/a00698.html" target="_top" xlink:title=" ">
<polygon fill="none" stroke="black" points="635,-112.5 635,-131.5 748,-131.5 748,-112.5 635,-112.5"/>
<text text-anchor="middle" x="691.5" y="-119.5" font-family="Helvetica,sans-Serif" font-size="10.00">DiscordCoreClient.hpp</text>
</a>
</g>
</g>
<!-- Node1&#45;&gt;Node3 -->
<g id="edge2" class="edge">
<title>Node1&#45;&gt;Node3</title>
<path fill="none" stroke="midnightblue" d="M814.66,-220.29C797.24,-212.22 775.27,-200.89 757.5,-188 733.81,-170.81 710.44,-145.21 698.92,-131.85"/>
<polygon fill="midnightblue" stroke="midnightblue" points="813.26,-223.5 823.81,-224.43 816.14,-217.12 813.26,-223.5"/>
</g>
<!-- Node17 -->
<g id="node17" class="node">
<title>Node17</title>
<g id="a_node17"><a xlink:href="../../d8/d2d/a00815.html" target="_top" xlink:title=" ">
<polygon fill="none" stroke="black" points="870.5,-112.5 870.5,-131.5 986.5,-131.5 986.5,-112.5 870.5,-112.5"/>
<text text-anchor="middle" x="928.5" y="-119.5" font-family="Helvetica,sans-Serif" font-size="10.00">FoundationEntities.cpp</text>
</a>
</g>
</g>
<!-- Node1&#45;&gt;Node17 -->
<g id="edge16" class="edge">
<title>Node1&#45;&gt;Node17</title>
<path fill="none" stroke="midnightblue" d="M857.27,-216.27C875.43,-192.49 908.04,-149.79 921.94,-131.59"/>
<polygon fill="midnightblue" stroke="midnightblue" points="854.38,-214.3 851.09,-224.37 859.94,-218.54 854.38,-214.3"/>
</g>
<!-- Node18 -->
<g id="node18" class="node">
<title>Node18</title>
<g id="a_node18"><a xlink:href="../../df/d3b/a00728.html" target="_top" xlink:title=" ">
<polygon fill="none" stroke="black" points="766.5,-168.5 766.5,-187.5 852.5,-187.5 852.5,-168.5 766.5,-168.5"/>
<text text-anchor="middle" x="809.5" y="-175.5" font-family="Helvetica,sans-Serif" font-size="10.00">InputEvents.hpp</text>
</a>
</g>
</g>
<!-- Node1&#45;&gt;Node18 -->
<g id="edge17" class="edge">
<title>Node1&#45;&gt;Node18</title>
<path fill="none" stroke="midnightblue" d="M833.2,-215.57C827.18,-206.27 820.03,-195.25 815.17,-187.75"/>
<polygon fill="midnightblue" stroke="midnightblue" points="830.34,-217.6 838.72,-224.08 836.22,-213.79 830.34,-217.6"/>
</g>
<!-- Node20 -->
<g id="node20" class="node">
<title>Node20</title>
<g id="a_node20"><a xlink:href="../../d3/db2/a00869.html" target="_top" xlink:title=" ">
<polygon fill="none" stroke="black" points="1004.5,-112.5 1004.5,-131.5 1072.5,-131.5 1072.5,-112.5 1004.5,-112.5"/>
<text text-anchor="middle" x="1038.5" y="-119.5" font-family="Helvetica,sans-Serif" font-size="10.00">Utilities.cpp</text>
</a>
</g>
</g>
<!-- Node1&#45;&gt;Node20 -->
<g id="edge24" class="edge">
<title>Node1&#45;&gt;Node20</title>
<path fill="none" stroke="midnightblue" d="M863.84,-218.07C882.39,-204.13 911.48,-183.26 938.5,-168 964.36,-153.4 995.84,-139.88 1016.48,-131.55"/>
<polygon fill="midnightblue" stroke="midnightblue" points="861.49,-215.46 855.64,-224.3 865.72,-221.04 861.49,-215.46"/>
</g>
<!-- Node21 -->
<g id="node21" class="node">
<title>Node21</title>
<g id="a_node21"><a xlink:href="../../dc/d6e/a00833.html" target="_top" xlink:title=" ">
<polygon fill="none" stroke="black" points="947,-168.5 947,-187.5 1060,-187.5 1060,-168.5 947,-168.5"/>
<text text-anchor="middle" x="1003.5" y="-175.5" font-family="Helvetica,sans-Serif" font-size="10.00">InteractionEntities.cpp</text>
</a>
</g>
</g>
<!-- Node1&#45;&gt;Node21 -->
<g id="edge23" class="edge">
<title>Node1&#45;&gt;Node21</title>
<path fill="none" stroke="midnightblue" d="M879.33,-221.17C909.27,-211 951.72,-196.59 978.42,-187.52"/>
<polygon fill="midnightblue" stroke="midnightblue" points="878.04,-217.91 869.69,-224.44 880.29,-224.54 878.04,-217.91"/>
</g>
<!-- Node4 -->
<g id="node4" class="node">
<title>Node4</title>
<g id="a_node4"><a xlink:href="../../da/d96/a00782.html" target="_top" xlink:title=" ">
<polygon fill="none" stroke="black" points="0,-56.5 0,-75.5 161,-75.5 161,-56.5 0,-56.5"/>
<text text-anchor="middle" x="80.5" y="-63.5" font-family="Helvetica,sans-Serif" font-size="10.00">ApplicationCommandEntities.cpp</text>
</a>
</g>
</g>
<!-- Node3&#45;&gt;Node4 -->
<g id="edge3" class="edge">
<title>Node3&#45;&gt;Node4</title>
<path fill="none" stroke="midnightblue" d="M624.55,-111.96C421.67,-90.38 368.72,-93.93 169.5,-76 166.72,-75.75 163.88,-75.49 161.02,-75.22"/>
<polygon fill="midnightblue" stroke="midnightblue" points="624.33,-115.45 634.64,-113.04 625.07,-108.49 624.33,-115.45"/>
</g>
<!-- Node5 -->
<g id="node5" class="node">
<title>Node5</title>
<g id="a_node5"><a xlink:href="../../d5/d72/a00803.html" target="_top" xlink:title=" ">
<polygon fill="none" stroke="black" points="179,-56.5 179,-75.5 292,-75.5 292,-56.5 179,-56.5"/>
<text text-anchor="middle" x="235.5" y="-63.5" font-family="Helvetica,sans-Serif" font-size="10.00">DiscordCoreClient.cpp</text>
</a>
</g>
</g>
<!-- Node3&#45;&gt;Node5 -->
<g id="edge4" class="edge">
<title>Node3&#45;&gt;Node5</title>
<path fill="none" stroke="midnightblue" d="M624.8,-111.94C479.57,-94.16 441.47,-93.56 300.5,-76 297.79,-75.66 295.01,-75.31 292.21,-74.94"/>
<polygon fill="midnightblue" stroke="midnightblue" points="624.63,-115.45 634.99,-113.2 625.49,-108.5 624.63,-115.45"/>
</g>
<!-- Node6 -->
<g id="node6" class="node">
<title>Node6</title>
<g id="a_node6"><a xlink:href="../../d8/db7/a00812.html" target="_top" xlink:title=" ">
<polygon fill="none" stroke="black" points="310,-56.5 310,-75.5 407,-75.5 407,-56.5 310,-56.5"/>
<text text-anchor="middle" x="358.5" y="-63.5" font-family="Helvetica,sans-Serif" font-size="10.00">EventManager.cpp</text>
</a>
</g>
</g>
<!-- Node3&#45;&gt;Node6 -->
<g id="edge5" class="edge">
<title>Node3&#45;&gt;Node6</title>
<path fill="none" stroke="midnightblue" d="M628.72,-110.82C564.44,-100.4 465.86,-84.41 407.23,-74.9"/>
<polygon fill="midnightblue" stroke="midnightblue" points="628.3,-114.3 638.74,-112.44 629.42,-107.39 628.3,-114.3"/>
</g>
<!-- Node7 -->
<g id="node7" class="node">
<title>Node7</title>
<g id="a_node7"><a xlink:href="../../d3/d60/a00818.html" target="_top" xlink:title=" ">
<polygon fill="none" stroke="black" points="425,-56.5 425,-75.5 516,-75.5 516,-56.5 425,-56.5"/>
<text text-anchor="middle" x="470.5" y="-63.5" font-family="Helvetica,sans-Serif" font-size="10.00">GuildEntities.cpp</text>
</a>
</g>
</g>
<!-- Node3&#45;&gt;Node7 -->
<g id="edge6" class="edge">
<title>Node3&#45;&gt;Node7</title>
<path fill="none" stroke="midnightblue" d="M646.58,-110.02C604.83,-99.82 543.52,-84.84 505.35,-75.52"/>
<polygon fill="midnightblue" stroke="midnightblue" points="645.94,-113.47 656.48,-112.44 647.6,-106.67 645.94,-113.47"/>
</g>
<!-- Node8 -->
<g id="node8" class="node">
<title>Node8</title>
<g id="a_node8"><a xlink:href="../../dc/d1b/a00827.html" target="_top" xlink:title=" ">
<polygon fill="none" stroke="black" points="534,-56.5 534,-75.5 593,-75.5 593,-56.5 534,-56.5"/>
<text text-anchor="middle" x="563.5" y="-63.5" font-family="Helvetica,sans-Serif" font-size="10.00">Https.cpp</text>
</a>
</g>
</g>
<!-- Node3&#45;&gt;Node8 -->
<g id="edge7" class="edge">
<title>Node3&#45;&gt;Node8</title>
<path fill="none" stroke="midnightblue" d="M661.88,-108.5C637.88,-98.38 604.72,-84.39 583.69,-75.52"/>
<polygon fill="midnightblue" stroke="midnightblue" points="660.64,-111.78 671.22,-112.44 663.36,-105.33 660.64,-111.78"/>
</g>
<!-- Node9 -->
<g id="node9" class="node">
<title>Node9</title>
<g id="a_node9"><a xlink:href="../../d8/db9/a00725.html" target="_top" xlink:title=" ">
<polygon fill="none" stroke="black" points="611,-56.5 611,-75.5 670,-75.5 670,-56.5 611,-56.5"/>
<text text-anchor="middle" x="640.5" y="-63.5" font-family="Helvetica,sans-Serif" font-size="10.00">Index.hpp</text>
</a>
</g>
</g>
<!-- Node3&#45;&gt;Node9 -->
<g id="edge8" class="edge">
<title>Node3&#45;&gt;Node9</title>
<path fill="none" stroke="midnightblue" d="M676.12,-104.72C667.13,-95.2 656.14,-83.56 648.76,-75.75"/>
<polygon fill="midnightblue" stroke="midnightblue" points="673.67,-107.22 683.08,-112.08 678.76,-102.41 673.67,-107.22"/>
</g>
<!-- Node11 -->
<g id="node11" class="node">
<title>Node11</title>
<g id="a_node11"><a xlink:href="../../d3/d13/a00836.html" target="_top" xlink:title=" ">
<polygon fill="none" stroke="black" points="688.5,-56.5 688.5,-75.5 796.5,-75.5 796.5,-56.5 688.5,-56.5"/>
<text text-anchor="middle" x="742.5" y="-63.5" font-family="Helvetica,sans-Serif" font-size="10.00">MessageEntities.cpp</text>
</a>
</g>
</g>
<!-- Node3&#45;&gt;Node11 -->
<g id="edge10" class="edge">
<title>Node3&#45;&gt;Node11</title>
<path fill="none" stroke="midnightblue" d="M706.88,-104.72C715.87,-95.2 726.86,-83.56 734.24,-75.75"/>
<polygon fill="midnightblue" stroke="midnightblue" points="704.24,-102.41 699.92,-112.08 709.33,-107.22 704.24,-102.41"/>
</g>
<!-- Node12 -->
<g id="node12" class="node">
<title>Node12</title>
<g id="a_node12"><a xlink:href="../../d7/dcf/a00845.html" target="_top" xlink:title=" ">
<polygon fill="none" stroke="black" points="814.5,-56.5 814.5,-75.5 888.5,-75.5 888.5,-56.5 814.5,-56.5"/>
<text text-anchor="middle" x="851.5" y="-63.5" font-family="Helvetica,sans-Serif" font-size="10.00">SongAPI.cpp</text>
</a>
</g>
</g>
<!-- Node3&#45;&gt;Node12 -->
<g id="edge11" class="edge">
<title>Node3&#45;&gt;Node12</title>
<path fill="none" stroke="midnightblue" d="M726.55,-109.17C756.67,-99 799.4,-84.59 826.27,-75.52"/>
<polygon fill="midnightblue" stroke="midnightblue" points="725.21,-105.93 716.85,-112.44 727.45,-112.56 725.21,-105.93"/>
</g>
<!-- Node13 -->
<g id="node13" class="node">
<title>Node13</title>
<g id="a_node13"><a xlink:href="../../d9/d30/a00848.html" target="_top" xlink:title=" ">
<polygon fill="none" stroke="black" points="906.5,-56.5 906.5,-75.5 1010.5,-75.5 1010.5,-56.5 906.5,-56.5"/>
<text text-anchor="middle" x="958.5" y="-63.5" font-family="Helvetica,sans-Serif" font-size="10.00">SoundCloudAPI.cpp</text>
</a>
</g>
</g>
<!-- Node3&#45;&gt;Node13 -->
<g id="edge12" class="edge">
<title>Node3&#45;&gt;Node13</title>
<path fill="none" stroke="midnightblue" d="M743.86,-110.41C794.32,-100.2 869.7,-84.96 916.39,-75.52"/>
<polygon fill="midnightblue" stroke="midnightblue" points="742.91,-107.03 733.81,-112.44 744.3,-113.89 742.91,-107.03"/>
</g>
<!-- Node14 -->
<g id="node14" class="node">
<title>Node14</title>
<g id="a_node14"><a xlink:href="../../dc/d17/a00872.html" target="_top" xlink:title=" ">
<polygon fill="none" stroke="black" points="1029,-56.5 1029,-75.5 1138,-75.5 1138,-56.5 1029,-56.5"/>
<text text-anchor="middle" x="1083.5" y="-63.5" font-family="Helvetica,sans-Serif" font-size="10.00">VoiceConnection.cpp</text>
</a>
</g>
</g>
<!-- Node3&#45;&gt;Node14 -->
<g id="edge13" class="edge">
<title>Node3&#45;&gt;Node14</title>
<path fill="none" stroke="midnightblue" d="M758.26,-111.87C839.09,-100.81 970.5,-82.81 1019.5,-76 1022.5,-75.58 1025.58,-75.15 1028.69,-74.72"/>
<polygon fill="midnightblue" stroke="midnightblue" points="757.61,-108.42 748.18,-113.25 758.56,-115.36 757.61,-108.42"/>
</g>
<!-- Node15 -->
<g id="node15" class="node">
<title>Node15</title>
<g id="a_node15"><a xlink:href="../../d5/d69/a00878.html" target="_top" xlink:title=" ">
<polygon fill="none" stroke="black" points="1156,-56.5 1156,-75.5 1275,-75.5 1275,-56.5 1156,-56.5"/>
<text text-anchor="middle" x="1215.5" y="-63.5" font-family="Helvetica,sans-Serif" font-size="10.00">WebSocketEntities.cpp</text>
</a>
</g>
</g>
<!-- Node3&#45;&gt;Node15 -->
<g id="edge14" class="edge">
<title>Node3&#45;&gt;Node15</title>
<path fill="none" stroke="midnightblue" d="M758.02,-111.99C932.12,-92.35 977.73,-95.06 1147.5,-76 1150.22,-75.69 1153,-75.37 1155.81,-75.04"/>
<polygon fill="midnightblue" stroke="midnightblue" points="757.55,-108.52 748.01,-113.13 758.34,-115.48 757.55,-108.52"/>
</g>
<!-- Node16 -->
<g id="node16" class="node">
<title>Node16</title>
<g id="a_node16"><a xlink:href="../../df/d41/a00881.html" target="_top" xlink:title=" ">
<polygon fill="none" stroke="black" points="1293,-56.5 1293,-75.5 1382,-75.5 1382,-56.5 1293,-56.5"/>
<text text-anchor="middle" x="1337.5" y="-63.5" font-family="Helvetica,sans-Serif" font-size="10.00">YouTubeAPI.cpp</text>
</a>
</g>
</g>
<!-- Node3&#45;&gt;Node16 -->
<g id="edge15" class="edge">
<title>Node3&#45;&gt;Node16</title>
<path fill="none" stroke="midnightblue" d="M758.55,-111.97C992.79,-88.56 1054.67,-103.29 1284.5,-76 1287.19,-75.68 1289.95,-75.32 1292.73,-74.93"/>
<polygon fill="midnightblue" stroke="midnightblue" points="757.95,-108.51 748.35,-113 758.65,-115.48 757.95,-108.51"/>
</g>
<!-- Node10 -->
<g id="node10" class="node">
<title>Node10</title>
<g id="a_node10"><a xlink:href="../../d0/dad/a00806.html" target="_top" xlink:title=" ">
<polygon fill="none" stroke="black" points="606.5,-0.5 606.5,-19.5 674.5,-19.5 674.5,-0.5 606.5,-0.5"/>
<text text-anchor="middle" x="640.5" y="-7.5" font-family="Helvetica,sans-Serif" font-size="10.00">DllMain.cpp</text>
</a>
</g>
</g>
<!-- Node9&#45;&gt;Node10 -->
<g id="edge9" class="edge">
<title>Node9&#45;&gt;Node10</title>
<path fill="none" stroke="midnightblue" d="M640.5,-45.8C640.5,-36.91 640.5,-26.78 640.5,-19.75"/>
<polygon fill="midnightblue" stroke="midnightblue" points="637,-46.08 640.5,-56.08 644,-46.08 637,-46.08"/>
</g>
<!-- Node18&#45;&gt;Node2 -->
<g id="edge18" class="edge">
<title>Node18&#45;&gt;Node2</title>
<path fill="none" stroke="midnightblue" d="M758.6,-166.35C709.84,-156.14 637.21,-140.94 592.19,-131.52"/>
<polygon fill="midnightblue" stroke="midnightblue" points="758.11,-169.82 768.62,-168.44 759.55,-162.97 758.11,-169.82"/>
</g>
<!-- Node18&#45;&gt;Node3 -->
<g id="edge19" class="edge">
<title>Node18&#45;&gt;Node3</title>
<path fill="none" stroke="midnightblue" d="M781.6,-164.23C759.53,-154.13 729.32,-140.31 710.11,-131.52"/>
<polygon fill="midnightblue" stroke="midnightblue" points="780.25,-167.46 790.8,-168.44 783.17,-161.1 780.25,-167.46"/>
</g>
<!-- Node18&#45;&gt;Node17 -->
<g id="edge20" class="edge">
<title>Node18&#45;&gt;Node17</title>
<path fill="none" stroke="midnightblue" d="M837.64,-164.23C859.9,-154.13 890.36,-140.31 909.73,-131.52"/>
<polygon fill="midnightblue" stroke="midnightblue" points="836.02,-161.12 828.36,-168.44 838.91,-167.5 836.02,-161.12"/>
</g>
<!-- Node19 -->
<g id="node19" class="node">
<title>Node19</title>
<g id="a_node19"><a xlink:href="../../d9/daf/a00830.html" target="_top" xlink:title=" ">
<polygon fill="none" stroke="black" points="766.5,-112.5 766.5,-131.5 852.5,-131.5 852.5,-112.5 766.5,-112.5"/>
<text text-anchor="middle" x="809.5" y="-119.5" font-family="Helvetica,sans-Serif" font-size="10.00">InputEvents.cpp</text>
</a>
</g>
</g>
<!-- Node18&#45;&gt;Node19 -->
<g id="edge21" class="edge">
<title>Node18&#45;&gt;Node19</title>
<path fill="none" stroke="midnightblue" d="M809.5,-157.8C809.5,-148.91 809.5,-138.78 809.5,-131.75"/>
<polygon fill="midnightblue" stroke="midnightblue" points="806,-158.08 809.5,-168.08 813,-158.08 806,-158.08"/>
</g>
<!-- Node18&#45;&gt;Node20 -->
<g id="edge22" class="edge">
<title>Node18&#45;&gt;Node20</title>
<path fill="none" stroke="midnightblue" d="M855.65,-166.12C899.6,-155.75 964.75,-140.39 1004.25,-131.08"/>
<polygon fill="midnightblue" stroke="midnightblue" points="854.72,-162.74 845.79,-168.44 856.32,-169.55 854.72,-162.74"/>
</g>
</g>
</svg>
