<?xml version="1.0" encoding="UTF-8" standalone="no"?>
<!DOCTYPE svg PUBLIC "-//W3C//DTD SVG 1.1//EN"
 "http://www.w3.org/Graphics/SVG/1.1/DTD/svg11.dtd">
<!-- Generated by graphviz version 2.43.0 (0)
 -->
<!-- Title: Graphical Class Hierarchy Pages: 1 -->
<svg width="896pt" height="880pt"
 viewBox="0.00 0.00 896.00 880.00" xmlns="http://www.w3.org/2000/svg" xmlns:xlink="http://www.w3.org/1999/xlink">
<g id="graph0" class="graph" transform="scale(1 1) rotate(0) translate(4 876)">
<title>Graphical Class Hierarchy</title>
<!-- Node0 -->
<g id="node1" class="node">
<title>Node0</title>
<g id="a_node1"><a xlink:title="STL class.">
<polygon fill="none" stroke="#bfbfbf" points="0,-603.5 0,-622.5 80,-622.5 80,-603.5 0,-603.5"/>
<text text-anchor="middle" x="40" y="-610.5" font-family="Helvetica,sans-Serif" font-size="10.00">std::ios_base</text>
</a>
</g>
</g>
<!-- Node1 -->
<g id="node2" class="node">
<title>Node1</title>
<g id="a_node2"><a xlink:title=" ">
<polygon fill="none" stroke="#bfbfbf" points="124.5,-641.5 124.5,-660.5 250.5,-660.5 250.5,-641.5 124.5,-641.5"/>
<text text-anchor="middle" x="187.5" y="-648.5" font-family="Helvetica,sans-Serif" font-size="10.00">std::basic_ios&lt; char &gt;</text>
</a>
</g>
</g>
<!-- Node0&#45;&gt;Node1 -->
<g id="edge1" class="edge">
<title>Node0&#45;&gt;Node1</title>
<path fill="none" stroke="midnightblue" d="M87.65,-625.18C107.85,-630.46 131.15,-636.54 150.05,-641.48"/>
<polygon fill="midnightblue" stroke="midnightblue" points="88.28,-621.73 77.72,-622.59 86.51,-628.5 88.28,-621.73"/>
</g>
<!-- Node2 -->
<g id="node3" class="node">
<title>Node2</title>
<g id="a_node3"><a xlink:title=" ">
<polygon fill="none" stroke="#bfbfbf" points="116,-603.5 116,-622.5 259,-622.5 259,-603.5 116,-603.5"/>
<text text-anchor="middle" x="187.5" y="-610.5" font-family="Helvetica,sans-Serif" font-size="10.00">std::basic_ios&lt; wchar_t &gt;</text>
</a>
</g>
</g>
<!-- Node0&#45;&gt;Node2 -->
<g id="edge2" class="edge">
<title>Node0&#45;&gt;Node2</title>
<path fill="none" stroke="midnightblue" d="M90.5,-613C98.71,-613 107.37,-613 115.98,-613"/>
<polygon fill="midnightblue" stroke="midnightblue" points="90.37,-609.5 80.37,-613 90.37,-616.5 90.37,-609.5"/>
</g>
<!-- Node3 -->
<g id="node4" class="node">
<title>Node3</title>
<g id="a_node4"><a xlink:title="STL class.">
<polygon fill="none" stroke="#bfbfbf" points="123.5,-565.5 123.5,-584.5 251.5,-584.5 251.5,-565.5 123.5,-565.5"/>
<text text-anchor="middle" x="187.5" y="-572.5" font-family="Helvetica,sans-Serif" font-size="10.00">std::basic_ios&lt; Char &gt;</text>
</a>
</g>
</g>
<!-- Node0&#45;&gt;Node3 -->
<g id="edge3" class="edge">
<title>Node0&#45;&gt;Node3</title>
<path fill="none" stroke="midnightblue" d="M87.65,-600.82C107.85,-595.54 131.15,-589.46 150.05,-584.52"/>
<polygon fill="midnightblue" stroke="midnightblue" points="86.51,-597.5 77.72,-603.41 88.28,-604.27 86.51,-597.5"/>
</g>
<!-- Node4 -->
<g id="node5" class="node">
<title>Node4</title>
<g id="a_node5"><a xlink:title=" ">
<polygon fill="none" stroke="#bfbfbf" points="296.5,-732 296.5,-762 402.5,-762 402.5,-732 296.5,-732"/>
<text text-anchor="start" x="304.5" y="-750" font-family="Helvetica,sans-Serif" font-size="10.00">std::basic_istream</text>
<text text-anchor="middle" x="349.5" y="-739" font-family="Helvetica,sans-Serif" font-size="10.00">&lt; char &gt;</text>
</a>
</g>
</g>
<!-- Node3&#45;&gt;Node4 -->
<g id="edge4" class="edge">
<title>Node3&#45;&gt;Node4</title>
<path fill="none" stroke="midnightblue" d="M254.37,-589.99C256,-591.23 257.55,-592.56 259,-594 301.28,-635.9 256.17,-677.88 295,-723 297.92,-726.4 301.42,-729.33 305.21,-731.87"/>
<polygon fill="midnightblue" stroke="midnightblue" points="256.01,-586.89 245.66,-584.6 252.32,-592.84 256.01,-586.89"/>
</g>
<!-- Node5 -->
<g id="node6" class="node">
<title>Node5</title>
<g id="a_node6"><a xlink:title=" ">
<polygon fill="none" stroke="#bfbfbf" points="296.5,-683 296.5,-713 402.5,-713 402.5,-683 296.5,-683"/>
<text text-anchor="start" x="304.5" y="-701" font-family="Helvetica,sans-Serif" font-size="10.00">std::basic_istream</text>
<text text-anchor="middle" x="349.5" y="-690" font-family="Helvetica,sans-Serif" font-size="10.00">&lt; wchar_t &gt;</text>
</a>
</g>
</g>
<!-- Node3&#45;&gt;Node5 -->
<g id="edge5" class="edge">
<title>Node3&#45;&gt;Node5</title>
<path fill="none" stroke="midnightblue" d="M252.67,-589.36C254.9,-590.77 257.02,-592.31 259,-594 288.68,-619.28 267.41,-646.45 295,-674 298.39,-677.38 302.33,-680.33 306.52,-682.89"/>
<polygon fill="midnightblue" stroke="midnightblue" points="254.15,-586.18 243.68,-584.59 250.87,-592.37 254.15,-586.18"/>
</g>
<!-- Node6 -->
<g id="node7" class="node">
<title>Node6</title>
<g id="a_node7"><a xlink:title=" ">
<polygon fill="none" stroke="#bfbfbf" points="295,-634 295,-664 404,-664 404,-634 295,-634"/>
<text text-anchor="start" x="303" y="-652" font-family="Helvetica,sans-Serif" font-size="10.00">std::basic_ostream</text>
<text text-anchor="middle" x="349.5" y="-641" font-family="Helvetica,sans-Serif" font-size="10.00">&lt; char &gt;</text>
</a>
</g>
</g>
<!-- Node3&#45;&gt;Node6 -->
<g id="edge6" class="edge">
<title>Node3&#45;&gt;Node6</title>
<path fill="none" stroke="midnightblue" d="M245.32,-587.88C250.05,-589.68 254.68,-591.71 259,-594 277.66,-603.88 277.18,-613.67 295,-625 300.07,-628.22 305.64,-631.23 311.22,-633.96"/>
<polygon fill="midnightblue" stroke="midnightblue" points="246.11,-584.45 235.51,-584.51 243.83,-591.07 246.11,-584.45"/>
</g>
<!-- Node7 -->
<g id="node8" class="node">
<title>Node7</title>
<g id="a_node8"><a xlink:title=" ">
<polygon fill="none" stroke="#bfbfbf" points="295,-585 295,-615 404,-615 404,-585 295,-585"/>
<text text-anchor="start" x="303" y="-603" font-family="Helvetica,sans-Serif" font-size="10.00">std::basic_ostream</text>
<text text-anchor="middle" x="349.5" y="-592" font-family="Helvetica,sans-Serif" font-size="10.00">&lt; wchar_t &gt;</text>
</a>
</g>
</g>
<!-- Node3&#45;&gt;Node7 -->
<g id="edge7" class="edge">
<title>Node3&#45;&gt;Node7</title>
<path fill="none" stroke="midnightblue" d="M259.35,-586.07C271.25,-587.93 283.42,-589.83 294.79,-591.61"/>
<polygon fill="midnightblue" stroke="midnightblue" points="259.87,-582.61 249.45,-584.52 258.79,-589.52 259.87,-582.61"/>
</g>
<!-- Node8 -->
<g id="node9" class="node">
<title>Node8</title>
<g id="a_node9"><a xlink:title="STL class.">
<polygon fill="none" stroke="#bfbfbf" points="296.5,-306 296.5,-336 402.5,-336 402.5,-306 296.5,-306"/>
<text text-anchor="start" x="304.5" y="-324" font-family="Helvetica,sans-Serif" font-size="10.00">std::basic_istream</text>
<text text-anchor="middle" x="349.5" y="-313" font-family="Helvetica,sans-Serif" font-size="10.00">&lt; Char &gt;</text>
</a>
</g>
</g>
<!-- Node3&#45;&gt;Node8 -->
<g id="edge8" class="edge">
<title>Node3&#45;&gt;Node8</title>
<path fill="none" stroke="midnightblue" d="M200.07,-556.64C230.3,-508.65 311.22,-380.19 338.99,-336.1"/>
<polygon fill="midnightblue" stroke="midnightblue" points="196.95,-555.03 194.58,-565.35 202.87,-558.76 196.95,-555.03"/>
</g>
<!-- Node34 -->
<g id="node35" class="node">
<title>Node34</title>
<g id="a_node35"><a xlink:title="STL class.">
<polygon fill="none" stroke="#bfbfbf" points="295,-536 295,-566 404,-566 404,-536 295,-536"/>
<text text-anchor="start" x="303" y="-554" font-family="Helvetica,sans-Serif" font-size="10.00">std::basic_ostream</text>
<text text-anchor="middle" x="349.5" y="-543" font-family="Helvetica,sans-Serif" font-size="10.00">&lt; Char &gt;</text>
</a>
</g>
</g>
<!-- Node3&#45;&gt;Node34 -->
<g id="edge34" class="edge">
<title>Node3&#45;&gt;Node34</title>
<path fill="none" stroke="midnightblue" d="M261.84,-564C272.93,-562.34 284.19,-560.65 294.76,-559.06"/>
<polygon fill="midnightblue" stroke="midnightblue" points="261.11,-560.57 251.74,-565.51 262.14,-567.49 261.11,-560.57"/>
</g>
<!-- Node47 -->
<g id="node48" class="node">
<title>Node47</title>
<g id="a_node48"><a xlink:title="STL class.">
<polygon fill="none" stroke="#bfbfbf" points="323.5,-267.5 323.5,-286.5 375.5,-286.5 375.5,-267.5 323.5,-267.5"/>
<text text-anchor="middle" x="349.5" y="-274.5" font-family="Helvetica,sans-Serif" font-size="10.00">std::ios</text>
</a>
</g>
</g>
<!-- Node3&#45;&gt;Node47 -->
<g id="edge50" class="edge">
<title>Node3&#45;&gt;Node47</title>
<path fill="none" stroke="midnightblue" d="M190.54,-555.2C196.73,-505.04 219.77,-371.63 295,-297 302.67,-289.39 313.51,-284.63 323.43,-281.68"/>
<polygon fill="midnightblue" stroke="midnightblue" points="187.04,-555.01 189.38,-565.34 193.99,-555.8 187.04,-555.01"/>
</g>
<!-- Node48 -->
<g id="node49" class="node">
<title>Node48</title>
<g id="a_node49"><a xlink:title="STL class.">
<polygon fill="none" stroke="#bfbfbf" points="319.5,-229.5 319.5,-248.5 379.5,-248.5 379.5,-229.5 319.5,-229.5"/>
<text text-anchor="middle" x="349.5" y="-236.5" font-family="Helvetica,sans-Serif" font-size="10.00">std::wios</text>
</a>
</g>
</g>
<!-- Node3&#45;&gt;Node48 -->
<g id="edge51" class="edge">
<title>Node3&#45;&gt;Node48</title>
<path fill="none" stroke="midnightblue" d="M189.37,-555.35C192.84,-500.55 210.08,-344.39 295,-258 301.56,-251.32 310.62,-246.98 319.42,-244.17"/>
<polygon fill="midnightblue" stroke="midnightblue" points="185.87,-555.27 188.82,-565.44 192.86,-555.65 185.87,-555.27"/>
</g>
<!-- Node9 -->
<g id="node10" class="node">
<title>Node9</title>
<g id="a_node10"><a xlink:title=" ">
<polygon fill="none" stroke="#bfbfbf" points="453.5,-284 453.5,-314 563.5,-314 563.5,-284 453.5,-284"/>
<text text-anchor="start" x="461.5" y="-302" font-family="Helvetica,sans-Serif" font-size="10.00">std::basic_ifstream</text>
<text text-anchor="middle" x="508.5" y="-291" font-family="Helvetica,sans-Serif" font-size="10.00">&lt; char &gt;</text>
</a>
</g>
</g>
<!-- Node8&#45;&gt;Node9 -->
<g id="edge9" class="edge">
<title>Node8&#45;&gt;Node9</title>
<path fill="none" stroke="midnightblue" d="M412.85,-312.26C426.23,-310.39 440.26,-308.42 453.3,-306.59"/>
<polygon fill="midnightblue" stroke="midnightblue" points="412.2,-308.82 402.78,-313.67 413.17,-315.75 412.2,-308.82"/>
</g>
<!-- Node10 -->
<g id="node11" class="node">
<title>Node10</title>
<g id="a_node11"><a xlink:title=" ">
<polygon fill="none" stroke="#bfbfbf" points="453.5,-235 453.5,-265 563.5,-265 563.5,-235 453.5,-235"/>
<text text-anchor="start" x="461.5" y="-253" font-family="Helvetica,sans-Serif" font-size="10.00">std::basic_ifstream</text>
<text text-anchor="middle" x="508.5" y="-242" font-family="Helvetica,sans-Serif" font-size="10.00">&lt; wchar_t &gt;</text>
</a>
</g>
</g>
<!-- Node8&#45;&gt;Node10 -->
<g id="edge10" class="edge">
<title>Node8&#45;&gt;Node10</title>
<path fill="none" stroke="midnightblue" d="M393.07,-301.54C396.79,-299.71 400.47,-297.85 404,-296 420.41,-287.4 423.25,-282.91 440,-275 447.46,-271.48 455.56,-268.11 463.47,-265.05"/>
<polygon fill="midnightblue" stroke="midnightblue" points="391.32,-298.5 383.84,-305.99 394.36,-304.8 391.32,-298.5"/>
</g>
<!-- Node11 -->
<g id="node12" class="node">
<title>Node11</title>
<g id="a_node12"><a xlink:title=" ">
<polygon fill="none" stroke="#bfbfbf" points="452.5,-372 452.5,-402 564.5,-402 564.5,-372 452.5,-372"/>
<text text-anchor="start" x="460.5" y="-390" font-family="Helvetica,sans-Serif" font-size="10.00">std::basic_iostream</text>
<text text-anchor="middle" x="508.5" y="-379" font-family="Helvetica,sans-Serif" font-size="10.00">&lt; char &gt;</text>
</a>
</g>
</g>
<!-- Node8&#45;&gt;Node11 -->
<g id="edge11" class="edge">
<title>Node8&#45;&gt;Node11</title>
<path fill="none" stroke="midnightblue" d="M390.9,-340.29C406.17,-347.37 423.78,-355.29 440,-362 448.08,-365.34 456.79,-368.73 465.18,-371.88"/>
<polygon fill="midnightblue" stroke="midnightblue" points="392.27,-337.06 381.73,-336 389.31,-343.4 392.27,-337.06"/>
</g>
<!-- Node12 -->
<g id="node13" class="node">
<title>Node12</title>
<g id="a_node13"><a xlink:title=" ">
<polygon fill="none" stroke="#bfbfbf" points="452.5,-470 452.5,-500 564.5,-500 564.5,-470 452.5,-470"/>
<text text-anchor="start" x="460.5" y="-488" font-family="Helvetica,sans-Serif" font-size="10.00">std::basic_iostream</text>
<text text-anchor="middle" x="508.5" y="-477" font-family="Helvetica,sans-Serif" font-size="10.00">&lt; wchar_t &gt;</text>
</a>
</g>
</g>
<!-- Node8&#45;&gt;Node12 -->
<g id="edge12" class="edge">
<title>Node8&#45;&gt;Node12</title>
<path fill="none" stroke="midnightblue" d="M360.25,-345.68C373.72,-376.77 400.88,-429.89 440,-461 444.28,-464.41 449.09,-467.35 454.11,-469.89"/>
<polygon fill="midnightblue" stroke="midnightblue" points="363.45,-344.28 356.36,-336.41 357,-346.99 363.45,-344.28"/>
</g>
<!-- Node13 -->
<g id="node14" class="node">
<title>Node13</title>
<g id="a_node14"><a xlink:title=" ">
<polygon fill="none" stroke="#bfbfbf" points="441.5,-186 441.5,-216 575.5,-216 575.5,-186 441.5,-186"/>
<text text-anchor="start" x="449.5" y="-204" font-family="Helvetica,sans-Serif" font-size="10.00">std::basic_istringstream</text>
<text text-anchor="middle" x="508.5" y="-193" font-family="Helvetica,sans-Serif" font-size="10.00">&lt; char &gt;</text>
</a>
</g>
</g>
<!-- Node8&#45;&gt;Node13 -->
<g id="edge13" class="edge">
<title>Node8&#45;&gt;Node13</title>
<path fill="none" stroke="midnightblue" d="M399.34,-300.04C400.97,-298.76 402.53,-297.41 404,-296 429.2,-271.74 413.82,-249.21 440,-226 444.3,-222.19 449.24,-218.94 454.44,-216.17"/>
<polygon fill="midnightblue" stroke="midnightblue" points="397.01,-297.38 390.69,-305.88 400.93,-303.18 397.01,-297.38"/>
</g>
<!-- Node14 -->
<g id="node15" class="node">
<title>Node14</title>
<g id="a_node15"><a xlink:title=" ">
<polygon fill="none" stroke="#bfbfbf" points="441.5,-137 441.5,-167 575.5,-167 575.5,-137 441.5,-137"/>
<text text-anchor="start" x="449.5" y="-155" font-family="Helvetica,sans-Serif" font-size="10.00">std::basic_istringstream</text>
<text text-anchor="middle" x="508.5" y="-144" font-family="Helvetica,sans-Serif" font-size="10.00">&lt; wchar_t &gt;</text>
</a>
</g>
</g>
<!-- Node8&#45;&gt;Node14 -->
<g id="edge14" class="edge">
<title>Node8&#45;&gt;Node14</title>
<path fill="none" stroke="midnightblue" d="M400.38,-299.73C401.66,-298.55 402.87,-297.31 404,-296 440.17,-254.23 402.14,-217.24 440,-177 443.6,-173.18 447.83,-169.94 452.39,-167.19"/>
<polygon fill="midnightblue" stroke="midnightblue" points="398.21,-296.98 392.42,-305.85 402.48,-302.52 398.21,-296.98"/>
</g>
<!-- Node15 -->
<g id="node16" class="node">
<title>Node15</title>
<g id="a_node16"><a xlink:title="STL class.">
<polygon fill="none" stroke="#bfbfbf" points="453.5,-88 453.5,-118 563.5,-118 563.5,-88 453.5,-88"/>
<text text-anchor="start" x="461.5" y="-106" font-family="Helvetica,sans-Serif" font-size="10.00">std::basic_ifstream</text>
<text text-anchor="middle" x="508.5" y="-95" font-family="Helvetica,sans-Serif" font-size="10.00">&lt; Char &gt;</text>
</a>
</g>
</g>
<!-- Node8&#45;&gt;Node15 -->
<g id="edge15" class="edge">
<title>Node8&#45;&gt;Node15</title>
<path fill="none" stroke="midnightblue" d="M400.92,-299.45C402.01,-298.35 403.04,-297.2 404,-296 451.56,-236.26 390.02,-185.73 440,-128 443.76,-123.65 448.35,-120.06 453.35,-117.1"/>
<polygon fill="midnightblue" stroke="midnightblue" points="398.52,-296.89 392.99,-305.93 402.95,-302.31 398.52,-296.89"/>
</g>
<!-- Node18 -->
<g id="node19" class="node">
<title>Node18</title>
<g id="a_node19"><a xlink:title="STL class.">
<polygon fill="none" stroke="#bfbfbf" points="452.5,-421 452.5,-451 564.5,-451 564.5,-421 452.5,-421"/>
<text text-anchor="start" x="460.5" y="-439" font-family="Helvetica,sans-Serif" font-size="10.00">std::basic_iostream</text>
<text text-anchor="middle" x="508.5" y="-428" font-family="Helvetica,sans-Serif" font-size="10.00">&lt; Char &gt;</text>
</a>
</g>
</g>
<!-- Node8&#45;&gt;Node18 -->
<g id="edge18" class="edge">
<title>Node8&#45;&gt;Node18</title>
<path fill="none" stroke="midnightblue" d="M368.16,-344.17C384.75,-364.52 411.26,-393.67 440,-412 445.24,-415.34 451.01,-418.3 456.9,-420.88"/>
<polygon fill="midnightblue" stroke="midnightblue" points="370.86,-341.94 361.89,-336.3 365.39,-346.3 370.86,-341.94"/>
</g>
<!-- Node29 -->
<g id="node30" class="node">
<title>Node29</title>
<g id="a_node30"><a xlink:title="STL class.">
<polygon fill="none" stroke="#bfbfbf" points="441.5,-39 441.5,-69 575.5,-69 575.5,-39 441.5,-39"/>
<text text-anchor="start" x="449.5" y="-57" font-family="Helvetica,sans-Serif" font-size="10.00">std::basic_istringstream</text>
<text text-anchor="middle" x="508.5" y="-46" font-family="Helvetica,sans-Serif" font-size="10.00">&lt; Char &gt;</text>
</a>
</g>
</g>
<!-- Node8&#45;&gt;Node29 -->
<g id="edge29" class="edge">
<title>Node8&#45;&gt;Node29</title>
<path fill="none" stroke="midnightblue" d="M401.07,-299.44C402.11,-298.34 403.09,-297.2 404,-296 463.09,-218.12 377.75,-154.38 440,-79 443.18,-75.15 447.02,-71.89 451.23,-69.13"/>
<polygon fill="midnightblue" stroke="midnightblue" points="398.8,-296.76 393.43,-305.89 403.32,-302.11 398.8,-296.76"/>
</g>
<!-- Node32 -->
<g id="node33" class="node">
<title>Node32</title>
<g id="a_node33"><a xlink:title="STL class.">
<polygon fill="none" stroke="#bfbfbf" points="471,-0.5 471,-19.5 546,-19.5 546,-0.5 471,-0.5"/>
<text text-anchor="middle" x="508.5" y="-7.5" font-family="Helvetica,sans-Serif" font-size="10.00">std::istream</text>
</a>
</g>
</g>
<!-- Node8&#45;&gt;Node32 -->
<g id="edge32" class="edge">
<title>Node8&#45;&gt;Node32</title>
<path fill="none" stroke="midnightblue" d="M401.42,-299.14C402.34,-298.14 403.2,-297.09 404,-296 474.92,-199.52 361.48,-119.4 440,-29 447.74,-20.08 459.31,-15.2 470.69,-12.57"/>
<polygon fill="midnightblue" stroke="midnightblue" points="398.8,-296.78 393.55,-305.98 403.39,-302.07 398.8,-296.78"/>
</g>
<!-- Node33 -->
<g id="node34" class="node">
<title>Node33</title>
<g id="a_node34"><a xlink:title="STL class.">
<polygon fill="none" stroke="#bfbfbf" points="467,-333.5 467,-352.5 550,-352.5 550,-333.5 467,-333.5"/>
<text text-anchor="middle" x="508.5" y="-340.5" font-family="Helvetica,sans-Serif" font-size="10.00">std::wistream</text>
</a>
</g>
</g>
<!-- Node8&#45;&gt;Node33 -->
<g id="edge33" class="edge">
<title>Node8&#45;&gt;Node33</title>
<path fill="none" stroke="midnightblue" d="M412.74,-329.72C430.95,-332.27 450.37,-335 466.87,-337.31"/>
<polygon fill="midnightblue" stroke="midnightblue" points="413.17,-326.25 402.78,-328.33 412.2,-333.18 413.17,-326.25"/>
</g>
<!-- Node16 -->
<g id="node17" class="node">
<title>Node16</title>
<g id="a_node17"><a xlink:title="STL class.">
<polygon fill="none" stroke="#bfbfbf" points="639,-126.5 639,-145.5 718,-145.5 718,-126.5 639,-126.5"/>
<text text-anchor="middle" x="678.5" y="-133.5" font-family="Helvetica,sans-Serif" font-size="10.00">std::ifstream</text>
</a>
</g>
</g>
<!-- Node15&#45;&gt;Node16 -->
<g id="edge16" class="edge">
<title>Node15&#45;&gt;Node16</title>
<path fill="none" stroke="midnightblue" d="M573.55,-115.58C595.59,-119.91 619.58,-124.62 638.96,-128.43"/>
<polygon fill="midnightblue" stroke="midnightblue" points="574.07,-112.12 563.58,-113.62 572.72,-118.98 574.07,-112.12"/>
</g>
<!-- Node17 -->
<g id="node18" class="node">
<title>Node17</title>
<g id="a_node18"><a xlink:title="STL class.">
<polygon fill="none" stroke="#bfbfbf" points="635,-88.5 635,-107.5 722,-107.5 722,-88.5 635,-88.5"/>
<text text-anchor="middle" x="678.5" y="-95.5" font-family="Helvetica,sans-Serif" font-size="10.00">std::wifstream</text>
</a>
</g>
</g>
<!-- Node15&#45;&gt;Node17 -->
<g id="edge17" class="edge">
<title>Node15&#45;&gt;Node17</title>
<path fill="none" stroke="midnightblue" d="M573.8,-101.09C594.28,-100.48 616.43,-99.82 634.97,-99.27"/>
<polygon fill="midnightblue" stroke="midnightblue" points="573.47,-97.59 563.58,-101.39 573.68,-104.59 573.47,-97.59"/>
</g>
<!-- Node19 -->
<g id="node20" class="node">
<title>Node19</title>
<g id="a_node20"><a xlink:title=" ">
<polygon fill="none" stroke="#bfbfbf" points="625,-402 625,-432 732,-432 732,-402 625,-402"/>
<text text-anchor="start" x="633" y="-420" font-family="Helvetica,sans-Serif" font-size="10.00">std::basic_fstream</text>
<text text-anchor="middle" x="678.5" y="-409" font-family="Helvetica,sans-Serif" font-size="10.00">&lt; char &gt;</text>
</a>
</g>
</g>
<!-- Node18&#45;&gt;Node19 -->
<g id="edge19" class="edge">
<title>Node18&#45;&gt;Node19</title>
<path fill="none" stroke="midnightblue" d="M574.71,-428.63C591.35,-426.74 609.02,-424.74 624.94,-422.94"/>
<polygon fill="midnightblue" stroke="midnightblue" points="574.05,-425.18 564.51,-429.78 574.84,-432.13 574.05,-425.18"/>
</g>
<!-- Node20 -->
<g id="node21" class="node">
<title>Node20</title>
<g id="a_node21"><a xlink:title=" ">
<polygon fill="none" stroke="#bfbfbf" points="625,-353 625,-383 732,-383 732,-353 625,-353"/>
<text text-anchor="start" x="633" y="-371" font-family="Helvetica,sans-Serif" font-size="10.00">std::basic_fstream</text>
<text text-anchor="middle" x="678.5" y="-360" font-family="Helvetica,sans-Serif" font-size="10.00">&lt; wchar_t &gt;</text>
</a>
</g>
</g>
<!-- Node18&#45;&gt;Node20 -->
<g id="edge20" class="edge">
<title>Node18&#45;&gt;Node20</title>
<path fill="none" stroke="midnightblue" d="M564.34,-417.26C568.66,-415.55 572.92,-413.79 577,-412 593.57,-404.73 596.54,-400.5 613,-393 620.54,-389.56 628.7,-386.16 636.6,-383.03"/>
<polygon fill="midnightblue" stroke="midnightblue" points="562.96,-414.04 554.88,-420.88 565.47,-420.57 562.96,-414.04"/>
</g>
<!-- Node21 -->
<g id="node22" class="node">
<title>Node21</title>
<g id="a_node22"><a xlink:title=" ">
<polygon fill="none" stroke="#bfbfbf" points="613,-304 613,-334 744,-334 744,-304 613,-304"/>
<text text-anchor="start" x="621" y="-322" font-family="Helvetica,sans-Serif" font-size="10.00">std::basic_stringstream</text>
<text text-anchor="middle" x="678.5" y="-311" font-family="Helvetica,sans-Serif" font-size="10.00">&lt; char &gt;</text>
</a>
</g>
</g>
<!-- Node18&#45;&gt;Node21 -->
<g id="edge21" class="edge">
<title>Node18&#45;&gt;Node21</title>
<path fill="none" stroke="midnightblue" d="M572.75,-415.36C574.22,-414.29 575.64,-413.17 577,-412 602.87,-389.64 587.45,-366.72 613,-344 617.31,-340.17 622.27,-336.9 627.48,-334.11"/>
<polygon fill="midnightblue" stroke="midnightblue" points="570.5,-412.63 563.86,-420.89 574.2,-418.58 570.5,-412.63"/>
</g>
<!-- Node22 -->
<g id="node23" class="node">
<title>Node22</title>
<g id="a_node23"><a xlink:title=" ">
<polygon fill="none" stroke="#bfbfbf" points="613,-255 613,-285 744,-285 744,-255 613,-255"/>
<text text-anchor="start" x="621" y="-273" font-family="Helvetica,sans-Serif" font-size="10.00">std::basic_stringstream</text>
<text text-anchor="middle" x="678.5" y="-262" font-family="Helvetica,sans-Serif" font-size="10.00">&lt; wchar_t &gt;</text>
</a>
</g>
</g>
<!-- Node18&#45;&gt;Node22 -->
<g id="edge22" class="edge">
<title>Node18&#45;&gt;Node22</title>
<path fill="none" stroke="midnightblue" d="M573.06,-415.68C574.44,-414.52 575.76,-413.3 577,-412 614.63,-372.71 575.92,-334.82 613,-295 616.6,-291.13 620.87,-287.86 625.47,-285.08"/>
<polygon fill="midnightblue" stroke="midnightblue" points="570.75,-413.03 564.57,-421.63 574.77,-418.76 570.75,-413.03"/>
</g>
<!-- Node23 -->
<g id="node24" class="node">
<title>Node23</title>
<g id="a_node24"><a xlink:title="STL class.">
<polygon fill="none" stroke="#bfbfbf" points="625,-500 625,-530 732,-530 732,-500 625,-500"/>
<text text-anchor="start" x="633" y="-518" font-family="Helvetica,sans-Serif" font-size="10.00">std::basic_fstream</text>
<text text-anchor="middle" x="678.5" y="-507" font-family="Helvetica,sans-Serif" font-size="10.00">&lt; Char &gt;</text>
</a>
</g>
</g>
<!-- Node18&#45;&gt;Node23 -->
<g id="edge23" class="edge">
<title>Node18&#45;&gt;Node23</title>
<path fill="none" stroke="midnightblue" d="M565.73,-455.13C569.62,-456.96 573.41,-458.92 577,-461 595.03,-471.43 594.98,-480.55 613,-491 618.68,-494.3 624.9,-497.28 631.17,-499.94"/>
<polygon fill="midnightblue" stroke="midnightblue" points="567.12,-451.91 556.56,-451.07 564.29,-458.31 567.12,-451.91"/>
</g>
<!-- Node26 -->
<g id="node27" class="node">
<title>Node26</title>
<g id="a_node27"><a xlink:title="STL class.">
<polygon fill="none" stroke="#bfbfbf" points="613,-451 613,-481 744,-481 744,-451 613,-451"/>
<text text-anchor="start" x="621" y="-469" font-family="Helvetica,sans-Serif" font-size="10.00">std::basic_stringstream</text>
<text text-anchor="middle" x="678.5" y="-458" font-family="Helvetica,sans-Serif" font-size="10.00">&lt; Char &gt;</text>
</a>
</g>
</g>
<!-- Node18&#45;&gt;Node26 -->
<g id="edge26" class="edge">
<title>Node18&#45;&gt;Node26</title>
<path fill="none" stroke="midnightblue" d="M574.43,-447.6C587,-449.84 600.16,-452.19 612.72,-454.43"/>
<polygon fill="midnightblue" stroke="midnightblue" points="574.97,-444.14 564.51,-445.82 573.74,-451.03 574.97,-444.14"/>
</g>
<!-- Node24 -->
<g id="node25" class="node">
<title>Node24</title>
<g id="a_node25"><a xlink:title="STL class.">
<polygon fill="none" stroke="#bfbfbf" points="796,-540.5 796,-559.5 872,-559.5 872,-540.5 796,-540.5"/>
<text text-anchor="middle" x="834" y="-547.5" font-family="Helvetica,sans-Serif" font-size="10.00">std::fstream</text>
</a>
</g>
</g>
<!-- Node23&#45;&gt;Node24 -->
<g id="edge24" class="edge">
<title>Node23&#45;&gt;Node24</title>
<path fill="none" stroke="midnightblue" d="M742.25,-529.31C760.35,-533.44 779.53,-537.81 795.57,-541.47"/>
<polygon fill="midnightblue" stroke="midnightblue" points="742.85,-525.86 732.33,-527.05 741.3,-532.68 742.85,-525.86"/>
</g>
<!-- Node25 -->
<g id="node26" class="node">
<title>Node25</title>
<g id="a_node26"><a xlink:title="STL class.">
<polygon fill="none" stroke="#bfbfbf" points="792,-502.5 792,-521.5 876,-521.5 876,-502.5 792,-502.5"/>
<text text-anchor="middle" x="834" y="-509.5" font-family="Helvetica,sans-Serif" font-size="10.00">std::wfstream</text>
</a>
</g>
</g>
<!-- Node23&#45;&gt;Node25 -->
<g id="edge25" class="edge">
<title>Node23&#45;&gt;Node25</title>
<path fill="none" stroke="midnightblue" d="M742.51,-513.77C759.11,-513.44 776.59,-513.1 791.71,-512.81"/>
<polygon fill="midnightblue" stroke="midnightblue" points="742.26,-510.27 732.33,-513.97 742.39,-517.27 742.26,-510.27"/>
</g>
<!-- Node27 -->
<g id="node28" class="node">
<title>Node27</title>
<g id="a_node28"><a xlink:title="STL class.">
<polygon fill="none" stroke="#bfbfbf" points="784,-459.5 784,-478.5 884,-478.5 884,-459.5 784,-459.5"/>
<text text-anchor="middle" x="834" y="-466.5" font-family="Helvetica,sans-Serif" font-size="10.00">std::stringstream</text>
</a>
</g>
</g>
<!-- Node26&#45;&gt;Node27 -->
<g id="edge27" class="edge">
<title>Node26&#45;&gt;Node27</title>
<path fill="none" stroke="midnightblue" d="M754.18,-467.46C764.24,-467.66 774.35,-467.85 783.82,-468.04"/>
<polygon fill="midnightblue" stroke="midnightblue" points="754.22,-463.96 744.15,-467.26 754.08,-470.96 754.22,-463.96"/>
</g>
<!-- Node28 -->
<g id="node29" class="node">
<title>Node28</title>
<g id="a_node29"><a xlink:title="STL class.">
<polygon fill="none" stroke="#bfbfbf" points="780,-421.5 780,-440.5 888,-440.5 888,-421.5 780,-421.5"/>
<text text-anchor="middle" x="834" y="-428.5" font-family="Helvetica,sans-Serif" font-size="10.00">std::wstringstream</text>
</a>
</g>
</g>
<!-- Node26&#45;&gt;Node28 -->
<g id="edge28" class="edge">
<title>Node26&#45;&gt;Node28</title>
<path fill="none" stroke="midnightblue" d="M753.9,-449.04C766.71,-446.12 779.6,-443.18 791.15,-440.54"/>
<polygon fill="midnightblue" stroke="midnightblue" points="753.12,-445.62 744.15,-451.26 754.68,-452.45 753.12,-445.62"/>
</g>
<!-- Node30 -->
<g id="node31" class="node">
<title>Node30</title>
<g id="a_node31"><a xlink:title="STL class.">
<polygon fill="none" stroke="#bfbfbf" points="627,-47.5 627,-66.5 730,-66.5 730,-47.5 627,-47.5"/>
<text text-anchor="middle" x="678.5" y="-54.5" font-family="Helvetica,sans-Serif" font-size="10.00">std::istringstream</text>
</a>
</g>
</g>
<!-- Node29&#45;&gt;Node30 -->
<g id="edge30" class="edge">
<title>Node29&#45;&gt;Node30</title>
<path fill="none" stroke="midnightblue" d="M585.93,-55.36C599.81,-55.61 613.97,-55.87 626.87,-56.1"/>
<polygon fill="midnightblue" stroke="midnightblue" points="585.96,-51.86 575.9,-55.19 585.83,-58.86 585.96,-51.86"/>
</g>
<!-- Node31 -->
<g id="node32" class="node">
<title>Node31</title>
<g id="a_node32"><a xlink:title="STL class.">
<polygon fill="none" stroke="#bfbfbf" points="623,-9.5 623,-28.5 734,-28.5 734,-9.5 623,-9.5"/>
<text text-anchor="middle" x="678.5" y="-16.5" font-family="Helvetica,sans-Serif" font-size="10.00">std::wistringstream</text>
</a>
</g>
</g>
<!-- Node29&#45;&gt;Node31 -->
<g id="edge31" class="edge">
<title>Node29&#45;&gt;Node31</title>
<path fill="none" stroke="midnightblue" d="M586.08,-38.05C601.68,-34.8 617.63,-31.47 631.75,-28.53"/>
<polygon fill="midnightblue" stroke="midnightblue" points="584.97,-34.7 575.9,-40.17 586.4,-41.55 584.97,-34.7"/>
</g>
<!-- Node34&#45;&gt;Node11 -->
<g id="edge35" class="edge">
<title>Node34&#45;&gt;Node11</title>
<path fill="none" stroke="midnightblue" d="M360.53,-526.18C374.18,-495.34 401.4,-443.01 440,-412 444.77,-408.17 450.19,-404.88 455.84,-402.08"/>
<polygon fill="midnightblue" stroke="midnightblue" points="357.15,-525.18 356.43,-535.75 363.59,-527.94 357.15,-525.18"/>
</g>
<!-- Node34&#45;&gt;Node12 -->
<g id="edge36" class="edge">
<title>Node34&#45;&gt;Node12</title>
<path fill="none" stroke="midnightblue" d="M390.9,-531.71C406.17,-524.63 423.78,-516.71 440,-510 448.08,-506.66 456.79,-503.27 465.18,-500.12"/>
<polygon fill="midnightblue" stroke="midnightblue" points="389.31,-528.6 381.73,-536 392.27,-534.94 389.31,-528.6"/>
</g>
<!-- Node34&#45;&gt;Node18 -->
<g id="edge41" class="edge">
<title>Node34&#45;&gt;Node18</title>
<path fill="none" stroke="midnightblue" d="M368.49,-527.92C385.17,-507.87 411.62,-479.25 440,-461 445.89,-457.22 452.43,-453.89 459.05,-451"/>
<polygon fill="midnightblue" stroke="midnightblue" points="365.57,-525.97 361.97,-535.94 371,-530.39 365.57,-525.97"/>
</g>
<!-- Node35 -->
<g id="node36" class="node">
<title>Node35</title>
<g id="a_node36"><a xlink:title=" ">
<polygon fill="none" stroke="#bfbfbf" points="452,-803 452,-833 565,-833 565,-803 452,-803"/>
<text text-anchor="start" x="460" y="-821" font-family="Helvetica,sans-Serif" font-size="10.00">std::basic_ofstream</text>
<text text-anchor="middle" x="508.5" y="-810" font-family="Helvetica,sans-Serif" font-size="10.00">&lt; char &gt;</text>
</a>
</g>
</g>
<!-- Node34&#45;&gt;Node35 -->
<g id="edge37" class="edge">
<title>Node34&#45;&gt;Node35</title>
<path fill="none" stroke="midnightblue" d="M401.07,-572.56C402.11,-573.66 403.09,-574.8 404,-576 463.33,-654.26 377.01,-718.67 440,-794 443.35,-798.01 447.42,-801.35 451.88,-804.13"/>
<polygon fill="midnightblue" stroke="midnightblue" points="403.33,-569.89 393.43,-566.1 398.8,-575.23 403.33,-569.89"/>
</g>
<!-- Node36 -->
<g id="node37" class="node">
<title>Node36</title>
<g id="a_node37"><a xlink:title=" ">
<polygon fill="none" stroke="#bfbfbf" points="452,-754 452,-784 565,-784 565,-754 452,-754"/>
<text text-anchor="start" x="460" y="-772" font-family="Helvetica,sans-Serif" font-size="10.00">std::basic_ofstream</text>
<text text-anchor="middle" x="508.5" y="-761" font-family="Helvetica,sans-Serif" font-size="10.00">&lt; wchar_t &gt;</text>
</a>
</g>
</g>
<!-- Node34&#45;&gt;Node36 -->
<g id="edge38" class="edge">
<title>Node34&#45;&gt;Node36</title>
<path fill="none" stroke="midnightblue" d="M400.93,-572.55C402.01,-573.65 403.04,-574.8 404,-576 451.8,-636.11 389.39,-687.24 440,-745 443.36,-748.84 447.38,-752.06 451.75,-754.77"/>
<polygon fill="midnightblue" stroke="midnightblue" points="402.95,-569.69 393,-566.06 398.52,-575.11 402.95,-569.69"/>
</g>
<!-- Node37 -->
<g id="node38" class="node">
<title>Node37</title>
<g id="a_node38"><a xlink:title=" ">
<polygon fill="none" stroke="#bfbfbf" points="440,-705 440,-735 577,-735 577,-705 440,-705"/>
<text text-anchor="start" x="448" y="-723" font-family="Helvetica,sans-Serif" font-size="10.00">std::basic_ostringstream</text>
<text text-anchor="middle" x="508.5" y="-712" font-family="Helvetica,sans-Serif" font-size="10.00">&lt; char &gt;</text>
</a>
</g>
</g>
<!-- Node34&#45;&gt;Node37 -->
<g id="edge39" class="edge">
<title>Node34&#45;&gt;Node37</title>
<path fill="none" stroke="midnightblue" d="M400.38,-572.27C401.66,-573.45 402.87,-574.69 404,-576 440.4,-618.13 401.63,-655.65 440,-696 443.26,-699.42 447.03,-702.36 451.11,-704.88"/>
<polygon fill="midnightblue" stroke="midnightblue" points="402.49,-569.47 392.43,-566.15 398.22,-575.02 402.49,-569.47"/>
</g>
<!-- Node38 -->
<g id="node39" class="node">
<title>Node38</title>
<g id="a_node39"><a xlink:title=" ">
<polygon fill="none" stroke="#bfbfbf" points="440,-656 440,-686 577,-686 577,-656 440,-656"/>
<text text-anchor="start" x="448" y="-674" font-family="Helvetica,sans-Serif" font-size="10.00">std::basic_ostringstream</text>
<text text-anchor="middle" x="508.5" y="-663" font-family="Helvetica,sans-Serif" font-size="10.00">&lt; wchar_t &gt;</text>
</a>
</g>
</g>
<!-- Node34&#45;&gt;Node38 -->
<g id="edge40" class="edge">
<title>Node34&#45;&gt;Node38</title>
<path fill="none" stroke="midnightblue" d="M399.35,-571.95C400.98,-573.23 402.54,-574.58 404,-576 429.42,-600.61 413.44,-623.63 440,-647 443.92,-650.45 448.37,-653.42 453.08,-655.96"/>
<polygon fill="midnightblue" stroke="midnightblue" points="400.95,-568.81 390.71,-566.1 397.02,-574.61 400.95,-568.81"/>
</g>
<!-- Node39 -->
<g id="node40" class="node">
<title>Node39</title>
<g id="a_node40"><a xlink:title="STL class.">
<polygon fill="none" stroke="#bfbfbf" points="452,-607 452,-637 565,-637 565,-607 452,-607"/>
<text text-anchor="start" x="460" y="-625" font-family="Helvetica,sans-Serif" font-size="10.00">std::basic_ofstream</text>
<text text-anchor="middle" x="508.5" y="-614" font-family="Helvetica,sans-Serif" font-size="10.00">&lt; Char &gt;</text>
</a>
</g>
</g>
<!-- Node34&#45;&gt;Node39 -->
<g id="edge42" class="edge">
<title>Node34&#45;&gt;Node39</title>
<path fill="none" stroke="midnightblue" d="M393.27,-570.46C396.92,-572.28 400.54,-574.14 404,-576 420.52,-584.87 423.08,-589.93 440,-598 446.74,-601.21 454.02,-604.24 461.23,-606.99"/>
<polygon fill="midnightblue" stroke="midnightblue" points="394.7,-567.27 384.17,-566.04 391.64,-573.56 394.7,-567.27"/>
</g>
<!-- Node42 -->
<g id="node43" class="node">
<title>Node42</title>
<g id="a_node43"><a xlink:title="STL class.">
<polygon fill="none" stroke="#bfbfbf" points="440,-558 440,-588 577,-588 577,-558 440,-558"/>
<text text-anchor="start" x="448" y="-576" font-family="Helvetica,sans-Serif" font-size="10.00">std::basic_ostringstream</text>
<text text-anchor="middle" x="508.5" y="-565" font-family="Helvetica,sans-Serif" font-size="10.00">&lt; Char &gt;</text>
</a>
</g>
</g>
<!-- Node34&#45;&gt;Node42 -->
<g id="edge45" class="edge">
<title>Node34&#45;&gt;Node42</title>
<path fill="none" stroke="midnightblue" d="M414,-559.9C422.56,-561.1 431.37,-562.33 439.99,-563.54"/>
<polygon fill="midnightblue" stroke="midnightblue" points="414.48,-556.43 404.09,-558.51 413.51,-563.36 414.48,-556.43"/>
</g>
<!-- Node45 -->
<g id="node46" class="node">
<title>Node45</title>
<g id="a_node46"><a xlink:title="STL class.">
<polygon fill="none" stroke="#bfbfbf" points="469.5,-519.5 469.5,-538.5 547.5,-538.5 547.5,-519.5 469.5,-519.5"/>
<text text-anchor="middle" x="508.5" y="-526.5" font-family="Helvetica,sans-Serif" font-size="10.00">std::ostream</text>
</a>
</g>
</g>
<!-- Node34&#45;&gt;Node45 -->
<g id="edge48" class="edge">
<title>Node34&#45;&gt;Node45</title>
<path fill="none" stroke="midnightblue" d="M414.08,-542.09C432.88,-539.46 452.86,-536.66 469.49,-534.33"/>
<polygon fill="midnightblue" stroke="midnightblue" points="413.51,-538.64 404.09,-543.49 414.48,-545.57 413.51,-538.64"/>
</g>
<!-- Node46 -->
<g id="node47" class="node">
<title>Node46</title>
<g id="a_node47"><a xlink:title="STL class.">
<polygon fill="none" stroke="#bfbfbf" points="465.5,-852.5 465.5,-871.5 551.5,-871.5 551.5,-852.5 465.5,-852.5"/>
<text text-anchor="middle" x="508.5" y="-859.5" font-family="Helvetica,sans-Serif" font-size="10.00">std::wostream</text>
</a>
</g>
</g>
<!-- Node34&#45;&gt;Node46 -->
<g id="edge49" class="edge">
<title>Node34&#45;&gt;Node46</title>
<path fill="none" stroke="midnightblue" d="M401.42,-572.86C402.34,-573.86 403.2,-574.91 404,-576 474.92,-672.48 361.48,-752.6 440,-843 446.55,-850.54 455.82,-855.19 465.41,-858.04"/>
<polygon fill="midnightblue" stroke="midnightblue" points="403.39,-569.93 393.55,-566.02 398.8,-575.22 403.39,-569.93"/>
</g>
<!-- Node40 -->
<g id="node41" class="node">
<title>Node40</title>
<g id="a_node41"><a xlink:title="STL class.">
<polygon fill="none" stroke="#bfbfbf" points="637.5,-663.5 637.5,-682.5 719.5,-682.5 719.5,-663.5 637.5,-663.5"/>
<text text-anchor="middle" x="678.5" y="-670.5" font-family="Helvetica,sans-Serif" font-size="10.00">std::ofstream</text>
</a>
</g>
</g>
<!-- Node39&#45;&gt;Node40 -->
<g id="edge43" class="edge">
<title>Node39&#45;&gt;Node40</title>
<path fill="none" stroke="midnightblue" d="M567.24,-640C582.14,-644.61 598.16,-649.52 613,-654 623.28,-657.1 634.5,-660.43 644.66,-663.42"/>
<polygon fill="midnightblue" stroke="midnightblue" points="568.23,-636.64 557.64,-637.03 566.16,-643.33 568.23,-636.64"/>
</g>
<!-- Node41 -->
<g id="node42" class="node">
<title>Node41</title>
<g id="a_node42"><a xlink:title="STL class.">
<polygon fill="none" stroke="#bfbfbf" points="633.5,-625.5 633.5,-644.5 723.5,-644.5 723.5,-625.5 633.5,-625.5"/>
<text text-anchor="middle" x="678.5" y="-632.5" font-family="Helvetica,sans-Serif" font-size="10.00">std::wofstream</text>
</a>
</g>
</g>
<!-- Node39&#45;&gt;Node41 -->
<g id="edge44" class="edge">
<title>Node39&#45;&gt;Node41</title>
<path fill="none" stroke="midnightblue" d="M575.47,-627.11C594.94,-628.61 615.76,-630.22 633.48,-631.59"/>
<polygon fill="midnightblue" stroke="midnightblue" points="575.68,-623.61 565.44,-626.33 575.14,-630.59 575.68,-623.61"/>
</g>
<!-- Node43 -->
<g id="node44" class="node">
<title>Node43</title>
<g id="a_node44"><a xlink:title="STL class.">
<polygon fill="none" stroke="#bfbfbf" points="625.5,-587.5 625.5,-606.5 731.5,-606.5 731.5,-587.5 625.5,-587.5"/>
<text text-anchor="middle" x="678.5" y="-594.5" font-family="Helvetica,sans-Serif" font-size="10.00">std::ostringstream</text>
</a>
</g>
</g>
<!-- Node42&#45;&gt;Node43 -->
<g id="edge46" class="edge">
<title>Node42&#45;&gt;Node43</title>
<path fill="none" stroke="midnightblue" d="M587.58,-584.15C600.41,-585.99 613.43,-587.85 625.42,-589.56"/>
<polygon fill="midnightblue" stroke="midnightblue" points="587.74,-580.64 577.35,-582.69 586.75,-587.57 587.74,-580.64"/>
</g>
<!-- Node44 -->
<g id="node45" class="node">
<title>Node44</title>
<g id="a_node45"><a xlink:title="STL class.">
<polygon fill="none" stroke="#bfbfbf" points="621.5,-549.5 621.5,-568.5 735.5,-568.5 735.5,-549.5 621.5,-549.5"/>
<text text-anchor="middle" x="678.5" y="-556.5" font-family="Helvetica,sans-Serif" font-size="10.00">std::wostringstream</text>
</a>
</g>
</g>
<!-- Node42&#45;&gt;Node44 -->
<g id="edge47" class="edge">
<title>Node42&#45;&gt;Node44</title>
<path fill="none" stroke="midnightblue" d="M587.33,-566.51C598.77,-565.56 610.35,-564.6 621.24,-563.69"/>
<polygon fill="midnightblue" stroke="midnightblue" points="587.02,-563.03 577.35,-567.35 587.6,-570 587.02,-563.03"/>
</g>
</g>
</svg>
