<?xml version="1.0" encoding="UTF-8" standalone="no"?>
<!DOCTYPE svg PUBLIC "-//W3C//DTD SVG 1.1//EN"
 "http://www.w3.org/Graphics/SVG/1.1/DTD/svg11.dtd">
<!-- Generated by graphviz version 2.43.0 (0)
 -->
<!-- Title: Graphical Class Hierarchy Pages: 1 -->
<svg width="650pt" height="66pt"
 viewBox="0.00 0.00 650.00 66.00" xmlns="http://www.w3.org/2000/svg" xmlns:xlink="http://www.w3.org/1999/xlink">
<g id="graph0" class="graph" transform="scale(1 1) rotate(0) translate(4 62)">
<title>Graphical Class Hierarchy</title>
<!-- Node0 -->
<g id="node1" class="node">
<title>Node0</title>
<g id="a_node1"><a xlink:href="db/d38/a02789.html" target="_top" xlink:title="Message response base, for responding to messages.">
<polygon fill="none" stroke="black" points="0,-19.5 0,-38.5 212,-38.5 212,-19.5 0,-19.5"/>
<text text-anchor="middle" x="106" y="-26.5" font-family="Helvetica,sans-Serif" font-size="10.00">DiscordCoreAPI::MessageResponseBase</text>
</a>
</g>
</g>
<!-- Node1 -->
<g id="node2" class="node">
<title>Node1</title>
<g id="a_node2"><a xlink:href="d1/d5f/a03189.html" target="_top" xlink:title="For creating a Message.">
<polygon fill="none" stroke="black" points="248,-38.5 248,-57.5 445,-57.5 445,-38.5 248,-38.5"/>
<text text-anchor="middle" x="346.5" y="-45.5" font-family="Helvetica,sans-Serif" font-size="10.00">DiscordCoreAPI::CreateMessageData</text>
</a>
</g>
</g>
<!-- Node0&#45;&gt;Node1 -->
<g id="edge1" class="edge">
<title>Node0&#45;&gt;Node1</title>
<path fill="none" stroke="midnightblue" d="M222.34,-38.19C230.91,-38.87 239.5,-39.56 247.95,-40.23"/>
<polygon fill="midnightblue" stroke="midnightblue" points="222.55,-34.69 212.3,-37.39 221.99,-41.67 222.55,-34.69"/>
</g>
<!-- Node3 -->
<g id="node4" class="node">
<title>Node3</title>
<g id="a_node4"><a xlink:href="d6/df4/a03201.html" target="_top" xlink:title="For editing a Message.">
<polygon fill="none" stroke="black" points="255,-0.5 255,-19.5 438,-19.5 438,-0.5 255,-0.5"/>
<text text-anchor="middle" x="346.5" y="-7.5" font-family="Helvetica,sans-Serif" font-size="10.00">DiscordCoreAPI::EditMessageData</text>
</a>
</g>
</g>
<!-- Node0&#45;&gt;Node3 -->
<g id="edge3" class="edge">
<title>Node0&#45;&gt;Node3</title>
<path fill="none" stroke="midnightblue" d="M222.34,-19.81C233.29,-18.94 244.29,-18.06 254.96,-17.21"/>
<polygon fill="midnightblue" stroke="midnightblue" points="221.99,-16.33 212.3,-20.61 222.55,-23.31 221.99,-16.33"/>
</g>
<!-- Node2 -->
<g id="node3" class="node">
<title>Node2</title>
<g id="a_node3"><a xlink:href="d6/d04/a03193.html" target="_top" xlink:title="For sending a direct&#45;message.">
<polygon fill="none" stroke="black" points="481,-38.5 481,-57.5 642,-57.5 642,-38.5 481,-38.5"/>
<text text-anchor="middle" x="561.5" y="-45.5" font-family="Helvetica,sans-Serif" font-size="10.00">DiscordCoreAPI::SendDMData</text>
</a>
</g>
</g>
<!-- Node1&#45;&gt;Node2 -->
<g id="edge2" class="edge">
<title>Node1&#45;&gt;Node2</title>
<path fill="none" stroke="midnightblue" d="M455.35,-48C463.94,-48 472.53,-48 480.87,-48"/>
<polygon fill="midnightblue" stroke="midnightblue" points="455.27,-44.5 445.27,-48 455.27,-51.5 455.27,-44.5"/>
</g>
</g>
</svg>
