<?xml version="1.0" encoding="UTF-8" standalone="no"?>
<!DOCTYPE svg PUBLIC "-//W3C//DTD SVG 1.1//EN"
 "http://www.w3.org/Graphics/SVG/1.1/DTD/svg11.dtd">
<!-- Generated by graphviz version 2.43.0 (0)
 -->
<!-- Title: Graphical Class Hierarchy Pages: 1 -->
<svg width="432pt" height="420pt"
 viewBox="0.00 0.00 432.00 420.00" xmlns="http://www.w3.org/2000/svg" xmlns:xlink="http://www.w3.org/1999/xlink">
<g id="graph0" class="graph" transform="scale(1 1) rotate(0) translate(4 416)">
<title>Graphical Class Hierarchy</title>
<!-- Node307 -->
<g id="node1" class="node">
<title>Node307</title>
<g id="a_node1"><a xlink:title="STL class.">
<polygon fill="none" stroke="#bfbfbf" points="0,-278.5 0,-297.5 86,-297.5 86,-278.5 0,-278.5"/>
<text text-anchor="middle" x="43" y="-285.5" font-family="Helvetica,sans-Serif" font-size="10.00">std::exception</text>
</a>
</g>
</g>
<!-- Node308 -->
<g id="node2" class="node">
<title>Node308</title>
<g id="a_node2"><a xlink:title="STL class.">
<polygon fill="none" stroke="#bfbfbf" points="139,-392.5 139,-411.5 223,-411.5 223,-392.5 139,-392.5"/>
<text text-anchor="middle" x="181" y="-399.5" font-family="Helvetica,sans-Serif" font-size="10.00">std::bad_alloc</text>
</a>
</g>
</g>
<!-- Node307&#45;&gt;Node308 -->
<g id="edge1" class="edge">
<title>Node307&#45;&gt;Node308</title>
<path fill="none" stroke="midnightblue" d="M54.57,-306.36C67.75,-327.72 92.22,-362.63 122,-383 127.6,-386.83 134.02,-389.93 140.51,-392.43"/>
<polygon fill="midnightblue" stroke="midnightblue" points="57.46,-304.39 49.33,-297.61 51.46,-307.99 57.46,-304.39"/>
</g>
<!-- Node309 -->
<g id="node3" class="node">
<title>Node309</title>
<g id="a_node3"><a xlink:title="STL class.">
<polygon fill="none" stroke="#bfbfbf" points="140.5,-354.5 140.5,-373.5 221.5,-373.5 221.5,-354.5 140.5,-354.5"/>
<text text-anchor="middle" x="181" y="-361.5" font-family="Helvetica,sans-Serif" font-size="10.00">std::bad_cast</text>
</a>
</g>
</g>
<!-- Node307&#45;&gt;Node309 -->
<g id="edge2" class="edge">
<title>Node307&#45;&gt;Node309</title>
<path fill="none" stroke="midnightblue" d="M62.93,-304.48C78.07,-316.99 100.29,-333.87 122,-345 129.17,-348.67 137.19,-351.84 144.93,-354.48"/>
<polygon fill="midnightblue" stroke="midnightblue" points="64.79,-301.47 54.89,-297.7 60.28,-306.82 64.79,-301.47"/>
</g>
<!-- Node310 -->
<g id="node4" class="node">
<title>Node310</title>
<g id="a_node4"><a xlink:title="STL class.">
<polygon fill="none" stroke="#bfbfbf" points="126.5,-316.5 126.5,-335.5 235.5,-335.5 235.5,-316.5 126.5,-316.5"/>
<text text-anchor="middle" x="181" y="-323.5" font-family="Helvetica,sans-Serif" font-size="10.00">std::bad_exception</text>
</a>
</g>
</g>
<!-- Node307&#45;&gt;Node310 -->
<g id="edge3" class="edge">
<title>Node307&#45;&gt;Node310</title>
<path fill="none" stroke="midnightblue" d="M88.09,-300.32C106.77,-305.54 128.22,-311.53 145.69,-316.41"/>
<polygon fill="midnightblue" stroke="midnightblue" points="88.89,-296.91 78.32,-297.59 87.01,-303.65 88.89,-296.91"/>
</g>
<!-- Node311 -->
<g id="node5" class="node">
<title>Node311</title>
<g id="a_node5"><a xlink:title="STL class.">
<polygon fill="none" stroke="#bfbfbf" points="135,-278.5 135,-297.5 227,-297.5 227,-278.5 135,-278.5"/>
<text text-anchor="middle" x="181" y="-285.5" font-family="Helvetica,sans-Serif" font-size="10.00">std::bad_typeid</text>
</a>
</g>
</g>
<!-- Node307&#45;&gt;Node311 -->
<g id="edge4" class="edge">
<title>Node307&#45;&gt;Node311</title>
<path fill="none" stroke="midnightblue" d="M96.3,-288C109.03,-288 122.54,-288 134.91,-288"/>
<polygon fill="midnightblue" stroke="midnightblue" points="96.29,-284.5 86.29,-288 96.29,-291.5 96.29,-284.5"/>
</g>
<!-- Node312 -->
<g id="node6" class="node">
<title>Node312</title>
<g id="a_node6"><a xlink:title="STL class.">
<polygon fill="none" stroke="#bfbfbf" points="122,-240.5 122,-259.5 240,-259.5 240,-240.5 122,-240.5"/>
<text text-anchor="middle" x="181" y="-247.5" font-family="Helvetica,sans-Serif" font-size="10.00">std::ios_base::failure</text>
</a>
</g>
</g>
<!-- Node307&#45;&gt;Node312 -->
<g id="edge5" class="edge">
<title>Node307&#45;&gt;Node312</title>
<path fill="none" stroke="midnightblue" d="M88.09,-275.68C106.77,-270.46 128.22,-264.47 145.69,-259.59"/>
<polygon fill="midnightblue" stroke="midnightblue" points="87.01,-272.35 78.32,-278.41 88.89,-279.09 87.01,-272.35"/>
</g>
<!-- Node313 -->
<g id="node7" class="node">
<title>Node313</title>
<g id="a_node7"><a xlink:title="STL class.">
<polygon fill="none" stroke="#bfbfbf" points="136.5,-202.5 136.5,-221.5 225.5,-221.5 225.5,-202.5 136.5,-202.5"/>
<text text-anchor="middle" x="181" y="-209.5" font-family="Helvetica,sans-Serif" font-size="10.00">std::logic_error</text>
</a>
</g>
</g>
<!-- Node307&#45;&gt;Node313 -->
<g id="edge6" class="edge">
<title>Node307&#45;&gt;Node313</title>
<path fill="none" stroke="midnightblue" d="M62.93,-271.52C78.07,-259.01 100.29,-242.13 122,-231 129.17,-227.33 137.19,-224.16 144.93,-221.52"/>
<polygon fill="midnightblue" stroke="midnightblue" points="60.28,-269.18 54.89,-278.3 64.79,-274.53 60.28,-269.18"/>
</g>
<!-- Node318 -->
<g id="node12" class="node">
<title>Node318</title>
<g id="a_node12"><a xlink:title="STL class.">
<polygon fill="none" stroke="#bfbfbf" points="129,-76.5 129,-95.5 233,-95.5 233,-76.5 129,-76.5"/>
<text text-anchor="middle" x="181" y="-83.5" font-family="Helvetica,sans-Serif" font-size="10.00">std::runtime_error</text>
</a>
</g>
</g>
<!-- Node307&#45;&gt;Node318 -->
<g id="edge11" class="edge">
<title>Node307&#45;&gt;Node318</title>
<path fill="none" stroke="midnightblue" d="M56.18,-269.91C84.15,-228.37 152.19,-127.3 173.51,-95.65"/>
<polygon fill="midnightblue" stroke="midnightblue" points="53.24,-268.01 50.56,-278.26 59.05,-271.92 53.24,-268.01"/>
</g>
<!-- Node314 -->
<g id="node8" class="node">
<title>Node314</title>
<g id="a_node8"><a xlink:title="STL class.">
<polygon fill="none" stroke="#bfbfbf" points="298.5,-278.5 298.5,-297.5 401.5,-297.5 401.5,-278.5 298.5,-278.5"/>
<text text-anchor="middle" x="350" y="-285.5" font-family="Helvetica,sans-Serif" font-size="10.00">std::domain_error</text>
</a>
</g>
</g>
<!-- Node313&#45;&gt;Node314 -->
<g id="edge7" class="edge">
<title>Node313&#45;&gt;Node314</title>
<path fill="none" stroke="midnightblue" d="M229.86,-225.51C233.39,-227.16 236.81,-228.98 240,-231 259.66,-243.45 255.97,-257.17 276,-269 282.88,-273.06 290.62,-276.27 298.43,-278.79"/>
<polygon fill="midnightblue" stroke="midnightblue" points="230.93,-222.17 220.35,-221.57 228.25,-228.63 230.93,-222.17"/>
</g>
<!-- Node315 -->
<g id="node9" class="node">
<title>Node315</title>
<g id="a_node9"><a xlink:title="STL class.">
<polygon fill="none" stroke="#bfbfbf" points="288.5,-240.5 288.5,-259.5 411.5,-259.5 411.5,-240.5 288.5,-240.5"/>
<text text-anchor="middle" x="350" y="-247.5" font-family="Helvetica,sans-Serif" font-size="10.00">std::invalid_argument</text>
</a>
</g>
</g>
<!-- Node313&#45;&gt;Node315 -->
<g id="edge8" class="edge">
<title>Node313&#45;&gt;Node315</title>
<path fill="none" stroke="midnightblue" d="M233.96,-223.82C257.51,-229.18 284.97,-235.43 307.16,-240.48"/>
<polygon fill="midnightblue" stroke="midnightblue" points="234.67,-220.4 224.14,-221.59 233.12,-227.22 234.67,-220.4"/>
</g>
<!-- Node316 -->
<g id="node10" class="node">
<title>Node316</title>
<g id="a_node10"><a xlink:title="STL class.">
<polygon fill="none" stroke="#bfbfbf" points="301.5,-202.5 301.5,-221.5 398.5,-221.5 398.5,-202.5 301.5,-202.5"/>
<text text-anchor="middle" x="350" y="-209.5" font-family="Helvetica,sans-Serif" font-size="10.00">std::length_error</text>
</a>
</g>
</g>
<!-- Node313&#45;&gt;Node316 -->
<g id="edge9" class="edge">
<title>Node313&#45;&gt;Node316</title>
<path fill="none" stroke="midnightblue" d="M235.95,-212C256.99,-212 280.91,-212 301.31,-212"/>
<polygon fill="midnightblue" stroke="midnightblue" points="235.88,-208.5 225.88,-212 235.88,-215.5 235.88,-208.5"/>
</g>
<!-- Node317 -->
<g id="node11" class="node">
<title>Node317</title>
<g id="a_node11"><a xlink:title="STL class.">
<polygon fill="none" stroke="#bfbfbf" points="299.5,-164.5 299.5,-183.5 400.5,-183.5 400.5,-164.5 299.5,-164.5"/>
<text text-anchor="middle" x="350" y="-171.5" font-family="Helvetica,sans-Serif" font-size="10.00">std::out_of_range</text>
</a>
</g>
</g>
<!-- Node313&#45;&gt;Node317 -->
<g id="edge10" class="edge">
<title>Node313&#45;&gt;Node317</title>
<path fill="none" stroke="midnightblue" d="M233.96,-200.18C257.51,-194.82 284.97,-188.57 307.16,-183.52"/>
<polygon fill="midnightblue" stroke="midnightblue" points="233.12,-196.78 224.14,-202.41 234.67,-203.6 233.12,-196.78"/>
</g>
<!-- Node0 -->
<g id="node13" class="node">
<title>Node0</title>
<g id="a_node13"><a xlink:href="d2/d23/a01961.html" target="_top" xlink:title="An error type for CoRoutines.">
<polygon fill="none" stroke="black" points="276,-115 276,-145 424,-145 424,-115 276,-115"/>
<text text-anchor="start" x="284" y="-133" font-family="Helvetica,sans-Serif" font-size="10.00">DiscordCoreAPI::CoRoutine</text>
<text text-anchor="middle" x="350" y="-122" font-family="Helvetica,sans-Serif" font-size="10.00">Error</text>
</a>
</g>
</g>
<!-- Node318&#45;&gt;Node0 -->
<g id="edge12" class="edge">
<title>Node318&#45;&gt;Node0</title>
<path fill="none" stroke="midnightblue" d="M227.92,-98.1C247.67,-103.3 270.96,-109.44 291.82,-114.93"/>
<polygon fill="midnightblue" stroke="midnightblue" points="228.8,-94.71 218.24,-95.55 227.01,-101.48 228.8,-94.71"/>
</g>
<!-- Node320 -->
<g id="node14" class="node">
<title>Node320</title>
<g id="a_node14"><a xlink:title="STL class.">
<polygon fill="none" stroke="#bfbfbf" points="296,-76.5 296,-95.5 404,-95.5 404,-76.5 296,-76.5"/>
<text text-anchor="middle" x="350" y="-83.5" font-family="Helvetica,sans-Serif" font-size="10.00">std::overflow_error</text>
</a>
</g>
</g>
<!-- Node318&#45;&gt;Node320 -->
<g id="edge13" class="edge">
<title>Node318&#45;&gt;Node320</title>
<path fill="none" stroke="midnightblue" d="M243.04,-86C260.4,-86 279.15,-86 295.99,-86"/>
<polygon fill="midnightblue" stroke="midnightblue" points="243.01,-82.5 233.01,-86 243.01,-89.5 243.01,-82.5"/>
</g>
<!-- Node321 -->
<g id="node15" class="node">
<title>Node321</title>
<g id="a_node15"><a xlink:title="STL class.">
<polygon fill="none" stroke="#bfbfbf" points="303,-38.5 303,-57.5 397,-57.5 397,-38.5 303,-38.5"/>
<text text-anchor="middle" x="350" y="-45.5" font-family="Helvetica,sans-Serif" font-size="10.00">std::range_error</text>
</a>
</g>
</g>
<!-- Node318&#45;&gt;Node321 -->
<g id="edge14" class="edge">
<title>Node318&#45;&gt;Node321</title>
<path fill="none" stroke="midnightblue" d="M233.96,-74.18C257.51,-68.82 284.97,-62.57 307.16,-57.52"/>
<polygon fill="midnightblue" stroke="midnightblue" points="233.12,-70.78 224.14,-76.41 234.67,-77.6 233.12,-70.78"/>
</g>
<!-- Node322 -->
<g id="node16" class="node">
<title>Node322</title>
<g id="a_node16"><a xlink:title="STL class.">
<polygon fill="none" stroke="#bfbfbf" points="293,-0.5 293,-19.5 407,-19.5 407,-0.5 293,-0.5"/>
<text text-anchor="middle" x="350" y="-7.5" font-family="Helvetica,sans-Serif" font-size="10.00">std::underflow_error</text>
</a>
</g>
</g>
<!-- Node318&#45;&gt;Node322 -->
<g id="edge15" class="edge">
<title>Node318&#45;&gt;Node322</title>
<path fill="none" stroke="midnightblue" d="M203.3,-70.61C221.75,-57.89 249.56,-40.17 276,-29 284.81,-25.28 294.53,-22.13 303.92,-19.54"/>
<polygon fill="midnightblue" stroke="midnightblue" points="201.22,-67.79 195.04,-76.4 205.23,-73.52 201.22,-67.79"/>
</g>
</g>
</svg>
