<?xml version="1.0" encoding="UTF-8" standalone="no"?>
<!DOCTYPE svg PUBLIC "-//W3C//DTD SVG 1.1//EN"
 "http://www.w3.org/Graphics/SVG/1.1/DTD/svg11.dtd">
<!-- Generated by graphviz version 3.0.0 (20220226.1711)
 -->
<!-- Title: Graphical Class Hierarchy Pages: 1 -->
<svg width="606pt" height="66pt"
 viewBox="0.00 0.00 606.00 66.00" xmlns="http://www.w3.org/2000/svg" xmlns:xlink="http://www.w3.org/1999/xlink">
<g id="graph0" class="graph" transform="scale(1 1) rotate(0) translate(4 62)">
<title>Graphical Class Hierarchy</title>
<!-- Node0 -->
<g id="node1" class="node">
<title>Node0</title>
<g id="a_node1"><a xlink:href="d5/d34/a02809.html" target="_top" xlink:title="Message response base, for responding to messages.">
<polygon fill="none" stroke="black" points="0,-19.5 0,-38.5 197,-38.5 197,-19.5 0,-19.5"/>
<text text-anchor="middle" x="98.5" y="-26.5" font-family="Helvetica,sans-Serif" font-size="10.00">DiscordCoreAPI::MessageResponseBase</text>
</a>
</g>
</g>
<!-- Node1 -->
<g id="node2" class="node">
<title>Node1</title>
<g id="a_node2"><a xlink:href="d9/d59/a03213.html" target="_top" xlink:title="For creating a Message.">
<polygon fill="none" stroke="black" points="233,-38.5 233,-57.5 413,-57.5 413,-38.5 233,-38.5"/>
<text text-anchor="middle" x="323" y="-45.5" font-family="Helvetica,sans-Serif" font-size="10.00">DiscordCoreAPI::CreateMessageData</text>
</a>
</g>
</g>
<!-- Node0&#45;&gt;Node1 -->
<g id="edge1" class="edge">
<title>Node0&#45;&gt;Node1</title>
<path fill="none" stroke="midnightblue" d="M207.18,-38.2C215.79,-38.93 224.44,-39.67 232.9,-40.39"/>
<polygon fill="midnightblue" stroke="midnightblue" points="207.35,-34.7 197.09,-37.33 206.76,-41.67 207.35,-34.7"/>
</g>
<!-- Node3 -->
<g id="node4" class="node">
<title>Node3</title>
<g id="a_node4"><a xlink:href="d5/da4/a03225.html" target="_top" xlink:title="For editing a Message.">
<polygon fill="none" stroke="black" points="238.5,-0.5 238.5,-19.5 407.5,-19.5 407.5,-0.5 238.5,-0.5"/>
<text text-anchor="middle" x="323" y="-7.5" font-family="Helvetica,sans-Serif" font-size="10.00">DiscordCoreAPI::EditMessageData</text>
</a>
</g>
</g>
<!-- Node0&#45;&gt;Node3 -->
<g id="edge3" class="edge">
<title>Node0&#45;&gt;Node3</title>
<path fill="none" stroke="midnightblue" d="M207.14,-19.81C217.65,-18.91 228.2,-18.01 238.41,-17.14"/>
<polygon fill="midnightblue" stroke="midnightblue" points="206.76,-16.33 197.09,-20.67 207.35,-23.3 206.76,-16.33"/>
</g>
<!-- Node2 -->
<g id="node3" class="node">
<title>Node2</title>
<g id="a_node3"><a xlink:href="d1/df1/a03217.html" target="_top" xlink:title="For sending a direct&#45;message.">
<polygon fill="none" stroke="black" points="449,-38.5 449,-57.5 598,-57.5 598,-38.5 449,-38.5"/>
<text text-anchor="middle" x="523.5" y="-45.5" font-family="Helvetica,sans-Serif" font-size="10.00">DiscordCoreAPI::SendDMData</text>
</a>
</g>
</g>
<!-- Node1&#45;&gt;Node2 -->
<g id="edge2" class="edge">
<title>Node1&#45;&gt;Node2</title>
<path fill="none" stroke="midnightblue" d="M423.21,-48C431.84,-48 440.48,-48 448.85,-48"/>
<polygon fill="midnightblue" stroke="midnightblue" points="423.09,-44.5 413.09,-48 423.09,-51.5 423.09,-44.5"/>
</g>
</g>
</svg>
