<?xml version="1.0" encoding="UTF-8" standalone="no"?>
<!DOCTYPE svg PUBLIC "-//W3C//DTD SVG 1.1//EN"
 "http://www.w3.org/Graphics/SVG/1.1/DTD/svg11.dtd">
<!-- Generated by graphviz version 2.43.0 (0)
 -->
<!-- Title: Graphical Class Hierarchy Pages: 1 -->
<svg width="387pt" height="127pt"
 viewBox="0.00 0.00 387.00 126.50" xmlns="http://www.w3.org/2000/svg" xmlns:xlink="http://www.w3.org/1999/xlink">
<g id="graph0" class="graph" transform="scale(1 1) rotate(0) translate(4 122.5)">
<title>Graphical Class Hierarchy</title>
<!-- Node0 -->
<g id="node1" class="node">
<title>Node0</title>
<g id="a_node1"><a xlink:href="d1/d01/a03657.html" target="_top" xlink:title="For executing a WebHook.">
<polygon fill="none" stroke="black" points="0,-39 0,-69 157,-69 157,-39 0,-39"/>
<text text-anchor="start" x="8" y="-57" font-family="Helvetica,sans-Serif" font-size="10.00">DiscordCoreAPI::ExecuteWeb</text>
<text text-anchor="middle" x="78.5" y="-46" font-family="Helvetica,sans-Serif" font-size="10.00">HookData</text>
</a>
</g>
</g>
<!-- Node1 -->
<g id="node2" class="node">
<title>Node1</title>
<g id="a_node2"><a xlink:href="dc/ddf/a03129.html" target="_top" xlink:title="For creating an ephemeral follow up Message.">
<polygon fill="none" stroke="black" points="195,-88 195,-118 377,-118 377,-88 195,-88"/>
<text text-anchor="start" x="203" y="-106" font-family="Helvetica,sans-Serif" font-size="10.00">DiscordCoreAPI::CreateEphemeral</text>
<text text-anchor="middle" x="286" y="-95" font-family="Helvetica,sans-Serif" font-size="10.00">FollowUpMessageData</text>
</a>
</g>
</g>
<!-- Node0&#45;&gt;Node1 -->
<g id="edge1" class="edge">
<title>Node0&#45;&gt;Node1</title>
<path fill="none" stroke="midnightblue" d="M152.49,-71.4C175.22,-76.82 200.08,-82.75 222.07,-87.99"/>
<polygon fill="midnightblue" stroke="midnightblue" points="153.09,-67.95 142.55,-69.03 151.47,-74.76 153.09,-67.95"/>
</g>
<!-- Node2 -->
<g id="node3" class="node">
<title>Node2</title>
<g id="a_node3"><a xlink:href="d0/d2a/a03133.html" target="_top" xlink:title="For creating a follow up Message.">
<polygon fill="none" stroke="black" points="205.5,-39 205.5,-69 366.5,-69 366.5,-39 205.5,-39"/>
<text text-anchor="start" x="213.5" y="-57" font-family="Helvetica,sans-Serif" font-size="10.00">DiscordCoreAPI::CreateFollow</text>
<text text-anchor="middle" x="286" y="-46" font-family="Helvetica,sans-Serif" font-size="10.00">UpMessageData</text>
</a>
</g>
</g>
<!-- Node0&#45;&gt;Node2 -->
<g id="edge2" class="edge">
<title>Node0&#45;&gt;Node2</title>
<path fill="none" stroke="midnightblue" d="M167.29,-54C179.98,-54 192.98,-54 205.49,-54"/>
<polygon fill="midnightblue" stroke="midnightblue" points="167.19,-50.5 157.19,-54 167.19,-57.5 167.19,-50.5"/>
</g>
<!-- Node3 -->
<g id="node4" class="node">
<title>Node3</title>
<g id="a_node4"><a xlink:href="d9/dce/a03661.html" target="_top" xlink:title="For editing a WebHook Message.">
<polygon fill="none" stroke="black" points="193,-0.5 193,-19.5 379,-19.5 379,-0.5 193,-0.5"/>
<text text-anchor="middle" x="286" y="-7.5" font-family="Helvetica,sans-Serif" font-size="10.00">DiscordCoreAPI::EditWebHookData</text>
</a>
</g>
</g>
<!-- Node0&#45;&gt;Node3 -->
<g id="edge3" class="edge">
<title>Node0&#45;&gt;Node3</title>
<path fill="none" stroke="midnightblue" d="M159.66,-36.84C187.17,-30.95 216.95,-24.57 240.57,-19.51"/>
<polygon fill="midnightblue" stroke="midnightblue" points="158.69,-33.46 149.65,-38.98 160.16,-40.31 158.69,-33.46"/>
</g>
</g>
</svg>
