<?xml version="1.0" encoding="UTF-8" standalone="no"?>
<!DOCTYPE svg PUBLIC "-//W3C//DTD SVG 1.1//EN"
 "http://www.w3.org/Graphics/SVG/1.1/DTD/svg11.dtd">
<!-- Generated by graphviz version 2.43.0 (0)
 -->
<!-- Title: Graphical Class Hierarchy Pages: 1 -->
<svg width="650pt" height="64pt"
 viewBox="0.00 0.00 650.00 64.00" xmlns="http://www.w3.org/2000/svg" xmlns:xlink="http://www.w3.org/1999/xlink">
<g id="graph0" class="graph" transform="scale(1 1) rotate(0) translate(4 60)">
<title>Graphical Class Hierarchy</title>
<!-- Node0 -->
<g id="node1" class="node">
<title>Node0</title>
<g id="a_node1"><a xlink:href="de/db6/a02792.html" target="_top" xlink:title="Message response base, for responding to messages.">
<polygon fill="none" stroke="black" points="212,-37 0,-37 0,-18 212,-18 212,-37"/>
<text text-anchor="middle" x="106" y="-25" font-family="Helvetica,sans-Serif" font-size="10.00">DiscordCoreAPI::MessageResponseBase</text>
</a>
</g>
</g>
<!-- Node1 -->
<g id="node2" class="node">
<title>Node1</title>
<g id="a_node2"><a xlink:href="d8/d2a/a03192.html" target="_top" xlink:title="For creating a Message.">
<polygon fill="none" stroke="black" points="445,-56 248,-56 248,-37 445,-37 445,-56"/>
<text text-anchor="middle" x="346.5" y="-44" font-family="Helvetica,sans-Serif" font-size="10.00">DiscordCoreAPI::CreateMessageData</text>
</a>
</g>
</g>
<!-- Node0&#45;&gt;Node1 -->
<g id="edge1" class="edge">
<title>Node0&#45;&gt;Node1</title>
<path fill="none" stroke="midnightblue" d="M222.34,-36.69C230.91,-37.37 239.5,-38.06 247.95,-38.73"/>
<polygon fill="midnightblue" stroke="midnightblue" points="222.55,-33.19 212.3,-35.89 221.99,-40.17 222.55,-33.19"/>
</g>
<!-- Node3 -->
<g id="node4" class="node">
<title>Node3</title>
<g id="a_node4"><a xlink:href="d6/d75/a03204.html" target="_top" xlink:title="For editing a Message.">
<polygon fill="none" stroke="black" points="438,-19 255,-19 255,0 438,0 438,-19"/>
<text text-anchor="middle" x="346.5" y="-7" font-family="Helvetica,sans-Serif" font-size="10.00">DiscordCoreAPI::EditMessageData</text>
</a>
</g>
</g>
<!-- Node0&#45;&gt;Node3 -->
<g id="edge3" class="edge">
<title>Node0&#45;&gt;Node3</title>
<path fill="none" stroke="midnightblue" d="M222.34,-18.8C233.29,-17.97 244.29,-17.14 254.96,-16.33"/>
<polygon fill="midnightblue" stroke="midnightblue" points="222.01,-15.31 212.3,-19.55 222.54,-22.29 222.01,-15.31"/>
</g>
<!-- Node2 -->
<g id="node3" class="node">
<title>Node2</title>
<g id="a_node3"><a xlink:href="dc/ddd/a03196.html" target="_top" xlink:title="For sending a direct&#45;message.">
<polygon fill="none" stroke="black" points="642,-56 481,-56 481,-37 642,-37 642,-56"/>
<text text-anchor="middle" x="561.5" y="-44" font-family="Helvetica,sans-Serif" font-size="10.00">DiscordCoreAPI::SendDMData</text>
</a>
</g>
</g>
<!-- Node1&#45;&gt;Node2 -->
<g id="edge2" class="edge">
<title>Node1&#45;&gt;Node2</title>
<path fill="none" stroke="midnightblue" d="M455.35,-46.5C463.94,-46.5 472.53,-46.5 480.87,-46.5"/>
<polygon fill="midnightblue" stroke="midnightblue" points="455.27,-43 445.27,-46.5 455.27,-50 455.27,-43"/>
</g>
</g>
</svg>
