<?xml version="1.0" encoding="UTF-8" standalone="no"?>
<!DOCTYPE svg PUBLIC "-//W3C//DTD SVG 1.1//EN"
 "http://www.w3.org/Graphics/SVG/1.1/DTD/svg11.dtd">
<!-- Generated by graphviz version 3.0.0 (20220226.1711)
 -->
<!-- Title: DiscordCoreAPI::DiscordCoreClient::DiscordCoreClient Pages: 1 -->
<svg width="342pt" height="676pt"
 viewBox="0.00 0.00 342.00 676.00" xmlns="http://www.w3.org/2000/svg" xmlns:xlink="http://www.w3.org/1999/xlink">
<g id="graph0" class="graph" transform="scale(1 1) rotate(0) translate(4 672)">
<title>DiscordCoreAPI::DiscordCoreClient::DiscordCoreClient</title>
<!-- Node1 -->
<g id="node1" class="node">
<title>Node1</title>
<g id="a_node1"><a xlink:title="DiscordCoreClient constructor.">
<polygon fill="#bfbfbf" stroke="black" points="0,-318.5 0,-348.5 145,-348.5 145,-318.5 0,-318.5"/>
<text text-anchor="start" x="8" y="-336.5" font-family="Helvetica,sans-Serif" font-size="10.00">DiscordCoreAPI::DiscordCore</text>
<text text-anchor="middle" x="72.5" y="-325.5" font-family="Helvetica,sans-Serif" font-size="10.00">Client::DiscordCoreClient</text>
</a>
</g>
</g>
<!-- Node2 -->
<g id="node2" class="node">
<title>Node2</title>
<g id="a_node2"><a xlink:href="../../db/d7a/a02253.html#afdd5d43985278f045d4d5bd4da4eb6a1" target="_top" xlink:title="For adding a function to handle this event.">
<polygon fill="none" stroke="black" points="181,-637.5 181,-667.5 334,-667.5 334,-637.5 181,-637.5"/>
<text text-anchor="start" x="189" y="-655.5" font-family="Helvetica,sans-Serif" font-size="10.00">DiscordCoreAPI::EventManager</text>
<text text-anchor="middle" x="257.5" y="-644.5" font-family="Helvetica,sans-Serif" font-size="10.00">::onChannelCreation</text>
</a>
</g>
</g>
<!-- Node1&#45;&gt;Node2 -->
<g id="edge1" class="edge">
<title>Node1&#45;&gt;Node2</title>
<path fill="none" stroke="midnightblue" d="M74.46,-348.53C78.34,-396.57 97.01,-547.94 181,-628.5 182.12,-629.57 183.28,-630.59 184.49,-631.57"/>
<polygon fill="midnightblue" stroke="midnightblue" points="182.75,-634.62 192.98,-637.38 186.7,-628.85 182.75,-634.62"/>
</g>
<!-- Node3 -->
<g id="node3" class="node">
<title>Node3</title>
<g id="a_node3"><a xlink:href="../../db/d7a/a02253.html#a70322e6ec393f28fdb52ee7392836743" target="_top" xlink:title="For adding a function to handle this event.">
<polygon fill="none" stroke="black" points="181,-588.5 181,-618.5 334,-618.5 334,-588.5 181,-588.5"/>
<text text-anchor="start" x="189" y="-606.5" font-family="Helvetica,sans-Serif" font-size="10.00">DiscordCoreAPI::EventManager</text>
<text text-anchor="middle" x="257.5" y="-595.5" font-family="Helvetica,sans-Serif" font-size="10.00">::onChannelDeletion</text>
</a>
</g>
</g>
<!-- Node1&#45;&gt;Node3 -->
<g id="edge2" class="edge">
<title>Node1&#45;&gt;Node3</title>
<path fill="none" stroke="midnightblue" d="M75.72,-348.74C82.77,-391.6 108.63,-514.3 181,-579.5 182.3,-580.67 183.66,-581.78 185.06,-582.84"/>
<polygon fill="midnightblue" stroke="midnightblue" points="183.28,-585.86 193.58,-588.34 187.07,-579.97 183.28,-585.86"/>
</g>
<!-- Node4 -->
<g id="node4" class="node">
<title>Node4</title>
<g id="a_node4"><a xlink:href="../../db/d7a/a02253.html#a59c76a9adce3b100ca29494eefec82a8" target="_top" xlink:title="For adding a function to handle this event.">
<polygon fill="none" stroke="black" points="181,-539.5 181,-569.5 334,-569.5 334,-539.5 181,-539.5"/>
<text text-anchor="start" x="189" y="-557.5" font-family="Helvetica,sans-Serif" font-size="10.00">DiscordCoreAPI::EventManager</text>
<text text-anchor="middle" x="257.5" y="-546.5" font-family="Helvetica,sans-Serif" font-size="10.00">::onChannelUpdate</text>
</a>
</g>
</g>
<!-- Node1&#45;&gt;Node4 -->
<g id="edge3" class="edge">
<title>Node1&#45;&gt;Node4</title>
<path fill="none" stroke="midnightblue" d="M77.49,-348.59C87.98,-385.33 119.83,-480.06 181,-530.5 182.55,-531.78 184.17,-532.99 185.85,-534.14"/>
<polygon fill="midnightblue" stroke="midnightblue" points="184.26,-537.26 194.64,-539.36 187.83,-531.24 184.26,-537.26"/>
</g>
<!-- Node5 -->
<g id="node5" class="node">
<title>Node5</title>
<g id="a_node5"><a xlink:href="../../db/d7a/a02253.html#a99547f4876bf2dd0844a400ec4aa5620" target="_top" xlink:title="For adding a function to handle this event.">
<polygon fill="none" stroke="black" points="181,-490.5 181,-520.5 334,-520.5 334,-490.5 181,-490.5"/>
<text text-anchor="start" x="189" y="-508.5" font-family="Helvetica,sans-Serif" font-size="10.00">DiscordCoreAPI::EventManager</text>
<text text-anchor="middle" x="257.5" y="-497.5" font-family="Helvetica,sans-Serif" font-size="10.00">::onGuildCreation</text>
</a>
</g>
</g>
<!-- Node1&#45;&gt;Node5 -->
<g id="edge4" class="edge">
<title>Node1&#45;&gt;Node5</title>
<path fill="none" stroke="midnightblue" d="M80.35,-348.53C94.7,-378.36 130.79,-445.26 181,-481.5 183.1,-483.01 185.3,-484.44 187.57,-485.77"/>
<polygon fill="midnightblue" stroke="midnightblue" points="186.15,-488.98 196.63,-490.49 189.38,-482.77 186.15,-488.98"/>
</g>
<!-- Node6 -->
<g id="node6" class="node">
<title>Node6</title>
<g id="a_node6"><a xlink:href="../../db/d7a/a02253.html#a44db9787ae92bf002e4365f8616d143b" target="_top" xlink:title="For adding a function to handle this event.">
<polygon fill="none" stroke="black" points="181,-441.5 181,-471.5 334,-471.5 334,-441.5 181,-441.5"/>
<text text-anchor="start" x="189" y="-459.5" font-family="Helvetica,sans-Serif" font-size="10.00">DiscordCoreAPI::EventManager</text>
<text text-anchor="middle" x="257.5" y="-448.5" font-family="Helvetica,sans-Serif" font-size="10.00">::onGuildDeletion</text>
</a>
</g>
</g>
<!-- Node1&#45;&gt;Node6 -->
<g id="edge5" class="edge">
<title>Node1&#45;&gt;Node6</title>
<path fill="none" stroke="midnightblue" d="M86.17,-348.79C104.82,-370.38 141.72,-409.7 181,-432.5 184.01,-434.24 187.15,-435.88 190.39,-437.41"/>
<polygon fill="midnightblue" stroke="midnightblue" points="189.1,-440.67 199.67,-441.44 191.89,-434.25 189.1,-440.67"/>
</g>
<!-- Node7 -->
<g id="node7" class="node">
<title>Node7</title>
<g id="a_node7"><a xlink:href="../../db/d7a/a02253.html#a5bb14cd9a899540c9ad0aba30063cade" target="_top" xlink:title="For adding a function to handle this event.">
<polygon fill="none" stroke="black" points="181,-392.5 181,-422.5 334,-422.5 334,-392.5 181,-392.5"/>
<text text-anchor="start" x="189" y="-410.5" font-family="Helvetica,sans-Serif" font-size="10.00">DiscordCoreAPI::EventManager</text>
<text text-anchor="middle" x="257.5" y="-399.5" font-family="Helvetica,sans-Serif" font-size="10.00">::onGuildMemberAdd</text>
</a>
</g>
</g>
<!-- Node1&#45;&gt;Node7 -->
<g id="edge6" class="edge">
<title>Node1&#45;&gt;Node7</title>
<path fill="none" stroke="midnightblue" d="M103.17,-348.55C124.52,-359.06 154.15,-373.04 181,-383.5 185.84,-385.39 190.9,-387.24 196,-389.03"/>
<polygon fill="midnightblue" stroke="midnightblue" points="195.23,-392.46 205.83,-392.38 197.49,-385.84 195.23,-392.46"/>
</g>
<!-- Node8 -->
<g id="node8" class="node">
<title>Node8</title>
<g id="a_node8"><a xlink:href="../../db/d7a/a02253.html#a6ffc054e22b6cd101b8ca9f8864b486a" target="_top" xlink:title="For adding a function to handle this event.">
<polygon fill="none" stroke="black" points="181,-343.5 181,-373.5 334,-373.5 334,-343.5 181,-343.5"/>
<text text-anchor="start" x="189" y="-361.5" font-family="Helvetica,sans-Serif" font-size="10.00">DiscordCoreAPI::EventManager</text>
<text text-anchor="middle" x="257.5" y="-350.5" font-family="Helvetica,sans-Serif" font-size="10.00">::onGuildMemberRemove</text>
</a>
</g>
</g>
<!-- Node1&#45;&gt;Node8 -->
<g id="edge7" class="edge">
<title>Node1&#45;&gt;Node8</title>
<path fill="none" stroke="midnightblue" d="M145.04,-343.27C153.47,-344.42 162.14,-345.61 170.74,-346.78"/>
<polygon fill="midnightblue" stroke="midnightblue" points="170.4,-350.27 180.78,-348.16 171.35,-343.33 170.4,-350.27"/>
</g>
<!-- Node9 -->
<g id="node9" class="node">
<title>Node9</title>
<g id="a_node9"><a xlink:href="../../db/d7a/a02253.html#a0d5d9f534510c5b0c96bf1a6b6fcfb12" target="_top" xlink:title="For adding a function to handle this event.">
<polygon fill="none" stroke="black" points="181,-294.5 181,-324.5 334,-324.5 334,-294.5 181,-294.5"/>
<text text-anchor="start" x="189" y="-312.5" font-family="Helvetica,sans-Serif" font-size="10.00">DiscordCoreAPI::EventManager</text>
<text text-anchor="middle" x="257.5" y="-301.5" font-family="Helvetica,sans-Serif" font-size="10.00">::onGuildMemberUpdate</text>
</a>
</g>
</g>
<!-- Node1&#45;&gt;Node9 -->
<g id="edge8" class="edge">
<title>Node1&#45;&gt;Node9</title>
<path fill="none" stroke="midnightblue" d="M145.04,-324.12C153.47,-323.01 162.14,-321.88 170.74,-320.75"/>
<polygon fill="midnightblue" stroke="midnightblue" points="171.32,-324.2 180.78,-319.43 170.41,-317.26 171.32,-324.2"/>
</g>
<!-- Node10 -->
<g id="node10" class="node">
<title>Node10</title>
<g id="a_node10"><a xlink:href="../../db/d7a/a02253.html#af14c84ab7f5483441dab915f54e734b4" target="_top" xlink:title="For adding a function to handle this event.">
<polygon fill="none" stroke="black" points="181,-245.5 181,-275.5 334,-275.5 334,-245.5 181,-245.5"/>
<text text-anchor="start" x="189" y="-263.5" font-family="Helvetica,sans-Serif" font-size="10.00">DiscordCoreAPI::EventManager</text>
<text text-anchor="middle" x="257.5" y="-252.5" font-family="Helvetica,sans-Serif" font-size="10.00">::onGuildUpdate</text>
</a>
</g>
</g>
<!-- Node1&#45;&gt;Node10 -->
<g id="edge9" class="edge">
<title>Node1&#45;&gt;Node10</title>
<path fill="none" stroke="midnightblue" d="M105.13,-318.37C126.36,-308.47 155.08,-295.55 181,-285.5 186.83,-283.24 192.96,-281 199.1,-278.84"/>
<polygon fill="midnightblue" stroke="midnightblue" points="200.41,-282.09 208.72,-275.52 198.12,-275.47 200.41,-282.09"/>
</g>
<!-- Node11 -->
<g id="node11" class="node">
<title>Node11</title>
<g id="a_node11"><a xlink:href="../../db/d7a/a02253.html#ab034058a568269f3b10dd8266e8a22ff" target="_top" xlink:title="For adding a function to handle this event.">
<polygon fill="none" stroke="black" points="181,-196.5 181,-226.5 334,-226.5 334,-196.5 181,-196.5"/>
<text text-anchor="start" x="189" y="-214.5" font-family="Helvetica,sans-Serif" font-size="10.00">DiscordCoreAPI::EventManager</text>
<text text-anchor="middle" x="257.5" y="-203.5" font-family="Helvetica,sans-Serif" font-size="10.00">::onRoleCreation</text>
</a>
</g>
</g>
<!-- Node1&#45;&gt;Node11 -->
<g id="edge10" class="edge">
<title>Node1&#45;&gt;Node11</title>
<path fill="none" stroke="midnightblue" d="M86.59,-318.24C105.46,-297.11 142.32,-259 181,-236.5 184.63,-234.39 188.45,-232.43 192.38,-230.61"/>
<polygon fill="midnightblue" stroke="midnightblue" points="193.88,-233.78 201.7,-226.63 191.13,-227.34 193.88,-233.78"/>
</g>
<!-- Node12 -->
<g id="node12" class="node">
<title>Node12</title>
<g id="a_node12"><a xlink:href="../../db/d7a/a02253.html#a5e775d491eba96768ed6245d7d2e2f75" target="_top" xlink:title="For adding a function to handle this event.">
<polygon fill="none" stroke="black" points="181,-147.5 181,-177.5 334,-177.5 334,-147.5 181,-147.5"/>
<text text-anchor="start" x="189" y="-165.5" font-family="Helvetica,sans-Serif" font-size="10.00">DiscordCoreAPI::EventManager</text>
<text text-anchor="middle" x="257.5" y="-154.5" font-family="Helvetica,sans-Serif" font-size="10.00">::onRoleDeletion</text>
</a>
</g>
</g>
<!-- Node1&#45;&gt;Node12 -->
<g id="edge11" class="edge">
<title>Node1&#45;&gt;Node12</title>
<path fill="none" stroke="midnightblue" d="M80.67,-318.27C95.33,-288.72 131.58,-223.37 181,-187.5 183.54,-185.65 186.23,-183.94 189.02,-182.34"/>
<polygon fill="midnightblue" stroke="midnightblue" points="190.88,-185.32 198.2,-177.66 187.7,-179.09 190.88,-185.32"/>
</g>
<!-- Node13 -->
<g id="node13" class="node">
<title>Node13</title>
<g id="a_node13"><a xlink:href="../../db/d7a/a02253.html#aba8f3dd05776bc5bbf87b5727fe288fd" target="_top" xlink:title="For adding a function to handle this event.">
<polygon fill="none" stroke="black" points="181,-98.5 181,-128.5 334,-128.5 334,-98.5 181,-98.5"/>
<text text-anchor="start" x="189" y="-116.5" font-family="Helvetica,sans-Serif" font-size="10.00">DiscordCoreAPI::EventManager</text>
<text text-anchor="middle" x="257.5" y="-105.5" font-family="Helvetica,sans-Serif" font-size="10.00">::onRoleUpdate</text>
</a>
</g>
</g>
<!-- Node1&#45;&gt;Node13 -->
<g id="edge12" class="edge">
<title>Node1&#45;&gt;Node13</title>
<path fill="none" stroke="midnightblue" d="M77.65,-318.34C88.41,-281.88 120.64,-188.66 181,-138.5 183.04,-136.8 185.21,-135.22 187.46,-133.74"/>
<polygon fill="midnightblue" stroke="midnightblue" points="189.59,-136.55 196.54,-128.55 186.12,-130.47 189.59,-136.55"/>
</g>
<!-- Node14 -->
<g id="node14" class="node">
<title>Node14</title>
<g id="a_node14"><a xlink:href="../../db/d7a/a02253.html#a4e9a0687d7fbce04a606956282e9e48f" target="_top" xlink:title="For adding a function to handle this event.">
<polygon fill="none" stroke="black" points="181,-49.5 181,-79.5 334,-79.5 334,-49.5 181,-49.5"/>
<text text-anchor="start" x="189" y="-67.5" font-family="Helvetica,sans-Serif" font-size="10.00">DiscordCoreAPI::EventManager</text>
<text text-anchor="middle" x="257.5" y="-56.5" font-family="Helvetica,sans-Serif" font-size="10.00">::onUserUpdate</text>
</a>
</g>
</g>
<!-- Node1&#45;&gt;Node14 -->
<g id="edge13" class="edge">
<title>Node1&#45;&gt;Node14</title>
<path fill="none" stroke="midnightblue" d="M75.8,-318.43C83.06,-276.03 109.41,-154.58 181,-89.5 182.74,-87.92 184.59,-86.43 186.52,-85.04"/>
<polygon fill="midnightblue" stroke="midnightblue" points="188.77,-87.76 195.43,-79.52 185.08,-81.81 188.77,-87.76"/>
</g>
<!-- Node15 -->
<g id="node15" class="node">
<title>Node15</title>
<g id="a_node15"><a xlink:href="../../db/d7a/a02253.html#a4029250f185d07d773342d0d8149098d" target="_top" xlink:title="For adding a function to handle this event.">
<polygon fill="none" stroke="black" points="181,-0.5 181,-30.5 334,-30.5 334,-0.5 181,-0.5"/>
<text text-anchor="start" x="189" y="-18.5" font-family="Helvetica,sans-Serif" font-size="10.00">DiscordCoreAPI::EventManager</text>
<text text-anchor="middle" x="257.5" y="-7.5" font-family="Helvetica,sans-Serif" font-size="10.00">::onVoiceStateUpdate</text>
</a>
</g>
</g>
<!-- Node1&#45;&gt;Node15 -->
<g id="edge14" class="edge">
<title>Node1&#45;&gt;Node15</title>
<path fill="none" stroke="midnightblue" d="M74.56,-318.27C78.73,-270.31 98.1,-120.8 181,-40.5 182.49,-39.06 184.06,-37.7 185.7,-36.42"/>
<polygon fill="midnightblue" stroke="midnightblue" points="188.02,-39.09 194.43,-30.65 184.15,-33.25 188.02,-39.09"/>
</g>
</g>
</svg>
