<?xml version="1.0" encoding="UTF-8" standalone="no"?>
<!DOCTYPE svg PUBLIC "-//W3C//DTD SVG 1.1//EN"
 "http://www.w3.org/Graphics/SVG/1.1/DTD/svg11.dtd">
<!-- Generated by graphviz version 2.43.0 (0)
 -->
<!-- Title: DiscordCoreAPI::ApplicationCommands::getGlobalApplicationCommandsAsync Pages: 1 -->
<svg width="504pt" height="108pt"
 viewBox="0.00 0.00 504.00 108.00" xmlns="http://www.w3.org/2000/svg" xmlns:xlink="http://www.w3.org/1999/xlink">
<g id="graph0" class="graph" transform="scale(1 1) rotate(0) translate(4 104)">
<title>DiscordCoreAPI::ApplicationCommands::getGlobalApplicationCommandsAsync</title>
<!-- Node1 -->
<g id="node1" class="node">
<title>Node1</title>
<g id="a_node1"><a xlink:title="Get all of the global ApplicationCommands for this bot.">
<polygon fill="#bfbfbf" stroke="black" points="496,-64.5 231,-64.5 231,-34.5 496,-34.5 496,-64.5"/>
<text text-anchor="start" x="239" y="-52.5" font-family="Helvetica,sans-Serif" font-size="10.00">DiscordCoreAPI::Application</text>
<text text-anchor="middle" x="363.5" y="-41.5" font-family="Helvetica,sans-Serif" font-size="10.00">Commands::getGlobalApplicationCommandsAsync</text>
</a>
</g>
</g>
<!-- Node2 -->
<g id="node2" class="node">
<title>Node2</title>
<g id="a_node2"><a xlink:href="../../d3/dac/a01777.html#ab00b1699050fc0f209bd1d23cc28c089" target="_top" xlink:title="Delete a global ApplicationCommand for this bot.">
<polygon fill="none" stroke="black" points="195,-100 0,-100 0,-59 195,-59 195,-100"/>
<text text-anchor="start" x="8" y="-88" font-family="Helvetica,sans-Serif" font-size="10.00">DiscordCoreAPI::Application</text>
<text text-anchor="start" x="8" y="-77" font-family="Helvetica,sans-Serif" font-size="10.00">Commands::deleteGlobalApplication</text>
<text text-anchor="middle" x="97.5" y="-66" font-family="Helvetica,sans-Serif" font-size="10.00">CommandAsync</text>
</a>
</g>
</g>
<!-- Node1&#45;&gt;Node2 -->
<g id="edge1" class="edge">
<title>Node1&#45;&gt;Node2</title>
<path fill="none" stroke="midnightblue" d="M220.76,-65.61C212.15,-66.59 203.59,-67.56 195.24,-68.51"/>
<polygon fill="midnightblue" stroke="midnightblue" points="221.35,-69.06 230.89,-64.46 220.56,-62.11 221.35,-69.06"/>
</g>
<!-- Node3 -->
<g id="node3" class="node">
<title>Node3</title>
<g id="a_node3"><a xlink:href="../../d3/dac/a01777.html#ac0b0792aeb6422a8694c15d1726decf8" target="_top" xlink:title="Edit a global ApplicationCommand for this bot.">
<polygon fill="none" stroke="black" points="189,-41 6,-41 6,0 189,0 189,-41"/>
<text text-anchor="start" x="14" y="-29" font-family="Helvetica,sans-Serif" font-size="10.00">DiscordCoreAPI::Application</text>
<text text-anchor="start" x="14" y="-18" font-family="Helvetica,sans-Serif" font-size="10.00">Commands::editGlobalApplication</text>
<text text-anchor="middle" x="97.5" y="-7" font-family="Helvetica,sans-Serif" font-size="10.00">CommandAsync</text>
</a>
</g>
</g>
<!-- Node1&#45;&gt;Node3 -->
<g id="edge2" class="edge">
<title>Node1&#45;&gt;Node3</title>
<path fill="none" stroke="midnightblue" d="M220.67,-33.92C210.02,-32.75 199.47,-31.59 189.28,-30.47"/>
<polygon fill="midnightblue" stroke="midnightblue" points="220.56,-37.43 230.89,-35.04 221.33,-30.47 220.56,-37.43"/>
</g>
</g>
</svg>
