<?xml version="1.0" encoding="UTF-8" standalone="no"?>
<!DOCTYPE svg PUBLIC "-//W3C//DTD SVG 1.1//EN"
 "http://www.w3.org/Graphics/SVG/1.1/DTD/svg11.dtd">
<!-- Generated by graphviz version 2.43.0 (0)
 -->
<!-- Title: RoleEntities.hpp Pages: 1 -->
<svg width="2399pt" height="720pt"
 viewBox="0.00 0.00 2399.12 720.00" xmlns="http://www.w3.org/2000/svg" xmlns:xlink="http://www.w3.org/1999/xlink">
<g id="graph0" class="graph" transform="scale(1 1) rotate(0) translate(4 716)">
<title>RoleEntities.hpp</title>
<!-- Node1 -->
<g id="node1" class="node">
<title>Node1</title>
<g id="a_node1"><a xlink:title=" ">
<polygon fill="#bfbfbf" stroke="black" points="972.5,-712 876.5,-712 876.5,-693 972.5,-693 972.5,-712"/>
<text text-anchor="middle" x="924.5" y="-700" font-family="Helvetica,sans-Serif" font-size="10.00">RoleEntities.hpp</text>
</a>
</g>
</g>
<!-- Node2 -->
<g id="node2" class="node">
<title>Node2</title>
<g id="a_node2"><a xlink:href="../../d3/d2c/a00764.html" target="_top" xlink:title=" ">
<polygon fill="none" stroke="black" points="1152,-140 1007,-140 1007,-110 1152,-110 1152,-140"/>
<text text-anchor="start" x="1015" y="-128" font-family="Helvetica,sans-Serif" font-size="10.00">discordcoreapi/Foundation</text>
<text text-anchor="middle" x="1079.5" y="-117" font-family="Helvetica,sans-Serif" font-size="10.00">Entities.hpp</text>
</a>
</g>
</g>
<!-- Node1&#45;&gt;Node2 -->
<g id="edge1" class="edge">
<title>Node1&#45;&gt;Node2</title>
<path fill="none" stroke="midnightblue" d="M876.26,-698.65C762.22,-690.58 485.5,-662.75 485.5,-582.5 485.5,-582.5 485.5,-582.5 485.5,-239.5 485.5,-201.58 508.62,-193.04 542.5,-176 619.92,-137.06 866.15,-128.29 996.59,-126.42"/>
<polygon fill="midnightblue" stroke="midnightblue" points="996.97,-129.92 1006.92,-126.28 996.88,-122.92 996.97,-129.92"/>
</g>
<!-- Node27 -->
<g id="node27" class="node">
<title>Node27</title>
<g id="a_node27"><a xlink:href="../../d1/d87/a00689.html" target="_top" xlink:title=" ">
<polygon fill="none" stroke="black" points="1003,-657 846,-657 846,-627 1003,-627 1003,-657"/>
<text text-anchor="start" x="854" y="-645" font-family="Helvetica,sans-Serif" font-size="10.00">discordcoreapi/GuildMember</text>
<text text-anchor="middle" x="924.5" y="-634" font-family="Helvetica,sans-Serif" font-size="10.00">Entities.hpp</text>
</a>
</g>
</g>
<!-- Node1&#45;&gt;Node27 -->
<g id="edge26" class="edge">
<title>Node1&#45;&gt;Node27</title>
<path fill="none" stroke="midnightblue" d="M924.5,-692.87C924.5,-686.11 924.5,-676.35 924.5,-667.26"/>
<polygon fill="midnightblue" stroke="midnightblue" points="928,-667.11 924.5,-657.11 921,-667.11 928,-667.11"/>
</g>
<!-- Node37 -->
<g id="node37" class="node">
<title>Node37</title>
<g id="a_node37"><a xlink:href="../../d4/d6a/a00704.html" target="_top" xlink:title=" ">
<polygon fill="none" stroke="black" points="1775.5,-305 1637.5,-305 1637.5,-286 1775.5,-286 1775.5,-305"/>
<text text-anchor="middle" x="1706.5" y="-293" font-family="Helvetica,sans-Serif" font-size="10.00">discordcoreapi/Https.hpp</text>
</a>
</g>
</g>
<!-- Node1&#45;&gt;Node37 -->
<g id="edge67" class="edge">
<title>Node1&#45;&gt;Node37</title>
<path fill="none" stroke="midnightblue" d="M972.73,-699.62C1148.51,-692.14 1744.5,-660.99 1744.5,-582.5 1744.5,-582.5 1744.5,-582.5 1744.5,-404.5 1744.5,-371.02 1728.05,-334.84 1716.8,-314.01"/>
<polygon fill="midnightblue" stroke="midnightblue" points="1719.74,-312.1 1711.78,-305.1 1713.63,-315.53 1719.74,-312.1"/>
</g>
<!-- Node3 -->
<g id="node3" class="node">
<title>Node3</title>
<g id="a_node3"><a xlink:href="../../d8/db9/a00725.html" target="_top" xlink:title=" ">
<polygon fill="none" stroke="black" points="1154.5,-74 1004.5,-74 1004.5,-55 1154.5,-55 1154.5,-74"/>
<text text-anchor="middle" x="1079.5" y="-62" font-family="Helvetica,sans-Serif" font-size="10.00">discordcoreapi/Utilities.hpp</text>
</a>
</g>
</g>
<!-- Node2&#45;&gt;Node3 -->
<g id="edge2" class="edge">
<title>Node2&#45;&gt;Node3</title>
<path fill="none" stroke="midnightblue" d="M1079.5,-109.84C1079.5,-102.21 1079.5,-92.7 1079.5,-84.45"/>
<polygon fill="midnightblue" stroke="midnightblue" points="1083,-84.27 1079.5,-74.27 1076,-84.27 1083,-84.27"/>
</g>
<!-- Node4 -->
<g id="node4" class="node">
<title>Node4</title>
<g id="a_node4"><a xlink:title=" ">
<polygon fill="none" stroke="#bfbfbf" points="63,-19 0,-19 0,0 63,0 63,-19"/>
<text text-anchor="middle" x="31.5" y="-7" font-family="Helvetica,sans-Serif" font-size="10.00">pthread.h</text>
</a>
</g>
</g>
<!-- Node3&#45;&gt;Node4 -->
<g id="edge3" class="edge">
<title>Node3&#45;&gt;Node4</title>
<path fill="none" stroke="midnightblue" d="M1004.31,-64.28C838.04,-65.12 426.64,-62.31 73.37,-18.86"/>
<polygon fill="midnightblue" stroke="midnightblue" points="73.56,-15.36 63.2,-17.6 72.69,-22.3 73.56,-15.36"/>
</g>
<!-- Node5 -->
<g id="node5" class="node">
<title>Node5</title>
<g id="a_node5"><a xlink:title=" ">
<polygon fill="none" stroke="#bfbfbf" points="149.5,-19 81.5,-19 81.5,0 149.5,0 149.5,-19"/>
<text text-anchor="middle" x="115.5" y="-7" font-family="Helvetica,sans-Serif" font-size="10.00">sys/time.h</text>
</a>
</g>
</g>
<!-- Node3&#45;&gt;Node5 -->
<g id="edge4" class="edge">
<title>Node3&#45;&gt;Node5</title>
<path fill="none" stroke="midnightblue" d="M1004.27,-63.6C848.44,-62.99 478.98,-57.34 160.07,-18.99"/>
<polygon fill="midnightblue" stroke="midnightblue" points="160.04,-15.46 149.69,-17.73 159.2,-22.41 160.04,-15.46"/>
</g>
<!-- Node6 -->
<g id="node6" class="node">
<title>Node6</title>
<g id="a_node6"><a xlink:title=" ">
<polygon fill="none" stroke="#bfbfbf" points="215.5,-19 167.5,-19 167.5,0 215.5,0 215.5,-19"/>
<text text-anchor="middle" x="191.5" y="-7" font-family="Helvetica,sans-Serif" font-size="10.00">time.h</text>
</a>
</g>
</g>
<!-- Node3&#45;&gt;Node6 -->
<g id="edge5" class="edge">
<title>Node3&#45;&gt;Node6</title>
<path fill="none" stroke="midnightblue" d="M1004.24,-61.52C828.11,-56.56 392.09,-42.46 225.63,-18.78"/>
<polygon fill="midnightblue" stroke="midnightblue" points="225.94,-15.29 215.54,-17.28 224.91,-22.21 225.94,-15.29"/>
</g>
<!-- Node7 -->
<g id="node7" class="node">
<title>Node7</title>
<g id="a_node7"><a xlink:title=" ">
<polygon fill="none" stroke="#bfbfbf" points="277.5,-19 233.5,-19 233.5,0 277.5,0 277.5,-19"/>
<text text-anchor="middle" x="255.5" y="-7" font-family="Helvetica,sans-Serif" font-size="10.00">ctime</text>
</a>
</g>
</g>
<!-- Node3&#45;&gt;Node7 -->
<g id="edge6" class="edge">
<title>Node3&#45;&gt;Node7</title>
<path fill="none" stroke="midnightblue" d="M1004.36,-61.31C837.95,-56.15 441.6,-41.99 287.93,-18.81"/>
<polygon fill="midnightblue" stroke="midnightblue" points="288.15,-15.3 277.73,-17.2 287.06,-22.22 288.15,-15.3"/>
</g>
<!-- Node8 -->
<g id="node8" class="node">
<title>Node8</title>
<g id="a_node8"><a xlink:title=" ">
<polygon fill="none" stroke="#bfbfbf" points="403,-19 296,-19 296,0 403,0 403,-19"/>
<text text-anchor="middle" x="349.5" y="-7" font-family="Helvetica,sans-Serif" font-size="10.00">condition_variable</text>
</a>
</g>
</g>
<!-- Node3&#45;&gt;Node8 -->
<g id="edge7" class="edge">
<title>Node3&#45;&gt;Node8</title>
<path fill="none" stroke="midnightblue" d="M1004.34,-60.14C882.56,-54.34 634.36,-40.98 413.26,-19"/>
<polygon fill="midnightblue" stroke="midnightblue" points="413.39,-15.5 403.09,-17.98 412.69,-22.46 413.39,-15.5"/>
</g>
<!-- Node9 -->
<g id="node9" class="node">
<title>Node9</title>
<g id="a_node9"><a xlink:title=" ">
<polygon fill="none" stroke="#bfbfbf" points="531.5,-19 421.5,-19 421.5,0 531.5,0 531.5,-19"/>
<text text-anchor="middle" x="476.5" y="-7" font-family="Helvetica,sans-Serif" font-size="10.00">nlohmann/json.hpp</text>
</a>
</g>
</g>
<!-- Node3&#45;&gt;Node9 -->
<g id="edge8" class="edge">
<title>Node3&#45;&gt;Node9</title>
<path fill="none" stroke="midnightblue" d="M1004.4,-58.48C902.13,-51.39 713.11,-37.33 541.6,-19.07"/>
<polygon fill="midnightblue" stroke="midnightblue" points="541.95,-15.59 531.64,-18 541.21,-22.55 541.95,-15.59"/>
</g>
<!-- Node10 -->
<g id="node10" class="node">
<title>Node10</title>
<g id="a_node10"><a xlink:title=" ">
<polygon fill="none" stroke="#bfbfbf" points="643,-19 550,-19 550,0 643,0 643,-19"/>
<text text-anchor="middle" x="596.5" y="-7" font-family="Helvetica,sans-Serif" font-size="10.00">source_location</text>
</a>
</g>
</g>
<!-- Node3&#45;&gt;Node10 -->
<g id="edge9" class="edge">
<title>Node3&#45;&gt;Node10</title>
<path fill="none" stroke="midnightblue" d="M1004.37,-56.83C920.98,-49.17 782.13,-35.64 653.33,-19.18"/>
<polygon fill="midnightblue" stroke="midnightblue" points="653.65,-15.7 643.29,-17.89 652.76,-22.64 653.65,-15.7"/>
</g>
<!-- Node11 -->
<g id="node11" class="node">
<title>Node11</title>
<g id="a_node11"><a xlink:title=" ">
<polygon fill="none" stroke="#bfbfbf" points="754,-19 661,-19 661,0 754,0 754,-19"/>
<text text-anchor="middle" x="707.5" y="-7" font-family="Helvetica,sans-Serif" font-size="10.00">unordered_map</text>
</a>
</g>
</g>
<!-- Node3&#45;&gt;Node11 -->
<g id="edge10" class="edge">
<title>Node3&#45;&gt;Node11</title>
<path fill="none" stroke="midnightblue" d="M1017.71,-55C956.17,-46.49 858.7,-32.88 764.26,-19.1"/>
<polygon fill="midnightblue" stroke="midnightblue" points="764.65,-15.62 754.25,-17.63 763.63,-22.54 764.65,-15.62"/>
</g>
<!-- Node12 -->
<g id="node12" class="node">
<title>Node12</title>
<g id="a_node12"><a xlink:title=" ">
<polygon fill="none" stroke="#bfbfbf" points="858.5,-19 772.5,-19 772.5,0 858.5,0 858.5,-19"/>
<text text-anchor="middle" x="815.5" y="-7" font-family="Helvetica,sans-Serif" font-size="10.00">shared_mutex</text>
</a>
</g>
</g>
<!-- Node3&#45;&gt;Node12 -->
<g id="edge11" class="edge">
<title>Node3&#45;&gt;Node12</title>
<path fill="none" stroke="midnightblue" d="M1037.08,-54.98C991.13,-45.76 917.75,-31.03 868.15,-21.07"/>
<polygon fill="midnightblue" stroke="midnightblue" points="868.74,-17.62 858.25,-19.08 867.36,-24.48 868.74,-17.62"/>
</g>
<!-- Node13 -->
<g id="node13" class="node">
<title>Node13</title>
<g id="a_node13"><a xlink:title=" ">
<polygon fill="none" stroke="#bfbfbf" points="942,-19 877,-19 877,0 942,0 942,-19"/>
<text text-anchor="middle" x="909.5" y="-7" font-family="Helvetica,sans-Serif" font-size="10.00">functional</text>
</a>
</g>
</g>
<!-- Node3&#45;&gt;Node13 -->
<g id="edge12" class="edge">
<title>Node3&#45;&gt;Node13</title>
<path fill="none" stroke="midnightblue" d="M1052.19,-54.98C1023.65,-46.09 978.67,-32.07 946.86,-22.15"/>
<polygon fill="midnightblue" stroke="midnightblue" points="947.62,-18.72 937.03,-19.08 945.53,-25.4 947.62,-18.72"/>
</g>
<!-- Node14 -->
<g id="node14" class="node">
<title>Node14</title>
<g id="a_node14"><a xlink:title=" ">
<polygon fill="none" stroke="#bfbfbf" points="1031,-19 960,-19 960,0 1031,0 1031,-19"/>
<text text-anchor="middle" x="995.5" y="-7" font-family="Helvetica,sans-Serif" font-size="10.00">semaphore</text>
</a>
</g>
</g>
<!-- Node3&#45;&gt;Node14 -->
<g id="edge13" class="edge">
<title>Node3&#45;&gt;Node14</title>
<path fill="none" stroke="midnightblue" d="M1066,-54.98C1053.1,-46.84 1033.4,-34.41 1018.1,-24.76"/>
<polygon fill="midnightblue" stroke="midnightblue" points="1019.57,-21.55 1009.24,-19.17 1015.83,-27.47 1019.57,-21.55"/>
</g>
<!-- Node15 -->
<g id="node15" class="node">
<title>Node15</title>
<g id="a_node15"><a xlink:title=" ">
<polygon fill="none" stroke="#bfbfbf" points="1109.5,-19 1049.5,-19 1049.5,0 1109.5,0 1109.5,-19"/>
<text text-anchor="middle" x="1079.5" y="-7" font-family="Helvetica,sans-Serif" font-size="10.00">concepts</text>
</a>
</g>
</g>
<!-- Node3&#45;&gt;Node15 -->
<g id="edge14" class="edge">
<title>Node3&#45;&gt;Node15</title>
<path fill="none" stroke="midnightblue" d="M1079.5,-54.75C1079.5,-47.8 1079.5,-37.85 1079.5,-29.13"/>
<polygon fill="midnightblue" stroke="midnightblue" points="1083,-29.09 1079.5,-19.09 1076,-29.09 1083,-29.09"/>
</g>
<!-- Node16 -->
<g id="node16" class="node">
<title>Node16</title>
<g id="a_node16"><a xlink:title=" ">
<polygon fill="none" stroke="#bfbfbf" points="1187.5,-19 1127.5,-19 1127.5,0 1187.5,0 1187.5,-19"/>
<text text-anchor="middle" x="1157.5" y="-7" font-family="Helvetica,sans-Serif" font-size="10.00">iostream</text>
</a>
</g>
</g>
<!-- Node3&#45;&gt;Node16 -->
<g id="edge15" class="edge">
<title>Node3&#45;&gt;Node16</title>
<path fill="none" stroke="midnightblue" d="M1092.03,-54.98C1103.9,-46.92 1121.96,-34.65 1136.11,-25.03"/>
<polygon fill="midnightblue" stroke="midnightblue" points="1138.44,-27.69 1144.74,-19.17 1134.5,-21.9 1138.44,-27.69"/>
</g>
<!-- Node17 -->
<g id="node17" class="node">
<title>Node17</title>
<g id="a_node17"><a xlink:title=" ">
<polygon fill="none" stroke="#bfbfbf" points="1261,-19 1206,-19 1206,0 1261,0 1261,-19"/>
<text text-anchor="middle" x="1233.5" y="-7" font-family="Helvetica,sans-Serif" font-size="10.00">fstream</text>
</a>
</g>
</g>
<!-- Node3&#45;&gt;Node17 -->
<g id="edge16" class="edge">
<title>Node3&#45;&gt;Node17</title>
<path fill="none" stroke="midnightblue" d="M1104.24,-54.98C1129.87,-46.16 1170.13,-32.31 1198.91,-22.41"/>
<polygon fill="midnightblue" stroke="midnightblue" points="1200.25,-25.65 1208.56,-19.08 1197.97,-19.03 1200.25,-25.65"/>
</g>
<!-- Node18 -->
<g id="node18" class="node">
<title>Node18</title>
<g id="a_node18"><a xlink:title=" ">
<polygon fill="none" stroke="#bfbfbf" points="1323.5,-19 1279.5,-19 1279.5,0 1323.5,0 1323.5,-19"/>
<text text-anchor="middle" x="1301.5" y="-7" font-family="Helvetica,sans-Serif" font-size="10.00">bitset</text>
</a>
</g>
</g>
<!-- Node3&#45;&gt;Node18 -->
<g id="edge17" class="edge">
<title>Node3&#45;&gt;Node18</title>
<path fill="none" stroke="midnightblue" d="M1117.43,-54.96C1155.84,-46.24 1216.91,-32.14 1269.5,-19 1269.6,-18.97 1269.7,-18.95 1269.8,-18.92"/>
<polygon fill="midnightblue" stroke="midnightblue" points="1270.67,-22.31 1279.49,-16.44 1268.93,-15.53 1270.67,-22.31"/>
</g>
<!-- Node19 -->
<g id="node19" class="node">
<title>Node19</title>
<g id="a_node19"><a xlink:title=" ">
<polygon fill="none" stroke="#bfbfbf" points="1399.5,-19 1341.5,-19 1341.5,0 1399.5,0 1399.5,-19"/>
<text text-anchor="middle" x="1370.5" y="-7" font-family="Helvetica,sans-Serif" font-size="10.00">memory</text>
</a>
</g>
</g>
<!-- Node3&#45;&gt;Node19 -->
<g id="edge18" class="edge">
<title>Node3&#45;&gt;Node19</title>
<path fill="none" stroke="midnightblue" d="M1131.96,-55C1181.02,-46.88 1256.56,-33.97 1331.41,-19.14"/>
<polygon fill="midnightblue" stroke="midnightblue" points="1332.36,-22.52 1341.48,-17.13 1330.99,-15.66 1332.36,-22.52"/>
</g>
<!-- Node20 -->
<g id="node20" class="node">
<title>Node20</title>
<g id="a_node20"><a xlink:title=" ">
<polygon fill="none" stroke="#bfbfbf" points="1471.5,-19 1417.5,-19 1417.5,0 1471.5,0 1471.5,-19"/>
<text text-anchor="middle" x="1444.5" y="-7" font-family="Helvetica,sans-Serif" font-size="10.00">random</text>
</a>
</g>
</g>
<!-- Node3&#45;&gt;Node20 -->
<g id="edge19" class="edge">
<title>Node3&#45;&gt;Node20</title>
<path fill="none" stroke="midnightblue" d="M1154.64,-55.45C1219.18,-48.05 1314.91,-35.92 1407.34,-19.05"/>
<polygon fill="midnightblue" stroke="midnightblue" points="1408.24,-22.45 1417.43,-17.19 1406.96,-15.56 1408.24,-22.45"/>
</g>
<!-- Node21 -->
<g id="node21" class="node">
<title>Node21</title>
<g id="a_node21"><a xlink:title=" ">
<polygon fill="none" stroke="#bfbfbf" points="1533.5,-19 1489.5,-19 1489.5,0 1533.5,0 1533.5,-19"/>
<text text-anchor="middle" x="1511.5" y="-7" font-family="Helvetica,sans-Serif" font-size="10.00">string</text>
</a>
</g>
</g>
<!-- Node3&#45;&gt;Node21 -->
<g id="edge20" class="edge">
<title>Node3&#45;&gt;Node21</title>
<path fill="none" stroke="midnightblue" d="M1154.67,-58.7C1233.43,-52.87 1360.82,-41.19 1479.28,-18.95"/>
<polygon fill="midnightblue" stroke="midnightblue" points="1480.08,-22.36 1489.25,-17.05 1478.77,-15.49 1480.08,-22.36"/>
</g>
<!-- Node22 -->
<g id="node22" class="node">
<title>Node22</title>
<g id="a_node22"><a xlink:title=" ">
<polygon fill="none" stroke="#bfbfbf" points="1599,-19 1552,-19 1552,0 1599,0 1599,-19"/>
<text text-anchor="middle" x="1575.5" y="-7" font-family="Helvetica,sans-Serif" font-size="10.00">vector</text>
</a>
</g>
</g>
<!-- Node3&#45;&gt;Node22 -->
<g id="edge21" class="edge">
<title>Node3&#45;&gt;Node22</title>
<path fill="none" stroke="midnightblue" d="M1154.56,-59.9C1244.39,-54.78 1399.42,-43.38 1541.59,-18.86"/>
<polygon fill="midnightblue" stroke="midnightblue" points="1542.56,-22.25 1551.8,-17.08 1541.35,-15.35 1542.56,-22.25"/>
</g>
<!-- Node23 -->
<g id="node23" class="node">
<title>Node23</title>
<g id="a_node23"><a xlink:title=" ">
<polygon fill="none" stroke="#bfbfbf" points="1665.5,-19 1617.5,-19 1617.5,0 1665.5,0 1665.5,-19"/>
<text text-anchor="middle" x="1641.5" y="-7" font-family="Helvetica,sans-Serif" font-size="10.00">thread</text>
</a>
</g>
</g>
<!-- Node3&#45;&gt;Node23 -->
<g id="edge22" class="edge">
<title>Node3&#45;&gt;Node23</title>
<path fill="none" stroke="midnightblue" d="M1154.73,-60.97C1257.57,-56.64 1447.55,-45.56 1607.5,-19 1607.6,-18.98 1607.7,-18.97 1607.8,-18.95"/>
<polygon fill="midnightblue" stroke="midnightblue" points="1608.33,-22.41 1617.45,-17.02 1606.96,-15.55 1608.33,-22.41"/>
</g>
<!-- Node24 -->
<g id="node24" class="node">
<title>Node24</title>
<g id="a_node24"><a xlink:title=" ">
<polygon fill="none" stroke="#bfbfbf" points="1731.5,-19 1683.5,-19 1683.5,0 1731.5,0 1731.5,-19"/>
<text text-anchor="middle" x="1707.5" y="-7" font-family="Helvetica,sans-Serif" font-size="10.00">mutex</text>
</a>
</g>
</g>
<!-- Node3&#45;&gt;Node24 -->
<g id="edge23" class="edge">
<title>Node3&#45;&gt;Node24</title>
<path fill="none" stroke="midnightblue" d="M1154.68,-62.14C1266.12,-59.19 1481.72,-49.86 1673.47,-18.86"/>
<polygon fill="midnightblue" stroke="midnightblue" points="1674.15,-22.29 1683.45,-17.22 1673.02,-15.38 1674.15,-22.29"/>
</g>
<!-- Node25 -->
<g id="node25" class="node">
<title>Node25</title>
<g id="a_node25"><a xlink:title=" ">
<polygon fill="none" stroke="#bfbfbf" points="1797,-19 1750,-19 1750,0 1797,0 1797,-19"/>
<text text-anchor="middle" x="1773.5" y="-7" font-family="Helvetica,sans-Serif" font-size="10.00">queue</text>
</a>
</g>
</g>
<!-- Node3&#45;&gt;Node25 -->
<g id="edge24" class="edge">
<title>Node3&#45;&gt;Node25</title>
<path fill="none" stroke="midnightblue" d="M1154.85,-62.94C1276.23,-61.05 1522.54,-53.12 1739.82,-18.76"/>
<polygon fill="midnightblue" stroke="midnightblue" points="1740.5,-22.2 1749.82,-17.16 1739.39,-15.29 1740.5,-22.2"/>
</g>
<!-- Node26 -->
<g id="node26" class="node">
<title>Node26</title>
<g id="a_node26"><a xlink:title=" ">
<polygon fill="none" stroke="#bfbfbf" points="1853.5,-19 1815.5,-19 1815.5,0 1853.5,0 1853.5,-19"/>
<text text-anchor="middle" x="1834.5" y="-7" font-family="Helvetica,sans-Serif" font-size="10.00">map</text>
</a>
</g>
</g>
<!-- Node3&#45;&gt;Node26 -->
<g id="edge25" class="edge">
<title>Node3&#45;&gt;Node26</title>
<path fill="none" stroke="midnightblue" d="M1154.66,-61.13C1310.48,-55.85 1665.18,-41.9 1805.26,-18.71"/>
<polygon fill="midnightblue" stroke="midnightblue" points="1806.11,-22.12 1815.36,-16.95 1804.91,-15.22 1806.11,-22.12"/>
</g>
<!-- Node27&#45;&gt;Node2 -->
<g id="edge27" class="edge">
<title>Node27&#45;&gt;Node2</title>
<path fill="none" stroke="midnightblue" d="M845.75,-633.75C728.97,-620.79 523.5,-588.54 523.5,-522 523.5,-522 523.5,-522 523.5,-239.5 523.5,-201.58 546.68,-193.16 580.5,-176 651.2,-140.12 873.87,-129.99 996.49,-127.12"/>
<polygon fill="midnightblue" stroke="midnightblue" points="996.67,-130.62 1006.59,-126.9 996.52,-123.62 996.67,-130.62"/>
</g>
<!-- Node28 -->
<g id="node28" class="node">
<title>Node28</title>
<g id="a_node28"><a xlink:href="../../d5/de8/a00749.html" target="_top" xlink:title=" ">
<polygon fill="none" stroke="black" points="1010,-591 839,-591 839,-572 1010,-572 1010,-591"/>
<text text-anchor="middle" x="924.5" y="-579" font-family="Helvetica,sans-Serif" font-size="10.00">discordcoreapi/UserEntities.hpp</text>
</a>
</g>
</g>
<!-- Node27&#45;&gt;Node28 -->
<g id="edge28" class="edge">
<title>Node27&#45;&gt;Node28</title>
<path fill="none" stroke="midnightblue" d="M924.5,-626.84C924.5,-619.21 924.5,-609.7 924.5,-601.45"/>
<polygon fill="midnightblue" stroke="midnightblue" points="928,-601.27 924.5,-591.27 921,-601.27 928,-601.27"/>
</g>
<!-- Node27&#45;&gt;Node37 -->
<g id="edge66" class="edge">
<title>Node27&#45;&gt;Node37</title>
<path fill="none" stroke="midnightblue" d="M1003.06,-637.21C1201.37,-626.6 1706.5,-592.64 1706.5,-522 1706.5,-522 1706.5,-522 1706.5,-404.5 1706.5,-373.19 1706.5,-336.77 1706.5,-315.23"/>
<polygon fill="midnightblue" stroke="midnightblue" points="1710,-315.18 1706.5,-305.18 1703,-315.18 1710,-315.18"/>
</g>
<!-- Node28&#45;&gt;Node2 -->
<g id="edge29" class="edge">
<title>Node28&#45;&gt;Node2</title>
<path fill="none" stroke="midnightblue" d="M854.08,-571.97C748.52,-557.2 561.5,-522.43 561.5,-461.5 561.5,-461.5 561.5,-461.5 561.5,-239.5 561.5,-202.45 582.75,-193.33 615.5,-176 679.63,-142.07 881.12,-131.14 996.4,-127.64"/>
<polygon fill="midnightblue" stroke="midnightblue" points="996.7,-131.13 1006.59,-127.34 996.5,-124.13 996.7,-131.13"/>
</g>
<!-- Node29 -->
<g id="node29" class="node">
<title>Node29</title>
<g id="a_node29"><a xlink:href="../../df/dbb/a00698.html" target="_top" xlink:title=" ">
<polygon fill="none" stroke="black" points="1217.5,-536 1073.5,-536 1073.5,-506 1217.5,-506 1217.5,-536"/>
<text text-anchor="start" x="1081.5" y="-524" font-family="Helvetica,sans-Serif" font-size="10.00">discordcoreapi/WebSocket</text>
<text text-anchor="middle" x="1145.5" y="-513" font-family="Helvetica,sans-Serif" font-size="10.00">Entities.hpp</text>
</a>
</g>
</g>
<!-- Node28&#45;&gt;Node29 -->
<g id="edge30" class="edge">
<title>Node28&#45;&gt;Node29</title>
<path fill="none" stroke="midnightblue" d="M956.64,-571.99C989.48,-563.3 1041.36,-549.57 1082.44,-538.69"/>
<polygon fill="midnightblue" stroke="midnightblue" points="1083.6,-542.01 1092.37,-536.06 1081.81,-535.24 1083.6,-542.01"/>
</g>
<!-- Node29&#45;&gt;Node2 -->
<g id="edge31" class="edge">
<title>Node29&#45;&gt;Node2</title>
<path fill="none" stroke="midnightblue" d="M1073.28,-519.91C924.88,-517.77 599.5,-502.17 599.5,-406.5 599.5,-406.5 599.5,-406.5 599.5,-239.5 599.5,-203.85 617.47,-193.54 648.5,-176 706.23,-143.36 888.43,-131.97 996.57,-128.03"/>
<polygon fill="midnightblue" stroke="midnightblue" points="996.93,-131.52 1006.8,-127.68 996.68,-124.53 996.93,-131.52"/>
</g>
<!-- Node30 -->
<g id="node30" class="node">
<title>Node30</title>
<g id="a_node30"><a xlink:href="../../d3/d95/a00779.html" target="_top" xlink:title=" ">
<polygon fill="none" stroke="black" points="984,-250 805,-250 805,-231 984,-231 984,-250"/>
<text text-anchor="middle" x="894.5" y="-238" font-family="Helvetica,sans-Serif" font-size="10.00">discordcoreapi/AudioDecoder.hpp</text>
</a>
</g>
</g>
<!-- Node29&#45;&gt;Node30 -->
<g id="edge32" class="edge">
<title>Node29&#45;&gt;Node30</title>
<path fill="none" stroke="midnightblue" d="M1079.84,-505.98C1029.47,-490.91 968.5,-461.35 968.5,-406.5 968.5,-406.5 968.5,-406.5 968.5,-349.5 968.5,-310.8 935.77,-275.81 913.85,-256.71"/>
<polygon fill="midnightblue" stroke="midnightblue" points="915.98,-253.93 906.06,-250.19 911.48,-259.3 915.98,-253.93"/>
</g>
<!-- Node31 -->
<g id="node31" class="node">
<title>Node31</title>
<g id="a_node31"><a xlink:href="../../d2/ddd/a00755.html" target="_top" xlink:title=" ">
<polygon fill="none" stroke="black" points="1167.5,-195 991.5,-195 991.5,-176 1167.5,-176 1167.5,-195"/>
<text text-anchor="middle" x="1079.5" y="-183" font-family="Helvetica,sans-Serif" font-size="10.00">discordcoreapi/EventEntities.hpp</text>
</a>
</g>
</g>
<!-- Node29&#45;&gt;Node31 -->
<g id="edge63" class="edge">
<title>Node29&#45;&gt;Node31</title>
<path fill="none" stroke="midnightblue" d="M1128.63,-505.76C1118.6,-496.49 1106.35,-483.63 1098.5,-470 1083.8,-444.47 1079.5,-435.96 1079.5,-406.5 1079.5,-406.5 1079.5,-406.5 1079.5,-294.5 1079.5,-263.19 1079.5,-226.77 1079.5,-205.23"/>
<polygon fill="midnightblue" stroke="midnightblue" points="1083,-205.18 1079.5,-195.18 1076,-205.18 1083,-205.18"/>
</g>
<!-- Node34 -->
<g id="node34" class="node">
<title>Node34</title>
<g id="a_node34"><a xlink:href="../../d4/dfa/a00746.html" target="_top" xlink:title=" ">
<polygon fill="none" stroke="black" points="1317,-470 1108,-470 1108,-451 1317,-451 1317,-470"/>
<text text-anchor="middle" x="1212.5" y="-458" font-family="Helvetica,sans-Serif" font-size="10.00">discordcoreapi/CommandController.hpp</text>
</a>
</g>
</g>
<!-- Node29&#45;&gt;Node34 -->
<g id="edge38" class="edge">
<title>Node29&#45;&gt;Node34</title>
<path fill="none" stroke="midnightblue" d="M1161.72,-505.84C1171.74,-497.09 1184.61,-485.85 1194.88,-476.88"/>
<polygon fill="midnightblue" stroke="midnightblue" points="1197.23,-479.48 1202.46,-470.27 1192.63,-474.21 1197.23,-479.48"/>
</g>
<!-- Node36 -->
<g id="node36" class="node">
<title>Node36</title>
<g id="a_node36"><a xlink:href="../../d1/d56/a00707.html" target="_top" xlink:title=" ">
<polygon fill="none" stroke="black" points="1433,-360 1266,-360 1266,-341 1433,-341 1433,-360"/>
<text text-anchor="middle" x="1349.5" y="-348" font-family="Helvetica,sans-Serif" font-size="10.00">discordcoreapi/ThreadPool.hpp</text>
</a>
</g>
</g>
<!-- Node29&#45;&gt;Node36 -->
<g id="edge65" class="edge">
<title>Node29&#45;&gt;Node36</title>
<path fill="none" stroke="midnightblue" d="M1217.65,-514.28C1279.41,-504.87 1363.14,-480.09 1394.5,-415 1403.16,-397.03 1386.86,-378.66 1371.51,-366.34"/>
<polygon fill="midnightblue" stroke="midnightblue" points="1373.35,-363.34 1363.25,-360.15 1369.16,-368.94 1373.35,-363.34"/>
</g>
<!-- Node38 -->
<g id="node38" class="node">
<title>Node38</title>
<g id="a_node38"><a xlink:href="../../dc/de4/a00677.html" target="_top" xlink:title=" ">
<polygon fill="none" stroke="black" points="1788,-250 1625,-250 1625,-231 1788,-231 1788,-250"/>
<text text-anchor="middle" x="1706.5" y="-238" font-family="Helvetica,sans-Serif" font-size="10.00">discordcoreapi/SSLClients.hpp</text>
</a>
</g>
</g>
<!-- Node29&#45;&gt;Node38 -->
<g id="edge64" class="edge">
<title>Node29&#45;&gt;Node38</title>
<path fill="none" stroke="midnightblue" d="M1217.71,-509.22C1312.09,-493.05 1465.5,-458.74 1465.5,-406.5 1465.5,-406.5 1465.5,-406.5 1465.5,-349.5 1465.5,-281.33 1546.8,-255.91 1614.96,-246.58"/>
<polygon fill="midnightblue" stroke="midnightblue" points="1615.43,-250.05 1624.91,-245.32 1614.55,-243.11 1615.43,-250.05"/>
</g>
<!-- Node52 -->
<g id="node52" class="node">
<title>Node52</title>
<g id="a_node52"><a xlink:href="../../d0/d0a/a00743.html" target="_top" xlink:title=" ">
<polygon fill="none" stroke="black" points="1668,-415 1513,-415 1513,-396 1668,-396 1668,-415"/>
<text text-anchor="middle" x="1590.5" y="-403" font-family="Helvetica,sans-Serif" font-size="10.00">discordcoreapi/ErlPacker.hpp</text>
</a>
</g>
</g>
<!-- Node29&#45;&gt;Node52 -->
<g id="edge61" class="edge">
<title>Node29&#45;&gt;Node52</title>
<path fill="none" stroke="midnightblue" d="M1217.7,-516.89C1286.62,-512.15 1392.54,-500.19 1479.5,-470 1513.63,-458.15 1549.23,-435.7 1570.63,-420.92"/>
<polygon fill="midnightblue" stroke="midnightblue" points="1572.73,-423.73 1578.89,-415.11 1568.7,-418 1572.73,-423.73"/>
</g>
<!-- Node30&#45;&gt;Node2 -->
<g id="edge35" class="edge">
<title>Node30&#45;&gt;Node2</title>
<path fill="none" stroke="midnightblue" d="M804.71,-234.4C745.46,-228.94 675.4,-217.76 656.5,-195 651.11,-188.5 650.89,-182.31 656.5,-176 678.67,-151.06 879.84,-136.43 996.59,-129.97"/>
<polygon fill="midnightblue" stroke="midnightblue" points="996.78,-133.47 1006.58,-129.43 996.4,-126.48 996.78,-133.47"/>
</g>
<!-- Node30&#45;&gt;Node31 -->
<g id="edge33" class="edge">
<title>Node30&#45;&gt;Node31</title>
<path fill="none" stroke="midnightblue" d="M924.22,-230.98C955.55,-222.01 1005.07,-207.82 1039.74,-197.89"/>
<polygon fill="midnightblue" stroke="midnightblue" points="1040.89,-201.2 1049.54,-195.08 1038.97,-194.47 1040.89,-201.2"/>
</g>
<!-- Node32 -->
<g id="node32" class="node">
<title>Node32</title>
<g id="a_node32"><a xlink:title=" ">
<polygon fill="none" stroke="#bfbfbf" points="797,-195 666,-195 666,-176 797,-176 797,-195"/>
<text text-anchor="middle" x="731.5" y="-183" font-family="Helvetica,sans-Serif" font-size="10.00">libavformat/avformat.h</text>
</a>
</g>
</g>
<!-- Node30&#45;&gt;Node32 -->
<g id="edge36" class="edge">
<title>Node30&#45;&gt;Node32</title>
<path fill="none" stroke="midnightblue" d="M868.31,-230.98C841.06,-222.13 798.2,-208.19 767.72,-198.28"/>
<polygon fill="midnightblue" stroke="midnightblue" points="768.49,-194.85 757.89,-195.08 766.32,-201.5 768.49,-194.85"/>
</g>
<!-- Node33 -->
<g id="node33" class="node">
<title>Node33</title>
<g id="a_node33"><a xlink:title=" ">
<polygon fill="none" stroke="#bfbfbf" points="974,-195 815,-195 815,-176 974,-176 974,-195"/>
<text text-anchor="middle" x="894.5" y="-183" font-family="Helvetica,sans-Serif" font-size="10.00">libswresample/swresample.h</text>
</a>
</g>
</g>
<!-- Node30&#45;&gt;Node33 -->
<g id="edge37" class="edge">
<title>Node30&#45;&gt;Node33</title>
<path fill="none" stroke="midnightblue" d="M894.5,-230.75C894.5,-223.8 894.5,-213.85 894.5,-205.13"/>
<polygon fill="midnightblue" stroke="midnightblue" points="898,-205.09 894.5,-195.09 891,-205.09 898,-205.09"/>
</g>
<!-- Node31&#45;&gt;Node2 -->
<g id="edge34" class="edge">
<title>Node31&#45;&gt;Node2</title>
<path fill="none" stroke="midnightblue" d="M1079.5,-175.87C1079.5,-169.11 1079.5,-159.35 1079.5,-150.26"/>
<polygon fill="midnightblue" stroke="midnightblue" points="1083,-150.11 1079.5,-140.11 1076,-150.11 1083,-150.11"/>
</g>
<!-- Node34&#45;&gt;Node2 -->
<g id="edge39" class="edge">
<title>Node34&#45;&gt;Node2</title>
<path fill="none" stroke="midnightblue" d="M1210.21,-450.89C1205.57,-432.69 1195.5,-388.89 1195.5,-351.5 1195.5,-351.5 1195.5,-351.5 1195.5,-239.5 1195.5,-210.04 1195.31,-198.67 1176.5,-176 1165.17,-162.35 1149.15,-152 1133.39,-144.36"/>
<polygon fill="midnightblue" stroke="midnightblue" points="1134.73,-141.12 1124.18,-140.16 1131.83,-147.49 1134.73,-141.12"/>
</g>
<!-- Node35 -->
<g id="node35" class="node">
<title>Node35</title>
<g id="a_node35"><a xlink:href="../../d4/d9b/a00680.html" target="_top" xlink:title=" ">
<polygon fill="none" stroke="black" points="1385.5,-415 1223.5,-415 1223.5,-396 1385.5,-396 1385.5,-415"/>
<text text-anchor="middle" x="1304.5" y="-403" font-family="Helvetica,sans-Serif" font-size="10.00">discordcoreapi/CoRoutine.hpp</text>
</a>
</g>
</g>
<!-- Node34&#45;&gt;Node35 -->
<g id="edge40" class="edge">
<title>Node34&#45;&gt;Node35</title>
<path fill="none" stroke="midnightblue" d="M1227.28,-450.98C1241.68,-442.69 1263.81,-429.94 1280.69,-420.22"/>
<polygon fill="midnightblue" stroke="midnightblue" points="1282.53,-423.19 1289.45,-415.17 1279.04,-417.13 1282.53,-423.19"/>
</g>
<!-- Node35&#45;&gt;Node2 -->
<g id="edge41" class="edge">
<title>Node35&#45;&gt;Node2</title>
<path fill="none" stroke="midnightblue" d="M1292.32,-395.88C1281.57,-387.73 1266.17,-374.59 1256.5,-360 1239.92,-334.98 1233.5,-326.52 1233.5,-296.5 1233.5,-296.5 1233.5,-296.5 1233.5,-239.5 1233.5,-209.33 1230.77,-197.4 1209.5,-176 1194.92,-161.34 1175.58,-150.89 1156.28,-143.48"/>
<polygon fill="midnightblue" stroke="midnightblue" points="1157.43,-140.17 1146.83,-140.08 1155.06,-146.76 1157.43,-140.17"/>
</g>
<!-- Node35&#45;&gt;Node36 -->
<g id="edge42" class="edge">
<title>Node35&#45;&gt;Node36</title>
<path fill="none" stroke="midnightblue" d="M1311.93,-395.75C1318.35,-388.18 1327.81,-377.05 1335.62,-367.84"/>
<polygon fill="midnightblue" stroke="midnightblue" points="1338.4,-369.98 1342.21,-360.09 1333.07,-365.45 1338.4,-369.98"/>
</g>
<!-- Node36&#45;&gt;Node2 -->
<g id="edge43" class="edge">
<title>Node36&#45;&gt;Node2</title>
<path fill="none" stroke="midnightblue" d="M1340.42,-340.92C1331.73,-332.39 1318.63,-318.64 1309.5,-305 1274.1,-252.15 1295.91,-217.27 1247.5,-176 1223.57,-155.6 1191.6,-143.52 1161.96,-136.37"/>
<polygon fill="midnightblue" stroke="midnightblue" points="1162.54,-132.92 1152.02,-134.13 1161,-139.74 1162.54,-132.92"/>
</g>
<!-- Node36&#45;&gt;Node37 -->
<g id="edge44" class="edge">
<title>Node36&#45;&gt;Node37</title>
<path fill="none" stroke="midnightblue" d="M1406.86,-340.98C1470.13,-331.59 1571.86,-316.49 1638.94,-306.53"/>
<polygon fill="midnightblue" stroke="midnightblue" points="1639.61,-309.97 1648.99,-305.04 1638.58,-303.04 1639.61,-309.97"/>
</g>
<!-- Node51 -->
<g id="node51" class="node">
<title>Node51</title>
<g id="a_node51"><a xlink:title=" ">
<polygon fill="none" stroke="#bfbfbf" points="1380.5,-305 1318.5,-305 1318.5,-286 1380.5,-286 1380.5,-305"/>
<text text-anchor="middle" x="1349.5" y="-293" font-family="Helvetica,sans-Serif" font-size="10.00">coroutine</text>
</a>
</g>
</g>
<!-- Node36&#45;&gt;Node51 -->
<g id="edge60" class="edge">
<title>Node36&#45;&gt;Node51</title>
<path fill="none" stroke="midnightblue" d="M1349.5,-340.75C1349.5,-333.8 1349.5,-323.85 1349.5,-315.13"/>
<polygon fill="midnightblue" stroke="midnightblue" points="1353,-315.09 1349.5,-305.09 1346,-315.09 1353,-315.09"/>
</g>
<!-- Node37&#45;&gt;Node38 -->
<g id="edge45" class="edge">
<title>Node37&#45;&gt;Node38</title>
<path fill="none" stroke="midnightblue" d="M1706.5,-285.75C1706.5,-278.8 1706.5,-268.85 1706.5,-260.13"/>
<polygon fill="midnightblue" stroke="midnightblue" points="1710,-260.09 1706.5,-250.09 1703,-260.09 1710,-260.09"/>
</g>
<!-- Node38&#45;&gt;Node2 -->
<g id="edge46" class="edge">
<title>Node38&#45;&gt;Node2</title>
<path fill="none" stroke="midnightblue" d="M1624.79,-236.91C1547.31,-232.81 1428.26,-222.25 1328.5,-195 1308.34,-189.5 1305.29,-182.71 1285.5,-176 1245.19,-162.32 1199.25,-150.8 1161,-142.27"/>
<polygon fill="midnightblue" stroke="midnightblue" points="1161.46,-138.79 1150.94,-140.06 1159.96,-145.63 1161.46,-138.79"/>
</g>
<!-- Node38&#45;&gt;Node31 -->
<g id="edge47" class="edge">
<title>Node38&#45;&gt;Node31</title>
<path fill="none" stroke="midnightblue" d="M1624.85,-232.6C1510.01,-222.89 1301.07,-205.23 1177.84,-194.81"/>
<polygon fill="midnightblue" stroke="midnightblue" points="1177.91,-191.31 1167.65,-193.95 1177.32,-198.28 1177.91,-191.31"/>
</g>
<!-- Node39 -->
<g id="node39" class="node">
<title>Node39</title>
<g id="a_node39"><a xlink:title=" ">
<polygon fill="none" stroke="#bfbfbf" points="1417,-195 1338,-195 1338,-176 1417,-176 1417,-195"/>
<text text-anchor="middle" x="1377.5" y="-183" font-family="Helvetica,sans-Serif" font-size="10.00">openssl/err.h</text>
</a>
</g>
</g>
<!-- Node38&#45;&gt;Node39 -->
<g id="edge48" class="edge">
<title>Node38&#45;&gt;Node39</title>
<path fill="none" stroke="midnightblue" d="M1651.47,-230.99C1597.14,-222.53 1511.39,-209.05 1427.08,-195.08"/>
<polygon fill="midnightblue" stroke="midnightblue" points="1427.51,-191.6 1417.07,-193.41 1426.36,-198.5 1427.51,-191.6"/>
</g>
<!-- Node40 -->
<g id="node40" class="node">
<title>Node40</title>
<g id="a_node40"><a xlink:title=" ">
<polygon fill="none" stroke="#bfbfbf" points="1515.5,-195 1435.5,-195 1435.5,-176 1515.5,-176 1515.5,-195"/>
<text text-anchor="middle" x="1475.5" y="-183" font-family="Helvetica,sans-Serif" font-size="10.00">openssl/ssl.h</text>
</a>
</g>
</g>
<!-- Node38&#45;&gt;Node40 -->
<g id="edge49" class="edge">
<title>Node38&#45;&gt;Node40</title>
<path fill="none" stroke="midnightblue" d="M1669.39,-230.98C1629.51,-221.84 1566.04,-207.27 1522.66,-197.32"/>
<polygon fill="midnightblue" stroke="midnightblue" points="1523.43,-193.91 1512.91,-195.08 1521.87,-200.73 1523.43,-193.91"/>
</g>
<!-- Node41 -->
<g id="node41" class="node">
<title>Node41</title>
<g id="a_node41"><a xlink:title=" ">
<polygon fill="none" stroke="#bfbfbf" points="1581,-195 1534,-195 1534,-176 1581,-176 1581,-195"/>
<text text-anchor="middle" x="1557.5" y="-183" font-family="Helvetica,sans-Serif" font-size="10.00">fcntl.h</text>
</a>
</g>
</g>
<!-- Node38&#45;&gt;Node41 -->
<g id="edge50" class="edge">
<title>Node38&#45;&gt;Node41</title>
<path fill="none" stroke="midnightblue" d="M1682.56,-230.98C1657.8,-222.18 1618.92,-208.35 1591.09,-198.45"/>
<polygon fill="midnightblue" stroke="midnightblue" points="1591.97,-195.05 1581.38,-194.99 1589.63,-201.64 1591.97,-195.05"/>
</g>
<!-- Node42 -->
<g id="node42" class="node">
<title>Node42</title>
<g id="a_node42"><a xlink:title=" ">
<polygon fill="none" stroke="#bfbfbf" points="1652,-195 1599,-195 1599,-176 1652,-176 1652,-195"/>
<text text-anchor="middle" x="1625.5" y="-183" font-family="Helvetica,sans-Serif" font-size="10.00">netdb.h</text>
</a>
</g>
</g>
<!-- Node38&#45;&gt;Node42 -->
<g id="edge51" class="edge">
<title>Node38&#45;&gt;Node42</title>
<path fill="none" stroke="midnightblue" d="M1693.49,-230.98C1681.04,-222.84 1662.04,-210.41 1647.29,-200.76"/>
<polygon fill="midnightblue" stroke="midnightblue" points="1649.04,-197.72 1638.75,-195.17 1645.2,-203.57 1649.04,-197.72"/>
</g>
<!-- Node43 -->
<g id="node43" class="node">
<title>Node43</title>
<g id="a_node43"><a xlink:title=" ">
<polygon fill="none" stroke="#bfbfbf" points="1742.5,-195 1670.5,-195 1670.5,-176 1742.5,-176 1742.5,-195"/>
<text text-anchor="middle" x="1706.5" y="-183" font-family="Helvetica,sans-Serif" font-size="10.00">netinet/in.h</text>
</a>
</g>
</g>
<!-- Node38&#45;&gt;Node43 -->
<g id="edge52" class="edge">
<title>Node38&#45;&gt;Node43</title>
<path fill="none" stroke="midnightblue" d="M1706.5,-230.75C1706.5,-223.8 1706.5,-213.85 1706.5,-205.13"/>
<polygon fill="midnightblue" stroke="midnightblue" points="1710,-205.09 1706.5,-195.09 1703,-205.09 1710,-205.09"/>
</g>
<!-- Node44 -->
<g id="node44" class="node">
<title>Node44</title>
<g id="a_node44"><a xlink:title=" ">
<polygon fill="none" stroke="#bfbfbf" points="1838.5,-195 1760.5,-195 1760.5,-176 1838.5,-176 1838.5,-195"/>
<text text-anchor="middle" x="1799.5" y="-183" font-family="Helvetica,sans-Serif" font-size="10.00">netinet/tcp.h</text>
</a>
</g>
</g>
<!-- Node38&#45;&gt;Node44 -->
<g id="edge53" class="edge">
<title>Node38&#45;&gt;Node44</title>
<path fill="none" stroke="midnightblue" d="M1721.44,-230.98C1736,-222.69 1758.37,-209.94 1775.43,-200.22"/>
<polygon fill="midnightblue" stroke="midnightblue" points="1777.33,-203.16 1784.29,-195.17 1773.86,-197.08 1777.33,-203.16"/>
</g>
<!-- Node45 -->
<g id="node45" class="node">
<title>Node45</title>
<g id="a_node45"><a xlink:title=" ">
<polygon fill="none" stroke="#bfbfbf" points="1910,-195 1857,-195 1857,-176 1910,-176 1910,-195"/>
<text text-anchor="middle" x="1883.5" y="-183" font-family="Helvetica,sans-Serif" font-size="10.00">stdint.h</text>
</a>
</g>
</g>
<!-- Node38&#45;&gt;Node45 -->
<g id="edge54" class="edge">
<title>Node38&#45;&gt;Node45</title>
<path fill="none" stroke="midnightblue" d="M1734.94,-230.98C1765.4,-221.86 1813.85,-207.36 1847.08,-197.41"/>
<polygon fill="midnightblue" stroke="midnightblue" points="1848.29,-200.7 1856.87,-194.47 1846.29,-193.99 1848.29,-200.7"/>
</g>
<!-- Node46 -->
<g id="node46" class="node">
<title>Node46</title>
<g id="a_node46"><a xlink:title=" ">
<polygon fill="none" stroke="#bfbfbf" points="1997,-195 1928,-195 1928,-176 1997,-176 1997,-195"/>
<text text-anchor="middle" x="1962.5" y="-183" font-family="Helvetica,sans-Serif" font-size="10.00">sys/epoll.h</text>
</a>
</g>
</g>
<!-- Node38&#45;&gt;Node46 -->
<g id="edge55" class="edge">
<title>Node38&#45;&gt;Node46</title>
<path fill="none" stroke="midnightblue" d="M1747.63,-230.98C1794.21,-221.34 1869.85,-205.68 1917.84,-195.75"/>
<polygon fill="midnightblue" stroke="midnightblue" points="1918.56,-199.17 1927.64,-193.72 1917.14,-192.32 1918.56,-199.17"/>
</g>
<!-- Node47 -->
<g id="node47" class="node">
<title>Node47</title>
<g id="a_node47"><a xlink:title=" ">
<polygon fill="none" stroke="#bfbfbf" points="2084,-195 2015,-195 2015,-176 2084,-176 2084,-195"/>
<text text-anchor="middle" x="2049.5" y="-183" font-family="Helvetica,sans-Serif" font-size="10.00">arpa/inet.h</text>
</a>
</g>
</g>
<!-- Node38&#45;&gt;Node47 -->
<g id="edge56" class="edge">
<title>Node38&#45;&gt;Node47</title>
<path fill="none" stroke="midnightblue" d="M1770.14,-230.96C1828.71,-222.9 1918.23,-210.06 2004.8,-195.23"/>
<polygon fill="midnightblue" stroke="midnightblue" points="2005.53,-198.66 2014.79,-193.51 2004.34,-191.76 2005.53,-198.66"/>
</g>
<!-- Node48 -->
<g id="node48" class="node">
<title>Node48</title>
<g id="a_node48"><a xlink:title=" ">
<polygon fill="none" stroke="#bfbfbf" points="2179,-195 2102,-195 2102,-176 2179,-176 2179,-195"/>
<text text-anchor="middle" x="2140.5" y="-183" font-family="Helvetica,sans-Serif" font-size="10.00">sys/socket.h</text>
</a>
</g>
</g>
<!-- Node38&#45;&gt;Node48 -->
<g id="edge57" class="edge">
<title>Node38&#45;&gt;Node48</title>
<path fill="none" stroke="midnightblue" d="M1788.24,-231.65C1864.4,-223.97 1981.36,-211.29 2091.82,-195.17"/>
<polygon fill="midnightblue" stroke="midnightblue" points="2092.42,-198.62 2101.8,-193.7 2091.4,-191.7 2092.42,-198.62"/>
</g>
<!-- Node49 -->
<g id="node49" class="node">
<title>Node49</title>
<g id="a_node49"><a xlink:title=" ">
<polygon fill="none" stroke="#bfbfbf" points="2269.5,-195 2197.5,-195 2197.5,-176 2269.5,-176 2269.5,-195"/>
<text text-anchor="middle" x="2233.5" y="-183" font-family="Helvetica,sans-Serif" font-size="10.00">sys/types.h</text>
</a>
</g>
</g>
<!-- Node38&#45;&gt;Node49 -->
<g id="edge58" class="edge">
<title>Node38&#45;&gt;Node49</title>
<path fill="none" stroke="midnightblue" d="M1788.22,-234.32C1882.15,-227.84 2041.14,-215.23 2187.16,-195.06"/>
<polygon fill="midnightblue" stroke="midnightblue" points="2187.78,-198.51 2197.2,-193.66 2186.81,-191.58 2187.78,-198.51"/>
</g>
<!-- Node50 -->
<g id="node50" class="node">
<title>Node50</title>
<g id="a_node50"><a xlink:title=" ">
<polygon fill="none" stroke="#bfbfbf" points="2343.5,-195 2287.5,-195 2287.5,-176 2343.5,-176 2343.5,-195"/>
<text text-anchor="middle" x="2315.5" y="-183" font-family="Helvetica,sans-Serif" font-size="10.00">unistd.h</text>
</a>
</g>
</g>
<!-- Node38&#45;&gt;Node50 -->
<g id="edge59" class="edge">
<title>Node38&#45;&gt;Node50</title>
<path fill="none" stroke="midnightblue" d="M1788.4,-236.94C1897.82,-232.67 2097.82,-221.9 2277.41,-194.94"/>
<polygon fill="midnightblue" stroke="midnightblue" points="2277.94,-198.4 2287.3,-193.43 2276.89,-191.47 2277.94,-198.4"/>
</g>
<!-- Node52&#45;&gt;Node2 -->
<g id="edge62" class="edge">
<title>Node52&#45;&gt;Node2</title>
<path fill="none" stroke="midnightblue" d="M1668.28,-405.27C1899.69,-405.26 2555.43,-387.06 2352.5,-176 2311.23,-133.08 1438.53,-126.99 1162.45,-126.14"/>
<polygon fill="midnightblue" stroke="midnightblue" points="1162.11,-122.63 1152.1,-126.1 1162.09,-129.63 1162.11,-122.63"/>
</g>
</g>
</svg>
