<?xml version="1.0" encoding="UTF-8" standalone="no"?>
<!DOCTYPE svg PUBLIC "-//W3C//DTD SVG 1.1//EN"
 "http://www.w3.org/Graphics/SVG/1.1/DTD/svg11.dtd">
<!-- Generated by graphviz version 3.0.0 (20220226.1711)
 -->
<!-- Title: RoleEntities.hpp Pages: 1 -->
<svg width="2241pt" height="733pt"
 viewBox="0.00 0.00 2240.70 733.00" xmlns="http://www.w3.org/2000/svg" xmlns:xlink="http://www.w3.org/1999/xlink">
<g id="graph0" class="graph" transform="scale(1 1) rotate(0) translate(4 729)">
<title>RoleEntities.hpp</title>
<!-- Node1 -->
<g id="node1" class="node">
<title>Node1</title>
<g id="a_node1"><a xlink:title=" ">
<polygon fill="#bfbfbf" stroke="black" points="809.5,-705.5 809.5,-724.5 897.5,-724.5 897.5,-705.5 809.5,-705.5"/>
<text text-anchor="middle" x="853.5" y="-712.5" font-family="Helvetica,sans-Serif" font-size="10.00">RoleEntities.hpp</text>
</a>
</g>
</g>
<!-- Node2 -->
<g id="node2" class="node">
<title>Node2</title>
<g id="a_node2"><a xlink:href="../../d4/deb/a00710.html" target="_top" xlink:title=" ">
<polygon fill="none" stroke="black" points="928,-112.5 928,-142.5 1059,-142.5 1059,-112.5 928,-112.5"/>
<text text-anchor="start" x="936" y="-130.5" font-family="Helvetica,sans-Serif" font-size="10.00">discordcoreapi/Foundation</text>
<text text-anchor="middle" x="993.5" y="-119.5" font-family="Helvetica,sans-Serif" font-size="10.00">Entities.hpp</text>
</a>
</g>
</g>
<!-- Node1&#45;&gt;Node2 -->
<g id="edge1" class="edge">
<title>Node1&#45;&gt;Node2</title>
<path fill="none" stroke="midnightblue" d="M809.17,-710.28C703.68,-700.22 446.5,-668.01 446.5,-593 446.5,-593 446.5,-593 446.5,-244 446.5,-205.87 468.7,-196.64 502.5,-179 572.81,-142.3 798.15,-132.27 917.57,-129.53"/>
<polygon fill="midnightblue" stroke="midnightblue" points="917.81,-133.03 927.73,-129.31 917.66,-126.03 917.81,-133.03"/>
</g>
<!-- Node27 -->
<g id="node27" class="node">
<title>Node27</title>
<g id="a_node27"><a xlink:href="../../d2/d94/a00716.html" target="_top" xlink:title=" ">
<polygon fill="none" stroke="black" points="783.5,-638.5 783.5,-668.5 923.5,-668.5 923.5,-638.5 783.5,-638.5"/>
<text text-anchor="start" x="791.5" y="-656.5" font-family="Helvetica,sans-Serif" font-size="10.00">discordcoreapi/GuildMember</text>
<text text-anchor="middle" x="853.5" y="-645.5" font-family="Helvetica,sans-Serif" font-size="10.00">Entities.hpp</text>
</a>
</g>
</g>
<!-- Node1&#45;&gt;Node27 -->
<g id="edge26" class="edge">
<title>Node1&#45;&gt;Node27</title>
<path fill="none" stroke="midnightblue" d="M853.5,-705.48C853.5,-698.47 853.5,-688.19 853.5,-678.7"/>
<polygon fill="midnightblue" stroke="midnightblue" points="857,-678.52 853.5,-668.52 850,-678.52 857,-678.52"/>
</g>
<!-- Node37 -->
<g id="node37" class="node">
<title>Node37</title>
<g id="a_node37"><a xlink:href="../../db/d7c/a00722.html" target="_top" xlink:title=" ">
<polygon fill="none" stroke="black" points="1525,-291.5 1525,-310.5 1650,-310.5 1650,-291.5 1525,-291.5"/>
<text text-anchor="middle" x="1587.5" y="-298.5" font-family="Helvetica,sans-Serif" font-size="10.00">discordcoreapi/Https.hpp</text>
</a>
</g>
</g>
<!-- Node1&#45;&gt;Node37 -->
<g id="edge67" class="edge">
<title>Node1&#45;&gt;Node37</title>
<path fill="none" stroke="midnightblue" d="M897.78,-711.77C1061.82,-702.94 1625.5,-667.19 1625.5,-593 1625.5,-593 1625.5,-593 1625.5,-412 1625.5,-377.81 1608.9,-340.76 1597.64,-319.57"/>
<polygon fill="midnightblue" stroke="midnightblue" points="1600.68,-317.83 1592.78,-310.77 1594.55,-321.22 1600.68,-317.83"/>
</g>
<!-- Node3 -->
<g id="node3" class="node">
<title>Node3</title>
<g id="a_node3"><a xlink:href="../../d5/dae/a00767.html" target="_top" xlink:title=" ">
<polygon fill="none" stroke="black" points="926.5,-56.5 926.5,-75.5 1060.5,-75.5 1060.5,-56.5 926.5,-56.5"/>
<text text-anchor="middle" x="993.5" y="-63.5" font-family="Helvetica,sans-Serif" font-size="10.00">discordcoreapi/Utilities.hpp</text>
</a>
</g>
</g>
<!-- Node2&#45;&gt;Node3 -->
<g id="edge2" class="edge">
<title>Node2&#45;&gt;Node3</title>
<path fill="none" stroke="midnightblue" d="M993.5,-112.4C993.5,-104.47 993.5,-94.46 993.5,-85.86"/>
<polygon fill="midnightblue" stroke="midnightblue" points="997,-85.66 993.5,-75.66 990,-85.66 997,-85.66"/>
</g>
<!-- Node4 -->
<g id="node4" class="node">
<title>Node4</title>
<g id="a_node4"><a xlink:title=" ">
<polygon fill="none" stroke="#bfbfbf" points="0,-0.5 0,-19.5 57,-19.5 57,-0.5 0,-0.5"/>
<text text-anchor="middle" x="28.5" y="-7.5" font-family="Helvetica,sans-Serif" font-size="10.00">pthread.h</text>
</a>
</g>
</g>
<!-- Node3&#45;&gt;Node4 -->
<g id="edge3" class="edge">
<title>Node3&#45;&gt;Node4</title>
<path fill="none" stroke="midnightblue" d="M926.45,-63.35C745.93,-58.65 251.53,-44.07 67.15,-19.74"/>
<polygon fill="midnightblue" stroke="midnightblue" points="67.41,-16.24 57.03,-18.35 66.46,-23.18 67.41,-16.24"/>
</g>
<!-- Node5 -->
<g id="node5" class="node">
<title>Node5</title>
<g id="a_node5"><a xlink:title=" ">
<polygon fill="none" stroke="#bfbfbf" points="75.5,-0.5 75.5,-19.5 137.5,-19.5 137.5,-0.5 75.5,-0.5"/>
<text text-anchor="middle" x="106.5" y="-7.5" font-family="Helvetica,sans-Serif" font-size="10.00">sys/time.h</text>
</a>
</g>
</g>
<!-- Node3&#45;&gt;Node5 -->
<g id="edge4" class="edge">
<title>Node3&#45;&gt;Node5</title>
<path fill="none" stroke="midnightblue" d="M926.43,-65.26C784.35,-64.97 442.57,-59.92 147.87,-19.95"/>
<polygon fill="midnightblue" stroke="midnightblue" points="148.23,-16.47 137.85,-18.58 147.28,-23.4 148.23,-16.47"/>
</g>
<!-- Node6 -->
<g id="node6" class="node">
<title>Node6</title>
<g id="a_node6"><a xlink:title=" ">
<polygon fill="none" stroke="#bfbfbf" points="155.5,-0.5 155.5,-19.5 199.5,-19.5 199.5,-0.5 155.5,-0.5"/>
<text text-anchor="middle" x="177.5" y="-7.5" font-family="Helvetica,sans-Serif" font-size="10.00">time.h</text>
</a>
</g>
</g>
<!-- Node3&#45;&gt;Node6 -->
<g id="edge5" class="edge">
<title>Node3&#45;&gt;Node6</title>
<path fill="none" stroke="midnightblue" d="M926.48,-63.1C766.41,-58.25 364.34,-44.19 209.95,-19.8"/>
<polygon fill="midnightblue" stroke="midnightblue" points="210.15,-16.28 199.71,-18.1 209,-23.19 210.15,-16.28"/>
</g>
<!-- Node7 -->
<g id="node7" class="node">
<title>Node7</title>
<g id="a_node7"><a xlink:title=" ">
<polygon fill="none" stroke="#bfbfbf" points="218,-0.5 218,-19.5 259,-19.5 259,-0.5 218,-0.5"/>
<text text-anchor="middle" x="238.5" y="-7.5" font-family="Helvetica,sans-Serif" font-size="10.00">ctime</text>
</a>
</g>
</g>
<!-- Node3&#45;&gt;Node7 -->
<g id="edge6" class="edge">
<title>Node3&#45;&gt;Node7</title>
<path fill="none" stroke="midnightblue" d="M926.39,-62.89C775.29,-57.82 411.16,-43.7 269.47,-19.9"/>
<polygon fill="midnightblue" stroke="midnightblue" points="269.72,-16.39 259.26,-18.09 268.5,-23.28 269.72,-16.39"/>
</g>
<!-- Node8 -->
<g id="node8" class="node">
<title>Node8</title>
<g id="a_node8"><a xlink:title=" ">
<polygon fill="none" stroke="#bfbfbf" points="277,-0.5 277,-19.5 370,-19.5 370,-0.5 277,-0.5"/>
<text text-anchor="middle" x="323.5" y="-7.5" font-family="Helvetica,sans-Serif" font-size="10.00">condition_variable</text>
</a>
</g>
</g>
<!-- Node3&#45;&gt;Node8 -->
<g id="edge7" class="edge">
<title>Node3&#45;&gt;Node8</title>
<path fill="none" stroke="midnightblue" d="M926.09,-61.96C814.7,-56.53 585.05,-43.55 380.25,-19.98"/>
<polygon fill="midnightblue" stroke="midnightblue" points="380.55,-16.49 370.21,-18.82 379.74,-23.45 380.55,-16.49"/>
</g>
<!-- Node9 -->
<g id="node9" class="node">
<title>Node9</title>
<g id="a_node9"><a xlink:title=" ">
<polygon fill="none" stroke="#bfbfbf" points="388.5,-0.5 388.5,-19.5 486.5,-19.5 486.5,-0.5 388.5,-0.5"/>
<text text-anchor="middle" x="437.5" y="-7.5" font-family="Helvetica,sans-Serif" font-size="10.00">nlohmann/json.hpp</text>
</a>
</g>
</g>
<!-- Node3&#45;&gt;Node9 -->
<g id="edge8" class="edge">
<title>Node3&#45;&gt;Node9</title>
<path fill="none" stroke="midnightblue" d="M926.5,-60.31C832.7,-53.44 656.71,-39.45 496.55,-20.06"/>
<polygon fill="midnightblue" stroke="midnightblue" points="496.87,-16.57 486.52,-18.83 496.02,-23.52 496.87,-16.57"/>
</g>
<!-- Node10 -->
<g id="node10" class="node">
<title>Node10</title>
<g id="a_node10"><a xlink:title=" ">
<polygon fill="none" stroke="#bfbfbf" points="505,-0.5 505,-19.5 590,-19.5 590,-0.5 505,-0.5"/>
<text text-anchor="middle" x="547.5" y="-7.5" font-family="Helvetica,sans-Serif" font-size="10.00">source_location</text>
</a>
</g>
</g>
<!-- Node3&#45;&gt;Node10 -->
<g id="edge9" class="edge">
<title>Node3&#45;&gt;Node10</title>
<path fill="none" stroke="midnightblue" d="M926.24,-58.6C849.66,-51.04 720.55,-37.42 600.18,-20.17"/>
<polygon fill="midnightblue" stroke="midnightblue" points="600.44,-16.67 590.05,-18.71 599.44,-23.6 600.44,-16.67"/>
</g>
<!-- Node11 -->
<g id="node11" class="node">
<title>Node11</title>
<g id="a_node11"><a xlink:title=" ">
<polygon fill="none" stroke="#bfbfbf" points="608,-0.5 608,-19.5 691,-19.5 691,-0.5 608,-0.5"/>
<text text-anchor="middle" x="649.5" y="-7.5" font-family="Helvetica,sans-Serif" font-size="10.00">unordered_map</text>
</a>
</g>
</g>
<!-- Node3&#45;&gt;Node11 -->
<g id="edge10" class="edge">
<title>Node3&#45;&gt;Node11</title>
<path fill="none" stroke="midnightblue" d="M935.62,-56.5C878.67,-48.05 788.96,-34.5 701.35,-20.11"/>
<polygon fill="midnightblue" stroke="midnightblue" points="701.67,-16.62 691.24,-18.44 700.53,-23.52 701.67,-16.62"/>
</g>
<!-- Node12 -->
<g id="node12" class="node">
<title>Node12</title>
<g id="a_node12"><a xlink:title=" ">
<polygon fill="none" stroke="#bfbfbf" points="709.5,-0.5 709.5,-19.5 787.5,-19.5 787.5,-0.5 709.5,-0.5"/>
<text text-anchor="middle" x="748.5" y="-7.5" font-family="Helvetica,sans-Serif" font-size="10.00">shared_mutex</text>
</a>
</g>
</g>
<!-- Node3&#45;&gt;Node12 -->
<g id="edge11" class="edge">
<title>Node3&#45;&gt;Node12</title>
<path fill="none" stroke="midnightblue" d="M954.68,-56.44C911.94,-47.02 843.17,-31.87 796.93,-21.68"/>
<polygon fill="midnightblue" stroke="midnightblue" points="797.66,-18.25 787.14,-19.52 796.15,-25.09 797.66,-18.25"/>
</g>
<!-- Node13 -->
<g id="node13" class="node">
<title>Node13</title>
<g id="a_node13"><a xlink:title=" ">
<polygon fill="none" stroke="#bfbfbf" points="805.5,-0.5 805.5,-19.5 863.5,-19.5 863.5,-0.5 805.5,-0.5"/>
<text text-anchor="middle" x="834.5" y="-7.5" font-family="Helvetica,sans-Serif" font-size="10.00">functional</text>
</a>
</g>
</g>
<!-- Node3&#45;&gt;Node13 -->
<g id="edge12" class="edge">
<title>Node3&#45;&gt;Node13</title>
<path fill="none" stroke="midnightblue" d="M968.31,-56.44C941.56,-47.36 899.1,-32.94 869.19,-22.78"/>
<polygon fill="midnightblue" stroke="midnightblue" points="870.17,-19.42 859.58,-19.52 867.92,-26.05 870.17,-19.42"/>
</g>
<!-- Node14 -->
<g id="node14" class="node">
<title>Node14</title>
<g id="a_node14"><a xlink:title=" ">
<polygon fill="none" stroke="#bfbfbf" points="882,-0.5 882,-19.5 947,-19.5 947,-0.5 882,-0.5"/>
<text text-anchor="middle" x="914.5" y="-7.5" font-family="Helvetica,sans-Serif" font-size="10.00">semaphore</text>
</a>
</g>
</g>
<!-- Node3&#45;&gt;Node14 -->
<g id="edge13" class="edge">
<title>Node3&#45;&gt;Node14</title>
<path fill="none" stroke="midnightblue" d="M980.81,-56.32C968.6,-47.98 949.92,-35.21 935.5,-25.35"/>
<polygon fill="midnightblue" stroke="midnightblue" points="937.39,-22.41 927.16,-19.65 933.44,-28.19 937.39,-22.41"/>
</g>
<!-- Node15 -->
<g id="node15" class="node">
<title>Node15</title>
<g id="a_node15"><a xlink:title=" ">
<polygon fill="none" stroke="#bfbfbf" points="965.5,-0.5 965.5,-19.5 1021.5,-19.5 1021.5,-0.5 965.5,-0.5"/>
<text text-anchor="middle" x="993.5" y="-7.5" font-family="Helvetica,sans-Serif" font-size="10.00">concepts</text>
</a>
</g>
</g>
<!-- Node3&#45;&gt;Node15 -->
<g id="edge14" class="edge">
<title>Node3&#45;&gt;Node15</title>
<path fill="none" stroke="midnightblue" d="M993.5,-56.08C993.5,-49.01 993.5,-38.86 993.5,-29.99"/>
<polygon fill="midnightblue" stroke="midnightblue" points="997,-29.75 993.5,-19.75 990,-29.75 997,-29.75"/>
</g>
<!-- Node16 -->
<g id="node16" class="node">
<title>Node16</title>
<g id="a_node16"><a xlink:title=" ">
<polygon fill="none" stroke="#bfbfbf" points="1039.5,-0.5 1039.5,-19.5 1093.5,-19.5 1093.5,-0.5 1039.5,-0.5"/>
<text text-anchor="middle" x="1066.5" y="-7.5" font-family="Helvetica,sans-Serif" font-size="10.00">iostream</text>
</a>
</g>
</g>
<!-- Node3&#45;&gt;Node16 -->
<g id="edge15" class="edge">
<title>Node3&#45;&gt;Node16</title>
<path fill="none" stroke="midnightblue" d="M1005.23,-56.32C1016.34,-48.11 1033.24,-35.6 1046.48,-25.81"/>
<polygon fill="midnightblue" stroke="midnightblue" points="1048.6,-28.59 1054.56,-19.83 1044.44,-22.97 1048.6,-28.59"/>
</g>
<!-- Node17 -->
<g id="node17" class="node">
<title>Node17</title>
<g id="a_node17"><a xlink:title=" ">
<polygon fill="none" stroke="#bfbfbf" points="1112,-0.5 1112,-19.5 1161,-19.5 1161,-0.5 1112,-0.5"/>
<text text-anchor="middle" x="1136.5" y="-7.5" font-family="Helvetica,sans-Serif" font-size="10.00">fstream</text>
</a>
</g>
</g>
<!-- Node3&#45;&gt;Node17 -->
<g id="edge16" class="edge">
<title>Node3&#45;&gt;Node17</title>
<path fill="none" stroke="midnightblue" d="M1016.16,-56.44C1039.9,-47.48 1077.41,-33.31 1104.24,-23.18"/>
<polygon fill="midnightblue" stroke="midnightblue" points="1105.83,-26.32 1113.95,-19.52 1103.36,-19.77 1105.83,-26.32"/>
</g>
<!-- Node18 -->
<g id="node18" class="node">
<title>Node18</title>
<g id="a_node18"><a xlink:title=" ">
<polygon fill="none" stroke="#bfbfbf" points="1179,-0.5 1179,-19.5 1220,-19.5 1220,-0.5 1179,-0.5"/>
<text text-anchor="middle" x="1199.5" y="-7.5" font-family="Helvetica,sans-Serif" font-size="10.00">bitset</text>
</a>
</g>
</g>
<!-- Node3&#45;&gt;Node18 -->
<g id="edge17" class="edge">
<title>Node3&#45;&gt;Node18</title>
<path fill="none" stroke="midnightblue" d="M1028.68,-56.46C1062.27,-48.2 1114.53,-35.09 1169.04,-20.04"/>
<polygon fill="midnightblue" stroke="midnightblue" points="1170.18,-23.36 1178.88,-17.31 1168.3,-16.61 1170.18,-23.36"/>
</g>
<!-- Node19 -->
<g id="node19" class="node">
<title>Node19</title>
<g id="a_node19"><a xlink:title=" ">
<polygon fill="none" stroke="#bfbfbf" points="1238.5,-0.5 1238.5,-19.5 1290.5,-19.5 1290.5,-0.5 1238.5,-0.5"/>
<text text-anchor="middle" x="1264.5" y="-7.5" font-family="Helvetica,sans-Serif" font-size="10.00">memory</text>
</a>
</g>
</g>
<!-- Node3&#45;&gt;Node19 -->
<g id="edge18" class="edge">
<title>Node3&#45;&gt;Node19</title>
<path fill="none" stroke="midnightblue" d="M1042.27,-56.48C1087.77,-48.35 1157.77,-35.37 1228.25,-19.95"/>
<polygon fill="midnightblue" stroke="midnightblue" points="1229.18,-23.33 1238.19,-17.76 1227.67,-16.49 1229.18,-23.33"/>
</g>
<!-- Node20 -->
<g id="node20" class="node">
<title>Node20</title>
<g id="a_node20"><a xlink:title=" ">
<polygon fill="none" stroke="#bfbfbf" points="1309,-0.5 1309,-19.5 1358,-19.5 1358,-0.5 1309,-0.5"/>
<text text-anchor="middle" x="1333.5" y="-7.5" font-family="Helvetica,sans-Serif" font-size="10.00">random</text>
</a>
</g>
</g>
<!-- Node3&#45;&gt;Node20 -->
<g id="edge19" class="edge">
<title>Node3&#45;&gt;Node20</title>
<path fill="none" stroke="midnightblue" d="M1060.74,-57.33C1120.74,-49.97 1211.15,-37.66 1298.84,-19.93"/>
<polygon fill="midnightblue" stroke="midnightblue" points="1299.6,-23.35 1308.69,-17.91 1298.2,-16.49 1299.6,-23.35"/>
</g>
<!-- Node21 -->
<g id="node21" class="node">
<title>Node21</title>
<g id="a_node21"><a xlink:title=" ">
<polygon fill="none" stroke="#bfbfbf" points="1376,-0.5 1376,-19.5 1417,-19.5 1417,-0.5 1376,-0.5"/>
<text text-anchor="middle" x="1396.5" y="-7.5" font-family="Helvetica,sans-Serif" font-size="10.00">string</text>
</a>
</g>
</g>
<!-- Node3&#45;&gt;Node21 -->
<g id="edge20" class="edge">
<title>Node3&#45;&gt;Node21</title>
<path fill="none" stroke="midnightblue" d="M1060.77,-60.37C1133.77,-54.57 1253.79,-42.75 1366.16,-19.71"/>
<polygon fill="midnightblue" stroke="midnightblue" points="1366.89,-23.13 1375.96,-17.67 1365.46,-16.28 1366.89,-23.13"/>
</g>
<!-- Node22 -->
<g id="node22" class="node">
<title>Node22</title>
<g id="a_node22"><a xlink:title=" ">
<polygon fill="none" stroke="#bfbfbf" points="1435.5,-0.5 1435.5,-19.5 1477.5,-19.5 1477.5,-0.5 1435.5,-0.5"/>
<text text-anchor="middle" x="1456.5" y="-7.5" font-family="Helvetica,sans-Serif" font-size="10.00">vector</text>
</a>
</g>
</g>
<!-- Node3&#45;&gt;Node22 -->
<g id="edge21" class="edge">
<title>Node3&#45;&gt;Node22</title>
<path fill="none" stroke="midnightblue" d="M1060.65,-61.73C1146.08,-56.72 1297.84,-44.97 1425.5,-20 1425.6,-19.98 1425.7,-19.96 1425.8,-19.94"/>
<polygon fill="midnightblue" stroke="midnightblue" points="1426.35,-23.41 1435.28,-17.7 1424.74,-16.59 1426.35,-23.41"/>
</g>
<!-- Node23 -->
<g id="node23" class="node">
<title>Node23</title>
<g id="a_node23"><a xlink:title=" ">
<polygon fill="none" stroke="#bfbfbf" points="1495.5,-0.5 1495.5,-19.5 1539.5,-19.5 1539.5,-0.5 1495.5,-0.5"/>
<text text-anchor="middle" x="1517.5" y="-7.5" font-family="Helvetica,sans-Serif" font-size="10.00">thread</text>
</a>
</g>
</g>
<!-- Node3&#45;&gt;Node23 -->
<g id="edge22" class="edge">
<title>Node3&#45;&gt;Node23</title>
<path fill="none" stroke="midnightblue" d="M1060.65,-62.94C1154,-59.18 1328.27,-48.9 1484.98,-19.94"/>
<polygon fill="midnightblue" stroke="midnightblue" points="1486.09,-23.29 1495.27,-18.01 1484.8,-16.41 1486.09,-23.29"/>
</g>
<!-- Node24 -->
<g id="node24" class="node">
<title>Node24</title>
<g id="a_node24"><a xlink:title=" ">
<polygon fill="none" stroke="#bfbfbf" points="1557.5,-0.5 1557.5,-19.5 1601.5,-19.5 1601.5,-0.5 1557.5,-0.5"/>
<text text-anchor="middle" x="1579.5" y="-7.5" font-family="Helvetica,sans-Serif" font-size="10.00">mutex</text>
</a>
</g>
</g>
<!-- Node3&#45;&gt;Node24 -->
<g id="edge23" class="edge">
<title>Node3&#45;&gt;Node24</title>
<path fill="none" stroke="midnightblue" d="M1060.71,-63.91C1163.77,-61.28 1366.99,-52.3 1547.35,-19.85"/>
<polygon fill="midnightblue" stroke="midnightblue" points="1548.07,-23.27 1557.28,-18.03 1546.81,-16.39 1548.07,-23.27"/>
</g>
<!-- Node25 -->
<g id="node25" class="node">
<title>Node25</title>
<g id="a_node25"><a xlink:title=" ">
<polygon fill="none" stroke="#bfbfbf" points="1620,-0.5 1620,-19.5 1663,-19.5 1663,-0.5 1620,-0.5"/>
<text text-anchor="middle" x="1641.5" y="-7.5" font-family="Helvetica,sans-Serif" font-size="10.00">queue</text>
</a>
</g>
</g>
<!-- Node3&#45;&gt;Node25 -->
<g id="edge24" class="edge">
<title>Node3&#45;&gt;Node25</title>
<path fill="none" stroke="midnightblue" d="M1060.72,-64.69C1172.88,-63.17 1405.18,-55.74 1609.92,-19.68"/>
<polygon fill="midnightblue" stroke="midnightblue" points="1610.73,-23.09 1619.96,-17.88 1609.5,-16.2 1610.73,-23.09"/>
</g>
<!-- Node26 -->
<g id="node26" class="node">
<title>Node26</title>
<g id="a_node26"><a xlink:title=" ">
<polygon fill="none" stroke="#bfbfbf" points="1681,-0.5 1681,-19.5 1716,-19.5 1716,-0.5 1681,-0.5"/>
<text text-anchor="middle" x="1698.5" y="-7.5" font-family="Helvetica,sans-Serif" font-size="10.00">map</text>
</a>
</g>
</g>
<!-- Node3&#45;&gt;Node26 -->
<g id="edge25" class="edge">
<title>Node3&#45;&gt;Node26</title>
<path fill="none" stroke="midnightblue" d="M1060.69,-62.83C1204.54,-57.81 1539.28,-44.13 1670.91,-19.76"/>
<polygon fill="midnightblue" stroke="midnightblue" points="1671.63,-23.19 1680.77,-17.84 1670.29,-16.32 1671.63,-23.19"/>
</g>
<!-- Node27&#45;&gt;Node2 -->
<g id="edge27" class="edge">
<title>Node27&#45;&gt;Node2</title>
<path fill="none" stroke="midnightblue" d="M783.23,-644.01C676.16,-629.09 484.5,-593.69 484.5,-531.5 484.5,-531.5 484.5,-531.5 484.5,-244 484.5,-206.16 506.1,-196.8 539.5,-179 603.21,-145.05 805.93,-133.84 917.71,-130.21"/>
<polygon fill="midnightblue" stroke="midnightblue" points="918.02,-133.7 927.91,-129.89 917.8,-126.7 918.02,-133.7"/>
</g>
<!-- Node28 -->
<g id="node28" class="node">
<title>Node28</title>
<g id="a_node28"><a xlink:href="../../d3/d2c/a00764.html" target="_top" xlink:title=" ">
<polygon fill="none" stroke="black" points="776,-582.5 776,-601.5 931,-601.5 931,-582.5 776,-582.5"/>
<text text-anchor="middle" x="853.5" y="-589.5" font-family="Helvetica,sans-Serif" font-size="10.00">discordcoreapi/UserEntities.hpp</text>
</a>
</g>
</g>
<!-- Node27&#45;&gt;Node28 -->
<g id="edge28" class="edge">
<title>Node27&#45;&gt;Node28</title>
<path fill="none" stroke="midnightblue" d="M853.5,-638.4C853.5,-630.47 853.5,-620.46 853.5,-611.86"/>
<polygon fill="midnightblue" stroke="midnightblue" points="857,-611.66 853.5,-601.66 850,-611.66 857,-611.66"/>
</g>
<!-- Node27&#45;&gt;Node37 -->
<g id="edge66" class="edge">
<title>Node27&#45;&gt;Node37</title>
<path fill="none" stroke="midnightblue" d="M923.55,-648.27C1107.01,-636.24 1587.5,-598.38 1587.5,-531.5 1587.5,-531.5 1587.5,-531.5 1587.5,-412 1587.5,-379.95 1587.5,-342.64 1587.5,-320.75"/>
<polygon fill="midnightblue" stroke="midnightblue" points="1591,-320.56 1587.5,-310.56 1584,-320.56 1591,-320.56"/>
</g>
<!-- Node28&#45;&gt;Node2 -->
<g id="edge29" class="edge">
<title>Node28&#45;&gt;Node2</title>
<path fill="none" stroke="midnightblue" d="M798.1,-582.48C703.87,-566.42 522.5,-527.97 522.5,-470 522.5,-470 522.5,-470 522.5,-244 522.5,-207.28 541.5,-197.01 573.5,-179 630.72,-146.8 812.88,-134.95 917.56,-130.72"/>
<polygon fill="midnightblue" stroke="midnightblue" points="917.89,-134.21 927.75,-130.33 917.62,-127.22 917.89,-134.21"/>
</g>
<!-- Node29 -->
<g id="node29" class="node">
<title>Node29</title>
<g id="a_node29"><a xlink:href="../../d9/dd4/a00776.html" target="_top" xlink:title=" ">
<polygon fill="none" stroke="black" points="987.5,-515.5 987.5,-545.5 1121.5,-545.5 1121.5,-515.5 987.5,-515.5"/>
<text text-anchor="start" x="995.5" y="-533.5" font-family="Helvetica,sans-Serif" font-size="10.00">discordcoreapi/WebSocket</text>
<text text-anchor="middle" x="1054.5" y="-522.5" font-family="Helvetica,sans-Serif" font-size="10.00">Entities.hpp</text>
</a>
</g>
</g>
<!-- Node28&#45;&gt;Node29 -->
<g id="edge30" class="edge">
<title>Node28&#45;&gt;Node29</title>
<path fill="none" stroke="midnightblue" d="M882.3,-582.48C912.19,-573.63 959.75,-559.55 997.32,-548.43"/>
<polygon fill="midnightblue" stroke="midnightblue" points="998.53,-551.72 1007.13,-545.52 996.55,-545.01 998.53,-551.72"/>
</g>
<!-- Node29&#45;&gt;Node2 -->
<g id="edge31" class="edge">
<title>Node29&#45;&gt;Node2</title>
<path fill="none" stroke="midnightblue" d="M987.36,-527.73C852.29,-522.33 560.5,-500.65 560.5,-414 560.5,-414 560.5,-414 560.5,-244 560.5,-209.11 574.8,-197.31 604.5,-179 655.38,-147.64 819.38,-135.54 917.45,-131.03"/>
<polygon fill="midnightblue" stroke="midnightblue" points="917.77,-134.52 927.61,-130.58 917.46,-127.53 917.77,-134.52"/>
</g>
<!-- Node30 -->
<g id="node30" class="node">
<title>Node30</title>
<g id="a_node30"><a xlink:href="../../d4/d9b/a00680.html" target="_top" xlink:title=" ">
<polygon fill="none" stroke="black" points="744.5,-235.5 744.5,-254.5 906.5,-254.5 906.5,-235.5 744.5,-235.5"/>
<text text-anchor="middle" x="825.5" y="-242.5" font-family="Helvetica,sans-Serif" font-size="10.00">discordcoreapi/AudioDecoder.hpp</text>
</a>
</g>
</g>
<!-- Node29&#45;&gt;Node30 -->
<g id="edge32" class="edge">
<title>Node29&#45;&gt;Node30</title>
<path fill="none" stroke="midnightblue" d="M999.43,-515.42C951.79,-499.53 890.5,-468.5 890.5,-414 890.5,-414 890.5,-414 890.5,-356 890.5,-318.18 861.66,-281.94 842.41,-261.96"/>
<polygon fill="midnightblue" stroke="midnightblue" points="844.64,-259.24 835.09,-254.66 839.7,-264.2 844.64,-259.24"/>
</g>
<!-- Node31 -->
<g id="node31" class="node">
<title>Node31</title>
<g id="a_node31"><a xlink:href="../../d4/d6a/a00704.html" target="_top" xlink:title=" ">
<polygon fill="none" stroke="black" points="914.5,-179.5 914.5,-198.5 1072.5,-198.5 1072.5,-179.5 914.5,-179.5"/>
<text text-anchor="middle" x="993.5" y="-186.5" font-family="Helvetica,sans-Serif" font-size="10.00">discordcoreapi/EventEntities.hpp</text>
</a>
</g>
</g>
<!-- Node29&#45;&gt;Node31 -->
<g id="edge63" class="edge">
<title>Node29&#45;&gt;Node31</title>
<path fill="none" stroke="midnightblue" d="M1039.87,-515.21C1030.85,-505.69 1019.68,-492.49 1012.5,-479 998.36,-452.43 993.5,-444.1 993.5,-414 993.5,-414 993.5,-414 993.5,-300 993.5,-267.95 993.5,-230.64 993.5,-208.75"/>
<polygon fill="midnightblue" stroke="midnightblue" points="997,-208.56 993.5,-198.56 990,-208.56 997,-208.56"/>
</g>
<!-- Node34 -->
<g id="node34" class="node">
<title>Node34</title>
<g id="a_node34"><a xlink:href="../../d0/db6/a00692.html" target="_top" xlink:title=" ">
<polygon fill="none" stroke="black" points="1022,-459.5 1022,-478.5 1209,-478.5 1209,-459.5 1022,-459.5"/>
<text text-anchor="middle" x="1115.5" y="-466.5" font-family="Helvetica,sans-Serif" font-size="10.00">discordcoreapi/CommandController.hpp</text>
</a>
</g>
</g>
<!-- Node29&#45;&gt;Node34 -->
<g id="edge38" class="edge">
<title>Node29&#45;&gt;Node34</title>
<path fill="none" stroke="midnightblue" d="M1068.96,-515.4C1078.09,-506.49 1089.92,-494.95 1099.36,-485.74"/>
<polygon fill="midnightblue" stroke="midnightblue" points="1101.91,-488.15 1106.62,-478.66 1097.02,-483.13 1101.91,-488.15"/>
</g>
<!-- Node36 -->
<g id="node36" class="node">
<title>Node36</title>
<g id="a_node36"><a xlink:href="../../d3/d4f/a00761.html" target="_top" xlink:title=" ">
<polygon fill="none" stroke="black" points="1177.5,-347.5 1177.5,-366.5 1327.5,-366.5 1327.5,-347.5 1177.5,-347.5"/>
<text text-anchor="middle" x="1252.5" y="-354.5" font-family="Helvetica,sans-Serif" font-size="10.00">discordcoreapi/ThreadPool.hpp</text>
</a>
</g>
</g>
<!-- Node29&#45;&gt;Node36 -->
<g id="edge65" class="edge">
<title>Node29&#45;&gt;Node36</title>
<path fill="none" stroke="midnightblue" d="M1120.8,-515.44C1151.4,-507.35 1187.5,-495.47 1217.5,-479 1251.22,-460.49 1267.34,-457.91 1283.5,-423 1291.17,-406.43 1280.01,-387.62 1269,-374.51"/>
<polygon fill="midnightblue" stroke="midnightblue" points="1271.3,-371.84 1261.98,-366.8 1266.12,-376.55 1271.3,-371.84"/>
</g>
<!-- Node38 -->
<g id="node38" class="node">
<title>Node38</title>
<g id="a_node38"><a xlink:href="../../d5/de8/a00749.html" target="_top" xlink:title=" ">
<polygon fill="none" stroke="black" points="1512.5,-235.5 1512.5,-254.5 1662.5,-254.5 1662.5,-235.5 1512.5,-235.5"/>
<text text-anchor="middle" x="1587.5" y="-242.5" font-family="Helvetica,sans-Serif" font-size="10.00">discordcoreapi/SSLClients.hpp</text>
</a>
</g>
</g>
<!-- Node29&#45;&gt;Node38 -->
<g id="edge64" class="edge">
<title>Node29&#45;&gt;Node38</title>
<path fill="none" stroke="midnightblue" d="M1121.65,-518.09C1211.73,-500.84 1360.5,-464.68 1360.5,-414 1360.5,-414 1360.5,-414 1360.5,-356 1360.5,-290.63 1437.67,-264.1 1502.02,-253.33"/>
<polygon fill="midnightblue" stroke="midnightblue" points="1502.89,-256.74 1512.23,-251.74 1501.81,-249.82 1502.89,-256.74"/>
</g>
<!-- Node52 -->
<g id="node52" class="node">
<title>Node52</title>
<g id="a_node52"><a xlink:href="../../dd/d57/a00701.html" target="_top" xlink:title=" ">
<polygon fill="none" stroke="black" points="1394.5,-403.5 1394.5,-422.5 1538.5,-422.5 1538.5,-403.5 1394.5,-403.5"/>
<text text-anchor="middle" x="1466.5" y="-410.5" font-family="Helvetica,sans-Serif" font-size="10.00">discordcoreapi/ErlPacker.hpp</text>
</a>
</g>
</g>
<!-- Node29&#45;&gt;Node52 -->
<g id="edge61" class="edge">
<title>Node29&#45;&gt;Node52</title>
<path fill="none" stroke="midnightblue" d="M1121.51,-527.76C1187.95,-524.02 1291.52,-512.7 1374.5,-479 1403.46,-467.24 1432.12,-444.82 1449.57,-429.64"/>
<polygon fill="midnightblue" stroke="midnightblue" points="1452.05,-432.12 1457.19,-422.85 1447.39,-426.9 1452.05,-432.12"/>
</g>
<!-- Node30&#45;&gt;Node2 -->
<g id="edge35" class="edge">
<title>Node30&#45;&gt;Node2</title>
<path fill="none" stroke="midnightblue" d="M744.26,-242.73C670.01,-238.74 577.4,-224.85 617.5,-179 636.94,-156.78 813.55,-140.91 917.67,-133.4"/>
<polygon fill="midnightblue" stroke="midnightblue" points="918.09,-136.88 927.82,-132.68 917.6,-129.9 918.09,-136.88"/>
</g>
<!-- Node30&#45;&gt;Node31 -->
<g id="edge33" class="edge">
<title>Node30&#45;&gt;Node31</title>
<path fill="none" stroke="midnightblue" d="M852.12,-235.44C880.51,-226.32 925.64,-211.81 957.25,-201.65"/>
<polygon fill="midnightblue" stroke="midnightblue" points="958.56,-204.91 967,-198.52 956.41,-198.24 958.56,-204.91"/>
</g>
<!-- Node32 -->
<g id="node32" class="node">
<title>Node32</title>
<g id="a_node32"><a xlink:title=" ">
<polygon fill="none" stroke="#bfbfbf" points="626.5,-179.5 626.5,-198.5 736.5,-198.5 736.5,-179.5 626.5,-179.5"/>
<text text-anchor="middle" x="681.5" y="-186.5" font-family="Helvetica,sans-Serif" font-size="10.00">libavformat/avformat.h</text>
</a>
</g>
</g>
<!-- Node30&#45;&gt;Node32 -->
<g id="edge36" class="edge">
<title>Node30&#45;&gt;Node32</title>
<path fill="none" stroke="midnightblue" d="M802.68,-235.44C778.67,-226.44 740.67,-212.19 713.63,-202.05"/>
<polygon fill="midnightblue" stroke="midnightblue" points="714.8,-198.75 704.21,-198.52 712.34,-205.3 714.8,-198.75"/>
</g>
<!-- Node33 -->
<g id="node33" class="node">
<title>Node33</title>
<g id="a_node33"><a xlink:title=" ">
<polygon fill="none" stroke="#bfbfbf" points="755,-179.5 755,-198.5 896,-198.5 896,-179.5 755,-179.5"/>
<text text-anchor="middle" x="825.5" y="-186.5" font-family="Helvetica,sans-Serif" font-size="10.00">libswresample/swresample.h</text>
</a>
</g>
</g>
<!-- Node30&#45;&gt;Node33 -->
<g id="edge37" class="edge">
<title>Node30&#45;&gt;Node33</title>
<path fill="none" stroke="midnightblue" d="M825.5,-235.08C825.5,-228.01 825.5,-217.86 825.5,-208.99"/>
<polygon fill="midnightblue" stroke="midnightblue" points="829,-208.75 825.5,-198.75 822,-208.75 829,-208.75"/>
</g>
<!-- Node31&#45;&gt;Node2 -->
<g id="edge34" class="edge">
<title>Node31&#45;&gt;Node2</title>
<path fill="none" stroke="midnightblue" d="M993.5,-179.48C993.5,-172.47 993.5,-162.19 993.5,-152.7"/>
<polygon fill="midnightblue" stroke="midnightblue" points="997,-152.52 993.5,-142.52 990,-152.52 997,-152.52"/>
</g>
<!-- Node34&#45;&gt;Node2 -->
<g id="edge39" class="edge">
<title>Node34&#45;&gt;Node2</title>
<path fill="none" stroke="midnightblue" d="M1113.54,-459.5C1109.47,-441.09 1100.5,-396.16 1100.5,-358 1100.5,-358 1100.5,-358 1100.5,-244 1100.5,-213.9 1100.12,-202.65 1081.5,-179 1070.94,-165.59 1055.77,-155.1 1040.99,-147.24"/>
<polygon fill="midnightblue" stroke="midnightblue" points="1042.39,-144.02 1031.88,-142.68 1039.26,-150.28 1042.39,-144.02"/>
</g>
<!-- Node35 -->
<g id="node35" class="node">
<title>Node35</title>
<g id="a_node35"><a xlink:href="../../d5/d5b/a00695.html" target="_top" xlink:title=" ">
<polygon fill="none" stroke="black" points="1128.5,-403.5 1128.5,-422.5 1274.5,-422.5 1274.5,-403.5 1128.5,-403.5"/>
<text text-anchor="middle" x="1201.5" y="-410.5" font-family="Helvetica,sans-Serif" font-size="10.00">discordcoreapi/CoRoutine.hpp</text>
</a>
</g>
</g>
<!-- Node34&#45;&gt;Node35 -->
<g id="edge40" class="edge">
<title>Node34&#45;&gt;Node35</title>
<path fill="none" stroke="midnightblue" d="M1129.32,-459.32C1142.73,-450.9 1163.32,-437.97 1179.09,-428.07"/>
<polygon fill="midnightblue" stroke="midnightblue" points="1181.11,-430.94 1187.72,-422.65 1177.39,-425.01 1181.11,-430.94"/>
</g>
<!-- Node35&#45;&gt;Node2 -->
<g id="edge41" class="edge">
<title>Node35&#45;&gt;Node2</title>
<path fill="none" stroke="midnightblue" d="M1192.2,-403.28C1174.68,-385.85 1138.5,-344.69 1138.5,-302 1138.5,-302 1138.5,-302 1138.5,-244 1138.5,-213.2 1135.82,-201.22 1114.5,-179 1100.41,-164.31 1081.41,-153.73 1062.64,-146.17"/>
<polygon fill="midnightblue" stroke="midnightblue" points="1063.77,-142.85 1053.17,-142.59 1061.29,-149.4 1063.77,-142.85"/>
</g>
<!-- Node35&#45;&gt;Node36 -->
<g id="edge42" class="edge">
<title>Node35&#45;&gt;Node36</title>
<path fill="none" stroke="midnightblue" d="M1209.92,-403.08C1217.35,-395.22 1228.35,-383.57 1237.31,-374.08"/>
<polygon fill="midnightblue" stroke="midnightblue" points="1239.91,-376.42 1244.24,-366.75 1234.82,-371.62 1239.91,-376.42"/>
</g>
<!-- Node36&#45;&gt;Node2 -->
<g id="edge43" class="edge">
<title>Node36&#45;&gt;Node2</title>
<path fill="none" stroke="midnightblue" d="M1244.16,-347.19C1236.16,-338.46 1224.08,-324.48 1215.5,-311 1180.6,-256.16 1201.52,-221.69 1152.5,-179 1129.25,-158.75 1097.84,-146.61 1069.08,-139.34"/>
<polygon fill="midnightblue" stroke="midnightblue" points="1069.58,-135.86 1059.04,-136.96 1067.97,-142.67 1069.58,-135.86"/>
</g>
<!-- Node36&#45;&gt;Node37 -->
<g id="edge44" class="edge">
<title>Node36&#45;&gt;Node37</title>
<path fill="none" stroke="midnightblue" d="M1305.58,-347.44C1365,-337.87 1461.22,-322.36 1524.43,-312.17"/>
<polygon fill="midnightblue" stroke="midnightblue" points="1525.35,-315.56 1534.67,-310.52 1524.24,-308.65 1525.35,-315.56"/>
</g>
<!-- Node51 -->
<g id="node51" class="node">
<title>Node51</title>
<g id="a_node51"><a xlink:title=" ">
<polygon fill="none" stroke="#bfbfbf" points="1224.5,-291.5 1224.5,-310.5 1280.5,-310.5 1280.5,-291.5 1224.5,-291.5"/>
<text text-anchor="middle" x="1252.5" y="-298.5" font-family="Helvetica,sans-Serif" font-size="10.00">coroutine</text>
</a>
</g>
</g>
<!-- Node36&#45;&gt;Node51 -->
<g id="edge60" class="edge">
<title>Node36&#45;&gt;Node51</title>
<path fill="none" stroke="midnightblue" d="M1252.5,-347.08C1252.5,-340.01 1252.5,-329.86 1252.5,-320.99"/>
<polygon fill="midnightblue" stroke="midnightblue" points="1256,-320.75 1252.5,-310.75 1249,-320.75 1256,-320.75"/>
</g>
<!-- Node37&#45;&gt;Node38 -->
<g id="edge45" class="edge">
<title>Node37&#45;&gt;Node38</title>
<path fill="none" stroke="midnightblue" d="M1587.5,-291.08C1587.5,-284.01 1587.5,-273.86 1587.5,-264.99"/>
<polygon fill="midnightblue" stroke="midnightblue" points="1591,-264.75 1587.5,-254.75 1584,-264.75 1591,-264.75"/>
</g>
<!-- Node38&#45;&gt;Node2 -->
<g id="edge46" class="edge">
<title>Node38&#45;&gt;Node2</title>
<path fill="none" stroke="midnightblue" d="M1512.24,-241.15C1439.64,-236.85 1327.25,-226.05 1233.5,-199 1213.25,-193.16 1210.35,-186.09 1190.5,-179 1151.13,-164.93 1106.03,-153.07 1068.92,-144.39"/>
<polygon fill="midnightblue" stroke="midnightblue" points="1069.71,-140.98 1059.18,-142.14 1068.13,-147.8 1069.71,-140.98"/>
</g>
<!-- Node38&#45;&gt;Node31 -->
<g id="edge47" class="edge">
<title>Node38&#45;&gt;Node31</title>
<path fill="none" stroke="midnightblue" d="M1512.27,-237.16C1402.76,-227.21 1199.81,-208.76 1082.85,-198.12"/>
<polygon fill="midnightblue" stroke="midnightblue" points="1083.12,-194.63 1072.84,-197.21 1082.49,-201.6 1083.12,-194.63"/>
</g>
<!-- Node39 -->
<g id="node39" class="node">
<title>Node39</title>
<g id="a_node39"><a xlink:title=" ">
<polygon fill="none" stroke="#bfbfbf" points="1243,-179.5 1243,-198.5 1316,-198.5 1316,-179.5 1243,-179.5"/>
<text text-anchor="middle" x="1279.5" y="-186.5" font-family="Helvetica,sans-Serif" font-size="10.00">openssl/err.h</text>
</a>
</g>
</g>
<!-- Node38&#45;&gt;Node39 -->
<g id="edge48" class="edge">
<title>Node38&#45;&gt;Node39</title>
<path fill="none" stroke="midnightblue" d="M1535.74,-235.47C1485.01,-227.03 1405.23,-213.55 1326.27,-199.11"/>
<polygon fill="midnightblue" stroke="midnightblue" points="1326.61,-195.61 1316.14,-197.25 1325.35,-202.5 1326.61,-195.61"/>
</g>
<!-- Node40 -->
<g id="node40" class="node">
<title>Node40</title>
<g id="a_node40"><a xlink:title=" ">
<polygon fill="none" stroke="#bfbfbf" points="1334.5,-179.5 1334.5,-198.5 1408.5,-198.5 1408.5,-179.5 1334.5,-179.5"/>
<text text-anchor="middle" x="1371.5" y="-186.5" font-family="Helvetica,sans-Serif" font-size="10.00">openssl/ssl.h</text>
</a>
</g>
</g>
<!-- Node38&#45;&gt;Node40 -->
<g id="edge49" class="edge">
<title>Node38&#45;&gt;Node40</title>
<path fill="none" stroke="midnightblue" d="M1553.27,-235.44C1515.99,-226.12 1456.23,-211.18 1415.49,-201"/>
<polygon fill="midnightblue" stroke="midnightblue" points="1416.12,-197.55 1405.57,-198.52 1414.42,-204.34 1416.12,-197.55"/>
</g>
<!-- Node41 -->
<g id="node41" class="node">
<title>Node41</title>
<g id="a_node41"><a xlink:title=" ">
<polygon fill="none" stroke="#bfbfbf" points="1427,-179.5 1427,-198.5 1470,-198.5 1470,-179.5 1427,-179.5"/>
<text text-anchor="middle" x="1448.5" y="-186.5" font-family="Helvetica,sans-Serif" font-size="10.00">fcntl.h</text>
</a>
</g>
</g>
<!-- Node38&#45;&gt;Node41 -->
<g id="edge50" class="edge">
<title>Node38&#45;&gt;Node41</title>
<path fill="none" stroke="midnightblue" d="M1565.48,-235.44C1542.4,-226.48 1505.94,-212.31 1479.86,-202.18"/>
<polygon fill="midnightblue" stroke="midnightblue" points="1481.01,-198.88 1470.42,-198.52 1478.48,-205.4 1481.01,-198.88"/>
</g>
<!-- Node42 -->
<g id="node42" class="node">
<title>Node42</title>
<g id="a_node42"><a xlink:title=" ">
<polygon fill="none" stroke="#bfbfbf" points="1488,-179.5 1488,-198.5 1537,-198.5 1537,-179.5 1488,-179.5"/>
<text text-anchor="middle" x="1512.5" y="-186.5" font-family="Helvetica,sans-Serif" font-size="10.00">netdb.h</text>
</a>
</g>
</g>
<!-- Node38&#45;&gt;Node42 -->
<g id="edge51" class="edge">
<title>Node38&#45;&gt;Node42</title>
<path fill="none" stroke="midnightblue" d="M1575.45,-235.32C1564.04,-227.11 1546.67,-214.6 1533.07,-204.81"/>
<polygon fill="midnightblue" stroke="midnightblue" points="1534.93,-201.84 1524.77,-198.83 1530.84,-207.52 1534.93,-201.84"/>
</g>
<!-- Node43 -->
<g id="node43" class="node">
<title>Node43</title>
<g id="a_node43"><a xlink:title=" ">
<polygon fill="none" stroke="#bfbfbf" points="1555,-179.5 1555,-198.5 1620,-198.5 1620,-179.5 1555,-179.5"/>
<text text-anchor="middle" x="1587.5" y="-186.5" font-family="Helvetica,sans-Serif" font-size="10.00">netinet/in.h</text>
</a>
</g>
</g>
<!-- Node38&#45;&gt;Node43 -->
<g id="edge52" class="edge">
<title>Node38&#45;&gt;Node43</title>
<path fill="none" stroke="midnightblue" d="M1587.5,-235.08C1587.5,-228.01 1587.5,-217.86 1587.5,-208.99"/>
<polygon fill="midnightblue" stroke="midnightblue" points="1591,-208.75 1587.5,-198.75 1584,-208.75 1591,-208.75"/>
</g>
<!-- Node44 -->
<g id="node44" class="node">
<title>Node44</title>
<g id="a_node44"><a xlink:title=" ">
<polygon fill="none" stroke="#bfbfbf" points="1638,-179.5 1638,-198.5 1709,-198.5 1709,-179.5 1638,-179.5"/>
<text text-anchor="middle" x="1673.5" y="-186.5" font-family="Helvetica,sans-Serif" font-size="10.00">netinet/tcp.h</text>
</a>
</g>
</g>
<!-- Node38&#45;&gt;Node44 -->
<g id="edge53" class="edge">
<title>Node38&#45;&gt;Node44</title>
<path fill="none" stroke="midnightblue" d="M1601.32,-235.32C1614.73,-226.9 1635.32,-213.97 1651.09,-204.07"/>
<polygon fill="midnightblue" stroke="midnightblue" points="1653.11,-206.94 1659.72,-198.65 1649.39,-201.01 1653.11,-206.94"/>
</g>
<!-- Node45 -->
<g id="node45" class="node">
<title>Node45</title>
<g id="a_node45"><a xlink:title=" ">
<polygon fill="none" stroke="#bfbfbf" points="1727,-179.5 1727,-198.5 1776,-198.5 1776,-179.5 1727,-179.5"/>
<text text-anchor="middle" x="1751.5" y="-186.5" font-family="Helvetica,sans-Serif" font-size="10.00">stdint.h</text>
</a>
</g>
</g>
<!-- Node38&#45;&gt;Node45 -->
<g id="edge54" class="edge">
<title>Node38&#45;&gt;Node45</title>
<path fill="none" stroke="midnightblue" d="M1613.49,-235.44C1641.6,-226.19 1686.55,-211.39 1717.47,-201.21"/>
<polygon fill="midnightblue" stroke="midnightblue" points="1718.57,-204.53 1726.97,-198.08 1716.38,-197.88 1718.57,-204.53"/>
</g>
<!-- Node46 -->
<g id="node46" class="node">
<title>Node46</title>
<g id="a_node46"><a xlink:title=" ">
<polygon fill="none" stroke="#bfbfbf" points="1794.5,-179.5 1794.5,-198.5 1858.5,-198.5 1858.5,-179.5 1794.5,-179.5"/>
<text text-anchor="middle" x="1826.5" y="-186.5" font-family="Helvetica,sans-Serif" font-size="10.00">sys/epoll.h</text>
</a>
</g>
</g>
<!-- Node38&#45;&gt;Node46 -->
<g id="edge55" class="edge">
<title>Node38&#45;&gt;Node46</title>
<path fill="none" stroke="midnightblue" d="M1625.37,-235.44C1668.6,-225.68 1739.12,-209.74 1784.14,-199.57"/>
<polygon fill="midnightblue" stroke="midnightblue" points="1785.19,-202.92 1794.17,-197.3 1783.65,-196.09 1785.19,-202.92"/>
</g>
<!-- Node47 -->
<g id="node47" class="node">
<title>Node47</title>
<g id="a_node47"><a xlink:title=" ">
<polygon fill="none" stroke="#bfbfbf" points="1876.5,-179.5 1876.5,-198.5 1938.5,-198.5 1938.5,-179.5 1876.5,-179.5"/>
<text text-anchor="middle" x="1907.5" y="-186.5" font-family="Helvetica,sans-Serif" font-size="10.00">arpa/inet.h</text>
</a>
</g>
</g>
<!-- Node38&#45;&gt;Node47 -->
<g id="edge56" class="edge">
<title>Node38&#45;&gt;Node47</title>
<path fill="none" stroke="midnightblue" d="M1647.23,-235.5C1701.82,-227.48 1785.03,-214.63 1866.21,-199.16"/>
<polygon fill="midnightblue" stroke="midnightblue" points="1866.94,-202.58 1876.1,-197.26 1865.61,-195.71 1866.94,-202.58"/>
</g>
<!-- Node48 -->
<g id="node48" class="node">
<title>Node48</title>
<g id="a_node48"><a xlink:title=" ">
<polygon fill="none" stroke="#bfbfbf" points="1957,-179.5 1957,-198.5 2030,-198.5 2030,-179.5 1957,-179.5"/>
<text text-anchor="middle" x="1993.5" y="-186.5" font-family="Helvetica,sans-Serif" font-size="10.00">sys/socket.h</text>
</a>
</g>
</g>
<!-- Node38&#45;&gt;Node48 -->
<g id="edge57" class="edge">
<title>Node38&#45;&gt;Node48</title>
<path fill="none" stroke="midnightblue" d="M1662.52,-236.15C1733.21,-228.4 1842.31,-215.55 1946.79,-199.01"/>
<polygon fill="midnightblue" stroke="midnightblue" points="1947.56,-202.43 1956.88,-197.4 1946.46,-195.52 1947.56,-202.43"/>
</g>
<!-- Node49 -->
<g id="node49" class="node">
<title>Node49</title>
<g id="a_node49"><a xlink:title=" ">
<polygon fill="none" stroke="#bfbfbf" points="2048.5,-179.5 2048.5,-198.5 2116.5,-198.5 2116.5,-179.5 2048.5,-179.5"/>
<text text-anchor="middle" x="2082.5" y="-186.5" font-family="Helvetica,sans-Serif" font-size="10.00">sys/types.h</text>
</a>
</g>
</g>
<!-- Node38&#45;&gt;Node49 -->
<g id="edge58" class="edge">
<title>Node38&#45;&gt;Node49</title>
<path fill="none" stroke="midnightblue" d="M1662.59,-239C1750.42,-232.59 1900.35,-219.92 2038.38,-199.02"/>
<polygon fill="midnightblue" stroke="midnightblue" points="2038.94,-202.48 2048.29,-197.5 2037.88,-195.56 2038.94,-202.48"/>
</g>
<!-- Node50 -->
<g id="node50" class="node">
<title>Node50</title>
<g id="a_node50"><a xlink:title=" ">
<polygon fill="none" stroke="#bfbfbf" points="2135,-179.5 2135,-198.5 2186,-198.5 2186,-179.5 2135,-179.5"/>
<text text-anchor="middle" x="2160.5" y="-186.5" font-family="Helvetica,sans-Serif" font-size="10.00">unistd.h</text>
</a>
</g>
</g>
<!-- Node38&#45;&gt;Node50 -->
<g id="edge59" class="edge">
<title>Node38&#45;&gt;Node50</title>
<path fill="none" stroke="midnightblue" d="M1662.85,-241.69C1765.37,-237.67 1954.55,-227.08 2125.08,-198.76"/>
<polygon fill="midnightblue" stroke="midnightblue" points="2125.71,-202.2 2134.99,-197.09 2124.55,-195.3 2125.71,-202.2"/>
</g>
<!-- Node52&#45;&gt;Node2 -->
<g id="edge62" class="edge">
<title>Node52&#45;&gt;Node2</title>
<path fill="none" stroke="midnightblue" d="M1538.64,-411.77C1758.12,-408.86 2391.15,-383.04 2195.5,-179 2156.45,-138.27 1326.72,-130.32 1069.1,-128.83"/>
<polygon fill="midnightblue" stroke="midnightblue" points="1069.11,-125.33 1059.09,-128.77 1069.07,-132.33 1069.11,-125.33"/>
</g>
</g>
</svg>
