<?xml version="1.0" encoding="UTF-8" standalone="no"?>
<!DOCTYPE svg PUBLIC "-//W3C//DTD SVG 1.1//EN"
 "http://www.w3.org/Graphics/SVG/1.1/DTD/svg11.dtd">
<!-- Generated by graphviz version 3.0.0 (20220226.1711)
 -->
<!-- Title: RoleEntities.hpp Pages: 1 -->
<svg width="2068pt" height="733pt"
 viewBox="0.00 0.00 2068.00 733.00" xmlns="http://www.w3.org/2000/svg" xmlns:xlink="http://www.w3.org/1999/xlink">
<g id="graph0" class="graph" transform="scale(1 1) rotate(0) translate(4 729)">
<title>RoleEntities.hpp</title>
<!-- Node1 -->
<g id="node1" class="node">
<title>Node1</title>
<g id="a_node1"><a xlink:title=" ">
<polygon fill="#bfbfbf" stroke="black" points="1925,-705.5 1925,-724.5 2013,-724.5 2013,-705.5 1925,-705.5"/>
<text text-anchor="middle" x="1969" y="-712.5" font-family="Helvetica,sans-Serif" font-size="10.00">RoleEntities.hpp</text>
</a>
</g>
</g>
<!-- Node2 -->
<g id="node2" class="node">
<title>Node2</title>
<g id="a_node2"><a xlink:href="../../d4/deb/a00710.html" target="_top" xlink:title=" ">
<polygon fill="none" stroke="black" points="823.5,-112.5 823.5,-142.5 954.5,-142.5 954.5,-112.5 823.5,-112.5"/>
<text text-anchor="start" x="831.5" y="-130.5" font-family="Helvetica,sans-Serif" font-size="10.00">discordcoreapi/Foundation</text>
<text text-anchor="middle" x="889" y="-119.5" font-family="Helvetica,sans-Serif" font-size="10.00">Entities.hpp</text>
</a>
</g>
</g>
<!-- Node1&#45;&gt;Node2 -->
<g id="edge1" class="edge">
<title>Node1&#45;&gt;Node2</title>
<path fill="none" stroke="midnightblue" d="M1982.04,-705.39C2007.2,-687.63 2060,-644.26 2060,-593 2060,-593 2060,-593 2060,-244 2060,-199.55 2025.33,-195.35 1984,-179 1889.95,-141.78 1196.98,-131.55 964.67,-129.15"/>
<polygon fill="midnightblue" stroke="midnightblue" points="964.65,-125.65 954.62,-129.05 964.58,-132.65 964.65,-125.65"/>
</g>
<!-- Node28 -->
<g id="node28" class="node">
<title>Node28</title>
<g id="a_node28"><a xlink:href="../../d2/d94/a00716.html" target="_top" xlink:title=" ">
<polygon fill="none" stroke="black" points="1414,-638.5 1414,-668.5 1554,-668.5 1554,-638.5 1414,-638.5"/>
<text text-anchor="start" x="1422" y="-656.5" font-family="Helvetica,sans-Serif" font-size="10.00">discordcoreapi/GuildMember</text>
<text text-anchor="middle" x="1484" y="-645.5" font-family="Helvetica,sans-Serif" font-size="10.00">Entities.hpp</text>
</a>
</g>
</g>
<!-- Node1&#45;&gt;Node28 -->
<g id="edge27" class="edge">
<title>Node1&#45;&gt;Node28</title>
<path fill="none" stroke="midnightblue" d="M1924.67,-708.56C1842.98,-698.54 1667.59,-677.02 1564.41,-664.37"/>
<polygon fill="midnightblue" stroke="midnightblue" points="1564.7,-660.87 1554.35,-663.13 1563.85,-667.82 1564.7,-660.87"/>
</g>
<!-- Node38 -->
<g id="node38" class="node">
<title>Node38</title>
<g id="a_node38"><a xlink:href="../../db/d7c/a00722.html" target="_top" xlink:title=" ">
<polygon fill="none" stroke="black" points="1906.5,-291.5 1906.5,-310.5 2031.5,-310.5 2031.5,-291.5 1906.5,-291.5"/>
<text text-anchor="middle" x="1969" y="-298.5" font-family="Helvetica,sans-Serif" font-size="10.00">discordcoreapi/Https.hpp</text>
</a>
</g>
</g>
<!-- Node1&#45;&gt;Node38 -->
<g id="edge68" class="edge">
<title>Node1&#45;&gt;Node38</title>
<path fill="none" stroke="midnightblue" d="M1969,-705.49C1969,-685.74 1969,-635.22 1969,-593 1969,-593 1969,-593 1969,-412 1969,-379.95 1969,-342.64 1969,-320.75"/>
<polygon fill="midnightblue" stroke="midnightblue" points="1972.5,-320.56 1969,-310.56 1965.5,-320.56 1972.5,-320.56"/>
</g>
<!-- Node3 -->
<g id="node3" class="node">
<title>Node3</title>
<g id="a_node3"><a xlink:href="../../d5/dae/a00767.html" target="_top" xlink:title=" ">
<polygon fill="none" stroke="black" points="904,-56.5 904,-75.5 1038,-75.5 1038,-56.5 904,-56.5"/>
<text text-anchor="middle" x="971" y="-63.5" font-family="Helvetica,sans-Serif" font-size="10.00">discordcoreapi/Utilities.hpp</text>
</a>
</g>
</g>
<!-- Node2&#45;&gt;Node3 -->
<g id="edge2" class="edge">
<title>Node2&#45;&gt;Node3</title>
<path fill="none" stroke="midnightblue" d="M908.43,-112.4C921.21,-103.13 937.89,-91.03 950.81,-81.65"/>
<polygon fill="midnightblue" stroke="midnightblue" points="953.03,-84.36 959.07,-75.66 948.92,-78.7 953.03,-84.36"/>
</g>
<!-- Node4 -->
<g id="node4" class="node">
<title>Node4</title>
<g id="a_node4"><a xlink:title=" ">
<polygon fill="none" stroke="#bfbfbf" points="1568.5,-0.5 1568.5,-19.5 1625.5,-19.5 1625.5,-0.5 1568.5,-0.5"/>
<text text-anchor="middle" x="1597" y="-7.5" font-family="Helvetica,sans-Serif" font-size="10.00">pthread.h</text>
</a>
</g>
</g>
<!-- Node3&#45;&gt;Node4 -->
<g id="edge3" class="edge">
<title>Node3&#45;&gt;Node4</title>
<path fill="none" stroke="midnightblue" d="M1038.41,-63.26C1146.24,-59.73 1364.24,-49.5 1558.36,-19.83"/>
<polygon fill="midnightblue" stroke="midnightblue" points="1559.11,-23.25 1568.46,-18.26 1558.04,-16.34 1559.11,-23.25"/>
</g>
<!-- Node5 -->
<g id="node5" class="node">
<title>Node5</title>
<g id="a_node5"><a xlink:title=" ">
<polygon fill="none" stroke="#bfbfbf" points="1644,-0.5 1644,-19.5 1706,-19.5 1706,-0.5 1644,-0.5"/>
<text text-anchor="middle" x="1675" y="-7.5" font-family="Helvetica,sans-Serif" font-size="10.00">sys/time.h</text>
</a>
</g>
</g>
<!-- Node3&#45;&gt;Node5 -->
<g id="edge4" class="edge">
<title>Node3&#45;&gt;Node5</title>
<path fill="none" stroke="midnightblue" d="M1038.16,-63.73C1156.51,-60.77 1410.01,-51.21 1633.79,-19.78"/>
<polygon fill="midnightblue" stroke="midnightblue" points="1634.34,-23.23 1643.75,-18.36 1633.35,-16.3 1634.34,-23.23"/>
</g>
<!-- Node6 -->
<g id="node6" class="node">
<title>Node6</title>
<g id="a_node6"><a xlink:title=" ">
<polygon fill="none" stroke="#bfbfbf" points="0,-0.5 0,-19.5 44,-19.5 44,-0.5 0,-0.5"/>
<text text-anchor="middle" x="22" y="-7.5" font-family="Helvetica,sans-Serif" font-size="10.00">time.h</text>
</a>
</g>
</g>
<!-- Node3&#45;&gt;Node6 -->
<g id="edge5" class="edge">
<title>Node3&#45;&gt;Node6</title>
<path fill="none" stroke="midnightblue" d="M903.87,-63.74C724.4,-60.06 235.37,-47.86 54.15,-19.73"/>
<polygon fill="midnightblue" stroke="midnightblue" points="54.64,-16.27 44.21,-18.12 53.52,-23.18 54.64,-16.27"/>
</g>
<!-- Node7 -->
<g id="node7" class="node">
<title>Node7</title>
<g id="a_node7"><a xlink:title=" ">
<polygon fill="none" stroke="#bfbfbf" points="62.5,-0.5 62.5,-19.5 103.5,-19.5 103.5,-0.5 62.5,-0.5"/>
<text text-anchor="middle" x="83" y="-7.5" font-family="Helvetica,sans-Serif" font-size="10.00">ctime</text>
</a>
</g>
</g>
<!-- Node3&#45;&gt;Node7 -->
<g id="edge6" class="edge">
<title>Node3&#45;&gt;Node7</title>
<path fill="none" stroke="midnightblue" d="M903.78,-63.64C732.56,-59.82 282.22,-47.58 113.72,-19.84"/>
<polygon fill="midnightblue" stroke="midnightblue" points="114.21,-16.37 103.76,-18.12 113.02,-23.27 114.21,-16.37"/>
</g>
<!-- Node8 -->
<g id="node8" class="node">
<title>Node8</title>
<g id="a_node8"><a xlink:title=" ">
<polygon fill="none" stroke="#bfbfbf" points="121.5,-0.5 121.5,-19.5 214.5,-19.5 214.5,-0.5 121.5,-0.5"/>
<text text-anchor="middle" x="168" y="-7.5" font-family="Helvetica,sans-Serif" font-size="10.00">condition_variable</text>
</a>
</g>
</g>
<!-- Node3&#45;&gt;Node8 -->
<g id="edge7" class="edge">
<title>Node3&#45;&gt;Node8</title>
<path fill="none" stroke="midnightblue" d="M903.85,-63.19C774.52,-59.21 481.74,-47.84 224.97,-19.99"/>
<polygon fill="midnightblue" stroke="midnightblue" points="225.03,-16.47 214.7,-18.86 224.26,-23.43 225.03,-16.47"/>
</g>
<!-- Node9 -->
<g id="node9" class="node">
<title>Node9</title>
<g id="a_node9"><a xlink:title=" ">
<polygon fill="none" stroke="#bfbfbf" points="233,-0.5 233,-19.5 331,-19.5 331,-0.5 233,-0.5"/>
<text text-anchor="middle" x="282" y="-7.5" font-family="Helvetica,sans-Serif" font-size="10.00">nlohmann/json.hpp</text>
</a>
</g>
</g>
<!-- Node3&#45;&gt;Node9 -->
<g id="edge8" class="edge">
<title>Node3&#45;&gt;Node9</title>
<path fill="none" stroke="midnightblue" d="M903.59,-62.03C789.81,-56.61 552.2,-43.55 341.04,-20.02"/>
<polygon fill="midnightblue" stroke="midnightblue" points="341.34,-16.54 331.01,-18.9 340.56,-23.49 341.34,-16.54"/>
</g>
<!-- Node10 -->
<g id="node10" class="node">
<title>Node10</title>
<g id="a_node10"><a xlink:title=" ">
<polygon fill="none" stroke="#bfbfbf" points="349.5,-0.5 349.5,-19.5 434.5,-19.5 434.5,-0.5 349.5,-0.5"/>
<text text-anchor="middle" x="392" y="-7.5" font-family="Helvetica,sans-Serif" font-size="10.00">source_location</text>
</a>
</g>
</g>
<!-- Node3&#45;&gt;Node10 -->
<g id="edge9" class="edge">
<title>Node3&#45;&gt;Node10</title>
<path fill="none" stroke="midnightblue" d="M903.7,-61.2C805.07,-55.21 615.29,-42.05 444.46,-20.09"/>
<polygon fill="midnightblue" stroke="midnightblue" points="444.9,-16.62 434.53,-18.8 444,-23.56 444.9,-16.62"/>
</g>
<!-- Node11 -->
<g id="node11" class="node">
<title>Node11</title>
<g id="a_node11"><a xlink:title=" ">
<polygon fill="none" stroke="#bfbfbf" points="452.5,-0.5 452.5,-19.5 535.5,-19.5 535.5,-0.5 452.5,-0.5"/>
<text text-anchor="middle" x="494" y="-7.5" font-family="Helvetica,sans-Serif" font-size="10.00">unordered_map</text>
</a>
</g>
</g>
<!-- Node3&#45;&gt;Node11 -->
<g id="edge10" class="edge">
<title>Node3&#45;&gt;Node11</title>
<path fill="none" stroke="midnightblue" d="M903.68,-59.34C821.62,-52.12 678.5,-38.48 545.66,-20"/>
<polygon fill="midnightblue" stroke="midnightblue" points="546.1,-16.53 535.71,-18.6 545.13,-23.46 546.1,-16.53"/>
</g>
<!-- Node12 -->
<g id="node12" class="node">
<title>Node12</title>
<g id="a_node12"><a xlink:title=" ">
<polygon fill="none" stroke="#bfbfbf" points="554,-0.5 554,-19.5 632,-19.5 632,-0.5 554,-0.5"/>
<text text-anchor="middle" x="593" y="-7.5" font-family="Helvetica,sans-Serif" font-size="10.00">shared_mutex</text>
</a>
</g>
</g>
<!-- Node3&#45;&gt;Node12 -->
<g id="edge11" class="edge">
<title>Node3&#45;&gt;Node12</title>
<path fill="none" stroke="midnightblue" d="M903.86,-56.84C839.29,-48.77 738.71,-35.6 641.96,-20.09"/>
<polygon fill="midnightblue" stroke="midnightblue" points="642.43,-16.62 632,-18.48 641.32,-23.53 642.43,-16.62"/>
</g>
<!-- Node13 -->
<g id="node13" class="node">
<title>Node13</title>
<g id="a_node13"><a xlink:title=" ">
<polygon fill="none" stroke="#bfbfbf" points="650,-0.5 650,-19.5 708,-19.5 708,-0.5 650,-0.5"/>
<text text-anchor="middle" x="679" y="-7.5" font-family="Helvetica,sans-Serif" font-size="10.00">functional</text>
</a>
</g>
</g>
<!-- Node3&#45;&gt;Node13 -->
<g id="edge12" class="edge">
<title>Node3&#45;&gt;Node13</title>
<path fill="none" stroke="midnightblue" d="M917.8,-56.49C868.51,-48.39 792.91,-35.46 718.08,-20.13"/>
<polygon fill="midnightblue" stroke="midnightblue" points="718.51,-16.64 708.01,-18.05 717.09,-23.5 718.51,-16.64"/>
</g>
<!-- Node14 -->
<g id="node14" class="node">
<title>Node14</title>
<g id="a_node14"><a xlink:title=" ">
<polygon fill="none" stroke="#bfbfbf" points="726,-0.5 726,-19.5 782,-19.5 782,-0.5 726,-0.5"/>
<text text-anchor="middle" x="754" y="-7.5" font-family="Helvetica,sans-Serif" font-size="10.00">coroutine</text>
</a>
</g>
</g>
<!-- Node3&#45;&gt;Node14 -->
<g id="edge13" class="edge">
<title>Node3&#45;&gt;Node14</title>
<path fill="none" stroke="midnightblue" d="M936.62,-56.44C897.17,-46.63 832.7,-30.59 791.86,-20.42"/>
<polygon fill="midnightblue" stroke="midnightblue" points="792.56,-16.99 782.01,-17.97 790.87,-23.78 792.56,-16.99"/>
</g>
<!-- Node15 -->
<g id="node15" class="node">
<title>Node15</title>
<g id="a_node15"><a xlink:title=" ">
<polygon fill="none" stroke="#bfbfbf" points="1907.5,-0.5 1907.5,-19.5 1972.5,-19.5 1972.5,-0.5 1907.5,-0.5"/>
<text text-anchor="middle" x="1940" y="-7.5" font-family="Helvetica,sans-Serif" font-size="10.00">semaphore</text>
</a>
</g>
</g>
<!-- Node3&#45;&gt;Node15 -->
<g id="edge14" class="edge">
<title>Node3&#45;&gt;Node15</title>
<path fill="none" stroke="midnightblue" d="M1038.37,-61.25C1224.67,-50.86 1743.16,-21.97 1896.66,-13.42"/>
<polygon fill="midnightblue" stroke="midnightblue" points="1897.28,-16.89 1907.07,-12.84 1896.89,-9.9 1897.28,-16.89"/>
</g>
<!-- Node16 -->
<g id="node16" class="node">
<title>Node16</title>
<g id="a_node16"><a xlink:title=" ">
<polygon fill="none" stroke="#bfbfbf" points="800,-0.5 800,-19.5 856,-19.5 856,-0.5 800,-0.5"/>
<text text-anchor="middle" x="828" y="-7.5" font-family="Helvetica,sans-Serif" font-size="10.00">concepts</text>
</a>
</g>
</g>
<!-- Node3&#45;&gt;Node16 -->
<g id="edge15" class="edge">
<title>Node3&#45;&gt;Node16</title>
<path fill="none" stroke="midnightblue" d="M948.34,-56.44C924.6,-47.48 887.09,-33.31 860.26,-23.18"/>
<polygon fill="midnightblue" stroke="midnightblue" points="861.14,-19.77 850.55,-19.52 858.67,-26.32 861.14,-19.77"/>
</g>
<!-- Node17 -->
<g id="node17" class="node">
<title>Node17</title>
<g id="a_node17"><a xlink:title=" ">
<polygon fill="none" stroke="#bfbfbf" points="874,-0.5 874,-19.5 928,-19.5 928,-0.5 874,-0.5"/>
<text text-anchor="middle" x="901" y="-7.5" font-family="Helvetica,sans-Serif" font-size="10.00">iostream</text>
</a>
</g>
</g>
<!-- Node3&#45;&gt;Node17 -->
<g id="edge16" class="edge">
<title>Node3&#45;&gt;Node17</title>
<path fill="none" stroke="midnightblue" d="M959.75,-56.32C949.2,-48.18 933.2,-35.84 920.56,-26.09"/>
<polygon fill="midnightblue" stroke="midnightblue" points="922.51,-23.17 912.45,-19.83 918.23,-28.71 922.51,-23.17"/>
</g>
<!-- Node18 -->
<g id="node18" class="node">
<title>Node18</title>
<g id="a_node18"><a xlink:title=" ">
<polygon fill="none" stroke="#bfbfbf" points="946.5,-0.5 946.5,-19.5 995.5,-19.5 995.5,-0.5 946.5,-0.5"/>
<text text-anchor="middle" x="971" y="-7.5" font-family="Helvetica,sans-Serif" font-size="10.00">fstream</text>
</a>
</g>
</g>
<!-- Node3&#45;&gt;Node18 -->
<g id="edge17" class="edge">
<title>Node3&#45;&gt;Node18</title>
<path fill="none" stroke="midnightblue" d="M971,-56.08C971,-49.01 971,-38.86 971,-29.99"/>
<polygon fill="midnightblue" stroke="midnightblue" points="974.5,-29.75 971,-19.75 967.5,-29.75 974.5,-29.75"/>
</g>
<!-- Node19 -->
<g id="node19" class="node">
<title>Node19</title>
<g id="a_node19"><a xlink:title=" ">
<polygon fill="none" stroke="#bfbfbf" points="1013.5,-0.5 1013.5,-19.5 1054.5,-19.5 1054.5,-0.5 1013.5,-0.5"/>
<text text-anchor="middle" x="1034" y="-7.5" font-family="Helvetica,sans-Serif" font-size="10.00">bitset</text>
</a>
</g>
</g>
<!-- Node3&#45;&gt;Node19 -->
<g id="edge18" class="edge">
<title>Node3&#45;&gt;Node19</title>
<path fill="none" stroke="midnightblue" d="M981.12,-56.32C990.53,-48.26 1004.74,-36.08 1016.07,-26.37"/>
<polygon fill="midnightblue" stroke="midnightblue" points="1018.38,-29 1023.69,-19.83 1013.82,-23.68 1018.38,-29"/>
</g>
<!-- Node20 -->
<g id="node20" class="node">
<title>Node20</title>
<g id="a_node20"><a xlink:title=" ">
<polygon fill="none" stroke="#bfbfbf" points="1073,-0.5 1073,-19.5 1125,-19.5 1125,-0.5 1073,-0.5"/>
<text text-anchor="middle" x="1099" y="-7.5" font-family="Helvetica,sans-Serif" font-size="10.00">memory</text>
</a>
</g>
</g>
<!-- Node3&#45;&gt;Node20 -->
<g id="edge19" class="edge">
<title>Node3&#45;&gt;Node20</title>
<path fill="none" stroke="midnightblue" d="M991.28,-56.44C1012.35,-47.56 1045.52,-33.56 1069.49,-23.45"/>
<polygon fill="midnightblue" stroke="midnightblue" points="1070.96,-26.63 1078.81,-19.52 1068.24,-20.18 1070.96,-26.63"/>
</g>
<!-- Node21 -->
<g id="node21" class="node">
<title>Node21</title>
<g id="a_node21"><a xlink:title=" ">
<polygon fill="none" stroke="#bfbfbf" points="1143.5,-0.5 1143.5,-19.5 1192.5,-19.5 1192.5,-0.5 1143.5,-0.5"/>
<text text-anchor="middle" x="1168" y="-7.5" font-family="Helvetica,sans-Serif" font-size="10.00">random</text>
</a>
</g>
</g>
<!-- Node3&#45;&gt;Node21 -->
<g id="edge20" class="edge">
<title>Node3&#45;&gt;Node21</title>
<path fill="none" stroke="midnightblue" d="M1002.22,-56.44C1038.02,-46.63 1096.53,-30.59 1133.61,-20.43"/>
<polygon fill="midnightblue" stroke="midnightblue" points="1134.75,-23.74 1143.47,-17.73 1132.9,-16.99 1134.75,-23.74"/>
</g>
<!-- Node22 -->
<g id="node22" class="node">
<title>Node22</title>
<g id="a_node22"><a xlink:title=" ">
<polygon fill="none" stroke="#bfbfbf" points="1210.5,-0.5 1210.5,-19.5 1251.5,-19.5 1251.5,-0.5 1210.5,-0.5"/>
<text text-anchor="middle" x="1231" y="-7.5" font-family="Helvetica,sans-Serif" font-size="10.00">string</text>
</a>
</g>
</g>
<!-- Node3&#45;&gt;Node22 -->
<g id="edge21" class="edge">
<title>Node3&#45;&gt;Node22</title>
<path fill="none" stroke="midnightblue" d="M1022.47,-56.42C1067.1,-48.65 1133.58,-36.27 1200.54,-19.91"/>
<polygon fill="midnightblue" stroke="midnightblue" points="1201.55,-23.26 1210.42,-17.47 1199.87,-16.47 1201.55,-23.26"/>
</g>
<!-- Node23 -->
<g id="node23" class="node">
<title>Node23</title>
<g id="a_node23"><a xlink:title=" ">
<polygon fill="none" stroke="#bfbfbf" points="1270,-0.5 1270,-19.5 1312,-19.5 1312,-0.5 1270,-0.5"/>
<text text-anchor="middle" x="1291" y="-7.5" font-family="Helvetica,sans-Serif" font-size="10.00">vector</text>
</a>
</g>
</g>
<!-- Node3&#45;&gt;Node23 -->
<g id="edge22" class="edge">
<title>Node3&#45;&gt;Node23</title>
<path fill="none" stroke="midnightblue" d="M1038.03,-57.04C1096.9,-49.46 1184.65,-36.73 1260,-20 1260.1,-19.98 1260.2,-19.96 1260.3,-19.93"/>
<polygon fill="midnightblue" stroke="midnightblue" points="1260.9,-23.39 1269.75,-17.56 1259.2,-16.6 1260.9,-23.39"/>
</g>
<!-- Node24 -->
<g id="node24" class="node">
<title>Node24</title>
<g id="a_node24"><a xlink:title=" ">
<polygon fill="none" stroke="#bfbfbf" points="1330,-0.5 1330,-19.5 1374,-19.5 1374,-0.5 1330,-0.5"/>
<text text-anchor="middle" x="1352" y="-7.5" font-family="Helvetica,sans-Serif" font-size="10.00">thread</text>
</a>
</g>
</g>
<!-- Node3&#45;&gt;Node24 -->
<g id="edge23" class="edge">
<title>Node3&#45;&gt;Node24</title>
<path fill="none" stroke="midnightblue" d="M1038.28,-59.46C1106.92,-53.12 1216.57,-41.04 1319.79,-19.97"/>
<polygon fill="midnightblue" stroke="midnightblue" points="1320.67,-23.36 1329.75,-17.91 1319.25,-16.51 1320.67,-23.36"/>
</g>
<!-- Node25 -->
<g id="node25" class="node">
<title>Node25</title>
<g id="a_node25"><a xlink:title=" ">
<polygon fill="none" stroke="#bfbfbf" points="1392,-0.5 1392,-19.5 1436,-19.5 1436,-0.5 1392,-0.5"/>
<text text-anchor="middle" x="1414" y="-7.5" font-family="Helvetica,sans-Serif" font-size="10.00">mutex</text>
</a>
</g>
</g>
<!-- Node3&#45;&gt;Node25 -->
<g id="edge24" class="edge">
<title>Node3&#45;&gt;Node25</title>
<path fill="none" stroke="midnightblue" d="M1038.26,-61.25C1118.2,-56 1255.64,-44.42 1381.92,-19.9"/>
<polygon fill="midnightblue" stroke="midnightblue" points="1382.63,-23.33 1391.76,-17.96 1381.27,-16.46 1382.63,-23.33"/>
</g>
<!-- Node26 -->
<g id="node26" class="node">
<title>Node26</title>
<g id="a_node26"><a xlink:title=" ">
<polygon fill="none" stroke="#bfbfbf" points="1454.5,-0.5 1454.5,-19.5 1497.5,-19.5 1497.5,-0.5 1454.5,-0.5"/>
<text text-anchor="middle" x="1476" y="-7.5" font-family="Helvetica,sans-Serif" font-size="10.00">queue</text>
</a>
</g>
</g>
<!-- Node3&#45;&gt;Node26 -->
<g id="edge25" class="edge">
<title>Node3&#45;&gt;Node26</title>
<path fill="none" stroke="midnightblue" d="M1038.28,-62.59C1128.69,-58.47 1294.38,-47.82 1444.58,-19.7"/>
<polygon fill="midnightblue" stroke="midnightblue" points="1445.28,-23.13 1454.45,-17.82 1443.97,-16.25 1445.28,-23.13"/>
</g>
<!-- Node27 -->
<g id="node27" class="node">
<title>Node27</title>
<g id="a_node27"><a xlink:title=" ">
<polygon fill="none" stroke="#bfbfbf" points="1515.5,-0.5 1515.5,-19.5 1550.5,-19.5 1550.5,-0.5 1515.5,-0.5"/>
<text text-anchor="middle" x="1533" y="-7.5" font-family="Helvetica,sans-Serif" font-size="10.00">map</text>
</a>
</g>
</g>
<!-- Node3&#45;&gt;Node27 -->
<g id="edge26" class="edge">
<title>Node3&#45;&gt;Node27</title>
<path fill="none" stroke="midnightblue" d="M1038.03,-64.45C1138.14,-62.52 1332.48,-54.44 1505.4,-19.58"/>
<polygon fill="midnightblue" stroke="midnightblue" points="1506.35,-22.96 1515.45,-17.52 1504.95,-16.1 1506.35,-22.96"/>
</g>
<!-- Node28&#45;&gt;Node2 -->
<g id="edge28" class="edge">
<title>Node28&#45;&gt;Node2</title>
<path fill="none" stroke="midnightblue" d="M1413.9,-653.01C1153.12,-654 254,-648.91 254,-531.5 254,-531.5 254,-531.5 254,-244 254,-210.54 263.7,-196.86 292,-179 335.13,-151.78 662.55,-136.63 813.37,-131.03"/>
<polygon fill="midnightblue" stroke="midnightblue" points="813.61,-134.52 823.48,-130.66 813.36,-127.53 813.61,-134.52"/>
</g>
<!-- Node29 -->
<g id="node29" class="node">
<title>Node29</title>
<g id="a_node29"><a xlink:href="../../d3/d2c/a00764.html" target="_top" xlink:title=" ">
<polygon fill="none" stroke="black" points="1018.5,-582.5 1018.5,-601.5 1173.5,-601.5 1173.5,-582.5 1018.5,-582.5"/>
<text text-anchor="middle" x="1096" y="-589.5" font-family="Helvetica,sans-Serif" font-size="10.00">discordcoreapi/UserEntities.hpp</text>
</a>
</g>
</g>
<!-- Node28&#45;&gt;Node29 -->
<g id="edge29" class="edge">
<title>Node28&#45;&gt;Node29</title>
<path fill="none" stroke="midnightblue" d="M1413.74,-641.72C1342.03,-630.73 1231.62,-613.8 1161.64,-603.07"/>
<polygon fill="midnightblue" stroke="midnightblue" points="1162.03,-599.58 1151.61,-601.53 1160.97,-606.5 1162.03,-599.58"/>
</g>
<!-- Node28&#45;&gt;Node38 -->
<g id="edge67" class="edge">
<title>Node28&#45;&gt;Node38</title>
<path fill="none" stroke="midnightblue" d="M1554.05,-647.7C1677.99,-637.27 1923,-607.1 1923,-531.5 1923,-531.5 1923,-531.5 1923,-412 1923,-376.82 1943.28,-339.86 1956.91,-319"/>
<polygon fill="midnightblue" stroke="midnightblue" points="1959.88,-320.85 1962.6,-310.61 1954.09,-316.92 1959.88,-320.85"/>
</g>
<!-- Node29&#45;&gt;Node2 -->
<g id="edge30" class="edge">
<title>Node29&#45;&gt;Node2</title>
<path fill="none" stroke="midnightblue" d="M1018.18,-587.39C816.41,-576.99 292,-542.96 292,-470 292,-470 292,-470 292,-244 292,-213.9 287.73,-198.08 311,-179 349.01,-147.83 665.08,-134.84 813.09,-130.42"/>
<polygon fill="midnightblue" stroke="midnightblue" points="813.56,-133.91 823.45,-130.12 813.35,-126.91 813.56,-133.91"/>
</g>
<!-- Node30 -->
<g id="node30" class="node">
<title>Node30</title>
<g id="a_node30"><a xlink:href="../../d9/dd4/a00776.html" target="_top" xlink:title=" ">
<polygon fill="none" stroke="black" points="1029,-515.5 1029,-545.5 1163,-545.5 1163,-515.5 1029,-515.5"/>
<text text-anchor="start" x="1037" y="-533.5" font-family="Helvetica,sans-Serif" font-size="10.00">discordcoreapi/WebSocket</text>
<text text-anchor="middle" x="1096" y="-522.5" font-family="Helvetica,sans-Serif" font-size="10.00">Entities.hpp</text>
</a>
</g>
</g>
<!-- Node29&#45;&gt;Node30 -->
<g id="edge31" class="edge">
<title>Node29&#45;&gt;Node30</title>
<path fill="none" stroke="midnightblue" d="M1096,-582.48C1096,-575.47 1096,-565.19 1096,-555.7"/>
<polygon fill="midnightblue" stroke="midnightblue" points="1099.5,-555.52 1096,-545.52 1092.5,-555.52 1099.5,-555.52"/>
</g>
<!-- Node30&#45;&gt;Node2 -->
<g id="edge64" class="edge">
<title>Node30&#45;&gt;Node2</title>
<path fill="none" stroke="midnightblue" d="M1163.01,-526.62C1352.41,-517.58 1878,-486.01 1878,-414 1878,-414 1878,-414 1878,-356 1878,-325.9 1883.72,-318.01 1897,-291 1922.59,-238.95 2004.04,-220.97 1964,-179 1929.57,-142.91 1204.37,-131.89 964.95,-129.23"/>
<polygon fill="midnightblue" stroke="midnightblue" points="964.63,-125.72 954.6,-129.11 964.56,-132.72 964.63,-125.72"/>
</g>
<!-- Node31 -->
<g id="node31" class="node">
<title>Node31</title>
<g id="a_node31"><a xlink:href="../../d4/d9b/a00680.html" target="_top" xlink:title=" ">
<polygon fill="none" stroke="black" points="537,-235.5 537,-254.5 699,-254.5 699,-235.5 537,-235.5"/>
<text text-anchor="middle" x="618" y="-242.5" font-family="Helvetica,sans-Serif" font-size="10.00">discordcoreapi/AudioDecoder.hpp</text>
</a>
</g>
</g>
<!-- Node30&#45;&gt;Node31 -->
<g id="edge32" class="edge">
<title>Node30&#45;&gt;Node31</title>
<path fill="none" stroke="midnightblue" d="M1028.8,-525.22C941.25,-518.72 793.71,-504.36 746,-479 711.55,-460.69 687,-453.02 687,-414 687,-414 687,-414 687,-356 687,-317.39 656.12,-281.21 635.67,-261.49"/>
<polygon fill="midnightblue" stroke="midnightblue" points="637.89,-258.77 628.18,-254.54 633.13,-263.9 637.89,-258.77"/>
</g>
<!-- Node32 -->
<g id="node32" class="node">
<title>Node32</title>
<g id="a_node32"><a xlink:href="../../d4/d6a/a00704.html" target="_top" xlink:title=" ">
<polygon fill="none" stroke="black" points="646,-179.5 646,-198.5 804,-198.5 804,-179.5 646,-179.5"/>
<text text-anchor="middle" x="725" y="-186.5" font-family="Helvetica,sans-Serif" font-size="10.00">discordcoreapi/EventEntities.hpp</text>
</a>
</g>
</g>
<!-- Node30&#45;&gt;Node32 -->
<g id="edge63" class="edge">
<title>Node30&#45;&gt;Node32</title>
<path fill="none" stroke="midnightblue" d="M1028.76,-527.01C972.9,-522.6 892.72,-510.7 830,-479 792.11,-459.85 760,-456.46 760,-414 760,-414 760,-414 760,-300 760,-266.07 744.69,-228.91 734.32,-207.63"/>
<polygon fill="midnightblue" stroke="midnightblue" points="737.36,-205.88 729.72,-198.54 731.12,-209.05 737.36,-205.88"/>
</g>
<!-- Node35 -->
<g id="node35" class="node">
<title>Node35</title>
<g id="a_node35"><a xlink:href="../../d0/db6/a00692.html" target="_top" xlink:title=" ">
<polygon fill="none" stroke="black" points="839.5,-459.5 839.5,-478.5 1026.5,-478.5 1026.5,-459.5 839.5,-459.5"/>
<text text-anchor="middle" x="933" y="-466.5" font-family="Helvetica,sans-Serif" font-size="10.00">discordcoreapi/CommandController.hpp</text>
</a>
</g>
</g>
<!-- Node30&#45;&gt;Node35 -->
<g id="edge38" class="edge">
<title>Node30&#45;&gt;Node35</title>
<path fill="none" stroke="midnightblue" d="M1057.37,-515.4C1029.66,-505.28 992.69,-491.79 966.28,-482.15"/>
<polygon fill="midnightblue" stroke="midnightblue" points="967.31,-478.8 956.72,-478.66 964.91,-485.37 967.31,-478.8"/>
</g>
<!-- Node37 -->
<g id="node37" class="node">
<title>Node37</title>
<g id="a_node37"><a xlink:href="../../d3/d4f/a00761.html" target="_top" xlink:title=" ">
<polygon fill="none" stroke="black" points="898,-347.5 898,-366.5 1048,-366.5 1048,-347.5 898,-347.5"/>
<text text-anchor="middle" x="973" y="-354.5" font-family="Helvetica,sans-Serif" font-size="10.00">discordcoreapi/ThreadPool.hpp</text>
</a>
</g>
</g>
<!-- Node30&#45;&gt;Node37 -->
<g id="edge66" class="edge">
<title>Node30&#45;&gt;Node37</title>
<path fill="none" stroke="midnightblue" d="M1116.87,-515.36C1149.94,-491.26 1207.63,-441.12 1177,-403 1161.86,-384.15 1107.16,-372.73 1058.22,-366.11"/>
<polygon fill="midnightblue" stroke="midnightblue" points="1058.57,-362.63 1048.2,-364.81 1057.66,-369.57 1058.57,-362.63"/>
</g>
<!-- Node39 -->
<g id="node39" class="node">
<title>Node39</title>
<g id="a_node39"><a xlink:href="../../d5/de8/a00749.html" target="_top" xlink:title=" ">
<polygon fill="none" stroke="black" points="1333,-235.5 1333,-254.5 1483,-254.5 1483,-235.5 1333,-235.5"/>
<text text-anchor="middle" x="1408" y="-242.5" font-family="Helvetica,sans-Serif" font-size="10.00">discordcoreapi/SSLClients.hpp</text>
</a>
</g>
</g>
<!-- Node30&#45;&gt;Node39 -->
<g id="edge65" class="edge">
<title>Node30&#45;&gt;Node39</title>
<path fill="none" stroke="midnightblue" d="M1163.22,-526.04C1236.06,-518.24 1342,-493.26 1342,-414 1342,-414 1342,-414 1342,-356 1342,-317.86 1371.54,-281.52 1391.09,-261.64"/>
<polygon fill="midnightblue" stroke="midnightblue" points="1393.56,-264.12 1398.26,-254.63 1388.67,-259.12 1393.56,-264.12"/>
</g>
<!-- Node52 -->
<g id="node52" class="node">
<title>Node52</title>
<g id="a_node52"><a xlink:href="../../dd/d57/a00701.html" target="_top" xlink:title=" ">
<polygon fill="none" stroke="black" points="1024,-403.5 1024,-422.5 1168,-422.5 1168,-403.5 1024,-403.5"/>
<text text-anchor="middle" x="1096" y="-410.5" font-family="Helvetica,sans-Serif" font-size="10.00">discordcoreapi/ErlPacker.hpp</text>
</a>
</g>
</g>
<!-- Node30&#45;&gt;Node52 -->
<g id="edge61" class="edge">
<title>Node30&#45;&gt;Node52</title>
<path fill="none" stroke="midnightblue" d="M1096,-515.34C1096,-494.62 1096,-456.02 1096,-432.9"/>
<polygon fill="midnightblue" stroke="midnightblue" points="1099.5,-432.67 1096,-422.67 1092.5,-432.67 1099.5,-432.67"/>
</g>
<!-- Node31&#45;&gt;Node2 -->
<g id="edge35" class="edge">
<title>Node31&#45;&gt;Node2</title>
<path fill="none" stroke="midnightblue" d="M617.87,-235.39C618.16,-221.4 620.88,-193.78 637,-179 662.36,-155.74 748.65,-142.18 813.23,-135.07"/>
<polygon fill="midnightblue" stroke="midnightblue" points="813.83,-138.53 823.4,-133.98 813.09,-131.57 813.83,-138.53"/>
</g>
<!-- Node31&#45;&gt;Node32 -->
<g id="edge33" class="edge">
<title>Node31&#45;&gt;Node32</title>
<path fill="none" stroke="midnightblue" d="M635.19,-235.32C652.35,-226.66 678.95,-213.24 698.75,-203.25"/>
<polygon fill="midnightblue" stroke="midnightblue" points="700.5,-206.28 707.85,-198.65 697.35,-200.04 700.5,-206.28"/>
</g>
<!-- Node33 -->
<g id="node33" class="node">
<title>Node33</title>
<g id="a_node33"><a xlink:title=" ">
<polygon fill="none" stroke="#bfbfbf" points="480,-179.5 480,-198.5 590,-198.5 590,-179.5 480,-179.5"/>
<text text-anchor="middle" x="535" y="-186.5" font-family="Helvetica,sans-Serif" font-size="10.00">libavformat/avformat.h</text>
</a>
</g>
</g>
<!-- Node31&#45;&gt;Node33 -->
<g id="edge36" class="edge">
<title>Node31&#45;&gt;Node33</title>
<path fill="none" stroke="midnightblue" d="M604.66,-235.32C591.84,-226.98 572.22,-214.21 557.06,-204.35"/>
<polygon fill="midnightblue" stroke="midnightblue" points="558.59,-201.17 548.3,-198.65 554.78,-207.04 558.59,-201.17"/>
</g>
<!-- Node34 -->
<g id="node34" class="node">
<title>Node34</title>
<g id="a_node34"><a xlink:title=" ">
<polygon fill="none" stroke="#bfbfbf" points="320.5,-179.5 320.5,-198.5 461.5,-198.5 461.5,-179.5 320.5,-179.5"/>
<text text-anchor="middle" x="391" y="-186.5" font-family="Helvetica,sans-Serif" font-size="10.00">libswresample/swresample.h</text>
</a>
</g>
</g>
<!-- Node31&#45;&gt;Node34 -->
<g id="edge37" class="edge">
<title>Node31&#45;&gt;Node34</title>
<path fill="none" stroke="midnightblue" d="M582.03,-235.44C542.68,-226.08 479.51,-211.06 436.69,-200.87"/>
<polygon fill="midnightblue" stroke="midnightblue" points="437.34,-197.43 426.8,-198.52 435.72,-204.24 437.34,-197.43"/>
</g>
<!-- Node32&#45;&gt;Node2 -->
<g id="edge34" class="edge">
<title>Node32&#45;&gt;Node2</title>
<path fill="none" stroke="midnightblue" d="M748.5,-179.48C772.47,-170.78 810.37,-157.03 840.77,-146"/>
<polygon fill="midnightblue" stroke="midnightblue" points="842.14,-149.22 850.35,-142.52 839.75,-142.64 842.14,-149.22"/>
</g>
<!-- Node35&#45;&gt;Node2 -->
<g id="edge60" class="edge">
<title>Node35&#45;&gt;Node2</title>
<path fill="none" stroke="midnightblue" d="M906.13,-459.42C888.09,-452.35 865.13,-440.6 851,-423 832.15,-399.53 832,-388.1 832,-358 832,-358 832,-358 832,-244 832,-208.66 853.72,-172.94 870.34,-150.78"/>
<polygon fill="midnightblue" stroke="midnightblue" points="873.25,-152.74 876.63,-142.7 867.73,-148.44 873.25,-152.74"/>
</g>
<!-- Node36 -->
<g id="node36" class="node">
<title>Node36</title>
<g id="a_node36"><a xlink:href="../../d5/d5b/a00695.html" target="_top" xlink:title=" ">
<polygon fill="none" stroke="black" points="860,-403.5 860,-422.5 1006,-422.5 1006,-403.5 860,-403.5"/>
<text text-anchor="middle" x="933" y="-410.5" font-family="Helvetica,sans-Serif" font-size="10.00">discordcoreapi/CoRoutine.hpp</text>
</a>
</g>
</g>
<!-- Node35&#45;&gt;Node36 -->
<g id="edge39" class="edge">
<title>Node35&#45;&gt;Node36</title>
<path fill="none" stroke="midnightblue" d="M933,-459.08C933,-452.01 933,-441.86 933,-432.99"/>
<polygon fill="midnightblue" stroke="midnightblue" points="936.5,-432.75 933,-422.75 929.5,-432.75 936.5,-432.75"/>
</g>
<!-- Node36&#45;&gt;Node2 -->
<g id="edge40" class="edge">
<title>Node36&#45;&gt;Node2</title>
<path fill="none" stroke="midnightblue" d="M921.66,-403.18C911.69,-394.86 897.5,-381.52 889,-367 873.8,-341.02 870,-332.1 870,-302 870,-302 870,-302 870,-244 870,-212.07 877.16,-175.83 882.69,-152.59"/>
<polygon fill="midnightblue" stroke="midnightblue" points="886.15,-153.15 885.16,-142.6 879.36,-151.47 886.15,-153.15"/>
</g>
<!-- Node36&#45;&gt;Node37 -->
<g id="edge41" class="edge">
<title>Node36&#45;&gt;Node37</title>
<path fill="none" stroke="midnightblue" d="M939.61,-403.08C945.26,-395.46 953.54,-384.26 960.45,-374.94"/>
<polygon fill="midnightblue" stroke="midnightblue" points="963.38,-376.87 966.52,-366.75 957.75,-372.7 963.38,-376.87"/>
</g>
<!-- Node37&#45;&gt;Node2 -->
<g id="edge42" class="edge">
<title>Node37&#45;&gt;Node2</title>
<path fill="none" stroke="midnightblue" d="M969.81,-347.36C957.95,-315.23 916.12,-201.96 897.76,-152.22"/>
<polygon fill="midnightblue" stroke="midnightblue" points="900.96,-150.79 894.21,-142.62 894.4,-153.22 900.96,-150.79"/>
</g>
<!-- Node37&#45;&gt;Node38 -->
<g id="edge43" class="edge">
<title>Node37&#45;&gt;Node38</title>
<path fill="none" stroke="midnightblue" d="M1048.27,-351.92C1234.19,-341.84 1713.29,-315.86 1896.38,-305.94"/>
<polygon fill="midnightblue" stroke="midnightblue" points="1896.65,-309.43 1906.45,-305.39 1896.27,-302.44 1896.65,-309.43"/>
</g>
<!-- Node38&#45;&gt;Node15 -->
<g id="edge59" class="edge">
<title>Node38&#45;&gt;Node15</title>
<path fill="none" stroke="midnightblue" d="M1976.59,-291.28C1991.25,-273.52 2022,-231.34 2022,-190 2022,-190 2022,-190 2022,-126.5 2022,-83.82 1984.32,-45.93 1960.04,-25.95"/>
<polygon fill="midnightblue" stroke="midnightblue" points="1962.11,-23.12 1952.1,-19.65 1957.76,-28.6 1962.11,-23.12"/>
</g>
<!-- Node38&#45;&gt;Node39 -->
<g id="edge44" class="edge">
<title>Node38&#45;&gt;Node39</title>
<path fill="none" stroke="midnightblue" d="M1906.28,-293.96C1805.39,-284.25 1606.91,-265.15 1493.26,-254.21"/>
<polygon fill="midnightblue" stroke="midnightblue" points="1493.5,-250.71 1483.21,-253.24 1492.82,-257.68 1493.5,-250.71"/>
</g>
<!-- Node39&#45;&gt;Node2 -->
<g id="edge55" class="edge">
<title>Node39&#45;&gt;Node2</title>
<path fill="none" stroke="midnightblue" d="M1332.58,-239.6C1232.65,-233.08 1062.1,-219.39 1003,-199 969.99,-187.61 936.5,-165.34 914.44,-148.87"/>
<polygon fill="midnightblue" stroke="midnightblue" points="916.37,-145.93 906.29,-142.65 912.12,-151.5 916.37,-145.93"/>
</g>
<!-- Node39&#45;&gt;Node32 -->
<g id="edge56" class="edge">
<title>Node39&#45;&gt;Node32</title>
<path fill="none" stroke="midnightblue" d="M1332.95,-238.07C1206.22,-228.05 950.34,-207.82 814.48,-197.07"/>
<polygon fill="midnightblue" stroke="midnightblue" points="814.36,-193.55 804.11,-196.25 813.81,-200.53 814.36,-193.55"/>
</g>
<!-- Node40 -->
<g id="node40" class="node">
<title>Node40</title>
<g id="a_node40"><a xlink:title=" ">
<polygon fill="none" stroke="#bfbfbf" points="1845.5,-179.5 1845.5,-198.5 1888.5,-198.5 1888.5,-179.5 1845.5,-179.5"/>
<text text-anchor="middle" x="1867" y="-186.5" font-family="Helvetica,sans-Serif" font-size="10.00">fcntl.h</text>
</a>
</g>
</g>
<!-- Node39&#45;&gt;Node40 -->
<g id="edge45" class="edge">
<title>Node39&#45;&gt;Node40</title>
<path fill="none" stroke="midnightblue" d="M1483.21,-240.15C1566.98,-234.95 1706.44,-223.57 1835.38,-198.76"/>
<polygon fill="midnightblue" stroke="midnightblue" points="1836.3,-202.15 1845.44,-196.79 1834.95,-195.28 1836.3,-202.15"/>
</g>
<!-- Node41 -->
<g id="node41" class="node">
<title>Node41</title>
<g id="a_node41"><a xlink:title=" ">
<polygon fill="none" stroke="#bfbfbf" points="1906.5,-179.5 1906.5,-198.5 1955.5,-198.5 1955.5,-179.5 1906.5,-179.5"/>
<text text-anchor="middle" x="1931" y="-186.5" font-family="Helvetica,sans-Serif" font-size="10.00">netdb.h</text>
</a>
</g>
</g>
<!-- Node39&#45;&gt;Node41 -->
<g id="edge46" class="edge">
<title>Node39&#45;&gt;Node41</title>
<path fill="none" stroke="midnightblue" d="M1483.08,-240.99C1577.44,-236.33 1744.4,-225.21 1896.25,-198.83"/>
<polygon fill="midnightblue" stroke="midnightblue" points="1896.98,-202.25 1906.22,-197.07 1895.77,-195.36 1896.98,-202.25"/>
</g>
<!-- Node42 -->
<g id="node42" class="node">
<title>Node42</title>
<g id="a_node42"><a xlink:title=" ">
<polygon fill="none" stroke="#bfbfbf" points="1012.5,-179.5 1012.5,-198.5 1077.5,-198.5 1077.5,-179.5 1012.5,-179.5"/>
<text text-anchor="middle" x="1045" y="-186.5" font-family="Helvetica,sans-Serif" font-size="10.00">netinet/in.h</text>
</a>
</g>
</g>
<!-- Node39&#45;&gt;Node42 -->
<g id="edge47" class="edge">
<title>Node39&#45;&gt;Node42</title>
<path fill="none" stroke="midnightblue" d="M1335.49,-235.49C1272.36,-227.71 1178.19,-215.21 1087.52,-199.17"/>
<polygon fill="midnightblue" stroke="midnightblue" points="1088.09,-195.71 1077.63,-197.4 1086.86,-202.6 1088.09,-195.71"/>
</g>
<!-- Node43 -->
<g id="node43" class="node">
<title>Node43</title>
<g id="a_node43"><a xlink:title=" ">
<polygon fill="none" stroke="#bfbfbf" points="1095.5,-179.5 1095.5,-198.5 1166.5,-198.5 1166.5,-179.5 1095.5,-179.5"/>
<text text-anchor="middle" x="1131" y="-186.5" font-family="Helvetica,sans-Serif" font-size="10.00">netinet/tcp.h</text>
</a>
</g>
</g>
<!-- Node39&#45;&gt;Node43 -->
<g id="edge48" class="edge">
<title>Node39&#45;&gt;Node43</title>
<path fill="none" stroke="midnightblue" d="M1362.87,-235.44C1318.02,-226.89 1247,-213.27 1176.48,-199.28"/>
<polygon fill="midnightblue" stroke="midnightblue" points="1177.03,-195.82 1166.53,-197.3 1175.66,-202.69 1177.03,-195.82"/>
</g>
<!-- Node44 -->
<g id="node44" class="node">
<title>Node44</title>
<g id="a_node44"><a xlink:title=" ">
<polygon fill="none" stroke="#bfbfbf" points="1184.5,-179.5 1184.5,-198.5 1233.5,-198.5 1233.5,-179.5 1184.5,-179.5"/>
<text text-anchor="middle" x="1209" y="-186.5" font-family="Helvetica,sans-Serif" font-size="10.00">stdint.h</text>
</a>
</g>
</g>
<!-- Node39&#45;&gt;Node44 -->
<g id="edge49" class="edge">
<title>Node39&#45;&gt;Node44</title>
<path fill="none" stroke="midnightblue" d="M1376.47,-235.44C1340.3,-225.63 1281.19,-209.59 1243.74,-199.43"/>
<polygon fill="midnightblue" stroke="midnightblue" points="1244.35,-195.97 1233.78,-196.73 1242.52,-202.72 1244.35,-195.97"/>
</g>
<!-- Node45 -->
<g id="node45" class="node">
<title>Node45</title>
<g id="a_node45"><a xlink:title=" ">
<polygon fill="none" stroke="#bfbfbf" points="1252,-179.5 1252,-198.5 1316,-198.5 1316,-179.5 1252,-179.5"/>
<text text-anchor="middle" x="1284" y="-186.5" font-family="Helvetica,sans-Serif" font-size="10.00">sys/epoll.h</text>
</a>
</g>
</g>
<!-- Node39&#45;&gt;Node45 -->
<g id="edge50" class="edge">
<title>Node39&#45;&gt;Node45</title>
<path fill="none" stroke="midnightblue" d="M1388.35,-235.44C1368.04,-226.6 1336.1,-212.69 1312.9,-202.59"/>
<polygon fill="midnightblue" stroke="midnightblue" points="1314.12,-199.3 1303.56,-198.52 1311.33,-205.72 1314.12,-199.3"/>
</g>
<!-- Node46 -->
<g id="node46" class="node">
<title>Node46</title>
<g id="a_node46"><a xlink:title=" ">
<polygon fill="none" stroke="#bfbfbf" points="1334,-179.5 1334,-198.5 1396,-198.5 1396,-179.5 1334,-179.5"/>
<text text-anchor="middle" x="1365" y="-186.5" font-family="Helvetica,sans-Serif" font-size="10.00">arpa/inet.h</text>
</a>
</g>
</g>
<!-- Node39&#45;&gt;Node46 -->
<g id="edge51" class="edge">
<title>Node39&#45;&gt;Node46</title>
<path fill="none" stroke="midnightblue" d="M1400.9,-235.08C1394.76,-227.38 1385.73,-216.03 1378.26,-206.65"/>
<polygon fill="midnightblue" stroke="midnightblue" points="1380.94,-204.39 1371.97,-198.75 1375.46,-208.75 1380.94,-204.39"/>
</g>
<!-- Node47 -->
<g id="node47" class="node">
<title>Node47</title>
<g id="a_node47"><a xlink:title=" ">
<polygon fill="none" stroke="#bfbfbf" points="1414.5,-179.5 1414.5,-198.5 1487.5,-198.5 1487.5,-179.5 1414.5,-179.5"/>
<text text-anchor="middle" x="1451" y="-186.5" font-family="Helvetica,sans-Serif" font-size="10.00">sys/socket.h</text>
</a>
</g>
</g>
<!-- Node39&#45;&gt;Node47 -->
<g id="edge52" class="edge">
<title>Node39&#45;&gt;Node47</title>
<path fill="none" stroke="midnightblue" d="M1415.1,-235.08C1421.24,-227.38 1430.27,-216.03 1437.74,-206.65"/>
<polygon fill="midnightblue" stroke="midnightblue" points="1440.54,-208.75 1444.03,-198.75 1435.06,-204.39 1440.54,-208.75"/>
</g>
<!-- Node48 -->
<g id="node48" class="node">
<title>Node48</title>
<g id="a_node48"><a xlink:title=" ">
<polygon fill="none" stroke="#bfbfbf" points="1506,-179.5 1506,-198.5 1574,-198.5 1574,-179.5 1506,-179.5"/>
<text text-anchor="middle" x="1540" y="-186.5" font-family="Helvetica,sans-Serif" font-size="10.00">sys/types.h</text>
</a>
</g>
</g>
<!-- Node39&#45;&gt;Node48 -->
<g id="edge53" class="edge">
<title>Node39&#45;&gt;Node48</title>
<path fill="none" stroke="midnightblue" d="M1428.92,-235.44C1450.74,-226.52 1485.15,-212.44 1509.89,-202.32"/>
<polygon fill="midnightblue" stroke="midnightblue" points="1511.25,-205.54 1519.18,-198.52 1508.6,-199.06 1511.25,-205.54"/>
</g>
<!-- Node49 -->
<g id="node49" class="node">
<title>Node49</title>
<g id="a_node49"><a xlink:title=" ">
<polygon fill="none" stroke="#bfbfbf" points="1592.5,-179.5 1592.5,-198.5 1643.5,-198.5 1643.5,-179.5 1592.5,-179.5"/>
<text text-anchor="middle" x="1618" y="-186.5" font-family="Helvetica,sans-Serif" font-size="10.00">unistd.h</text>
</a>
</g>
</g>
<!-- Node39&#45;&gt;Node49 -->
<g id="edge54" class="edge">
<title>Node39&#45;&gt;Node49</title>
<path fill="none" stroke="midnightblue" d="M1441.28,-235.44C1479.9,-225.51 1543.31,-209.21 1582.75,-199.06"/>
<polygon fill="midnightblue" stroke="midnightblue" points="1583.66,-202.44 1592.48,-196.56 1581.92,-195.66 1583.66,-202.44"/>
</g>
<!-- Node50 -->
<g id="node50" class="node">
<title>Node50</title>
<g id="a_node50"><a xlink:title=" ">
<polygon fill="none" stroke="#bfbfbf" points="1661.5,-179.5 1661.5,-198.5 1734.5,-198.5 1734.5,-179.5 1661.5,-179.5"/>
<text text-anchor="middle" x="1698" y="-186.5" font-family="Helvetica,sans-Serif" font-size="10.00">openssl/err.h</text>
</a>
</g>
</g>
<!-- Node39&#45;&gt;Node50 -->
<g id="edge57" class="edge">
<title>Node39&#45;&gt;Node50</title>
<path fill="none" stroke="midnightblue" d="M1455.26,-235.44C1502.32,-226.88 1576.9,-213.22 1651.33,-199.11"/>
<polygon fill="midnightblue" stroke="midnightblue" points="1652.18,-202.51 1661.35,-197.21 1650.87,-195.64 1652.18,-202.51"/>
</g>
<!-- Node51 -->
<g id="node51" class="node">
<title>Node51</title>
<g id="a_node51"><a xlink:title=" ">
<polygon fill="none" stroke="#bfbfbf" points="1753,-179.5 1753,-198.5 1827,-198.5 1827,-179.5 1753,-179.5"/>
<text text-anchor="middle" x="1790" y="-186.5" font-family="Helvetica,sans-Serif" font-size="10.00">openssl/ssl.h</text>
</a>
</g>
</g>
<!-- Node39&#45;&gt;Node51 -->
<g id="edge58" class="edge">
<title>Node39&#45;&gt;Node51</title>
<path fill="none" stroke="midnightblue" d="M1480.05,-235.5C1545.76,-227.48 1645.74,-214.6 1742.84,-198.94"/>
<polygon fill="midnightblue" stroke="midnightblue" points="1743.52,-202.37 1752.83,-197.31 1742.4,-195.46 1743.52,-202.37"/>
</g>
<!-- Node52&#45;&gt;Node2 -->
<g id="edge62" class="edge">
<title>Node52&#45;&gt;Node2</title>
<path fill="none" stroke="midnightblue" d="M1091.25,-403.39C1084.2,-390.76 1070.34,-366.58 1057,-347 1006.29,-272.55 939.31,-189.43 907.41,-150.66"/>
<polygon fill="midnightblue" stroke="midnightblue" points="909.86,-148.13 900.8,-142.65 904.46,-152.59 909.86,-148.13"/>
</g>
</g>
</svg>
