<?xml version="1.0" encoding="UTF-8" standalone="no"?>
<!DOCTYPE svg PUBLIC "-//W3C//DTD SVG 1.1//EN"
 "http://www.w3.org/Graphics/SVG/1.1/DTD/svg11.dtd">
<!-- Generated by graphviz version 2.43.0 (0)
 -->
<!-- Title: RoleEntities.hpp Pages: 1 -->
<svg width="2399pt" height="733pt"
 viewBox="0.00 0.00 2399.21 733.00" xmlns="http://www.w3.org/2000/svg" xmlns:xlink="http://www.w3.org/1999/xlink">
<g id="graph0" class="graph" transform="scale(1 1) rotate(0) translate(4 729)">
<title>RoleEntities.hpp</title>
<!-- Node1 -->
<g id="node1" class="node">
<title>Node1</title>
<g id="a_node1"><a xlink:title=" ">
<polygon fill="#bfbfbf" stroke="black" points="876.5,-705.5 876.5,-724.5 972.5,-724.5 972.5,-705.5 876.5,-705.5"/>
<text text-anchor="middle" x="924.5" y="-712.5" font-family="Helvetica,sans-Serif" font-size="10.00">RoleEntities.hpp</text>
</a>
</g>
</g>
<!-- Node2 -->
<g id="node2" class="node">
<title>Node2</title>
<g id="a_node2"><a xlink:href="../../d4/deb/a00710.html" target="_top" xlink:title=" ">
<polygon fill="none" stroke="black" points="1007,-112.5 1007,-142.5 1152,-142.5 1152,-112.5 1007,-112.5"/>
<text text-anchor="start" x="1015" y="-130.5" font-family="Helvetica,sans-Serif" font-size="10.00">discordcoreapi/Foundation</text>
<text text-anchor="middle" x="1079.5" y="-119.5" font-family="Helvetica,sans-Serif" font-size="10.00">Entities.hpp</text>
</a>
</g>
</g>
<!-- Node1&#45;&gt;Node2 -->
<g id="edge1" class="edge">
<title>Node1&#45;&gt;Node2</title>
<path fill="none" stroke="midnightblue" d="M876.26,-710.94C762.22,-702.38 485.5,-673.34 485.5,-593 485.5,-593 485.5,-593 485.5,-244 485.5,-205.87 507.62,-196.49 541.5,-179 618.7,-139.14 865.85,-130.52 996.59,-128.81"/>
<polygon fill="midnightblue" stroke="midnightblue" points="997,-132.3 1006.95,-128.68 996.91,-125.3 997,-132.3"/>
</g>
<!-- Node27 -->
<g id="node27" class="node">
<title>Node27</title>
<g id="a_node27"><a xlink:href="../../d2/d94/a00716.html" target="_top" xlink:title=" ">
<polygon fill="none" stroke="black" points="846,-638.5 846,-668.5 1003,-668.5 1003,-638.5 846,-638.5"/>
<text text-anchor="start" x="854" y="-656.5" font-family="Helvetica,sans-Serif" font-size="10.00">discordcoreapi/GuildMember</text>
<text text-anchor="middle" x="924.5" y="-645.5" font-family="Helvetica,sans-Serif" font-size="10.00">Entities.hpp</text>
</a>
</g>
</g>
<!-- Node1&#45;&gt;Node27 -->
<g id="edge26" class="edge">
<title>Node1&#45;&gt;Node27</title>
<path fill="none" stroke="midnightblue" d="M924.5,-705.48C924.5,-698.47 924.5,-688.19 924.5,-678.7"/>
<polygon fill="midnightblue" stroke="midnightblue" points="928,-678.52 924.5,-668.52 921,-678.52 928,-678.52"/>
</g>
<!-- Node37 -->
<g id="node37" class="node">
<title>Node37</title>
<g id="a_node37"><a xlink:href="../../db/d7c/a00722.html" target="_top" xlink:title=" ">
<polygon fill="none" stroke="black" points="1637.5,-291.5 1637.5,-310.5 1775.5,-310.5 1775.5,-291.5 1637.5,-291.5"/>
<text text-anchor="middle" x="1706.5" y="-298.5" font-family="Helvetica,sans-Serif" font-size="10.00">discordcoreapi/Https.hpp</text>
</a>
</g>
</g>
<!-- Node1&#45;&gt;Node37 -->
<g id="edge67" class="edge">
<title>Node1&#45;&gt;Node37</title>
<path fill="none" stroke="midnightblue" d="M972.73,-712C1148.51,-704.1 1744.5,-671.52 1744.5,-593 1744.5,-593 1744.5,-593 1744.5,-412 1744.5,-377.81 1727.9,-340.76 1716.64,-319.57"/>
<polygon fill="midnightblue" stroke="midnightblue" points="1719.68,-317.83 1711.78,-310.77 1713.55,-321.22 1719.68,-317.83"/>
</g>
<!-- Node3 -->
<g id="node3" class="node">
<title>Node3</title>
<g id="a_node3"><a xlink:href="../../d5/dae/a00767.html" target="_top" xlink:title=" ">
<polygon fill="none" stroke="black" points="1004.5,-56.5 1004.5,-75.5 1154.5,-75.5 1154.5,-56.5 1004.5,-56.5"/>
<text text-anchor="middle" x="1079.5" y="-63.5" font-family="Helvetica,sans-Serif" font-size="10.00">discordcoreapi/Utilities.hpp</text>
</a>
</g>
</g>
<!-- Node2&#45;&gt;Node3 -->
<g id="edge2" class="edge">
<title>Node2&#45;&gt;Node3</title>
<path fill="none" stroke="midnightblue" d="M1079.5,-112.4C1079.5,-104.47 1079.5,-94.46 1079.5,-85.86"/>
<polygon fill="midnightblue" stroke="midnightblue" points="1083,-85.66 1079.5,-75.66 1076,-85.66 1083,-85.66"/>
</g>
<!-- Node4 -->
<g id="node4" class="node">
<title>Node4</title>
<g id="a_node4"><a xlink:title=" ">
<polygon fill="none" stroke="#bfbfbf" points="0,-0.5 0,-19.5 63,-19.5 63,-0.5 0,-0.5"/>
<text text-anchor="middle" x="31.5" y="-7.5" font-family="Helvetica,sans-Serif" font-size="10.00">pthread.h</text>
</a>
</g>
</g>
<!-- Node3&#45;&gt;Node4 -->
<g id="edge3" class="edge">
<title>Node3&#45;&gt;Node4</title>
<path fill="none" stroke="midnightblue" d="M1004.15,-63.31C805.75,-58.59 271.21,-44.11 73.21,-19.8"/>
<polygon fill="midnightblue" stroke="midnightblue" points="73.55,-16.31 63.19,-18.52 72.67,-23.26 73.55,-16.31"/>
</g>
<!-- Node5 -->
<g id="node5" class="node">
<title>Node5</title>
<g id="a_node5"><a xlink:title=" ">
<polygon fill="none" stroke="#bfbfbf" points="81.5,-0.5 81.5,-19.5 149.5,-19.5 149.5,-0.5 81.5,-0.5"/>
<text text-anchor="middle" x="115.5" y="-7.5" font-family="Helvetica,sans-Serif" font-size="10.00">sys/time.h</text>
</a>
</g>
</g>
<!-- Node3&#45;&gt;Node5 -->
<g id="edge4" class="edge">
<title>Node3&#45;&gt;Node5</title>
<path fill="none" stroke="midnightblue" d="M1004.24,-65.32C848.34,-65.13 478.76,-60.16 160.05,-19.98"/>
<polygon fill="midnightblue" stroke="midnightblue" points="160.05,-16.45 149.69,-18.66 159.16,-23.4 160.05,-16.45"/>
</g>
<!-- Node6 -->
<g id="node6" class="node">
<title>Node6</title>
<g id="a_node6"><a xlink:title=" ">
<polygon fill="none" stroke="#bfbfbf" points="167.5,-0.5 167.5,-19.5 215.5,-19.5 215.5,-0.5 167.5,-0.5"/>
<text text-anchor="middle" x="191.5" y="-7.5" font-family="Helvetica,sans-Serif" font-size="10.00">time.h</text>
</a>
</g>
</g>
<!-- Node3&#45;&gt;Node6 -->
<g id="edge5" class="edge">
<title>Node3&#45;&gt;Node6</title>
<path fill="none" stroke="midnightblue" d="M1004.22,-63.1C828.05,-58.33 391.93,-44.55 225.61,-19.76"/>
<polygon fill="midnightblue" stroke="midnightblue" points="225.94,-16.27 215.52,-18.19 224.86,-23.19 225.94,-16.27"/>
</g>
<!-- Node7 -->
<g id="node7" class="node">
<title>Node7</title>
<g id="a_node7"><a xlink:title=" ">
<polygon fill="none" stroke="#bfbfbf" points="233.5,-0.5 233.5,-19.5 277.5,-19.5 277.5,-0.5 233.5,-0.5"/>
<text text-anchor="middle" x="255.5" y="-7.5" font-family="Helvetica,sans-Serif" font-size="10.00">ctime</text>
</a>
</g>
</g>
<!-- Node3&#45;&gt;Node7 -->
<g id="edge6" class="edge">
<title>Node3&#45;&gt;Node7</title>
<path fill="none" stroke="midnightblue" d="M1004.33,-62.9C837.88,-57.91 441.44,-44.04 287.9,-19.79"/>
<polygon fill="midnightblue" stroke="midnightblue" points="288.15,-16.28 277.71,-18.1 287,-23.19 288.15,-16.28"/>
</g>
<!-- Node8 -->
<g id="node8" class="node">
<title>Node8</title>
<g id="a_node8"><a xlink:title=" ">
<polygon fill="none" stroke="#bfbfbf" points="296,-0.5 296,-19.5 403,-19.5 403,-0.5 296,-0.5"/>
<text text-anchor="middle" x="349.5" y="-7.5" font-family="Helvetica,sans-Serif" font-size="10.00">condition_variable</text>
</a>
</g>
</g>
<!-- Node3&#45;&gt;Node8 -->
<g id="edge7" class="edge">
<title>Node3&#45;&gt;Node8</title>
<path fill="none" stroke="midnightblue" d="M1004.32,-61.76C882.52,-56.1 634.28,-42.89 413.25,-19.99"/>
<polygon fill="midnightblue" stroke="midnightblue" points="413.39,-16.49 403.08,-18.93 412.66,-23.45 413.39,-16.49"/>
</g>
<!-- Node9 -->
<g id="node9" class="node">
<title>Node9</title>
<g id="a_node9"><a xlink:title=" ">
<polygon fill="none" stroke="#bfbfbf" points="421.5,-0.5 421.5,-19.5 531.5,-19.5 531.5,-0.5 421.5,-0.5"/>
<text text-anchor="middle" x="476.5" y="-7.5" font-family="Helvetica,sans-Serif" font-size="10.00">nlohmann/json.hpp</text>
</a>
</g>
</g>
<!-- Node3&#45;&gt;Node9 -->
<g id="edge8" class="edge">
<title>Node3&#45;&gt;Node9</title>
<path fill="none" stroke="midnightblue" d="M1004.38,-60.07C902.09,-53.06 713.05,-39.04 541.6,-20.06"/>
<polygon fill="midnightblue" stroke="midnightblue" points="541.96,-16.58 531.63,-18.95 541.18,-23.54 541.96,-16.58"/>
</g>
<!-- Node10 -->
<g id="node10" class="node">
<title>Node10</title>
<g id="a_node10"><a xlink:title=" ">
<polygon fill="none" stroke="#bfbfbf" points="550,-0.5 550,-19.5 643,-19.5 643,-0.5 550,-0.5"/>
<text text-anchor="middle" x="596.5" y="-7.5" font-family="Helvetica,sans-Serif" font-size="10.00">source_location</text>
</a>
</g>
</g>
<!-- Node3&#45;&gt;Node10 -->
<g id="edge9" class="edge">
<title>Node3&#45;&gt;Node10</title>
<path fill="none" stroke="midnightblue" d="M1004.35,-58.42C920.93,-50.81 782.07,-37.27 653.32,-20.18"/>
<polygon fill="midnightblue" stroke="midnightblue" points="653.66,-16.7 643.28,-18.84 652.73,-23.64 653.66,-16.7"/>
</g>
<!-- Node11 -->
<g id="node11" class="node">
<title>Node11</title>
<g id="a_node11"><a xlink:title=" ">
<polygon fill="none" stroke="#bfbfbf" points="661,-0.5 661,-19.5 754,-19.5 754,-0.5 661,-0.5"/>
<text text-anchor="middle" x="707.5" y="-7.5" font-family="Helvetica,sans-Serif" font-size="10.00">unordered_map</text>
</a>
</g>
</g>
<!-- Node3&#45;&gt;Node11 -->
<g id="edge10" class="edge">
<title>Node3&#45;&gt;Node11</title>
<path fill="none" stroke="midnightblue" d="M1017.39,-56.49C955.82,-47.98 858.51,-34.32 764.24,-20.09"/>
<polygon fill="midnightblue" stroke="midnightblue" points="764.65,-16.61 754.24,-18.58 763.6,-23.53 764.65,-16.61"/>
</g>
<!-- Node12 -->
<g id="node12" class="node">
<title>Node12</title>
<g id="a_node12"><a xlink:title=" ">
<polygon fill="none" stroke="#bfbfbf" points="772.5,-0.5 772.5,-19.5 858.5,-19.5 858.5,-0.5 772.5,-0.5"/>
<text text-anchor="middle" x="815.5" y="-7.5" font-family="Helvetica,sans-Serif" font-size="10.00">shared_mutex</text>
</a>
</g>
</g>
<!-- Node3&#45;&gt;Node12 -->
<g id="edge11" class="edge">
<title>Node3&#45;&gt;Node12</title>
<path fill="none" stroke="midnightblue" d="M1037.67,-56.44C991.42,-46.98 916.89,-31.74 867.06,-21.55"/>
<polygon fill="midnightblue" stroke="midnightblue" points="867.63,-18.09 857.14,-19.52 866.23,-24.95 867.63,-18.09"/>
</g>
<!-- Node13 -->
<g id="node13" class="node">
<title>Node13</title>
<g id="a_node13"><a xlink:title=" ">
<polygon fill="none" stroke="#bfbfbf" points="877,-0.5 877,-19.5 942,-19.5 942,-0.5 877,-0.5"/>
<text text-anchor="middle" x="909.5" y="-7.5" font-family="Helvetica,sans-Serif" font-size="10.00">functional</text>
</a>
</g>
</g>
<!-- Node3&#45;&gt;Node13 -->
<g id="edge12" class="edge">
<title>Node3&#45;&gt;Node13</title>
<path fill="none" stroke="midnightblue" d="M1052.56,-56.44C1023.84,-47.32 978.17,-32.81 946.18,-22.65"/>
<polygon fill="midnightblue" stroke="midnightblue" points="946.9,-19.21 936.31,-19.52 944.78,-25.88 946.9,-19.21"/>
</g>
<!-- Node14 -->
<g id="node14" class="node">
<title>Node14</title>
<g id="a_node14"><a xlink:title=" ">
<polygon fill="none" stroke="#bfbfbf" points="960,-0.5 960,-19.5 1031,-19.5 1031,-0.5 960,-0.5"/>
<text text-anchor="middle" x="995.5" y="-7.5" font-family="Helvetica,sans-Serif" font-size="10.00">semaphore</text>
</a>
</g>
</g>
<!-- Node3&#45;&gt;Node14 -->
<g id="edge13" class="edge">
<title>Node3&#45;&gt;Node14</title>
<path fill="none" stroke="midnightblue" d="M1066,-56.32C1052.9,-47.9 1032.79,-34.97 1017.39,-25.07"/>
<polygon fill="midnightblue" stroke="midnightblue" points="1019.27,-22.12 1008.96,-19.65 1015.48,-28.01 1019.27,-22.12"/>
</g>
<!-- Node15 -->
<g id="node15" class="node">
<title>Node15</title>
<g id="a_node15"><a xlink:title=" ">
<polygon fill="none" stroke="#bfbfbf" points="1049.5,-0.5 1049.5,-19.5 1109.5,-19.5 1109.5,-0.5 1049.5,-0.5"/>
<text text-anchor="middle" x="1079.5" y="-7.5" font-family="Helvetica,sans-Serif" font-size="10.00">concepts</text>
</a>
</g>
</g>
<!-- Node3&#45;&gt;Node15 -->
<g id="edge14" class="edge">
<title>Node3&#45;&gt;Node15</title>
<path fill="none" stroke="midnightblue" d="M1079.5,-56.08C1079.5,-49.01 1079.5,-38.86 1079.5,-29.99"/>
<polygon fill="midnightblue" stroke="midnightblue" points="1083,-29.75 1079.5,-19.75 1076,-29.75 1083,-29.75"/>
</g>
<!-- Node16 -->
<g id="node16" class="node">
<title>Node16</title>
<g id="a_node16"><a xlink:title=" ">
<polygon fill="none" stroke="#bfbfbf" points="1127.5,-0.5 1127.5,-19.5 1187.5,-19.5 1187.5,-0.5 1127.5,-0.5"/>
<text text-anchor="middle" x="1157.5" y="-7.5" font-family="Helvetica,sans-Serif" font-size="10.00">iostream</text>
</a>
</g>
</g>
<!-- Node3&#45;&gt;Node16 -->
<g id="edge15" class="edge">
<title>Node3&#45;&gt;Node16</title>
<path fill="none" stroke="midnightblue" d="M1092.03,-56.32C1104.09,-47.98 1122.53,-35.21 1136.77,-25.35"/>
<polygon fill="midnightblue" stroke="midnightblue" points="1138.77,-28.22 1145,-19.65 1134.78,-22.47 1138.77,-28.22"/>
</g>
<!-- Node17 -->
<g id="node17" class="node">
<title>Node17</title>
<g id="a_node17"><a xlink:title=" ">
<polygon fill="none" stroke="#bfbfbf" points="1206,-0.5 1206,-19.5 1261,-19.5 1261,-0.5 1206,-0.5"/>
<text text-anchor="middle" x="1233.5" y="-7.5" font-family="Helvetica,sans-Serif" font-size="10.00">fstream</text>
</a>
</g>
</g>
<!-- Node3&#45;&gt;Node17 -->
<g id="edge16" class="edge">
<title>Node3&#45;&gt;Node17</title>
<path fill="none" stroke="midnightblue" d="M1103.9,-56.44C1129.7,-47.4 1170.58,-33.06 1199.52,-22.92"/>
<polygon fill="midnightblue" stroke="midnightblue" points="1200.93,-26.13 1209.21,-19.52 1198.62,-19.52 1200.93,-26.13"/>
</g>
<!-- Node18 -->
<g id="node18" class="node">
<title>Node18</title>
<g id="a_node18"><a xlink:title=" ">
<polygon fill="none" stroke="#bfbfbf" points="1279.5,-0.5 1279.5,-19.5 1323.5,-19.5 1323.5,-0.5 1279.5,-0.5"/>
<text text-anchor="middle" x="1301.5" y="-7.5" font-family="Helvetica,sans-Serif" font-size="10.00">bitset</text>
</a>
</g>
</g>
<!-- Node3&#45;&gt;Node18 -->
<g id="edge17" class="edge">
<title>Node3&#45;&gt;Node18</title>
<path fill="none" stroke="midnightblue" d="M1117.47,-56.5C1155.9,-47.77 1216.99,-33.6 1269.5,-20 1269.6,-19.97 1269.7,-19.95 1269.8,-19.92"/>
<polygon fill="midnightblue" stroke="midnightblue" points="1270.75,-23.29 1279.5,-17.32 1268.93,-16.53 1270.75,-23.29"/>
</g>
<!-- Node19 -->
<g id="node19" class="node">
<title>Node19</title>
<g id="a_node19"><a xlink:title=" ">
<polygon fill="none" stroke="#bfbfbf" points="1341.5,-0.5 1341.5,-19.5 1399.5,-19.5 1399.5,-0.5 1341.5,-0.5"/>
<text text-anchor="middle" x="1370.5" y="-7.5" font-family="Helvetica,sans-Serif" font-size="10.00">memory</text>
</a>
</g>
</g>
<!-- Node3&#45;&gt;Node19 -->
<g id="edge18" class="edge">
<title>Node3&#45;&gt;Node19</title>
<path fill="none" stroke="midnightblue" d="M1132.48,-56.47C1181.58,-48.37 1256.88,-35.43 1331.45,-20.12"/>
<polygon fill="midnightblue" stroke="midnightblue" points="1332.41,-23.5 1341.49,-18.05 1330.99,-16.65 1332.41,-23.5"/>
</g>
<!-- Node20 -->
<g id="node20" class="node">
<title>Node20</title>
<g id="a_node20"><a xlink:title=" ">
<polygon fill="none" stroke="#bfbfbf" points="1417.5,-0.5 1417.5,-19.5 1471.5,-19.5 1471.5,-0.5 1417.5,-0.5"/>
<text text-anchor="middle" x="1444.5" y="-7.5" font-family="Helvetica,sans-Serif" font-size="10.00">random</text>
</a>
</g>
</g>
<!-- Node3&#45;&gt;Node20 -->
<g id="edge19" class="edge">
<title>Node3&#45;&gt;Node20</title>
<path fill="none" stroke="midnightblue" d="M1154.69,-57.08C1219.27,-49.74 1315.01,-37.56 1407.36,-20.04"/>
<polygon fill="midnightblue" stroke="midnightblue" points="1408.28,-23.42 1417.44,-18.1 1406.96,-16.55 1408.28,-23.42"/>
</g>
<!-- Node21 -->
<g id="node21" class="node">
<title>Node21</title>
<g id="a_node21"><a xlink:title=" ">
<polygon fill="none" stroke="#bfbfbf" points="1489.5,-0.5 1489.5,-19.5 1533.5,-19.5 1533.5,-0.5 1489.5,-0.5"/>
<text text-anchor="middle" x="1511.5" y="-7.5" font-family="Helvetica,sans-Serif" font-size="10.00">string</text>
</a>
</g>
</g>
<!-- Node3&#45;&gt;Node21 -->
<g id="edge20" class="edge">
<title>Node3&#45;&gt;Node21</title>
<path fill="none" stroke="midnightblue" d="M1154.73,-60.41C1233.55,-54.73 1360.98,-43.09 1479.3,-19.93"/>
<polygon fill="midnightblue" stroke="midnightblue" points="1480.14,-23.33 1489.26,-17.95 1478.77,-16.47 1480.14,-23.33"/>
</g>
<!-- Node22 -->
<g id="node22" class="node">
<title>Node22</title>
<g id="a_node22"><a xlink:title=" ">
<polygon fill="none" stroke="#bfbfbf" points="1552,-0.5 1552,-19.5 1599,-19.5 1599,-0.5 1552,-0.5"/>
<text text-anchor="middle" x="1575.5" y="-7.5" font-family="Helvetica,sans-Serif" font-size="10.00">vector</text>
</a>
</g>
</g>
<!-- Node3&#45;&gt;Node22 -->
<g id="edge21" class="edge">
<title>Node3&#45;&gt;Node22</title>
<path fill="none" stroke="midnightblue" d="M1154.62,-61.61C1244.5,-56.69 1399.58,-45.41 1541.62,-19.84"/>
<polygon fill="midnightblue" stroke="midnightblue" points="1542.61,-23.22 1551.82,-17.97 1541.35,-16.33 1542.61,-23.22"/>
</g>
<!-- Node23 -->
<g id="node23" class="node">
<title>Node23</title>
<g id="a_node23"><a xlink:title=" ">
<polygon fill="none" stroke="#bfbfbf" points="1617.5,-0.5 1617.5,-19.5 1665.5,-19.5 1665.5,-0.5 1617.5,-0.5"/>
<text text-anchor="middle" x="1641.5" y="-7.5" font-family="Helvetica,sans-Serif" font-size="10.00">thread</text>
</a>
</g>
</g>
<!-- Node3&#45;&gt;Node23 -->
<g id="edge22" class="edge">
<title>Node3&#45;&gt;Node23</title>
<path fill="none" stroke="midnightblue" d="M1154.78,-62.69C1257.69,-58.61 1447.74,-47.74 1607.5,-20 1607.6,-19.98 1607.7,-19.96 1607.8,-19.95"/>
<polygon fill="midnightblue" stroke="midnightblue" points="1608.4,-23.4 1617.47,-17.91 1606.96,-16.55 1608.4,-23.4"/>
</g>
<!-- Node24 -->
<g id="node24" class="node">
<title>Node24</title>
<g id="a_node24"><a xlink:title=" ">
<polygon fill="none" stroke="#bfbfbf" points="1683.5,-0.5 1683.5,-19.5 1731.5,-19.5 1731.5,-0.5 1683.5,-0.5"/>
<text text-anchor="middle" x="1707.5" y="-7.5" font-family="Helvetica,sans-Serif" font-size="10.00">mutex</text>
</a>
</g>
</g>
<!-- Node3&#45;&gt;Node24 -->
<g id="edge23" class="edge">
<title>Node3&#45;&gt;Node24</title>
<path fill="none" stroke="midnightblue" d="M1154.74,-63.9C1266.25,-61.25 1481.94,-52.24 1673.5,-19.84"/>
<polygon fill="midnightblue" stroke="midnightblue" points="1674.21,-23.27 1683.47,-18.12 1673.02,-16.37 1674.21,-23.27"/>
</g>
<!-- Node25 -->
<g id="node25" class="node">
<title>Node25</title>
<g id="a_node25"><a xlink:title=" ">
<polygon fill="none" stroke="#bfbfbf" points="1750,-0.5 1750,-19.5 1797,-19.5 1797,-0.5 1750,-0.5"/>
<text text-anchor="middle" x="1773.5" y="-7.5" font-family="Helvetica,sans-Serif" font-size="10.00">queue</text>
</a>
</g>
</g>
<!-- Node3&#45;&gt;Node25 -->
<g id="edge24" class="edge">
<title>Node3&#45;&gt;Node25</title>
<path fill="none" stroke="midnightblue" d="M1154.91,-64.71C1276.37,-63.18 1522.79,-55.67 1739.85,-19.74"/>
<polygon fill="midnightblue" stroke="midnightblue" points="1740.55,-23.17 1749.83,-18.06 1739.39,-16.26 1740.55,-23.17"/>
</g>
<!-- Node26 -->
<g id="node26" class="node">
<title>Node26</title>
<g id="a_node26"><a xlink:title=" ">
<polygon fill="none" stroke="#bfbfbf" points="1815.5,-0.5 1815.5,-19.5 1853.5,-19.5 1853.5,-0.5 1815.5,-0.5"/>
<text text-anchor="middle" x="1834.5" y="-7.5" font-family="Helvetica,sans-Serif" font-size="10.00">map</text>
</a>
</g>
</g>
<!-- Node3&#45;&gt;Node26 -->
<g id="edge25" class="edge">
<title>Node3&#45;&gt;Node26</title>
<path fill="none" stroke="midnightblue" d="M1154.69,-62.72C1310.57,-57.61 1665.36,-43.94 1805.29,-19.68"/>
<polygon fill="midnightblue" stroke="midnightblue" points="1806.17,-23.08 1815.38,-17.84 1804.92,-16.19 1806.17,-23.08"/>
</g>
<!-- Node27&#45;&gt;Node2 -->
<g id="edge27" class="edge">
<title>Node27&#45;&gt;Node2</title>
<path fill="none" stroke="midnightblue" d="M845.75,-644.88C728.97,-631.37 523.5,-598.13 523.5,-531.5 523.5,-531.5 523.5,-531.5 523.5,-244 523.5,-206.16 545.01,-196.63 578.5,-179 649.04,-141.87 873.34,-132.01 996.52,-129.42"/>
<polygon fill="midnightblue" stroke="midnightblue" points="996.73,-132.91 1006.66,-129.21 996.59,-125.91 996.73,-132.91"/>
</g>
<!-- Node28 -->
<g id="node28" class="node">
<title>Node28</title>
<g id="a_node28"><a xlink:href="../../d3/d2c/a00764.html" target="_top" xlink:title=" ">
<polygon fill="none" stroke="black" points="839,-582.5 839,-601.5 1010,-601.5 1010,-582.5 839,-582.5"/>
<text text-anchor="middle" x="924.5" y="-589.5" font-family="Helvetica,sans-Serif" font-size="10.00">discordcoreapi/UserEntities.hpp</text>
</a>
</g>
</g>
<!-- Node27&#45;&gt;Node28 -->
<g id="edge28" class="edge">
<title>Node27&#45;&gt;Node28</title>
<path fill="none" stroke="midnightblue" d="M924.5,-638.4C924.5,-630.47 924.5,-620.46 924.5,-611.86"/>
<polygon fill="midnightblue" stroke="midnightblue" points="928,-611.66 924.5,-601.66 921,-611.66 928,-611.66"/>
</g>
<!-- Node27&#45;&gt;Node37 -->
<g id="edge66" class="edge">
<title>Node27&#45;&gt;Node37</title>
<path fill="none" stroke="midnightblue" d="M1003.06,-648.51C1201.37,-637.4 1706.5,-602.16 1706.5,-531.5 1706.5,-531.5 1706.5,-531.5 1706.5,-412 1706.5,-379.95 1706.5,-342.64 1706.5,-320.75"/>
<polygon fill="midnightblue" stroke="midnightblue" points="1710,-320.56 1706.5,-310.56 1703,-320.56 1710,-320.56"/>
</g>
<!-- Node28&#45;&gt;Node2 -->
<g id="edge29" class="edge">
<title>Node28&#45;&gt;Node2</title>
<path fill="none" stroke="midnightblue" d="M856.65,-582.48C751.58,-567.37 561.5,-531.53 561.5,-470 561.5,-470 561.5,-470 561.5,-244 561.5,-206.44 582.41,-196.77 615.5,-179 679.42,-144.66 881,-133.65 996.34,-130.14"/>
<polygon fill="midnightblue" stroke="midnightblue" points="996.65,-133.63 1006.54,-129.84 996.45,-126.63 996.65,-133.63"/>
</g>
<!-- Node29 -->
<g id="node29" class="node">
<title>Node29</title>
<g id="a_node29"><a xlink:href="../../d9/dd4/a00776.html" target="_top" xlink:title=" ">
<polygon fill="none" stroke="black" points="1073.5,-515.5 1073.5,-545.5 1217.5,-545.5 1217.5,-515.5 1073.5,-515.5"/>
<text text-anchor="start" x="1081.5" y="-533.5" font-family="Helvetica,sans-Serif" font-size="10.00">discordcoreapi/WebSocket</text>
<text text-anchor="middle" x="1145.5" y="-522.5" font-family="Helvetica,sans-Serif" font-size="10.00">Entities.hpp</text>
</a>
</g>
</g>
<!-- Node28&#45;&gt;Node29 -->
<g id="edge30" class="edge">
<title>Node28&#45;&gt;Node29</title>
<path fill="none" stroke="midnightblue" d="M956.16,-582.48C989.31,-573.55 1042.21,-559.31 1083.68,-548.14"/>
<polygon fill="midnightblue" stroke="midnightblue" points="1084.67,-551.5 1093.41,-545.52 1082.85,-544.74 1084.67,-551.5"/>
</g>
<!-- Node29&#45;&gt;Node2 -->
<g id="edge31" class="edge">
<title>Node29&#45;&gt;Node2</title>
<path fill="none" stroke="midnightblue" d="M1073.28,-529.16C924.88,-526.49 599.5,-509.74 599.5,-414 599.5,-414 599.5,-414 599.5,-244 599.5,-207.82 617.12,-197 648.5,-179 706.03,-146 888.3,-134.51 996.51,-130.54"/>
<polygon fill="midnightblue" stroke="midnightblue" points="996.88,-134.03 1006.75,-130.18 996.63,-127.04 996.88,-134.03"/>
</g>
<!-- Node30 -->
<g id="node30" class="node">
<title>Node30</title>
<g id="a_node30"><a xlink:href="../../d4/d9b/a00680.html" target="_top" xlink:title=" ">
<polygon fill="none" stroke="black" points="805,-235.5 805,-254.5 984,-254.5 984,-235.5 805,-235.5"/>
<text text-anchor="middle" x="894.5" y="-242.5" font-family="Helvetica,sans-Serif" font-size="10.00">discordcoreapi/AudioDecoder.hpp</text>
</a>
</g>
</g>
<!-- Node29&#45;&gt;Node30 -->
<g id="edge32" class="edge">
<title>Node29&#45;&gt;Node30</title>
<path fill="none" stroke="midnightblue" d="M1081.6,-515.42C1030.9,-500.03 968.5,-469.77 968.5,-414 968.5,-414 968.5,-414 968.5,-356 968.5,-316.61 935.43,-280.73 913.5,-261.26"/>
<polygon fill="midnightblue" stroke="midnightblue" points="915.62,-258.47 905.74,-254.64 911.07,-263.79 915.62,-258.47"/>
</g>
<!-- Node31 -->
<g id="node31" class="node">
<title>Node31</title>
<g id="a_node31"><a xlink:href="../../d4/d6a/a00704.html" target="_top" xlink:title=" ">
<polygon fill="none" stroke="black" points="991.5,-179.5 991.5,-198.5 1167.5,-198.5 1167.5,-179.5 991.5,-179.5"/>
<text text-anchor="middle" x="1079.5" y="-186.5" font-family="Helvetica,sans-Serif" font-size="10.00">discordcoreapi/EventEntities.hpp</text>
</a>
</g>
</g>
<!-- Node29&#45;&gt;Node31 -->
<g id="edge63" class="edge">
<title>Node29&#45;&gt;Node31</title>
<path fill="none" stroke="midnightblue" d="M1128.6,-515.11C1118.57,-505.74 1106.31,-492.74 1098.5,-479 1083.62,-452.84 1079.5,-444.1 1079.5,-414 1079.5,-414 1079.5,-414 1079.5,-300 1079.5,-267.95 1079.5,-230.64 1079.5,-208.75"/>
<polygon fill="midnightblue" stroke="midnightblue" points="1083,-208.56 1079.5,-198.56 1076,-208.56 1083,-208.56"/>
</g>
<!-- Node34 -->
<g id="node34" class="node">
<title>Node34</title>
<g id="a_node34"><a xlink:href="../../d0/db6/a00692.html" target="_top" xlink:title=" ">
<polygon fill="none" stroke="black" points="1108,-459.5 1108,-478.5 1317,-478.5 1317,-459.5 1108,-459.5"/>
<text text-anchor="middle" x="1212.5" y="-466.5" font-family="Helvetica,sans-Serif" font-size="10.00">discordcoreapi/CommandController.hpp</text>
</a>
</g>
</g>
<!-- Node29&#45;&gt;Node34 -->
<g id="edge38" class="edge">
<title>Node29&#45;&gt;Node34</title>
<path fill="none" stroke="midnightblue" d="M1161.38,-515.4C1171.52,-506.4 1184.66,-494.72 1195.09,-485.47"/>
<polygon fill="midnightblue" stroke="midnightblue" points="1197.6,-487.92 1202.75,-478.66 1192.95,-482.68 1197.6,-487.92"/>
</g>
<!-- Node36 -->
<g id="node36" class="node">
<title>Node36</title>
<g id="a_node36"><a xlink:href="../../d3/d4f/a00761.html" target="_top" xlink:title=" ">
<polygon fill="none" stroke="black" points="1266,-347.5 1266,-366.5 1433,-366.5 1433,-347.5 1266,-347.5"/>
<text text-anchor="middle" x="1349.5" y="-354.5" font-family="Helvetica,sans-Serif" font-size="10.00">discordcoreapi/ThreadPool.hpp</text>
</a>
</g>
</g>
<!-- Node29&#45;&gt;Node36 -->
<g id="edge65" class="edge">
<title>Node29&#45;&gt;Node36</title>
<path fill="none" stroke="midnightblue" d="M1217.76,-523.38C1279.58,-513.63 1363.36,-488.37 1394.5,-423 1403.26,-404.6 1386.72,-385.67 1371.28,-373.02"/>
<polygon fill="midnightblue" stroke="midnightblue" points="1373.05,-369.98 1362.98,-366.69 1368.8,-375.54 1373.05,-369.98"/>
</g>
<!-- Node38 -->
<g id="node38" class="node">
<title>Node38</title>
<g id="a_node38"><a xlink:href="../../d5/de8/a00749.html" target="_top" xlink:title=" ">
<polygon fill="none" stroke="black" points="1625,-235.5 1625,-254.5 1788,-254.5 1788,-235.5 1625,-235.5"/>
<text text-anchor="middle" x="1706.5" y="-242.5" font-family="Helvetica,sans-Serif" font-size="10.00">discordcoreapi/SSLClients.hpp</text>
</a>
</g>
</g>
<!-- Node29&#45;&gt;Node38 -->
<g id="edge64" class="edge">
<title>Node29&#45;&gt;Node38</title>
<path fill="none" stroke="midnightblue" d="M1217.71,-518.3C1312.09,-501.57 1465.5,-466.35 1465.5,-414 1465.5,-414 1465.5,-414 1465.5,-356 1465.5,-287.61 1546.8,-261.56 1614.96,-251.73"/>
<polygon fill="midnightblue" stroke="midnightblue" points="1615.46,-255.2 1624.91,-250.4 1614.53,-248.26 1615.46,-255.2"/>
</g>
<!-- Node52 -->
<g id="node52" class="node">
<title>Node52</title>
<g id="a_node52"><a xlink:href="../../dd/d57/a00701.html" target="_top" xlink:title=" ">
<polygon fill="none" stroke="black" points="1513,-403.5 1513,-422.5 1668,-422.5 1668,-403.5 1513,-403.5"/>
<text text-anchor="middle" x="1590.5" y="-410.5" font-family="Helvetica,sans-Serif" font-size="10.00">discordcoreapi/ErlPacker.hpp</text>
</a>
</g>
</g>
<!-- Node29&#45;&gt;Node52 -->
<g id="edge61" class="edge">
<title>Node29&#45;&gt;Node52</title>
<path fill="none" stroke="midnightblue" d="M1217.77,-526.46C1286.74,-521.74 1392.69,-509.7 1479.5,-479 1513.95,-466.82 1549.71,-443.65 1571.03,-428.52"/>
<polygon fill="midnightblue" stroke="midnightblue" points="1573.19,-431.28 1579.24,-422.59 1569.08,-425.61 1573.19,-431.28"/>
</g>
<!-- Node30&#45;&gt;Node2 -->
<g id="edge35" class="edge">
<title>Node30&#45;&gt;Node2</title>
<path fill="none" stroke="midnightblue" d="M804.7,-238.71C745.45,-233.12 675.38,-221.79 656.5,-199 650.83,-192.16 650.6,-185.65 656.5,-179 678.65,-154.04 879.83,-139.17 996.59,-132.57"/>
<polygon fill="midnightblue" stroke="midnightblue" points="996.78,-136.07 1006.57,-132.02 996.39,-129.08 996.78,-136.07"/>
</g>
<!-- Node30&#45;&gt;Node31 -->
<g id="edge33" class="edge">
<title>Node30&#45;&gt;Node31</title>
<path fill="none" stroke="midnightblue" d="M923.81,-235.44C955.34,-226.24 1005.63,-211.56 1040.49,-201.39"/>
<polygon fill="midnightblue" stroke="midnightblue" points="1041.7,-204.68 1050.32,-198.52 1039.74,-197.96 1041.7,-204.68"/>
</g>
<!-- Node32 -->
<g id="node32" class="node">
<title>Node32</title>
<g id="a_node32"><a xlink:title=" ">
<polygon fill="none" stroke="#bfbfbf" points="666,-179.5 666,-198.5 797,-198.5 797,-179.5 666,-179.5"/>
<text text-anchor="middle" x="731.5" y="-186.5" font-family="Helvetica,sans-Serif" font-size="10.00">libavformat/avformat.h</text>
</a>
</g>
</g>
<!-- Node30&#45;&gt;Node32 -->
<g id="edge36" class="edge">
<title>Node30&#45;&gt;Node32</title>
<path fill="none" stroke="midnightblue" d="M868.67,-235.44C841.25,-226.36 797.72,-211.94 767.07,-201.78"/>
<polygon fill="midnightblue" stroke="midnightblue" points="767.8,-198.34 757.21,-198.52 765.6,-204.98 767.8,-198.34"/>
</g>
<!-- Node33 -->
<g id="node33" class="node">
<title>Node33</title>
<g id="a_node33"><a xlink:title=" ">
<polygon fill="none" stroke="#bfbfbf" points="815,-179.5 815,-198.5 974,-198.5 974,-179.5 815,-179.5"/>
<text text-anchor="middle" x="894.5" y="-186.5" font-family="Helvetica,sans-Serif" font-size="10.00">libswresample/swresample.h</text>
</a>
</g>
</g>
<!-- Node30&#45;&gt;Node33 -->
<g id="edge37" class="edge">
<title>Node30&#45;&gt;Node33</title>
<path fill="none" stroke="midnightblue" d="M894.5,-235.08C894.5,-228.01 894.5,-217.86 894.5,-208.99"/>
<polygon fill="midnightblue" stroke="midnightblue" points="898,-208.75 894.5,-198.75 891,-208.75 898,-208.75"/>
</g>
<!-- Node31&#45;&gt;Node2 -->
<g id="edge34" class="edge">
<title>Node31&#45;&gt;Node2</title>
<path fill="none" stroke="midnightblue" d="M1079.5,-179.48C1079.5,-172.47 1079.5,-162.19 1079.5,-152.7"/>
<polygon fill="midnightblue" stroke="midnightblue" points="1083,-152.52 1079.5,-142.52 1076,-152.52 1083,-152.52"/>
</g>
<!-- Node34&#45;&gt;Node2 -->
<g id="edge39" class="edge">
<title>Node34&#45;&gt;Node2</title>
<path fill="none" stroke="midnightblue" d="M1210.21,-459.23C1205.57,-440.69 1195.5,-396.07 1195.5,-358 1195.5,-358 1195.5,-358 1195.5,-244 1195.5,-213.9 1195.6,-202.26 1176.5,-179 1165.12,-165.14 1148.93,-154.63 1133.03,-146.89"/>
<polygon fill="midnightblue" stroke="midnightblue" points="1134.29,-143.62 1123.74,-142.65 1131.38,-149.99 1134.29,-143.62"/>
</g>
<!-- Node35 -->
<g id="node35" class="node">
<title>Node35</title>
<g id="a_node35"><a xlink:href="../../d5/d5b/a00695.html" target="_top" xlink:title=" ">
<polygon fill="none" stroke="black" points="1223.5,-403.5 1223.5,-422.5 1385.5,-422.5 1385.5,-403.5 1223.5,-403.5"/>
<text text-anchor="middle" x="1304.5" y="-410.5" font-family="Helvetica,sans-Serif" font-size="10.00">discordcoreapi/CoRoutine.hpp</text>
</a>
</g>
</g>
<!-- Node34&#45;&gt;Node35 -->
<g id="edge40" class="edge">
<title>Node34&#45;&gt;Node35</title>
<path fill="none" stroke="midnightblue" d="M1227.28,-459.32C1241.77,-450.82 1264.07,-437.73 1280.99,-427.8"/>
<polygon fill="midnightblue" stroke="midnightblue" points="1282.9,-430.74 1289.76,-422.65 1279.36,-424.7 1282.9,-430.74"/>
</g>
<!-- Node35&#45;&gt;Node2 -->
<g id="edge41" class="edge">
<title>Node35&#45;&gt;Node2</title>
<path fill="none" stroke="midnightblue" d="M1292.3,-403.27C1281.54,-395.02 1266.12,-381.73 1256.5,-367 1239.74,-341.35 1233.5,-332.64 1233.5,-302 1233.5,-302 1233.5,-302 1233.5,-244 1233.5,-213.2 1231.09,-200.96 1209.5,-179 1194.84,-164.09 1175.27,-153.49 1155.78,-145.99"/>
<polygon fill="midnightblue" stroke="midnightblue" points="1156.83,-142.65 1146.24,-142.56 1154.46,-149.24 1156.83,-142.65"/>
</g>
<!-- Node35&#45;&gt;Node36 -->
<g id="edge42" class="edge">
<title>Node35&#45;&gt;Node36</title>
<path fill="none" stroke="midnightblue" d="M1311.93,-403.08C1318.35,-395.38 1327.81,-384.03 1335.62,-374.65"/>
<polygon fill="midnightblue" stroke="midnightblue" points="1338.49,-376.67 1342.21,-366.75 1333.12,-372.19 1338.49,-376.67"/>
</g>
<!-- Node36&#45;&gt;Node2 -->
<g id="edge43" class="edge">
<title>Node36&#45;&gt;Node2</title>
<path fill="none" stroke="midnightblue" d="M1340.4,-347.33C1331.7,-338.7 1318.59,-324.79 1309.5,-311 1273.82,-256.89 1296.58,-221.34 1247.5,-179 1223.67,-158.44 1191.72,-146.26 1162.07,-139.03"/>
<polygon fill="midnightblue" stroke="midnightblue" points="1162.65,-135.57 1152.12,-136.76 1161.09,-142.39 1162.65,-135.57"/>
</g>
<!-- Node36&#45;&gt;Node37 -->
<g id="edge44" class="edge">
<title>Node36&#45;&gt;Node37</title>
<path fill="none" stroke="midnightblue" d="M1406.07,-347.44C1469.65,-337.83 1572.77,-322.23 1640.12,-312.04"/>
<polygon fill="midnightblue" stroke="midnightblue" points="1640.83,-315.47 1650.2,-310.52 1639.79,-308.55 1640.83,-315.47"/>
</g>
<!-- Node51 -->
<g id="node51" class="node">
<title>Node51</title>
<g id="a_node51"><a xlink:title=" ">
<polygon fill="none" stroke="#bfbfbf" points="1318.5,-291.5 1318.5,-310.5 1380.5,-310.5 1380.5,-291.5 1318.5,-291.5"/>
<text text-anchor="middle" x="1349.5" y="-298.5" font-family="Helvetica,sans-Serif" font-size="10.00">coroutine</text>
</a>
</g>
</g>
<!-- Node36&#45;&gt;Node51 -->
<g id="edge60" class="edge">
<title>Node36&#45;&gt;Node51</title>
<path fill="none" stroke="midnightblue" d="M1349.5,-347.08C1349.5,-340.01 1349.5,-329.86 1349.5,-320.99"/>
<polygon fill="midnightblue" stroke="midnightblue" points="1353,-320.75 1349.5,-310.75 1346,-320.75 1353,-320.75"/>
</g>
<!-- Node37&#45;&gt;Node38 -->
<g id="edge45" class="edge">
<title>Node37&#45;&gt;Node38</title>
<path fill="none" stroke="midnightblue" d="M1706.5,-291.08C1706.5,-284.01 1706.5,-273.86 1706.5,-264.99"/>
<polygon fill="midnightblue" stroke="midnightblue" points="1710,-264.75 1706.5,-254.75 1703,-264.75 1710,-264.75"/>
</g>
<!-- Node38&#45;&gt;Node2 -->
<g id="edge46" class="edge">
<title>Node38&#45;&gt;Node2</title>
<path fill="none" stroke="midnightblue" d="M1624.67,-241.71C1547.1,-237.8 1427.99,-227.28 1328.5,-199 1308.23,-193.24 1305.39,-185.99 1285.5,-179 1245.48,-164.94 1199.76,-153.3 1161.57,-144.76"/>
<polygon fill="midnightblue" stroke="midnightblue" points="1162.05,-141.28 1151.53,-142.55 1160.54,-148.12 1162.05,-141.28"/>
</g>
<!-- Node38&#45;&gt;Node31 -->
<g id="edge47" class="edge">
<title>Node38&#45;&gt;Node31</title>
<path fill="none" stroke="midnightblue" d="M1624.85,-236.97C1510.01,-227.08 1301.07,-209.08 1177.84,-198.47"/>
<polygon fill="midnightblue" stroke="midnightblue" points="1177.91,-194.96 1167.65,-197.59 1177.31,-201.94 1177.91,-194.96"/>
</g>
<!-- Node39 -->
<g id="node39" class="node">
<title>Node39</title>
<g id="a_node39"><a xlink:title=" ">
<polygon fill="none" stroke="#bfbfbf" points="1338,-179.5 1338,-198.5 1417,-198.5 1417,-179.5 1338,-179.5"/>
<text text-anchor="middle" x="1377.5" y="-186.5" font-family="Helvetica,sans-Serif" font-size="10.00">openssl/err.h</text>
</a>
</g>
</g>
<!-- Node38&#45;&gt;Node39 -->
<g id="edge48" class="edge">
<title>Node38&#45;&gt;Node39</title>
<path fill="none" stroke="midnightblue" d="M1651.19,-235.48C1596.82,-227.03 1511.2,-213.49 1427.05,-199.06"/>
<polygon fill="midnightblue" stroke="midnightblue" points="1427.52,-195.59 1417.07,-197.35 1426.33,-202.49 1427.52,-195.59"/>
</g>
<!-- Node40 -->
<g id="node40" class="node">
<title>Node40</title>
<g id="a_node40"><a xlink:title=" ">
<polygon fill="none" stroke="#bfbfbf" points="1435.5,-179.5 1435.5,-198.5 1515.5,-198.5 1515.5,-179.5 1435.5,-179.5"/>
<text text-anchor="middle" x="1475.5" y="-186.5" font-family="Helvetica,sans-Serif" font-size="10.00">openssl/ssl.h</text>
</a>
</g>
</g>
<!-- Node38&#45;&gt;Node40 -->
<g id="edge49" class="edge">
<title>Node38&#45;&gt;Node40</title>
<path fill="none" stroke="midnightblue" d="M1669.9,-235.44C1629.77,-226.06 1565.3,-210.99 1521.72,-200.8"/>
<polygon fill="midnightblue" stroke="midnightblue" points="1522.47,-197.38 1511.93,-198.52 1520.87,-204.2 1522.47,-197.38"/>
</g>
<!-- Node41 -->
<g id="node41" class="node">
<title>Node41</title>
<g id="a_node41"><a xlink:title=" ">
<polygon fill="none" stroke="#bfbfbf" points="1534,-179.5 1534,-198.5 1581,-198.5 1581,-179.5 1534,-179.5"/>
<text text-anchor="middle" x="1557.5" y="-186.5" font-family="Helvetica,sans-Serif" font-size="10.00">fcntl.h</text>
</a>
</g>
</g>
<!-- Node38&#45;&gt;Node41 -->
<g id="edge50" class="edge">
<title>Node38&#45;&gt;Node41</title>
<path fill="none" stroke="midnightblue" d="M1682.89,-235.44C1658.04,-226.44 1618.73,-212.19 1590.75,-202.05"/>
<polygon fill="midnightblue" stroke="midnightblue" points="1591.59,-198.63 1581,-198.52 1589.21,-205.21 1591.59,-198.63"/>
</g>
<!-- Node42 -->
<g id="node42" class="node">
<title>Node42</title>
<g id="a_node42"><a xlink:title=" ">
<polygon fill="none" stroke="#bfbfbf" points="1599,-179.5 1599,-198.5 1652,-198.5 1652,-179.5 1599,-179.5"/>
<text text-anchor="middle" x="1625.5" y="-186.5" font-family="Helvetica,sans-Serif" font-size="10.00">netdb.h</text>
</a>
</g>
</g>
<!-- Node38&#45;&gt;Node42 -->
<g id="edge51" class="edge">
<title>Node38&#45;&gt;Node42</title>
<path fill="none" stroke="midnightblue" d="M1693.49,-235.32C1680.97,-226.98 1661.82,-214.21 1647.03,-204.35"/>
<polygon fill="midnightblue" stroke="midnightblue" points="1648.74,-201.29 1638.48,-198.65 1644.86,-207.11 1648.74,-201.29"/>
</g>
<!-- Node43 -->
<g id="node43" class="node">
<title>Node43</title>
<g id="a_node43"><a xlink:title=" ">
<polygon fill="none" stroke="#bfbfbf" points="1670.5,-179.5 1670.5,-198.5 1742.5,-198.5 1742.5,-179.5 1670.5,-179.5"/>
<text text-anchor="middle" x="1706.5" y="-186.5" font-family="Helvetica,sans-Serif" font-size="10.00">netinet/in.h</text>
</a>
</g>
</g>
<!-- Node38&#45;&gt;Node43 -->
<g id="edge52" class="edge">
<title>Node38&#45;&gt;Node43</title>
<path fill="none" stroke="midnightblue" d="M1706.5,-235.08C1706.5,-228.01 1706.5,-217.86 1706.5,-208.99"/>
<polygon fill="midnightblue" stroke="midnightblue" points="1710,-208.75 1706.5,-198.75 1703,-208.75 1710,-208.75"/>
</g>
<!-- Node44 -->
<g id="node44" class="node">
<title>Node44</title>
<g id="a_node44"><a xlink:title=" ">
<polygon fill="none" stroke="#bfbfbf" points="1760.5,-179.5 1760.5,-198.5 1838.5,-198.5 1838.5,-179.5 1760.5,-179.5"/>
<text text-anchor="middle" x="1799.5" y="-186.5" font-family="Helvetica,sans-Serif" font-size="10.00">netinet/tcp.h</text>
</a>
</g>
</g>
<!-- Node38&#45;&gt;Node44 -->
<g id="edge53" class="edge">
<title>Node38&#45;&gt;Node44</title>
<path fill="none" stroke="midnightblue" d="M1721.44,-235.32C1736.09,-226.82 1758.63,-213.73 1775.74,-203.8"/>
<polygon fill="midnightblue" stroke="midnightblue" points="1777.7,-206.7 1784.6,-198.65 1774.19,-200.65 1777.7,-206.7"/>
</g>
<!-- Node45 -->
<g id="node45" class="node">
<title>Node45</title>
<g id="a_node45"><a xlink:title=" ">
<polygon fill="none" stroke="#bfbfbf" points="1857,-179.5 1857,-198.5 1910,-198.5 1910,-179.5 1857,-179.5"/>
<text text-anchor="middle" x="1883.5" y="-186.5" font-family="Helvetica,sans-Serif" font-size="10.00">stdint.h</text>
</a>
</g>
</g>
<!-- Node38&#45;&gt;Node45 -->
<g id="edge54" class="edge">
<title>Node38&#45;&gt;Node45</title>
<path fill="none" stroke="midnightblue" d="M1734.55,-235.44C1764.94,-226.17 1813.54,-211.34 1846.91,-201.16"/>
<polygon fill="midnightblue" stroke="midnightblue" points="1848.2,-204.43 1856.74,-198.16 1846.16,-197.73 1848.2,-204.43"/>
</g>
<!-- Node46 -->
<g id="node46" class="node">
<title>Node46</title>
<g id="a_node46"><a xlink:title=" ">
<polygon fill="none" stroke="#bfbfbf" points="1928,-179.5 1928,-198.5 1997,-198.5 1997,-179.5 1928,-179.5"/>
<text text-anchor="middle" x="1962.5" y="-186.5" font-family="Helvetica,sans-Serif" font-size="10.00">sys/epoll.h</text>
</a>
</g>
</g>
<!-- Node38&#45;&gt;Node46 -->
<g id="edge55" class="edge">
<title>Node38&#45;&gt;Node46</title>
<path fill="none" stroke="midnightblue" d="M1747.06,-235.44C1793.66,-225.61 1869.86,-209.54 1918.04,-199.38"/>
<polygon fill="midnightblue" stroke="midnightblue" points="1918.81,-202.79 1927.87,-197.3 1917.37,-195.94 1918.81,-202.79"/>
</g>
<!-- Node47 -->
<g id="node47" class="node">
<title>Node47</title>
<g id="a_node47"><a xlink:title=" ">
<polygon fill="none" stroke="#bfbfbf" points="2015,-179.5 2015,-198.5 2084,-198.5 2084,-179.5 2015,-179.5"/>
<text text-anchor="middle" x="2049.5" y="-186.5" font-family="Helvetica,sans-Serif" font-size="10.00">arpa/inet.h</text>
</a>
</g>
</g>
<!-- Node38&#45;&gt;Node47 -->
<g id="edge56" class="edge">
<title>Node38&#45;&gt;Node47</title>
<path fill="none" stroke="midnightblue" d="M1770.46,-235.49C1829.06,-227.45 1918.44,-214.56 2004.83,-199.23"/>
<polygon fill="midnightblue" stroke="midnightblue" points="2005.57,-202.65 2014.8,-197.44 2004.34,-195.76 2005.57,-202.65"/>
</g>
<!-- Node48 -->
<g id="node48" class="node">
<title>Node48</title>
<g id="a_node48"><a xlink:title=" ">
<polygon fill="none" stroke="#bfbfbf" points="2102,-179.5 2102,-198.5 2179,-198.5 2179,-179.5 2102,-179.5"/>
<text text-anchor="middle" x="2140.5" y="-186.5" font-family="Helvetica,sans-Serif" font-size="10.00">sys/socket.h</text>
</a>
</g>
</g>
<!-- Node38&#45;&gt;Node48 -->
<g id="edge57" class="edge">
<title>Node38&#45;&gt;Node48</title>
<path fill="none" stroke="midnightblue" d="M1788.27,-236.25C1864.46,-228.63 1981.44,-215.9 2091.83,-199.17"/>
<polygon fill="midnightblue" stroke="midnightblue" points="2092.45,-202.61 2101.81,-197.64 2091.4,-195.69 2092.45,-202.61"/>
</g>
<!-- Node49 -->
<g id="node49" class="node">
<title>Node49</title>
<g id="a_node49"><a xlink:title=" ">
<polygon fill="none" stroke="#bfbfbf" points="2197.5,-179.5 2197.5,-198.5 2269.5,-198.5 2269.5,-179.5 2197.5,-179.5"/>
<text text-anchor="middle" x="2233.5" y="-186.5" font-family="Helvetica,sans-Serif" font-size="10.00">sys/types.h</text>
</a>
</g>
</g>
<!-- Node38&#45;&gt;Node49 -->
<g id="edge58" class="edge">
<title>Node38&#45;&gt;Node49</title>
<path fill="none" stroke="midnightblue" d="M1788.25,-238.98C1882.22,-232.61 2041.24,-220.05 2187.17,-199.06"/>
<polygon fill="midnightblue" stroke="midnightblue" points="2187.82,-202.5 2197.21,-197.6 2186.81,-195.57 2187.82,-202.5"/>
</g>
<!-- Node50 -->
<g id="node50" class="node">
<title>Node50</title>
<g id="a_node50"><a xlink:title=" ">
<polygon fill="none" stroke="#bfbfbf" points="2287.5,-179.5 2287.5,-198.5 2343.5,-198.5 2343.5,-179.5 2287.5,-179.5"/>
<text text-anchor="middle" x="2315.5" y="-186.5" font-family="Helvetica,sans-Serif" font-size="10.00">unistd.h</text>
</a>
</g>
</g>
<!-- Node38&#45;&gt;Node50 -->
<g id="edge59" class="edge">
<title>Node38&#45;&gt;Node50</title>
<path fill="none" stroke="midnightblue" d="M1788.45,-241.67C1897.93,-237.64 2097.99,-227.07 2277.43,-198.92"/>
<polygon fill="midnightblue" stroke="midnightblue" points="2277.99,-202.38 2287.31,-197.35 2276.89,-195.46 2277.99,-202.38"/>
</g>
<!-- Node52&#45;&gt;Node2 -->
<g id="edge62" class="edge">
<title>Node52&#45;&gt;Node2</title>
<path fill="none" stroke="midnightblue" d="M1668.3,-412.46C1899.79,-411.47 2555.73,-390.45 2352.5,-179 2311.24,-136.07 1438.53,-129.63 1162.46,-128.67"/>
<polygon fill="midnightblue" stroke="midnightblue" points="1162.12,-125.17 1152.1,-128.63 1162.09,-132.17 1162.12,-125.17"/>
</g>
</g>
</svg>
