<?xml version="1.0" encoding="UTF-8" standalone="no"?>
<!DOCTYPE svg PUBLIC "-//W3C//DTD SVG 1.1//EN"
 "http://www.w3.org/Graphics/SVG/1.1/DTD/svg11.dtd">
<!-- Generated by graphviz version 3.0.0 (20220226.1711)
 -->
<!-- Title: RoleEntities.hpp Pages: 1 -->
<svg width="2275pt" height="733pt"
 viewBox="0.00 0.00 2274.70 733.00" xmlns="http://www.w3.org/2000/svg" xmlns:xlink="http://www.w3.org/1999/xlink">
<g id="graph0" class="graph" transform="scale(1 1) rotate(0) translate(4 729)">
<title>RoleEntities.hpp</title>
<!-- Node1 -->
<g id="node1" class="node">
<title>Node1</title>
<g id="a_node1"><a xlink:title=" ">
<polygon fill="#bfbfbf" stroke="black" points="843.5,-705.5 843.5,-724.5 931.5,-724.5 931.5,-705.5 843.5,-705.5"/>
<text text-anchor="middle" x="887.5" y="-712.5" font-family="Helvetica,sans-Serif" font-size="10.00">RoleEntities.hpp</text>
</a>
</g>
</g>
<!-- Node2 -->
<g id="node2" class="node">
<title>Node2</title>
<g id="a_node2"><a xlink:href="../../d4/deb/a00710.html" target="_top" xlink:title=" ">
<polygon fill="none" stroke="black" points="962,-112.5 962,-142.5 1093,-142.5 1093,-112.5 962,-112.5"/>
<text text-anchor="start" x="970" y="-130.5" font-family="Helvetica,sans-Serif" font-size="10.00">discordcoreapi/Foundation</text>
<text text-anchor="middle" x="1027.5" y="-119.5" font-family="Helvetica,sans-Serif" font-size="10.00">Entities.hpp</text>
</a>
</g>
</g>
<!-- Node1&#45;&gt;Node2 -->
<g id="edge1" class="edge">
<title>Node1&#45;&gt;Node2</title>
<path fill="none" stroke="midnightblue" d="M843.17,-710.28C737.68,-700.22 480.5,-668.01 480.5,-593 480.5,-593 480.5,-593 480.5,-244 480.5,-205.87 502.7,-196.64 536.5,-179 606.81,-142.3 832.15,-132.27 951.57,-129.53"/>
<polygon fill="midnightblue" stroke="midnightblue" points="951.81,-133.03 961.73,-129.31 951.66,-126.03 951.81,-133.03"/>
</g>
<!-- Node28 -->
<g id="node28" class="node">
<title>Node28</title>
<g id="a_node28"><a xlink:href="../../d2/d94/a00716.html" target="_top" xlink:title=" ">
<polygon fill="none" stroke="black" points="817.5,-638.5 817.5,-668.5 957.5,-668.5 957.5,-638.5 817.5,-638.5"/>
<text text-anchor="start" x="825.5" y="-656.5" font-family="Helvetica,sans-Serif" font-size="10.00">discordcoreapi/GuildMember</text>
<text text-anchor="middle" x="887.5" y="-645.5" font-family="Helvetica,sans-Serif" font-size="10.00">Entities.hpp</text>
</a>
</g>
</g>
<!-- Node1&#45;&gt;Node28 -->
<g id="edge27" class="edge">
<title>Node1&#45;&gt;Node28</title>
<path fill="none" stroke="midnightblue" d="M887.5,-705.48C887.5,-698.47 887.5,-688.19 887.5,-678.7"/>
<polygon fill="midnightblue" stroke="midnightblue" points="891,-678.52 887.5,-668.52 884,-678.52 891,-678.52"/>
</g>
<!-- Node38 -->
<g id="node38" class="node">
<title>Node38</title>
<g id="a_node38"><a xlink:href="../../db/d7c/a00722.html" target="_top" xlink:title=" ">
<polygon fill="none" stroke="black" points="1559,-291.5 1559,-310.5 1684,-310.5 1684,-291.5 1559,-291.5"/>
<text text-anchor="middle" x="1621.5" y="-298.5" font-family="Helvetica,sans-Serif" font-size="10.00">discordcoreapi/Https.hpp</text>
</a>
</g>
</g>
<!-- Node1&#45;&gt;Node38 -->
<g id="edge67" class="edge">
<title>Node1&#45;&gt;Node38</title>
<path fill="none" stroke="midnightblue" d="M931.78,-711.77C1095.82,-702.94 1659.5,-667.19 1659.5,-593 1659.5,-593 1659.5,-593 1659.5,-412 1659.5,-377.81 1642.9,-340.76 1631.64,-319.57"/>
<polygon fill="midnightblue" stroke="midnightblue" points="1634.68,-317.83 1626.78,-310.77 1628.55,-321.22 1634.68,-317.83"/>
</g>
<!-- Node3 -->
<g id="node3" class="node">
<title>Node3</title>
<g id="a_node3"><a xlink:href="../../d5/dae/a00767.html" target="_top" xlink:title=" ">
<polygon fill="none" stroke="black" points="960.5,-56.5 960.5,-75.5 1094.5,-75.5 1094.5,-56.5 960.5,-56.5"/>
<text text-anchor="middle" x="1027.5" y="-63.5" font-family="Helvetica,sans-Serif" font-size="10.00">discordcoreapi/Utilities.hpp</text>
</a>
</g>
</g>
<!-- Node2&#45;&gt;Node3 -->
<g id="edge2" class="edge">
<title>Node2&#45;&gt;Node3</title>
<path fill="none" stroke="midnightblue" d="M1027.5,-112.4C1027.5,-104.47 1027.5,-94.46 1027.5,-85.86"/>
<polygon fill="midnightblue" stroke="midnightblue" points="1031,-85.66 1027.5,-75.66 1024,-85.66 1031,-85.66"/>
</g>
<!-- Node4 -->
<g id="node4" class="node">
<title>Node4</title>
<g id="a_node4"><a xlink:title=" ">
<polygon fill="none" stroke="#bfbfbf" points="0,-0.5 0,-19.5 57,-19.5 57,-0.5 0,-0.5"/>
<text text-anchor="middle" x="28.5" y="-7.5" font-family="Helvetica,sans-Serif" font-size="10.00">pthread.h</text>
</a>
</g>
</g>
<!-- Node3&#45;&gt;Node4 -->
<g id="edge3" class="edge">
<title>Node3&#45;&gt;Node4</title>
<path fill="none" stroke="midnightblue" d="M960.37,-63.48C775.08,-59.03 258.15,-44.84 66.97,-19.72"/>
<polygon fill="midnightblue" stroke="midnightblue" points="67.41,-16.24 57.03,-18.36 66.46,-23.18 67.41,-16.24"/>
</g>
<!-- Node5 -->
<g id="node5" class="node">
<title>Node5</title>
<g id="a_node5"><a xlink:title=" ">
<polygon fill="none" stroke="#bfbfbf" points="75.5,-0.5 75.5,-19.5 137.5,-19.5 137.5,-0.5 75.5,-0.5"/>
<text text-anchor="middle" x="106.5" y="-7.5" font-family="Helvetica,sans-Serif" font-size="10.00">sys/time.h</text>
</a>
</g>
</g>
<!-- Node3&#45;&gt;Node5 -->
<g id="edge4" class="edge">
<title>Node3&#45;&gt;Node5</title>
<path fill="none" stroke="midnightblue" d="M960.27,-65.45C813.99,-65.6 455.87,-61.41 147.87,-19.95"/>
<polygon fill="midnightblue" stroke="midnightblue" points="148.23,-16.47 137.85,-18.58 147.29,-23.4 148.23,-16.47"/>
</g>
<!-- Node6 -->
<g id="node6" class="node">
<title>Node6</title>
<g id="a_node6"><a xlink:title=" ">
<polygon fill="none" stroke="#bfbfbf" points="155.5,-0.5 155.5,-19.5 199.5,-19.5 199.5,-0.5 155.5,-0.5"/>
<text text-anchor="middle" x="177.5" y="-7.5" font-family="Helvetica,sans-Serif" font-size="10.00">time.h</text>
</a>
</g>
</g>
<!-- Node3&#45;&gt;Node6 -->
<g id="edge5" class="edge">
<title>Node3&#45;&gt;Node6</title>
<path fill="none" stroke="midnightblue" d="M960.38,-63.28C795.18,-58.74 371.22,-45.13 209.95,-19.79"/>
<polygon fill="midnightblue" stroke="midnightblue" points="210.15,-16.28 199.71,-18.1 209.01,-23.18 210.15,-16.28"/>
</g>
<!-- Node7 -->
<g id="node7" class="node">
<title>Node7</title>
<g id="a_node7"><a xlink:title=" ">
<polygon fill="none" stroke="#bfbfbf" points="218,-0.5 218,-19.5 259,-19.5 259,-0.5 218,-0.5"/>
<text text-anchor="middle" x="238.5" y="-7.5" font-family="Helvetica,sans-Serif" font-size="10.00">ctime</text>
</a>
</g>
</g>
<!-- Node3&#45;&gt;Node7 -->
<g id="edge6" class="edge">
<title>Node3&#45;&gt;Node7</title>
<path fill="none" stroke="midnightblue" d="M960.23,-63.1C803.79,-58.36 418.13,-44.68 269.54,-19.91"/>
<polygon fill="midnightblue" stroke="midnightblue" points="269.71,-16.38 259.26,-18.1 268.5,-23.28 269.71,-16.38"/>
</g>
<!-- Node8 -->
<g id="node8" class="node">
<title>Node8</title>
<g id="a_node8"><a xlink:title=" ">
<polygon fill="none" stroke="#bfbfbf" points="277,-0.5 277,-19.5 370,-19.5 370,-0.5 277,-0.5"/>
<text text-anchor="middle" x="323.5" y="-7.5" font-family="Helvetica,sans-Serif" font-size="10.00">condition_variable</text>
</a>
</g>
</g>
<!-- Node3&#45;&gt;Node8 -->
<g id="edge7" class="edge">
<title>Node3&#45;&gt;Node8</title>
<path fill="none" stroke="midnightblue" d="M960.15,-62.32C843.98,-57.27 598.27,-44.64 380.24,-19.97"/>
<polygon fill="midnightblue" stroke="midnightblue" points="380.54,-16.49 370.21,-18.83 379.75,-23.44 380.54,-16.49"/>
</g>
<!-- Node9 -->
<g id="node9" class="node">
<title>Node9</title>
<g id="a_node9"><a xlink:title=" ">
<polygon fill="none" stroke="#bfbfbf" points="388.5,-0.5 388.5,-19.5 486.5,-19.5 486.5,-0.5 388.5,-0.5"/>
<text text-anchor="middle" x="437.5" y="-7.5" font-family="Helvetica,sans-Serif" font-size="10.00">nlohmann/json.hpp</text>
</a>
</g>
</g>
<!-- Node3&#45;&gt;Node9 -->
<g id="edge8" class="edge">
<title>Node3&#45;&gt;Node9</title>
<path fill="none" stroke="midnightblue" d="M960.16,-60.81C860.97,-54.31 669.55,-40.48 496.57,-20.05"/>
<polygon fill="midnightblue" stroke="midnightblue" points="496.86,-16.56 486.51,-18.85 496.03,-23.51 496.86,-16.56"/>
</g>
<!-- Node10 -->
<g id="node10" class="node">
<title>Node10</title>
<g id="a_node10"><a xlink:title=" ">
<polygon fill="none" stroke="#bfbfbf" points="505,-0.5 505,-19.5 590,-19.5 590,-0.5 505,-0.5"/>
<text text-anchor="middle" x="547.5" y="-7.5" font-family="Helvetica,sans-Serif" font-size="10.00">source_location</text>
</a>
</g>
</g>
<!-- Node3&#45;&gt;Node10 -->
<g id="edge9" class="edge">
<title>Node3&#45;&gt;Node10</title>
<path fill="none" stroke="midnightblue" d="M960.44,-59.43C877.93,-52.25 733.33,-38.61 600.03,-20.13"/>
<polygon fill="midnightblue" stroke="midnightblue" points="600.43,-16.66 590.04,-18.74 599.46,-23.59 600.43,-16.66"/>
</g>
<!-- Node11 -->
<g id="node11" class="node">
<title>Node11</title>
<g id="a_node11"><a xlink:title=" ">
<polygon fill="none" stroke="#bfbfbf" points="608,-0.5 608,-19.5 691,-19.5 691,-0.5 608,-0.5"/>
<text text-anchor="middle" x="649.5" y="-7.5" font-family="Helvetica,sans-Serif" font-size="10.00">unordered_map</text>
</a>
</g>
</g>
<!-- Node3&#45;&gt;Node11 -->
<g id="edge10" class="edge">
<title>Node3&#45;&gt;Node11</title>
<path fill="none" stroke="midnightblue" d="M960.38,-56.52C896.46,-48.27 797.29,-35.03 701.39,-20.09"/>
<polygon fill="midnightblue" stroke="midnightblue" points="701.65,-16.59 691.23,-18.5 700.56,-23.5 701.65,-16.59"/>
</g>
<!-- Node12 -->
<g id="node12" class="node">
<title>Node12</title>
<g id="a_node12"><a xlink:title=" ">
<polygon fill="none" stroke="#bfbfbf" points="709.5,-0.5 709.5,-19.5 787.5,-19.5 787.5,-0.5 709.5,-0.5"/>
<text text-anchor="middle" x="748.5" y="-7.5" font-family="Helvetica,sans-Serif" font-size="10.00">shared_mutex</text>
</a>
</g>
</g>
<!-- Node3&#45;&gt;Node12 -->
<g id="edge11" class="edge">
<title>Node3&#45;&gt;Node12</title>
<path fill="none" stroke="midnightblue" d="M983.29,-56.44C932.73,-46.66 850.18,-30.68 797.64,-20.51"/>
<polygon fill="midnightblue" stroke="midnightblue" points="798.03,-17.02 787.55,-18.56 796.7,-23.89 798.03,-17.02"/>
</g>
<!-- Node13 -->
<g id="node13" class="node">
<title>Node13</title>
<g id="a_node13"><a xlink:title=" ">
<polygon fill="none" stroke="#bfbfbf" points="805.5,-0.5 805.5,-19.5 863.5,-19.5 863.5,-0.5 805.5,-0.5"/>
<text text-anchor="middle" x="834.5" y="-7.5" font-family="Helvetica,sans-Serif" font-size="10.00">functional</text>
</a>
</g>
</g>
<!-- Node3&#45;&gt;Node13 -->
<g id="edge12" class="edge">
<title>Node3&#45;&gt;Node13</title>
<path fill="none" stroke="midnightblue" d="M996.92,-56.44C963.5,-47.09 909.87,-32.09 873.46,-21.9"/>
<polygon fill="midnightblue" stroke="midnightblue" points="874.25,-18.49 863.67,-19.16 872.36,-25.23 874.25,-18.49"/>
</g>
<!-- Node14 -->
<g id="node14" class="node">
<title>Node14</title>
<g id="a_node14"><a xlink:title=" ">
<polygon fill="none" stroke="#bfbfbf" points="881.5,-0.5 881.5,-19.5 937.5,-19.5 937.5,-0.5 881.5,-0.5"/>
<text text-anchor="middle" x="909.5" y="-7.5" font-family="Helvetica,sans-Serif" font-size="10.00">coroutine</text>
</a>
</g>
</g>
<!-- Node3&#45;&gt;Node14 -->
<g id="edge13" class="edge">
<title>Node3&#45;&gt;Node14</title>
<path fill="none" stroke="midnightblue" d="M1008.8,-56.44C989.56,-47.64 959.35,-33.81 937.3,-23.72"/>
<polygon fill="midnightblue" stroke="midnightblue" points="938.66,-20.5 928.11,-19.52 935.75,-26.86 938.66,-20.5"/>
</g>
<!-- Node15 -->
<g id="node15" class="node">
<title>Node15</title>
<g id="a_node15"><a xlink:title=" ">
<polygon fill="none" stroke="#bfbfbf" points="956,-0.5 956,-19.5 1021,-19.5 1021,-0.5 956,-0.5"/>
<text text-anchor="middle" x="988.5" y="-7.5" font-family="Helvetica,sans-Serif" font-size="10.00">semaphore</text>
</a>
</g>
</g>
<!-- Node3&#45;&gt;Node15 -->
<g id="edge14" class="edge">
<title>Node3&#45;&gt;Node15</title>
<path fill="none" stroke="midnightblue" d="M1021.06,-56.08C1015.55,-48.46 1007.47,-37.26 1000.74,-27.94"/>
<polygon fill="midnightblue" stroke="midnightblue" points="1003.51,-25.81 994.82,-19.75 997.84,-29.91 1003.51,-25.81"/>
</g>
<!-- Node16 -->
<g id="node16" class="node">
<title>Node16</title>
<g id="a_node16"><a xlink:title=" ">
<polygon fill="none" stroke="#bfbfbf" points="1039.5,-0.5 1039.5,-19.5 1095.5,-19.5 1095.5,-0.5 1039.5,-0.5"/>
<text text-anchor="middle" x="1067.5" y="-7.5" font-family="Helvetica,sans-Serif" font-size="10.00">concepts</text>
</a>
</g>
</g>
<!-- Node3&#45;&gt;Node16 -->
<g id="edge15" class="edge">
<title>Node3&#45;&gt;Node16</title>
<path fill="none" stroke="midnightblue" d="M1034.11,-56.08C1039.76,-48.46 1048.04,-37.26 1054.95,-27.94"/>
<polygon fill="midnightblue" stroke="midnightblue" points="1057.88,-29.87 1061.02,-19.75 1052.25,-25.7 1057.88,-29.87"/>
</g>
<!-- Node17 -->
<g id="node17" class="node">
<title>Node17</title>
<g id="a_node17"><a xlink:title=" ">
<polygon fill="none" stroke="#bfbfbf" points="1113.5,-0.5 1113.5,-19.5 1167.5,-19.5 1167.5,-0.5 1113.5,-0.5"/>
<text text-anchor="middle" x="1140.5" y="-7.5" font-family="Helvetica,sans-Serif" font-size="10.00">iostream</text>
</a>
</g>
</g>
<!-- Node3&#45;&gt;Node17 -->
<g id="edge16" class="edge">
<title>Node3&#45;&gt;Node17</title>
<path fill="none" stroke="midnightblue" d="M1045.41,-56.44C1063.75,-47.68 1092.51,-33.94 1113.59,-23.86"/>
<polygon fill="midnightblue" stroke="midnightblue" points="1115.17,-26.99 1122.68,-19.52 1112.15,-20.67 1115.17,-26.99"/>
</g>
<!-- Node18 -->
<g id="node18" class="node">
<title>Node18</title>
<g id="a_node18"><a xlink:title=" ">
<polygon fill="none" stroke="#bfbfbf" points="1186,-0.5 1186,-19.5 1235,-19.5 1235,-0.5 1186,-0.5"/>
<text text-anchor="middle" x="1210.5" y="-7.5" font-family="Helvetica,sans-Serif" font-size="10.00">fstream</text>
</a>
</g>
</g>
<!-- Node3&#45;&gt;Node18 -->
<g id="edge17" class="edge">
<title>Node3&#45;&gt;Node18</title>
<path fill="none" stroke="midnightblue" d="M1056.5,-56.44C1088.97,-46.86 1141.56,-31.34 1176.09,-21.15"/>
<polygon fill="midnightblue" stroke="midnightblue" points="1177.15,-24.49 1185.75,-18.3 1175.17,-17.78 1177.15,-24.49"/>
</g>
<!-- Node19 -->
<g id="node19" class="node">
<title>Node19</title>
<g id="a_node19"><a xlink:title=" ">
<polygon fill="none" stroke="#bfbfbf" points="1253,-0.5 1253,-19.5 1294,-19.5 1294,-0.5 1253,-0.5"/>
<text text-anchor="middle" x="1273.5" y="-7.5" font-family="Helvetica,sans-Serif" font-size="10.00">bitset</text>
</a>
</g>
</g>
<!-- Node3&#45;&gt;Node19 -->
<g id="edge18" class="edge">
<title>Node3&#45;&gt;Node19</title>
<path fill="none" stroke="midnightblue" d="M1074.11,-56.49C1115.89,-48.59 1179.04,-36 1243.05,-19.93"/>
<polygon fill="midnightblue" stroke="midnightblue" points="1244.08,-23.28 1252.91,-17.43 1242.35,-16.5 1244.08,-23.28"/>
</g>
<!-- Node20 -->
<g id="node20" class="node">
<title>Node20</title>
<g id="a_node20"><a xlink:title=" ">
<polygon fill="none" stroke="#bfbfbf" points="1312.5,-0.5 1312.5,-19.5 1364.5,-19.5 1364.5,-0.5 1312.5,-0.5"/>
<text text-anchor="middle" x="1338.5" y="-7.5" font-family="Helvetica,sans-Serif" font-size="10.00">memory</text>
</a>
</g>
</g>
<!-- Node3&#45;&gt;Node20 -->
<g id="edge19" class="edge">
<title>Node3&#45;&gt;Node20</title>
<path fill="none" stroke="midnightblue" d="M1088.66,-56.47C1142.27,-48.66 1222.51,-36.17 1302.02,-19.94"/>
<polygon fill="midnightblue" stroke="midnightblue" points="1303.12,-23.29 1312.21,-17.84 1301.71,-16.43 1303.12,-23.29"/>
</g>
<!-- Node21 -->
<g id="node21" class="node">
<title>Node21</title>
<g id="a_node21"><a xlink:title=" ">
<polygon fill="none" stroke="#bfbfbf" points="1383,-0.5 1383,-19.5 1432,-19.5 1432,-0.5 1383,-0.5"/>
<text text-anchor="middle" x="1407.5" y="-7.5" font-family="Helvetica,sans-Serif" font-size="10.00">random</text>
</a>
</g>
</g>
<!-- Node3&#45;&gt;Node21 -->
<g id="edge20" class="edge">
<title>Node3&#45;&gt;Node21</title>
<path fill="none" stroke="midnightblue" d="M1094.57,-58.88C1162.39,-52.1 1270.35,-39.7 1372.81,-19.9"/>
<polygon fill="midnightblue" stroke="midnightblue" points="1373.56,-23.32 1382.7,-17.96 1372.22,-16.45 1373.56,-23.32"/>
</g>
<!-- Node22 -->
<g id="node22" class="node">
<title>Node22</title>
<g id="a_node22"><a xlink:title=" ">
<polygon fill="none" stroke="#bfbfbf" points="1450,-0.5 1450,-19.5 1491,-19.5 1491,-0.5 1450,-0.5"/>
<text text-anchor="middle" x="1470.5" y="-7.5" font-family="Helvetica,sans-Serif" font-size="10.00">string</text>
</a>
</g>
</g>
<!-- Node3&#45;&gt;Node22 -->
<g id="edge21" class="edge">
<title>Node3&#45;&gt;Node22</title>
<path fill="none" stroke="midnightblue" d="M1094.6,-61.47C1174.71,-56.41 1312.75,-45.03 1440.04,-19.71"/>
<polygon fill="midnightblue" stroke="midnightblue" points="1440.86,-23.11 1449.97,-17.7 1439.47,-16.25 1440.86,-23.11"/>
</g>
<!-- Node23 -->
<g id="node23" class="node">
<title>Node23</title>
<g id="a_node23"><a xlink:title=" ">
<polygon fill="none" stroke="#bfbfbf" points="1509.5,-0.5 1509.5,-19.5 1551.5,-19.5 1551.5,-0.5 1509.5,-0.5"/>
<text text-anchor="middle" x="1530.5" y="-7.5" font-family="Helvetica,sans-Serif" font-size="10.00">vector</text>
</a>
</g>
</g>
<!-- Node3&#45;&gt;Node23 -->
<g id="edge22" class="edge">
<title>Node3&#45;&gt;Node23</title>
<path fill="none" stroke="midnightblue" d="M1094.89,-62.55C1186.99,-58.3 1357,-47.23 1499.5,-20 1499.6,-19.98 1499.7,-19.96 1499.8,-19.94"/>
<polygon fill="midnightblue" stroke="midnightblue" points="1500.34,-23.41 1509.28,-17.73 1498.75,-16.59 1500.34,-23.41"/>
</g>
<!-- Node24 -->
<g id="node24" class="node">
<title>Node24</title>
<g id="a_node24"><a xlink:title=" ">
<polygon fill="none" stroke="#bfbfbf" points="1569.5,-0.5 1569.5,-19.5 1613.5,-19.5 1613.5,-0.5 1569.5,-0.5"/>
<text text-anchor="middle" x="1591.5" y="-7.5" font-family="Helvetica,sans-Serif" font-size="10.00">thread</text>
</a>
</g>
</g>
<!-- Node3&#45;&gt;Node24 -->
<g id="edge23" class="edge">
<title>Node3&#45;&gt;Node24</title>
<path fill="none" stroke="midnightblue" d="M1094.54,-63.59C1194.19,-60.57 1387.25,-51.11 1559.28,-19.87"/>
<polygon fill="midnightblue" stroke="midnightblue" points="1560.08,-23.28 1569.28,-18.02 1558.81,-16.4 1560.08,-23.28"/>
</g>
<!-- Node25 -->
<g id="node25" class="node">
<title>Node25</title>
<g id="a_node25"><a xlink:title=" ">
<polygon fill="none" stroke="#bfbfbf" points="1631.5,-0.5 1631.5,-19.5 1675.5,-19.5 1675.5,-0.5 1631.5,-0.5"/>
<text text-anchor="middle" x="1653.5" y="-7.5" font-family="Helvetica,sans-Serif" font-size="10.00">mutex</text>
</a>
</g>
</g>
<!-- Node3&#45;&gt;Node25 -->
<g id="edge24" class="edge">
<title>Node3&#45;&gt;Node25</title>
<path fill="none" stroke="midnightblue" d="M1094.55,-64.43C1203.49,-62.53 1425.62,-54.54 1621.39,-19.83"/>
<polygon fill="midnightblue" stroke="midnightblue" points="1622.06,-23.26 1631.28,-18.05 1620.82,-16.38 1622.06,-23.26"/>
</g>
<!-- Node26 -->
<g id="node26" class="node">
<title>Node26</title>
<g id="a_node26"><a xlink:title=" ">
<polygon fill="none" stroke="#bfbfbf" points="1694,-0.5 1694,-19.5 1737,-19.5 1737,-0.5 1694,-0.5"/>
<text text-anchor="middle" x="1715.5" y="-7.5" font-family="Helvetica,sans-Serif" font-size="10.00">queue</text>
</a>
</g>
</g>
<!-- Node3&#45;&gt;Node26 -->
<g id="edge25" class="edge">
<title>Node3&#45;&gt;Node26</title>
<path fill="none" stroke="midnightblue" d="M1094.76,-65.12C1212.54,-64.3 1463.7,-57.97 1683.83,-19.68"/>
<polygon fill="midnightblue" stroke="midnightblue" points="1684.72,-23.08 1693.96,-17.89 1683.5,-16.19 1684.72,-23.08"/>
</g>
<!-- Node27 -->
<g id="node27" class="node">
<title>Node27</title>
<g id="a_node27"><a xlink:title=" ">
<polygon fill="none" stroke="#bfbfbf" points="1755,-0.5 1755,-19.5 1790,-19.5 1790,-0.5 1755,-0.5"/>
<text text-anchor="middle" x="1772.5" y="-7.5" font-family="Helvetica,sans-Serif" font-size="10.00">map</text>
</a>
</g>
</g>
<!-- Node3&#45;&gt;Node27 -->
<g id="edge26" class="edge">
<title>Node3&#45;&gt;Node27</title>
<path fill="none" stroke="midnightblue" d="M1094.59,-63.12C1244.69,-58.54 1604.8,-45.43 1744.69,-19.79"/>
<polygon fill="midnightblue" stroke="midnightblue" points="1745.62,-23.18 1754.77,-17.85 1744.29,-16.31 1745.62,-23.18"/>
</g>
<!-- Node28&#45;&gt;Node2 -->
<g id="edge28" class="edge">
<title>Node28&#45;&gt;Node2</title>
<path fill="none" stroke="midnightblue" d="M817.23,-644.01C710.16,-629.09 518.5,-593.69 518.5,-531.5 518.5,-531.5 518.5,-531.5 518.5,-244 518.5,-206.16 540.1,-196.8 573.5,-179 637.21,-145.05 839.93,-133.84 951.71,-130.21"/>
<polygon fill="midnightblue" stroke="midnightblue" points="952.02,-133.7 961.91,-129.89 951.8,-126.7 952.02,-133.7"/>
</g>
<!-- Node29 -->
<g id="node29" class="node">
<title>Node29</title>
<g id="a_node29"><a xlink:href="../../d3/d2c/a00764.html" target="_top" xlink:title=" ">
<polygon fill="none" stroke="black" points="810,-582.5 810,-601.5 965,-601.5 965,-582.5 810,-582.5"/>
<text text-anchor="middle" x="887.5" y="-589.5" font-family="Helvetica,sans-Serif" font-size="10.00">discordcoreapi/UserEntities.hpp</text>
</a>
</g>
</g>
<!-- Node28&#45;&gt;Node29 -->
<g id="edge29" class="edge">
<title>Node28&#45;&gt;Node29</title>
<path fill="none" stroke="midnightblue" d="M887.5,-638.4C887.5,-630.47 887.5,-620.46 887.5,-611.86"/>
<polygon fill="midnightblue" stroke="midnightblue" points="891,-611.66 887.5,-601.66 884,-611.66 891,-611.66"/>
</g>
<!-- Node28&#45;&gt;Node38 -->
<g id="edge66" class="edge">
<title>Node28&#45;&gt;Node38</title>
<path fill="none" stroke="midnightblue" d="M957.55,-648.27C1141.01,-636.24 1621.5,-598.38 1621.5,-531.5 1621.5,-531.5 1621.5,-531.5 1621.5,-412 1621.5,-379.95 1621.5,-342.64 1621.5,-320.75"/>
<polygon fill="midnightblue" stroke="midnightblue" points="1625,-320.56 1621.5,-310.56 1618,-320.56 1625,-320.56"/>
</g>
<!-- Node29&#45;&gt;Node2 -->
<g id="edge30" class="edge">
<title>Node29&#45;&gt;Node2</title>
<path fill="none" stroke="midnightblue" d="M832.1,-582.48C737.87,-566.42 556.5,-527.97 556.5,-470 556.5,-470 556.5,-470 556.5,-244 556.5,-207.28 575.5,-197.01 607.5,-179 664.72,-146.8 846.88,-134.95 951.56,-130.72"/>
<polygon fill="midnightblue" stroke="midnightblue" points="951.89,-134.21 961.75,-130.33 951.62,-127.22 951.89,-134.21"/>
</g>
<!-- Node30 -->
<g id="node30" class="node">
<title>Node30</title>
<g id="a_node30"><a xlink:href="../../d9/dd4/a00776.html" target="_top" xlink:title=" ">
<polygon fill="none" stroke="black" points="1021.5,-515.5 1021.5,-545.5 1155.5,-545.5 1155.5,-515.5 1021.5,-515.5"/>
<text text-anchor="start" x="1029.5" y="-533.5" font-family="Helvetica,sans-Serif" font-size="10.00">discordcoreapi/WebSocket</text>
<text text-anchor="middle" x="1088.5" y="-522.5" font-family="Helvetica,sans-Serif" font-size="10.00">Entities.hpp</text>
</a>
</g>
</g>
<!-- Node29&#45;&gt;Node30 -->
<g id="edge31" class="edge">
<title>Node29&#45;&gt;Node30</title>
<path fill="none" stroke="midnightblue" d="M916.3,-582.48C946.19,-573.63 993.75,-559.55 1031.32,-548.43"/>
<polygon fill="midnightblue" stroke="midnightblue" points="1032.53,-551.72 1041.13,-545.52 1030.55,-545.01 1032.53,-551.72"/>
</g>
<!-- Node30&#45;&gt;Node2 -->
<g id="edge32" class="edge">
<title>Node30&#45;&gt;Node2</title>
<path fill="none" stroke="midnightblue" d="M1021.36,-527.73C886.29,-522.33 594.5,-500.65 594.5,-414 594.5,-414 594.5,-414 594.5,-244 594.5,-209.11 608.8,-197.31 638.5,-179 689.38,-147.64 853.38,-135.54 951.45,-131.03"/>
<polygon fill="midnightblue" stroke="midnightblue" points="951.77,-134.52 961.61,-130.58 951.46,-127.53 951.77,-134.52"/>
</g>
<!-- Node31 -->
<g id="node31" class="node">
<title>Node31</title>
<g id="a_node31"><a xlink:href="../../d4/d9b/a00680.html" target="_top" xlink:title=" ">
<polygon fill="none" stroke="black" points="778.5,-235.5 778.5,-254.5 940.5,-254.5 940.5,-235.5 778.5,-235.5"/>
<text text-anchor="middle" x="859.5" y="-242.5" font-family="Helvetica,sans-Serif" font-size="10.00">discordcoreapi/AudioDecoder.hpp</text>
</a>
</g>
</g>
<!-- Node30&#45;&gt;Node31 -->
<g id="edge33" class="edge">
<title>Node30&#45;&gt;Node31</title>
<path fill="none" stroke="midnightblue" d="M1033.43,-515.42C985.79,-499.53 924.5,-468.5 924.5,-414 924.5,-414 924.5,-414 924.5,-356 924.5,-318.18 895.66,-281.94 876.41,-261.96"/>
<polygon fill="midnightblue" stroke="midnightblue" points="878.64,-259.24 869.09,-254.66 873.7,-264.2 878.64,-259.24"/>
</g>
<!-- Node32 -->
<g id="node32" class="node">
<title>Node32</title>
<g id="a_node32"><a xlink:href="../../d4/d6a/a00704.html" target="_top" xlink:title=" ">
<polygon fill="none" stroke="black" points="948.5,-179.5 948.5,-198.5 1106.5,-198.5 1106.5,-179.5 948.5,-179.5"/>
<text text-anchor="middle" x="1027.5" y="-186.5" font-family="Helvetica,sans-Serif" font-size="10.00">discordcoreapi/EventEntities.hpp</text>
</a>
</g>
</g>
<!-- Node30&#45;&gt;Node32 -->
<g id="edge63" class="edge">
<title>Node30&#45;&gt;Node32</title>
<path fill="none" stroke="midnightblue" d="M1073.87,-515.21C1064.85,-505.69 1053.68,-492.49 1046.5,-479 1032.36,-452.43 1027.5,-444.1 1027.5,-414 1027.5,-414 1027.5,-414 1027.5,-300 1027.5,-267.95 1027.5,-230.64 1027.5,-208.75"/>
<polygon fill="midnightblue" stroke="midnightblue" points="1031,-208.56 1027.5,-198.56 1024,-208.56 1031,-208.56"/>
</g>
<!-- Node35 -->
<g id="node35" class="node">
<title>Node35</title>
<g id="a_node35"><a xlink:href="../../d0/db6/a00692.html" target="_top" xlink:title=" ">
<polygon fill="none" stroke="black" points="1056,-459.5 1056,-478.5 1243,-478.5 1243,-459.5 1056,-459.5"/>
<text text-anchor="middle" x="1149.5" y="-466.5" font-family="Helvetica,sans-Serif" font-size="10.00">discordcoreapi/CommandController.hpp</text>
</a>
</g>
</g>
<!-- Node30&#45;&gt;Node35 -->
<g id="edge39" class="edge">
<title>Node30&#45;&gt;Node35</title>
<path fill="none" stroke="midnightblue" d="M1102.96,-515.4C1112.09,-506.49 1123.92,-494.95 1133.36,-485.74"/>
<polygon fill="midnightblue" stroke="midnightblue" points="1135.91,-488.15 1140.62,-478.66 1131.02,-483.13 1135.91,-488.15"/>
</g>
<!-- Node37 -->
<g id="node37" class="node">
<title>Node37</title>
<g id="a_node37"><a xlink:href="../../d3/d4f/a00761.html" target="_top" xlink:title=" ">
<polygon fill="none" stroke="black" points="1211.5,-347.5 1211.5,-366.5 1361.5,-366.5 1361.5,-347.5 1211.5,-347.5"/>
<text text-anchor="middle" x="1286.5" y="-354.5" font-family="Helvetica,sans-Serif" font-size="10.00">discordcoreapi/ThreadPool.hpp</text>
</a>
</g>
</g>
<!-- Node30&#45;&gt;Node37 -->
<g id="edge65" class="edge">
<title>Node30&#45;&gt;Node37</title>
<path fill="none" stroke="midnightblue" d="M1154.8,-515.44C1185.4,-507.35 1221.5,-495.47 1251.5,-479 1285.22,-460.49 1301.34,-457.91 1317.5,-423 1325.17,-406.43 1314.01,-387.62 1303,-374.51"/>
<polygon fill="midnightblue" stroke="midnightblue" points="1305.3,-371.84 1295.98,-366.8 1300.12,-376.55 1305.3,-371.84"/>
</g>
<!-- Node39 -->
<g id="node39" class="node">
<title>Node39</title>
<g id="a_node39"><a xlink:href="../../d5/de8/a00749.html" target="_top" xlink:title=" ">
<polygon fill="none" stroke="black" points="1546.5,-235.5 1546.5,-254.5 1696.5,-254.5 1696.5,-235.5 1546.5,-235.5"/>
<text text-anchor="middle" x="1621.5" y="-242.5" font-family="Helvetica,sans-Serif" font-size="10.00">discordcoreapi/SSLClients.hpp</text>
</a>
</g>
</g>
<!-- Node30&#45;&gt;Node39 -->
<g id="edge64" class="edge">
<title>Node30&#45;&gt;Node39</title>
<path fill="none" stroke="midnightblue" d="M1155.65,-518.09C1245.73,-500.84 1394.5,-464.68 1394.5,-414 1394.5,-414 1394.5,-414 1394.5,-356 1394.5,-290.63 1471.67,-264.1 1536.02,-253.33"/>
<polygon fill="midnightblue" stroke="midnightblue" points="1536.89,-256.74 1546.23,-251.74 1535.81,-249.82 1536.89,-256.74"/>
</g>
<!-- Node52 -->
<g id="node52" class="node">
<title>Node52</title>
<g id="a_node52"><a xlink:href="../../dd/d57/a00701.html" target="_top" xlink:title=" ">
<polygon fill="none" stroke="black" points="1428.5,-403.5 1428.5,-422.5 1572.5,-422.5 1572.5,-403.5 1428.5,-403.5"/>
<text text-anchor="middle" x="1500.5" y="-410.5" font-family="Helvetica,sans-Serif" font-size="10.00">discordcoreapi/ErlPacker.hpp</text>
</a>
</g>
</g>
<!-- Node30&#45;&gt;Node52 -->
<g id="edge61" class="edge">
<title>Node30&#45;&gt;Node52</title>
<path fill="none" stroke="midnightblue" d="M1155.51,-527.76C1221.95,-524.02 1325.52,-512.7 1408.5,-479 1437.46,-467.24 1466.12,-444.82 1483.57,-429.64"/>
<polygon fill="midnightblue" stroke="midnightblue" points="1486.05,-432.12 1491.19,-422.85 1481.39,-426.9 1486.05,-432.12"/>
</g>
<!-- Node31&#45;&gt;Node2 -->
<g id="edge36" class="edge">
<title>Node31&#45;&gt;Node2</title>
<path fill="none" stroke="midnightblue" d="M778.26,-242.73C704.01,-238.74 611.4,-224.85 651.5,-179 670.94,-156.78 847.55,-140.91 951.67,-133.4"/>
<polygon fill="midnightblue" stroke="midnightblue" points="952.09,-136.88 961.82,-132.68 951.6,-129.9 952.09,-136.88"/>
</g>
<!-- Node31&#45;&gt;Node32 -->
<g id="edge34" class="edge">
<title>Node31&#45;&gt;Node32</title>
<path fill="none" stroke="midnightblue" d="M886.12,-235.44C914.51,-226.32 959.64,-211.81 991.25,-201.65"/>
<polygon fill="midnightblue" stroke="midnightblue" points="992.56,-204.91 1001,-198.52 990.41,-198.24 992.56,-204.91"/>
</g>
<!-- Node33 -->
<g id="node33" class="node">
<title>Node33</title>
<g id="a_node33"><a xlink:title=" ">
<polygon fill="none" stroke="#bfbfbf" points="660.5,-179.5 660.5,-198.5 770.5,-198.5 770.5,-179.5 660.5,-179.5"/>
<text text-anchor="middle" x="715.5" y="-186.5" font-family="Helvetica,sans-Serif" font-size="10.00">libavformat/avformat.h</text>
</a>
</g>
</g>
<!-- Node31&#45;&gt;Node33 -->
<g id="edge37" class="edge">
<title>Node31&#45;&gt;Node33</title>
<path fill="none" stroke="midnightblue" d="M836.68,-235.44C812.67,-226.44 774.67,-212.19 747.63,-202.05"/>
<polygon fill="midnightblue" stroke="midnightblue" points="748.8,-198.75 738.21,-198.52 746.34,-205.3 748.8,-198.75"/>
</g>
<!-- Node34 -->
<g id="node34" class="node">
<title>Node34</title>
<g id="a_node34"><a xlink:title=" ">
<polygon fill="none" stroke="#bfbfbf" points="789,-179.5 789,-198.5 930,-198.5 930,-179.5 789,-179.5"/>
<text text-anchor="middle" x="859.5" y="-186.5" font-family="Helvetica,sans-Serif" font-size="10.00">libswresample/swresample.h</text>
</a>
</g>
</g>
<!-- Node31&#45;&gt;Node34 -->
<g id="edge38" class="edge">
<title>Node31&#45;&gt;Node34</title>
<path fill="none" stroke="midnightblue" d="M859.5,-235.08C859.5,-228.01 859.5,-217.86 859.5,-208.99"/>
<polygon fill="midnightblue" stroke="midnightblue" points="863,-208.75 859.5,-198.75 856,-208.75 863,-208.75"/>
</g>
<!-- Node32&#45;&gt;Node2 -->
<g id="edge35" class="edge">
<title>Node32&#45;&gt;Node2</title>
<path fill="none" stroke="midnightblue" d="M1027.5,-179.48C1027.5,-172.47 1027.5,-162.19 1027.5,-152.7"/>
<polygon fill="midnightblue" stroke="midnightblue" points="1031,-152.52 1027.5,-142.52 1024,-152.52 1031,-152.52"/>
</g>
<!-- Node35&#45;&gt;Node2 -->
<g id="edge40" class="edge">
<title>Node35&#45;&gt;Node2</title>
<path fill="none" stroke="midnightblue" d="M1147.54,-459.5C1143.47,-441.09 1134.5,-396.16 1134.5,-358 1134.5,-358 1134.5,-358 1134.5,-244 1134.5,-213.9 1134.12,-202.65 1115.5,-179 1104.94,-165.59 1089.77,-155.1 1074.99,-147.24"/>
<polygon fill="midnightblue" stroke="midnightblue" points="1076.39,-144.02 1065.88,-142.68 1073.26,-150.28 1076.39,-144.02"/>
</g>
<!-- Node36 -->
<g id="node36" class="node">
<title>Node36</title>
<g id="a_node36"><a xlink:href="../../d5/d5b/a00695.html" target="_top" xlink:title=" ">
<polygon fill="none" stroke="black" points="1162.5,-403.5 1162.5,-422.5 1308.5,-422.5 1308.5,-403.5 1162.5,-403.5"/>
<text text-anchor="middle" x="1235.5" y="-410.5" font-family="Helvetica,sans-Serif" font-size="10.00">discordcoreapi/CoRoutine.hpp</text>
</a>
</g>
</g>
<!-- Node35&#45;&gt;Node36 -->
<g id="edge41" class="edge">
<title>Node35&#45;&gt;Node36</title>
<path fill="none" stroke="midnightblue" d="M1163.32,-459.32C1176.73,-450.9 1197.32,-437.97 1213.09,-428.07"/>
<polygon fill="midnightblue" stroke="midnightblue" points="1215.11,-430.94 1221.72,-422.65 1211.39,-425.01 1215.11,-430.94"/>
</g>
<!-- Node36&#45;&gt;Node2 -->
<g id="edge42" class="edge">
<title>Node36&#45;&gt;Node2</title>
<path fill="none" stroke="midnightblue" d="M1226.2,-403.28C1208.68,-385.85 1172.5,-344.69 1172.5,-302 1172.5,-302 1172.5,-302 1172.5,-244 1172.5,-213.2 1169.82,-201.22 1148.5,-179 1134.41,-164.31 1115.41,-153.73 1096.64,-146.17"/>
<polygon fill="midnightblue" stroke="midnightblue" points="1097.77,-142.85 1087.17,-142.59 1095.29,-149.4 1097.77,-142.85"/>
</g>
<!-- Node36&#45;&gt;Node37 -->
<g id="edge43" class="edge">
<title>Node36&#45;&gt;Node37</title>
<path fill="none" stroke="midnightblue" d="M1243.92,-403.08C1251.35,-395.22 1262.35,-383.57 1271.31,-374.08"/>
<polygon fill="midnightblue" stroke="midnightblue" points="1273.91,-376.42 1278.24,-366.75 1268.82,-371.62 1273.91,-376.42"/>
</g>
<!-- Node37&#45;&gt;Node2 -->
<g id="edge44" class="edge">
<title>Node37&#45;&gt;Node2</title>
<path fill="none" stroke="midnightblue" d="M1284.04,-347.12C1275.62,-318.31 1245.13,-226.61 1186.5,-179 1162.77,-159.73 1131.57,-147.76 1103.11,-140.36"/>
<polygon fill="midnightblue" stroke="midnightblue" points="1103.71,-136.9 1093.17,-137.92 1102.05,-143.7 1103.71,-136.9"/>
</g>
<!-- Node37&#45;&gt;Node38 -->
<g id="edge45" class="edge">
<title>Node37&#45;&gt;Node38</title>
<path fill="none" stroke="midnightblue" d="M1339.58,-347.44C1399,-337.87 1495.22,-322.36 1558.43,-312.17"/>
<polygon fill="midnightblue" stroke="midnightblue" points="1559.35,-315.56 1568.67,-310.52 1558.24,-308.65 1559.35,-315.56"/>
</g>
<!-- Node38&#45;&gt;Node39 -->
<g id="edge46" class="edge">
<title>Node38&#45;&gt;Node39</title>
<path fill="none" stroke="midnightblue" d="M1621.5,-291.08C1621.5,-284.01 1621.5,-273.86 1621.5,-264.99"/>
<polygon fill="midnightblue" stroke="midnightblue" points="1625,-264.75 1621.5,-254.75 1618,-264.75 1625,-264.75"/>
</g>
<!-- Node39&#45;&gt;Node2 -->
<g id="edge47" class="edge">
<title>Node39&#45;&gt;Node2</title>
<path fill="none" stroke="midnightblue" d="M1546.24,-241.15C1473.64,-236.85 1361.25,-226.05 1267.5,-199 1247.25,-193.16 1244.35,-186.09 1224.5,-179 1185.13,-164.93 1140.03,-153.07 1102.92,-144.39"/>
<polygon fill="midnightblue" stroke="midnightblue" points="1103.71,-140.98 1093.18,-142.14 1102.13,-147.8 1103.71,-140.98"/>
</g>
<!-- Node39&#45;&gt;Node32 -->
<g id="edge48" class="edge">
<title>Node39&#45;&gt;Node32</title>
<path fill="none" stroke="midnightblue" d="M1546.27,-237.16C1436.76,-227.21 1233.81,-208.76 1116.85,-198.12"/>
<polygon fill="midnightblue" stroke="midnightblue" points="1117.12,-194.63 1106.84,-197.21 1116.49,-201.6 1117.12,-194.63"/>
</g>
<!-- Node40 -->
<g id="node40" class="node">
<title>Node40</title>
<g id="a_node40"><a xlink:title=" ">
<polygon fill="none" stroke="#bfbfbf" points="1277,-179.5 1277,-198.5 1350,-198.5 1350,-179.5 1277,-179.5"/>
<text text-anchor="middle" x="1313.5" y="-186.5" font-family="Helvetica,sans-Serif" font-size="10.00">openssl/err.h</text>
</a>
</g>
</g>
<!-- Node39&#45;&gt;Node40 -->
<g id="edge49" class="edge">
<title>Node39&#45;&gt;Node40</title>
<path fill="none" stroke="midnightblue" d="M1569.74,-235.47C1519.01,-227.03 1439.23,-213.55 1360.27,-199.11"/>
<polygon fill="midnightblue" stroke="midnightblue" points="1360.61,-195.61 1350.14,-197.25 1359.35,-202.5 1360.61,-195.61"/>
</g>
<!-- Node41 -->
<g id="node41" class="node">
<title>Node41</title>
<g id="a_node41"><a xlink:title=" ">
<polygon fill="none" stroke="#bfbfbf" points="1368.5,-179.5 1368.5,-198.5 1442.5,-198.5 1442.5,-179.5 1368.5,-179.5"/>
<text text-anchor="middle" x="1405.5" y="-186.5" font-family="Helvetica,sans-Serif" font-size="10.00">openssl/ssl.h</text>
</a>
</g>
</g>
<!-- Node39&#45;&gt;Node41 -->
<g id="edge50" class="edge">
<title>Node39&#45;&gt;Node41</title>
<path fill="none" stroke="midnightblue" d="M1587.27,-235.44C1549.99,-226.12 1490.23,-211.18 1449.49,-201"/>
<polygon fill="midnightblue" stroke="midnightblue" points="1450.12,-197.55 1439.57,-198.52 1448.42,-204.34 1450.12,-197.55"/>
</g>
<!-- Node42 -->
<g id="node42" class="node">
<title>Node42</title>
<g id="a_node42"><a xlink:title=" ">
<polygon fill="none" stroke="#bfbfbf" points="1461,-179.5 1461,-198.5 1504,-198.5 1504,-179.5 1461,-179.5"/>
<text text-anchor="middle" x="1482.5" y="-186.5" font-family="Helvetica,sans-Serif" font-size="10.00">fcntl.h</text>
</a>
</g>
</g>
<!-- Node39&#45;&gt;Node42 -->
<g id="edge51" class="edge">
<title>Node39&#45;&gt;Node42</title>
<path fill="none" stroke="midnightblue" d="M1599.48,-235.44C1576.4,-226.48 1539.94,-212.31 1513.86,-202.18"/>
<polygon fill="midnightblue" stroke="midnightblue" points="1515.01,-198.88 1504.42,-198.52 1512.48,-205.4 1515.01,-198.88"/>
</g>
<!-- Node43 -->
<g id="node43" class="node">
<title>Node43</title>
<g id="a_node43"><a xlink:title=" ">
<polygon fill="none" stroke="#bfbfbf" points="1522,-179.5 1522,-198.5 1571,-198.5 1571,-179.5 1522,-179.5"/>
<text text-anchor="middle" x="1546.5" y="-186.5" font-family="Helvetica,sans-Serif" font-size="10.00">netdb.h</text>
</a>
</g>
</g>
<!-- Node39&#45;&gt;Node43 -->
<g id="edge52" class="edge">
<title>Node39&#45;&gt;Node43</title>
<path fill="none" stroke="midnightblue" d="M1609.45,-235.32C1598.04,-227.11 1580.67,-214.6 1567.07,-204.81"/>
<polygon fill="midnightblue" stroke="midnightblue" points="1568.93,-201.84 1558.77,-198.83 1564.84,-207.52 1568.93,-201.84"/>
</g>
<!-- Node44 -->
<g id="node44" class="node">
<title>Node44</title>
<g id="a_node44"><a xlink:title=" ">
<polygon fill="none" stroke="#bfbfbf" points="1589,-179.5 1589,-198.5 1654,-198.5 1654,-179.5 1589,-179.5"/>
<text text-anchor="middle" x="1621.5" y="-186.5" font-family="Helvetica,sans-Serif" font-size="10.00">netinet/in.h</text>
</a>
</g>
</g>
<!-- Node39&#45;&gt;Node44 -->
<g id="edge53" class="edge">
<title>Node39&#45;&gt;Node44</title>
<path fill="none" stroke="midnightblue" d="M1621.5,-235.08C1621.5,-228.01 1621.5,-217.86 1621.5,-208.99"/>
<polygon fill="midnightblue" stroke="midnightblue" points="1625,-208.75 1621.5,-198.75 1618,-208.75 1625,-208.75"/>
</g>
<!-- Node45 -->
<g id="node45" class="node">
<title>Node45</title>
<g id="a_node45"><a xlink:title=" ">
<polygon fill="none" stroke="#bfbfbf" points="1672,-179.5 1672,-198.5 1743,-198.5 1743,-179.5 1672,-179.5"/>
<text text-anchor="middle" x="1707.5" y="-186.5" font-family="Helvetica,sans-Serif" font-size="10.00">netinet/tcp.h</text>
</a>
</g>
</g>
<!-- Node39&#45;&gt;Node45 -->
<g id="edge54" class="edge">
<title>Node39&#45;&gt;Node45</title>
<path fill="none" stroke="midnightblue" d="M1635.32,-235.32C1648.73,-226.9 1669.32,-213.97 1685.09,-204.07"/>
<polygon fill="midnightblue" stroke="midnightblue" points="1687.11,-206.94 1693.72,-198.65 1683.39,-201.01 1687.11,-206.94"/>
</g>
<!-- Node46 -->
<g id="node46" class="node">
<title>Node46</title>
<g id="a_node46"><a xlink:title=" ">
<polygon fill="none" stroke="#bfbfbf" points="1761,-179.5 1761,-198.5 1810,-198.5 1810,-179.5 1761,-179.5"/>
<text text-anchor="middle" x="1785.5" y="-186.5" font-family="Helvetica,sans-Serif" font-size="10.00">stdint.h</text>
</a>
</g>
</g>
<!-- Node39&#45;&gt;Node46 -->
<g id="edge55" class="edge">
<title>Node39&#45;&gt;Node46</title>
<path fill="none" stroke="midnightblue" d="M1647.49,-235.44C1675.6,-226.19 1720.55,-211.39 1751.47,-201.21"/>
<polygon fill="midnightblue" stroke="midnightblue" points="1752.57,-204.53 1760.97,-198.08 1750.38,-197.88 1752.57,-204.53"/>
</g>
<!-- Node47 -->
<g id="node47" class="node">
<title>Node47</title>
<g id="a_node47"><a xlink:title=" ">
<polygon fill="none" stroke="#bfbfbf" points="1828.5,-179.5 1828.5,-198.5 1892.5,-198.5 1892.5,-179.5 1828.5,-179.5"/>
<text text-anchor="middle" x="1860.5" y="-186.5" font-family="Helvetica,sans-Serif" font-size="10.00">sys/epoll.h</text>
</a>
</g>
</g>
<!-- Node39&#45;&gt;Node47 -->
<g id="edge56" class="edge">
<title>Node39&#45;&gt;Node47</title>
<path fill="none" stroke="midnightblue" d="M1659.37,-235.44C1702.6,-225.68 1773.12,-209.74 1818.14,-199.57"/>
<polygon fill="midnightblue" stroke="midnightblue" points="1819.19,-202.92 1828.17,-197.3 1817.65,-196.09 1819.19,-202.92"/>
</g>
<!-- Node48 -->
<g id="node48" class="node">
<title>Node48</title>
<g id="a_node48"><a xlink:title=" ">
<polygon fill="none" stroke="#bfbfbf" points="1910.5,-179.5 1910.5,-198.5 1972.5,-198.5 1972.5,-179.5 1910.5,-179.5"/>
<text text-anchor="middle" x="1941.5" y="-186.5" font-family="Helvetica,sans-Serif" font-size="10.00">arpa/inet.h</text>
</a>
</g>
</g>
<!-- Node39&#45;&gt;Node48 -->
<g id="edge57" class="edge">
<title>Node39&#45;&gt;Node48</title>
<path fill="none" stroke="midnightblue" d="M1681.23,-235.5C1735.82,-227.48 1819.03,-214.63 1900.21,-199.16"/>
<polygon fill="midnightblue" stroke="midnightblue" points="1900.94,-202.58 1910.1,-197.26 1899.61,-195.71 1900.94,-202.58"/>
</g>
<!-- Node49 -->
<g id="node49" class="node">
<title>Node49</title>
<g id="a_node49"><a xlink:title=" ">
<polygon fill="none" stroke="#bfbfbf" points="1991,-179.5 1991,-198.5 2064,-198.5 2064,-179.5 1991,-179.5"/>
<text text-anchor="middle" x="2027.5" y="-186.5" font-family="Helvetica,sans-Serif" font-size="10.00">sys/socket.h</text>
</a>
</g>
</g>
<!-- Node39&#45;&gt;Node49 -->
<g id="edge58" class="edge">
<title>Node39&#45;&gt;Node49</title>
<path fill="none" stroke="midnightblue" d="M1696.52,-236.15C1767.21,-228.4 1876.31,-215.55 1980.79,-199.01"/>
<polygon fill="midnightblue" stroke="midnightblue" points="1981.56,-202.43 1990.88,-197.4 1980.46,-195.52 1981.56,-202.43"/>
</g>
<!-- Node50 -->
<g id="node50" class="node">
<title>Node50</title>
<g id="a_node50"><a xlink:title=" ">
<polygon fill="none" stroke="#bfbfbf" points="2082.5,-179.5 2082.5,-198.5 2150.5,-198.5 2150.5,-179.5 2082.5,-179.5"/>
<text text-anchor="middle" x="2116.5" y="-186.5" font-family="Helvetica,sans-Serif" font-size="10.00">sys/types.h</text>
</a>
</g>
</g>
<!-- Node39&#45;&gt;Node50 -->
<g id="edge59" class="edge">
<title>Node39&#45;&gt;Node50</title>
<path fill="none" stroke="midnightblue" d="M1696.59,-239C1784.42,-232.59 1934.35,-219.92 2072.38,-199.02"/>
<polygon fill="midnightblue" stroke="midnightblue" points="2072.94,-202.48 2082.29,-197.5 2071.88,-195.56 2072.94,-202.48"/>
</g>
<!-- Node51 -->
<g id="node51" class="node">
<title>Node51</title>
<g id="a_node51"><a xlink:title=" ">
<polygon fill="none" stroke="#bfbfbf" points="2169,-179.5 2169,-198.5 2220,-198.5 2220,-179.5 2169,-179.5"/>
<text text-anchor="middle" x="2194.5" y="-186.5" font-family="Helvetica,sans-Serif" font-size="10.00">unistd.h</text>
</a>
</g>
</g>
<!-- Node39&#45;&gt;Node51 -->
<g id="edge60" class="edge">
<title>Node39&#45;&gt;Node51</title>
<path fill="none" stroke="midnightblue" d="M1696.85,-241.69C1799.37,-237.67 1988.55,-227.08 2159.08,-198.76"/>
<polygon fill="midnightblue" stroke="midnightblue" points="2159.71,-202.2 2168.99,-197.09 2158.55,-195.3 2159.71,-202.2"/>
</g>
<!-- Node52&#45;&gt;Node2 -->
<g id="edge62" class="edge">
<title>Node52&#45;&gt;Node2</title>
<path fill="none" stroke="midnightblue" d="M1572.64,-411.77C1792.12,-408.86 2425.15,-383.04 2229.5,-179 2190.45,-138.27 1360.72,-130.32 1103.1,-128.83"/>
<polygon fill="midnightblue" stroke="midnightblue" points="1103.11,-125.33 1093.09,-128.77 1103.07,-132.33 1103.11,-125.33"/>
</g>
</g>
</svg>
