<?xml version="1.0" encoding="UTF-8" standalone="no"?>
<!DOCTYPE svg PUBLIC "-//W3C//DTD SVG 1.1//EN"
 "http://www.w3.org/Graphics/SVG/1.1/DTD/svg11.dtd">
<!-- Generated by graphviz version 2.43.0 (0)
 -->
<!-- Title: SongAPI.hpp Pages: 1 -->
<svg width="1487pt" height="192pt"
 viewBox="0.00 0.00 1487.00 192.00" xmlns="http://www.w3.org/2000/svg" xmlns:xlink="http://www.w3.org/1999/xlink">
<g id="graph0" class="graph" transform="scale(1 1) rotate(0) translate(4 188)">
<title>SongAPI.hpp</title>
<!-- Node1 -->
<g id="node1" class="node">
<title>Node1</title>
<g id="a_node1"><a xlink:title=" ">
<polygon fill="#bfbfbf" stroke="black" points="788,-184 711,-184 711,-165 788,-165 788,-184"/>
<text text-anchor="middle" x="749.5" y="-172" font-family="Helvetica,sans-Serif" font-size="10.00">SongAPI.hpp</text>
</a>
</g>
</g>
<!-- Node2 -->
<g id="node2" class="node">
<title>Node2</title>
<g id="a_node2"><a xlink:href="../../d1/d56/a00707.html" target="_top" xlink:title=" ">
<polygon fill="none" stroke="black" points="812,-129 687,-129 687,-110 812,-110 812,-129"/>
<text text-anchor="middle" x="749.5" y="-117" font-family="Helvetica,sans-Serif" font-size="10.00">DiscordCoreClient.hpp</text>
</a>
</g>
</g>
<!-- Node1&#45;&gt;Node2 -->
<g id="edge1" class="edge">
<title>Node1&#45;&gt;Node2</title>
<path fill="none" stroke="midnightblue" d="M749.5,-154.66C749.5,-145.93 749.5,-135.99 749.5,-129.09"/>
<polygon fill="midnightblue" stroke="midnightblue" points="746,-154.75 749.5,-164.75 753,-154.75 746,-154.75"/>
</g>
<!-- Node6 -->
<g id="node6" class="node">
<title>Node6</title>
<g id="a_node6"><a xlink:href="../../d8/d2d/a00815.html" target="_top" xlink:title=" ">
<polygon fill="none" stroke="black" points="99,-74 0,-74 0,-55 99,-55 99,-74"/>
<text text-anchor="middle" x="49.5" y="-62" font-family="Helvetica,sans-Serif" font-size="10.00">GuildEntities.cpp</text>
</a>
</g>
</g>
<!-- Node1&#45;&gt;Node6 -->
<g id="edge15" class="edge">
<title>Node1&#45;&gt;Node6</title>
<path fill="none" stroke="midnightblue" d="M700.98,-166.01C573.24,-146.31 228.66,-93.14 99.39,-73.2"/>
<polygon fill="midnightblue" stroke="midnightblue" points="700.45,-169.47 710.87,-167.54 701.52,-162.56 700.45,-169.47"/>
</g>
<!-- Node11 -->
<g id="node11" class="node">
<title>Node11</title>
<g id="a_node11"><a xlink:href="../../d3/db2/a00869.html" target="_top" xlink:title=" ">
<polygon fill="none" stroke="black" points="1479,-74 1402,-74 1402,-55 1479,-55 1479,-74"/>
<text text-anchor="middle" x="1440.5" y="-62" font-family="Helvetica,sans-Serif" font-size="10.00">SongAPI.cpp</text>
</a>
</g>
</g>
<!-- Node1&#45;&gt;Node11 -->
<g id="edge16" class="edge">
<title>Node1&#45;&gt;Node11</title>
<path fill="none" stroke="midnightblue" d="M798.22,-166.33C905.64,-150.44 1170.92,-110.76 1392.5,-74 1395.51,-73.5 1398.62,-72.97 1401.74,-72.44"/>
<polygon fill="midnightblue" stroke="midnightblue" points="797.7,-162.87 788.32,-167.79 798.73,-169.79 797.7,-162.87"/>
</g>
<!-- Node3 -->
<g id="node3" class="node">
<title>Node3</title>
<g id="a_node3"><a xlink:href="../../d4/d45/a00791.html" target="_top" xlink:title=" ">
<polygon fill="none" stroke="black" points="296,-74 117,-74 117,-55 296,-55 296,-74"/>
<text text-anchor="middle" x="206.5" y="-62" font-family="Helvetica,sans-Serif" font-size="10.00">ApplicationCommandEntities.cpp</text>
</a>
</g>
</g>
<!-- Node2&#45;&gt;Node3 -->
<g id="edge2" class="edge">
<title>Node2&#45;&gt;Node3</title>
<path fill="none" stroke="midnightblue" d="M676.72,-111.4C577.53,-101.71 400.14,-84.4 293.88,-74.03"/>
<polygon fill="midnightblue" stroke="midnightblue" points="676.65,-114.91 686.95,-112.39 677.33,-107.94 676.65,-114.91"/>
</g>
<!-- Node4 -->
<g id="node4" class="node">
<title>Node4</title>
<g id="a_node4"><a xlink:href="../../d8/db7/a00812.html" target="_top" xlink:title=" ">
<polygon fill="none" stroke="black" points="439,-74 314,-74 314,-55 439,-55 439,-74"/>
<text text-anchor="middle" x="376.5" y="-62" font-family="Helvetica,sans-Serif" font-size="10.00">DiscordCoreClient.cpp</text>
</a>
</g>
</g>
<!-- Node2&#45;&gt;Node4 -->
<g id="edge3" class="edge">
<title>Node2&#45;&gt;Node4</title>
<path fill="none" stroke="midnightblue" d="M679.51,-108.56C609.49,-98.61 502.9,-83.46 436.59,-74.04"/>
<polygon fill="midnightblue" stroke="midnightblue" points="679.18,-112.04 689.57,-109.98 680.16,-105.11 679.18,-112.04"/>
</g>
<!-- Node5 -->
<g id="node5" class="node">
<title>Node5</title>
<g id="a_node5"><a xlink:href="../../d1/d93/a00875.html" target="_top" xlink:title=" ">
<polygon fill="none" stroke="black" points="564,-74 457,-74 457,-55 564,-55 564,-74"/>
<text text-anchor="middle" x="510.5" y="-62" font-family="Helvetica,sans-Serif" font-size="10.00">EventManager.cpp</text>
</a>
</g>
</g>
<!-- Node2&#45;&gt;Node5 -->
<g id="edge4" class="edge">
<title>Node2&#45;&gt;Node5</title>
<path fill="none" stroke="midnightblue" d="M701.32,-107.82C656.53,-97.88 590.66,-83.28 549.2,-74.08"/>
<polygon fill="midnightblue" stroke="midnightblue" points="700.58,-111.24 711.1,-109.98 702.1,-104.4 700.58,-111.24"/>
</g>
<!-- Node2&#45;&gt;Node6 -->
<g id="edge5" class="edge">
<title>Node2&#45;&gt;Node6</title>
<path fill="none" stroke="midnightblue" d="M676.84,-115.27C557.68,-109.57 313.39,-96.19 107.5,-74 104.77,-73.71 101.97,-73.38 99.14,-73.03"/>
<polygon fill="midnightblue" stroke="midnightblue" points="676.78,-118.77 686.93,-115.75 677.11,-111.78 676.78,-118.77"/>
</g>
<!-- Node7 -->
<g id="node7" class="node">
<title>Node7</title>
<g id="a_node7"><a xlink:href="../../dd/db2/a00866.html" target="_top" xlink:title=" ">
<polygon fill="none" stroke="black" points="645,-74 582,-74 582,-55 645,-55 645,-74"/>
<text text-anchor="middle" x="613.5" y="-62" font-family="Helvetica,sans-Serif" font-size="10.00">Https.cpp</text>
</a>
</g>
</g>
<!-- Node2&#45;&gt;Node7 -->
<g id="edge6" class="edge">
<title>Node2&#45;&gt;Node7</title>
<path fill="none" stroke="midnightblue" d="M718.17,-106.29C692.96,-96.47 658.17,-82.91 635.75,-74.17"/>
<polygon fill="midnightblue" stroke="midnightblue" points="717.06,-109.61 727.65,-109.98 719.6,-103.09 717.06,-109.61"/>
</g>
<!-- Node8 -->
<g id="node8" class="node">
<title>Node8</title>
<g id="a_node8"><a xlink:href="../../d2/ddd/a00755.html" target="_top" xlink:title=" ">
<polygon fill="none" stroke="black" points="728,-74 663,-74 663,-55 728,-55 728,-74"/>
<text text-anchor="middle" x="695.5" y="-62" font-family="Helvetica,sans-Serif" font-size="10.00">Index.hpp</text>
</a>
</g>
</g>
<!-- Node2&#45;&gt;Node8 -->
<g id="edge7" class="edge">
<title>Node2&#45;&gt;Node8</title>
<path fill="none" stroke="midnightblue" d="M733.22,-102.52C723.7,-93.18 712.06,-81.75 704.25,-74.09"/>
<polygon fill="midnightblue" stroke="midnightblue" points="730.99,-105.24 740.58,-109.75 735.9,-100.25 730.99,-105.24"/>
</g>
<!-- Node10 -->
<g id="node10" class="node">
<title>Node10</title>
<g id="a_node10"><a xlink:href="../../d0/d82/a00857.html" target="_top" xlink:title=" ">
<polygon fill="none" stroke="black" points="863,-74 746,-74 746,-55 863,-55 863,-74"/>
<text text-anchor="middle" x="804.5" y="-62" font-family="Helvetica,sans-Serif" font-size="10.00">MessageEntities.cpp</text>
</a>
</g>
</g>
<!-- Node2&#45;&gt;Node10 -->
<g id="edge9" class="edge">
<title>Node2&#45;&gt;Node10</title>
<path fill="none" stroke="midnightblue" d="M765.79,-102.8C775.54,-93.41 787.55,-81.83 795.59,-74.09"/>
<polygon fill="midnightblue" stroke="midnightblue" points="763.35,-100.29 758.58,-109.75 768.21,-105.33 763.35,-100.29"/>
</g>
<!-- Node2&#45;&gt;Node11 -->
<g id="edge10" class="edge">
<title>Node2&#45;&gt;Node11</title>
<path fill="none" stroke="midnightblue" d="M822.36,-115.98C941.81,-111.28 1186.64,-99.28 1392.5,-74 1395.52,-73.63 1398.65,-73.19 1401.78,-72.72"/>
<polygon fill="midnightblue" stroke="midnightblue" points="822.09,-112.49 812.23,-116.37 822.36,-119.48 822.09,-112.49"/>
</g>
<!-- Node12 -->
<g id="node12" class="node">
<title>Node12</title>
<g id="a_node12"><a xlink:href="../../d6/d8b/a00821.html" target="_top" xlink:title=" ">
<polygon fill="none" stroke="black" points="991.5,-74 881.5,-74 881.5,-55 991.5,-55 991.5,-74"/>
<text text-anchor="middle" x="936.5" y="-62" font-family="Helvetica,sans-Serif" font-size="10.00">SoundCloudAPI.cpp</text>
</a>
</g>
</g>
<!-- Node2&#45;&gt;Node12 -->
<g id="edge11" class="edge">
<title>Node2&#45;&gt;Node12</title>
<path fill="none" stroke="midnightblue" d="M789.43,-107.18C824.4,-97.27 874.46,-83.08 906.22,-74.08"/>
<polygon fill="midnightblue" stroke="midnightblue" points="788.21,-103.89 779.54,-109.98 790.12,-110.63 788.21,-103.89"/>
</g>
<!-- Node13 -->
<g id="node13" class="node">
<title>Node13</title>
<g id="a_node13"><a xlink:href="../../d9/d30/a00848.html" target="_top" xlink:title=" ">
<polygon fill="none" stroke="black" points="1127.5,-74 1009.5,-74 1009.5,-55 1127.5,-55 1127.5,-74"/>
<text text-anchor="middle" x="1068.5" y="-62" font-family="Helvetica,sans-Serif" font-size="10.00">VoiceConnection.cpp</text>
</a>
</g>
</g>
<!-- Node2&#45;&gt;Node13 -->
<g id="edge12" class="edge">
<title>Node2&#45;&gt;Node13</title>
<path fill="none" stroke="midnightblue" d="M810.83,-108.31C870.74,-98.36 960.86,-83.38 1017.11,-74.04"/>
<polygon fill="midnightblue" stroke="midnightblue" points="810.04,-104.89 800.75,-109.98 811.19,-111.8 810.04,-104.89"/>
</g>
<!-- Node14 -->
<g id="node14" class="node">
<title>Node14</title>
<g id="a_node14"><a xlink:href="../../dc/d6e/a00833.html" target="_top" xlink:title=" ">
<polygon fill="none" stroke="black" points="1273,-74 1146,-74 1146,-55 1273,-55 1273,-74"/>
<text text-anchor="middle" x="1209.5" y="-62" font-family="Helvetica,sans-Serif" font-size="10.00">WebSocketEntities.cpp</text>
</a>
</g>
</g>
<!-- Node2&#45;&gt;Node14 -->
<g id="edge13" class="edge">
<title>Node2&#45;&gt;Node14</title>
<path fill="none" stroke="midnightblue" d="M822.35,-110.15C900.14,-101.24 1027.04,-86.67 1136.5,-74 1139.54,-73.65 1142.66,-73.29 1145.8,-72.92"/>
<polygon fill="midnightblue" stroke="midnightblue" points="821.71,-106.7 812.18,-111.32 822.51,-113.66 821.71,-106.7"/>
</g>
<!-- Node15 -->
<g id="node15" class="node">
<title>Node15</title>
<g id="a_node15"><a xlink:href="../../d8/d1c/a00824.html" target="_top" xlink:title=" ">
<polygon fill="none" stroke="black" points="1383.5,-74 1291.5,-74 1291.5,-55 1383.5,-55 1383.5,-74"/>
<text text-anchor="middle" x="1337.5" y="-62" font-family="Helvetica,sans-Serif" font-size="10.00">YouTubeAPI.cpp</text>
</a>
</g>
</g>
<!-- Node2&#45;&gt;Node15 -->
<g id="edge14" class="edge">
<title>Node2&#45;&gt;Node15</title>
<path fill="none" stroke="midnightblue" d="M822.54,-113.95C925.22,-107.2 1117.97,-93.23 1281.5,-74 1284.72,-73.62 1288.05,-73.2 1291.39,-72.75"/>
<polygon fill="midnightblue" stroke="midnightblue" points="822.04,-110.47 812.29,-114.62 822.5,-117.46 822.04,-110.47"/>
</g>
<!-- Node9 -->
<g id="node9" class="node">
<title>Node9</title>
<g id="a_node9"><a xlink:href="../../d7/d49/a00863.html" target="_top" xlink:title=" ">
<polygon fill="none" stroke="black" points="732.5,-19 658.5,-19 658.5,0 732.5,0 732.5,-19"/>
<text text-anchor="middle" x="695.5" y="-7" font-family="Helvetica,sans-Serif" font-size="10.00">DllMain.cpp</text>
</a>
</g>
</g>
<!-- Node8&#45;&gt;Node9 -->
<g id="edge8" class="edge">
<title>Node8&#45;&gt;Node9</title>
<path fill="none" stroke="midnightblue" d="M695.5,-44.66C695.5,-35.93 695.5,-25.99 695.5,-19.09"/>
<polygon fill="midnightblue" stroke="midnightblue" points="692,-44.75 695.5,-54.75 699,-44.75 692,-44.75"/>
</g>
</g>
</svg>
