<?xml version="1.0" encoding="UTF-8" standalone="no"?>
<!DOCTYPE svg PUBLIC "-//W3C//DTD SVG 1.1//EN"
 "http://www.w3.org/Graphics/SVG/1.1/DTD/svg11.dtd">
<!-- Generated by graphviz version 2.43.0 (0)
 -->
<!-- Title: WebSocketEntities.hpp Pages: 1 -->
<svg width="1886pt" height="476pt"
 viewBox="0.00 0.00 1886.00 476.00" xmlns="http://www.w3.org/2000/svg" xmlns:xlink="http://www.w3.org/1999/xlink">
<g id="graph0" class="graph" transform="scale(1 1) rotate(0) translate(4 472)">
<title>WebSocketEntities.hpp</title>
<!-- Node1 -->
<g id="node1" class="node">
<title>Node1</title>
<g id="a_node1"><a xlink:title=" ">
<polygon fill="#bfbfbf" stroke="black" points="1299,-448.5 1299,-467.5 1427,-467.5 1427,-448.5 1299,-448.5"/>
<text text-anchor="middle" x="1363" y="-455.5" font-family="Helvetica,sans-Serif" font-size="10.00">WebSocketEntities.hpp</text>
</a>
</g>
</g>
<!-- Node2 -->
<g id="node2" class="node">
<title>Node2</title>
<g id="a_node2"><a xlink:href="../../df/dbb/a00698.html" target="_top" xlink:title=" ">
<polygon fill="none" stroke="black" points="578.5,-112.5 578.5,-131.5 703.5,-131.5 703.5,-112.5 578.5,-112.5"/>
<text text-anchor="middle" x="641" y="-119.5" font-family="Helvetica,sans-Serif" font-size="10.00">DiscordCoreClient.hpp</text>
</a>
</g>
</g>
<!-- Node1&#45;&gt;Node2 -->
<g id="edge1" class="edge">
<title>Node1&#45;&gt;Node2</title>
<path fill="none" stroke="midnightblue" d="M1288.47,-455.61C1073.75,-450.64 469,-429.31 469,-347 469,-347 469,-347 469,-233 469,-172.74 544.85,-144.01 595.81,-131.5"/>
<polygon fill="midnightblue" stroke="midnightblue" points="1288.63,-459.12 1298.71,-455.84 1288.79,-452.12 1288.63,-459.12"/>
</g>
<!-- Node14 -->
<g id="node14" class="node">
<title>Node14</title>
<g id="a_node14"><a xlink:href="../../d5/d69/a00878.html" target="_top" xlink:title=" ">
<polygon fill="none" stroke="black" points="1350.5,-56.5 1350.5,-75.5 1477.5,-75.5 1477.5,-56.5 1350.5,-56.5"/>
<text text-anchor="middle" x="1414" y="-63.5" font-family="Helvetica,sans-Serif" font-size="10.00">WebSocketEntities.cpp</text>
</a>
</g>
</g>
<!-- Node1&#45;&gt;Node14 -->
<g id="edge68" class="edge">
<title>Node1&#45;&gt;Node14</title>
<path fill="none" stroke="midnightblue" d="M1437.29,-451.71C1552.72,-441.43 1762,-413.61 1762,-347 1762,-347 1762,-347 1762,-177 1762,-118.07 1578.29,-86.71 1477.83,-73.96"/>
<polygon fill="midnightblue" stroke="midnightblue" points="1436.77,-448.25 1427.11,-452.6 1437.37,-455.22 1436.77,-448.25"/>
</g>
<!-- Node16 -->
<g id="node16" class="node">
<title>Node16</title>
<g id="a_node16"><a xlink:href="../../d3/d2c/a00764.html" target="_top" xlink:title=" ">
<polygon fill="none" stroke="black" points="1314.5,-392.5 1314.5,-411.5 1411.5,-411.5 1411.5,-392.5 1314.5,-392.5"/>
<text text-anchor="middle" x="1363" y="-399.5" font-family="Helvetica,sans-Serif" font-size="10.00">UserEntities.hpp</text>
</a>
</g>
</g>
<!-- Node1&#45;&gt;Node16 -->
<g id="edge15" class="edge">
<title>Node1&#45;&gt;Node16</title>
<path fill="none" stroke="midnightblue" d="M1363,-437.8C1363,-428.91 1363,-418.78 1363,-411.75"/>
<polygon fill="midnightblue" stroke="midnightblue" points="1359.5,-438.08 1363,-448.08 1366.5,-438.08 1359.5,-438.08"/>
</g>
<!-- Node30 -->
<g id="node30" class="node">
<title>Node30</title>
<g id="a_node30"><a xlink:href="../../d0/d7e/a00770.html" target="_top" xlink:title=" ">
<polygon fill="none" stroke="black" points="308.5,-280.5 308.5,-299.5 427.5,-299.5 427.5,-280.5 308.5,-280.5"/>
<text text-anchor="middle" x="368" y="-287.5" font-family="Helvetica,sans-Serif" font-size="10.00">VoiceConnection.hpp</text>
</a>
</g>
</g>
<!-- Node1&#45;&gt;Node30 -->
<g id="edge59" class="edge">
<title>Node1&#45;&gt;Node30</title>
<path fill="none" stroke="midnightblue" d="M1288.95,-456.99C1085.33,-456.46 527.34,-451.37 455,-412 407.96,-386.39 380.11,-323.09 371.17,-299.79"/>
<polygon fill="midnightblue" stroke="midnightblue" points="1288.94,-460.49 1298.95,-457.01 1288.96,-453.49 1288.94,-460.49"/>
</g>
<!-- Node31 -->
<g id="node31" class="node">
<title>Node31</title>
<g id="a_node31"><a xlink:href="../../df/d4c/a00851.html" target="_top" xlink:title=" ">
<polygon fill="none" stroke="black" points="1790,-392.5 1790,-411.5 1878,-411.5 1878,-392.5 1790,-392.5"/>
<text text-anchor="middle" x="1834" y="-399.5" font-family="Helvetica,sans-Serif" font-size="10.00">SSLClients.cpp</text>
</a>
</g>
</g>
<!-- Node1&#45;&gt;Node31 -->
<g id="edge67" class="edge">
<title>Node1&#45;&gt;Node31</title>
<path fill="none" stroke="midnightblue" d="M1437.2,-449.94C1519.96,-441.83 1657.76,-427.61 1776,-412 1780.45,-411.41 1785.08,-410.76 1789.7,-410.09"/>
<polygon fill="midnightblue" stroke="midnightblue" points="1436.75,-446.47 1427.14,-450.92 1437.43,-453.43 1436.75,-446.47"/>
</g>
<!-- Node3 -->
<g id="node3" class="node">
<title>Node3</title>
<g id="a_node3"><a xlink:href="../../d8/db9/a00725.html" target="_top" xlink:title=" ">
<polygon fill="none" stroke="black" points="469.5,-56.5 469.5,-75.5 534.5,-75.5 534.5,-56.5 469.5,-56.5"/>
<text text-anchor="middle" x="502" y="-63.5" font-family="Helvetica,sans-Serif" font-size="10.00">Index.hpp</text>
</a>
</g>
</g>
<!-- Node2&#45;&gt;Node3 -->
<g id="edge2" class="edge">
<title>Node2&#45;&gt;Node3</title>
<path fill="none" stroke="midnightblue" d="M609.52,-108.77C583.41,-98.63 546.96,-84.47 523.92,-75.52"/>
<polygon fill="midnightblue" stroke="midnightblue" points="608.39,-112.08 618.98,-112.44 610.92,-105.56 608.39,-112.08"/>
</g>
<!-- Node5 -->
<g id="node5" class="node">
<title>Node5</title>
<g id="a_node5"><a xlink:href="../../da/d96/a00782.html" target="_top" xlink:title=" ">
<polygon fill="none" stroke="black" points="1036.5,-56.5 1036.5,-75.5 1215.5,-75.5 1215.5,-56.5 1036.5,-56.5"/>
<text text-anchor="middle" x="1126" y="-63.5" font-family="Helvetica,sans-Serif" font-size="10.00">ApplicationCommandEntities.cpp</text>
</a>
</g>
</g>
<!-- Node2&#45;&gt;Node5 -->
<g id="edge4" class="edge">
<title>Node2&#45;&gt;Node5</title>
<path fill="none" stroke="midnightblue" d="M714.07,-112.86C804.49,-102.8 957.72,-85.74 1049.63,-75.5"/>
<polygon fill="midnightblue" stroke="midnightblue" points="713.46,-109.41 703.91,-114 714.23,-116.37 713.46,-109.41"/>
</g>
<!-- Node6 -->
<g id="node6" class="node">
<title>Node6</title>
<g id="a_node6"><a xlink:href="../../d5/d72/a00803.html" target="_top" xlink:title=" ">
<polygon fill="none" stroke="black" points="552.5,-56.5 552.5,-75.5 677.5,-75.5 677.5,-56.5 552.5,-56.5"/>
<text text-anchor="middle" x="615" y="-63.5" font-family="Helvetica,sans-Serif" font-size="10.00">DiscordCoreClient.cpp</text>
</a>
</g>
</g>
<!-- Node2&#45;&gt;Node6 -->
<g id="edge5" class="edge">
<title>Node2&#45;&gt;Node6</title>
<path fill="none" stroke="midnightblue" d="M632.33,-102.98C627.91,-93.82 622.75,-83.09 619.21,-75.75"/>
<polygon fill="midnightblue" stroke="midnightblue" points="629.21,-104.59 636.71,-112.08 635.52,-101.55 629.21,-104.59"/>
</g>
<!-- Node7 -->
<g id="node7" class="node">
<title>Node7</title>
<g id="a_node7"><a xlink:href="../../d8/db7/a00812.html" target="_top" xlink:title=" ">
<polygon fill="none" stroke="black" points="911.5,-56.5 911.5,-75.5 1018.5,-75.5 1018.5,-56.5 911.5,-56.5"/>
<text text-anchor="middle" x="965" y="-63.5" font-family="Helvetica,sans-Serif" font-size="10.00">EventManager.cpp</text>
</a>
</g>
</g>
<!-- Node2&#45;&gt;Node7 -->
<g id="edge6" class="edge">
<title>Node2&#45;&gt;Node7</title>
<path fill="none" stroke="midnightblue" d="M702.26,-110.79C763.48,-100.59 856.53,-85.08 913.9,-75.52"/>
<polygon fill="midnightblue" stroke="midnightblue" points="701.63,-107.35 692.34,-112.44 702.78,-114.25 701.63,-107.35"/>
</g>
<!-- Node8 -->
<g id="node8" class="node">
<title>Node8</title>
<g id="a_node8"><a xlink:href="../../d3/d60/a00818.html" target="_top" xlink:title=" ">
<polygon fill="none" stroke="black" points="1233.5,-56.5 1233.5,-75.5 1332.5,-75.5 1332.5,-56.5 1233.5,-56.5"/>
<text text-anchor="middle" x="1283" y="-63.5" font-family="Helvetica,sans-Serif" font-size="10.00">GuildEntities.cpp</text>
</a>
</g>
</g>
<!-- Node2&#45;&gt;Node8 -->
<g id="edge7" class="edge">
<title>Node2&#45;&gt;Node8</title>
<path fill="none" stroke="midnightblue" d="M713.73,-117.13C824.21,-110.85 1040.87,-97.01 1224,-76 1227.09,-75.65 1230.26,-75.25 1233.46,-74.83"/>
<polygon fill="midnightblue" stroke="midnightblue" points="713.48,-113.64 703.7,-117.69 713.88,-120.63 713.48,-113.64"/>
</g>
<!-- Node9 -->
<g id="node9" class="node">
<title>Node9</title>
<g id="a_node9"><a xlink:href="../../dc/d1b/a00827.html" target="_top" xlink:title=" ">
<polygon fill="none" stroke="black" points="695.5,-56.5 695.5,-75.5 758.5,-75.5 758.5,-56.5 695.5,-56.5"/>
<text text-anchor="middle" x="727" y="-63.5" font-family="Helvetica,sans-Serif" font-size="10.00">Https.cpp</text>
</a>
</g>
</g>
<!-- Node2&#45;&gt;Node9 -->
<g id="edge8" class="edge">
<title>Node2&#45;&gt;Node9</title>
<path fill="none" stroke="midnightblue" d="M663.45,-106.9C679.22,-97 699.81,-84.07 713.22,-75.65"/>
<polygon fill="midnightblue" stroke="midnightblue" points="661.43,-104.04 654.82,-112.32 665.15,-109.97 661.43,-104.04"/>
</g>
<!-- Node10 -->
<g id="node10" class="node">
<title>Node10</title>
<g id="a_node10"><a xlink:href="../../d3/d13/a00836.html" target="_top" xlink:title=" ">
<polygon fill="none" stroke="black" points="776.5,-56.5 776.5,-75.5 893.5,-75.5 893.5,-56.5 776.5,-56.5"/>
<text text-anchor="middle" x="835" y="-63.5" font-family="Helvetica,sans-Serif" font-size="10.00">MessageEntities.cpp</text>
</a>
</g>
</g>
<!-- Node2&#45;&gt;Node10 -->
<g id="edge9" class="edge">
<title>Node2&#45;&gt;Node10</title>
<path fill="none" stroke="midnightblue" d="M681.6,-109.7C718.22,-99.51 771.26,-84.74 804.4,-75.52"/>
<polygon fill="midnightblue" stroke="midnightblue" points="680.44,-106.39 671.74,-112.44 682.31,-113.13 680.44,-106.39"/>
</g>
<!-- Node11 -->
<g id="node11" class="node">
<title>Node11</title>
<g id="a_node11"><a xlink:href="../../d7/dcf/a00845.html" target="_top" xlink:title=" ">
<polygon fill="none" stroke="black" points="374.5,-56.5 374.5,-75.5 451.5,-75.5 451.5,-56.5 374.5,-56.5"/>
<text text-anchor="middle" x="413" y="-63.5" font-family="Helvetica,sans-Serif" font-size="10.00">SongAPI.cpp</text>
</a>
</g>
</g>
<!-- Node2&#45;&gt;Node11 -->
<g id="edge10" class="edge">
<title>Node2&#45;&gt;Node11</title>
<path fill="none" stroke="midnightblue" d="M594.93,-110.09C551.85,-99.89 488.41,-84.86 448.96,-75.52"/>
<polygon fill="midnightblue" stroke="midnightblue" points="594.34,-113.54 604.87,-112.44 595.95,-106.73 594.34,-113.54"/>
</g>
<!-- Node12 -->
<g id="node12" class="node">
<title>Node12</title>
<g id="a_node12"><a xlink:href="../../d9/d30/a00848.html" target="_top" xlink:title=" ">
<polygon fill="none" stroke="black" points="110,-56.5 110,-75.5 220,-75.5 220,-56.5 110,-56.5"/>
<text text-anchor="middle" x="165" y="-63.5" font-family="Helvetica,sans-Serif" font-size="10.00">SoundCloudAPI.cpp</text>
</a>
</g>
</g>
<!-- Node2&#45;&gt;Node12 -->
<g id="edge11" class="edge">
<title>Node2&#45;&gt;Node12</title>
<path fill="none" stroke="midnightblue" d="M568.45,-113.76C486.09,-105.38 347.75,-90.83 229,-76 226.11,-75.64 223.14,-75.26 220.14,-74.86"/>
<polygon fill="midnightblue" stroke="midnightblue" points="568.16,-117.25 578.46,-114.78 568.86,-110.28 568.16,-117.25"/>
</g>
<!-- Node13 -->
<g id="node13" class="node">
<title>Node13</title>
<g id="a_node13"><a xlink:href="../../dc/d17/a00872.html" target="_top" xlink:title=" ">
<polygon fill="none" stroke="black" points="238,-56.5 238,-75.5 356,-75.5 356,-56.5 238,-56.5"/>
<text text-anchor="middle" x="297" y="-63.5" font-family="Helvetica,sans-Serif" font-size="10.00">VoiceConnection.cpp</text>
</a>
</g>
</g>
<!-- Node2&#45;&gt;Node13 -->
<g id="edge12" class="edge">
<title>Node2&#45;&gt;Node13</title>
<path fill="none" stroke="midnightblue" d="M576.36,-110.85C511.37,-100.65 412.29,-85.1 351.25,-75.52"/>
<polygon fill="midnightblue" stroke="midnightblue" points="576.07,-114.35 586.49,-112.44 577.16,-107.44 576.07,-114.35"/>
</g>
<!-- Node2&#45;&gt;Node14 -->
<g id="edge13" class="edge">
<title>Node2&#45;&gt;Node14</title>
<path fill="none" stroke="midnightblue" d="M713.87,-117.72C841.24,-111.68 1112.57,-97.41 1341,-76 1344.05,-75.71 1347.17,-75.4 1350.32,-75.07"/>
<polygon fill="midnightblue" stroke="midnightblue" points="713.67,-114.23 703.84,-118.19 714,-121.22 713.67,-114.23"/>
</g>
<!-- Node15 -->
<g id="node15" class="node">
<title>Node15</title>
<g id="a_node15"><a xlink:href="../../df/d41/a00881.html" target="_top" xlink:title=" ">
<polygon fill="none" stroke="black" points="0,-56.5 0,-75.5 92,-75.5 92,-56.5 0,-56.5"/>
<text text-anchor="middle" x="46" y="-63.5" font-family="Helvetica,sans-Serif" font-size="10.00">YouTubeAPI.cpp</text>
</a>
</g>
</g>
<!-- Node2&#45;&gt;Node15 -->
<g id="edge14" class="edge">
<title>Node2&#45;&gt;Node15</title>
<path fill="none" stroke="midnightblue" d="M568.41,-116.78C464.56,-110.33 267.71,-96.55 101,-76 98.12,-75.64 95.16,-75.25 92.18,-74.83"/>
<polygon fill="midnightblue" stroke="midnightblue" points="568.28,-120.28 578.47,-117.4 568.71,-113.29 568.28,-120.28"/>
</g>
<!-- Node4 -->
<g id="node4" class="node">
<title>Node4</title>
<g id="a_node4"><a xlink:href="../../d0/dad/a00806.html" target="_top" xlink:title=" ">
<polygon fill="none" stroke="black" points="465,-0.5 465,-19.5 539,-19.5 539,-0.5 465,-0.5"/>
<text text-anchor="middle" x="502" y="-7.5" font-family="Helvetica,sans-Serif" font-size="10.00">DllMain.cpp</text>
</a>
</g>
</g>
<!-- Node3&#45;&gt;Node4 -->
<g id="edge3" class="edge">
<title>Node3&#45;&gt;Node4</title>
<path fill="none" stroke="midnightblue" d="M502,-45.8C502,-36.91 502,-26.78 502,-19.75"/>
<polygon fill="midnightblue" stroke="midnightblue" points="498.5,-46.08 502,-56.08 505.5,-46.08 498.5,-46.08"/>
</g>
<!-- Node16&#45;&gt;Node2 -->
<g id="edge16" class="edge">
<title>Node16&#45;&gt;Node2</title>
<path fill="none" stroke="midnightblue" d="M1303.95,-399.63C1110.32,-394.37 507,-371.51 507,-291 507,-291 507,-291 507,-233 507,-202.9 505.68,-190.2 526,-168 543.37,-149.02 569.72,-137.95 592.82,-131.54"/>
<polygon fill="midnightblue" stroke="midnightblue" points="1304.13,-403.14 1314.21,-399.9 1304.31,-396.14 1304.13,-403.14"/>
</g>
<!-- Node16&#45;&gt;Node5 -->
<g id="edge53" class="edge">
<title>Node16&#45;&gt;Node5</title>
<path fill="none" stroke="midnightblue" d="M1421.84,-393.24C1515,-379.29 1686,-346.17 1686,-291 1686,-291 1686,-291 1686,-233 1686,-202.9 1689.32,-188.19 1667,-168 1657.8,-159.68 1307.25,-98.35 1175.43,-75.52"/>
<polygon fill="midnightblue" stroke="midnightblue" points="1421.09,-389.81 1411.71,-394.73 1422.11,-396.74 1421.09,-389.81"/>
</g>
<!-- Node16&#45;&gt;Node8 -->
<g id="edge56" class="edge">
<title>Node16&#45;&gt;Node8</title>
<path fill="none" stroke="midnightblue" d="M1421.56,-400.28C1506.47,-398.09 1658.21,-389.45 1700,-356 1724.04,-336.76 1724,-321.8 1724,-291 1724,-291 1724,-291 1724,-177 1724,-156.66 1437.75,-97.69 1326.49,-75.54"/>
<polygon fill="midnightblue" stroke="midnightblue" points="1421.46,-396.79 1411.55,-400.52 1421.63,-403.78 1421.46,-396.79"/>
</g>
<!-- Node17 -->
<g id="node17" class="node">
<title>Node17</title>
<g id="a_node17"><a xlink:href="../../d1/d56/a00707.html" target="_top" xlink:title=" ">
<polygon fill="none" stroke="black" points="1218.5,-168.5 1218.5,-187.5 1325.5,-187.5 1325.5,-168.5 1218.5,-168.5"/>
<text text-anchor="middle" x="1272" y="-175.5" font-family="Helvetica,sans-Serif" font-size="10.00">EventManager.hpp</text>
</a>
</g>
</g>
<!-- Node16&#45;&gt;Node17 -->
<g id="edge17" class="edge">
<title>Node16&#45;&gt;Node17</title>
<path fill="none" stroke="midnightblue" d="M1373.96,-383.24C1380.64,-370.14 1387.02,-351.9 1382,-336 1361.57,-271.25 1303.85,-210 1281.24,-187.79"/>
<polygon fill="midnightblue" stroke="midnightblue" points="1370.81,-381.7 1368.97,-392.13 1376.91,-385.12 1370.81,-381.7"/>
</g>
<!-- Node18 -->
<g id="node18" class="node">
<title>Node18</title>
<g id="a_node18"><a xlink:href="../../d2/d94/a00716.html" target="_top" xlink:title=" ">
<polygon fill="none" stroke="black" points="989,-336.5 989,-355.5 1129,-355.5 1129,-336.5 989,-336.5"/>
<text text-anchor="middle" x="1059" y="-343.5" font-family="Helvetica,sans-Serif" font-size="10.00">GuildMemberEntities.hpp</text>
</a>
</g>
</g>
<!-- Node16&#45;&gt;Node18 -->
<g id="edge21" class="edge">
<title>Node16&#45;&gt;Node18</title>
<path fill="none" stroke="midnightblue" d="M1304.81,-390.66C1247.36,-380.46 1160.55,-365.04 1106.94,-355.52"/>
<polygon fill="midnightblue" stroke="midnightblue" points="1304.37,-394.14 1314.83,-392.44 1305.6,-387.25 1304.37,-394.14"/>
</g>
<!-- Node21 -->
<g id="node21" class="node">
<title>Node21</title>
<g id="a_node21"><a xlink:href="../../df/d0e/a00800.html" target="_top" xlink:title=" ">
<polygon fill="none" stroke="black" points="1344,-168.5 1344,-187.5 1486,-187.5 1486,-168.5 1344,-168.5"/>
<text text-anchor="middle" x="1415" y="-175.5" font-family="Helvetica,sans-Serif" font-size="10.00">DataParsingFunctions.cpp</text>
</a>
</g>
</g>
<!-- Node16&#45;&gt;Node21 -->
<g id="edge54" class="edge">
<title>Node16&#45;&gt;Node21</title>
<path fill="none" stroke="midnightblue" d="M1387.37,-386.73C1397.95,-379.09 1409.22,-368.64 1415,-356 1442.08,-296.75 1424.31,-214.25 1417.4,-187.64"/>
<polygon fill="midnightblue" stroke="midnightblue" points="1385.15,-384 1378.78,-392.47 1389.04,-389.82 1385.15,-384"/>
</g>
<!-- Node22 -->
<g id="node22" class="node">
<title>Node22</title>
<g id="a_node22"><a xlink:href="../../d8/d2d/a00815.html" target="_top" xlink:title=" ">
<polygon fill="none" stroke="black" points="669,-168.5 669,-187.5 797,-187.5 797,-168.5 669,-168.5"/>
<text text-anchor="middle" x="733" y="-175.5" font-family="Helvetica,sans-Serif" font-size="10.00">FoundationEntities.cpp</text>
</a>
</g>
</g>
<!-- Node16&#45;&gt;Node22 -->
<g id="edge55" class="edge">
<title>Node16&#45;&gt;Node22</title>
<path fill="none" stroke="midnightblue" d="M1304.18,-398.89C1228.24,-395.08 1092.48,-384.57 980,-356 915.05,-339.5 897.54,-334.36 840,-300 806.68,-280.1 798.39,-273.35 773,-244 757.22,-225.76 743.66,-200.6 737.14,-187.58"/>
<polygon fill="midnightblue" stroke="midnightblue" points="1304.34,-402.4 1314.49,-399.39 1304.67,-395.41 1304.34,-402.4"/>
</g>
<!-- Node24 -->
<g id="node24" class="node">
<title>Node24</title>
<g id="a_node24"><a xlink:href="../../d3/db2/a00869.html" target="_top" xlink:title=" ">
<polygon fill="none" stroke="black" points="1125.5,-168.5 1125.5,-187.5 1200.5,-187.5 1200.5,-168.5 1125.5,-168.5"/>
<text text-anchor="middle" x="1163" y="-175.5" font-family="Helvetica,sans-Serif" font-size="10.00">Utilities.cpp</text>
</a>
</g>
</g>
<!-- Node16&#45;&gt;Node24 -->
<g id="edge58" class="edge">
<title>Node16&#45;&gt;Node24</title>
<path fill="none" stroke="midnightblue" d="M1324.79,-388.89C1306.1,-381.57 1284.2,-370.76 1268,-356 1211.48,-304.51 1176.08,-215.42 1165.99,-187.57"/>
<polygon fill="midnightblue" stroke="midnightblue" points="1323.63,-392.2 1334.23,-392.41 1326.08,-385.64 1323.63,-392.2"/>
</g>
<!-- Node27 -->
<g id="node27" class="node">
<title>Node27</title>
<g id="a_node27"><a xlink:href="../../dd/db2/a00737.html" target="_top" xlink:title=" ">
<polygon fill="none" stroke="black" points="1467.5,-224.5 1467.5,-243.5 1584.5,-243.5 1584.5,-224.5 1467.5,-224.5"/>
<text text-anchor="middle" x="1526" y="-231.5" font-family="Helvetica,sans-Serif" font-size="10.00">ReactionEntities.hpp</text>
</a>
</g>
</g>
<!-- Node16&#45;&gt;Node27 -->
<g id="edge48" class="edge">
<title>Node16&#45;&gt;Node27</title>
<path fill="none" stroke="midnightblue" d="M1398.51,-388.71C1416.34,-381.27 1437.41,-370.4 1453,-356 1489.76,-322.04 1514.29,-265.37 1522.74,-243.75"/>
<polygon fill="midnightblue" stroke="midnightblue" points="1397,-385.55 1389,-392.5 1399.58,-392.06 1397,-385.55"/>
</g>
<!-- Node29 -->
<g id="node29" class="node">
<title>Node29</title>
<g id="a_node29"><a xlink:href="../../dd/db2/a00866.html" target="_top" xlink:title=" ">
<polygon fill="none" stroke="black" points="1277,-336.5 1277,-355.5 1373,-355.5 1373,-336.5 1277,-336.5"/>
<text text-anchor="middle" x="1325" y="-343.5" font-family="Helvetica,sans-Serif" font-size="10.00">UserEntities.cpp</text>
</a>
</g>
</g>
<!-- Node16&#45;&gt;Node29 -->
<g id="edge57" class="edge">
<title>Node16&#45;&gt;Node29</title>
<path fill="none" stroke="midnightblue" d="M1350.94,-383.86C1344.36,-374.5 1336.49,-363.33 1331.16,-355.75"/>
<polygon fill="midnightblue" stroke="midnightblue" points="1348.11,-385.92 1356.73,-392.08 1353.83,-381.89 1348.11,-385.92"/>
</g>
<!-- Node17&#45;&gt;Node2 -->
<g id="edge18" class="edge">
<title>Node17&#45;&gt;Node2</title>
<path fill="none" stroke="midnightblue" d="M1208.24,-167.99C1018.28,-147.18 806.72,-133 703.74,-126.68"/>
<polygon fill="midnightblue" stroke="midnightblue" points="1208.09,-171.49 1218.41,-169.11 1208.86,-164.53 1208.09,-171.49"/>
</g>
<!-- Node17&#45;&gt;Node7 -->
<g id="edge19" class="edge">
<title>Node17&#45;&gt;Node7</title>
<path fill="none" stroke="midnightblue" d="M1208.49,-167.71C1126.36,-155.58 993.24,-135.48 989,-132 971.71,-117.8 966.87,-89.92 965.52,-75.74"/>
<polygon fill="midnightblue" stroke="midnightblue" points="1208.08,-171.19 1218.48,-169.19 1209.1,-164.26 1208.08,-171.19"/>
</g>
<!-- Node17&#45;&gt;Node14 -->
<g id="edge20" class="edge">
<title>Node17&#45;&gt;Node14</title>
<path fill="none" stroke="midnightblue" d="M1291.21,-162.12C1321.35,-138.77 1378.8,-94.27 1402.91,-75.59"/>
<polygon fill="midnightblue" stroke="midnightblue" points="1288.9,-159.48 1283.14,-168.37 1293.19,-165.01 1288.9,-159.48"/>
</g>
<!-- Node18&#45;&gt;Node2 -->
<g id="edge22" class="edge">
<title>Node18&#45;&gt;Node2</title>
<path fill="none" stroke="midnightblue" d="M978.65,-335.45C936.35,-328.71 884.22,-317.64 840,-300 752.49,-265.08 716.97,-263.05 660,-188 647.06,-170.96 642.92,-145.29 641.6,-131.88"/>
<polygon fill="midnightblue" stroke="midnightblue" points="978.21,-338.93 988.62,-336.99 979.27,-332.01 978.21,-338.93"/>
</g>
<!-- Node18&#45;&gt;Node17 -->
<g id="edge23" class="edge">
<title>Node18&#45;&gt;Node17</title>
<path fill="none" stroke="midnightblue" d="M1085.12,-331.7C1100.68,-323.35 1120.54,-311.93 1137,-300 1188.74,-262.51 1243.31,-208.39 1263.69,-187.59"/>
<polygon fill="midnightblue" stroke="midnightblue" points="1083.27,-328.72 1076.06,-336.48 1086.53,-334.91 1083.27,-328.72"/>
</g>
<!-- Node19 -->
<g id="node19" class="node">
<title>Node19</title>
<g id="a_node19"><a xlink:href="../../dc/dce/a00740.html" target="_top" xlink:title=" ">
<polygon fill="none" stroke="black" points="1011,-280.5 1011,-299.5 1107,-299.5 1107,-280.5 1011,-280.5"/>
<text text-anchor="middle" x="1059" y="-287.5" font-family="Helvetica,sans-Serif" font-size="10.00">RoleEntities.hpp</text>
</a>
</g>
</g>
<!-- Node18&#45;&gt;Node19 -->
<g id="edge24" class="edge">
<title>Node18&#45;&gt;Node19</title>
<path fill="none" stroke="midnightblue" d="M1059,-325.8C1059,-316.91 1059,-306.78 1059,-299.75"/>
<polygon fill="midnightblue" stroke="midnightblue" points="1055.5,-326.08 1059,-336.08 1062.5,-326.08 1055.5,-326.08"/>
</g>
<!-- Node18&#45;&gt;Node21 -->
<g id="edge44" class="edge">
<title>Node18&#45;&gt;Node21</title>
<path fill="none" stroke="midnightblue" d="M1089.03,-332.55C1110.11,-323.7 1138.91,-311.42 1164,-300 1252.72,-259.63 1357.28,-207.85 1397.78,-187.63"/>
<polygon fill="midnightblue" stroke="midnightblue" points="1087.52,-329.39 1079.64,-336.47 1090.22,-335.84 1087.52,-329.39"/>
</g>
<!-- Node18&#45;&gt;Node22 -->
<g id="edge45" class="edge">
<title>Node18&#45;&gt;Node22</title>
<path fill="none" stroke="midnightblue" d="M982.98,-334.62C948.67,-327.91 908.44,-317.11 875,-300 815.6,-269.62 759.85,-209.78 740.34,-187.57"/>
<polygon fill="midnightblue" stroke="midnightblue" points="982.48,-338.09 992.95,-336.49 983.77,-331.21 982.48,-338.09"/>
</g>
<!-- Node23 -->
<g id="node23" class="node">
<title>Node23</title>
<g id="a_node23"><a xlink:href="../../d6/d8b/a00821.html" target="_top" xlink:title=" ">
<polygon fill="none" stroke="black" points="853,-168.5 853,-187.5 993,-187.5 993,-168.5 853,-168.5"/>
<text text-anchor="middle" x="923" y="-175.5" font-family="Helvetica,sans-Serif" font-size="10.00">GuildMemberEntities.cpp</text>
</a>
</g>
</g>
<!-- Node18&#45;&gt;Node23 -->
<g id="edge46" class="edge">
<title>Node18&#45;&gt;Node23</title>
<path fill="none" stroke="midnightblue" d="M997.04,-334.19C946.73,-321.8 878.92,-296.04 846,-244 830.1,-218.87 869.27,-198.45 897.39,-187.57"/>
<polygon fill="midnightblue" stroke="midnightblue" points="996.31,-337.62 1006.85,-336.5 997.91,-330.8 996.31,-337.62"/>
</g>
<!-- Node18&#45;&gt;Node24 -->
<g id="edge47" class="edge">
<title>Node18&#45;&gt;Node24</title>
<path fill="none" stroke="midnightblue" d="M1082.57,-330.68C1093.93,-322.8 1107.01,-312.16 1116,-300 1143.19,-263.21 1156.81,-208.68 1161.29,-187.68"/>
<polygon fill="midnightblue" stroke="midnightblue" points="1080.35,-327.95 1073.94,-336.38 1084.21,-333.79 1080.35,-327.95"/>
</g>
<!-- Node26 -->
<g id="node26" class="node">
<title>Node26</title>
<g id="a_node26"><a xlink:href="../../d0/d0a/a00743.html" target="_top" xlink:title=" ">
<polygon fill="none" stroke="black" points="535.5,-168.5 535.5,-187.5 612.5,-187.5 612.5,-168.5 535.5,-168.5"/>
<text text-anchor="middle" x="574" y="-175.5" font-family="Helvetica,sans-Serif" font-size="10.00">SongAPI.hpp</text>
</a>
</g>
</g>
<!-- Node18&#45;&gt;Node26 -->
<g id="edge40" class="edge">
<title>Node18&#45;&gt;Node26</title>
<path fill="none" stroke="midnightblue" d="M978.76,-343.52C878.35,-340.38 713.2,-330.59 661,-300 614.79,-272.92 586.43,-210.52 577.26,-187.63"/>
<polygon fill="midnightblue" stroke="midnightblue" points="978.77,-347.02 988.87,-343.82 978.98,-340.03 978.77,-347.02"/>
</g>
<!-- Node19&#45;&gt;Node2 -->
<g id="edge25" class="edge">
<title>Node19&#45;&gt;Node2</title>
<path fill="none" stroke="midnightblue" d="M1000.52,-282.29C946.11,-275.05 869.93,-262.09 846,-244 815.55,-220.98 835.77,-191.89 806,-168 777.05,-144.77 737.04,-133.5 703.66,-128.04"/>
<polygon fill="midnightblue" stroke="midnightblue" points="1000.38,-285.8 1010.75,-283.61 1001.28,-278.86 1000.38,-285.8"/>
</g>
<!-- Node19&#45;&gt;Node8 -->
<g id="edge37" class="edge">
<title>Node19&#45;&gt;Node8</title>
<path fill="none" stroke="midnightblue" d="M1066.84,-270.89C1080.66,-239.19 1108.6,-176.21 1116,-168 1157.63,-121.82 1225.38,-89.95 1260.42,-75.6"/>
<polygon fill="midnightblue" stroke="midnightblue" points="1063.52,-269.75 1062.74,-280.32 1069.94,-272.54 1063.52,-269.75"/>
</g>
<!-- Node19&#45;&gt;Node17 -->
<g id="edge26" class="edge">
<title>Node19&#45;&gt;Node17</title>
<path fill="none" stroke="midnightblue" d="M1084.69,-275.73C1128.93,-252.88 1218.34,-206.71 1255.36,-187.59"/>
<polygon fill="midnightblue" stroke="midnightblue" points="1082.99,-272.67 1075.71,-280.37 1086.2,-278.89 1082.99,-272.67"/>
</g>
<!-- Node20 -->
<g id="node20" class="node">
<title>Node20</title>
<g id="a_node20"><a xlink:href="../../d1/d04/a00713.html" target="_top" xlink:title=" ">
<polygon fill="none" stroke="black" points="855,-224.5 855,-243.5 955,-243.5 955,-224.5 855,-224.5"/>
<text text-anchor="middle" x="905" y="-231.5" font-family="Helvetica,sans-Serif" font-size="10.00">GuildEntities.hpp</text>
</a>
</g>
</g>
<!-- Node19&#45;&gt;Node20 -->
<g id="edge27" class="edge">
<title>Node19&#45;&gt;Node20</title>
<path fill="none" stroke="midnightblue" d="M1024.89,-277.04C995.91,-266.88 955.04,-252.55 929.29,-243.52"/>
<polygon fill="midnightblue" stroke="midnightblue" points="1024,-280.44 1034.6,-280.44 1026.32,-273.83 1024,-280.44"/>
</g>
<!-- Node19&#45;&gt;Node21 -->
<g id="edge35" class="edge">
<title>Node19&#45;&gt;Node21</title>
<path fill="none" stroke="midnightblue" d="M1096.61,-277.38C1168.46,-255.18 1323.7,-207.21 1387.13,-187.61"/>
<polygon fill="midnightblue" stroke="midnightblue" points="1095.16,-274.16 1086.64,-280.46 1097.23,-280.85 1095.16,-274.16"/>
</g>
<!-- Node19&#45;&gt;Node22 -->
<g id="edge36" class="edge">
<title>Node19&#45;&gt;Node22</title>
<path fill="none" stroke="midnightblue" d="M1000.37,-286.46C948.92,-282.37 873.14,-271.7 813,-244 782.77,-230.08 754.23,-202.07 740.89,-187.8"/>
<polygon fill="midnightblue" stroke="midnightblue" points="1000.41,-289.98 1010.64,-287.22 1000.93,-282.99 1000.41,-289.98"/>
</g>
<!-- Node19&#45;&gt;Node24 -->
<g id="edge39" class="edge">
<title>Node19&#45;&gt;Node24</title>
<path fill="none" stroke="midnightblue" d="M1078.17,-273.84C1088.33,-265.46 1100.78,-254.62 1111,-244 1129.04,-225.25 1147.42,-200.73 1156.74,-187.83"/>
<polygon fill="midnightblue" stroke="midnightblue" points="1075.84,-271.22 1070.28,-280.24 1080.25,-276.66 1075.84,-271.22"/>
</g>
<!-- Node25 -->
<g id="node25" class="node">
<title>Node25</title>
<g id="a_node25"><a xlink:href="../../d0/d11/a00842.html" target="_top" xlink:title=" ">
<polygon fill="none" stroke="black" points="973.5,-224.5 973.5,-243.5 1068.5,-243.5 1068.5,-224.5 973.5,-224.5"/>
<text text-anchor="middle" x="1021" y="-231.5" font-family="Helvetica,sans-Serif" font-size="10.00">RoleEntities.cpp</text>
</a>
</g>
</g>
<!-- Node19&#45;&gt;Node25 -->
<g id="edge38" class="edge">
<title>Node19&#45;&gt;Node25</title>
<path fill="none" stroke="midnightblue" d="M1046.94,-271.86C1040.36,-262.5 1032.49,-251.33 1027.16,-243.75"/>
<polygon fill="midnightblue" stroke="midnightblue" points="1044.11,-273.92 1052.73,-280.08 1049.83,-269.89 1044.11,-273.92"/>
</g>
<!-- Node20&#45;&gt;Node2 -->
<g id="edge28" class="edge">
<title>Node20&#45;&gt;Node2</title>
<path fill="none" stroke="midnightblue" d="M948.45,-221.51C983.12,-210.29 1022.73,-191.47 1002,-168 982.61,-146.05 801.78,-132.28 703.64,-126.36"/>
<polygon fill="midnightblue" stroke="midnightblue" points="947.37,-218.18 938.85,-224.48 949.44,-224.87 947.37,-218.18"/>
</g>
<!-- Node20&#45;&gt;Node8 -->
<g id="edge32" class="edge">
<title>Node20&#45;&gt;Node8</title>
<path fill="none" stroke="midnightblue" d="M944.62,-221.28C967.34,-213.63 995.85,-202.37 1019,-188 1061.77,-161.44 1058.58,-135.7 1103,-112 1126.23,-99.6 1193.21,-84.68 1238.58,-75.52"/>
<polygon fill="midnightblue" stroke="midnightblue" points="943.37,-218.01 934.95,-224.45 945.54,-224.67 943.37,-218.01"/>
</g>
<!-- Node20&#45;&gt;Node17 -->
<g id="edge29" class="edge">
<title>Node20&#45;&gt;Node17</title>
<path fill="none" stroke="midnightblue" d="M965.27,-223.82C1060.16,-209.67 1158.92,-195.32 1218.29,-186.74"/>
<polygon fill="midnightblue" stroke="midnightblue" points="964.58,-220.38 955.21,-225.32 965.62,-227.3 964.58,-220.38"/>
</g>
<!-- Node20&#45;&gt;Node21 -->
<g id="edge30" class="edge">
<title>Node20&#45;&gt;Node21</title>
<path fill="none" stroke="midnightblue" d="M965.16,-223.91C1129.63,-203.59 1172.88,-204.79 1334,-188 1337.24,-187.66 1340.55,-187.31 1343.89,-186.96"/>
<polygon fill="midnightblue" stroke="midnightblue" points="964.68,-220.45 955.19,-225.15 965.54,-227.39 964.68,-220.45"/>
</g>
<!-- Node20&#45;&gt;Node22 -->
<g id="edge31" class="edge">
<title>Node20&#45;&gt;Node22</title>
<path fill="none" stroke="midnightblue" d="M868.17,-221.44C835.74,-211.26 789.26,-196.66 760.13,-187.52"/>
<polygon fill="midnightblue" stroke="midnightblue" points="867.16,-224.79 877.75,-224.44 869.25,-218.11 867.16,-224.79"/>
</g>
<!-- Node20&#45;&gt;Node23 -->
<g id="edge33" class="edge">
<title>Node20&#45;&gt;Node23</title>
<path fill="none" stroke="midnightblue" d="M911.2,-214.4C914.21,-205.36 917.69,-194.94 920.08,-187.75"/>
<polygon fill="midnightblue" stroke="midnightblue" points="907.81,-213.49 907.97,-224.08 914.46,-215.7 907.81,-213.49"/>
</g>
<!-- Node20&#45;&gt;Node24 -->
<g id="edge34" class="edge">
<title>Node20&#45;&gt;Node24</title>
<path fill="none" stroke="midnightblue" d="M955.81,-222.37C1005.64,-211.94 1080.47,-196.27 1125.25,-186.9"/>
<polygon fill="midnightblue" stroke="midnightblue" points="954.95,-218.97 945.88,-224.44 956.39,-225.82 954.95,-218.97"/>
</g>
<!-- Node26&#45;&gt;Node2 -->
<g id="edge41" class="edge">
<title>Node26&#45;&gt;Node2</title>
<path fill="none" stroke="midnightblue" d="M592.83,-161.82C604.84,-152.15 619.97,-139.95 630.04,-131.83"/>
<polygon fill="midnightblue" stroke="midnightblue" points="590.35,-159.32 584.76,-168.32 594.75,-164.77 590.35,-159.32"/>
</g>
<!-- Node26&#45;&gt;Node8 -->
<g id="edge42" class="edge">
<title>Node26&#45;&gt;Node8</title>
<path fill="none" stroke="midnightblue" d="M622.63,-169.46C751.86,-149.4 1102.9,-94.94 1233.33,-74.71"/>
<polygon fill="midnightblue" stroke="midnightblue" points="621.97,-166.02 612.62,-171.01 623.04,-172.93 621.97,-166.02"/>
</g>
<!-- Node26&#45;&gt;Node11 -->
<g id="edge43" class="edge">
<title>Node26&#45;&gt;Node11</title>
<path fill="none" stroke="midnightblue" d="M553.09,-162.71C519.16,-139.53 453.15,-94.43 425.57,-75.59"/>
<polygon fill="midnightblue" stroke="midnightblue" points="551.14,-165.62 561.37,-168.37 555.08,-159.84 551.14,-165.62"/>
</g>
<!-- Node27&#45;&gt;Node2 -->
<g id="edge49" class="edge">
<title>Node27&#45;&gt;Node2</title>
<path fill="none" stroke="midnightblue" d="M1522.58,-214.55C1518.69,-199.3 1510.72,-178.51 1495,-168 1462.21,-146.08 895.43,-129.55 703.75,-124.56"/>
<polygon fill="midnightblue" stroke="midnightblue" points="1519.18,-215.42 1524.74,-224.44 1526.02,-213.93 1519.18,-215.42"/>
</g>
<!-- Node27&#45;&gt;Node17 -->
<g id="edge50" class="edge">
<title>Node27&#45;&gt;Node17</title>
<path fill="none" stroke="midnightblue" d="M1475.88,-222.35C1427.88,-212.14 1356.38,-196.94 1312.06,-187.52"/>
<polygon fill="midnightblue" stroke="midnightblue" points="1475.24,-225.79 1485.75,-224.44 1476.7,-218.94 1475.24,-225.79"/>
</g>
<!-- Node27&#45;&gt;Node21 -->
<g id="edge51" class="edge">
<title>Node27&#45;&gt;Node21</title>
<path fill="none" stroke="midnightblue" d="M1498.99,-219.86C1478.41,-209.85 1450.66,-196.35 1432.79,-187.65"/>
<polygon fill="midnightblue" stroke="midnightblue" points="1497.64,-223.1 1508.17,-224.32 1500.7,-216.8 1497.64,-223.1"/>
</g>
<!-- Node28 -->
<g id="node28" class="node">
<title>Node28</title>
<g id="a_node28"><a xlink:href="../../df/de8/a00839.html" target="_top" xlink:title=" ">
<polygon fill="none" stroke="black" points="1542,-168.5 1542,-187.5 1658,-187.5 1658,-168.5 1542,-168.5"/>
<text text-anchor="middle" x="1600" y="-175.5" font-family="Helvetica,sans-Serif" font-size="10.00">ReactionEntities.cpp</text>
</a>
</g>
</g>
<!-- Node27&#45;&gt;Node28 -->
<g id="edge52" class="edge">
<title>Node27&#45;&gt;Node28</title>
<path fill="none" stroke="midnightblue" d="M1546.03,-218.38C1559.41,-208.62 1576.56,-196.11 1587.89,-187.83"/>
<polygon fill="midnightblue" stroke="midnightblue" points="1543.9,-215.6 1537.89,-224.32 1548.03,-221.26 1543.9,-215.6"/>
</g>
<!-- Node30&#45;&gt;Node2 -->
<g id="edge60" class="edge">
<title>Node30&#45;&gt;Node2</title>
<path fill="none" stroke="midnightblue" d="M375.84,-271.04C388.49,-244.28 415.96,-194.27 455,-168 491.52,-143.42 540.06,-132.23 578.4,-127.15"/>
<polygon fill="midnightblue" stroke="midnightblue" points="372.56,-269.81 371.6,-280.36 378.93,-272.71 372.56,-269.81"/>
</g>
<!-- Node30&#45;&gt;Node11 -->
<g id="edge63" class="edge">
<title>Node30&#45;&gt;Node11</title>
<path fill="none" stroke="midnightblue" d="M371.79,-270.3C381.05,-224.64 404.52,-108.85 411.2,-75.88"/>
<polygon fill="midnightblue" stroke="midnightblue" points="368.32,-269.8 369.76,-280.3 375.18,-271.19 368.32,-269.8"/>
</g>
<!-- Node30&#45;&gt;Node12 -->
<g id="edge64" class="edge">
<title>Node30&#45;&gt;Node12</title>
<path fill="none" stroke="midnightblue" d="M353.21,-272.83C313.22,-229.09 203.85,-109.48 173.12,-75.88"/>
<polygon fill="midnightblue" stroke="midnightblue" points="350.71,-275.28 360.04,-280.3 355.88,-270.56 350.71,-275.28"/>
</g>
<!-- Node30&#45;&gt;Node13 -->
<g id="edge65" class="edge">
<title>Node30&#45;&gt;Node13</title>
<path fill="none" stroke="midnightblue" d="M362.11,-270.58C347.57,-225.14 310.41,-108.92 299.84,-75.88"/>
<polygon fill="midnightblue" stroke="midnightblue" points="358.84,-271.84 365.22,-280.3 365.5,-269.71 358.84,-271.84"/>
</g>
<!-- Node30&#45;&gt;Node15 -->
<g id="edge66" class="edge">
<title>Node30&#45;&gt;Node15</title>
<path fill="none" stroke="midnightblue" d="M346.85,-274.42C285.26,-231.96 107.38,-109.32 58.54,-75.64"/>
<polygon fill="midnightblue" stroke="midnightblue" points="345.16,-277.5 355.38,-280.3 349.13,-271.74 345.16,-277.5"/>
</g>
<!-- Node30&#45;&gt;Node20 -->
<g id="edge61" class="edge">
<title>Node30&#45;&gt;Node20</title>
<path fill="none" stroke="midnightblue" d="M437.5,-282.01C547.31,-270.97 758.32,-249.75 854.73,-240.06"/>
<polygon fill="midnightblue" stroke="midnightblue" points="437.12,-278.53 427.52,-283.01 437.82,-285.5 437.12,-278.53"/>
</g>
<!-- Node30&#45;&gt;Node26 -->
<g id="edge62" class="edge">
<title>Node30&#45;&gt;Node26</title>
<path fill="none" stroke="midnightblue" d="M393.11,-275.59C436,-252.69 522.18,-206.67 557.91,-187.59"/>
<polygon fill="midnightblue" stroke="midnightblue" points="391.34,-272.57 384.16,-280.37 394.63,-278.75 391.34,-272.57"/>
</g>
</g>
</svg>
