<?xml version="1.0" encoding="UTF-8" standalone="no"?>
<!DOCTYPE svg PUBLIC "-//W3C//DTD SVG 1.1//EN"
 "http://www.w3.org/Graphics/SVG/1.1/DTD/svg11.dtd">
<!-- Generated by graphviz version 3.0.0 (20220226.1711)
 -->
<!-- Title: ChannelEntities.cpp Pages: 1 -->
<svg width="1798pt" height="487pt"
 viewBox="0.00 0.00 1798.00 487.00" xmlns="http://www.w3.org/2000/svg" xmlns:xlink="http://www.w3.org/1999/xlink">
<g id="graph0" class="graph" transform="scale(1 1) rotate(0) translate(4 483)">
<title>ChannelEntities.cpp</title>
<!-- Node1 -->
<g id="node1" class="node">
<title>Node1</title>
<g id="a_node1"><a xlink:title=" ">
<polygon fill="#bfbfbf" stroke="black" points="927.5,-459.5 927.5,-478.5 1031.5,-478.5 1031.5,-459.5 927.5,-459.5"/>
<text text-anchor="middle" x="979.5" y="-466.5" font-family="Helvetica,sans-Serif" font-size="10.00">ChannelEntities.cpp</text>
</a>
</g>
</g>
<!-- Node2 -->
<g id="node2" class="node">
<title>Node2</title>
<g id="a_node2"><a xlink:href="../../d1/d87/a00689.html" target="_top" xlink:title=" ">
<polygon fill="none" stroke="black" points="620.5,-347.5 620.5,-366.5 790.5,-366.5 790.5,-347.5 620.5,-347.5"/>
<text text-anchor="middle" x="705.5" y="-354.5" font-family="Helvetica,sans-Serif" font-size="10.00">discordcoreapi/ChannelEntities.hpp</text>
</a>
</g>
</g>
<!-- Node1&#45;&gt;Node2 -->
<g id="edge1" class="edge">
<title>Node1&#45;&gt;Node2</title>
<path fill="none" stroke="midnightblue" d="M958,-459.37C909.68,-439.97 792.36,-392.87 736.31,-370.37"/>
<polygon fill="midnightblue" stroke="midnightblue" points="737.48,-367.07 726.9,-366.59 734.88,-373.57 737.48,-367.07"/>
</g>
<!-- Node44 -->
<g id="node44" class="node">
<title>Node44</title>
<g id="a_node44"><a xlink:href="../../d5/d5b/a00695.html" target="_top" xlink:title=" ">
<polygon fill="none" stroke="black" points="995.5,-403.5 995.5,-422.5 1141.5,-422.5 1141.5,-403.5 995.5,-403.5"/>
<text text-anchor="middle" x="1068.5" y="-410.5" font-family="Helvetica,sans-Serif" font-size="10.00">discordcoreapi/CoRoutine.hpp</text>
</a>
</g>
</g>
<!-- Node1&#45;&gt;Node44 -->
<g id="edge45" class="edge">
<title>Node1&#45;&gt;Node44</title>
<path fill="none" stroke="midnightblue" d="M993.8,-459.32C1007.68,-450.9 1028.99,-437.97 1045.3,-428.07"/>
<polygon fill="midnightblue" stroke="midnightblue" points="1047.5,-430.83 1054.24,-422.65 1043.87,-424.85 1047.5,-430.83"/>
</g>
<!-- Node3 -->
<g id="node3" class="node">
<title>Node3</title>
<g id="a_node3"><a xlink:href="../../d4/deb/a00710.html" target="_top" xlink:title=" ">
<polygon fill="none" stroke="black" points="962,-112.5 962,-142.5 1093,-142.5 1093,-112.5 962,-112.5"/>
<text text-anchor="start" x="970" y="-130.5" font-family="Helvetica,sans-Serif" font-size="10.00">discordcoreapi/Foundation</text>
<text text-anchor="middle" x="1027.5" y="-119.5" font-family="Helvetica,sans-Serif" font-size="10.00">Entities.hpp</text>
</a>
</g>
</g>
<!-- Node2&#45;&gt;Node3 -->
<g id="edge2" class="edge">
<title>Node2&#45;&gt;Node3</title>
<path fill="none" stroke="midnightblue" d="M620.28,-347.86C420.86,-327.22 -53.16,-268.06 31.5,-179 63.09,-145.77 724.59,-132.95 951.73,-129.52"/>
<polygon fill="midnightblue" stroke="midnightblue" points="951.94,-133.02 961.89,-129.37 951.84,-126.02 951.94,-133.02"/>
</g>
<!-- Node29 -->
<g id="node29" class="node">
<title>Node29</title>
<g id="a_node29"><a xlink:href="../../db/d7c/a00722.html" target="_top" xlink:title=" ">
<polygon fill="none" stroke="black" points="643,-291.5 643,-310.5 768,-310.5 768,-291.5 643,-291.5"/>
<text text-anchor="middle" x="705.5" y="-298.5" font-family="Helvetica,sans-Serif" font-size="10.00">discordcoreapi/Https.hpp</text>
</a>
</g>
</g>
<!-- Node2&#45;&gt;Node29 -->
<g id="edge28" class="edge">
<title>Node2&#45;&gt;Node29</title>
<path fill="none" stroke="midnightblue" d="M705.5,-347.08C705.5,-340.01 705.5,-329.86 705.5,-320.99"/>
<polygon fill="midnightblue" stroke="midnightblue" points="709,-320.75 705.5,-310.75 702,-320.75 709,-320.75"/>
</g>
<!-- Node4 -->
<g id="node4" class="node">
<title>Node4</title>
<g id="a_node4"><a xlink:href="../../d5/dae/a00767.html" target="_top" xlink:title=" ">
<polygon fill="none" stroke="black" points="960.5,-56.5 960.5,-75.5 1094.5,-75.5 1094.5,-56.5 960.5,-56.5"/>
<text text-anchor="middle" x="1027.5" y="-63.5" font-family="Helvetica,sans-Serif" font-size="10.00">discordcoreapi/Utilities.hpp</text>
</a>
</g>
</g>
<!-- Node3&#45;&gt;Node4 -->
<g id="edge3" class="edge">
<title>Node3&#45;&gt;Node4</title>
<path fill="none" stroke="midnightblue" d="M1027.5,-112.4C1027.5,-104.47 1027.5,-94.46 1027.5,-85.86"/>
<polygon fill="midnightblue" stroke="midnightblue" points="1031,-85.66 1027.5,-75.66 1024,-85.66 1031,-85.66"/>
</g>
<!-- Node5 -->
<g id="node5" class="node">
<title>Node5</title>
<g id="a_node5"><a xlink:title=" ">
<polygon fill="none" stroke="#bfbfbf" points="0,-0.5 0,-19.5 57,-19.5 57,-0.5 0,-0.5"/>
<text text-anchor="middle" x="28.5" y="-7.5" font-family="Helvetica,sans-Serif" font-size="10.00">pthread.h</text>
</a>
</g>
</g>
<!-- Node4&#45;&gt;Node5 -->
<g id="edge4" class="edge">
<title>Node4&#45;&gt;Node5</title>
<path fill="none" stroke="midnightblue" d="M960.37,-63.48C775.08,-59.03 258.15,-44.84 66.97,-19.72"/>
<polygon fill="midnightblue" stroke="midnightblue" points="67.41,-16.24 57.03,-18.36 66.46,-23.18 67.41,-16.24"/>
</g>
<!-- Node6 -->
<g id="node6" class="node">
<title>Node6</title>
<g id="a_node6"><a xlink:title=" ">
<polygon fill="none" stroke="#bfbfbf" points="75.5,-0.5 75.5,-19.5 137.5,-19.5 137.5,-0.5 75.5,-0.5"/>
<text text-anchor="middle" x="106.5" y="-7.5" font-family="Helvetica,sans-Serif" font-size="10.00">sys/time.h</text>
</a>
</g>
</g>
<!-- Node4&#45;&gt;Node6 -->
<g id="edge5" class="edge">
<title>Node4&#45;&gt;Node6</title>
<path fill="none" stroke="midnightblue" d="M960.27,-65.45C813.99,-65.6 455.87,-61.41 147.87,-19.95"/>
<polygon fill="midnightblue" stroke="midnightblue" points="148.23,-16.47 137.85,-18.58 147.29,-23.4 148.23,-16.47"/>
</g>
<!-- Node7 -->
<g id="node7" class="node">
<title>Node7</title>
<g id="a_node7"><a xlink:title=" ">
<polygon fill="none" stroke="#bfbfbf" points="155.5,-0.5 155.5,-19.5 199.5,-19.5 199.5,-0.5 155.5,-0.5"/>
<text text-anchor="middle" x="177.5" y="-7.5" font-family="Helvetica,sans-Serif" font-size="10.00">time.h</text>
</a>
</g>
</g>
<!-- Node4&#45;&gt;Node7 -->
<g id="edge6" class="edge">
<title>Node4&#45;&gt;Node7</title>
<path fill="none" stroke="midnightblue" d="M960.38,-63.28C795.18,-58.74 371.22,-45.13 209.95,-19.79"/>
<polygon fill="midnightblue" stroke="midnightblue" points="210.15,-16.28 199.71,-18.1 209.01,-23.18 210.15,-16.28"/>
</g>
<!-- Node8 -->
<g id="node8" class="node">
<title>Node8</title>
<g id="a_node8"><a xlink:title=" ">
<polygon fill="none" stroke="#bfbfbf" points="218,-0.5 218,-19.5 259,-19.5 259,-0.5 218,-0.5"/>
<text text-anchor="middle" x="238.5" y="-7.5" font-family="Helvetica,sans-Serif" font-size="10.00">ctime</text>
</a>
</g>
</g>
<!-- Node4&#45;&gt;Node8 -->
<g id="edge7" class="edge">
<title>Node4&#45;&gt;Node8</title>
<path fill="none" stroke="midnightblue" d="M960.23,-63.1C803.79,-58.36 418.13,-44.68 269.54,-19.91"/>
<polygon fill="midnightblue" stroke="midnightblue" points="269.71,-16.38 259.26,-18.1 268.5,-23.28 269.71,-16.38"/>
</g>
<!-- Node9 -->
<g id="node9" class="node">
<title>Node9</title>
<g id="a_node9"><a xlink:title=" ">
<polygon fill="none" stroke="#bfbfbf" points="277,-0.5 277,-19.5 370,-19.5 370,-0.5 277,-0.5"/>
<text text-anchor="middle" x="323.5" y="-7.5" font-family="Helvetica,sans-Serif" font-size="10.00">condition_variable</text>
</a>
</g>
</g>
<!-- Node4&#45;&gt;Node9 -->
<g id="edge8" class="edge">
<title>Node4&#45;&gt;Node9</title>
<path fill="none" stroke="midnightblue" d="M960.15,-62.32C843.98,-57.27 598.27,-44.64 380.24,-19.97"/>
<polygon fill="midnightblue" stroke="midnightblue" points="380.54,-16.49 370.21,-18.83 379.75,-23.44 380.54,-16.49"/>
</g>
<!-- Node10 -->
<g id="node10" class="node">
<title>Node10</title>
<g id="a_node10"><a xlink:title=" ">
<polygon fill="none" stroke="#bfbfbf" points="388.5,-0.5 388.5,-19.5 486.5,-19.5 486.5,-0.5 388.5,-0.5"/>
<text text-anchor="middle" x="437.5" y="-7.5" font-family="Helvetica,sans-Serif" font-size="10.00">nlohmann/json.hpp</text>
</a>
</g>
</g>
<!-- Node4&#45;&gt;Node10 -->
<g id="edge9" class="edge">
<title>Node4&#45;&gt;Node10</title>
<path fill="none" stroke="midnightblue" d="M960.16,-60.81C860.97,-54.31 669.55,-40.48 496.57,-20.05"/>
<polygon fill="midnightblue" stroke="midnightblue" points="496.86,-16.56 486.51,-18.85 496.03,-23.51 496.86,-16.56"/>
</g>
<!-- Node11 -->
<g id="node11" class="node">
<title>Node11</title>
<g id="a_node11"><a xlink:title=" ">
<polygon fill="none" stroke="#bfbfbf" points="505,-0.5 505,-19.5 590,-19.5 590,-0.5 505,-0.5"/>
<text text-anchor="middle" x="547.5" y="-7.5" font-family="Helvetica,sans-Serif" font-size="10.00">source_location</text>
</a>
</g>
</g>
<!-- Node4&#45;&gt;Node11 -->
<g id="edge10" class="edge">
<title>Node4&#45;&gt;Node11</title>
<path fill="none" stroke="midnightblue" d="M960.44,-59.43C877.93,-52.25 733.33,-38.61 600.03,-20.13"/>
<polygon fill="midnightblue" stroke="midnightblue" points="600.43,-16.66 590.04,-18.74 599.46,-23.59 600.43,-16.66"/>
</g>
<!-- Node12 -->
<g id="node12" class="node">
<title>Node12</title>
<g id="a_node12"><a xlink:title=" ">
<polygon fill="none" stroke="#bfbfbf" points="608,-0.5 608,-19.5 691,-19.5 691,-0.5 608,-0.5"/>
<text text-anchor="middle" x="649.5" y="-7.5" font-family="Helvetica,sans-Serif" font-size="10.00">unordered_map</text>
</a>
</g>
</g>
<!-- Node4&#45;&gt;Node12 -->
<g id="edge11" class="edge">
<title>Node4&#45;&gt;Node12</title>
<path fill="none" stroke="midnightblue" d="M960.38,-56.52C896.46,-48.27 797.29,-35.03 701.39,-20.09"/>
<polygon fill="midnightblue" stroke="midnightblue" points="701.65,-16.59 691.23,-18.5 700.56,-23.5 701.65,-16.59"/>
</g>
<!-- Node13 -->
<g id="node13" class="node">
<title>Node13</title>
<g id="a_node13"><a xlink:title=" ">
<polygon fill="none" stroke="#bfbfbf" points="709.5,-0.5 709.5,-19.5 787.5,-19.5 787.5,-0.5 709.5,-0.5"/>
<text text-anchor="middle" x="748.5" y="-7.5" font-family="Helvetica,sans-Serif" font-size="10.00">shared_mutex</text>
</a>
</g>
</g>
<!-- Node4&#45;&gt;Node13 -->
<g id="edge12" class="edge">
<title>Node4&#45;&gt;Node13</title>
<path fill="none" stroke="midnightblue" d="M983.29,-56.44C932.73,-46.66 850.18,-30.68 797.64,-20.51"/>
<polygon fill="midnightblue" stroke="midnightblue" points="798.03,-17.02 787.55,-18.56 796.7,-23.89 798.03,-17.02"/>
</g>
<!-- Node14 -->
<g id="node14" class="node">
<title>Node14</title>
<g id="a_node14"><a xlink:title=" ">
<polygon fill="none" stroke="#bfbfbf" points="805.5,-0.5 805.5,-19.5 863.5,-19.5 863.5,-0.5 805.5,-0.5"/>
<text text-anchor="middle" x="834.5" y="-7.5" font-family="Helvetica,sans-Serif" font-size="10.00">functional</text>
</a>
</g>
</g>
<!-- Node4&#45;&gt;Node14 -->
<g id="edge13" class="edge">
<title>Node4&#45;&gt;Node14</title>
<path fill="none" stroke="midnightblue" d="M996.92,-56.44C963.5,-47.09 909.87,-32.09 873.46,-21.9"/>
<polygon fill="midnightblue" stroke="midnightblue" points="874.25,-18.49 863.67,-19.16 872.36,-25.23 874.25,-18.49"/>
</g>
<!-- Node15 -->
<g id="node15" class="node">
<title>Node15</title>
<g id="a_node15"><a xlink:title=" ">
<polygon fill="none" stroke="#bfbfbf" points="881.5,-0.5 881.5,-19.5 937.5,-19.5 937.5,-0.5 881.5,-0.5"/>
<text text-anchor="middle" x="909.5" y="-7.5" font-family="Helvetica,sans-Serif" font-size="10.00">coroutine</text>
</a>
</g>
</g>
<!-- Node4&#45;&gt;Node15 -->
<g id="edge14" class="edge">
<title>Node4&#45;&gt;Node15</title>
<path fill="none" stroke="midnightblue" d="M1008.8,-56.44C989.56,-47.64 959.35,-33.81 937.3,-23.72"/>
<polygon fill="midnightblue" stroke="midnightblue" points="938.66,-20.5 928.11,-19.52 935.75,-26.86 938.66,-20.5"/>
</g>
<!-- Node16 -->
<g id="node16" class="node">
<title>Node16</title>
<g id="a_node16"><a xlink:title=" ">
<polygon fill="none" stroke="#bfbfbf" points="956,-0.5 956,-19.5 1021,-19.5 1021,-0.5 956,-0.5"/>
<text text-anchor="middle" x="988.5" y="-7.5" font-family="Helvetica,sans-Serif" font-size="10.00">semaphore</text>
</a>
</g>
</g>
<!-- Node4&#45;&gt;Node16 -->
<g id="edge15" class="edge">
<title>Node4&#45;&gt;Node16</title>
<path fill="none" stroke="midnightblue" d="M1021.06,-56.08C1015.55,-48.46 1007.47,-37.26 1000.74,-27.94"/>
<polygon fill="midnightblue" stroke="midnightblue" points="1003.51,-25.81 994.82,-19.75 997.84,-29.91 1003.51,-25.81"/>
</g>
<!-- Node17 -->
<g id="node17" class="node">
<title>Node17</title>
<g id="a_node17"><a xlink:title=" ">
<polygon fill="none" stroke="#bfbfbf" points="1039.5,-0.5 1039.5,-19.5 1095.5,-19.5 1095.5,-0.5 1039.5,-0.5"/>
<text text-anchor="middle" x="1067.5" y="-7.5" font-family="Helvetica,sans-Serif" font-size="10.00">concepts</text>
</a>
</g>
</g>
<!-- Node4&#45;&gt;Node17 -->
<g id="edge16" class="edge">
<title>Node4&#45;&gt;Node17</title>
<path fill="none" stroke="midnightblue" d="M1034.11,-56.08C1039.76,-48.46 1048.04,-37.26 1054.95,-27.94"/>
<polygon fill="midnightblue" stroke="midnightblue" points="1057.88,-29.87 1061.02,-19.75 1052.25,-25.7 1057.88,-29.87"/>
</g>
<!-- Node18 -->
<g id="node18" class="node">
<title>Node18</title>
<g id="a_node18"><a xlink:title=" ">
<polygon fill="none" stroke="#bfbfbf" points="1113.5,-0.5 1113.5,-19.5 1167.5,-19.5 1167.5,-0.5 1113.5,-0.5"/>
<text text-anchor="middle" x="1140.5" y="-7.5" font-family="Helvetica,sans-Serif" font-size="10.00">iostream</text>
</a>
</g>
</g>
<!-- Node4&#45;&gt;Node18 -->
<g id="edge17" class="edge">
<title>Node4&#45;&gt;Node18</title>
<path fill="none" stroke="midnightblue" d="M1045.41,-56.44C1063.75,-47.68 1092.51,-33.94 1113.59,-23.86"/>
<polygon fill="midnightblue" stroke="midnightblue" points="1115.17,-26.99 1122.68,-19.52 1112.15,-20.67 1115.17,-26.99"/>
</g>
<!-- Node19 -->
<g id="node19" class="node">
<title>Node19</title>
<g id="a_node19"><a xlink:title=" ">
<polygon fill="none" stroke="#bfbfbf" points="1186,-0.5 1186,-19.5 1235,-19.5 1235,-0.5 1186,-0.5"/>
<text text-anchor="middle" x="1210.5" y="-7.5" font-family="Helvetica,sans-Serif" font-size="10.00">fstream</text>
</a>
</g>
</g>
<!-- Node4&#45;&gt;Node19 -->
<g id="edge18" class="edge">
<title>Node4&#45;&gt;Node19</title>
<path fill="none" stroke="midnightblue" d="M1056.5,-56.44C1088.97,-46.86 1141.56,-31.34 1176.09,-21.15"/>
<polygon fill="midnightblue" stroke="midnightblue" points="1177.15,-24.49 1185.75,-18.3 1175.17,-17.78 1177.15,-24.49"/>
</g>
<!-- Node20 -->
<g id="node20" class="node">
<title>Node20</title>
<g id="a_node20"><a xlink:title=" ">
<polygon fill="none" stroke="#bfbfbf" points="1253,-0.5 1253,-19.5 1294,-19.5 1294,-0.5 1253,-0.5"/>
<text text-anchor="middle" x="1273.5" y="-7.5" font-family="Helvetica,sans-Serif" font-size="10.00">bitset</text>
</a>
</g>
</g>
<!-- Node4&#45;&gt;Node20 -->
<g id="edge19" class="edge">
<title>Node4&#45;&gt;Node20</title>
<path fill="none" stroke="midnightblue" d="M1074.11,-56.49C1115.89,-48.59 1179.04,-36 1243.05,-19.93"/>
<polygon fill="midnightblue" stroke="midnightblue" points="1244.08,-23.28 1252.91,-17.43 1242.35,-16.5 1244.08,-23.28"/>
</g>
<!-- Node21 -->
<g id="node21" class="node">
<title>Node21</title>
<g id="a_node21"><a xlink:title=" ">
<polygon fill="none" stroke="#bfbfbf" points="1312.5,-0.5 1312.5,-19.5 1364.5,-19.5 1364.5,-0.5 1312.5,-0.5"/>
<text text-anchor="middle" x="1338.5" y="-7.5" font-family="Helvetica,sans-Serif" font-size="10.00">memory</text>
</a>
</g>
</g>
<!-- Node4&#45;&gt;Node21 -->
<g id="edge20" class="edge">
<title>Node4&#45;&gt;Node21</title>
<path fill="none" stroke="midnightblue" d="M1089.73,-56.49C1143.56,-48.75 1223.66,-36.36 1302.13,-20.14"/>
<polygon fill="midnightblue" stroke="midnightblue" points="1303.11,-23.51 1312.19,-18.04 1301.68,-16.66 1303.11,-23.51"/>
</g>
<!-- Node22 -->
<g id="node22" class="node">
<title>Node22</title>
<g id="a_node22"><a xlink:title=" ">
<polygon fill="none" stroke="#bfbfbf" points="1383,-0.5 1383,-19.5 1432,-19.5 1432,-0.5 1383,-0.5"/>
<text text-anchor="middle" x="1407.5" y="-7.5" font-family="Helvetica,sans-Serif" font-size="10.00">random</text>
</a>
</g>
</g>
<!-- Node4&#45;&gt;Node22 -->
<g id="edge21" class="edge">
<title>Node4&#45;&gt;Node22</title>
<path fill="none" stroke="midnightblue" d="M1094.57,-58.88C1162.39,-52.1 1270.35,-39.7 1372.81,-19.9"/>
<polygon fill="midnightblue" stroke="midnightblue" points="1373.56,-23.32 1382.7,-17.96 1372.22,-16.45 1373.56,-23.32"/>
</g>
<!-- Node23 -->
<g id="node23" class="node">
<title>Node23</title>
<g id="a_node23"><a xlink:title=" ">
<polygon fill="none" stroke="#bfbfbf" points="1450,-0.5 1450,-19.5 1491,-19.5 1491,-0.5 1450,-0.5"/>
<text text-anchor="middle" x="1470.5" y="-7.5" font-family="Helvetica,sans-Serif" font-size="10.00">string</text>
</a>
</g>
</g>
<!-- Node4&#45;&gt;Node23 -->
<g id="edge22" class="edge">
<title>Node4&#45;&gt;Node23</title>
<path fill="none" stroke="midnightblue" d="M1094.8,-61.68C1175.14,-56.82 1313.55,-45.63 1439.87,-20.01"/>
<polygon fill="midnightblue" stroke="midnightblue" points="1440.63,-23.42 1449.72,-17.98 1439.22,-16.57 1440.63,-23.42"/>
</g>
<!-- Node24 -->
<g id="node24" class="node">
<title>Node24</title>
<g id="a_node24"><a xlink:title=" ">
<polygon fill="none" stroke="#bfbfbf" points="1509.5,-0.5 1509.5,-19.5 1551.5,-19.5 1551.5,-0.5 1509.5,-0.5"/>
<text text-anchor="middle" x="1530.5" y="-7.5" font-family="Helvetica,sans-Serif" font-size="10.00">vector</text>
</a>
</g>
</g>
<!-- Node4&#45;&gt;Node24 -->
<g id="edge23" class="edge">
<title>Node4&#45;&gt;Node24</title>
<path fill="none" stroke="midnightblue" d="M1094.68,-62.76C1184.84,-58.84 1349.99,-48.43 1499.07,-19.91"/>
<polygon fill="midnightblue" stroke="midnightblue" points="1500.18,-23.26 1509.32,-17.91 1498.84,-16.39 1500.18,-23.26"/>
</g>
<!-- Node25 -->
<g id="node25" class="node">
<title>Node25</title>
<g id="a_node25"><a xlink:title=" ">
<polygon fill="none" stroke="#bfbfbf" points="1569.5,-0.5 1569.5,-19.5 1613.5,-19.5 1613.5,-0.5 1569.5,-0.5"/>
<text text-anchor="middle" x="1591.5" y="-7.5" font-family="Helvetica,sans-Serif" font-size="10.00">thread</text>
</a>
</g>
</g>
<!-- Node4&#45;&gt;Node25 -->
<g id="edge24" class="edge">
<title>Node4&#45;&gt;Node25</title>
<path fill="none" stroke="midnightblue" d="M1094.54,-63.59C1194.19,-60.57 1387.25,-51.11 1559.28,-19.87"/>
<polygon fill="midnightblue" stroke="midnightblue" points="1560.08,-23.28 1569.28,-18.02 1558.81,-16.4 1560.08,-23.28"/>
</g>
<!-- Node26 -->
<g id="node26" class="node">
<title>Node26</title>
<g id="a_node26"><a xlink:title=" ">
<polygon fill="none" stroke="#bfbfbf" points="1631.5,-0.5 1631.5,-19.5 1675.5,-19.5 1675.5,-0.5 1631.5,-0.5"/>
<text text-anchor="middle" x="1653.5" y="-7.5" font-family="Helvetica,sans-Serif" font-size="10.00">mutex</text>
</a>
</g>
</g>
<!-- Node4&#45;&gt;Node26 -->
<g id="edge25" class="edge">
<title>Node4&#45;&gt;Node26</title>
<path fill="none" stroke="midnightblue" d="M1094.55,-64.43C1203.49,-62.53 1425.62,-54.54 1621.39,-19.83"/>
<polygon fill="midnightblue" stroke="midnightblue" points="1622.06,-23.26 1631.28,-18.05 1620.82,-16.38 1622.06,-23.26"/>
</g>
<!-- Node27 -->
<g id="node27" class="node">
<title>Node27</title>
<g id="a_node27"><a xlink:title=" ">
<polygon fill="none" stroke="#bfbfbf" points="1694,-0.5 1694,-19.5 1737,-19.5 1737,-0.5 1694,-0.5"/>
<text text-anchor="middle" x="1715.5" y="-7.5" font-family="Helvetica,sans-Serif" font-size="10.00">queue</text>
</a>
</g>
</g>
<!-- Node4&#45;&gt;Node27 -->
<g id="edge26" class="edge">
<title>Node4&#45;&gt;Node27</title>
<path fill="none" stroke="midnightblue" d="M1094.76,-65.12C1212.54,-64.3 1463.7,-57.97 1683.83,-19.68"/>
<polygon fill="midnightblue" stroke="midnightblue" points="1684.72,-23.08 1693.96,-17.89 1683.5,-16.19 1684.72,-23.08"/>
</g>
<!-- Node28 -->
<g id="node28" class="node">
<title>Node28</title>
<g id="a_node28"><a xlink:title=" ">
<polygon fill="none" stroke="#bfbfbf" points="1755,-0.5 1755,-19.5 1790,-19.5 1790,-0.5 1755,-0.5"/>
<text text-anchor="middle" x="1772.5" y="-7.5" font-family="Helvetica,sans-Serif" font-size="10.00">map</text>
</a>
</g>
</g>
<!-- Node4&#45;&gt;Node28 -->
<g id="edge27" class="edge">
<title>Node4&#45;&gt;Node28</title>
<path fill="none" stroke="midnightblue" d="M1094.59,-63.12C1244.69,-58.54 1604.8,-45.43 1744.69,-19.79"/>
<polygon fill="midnightblue" stroke="midnightblue" points="1745.62,-23.18 1754.77,-17.85 1744.29,-16.31 1745.62,-23.18"/>
</g>
<!-- Node30 -->
<g id="node30" class="node">
<title>Node30</title>
<g id="a_node30"><a xlink:href="../../d5/de8/a00749.html" target="_top" xlink:title=" ">
<polygon fill="none" stroke="black" points="538.5,-235.5 538.5,-254.5 688.5,-254.5 688.5,-235.5 538.5,-235.5"/>
<text text-anchor="middle" x="613.5" y="-242.5" font-family="Helvetica,sans-Serif" font-size="10.00">discordcoreapi/SSLClients.hpp</text>
</a>
</g>
</g>
<!-- Node29&#45;&gt;Node30 -->
<g id="edge29" class="edge">
<title>Node29&#45;&gt;Node30</title>
<path fill="none" stroke="midnightblue" d="M690.72,-291.32C676.23,-282.82 653.93,-269.73 637.01,-259.8"/>
<polygon fill="midnightblue" stroke="midnightblue" points="638.64,-256.7 628.24,-254.65 635.1,-262.74 638.64,-256.7"/>
</g>
<!-- Node30&#45;&gt;Node3 -->
<g id="edge30" class="edge">
<title>Node30&#45;&gt;Node3</title>
<path fill="none" stroke="midnightblue" d="M688.66,-239.45C747.6,-234.17 830.98,-222.9 900.5,-199 910.32,-195.62 960.12,-167.39 994.36,-147.69"/>
<polygon fill="midnightblue" stroke="midnightblue" points="996.21,-150.66 1003.12,-142.64 992.71,-144.6 996.21,-150.66"/>
</g>
<!-- Node31 -->
<g id="node31" class="node">
<title>Node31</title>
<g id="a_node31"><a xlink:href="../../d4/d6a/a00704.html" target="_top" xlink:title=" ">
<polygon fill="none" stroke="black" points="948.5,-179.5 948.5,-198.5 1106.5,-198.5 1106.5,-179.5 948.5,-179.5"/>
<text text-anchor="middle" x="1027.5" y="-186.5" font-family="Helvetica,sans-Serif" font-size="10.00">discordcoreapi/EventEntities.hpp</text>
</a>
</g>
</g>
<!-- Node30&#45;&gt;Node31 -->
<g id="edge31" class="edge">
<title>Node30&#45;&gt;Node31</title>
<path fill="none" stroke="midnightblue" d="M679.1,-235.44C753.29,-225.77 873.9,-210.04 951.96,-199.85"/>
<polygon fill="midnightblue" stroke="midnightblue" points="952.74,-203.28 962.21,-198.52 951.84,-196.34 952.74,-203.28"/>
</g>
<!-- Node32 -->
<g id="node32" class="node">
<title>Node32</title>
<g id="a_node32"><a xlink:title=" ">
<polygon fill="none" stroke="#bfbfbf" points="1125,-179.5 1125,-198.5 1198,-198.5 1198,-179.5 1125,-179.5"/>
<text text-anchor="middle" x="1161.5" y="-186.5" font-family="Helvetica,sans-Serif" font-size="10.00">openssl/err.h</text>
</a>
</g>
</g>
<!-- Node30&#45;&gt;Node32 -->
<g id="edge33" class="edge">
<title>Node30&#45;&gt;Node32</title>
<path fill="none" stroke="midnightblue" d="M688.62,-239.71C784.91,-233.66 957.16,-221 1114.56,-198.98"/>
<polygon fill="midnightblue" stroke="midnightblue" points="1115.49,-202.38 1124.9,-197.52 1114.51,-195.45 1115.49,-202.38"/>
</g>
<!-- Node33 -->
<g id="node33" class="node">
<title>Node33</title>
<g id="a_node33"><a xlink:title=" ">
<polygon fill="none" stroke="#bfbfbf" points="40.5,-179.5 40.5,-198.5 114.5,-198.5 114.5,-179.5 40.5,-179.5"/>
<text text-anchor="middle" x="77.5" y="-186.5" font-family="Helvetica,sans-Serif" font-size="10.00">openssl/ssl.h</text>
</a>
</g>
</g>
<!-- Node30&#45;&gt;Node33 -->
<g id="edge34" class="edge">
<title>Node30&#45;&gt;Node33</title>
<path fill="none" stroke="midnightblue" d="M538.09,-239.46C443.71,-233.25 276.94,-220.51 124.61,-199.02"/>
<polygon fill="midnightblue" stroke="midnightblue" points="125,-195.54 114.6,-197.6 124.01,-202.47 125,-195.54"/>
</g>
<!-- Node34 -->
<g id="node34" class="node">
<title>Node34</title>
<g id="a_node34"><a xlink:title=" ">
<polygon fill="none" stroke="#bfbfbf" points="133,-179.5 133,-198.5 176,-198.5 176,-179.5 133,-179.5"/>
<text text-anchor="middle" x="154.5" y="-186.5" font-family="Helvetica,sans-Serif" font-size="10.00">fcntl.h</text>
</a>
</g>
</g>
<!-- Node30&#45;&gt;Node34 -->
<g id="edge35" class="edge">
<title>Node30&#45;&gt;Node34</title>
<path fill="none" stroke="midnightblue" d="M538.46,-240.38C454.51,-235.38 314.45,-224.19 186.02,-198.98"/>
<polygon fill="midnightblue" stroke="midnightblue" points="186.5,-195.5 176.01,-196.98 185.13,-202.37 186.5,-195.5"/>
</g>
<!-- Node35 -->
<g id="node35" class="node">
<title>Node35</title>
<g id="a_node35"><a xlink:title=" ">
<polygon fill="none" stroke="#bfbfbf" points="194,-179.5 194,-198.5 243,-198.5 243,-179.5 194,-179.5"/>
<text text-anchor="middle" x="218.5" y="-186.5" font-family="Helvetica,sans-Serif" font-size="10.00">netdb.h</text>
</a>
</g>
</g>
<!-- Node30&#45;&gt;Node35 -->
<g id="edge36" class="edge">
<title>Node30&#45;&gt;Node35</title>
<path fill="none" stroke="midnightblue" d="M538.47,-237.82C467.21,-231.24 356.98,-219.2 253.29,-199.13"/>
<polygon fill="midnightblue" stroke="midnightblue" points="253.76,-195.66 243.28,-197.16 252.41,-202.53 253.76,-195.66"/>
</g>
<!-- Node36 -->
<g id="node36" class="node">
<title>Node36</title>
<g id="a_node36"><a xlink:title=" ">
<polygon fill="none" stroke="#bfbfbf" points="261,-179.5 261,-198.5 326,-198.5 326,-179.5 261,-179.5"/>
<text text-anchor="middle" x="293.5" y="-186.5" font-family="Helvetica,sans-Serif" font-size="10.00">netinet/in.h</text>
</a>
</g>
</g>
<!-- Node30&#45;&gt;Node36 -->
<g id="edge37" class="edge">
<title>Node30&#45;&gt;Node36</title>
<path fill="none" stroke="midnightblue" d="M554.55,-235.47C500.17,-227.39 416.98,-214.46 336,-199.21"/>
<polygon fill="midnightblue" stroke="midnightblue" points="336.62,-195.76 326.14,-197.34 335.31,-202.64 336.62,-195.76"/>
</g>
<!-- Node37 -->
<g id="node37" class="node">
<title>Node37</title>
<g id="a_node37"><a xlink:title=" ">
<polygon fill="none" stroke="#bfbfbf" points="344,-179.5 344,-198.5 415,-198.5 415,-179.5 344,-179.5"/>
<text text-anchor="middle" x="379.5" y="-186.5" font-family="Helvetica,sans-Serif" font-size="10.00">netinet/tcp.h</text>
</a>
</g>
</g>
<!-- Node30&#45;&gt;Node37 -->
<g id="edge38" class="edge">
<title>Node30&#45;&gt;Node37</title>
<path fill="none" stroke="midnightblue" d="M576.42,-235.44C535.41,-225.98 469.31,-210.73 425.15,-200.54"/>
<polygon fill="midnightblue" stroke="midnightblue" points="425.78,-197.09 415.25,-198.25 424.21,-203.91 425.78,-197.09"/>
</g>
<!-- Node38 -->
<g id="node38" class="node">
<title>Node38</title>
<g id="a_node38"><a xlink:title=" ">
<polygon fill="none" stroke="#bfbfbf" points="433,-179.5 433,-198.5 482,-198.5 482,-179.5 433,-179.5"/>
<text text-anchor="middle" x="457.5" y="-186.5" font-family="Helvetica,sans-Serif" font-size="10.00">stdint.h</text>
</a>
</g>
</g>
<!-- Node30&#45;&gt;Node38 -->
<g id="edge39" class="edge">
<title>Node30&#45;&gt;Node38</title>
<path fill="none" stroke="midnightblue" d="M588.78,-235.44C562.65,-226.4 521.24,-212.06 491.92,-201.92"/>
<polygon fill="midnightblue" stroke="midnightblue" points="492.7,-198.48 482.1,-198.52 490.41,-205.1 492.7,-198.48"/>
</g>
<!-- Node39 -->
<g id="node39" class="node">
<title>Node39</title>
<g id="a_node39"><a xlink:title=" ">
<polygon fill="none" stroke="#bfbfbf" points="500.5,-179.5 500.5,-198.5 564.5,-198.5 564.5,-179.5 500.5,-179.5"/>
<text text-anchor="middle" x="532.5" y="-186.5" font-family="Helvetica,sans-Serif" font-size="10.00">sys/epoll.h</text>
</a>
</g>
</g>
<!-- Node30&#45;&gt;Node39 -->
<g id="edge40" class="edge">
<title>Node30&#45;&gt;Node39</title>
<path fill="none" stroke="midnightblue" d="M600.49,-235.32C587.97,-226.98 568.82,-214.21 554.03,-204.35"/>
<polygon fill="midnightblue" stroke="midnightblue" points="555.74,-201.29 545.48,-198.65 551.86,-207.11 555.74,-201.29"/>
</g>
<!-- Node40 -->
<g id="node40" class="node">
<title>Node40</title>
<g id="a_node40"><a xlink:title=" ">
<polygon fill="none" stroke="#bfbfbf" points="582.5,-179.5 582.5,-198.5 644.5,-198.5 644.5,-179.5 582.5,-179.5"/>
<text text-anchor="middle" x="613.5" y="-186.5" font-family="Helvetica,sans-Serif" font-size="10.00">arpa/inet.h</text>
</a>
</g>
</g>
<!-- Node30&#45;&gt;Node40 -->
<g id="edge41" class="edge">
<title>Node30&#45;&gt;Node40</title>
<path fill="none" stroke="midnightblue" d="M613.5,-235.08C613.5,-228.01 613.5,-217.86 613.5,-208.99"/>
<polygon fill="midnightblue" stroke="midnightblue" points="617,-208.75 613.5,-198.75 610,-208.75 617,-208.75"/>
</g>
<!-- Node41 -->
<g id="node41" class="node">
<title>Node41</title>
<g id="a_node41"><a xlink:title=" ">
<polygon fill="none" stroke="#bfbfbf" points="663,-179.5 663,-198.5 736,-198.5 736,-179.5 663,-179.5"/>
<text text-anchor="middle" x="699.5" y="-186.5" font-family="Helvetica,sans-Serif" font-size="10.00">sys/socket.h</text>
</a>
</g>
</g>
<!-- Node30&#45;&gt;Node41 -->
<g id="edge42" class="edge">
<title>Node30&#45;&gt;Node41</title>
<path fill="none" stroke="midnightblue" d="M627.32,-235.32C640.73,-226.9 661.32,-213.97 677.09,-204.07"/>
<polygon fill="midnightblue" stroke="midnightblue" points="679.11,-206.94 685.72,-198.65 675.39,-201.01 679.11,-206.94"/>
</g>
<!-- Node42 -->
<g id="node42" class="node">
<title>Node42</title>
<g id="a_node42"><a xlink:title=" ">
<polygon fill="none" stroke="#bfbfbf" points="754.5,-179.5 754.5,-198.5 822.5,-198.5 822.5,-179.5 754.5,-179.5"/>
<text text-anchor="middle" x="788.5" y="-186.5" font-family="Helvetica,sans-Serif" font-size="10.00">sys/types.h</text>
</a>
</g>
</g>
<!-- Node30&#45;&gt;Node42 -->
<g id="edge43" class="edge">
<title>Node30&#45;&gt;Node42</title>
<path fill="none" stroke="midnightblue" d="M641.23,-235.44C670.93,-226.28 718.22,-211.69 751.17,-201.52"/>
<polygon fill="midnightblue" stroke="midnightblue" points="752.38,-204.81 760.9,-198.52 750.31,-198.12 752.38,-204.81"/>
</g>
<!-- Node43 -->
<g id="node43" class="node">
<title>Node43</title>
<g id="a_node43"><a xlink:title=" ">
<polygon fill="none" stroke="#bfbfbf" points="841,-179.5 841,-198.5 892,-198.5 892,-179.5 841,-179.5"/>
<text text-anchor="middle" x="866.5" y="-186.5" font-family="Helvetica,sans-Serif" font-size="10.00">unistd.h</text>
</a>
</g>
</g>
<!-- Node30&#45;&gt;Node43 -->
<g id="edge44" class="edge">
<title>Node30&#45;&gt;Node43</title>
<path fill="none" stroke="midnightblue" d="M657.89,-235.49C699.89,-227.29 764.9,-214.22 830.77,-199.08"/>
<polygon fill="midnightblue" stroke="midnightblue" points="831.97,-202.39 840.92,-196.73 830.39,-195.57 831.97,-202.39"/>
</g>
<!-- Node31&#45;&gt;Node3 -->
<g id="edge32" class="edge">
<title>Node31&#45;&gt;Node3</title>
<path fill="none" stroke="midnightblue" d="M1027.5,-179.48C1027.5,-172.47 1027.5,-162.19 1027.5,-152.7"/>
<polygon fill="midnightblue" stroke="midnightblue" points="1031,-152.52 1027.5,-142.52 1024,-152.52 1031,-152.52"/>
</g>
<!-- Node44&#45;&gt;Node3 -->
<g id="edge46" class="edge">
<title>Node44&#45;&gt;Node3</title>
<path fill="none" stroke="midnightblue" d="M1130.78,-403.48C1188.18,-391.71 1264.5,-364.34 1264.5,-302 1264.5,-302 1264.5,-302 1264.5,-244 1264.5,-171.03 1172.6,-144.15 1103.26,-134.26"/>
<polygon fill="midnightblue" stroke="midnightblue" points="1103.58,-130.77 1093.2,-132.92 1102.65,-137.71 1103.58,-130.77"/>
</g>
<!-- Node45 -->
<g id="node45" class="node">
<title>Node45</title>
<g id="a_node45"><a xlink:href="../../d3/d4f/a00761.html" target="_top" xlink:title=" ">
<polygon fill="none" stroke="black" points="993.5,-347.5 993.5,-366.5 1143.5,-366.5 1143.5,-347.5 993.5,-347.5"/>
<text text-anchor="middle" x="1068.5" y="-354.5" font-family="Helvetica,sans-Serif" font-size="10.00">discordcoreapi/ThreadPool.hpp</text>
</a>
</g>
</g>
<!-- Node44&#45;&gt;Node45 -->
<g id="edge47" class="edge">
<title>Node44&#45;&gt;Node45</title>
<path fill="none" stroke="midnightblue" d="M1068.5,-403.08C1068.5,-396.01 1068.5,-385.86 1068.5,-376.99"/>
<polygon fill="midnightblue" stroke="midnightblue" points="1072,-376.75 1068.5,-366.75 1065,-376.75 1072,-376.75"/>
</g>
<!-- Node45&#45;&gt;Node3 -->
<g id="edge48" class="edge">
<title>Node45&#45;&gt;Node3</title>
<path fill="none" stroke="midnightblue" d="M1084.72,-347.41C1130.79,-321.92 1256,-244.4 1206.5,-179 1193.57,-161.92 1145.97,-148.98 1103.11,-140.48"/>
<polygon fill="midnightblue" stroke="midnightblue" points="1103.68,-137.02 1093.2,-138.57 1102.35,-143.9 1103.68,-137.02"/>
</g>
<!-- Node45&#45;&gt;Node29 -->
<g id="edge49" class="edge">
<title>Node45&#45;&gt;Node29</title>
<path fill="none" stroke="midnightblue" d="M1010.98,-347.44C946.33,-337.83 841.47,-322.23 773,-312.04"/>
<polygon fill="midnightblue" stroke="midnightblue" points="773.16,-308.53 762.75,-310.52 772.13,-315.45 773.16,-308.53"/>
</g>
</g>
</svg>
