<?xml version="1.0" encoding="UTF-8" standalone="no"?>
<!DOCTYPE svg PUBLIC "-//W3C//DTD SVG 1.1//EN"
 "http://www.w3.org/Graphics/SVG/1.1/DTD/svg11.dtd">
<!-- Generated by graphviz version 3.0.0 (20220226.1711)
 -->
<!-- Title: ChannelEntities.cpp Pages: 1 -->
<svg width="1738pt" height="487pt"
 viewBox="0.00 0.00 1738.34 487.00" xmlns="http://www.w3.org/2000/svg" xmlns:xlink="http://www.w3.org/1999/xlink">
<g id="graph0" class="graph" transform="scale(1 1) rotate(0) translate(4 483)">
<title>ChannelEntities.cpp</title>
<!-- Node1 -->
<g id="node1" class="node">
<title>Node1</title>
<g id="a_node1"><a xlink:title=" ">
<polygon fill="#bfbfbf" stroke="black" points="1065.84,-459.5 1065.84,-478.5 1169.84,-478.5 1169.84,-459.5 1065.84,-459.5"/>
<text text-anchor="middle" x="1117.84" y="-466.5" font-family="Helvetica,sans-Serif" font-size="10.00">ChannelEntities.cpp</text>
</a>
</g>
</g>
<!-- Node2 -->
<g id="node2" class="node">
<title>Node2</title>
<g id="a_node2"><a xlink:href="$d1/d87/a00689.html" xlink:title=" ">
<polygon fill="none" stroke="black" points="726.84,-347.5 726.84,-366.5 896.84,-366.5 896.84,-347.5 726.84,-347.5"/>
<text text-anchor="middle" x="811.84" y="-354.5" font-family="Helvetica,sans-Serif" font-size="10.00">discordcoreapi/ChannelEntities.hpp</text>
</a>
</g>
</g>
<!-- Node1&#45;&gt;Node2 -->
<g id="edge1" class="edge">
<title>Node1&#45;&gt;Node2</title>
<path fill="none" stroke="midnightblue" d="M1094.09,-459.46C1040.08,-440.05 907.96,-392.55 845.54,-370.12"/>
<polygon fill="midnightblue" stroke="midnightblue" points="846.39,-366.7 835.79,-366.61 844.02,-373.29 846.39,-366.7"/>
</g>
<!-- Node43 -->
<g id="node43" class="node">
<title>Node43</title>
<g id="a_node43"><a xlink:href="$d5/d5b/a00695.html" xlink:title=" ">
<polygon fill="none" stroke="black" points="1133.84,-403.5 1133.84,-422.5 1279.84,-422.5 1279.84,-403.5 1133.84,-403.5"/>
<text text-anchor="middle" x="1206.84" y="-410.5" font-family="Helvetica,sans-Serif" font-size="10.00">discordcoreapi/CoRoutine.hpp</text>
</a>
</g>
</g>
<!-- Node1&#45;&gt;Node43 -->
<g id="edge44" class="edge">
<title>Node1&#45;&gt;Node43</title>
<path fill="none" stroke="midnightblue" d="M1132.14,-459.32C1146.03,-450.9 1167.33,-437.97 1183.65,-428.07"/>
<polygon fill="midnightblue" stroke="midnightblue" points="1185.84,-430.83 1192.58,-422.65 1182.21,-424.85 1185.84,-430.83"/>
</g>
<!-- Node3 -->
<g id="node3" class="node">
<title>Node3</title>
<g id="a_node3"><a xlink:href="$d4/deb/a00710.html" xlink:title=" ">
<polygon fill="none" stroke="black" points="942.34,-112.5 942.34,-142.5 1073.34,-142.5 1073.34,-112.5 942.34,-112.5"/>
<text text-anchor="start" x="950.34" y="-130.5" font-family="Helvetica,sans-Serif" font-size="10.00">discordcoreapi/Foundation</text>
<text text-anchor="middle" x="1007.84" y="-119.5" font-family="Helvetica,sans-Serif" font-size="10.00">Entities.hpp</text>
</a>
</g>
</g>
<!-- Node2&#45;&gt;Node3 -->
<g id="edge2" class="edge">
<title>Node2&#45;&gt;Node3</title>
<path fill="none" stroke="midnightblue" d="M726.45,-350.92C500.32,-335.94 -89.96,-286.09 11.84,-179 43.43,-145.77 704.94,-132.95 932.07,-129.52"/>
<polygon fill="midnightblue" stroke="midnightblue" points="932.28,-133.02 942.23,-129.37 932.18,-126.02 932.28,-133.02"/>
</g>
<!-- Node28 -->
<g id="node28" class="node">
<title>Node28</title>
<g id="a_node28"><a xlink:href="$db/d7c/a00722.html" xlink:title=" ">
<polygon fill="none" stroke="black" points="749.34,-291.5 749.34,-310.5 874.34,-310.5 874.34,-291.5 749.34,-291.5"/>
<text text-anchor="middle" x="811.84" y="-298.5" font-family="Helvetica,sans-Serif" font-size="10.00">discordcoreapi/Https.hpp</text>
</a>
</g>
</g>
<!-- Node2&#45;&gt;Node28 -->
<g id="edge27" class="edge">
<title>Node2&#45;&gt;Node28</title>
<path fill="none" stroke="midnightblue" d="M811.84,-347.08C811.84,-340.01 811.84,-329.86 811.84,-320.99"/>
<polygon fill="midnightblue" stroke="midnightblue" points="815.34,-320.75 811.84,-310.75 808.34,-320.75 815.34,-320.75"/>
</g>
<!-- Node4 -->
<g id="node4" class="node">
<title>Node4</title>
<g id="a_node4"><a xlink:href="$d5/dae/a00767.html" xlink:title=" ">
<polygon fill="none" stroke="black" points="940.84,-56.5 940.84,-75.5 1074.84,-75.5 1074.84,-56.5 940.84,-56.5"/>
<text text-anchor="middle" x="1007.84" y="-63.5" font-family="Helvetica,sans-Serif" font-size="10.00">discordcoreapi/Utilities.hpp</text>
</a>
</g>
</g>
<!-- Node3&#45;&gt;Node4 -->
<g id="edge3" class="edge">
<title>Node3&#45;&gt;Node4</title>
<path fill="none" stroke="midnightblue" d="M1007.84,-112.4C1007.84,-104.47 1007.84,-94.46 1007.84,-85.86"/>
<polygon fill="midnightblue" stroke="midnightblue" points="1011.34,-85.66 1007.84,-75.66 1004.34,-85.66 1011.34,-85.66"/>
</g>
<!-- Node5 -->
<g id="node5" class="node">
<title>Node5</title>
<g id="a_node5"><a xlink:title=" ">
<polygon fill="none" stroke="#bfbfbf" points="14.34,-0.5 14.34,-19.5 71.34,-19.5 71.34,-0.5 14.34,-0.5"/>
<text text-anchor="middle" x="42.84" y="-7.5" font-family="Helvetica,sans-Serif" font-size="10.00">pthread.h</text>
</a>
</g>
</g>
<!-- Node4&#45;&gt;Node5 -->
<g id="edge4" class="edge">
<title>Node4&#45;&gt;Node5</title>
<path fill="none" stroke="midnightblue" d="M940.79,-63.35C760.27,-58.65 265.87,-44.07 81.49,-19.74"/>
<polygon fill="midnightblue" stroke="midnightblue" points="81.75,-16.24 71.37,-18.35 80.8,-23.18 81.75,-16.24"/>
</g>
<!-- Node6 -->
<g id="node6" class="node">
<title>Node6</title>
<g id="a_node6"><a xlink:title=" ">
<polygon fill="none" stroke="#bfbfbf" points="89.84,-0.5 89.84,-19.5 151.84,-19.5 151.84,-0.5 89.84,-0.5"/>
<text text-anchor="middle" x="120.84" y="-7.5" font-family="Helvetica,sans-Serif" font-size="10.00">sys/time.h</text>
</a>
</g>
</g>
<!-- Node4&#45;&gt;Node6 -->
<g id="edge5" class="edge">
<title>Node4&#45;&gt;Node6</title>
<path fill="none" stroke="midnightblue" d="M940.77,-65.26C798.69,-64.97 456.91,-59.92 162.22,-19.95"/>
<polygon fill="midnightblue" stroke="midnightblue" points="162.58,-16.47 152.19,-18.58 161.63,-23.4 162.58,-16.47"/>
</g>
<!-- Node7 -->
<g id="node7" class="node">
<title>Node7</title>
<g id="a_node7"><a xlink:title=" ">
<polygon fill="none" stroke="#bfbfbf" points="169.84,-0.5 169.84,-19.5 213.84,-19.5 213.84,-0.5 169.84,-0.5"/>
<text text-anchor="middle" x="191.84" y="-7.5" font-family="Helvetica,sans-Serif" font-size="10.00">time.h</text>
</a>
</g>
</g>
<!-- Node4&#45;&gt;Node7 -->
<g id="edge6" class="edge">
<title>Node4&#45;&gt;Node7</title>
<path fill="none" stroke="midnightblue" d="M940.82,-63.1C780.75,-58.25 378.68,-44.19 224.3,-19.8"/>
<polygon fill="midnightblue" stroke="midnightblue" points="224.49,-16.28 214.05,-18.1 223.35,-23.19 224.49,-16.28"/>
</g>
<!-- Node8 -->
<g id="node8" class="node">
<title>Node8</title>
<g id="a_node8"><a xlink:title=" ">
<polygon fill="none" stroke="#bfbfbf" points="232.34,-0.5 232.34,-19.5 273.34,-19.5 273.34,-0.5 232.34,-0.5"/>
<text text-anchor="middle" x="252.84" y="-7.5" font-family="Helvetica,sans-Serif" font-size="10.00">ctime</text>
</a>
</g>
</g>
<!-- Node4&#45;&gt;Node8 -->
<g id="edge7" class="edge">
<title>Node4&#45;&gt;Node8</title>
<path fill="none" stroke="midnightblue" d="M940.73,-62.89C789.63,-57.82 425.5,-43.7 283.81,-19.9"/>
<polygon fill="midnightblue" stroke="midnightblue" points="284.06,-16.39 273.6,-18.09 282.84,-23.28 284.06,-16.39"/>
</g>
<!-- Node9 -->
<g id="node9" class="node">
<title>Node9</title>
<g id="a_node9"><a xlink:title=" ">
<polygon fill="none" stroke="#bfbfbf" points="291.34,-0.5 291.34,-19.5 384.34,-19.5 384.34,-0.5 291.34,-0.5"/>
<text text-anchor="middle" x="337.84" y="-7.5" font-family="Helvetica,sans-Serif" font-size="10.00">condition_variable</text>
</a>
</g>
</g>
<!-- Node4&#45;&gt;Node9 -->
<g id="edge8" class="edge">
<title>Node4&#45;&gt;Node9</title>
<path fill="none" stroke="midnightblue" d="M940.43,-61.96C829.04,-56.53 599.39,-43.55 394.59,-19.98"/>
<polygon fill="midnightblue" stroke="midnightblue" points="394.89,-16.49 384.55,-18.82 394.08,-23.45 394.89,-16.49"/>
</g>
<!-- Node10 -->
<g id="node10" class="node">
<title>Node10</title>
<g id="a_node10"><a xlink:title=" ">
<polygon fill="none" stroke="#bfbfbf" points="402.84,-0.5 402.84,-19.5 500.84,-19.5 500.84,-0.5 402.84,-0.5"/>
<text text-anchor="middle" x="451.84" y="-7.5" font-family="Helvetica,sans-Serif" font-size="10.00">nlohmann/json.hpp</text>
</a>
</g>
</g>
<!-- Node4&#45;&gt;Node10 -->
<g id="edge9" class="edge">
<title>Node4&#45;&gt;Node10</title>
<path fill="none" stroke="midnightblue" d="M940.84,-60.31C847.05,-53.44 671.05,-39.45 510.9,-20.06"/>
<polygon fill="midnightblue" stroke="midnightblue" points="511.21,-16.57 500.86,-18.83 510.36,-23.52 511.21,-16.57"/>
</g>
<!-- Node11 -->
<g id="node11" class="node">
<title>Node11</title>
<g id="a_node11"><a xlink:title=" ">
<polygon fill="none" stroke="#bfbfbf" points="519.34,-0.5 519.34,-19.5 604.34,-19.5 604.34,-0.5 519.34,-0.5"/>
<text text-anchor="middle" x="561.84" y="-7.5" font-family="Helvetica,sans-Serif" font-size="10.00">source_location</text>
</a>
</g>
</g>
<!-- Node4&#45;&gt;Node11 -->
<g id="edge10" class="edge">
<title>Node4&#45;&gt;Node11</title>
<path fill="none" stroke="midnightblue" d="M940.59,-58.6C864,-51.04 734.9,-37.42 614.52,-20.17"/>
<polygon fill="midnightblue" stroke="midnightblue" points="614.79,-16.67 604.39,-18.71 613.78,-23.6 614.79,-16.67"/>
</g>
<!-- Node12 -->
<g id="node12" class="node">
<title>Node12</title>
<g id="a_node12"><a xlink:title=" ">
<polygon fill="none" stroke="#bfbfbf" points="622.34,-0.5 622.34,-19.5 705.34,-19.5 705.34,-0.5 622.34,-0.5"/>
<text text-anchor="middle" x="663.84" y="-7.5" font-family="Helvetica,sans-Serif" font-size="10.00">unordered_map</text>
</a>
</g>
</g>
<!-- Node4&#45;&gt;Node12 -->
<g id="edge11" class="edge">
<title>Node4&#45;&gt;Node12</title>
<path fill="none" stroke="midnightblue" d="M949.96,-56.5C893.01,-48.05 803.3,-34.5 715.7,-20.11"/>
<polygon fill="midnightblue" stroke="midnightblue" points="716.01,-16.62 705.58,-18.44 714.88,-23.52 716.01,-16.62"/>
</g>
<!-- Node13 -->
<g id="node13" class="node">
<title>Node13</title>
<g id="a_node13"><a xlink:title=" ">
<polygon fill="none" stroke="#bfbfbf" points="723.84,-0.5 723.84,-19.5 801.84,-19.5 801.84,-0.5 723.84,-0.5"/>
<text text-anchor="middle" x="762.84" y="-7.5" font-family="Helvetica,sans-Serif" font-size="10.00">shared_mutex</text>
</a>
</g>
</g>
<!-- Node4&#45;&gt;Node13 -->
<g id="edge12" class="edge">
<title>Node4&#45;&gt;Node13</title>
<path fill="none" stroke="midnightblue" d="M969.02,-56.44C926.28,-47.02 857.51,-31.87 811.28,-21.68"/>
<polygon fill="midnightblue" stroke="midnightblue" points="812,-18.25 801.48,-19.52 810.49,-25.09 812,-18.25"/>
</g>
<!-- Node14 -->
<g id="node14" class="node">
<title>Node14</title>
<g id="a_node14"><a xlink:title=" ">
<polygon fill="none" stroke="#bfbfbf" points="819.84,-0.5 819.84,-19.5 877.84,-19.5 877.84,-0.5 819.84,-0.5"/>
<text text-anchor="middle" x="848.84" y="-7.5" font-family="Helvetica,sans-Serif" font-size="10.00">functional</text>
</a>
</g>
</g>
<!-- Node4&#45;&gt;Node14 -->
<g id="edge13" class="edge">
<title>Node4&#45;&gt;Node14</title>
<path fill="none" stroke="midnightblue" d="M982.65,-56.44C955.9,-47.36 913.44,-32.94 883.54,-22.78"/>
<polygon fill="midnightblue" stroke="midnightblue" points="884.51,-19.42 873.92,-19.52 882.26,-26.05 884.51,-19.42"/>
</g>
<!-- Node15 -->
<g id="node15" class="node">
<title>Node15</title>
<g id="a_node15"><a xlink:title=" ">
<polygon fill="none" stroke="#bfbfbf" points="896.34,-0.5 896.34,-19.5 961.34,-19.5 961.34,-0.5 896.34,-0.5"/>
<text text-anchor="middle" x="928.84" y="-7.5" font-family="Helvetica,sans-Serif" font-size="10.00">semaphore</text>
</a>
</g>
</g>
<!-- Node4&#45;&gt;Node15 -->
<g id="edge14" class="edge">
<title>Node4&#45;&gt;Node15</title>
<path fill="none" stroke="midnightblue" d="M995.15,-56.32C982.94,-47.98 964.26,-35.21 949.84,-25.35"/>
<polygon fill="midnightblue" stroke="midnightblue" points="951.73,-22.41 941.5,-19.65 947.78,-28.19 951.73,-22.41"/>
</g>
<!-- Node16 -->
<g id="node16" class="node">
<title>Node16</title>
<g id="a_node16"><a xlink:title=" ">
<polygon fill="none" stroke="#bfbfbf" points="979.84,-0.5 979.84,-19.5 1035.84,-19.5 1035.84,-0.5 979.84,-0.5"/>
<text text-anchor="middle" x="1007.84" y="-7.5" font-family="Helvetica,sans-Serif" font-size="10.00">concepts</text>
</a>
</g>
</g>
<!-- Node4&#45;&gt;Node16 -->
<g id="edge15" class="edge">
<title>Node4&#45;&gt;Node16</title>
<path fill="none" stroke="midnightblue" d="M1007.84,-56.08C1007.84,-49.01 1007.84,-38.86 1007.84,-29.99"/>
<polygon fill="midnightblue" stroke="midnightblue" points="1011.34,-29.75 1007.84,-19.75 1004.34,-29.75 1011.34,-29.75"/>
</g>
<!-- Node17 -->
<g id="node17" class="node">
<title>Node17</title>
<g id="a_node17"><a xlink:title=" ">
<polygon fill="none" stroke="#bfbfbf" points="1053.84,-0.5 1053.84,-19.5 1107.84,-19.5 1107.84,-0.5 1053.84,-0.5"/>
<text text-anchor="middle" x="1080.84" y="-7.5" font-family="Helvetica,sans-Serif" font-size="10.00">iostream</text>
</a>
</g>
</g>
<!-- Node4&#45;&gt;Node17 -->
<g id="edge16" class="edge">
<title>Node4&#45;&gt;Node17</title>
<path fill="none" stroke="midnightblue" d="M1019.57,-56.32C1030.68,-48.11 1047.58,-35.6 1060.83,-25.81"/>
<polygon fill="midnightblue" stroke="midnightblue" points="1062.94,-28.59 1068.9,-19.83 1058.78,-22.97 1062.94,-28.59"/>
</g>
<!-- Node18 -->
<g id="node18" class="node">
<title>Node18</title>
<g id="a_node18"><a xlink:title=" ">
<polygon fill="none" stroke="#bfbfbf" points="1126.34,-0.5 1126.34,-19.5 1175.34,-19.5 1175.34,-0.5 1126.34,-0.5"/>
<text text-anchor="middle" x="1150.84" y="-7.5" font-family="Helvetica,sans-Serif" font-size="10.00">fstream</text>
</a>
</g>
</g>
<!-- Node4&#45;&gt;Node18 -->
<g id="edge17" class="edge">
<title>Node4&#45;&gt;Node18</title>
<path fill="none" stroke="midnightblue" d="M1030.5,-56.44C1054.24,-47.48 1091.75,-33.31 1118.58,-23.18"/>
<polygon fill="midnightblue" stroke="midnightblue" points="1120.17,-26.32 1128.29,-19.52 1117.7,-19.77 1120.17,-26.32"/>
</g>
<!-- Node19 -->
<g id="node19" class="node">
<title>Node19</title>
<g id="a_node19"><a xlink:title=" ">
<polygon fill="none" stroke="#bfbfbf" points="1193.34,-0.5 1193.34,-19.5 1234.34,-19.5 1234.34,-0.5 1193.34,-0.5"/>
<text text-anchor="middle" x="1213.84" y="-7.5" font-family="Helvetica,sans-Serif" font-size="10.00">bitset</text>
</a>
</g>
</g>
<!-- Node4&#45;&gt;Node19 -->
<g id="edge18" class="edge">
<title>Node4&#45;&gt;Node19</title>
<path fill="none" stroke="midnightblue" d="M1043.02,-56.46C1076.61,-48.2 1128.88,-35.09 1183.38,-20.04"/>
<polygon fill="midnightblue" stroke="midnightblue" points="1184.52,-23.36 1193.22,-17.31 1182.65,-16.61 1184.52,-23.36"/>
</g>
<!-- Node20 -->
<g id="node20" class="node">
<title>Node20</title>
<g id="a_node20"><a xlink:title=" ">
<polygon fill="none" stroke="#bfbfbf" points="1252.84,-0.5 1252.84,-19.5 1304.84,-19.5 1304.84,-0.5 1252.84,-0.5"/>
<text text-anchor="middle" x="1278.84" y="-7.5" font-family="Helvetica,sans-Serif" font-size="10.00">memory</text>
</a>
</g>
</g>
<!-- Node4&#45;&gt;Node20 -->
<g id="edge19" class="edge">
<title>Node4&#45;&gt;Node20</title>
<path fill="none" stroke="midnightblue" d="M1056.61,-56.48C1102.11,-48.35 1172.11,-35.37 1242.59,-19.95"/>
<polygon fill="midnightblue" stroke="midnightblue" points="1243.52,-23.33 1252.54,-17.76 1242.02,-16.49 1243.52,-23.33"/>
</g>
<!-- Node21 -->
<g id="node21" class="node">
<title>Node21</title>
<g id="a_node21"><a xlink:title=" ">
<polygon fill="none" stroke="#bfbfbf" points="1323.34,-0.5 1323.34,-19.5 1372.34,-19.5 1372.34,-0.5 1323.34,-0.5"/>
<text text-anchor="middle" x="1347.84" y="-7.5" font-family="Helvetica,sans-Serif" font-size="10.00">random</text>
</a>
</g>
</g>
<!-- Node4&#45;&gt;Node21 -->
<g id="edge20" class="edge">
<title>Node4&#45;&gt;Node21</title>
<path fill="none" stroke="midnightblue" d="M1075.08,-57.33C1135.08,-49.97 1225.49,-37.66 1313.19,-19.93"/>
<polygon fill="midnightblue" stroke="midnightblue" points="1313.94,-23.35 1323.04,-17.91 1312.54,-16.49 1313.94,-23.35"/>
</g>
<!-- Node22 -->
<g id="node22" class="node">
<title>Node22</title>
<g id="a_node22"><a xlink:title=" ">
<polygon fill="none" stroke="#bfbfbf" points="1390.34,-0.5 1390.34,-19.5 1431.34,-19.5 1431.34,-0.5 1390.34,-0.5"/>
<text text-anchor="middle" x="1410.84" y="-7.5" font-family="Helvetica,sans-Serif" font-size="10.00">string</text>
</a>
</g>
</g>
<!-- Node4&#45;&gt;Node22 -->
<g id="edge21" class="edge">
<title>Node4&#45;&gt;Node22</title>
<path fill="none" stroke="midnightblue" d="M1074.99,-60.6C1148.11,-54.99 1268.52,-43.34 1379.99,-20.08"/>
<polygon fill="midnightblue" stroke="midnightblue" points="1381,-23.45 1390.05,-17.95 1379.54,-16.6 1381,-23.45"/>
</g>
<!-- Node23 -->
<g id="node23" class="node">
<title>Node23</title>
<g id="a_node23"><a xlink:title=" ">
<polygon fill="none" stroke="#bfbfbf" points="1449.84,-0.5 1449.84,-19.5 1491.84,-19.5 1491.84,-0.5 1449.84,-0.5"/>
<text text-anchor="middle" x="1470.84" y="-7.5" font-family="Helvetica,sans-Serif" font-size="10.00">vector</text>
</a>
</g>
</g>
<!-- Node4&#45;&gt;Node23 -->
<g id="edge22" class="edge">
<title>Node4&#45;&gt;Node23</title>
<path fill="none" stroke="midnightblue" d="M1075.19,-61.93C1158.76,-57.24 1305.61,-46.14 1439.63,-19.89"/>
<polygon fill="midnightblue" stroke="midnightblue" points="1440.54,-23.28 1449.66,-17.89 1439.17,-16.41 1440.54,-23.28"/>
</g>
<!-- Node24 -->
<g id="node24" class="node">
<title>Node24</title>
<g id="a_node24"><a xlink:title=" ">
<polygon fill="none" stroke="#bfbfbf" points="1509.84,-0.5 1509.84,-19.5 1553.84,-19.5 1553.84,-0.5 1509.84,-0.5"/>
<text text-anchor="middle" x="1531.84" y="-7.5" font-family="Helvetica,sans-Serif" font-size="10.00">thread</text>
</a>
</g>
</g>
<!-- Node4&#45;&gt;Node24 -->
<g id="edge23" class="edge">
<title>Node4&#45;&gt;Node24</title>
<path fill="none" stroke="midnightblue" d="M1074.99,-62.94C1168.34,-59.18 1342.62,-48.9 1499.32,-19.94"/>
<polygon fill="midnightblue" stroke="midnightblue" points="1500.43,-23.29 1509.61,-18.01 1499.14,-16.41 1500.43,-23.29"/>
</g>
<!-- Node25 -->
<g id="node25" class="node">
<title>Node25</title>
<g id="a_node25"><a xlink:title=" ">
<polygon fill="none" stroke="#bfbfbf" points="1571.84,-0.5 1571.84,-19.5 1615.84,-19.5 1615.84,-0.5 1571.84,-0.5"/>
<text text-anchor="middle" x="1593.84" y="-7.5" font-family="Helvetica,sans-Serif" font-size="10.00">mutex</text>
</a>
</g>
</g>
<!-- Node4&#45;&gt;Node25 -->
<g id="edge24" class="edge">
<title>Node4&#45;&gt;Node25</title>
<path fill="none" stroke="midnightblue" d="M1075.05,-63.91C1178.11,-61.28 1381.34,-52.3 1561.69,-19.85"/>
<polygon fill="midnightblue" stroke="midnightblue" points="1562.41,-23.27 1571.62,-18.03 1561.15,-16.39 1562.41,-23.27"/>
</g>
<!-- Node26 -->
<g id="node26" class="node">
<title>Node26</title>
<g id="a_node26"><a xlink:title=" ">
<polygon fill="none" stroke="#bfbfbf" points="1634.34,-0.5 1634.34,-19.5 1677.34,-19.5 1677.34,-0.5 1634.34,-0.5"/>
<text text-anchor="middle" x="1655.84" y="-7.5" font-family="Helvetica,sans-Serif" font-size="10.00">queue</text>
</a>
</g>
</g>
<!-- Node4&#45;&gt;Node26 -->
<g id="edge25" class="edge">
<title>Node4&#45;&gt;Node26</title>
<path fill="none" stroke="midnightblue" d="M1075.07,-64.69C1187.22,-63.17 1419.52,-55.74 1624.26,-19.68"/>
<polygon fill="midnightblue" stroke="midnightblue" points="1625.07,-23.09 1634.3,-17.88 1623.84,-16.2 1625.07,-23.09"/>
</g>
<!-- Node27 -->
<g id="node27" class="node">
<title>Node27</title>
<g id="a_node27"><a xlink:title=" ">
<polygon fill="none" stroke="#bfbfbf" points="1695.34,-0.5 1695.34,-19.5 1730.34,-19.5 1730.34,-0.5 1695.34,-0.5"/>
<text text-anchor="middle" x="1712.84" y="-7.5" font-family="Helvetica,sans-Serif" font-size="10.00">map</text>
</a>
</g>
</g>
<!-- Node4&#45;&gt;Node27 -->
<g id="edge26" class="edge">
<title>Node4&#45;&gt;Node27</title>
<path fill="none" stroke="midnightblue" d="M1075.03,-62.83C1218.88,-57.81 1553.62,-44.13 1685.25,-19.76"/>
<polygon fill="midnightblue" stroke="midnightblue" points="1685.97,-23.19 1695.11,-17.84 1684.63,-16.32 1685.97,-23.19"/>
</g>
<!-- Node29 -->
<g id="node29" class="node">
<title>Node29</title>
<g id="a_node29"><a xlink:href="$d5/de8/a00749.html" xlink:title=" ">
<polygon fill="none" stroke="black" points="518.84,-235.5 518.84,-254.5 668.84,-254.5 668.84,-235.5 518.84,-235.5"/>
<text text-anchor="middle" x="593.84" y="-242.5" font-family="Helvetica,sans-Serif" font-size="10.00">discordcoreapi/SSLClients.hpp</text>
</a>
</g>
</g>
<!-- Node28&#45;&gt;Node29 -->
<g id="edge28" class="edge">
<title>Node28&#45;&gt;Node29</title>
<path fill="none" stroke="midnightblue" d="M777.3,-291.44C739.59,-282.1 679.1,-267.12 637.98,-256.93"/>
<polygon fill="midnightblue" stroke="midnightblue" points="638.77,-253.52 628.22,-254.52 637.09,-260.32 638.77,-253.52"/>
</g>
<!-- Node29&#45;&gt;Node3 -->
<g id="edge29" class="edge">
<title>Node29&#45;&gt;Node3</title>
<path fill="none" stroke="midnightblue" d="M669,-239.45C727.94,-234.17 811.33,-222.9 880.84,-199 890.67,-195.62 940.46,-167.39 974.7,-147.69"/>
<polygon fill="midnightblue" stroke="midnightblue" points="976.55,-150.66 983.46,-142.64 973.05,-144.6 976.55,-150.66"/>
</g>
<!-- Node30 -->
<g id="node30" class="node">
<title>Node30</title>
<g id="a_node30"><a xlink:href="$d4/d6a/a00704.html" xlink:title=" ">
<polygon fill="none" stroke="black" points="928.84,-179.5 928.84,-198.5 1086.84,-198.5 1086.84,-179.5 928.84,-179.5"/>
<text text-anchor="middle" x="1007.84" y="-186.5" font-family="Helvetica,sans-Serif" font-size="10.00">discordcoreapi/EventEntities.hpp</text>
</a>
</g>
</g>
<!-- Node29&#45;&gt;Node30 -->
<g id="edge30" class="edge">
<title>Node29&#45;&gt;Node30</title>
<path fill="none" stroke="midnightblue" d="M659.44,-235.44C733.63,-225.77 854.24,-210.04 932.3,-199.85"/>
<polygon fill="midnightblue" stroke="midnightblue" points="933.09,-203.28 942.55,-198.52 932.18,-196.34 933.09,-203.28"/>
</g>
<!-- Node31 -->
<g id="node31" class="node">
<title>Node31</title>
<g id="a_node31"><a xlink:title=" ">
<polygon fill="none" stroke="#bfbfbf" points="1105.34,-179.5 1105.34,-198.5 1178.34,-198.5 1178.34,-179.5 1105.34,-179.5"/>
<text text-anchor="middle" x="1141.84" y="-186.5" font-family="Helvetica,sans-Serif" font-size="10.00">openssl/err.h</text>
</a>
</g>
</g>
<!-- Node29&#45;&gt;Node31 -->
<g id="edge32" class="edge">
<title>Node29&#45;&gt;Node31</title>
<path fill="none" stroke="midnightblue" d="M668.97,-239.71C765.25,-233.66 937.51,-221 1094.9,-198.98"/>
<polygon fill="midnightblue" stroke="midnightblue" points="1095.83,-202.38 1105.24,-197.52 1094.85,-195.45 1095.83,-202.38"/>
</g>
<!-- Node32 -->
<g id="node32" class="node">
<title>Node32</title>
<g id="a_node32"><a xlink:title=" ">
<polygon fill="none" stroke="#bfbfbf" points="20.84,-179.5 20.84,-198.5 94.84,-198.5 94.84,-179.5 20.84,-179.5"/>
<text text-anchor="middle" x="57.84" y="-186.5" font-family="Helvetica,sans-Serif" font-size="10.00">openssl/ssl.h</text>
</a>
</g>
</g>
<!-- Node29&#45;&gt;Node32 -->
<g id="edge33" class="edge">
<title>Node29&#45;&gt;Node32</title>
<path fill="none" stroke="midnightblue" d="M518.43,-239.46C424.05,-233.25 257.28,-220.51 104.96,-199.02"/>
<polygon fill="midnightblue" stroke="midnightblue" points="105.34,-195.54 94.94,-197.6 104.35,-202.47 105.34,-195.54"/>
</g>
<!-- Node33 -->
<g id="node33" class="node">
<title>Node33</title>
<g id="a_node33"><a xlink:title=" ">
<polygon fill="none" stroke="#bfbfbf" points="113.34,-179.5 113.34,-198.5 156.34,-198.5 156.34,-179.5 113.34,-179.5"/>
<text text-anchor="middle" x="134.84" y="-186.5" font-family="Helvetica,sans-Serif" font-size="10.00">fcntl.h</text>
</a>
</g>
</g>
<!-- Node29&#45;&gt;Node33 -->
<g id="edge34" class="edge">
<title>Node29&#45;&gt;Node33</title>
<path fill="none" stroke="midnightblue" d="M518.8,-240.38C434.85,-235.38 294.8,-224.19 166.36,-198.98"/>
<polygon fill="midnightblue" stroke="midnightblue" points="166.84,-195.5 156.35,-196.98 165.47,-202.37 166.84,-195.5"/>
</g>
<!-- Node34 -->
<g id="node34" class="node">
<title>Node34</title>
<g id="a_node34"><a xlink:title=" ">
<polygon fill="none" stroke="#bfbfbf" points="174.34,-179.5 174.34,-198.5 223.34,-198.5 223.34,-179.5 174.34,-179.5"/>
<text text-anchor="middle" x="198.84" y="-186.5" font-family="Helvetica,sans-Serif" font-size="10.00">netdb.h</text>
</a>
</g>
</g>
<!-- Node29&#45;&gt;Node34 -->
<g id="edge35" class="edge">
<title>Node29&#45;&gt;Node34</title>
<path fill="none" stroke="midnightblue" d="M518.82,-237.82C447.56,-231.24 337.32,-219.2 233.63,-199.13"/>
<polygon fill="midnightblue" stroke="midnightblue" points="234.11,-195.66 223.62,-197.16 232.76,-202.53 234.11,-195.66"/>
</g>
<!-- Node35 -->
<g id="node35" class="node">
<title>Node35</title>
<g id="a_node35"><a xlink:title=" ">
<polygon fill="none" stroke="#bfbfbf" points="241.34,-179.5 241.34,-198.5 306.34,-198.5 306.34,-179.5 241.34,-179.5"/>
<text text-anchor="middle" x="273.84" y="-186.5" font-family="Helvetica,sans-Serif" font-size="10.00">netinet/in.h</text>
</a>
</g>
</g>
<!-- Node29&#45;&gt;Node35 -->
<g id="edge36" class="edge">
<title>Node29&#45;&gt;Node35</title>
<path fill="none" stroke="midnightblue" d="M534.89,-235.47C480.52,-227.39 397.33,-214.46 316.34,-199.21"/>
<polygon fill="midnightblue" stroke="midnightblue" points="316.96,-195.76 306.48,-197.34 315.65,-202.64 316.96,-195.76"/>
</g>
<!-- Node36 -->
<g id="node36" class="node">
<title>Node36</title>
<g id="a_node36"><a xlink:title=" ">
<polygon fill="none" stroke="#bfbfbf" points="324.34,-179.5 324.34,-198.5 395.34,-198.5 395.34,-179.5 324.34,-179.5"/>
<text text-anchor="middle" x="359.84" y="-186.5" font-family="Helvetica,sans-Serif" font-size="10.00">netinet/tcp.h</text>
</a>
</g>
</g>
<!-- Node29&#45;&gt;Node36 -->
<g id="edge37" class="edge">
<title>Node29&#45;&gt;Node36</title>
<path fill="none" stroke="midnightblue" d="M556.76,-235.44C515.76,-225.98 449.66,-210.73 405.49,-200.54"/>
<polygon fill="midnightblue" stroke="midnightblue" points="406.13,-197.09 395.6,-198.25 404.55,-203.91 406.13,-197.09"/>
</g>
<!-- Node37 -->
<g id="node37" class="node">
<title>Node37</title>
<g id="a_node37"><a xlink:title=" ">
<polygon fill="none" stroke="#bfbfbf" points="413.34,-179.5 413.34,-198.5 462.34,-198.5 462.34,-179.5 413.34,-179.5"/>
<text text-anchor="middle" x="437.84" y="-186.5" font-family="Helvetica,sans-Serif" font-size="10.00">stdint.h</text>
</a>
</g>
</g>
<!-- Node29&#45;&gt;Node37 -->
<g id="edge38" class="edge">
<title>Node29&#45;&gt;Node37</title>
<path fill="none" stroke="midnightblue" d="M569.12,-235.44C542.99,-226.4 501.58,-212.06 472.27,-201.92"/>
<polygon fill="midnightblue" stroke="midnightblue" points="473.04,-198.48 462.45,-198.52 470.75,-205.1 473.04,-198.48"/>
</g>
<!-- Node38 -->
<g id="node38" class="node">
<title>Node38</title>
<g id="a_node38"><a xlink:title=" ">
<polygon fill="none" stroke="#bfbfbf" points="480.84,-179.5 480.84,-198.5 544.84,-198.5 544.84,-179.5 480.84,-179.5"/>
<text text-anchor="middle" x="512.84" y="-186.5" font-family="Helvetica,sans-Serif" font-size="10.00">sys/epoll.h</text>
</a>
</g>
</g>
<!-- Node29&#45;&gt;Node38 -->
<g id="edge39" class="edge">
<title>Node29&#45;&gt;Node38</title>
<path fill="none" stroke="midnightblue" d="M580.83,-235.32C568.31,-226.98 549.16,-214.21 534.37,-204.35"/>
<polygon fill="midnightblue" stroke="midnightblue" points="536.09,-201.29 525.82,-198.65 532.2,-207.11 536.09,-201.29"/>
</g>
<!-- Node39 -->
<g id="node39" class="node">
<title>Node39</title>
<g id="a_node39"><a xlink:title=" ">
<polygon fill="none" stroke="#bfbfbf" points="562.84,-179.5 562.84,-198.5 624.84,-198.5 624.84,-179.5 562.84,-179.5"/>
<text text-anchor="middle" x="593.84" y="-186.5" font-family="Helvetica,sans-Serif" font-size="10.00">arpa/inet.h</text>
</a>
</g>
</g>
<!-- Node29&#45;&gt;Node39 -->
<g id="edge40" class="edge">
<title>Node29&#45;&gt;Node39</title>
<path fill="none" stroke="midnightblue" d="M593.84,-235.08C593.84,-228.01 593.84,-217.86 593.84,-208.99"/>
<polygon fill="midnightblue" stroke="midnightblue" points="597.34,-208.75 593.84,-198.75 590.34,-208.75 597.34,-208.75"/>
</g>
<!-- Node40 -->
<g id="node40" class="node">
<title>Node40</title>
<g id="a_node40"><a xlink:title=" ">
<polygon fill="none" stroke="#bfbfbf" points="643.34,-179.5 643.34,-198.5 716.34,-198.5 716.34,-179.5 643.34,-179.5"/>
<text text-anchor="middle" x="679.84" y="-186.5" font-family="Helvetica,sans-Serif" font-size="10.00">sys/socket.h</text>
</a>
</g>
</g>
<!-- Node29&#45;&gt;Node40 -->
<g id="edge41" class="edge">
<title>Node29&#45;&gt;Node40</title>
<path fill="none" stroke="midnightblue" d="M607.66,-235.32C621.08,-226.9 641.67,-213.97 657.43,-204.07"/>
<polygon fill="midnightblue" stroke="midnightblue" points="659.45,-206.94 666.06,-198.65 655.73,-201.01 659.45,-206.94"/>
</g>
<!-- Node41 -->
<g id="node41" class="node">
<title>Node41</title>
<g id="a_node41"><a xlink:title=" ">
<polygon fill="none" stroke="#bfbfbf" points="734.84,-179.5 734.84,-198.5 802.84,-198.5 802.84,-179.5 734.84,-179.5"/>
<text text-anchor="middle" x="768.84" y="-186.5" font-family="Helvetica,sans-Serif" font-size="10.00">sys/types.h</text>
</a>
</g>
</g>
<!-- Node29&#45;&gt;Node41 -->
<g id="edge42" class="edge">
<title>Node29&#45;&gt;Node41</title>
<path fill="none" stroke="midnightblue" d="M621.57,-235.44C651.27,-226.28 698.56,-211.69 731.51,-201.52"/>
<polygon fill="midnightblue" stroke="midnightblue" points="732.72,-204.81 741.24,-198.52 730.66,-198.12 732.72,-204.81"/>
</g>
<!-- Node42 -->
<g id="node42" class="node">
<title>Node42</title>
<g id="a_node42"><a xlink:title=" ">
<polygon fill="none" stroke="#bfbfbf" points="821.34,-179.5 821.34,-198.5 872.34,-198.5 872.34,-179.5 821.34,-179.5"/>
<text text-anchor="middle" x="846.84" y="-186.5" font-family="Helvetica,sans-Serif" font-size="10.00">unistd.h</text>
</a>
</g>
</g>
<!-- Node29&#45;&gt;Node42 -->
<g id="edge43" class="edge">
<title>Node29&#45;&gt;Node42</title>
<path fill="none" stroke="midnightblue" d="M638.24,-235.49C680.23,-227.29 745.25,-214.22 811.11,-199.08"/>
<polygon fill="midnightblue" stroke="midnightblue" points="812.31,-202.39 821.26,-196.73 810.73,-195.57 812.31,-202.39"/>
</g>
<!-- Node30&#45;&gt;Node3 -->
<g id="edge31" class="edge">
<title>Node30&#45;&gt;Node3</title>
<path fill="none" stroke="midnightblue" d="M1007.84,-179.48C1007.84,-172.47 1007.84,-162.19 1007.84,-152.7"/>
<polygon fill="midnightblue" stroke="midnightblue" points="1011.34,-152.52 1007.84,-142.52 1004.34,-152.52 1011.34,-152.52"/>
</g>
<!-- Node43&#45;&gt;Node3 -->
<g id="edge45" class="edge">
<title>Node43&#45;&gt;Node3</title>
<path fill="none" stroke="midnightblue" d="M1232.53,-403.47C1250.84,-396.26 1274.95,-384.3 1290.84,-367 1312.12,-343.83 1318.84,-333.46 1318.84,-302 1318.84,-302 1318.84,-302 1318.84,-244 1318.84,-193.92 1175.31,-158.58 1083.26,-141.06"/>
<polygon fill="midnightblue" stroke="midnightblue" points="1083.89,-137.62 1073.42,-139.22 1082.6,-144.5 1083.89,-137.62"/>
</g>
<!-- Node44 -->
<g id="node44" class="node">
<title>Node44</title>
<g id="a_node44"><a xlink:href="$d3/d4f/a00761.html" xlink:title=" ">
<polygon fill="none" stroke="black" points="1131.84,-347.5 1131.84,-366.5 1281.84,-366.5 1281.84,-347.5 1131.84,-347.5"/>
<text text-anchor="middle" x="1206.84" y="-354.5" font-family="Helvetica,sans-Serif" font-size="10.00">discordcoreapi/ThreadPool.hpp</text>
</a>
</g>
</g>
<!-- Node43&#45;&gt;Node44 -->
<g id="edge46" class="edge">
<title>Node43&#45;&gt;Node44</title>
<path fill="none" stroke="midnightblue" d="M1206.84,-403.08C1206.84,-396.01 1206.84,-385.86 1206.84,-376.99"/>
<polygon fill="midnightblue" stroke="midnightblue" points="1210.34,-376.75 1206.84,-366.75 1203.34,-376.75 1210.34,-376.75"/>
</g>
<!-- Node44&#45;&gt;Node3 -->
<g id="edge47" class="edge">
<title>Node44&#45;&gt;Node3</title>
<path fill="none" stroke="midnightblue" d="M1208.86,-347.34C1214.88,-319.24 1229.69,-229.44 1186.84,-179 1173.02,-162.73 1125.74,-149.8 1083.24,-141.09"/>
<polygon fill="midnightblue" stroke="midnightblue" points="1083.91,-137.66 1073.42,-139.14 1082.54,-144.52 1083.91,-137.66"/>
</g>
<!-- Node44&#45;&gt;Node28 -->
<g id="edge48" class="edge">
<title>Node44&#45;&gt;Node28</title>
<path fill="none" stroke="midnightblue" d="M1144.25,-347.44C1073.61,-337.79 958.87,-322.1 884.37,-311.92"/>
<polygon fill="midnightblue" stroke="midnightblue" points="884.52,-308.4 874.14,-310.52 883.57,-315.34 884.52,-308.4"/>
</g>
<!-- Node45 -->
<g id="node45" class="node">
<title>Node45</title>
<g id="a_node45"><a xlink:title=" ">
<polygon fill="none" stroke="#bfbfbf" points="1234.84,-291.5 1234.84,-310.5 1290.84,-310.5 1290.84,-291.5 1234.84,-291.5"/>
<text text-anchor="middle" x="1262.84" y="-298.5" font-family="Helvetica,sans-Serif" font-size="10.00">coroutine</text>
</a>
</g>
</g>
<!-- Node44&#45;&gt;Node45 -->
<g id="edge49" class="edge">
<title>Node44&#45;&gt;Node45</title>
<path fill="none" stroke="midnightblue" d="M1215.84,-347.32C1224.04,-339.42 1236.35,-327.55 1246.31,-317.94"/>
<polygon fill="midnightblue" stroke="midnightblue" points="1248.91,-320.29 1253.68,-310.83 1244.05,-315.26 1248.91,-320.29"/>
</g>
</g>
</svg>
