<?xml version="1.0" encoding="UTF-8" standalone="no"?>
<!DOCTYPE svg PUBLIC "-//W3C//DTD SVG 1.1//EN"
 "http://www.w3.org/Graphics/SVG/1.1/DTD/svg11.dtd">
<!-- Generated by graphviz version 3.0.0 (20220226.1711)
 -->
<!-- Title: CommandController.cpp Pages: 1 -->
<svg width="2235pt" height="543pt"
 viewBox="0.00 0.00 2235.00 543.00" xmlns="http://www.w3.org/2000/svg" xmlns:xlink="http://www.w3.org/1999/xlink">
<g id="graph0" class="graph" transform="scale(1 1) rotate(0) translate(4 539)">
<title>CommandController.cpp</title>
<!-- Node1 -->
<g id="node1" class="node">
<title>Node1</title>
<g id="a_node1"><a xlink:title=" ">
<polygon fill="#bfbfbf" stroke="black" points="955,-515.5 955,-534.5 1076,-534.5 1076,-515.5 955,-515.5"/>
<text text-anchor="middle" x="1015.5" y="-522.5" font-family="Helvetica,sans-Serif" font-size="10.00">CommandController.cpp</text>
</a>
</g>
</g>
<!-- Node2 -->
<g id="node2" class="node">
<title>Node2</title>
<g id="a_node2"><a xlink:href="../../d1/d87/a00689.html" target="_top" xlink:title=" ">
<polygon fill="none" stroke="black" points="922,-459.5 922,-478.5 1109,-478.5 1109,-459.5 922,-459.5"/>
<text text-anchor="middle" x="1015.5" y="-466.5" font-family="Helvetica,sans-Serif" font-size="10.00">discordcoreapi/CommandController.hpp</text>
</a>
</g>
</g>
<!-- Node1&#45;&gt;Node2 -->
<g id="edge1" class="edge">
<title>Node1&#45;&gt;Node2</title>
<path fill="none" stroke="midnightblue" d="M1015.5,-515.08C1015.5,-508.01 1015.5,-497.86 1015.5,-488.99"/>
<polygon fill="midnightblue" stroke="midnightblue" points="1019,-488.75 1015.5,-478.75 1012,-488.75 1019,-488.75"/>
</g>
<!-- Node3 -->
<g id="node3" class="node">
<title>Node3</title>
<g id="a_node3"><a xlink:href="../../d4/deb/a00710.html" target="_top" xlink:title=" ">
<polygon fill="none" stroke="black" points="976,-112.5 976,-142.5 1107,-142.5 1107,-112.5 976,-112.5"/>
<text text-anchor="start" x="984" y="-130.5" font-family="Helvetica,sans-Serif" font-size="10.00">discordcoreapi/Foundation</text>
<text text-anchor="middle" x="1041.5" y="-119.5" font-family="Helvetica,sans-Serif" font-size="10.00">Entities.hpp</text>
</a>
</g>
</g>
<!-- Node2&#45;&gt;Node3 -->
<g id="edge2" class="edge">
<title>Node2&#45;&gt;Node3</title>
<path fill="none" stroke="midnightblue" d="M1008.18,-459.22C1001.24,-450.51 990.94,-436.54 984.5,-423 971.58,-395.82 965.5,-388.1 965.5,-358 965.5,-358 965.5,-358 965.5,-244 965.5,-205.99 994.57,-170.82 1016.75,-149.51"/>
<polygon fill="midnightblue" stroke="midnightblue" points="1019.29,-151.93 1024.25,-142.57 1014.54,-146.79 1019.29,-151.93"/>
</g>
<!-- Node29 -->
<g id="node29" class="node">
<title>Node29</title>
<g id="a_node29"><a xlink:href="../../d0/db6/a00692.html" target="_top" xlink:title=" ">
<polygon fill="none" stroke="black" points="993.5,-403.5 993.5,-422.5 1139.5,-422.5 1139.5,-403.5 993.5,-403.5"/>
<text text-anchor="middle" x="1066.5" y="-410.5" font-family="Helvetica,sans-Serif" font-size="10.00">discordcoreapi/CoRoutine.hpp</text>
</a>
</g>
</g>
<!-- Node2&#45;&gt;Node29 -->
<g id="edge28" class="edge">
<title>Node2&#45;&gt;Node29</title>
<path fill="none" stroke="midnightblue" d="M1023.92,-459.08C1031.35,-451.22 1042.35,-439.57 1051.31,-430.08"/>
<polygon fill="midnightblue" stroke="midnightblue" points="1053.91,-432.42 1058.24,-422.75 1048.82,-427.62 1053.91,-432.42"/>
</g>
<!-- Node4 -->
<g id="node4" class="node">
<title>Node4</title>
<g id="a_node4"><a xlink:href="../../d5/dae/a00767.html" target="_top" xlink:title=" ">
<polygon fill="none" stroke="black" points="974.5,-56.5 974.5,-75.5 1108.5,-75.5 1108.5,-56.5 974.5,-56.5"/>
<text text-anchor="middle" x="1041.5" y="-63.5" font-family="Helvetica,sans-Serif" font-size="10.00">discordcoreapi/Utilities.hpp</text>
</a>
</g>
</g>
<!-- Node3&#45;&gt;Node4 -->
<g id="edge3" class="edge">
<title>Node3&#45;&gt;Node4</title>
<path fill="none" stroke="midnightblue" d="M1041.5,-112.4C1041.5,-104.47 1041.5,-94.46 1041.5,-85.86"/>
<polygon fill="midnightblue" stroke="midnightblue" points="1045,-85.66 1041.5,-75.66 1038,-85.66 1045,-85.66"/>
</g>
<!-- Node5 -->
<g id="node5" class="node">
<title>Node5</title>
<g id="a_node5"><a xlink:title=" ">
<polygon fill="none" stroke="#bfbfbf" points="0,-0.5 0,-19.5 57,-19.5 57,-0.5 0,-0.5"/>
<text text-anchor="middle" x="28.5" y="-7.5" font-family="Helvetica,sans-Serif" font-size="10.00">pthread.h</text>
</a>
</g>
</g>
<!-- Node4&#45;&gt;Node5 -->
<g id="edge4" class="edge">
<title>Node4&#45;&gt;Node5</title>
<path fill="none" stroke="midnightblue" d="M974.42,-63.53C787.32,-59.19 261.32,-45.17 67.13,-19.73"/>
<polygon fill="midnightblue" stroke="midnightblue" points="67.41,-16.24 57.03,-18.36 66.46,-23.18 67.41,-16.24"/>
</g>
<!-- Node6 -->
<g id="node6" class="node">
<title>Node6</title>
<g id="a_node6"><a xlink:title=" ">
<polygon fill="none" stroke="#bfbfbf" points="75.5,-0.5 75.5,-19.5 137.5,-19.5 137.5,-0.5 75.5,-0.5"/>
<text text-anchor="middle" x="106.5" y="-7.5" font-family="Helvetica,sans-Serif" font-size="10.00">sys/time.h</text>
</a>
</g>
</g>
<!-- Node4&#45;&gt;Node6 -->
<g id="edge5" class="edge">
<title>Node4&#45;&gt;Node6</title>
<path fill="none" stroke="midnightblue" d="M974.33,-65.53C826.45,-65.86 461.59,-62.04 148.05,-19.97"/>
<polygon fill="midnightblue" stroke="midnightblue" points="148.23,-16.46 137.85,-18.59 147.29,-23.4 148.23,-16.46"/>
</g>
<!-- Node7 -->
<g id="node7" class="node">
<title>Node7</title>
<g id="a_node7"><a xlink:title=" ">
<polygon fill="none" stroke="#bfbfbf" points="155.5,-0.5 155.5,-19.5 199.5,-19.5 199.5,-0.5 155.5,-0.5"/>
<text text-anchor="middle" x="177.5" y="-7.5" font-family="Helvetica,sans-Serif" font-size="10.00">time.h</text>
</a>
</g>
</g>
<!-- Node4&#45;&gt;Node7 -->
<g id="edge6" class="edge">
<title>Node4&#45;&gt;Node7</title>
<path fill="none" stroke="midnightblue" d="M974.48,-63.36C807.2,-58.94 373.57,-45.5 209.65,-19.74"/>
<polygon fill="midnightblue" stroke="midnightblue" points="210.14,-16.28 199.71,-18.11 209.01,-23.18 210.14,-16.28"/>
</g>
<!-- Node8 -->
<g id="node8" class="node">
<title>Node8</title>
<g id="a_node8"><a xlink:title=" ">
<polygon fill="none" stroke="#bfbfbf" points="218,-0.5 218,-19.5 259,-19.5 259,-0.5 218,-0.5"/>
<text text-anchor="middle" x="238.5" y="-7.5" font-family="Helvetica,sans-Serif" font-size="10.00">ctime</text>
</a>
</g>
</g>
<!-- Node4&#45;&gt;Node8 -->
<g id="edge7" class="edge">
<title>Node4&#45;&gt;Node8</title>
<path fill="none" stroke="midnightblue" d="M974.5,-63.19C816.01,-58.59 420.63,-45.09 269.3,-19.86"/>
<polygon fill="midnightblue" stroke="midnightblue" points="269.71,-16.38 259.26,-18.1 268.5,-23.28 269.71,-16.38"/>
</g>
<!-- Node9 -->
<g id="node9" class="node">
<title>Node9</title>
<g id="a_node9"><a xlink:title=" ">
<polygon fill="none" stroke="#bfbfbf" points="277,-0.5 277,-19.5 370,-19.5 370,-0.5 277,-0.5"/>
<text text-anchor="middle" x="323.5" y="-7.5" font-family="Helvetica,sans-Serif" font-size="10.00">condition_variable</text>
</a>
</g>
</g>
<!-- Node4&#45;&gt;Node9 -->
<g id="edge8" class="edge">
<title>Node4&#45;&gt;Node9</title>
<path fill="none" stroke="midnightblue" d="M974.13,-62.46C856,-57.55 603.64,-45.09 380.15,-19.96"/>
<polygon fill="midnightblue" stroke="midnightblue" points="380.54,-16.48 370.21,-18.83 379.75,-23.44 380.54,-16.48"/>
</g>
<!-- Node10 -->
<g id="node10" class="node">
<title>Node10</title>
<g id="a_node10"><a xlink:title=" ">
<polygon fill="none" stroke="#bfbfbf" points="388.5,-0.5 388.5,-19.5 486.5,-19.5 486.5,-0.5 388.5,-0.5"/>
<text text-anchor="middle" x="437.5" y="-7.5" font-family="Helvetica,sans-Serif" font-size="10.00">nlohmann/json.hpp</text>
</a>
</g>
</g>
<!-- Node4&#45;&gt;Node10 -->
<g id="edge9" class="edge">
<title>Node4&#45;&gt;Node10</title>
<path fill="none" stroke="midnightblue" d="M974.1,-61.01C872.76,-54.65 674.92,-40.92 496.61,-20.05"/>
<polygon fill="midnightblue" stroke="midnightblue" points="496.86,-16.55 486.51,-18.86 496.03,-23.51 496.86,-16.55"/>
</g>
<!-- Node11 -->
<g id="node11" class="node">
<title>Node11</title>
<g id="a_node11"><a xlink:title=" ">
<polygon fill="none" stroke="#bfbfbf" points="505,-0.5 505,-19.5 590,-19.5 590,-0.5 505,-0.5"/>
<text text-anchor="middle" x="547.5" y="-7.5" font-family="Helvetica,sans-Serif" font-size="10.00">source_location</text>
</a>
</g>
</g>
<!-- Node4&#45;&gt;Node11 -->
<g id="edge10" class="edge">
<title>Node4&#45;&gt;Node11</title>
<path fill="none" stroke="midnightblue" d="M974.15,-59.71C889.2,-52.69 738.43,-39.07 599.99,-20.12"/>
<polygon fill="midnightblue" stroke="midnightblue" points="600.42,-16.65 590.04,-18.75 599.47,-23.58 600.42,-16.65"/>
</g>
<!-- Node12 -->
<g id="node12" class="node">
<title>Node12</title>
<g id="a_node12"><a xlink:title=" ">
<polygon fill="none" stroke="#bfbfbf" points="608,-0.5 608,-19.5 691,-19.5 691,-0.5 608,-0.5"/>
<text text-anchor="middle" x="649.5" y="-7.5" font-family="Helvetica,sans-Serif" font-size="10.00">unordered_map</text>
</a>
</g>
</g>
<!-- Node4&#45;&gt;Node12 -->
<g id="edge11" class="edge">
<title>Node4&#45;&gt;Node12</title>
<path fill="none" stroke="midnightblue" d="M974.41,-57.02C907.77,-48.9 802.43,-35.52 701.31,-20.07"/>
<polygon fill="midnightblue" stroke="midnightblue" points="701.64,-16.58 691.22,-18.52 700.58,-23.49 701.64,-16.58"/>
</g>
<!-- Node13 -->
<g id="node13" class="node">
<title>Node13</title>
<g id="a_node13"><a xlink:title=" ">
<polygon fill="none" stroke="#bfbfbf" points="709.5,-0.5 709.5,-19.5 787.5,-19.5 787.5,-0.5 709.5,-0.5"/>
<text text-anchor="middle" x="748.5" y="-7.5" font-family="Helvetica,sans-Serif" font-size="10.00">shared_mutex</text>
</a>
</g>
</g>
<!-- Node4&#45;&gt;Node13 -->
<g id="edge12" class="edge">
<title>Node4&#45;&gt;Node13</title>
<path fill="none" stroke="midnightblue" d="M994.52,-56.42C947.32,-47.8 872.19,-34.03 797.57,-20.19"/>
<polygon fill="midnightblue" stroke="midnightblue" points="798,-16.71 787.53,-18.33 796.72,-23.6 798,-16.71"/>
</g>
<!-- Node14 -->
<g id="node14" class="node">
<title>Node14</title>
<g id="a_node14"><a xlink:title=" ">
<polygon fill="none" stroke="#bfbfbf" points="805.5,-0.5 805.5,-19.5 875.5,-19.5 875.5,-0.5 805.5,-0.5"/>
<text text-anchor="middle" x="840.5" y="-7.5" font-family="Helvetica,sans-Serif" font-size="10.00">opus/opus.h</text>
</a>
</g>
</g>
<!-- Node4&#45;&gt;Node14 -->
<g id="edge13" class="edge">
<title>Node4&#45;&gt;Node14</title>
<path fill="none" stroke="midnightblue" d="M1009.65,-56.44C975.1,-47.16 919.82,-32.31 881.92,-22.13"/>
<polygon fill="midnightblue" stroke="midnightblue" points="882.77,-18.73 872.2,-19.52 880.95,-25.49 882.77,-18.73"/>
</g>
<!-- Node15 -->
<g id="node15" class="node">
<title>Node15</title>
<g id="a_node15"><a xlink:title=" ">
<polygon fill="none" stroke="#bfbfbf" points="893.5,-0.5 893.5,-19.5 951.5,-19.5 951.5,-0.5 893.5,-0.5"/>
<text text-anchor="middle" x="922.5" y="-7.5" font-family="Helvetica,sans-Serif" font-size="10.00">functional</text>
</a>
</g>
</g>
<!-- Node4&#45;&gt;Node15 -->
<g id="edge14" class="edge">
<title>Node4&#45;&gt;Node15</title>
<path fill="none" stroke="midnightblue" d="M1022.64,-56.44C1003.23,-47.64 972.77,-33.81 950.54,-23.72"/>
<polygon fill="midnightblue" stroke="midnightblue" points="951.82,-20.46 941.27,-19.52 948.93,-26.84 951.82,-20.46"/>
</g>
<!-- Node16 -->
<g id="node16" class="node">
<title>Node16</title>
<g id="a_node16"><a xlink:title=" ">
<polygon fill="none" stroke="#bfbfbf" points="970,-0.5 970,-19.5 1035,-19.5 1035,-0.5 970,-0.5"/>
<text text-anchor="middle" x="1002.5" y="-7.5" font-family="Helvetica,sans-Serif" font-size="10.00">semaphore</text>
</a>
</g>
</g>
<!-- Node4&#45;&gt;Node16 -->
<g id="edge15" class="edge">
<title>Node4&#45;&gt;Node16</title>
<path fill="none" stroke="midnightblue" d="M1035.06,-56.08C1029.55,-48.46 1021.47,-37.26 1014.74,-27.94"/>
<polygon fill="midnightblue" stroke="midnightblue" points="1017.51,-25.81 1008.82,-19.75 1011.84,-29.91 1017.51,-25.81"/>
</g>
<!-- Node17 -->
<g id="node17" class="node">
<title>Node17</title>
<g id="a_node17"><a xlink:title=" ">
<polygon fill="none" stroke="#bfbfbf" points="1053.5,-0.5 1053.5,-19.5 1109.5,-19.5 1109.5,-0.5 1053.5,-0.5"/>
<text text-anchor="middle" x="1081.5" y="-7.5" font-family="Helvetica,sans-Serif" font-size="10.00">concepts</text>
</a>
</g>
</g>
<!-- Node4&#45;&gt;Node17 -->
<g id="edge16" class="edge">
<title>Node4&#45;&gt;Node17</title>
<path fill="none" stroke="midnightblue" d="M1048.11,-56.08C1053.76,-48.46 1062.04,-37.26 1068.95,-27.94"/>
<polygon fill="midnightblue" stroke="midnightblue" points="1071.88,-29.87 1075.02,-19.75 1066.25,-25.7 1071.88,-29.87"/>
</g>
<!-- Node18 -->
<g id="node18" class="node">
<title>Node18</title>
<g id="a_node18"><a xlink:title=" ">
<polygon fill="none" stroke="#bfbfbf" points="1127.5,-0.5 1127.5,-19.5 1181.5,-19.5 1181.5,-0.5 1127.5,-0.5"/>
<text text-anchor="middle" x="1154.5" y="-7.5" font-family="Helvetica,sans-Serif" font-size="10.00">iostream</text>
</a>
</g>
</g>
<!-- Node4&#45;&gt;Node18 -->
<g id="edge17" class="edge">
<title>Node4&#45;&gt;Node18</title>
<path fill="none" stroke="midnightblue" d="M1059.41,-56.44C1077.75,-47.68 1106.51,-33.94 1127.59,-23.86"/>
<polygon fill="midnightblue" stroke="midnightblue" points="1129.17,-26.99 1136.68,-19.52 1126.15,-20.67 1129.17,-26.99"/>
</g>
<!-- Node19 -->
<g id="node19" class="node">
<title>Node19</title>
<g id="a_node19"><a xlink:title=" ">
<polygon fill="none" stroke="#bfbfbf" points="1200,-0.5 1200,-19.5 1249,-19.5 1249,-0.5 1200,-0.5"/>
<text text-anchor="middle" x="1224.5" y="-7.5" font-family="Helvetica,sans-Serif" font-size="10.00">fstream</text>
</a>
</g>
</g>
<!-- Node4&#45;&gt;Node19 -->
<g id="edge18" class="edge">
<title>Node4&#45;&gt;Node19</title>
<path fill="none" stroke="midnightblue" d="M1070.5,-56.44C1102.97,-46.86 1155.56,-31.34 1190.09,-21.15"/>
<polygon fill="midnightblue" stroke="midnightblue" points="1191.15,-24.49 1199.75,-18.3 1189.17,-17.78 1191.15,-24.49"/>
</g>
<!-- Node20 -->
<g id="node20" class="node">
<title>Node20</title>
<g id="a_node20"><a xlink:title=" ">
<polygon fill="none" stroke="#bfbfbf" points="1267,-0.5 1267,-19.5 1308,-19.5 1308,-0.5 1267,-0.5"/>
<text text-anchor="middle" x="1287.5" y="-7.5" font-family="Helvetica,sans-Serif" font-size="10.00">bitset</text>
</a>
</g>
</g>
<!-- Node4&#45;&gt;Node20 -->
<g id="edge19" class="edge">
<title>Node4&#45;&gt;Node20</title>
<path fill="none" stroke="midnightblue" d="M1089.22,-56.48C1131.23,-48.66 1194.23,-36.2 1257.27,-20.14"/>
<polygon fill="midnightblue" stroke="midnightblue" points="1258.17,-23.52 1266.97,-17.64 1256.42,-16.75 1258.17,-23.52"/>
</g>
<!-- Node21 -->
<g id="node21" class="node">
<title>Node21</title>
<g id="a_node21"><a xlink:title=" ">
<polygon fill="none" stroke="#bfbfbf" points="1326.5,-0.5 1326.5,-19.5 1378.5,-19.5 1378.5,-0.5 1326.5,-0.5"/>
<text text-anchor="middle" x="1352.5" y="-7.5" font-family="Helvetica,sans-Serif" font-size="10.00">memory</text>
</a>
</g>
</g>
<!-- Node4&#45;&gt;Node21 -->
<g id="edge20" class="edge">
<title>Node4&#45;&gt;Node21</title>
<path fill="none" stroke="midnightblue" d="M1103.73,-56.49C1157.56,-48.75 1237.66,-36.36 1316.13,-20.14"/>
<polygon fill="midnightblue" stroke="midnightblue" points="1317.11,-23.51 1326.19,-18.04 1315.68,-16.66 1317.11,-23.51"/>
</g>
<!-- Node22 -->
<g id="node22" class="node">
<title>Node22</title>
<g id="a_node22"><a xlink:title=" ">
<polygon fill="none" stroke="#bfbfbf" points="1397,-0.5 1397,-19.5 1446,-19.5 1446,-0.5 1397,-0.5"/>
<text text-anchor="middle" x="1421.5" y="-7.5" font-family="Helvetica,sans-Serif" font-size="10.00">random</text>
</a>
</g>
</g>
<!-- Node4&#45;&gt;Node22 -->
<g id="edge21" class="edge">
<title>Node4&#45;&gt;Node22</title>
<path fill="none" stroke="midnightblue" d="M1108.57,-58.88C1176.39,-52.1 1284.35,-39.7 1386.81,-19.9"/>
<polygon fill="midnightblue" stroke="midnightblue" points="1387.56,-23.32 1396.7,-17.96 1386.22,-16.45 1387.56,-23.32"/>
</g>
<!-- Node23 -->
<g id="node23" class="node">
<title>Node23</title>
<g id="a_node23"><a xlink:title=" ">
<polygon fill="none" stroke="#bfbfbf" points="1464,-0.5 1464,-19.5 1505,-19.5 1505,-0.5 1464,-0.5"/>
<text text-anchor="middle" x="1484.5" y="-7.5" font-family="Helvetica,sans-Serif" font-size="10.00">string</text>
</a>
</g>
</g>
<!-- Node4&#45;&gt;Node23 -->
<g id="edge22" class="edge">
<title>Node4&#45;&gt;Node23</title>
<path fill="none" stroke="midnightblue" d="M1108.8,-61.68C1189.14,-56.82 1327.55,-45.63 1453.87,-20.01"/>
<polygon fill="midnightblue" stroke="midnightblue" points="1454.63,-23.42 1463.72,-17.98 1453.22,-16.57 1454.63,-23.42"/>
</g>
<!-- Node24 -->
<g id="node24" class="node">
<title>Node24</title>
<g id="a_node24"><a xlink:title=" ">
<polygon fill="none" stroke="#bfbfbf" points="1523.5,-0.5 1523.5,-19.5 1565.5,-19.5 1565.5,-0.5 1523.5,-0.5"/>
<text text-anchor="middle" x="1544.5" y="-7.5" font-family="Helvetica,sans-Serif" font-size="10.00">vector</text>
</a>
</g>
</g>
<!-- Node4&#45;&gt;Node24 -->
<g id="edge23" class="edge">
<title>Node4&#45;&gt;Node24</title>
<path fill="none" stroke="midnightblue" d="M1108.68,-62.76C1198.84,-58.84 1363.99,-48.43 1513.07,-19.91"/>
<polygon fill="midnightblue" stroke="midnightblue" points="1514.18,-23.26 1523.32,-17.91 1512.84,-16.39 1514.18,-23.26"/>
</g>
<!-- Node25 -->
<g id="node25" class="node">
<title>Node25</title>
<g id="a_node25"><a xlink:title=" ">
<polygon fill="none" stroke="#bfbfbf" points="1583.5,-0.5 1583.5,-19.5 1627.5,-19.5 1627.5,-0.5 1583.5,-0.5"/>
<text text-anchor="middle" x="1605.5" y="-7.5" font-family="Helvetica,sans-Serif" font-size="10.00">thread</text>
</a>
</g>
</g>
<!-- Node4&#45;&gt;Node25 -->
<g id="edge24" class="edge">
<title>Node4&#45;&gt;Node25</title>
<path fill="none" stroke="midnightblue" d="M1108.54,-63.59C1208.19,-60.57 1401.25,-51.11 1573.28,-19.87"/>
<polygon fill="midnightblue" stroke="midnightblue" points="1574.08,-23.28 1583.28,-18.02 1572.81,-16.4 1574.08,-23.28"/>
</g>
<!-- Node26 -->
<g id="node26" class="node">
<title>Node26</title>
<g id="a_node26"><a xlink:title=" ">
<polygon fill="none" stroke="#bfbfbf" points="1645.5,-0.5 1645.5,-19.5 1689.5,-19.5 1689.5,-0.5 1645.5,-0.5"/>
<text text-anchor="middle" x="1667.5" y="-7.5" font-family="Helvetica,sans-Serif" font-size="10.00">mutex</text>
</a>
</g>
</g>
<!-- Node4&#45;&gt;Node26 -->
<g id="edge25" class="edge">
<title>Node4&#45;&gt;Node26</title>
<path fill="none" stroke="midnightblue" d="M1108.55,-64.43C1217.49,-62.53 1439.62,-54.54 1635.39,-19.83"/>
<polygon fill="midnightblue" stroke="midnightblue" points="1636.06,-23.26 1645.28,-18.05 1634.82,-16.38 1636.06,-23.26"/>
</g>
<!-- Node27 -->
<g id="node27" class="node">
<title>Node27</title>
<g id="a_node27"><a xlink:title=" ">
<polygon fill="none" stroke="#bfbfbf" points="1708,-0.5 1708,-19.5 1751,-19.5 1751,-0.5 1708,-0.5"/>
<text text-anchor="middle" x="1729.5" y="-7.5" font-family="Helvetica,sans-Serif" font-size="10.00">queue</text>
</a>
</g>
</g>
<!-- Node4&#45;&gt;Node27 -->
<g id="edge26" class="edge">
<title>Node4&#45;&gt;Node27</title>
<path fill="none" stroke="midnightblue" d="M1108.76,-65.12C1226.54,-64.3 1477.7,-57.97 1697.83,-19.68"/>
<polygon fill="midnightblue" stroke="midnightblue" points="1698.72,-23.08 1707.96,-17.89 1697.5,-16.19 1698.72,-23.08"/>
</g>
<!-- Node28 -->
<g id="node28" class="node">
<title>Node28</title>
<g id="a_node28"><a xlink:title=" ">
<polygon fill="none" stroke="#bfbfbf" points="1769,-0.5 1769,-19.5 1804,-19.5 1804,-0.5 1769,-0.5"/>
<text text-anchor="middle" x="1786.5" y="-7.5" font-family="Helvetica,sans-Serif" font-size="10.00">map</text>
</a>
</g>
</g>
<!-- Node4&#45;&gt;Node28 -->
<g id="edge27" class="edge">
<title>Node4&#45;&gt;Node28</title>
<path fill="none" stroke="midnightblue" d="M1108.59,-63.12C1258.69,-58.54 1618.8,-45.43 1758.69,-19.79"/>
<polygon fill="midnightblue" stroke="midnightblue" points="1759.62,-23.18 1768.77,-17.85 1758.29,-16.31 1759.62,-23.18"/>
</g>
<!-- Node29&#45;&gt;Node3 -->
<g id="edge29" class="edge">
<title>Node29&#45;&gt;Node3</title>
<path fill="none" stroke="midnightblue" d="M1057.2,-403.28C1039.68,-385.85 1003.5,-344.69 1003.5,-302 1003.5,-302 1003.5,-302 1003.5,-244 1003.5,-210.72 1017.91,-174.62 1028.99,-151.8"/>
<polygon fill="midnightblue" stroke="midnightblue" points="1032.25,-153.1 1033.63,-142.59 1026,-149.95 1032.25,-153.1"/>
</g>
<!-- Node30 -->
<g id="node30" class="node">
<title>Node30</title>
<g id="a_node30"><a xlink:href="../../d3/d4f/a00761.html" target="_top" xlink:title=" ">
<polygon fill="none" stroke="black" points="1044.5,-347.5 1044.5,-366.5 1194.5,-366.5 1194.5,-347.5 1044.5,-347.5"/>
<text text-anchor="middle" x="1119.5" y="-354.5" font-family="Helvetica,sans-Serif" font-size="10.00">discordcoreapi/ThreadPool.hpp</text>
</a>
</g>
</g>
<!-- Node29&#45;&gt;Node30 -->
<g id="edge30" class="edge">
<title>Node29&#45;&gt;Node30</title>
<path fill="none" stroke="midnightblue" d="M1075.25,-403.08C1082.97,-395.22 1094.4,-383.57 1103.72,-374.08"/>
<polygon fill="midnightblue" stroke="midnightblue" points="1106.4,-376.34 1110.91,-366.75 1101.41,-371.44 1106.4,-376.34"/>
</g>
<!-- Node30&#45;&gt;Node3 -->
<g id="edge31" class="edge">
<title>Node30&#45;&gt;Node3</title>
<path fill="none" stroke="midnightblue" d="M1101.56,-347.45C1087.85,-339.9 1069.77,-327.51 1060.5,-311 1032.24,-260.65 1034.47,-190.11 1038.19,-153.21"/>
<polygon fill="midnightblue" stroke="midnightblue" points="1041.71,-153.23 1039.35,-142.9 1034.75,-152.45 1041.71,-153.23"/>
</g>
<!-- Node31 -->
<g id="node31" class="node">
<title>Node31</title>
<g id="a_node31"><a xlink:href="../../db/d7c/a00722.html" target="_top" xlink:title=" ">
<polygon fill="none" stroke="black" points="1070,-291.5 1070,-310.5 1195,-310.5 1195,-291.5 1070,-291.5"/>
<text text-anchor="middle" x="1132.5" y="-298.5" font-family="Helvetica,sans-Serif" font-size="10.00">discordcoreapi/Https.hpp</text>
</a>
</g>
</g>
<!-- Node30&#45;&gt;Node31 -->
<g id="edge32" class="edge">
<title>Node30&#45;&gt;Node31</title>
<path fill="none" stroke="midnightblue" d="M1121.65,-347.08C1123.37,-339.93 1125.85,-329.64 1128,-320.69"/>
<polygon fill="midnightblue" stroke="midnightblue" points="1131.46,-321.29 1130.39,-310.75 1124.65,-319.65 1131.46,-321.29"/>
</g>
<!-- Node46 -->
<g id="node46" class="node">
<title>Node46</title>
<g id="a_node46"><a xlink:title=" ">
<polygon fill="none" stroke="#bfbfbf" points="1213.5,-291.5 1213.5,-310.5 1269.5,-310.5 1269.5,-291.5 1213.5,-291.5"/>
<text text-anchor="middle" x="1241.5" y="-298.5" font-family="Helvetica,sans-Serif" font-size="10.00">coroutine</text>
</a>
</g>
</g>
<!-- Node30&#45;&gt;Node46 -->
<g id="edge49" class="edge">
<title>Node30&#45;&gt;Node46</title>
<path fill="none" stroke="midnightblue" d="M1138.83,-347.44C1158.82,-338.6 1190.24,-324.69 1213.06,-314.59"/>
<polygon fill="midnightblue" stroke="midnightblue" points="1214.53,-317.76 1222.26,-310.52 1211.7,-311.36 1214.53,-317.76"/>
</g>
<!-- Node32 -->
<g id="node32" class="node">
<title>Node32</title>
<g id="a_node32"><a xlink:href="../../d5/de8/a00749.html" target="_top" xlink:title=" ">
<polygon fill="none" stroke="black" points="1553.5,-235.5 1553.5,-254.5 1703.5,-254.5 1703.5,-235.5 1553.5,-235.5"/>
<text text-anchor="middle" x="1628.5" y="-242.5" font-family="Helvetica,sans-Serif" font-size="10.00">discordcoreapi/SSLClients.hpp</text>
</a>
</g>
</g>
<!-- Node31&#45;&gt;Node32 -->
<g id="edge33" class="edge">
<title>Node31&#45;&gt;Node32</title>
<path fill="none" stroke="midnightblue" d="M1195.32,-292.08C1198.42,-291.71 1201.5,-291.35 1204.5,-291 1321.8,-277.45 1457.54,-263.31 1543.2,-254.58"/>
<polygon fill="midnightblue" stroke="midnightblue" points="1543.8,-258.04 1553.39,-253.54 1543.09,-251.08 1543.8,-258.04"/>
</g>
<!-- Node32&#45;&gt;Node3 -->
<g id="edge34" class="edge">
<title>Node32&#45;&gt;Node3</title>
<path fill="none" stroke="midnightblue" d="M1553.43,-244.77C1426.4,-244.91 1175.38,-239.79 1098.5,-199 1078.74,-188.52 1063.35,-167.95 1053.57,-151.72"/>
<polygon fill="midnightblue" stroke="midnightblue" points="1056.47,-149.73 1048.47,-142.78 1050.39,-153.2 1056.47,-149.73"/>
</g>
<!-- Node33 -->
<g id="node33" class="node">
<title>Node33</title>
<g id="a_node33"><a xlink:href="../../d4/d6a/a00704.html" target="_top" xlink:title=" ">
<polygon fill="none" stroke="black" points="1107.5,-179.5 1107.5,-198.5 1265.5,-198.5 1265.5,-179.5 1107.5,-179.5"/>
<text text-anchor="middle" x="1186.5" y="-186.5" font-family="Helvetica,sans-Serif" font-size="10.00">discordcoreapi/EventEntities.hpp</text>
</a>
</g>
</g>
<!-- Node32&#45;&gt;Node33 -->
<g id="edge35" class="edge">
<title>Node32&#45;&gt;Node33</title>
<path fill="none" stroke="midnightblue" d="M1558.46,-235.44C1479.01,-225.74 1349.7,-209.94 1266.39,-199.76"/>
<polygon fill="midnightblue" stroke="midnightblue" points="1266.56,-196.26 1256.21,-198.52 1265.71,-203.2 1266.56,-196.26"/>
</g>
<!-- Node34 -->
<g id="node34" class="node">
<title>Node34</title>
<g id="a_node34"><a xlink:title=" ">
<polygon fill="none" stroke="#bfbfbf" points="1284,-179.5 1284,-198.5 1357,-198.5 1357,-179.5 1284,-179.5"/>
<text text-anchor="middle" x="1320.5" y="-186.5" font-family="Helvetica,sans-Serif" font-size="10.00">openssl/err.h</text>
</a>
</g>
</g>
<!-- Node32&#45;&gt;Node34 -->
<g id="edge37" class="edge">
<title>Node32&#45;&gt;Node34</title>
<path fill="none" stroke="midnightblue" d="M1576.74,-235.47C1526.01,-227.03 1446.23,-213.55 1367.27,-199.11"/>
<polygon fill="midnightblue" stroke="midnightblue" points="1367.61,-195.61 1357.14,-197.25 1366.35,-202.5 1367.61,-195.61"/>
</g>
<!-- Node35 -->
<g id="node35" class="node">
<title>Node35</title>
<g id="a_node35"><a xlink:title=" ">
<polygon fill="none" stroke="#bfbfbf" points="1375.5,-179.5 1375.5,-198.5 1449.5,-198.5 1449.5,-179.5 1375.5,-179.5"/>
<text text-anchor="middle" x="1412.5" y="-186.5" font-family="Helvetica,sans-Serif" font-size="10.00">openssl/ssl.h</text>
</a>
</g>
</g>
<!-- Node32&#45;&gt;Node35 -->
<g id="edge38" class="edge">
<title>Node32&#45;&gt;Node35</title>
<path fill="none" stroke="midnightblue" d="M1594.27,-235.44C1556.99,-226.12 1497.23,-211.18 1456.49,-201"/>
<polygon fill="midnightblue" stroke="midnightblue" points="1457.12,-197.55 1446.57,-198.52 1455.42,-204.34 1457.12,-197.55"/>
</g>
<!-- Node36 -->
<g id="node36" class="node">
<title>Node36</title>
<g id="a_node36"><a xlink:title=" ">
<polygon fill="none" stroke="#bfbfbf" points="1468,-179.5 1468,-198.5 1511,-198.5 1511,-179.5 1468,-179.5"/>
<text text-anchor="middle" x="1489.5" y="-186.5" font-family="Helvetica,sans-Serif" font-size="10.00">fcntl.h</text>
</a>
</g>
</g>
<!-- Node32&#45;&gt;Node36 -->
<g id="edge39" class="edge">
<title>Node32&#45;&gt;Node36</title>
<path fill="none" stroke="midnightblue" d="M1606.48,-235.44C1583.4,-226.48 1546.94,-212.31 1520.86,-202.18"/>
<polygon fill="midnightblue" stroke="midnightblue" points="1522.01,-198.88 1511.42,-198.52 1519.48,-205.4 1522.01,-198.88"/>
</g>
<!-- Node37 -->
<g id="node37" class="node">
<title>Node37</title>
<g id="a_node37"><a xlink:title=" ">
<polygon fill="none" stroke="#bfbfbf" points="1529,-179.5 1529,-198.5 1578,-198.5 1578,-179.5 1529,-179.5"/>
<text text-anchor="middle" x="1553.5" y="-186.5" font-family="Helvetica,sans-Serif" font-size="10.00">netdb.h</text>
</a>
</g>
</g>
<!-- Node32&#45;&gt;Node37 -->
<g id="edge40" class="edge">
<title>Node32&#45;&gt;Node37</title>
<path fill="none" stroke="midnightblue" d="M1616.45,-235.32C1605.04,-227.11 1587.67,-214.6 1574.07,-204.81"/>
<polygon fill="midnightblue" stroke="midnightblue" points="1575.93,-201.84 1565.77,-198.83 1571.84,-207.52 1575.93,-201.84"/>
</g>
<!-- Node38 -->
<g id="node38" class="node">
<title>Node38</title>
<g id="a_node38"><a xlink:title=" ">
<polygon fill="none" stroke="#bfbfbf" points="1596,-179.5 1596,-198.5 1661,-198.5 1661,-179.5 1596,-179.5"/>
<text text-anchor="middle" x="1628.5" y="-186.5" font-family="Helvetica,sans-Serif" font-size="10.00">netinet/in.h</text>
</a>
</g>
</g>
<!-- Node32&#45;&gt;Node38 -->
<g id="edge41" class="edge">
<title>Node32&#45;&gt;Node38</title>
<path fill="none" stroke="midnightblue" d="M1628.5,-235.08C1628.5,-228.01 1628.5,-217.86 1628.5,-208.99"/>
<polygon fill="midnightblue" stroke="midnightblue" points="1632,-208.75 1628.5,-198.75 1625,-208.75 1632,-208.75"/>
</g>
<!-- Node39 -->
<g id="node39" class="node">
<title>Node39</title>
<g id="a_node39"><a xlink:title=" ">
<polygon fill="none" stroke="#bfbfbf" points="1679,-179.5 1679,-198.5 1750,-198.5 1750,-179.5 1679,-179.5"/>
<text text-anchor="middle" x="1714.5" y="-186.5" font-family="Helvetica,sans-Serif" font-size="10.00">netinet/tcp.h</text>
</a>
</g>
</g>
<!-- Node32&#45;&gt;Node39 -->
<g id="edge42" class="edge">
<title>Node32&#45;&gt;Node39</title>
<path fill="none" stroke="midnightblue" d="M1642.32,-235.32C1655.73,-226.9 1676.32,-213.97 1692.09,-204.07"/>
<polygon fill="midnightblue" stroke="midnightblue" points="1694.11,-206.94 1700.72,-198.65 1690.39,-201.01 1694.11,-206.94"/>
</g>
<!-- Node40 -->
<g id="node40" class="node">
<title>Node40</title>
<g id="a_node40"><a xlink:title=" ">
<polygon fill="none" stroke="#bfbfbf" points="1768,-179.5 1768,-198.5 1817,-198.5 1817,-179.5 1768,-179.5"/>
<text text-anchor="middle" x="1792.5" y="-186.5" font-family="Helvetica,sans-Serif" font-size="10.00">stdint.h</text>
</a>
</g>
</g>
<!-- Node32&#45;&gt;Node40 -->
<g id="edge43" class="edge">
<title>Node32&#45;&gt;Node40</title>
<path fill="none" stroke="midnightblue" d="M1654.49,-235.44C1682.6,-226.19 1727.55,-211.39 1758.47,-201.21"/>
<polygon fill="midnightblue" stroke="midnightblue" points="1759.57,-204.53 1767.97,-198.08 1757.38,-197.88 1759.57,-204.53"/>
</g>
<!-- Node41 -->
<g id="node41" class="node">
<title>Node41</title>
<g id="a_node41"><a xlink:title=" ">
<polygon fill="none" stroke="#bfbfbf" points="1835.5,-179.5 1835.5,-198.5 1899.5,-198.5 1899.5,-179.5 1835.5,-179.5"/>
<text text-anchor="middle" x="1867.5" y="-186.5" font-family="Helvetica,sans-Serif" font-size="10.00">sys/epoll.h</text>
</a>
</g>
</g>
<!-- Node32&#45;&gt;Node41 -->
<g id="edge44" class="edge">
<title>Node32&#45;&gt;Node41</title>
<path fill="none" stroke="midnightblue" d="M1666.37,-235.44C1709.6,-225.68 1780.12,-209.74 1825.14,-199.57"/>
<polygon fill="midnightblue" stroke="midnightblue" points="1826.19,-202.92 1835.17,-197.3 1824.65,-196.09 1826.19,-202.92"/>
</g>
<!-- Node42 -->
<g id="node42" class="node">
<title>Node42</title>
<g id="a_node42"><a xlink:title=" ">
<polygon fill="none" stroke="#bfbfbf" points="1917.5,-179.5 1917.5,-198.5 1979.5,-198.5 1979.5,-179.5 1917.5,-179.5"/>
<text text-anchor="middle" x="1948.5" y="-186.5" font-family="Helvetica,sans-Serif" font-size="10.00">arpa/inet.h</text>
</a>
</g>
</g>
<!-- Node32&#45;&gt;Node42 -->
<g id="edge45" class="edge">
<title>Node32&#45;&gt;Node42</title>
<path fill="none" stroke="midnightblue" d="M1688.23,-235.5C1742.82,-227.48 1826.03,-214.63 1907.21,-199.16"/>
<polygon fill="midnightblue" stroke="midnightblue" points="1907.94,-202.58 1917.1,-197.26 1906.61,-195.71 1907.94,-202.58"/>
</g>
<!-- Node43 -->
<g id="node43" class="node">
<title>Node43</title>
<g id="a_node43"><a xlink:title=" ">
<polygon fill="none" stroke="#bfbfbf" points="1998,-179.5 1998,-198.5 2071,-198.5 2071,-179.5 1998,-179.5"/>
<text text-anchor="middle" x="2034.5" y="-186.5" font-family="Helvetica,sans-Serif" font-size="10.00">sys/socket.h</text>
</a>
</g>
</g>
<!-- Node32&#45;&gt;Node43 -->
<g id="edge46" class="edge">
<title>Node32&#45;&gt;Node43</title>
<path fill="none" stroke="midnightblue" d="M1703.52,-236.15C1774.21,-228.4 1883.31,-215.55 1987.79,-199.01"/>
<polygon fill="midnightblue" stroke="midnightblue" points="1988.56,-202.43 1997.88,-197.4 1987.46,-195.52 1988.56,-202.43"/>
</g>
<!-- Node44 -->
<g id="node44" class="node">
<title>Node44</title>
<g id="a_node44"><a xlink:title=" ">
<polygon fill="none" stroke="#bfbfbf" points="2089.5,-179.5 2089.5,-198.5 2157.5,-198.5 2157.5,-179.5 2089.5,-179.5"/>
<text text-anchor="middle" x="2123.5" y="-186.5" font-family="Helvetica,sans-Serif" font-size="10.00">sys/types.h</text>
</a>
</g>
</g>
<!-- Node32&#45;&gt;Node44 -->
<g id="edge47" class="edge">
<title>Node32&#45;&gt;Node44</title>
<path fill="none" stroke="midnightblue" d="M1703.59,-239C1791.42,-232.59 1941.35,-219.92 2079.38,-199.02"/>
<polygon fill="midnightblue" stroke="midnightblue" points="2079.94,-202.48 2089.29,-197.5 2078.88,-195.56 2079.94,-202.48"/>
</g>
<!-- Node45 -->
<g id="node45" class="node">
<title>Node45</title>
<g id="a_node45"><a xlink:title=" ">
<polygon fill="none" stroke="#bfbfbf" points="2176,-179.5 2176,-198.5 2227,-198.5 2227,-179.5 2176,-179.5"/>
<text text-anchor="middle" x="2201.5" y="-186.5" font-family="Helvetica,sans-Serif" font-size="10.00">unistd.h</text>
</a>
</g>
</g>
<!-- Node32&#45;&gt;Node45 -->
<g id="edge48" class="edge">
<title>Node32&#45;&gt;Node45</title>
<path fill="none" stroke="midnightblue" d="M1703.85,-241.69C1806.37,-237.67 1995.55,-227.08 2166.08,-198.76"/>
<polygon fill="midnightblue" stroke="midnightblue" points="2166.71,-202.2 2175.99,-197.09 2165.55,-195.3 2166.71,-202.2"/>
</g>
<!-- Node33&#45;&gt;Node3 -->
<g id="edge36" class="edge">
<title>Node33&#45;&gt;Node3</title>
<path fill="none" stroke="midnightblue" d="M1165.73,-179.48C1144.8,-170.89 1111.89,-157.38 1085.19,-146.43"/>
<polygon fill="midnightblue" stroke="midnightblue" points="1086.25,-143.08 1075.67,-142.52 1083.6,-149.56 1086.25,-143.08"/>
</g>
</g>
</svg>
