<?xml version="1.0" encoding="UTF-8" standalone="no"?>
<!DOCTYPE svg PUBLIC "-//W3C//DTD SVG 1.1//EN"
 "http://www.w3.org/Graphics/SVG/1.1/DTD/svg11.dtd">
<!-- Generated by graphviz version 3.0.0 (20220226.1711)
 -->
<!-- Title: DiscordCoreAPI::GuildMember Pages: 1 -->
<svg width="178pt" height="140pt"
 viewBox="0.00 0.00 178.00 140.00" xmlns="http://www.w3.org/2000/svg" xmlns:xlink="http://www.w3.org/1999/xlink">
<g id="graph0" class="graph" transform="scale(1 1) rotate(0) translate(4 136)">
<title>DiscordCoreAPI::GuildMember</title>
<!-- Node1 -->
<g id="node1" class="node">
<title>Node1</title>
<g id="a_node1"><a xlink:title="A single GuildMember.">
<polygon fill="#bfbfbf" stroke="black" points="10.5,-0.5 10.5,-19.5 159.5,-19.5 159.5,-0.5 10.5,-0.5"/>
<text text-anchor="middle" x="85" y="-7.5" font-family="Helvetica,sans-Serif" font-size="10.00">DiscordCoreAPI::GuildMember</text>
</a>
</g>
</g>
<!-- Node2 -->
<g id="node2" class="node">
<title>Node2</title>
<g id="a_node2"><a xlink:href="../../d3/d35/a02360.html" target="_top" xlink:title="Data structure representing a single GuildMember. Data structure representing a single Guild.">
<polygon fill="none" stroke="black" points="0,-56.5 0,-75.5 170,-75.5 170,-56.5 0,-56.5"/>
<text text-anchor="middle" x="85" y="-63.5" font-family="Helvetica,sans-Serif" font-size="10.00">DiscordCoreAPI::GuildMemberData</text>
</a>
</g>
</g>
<!-- Node2&#45;&gt;Node1 -->
<g id="edge1" class="edge">
<title>Node2&#45;&gt;Node1</title>
<path fill="none" stroke="midnightblue" d="M85,-45.8C85,-36.91 85,-26.78 85,-19.75"/>
<polygon fill="midnightblue" stroke="midnightblue" points="81.5,-46.08 85,-56.08 88.5,-46.08 81.5,-46.08"/>
</g>
<!-- Node3 -->
<g id="node3" class="node">
<title>Node3</title>
<g id="a_node3"><a xlink:href="../../dc/d1a/a02288.html" target="_top" xlink:title="Base class for all Discord entities.">
<polygon fill="none" stroke="black" points="10,-112.5 10,-131.5 160,-131.5 160,-112.5 10,-112.5"/>
<text text-anchor="middle" x="85" y="-119.5" font-family="Helvetica,sans-Serif" font-size="10.00">DiscordCoreAPI::DiscordEntity</text>
</a>
</g>
</g>
<!-- Node3&#45;&gt;Node2 -->
<g id="edge2" class="edge">
<title>Node3&#45;&gt;Node2</title>
<path fill="none" stroke="midnightblue" d="M85,-101.8C85,-92.91 85,-82.78 85,-75.75"/>
<polygon fill="midnightblue" stroke="midnightblue" points="81.5,-102.08 85,-112.08 88.5,-102.08 81.5,-102.08"/>
</g>
</g>
</svg>
