<?xml version="1.0" encoding="UTF-8" standalone="no"?>
<!DOCTYPE svg PUBLIC "-//W3C//DTD SVG 1.1//EN"
 "http://www.w3.org/Graphics/SVG/1.1/DTD/svg11.dtd">
<!-- Generated by graphviz version 3.0.0 (20220226.1711)
 -->
<!-- Title: ThreadEntities.hpp Pages: 1 -->
<svg width="1797pt" height="487pt"
 viewBox="0.00 0.00 1796.50 487.00" xmlns="http://www.w3.org/2000/svg" xmlns:xlink="http://www.w3.org/1999/xlink">
<g id="graph0" class="graph" transform="scale(1 1) rotate(0) translate(4 483)">
<title>ThreadEntities.hpp</title>
<!-- Node1 -->
<g id="node1" class="node">
<title>Node1</title>
<g id="a_node1"><a xlink:title=" ">
<polygon fill="#bfbfbf" stroke="black" points="1151.5,-459.5 1151.5,-478.5 1249.5,-478.5 1249.5,-459.5 1151.5,-459.5"/>
<text text-anchor="middle" x="1200.5" y="-466.5" font-family="Helvetica,sans-Serif" font-size="10.00">ThreadEntities.hpp</text>
</a>
</g>
</g>
<!-- Node2 -->
<g id="node2" class="node">
<title>Node2</title>
<g id="a_node2"><a xlink:href="../../d5/d5b/a00695.html" target="_top" xlink:title=" ">
<polygon fill="none" stroke="black" points="1127.5,-403.5 1127.5,-422.5 1273.5,-422.5 1273.5,-403.5 1127.5,-403.5"/>
<text text-anchor="middle" x="1200.5" y="-410.5" font-family="Helvetica,sans-Serif" font-size="10.00">discordcoreapi/CoRoutine.hpp</text>
</a>
</g>
</g>
<!-- Node1&#45;&gt;Node2 -->
<g id="edge1" class="edge">
<title>Node1&#45;&gt;Node2</title>
<path fill="none" stroke="midnightblue" d="M1200.5,-459.08C1200.5,-452.01 1200.5,-441.86 1200.5,-432.99"/>
<polygon fill="midnightblue" stroke="midnightblue" points="1204,-432.75 1200.5,-422.75 1197,-432.75 1204,-432.75"/>
</g>
<!-- Node3 -->
<g id="node3" class="node">
<title>Node3</title>
<g id="a_node3"><a xlink:href="../../d4/deb/a00710.html" target="_top" xlink:title=" ">
<polygon fill="none" stroke="black" points="957,-112.5 957,-142.5 1088,-142.5 1088,-112.5 957,-112.5"/>
<text text-anchor="start" x="965" y="-130.5" font-family="Helvetica,sans-Serif" font-size="10.00">discordcoreapi/Foundation</text>
<text text-anchor="middle" x="1022.5" y="-119.5" font-family="Helvetica,sans-Serif" font-size="10.00">Entities.hpp</text>
</a>
</g>
</g>
<!-- Node1&#45;&gt;Node3 -->
<g id="edge48" class="edge">
<title>Node1&#45;&gt;Node3</title>
<path fill="none" stroke="midnightblue" d="M1223.26,-459.43C1258.31,-444.58 1321.5,-410.52 1321.5,-358 1321.5,-358 1321.5,-358 1321.5,-244 1321.5,-209.11 1306.57,-198.28 1277.5,-179 1248.58,-159.82 1162.4,-145.46 1098.18,-137.05"/>
<polygon fill="midnightblue" stroke="midnightblue" points="1098.44,-133.56 1088.07,-135.75 1097.54,-140.5 1098.44,-133.56"/>
</g>
<!-- Node45 -->
<g id="node45" class="node">
<title>Node45</title>
<g id="a_node45"><a xlink:href="../../d1/d87/a00689.html" target="_top" xlink:title=" ">
<polygon fill="none" stroke="black" points="566.5,-347.5 566.5,-366.5 736.5,-366.5 736.5,-347.5 566.5,-347.5"/>
<text text-anchor="middle" x="651.5" y="-354.5" font-family="Helvetica,sans-Serif" font-size="10.00">discordcoreapi/ChannelEntities.hpp</text>
</a>
</g>
</g>
<!-- Node1&#45;&gt;Node45 -->
<g id="edge49" class="edge">
<title>Node1&#45;&gt;Node45</title>
<path fill="none" stroke="midnightblue" d="M1157.88,-459.46C1058.67,-439.58 812.51,-390.26 704.14,-368.55"/>
<polygon fill="midnightblue" stroke="midnightblue" points="704.59,-365.07 694.1,-366.53 703.21,-371.93 704.59,-365.07"/>
</g>
<!-- Node2&#45;&gt;Node3 -->
<g id="edge2" class="edge">
<title>Node2&#45;&gt;Node3</title>
<path fill="none" stroke="midnightblue" d="M1218.81,-403.46C1233.24,-395.83 1252.8,-383.35 1264.5,-367 1282.02,-342.52 1283.5,-332.1 1283.5,-302 1283.5,-302 1283.5,-302 1283.5,-244 1283.5,-162.32 1175.27,-137.94 1098.2,-130.93"/>
<polygon fill="midnightblue" stroke="midnightblue" points="1098.28,-127.43 1088.02,-130.09 1097.7,-134.4 1098.28,-127.43"/>
</g>
<!-- Node29 -->
<g id="node29" class="node">
<title>Node29</title>
<g id="a_node29"><a xlink:href="../../d3/d4f/a00761.html" target="_top" xlink:title=" ">
<polygon fill="none" stroke="black" points="1105.5,-347.5 1105.5,-366.5 1255.5,-366.5 1255.5,-347.5 1105.5,-347.5"/>
<text text-anchor="middle" x="1180.5" y="-354.5" font-family="Helvetica,sans-Serif" font-size="10.00">discordcoreapi/ThreadPool.hpp</text>
</a>
</g>
</g>
<!-- Node2&#45;&gt;Node29 -->
<g id="edge28" class="edge">
<title>Node2&#45;&gt;Node29</title>
<path fill="none" stroke="midnightblue" d="M1197.2,-403.08C1194.52,-395.85 1190.65,-385.41 1187.31,-376.4"/>
<polygon fill="midnightblue" stroke="midnightblue" points="1190.5,-374.91 1183.74,-366.75 1183.93,-377.34 1190.5,-374.91"/>
</g>
<!-- Node4 -->
<g id="node4" class="node">
<title>Node4</title>
<g id="a_node4"><a xlink:href="../../d5/dae/a00767.html" target="_top" xlink:title=" ">
<polygon fill="none" stroke="black" points="955.5,-56.5 955.5,-75.5 1089.5,-75.5 1089.5,-56.5 955.5,-56.5"/>
<text text-anchor="middle" x="1022.5" y="-63.5" font-family="Helvetica,sans-Serif" font-size="10.00">discordcoreapi/Utilities.hpp</text>
</a>
</g>
</g>
<!-- Node3&#45;&gt;Node4 -->
<g id="edge3" class="edge">
<title>Node3&#45;&gt;Node4</title>
<path fill="none" stroke="midnightblue" d="M1022.5,-112.4C1022.5,-104.47 1022.5,-94.46 1022.5,-85.86"/>
<polygon fill="midnightblue" stroke="midnightblue" points="1026,-85.66 1022.5,-75.66 1019,-85.66 1026,-85.66"/>
</g>
<!-- Node5 -->
<g id="node5" class="node">
<title>Node5</title>
<g id="a_node5"><a xlink:title=" ">
<polygon fill="none" stroke="#bfbfbf" points="1589,-0.5 1589,-19.5 1646,-19.5 1646,-0.5 1589,-0.5"/>
<text text-anchor="middle" x="1617.5" y="-7.5" font-family="Helvetica,sans-Serif" font-size="10.00">pthread.h</text>
</a>
</g>
</g>
<!-- Node4&#45;&gt;Node5 -->
<g id="edge4" class="edge">
<title>Node4&#45;&gt;Node5</title>
<path fill="none" stroke="midnightblue" d="M1089.91,-63C1193.31,-59.18 1397.36,-48.65 1578.91,-20.03"/>
<polygon fill="midnightblue" stroke="midnightblue" points="1579.59,-23.46 1588.91,-18.43 1578.48,-16.55 1579.59,-23.46"/>
</g>
<!-- Node6 -->
<g id="node6" class="node">
<title>Node6</title>
<g id="a_node6"><a xlink:title=" ">
<polygon fill="none" stroke="#bfbfbf" points="1664.5,-0.5 1664.5,-19.5 1726.5,-19.5 1726.5,-0.5 1664.5,-0.5"/>
<text text-anchor="middle" x="1695.5" y="-7.5" font-family="Helvetica,sans-Serif" font-size="10.00">sys/time.h</text>
</a>
</g>
</g>
<!-- Node4&#45;&gt;Node6 -->
<g id="edge5" class="edge">
<title>Node4&#45;&gt;Node6</title>
<path fill="none" stroke="midnightblue" d="M1089.85,-63.53C1204.1,-60.32 1443.23,-50.44 1654.12,-19.99"/>
<polygon fill="midnightblue" stroke="midnightblue" points="1654.75,-23.43 1664.14,-18.52 1653.74,-16.51 1654.75,-23.43"/>
</g>
<!-- Node7 -->
<g id="node7" class="node">
<title>Node7</title>
<g id="a_node7"><a xlink:title=" ">
<polygon fill="none" stroke="#bfbfbf" points="1744.5,-0.5 1744.5,-19.5 1788.5,-19.5 1788.5,-0.5 1744.5,-0.5"/>
<text text-anchor="middle" x="1766.5" y="-7.5" font-family="Helvetica,sans-Serif" font-size="10.00">time.h</text>
</a>
</g>
</g>
<!-- Node4&#45;&gt;Node7 -->
<g id="edge6" class="edge">
<title>Node4&#45;&gt;Node7</title>
<path fill="none" stroke="midnightblue" d="M1089.92,-65.65C1215.4,-65.78 1493.18,-61.08 1734.28,-19.82"/>
<polygon fill="midnightblue" stroke="midnightblue" points="1735.03,-23.24 1744.29,-18.08 1733.84,-16.34 1735.03,-23.24"/>
</g>
<!-- Node8 -->
<g id="node8" class="node">
<title>Node8</title>
<g id="a_node8"><a xlink:title=" ">
<polygon fill="none" stroke="#bfbfbf" points="83,-0.5 83,-19.5 124,-19.5 124,-0.5 83,-0.5"/>
<text text-anchor="middle" x="103.5" y="-7.5" font-family="Helvetica,sans-Serif" font-size="10.00">ctime</text>
</a>
</g>
</g>
<!-- Node4&#45;&gt;Node8 -->
<g id="edge7" class="edge">
<title>Node4&#45;&gt;Node8</title>
<path fill="none" stroke="midnightblue" d="M955.47,-63.78C780.01,-60.25 309.32,-48.51 134.35,-19.86"/>
<polygon fill="midnightblue" stroke="midnightblue" points="134.7,-16.37 124.25,-18.12 133.52,-23.26 134.7,-16.37"/>
</g>
<!-- Node9 -->
<g id="node9" class="node">
<title>Node9</title>
<g id="a_node9"><a xlink:title=" ">
<polygon fill="none" stroke="#bfbfbf" points="142,-0.5 142,-19.5 235,-19.5 235,-0.5 142,-0.5"/>
<text text-anchor="middle" x="188.5" y="-7.5" font-family="Helvetica,sans-Serif" font-size="10.00">condition_variable</text>
</a>
</g>
</g>
<!-- Node4&#45;&gt;Node9 -->
<g id="edge8" class="edge">
<title>Node4&#45;&gt;Node9</title>
<path fill="none" stroke="midnightblue" d="M955.45,-63.41C822.14,-59.76 514.24,-48.84 245.16,-19.95"/>
<polygon fill="midnightblue" stroke="midnightblue" points="245.52,-16.47 235.2,-18.87 244.77,-23.43 245.52,-16.47"/>
</g>
<!-- Node10 -->
<g id="node10" class="node">
<title>Node10</title>
<g id="a_node10"><a xlink:title=" ">
<polygon fill="none" stroke="#bfbfbf" points="253.5,-0.5 253.5,-19.5 351.5,-19.5 351.5,-0.5 253.5,-0.5"/>
<text text-anchor="middle" x="302.5" y="-7.5" font-family="Helvetica,sans-Serif" font-size="10.00">nlohmann/json.hpp</text>
</a>
</g>
</g>
<!-- Node4&#45;&gt;Node10 -->
<g id="edge9" class="edge">
<title>Node4&#45;&gt;Node10</title>
<path fill="none" stroke="midnightblue" d="M955.14,-62.34C837.09,-57.25 584.95,-44.52 361.78,-20.05"/>
<polygon fill="midnightblue" stroke="midnightblue" points="361.83,-16.53 351.51,-18.91 361.06,-23.49 361.83,-16.53"/>
</g>
<!-- Node11 -->
<g id="node11" class="node">
<title>Node11</title>
<g id="a_node11"><a xlink:title=" ">
<polygon fill="none" stroke="#bfbfbf" points="370,-0.5 370,-19.5 455,-19.5 455,-0.5 370,-0.5"/>
<text text-anchor="middle" x="412.5" y="-7.5" font-family="Helvetica,sans-Serif" font-size="10.00">source_location</text>
</a>
</g>
</g>
<!-- Node4&#45;&gt;Node11 -->
<g id="edge10" class="edge">
<title>Node4&#45;&gt;Node11</title>
<path fill="none" stroke="midnightblue" d="M955.17,-61.64C851.84,-56.02 647.77,-43.13 465.09,-20.1"/>
<polygon fill="midnightblue" stroke="midnightblue" points="465.39,-16.61 455.03,-18.81 464.51,-23.55 465.39,-16.61"/>
</g>
<!-- Node12 -->
<g id="node12" class="node">
<title>Node12</title>
<g id="a_node12"><a xlink:title=" ">
<polygon fill="none" stroke="#bfbfbf" points="473,-0.5 473,-19.5 556,-19.5 556,-0.5 473,-0.5"/>
<text text-anchor="middle" x="514.5" y="-7.5" font-family="Helvetica,sans-Serif" font-size="10.00">unordered_map</text>
</a>
</g>
</g>
<!-- Node4&#45;&gt;Node12 -->
<g id="edge11" class="edge">
<title>Node4&#45;&gt;Node12</title>
<path fill="none" stroke="midnightblue" d="M955.33,-60C868.06,-53.15 710.79,-39.57 566.16,-19.99"/>
<polygon fill="midnightblue" stroke="midnightblue" points="566.59,-16.51 556.21,-18.63 565.64,-23.45 566.59,-16.51"/>
</g>
<!-- Node13 -->
<g id="node13" class="node">
<title>Node13</title>
<g id="a_node13"><a xlink:title=" ">
<polygon fill="none" stroke="#bfbfbf" points="574.5,-0.5 574.5,-19.5 652.5,-19.5 652.5,-0.5 574.5,-0.5"/>
<text text-anchor="middle" x="613.5" y="-7.5" font-family="Helvetica,sans-Serif" font-size="10.00">shared_mutex</text>
</a>
</g>
</g>
<!-- Node4&#45;&gt;Node13 -->
<g id="edge12" class="edge">
<title>Node4&#45;&gt;Node13</title>
<path fill="none" stroke="midnightblue" d="M955.46,-57.89C885.05,-50.14 770.86,-36.77 662.85,-20.13"/>
<polygon fill="midnightblue" stroke="midnightblue" points="663.18,-16.64 652.76,-18.56 662.1,-23.56 663.18,-16.64"/>
</g>
<!-- Node14 -->
<g id="node14" class="node">
<title>Node14</title>
<g id="a_node14"><a xlink:title=" ">
<polygon fill="none" stroke="#bfbfbf" points="670.5,-0.5 670.5,-19.5 728.5,-19.5 728.5,-0.5 670.5,-0.5"/>
<text text-anchor="middle" x="699.5" y="-7.5" font-family="Helvetica,sans-Serif" font-size="10.00">functional</text>
</a>
</g>
</g>
<!-- Node4&#45;&gt;Node14 -->
<g id="edge13" class="edge">
<title>Node4&#45;&gt;Node14</title>
<path fill="none" stroke="midnightblue" d="M959.71,-56.48C904.06,-48.62 820.4,-36.02 738.84,-20.15"/>
<polygon fill="midnightblue" stroke="midnightblue" points="739.4,-16.69 728.91,-18.2 738.05,-23.56 739.4,-16.69"/>
</g>
<!-- Node15 -->
<g id="node15" class="node">
<title>Node15</title>
<g id="a_node15"><a xlink:title=" ">
<polygon fill="none" stroke="#bfbfbf" points="746.5,-0.5 746.5,-19.5 802.5,-19.5 802.5,-0.5 746.5,-0.5"/>
<text text-anchor="middle" x="774.5" y="-7.5" font-family="Helvetica,sans-Serif" font-size="10.00">coroutine</text>
</a>
</g>
</g>
<!-- Node4&#45;&gt;Node15 -->
<g id="edge14" class="edge">
<title>Node4&#45;&gt;Node15</title>
<path fill="none" stroke="midnightblue" d="M980.79,-56.47C940.25,-48.1 876.7,-34.76 812.63,-20.21"/>
<polygon fill="midnightblue" stroke="midnightblue" points="813.29,-16.77 802.76,-17.96 811.73,-23.6 813.29,-16.77"/>
</g>
<!-- Node16 -->
<g id="node16" class="node">
<title>Node16</title>
<g id="a_node16"><a xlink:title=" ">
<polygon fill="none" stroke="#bfbfbf" points="0,-0.5 0,-19.5 65,-19.5 65,-0.5 0,-0.5"/>
<text text-anchor="middle" x="32.5" y="-7.5" font-family="Helvetica,sans-Serif" font-size="10.00">semaphore</text>
</a>
</g>
</g>
<!-- Node4&#45;&gt;Node16 -->
<g id="edge15" class="edge">
<title>Node4&#45;&gt;Node16</title>
<path fill="none" stroke="midnightblue" d="M955.42,-65.69C801.35,-66.45 410.29,-63.61 75.47,-20.04"/>
<polygon fill="midnightblue" stroke="midnightblue" points="75.46,-16.51 65.09,-18.67 74.54,-23.45 75.46,-16.51"/>
</g>
<!-- Node17 -->
<g id="node17" class="node">
<title>Node17</title>
<g id="a_node17"><a xlink:title=" ">
<polygon fill="none" stroke="#bfbfbf" points="820.5,-0.5 820.5,-19.5 876.5,-19.5 876.5,-0.5 820.5,-0.5"/>
<text text-anchor="middle" x="848.5" y="-7.5" font-family="Helvetica,sans-Serif" font-size="10.00">concepts</text>
</a>
</g>
</g>
<!-- Node4&#45;&gt;Node17 -->
<g id="edge16" class="edge">
<title>Node4&#45;&gt;Node17</title>
<path fill="none" stroke="midnightblue" d="M994.93,-56.44C965.4,-47.28 918.38,-32.69 885.62,-22.52"/>
<polygon fill="midnightblue" stroke="midnightblue" points="886.53,-19.14 875.94,-19.52 884.46,-25.82 886.53,-19.14"/>
</g>
<!-- Node18 -->
<g id="node18" class="node">
<title>Node18</title>
<g id="a_node18"><a xlink:title=" ">
<polygon fill="none" stroke="#bfbfbf" points="894.5,-0.5 894.5,-19.5 948.5,-19.5 948.5,-0.5 894.5,-0.5"/>
<text text-anchor="middle" x="921.5" y="-7.5" font-family="Helvetica,sans-Serif" font-size="10.00">iostream</text>
</a>
</g>
</g>
<!-- Node4&#45;&gt;Node18 -->
<g id="edge17" class="edge">
<title>Node4&#45;&gt;Node18</title>
<path fill="none" stroke="midnightblue" d="M1006.27,-56.32C990.15,-47.7 965.2,-34.36 946.54,-24.39"/>
<polygon fill="midnightblue" stroke="midnightblue" points="948.16,-21.28 937.69,-19.65 944.86,-27.46 948.16,-21.28"/>
</g>
<!-- Node19 -->
<g id="node19" class="node">
<title>Node19</title>
<g id="a_node19"><a xlink:title=" ">
<polygon fill="none" stroke="#bfbfbf" points="967,-0.5 967,-19.5 1016,-19.5 1016,-0.5 967,-0.5"/>
<text text-anchor="middle" x="991.5" y="-7.5" font-family="Helvetica,sans-Serif" font-size="10.00">fstream</text>
</a>
</g>
</g>
<!-- Node4&#45;&gt;Node19 -->
<g id="edge18" class="edge">
<title>Node4&#45;&gt;Node19</title>
<path fill="none" stroke="midnightblue" d="M1017.38,-56.08C1013.09,-48.61 1006.84,-37.72 1001.56,-28.52"/>
<polygon fill="midnightblue" stroke="midnightblue" points="1004.54,-26.68 996.52,-19.75 998.47,-30.17 1004.54,-26.68"/>
</g>
<!-- Node20 -->
<g id="node20" class="node">
<title>Node20</title>
<g id="a_node20"><a xlink:title=" ">
<polygon fill="none" stroke="#bfbfbf" points="1034,-0.5 1034,-19.5 1075,-19.5 1075,-0.5 1034,-0.5"/>
<text text-anchor="middle" x="1054.5" y="-7.5" font-family="Helvetica,sans-Serif" font-size="10.00">bitset</text>
</a>
</g>
</g>
<!-- Node4&#45;&gt;Node20 -->
<g id="edge19" class="edge">
<title>Node4&#45;&gt;Node20</title>
<path fill="none" stroke="midnightblue" d="M1027.78,-56.08C1032.21,-48.61 1038.66,-37.72 1044.12,-28.52"/>
<polygon fill="midnightblue" stroke="midnightblue" points="1047.23,-30.14 1049.31,-19.75 1041.21,-26.57 1047.23,-30.14"/>
</g>
<!-- Node21 -->
<g id="node21" class="node">
<title>Node21</title>
<g id="a_node21"><a xlink:title=" ">
<polygon fill="none" stroke="#bfbfbf" points="1093.5,-0.5 1093.5,-19.5 1145.5,-19.5 1145.5,-0.5 1093.5,-0.5"/>
<text text-anchor="middle" x="1119.5" y="-7.5" font-family="Helvetica,sans-Serif" font-size="10.00">memory</text>
</a>
</g>
</g>
<!-- Node4&#45;&gt;Node21 -->
<g id="edge20" class="edge">
<title>Node4&#45;&gt;Node21</title>
<path fill="none" stroke="midnightblue" d="M1038.08,-56.32C1053.5,-47.74 1077.31,-34.49 1095.21,-24.52"/>
<polygon fill="midnightblue" stroke="midnightblue" points="1096.92,-27.58 1103.95,-19.65 1093.51,-21.46 1096.92,-27.58"/>
</g>
<!-- Node22 -->
<g id="node22" class="node">
<title>Node22</title>
<g id="a_node22"><a xlink:title=" ">
<polygon fill="none" stroke="#bfbfbf" points="1164,-0.5 1164,-19.5 1213,-19.5 1213,-0.5 1164,-0.5"/>
<text text-anchor="middle" x="1188.5" y="-7.5" font-family="Helvetica,sans-Serif" font-size="10.00">random</text>
</a>
</g>
</g>
<!-- Node4&#45;&gt;Node22 -->
<g id="edge21" class="edge">
<title>Node4&#45;&gt;Node22</title>
<path fill="none" stroke="midnightblue" d="M1048.8,-56.44C1077.35,-47.16 1123.02,-32.3 1154.33,-22.12"/>
<polygon fill="midnightblue" stroke="midnightblue" points="1155.52,-25.41 1163.94,-18.99 1153.35,-18.75 1155.52,-25.41"/>
</g>
<!-- Node23 -->
<g id="node23" class="node">
<title>Node23</title>
<g id="a_node23"><a xlink:title=" ">
<polygon fill="none" stroke="#bfbfbf" points="1231,-0.5 1231,-19.5 1272,-19.5 1272,-0.5 1231,-0.5"/>
<text text-anchor="middle" x="1251.5" y="-7.5" font-family="Helvetica,sans-Serif" font-size="10.00">string</text>
</a>
</g>
</g>
<!-- Node4&#45;&gt;Node23 -->
<g id="edge22" class="edge">
<title>Node4&#45;&gt;Node23</title>
<path fill="none" stroke="midnightblue" d="M1064.25,-56.44C1102.52,-48.39 1160.97,-35.61 1220.88,-20.02"/>
<polygon fill="midnightblue" stroke="midnightblue" points="1222.11,-23.31 1230.9,-17.39 1220.34,-16.54 1222.11,-23.31"/>
</g>
<!-- Node24 -->
<g id="node24" class="node">
<title>Node24</title>
<g id="a_node24"><a xlink:title=" ">
<polygon fill="none" stroke="#bfbfbf" points="1290.5,-0.5 1290.5,-19.5 1332.5,-19.5 1332.5,-0.5 1290.5,-0.5"/>
<text text-anchor="middle" x="1311.5" y="-7.5" font-family="Helvetica,sans-Serif" font-size="10.00">vector</text>
</a>
</g>
</g>
<!-- Node4&#45;&gt;Node24 -->
<g id="edge23" class="edge">
<title>Node4&#45;&gt;Node24</title>
<path fill="none" stroke="midnightblue" d="M1082.31,-56.48C1134.84,-48.54 1213.17,-35.6 1280.5,-20 1280.6,-19.98 1280.7,-19.95 1280.8,-19.93"/>
<polygon fill="midnightblue" stroke="midnightblue" points="1281.42,-23.38 1290.24,-17.51 1279.68,-16.6 1281.42,-23.38"/>
</g>
<!-- Node25 -->
<g id="node25" class="node">
<title>Node25</title>
<g id="a_node25"><a xlink:title=" ">
<polygon fill="none" stroke="#bfbfbf" points="1350.5,-0.5 1350.5,-19.5 1394.5,-19.5 1394.5,-0.5 1350.5,-0.5"/>
<text text-anchor="middle" x="1372.5" y="-7.5" font-family="Helvetica,sans-Serif" font-size="10.00">thread</text>
</a>
</g>
</g>
<!-- Node4&#45;&gt;Node25 -->
<g id="edge24" class="edge">
<title>Node4&#45;&gt;Node25</title>
<path fill="none" stroke="midnightblue" d="M1089.58,-58.35C1152.19,-51.5 1248.32,-39.37 1340.22,-20.02"/>
<polygon fill="midnightblue" stroke="midnightblue" points="1341.2,-23.39 1350.25,-17.87 1339.73,-16.54 1341.2,-23.39"/>
</g>
<!-- Node26 -->
<g id="node26" class="node">
<title>Node26</title>
<g id="a_node26"><a xlink:title=" ">
<polygon fill="none" stroke="#bfbfbf" points="1412.5,-0.5 1412.5,-19.5 1456.5,-19.5 1456.5,-0.5 1412.5,-0.5"/>
<text text-anchor="middle" x="1434.5" y="-7.5" font-family="Helvetica,sans-Serif" font-size="10.00">mutex</text>
</a>
</g>
</g>
<!-- Node4&#45;&gt;Node26 -->
<g id="edge25" class="edge">
<title>Node4&#45;&gt;Node26</title>
<path fill="none" stroke="midnightblue" d="M1089.79,-60.43C1164.17,-54.61 1287.58,-42.74 1402.26,-19.95"/>
<polygon fill="midnightblue" stroke="midnightblue" points="1403.15,-23.34 1412.26,-17.93 1401.76,-16.48 1403.15,-23.34"/>
</g>
<!-- Node27 -->
<g id="node27" class="node">
<title>Node27</title>
<g id="a_node27"><a xlink:title=" ">
<polygon fill="none" stroke="#bfbfbf" points="1475,-0.5 1475,-19.5 1518,-19.5 1518,-0.5 1475,-0.5"/>
<text text-anchor="middle" x="1496.5" y="-7.5" font-family="Helvetica,sans-Serif" font-size="10.00">queue</text>
</a>
</g>
</g>
<!-- Node4&#45;&gt;Node27 -->
<g id="edge26" class="edge">
<title>Node4&#45;&gt;Node27</title>
<path fill="none" stroke="midnightblue" d="M1089.85,-61.96C1175.11,-57.27 1326.53,-46.12 1465,-19.73"/>
<polygon fill="midnightblue" stroke="midnightblue" points="1465.79,-23.14 1474.94,-17.8 1464.46,-16.27 1465.79,-23.14"/>
</g>
<!-- Node28 -->
<g id="node28" class="node">
<title>Node28</title>
<g id="a_node28"><a xlink:title=" ">
<polygon fill="none" stroke="#bfbfbf" points="1536,-0.5 1536,-19.5 1571,-19.5 1571,-0.5 1536,-0.5"/>
<text text-anchor="middle" x="1553.5" y="-7.5" font-family="Helvetica,sans-Serif" font-size="10.00">map</text>
</a>
</g>
</g>
<!-- Node4&#45;&gt;Node28 -->
<g id="edge27" class="edge">
<title>Node4&#45;&gt;Node28</title>
<path fill="none" stroke="midnightblue" d="M1089.86,-64.2C1185.41,-61.93 1365.64,-53.41 1525.73,-19.92"/>
<polygon fill="midnightblue" stroke="midnightblue" points="1526.71,-23.29 1535.76,-17.78 1525.25,-16.44 1526.71,-23.29"/>
</g>
<!-- Node29&#45;&gt;Node3 -->
<g id="edge29" class="edge">
<title>Node29&#45;&gt;Node3</title>
<path fill="none" stroke="midnightblue" d="M1187.49,-347.2C1208.66,-319.42 1268.18,-232.26 1226.5,-179 1210.53,-158.6 1149.49,-145.29 1098.3,-137.48"/>
<polygon fill="midnightblue" stroke="midnightblue" points="1098.61,-133.99 1088.21,-135.99 1097.59,-140.92 1098.61,-133.99"/>
</g>
<!-- Node30 -->
<g id="node30" class="node">
<title>Node30</title>
<g id="a_node30"><a xlink:href="../../db/d7c/a00722.html" target="_top" xlink:title=" ">
<polygon fill="none" stroke="black" points="589,-291.5 589,-310.5 714,-310.5 714,-291.5 589,-291.5"/>
<text text-anchor="middle" x="651.5" y="-298.5" font-family="Helvetica,sans-Serif" font-size="10.00">discordcoreapi/Https.hpp</text>
</a>
</g>
</g>
<!-- Node29&#45;&gt;Node30 -->
<g id="edge30" class="edge">
<title>Node29&#45;&gt;Node30</title>
<path fill="none" stroke="midnightblue" d="M1105.27,-348.32C1003.78,-337.96 824.23,-319.63 724.11,-309.41"/>
<polygon fill="midnightblue" stroke="midnightblue" points="724.38,-305.92 714.08,-308.39 723.67,-312.89 724.38,-305.92"/>
</g>
<!-- Node30&#45;&gt;Node16 -->
<g id="edge47" class="edge">
<title>Node30&#45;&gt;Node16</title>
<path fill="none" stroke="midnightblue" d="M588.74,-295.39C431.37,-283.01 32.5,-246.08 32.5,-190 32.5,-190 32.5,-190 32.5,-126.5 32.5,-92.36 32.5,-52.55 32.5,-29.71"/>
<polygon fill="midnightblue" stroke="midnightblue" points="36,-29.69 32.5,-19.69 29,-29.69 36,-29.69"/>
</g>
<!-- Node31 -->
<g id="node31" class="node">
<title>Node31</title>
<g id="a_node31"><a xlink:href="../../d5/de8/a00749.html" target="_top" xlink:title=" ">
<polygon fill="none" stroke="black" points="576.5,-235.5 576.5,-254.5 726.5,-254.5 726.5,-235.5 576.5,-235.5"/>
<text text-anchor="middle" x="651.5" y="-242.5" font-family="Helvetica,sans-Serif" font-size="10.00">discordcoreapi/SSLClients.hpp</text>
</a>
</g>
</g>
<!-- Node30&#45;&gt;Node31 -->
<g id="edge31" class="edge">
<title>Node30&#45;&gt;Node31</title>
<path fill="none" stroke="midnightblue" d="M651.5,-291.08C651.5,-284.01 651.5,-273.86 651.5,-264.99"/>
<polygon fill="midnightblue" stroke="midnightblue" points="655,-264.75 651.5,-254.75 648,-264.75 655,-264.75"/>
</g>
<!-- Node31&#45;&gt;Node3 -->
<g id="edge42" class="edge">
<title>Node31&#45;&gt;Node3</title>
<path fill="none" stroke="midnightblue" d="M576.49,-243.52C431.01,-241.82 121.87,-234.06 89.5,-199 83.47,-192.47 83.39,-185.45 89.5,-179 118.82,-148.04 729.52,-133.87 946.68,-129.79"/>
<polygon fill="midnightblue" stroke="midnightblue" points="946.79,-133.29 956.72,-129.61 946.66,-126.29 946.79,-133.29"/>
</g>
<!-- Node32 -->
<g id="node32" class="node">
<title>Node32</title>
<g id="a_node32"><a xlink:title=" ">
<polygon fill="none" stroke="#bfbfbf" points="528,-179.5 528,-198.5 571,-198.5 571,-179.5 528,-179.5"/>
<text text-anchor="middle" x="549.5" y="-186.5" font-family="Helvetica,sans-Serif" font-size="10.00">fcntl.h</text>
</a>
</g>
</g>
<!-- Node31&#45;&gt;Node32 -->
<g id="edge32" class="edge">
<title>Node31&#45;&gt;Node32</title>
<path fill="none" stroke="midnightblue" d="M635.11,-235.32C618.83,-226.7 593.63,-213.36 574.78,-203.39"/>
<polygon fill="midnightblue" stroke="midnightblue" points="576.32,-200.24 565.85,-198.65 573.05,-206.43 576.32,-200.24"/>
</g>
<!-- Node33 -->
<g id="node33" class="node">
<title>Node33</title>
<g id="a_node33"><a xlink:title=" ">
<polygon fill="none" stroke="#bfbfbf" points="589,-179.5 589,-198.5 638,-198.5 638,-179.5 589,-179.5"/>
<text text-anchor="middle" x="613.5" y="-186.5" font-family="Helvetica,sans-Serif" font-size="10.00">netdb.h</text>
</a>
</g>
</g>
<!-- Node31&#45;&gt;Node33 -->
<g id="edge33" class="edge">
<title>Node31&#45;&gt;Node33</title>
<path fill="none" stroke="midnightblue" d="M645.23,-235.08C639.86,-227.46 631.98,-216.26 625.42,-206.94"/>
<polygon fill="midnightblue" stroke="midnightblue" points="628.28,-204.91 619.66,-198.75 622.55,-208.94 628.28,-204.91"/>
</g>
<!-- Node34 -->
<g id="node34" class="node">
<title>Node34</title>
<g id="a_node34"><a xlink:title=" ">
<polygon fill="none" stroke="#bfbfbf" points="656,-179.5 656,-198.5 721,-198.5 721,-179.5 656,-179.5"/>
<text text-anchor="middle" x="688.5" y="-186.5" font-family="Helvetica,sans-Serif" font-size="10.00">netinet/in.h</text>
</a>
</g>
</g>
<!-- Node31&#45;&gt;Node34 -->
<g id="edge34" class="edge">
<title>Node31&#45;&gt;Node34</title>
<path fill="none" stroke="midnightblue" d="M657.61,-235.08C662.78,-227.53 670.35,-216.49 676.69,-207.23"/>
<polygon fill="midnightblue" stroke="midnightblue" points="679.74,-208.98 682.5,-198.75 673.96,-205.02 679.74,-208.98"/>
</g>
<!-- Node35 -->
<g id="node35" class="node">
<title>Node35</title>
<g id="a_node35"><a xlink:title=" ">
<polygon fill="none" stroke="#bfbfbf" points="739,-179.5 739,-198.5 810,-198.5 810,-179.5 739,-179.5"/>
<text text-anchor="middle" x="774.5" y="-186.5" font-family="Helvetica,sans-Serif" font-size="10.00">netinet/tcp.h</text>
</a>
</g>
</g>
<!-- Node31&#45;&gt;Node35 -->
<g id="edge35" class="edge">
<title>Node31&#45;&gt;Node35</title>
<path fill="none" stroke="midnightblue" d="M670.99,-235.44C691.14,-226.6 722.82,-212.69 745.83,-202.59"/>
<polygon fill="midnightblue" stroke="midnightblue" points="747.35,-205.74 755.1,-198.52 744.54,-199.33 747.35,-205.74"/>
</g>
<!-- Node36 -->
<g id="node36" class="node">
<title>Node36</title>
<g id="a_node36"><a xlink:title=" ">
<polygon fill="none" stroke="#bfbfbf" points="828,-179.5 828,-198.5 877,-198.5 877,-179.5 828,-179.5"/>
<text text-anchor="middle" x="852.5" y="-186.5" font-family="Helvetica,sans-Serif" font-size="10.00">stdint.h</text>
</a>
</g>
</g>
<!-- Node31&#45;&gt;Node36 -->
<g id="edge36" class="edge">
<title>Node31&#45;&gt;Node36</title>
<path fill="none" stroke="midnightblue" d="M683.35,-235.44C719.98,-225.6 779.91,-209.5 817.73,-199.34"/>
<polygon fill="midnightblue" stroke="midnightblue" points="819.02,-202.62 827.77,-196.64 817.2,-195.86 819.02,-202.62"/>
</g>
<!-- Node37 -->
<g id="node37" class="node">
<title>Node37</title>
<g id="a_node37"><a xlink:title=" ">
<polygon fill="none" stroke="#bfbfbf" points="895.5,-179.5 895.5,-198.5 959.5,-198.5 959.5,-179.5 895.5,-179.5"/>
<text text-anchor="middle" x="927.5" y="-186.5" font-family="Helvetica,sans-Serif" font-size="10.00">sys/epoll.h</text>
</a>
</g>
</g>
<!-- Node31&#45;&gt;Node37 -->
<g id="edge37" class="edge">
<title>Node31&#45;&gt;Node37</title>
<path fill="none" stroke="midnightblue" d="M697.29,-235.49C744.51,-226.65 820.23,-212.27 885.5,-199 885.6,-198.98 885.7,-198.96 885.8,-198.94"/>
<polygon fill="midnightblue" stroke="midnightblue" points="886.33,-202.4 895.41,-196.95 884.91,-195.55 886.33,-202.4"/>
</g>
<!-- Node38 -->
<g id="node38" class="node">
<title>Node38</title>
<g id="a_node38"><a xlink:title=" ">
<polygon fill="none" stroke="#bfbfbf" points="977.5,-179.5 977.5,-198.5 1039.5,-198.5 1039.5,-179.5 977.5,-179.5"/>
<text text-anchor="middle" x="1008.5" y="-186.5" font-family="Helvetica,sans-Serif" font-size="10.00">arpa/inet.h</text>
</a>
</g>
</g>
<!-- Node31&#45;&gt;Node38 -->
<g id="edge38" class="edge">
<title>Node31&#45;&gt;Node38</title>
<path fill="none" stroke="midnightblue" d="M723.21,-235.49C785.31,-227.74 877.74,-215.29 967.07,-199.14"/>
<polygon fill="midnightblue" stroke="midnightblue" points="967.9,-202.55 977.11,-197.31 966.64,-195.67 967.9,-202.55"/>
</g>
<!-- Node39 -->
<g id="node39" class="node">
<title>Node39</title>
<g id="a_node39"><a xlink:title=" ">
<polygon fill="none" stroke="#bfbfbf" points="1058,-179.5 1058,-198.5 1131,-198.5 1131,-179.5 1058,-179.5"/>
<text text-anchor="middle" x="1094.5" y="-186.5" font-family="Helvetica,sans-Serif" font-size="10.00">sys/socket.h</text>
</a>
</g>
</g>
<!-- Node31&#45;&gt;Node39 -->
<g id="edge39" class="edge">
<title>Node31&#45;&gt;Node39</title>
<path fill="none" stroke="midnightblue" d="M726.74,-237.29C804.58,-229.93 929.85,-216.94 1047.95,-198.97"/>
<polygon fill="midnightblue" stroke="midnightblue" points="1048.54,-202.42 1057.89,-197.44 1047.47,-195.5 1048.54,-202.42"/>
</g>
<!-- Node40 -->
<g id="node40" class="node">
<title>Node40</title>
<g id="a_node40"><a xlink:title=" ">
<polygon fill="none" stroke="#bfbfbf" points="1149.5,-179.5 1149.5,-198.5 1217.5,-198.5 1217.5,-179.5 1149.5,-179.5"/>
<text text-anchor="middle" x="1183.5" y="-186.5" font-family="Helvetica,sans-Serif" font-size="10.00">sys/types.h</text>
</a>
</g>
</g>
<!-- Node31&#45;&gt;Node40 -->
<g id="edge40" class="edge">
<title>Node31&#45;&gt;Node40</title>
<path fill="none" stroke="midnightblue" d="M726.63,-239.64C822.72,-233.48 994.1,-220.51 1139.5,-199 1139.6,-198.99 1139.7,-198.97 1139.8,-198.95"/>
<polygon fill="midnightblue" stroke="midnightblue" points="1140.17,-202.44 1149.46,-197.35 1139.02,-195.54 1140.17,-202.44"/>
</g>
<!-- Node41 -->
<g id="node41" class="node">
<title>Node41</title>
<g id="a_node41"><a xlink:title=" ">
<polygon fill="none" stroke="#bfbfbf" points="99,-179.5 99,-198.5 150,-198.5 150,-179.5 99,-179.5"/>
<text text-anchor="middle" x="124.5" y="-186.5" font-family="Helvetica,sans-Serif" font-size="10.00">unistd.h</text>
</a>
</g>
</g>
<!-- Node31&#45;&gt;Node41 -->
<g id="edge41" class="edge">
<title>Node31&#45;&gt;Node41</title>
<path fill="none" stroke="midnightblue" d="M576.23,-241.06C481.18,-236.46 312.57,-225.4 160.04,-199.01"/>
<polygon fill="midnightblue" stroke="midnightblue" points="160.47,-195.53 150.02,-197.25 159.26,-202.42 160.47,-195.53"/>
</g>
<!-- Node42 -->
<g id="node42" class="node">
<title>Node42</title>
<g id="a_node42"><a xlink:href="../../d4/d6a/a00704.html" target="_top" xlink:title=" ">
<polygon fill="none" stroke="black" points="351.5,-179.5 351.5,-198.5 509.5,-198.5 509.5,-179.5 351.5,-179.5"/>
<text text-anchor="middle" x="430.5" y="-186.5" font-family="Helvetica,sans-Serif" font-size="10.00">discordcoreapi/EventEntities.hpp</text>
</a>
</g>
</g>
<!-- Node31&#45;&gt;Node42 -->
<g id="edge43" class="edge">
<title>Node31&#45;&gt;Node42</title>
<path fill="none" stroke="midnightblue" d="M616.48,-235.44C578.25,-226.1 516.93,-211.12 475.24,-200.93"/>
<polygon fill="midnightblue" stroke="midnightblue" points="475.9,-197.49 465.35,-198.52 474.24,-204.29 475.9,-197.49"/>
</g>
<!-- Node43 -->
<g id="node43" class="node">
<title>Node43</title>
<g id="a_node43"><a xlink:title=" ">
<polygon fill="none" stroke="#bfbfbf" points="168,-179.5 168,-198.5 241,-198.5 241,-179.5 168,-179.5"/>
<text text-anchor="middle" x="204.5" y="-186.5" font-family="Helvetica,sans-Serif" font-size="10.00">openssl/err.h</text>
</a>
</g>
</g>
<!-- Node31&#45;&gt;Node43 -->
<g id="edge45" class="edge">
<title>Node31&#45;&gt;Node43</title>
<path fill="none" stroke="midnightblue" d="M576.24,-237.4C497.69,-230.09 370.72,-217.11 251.17,-198.98"/>
<polygon fill="midnightblue" stroke="midnightblue" points="251.53,-195.5 241.11,-197.44 250.47,-202.42 251.53,-195.5"/>
</g>
<!-- Node44 -->
<g id="node44" class="node">
<title>Node44</title>
<g id="a_node44"><a xlink:title=" ">
<polygon fill="none" stroke="#bfbfbf" points="259.5,-179.5 259.5,-198.5 333.5,-198.5 333.5,-179.5 259.5,-179.5"/>
<text text-anchor="middle" x="296.5" y="-186.5" font-family="Helvetica,sans-Serif" font-size="10.00">openssl/ssl.h</text>
</a>
</g>
</g>
<!-- Node31&#45;&gt;Node44 -->
<g id="edge46" class="edge">
<title>Node31&#45;&gt;Node44</title>
<path fill="none" stroke="midnightblue" d="M586.55,-235.48C526.18,-227.34 433.53,-214.31 343.72,-199.14"/>
<polygon fill="midnightblue" stroke="midnightblue" points="344.07,-195.65 333.63,-197.42 342.9,-202.55 344.07,-195.65"/>
</g>
<!-- Node42&#45;&gt;Node3 -->
<g id="edge44" class="edge">
<title>Node42&#45;&gt;Node3</title>
<path fill="none" stroke="midnightblue" d="M509.65,-179.9C512.64,-179.59 515.6,-179.29 518.5,-179 670.39,-163.62 848.05,-145.88 946.68,-136.05"/>
<polygon fill="midnightblue" stroke="midnightblue" points="947.25,-139.51 956.85,-135.03 946.56,-132.54 947.25,-139.51"/>
</g>
<!-- Node45&#45;&gt;Node3 -->
<g id="edge50" class="edge">
<title>Node45&#45;&gt;Node3</title>
<path fill="none" stroke="midnightblue" d="M566.18,-355.96C374.57,-353.24 -62.31,-330.73 81.5,-179 111.12,-147.75 728.45,-133.75 946.8,-129.76"/>
<polygon fill="midnightblue" stroke="midnightblue" points="946.96,-133.25 956.89,-129.57 946.83,-126.25 946.96,-133.25"/>
</g>
<!-- Node45&#45;&gt;Node30 -->
<g id="edge51" class="edge">
<title>Node45&#45;&gt;Node30</title>
<path fill="none" stroke="midnightblue" d="M651.5,-347.08C651.5,-340.01 651.5,-329.86 651.5,-320.99"/>
<polygon fill="midnightblue" stroke="midnightblue" points="655,-320.75 651.5,-310.75 648,-320.75 655,-320.75"/>
</g>
</g>
</svg>
