<?xml version="1.0" encoding="UTF-8" standalone="no"?>
<!DOCTYPE svg PUBLIC "-//W3C//DTD SVG 1.1//EN"
 "http://www.w3.org/Graphics/SVG/1.1/DTD/svg11.dtd">
<!-- Generated by graphviz version 3.0.0 (20220226.1711)
 -->
<!-- Title: UserEntities.cpp Pages: 1 -->
<svg width="1858pt" height="666pt"
 viewBox="0.00 0.00 1858.00 666.00" xmlns="http://www.w3.org/2000/svg" xmlns:xlink="http://www.w3.org/1999/xlink">
<g id="graph0" class="graph" transform="scale(1 1) rotate(0) translate(4 662)">
<title>UserEntities.cpp</title>
<!-- Node1 -->
<g id="node1" class="node">
<title>Node1</title>
<g id="a_node1"><a xlink:title=" ">
<polygon fill="#bfbfbf" stroke="black" points="1120.5,-638.5 1120.5,-657.5 1209.5,-657.5 1209.5,-638.5 1120.5,-638.5"/>
<text text-anchor="middle" x="1165" y="-645.5" font-family="Helvetica,sans-Serif" font-size="10.00">UserEntities.cpp</text>
</a>
</g>
</g>
<!-- Node2 -->
<g id="node2" class="node">
<title>Node2</title>
<g id="a_node2"><a xlink:href="../../d3/d2c/a00764.html" target="_top" xlink:title=" ">
<polygon fill="none" stroke="black" points="684.5,-582.5 684.5,-601.5 839.5,-601.5 839.5,-582.5 684.5,-582.5"/>
<text text-anchor="middle" x="762" y="-589.5" font-family="Helvetica,sans-Serif" font-size="10.00">discordcoreapi/UserEntities.hpp</text>
</a>
</g>
</g>
<!-- Node1&#45;&gt;Node2 -->
<g id="edge1" class="edge">
<title>Node1&#45;&gt;Node2</title>
<path fill="none" stroke="midnightblue" d="M1120.33,-641.01C1051.58,-631.8 919.06,-614.05 835.87,-602.9"/>
<polygon fill="midnightblue" stroke="midnightblue" points="836.11,-599.4 825.73,-601.54 835.18,-606.34 836.11,-599.4"/>
</g>
<!-- Node34 -->
<g id="node34" class="node">
<title>Node34</title>
<g id="a_node34"><a xlink:href="../../d0/db6/a00692.html" target="_top" xlink:title=" ">
<polygon fill="none" stroke="black" points="726,-403.5 726,-422.5 872,-422.5 872,-403.5 726,-403.5"/>
<text text-anchor="middle" x="799" y="-410.5" font-family="Helvetica,sans-Serif" font-size="10.00">discordcoreapi/CoRoutine.hpp</text>
</a>
</g>
</g>
<!-- Node1&#45;&gt;Node34 -->
<g id="edge64" class="edge">
<title>Node1&#45;&gt;Node34</title>
<path fill="none" stroke="midnightblue" d="M1151.54,-638.43C1096.73,-603.54 889.99,-471.93 821.33,-428.21"/>
<polygon fill="midnightblue" stroke="midnightblue" points="822.9,-425.06 812.58,-422.65 819.14,-430.97 822.9,-425.06"/>
</g>
<!-- Node36 -->
<g id="node36" class="node">
<title>Node36</title>
<g id="a_node36"><a xlink:href="../../db/d7c/a00722.html" target="_top" xlink:title=" ">
<polygon fill="none" stroke="black" points="935.5,-291.5 935.5,-310.5 1060.5,-310.5 1060.5,-291.5 935.5,-291.5"/>
<text text-anchor="middle" x="998" y="-298.5" font-family="Helvetica,sans-Serif" font-size="10.00">discordcoreapi/Https.hpp</text>
</a>
</g>
</g>
<!-- Node1&#45;&gt;Node36 -->
<g id="edge65" class="edge">
<title>Node1&#45;&gt;Node36</title>
<path fill="none" stroke="midnightblue" d="M1209.68,-644.21C1361.77,-634.12 1850,-596.66 1850,-531.5 1850,-531.5 1850,-531.5 1850,-412 1850,-333.72 1276.92,-309.85 1070.77,-303.8"/>
<polygon fill="midnightblue" stroke="midnightblue" points="1070.75,-300.3 1060.65,-303.51 1070.54,-307.29 1070.75,-300.3"/>
</g>
<!-- Node3 -->
<g id="node3" class="node">
<title>Node3</title>
<g id="a_node3"><a xlink:href="../../d4/deb/a00710.html" target="_top" xlink:title=" ">
<polygon fill="none" stroke="black" points="651.5,-112.5 651.5,-142.5 782.5,-142.5 782.5,-112.5 651.5,-112.5"/>
<text text-anchor="start" x="659.5" y="-130.5" font-family="Helvetica,sans-Serif" font-size="10.00">discordcoreapi/Foundation</text>
<text text-anchor="middle" x="717" y="-119.5" font-family="Helvetica,sans-Serif" font-size="10.00">Entities.hpp</text>
</a>
</g>
</g>
<!-- Node2&#45;&gt;Node3 -->
<g id="edge2" class="edge">
<title>Node2&#45;&gt;Node3</title>
<path fill="none" stroke="midnightblue" d="M684.35,-589.48C535.8,-584.45 226,-562.83 226,-470 226,-470 226,-470 226,-244 226,-200.56 259.4,-196.87 299,-179 358.4,-152.2 537.85,-138.23 641.29,-132.22"/>
<polygon fill="midnightblue" stroke="midnightblue" points="641.58,-135.71 651.37,-131.65 641.18,-128.72 641.58,-135.71"/>
</g>
<!-- Node29 -->
<g id="node29" class="node">
<title>Node29</title>
<g id="a_node29"><a xlink:href="../../d9/dd4/a00776.html" target="_top" xlink:title=" ">
<polygon fill="none" stroke="black" points="695,-515.5 695,-545.5 829,-545.5 829,-515.5 695,-515.5"/>
<text text-anchor="start" x="703" y="-533.5" font-family="Helvetica,sans-Serif" font-size="10.00">discordcoreapi/WebSocket</text>
<text text-anchor="middle" x="762" y="-522.5" font-family="Helvetica,sans-Serif" font-size="10.00">Entities.hpp</text>
</a>
</g>
</g>
<!-- Node2&#45;&gt;Node29 -->
<g id="edge28" class="edge">
<title>Node2&#45;&gt;Node29</title>
<path fill="none" stroke="midnightblue" d="M762,-582.48C762,-575.47 762,-565.19 762,-555.7"/>
<polygon fill="midnightblue" stroke="midnightblue" points="765.5,-555.52 762,-545.52 758.5,-555.52 765.5,-555.52"/>
</g>
<!-- Node4 -->
<g id="node4" class="node">
<title>Node4</title>
<g id="a_node4"><a xlink:href="../../d5/dae/a00767.html" target="_top" xlink:title=" ">
<polygon fill="none" stroke="black" points="936,-56.5 936,-75.5 1070,-75.5 1070,-56.5 936,-56.5"/>
<text text-anchor="middle" x="1003" y="-63.5" font-family="Helvetica,sans-Serif" font-size="10.00">discordcoreapi/Utilities.hpp</text>
</a>
</g>
</g>
<!-- Node3&#45;&gt;Node4 -->
<g id="edge3" class="edge">
<title>Node3&#45;&gt;Node4</title>
<path fill="none" stroke="midnightblue" d="M782.61,-112.85C834.08,-102.14 904.7,-87.45 951.99,-77.61"/>
<polygon fill="midnightblue" stroke="midnightblue" points="952.93,-80.99 962,-75.53 951.5,-74.14 952.93,-80.99"/>
</g>
<!-- Node5 -->
<g id="node5" class="node">
<title>Node5</title>
<g id="a_node5"><a xlink:title=" ">
<polygon fill="none" stroke="#bfbfbf" points="88.5,-0.5 88.5,-19.5 145.5,-19.5 145.5,-0.5 88.5,-0.5"/>
<text text-anchor="middle" x="117" y="-7.5" font-family="Helvetica,sans-Serif" font-size="10.00">pthread.h</text>
</a>
</g>
</g>
<!-- Node4&#45;&gt;Node5 -->
<g id="edge4" class="edge">
<title>Node4&#45;&gt;Node5</title>
<path fill="none" stroke="midnightblue" d="M935.82,-65.52C793.5,-65.72 451.19,-61.56 155.58,-19.78"/>
<polygon fill="midnightblue" stroke="midnightblue" points="155.92,-16.29 145.53,-18.34 154.93,-23.22 155.92,-16.29"/>
</g>
<!-- Node6 -->
<g id="node6" class="node">
<title>Node6</title>
<g id="a_node6"><a xlink:title=" ">
<polygon fill="none" stroke="#bfbfbf" points="164,-0.5 164,-19.5 226,-19.5 226,-0.5 164,-0.5"/>
<text text-anchor="middle" x="195" y="-7.5" font-family="Helvetica,sans-Serif" font-size="10.00">sys/time.h</text>
</a>
</g>
</g>
<!-- Node4&#45;&gt;Node6 -->
<g id="edge5" class="edge">
<title>Node4&#45;&gt;Node6</title>
<path fill="none" stroke="midnightblue" d="M935.86,-64.73C803.62,-63.4 500.07,-56.41 236.5,-19.98"/>
<polygon fill="midnightblue" stroke="midnightblue" points="236.74,-16.48 226.35,-18.56 235.77,-23.41 236.74,-16.48"/>
</g>
<!-- Node7 -->
<g id="node7" class="node">
<title>Node7</title>
<g id="a_node7"><a xlink:title=" ">
<polygon fill="none" stroke="#bfbfbf" points="244,-0.5 244,-19.5 288,-19.5 288,-0.5 244,-0.5"/>
<text text-anchor="middle" x="266" y="-7.5" font-family="Helvetica,sans-Serif" font-size="10.00">time.h</text>
</a>
</g>
</g>
<!-- Node4&#45;&gt;Node7 -->
<g id="edge6" class="edge">
<title>Node4&#45;&gt;Node7</title>
<path fill="none" stroke="midnightblue" d="M935.75,-65.58C811.26,-65.61 536.63,-60.7 298.11,-19.8"/>
<polygon fill="midnightblue" stroke="midnightblue" points="298.67,-16.35 288.21,-18.08 297.47,-23.24 298.67,-16.35"/>
</g>
<!-- Node8 -->
<g id="node8" class="node">
<title>Node8</title>
<g id="a_node8"><a xlink:title=" ">
<polygon fill="none" stroke="#bfbfbf" points="306.5,-0.5 306.5,-19.5 347.5,-19.5 347.5,-0.5 306.5,-0.5"/>
<text text-anchor="middle" x="327" y="-7.5" font-family="Helvetica,sans-Serif" font-size="10.00">ctime</text>
</a>
</g>
</g>
<!-- Node4&#45;&gt;Node8 -->
<g id="edge7" class="edge">
<title>Node4&#45;&gt;Node8</title>
<path fill="none" stroke="midnightblue" d="M935.76,-65.42C819.26,-65.03 572.51,-59.31 357.65,-19.92"/>
<polygon fill="midnightblue" stroke="midnightblue" points="358.24,-16.47 347.76,-18.08 356.95,-23.35 358.24,-16.47"/>
</g>
<!-- Node9 -->
<g id="node9" class="node">
<title>Node9</title>
<g id="a_node9"><a xlink:title=" ">
<polygon fill="none" stroke="#bfbfbf" points="365.5,-0.5 365.5,-19.5 458.5,-19.5 458.5,-0.5 365.5,-0.5"/>
<text text-anchor="middle" x="412" y="-7.5" font-family="Helvetica,sans-Serif" font-size="10.00">condition_variable</text>
</a>
</g>
</g>
<!-- Node4&#45;&gt;Node9 -->
<g id="edge8" class="edge">
<title>Node4&#45;&gt;Node9</title>
<path fill="none" stroke="midnightblue" d="M935.69,-60.97C836.05,-54.65 643.22,-41.03 468.85,-20.01"/>
<polygon fill="midnightblue" stroke="midnightblue" points="469.06,-16.51 458.71,-18.78 468.22,-23.46 469.06,-16.51"/>
</g>
<!-- Node10 -->
<g id="node10" class="node">
<title>Node10</title>
<g id="a_node10"><a xlink:title=" ">
<polygon fill="none" stroke="#bfbfbf" points="477,-0.5 477,-19.5 575,-19.5 575,-0.5 477,-0.5"/>
<text text-anchor="middle" x="526" y="-7.5" font-family="Helvetica,sans-Serif" font-size="10.00">nlohmann/json.hpp</text>
</a>
</g>
</g>
<!-- Node4&#45;&gt;Node10 -->
<g id="edge9" class="edge">
<title>Node4&#45;&gt;Node10</title>
<path fill="none" stroke="midnightblue" d="M935.76,-58.76C855,-51.04 715.19,-36.99 585.17,-20.1"/>
<polygon fill="midnightblue" stroke="midnightblue" points="585.39,-16.6 575.02,-18.77 584.49,-23.54 585.39,-16.6"/>
</g>
<!-- Node11 -->
<g id="node11" class="node">
<title>Node11</title>
<g id="a_node11"><a xlink:title=" ">
<polygon fill="none" stroke="#bfbfbf" points="593.5,-0.5 593.5,-19.5 678.5,-19.5 678.5,-0.5 593.5,-0.5"/>
<text text-anchor="middle" x="636" y="-7.5" font-family="Helvetica,sans-Serif" font-size="10.00">source_location</text>
</a>
</g>
</g>
<!-- Node4&#45;&gt;Node11 -->
<g id="edge10" class="edge">
<title>Node4&#45;&gt;Node11</title>
<path fill="none" stroke="midnightblue" d="M938.75,-56.49C877.08,-48.17 781.05,-34.85 688.64,-20.22"/>
<polygon fill="midnightblue" stroke="midnightblue" points="688.98,-16.73 678.56,-18.62 687.89,-23.65 688.98,-16.73"/>
</g>
<!-- Node12 -->
<g id="node12" class="node">
<title>Node12</title>
<g id="a_node12"><a xlink:title=" ">
<polygon fill="none" stroke="#bfbfbf" points="696.5,-0.5 696.5,-19.5 779.5,-19.5 779.5,-0.5 696.5,-0.5"/>
<text text-anchor="middle" x="738" y="-7.5" font-family="Helvetica,sans-Serif" font-size="10.00">unordered_map</text>
</a>
</g>
</g>
<!-- Node4&#45;&gt;Node12 -->
<g id="edge11" class="edge">
<title>Node4&#45;&gt;Node12</title>
<path fill="none" stroke="midnightblue" d="M961.01,-56.44C914.59,-46.98 839.77,-31.74 789.76,-21.55"/>
<polygon fill="midnightblue" stroke="midnightblue" points="790.29,-18.08 779.79,-19.52 788.89,-24.94 790.29,-18.08"/>
</g>
<!-- Node13 -->
<g id="node13" class="node">
<title>Node13</title>
<g id="a_node13"><a xlink:title=" ">
<polygon fill="none" stroke="#bfbfbf" points="798,-0.5 798,-19.5 876,-19.5 876,-0.5 798,-0.5"/>
<text text-anchor="middle" x="837" y="-7.5" font-family="Helvetica,sans-Serif" font-size="10.00">shared_mutex</text>
</a>
</g>
</g>
<!-- Node4&#45;&gt;Node13 -->
<g id="edge12" class="edge">
<title>Node4&#45;&gt;Node13</title>
<path fill="none" stroke="midnightblue" d="M976.7,-56.44C948.65,-47.32 904.06,-32.81 872.82,-22.65"/>
<polygon fill="midnightblue" stroke="midnightblue" points="873.77,-19.28 863.18,-19.52 871.61,-25.94 873.77,-19.28"/>
</g>
<!-- Node14 -->
<g id="node14" class="node">
<title>Node14</title>
<g id="a_node14"><a xlink:title=" ">
<polygon fill="none" stroke="#bfbfbf" points="0,-0.5 0,-19.5 70,-19.5 70,-0.5 0,-0.5"/>
<text text-anchor="middle" x="35" y="-7.5" font-family="Helvetica,sans-Serif" font-size="10.00">opus/opus.h</text>
</a>
</g>
</g>
<!-- Node4&#45;&gt;Node14 -->
<g id="edge13" class="edge">
<title>Node4&#45;&gt;Node14</title>
<path fill="none" stroke="midnightblue" d="M935.74,-65.24C784.44,-65.02 405.77,-60.24 80.55,-20"/>
<polygon fill="midnightblue" stroke="midnightblue" points="80.82,-16.51 70.46,-18.74 79.95,-23.45 80.82,-16.51"/>
</g>
<!-- Node15 -->
<g id="node15" class="node">
<title>Node15</title>
<g id="a_node15"><a xlink:title=" ">
<polygon fill="none" stroke="#bfbfbf" points="894,-0.5 894,-19.5 952,-19.5 952,-0.5 894,-0.5"/>
<text text-anchor="middle" x="923" y="-7.5" font-family="Helvetica,sans-Serif" font-size="10.00">functional</text>
</a>
</g>
</g>
<!-- Node4&#45;&gt;Node15 -->
<g id="edge14" class="edge">
<title>Node4&#45;&gt;Node15</title>
<path fill="none" stroke="midnightblue" d="M990.15,-56.32C977.78,-47.98 958.87,-35.21 944.26,-25.35"/>
<polygon fill="midnightblue" stroke="midnightblue" points="946.07,-22.35 935.82,-19.65 942.15,-28.15 946.07,-22.35"/>
</g>
<!-- Node16 -->
<g id="node16" class="node">
<title>Node16</title>
<g id="a_node16"><a xlink:title=" ">
<polygon fill="none" stroke="#bfbfbf" points="970.5,-0.5 970.5,-19.5 1035.5,-19.5 1035.5,-0.5 970.5,-0.5"/>
<text text-anchor="middle" x="1003" y="-7.5" font-family="Helvetica,sans-Serif" font-size="10.00">semaphore</text>
</a>
</g>
</g>
<!-- Node4&#45;&gt;Node16 -->
<g id="edge15" class="edge">
<title>Node4&#45;&gt;Node16</title>
<path fill="none" stroke="midnightblue" d="M1003,-56.08C1003,-49.01 1003,-38.86 1003,-29.99"/>
<polygon fill="midnightblue" stroke="midnightblue" points="1006.5,-29.75 1003,-19.75 999.5,-29.75 1006.5,-29.75"/>
</g>
<!-- Node17 -->
<g id="node17" class="node">
<title>Node17</title>
<g id="a_node17"><a xlink:title=" ">
<polygon fill="none" stroke="#bfbfbf" points="1054,-0.5 1054,-19.5 1110,-19.5 1110,-0.5 1054,-0.5"/>
<text text-anchor="middle" x="1082" y="-7.5" font-family="Helvetica,sans-Serif" font-size="10.00">concepts</text>
</a>
</g>
</g>
<!-- Node4&#45;&gt;Node17 -->
<g id="edge16" class="edge">
<title>Node4&#45;&gt;Node17</title>
<path fill="none" stroke="midnightblue" d="M1015.69,-56.32C1027.9,-47.98 1046.58,-35.21 1061,-25.35"/>
<polygon fill="midnightblue" stroke="midnightblue" points="1063.06,-28.19 1069.34,-19.65 1059.11,-22.41 1063.06,-28.19"/>
</g>
<!-- Node18 -->
<g id="node18" class="node">
<title>Node18</title>
<g id="a_node18"><a xlink:title=" ">
<polygon fill="none" stroke="#bfbfbf" points="1128,-0.5 1128,-19.5 1182,-19.5 1182,-0.5 1128,-0.5"/>
<text text-anchor="middle" x="1155" y="-7.5" font-family="Helvetica,sans-Serif" font-size="10.00">iostream</text>
</a>
</g>
</g>
<!-- Node4&#45;&gt;Node18 -->
<g id="edge17" class="edge">
<title>Node4&#45;&gt;Node18</title>
<path fill="none" stroke="midnightblue" d="M1027.08,-56.44C1052.54,-47.4 1092.89,-33.06 1121.46,-22.92"/>
<polygon fill="midnightblue" stroke="midnightblue" points="1122.78,-26.16 1131.03,-19.52 1120.43,-19.57 1122.78,-26.16"/>
</g>
<!-- Node19 -->
<g id="node19" class="node">
<title>Node19</title>
<g id="a_node19"><a xlink:title=" ">
<polygon fill="none" stroke="#bfbfbf" points="1200.5,-0.5 1200.5,-19.5 1249.5,-19.5 1249.5,-0.5 1200.5,-0.5"/>
<text text-anchor="middle" x="1225" y="-7.5" font-family="Helvetica,sans-Serif" font-size="10.00">fstream</text>
</a>
</g>
</g>
<!-- Node4&#45;&gt;Node19 -->
<g id="edge18" class="edge">
<title>Node4&#45;&gt;Node19</title>
<path fill="none" stroke="midnightblue" d="M1039.81,-56.46C1075.75,-48.07 1132.25,-34.71 1190.41,-20.1"/>
<polygon fill="midnightblue" stroke="midnightblue" points="1191.29,-23.49 1200.14,-17.65 1189.58,-16.7 1191.29,-23.49"/>
</g>
<!-- Node20 -->
<g id="node20" class="node">
<title>Node20</title>
<g id="a_node20"><a xlink:title=" ">
<polygon fill="none" stroke="#bfbfbf" points="1267.5,-0.5 1267.5,-19.5 1308.5,-19.5 1308.5,-0.5 1267.5,-0.5"/>
<text text-anchor="middle" x="1288" y="-7.5" font-family="Helvetica,sans-Serif" font-size="10.00">bitset</text>
</a>
</g>
</g>
<!-- Node4&#45;&gt;Node20 -->
<g id="edge19" class="edge">
<title>Node4&#45;&gt;Node20</title>
<path fill="none" stroke="midnightblue" d="M1064.23,-56.47C1114.03,-49.03 1186.26,-37.08 1257.46,-20.14"/>
<polygon fill="midnightblue" stroke="midnightblue" points="1258.6,-23.47 1267.49,-17.72 1256.95,-16.66 1258.6,-23.47"/>
</g>
<!-- Node21 -->
<g id="node21" class="node">
<title>Node21</title>
<g id="a_node21"><a xlink:title=" ">
<polygon fill="none" stroke="#bfbfbf" points="1327,-0.5 1327,-19.5 1379,-19.5 1379,-0.5 1327,-0.5"/>
<text text-anchor="middle" x="1353" y="-7.5" font-family="Helvetica,sans-Serif" font-size="10.00">memory</text>
</a>
</g>
</g>
<!-- Node4&#45;&gt;Node21 -->
<g id="edge20" class="edge">
<title>Node4&#45;&gt;Node21</title>
<path fill="none" stroke="midnightblue" d="M1070.04,-57.59C1131.8,-50.27 1226.16,-37.84 1316.81,-20.06"/>
<polygon fill="midnightblue" stroke="midnightblue" points="1317.57,-23.48 1326.7,-18.09 1316.21,-16.61 1317.57,-23.48"/>
</g>
<!-- Node22 -->
<g id="node22" class="node">
<title>Node22</title>
<g id="a_node22"><a xlink:title=" ">
<polygon fill="none" stroke="#bfbfbf" points="1397.5,-0.5 1397.5,-19.5 1446.5,-19.5 1446.5,-0.5 1397.5,-0.5"/>
<text text-anchor="middle" x="1422" y="-7.5" font-family="Helvetica,sans-Serif" font-size="10.00">random</text>
</a>
</g>
</g>
<!-- Node4&#45;&gt;Node22 -->
<g id="edge21" class="edge">
<title>Node4&#45;&gt;Node22</title>
<path fill="none" stroke="midnightblue" d="M1070.21,-60.06C1145.28,-53.89 1270.51,-41.65 1387.38,-19.86"/>
<polygon fill="midnightblue" stroke="midnightblue" points="1388.04,-23.3 1397.21,-18 1386.73,-16.42 1388.04,-23.3"/>
</g>
<!-- Node23 -->
<g id="node23" class="node">
<title>Node23</title>
<g id="a_node23"><a xlink:title=" ">
<polygon fill="none" stroke="#bfbfbf" points="1464.5,-0.5 1464.5,-19.5 1505.5,-19.5 1505.5,-0.5 1464.5,-0.5"/>
<text text-anchor="middle" x="1485" y="-7.5" font-family="Helvetica,sans-Serif" font-size="10.00">string</text>
</a>
</g>
</g>
<!-- Node4&#45;&gt;Node23 -->
<g id="edge22" class="edge">
<title>Node4&#45;&gt;Node23</title>
<path fill="none" stroke="midnightblue" d="M1070.02,-62.57C1156.91,-58.48 1313.1,-47.94 1454.1,-20.04"/>
<polygon fill="midnightblue" stroke="midnightblue" points="1455.11,-23.41 1464.22,-18 1453.73,-16.54 1455.11,-23.41"/>
</g>
<!-- Node24 -->
<g id="node24" class="node">
<title>Node24</title>
<g id="a_node24"><a xlink:title=" ">
<polygon fill="none" stroke="#bfbfbf" points="1524,-0.5 1524,-19.5 1566,-19.5 1566,-0.5 1524,-0.5"/>
<text text-anchor="middle" x="1545" y="-7.5" font-family="Helvetica,sans-Serif" font-size="10.00">vector</text>
</a>
</g>
</g>
<!-- Node4&#45;&gt;Node24 -->
<g id="edge23" class="edge">
<title>Node4&#45;&gt;Node24</title>
<path fill="none" stroke="midnightblue" d="M1070.29,-63.45C1166.72,-60.26 1349.78,-50.63 1513.57,-19.89"/>
<polygon fill="midnightblue" stroke="midnightblue" points="1514.66,-23.25 1523.83,-17.93 1513.35,-16.37 1514.66,-23.25"/>
</g>
<!-- Node25 -->
<g id="node25" class="node">
<title>Node25</title>
<g id="a_node25"><a xlink:title=" ">
<polygon fill="none" stroke="#bfbfbf" points="1584,-0.5 1584,-19.5 1628,-19.5 1628,-0.5 1584,-0.5"/>
<text text-anchor="middle" x="1606" y="-7.5" font-family="Helvetica,sans-Serif" font-size="10.00">thread</text>
</a>
</g>
</g>
<!-- Node4&#45;&gt;Node25 -->
<g id="edge24" class="edge">
<title>Node4&#45;&gt;Node25</title>
<path fill="none" stroke="midnightblue" d="M1070.06,-64.14C1175.6,-61.82 1386.85,-53.26 1573.77,-19.86"/>
<polygon fill="midnightblue" stroke="midnightblue" points="1574.56,-23.27 1583.78,-18.04 1573.31,-16.38 1574.56,-23.27"/>
</g>
<!-- Node26 -->
<g id="node26" class="node">
<title>Node26</title>
<g id="a_node26"><a xlink:title=" ">
<polygon fill="none" stroke="#bfbfbf" points="1646,-0.5 1646,-19.5 1690,-19.5 1690,-0.5 1646,-0.5"/>
<text text-anchor="middle" x="1668" y="-7.5" font-family="Helvetica,sans-Serif" font-size="10.00">mutex</text>
</a>
</g>
</g>
<!-- Node4&#45;&gt;Node26 -->
<g id="edge25" class="edge">
<title>Node4&#45;&gt;Node26</title>
<path fill="none" stroke="midnightblue" d="M1070.21,-64.88C1184.77,-63.66 1425.12,-56.69 1635.77,-19.84"/>
<polygon fill="midnightblue" stroke="midnightblue" points="1636.55,-23.26 1645.78,-18.06 1635.32,-16.36 1636.55,-23.26"/>
</g>
<!-- Node27 -->
<g id="node27" class="node">
<title>Node27</title>
<g id="a_node27"><a xlink:title=" ">
<polygon fill="none" stroke="#bfbfbf" points="1708.5,-0.5 1708.5,-19.5 1751.5,-19.5 1751.5,-0.5 1708.5,-0.5"/>
<text text-anchor="middle" x="1730" y="-7.5" font-family="Helvetica,sans-Serif" font-size="10.00">queue</text>
</a>
</g>
</g>
<!-- Node4&#45;&gt;Node27 -->
<g id="edge26" class="edge">
<title>Node4&#45;&gt;Node27</title>
<path fill="none" stroke="midnightblue" d="M1070.28,-65.49C1193.4,-65.35 1463.12,-60.14 1698.35,-19.67"/>
<polygon fill="midnightblue" stroke="midnightblue" points="1699.21,-23.07 1708.46,-17.9 1698.01,-16.18 1699.21,-23.07"/>
</g>
<!-- Node28 -->
<g id="node28" class="node">
<title>Node28</title>
<g id="a_node28"><a xlink:title=" ">
<polygon fill="none" stroke="#bfbfbf" points="1769.5,-0.5 1769.5,-19.5 1804.5,-19.5 1804.5,-0.5 1769.5,-0.5"/>
<text text-anchor="middle" x="1787" y="-7.5" font-family="Helvetica,sans-Serif" font-size="10.00">map</text>
</a>
</g>
</g>
<!-- Node4&#45;&gt;Node28 -->
<g id="edge27" class="edge">
<title>Node4&#45;&gt;Node28</title>
<path fill="none" stroke="midnightblue" d="M1070.14,-63.37C1226.28,-59.2 1611.16,-46.7 1759.04,-19.81"/>
<polygon fill="midnightblue" stroke="midnightblue" points="1760.11,-23.17 1769.28,-17.85 1758.8,-16.3 1760.11,-23.17"/>
</g>
<!-- Node29&#45;&gt;Node3 -->
<g id="edge29" class="edge">
<title>Node29&#45;&gt;Node3</title>
<path fill="none" stroke="midnightblue" d="M694.84,-527.85C558.9,-522.69 264,-501.42 264,-414 264,-414 264,-414 264,-244 264,-167.15 511.88,-140.8 640.92,-132.28"/>
<polygon fill="midnightblue" stroke="midnightblue" points="641.37,-135.76 651.13,-131.63 640.93,-128.77 641.37,-135.76"/>
</g>
<!-- Node30 -->
<g id="node30" class="node">
<title>Node30</title>
<g id="a_node30"><a xlink:href="../../d5/d5b/a00695.html" target="_top" xlink:title=" ">
<polygon fill="none" stroke="black" points="361,-235.5 361,-254.5 501,-254.5 501,-235.5 361,-235.5"/>
<text text-anchor="middle" x="431" y="-242.5" font-family="Helvetica,sans-Serif" font-size="10.00">discordcoreapi/Demuxer.hpp</text>
</a>
</g>
</g>
<!-- Node29&#45;&gt;Node30 -->
<g id="edge30" class="edge">
<title>Node29&#45;&gt;Node30</title>
<path fill="none" stroke="midnightblue" d="M694.87,-527.9C617.24,-522.05 500,-499.13 500,-414 500,-414 500,-414 500,-356 500,-317.39 469.12,-281.21 448.67,-261.49"/>
<polygon fill="midnightblue" stroke="midnightblue" points="450.89,-258.77 441.18,-254.54 446.13,-263.9 450.89,-258.77"/>
</g>
<!-- Node31 -->
<g id="node31" class="node">
<title>Node31</title>
<g id="a_node31"><a xlink:href="../../d4/d6a/a00704.html" target="_top" xlink:title=" ">
<polygon fill="none" stroke="black" points="512,-179.5 512,-198.5 670,-198.5 670,-179.5 512,-179.5"/>
<text text-anchor="middle" x="591" y="-186.5" font-family="Helvetica,sans-Serif" font-size="10.00">discordcoreapi/EventEntities.hpp</text>
</a>
</g>
</g>
<!-- Node29&#45;&gt;Node31 -->
<g id="edge61" class="edge">
<title>Node29&#45;&gt;Node31</title>
<path fill="none" stroke="midnightblue" d="M712.85,-515.36C667.78,-499.02 608,-467.31 608,-414 608,-414 608,-414 608,-300 608,-267.58 600.7,-230.42 595.67,-208.64"/>
<polygon fill="midnightblue" stroke="midnightblue" points="599.03,-207.67 593.29,-198.77 592.23,-209.31 599.03,-207.67"/>
</g>
<!-- Node33 -->
<g id="node33" class="node">
<title>Node33</title>
<g id="a_node33"><a xlink:href="../../d1/d87/a00689.html" target="_top" xlink:title=" ">
<polygon fill="none" stroke="black" points="668.5,-459.5 668.5,-478.5 855.5,-478.5 855.5,-459.5 668.5,-459.5"/>
<text text-anchor="middle" x="762" y="-466.5" font-family="Helvetica,sans-Serif" font-size="10.00">discordcoreapi/CommandController.hpp</text>
</a>
</g>
</g>
<!-- Node29&#45;&gt;Node33 -->
<g id="edge36" class="edge">
<title>Node29&#45;&gt;Node33</title>
<path fill="none" stroke="midnightblue" d="M762,-515.4C762,-507.47 762,-497.46 762,-488.86"/>
<polygon fill="midnightblue" stroke="midnightblue" points="765.5,-488.66 762,-478.66 758.5,-488.66 765.5,-488.66"/>
</g>
<!-- Node35 -->
<g id="node35" class="node">
<title>Node35</title>
<g id="a_node35"><a xlink:href="../../d3/d4f/a00761.html" target="_top" xlink:title=" ">
<polygon fill="none" stroke="black" points="794,-347.5 794,-366.5 944,-366.5 944,-347.5 794,-347.5"/>
<text text-anchor="middle" x="869" y="-354.5" font-family="Helvetica,sans-Serif" font-size="10.00">discordcoreapi/ThreadPool.hpp</text>
</a>
</g>
</g>
<!-- Node29&#45;&gt;Node35 -->
<g id="edge63" class="edge">
<title>Node29&#45;&gt;Node35</title>
<path fill="none" stroke="midnightblue" d="M809.19,-515.46C828.57,-507.56 849.76,-495.81 864,-479 886.37,-452.59 885.5,-437.32 881,-403 879.84,-394.18 877.47,-384.63 875.13,-376.61"/>
<polygon fill="midnightblue" stroke="midnightblue" points="878.4,-375.34 872.09,-366.83 871.71,-377.42 878.4,-375.34"/>
</g>
<!-- Node37 -->
<g id="node37" class="node">
<title>Node37</title>
<g id="a_node37"><a xlink:href="../../d5/de8/a00749.html" target="_top" xlink:title=" ">
<polygon fill="none" stroke="black" points="1072,-235.5 1072,-254.5 1222,-254.5 1222,-235.5 1072,-235.5"/>
<text text-anchor="middle" x="1147" y="-242.5" font-family="Helvetica,sans-Serif" font-size="10.00">discordcoreapi/SSLClients.hpp</text>
</a>
</g>
</g>
<!-- Node29&#45;&gt;Node37 -->
<g id="edge62" class="edge">
<title>Node29&#45;&gt;Node37</title>
<path fill="none" stroke="midnightblue" d="M829.36,-519.66C925.08,-503.76 1089,-468.56 1089,-414 1089,-414 1089,-414 1089,-356 1089,-319.16 1114.77,-282.57 1131.95,-262.25"/>
<polygon fill="midnightblue" stroke="midnightblue" points="1134.71,-264.41 1138.69,-254.59 1129.46,-259.79 1134.71,-264.41"/>
</g>
<!-- Node51 -->
<g id="node51" class="node">
<title>Node51</title>
<g id="a_node51"><a xlink:href="../../dd/d57/a00701.html" target="_top" xlink:title=" ">
<polygon fill="none" stroke="black" points="1373,-403.5 1373,-422.5 1517,-422.5 1517,-403.5 1373,-403.5"/>
<text text-anchor="middle" x="1445" y="-410.5" font-family="Helvetica,sans-Serif" font-size="10.00">discordcoreapi/ErlPacker.hpp</text>
</a>
</g>
</g>
<!-- Node29&#45;&gt;Node51 -->
<g id="edge59" class="edge">
<title>Node29&#45;&gt;Node51</title>
<path fill="none" stroke="midnightblue" d="M829.1,-520.39C897.96,-510.84 1008.14,-495.03 1103,-479 1206.3,-461.54 1326.52,-437.92 1393.38,-424.49"/>
<polygon fill="midnightblue" stroke="midnightblue" points="1394.13,-427.91 1403.24,-422.51 1392.75,-421.05 1394.13,-427.91"/>
</g>
<!-- Node30&#45;&gt;Node3 -->
<g id="edge33" class="edge">
<title>Node30&#45;&gt;Node3</title>
<path fill="none" stroke="midnightblue" d="M408.61,-235.48C380.88,-223.71 339.56,-201.37 359,-179 394.8,-137.8 547.18,-129.27 641.22,-128.04"/>
<polygon fill="midnightblue" stroke="midnightblue" points="641.3,-131.54 651.26,-127.93 641.22,-124.54 641.3,-131.54"/>
</g>
<!-- Node30&#45;&gt;Node14 -->
<g id="edge34" class="edge">
<title>Node30&#45;&gt;Node14</title>
<path fill="none" stroke="midnightblue" d="M415.09,-235.35C398.69,-226.39 372.44,-211.93 350,-199 239.6,-135.41 109.39,-56.4 57.74,-24.9"/>
<polygon fill="midnightblue" stroke="midnightblue" points="59.4,-21.81 49.04,-19.59 55.75,-27.79 59.4,-21.81"/>
</g>
<!-- Node30&#45;&gt;Node31 -->
<g id="edge31" class="edge">
<title>Node30&#45;&gt;Node31</title>
<path fill="none" stroke="midnightblue" d="M456.35,-235.44C483.27,-226.36 526,-211.94 556.09,-201.78"/>
<polygon fill="midnightblue" stroke="midnightblue" points="557.41,-205.03 565.77,-198.52 555.17,-198.4 557.41,-205.03"/>
</g>
<!-- Node32 -->
<g id="node32" class="node">
<title>Node32</title>
<g id="a_node32"><a xlink:title=" ">
<polygon fill="none" stroke="#bfbfbf" points="368,-179.5 368,-198.5 494,-198.5 494,-179.5 368,-179.5"/>
<text text-anchor="middle" x="431" y="-186.5" font-family="Helvetica,sans-Serif" font-size="10.00">opus/opus_multistream.h</text>
</a>
</g>
</g>
<!-- Node30&#45;&gt;Node32 -->
<g id="edge35" class="edge">
<title>Node30&#45;&gt;Node32</title>
<path fill="none" stroke="midnightblue" d="M431,-235.08C431,-228.01 431,-217.86 431,-208.99"/>
<polygon fill="midnightblue" stroke="midnightblue" points="434.5,-208.75 431,-198.75 427.5,-208.75 434.5,-208.75"/>
</g>
<!-- Node31&#45;&gt;Node3 -->
<g id="edge32" class="edge">
<title>Node31&#45;&gt;Node3</title>
<path fill="none" stroke="midnightblue" d="M609.05,-179.48C626.99,-171 655.09,-157.74 678.11,-146.86"/>
<polygon fill="midnightblue" stroke="midnightblue" points="679.76,-149.96 687.3,-142.52 676.77,-143.63 679.76,-149.96"/>
</g>
<!-- Node33&#45;&gt;Node3 -->
<g id="edge37" class="edge">
<title>Node33&#45;&gt;Node3</title>
<path fill="none" stroke="midnightblue" d="M750.39,-459.23C740.2,-450.95 725.67,-437.64 717,-423 701.66,-397.11 698,-388.1 698,-358 698,-358 698,-358 698,-244 698,-212.07 705.16,-175.83 710.69,-152.59"/>
<polygon fill="midnightblue" stroke="midnightblue" points="714.15,-153.15 713.16,-142.6 707.36,-151.47 714.15,-153.15"/>
</g>
<!-- Node33&#45;&gt;Node34 -->
<g id="edge38" class="edge">
<title>Node33&#45;&gt;Node34</title>
<path fill="none" stroke="midnightblue" d="M768.11,-459.08C773.28,-451.53 780.85,-440.49 787.19,-431.23"/>
<polygon fill="midnightblue" stroke="midnightblue" points="790.24,-432.98 793,-422.75 784.46,-429.02 790.24,-432.98"/>
</g>
<!-- Node34&#45;&gt;Node3 -->
<g id="edge39" class="edge">
<title>Node34&#45;&gt;Node3</title>
<path fill="none" stroke="midnightblue" d="M789.7,-403.28C772.18,-385.85 736,-344.69 736,-302 736,-302 736,-302 736,-244 736,-212.07 728.84,-175.83 723.31,-152.59"/>
<polygon fill="midnightblue" stroke="midnightblue" points="726.64,-151.47 720.84,-142.6 719.85,-153.15 726.64,-151.47"/>
</g>
<!-- Node34&#45;&gt;Node35 -->
<g id="edge40" class="edge">
<title>Node34&#45;&gt;Node35</title>
<path fill="none" stroke="midnightblue" d="M810.25,-403.32C820.8,-395.18 836.8,-382.84 849.44,-373.09"/>
<polygon fill="midnightblue" stroke="midnightblue" points="851.77,-375.71 857.55,-366.83 847.49,-370.17 851.77,-375.71"/>
</g>
<!-- Node35&#45;&gt;Node3 -->
<g id="edge41" class="edge">
<title>Node35&#45;&gt;Node3</title>
<path fill="none" stroke="midnightblue" d="M861.27,-347.31C853.53,-338.44 841.43,-324.15 832,-311 791.76,-254.87 787.11,-237.24 750,-179 744.15,-169.82 737.61,-159.78 731.91,-151.08"/>
<polygon fill="midnightblue" stroke="midnightblue" points="734.75,-149.03 726.33,-142.59 728.9,-152.87 734.75,-149.03"/>
</g>
<!-- Node35&#45;&gt;Node36 -->
<g id="edge42" class="edge">
<title>Node35&#45;&gt;Node36</title>
<path fill="none" stroke="midnightblue" d="M889.44,-347.44C910.67,-338.56 944.1,-324.56 968.25,-314.45"/>
<polygon fill="midnightblue" stroke="midnightblue" points="969.78,-317.61 977.66,-310.52 967.08,-311.15 969.78,-317.61"/>
</g>
<!-- Node50 -->
<g id="node50" class="node">
<title>Node50</title>
<g id="a_node50"><a xlink:title=" ">
<polygon fill="none" stroke="#bfbfbf" points="841,-291.5 841,-310.5 897,-310.5 897,-291.5 841,-291.5"/>
<text text-anchor="middle" x="869" y="-298.5" font-family="Helvetica,sans-Serif" font-size="10.00">coroutine</text>
</a>
</g>
</g>
<!-- Node35&#45;&gt;Node50 -->
<g id="edge58" class="edge">
<title>Node35&#45;&gt;Node50</title>
<path fill="none" stroke="midnightblue" d="M869,-347.08C869,-340.01 869,-329.86 869,-320.99"/>
<polygon fill="midnightblue" stroke="midnightblue" points="872.5,-320.75 869,-310.75 865.5,-320.75 872.5,-320.75"/>
</g>
<!-- Node36&#45;&gt;Node37 -->
<g id="edge43" class="edge">
<title>Node36&#45;&gt;Node37</title>
<path fill="none" stroke="midnightblue" d="M1021.61,-291.44C1046.46,-282.44 1085.77,-268.19 1113.75,-258.05"/>
<polygon fill="midnightblue" stroke="midnightblue" points="1115.29,-261.21 1123.5,-254.52 1112.91,-254.63 1115.29,-261.21"/>
</g>
<!-- Node37&#45;&gt;Node3 -->
<g id="edge44" class="edge">
<title>Node37&#45;&gt;Node3</title>
<path fill="none" stroke="midnightblue" d="M1071.8,-241.94C1006.43,-238.15 910.06,-227.65 831,-199 798.36,-187.17 765.04,-165.19 742.93,-148.9"/>
<polygon fill="midnightblue" stroke="midnightblue" points="744.84,-145.96 734.74,-142.75 740.63,-151.55 744.84,-145.96"/>
</g>
<!-- Node37&#45;&gt;Node31 -->
<g id="edge45" class="edge">
<title>Node37&#45;&gt;Node31</title>
<path fill="none" stroke="midnightblue" d="M1071.73,-236.69C969.99,-226.81 788.87,-209.22 680.35,-198.68"/>
<polygon fill="midnightblue" stroke="midnightblue" points="680.37,-195.16 670.08,-197.68 679.7,-202.13 680.37,-195.16"/>
</g>
<!-- Node38 -->
<g id="node38" class="node">
<title>Node38</title>
<g id="a_node38"><a xlink:title=" ">
<polygon fill="none" stroke="#bfbfbf" points="840.5,-179.5 840.5,-198.5 913.5,-198.5 913.5,-179.5 840.5,-179.5"/>
<text text-anchor="middle" x="877" y="-186.5" font-family="Helvetica,sans-Serif" font-size="10.00">openssl/err.h</text>
</a>
</g>
</g>
<!-- Node37&#45;&gt;Node38 -->
<g id="edge46" class="edge">
<title>Node37&#45;&gt;Node38</title>
<path fill="none" stroke="midnightblue" d="M1104.22,-235.44C1054.97,-225.59 974.37,-209.47 923.57,-199.31"/>
<polygon fill="midnightblue" stroke="midnightblue" points="924.01,-195.83 913.52,-197.3 922.64,-202.7 924.01,-195.83"/>
</g>
<!-- Node39 -->
<g id="node39" class="node">
<title>Node39</title>
<g id="a_node39"><a xlink:title=" ">
<polygon fill="none" stroke="#bfbfbf" points="932,-179.5 932,-198.5 1006,-198.5 1006,-179.5 932,-179.5"/>
<text text-anchor="middle" x="969" y="-186.5" font-family="Helvetica,sans-Serif" font-size="10.00">openssl/ssl.h</text>
</a>
</g>
</g>
<!-- Node37&#45;&gt;Node39 -->
<g id="edge47" class="edge">
<title>Node37&#45;&gt;Node39</title>
<path fill="none" stroke="midnightblue" d="M1118.8,-235.44C1088.59,-226.28 1040.49,-211.69 1006.97,-201.52"/>
<polygon fill="midnightblue" stroke="midnightblue" points="1007.66,-198.07 997.07,-198.52 1005.63,-204.77 1007.66,-198.07"/>
</g>
<!-- Node40 -->
<g id="node40" class="node">
<title>Node40</title>
<g id="a_node40"><a xlink:title=" ">
<polygon fill="none" stroke="#bfbfbf" points="1024.5,-179.5 1024.5,-198.5 1067.5,-198.5 1067.5,-179.5 1024.5,-179.5"/>
<text text-anchor="middle" x="1046" y="-186.5" font-family="Helvetica,sans-Serif" font-size="10.00">fcntl.h</text>
</a>
</g>
</g>
<!-- Node37&#45;&gt;Node40 -->
<g id="edge48" class="edge">
<title>Node37&#45;&gt;Node40</title>
<path fill="none" stroke="midnightblue" d="M1130.77,-235.32C1114.65,-226.7 1089.7,-213.36 1071.04,-203.39"/>
<polygon fill="midnightblue" stroke="midnightblue" points="1072.66,-200.28 1062.19,-198.65 1069.36,-206.46 1072.66,-200.28"/>
</g>
<!-- Node41 -->
<g id="node41" class="node">
<title>Node41</title>
<g id="a_node41"><a xlink:title=" ">
<polygon fill="none" stroke="#bfbfbf" points="1085.5,-179.5 1085.5,-198.5 1134.5,-198.5 1134.5,-179.5 1085.5,-179.5"/>
<text text-anchor="middle" x="1110" y="-186.5" font-family="Helvetica,sans-Serif" font-size="10.00">netdb.h</text>
</a>
</g>
</g>
<!-- Node37&#45;&gt;Node41 -->
<g id="edge49" class="edge">
<title>Node37&#45;&gt;Node41</title>
<path fill="none" stroke="midnightblue" d="M1140.89,-235.08C1135.72,-227.53 1128.15,-216.49 1121.81,-207.23"/>
<polygon fill="midnightblue" stroke="midnightblue" points="1124.54,-205.02 1116,-198.75 1118.76,-208.98 1124.54,-205.02"/>
</g>
<!-- Node42 -->
<g id="node42" class="node">
<title>Node42</title>
<g id="a_node42"><a xlink:title=" ">
<polygon fill="none" stroke="#bfbfbf" points="1152.5,-179.5 1152.5,-198.5 1217.5,-198.5 1217.5,-179.5 1152.5,-179.5"/>
<text text-anchor="middle" x="1185" y="-186.5" font-family="Helvetica,sans-Serif" font-size="10.00">netinet/in.h</text>
</a>
</g>
</g>
<!-- Node37&#45;&gt;Node42 -->
<g id="edge50" class="edge">
<title>Node37&#45;&gt;Node42</title>
<path fill="none" stroke="midnightblue" d="M1153.27,-235.08C1158.64,-227.46 1166.52,-216.26 1173.08,-206.94"/>
<polygon fill="midnightblue" stroke="midnightblue" points="1175.95,-208.94 1178.84,-198.75 1170.22,-204.91 1175.95,-208.94"/>
</g>
<!-- Node43 -->
<g id="node43" class="node">
<title>Node43</title>
<g id="a_node43"><a xlink:title=" ">
<polygon fill="none" stroke="#bfbfbf" points="1235.5,-179.5 1235.5,-198.5 1306.5,-198.5 1306.5,-179.5 1235.5,-179.5"/>
<text text-anchor="middle" x="1271" y="-186.5" font-family="Helvetica,sans-Serif" font-size="10.00">netinet/tcp.h</text>
</a>
</g>
</g>
<!-- Node37&#45;&gt;Node43 -->
<g id="edge51" class="edge">
<title>Node37&#45;&gt;Node43</title>
<path fill="none" stroke="midnightblue" d="M1166.65,-235.44C1186.96,-226.6 1218.9,-212.69 1242.1,-202.59"/>
<polygon fill="midnightblue" stroke="midnightblue" points="1243.67,-205.72 1251.44,-198.52 1240.88,-199.3 1243.67,-205.72"/>
</g>
<!-- Node44 -->
<g id="node44" class="node">
<title>Node44</title>
<g id="a_node44"><a xlink:title=" ">
<polygon fill="none" stroke="#bfbfbf" points="1324.5,-179.5 1324.5,-198.5 1373.5,-198.5 1373.5,-179.5 1324.5,-179.5"/>
<text text-anchor="middle" x="1349" y="-186.5" font-family="Helvetica,sans-Serif" font-size="10.00">stdint.h</text>
</a>
</g>
</g>
<!-- Node37&#45;&gt;Node44 -->
<g id="edge52" class="edge">
<title>Node37&#45;&gt;Node44</title>
<path fill="none" stroke="midnightblue" d="M1179.41,-235.43C1211.45,-226.95 1262.13,-213.49 1314.67,-199.35"/>
<polygon fill="midnightblue" stroke="midnightblue" points="1315.75,-202.68 1324.5,-196.7 1313.93,-195.92 1315.75,-202.68"/>
</g>
<!-- Node45 -->
<g id="node45" class="node">
<title>Node45</title>
<g id="a_node45"><a xlink:title=" ">
<polygon fill="none" stroke="#bfbfbf" points="1392,-179.5 1392,-198.5 1456,-198.5 1456,-179.5 1392,-179.5"/>
<text text-anchor="middle" x="1424" y="-186.5" font-family="Helvetica,sans-Serif" font-size="10.00">sys/epoll.h</text>
</a>
</g>
</g>
<!-- Node37&#45;&gt;Node45 -->
<g id="edge53" class="edge">
<title>Node37&#45;&gt;Node45</title>
<path fill="none" stroke="midnightblue" d="M1193.64,-235.5C1239.17,-227.12 1310.64,-213.72 1381.76,-199.21"/>
<polygon fill="midnightblue" stroke="midnightblue" points="1382.69,-202.59 1391.79,-197.16 1381.29,-195.74 1382.69,-202.59"/>
</g>
<!-- Node46 -->
<g id="node46" class="node">
<title>Node46</title>
<g id="a_node46"><a xlink:title=" ">
<polygon fill="none" stroke="#bfbfbf" points="1474,-179.5 1474,-198.5 1536,-198.5 1536,-179.5 1474,-179.5"/>
<text text-anchor="middle" x="1505" y="-186.5" font-family="Helvetica,sans-Serif" font-size="10.00">arpa/inet.h</text>
</a>
</g>
</g>
<!-- Node37&#45;&gt;Node46 -->
<g id="edge54" class="edge">
<title>Node37&#45;&gt;Node46</title>
<path fill="none" stroke="midnightblue" d="M1219.26,-235.46C1281.55,-227.72 1374.1,-215.29 1463.56,-199.15"/>
<polygon fill="midnightblue" stroke="midnightblue" points="1464.4,-202.55 1473.61,-197.32 1463.14,-195.67 1464.4,-202.55"/>
</g>
<!-- Node47 -->
<g id="node47" class="node">
<title>Node47</title>
<g id="a_node47"><a xlink:title=" ">
<polygon fill="none" stroke="#bfbfbf" points="1554.5,-179.5 1554.5,-198.5 1627.5,-198.5 1627.5,-179.5 1554.5,-179.5"/>
<text text-anchor="middle" x="1591" y="-186.5" font-family="Helvetica,sans-Serif" font-size="10.00">sys/socket.h</text>
</a>
</g>
</g>
<!-- Node37&#45;&gt;Node47 -->
<g id="edge55" class="edge">
<title>Node37&#45;&gt;Node47</title>
<path fill="none" stroke="midnightblue" d="M1222.06,-237.33C1300.06,-229.99 1425.87,-217 1544.41,-198.97"/>
<polygon fill="midnightblue" stroke="midnightblue" points="1545.04,-202.42 1554.39,-197.44 1543.97,-195.5 1545.04,-202.42"/>
</g>
<!-- Node48 -->
<g id="node48" class="node">
<title>Node48</title>
<g id="a_node48"><a xlink:title=" ">
<polygon fill="none" stroke="#bfbfbf" points="1646,-179.5 1646,-198.5 1714,-198.5 1714,-179.5 1646,-179.5"/>
<text text-anchor="middle" x="1680" y="-186.5" font-family="Helvetica,sans-Serif" font-size="10.00">sys/types.h</text>
</a>
</g>
</g>
<!-- Node37&#45;&gt;Node48 -->
<g id="edge56" class="edge">
<title>Node37&#45;&gt;Node48</title>
<path fill="none" stroke="midnightblue" d="M1222.03,-239.79C1316.38,-233.9 1483.47,-221.48 1635.79,-199.02"/>
<polygon fill="midnightblue" stroke="midnightblue" points="1636.42,-202.47 1645.8,-197.53 1635.39,-195.54 1636.42,-202.47"/>
</g>
<!-- Node49 -->
<g id="node49" class="node">
<title>Node49</title>
<g id="a_node49"><a xlink:title=" ">
<polygon fill="none" stroke="#bfbfbf" points="1732.5,-179.5 1732.5,-198.5 1783.5,-198.5 1783.5,-179.5 1732.5,-179.5"/>
<text text-anchor="middle" x="1758" y="-186.5" font-family="Helvetica,sans-Serif" font-size="10.00">unistd.h</text>
</a>
</g>
</g>
<!-- Node37&#45;&gt;Node49 -->
<g id="edge57" class="edge">
<title>Node37&#45;&gt;Node49</title>
<path fill="none" stroke="midnightblue" d="M1222.06,-242.29C1330.55,-238.9 1537.46,-228.98 1722.58,-198.75"/>
<polygon fill="midnightblue" stroke="midnightblue" points="1723.2,-202.19 1732.5,-197.1 1722.06,-195.29 1723.2,-202.19"/>
</g>
<!-- Node51&#45;&gt;Node3 -->
<g id="edge60" class="edge">
<title>Node51&#45;&gt;Node3</title>
<path fill="none" stroke="midnightblue" d="M1517.07,-405.16C1623.95,-393 1812,-362.95 1812,-302 1812,-302 1812,-302 1812,-244 1812,-213.9 1816.65,-197.61 1793,-179 1753.79,-148.15 1031.91,-133.64 793.04,-129.66"/>
<polygon fill="midnightblue" stroke="midnightblue" points="792.77,-126.16 782.71,-129.49 792.65,-133.16 792.77,-126.16"/>
</g>
</g>
</svg>
