<?xml version="1.0" encoding="UTF-8" standalone="no"?>
<!DOCTYPE svg PUBLIC "-//W3C//DTD SVG 1.1//EN"
 "http://www.w3.org/Graphics/SVG/1.1/DTD/svg11.dtd">
<!-- Generated by graphviz version 3.0.0 (20220226.1711)
 -->
<!-- Title: AutoModerationEntities.hpp Pages: 1 -->
<svg width="1435pt" height="252pt"
 viewBox="0.00 0.00 1434.50 252.00" xmlns="http://www.w3.org/2000/svg" xmlns:xlink="http://www.w3.org/1999/xlink">
<g id="graph0" class="graph" transform="scale(1 1) rotate(0) translate(4 248)">
<title>AutoModerationEntities.hpp</title>
<!-- Node1 -->
<g id="node1" class="node">
<title>Node1</title>
<g id="a_node1"><a xlink:title=" ">
<polygon fill="#bfbfbf" stroke="black" points="218,-224.5 218,-243.5 355,-243.5 355,-224.5 218,-224.5"/>
<text text-anchor="middle" x="286.5" y="-231.5" font-family="Helvetica,sans-Serif" font-size="10.00">AutoModerationEntities.hpp</text>
</a>
</g>
</g>
<!-- Node2 -->
<g id="node2" class="node">
<title>Node2</title>
<g id="a_node2"><a xlink:href="../../d4/d45/a00791.html" target="_top" xlink:title=" ">
<polygon fill="none" stroke="black" points="0,-168.5 0,-187.5 137,-187.5 137,-168.5 0,-168.5"/>
<text text-anchor="middle" x="68.5" y="-175.5" font-family="Helvetica,sans-Serif" font-size="10.00">AutoModerationEntities.cpp</text>
</a>
</g>
</g>
<!-- Node1&#45;&gt;Node2 -->
<g id="edge1" class="edge">
<title>Node1&#45;&gt;Node2</title>
<path fill="none" stroke="midnightblue" d="M242.19,-222.02C201.01,-211.82 140.53,-196.84 102.88,-187.52"/>
<polygon fill="midnightblue" stroke="midnightblue" points="241.41,-225.44 251.96,-224.44 243.09,-218.64 241.41,-225.44"/>
</g>
<!-- Node3 -->
<g id="node3" class="node">
<title>Node3</title>
<g id="a_node3"><a xlink:href="../../d5/d72/a00803.html" target="_top" xlink:title=" ">
<polygon fill="none" stroke="black" points="155,-168.5 155,-187.5 286,-187.5 286,-168.5 155,-168.5"/>
<text text-anchor="middle" x="220.5" y="-175.5" font-family="Helvetica,sans-Serif" font-size="10.00">DataParsingFunctions.cpp</text>
</a>
</g>
</g>
<!-- Node1&#45;&gt;Node3 -->
<g id="edge2" class="edge">
<title>Node1&#45;&gt;Node3</title>
<path fill="none" stroke="midnightblue" d="M267.95,-217.82C256.12,-208.15 241.21,-195.95 231.3,-187.83"/>
<polygon fill="midnightblue" stroke="midnightblue" points="265.94,-220.7 275.9,-224.32 270.37,-215.28 265.94,-220.7"/>
</g>
<!-- Node4 -->
<g id="node4" class="node">
<title>Node4</title>
<g id="a_node4"><a xlink:href="../../df/dbb/a00698.html" target="_top" xlink:title=" ">
<polygon fill="none" stroke="black" points="567,-112.5 567,-131.5 680,-131.5 680,-112.5 567,-112.5"/>
<text text-anchor="middle" x="623.5" y="-119.5" font-family="Helvetica,sans-Serif" font-size="10.00">DiscordCoreClient.hpp</text>
</a>
</g>
</g>
<!-- Node1&#45;&gt;Node4 -->
<g id="edge3" class="edge">
<title>Node1&#45;&gt;Node4</title>
<path fill="none" stroke="midnightblue" d="M322.52,-221.24C390.72,-198.98 537.19,-151.17 597.12,-131.61"/>
<polygon fill="midnightblue" stroke="midnightblue" points="321.08,-218.03 312.66,-224.46 323.26,-224.68 321.08,-218.03"/>
</g>
<!-- Node18 -->
<g id="node18" class="node">
<title>Node18</title>
<g id="a_node18"><a xlink:href="../../d1/d56/a00707.html" target="_top" xlink:title=" ">
<polygon fill="none" stroke="black" points="304,-168.5 304,-187.5 401,-187.5 401,-168.5 304,-168.5"/>
<text text-anchor="middle" x="352.5" y="-175.5" font-family="Helvetica,sans-Serif" font-size="10.00">EventManager.hpp</text>
</a>
</g>
</g>
<!-- Node1&#45;&gt;Node18 -->
<g id="edge17" class="edge">
<title>Node1&#45;&gt;Node18</title>
<path fill="none" stroke="midnightblue" d="M305.05,-217.82C316.88,-208.15 331.79,-195.95 341.7,-187.83"/>
<polygon fill="midnightblue" stroke="midnightblue" points="302.63,-215.28 297.1,-224.32 307.06,-220.7 302.63,-215.28"/>
</g>
<!-- Node5 -->
<g id="node5" class="node">
<title>Node5</title>
<g id="a_node5"><a xlink:href="../../da/d96/a00782.html" target="_top" xlink:title=" ">
<polygon fill="none" stroke="black" points="745,-56.5 745,-75.5 906,-75.5 906,-56.5 745,-56.5"/>
<text text-anchor="middle" x="825.5" y="-63.5" font-family="Helvetica,sans-Serif" font-size="10.00">ApplicationCommandEntities.cpp</text>
</a>
</g>
</g>
<!-- Node4&#45;&gt;Node5 -->
<g id="edge4" class="edge">
<title>Node4&#45;&gt;Node5</title>
<path fill="none" stroke="midnightblue" d="M665.29,-109.83C703.43,-99.63 758.98,-84.78 793.64,-75.52"/>
<polygon fill="midnightblue" stroke="midnightblue" points="664.26,-106.48 655.51,-112.44 666.07,-113.24 664.26,-106.48"/>
</g>
<!-- Node6 -->
<g id="node6" class="node">
<title>Node6</title>
<g id="a_node6"><a xlink:href="../../d0/dad/a00806.html" target="_top" xlink:title=" ">
<polygon fill="none" stroke="black" points="924,-56.5 924,-75.5 1037,-75.5 1037,-56.5 924,-56.5"/>
<text text-anchor="middle" x="980.5" y="-63.5" font-family="Helvetica,sans-Serif" font-size="10.00">DiscordCoreClient.cpp</text>
</a>
</g>
</g>
<!-- Node4&#45;&gt;Node6 -->
<g id="edge5" class="edge">
<title>Node4&#45;&gt;Node6</title>
<path fill="none" stroke="midnightblue" d="M690.16,-110.92C757.61,-100.71 860.72,-85.12 924.2,-75.52"/>
<polygon fill="midnightblue" stroke="midnightblue" points="689.43,-107.49 680.07,-112.44 690.48,-114.41 689.43,-107.49"/>
</g>
<!-- Node7 -->
<g id="node7" class="node">
<title>Node7</title>
<g id="a_node7"><a xlink:href="../../d8/d2d/a00815.html" target="_top" xlink:title=" ">
<polygon fill="none" stroke="black" points="181,-56.5 181,-75.5 278,-75.5 278,-56.5 181,-56.5"/>
<text text-anchor="middle" x="229.5" y="-63.5" font-family="Helvetica,sans-Serif" font-size="10.00">EventManager.cpp</text>
</a>
</g>
</g>
<!-- Node4&#45;&gt;Node7 -->
<g id="edge6" class="edge">
<title>Node4&#45;&gt;Node7</title>
<path fill="none" stroke="midnightblue" d="M556.85,-112.49C489.02,-103.73 380.86,-89.49 287.5,-76 284.47,-75.56 281.36,-75.1 278.22,-74.64"/>
<polygon fill="midnightblue" stroke="midnightblue" points="556.61,-115.99 566.97,-113.79 557.5,-109.04 556.61,-115.99"/>
</g>
<!-- Node8 -->
<g id="node8" class="node">
<title>Node8</title>
<g id="a_node8"><a xlink:href="../../d6/d8b/a00821.html" target="_top" xlink:title=" ">
<polygon fill="none" stroke="black" points="1055,-56.5 1055,-75.5 1146,-75.5 1146,-56.5 1055,-56.5"/>
<text text-anchor="middle" x="1100.5" y="-63.5" font-family="Helvetica,sans-Serif" font-size="10.00">GuildEntities.cpp</text>
</a>
</g>
</g>
<!-- Node4&#45;&gt;Node8 -->
<g id="edge7" class="edge">
<title>Node4&#45;&gt;Node8</title>
<path fill="none" stroke="midnightblue" d="M690.18,-115.14C773.65,-107.51 920.94,-93.13 1046.5,-76 1049.23,-75.63 1052.04,-75.22 1054.86,-74.8"/>
<polygon fill="midnightblue" stroke="midnightblue" points="689.72,-111.66 680.08,-116.05 690.35,-118.63 689.72,-111.66"/>
</g>
<!-- Node9 -->
<g id="node9" class="node">
<title>Node9</title>
<g id="a_node9"><a xlink:href="../../d9/daf/a00830.html" target="_top" xlink:title=" ">
<polygon fill="none" stroke="black" points="1164,-56.5 1164,-75.5 1223,-75.5 1223,-56.5 1164,-56.5"/>
<text text-anchor="middle" x="1193.5" y="-63.5" font-family="Helvetica,sans-Serif" font-size="10.00">Https.cpp</text>
</a>
</g>
</g>
<!-- Node4&#45;&gt;Node9 -->
<g id="edge8" class="edge">
<title>Node4&#45;&gt;Node9</title>
<path fill="none" stroke="midnightblue" d="M690.21,-118.53C791.36,-114.07 989.36,-102.55 1155.5,-76 1158.18,-75.57 1160.95,-75.06 1163.71,-74.5"/>
<polygon fill="midnightblue" stroke="midnightblue" points="689.97,-115.04 680.13,-118.97 690.27,-122.03 689.97,-115.04"/>
</g>
<!-- Node10 -->
<g id="node10" class="node">
<title>Node10</title>
<g id="a_node10"><a xlink:href="../../d8/db9/a00725.html" target="_top" xlink:title=" ">
<polygon fill="none" stroke="black" points="1241,-56.5 1241,-75.5 1300,-75.5 1300,-56.5 1241,-56.5"/>
<text text-anchor="middle" x="1270.5" y="-63.5" font-family="Helvetica,sans-Serif" font-size="10.00">Index.hpp</text>
</a>
</g>
</g>
<!-- Node4&#45;&gt;Node10 -->
<g id="edge9" class="edge">
<title>Node4&#45;&gt;Node10</title>
<path fill="none" stroke="midnightblue" d="M690.27,-119.53C802.75,-116.28 1036.91,-106.19 1232.5,-76 1235.18,-75.59 1237.95,-75.08 1240.72,-74.53"/>
<polygon fill="midnightblue" stroke="midnightblue" points="689.99,-116.04 680.09,-119.81 690.19,-123.03 689.99,-116.04"/>
</g>
<!-- Node12 -->
<g id="node12" class="node">
<title>Node12</title>
<g id="a_node12"><a xlink:href="../../df/de8/a00839.html" target="_top" xlink:title=" ">
<polygon fill="none" stroke="black" points="1318.5,-56.5 1318.5,-75.5 1426.5,-75.5 1426.5,-56.5 1318.5,-56.5"/>
<text text-anchor="middle" x="1372.5" y="-63.5" font-family="Helvetica,sans-Serif" font-size="10.00">MessageEntities.cpp</text>
</a>
</g>
</g>
<!-- Node4&#45;&gt;Node12 -->
<g id="edge11" class="edge">
<title>Node4&#45;&gt;Node12</title>
<path fill="none" stroke="midnightblue" d="M690.09,-118.32C812.82,-113.02 1082.9,-99.58 1309.5,-76 1312.36,-75.7 1315.28,-75.37 1318.24,-75.02"/>
<polygon fill="midnightblue" stroke="midnightblue" points="689.93,-114.83 680.09,-118.75 690.23,-121.82 689.93,-114.83"/>
</g>
<!-- Node13 -->
<g id="node13" class="node">
<title>Node13</title>
<g id="a_node13"><a xlink:href="../../d9/d30/a00848.html" target="_top" xlink:title=" ">
<polygon fill="none" stroke="black" points="296.5,-56.5 296.5,-75.5 370.5,-75.5 370.5,-56.5 296.5,-56.5"/>
<text text-anchor="middle" x="333.5" y="-63.5" font-family="Helvetica,sans-Serif" font-size="10.00">SongAPI.cpp</text>
</a>
</g>
</g>
<!-- Node4&#45;&gt;Node13 -->
<g id="edge12" class="edge">
<title>Node4&#45;&gt;Node13</title>
<path fill="none" stroke="midnightblue" d="M566.37,-110.64C516.9,-101.63 443.44,-88.15 379.5,-76 376.62,-75.45 373.64,-74.88 370.65,-74.3"/>
<polygon fill="midnightblue" stroke="midnightblue" points="565.77,-114.09 576.24,-112.44 567.03,-107.21 565.77,-114.09"/>
</g>
<!-- Node14 -->
<g id="node14" class="node">
<title>Node14</title>
<g id="a_node14"><a xlink:href="../../df/d4c/a00851.html" target="_top" xlink:title=" ">
<polygon fill="none" stroke="black" points="388.5,-56.5 388.5,-75.5 492.5,-75.5 492.5,-56.5 388.5,-56.5"/>
<text text-anchor="middle" x="440.5" y="-63.5" font-family="Helvetica,sans-Serif" font-size="10.00">SoundCloudAPI.cpp</text>
</a>
</g>
</g>
<!-- Node4&#45;&gt;Node14 -->
<g id="edge13" class="edge">
<title>Node4&#45;&gt;Node14</title>
<path fill="none" stroke="midnightblue" d="M584.76,-109.57C550.24,-99.38 500.49,-84.7 469.36,-75.52"/>
<polygon fill="midnightblue" stroke="midnightblue" points="583.92,-112.97 594.5,-112.44 585.9,-106.26 583.92,-112.97"/>
</g>
<!-- Node15 -->
<g id="node15" class="node">
<title>Node15</title>
<g id="a_node15"><a xlink:href="../../d1/d93/a00875.html" target="_top" xlink:title=" ">
<polygon fill="none" stroke="black" points="511,-56.5 511,-75.5 620,-75.5 620,-56.5 511,-56.5"/>
<text text-anchor="middle" x="565.5" y="-63.5" font-family="Helvetica,sans-Serif" font-size="10.00">VoiceConnection.cpp</text>
</a>
</g>
</g>
<!-- Node4&#45;&gt;Node15 -->
<g id="edge14" class="edge">
<title>Node4&#45;&gt;Node15</title>
<path fill="none" stroke="midnightblue" d="M606.59,-105.25C596.3,-95.67 583.53,-83.79 574.99,-75.83"/>
<polygon fill="midnightblue" stroke="midnightblue" points="604.48,-108.07 614.18,-112.32 609.25,-102.95 604.48,-108.07"/>
</g>
<!-- Node16 -->
<g id="node16" class="node">
<title>Node16</title>
<g id="a_node16"><a xlink:href="../../df/d41/a00881.html" target="_top" xlink:title=" ">
<polygon fill="none" stroke="black" points="44,-56.5 44,-75.5 163,-75.5 163,-56.5 44,-56.5"/>
<text text-anchor="middle" x="103.5" y="-63.5" font-family="Helvetica,sans-Serif" font-size="10.00">WebSocketEntities.cpp</text>
</a>
</g>
</g>
<!-- Node4&#45;&gt;Node16 -->
<g id="edge15" class="edge">
<title>Node4&#45;&gt;Node16</title>
<path fill="none" stroke="midnightblue" d="M556.72,-114.97C468.62,-106.88 308.79,-91.68 172.5,-76 169.5,-75.65 166.43,-75.29 163.33,-74.92"/>
<polygon fill="midnightblue" stroke="midnightblue" points="556.56,-118.47 566.84,-115.9 557.2,-111.5 556.56,-118.47"/>
</g>
<!-- Node17 -->
<g id="node17" class="node">
<title>Node17</title>
<g id="a_node17"><a xlink:href="../../dd/d08/a00884.html" target="_top" xlink:title=" ">
<polygon fill="none" stroke="black" points="638,-56.5 638,-75.5 727,-75.5 727,-56.5 638,-56.5"/>
<text text-anchor="middle" x="682.5" y="-63.5" font-family="Helvetica,sans-Serif" font-size="10.00">YouTubeAPI.cpp</text>
</a>
</g>
</g>
<!-- Node4&#45;&gt;Node17 -->
<g id="edge16" class="edge">
<title>Node4&#45;&gt;Node17</title>
<path fill="none" stroke="midnightblue" d="M640.39,-105.54C650.91,-95.91 664.07,-83.87 672.85,-75.83"/>
<polygon fill="midnightblue" stroke="midnightblue" points="637.99,-102.99 632.98,-112.32 642.72,-108.15 637.99,-102.99"/>
</g>
<!-- Node11 -->
<g id="node11" class="node">
<title>Node11</title>
<g id="a_node11"><a xlink:href="../../dd/d7e/a00809.html" target="_top" xlink:title=" ">
<polygon fill="none" stroke="black" points="1236.5,-0.5 1236.5,-19.5 1304.5,-19.5 1304.5,-0.5 1236.5,-0.5"/>
<text text-anchor="middle" x="1270.5" y="-7.5" font-family="Helvetica,sans-Serif" font-size="10.00">DllMain.cpp</text>
</a>
</g>
</g>
<!-- Node10&#45;&gt;Node11 -->
<g id="edge10" class="edge">
<title>Node10&#45;&gt;Node11</title>
<path fill="none" stroke="midnightblue" d="M1270.5,-45.8C1270.5,-36.91 1270.5,-26.78 1270.5,-19.75"/>
<polygon fill="midnightblue" stroke="midnightblue" points="1267,-46.08 1270.5,-56.08 1274,-46.08 1267,-46.08"/>
</g>
<!-- Node18&#45;&gt;Node4 -->
<g id="edge18" class="edge">
<title>Node18&#45;&gt;Node4</title>
<path fill="none" stroke="midnightblue" d="M405.33,-166.47C456.54,-156.27 533.27,-140.98 580.76,-131.52"/>
<polygon fill="midnightblue" stroke="midnightblue" points="404.56,-163.06 395.44,-168.44 405.93,-169.92 404.56,-163.06"/>
</g>
<!-- Node18&#45;&gt;Node7 -->
<g id="edge19" class="edge">
<title>Node18&#45;&gt;Node7</title>
<path fill="none" stroke="midnightblue" d="M335.18,-161.51C308.9,-138.01 259.81,-94.11 239.11,-75.59"/>
<polygon fill="midnightblue" stroke="midnightblue" points="333.06,-164.31 342.85,-168.37 337.73,-159.09 333.06,-164.31"/>
</g>
<!-- Node18&#45;&gt;Node16 -->
<g id="edge20" class="edge">
<title>Node18&#45;&gt;Node16</title>
<path fill="none" stroke="midnightblue" d="M323.76,-164.3C272.5,-141.66 166.59,-94.87 122.95,-75.59"/>
<polygon fill="midnightblue" stroke="midnightblue" points="322.4,-167.53 332.96,-168.37 325.23,-161.13 322.4,-167.53"/>
</g>
</g>
</svg>
