<?xml version="1.0" encoding="UTF-8" standalone="no"?>
<!DOCTYPE svg PUBLIC "-//W3C//DTD SVG 1.1//EN"
 "http://www.w3.org/Graphics/SVG/1.1/DTD/svg11.dtd">
<!-- Generated by graphviz version 2.43.0 (0)
 -->
<!-- Title: InteractionEntities.hpp Pages: 1 -->
<svg width="1487pt" height="247pt"
 viewBox="0.00 0.00 1486.50 247.00" xmlns="http://www.w3.org/2000/svg" xmlns:xlink="http://www.w3.org/1999/xlink">
<g id="graph0" class="graph" transform="scale(1 1) rotate(0) translate(4 243)">
<title>InteractionEntities.hpp</title>
<!-- Node1 -->
<g id="node1" class="node">
<title>Node1</title>
<g id="a_node1"><a xlink:title=" ">
<polygon fill="#bfbfbf" stroke="black" points="979,-239 852,-239 852,-220 979,-220 979,-239"/>
<text text-anchor="middle" x="915.5" y="-227" font-family="Helvetica,sans-Serif" font-size="10.00">InteractionEntities.hpp</text>
</a>
</g>
</g>
<!-- Node2 -->
<g id="node2" class="node">
<title>Node2</title>
<g id="a_node2"><a xlink:href="../../d8/db7/a00812.html" target="_top" xlink:title=" ">
<polygon fill="none" stroke="black" points="668.5,-129 526.5,-129 526.5,-110 668.5,-110 668.5,-129"/>
<text text-anchor="middle" x="597.5" y="-117" font-family="Helvetica,sans-Serif" font-size="10.00">DataParsingFunctions.cpp</text>
</a>
</g>
</g>
<!-- Node1&#45;&gt;Node2 -->
<g id="edge1" class="edge">
<title>Node1&#45;&gt;Node2</title>
<path fill="none" stroke="midnightblue" d="M880.55,-216.63C815.93,-194.68 679.2,-148.25 622.72,-129.07"/>
<polygon fill="midnightblue" stroke="midnightblue" points="879.69,-220.03 890.28,-219.94 881.94,-213.41 879.69,-220.03"/>
</g>
<!-- Node3 -->
<g id="node3" class="node">
<title>Node3</title>
<g id="a_node3"><a xlink:href="../../db/d7c/a00722.html" target="_top" xlink:title=" ">
<polygon fill="none" stroke="black" points="812,-129 687,-129 687,-110 812,-110 812,-129"/>
<text text-anchor="middle" x="749.5" y="-117" font-family="Helvetica,sans-Serif" font-size="10.00">DiscordCoreClient.hpp</text>
</a>
</g>
</g>
<!-- Node1&#45;&gt;Node3 -->
<g id="edge2" class="edge">
<title>Node1&#45;&gt;Node3</title>
<path fill="none" stroke="midnightblue" d="M883.22,-216.15C864.23,-208.23 840.17,-197 820.5,-184 795.39,-167.41 770.1,-142.31 757.57,-129.19"/>
<polygon fill="midnightblue" stroke="midnightblue" points="882.06,-219.46 892.64,-219.99 884.7,-212.98 882.06,-219.46"/>
</g>
<!-- Node17 -->
<g id="node17" class="node">
<title>Node17</title>
<g id="a_node17"><a xlink:href="../../d5/d72/a00803.html" target="_top" xlink:title=" ">
<polygon fill="none" stroke="black" points="1071.5,-129 943.5,-129 943.5,-110 1071.5,-110 1071.5,-129"/>
<text text-anchor="middle" x="1007.5" y="-117" font-family="Helvetica,sans-Serif" font-size="10.00">FoundationEntities.cpp</text>
</a>
</g>
</g>
<!-- Node1&#45;&gt;Node17 -->
<g id="edge16" class="edge">
<title>Node1&#45;&gt;Node17</title>
<path fill="none" stroke="midnightblue" d="M929.56,-212C949.37,-188.73 984.82,-147.13 1000.12,-129.16"/>
<polygon fill="midnightblue" stroke="midnightblue" points="926.85,-209.78 923.03,-219.66 932.18,-214.32 926.85,-209.78"/>
</g>
<!-- Node18 -->
<g id="node18" class="node">
<title>Node18</title>
<g id="a_node18"><a xlink:href="../../d4/deb/a00710.html" target="_top" xlink:title=" ">
<polygon fill="none" stroke="black" points="925,-184 830,-184 830,-165 925,-165 925,-184"/>
<text text-anchor="middle" x="877.5" y="-172" font-family="Helvetica,sans-Serif" font-size="10.00">InputEvents.hpp</text>
</a>
</g>
</g>
<!-- Node1&#45;&gt;Node18 -->
<g id="edge17" class="edge">
<title>Node1&#45;&gt;Node18</title>
<path fill="none" stroke="midnightblue" d="M903.23,-211.39C896.69,-202.27 888.93,-191.45 883.66,-184.09"/>
<polygon fill="midnightblue" stroke="midnightblue" points="900.55,-213.66 909.23,-219.75 906.24,-209.58 900.55,-213.66"/>
</g>
<!-- Node20 -->
<g id="node20" class="node">
<title>Node20</title>
<g id="a_node20"><a xlink:href="../../d5/d69/a00878.html" target="_top" xlink:title=" ">
<polygon fill="none" stroke="black" points="1165,-129 1090,-129 1090,-110 1165,-110 1165,-129"/>
<text text-anchor="middle" x="1127.5" y="-117" font-family="Helvetica,sans-Serif" font-size="10.00">Utilities.cpp</text>
</a>
</g>
</g>
<!-- Node1&#45;&gt;Node20 -->
<g id="edge24" class="edge">
<title>Node1&#45;&gt;Node20</title>
<path fill="none" stroke="midnightblue" d="M934.93,-213.61C953.58,-199.77 982.93,-179.23 1010.5,-165 1039.86,-149.85 1075.6,-137.01 1099.79,-129.07"/>
<polygon fill="midnightblue" stroke="midnightblue" points="932.57,-211 926.68,-219.8 936.78,-216.59 932.57,-211"/>
</g>
<!-- Node21 -->
<g id="node21" class="node">
<title>Node21</title>
<g id="a_node21"><a xlink:href="../../df/d0e/a00800.html" target="_top" xlink:title=" ">
<polygon fill="none" stroke="black" points="1145.5,-184 1019.5,-184 1019.5,-165 1145.5,-165 1145.5,-184"/>
<text text-anchor="middle" x="1082.5" y="-172" font-family="Helvetica,sans-Serif" font-size="10.00">InteractionEntities.cpp</text>
</a>
</g>
</g>
<!-- Node1&#45;&gt;Node21 -->
<g id="edge23" class="edge">
<title>Node1&#45;&gt;Node21</title>
<path fill="none" stroke="midnightblue" d="M951.96,-216.93C983.16,-207.03 1027.34,-193.01 1055.46,-184.08"/>
<polygon fill="midnightblue" stroke="midnightblue" points="950.8,-213.62 942.33,-219.98 952.92,-220.3 950.8,-213.62"/>
</g>
<!-- Node4 -->
<g id="node4" class="node">
<title>Node4</title>
<g id="a_node4"><a xlink:href="../../d3/db2/a00869.html" target="_top" xlink:title=" ">
<polygon fill="none" stroke="black" points="179,-74 0,-74 0,-55 179,-55 179,-74"/>
<text text-anchor="middle" x="89.5" y="-62" font-family="Helvetica,sans-Serif" font-size="10.00">ApplicationCommandEntities.cpp</text>
</a>
</g>
</g>
<!-- Node3&#45;&gt;Node4 -->
<g id="edge3" class="edge">
<title>Node3&#45;&gt;Node4</title>
<path fill="none" stroke="midnightblue" d="M676.52,-109.95C458.43,-89.26 401.87,-91.17 187.5,-74 184.78,-73.78 182.01,-73.56 179.22,-73.33"/>
<polygon fill="midnightblue" stroke="midnightblue" points="676.4,-113.45 686.69,-110.92 677.07,-106.49 676.4,-113.45"/>
</g>
<!-- Node5 -->
<g id="node5" class="node">
<title>Node5</title>
<g id="a_node5"><a xlink:href="../../d8/d1c/a00824.html" target="_top" xlink:title=" ">
<polygon fill="none" stroke="black" points="322,-74 197,-74 197,-55 322,-55 322,-74"/>
<text text-anchor="middle" x="259.5" y="-62" font-family="Helvetica,sans-Serif" font-size="10.00">DiscordCoreClient.cpp</text>
</a>
</g>
</g>
<!-- Node3&#45;&gt;Node5 -->
<g id="edge4" class="edge">
<title>Node3&#45;&gt;Node5</title>
<path fill="none" stroke="midnightblue" d="M676.32,-109.89C521.67,-92.83 481.28,-90.85 330.5,-74 327.79,-73.7 325.01,-73.38 322.21,-73.06"/>
<polygon fill="midnightblue" stroke="midnightblue" points="676.35,-113.41 686.68,-111.03 677.12,-106.45 676.35,-113.41"/>
</g>
<!-- Node6 -->
<g id="node6" class="node">
<title>Node6</title>
<g id="a_node6"><a xlink:href="../../dd/d7e/a00809.html" target="_top" xlink:title=" ">
<polygon fill="none" stroke="black" points="447,-74 340,-74 340,-55 447,-55 447,-74"/>
<text text-anchor="middle" x="393.5" y="-62" font-family="Helvetica,sans-Serif" font-size="10.00">EventManager.cpp</text>
</a>
</g>
</g>
<!-- Node3&#45;&gt;Node6 -->
<g id="edge5" class="edge">
<title>Node3&#45;&gt;Node6</title>
<path fill="none" stroke="midnightblue" d="M682.09,-108.46C613.9,-98.31 509.83,-82.82 447.06,-73.47"/>
<polygon fill="midnightblue" stroke="midnightblue" points="681.9,-111.97 692.3,-109.98 682.93,-105.05 681.9,-111.97"/>
</g>
<!-- Node7 -->
<g id="node7" class="node">
<title>Node7</title>
<g id="a_node7"><a xlink:href="../../d7/d49/a00863.html" target="_top" xlink:title=" ">
<polygon fill="none" stroke="black" points="564,-74 465,-74 465,-55 564,-55 564,-74"/>
<text text-anchor="middle" x="514.5" y="-62" font-family="Helvetica,sans-Serif" font-size="10.00">GuildEntities.cpp</text>
</a>
</g>
</g>
<!-- Node3&#45;&gt;Node7 -->
<g id="edge6" class="edge">
<title>Node3&#45;&gt;Node7</title>
<path fill="none" stroke="midnightblue" d="M701.85,-107.75C657.81,-97.82 593.23,-83.26 552.55,-74.08"/>
<polygon fill="midnightblue" stroke="midnightblue" points="701.22,-111.2 711.74,-109.98 702.76,-104.37 701.22,-111.2"/>
</g>
<!-- Node8 -->
<g id="node8" class="node">
<title>Node8</title>
<g id="a_node8"><a xlink:href="../../d3/d00/a00785.html" target="_top" xlink:title=" ">
<polygon fill="none" stroke="black" points="645,-74 582,-74 582,-55 645,-55 645,-74"/>
<text text-anchor="middle" x="613.5" y="-62" font-family="Helvetica,sans-Serif" font-size="10.00">Https.cpp</text>
</a>
</g>
</g>
<!-- Node3&#45;&gt;Node8 -->
<g id="edge7" class="edge">
<title>Node3&#45;&gt;Node8</title>
<path fill="none" stroke="midnightblue" d="M718.17,-106.29C692.96,-96.47 658.17,-82.91 635.75,-74.17"/>
<polygon fill="midnightblue" stroke="midnightblue" points="717.06,-109.61 727.65,-109.98 719.6,-103.09 717.06,-109.61"/>
</g>
<!-- Node9 -->
<g id="node9" class="node">
<title>Node9</title>
<g id="a_node9"><a xlink:href="../../d2/d4a/a00758.html" target="_top" xlink:title=" ">
<polygon fill="none" stroke="black" points="728,-74 663,-74 663,-55 728,-55 728,-74"/>
<text text-anchor="middle" x="695.5" y="-62" font-family="Helvetica,sans-Serif" font-size="10.00">Index.hpp</text>
</a>
</g>
</g>
<!-- Node3&#45;&gt;Node9 -->
<g id="edge8" class="edge">
<title>Node3&#45;&gt;Node9</title>
<path fill="none" stroke="midnightblue" d="M733.22,-102.52C723.7,-93.18 712.06,-81.75 704.25,-74.09"/>
<polygon fill="midnightblue" stroke="midnightblue" points="730.99,-105.24 740.58,-109.75 735.9,-100.25 730.99,-105.24"/>
</g>
<!-- Node11 -->
<g id="node11" class="node">
<title>Node11</title>
<g id="a_node11"><a xlink:href="../../d4/d45/a00791.html" target="_top" xlink:title=" ">
<polygon fill="none" stroke="black" points="863,-74 746,-74 746,-55 863,-55 863,-74"/>
<text text-anchor="middle" x="804.5" y="-62" font-family="Helvetica,sans-Serif" font-size="10.00">MessageEntities.cpp</text>
</a>
</g>
</g>
<!-- Node3&#45;&gt;Node11 -->
<g id="edge10" class="edge">
<title>Node3&#45;&gt;Node11</title>
<path fill="none" stroke="midnightblue" d="M765.79,-102.8C775.54,-93.41 787.55,-81.83 795.59,-74.09"/>
<polygon fill="midnightblue" stroke="midnightblue" points="763.35,-100.29 758.58,-109.75 768.21,-105.33 763.35,-100.29"/>
</g>
<!-- Node12 -->
<g id="node12" class="node">
<title>Node12</title>
<g id="a_node12"><a xlink:href="../../df/d0c/a00788.html" target="_top" xlink:title=" ">
<polygon fill="none" stroke="black" points="958,-74 881,-74 881,-55 958,-55 958,-74"/>
<text text-anchor="middle" x="919.5" y="-62" font-family="Helvetica,sans-Serif" font-size="10.00">SongAPI.cpp</text>
</a>
</g>
</g>
<!-- Node3&#45;&gt;Node12 -->
<g id="edge11" class="edge">
<title>Node3&#45;&gt;Node12</title>
<path fill="none" stroke="midnightblue" d="M786.62,-106.93C818.37,-97.03 863.35,-83.01 891.97,-74.08"/>
<polygon fill="midnightblue" stroke="midnightblue" points="785.32,-103.67 776.81,-109.98 787.4,-110.35 785.32,-103.67"/>
</g>
<!-- Node13 -->
<g id="node13" class="node">
<title>Node13</title>
<g id="a_node13"><a xlink:href="../../d7/dcf/a00845.html" target="_top" xlink:title=" ">
<polygon fill="none" stroke="black" points="1086.5,-74 976.5,-74 976.5,-55 1086.5,-55 1086.5,-74"/>
<text text-anchor="middle" x="1031.5" y="-62" font-family="Helvetica,sans-Serif" font-size="10.00">SoundCloudAPI.cpp</text>
</a>
</g>
</g>
<!-- Node3&#45;&gt;Node13 -->
<g id="edge12" class="edge">
<title>Node3&#45;&gt;Node13</title>
<path fill="none" stroke="midnightblue" d="M804.69,-108.13C857.56,-98.19 936.4,-83.37 985.84,-74.08"/>
<polygon fill="midnightblue" stroke="midnightblue" points="803.99,-104.7 794.81,-109.98 805.28,-111.58 803.99,-104.7"/>
</g>
<!-- Node14 -->
<g id="node14" class="node">
<title>Node14</title>
<g id="a_node14"><a xlink:href="../../d2/d5e/a00860.html" target="_top" xlink:title=" ">
<polygon fill="none" stroke="black" points="1222.5,-74 1104.5,-74 1104.5,-55 1222.5,-55 1222.5,-74"/>
<text text-anchor="middle" x="1163.5" y="-62" font-family="Helvetica,sans-Serif" font-size="10.00">VoiceConnection.cpp</text>
</a>
</g>
</g>
<!-- Node3&#45;&gt;Node14 -->
<g id="edge13" class="edge">
<title>Node3&#45;&gt;Node14</title>
<path fill="none" stroke="midnightblue" d="M822.41,-109.17C902.66,-98.89 1030.12,-82.58 1104.4,-73.07"/>
<polygon fill="midnightblue" stroke="midnightblue" points="821.85,-105.71 812.38,-110.45 822.74,-112.65 821.85,-105.71"/>
</g>
<!-- Node15 -->
<g id="node15" class="node">
<title>Node15</title>
<g id="a_node15"><a xlink:href="../../d0/d11/a00842.html" target="_top" xlink:title=" ">
<polygon fill="none" stroke="black" points="1368,-74 1241,-74 1241,-55 1368,-55 1368,-74"/>
<text text-anchor="middle" x="1304.5" y="-62" font-family="Helvetica,sans-Serif" font-size="10.00">WebSocketEntities.cpp</text>
</a>
</g>
</g>
<!-- Node3&#45;&gt;Node15 -->
<g id="edge14" class="edge">
<title>Node3&#45;&gt;Node15</title>
<path fill="none" stroke="midnightblue" d="M822.4,-109.83C1004.6,-91.15 1052.38,-92.27 1231.5,-74 1234.55,-73.69 1237.66,-73.36 1240.81,-73.02"/>
<polygon fill="midnightblue" stroke="midnightblue" points="821.8,-106.38 812.21,-110.88 822.51,-113.34 821.8,-106.38"/>
</g>
<!-- Node16 -->
<g id="node16" class="node">
<title>Node16</title>
<g id="a_node16"><a xlink:href="../../dc/d1b/a00827.html" target="_top" xlink:title=" ">
<polygon fill="none" stroke="black" points="1478.5,-74 1386.5,-74 1386.5,-55 1478.5,-55 1478.5,-74"/>
<text text-anchor="middle" x="1432.5" y="-62" font-family="Helvetica,sans-Serif" font-size="10.00">YouTubeAPI.cpp</text>
</a>
</g>
</g>
<!-- Node3&#45;&gt;Node16 -->
<g id="edge15" class="edge">
<title>Node3&#45;&gt;Node16</title>
<path fill="none" stroke="midnightblue" d="M822.2,-109.89C1069.23,-87.6 1134.15,-100.62 1377.5,-74 1380.38,-73.68 1383.34,-73.33 1386.33,-72.94"/>
<polygon fill="midnightblue" stroke="midnightblue" points="821.84,-106.41 812.2,-110.81 822.48,-113.38 821.84,-106.41"/>
</g>
<!-- Node10 -->
<g id="node10" class="node">
<title>Node10</title>
<g id="a_node10"><a xlink:href="../../d1/d93/a00875.html" target="_top" xlink:title=" ">
<polygon fill="none" stroke="black" points="732.5,-19 658.5,-19 658.5,0 732.5,0 732.5,-19"/>
<text text-anchor="middle" x="695.5" y="-7" font-family="Helvetica,sans-Serif" font-size="10.00">DllMain.cpp</text>
</a>
</g>
</g>
<!-- Node9&#45;&gt;Node10 -->
<g id="edge9" class="edge">
<title>Node9&#45;&gt;Node10</title>
<path fill="none" stroke="midnightblue" d="M695.5,-44.66C695.5,-35.93 695.5,-25.99 695.5,-19.09"/>
<polygon fill="midnightblue" stroke="midnightblue" points="692,-44.75 695.5,-54.75 699,-44.75 692,-44.75"/>
</g>
<!-- Node18&#45;&gt;Node2 -->
<g id="edge18" class="edge">
<title>Node18&#45;&gt;Node2</title>
<path fill="none" stroke="midnightblue" d="M822.37,-163.07C769.88,-153.13 691.82,-138.35 642.84,-129.08"/>
<polygon fill="midnightblue" stroke="midnightblue" points="822.04,-166.56 832.51,-164.98 823.34,-159.69 822.04,-166.56"/>
</g>
<!-- Node18&#45;&gt;Node3 -->
<g id="edge19" class="edge">
<title>Node18&#45;&gt;Node3</title>
<path fill="none" stroke="midnightblue" d="M847.38,-161.03C823.71,-151.23 791.35,-137.83 770.44,-129.17"/>
<polygon fill="midnightblue" stroke="midnightblue" points="846.36,-164.39 856.93,-164.98 849.03,-157.93 846.36,-164.39"/>
</g>
<!-- Node18&#45;&gt;Node17 -->
<g id="edge20" class="edge">
<title>Node18&#45;&gt;Node17</title>
<path fill="none" stroke="midnightblue" d="M907.77,-161.16C931.84,-151.35 964.9,-137.87 986.23,-129.17"/>
<polygon fill="midnightblue" stroke="midnightblue" points="906.33,-157.97 898.39,-164.98 908.97,-164.45 906.33,-157.97"/>
</g>
<!-- Node19 -->
<g id="node19" class="node">
<title>Node19</title>
<g id="a_node19"><a xlink:href="../../dd/db2/a00866.html" target="_top" xlink:title=" ">
<polygon fill="none" stroke="black" points="925,-129 830,-129 830,-110 925,-110 925,-129"/>
<text text-anchor="middle" x="877.5" y="-117" font-family="Helvetica,sans-Serif" font-size="10.00">InputEvents.cpp</text>
</a>
</g>
</g>
<!-- Node18&#45;&gt;Node19 -->
<g id="edge21" class="edge">
<title>Node18&#45;&gt;Node19</title>
<path fill="none" stroke="midnightblue" d="M877.5,-154.66C877.5,-145.93 877.5,-135.99 877.5,-129.09"/>
<polygon fill="midnightblue" stroke="midnightblue" points="874,-154.75 877.5,-164.75 881,-154.75 874,-154.75"/>
</g>
<!-- Node18&#45;&gt;Node20 -->
<g id="edge22" class="edge">
<title>Node18&#45;&gt;Node20</title>
<path fill="none" stroke="midnightblue" d="M927.52,-162.9C975.42,-152.74 1046.63,-137.65 1089.89,-128.47"/>
<polygon fill="midnightblue" stroke="midnightblue" points="926.72,-159.49 917.67,-164.98 928.18,-166.33 926.72,-159.49"/>
</g>
</g>
</svg>
