<?xml version="1.0" encoding="UTF-8" standalone="no"?>
<!DOCTYPE svg PUBLIC "-//W3C//DTD SVG 1.1//EN"
 "http://www.w3.org/Graphics/SVG/1.1/DTD/svg11.dtd">
<!-- Generated by graphviz version 2.43.0 (0)
 -->
<!-- Title: DiscordCoreAPI::Message Pages: 1 -->
<svg width="189pt" height="192pt"
 viewBox="0.00 0.00 189.00 192.00" xmlns="http://www.w3.org/2000/svg" xmlns:xlink="http://www.w3.org/1999/xlink">
<g id="graph0" class="graph" transform="scale(1 1) rotate(0) translate(4 188)">
<title>DiscordCoreAPI::Message</title>
<!-- Node1 -->
<g id="node1" class="node">
<title>Node1</title>
<g id="a_node1"><a xlink:title="A single Message.">
<polygon fill="#bfbfbf" stroke="black" points="161,-19 20,-19 20,0 161,0 161,-19"/>
<text text-anchor="middle" x="90.5" y="-7" font-family="Helvetica,sans-Serif" font-size="10.00">DiscordCoreAPI::Message</text>
</a>
</g>
</g>
<!-- Node2 -->
<g id="node2" class="node">
<title>Node2</title>
<g id="a_node2"><a xlink:href="../../db/d8f/a02721.html" target="_top" xlink:title="Data structure representing a single Message.">
<polygon fill="none" stroke="black" points="172.5,-74 8.5,-74 8.5,-55 172.5,-55 172.5,-74"/>
<text text-anchor="middle" x="90.5" y="-62" font-family="Helvetica,sans-Serif" font-size="10.00">DiscordCoreAPI::MessageData</text>
</a>
</g>
</g>
<!-- Node2&#45;&gt;Node1 -->
<g id="edge1" class="edge">
<title>Node2&#45;&gt;Node1</title>
<path fill="none" stroke="midnightblue" d="M90.5,-44.66C90.5,-35.93 90.5,-25.99 90.5,-19.09"/>
<polygon fill="midnightblue" stroke="midnightblue" points="87,-44.75 90.5,-54.75 94,-44.75 87,-44.75"/>
</g>
<!-- Node3 -->
<g id="node3" class="node">
<title>Node3</title>
<g id="a_node3"><a xlink:href="../../d0/df8/a02717.html" target="_top" xlink:title="The core of a Message&#39;s data structure.">
<polygon fill="none" stroke="black" points="181,-129 0,-129 0,-110 181,-110 181,-129"/>
<text text-anchor="middle" x="90.5" y="-117" font-family="Helvetica,sans-Serif" font-size="10.00">DiscordCoreAPI::MessageDataOld</text>
</a>
</g>
</g>
<!-- Node3&#45;&gt;Node2 -->
<g id="edge2" class="edge">
<title>Node3&#45;&gt;Node2</title>
<path fill="none" stroke="midnightblue" d="M90.5,-99.66C90.5,-90.93 90.5,-80.99 90.5,-74.09"/>
<polygon fill="midnightblue" stroke="midnightblue" points="87,-99.75 90.5,-109.75 94,-99.75 87,-99.75"/>
</g>
<!-- Node4 -->
<g id="node4" class="node">
<title>Node4</title>
<g id="a_node4"><a xlink:href="../../df/d4d/a02285.html" target="_top" xlink:title="Base class for all Discord entities.">
<polygon fill="none" stroke="black" points="172,-184 9,-184 9,-165 172,-165 172,-184"/>
<text text-anchor="middle" x="90.5" y="-172" font-family="Helvetica,sans-Serif" font-size="10.00">DiscordCoreAPI::DiscordEntity</text>
</a>
</g>
</g>
<!-- Node4&#45;&gt;Node3 -->
<g id="edge3" class="edge">
<title>Node4&#45;&gt;Node3</title>
<path fill="none" stroke="midnightblue" d="M90.5,-154.66C90.5,-145.93 90.5,-135.99 90.5,-129.09"/>
<polygon fill="midnightblue" stroke="midnightblue" points="87,-154.75 90.5,-164.75 94,-154.75 87,-154.75"/>
</g>
</g>
</svg>
