<?xml version="1.0" encoding="UTF-8" standalone="no"?>
<!DOCTYPE svg PUBLIC "-//W3C//DTD SVG 1.1//EN"
 "http://www.w3.org/Graphics/SVG/1.1/DTD/svg11.dtd">
<!-- Generated by graphviz version 2.43.0 (0)
 -->
<!-- Title: ReactionEntities.hpp Pages: 1 -->
<svg width="2460pt" height="666pt"
 viewBox="0.00 0.00 2460.20 666.00" xmlns="http://www.w3.org/2000/svg" xmlns:xlink="http://www.w3.org/1999/xlink">
<g id="graph0" class="graph" transform="scale(1 1) rotate(0) translate(4 662)">
<title>ReactionEntities.hpp</title>
<!-- Node1 -->
<g id="node1" class="node">
<title>Node1</title>
<g id="a_node1"><a xlink:title=" ">
<polygon fill="#bfbfbf" stroke="black" points="632.7,-638.5 632.7,-657.5 749.7,-657.5 749.7,-638.5 632.7,-638.5"/>
<text text-anchor="middle" x="691.2" y="-645.5" font-family="Helvetica,sans-Serif" font-size="10.00">ReactionEntities.hpp</text>
</a>
</g>
</g>
<!-- Node2 -->
<g id="node2" class="node">
<title>Node2</title>
<g id="a_node2"><a xlink:href="../../d4/deb/a00710.html" target="_top" xlink:title=" ">
<polygon fill="none" stroke="black" points="1605.7,-112.5 1605.7,-142.5 1750.7,-142.5 1750.7,-112.5 1605.7,-112.5"/>
<text text-anchor="start" x="1613.7" y="-130.5" font-family="Helvetica,sans-Serif" font-size="10.00">discordcoreapi/Foundation</text>
<text text-anchor="middle" x="1678.2" y="-119.5" font-family="Helvetica,sans-Serif" font-size="10.00">Entities.hpp</text>
</a>
</g>
</g>
<!-- Node1&#45;&gt;Node2 -->
<g id="edge1" class="edge">
<title>Node1&#45;&gt;Node2</title>
<path fill="none" stroke="midnightblue" d="M632.67,-643.35C466.06,-632.18 1.2,-595.3 1.2,-531.5 1.2,-531.5 1.2,-531.5 1.2,-244 1.2,-213.9 -3.6,-197.42 20.2,-179 83,-130.42 1268.12,-128.06 1595.21,-128.34"/>
<polygon fill="midnightblue" stroke="midnightblue" points="1595.55,-131.84 1605.56,-128.35 1595.56,-124.84 1595.55,-131.84"/>
</g>
<!-- Node27 -->
<g id="node27" class="node">
<title>Node27</title>
<g id="a_node27"><a xlink:href="../../d3/d2c/a00764.html" target="_top" xlink:title=" ">
<polygon fill="none" stroke="black" points="1317.7,-582.5 1317.7,-601.5 1488.7,-601.5 1488.7,-582.5 1317.7,-582.5"/>
<text text-anchor="middle" x="1403.2" y="-589.5" font-family="Helvetica,sans-Serif" font-size="10.00">discordcoreapi/UserEntities.hpp</text>
</a>
</g>
</g>
<!-- Node1&#45;&gt;Node27 -->
<g id="edge26" class="edge">
<title>Node1&#45;&gt;Node27</title>
<path fill="none" stroke="midnightblue" d="M749.77,-642.56C872.52,-633.25 1157.77,-611.61 1307.51,-600.26"/>
<polygon fill="midnightblue" stroke="midnightblue" points="1307.91,-603.74 1317.61,-599.49 1307.38,-596.76 1307.91,-603.74"/>
</g>
<!-- Node3 -->
<g id="node3" class="node">
<title>Node3</title>
<g id="a_node3"><a xlink:href="../../d5/dae/a00767.html" target="_top" xlink:title=" ">
<polygon fill="none" stroke="black" points="1603.2,-56.5 1603.2,-75.5 1753.2,-75.5 1753.2,-56.5 1603.2,-56.5"/>
<text text-anchor="middle" x="1678.2" y="-63.5" font-family="Helvetica,sans-Serif" font-size="10.00">discordcoreapi/Utilities.hpp</text>
</a>
</g>
</g>
<!-- Node2&#45;&gt;Node3 -->
<g id="edge2" class="edge">
<title>Node2&#45;&gt;Node3</title>
<path fill="none" stroke="midnightblue" d="M1678.2,-112.4C1678.2,-104.47 1678.2,-94.46 1678.2,-85.86"/>
<polygon fill="midnightblue" stroke="midnightblue" points="1681.7,-85.66 1678.2,-75.66 1674.7,-85.66 1681.7,-85.66"/>
</g>
<!-- Node4 -->
<g id="node4" class="node">
<title>Node4</title>
<g id="a_node4"><a xlink:title=" ">
<polygon fill="none" stroke="#bfbfbf" points="598.7,-0.5 598.7,-19.5 661.7,-19.5 661.7,-0.5 598.7,-0.5"/>
<text text-anchor="middle" x="630.2" y="-7.5" font-family="Helvetica,sans-Serif" font-size="10.00">pthread.h</text>
</a>
</g>
</g>
<!-- Node3&#45;&gt;Node4 -->
<g id="edge3" class="edge">
<title>Node3&#45;&gt;Node4</title>
<path fill="none" stroke="midnightblue" d="M1602.85,-63.31C1404.45,-58.59 869.91,-44.11 671.91,-19.8"/>
<polygon fill="midnightblue" stroke="midnightblue" points="672.25,-16.31 661.89,-18.52 671.37,-23.26 672.25,-16.31"/>
</g>
<!-- Node5 -->
<g id="node5" class="node">
<title>Node5</title>
<g id="a_node5"><a xlink:title=" ">
<polygon fill="none" stroke="#bfbfbf" points="680.2,-0.5 680.2,-19.5 748.2,-19.5 748.2,-0.5 680.2,-0.5"/>
<text text-anchor="middle" x="714.2" y="-7.5" font-family="Helvetica,sans-Serif" font-size="10.00">sys/time.h</text>
</a>
</g>
</g>
<!-- Node3&#45;&gt;Node5 -->
<g id="edge4" class="edge">
<title>Node3&#45;&gt;Node5</title>
<path fill="none" stroke="midnightblue" d="M1602.94,-65.32C1447.04,-65.13 1077.47,-60.16 758.75,-19.98"/>
<polygon fill="midnightblue" stroke="midnightblue" points="758.75,-16.45 748.39,-18.66 757.86,-23.4 758.75,-16.45"/>
</g>
<!-- Node6 -->
<g id="node6" class="node">
<title>Node6</title>
<g id="a_node6"><a xlink:title=" ">
<polygon fill="none" stroke="#bfbfbf" points="766.2,-0.5 766.2,-19.5 814.2,-19.5 814.2,-0.5 766.2,-0.5"/>
<text text-anchor="middle" x="790.2" y="-7.5" font-family="Helvetica,sans-Serif" font-size="10.00">time.h</text>
</a>
</g>
</g>
<!-- Node3&#45;&gt;Node6 -->
<g id="edge5" class="edge">
<title>Node3&#45;&gt;Node6</title>
<path fill="none" stroke="midnightblue" d="M1602.92,-63.1C1426.75,-58.33 990.63,-44.55 824.31,-19.76"/>
<polygon fill="midnightblue" stroke="midnightblue" points="824.64,-16.27 814.22,-18.19 823.56,-23.19 824.64,-16.27"/>
</g>
<!-- Node7 -->
<g id="node7" class="node">
<title>Node7</title>
<g id="a_node7"><a xlink:title=" ">
<polygon fill="none" stroke="#bfbfbf" points="832.2,-0.5 832.2,-19.5 876.2,-19.5 876.2,-0.5 832.2,-0.5"/>
<text text-anchor="middle" x="854.2" y="-7.5" font-family="Helvetica,sans-Serif" font-size="10.00">ctime</text>
</a>
</g>
</g>
<!-- Node3&#45;&gt;Node7 -->
<g id="edge6" class="edge">
<title>Node3&#45;&gt;Node7</title>
<path fill="none" stroke="midnightblue" d="M1603.03,-62.9C1436.58,-57.91 1040.14,-44.04 886.6,-19.79"/>
<polygon fill="midnightblue" stroke="midnightblue" points="886.85,-16.28 876.41,-18.1 885.71,-23.19 886.85,-16.28"/>
</g>
<!-- Node8 -->
<g id="node8" class="node">
<title>Node8</title>
<g id="a_node8"><a xlink:title=" ">
<polygon fill="none" stroke="#bfbfbf" points="894.7,-0.5 894.7,-19.5 1001.7,-19.5 1001.7,-0.5 894.7,-0.5"/>
<text text-anchor="middle" x="948.2" y="-7.5" font-family="Helvetica,sans-Serif" font-size="10.00">condition_variable</text>
</a>
</g>
</g>
<!-- Node3&#45;&gt;Node8 -->
<g id="edge7" class="edge">
<title>Node3&#45;&gt;Node8</title>
<path fill="none" stroke="midnightblue" d="M1603.02,-61.76C1481.22,-56.1 1232.98,-42.89 1011.96,-19.99"/>
<polygon fill="midnightblue" stroke="midnightblue" points="1012.09,-16.49 1001.78,-18.93 1011.37,-23.45 1012.09,-16.49"/>
</g>
<!-- Node9 -->
<g id="node9" class="node">
<title>Node9</title>
<g id="a_node9"><a xlink:title=" ">
<polygon fill="none" stroke="#bfbfbf" points="1020.2,-0.5 1020.2,-19.5 1130.2,-19.5 1130.2,-0.5 1020.2,-0.5"/>
<text text-anchor="middle" x="1075.2" y="-7.5" font-family="Helvetica,sans-Serif" font-size="10.00">nlohmann/json.hpp</text>
</a>
</g>
</g>
<!-- Node3&#45;&gt;Node9 -->
<g id="edge8" class="edge">
<title>Node3&#45;&gt;Node9</title>
<path fill="none" stroke="midnightblue" d="M1603.08,-60.07C1500.8,-53.06 1311.75,-39.04 1140.3,-20.06"/>
<polygon fill="midnightblue" stroke="midnightblue" points="1140.66,-16.58 1130.33,-18.95 1139.89,-23.54 1140.66,-16.58"/>
</g>
<!-- Node10 -->
<g id="node10" class="node">
<title>Node10</title>
<g id="a_node10"><a xlink:title=" ">
<polygon fill="none" stroke="#bfbfbf" points="1148.7,-0.5 1148.7,-19.5 1241.7,-19.5 1241.7,-0.5 1148.7,-0.5"/>
<text text-anchor="middle" x="1195.2" y="-7.5" font-family="Helvetica,sans-Serif" font-size="10.00">source_location</text>
</a>
</g>
</g>
<!-- Node3&#45;&gt;Node10 -->
<g id="edge9" class="edge">
<title>Node3&#45;&gt;Node10</title>
<path fill="none" stroke="midnightblue" d="M1603.05,-58.42C1519.63,-50.81 1380.77,-37.27 1252.02,-20.18"/>
<polygon fill="midnightblue" stroke="midnightblue" points="1252.36,-16.7 1241.98,-18.84 1251.43,-23.64 1252.36,-16.7"/>
</g>
<!-- Node11 -->
<g id="node11" class="node">
<title>Node11</title>
<g id="a_node11"><a xlink:title=" ">
<polygon fill="none" stroke="#bfbfbf" points="1259.7,-0.5 1259.7,-19.5 1352.7,-19.5 1352.7,-0.5 1259.7,-0.5"/>
<text text-anchor="middle" x="1306.2" y="-7.5" font-family="Helvetica,sans-Serif" font-size="10.00">unordered_map</text>
</a>
</g>
</g>
<!-- Node3&#45;&gt;Node11 -->
<g id="edge10" class="edge">
<title>Node3&#45;&gt;Node11</title>
<path fill="none" stroke="midnightblue" d="M1616.09,-56.49C1554.52,-47.98 1457.21,-34.32 1362.94,-20.09"/>
<polygon fill="midnightblue" stroke="midnightblue" points="1363.35,-16.61 1352.94,-18.58 1362.31,-23.53 1363.35,-16.61"/>
</g>
<!-- Node12 -->
<g id="node12" class="node">
<title>Node12</title>
<g id="a_node12"><a xlink:title=" ">
<polygon fill="none" stroke="#bfbfbf" points="1371.2,-0.5 1371.2,-19.5 1457.2,-19.5 1457.2,-0.5 1371.2,-0.5"/>
<text text-anchor="middle" x="1414.2" y="-7.5" font-family="Helvetica,sans-Serif" font-size="10.00">shared_mutex</text>
</a>
</g>
</g>
<!-- Node3&#45;&gt;Node12 -->
<g id="edge11" class="edge">
<title>Node3&#45;&gt;Node12</title>
<path fill="none" stroke="midnightblue" d="M1636.37,-56.44C1590.12,-46.98 1515.59,-31.74 1465.77,-21.55"/>
<polygon fill="midnightblue" stroke="midnightblue" points="1466.34,-18.09 1455.84,-19.52 1464.93,-24.95 1466.34,-18.09"/>
</g>
<!-- Node13 -->
<g id="node13" class="node">
<title>Node13</title>
<g id="a_node13"><a xlink:title=" ">
<polygon fill="none" stroke="#bfbfbf" points="1475.7,-0.5 1475.7,-19.5 1540.7,-19.5 1540.7,-0.5 1475.7,-0.5"/>
<text text-anchor="middle" x="1508.2" y="-7.5" font-family="Helvetica,sans-Serif" font-size="10.00">functional</text>
</a>
</g>
</g>
<!-- Node3&#45;&gt;Node13 -->
<g id="edge12" class="edge">
<title>Node3&#45;&gt;Node13</title>
<path fill="none" stroke="midnightblue" d="M1651.26,-56.44C1622.54,-47.32 1576.87,-32.81 1544.88,-22.65"/>
<polygon fill="midnightblue" stroke="midnightblue" points="1545.6,-19.21 1535.01,-19.52 1543.48,-25.88 1545.6,-19.21"/>
</g>
<!-- Node14 -->
<g id="node14" class="node">
<title>Node14</title>
<g id="a_node14"><a xlink:title=" ">
<polygon fill="none" stroke="#bfbfbf" points="1558.7,-0.5 1558.7,-19.5 1629.7,-19.5 1629.7,-0.5 1558.7,-0.5"/>
<text text-anchor="middle" x="1594.2" y="-7.5" font-family="Helvetica,sans-Serif" font-size="10.00">semaphore</text>
</a>
</g>
</g>
<!-- Node3&#45;&gt;Node14 -->
<g id="edge13" class="edge">
<title>Node3&#45;&gt;Node14</title>
<path fill="none" stroke="midnightblue" d="M1664.71,-56.32C1651.6,-47.9 1631.49,-34.97 1616.09,-25.07"/>
<polygon fill="midnightblue" stroke="midnightblue" points="1617.97,-22.12 1607.66,-19.65 1614.18,-28.01 1617.97,-22.12"/>
</g>
<!-- Node15 -->
<g id="node15" class="node">
<title>Node15</title>
<g id="a_node15"><a xlink:title=" ">
<polygon fill="none" stroke="#bfbfbf" points="1648.2,-0.5 1648.2,-19.5 1708.2,-19.5 1708.2,-0.5 1648.2,-0.5"/>
<text text-anchor="middle" x="1678.2" y="-7.5" font-family="Helvetica,sans-Serif" font-size="10.00">concepts</text>
</a>
</g>
</g>
<!-- Node3&#45;&gt;Node15 -->
<g id="edge14" class="edge">
<title>Node3&#45;&gt;Node15</title>
<path fill="none" stroke="midnightblue" d="M1678.2,-56.08C1678.2,-49.01 1678.2,-38.86 1678.2,-29.99"/>
<polygon fill="midnightblue" stroke="midnightblue" points="1681.7,-29.75 1678.2,-19.75 1674.7,-29.75 1681.7,-29.75"/>
</g>
<!-- Node16 -->
<g id="node16" class="node">
<title>Node16</title>
<g id="a_node16"><a xlink:title=" ">
<polygon fill="none" stroke="#bfbfbf" points="1726.2,-0.5 1726.2,-19.5 1786.2,-19.5 1786.2,-0.5 1726.2,-0.5"/>
<text text-anchor="middle" x="1756.2" y="-7.5" font-family="Helvetica,sans-Serif" font-size="10.00">iostream</text>
</a>
</g>
</g>
<!-- Node3&#45;&gt;Node16 -->
<g id="edge15" class="edge">
<title>Node3&#45;&gt;Node16</title>
<path fill="none" stroke="midnightblue" d="M1690.73,-56.32C1702.79,-47.98 1721.23,-35.21 1735.47,-25.35"/>
<polygon fill="midnightblue" stroke="midnightblue" points="1737.47,-28.22 1743.7,-19.65 1733.49,-22.47 1737.47,-28.22"/>
</g>
<!-- Node17 -->
<g id="node17" class="node">
<title>Node17</title>
<g id="a_node17"><a xlink:title=" ">
<polygon fill="none" stroke="#bfbfbf" points="1804.7,-0.5 1804.7,-19.5 1859.7,-19.5 1859.7,-0.5 1804.7,-0.5"/>
<text text-anchor="middle" x="1832.2" y="-7.5" font-family="Helvetica,sans-Serif" font-size="10.00">fstream</text>
</a>
</g>
</g>
<!-- Node3&#45;&gt;Node17 -->
<g id="edge16" class="edge">
<title>Node3&#45;&gt;Node17</title>
<path fill="none" stroke="midnightblue" d="M1702.6,-56.44C1728.4,-47.4 1769.28,-33.06 1798.22,-22.92"/>
<polygon fill="midnightblue" stroke="midnightblue" points="1799.64,-26.13 1807.91,-19.52 1797.32,-19.52 1799.64,-26.13"/>
</g>
<!-- Node18 -->
<g id="node18" class="node">
<title>Node18</title>
<g id="a_node18"><a xlink:title=" ">
<polygon fill="none" stroke="#bfbfbf" points="1878.2,-0.5 1878.2,-19.5 1922.2,-19.5 1922.2,-0.5 1878.2,-0.5"/>
<text text-anchor="middle" x="1900.2" y="-7.5" font-family="Helvetica,sans-Serif" font-size="10.00">bitset</text>
</a>
</g>
</g>
<!-- Node3&#45;&gt;Node18 -->
<g id="edge17" class="edge">
<title>Node3&#45;&gt;Node18</title>
<path fill="none" stroke="midnightblue" d="M1716.17,-56.5C1754.6,-47.77 1815.7,-33.6 1868.2,-20 1868.3,-19.97 1868.4,-19.95 1868.51,-19.92"/>
<polygon fill="midnightblue" stroke="midnightblue" points="1869.45,-23.29 1878.2,-17.32 1867.63,-16.53 1869.45,-23.29"/>
</g>
<!-- Node19 -->
<g id="node19" class="node">
<title>Node19</title>
<g id="a_node19"><a xlink:title=" ">
<polygon fill="none" stroke="#bfbfbf" points="1940.2,-0.5 1940.2,-19.5 1998.2,-19.5 1998.2,-0.5 1940.2,-0.5"/>
<text text-anchor="middle" x="1969.2" y="-7.5" font-family="Helvetica,sans-Serif" font-size="10.00">memory</text>
</a>
</g>
</g>
<!-- Node3&#45;&gt;Node19 -->
<g id="edge18" class="edge">
<title>Node3&#45;&gt;Node19</title>
<path fill="none" stroke="midnightblue" d="M1731.19,-56.47C1780.29,-48.37 1855.58,-35.43 1930.16,-20.12"/>
<polygon fill="midnightblue" stroke="midnightblue" points="1931.11,-23.5 1940.19,-18.05 1929.69,-16.65 1931.11,-23.5"/>
</g>
<!-- Node20 -->
<g id="node20" class="node">
<title>Node20</title>
<g id="a_node20"><a xlink:title=" ">
<polygon fill="none" stroke="#bfbfbf" points="2016.2,-0.5 2016.2,-19.5 2070.2,-19.5 2070.2,-0.5 2016.2,-0.5"/>
<text text-anchor="middle" x="2043.2" y="-7.5" font-family="Helvetica,sans-Serif" font-size="10.00">random</text>
</a>
</g>
</g>
<!-- Node3&#45;&gt;Node20 -->
<g id="edge19" class="edge">
<title>Node3&#45;&gt;Node20</title>
<path fill="none" stroke="midnightblue" d="M1753.39,-57.08C1817.97,-49.74 1913.71,-37.56 2006.07,-20.04"/>
<polygon fill="midnightblue" stroke="midnightblue" points="2006.99,-23.42 2016.15,-18.1 2005.66,-16.55 2006.99,-23.42"/>
</g>
<!-- Node21 -->
<g id="node21" class="node">
<title>Node21</title>
<g id="a_node21"><a xlink:title=" ">
<polygon fill="none" stroke="#bfbfbf" points="2088.2,-0.5 2088.2,-19.5 2132.2,-19.5 2132.2,-0.5 2088.2,-0.5"/>
<text text-anchor="middle" x="2110.2" y="-7.5" font-family="Helvetica,sans-Serif" font-size="10.00">string</text>
</a>
</g>
</g>
<!-- Node3&#45;&gt;Node21 -->
<g id="edge20" class="edge">
<title>Node3&#45;&gt;Node21</title>
<path fill="none" stroke="midnightblue" d="M1753.44,-60.41C1832.25,-54.73 1959.68,-43.09 2078.01,-19.93"/>
<polygon fill="midnightblue" stroke="midnightblue" points="2078.84,-23.33 2087.96,-17.95 2077.47,-16.47 2078.84,-23.33"/>
</g>
<!-- Node22 -->
<g id="node22" class="node">
<title>Node22</title>
<g id="a_node22"><a xlink:title=" ">
<polygon fill="none" stroke="#bfbfbf" points="2150.7,-0.5 2150.7,-19.5 2197.7,-19.5 2197.7,-0.5 2150.7,-0.5"/>
<text text-anchor="middle" x="2174.2" y="-7.5" font-family="Helvetica,sans-Serif" font-size="10.00">vector</text>
</a>
</g>
</g>
<!-- Node3&#45;&gt;Node22 -->
<g id="edge21" class="edge">
<title>Node3&#45;&gt;Node22</title>
<path fill="none" stroke="midnightblue" d="M1753.32,-61.61C1843.2,-56.69 1998.29,-45.41 2140.32,-19.84"/>
<polygon fill="midnightblue" stroke="midnightblue" points="2141.31,-23.22 2150.52,-17.97 2140.05,-16.33 2141.31,-23.22"/>
</g>
<!-- Node23 -->
<g id="node23" class="node">
<title>Node23</title>
<g id="a_node23"><a xlink:title=" ">
<polygon fill="none" stroke="#bfbfbf" points="2216.2,-0.5 2216.2,-19.5 2264.2,-19.5 2264.2,-0.5 2216.2,-0.5"/>
<text text-anchor="middle" x="2240.2" y="-7.5" font-family="Helvetica,sans-Serif" font-size="10.00">thread</text>
</a>
</g>
</g>
<!-- Node3&#45;&gt;Node23 -->
<g id="edge22" class="edge">
<title>Node3&#45;&gt;Node23</title>
<path fill="none" stroke="midnightblue" d="M1753.49,-62.69C1856.39,-58.61 2046.44,-47.74 2206.2,-20 2206.3,-19.98 2206.4,-19.96 2206.51,-19.95"/>
<polygon fill="midnightblue" stroke="midnightblue" points="2207.1,-23.4 2216.17,-17.91 2205.66,-16.55 2207.1,-23.4"/>
</g>
<!-- Node24 -->
<g id="node24" class="node">
<title>Node24</title>
<g id="a_node24"><a xlink:title=" ">
<polygon fill="none" stroke="#bfbfbf" points="2282.2,-0.5 2282.2,-19.5 2330.2,-19.5 2330.2,-0.5 2282.2,-0.5"/>
<text text-anchor="middle" x="2306.2" y="-7.5" font-family="Helvetica,sans-Serif" font-size="10.00">mutex</text>
</a>
</g>
</g>
<!-- Node3&#45;&gt;Node24 -->
<g id="edge23" class="edge">
<title>Node3&#45;&gt;Node24</title>
<path fill="none" stroke="midnightblue" d="M1753.44,-63.9C1864.95,-61.25 2080.64,-52.24 2272.2,-19.84"/>
<polygon fill="midnightblue" stroke="midnightblue" points="2272.91,-23.27 2282.17,-18.12 2271.72,-16.37 2272.91,-23.27"/>
</g>
<!-- Node25 -->
<g id="node25" class="node">
<title>Node25</title>
<g id="a_node25"><a xlink:title=" ">
<polygon fill="none" stroke="#bfbfbf" points="2348.7,-0.5 2348.7,-19.5 2395.7,-19.5 2395.7,-0.5 2348.7,-0.5"/>
<text text-anchor="middle" x="2372.2" y="-7.5" font-family="Helvetica,sans-Serif" font-size="10.00">queue</text>
</a>
</g>
</g>
<!-- Node3&#45;&gt;Node25 -->
<g id="edge24" class="edge">
<title>Node3&#45;&gt;Node25</title>
<path fill="none" stroke="midnightblue" d="M1753.61,-64.71C1875.07,-63.18 2121.49,-55.67 2338.55,-19.74"/>
<polygon fill="midnightblue" stroke="midnightblue" points="2339.25,-23.17 2348.53,-18.06 2338.09,-16.26 2339.25,-23.17"/>
</g>
<!-- Node26 -->
<g id="node26" class="node">
<title>Node26</title>
<g id="a_node26"><a xlink:title=" ">
<polygon fill="none" stroke="#bfbfbf" points="2414.2,-0.5 2414.2,-19.5 2452.2,-19.5 2452.2,-0.5 2414.2,-0.5"/>
<text text-anchor="middle" x="2433.2" y="-7.5" font-family="Helvetica,sans-Serif" font-size="10.00">map</text>
</a>
</g>
</g>
<!-- Node3&#45;&gt;Node26 -->
<g id="edge25" class="edge">
<title>Node3&#45;&gt;Node26</title>
<path fill="none" stroke="midnightblue" d="M1753.39,-62.72C1909.27,-57.61 2264.06,-43.94 2403.99,-19.68"/>
<polygon fill="midnightblue" stroke="midnightblue" points="2404.87,-23.08 2414.08,-17.84 2403.62,-16.19 2404.87,-23.08"/>
</g>
<!-- Node27&#45;&gt;Node2 -->
<g id="edge27" class="edge">
<title>Node27&#45;&gt;Node2</title>
<path fill="none" stroke="midnightblue" d="M1488.74,-586.9C1626.74,-577.92 1883.2,-550.41 1883.2,-470 1883.2,-470 1883.2,-470 1883.2,-244 1883.2,-184.82 1817.55,-155.63 1760.56,-141.44"/>
<polygon fill="midnightblue" stroke="midnightblue" points="1761.3,-138.02 1750.77,-139.13 1759.69,-144.84 1761.3,-138.02"/>
</g>
<!-- Node28 -->
<g id="node28" class="node">
<title>Node28</title>
<g id="a_node28"><a xlink:href="../../d9/dd4/a00776.html" target="_top" xlink:title=" ">
<polygon fill="none" stroke="black" points="1331.2,-515.5 1331.2,-545.5 1475.2,-545.5 1475.2,-515.5 1331.2,-515.5"/>
<text text-anchor="start" x="1339.2" y="-533.5" font-family="Helvetica,sans-Serif" font-size="10.00">discordcoreapi/WebSocket</text>
<text text-anchor="middle" x="1403.2" y="-522.5" font-family="Helvetica,sans-Serif" font-size="10.00">Entities.hpp</text>
</a>
</g>
</g>
<!-- Node27&#45;&gt;Node28 -->
<g id="edge28" class="edge">
<title>Node27&#45;&gt;Node28</title>
<path fill="none" stroke="midnightblue" d="M1403.2,-582.48C1403.2,-575.47 1403.2,-565.19 1403.2,-555.7"/>
<polygon fill="midnightblue" stroke="midnightblue" points="1406.7,-555.52 1403.2,-545.52 1399.7,-555.52 1406.7,-555.52"/>
</g>
<!-- Node28&#45;&gt;Node2 -->
<g id="edge29" class="edge">
<title>Node28&#45;&gt;Node2</title>
<path fill="none" stroke="midnightblue" d="M1475.69,-525.49C1601.09,-516.54 1845.2,-489.45 1845.2,-414 1845.2,-414 1845.2,-414 1845.2,-244 1845.2,-192.72 1791.27,-162.42 1744.71,-145.82"/>
<polygon fill="midnightblue" stroke="midnightblue" points="1745.8,-142.5 1735.21,-142.58 1743.54,-149.12 1745.8,-142.5"/>
</g>
<!-- Node29 -->
<g id="node29" class="node">
<title>Node29</title>
<g id="a_node29"><a xlink:href="../../d4/d9b/a00680.html" target="_top" xlink:title=" ">
<polygon fill="none" stroke="black" points="275.7,-235.5 275.7,-254.5 454.7,-254.5 454.7,-235.5 275.7,-235.5"/>
<text text-anchor="middle" x="365.2" y="-242.5" font-family="Helvetica,sans-Serif" font-size="10.00">discordcoreapi/AudioDecoder.hpp</text>
</a>
</g>
</g>
<!-- Node28&#45;&gt;Node29 -->
<g id="edge30" class="edge">
<title>Node28&#45;&gt;Node29</title>
<path fill="none" stroke="midnightblue" d="M1330.98,-527.45C1122.45,-520.59 534.2,-494.14 534.2,-414 534.2,-414 534.2,-414 534.2,-356 534.2,-299.99 468.2,-271.03 418.69,-257.18"/>
<polygon fill="midnightblue" stroke="midnightblue" points="419.29,-253.72 408.72,-254.53 417.49,-260.48 419.29,-253.72"/>
</g>
<!-- Node30 -->
<g id="node30" class="node">
<title>Node30</title>
<g id="a_node30"><a xlink:href="../../d4/d6a/a00704.html" target="_top" xlink:title=" ">
<polygon fill="none" stroke="black" points="393.2,-179.5 393.2,-198.5 569.2,-198.5 569.2,-179.5 393.2,-179.5"/>
<text text-anchor="middle" x="481.2" y="-186.5" font-family="Helvetica,sans-Serif" font-size="10.00">discordcoreapi/EventEntities.hpp</text>
</a>
</g>
</g>
<!-- Node28&#45;&gt;Node30 -->
<g id="edge61" class="edge">
<title>Node28&#45;&gt;Node30</title>
<path fill="none" stroke="midnightblue" d="M1331,-526.72C1198.78,-519.65 931.2,-495.3 931.2,-414 931.2,-414 931.2,-414 931.2,-300 931.2,-261.43 678.59,-218.91 551.9,-200.01"/>
<polygon fill="midnightblue" stroke="midnightblue" points="552.3,-196.53 541.89,-198.52 551.27,-203.45 552.3,-196.53"/>
</g>
<!-- Node33 -->
<g id="node33" class="node">
<title>Node33</title>
<g id="a_node33"><a xlink:href="../../d0/db6/a00692.html" target="_top" xlink:title=" ">
<polygon fill="none" stroke="black" points="1431.7,-459.5 1431.7,-478.5 1640.7,-478.5 1640.7,-459.5 1431.7,-459.5"/>
<text text-anchor="middle" x="1536.2" y="-466.5" font-family="Helvetica,sans-Serif" font-size="10.00">discordcoreapi/CommandController.hpp</text>
</a>
</g>
</g>
<!-- Node28&#45;&gt;Node33 -->
<g id="edge36" class="edge">
<title>Node28&#45;&gt;Node33</title>
<path fill="none" stroke="midnightblue" d="M1434.72,-515.4C1456.84,-505.51 1486.17,-492.38 1507.61,-482.79"/>
<polygon fill="midnightblue" stroke="midnightblue" points="1509.15,-485.94 1516.85,-478.66 1506.29,-479.55 1509.15,-485.94"/>
</g>
<!-- Node35 -->
<g id="node35" class="node">
<title>Node35</title>
<g id="a_node35"><a xlink:href="../../d3/d4f/a00761.html" target="_top" xlink:title=" ">
<polygon fill="none" stroke="black" points="1391.7,-347.5 1391.7,-366.5 1558.7,-366.5 1558.7,-347.5 1391.7,-347.5"/>
<text text-anchor="middle" x="1475.2" y="-354.5" font-family="Helvetica,sans-Serif" font-size="10.00">discordcoreapi/ThreadPool.hpp</text>
</a>
</g>
</g>
<!-- Node28&#45;&gt;Node35 -->
<g id="edge63" class="edge">
<title>Node28&#45;&gt;Node35</title>
<path fill="none" stroke="midnightblue" d="M1404.37,-515.41C1406.86,-491.15 1414.21,-440.52 1434.2,-403 1440.08,-391.97 1449.27,-381.53 1457.46,-373.49"/>
<polygon fill="midnightblue" stroke="midnightblue" points="1459.95,-375.96 1464.87,-366.57 1455.17,-370.84 1459.95,-375.96"/>
</g>
<!-- Node37 -->
<g id="node37" class="node">
<title>Node37</title>
<g id="a_node37"><a xlink:href="../../d5/de8/a00749.html" target="_top" xlink:title=" ">
<polygon fill="none" stroke="black" points="1127.7,-235.5 1127.7,-254.5 1290.7,-254.5 1290.7,-235.5 1127.7,-235.5"/>
<text text-anchor="middle" x="1209.2" y="-242.5" font-family="Helvetica,sans-Serif" font-size="10.00">discordcoreapi/SSLClients.hpp</text>
</a>
</g>
</g>
<!-- Node28&#45;&gt;Node37 -->
<g id="edge62" class="edge">
<title>Node28&#45;&gt;Node37</title>
<path fill="none" stroke="midnightblue" d="M1359.3,-515.46C1316.63,-498.74 1258.2,-466.3 1258.2,-414 1258.2,-414 1258.2,-414 1258.2,-356 1258.2,-320.47 1236.6,-283.63 1222.08,-262.88"/>
<polygon fill="midnightblue" stroke="midnightblue" points="1224.73,-260.57 1216.01,-254.54 1219.07,-264.69 1224.73,-260.57"/>
</g>
<!-- Node51 -->
<g id="node51" class="node">
<title>Node51</title>
<g id="a_node51"><a xlink:href="../../dd/d57/a00701.html" target="_top" xlink:title=" ">
<polygon fill="none" stroke="black" points="1661.7,-403.5 1661.7,-422.5 1816.7,-422.5 1816.7,-403.5 1661.7,-403.5"/>
<text text-anchor="middle" x="1739.2" y="-410.5" font-family="Helvetica,sans-Serif" font-size="10.00">discordcoreapi/ErlPacker.hpp</text>
</a>
</g>
</g>
<!-- Node28&#45;&gt;Node51 -->
<g id="edge59" class="edge">
<title>Node28&#45;&gt;Node51</title>
<path fill="none" stroke="midnightblue" d="M1475.35,-522.81C1525.72,-516.22 1593.62,-503.42 1649.2,-479 1677.41,-466.61 1705.48,-444.35 1722.59,-429.38"/>
<polygon fill="midnightblue" stroke="midnightblue" points="1724.94,-431.97 1730.06,-422.69 1720.27,-426.75 1724.94,-431.97"/>
</g>
<!-- Node29&#45;&gt;Node2 -->
<g id="edge33" class="edge">
<title>Node29&#45;&gt;Node2</title>
<path fill="none" stroke="midnightblue" d="M364.82,-235.1C364.74,-220.67 366.96,-192.45 384.2,-179 431.99,-141.7 1317.98,-131.4 1595.68,-129.09"/>
<polygon fill="midnightblue" stroke="midnightblue" points="1595.73,-132.59 1605.7,-129.01 1595.67,-125.59 1595.73,-132.59"/>
</g>
<!-- Node29&#45;&gt;Node30 -->
<g id="edge31" class="edge">
<title>Node29&#45;&gt;Node30</title>
<path fill="none" stroke="midnightblue" d="M383.58,-235.44C402.42,-226.68 431.93,-212.94 453.58,-202.86"/>
<polygon fill="midnightblue" stroke="midnightblue" points="455.32,-205.91 462.91,-198.52 452.36,-199.56 455.32,-205.91"/>
</g>
<!-- Node31 -->
<g id="node31" class="node">
<title>Node31</title>
<g id="a_node31"><a xlink:title=" ">
<polygon fill="none" stroke="#bfbfbf" points="29.7,-179.5 29.7,-198.5 160.7,-198.5 160.7,-179.5 29.7,-179.5"/>
<text text-anchor="middle" x="95.2" y="-186.5" font-family="Helvetica,sans-Serif" font-size="10.00">libavformat/avformat.h</text>
</a>
</g>
</g>
<!-- Node29&#45;&gt;Node31 -->
<g id="edge34" class="edge">
<title>Node29&#45;&gt;Node31</title>
<path fill="none" stroke="midnightblue" d="M322.42,-235.44C275.02,-225.96 198.58,-210.67 147.62,-200.48"/>
<polygon fill="midnightblue" stroke="midnightblue" points="148.28,-197.05 137.78,-198.52 146.9,-203.91 148.28,-197.05"/>
</g>
<!-- Node32 -->
<g id="node32" class="node">
<title>Node32</title>
<g id="a_node32"><a xlink:title=" ">
<polygon fill="none" stroke="#bfbfbf" points="178.7,-179.5 178.7,-198.5 337.7,-198.5 337.7,-179.5 178.7,-179.5"/>
<text text-anchor="middle" x="258.2" y="-186.5" font-family="Helvetica,sans-Serif" font-size="10.00">libswresample/swresample.h</text>
</a>
</g>
</g>
<!-- Node29&#45;&gt;Node32 -->
<g id="edge35" class="edge">
<title>Node29&#45;&gt;Node32</title>
<path fill="none" stroke="midnightblue" d="M348.01,-235.32C330.85,-226.66 304.26,-213.24 284.45,-203.25"/>
<polygon fill="midnightblue" stroke="midnightblue" points="285.85,-200.04 275.35,-198.65 282.7,-206.28 285.85,-200.04"/>
</g>
<!-- Node30&#45;&gt;Node2 -->
<g id="edge32" class="edge">
<title>Node30&#45;&gt;Node2</title>
<path fill="none" stroke="midnightblue" d="M569.22,-179.65C572.25,-179.42 575.25,-179.2 578.2,-179 957.7,-152.7 1411.84,-136.77 1595.3,-130.98"/>
<polygon fill="midnightblue" stroke="midnightblue" points="1595.53,-134.48 1605.41,-130.67 1595.31,-127.48 1595.53,-134.48"/>
</g>
<!-- Node33&#45;&gt;Node2 -->
<g id="edge37" class="edge">
<title>Node33&#45;&gt;Node2</title>
<path fill="none" stroke="midnightblue" d="M1552.77,-459.39C1568.87,-450.8 1593.8,-436.93 1614.2,-423 1677.01,-380.12 1735.2,-378.05 1735.2,-302 1735.2,-302 1735.2,-302 1735.2,-244 1735.2,-208.66 1713.48,-172.94 1696.86,-150.78"/>
<polygon fill="midnightblue" stroke="midnightblue" points="1699.47,-148.44 1690.57,-142.7 1693.95,-152.74 1699.47,-148.44"/>
</g>
<!-- Node34 -->
<g id="node34" class="node">
<title>Node34</title>
<g id="a_node34"><a xlink:href="../../d5/d5b/a00695.html" target="_top" xlink:title=" ">
<polygon fill="none" stroke="black" points="1443.2,-403.5 1443.2,-422.5 1605.2,-422.5 1605.2,-403.5 1443.2,-403.5"/>
<text text-anchor="middle" x="1524.2" y="-410.5" font-family="Helvetica,sans-Serif" font-size="10.00">discordcoreapi/CoRoutine.hpp</text>
</a>
</g>
</g>
<!-- Node33&#45;&gt;Node34 -->
<g id="edge38" class="edge">
<title>Node33&#45;&gt;Node34</title>
<path fill="none" stroke="midnightblue" d="M1534.22,-459.08C1532.63,-451.93 1530.34,-441.64 1528.36,-432.69"/>
<polygon fill="midnightblue" stroke="midnightblue" points="1531.73,-431.75 1526.15,-422.75 1524.9,-433.27 1531.73,-431.75"/>
</g>
<!-- Node34&#45;&gt;Node2 -->
<g id="edge39" class="edge">
<title>Node34&#45;&gt;Node2</title>
<path fill="none" stroke="midnightblue" d="M1570.11,-403.47C1621.36,-390.99 1697.2,-362.33 1697.2,-302 1697.2,-302 1697.2,-302 1697.2,-244 1697.2,-212.07 1690.04,-175.83 1684.52,-152.59"/>
<polygon fill="midnightblue" stroke="midnightblue" points="1687.84,-151.47 1682.05,-142.6 1681.05,-153.15 1687.84,-151.47"/>
</g>
<!-- Node34&#45;&gt;Node35 -->
<g id="edge40" class="edge">
<title>Node34&#45;&gt;Node35</title>
<path fill="none" stroke="midnightblue" d="M1516.11,-403.08C1509.05,-395.3 1498.61,-383.8 1490.05,-374.37"/>
<polygon fill="midnightblue" stroke="midnightblue" points="1492.45,-371.8 1483.14,-366.75 1487.27,-376.51 1492.45,-371.8"/>
</g>
<!-- Node35&#45;&gt;Node2 -->
<g id="edge41" class="edge">
<title>Node35&#45;&gt;Node2</title>
<path fill="none" stroke="midnightblue" d="M1494.84,-347.35C1511.5,-339.42 1535.45,-326.56 1553.2,-311 1606.76,-264.06 1648.31,-189.37 1667.15,-151.76"/>
<polygon fill="midnightblue" stroke="midnightblue" points="1670.38,-153.13 1671.65,-142.61 1664.1,-150.04 1670.38,-153.13"/>
</g>
<!-- Node36 -->
<g id="node36" class="node">
<title>Node36</title>
<g id="a_node36"><a xlink:href="../../db/d7c/a00722.html" target="_top" xlink:title=" ">
<polygon fill="none" stroke="black" points="1406.2,-291.5 1406.2,-310.5 1544.2,-310.5 1544.2,-291.5 1406.2,-291.5"/>
<text text-anchor="middle" x="1475.2" y="-298.5" font-family="Helvetica,sans-Serif" font-size="10.00">discordcoreapi/Https.hpp</text>
</a>
</g>
</g>
<!-- Node35&#45;&gt;Node36 -->
<g id="edge42" class="edge">
<title>Node35&#45;&gt;Node36</title>
<path fill="none" stroke="midnightblue" d="M1475.2,-347.08C1475.2,-340.01 1475.2,-329.86 1475.2,-320.99"/>
<polygon fill="midnightblue" stroke="midnightblue" points="1478.7,-320.75 1475.2,-310.75 1471.7,-320.75 1478.7,-320.75"/>
</g>
<!-- Node50 -->
<g id="node50" class="node">
<title>Node50</title>
<g id="a_node50"><a xlink:title=" ">
<polygon fill="none" stroke="#bfbfbf" points="1326.2,-291.5 1326.2,-310.5 1388.2,-310.5 1388.2,-291.5 1326.2,-291.5"/>
<text text-anchor="middle" x="1357.2" y="-298.5" font-family="Helvetica,sans-Serif" font-size="10.00">coroutine</text>
</a>
</g>
</g>
<!-- Node35&#45;&gt;Node50 -->
<g id="edge58" class="edge">
<title>Node35&#45;&gt;Node50</title>
<path fill="none" stroke="midnightblue" d="M1456.5,-347.44C1437.26,-338.64 1407.05,-324.81 1385,-314.72"/>
<polygon fill="midnightblue" stroke="midnightblue" points="1386.36,-311.5 1375.81,-310.52 1383.45,-317.86 1386.36,-311.5"/>
</g>
<!-- Node36&#45;&gt;Node37 -->
<g id="edge43" class="edge">
<title>Node36&#45;&gt;Node37</title>
<path fill="none" stroke="midnightblue" d="M1433.05,-291.44C1386.46,-281.98 1311.36,-266.74 1261.16,-256.55"/>
<polygon fill="midnightblue" stroke="midnightblue" points="1261.65,-253.08 1251.15,-254.52 1260.26,-259.94 1261.65,-253.08"/>
</g>
<!-- Node37&#45;&gt;Node2 -->
<g id="edge44" class="edge">
<title>Node37&#45;&gt;Node2</title>
<path fill="none" stroke="midnightblue" d="M1220.74,-235.39C1242.43,-219.36 1288.77,-185.95 1307.2,-179 1401.8,-143.34 1518.38,-132.37 1595.32,-129.25"/>
<polygon fill="midnightblue" stroke="midnightblue" points="1595.57,-132.75 1605.44,-128.88 1595.32,-125.75 1595.57,-132.75"/>
</g>
<!-- Node37&#45;&gt;Node30 -->
<g id="edge45" class="edge">
<title>Node37&#45;&gt;Node30</title>
<path fill="none" stroke="midnightblue" d="M1127.48,-238.73C1009.08,-230.97 782.67,-215.67 579.2,-199.07"/>
<polygon fill="midnightblue" stroke="midnightblue" points="579.47,-195.58 569.22,-198.25 578.9,-202.55 579.47,-195.58"/>
</g>
<!-- Node38 -->
<g id="node38" class="node">
<title>Node38</title>
<g id="a_node38"><a xlink:title=" ">
<polygon fill="none" stroke="#bfbfbf" points="1316.7,-179.5 1316.7,-198.5 1395.7,-198.5 1395.7,-179.5 1316.7,-179.5"/>
<text text-anchor="middle" x="1356.2" y="-186.5" font-family="Helvetica,sans-Serif" font-size="10.00">openssl/err.h</text>
</a>
</g>
</g>
<!-- Node37&#45;&gt;Node38 -->
<g id="edge46" class="edge">
<title>Node37&#45;&gt;Node38</title>
<path fill="none" stroke="midnightblue" d="M1232.49,-235.44C1257.01,-226.44 1295.8,-212.19 1323.4,-202.05"/>
<polygon fill="midnightblue" stroke="midnightblue" points="1324.84,-205.25 1333.02,-198.52 1322.42,-198.68 1324.84,-205.25"/>
</g>
<!-- Node39 -->
<g id="node39" class="node">
<title>Node39</title>
<g id="a_node39"><a xlink:title=" ">
<polygon fill="none" stroke="#bfbfbf" points="1414.2,-179.5 1414.2,-198.5 1494.2,-198.5 1494.2,-179.5 1414.2,-179.5"/>
<text text-anchor="middle" x="1454.2" y="-186.5" font-family="Helvetica,sans-Serif" font-size="10.00">openssl/ssl.h</text>
</a>
</g>
</g>
<!-- Node37&#45;&gt;Node39 -->
<g id="edge47" class="edge">
<title>Node37&#45;&gt;Node39</title>
<path fill="none" stroke="midnightblue" d="M1248.02,-235.44C1290.76,-226.02 1359.53,-210.87 1405.77,-200.68"/>
<polygon fill="midnightblue" stroke="midnightblue" points="1406.55,-204.09 1415.56,-198.52 1405.04,-197.25 1406.55,-204.09"/>
</g>
<!-- Node40 -->
<g id="node40" class="node">
<title>Node40</title>
<g id="a_node40"><a xlink:title=" ">
<polygon fill="none" stroke="#bfbfbf" points="1512.7,-179.5 1512.7,-198.5 1559.7,-198.5 1559.7,-179.5 1512.7,-179.5"/>
<text text-anchor="middle" x="1536.2" y="-186.5" font-family="Helvetica,sans-Serif" font-size="10.00">fcntl.h</text>
</a>
</g>
</g>
<!-- Node37&#45;&gt;Node40 -->
<g id="edge48" class="edge">
<title>Node37&#45;&gt;Node40</title>
<path fill="none" stroke="midnightblue" d="M1280,-235.47C1337.48,-228.02 1420.75,-216.03 1502.52,-198.93"/>
<polygon fill="midnightblue" stroke="midnightblue" points="1503.43,-202.31 1512.49,-196.82 1501.98,-195.46 1503.43,-202.31"/>
</g>
<!-- Node41 -->
<g id="node41" class="node">
<title>Node41</title>
<g id="a_node41"><a xlink:title=" ">
<polygon fill="none" stroke="#bfbfbf" points="1577.7,-179.5 1577.7,-198.5 1630.7,-198.5 1630.7,-179.5 1577.7,-179.5"/>
<text text-anchor="middle" x="1604.2" y="-186.5" font-family="Helvetica,sans-Serif" font-size="10.00">netdb.h</text>
</a>
</g>
</g>
<!-- Node37&#45;&gt;Node41 -->
<g id="edge49" class="edge">
<title>Node37&#45;&gt;Node41</title>
<path fill="none" stroke="midnightblue" d="M1290.9,-236.59C1361.6,-229.52 1466.7,-217.47 1567.49,-198.92"/>
<polygon fill="midnightblue" stroke="midnightblue" points="1568.35,-202.32 1577.54,-197.04 1567.07,-195.44 1568.35,-202.32"/>
</g>
<!-- Node42 -->
<g id="node42" class="node">
<title>Node42</title>
<g id="a_node42"><a xlink:title=" ">
<polygon fill="none" stroke="#bfbfbf" points="587.2,-179.5 587.2,-198.5 659.2,-198.5 659.2,-179.5 587.2,-179.5"/>
<text text-anchor="middle" x="623.2" y="-186.5" font-family="Helvetica,sans-Serif" font-size="10.00">netinet/in.h</text>
</a>
</g>
</g>
<!-- Node37&#45;&gt;Node42 -->
<g id="edge50" class="edge">
<title>Node37&#45;&gt;Node42</title>
<path fill="none" stroke="midnightblue" d="M1127.31,-240.11C1023.13,-234.51 837.54,-222.34 669.51,-199.03"/>
<polygon fill="midnightblue" stroke="midnightblue" points="669.88,-195.55 659.49,-197.63 668.91,-202.48 669.88,-195.55"/>
</g>
<!-- Node43 -->
<g id="node43" class="node">
<title>Node43</title>
<g id="a_node43"><a xlink:title=" ">
<polygon fill="none" stroke="#bfbfbf" points="677.2,-179.5 677.2,-198.5 755.2,-198.5 755.2,-179.5 677.2,-179.5"/>
<text text-anchor="middle" x="716.2" y="-186.5" font-family="Helvetica,sans-Serif" font-size="10.00">netinet/tcp.h</text>
</a>
</g>
</g>
<!-- Node37&#45;&gt;Node43 -->
<g id="edge51" class="edge">
<title>Node37&#45;&gt;Node43</title>
<path fill="none" stroke="midnightblue" d="M1127.34,-237.81C1040.06,-230.74 897.6,-217.83 765.36,-199.06"/>
<polygon fill="midnightblue" stroke="midnightblue" points="765.84,-195.59 755.45,-197.64 764.85,-202.52 765.84,-195.59"/>
</g>
<!-- Node44 -->
<g id="node44" class="node">
<title>Node44</title>
<g id="a_node44"><a xlink:title=" ">
<polygon fill="none" stroke="#bfbfbf" points="773.7,-179.5 773.7,-198.5 826.7,-198.5 826.7,-179.5 773.7,-179.5"/>
<text text-anchor="middle" x="800.2" y="-186.5" font-family="Helvetica,sans-Serif" font-size="10.00">stdint.h</text>
</a>
</g>
</g>
<!-- Node37&#45;&gt;Node44 -->
<g id="edge52" class="edge">
<title>Node37&#45;&gt;Node44</title>
<path fill="none" stroke="midnightblue" d="M1127.38,-237.29C1053.6,-230.52 941.99,-218.5 836.71,-199.09"/>
<polygon fill="midnightblue" stroke="midnightblue" points="837.35,-195.64 826.87,-197.25 836.06,-202.52 837.35,-195.64"/>
</g>
<!-- Node45 -->
<g id="node45" class="node">
<title>Node45</title>
<g id="a_node45"><a xlink:title=" ">
<polygon fill="none" stroke="#bfbfbf" points="844.7,-179.5 844.7,-198.5 913.7,-198.5 913.7,-179.5 844.7,-179.5"/>
<text text-anchor="middle" x="879.2" y="-186.5" font-family="Helvetica,sans-Serif" font-size="10.00">sys/epoll.h</text>
</a>
</g>
</g>
<!-- Node37&#45;&gt;Node45 -->
<g id="edge53" class="edge">
<title>Node37&#45;&gt;Node45</title>
<path fill="none" stroke="midnightblue" d="M1149.14,-235.49C1093.18,-227.35 1007.2,-214.33 923.8,-199.23"/>
<polygon fill="midnightblue" stroke="midnightblue" points="924.37,-195.77 913.91,-197.42 923.12,-202.66 924.37,-195.77"/>
</g>
<!-- Node46 -->
<g id="node46" class="node">
<title>Node46</title>
<g id="a_node46"><a xlink:title=" ">
<polygon fill="none" stroke="#bfbfbf" points="931.7,-179.5 931.7,-198.5 1000.7,-198.5 1000.7,-179.5 931.7,-179.5"/>
<text text-anchor="middle" x="966.2" y="-186.5" font-family="Helvetica,sans-Serif" font-size="10.00">arpa/inet.h</text>
</a>
</g>
</g>
<!-- Node37&#45;&gt;Node46 -->
<g id="edge54" class="edge">
<title>Node37&#45;&gt;Node46</title>
<path fill="none" stroke="midnightblue" d="M1170.7,-235.44C1127.28,-225.79 1056.76,-210.12 1010.93,-199.94"/>
<polygon fill="midnightblue" stroke="midnightblue" points="1011.5,-196.48 1000.98,-197.73 1009.98,-203.32 1011.5,-196.48"/>
</g>
<!-- Node47 -->
<g id="node47" class="node">
<title>Node47</title>
<g id="a_node47"><a xlink:title=" ">
<polygon fill="none" stroke="#bfbfbf" points="1018.7,-179.5 1018.7,-198.5 1095.7,-198.5 1095.7,-179.5 1018.7,-179.5"/>
<text text-anchor="middle" x="1057.2" y="-186.5" font-family="Helvetica,sans-Serif" font-size="10.00">sys/socket.h</text>
</a>
</g>
</g>
<!-- Node37&#45;&gt;Node47 -->
<g id="edge55" class="edge">
<title>Node37&#45;&gt;Node47</title>
<path fill="none" stroke="midnightblue" d="M1185.12,-235.44C1159.66,-226.4 1119.31,-212.06 1090.74,-201.92"/>
<polygon fill="midnightblue" stroke="midnightblue" points="1091.77,-198.57 1081.17,-198.52 1089.42,-205.16 1091.77,-198.57"/>
</g>
<!-- Node48 -->
<g id="node48" class="node">
<title>Node48</title>
<g id="a_node48"><a xlink:title=" ">
<polygon fill="none" stroke="#bfbfbf" points="1114.2,-179.5 1114.2,-198.5 1186.2,-198.5 1186.2,-179.5 1114.2,-179.5"/>
<text text-anchor="middle" x="1150.2" y="-186.5" font-family="Helvetica,sans-Serif" font-size="10.00">sys/types.h</text>
</a>
</g>
</g>
<!-- Node37&#45;&gt;Node48 -->
<g id="edge56" class="edge">
<title>Node37&#45;&gt;Node48</title>
<path fill="none" stroke="midnightblue" d="M1199.72,-235.32C1191,-227.34 1177.86,-215.31 1167.3,-205.65"/>
<polygon fill="midnightblue" stroke="midnightblue" points="1169.59,-203 1159.85,-198.83 1164.87,-208.17 1169.59,-203"/>
</g>
<!-- Node49 -->
<g id="node49" class="node">
<title>Node49</title>
<g id="a_node49"><a xlink:title=" ">
<polygon fill="none" stroke="#bfbfbf" points="1204.2,-179.5 1204.2,-198.5 1260.2,-198.5 1260.2,-179.5 1204.2,-179.5"/>
<text text-anchor="middle" x="1232.2" y="-186.5" font-family="Helvetica,sans-Serif" font-size="10.00">unistd.h</text>
</a>
</g>
</g>
<!-- Node37&#45;&gt;Node49 -->
<g id="edge57" class="edge">
<title>Node37&#45;&gt;Node49</title>
<path fill="none" stroke="midnightblue" d="M1213,-235.08C1216.11,-227.77 1220.62,-217.18 1224.49,-208.1"/>
<polygon fill="midnightblue" stroke="midnightblue" points="1227.78,-209.32 1228.47,-198.75 1221.34,-206.58 1227.78,-209.32"/>
</g>
<!-- Node51&#45;&gt;Node2 -->
<g id="edge60" class="edge">
<title>Node51&#45;&gt;Node2</title>
<path fill="none" stroke="midnightblue" d="M1743.79,-403.44C1753.07,-385.29 1773.2,-341.38 1773.2,-302 1773.2,-302 1773.2,-302 1773.2,-244 1773.2,-213.2 1767.91,-203.46 1749.2,-179 1739.79,-166.7 1726.55,-156.16 1714.05,-147.94"/>
<polygon fill="midnightblue" stroke="midnightblue" points="1715.91,-144.98 1705.57,-142.63 1712.19,-150.91 1715.91,-144.98"/>
</g>
</g>
</svg>
