<?xml version="1.0" encoding="UTF-8" standalone="no"?>
<!DOCTYPE svg PUBLIC "-//W3C//DTD SVG 1.1//EN"
 "http://www.w3.org/Graphics/SVG/1.1/DTD/svg11.dtd">
<!-- Generated by graphviz version 3.0.0 (20220226.1711)
 -->
<!-- Title: ReactionEntities.hpp Pages: 1 -->
<svg width="1965pt" height="666pt"
 viewBox="0.00 0.00 1965.00 666.00" xmlns="http://www.w3.org/2000/svg" xmlns:xlink="http://www.w3.org/1999/xlink">
<g id="graph0" class="graph" transform="scale(1 1) rotate(0) translate(4 662)">
<title>ReactionEntities.hpp</title>
<!-- Node1 -->
<g id="node1" class="node">
<title>Node1</title>
<g id="a_node1"><a xlink:title=" ">
<polygon fill="#bfbfbf" stroke="black" points="629.5,-638.5 629.5,-657.5 736.5,-657.5 736.5,-638.5 629.5,-638.5"/>
<text text-anchor="middle" x="683" y="-645.5" font-family="Helvetica,sans-Serif" font-size="10.00">ReactionEntities.hpp</text>
</a>
</g>
</g>
<!-- Node2 -->
<g id="node2" class="node">
<title>Node2</title>
<g id="a_node2"><a xlink:href="../../d4/deb/a00710.html" target="_top" xlink:title=" ">
<polygon fill="none" stroke="black" points="1224.5,-112.5 1224.5,-142.5 1355.5,-142.5 1355.5,-112.5 1224.5,-112.5"/>
<text text-anchor="start" x="1232.5" y="-130.5" font-family="Helvetica,sans-Serif" font-size="10.00">discordcoreapi/Foundation</text>
<text text-anchor="middle" x="1290" y="-119.5" font-family="Helvetica,sans-Serif" font-size="10.00">Entities.hpp</text>
</a>
</g>
</g>
<!-- Node1&#45;&gt;Node2 -->
<g id="edge1" class="edge">
<title>Node1&#45;&gt;Node2</title>
<path fill="none" stroke="midnightblue" d="M629.39,-643.05C474.62,-630.92 38,-591.4 38,-531.5 38,-531.5 38,-531.5 38,-244 38,-213.9 33.29,-197.54 57,-179 102.67,-143.29 952.82,-131.86 1214.19,-129.19"/>
<polygon fill="midnightblue" stroke="midnightblue" points="1214.39,-132.68 1224.35,-129.08 1214.32,-125.68 1214.39,-132.68"/>
</g>
<!-- Node28 -->
<g id="node28" class="node">
<title>Node28</title>
<g id="a_node28"><a xlink:href="../../d3/d2c/a00764.html" target="_top" xlink:title=" ">
<polygon fill="none" stroke="black" points="1219.5,-582.5 1219.5,-601.5 1374.5,-601.5 1374.5,-582.5 1219.5,-582.5"/>
<text text-anchor="middle" x="1297" y="-589.5" font-family="Helvetica,sans-Serif" font-size="10.00">discordcoreapi/UserEntities.hpp</text>
</a>
</g>
</g>
<!-- Node1&#45;&gt;Node28 -->
<g id="edge27" class="edge">
<title>Node1&#45;&gt;Node28</title>
<path fill="none" stroke="midnightblue" d="M736.68,-642.28C842.73,-632.95 1079.96,-612.09 1209.12,-600.73"/>
<polygon fill="midnightblue" stroke="midnightblue" points="1209.72,-604.19 1219.38,-599.83 1209.11,-597.22 1209.72,-604.19"/>
</g>
<!-- Node3 -->
<g id="node3" class="node">
<title>Node3</title>
<g id="a_node3"><a xlink:href="../../d5/dae/a00767.html" target="_top" xlink:title=" ">
<polygon fill="none" stroke="black" points="1156,-56.5 1156,-75.5 1290,-75.5 1290,-56.5 1156,-56.5"/>
<text text-anchor="middle" x="1223" y="-63.5" font-family="Helvetica,sans-Serif" font-size="10.00">discordcoreapi/Utilities.hpp</text>
</a>
</g>
</g>
<!-- Node2&#45;&gt;Node3 -->
<g id="edge2" class="edge">
<title>Node2&#45;&gt;Node3</title>
<path fill="none" stroke="midnightblue" d="M1274.12,-112.4C1263.98,-103.4 1250.84,-91.72 1240.41,-82.47"/>
<polygon fill="midnightblue" stroke="midnightblue" points="1242.55,-79.68 1232.75,-75.66 1237.9,-84.92 1242.55,-79.68"/>
</g>
<!-- Node4 -->
<g id="node4" class="node">
<title>Node4</title>
<g id="a_node4"><a xlink:title=" ">
<polygon fill="none" stroke="#bfbfbf" points="1757.5,-0.5 1757.5,-19.5 1814.5,-19.5 1814.5,-0.5 1757.5,-0.5"/>
<text text-anchor="middle" x="1786" y="-7.5" font-family="Helvetica,sans-Serif" font-size="10.00">pthread.h</text>
</a>
</g>
</g>
<!-- Node3&#45;&gt;Node4 -->
<g id="edge3" class="edge">
<title>Node3&#45;&gt;Node4</title>
<path fill="none" stroke="midnightblue" d="M1290.1,-62.41C1388.39,-57.91 1577.37,-46.63 1747.57,-19.81"/>
<polygon fill="midnightblue" stroke="midnightblue" points="1748.13,-23.27 1757.46,-18.24 1747.03,-16.36 1748.13,-23.27"/>
</g>
<!-- Node5 -->
<g id="node5" class="node">
<title>Node5</title>
<g id="a_node5"><a xlink:title=" ">
<polygon fill="none" stroke="#bfbfbf" points="1833,-0.5 1833,-19.5 1895,-19.5 1895,-0.5 1833,-0.5"/>
<text text-anchor="middle" x="1864" y="-7.5" font-family="Helvetica,sans-Serif" font-size="10.00">sys/time.h</text>
</a>
</g>
</g>
<!-- Node3&#45;&gt;Node5 -->
<g id="edge4" class="edge">
<title>Node3&#45;&gt;Node5</title>
<path fill="none" stroke="midnightblue" d="M1290.38,-63.05C1399.9,-59.19 1623.44,-48.49 1822.68,-19.81"/>
<polygon fill="midnightblue" stroke="midnightblue" points="1823.35,-23.24 1832.74,-18.34 1822.34,-16.32 1823.35,-23.24"/>
</g>
<!-- Node6 -->
<g id="node6" class="node">
<title>Node6</title>
<g id="a_node6"><a xlink:title=" ">
<polygon fill="none" stroke="#bfbfbf" points="1913,-0.5 1913,-19.5 1957,-19.5 1957,-0.5 1913,-0.5"/>
<text text-anchor="middle" x="1935" y="-7.5" font-family="Helvetica,sans-Serif" font-size="10.00">time.h</text>
</a>
</g>
</g>
<!-- Node3&#45;&gt;Node6 -->
<g id="edge5" class="edge">
<title>Node3&#45;&gt;Node6</title>
<path fill="none" stroke="midnightblue" d="M1290.27,-65.36C1411.35,-64.95 1673.86,-59.31 1902.61,-19.86"/>
<polygon fill="midnightblue" stroke="midnightblue" points="1903.54,-23.25 1912.79,-18.07 1902.33,-16.35 1903.54,-23.25"/>
</g>
<!-- Node7 -->
<g id="node7" class="node">
<title>Node7</title>
<g id="a_node7"><a xlink:title=" ">
<polygon fill="none" stroke="#bfbfbf" points="251.5,-0.5 251.5,-19.5 292.5,-19.5 292.5,-0.5 251.5,-0.5"/>
<text text-anchor="middle" x="272" y="-7.5" font-family="Helvetica,sans-Serif" font-size="10.00">ctime</text>
</a>
</g>
</g>
<!-- Node3&#45;&gt;Node7 -->
<g id="edge6" class="edge">
<title>Node3&#45;&gt;Node7</title>
<path fill="none" stroke="midnightblue" d="M1155.89,-63.92C975.83,-60.67 484.03,-49.45 302.7,-19.83"/>
<polygon fill="midnightblue" stroke="midnightblue" points="303.2,-16.36 292.75,-18.13 302.02,-23.26 303.2,-16.36"/>
</g>
<!-- Node8 -->
<g id="node8" class="node">
<title>Node8</title>
<g id="a_node8"><a xlink:title=" ">
<polygon fill="none" stroke="#bfbfbf" points="310.5,-0.5 310.5,-19.5 403.5,-19.5 403.5,-0.5 310.5,-0.5"/>
<text text-anchor="middle" x="357" y="-7.5" font-family="Helvetica,sans-Serif" font-size="10.00">condition_variable</text>
</a>
</g>
</g>
<!-- Node3&#45;&gt;Node8 -->
<g id="edge7" class="edge">
<title>Node3&#45;&gt;Node8</title>
<path fill="none" stroke="midnightblue" d="M1155.87,-63.63C1018.51,-60.31 695.32,-49.87 413.7,-19.95"/>
<polygon fill="midnightblue" stroke="midnightblue" points="414.02,-16.46 403.7,-18.88 413.27,-23.42 414.02,-16.46"/>
</g>
<!-- Node9 -->
<g id="node9" class="node">
<title>Node9</title>
<g id="a_node9"><a xlink:title=" ">
<polygon fill="none" stroke="#bfbfbf" points="422,-0.5 422,-19.5 520,-19.5 520,-0.5 422,-0.5"/>
<text text-anchor="middle" x="471" y="-7.5" font-family="Helvetica,sans-Serif" font-size="10.00">nlohmann/json.hpp</text>
</a>
</g>
</g>
<!-- Node3&#45;&gt;Node9 -->
<g id="edge8" class="edge">
<title>Node3&#45;&gt;Node9</title>
<path fill="none" stroke="midnightblue" d="M1155.83,-62.64C1033.48,-57.9 765.95,-45.52 530.15,-20.03"/>
<polygon fill="midnightblue" stroke="midnightblue" points="530.33,-16.52 520.01,-18.92 529.57,-23.48 530.33,-16.52"/>
</g>
<!-- Node10 -->
<g id="node10" class="node">
<title>Node10</title>
<g id="a_node10"><a xlink:title=" ">
<polygon fill="none" stroke="#bfbfbf" points="538.5,-0.5 538.5,-19.5 623.5,-19.5 623.5,-0.5 538.5,-0.5"/>
<text text-anchor="middle" x="581" y="-7.5" font-family="Helvetica,sans-Serif" font-size="10.00">source_location</text>
</a>
</g>
</g>
<!-- Node3&#45;&gt;Node10 -->
<g id="edge9" class="edge">
<title>Node3&#45;&gt;Node10</title>
<path fill="none" stroke="midnightblue" d="M1155.87,-62.05C1047.89,-56.83 828.78,-44.27 633.68,-20.1"/>
<polygon fill="midnightblue" stroke="midnightblue" points="633.89,-16.6 623.53,-18.83 633.02,-23.54 633.89,-16.6"/>
</g>
<!-- Node11 -->
<g id="node11" class="node">
<title>Node11</title>
<g id="a_node11"><a xlink:title=" ">
<polygon fill="none" stroke="#bfbfbf" points="641.5,-0.5 641.5,-19.5 724.5,-19.5 724.5,-0.5 641.5,-0.5"/>
<text text-anchor="middle" x="683" y="-7.5" font-family="Helvetica,sans-Serif" font-size="10.00">unordered_map</text>
</a>
</g>
</g>
<!-- Node3&#45;&gt;Node11 -->
<g id="edge10" class="edge">
<title>Node3&#45;&gt;Node11</title>
<path fill="none" stroke="midnightblue" d="M1155.97,-60.6C1063.6,-54.14 891.78,-40.72 735.01,-20.02"/>
<polygon fill="midnightblue" stroke="midnightblue" points="735.08,-16.5 724.7,-18.65 734.15,-23.44 735.08,-16.5"/>
</g>
<!-- Node12 -->
<g id="node12" class="node">
<title>Node12</title>
<g id="a_node12"><a xlink:title=" ">
<polygon fill="none" stroke="#bfbfbf" points="743,-0.5 743,-19.5 821,-19.5 821,-0.5 743,-0.5"/>
<text text-anchor="middle" x="782" y="-7.5" font-family="Helvetica,sans-Serif" font-size="10.00">shared_mutex</text>
</a>
</g>
</g>
<!-- Node3&#45;&gt;Node12 -->
<g id="edge11" class="edge">
<title>Node3&#45;&gt;Node12</title>
<path fill="none" stroke="midnightblue" d="M1155.7,-58.77C1079.43,-51.37 951.17,-37.94 831.34,-20.11"/>
<polygon fill="midnightblue" stroke="midnightblue" points="831.66,-16.62 821.25,-18.6 830.62,-23.54 831.66,-16.62"/>
</g>
<!-- Node13 -->
<g id="node13" class="node">
<title>Node13</title>
<g id="a_node13"><a xlink:title=" ">
<polygon fill="none" stroke="#bfbfbf" points="839,-0.5 839,-19.5 897,-19.5 897,-0.5 839,-0.5"/>
<text text-anchor="middle" x="868" y="-7.5" font-family="Helvetica,sans-Serif" font-size="10.00">functional</text>
</a>
</g>
</g>
<!-- Node3&#45;&gt;Node13 -->
<g id="edge12" class="edge">
<title>Node3&#45;&gt;Node13</title>
<path fill="none" stroke="midnightblue" d="M1155.92,-57.29C1093.82,-49.73 998.73,-37.13 907.37,-20.12"/>
<polygon fill="midnightblue" stroke="midnightblue" points="907.88,-16.65 897.4,-18.24 906.58,-23.53 907.88,-16.65"/>
</g>
<!-- Node14 -->
<g id="node14" class="node">
<title>Node14</title>
<g id="a_node14"><a xlink:title=" ">
<polygon fill="none" stroke="#bfbfbf" points="915,-0.5 915,-19.5 971,-19.5 971,-0.5 915,-0.5"/>
<text text-anchor="middle" x="943" y="-7.5" font-family="Helvetica,sans-Serif" font-size="10.00">coroutine</text>
</a>
</g>
</g>
<!-- Node3&#45;&gt;Node14 -->
<g id="edge13" class="edge">
<title>Node3&#45;&gt;Node14</title>
<path fill="none" stroke="midnightblue" d="M1172.11,-56.42C1125.04,-48.3 1052.92,-35.37 981.34,-20.2"/>
<polygon fill="midnightblue" stroke="midnightblue" points="981.76,-16.71 971.24,-18.04 980.29,-23.55 981.76,-16.71"/>
</g>
<!-- Node15 -->
<g id="node15" class="node">
<title>Node15</title>
<g id="a_node15"><a xlink:title=" ">
<polygon fill="none" stroke="#bfbfbf" points="101.5,-0.5 101.5,-19.5 166.5,-19.5 166.5,-0.5 101.5,-0.5"/>
<text text-anchor="middle" x="134" y="-7.5" font-family="Helvetica,sans-Serif" font-size="10.00">semaphore</text>
</a>
</g>
</g>
<!-- Node3&#45;&gt;Node15 -->
<g id="edge14" class="edge">
<title>Node3&#45;&gt;Node15</title>
<path fill="none" stroke="midnightblue" d="M1155.75,-62.78C996.76,-57.34 585.25,-42.17 242,-20 220.42,-18.61 196.44,-16.65 176.57,-14.92"/>
<polygon fill="midnightblue" stroke="midnightblue" points="176.86,-11.43 166.59,-14.03 176.24,-18.4 176.86,-11.43"/>
</g>
<!-- Node16 -->
<g id="node16" class="node">
<title>Node16</title>
<g id="a_node16"><a xlink:title=" ">
<polygon fill="none" stroke="#bfbfbf" points="989,-0.5 989,-19.5 1045,-19.5 1045,-0.5 989,-0.5"/>
<text text-anchor="middle" x="1017" y="-7.5" font-family="Helvetica,sans-Serif" font-size="10.00">concepts</text>
</a>
</g>
</g>
<!-- Node3&#45;&gt;Node16 -->
<g id="edge15" class="edge">
<title>Node3&#45;&gt;Node16</title>
<path fill="none" stroke="midnightblue" d="M1190.36,-56.44C1153.6,-46.81 1093.93,-31.17 1055.07,-20.98"/>
<polygon fill="midnightblue" stroke="midnightblue" points="1055.75,-17.54 1045.19,-18.39 1053.97,-24.31 1055.75,-17.54"/>
</g>
<!-- Node17 -->
<g id="node17" class="node">
<title>Node17</title>
<g id="a_node17"><a xlink:title=" ">
<polygon fill="none" stroke="#bfbfbf" points="1063,-0.5 1063,-19.5 1117,-19.5 1117,-0.5 1063,-0.5"/>
<text text-anchor="middle" x="1090" y="-7.5" font-family="Helvetica,sans-Serif" font-size="10.00">iostream</text>
</a>
</g>
</g>
<!-- Node3&#45;&gt;Node17 -->
<g id="edge16" class="edge">
<title>Node3&#45;&gt;Node17</title>
<path fill="none" stroke="midnightblue" d="M1201.93,-56.44C1179.94,-47.52 1145.27,-33.44 1120.34,-23.32"/>
<polygon fill="midnightblue" stroke="midnightblue" points="1121.56,-20.04 1110.98,-19.52 1118.92,-26.52 1121.56,-20.04"/>
</g>
<!-- Node18 -->
<g id="node18" class="node">
<title>Node18</title>
<g id="a_node18"><a xlink:title=" ">
<polygon fill="none" stroke="#bfbfbf" points="1135.5,-0.5 1135.5,-19.5 1184.5,-19.5 1184.5,-0.5 1135.5,-0.5"/>
<text text-anchor="middle" x="1160" y="-7.5" font-family="Helvetica,sans-Serif" font-size="10.00">fstream</text>
</a>
</g>
</g>
<!-- Node3&#45;&gt;Node18 -->
<g id="edge17" class="edge">
<title>Node3&#45;&gt;Node18</title>
<path fill="none" stroke="midnightblue" d="M1212.88,-56.32C1203.47,-48.26 1189.26,-36.08 1177.93,-26.37"/>
<polygon fill="midnightblue" stroke="midnightblue" points="1180.18,-23.68 1170.31,-19.83 1175.62,-29 1180.18,-23.68"/>
</g>
<!-- Node19 -->
<g id="node19" class="node">
<title>Node19</title>
<g id="a_node19"><a xlink:title=" ">
<polygon fill="none" stroke="#bfbfbf" points="1202.5,-0.5 1202.5,-19.5 1243.5,-19.5 1243.5,-0.5 1202.5,-0.5"/>
<text text-anchor="middle" x="1223" y="-7.5" font-family="Helvetica,sans-Serif" font-size="10.00">bitset</text>
</a>
</g>
</g>
<!-- Node3&#45;&gt;Node19 -->
<g id="edge18" class="edge">
<title>Node3&#45;&gt;Node19</title>
<path fill="none" stroke="midnightblue" d="M1223,-56.08C1223,-49.01 1223,-38.86 1223,-29.99"/>
<polygon fill="midnightblue" stroke="midnightblue" points="1226.5,-29.75 1223,-19.75 1219.5,-29.75 1226.5,-29.75"/>
</g>
<!-- Node20 -->
<g id="node20" class="node">
<title>Node20</title>
<g id="a_node20"><a xlink:title=" ">
<polygon fill="none" stroke="#bfbfbf" points="1262,-0.5 1262,-19.5 1314,-19.5 1314,-0.5 1262,-0.5"/>
<text text-anchor="middle" x="1288" y="-7.5" font-family="Helvetica,sans-Serif" font-size="10.00">memory</text>
</a>
</g>
</g>
<!-- Node3&#45;&gt;Node20 -->
<g id="edge19" class="edge">
<title>Node3&#45;&gt;Node20</title>
<path fill="none" stroke="midnightblue" d="M1233.44,-56.32C1243.15,-48.26 1257.82,-36.08 1269.5,-26.37"/>
<polygon fill="midnightblue" stroke="midnightblue" points="1271.91,-28.92 1277.37,-19.83 1267.44,-23.53 1271.91,-28.92"/>
</g>
<!-- Node21 -->
<g id="node21" class="node">
<title>Node21</title>
<g id="a_node21"><a xlink:title=" ">
<polygon fill="none" stroke="#bfbfbf" points="1332.5,-0.5 1332.5,-19.5 1381.5,-19.5 1381.5,-0.5 1332.5,-0.5"/>
<text text-anchor="middle" x="1357" y="-7.5" font-family="Helvetica,sans-Serif" font-size="10.00">random</text>
</a>
</g>
</g>
<!-- Node3&#45;&gt;Node21 -->
<g id="edge20" class="edge">
<title>Node3&#45;&gt;Node21</title>
<path fill="none" stroke="midnightblue" d="M1244.23,-56.44C1266.38,-47.52 1301.32,-33.44 1326.44,-23.32"/>
<polygon fill="midnightblue" stroke="midnightblue" points="1327.9,-26.5 1335.87,-19.52 1325.28,-20.01 1327.9,-26.5"/>
</g>
<!-- Node22 -->
<g id="node22" class="node">
<title>Node22</title>
<g id="a_node22"><a xlink:title=" ">
<polygon fill="none" stroke="#bfbfbf" points="1399.5,-0.5 1399.5,-19.5 1440.5,-19.5 1440.5,-0.5 1399.5,-0.5"/>
<text text-anchor="middle" x="1420" y="-7.5" font-family="Helvetica,sans-Serif" font-size="10.00">string</text>
</a>
</g>
</g>
<!-- Node3&#45;&gt;Node22 -->
<g id="edge21" class="edge">
<title>Node3&#45;&gt;Node22</title>
<path fill="none" stroke="midnightblue" d="M1255.72,-56.48C1287.46,-48.14 1337.24,-34.9 1389.57,-20.06"/>
<polygon fill="midnightblue" stroke="midnightblue" points="1390.71,-23.38 1399.37,-17.27 1388.79,-16.65 1390.71,-23.38"/>
</g>
<!-- Node23 -->
<g id="node23" class="node">
<title>Node23</title>
<g id="a_node23"><a xlink:title=" ">
<polygon fill="none" stroke="#bfbfbf" points="1459,-0.5 1459,-19.5 1501,-19.5 1501,-0.5 1459,-0.5"/>
<text text-anchor="middle" x="1480" y="-7.5" font-family="Helvetica,sans-Serif" font-size="10.00">vector</text>
</a>
</g>
</g>
<!-- Node3&#45;&gt;Node23 -->
<g id="edge22" class="edge">
<title>Node3&#45;&gt;Node23</title>
<path fill="none" stroke="midnightblue" d="M1272.2,-56.46C1318.17,-48.19 1388.57,-34.76 1449,-20 1449.1,-19.98 1449.2,-19.95 1449.3,-19.93"/>
<polygon fill="midnightblue" stroke="midnightblue" points="1449.94,-23.38 1458.72,-17.44 1448.16,-16.61 1449.94,-23.38"/>
</g>
<!-- Node24 -->
<g id="node24" class="node">
<title>Node24</title>
<g id="a_node24"><a xlink:title=" ">
<polygon fill="none" stroke="#bfbfbf" points="1519,-0.5 1519,-19.5 1563,-19.5 1563,-0.5 1519,-0.5"/>
<text text-anchor="middle" x="1541" y="-7.5" font-family="Helvetica,sans-Serif" font-size="10.00">thread</text>
</a>
</g>
</g>
<!-- Node3&#45;&gt;Node24 -->
<g id="edge23" class="edge">
<title>Node3&#45;&gt;Node24</title>
<path fill="none" stroke="midnightblue" d="M1290.14,-56.93C1346.31,-49.61 1428.68,-37.59 1508.96,-20"/>
<polygon fill="midnightblue" stroke="midnightblue" points="1509.73,-23.42 1518.74,-17.83 1508.22,-16.58 1509.73,-23.42"/>
</g>
<!-- Node25 -->
<g id="node25" class="node">
<title>Node25</title>
<g id="a_node25"><a xlink:title=" ">
<polygon fill="none" stroke="#bfbfbf" points="1581,-0.5 1581,-19.5 1625,-19.5 1625,-0.5 1581,-0.5"/>
<text text-anchor="middle" x="1603" y="-7.5" font-family="Helvetica,sans-Serif" font-size="10.00">mutex</text>
</a>
</g>
</g>
<!-- Node3&#45;&gt;Node25 -->
<g id="edge24" class="edge">
<title>Node3&#45;&gt;Node25</title>
<path fill="none" stroke="midnightblue" d="M1290.09,-59.45C1358.53,-53.09 1467.87,-41 1570.81,-19.97"/>
<polygon fill="midnightblue" stroke="midnightblue" points="1571.67,-23.36 1580.75,-17.9 1570.25,-16.51 1571.67,-23.36"/>
</g>
<!-- Node26 -->
<g id="node26" class="node">
<title>Node26</title>
<g id="a_node26"><a xlink:title=" ">
<polygon fill="none" stroke="#bfbfbf" points="1643.5,-0.5 1643.5,-19.5 1686.5,-19.5 1686.5,-0.5 1643.5,-0.5"/>
<text text-anchor="middle" x="1665" y="-7.5" font-family="Helvetica,sans-Serif" font-size="10.00">queue</text>
</a>
</g>
</g>
<!-- Node3&#45;&gt;Node26 -->
<g id="edge25" class="edge">
<title>Node3&#45;&gt;Node26</title>
<path fill="none" stroke="midnightblue" d="M1290.1,-61.24C1369.84,-55.97 1506.95,-44.38 1633.56,-19.73"/>
<polygon fill="midnightblue" stroke="midnightblue" points="1634.31,-23.15 1643.44,-17.78 1632.95,-16.29 1634.31,-23.15"/>
</g>
<!-- Node27 -->
<g id="node27" class="node">
<title>Node27</title>
<g id="a_node27"><a xlink:title=" ">
<polygon fill="none" stroke="#bfbfbf" points="1704.5,-0.5 1704.5,-19.5 1739.5,-19.5 1739.5,-0.5 1704.5,-0.5"/>
<text text-anchor="middle" x="1722" y="-7.5" font-family="Helvetica,sans-Serif" font-size="10.00">map</text>
</a>
</g>
</g>
<!-- Node3&#45;&gt;Node27 -->
<g id="edge26" class="edge">
<title>Node3&#45;&gt;Node27</title>
<path fill="none" stroke="midnightblue" d="M1290.16,-63.37C1380.37,-60.13 1545.57,-50.49 1694.64,-19.56"/>
<polygon fill="midnightblue" stroke="midnightblue" points="1695.38,-22.98 1704.44,-17.49 1693.93,-16.13 1695.38,-22.98"/>
</g>
<!-- Node28&#45;&gt;Node2 -->
<g id="edge28" class="edge">
<title>Node28&#45;&gt;Node2</title>
<path fill="none" stroke="midnightblue" d="M1374.51,-587.03C1508.21,-578.04 1768,-550.26 1768,-470 1768,-470 1768,-470 1768,-244 1768,-204.08 1741.69,-196.9 1706,-179 1648.02,-149.92 1468.99,-136.85 1365.66,-131.59"/>
<polygon fill="midnightblue" stroke="midnightblue" points="1365.76,-128.1 1355.6,-131.1 1365.41,-135.09 1365.76,-128.1"/>
</g>
<!-- Node29 -->
<g id="node29" class="node">
<title>Node29</title>
<g id="a_node29"><a xlink:href="../../d9/dd4/a00776.html" target="_top" xlink:title=" ">
<polygon fill="none" stroke="black" points="1230,-515.5 1230,-545.5 1364,-545.5 1364,-515.5 1230,-515.5"/>
<text text-anchor="start" x="1238" y="-533.5" font-family="Helvetica,sans-Serif" font-size="10.00">discordcoreapi/WebSocket</text>
<text text-anchor="middle" x="1297" y="-522.5" font-family="Helvetica,sans-Serif" font-size="10.00">Entities.hpp</text>
</a>
</g>
</g>
<!-- Node28&#45;&gt;Node29 -->
<g id="edge29" class="edge">
<title>Node28&#45;&gt;Node29</title>
<path fill="none" stroke="midnightblue" d="M1297,-582.48C1297,-575.47 1297,-565.19 1297,-555.7"/>
<polygon fill="midnightblue" stroke="midnightblue" points="1300.5,-555.52 1297,-545.52 1293.5,-555.52 1300.5,-555.52"/>
</g>
<!-- Node29&#45;&gt;Node2 -->
<g id="edge62" class="edge">
<title>Node29&#45;&gt;Node2</title>
<path fill="none" stroke="midnightblue" d="M1364.34,-527.66C1461.89,-523.85 1636.58,-512.46 1689,-479 1717.79,-460.62 1730,-448.16 1730,-414 1730,-414 1730,-414 1730,-244 1730,-205.87 1707.55,-197.12 1674,-179 1622.29,-151.07 1462.14,-137.74 1365.76,-132.09"/>
<polygon fill="midnightblue" stroke="midnightblue" points="1365.96,-128.59 1355.78,-131.52 1365.56,-135.58 1365.96,-128.59"/>
</g>
<!-- Node30 -->
<g id="node30" class="node">
<title>Node30</title>
<g id="a_node30"><a xlink:href="../../d4/d9b/a00680.html" target="_top" xlink:title=" ">
<polygon fill="none" stroke="black" points="1216,-235.5 1216,-254.5 1378,-254.5 1378,-235.5 1216,-235.5"/>
<text text-anchor="middle" x="1297" y="-242.5" font-family="Helvetica,sans-Serif" font-size="10.00">discordcoreapi/AudioDecoder.hpp</text>
</a>
</g>
</g>
<!-- Node29&#45;&gt;Node30 -->
<g id="edge30" class="edge">
<title>Node29&#45;&gt;Node30</title>
<path fill="none" stroke="midnightblue" d="M1297,-515.28C1297,-493.48 1297,-450.49 1297,-414 1297,-414 1297,-414 1297,-356 1297,-323.95 1297,-286.64 1297,-264.75"/>
<polygon fill="midnightblue" stroke="midnightblue" points="1300.5,-264.56 1297,-254.56 1293.5,-264.56 1300.5,-264.56"/>
</g>
<!-- Node31 -->
<g id="node31" class="node">
<title>Node31</title>
<g id="a_node31"><a xlink:href="../../d4/d6a/a00704.html" target="_top" xlink:title=" ">
<polygon fill="none" stroke="black" points="1104,-179.5 1104,-198.5 1262,-198.5 1262,-179.5 1104,-179.5"/>
<text text-anchor="middle" x="1183" y="-186.5" font-family="Helvetica,sans-Serif" font-size="10.00">discordcoreapi/EventEntities.hpp</text>
</a>
</g>
</g>
<!-- Node29&#45;&gt;Node31 -->
<g id="edge61" class="edge">
<title>Node29&#45;&gt;Node31</title>
<path fill="none" stroke="midnightblue" d="M1268.41,-515.48C1235.53,-497.11 1186,-461.56 1186,-414 1186,-414 1186,-414 1186,-300 1186,-267.94 1184.71,-230.63 1183.82,-208.74"/>
<polygon fill="midnightblue" stroke="midnightblue" points="1187.31,-208.4 1183.39,-198.56 1180.32,-208.69 1187.31,-208.4"/>
</g>
<!-- Node34 -->
<g id="node34" class="node">
<title>Node34</title>
<g id="a_node34"><a xlink:href="../../d0/db6/a00692.html" target="_top" xlink:title=" ">
<polygon fill="none" stroke="black" points="1493.5,-459.5 1493.5,-478.5 1680.5,-478.5 1680.5,-459.5 1493.5,-459.5"/>
<text text-anchor="middle" x="1587" y="-466.5" font-family="Helvetica,sans-Serif" font-size="10.00">discordcoreapi/CommandController.hpp</text>
</a>
</g>
</g>
<!-- Node29&#45;&gt;Node34 -->
<g id="edge36" class="edge">
<title>Node29&#45;&gt;Node34</title>
<path fill="none" stroke="midnightblue" d="M1364.26,-515.7C1416.44,-505 1487.67,-490.38 1535.41,-480.59"/>
<polygon fill="midnightblue" stroke="midnightblue" points="1536.13,-484.01 1545.22,-478.57 1534.72,-477.15 1536.13,-484.01"/>
</g>
<!-- Node36 -->
<g id="node36" class="node">
<title>Node36</title>
<g id="a_node36"><a xlink:href="../../d3/d4f/a00761.html" target="_top" xlink:title=" ">
<polygon fill="none" stroke="black" points="1004,-347.5 1004,-366.5 1154,-366.5 1154,-347.5 1004,-347.5"/>
<text text-anchor="middle" x="1079" y="-354.5" font-family="Helvetica,sans-Serif" font-size="10.00">discordcoreapi/ThreadPool.hpp</text>
</a>
</g>
</g>
<!-- Node29&#45;&gt;Node36 -->
<g id="edge64" class="edge">
<title>Node29&#45;&gt;Node36</title>
<path fill="none" stroke="midnightblue" d="M1245.13,-515.45C1221.31,-507.33 1193.62,-495.43 1172,-479 1133.82,-449.99 1103.14,-401.53 1088.44,-375.61"/>
<polygon fill="midnightblue" stroke="midnightblue" points="1091.35,-373.64 1083.45,-366.58 1085.23,-377.03 1091.35,-373.64"/>
</g>
<!-- Node38 -->
<g id="node38" class="node">
<title>Node38</title>
<g id="a_node38"><a xlink:href="../../d5/de8/a00749.html" target="_top" xlink:title=" ">
<polygon fill="none" stroke="black" points="575,-235.5 575,-254.5 725,-254.5 725,-235.5 575,-235.5"/>
<text text-anchor="middle" x="650" y="-242.5" font-family="Helvetica,sans-Serif" font-size="10.00">discordcoreapi/SSLClients.hpp</text>
</a>
</g>
</g>
<!-- Node29&#45;&gt;Node38 -->
<g id="edge63" class="edge">
<title>Node29&#45;&gt;Node38</title>
<path fill="none" stroke="midnightblue" d="M1229.89,-524.51C1064.38,-511.32 650,-472.44 650,-414 650,-414 650,-414 650,-356 650,-323.95 650,-286.64 650,-264.75"/>
<polygon fill="midnightblue" stroke="midnightblue" points="653.5,-264.56 650,-254.56 646.5,-264.56 653.5,-264.56"/>
</g>
<!-- Node51 -->
<g id="node51" class="node">
<title>Node51</title>
<g id="a_node51"><a xlink:href="../../dd/d57/a00701.html" target="_top" xlink:title=" ">
<polygon fill="none" stroke="black" points="1343,-403.5 1343,-422.5 1487,-422.5 1487,-403.5 1343,-403.5"/>
<text text-anchor="middle" x="1415" y="-410.5" font-family="Helvetica,sans-Serif" font-size="10.00">discordcoreapi/ErlPacker.hpp</text>
</a>
</g>
</g>
<!-- Node29&#45;&gt;Node51 -->
<g id="edge59" class="edge">
<title>Node29&#45;&gt;Node51</title>
<path fill="none" stroke="midnightblue" d="M1311.47,-515.34C1333.6,-493.68 1375.71,-452.45 1398.82,-429.83"/>
<polygon fill="midnightblue" stroke="midnightblue" points="1401.44,-432.17 1406.14,-422.67 1396.55,-427.16 1401.44,-432.17"/>
</g>
<!-- Node30&#45;&gt;Node2 -->
<g id="edge33" class="edge">
<title>Node30&#45;&gt;Node2</title>
<path fill="none" stroke="midnightblue" d="M1296.47,-235.32C1295.42,-217.97 1293.03,-178.46 1291.46,-152.66"/>
<polygon fill="midnightblue" stroke="midnightblue" points="1294.95,-152.32 1290.85,-142.55 1287.96,-152.74 1294.95,-152.32"/>
</g>
<!-- Node30&#45;&gt;Node31 -->
<g id="edge31" class="edge">
<title>Node30&#45;&gt;Node31</title>
<path fill="none" stroke="midnightblue" d="M1278.94,-235.44C1260.43,-226.68 1231.42,-212.94 1210.14,-202.86"/>
<polygon fill="midnightblue" stroke="midnightblue" points="1211.51,-199.63 1200.98,-198.52 1208.52,-205.96 1211.51,-199.63"/>
</g>
<!-- Node32 -->
<g id="node32" class="node">
<title>Node32</title>
<g id="a_node32"><a xlink:title=" ">
<polygon fill="none" stroke="#bfbfbf" points="1478,-179.5 1478,-198.5 1588,-198.5 1588,-179.5 1478,-179.5"/>
<text text-anchor="middle" x="1533" y="-186.5" font-family="Helvetica,sans-Serif" font-size="10.00">libavformat/avformat.h</text>
</a>
</g>
</g>
<!-- Node30&#45;&gt;Node32 -->
<g id="edge34" class="edge">
<title>Node30&#45;&gt;Node32</title>
<path fill="none" stroke="midnightblue" d="M1334.39,-235.44C1375.39,-226.06 1441.25,-210.99 1485.78,-200.8"/>
<polygon fill="midnightblue" stroke="midnightblue" points="1486.81,-204.16 1495.78,-198.52 1485.25,-197.34 1486.81,-204.16"/>
</g>
<!-- Node33 -->
<g id="node33" class="node">
<title>Node33</title>
<g id="a_node33"><a xlink:title=" ">
<polygon fill="none" stroke="#bfbfbf" points="1318.5,-179.5 1318.5,-198.5 1459.5,-198.5 1459.5,-179.5 1318.5,-179.5"/>
<text text-anchor="middle" x="1389" y="-186.5" font-family="Helvetica,sans-Serif" font-size="10.00">libswresample/swresample.h</text>
</a>
</g>
</g>
<!-- Node30&#45;&gt;Node33 -->
<g id="edge35" class="edge">
<title>Node30&#45;&gt;Node33</title>
<path fill="none" stroke="midnightblue" d="M1311.78,-235.32C1326.27,-226.82 1348.57,-213.73 1365.49,-203.8"/>
<polygon fill="midnightblue" stroke="midnightblue" points="1367.4,-206.74 1374.26,-198.65 1363.86,-200.7 1367.4,-206.74"/>
</g>
<!-- Node31&#45;&gt;Node2 -->
<g id="edge32" class="edge">
<title>Node31&#45;&gt;Node2</title>
<path fill="none" stroke="midnightblue" d="M1198.33,-179.48C1213.3,-171.15 1236.58,-158.21 1255.93,-147.45"/>
<polygon fill="midnightblue" stroke="midnightblue" points="1257.74,-150.44 1264.78,-142.52 1254.34,-144.32 1257.74,-150.44"/>
</g>
<!-- Node34&#45;&gt;Node2 -->
<g id="edge58" class="edge">
<title>Node34&#45;&gt;Node2</title>
<path fill="none" stroke="midnightblue" d="M1612.8,-459.48C1630.8,-452.33 1654.17,-440.45 1669,-423 1688.85,-399.65 1692,-388.64 1692,-358 1692,-358 1692,-358 1692,-244 1692,-208.35 1675.52,-197.42 1645,-179 1599.33,-151.43 1455.68,-138.14 1365.73,-132.37"/>
<polygon fill="midnightblue" stroke="midnightblue" points="1365.77,-128.86 1355.58,-131.73 1365.34,-135.85 1365.77,-128.86"/>
</g>
<!-- Node35 -->
<g id="node35" class="node">
<title>Node35</title>
<g id="a_node35"><a xlink:href="../../d5/d5b/a00695.html" target="_top" xlink:title=" ">
<polygon fill="none" stroke="black" points="1514,-403.5 1514,-422.5 1660,-422.5 1660,-403.5 1514,-403.5"/>
<text text-anchor="middle" x="1587" y="-410.5" font-family="Helvetica,sans-Serif" font-size="10.00">discordcoreapi/CoRoutine.hpp</text>
</a>
</g>
</g>
<!-- Node34&#45;&gt;Node35 -->
<g id="edge37" class="edge">
<title>Node34&#45;&gt;Node35</title>
<path fill="none" stroke="midnightblue" d="M1587,-459.08C1587,-452.01 1587,-441.86 1587,-432.99"/>
<polygon fill="midnightblue" stroke="midnightblue" points="1590.5,-432.75 1587,-422.75 1583.5,-432.75 1590.5,-432.75"/>
</g>
<!-- Node35&#45;&gt;Node2 -->
<g id="edge38" class="edge">
<title>Node35&#45;&gt;Node2</title>
<path fill="none" stroke="midnightblue" d="M1596.89,-403.4C1615.52,-386.18 1654,-345.38 1654,-302 1654,-302 1654,-302 1654,-244 1654,-211.19 1645.81,-197.92 1619,-179 1579.3,-150.98 1449.79,-137.98 1365.6,-132.36"/>
<polygon fill="midnightblue" stroke="midnightblue" points="1365.77,-128.86 1355.56,-131.71 1365.31,-135.85 1365.77,-128.86"/>
</g>
<!-- Node35&#45;&gt;Node36 -->
<g id="edge39" class="edge">
<title>Node35&#45;&gt;Node36</title>
<path fill="none" stroke="midnightblue" d="M1513.95,-404.23C1421.4,-394.4 1262.2,-377.47 1164.21,-367.06"/>
<polygon fill="midnightblue" stroke="midnightblue" points="1164.36,-363.55 1154.05,-365.98 1163.62,-370.51 1164.36,-363.55"/>
</g>
<!-- Node36&#45;&gt;Node2 -->
<g id="edge40" class="edge">
<title>Node36&#45;&gt;Node2</title>
<path fill="none" stroke="midnightblue" d="M1076.7,-347.34C1069.8,-319.2 1052.27,-229.34 1095,-179 1110.66,-160.55 1166.39,-147.29 1214.28,-139"/>
<polygon fill="midnightblue" stroke="midnightblue" points="1215.08,-142.41 1224.36,-137.3 1213.92,-135.51 1215.08,-142.41"/>
</g>
<!-- Node37 -->
<g id="node37" class="node">
<title>Node37</title>
<g id="a_node37"><a xlink:href="../../db/d7c/a00722.html" target="_top" xlink:title=" ">
<polygon fill="none" stroke="black" points="678.5,-291.5 678.5,-310.5 803.5,-310.5 803.5,-291.5 678.5,-291.5"/>
<text text-anchor="middle" x="741" y="-298.5" font-family="Helvetica,sans-Serif" font-size="10.00">discordcoreapi/Https.hpp</text>
</a>
</g>
</g>
<!-- Node36&#45;&gt;Node37 -->
<g id="edge41" class="edge">
<title>Node36&#45;&gt;Node37</title>
<path fill="none" stroke="midnightblue" d="M1025.44,-347.44C965.37,-337.85 868.01,-322.29 804.24,-312.1"/>
<polygon fill="midnightblue" stroke="midnightblue" points="804.73,-308.64 794.31,-310.52 803.63,-315.55 804.73,-308.64"/>
</g>
<!-- Node37&#45;&gt;Node15 -->
<g id="edge57" class="edge">
<title>Node37&#45;&gt;Node15</title>
<path fill="none" stroke="midnightblue" d="M678.46,-297.27C499.82,-288.63 0,-258.36 0,-190 0,-190 0,-190 0,-126.5 0,-74.01 59.72,-40.13 99.43,-23.4"/>
<polygon fill="midnightblue" stroke="midnightblue" points="100.84,-26.61 108.8,-19.61 98.21,-20.12 100.84,-26.61"/>
</g>
<!-- Node37&#45;&gt;Node38 -->
<g id="edge42" class="edge">
<title>Node37&#45;&gt;Node38</title>
<path fill="none" stroke="midnightblue" d="M726.38,-291.32C712.05,-282.82 689.99,-269.73 673.25,-259.8"/>
<polygon fill="midnightblue" stroke="midnightblue" points="674.97,-256.75 664.58,-254.65 671.4,-262.77 674.97,-256.75"/>
</g>
<!-- Node38&#45;&gt;Node2 -->
<g id="edge53" class="edge">
<title>Node38&#45;&gt;Node2</title>
<path fill="none" stroke="midnightblue" d="M725.32,-241.49C800.64,-237.42 919.17,-226.79 1018,-199 1038.68,-193.18 1041.63,-185.8 1062,-179 1111.69,-162.4 1169.32,-149.7 1214.2,-141.18"/>
<polygon fill="midnightblue" stroke="midnightblue" points="1214.97,-144.6 1224.15,-139.32 1213.68,-137.71 1214.97,-144.6"/>
</g>
<!-- Node38&#45;&gt;Node31 -->
<g id="edge54" class="edge">
<title>Node38&#45;&gt;Node31</title>
<path fill="none" stroke="midnightblue" d="M725.24,-236.38C822.16,-226.56 990.41,-209.51 1093.71,-199.05"/>
<polygon fill="midnightblue" stroke="midnightblue" points="1094.21,-202.51 1103.8,-198.02 1093.5,-195.55 1094.21,-202.51"/>
</g>
<!-- Node39 -->
<g id="node39" class="node">
<title>Node39</title>
<g id="a_node39"><a xlink:title=" ">
<polygon fill="none" stroke="#bfbfbf" points="250.5,-179.5 250.5,-198.5 293.5,-198.5 293.5,-179.5 250.5,-179.5"/>
<text text-anchor="middle" x="272" y="-186.5" font-family="Helvetica,sans-Serif" font-size="10.00">fcntl.h</text>
</a>
</g>
</g>
<!-- Node38&#45;&gt;Node39 -->
<g id="edge43" class="edge">
<title>Node38&#45;&gt;Node39</title>
<path fill="none" stroke="midnightblue" d="M574.73,-237.83C506.12,-231.4 401.93,-219.61 303.35,-199"/>
<polygon fill="midnightblue" stroke="midnightblue" points="304.03,-195.57 293.52,-196.91 302.58,-202.42 304.03,-195.57"/>
</g>
<!-- Node40 -->
<g id="node40" class="node">
<title>Node40</title>
<g id="a_node40"><a xlink:title=" ">
<polygon fill="none" stroke="#bfbfbf" points="311.5,-179.5 311.5,-198.5 360.5,-198.5 360.5,-179.5 311.5,-179.5"/>
<text text-anchor="middle" x="336" y="-186.5" font-family="Helvetica,sans-Serif" font-size="10.00">netdb.h</text>
</a>
</g>
</g>
<!-- Node38&#45;&gt;Node40 -->
<g id="edge44" class="edge">
<title>Node38&#45;&gt;Node40</title>
<path fill="none" stroke="midnightblue" d="M584.05,-235.48C529.21,-227.93 448.96,-215.81 370.81,-199.22"/>
<polygon fill="midnightblue" stroke="midnightblue" points="371.31,-195.75 360.8,-197.07 369.84,-202.59 371.31,-195.75"/>
</g>
<!-- Node41 -->
<g id="node41" class="node">
<title>Node41</title>
<g id="a_node41"><a xlink:title=" ">
<polygon fill="none" stroke="#bfbfbf" points="378.5,-179.5 378.5,-198.5 443.5,-198.5 443.5,-179.5 378.5,-179.5"/>
<text text-anchor="middle" x="411" y="-186.5" font-family="Helvetica,sans-Serif" font-size="10.00">netinet/in.h</text>
</a>
</g>
</g>
<!-- Node38&#45;&gt;Node41 -->
<g id="edge45" class="edge">
<title>Node38&#45;&gt;Node41</title>
<path fill="none" stroke="midnightblue" d="M612.13,-235.44C568.93,-225.68 498.48,-209.77 453.46,-199.59"/>
<polygon fill="midnightblue" stroke="midnightblue" points="454.23,-196.18 443.7,-197.39 452.68,-203.01 454.23,-196.18"/>
</g>
<!-- Node42 -->
<g id="node42" class="node">
<title>Node42</title>
<g id="a_node42"><a xlink:title=" ">
<polygon fill="none" stroke="#bfbfbf" points="461.5,-179.5 461.5,-198.5 532.5,-198.5 532.5,-179.5 461.5,-179.5"/>
<text text-anchor="middle" x="497" y="-186.5" font-family="Helvetica,sans-Serif" font-size="10.00">netinet/tcp.h</text>
</a>
</g>
</g>
<!-- Node38&#45;&gt;Node42 -->
<g id="edge46" class="edge">
<title>Node38&#45;&gt;Node42</title>
<path fill="none" stroke="midnightblue" d="M625.76,-235.44C600.13,-226.4 559.51,-212.06 530.76,-201.92"/>
<polygon fill="midnightblue" stroke="midnightblue" points="531.72,-198.54 521.13,-198.52 529.39,-205.15 531.72,-198.54"/>
</g>
<!-- Node43 -->
<g id="node43" class="node">
<title>Node43</title>
<g id="a_node43"><a xlink:title=" ">
<polygon fill="none" stroke="#bfbfbf" points="550.5,-179.5 550.5,-198.5 599.5,-198.5 599.5,-179.5 550.5,-179.5"/>
<text text-anchor="middle" x="575" y="-186.5" font-family="Helvetica,sans-Serif" font-size="10.00">stdint.h</text>
</a>
</g>
</g>
<!-- Node38&#45;&gt;Node43 -->
<g id="edge47" class="edge">
<title>Node38&#45;&gt;Node43</title>
<path fill="none" stroke="midnightblue" d="M637.95,-235.32C626.54,-227.11 609.17,-214.6 595.57,-204.81"/>
<polygon fill="midnightblue" stroke="midnightblue" points="597.43,-201.84 587.27,-198.83 593.34,-207.52 597.43,-201.84"/>
</g>
<!-- Node44 -->
<g id="node44" class="node">
<title>Node44</title>
<g id="a_node44"><a xlink:title=" ">
<polygon fill="none" stroke="#bfbfbf" points="618,-179.5 618,-198.5 682,-198.5 682,-179.5 618,-179.5"/>
<text text-anchor="middle" x="650" y="-186.5" font-family="Helvetica,sans-Serif" font-size="10.00">sys/epoll.h</text>
</a>
</g>
</g>
<!-- Node38&#45;&gt;Node44 -->
<g id="edge48" class="edge">
<title>Node38&#45;&gt;Node44</title>
<path fill="none" stroke="midnightblue" d="M650,-235.08C650,-228.01 650,-217.86 650,-208.99"/>
<polygon fill="midnightblue" stroke="midnightblue" points="653.5,-208.75 650,-198.75 646.5,-208.75 653.5,-208.75"/>
</g>
<!-- Node45 -->
<g id="node45" class="node">
<title>Node45</title>
<g id="a_node45"><a xlink:title=" ">
<polygon fill="none" stroke="#bfbfbf" points="700,-179.5 700,-198.5 762,-198.5 762,-179.5 700,-179.5"/>
<text text-anchor="middle" x="731" y="-186.5" font-family="Helvetica,sans-Serif" font-size="10.00">arpa/inet.h</text>
</a>
</g>
</g>
<!-- Node38&#45;&gt;Node45 -->
<g id="edge49" class="edge">
<title>Node38&#45;&gt;Node45</title>
<path fill="none" stroke="midnightblue" d="M663.01,-235.32C675.53,-226.98 694.68,-214.21 709.47,-204.35"/>
<polygon fill="midnightblue" stroke="midnightblue" points="711.64,-207.11 718.02,-198.65 707.76,-201.29 711.64,-207.11"/>
</g>
<!-- Node46 -->
<g id="node46" class="node">
<title>Node46</title>
<g id="a_node46"><a xlink:title=" ">
<polygon fill="none" stroke="#bfbfbf" points="780.5,-179.5 780.5,-198.5 853.5,-198.5 853.5,-179.5 780.5,-179.5"/>
<text text-anchor="middle" x="817" y="-186.5" font-family="Helvetica,sans-Serif" font-size="10.00">sys/socket.h</text>
</a>
</g>
</g>
<!-- Node38&#45;&gt;Node46 -->
<g id="edge50" class="edge">
<title>Node38&#45;&gt;Node46</title>
<path fill="none" stroke="midnightblue" d="M676.46,-235.44C704.68,-226.32 749.54,-211.81 780.97,-201.65"/>
<polygon fill="midnightblue" stroke="midnightblue" points="782.22,-204.92 790.66,-198.52 780.07,-198.26 782.22,-204.92"/>
</g>
<!-- Node47 -->
<g id="node47" class="node">
<title>Node47</title>
<g id="a_node47"><a xlink:title=" ">
<polygon fill="none" stroke="#bfbfbf" points="872,-179.5 872,-198.5 940,-198.5 940,-179.5 872,-179.5"/>
<text text-anchor="middle" x="906" y="-186.5" font-family="Helvetica,sans-Serif" font-size="10.00">sys/types.h</text>
</a>
</g>
</g>
<!-- Node38&#45;&gt;Node47 -->
<g id="edge51" class="edge">
<title>Node38&#45;&gt;Node47</title>
<path fill="none" stroke="midnightblue" d="M690.56,-235.44C737.29,-225.59 813.79,-209.45 861.95,-199.29"/>
<polygon fill="midnightblue" stroke="midnightblue" points="862.71,-202.71 871.77,-197.22 861.26,-195.86 862.71,-202.71"/>
</g>
<!-- Node48 -->
<g id="node48" class="node">
<title>Node48</title>
<g id="a_node48"><a xlink:title=" ">
<polygon fill="none" stroke="#bfbfbf" points="958.5,-179.5 958.5,-198.5 1009.5,-198.5 1009.5,-179.5 958.5,-179.5"/>
<text text-anchor="middle" x="984" y="-186.5" font-family="Helvetica,sans-Serif" font-size="10.00">unistd.h</text>
</a>
</g>
</g>
<!-- Node38&#45;&gt;Node48 -->
<g id="edge52" class="edge">
<title>Node38&#45;&gt;Node48</title>
<path fill="none" stroke="midnightblue" d="M720.44,-235.47C778.94,-227.91 864.5,-215.76 948.49,-198.91"/>
<polygon fill="midnightblue" stroke="midnightblue" points="949.35,-202.31 958.46,-196.89 947.96,-195.45 949.35,-202.31"/>
</g>
<!-- Node49 -->
<g id="node49" class="node">
<title>Node49</title>
<g id="a_node49"><a xlink:title=" ">
<polygon fill="none" stroke="#bfbfbf" points="66.5,-179.5 66.5,-198.5 139.5,-198.5 139.5,-179.5 66.5,-179.5"/>
<text text-anchor="middle" x="103" y="-186.5" font-family="Helvetica,sans-Serif" font-size="10.00">openssl/err.h</text>
</a>
</g>
</g>
<!-- Node38&#45;&gt;Node49 -->
<g id="edge55" class="edge">
<title>Node38&#45;&gt;Node49</title>
<path fill="none" stroke="midnightblue" d="M574.6,-239.67C478.42,-233.6 306.79,-220.94 149.91,-198.98"/>
<polygon fill="midnightblue" stroke="midnightblue" points="149.99,-195.45 139.6,-197.52 149.01,-202.38 149.99,-195.45"/>
</g>
<!-- Node50 -->
<g id="node50" class="node">
<title>Node50</title>
<g id="a_node50"><a xlink:title=" ">
<polygon fill="none" stroke="#bfbfbf" points="158,-179.5 158,-198.5 232,-198.5 232,-179.5 158,-179.5"/>
<text text-anchor="middle" x="195" y="-186.5" font-family="Helvetica,sans-Serif" font-size="10.00">openssl/ssl.h</text>
</a>
</g>
</g>
<!-- Node38&#45;&gt;Node50 -->
<g id="edge56" class="edge">
<title>Node38&#45;&gt;Node50</title>
<path fill="none" stroke="midnightblue" d="M574.75,-237.62C494.68,-230.4 364.1,-217.4 242.01,-199.04"/>
<polygon fill="midnightblue" stroke="midnightblue" points="242.52,-195.58 232.11,-197.54 241.47,-202.5 242.52,-195.58"/>
</g>
<!-- Node51&#45;&gt;Node2 -->
<g id="edge60" class="edge">
<title>Node51&#45;&gt;Node2</title>
<path fill="none" stroke="midnightblue" d="M1481.65,-403.45C1540.16,-391.76 1616,-364.55 1616,-302 1616,-302 1616,-302 1616,-244 1616,-213.9 1619.53,-198.95 1597,-179 1563.55,-149.38 1445.14,-136.96 1365.54,-131.87"/>
<polygon fill="midnightblue" stroke="midnightblue" points="1365.74,-128.37 1355.54,-131.26 1365.31,-135.36 1365.74,-128.37"/>
</g>
</g>
</svg>
