<?xml version="1.0" encoding="UTF-8" standalone="no"?>
<!DOCTYPE svg PUBLIC "-//W3C//DTD SVG 1.1//EN"
 "http://www.w3.org/Graphics/SVG/1.1/DTD/svg11.dtd">
<!-- Generated by graphviz version 3.0.0 (20220226.1711)
 -->
<!-- Title: ReactionEntities.hpp Pages: 1 -->
<svg width="2332pt" height="666pt"
 viewBox="0.00 0.00 2331.70 666.00" xmlns="http://www.w3.org/2000/svg" xmlns:xlink="http://www.w3.org/1999/xlink">
<g id="graph0" class="graph" transform="scale(1 1) rotate(0) translate(4 662)">
<title>ReactionEntities.hpp</title>
<!-- Node1 -->
<g id="node1" class="node">
<title>Node1</title>
<g id="a_node1"><a xlink:title=" ">
<polygon fill="#bfbfbf" stroke="black" points="592.7,-638.5 592.7,-657.5 699.7,-657.5 699.7,-638.5 592.7,-638.5"/>
<text text-anchor="middle" x="646.2" y="-645.5" font-family="Helvetica,sans-Serif" font-size="10.00">ReactionEntities.hpp</text>
</a>
</g>
</g>
<!-- Node2 -->
<g id="node2" class="node">
<title>Node2</title>
<g id="a_node2"><a xlink:href="../../d4/deb/a00710.html" target="_top" xlink:title=" ">
<polygon fill="none" stroke="black" points="1495.7,-112.5 1495.7,-142.5 1626.7,-142.5 1626.7,-112.5 1495.7,-112.5"/>
<text text-anchor="start" x="1503.7" y="-130.5" font-family="Helvetica,sans-Serif" font-size="10.00">discordcoreapi/Foundation</text>
<text text-anchor="middle" x="1561.2" y="-119.5" font-family="Helvetica,sans-Serif" font-size="10.00">Entities.hpp</text>
</a>
</g>
</g>
<!-- Node1&#45;&gt;Node2 -->
<g id="edge1" class="edge">
<title>Node1&#45;&gt;Node2</title>
<path fill="none" stroke="midnightblue" d="M592.59,-643.05C437.81,-630.92 1.2,-591.4 1.2,-531.5 1.2,-531.5 1.2,-531.5 1.2,-244 1.2,-213.9 -3.59,-197.44 20.2,-179 78.57,-133.74 1182.18,-128.98 1484.94,-128.53"/>
<polygon fill="midnightblue" stroke="midnightblue" points="1485.37,-132.03 1495.37,-128.52 1485.36,-125.03 1485.37,-132.03"/>
</g>
<!-- Node28 -->
<g id="node28" class="node">
<title>Node28</title>
<g id="a_node28"><a xlink:href="../../d3/d2c/a00764.html" target="_top" xlink:title=" ">
<polygon fill="none" stroke="black" points="1235.7,-582.5 1235.7,-601.5 1390.7,-601.5 1390.7,-582.5 1235.7,-582.5"/>
<text text-anchor="middle" x="1313.2" y="-589.5" font-family="Helvetica,sans-Serif" font-size="10.00">discordcoreapi/UserEntities.hpp</text>
</a>
</g>
</g>
<!-- Node1&#45;&gt;Node28 -->
<g id="edge27" class="edge">
<title>Node1&#45;&gt;Node28</title>
<path fill="none" stroke="midnightblue" d="M699.93,-642.65C814.8,-633.35 1085.15,-611.46 1225.38,-600.11"/>
<polygon fill="midnightblue" stroke="midnightblue" points="1225.98,-603.57 1235.66,-599.28 1225.41,-596.6 1225.98,-603.57"/>
</g>
<!-- Node3 -->
<g id="node3" class="node">
<title>Node3</title>
<g id="a_node3"><a xlink:href="../../d5/dae/a00767.html" target="_top" xlink:title=" ">
<polygon fill="none" stroke="black" points="1494.2,-56.5 1494.2,-75.5 1628.2,-75.5 1628.2,-56.5 1494.2,-56.5"/>
<text text-anchor="middle" x="1561.2" y="-63.5" font-family="Helvetica,sans-Serif" font-size="10.00">discordcoreapi/Utilities.hpp</text>
</a>
</g>
</g>
<!-- Node2&#45;&gt;Node3 -->
<g id="edge2" class="edge">
<title>Node2&#45;&gt;Node3</title>
<path fill="none" stroke="midnightblue" d="M1561.2,-112.4C1561.2,-104.47 1561.2,-94.46 1561.2,-85.86"/>
<polygon fill="midnightblue" stroke="midnightblue" points="1564.7,-85.66 1561.2,-75.66 1557.7,-85.66 1564.7,-85.66"/>
</g>
<!-- Node4 -->
<g id="node4" class="node">
<title>Node4</title>
<g id="a_node4"><a xlink:title=" ">
<polygon fill="none" stroke="#bfbfbf" points="533.7,-0.5 533.7,-19.5 590.7,-19.5 590.7,-0.5 533.7,-0.5"/>
<text text-anchor="middle" x="562.2" y="-7.5" font-family="Helvetica,sans-Serif" font-size="10.00">pthread.h</text>
</a>
</g>
</g>
<!-- Node3&#45;&gt;Node4 -->
<g id="edge3" class="edge">
<title>Node3&#45;&gt;Node4</title>
<path fill="none" stroke="midnightblue" d="M1494.07,-63.48C1308.77,-59.03 791.85,-44.84 600.67,-19.72"/>
<polygon fill="midnightblue" stroke="midnightblue" points="601.1,-16.24 590.72,-18.36 600.16,-23.18 601.1,-16.24"/>
</g>
<!-- Node5 -->
<g id="node5" class="node">
<title>Node5</title>
<g id="a_node5"><a xlink:title=" ">
<polygon fill="none" stroke="#bfbfbf" points="609.2,-0.5 609.2,-19.5 671.2,-19.5 671.2,-0.5 609.2,-0.5"/>
<text text-anchor="middle" x="640.2" y="-7.5" font-family="Helvetica,sans-Serif" font-size="10.00">sys/time.h</text>
</a>
</g>
</g>
<!-- Node3&#45;&gt;Node5 -->
<g id="edge4" class="edge">
<title>Node3&#45;&gt;Node5</title>
<path fill="none" stroke="midnightblue" d="M1493.97,-65.45C1347.69,-65.6 989.57,-61.41 681.56,-19.95"/>
<polygon fill="midnightblue" stroke="midnightblue" points="681.93,-16.47 671.55,-18.58 680.98,-23.4 681.93,-16.47"/>
</g>
<!-- Node6 -->
<g id="node6" class="node">
<title>Node6</title>
<g id="a_node6"><a xlink:title=" ">
<polygon fill="none" stroke="#bfbfbf" points="689.2,-0.5 689.2,-19.5 733.2,-19.5 733.2,-0.5 689.2,-0.5"/>
<text text-anchor="middle" x="711.2" y="-7.5" font-family="Helvetica,sans-Serif" font-size="10.00">time.h</text>
</a>
</g>
</g>
<!-- Node3&#45;&gt;Node6 -->
<g id="edge5" class="edge">
<title>Node3&#45;&gt;Node6</title>
<path fill="none" stroke="midnightblue" d="M1494.07,-63.28C1328.87,-58.74 904.91,-45.13 743.64,-19.79"/>
<polygon fill="midnightblue" stroke="midnightblue" points="743.84,-16.28 733.41,-18.1 742.7,-23.18 743.84,-16.28"/>
</g>
<!-- Node7 -->
<g id="node7" class="node">
<title>Node7</title>
<g id="a_node7"><a xlink:title=" ">
<polygon fill="none" stroke="#bfbfbf" points="751.7,-0.5 751.7,-19.5 792.7,-19.5 792.7,-0.5 751.7,-0.5"/>
<text text-anchor="middle" x="772.2" y="-7.5" font-family="Helvetica,sans-Serif" font-size="10.00">ctime</text>
</a>
</g>
</g>
<!-- Node3&#45;&gt;Node7 -->
<g id="edge6" class="edge">
<title>Node3&#45;&gt;Node7</title>
<path fill="none" stroke="midnightblue" d="M1493.93,-63.1C1337.49,-58.36 951.83,-44.68 803.24,-19.91"/>
<polygon fill="midnightblue" stroke="midnightblue" points="803.41,-16.38 792.95,-18.1 802.2,-23.28 803.41,-16.38"/>
</g>
<!-- Node8 -->
<g id="node8" class="node">
<title>Node8</title>
<g id="a_node8"><a xlink:title=" ">
<polygon fill="none" stroke="#bfbfbf" points="810.7,-0.5 810.7,-19.5 903.7,-19.5 903.7,-0.5 810.7,-0.5"/>
<text text-anchor="middle" x="857.2" y="-7.5" font-family="Helvetica,sans-Serif" font-size="10.00">condition_variable</text>
</a>
</g>
</g>
<!-- Node3&#45;&gt;Node8 -->
<g id="edge7" class="edge">
<title>Node3&#45;&gt;Node8</title>
<path fill="none" stroke="midnightblue" d="M1493.85,-62.32C1377.68,-57.27 1131.96,-44.64 913.94,-19.97"/>
<polygon fill="midnightblue" stroke="midnightblue" points="914.24,-16.49 903.9,-18.83 913.44,-23.44 914.24,-16.49"/>
</g>
<!-- Node9 -->
<g id="node9" class="node">
<title>Node9</title>
<g id="a_node9"><a xlink:title=" ">
<polygon fill="none" stroke="#bfbfbf" points="922.2,-0.5 922.2,-19.5 1020.2,-19.5 1020.2,-0.5 922.2,-0.5"/>
<text text-anchor="middle" x="971.2" y="-7.5" font-family="Helvetica,sans-Serif" font-size="10.00">nlohmann/json.hpp</text>
</a>
</g>
</g>
<!-- Node3&#45;&gt;Node9 -->
<g id="edge8" class="edge">
<title>Node3&#45;&gt;Node9</title>
<path fill="none" stroke="midnightblue" d="M1493.86,-60.81C1394.67,-54.31 1203.24,-40.48 1030.26,-20.05"/>
<polygon fill="midnightblue" stroke="midnightblue" points="1030.55,-16.56 1020.21,-18.85 1029.73,-23.51 1030.55,-16.56"/>
</g>
<!-- Node10 -->
<g id="node10" class="node">
<title>Node10</title>
<g id="a_node10"><a xlink:title=" ">
<polygon fill="none" stroke="#bfbfbf" points="1038.7,-0.5 1038.7,-19.5 1123.7,-19.5 1123.7,-0.5 1038.7,-0.5"/>
<text text-anchor="middle" x="1081.2" y="-7.5" font-family="Helvetica,sans-Serif" font-size="10.00">source_location</text>
</a>
</g>
</g>
<!-- Node3&#45;&gt;Node10 -->
<g id="edge9" class="edge">
<title>Node3&#45;&gt;Node10</title>
<path fill="none" stroke="midnightblue" d="M1494.14,-59.43C1411.63,-52.25 1267.03,-38.61 1133.72,-20.13"/>
<polygon fill="midnightblue" stroke="midnightblue" points="1134.13,-16.66 1123.74,-18.74 1133.16,-23.59 1134.13,-16.66"/>
</g>
<!-- Node11 -->
<g id="node11" class="node">
<title>Node11</title>
<g id="a_node11"><a xlink:title=" ">
<polygon fill="none" stroke="#bfbfbf" points="1141.7,-0.5 1141.7,-19.5 1224.7,-19.5 1224.7,-0.5 1141.7,-0.5"/>
<text text-anchor="middle" x="1183.2" y="-7.5" font-family="Helvetica,sans-Serif" font-size="10.00">unordered_map</text>
</a>
</g>
</g>
<!-- Node3&#45;&gt;Node11 -->
<g id="edge10" class="edge">
<title>Node3&#45;&gt;Node11</title>
<path fill="none" stroke="midnightblue" d="M1494.08,-56.52C1430.16,-48.27 1330.99,-35.03 1235.09,-20.09"/>
<polygon fill="midnightblue" stroke="midnightblue" points="1235.34,-16.59 1224.92,-18.5 1234.26,-23.5 1235.34,-16.59"/>
</g>
<!-- Node12 -->
<g id="node12" class="node">
<title>Node12</title>
<g id="a_node12"><a xlink:title=" ">
<polygon fill="none" stroke="#bfbfbf" points="1243.2,-0.5 1243.2,-19.5 1321.2,-19.5 1321.2,-0.5 1243.2,-0.5"/>
<text text-anchor="middle" x="1282.2" y="-7.5" font-family="Helvetica,sans-Serif" font-size="10.00">shared_mutex</text>
</a>
</g>
</g>
<!-- Node3&#45;&gt;Node12 -->
<g id="edge11" class="edge">
<title>Node3&#45;&gt;Node12</title>
<path fill="none" stroke="midnightblue" d="M1516.99,-56.44C1466.43,-46.66 1383.87,-30.68 1331.33,-20.51"/>
<polygon fill="midnightblue" stroke="midnightblue" points="1331.73,-17.02 1321.25,-18.56 1330.4,-23.89 1331.73,-17.02"/>
</g>
<!-- Node13 -->
<g id="node13" class="node">
<title>Node13</title>
<g id="a_node13"><a xlink:title=" ">
<polygon fill="none" stroke="#bfbfbf" points="1339.2,-0.5 1339.2,-19.5 1397.2,-19.5 1397.2,-0.5 1339.2,-0.5"/>
<text text-anchor="middle" x="1368.2" y="-7.5" font-family="Helvetica,sans-Serif" font-size="10.00">functional</text>
</a>
</g>
</g>
<!-- Node3&#45;&gt;Node13 -->
<g id="edge12" class="edge">
<title>Node3&#45;&gt;Node13</title>
<path fill="none" stroke="midnightblue" d="M1530.61,-56.44C1497.19,-47.09 1443.56,-32.09 1407.15,-21.9"/>
<polygon fill="midnightblue" stroke="midnightblue" points="1407.94,-18.49 1397.37,-19.16 1406.06,-25.23 1407.94,-18.49"/>
</g>
<!-- Node14 -->
<g id="node14" class="node">
<title>Node14</title>
<g id="a_node14"><a xlink:title=" ">
<polygon fill="none" stroke="#bfbfbf" points="1415.2,-0.5 1415.2,-19.5 1471.2,-19.5 1471.2,-0.5 1415.2,-0.5"/>
<text text-anchor="middle" x="1443.2" y="-7.5" font-family="Helvetica,sans-Serif" font-size="10.00">coroutine</text>
</a>
</g>
</g>
<!-- Node3&#45;&gt;Node14 -->
<g id="edge13" class="edge">
<title>Node3&#45;&gt;Node14</title>
<path fill="none" stroke="midnightblue" d="M1542.5,-56.44C1523.25,-47.64 1493.04,-33.81 1471,-23.72"/>
<polygon fill="midnightblue" stroke="midnightblue" points="1472.36,-20.5 1461.81,-19.52 1469.44,-26.86 1472.36,-20.5"/>
</g>
<!-- Node15 -->
<g id="node15" class="node">
<title>Node15</title>
<g id="a_node15"><a xlink:title=" ">
<polygon fill="none" stroke="#bfbfbf" points="1489.7,-0.5 1489.7,-19.5 1554.7,-19.5 1554.7,-0.5 1489.7,-0.5"/>
<text text-anchor="middle" x="1522.2" y="-7.5" font-family="Helvetica,sans-Serif" font-size="10.00">semaphore</text>
</a>
</g>
</g>
<!-- Node3&#45;&gt;Node15 -->
<g id="edge14" class="edge">
<title>Node3&#45;&gt;Node15</title>
<path fill="none" stroke="midnightblue" d="M1554.76,-56.08C1549.25,-48.46 1541.16,-37.26 1534.43,-27.94"/>
<polygon fill="midnightblue" stroke="midnightblue" points="1537.21,-25.81 1528.52,-19.75 1531.53,-29.91 1537.21,-25.81"/>
</g>
<!-- Node16 -->
<g id="node16" class="node">
<title>Node16</title>
<g id="a_node16"><a xlink:title=" ">
<polygon fill="none" stroke="#bfbfbf" points="1573.2,-0.5 1573.2,-19.5 1629.2,-19.5 1629.2,-0.5 1573.2,-0.5"/>
<text text-anchor="middle" x="1601.2" y="-7.5" font-family="Helvetica,sans-Serif" font-size="10.00">concepts</text>
</a>
</g>
</g>
<!-- Node3&#45;&gt;Node16 -->
<g id="edge15" class="edge">
<title>Node3&#45;&gt;Node16</title>
<path fill="none" stroke="midnightblue" d="M1567.8,-56.08C1573.45,-48.46 1581.74,-37.26 1588.65,-27.94"/>
<polygon fill="midnightblue" stroke="midnightblue" points="1591.57,-29.87 1594.71,-19.75 1585.95,-25.7 1591.57,-29.87"/>
</g>
<!-- Node17 -->
<g id="node17" class="node">
<title>Node17</title>
<g id="a_node17"><a xlink:title=" ">
<polygon fill="none" stroke="#bfbfbf" points="1647.2,-0.5 1647.2,-19.5 1701.2,-19.5 1701.2,-0.5 1647.2,-0.5"/>
<text text-anchor="middle" x="1674.2" y="-7.5" font-family="Helvetica,sans-Serif" font-size="10.00">iostream</text>
</a>
</g>
</g>
<!-- Node3&#45;&gt;Node17 -->
<g id="edge16" class="edge">
<title>Node3&#45;&gt;Node17</title>
<path fill="none" stroke="midnightblue" d="M1579.1,-56.44C1597.45,-47.68 1626.2,-33.94 1647.29,-23.86"/>
<polygon fill="midnightblue" stroke="midnightblue" points="1648.86,-26.99 1656.37,-19.52 1645.84,-20.67 1648.86,-26.99"/>
</g>
<!-- Node18 -->
<g id="node18" class="node">
<title>Node18</title>
<g id="a_node18"><a xlink:title=" ">
<polygon fill="none" stroke="#bfbfbf" points="1719.7,-0.5 1719.7,-19.5 1768.7,-19.5 1768.7,-0.5 1719.7,-0.5"/>
<text text-anchor="middle" x="1744.2" y="-7.5" font-family="Helvetica,sans-Serif" font-size="10.00">fstream</text>
</a>
</g>
</g>
<!-- Node3&#45;&gt;Node18 -->
<g id="edge17" class="edge">
<title>Node3&#45;&gt;Node18</title>
<path fill="none" stroke="midnightblue" d="M1590.19,-56.44C1622.66,-46.86 1675.25,-31.34 1709.78,-21.15"/>
<polygon fill="midnightblue" stroke="midnightblue" points="1710.84,-24.49 1719.44,-18.3 1708.86,-17.78 1710.84,-24.49"/>
</g>
<!-- Node19 -->
<g id="node19" class="node">
<title>Node19</title>
<g id="a_node19"><a xlink:title=" ">
<polygon fill="none" stroke="#bfbfbf" points="1786.7,-0.5 1786.7,-19.5 1827.7,-19.5 1827.7,-0.5 1786.7,-0.5"/>
<text text-anchor="middle" x="1807.2" y="-7.5" font-family="Helvetica,sans-Serif" font-size="10.00">bitset</text>
</a>
</g>
</g>
<!-- Node3&#45;&gt;Node19 -->
<g id="edge18" class="edge">
<title>Node3&#45;&gt;Node19</title>
<path fill="none" stroke="midnightblue" d="M1607.81,-56.49C1649.59,-48.59 1712.74,-36 1776.74,-19.93"/>
<polygon fill="midnightblue" stroke="midnightblue" points="1777.77,-23.28 1786.6,-17.43 1776.05,-16.5 1777.77,-23.28"/>
</g>
<!-- Node20 -->
<g id="node20" class="node">
<title>Node20</title>
<g id="a_node20"><a xlink:title=" ">
<polygon fill="none" stroke="#bfbfbf" points="1846.2,-0.5 1846.2,-19.5 1898.2,-19.5 1898.2,-0.5 1846.2,-0.5"/>
<text text-anchor="middle" x="1872.2" y="-7.5" font-family="Helvetica,sans-Serif" font-size="10.00">memory</text>
</a>
</g>
</g>
<!-- Node3&#45;&gt;Node20 -->
<g id="edge19" class="edge">
<title>Node3&#45;&gt;Node20</title>
<path fill="none" stroke="midnightblue" d="M1622.36,-56.47C1675.97,-48.66 1756.2,-36.17 1835.71,-19.94"/>
<polygon fill="midnightblue" stroke="midnightblue" points="1836.82,-23.29 1845.91,-17.84 1835.41,-16.43 1836.82,-23.29"/>
</g>
<!-- Node21 -->
<g id="node21" class="node">
<title>Node21</title>
<g id="a_node21"><a xlink:title=" ">
<polygon fill="none" stroke="#bfbfbf" points="1916.7,-0.5 1916.7,-19.5 1965.7,-19.5 1965.7,-0.5 1916.7,-0.5"/>
<text text-anchor="middle" x="1941.2" y="-7.5" font-family="Helvetica,sans-Serif" font-size="10.00">random</text>
</a>
</g>
</g>
<!-- Node3&#45;&gt;Node21 -->
<g id="edge20" class="edge">
<title>Node3&#45;&gt;Node21</title>
<path fill="none" stroke="midnightblue" d="M1628.26,-58.88C1696.09,-52.1 1804.05,-39.7 1906.5,-19.9"/>
<polygon fill="midnightblue" stroke="midnightblue" points="1907.26,-23.32 1916.4,-17.96 1905.91,-16.45 1907.26,-23.32"/>
</g>
<!-- Node22 -->
<g id="node22" class="node">
<title>Node22</title>
<g id="a_node22"><a xlink:title=" ">
<polygon fill="none" stroke="#bfbfbf" points="1983.7,-0.5 1983.7,-19.5 2024.7,-19.5 2024.7,-0.5 1983.7,-0.5"/>
<text text-anchor="middle" x="2004.2" y="-7.5" font-family="Helvetica,sans-Serif" font-size="10.00">string</text>
</a>
</g>
</g>
<!-- Node3&#45;&gt;Node22 -->
<g id="edge21" class="edge">
<title>Node3&#45;&gt;Node22</title>
<path fill="none" stroke="midnightblue" d="M1628.3,-61.47C1708.41,-56.41 1846.44,-45.03 1973.74,-19.71"/>
<polygon fill="midnightblue" stroke="midnightblue" points="1974.56,-23.11 1983.67,-17.7 1973.17,-16.25 1974.56,-23.11"/>
</g>
<!-- Node23 -->
<g id="node23" class="node">
<title>Node23</title>
<g id="a_node23"><a xlink:title=" ">
<polygon fill="none" stroke="#bfbfbf" points="2043.2,-0.5 2043.2,-19.5 2085.2,-19.5 2085.2,-0.5 2043.2,-0.5"/>
<text text-anchor="middle" x="2064.2" y="-7.5" font-family="Helvetica,sans-Serif" font-size="10.00">vector</text>
</a>
</g>
</g>
<!-- Node3&#45;&gt;Node23 -->
<g id="edge22" class="edge">
<title>Node3&#45;&gt;Node23</title>
<path fill="none" stroke="midnightblue" d="M1628.59,-62.55C1720.68,-58.3 1890.69,-47.23 2033.2,-20 2033.3,-19.98 2033.4,-19.96 2033.5,-19.94"/>
<polygon fill="midnightblue" stroke="midnightblue" points="2034.04,-23.41 2042.98,-17.73 2032.44,-16.59 2034.04,-23.41"/>
</g>
<!-- Node24 -->
<g id="node24" class="node">
<title>Node24</title>
<g id="a_node24"><a xlink:title=" ">
<polygon fill="none" stroke="#bfbfbf" points="2103.2,-0.5 2103.2,-19.5 2147.2,-19.5 2147.2,-0.5 2103.2,-0.5"/>
<text text-anchor="middle" x="2125.2" y="-7.5" font-family="Helvetica,sans-Serif" font-size="10.00">thread</text>
</a>
</g>
</g>
<!-- Node3&#45;&gt;Node24 -->
<g id="edge23" class="edge">
<title>Node3&#45;&gt;Node24</title>
<path fill="none" stroke="midnightblue" d="M1628.24,-63.59C1727.89,-60.57 1920.94,-51.11 2092.98,-19.87"/>
<polygon fill="midnightblue" stroke="midnightblue" points="2093.77,-23.28 2102.97,-18.02 2092.5,-16.4 2093.77,-23.28"/>
</g>
<!-- Node25 -->
<g id="node25" class="node">
<title>Node25</title>
<g id="a_node25"><a xlink:title=" ">
<polygon fill="none" stroke="#bfbfbf" points="2165.2,-0.5 2165.2,-19.5 2209.2,-19.5 2209.2,-0.5 2165.2,-0.5"/>
<text text-anchor="middle" x="2187.2" y="-7.5" font-family="Helvetica,sans-Serif" font-size="10.00">mutex</text>
</a>
</g>
</g>
<!-- Node3&#45;&gt;Node25 -->
<g id="edge24" class="edge">
<title>Node3&#45;&gt;Node25</title>
<path fill="none" stroke="midnightblue" d="M1628.25,-64.43C1737.18,-62.53 1959.31,-54.54 2155.08,-19.83"/>
<polygon fill="midnightblue" stroke="midnightblue" points="2155.75,-23.26 2164.98,-18.05 2154.51,-16.38 2155.75,-23.26"/>
</g>
<!-- Node26 -->
<g id="node26" class="node">
<title>Node26</title>
<g id="a_node26"><a xlink:title=" ">
<polygon fill="none" stroke="#bfbfbf" points="2227.7,-0.5 2227.7,-19.5 2270.7,-19.5 2270.7,-0.5 2227.7,-0.5"/>
<text text-anchor="middle" x="2249.2" y="-7.5" font-family="Helvetica,sans-Serif" font-size="10.00">queue</text>
</a>
</g>
</g>
<!-- Node3&#45;&gt;Node26 -->
<g id="edge25" class="edge">
<title>Node3&#45;&gt;Node26</title>
<path fill="none" stroke="midnightblue" d="M1628.45,-65.12C1746.23,-64.3 1997.4,-57.97 2217.53,-19.68"/>
<polygon fill="midnightblue" stroke="midnightblue" points="2218.42,-23.08 2227.66,-17.89 2217.2,-16.19 2218.42,-23.08"/>
</g>
<!-- Node27 -->
<g id="node27" class="node">
<title>Node27</title>
<g id="a_node27"><a xlink:title=" ">
<polygon fill="none" stroke="#bfbfbf" points="2288.7,-0.5 2288.7,-19.5 2323.7,-19.5 2323.7,-0.5 2288.7,-0.5"/>
<text text-anchor="middle" x="2306.2" y="-7.5" font-family="Helvetica,sans-Serif" font-size="10.00">map</text>
</a>
</g>
</g>
<!-- Node3&#45;&gt;Node27 -->
<g id="edge26" class="edge">
<title>Node3&#45;&gt;Node27</title>
<path fill="none" stroke="midnightblue" d="M1628.28,-63.12C1778.38,-58.54 2138.49,-45.43 2278.39,-19.79"/>
<polygon fill="midnightblue" stroke="midnightblue" points="2279.32,-23.18 2288.47,-17.85 2277.99,-16.31 2279.32,-23.18"/>
</g>
<!-- Node28&#45;&gt;Node2 -->
<g id="edge28" class="edge">
<title>Node28&#45;&gt;Node2</title>
<path fill="none" stroke="midnightblue" d="M1390.81,-586.08C1519.54,-575.77 1763.2,-546.2 1763.2,-470 1763.2,-470 1763.2,-470 1763.2,-244 1763.2,-183.47 1694,-154.23 1636.61,-140.39"/>
<polygon fill="midnightblue" stroke="midnightblue" points="1637.31,-136.96 1626.78,-138.14 1635.75,-143.78 1637.31,-136.96"/>
</g>
<!-- Node29 -->
<g id="node29" class="node">
<title>Node29</title>
<g id="a_node29"><a xlink:href="../../d9/dd4/a00776.html" target="_top" xlink:title=" ">
<polygon fill="none" stroke="black" points="1246.2,-515.5 1246.2,-545.5 1380.2,-545.5 1380.2,-515.5 1246.2,-515.5"/>
<text text-anchor="start" x="1254.2" y="-533.5" font-family="Helvetica,sans-Serif" font-size="10.00">discordcoreapi/WebSocket</text>
<text text-anchor="middle" x="1313.2" y="-522.5" font-family="Helvetica,sans-Serif" font-size="10.00">Entities.hpp</text>
</a>
</g>
</g>
<!-- Node28&#45;&gt;Node29 -->
<g id="edge29" class="edge">
<title>Node28&#45;&gt;Node29</title>
<path fill="none" stroke="midnightblue" d="M1313.2,-582.48C1313.2,-575.47 1313.2,-565.19 1313.2,-555.7"/>
<polygon fill="midnightblue" stroke="midnightblue" points="1316.7,-555.52 1313.2,-545.52 1309.7,-555.52 1316.7,-555.52"/>
</g>
<!-- Node29&#45;&gt;Node2 -->
<g id="edge30" class="edge">
<title>Node29&#45;&gt;Node2</title>
<path fill="none" stroke="midnightblue" d="M1380.31,-524.58C1497.05,-514.17 1725.2,-484.76 1725.2,-414 1725.2,-414 1725.2,-414 1725.2,-244 1725.2,-193.12 1671.78,-162.69 1625.91,-145.95"/>
<polygon fill="midnightblue" stroke="midnightblue" points="1626.86,-142.57 1616.26,-142.58 1624.55,-149.18 1626.86,-142.57"/>
</g>
<!-- Node30 -->
<g id="node30" class="node">
<title>Node30</title>
<g id="a_node30"><a xlink:href="../../d4/d9b/a00680.html" target="_top" xlink:title=" ">
<polygon fill="none" stroke="black" points="246.2,-235.5 246.2,-254.5 408.2,-254.5 408.2,-235.5 246.2,-235.5"/>
<text text-anchor="middle" x="327.2" y="-242.5" font-family="Helvetica,sans-Serif" font-size="10.00">discordcoreapi/AudioDecoder.hpp</text>
</a>
</g>
</g>
<!-- Node29&#45;&gt;Node30 -->
<g id="edge31" class="edge">
<title>Node29&#45;&gt;Node30</title>
<path fill="none" stroke="midnightblue" d="M1246.04,-527.28C1047.18,-519.83 475.2,-491.65 475.2,-414 475.2,-414 475.2,-414 475.2,-356 475.2,-303.02 413.35,-272.57 369.62,-257.66"/>
<polygon fill="midnightblue" stroke="midnightblue" points="370.63,-254.31 360.04,-254.54 368.47,-260.97 370.63,-254.31"/>
</g>
<!-- Node31 -->
<g id="node31" class="node">
<title>Node31</title>
<g id="a_node31"><a xlink:href="../../d4/d6a/a00704.html" target="_top" xlink:title=" ">
<polygon fill="none" stroke="black" points="355.2,-179.5 355.2,-198.5 513.2,-198.5 513.2,-179.5 355.2,-179.5"/>
<text text-anchor="middle" x="434.2" y="-186.5" font-family="Helvetica,sans-Serif" font-size="10.00">discordcoreapi/EventEntities.hpp</text>
</a>
</g>
</g>
<!-- Node29&#45;&gt;Node31 -->
<g id="edge61" class="edge">
<title>Node29&#45;&gt;Node31</title>
<path fill="none" stroke="midnightblue" d="M1245.93,-526.77C1116.88,-519.68 847.2,-495.16 847.2,-414 847.2,-414 847.2,-414 847.2,-300 847.2,-264.21 612.63,-219.89 497.05,-200.22"/>
<polygon fill="midnightblue" stroke="midnightblue" points="497.37,-196.73 486.92,-198.51 496.2,-203.63 497.37,-196.73"/>
</g>
<!-- Node34 -->
<g id="node34" class="node">
<title>Node34</title>
<g id="a_node34"><a xlink:href="../../d0/db6/a00692.html" target="_top" xlink:title=" ">
<polygon fill="none" stroke="black" points="1341.7,-459.5 1341.7,-478.5 1528.7,-478.5 1528.7,-459.5 1341.7,-459.5"/>
<text text-anchor="middle" x="1435.2" y="-466.5" font-family="Helvetica,sans-Serif" font-size="10.00">discordcoreapi/CommandController.hpp</text>
</a>
</g>
</g>
<!-- Node29&#45;&gt;Node34 -->
<g id="edge37" class="edge">
<title>Node29&#45;&gt;Node34</title>
<path fill="none" stroke="midnightblue" d="M1342.11,-515.4C1362.21,-505.59 1388.82,-492.62 1408.43,-483.05"/>
<polygon fill="midnightblue" stroke="midnightblue" points="1409.99,-486.19 1417.44,-478.66 1406.92,-479.9 1409.99,-486.19"/>
</g>
<!-- Node36 -->
<g id="node36" class="node">
<title>Node36</title>
<g id="a_node36"><a xlink:href="../../d3/d4f/a00761.html" target="_top" xlink:title=" ">
<polygon fill="none" stroke="black" points="1300.2,-347.5 1300.2,-366.5 1450.2,-366.5 1450.2,-347.5 1300.2,-347.5"/>
<text text-anchor="middle" x="1375.2" y="-354.5" font-family="Helvetica,sans-Serif" font-size="10.00">discordcoreapi/ThreadPool.hpp</text>
</a>
</g>
</g>
<!-- Node29&#45;&gt;Node36 -->
<g id="edge63" class="edge">
<title>Node29&#45;&gt;Node36</title>
<path fill="none" stroke="midnightblue" d="M1314.56,-515.23C1317.27,-491.15 1324.67,-441.31 1342.2,-403 1346.87,-392.78 1354.09,-382.58 1360.58,-374.48"/>
<polygon fill="midnightblue" stroke="midnightblue" points="1363.44,-376.52 1367.19,-366.62 1358.08,-372.02 1363.44,-376.52"/>
</g>
<!-- Node38 -->
<g id="node38" class="node">
<title>Node38</title>
<g id="a_node38"><a xlink:href="../../d5/de8/a00749.html" target="_top" xlink:title=" ">
<polygon fill="none" stroke="black" points="1023.2,-235.5 1023.2,-254.5 1173.2,-254.5 1173.2,-235.5 1023.2,-235.5"/>
<text text-anchor="middle" x="1098.2" y="-242.5" font-family="Helvetica,sans-Serif" font-size="10.00">discordcoreapi/SSLClients.hpp</text>
</a>
</g>
</g>
<!-- Node29&#45;&gt;Node38 -->
<g id="edge62" class="edge">
<title>Node29&#45;&gt;Node38</title>
<path fill="none" stroke="midnightblue" d="M1253.39,-515.38C1204.08,-499.76 1142.2,-469.17 1142.2,-414 1142.2,-414 1142.2,-414 1142.2,-356 1142.2,-321.04 1122.8,-284.01 1109.76,-263.07"/>
<polygon fill="midnightblue" stroke="midnightblue" points="1112.68,-261.15 1104.31,-254.65 1106.81,-264.95 1112.68,-261.15"/>
</g>
<!-- Node51 -->
<g id="node51" class="node">
<title>Node51</title>
<g id="a_node51"><a xlink:href="../../dd/d57/a00701.html" target="_top" xlink:title=" ">
<polygon fill="none" stroke="black" points="1553.2,-403.5 1553.2,-422.5 1697.2,-422.5 1697.2,-403.5 1553.2,-403.5"/>
<text text-anchor="middle" x="1625.2" y="-410.5" font-family="Helvetica,sans-Serif" font-size="10.00">discordcoreapi/ErlPacker.hpp</text>
</a>
</g>
</g>
<!-- Node29&#45;&gt;Node51 -->
<g id="edge59" class="edge">
<title>Node29&#45;&gt;Node51</title>
<path fill="none" stroke="midnightblue" d="M1380.21,-521.79C1425.98,-514.77 1487.17,-501.88 1537.2,-479 1564.55,-466.49 1591.75,-444.58 1608.5,-429.69"/>
<polygon fill="midnightblue" stroke="midnightblue" points="1611.22,-431.95 1616.26,-422.63 1606.51,-426.77 1611.22,-431.95"/>
</g>
<!-- Node30&#45;&gt;Node2 -->
<g id="edge34" class="edge">
<title>Node30&#45;&gt;Node2</title>
<path fill="none" stroke="midnightblue" d="M326.82,-235.1C326.75,-220.68 328.97,-192.48 346.2,-179 391.14,-143.83 1227.03,-132.05 1485.61,-129.23"/>
<polygon fill="midnightblue" stroke="midnightblue" points="1485.7,-132.73 1495.67,-129.12 1485.63,-125.73 1485.7,-132.73"/>
</g>
<!-- Node30&#45;&gt;Node31 -->
<g id="edge32" class="edge">
<title>Node30&#45;&gt;Node31</title>
<path fill="none" stroke="midnightblue" d="M344.39,-235.32C361.55,-226.66 388.14,-213.24 407.94,-203.25"/>
<polygon fill="midnightblue" stroke="midnightblue" points="409.7,-206.28 417.05,-198.65 406.54,-200.04 409.7,-206.28"/>
</g>
<!-- Node32 -->
<g id="node32" class="node">
<title>Node32</title>
<g id="a_node32"><a xlink:title=" ">
<polygon fill="none" stroke="#bfbfbf" points="29.2,-179.5 29.2,-198.5 139.2,-198.5 139.2,-179.5 29.2,-179.5"/>
<text text-anchor="middle" x="84.2" y="-186.5" font-family="Helvetica,sans-Serif" font-size="10.00">libavformat/avformat.h</text>
</a>
</g>
</g>
<!-- Node30&#45;&gt;Node32 -->
<g id="edge35" class="edge">
<title>Node30&#45;&gt;Node32</title>
<path fill="none" stroke="midnightblue" d="M288.69,-235.44C246.39,-226.04 178.38,-210.93 132.52,-200.74"/>
<polygon fill="midnightblue" stroke="midnightblue" points="133.04,-197.27 122.52,-198.52 131.52,-204.1 133.04,-197.27"/>
</g>
<!-- Node33 -->
<g id="node33" class="node">
<title>Node33</title>
<g id="a_node33"><a xlink:title=" ">
<polygon fill="none" stroke="#bfbfbf" points="157.7,-179.5 157.7,-198.5 298.7,-198.5 298.7,-179.5 157.7,-179.5"/>
<text text-anchor="middle" x="228.2" y="-186.5" font-family="Helvetica,sans-Serif" font-size="10.00">libswresample/swresample.h</text>
</a>
</g>
</g>
<!-- Node30&#45;&gt;Node33 -->
<g id="edge36" class="edge">
<title>Node30&#45;&gt;Node33</title>
<path fill="none" stroke="midnightblue" d="M311.29,-235.32C295.56,-226.74 271.25,-213.49 252.99,-203.52"/>
<polygon fill="midnightblue" stroke="midnightblue" points="254.52,-200.37 244.06,-198.65 251.17,-206.52 254.52,-200.37"/>
</g>
<!-- Node31&#45;&gt;Node2 -->
<g id="edge33" class="edge">
<title>Node31&#45;&gt;Node2</title>
<path fill="none" stroke="midnightblue" d="M513.33,-179.71C516.32,-179.46 519.29,-179.22 522.2,-179 882.21,-151.86 1313.56,-136.31 1485.28,-130.8"/>
<polygon fill="midnightblue" stroke="midnightblue" points="1485.59,-134.29 1495.48,-130.48 1485.37,-127.3 1485.59,-134.29"/>
</g>
<!-- Node34&#45;&gt;Node2 -->
<g id="edge38" class="edge">
<title>Node34&#45;&gt;Node2</title>
<path fill="none" stroke="midnightblue" d="M1450.42,-459.46C1465.18,-450.94 1487.95,-437.1 1506.2,-423 1564.18,-378.19 1618.2,-375.28 1618.2,-302 1618.2,-302 1618.2,-302 1618.2,-244 1618.2,-208.66 1596.48,-172.94 1579.85,-150.78"/>
<polygon fill="midnightblue" stroke="midnightblue" points="1582.47,-148.44 1573.56,-142.7 1576.95,-152.74 1582.47,-148.44"/>
</g>
<!-- Node35 -->
<g id="node35" class="node">
<title>Node35</title>
<g id="a_node35"><a xlink:href="../../d5/d5b/a00695.html" target="_top" xlink:title=" ">
<polygon fill="none" stroke="black" points="1351.2,-403.5 1351.2,-422.5 1497.2,-422.5 1497.2,-403.5 1351.2,-403.5"/>
<text text-anchor="middle" x="1424.2" y="-410.5" font-family="Helvetica,sans-Serif" font-size="10.00">discordcoreapi/CoRoutine.hpp</text>
</a>
</g>
</g>
<!-- Node34&#45;&gt;Node35 -->
<g id="edge39" class="edge">
<title>Node34&#45;&gt;Node35</title>
<path fill="none" stroke="midnightblue" d="M1433.38,-459.08C1431.92,-451.93 1429.83,-441.64 1428,-432.69"/>
<polygon fill="midnightblue" stroke="midnightblue" points="1431.4,-431.85 1425.98,-422.75 1424.55,-433.25 1431.4,-431.85"/>
</g>
<!-- Node35&#45;&gt;Node2 -->
<g id="edge40" class="edge">
<title>Node35&#45;&gt;Node2</title>
<path fill="none" stroke="midnightblue" d="M1460.77,-403.46C1506.88,-390.27 1580.2,-360.16 1580.2,-302 1580.2,-302 1580.2,-302 1580.2,-244 1580.2,-212.07 1573.04,-175.83 1567.51,-152.59"/>
<polygon fill="midnightblue" stroke="midnightblue" points="1570.84,-151.47 1565.04,-142.6 1564.04,-153.15 1570.84,-151.47"/>
</g>
<!-- Node35&#45;&gt;Node36 -->
<g id="edge41" class="edge">
<title>Node35&#45;&gt;Node36</title>
<path fill="none" stroke="midnightblue" d="M1416.1,-403.08C1409.04,-395.3 1398.61,-383.8 1390.05,-374.37"/>
<polygon fill="midnightblue" stroke="midnightblue" points="1392.45,-371.8 1383.14,-366.75 1387.26,-376.51 1392.45,-371.8"/>
</g>
<!-- Node36&#45;&gt;Node2 -->
<g id="edge42" class="edge">
<title>Node36&#45;&gt;Node2</title>
<path fill="none" stroke="midnightblue" d="M1384.65,-347.49C1409.34,-324.96 1476.95,-261.2 1522.2,-199 1533.03,-184.11 1543.03,-165.9 1550.19,-151.71"/>
<polygon fill="midnightblue" stroke="midnightblue" points="1553.39,-153.14 1554.67,-142.62 1547.11,-150.04 1553.39,-153.14"/>
</g>
<!-- Node37 -->
<g id="node37" class="node">
<title>Node37</title>
<g id="a_node37"><a xlink:href="../../db/d7c/a00722.html" target="_top" xlink:title=" ">
<polygon fill="none" stroke="black" points="1268.7,-291.5 1268.7,-310.5 1393.7,-310.5 1393.7,-291.5 1268.7,-291.5"/>
<text text-anchor="middle" x="1331.2" y="-298.5" font-family="Helvetica,sans-Serif" font-size="10.00">discordcoreapi/Https.hpp</text>
</a>
</g>
</g>
<!-- Node36&#45;&gt;Node37 -->
<g id="edge43" class="edge">
<title>Node36&#45;&gt;Node37</title>
<path fill="none" stroke="midnightblue" d="M1367.93,-347.08C1361.65,-339.38 1352.41,-328.03 1344.77,-318.65"/>
<polygon fill="midnightblue" stroke="midnightblue" points="1347.36,-316.29 1338.33,-310.75 1341.93,-320.71 1347.36,-316.29"/>
</g>
<!-- Node37&#45;&gt;Node38 -->
<g id="edge44" class="edge">
<title>Node37&#45;&gt;Node38</title>
<path fill="none" stroke="midnightblue" d="M1294.28,-291.44C1253.8,-282.06 1188.78,-266.99 1144.81,-256.8"/>
<polygon fill="midnightblue" stroke="midnightblue" points="1145.48,-253.36 1134.94,-254.52 1143.89,-260.18 1145.48,-253.36"/>
</g>
<!-- Node38&#45;&gt;Node2 -->
<g id="edge45" class="edge">
<title>Node38&#45;&gt;Node2</title>
<path fill="none" stroke="midnightblue" d="M1112.48,-235.3C1140.28,-218.43 1199.84,-182.6 1210.2,-179 1301.38,-147.32 1412.53,-135.5 1484.99,-131.1"/>
<polygon fill="midnightblue" stroke="midnightblue" points="1485.61,-134.57 1495.39,-130.5 1485.21,-127.58 1485.61,-134.57"/>
</g>
<!-- Node38&#45;&gt;Node31 -->
<g id="edge46" class="edge">
<title>Node38&#45;&gt;Node31</title>
<path fill="none" stroke="midnightblue" d="M1023.13,-238.71C915.13,-230.98 709.37,-215.76 523.58,-199.11"/>
<polygon fill="midnightblue" stroke="midnightblue" points="523.62,-195.59 513.34,-198.18 522.99,-202.57 523.62,-195.59"/>
</g>
<!-- Node39 -->
<g id="node39" class="node">
<title>Node39</title>
<g id="a_node39"><a xlink:title=" ">
<polygon fill="none" stroke="#bfbfbf" points="1219.7,-179.5 1219.7,-198.5 1292.7,-198.5 1292.7,-179.5 1219.7,-179.5"/>
<text text-anchor="middle" x="1256.2" y="-186.5" font-family="Helvetica,sans-Serif" font-size="10.00">openssl/err.h</text>
</a>
</g>
</g>
<!-- Node38&#45;&gt;Node39 -->
<g id="edge47" class="edge">
<title>Node38&#45;&gt;Node39</title>
<path fill="none" stroke="midnightblue" d="M1123.23,-235.44C1149.81,-226.36 1192,-211.94 1221.72,-201.78"/>
<polygon fill="midnightblue" stroke="midnightblue" points="1222.95,-205.06 1231.28,-198.52 1220.68,-198.44 1222.95,-205.06"/>
</g>
<!-- Node40 -->
<g id="node40" class="node">
<title>Node40</title>
<g id="a_node40"><a xlink:title=" ">
<polygon fill="none" stroke="#bfbfbf" points="1311.2,-179.5 1311.2,-198.5 1385.2,-198.5 1385.2,-179.5 1311.2,-179.5"/>
<text text-anchor="middle" x="1348.2" y="-186.5" font-family="Helvetica,sans-Serif" font-size="10.00">openssl/ssl.h</text>
</a>
</g>
</g>
<!-- Node38&#45;&gt;Node40 -->
<g id="edge48" class="edge">
<title>Node38&#45;&gt;Node40</title>
<path fill="none" stroke="midnightblue" d="M1137.81,-235.44C1182.06,-225.88 1253.67,-210.42 1300.84,-200.23"/>
<polygon fill="midnightblue" stroke="midnightblue" points="1301.77,-203.61 1310.81,-198.08 1300.3,-196.77 1301.77,-203.61"/>
</g>
<!-- Node41 -->
<g id="node41" class="node">
<title>Node41</title>
<g id="a_node41"><a xlink:title=" ">
<polygon fill="none" stroke="#bfbfbf" points="1403.7,-179.5 1403.7,-198.5 1446.7,-198.5 1446.7,-179.5 1403.7,-179.5"/>
<text text-anchor="middle" x="1425.2" y="-186.5" font-family="Helvetica,sans-Serif" font-size="10.00">fcntl.h</text>
</a>
</g>
</g>
<!-- Node38&#45;&gt;Node41 -->
<g id="edge49" class="edge">
<title>Node38&#45;&gt;Node41</title>
<path fill="none" stroke="midnightblue" d="M1172.29,-235.49C1230.11,-228.21 1312.57,-216.45 1393.72,-198.84"/>
<polygon fill="midnightblue" stroke="midnightblue" points="1394.6,-202.23 1403.61,-196.66 1393.09,-195.39 1394.6,-202.23"/>
</g>
<!-- Node42 -->
<g id="node42" class="node">
<title>Node42</title>
<g id="a_node42"><a xlink:title=" ">
<polygon fill="none" stroke="#bfbfbf" points="1464.7,-179.5 1464.7,-198.5 1513.7,-198.5 1513.7,-179.5 1464.7,-179.5"/>
<text text-anchor="middle" x="1489.2" y="-186.5" font-family="Helvetica,sans-Serif" font-size="10.00">netdb.h</text>
</a>
</g>
</g>
<!-- Node38&#45;&gt;Node42 -->
<g id="edge50" class="edge">
<title>Node38&#45;&gt;Node42</title>
<path fill="none" stroke="midnightblue" d="M1173.53,-237.45C1243.84,-230.67 1351.77,-218.54 1454.48,-198.9"/>
<polygon fill="midnightblue" stroke="midnightblue" points="1455.25,-202.31 1464.4,-196.97 1453.92,-195.44 1455.25,-202.31"/>
</g>
<!-- Node43 -->
<g id="node43" class="node">
<title>Node43</title>
<g id="a_node43"><a xlink:title=" ">
<polygon fill="none" stroke="#bfbfbf" points="531.7,-179.5 531.7,-198.5 596.7,-198.5 596.7,-179.5 531.7,-179.5"/>
<text text-anchor="middle" x="564.2" y="-186.5" font-family="Helvetica,sans-Serif" font-size="10.00">netinet/in.h</text>
</a>
</g>
</g>
<!-- Node38&#45;&gt;Node43 -->
<g id="edge51" class="edge">
<title>Node38&#45;&gt;Node43</title>
<path fill="none" stroke="midnightblue" d="M1023.09,-240.07C928.2,-234.46 759.78,-222.31 606.85,-199.09"/>
<polygon fill="midnightblue" stroke="midnightblue" points="607.22,-195.6 596.8,-197.54 606.15,-202.52 607.22,-195.6"/>
</g>
<!-- Node44 -->
<g id="node44" class="node">
<title>Node44</title>
<g id="a_node44"><a xlink:title=" ">
<polygon fill="none" stroke="#bfbfbf" points="614.7,-179.5 614.7,-198.5 685.7,-198.5 685.7,-179.5 614.7,-179.5"/>
<text text-anchor="middle" x="650.2" y="-186.5" font-family="Helvetica,sans-Serif" font-size="10.00">netinet/tcp.h</text>
</a>
</g>
</g>
<!-- Node38&#45;&gt;Node44 -->
<g id="edge52" class="edge">
<title>Node38&#45;&gt;Node44</title>
<path fill="none" stroke="midnightblue" d="M1023.09,-237.69C943.99,-230.58 815.61,-217.72 696.21,-199.21"/>
<polygon fill="midnightblue" stroke="midnightblue" points="696.59,-195.73 686.17,-197.63 695.5,-202.64 696.59,-195.73"/>
</g>
<!-- Node45 -->
<g id="node45" class="node">
<title>Node45</title>
<g id="a_node45"><a xlink:title=" ">
<polygon fill="none" stroke="#bfbfbf" points="703.7,-179.5 703.7,-198.5 752.7,-198.5 752.7,-179.5 703.7,-179.5"/>
<text text-anchor="middle" x="728.2" y="-186.5" font-family="Helvetica,sans-Serif" font-size="10.00">stdint.h</text>
</a>
</g>
</g>
<!-- Node38&#45;&gt;Node45 -->
<g id="edge53" class="edge">
<title>Node38&#45;&gt;Node45</title>
<path fill="none" stroke="midnightblue" d="M1023.02,-236.67C956.97,-229.6 858.13,-217.51 763.07,-198.94"/>
<polygon fill="midnightblue" stroke="midnightblue" points="763.48,-195.46 752.99,-196.95 762.12,-202.33 763.48,-195.46"/>
</g>
<!-- Node46 -->
<g id="node46" class="node">
<title>Node46</title>
<g id="a_node46"><a xlink:title=" ">
<polygon fill="none" stroke="#bfbfbf" points="771.2,-179.5 771.2,-198.5 835.2,-198.5 835.2,-179.5 771.2,-179.5"/>
<text text-anchor="middle" x="803.2" y="-186.5" font-family="Helvetica,sans-Serif" font-size="10.00">sys/epoll.h</text>
</a>
</g>
</g>
<!-- Node38&#45;&gt;Node46 -->
<g id="edge54" class="edge">
<title>Node38&#45;&gt;Node46</title>
<path fill="none" stroke="midnightblue" d="M1046.51,-235.48C997.32,-227.22 920.96,-214.04 845.55,-199.21"/>
<polygon fill="midnightblue" stroke="midnightblue" points="845.89,-195.71 835.4,-197.2 844.53,-202.57 845.89,-195.71"/>
</g>
<!-- Node47 -->
<g id="node47" class="node">
<title>Node47</title>
<g id="a_node47"><a xlink:title=" ">
<polygon fill="none" stroke="#bfbfbf" points="853.2,-179.5 853.2,-198.5 915.2,-198.5 915.2,-179.5 853.2,-179.5"/>
<text text-anchor="middle" x="884.2" y="-186.5" font-family="Helvetica,sans-Serif" font-size="10.00">arpa/inet.h</text>
</a>
</g>
</g>
<!-- Node38&#45;&gt;Node47 -->
<g id="edge55" class="edge">
<title>Node38&#45;&gt;Node47</title>
<path fill="none" stroke="midnightblue" d="M1064.29,-235.44C1026.59,-225.93 965.7,-210.57 925.31,-200.37"/>
<polygon fill="midnightblue" stroke="midnightblue" points="926.06,-196.95 915.51,-197.9 924.35,-203.74 926.06,-196.95"/>
</g>
<!-- Node48 -->
<g id="node48" class="node">
<title>Node48</title>
<g id="a_node48"><a xlink:title=" ">
<polygon fill="none" stroke="#bfbfbf" points="933.7,-179.5 933.7,-198.5 1006.7,-198.5 1006.7,-179.5 933.7,-179.5"/>
<text text-anchor="middle" x="970.2" y="-186.5" font-family="Helvetica,sans-Serif" font-size="10.00">sys/socket.h</text>
</a>
</g>
</g>
<!-- Node38&#45;&gt;Node48 -->
<g id="edge56" class="edge">
<title>Node38&#45;&gt;Node48</title>
<path fill="none" stroke="midnightblue" d="M1077.91,-235.44C1056.85,-226.56 1023.68,-212.56 999.71,-202.45"/>
<polygon fill="midnightblue" stroke="midnightblue" points="1000.96,-199.18 990.38,-198.52 998.24,-205.63 1000.96,-199.18"/>
</g>
<!-- Node49 -->
<g id="node49" class="node">
<title>Node49</title>
<g id="a_node49"><a xlink:title=" ">
<polygon fill="none" stroke="#bfbfbf" points="1025.2,-179.5 1025.2,-198.5 1093.2,-198.5 1093.2,-179.5 1025.2,-179.5"/>
<text text-anchor="middle" x="1059.2" y="-186.5" font-family="Helvetica,sans-Serif" font-size="10.00">sys/types.h</text>
</a>
</g>
</g>
<!-- Node38&#45;&gt;Node49 -->
<g id="edge57" class="edge">
<title>Node38&#45;&gt;Node49</title>
<path fill="none" stroke="midnightblue" d="M1091.76,-235.08C1086.25,-227.46 1078.16,-216.26 1071.43,-206.94"/>
<polygon fill="midnightblue" stroke="midnightblue" points="1074.21,-204.81 1065.52,-198.75 1068.53,-208.91 1074.21,-204.81"/>
</g>
<!-- Node50 -->
<g id="node50" class="node">
<title>Node50</title>
<g id="a_node50"><a xlink:title=" ">
<polygon fill="none" stroke="#bfbfbf" points="1111.7,-179.5 1111.7,-198.5 1162.7,-198.5 1162.7,-179.5 1111.7,-179.5"/>
<text text-anchor="middle" x="1137.2" y="-186.5" font-family="Helvetica,sans-Serif" font-size="10.00">unistd.h</text>
</a>
</g>
</g>
<!-- Node38&#45;&gt;Node50 -->
<g id="edge58" class="edge">
<title>Node38&#45;&gt;Node50</title>
<path fill="none" stroke="midnightblue" d="M1104.64,-235.08C1110.15,-227.46 1118.23,-216.26 1124.96,-206.94"/>
<polygon fill="midnightblue" stroke="midnightblue" points="1127.86,-208.91 1130.88,-198.75 1122.18,-204.81 1127.86,-208.91"/>
</g>
<!-- Node51&#45;&gt;Node2 -->
<g id="edge60" class="edge">
<title>Node51&#45;&gt;Node2</title>
<path fill="none" stroke="midnightblue" d="M1629.38,-403.39C1637.84,-385.16 1656.2,-341.09 1656.2,-302 1656.2,-302 1656.2,-302 1656.2,-244 1656.2,-213.2 1650.91,-203.46 1632.2,-179 1622.79,-166.7 1609.55,-156.16 1597.05,-147.94"/>
<polygon fill="midnightblue" stroke="midnightblue" points="1598.9,-144.98 1588.57,-142.63 1595.18,-150.91 1598.9,-144.98"/>
</g>
</g>
</svg>
