<?xml version="1.0" encoding="UTF-8" standalone="no"?>
<!DOCTYPE svg PUBLIC "-//W3C//DTD SVG 1.1//EN"
 "http://www.w3.org/Graphics/SVG/1.1/DTD/svg11.dtd">
<!-- Generated by graphviz version 3.0.0 (20220226.1711)
 -->
<!-- Title: ReactionEntities.hpp Pages: 1 -->
<svg width="2292pt" height="666pt"
 viewBox="0.00 0.00 2291.70 666.00" xmlns="http://www.w3.org/2000/svg" xmlns:xlink="http://www.w3.org/1999/xlink">
<g id="graph0" class="graph" transform="scale(1 1) rotate(0) translate(4 662)">
<title>ReactionEntities.hpp</title>
<!-- Node1 -->
<g id="node1" class="node">
<title>Node1</title>
<g id="a_node1"><a xlink:title=" ">
<polygon fill="#bfbfbf" stroke="black" points="592.7,-638.5 592.7,-657.5 699.7,-657.5 699.7,-638.5 592.7,-638.5"/>
<text text-anchor="middle" x="646.2" y="-645.5" font-family="Helvetica,sans-Serif" font-size="10.00">ReactionEntities.hpp</text>
</a>
</g>
</g>
<!-- Node2 -->
<g id="node2" class="node">
<title>Node2</title>
<g id="a_node2"><a xlink:href="../../d4/deb/a00710.html" target="_top" xlink:title=" ">
<polygon fill="none" stroke="black" points="1495.7,-112.5 1495.7,-142.5 1626.7,-142.5 1626.7,-112.5 1495.7,-112.5"/>
<text text-anchor="start" x="1503.7" y="-130.5" font-family="Helvetica,sans-Serif" font-size="10.00">discordcoreapi/Foundation</text>
<text text-anchor="middle" x="1561.2" y="-119.5" font-family="Helvetica,sans-Serif" font-size="10.00">Entities.hpp</text>
</a>
</g>
</g>
<!-- Node1&#45;&gt;Node2 -->
<g id="edge1" class="edge">
<title>Node1&#45;&gt;Node2</title>
<path fill="none" stroke="midnightblue" d="M592.59,-643.05C437.81,-630.92 1.2,-591.4 1.2,-531.5 1.2,-531.5 1.2,-531.5 1.2,-244 1.2,-213.9 -3.59,-197.44 20.2,-179 78.57,-133.74 1182.18,-128.98 1484.94,-128.53"/>
<polygon fill="midnightblue" stroke="midnightblue" points="1485.37,-132.03 1495.37,-128.52 1485.36,-125.03 1485.37,-132.03"/>
</g>
<!-- Node27 -->
<g id="node27" class="node">
<title>Node27</title>
<g id="a_node27"><a xlink:href="../../d3/d2c/a00764.html" target="_top" xlink:title=" ">
<polygon fill="none" stroke="black" points="1235.7,-582.5 1235.7,-601.5 1390.7,-601.5 1390.7,-582.5 1235.7,-582.5"/>
<text text-anchor="middle" x="1313.2" y="-589.5" font-family="Helvetica,sans-Serif" font-size="10.00">discordcoreapi/UserEntities.hpp</text>
</a>
</g>
</g>
<!-- Node1&#45;&gt;Node27 -->
<g id="edge26" class="edge">
<title>Node1&#45;&gt;Node27</title>
<path fill="none" stroke="midnightblue" d="M699.93,-642.65C814.8,-633.35 1085.15,-611.46 1225.38,-600.11"/>
<polygon fill="midnightblue" stroke="midnightblue" points="1225.98,-603.57 1235.66,-599.28 1225.41,-596.6 1225.98,-603.57"/>
</g>
<!-- Node3 -->
<g id="node3" class="node">
<title>Node3</title>
<g id="a_node3"><a xlink:href="../../d5/dae/a00767.html" target="_top" xlink:title=" ">
<polygon fill="none" stroke="black" points="1494.2,-56.5 1494.2,-75.5 1628.2,-75.5 1628.2,-56.5 1494.2,-56.5"/>
<text text-anchor="middle" x="1561.2" y="-63.5" font-family="Helvetica,sans-Serif" font-size="10.00">discordcoreapi/Utilities.hpp</text>
</a>
</g>
</g>
<!-- Node2&#45;&gt;Node3 -->
<g id="edge2" class="edge">
<title>Node2&#45;&gt;Node3</title>
<path fill="none" stroke="midnightblue" d="M1561.2,-112.4C1561.2,-104.47 1561.2,-94.46 1561.2,-85.86"/>
<polygon fill="midnightblue" stroke="midnightblue" points="1564.7,-85.66 1561.2,-75.66 1557.7,-85.66 1564.7,-85.66"/>
</g>
<!-- Node4 -->
<g id="node4" class="node">
<title>Node4</title>
<g id="a_node4"><a xlink:title=" ">
<polygon fill="none" stroke="#bfbfbf" points="567.7,-0.5 567.7,-19.5 624.7,-19.5 624.7,-0.5 567.7,-0.5"/>
<text text-anchor="middle" x="596.2" y="-7.5" font-family="Helvetica,sans-Serif" font-size="10.00">pthread.h</text>
</a>
</g>
</g>
<!-- Node3&#45;&gt;Node4 -->
<g id="edge3" class="edge">
<title>Node3&#45;&gt;Node4</title>
<path fill="none" stroke="midnightblue" d="M1494.14,-63.35C1313.63,-58.65 819.22,-44.07 634.84,-19.74"/>
<polygon fill="midnightblue" stroke="midnightblue" points="635.11,-16.24 624.72,-18.35 634.15,-23.18 635.11,-16.24"/>
</g>
<!-- Node5 -->
<g id="node5" class="node">
<title>Node5</title>
<g id="a_node5"><a xlink:title=" ">
<polygon fill="none" stroke="#bfbfbf" points="643.2,-0.5 643.2,-19.5 705.2,-19.5 705.2,-0.5 643.2,-0.5"/>
<text text-anchor="middle" x="674.2" y="-7.5" font-family="Helvetica,sans-Serif" font-size="10.00">sys/time.h</text>
</a>
</g>
</g>
<!-- Node3&#45;&gt;Node5 -->
<g id="edge4" class="edge">
<title>Node3&#45;&gt;Node5</title>
<path fill="none" stroke="midnightblue" d="M1494.13,-65.26C1352.04,-64.97 1010.27,-59.92 715.57,-19.95"/>
<polygon fill="midnightblue" stroke="midnightblue" points="715.93,-16.47 705.55,-18.58 714.98,-23.4 715.93,-16.47"/>
</g>
<!-- Node6 -->
<g id="node6" class="node">
<title>Node6</title>
<g id="a_node6"><a xlink:title=" ">
<polygon fill="none" stroke="#bfbfbf" points="723.2,-0.5 723.2,-19.5 767.2,-19.5 767.2,-0.5 723.2,-0.5"/>
<text text-anchor="middle" x="745.2" y="-7.5" font-family="Helvetica,sans-Serif" font-size="10.00">time.h</text>
</a>
</g>
</g>
<!-- Node3&#45;&gt;Node6 -->
<g id="edge5" class="edge">
<title>Node3&#45;&gt;Node6</title>
<path fill="none" stroke="midnightblue" d="M1494.17,-63.1C1334.11,-58.25 932.03,-44.19 777.65,-19.8"/>
<polygon fill="midnightblue" stroke="midnightblue" points="777.84,-16.28 767.41,-18.1 776.7,-23.19 777.84,-16.28"/>
</g>
<!-- Node7 -->
<g id="node7" class="node">
<title>Node7</title>
<g id="a_node7"><a xlink:title=" ">
<polygon fill="none" stroke="#bfbfbf" points="785.7,-0.5 785.7,-19.5 826.7,-19.5 826.7,-0.5 785.7,-0.5"/>
<text text-anchor="middle" x="806.2" y="-7.5" font-family="Helvetica,sans-Serif" font-size="10.00">ctime</text>
</a>
</g>
</g>
<!-- Node3&#45;&gt;Node7 -->
<g id="edge6" class="edge">
<title>Node3&#45;&gt;Node7</title>
<path fill="none" stroke="midnightblue" d="M1494.09,-62.89C1342.99,-57.82 978.85,-43.7 837.17,-19.9"/>
<polygon fill="midnightblue" stroke="midnightblue" points="837.41,-16.39 826.96,-18.09 836.19,-23.28 837.41,-16.39"/>
</g>
<!-- Node8 -->
<g id="node8" class="node">
<title>Node8</title>
<g id="a_node8"><a xlink:title=" ">
<polygon fill="none" stroke="#bfbfbf" points="844.7,-0.5 844.7,-19.5 937.7,-19.5 937.7,-0.5 844.7,-0.5"/>
<text text-anchor="middle" x="891.2" y="-7.5" font-family="Helvetica,sans-Serif" font-size="10.00">condition_variable</text>
</a>
</g>
</g>
<!-- Node3&#45;&gt;Node8 -->
<g id="edge7" class="edge">
<title>Node3&#45;&gt;Node8</title>
<path fill="none" stroke="midnightblue" d="M1493.78,-61.96C1382.39,-56.53 1152.74,-43.55 947.95,-19.98"/>
<polygon fill="midnightblue" stroke="midnightblue" points="948.24,-16.49 937.91,-18.82 947.43,-23.45 948.24,-16.49"/>
</g>
<!-- Node9 -->
<g id="node9" class="node">
<title>Node9</title>
<g id="a_node9"><a xlink:title=" ">
<polygon fill="none" stroke="#bfbfbf" points="956.2,-0.5 956.2,-19.5 1054.2,-19.5 1054.2,-0.5 956.2,-0.5"/>
<text text-anchor="middle" x="1005.2" y="-7.5" font-family="Helvetica,sans-Serif" font-size="10.00">nlohmann/json.hpp</text>
</a>
</g>
</g>
<!-- Node3&#45;&gt;Node9 -->
<g id="edge8" class="edge">
<title>Node3&#45;&gt;Node9</title>
<path fill="none" stroke="midnightblue" d="M1494.2,-60.31C1400.4,-53.44 1224.41,-39.45 1064.25,-20.06"/>
<polygon fill="midnightblue" stroke="midnightblue" points="1064.56,-16.57 1054.21,-18.83 1063.72,-23.52 1064.56,-16.57"/>
</g>
<!-- Node10 -->
<g id="node10" class="node">
<title>Node10</title>
<g id="a_node10"><a xlink:title=" ">
<polygon fill="none" stroke="#bfbfbf" points="1072.7,-0.5 1072.7,-19.5 1157.7,-19.5 1157.7,-0.5 1072.7,-0.5"/>
<text text-anchor="middle" x="1115.2" y="-7.5" font-family="Helvetica,sans-Serif" font-size="10.00">source_location</text>
</a>
</g>
</g>
<!-- Node3&#45;&gt;Node10 -->
<g id="edge9" class="edge">
<title>Node3&#45;&gt;Node10</title>
<path fill="none" stroke="midnightblue" d="M1493.94,-58.6C1417.35,-51.04 1288.25,-37.42 1167.87,-20.17"/>
<polygon fill="midnightblue" stroke="midnightblue" points="1168.14,-16.67 1157.74,-18.71 1167.14,-23.6 1168.14,-16.67"/>
</g>
<!-- Node11 -->
<g id="node11" class="node">
<title>Node11</title>
<g id="a_node11"><a xlink:title=" ">
<polygon fill="none" stroke="#bfbfbf" points="1175.7,-0.5 1175.7,-19.5 1258.7,-19.5 1258.7,-0.5 1175.7,-0.5"/>
<text text-anchor="middle" x="1217.2" y="-7.5" font-family="Helvetica,sans-Serif" font-size="10.00">unordered_map</text>
</a>
</g>
</g>
<!-- Node3&#45;&gt;Node11 -->
<g id="edge10" class="edge">
<title>Node3&#45;&gt;Node11</title>
<path fill="none" stroke="midnightblue" d="M1503.32,-56.5C1446.37,-48.05 1356.66,-34.5 1269.05,-20.11"/>
<polygon fill="midnightblue" stroke="midnightblue" points="1269.37,-16.62 1258.93,-18.44 1268.23,-23.52 1269.37,-16.62"/>
</g>
<!-- Node12 -->
<g id="node12" class="node">
<title>Node12</title>
<g id="a_node12"><a xlink:title=" ">
<polygon fill="none" stroke="#bfbfbf" points="1277.2,-0.5 1277.2,-19.5 1355.2,-19.5 1355.2,-0.5 1277.2,-0.5"/>
<text text-anchor="middle" x="1316.2" y="-7.5" font-family="Helvetica,sans-Serif" font-size="10.00">shared_mutex</text>
</a>
</g>
</g>
<!-- Node3&#45;&gt;Node12 -->
<g id="edge11" class="edge">
<title>Node3&#45;&gt;Node12</title>
<path fill="none" stroke="midnightblue" d="M1522.38,-56.44C1479.64,-47.02 1410.86,-31.87 1364.63,-21.68"/>
<polygon fill="midnightblue" stroke="midnightblue" points="1365.35,-18.25 1354.84,-19.52 1363.85,-25.09 1365.35,-18.25"/>
</g>
<!-- Node13 -->
<g id="node13" class="node">
<title>Node13</title>
<g id="a_node13"><a xlink:title=" ">
<polygon fill="none" stroke="#bfbfbf" points="1373.2,-0.5 1373.2,-19.5 1431.2,-19.5 1431.2,-0.5 1373.2,-0.5"/>
<text text-anchor="middle" x="1402.2" y="-7.5" font-family="Helvetica,sans-Serif" font-size="10.00">functional</text>
</a>
</g>
</g>
<!-- Node3&#45;&gt;Node13 -->
<g id="edge12" class="edge">
<title>Node3&#45;&gt;Node13</title>
<path fill="none" stroke="midnightblue" d="M1536,-56.44C1509.25,-47.36 1466.79,-32.94 1436.89,-22.78"/>
<polygon fill="midnightblue" stroke="midnightblue" points="1437.87,-19.42 1427.27,-19.52 1435.62,-26.05 1437.87,-19.42"/>
</g>
<!-- Node14 -->
<g id="node14" class="node">
<title>Node14</title>
<g id="a_node14"><a xlink:title=" ">
<polygon fill="none" stroke="#bfbfbf" points="1449.7,-0.5 1449.7,-19.5 1514.7,-19.5 1514.7,-0.5 1449.7,-0.5"/>
<text text-anchor="middle" x="1482.2" y="-7.5" font-family="Helvetica,sans-Serif" font-size="10.00">semaphore</text>
</a>
</g>
</g>
<!-- Node3&#45;&gt;Node14 -->
<g id="edge13" class="edge">
<title>Node3&#45;&gt;Node14</title>
<path fill="none" stroke="midnightblue" d="M1548.5,-56.32C1536.3,-47.98 1517.62,-35.21 1503.19,-25.35"/>
<polygon fill="midnightblue" stroke="midnightblue" points="1505.09,-22.41 1494.86,-19.65 1501.14,-28.19 1505.09,-22.41"/>
</g>
<!-- Node15 -->
<g id="node15" class="node">
<title>Node15</title>
<g id="a_node15"><a xlink:title=" ">
<polygon fill="none" stroke="#bfbfbf" points="1533.2,-0.5 1533.2,-19.5 1589.2,-19.5 1589.2,-0.5 1533.2,-0.5"/>
<text text-anchor="middle" x="1561.2" y="-7.5" font-family="Helvetica,sans-Serif" font-size="10.00">concepts</text>
</a>
</g>
</g>
<!-- Node3&#45;&gt;Node15 -->
<g id="edge14" class="edge">
<title>Node3&#45;&gt;Node15</title>
<path fill="none" stroke="midnightblue" d="M1561.2,-56.08C1561.2,-49.01 1561.2,-38.86 1561.2,-29.99"/>
<polygon fill="midnightblue" stroke="midnightblue" points="1564.7,-29.75 1561.2,-19.75 1557.7,-29.75 1564.7,-29.75"/>
</g>
<!-- Node16 -->
<g id="node16" class="node">
<title>Node16</title>
<g id="a_node16"><a xlink:title=" ">
<polygon fill="none" stroke="#bfbfbf" points="1607.2,-0.5 1607.2,-19.5 1661.2,-19.5 1661.2,-0.5 1607.2,-0.5"/>
<text text-anchor="middle" x="1634.2" y="-7.5" font-family="Helvetica,sans-Serif" font-size="10.00">iostream</text>
</a>
</g>
</g>
<!-- Node3&#45;&gt;Node16 -->
<g id="edge15" class="edge">
<title>Node3&#45;&gt;Node16</title>
<path fill="none" stroke="midnightblue" d="M1572.92,-56.32C1584.03,-48.11 1600.94,-35.6 1614.18,-25.81"/>
<polygon fill="midnightblue" stroke="midnightblue" points="1616.3,-28.59 1622.25,-19.83 1612.13,-22.97 1616.3,-28.59"/>
</g>
<!-- Node17 -->
<g id="node17" class="node">
<title>Node17</title>
<g id="a_node17"><a xlink:title=" ">
<polygon fill="none" stroke="#bfbfbf" points="1679.7,-0.5 1679.7,-19.5 1728.7,-19.5 1728.7,-0.5 1679.7,-0.5"/>
<text text-anchor="middle" x="1704.2" y="-7.5" font-family="Helvetica,sans-Serif" font-size="10.00">fstream</text>
</a>
</g>
</g>
<!-- Node3&#45;&gt;Node17 -->
<g id="edge16" class="edge">
<title>Node3&#45;&gt;Node17</title>
<path fill="none" stroke="midnightblue" d="M1583.85,-56.44C1607.6,-47.48 1645.11,-33.31 1671.93,-23.18"/>
<polygon fill="midnightblue" stroke="midnightblue" points="1673.52,-26.32 1681.64,-19.52 1671.05,-19.77 1673.52,-26.32"/>
</g>
<!-- Node18 -->
<g id="node18" class="node">
<title>Node18</title>
<g id="a_node18"><a xlink:title=" ">
<polygon fill="none" stroke="#bfbfbf" points="1746.7,-0.5 1746.7,-19.5 1787.7,-19.5 1787.7,-0.5 1746.7,-0.5"/>
<text text-anchor="middle" x="1767.2" y="-7.5" font-family="Helvetica,sans-Serif" font-size="10.00">bitset</text>
</a>
</g>
</g>
<!-- Node3&#45;&gt;Node18 -->
<g id="edge17" class="edge">
<title>Node3&#45;&gt;Node18</title>
<path fill="none" stroke="midnightblue" d="M1596.37,-56.46C1629.96,-48.2 1682.23,-35.09 1736.73,-20.04"/>
<polygon fill="midnightblue" stroke="midnightblue" points="1737.87,-23.36 1746.57,-17.31 1736,-16.61 1737.87,-23.36"/>
</g>
<!-- Node19 -->
<g id="node19" class="node">
<title>Node19</title>
<g id="a_node19"><a xlink:title=" ">
<polygon fill="none" stroke="#bfbfbf" points="1806.2,-0.5 1806.2,-19.5 1858.2,-19.5 1858.2,-0.5 1806.2,-0.5"/>
<text text-anchor="middle" x="1832.2" y="-7.5" font-family="Helvetica,sans-Serif" font-size="10.00">memory</text>
</a>
</g>
</g>
<!-- Node3&#45;&gt;Node19 -->
<g id="edge18" class="edge">
<title>Node3&#45;&gt;Node19</title>
<path fill="none" stroke="midnightblue" d="M1609.97,-56.48C1655.47,-48.35 1725.46,-35.37 1795.94,-19.95"/>
<polygon fill="midnightblue" stroke="midnightblue" points="1796.88,-23.33 1805.89,-17.76 1795.37,-16.49 1796.88,-23.33"/>
</g>
<!-- Node20 -->
<g id="node20" class="node">
<title>Node20</title>
<g id="a_node20"><a xlink:title=" ">
<polygon fill="none" stroke="#bfbfbf" points="1876.7,-0.5 1876.7,-19.5 1925.7,-19.5 1925.7,-0.5 1876.7,-0.5"/>
<text text-anchor="middle" x="1901.2" y="-7.5" font-family="Helvetica,sans-Serif" font-size="10.00">random</text>
</a>
</g>
</g>
<!-- Node3&#45;&gt;Node20 -->
<g id="edge19" class="edge">
<title>Node3&#45;&gt;Node20</title>
<path fill="none" stroke="midnightblue" d="M1628.43,-57.33C1688.44,-49.97 1778.84,-37.66 1866.54,-19.93"/>
<polygon fill="midnightblue" stroke="midnightblue" points="1867.3,-23.35 1876.39,-17.91 1865.89,-16.49 1867.3,-23.35"/>
</g>
<!-- Node21 -->
<g id="node21" class="node">
<title>Node21</title>
<g id="a_node21"><a xlink:title=" ">
<polygon fill="none" stroke="#bfbfbf" points="1943.7,-0.5 1943.7,-19.5 1984.7,-19.5 1984.7,-0.5 1943.7,-0.5"/>
<text text-anchor="middle" x="1964.2" y="-7.5" font-family="Helvetica,sans-Serif" font-size="10.00">string</text>
</a>
</g>
</g>
<!-- Node3&#45;&gt;Node21 -->
<g id="edge20" class="edge">
<title>Node3&#45;&gt;Node21</title>
<path fill="none" stroke="midnightblue" d="M1628.46,-60.37C1701.46,-54.57 1821.49,-42.75 1933.85,-19.71"/>
<polygon fill="midnightblue" stroke="midnightblue" points="1934.58,-23.13 1943.66,-17.67 1933.15,-16.28 1934.58,-23.13"/>
</g>
<!-- Node22 -->
<g id="node22" class="node">
<title>Node22</title>
<g id="a_node22"><a xlink:title=" ">
<polygon fill="none" stroke="#bfbfbf" points="2003.2,-0.5 2003.2,-19.5 2045.2,-19.5 2045.2,-0.5 2003.2,-0.5"/>
<text text-anchor="middle" x="2024.2" y="-7.5" font-family="Helvetica,sans-Serif" font-size="10.00">vector</text>
</a>
</g>
</g>
<!-- Node3&#45;&gt;Node22 -->
<g id="edge21" class="edge">
<title>Node3&#45;&gt;Node22</title>
<path fill="none" stroke="midnightblue" d="M1628.35,-61.73C1713.77,-56.72 1865.54,-44.97 1993.2,-20 1993.3,-19.98 1993.4,-19.96 1993.5,-19.94"/>
<polygon fill="midnightblue" stroke="midnightblue" points="1994.05,-23.41 2002.97,-17.7 1992.44,-16.59 1994.05,-23.41"/>
</g>
<!-- Node23 -->
<g id="node23" class="node">
<title>Node23</title>
<g id="a_node23"><a xlink:title=" ">
<polygon fill="none" stroke="#bfbfbf" points="2063.2,-0.5 2063.2,-19.5 2107.2,-19.5 2107.2,-0.5 2063.2,-0.5"/>
<text text-anchor="middle" x="2085.2" y="-7.5" font-family="Helvetica,sans-Serif" font-size="10.00">thread</text>
</a>
</g>
</g>
<!-- Node3&#45;&gt;Node23 -->
<g id="edge22" class="edge">
<title>Node3&#45;&gt;Node23</title>
<path fill="none" stroke="midnightblue" d="M1628.34,-62.94C1721.69,-59.18 1895.97,-48.9 2052.67,-19.94"/>
<polygon fill="midnightblue" stroke="midnightblue" points="2053.79,-23.29 2062.97,-18.01 2052.49,-16.41 2053.79,-23.29"/>
</g>
<!-- Node24 -->
<g id="node24" class="node">
<title>Node24</title>
<g id="a_node24"><a xlink:title=" ">
<polygon fill="none" stroke="#bfbfbf" points="2125.2,-0.5 2125.2,-19.5 2169.2,-19.5 2169.2,-0.5 2125.2,-0.5"/>
<text text-anchor="middle" x="2147.2" y="-7.5" font-family="Helvetica,sans-Serif" font-size="10.00">mutex</text>
</a>
</g>
</g>
<!-- Node3&#45;&gt;Node24 -->
<g id="edge23" class="edge">
<title>Node3&#45;&gt;Node24</title>
<path fill="none" stroke="midnightblue" d="M1628.4,-63.91C1731.46,-61.28 1934.69,-52.3 2115.04,-19.85"/>
<polygon fill="midnightblue" stroke="midnightblue" points="2115.77,-23.27 2124.97,-18.03 2114.51,-16.39 2115.77,-23.27"/>
</g>
<!-- Node25 -->
<g id="node25" class="node">
<title>Node25</title>
<g id="a_node25"><a xlink:title=" ">
<polygon fill="none" stroke="#bfbfbf" points="2187.7,-0.5 2187.7,-19.5 2230.7,-19.5 2230.7,-0.5 2187.7,-0.5"/>
<text text-anchor="middle" x="2209.2" y="-7.5" font-family="Helvetica,sans-Serif" font-size="10.00">queue</text>
</a>
</g>
</g>
<!-- Node3&#45;&gt;Node25 -->
<g id="edge24" class="edge">
<title>Node3&#45;&gt;Node25</title>
<path fill="none" stroke="midnightblue" d="M1628.42,-64.69C1740.58,-63.17 1972.87,-55.74 2177.62,-19.68"/>
<polygon fill="midnightblue" stroke="midnightblue" points="2178.43,-23.09 2187.65,-17.88 2177.19,-16.2 2178.43,-23.09"/>
</g>
<!-- Node26 -->
<g id="node26" class="node">
<title>Node26</title>
<g id="a_node26"><a xlink:title=" ">
<polygon fill="none" stroke="#bfbfbf" points="2248.7,-0.5 2248.7,-19.5 2283.7,-19.5 2283.7,-0.5 2248.7,-0.5"/>
<text text-anchor="middle" x="2266.2" y="-7.5" font-family="Helvetica,sans-Serif" font-size="10.00">map</text>
</a>
</g>
</g>
<!-- Node3&#45;&gt;Node26 -->
<g id="edge25" class="edge">
<title>Node3&#45;&gt;Node26</title>
<path fill="none" stroke="midnightblue" d="M1628.39,-62.83C1772.23,-57.81 2106.98,-44.13 2238.6,-19.76"/>
<polygon fill="midnightblue" stroke="midnightblue" points="2239.32,-23.19 2248.47,-17.84 2237.98,-16.32 2239.32,-23.19"/>
</g>
<!-- Node27&#45;&gt;Node2 -->
<g id="edge27" class="edge">
<title>Node27&#45;&gt;Node2</title>
<path fill="none" stroke="midnightblue" d="M1390.81,-586.08C1519.54,-575.77 1763.2,-546.2 1763.2,-470 1763.2,-470 1763.2,-470 1763.2,-244 1763.2,-183.47 1694,-154.23 1636.61,-140.39"/>
<polygon fill="midnightblue" stroke="midnightblue" points="1637.31,-136.96 1626.78,-138.14 1635.75,-143.78 1637.31,-136.96"/>
</g>
<!-- Node28 -->
<g id="node28" class="node">
<title>Node28</title>
<g id="a_node28"><a xlink:href="../../d9/dd4/a00776.html" target="_top" xlink:title=" ">
<polygon fill="none" stroke="black" points="1246.2,-515.5 1246.2,-545.5 1380.2,-545.5 1380.2,-515.5 1246.2,-515.5"/>
<text text-anchor="start" x="1254.2" y="-533.5" font-family="Helvetica,sans-Serif" font-size="10.00">discordcoreapi/WebSocket</text>
<text text-anchor="middle" x="1313.2" y="-522.5" font-family="Helvetica,sans-Serif" font-size="10.00">Entities.hpp</text>
</a>
</g>
</g>
<!-- Node27&#45;&gt;Node28 -->
<g id="edge28" class="edge">
<title>Node27&#45;&gt;Node28</title>
<path fill="none" stroke="midnightblue" d="M1313.2,-582.48C1313.2,-575.47 1313.2,-565.19 1313.2,-555.7"/>
<polygon fill="midnightblue" stroke="midnightblue" points="1316.7,-555.52 1313.2,-545.52 1309.7,-555.52 1316.7,-555.52"/>
</g>
<!-- Node28&#45;&gt;Node2 -->
<g id="edge29" class="edge">
<title>Node28&#45;&gt;Node2</title>
<path fill="none" stroke="midnightblue" d="M1380.31,-524.58C1497.05,-514.17 1725.2,-484.76 1725.2,-414 1725.2,-414 1725.2,-414 1725.2,-244 1725.2,-193.12 1671.78,-162.69 1625.91,-145.95"/>
<polygon fill="midnightblue" stroke="midnightblue" points="1626.86,-142.57 1616.26,-142.58 1624.55,-149.18 1626.86,-142.57"/>
</g>
<!-- Node29 -->
<g id="node29" class="node">
<title>Node29</title>
<g id="a_node29"><a xlink:href="../../d4/d9b/a00680.html" target="_top" xlink:title=" ">
<polygon fill="none" stroke="black" points="246.2,-235.5 246.2,-254.5 408.2,-254.5 408.2,-235.5 246.2,-235.5"/>
<text text-anchor="middle" x="327.2" y="-242.5" font-family="Helvetica,sans-Serif" font-size="10.00">discordcoreapi/AudioDecoder.hpp</text>
</a>
</g>
</g>
<!-- Node28&#45;&gt;Node29 -->
<g id="edge30" class="edge">
<title>Node28&#45;&gt;Node29</title>
<path fill="none" stroke="midnightblue" d="M1245.87,-527.15C1048.67,-519.38 486.2,-490.52 486.2,-414 486.2,-414 486.2,-414 486.2,-356 486.2,-301.32 421.81,-271.68 374.98,-257.36"/>
<polygon fill="midnightblue" stroke="midnightblue" points="375.86,-253.98 365.28,-254.54 373.9,-260.7 375.86,-253.98"/>
</g>
<!-- Node30 -->
<g id="node30" class="node">
<title>Node30</title>
<g id="a_node30"><a xlink:href="../../d4/d6a/a00704.html" target="_top" xlink:title=" ">
<polygon fill="none" stroke="black" points="355.2,-179.5 355.2,-198.5 513.2,-198.5 513.2,-179.5 355.2,-179.5"/>
<text text-anchor="middle" x="434.2" y="-186.5" font-family="Helvetica,sans-Serif" font-size="10.00">discordcoreapi/EventEntities.hpp</text>
</a>
</g>
</g>
<!-- Node28&#45;&gt;Node30 -->
<g id="edge61" class="edge">
<title>Node28&#45;&gt;Node30</title>
<path fill="none" stroke="midnightblue" d="M1246.06,-526.37C1119.49,-518.62 858.2,-493.05 858.2,-414 858.2,-414 858.2,-414 858.2,-300 858.2,-263.38 618.11,-219.58 499.27,-200.15"/>
<polygon fill="midnightblue" stroke="midnightblue" points="499.62,-196.66 489.19,-198.51 498.5,-203.57 499.62,-196.66"/>
</g>
<!-- Node33 -->
<g id="node33" class="node">
<title>Node33</title>
<g id="a_node33"><a xlink:href="../../d0/db6/a00692.html" target="_top" xlink:title=" ">
<polygon fill="none" stroke="black" points="1341.7,-459.5 1341.7,-478.5 1528.7,-478.5 1528.7,-459.5 1341.7,-459.5"/>
<text text-anchor="middle" x="1435.2" y="-466.5" font-family="Helvetica,sans-Serif" font-size="10.00">discordcoreapi/CommandController.hpp</text>
</a>
</g>
</g>
<!-- Node28&#45;&gt;Node33 -->
<g id="edge36" class="edge">
<title>Node28&#45;&gt;Node33</title>
<path fill="none" stroke="midnightblue" d="M1342.11,-515.4C1362.21,-505.59 1388.82,-492.62 1408.43,-483.05"/>
<polygon fill="midnightblue" stroke="midnightblue" points="1409.99,-486.19 1417.44,-478.66 1406.92,-479.9 1409.99,-486.19"/>
</g>
<!-- Node35 -->
<g id="node35" class="node">
<title>Node35</title>
<g id="a_node35"><a xlink:href="../../d3/d4f/a00761.html" target="_top" xlink:title=" ">
<polygon fill="none" stroke="black" points="1302.2,-347.5 1302.2,-366.5 1452.2,-366.5 1452.2,-347.5 1302.2,-347.5"/>
<text text-anchor="middle" x="1377.2" y="-354.5" font-family="Helvetica,sans-Serif" font-size="10.00">discordcoreapi/ThreadPool.hpp</text>
</a>
</g>
</g>
<!-- Node28&#45;&gt;Node35 -->
<g id="edge63" class="edge">
<title>Node28&#45;&gt;Node35</title>
<path fill="none" stroke="midnightblue" d="M1314.44,-515.18C1316.98,-491.02 1324.13,-441.06 1342.2,-403 1347.17,-392.52 1354.93,-382.19 1361.89,-374.09"/>
<polygon fill="midnightblue" stroke="midnightblue" points="1364.6,-376.3 1368.68,-366.52 1359.4,-371.62 1364.6,-376.3"/>
</g>
<!-- Node37 -->
<g id="node37" class="node">
<title>Node37</title>
<g id="a_node37"><a xlink:href="../../d5/de8/a00749.html" target="_top" xlink:title=" ">
<polygon fill="none" stroke="black" points="1045.2,-235.5 1045.2,-254.5 1195.2,-254.5 1195.2,-235.5 1045.2,-235.5"/>
<text text-anchor="middle" x="1120.2" y="-242.5" font-family="Helvetica,sans-Serif" font-size="10.00">discordcoreapi/SSLClients.hpp</text>
</a>
</g>
</g>
<!-- Node28&#45;&gt;Node37 -->
<g id="edge62" class="edge">
<title>Node28&#45;&gt;Node37</title>
<path fill="none" stroke="midnightblue" d="M1268.6,-515.4C1225.66,-498.7 1167.2,-466.36 1167.2,-414 1167.2,-414 1167.2,-414 1167.2,-356 1167.2,-320.7 1146.48,-283.79 1132.55,-262.96"/>
<polygon fill="midnightblue" stroke="midnightblue" points="1135.31,-260.8 1126.73,-254.59 1129.57,-264.8 1135.31,-260.8"/>
</g>
<!-- Node51 -->
<g id="node51" class="node">
<title>Node51</title>
<g id="a_node51"><a xlink:href="../../dd/d57/a00701.html" target="_top" xlink:title=" ">
<polygon fill="none" stroke="black" points="1553.2,-403.5 1553.2,-422.5 1697.2,-422.5 1697.2,-403.5 1553.2,-403.5"/>
<text text-anchor="middle" x="1625.2" y="-410.5" font-family="Helvetica,sans-Serif" font-size="10.00">discordcoreapi/ErlPacker.hpp</text>
</a>
</g>
</g>
<!-- Node28&#45;&gt;Node51 -->
<g id="edge59" class="edge">
<title>Node28&#45;&gt;Node51</title>
<path fill="none" stroke="midnightblue" d="M1380.21,-521.79C1425.98,-514.77 1487.17,-501.88 1537.2,-479 1564.55,-466.49 1591.75,-444.58 1608.5,-429.69"/>
<polygon fill="midnightblue" stroke="midnightblue" points="1611.22,-431.95 1616.26,-422.63 1606.51,-426.77 1611.22,-431.95"/>
</g>
<!-- Node29&#45;&gt;Node2 -->
<g id="edge33" class="edge">
<title>Node29&#45;&gt;Node2</title>
<path fill="none" stroke="midnightblue" d="M326.82,-235.1C326.75,-220.68 328.97,-192.48 346.2,-179 391.14,-143.83 1227.03,-132.05 1485.61,-129.23"/>
<polygon fill="midnightblue" stroke="midnightblue" points="1485.7,-132.73 1495.67,-129.12 1485.63,-125.73 1485.7,-132.73"/>
</g>
<!-- Node29&#45;&gt;Node30 -->
<g id="edge31" class="edge">
<title>Node29&#45;&gt;Node30</title>
<path fill="none" stroke="midnightblue" d="M344.39,-235.32C361.55,-226.66 388.14,-213.24 407.94,-203.25"/>
<polygon fill="midnightblue" stroke="midnightblue" points="409.7,-206.28 417.05,-198.65 406.54,-200.04 409.7,-206.28"/>
</g>
<!-- Node31 -->
<g id="node31" class="node">
<title>Node31</title>
<g id="a_node31"><a xlink:title=" ">
<polygon fill="none" stroke="#bfbfbf" points="29.2,-179.5 29.2,-198.5 139.2,-198.5 139.2,-179.5 29.2,-179.5"/>
<text text-anchor="middle" x="84.2" y="-186.5" font-family="Helvetica,sans-Serif" font-size="10.00">libavformat/avformat.h</text>
</a>
</g>
</g>
<!-- Node29&#45;&gt;Node31 -->
<g id="edge34" class="edge">
<title>Node29&#45;&gt;Node31</title>
<path fill="none" stroke="midnightblue" d="M288.69,-235.44C246.39,-226.04 178.38,-210.93 132.52,-200.74"/>
<polygon fill="midnightblue" stroke="midnightblue" points="133.04,-197.27 122.52,-198.52 131.52,-204.1 133.04,-197.27"/>
</g>
<!-- Node32 -->
<g id="node32" class="node">
<title>Node32</title>
<g id="a_node32"><a xlink:title=" ">
<polygon fill="none" stroke="#bfbfbf" points="157.7,-179.5 157.7,-198.5 298.7,-198.5 298.7,-179.5 157.7,-179.5"/>
<text text-anchor="middle" x="228.2" y="-186.5" font-family="Helvetica,sans-Serif" font-size="10.00">libswresample/swresample.h</text>
</a>
</g>
</g>
<!-- Node29&#45;&gt;Node32 -->
<g id="edge35" class="edge">
<title>Node29&#45;&gt;Node32</title>
<path fill="none" stroke="midnightblue" d="M311.29,-235.32C295.56,-226.74 271.25,-213.49 252.99,-203.52"/>
<polygon fill="midnightblue" stroke="midnightblue" points="254.52,-200.37 244.06,-198.65 251.17,-206.52 254.52,-200.37"/>
</g>
<!-- Node30&#45;&gt;Node2 -->
<g id="edge32" class="edge">
<title>Node30&#45;&gt;Node2</title>
<path fill="none" stroke="midnightblue" d="M513.33,-179.71C516.32,-179.46 519.29,-179.22 522.2,-179 882.21,-151.86 1313.56,-136.31 1485.28,-130.8"/>
<polygon fill="midnightblue" stroke="midnightblue" points="1485.59,-134.29 1495.48,-130.48 1485.37,-127.3 1485.59,-134.29"/>
</g>
<!-- Node33&#45;&gt;Node2 -->
<g id="edge37" class="edge">
<title>Node33&#45;&gt;Node2</title>
<path fill="none" stroke="midnightblue" d="M1450.42,-459.46C1465.18,-450.94 1487.95,-437.1 1506.2,-423 1564.18,-378.19 1618.2,-375.28 1618.2,-302 1618.2,-302 1618.2,-302 1618.2,-244 1618.2,-208.66 1596.48,-172.94 1579.85,-150.78"/>
<polygon fill="midnightblue" stroke="midnightblue" points="1582.47,-148.44 1573.56,-142.7 1576.95,-152.74 1582.47,-148.44"/>
</g>
<!-- Node34 -->
<g id="node34" class="node">
<title>Node34</title>
<g id="a_node34"><a xlink:href="../../d5/d5b/a00695.html" target="_top" xlink:title=" ">
<polygon fill="none" stroke="black" points="1351.2,-403.5 1351.2,-422.5 1497.2,-422.5 1497.2,-403.5 1351.2,-403.5"/>
<text text-anchor="middle" x="1424.2" y="-410.5" font-family="Helvetica,sans-Serif" font-size="10.00">discordcoreapi/CoRoutine.hpp</text>
</a>
</g>
</g>
<!-- Node33&#45;&gt;Node34 -->
<g id="edge38" class="edge">
<title>Node33&#45;&gt;Node34</title>
<path fill="none" stroke="midnightblue" d="M1433.38,-459.08C1431.92,-451.93 1429.83,-441.64 1428,-432.69"/>
<polygon fill="midnightblue" stroke="midnightblue" points="1431.4,-431.85 1425.98,-422.75 1424.55,-433.25 1431.4,-431.85"/>
</g>
<!-- Node34&#45;&gt;Node2 -->
<g id="edge39" class="edge">
<title>Node34&#45;&gt;Node2</title>
<path fill="none" stroke="midnightblue" d="M1460.77,-403.46C1506.88,-390.27 1580.2,-360.16 1580.2,-302 1580.2,-302 1580.2,-302 1580.2,-244 1580.2,-212.07 1573.04,-175.83 1567.51,-152.59"/>
<polygon fill="midnightblue" stroke="midnightblue" points="1570.84,-151.47 1565.04,-142.6 1564.04,-153.15 1570.84,-151.47"/>
</g>
<!-- Node34&#45;&gt;Node35 -->
<g id="edge40" class="edge">
<title>Node34&#45;&gt;Node35</title>
<path fill="none" stroke="midnightblue" d="M1416.44,-403.08C1409.66,-395.3 1399.65,-383.8 1391.44,-374.37"/>
<polygon fill="midnightblue" stroke="midnightblue" points="1394.02,-372 1384.81,-366.75 1388.74,-376.59 1394.02,-372"/>
</g>
<!-- Node35&#45;&gt;Node2 -->
<g id="edge41" class="edge">
<title>Node35&#45;&gt;Node2</title>
<path fill="none" stroke="midnightblue" d="M1394.99,-347.45C1410.3,-339.49 1432.36,-326.54 1448.2,-311 1497.07,-263.05 1533.99,-189.92 1550.95,-152.46"/>
<polygon fill="midnightblue" stroke="midnightblue" points="1554.34,-153.45 1555.19,-142.89 1547.94,-150.61 1554.34,-153.45"/>
</g>
<!-- Node36 -->
<g id="node36" class="node">
<title>Node36</title>
<g id="a_node36"><a xlink:href="../../db/d7c/a00722.html" target="_top" xlink:title=" ">
<polygon fill="none" stroke="black" points="1314.7,-291.5 1314.7,-310.5 1439.7,-310.5 1439.7,-291.5 1314.7,-291.5"/>
<text text-anchor="middle" x="1377.2" y="-298.5" font-family="Helvetica,sans-Serif" font-size="10.00">discordcoreapi/Https.hpp</text>
</a>
</g>
</g>
<!-- Node35&#45;&gt;Node36 -->
<g id="edge42" class="edge">
<title>Node35&#45;&gt;Node36</title>
<path fill="none" stroke="midnightblue" d="M1377.2,-347.08C1377.2,-340.01 1377.2,-329.86 1377.2,-320.99"/>
<polygon fill="midnightblue" stroke="midnightblue" points="1380.7,-320.75 1377.2,-310.75 1373.7,-320.75 1380.7,-320.75"/>
</g>
<!-- Node50 -->
<g id="node50" class="node">
<title>Node50</title>
<g id="a_node50"><a xlink:title=" ">
<polygon fill="none" stroke="#bfbfbf" points="1240.2,-291.5 1240.2,-310.5 1296.2,-310.5 1296.2,-291.5 1240.2,-291.5"/>
<text text-anchor="middle" x="1268.2" y="-298.5" font-family="Helvetica,sans-Serif" font-size="10.00">coroutine</text>
</a>
</g>
</g>
<!-- Node35&#45;&gt;Node50 -->
<g id="edge58" class="edge">
<title>Node35&#45;&gt;Node50</title>
<path fill="none" stroke="midnightblue" d="M1359.68,-347.32C1342.12,-338.62 1314.86,-325.12 1294.66,-315.11"/>
<polygon fill="midnightblue" stroke="midnightblue" points="1296.18,-311.96 1285.67,-310.65 1293.07,-318.23 1296.18,-311.96"/>
</g>
<!-- Node36&#45;&gt;Node37 -->
<g id="edge43" class="edge">
<title>Node36&#45;&gt;Node37</title>
<path fill="none" stroke="midnightblue" d="M1336.47,-291.44C1291.55,-282 1219.2,-266.8 1170.7,-256.61"/>
<polygon fill="midnightblue" stroke="midnightblue" points="1171.23,-253.15 1160.73,-254.52 1169.79,-260 1171.23,-253.15"/>
</g>
<!-- Node37&#45;&gt;Node2 -->
<g id="edge44" class="edge">
<title>Node37&#45;&gt;Node2</title>
<path fill="none" stroke="midnightblue" d="M1129.25,-235.09C1144.51,-220.66 1176.96,-192.44 1210.2,-179 1300.14,-142.64 1412.36,-131.91 1485.34,-129.03"/>
<polygon fill="midnightblue" stroke="midnightblue" points="1485.5,-132.53 1495.37,-128.67 1485.25,-125.53 1485.5,-132.53"/>
</g>
<!-- Node37&#45;&gt;Node30 -->
<g id="edge45" class="edge">
<title>Node37&#45;&gt;Node30</title>
<path fill="none" stroke="midnightblue" d="M1045.09,-239C933.67,-231.43 717.7,-216.21 523.45,-199.09"/>
<polygon fill="midnightblue" stroke="midnightblue" points="523.61,-195.59 513.34,-198.2 522.99,-202.56 523.61,-195.59"/>
</g>
<!-- Node38 -->
<g id="node38" class="node">
<title>Node38</title>
<g id="a_node38"><a xlink:title=" ">
<polygon fill="none" stroke="#bfbfbf" points="1219.7,-179.5 1219.7,-198.5 1292.7,-198.5 1292.7,-179.5 1219.7,-179.5"/>
<text text-anchor="middle" x="1256.2" y="-186.5" font-family="Helvetica,sans-Serif" font-size="10.00">openssl/err.h</text>
</a>
</g>
</g>
<!-- Node37&#45;&gt;Node38 -->
<g id="edge46" class="edge">
<title>Node37&#45;&gt;Node38</title>
<path fill="none" stroke="midnightblue" d="M1141.75,-235.44C1164.23,-226.52 1199.68,-212.44 1225.18,-202.32"/>
<polygon fill="midnightblue" stroke="midnightblue" points="1226.74,-205.46 1234.75,-198.52 1224.16,-198.95 1226.74,-205.46"/>
</g>
<!-- Node39 -->
<g id="node39" class="node">
<title>Node39</title>
<g id="a_node39"><a xlink:title=" ">
<polygon fill="none" stroke="#bfbfbf" points="1311.2,-179.5 1311.2,-198.5 1385.2,-198.5 1385.2,-179.5 1311.2,-179.5"/>
<text text-anchor="middle" x="1348.2" y="-186.5" font-family="Helvetica,sans-Serif" font-size="10.00">openssl/ssl.h</text>
</a>
</g>
</g>
<!-- Node37&#45;&gt;Node39 -->
<g id="edge47" class="edge">
<title>Node37&#45;&gt;Node39</title>
<path fill="none" stroke="midnightblue" d="M1156.32,-235.44C1195.85,-226.08 1259.29,-211.06 1302.31,-200.87"/>
<polygon fill="midnightblue" stroke="midnightblue" points="1303.31,-204.23 1312.24,-198.52 1301.7,-197.42 1303.31,-204.23"/>
</g>
<!-- Node40 -->
<g id="node40" class="node">
<title>Node40</title>
<g id="a_node40"><a xlink:title=" ">
<polygon fill="none" stroke="#bfbfbf" points="1403.7,-179.5 1403.7,-198.5 1446.7,-198.5 1446.7,-179.5 1403.7,-179.5"/>
<text text-anchor="middle" x="1425.2" y="-186.5" font-family="Helvetica,sans-Serif" font-size="10.00">fcntl.h</text>
</a>
</g>
</g>
<!-- Node37&#45;&gt;Node40 -->
<g id="edge48" class="edge">
<title>Node37&#45;&gt;Node40</title>
<path fill="none" stroke="midnightblue" d="M1185.67,-235.5C1239.16,-228.03 1316.86,-216.03 1393.74,-198.86"/>
<polygon fill="midnightblue" stroke="midnightblue" points="1394.62,-202.25 1403.6,-196.63 1393.08,-195.42 1394.62,-202.25"/>
</g>
<!-- Node41 -->
<g id="node41" class="node">
<title>Node41</title>
<g id="a_node41"><a xlink:title=" ">
<polygon fill="none" stroke="#bfbfbf" points="1464.7,-179.5 1464.7,-198.5 1513.7,-198.5 1513.7,-179.5 1464.7,-179.5"/>
<text text-anchor="middle" x="1489.2" y="-186.5" font-family="Helvetica,sans-Serif" font-size="10.00">netdb.h</text>
</a>
</g>
</g>
<!-- Node37&#45;&gt;Node41 -->
<g id="edge49" class="edge">
<title>Node37&#45;&gt;Node41</title>
<path fill="none" stroke="midnightblue" d="M1195.48,-236.61C1261.34,-229.53 1359.7,-217.45 1454.36,-198.94"/>
<polygon fill="midnightblue" stroke="midnightblue" points="1455.27,-202.33 1464.4,-196.95 1453.91,-195.46 1455.27,-202.33"/>
</g>
<!-- Node42 -->
<g id="node42" class="node">
<title>Node42</title>
<g id="a_node42"><a xlink:title=" ">
<polygon fill="none" stroke="#bfbfbf" points="531.7,-179.5 531.7,-198.5 596.7,-198.5 596.7,-179.5 531.7,-179.5"/>
<text text-anchor="middle" x="564.2" y="-186.5" font-family="Helvetica,sans-Serif" font-size="10.00">netinet/in.h</text>
</a>
</g>
</g>
<!-- Node37&#45;&gt;Node42 -->
<g id="edge50" class="edge">
<title>Node37&#45;&gt;Node42</title>
<path fill="none" stroke="midnightblue" d="M1044.78,-240.46C946.17,-235.15 767.96,-223.23 606.89,-199.09"/>
<polygon fill="midnightblue" stroke="midnightblue" points="607.21,-195.59 596.8,-197.55 606.16,-202.52 607.21,-195.59"/>
</g>
<!-- Node43 -->
<g id="node43" class="node">
<title>Node43</title>
<g id="a_node43"><a xlink:title=" ">
<polygon fill="none" stroke="#bfbfbf" points="614.7,-179.5 614.7,-198.5 685.7,-198.5 685.7,-179.5 614.7,-179.5"/>
<text text-anchor="middle" x="650.2" y="-186.5" font-family="Helvetica,sans-Serif" font-size="10.00">netinet/tcp.h</text>
</a>
</g>
</g>
<!-- Node37&#45;&gt;Node43 -->
<g id="edge51" class="edge">
<title>Node37&#45;&gt;Node43</title>
<path fill="none" stroke="midnightblue" d="M1044.88,-238.26C961.7,-231.41 823.61,-218.58 696.11,-199.18"/>
<polygon fill="midnightblue" stroke="midnightblue" points="696.58,-195.71 686.16,-197.65 695.52,-202.63 696.58,-195.71"/>
</g>
<!-- Node44 -->
<g id="node44" class="node">
<title>Node44</title>
<g id="a_node44"><a xlink:title=" ">
<polygon fill="none" stroke="#bfbfbf" points="703.7,-179.5 703.7,-198.5 752.7,-198.5 752.7,-179.5 703.7,-179.5"/>
<text text-anchor="middle" x="728.2" y="-186.5" font-family="Helvetica,sans-Serif" font-size="10.00">stdint.h</text>
</a>
</g>
</g>
<!-- Node37&#45;&gt;Node44 -->
<g id="edge52" class="edge">
<title>Node37&#45;&gt;Node44</title>
<path fill="none" stroke="midnightblue" d="M1045,-237.5C974.51,-230.73 866.08,-218.61 762.95,-198.9"/>
<polygon fill="midnightblue" stroke="midnightblue" points="763.47,-195.44 752.99,-196.97 762.14,-202.31 763.47,-195.44"/>
</g>
<!-- Node45 -->
<g id="node45" class="node">
<title>Node45</title>
<g id="a_node45"><a xlink:title=" ">
<polygon fill="none" stroke="#bfbfbf" points="771.2,-179.5 771.2,-198.5 835.2,-198.5 835.2,-179.5 771.2,-179.5"/>
<text text-anchor="middle" x="803.2" y="-186.5" font-family="Helvetica,sans-Serif" font-size="10.00">sys/epoll.h</text>
</a>
</g>
</g>
<!-- Node37&#45;&gt;Node45 -->
<g id="edge53" class="edge">
<title>Node37&#45;&gt;Node45</title>
<path fill="none" stroke="midnightblue" d="M1062.15,-235.48C1008.37,-227.37 925.93,-214.39 845.22,-199.12"/>
<polygon fill="midnightblue" stroke="midnightblue" points="845.87,-195.68 835.39,-197.24 844.56,-202.55 845.87,-195.68"/>
</g>
<!-- Node46 -->
<g id="node46" class="node">
<title>Node46</title>
<g id="a_node46"><a xlink:title=" ">
<polygon fill="none" stroke="#bfbfbf" points="853.2,-179.5 853.2,-198.5 915.2,-198.5 915.2,-179.5 853.2,-179.5"/>
<text text-anchor="middle" x="884.2" y="-186.5" font-family="Helvetica,sans-Serif" font-size="10.00">arpa/inet.h</text>
</a>
</g>
</g>
<!-- Node37&#45;&gt;Node46 -->
<g id="edge54" class="edge">
<title>Node37&#45;&gt;Node46</title>
<path fill="none" stroke="midnightblue" d="M1082.8,-235.44C1039.88,-225.62 969.69,-209.56 925.27,-199.4"/>
<polygon fill="midnightblue" stroke="midnightblue" points="925.92,-195.96 915.39,-197.14 924.35,-202.78 925.92,-195.96"/>
</g>
<!-- Node47 -->
<g id="node47" class="node">
<title>Node47</title>
<g id="a_node47"><a xlink:title=" ">
<polygon fill="none" stroke="#bfbfbf" points="933.7,-179.5 933.7,-198.5 1006.7,-198.5 1006.7,-179.5 933.7,-179.5"/>
<text text-anchor="middle" x="970.2" y="-186.5" font-family="Helvetica,sans-Serif" font-size="10.00">sys/socket.h</text>
</a>
</g>
</g>
<!-- Node37&#45;&gt;Node47 -->
<g id="edge55" class="edge">
<title>Node37&#45;&gt;Node47</title>
<path fill="none" stroke="midnightblue" d="M1096.43,-235.44C1071.3,-226.4 1031.49,-212.06 1003.3,-201.92"/>
<polygon fill="midnightblue" stroke="midnightblue" points="1004.45,-198.61 993.85,-198.52 1002.08,-205.2 1004.45,-198.61"/>
</g>
<!-- Node48 -->
<g id="node48" class="node">
<title>Node48</title>
<g id="a_node48"><a xlink:title=" ">
<polygon fill="none" stroke="#bfbfbf" points="1025.2,-179.5 1025.2,-198.5 1093.2,-198.5 1093.2,-179.5 1025.2,-179.5"/>
<text text-anchor="middle" x="1059.2" y="-186.5" font-family="Helvetica,sans-Serif" font-size="10.00">sys/types.h</text>
</a>
</g>
</g>
<!-- Node37&#45;&gt;Node48 -->
<g id="edge56" class="edge">
<title>Node37&#45;&gt;Node48</title>
<path fill="none" stroke="midnightblue" d="M1110.4,-235.32C1101.38,-227.34 1087.79,-215.31 1076.88,-205.65"/>
<polygon fill="midnightblue" stroke="midnightblue" points="1078.98,-202.84 1069.18,-198.83 1074.34,-208.08 1078.98,-202.84"/>
</g>
<!-- Node49 -->
<g id="node49" class="node">
<title>Node49</title>
<g id="a_node49"><a xlink:title=" ">
<polygon fill="none" stroke="#bfbfbf" points="1111.7,-179.5 1111.7,-198.5 1162.7,-198.5 1162.7,-179.5 1111.7,-179.5"/>
<text text-anchor="middle" x="1137.2" y="-186.5" font-family="Helvetica,sans-Serif" font-size="10.00">unistd.h</text>
</a>
</g>
</g>
<!-- Node37&#45;&gt;Node49 -->
<g id="edge57" class="edge">
<title>Node37&#45;&gt;Node49</title>
<path fill="none" stroke="midnightblue" d="M1123,-235.08C1125.28,-227.85 1128.57,-217.41 1131.4,-208.4"/>
<polygon fill="midnightblue" stroke="midnightblue" points="1134.78,-209.34 1134.44,-198.75 1128.1,-207.24 1134.78,-209.34"/>
</g>
<!-- Node51&#45;&gt;Node2 -->
<g id="edge60" class="edge">
<title>Node51&#45;&gt;Node2</title>
<path fill="none" stroke="midnightblue" d="M1629.38,-403.39C1637.84,-385.16 1656.2,-341.09 1656.2,-302 1656.2,-302 1656.2,-302 1656.2,-244 1656.2,-213.2 1650.91,-203.46 1632.2,-179 1622.79,-166.7 1609.55,-156.16 1597.05,-147.94"/>
<polygon fill="midnightblue" stroke="midnightblue" points="1598.9,-144.98 1588.57,-142.63 1595.18,-150.91 1598.9,-144.98"/>
</g>
</g>
</svg>
