<?xml version="1.0" encoding="UTF-8" standalone="no"?>
<!DOCTYPE svg PUBLIC "-//W3C//DTD SVG 1.1//EN"
 "http://www.w3.org/Graphics/SVG/1.1/DTD/svg11.dtd">
<!-- Generated by graphviz version 2.43.0 (0)
 -->
<!-- Title: YouTubeAPI.hpp Pages: 1 -->
<svg width="1487pt" height="196pt"
 viewBox="0.00 0.00 1486.50 196.00" xmlns="http://www.w3.org/2000/svg" xmlns:xlink="http://www.w3.org/1999/xlink">
<g id="graph0" class="graph" transform="scale(1 1) rotate(0) translate(4 192)">
<title>YouTubeAPI.hpp</title>
<!-- Node1 -->
<g id="node1" class="node">
<title>Node1</title>
<g id="a_node1"><a xlink:title=" ">
<polygon fill="#bfbfbf" stroke="black" points="803.5,-168.5 803.5,-187.5 895.5,-187.5 895.5,-168.5 803.5,-168.5"/>
<text text-anchor="middle" x="849.5" y="-175.5" font-family="Helvetica,sans-Serif" font-size="10.00">YouTubeAPI.hpp</text>
</a>
</g>
</g>
<!-- Node2 -->
<g id="node2" class="node">
<title>Node2</title>
<g id="a_node2"><a xlink:href="../../df/dbb/a00698.html" target="_top" xlink:title=" ">
<polygon fill="none" stroke="black" points="742,-112.5 742,-131.5 867,-131.5 867,-112.5 742,-112.5"/>
<text text-anchor="middle" x="804.5" y="-119.5" font-family="Helvetica,sans-Serif" font-size="10.00">DiscordCoreClient.hpp</text>
</a>
</g>
</g>
<!-- Node1&#45;&gt;Node2 -->
<g id="edge1" class="edge">
<title>Node1&#45;&gt;Node2</title>
<path fill="none" stroke="midnightblue" d="M835.45,-160.14C827.61,-150.74 818.17,-139.4 811.79,-131.75"/>
<polygon fill="midnightblue" stroke="midnightblue" points="832.98,-162.64 842.07,-168.08 838.36,-158.16 832.98,-162.64"/>
</g>
<!-- Node8 -->
<g id="node8" class="node">
<title>Node8</title>
<g id="a_node8"><a xlink:href="../../d3/d60/a00818.html" target="_top" xlink:title=" ">
<polygon fill="none" stroke="black" points="0,-56.5 0,-75.5 99,-75.5 99,-56.5 0,-56.5"/>
<text text-anchor="middle" x="49.5" y="-63.5" font-family="Helvetica,sans-Serif" font-size="10.00">GuildEntities.cpp</text>
</a>
</g>
</g>
<!-- Node1&#45;&gt;Node8 -->
<g id="edge15" class="edge">
<title>Node1&#45;&gt;Node8</title>
<path fill="none" stroke="midnightblue" d="M793.43,-169.73C669.59,-153.6 363.4,-113.27 107.5,-76 104.78,-75.6 101.98,-75.19 99.16,-74.77"/>
<polygon fill="midnightblue" stroke="midnightblue" points="793.07,-173.21 803.44,-171.03 793.97,-166.27 793.07,-173.21"/>
</g>
<!-- Node11 -->
<g id="node11" class="node">
<title>Node11</title>
<g id="a_node11"><a xlink:href="../../d7/dcf/a00845.html" target="_top" xlink:title=" ">
<polygon fill="none" stroke="black" points="1291,-56.5 1291,-75.5 1368,-75.5 1368,-56.5 1291,-56.5"/>
<text text-anchor="middle" x="1329.5" y="-63.5" font-family="Helvetica,sans-Serif" font-size="10.00">SongAPI.cpp</text>
</a>
</g>
</g>
<!-- Node1&#45;&gt;Node11 -->
<g id="edge16" class="edge">
<title>Node1&#45;&gt;Node11</title>
<path fill="none" stroke="midnightblue" d="M896.7,-166.18C992.06,-144.33 1205.89,-95.33 1292.26,-75.53"/>
<polygon fill="midnightblue" stroke="midnightblue" points="895.73,-162.81 886.77,-168.46 897.29,-169.64 895.73,-162.81"/>
</g>
<!-- Node15 -->
<g id="node15" class="node">
<title>Node15</title>
<g id="a_node15"><a xlink:href="../../df/d41/a00881.html" target="_top" xlink:title=" ">
<polygon fill="none" stroke="black" points="1386.5,-56.5 1386.5,-75.5 1478.5,-75.5 1478.5,-56.5 1386.5,-56.5"/>
<text text-anchor="middle" x="1432.5" y="-63.5" font-family="Helvetica,sans-Serif" font-size="10.00">YouTubeAPI.cpp</text>
</a>
</g>
</g>
<!-- Node1&#45;&gt;Node15 -->
<g id="edge17" class="edge">
<title>Node1&#45;&gt;Node15</title>
<path fill="none" stroke="midnightblue" d="M905.83,-167.35C957.34,-158.44 1035.62,-144.72 1103.5,-132 1206.94,-112.62 1328.32,-88.2 1390.74,-75.52"/>
<polygon fill="midnightblue" stroke="midnightblue" points="905.16,-163.91 895.9,-169.06 906.35,-170.81 905.16,-163.91"/>
</g>
<!-- Node3 -->
<g id="node3" class="node">
<title>Node3</title>
<g id="a_node3"><a xlink:href="../../d8/db9/a00725.html" target="_top" xlink:title=" ">
<polygon fill="none" stroke="black" points="117,-56.5 117,-75.5 182,-75.5 182,-56.5 117,-56.5"/>
<text text-anchor="middle" x="149.5" y="-63.5" font-family="Helvetica,sans-Serif" font-size="10.00">Index.hpp</text>
</a>
</g>
</g>
<!-- Node2&#45;&gt;Node3 -->
<g id="edge2" class="edge">
<title>Node2&#45;&gt;Node3</title>
<path fill="none" stroke="midnightblue" d="M731.74,-119.03C616.42,-115.16 384.8,-104.3 190.5,-76 187.76,-75.6 184.93,-75.12 182.1,-74.6"/>
<polygon fill="midnightblue" stroke="midnightblue" points="731.75,-122.53 741.86,-119.36 731.98,-115.54 731.75,-122.53"/>
</g>
<!-- Node5 -->
<g id="node5" class="node">
<title>Node5</title>
<g id="a_node5"><a xlink:href="../../da/d96/a00782.html" target="_top" xlink:title=" ">
<polygon fill="none" stroke="black" points="200,-56.5 200,-75.5 379,-75.5 379,-56.5 200,-56.5"/>
<text text-anchor="middle" x="289.5" y="-63.5" font-family="Helvetica,sans-Serif" font-size="10.00">ApplicationCommandEntities.cpp</text>
</a>
</g>
</g>
<!-- Node2&#45;&gt;Node5 -->
<g id="edge4" class="edge">
<title>Node2&#45;&gt;Node5</title>
<path fill="none" stroke="midnightblue" d="M731.74,-113.37C636.49,-103.38 470.01,-85.93 370.74,-75.52"/>
<polygon fill="midnightblue" stroke="midnightblue" points="731.56,-116.87 741.87,-114.43 732.29,-109.91 731.56,-116.87"/>
</g>
<!-- Node6 -->
<g id="node6" class="node">
<title>Node6</title>
<g id="a_node6"><a xlink:href="../../d5/d72/a00803.html" target="_top" xlink:title=" ">
<polygon fill="none" stroke="black" points="397,-56.5 397,-75.5 522,-75.5 522,-56.5 397,-56.5"/>
<text text-anchor="middle" x="459.5" y="-63.5" font-family="Helvetica,sans-Serif" font-size="10.00">DiscordCoreClient.cpp</text>
</a>
</g>
</g>
<!-- Node2&#45;&gt;Node6 -->
<g id="edge5" class="edge">
<title>Node2&#45;&gt;Node6</title>
<path fill="none" stroke="midnightblue" d="M739.68,-110.85C674.49,-100.65 575.12,-85.1 513.91,-75.52"/>
<polygon fill="midnightblue" stroke="midnightblue" points="739.41,-114.35 749.83,-112.44 740.5,-107.44 739.41,-114.35"/>
</g>
<!-- Node7 -->
<g id="node7" class="node">
<title>Node7</title>
<g id="a_node7"><a xlink:href="../../d8/db7/a00812.html" target="_top" xlink:title=" ">
<polygon fill="none" stroke="black" points="540,-56.5 540,-75.5 647,-75.5 647,-56.5 540,-56.5"/>
<text text-anchor="middle" x="593.5" y="-63.5" font-family="Helvetica,sans-Serif" font-size="10.00">EventManager.cpp</text>
</a>
</g>
</g>
<!-- Node2&#45;&gt;Node7 -->
<g id="edge6" class="edge">
<title>Node2&#45;&gt;Node7</title>
<path fill="none" stroke="midnightblue" d="M761.36,-109.96C721.51,-99.76 663.14,-84.82 626.78,-75.52"/>
<polygon fill="midnightblue" stroke="midnightblue" points="760.51,-113.35 771.07,-112.44 762.25,-106.57 760.51,-113.35"/>
</g>
<!-- Node2&#45;&gt;Node8 -->
<g id="edge7" class="edge">
<title>Node2&#45;&gt;Node8</title>
<path fill="none" stroke="midnightblue" d="M731.86,-118.45C604.92,-113.52 334.59,-100.9 107.5,-76 104.77,-75.7 101.96,-75.36 99.14,-75"/>
<polygon fill="midnightblue" stroke="midnightblue" points="731.73,-121.95 741.86,-118.84 732,-114.95 731.73,-121.95"/>
</g>
<!-- Node9 -->
<g id="node9" class="node">
<title>Node9</title>
<g id="a_node9"><a xlink:href="../../dc/d1b/a00827.html" target="_top" xlink:title=" ">
<polygon fill="none" stroke="black" points="665,-56.5 665,-75.5 728,-75.5 728,-56.5 665,-56.5"/>
<text text-anchor="middle" x="696.5" y="-63.5" font-family="Helvetica,sans-Serif" font-size="10.00">Https.cpp</text>
</a>
</g>
</g>
<!-- Node2&#45;&gt;Node9 -->
<g id="edge8" class="edge">
<title>Node2&#45;&gt;Node9</title>
<path fill="none" stroke="midnightblue" d="M777.95,-107.73C757.95,-97.73 731.11,-84.31 713.81,-75.65"/>
<polygon fill="midnightblue" stroke="midnightblue" points="776.64,-110.98 787.15,-112.32 779.77,-104.72 776.64,-110.98"/>
</g>
<!-- Node10 -->
<g id="node10" class="node">
<title>Node10</title>
<g id="a_node10"><a xlink:href="../../d3/d13/a00836.html" target="_top" xlink:title=" ">
<polygon fill="none" stroke="black" points="746,-56.5 746,-75.5 863,-75.5 863,-56.5 746,-56.5"/>
<text text-anchor="middle" x="804.5" y="-63.5" font-family="Helvetica,sans-Serif" font-size="10.00">MessageEntities.cpp</text>
</a>
</g>
</g>
<!-- Node2&#45;&gt;Node10 -->
<g id="edge9" class="edge">
<title>Node2&#45;&gt;Node10</title>
<path fill="none" stroke="midnightblue" d="M804.5,-101.8C804.5,-92.91 804.5,-82.78 804.5,-75.75"/>
<polygon fill="midnightblue" stroke="midnightblue" points="801,-102.08 804.5,-112.08 808,-102.08 801,-102.08"/>
</g>
<!-- Node2&#45;&gt;Node11 -->
<g id="edge10" class="edge">
<title>Node2&#45;&gt;Node11</title>
<path fill="none" stroke="midnightblue" d="M877.61,-116.29C971.61,-109.74 1139.73,-96.34 1282.5,-76 1285.21,-75.61 1288.01,-75.18 1290.82,-74.71"/>
<polygon fill="midnightblue" stroke="midnightblue" points="877.1,-112.82 867.36,-117 877.58,-119.8 877.1,-112.82"/>
</g>
<!-- Node12 -->
<g id="node12" class="node">
<title>Node12</title>
<g id="a_node12"><a xlink:href="../../d9/d30/a00848.html" target="_top" xlink:title=" ">
<polygon fill="none" stroke="black" points="881.5,-56.5 881.5,-75.5 991.5,-75.5 991.5,-56.5 881.5,-56.5"/>
<text text-anchor="middle" x="936.5" y="-63.5" font-family="Helvetica,sans-Serif" font-size="10.00">SoundCloudAPI.cpp</text>
</a>
</g>
</g>
<!-- Node2&#45;&gt;Node12 -->
<g id="edge11" class="edge">
<title>Node2&#45;&gt;Node12</title>
<path fill="none" stroke="midnightblue" d="M834.72,-108.64C859.49,-98.5 893.9,-84.43 915.68,-75.52"/>
<polygon fill="midnightblue" stroke="midnightblue" points="833.35,-105.42 825.42,-112.44 836,-111.9 833.35,-105.42"/>
</g>
<!-- Node13 -->
<g id="node13" class="node">
<title>Node13</title>
<g id="a_node13"><a xlink:href="../../dc/d17/a00872.html" target="_top" xlink:title=" ">
<polygon fill="none" stroke="black" points="1009.5,-56.5 1009.5,-75.5 1127.5,-75.5 1127.5,-56.5 1009.5,-56.5"/>
<text text-anchor="middle" x="1068.5" y="-63.5" font-family="Helvetica,sans-Serif" font-size="10.00">VoiceConnection.cpp</text>
</a>
</g>
</g>
<!-- Node2&#45;&gt;Node13 -->
<g id="edge12" class="edge">
<title>Node2&#45;&gt;Node13</title>
<path fill="none" stroke="midnightblue" d="M856.28,-110.41C906.17,-100.2 980.7,-84.96 1026.86,-75.52"/>
<polygon fill="midnightblue" stroke="midnightblue" points="855.43,-107.01 846.33,-112.44 856.83,-113.87 855.43,-107.01"/>
</g>
<!-- Node14 -->
<g id="node14" class="node">
<title>Node14</title>
<g id="a_node14"><a xlink:href="../../d5/d69/a00878.html" target="_top" xlink:title=" ">
<polygon fill="none" stroke="black" points="1146,-56.5 1146,-75.5 1273,-75.5 1273,-56.5 1146,-56.5"/>
<text text-anchor="middle" x="1209.5" y="-63.5" font-family="Helvetica,sans-Serif" font-size="10.00">WebSocketEntities.cpp</text>
</a>
</g>
</g>
<!-- Node2&#45;&gt;Node14 -->
<g id="edge13" class="edge">
<title>Node2&#45;&gt;Node14</title>
<path fill="none" stroke="midnightblue" d="M877.38,-111.28C953.89,-101.08 1072.99,-85.2 1145.85,-75.49"/>
<polygon fill="midnightblue" stroke="midnightblue" points="876.79,-107.83 867.34,-112.62 877.71,-114.77 876.79,-107.83"/>
</g>
<!-- Node2&#45;&gt;Node15 -->
<g id="edge14" class="edge">
<title>Node2&#45;&gt;Node15</title>
<path fill="none" stroke="midnightblue" d="M877.65,-117.22C986.77,-111.14 1198.52,-97.63 1377.5,-76 1380.38,-75.65 1383.34,-75.26 1386.33,-74.84"/>
<polygon fill="midnightblue" stroke="midnightblue" points="877.21,-113.74 867.41,-117.79 877.59,-120.73 877.21,-113.74"/>
</g>
<!-- Node4 -->
<g id="node4" class="node">
<title>Node4</title>
<g id="a_node4"><a xlink:href="../../d0/dad/a00806.html" target="_top" xlink:title=" ">
<polygon fill="none" stroke="black" points="112.5,-0.5 112.5,-19.5 186.5,-19.5 186.5,-0.5 112.5,-0.5"/>
<text text-anchor="middle" x="149.5" y="-7.5" font-family="Helvetica,sans-Serif" font-size="10.00">DllMain.cpp</text>
</a>
</g>
</g>
<!-- Node3&#45;&gt;Node4 -->
<g id="edge3" class="edge">
<title>Node3&#45;&gt;Node4</title>
<path fill="none" stroke="midnightblue" d="M149.5,-45.8C149.5,-36.91 149.5,-26.78 149.5,-19.75"/>
<polygon fill="midnightblue" stroke="midnightblue" points="146,-46.08 149.5,-56.08 153,-46.08 146,-46.08"/>
</g>
</g>
</svg>
