<?xml version="1.0" encoding="UTF-8" standalone="no"?>
<!DOCTYPE svg PUBLIC "-//W3C//DTD SVG 1.1//EN"
 "http://www.w3.org/Graphics/SVG/1.1/DTD/svg11.dtd">
<!-- Generated by graphviz version 2.43.0 (0)
 -->
<!-- Title: VoiceConnection.hpp Pages: 1 -->
<svg width="1486pt" height="302pt"
 viewBox="0.00 0.00 1485.50 302.00" xmlns="http://www.w3.org/2000/svg" xmlns:xlink="http://www.w3.org/1999/xlink">
<g id="graph0" class="graph" transform="scale(1 1) rotate(0) translate(4 298)">
<title>VoiceConnection.hpp</title>
<!-- Node1 -->
<g id="node1" class="node">
<title>Node1</title>
<g id="a_node1"><a xlink:title=" ">
<polygon fill="#bfbfbf" stroke="black" points="1121,-294 1002,-294 1002,-275 1121,-275 1121,-294"/>
<text text-anchor="middle" x="1061.5" y="-282" font-family="Helvetica,sans-Serif" font-size="10.00">VoiceConnection.hpp</text>
</a>
</g>
</g>
<!-- Node2 -->
<g id="node2" class="node">
<title>Node2</title>
<g id="a_node2"><a xlink:href="../../db/d7c/a00722.html" target="_top" xlink:title=" ">
<polygon fill="none" stroke="black" points="686,-129 561,-129 561,-110 686,-110 686,-129"/>
<text text-anchor="middle" x="623.5" y="-117" font-family="Helvetica,sans-Serif" font-size="10.00">DiscordCoreClient.hpp</text>
</a>
</g>
</g>
<!-- Node1&#45;&gt;Node2 -->
<g id="edge1" class="edge">
<title>Node1&#45;&gt;Node2</title>
<path fill="none" stroke="midnightblue" d="M1064.75,-264.56C1068.08,-238.15 1069.5,-190.6 1042.5,-165 1017.19,-141 796.97,-128.06 686.35,-123.02"/>
<polygon fill="midnightblue" stroke="midnightblue" points="1061.24,-264.36 1063.23,-274.76 1068.16,-265.39 1061.24,-264.36"/>
</g>
<!-- Node11 -->
<g id="node11" class="node">
<title>Node11</title>
<g id="a_node11"><a xlink:href="../../df/d0c/a00788.html" target="_top" xlink:title=" ">
<polygon fill="none" stroke="black" points="77,-74 0,-74 0,-55 77,-55 77,-74"/>
<text text-anchor="middle" x="38.5" y="-62" font-family="Helvetica,sans-Serif" font-size="10.00">SongAPI.cpp</text>
</a>
</g>
</g>
<!-- Node1&#45;&gt;Node11 -->
<g id="edge26" class="edge">
<title>Node1&#45;&gt;Node11</title>
<path fill="none" stroke="midnightblue" d="M991.74,-283.29C801.8,-281.59 279.9,-269.1 134.5,-184 87.43,-156.45 53.95,-96.51 42.67,-74.14"/>
<polygon fill="midnightblue" stroke="midnightblue" points="991.85,-286.79 1001.88,-283.37 991.91,-279.79 991.85,-286.79"/>
</g>
<!-- Node12 -->
<g id="node12" class="node">
<title>Node12</title>
<g id="a_node12"><a xlink:href="../../d7/dcf/a00845.html" target="_top" xlink:title=" ">
<polygon fill="none" stroke="black" points="1231.5,-74 1121.5,-74 1121.5,-55 1231.5,-55 1231.5,-74"/>
<text text-anchor="middle" x="1176.5" y="-62" font-family="Helvetica,sans-Serif" font-size="10.00">SoundCloudAPI.cpp</text>
</a>
</g>
</g>
<!-- Node1&#45;&gt;Node12 -->
<g id="edge31" class="edge">
<title>Node1&#45;&gt;Node12</title>
<path fill="none" stroke="midnightblue" d="M1070.74,-265.98C1094.07,-221.75 1154.71,-106.81 1171.9,-74.22"/>
<polygon fill="midnightblue" stroke="midnightblue" points="1067.58,-264.48 1066.01,-274.95 1073.77,-267.74 1067.58,-264.48"/>
</g>
<!-- Node13 -->
<g id="node13" class="node">
<title>Node13</title>
<g id="a_node13"><a xlink:href="../../d2/d5e/a00860.html" target="_top" xlink:title=" ">
<polygon fill="none" stroke="black" points="1367.5,-74 1249.5,-74 1249.5,-55 1367.5,-55 1367.5,-74"/>
<text text-anchor="middle" x="1308.5" y="-62" font-family="Helvetica,sans-Serif" font-size="10.00">VoiceConnection.cpp</text>
</a>
</g>
</g>
<!-- Node1&#45;&gt;Node13 -->
<g id="edge32" class="edge">
<title>Node1&#45;&gt;Node13</title>
<path fill="none" stroke="midnightblue" d="M1078.89,-268.15C1127.05,-225.65 1261.08,-107.35 1298.62,-74.22"/>
<polygon fill="midnightblue" stroke="midnightblue" points="1076.36,-265.71 1071.18,-274.95 1081,-270.96 1076.36,-265.71"/>
</g>
<!-- Node15 -->
<g id="node15" class="node">
<title>Node15</title>
<g id="a_node15"><a xlink:href="../../dc/d1b/a00827.html" target="_top" xlink:title=" ">
<polygon fill="none" stroke="black" points="1477.5,-74 1385.5,-74 1385.5,-55 1477.5,-55 1477.5,-74"/>
<text text-anchor="middle" x="1431.5" y="-62" font-family="Helvetica,sans-Serif" font-size="10.00">YouTubeAPI.cpp</text>
</a>
</g>
</g>
<!-- Node1&#45;&gt;Node15 -->
<g id="edge33" class="edge">
<title>Node1&#45;&gt;Node15</title>
<path fill="none" stroke="midnightblue" d="M1085.36,-269.8C1100.59,-261.03 1120.73,-249.39 1138.5,-239 1245.91,-176.16 1374.78,-99.36 1417.2,-74.04"/>
<polygon fill="midnightblue" stroke="midnightblue" points="1083.5,-266.83 1076.58,-274.85 1086.99,-272.9 1083.5,-266.83"/>
</g>
<!-- Node16 -->
<g id="node16" class="node">
<title>Node16</title>
<g id="a_node16"><a xlink:href="../../dd/dd8/a00719.html" target="_top" xlink:title=" ">
<polygon fill="none" stroke="black" points="706.5,-239 606.5,-239 606.5,-220 706.5,-220 706.5,-239"/>
<text text-anchor="middle" x="656.5" y="-227" font-family="Helvetica,sans-Serif" font-size="10.00">GuildEntities.hpp</text>
</a>
</g>
</g>
<!-- Node1&#45;&gt;Node16 -->
<g id="edge15" class="edge">
<title>Node1&#45;&gt;Node16</title>
<path fill="none" stroke="midnightblue" d="M991.6,-274.35C910.35,-263.72 778.26,-246.43 706.6,-237.06"/>
<polygon fill="midnightblue" stroke="midnightblue" points="991.37,-277.85 1001.74,-275.68 992.28,-270.91 991.37,-277.85"/>
</g>
<!-- Node22 -->
<g id="node22" class="node">
<title>Node22</title>
<g id="a_node22"><a xlink:href="../../d5/dae/a00767.html" target="_top" xlink:title=" ">
<polygon fill="none" stroke="black" points="221,-184 144,-184 144,-165 221,-165 221,-184"/>
<text text-anchor="middle" x="182.5" y="-172" font-family="Helvetica,sans-Serif" font-size="10.00">SongAPI.hpp</text>
</a>
</g>
</g>
<!-- Node1&#45;&gt;Node22 -->
<g id="edge27" class="edge">
<title>Node1&#45;&gt;Node22</title>
<path fill="none" stroke="midnightblue" d="M991.5,-278.02C900.55,-270.62 736.88,-256.33 597.5,-239 458.45,-221.71 294.2,-194.58 221.02,-182.14"/>
<polygon fill="midnightblue" stroke="midnightblue" points="991.44,-281.53 1001.69,-278.85 992,-274.55 991.44,-281.53"/>
</g>
<!-- Node3 -->
<g id="node3" class="node">
<title>Node3</title>
<g id="a_node3"><a xlink:href="../../d3/db2/a00869.html" target="_top" xlink:title=" ">
<polygon fill="none" stroke="black" points="879,-74 700,-74 700,-55 879,-55 879,-74"/>
<text text-anchor="middle" x="789.5" y="-62" font-family="Helvetica,sans-Serif" font-size="10.00">ApplicationCommandEntities.cpp</text>
</a>
</g>
</g>
<!-- Node2&#45;&gt;Node3 -->
<g id="edge2" class="edge">
<title>Node2&#45;&gt;Node3</title>
<path fill="none" stroke="midnightblue" d="M659.75,-106.93C690.75,-97.03 734.67,-83.01 762.62,-74.08"/>
<polygon fill="midnightblue" stroke="midnightblue" points="658.63,-103.61 650.17,-109.98 660.76,-110.28 658.63,-103.61"/>
</g>
<!-- Node4 -->
<g id="node4" class="node">
<title>Node4</title>
<g id="a_node4"><a xlink:href="../../d8/d1c/a00824.html" target="_top" xlink:title=" ">
<polygon fill="none" stroke="black" points="1022,-74 897,-74 897,-55 1022,-55 1022,-74"/>
<text text-anchor="middle" x="959.5" y="-62" font-family="Helvetica,sans-Serif" font-size="10.00">DiscordCoreClient.cpp</text>
</a>
</g>
</g>
<!-- Node2&#45;&gt;Node4 -->
<g id="edge3" class="edge">
<title>Node2&#45;&gt;Node4</title>
<path fill="none" stroke="midnightblue" d="M687.71,-108.37C750.8,-98.42 846.01,-83.4 905.37,-74.04"/>
<polygon fill="midnightblue" stroke="midnightblue" points="686.82,-104.97 677.48,-109.98 687.91,-111.88 686.82,-104.97"/>
</g>
<!-- Node5 -->
<g id="node5" class="node">
<title>Node5</title>
<g id="a_node5"><a xlink:href="../../dd/d7e/a00809.html" target="_top" xlink:title=" ">
<polygon fill="none" stroke="black" points="464,-74 357,-74 357,-55 464,-55 464,-74"/>
<text text-anchor="middle" x="410.5" y="-62" font-family="Helvetica,sans-Serif" font-size="10.00">EventManager.cpp</text>
</a>
</g>
</g>
<!-- Node2&#45;&gt;Node5 -->
<g id="edge4" class="edge">
<title>Node2&#45;&gt;Node5</title>
<path fill="none" stroke="midnightblue" d="M579.55,-107.56C539.66,-97.64 481.63,-83.2 444.99,-74.08"/>
<polygon fill="midnightblue" stroke="midnightblue" points="578.73,-110.97 589.28,-109.98 580.42,-104.17 578.73,-110.97"/>
</g>
<!-- Node6 -->
<g id="node6" class="node">
<title>Node6</title>
<g id="a_node6"><a xlink:href="../../d7/d49/a00863.html" target="_top" xlink:title=" ">
<polygon fill="none" stroke="black" points="194,-74 95,-74 95,-55 194,-55 194,-74"/>
<text text-anchor="middle" x="144.5" y="-62" font-family="Helvetica,sans-Serif" font-size="10.00">GuildEntities.cpp</text>
</a>
</g>
</g>
<!-- Node2&#45;&gt;Node6 -->
<g id="edge5" class="edge">
<title>Node2&#45;&gt;Node6</title>
<path fill="none" stroke="midnightblue" d="M550.8,-111.71C466.8,-103.66 324.48,-89.38 202.5,-74 199.77,-73.66 196.98,-73.29 194.16,-72.91"/>
<polygon fill="midnightblue" stroke="midnightblue" points="550.71,-115.22 561,-112.69 551.37,-108.25 550.71,-115.22"/>
</g>
<!-- Node7 -->
<g id="node7" class="node">
<title>Node7</title>
<g id="a_node7"><a xlink:href="../../d3/d00/a00785.html" target="_top" xlink:title=" ">
<polygon fill="none" stroke="black" points="1103,-74 1040,-74 1040,-55 1103,-55 1103,-74"/>
<text text-anchor="middle" x="1071.5" y="-62" font-family="Helvetica,sans-Serif" font-size="10.00">Https.cpp</text>
</a>
</g>
</g>
<!-- Node2&#45;&gt;Node7 -->
<g id="edge6" class="edge">
<title>Node2&#45;&gt;Node7</title>
<path fill="none" stroke="midnightblue" d="M696.32,-112.65C777.97,-105.6 914.19,-92.37 1030.5,-74 1033.52,-73.52 1036.65,-72.97 1039.77,-72.39"/>
<polygon fill="midnightblue" stroke="midnightblue" points="695.82,-109.18 686.15,-113.52 696.41,-116.16 695.82,-109.18"/>
</g>
<!-- Node8 -->
<g id="node8" class="node">
<title>Node8</title>
<g id="a_node8"><a xlink:href="../../d2/d4a/a00758.html" target="_top" xlink:title=" ">
<polygon fill="none" stroke="black" points="547,-74 482,-74 482,-55 547,-55 547,-74"/>
<text text-anchor="middle" x="514.5" y="-62" font-family="Helvetica,sans-Serif" font-size="10.00">Index.hpp</text>
</a>
</g>
</g>
<!-- Node2&#45;&gt;Node8 -->
<g id="edge7" class="edge">
<title>Node2&#45;&gt;Node8</title>
<path fill="none" stroke="midnightblue" d="M596.77,-105.5C576.71,-95.75 549.82,-82.68 532.33,-74.17"/>
<polygon fill="midnightblue" stroke="midnightblue" points="595.46,-108.76 605.99,-109.98 598.52,-102.46 595.46,-108.76"/>
</g>
<!-- Node10 -->
<g id="node10" class="node">
<title>Node10</title>
<g id="a_node10"><a xlink:href="../../d4/d45/a00791.html" target="_top" xlink:title=" ">
<polygon fill="none" stroke="black" points="682,-74 565,-74 565,-55 682,-55 682,-74"/>
<text text-anchor="middle" x="623.5" y="-62" font-family="Helvetica,sans-Serif" font-size="10.00">MessageEntities.cpp</text>
</a>
</g>
</g>
<!-- Node2&#45;&gt;Node10 -->
<g id="edge9" class="edge">
<title>Node2&#45;&gt;Node10</title>
<path fill="none" stroke="midnightblue" d="M623.5,-99.66C623.5,-90.93 623.5,-80.99 623.5,-74.09"/>
<polygon fill="midnightblue" stroke="midnightblue" points="620,-99.75 623.5,-109.75 627,-99.75 620,-99.75"/>
</g>
<!-- Node2&#45;&gt;Node11 -->
<g id="edge10" class="edge">
<title>Node2&#45;&gt;Node11</title>
<path fill="none" stroke="midnightblue" d="M550.71,-114.71C447.08,-108.81 251.19,-95.78 85.5,-74 82.79,-73.64 79.99,-73.24 77.18,-72.8"/>
<polygon fill="midnightblue" stroke="midnightblue" points="550.57,-118.21 560.75,-115.28 550.96,-111.22 550.57,-118.21"/>
</g>
<!-- Node2&#45;&gt;Node12 -->
<g id="edge11" class="edge">
<title>Node2&#45;&gt;Node12</title>
<path fill="none" stroke="midnightblue" d="M696.49,-112.74C791.98,-105 964.45,-90.31 1111.5,-74 1114.67,-73.65 1117.92,-73.27 1121.2,-72.88"/>
<polygon fill="midnightblue" stroke="midnightblue" points="696.05,-109.26 686.36,-113.56 696.61,-116.24 696.05,-109.26"/>
</g>
<!-- Node2&#45;&gt;Node13 -->
<g id="edge12" class="edge">
<title>Node2&#45;&gt;Node13</title>
<path fill="none" stroke="midnightblue" d="M696.35,-114.48C811.88,-107.84 1044.16,-93.34 1240.5,-74 1243.34,-73.72 1246.25,-73.42 1249.18,-73.1"/>
<polygon fill="midnightblue" stroke="midnightblue" points="696,-111 686.21,-115.06 696.4,-117.99 696,-111"/>
</g>
<!-- Node14 -->
<g id="node14" class="node">
<title>Node14</title>
<g id="a_node14"><a xlink:href="../../d0/d11/a00842.html" target="_top" xlink:title=" ">
<polygon fill="none" stroke="black" points="339,-74 212,-74 212,-55 339,-55 339,-74"/>
<text text-anchor="middle" x="275.5" y="-62" font-family="Helvetica,sans-Serif" font-size="10.00">WebSocketEntities.cpp</text>
</a>
</g>
</g>
<!-- Node2&#45;&gt;Node14 -->
<g id="edge13" class="edge">
<title>Node2&#45;&gt;Node14</title>
<path fill="none" stroke="midnightblue" d="M557.4,-108.43C492.06,-98.48 393.17,-83.42 331.56,-74.04"/>
<polygon fill="midnightblue" stroke="midnightblue" points="557.17,-111.94 567.59,-109.98 558.23,-105.02 557.17,-111.94"/>
</g>
<!-- Node2&#45;&gt;Node15 -->
<g id="edge14" class="edge">
<title>Node2&#45;&gt;Node15</title>
<path fill="none" stroke="midnightblue" d="M696.33,-116.48C830.96,-112.24 1127.75,-100.51 1376.5,-74 1379.38,-73.69 1382.34,-73.34 1385.33,-72.96"/>
<polygon fill="midnightblue" stroke="midnightblue" points="696.03,-112.99 686.14,-116.8 696.24,-119.98 696.03,-112.99"/>
</g>
<!-- Node9 -->
<g id="node9" class="node">
<title>Node9</title>
<g id="a_node9"><a xlink:href="../../d1/d93/a00875.html" target="_top" xlink:title=" ">
<polygon fill="none" stroke="black" points="551.5,-19 477.5,-19 477.5,0 551.5,0 551.5,-19"/>
<text text-anchor="middle" x="514.5" y="-7" font-family="Helvetica,sans-Serif" font-size="10.00">DllMain.cpp</text>
</a>
</g>
</g>
<!-- Node8&#45;&gt;Node9 -->
<g id="edge8" class="edge">
<title>Node8&#45;&gt;Node9</title>
<path fill="none" stroke="midnightblue" d="M514.5,-44.66C514.5,-35.93 514.5,-25.99 514.5,-19.09"/>
<polygon fill="midnightblue" stroke="midnightblue" points="511,-44.75 514.5,-54.75 518,-44.75 511,-44.75"/>
</g>
<!-- Node16&#45;&gt;Node2 -->
<g id="edge17" class="edge">
<title>Node16&#45;&gt;Node2</title>
<path fill="none" stroke="midnightblue" d="M650.68,-210.2C648.14,-202.17 645.15,-192.62 642.5,-184 636.49,-164.42 629.65,-141.37 626.04,-129.14"/>
<polygon fill="midnightblue" stroke="midnightblue" points="647.42,-211.51 653.78,-219.98 654.09,-209.39 647.42,-211.51"/>
</g>
<!-- Node16&#45;&gt;Node6 -->
<g id="edge23" class="edge">
<title>Node16&#45;&gt;Node6</title>
<path fill="none" stroke="midnightblue" d="M596.34,-223.86C513.68,-216.91 369.63,-202.61 320.5,-184 249.54,-157.12 178.82,-96.77 153.9,-74.22"/>
<polygon fill="midnightblue" stroke="midnightblue" points="596.1,-227.35 606.35,-224.69 596.67,-220.37 596.1,-227.35"/>
</g>
<!-- Node17 -->
<g id="node17" class="node">
<title>Node17</title>
<g id="a_node17"><a xlink:href="../../d8/db7/a00812.html" target="_top" xlink:title=" ">
<polygon fill="none" stroke="black" points="887.5,-184 745.5,-184 745.5,-165 887.5,-165 887.5,-184"/>
<text text-anchor="middle" x="816.5" y="-172" font-family="Helvetica,sans-Serif" font-size="10.00">DataParsingFunctions.cpp</text>
</a>
</g>
</g>
<!-- Node16&#45;&gt;Node17 -->
<g id="edge16" class="edge">
<title>Node16&#45;&gt;Node17</title>
<path fill="none" stroke="midnightblue" d="M691.83,-216.8C721.69,-206.91 763.77,-192.97 790.59,-184.08"/>
<polygon fill="midnightblue" stroke="midnightblue" points="690.6,-213.52 682.21,-219.98 692.8,-220.16 690.6,-213.52"/>
</g>
<!-- Node18 -->
<g id="node18" class="node">
<title>Node18</title>
<g id="a_node18"><a xlink:href="../../d9/dd4/a00776.html" target="_top" xlink:title=" ">
<polygon fill="none" stroke="black" points="437,-184 330,-184 330,-165 437,-165 437,-184"/>
<text text-anchor="middle" x="383.5" y="-172" font-family="Helvetica,sans-Serif" font-size="10.00">EventManager.hpp</text>
</a>
</g>
</g>
<!-- Node16&#45;&gt;Node18 -->
<g id="edge18" class="edge">
<title>Node16&#45;&gt;Node18</title>
<path fill="none" stroke="midnightblue" d="M602.75,-218.07C551.57,-208.13 475.46,-193.35 427.71,-184.08"/>
<polygon fill="midnightblue" stroke="midnightblue" points="602.15,-221.51 612.64,-219.98 603.49,-214.64 602.15,-221.51"/>
</g>
<!-- Node19 -->
<g id="node19" class="node">
<title>Node19</title>
<g id="a_node19"><a xlink:href="../../d5/d72/a00803.html" target="_top" xlink:title=" ">
<polygon fill="none" stroke="black" points="1033.5,-184 905.5,-184 905.5,-165 1033.5,-165 1033.5,-184"/>
<text text-anchor="middle" x="969.5" y="-172" font-family="Helvetica,sans-Serif" font-size="10.00">FoundationEntities.cpp</text>
</a>
</g>
</g>
<!-- Node16&#45;&gt;Node19 -->
<g id="edge22" class="edge">
<title>Node16&#45;&gt;Node19</title>
<path fill="none" stroke="midnightblue" d="M716.68,-218.31C775.46,-208.36 863.89,-193.38 919.08,-184.04"/>
<polygon fill="midnightblue" stroke="midnightblue" points="716.06,-214.86 706.79,-219.98 717.23,-221.77 716.06,-214.86"/>
</g>
<!-- Node20 -->
<g id="node20" class="node">
<title>Node20</title>
<g id="a_node20"><a xlink:href="../../df/d4c/a00851.html" target="_top" xlink:title=" ">
<polygon fill="none" stroke="black" points="595.5,-184 455.5,-184 455.5,-165 595.5,-165 595.5,-184"/>
<text text-anchor="middle" x="525.5" y="-172" font-family="Helvetica,sans-Serif" font-size="10.00">GuildMemberEntities.cpp</text>
</a>
</g>
</g>
<!-- Node16&#45;&gt;Node20 -->
<g id="edge24" class="edge">
<title>Node16&#45;&gt;Node20</title>
<path fill="none" stroke="midnightblue" d="M626,-216.16C601.75,-206.35 568.43,-192.87 546.93,-184.17"/>
<polygon fill="midnightblue" stroke="midnightblue" points="624.87,-219.48 635.45,-219.98 627.5,-212.99 624.87,-219.48"/>
</g>
<!-- Node21 -->
<g id="node21" class="node">
<title>Node21</title>
<g id="a_node21"><a xlink:href="../../d5/d69/a00878.html" target="_top" xlink:title=" ">
<polygon fill="none" stroke="black" points="727,-184 652,-184 652,-165 727,-165 727,-184"/>
<text text-anchor="middle" x="689.5" y="-172" font-family="Helvetica,sans-Serif" font-size="10.00">Utilities.cpp</text>
</a>
</g>
</g>
<!-- Node16&#45;&gt;Node21 -->
<g id="edge25" class="edge">
<title>Node16&#45;&gt;Node21</title>
<path fill="none" stroke="midnightblue" d="M667.33,-211.1C672.97,-202.04 679.62,-191.37 684.15,-184.09"/>
<polygon fill="midnightblue" stroke="midnightblue" points="664.26,-209.41 661.95,-219.75 670.21,-213.11 664.26,-209.41"/>
</g>
<!-- Node18&#45;&gt;Node2 -->
<g id="edge19" class="edge">
<title>Node18&#45;&gt;Node2</title>
<path fill="none" stroke="midnightblue" d="M431.88,-162.82C476.86,-152.88 543,-138.28 584.64,-129.08"/>
<polygon fill="midnightblue" stroke="midnightblue" points="431.07,-159.41 422.06,-164.98 432.58,-166.25 431.07,-159.41"/>
</g>
<!-- Node18&#45;&gt;Node5 -->
<g id="edge20" class="edge">
<title>Node18&#45;&gt;Node5</title>
<path fill="none" stroke="midnightblue" d="M388.17,-154.8C394.07,-131.2 403.98,-91.58 408.34,-74.16"/>
<polygon fill="midnightblue" stroke="midnightblue" points="384.74,-154.11 385.71,-164.66 391.53,-155.81 384.74,-154.11"/>
</g>
<!-- Node18&#45;&gt;Node14 -->
<g id="edge21" class="edge">
<title>Node18&#45;&gt;Node14</title>
<path fill="none" stroke="midnightblue" d="M367.3,-157.3C344.1,-134.1 302.21,-92.21 284.16,-74.16"/>
<polygon fill="midnightblue" stroke="midnightblue" points="365.12,-160.07 374.66,-164.66 370.07,-155.12 365.12,-160.07"/>
</g>
<!-- Node22&#45;&gt;Node2 -->
<g id="edge28" class="edge">
<title>Node22&#45;&gt;Node2</title>
<path fill="none" stroke="midnightblue" d="M231.61,-167.6C312.17,-157.92 472.3,-138.67 560.89,-128.02"/>
<polygon fill="midnightblue" stroke="midnightblue" points="230.76,-164.17 221.25,-168.84 231.6,-171.12 230.76,-164.17"/>
</g>
<!-- Node22&#45;&gt;Node6 -->
<g id="edge29" class="edge">
<title>Node22&#45;&gt;Node6</title>
<path fill="none" stroke="midnightblue" d="M176.03,-155.12C167.74,-131.56 153.7,-91.66 147.55,-74.16"/>
<polygon fill="midnightblue" stroke="midnightblue" points="172.77,-156.39 179.39,-164.66 179.37,-154.07 172.77,-156.39"/>
</g>
<!-- Node22&#45;&gt;Node11 -->
<g id="edge30" class="edge">
<title>Node22&#45;&gt;Node11</title>
<path fill="none" stroke="midnightblue" d="M162.5,-158.5C131.93,-135.57 74.53,-92.52 50.04,-74.16"/>
<polygon fill="midnightblue" stroke="midnightblue" points="160.62,-161.46 170.72,-164.66 164.82,-155.86 160.62,-161.46"/>
</g>
</g>
</svg>
