<?xml version="1.0" encoding="UTF-8" standalone="no"?>
<!DOCTYPE svg PUBLIC "-//W3C//DTD SVG 1.1//EN"
 "http://www.w3.org/Graphics/SVG/1.1/DTD/svg11.dtd">
<!-- Generated by graphviz version 2.43.0 (0)
 -->
<!-- Title: DiscordCoreAPI::ExecuteWebHookData Pages: 1 -->
<svg width="387pt" height="124pt"
 viewBox="0.00 0.00 387.00 123.50" xmlns="http://www.w3.org/2000/svg" xmlns:xlink="http://www.w3.org/1999/xlink">
<g id="graph0" class="graph" transform="scale(1 1) rotate(0) translate(4 119.5)">
<title>DiscordCoreAPI::ExecuteWebHookData</title>
<!-- Node1 -->
<g id="node1" class="node">
<title>Node1</title>
<g id="a_node1"><a xlink:title="For executing a WebHook.">
<polygon fill="#bfbfbf" stroke="black" points="157,-67.5 0,-67.5 0,-37.5 157,-37.5 157,-67.5"/>
<text text-anchor="start" x="8" y="-55.5" font-family="Helvetica,sans-Serif" font-size="10.00">DiscordCoreAPI::ExecuteWeb</text>
<text text-anchor="middle" x="78.5" y="-44.5" font-family="Helvetica,sans-Serif" font-size="10.00">HookData</text>
</a>
</g>
</g>
<!-- Node2 -->
<g id="node2" class="node">
<title>Node2</title>
<g id="a_node2"><a xlink:href="../../dc/ddf/a03129.html" target="_top" xlink:title="For creating an ephemeral follow up Message.">
<polygon fill="none" stroke="black" points="377,-115.5 195,-115.5 195,-85.5 377,-85.5 377,-115.5"/>
<text text-anchor="start" x="203" y="-103.5" font-family="Helvetica,sans-Serif" font-size="10.00">DiscordCoreAPI::CreateEphemeral</text>
<text text-anchor="middle" x="286" y="-92.5" font-family="Helvetica,sans-Serif" font-size="10.00">FollowUpMessageData</text>
</a>
</g>
</g>
<!-- Node1&#45;&gt;Node2 -->
<g id="edge1" class="edge">
<title>Node1&#45;&gt;Node2</title>
<path fill="none" stroke="midnightblue" d="M153.88,-69.87C175.78,-74.99 199.56,-80.54 220.77,-85.5"/>
<polygon fill="midnightblue" stroke="midnightblue" points="154.49,-66.42 143.96,-67.56 152.9,-73.24 154.49,-66.42"/>
</g>
<!-- Node3 -->
<g id="node3" class="node">
<title>Node3</title>
<g id="a_node3"><a xlink:href="../../d0/d2a/a03133.html" target="_top" xlink:title="For creating a follow up Message.">
<polygon fill="none" stroke="black" points="366.5,-67.5 205.5,-67.5 205.5,-37.5 366.5,-37.5 366.5,-67.5"/>
<text text-anchor="start" x="213.5" y="-55.5" font-family="Helvetica,sans-Serif" font-size="10.00">DiscordCoreAPI::CreateFollow</text>
<text text-anchor="middle" x="286" y="-44.5" font-family="Helvetica,sans-Serif" font-size="10.00">UpMessageData</text>
</a>
</g>
</g>
<!-- Node1&#45;&gt;Node3 -->
<g id="edge2" class="edge">
<title>Node1&#45;&gt;Node3</title>
<path fill="none" stroke="midnightblue" d="M167.29,-52.5C179.98,-52.5 192.98,-52.5 205.49,-52.5"/>
<polygon fill="midnightblue" stroke="midnightblue" points="167.19,-49 157.19,-52.5 167.19,-56 167.19,-49"/>
</g>
<!-- Node4 -->
<g id="node4" class="node">
<title>Node4</title>
<g id="a_node4"><a xlink:href="../../d1/d01/a03657.html" target="_top" xlink:title="For editing a WebHook Message.">
<polygon fill="none" stroke="black" points="379,-19 193,-19 193,0 379,0 379,-19"/>
<text text-anchor="middle" x="286" y="-7" font-family="Helvetica,sans-Serif" font-size="10.00">DiscordCoreAPI::EditWebHookData</text>
</a>
</g>
</g>
<!-- Node1&#45;&gt;Node4 -->
<g id="edge3" class="edge">
<title>Node1&#45;&gt;Node4</title>
<path fill="none" stroke="midnightblue" d="M160.34,-35.36C171.32,-33.04 182.43,-30.71 193,-28.5 207.85,-25.4 224.05,-22.04 238.66,-19.03"/>
<polygon fill="midnightblue" stroke="midnightblue" points="159.39,-31.98 150.33,-37.47 160.83,-38.83 159.39,-31.98"/>
</g>
</g>
</svg>
