<?xml version="1.0" encoding="UTF-8" standalone="no"?>
<!DOCTYPE svg PUBLIC "-//W3C//DTD SVG 1.1//EN"
 "http://www.w3.org/Graphics/SVG/1.1/DTD/svg11.dtd">
<!-- Generated by graphviz version 3.0.0 (20220226.1711)
 -->
<!-- Title: GuildMemberEntities.hpp Pages: 1 -->
<svg width="1391pt" height="364pt"
 viewBox="0.00 0.00 1390.50 364.00" xmlns="http://www.w3.org/2000/svg" xmlns:xlink="http://www.w3.org/1999/xlink">
<g id="graph0" class="graph" transform="scale(1 1) rotate(0) translate(4 360)">
<title>GuildMemberEntities.hpp</title>
<!-- Node1 -->
<g id="node1" class="node">
<title>Node1</title>
<g id="a_node1"><a xlink:title=" ">
<polygon fill="#bfbfbf" stroke="black" points="608.5,-336.5 608.5,-355.5 734.5,-355.5 734.5,-336.5 608.5,-336.5"/>
<text text-anchor="middle" x="671.5" y="-343.5" font-family="Helvetica,sans-Serif" font-size="10.00">GuildMemberEntities.hpp</text>
</a>
</g>
</g>
<!-- Node2 -->
<g id="node2" class="node">
<title>Node2</title>
<g id="a_node2"><a xlink:href="../../df/d0e/a00800.html" target="_top" xlink:title=" ">
<polygon fill="none" stroke="black" points="602,-168.5 602,-187.5 733,-187.5 733,-168.5 602,-168.5"/>
<text text-anchor="middle" x="667.5" y="-175.5" font-family="Helvetica,sans-Serif" font-size="10.00">DataParsingFunctions.cpp</text>
</a>
</g>
</g>
<!-- Node1&#45;&gt;Node2 -->
<g id="edge1" class="edge">
<title>Node1&#45;&gt;Node2</title>
<path fill="none" stroke="midnightblue" d="M671.04,-325.93C670.17,-289.92 668.32,-213.23 667.71,-187.57"/>
<polygon fill="midnightblue" stroke="midnightblue" points="667.54,-326.16 671.28,-336.08 674.54,-325.99 667.54,-326.16"/>
</g>
<!-- Node3 -->
<g id="node3" class="node">
<title>Node3</title>
<g id="a_node3"><a xlink:href="../../df/dbb/a00698.html" target="_top" xlink:title=" ">
<polygon fill="none" stroke="black" points="699,-112.5 699,-131.5 812,-131.5 812,-112.5 699,-112.5"/>
<text text-anchor="middle" x="755.5" y="-119.5" font-family="Helvetica,sans-Serif" font-size="10.00">DiscordCoreClient.hpp</text>
</a>
</g>
</g>
<!-- Node1&#45;&gt;Node3 -->
<g id="edge2" class="edge">
<title>Node1&#45;&gt;Node3</title>
<path fill="none" stroke="midnightblue" d="M642.56,-332.09C582.24,-303.47 452.92,-232.13 506.5,-168 530.51,-139.26 632.99,-128.84 698.76,-125.09"/>
<polygon fill="midnightblue" stroke="midnightblue" points="641.41,-335.42 651.95,-336.47 644.37,-329.07 641.41,-335.42"/>
</g>
<!-- Node17 -->
<g id="node17" class="node">
<title>Node17</title>
<g id="a_node17"><a xlink:href="../../d1/d56/a00707.html" target="_top" xlink:title=" ">
<polygon fill="none" stroke="black" points="357,-168.5 357,-187.5 454,-187.5 454,-168.5 357,-168.5"/>
<text text-anchor="middle" x="405.5" y="-175.5" font-family="Helvetica,sans-Serif" font-size="10.00">EventManager.hpp</text>
</a>
</g>
</g>
<!-- Node1&#45;&gt;Node17 -->
<g id="edge16" class="edge">
<title>Node1&#45;&gt;Node17</title>
<path fill="none" stroke="midnightblue" d="M598.34,-343.68C556.6,-339.53 505.41,-328.32 468.5,-300 429.79,-270.3 412.59,-210.05 407.34,-187.65"/>
<polygon fill="midnightblue" stroke="midnightblue" points="598.2,-347.18 608.46,-344.57 598.81,-340.21 598.2,-347.18"/>
</g>
<!-- Node18 -->
<g id="node18" class="node">
<title>Node18</title>
<g id="a_node18"><a xlink:href="../../d8/d2d/a00815.html" target="_top" xlink:title=" ">
<polygon fill="none" stroke="black" points="906.5,-168.5 906.5,-187.5 1022.5,-187.5 1022.5,-168.5 906.5,-168.5"/>
<text text-anchor="middle" x="964.5" y="-175.5" font-family="Helvetica,sans-Serif" font-size="10.00">FoundationEntities.cpp</text>
</a>
</g>
</g>
<!-- Node1&#45;&gt;Node18 -->
<g id="edge20" class="edge">
<title>Node1&#45;&gt;Node18</title>
<path fill="none" stroke="midnightblue" d="M744.9,-341.24C812.62,-333.5 910.07,-310.61 960.5,-244 973.06,-227.41 969.63,-201.09 966.71,-187.6"/>
<polygon fill="midnightblue" stroke="midnightblue" points="744.29,-337.79 734.72,-342.32 745.03,-344.75 744.29,-337.79"/>
</g>
<!-- Node19 -->
<g id="node19" class="node">
<title>Node19</title>
<g id="a_node19"><a xlink:href="../../d6/d8b/a00821.html" target="_top" xlink:title=" ">
<polygon fill="none" stroke="black" points="1078.5,-168.5 1078.5,-187.5 1204.5,-187.5 1204.5,-168.5 1078.5,-168.5"/>
<text text-anchor="middle" x="1141.5" y="-175.5" font-family="Helvetica,sans-Serif" font-size="10.00">GuildMemberEntities.cpp</text>
</a>
</g>
</g>
<!-- Node1&#45;&gt;Node19 -->
<g id="edge21" class="edge">
<title>Node1&#45;&gt;Node19</title>
<path fill="none" stroke="midnightblue" d="M744.66,-338.7C827.37,-328.86 963.62,-304.25 1064.5,-244 1092.14,-227.5 1119.82,-201.14 1133.21,-187.62"/>
<polygon fill="midnightblue" stroke="midnightblue" points="744.13,-335.24 734.59,-339.86 744.93,-342.19 744.13,-335.24"/>
</g>
<!-- Node20 -->
<g id="node20" class="node">
<title>Node20</title>
<g id="a_node20"><a xlink:href="../../dc/dce/a00740.html" target="_top" xlink:title=" ">
<polygon fill="none" stroke="black" points="702.5,-280.5 702.5,-299.5 790.5,-299.5 790.5,-280.5 702.5,-280.5"/>
<text text-anchor="middle" x="746.5" y="-287.5" font-family="Helvetica,sans-Serif" font-size="10.00">RoleEntities.hpp</text>
</a>
</g>
</g>
<!-- Node1&#45;&gt;Node20 -->
<g id="edge22" class="edge">
<title>Node1&#45;&gt;Node20</title>
<path fill="none" stroke="midnightblue" d="M691.81,-330.38C705.36,-320.62 722.74,-308.11 734.23,-299.83"/>
<polygon fill="midnightblue" stroke="midnightblue" points="689.62,-327.64 683.55,-336.32 693.71,-333.32 689.62,-327.64"/>
</g>
<!-- Node22 -->
<g id="node22" class="node">
<title>Node22</title>
<g id="a_node22"><a xlink:href="../../d3/db2/a00869.html" target="_top" xlink:title=" ">
<polygon fill="none" stroke="black" points="515.5,-168.5 515.5,-187.5 583.5,-187.5 583.5,-168.5 515.5,-168.5"/>
<text text-anchor="middle" x="549.5" y="-175.5" font-family="Helvetica,sans-Serif" font-size="10.00">Utilities.cpp</text>
</a>
</g>
</g>
<!-- Node1&#45;&gt;Node22 -->
<g id="edge42" class="edge">
<title>Node1&#45;&gt;Node22</title>
<path fill="none" stroke="midnightblue" d="M658.83,-327.76C632.98,-292.59 574.98,-213.68 555.8,-187.57"/>
<polygon fill="midnightblue" stroke="midnightblue" points="656.2,-330.09 664.94,-336.08 661.84,-325.94 656.2,-330.09"/>
</g>
<!-- Node24 -->
<g id="node24" class="node">
<title>Node24</title>
<g id="a_node24"><a xlink:href="../../d0/d0a/a00743.html" target="_top" xlink:title=" ">
<polygon fill="none" stroke="black" points="1222.5,-168.5 1222.5,-187.5 1296.5,-187.5 1296.5,-168.5 1222.5,-168.5"/>
<text text-anchor="middle" x="1259.5" y="-175.5" font-family="Helvetica,sans-Serif" font-size="10.00">SongAPI.hpp</text>
</a>
</g>
</g>
<!-- Node1&#45;&gt;Node24 -->
<g id="edge38" class="edge">
<title>Node1&#45;&gt;Node24</title>
<path fill="none" stroke="midnightblue" d="M744.7,-339.3C806.54,-333.26 897,-321.51 973.5,-300 1080.42,-269.94 1200.46,-209.91 1243.27,-187.6"/>
<polygon fill="midnightblue" stroke="midnightblue" points="744.27,-335.83 734.65,-340.26 744.93,-342.8 744.27,-335.83"/>
</g>
<!-- Node4 -->
<g id="node4" class="node">
<title>Node4</title>
<g id="a_node4"><a xlink:href="../../da/d96/a00782.html" target="_top" xlink:title=" ">
<polygon fill="none" stroke="black" points="252,-56.5 252,-75.5 413,-75.5 413,-56.5 252,-56.5"/>
<text text-anchor="middle" x="332.5" y="-63.5" font-family="Helvetica,sans-Serif" font-size="10.00">ApplicationCommandEntities.cpp</text>
</a>
</g>
</g>
<!-- Node3&#45;&gt;Node4 -->
<g id="edge3" class="edge">
<title>Node3&#45;&gt;Node4</title>
<path fill="none" stroke="midnightblue" d="M688.55,-112.45C609.35,-102.34 478.32,-85.61 399.22,-75.52"/>
<polygon fill="midnightblue" stroke="midnightblue" points="688.53,-115.98 698.89,-113.77 689.41,-109.04 688.53,-115.98"/>
</g>
<!-- Node5 -->
<g id="node5" class="node">
<title>Node5</title>
<g id="a_node5"><a xlink:href="../../d5/d72/a00803.html" target="_top" xlink:title=" ">
<polygon fill="none" stroke="black" points="431,-56.5 431,-75.5 544,-75.5 544,-56.5 431,-56.5"/>
<text text-anchor="middle" x="487.5" y="-63.5" font-family="Helvetica,sans-Serif" font-size="10.00">DiscordCoreClient.cpp</text>
</a>
</g>
</g>
<!-- Node3&#45;&gt;Node5 -->
<g id="edge4" class="edge">
<title>Node3&#45;&gt;Node5</title>
<path fill="none" stroke="midnightblue" d="M702.94,-110.41C652.29,-100.2 576.63,-84.96 529.77,-75.52"/>
<polygon fill="midnightblue" stroke="midnightblue" points="702.54,-113.9 713.03,-112.44 703.92,-107.04 702.54,-113.9"/>
</g>
<!-- Node6 -->
<g id="node6" class="node">
<title>Node6</title>
<g id="a_node6"><a xlink:href="../../d8/db7/a00812.html" target="_top" xlink:title=" ">
<polygon fill="none" stroke="black" points="0,-56.5 0,-75.5 97,-75.5 97,-56.5 0,-56.5"/>
<text text-anchor="middle" x="48.5" y="-63.5" font-family="Helvetica,sans-Serif" font-size="10.00">EventManager.cpp</text>
</a>
</g>
</g>
<!-- Node3&#45;&gt;Node6 -->
<g id="edge5" class="edge">
<title>Node3&#45;&gt;Node6</title>
<path fill="none" stroke="midnightblue" d="M688.52,-118.3C570.45,-113.1 317.71,-100.05 105.5,-76 102.81,-75.7 100.06,-75.35 97.28,-74.99"/>
<polygon fill="midnightblue" stroke="midnightblue" points="688.69,-121.81 698.83,-118.75 689,-114.82 688.69,-121.81"/>
</g>
<!-- Node7 -->
<g id="node7" class="node">
<title>Node7</title>
<g id="a_node7"><a xlink:href="../../d3/d60/a00818.html" target="_top" xlink:title=" ">
<polygon fill="none" stroke="black" points="1199,-56.5 1199,-75.5 1290,-75.5 1290,-56.5 1199,-56.5"/>
<text text-anchor="middle" x="1244.5" y="-63.5" font-family="Helvetica,sans-Serif" font-size="10.00">GuildEntities.cpp</text>
</a>
</g>
</g>
<!-- Node3&#45;&gt;Node7 -->
<g id="edge6" class="edge">
<title>Node3&#45;&gt;Node7</title>
<path fill="none" stroke="midnightblue" d="M822.06,-112.51C823.55,-112.33 825.03,-112.17 826.5,-112 988.04,-93.78 1029.34,-97.37 1190.5,-76 1193.23,-75.64 1196.04,-75.24 1198.87,-74.82"/>
<polygon fill="midnightblue" stroke="midnightblue" points="821.58,-109.04 812.06,-113.69 822.41,-115.99 821.58,-109.04"/>
</g>
<!-- Node8 -->
<g id="node8" class="node">
<title>Node8</title>
<g id="a_node8"><a xlink:href="../../dc/d1b/a00827.html" target="_top" xlink:title=" ">
<polygon fill="none" stroke="black" points="562,-56.5 562,-75.5 621,-75.5 621,-56.5 562,-56.5"/>
<text text-anchor="middle" x="591.5" y="-63.5" font-family="Helvetica,sans-Serif" font-size="10.00">Https.cpp</text>
</a>
</g>
</g>
<!-- Node3&#45;&gt;Node8 -->
<g id="edge7" class="edge">
<title>Node3&#45;&gt;Node8</title>
<path fill="none" stroke="midnightblue" d="M719.98,-109.3C689.08,-99.13 645.03,-84.62 617.36,-75.52"/>
<polygon fill="midnightblue" stroke="midnightblue" points="718.92,-112.64 729.51,-112.44 721.11,-105.99 718.92,-112.64"/>
</g>
<!-- Node9 -->
<g id="node9" class="node">
<title>Node9</title>
<g id="a_node9"><a xlink:href="../../d8/db9/a00725.html" target="_top" xlink:title=" ">
<polygon fill="none" stroke="black" points="639,-56.5 639,-75.5 698,-75.5 698,-56.5 639,-56.5"/>
<text text-anchor="middle" x="668.5" y="-63.5" font-family="Helvetica,sans-Serif" font-size="10.00">Index.hpp</text>
</a>
</g>
</g>
<!-- Node3&#45;&gt;Node9 -->
<g id="edge8" class="edge">
<title>Node3&#45;&gt;Node9</title>
<path fill="none" stroke="midnightblue" d="M732.78,-106.9C716.83,-97 696,-84.07 682.44,-75.65"/>
<polygon fill="midnightblue" stroke="midnightblue" points="731.18,-110.02 741.52,-112.32 734.87,-104.08 731.18,-110.02"/>
</g>
<!-- Node11 -->
<g id="node11" class="node">
<title>Node11</title>
<g id="a_node11"><a xlink:href="../../d3/d13/a00836.html" target="_top" xlink:title=" ">
<polygon fill="none" stroke="black" points="716.5,-56.5 716.5,-75.5 824.5,-75.5 824.5,-56.5 716.5,-56.5"/>
<text text-anchor="middle" x="770.5" y="-63.5" font-family="Helvetica,sans-Serif" font-size="10.00">MessageEntities.cpp</text>
</a>
</g>
</g>
<!-- Node3&#45;&gt;Node11 -->
<g id="edge10" class="edge">
<title>Node3&#45;&gt;Node11</title>
<path fill="none" stroke="midnightblue" d="M760.67,-102.4C763.18,-93.36 766.07,-82.94 768.07,-75.75"/>
<polygon fill="midnightblue" stroke="midnightblue" points="757.28,-101.51 757.98,-112.08 764.03,-103.38 757.28,-101.51"/>
</g>
<!-- Node12 -->
<g id="node12" class="node">
<title>Node12</title>
<g id="a_node12"><a xlink:href="../../d7/dcf/a00845.html" target="_top" xlink:title=" ">
<polygon fill="none" stroke="black" points="1308.5,-56.5 1308.5,-75.5 1382.5,-75.5 1382.5,-56.5 1308.5,-56.5"/>
<text text-anchor="middle" x="1345.5" y="-63.5" font-family="Helvetica,sans-Serif" font-size="10.00">SongAPI.cpp</text>
</a>
</g>
</g>
<!-- Node3&#45;&gt;Node12 -->
<g id="edge11" class="edge">
<title>Node3&#45;&gt;Node12</title>
<path fill="none" stroke="midnightblue" d="M822.35,-117.86C925.24,-112.48 1128.43,-99.74 1299.5,-76 1302.4,-75.6 1305.4,-75.13 1308.4,-74.62"/>
<polygon fill="midnightblue" stroke="midnightblue" points="821.92,-114.37 812.11,-118.38 822.28,-121.37 821.92,-114.37"/>
</g>
<!-- Node13 -->
<g id="node13" class="node">
<title>Node13</title>
<g id="a_node13"><a xlink:href="../../d9/d30/a00848.html" target="_top" xlink:title=" ">
<polygon fill="none" stroke="black" points="842.5,-56.5 842.5,-75.5 946.5,-75.5 946.5,-56.5 842.5,-56.5"/>
<text text-anchor="middle" x="894.5" y="-63.5" font-family="Helvetica,sans-Serif" font-size="10.00">SoundCloudAPI.cpp</text>
</a>
</g>
</g>
<!-- Node3&#45;&gt;Node13 -->
<g id="edge12" class="edge">
<title>Node3&#45;&gt;Node13</title>
<path fill="none" stroke="midnightblue" d="M786.98,-108.77C813.09,-98.63 849.54,-84.47 872.58,-75.52"/>
<polygon fill="midnightblue" stroke="midnightblue" points="785.58,-105.56 777.52,-112.44 788.11,-112.08 785.58,-105.56"/>
</g>
<!-- Node14 -->
<g id="node14" class="node">
<title>Node14</title>
<g id="a_node14"><a xlink:href="../../dc/d17/a00872.html" target="_top" xlink:title=" ">
<polygon fill="none" stroke="black" points="965,-56.5 965,-75.5 1074,-75.5 1074,-56.5 965,-56.5"/>
<text text-anchor="middle" x="1019.5" y="-63.5" font-family="Helvetica,sans-Serif" font-size="10.00">VoiceConnection.cpp</text>
</a>
</g>
</g>
<!-- Node3&#45;&gt;Node14 -->
<g id="edge13" class="edge">
<title>Node3&#45;&gt;Node14</title>
<path fill="none" stroke="midnightblue" d="M807.28,-110.41C857.17,-100.2 931.7,-84.96 977.86,-75.52"/>
<polygon fill="midnightblue" stroke="midnightblue" points="806.43,-107.01 797.33,-112.44 807.83,-113.87 806.43,-107.01"/>
</g>
<!-- Node15 -->
<g id="node15" class="node">
<title>Node15</title>
<g id="a_node15"><a xlink:href="../../d5/d69/a00878.html" target="_top" xlink:title=" ">
<polygon fill="none" stroke="black" points="115,-56.5 115,-75.5 234,-75.5 234,-56.5 115,-56.5"/>
<text text-anchor="middle" x="174.5" y="-63.5" font-family="Helvetica,sans-Serif" font-size="10.00">WebSocketEntities.cpp</text>
</a>
</g>
</g>
<!-- Node3&#45;&gt;Node15 -->
<g id="edge14" class="edge">
<title>Node3&#45;&gt;Node15</title>
<path fill="none" stroke="midnightblue" d="M688.81,-116.09C590.85,-108.67 402.36,-93.58 242.5,-76 239.78,-75.7 237,-75.38 234.19,-75.05"/>
<polygon fill="midnightblue" stroke="midnightblue" points="688.63,-119.59 698.87,-116.85 689.16,-112.61 688.63,-119.59"/>
</g>
<!-- Node16 -->
<g id="node16" class="node">
<title>Node16</title>
<g id="a_node16"><a xlink:href="../../df/d41/a00881.html" target="_top" xlink:title=" ">
<polygon fill="none" stroke="black" points="1092,-56.5 1092,-75.5 1181,-75.5 1181,-56.5 1092,-56.5"/>
<text text-anchor="middle" x="1136.5" y="-63.5" font-family="Helvetica,sans-Serif" font-size="10.00">YouTubeAPI.cpp</text>
</a>
</g>
</g>
<!-- Node3&#45;&gt;Node16 -->
<g id="edge15" class="edge">
<title>Node3&#45;&gt;Node16</title>
<path fill="none" stroke="midnightblue" d="M822.48,-112.45C888.84,-103.82 993.31,-89.84 1083.5,-76 1086.27,-75.58 1089.11,-75.13 1091.98,-74.67"/>
<polygon fill="midnightblue" stroke="midnightblue" points="821.64,-109.03 812.17,-113.78 822.54,-115.97 821.64,-109.03"/>
</g>
<!-- Node10 -->
<g id="node10" class="node">
<title>Node10</title>
<g id="a_node10"><a xlink:href="../../d0/dad/a00806.html" target="_top" xlink:title=" ">
<polygon fill="none" stroke="black" points="634.5,-0.5 634.5,-19.5 702.5,-19.5 702.5,-0.5 634.5,-0.5"/>
<text text-anchor="middle" x="668.5" y="-7.5" font-family="Helvetica,sans-Serif" font-size="10.00">DllMain.cpp</text>
</a>
</g>
</g>
<!-- Node9&#45;&gt;Node10 -->
<g id="edge9" class="edge">
<title>Node9&#45;&gt;Node10</title>
<path fill="none" stroke="midnightblue" d="M668.5,-45.8C668.5,-36.91 668.5,-26.78 668.5,-19.75"/>
<polygon fill="midnightblue" stroke="midnightblue" points="665,-46.08 668.5,-56.08 672,-46.08 665,-46.08"/>
</g>
<!-- Node17&#45;&gt;Node3 -->
<g id="edge17" class="edge">
<title>Node17&#45;&gt;Node3</title>
<path fill="none" stroke="midnightblue" d="M464.38,-167.92C530.22,-157.76 636.04,-141.43 700.33,-131.51"/>
<polygon fill="midnightblue" stroke="midnightblue" points="463.52,-164.51 454.17,-169.49 464.58,-171.43 463.52,-164.51"/>
</g>
<!-- Node17&#45;&gt;Node6 -->
<g id="edge18" class="edge">
<title>Node17&#45;&gt;Node6</title>
<path fill="none" stroke="midnightblue" d="M368.22,-165.51C296.37,-143.38 140.19,-95.25 76.44,-75.61"/>
<polygon fill="midnightblue" stroke="midnightblue" points="367.2,-168.86 377.78,-168.46 369.26,-162.17 367.2,-168.86"/>
</g>
<!-- Node17&#45;&gt;Node15 -->
<g id="edge19" class="edge">
<title>Node17&#45;&gt;Node15</title>
<path fill="none" stroke="midnightblue" d="M378.24,-164.02C330.47,-141.27 232.86,-94.79 192.54,-75.59"/>
<polygon fill="midnightblue" stroke="midnightblue" points="376.84,-167.23 387.37,-168.37 379.85,-160.91 376.84,-167.23"/>
</g>
<!-- Node20&#45;&gt;Node2 -->
<g id="edge23" class="edge">
<title>Node20&#45;&gt;Node2</title>
<path fill="none" stroke="midnightblue" d="M724.18,-274.46C713.41,-266.53 701.02,-255.9 692.5,-244 679.69,-226.11 672.46,-200.81 669.35,-187.67"/>
<polygon fill="midnightblue" stroke="midnightblue" points="722.16,-277.32 732.35,-280.22 726.19,-271.6 722.16,-277.32"/>
</g>
<!-- Node20&#45;&gt;Node3 -->
<g id="edge24" class="edge">
<title>Node20&#45;&gt;Node3</title>
<path fill="none" stroke="midnightblue" d="M800.74,-280.98C842.22,-273.6 894.45,-261.19 907.5,-244 912.87,-236.92 911.7,-231.83 907.5,-224 880.85,-174.3 817.77,-144.88 781.81,-131.57"/>
<polygon fill="midnightblue" stroke="midnightblue" points="799.99,-277.55 790.72,-282.7 801.17,-284.45 799.99,-277.55"/>
</g>
<!-- Node20&#45;&gt;Node7 -->
<g id="edge27" class="edge">
<title>Node20&#45;&gt;Node7</title>
<path fill="none" stroke="midnightblue" d="M800.7,-283.69C845.08,-277.92 908.77,-266.36 960.5,-244 1014.71,-220.56 1019.66,-199.68 1069.5,-168 1126.64,-131.68 1197.09,-92.72 1228.3,-75.74"/>
<polygon fill="midnightblue" stroke="midnightblue" points="800.18,-280.22 790.69,-284.93 801.04,-287.17 800.18,-280.22"/>
</g>
<!-- Node20&#45;&gt;Node17 -->
<g id="edge25" class="edge">
<title>Node20&#45;&gt;Node17</title>
<path fill="none" stroke="midnightblue" d="M710.47,-277.38C641.66,-255.18 492.96,-207.21 432.19,-187.61"/>
<polygon fill="midnightblue" stroke="midnightblue" points="709.43,-280.72 720.03,-280.46 711.58,-274.06 709.43,-280.72"/>
</g>
<!-- Node20&#45;&gt;Node18 -->
<g id="edge26" class="edge">
<title>Node20&#45;&gt;Node18</title>
<path fill="none" stroke="midnightblue" d="M800.91,-282.22C850.82,-274.99 920,-262.07 940.5,-244 957.28,-229.2 962.35,-201.6 963.86,-187.6"/>
<polygon fill="midnightblue" stroke="midnightblue" points="800.31,-278.77 790.89,-283.63 801.29,-285.7 800.31,-278.77"/>
</g>
<!-- Node21 -->
<g id="node21" class="node">
<title>Node21</title>
<g id="a_node21"><a xlink:href="../../d1/d04/a00713.html" target="_top" xlink:title=" ">
<polygon fill="none" stroke="black" points="701,-224.5 701,-243.5 792,-243.5 792,-224.5 701,-224.5"/>
<text text-anchor="middle" x="746.5" y="-231.5" font-family="Helvetica,sans-Serif" font-size="10.00">GuildEntities.hpp</text>
</a>
</g>
</g>
<!-- Node20&#45;&gt;Node21 -->
<g id="edge28" class="edge">
<title>Node20&#45;&gt;Node21</title>
<path fill="none" stroke="midnightblue" d="M746.5,-269.8C746.5,-260.91 746.5,-250.78 746.5,-243.75"/>
<polygon fill="midnightblue" stroke="midnightblue" points="743,-270.08 746.5,-280.08 750,-270.08 743,-270.08"/>
</g>
<!-- Node20&#45;&gt;Node22 -->
<g id="edge37" class="edge">
<title>Node20&#45;&gt;Node22</title>
<path fill="none" stroke="midnightblue" d="M722.23,-275.45C681.13,-252.5 598.98,-206.63 564.89,-187.59"/>
<polygon fill="midnightblue" stroke="midnightblue" points="720.6,-278.55 731.04,-280.37 724.02,-272.44 720.6,-278.55"/>
</g>
<!-- Node23 -->
<g id="node23" class="node">
<title>Node23</title>
<g id="a_node23"><a xlink:href="../../d0/d11/a00842.html" target="_top" xlink:title=" ">
<polygon fill="none" stroke="black" points="810.5,-224.5 810.5,-243.5 898.5,-243.5 898.5,-224.5 810.5,-224.5"/>
<text text-anchor="middle" x="854.5" y="-231.5" font-family="Helvetica,sans-Serif" font-size="10.00">RoleEntities.cpp</text>
</a>
</g>
</g>
<!-- Node20&#45;&gt;Node23 -->
<g id="edge36" class="edge">
<title>Node20&#45;&gt;Node23</title>
<path fill="none" stroke="midnightblue" d="M773.05,-275.73C793.05,-265.73 819.89,-252.31 837.19,-243.65"/>
<polygon fill="midnightblue" stroke="midnightblue" points="771.23,-272.72 763.85,-280.32 774.36,-278.98 771.23,-272.72"/>
</g>
<!-- Node21&#45;&gt;Node2 -->
<g id="edge29" class="edge">
<title>Node21&#45;&gt;Node2</title>
<path fill="none" stroke="midnightblue" d="M725.47,-218.62C711.03,-208.76 692.36,-195.99 680.16,-187.65"/>
<polygon fill="midnightblue" stroke="midnightblue" points="723.58,-221.57 733.81,-224.32 727.53,-215.79 723.58,-221.57"/>
</g>
<!-- Node21&#45;&gt;Node3 -->
<g id="edge30" class="edge">
<title>Node21&#45;&gt;Node3</title>
<path fill="none" stroke="midnightblue" d="M748.03,-214.35C750,-190.25 753.35,-149.31 754.8,-131.59"/>
<polygon fill="midnightblue" stroke="midnightblue" points="744.53,-214.12 747.21,-224.37 751.51,-214.69 744.53,-214.12"/>
</g>
<!-- Node21&#45;&gt;Node7 -->
<g id="edge33" class="edge">
<title>Node21&#45;&gt;Node7</title>
<path fill="none" stroke="midnightblue" d="M775.52,-220.27C805.86,-207.01 854.89,-185.75 897.5,-168 958.98,-142.39 972.83,-131.56 1036.5,-112 1091.42,-95.13 1156.36,-82.15 1198.89,-74.56"/>
<polygon fill="midnightblue" stroke="midnightblue" points="773.74,-217.22 765.98,-224.44 776.55,-223.64 773.74,-217.22"/>
</g>
<!-- Node21&#45;&gt;Node17 -->
<g id="edge31" class="edge">
<title>Node21&#45;&gt;Node17</title>
<path fill="none" stroke="midnightblue" d="M690.69,-224.16C624.91,-213.75 516.67,-196.61 454.17,-186.71"/>
<polygon fill="midnightblue" stroke="midnightblue" points="690.44,-227.67 700.87,-225.77 691.54,-220.75 690.44,-227.67"/>
</g>
<!-- Node21&#45;&gt;Node18 -->
<g id="edge32" class="edge">
<title>Node21&#45;&gt;Node18</title>
<path fill="none" stroke="midnightblue" d="M790.81,-222.02C831.99,-211.82 892.47,-196.84 930.12,-187.52"/>
<polygon fill="midnightblue" stroke="midnightblue" points="789.91,-218.64 781.04,-224.44 791.59,-225.44 789.91,-218.64"/>
</g>
<!-- Node21&#45;&gt;Node19 -->
<g id="edge34" class="edge">
<title>Node21&#45;&gt;Node19</title>
<path fill="none" stroke="midnightblue" d="M802.04,-223.96C904.92,-208.83 1012.26,-195.04 1078.44,-186.76"/>
<polygon fill="midnightblue" stroke="midnightblue" points="801.48,-220.5 792.1,-225.43 802.51,-227.43 801.48,-220.5"/>
</g>
<!-- Node21&#45;&gt;Node22 -->
<g id="edge35" class="edge">
<title>Node21&#45;&gt;Node22</title>
<path fill="none" stroke="midnightblue" d="M705.27,-221.7C668.09,-211.51 614.23,-196.74 580.57,-187.52"/>
<polygon fill="midnightblue" stroke="midnightblue" points="704.72,-225.18 715.28,-224.44 706.57,-218.42 704.72,-225.18"/>
</g>
<!-- Node24&#45;&gt;Node3 -->
<g id="edge39" class="edge">
<title>Node24&#45;&gt;Node3</title>
<path fill="none" stroke="midnightblue" d="M1212.07,-167.92C1062,-146.29 896.89,-132.92 812.12,-126.82"/>
<polygon fill="midnightblue" stroke="midnightblue" points="1211.99,-171.45 1222.4,-169.43 1213,-164.52 1211.99,-171.45"/>
</g>
<!-- Node24&#45;&gt;Node7 -->
<g id="edge40" class="edge">
<title>Node24&#45;&gt;Node7</title>
<path fill="none" stroke="midnightblue" d="M1256.96,-158.35C1253.67,-134.25 1248.09,-93.31 1245.67,-75.59"/>
<polygon fill="midnightblue" stroke="midnightblue" points="1253.5,-158.93 1258.32,-168.37 1260.44,-157.99 1253.5,-158.93"/>
</g>
<!-- Node24&#45;&gt;Node12 -->
<g id="edge41" class="edge">
<title>Node24&#45;&gt;Node12</title>
<path fill="none" stroke="midnightblue" d="M1272.58,-160.27C1291.17,-136.49 1324.56,-93.79 1338.78,-75.59"/>
<polygon fill="midnightblue" stroke="midnightblue" points="1269.65,-158.33 1266.25,-168.37 1275.16,-162.65 1269.65,-158.33"/>
</g>
</g>
</svg>
