<?xml version="1.0" encoding="UTF-8" standalone="no"?>
<!DOCTYPE svg PUBLIC "-//W3C//DTD SVG 1.1//EN"
 "http://www.w3.org/Graphics/SVG/1.1/DTD/svg11.dtd">
<!-- Generated by graphviz version 2.43.0 (0)
 -->
<!-- Title: DiscordCoreAPI::InputEventData::getChannelId Pages: 1 -->
<svg width="367pt" height="134pt"
 viewBox="0.00 0.00 367.00 134.00" xmlns="http://www.w3.org/2000/svg" xmlns:xlink="http://www.w3.org/1999/xlink">
<g id="graph0" class="graph" transform="scale(1 1) rotate(0) translate(4 130)">
<title>DiscordCoreAPI::InputEventData::getChannelId</title>
<!-- Node1 -->
<g id="node1" class="node">
<title>Node1</title>
<g id="a_node1"><a xlink:title="Returns the Channel id of this input&#45;event.">
<polygon fill="#bfbfbf" stroke="black" points="359,-78 209,-78 209,-48 359,-48 359,-78"/>
<text text-anchor="start" x="217" y="-66" font-family="Helvetica,sans-Serif" font-size="10.00">DiscordCoreAPI::InputEvent</text>
<text text-anchor="middle" x="284" y="-55" font-family="Helvetica,sans-Serif" font-size="10.00">Data::getChannelId</text>
</a>
</g>
</g>
<!-- Node2 -->
<g id="node2" class="node">
<title>Node2</title>
<g id="a_node2"><a xlink:href="../../db/dc1/a03172.html#ac243db78f0fe0ce88c8c428110d77c37" target="_top" xlink:title="Constructor.">
<polygon fill="none" stroke="black" points="173,-126 0,-126 0,-96 173,-96 173,-126"/>
<text text-anchor="start" x="8" y="-114" font-family="Helvetica,sans-Serif" font-size="10.00">DiscordCoreAPI::ButtonCollector</text>
<text text-anchor="middle" x="86.5" y="-103" font-family="Helvetica,sans-Serif" font-size="10.00">::ButtonCollector</text>
</a>
</g>
</g>
<!-- Node1&#45;&gt;Node2 -->
<g id="edge1" class="edge">
<title>Node1&#45;&gt;Node2</title>
<path fill="none" stroke="midnightblue" d="M211.96,-80.44C191.2,-85.54 168.69,-91.07 148.6,-96"/>
<polygon fill="midnightblue" stroke="midnightblue" points="212.8,-83.84 221.68,-78.06 211.13,-77.04 212.8,-83.84"/>
</g>
<!-- Node3 -->
<g id="node3" class="node">
<title>Node3</title>
<g id="a_node3"><a xlink:href="../../d6/da1/a03180.html#a7eeb5804fc42207c363474e79cbd7fa4" target="_top" xlink:title="Constructor.">
<polygon fill="none" stroke="black" points="172,-78 1,-78 1,-48 172,-48 172,-78"/>
<text text-anchor="start" x="9" y="-66" font-family="Helvetica,sans-Serif" font-size="10.00">DiscordCoreAPI::ModalCollector</text>
<text text-anchor="middle" x="86.5" y="-55" font-family="Helvetica,sans-Serif" font-size="10.00">::ModalCollector</text>
</a>
</g>
</g>
<!-- Node1&#45;&gt;Node3 -->
<g id="edge2" class="edge">
<title>Node1&#45;&gt;Node3</title>
<path fill="none" stroke="midnightblue" d="M198.59,-63C189.82,-63 180.89,-63 172.11,-63"/>
<polygon fill="midnightblue" stroke="midnightblue" points="198.81,-66.5 208.81,-63 198.81,-59.5 198.81,-66.5"/>
</g>
<!-- Node4 -->
<g id="node4" class="node">
<title>Node4</title>
<g id="a_node4"><a xlink:href="../../d8/dec/a03164.html#a6e996a3f44583a72b1a01a784aa6021c" target="_top" xlink:title="Constructor.">
<polygon fill="none" stroke="black" points="170,-30 3,-30 3,0 170,0 170,-30"/>
<text text-anchor="start" x="11" y="-18" font-family="Helvetica,sans-Serif" font-size="10.00">DiscordCoreAPI::SelectMenu</text>
<text text-anchor="middle" x="86.5" y="-7" font-family="Helvetica,sans-Serif" font-size="10.00">Collector::SelectMenuCollector</text>
</a>
</g>
</g>
<!-- Node1&#45;&gt;Node4 -->
<g id="edge3" class="edge">
<title>Node1&#45;&gt;Node4</title>
<path fill="none" stroke="midnightblue" d="M211.96,-45.56C191.2,-40.46 168.69,-34.93 148.6,-30"/>
<polygon fill="midnightblue" stroke="midnightblue" points="211.13,-48.96 221.68,-47.94 212.8,-42.16 211.13,-48.96"/>
</g>
</g>
</svg>
