<?xml version="1.0" encoding="UTF-8" standalone="no"?>
<!DOCTYPE svg PUBLIC "-//W3C//DTD SVG 1.1//EN"
 "http://www.w3.org/Graphics/SVG/1.1/DTD/svg11.dtd">
<!-- Generated by graphviz version 3.0.0 (20220226.1711)
 -->
<!-- Title: DiscordCoreAPI::DiscordEntity Pages: 1 -->
<svg width="773pt" height="1409pt"
 viewBox="0.00 0.00 773.00 1409.00" xmlns="http://www.w3.org/2000/svg" xmlns:xlink="http://www.w3.org/1999/xlink">
<g id="graph0" class="graph" transform="scale(1 1) rotate(0) translate(4 1405)">
<title>DiscordCoreAPI::DiscordEntity</title>
<!-- Node1 -->
<g id="node1" class="node">
<title>Node1</title>
<g id="a_node1"><a xlink:title="Base class for all Discord entities.">
<polygon fill="#bfbfbf" stroke="black" points="0,-654.5 0,-673.5 150,-673.5 150,-654.5 0,-654.5"/>
<text text-anchor="middle" x="75" y="-661.5" font-family="Helvetica,sans-Serif" font-size="10.00">DiscordCoreAPI::DiscordEntity</text>
</a>
</g>
</g>
<!-- Node2 -->
<g id="node2" class="node">
<title>Node2</title>
<g id="a_node2"><a xlink:href="../../d9/dc1/a02473.html" target="_top" xlink:title="Account data.">
<polygon fill="none" stroke="black" points="210.5,-1381.5 210.5,-1400.5 358.5,-1400.5 358.5,-1381.5 210.5,-1381.5"/>
<text text-anchor="middle" x="284.5" y="-1388.5" font-family="Helvetica,sans-Serif" font-size="10.00">DiscordCoreAPI::AccountData</text>
</a>
</g>
</g>
<!-- Node1&#45;&gt;Node2 -->
<g id="edge1" class="edge">
<title>Node1&#45;&gt;Node2</title>
<path fill="none" stroke="midnightblue" d="M76.13,-683.95C77.24,-788.25 87.69,-1269.85 186,-1372 192.7,-1378.96 201.13,-1383.78 210.22,-1387.07"/>
<polygon fill="midnightblue" stroke="midnightblue" points="79.63,-683.82 76.04,-673.85 72.63,-683.88 79.63,-683.82"/>
</g>
<!-- Node3 -->
<g id="node3" class="node">
<title>Node3</title>
<g id="a_node3"><a xlink:href="../../d8/dd8/a02685.html" target="_top" xlink:title="Data structure representing an ApplicationCommand.">
<polygon fill="none" stroke="black" points="214.5,-1332 214.5,-1362 354.5,-1362 354.5,-1332 214.5,-1332"/>
<text text-anchor="start" x="222.5" y="-1350" font-family="Helvetica,sans-Serif" font-size="10.00">DiscordCoreAPI::Application</text>
<text text-anchor="middle" x="284.5" y="-1339" font-family="Helvetica,sans-Serif" font-size="10.00">CommandData</text>
</a>
</g>
</g>
<!-- Node1&#45;&gt;Node3 -->
<g id="edge2" class="edge">
<title>Node1&#45;&gt;Node3</title>
<path fill="none" stroke="midnightblue" d="M76.47,-683.72C79.23,-782.93 96.51,-1226.44 186,-1323 193.58,-1331.18 203.47,-1336.77 214.03,-1340.56"/>
<polygon fill="midnightblue" stroke="midnightblue" points="79.97,-683.51 76.21,-673.6 72.97,-683.69 79.97,-683.51"/>
</g>
<!-- Node5 -->
<g id="node5" class="node">
<title>Node5</title>
<g id="a_node5"><a xlink:href="../../df/d40/a02749.html" target="_top" xlink:title="ApplicationCommand Interaction data.">
<polygon fill="none" stroke="black" points="214.5,-1283 214.5,-1313 354.5,-1313 354.5,-1283 214.5,-1283"/>
<text text-anchor="start" x="222.5" y="-1301" font-family="Helvetica,sans-Serif" font-size="10.00">DiscordCoreAPI::Application</text>
<text text-anchor="middle" x="284.5" y="-1290" font-family="Helvetica,sans-Serif" font-size="10.00">CommandInteractionData</text>
</a>
</g>
</g>
<!-- Node1&#45;&gt;Node5 -->
<g id="edge4" class="edge">
<title>Node1&#45;&gt;Node5</title>
<path fill="none" stroke="midnightblue" d="M76.77,-684.03C80.84,-779.29 102.91,-1185.51 186,-1274 193.64,-1282.13 203.55,-1287.7 214.12,-1291.47"/>
<polygon fill="midnightblue" stroke="midnightblue" points="80.26,-683.63 76.35,-673.78 73.26,-683.91 80.26,-683.63"/>
</g>
<!-- Node6 -->
<g id="node6" class="node">
<title>Node6</title>
<g id="a_node6"><a xlink:href="../../d2/d62/a02401.html" target="_top" xlink:title="Permissions data for an ApplicationCommand.">
<polygon fill="none" stroke="black" points="214.5,-1234 214.5,-1264 354.5,-1264 354.5,-1234 214.5,-1234"/>
<text text-anchor="start" x="222.5" y="-1252" font-family="Helvetica,sans-Serif" font-size="10.00">DiscordCoreAPI::Application</text>
<text text-anchor="middle" x="284.5" y="-1241" font-family="Helvetica,sans-Serif" font-size="10.00">CommandPermissionData</text>
</a>
</g>
</g>
<!-- Node1&#45;&gt;Node6 -->
<g id="edge5" class="edge">
<title>Node1&#45;&gt;Node6</title>
<path fill="none" stroke="midnightblue" d="M77.14,-684.07C82.69,-774.51 109.74,-1143.26 186,-1224 193.68,-1232.13 203.61,-1237.76 214.19,-1241.63"/>
<polygon fill="midnightblue" stroke="midnightblue" points="80.62,-683.6 76.53,-673.83 73.63,-684.02 80.62,-683.6"/>
</g>
<!-- Node7 -->
<g id="node7" class="node">
<title>Node7</title>
<g id="a_node7"><a xlink:href="../../d4/d73/a02465.html" target="_top" xlink:title="Application data.">
<polygon fill="none" stroke="black" points="204.5,-1195.5 204.5,-1214.5 364.5,-1214.5 364.5,-1195.5 204.5,-1195.5"/>
<text text-anchor="middle" x="284.5" y="-1202.5" font-family="Helvetica,sans-Serif" font-size="10.00">DiscordCoreAPI::ApplicationData</text>
</a>
</g>
</g>
<!-- Node1&#45;&gt;Node7 -->
<g id="edge6" class="edge">
<title>Node1&#45;&gt;Node7</title>
<path fill="none" stroke="midnightblue" d="M77.31,-683.63C83.44,-769.79 112.27,-1113.39 186,-1186 191.28,-1191.2 197.54,-1195.2 204.3,-1198.23"/>
<polygon fill="midnightblue" stroke="midnightblue" points="80.8,-683.36 76.61,-673.63 73.81,-683.85 80.8,-683.36"/>
</g>
<!-- Node8 -->
<g id="node8" class="node">
<title>Node8</title>
<g id="a_node8"><a xlink:href="../../d1/db8/a02297.html" target="_top" xlink:title="Attachment data.">
<polygon fill="none" stroke="black" points="203.5,-1157.5 203.5,-1176.5 365.5,-1176.5 365.5,-1157.5 203.5,-1157.5"/>
<text text-anchor="middle" x="284.5" y="-1164.5" font-family="Helvetica,sans-Serif" font-size="10.00">DiscordCoreAPI::AttachmentData</text>
</a>
</g>
</g>
<!-- Node1&#45;&gt;Node8 -->
<g id="edge7" class="edge">
<title>Node1&#45;&gt;Node8</title>
<path fill="none" stroke="midnightblue" d="M77.67,-683.76C85.02,-766.18 117.31,-1081.41 186,-1148 191.08,-1152.92 197.03,-1156.75 203.44,-1159.72"/>
<polygon fill="midnightblue" stroke="midnightblue" points="81.15,-683.38 76.79,-673.72 74.17,-683.99 81.15,-683.38"/>
</g>
<!-- Node9 -->
<g id="node9" class="node">
<title>Node9</title>
<g id="a_node9"><a xlink:href="../../d6/d28/a02509.html" target="_top" xlink:title="Audit log entry data.">
<polygon fill="none" stroke="black" points="219.5,-1108 219.5,-1138 349.5,-1138 349.5,-1108 219.5,-1108"/>
<text text-anchor="start" x="227.5" y="-1126" font-family="Helvetica,sans-Serif" font-size="10.00">DiscordCoreAPI::AuditLog</text>
<text text-anchor="middle" x="284.5" y="-1115" font-family="Helvetica,sans-Serif" font-size="10.00">EntryData</text>
</a>
</g>
</g>
<!-- Node1&#45;&gt;Node9 -->
<g id="edge8" class="edge">
<title>Node1&#45;&gt;Node9</title>
<path fill="none" stroke="midnightblue" d="M78.34,-684.1C87.76,-761.46 125.3,-1038.68 186,-1099 195.09,-1108.03 207,-1113.86 219.35,-1117.57"/>
<polygon fill="midnightblue" stroke="midnightblue" points="81.78,-683.34 77.12,-673.82 74.83,-684.17 81.78,-683.34"/>
</g>
<!-- Node10 -->
<g id="node10" class="node">
<title>Node10</title>
<g id="a_node10"><a xlink:href="../../dd/d6b/a02397.html" target="_top" xlink:title="Represents an auto&#45;moderation&#45;rule.">
<polygon fill="none" stroke="black" points="204.5,-1059 204.5,-1089 364.5,-1089 364.5,-1059 204.5,-1059"/>
<text text-anchor="start" x="212.5" y="-1077" font-family="Helvetica,sans-Serif" font-size="10.00">DiscordCoreAPI::AutoModeration</text>
<text text-anchor="middle" x="284.5" y="-1066" font-family="Helvetica,sans-Serif" font-size="10.00">RuleData</text>
</a>
</g>
</g>
<!-- Node1&#45;&gt;Node10 -->
<g id="edge9" class="edge">
<title>Node1&#45;&gt;Node10</title>
<path fill="none" stroke="midnightblue" d="M75.29,-683.99C74.19,-747.36 79.77,-945.63 186,-1049 191.26,-1054.12 197.42,-1058.23 204.04,-1061.53"/>
<polygon fill="midnightblue" stroke="midnightblue" points="78.79,-683.87 75.55,-673.78 71.8,-683.69 78.79,-683.87"/>
</g>
<!-- Node12 -->
<g id="node12" class="node">
<title>Node12</title>
<g id="a_node12"><a xlink:href="../../df/def/a02369.html" target="_top" xlink:title="Data structure representing a single Channel.">
<polygon fill="none" stroke="black" points="211,-1020.5 211,-1039.5 358,-1039.5 358,-1020.5 211,-1020.5"/>
<text text-anchor="middle" x="284.5" y="-1027.5" font-family="Helvetica,sans-Serif" font-size="10.00">DiscordCoreAPI::ChannelData</text>
</a>
</g>
</g>
<!-- Node1&#45;&gt;Node12 -->
<g id="edge11" class="edge">
<title>Node1&#45;&gt;Node12</title>
<path fill="none" stroke="midnightblue" d="M75.77,-683.83C76.24,-743.39 86.28,-922.09 186,-1011 193.08,-1017.31 201.62,-1021.79 210.66,-1024.93"/>
<polygon fill="midnightblue" stroke="midnightblue" points="79.27,-683.57 75.78,-673.56 72.27,-683.56 79.27,-683.57"/>
</g>
<!-- Node15 -->
<g id="node15" class="node">
<title>Node15</title>
<g id="a_node15"><a xlink:href="../../df/dff/a02689.html" target="_top" xlink:title="Channel mention data.">
<polygon fill="none" stroke="black" points="193.5,-982.5 193.5,-1001.5 375.5,-1001.5 375.5,-982.5 193.5,-982.5"/>
<text text-anchor="middle" x="284.5" y="-989.5" font-family="Helvetica,sans-Serif" font-size="10.00">DiscordCoreAPI::ChannelMentionData</text>
</a>
</g>
</g>
<!-- Node1&#45;&gt;Node15 -->
<g id="edge14" class="edge">
<title>Node1&#45;&gt;Node15</title>
<path fill="none" stroke="midnightblue" d="M76.65,-683.84C79.61,-739.05 95.94,-895.49 186,-973 190.31,-976.71 195.14,-979.78 200.26,-982.32"/>
<polygon fill="midnightblue" stroke="midnightblue" points="80.14,-683.5 76.2,-673.66 73.15,-683.81 80.14,-683.5"/>
</g>
<!-- Node16 -->
<g id="node16" class="node">
<title>Node16</title>
<g id="a_node16"><a xlink:href="../../d5/da5/a02413.html" target="_top" xlink:title="Data structure representing a single emoji.">
<polygon fill="none" stroke="black" points="216,-944.5 216,-963.5 353,-963.5 353,-944.5 216,-944.5"/>
<text text-anchor="middle" x="284.5" y="-951.5" font-family="Helvetica,sans-Serif" font-size="10.00">DiscordCoreAPI::EmojiData</text>
</a>
</g>
</g>
<!-- Node1&#45;&gt;Node16 -->
<g id="edge15" class="edge">
<title>Node1&#45;&gt;Node16</title>
<path fill="none" stroke="midnightblue" d="M77.75,-683.74C83.34,-734.21 105.45,-868.68 186,-935 194.59,-942.07 205.04,-946.78 215.86,-949.88"/>
<polygon fill="midnightblue" stroke="midnightblue" points="81.21,-683.14 76.72,-673.54 74.24,-683.84 81.21,-683.14"/>
</g>
<!-- Node17 -->
<g id="node17" class="node">
<title>Node17</title>
<g id="a_node17"><a xlink:href="../../d9/dd8/a02481.html" target="_top" xlink:title="Get Guild Widget Data.">
<polygon fill="none" stroke="black" points="219.5,-895 219.5,-925 349.5,-925 349.5,-895 219.5,-895"/>
<text text-anchor="start" x="227.5" y="-913" font-family="Helvetica,sans-Serif" font-size="10.00">DiscordCoreAPI::GetGuild</text>
<text text-anchor="middle" x="284.5" y="-902" font-family="Helvetica,sans-Serif" font-size="10.00">WidgetObjectData</text>
</a>
</g>
</g>
<!-- Node1&#45;&gt;Node17 -->
<g id="edge16" class="edge">
<title>Node1&#45;&gt;Node17</title>
<path fill="none" stroke="midnightblue" d="M79.91,-683.74C89.61,-727.35 119.02,-832.27 186,-886 195.65,-893.74 207.45,-899.04 219.46,-902.65"/>
<polygon fill="midnightblue" stroke="midnightblue" points="83.31,-682.88 77.81,-673.82 76.46,-684.33 83.31,-682.88"/>
</g>
<!-- Node18 -->
<g id="node18" class="node">
<title>Node18</title>
<g id="a_node18"><a xlink:href="../../d0/d51/a02797.html" target="_top" xlink:title="Guild application command permissions data.">
<polygon fill="none" stroke="black" points="203.5,-846 203.5,-876 365.5,-876 365.5,-846 203.5,-846"/>
<text text-anchor="start" x="211.5" y="-864" font-family="Helvetica,sans-Serif" font-size="10.00">DiscordCoreAPI::GuildApplication</text>
<text text-anchor="middle" x="284.5" y="-853" font-family="Helvetica,sans-Serif" font-size="10.00">CommandPermissionData</text>
</a>
</g>
</g>
<!-- Node1&#45;&gt;Node18 -->
<g id="edge17" class="edge">
<title>Node1&#45;&gt;Node18</title>
<path fill="none" stroke="midnightblue" d="M82.75,-683.49C96.33,-719.65 130.46,-797.11 186,-837 191.24,-840.76 197,-843.94 203.02,-846.62"/>
<polygon fill="midnightblue" stroke="midnightblue" points="85.9,-681.88 79.2,-673.67 79.32,-684.27 85.9,-681.88"/>
</g>
<!-- Node19 -->
<g id="node19" class="node">
<title>Node19</title>
<g id="a_node19"><a xlink:href="../../dd/d31/a02405.html" target="_top" xlink:title="Represents the Permissions for accessing an ApplicationCommand from within a Guild.">
<polygon fill="none" stroke="black" points="203.5,-797 203.5,-827 365.5,-827 365.5,-797 203.5,-797"/>
<text text-anchor="start" x="211.5" y="-815" font-family="Helvetica,sans-Serif" font-size="10.00">DiscordCoreAPI::GuildApplication</text>
<text text-anchor="middle" x="284.5" y="-804" font-family="Helvetica,sans-Serif" font-size="10.00">CommandPermissionsData</text>
</a>
</g>
</g>
<!-- Node1&#45;&gt;Node19 -->
<g id="edge18" class="edge">
<title>Node1&#45;&gt;Node19</title>
<path fill="none" stroke="midnightblue" d="M87.21,-682.29C104.81,-709.41 141.54,-759.98 186,-787 192.42,-790.9 199.44,-794.2 206.66,-796.98"/>
<polygon fill="midnightblue" stroke="midnightblue" points="90.11,-680.32 81.8,-673.75 84.2,-684.07 90.11,-680.32"/>
</g>
<!-- Node20 -->
<g id="node20" class="node">
<title>Node20</title>
<g id="a_node20"><a xlink:href="../../d3/dff/a02565.html" target="_top" xlink:title="Data structure representing a single Guild.">
<polygon fill="none" stroke="black" points="217.5,-758.5 217.5,-777.5 351.5,-777.5 351.5,-758.5 217.5,-758.5"/>
<text text-anchor="middle" x="284.5" y="-765.5" font-family="Helvetica,sans-Serif" font-size="10.00">DiscordCoreAPI::GuildData</text>
</a>
</g>
</g>
<!-- Node1&#45;&gt;Node20 -->
<g id="edge19" class="edge">
<title>Node1&#45;&gt;Node20</title>
<path fill="none" stroke="midnightblue" d="M92.43,-680.78C112.59,-700.33 148.73,-732.13 186,-749 195.82,-753.45 206.65,-756.85 217.43,-759.46"/>
<polygon fill="midnightblue" stroke="midnightblue" points="94.84,-678.24 85.27,-673.7 89.92,-683.22 94.84,-678.24"/>
</g>
<!-- Node22 -->
<g id="node22" class="node">
<title>Node22</title>
<g id="a_node22"><a xlink:href="../../d8/d26/a02357.html" target="_top" xlink:title="Data structure representing a single GuildMember. Data structure representing a single Guild.">
<polygon fill="none" stroke="black" points="199.5,-720.5 199.5,-739.5 369.5,-739.5 369.5,-720.5 199.5,-720.5"/>
<text text-anchor="middle" x="284.5" y="-727.5" font-family="Helvetica,sans-Serif" font-size="10.00">DiscordCoreAPI::GuildMemberData</text>
</a>
</g>
</g>
<!-- Node1&#45;&gt;Node22 -->
<g id="edge21" class="edge">
<title>Node1&#45;&gt;Node22</title>
<path fill="none" stroke="midnightblue" d="M104.05,-677.94C125.92,-688.33 157.29,-702.18 186,-711 198.12,-714.72 211.31,-717.87 223.97,-720.48"/>
<polygon fill="midnightblue" stroke="midnightblue" points="105.54,-674.77 95.01,-673.59 102.5,-681.08 105.54,-674.77"/>
</g>
<!-- Node24 -->
<g id="node24" class="node">
<title>Node24</title>
<g id="a_node24"><a xlink:href="../../da/d03/a02577.html" target="_top" xlink:title="Data representing a Guild Scheduled Event.">
<polygon fill="none" stroke="black" points="204.5,-671 204.5,-701 364.5,-701 364.5,-671 204.5,-671"/>
<text text-anchor="start" x="212.5" y="-689" font-family="Helvetica,sans-Serif" font-size="10.00">DiscordCoreAPI::GuildScheduled</text>
<text text-anchor="middle" x="284.5" y="-678" font-family="Helvetica,sans-Serif" font-size="10.00">EventData</text>
</a>
</g>
</g>
<!-- Node1&#45;&gt;Node24 -->
<g id="edge23" class="edge">
<title>Node1&#45;&gt;Node24</title>
<path fill="none" stroke="midnightblue" d="M160.04,-672.91C174.63,-674.46 189.76,-676.06 204.22,-677.59"/>
<polygon fill="midnightblue" stroke="midnightblue" points="160.35,-669.42 150.03,-671.85 159.61,-676.38 160.35,-669.42"/>
</g>
<!-- Node26 -->
<g id="node26" class="node">
<title>Node26</title>
<g id="a_node26"><a xlink:href="../../da/dbe/a02489.html" target="_top" xlink:title="Integration data.">
<polygon fill="none" stroke="black" points="206,-632.5 206,-651.5 363,-651.5 363,-632.5 206,-632.5"/>
<text text-anchor="middle" x="284.5" y="-639.5" font-family="Helvetica,sans-Serif" font-size="10.00">DiscordCoreAPI::IntegrationData</text>
</a>
</g>
</g>
<!-- Node1&#45;&gt;Node26 -->
<g id="edge25" class="edge">
<title>Node1&#45;&gt;Node26</title>
<path fill="none" stroke="midnightblue" d="M160.37,-655.05C175.46,-653.46 191.11,-651.8 205.99,-650.22"/>
<polygon fill="midnightblue" stroke="midnightblue" points="159.61,-651.62 150.03,-656.15 160.35,-658.58 159.61,-651.62"/>
</g>
<!-- Node27 -->
<g id="node27" class="node">
<title>Node27</title>
<g id="a_node27"><a xlink:href="../../d9/da5/a02757.html" target="_top" xlink:title="Interaction data.">
<polygon fill="none" stroke="black" points="206,-594.5 206,-613.5 363,-613.5 363,-594.5 206,-594.5"/>
<text text-anchor="middle" x="284.5" y="-601.5" font-family="Helvetica,sans-Serif" font-size="10.00">DiscordCoreAPI::InteractionData</text>
</a>
</g>
</g>
<!-- Node1&#45;&gt;Node27 -->
<g id="edge26" class="edge">
<title>Node1&#45;&gt;Node27</title>
<path fill="none" stroke="midnightblue" d="M107.78,-650.57C129.5,-641.78 159.12,-630.57 186,-623 198.86,-619.38 212.88,-616.2 226.16,-613.54"/>
<polygon fill="midnightblue" stroke="midnightblue" points="106.32,-647.39 98.39,-654.41 108.97,-653.86 106.32,-647.39"/>
</g>
<!-- Node29 -->
<g id="node29" class="node">
<title>Node29</title>
<g id="a_node29"><a xlink:href="../../d0/df8/a02717.html" target="_top" xlink:title="The core of a Message&#39;s data structure.">
<polygon fill="none" stroke="black" points="201,-556.5 201,-575.5 368,-575.5 368,-556.5 201,-556.5"/>
<text text-anchor="middle" x="284.5" y="-563.5" font-family="Helvetica,sans-Serif" font-size="10.00">DiscordCoreAPI::MessageDataOld</text>
</a>
</g>
</g>
<!-- Node1&#45;&gt;Node29 -->
<g id="edge28" class="edge">
<title>Node1&#45;&gt;Node29</title>
<path fill="none" stroke="midnightblue" d="M93.57,-647.64C114.13,-629.44 149.95,-600.57 186,-585 195.02,-581.1 204.86,-578 214.71,-575.53"/>
<polygon fill="midnightblue" stroke="midnightblue" points="91.06,-645.19 85.99,-654.49 95.75,-650.38 91.06,-645.19"/>
</g>
<!-- Node32 -->
<g id="node32" class="node">
<title>Node32</title>
<g id="a_node32"><a xlink:href="../../da/d28/a02705.html" target="_top" xlink:title="Message Interaction data.">
<polygon fill="none" stroke="black" points="186,-518.5 186,-537.5 383,-537.5 383,-518.5 186,-518.5"/>
<text text-anchor="middle" x="284.5" y="-525.5" font-family="Helvetica,sans-Serif" font-size="10.00">DiscordCoreAPI::MessageInteractionData</text>
</a>
</g>
</g>
<!-- Node1&#45;&gt;Node32 -->
<g id="edge31" class="edge">
<title>Node1&#45;&gt;Node32</title>
<path fill="none" stroke="midnightblue" d="M87.74,-645.56C105.57,-619.19 142.09,-571.24 186,-547 193.02,-543.12 200.71,-540.03 208.59,-537.56"/>
<polygon fill="midnightblue" stroke="midnightblue" points="84.62,-643.94 82.04,-654.21 90.46,-647.79 84.62,-643.94"/>
</g>
<!-- Node33 -->
<g id="node33" class="node">
<title>Node33</title>
<g id="a_node33"><a xlink:href="../../d1/d73/a02497.html" target="_top" xlink:title="Audit log entry info data.">
<polygon fill="none" stroke="black" points="220.5,-469 220.5,-499 348.5,-499 348.5,-469 220.5,-469"/>
<text text-anchor="start" x="228.5" y="-487" font-family="Helvetica,sans-Serif" font-size="10.00">DiscordCoreAPI::Optional</text>
<text text-anchor="middle" x="284.5" y="-476" font-family="Helvetica,sans-Serif" font-size="10.00">AuditEntryInfoData</text>
</a>
</g>
</g>
<!-- Node1&#45;&gt;Node33 -->
<g id="edge32" class="edge">
<title>Node1&#45;&gt;Node33</title>
<path fill="none" stroke="midnightblue" d="M84.2,-644.75C99.3,-611.69 134.72,-544.26 186,-509 196.22,-501.97 208.28,-496.92 220.36,-493.29"/>
<polygon fill="midnightblue" stroke="midnightblue" points="80.86,-643.63 80.02,-654.2 87.26,-646.47 80.86,-643.63"/>
</g>
<!-- Node34 -->
<g id="node34" class="node">
<title>Node34</title>
<g id="a_node34"><a xlink:href="../../d0/dc0/a02365.html" target="_top" xlink:title="A Permission overwrite, for a given Channel.">
<polygon fill="none" stroke="black" points="207,-430.5 207,-449.5 362,-449.5 362,-430.5 207,-430.5"/>
<text text-anchor="middle" x="284.5" y="-437.5" font-family="Helvetica,sans-Serif" font-size="10.00">DiscordCoreAPI::OverWriteData</text>
</a>
</g>
</g>
<!-- Node1&#45;&gt;Node34 -->
<g id="edge33" class="edge">
<title>Node1&#45;&gt;Node34</title>
<path fill="none" stroke="midnightblue" d="M80.56,-644.56C91.27,-603.44 122.11,-507.5 186,-460 192.24,-455.36 199.3,-451.73 206.7,-448.91"/>
<polygon fill="midnightblue" stroke="midnightblue" points="77.12,-643.86 78.11,-654.41 83.92,-645.55 77.12,-643.86"/>
</g>
<!-- Node35 -->
<g id="node35" class="node">
<title>Node35</title>
<g id="a_node35"><a xlink:href="../../dc/de1/a02513.html" target="_top" xlink:title="Party data.">
<polygon fill="none" stroke="black" points="217,-392.5 217,-411.5 352,-411.5 352,-392.5 217,-392.5"/>
<text text-anchor="middle" x="284.5" y="-399.5" font-family="Helvetica,sans-Serif" font-size="10.00">DiscordCoreAPI::PartyData</text>
</a>
</g>
</g>
<!-- Node1&#45;&gt;Node35 -->
<g id="edge34" class="edge">
<title>Node1&#45;&gt;Node35</title>
<path fill="none" stroke="midnightblue" d="M78.74,-644.41C86.36,-597.69 112.34,-479.25 186,-421 194.93,-413.94 205.73,-409.26 216.85,-406.2"/>
<polygon fill="midnightblue" stroke="midnightblue" points="75.25,-644.02 77.21,-654.43 82.17,-645.08 75.25,-644.02"/>
</g>
<!-- Node36 -->
<g id="node36" class="node">
<title>Node36</title>
<g id="a_node36"><a xlink:href="../../d9/d9d/a02425.html" target="_top" xlink:title="Data structure representing a single reaction.">
<polygon fill="none" stroke="black" points="209.5,-354.5 209.5,-373.5 359.5,-373.5 359.5,-354.5 209.5,-354.5"/>
<text text-anchor="middle" x="284.5" y="-361.5" font-family="Helvetica,sans-Serif" font-size="10.00">DiscordCoreAPI::ReactionData</text>
</a>
</g>
</g>
<!-- Node1&#45;&gt;Node36 -->
<g id="edge35" class="edge">
<title>Node1&#45;&gt;Node36</title>
<path fill="none" stroke="midnightblue" d="M77.44,-644.23C82.32,-592.48 102.96,-452.25 186,-383 192.75,-377.37 200.69,-373.22 209.06,-370.2"/>
<polygon fill="midnightblue" stroke="midnightblue" points="73.93,-644.13 76.58,-654.39 80.91,-644.72 73.93,-644.13"/>
</g>
<!-- Node38 -->
<g id="node38" class="node">
<title>Node38</title>
<g id="a_node38"><a xlink:href="../../d7/d1a/a02381.html" target="_top" xlink:title="Data structure representing a single Role.">
<polygon fill="none" stroke="black" points="219,-316.5 219,-335.5 350,-335.5 350,-316.5 219,-316.5"/>
<text text-anchor="middle" x="284.5" y="-323.5" font-family="Helvetica,sans-Serif" font-size="10.00">DiscordCoreAPI::RoleData</text>
</a>
</g>
</g>
<!-- Node1&#45;&gt;Node38 -->
<g id="edge37" class="edge">
<title>Node1&#45;&gt;Node38</title>
<path fill="none" stroke="midnightblue" d="M76.4,-644.27C78.67,-587.99 93.35,-425.54 186,-345 195.24,-336.97 206.86,-331.93 218.82,-328.84"/>
<polygon fill="midnightblue" stroke="midnightblue" points="72.9,-644.22 76.08,-654.33 79.9,-644.44 72.9,-644.22"/>
</g>
<!-- Node40 -->
<g id="node40" class="node">
<title>Node40</title>
<g id="a_node40"><a xlink:href="../../dd/d68/a02553.html" target="_top" xlink:title="Stage instance data.">
<polygon fill="none" stroke="black" points="197.5,-278.5 197.5,-297.5 371.5,-297.5 371.5,-278.5 197.5,-278.5"/>
<text text-anchor="middle" x="284.5" y="-285.5" font-family="Helvetica,sans-Serif" font-size="10.00">DiscordCoreAPI::StageInstanceData</text>
</a>
</g>
</g>
<!-- Node1&#45;&gt;Node40 -->
<g id="edge39" class="edge">
<title>Node1&#45;&gt;Node40</title>
<path fill="none" stroke="midnightblue" d="M75.57,-644.4C75.39,-583.97 83.59,-399.05 186,-307 190.1,-303.31 194.71,-300.25 199.62,-297.71"/>
<polygon fill="midnightblue" stroke="midnightblue" points="72.07,-644.52 75.69,-654.48 79.07,-644.44 72.07,-644.52"/>
</g>
<!-- Node42 -->
<g id="node42" class="node">
<title>Node42</title>
<g id="a_node42"><a xlink:href="../../dd/d98/a02557.html" target="_top" xlink:title="Data representing a single Sticker.">
<polygon fill="none" stroke="black" points="213,-240.5 213,-259.5 356,-259.5 356,-240.5 213,-240.5"/>
<text text-anchor="middle" x="284.5" y="-247.5" font-family="Helvetica,sans-Serif" font-size="10.00">DiscordCoreAPI::StickerData</text>
</a>
</g>
</g>
<!-- Node1&#45;&gt;Node42 -->
<g id="edge41" class="edge">
<title>Node1&#45;&gt;Node42</title>
<path fill="none" stroke="midnightblue" d="M78.74,-644.27C89.2,-571.8 128.92,-321.73 186,-269 193.6,-261.98 202.99,-257.2 212.92,-254.01"/>
<polygon fill="midnightblue" stroke="midnightblue" points="75.25,-643.93 77.31,-654.32 82.18,-644.91 75.25,-643.93"/>
</g>
<!-- Node44 -->
<g id="node44" class="node">
<title>Node44</title>
<g id="a_node44"><a xlink:href="../../dc/d1d/a02713.html" target="_top" xlink:title="Message Sticker item data.">
<polygon fill="none" stroke="black" points="204,-202.5 204,-221.5 365,-221.5 365,-202.5 204,-202.5"/>
<text text-anchor="middle" x="284.5" y="-209.5" font-family="Helvetica,sans-Serif" font-size="10.00">DiscordCoreAPI::StickerItemData</text>
</a>
</g>
</g>
<!-- Node1&#45;&gt;Node44 -->
<g id="edge43" class="edge">
<title>Node1&#45;&gt;Node44</title>
<path fill="none" stroke="midnightblue" d="M78.27,-643.9C87.42,-566.56 124.08,-289.53 186,-231 191.14,-226.14 197.13,-222.35 203.57,-219.42"/>
<polygon fill="midnightblue" stroke="midnightblue" points="74.75,-643.84 77.08,-654.18 81.71,-644.65 74.75,-643.84"/>
</g>
<!-- Node45 -->
<g id="node45" class="node">
<title>Node45</title>
<g id="a_node45"><a xlink:href="../../d4/d87/a02457.html" target="_top" xlink:title="Team object data.">
<polygon fill="none" stroke="black" points="202.5,-164.5 202.5,-183.5 366.5,-183.5 366.5,-164.5 202.5,-164.5"/>
<text text-anchor="middle" x="284.5" y="-171.5" font-family="Helvetica,sans-Serif" font-size="10.00">DiscordCoreAPI::TeamObjectData</text>
</a>
</g>
</g>
<!-- Node1&#45;&gt;Node45 -->
<g id="edge44" class="edge">
<title>Node1&#45;&gt;Node45</title>
<path fill="none" stroke="midnightblue" d="M77.85,-643.74C85.72,-561.96 119.15,-257.42 186,-193 190.72,-188.45 196.18,-184.84 202.07,-181.98"/>
<polygon fill="midnightblue" stroke="midnightblue" points="74.32,-643.86 76.87,-654.14 81.29,-644.51 74.32,-643.86"/>
</g>
<!-- Node46 -->
<g id="node46" class="node">
<title>Node46</title>
<g id="a_node46"><a xlink:href="../../dc/d0a/a02345.html" target="_top" xlink:title="Data for a single member of a Thread.">
<polygon fill="none" stroke="black" points="196.5,-126.5 196.5,-145.5 372.5,-145.5 372.5,-126.5 196.5,-126.5"/>
<text text-anchor="middle" x="284.5" y="-133.5" font-family="Helvetica,sans-Serif" font-size="10.00">DiscordCoreAPI::ThreadMemberData</text>
</a>
</g>
</g>
<!-- Node1&#45;&gt;Node46 -->
<g id="edge45" class="edge">
<title>Node1&#45;&gt;Node46</title>
<path fill="none" stroke="midnightblue" d="M77.44,-644.05C84.03,-558.7 114.07,-225.47 186,-155 189.82,-151.26 194.14,-148.14 198.79,-145.56"/>
<polygon fill="midnightblue" stroke="midnightblue" points="73.94,-643.96 76.68,-654.2 80.92,-644.49 73.94,-643.96"/>
</g>
<!-- Node47 -->
<g id="node47" class="node">
<title>Node47</title>
<g id="a_node47"><a xlink:href="../../da/dd2/a02701.html" target="_top" xlink:title="Represents a Thread&#45;members&#45;update.">
<polygon fill="none" stroke="black" points="204,-77 204,-107 365,-107 365,-77 204,-77"/>
<text text-anchor="start" x="212" y="-95" font-family="Helvetica,sans-Serif" font-size="10.00">DiscordCoreAPI::ThreadMembers</text>
<text text-anchor="middle" x="284.5" y="-84" font-family="Helvetica,sans-Serif" font-size="10.00">UpdateData</text>
</a>
</g>
</g>
<!-- Node1&#45;&gt;Node47 -->
<g id="edge46" class="edge">
<title>Node1&#45;&gt;Node47</title>
<path fill="none" stroke="midnightblue" d="M77.21,-644.39C83.07,-556.03 111.27,-195.76 186,-117 191.05,-111.68 197.07,-107.43 203.6,-104.04"/>
<polygon fill="midnightblue" stroke="midnightblue" points="73.72,-644.19 76.57,-654.4 80.7,-644.64 73.72,-644.19"/>
</g>
<!-- Node48 -->
<g id="node48" class="node">
<title>Node48</title>
<g id="a_node48"><a xlink:href="../../dd/dc5/a02293.html" target="_top" xlink:title="Data structure representing a single User.">
<polygon fill="none" stroke="black" points="218.5,-38.5 218.5,-57.5 350.5,-57.5 350.5,-38.5 218.5,-38.5"/>
<text text-anchor="middle" x="284.5" y="-45.5" font-family="Helvetica,sans-Serif" font-size="10.00">DiscordCoreAPI::UserData</text>
</a>
</g>
</g>
<!-- Node1&#45;&gt;Node48 -->
<g id="edge47" class="edge">
<title>Node1&#45;&gt;Node48</title>
<path fill="none" stroke="midnightblue" d="M76.77,-644.36C80.84,-550.95 102.91,-152.75 186,-68 194.71,-59.12 206.23,-53.65 218.3,-50.38"/>
<polygon fill="midnightblue" stroke="midnightblue" points="73.27,-644.27 76.35,-654.41 80.27,-644.56 73.27,-644.27"/>
</g>
<!-- Node51 -->
<g id="node51" class="node">
<title>Node51</title>
<g id="a_node51"><a xlink:href="../../dd/d20/a02605.html" target="_top" xlink:title="WebHook data.">
<polygon fill="none" stroke="black" points="207,-0.5 207,-19.5 362,-19.5 362,-0.5 207,-0.5"/>
<text text-anchor="middle" x="284.5" y="-7.5" font-family="Helvetica,sans-Serif" font-size="10.00">DiscordCoreAPI::WebHookData</text>
</a>
</g>
</g>
<!-- Node1&#45;&gt;Node51 -->
<g id="edge50" class="edge">
<title>Node1&#45;&gt;Node51</title>
<path fill="none" stroke="midnightblue" d="M76.52,-644C79.49,-546.2 97.42,-119.45 186,-29 191.91,-22.96 199.13,-18.54 206.95,-15.34"/>
<polygon fill="midnightblue" stroke="midnightblue" points="73.02,-644.15 76.23,-654.25 80.01,-644.35 73.02,-644.15"/>
</g>
<!-- Node4 -->
<g id="node4" class="node">
<title>Node4</title>
<g id="a_node4"><a xlink:href="../../d5/d36/a01773.html" target="_top" xlink:title="A single ApplicationCommand.">
<polygon fill="none" stroke="black" points="438.5,-1332 438.5,-1362 578.5,-1362 578.5,-1332 438.5,-1332"/>
<text text-anchor="start" x="446.5" y="-1350" font-family="Helvetica,sans-Serif" font-size="10.00">DiscordCoreAPI::Application</text>
<text text-anchor="middle" x="508.5" y="-1339" font-family="Helvetica,sans-Serif" font-size="10.00">Command</text>
</a>
</g>
</g>
<!-- Node3&#45;&gt;Node4 -->
<g id="edge3" class="edge">
<title>Node3&#45;&gt;Node4</title>
<path fill="none" stroke="midnightblue" d="M364.66,-1347C388.66,-1347 414.83,-1347 438.14,-1347"/>
<polygon fill="midnightblue" stroke="midnightblue" points="364.53,-1343.5 354.53,-1347 364.53,-1350.5 364.53,-1343.5"/>
</g>
<!-- Node11 -->
<g id="node11" class="node">
<title>Node11</title>
<g id="a_node11"><a xlink:href="../../db/d6b/a01853.html" target="_top" xlink:title="Represents an auto&#45;moderation&#45;rule.">
<polygon fill="none" stroke="black" points="419,-1064.5 419,-1083.5 598,-1083.5 598,-1064.5 419,-1064.5"/>
<text text-anchor="middle" x="508.5" y="-1071.5" font-family="Helvetica,sans-Serif" font-size="10.00">DiscordCoreAPI::AutoModerationRule</text>
</a>
</g>
</g>
<!-- Node10&#45;&gt;Node11 -->
<g id="edge10" class="edge">
<title>Node10&#45;&gt;Node11</title>
<path fill="none" stroke="midnightblue" d="M375.11,-1074C389.54,-1074 404.48,-1074 418.89,-1074"/>
<polygon fill="midnightblue" stroke="midnightblue" points="374.71,-1070.5 364.71,-1074 374.71,-1077.5 374.71,-1070.5"/>
</g>
<!-- Node13 -->
<g id="node13" class="node">
<title>Node13</title>
<g id="a_node13"><a xlink:href="../../da/d76/a01941.html" target="_top" xlink:title="A Channel object.">
<polygon fill="none" stroke="black" points="445,-1020.5 445,-1039.5 572,-1039.5 572,-1020.5 445,-1020.5"/>
<text text-anchor="middle" x="508.5" y="-1027.5" font-family="Helvetica,sans-Serif" font-size="10.00">DiscordCoreAPI::Channel</text>
</a>
</g>
</g>
<!-- Node12&#45;&gt;Node13 -->
<g id="edge12" class="edge">
<title>Node12&#45;&gt;Node13</title>
<path fill="none" stroke="midnightblue" d="M368.49,-1030C393.73,-1030 421.04,-1030 444.71,-1030"/>
<polygon fill="midnightblue" stroke="midnightblue" points="368.19,-1026.5 358.19,-1030 368.19,-1033.5 368.19,-1026.5"/>
</g>
<!-- Node14 -->
<g id="node14" class="node">
<title>Node14</title>
<g id="a_node14"><a xlink:href="../../df/dfa/a03533.html" target="_top" xlink:title="Represents a single Thread.">
<polygon fill="none" stroke="black" points="639,-1020.5 639,-1039.5 760,-1039.5 760,-1020.5 639,-1020.5"/>
<text text-anchor="middle" x="699.5" y="-1027.5" font-family="Helvetica,sans-Serif" font-size="10.00">DiscordCoreAPI::Thread</text>
</a>
</g>
</g>
<!-- Node13&#45;&gt;Node14 -->
<g id="edge13" class="edge">
<title>Node13&#45;&gt;Node14</title>
<path fill="none" stroke="midnightblue" d="M582.41,-1030C601.09,-1030 620.96,-1030 638.88,-1030"/>
<polygon fill="midnightblue" stroke="midnightblue" points="582.17,-1026.5 572.17,-1030 582.17,-1033.5 582.17,-1026.5"/>
</g>
<!-- Node21 -->
<g id="node21" class="node">
<title>Node21</title>
<g id="a_node21"><a xlink:href="../../dc/dc5/a02977.html" target="_top" xlink:title="A discord Guild. Used to connect to/disconnect from voice.">
<polygon fill="none" stroke="black" points="451.5,-758.5 451.5,-777.5 565.5,-777.5 565.5,-758.5 451.5,-758.5"/>
<text text-anchor="middle" x="508.5" y="-765.5" font-family="Helvetica,sans-Serif" font-size="10.00">DiscordCoreAPI::Guild</text>
</a>
</g>
</g>
<!-- Node20&#45;&gt;Node21 -->
<g id="edge20" class="edge">
<title>Node20&#45;&gt;Node21</title>
<path fill="none" stroke="midnightblue" d="M361.76,-768C391.22,-768 424.3,-768 451.5,-768"/>
<polygon fill="midnightblue" stroke="midnightblue" points="361.51,-764.5 351.51,-768 361.51,-771.5 361.51,-764.5"/>
</g>
<!-- Node23 -->
<g id="node23" class="node">
<title>Node23</title>
<g id="a_node23"><a xlink:href="../../dd/de7/a03025.html" target="_top" xlink:title="A single GuildMember.">
<polygon fill="none" stroke="black" points="434,-720.5 434,-739.5 583,-739.5 583,-720.5 434,-720.5"/>
<text text-anchor="middle" x="508.5" y="-727.5" font-family="Helvetica,sans-Serif" font-size="10.00">DiscordCoreAPI::GuildMember</text>
</a>
</g>
</g>
<!-- Node22&#45;&gt;Node23 -->
<g id="edge22" class="edge">
<title>Node22&#45;&gt;Node23</title>
<path fill="none" stroke="midnightblue" d="M379.97,-730C397.99,-730 416.6,-730 433.85,-730"/>
<polygon fill="midnightblue" stroke="midnightblue" points="379.75,-726.5 369.75,-730 379.75,-733.5 379.75,-726.5"/>
</g>
<!-- Node25 -->
<g id="node25" class="node">
<title>Node25</title>
<g id="a_node25"><a xlink:href="../../d6/deb/a03061.html" target="_top" xlink:title="A single GuildScheduledEvent responseData structure.">
<polygon fill="none" stroke="black" points="428.5,-671 428.5,-701 588.5,-701 588.5,-671 428.5,-671"/>
<text text-anchor="start" x="436.5" y="-689" font-family="Helvetica,sans-Serif" font-size="10.00">DiscordCoreAPI::GuildScheduled</text>
<text text-anchor="middle" x="508.5" y="-678" font-family="Helvetica,sans-Serif" font-size="10.00">Event</text>
</a>
</g>
</g>
<!-- Node24&#45;&gt;Node25 -->
<g id="edge24" class="edge">
<title>Node24&#45;&gt;Node25</title>
<path fill="none" stroke="midnightblue" d="M375,-686C392.64,-686 411.05,-686 428.32,-686"/>
<polygon fill="midnightblue" stroke="midnightblue" points="374.71,-682.5 364.71,-686 374.71,-689.5 374.71,-682.5"/>
</g>
<!-- Node28 -->
<g id="node28" class="node">
<title>Node28</title>
<g id="a_node28"><a xlink:href="../../d0/d74/a03149.html" target="_top" xlink:title="A single Interaction.">
<polygon fill="none" stroke="black" points="440,-594.5 440,-613.5 577,-613.5 577,-594.5 440,-594.5"/>
<text text-anchor="middle" x="508.5" y="-601.5" font-family="Helvetica,sans-Serif" font-size="10.00">DiscordCoreAPI::Interaction</text>
</a>
</g>
</g>
<!-- Node27&#45;&gt;Node28 -->
<g id="edge27" class="edge">
<title>Node27&#45;&gt;Node28</title>
<path fill="none" stroke="midnightblue" d="M373.23,-604C395.4,-604 418.87,-604 439.88,-604"/>
<polygon fill="midnightblue" stroke="midnightblue" points="373.14,-600.5 363.14,-604 373.14,-607.5 373.14,-600.5"/>
</g>
<!-- Node30 -->
<g id="node30" class="node">
<title>Node30</title>
<g id="a_node30"><a xlink:href="../../db/d8f/a02721.html" target="_top" xlink:title="Data structure representing a single Message.">
<polygon fill="none" stroke="black" points="432.5,-556.5 432.5,-575.5 584.5,-575.5 584.5,-556.5 432.5,-556.5"/>
<text text-anchor="middle" x="508.5" y="-563.5" font-family="Helvetica,sans-Serif" font-size="10.00">DiscordCoreAPI::MessageData</text>
</a>
</g>
</g>
<!-- Node29&#45;&gt;Node30 -->
<g id="edge29" class="edge">
<title>Node29&#45;&gt;Node30</title>
<path fill="none" stroke="midnightblue" d="M378.39,-566C396.42,-566 415.1,-566 432.46,-566"/>
<polygon fill="midnightblue" stroke="midnightblue" points="378.16,-562.5 368.16,-566 378.16,-569.5 378.16,-562.5"/>
</g>
<!-- Node31 -->
<g id="node31" class="node">
<title>Node31</title>
<g id="a_node31"><a xlink:href="../../d5/da4/a03225.html" target="_top" xlink:title="A single Message.">
<polygon fill="none" stroke="black" points="634,-556.5 634,-575.5 765,-575.5 765,-556.5 634,-556.5"/>
<text text-anchor="middle" x="699.5" y="-563.5" font-family="Helvetica,sans-Serif" font-size="10.00">DiscordCoreAPI::Message</text>
</a>
</g>
</g>
<!-- Node30&#45;&gt;Node31 -->
<g id="edge30" class="edge">
<title>Node30&#45;&gt;Node31</title>
<path fill="none" stroke="midnightblue" d="M595.12,-566C608.15,-566 621.4,-566 633.88,-566"/>
<polygon fill="midnightblue" stroke="midnightblue" points="594.74,-562.5 584.74,-566 594.74,-569.5 594.74,-562.5"/>
</g>
<!-- Node37 -->
<g id="node37" class="node">
<title>Node37</title>
<g id="a_node37"><a xlink:href="../../d0/d9d/a03289.html" target="_top" xlink:title="A single Reaction.">
<polygon fill="none" stroke="black" points="443.5,-354.5 443.5,-373.5 573.5,-373.5 573.5,-354.5 443.5,-354.5"/>
<text text-anchor="middle" x="508.5" y="-361.5" font-family="Helvetica,sans-Serif" font-size="10.00">DiscordCoreAPI::Reaction</text>
</a>
</g>
</g>
<!-- Node36&#45;&gt;Node37 -->
<g id="edge36" class="edge">
<title>Node36&#45;&gt;Node37</title>
<path fill="none" stroke="midnightblue" d="M370.03,-364C394.36,-364 420.5,-364 443.38,-364"/>
<polygon fill="midnightblue" stroke="midnightblue" points="369.73,-360.5 359.73,-364 369.73,-367.5 369.73,-360.5"/>
</g>
<!-- Node39 -->
<g id="node39" class="node">
<title>Node39</title>
<g id="a_node39"><a xlink:href="../../d3/d55/a03341.html" target="_top" xlink:title="A single Role.">
<polygon fill="none" stroke="black" points="453,-316.5 453,-335.5 564,-335.5 564,-316.5 453,-316.5"/>
<text text-anchor="middle" x="508.5" y="-323.5" font-family="Helvetica,sans-Serif" font-size="10.00">DiscordCoreAPI::Role</text>
</a>
</g>
</g>
<!-- Node38&#45;&gt;Node39 -->
<g id="edge38" class="edge">
<title>Node38&#45;&gt;Node39</title>
<path fill="none" stroke="midnightblue" d="M360.14,-326C390.53,-326 425.01,-326 452.97,-326"/>
<polygon fill="midnightblue" stroke="midnightblue" points="360.01,-322.5 350.01,-326 360.01,-329.5 360.01,-322.5"/>
</g>
<!-- Node41 -->
<g id="node41" class="node">
<title>Node41</title>
<g id="a_node41"><a xlink:href="../../d5/d56/a03437.html" target="_top" xlink:title="A single StageInstance.">
<polygon fill="none" stroke="black" points="431.5,-278.5 431.5,-297.5 585.5,-297.5 585.5,-278.5 431.5,-278.5"/>
<text text-anchor="middle" x="508.5" y="-285.5" font-family="Helvetica,sans-Serif" font-size="10.00">DiscordCoreAPI::StageInstance</text>
</a>
</g>
</g>
<!-- Node40&#45;&gt;Node41 -->
<g id="edge40" class="edge">
<title>Node40&#45;&gt;Node41</title>
<path fill="none" stroke="midnightblue" d="M381.85,-288C398.35,-288 415.28,-288 431.17,-288"/>
<polygon fill="midnightblue" stroke="midnightblue" points="381.65,-284.5 371.65,-288 381.65,-291.5 381.65,-284.5"/>
</g>
<!-- Node43 -->
<g id="node43" class="node">
<title>Node43</title>
<g id="a_node43"><a xlink:href="../../da/da5/a03465.html" target="_top" xlink:title="A single Sticker.">
<polygon fill="none" stroke="black" points="447.5,-240.5 447.5,-259.5 569.5,-259.5 569.5,-240.5 447.5,-240.5"/>
<text text-anchor="middle" x="508.5" y="-247.5" font-family="Helvetica,sans-Serif" font-size="10.00">DiscordCoreAPI::Sticker</text>
</a>
</g>
</g>
<!-- Node42&#45;&gt;Node43 -->
<g id="edge42" class="edge">
<title>Node42&#45;&gt;Node43</title>
<path fill="none" stroke="midnightblue" d="M366.17,-250C392.94,-250 422.26,-250 447.22,-250"/>
<polygon fill="midnightblue" stroke="midnightblue" points="366.05,-246.5 356.05,-250 366.05,-253.5 366.05,-246.5"/>
</g>
<!-- Node49 -->
<g id="node49" class="node">
<title>Node49</title>
<g id="a_node49"><a xlink:href="../../d0/d92/a03585.html" target="_top" xlink:title="A single User.">
<polygon fill="none" stroke="black" points="452.5,-38.5 452.5,-57.5 564.5,-57.5 564.5,-38.5 452.5,-38.5"/>
<text text-anchor="middle" x="508.5" y="-45.5" font-family="Helvetica,sans-Serif" font-size="10.00">DiscordCoreAPI::User</text>
</a>
</g>
</g>
<!-- Node48&#45;&gt;Node49 -->
<g id="edge48" class="edge">
<title>Node48&#45;&gt;Node49</title>
<path fill="none" stroke="midnightblue" d="M360.61,-48C390.59,-48 424.49,-48 452.16,-48"/>
<polygon fill="midnightblue" stroke="midnightblue" points="360.61,-44.5 350.61,-48 360.61,-51.5 360.61,-44.5"/>
</g>
<!-- Node50 -->
<g id="node50" class="node">
<title>Node50</title>
<g id="a_node50"><a xlink:href="../../d7/d7b/a03593.html" target="_top" xlink:title="A type of User, to represent the Bot and some of its associated endpoints.">
<polygon fill="none" stroke="black" points="636,-38.5 636,-57.5 763,-57.5 763,-38.5 636,-38.5"/>
<text text-anchor="middle" x="699.5" y="-45.5" font-family="Helvetica,sans-Serif" font-size="10.00">DiscordCoreAPI::BotUser</text>
</a>
</g>
</g>
<!-- Node49&#45;&gt;Node50 -->
<g id="edge49" class="edge">
<title>Node49&#45;&gt;Node50</title>
<path fill="none" stroke="midnightblue" d="M574.84,-48C594.64,-48 616.33,-48 635.95,-48"/>
<polygon fill="midnightblue" stroke="midnightblue" points="574.67,-44.5 564.67,-48 574.67,-51.5 574.67,-44.5"/>
</g>
<!-- Node52 -->
<g id="node52" class="node">
<title>Node52</title>
<g id="a_node52"><a xlink:href="../../dd/df6/a03713.html" target="_top" xlink:title="A single WebHook.">
<polygon fill="none" stroke="black" points="441.5,-0.5 441.5,-19.5 575.5,-19.5 575.5,-0.5 441.5,-0.5"/>
<text text-anchor="middle" x="508.5" y="-7.5" font-family="Helvetica,sans-Serif" font-size="10.00">DiscordCoreAPI::WebHook</text>
</a>
</g>
</g>
<!-- Node51&#45;&gt;Node52 -->
<g id="edge51" class="edge">
<title>Node51&#45;&gt;Node52</title>
<path fill="none" stroke="midnightblue" d="M372.27,-10C395.17,-10 419.51,-10 441.15,-10"/>
<polygon fill="midnightblue" stroke="midnightblue" points="372.21,-6.5 362.21,-10 372.21,-13.5 372.21,-6.5"/>
</g>
</g>
</svg>
