<?xml version="1.0" encoding="UTF-8" standalone="no"?>
<!DOCTYPE svg PUBLIC "-//W3C//DTD SVG 1.1//EN"
 "http://www.w3.org/Graphics/SVG/1.1/DTD/svg11.dtd">
<!-- Generated by graphviz version 3.0.0 (20220226.1711)
 -->
<!-- Title: StageInstanceEntities.cpp Pages: 1 -->
<svg width="1738pt" height="498pt"
 viewBox="0.00 0.00 1738.49 498.00" xmlns="http://www.w3.org/2000/svg" xmlns:xlink="http://www.w3.org/1999/xlink">
<g id="graph0" class="graph" transform="scale(1 1) rotate(0) translate(4 494)">
<title>StageInstanceEntities.cpp</title>
<!-- Node1 -->
<g id="node1" class="node">
<title>Node1</title>
<g id="a_node1"><a xlink:title=" ">
<polygon fill="#bfbfbf" stroke="black" points="1058.49,-470.5 1058.49,-489.5 1189.49,-489.5 1189.49,-470.5 1058.49,-470.5"/>
<text text-anchor="middle" x="1123.99" y="-477.5" font-family="Helvetica,sans-Serif" font-size="10.00">StageInstanceEntities.cpp</text>
</a>
</g>
</g>
<!-- Node2 -->
<g id="node2" class="node">
<title>Node2</title>
<g id="a_node2"><a xlink:href="../../dd/d5c/a00752.html" target="_top" xlink:title=" ">
<polygon fill="none" stroke="black" points="745.49,-347.5 745.49,-377.5 890.49,-377.5 890.49,-347.5 745.49,-347.5"/>
<text text-anchor="start" x="753.49" y="-365.5" font-family="Helvetica,sans-Serif" font-size="10.00">discordcoreapi/StageInstance</text>
<text text-anchor="middle" x="817.99" y="-354.5" font-family="Helvetica,sans-Serif" font-size="10.00">Entities.hpp</text>
</a>
</g>
</g>
<!-- Node1&#45;&gt;Node2 -->
<g id="edge1" class="edge">
<title>Node1&#45;&gt;Node2</title>
<path fill="none" stroke="midnightblue" d="M1100.99,-470.32C1050.91,-451.42 931.18,-406.22 864.62,-381.1"/>
<polygon fill="midnightblue" stroke="midnightblue" points="865.79,-377.8 855.2,-377.55 863.32,-384.35 865.79,-377.8"/>
</g>
<!-- Node43 -->
<g id="node43" class="node">
<title>Node43</title>
<g id="a_node43"><a xlink:href="../../d5/d5b/a00695.html" target="_top" xlink:title=" ">
<polygon fill="none" stroke="black" points="1133.99,-414.5 1133.99,-433.5 1279.99,-433.5 1279.99,-414.5 1133.99,-414.5"/>
<text text-anchor="middle" x="1206.99" y="-421.5" font-family="Helvetica,sans-Serif" font-size="10.00">discordcoreapi/CoRoutine.hpp</text>
</a>
</g>
</g>
<!-- Node1&#45;&gt;Node43 -->
<g id="edge44" class="edge">
<title>Node1&#45;&gt;Node43</title>
<path fill="none" stroke="midnightblue" d="M1137.32,-470.32C1150.15,-461.98 1169.77,-449.21 1184.93,-439.35"/>
<polygon fill="midnightblue" stroke="midnightblue" points="1187.21,-442.04 1193.68,-433.65 1183.39,-436.17 1187.21,-442.04"/>
</g>
<!-- Node3 -->
<g id="node3" class="node">
<title>Node3</title>
<g id="a_node3"><a xlink:href="../../d4/deb/a00710.html" target="_top" xlink:title=" ">
<polygon fill="none" stroke="black" points="942.49,-112.5 942.49,-142.5 1073.49,-142.5 1073.49,-112.5 942.49,-112.5"/>
<text text-anchor="start" x="950.49" y="-130.5" font-family="Helvetica,sans-Serif" font-size="10.00">discordcoreapi/Foundation</text>
<text text-anchor="middle" x="1007.99" y="-119.5" font-family="Helvetica,sans-Serif" font-size="10.00">Entities.hpp</text>
</a>
</g>
</g>
<!-- Node2&#45;&gt;Node3 -->
<g id="edge2" class="edge">
<title>Node2&#45;&gt;Node3</title>
<path fill="none" stroke="midnightblue" d="M745.46,-356.95C528.72,-342.05 -92.79,-289.23 11.99,-179 43.58,-145.77 705.08,-132.95 932.21,-129.52"/>
<polygon fill="midnightblue" stroke="midnightblue" points="932.43,-133.02 942.37,-129.37 932.32,-126.02 932.43,-133.02"/>
</g>
<!-- Node28 -->
<g id="node28" class="node">
<title>Node28</title>
<g id="a_node28"><a xlink:href="../../db/d7c/a00722.html" target="_top" xlink:title=" ">
<polygon fill="none" stroke="black" points="755.49,-291.5 755.49,-310.5 880.49,-310.5 880.49,-291.5 755.49,-291.5"/>
<text text-anchor="middle" x="817.99" y="-298.5" font-family="Helvetica,sans-Serif" font-size="10.00">discordcoreapi/Https.hpp</text>
</a>
</g>
</g>
<!-- Node2&#45;&gt;Node28 -->
<g id="edge27" class="edge">
<title>Node2&#45;&gt;Node28</title>
<path fill="none" stroke="midnightblue" d="M817.99,-347.4C817.99,-339.47 817.99,-329.46 817.99,-320.86"/>
<polygon fill="midnightblue" stroke="midnightblue" points="821.49,-320.66 817.99,-310.66 814.49,-320.66 821.49,-320.66"/>
</g>
<!-- Node4 -->
<g id="node4" class="node">
<title>Node4</title>
<g id="a_node4"><a xlink:href="../../d5/dae/a00767.html" target="_top" xlink:title=" ">
<polygon fill="none" stroke="black" points="940.99,-56.5 940.99,-75.5 1074.99,-75.5 1074.99,-56.5 940.99,-56.5"/>
<text text-anchor="middle" x="1007.99" y="-63.5" font-family="Helvetica,sans-Serif" font-size="10.00">discordcoreapi/Utilities.hpp</text>
</a>
</g>
</g>
<!-- Node3&#45;&gt;Node4 -->
<g id="edge3" class="edge">
<title>Node3&#45;&gt;Node4</title>
<path fill="none" stroke="midnightblue" d="M1007.99,-112.4C1007.99,-104.47 1007.99,-94.46 1007.99,-85.86"/>
<polygon fill="midnightblue" stroke="midnightblue" points="1011.49,-85.66 1007.99,-75.66 1004.49,-85.66 1011.49,-85.66"/>
</g>
<!-- Node5 -->
<g id="node5" class="node">
<title>Node5</title>
<g id="a_node5"><a xlink:title=" ">
<polygon fill="none" stroke="#bfbfbf" points="14.49,-0.5 14.49,-19.5 71.49,-19.5 71.49,-0.5 14.49,-0.5"/>
<text text-anchor="middle" x="42.99" y="-7.5" font-family="Helvetica,sans-Serif" font-size="10.00">pthread.h</text>
</a>
</g>
</g>
<!-- Node4&#45;&gt;Node5 -->
<g id="edge4" class="edge">
<title>Node4&#45;&gt;Node5</title>
<path fill="none" stroke="midnightblue" d="M940.93,-63.35C760.42,-58.65 266.01,-44.07 81.63,-19.74"/>
<polygon fill="midnightblue" stroke="midnightblue" points="81.9,-16.24 71.51,-18.35 80.94,-23.18 81.9,-16.24"/>
</g>
<!-- Node6 -->
<g id="node6" class="node">
<title>Node6</title>
<g id="a_node6"><a xlink:title=" ">
<polygon fill="none" stroke="#bfbfbf" points="89.99,-0.5 89.99,-19.5 151.99,-19.5 151.99,-0.5 89.99,-0.5"/>
<text text-anchor="middle" x="120.99" y="-7.5" font-family="Helvetica,sans-Serif" font-size="10.00">sys/time.h</text>
</a>
</g>
</g>
<!-- Node4&#45;&gt;Node6 -->
<g id="edge5" class="edge">
<title>Node4&#45;&gt;Node6</title>
<path fill="none" stroke="midnightblue" d="M940.92,-65.26C798.83,-64.97 457.06,-59.92 162.36,-19.95"/>
<polygon fill="midnightblue" stroke="midnightblue" points="162.72,-16.47 152.34,-18.58 161.77,-23.4 162.72,-16.47"/>
</g>
<!-- Node7 -->
<g id="node7" class="node">
<title>Node7</title>
<g id="a_node7"><a xlink:title=" ">
<polygon fill="none" stroke="#bfbfbf" points="169.99,-0.5 169.99,-19.5 213.99,-19.5 213.99,-0.5 169.99,-0.5"/>
<text text-anchor="middle" x="191.99" y="-7.5" font-family="Helvetica,sans-Serif" font-size="10.00">time.h</text>
</a>
</g>
</g>
<!-- Node4&#45;&gt;Node7 -->
<g id="edge6" class="edge">
<title>Node4&#45;&gt;Node7</title>
<path fill="none" stroke="midnightblue" d="M940.96,-63.1C780.9,-58.25 378.82,-44.19 224.44,-19.8"/>
<polygon fill="midnightblue" stroke="midnightblue" points="224.64,-16.28 214.2,-18.1 223.49,-23.19 224.64,-16.28"/>
</g>
<!-- Node8 -->
<g id="node8" class="node">
<title>Node8</title>
<g id="a_node8"><a xlink:title=" ">
<polygon fill="none" stroke="#bfbfbf" points="232.49,-0.5 232.49,-19.5 273.49,-19.5 273.49,-0.5 232.49,-0.5"/>
<text text-anchor="middle" x="252.99" y="-7.5" font-family="Helvetica,sans-Serif" font-size="10.00">ctime</text>
</a>
</g>
</g>
<!-- Node4&#45;&gt;Node8 -->
<g id="edge7" class="edge">
<title>Node4&#45;&gt;Node8</title>
<path fill="none" stroke="midnightblue" d="M940.88,-62.89C789.78,-57.82 425.64,-43.7 283.96,-19.9"/>
<polygon fill="midnightblue" stroke="midnightblue" points="284.2,-16.39 273.75,-18.09 282.98,-23.28 284.2,-16.39"/>
</g>
<!-- Node9 -->
<g id="node9" class="node">
<title>Node9</title>
<g id="a_node9"><a xlink:title=" ">
<polygon fill="none" stroke="#bfbfbf" points="291.49,-0.5 291.49,-19.5 384.49,-19.5 384.49,-0.5 291.49,-0.5"/>
<text text-anchor="middle" x="337.99" y="-7.5" font-family="Helvetica,sans-Serif" font-size="10.00">condition_variable</text>
</a>
</g>
</g>
<!-- Node4&#45;&gt;Node9 -->
<g id="edge8" class="edge">
<title>Node4&#45;&gt;Node9</title>
<path fill="none" stroke="midnightblue" d="M940.57,-61.96C829.19,-56.53 599.53,-43.55 394.74,-19.98"/>
<polygon fill="midnightblue" stroke="midnightblue" points="395.03,-16.49 384.7,-18.82 394.22,-23.45 395.03,-16.49"/>
</g>
<!-- Node10 -->
<g id="node10" class="node">
<title>Node10</title>
<g id="a_node10"><a xlink:title=" ">
<polygon fill="none" stroke="#bfbfbf" points="402.99,-0.5 402.99,-19.5 500.99,-19.5 500.99,-0.5 402.99,-0.5"/>
<text text-anchor="middle" x="451.99" y="-7.5" font-family="Helvetica,sans-Serif" font-size="10.00">nlohmann/json.hpp</text>
</a>
</g>
</g>
<!-- Node4&#45;&gt;Node10 -->
<g id="edge9" class="edge">
<title>Node4&#45;&gt;Node10</title>
<path fill="none" stroke="midnightblue" d="M940.99,-60.31C847.19,-53.44 671.2,-39.45 511.04,-20.06"/>
<polygon fill="midnightblue" stroke="midnightblue" points="511.35,-16.57 501,-18.83 510.51,-23.52 511.35,-16.57"/>
</g>
<!-- Node11 -->
<g id="node11" class="node">
<title>Node11</title>
<g id="a_node11"><a xlink:title=" ">
<polygon fill="none" stroke="#bfbfbf" points="519.49,-0.5 519.49,-19.5 604.49,-19.5 604.49,-0.5 519.49,-0.5"/>
<text text-anchor="middle" x="561.99" y="-7.5" font-family="Helvetica,sans-Serif" font-size="10.00">source_location</text>
</a>
</g>
</g>
<!-- Node4&#45;&gt;Node11 -->
<g id="edge10" class="edge">
<title>Node4&#45;&gt;Node11</title>
<path fill="none" stroke="midnightblue" d="M940.73,-58.6C864.14,-51.04 735.04,-37.42 614.66,-20.17"/>
<polygon fill="midnightblue" stroke="midnightblue" points="614.93,-16.67 604.53,-18.71 613.93,-23.6 614.93,-16.67"/>
</g>
<!-- Node12 -->
<g id="node12" class="node">
<title>Node12</title>
<g id="a_node12"><a xlink:title=" ">
<polygon fill="none" stroke="#bfbfbf" points="622.49,-0.5 622.49,-19.5 705.49,-19.5 705.49,-0.5 622.49,-0.5"/>
<text text-anchor="middle" x="663.99" y="-7.5" font-family="Helvetica,sans-Serif" font-size="10.00">unordered_map</text>
</a>
</g>
</g>
<!-- Node4&#45;&gt;Node12 -->
<g id="edge11" class="edge">
<title>Node4&#45;&gt;Node12</title>
<path fill="none" stroke="midnightblue" d="M950.11,-56.5C893.16,-48.05 803.45,-34.5 715.84,-20.11"/>
<polygon fill="midnightblue" stroke="midnightblue" points="716.16,-16.62 705.72,-18.44 715.02,-23.52 716.16,-16.62"/>
</g>
<!-- Node13 -->
<g id="node13" class="node">
<title>Node13</title>
<g id="a_node13"><a xlink:title=" ">
<polygon fill="none" stroke="#bfbfbf" points="723.99,-0.5 723.99,-19.5 801.99,-19.5 801.99,-0.5 723.99,-0.5"/>
<text text-anchor="middle" x="762.99" y="-7.5" font-family="Helvetica,sans-Serif" font-size="10.00">shared_mutex</text>
</a>
</g>
</g>
<!-- Node4&#45;&gt;Node13 -->
<g id="edge12" class="edge">
<title>Node4&#45;&gt;Node13</title>
<path fill="none" stroke="midnightblue" d="M969.17,-56.44C926.43,-47.02 857.65,-31.87 811.42,-21.68"/>
<polygon fill="midnightblue" stroke="midnightblue" points="812.14,-18.25 801.63,-19.52 810.64,-25.09 812.14,-18.25"/>
</g>
<!-- Node14 -->
<g id="node14" class="node">
<title>Node14</title>
<g id="a_node14"><a xlink:title=" ">
<polygon fill="none" stroke="#bfbfbf" points="819.99,-0.5 819.99,-19.5 877.99,-19.5 877.99,-0.5 819.99,-0.5"/>
<text text-anchor="middle" x="848.99" y="-7.5" font-family="Helvetica,sans-Serif" font-size="10.00">functional</text>
</a>
</g>
</g>
<!-- Node4&#45;&gt;Node14 -->
<g id="edge13" class="edge">
<title>Node4&#45;&gt;Node14</title>
<path fill="none" stroke="midnightblue" d="M982.79,-56.44C956.04,-47.36 913.58,-32.94 883.68,-22.78"/>
<polygon fill="midnightblue" stroke="midnightblue" points="884.66,-19.42 874.06,-19.52 882.41,-26.05 884.66,-19.42"/>
</g>
<!-- Node15 -->
<g id="node15" class="node">
<title>Node15</title>
<g id="a_node15"><a xlink:title=" ">
<polygon fill="none" stroke="#bfbfbf" points="896.49,-0.5 896.49,-19.5 961.49,-19.5 961.49,-0.5 896.49,-0.5"/>
<text text-anchor="middle" x="928.99" y="-7.5" font-family="Helvetica,sans-Serif" font-size="10.00">semaphore</text>
</a>
</g>
</g>
<!-- Node4&#45;&gt;Node15 -->
<g id="edge14" class="edge">
<title>Node4&#45;&gt;Node15</title>
<path fill="none" stroke="midnightblue" d="M995.29,-56.32C983.09,-47.98 964.41,-35.21 949.98,-25.35"/>
<polygon fill="midnightblue" stroke="midnightblue" points="951.88,-22.41 941.65,-19.65 947.93,-28.19 951.88,-22.41"/>
</g>
<!-- Node16 -->
<g id="node16" class="node">
<title>Node16</title>
<g id="a_node16"><a xlink:title=" ">
<polygon fill="none" stroke="#bfbfbf" points="979.99,-0.5 979.99,-19.5 1035.99,-19.5 1035.99,-0.5 979.99,-0.5"/>
<text text-anchor="middle" x="1007.99" y="-7.5" font-family="Helvetica,sans-Serif" font-size="10.00">concepts</text>
</a>
</g>
</g>
<!-- Node4&#45;&gt;Node16 -->
<g id="edge15" class="edge">
<title>Node4&#45;&gt;Node16</title>
<path fill="none" stroke="midnightblue" d="M1007.99,-56.08C1007.99,-49.01 1007.99,-38.86 1007.99,-29.99"/>
<polygon fill="midnightblue" stroke="midnightblue" points="1011.49,-29.75 1007.99,-19.75 1004.49,-29.75 1011.49,-29.75"/>
</g>
<!-- Node17 -->
<g id="node17" class="node">
<title>Node17</title>
<g id="a_node17"><a xlink:title=" ">
<polygon fill="none" stroke="#bfbfbf" points="1053.99,-0.5 1053.99,-19.5 1107.99,-19.5 1107.99,-0.5 1053.99,-0.5"/>
<text text-anchor="middle" x="1080.99" y="-7.5" font-family="Helvetica,sans-Serif" font-size="10.00">iostream</text>
</a>
</g>
</g>
<!-- Node4&#45;&gt;Node17 -->
<g id="edge16" class="edge">
<title>Node4&#45;&gt;Node17</title>
<path fill="none" stroke="midnightblue" d="M1019.72,-56.32C1030.82,-48.11 1047.73,-35.6 1060.97,-25.81"/>
<polygon fill="midnightblue" stroke="midnightblue" points="1063.09,-28.59 1069.04,-19.83 1058.92,-22.97 1063.09,-28.59"/>
</g>
<!-- Node18 -->
<g id="node18" class="node">
<title>Node18</title>
<g id="a_node18"><a xlink:title=" ">
<polygon fill="none" stroke="#bfbfbf" points="1126.49,-0.5 1126.49,-19.5 1175.49,-19.5 1175.49,-0.5 1126.49,-0.5"/>
<text text-anchor="middle" x="1150.99" y="-7.5" font-family="Helvetica,sans-Serif" font-size="10.00">fstream</text>
</a>
</g>
</g>
<!-- Node4&#45;&gt;Node18 -->
<g id="edge17" class="edge">
<title>Node4&#45;&gt;Node18</title>
<path fill="none" stroke="midnightblue" d="M1030.65,-56.44C1054.39,-47.48 1091.9,-33.31 1118.72,-23.18"/>
<polygon fill="midnightblue" stroke="midnightblue" points="1120.31,-26.32 1128.43,-19.52 1117.84,-19.77 1120.31,-26.32"/>
</g>
<!-- Node19 -->
<g id="node19" class="node">
<title>Node19</title>
<g id="a_node19"><a xlink:title=" ">
<polygon fill="none" stroke="#bfbfbf" points="1193.49,-0.5 1193.49,-19.5 1234.49,-19.5 1234.49,-0.5 1193.49,-0.5"/>
<text text-anchor="middle" x="1213.99" y="-7.5" font-family="Helvetica,sans-Serif" font-size="10.00">bitset</text>
</a>
</g>
</g>
<!-- Node4&#45;&gt;Node19 -->
<g id="edge18" class="edge">
<title>Node4&#45;&gt;Node19</title>
<path fill="none" stroke="midnightblue" d="M1043.16,-56.46C1076.75,-48.2 1129.02,-35.09 1183.52,-20.04"/>
<polygon fill="midnightblue" stroke="midnightblue" points="1184.66,-23.36 1193.36,-17.31 1182.79,-16.61 1184.66,-23.36"/>
</g>
<!-- Node20 -->
<g id="node20" class="node">
<title>Node20</title>
<g id="a_node20"><a xlink:title=" ">
<polygon fill="none" stroke="#bfbfbf" points="1252.99,-0.5 1252.99,-19.5 1304.99,-19.5 1304.99,-0.5 1252.99,-0.5"/>
<text text-anchor="middle" x="1278.99" y="-7.5" font-family="Helvetica,sans-Serif" font-size="10.00">memory</text>
</a>
</g>
</g>
<!-- Node4&#45;&gt;Node20 -->
<g id="edge19" class="edge">
<title>Node4&#45;&gt;Node20</title>
<path fill="none" stroke="midnightblue" d="M1056.76,-56.48C1102.26,-48.35 1172.26,-35.37 1242.73,-19.95"/>
<polygon fill="midnightblue" stroke="midnightblue" points="1243.67,-23.33 1252.68,-17.76 1242.16,-16.49 1243.67,-23.33"/>
</g>
<!-- Node21 -->
<g id="node21" class="node">
<title>Node21</title>
<g id="a_node21"><a xlink:title=" ">
<polygon fill="none" stroke="#bfbfbf" points="1323.49,-0.5 1323.49,-19.5 1372.49,-19.5 1372.49,-0.5 1323.49,-0.5"/>
<text text-anchor="middle" x="1347.99" y="-7.5" font-family="Helvetica,sans-Serif" font-size="10.00">random</text>
</a>
</g>
</g>
<!-- Node4&#45;&gt;Node21 -->
<g id="edge20" class="edge">
<title>Node4&#45;&gt;Node21</title>
<path fill="none" stroke="midnightblue" d="M1075.22,-57.33C1135.23,-49.97 1225.63,-37.66 1313.33,-19.93"/>
<polygon fill="midnightblue" stroke="midnightblue" points="1314.09,-23.35 1323.18,-17.91 1312.68,-16.49 1314.09,-23.35"/>
</g>
<!-- Node22 -->
<g id="node22" class="node">
<title>Node22</title>
<g id="a_node22"><a xlink:title=" ">
<polygon fill="none" stroke="#bfbfbf" points="1390.49,-0.5 1390.49,-19.5 1431.49,-19.5 1431.49,-0.5 1390.49,-0.5"/>
<text text-anchor="middle" x="1410.99" y="-7.5" font-family="Helvetica,sans-Serif" font-size="10.00">string</text>
</a>
</g>
</g>
<!-- Node4&#45;&gt;Node22 -->
<g id="edge21" class="edge">
<title>Node4&#45;&gt;Node22</title>
<path fill="none" stroke="midnightblue" d="M1075.13,-60.6C1148.25,-54.99 1268.67,-43.34 1380.13,-20.08"/>
<polygon fill="midnightblue" stroke="midnightblue" points="1381.14,-23.45 1390.2,-17.95 1379.69,-16.6 1381.14,-23.45"/>
</g>
<!-- Node23 -->
<g id="node23" class="node">
<title>Node23</title>
<g id="a_node23"><a xlink:title=" ">
<polygon fill="none" stroke="#bfbfbf" points="1449.99,-0.5 1449.99,-19.5 1491.99,-19.5 1491.99,-0.5 1449.99,-0.5"/>
<text text-anchor="middle" x="1470.99" y="-7.5" font-family="Helvetica,sans-Serif" font-size="10.00">vector</text>
</a>
</g>
</g>
<!-- Node4&#45;&gt;Node23 -->
<g id="edge22" class="edge">
<title>Node4&#45;&gt;Node23</title>
<path fill="none" stroke="midnightblue" d="M1075.33,-61.93C1158.9,-57.24 1305.76,-46.14 1439.77,-19.89"/>
<polygon fill="midnightblue" stroke="midnightblue" points="1440.68,-23.28 1449.81,-17.89 1439.31,-16.41 1440.68,-23.28"/>
</g>
<!-- Node24 -->
<g id="node24" class="node">
<title>Node24</title>
<g id="a_node24"><a xlink:title=" ">
<polygon fill="none" stroke="#bfbfbf" points="1509.99,-0.5 1509.99,-19.5 1553.99,-19.5 1553.99,-0.5 1509.99,-0.5"/>
<text text-anchor="middle" x="1531.99" y="-7.5" font-family="Helvetica,sans-Serif" font-size="10.00">thread</text>
</a>
</g>
</g>
<!-- Node4&#45;&gt;Node24 -->
<g id="edge23" class="edge">
<title>Node4&#45;&gt;Node24</title>
<path fill="none" stroke="midnightblue" d="M1075.13,-62.94C1168.48,-59.18 1342.76,-48.9 1499.46,-19.94"/>
<polygon fill="midnightblue" stroke="midnightblue" points="1500.58,-23.29 1509.76,-18.01 1499.28,-16.41 1500.58,-23.29"/>
</g>
<!-- Node25 -->
<g id="node25" class="node">
<title>Node25</title>
<g id="a_node25"><a xlink:title=" ">
<polygon fill="none" stroke="#bfbfbf" points="1571.99,-0.5 1571.99,-19.5 1615.99,-19.5 1615.99,-0.5 1571.99,-0.5"/>
<text text-anchor="middle" x="1593.99" y="-7.5" font-family="Helvetica,sans-Serif" font-size="10.00">mutex</text>
</a>
</g>
</g>
<!-- Node4&#45;&gt;Node25 -->
<g id="edge24" class="edge">
<title>Node4&#45;&gt;Node25</title>
<path fill="none" stroke="midnightblue" d="M1075.19,-63.91C1178.25,-61.28 1381.48,-52.3 1561.83,-19.85"/>
<polygon fill="midnightblue" stroke="midnightblue" points="1562.56,-23.27 1571.76,-18.03 1561.3,-16.39 1562.56,-23.27"/>
</g>
<!-- Node26 -->
<g id="node26" class="node">
<title>Node26</title>
<g id="a_node26"><a xlink:title=" ">
<polygon fill="none" stroke="#bfbfbf" points="1634.49,-0.5 1634.49,-19.5 1677.49,-19.5 1677.49,-0.5 1634.49,-0.5"/>
<text text-anchor="middle" x="1655.99" y="-7.5" font-family="Helvetica,sans-Serif" font-size="10.00">queue</text>
</a>
</g>
</g>
<!-- Node4&#45;&gt;Node26 -->
<g id="edge25" class="edge">
<title>Node4&#45;&gt;Node26</title>
<path fill="none" stroke="midnightblue" d="M1075.21,-64.69C1187.37,-63.17 1419.66,-55.74 1624.41,-19.68"/>
<polygon fill="midnightblue" stroke="midnightblue" points="1625.22,-23.09 1634.44,-17.88 1623.98,-16.2 1625.22,-23.09"/>
</g>
<!-- Node27 -->
<g id="node27" class="node">
<title>Node27</title>
<g id="a_node27"><a xlink:title=" ">
<polygon fill="none" stroke="#bfbfbf" points="1695.49,-0.5 1695.49,-19.5 1730.49,-19.5 1730.49,-0.5 1695.49,-0.5"/>
<text text-anchor="middle" x="1712.99" y="-7.5" font-family="Helvetica,sans-Serif" font-size="10.00">map</text>
</a>
</g>
</g>
<!-- Node4&#45;&gt;Node27 -->
<g id="edge26" class="edge">
<title>Node4&#45;&gt;Node27</title>
<path fill="none" stroke="midnightblue" d="M1075.18,-62.83C1219.02,-57.81 1553.77,-44.13 1685.39,-19.76"/>
<polygon fill="midnightblue" stroke="midnightblue" points="1686.11,-23.19 1695.26,-17.84 1684.77,-16.32 1686.11,-23.19"/>
</g>
<!-- Node29 -->
<g id="node29" class="node">
<title>Node29</title>
<g id="a_node29"><a xlink:href="../../d5/de8/a00749.html" target="_top" xlink:title=" ">
<polygon fill="none" stroke="black" points="518.99,-235.5 518.99,-254.5 668.99,-254.5 668.99,-235.5 518.99,-235.5"/>
<text text-anchor="middle" x="593.99" y="-242.5" font-family="Helvetica,sans-Serif" font-size="10.00">discordcoreapi/SSLClients.hpp</text>
</a>
</g>
</g>
<!-- Node28&#45;&gt;Node29 -->
<g id="edge28" class="edge">
<title>Node28&#45;&gt;Node29</title>
<path fill="none" stroke="midnightblue" d="M782.49,-291.44C743.66,-282.08 681.33,-267.06 639.07,-256.87"/>
<polygon fill="midnightblue" stroke="midnightblue" points="639.86,-253.46 629.31,-254.52 638.22,-260.26 639.86,-253.46"/>
</g>
<!-- Node29&#45;&gt;Node3 -->
<g id="edge29" class="edge">
<title>Node29&#45;&gt;Node3</title>
<path fill="none" stroke="midnightblue" d="M669.15,-239.45C728.08,-234.17 811.47,-222.9 880.99,-199 890.81,-195.62 940.6,-167.39 974.84,-147.69"/>
<polygon fill="midnightblue" stroke="midnightblue" points="976.69,-150.66 983.61,-142.64 973.2,-144.6 976.69,-150.66"/>
</g>
<!-- Node30 -->
<g id="node30" class="node">
<title>Node30</title>
<g id="a_node30"><a xlink:href="../../d4/d6a/a00704.html" target="_top" xlink:title=" ">
<polygon fill="none" stroke="black" points="928.99,-179.5 928.99,-198.5 1086.99,-198.5 1086.99,-179.5 928.99,-179.5"/>
<text text-anchor="middle" x="1007.99" y="-186.5" font-family="Helvetica,sans-Serif" font-size="10.00">discordcoreapi/EventEntities.hpp</text>
</a>
</g>
</g>
<!-- Node29&#45;&gt;Node30 -->
<g id="edge30" class="edge">
<title>Node29&#45;&gt;Node30</title>
<path fill="none" stroke="midnightblue" d="M659.59,-235.44C733.78,-225.77 854.38,-210.04 932.44,-199.85"/>
<polygon fill="midnightblue" stroke="midnightblue" points="933.23,-203.28 942.69,-198.52 932.33,-196.34 933.23,-203.28"/>
</g>
<!-- Node31 -->
<g id="node31" class="node">
<title>Node31</title>
<g id="a_node31"><a xlink:title=" ">
<polygon fill="none" stroke="#bfbfbf" points="1105.49,-179.5 1105.49,-198.5 1178.49,-198.5 1178.49,-179.5 1105.49,-179.5"/>
<text text-anchor="middle" x="1141.99" y="-186.5" font-family="Helvetica,sans-Serif" font-size="10.00">openssl/err.h</text>
</a>
</g>
</g>
<!-- Node29&#45;&gt;Node31 -->
<g id="edge32" class="edge">
<title>Node29&#45;&gt;Node31</title>
<path fill="none" stroke="midnightblue" d="M669.11,-239.71C765.4,-233.66 937.65,-221 1095.04,-198.98"/>
<polygon fill="midnightblue" stroke="midnightblue" points="1095.98,-202.38 1105.39,-197.52 1094.99,-195.45 1095.98,-202.38"/>
</g>
<!-- Node32 -->
<g id="node32" class="node">
<title>Node32</title>
<g id="a_node32"><a xlink:title=" ">
<polygon fill="none" stroke="#bfbfbf" points="20.99,-179.5 20.99,-198.5 94.99,-198.5 94.99,-179.5 20.99,-179.5"/>
<text text-anchor="middle" x="57.99" y="-186.5" font-family="Helvetica,sans-Serif" font-size="10.00">openssl/ssl.h</text>
</a>
</g>
</g>
<!-- Node29&#45;&gt;Node32 -->
<g id="edge33" class="edge">
<title>Node29&#45;&gt;Node32</title>
<path fill="none" stroke="midnightblue" d="M518.58,-239.46C424.2,-233.25 257.43,-220.51 105.1,-199.02"/>
<polygon fill="midnightblue" stroke="midnightblue" points="105.48,-195.54 95.09,-197.6 104.49,-202.47 105.48,-195.54"/>
</g>
<!-- Node33 -->
<g id="node33" class="node">
<title>Node33</title>
<g id="a_node33"><a xlink:title=" ">
<polygon fill="none" stroke="#bfbfbf" points="113.49,-179.5 113.49,-198.5 156.49,-198.5 156.49,-179.5 113.49,-179.5"/>
<text text-anchor="middle" x="134.99" y="-186.5" font-family="Helvetica,sans-Serif" font-size="10.00">fcntl.h</text>
</a>
</g>
</g>
<!-- Node29&#45;&gt;Node33 -->
<g id="edge34" class="edge">
<title>Node29&#45;&gt;Node33</title>
<path fill="none" stroke="midnightblue" d="M518.95,-240.38C434.99,-235.38 294.94,-224.19 166.51,-198.98"/>
<polygon fill="midnightblue" stroke="midnightblue" points="166.99,-195.5 156.49,-196.98 165.62,-202.37 166.99,-195.5"/>
</g>
<!-- Node34 -->
<g id="node34" class="node">
<title>Node34</title>
<g id="a_node34"><a xlink:title=" ">
<polygon fill="none" stroke="#bfbfbf" points="174.49,-179.5 174.49,-198.5 223.49,-198.5 223.49,-179.5 174.49,-179.5"/>
<text text-anchor="middle" x="198.99" y="-186.5" font-family="Helvetica,sans-Serif" font-size="10.00">netdb.h</text>
</a>
</g>
</g>
<!-- Node29&#45;&gt;Node34 -->
<g id="edge35" class="edge">
<title>Node29&#45;&gt;Node34</title>
<path fill="none" stroke="midnightblue" d="M518.96,-237.82C447.7,-231.24 337.46,-219.2 233.78,-199.13"/>
<polygon fill="midnightblue" stroke="midnightblue" points="234.25,-195.66 223.76,-197.16 232.9,-202.53 234.25,-195.66"/>
</g>
<!-- Node35 -->
<g id="node35" class="node">
<title>Node35</title>
<g id="a_node35"><a xlink:title=" ">
<polygon fill="none" stroke="#bfbfbf" points="241.49,-179.5 241.49,-198.5 306.49,-198.5 306.49,-179.5 241.49,-179.5"/>
<text text-anchor="middle" x="273.99" y="-186.5" font-family="Helvetica,sans-Serif" font-size="10.00">netinet/in.h</text>
</a>
</g>
</g>
<!-- Node29&#45;&gt;Node35 -->
<g id="edge36" class="edge">
<title>Node29&#45;&gt;Node35</title>
<path fill="none" stroke="midnightblue" d="M535.03,-235.47C480.66,-227.39 397.47,-214.46 316.49,-199.21"/>
<polygon fill="midnightblue" stroke="midnightblue" points="317.1,-195.76 306.63,-197.34 315.8,-202.64 317.1,-195.76"/>
</g>
<!-- Node36 -->
<g id="node36" class="node">
<title>Node36</title>
<g id="a_node36"><a xlink:title=" ">
<polygon fill="none" stroke="#bfbfbf" points="324.49,-179.5 324.49,-198.5 395.49,-198.5 395.49,-179.5 324.49,-179.5"/>
<text text-anchor="middle" x="359.99" y="-186.5" font-family="Helvetica,sans-Serif" font-size="10.00">netinet/tcp.h</text>
</a>
</g>
</g>
<!-- Node29&#45;&gt;Node36 -->
<g id="edge37" class="edge">
<title>Node29&#45;&gt;Node36</title>
<path fill="none" stroke="midnightblue" d="M556.91,-235.44C515.9,-225.98 449.8,-210.73 405.64,-200.54"/>
<polygon fill="midnightblue" stroke="midnightblue" points="406.27,-197.09 395.74,-198.25 404.7,-203.91 406.27,-197.09"/>
</g>
<!-- Node37 -->
<g id="node37" class="node">
<title>Node37</title>
<g id="a_node37"><a xlink:title=" ">
<polygon fill="none" stroke="#bfbfbf" points="413.49,-179.5 413.49,-198.5 462.49,-198.5 462.49,-179.5 413.49,-179.5"/>
<text text-anchor="middle" x="437.99" y="-186.5" font-family="Helvetica,sans-Serif" font-size="10.00">stdint.h</text>
</a>
</g>
</g>
<!-- Node29&#45;&gt;Node37 -->
<g id="edge38" class="edge">
<title>Node29&#45;&gt;Node37</title>
<path fill="none" stroke="midnightblue" d="M569.27,-235.44C543.14,-226.4 501.73,-212.06 472.41,-201.92"/>
<polygon fill="midnightblue" stroke="midnightblue" points="473.18,-198.48 462.59,-198.52 470.89,-205.1 473.18,-198.48"/>
</g>
<!-- Node38 -->
<g id="node38" class="node">
<title>Node38</title>
<g id="a_node38"><a xlink:title=" ">
<polygon fill="none" stroke="#bfbfbf" points="480.99,-179.5 480.99,-198.5 544.99,-198.5 544.99,-179.5 480.99,-179.5"/>
<text text-anchor="middle" x="512.99" y="-186.5" font-family="Helvetica,sans-Serif" font-size="10.00">sys/epoll.h</text>
</a>
</g>
</g>
<!-- Node29&#45;&gt;Node38 -->
<g id="edge39" class="edge">
<title>Node29&#45;&gt;Node38</title>
<path fill="none" stroke="midnightblue" d="M580.97,-235.32C568.45,-226.98 549.3,-214.21 534.52,-204.35"/>
<polygon fill="midnightblue" stroke="midnightblue" points="536.23,-201.29 525.97,-198.65 532.35,-207.11 536.23,-201.29"/>
</g>
<!-- Node39 -->
<g id="node39" class="node">
<title>Node39</title>
<g id="a_node39"><a xlink:title=" ">
<polygon fill="none" stroke="#bfbfbf" points="562.99,-179.5 562.99,-198.5 624.99,-198.5 624.99,-179.5 562.99,-179.5"/>
<text text-anchor="middle" x="593.99" y="-186.5" font-family="Helvetica,sans-Serif" font-size="10.00">arpa/inet.h</text>
</a>
</g>
</g>
<!-- Node29&#45;&gt;Node39 -->
<g id="edge40" class="edge">
<title>Node29&#45;&gt;Node39</title>
<path fill="none" stroke="midnightblue" d="M593.99,-235.08C593.99,-228.01 593.99,-217.86 593.99,-208.99"/>
<polygon fill="midnightblue" stroke="midnightblue" points="597.49,-208.75 593.99,-198.75 590.49,-208.75 597.49,-208.75"/>
</g>
<!-- Node40 -->
<g id="node40" class="node">
<title>Node40</title>
<g id="a_node40"><a xlink:title=" ">
<polygon fill="none" stroke="#bfbfbf" points="643.49,-179.5 643.49,-198.5 716.49,-198.5 716.49,-179.5 643.49,-179.5"/>
<text text-anchor="middle" x="679.99" y="-186.5" font-family="Helvetica,sans-Serif" font-size="10.00">sys/socket.h</text>
</a>
</g>
</g>
<!-- Node29&#45;&gt;Node40 -->
<g id="edge41" class="edge">
<title>Node29&#45;&gt;Node40</title>
<path fill="none" stroke="midnightblue" d="M607.8,-235.32C621.22,-226.9 641.81,-213.97 657.57,-204.07"/>
<polygon fill="midnightblue" stroke="midnightblue" points="659.6,-206.94 666.2,-198.65 655.87,-201.01 659.6,-206.94"/>
</g>
<!-- Node41 -->
<g id="node41" class="node">
<title>Node41</title>
<g id="a_node41"><a xlink:title=" ">
<polygon fill="none" stroke="#bfbfbf" points="734.99,-179.5 734.99,-198.5 802.99,-198.5 802.99,-179.5 734.99,-179.5"/>
<text text-anchor="middle" x="768.99" y="-186.5" font-family="Helvetica,sans-Serif" font-size="10.00">sys/types.h</text>
</a>
</g>
</g>
<!-- Node29&#45;&gt;Node41 -->
<g id="edge42" class="edge">
<title>Node29&#45;&gt;Node41</title>
<path fill="none" stroke="midnightblue" d="M621.72,-235.44C651.41,-226.28 698.7,-211.69 731.66,-201.52"/>
<polygon fill="midnightblue" stroke="midnightblue" points="732.86,-204.81 741.39,-198.52 730.8,-198.12 732.86,-204.81"/>
</g>
<!-- Node42 -->
<g id="node42" class="node">
<title>Node42</title>
<g id="a_node42"><a xlink:title=" ">
<polygon fill="none" stroke="#bfbfbf" points="821.49,-179.5 821.49,-198.5 872.49,-198.5 872.49,-179.5 821.49,-179.5"/>
<text text-anchor="middle" x="846.99" y="-186.5" font-family="Helvetica,sans-Serif" font-size="10.00">unistd.h</text>
</a>
</g>
</g>
<!-- Node29&#45;&gt;Node42 -->
<g id="edge43" class="edge">
<title>Node29&#45;&gt;Node42</title>
<path fill="none" stroke="midnightblue" d="M638.38,-235.49C680.37,-227.29 745.39,-214.22 811.26,-199.08"/>
<polygon fill="midnightblue" stroke="midnightblue" points="812.45,-202.39 821.41,-196.73 810.88,-195.57 812.45,-202.39"/>
</g>
<!-- Node30&#45;&gt;Node3 -->
<g id="edge31" class="edge">
<title>Node30&#45;&gt;Node3</title>
<path fill="none" stroke="midnightblue" d="M1007.99,-179.48C1007.99,-172.47 1007.99,-162.19 1007.99,-152.7"/>
<polygon fill="midnightblue" stroke="midnightblue" points="1011.49,-152.52 1007.99,-142.52 1004.49,-152.52 1011.49,-152.52"/>
</g>
<!-- Node43&#45;&gt;Node3 -->
<g id="edge45" class="edge">
<title>Node43&#45;&gt;Node3</title>
<path fill="none" stroke="midnightblue" d="M1233.73,-414.42C1252.09,-407.29 1275.78,-395.47 1290.99,-378 1314.61,-350.84 1318.99,-338 1318.99,-302 1318.99,-302 1318.99,-302 1318.99,-244 1318.99,-193.92 1175.46,-158.58 1083.41,-141.06"/>
<polygon fill="midnightblue" stroke="midnightblue" points="1084.03,-137.62 1073.56,-139.22 1082.75,-144.5 1084.03,-137.62"/>
</g>
<!-- Node44 -->
<g id="node44" class="node">
<title>Node44</title>
<g id="a_node44"><a xlink:href="../../d3/d4f/a00761.html" target="_top" xlink:title=" ">
<polygon fill="none" stroke="black" points="1131.99,-353 1131.99,-372 1281.99,-372 1281.99,-353 1131.99,-353"/>
<text text-anchor="middle" x="1206.99" y="-360" font-family="Helvetica,sans-Serif" font-size="10.00">discordcoreapi/ThreadPool.hpp</text>
</a>
</g>
</g>
<!-- Node43&#45;&gt;Node44 -->
<g id="edge46" class="edge">
<title>Node43&#45;&gt;Node44</title>
<path fill="none" stroke="midnightblue" d="M1206.99,-414.48C1206.99,-406.08 1206.99,-392.98 1206.99,-382.16"/>
<polygon fill="midnightblue" stroke="midnightblue" points="1210.49,-382.01 1206.99,-372.01 1203.49,-382.01 1210.49,-382.01"/>
</g>
<!-- Node44&#45;&gt;Node3 -->
<g id="edge47" class="edge">
<title>Node44&#45;&gt;Node3</title>
<path fill="none" stroke="midnightblue" d="M1209.02,-352.98C1215.28,-324.48 1231.26,-231.3 1186.99,-179 1173.2,-162.71 1125.91,-149.78 1083.41,-141.08"/>
<polygon fill="midnightblue" stroke="midnightblue" points="1084.07,-137.64 1073.58,-139.12 1082.7,-144.51 1084.07,-137.64"/>
</g>
<!-- Node44&#45;&gt;Node28 -->
<g id="edge48" class="edge">
<title>Node44&#45;&gt;Node28</title>
<path fill="none" stroke="midnightblue" d="M1151.25,-352.98C1080.63,-342.17 959.06,-323.58 883.9,-312.08"/>
<polygon fill="midnightblue" stroke="midnightblue" points="884.03,-308.56 873.62,-310.51 882.97,-315.48 884.03,-308.56"/>
</g>
<!-- Node45 -->
<g id="node45" class="node">
<title>Node45</title>
<g id="a_node45"><a xlink:title=" ">
<polygon fill="none" stroke="#bfbfbf" points="1234.99,-291.5 1234.99,-310.5 1290.99,-310.5 1290.99,-291.5 1234.99,-291.5"/>
<text text-anchor="middle" x="1262.99" y="-298.5" font-family="Helvetica,sans-Serif" font-size="10.00">coroutine</text>
</a>
</g>
</g>
<!-- Node44&#45;&gt;Node45 -->
<g id="edge49" class="edge">
<title>Node44&#45;&gt;Node45</title>
<path fill="none" stroke="midnightblue" d="M1215.01,-352.98C1223.58,-343.87 1237.35,-329.24 1247.94,-317.98"/>
<polygon fill="midnightblue" stroke="midnightblue" points="1250.67,-320.19 1254.98,-310.51 1245.58,-315.39 1250.67,-320.19"/>
</g>
</g>
</svg>
