<?xml version="1.0" encoding="UTF-8" standalone="no"?>
<!DOCTYPE svg PUBLIC "-//W3C//DTD SVG 1.1//EN"
 "http://www.w3.org/Graphics/SVG/1.1/DTD/svg11.dtd">
<!-- Generated by graphviz version 2.43.0 (0)
 -->
<!-- Title: ErlPacker.hpp Pages: 1 -->
<svg width="1862pt" height="207pt"
 viewBox="0.00 0.00 1861.50 207.00" xmlns="http://www.w3.org/2000/svg" xmlns:xlink="http://www.w3.org/1999/xlink">
<g id="graph0" class="graph" transform="scale(1 1) rotate(0) translate(4 203)">
<title>ErlPacker.hpp</title>
<!-- Node1 -->
<g id="node1" class="node">
<title>Node1</title>
<g id="a_node1"><a xlink:title=" ">
<polygon fill="#bfbfbf" stroke="black" points="1039,-179.5 1039,-198.5 1120,-198.5 1120,-179.5 1039,-179.5"/>
<text text-anchor="middle" x="1079.5" y="-186.5" font-family="Helvetica,sans-Serif" font-size="10.00">ErlPacker.hpp</text>
</a>
</g>
</g>
<!-- Node2 -->
<g id="node2" class="node">
<title>Node2</title>
<g id="a_node2"><a xlink:href="../../d4/deb/a00710.html" target="_top" xlink:title=" ">
<polygon fill="none" stroke="black" points="1007,-112.5 1007,-142.5 1152,-142.5 1152,-112.5 1007,-112.5"/>
<text text-anchor="start" x="1015" y="-130.5" font-family="Helvetica,sans-Serif" font-size="10.00">discordcoreapi/Foundation</text>
<text text-anchor="middle" x="1079.5" y="-119.5" font-family="Helvetica,sans-Serif" font-size="10.00">Entities.hpp</text>
</a>
</g>
</g>
<!-- Node1&#45;&gt;Node2 -->
<g id="edge1" class="edge">
<title>Node1&#45;&gt;Node2</title>
<path fill="none" stroke="midnightblue" d="M1079.5,-179.48C1079.5,-172.47 1079.5,-162.19 1079.5,-152.7"/>
<polygon fill="midnightblue" stroke="midnightblue" points="1083,-152.52 1079.5,-142.52 1076,-152.52 1083,-152.52"/>
</g>
<!-- Node3 -->
<g id="node3" class="node">
<title>Node3</title>
<g id="a_node3"><a xlink:href="../../d5/dae/a00767.html" target="_top" xlink:title=" ">
<polygon fill="none" stroke="black" points="1004.5,-56.5 1004.5,-75.5 1154.5,-75.5 1154.5,-56.5 1004.5,-56.5"/>
<text text-anchor="middle" x="1079.5" y="-63.5" font-family="Helvetica,sans-Serif" font-size="10.00">discordcoreapi/Utilities.hpp</text>
</a>
</g>
</g>
<!-- Node2&#45;&gt;Node3 -->
<g id="edge2" class="edge">
<title>Node2&#45;&gt;Node3</title>
<path fill="none" stroke="midnightblue" d="M1079.5,-112.4C1079.5,-104.47 1079.5,-94.46 1079.5,-85.86"/>
<polygon fill="midnightblue" stroke="midnightblue" points="1083,-85.66 1079.5,-75.66 1076,-85.66 1083,-85.66"/>
</g>
<!-- Node4 -->
<g id="node4" class="node">
<title>Node4</title>
<g id="a_node4"><a xlink:title=" ">
<polygon fill="none" stroke="#bfbfbf" points="0,-0.5 0,-19.5 63,-19.5 63,-0.5 0,-0.5"/>
<text text-anchor="middle" x="31.5" y="-7.5" font-family="Helvetica,sans-Serif" font-size="10.00">pthread.h</text>
</a>
</g>
</g>
<!-- Node3&#45;&gt;Node4 -->
<g id="edge3" class="edge">
<title>Node3&#45;&gt;Node4</title>
<path fill="none" stroke="midnightblue" d="M1004.15,-63.31C805.75,-58.59 271.21,-44.11 73.21,-19.8"/>
<polygon fill="midnightblue" stroke="midnightblue" points="73.55,-16.31 63.19,-18.52 72.67,-23.26 73.55,-16.31"/>
</g>
<!-- Node5 -->
<g id="node5" class="node">
<title>Node5</title>
<g id="a_node5"><a xlink:title=" ">
<polygon fill="none" stroke="#bfbfbf" points="81.5,-0.5 81.5,-19.5 149.5,-19.5 149.5,-0.5 81.5,-0.5"/>
<text text-anchor="middle" x="115.5" y="-7.5" font-family="Helvetica,sans-Serif" font-size="10.00">sys/time.h</text>
</a>
</g>
</g>
<!-- Node3&#45;&gt;Node5 -->
<g id="edge4" class="edge">
<title>Node3&#45;&gt;Node5</title>
<path fill="none" stroke="midnightblue" d="M1004.24,-65.32C848.34,-65.13 478.76,-60.16 160.05,-19.98"/>
<polygon fill="midnightblue" stroke="midnightblue" points="160.05,-16.45 149.69,-18.66 159.16,-23.4 160.05,-16.45"/>
</g>
<!-- Node6 -->
<g id="node6" class="node">
<title>Node6</title>
<g id="a_node6"><a xlink:title=" ">
<polygon fill="none" stroke="#bfbfbf" points="167.5,-0.5 167.5,-19.5 215.5,-19.5 215.5,-0.5 167.5,-0.5"/>
<text text-anchor="middle" x="191.5" y="-7.5" font-family="Helvetica,sans-Serif" font-size="10.00">time.h</text>
</a>
</g>
</g>
<!-- Node3&#45;&gt;Node6 -->
<g id="edge5" class="edge">
<title>Node3&#45;&gt;Node6</title>
<path fill="none" stroke="midnightblue" d="M1004.22,-63.1C828.05,-58.33 391.93,-44.55 225.61,-19.76"/>
<polygon fill="midnightblue" stroke="midnightblue" points="225.94,-16.27 215.52,-18.19 224.86,-23.19 225.94,-16.27"/>
</g>
<!-- Node7 -->
<g id="node7" class="node">
<title>Node7</title>
<g id="a_node7"><a xlink:title=" ">
<polygon fill="none" stroke="#bfbfbf" points="233.5,-0.5 233.5,-19.5 277.5,-19.5 277.5,-0.5 233.5,-0.5"/>
<text text-anchor="middle" x="255.5" y="-7.5" font-family="Helvetica,sans-Serif" font-size="10.00">ctime</text>
</a>
</g>
</g>
<!-- Node3&#45;&gt;Node7 -->
<g id="edge6" class="edge">
<title>Node3&#45;&gt;Node7</title>
<path fill="none" stroke="midnightblue" d="M1004.33,-62.9C837.88,-57.91 441.44,-44.04 287.9,-19.79"/>
<polygon fill="midnightblue" stroke="midnightblue" points="288.15,-16.28 277.71,-18.1 287,-23.19 288.15,-16.28"/>
</g>
<!-- Node8 -->
<g id="node8" class="node">
<title>Node8</title>
<g id="a_node8"><a xlink:title=" ">
<polygon fill="none" stroke="#bfbfbf" points="296,-0.5 296,-19.5 403,-19.5 403,-0.5 296,-0.5"/>
<text text-anchor="middle" x="349.5" y="-7.5" font-family="Helvetica,sans-Serif" font-size="10.00">condition_variable</text>
</a>
</g>
</g>
<!-- Node3&#45;&gt;Node8 -->
<g id="edge7" class="edge">
<title>Node3&#45;&gt;Node8</title>
<path fill="none" stroke="midnightblue" d="M1004.32,-61.76C882.52,-56.1 634.28,-42.89 413.25,-19.99"/>
<polygon fill="midnightblue" stroke="midnightblue" points="413.39,-16.49 403.08,-18.93 412.66,-23.45 413.39,-16.49"/>
</g>
<!-- Node9 -->
<g id="node9" class="node">
<title>Node9</title>
<g id="a_node9"><a xlink:title=" ">
<polygon fill="none" stroke="#bfbfbf" points="421.5,-0.5 421.5,-19.5 531.5,-19.5 531.5,-0.5 421.5,-0.5"/>
<text text-anchor="middle" x="476.5" y="-7.5" font-family="Helvetica,sans-Serif" font-size="10.00">nlohmann/json.hpp</text>
</a>
</g>
</g>
<!-- Node3&#45;&gt;Node9 -->
<g id="edge8" class="edge">
<title>Node3&#45;&gt;Node9</title>
<path fill="none" stroke="midnightblue" d="M1004.38,-60.07C902.09,-53.06 713.05,-39.04 541.6,-20.06"/>
<polygon fill="midnightblue" stroke="midnightblue" points="541.96,-16.58 531.63,-18.95 541.18,-23.54 541.96,-16.58"/>
</g>
<!-- Node10 -->
<g id="node10" class="node">
<title>Node10</title>
<g id="a_node10"><a xlink:title=" ">
<polygon fill="none" stroke="#bfbfbf" points="550,-0.5 550,-19.5 643,-19.5 643,-0.5 550,-0.5"/>
<text text-anchor="middle" x="596.5" y="-7.5" font-family="Helvetica,sans-Serif" font-size="10.00">source_location</text>
</a>
</g>
</g>
<!-- Node3&#45;&gt;Node10 -->
<g id="edge9" class="edge">
<title>Node3&#45;&gt;Node10</title>
<path fill="none" stroke="midnightblue" d="M1004.35,-58.42C920.93,-50.81 782.07,-37.27 653.32,-20.18"/>
<polygon fill="midnightblue" stroke="midnightblue" points="653.66,-16.7 643.28,-18.84 652.73,-23.64 653.66,-16.7"/>
</g>
<!-- Node11 -->
<g id="node11" class="node">
<title>Node11</title>
<g id="a_node11"><a xlink:title=" ">
<polygon fill="none" stroke="#bfbfbf" points="661,-0.5 661,-19.5 754,-19.5 754,-0.5 661,-0.5"/>
<text text-anchor="middle" x="707.5" y="-7.5" font-family="Helvetica,sans-Serif" font-size="10.00">unordered_map</text>
</a>
</g>
</g>
<!-- Node3&#45;&gt;Node11 -->
<g id="edge10" class="edge">
<title>Node3&#45;&gt;Node11</title>
<path fill="none" stroke="midnightblue" d="M1017.39,-56.49C955.82,-47.98 858.51,-34.32 764.24,-20.09"/>
<polygon fill="midnightblue" stroke="midnightblue" points="764.65,-16.61 754.24,-18.58 763.6,-23.53 764.65,-16.61"/>
</g>
<!-- Node12 -->
<g id="node12" class="node">
<title>Node12</title>
<g id="a_node12"><a xlink:title=" ">
<polygon fill="none" stroke="#bfbfbf" points="772.5,-0.5 772.5,-19.5 858.5,-19.5 858.5,-0.5 772.5,-0.5"/>
<text text-anchor="middle" x="815.5" y="-7.5" font-family="Helvetica,sans-Serif" font-size="10.00">shared_mutex</text>
</a>
</g>
</g>
<!-- Node3&#45;&gt;Node12 -->
<g id="edge11" class="edge">
<title>Node3&#45;&gt;Node12</title>
<path fill="none" stroke="midnightblue" d="M1037.67,-56.44C991.42,-46.98 916.89,-31.74 867.06,-21.55"/>
<polygon fill="midnightblue" stroke="midnightblue" points="867.63,-18.09 857.14,-19.52 866.23,-24.95 867.63,-18.09"/>
</g>
<!-- Node13 -->
<g id="node13" class="node">
<title>Node13</title>
<g id="a_node13"><a xlink:title=" ">
<polygon fill="none" stroke="#bfbfbf" points="877,-0.5 877,-19.5 942,-19.5 942,-0.5 877,-0.5"/>
<text text-anchor="middle" x="909.5" y="-7.5" font-family="Helvetica,sans-Serif" font-size="10.00">functional</text>
</a>
</g>
</g>
<!-- Node3&#45;&gt;Node13 -->
<g id="edge12" class="edge">
<title>Node3&#45;&gt;Node13</title>
<path fill="none" stroke="midnightblue" d="M1052.56,-56.44C1023.84,-47.32 978.17,-32.81 946.18,-22.65"/>
<polygon fill="midnightblue" stroke="midnightblue" points="946.9,-19.21 936.31,-19.52 944.78,-25.88 946.9,-19.21"/>
</g>
<!-- Node14 -->
<g id="node14" class="node">
<title>Node14</title>
<g id="a_node14"><a xlink:title=" ">
<polygon fill="none" stroke="#bfbfbf" points="960,-0.5 960,-19.5 1031,-19.5 1031,-0.5 960,-0.5"/>
<text text-anchor="middle" x="995.5" y="-7.5" font-family="Helvetica,sans-Serif" font-size="10.00">semaphore</text>
</a>
</g>
</g>
<!-- Node3&#45;&gt;Node14 -->
<g id="edge13" class="edge">
<title>Node3&#45;&gt;Node14</title>
<path fill="none" stroke="midnightblue" d="M1066,-56.32C1052.9,-47.9 1032.79,-34.97 1017.39,-25.07"/>
<polygon fill="midnightblue" stroke="midnightblue" points="1019.27,-22.12 1008.96,-19.65 1015.48,-28.01 1019.27,-22.12"/>
</g>
<!-- Node15 -->
<g id="node15" class="node">
<title>Node15</title>
<g id="a_node15"><a xlink:title=" ">
<polygon fill="none" stroke="#bfbfbf" points="1049.5,-0.5 1049.5,-19.5 1109.5,-19.5 1109.5,-0.5 1049.5,-0.5"/>
<text text-anchor="middle" x="1079.5" y="-7.5" font-family="Helvetica,sans-Serif" font-size="10.00">concepts</text>
</a>
</g>
</g>
<!-- Node3&#45;&gt;Node15 -->
<g id="edge14" class="edge">
<title>Node3&#45;&gt;Node15</title>
<path fill="none" stroke="midnightblue" d="M1079.5,-56.08C1079.5,-49.01 1079.5,-38.86 1079.5,-29.99"/>
<polygon fill="midnightblue" stroke="midnightblue" points="1083,-29.75 1079.5,-19.75 1076,-29.75 1083,-29.75"/>
</g>
<!-- Node16 -->
<g id="node16" class="node">
<title>Node16</title>
<g id="a_node16"><a xlink:title=" ">
<polygon fill="none" stroke="#bfbfbf" points="1127.5,-0.5 1127.5,-19.5 1187.5,-19.5 1187.5,-0.5 1127.5,-0.5"/>
<text text-anchor="middle" x="1157.5" y="-7.5" font-family="Helvetica,sans-Serif" font-size="10.00">iostream</text>
</a>
</g>
</g>
<!-- Node3&#45;&gt;Node16 -->
<g id="edge15" class="edge">
<title>Node3&#45;&gt;Node16</title>
<path fill="none" stroke="midnightblue" d="M1092.03,-56.32C1104.09,-47.98 1122.53,-35.21 1136.77,-25.35"/>
<polygon fill="midnightblue" stroke="midnightblue" points="1138.77,-28.22 1145,-19.65 1134.78,-22.47 1138.77,-28.22"/>
</g>
<!-- Node17 -->
<g id="node17" class="node">
<title>Node17</title>
<g id="a_node17"><a xlink:title=" ">
<polygon fill="none" stroke="#bfbfbf" points="1206,-0.5 1206,-19.5 1261,-19.5 1261,-0.5 1206,-0.5"/>
<text text-anchor="middle" x="1233.5" y="-7.5" font-family="Helvetica,sans-Serif" font-size="10.00">fstream</text>
</a>
</g>
</g>
<!-- Node3&#45;&gt;Node17 -->
<g id="edge16" class="edge">
<title>Node3&#45;&gt;Node17</title>
<path fill="none" stroke="midnightblue" d="M1103.9,-56.44C1129.7,-47.4 1170.58,-33.06 1199.52,-22.92"/>
<polygon fill="midnightblue" stroke="midnightblue" points="1200.93,-26.13 1209.21,-19.52 1198.62,-19.52 1200.93,-26.13"/>
</g>
<!-- Node18 -->
<g id="node18" class="node">
<title>Node18</title>
<g id="a_node18"><a xlink:title=" ">
<polygon fill="none" stroke="#bfbfbf" points="1279.5,-0.5 1279.5,-19.5 1323.5,-19.5 1323.5,-0.5 1279.5,-0.5"/>
<text text-anchor="middle" x="1301.5" y="-7.5" font-family="Helvetica,sans-Serif" font-size="10.00">bitset</text>
</a>
</g>
</g>
<!-- Node3&#45;&gt;Node18 -->
<g id="edge17" class="edge">
<title>Node3&#45;&gt;Node18</title>
<path fill="none" stroke="midnightblue" d="M1118.42,-56.44C1155,-48.26 1211.51,-35.28 1269.17,-20.25"/>
<polygon fill="midnightblue" stroke="midnightblue" points="1270.4,-23.55 1279.19,-17.63 1268.63,-16.78 1270.4,-23.55"/>
</g>
<!-- Node19 -->
<g id="node19" class="node">
<title>Node19</title>
<g id="a_node19"><a xlink:title=" ">
<polygon fill="none" stroke="#bfbfbf" points="1341.5,-0.5 1341.5,-19.5 1399.5,-19.5 1399.5,-0.5 1341.5,-0.5"/>
<text text-anchor="middle" x="1370.5" y="-7.5" font-family="Helvetica,sans-Serif" font-size="10.00">memory</text>
</a>
</g>
</g>
<!-- Node3&#45;&gt;Node19 -->
<g id="edge18" class="edge">
<title>Node3&#45;&gt;Node19</title>
<path fill="none" stroke="midnightblue" d="M1132.48,-56.47C1181.58,-48.37 1256.88,-35.43 1331.45,-20.12"/>
<polygon fill="midnightblue" stroke="midnightblue" points="1332.41,-23.5 1341.49,-18.05 1330.99,-16.65 1332.41,-23.5"/>
</g>
<!-- Node20 -->
<g id="node20" class="node">
<title>Node20</title>
<g id="a_node20"><a xlink:title=" ">
<polygon fill="none" stroke="#bfbfbf" points="1417.5,-0.5 1417.5,-19.5 1471.5,-19.5 1471.5,-0.5 1417.5,-0.5"/>
<text text-anchor="middle" x="1444.5" y="-7.5" font-family="Helvetica,sans-Serif" font-size="10.00">random</text>
</a>
</g>
</g>
<!-- Node3&#45;&gt;Node20 -->
<g id="edge19" class="edge">
<title>Node3&#45;&gt;Node20</title>
<path fill="none" stroke="midnightblue" d="M1154.69,-57.08C1219.27,-49.74 1315.01,-37.56 1407.36,-20.04"/>
<polygon fill="midnightblue" stroke="midnightblue" points="1408.28,-23.42 1417.44,-18.1 1406.96,-16.55 1408.28,-23.42"/>
</g>
<!-- Node21 -->
<g id="node21" class="node">
<title>Node21</title>
<g id="a_node21"><a xlink:title=" ">
<polygon fill="none" stroke="#bfbfbf" points="1489.5,-0.5 1489.5,-19.5 1533.5,-19.5 1533.5,-0.5 1489.5,-0.5"/>
<text text-anchor="middle" x="1511.5" y="-7.5" font-family="Helvetica,sans-Serif" font-size="10.00">string</text>
</a>
</g>
</g>
<!-- Node3&#45;&gt;Node21 -->
<g id="edge20" class="edge">
<title>Node3&#45;&gt;Node21</title>
<path fill="none" stroke="midnightblue" d="M1154.73,-60.41C1233.55,-54.73 1360.98,-43.09 1479.3,-19.93"/>
<polygon fill="midnightblue" stroke="midnightblue" points="1480.14,-23.33 1489.26,-17.95 1478.77,-16.47 1480.14,-23.33"/>
</g>
<!-- Node22 -->
<g id="node22" class="node">
<title>Node22</title>
<g id="a_node22"><a xlink:title=" ">
<polygon fill="none" stroke="#bfbfbf" points="1552,-0.5 1552,-19.5 1599,-19.5 1599,-0.5 1552,-0.5"/>
<text text-anchor="middle" x="1575.5" y="-7.5" font-family="Helvetica,sans-Serif" font-size="10.00">vector</text>
</a>
</g>
</g>
<!-- Node3&#45;&gt;Node22 -->
<g id="edge21" class="edge">
<title>Node3&#45;&gt;Node22</title>
<path fill="none" stroke="midnightblue" d="M1154.62,-61.61C1244.5,-56.69 1399.58,-45.41 1541.62,-19.84"/>
<polygon fill="midnightblue" stroke="midnightblue" points="1542.61,-23.22 1551.82,-17.97 1541.35,-16.33 1542.61,-23.22"/>
</g>
<!-- Node23 -->
<g id="node23" class="node">
<title>Node23</title>
<g id="a_node23"><a xlink:title=" ">
<polygon fill="none" stroke="#bfbfbf" points="1617.5,-0.5 1617.5,-19.5 1665.5,-19.5 1665.5,-0.5 1617.5,-0.5"/>
<text text-anchor="middle" x="1641.5" y="-7.5" font-family="Helvetica,sans-Serif" font-size="10.00">thread</text>
</a>
</g>
</g>
<!-- Node3&#45;&gt;Node23 -->
<g id="edge22" class="edge">
<title>Node3&#45;&gt;Node23</title>
<path fill="none" stroke="midnightblue" d="M1154.52,-62.9C1255.54,-59.11 1440.9,-48.83 1607.53,-19.85"/>
<polygon fill="midnightblue" stroke="midnightblue" points="1608.22,-23.28 1617.46,-18.1 1607.01,-16.39 1608.22,-23.28"/>
</g>
<!-- Node24 -->
<g id="node24" class="node">
<title>Node24</title>
<g id="a_node24"><a xlink:title=" ">
<polygon fill="none" stroke="#bfbfbf" points="1683.5,-0.5 1683.5,-19.5 1731.5,-19.5 1731.5,-0.5 1683.5,-0.5"/>
<text text-anchor="middle" x="1707.5" y="-7.5" font-family="Helvetica,sans-Serif" font-size="10.00">mutex</text>
</a>
</g>
</g>
<!-- Node3&#45;&gt;Node24 -->
<g id="edge23" class="edge">
<title>Node3&#45;&gt;Node24</title>
<path fill="none" stroke="midnightblue" d="M1154.74,-63.9C1266.25,-61.25 1481.94,-52.24 1673.5,-19.84"/>
<polygon fill="midnightblue" stroke="midnightblue" points="1674.21,-23.27 1683.47,-18.12 1673.02,-16.37 1674.21,-23.27"/>
</g>
<!-- Node25 -->
<g id="node25" class="node">
<title>Node25</title>
<g id="a_node25"><a xlink:title=" ">
<polygon fill="none" stroke="#bfbfbf" points="1750,-0.5 1750,-19.5 1797,-19.5 1797,-0.5 1750,-0.5"/>
<text text-anchor="middle" x="1773.5" y="-7.5" font-family="Helvetica,sans-Serif" font-size="10.00">queue</text>
</a>
</g>
</g>
<!-- Node3&#45;&gt;Node25 -->
<g id="edge24" class="edge">
<title>Node3&#45;&gt;Node25</title>
<path fill="none" stroke="midnightblue" d="M1154.91,-64.71C1276.37,-63.18 1522.79,-55.67 1739.85,-19.74"/>
<polygon fill="midnightblue" stroke="midnightblue" points="1740.55,-23.17 1749.83,-18.06 1739.39,-16.26 1740.55,-23.17"/>
</g>
<!-- Node26 -->
<g id="node26" class="node">
<title>Node26</title>
<g id="a_node26"><a xlink:title=" ">
<polygon fill="none" stroke="#bfbfbf" points="1815.5,-0.5 1815.5,-19.5 1853.5,-19.5 1853.5,-0.5 1815.5,-0.5"/>
<text text-anchor="middle" x="1834.5" y="-7.5" font-family="Helvetica,sans-Serif" font-size="10.00">map</text>
</a>
</g>
</g>
<!-- Node3&#45;&gt;Node26 -->
<g id="edge25" class="edge">
<title>Node3&#45;&gt;Node26</title>
<path fill="none" stroke="midnightblue" d="M1154.69,-62.72C1310.57,-57.61 1665.36,-43.94 1805.29,-19.68"/>
<polygon fill="midnightblue" stroke="midnightblue" points="1806.17,-23.08 1815.38,-17.84 1804.92,-16.19 1806.17,-23.08"/>
</g>
</g>
</svg>
