<?xml version="1.0" encoding="UTF-8" standalone="no"?>
<!DOCTYPE svg PUBLIC "-//W3C//DTD SVG 1.1//EN"
 "http://www.w3.org/Graphics/SVG/1.1/DTD/svg11.dtd">
<!-- Generated by graphviz version 3.0.0 (20220226.1711)
 -->
<!-- Title: DiscordCoreAPI::UnboundedMessageBlock::tryReceive Pages: 1 -->
<svg width="541pt" height="176pt"
 viewBox="0.00 0.00 541.00 176.00" xmlns="http://www.w3.org/2000/svg" xmlns:xlink="http://www.w3.org/1999/xlink">
<g id="graph0" class="graph" transform="scale(1 1) rotate(0) translate(4 172)">
<title>DiscordCoreAPI::UnboundedMessageBlock::tryReceive</title>
<!-- Node1 -->
<g id="node1" class="node">
<title>Node1</title>
<g id="a_node1"><a xlink:title="Tries to receive an object of type ObjectType to be placed into a reference.">
<polygon fill="#bfbfbf" stroke="black" points="393,-66.5 393,-96.5 533,-96.5 533,-66.5 393,-66.5"/>
<text text-anchor="start" x="401" y="-84.5" font-family="Helvetica,sans-Serif" font-size="10.00">DiscordCoreAPI::Unbounded</text>
<text text-anchor="middle" x="463" y="-73.5" font-family="Helvetica,sans-Serif" font-size="10.00">MessageBlock::tryReceive</text>
</a>
</g>
</g>
<!-- Node2 -->
<g id="node2" class="node">
<title>Node2</title>
<g id="a_node2"><a xlink:href="../../db/d49/a01969.html#a9fc31b4ff6a73922169844d6ad1851b5" target="_top" xlink:title="Cancels the currently executing CoRoutine and returns the current result.">
<polygon fill="none" stroke="black" points="210.5,-137.5 210.5,-167.5 347.5,-167.5 347.5,-137.5 210.5,-137.5"/>
<text text-anchor="start" x="218.5" y="-155.5" font-family="Helvetica,sans-Serif" font-size="10.00">DiscordCoreAPI::CoRoutine</text>
<text text-anchor="middle" x="279" y="-144.5" font-family="Helvetica,sans-Serif" font-size="10.00">::cancel</text>
</a>
</g>
</g>
<!-- Node1&#45;&gt;Node2 -->
<g id="edge1" class="edge">
<title>Node1&#45;&gt;Node2</title>
<path fill="none" stroke="midnightblue" d="M421.59,-100.94C402.27,-109.88 378.67,-120.3 357,-128.5 348.75,-131.62 339.9,-134.66 331.24,-137.47"/>
<polygon fill="midnightblue" stroke="midnightblue" points="423.12,-104.09 430.7,-96.68 420.16,-97.74 423.12,-104.09"/>
</g>
<!-- Node3 -->
<g id="node3" class="node">
<title>Node3</title>
<g id="a_node3"><a xlink:href="../../d5/d92/a01977.html#a566ebc1b6eacc88c5c2913908e6a2c8f" target="_top" xlink:title="Cancels the currently executing CoRoutine and returns the current result.">
<polygon fill="none" stroke="black" points="210.5,-88.5 210.5,-118.5 347.5,-118.5 347.5,-88.5 210.5,-88.5"/>
<text text-anchor="start" x="218.5" y="-106.5" font-family="Helvetica,sans-Serif" font-size="10.00">DiscordCoreAPI::CoRoutine</text>
<text text-anchor="middle" x="279" y="-95.5" font-family="Helvetica,sans-Serif" font-size="10.00">&lt; void &gt;::cancel</text>
</a>
</g>
</g>
<!-- Node1&#45;&gt;Node3 -->
<g id="edge2" class="edge">
<title>Node1&#45;&gt;Node3</title>
<path fill="none" stroke="midnightblue" d="M382.71,-91.08C370.98,-92.5 358.98,-93.95 347.51,-95.34"/>
<polygon fill="midnightblue" stroke="midnightblue" points="383.43,-94.52 392.93,-89.85 382.59,-87.57 383.43,-94.52"/>
</g>
<!-- Node4 -->
<g id="node4" class="node">
<title>Node4</title>
<g id="a_node4"><a xlink:href="../../db/d49/a01969.html#a4677e19e0a190bf91b35c2345533ed6b" target="_top" xlink:title="Gets the resulting value of the CoRoutine.">
<polygon fill="none" stroke="black" points="201,-50 201,-69 357,-69 357,-50 201,-50"/>
<text text-anchor="middle" x="279" y="-57" font-family="Helvetica,sans-Serif" font-size="10.00">DiscordCoreAPI::CoRoutine::get</text>
</a>
</g>
</g>
<!-- Node1&#45;&gt;Node4 -->
<g id="edge3" class="edge">
<title>Node1&#45;&gt;Node4</title>
<path fill="none" stroke="midnightblue" d="M382.99,-71.95C374.45,-70.92 365.76,-69.87 357.24,-68.84"/>
<polygon fill="midnightblue" stroke="midnightblue" points="382.59,-75.43 392.93,-73.15 383.43,-68.48 382.59,-75.43"/>
</g>
<!-- Node5 -->
<g id="node5" class="node">
<title>Node5</title>
<g id="a_node5"><a xlink:href="../../d5/d92/a01977.html#a904d030f3edbf8efac15b2cebba3e37a" target="_top" xlink:title="Gets the resulting value of the CoRoutine.">
<polygon fill="none" stroke="black" points="210.5,-0.5 210.5,-30.5 347.5,-30.5 347.5,-0.5 210.5,-0.5"/>
<text text-anchor="start" x="218.5" y="-18.5" font-family="Helvetica,sans-Serif" font-size="10.00">DiscordCoreAPI::CoRoutine</text>
<text text-anchor="middle" x="279" y="-7.5" font-family="Helvetica,sans-Serif" font-size="10.00">&lt; void &gt;::get</text>
</a>
</g>
</g>
<!-- Node1&#45;&gt;Node5 -->
<g id="edge4" class="edge">
<title>Node1&#45;&gt;Node5</title>
<path fill="none" stroke="midnightblue" d="M415.06,-62.5C397,-55.36 376.13,-47.33 357,-40.5 347.6,-37.14 337.49,-33.73 327.79,-30.54"/>
<polygon fill="midnightblue" stroke="midnightblue" points="414.19,-65.92 424.78,-66.36 416.78,-59.41 414.19,-65.92"/>
</g>
<!-- Node6 -->
<g id="node6" class="node">
<title>Node6</title>
<g id="a_node6"><a xlink:href="../../df/d92/a03097.html#a721365d0ef437397ea553634f88b8ecf" target="_top" xlink:title="Deletes a previously sent &quot;input&#45;event&#45;response&quot;.">
<polygon fill="none" stroke="black" points="0,-0.5 0,-30.5 165,-30.5 165,-0.5 0,-0.5"/>
<text text-anchor="start" x="8" y="-18.5" font-family="Helvetica,sans-Serif" font-size="10.00">DiscordCoreAPI::InputEvents</text>
<text text-anchor="middle" x="82.5" y="-7.5" font-family="Helvetica,sans-Serif" font-size="10.00">::deleteInputEventResponseAsync</text>
</a>
</g>
</g>
<!-- Node5&#45;&gt;Node6 -->
<g id="edge5" class="edge">
<title>Node5&#45;&gt;Node6</title>
<path fill="none" stroke="midnightblue" d="M200.2,-15.5C188.64,-15.5 176.7,-15.5 165.06,-15.5"/>
<polygon fill="midnightblue" stroke="midnightblue" points="200.25,-19 210.25,-15.5 200.25,-12 200.25,-19"/>
</g>
</g>
</svg>
