<?xml version="1.0" encoding="UTF-8" standalone="no"?>
<!DOCTYPE svg PUBLIC "-//W3C//DTD SVG 1.1//EN"
 "http://www.w3.org/Graphics/SVG/1.1/DTD/svg11.dtd">
<!-- Generated by graphviz version 2.43.0 (0)
 -->
<!-- Title: DiscordCoreAPI::UnboundedMessageBlock::tryReceive Pages: 1 -->
<svg width="585pt" height="176pt"
 viewBox="0.00 0.00 585.00 176.00" xmlns="http://www.w3.org/2000/svg" xmlns:xlink="http://www.w3.org/1999/xlink">
<g id="graph0" class="graph" transform="scale(1 1) rotate(0) translate(4 172)">
<title>DiscordCoreAPI::UnboundedMessageBlock::tryReceive</title>
<!-- Node1 -->
<g id="node1" class="node">
<title>Node1</title>
<g id="a_node1"><a xlink:title="Tries to receive an object of type ObjectType to be placed into a reference.">
<polygon fill="#bfbfbf" stroke="black" points="424,-66.5 424,-96.5 577,-96.5 577,-66.5 424,-66.5"/>
<text text-anchor="start" x="432" y="-84.5" font-family="Helvetica,sans-Serif" font-size="10.00">DiscordCoreAPI::Unbounded</text>
<text text-anchor="middle" x="500.5" y="-73.5" font-family="Helvetica,sans-Serif" font-size="10.00">MessageBlock::tryReceive</text>
</a>
</g>
</g>
<!-- Node2 -->
<g id="node2" class="node">
<title>Node2</title>
<g id="a_node2"><a xlink:href="../../db/d49/a01969.html#a9fc31b4ff6a73922169844d6ad1851b5" target="_top" xlink:title="Cancels the currently executing CoRoutine and returns the current result.">
<polygon fill="none" stroke="black" points="229,-137.5 229,-167.5 377,-167.5 377,-137.5 229,-137.5"/>
<text text-anchor="start" x="237" y="-155.5" font-family="Helvetica,sans-Serif" font-size="10.00">DiscordCoreAPI::CoRoutine</text>
<text text-anchor="middle" x="303" y="-144.5" font-family="Helvetica,sans-Serif" font-size="10.00">::cancel</text>
</a>
</g>
</g>
<!-- Node1&#45;&gt;Node2 -->
<g id="edge1" class="edge">
<title>Node1&#45;&gt;Node2</title>
<path fill="none" stroke="midnightblue" d="M457.58,-100.58C436.87,-109.65 411.37,-120.27 388,-128.5 379.13,-131.62 369.63,-134.64 360.32,-137.42"/>
<polygon fill="midnightblue" stroke="midnightblue" points="459,-103.78 466.73,-96.54 456.17,-97.38 459,-103.78"/>
</g>
<!-- Node3 -->
<g id="node3" class="node">
<title>Node3</title>
<g id="a_node3"><a xlink:href="../../d5/d92/a01977.html#a566ebc1b6eacc88c5c2913908e6a2c8f" target="_top" xlink:title="Cancels the currently executing CoRoutine and returns the current result.">
<polygon fill="none" stroke="black" points="229,-88.5 229,-118.5 377,-118.5 377,-88.5 229,-88.5"/>
<text text-anchor="start" x="237" y="-106.5" font-family="Helvetica,sans-Serif" font-size="10.00">DiscordCoreAPI::CoRoutine</text>
<text text-anchor="middle" x="303" y="-95.5" font-family="Helvetica,sans-Serif" font-size="10.00">&lt; void &gt;::cancel</text>
</a>
</g>
</g>
<!-- Node1&#45;&gt;Node3 -->
<g id="edge2" class="edge">
<title>Node1&#45;&gt;Node3</title>
<path fill="none" stroke="midnightblue" d="M413.74,-91.15C401.53,-92.52 389.07,-93.93 377.13,-95.27"/>
<polygon fill="midnightblue" stroke="midnightblue" points="414.37,-94.6 423.91,-90.01 413.59,-87.65 414.37,-94.6"/>
</g>
<!-- Node4 -->
<g id="node4" class="node">
<title>Node4</title>
<g id="a_node4"><a xlink:href="../../db/d49/a01969.html#a4677e19e0a190bf91b35c2345533ed6b" target="_top" xlink:title="Gets the resulting value of the CoRoutine.">
<polygon fill="none" stroke="black" points="218,-50 218,-69 388,-69 388,-50 218,-50"/>
<text text-anchor="middle" x="303" y="-57" font-family="Helvetica,sans-Serif" font-size="10.00">DiscordCoreAPI::CoRoutine::get</text>
</a>
</g>
</g>
<!-- Node1&#45;&gt;Node4 -->
<g id="edge3" class="edge">
<title>Node1&#45;&gt;Node4</title>
<path fill="none" stroke="midnightblue" d="M413.94,-71.87C405.38,-70.91 396.7,-69.93 388.16,-68.97"/>
<polygon fill="midnightblue" stroke="midnightblue" points="413.59,-75.35 423.91,-72.99 414.37,-68.4 413.59,-75.35"/>
</g>
<!-- Node5 -->
<g id="node5" class="node">
<title>Node5</title>
<g id="a_node5"><a xlink:href="../../d5/d92/a01977.html#a904d030f3edbf8efac15b2cebba3e37a" target="_top" xlink:title="Gets the resulting value of the CoRoutine.">
<polygon fill="none" stroke="black" points="229,-0.5 229,-30.5 377,-30.5 377,-0.5 229,-0.5"/>
<text text-anchor="start" x="237" y="-18.5" font-family="Helvetica,sans-Serif" font-size="10.00">DiscordCoreAPI::CoRoutine</text>
<text text-anchor="middle" x="303" y="-7.5" font-family="Helvetica,sans-Serif" font-size="10.00">&lt; void &gt;::get</text>
</a>
</g>
</g>
<!-- Node1&#45;&gt;Node5 -->
<g id="edge4" class="edge">
<title>Node1&#45;&gt;Node5</title>
<path fill="none" stroke="midnightblue" d="M450.93,-62.88C431.46,-55.62 408.76,-47.4 388,-40.5 377.89,-37.14 367.03,-33.75 356.59,-30.6"/>
<polygon fill="midnightblue" stroke="midnightblue" points="449.9,-66.24 460.5,-66.47 452.36,-59.68 449.9,-66.24"/>
</g>
<!-- Node6 -->
<g id="node6" class="node">
<title>Node6</title>
<g id="a_node6"><a xlink:href="../../df/d92/a03097.html#a721365d0ef437397ea553634f88b8ecf" target="_top" xlink:title="Deletes a previously sent &quot;input&#45;event&#45;response&quot;.">
<polygon fill="none" stroke="black" points="0,-0.5 0,-30.5 182,-30.5 182,-0.5 0,-0.5"/>
<text text-anchor="start" x="8" y="-18.5" font-family="Helvetica,sans-Serif" font-size="10.00">DiscordCoreAPI::InputEvents</text>
<text text-anchor="middle" x="91" y="-7.5" font-family="Helvetica,sans-Serif" font-size="10.00">::deleteInputEventResponseAsync</text>
</a>
</g>
</g>
<!-- Node5&#45;&gt;Node6 -->
<g id="edge5" class="edge">
<title>Node5&#45;&gt;Node6</title>
<path fill="none" stroke="midnightblue" d="M218.5,-15.5C206.59,-15.5 194.29,-15.5 182.26,-15.5"/>
<polygon fill="midnightblue" stroke="midnightblue" points="218.85,-19 228.85,-15.5 218.85,-12 218.85,-19"/>
</g>
</g>
</svg>
