<?xml version="1.0" encoding="UTF-8" standalone="no"?>
<!DOCTYPE svg PUBLIC "-//W3C//DTD SVG 1.1//EN"
 "http://www.w3.org/Graphics/SVG/1.1/DTD/svg11.dtd">
<!-- Generated by graphviz version 3.0.0 (20220226.1711)
 -->
<!-- Title: Https.hpp Pages: 1 -->
<svg width="1797pt" height="319pt"
 viewBox="0.00 0.00 1797.00 319.00" xmlns="http://www.w3.org/2000/svg" xmlns:xlink="http://www.w3.org/1999/xlink">
<g id="graph0" class="graph" transform="scale(1 1) rotate(0) translate(4 315)">
<title>Https.hpp</title>
<!-- Node1 -->
<g id="node1" class="node">
<title>Node1</title>
<g id="a_node1"><a xlink:title=" ">
<polygon fill="#bfbfbf" stroke="black" points="1266,-291.5 1266,-310.5 1325,-310.5 1325,-291.5 1266,-291.5"/>
<text text-anchor="middle" x="1295.5" y="-298.5" font-family="Helvetica,sans-Serif" font-size="10.00">Https.hpp</text>
</a>
</g>
</g>
<!-- Node2 -->
<g id="node2" class="node">
<title>Node2</title>
<g id="a_node2"><a xlink:href="../../d5/de8/a00749.html" target="_top" xlink:title=" ">
<polygon fill="none" stroke="black" points="911.5,-235.5 911.5,-254.5 1061.5,-254.5 1061.5,-235.5 911.5,-235.5"/>
<text text-anchor="middle" x="986.5" y="-242.5" font-family="Helvetica,sans-Serif" font-size="10.00">discordcoreapi/SSLClients.hpp</text>
</a>
</g>
</g>
<!-- Node1&#45;&gt;Node2 -->
<g id="edge1" class="edge">
<title>Node1&#45;&gt;Node2</title>
<path fill="none" stroke="midnightblue" d="M1265.87,-294.82C1215.26,-285.98 1111.24,-267.8 1045.39,-256.29"/>
<polygon fill="midnightblue" stroke="midnightblue" points="1045.62,-252.78 1035.17,-254.5 1044.41,-259.67 1045.62,-252.78"/>
</g>
<!-- Node26 -->
<g id="node26" class="node">
<title>Node26</title>
<g id="a_node26"><a xlink:title=" ">
<polygon fill="none" stroke="#bfbfbf" points="1724,-0.5 1724,-19.5 1789,-19.5 1789,-0.5 1724,-0.5"/>
<text text-anchor="middle" x="1756.5" y="-7.5" font-family="Helvetica,sans-Serif" font-size="10.00">semaphore</text>
</a>
</g>
</g>
<!-- Node1&#45;&gt;Node26 -->
<g id="edge42" class="edge">
<title>Node1&#45;&gt;Node26</title>
<path fill="none" stroke="midnightblue" d="M1325.07,-297.95C1415.22,-290.89 1680.5,-263.86 1680.5,-190 1680.5,-190 1680.5,-190 1680.5,-126.5 1680.5,-84.81 1715.48,-46.53 1737.98,-26.22"/>
<polygon fill="midnightblue" stroke="midnightblue" points="1740.36,-28.78 1745.61,-19.58 1735.77,-23.5 1740.36,-28.78"/>
</g>
<!-- Node3 -->
<g id="node3" class="node">
<title>Node3</title>
<g id="a_node3"><a xlink:title=" ">
<polygon fill="none" stroke="#bfbfbf" points="420,-179.5 420,-198.5 463,-198.5 463,-179.5 420,-179.5"/>
<text text-anchor="middle" x="441.5" y="-186.5" font-family="Helvetica,sans-Serif" font-size="10.00">fcntl.h</text>
</a>
</g>
</g>
<!-- Node2&#45;&gt;Node3 -->
<g id="edge2" class="edge">
<title>Node2&#45;&gt;Node3</title>
<path fill="none" stroke="midnightblue" d="M911.21,-242.23C812.37,-238.83 633.5,-229.01 473.36,-199.02"/>
<polygon fill="midnightblue" stroke="midnightblue" points="473.8,-195.54 463.33,-197.11 472.5,-202.42 473.8,-195.54"/>
</g>
<!-- Node4 -->
<g id="node4" class="node">
<title>Node4</title>
<g id="a_node4"><a xlink:title=" ">
<polygon fill="none" stroke="#bfbfbf" points="481,-179.5 481,-198.5 530,-198.5 530,-179.5 481,-179.5"/>
<text text-anchor="middle" x="505.5" y="-186.5" font-family="Helvetica,sans-Serif" font-size="10.00">netdb.h</text>
</a>
</g>
</g>
<!-- Node2&#45;&gt;Node4 -->
<g id="edge3" class="edge">
<title>Node2&#45;&gt;Node4</title>
<path fill="none" stroke="midnightblue" d="M911.45,-240.28C824.21,-235.1 675.86,-223.64 540.41,-199.1"/>
<polygon fill="midnightblue" stroke="midnightblue" points="540.73,-195.6 530.26,-197.23 539.47,-202.48 540.73,-195.6"/>
</g>
<!-- Node5 -->
<g id="node5" class="node">
<title>Node5</title>
<g id="a_node5"><a xlink:title=" ">
<polygon fill="none" stroke="#bfbfbf" points="548,-179.5 548,-198.5 613,-198.5 613,-179.5 548,-179.5"/>
<text text-anchor="middle" x="580.5" y="-186.5" font-family="Helvetica,sans-Serif" font-size="10.00">netinet/in.h</text>
</a>
</g>
</g>
<!-- Node2&#45;&gt;Node5 -->
<g id="edge4" class="edge">
<title>Node2&#45;&gt;Node5</title>
<path fill="none" stroke="midnightblue" d="M911.28,-236.66C839.71,-229.22 728.83,-216.55 622.91,-198.93"/>
<polygon fill="midnightblue" stroke="midnightblue" points="623.45,-195.47 613,-197.26 622.29,-202.37 623.45,-195.47"/>
</g>
<!-- Node6 -->
<g id="node6" class="node">
<title>Node6</title>
<g id="a_node6"><a xlink:title=" ">
<polygon fill="none" stroke="#bfbfbf" points="631,-179.5 631,-198.5 702,-198.5 702,-179.5 631,-179.5"/>
<text text-anchor="middle" x="666.5" y="-186.5" font-family="Helvetica,sans-Serif" font-size="10.00">netinet/tcp.h</text>
</a>
</g>
</g>
<!-- Node2&#45;&gt;Node6 -->
<g id="edge5" class="edge">
<title>Node2&#45;&gt;Node6</title>
<path fill="none" stroke="midnightblue" d="M930.83,-235.48C877.38,-227.17 794.12,-213.87 712.31,-199.09"/>
<polygon fill="midnightblue" stroke="midnightblue" points="712.8,-195.63 702.34,-197.29 711.55,-202.52 712.8,-195.63"/>
</g>
<!-- Node7 -->
<g id="node7" class="node">
<title>Node7</title>
<g id="a_node7"><a xlink:title=" ">
<polygon fill="none" stroke="#bfbfbf" points="720,-179.5 720,-198.5 769,-198.5 769,-179.5 720,-179.5"/>
<text text-anchor="middle" x="744.5" y="-186.5" font-family="Helvetica,sans-Serif" font-size="10.00">stdint.h</text>
</a>
</g>
</g>
<!-- Node2&#45;&gt;Node7 -->
<g id="edge6" class="edge">
<title>Node2&#45;&gt;Node7</title>
<path fill="none" stroke="midnightblue" d="M944.14,-235.43C904.16,-227.2 842.3,-214.14 779.44,-199.14"/>
<polygon fill="midnightblue" stroke="midnightblue" points="779.89,-195.65 769.35,-196.72 778.26,-202.46 779.89,-195.65"/>
</g>
<!-- Node8 -->
<g id="node8" class="node">
<title>Node8</title>
<g id="a_node8"><a xlink:title=" ">
<polygon fill="none" stroke="#bfbfbf" points="787.5,-179.5 787.5,-198.5 851.5,-198.5 851.5,-179.5 787.5,-179.5"/>
<text text-anchor="middle" x="819.5" y="-186.5" font-family="Helvetica,sans-Serif" font-size="10.00">sys/epoll.h</text>
</a>
</g>
</g>
<!-- Node2&#45;&gt;Node8 -->
<g id="edge7" class="edge">
<title>Node2&#45;&gt;Node8</title>
<path fill="none" stroke="midnightblue" d="M960.04,-235.44C931.82,-226.32 886.96,-211.81 855.53,-201.65"/>
<polygon fill="midnightblue" stroke="midnightblue" points="856.43,-198.26 845.84,-198.52 854.28,-204.92 856.43,-198.26"/>
</g>
<!-- Node9 -->
<g id="node9" class="node">
<title>Node9</title>
<g id="a_node9"><a xlink:title=" ">
<polygon fill="none" stroke="#bfbfbf" points="869.5,-179.5 869.5,-198.5 931.5,-198.5 931.5,-179.5 869.5,-179.5"/>
<text text-anchor="middle" x="900.5" y="-186.5" font-family="Helvetica,sans-Serif" font-size="10.00">arpa/inet.h</text>
</a>
</g>
</g>
<!-- Node2&#45;&gt;Node9 -->
<g id="edge8" class="edge">
<title>Node2&#45;&gt;Node9</title>
<path fill="none" stroke="midnightblue" d="M972.68,-235.32C959.27,-226.9 938.68,-213.97 922.91,-204.07"/>
<polygon fill="midnightblue" stroke="midnightblue" points="924.61,-201.01 914.28,-198.65 920.89,-206.94 924.61,-201.01"/>
</g>
<!-- Node10 -->
<g id="node10" class="node">
<title>Node10</title>
<g id="a_node10"><a xlink:title=" ">
<polygon fill="none" stroke="#bfbfbf" points="950,-179.5 950,-198.5 1023,-198.5 1023,-179.5 950,-179.5"/>
<text text-anchor="middle" x="986.5" y="-186.5" font-family="Helvetica,sans-Serif" font-size="10.00">sys/socket.h</text>
</a>
</g>
</g>
<!-- Node2&#45;&gt;Node10 -->
<g id="edge9" class="edge">
<title>Node2&#45;&gt;Node10</title>
<path fill="none" stroke="midnightblue" d="M986.5,-235.08C986.5,-228.01 986.5,-217.86 986.5,-208.99"/>
<polygon fill="midnightblue" stroke="midnightblue" points="990,-208.75 986.5,-198.75 983,-208.75 990,-208.75"/>
</g>
<!-- Node11 -->
<g id="node11" class="node">
<title>Node11</title>
<g id="a_node11"><a xlink:title=" ">
<polygon fill="none" stroke="#bfbfbf" points="1041.5,-179.5 1041.5,-198.5 1109.5,-198.5 1109.5,-179.5 1041.5,-179.5"/>
<text text-anchor="middle" x="1075.5" y="-186.5" font-family="Helvetica,sans-Serif" font-size="10.00">sys/types.h</text>
</a>
</g>
</g>
<!-- Node2&#45;&gt;Node11 -->
<g id="edge10" class="edge">
<title>Node2&#45;&gt;Node11</title>
<path fill="none" stroke="midnightblue" d="M1000.8,-235.32C1014.68,-226.9 1035.99,-213.97 1052.3,-204.07"/>
<polygon fill="midnightblue" stroke="midnightblue" points="1054.5,-206.83 1061.24,-198.65 1050.87,-200.85 1054.5,-206.83"/>
</g>
<!-- Node12 -->
<g id="node12" class="node">
<title>Node12</title>
<g id="a_node12"><a xlink:title=" ">
<polygon fill="none" stroke="#bfbfbf" points="1128,-179.5 1128,-198.5 1179,-198.5 1179,-179.5 1128,-179.5"/>
<text text-anchor="middle" x="1153.5" y="-186.5" font-family="Helvetica,sans-Serif" font-size="10.00">unistd.h</text>
</a>
</g>
</g>
<!-- Node2&#45;&gt;Node12 -->
<g id="edge11" class="edge">
<title>Node2&#45;&gt;Node12</title>
<path fill="none" stroke="midnightblue" d="M1012.96,-235.44C1041.43,-226.24 1086.83,-211.56 1118.3,-201.38"/>
<polygon fill="midnightblue" stroke="midnightblue" points="1119.55,-204.66 1127.98,-198.25 1117.39,-198 1119.55,-204.66"/>
</g>
<!-- Node13 -->
<g id="node13" class="node">
<title>Node13</title>
<g id="a_node13"><a xlink:href="../../d4/deb/a00710.html" target="_top" xlink:title=" ">
<polygon fill="none" stroke="black" points="1142,-112.5 1142,-142.5 1273,-142.5 1273,-112.5 1142,-112.5"/>
<text text-anchor="start" x="1150" y="-130.5" font-family="Helvetica,sans-Serif" font-size="10.00">discordcoreapi/Foundation</text>
<text text-anchor="middle" x="1207.5" y="-119.5" font-family="Helvetica,sans-Serif" font-size="10.00">Entities.hpp</text>
</a>
</g>
</g>
<!-- Node2&#45;&gt;Node13 -->
<g id="edge12" class="edge">
<title>Node2&#45;&gt;Node13</title>
<path fill="none" stroke="midnightblue" d="M1061.35,-235.48C1110.99,-228.34 1170.23,-216.48 1188.5,-199 1200.88,-187.15 1205.48,-168.16 1207.07,-152.87"/>
<polygon fill="midnightblue" stroke="midnightblue" points="1210.59,-152.76 1207.76,-142.55 1203.6,-152.29 1210.59,-152.76"/>
</g>
<!-- Node39 -->
<g id="node39" class="node">
<title>Node39</title>
<g id="a_node39"><a xlink:href="../../d4/d6a/a00704.html" target="_top" xlink:title=" ">
<polygon fill="none" stroke="black" points="1235.5,-179.5 1235.5,-198.5 1393.5,-198.5 1393.5,-179.5 1235.5,-179.5"/>
<text text-anchor="middle" x="1314.5" y="-186.5" font-family="Helvetica,sans-Serif" font-size="10.00">discordcoreapi/EventEntities.hpp</text>
</a>
</g>
</g>
<!-- Node2&#45;&gt;Node39 -->
<g id="edge38" class="edge">
<title>Node2&#45;&gt;Node39</title>
<path fill="none" stroke="midnightblue" d="M1038.47,-235.44C1096.65,-225.87 1190.86,-210.36 1252.75,-200.17"/>
<polygon fill="midnightblue" stroke="midnightblue" points="1253.47,-203.59 1262.77,-198.52 1252.33,-196.69 1253.47,-203.59"/>
</g>
<!-- Node40 -->
<g id="node40" class="node">
<title>Node40</title>
<g id="a_node40"><a xlink:title=" ">
<polygon fill="none" stroke="#bfbfbf" points="1412,-179.5 1412,-198.5 1485,-198.5 1485,-179.5 1412,-179.5"/>
<text text-anchor="middle" x="1448.5" y="-186.5" font-family="Helvetica,sans-Serif" font-size="10.00">openssl/err.h</text>
</a>
</g>
</g>
<!-- Node2&#45;&gt;Node40 -->
<g id="edge40" class="edge">
<title>Node2&#45;&gt;Node40</title>
<path fill="none" stroke="midnightblue" d="M1061.52,-237.83C1142.81,-230.7 1276.53,-217.7 1401.74,-198.99"/>
<polygon fill="midnightblue" stroke="midnightblue" points="1402.53,-202.41 1411.89,-197.46 1401.48,-195.49 1402.53,-202.41"/>
</g>
<!-- Node41 -->
<g id="node41" class="node">
<title>Node41</title>
<g id="a_node41"><a xlink:title=" ">
<polygon fill="none" stroke="#bfbfbf" points="1503.5,-179.5 1503.5,-198.5 1577.5,-198.5 1577.5,-179.5 1503.5,-179.5"/>
<text text-anchor="middle" x="1540.5" y="-186.5" font-family="Helvetica,sans-Serif" font-size="10.00">openssl/ssl.h</text>
</a>
</g>
</g>
<!-- Node2&#45;&gt;Node41 -->
<g id="edge41" class="edge">
<title>Node2&#45;&gt;Node41</title>
<path fill="none" stroke="midnightblue" d="M1061.67,-239.81C1159.03,-233.84 1334.16,-221.21 1493.42,-199.01"/>
<polygon fill="midnightblue" stroke="midnightblue" points="1493.99,-202.47 1503.4,-197.61 1493.01,-195.54 1493.99,-202.47"/>
</g>
<!-- Node14 -->
<g id="node14" class="node">
<title>Node14</title>
<g id="a_node14"><a xlink:href="../../d5/dae/a00767.html" target="_top" xlink:title=" ">
<polygon fill="none" stroke="black" points="989.5,-56.5 989.5,-75.5 1123.5,-75.5 1123.5,-56.5 989.5,-56.5"/>
<text text-anchor="middle" x="1056.5" y="-63.5" font-family="Helvetica,sans-Serif" font-size="10.00">discordcoreapi/Utilities.hpp</text>
</a>
</g>
</g>
<!-- Node13&#45;&gt;Node14 -->
<g id="edge13" class="edge">
<title>Node13&#45;&gt;Node14</title>
<path fill="none" stroke="midnightblue" d="M1171.72,-112.4C1146.27,-102.37 1112.4,-89.03 1087.98,-79.4"/>
<polygon fill="midnightblue" stroke="midnightblue" points="1089.06,-76.07 1078.47,-75.66 1086.49,-82.58 1089.06,-76.07"/>
</g>
<!-- Node15 -->
<g id="node15" class="node">
<title>Node15</title>
<g id="a_node15"><a xlink:title=" ">
<polygon fill="none" stroke="#bfbfbf" points="0,-0.5 0,-19.5 57,-19.5 57,-0.5 0,-0.5"/>
<text text-anchor="middle" x="28.5" y="-7.5" font-family="Helvetica,sans-Serif" font-size="10.00">pthread.h</text>
</a>
</g>
</g>
<!-- Node14&#45;&gt;Node15 -->
<g id="edge14" class="edge">
<title>Node14&#45;&gt;Node15</title>
<path fill="none" stroke="midnightblue" d="M989.42,-63.59C800.27,-59.35 264.16,-45.51 67,-19.72"/>
<polygon fill="midnightblue" stroke="midnightblue" points="67.41,-16.24 57.03,-18.36 66.46,-23.18 67.41,-16.24"/>
</g>
<!-- Node16 -->
<g id="node16" class="node">
<title>Node16</title>
<g id="a_node16"><a xlink:title=" ">
<polygon fill="none" stroke="#bfbfbf" points="75.5,-0.5 75.5,-19.5 137.5,-19.5 137.5,-0.5 75.5,-0.5"/>
<text text-anchor="middle" x="106.5" y="-7.5" font-family="Helvetica,sans-Serif" font-size="10.00">sys/time.h</text>
</a>
</g>
</g>
<!-- Node14&#45;&gt;Node16 -->
<g id="edge15" class="edge">
<title>Node14&#45;&gt;Node16</title>
<path fill="none" stroke="midnightblue" d="M989.35,-65.61C839.66,-66.13 467.31,-62.71 147.76,-19.93"/>
<polygon fill="midnightblue" stroke="midnightblue" points="148.23,-16.46 137.85,-18.59 147.29,-23.4 148.23,-16.46"/>
</g>
<!-- Node17 -->
<g id="node17" class="node">
<title>Node17</title>
<g id="a_node17"><a xlink:title=" ">
<polygon fill="none" stroke="#bfbfbf" points="155.5,-0.5 155.5,-19.5 199.5,-19.5 199.5,-0.5 155.5,-0.5"/>
<text text-anchor="middle" x="177.5" y="-7.5" font-family="Helvetica,sans-Serif" font-size="10.00">time.h</text>
</a>
</g>
</g>
<!-- Node14&#45;&gt;Node17 -->
<g id="edge16" class="edge">
<title>Node14&#45;&gt;Node17</title>
<path fill="none" stroke="midnightblue" d="M989.22,-63.42C819.55,-59.13 376.44,-45.9 209.58,-19.73"/>
<polygon fill="midnightblue" stroke="midnightblue" points="210.14,-16.28 199.71,-18.11 209.01,-23.18 210.14,-16.28"/>
</g>
<!-- Node18 -->
<g id="node18" class="node">
<title>Node18</title>
<g id="a_node18"><a xlink:title=" ">
<polygon fill="none" stroke="#bfbfbf" points="218,-0.5 218,-19.5 259,-19.5 259,-0.5 218,-0.5"/>
<text text-anchor="middle" x="238.5" y="-7.5" font-family="Helvetica,sans-Serif" font-size="10.00">ctime</text>
</a>
</g>
</g>
<!-- Node14&#45;&gt;Node18 -->
<g id="edge17" class="edge">
<title>Node14&#45;&gt;Node18</title>
<path fill="none" stroke="midnightblue" d="M989.41,-63.28C828.67,-58.81 424.02,-45.54 269.51,-19.89"/>
<polygon fill="midnightblue" stroke="midnightblue" points="269.71,-16.38 259.26,-18.11 268.51,-23.27 269.71,-16.38"/>
</g>
<!-- Node19 -->
<g id="node19" class="node">
<title>Node19</title>
<g id="a_node19"><a xlink:title=" ">
<polygon fill="none" stroke="#bfbfbf" points="277,-0.5 277,-19.5 370,-19.5 370,-0.5 277,-0.5"/>
<text text-anchor="middle" x="323.5" y="-7.5" font-family="Helvetica,sans-Serif" font-size="10.00">condition_variable</text>
</a>
</g>
</g>
<!-- Node14&#45;&gt;Node19 -->
<g id="edge18" class="edge">
<title>Node14&#45;&gt;Node19</title>
<path fill="none" stroke="midnightblue" d="M989.05,-62.6C868.87,-57.86 609.62,-45.57 380.41,-19.99"/>
<polygon fill="midnightblue" stroke="midnightblue" points="380.54,-16.48 370.21,-18.84 379.75,-23.44 380.54,-16.48"/>
</g>
<!-- Node20 -->
<g id="node20" class="node">
<title>Node20</title>
<g id="a_node20"><a xlink:title=" ">
<polygon fill="none" stroke="#bfbfbf" points="388.5,-0.5 388.5,-19.5 486.5,-19.5 486.5,-0.5 388.5,-0.5"/>
<text text-anchor="middle" x="437.5" y="-7.5" font-family="Helvetica,sans-Serif" font-size="10.00">nlohmann/json.hpp</text>
</a>
</g>
</g>
<!-- Node14&#45;&gt;Node20 -->
<g id="edge19" class="edge">
<title>Node14&#45;&gt;Node20</title>
<path fill="none" stroke="midnightblue" d="M989.42,-61.23C885.93,-55.05 680.91,-41.4 496.66,-20.05"/>
<polygon fill="midnightblue" stroke="midnightblue" points="496.85,-16.55 486.51,-18.87 496.04,-23.5 496.85,-16.55"/>
</g>
<!-- Node21 -->
<g id="node21" class="node">
<title>Node21</title>
<g id="a_node21"><a xlink:title=" ">
<polygon fill="none" stroke="#bfbfbf" points="505,-0.5 505,-19.5 590,-19.5 590,-0.5 505,-0.5"/>
<text text-anchor="middle" x="547.5" y="-7.5" font-family="Helvetica,sans-Serif" font-size="10.00">source_location</text>
</a>
</g>
</g>
<!-- Node14&#45;&gt;Node21 -->
<g id="edge20" class="edge">
<title>Node14&#45;&gt;Node21</title>
<path fill="none" stroke="midnightblue" d="M989.34,-59.94C902.08,-53.01 744.82,-39.35 599.99,-19.97"/>
<polygon fill="midnightblue" stroke="midnightblue" points="600.41,-16.49 590.03,-18.62 599.47,-23.43 600.41,-16.49"/>
</g>
<!-- Node22 -->
<g id="node22" class="node">
<title>Node22</title>
<g id="a_node22"><a xlink:title=" ">
<polygon fill="none" stroke="#bfbfbf" points="608,-0.5 608,-19.5 691,-19.5 691,-0.5 608,-0.5"/>
<text text-anchor="middle" x="649.5" y="-7.5" font-family="Helvetica,sans-Serif" font-size="10.00">unordered_map</text>
</a>
</g>
</g>
<!-- Node14&#45;&gt;Node22 -->
<g id="edge21" class="edge">
<title>Node14&#45;&gt;Node22</title>
<path fill="none" stroke="midnightblue" d="M989.44,-57.51C919.94,-49.53 807.94,-36.04 701.2,-20.04"/>
<polygon fill="midnightblue" stroke="midnightblue" points="701.63,-16.57 691.22,-18.53 700.59,-23.49 701.63,-16.57"/>
</g>
<!-- Node23 -->
<g id="node23" class="node">
<title>Node23</title>
<g id="a_node23"><a xlink:title=" ">
<polygon fill="none" stroke="#bfbfbf" points="709.5,-0.5 709.5,-19.5 787.5,-19.5 787.5,-0.5 709.5,-0.5"/>
<text text-anchor="middle" x="748.5" y="-7.5" font-family="Helvetica,sans-Serif" font-size="10.00">shared_mutex</text>
</a>
</g>
</g>
<!-- Node14&#45;&gt;Node23 -->
<g id="edge22" class="edge">
<title>Node14&#45;&gt;Node23</title>
<path fill="none" stroke="midnightblue" d="M1006.13,-56.5C955.88,-47.96 876.18,-34.3 797.6,-20.18"/>
<polygon fill="midnightblue" stroke="midnightblue" points="797.99,-16.69 787.52,-18.36 796.75,-23.58 797.99,-16.69"/>
</g>
<!-- Node24 -->
<g id="node24" class="node">
<title>Node24</title>
<g id="a_node24"><a xlink:title=" ">
<polygon fill="none" stroke="#bfbfbf" points="805.5,-0.5 805.5,-19.5 863.5,-19.5 863.5,-0.5 805.5,-0.5"/>
<text text-anchor="middle" x="834.5" y="-7.5" font-family="Helvetica,sans-Serif" font-size="10.00">functional</text>
</a>
</g>
</g>
<!-- Node14&#45;&gt;Node24 -->
<g id="edge23" class="edge">
<title>Node14&#45;&gt;Node24</title>
<path fill="none" stroke="midnightblue" d="M1021.32,-56.44C981.11,-46.66 915.48,-30.7 873.67,-20.53"/>
<polygon fill="midnightblue" stroke="midnightblue" points="874.38,-17.1 863.84,-18.14 872.73,-23.9 874.38,-17.1"/>
</g>
<!-- Node25 -->
<g id="node25" class="node">
<title>Node25</title>
<g id="a_node25"><a xlink:title=" ">
<polygon fill="none" stroke="#bfbfbf" points="881.5,-0.5 881.5,-19.5 937.5,-19.5 937.5,-0.5 881.5,-0.5"/>
<text text-anchor="middle" x="909.5" y="-7.5" font-family="Helvetica,sans-Serif" font-size="10.00">coroutine</text>
</a>
</g>
</g>
<!-- Node14&#45;&gt;Node25 -->
<g id="edge24" class="edge">
<title>Node14&#45;&gt;Node25</title>
<path fill="none" stroke="midnightblue" d="M1033.21,-56.44C1008.69,-47.44 969.9,-33.19 942.3,-23.05"/>
<polygon fill="midnightblue" stroke="midnightblue" points="943.28,-19.68 932.68,-19.52 940.86,-26.25 943.28,-19.68"/>
</g>
<!-- Node14&#45;&gt;Node26 -->
<g id="edge25" class="edge">
<title>Node14&#45;&gt;Node26</title>
<path fill="none" stroke="midnightblue" d="M1123.73,-63.69C1241.51,-60.67 1492.9,-51.04 1713.75,-20.05"/>
<polygon fill="midnightblue" stroke="midnightblue" points="1714.5,-23.48 1723.91,-18.61 1713.51,-16.55 1714.5,-23.48"/>
</g>
<!-- Node27 -->
<g id="node27" class="node">
<title>Node27</title>
<g id="a_node27"><a xlink:title=" ">
<polygon fill="none" stroke="#bfbfbf" points="955.5,-0.5 955.5,-19.5 1011.5,-19.5 1011.5,-0.5 955.5,-0.5"/>
<text text-anchor="middle" x="983.5" y="-7.5" font-family="Helvetica,sans-Serif" font-size="10.00">concepts</text>
</a>
</g>
</g>
<!-- Node14&#45;&gt;Node27 -->
<g id="edge26" class="edge">
<title>Node14&#45;&gt;Node27</title>
<path fill="none" stroke="midnightblue" d="M1044.77,-56.32C1033.66,-48.11 1016.76,-35.6 1003.52,-25.81"/>
<polygon fill="midnightblue" stroke="midnightblue" points="1005.56,-22.97 995.44,-19.83 1001.4,-28.59 1005.56,-22.97"/>
</g>
<!-- Node28 -->
<g id="node28" class="node">
<title>Node28</title>
<g id="a_node28"><a xlink:title=" ">
<polygon fill="none" stroke="#bfbfbf" points="1029.5,-0.5 1029.5,-19.5 1083.5,-19.5 1083.5,-0.5 1029.5,-0.5"/>
<text text-anchor="middle" x="1056.5" y="-7.5" font-family="Helvetica,sans-Serif" font-size="10.00">iostream</text>
</a>
</g>
</g>
<!-- Node14&#45;&gt;Node28 -->
<g id="edge27" class="edge">
<title>Node14&#45;&gt;Node28</title>
<path fill="none" stroke="midnightblue" d="M1056.5,-56.08C1056.5,-49.01 1056.5,-38.86 1056.5,-29.99"/>
<polygon fill="midnightblue" stroke="midnightblue" points="1060,-29.75 1056.5,-19.75 1053,-29.75 1060,-29.75"/>
</g>
<!-- Node29 -->
<g id="node29" class="node">
<title>Node29</title>
<g id="a_node29"><a xlink:title=" ">
<polygon fill="none" stroke="#bfbfbf" points="1102,-0.5 1102,-19.5 1151,-19.5 1151,-0.5 1102,-0.5"/>
<text text-anchor="middle" x="1126.5" y="-7.5" font-family="Helvetica,sans-Serif" font-size="10.00">fstream</text>
</a>
</g>
</g>
<!-- Node14&#45;&gt;Node29 -->
<g id="edge28" class="edge">
<title>Node14&#45;&gt;Node29</title>
<path fill="none" stroke="midnightblue" d="M1067.75,-56.32C1078.3,-48.18 1094.3,-35.84 1106.94,-26.09"/>
<polygon fill="midnightblue" stroke="midnightblue" points="1109.27,-28.71 1115.05,-19.83 1104.99,-23.17 1109.27,-28.71"/>
</g>
<!-- Node30 -->
<g id="node30" class="node">
<title>Node30</title>
<g id="a_node30"><a xlink:title=" ">
<polygon fill="none" stroke="#bfbfbf" points="1169,-0.5 1169,-19.5 1210,-19.5 1210,-0.5 1169,-0.5"/>
<text text-anchor="middle" x="1189.5" y="-7.5" font-family="Helvetica,sans-Serif" font-size="10.00">bitset</text>
</a>
</g>
</g>
<!-- Node14&#45;&gt;Node30 -->
<g id="edge29" class="edge">
<title>Node14&#45;&gt;Node30</title>
<path fill="none" stroke="midnightblue" d="M1077.57,-56.44C1099.69,-47.46 1134.64,-33.27 1159.6,-23.14"/>
<polygon fill="midnightblue" stroke="midnightblue" points="1161.01,-26.34 1168.96,-19.34 1158.38,-19.86 1161.01,-26.34"/>
</g>
<!-- Node31 -->
<g id="node31" class="node">
<title>Node31</title>
<g id="a_node31"><a xlink:title=" ">
<polygon fill="none" stroke="#bfbfbf" points="1228.5,-0.5 1228.5,-19.5 1280.5,-19.5 1280.5,-0.5 1228.5,-0.5"/>
<text text-anchor="middle" x="1254.5" y="-7.5" font-family="Helvetica,sans-Serif" font-size="10.00">memory</text>
</a>
</g>
</g>
<!-- Node14&#45;&gt;Node31 -->
<g id="edge30" class="edge">
<title>Node14&#45;&gt;Node31</title>
<path fill="none" stroke="midnightblue" d="M1087.87,-56.44C1123.36,-46.77 1181.04,-31.03 1218.38,-20.85"/>
<polygon fill="midnightblue" stroke="midnightblue" points="1219.6,-24.14 1228.33,-18.14 1217.76,-17.39 1219.6,-24.14"/>
</g>
<!-- Node32 -->
<g id="node32" class="node">
<title>Node32</title>
<g id="a_node32"><a xlink:title=" ">
<polygon fill="none" stroke="#bfbfbf" points="1299,-0.5 1299,-19.5 1348,-19.5 1348,-0.5 1299,-0.5"/>
<text text-anchor="middle" x="1323.5" y="-7.5" font-family="Helvetica,sans-Serif" font-size="10.00">random</text>
</a>
</g>
</g>
<!-- Node14&#45;&gt;Node32 -->
<g id="edge31" class="edge">
<title>Node14&#45;&gt;Node32</title>
<path fill="none" stroke="midnightblue" d="M1105.8,-56.48C1150.88,-48.47 1219.63,-35.69 1288.51,-20.1"/>
<polygon fill="midnightblue" stroke="midnightblue" points="1289.7,-23.42 1298.67,-17.78 1288.14,-16.6 1289.7,-23.42"/>
</g>
<!-- Node33 -->
<g id="node33" class="node">
<title>Node33</title>
<g id="a_node33"><a xlink:title=" ">
<polygon fill="none" stroke="#bfbfbf" points="1366,-0.5 1366,-19.5 1407,-19.5 1407,-0.5 1366,-0.5"/>
<text text-anchor="middle" x="1386.5" y="-7.5" font-family="Helvetica,sans-Serif" font-size="10.00">string</text>
</a>
</g>
</g>
<!-- Node14&#45;&gt;Node33 -->
<g id="edge32" class="edge">
<title>Node14&#45;&gt;Node33</title>
<path fill="none" stroke="midnightblue" d="M1123.7,-57.93C1182.78,-51.04 1271.19,-39.09 1355.92,-20.1"/>
<polygon fill="midnightblue" stroke="midnightblue" points="1356.72,-23.51 1365.69,-17.87 1355.17,-16.68 1356.72,-23.51"/>
</g>
<!-- Node34 -->
<g id="node34" class="node">
<title>Node34</title>
<g id="a_node34"><a xlink:title=" ">
<polygon fill="none" stroke="#bfbfbf" points="1425.5,-0.5 1425.5,-19.5 1467.5,-19.5 1467.5,-0.5 1425.5,-0.5"/>
<text text-anchor="middle" x="1446.5" y="-7.5" font-family="Helvetica,sans-Serif" font-size="10.00">vector</text>
</a>
</g>
</g>
<!-- Node14&#45;&gt;Node34 -->
<g id="edge33" class="edge">
<title>Node14&#45;&gt;Node34</title>
<path fill="none" stroke="midnightblue" d="M1123.74,-59.97C1194.27,-53.94 1308.41,-42.04 1415.32,-19.94"/>
<polygon fill="midnightblue" stroke="midnightblue" points="1416.24,-23.32 1425.31,-17.84 1414.8,-16.47 1416.24,-23.32"/>
</g>
<!-- Node35 -->
<g id="node35" class="node">
<title>Node35</title>
<g id="a_node35"><a xlink:title=" ">
<polygon fill="none" stroke="#bfbfbf" points="1485.5,-0.5 1485.5,-19.5 1529.5,-19.5 1529.5,-0.5 1485.5,-0.5"/>
<text text-anchor="middle" x="1507.5" y="-7.5" font-family="Helvetica,sans-Serif" font-size="10.00">thread</text>
</a>
</g>
</g>
<!-- Node14&#45;&gt;Node35 -->
<g id="edge34" class="edge">
<title>Node14&#45;&gt;Node35</title>
<path fill="none" stroke="midnightblue" d="M1123.6,-61.46C1204.86,-56.35 1345.9,-44.89 1475.18,-19.94"/>
<polygon fill="midnightblue" stroke="midnightblue" points="1476.13,-23.32 1485.26,-17.96 1474.78,-16.45 1476.13,-23.32"/>
</g>
<!-- Node36 -->
<g id="node36" class="node">
<title>Node36</title>
<g id="a_node36"><a xlink:title=" ">
<polygon fill="none" stroke="#bfbfbf" points="1547.5,-0.5 1547.5,-19.5 1591.5,-19.5 1591.5,-0.5 1547.5,-0.5"/>
<text text-anchor="middle" x="1569.5" y="-7.5" font-family="Helvetica,sans-Serif" font-size="10.00">mutex</text>
</a>
</g>
</g>
<!-- Node14&#45;&gt;Node36 -->
<g id="edge35" class="edge">
<title>Node14&#45;&gt;Node36</title>
<path fill="none" stroke="midnightblue" d="M1123.72,-62.74C1215.38,-58.77 1384.68,-48.28 1537.25,-19.9"/>
<polygon fill="midnightblue" stroke="midnightblue" points="1538.1,-23.3 1547.27,-18 1536.8,-16.42 1538.1,-23.3"/>
</g>
<!-- Node37 -->
<g id="node37" class="node">
<title>Node37</title>
<g id="a_node37"><a xlink:title=" ">
<polygon fill="none" stroke="#bfbfbf" points="1610,-0.5 1610,-19.5 1653,-19.5 1653,-0.5 1610,-0.5"/>
<text text-anchor="middle" x="1631.5" y="-7.5" font-family="Helvetica,sans-Serif" font-size="10.00">queue</text>
</a>
</g>
</g>
<!-- Node14&#45;&gt;Node37 -->
<g id="edge36" class="edge">
<title>Node14&#45;&gt;Node37</title>
<path fill="none" stroke="midnightblue" d="M1123.64,-63.75C1225.01,-60.93 1423.13,-51.7 1599.95,-19.69"/>
<polygon fill="midnightblue" stroke="midnightblue" points="1600.75,-23.1 1609.95,-17.85 1599.48,-16.22 1600.75,-23.1"/>
</g>
<!-- Node38 -->
<g id="node38" class="node">
<title>Node38</title>
<g id="a_node38"><a xlink:title=" ">
<polygon fill="none" stroke="#bfbfbf" points="1671,-0.5 1671,-19.5 1706,-19.5 1706,-0.5 1671,-0.5"/>
<text text-anchor="middle" x="1688.5" y="-7.5" font-family="Helvetica,sans-Serif" font-size="10.00">map</text>
</a>
</g>
</g>
<!-- Node14&#45;&gt;Node38 -->
<g id="edge37" class="edge">
<title>Node14&#45;&gt;Node38</title>
<path fill="none" stroke="midnightblue" d="M1123.64,-65.65C1234.38,-65.5 1462.09,-59.99 1660.73,-19.88"/>
<polygon fill="midnightblue" stroke="midnightblue" points="1661.68,-23.26 1670.77,-17.82 1660.27,-16.4 1661.68,-23.26"/>
</g>
<!-- Node39&#45;&gt;Node13 -->
<g id="edge39" class="edge">
<title>Node39&#45;&gt;Node13</title>
<path fill="none" stroke="midnightblue" d="M1299.17,-179.48C1284.2,-171.15 1260.92,-158.21 1241.57,-147.45"/>
<polygon fill="midnightblue" stroke="midnightblue" points="1243.16,-144.32 1232.72,-142.52 1239.76,-150.44 1243.16,-144.32"/>
</g>
</g>
</svg>
