<?xml version="1.0" encoding="UTF-8" standalone="no"?>
<!DOCTYPE svg PUBLIC "-//W3C//DTD SVG 1.1//EN"
 "http://www.w3.org/Graphics/SVG/1.1/DTD/svg11.dtd">
<!-- Generated by graphviz version 2.43.0 (0)
 -->
<!-- Title: YouTubeAPI.hpp Pages: 1 -->
<svg width="2408pt" height="478pt"
 viewBox="0.00 0.00 2408.00 478.00" xmlns="http://www.w3.org/2000/svg" xmlns:xlink="http://www.w3.org/1999/xlink">
<g id="graph0" class="graph" transform="scale(1 1) rotate(0) translate(4 474)">
<title>YouTubeAPI.hpp</title>
<!-- Node1 -->
<g id="node1" class="node">
<title>Node1</title>
<g id="a_node1"><a xlink:title=" ">
<polygon fill="#bfbfbf" stroke="black" points="954.5,-470 862.5,-470 862.5,-451 954.5,-451 954.5,-470"/>
<text text-anchor="middle" x="908.5" y="-458" font-family="Helvetica,sans-Serif" font-size="10.00">YouTubeAPI.hpp</text>
</a>
</g>
</g>
<!-- Node2 -->
<g id="node2" class="node">
<title>Node2</title>
<g id="a_node2"><a xlink:href="../../d1/d87/a00689.html" target="_top" xlink:title=" ">
<polygon fill="none" stroke="black" points="1152,-140 1007,-140 1007,-110 1152,-110 1152,-140"/>
<text text-anchor="start" x="1015" y="-128" font-family="Helvetica,sans-Serif" font-size="10.00">discordcoreapi/Foundation</text>
<text text-anchor="middle" x="1079.5" y="-117" font-family="Helvetica,sans-Serif" font-size="10.00">Entities.hpp</text>
</a>
</g>
</g>
<!-- Node1&#45;&gt;Node2 -->
<g id="edge1" class="edge">
<title>Node1&#45;&gt;Node2</title>
<path fill="none" stroke="midnightblue" d="M862.42,-454.92C768.03,-444.26 561.5,-413.8 561.5,-351.5 561.5,-351.5 561.5,-351.5 561.5,-239.5 561.5,-203.85 579.39,-193.4 610.5,-176 674.67,-140.11 879.6,-129.97 996.23,-127.11"/>
<polygon fill="midnightblue" stroke="midnightblue" points="996.62,-130.6 1006.54,-126.87 996.46,-123.61 996.62,-130.6"/>
</g>
<!-- Node27 -->
<g id="node27" class="node">
<title>Node27</title>
<g id="a_node27"><a xlink:href="../../d5/de8/a00749.html" target="_top" xlink:title=" ">
<polygon fill="none" stroke="black" points="935,-250 756,-250 756,-231 935,-231 935,-250"/>
<text text-anchor="middle" x="845.5" y="-238" font-family="Helvetica,sans-Serif" font-size="10.00">discordcoreapi/AudioDecoder.hpp</text>
</a>
</g>
</g>
<!-- Node1&#45;&gt;Node27 -->
<g id="edge26" class="edge">
<title>Node1&#45;&gt;Node27</title>
<path fill="none" stroke="midnightblue" d="M899.47,-450.86C891.31,-442.5 879.66,-429.04 873.5,-415 850.47,-362.49 846.17,-293.58 845.5,-260.64"/>
<polygon fill="midnightblue" stroke="midnightblue" points="849,-260.2 845.39,-250.23 842,-260.27 849,-260.2"/>
</g>
<!-- Node31 -->
<g id="node31" class="node">
<title>Node31</title>
<g id="a_node31"><a xlink:href="../../df/df7/a00731.html" target="_top" xlink:title=" ">
<polygon fill="none" stroke="black" points="2385.5,-415 2207.5,-415 2207.5,-396 2385.5,-396 2385.5,-415"/>
<text text-anchor="middle" x="2296.5" y="-403" font-family="Helvetica,sans-Serif" font-size="10.00">discordcoreapi/AudioEncoder.hpp</text>
</a>
</g>
</g>
<!-- Node1&#45;&gt;Node31 -->
<g id="edge32" class="edge">
<title>Node1&#45;&gt;Node31</title>
<path fill="none" stroke="midnightblue" d="M954.68,-457.74C1151.34,-450.23 1921.53,-420.82 2197.47,-410.28"/>
<polygon fill="midnightblue" stroke="midnightblue" points="2197.61,-413.78 2207.47,-409.9 2197.35,-406.78 2197.61,-413.78"/>
</g>
<!-- Node33 -->
<g id="node33" class="node">
<title>Node33</title>
<g id="a_node33"><a xlink:href="../../db/d77/a00683.html" target="_top" xlink:title=" ">
<polygon fill="none" stroke="black" points="1044.5,-415 882.5,-415 882.5,-396 1044.5,-396 1044.5,-415"/>
<text text-anchor="middle" x="963.5" y="-403" font-family="Helvetica,sans-Serif" font-size="10.00">discordcoreapi/CoRoutine.hpp</text>
</a>
</g>
</g>
<!-- Node1&#45;&gt;Node33 -->
<g id="edge35" class="edge">
<title>Node1&#45;&gt;Node33</title>
<path fill="none" stroke="midnightblue" d="M917.58,-450.75C925.59,-443.03 937.46,-431.6 947.12,-422.28"/>
<polygon fill="midnightblue" stroke="midnightblue" points="949.81,-424.55 954.59,-415.09 944.96,-419.51 949.81,-424.55"/>
</g>
<!-- Node3 -->
<g id="node3" class="node">
<title>Node3</title>
<g id="a_node3"><a xlink:href="../../d4/deb/a00710.html" target="_top" xlink:title=" ">
<polygon fill="none" stroke="black" points="1154.5,-74 1004.5,-74 1004.5,-55 1154.5,-55 1154.5,-74"/>
<text text-anchor="middle" x="1079.5" y="-62" font-family="Helvetica,sans-Serif" font-size="10.00">discordcoreapi/Utilities.hpp</text>
</a>
</g>
</g>
<!-- Node2&#45;&gt;Node3 -->
<g id="edge2" class="edge">
<title>Node2&#45;&gt;Node3</title>
<path fill="none" stroke="midnightblue" d="M1079.5,-109.84C1079.5,-102.21 1079.5,-92.7 1079.5,-84.45"/>
<polygon fill="midnightblue" stroke="midnightblue" points="1083,-84.27 1079.5,-74.27 1076,-84.27 1083,-84.27"/>
</g>
<!-- Node4 -->
<g id="node4" class="node">
<title>Node4</title>
<g id="a_node4"><a xlink:title=" ">
<polygon fill="none" stroke="#bfbfbf" points="63,-19 0,-19 0,0 63,0 63,-19"/>
<text text-anchor="middle" x="31.5" y="-7" font-family="Helvetica,sans-Serif" font-size="10.00">pthread.h</text>
</a>
</g>
</g>
<!-- Node3&#45;&gt;Node4 -->
<g id="edge3" class="edge">
<title>Node3&#45;&gt;Node4</title>
<path fill="none" stroke="midnightblue" d="M1004.31,-64.28C838.04,-65.12 426.64,-62.31 73.37,-18.86"/>
<polygon fill="midnightblue" stroke="midnightblue" points="73.56,-15.36 63.2,-17.6 72.69,-22.3 73.56,-15.36"/>
</g>
<!-- Node5 -->
<g id="node5" class="node">
<title>Node5</title>
<g id="a_node5"><a xlink:title=" ">
<polygon fill="none" stroke="#bfbfbf" points="149.5,-19 81.5,-19 81.5,0 149.5,0 149.5,-19"/>
<text text-anchor="middle" x="115.5" y="-7" font-family="Helvetica,sans-Serif" font-size="10.00">sys/time.h</text>
</a>
</g>
</g>
<!-- Node3&#45;&gt;Node5 -->
<g id="edge4" class="edge">
<title>Node3&#45;&gt;Node5</title>
<path fill="none" stroke="midnightblue" d="M1004.27,-63.6C848.44,-62.99 478.98,-57.34 160.07,-18.99"/>
<polygon fill="midnightblue" stroke="midnightblue" points="160.04,-15.46 149.69,-17.73 159.2,-22.41 160.04,-15.46"/>
</g>
<!-- Node6 -->
<g id="node6" class="node">
<title>Node6</title>
<g id="a_node6"><a xlink:title=" ">
<polygon fill="none" stroke="#bfbfbf" points="215.5,-19 167.5,-19 167.5,0 215.5,0 215.5,-19"/>
<text text-anchor="middle" x="191.5" y="-7" font-family="Helvetica,sans-Serif" font-size="10.00">time.h</text>
</a>
</g>
</g>
<!-- Node3&#45;&gt;Node6 -->
<g id="edge5" class="edge">
<title>Node3&#45;&gt;Node6</title>
<path fill="none" stroke="midnightblue" d="M1004.24,-61.52C828.11,-56.56 392.09,-42.46 225.63,-18.78"/>
<polygon fill="midnightblue" stroke="midnightblue" points="225.94,-15.29 215.54,-17.28 224.91,-22.21 225.94,-15.29"/>
</g>
<!-- Node7 -->
<g id="node7" class="node">
<title>Node7</title>
<g id="a_node7"><a xlink:title=" ">
<polygon fill="none" stroke="#bfbfbf" points="277.5,-19 233.5,-19 233.5,0 277.5,0 277.5,-19"/>
<text text-anchor="middle" x="255.5" y="-7" font-family="Helvetica,sans-Serif" font-size="10.00">ctime</text>
</a>
</g>
</g>
<!-- Node3&#45;&gt;Node7 -->
<g id="edge6" class="edge">
<title>Node3&#45;&gt;Node7</title>
<path fill="none" stroke="midnightblue" d="M1004.36,-61.31C837.95,-56.15 441.6,-41.99 287.93,-18.81"/>
<polygon fill="midnightblue" stroke="midnightblue" points="288.15,-15.3 277.73,-17.2 287.06,-22.22 288.15,-15.3"/>
</g>
<!-- Node8 -->
<g id="node8" class="node">
<title>Node8</title>
<g id="a_node8"><a xlink:title=" ">
<polygon fill="none" stroke="#bfbfbf" points="403,-19 296,-19 296,0 403,0 403,-19"/>
<text text-anchor="middle" x="349.5" y="-7" font-family="Helvetica,sans-Serif" font-size="10.00">condition_variable</text>
</a>
</g>
</g>
<!-- Node3&#45;&gt;Node8 -->
<g id="edge7" class="edge">
<title>Node3&#45;&gt;Node8</title>
<path fill="none" stroke="midnightblue" d="M1004.34,-60.14C882.56,-54.34 634.36,-40.98 413.26,-19"/>
<polygon fill="midnightblue" stroke="midnightblue" points="413.39,-15.5 403.09,-17.98 412.69,-22.46 413.39,-15.5"/>
</g>
<!-- Node9 -->
<g id="node9" class="node">
<title>Node9</title>
<g id="a_node9"><a xlink:title=" ">
<polygon fill="none" stroke="#bfbfbf" points="531.5,-19 421.5,-19 421.5,0 531.5,0 531.5,-19"/>
<text text-anchor="middle" x="476.5" y="-7" font-family="Helvetica,sans-Serif" font-size="10.00">nlohmann/json.hpp</text>
</a>
</g>
</g>
<!-- Node3&#45;&gt;Node9 -->
<g id="edge8" class="edge">
<title>Node3&#45;&gt;Node9</title>
<path fill="none" stroke="midnightblue" d="M1004.4,-58.48C902.13,-51.39 713.11,-37.33 541.6,-19.07"/>
<polygon fill="midnightblue" stroke="midnightblue" points="541.95,-15.59 531.64,-18 541.21,-22.55 541.95,-15.59"/>
</g>
<!-- Node10 -->
<g id="node10" class="node">
<title>Node10</title>
<g id="a_node10"><a xlink:title=" ">
<polygon fill="none" stroke="#bfbfbf" points="643,-19 550,-19 550,0 643,0 643,-19"/>
<text text-anchor="middle" x="596.5" y="-7" font-family="Helvetica,sans-Serif" font-size="10.00">source_location</text>
</a>
</g>
</g>
<!-- Node3&#45;&gt;Node10 -->
<g id="edge9" class="edge">
<title>Node3&#45;&gt;Node10</title>
<path fill="none" stroke="midnightblue" d="M1004.37,-56.83C920.98,-49.17 782.13,-35.64 653.33,-19.18"/>
<polygon fill="midnightblue" stroke="midnightblue" points="653.65,-15.7 643.29,-17.89 652.76,-22.64 653.65,-15.7"/>
</g>
<!-- Node11 -->
<g id="node11" class="node">
<title>Node11</title>
<g id="a_node11"><a xlink:title=" ">
<polygon fill="none" stroke="#bfbfbf" points="754,-19 661,-19 661,0 754,0 754,-19"/>
<text text-anchor="middle" x="707.5" y="-7" font-family="Helvetica,sans-Serif" font-size="10.00">unordered_map</text>
</a>
</g>
</g>
<!-- Node3&#45;&gt;Node11 -->
<g id="edge10" class="edge">
<title>Node3&#45;&gt;Node11</title>
<path fill="none" stroke="midnightblue" d="M1017.71,-55C956.17,-46.49 858.7,-32.88 764.26,-19.1"/>
<polygon fill="midnightblue" stroke="midnightblue" points="764.65,-15.62 754.25,-17.63 763.63,-22.54 764.65,-15.62"/>
</g>
<!-- Node12 -->
<g id="node12" class="node">
<title>Node12</title>
<g id="a_node12"><a xlink:title=" ">
<polygon fill="none" stroke="#bfbfbf" points="858.5,-19 772.5,-19 772.5,0 858.5,0 858.5,-19"/>
<text text-anchor="middle" x="815.5" y="-7" font-family="Helvetica,sans-Serif" font-size="10.00">shared_mutex</text>
</a>
</g>
</g>
<!-- Node3&#45;&gt;Node12 -->
<g id="edge11" class="edge">
<title>Node3&#45;&gt;Node12</title>
<path fill="none" stroke="midnightblue" d="M1037.08,-54.98C991.13,-45.76 917.75,-31.03 868.15,-21.07"/>
<polygon fill="midnightblue" stroke="midnightblue" points="868.74,-17.62 858.25,-19.08 867.36,-24.48 868.74,-17.62"/>
</g>
<!-- Node13 -->
<g id="node13" class="node">
<title>Node13</title>
<g id="a_node13"><a xlink:title=" ">
<polygon fill="none" stroke="#bfbfbf" points="942,-19 877,-19 877,0 942,0 942,-19"/>
<text text-anchor="middle" x="909.5" y="-7" font-family="Helvetica,sans-Serif" font-size="10.00">functional</text>
</a>
</g>
</g>
<!-- Node3&#45;&gt;Node13 -->
<g id="edge12" class="edge">
<title>Node3&#45;&gt;Node13</title>
<path fill="none" stroke="midnightblue" d="M1052.19,-54.98C1023.65,-46.09 978.67,-32.07 946.86,-22.15"/>
<polygon fill="midnightblue" stroke="midnightblue" points="947.62,-18.72 937.03,-19.08 945.53,-25.4 947.62,-18.72"/>
</g>
<!-- Node14 -->
<g id="node14" class="node">
<title>Node14</title>
<g id="a_node14"><a xlink:title=" ">
<polygon fill="none" stroke="#bfbfbf" points="1031,-19 960,-19 960,0 1031,0 1031,-19"/>
<text text-anchor="middle" x="995.5" y="-7" font-family="Helvetica,sans-Serif" font-size="10.00">semaphore</text>
</a>
</g>
</g>
<!-- Node3&#45;&gt;Node14 -->
<g id="edge13" class="edge">
<title>Node3&#45;&gt;Node14</title>
<path fill="none" stroke="midnightblue" d="M1066,-54.98C1053.1,-46.84 1033.4,-34.41 1018.1,-24.76"/>
<polygon fill="midnightblue" stroke="midnightblue" points="1019.57,-21.55 1009.24,-19.17 1015.83,-27.47 1019.57,-21.55"/>
</g>
<!-- Node15 -->
<g id="node15" class="node">
<title>Node15</title>
<g id="a_node15"><a xlink:title=" ">
<polygon fill="none" stroke="#bfbfbf" points="1109.5,-19 1049.5,-19 1049.5,0 1109.5,0 1109.5,-19"/>
<text text-anchor="middle" x="1079.5" y="-7" font-family="Helvetica,sans-Serif" font-size="10.00">concepts</text>
</a>
</g>
</g>
<!-- Node3&#45;&gt;Node15 -->
<g id="edge14" class="edge">
<title>Node3&#45;&gt;Node15</title>
<path fill="none" stroke="midnightblue" d="M1079.5,-54.75C1079.5,-47.8 1079.5,-37.85 1079.5,-29.13"/>
<polygon fill="midnightblue" stroke="midnightblue" points="1083,-29.09 1079.5,-19.09 1076,-29.09 1083,-29.09"/>
</g>
<!-- Node16 -->
<g id="node16" class="node">
<title>Node16</title>
<g id="a_node16"><a xlink:title=" ">
<polygon fill="none" stroke="#bfbfbf" points="1187.5,-19 1127.5,-19 1127.5,0 1187.5,0 1187.5,-19"/>
<text text-anchor="middle" x="1157.5" y="-7" font-family="Helvetica,sans-Serif" font-size="10.00">iostream</text>
</a>
</g>
</g>
<!-- Node3&#45;&gt;Node16 -->
<g id="edge15" class="edge">
<title>Node3&#45;&gt;Node16</title>
<path fill="none" stroke="midnightblue" d="M1092.03,-54.98C1103.9,-46.92 1121.96,-34.65 1136.11,-25.03"/>
<polygon fill="midnightblue" stroke="midnightblue" points="1138.44,-27.69 1144.74,-19.17 1134.5,-21.9 1138.44,-27.69"/>
</g>
<!-- Node17 -->
<g id="node17" class="node">
<title>Node17</title>
<g id="a_node17"><a xlink:title=" ">
<polygon fill="none" stroke="#bfbfbf" points="1261,-19 1206,-19 1206,0 1261,0 1261,-19"/>
<text text-anchor="middle" x="1233.5" y="-7" font-family="Helvetica,sans-Serif" font-size="10.00">fstream</text>
</a>
</g>
</g>
<!-- Node3&#45;&gt;Node17 -->
<g id="edge16" class="edge">
<title>Node3&#45;&gt;Node17</title>
<path fill="none" stroke="midnightblue" d="M1104.24,-54.98C1129.87,-46.16 1170.13,-32.31 1198.91,-22.41"/>
<polygon fill="midnightblue" stroke="midnightblue" points="1200.25,-25.65 1208.56,-19.08 1197.97,-19.03 1200.25,-25.65"/>
</g>
<!-- Node18 -->
<g id="node18" class="node">
<title>Node18</title>
<g id="a_node18"><a xlink:title=" ">
<polygon fill="none" stroke="#bfbfbf" points="1323.5,-19 1279.5,-19 1279.5,0 1323.5,0 1323.5,-19"/>
<text text-anchor="middle" x="1301.5" y="-7" font-family="Helvetica,sans-Serif" font-size="10.00">bitset</text>
</a>
</g>
</g>
<!-- Node3&#45;&gt;Node18 -->
<g id="edge17" class="edge">
<title>Node3&#45;&gt;Node18</title>
<path fill="none" stroke="midnightblue" d="M1117.43,-54.96C1155.84,-46.24 1216.91,-32.14 1269.5,-19 1269.6,-18.97 1269.7,-18.95 1269.8,-18.92"/>
<polygon fill="midnightblue" stroke="midnightblue" points="1270.67,-22.31 1279.49,-16.44 1268.93,-15.53 1270.67,-22.31"/>
</g>
<!-- Node19 -->
<g id="node19" class="node">
<title>Node19</title>
<g id="a_node19"><a xlink:title=" ">
<polygon fill="none" stroke="#bfbfbf" points="1399.5,-19 1341.5,-19 1341.5,0 1399.5,0 1399.5,-19"/>
<text text-anchor="middle" x="1370.5" y="-7" font-family="Helvetica,sans-Serif" font-size="10.00">memory</text>
</a>
</g>
</g>
<!-- Node3&#45;&gt;Node19 -->
<g id="edge18" class="edge">
<title>Node3&#45;&gt;Node19</title>
<path fill="none" stroke="midnightblue" d="M1131.96,-55C1181.02,-46.88 1256.56,-33.97 1331.41,-19.14"/>
<polygon fill="midnightblue" stroke="midnightblue" points="1332.36,-22.52 1341.48,-17.13 1330.99,-15.66 1332.36,-22.52"/>
</g>
<!-- Node20 -->
<g id="node20" class="node">
<title>Node20</title>
<g id="a_node20"><a xlink:title=" ">
<polygon fill="none" stroke="#bfbfbf" points="1471.5,-19 1417.5,-19 1417.5,0 1471.5,0 1471.5,-19"/>
<text text-anchor="middle" x="1444.5" y="-7" font-family="Helvetica,sans-Serif" font-size="10.00">random</text>
</a>
</g>
</g>
<!-- Node3&#45;&gt;Node20 -->
<g id="edge19" class="edge">
<title>Node3&#45;&gt;Node20</title>
<path fill="none" stroke="midnightblue" d="M1154.64,-55.45C1219.18,-48.05 1314.91,-35.92 1407.34,-19.05"/>
<polygon fill="midnightblue" stroke="midnightblue" points="1408.24,-22.45 1417.43,-17.19 1406.96,-15.56 1408.24,-22.45"/>
</g>
<!-- Node21 -->
<g id="node21" class="node">
<title>Node21</title>
<g id="a_node21"><a xlink:title=" ">
<polygon fill="none" stroke="#bfbfbf" points="1533.5,-19 1489.5,-19 1489.5,0 1533.5,0 1533.5,-19"/>
<text text-anchor="middle" x="1511.5" y="-7" font-family="Helvetica,sans-Serif" font-size="10.00">string</text>
</a>
</g>
</g>
<!-- Node3&#45;&gt;Node21 -->
<g id="edge20" class="edge">
<title>Node3&#45;&gt;Node21</title>
<path fill="none" stroke="midnightblue" d="M1154.67,-58.7C1233.43,-52.87 1360.82,-41.19 1479.28,-18.95"/>
<polygon fill="midnightblue" stroke="midnightblue" points="1480.08,-22.36 1489.25,-17.05 1478.77,-15.49 1480.08,-22.36"/>
</g>
<!-- Node22 -->
<g id="node22" class="node">
<title>Node22</title>
<g id="a_node22"><a xlink:title=" ">
<polygon fill="none" stroke="#bfbfbf" points="1599,-19 1552,-19 1552,0 1599,0 1599,-19"/>
<text text-anchor="middle" x="1575.5" y="-7" font-family="Helvetica,sans-Serif" font-size="10.00">vector</text>
</a>
</g>
</g>
<!-- Node3&#45;&gt;Node22 -->
<g id="edge21" class="edge">
<title>Node3&#45;&gt;Node22</title>
<path fill="none" stroke="midnightblue" d="M1154.56,-59.9C1244.39,-54.78 1399.42,-43.38 1541.59,-18.86"/>
<polygon fill="midnightblue" stroke="midnightblue" points="1542.56,-22.25 1551.8,-17.08 1541.35,-15.35 1542.56,-22.25"/>
</g>
<!-- Node23 -->
<g id="node23" class="node">
<title>Node23</title>
<g id="a_node23"><a xlink:title=" ">
<polygon fill="none" stroke="#bfbfbf" points="1665.5,-19 1617.5,-19 1617.5,0 1665.5,0 1665.5,-19"/>
<text text-anchor="middle" x="1641.5" y="-7" font-family="Helvetica,sans-Serif" font-size="10.00">thread</text>
</a>
</g>
</g>
<!-- Node3&#45;&gt;Node23 -->
<g id="edge22" class="edge">
<title>Node3&#45;&gt;Node23</title>
<path fill="none" stroke="midnightblue" d="M1154.73,-60.97C1257.57,-56.64 1447.55,-45.56 1607.5,-19 1607.6,-18.98 1607.7,-18.97 1607.8,-18.95"/>
<polygon fill="midnightblue" stroke="midnightblue" points="1608.33,-22.41 1617.45,-17.02 1606.96,-15.55 1608.33,-22.41"/>
</g>
<!-- Node24 -->
<g id="node24" class="node">
<title>Node24</title>
<g id="a_node24"><a xlink:title=" ">
<polygon fill="none" stroke="#bfbfbf" points="1731.5,-19 1683.5,-19 1683.5,0 1731.5,0 1731.5,-19"/>
<text text-anchor="middle" x="1707.5" y="-7" font-family="Helvetica,sans-Serif" font-size="10.00">mutex</text>
</a>
</g>
</g>
<!-- Node3&#45;&gt;Node24 -->
<g id="edge23" class="edge">
<title>Node3&#45;&gt;Node24</title>
<path fill="none" stroke="midnightblue" d="M1154.68,-62.14C1266.12,-59.19 1481.72,-49.86 1673.47,-18.86"/>
<polygon fill="midnightblue" stroke="midnightblue" points="1674.15,-22.29 1683.45,-17.22 1673.02,-15.38 1674.15,-22.29"/>
</g>
<!-- Node25 -->
<g id="node25" class="node">
<title>Node25</title>
<g id="a_node25"><a xlink:title=" ">
<polygon fill="none" stroke="#bfbfbf" points="1797,-19 1750,-19 1750,0 1797,0 1797,-19"/>
<text text-anchor="middle" x="1773.5" y="-7" font-family="Helvetica,sans-Serif" font-size="10.00">queue</text>
</a>
</g>
</g>
<!-- Node3&#45;&gt;Node25 -->
<g id="edge24" class="edge">
<title>Node3&#45;&gt;Node25</title>
<path fill="none" stroke="midnightblue" d="M1154.85,-62.94C1276.23,-61.05 1522.54,-53.12 1739.82,-18.76"/>
<polygon fill="midnightblue" stroke="midnightblue" points="1740.5,-22.2 1749.82,-17.16 1739.39,-15.29 1740.5,-22.2"/>
</g>
<!-- Node26 -->
<g id="node26" class="node">
<title>Node26</title>
<g id="a_node26"><a xlink:title=" ">
<polygon fill="none" stroke="#bfbfbf" points="1853.5,-19 1815.5,-19 1815.5,0 1853.5,0 1853.5,-19"/>
<text text-anchor="middle" x="1834.5" y="-7" font-family="Helvetica,sans-Serif" font-size="10.00">map</text>
</a>
</g>
</g>
<!-- Node3&#45;&gt;Node26 -->
<g id="edge25" class="edge">
<title>Node3&#45;&gt;Node26</title>
<path fill="none" stroke="midnightblue" d="M1154.61,-64.4C1287.1,-64.77 1570.56,-60.1 1805.5,-19 1805.6,-18.98 1805.7,-18.96 1805.8,-18.95"/>
<polygon fill="midnightblue" stroke="midnightblue" points="1806.33,-22.42 1815.3,-16.78 1804.77,-15.59 1806.33,-22.42"/>
</g>
<!-- Node27&#45;&gt;Node2 -->
<g id="edge29" class="edge">
<title>Node27&#45;&gt;Node2</title>
<path fill="none" stroke="midnightblue" d="M755.89,-233.43C700.23,-227.57 636.05,-216.32 618.5,-195 613.13,-188.48 612.86,-182.28 618.5,-176 643.24,-148.44 870.61,-134.66 996.52,-129.1"/>
<polygon fill="midnightblue" stroke="midnightblue" points="996.68,-132.59 1006.52,-128.66 996.38,-125.6 996.68,-132.59"/>
</g>
<!-- Node28 -->
<g id="node28" class="node">
<title>Node28</title>
<g id="a_node28"><a xlink:href="../../d3/d2c/a00764.html" target="_top" xlink:title=" ">
<polygon fill="none" stroke="black" points="1167.5,-195 991.5,-195 991.5,-176 1167.5,-176 1167.5,-195"/>
<text text-anchor="middle" x="1079.5" y="-183" font-family="Helvetica,sans-Serif" font-size="10.00">discordcoreapi/EventEntities.hpp</text>
</a>
</g>
</g>
<!-- Node27&#45;&gt;Node28 -->
<g id="edge27" class="edge">
<title>Node27&#45;&gt;Node28</title>
<path fill="none" stroke="midnightblue" d="M883.1,-230.98C923.49,-221.84 987.78,-207.27 1031.73,-197.32"/>
<polygon fill="midnightblue" stroke="midnightblue" points="1032.63,-200.7 1041.61,-195.08 1031.08,-193.88 1032.63,-200.7"/>
</g>
<!-- Node29 -->
<g id="node29" class="node">
<title>Node29</title>
<g id="a_node29"><a xlink:title=" ">
<polygon fill="none" stroke="#bfbfbf" points="759,-195 628,-195 628,-176 759,-176 759,-195"/>
<text text-anchor="middle" x="693.5" y="-183" font-family="Helvetica,sans-Serif" font-size="10.00">libavformat/avformat.h</text>
</a>
</g>
</g>
<!-- Node27&#45;&gt;Node29 -->
<g id="edge30" class="edge">
<title>Node27&#45;&gt;Node29</title>
<path fill="none" stroke="midnightblue" d="M821.08,-230.98C795.78,-222.16 756.05,-208.31 727.64,-198.41"/>
<polygon fill="midnightblue" stroke="midnightblue" points="728.71,-195.07 718.11,-195.08 726.4,-201.68 728.71,-195.07"/>
</g>
<!-- Node30 -->
<g id="node30" class="node">
<title>Node30</title>
<g id="a_node30"><a xlink:title=" ">
<polygon fill="none" stroke="#bfbfbf" points="936,-195 777,-195 777,-176 936,-176 936,-195"/>
<text text-anchor="middle" x="856.5" y="-183" font-family="Helvetica,sans-Serif" font-size="10.00">libswresample/swresample.h</text>
</a>
</g>
</g>
<!-- Node27&#45;&gt;Node30 -->
<g id="edge31" class="edge">
<title>Node27&#45;&gt;Node30</title>
<path fill="none" stroke="midnightblue" d="M847.32,-230.75C848.76,-223.8 850.82,-213.85 852.63,-205.13"/>
<polygon fill="midnightblue" stroke="midnightblue" points="856.11,-205.59 854.72,-195.09 849.26,-204.17 856.11,-205.59"/>
</g>
<!-- Node28&#45;&gt;Node2 -->
<g id="edge28" class="edge">
<title>Node28&#45;&gt;Node2</title>
<path fill="none" stroke="midnightblue" d="M1079.5,-175.87C1079.5,-169.11 1079.5,-159.35 1079.5,-150.26"/>
<polygon fill="midnightblue" stroke="midnightblue" points="1083,-150.11 1079.5,-140.11 1076,-150.11 1083,-150.11"/>
</g>
<!-- Node31&#45;&gt;Node2 -->
<g id="edge33" class="edge">
<title>Node31&#45;&gt;Node2</title>
<path fill="none" stroke="midnightblue" d="M2296.5,-395.82C2296.5,-377.48 2296.5,-333.44 2296.5,-296.5 2296.5,-296.5 2296.5,-296.5 2296.5,-239.5 2296.5,-206.38 2286.06,-192.78 2257.5,-176 2210.39,-148.32 1422.36,-132.03 1162.14,-127.39"/>
<polygon fill="midnightblue" stroke="midnightblue" points="1162.06,-123.89 1152,-127.21 1161.94,-130.88 1162.06,-123.89"/>
</g>
<!-- Node32 -->
<g id="node32" class="node">
<title>Node32</title>
<g id="a_node32"><a xlink:title=" ">
<polygon fill="none" stroke="#bfbfbf" points="2400,-360 2325,-360 2325,-341 2400,-341 2400,-360"/>
<text text-anchor="middle" x="2362.5" y="-348" font-family="Helvetica,sans-Serif" font-size="10.00">opus/opus.h</text>
</a>
</g>
</g>
<!-- Node31&#45;&gt;Node32 -->
<g id="edge34" class="edge">
<title>Node31&#45;&gt;Node32</title>
<path fill="none" stroke="midnightblue" d="M2307.1,-395.98C2316.96,-388.07 2331.85,-376.11 2343.72,-366.58"/>
<polygon fill="midnightblue" stroke="midnightblue" points="2346.1,-369.16 2351.7,-360.17 2341.71,-363.7 2346.1,-369.16"/>
</g>
<!-- Node33&#45;&gt;Node2 -->
<g id="edge36" class="edge">
<title>Node33&#45;&gt;Node2</title>
<path fill="none" stroke="midnightblue" d="M963.5,-395.82C963.5,-377.48 963.5,-333.44 963.5,-296.5 963.5,-296.5 963.5,-296.5 963.5,-239.5 963.5,-210.04 963.69,-198.67 982.5,-176 993.83,-162.35 1009.85,-152 1025.61,-144.36"/>
<polygon fill="midnightblue" stroke="midnightblue" points="1027.17,-147.49 1034.82,-140.16 1024.27,-141.12 1027.17,-147.49"/>
</g>
<!-- Node34 -->
<g id="node34" class="node">
<title>Node34</title>
<g id="a_node34"><a xlink:href="../../d4/d6a/a00704.html" target="_top" xlink:title=" ">
<polygon fill="none" stroke="black" points="1688,-360 1521,-360 1521,-341 1688,-341 1688,-360"/>
<text text-anchor="middle" x="1604.5" y="-348" font-family="Helvetica,sans-Serif" font-size="10.00">discordcoreapi/ThreadPool.hpp</text>
</a>
</g>
</g>
<!-- Node33&#45;&gt;Node34 -->
<g id="edge37" class="edge">
<title>Node33&#45;&gt;Node34</title>
<path fill="none" stroke="midnightblue" d="M1044.68,-397.79C1163.75,-387.94 1385.19,-369.63 1510.93,-359.24"/>
<polygon fill="midnightblue" stroke="midnightblue" points="1511.25,-362.72 1520.93,-358.41 1510.68,-355.75 1511.25,-362.72"/>
</g>
<!-- Node34&#45;&gt;Node2 -->
<g id="edge38" class="edge">
<title>Node34&#45;&gt;Node2</title>
<path fill="none" stroke="midnightblue" d="M1685.42,-340.99C1873.56,-319.66 2318.57,-259.6 2238.5,-176 2201.36,-137.22 1421.68,-128.35 1162.47,-126.47"/>
<polygon fill="midnightblue" stroke="midnightblue" points="1162.38,-122.97 1152.36,-126.4 1162.33,-129.97 1162.38,-122.97"/>
</g>
<!-- Node35 -->
<g id="node35" class="node">
<title>Node35</title>
<g id="a_node35"><a xlink:href="../../dd/dd8/a00719.html" target="_top" xlink:title=" ">
<polygon fill="none" stroke="black" points="1732.5,-305 1594.5,-305 1594.5,-286 1732.5,-286 1732.5,-305"/>
<text text-anchor="middle" x="1663.5" y="-293" font-family="Helvetica,sans-Serif" font-size="10.00">discordcoreapi/Https.hpp</text>
</a>
</g>
</g>
<!-- Node34&#45;&gt;Node35 -->
<g id="edge39" class="edge">
<title>Node34&#45;&gt;Node35</title>
<path fill="none" stroke="midnightblue" d="M1613.98,-340.98C1622.7,-333.15 1635.84,-321.34 1646.4,-311.86"/>
<polygon fill="midnightblue" stroke="midnightblue" points="1648.75,-314.46 1653.85,-305.17 1644.07,-309.25 1648.75,-314.46"/>
</g>
<!-- Node49 -->
<g id="node49" class="node">
<title>Node49</title>
<g id="a_node49"><a xlink:title=" ">
<polygon fill="none" stroke="#bfbfbf" points="1576.5,-305 1514.5,-305 1514.5,-286 1576.5,-286 1576.5,-305"/>
<text text-anchor="middle" x="1545.5" y="-293" font-family="Helvetica,sans-Serif" font-size="10.00">coroutine</text>
</a>
</g>
</g>
<!-- Node34&#45;&gt;Node49 -->
<g id="edge55" class="edge">
<title>Node34&#45;&gt;Node49</title>
<path fill="none" stroke="midnightblue" d="M1595.02,-340.98C1586.3,-333.15 1573.16,-321.34 1562.6,-311.86"/>
<polygon fill="midnightblue" stroke="midnightblue" points="1564.93,-309.25 1555.15,-305.17 1560.25,-314.46 1564.93,-309.25"/>
</g>
<!-- Node36 -->
<g id="node36" class="node">
<title>Node36</title>
<g id="a_node36"><a xlink:href="../../dd/d5c/a00752.html" target="_top" xlink:title=" ">
<polygon fill="none" stroke="black" points="1745,-250 1582,-250 1582,-231 1745,-231 1745,-250"/>
<text text-anchor="middle" x="1663.5" y="-238" font-family="Helvetica,sans-Serif" font-size="10.00">discordcoreapi/SSLClients.hpp</text>
</a>
</g>
</g>
<!-- Node35&#45;&gt;Node36 -->
<g id="edge40" class="edge">
<title>Node35&#45;&gt;Node36</title>
<path fill="none" stroke="midnightblue" d="M1663.5,-285.75C1663.5,-278.8 1663.5,-268.85 1663.5,-260.13"/>
<polygon fill="midnightblue" stroke="midnightblue" points="1667,-260.09 1663.5,-250.09 1660,-260.09 1667,-260.09"/>
</g>
<!-- Node36&#45;&gt;Node2 -->
<g id="edge41" class="edge">
<title>Node36&#45;&gt;Node2</title>
<path fill="none" stroke="midnightblue" d="M1659.08,-230.64C1651.4,-216.33 1634.13,-188.44 1610.5,-176 1534.81,-136.16 1291.82,-127.78 1162.42,-126.2"/>
<polygon fill="midnightblue" stroke="midnightblue" points="1162.2,-122.7 1152.16,-126.09 1162.12,-129.7 1162.2,-122.7"/>
</g>
<!-- Node36&#45;&gt;Node28 -->
<g id="edge42" class="edge">
<title>Node36&#45;&gt;Node28</title>
<path fill="none" stroke="midnightblue" d="M1581.99,-232.1C1476.03,-222.49 1291.16,-205.71 1177.62,-195.4"/>
<polygon fill="midnightblue" stroke="midnightblue" points="1177.82,-191.91 1167.54,-194.49 1177.18,-198.88 1177.82,-191.91"/>
</g>
<!-- Node37 -->
<g id="node37" class="node">
<title>Node37</title>
<g id="a_node37"><a xlink:title=" ">
<polygon fill="none" stroke="#bfbfbf" points="1737,-195 1658,-195 1658,-176 1737,-176 1737,-195"/>
<text text-anchor="middle" x="1697.5" y="-183" font-family="Helvetica,sans-Serif" font-size="10.00">openssl/err.h</text>
</a>
</g>
</g>
<!-- Node36&#45;&gt;Node37 -->
<g id="edge43" class="edge">
<title>Node36&#45;&gt;Node37</title>
<path fill="none" stroke="midnightblue" d="M1669.11,-230.75C1673.82,-223.42 1680.67,-212.73 1686.47,-203.7"/>
<polygon fill="midnightblue" stroke="midnightblue" points="1689.54,-205.4 1691.99,-195.09 1683.64,-201.62 1689.54,-205.4"/>
</g>
<!-- Node38 -->
<g id="node38" class="node">
<title>Node38</title>
<g id="a_node38"><a xlink:title=" ">
<polygon fill="none" stroke="#bfbfbf" points="1835.5,-195 1755.5,-195 1755.5,-176 1835.5,-176 1835.5,-195"/>
<text text-anchor="middle" x="1795.5" y="-183" font-family="Helvetica,sans-Serif" font-size="10.00">openssl/ssl.h</text>
</a>
</g>
</g>
<!-- Node36&#45;&gt;Node38 -->
<g id="edge44" class="edge">
<title>Node36&#45;&gt;Node38</title>
<path fill="none" stroke="midnightblue" d="M1684.71,-230.98C1706.23,-222.34 1739.78,-208.87 1764.33,-199.02"/>
<polygon fill="midnightblue" stroke="midnightblue" points="1765.93,-202.14 1773.91,-195.17 1763.32,-195.65 1765.93,-202.14"/>
</g>
<!-- Node39 -->
<g id="node39" class="node">
<title>Node39</title>
<g id="a_node39"><a xlink:title=" ">
<polygon fill="none" stroke="#bfbfbf" points="1901,-195 1854,-195 1854,-176 1901,-176 1901,-195"/>
<text text-anchor="middle" x="1877.5" y="-183" font-family="Helvetica,sans-Serif" font-size="10.00">fcntl.h</text>
</a>
</g>
</g>
<!-- Node36&#45;&gt;Node39 -->
<g id="edge45" class="edge">
<title>Node36&#45;&gt;Node39</title>
<path fill="none" stroke="midnightblue" d="M1698.9,-230.92C1733.42,-222.52 1787.64,-209.27 1843.93,-195.12"/>
<polygon fill="midnightblue" stroke="midnightblue" points="1844.87,-198.49 1853.71,-192.66 1843.16,-191.71 1844.87,-198.49"/>
</g>
<!-- Node40 -->
<g id="node40" class="node">
<title>Node40</title>
<g id="a_node40"><a xlink:title=" ">
<polygon fill="none" stroke="#bfbfbf" points="1972,-195 1919,-195 1919,-176 1972,-176 1972,-195"/>
<text text-anchor="middle" x="1945.5" y="-183" font-family="Helvetica,sans-Serif" font-size="10.00">netdb.h</text>
</a>
</g>
</g>
<!-- Node36&#45;&gt;Node40 -->
<g id="edge46" class="edge">
<title>Node36&#45;&gt;Node40</title>
<path fill="none" stroke="midnightblue" d="M1715.01,-231C1762.75,-222.94 1835.95,-210.1 1908.97,-195.02"/>
<polygon fill="midnightblue" stroke="midnightblue" points="1909.72,-198.43 1918.8,-192.97 1908.3,-191.58 1909.72,-198.43"/>
</g>
<!-- Node41 -->
<g id="node41" class="node">
<title>Node41</title>
<g id="a_node41"><a xlink:title=" ">
<polygon fill="none" stroke="#bfbfbf" points="2062.5,-195 1990.5,-195 1990.5,-176 2062.5,-176 2062.5,-195"/>
<text text-anchor="middle" x="2026.5" y="-183" font-family="Helvetica,sans-Serif" font-size="10.00">netinet/in.h</text>
</a>
</g>
</g>
<!-- Node36&#45;&gt;Node41 -->
<g id="edge47" class="edge">
<title>Node36&#45;&gt;Node41</title>
<path fill="none" stroke="midnightblue" d="M1730.42,-230.96C1794.66,-222.56 1894.38,-209 1980.5,-195 1980.6,-194.98 1980.7,-194.97 1980.8,-194.95"/>
<polygon fill="midnightblue" stroke="midnightblue" points="1981.09,-198.45 1990.37,-193.33 1979.92,-191.55 1981.09,-198.45"/>
</g>
<!-- Node42 -->
<g id="node42" class="node">
<title>Node42</title>
<g id="a_node42"><a xlink:title=" ">
<polygon fill="none" stroke="#bfbfbf" points="2158.5,-195 2080.5,-195 2080.5,-176 2158.5,-176 2158.5,-195"/>
<text text-anchor="middle" x="2119.5" y="-183" font-family="Helvetica,sans-Serif" font-size="10.00">netinet/tcp.h</text>
</a>
</g>
</g>
<!-- Node36&#45;&gt;Node42 -->
<g id="edge48" class="edge">
<title>Node36&#45;&gt;Node42</title>
<path fill="none" stroke="midnightblue" d="M1745.37,-232.19C1825.63,-224.65 1951.69,-211.83 2070.26,-195.09"/>
<polygon fill="midnightblue" stroke="midnightblue" points="2070.83,-198.55 2080.24,-193.67 2069.85,-191.62 2070.83,-198.55"/>
</g>
<!-- Node43 -->
<g id="node43" class="node">
<title>Node43</title>
<g id="a_node43"><a xlink:title=" ">
<polygon fill="none" stroke="#bfbfbf" points="2230,-195 2177,-195 2177,-176 2230,-176 2230,-195"/>
<text text-anchor="middle" x="2203.5" y="-183" font-family="Helvetica,sans-Serif" font-size="10.00">stdint.h</text>
</a>
</g>
</g>
<!-- Node36&#45;&gt;Node43 -->
<g id="edge49" class="edge">
<title>Node36&#45;&gt;Node43</title>
<path fill="none" stroke="midnightblue" d="M1745.13,-235.91C1843.02,-230.79 2012.18,-219.36 2166.69,-194.87"/>
<polygon fill="midnightblue" stroke="midnightblue" points="2167.53,-198.29 2176.85,-193.24 2166.42,-191.37 2167.53,-198.29"/>
</g>
<!-- Node44 -->
<g id="node44" class="node">
<title>Node44</title>
<g id="a_node44"><a xlink:title=" ">
<polygon fill="none" stroke="#bfbfbf" points="1255,-195 1186,-195 1186,-176 1255,-176 1255,-195"/>
<text text-anchor="middle" x="1220.5" y="-183" font-family="Helvetica,sans-Serif" font-size="10.00">sys/epoll.h</text>
</a>
</g>
</g>
<!-- Node36&#45;&gt;Node44 -->
<g id="edge50" class="edge">
<title>Node36&#45;&gt;Node44</title>
<path fill="none" stroke="midnightblue" d="M1581.65,-232.43C1502.9,-225.17 1380.31,-212.64 1265.23,-195.16"/>
<polygon fill="midnightblue" stroke="midnightblue" points="1265.6,-191.68 1255.19,-193.62 1264.54,-198.59 1265.6,-191.68"/>
</g>
<!-- Node45 -->
<g id="node45" class="node">
<title>Node45</title>
<g id="a_node45"><a xlink:title=" ">
<polygon fill="none" stroke="#bfbfbf" points="1342,-195 1273,-195 1273,-176 1342,-176 1342,-195"/>
<text text-anchor="middle" x="1307.5" y="-183" font-family="Helvetica,sans-Serif" font-size="10.00">arpa/inet.h</text>
</a>
</g>
</g>
<!-- Node36&#45;&gt;Node45 -->
<g id="edge51" class="edge">
<title>Node36&#45;&gt;Node45</title>
<path fill="none" stroke="midnightblue" d="M1596.17,-231C1534.97,-223.02 1441.94,-210.29 1352.27,-195.23"/>
<polygon fill="midnightblue" stroke="midnightblue" points="1352.65,-191.74 1342.2,-193.53 1351.48,-198.65 1352.65,-191.74"/>
</g>
<!-- Node46 -->
<g id="node46" class="node">
<title>Node46</title>
<g id="a_node46"><a xlink:title=" ">
<polygon fill="none" stroke="#bfbfbf" points="1437,-195 1360,-195 1360,-176 1437,-176 1437,-195"/>
<text text-anchor="middle" x="1398.5" y="-183" font-family="Helvetica,sans-Serif" font-size="10.00">sys/socket.h</text>
</a>
</g>
</g>
<!-- Node36&#45;&gt;Node46 -->
<g id="edge52" class="edge">
<title>Node36&#45;&gt;Node46</title>
<path fill="none" stroke="midnightblue" d="M1620.92,-230.98C1573.43,-221.49 1496.74,-206.15 1446.98,-196.2"/>
<polygon fill="midnightblue" stroke="midnightblue" points="1447.59,-192.75 1437.09,-194.22 1446.21,-199.61 1447.59,-192.75"/>
</g>
<!-- Node47 -->
<g id="node47" class="node">
<title>Node47</title>
<g id="a_node47"><a xlink:title=" ">
<polygon fill="none" stroke="#bfbfbf" points="1527.5,-195 1455.5,-195 1455.5,-176 1527.5,-176 1527.5,-195"/>
<text text-anchor="middle" x="1491.5" y="-183" font-family="Helvetica,sans-Serif" font-size="10.00">sys/types.h</text>
</a>
</g>
</g>
<!-- Node36&#45;&gt;Node47 -->
<g id="edge53" class="edge">
<title>Node36&#45;&gt;Node47</title>
<path fill="none" stroke="midnightblue" d="M1635.87,-230.98C1606.99,-222.09 1561.49,-208.07 1529.3,-198.15"/>
<polygon fill="midnightblue" stroke="midnightblue" points="1529.94,-194.68 1519.35,-195.08 1527.88,-201.37 1529.94,-194.68"/>
</g>
<!-- Node48 -->
<g id="node48" class="node">
<title>Node48</title>
<g id="a_node48"><a xlink:title=" ">
<polygon fill="none" stroke="#bfbfbf" points="1601.5,-195 1545.5,-195 1545.5,-176 1601.5,-176 1601.5,-195"/>
<text text-anchor="middle" x="1573.5" y="-183" font-family="Helvetica,sans-Serif" font-size="10.00">unistd.h</text>
</a>
</g>
</g>
<!-- Node36&#45;&gt;Node48 -->
<g id="edge54" class="edge">
<title>Node36&#45;&gt;Node48</title>
<path fill="none" stroke="midnightblue" d="M1649.04,-230.98C1635.08,-222.77 1613.71,-210.18 1597.25,-200.49"/>
<polygon fill="midnightblue" stroke="midnightblue" points="1598.62,-197.23 1588.22,-195.17 1595.06,-203.26 1598.62,-197.23"/>
</g>
</g>
</svg>
