<?xml version="1.0" encoding="UTF-8" standalone="no"?>
<!DOCTYPE svg PUBLIC "-//W3C//DTD SVG 1.1//EN"
 "http://www.w3.org/Graphics/SVG/1.1/DTD/svg11.dtd">
<!-- Generated by graphviz version 2.43.0 (0)
 -->
<!-- Title: RoleEntities.hpp Pages: 1 -->
<svg width="1668pt" height="308pt"
 viewBox="0.00 0.00 1668.00 308.00" xmlns="http://www.w3.org/2000/svg" xmlns:xlink="http://www.w3.org/1999/xlink">
<g id="graph0" class="graph" transform="scale(1 1) rotate(0) translate(4 304)">
<title>RoleEntities.hpp</title>
<!-- Node1 -->
<g id="node1" class="node">
<title>Node1</title>
<g id="a_node1"><a xlink:title=" ">
<polygon fill="#bfbfbf" stroke="black" points="1181.5,-280.5 1181.5,-299.5 1277.5,-299.5 1277.5,-280.5 1181.5,-280.5"/>
<text text-anchor="middle" x="1229.5" y="-287.5" font-family="Helvetica,sans-Serif" font-size="10.00">RoleEntities.hpp</text>
</a>
</g>
</g>
<!-- Node2 -->
<g id="node2" class="node">
<title>Node2</title>
<g id="a_node2"><a xlink:href="../../df/dbb/a00698.html" target="_top" xlink:title=" ">
<polygon fill="none" stroke="black" points="790,-112.5 790,-131.5 915,-131.5 915,-112.5 790,-112.5"/>
<text text-anchor="middle" x="852.5" y="-119.5" font-family="Helvetica,sans-Serif" font-size="10.00">DiscordCoreClient.hpp</text>
</a>
</g>
</g>
<!-- Node1&#45;&gt;Node2 -->
<g id="edge1" class="edge">
<title>Node1&#45;&gt;Node2</title>
<path fill="none" stroke="midnightblue" d="M1170.91,-284.46C1117.67,-279.01 1037.57,-267.49 971.5,-244 923.5,-226.94 903.23,-227.85 871.5,-188 858.03,-171.08 854.11,-144.9 852.97,-131.52"/>
<polygon fill="midnightblue" stroke="midnightblue" points="1170.9,-287.97 1181.19,-285.47 1171.58,-281 1170.9,-287.97"/>
</g>
<!-- Node8 -->
<g id="node8" class="node">
<title>Node8</title>
<g id="a_node8"><a xlink:href="../../d3/d60/a00818.html" target="_top" xlink:title=" ">
<polygon fill="none" stroke="black" points="1379,-56.5 1379,-75.5 1478,-75.5 1478,-56.5 1379,-56.5"/>
<text text-anchor="middle" x="1428.5" y="-63.5" font-family="Helvetica,sans-Serif" font-size="10.00">GuildEntities.cpp</text>
</a>
</g>
</g>
<!-- Node1&#45;&gt;Node8 -->
<g id="edge29" class="edge">
<title>Node1&#45;&gt;Node8</title>
<path fill="none" stroke="midnightblue" d="M1187.96,-277.02C1168.94,-269.88 1147.2,-259.19 1131.5,-244 1105.63,-218.97 1088.63,-200.78 1103.5,-168 1119.12,-133.58 1133.38,-128.26 1167.5,-112 1176.98,-107.48 1305.93,-86.48 1378.95,-74.83"/>
<polygon fill="midnightblue" stroke="midnightblue" points="1187.01,-280.39 1197.61,-280.43 1189.35,-273.79 1187.01,-280.39"/>
</g>
<!-- Node16 -->
<g id="node16" class="node">
<title>Node16</title>
<g id="a_node16"><a xlink:href="../../d1/d56/a00707.html" target="_top" xlink:title=" ">
<polygon fill="none" stroke="black" points="881,-168.5 881,-187.5 988,-187.5 988,-168.5 881,-168.5"/>
<text text-anchor="middle" x="934.5" y="-175.5" font-family="Helvetica,sans-Serif" font-size="10.00">EventManager.hpp</text>
</a>
</g>
</g>
<!-- Node1&#45;&gt;Node16 -->
<g id="edge15" class="edge">
<title>Node1&#45;&gt;Node16</title>
<path fill="none" stroke="midnightblue" d="M1171.13,-286.42C1123.43,-282.26 1055.47,-271.53 1002.5,-244 975.55,-229.99 951.86,-202.03 940.93,-187.78"/>
<polygon fill="midnightblue" stroke="midnightblue" points="1171.04,-289.93 1181.29,-287.23 1171.6,-282.95 1171.04,-289.93"/>
</g>
<!-- Node17 -->
<g id="node17" class="node">
<title>Node17</title>
<g id="a_node17"><a xlink:href="../../d1/d04/a00713.html" target="_top" xlink:title=" ">
<polygon fill="none" stroke="black" points="1140.5,-224.5 1140.5,-243.5 1240.5,-243.5 1240.5,-224.5 1140.5,-224.5"/>
<text text-anchor="middle" x="1190.5" y="-231.5" font-family="Helvetica,sans-Serif" font-size="10.00">GuildEntities.hpp</text>
</a>
</g>
</g>
<!-- Node1&#45;&gt;Node17 -->
<g id="edge19" class="edge">
<title>Node1&#45;&gt;Node17</title>
<path fill="none" stroke="midnightblue" d="M1217.12,-271.86C1210.36,-262.5 1202.29,-251.33 1196.82,-243.75"/>
<polygon fill="midnightblue" stroke="midnightblue" points="1214.37,-274.03 1223.06,-280.08 1220.04,-269.93 1214.37,-274.03"/>
</g>
<!-- Node18 -->
<g id="node18" class="node">
<title>Node18</title>
<g id="a_node18"><a xlink:href="../../df/d0e/a00800.html" target="_top" xlink:title=" ">
<polygon fill="none" stroke="black" points="1278.5,-168.5 1278.5,-187.5 1420.5,-187.5 1420.5,-168.5 1278.5,-168.5"/>
<text text-anchor="middle" x="1349.5" y="-175.5" font-family="Helvetica,sans-Serif" font-size="10.00">DataParsingFunctions.cpp</text>
</a>
</g>
</g>
<!-- Node1&#45;&gt;Node18 -->
<g id="edge27" class="edge">
<title>Node1&#45;&gt;Node18</title>
<path fill="none" stroke="midnightblue" d="M1244.2,-272.67C1256.62,-259.16 1275.12,-239.7 1292.5,-224 1307.47,-210.48 1325.99,-196.28 1337.78,-187.53"/>
<polygon fill="midnightblue" stroke="midnightblue" points="1241.46,-270.48 1237.31,-280.23 1246.63,-275.19 1241.46,-270.48"/>
</g>
<!-- Node19 -->
<g id="node19" class="node">
<title>Node19</title>
<g id="a_node19"><a xlink:href="../../d8/d2d/a00815.html" target="_top" xlink:title=" ">
<polygon fill="none" stroke="black" points="1438.5,-168.5 1438.5,-187.5 1566.5,-187.5 1566.5,-168.5 1438.5,-168.5"/>
<text text-anchor="middle" x="1502.5" y="-175.5" font-family="Helvetica,sans-Serif" font-size="10.00">FoundationEntities.cpp</text>
</a>
</g>
</g>
<!-- Node1&#45;&gt;Node19 -->
<g id="edge28" class="edge">
<title>Node1&#45;&gt;Node19</title>
<path fill="none" stroke="midnightblue" d="M1248.41,-274.21C1267.97,-259.57 1299.87,-237.45 1330.5,-224 1370.21,-206.56 1418.14,-194.71 1453.3,-187.56"/>
<polygon fill="midnightblue" stroke="midnightblue" points="1246.18,-271.51 1240.35,-280.35 1250.42,-277.08 1246.18,-271.51"/>
</g>
<!-- Node21 -->
<g id="node21" class="node">
<title>Node21</title>
<g id="a_node21"><a xlink:href="../../d3/db2/a00869.html" target="_top" xlink:title=" ">
<polygon fill="none" stroke="black" points="1585,-168.5 1585,-187.5 1660,-187.5 1660,-168.5 1585,-168.5"/>
<text text-anchor="middle" x="1622.5" y="-175.5" font-family="Helvetica,sans-Serif" font-size="10.00">Utilities.cpp</text>
</a>
</g>
</g>
<!-- Node1&#45;&gt;Node21 -->
<g id="edge31" class="edge">
<title>Node1&#45;&gt;Node21</title>
<path fill="none" stroke="midnightblue" d="M1257.81,-276.32C1277.25,-267.5 1303.58,-255.34 1326.5,-244 1343.61,-235.54 1346.42,-230.13 1364.5,-224 1454.6,-193.47 1481.89,-204.95 1575.5,-188 1578.52,-187.45 1581.66,-186.88 1584.8,-186.29"/>
<polygon fill="midnightblue" stroke="midnightblue" points="1256.26,-273.18 1248.59,-280.48 1259.15,-279.56 1256.26,-273.18"/>
</g>
<!-- Node22 -->
<g id="node22" class="node">
<title>Node22</title>
<g id="a_node22"><a xlink:href="../../d0/d11/a00842.html" target="_top" xlink:title=" ">
<polygon fill="none" stroke="black" points="1373,-224.5 1373,-243.5 1468,-243.5 1468,-224.5 1373,-224.5"/>
<text text-anchor="middle" x="1420.5" y="-231.5" font-family="Helvetica,sans-Serif" font-size="10.00">RoleEntities.cpp</text>
</a>
</g>
</g>
<!-- Node1&#45;&gt;Node22 -->
<g id="edge30" class="edge">
<title>Node1&#45;&gt;Node22</title>
<path fill="none" stroke="midnightblue" d="M1269.47,-277.7C1305.52,-267.51 1357.74,-252.74 1390.38,-243.52"/>
<polygon fill="midnightblue" stroke="midnightblue" points="1268.44,-274.35 1259.76,-280.44 1270.34,-281.09 1268.44,-274.35"/>
</g>
<!-- Node3 -->
<g id="node3" class="node">
<title>Node3</title>
<g id="a_node3"><a xlink:href="../../d8/db9/a00725.html" target="_top" xlink:title=" ">
<polygon fill="none" stroke="black" points="750,-56.5 750,-75.5 815,-75.5 815,-56.5 750,-56.5"/>
<text text-anchor="middle" x="782.5" y="-63.5" font-family="Helvetica,sans-Serif" font-size="10.00">Index.hpp</text>
</a>
</g>
</g>
<!-- Node2&#45;&gt;Node3 -->
<g id="edge2" class="edge">
<title>Node2&#45;&gt;Node3</title>
<path fill="none" stroke="midnightblue" d="M833.19,-106.1C820.59,-96.38 804.57,-84.03 793.95,-75.83"/>
<polygon fill="midnightblue" stroke="midnightblue" points="831.2,-108.99 841.25,-112.32 835.47,-103.44 831.2,-108.99"/>
</g>
<!-- Node5 -->
<g id="node5" class="node">
<title>Node5</title>
<g id="a_node5"><a xlink:href="../../da/d96/a00782.html" target="_top" xlink:title=" ">
<polygon fill="none" stroke="black" points="833,-56.5 833,-75.5 1012,-75.5 1012,-56.5 833,-56.5"/>
<text text-anchor="middle" x="922.5" y="-63.5" font-family="Helvetica,sans-Serif" font-size="10.00">ApplicationCommandEntities.cpp</text>
</a>
</g>
</g>
<!-- Node2&#45;&gt;Node5 -->
<g id="edge4" class="edge">
<title>Node2&#45;&gt;Node5</title>
<path fill="none" stroke="midnightblue" d="M871.81,-106.1C884.41,-96.38 900.43,-84.03 911.05,-75.83"/>
<polygon fill="midnightblue" stroke="midnightblue" points="869.53,-103.44 863.75,-112.32 873.8,-108.99 869.53,-103.44"/>
</g>
<!-- Node6 -->
<g id="node6" class="node">
<title>Node6</title>
<g id="a_node6"><a xlink:href="../../d5/d72/a00803.html" target="_top" xlink:title=" ">
<polygon fill="none" stroke="black" points="1030,-56.5 1030,-75.5 1155,-75.5 1155,-56.5 1030,-56.5"/>
<text text-anchor="middle" x="1092.5" y="-63.5" font-family="Helvetica,sans-Serif" font-size="10.00">DiscordCoreClient.cpp</text>
</a>
</g>
</g>
<!-- Node2&#45;&gt;Node6 -->
<g id="edge5" class="edge">
<title>Node2&#45;&gt;Node6</title>
<path fill="none" stroke="midnightblue" d="M900.42,-110.22C945.77,-100.01 1012.94,-84.9 1054.65,-75.52"/>
<polygon fill="midnightblue" stroke="midnightblue" points="899.52,-106.83 890.53,-112.44 901.05,-113.66 899.52,-106.83"/>
</g>
<!-- Node7 -->
<g id="node7" class="node">
<title>Node7</title>
<g id="a_node7"><a xlink:href="../../d8/db7/a00812.html" target="_top" xlink:title=" ">
<polygon fill="none" stroke="black" points="1254,-56.5 1254,-75.5 1361,-75.5 1361,-56.5 1254,-56.5"/>
<text text-anchor="middle" x="1307.5" y="-63.5" font-family="Helvetica,sans-Serif" font-size="10.00">EventManager.cpp</text>
</a>
</g>
</g>
<!-- Node2&#45;&gt;Node7 -->
<g id="edge6" class="edge">
<title>Node2&#45;&gt;Node7</title>
<path fill="none" stroke="midnightblue" d="M925.32,-113.25C1004.09,-104.72 1133.31,-90.32 1244.5,-76 1247.57,-75.6 1250.72,-75.19 1253.9,-74.76"/>
<polygon fill="midnightblue" stroke="midnightblue" points="924.59,-109.81 915.03,-114.36 925.34,-116.77 924.59,-109.81"/>
</g>
<!-- Node2&#45;&gt;Node8 -->
<g id="edge7" class="edge">
<title>Node2&#45;&gt;Node8</title>
<path fill="none" stroke="midnightblue" d="M925.27,-116.23C1025.65,-109.3 1212.16,-95.14 1370.5,-76 1373.23,-75.67 1376.03,-75.31 1378.86,-74.93"/>
<polygon fill="midnightblue" stroke="midnightblue" points="924.97,-112.74 915.23,-116.92 925.45,-119.73 924.97,-112.74"/>
</g>
<!-- Node9 -->
<g id="node9" class="node">
<title>Node9</title>
<g id="a_node9"><a xlink:href="../../dc/d1b/a00827.html" target="_top" xlink:title=" ">
<polygon fill="none" stroke="black" points="1173,-56.5 1173,-75.5 1236,-75.5 1236,-56.5 1173,-56.5"/>
<text text-anchor="middle" x="1204.5" y="-63.5" font-family="Helvetica,sans-Serif" font-size="10.00">Https.cpp</text>
</a>
</g>
</g>
<!-- Node2&#45;&gt;Node9 -->
<g id="edge8" class="edge">
<title>Node2&#45;&gt;Node9</title>
<path fill="none" stroke="midnightblue" d="M925.52,-111.95C988.7,-103.76 1082.4,-90.75 1163.5,-76 1166.51,-75.45 1169.64,-74.84 1172.76,-74.2"/>
<polygon fill="midnightblue" stroke="midnightblue" points="924.73,-108.53 915.26,-113.27 925.63,-115.47 924.73,-108.53"/>
</g>
<!-- Node10 -->
<g id="node10" class="node">
<title>Node10</title>
<g id="a_node10"><a xlink:href="../../d3/d13/a00836.html" target="_top" xlink:title=" ">
<polygon fill="none" stroke="black" points="145,-56.5 145,-75.5 262,-75.5 262,-56.5 145,-56.5"/>
<text text-anchor="middle" x="203.5" y="-63.5" font-family="Helvetica,sans-Serif" font-size="10.00">MessageEntities.cpp</text>
</a>
</g>
</g>
<!-- Node2&#45;&gt;Node10 -->
<g id="edge9" class="edge">
<title>Node2&#45;&gt;Node10</title>
<path fill="none" stroke="midnightblue" d="M779.94,-116.71C669.71,-109.89 453.5,-95.35 270.5,-76 267.82,-75.72 265.07,-75.41 262.3,-75.09"/>
<polygon fill="midnightblue" stroke="midnightblue" points="779.76,-120.2 789.95,-117.32 780.19,-113.22 779.76,-120.2"/>
</g>
<!-- Node11 -->
<g id="node11" class="node">
<title>Node11</title>
<g id="a_node11"><a xlink:href="../../d7/dcf/a00845.html" target="_top" xlink:title=" ">
<polygon fill="none" stroke="black" points="280,-56.5 280,-75.5 357,-75.5 357,-56.5 280,-56.5"/>
<text text-anchor="middle" x="318.5" y="-63.5" font-family="Helvetica,sans-Serif" font-size="10.00">SongAPI.cpp</text>
</a>
</g>
</g>
<!-- Node2&#45;&gt;Node11 -->
<g id="edge10" class="edge">
<title>Node2&#45;&gt;Node11</title>
<path fill="none" stroke="midnightblue" d="M779.66,-116.38C684.39,-109.85 512.45,-96.39 366.5,-76 363.48,-75.58 360.36,-75.1 357.22,-74.58"/>
<polygon fill="midnightblue" stroke="midnightblue" points="779.54,-119.88 789.76,-117.06 780.02,-112.89 779.54,-119.88"/>
</g>
<!-- Node12 -->
<g id="node12" class="node">
<title>Node12</title>
<g id="a_node12"><a xlink:href="../../d9/d30/a00848.html" target="_top" xlink:title=" ">
<polygon fill="none" stroke="black" points="375.5,-56.5 375.5,-75.5 485.5,-75.5 485.5,-56.5 375.5,-56.5"/>
<text text-anchor="middle" x="430.5" y="-63.5" font-family="Helvetica,sans-Serif" font-size="10.00">SoundCloudAPI.cpp</text>
</a>
</g>
</g>
<!-- Node2&#45;&gt;Node12 -->
<g id="edge11" class="edge">
<title>Node2&#45;&gt;Node12</title>
<path fill="none" stroke="midnightblue" d="M779.81,-112.18C707.45,-103.33 593.24,-89.15 494.5,-76 491.61,-75.61 488.64,-75.22 485.65,-74.81"/>
<polygon fill="midnightblue" stroke="midnightblue" points="779.38,-115.65 789.73,-113.39 780.23,-108.71 779.38,-115.65"/>
</g>
<!-- Node13 -->
<g id="node13" class="node">
<title>Node13</title>
<g id="a_node13"><a xlink:href="../../dc/d17/a00872.html" target="_top" xlink:title=" ">
<polygon fill="none" stroke="black" points="503.5,-56.5 503.5,-75.5 621.5,-75.5 621.5,-56.5 503.5,-56.5"/>
<text text-anchor="middle" x="562.5" y="-63.5" font-family="Helvetica,sans-Serif" font-size="10.00">VoiceConnection.cpp</text>
</a>
</g>
</g>
<!-- Node2&#45;&gt;Node13 -->
<g id="edge12" class="edge">
<title>Node2&#45;&gt;Node13</title>
<path fill="none" stroke="midnightblue" d="M796.65,-110.6C741.85,-100.4 659.27,-85.02 608.24,-75.52"/>
<polygon fill="midnightblue" stroke="midnightblue" points="796.08,-114.05 806.55,-112.44 797.36,-107.17 796.08,-114.05"/>
</g>
<!-- Node14 -->
<g id="node14" class="node">
<title>Node14</title>
<g id="a_node14"><a xlink:href="../../d5/d69/a00878.html" target="_top" xlink:title=" ">
<polygon fill="none" stroke="black" points="0,-56.5 0,-75.5 127,-75.5 127,-56.5 0,-56.5"/>
<text text-anchor="middle" x="63.5" y="-63.5" font-family="Helvetica,sans-Serif" font-size="10.00">WebSocketEntities.cpp</text>
</a>
</g>
</g>
<!-- Node2&#45;&gt;Node14 -->
<g id="edge13" class="edge">
<title>Node2&#45;&gt;Node14</title>
<path fill="none" stroke="midnightblue" d="M779.36,-117.9C649.54,-112.07 370.36,-98.03 135.5,-76 132.74,-75.74 129.92,-75.46 127.08,-75.16"/>
<polygon fill="midnightblue" stroke="midnightblue" points="779.43,-121.41 789.58,-118.36 779.74,-114.42 779.43,-121.41"/>
</g>
<!-- Node15 -->
<g id="node15" class="node">
<title>Node15</title>
<g id="a_node15"><a xlink:href="../../df/d41/a00881.html" target="_top" xlink:title=" ">
<polygon fill="none" stroke="black" points="639.5,-56.5 639.5,-75.5 731.5,-75.5 731.5,-56.5 639.5,-56.5"/>
<text text-anchor="middle" x="685.5" y="-63.5" font-family="Helvetica,sans-Serif" font-size="10.00">YouTubeAPI.cpp</text>
</a>
</g>
</g>
<!-- Node2&#45;&gt;Node15 -->
<g id="edge14" class="edge">
<title>Node2&#45;&gt;Node15</title>
<path fill="none" stroke="midnightblue" d="M816.33,-109.3C784.86,-99.13 740.01,-84.62 711.84,-75.52"/>
<polygon fill="midnightblue" stroke="midnightblue" points="815.45,-112.7 826.04,-112.44 817.6,-106.04 815.45,-112.7"/>
</g>
<!-- Node4 -->
<g id="node4" class="node">
<title>Node4</title>
<g id="a_node4"><a xlink:href="../../d0/dad/a00806.html" target="_top" xlink:title=" ">
<polygon fill="none" stroke="black" points="745.5,-0.5 745.5,-19.5 819.5,-19.5 819.5,-0.5 745.5,-0.5"/>
<text text-anchor="middle" x="782.5" y="-7.5" font-family="Helvetica,sans-Serif" font-size="10.00">DllMain.cpp</text>
</a>
</g>
</g>
<!-- Node3&#45;&gt;Node4 -->
<g id="edge3" class="edge">
<title>Node3&#45;&gt;Node4</title>
<path fill="none" stroke="midnightblue" d="M782.5,-45.8C782.5,-36.91 782.5,-26.78 782.5,-19.75"/>
<polygon fill="midnightblue" stroke="midnightblue" points="779,-46.08 782.5,-56.08 786,-46.08 779,-46.08"/>
</g>
<!-- Node16&#45;&gt;Node2 -->
<g id="edge16" class="edge">
<title>Node16&#45;&gt;Node2</title>
<path fill="none" stroke="midnightblue" d="M912.67,-162.62C897.69,-152.76 878.3,-139.99 865.64,-131.65"/>
<polygon fill="midnightblue" stroke="midnightblue" points="911.05,-165.75 921.33,-168.32 914.9,-159.9 911.05,-165.75"/>
</g>
<!-- Node16&#45;&gt;Node7 -->
<g id="edge17" class="edge">
<title>Node16&#45;&gt;Node7</title>
<path fill="none" stroke="midnightblue" d="M947.17,-159.96C959.5,-144.73 979.69,-123.15 1002.5,-112 1005.31,-110.62 1167.19,-87.19 1253.93,-74.7"/>
<polygon fill="midnightblue" stroke="midnightblue" points="944.24,-158.03 940.85,-168.07 949.76,-162.33 944.24,-158.03"/>
</g>
<!-- Node16&#45;&gt;Node14 -->
<g id="edge18" class="edge">
<title>Node16&#45;&gt;Node14</title>
<path fill="none" stroke="midnightblue" d="M870.78,-168.95C709.77,-148.62 288.02,-95.36 127.12,-75.04"/>
<polygon fill="midnightblue" stroke="midnightblue" points="870.64,-172.46 881,-170.24 871.52,-165.52 870.64,-172.46"/>
</g>
<!-- Node17&#45;&gt;Node2 -->
<g id="edge20" class="edge">
<title>Node17&#45;&gt;Node2</title>
<path fill="none" stroke="midnightblue" d="M1155.69,-221.1C1116.92,-207.9 1052.34,-186.08 996.5,-168 956.26,-154.97 909.48,-140.47 880.43,-131.54"/>
<polygon fill="midnightblue" stroke="midnightblue" points="1154.85,-224.51 1165.44,-224.42 1157.1,-217.88 1154.85,-224.51"/>
</g>
<!-- Node17&#45;&gt;Node8 -->
<g id="edge24" class="edge">
<title>Node17&#45;&gt;Node8</title>
<path fill="none" stroke="midnightblue" d="M1154.86,-220.65C1126.98,-208.97 1095.42,-190 1111.5,-168 1143.37,-124.4 1297.83,-90.6 1378.77,-75.55"/>
<polygon fill="midnightblue" stroke="midnightblue" points="1153.9,-224.03 1164.49,-224.47 1156.48,-217.53 1153.9,-224.03"/>
</g>
<!-- Node17&#45;&gt;Node16 -->
<g id="edge21" class="edge">
<title>Node17&#45;&gt;Node16</title>
<path fill="none" stroke="midnightblue" d="M1139.99,-222.35C1091.61,-212.14 1019.55,-196.94 974.87,-187.52"/>
<polygon fill="midnightblue" stroke="midnightblue" points="1139.43,-225.8 1149.94,-224.44 1140.87,-218.95 1139.43,-225.8"/>
</g>
<!-- Node17&#45;&gt;Node18 -->
<g id="edge22" class="edge">
<title>Node17&#45;&gt;Node18</title>
<path fill="none" stroke="midnightblue" d="M1225.33,-221.17C1255.27,-211 1297.72,-196.59 1324.42,-187.52"/>
<polygon fill="midnightblue" stroke="midnightblue" points="1224.04,-217.91 1215.69,-224.44 1226.29,-224.54 1224.04,-217.91"/>
</g>
<!-- Node17&#45;&gt;Node19 -->
<g id="edge23" class="edge">
<title>Node17&#45;&gt;Node19</title>
<path fill="none" stroke="midnightblue" d="M1249.85,-222.73C1308.81,-212.52 1398.16,-197.06 1453.29,-187.52"/>
<polygon fill="midnightblue" stroke="midnightblue" points="1249.19,-219.29 1239.94,-224.44 1250.39,-226.19 1249.19,-219.29"/>
</g>
<!-- Node20 -->
<g id="node20" class="node">
<title>Node20</title>
<g id="a_node20"><a xlink:href="../../d6/d8b/a00821.html" target="_top" xlink:title=" ">
<polygon fill="none" stroke="black" points="1120.5,-168.5 1120.5,-187.5 1260.5,-187.5 1260.5,-168.5 1120.5,-168.5"/>
<text text-anchor="middle" x="1190.5" y="-175.5" font-family="Helvetica,sans-Serif" font-size="10.00">GuildMemberEntities.cpp</text>
</a>
</g>
</g>
<!-- Node17&#45;&gt;Node20 -->
<g id="edge25" class="edge">
<title>Node17&#45;&gt;Node20</title>
<path fill="none" stroke="midnightblue" d="M1190.5,-213.8C1190.5,-204.91 1190.5,-194.78 1190.5,-187.75"/>
<polygon fill="midnightblue" stroke="midnightblue" points="1187,-214.08 1190.5,-224.08 1194,-214.08 1187,-214.08"/>
</g>
<!-- Node17&#45;&gt;Node21 -->
<g id="edge26" class="edge">
<title>Node17&#45;&gt;Node21</title>
<path fill="none" stroke="midnightblue" d="M1251.13,-227.29C1327.14,-219.82 1461.32,-205.58 1575.5,-188 1578.54,-187.53 1581.68,-187.01 1584.83,-186.46"/>
<polygon fill="midnightblue" stroke="midnightblue" points="1250.41,-223.85 1240.8,-228.3 1251.09,-230.81 1250.41,-223.85"/>
</g>
</g>
</svg>
