<?xml version="1.0" encoding="UTF-8" standalone="no"?>
<!DOCTYPE svg PUBLIC "-//W3C//DTD SVG 1.1//EN"
 "http://www.w3.org/Graphics/SVG/1.1/DTD/svg11.dtd">
<!-- Generated by graphviz version 2.43.0 (0)
 -->
<!-- Title: DiscordCoreAPI::SelectMenuCollector::SelectMenuCollector Pages: 1 -->
<svg width="361pt" height="137pt"
 viewBox="0.00 0.00 361.00 137.00" xmlns="http://www.w3.org/2000/svg" xmlns:xlink="http://www.w3.org/1999/xlink">
<g id="graph0" class="graph" transform="scale(1 1) rotate(0) translate(4 133)">
<title>DiscordCoreAPI::SelectMenuCollector::SelectMenuCollector</title>
<!-- Node1 -->
<g id="node1" class="node">
<title>Node1</title>
<g id="a_node1"><a xlink:title="Constructor.">
<polygon fill="#bfbfbf" stroke="black" points="0,-49.5 0,-79.5 167,-79.5 167,-49.5 0,-49.5"/>
<text text-anchor="start" x="8" y="-67.5" font-family="Helvetica,sans-Serif" font-size="10.00">DiscordCoreAPI::SelectMenu</text>
<text text-anchor="middle" x="83.5" y="-56.5" font-family="Helvetica,sans-Serif" font-size="10.00">Collector::SelectMenuCollector</text>
</a>
</g>
</g>
<!-- Node2 -->
<g id="node2" class="node">
<title>Node2</title>
<g id="a_node2"><a xlink:href="../../d9/d95/a02781.html#a97c397fe274250bfff73cf674810a8f5" target="_top" xlink:title="Returns the Channel id of this input&#45;event.">
<polygon fill="none" stroke="black" points="203,-98.5 203,-128.5 353,-128.5 353,-98.5 203,-98.5"/>
<text text-anchor="start" x="211" y="-116.5" font-family="Helvetica,sans-Serif" font-size="10.00">DiscordCoreAPI::InputEvent</text>
<text text-anchor="middle" x="278" y="-105.5" font-family="Helvetica,sans-Serif" font-size="10.00">Data::getChannelId</text>
</a>
</g>
</g>
<!-- Node1&#45;&gt;Node2 -->
<g id="edge1" class="edge">
<title>Node1&#45;&gt;Node2</title>
<path fill="none" stroke="midnightblue" d="M143.56,-79.53C163.98,-84.73 187.04,-90.6 208.17,-95.98"/>
<polygon fill="midnightblue" stroke="midnightblue" points="207.49,-99.42 218.05,-98.49 209.22,-92.64 207.49,-99.42"/>
</g>
<!-- Node3 -->
<g id="node3" class="node">
<title>Node3</title>
<g id="a_node3"><a xlink:href="../../d9/d95/a02781.html#a520bbb225cdbd19ef871d3a00189acff" target="_top" xlink:title="Returns the InteractionData, if applicable, of this input&#45;event.">
<polygon fill="none" stroke="black" points="203,-49.5 203,-79.5 353,-79.5 353,-49.5 203,-49.5"/>
<text text-anchor="start" x="211" y="-67.5" font-family="Helvetica,sans-Serif" font-size="10.00">DiscordCoreAPI::InputEvent</text>
<text text-anchor="middle" x="278" y="-56.5" font-family="Helvetica,sans-Serif" font-size="10.00">Data::getInteractionData</text>
</a>
</g>
</g>
<!-- Node1&#45;&gt;Node3 -->
<g id="edge2" class="edge">
<title>Node1&#45;&gt;Node3</title>
<path fill="none" stroke="midnightblue" d="M167.25,-64.5C175.66,-64.5 184.2,-64.5 192.62,-64.5"/>
<polygon fill="midnightblue" stroke="midnightblue" points="192.82,-68 202.82,-64.5 192.82,-61 192.82,-68"/>
</g>
<!-- Node4 -->
<g id="node4" class="node">
<title>Node4</title>
<g id="a_node4"><a xlink:href="../../d9/d95/a02781.html#af7be2b81b312794ea5398591d1a7e305" target="_top" xlink:title="Returns the Message id, if applicable, of this input&#45;event.">
<polygon fill="none" stroke="black" points="203,-0.5 203,-30.5 353,-30.5 353,-0.5 203,-0.5"/>
<text text-anchor="start" x="211" y="-18.5" font-family="Helvetica,sans-Serif" font-size="10.00">DiscordCoreAPI::InputEvent</text>
<text text-anchor="middle" x="278" y="-7.5" font-family="Helvetica,sans-Serif" font-size="10.00">Data::getMessageId</text>
</a>
</g>
</g>
<!-- Node1&#45;&gt;Node4 -->
<g id="edge3" class="edge">
<title>Node1&#45;&gt;Node4</title>
<path fill="none" stroke="midnightblue" d="M143.56,-49.47C163.98,-44.27 187.04,-38.4 208.17,-33.02"/>
<polygon fill="midnightblue" stroke="midnightblue" points="209.22,-36.36 218.05,-30.51 207.49,-29.58 209.22,-36.36"/>
</g>
</g>
</svg>
