<?xml version="1.0" encoding="UTF-8" standalone="no"?>
<!DOCTYPE svg PUBLIC "-//W3C//DTD SVG 1.1//EN"
 "http://www.w3.org/Graphics/SVG/1.1/DTD/svg11.dtd">
<!-- Generated by graphviz version 2.43.0 (0)
 -->
<!-- Title: AudioEncoder.hpp Pages: 1 -->
<svg width="1487pt" height="364pt"
 viewBox="0.00 0.00 1486.50 364.00" xmlns="http://www.w3.org/2000/svg" xmlns:xlink="http://www.w3.org/1999/xlink">
<g id="graph0" class="graph" transform="scale(1 1) rotate(0) translate(4 360)">
<title>AudioEncoder.hpp</title>
<!-- Node1 -->
<g id="node1" class="node">
<title>Node1</title>
<g id="a_node1"><a xlink:title=" ">
<polygon fill="#bfbfbf" stroke="black" points="505.5,-336.5 505.5,-355.5 609.5,-355.5 609.5,-336.5 505.5,-336.5"/>
<text text-anchor="middle" x="557.5" y="-343.5" font-family="Helvetica,sans-Serif" font-size="10.00">AudioEncoder.hpp</text>
</a>
</g>
</g>
<!-- Node2 -->
<g id="node2" class="node">
<title>Node2</title>
<g id="a_node2"><a xlink:href="../../d4/dfa/a00746.html" target="_top" xlink:title=" ">
<polygon fill="none" stroke="black" points="42,-168.5 42,-187.5 153,-187.5 153,-168.5 42,-168.5"/>
<text text-anchor="middle" x="97.5" y="-175.5" font-family="Helvetica,sans-Serif" font-size="10.00">SoundCloudAPI.hpp</text>
</a>
</g>
</g>
<!-- Node1&#45;&gt;Node2 -->
<g id="edge1" class="edge">
<title>Node1&#45;&gt;Node2</title>
<path fill="none" stroke="midnightblue" d="M495.25,-338.01C417.11,-327.16 280.91,-301.21 178.5,-244 149.54,-227.82 120.36,-201.32 106.24,-187.69"/>
<polygon fill="midnightblue" stroke="midnightblue" points="495.04,-341.52 505.42,-339.39 495.98,-334.58 495.04,-341.52"/>
</g>
<!-- Node17 -->
<g id="node17" class="node">
<title>Node17</title>
<g id="a_node17"><a xlink:href="../../d0/d7e/a00770.html" target="_top" xlink:title=" ">
<polygon fill="none" stroke="black" points="344,-280.5 344,-299.5 463,-299.5 463,-280.5 344,-280.5"/>
<text text-anchor="middle" x="403.5" y="-287.5" font-family="Helvetica,sans-Serif" font-size="10.00">VoiceConnection.hpp</text>
</a>
</g>
</g>
<!-- Node1&#45;&gt;Node17 -->
<g id="edge19" class="edge">
<title>Node1&#45;&gt;Node17</title>
<path fill="none" stroke="midnightblue" d="M523.39,-333.04C494.41,-322.88 453.54,-308.55 427.79,-299.52"/>
<polygon fill="midnightblue" stroke="midnightblue" points="522.5,-336.44 533.1,-336.44 524.82,-329.83 522.5,-336.44"/>
</g>
<!-- Node25 -->
<g id="node25" class="node">
<title>Node25</title>
<g id="a_node25"><a xlink:href="../../d3/d95/a00779.html" target="_top" xlink:title=" ">
<polygon fill="none" stroke="black" points="988.5,-168.5 988.5,-187.5 1080.5,-187.5 1080.5,-168.5 988.5,-168.5"/>
<text text-anchor="middle" x="1034.5" y="-175.5" font-family="Helvetica,sans-Serif" font-size="10.00">YouTubeAPI.hpp</text>
</a>
</g>
</g>
<!-- Node1&#45;&gt;Node25 -->
<g id="edge40" class="edge">
<title>Node1&#45;&gt;Node25</title>
<path fill="none" stroke="midnightblue" d="M576.05,-330.01C594.99,-315.37 625.77,-293.39 655.5,-280 769.59,-228.63 915.16,-198.97 988.24,-186.32"/>
<polygon fill="midnightblue" stroke="midnightblue" points="573.68,-327.42 567.99,-336.35 578.01,-332.92 573.68,-327.42"/>
</g>
<!-- Node26 -->
<g id="node26" class="node">
<title>Node26</title>
<g id="a_node26"><a xlink:href="../../df/d0c/a00788.html" target="_top" xlink:title=" ">
<polygon fill="none" stroke="black" points="664,-280.5 664,-299.5 767,-299.5 767,-280.5 664,-280.5"/>
<text text-anchor="middle" x="715.5" y="-287.5" font-family="Helvetica,sans-Serif" font-size="10.00">AudioEncoder.cpp</text>
</a>
</g>
</g>
<!-- Node1&#45;&gt;Node26 -->
<g id="edge45" class="edge">
<title>Node1&#45;&gt;Node26</title>
<path fill="none" stroke="midnightblue" d="M592.11,-333.17C621.86,-323 664.05,-308.59 690.58,-299.52"/>
<polygon fill="midnightblue" stroke="midnightblue" points="590.87,-329.9 582.54,-336.44 593.13,-336.52 590.87,-329.9"/>
</g>
<!-- Node3 -->
<g id="node3" class="node">
<title>Node3</title>
<g id="a_node3"><a xlink:href="../../df/dbb/a00698.html" target="_top" xlink:title=" ">
<polygon fill="none" stroke="black" points="756,-112.5 756,-131.5 881,-131.5 881,-112.5 756,-112.5"/>
<text text-anchor="middle" x="818.5" y="-119.5" font-family="Helvetica,sans-Serif" font-size="10.00">DiscordCoreClient.hpp</text>
</a>
</g>
</g>
<!-- Node2&#45;&gt;Node3 -->
<g id="edge2" class="edge">
<title>Node2&#45;&gt;Node3</title>
<path fill="none" stroke="midnightblue" d="M163.35,-171.75C179.13,-170.5 195.91,-169.19 211.5,-168 410.11,-152.8 645.34,-135.59 755.58,-127.57"/>
<polygon fill="midnightblue" stroke="midnightblue" points="162.85,-168.28 153.16,-172.55 163.4,-175.25 162.85,-168.28"/>
</g>
<!-- Node9 -->
<g id="node9" class="node">
<title>Node9</title>
<g id="a_node9"><a xlink:href="../../d3/d60/a00818.html" target="_top" xlink:title=" ">
<polygon fill="none" stroke="black" points="224,-56.5 224,-75.5 323,-75.5 323,-56.5 224,-56.5"/>
<text text-anchor="middle" x="273.5" y="-63.5" font-family="Helvetica,sans-Serif" font-size="10.00">GuildEntities.cpp</text>
</a>
</g>
</g>
<!-- Node2&#45;&gt;Node9 -->
<g id="edge16" class="edge">
<title>Node2&#45;&gt;Node9</title>
<path fill="none" stroke="midnightblue" d="M119.89,-163.01C156.83,-139.92 229.48,-94.51 259.75,-75.59"/>
<polygon fill="midnightblue" stroke="midnightblue" points="117.94,-160.1 111.31,-168.37 121.65,-166.04 117.94,-160.1"/>
</g>
<!-- Node12 -->
<g id="node12" class="node">
<title>Node12</title>
<g id="a_node12"><a xlink:href="../../d7/dcf/a00845.html" target="_top" xlink:title=" ">
<polygon fill="none" stroke="black" points="0,-56.5 0,-75.5 77,-75.5 77,-56.5 0,-56.5"/>
<text text-anchor="middle" x="38.5" y="-63.5" font-family="Helvetica,sans-Serif" font-size="10.00">SongAPI.cpp</text>
</a>
</g>
</g>
<!-- Node2&#45;&gt;Node12 -->
<g id="edge17" class="edge">
<title>Node2&#45;&gt;Node12</title>
<path fill="none" stroke="midnightblue" d="M88.02,-159.32C75.17,-135.37 52.74,-93.55 43.11,-75.59"/>
<polygon fill="midnightblue" stroke="midnightblue" points="85.06,-161.21 92.87,-168.37 91.23,-157.9 85.06,-161.21"/>
</g>
<!-- Node13 -->
<g id="node13" class="node">
<title>Node13</title>
<g id="a_node13"><a xlink:href="../../d9/d30/a00848.html" target="_top" xlink:title=" ">
<polygon fill="none" stroke="black" points="95.5,-56.5 95.5,-75.5 205.5,-75.5 205.5,-56.5 95.5,-56.5"/>
<text text-anchor="middle" x="150.5" y="-63.5" font-family="Helvetica,sans-Serif" font-size="10.00">SoundCloudAPI.cpp</text>
</a>
</g>
</g>
<!-- Node2&#45;&gt;Node13 -->
<g id="edge18" class="edge">
<title>Node2&#45;&gt;Node13</title>
<path fill="none" stroke="midnightblue" d="M106.02,-159.32C117.56,-135.37 137.71,-93.55 146.36,-75.59"/>
<polygon fill="midnightblue" stroke="midnightblue" points="102.85,-157.84 101.66,-168.37 109.15,-160.88 102.85,-157.84"/>
</g>
<!-- Node4 -->
<g id="node4" class="node">
<title>Node4</title>
<g id="a_node4"><a xlink:href="../../d8/db9/a00725.html" target="_top" xlink:title=" ">
<polygon fill="none" stroke="black" points="476,-56.5 476,-75.5 541,-75.5 541,-56.5 476,-56.5"/>
<text text-anchor="middle" x="508.5" y="-63.5" font-family="Helvetica,sans-Serif" font-size="10.00">Index.hpp</text>
</a>
</g>
</g>
<!-- Node3&#45;&gt;Node4 -->
<g id="edge3" class="edge">
<title>Node3&#45;&gt;Node4</title>
<path fill="none" stroke="midnightblue" d="M753.26,-110.88C698.91,-102.25 619.5,-89.18 550.5,-76 547.42,-75.41 544.23,-74.78 541.03,-74.12"/>
<polygon fill="midnightblue" stroke="midnightblue" points="753.03,-114.39 763.45,-112.49 754.12,-107.47 753.03,-114.39"/>
</g>
<!-- Node6 -->
<g id="node6" class="node">
<title>Node6</title>
<g id="a_node6"><a xlink:href="../../da/d96/a00782.html" target="_top" xlink:title=" ">
<polygon fill="none" stroke="black" points="559,-56.5 559,-75.5 738,-75.5 738,-56.5 559,-56.5"/>
<text text-anchor="middle" x="648.5" y="-63.5" font-family="Helvetica,sans-Serif" font-size="10.00">ApplicationCommandEntities.cpp</text>
</a>
</g>
</g>
<!-- Node3&#45;&gt;Node6 -->
<g id="edge5" class="edge">
<title>Node3&#45;&gt;Node6</title>
<path fill="none" stroke="midnightblue" d="M781.68,-109.3C749.65,-99.13 703.98,-84.62 675.31,-75.52"/>
<polygon fill="midnightblue" stroke="midnightblue" points="780.97,-112.75 791.56,-112.44 783.09,-106.08 780.97,-112.75"/>
</g>
<!-- Node7 -->
<g id="node7" class="node">
<title>Node7</title>
<g id="a_node7"><a xlink:href="../../d5/d72/a00803.html" target="_top" xlink:title=" ">
<polygon fill="none" stroke="black" points="756,-56.5 756,-75.5 881,-75.5 881,-56.5 756,-56.5"/>
<text text-anchor="middle" x="818.5" y="-63.5" font-family="Helvetica,sans-Serif" font-size="10.00">DiscordCoreClient.cpp</text>
</a>
</g>
</g>
<!-- Node3&#45;&gt;Node7 -->
<g id="edge6" class="edge">
<title>Node3&#45;&gt;Node7</title>
<path fill="none" stroke="midnightblue" d="M818.5,-101.8C818.5,-92.91 818.5,-82.78 818.5,-75.75"/>
<polygon fill="midnightblue" stroke="midnightblue" points="815,-102.08 818.5,-112.08 822,-102.08 815,-102.08"/>
</g>
<!-- Node8 -->
<g id="node8" class="node">
<title>Node8</title>
<g id="a_node8"><a xlink:href="../../d8/db7/a00812.html" target="_top" xlink:title=" ">
<polygon fill="none" stroke="black" points="1125,-56.5 1125,-75.5 1232,-75.5 1232,-56.5 1125,-56.5"/>
<text text-anchor="middle" x="1178.5" y="-63.5" font-family="Helvetica,sans-Serif" font-size="10.00">EventManager.cpp</text>
</a>
</g>
</g>
<!-- Node3&#45;&gt;Node8 -->
<g id="edge7" class="edge">
<title>Node3&#45;&gt;Node8</title>
<path fill="none" stroke="midnightblue" d="M885.47,-110.96C954.63,-100.58 1061.19,-84.6 1124.95,-75.03"/>
<polygon fill="midnightblue" stroke="midnightblue" points="884.91,-107.5 875.54,-112.44 885.95,-114.42 884.91,-107.5"/>
</g>
<!-- Node3&#45;&gt;Node9 -->
<g id="edge8" class="edge">
<title>Node3&#45;&gt;Node9</title>
<path fill="none" stroke="midnightblue" d="M745.94,-112.46C744.44,-112.3 742.96,-112.15 741.5,-112 559.97,-93.41 513.68,-97.77 332.5,-76 329.41,-75.63 326.24,-75.22 323.04,-74.79"/>
<polygon fill="midnightblue" stroke="midnightblue" points="745.58,-115.94 755.9,-113.53 746.33,-108.98 745.58,-115.94"/>
</g>
<!-- Node10 -->
<g id="node10" class="node">
<title>Node10</title>
<g id="a_node10"><a xlink:href="../../dc/d1b/a00827.html" target="_top" xlink:title=" ">
<polygon fill="none" stroke="black" points="899,-56.5 899,-75.5 962,-75.5 962,-56.5 899,-56.5"/>
<text text-anchor="middle" x="930.5" y="-63.5" font-family="Helvetica,sans-Serif" font-size="10.00">Https.cpp</text>
</a>
</g>
</g>
<!-- Node3&#45;&gt;Node10 -->
<g id="edge9" class="edge">
<title>Node3&#45;&gt;Node10</title>
<path fill="none" stroke="midnightblue" d="M845.75,-107.86C866.52,-97.85 894.52,-84.35 912.55,-75.65"/>
<polygon fill="midnightblue" stroke="midnightblue" points="843.98,-104.83 836.49,-112.32 847.02,-111.13 843.98,-104.83"/>
</g>
<!-- Node11 -->
<g id="node11" class="node">
<title>Node11</title>
<g id="a_node11"><a xlink:href="../../d3/d13/a00836.html" target="_top" xlink:title=" ">
<polygon fill="none" stroke="black" points="341,-56.5 341,-75.5 458,-75.5 458,-56.5 341,-56.5"/>
<text text-anchor="middle" x="399.5" y="-63.5" font-family="Helvetica,sans-Serif" font-size="10.00">MessageEntities.cpp</text>
</a>
</g>
</g>
<!-- Node3&#45;&gt;Node11 -->
<g id="edge10" class="edge">
<title>Node3&#45;&gt;Node11</title>
<path fill="none" stroke="midnightblue" d="M745.54,-111.73C674.54,-102.7 563.6,-88.52 467.5,-76 464.43,-75.6 461.28,-75.19 458.1,-74.77"/>
<polygon fill="midnightblue" stroke="midnightblue" points="745.36,-115.24 755.72,-113.03 746.24,-108.3 745.36,-115.24"/>
</g>
<!-- Node3&#45;&gt;Node12 -->
<g id="edge11" class="edge">
<title>Node3&#45;&gt;Node12</title>
<path fill="none" stroke="midnightblue" d="M745.2,-119.5C613.08,-116.12 326.4,-105.75 86.5,-76 83.47,-75.62 80.34,-75.18 77.21,-74.68"/>
<polygon fill="midnightblue" stroke="midnightblue" points="745.51,-123.01 755.59,-119.76 745.68,-116.01 745.51,-123.01"/>
</g>
<!-- Node3&#45;&gt;Node13 -->
<g id="edge12" class="edge">
<title>Node3&#45;&gt;Node13</title>
<path fill="none" stroke="midnightblue" d="M745.46,-117.1C631.75,-110.69 405.61,-96.53 214.5,-76 211.6,-75.69 208.63,-75.35 205.63,-74.99"/>
<polygon fill="midnightblue" stroke="midnightblue" points="745.59,-120.62 755.77,-117.68 745.98,-113.63 745.59,-120.62"/>
</g>
<!-- Node14 -->
<g id="node14" class="node">
<title>Node14</title>
<g id="a_node14"><a xlink:href="../../dc/d17/a00872.html" target="_top" xlink:title=" ">
<polygon fill="none" stroke="black" points="1250.5,-56.5 1250.5,-75.5 1368.5,-75.5 1368.5,-56.5 1250.5,-56.5"/>
<text text-anchor="middle" x="1309.5" y="-63.5" font-family="Helvetica,sans-Serif" font-size="10.00">VoiceConnection.cpp</text>
</a>
</g>
</g>
<!-- Node3&#45;&gt;Node14 -->
<g id="edge13" class="edge">
<title>Node3&#45;&gt;Node14</title>
<path fill="none" stroke="midnightblue" d="M891.25,-113.83C975.58,-105.39 1118.71,-90.65 1241.5,-76 1244.34,-75.66 1247.24,-75.31 1250.17,-74.94"/>
<polygon fill="midnightblue" stroke="midnightblue" points="890.87,-110.35 881.27,-114.83 891.56,-117.32 890.87,-110.35"/>
</g>
<!-- Node15 -->
<g id="node15" class="node">
<title>Node15</title>
<g id="a_node15"><a xlink:href="../../d5/d69/a00878.html" target="_top" xlink:title=" ">
<polygon fill="none" stroke="black" points="980,-56.5 980,-75.5 1107,-75.5 1107,-56.5 980,-56.5"/>
<text text-anchor="middle" x="1043.5" y="-63.5" font-family="Helvetica,sans-Serif" font-size="10.00">WebSocketEntities.cpp</text>
</a>
</g>
</g>
<!-- Node3&#45;&gt;Node15 -->
<g id="edge14" class="edge">
<title>Node3&#45;&gt;Node15</title>
<path fill="none" stroke="midnightblue" d="M863.97,-110.09C906.47,-99.89 969.08,-84.86 1008.01,-75.52"/>
<polygon fill="midnightblue" stroke="midnightblue" points="863.06,-106.71 854.15,-112.44 864.69,-113.51 863.06,-106.71"/>
</g>
<!-- Node16 -->
<g id="node16" class="node">
<title>Node16</title>
<g id="a_node16"><a xlink:href="../../df/d41/a00881.html" target="_top" xlink:title=" ">
<polygon fill="none" stroke="black" points="1386.5,-56.5 1386.5,-75.5 1478.5,-75.5 1478.5,-56.5 1386.5,-56.5"/>
<text text-anchor="middle" x="1432.5" y="-63.5" font-family="Helvetica,sans-Serif" font-size="10.00">YouTubeAPI.cpp</text>
</a>
</g>
</g>
<!-- Node3&#45;&gt;Node16 -->
<g id="edge15" class="edge">
<title>Node3&#45;&gt;Node16</title>
<path fill="none" stroke="midnightblue" d="M891.15,-117.06C997.97,-110.83 1203.59,-97.19 1377.5,-76 1380.38,-75.65 1383.34,-75.26 1386.33,-74.84"/>
<polygon fill="midnightblue" stroke="midnightblue" points="890.91,-113.56 881.12,-117.64 891.31,-120.55 890.91,-113.56"/>
</g>
<!-- Node5 -->
<g id="node5" class="node">
<title>Node5</title>
<g id="a_node5"><a xlink:href="../../d0/dad/a00806.html" target="_top" xlink:title=" ">
<polygon fill="none" stroke="black" points="471.5,-0.5 471.5,-19.5 545.5,-19.5 545.5,-0.5 471.5,-0.5"/>
<text text-anchor="middle" x="508.5" y="-7.5" font-family="Helvetica,sans-Serif" font-size="10.00">DllMain.cpp</text>
</a>
</g>
</g>
<!-- Node4&#45;&gt;Node5 -->
<g id="edge4" class="edge">
<title>Node4&#45;&gt;Node5</title>
<path fill="none" stroke="midnightblue" d="M508.5,-45.8C508.5,-36.91 508.5,-26.78 508.5,-19.75"/>
<polygon fill="midnightblue" stroke="midnightblue" points="505,-46.08 508.5,-56.08 512,-46.08 505,-46.08"/>
</g>
<!-- Node17&#45;&gt;Node3 -->
<g id="edge20" class="edge">
<title>Node17&#45;&gt;Node3</title>
<path fill="none" stroke="midnightblue" d="M390.55,-272.11C372.51,-246.42 344.89,-197.42 371.5,-168 396.78,-140.05 638.61,-128.66 755.65,-124.75"/>
<polygon fill="midnightblue" stroke="midnightblue" points="387.91,-274.43 396.64,-280.44 393.56,-270.3 387.91,-274.43"/>
</g>
<!-- Node17&#45;&gt;Node12 -->
<g id="edge36" class="edge">
<title>Node17&#45;&gt;Node12</title>
<path fill="none" stroke="midnightblue" d="M333.89,-280.12C236.91,-266.16 68.91,-235.64 32.5,-188 6.45,-153.91 25.73,-97.31 34.63,-75.73"/>
<polygon fill="midnightblue" stroke="midnightblue" points="333.52,-283.6 343.91,-281.54 334.5,-276.67 333.52,-283.6"/>
</g>
<!-- Node17&#45;&gt;Node13 -->
<g id="edge37" class="edge">
<title>Node17&#45;&gt;Node13</title>
<path fill="none" stroke="midnightblue" d="M362.29,-277.36C318.94,-263.1 251.59,-234.87 211.5,-188 180.46,-151.71 160.29,-96.89 153.27,-75.74"/>
<polygon fill="midnightblue" stroke="midnightblue" points="361.36,-280.74 371.95,-280.44 363.49,-274.07 361.36,-280.74"/>
</g>
<!-- Node17&#45;&gt;Node14 -->
<g id="edge38" class="edge">
<title>Node17&#45;&gt;Node14</title>
<path fill="none" stroke="midnightblue" d="M473.35,-287.11C646.23,-281.35 1089.19,-259.83 1215.5,-188 1263.37,-160.78 1295.28,-98.47 1305.75,-75.61"/>
<polygon fill="midnightblue" stroke="midnightblue" points="472.98,-283.62 463.1,-287.44 473.21,-290.61 472.98,-283.62"/>
</g>
<!-- Node17&#45;&gt;Node16 -->
<g id="edge39" class="edge">
<title>Node17&#45;&gt;Node16</title>
<path fill="none" stroke="midnightblue" d="M473.43,-286.63C621.56,-281.24 962.67,-266.72 1076.5,-244 1152.44,-228.84 1171.63,-221.4 1241.5,-188 1313.75,-153.46 1392.14,-97.13 1421,-75.67"/>
<polygon fill="midnightblue" stroke="midnightblue" points="472.97,-283.14 463.11,-287 473.23,-290.14 472.97,-283.14"/>
</g>
<!-- Node18 -->
<g id="node18" class="node">
<title>Node18</title>
<g id="a_node18"><a xlink:href="../../d1/d04/a00713.html" target="_top" xlink:title=" ">
<polygon fill="none" stroke="black" points="507.5,-224.5 507.5,-243.5 607.5,-243.5 607.5,-224.5 507.5,-224.5"/>
<text text-anchor="middle" x="557.5" y="-231.5" font-family="Helvetica,sans-Serif" font-size="10.00">GuildEntities.hpp</text>
</a>
</g>
</g>
<!-- Node17&#45;&gt;Node18 -->
<g id="edge21" class="edge">
<title>Node17&#45;&gt;Node18</title>
<path fill="none" stroke="midnightblue" d="M437.61,-277.04C466.59,-266.88 507.46,-252.55 533.21,-243.52"/>
<polygon fill="midnightblue" stroke="midnightblue" points="436.18,-273.83 427.9,-280.44 438.5,-280.44 436.18,-273.83"/>
</g>
<!-- Node24 -->
<g id="node24" class="node">
<title>Node24</title>
<g id="a_node24"><a xlink:href="../../d0/d0a/a00743.html" target="_top" xlink:title=" ">
<polygon fill="none" stroke="black" points="221,-168.5 221,-187.5 298,-187.5 298,-168.5 221,-168.5"/>
<text text-anchor="middle" x="259.5" y="-175.5" font-family="Helvetica,sans-Serif" font-size="10.00">SongAPI.hpp</text>
</a>
</g>
</g>
<!-- Node17&#45;&gt;Node24 -->
<g id="edge32" class="edge">
<title>Node17&#45;&gt;Node24</title>
<path fill="none" stroke="midnightblue" d="M369.88,-276.47C351.78,-268.76 329.71,-257.72 312.5,-244 291.55,-227.3 273.34,-201.03 264.75,-187.57"/>
<polygon fill="midnightblue" stroke="midnightblue" points="368.89,-279.85 379.47,-280.41 371.55,-273.38 368.89,-279.85"/>
</g>
<!-- Node18&#45;&gt;Node3 -->
<g id="edge22" class="edge">
<title>Node18&#45;&gt;Node3</title>
<path fill="none" stroke="midnightblue" d="M497.05,-229.39C433.85,-223.45 348.48,-207.95 384.5,-168 408.88,-140.96 641.4,-129.15 755.7,-124.95"/>
<polygon fill="midnightblue" stroke="midnightblue" points="497.11,-232.91 507.38,-230.3 497.72,-225.94 497.11,-232.91"/>
</g>
<!-- Node18&#45;&gt;Node9 -->
<g id="edge29" class="edge">
<title>Node18&#45;&gt;Node9</title>
<path fill="none" stroke="midnightblue" d="M617.71,-224.49C618.98,-224.32 620.25,-224.16 621.5,-224 693.12,-214.94 988.58,-222.73 941.5,-168 941.5,-168 332.5,-76 332.5,-76 329.43,-75.53 326.26,-75.05 323.07,-74.57"/>
<polygon fill="midnightblue" stroke="midnightblue" points="617.25,-221.02 607.79,-225.79 618.16,-227.96 617.25,-221.02"/>
</g>
<!-- Node19 -->
<g id="node19" class="node">
<title>Node19</title>
<g id="a_node19"><a xlink:href="../../d1/d56/a00707.html" target="_top" xlink:title=" ">
<polygon fill="none" stroke="black" points="1099,-168.5 1099,-187.5 1206,-187.5 1206,-168.5 1099,-168.5"/>
<text text-anchor="middle" x="1152.5" y="-175.5" font-family="Helvetica,sans-Serif" font-size="10.00">EventManager.hpp</text>
</a>
</g>
</g>
<!-- Node18&#45;&gt;Node19 -->
<g id="edge23" class="edge">
<title>Node18&#45;&gt;Node19</title>
<path fill="none" stroke="midnightblue" d="M617.93,-229.02C716.74,-222.27 918.94,-207.38 1089.5,-188 1092.57,-187.65 1095.73,-187.27 1098.91,-186.87"/>
<polygon fill="midnightblue" stroke="midnightblue" points="617.58,-225.54 607.84,-229.71 618.05,-232.52 617.58,-225.54"/>
</g>
<!-- Node20 -->
<g id="node20" class="node">
<title>Node20</title>
<g id="a_node20"><a xlink:href="../../df/d0e/a00800.html" target="_top" xlink:title=" ">
<polygon fill="none" stroke="black" points="486.5,-168.5 486.5,-187.5 628.5,-187.5 628.5,-168.5 486.5,-168.5"/>
<text text-anchor="middle" x="557.5" y="-175.5" font-family="Helvetica,sans-Serif" font-size="10.00">DataParsingFunctions.cpp</text>
</a>
</g>
</g>
<!-- Node18&#45;&gt;Node20 -->
<g id="edge27" class="edge">
<title>Node18&#45;&gt;Node20</title>
<path fill="none" stroke="midnightblue" d="M557.5,-213.8C557.5,-204.91 557.5,-194.78 557.5,-187.75"/>
<polygon fill="midnightblue" stroke="midnightblue" points="554,-214.08 557.5,-224.08 561,-214.08 554,-214.08"/>
</g>
<!-- Node21 -->
<g id="node21" class="node">
<title>Node21</title>
<g id="a_node21"><a xlink:href="../../d8/d2d/a00815.html" target="_top" xlink:title=" ">
<polygon fill="none" stroke="black" points="646.5,-168.5 646.5,-187.5 774.5,-187.5 774.5,-168.5 646.5,-168.5"/>
<text text-anchor="middle" x="710.5" y="-175.5" font-family="Helvetica,sans-Serif" font-size="10.00">FoundationEntities.cpp</text>
</a>
</g>
</g>
<!-- Node18&#45;&gt;Node21 -->
<g id="edge28" class="edge">
<title>Node18&#45;&gt;Node21</title>
<path fill="none" stroke="midnightblue" d="M591.39,-221.04C620.18,-210.88 660.79,-196.55 686.37,-187.52"/>
<polygon fill="midnightblue" stroke="midnightblue" points="590.01,-217.81 581.74,-224.44 592.34,-224.42 590.01,-217.81"/>
</g>
<!-- Node22 -->
<g id="node22" class="node">
<title>Node22</title>
<g id="a_node22"><a xlink:href="../../d6/d8b/a00821.html" target="_top" xlink:title=" ">
<polygon fill="none" stroke="black" points="792.5,-168.5 792.5,-187.5 932.5,-187.5 932.5,-168.5 792.5,-168.5"/>
<text text-anchor="middle" x="862.5" y="-175.5" font-family="Helvetica,sans-Serif" font-size="10.00">GuildMemberEntities.cpp</text>
</a>
</g>
</g>
<!-- Node18&#45;&gt;Node22 -->
<g id="edge30" class="edge">
<title>Node18&#45;&gt;Node22</title>
<path fill="none" stroke="midnightblue" d="M615.88,-222.66C673.52,-212.46 760.62,-197.04 814.4,-187.52"/>
<polygon fill="midnightblue" stroke="midnightblue" points="615.06,-219.25 605.83,-224.44 616.29,-226.15 615.06,-219.25"/>
</g>
<!-- Node23 -->
<g id="node23" class="node">
<title>Node23</title>
<g id="a_node23"><a xlink:href="../../d3/db2/a00869.html" target="_top" xlink:title=" ">
<polygon fill="none" stroke="black" points="393,-168.5 393,-187.5 468,-187.5 468,-168.5 393,-168.5"/>
<text text-anchor="middle" x="430.5" y="-175.5" font-family="Helvetica,sans-Serif" font-size="10.00">Utilities.cpp</text>
</a>
</g>
</g>
<!-- Node18&#45;&gt;Node23 -->
<g id="edge31" class="edge">
<title>Node18&#45;&gt;Node23</title>
<path fill="none" stroke="midnightblue" d="M528.11,-220.5C504.3,-210.38 471.39,-196.39 450.53,-187.52"/>
<polygon fill="midnightblue" stroke="midnightblue" points="526.8,-223.75 537.38,-224.44 529.54,-217.31 526.8,-223.75"/>
</g>
<!-- Node19&#45;&gt;Node3 -->
<g id="edge24" class="edge">
<title>Node19&#45;&gt;Node3</title>
<path fill="none" stroke="midnightblue" d="M1089.35,-166.79C1026.24,-156.59 930.32,-141.08 871.18,-131.52"/>
<polygon fill="midnightblue" stroke="midnightblue" points="1089.15,-170.3 1099.58,-168.44 1090.26,-163.39 1089.15,-170.3"/>
</g>
<!-- Node19&#45;&gt;Node8 -->
<g id="edge25" class="edge">
<title>Node19&#45;&gt;Node8</title>
<path fill="none" stroke="midnightblue" d="M1156.91,-158.35C1162.6,-134.25 1172.28,-93.31 1176.47,-75.59"/>
<polygon fill="midnightblue" stroke="midnightblue" points="1153.43,-157.83 1154.54,-168.37 1160.25,-159.44 1153.43,-157.83"/>
</g>
<!-- Node19&#45;&gt;Node15 -->
<g id="edge26" class="edge">
<title>Node19&#45;&gt;Node15</title>
<path fill="none" stroke="midnightblue" d="M1136.85,-161.21C1113.49,-137.63 1070.28,-94.03 1052.01,-75.59"/>
<polygon fill="midnightblue" stroke="midnightblue" points="1134.42,-163.73 1143.95,-168.37 1139.39,-158.8 1134.42,-163.73"/>
</g>
<!-- Node24&#45;&gt;Node3 -->
<g id="edge33" class="edge">
<title>Node24&#45;&gt;Node3</title>
<path fill="none" stroke="midnightblue" d="M308.55,-168.53C309.88,-168.34 311.2,-168.17 312.5,-168 471.47,-147.47 659.76,-133.41 755.61,-126.98"/>
<polygon fill="midnightblue" stroke="midnightblue" points="307.61,-165.13 298.23,-170.06 308.64,-172.05 307.61,-165.13"/>
</g>
<!-- Node24&#45;&gt;Node9 -->
<g id="edge34" class="edge">
<title>Node24&#45;&gt;Node9</title>
<path fill="none" stroke="midnightblue" d="M261.87,-158.35C264.94,-134.25 270.15,-93.31 272.41,-75.59"/>
<polygon fill="midnightblue" stroke="midnightblue" points="258.39,-158.01 260.6,-168.37 265.33,-158.89 258.39,-158.01"/>
</g>
<!-- Node24&#45;&gt;Node12 -->
<g id="edge35" class="edge">
<title>Node24&#45;&gt;Node12</title>
<path fill="none" stroke="midnightblue" d="M233.14,-163.88C187.33,-141.08 94.25,-94.75 55.76,-75.59"/>
<polygon fill="midnightblue" stroke="midnightblue" points="231.65,-167.05 242.16,-168.37 234.77,-160.78 231.65,-167.05"/>
</g>
<!-- Node25&#45;&gt;Node3 -->
<g id="edge41" class="edge">
<title>Node25&#45;&gt;Node3</title>
<path fill="none" stroke="midnightblue" d="M990.34,-165.96C949.54,-155.76 889.79,-140.82 852.57,-131.52"/>
<polygon fill="midnightblue" stroke="midnightblue" points="989.72,-169.41 1000.27,-168.44 991.42,-162.62 989.72,-169.41"/>
</g>
<!-- Node25&#45;&gt;Node9 -->
<g id="edge42" class="edge">
<title>Node25&#45;&gt;Node9</title>
<path fill="none" stroke="midnightblue" d="M978.33,-168.39C896.35,-155.79 753.01,-133.65 747.5,-132 726.92,-125.84 724.25,-117.56 703.5,-112 543.48,-69.14 496.89,-96.5 332.5,-76 329.42,-75.62 326.24,-75.2 323.05,-74.76"/>
<polygon fill="midnightblue" stroke="midnightblue" points="977.84,-171.85 988.25,-169.91 978.9,-164.93 977.84,-171.85"/>
</g>
<!-- Node25&#45;&gt;Node12 -->
<g id="edge43" class="edge">
<title>Node25&#45;&gt;Node12</title>
<path fill="none" stroke="midnightblue" d="M978.19,-171.26C787.78,-151.83 174.84,-88.97 86.5,-76 83.48,-75.56 80.36,-75.06 77.23,-74.53"/>
<polygon fill="midnightblue" stroke="midnightblue" points="977.97,-174.76 988.27,-172.29 978.68,-167.8 977.97,-174.76"/>
</g>
<!-- Node25&#45;&gt;Node16 -->
<g id="edge44" class="edge">
<title>Node25&#45;&gt;Node16</title>
<path fill="none" stroke="midnightblue" d="M1075.09,-165.78C1154.85,-143.74 1330.44,-95.21 1401.62,-75.53"/>
<polygon fill="midnightblue" stroke="midnightblue" points="1074.11,-162.42 1065.4,-168.46 1075.97,-169.17 1074.11,-162.42"/>
</g>
</g>
</svg>
