<?xml version="1.0" encoding="UTF-8" standalone="no"?>
<!DOCTYPE svg PUBLIC "-//W3C//DTD SVG 1.1//EN"
 "http://www.w3.org/Graphics/SVG/1.1/DTD/svg11.dtd">
<!-- Generated by graphviz version 3.0.0 (20220226.1711)
 -->
<!-- Title: AudioEncoder.hpp Pages: 1 -->
<svg width="1486pt" height="364pt"
 viewBox="0.00 0.00 1485.50 364.00" xmlns="http://www.w3.org/2000/svg" xmlns:xlink="http://www.w3.org/1999/xlink">
<g id="graph0" class="graph" transform="scale(1 1) rotate(0) translate(4 360)">
<title>AudioEncoder.hpp</title>
<!-- Node1 -->
<g id="node1" class="node">
<title>Node1</title>
<g id="a_node1"><a xlink:title=" ">
<polygon fill="#bfbfbf" stroke="black" points="148,-336.5 148,-355.5 244,-355.5 244,-336.5 148,-336.5"/>
<text text-anchor="middle" x="196" y="-343.5" font-family="Helvetica,sans-Serif" font-size="10.00">AudioEncoder.hpp</text>
</a>
</g>
</g>
<!-- Node2 -->
<g id="node2" class="node">
<title>Node2</title>
<g id="a_node2"><a xlink:href="$df/d0c/a00788.html" xlink:title=" ">
<polygon fill="none" stroke="black" points="0,-280.5 0,-299.5 96,-299.5 96,-280.5 0,-280.5"/>
<text text-anchor="middle" x="48" y="-287.5" font-family="Helvetica,sans-Serif" font-size="10.00">AudioEncoder.cpp</text>
</a>
</g>
</g>
<!-- Node1&#45;&gt;Node2 -->
<g id="edge1" class="edge">
<title>Node1&#45;&gt;Node2</title>
<path fill="none" stroke="midnightblue" d="M162.85,-332.91C135.03,-322.75 95.98,-308.51 71.34,-299.52"/>
<polygon fill="midnightblue" stroke="midnightblue" points="161.96,-336.3 172.55,-336.44 164.35,-329.73 161.96,-336.3"/>
</g>
<!-- Node3 -->
<g id="node3" class="node">
<title>Node3</title>
<g id="a_node3"><a xlink:href="$d4/dfa/a00746.html" xlink:title=" ">
<polygon fill="none" stroke="black" points="131,-168.5 131,-187.5 235,-187.5 235,-168.5 131,-168.5"/>
<text text-anchor="middle" x="183" y="-175.5" font-family="Helvetica,sans-Serif" font-size="10.00">SoundCloudAPI.hpp</text>
</a>
</g>
</g>
<!-- Node1&#45;&gt;Node3 -->
<g id="edge2" class="edge">
<title>Node1&#45;&gt;Node3</title>
<path fill="none" stroke="midnightblue" d="M194.51,-325.93C191.69,-289.92 185.68,-213.23 183.67,-187.57"/>
<polygon fill="midnightblue" stroke="midnightblue" points="191.03,-326.38 195.3,-336.08 198.01,-325.83 191.03,-326.38"/>
</g>
<!-- Node18 -->
<g id="node18" class="node">
<title>Node18</title>
<g id="a_node18"><a xlink:href="$d0/d7e/a00770.html" xlink:title=" ">
<polygon fill="none" stroke="black" points="318.5,-280.5 318.5,-299.5 427.5,-299.5 427.5,-280.5 318.5,-280.5"/>
<text text-anchor="middle" x="373" y="-287.5" font-family="Helvetica,sans-Serif" font-size="10.00">VoiceConnection.hpp</text>
</a>
</g>
</g>
<!-- Node1&#45;&gt;Node18 -->
<g id="edge20" class="edge">
<title>Node1&#45;&gt;Node18</title>
<path fill="none" stroke="midnightblue" d="M233.9,-333.44C267.28,-323.26 315.1,-308.66 345.09,-299.52"/>
<polygon fill="midnightblue" stroke="midnightblue" points="232.59,-330.18 224.05,-336.44 234.63,-336.87 232.59,-330.18"/>
</g>
<!-- Node26 -->
<g id="node26" class="node">
<title>Node26</title>
<g id="a_node26"><a xlink:href="$d3/d95/a00779.html" xlink:title=" ">
<polygon fill="none" stroke="black" points="1011.5,-168.5 1011.5,-187.5 1100.5,-187.5 1100.5,-168.5 1011.5,-168.5"/>
<text text-anchor="middle" x="1056" y="-175.5" font-family="Helvetica,sans-Serif" font-size="10.00">YouTubeAPI.hpp</text>
</a>
</g>
</g>
<!-- Node1&#45;&gt;Node26 -->
<g id="edge41" class="edge">
<title>Node1&#45;&gt;Node26</title>
<path fill="none" stroke="midnightblue" d="M253.15,-334.65C351.91,-316.69 560.84,-278.39 737,-244 837.13,-224.45 954.65,-200.16 1015.25,-187.53"/>
<polygon fill="midnightblue" stroke="midnightblue" points="252.3,-331.25 243.09,-336.48 253.55,-338.13 252.3,-331.25"/>
</g>
<!-- Node4 -->
<g id="node4" class="node">
<title>Node4</title>
<g id="a_node4"><a xlink:href="$df/dbb/a00698.html" xlink:title=" ">
<polygon fill="none" stroke="black" points="828.5,-112.5 828.5,-131.5 941.5,-131.5 941.5,-112.5 828.5,-112.5"/>
<text text-anchor="middle" x="885" y="-119.5" font-family="Helvetica,sans-Serif" font-size="10.00">DiscordCoreClient.hpp</text>
</a>
</g>
</g>
<!-- Node3&#45;&gt;Node4 -->
<g id="edge3" class="edge">
<title>Node3&#45;&gt;Node4</title>
<path fill="none" stroke="midnightblue" d="M245.23,-171.19C257.42,-170.09 270.11,-168.98 282,-168 482.87,-151.38 721.62,-134.38 828.44,-126.91"/>
<polygon fill="midnightblue" stroke="midnightblue" points="244.78,-167.71 235.14,-172.1 245.41,-174.69 244.78,-167.71"/>
</g>
<!-- Node8 -->
<g id="node8" class="node">
<title>Node8</title>
<g id="a_node8"><a xlink:href="$d6/d8b/a00821.html" xlink:title=" ">
<polygon fill="none" stroke="black" points="309.5,-56.5 309.5,-75.5 400.5,-75.5 400.5,-56.5 309.5,-56.5"/>
<text text-anchor="middle" x="355" y="-63.5" font-family="Helvetica,sans-Serif" font-size="10.00">GuildEntities.cpp</text>
</a>
</g>
</g>
<!-- Node3&#45;&gt;Node8 -->
<g id="edge17" class="edge">
<title>Node3&#45;&gt;Node8</title>
<path fill="none" stroke="midnightblue" d="M205.34,-162.71C241.58,-139.53 312.11,-94.43 341.57,-75.59"/>
<polygon fill="midnightblue" stroke="midnightblue" points="203.04,-160.03 196.5,-168.37 206.81,-165.93 203.04,-160.03"/>
</g>
<!-- Node13 -->
<g id="node13" class="node">
<title>Node13</title>
<g id="a_node13"><a xlink:href="$d9/d30/a00848.html" xlink:title=" ">
<polygon fill="none" stroke="black" points="95,-56.5 95,-75.5 169,-75.5 169,-56.5 95,-56.5"/>
<text text-anchor="middle" x="132" y="-63.5" font-family="Helvetica,sans-Serif" font-size="10.00">SongAPI.cpp</text>
</a>
</g>
</g>
<!-- Node3&#45;&gt;Node13 -->
<g id="edge18" class="edge">
<title>Node3&#45;&gt;Node13</title>
<path fill="none" stroke="midnightblue" d="M174.65,-159C163.53,-135 144.27,-93.47 135.98,-75.59"/>
<polygon fill="midnightblue" stroke="midnightblue" points="171.62,-160.77 179,-168.37 177.97,-157.82 171.62,-160.77"/>
</g>
<!-- Node14 -->
<g id="node14" class="node">
<title>Node14</title>
<g id="a_node14"><a xlink:href="$df/d4c/a00851.html" xlink:title=" ">
<polygon fill="none" stroke="black" points="187,-56.5 187,-75.5 291,-75.5 291,-56.5 187,-56.5"/>
<text text-anchor="middle" x="239" y="-63.5" font-family="Helvetica,sans-Serif" font-size="10.00">SoundCloudAPI.cpp</text>
</a>
</g>
</g>
<!-- Node3&#45;&gt;Node14 -->
<g id="edge19" class="edge">
<title>Node3&#45;&gt;Node14</title>
<path fill="none" stroke="midnightblue" d="M192,-159.32C204.19,-135.37 225.48,-93.55 234.63,-75.59"/>
<polygon fill="midnightblue" stroke="midnightblue" points="188.81,-157.87 187.39,-168.37 195.05,-161.04 188.81,-157.87"/>
</g>
<!-- Node5 -->
<g id="node5" class="node">
<title>Node5</title>
<g id="a_node5"><a xlink:href="$da/d96/a00782.html" xlink:title=" ">
<polygon fill="none" stroke="black" points="545.5,-56.5 545.5,-75.5 706.5,-75.5 706.5,-56.5 545.5,-56.5"/>
<text text-anchor="middle" x="626" y="-63.5" font-family="Helvetica,sans-Serif" font-size="10.00">ApplicationCommandEntities.cpp</text>
</a>
</g>
</g>
<!-- Node4&#45;&gt;Node5 -->
<g id="edge4" class="edge">
<title>Node4&#45;&gt;Node5</title>
<path fill="none" stroke="midnightblue" d="M833.9,-110.35C784.95,-100.14 712.05,-84.94 666.85,-75.52"/>
<polygon fill="midnightblue" stroke="midnightblue" points="833.46,-113.83 843.96,-112.44 834.89,-106.98 833.46,-113.83"/>
</g>
<!-- Node6 -->
<g id="node6" class="node">
<title>Node6</title>
<g id="a_node6"><a xlink:href="$d0/dad/a00806.html" xlink:title=" ">
<polygon fill="none" stroke="black" points="724.5,-56.5 724.5,-75.5 837.5,-75.5 837.5,-56.5 724.5,-56.5"/>
<text text-anchor="middle" x="781" y="-63.5" font-family="Helvetica,sans-Serif" font-size="10.00">DiscordCoreClient.cpp</text>
</a>
</g>
</g>
<!-- Node4&#45;&gt;Node6 -->
<g id="edge5" class="edge">
<title>Node4&#45;&gt;Node6</title>
<path fill="none" stroke="midnightblue" d="M859.17,-107.59C839.94,-97.61 814.26,-84.27 797.67,-75.65"/>
<polygon fill="midnightblue" stroke="midnightblue" points="857.8,-110.82 868.29,-112.32 861.03,-104.61 857.8,-110.82"/>
</g>
<!-- Node7 -->
<g id="node7" class="node">
<title>Node7</title>
<g id="a_node7"><a xlink:href="$d8/d2d/a00815.html" xlink:title=" ">
<polygon fill="none" stroke="black" points="1146.5,-56.5 1146.5,-75.5 1243.5,-75.5 1243.5,-56.5 1146.5,-56.5"/>
<text text-anchor="middle" x="1195" y="-63.5" font-family="Helvetica,sans-Serif" font-size="10.00">EventManager.cpp</text>
</a>
</g>
</g>
<!-- Node4&#45;&gt;Node7 -->
<g id="edge6" class="edge">
<title>Node4&#45;&gt;Node7</title>
<path fill="none" stroke="midnightblue" d="M943.99,-110.72C1002.66,-100.5 1091.61,-85.01 1146.36,-75.47"/>
<polygon fill="midnightblue" stroke="midnightblue" points="943.37,-107.28 934.12,-112.44 944.57,-114.18 943.37,-107.28"/>
</g>
<!-- Node4&#45;&gt;Node8 -->
<g id="edge7" class="edge">
<title>Node4&#45;&gt;Node8</title>
<path fill="none" stroke="midnightblue" d="M818.45,-112.49C816.95,-112.32 815.47,-112.16 814,-112 634.77,-92.66 588.85,-98.57 410,-76 406.93,-75.61 403.76,-75.18 400.58,-74.72"/>
<polygon fill="midnightblue" stroke="midnightblue" points="818.11,-115.97 828.44,-113.64 818.91,-109.02 818.11,-115.97"/>
</g>
<!-- Node9 -->
<g id="node9" class="node">
<title>Node9</title>
<g id="a_node9"><a xlink:href="$d9/daf/a00830.html" xlink:title=" ">
<polygon fill="none" stroke="black" points="855.5,-56.5 855.5,-75.5 914.5,-75.5 914.5,-56.5 855.5,-56.5"/>
<text text-anchor="middle" x="885" y="-63.5" font-family="Helvetica,sans-Serif" font-size="10.00">Https.cpp</text>
</a>
</g>
</g>
<!-- Node4&#45;&gt;Node9 -->
<g id="edge8" class="edge">
<title>Node4&#45;&gt;Node9</title>
<path fill="none" stroke="midnightblue" d="M885,-101.8C885,-92.91 885,-82.78 885,-75.75"/>
<polygon fill="midnightblue" stroke="midnightblue" points="881.5,-102.08 885,-112.08 888.5,-102.08 881.5,-102.08"/>
</g>
<!-- Node10 -->
<g id="node10" class="node">
<title>Node10</title>
<g id="a_node10"><a xlink:href="$d8/db9/a00725.html" xlink:title=" ">
<polygon fill="none" stroke="black" points="932.5,-56.5 932.5,-75.5 991.5,-75.5 991.5,-56.5 932.5,-56.5"/>
<text text-anchor="middle" x="962" y="-63.5" font-family="Helvetica,sans-Serif" font-size="10.00">Index.hpp</text>
</a>
</g>
</g>
<!-- Node4&#45;&gt;Node10 -->
<g id="edge9" class="edge">
<title>Node4&#45;&gt;Node10</title>
<path fill="none" stroke="midnightblue" d="M905.9,-106.34C919.91,-96.52 937.88,-83.91 949.66,-75.65"/>
<polygon fill="midnightblue" stroke="midnightblue" points="903.55,-103.72 897.37,-112.32 907.57,-109.45 903.55,-103.72"/>
</g>
<!-- Node12 -->
<g id="node12" class="node">
<title>Node12</title>
<g id="a_node12"><a xlink:href="$df/de8/a00839.html" xlink:title=" ">
<polygon fill="none" stroke="black" points="419,-56.5 419,-75.5 527,-75.5 527,-56.5 419,-56.5"/>
<text text-anchor="middle" x="473" y="-63.5" font-family="Helvetica,sans-Serif" font-size="10.00">MessageEntities.cpp</text>
</a>
</g>
</g>
<!-- Node4&#45;&gt;Node12 -->
<g id="edge11" class="edge">
<title>Node4&#45;&gt;Node12</title>
<path fill="none" stroke="midnightblue" d="M818.23,-112.46C732.87,-101.52 589.79,-83.13 537,-76 533.78,-75.56 530.46,-75.11 527.12,-74.65"/>
<polygon fill="midnightblue" stroke="midnightblue" points="817.98,-115.95 828.35,-113.75 818.87,-109.01 817.98,-115.95"/>
</g>
<!-- Node4&#45;&gt;Node13 -->
<g id="edge12" class="edge">
<title>Node4&#45;&gt;Node13</title>
<path fill="none" stroke="midnightblue" d="M818.16,-119.63C692.37,-116.41 412.02,-106.21 178,-76 175.09,-75.62 172.1,-75.18 169.09,-74.69"/>
<polygon fill="midnightblue" stroke="midnightblue" points="818.32,-123.14 828.4,-119.89 818.49,-116.14 818.32,-123.14"/>
</g>
<!-- Node4&#45;&gt;Node14 -->
<g id="edge13" class="edge">
<title>Node4&#45;&gt;Node14</title>
<path fill="none" stroke="midnightblue" d="M817.93,-117.3C709.19,-110.98 487.76,-96.73 301,-76 297.76,-75.64 294.42,-75.24 291.06,-74.82"/>
<polygon fill="midnightblue" stroke="midnightblue" points="817.91,-120.81 828.09,-117.89 818.31,-113.82 817.91,-120.81"/>
</g>
<!-- Node15 -->
<g id="node15" class="node">
<title>Node15</title>
<g id="a_node15"><a xlink:href="$d1/d93/a00875.html" xlink:title=" ">
<polygon fill="none" stroke="black" points="1261.5,-56.5 1261.5,-75.5 1370.5,-75.5 1370.5,-56.5 1261.5,-56.5"/>
<text text-anchor="middle" x="1316" y="-63.5" font-family="Helvetica,sans-Serif" font-size="10.00">VoiceConnection.cpp</text>
</a>
</g>
</g>
<!-- Node4&#45;&gt;Node15 -->
<g id="edge14" class="edge">
<title>Node4&#45;&gt;Node15</title>
<path fill="none" stroke="midnightblue" d="M951.87,-113.24C1025.65,-104.57 1147.88,-89.93 1253,-76 1255.74,-75.64 1258.54,-75.26 1261.37,-74.87"/>
<polygon fill="midnightblue" stroke="midnightblue" points="951.31,-109.78 941.78,-114.42 952.12,-116.73 951.31,-109.78"/>
</g>
<!-- Node16 -->
<g id="node16" class="node">
<title>Node16</title>
<g id="a_node16"><a xlink:href="$df/d41/a00881.html" xlink:title=" ">
<polygon fill="none" stroke="black" points="1009.5,-56.5 1009.5,-75.5 1128.5,-75.5 1128.5,-56.5 1009.5,-56.5"/>
<text text-anchor="middle" x="1069" y="-63.5" font-family="Helvetica,sans-Serif" font-size="10.00">WebSocketEntities.cpp</text>
</a>
</g>
</g>
<!-- Node4&#45;&gt;Node16 -->
<g id="edge15" class="edge">
<title>Node4&#45;&gt;Node16</title>
<path fill="none" stroke="midnightblue" d="M923.95,-109.57C958.66,-99.38 1008.68,-84.7 1039.98,-75.52"/>
<polygon fill="midnightblue" stroke="midnightblue" points="922.77,-106.27 914.16,-112.44 924.74,-112.99 922.77,-106.27"/>
</g>
<!-- Node17 -->
<g id="node17" class="node">
<title>Node17</title>
<g id="a_node17"><a xlink:href="$dd/d08/a00884.html" xlink:title=" ">
<polygon fill="none" stroke="black" points="1388.5,-56.5 1388.5,-75.5 1477.5,-75.5 1477.5,-56.5 1388.5,-56.5"/>
<text text-anchor="middle" x="1433" y="-63.5" font-family="Helvetica,sans-Serif" font-size="10.00">YouTubeAPI.cpp</text>
</a>
</g>
</g>
<!-- Node4&#45;&gt;Node17 -->
<g id="edge16" class="edge">
<title>Node4&#45;&gt;Node17</title>
<path fill="none" stroke="midnightblue" d="M951.64,-116.59C1046.87,-109.91 1227.26,-95.88 1380,-76 1382.68,-75.65 1385.44,-75.26 1388.22,-74.86"/>
<polygon fill="midnightblue" stroke="midnightblue" points="951.31,-113.1 941.58,-117.29 951.79,-120.09 951.31,-113.1"/>
</g>
<!-- Node11 -->
<g id="node11" class="node">
<title>Node11</title>
<g id="a_node11"><a xlink:href="$dd/d7e/a00809.html" xlink:title=" ">
<polygon fill="none" stroke="black" points="928,-0.5 928,-19.5 996,-19.5 996,-0.5 928,-0.5"/>
<text text-anchor="middle" x="962" y="-7.5" font-family="Helvetica,sans-Serif" font-size="10.00">DllMain.cpp</text>
</a>
</g>
</g>
<!-- Node10&#45;&gt;Node11 -->
<g id="edge10" class="edge">
<title>Node10&#45;&gt;Node11</title>
<path fill="none" stroke="midnightblue" d="M962,-45.8C962,-36.91 962,-26.78 962,-19.75"/>
<polygon fill="midnightblue" stroke="midnightblue" points="958.5,-46.08 962,-56.08 965.5,-46.08 958.5,-46.08"/>
</g>
<!-- Node18&#45;&gt;Node4 -->
<g id="edge21" class="edge">
<title>Node18&#45;&gt;Node4</title>
<path fill="none" stroke="midnightblue" d="M377.57,-270.51C385.43,-243.01 404.33,-192.02 441,-168 503.38,-127.14 723,-122.28 828.11,-122.39"/>
<polygon fill="midnightblue" stroke="midnightblue" points="374.13,-269.84 374.93,-280.4 380.89,-271.64 374.13,-269.84"/>
</g>
<!-- Node18&#45;&gt;Node13 -->
<g id="edge33" class="edge">
<title>Node18&#45;&gt;Node13</title>
<path fill="none" stroke="midnightblue" d="M308.39,-282.86C248.76,-273.37 163.38,-249.26 122,-188 97.93,-152.37 118.57,-96.69 127.95,-75.54"/>
<polygon fill="midnightblue" stroke="midnightblue" points="308.06,-286.35 318.47,-284.36 309.09,-279.42 308.06,-286.35"/>
</g>
<!-- Node18&#45;&gt;Node14 -->
<g id="edge38" class="edge">
<title>Node18&#45;&gt;Node14</title>
<path fill="none" stroke="midnightblue" d="M355.28,-273.43C335.09,-254.86 302.28,-222.04 282,-188 258.95,-149.31 245.5,-96.34 240.86,-75.72"/>
<polygon fill="midnightblue" stroke="midnightblue" points="353.08,-276.16 362.84,-280.26 357.77,-270.96 353.08,-276.16"/>
</g>
<!-- Node18&#45;&gt;Node15 -->
<g id="edge39" class="edge">
<title>Node18&#45;&gt;Node15</title>
<path fill="none" stroke="midnightblue" d="M437.82,-287.82C612.84,-283.62 1090.81,-265.19 1225,-188 1272.16,-160.87 1302.55,-98.5 1312.46,-75.62"/>
<polygon fill="midnightblue" stroke="midnightblue" points="437.64,-284.32 427.73,-288.05 437.8,-291.32 437.64,-284.32"/>
</g>
<!-- Node18&#45;&gt;Node17 -->
<g id="edge40" class="edge">
<title>Node18&#45;&gt;Node17</title>
<path fill="none" stroke="midnightblue" d="M437.78,-287.08C589.07,-282.24 962.12,-268.17 1085,-244 1161.4,-228.97 1181.09,-222.29 1251,-188 1320.49,-153.91 1394.8,-97.32 1422.12,-75.73"/>
<polygon fill="midnightblue" stroke="midnightblue" points="437.59,-283.58 427.71,-287.4 437.81,-290.58 437.59,-283.58"/>
</g>
<!-- Node19 -->
<g id="node19" class="node">
<title>Node19</title>
<g id="a_node19"><a xlink:href="$d1/d04/a00713.html" xlink:title=" ">
<polygon fill="none" stroke="black" points="636.5,-224.5 636.5,-243.5 727.5,-243.5 727.5,-224.5 636.5,-224.5"/>
<text text-anchor="middle" x="682" y="-231.5" font-family="Helvetica,sans-Serif" font-size="10.00">GuildEntities.hpp</text>
</a>
</g>
</g>
<!-- Node18&#45;&gt;Node19 -->
<g id="edge22" class="edge">
<title>Node18&#45;&gt;Node19</title>
<path fill="none" stroke="midnightblue" d="M431.96,-278.7C491.45,-268.3 582.04,-252.47 636.29,-242.99"/>
<polygon fill="midnightblue" stroke="midnightblue" points="431.21,-275.27 421.96,-280.44 432.42,-282.17 431.21,-275.27"/>
</g>
<!-- Node25 -->
<g id="node25" class="node">
<title>Node25</title>
<g id="a_node25"><a xlink:href="$d0/d0a/a00743.html" xlink:title=" ">
<polygon fill="none" stroke="black" points="291,-168.5 291,-187.5 365,-187.5 365,-168.5 291,-168.5"/>
<text text-anchor="middle" x="328" y="-175.5" font-family="Helvetica,sans-Serif" font-size="10.00">SongAPI.hpp</text>
</a>
</g>
</g>
<!-- Node18&#45;&gt;Node25 -->
<g id="edge34" class="edge">
<title>Node18&#45;&gt;Node25</title>
<path fill="none" stroke="midnightblue" d="M365.64,-271C355.82,-247 338.83,-205.47 331.51,-187.59"/>
<polygon fill="midnightblue" stroke="midnightblue" points="362.44,-272.44 369.47,-280.37 368.92,-269.79 362.44,-272.44"/>
</g>
<!-- Node19&#45;&gt;Node4 -->
<g id="edge24" class="edge">
<title>Node19&#45;&gt;Node4</title>
<path fill="none" stroke="midnightblue" d="M626.15,-230.11C564.76,-225.63 471.9,-214.56 450,-188 444.34,-181.14 444.05,-174.6 450,-168 474.88,-140.41 716.05,-128.7 828.19,-124.72"/>
<polygon fill="midnightblue" stroke="midnightblue" points="626.25,-233.63 636.47,-230.83 626.73,-226.64 626.25,-233.63"/>
</g>
<!-- Node19&#45;&gt;Node8 -->
<g id="edge30" class="edge">
<title>Node19&#45;&gt;Node8</title>
<path fill="none" stroke="midnightblue" d="M737.65,-232.33C811.38,-230.13 935.5,-221.41 964,-188 969.77,-181.24 969.75,-174.78 964,-168 962.85,-166.64 542.02,-97.62 400.68,-74.48"/>
<polygon fill="midnightblue" stroke="midnightblue" points="737.49,-228.83 727.59,-232.6 737.68,-235.83 737.49,-228.83"/>
</g>
<!-- Node20 -->
<g id="node20" class="node">
<title>Node20</title>
<g id="a_node20"><a xlink:href="$d5/d72/a00803.html" xlink:title=" ">
<polygon fill="none" stroke="black" points="545.5,-168.5 545.5,-187.5 676.5,-187.5 676.5,-168.5 545.5,-168.5"/>
<text text-anchor="middle" x="611" y="-175.5" font-family="Helvetica,sans-Serif" font-size="10.00">DataParsingFunctions.cpp</text>
</a>
</g>
</g>
<!-- Node19&#45;&gt;Node20 -->
<g id="edge23" class="edge">
<title>Node19&#45;&gt;Node20</title>
<path fill="none" stroke="midnightblue" d="M662.41,-218.1C649.63,-208.38 633.39,-196.03 622.61,-187.83"/>
<polygon fill="midnightblue" stroke="midnightblue" points="660.51,-221.06 670.59,-224.32 664.75,-215.48 660.51,-221.06"/>
</g>
<!-- Node21 -->
<g id="node21" class="node">
<title>Node21</title>
<g id="a_node21"><a xlink:href="$d1/d56/a00707.html" xlink:title=" ">
<polygon fill="none" stroke="black" points="1118.5,-168.5 1118.5,-187.5 1215.5,-187.5 1215.5,-168.5 1118.5,-168.5"/>
<text text-anchor="middle" x="1167" y="-175.5" font-family="Helvetica,sans-Serif" font-size="10.00">EventManager.hpp</text>
</a>
</g>
</g>
<!-- Node19&#45;&gt;Node21 -->
<g id="edge25" class="edge">
<title>Node19&#45;&gt;Node21</title>
<path fill="none" stroke="midnightblue" d="M737.77,-228.07C819.57,-220.62 976.8,-205.51 1110,-188 1112.68,-187.65 1115.43,-187.27 1118.21,-186.87"/>
<polygon fill="midnightblue" stroke="midnightblue" points="737.34,-224.59 727.7,-228.98 737.97,-231.56 737.34,-224.59"/>
</g>
<!-- Node22 -->
<g id="node22" class="node">
<title>Node22</title>
<g id="a_node22"><a xlink:href="$d3/d60/a00818.html" xlink:title=" ">
<polygon fill="none" stroke="black" points="695,-168.5 695,-187.5 811,-187.5 811,-168.5 695,-168.5"/>
<text text-anchor="middle" x="753" y="-175.5" font-family="Helvetica,sans-Serif" font-size="10.00">FoundationEntities.cpp</text>
</a>
</g>
</g>
<!-- Node19&#45;&gt;Node22 -->
<g id="edge29" class="edge">
<title>Node19&#45;&gt;Node22</title>
<path fill="none" stroke="midnightblue" d="M701.59,-218.1C714.37,-208.38 730.61,-196.03 741.39,-187.83"/>
<polygon fill="midnightblue" stroke="midnightblue" points="699.25,-215.48 693.41,-224.32 703.49,-221.06 699.25,-215.48"/>
</g>
<!-- Node23 -->
<g id="node23" class="node">
<title>Node23</title>
<g id="a_node23"><a xlink:href="$d8/d1c/a00824.html" xlink:title=" ">
<polygon fill="none" stroke="black" points="829,-168.5 829,-187.5 955,-187.5 955,-168.5 829,-168.5"/>
<text text-anchor="middle" x="892" y="-175.5" font-family="Helvetica,sans-Serif" font-size="10.00">GuildMemberEntities.cpp</text>
</a>
</g>
</g>
<!-- Node19&#45;&gt;Node23 -->
<g id="edge31" class="edge">
<title>Node19&#45;&gt;Node23</title>
<path fill="none" stroke="midnightblue" d="M725.19,-221.89C764.85,-211.7 822.77,-196.8 858.88,-187.52"/>
<polygon fill="midnightblue" stroke="midnightblue" points="724.09,-218.56 715.28,-224.44 725.83,-225.34 724.09,-218.56"/>
</g>
<!-- Node24 -->
<g id="node24" class="node">
<title>Node24</title>
<g id="a_node24"><a xlink:href="$dc/d17/a00872.html" xlink:title=" ">
<polygon fill="none" stroke="black" points="459,-168.5 459,-187.5 527,-187.5 527,-168.5 459,-168.5"/>
<text text-anchor="middle" x="493" y="-175.5" font-family="Helvetica,sans-Serif" font-size="10.00">Utilities.cpp</text>
</a>
</g>
</g>
<!-- Node19&#45;&gt;Node24 -->
<g id="edge32" class="edge">
<title>Node19&#45;&gt;Node24</title>
<path fill="none" stroke="midnightblue" d="M641.99,-221.57C606.33,-211.38 554.96,-196.7 522.81,-187.52"/>
<polygon fill="midnightblue" stroke="midnightblue" points="641.48,-225.06 652.05,-224.44 643.4,-218.33 641.48,-225.06"/>
</g>
<!-- Node21&#45;&gt;Node4 -->
<g id="edge26" class="edge">
<title>Node21&#45;&gt;Node4</title>
<path fill="none" stroke="midnightblue" d="M1112.36,-166.54C1059.06,-156.33 979,-141 929.47,-131.52"/>
<polygon fill="midnightblue" stroke="midnightblue" points="1111.84,-170 1122.32,-168.44 1113.15,-163.13 1111.84,-170"/>
</g>
<!-- Node21&#45;&gt;Node7 -->
<g id="edge27" class="edge">
<title>Node21&#45;&gt;Node7</title>
<path fill="none" stroke="midnightblue" d="M1171.66,-158.67C1177.79,-134.62 1188.28,-93.39 1192.81,-75.59"/>
<polygon fill="midnightblue" stroke="midnightblue" points="1168.27,-157.81 1169.2,-168.37 1175.06,-159.54 1168.27,-157.81"/>
</g>
<!-- Node21&#45;&gt;Node16 -->
<g id="edge28" class="edge">
<title>Node21&#45;&gt;Node16</title>
<path fill="none" stroke="midnightblue" d="M1152.65,-160.9C1131.59,-137.25 1093.01,-93.95 1076.65,-75.59"/>
<polygon fill="midnightblue" stroke="midnightblue" points="1150.04,-163.23 1159.31,-168.37 1155.27,-158.57 1150.04,-163.23"/>
</g>
<!-- Node25&#45;&gt;Node4 -->
<g id="edge35" class="edge">
<title>Node25&#45;&gt;Node4</title>
<path fill="none" stroke="midnightblue" d="M375.2,-168.52C376.48,-168.34 377.75,-168.17 379,-168 541.4,-146.49 734.53,-132.5 828.29,-126.45"/>
<polygon fill="midnightblue" stroke="midnightblue" points="374.62,-165.07 365.27,-170.04 375.68,-171.99 374.62,-165.07"/>
</g>
<!-- Node25&#45;&gt;Node8 -->
<g id="edge36" class="edge">
<title>Node25&#45;&gt;Node8</title>
<path fill="none" stroke="midnightblue" d="M332.58,-158.35C338.49,-134.25 348.54,-93.31 352.89,-75.59"/>
<polygon fill="midnightblue" stroke="midnightblue" points="329.1,-157.82 330.12,-168.37 335.9,-159.49 329.1,-157.82"/>
</g>
<!-- Node25&#45;&gt;Node13 -->
<g id="edge37" class="edge">
<title>Node25&#45;&gt;Node13</title>
<path fill="none" stroke="midnightblue" d="M303.85,-163.45C262.96,-140.5 181.23,-94.63 147.31,-75.59"/>
<polygon fill="midnightblue" stroke="midnightblue" points="302.19,-166.53 312.62,-168.37 305.61,-160.42 302.19,-166.53"/>
</g>
<!-- Node26&#45;&gt;Node4 -->
<g id="edge42" class="edge">
<title>Node26&#45;&gt;Node4</title>
<path fill="none" stroke="midnightblue" d="M1018.96,-165.3C986.74,-155.13 940.81,-140.62 911.97,-131.52"/>
<polygon fill="midnightblue" stroke="midnightblue" points="1018.31,-168.77 1028.9,-168.44 1020.42,-162.09 1018.31,-168.77"/>
</g>
<!-- Node26&#45;&gt;Node8 -->
<g id="edge43" class="edge">
<title>Node26&#45;&gt;Node8</title>
<path fill="none" stroke="midnightblue" d="M1001.13,-168.09C942.33,-158.27 852.98,-142.47 820,-132 799.53,-125.5 796.75,-117.57 776,-112 618.14,-69.61 572.07,-97.21 410,-76 406.93,-75.6 403.77,-75.16 400.59,-74.69"/>
<polygon fill="midnightblue" stroke="midnightblue" points="1000.58,-171.55 1011.02,-169.74 1001.73,-164.64 1000.58,-171.55"/>
</g>
<!-- Node26&#45;&gt;Node13 -->
<g id="edge44" class="edge">
<title>Node26&#45;&gt;Node13</title>
<path fill="none" stroke="midnightblue" d="M1001.49,-171.3C835.65,-153.86 338.77,-100.93 178,-76 175.11,-75.55 172.11,-75.05 169.11,-74.52"/>
<polygon fill="midnightblue" stroke="midnightblue" points="1001.15,-174.78 1011.46,-172.35 1001.88,-167.82 1001.15,-174.78"/>
</g>
<!-- Node26&#45;&gt;Node17 -->
<g id="edge45" class="edge">
<title>Node26&#45;&gt;Node17</title>
<path fill="none" stroke="midnightblue" d="M1094.91,-165.65C1170.68,-143.54 1336.46,-95.17 1403.75,-75.53"/>
<polygon fill="midnightblue" stroke="midnightblue" points="1093.89,-162.3 1085.27,-168.46 1095.85,-169.02 1093.89,-162.3"/>
</g>
</g>
</svg>
