<?xml version="1.0" encoding="UTF-8" standalone="no"?>
<!DOCTYPE svg PUBLIC "-//W3C//DTD SVG 1.1//EN"
 "http://www.w3.org/Graphics/SVG/1.1/DTD/svg11.dtd">
<!-- Generated by graphviz version 2.43.0 (0)
 -->
<!-- Title: DiscordCoreAPI::GuildMemberData Pages: 1 -->
<svg width="195pt" height="140pt"
 viewBox="0.00 0.00 195.00 140.00" xmlns="http://www.w3.org/2000/svg" xmlns:xlink="http://www.w3.org/1999/xlink">
<g id="graph0" class="graph" transform="scale(1 1) rotate(0) translate(4 136)">
<title>DiscordCoreAPI::GuildMemberData</title>
<!-- Node1 -->
<g id="node1" class="node">
<title>Node1</title>
<g id="a_node1"><a xlink:title="Data structure representing a single GuildMember. Data structure representing a single Guild.">
<polygon fill="#bfbfbf" stroke="black" points="0,-56.5 0,-75.5 187,-75.5 187,-56.5 0,-56.5"/>
<text text-anchor="middle" x="93.5" y="-63.5" font-family="Helvetica,sans-Serif" font-size="10.00">DiscordCoreAPI::GuildMemberData</text>
</a>
</g>
</g>
<!-- Node3 -->
<g id="node3" class="node">
<title>Node3</title>
<g id="a_node3"><a xlink:href="../../dd/de7/a03025.html" target="_top" xlink:title="A single GuildMember.">
<polygon fill="none" stroke="black" points="11.5,-0.5 11.5,-19.5 175.5,-19.5 175.5,-0.5 11.5,-0.5"/>
<text text-anchor="middle" x="93.5" y="-7.5" font-family="Helvetica,sans-Serif" font-size="10.00">DiscordCoreAPI::GuildMember</text>
</a>
</g>
</g>
<!-- Node1&#45;&gt;Node3 -->
<g id="edge2" class="edge">
<title>Node1&#45;&gt;Node3</title>
<path fill="none" stroke="midnightblue" d="M93.5,-45.8C93.5,-36.91 93.5,-26.78 93.5,-19.75"/>
<polygon fill="midnightblue" stroke="midnightblue" points="90,-46.08 93.5,-56.08 97,-46.08 90,-46.08"/>
</g>
<!-- Node2 -->
<g id="node2" class="node">
<title>Node2</title>
<g id="a_node2"><a xlink:href="../../df/d4d/a02285.html" target="_top" xlink:title="Base class for all Discord entities.">
<polygon fill="none" stroke="black" points="12,-112.5 12,-131.5 175,-131.5 175,-112.5 12,-112.5"/>
<text text-anchor="middle" x="93.5" y="-119.5" font-family="Helvetica,sans-Serif" font-size="10.00">DiscordCoreAPI::DiscordEntity</text>
</a>
</g>
</g>
<!-- Node2&#45;&gt;Node1 -->
<g id="edge1" class="edge">
<title>Node2&#45;&gt;Node1</title>
<path fill="none" stroke="midnightblue" d="M93.5,-101.8C93.5,-92.91 93.5,-82.78 93.5,-75.75"/>
<polygon fill="midnightblue" stroke="midnightblue" points="90,-102.08 93.5,-112.08 97,-102.08 90,-102.08"/>
</g>
</g>
</svg>
