<?xml version="1.0" encoding="UTF-8" standalone="no"?>
<!DOCTYPE svg PUBLIC "-//W3C//DTD SVG 1.1//EN"
 "http://www.w3.org/Graphics/SVG/1.1/DTD/svg11.dtd">
<!-- Generated by graphviz version 3.0.0 (20220226.1711)
 -->
<!-- Title: ThreadEntities.cpp Pages: 1 -->
<svg width="1798pt" height="543pt"
 viewBox="0.00 0.00 1798.00 543.00" xmlns="http://www.w3.org/2000/svg" xmlns:xlink="http://www.w3.org/1999/xlink">
<g id="graph0" class="graph" transform="scale(1 1) rotate(0) translate(4 539)">
<title>ThreadEntities.cpp</title>
<!-- Node1 -->
<g id="node1" class="node">
<title>Node1</title>
<g id="a_node1"><a xlink:title=" ">
<polygon fill="#bfbfbf" stroke="black" points="632.5,-515.5 632.5,-534.5 730.5,-534.5 730.5,-515.5 632.5,-515.5"/>
<text text-anchor="middle" x="681.5" y="-522.5" font-family="Helvetica,sans-Serif" font-size="10.00">ThreadEntities.cpp</text>
</a>
</g>
</g>
<!-- Node2 -->
<g id="node2" class="node">
<title>Node2</title>
<g id="a_node2"><a xlink:href="../../d2/d4a/a00758.html" target="_top" xlink:title=" ">
<polygon fill="none" stroke="black" points="655.5,-459.5 655.5,-478.5 819.5,-478.5 819.5,-459.5 655.5,-459.5"/>
<text text-anchor="middle" x="737.5" y="-466.5" font-family="Helvetica,sans-Serif" font-size="10.00">discordcoreapi/ThreadEntities.hpp</text>
</a>
</g>
</g>
<!-- Node1&#45;&gt;Node2 -->
<g id="edge1" class="edge">
<title>Node1&#45;&gt;Node2</title>
<path fill="none" stroke="midnightblue" d="M690.5,-515.32C698.69,-507.42 711.01,-495.55 720.97,-485.94"/>
<polygon fill="midnightblue" stroke="midnightblue" points="723.57,-488.29 728.34,-478.83 718.71,-483.26 723.57,-488.29"/>
</g>
<!-- Node31 -->
<g id="node31" class="node">
<title>Node31</title>
<g id="a_node31"><a xlink:href="../../db/d7c/a00722.html" target="_top" xlink:title=" ">
<polygon fill="none" stroke="black" points="564,-291.5 564,-310.5 689,-310.5 689,-291.5 564,-291.5"/>
<text text-anchor="middle" x="626.5" y="-298.5" font-family="Helvetica,sans-Serif" font-size="10.00">discordcoreapi/Https.hpp</text>
</a>
</g>
</g>
<!-- Node1&#45;&gt;Node31 -->
<g id="edge52" class="edge">
<title>Node1&#45;&gt;Node31</title>
<path fill="none" stroke="midnightblue" d="M672.32,-515.31C664.05,-506.88 652.32,-493.3 646.5,-479 624.38,-424.69 624.06,-353.71 625.38,-320.57"/>
<polygon fill="midnightblue" stroke="midnightblue" points="628.87,-320.67 625.88,-310.51 621.88,-320.32 628.87,-320.67"/>
</g>
<!-- Node3 -->
<g id="node3" class="node">
<title>Node3</title>
<g id="a_node3"><a xlink:href="../../d4/deb/a00710.html" target="_top" xlink:title=" ">
<polygon fill="none" stroke="black" points="962,-112.5 962,-142.5 1093,-142.5 1093,-112.5 962,-112.5"/>
<text text-anchor="start" x="970" y="-130.5" font-family="Helvetica,sans-Serif" font-size="10.00">discordcoreapi/Foundation</text>
<text text-anchor="middle" x="1027.5" y="-119.5" font-family="Helvetica,sans-Serif" font-size="10.00">Entities.hpp</text>
</a>
</g>
</g>
<!-- Node2&#45;&gt;Node3 -->
<g id="edge2" class="edge">
<title>Node2&#45;&gt;Node3</title>
<path fill="none" stroke="midnightblue" d="M819.51,-460.88C979.66,-445.87 1318.5,-408.18 1318.5,-358 1318.5,-358 1318.5,-358 1318.5,-244 1318.5,-209.84 1305.62,-198.39 1277.5,-179 1249.7,-159.83 1166.3,-145.58 1103.41,-137.19"/>
<polygon fill="midnightblue" stroke="midnightblue" points="1103.48,-133.67 1093.11,-135.84 1102.57,-140.61 1103.48,-133.67"/>
</g>
<!-- Node29 -->
<g id="node29" class="node">
<title>Node29</title>
<g id="a_node29"><a xlink:href="../../d5/d5b/a00695.html" target="_top" xlink:title=" ">
<polygon fill="none" stroke="black" points="274.5,-403.5 274.5,-422.5 420.5,-422.5 420.5,-403.5 274.5,-403.5"/>
<text text-anchor="middle" x="347.5" y="-410.5" font-family="Helvetica,sans-Serif" font-size="10.00">discordcoreapi/CoRoutine.hpp</text>
</a>
</g>
</g>
<!-- Node2&#45;&gt;Node29 -->
<g id="edge28" class="edge">
<title>Node2&#45;&gt;Node29</title>
<path fill="none" stroke="midnightblue" d="M675.7,-459.44C605.96,-449.79 492.66,-434.1 419.11,-423.92"/>
<polygon fill="midnightblue" stroke="midnightblue" points="419.39,-420.42 409.01,-422.52 418.43,-427.35 419.39,-420.42"/>
</g>
<!-- Node46 -->
<g id="node46" class="node">
<title>Node46</title>
<g id="a_node46"><a xlink:href="../../d1/d87/a00689.html" target="_top" xlink:title=" ">
<polygon fill="none" stroke="black" points="654.5,-347.5 654.5,-366.5 824.5,-366.5 824.5,-347.5 654.5,-347.5"/>
<text text-anchor="middle" x="739.5" y="-354.5" font-family="Helvetica,sans-Serif" font-size="10.00">discordcoreapi/ChannelEntities.hpp</text>
</a>
</g>
</g>
<!-- Node2&#45;&gt;Node46 -->
<g id="edge49" class="edge">
<title>Node2&#45;&gt;Node46</title>
<path fill="none" stroke="midnightblue" d="M737.66,-459.37C737.98,-441.62 738.72,-400.67 739.16,-376.6"/>
<polygon fill="midnightblue" stroke="midnightblue" points="742.66,-376.65 739.34,-366.59 735.66,-376.53 742.66,-376.65"/>
</g>
<!-- Node4 -->
<g id="node4" class="node">
<title>Node4</title>
<g id="a_node4"><a xlink:href="../../d5/dae/a00767.html" target="_top" xlink:title=" ">
<polygon fill="none" stroke="black" points="960.5,-56.5 960.5,-75.5 1094.5,-75.5 1094.5,-56.5 960.5,-56.5"/>
<text text-anchor="middle" x="1027.5" y="-63.5" font-family="Helvetica,sans-Serif" font-size="10.00">discordcoreapi/Utilities.hpp</text>
</a>
</g>
</g>
<!-- Node3&#45;&gt;Node4 -->
<g id="edge3" class="edge">
<title>Node3&#45;&gt;Node4</title>
<path fill="none" stroke="midnightblue" d="M1027.5,-112.4C1027.5,-104.47 1027.5,-94.46 1027.5,-85.86"/>
<polygon fill="midnightblue" stroke="midnightblue" points="1031,-85.66 1027.5,-75.66 1024,-85.66 1031,-85.66"/>
</g>
<!-- Node5 -->
<g id="node5" class="node">
<title>Node5</title>
<g id="a_node5"><a xlink:title=" ">
<polygon fill="none" stroke="#bfbfbf" points="0,-0.5 0,-19.5 57,-19.5 57,-0.5 0,-0.5"/>
<text text-anchor="middle" x="28.5" y="-7.5" font-family="Helvetica,sans-Serif" font-size="10.00">pthread.h</text>
</a>
</g>
</g>
<!-- Node4&#45;&gt;Node5 -->
<g id="edge4" class="edge">
<title>Node4&#45;&gt;Node5</title>
<path fill="none" stroke="midnightblue" d="M960.37,-63.48C775.08,-59.03 258.15,-44.84 66.97,-19.72"/>
<polygon fill="midnightblue" stroke="midnightblue" points="67.41,-16.24 57.03,-18.36 66.46,-23.18 67.41,-16.24"/>
</g>
<!-- Node6 -->
<g id="node6" class="node">
<title>Node6</title>
<g id="a_node6"><a xlink:title=" ">
<polygon fill="none" stroke="#bfbfbf" points="75.5,-0.5 75.5,-19.5 137.5,-19.5 137.5,-0.5 75.5,-0.5"/>
<text text-anchor="middle" x="106.5" y="-7.5" font-family="Helvetica,sans-Serif" font-size="10.00">sys/time.h</text>
</a>
</g>
</g>
<!-- Node4&#45;&gt;Node6 -->
<g id="edge5" class="edge">
<title>Node4&#45;&gt;Node6</title>
<path fill="none" stroke="midnightblue" d="M960.27,-65.45C813.99,-65.6 455.87,-61.41 147.87,-19.95"/>
<polygon fill="midnightblue" stroke="midnightblue" points="148.23,-16.47 137.85,-18.58 147.29,-23.4 148.23,-16.47"/>
</g>
<!-- Node7 -->
<g id="node7" class="node">
<title>Node7</title>
<g id="a_node7"><a xlink:title=" ">
<polygon fill="none" stroke="#bfbfbf" points="155.5,-0.5 155.5,-19.5 199.5,-19.5 199.5,-0.5 155.5,-0.5"/>
<text text-anchor="middle" x="177.5" y="-7.5" font-family="Helvetica,sans-Serif" font-size="10.00">time.h</text>
</a>
</g>
</g>
<!-- Node4&#45;&gt;Node7 -->
<g id="edge6" class="edge">
<title>Node4&#45;&gt;Node7</title>
<path fill="none" stroke="midnightblue" d="M960.38,-63.28C795.18,-58.74 371.22,-45.13 209.95,-19.79"/>
<polygon fill="midnightblue" stroke="midnightblue" points="210.15,-16.28 199.71,-18.1 209.01,-23.18 210.15,-16.28"/>
</g>
<!-- Node8 -->
<g id="node8" class="node">
<title>Node8</title>
<g id="a_node8"><a xlink:title=" ">
<polygon fill="none" stroke="#bfbfbf" points="218,-0.5 218,-19.5 259,-19.5 259,-0.5 218,-0.5"/>
<text text-anchor="middle" x="238.5" y="-7.5" font-family="Helvetica,sans-Serif" font-size="10.00">ctime</text>
</a>
</g>
</g>
<!-- Node4&#45;&gt;Node8 -->
<g id="edge7" class="edge">
<title>Node4&#45;&gt;Node8</title>
<path fill="none" stroke="midnightblue" d="M960.23,-63.1C803.79,-58.36 418.13,-44.68 269.54,-19.91"/>
<polygon fill="midnightblue" stroke="midnightblue" points="269.71,-16.38 259.26,-18.1 268.5,-23.28 269.71,-16.38"/>
</g>
<!-- Node9 -->
<g id="node9" class="node">
<title>Node9</title>
<g id="a_node9"><a xlink:title=" ">
<polygon fill="none" stroke="#bfbfbf" points="277,-0.5 277,-19.5 370,-19.5 370,-0.5 277,-0.5"/>
<text text-anchor="middle" x="323.5" y="-7.5" font-family="Helvetica,sans-Serif" font-size="10.00">condition_variable</text>
</a>
</g>
</g>
<!-- Node4&#45;&gt;Node9 -->
<g id="edge8" class="edge">
<title>Node4&#45;&gt;Node9</title>
<path fill="none" stroke="midnightblue" d="M960.15,-62.32C843.98,-57.27 598.27,-44.64 380.24,-19.97"/>
<polygon fill="midnightblue" stroke="midnightblue" points="380.54,-16.49 370.21,-18.83 379.75,-23.44 380.54,-16.49"/>
</g>
<!-- Node10 -->
<g id="node10" class="node">
<title>Node10</title>
<g id="a_node10"><a xlink:title=" ">
<polygon fill="none" stroke="#bfbfbf" points="388.5,-0.5 388.5,-19.5 486.5,-19.5 486.5,-0.5 388.5,-0.5"/>
<text text-anchor="middle" x="437.5" y="-7.5" font-family="Helvetica,sans-Serif" font-size="10.00">nlohmann/json.hpp</text>
</a>
</g>
</g>
<!-- Node4&#45;&gt;Node10 -->
<g id="edge9" class="edge">
<title>Node4&#45;&gt;Node10</title>
<path fill="none" stroke="midnightblue" d="M960.16,-60.81C860.97,-54.31 669.55,-40.48 496.57,-20.05"/>
<polygon fill="midnightblue" stroke="midnightblue" points="496.86,-16.56 486.51,-18.85 496.03,-23.51 496.86,-16.56"/>
</g>
<!-- Node11 -->
<g id="node11" class="node">
<title>Node11</title>
<g id="a_node11"><a xlink:title=" ">
<polygon fill="none" stroke="#bfbfbf" points="505,-0.5 505,-19.5 590,-19.5 590,-0.5 505,-0.5"/>
<text text-anchor="middle" x="547.5" y="-7.5" font-family="Helvetica,sans-Serif" font-size="10.00">source_location</text>
</a>
</g>
</g>
<!-- Node4&#45;&gt;Node11 -->
<g id="edge10" class="edge">
<title>Node4&#45;&gt;Node11</title>
<path fill="none" stroke="midnightblue" d="M960.24,-59.32C877.87,-52.06 733.85,-38.35 600.06,-19.99"/>
<polygon fill="midnightblue" stroke="midnightblue" points="600.42,-16.5 590.03,-18.6 599.46,-23.44 600.42,-16.5"/>
</g>
<!-- Node12 -->
<g id="node12" class="node">
<title>Node12</title>
<g id="a_node12"><a xlink:title=" ">
<polygon fill="none" stroke="#bfbfbf" points="608,-0.5 608,-19.5 691,-19.5 691,-0.5 608,-0.5"/>
<text text-anchor="middle" x="649.5" y="-7.5" font-family="Helvetica,sans-Serif" font-size="10.00">unordered_map</text>
</a>
</g>
</g>
<!-- Node4&#45;&gt;Node12 -->
<g id="edge11" class="edge">
<title>Node4&#45;&gt;Node12</title>
<path fill="none" stroke="midnightblue" d="M960.38,-56.52C896.46,-48.27 797.29,-35.03 701.39,-20.09"/>
<polygon fill="midnightblue" stroke="midnightblue" points="701.65,-16.59 691.23,-18.5 700.56,-23.5 701.65,-16.59"/>
</g>
<!-- Node13 -->
<g id="node13" class="node">
<title>Node13</title>
<g id="a_node13"><a xlink:title=" ">
<polygon fill="none" stroke="#bfbfbf" points="709.5,-0.5 709.5,-19.5 787.5,-19.5 787.5,-0.5 709.5,-0.5"/>
<text text-anchor="middle" x="748.5" y="-7.5" font-family="Helvetica,sans-Serif" font-size="10.00">shared_mutex</text>
</a>
</g>
</g>
<!-- Node4&#45;&gt;Node13 -->
<g id="edge12" class="edge">
<title>Node4&#45;&gt;Node13</title>
<path fill="none" stroke="midnightblue" d="M983.29,-56.44C932.73,-46.66 850.18,-30.68 797.64,-20.51"/>
<polygon fill="midnightblue" stroke="midnightblue" points="798.03,-17.02 787.55,-18.56 796.7,-23.89 798.03,-17.02"/>
</g>
<!-- Node14 -->
<g id="node14" class="node">
<title>Node14</title>
<g id="a_node14"><a xlink:title=" ">
<polygon fill="none" stroke="#bfbfbf" points="805.5,-0.5 805.5,-19.5 863.5,-19.5 863.5,-0.5 805.5,-0.5"/>
<text text-anchor="middle" x="834.5" y="-7.5" font-family="Helvetica,sans-Serif" font-size="10.00">functional</text>
</a>
</g>
</g>
<!-- Node4&#45;&gt;Node14 -->
<g id="edge13" class="edge">
<title>Node4&#45;&gt;Node14</title>
<path fill="none" stroke="midnightblue" d="M996.92,-56.44C963.5,-47.09 909.87,-32.09 873.46,-21.9"/>
<polygon fill="midnightblue" stroke="midnightblue" points="874.25,-18.49 863.67,-19.16 872.36,-25.23 874.25,-18.49"/>
</g>
<!-- Node15 -->
<g id="node15" class="node">
<title>Node15</title>
<g id="a_node15"><a xlink:title=" ">
<polygon fill="none" stroke="#bfbfbf" points="881.5,-0.5 881.5,-19.5 937.5,-19.5 937.5,-0.5 881.5,-0.5"/>
<text text-anchor="middle" x="909.5" y="-7.5" font-family="Helvetica,sans-Serif" font-size="10.00">coroutine</text>
</a>
</g>
</g>
<!-- Node4&#45;&gt;Node15 -->
<g id="edge14" class="edge">
<title>Node4&#45;&gt;Node15</title>
<path fill="none" stroke="midnightblue" d="M1008.8,-56.44C989.56,-47.64 959.35,-33.81 937.3,-23.72"/>
<polygon fill="midnightblue" stroke="midnightblue" points="938.66,-20.5 928.11,-19.52 935.75,-26.86 938.66,-20.5"/>
</g>
<!-- Node16 -->
<g id="node16" class="node">
<title>Node16</title>
<g id="a_node16"><a xlink:title=" ">
<polygon fill="none" stroke="#bfbfbf" points="956,-0.5 956,-19.5 1021,-19.5 1021,-0.5 956,-0.5"/>
<text text-anchor="middle" x="988.5" y="-7.5" font-family="Helvetica,sans-Serif" font-size="10.00">semaphore</text>
</a>
</g>
</g>
<!-- Node4&#45;&gt;Node16 -->
<g id="edge15" class="edge">
<title>Node4&#45;&gt;Node16</title>
<path fill="none" stroke="midnightblue" d="M1021.06,-56.08C1015.55,-48.46 1007.47,-37.26 1000.74,-27.94"/>
<polygon fill="midnightblue" stroke="midnightblue" points="1003.51,-25.81 994.82,-19.75 997.84,-29.91 1003.51,-25.81"/>
</g>
<!-- Node17 -->
<g id="node17" class="node">
<title>Node17</title>
<g id="a_node17"><a xlink:title=" ">
<polygon fill="none" stroke="#bfbfbf" points="1039.5,-0.5 1039.5,-19.5 1095.5,-19.5 1095.5,-0.5 1039.5,-0.5"/>
<text text-anchor="middle" x="1067.5" y="-7.5" font-family="Helvetica,sans-Serif" font-size="10.00">concepts</text>
</a>
</g>
</g>
<!-- Node4&#45;&gt;Node17 -->
<g id="edge16" class="edge">
<title>Node4&#45;&gt;Node17</title>
<path fill="none" stroke="midnightblue" d="M1034.11,-56.08C1039.76,-48.46 1048.04,-37.26 1054.95,-27.94"/>
<polygon fill="midnightblue" stroke="midnightblue" points="1057.88,-29.87 1061.02,-19.75 1052.25,-25.7 1057.88,-29.87"/>
</g>
<!-- Node18 -->
<g id="node18" class="node">
<title>Node18</title>
<g id="a_node18"><a xlink:title=" ">
<polygon fill="none" stroke="#bfbfbf" points="1113.5,-0.5 1113.5,-19.5 1167.5,-19.5 1167.5,-0.5 1113.5,-0.5"/>
<text text-anchor="middle" x="1140.5" y="-7.5" font-family="Helvetica,sans-Serif" font-size="10.00">iostream</text>
</a>
</g>
</g>
<!-- Node4&#45;&gt;Node18 -->
<g id="edge17" class="edge">
<title>Node4&#45;&gt;Node18</title>
<path fill="none" stroke="midnightblue" d="M1045.41,-56.44C1063.75,-47.68 1092.51,-33.94 1113.59,-23.86"/>
<polygon fill="midnightblue" stroke="midnightblue" points="1115.17,-26.99 1122.68,-19.52 1112.15,-20.67 1115.17,-26.99"/>
</g>
<!-- Node19 -->
<g id="node19" class="node">
<title>Node19</title>
<g id="a_node19"><a xlink:title=" ">
<polygon fill="none" stroke="#bfbfbf" points="1186,-0.5 1186,-19.5 1235,-19.5 1235,-0.5 1186,-0.5"/>
<text text-anchor="middle" x="1210.5" y="-7.5" font-family="Helvetica,sans-Serif" font-size="10.00">fstream</text>
</a>
</g>
</g>
<!-- Node4&#45;&gt;Node19 -->
<g id="edge18" class="edge">
<title>Node4&#45;&gt;Node19</title>
<path fill="none" stroke="midnightblue" d="M1056.5,-56.44C1088.97,-46.86 1141.56,-31.34 1176.09,-21.15"/>
<polygon fill="midnightblue" stroke="midnightblue" points="1177.15,-24.49 1185.75,-18.3 1175.17,-17.78 1177.15,-24.49"/>
</g>
<!-- Node20 -->
<g id="node20" class="node">
<title>Node20</title>
<g id="a_node20"><a xlink:title=" ">
<polygon fill="none" stroke="#bfbfbf" points="1253,-0.5 1253,-19.5 1294,-19.5 1294,-0.5 1253,-0.5"/>
<text text-anchor="middle" x="1273.5" y="-7.5" font-family="Helvetica,sans-Serif" font-size="10.00">bitset</text>
</a>
</g>
</g>
<!-- Node4&#45;&gt;Node20 -->
<g id="edge19" class="edge">
<title>Node4&#45;&gt;Node20</title>
<path fill="none" stroke="midnightblue" d="M1075.22,-56.48C1117.23,-48.66 1180.23,-36.2 1243.27,-20.14"/>
<polygon fill="midnightblue" stroke="midnightblue" points="1244.17,-23.52 1252.97,-17.64 1242.42,-16.75 1244.17,-23.52"/>
</g>
<!-- Node21 -->
<g id="node21" class="node">
<title>Node21</title>
<g id="a_node21"><a xlink:title=" ">
<polygon fill="none" stroke="#bfbfbf" points="1312.5,-0.5 1312.5,-19.5 1364.5,-19.5 1364.5,-0.5 1312.5,-0.5"/>
<text text-anchor="middle" x="1338.5" y="-7.5" font-family="Helvetica,sans-Serif" font-size="10.00">memory</text>
</a>
</g>
</g>
<!-- Node4&#45;&gt;Node21 -->
<g id="edge20" class="edge">
<title>Node4&#45;&gt;Node21</title>
<path fill="none" stroke="midnightblue" d="M1089.73,-56.49C1143.56,-48.75 1223.66,-36.36 1302.13,-20.14"/>
<polygon fill="midnightblue" stroke="midnightblue" points="1303.11,-23.51 1312.19,-18.04 1301.68,-16.66 1303.11,-23.51"/>
</g>
<!-- Node22 -->
<g id="node22" class="node">
<title>Node22</title>
<g id="a_node22"><a xlink:title=" ">
<polygon fill="none" stroke="#bfbfbf" points="1383,-0.5 1383,-19.5 1432,-19.5 1432,-0.5 1383,-0.5"/>
<text text-anchor="middle" x="1407.5" y="-7.5" font-family="Helvetica,sans-Serif" font-size="10.00">random</text>
</a>
</g>
</g>
<!-- Node4&#45;&gt;Node22 -->
<g id="edge21" class="edge">
<title>Node4&#45;&gt;Node22</title>
<path fill="none" stroke="midnightblue" d="M1094.57,-58.88C1162.39,-52.1 1270.35,-39.7 1372.81,-19.9"/>
<polygon fill="midnightblue" stroke="midnightblue" points="1373.56,-23.32 1382.7,-17.96 1372.22,-16.45 1373.56,-23.32"/>
</g>
<!-- Node23 -->
<g id="node23" class="node">
<title>Node23</title>
<g id="a_node23"><a xlink:title=" ">
<polygon fill="none" stroke="#bfbfbf" points="1450,-0.5 1450,-19.5 1491,-19.5 1491,-0.5 1450,-0.5"/>
<text text-anchor="middle" x="1470.5" y="-7.5" font-family="Helvetica,sans-Serif" font-size="10.00">string</text>
</a>
</g>
</g>
<!-- Node4&#45;&gt;Node23 -->
<g id="edge22" class="edge">
<title>Node4&#45;&gt;Node23</title>
<path fill="none" stroke="midnightblue" d="M1094.8,-61.68C1175.14,-56.82 1313.55,-45.63 1439.87,-20.01"/>
<polygon fill="midnightblue" stroke="midnightblue" points="1440.63,-23.42 1449.72,-17.98 1439.22,-16.57 1440.63,-23.42"/>
</g>
<!-- Node24 -->
<g id="node24" class="node">
<title>Node24</title>
<g id="a_node24"><a xlink:title=" ">
<polygon fill="none" stroke="#bfbfbf" points="1509.5,-0.5 1509.5,-19.5 1551.5,-19.5 1551.5,-0.5 1509.5,-0.5"/>
<text text-anchor="middle" x="1530.5" y="-7.5" font-family="Helvetica,sans-Serif" font-size="10.00">vector</text>
</a>
</g>
</g>
<!-- Node4&#45;&gt;Node24 -->
<g id="edge23" class="edge">
<title>Node4&#45;&gt;Node24</title>
<path fill="none" stroke="midnightblue" d="M1094.68,-62.76C1184.84,-58.84 1349.99,-48.43 1499.07,-19.91"/>
<polygon fill="midnightblue" stroke="midnightblue" points="1500.18,-23.26 1509.32,-17.91 1498.84,-16.39 1500.18,-23.26"/>
</g>
<!-- Node25 -->
<g id="node25" class="node">
<title>Node25</title>
<g id="a_node25"><a xlink:title=" ">
<polygon fill="none" stroke="#bfbfbf" points="1569.5,-0.5 1569.5,-19.5 1613.5,-19.5 1613.5,-0.5 1569.5,-0.5"/>
<text text-anchor="middle" x="1591.5" y="-7.5" font-family="Helvetica,sans-Serif" font-size="10.00">thread</text>
</a>
</g>
</g>
<!-- Node4&#45;&gt;Node25 -->
<g id="edge24" class="edge">
<title>Node4&#45;&gt;Node25</title>
<path fill="none" stroke="midnightblue" d="M1094.54,-63.59C1194.19,-60.57 1387.25,-51.11 1559.28,-19.87"/>
<polygon fill="midnightblue" stroke="midnightblue" points="1560.08,-23.28 1569.28,-18.02 1558.81,-16.4 1560.08,-23.28"/>
</g>
<!-- Node26 -->
<g id="node26" class="node">
<title>Node26</title>
<g id="a_node26"><a xlink:title=" ">
<polygon fill="none" stroke="#bfbfbf" points="1631.5,-0.5 1631.5,-19.5 1675.5,-19.5 1675.5,-0.5 1631.5,-0.5"/>
<text text-anchor="middle" x="1653.5" y="-7.5" font-family="Helvetica,sans-Serif" font-size="10.00">mutex</text>
</a>
</g>
</g>
<!-- Node4&#45;&gt;Node26 -->
<g id="edge25" class="edge">
<title>Node4&#45;&gt;Node26</title>
<path fill="none" stroke="midnightblue" d="M1094.55,-64.43C1203.49,-62.53 1425.62,-54.54 1621.39,-19.83"/>
<polygon fill="midnightblue" stroke="midnightblue" points="1622.06,-23.26 1631.28,-18.05 1620.82,-16.38 1622.06,-23.26"/>
</g>
<!-- Node27 -->
<g id="node27" class="node">
<title>Node27</title>
<g id="a_node27"><a xlink:title=" ">
<polygon fill="none" stroke="#bfbfbf" points="1694,-0.5 1694,-19.5 1737,-19.5 1737,-0.5 1694,-0.5"/>
<text text-anchor="middle" x="1715.5" y="-7.5" font-family="Helvetica,sans-Serif" font-size="10.00">queue</text>
</a>
</g>
</g>
<!-- Node4&#45;&gt;Node27 -->
<g id="edge26" class="edge">
<title>Node4&#45;&gt;Node27</title>
<path fill="none" stroke="midnightblue" d="M1094.76,-65.12C1212.54,-64.3 1463.7,-57.97 1683.83,-19.68"/>
<polygon fill="midnightblue" stroke="midnightblue" points="1684.72,-23.08 1693.96,-17.89 1683.5,-16.19 1684.72,-23.08"/>
</g>
<!-- Node28 -->
<g id="node28" class="node">
<title>Node28</title>
<g id="a_node28"><a xlink:title=" ">
<polygon fill="none" stroke="#bfbfbf" points="1755,-0.5 1755,-19.5 1790,-19.5 1790,-0.5 1755,-0.5"/>
<text text-anchor="middle" x="1772.5" y="-7.5" font-family="Helvetica,sans-Serif" font-size="10.00">map</text>
</a>
</g>
</g>
<!-- Node4&#45;&gt;Node28 -->
<g id="edge27" class="edge">
<title>Node4&#45;&gt;Node28</title>
<path fill="none" stroke="midnightblue" d="M1094.59,-63.12C1244.69,-58.54 1604.8,-45.43 1744.69,-19.79"/>
<polygon fill="midnightblue" stroke="midnightblue" points="1745.62,-23.18 1754.77,-17.85 1744.29,-16.31 1745.62,-23.18"/>
</g>
<!-- Node29&#45;&gt;Node3 -->
<g id="edge29" class="edge">
<title>Node29&#45;&gt;Node3</title>
<path fill="none" stroke="midnightblue" d="M285.24,-403.46C192.4,-388.96 28.5,-355.75 28.5,-302 28.5,-302 28.5,-302 28.5,-244 28.5,-209.84 40.04,-196.28 69.5,-179 144.77,-134.86 738.8,-129.15 951.81,-128.53"/>
<polygon fill="midnightblue" stroke="midnightblue" points="951.98,-132.02 961.97,-128.5 951.96,-125.02 951.98,-132.02"/>
</g>
<!-- Node30 -->
<g id="node30" class="node">
<title>Node30</title>
<g id="a_node30"><a xlink:href="../../d3/d4f/a00761.html" target="_top" xlink:title=" ">
<polygon fill="none" stroke="black" points="272.5,-347.5 272.5,-366.5 422.5,-366.5 422.5,-347.5 272.5,-347.5"/>
<text text-anchor="middle" x="347.5" y="-354.5" font-family="Helvetica,sans-Serif" font-size="10.00">discordcoreapi/ThreadPool.hpp</text>
</a>
</g>
</g>
<!-- Node29&#45;&gt;Node30 -->
<g id="edge30" class="edge">
<title>Node29&#45;&gt;Node30</title>
<path fill="none" stroke="midnightblue" d="M347.5,-403.08C347.5,-396.01 347.5,-385.86 347.5,-376.99"/>
<polygon fill="midnightblue" stroke="midnightblue" points="351,-376.75 347.5,-366.75 344,-376.75 351,-376.75"/>
</g>
<!-- Node30&#45;&gt;Node3 -->
<g id="edge31" class="edge">
<title>Node30&#45;&gt;Node3</title>
<path fill="none" stroke="midnightblue" d="M311.23,-347.45C222.66,-325.04 8.09,-260.67 85.5,-179 115.15,-147.72 733.14,-133.73 951.72,-129.75"/>
<polygon fill="midnightblue" stroke="midnightblue" points="951.89,-133.25 961.82,-129.57 951.76,-126.25 951.89,-133.25"/>
</g>
<!-- Node30&#45;&gt;Node31 -->
<g id="edge32" class="edge">
<title>Node30&#45;&gt;Node31</title>
<path fill="none" stroke="midnightblue" d="M391.71,-347.44C440.79,-337.94 520.01,-322.61 572.66,-312.42"/>
<polygon fill="midnightblue" stroke="midnightblue" points="573.35,-315.85 582.5,-310.52 572.02,-308.98 573.35,-315.85"/>
</g>
<!-- Node32 -->
<g id="node32" class="node">
<title>Node32</title>
<g id="a_node32"><a xlink:href="../../d5/de8/a00749.html" target="_top" xlink:title=" ">
<polygon fill="none" stroke="black" points="551.5,-235.5 551.5,-254.5 701.5,-254.5 701.5,-235.5 551.5,-235.5"/>
<text text-anchor="middle" x="626.5" y="-242.5" font-family="Helvetica,sans-Serif" font-size="10.00">discordcoreapi/SSLClients.hpp</text>
</a>
</g>
</g>
<!-- Node31&#45;&gt;Node32 -->
<g id="edge33" class="edge">
<title>Node31&#45;&gt;Node32</title>
<path fill="none" stroke="midnightblue" d="M626.5,-291.08C626.5,-284.01 626.5,-273.86 626.5,-264.99"/>
<polygon fill="midnightblue" stroke="midnightblue" points="630,-264.75 626.5,-254.75 623,-264.75 630,-264.75"/>
</g>
<!-- Node32&#45;&gt;Node3 -->
<g id="edge34" class="edge">
<title>Node32&#45;&gt;Node3</title>
<path fill="none" stroke="midnightblue" d="M701.73,-239.2C784.67,-232.95 912.14,-220.24 955.5,-199 978.24,-187.86 998.29,-166.78 1011.42,-150.55"/>
<polygon fill="midnightblue" stroke="midnightblue" points="1014.23,-152.63 1017.63,-142.59 1008.71,-148.33 1014.23,-152.63"/>
</g>
<!-- Node33 -->
<g id="node33" class="node">
<title>Node33</title>
<g id="a_node33"><a xlink:href="../../d4/d6a/a00704.html" target="_top" xlink:title=" ">
<polygon fill="none" stroke="black" points="1002.5,-179.5 1002.5,-198.5 1160.5,-198.5 1160.5,-179.5 1002.5,-179.5"/>
<text text-anchor="middle" x="1081.5" y="-186.5" font-family="Helvetica,sans-Serif" font-size="10.00">discordcoreapi/EventEntities.hpp</text>
</a>
</g>
</g>
<!-- Node32&#45;&gt;Node33 -->
<g id="edge35" class="edge">
<title>Node32&#45;&gt;Node33</title>
<path fill="none" stroke="midnightblue" d="M698.35,-235.47C780.25,-225.75 913.85,-209.9 999.69,-199.71"/>
<polygon fill="midnightblue" stroke="midnightblue" points="1000.14,-203.18 1009.66,-198.53 999.31,-196.23 1000.14,-203.18"/>
</g>
<!-- Node34 -->
<g id="node34" class="node">
<title>Node34</title>
<g id="a_node34"><a xlink:title=" ">
<polygon fill="none" stroke="#bfbfbf" points="1179,-179.5 1179,-198.5 1252,-198.5 1252,-179.5 1179,-179.5"/>
<text text-anchor="middle" x="1215.5" y="-186.5" font-family="Helvetica,sans-Serif" font-size="10.00">openssl/err.h</text>
</a>
</g>
</g>
<!-- Node32&#45;&gt;Node34 -->
<g id="edge37" class="edge">
<title>Node32&#45;&gt;Node34</title>
<path fill="none" stroke="midnightblue" d="M701.89,-240.39C805.01,-234.86 995.98,-222.54 1168.86,-198.93"/>
<polygon fill="midnightblue" stroke="midnightblue" points="1169.48,-202.37 1178.9,-197.54 1168.52,-195.44 1169.48,-202.37"/>
</g>
<!-- Node35 -->
<g id="node35" class="node">
<title>Node35</title>
<g id="a_node35"><a xlink:title=" ">
<polygon fill="none" stroke="#bfbfbf" points="94.5,-179.5 94.5,-198.5 168.5,-198.5 168.5,-179.5 94.5,-179.5"/>
<text text-anchor="middle" x="131.5" y="-186.5" font-family="Helvetica,sans-Serif" font-size="10.00">openssl/ssl.h</text>
</a>
</g>
</g>
<!-- Node32&#45;&gt;Node35 -->
<g id="edge38" class="edge">
<title>Node32&#45;&gt;Node35</title>
<path fill="none" stroke="midnightblue" d="M551.16,-238.61C463.93,-231.88 315.74,-218.96 178.86,-199.07"/>
<polygon fill="midnightblue" stroke="midnightblue" points="179.01,-195.56 168.61,-197.57 177.99,-202.48 179.01,-195.56"/>
</g>
<!-- Node36 -->
<g id="node36" class="node">
<title>Node36</title>
<g id="a_node36"><a xlink:title=" ">
<polygon fill="none" stroke="#bfbfbf" points="187,-179.5 187,-198.5 230,-198.5 230,-179.5 187,-179.5"/>
<text text-anchor="middle" x="208.5" y="-186.5" font-family="Helvetica,sans-Serif" font-size="10.00">fcntl.h</text>
</a>
</g>
</g>
<!-- Node32&#45;&gt;Node36 -->
<g id="edge39" class="edge">
<title>Node32&#45;&gt;Node36</title>
<path fill="none" stroke="midnightblue" d="M551.5,-239.23C475.11,-233.49 353.23,-221.88 239.9,-198.98"/>
<polygon fill="midnightblue" stroke="midnightblue" points="240.51,-195.53 230.01,-196.95 239.1,-202.39 240.51,-195.53"/>
</g>
<!-- Node37 -->
<g id="node37" class="node">
<title>Node37</title>
<g id="a_node37"><a xlink:title=" ">
<polygon fill="none" stroke="#bfbfbf" points="248,-179.5 248,-198.5 297,-198.5 297,-179.5 248,-179.5"/>
<text text-anchor="middle" x="272.5" y="-186.5" font-family="Helvetica,sans-Serif" font-size="10.00">netdb.h</text>
</a>
</g>
</g>
<!-- Node32&#45;&gt;Node37 -->
<g id="edge40" class="edge">
<title>Node32&#45;&gt;Node37</title>
<path fill="none" stroke="midnightblue" d="M551.45,-236.21C488.46,-229.05 395.98,-217.07 307.25,-199.16"/>
<polygon fill="midnightblue" stroke="midnightblue" points="307.78,-195.7 297.28,-197.12 306.38,-202.56 307.78,-195.7"/>
</g>
<!-- Node38 -->
<g id="node38" class="node">
<title>Node38</title>
<g id="a_node38"><a xlink:title=" ">
<polygon fill="none" stroke="#bfbfbf" points="315,-179.5 315,-198.5 380,-198.5 380,-179.5 315,-179.5"/>
<text text-anchor="middle" x="347.5" y="-186.5" font-family="Helvetica,sans-Serif" font-size="10.00">netinet/in.h</text>
</a>
</g>
</g>
<!-- Node32&#45;&gt;Node38 -->
<g id="edge41" class="edge">
<title>Node32&#45;&gt;Node38</title>
<path fill="none" stroke="midnightblue" d="M579.01,-235.44C533.07,-227.07 461.24,-213.73 390.17,-199.3"/>
<polygon fill="midnightblue" stroke="midnightblue" points="390.65,-195.83 380.16,-197.26 389.25,-202.69 390.65,-195.83"/>
</g>
<!-- Node39 -->
<g id="node39" class="node">
<title>Node39</title>
<g id="a_node39"><a xlink:title=" ">
<polygon fill="none" stroke="#bfbfbf" points="398,-179.5 398,-198.5 469,-198.5 469,-179.5 398,-179.5"/>
<text text-anchor="middle" x="433.5" y="-186.5" font-family="Helvetica,sans-Serif" font-size="10.00">netinet/tcp.h</text>
</a>
</g>
</g>
<!-- Node32&#45;&gt;Node39 -->
<g id="edge42" class="edge">
<title>Node32&#45;&gt;Node39</title>
<path fill="none" stroke="midnightblue" d="M595.92,-235.44C562.89,-226.2 510.11,-211.44 473.73,-201.26"/>
<polygon fill="midnightblue" stroke="midnightblue" points="474.51,-197.84 463.94,-198.52 472.63,-204.58 474.51,-197.84"/>
</g>
<!-- Node40 -->
<g id="node40" class="node">
<title>Node40</title>
<g id="a_node40"><a xlink:title=" ">
<polygon fill="none" stroke="#bfbfbf" points="487,-179.5 487,-198.5 536,-198.5 536,-179.5 487,-179.5"/>
<text text-anchor="middle" x="511.5" y="-186.5" font-family="Helvetica,sans-Serif" font-size="10.00">stdint.h</text>
</a>
</g>
</g>
<!-- Node32&#45;&gt;Node40 -->
<g id="edge43" class="edge">
<title>Node32&#45;&gt;Node40</title>
<path fill="none" stroke="midnightblue" d="M608.28,-235.44C589.6,-226.68 560.34,-212.94 538.88,-202.86"/>
<polygon fill="midnightblue" stroke="midnightblue" points="540.18,-199.6 529.64,-198.52 537.2,-205.93 540.18,-199.6"/>
</g>
<!-- Node41 -->
<g id="node41" class="node">
<title>Node41</title>
<g id="a_node41"><a xlink:title=" ">
<polygon fill="none" stroke="#bfbfbf" points="554.5,-179.5 554.5,-198.5 618.5,-198.5 618.5,-179.5 554.5,-179.5"/>
<text text-anchor="middle" x="586.5" y="-186.5" font-family="Helvetica,sans-Serif" font-size="10.00">sys/epoll.h</text>
</a>
</g>
</g>
<!-- Node32&#45;&gt;Node41 -->
<g id="edge44" class="edge">
<title>Node32&#45;&gt;Node41</title>
<path fill="none" stroke="midnightblue" d="M619.89,-235.08C614.24,-227.46 605.96,-216.26 599.05,-206.94"/>
<polygon fill="midnightblue" stroke="midnightblue" points="601.75,-204.7 592.98,-198.75 596.12,-208.87 601.75,-204.7"/>
</g>
<!-- Node42 -->
<g id="node42" class="node">
<title>Node42</title>
<g id="a_node42"><a xlink:title=" ">
<polygon fill="none" stroke="#bfbfbf" points="636.5,-179.5 636.5,-198.5 698.5,-198.5 698.5,-179.5 636.5,-179.5"/>
<text text-anchor="middle" x="667.5" y="-186.5" font-family="Helvetica,sans-Serif" font-size="10.00">arpa/inet.h</text>
</a>
</g>
</g>
<!-- Node32&#45;&gt;Node42 -->
<g id="edge45" class="edge">
<title>Node32&#45;&gt;Node42</title>
<path fill="none" stroke="midnightblue" d="M633.27,-235.08C639.06,-227.46 647.56,-216.26 654.64,-206.94"/>
<polygon fill="midnightblue" stroke="midnightblue" points="657.6,-208.83 660.86,-198.75 652.02,-204.6 657.6,-208.83"/>
</g>
<!-- Node43 -->
<g id="node43" class="node">
<title>Node43</title>
<g id="a_node43"><a xlink:title=" ">
<polygon fill="none" stroke="#bfbfbf" points="717,-179.5 717,-198.5 790,-198.5 790,-179.5 717,-179.5"/>
<text text-anchor="middle" x="753.5" y="-186.5" font-family="Helvetica,sans-Serif" font-size="10.00">sys/socket.h</text>
</a>
</g>
</g>
<!-- Node32&#45;&gt;Node43 -->
<g id="edge46" class="edge">
<title>Node32&#45;&gt;Node43</title>
<path fill="none" stroke="midnightblue" d="M646.62,-235.44C667.52,-226.56 700.43,-212.56 724.22,-202.45"/>
<polygon fill="midnightblue" stroke="midnightblue" points="725.64,-205.65 733.47,-198.52 722.9,-199.21 725.64,-205.65"/>
</g>
<!-- Node44 -->
<g id="node44" class="node">
<title>Node44</title>
<g id="a_node44"><a xlink:title=" ">
<polygon fill="none" stroke="#bfbfbf" points="808.5,-179.5 808.5,-198.5 876.5,-198.5 876.5,-179.5 808.5,-179.5"/>
<text text-anchor="middle" x="842.5" y="-186.5" font-family="Helvetica,sans-Serif" font-size="10.00">sys/types.h</text>
</a>
</g>
</g>
<!-- Node32&#45;&gt;Node44 -->
<g id="edge47" class="edge">
<title>Node32&#45;&gt;Node44</title>
<path fill="none" stroke="midnightblue" d="M660.73,-235.44C698.01,-226.12 757.77,-211.18 798.51,-201"/>
<polygon fill="midnightblue" stroke="midnightblue" points="799.58,-204.34 808.43,-198.52 797.88,-197.55 799.58,-204.34"/>
</g>
<!-- Node45 -->
<g id="node45" class="node">
<title>Node45</title>
<g id="a_node45"><a xlink:title=" ">
<polygon fill="none" stroke="#bfbfbf" points="895,-179.5 895,-198.5 946,-198.5 946,-179.5 895,-179.5"/>
<text text-anchor="middle" x="920.5" y="-186.5" font-family="Helvetica,sans-Serif" font-size="10.00">unistd.h</text>
</a>
</g>
</g>
<!-- Node32&#45;&gt;Node45 -->
<g id="edge48" class="edge">
<title>Node32&#45;&gt;Node45</title>
<path fill="none" stroke="midnightblue" d="M683.08,-235.5C733.46,-227.63 809.36,-215.04 884.79,-199"/>
<polygon fill="midnightblue" stroke="midnightblue" points="885.9,-202.34 894.94,-196.82 884.43,-195.5 885.9,-202.34"/>
</g>
<!-- Node33&#45;&gt;Node3 -->
<g id="edge36" class="edge">
<title>Node33&#45;&gt;Node3</title>
<path fill="none" stroke="midnightblue" d="M1073.76,-179.48C1066.79,-171.79 1056.24,-160.17 1046.98,-149.96"/>
<polygon fill="midnightblue" stroke="midnightblue" points="1049.54,-147.58 1040.23,-142.52 1044.36,-152.28 1049.54,-147.58"/>
</g>
<!-- Node46&#45;&gt;Node3 -->
<g id="edge50" class="edge">
<title>Node46&#45;&gt;Node3</title>
<path fill="none" stroke="midnightblue" d="M796.79,-347.43C920.34,-327.65 1205.25,-274.66 1261.5,-199 1266.8,-191.87 1267.08,-185.92 1261.5,-179 1241.75,-154.53 1163.58,-141.34 1102.97,-134.65"/>
<polygon fill="midnightblue" stroke="midnightblue" points="1103.33,-131.17 1093.02,-133.59 1102.59,-138.13 1103.33,-131.17"/>
</g>
<!-- Node46&#45;&gt;Node31 -->
<g id="edge51" class="edge">
<title>Node46&#45;&gt;Node31</title>
<path fill="none" stroke="midnightblue" d="M721.59,-347.44C703.25,-338.68 674.49,-324.94 653.41,-314.86"/>
<polygon fill="midnightblue" stroke="midnightblue" points="654.85,-311.67 644.32,-310.52 651.83,-317.99 654.85,-311.67"/>
</g>
</g>
</svg>
