<?xml version="1.0" encoding="UTF-8" standalone="no"?>
<!DOCTYPE svg PUBLIC "-//W3C//DTD SVG 1.1//EN"
 "http://www.w3.org/Graphics/SVG/1.1/DTD/svg11.dtd">
<!-- Generated by graphviz version 3.0.0 (20220226.1711)
 -->
<!-- Title: ThreadEntities.cpp Pages: 1 -->
<svg width="2093pt" height="543pt"
 viewBox="0.00 0.00 2093.00 543.00" xmlns="http://www.w3.org/2000/svg" xmlns:xlink="http://www.w3.org/1999/xlink">
<g id="graph0" class="graph" transform="scale(1 1) rotate(0) translate(4 539)">
<title>ThreadEntities.cpp</title>
<!-- Node1 -->
<g id="node1" class="node">
<title>Node1</title>
<g id="a_node1"><a xlink:title=" ">
<polygon fill="#bfbfbf" stroke="black" points="975,-515.5 975,-534.5 1073,-534.5 1073,-515.5 975,-515.5"/>
<text text-anchor="middle" x="1024" y="-522.5" font-family="Helvetica,sans-Serif" font-size="10.00">ThreadEntities.cpp</text>
</a>
</g>
</g>
<!-- Node2 -->
<g id="node2" class="node">
<title>Node2</title>
<g id="a_node2"><a xlink:href="../../d2/d4a/a00758.html" target="_top" xlink:title=" ">
<polygon fill="none" stroke="black" points="886,-459.5 886,-478.5 1050,-478.5 1050,-459.5 886,-459.5"/>
<text text-anchor="middle" x="968" y="-466.5" font-family="Helvetica,sans-Serif" font-size="10.00">discordcoreapi/ThreadEntities.hpp</text>
</a>
</g>
</g>
<!-- Node1&#45;&gt;Node2 -->
<g id="edge1" class="edge">
<title>Node1&#45;&gt;Node2</title>
<path fill="none" stroke="midnightblue" d="M1015,-515.32C1006.81,-507.42 994.49,-495.55 984.53,-485.94"/>
<polygon fill="midnightblue" stroke="midnightblue" points="986.79,-483.26 977.16,-478.83 981.93,-488.29 986.79,-483.26"/>
</g>
<!-- Node31 -->
<g id="node31" class="node">
<title>Node31</title>
<g id="a_node31"><a xlink:href="../../db/d7c/a00722.html" target="_top" xlink:title=" ">
<polygon fill="none" stroke="black" points="1126.5,-291.5 1126.5,-310.5 1251.5,-310.5 1251.5,-291.5 1126.5,-291.5"/>
<text text-anchor="middle" x="1189" y="-298.5" font-family="Helvetica,sans-Serif" font-size="10.00">discordcoreapi/Https.hpp</text>
</a>
</g>
</g>
<!-- Node1&#45;&gt;Node31 -->
<g id="edge53" class="edge">
<title>Node1&#45;&gt;Node31</title>
<path fill="none" stroke="midnightblue" d="M1034.98,-515.37C1062.05,-493.52 1132.49,-433.02 1170,-367 1178.17,-352.63 1183.1,-334.43 1185.88,-320.95"/>
<polygon fill="midnightblue" stroke="midnightblue" points="1189.36,-321.39 1187.74,-310.92 1182.47,-320.12 1189.36,-321.39"/>
</g>
<!-- Node3 -->
<g id="node3" class="node">
<title>Node3</title>
<g id="a_node3"><a xlink:href="../../d5/d5b/a00695.html" target="_top" xlink:title=" ">
<polygon fill="none" stroke="black" points="825,-403.5 825,-422.5 971,-422.5 971,-403.5 825,-403.5"/>
<text text-anchor="middle" x="898" y="-410.5" font-family="Helvetica,sans-Serif" font-size="10.00">discordcoreapi/CoRoutine.hpp</text>
</a>
</g>
</g>
<!-- Node2&#45;&gt;Node3 -->
<g id="edge2" class="edge">
<title>Node2&#45;&gt;Node3</title>
<path fill="none" stroke="midnightblue" d="M956.75,-459.32C946.2,-451.18 930.2,-438.84 917.56,-429.09"/>
<polygon fill="midnightblue" stroke="midnightblue" points="919.51,-426.17 909.45,-422.83 915.23,-431.71 919.51,-426.17"/>
</g>
<!-- Node4 -->
<g id="node4" class="node">
<title>Node4</title>
<g id="a_node4"><a xlink:href="../../d4/deb/a00710.html" target="_top" xlink:title=" ">
<polygon fill="none" stroke="black" points="805.5,-112.5 805.5,-142.5 936.5,-142.5 936.5,-112.5 805.5,-112.5"/>
<text text-anchor="start" x="813.5" y="-130.5" font-family="Helvetica,sans-Serif" font-size="10.00">discordcoreapi/Foundation</text>
<text text-anchor="middle" x="871" y="-119.5" font-family="Helvetica,sans-Serif" font-size="10.00">Entities.hpp</text>
</a>
</g>
</g>
<!-- Node2&#45;&gt;Node4 -->
<g id="edge49" class="edge">
<title>Node2&#45;&gt;Node4</title>
<path fill="none" stroke="midnightblue" d="M892.42,-459.49C831.88,-447.98 757,-421 757,-358 757,-358 757,-358 757,-244 757,-200.22 799,-167.03 832.02,-147.71"/>
<polygon fill="midnightblue" stroke="midnightblue" points="834.05,-150.58 841.05,-142.63 830.62,-144.48 834.05,-150.58"/>
</g>
<!-- Node46 -->
<g id="node46" class="node">
<title>Node46</title>
<g id="a_node46"><a xlink:href="../../d1/d87/a00689.html" target="_top" xlink:title=" ">
<polygon fill="none" stroke="black" points="991,-347.5 991,-366.5 1161,-366.5 1161,-347.5 991,-347.5"/>
<text text-anchor="middle" x="1076" y="-354.5" font-family="Helvetica,sans-Serif" font-size="10.00">discordcoreapi/ChannelEntities.hpp</text>
</a>
</g>
</g>
<!-- Node2&#45;&gt;Node46 -->
<g id="edge50" class="edge">
<title>Node2&#45;&gt;Node46</title>
<path fill="none" stroke="midnightblue" d="M976.47,-459.37C994.61,-440.89 1037.42,-397.29 1060.54,-373.74"/>
<polygon fill="midnightblue" stroke="midnightblue" points="1063.06,-376.18 1067.56,-366.59 1058.06,-371.28 1063.06,-376.18"/>
</g>
<!-- Node3&#45;&gt;Node4 -->
<g id="edge3" class="edge">
<title>Node3&#45;&gt;Node4</title>
<path fill="none" stroke="midnightblue" d="M870.08,-403.43C851.67,-396.42 828.39,-384.73 814,-367 795.04,-343.63 795,-332.1 795,-302 795,-302 795,-302 795,-244 795,-205.99 824.07,-170.82 846.25,-149.51"/>
<polygon fill="midnightblue" stroke="midnightblue" points="848.79,-151.93 853.75,-142.57 844.04,-146.79 848.79,-151.93"/>
</g>
<!-- Node30 -->
<g id="node30" class="node">
<title>Node30</title>
<g id="a_node30"><a xlink:href="../../d3/d4f/a00761.html" target="_top" xlink:title=" ">
<polygon fill="none" stroke="black" points="823,-347.5 823,-366.5 973,-366.5 973,-347.5 823,-347.5"/>
<text text-anchor="middle" x="898" y="-354.5" font-family="Helvetica,sans-Serif" font-size="10.00">discordcoreapi/ThreadPool.hpp</text>
</a>
</g>
</g>
<!-- Node3&#45;&gt;Node30 -->
<g id="edge29" class="edge">
<title>Node3&#45;&gt;Node30</title>
<path fill="none" stroke="midnightblue" d="M898,-403.08C898,-396.01 898,-385.86 898,-376.99"/>
<polygon fill="midnightblue" stroke="midnightblue" points="901.5,-376.75 898,-366.75 894.5,-376.75 901.5,-376.75"/>
</g>
<!-- Node5 -->
<g id="node5" class="node">
<title>Node5</title>
<g id="a_node5"><a xlink:href="../../d5/dae/a00767.html" target="_top" xlink:title=" ">
<polygon fill="none" stroke="black" points="914,-56.5 914,-75.5 1048,-75.5 1048,-56.5 914,-56.5"/>
<text text-anchor="middle" x="981" y="-63.5" font-family="Helvetica,sans-Serif" font-size="10.00">discordcoreapi/Utilities.hpp</text>
</a>
</g>
</g>
<!-- Node4&#45;&gt;Node5 -->
<g id="edge4" class="edge">
<title>Node4&#45;&gt;Node5</title>
<path fill="none" stroke="midnightblue" d="M897.07,-112.4C914.87,-102.77 938.31,-90.09 955.9,-80.58"/>
<polygon fill="midnightblue" stroke="midnightblue" points="957.86,-83.49 964.99,-75.66 954.53,-77.34 957.86,-83.49"/>
</g>
<!-- Node6 -->
<g id="node6" class="node">
<title>Node6</title>
<g id="a_node6"><a xlink:title=" ">
<polygon fill="none" stroke="#bfbfbf" points="1648.5,-0.5 1648.5,-19.5 1705.5,-19.5 1705.5,-0.5 1648.5,-0.5"/>
<text text-anchor="middle" x="1677" y="-7.5" font-family="Helvetica,sans-Serif" font-size="10.00">pthread.h</text>
</a>
</g>
</g>
<!-- Node5&#45;&gt;Node6 -->
<g id="edge5" class="edge">
<title>Node5&#45;&gt;Node6</title>
<path fill="none" stroke="midnightblue" d="M1048.3,-64.18C1166.2,-61.92 1417.76,-53.42 1638.27,-20.02"/>
<polygon fill="midnightblue" stroke="midnightblue" points="1639.06,-23.44 1648.41,-18.46 1638,-16.52 1639.06,-23.44"/>
</g>
<!-- Node7 -->
<g id="node7" class="node">
<title>Node7</title>
<g id="a_node7"><a xlink:title=" ">
<polygon fill="none" stroke="#bfbfbf" points="0,-0.5 0,-19.5 62,-19.5 62,-0.5 0,-0.5"/>
<text text-anchor="middle" x="31" y="-7.5" font-family="Helvetica,sans-Serif" font-size="10.00">sys/time.h</text>
</a>
</g>
</g>
<!-- Node5&#45;&gt;Node7 -->
<g id="edge6" class="edge">
<title>Node5&#45;&gt;Node7</title>
<path fill="none" stroke="midnightblue" d="M913.85,-65.61C764.16,-66.13 391.81,-62.71 72.26,-19.93"/>
<polygon fill="midnightblue" stroke="midnightblue" points="72.73,-16.46 62.35,-18.59 71.79,-23.4 72.73,-16.46"/>
</g>
<!-- Node8 -->
<g id="node8" class="node">
<title>Node8</title>
<g id="a_node8"><a xlink:title=" ">
<polygon fill="none" stroke="#bfbfbf" points="80,-0.5 80,-19.5 124,-19.5 124,-0.5 80,-0.5"/>
<text text-anchor="middle" x="102" y="-7.5" font-family="Helvetica,sans-Serif" font-size="10.00">time.h</text>
</a>
</g>
</g>
<!-- Node5&#45;&gt;Node8 -->
<g id="edge7" class="edge">
<title>Node5&#45;&gt;Node8</title>
<path fill="none" stroke="midnightblue" d="M913.72,-63.42C744.05,-59.13 300.94,-45.9 134.08,-19.73"/>
<polygon fill="midnightblue" stroke="midnightblue" points="134.64,-16.28 124.21,-18.11 133.51,-23.18 134.64,-16.28"/>
</g>
<!-- Node9 -->
<g id="node9" class="node">
<title>Node9</title>
<g id="a_node9"><a xlink:title=" ">
<polygon fill="none" stroke="#bfbfbf" points="142.5,-0.5 142.5,-19.5 183.5,-19.5 183.5,-0.5 142.5,-0.5"/>
<text text-anchor="middle" x="163" y="-7.5" font-family="Helvetica,sans-Serif" font-size="10.00">ctime</text>
</a>
</g>
</g>
<!-- Node5&#45;&gt;Node9 -->
<g id="edge8" class="edge">
<title>Node5&#45;&gt;Node9</title>
<path fill="none" stroke="midnightblue" d="M913.91,-63.28C753.17,-58.81 348.52,-45.54 194.01,-19.89"/>
<polygon fill="midnightblue" stroke="midnightblue" points="194.21,-16.38 183.76,-18.11 193.01,-23.27 194.21,-16.38"/>
</g>
<!-- Node10 -->
<g id="node10" class="node">
<title>Node10</title>
<g id="a_node10"><a xlink:title=" ">
<polygon fill="none" stroke="#bfbfbf" points="201.5,-0.5 201.5,-19.5 294.5,-19.5 294.5,-0.5 201.5,-0.5"/>
<text text-anchor="middle" x="248" y="-7.5" font-family="Helvetica,sans-Serif" font-size="10.00">condition_variable</text>
</a>
</g>
</g>
<!-- Node5&#45;&gt;Node10 -->
<g id="edge9" class="edge">
<title>Node5&#45;&gt;Node10</title>
<path fill="none" stroke="midnightblue" d="M913.55,-62.6C793.37,-57.86 534.12,-45.57 304.91,-19.99"/>
<polygon fill="midnightblue" stroke="midnightblue" points="305.04,-16.48 294.71,-18.84 304.25,-23.44 305.04,-16.48"/>
</g>
<!-- Node11 -->
<g id="node11" class="node">
<title>Node11</title>
<g id="a_node11"><a xlink:title=" ">
<polygon fill="none" stroke="#bfbfbf" points="313,-0.5 313,-19.5 411,-19.5 411,-0.5 313,-0.5"/>
<text text-anchor="middle" x="362" y="-7.5" font-family="Helvetica,sans-Serif" font-size="10.00">nlohmann/json.hpp</text>
</a>
</g>
</g>
<!-- Node5&#45;&gt;Node11 -->
<g id="edge10" class="edge">
<title>Node5&#45;&gt;Node11</title>
<path fill="none" stroke="midnightblue" d="M913.92,-61.23C810.43,-55.05 605.41,-41.4 421.16,-20.05"/>
<polygon fill="midnightblue" stroke="midnightblue" points="421.35,-16.55 411.01,-18.87 420.54,-23.5 421.35,-16.55"/>
</g>
<!-- Node12 -->
<g id="node12" class="node">
<title>Node12</title>
<g id="a_node12"><a xlink:title=" ">
<polygon fill="none" stroke="#bfbfbf" points="429.5,-0.5 429.5,-19.5 514.5,-19.5 514.5,-0.5 429.5,-0.5"/>
<text text-anchor="middle" x="472" y="-7.5" font-family="Helvetica,sans-Serif" font-size="10.00">source_location</text>
</a>
</g>
</g>
<!-- Node5&#45;&gt;Node12 -->
<g id="edge11" class="edge">
<title>Node5&#45;&gt;Node12</title>
<path fill="none" stroke="midnightblue" d="M913.68,-60.01C826.23,-53.17 668.6,-39.6 524.45,-20.11"/>
<polygon fill="midnightblue" stroke="midnightblue" points="524.92,-16.64 514.54,-18.76 523.97,-23.58 524.92,-16.64"/>
</g>
<!-- Node13 -->
<g id="node13" class="node">
<title>Node13</title>
<g id="a_node13"><a xlink:title=" ">
<polygon fill="none" stroke="#bfbfbf" points="532.5,-0.5 532.5,-19.5 615.5,-19.5 615.5,-0.5 532.5,-0.5"/>
<text text-anchor="middle" x="574" y="-7.5" font-family="Helvetica,sans-Serif" font-size="10.00">unordered_map</text>
</a>
</g>
</g>
<!-- Node5&#45;&gt;Node13 -->
<g id="edge12" class="edge">
<title>Node5&#45;&gt;Node13</title>
<path fill="none" stroke="midnightblue" d="M913.94,-57.51C844.44,-49.53 732.44,-36.04 625.7,-20.04"/>
<polygon fill="midnightblue" stroke="midnightblue" points="626.13,-16.57 615.72,-18.53 625.09,-23.49 626.13,-16.57"/>
</g>
<!-- Node14 -->
<g id="node14" class="node">
<title>Node14</title>
<g id="a_node14"><a xlink:title=" ">
<polygon fill="none" stroke="#bfbfbf" points="634,-0.5 634,-19.5 712,-19.5 712,-0.5 634,-0.5"/>
<text text-anchor="middle" x="673" y="-7.5" font-family="Helvetica,sans-Serif" font-size="10.00">shared_mutex</text>
</a>
</g>
</g>
<!-- Node5&#45;&gt;Node14 -->
<g id="edge13" class="edge">
<title>Node5&#45;&gt;Node14</title>
<path fill="none" stroke="midnightblue" d="M930.63,-56.5C880.38,-47.96 800.68,-34.3 722.1,-20.18"/>
<polygon fill="midnightblue" stroke="midnightblue" points="722.49,-16.69 712.02,-18.36 721.25,-23.58 722.49,-16.69"/>
</g>
<!-- Node15 -->
<g id="node15" class="node">
<title>Node15</title>
<g id="a_node15"><a xlink:title=" ">
<polygon fill="none" stroke="#bfbfbf" points="730,-0.5 730,-19.5 788,-19.5 788,-0.5 730,-0.5"/>
<text text-anchor="middle" x="759" y="-7.5" font-family="Helvetica,sans-Serif" font-size="10.00">functional</text>
</a>
</g>
</g>
<!-- Node5&#45;&gt;Node15 -->
<g id="edge14" class="edge">
<title>Node5&#45;&gt;Node15</title>
<path fill="none" stroke="midnightblue" d="M945.82,-56.44C905.61,-46.66 839.98,-30.7 798.17,-20.53"/>
<polygon fill="midnightblue" stroke="midnightblue" points="798.88,-17.1 788.34,-18.14 797.23,-23.9 798.88,-17.1"/>
</g>
<!-- Node16 -->
<g id="node16" class="node">
<title>Node16</title>
<g id="a_node16"><a xlink:title=" ">
<polygon fill="none" stroke="#bfbfbf" points="806,-0.5 806,-19.5 862,-19.5 862,-0.5 806,-0.5"/>
<text text-anchor="middle" x="834" y="-7.5" font-family="Helvetica,sans-Serif" font-size="10.00">coroutine</text>
</a>
</g>
</g>
<!-- Node5&#45;&gt;Node16 -->
<g id="edge15" class="edge">
<title>Node5&#45;&gt;Node16</title>
<path fill="none" stroke="midnightblue" d="M957.71,-56.44C933.19,-47.44 894.4,-33.19 866.8,-23.05"/>
<polygon fill="midnightblue" stroke="midnightblue" points="867.78,-19.68 857.18,-19.52 865.36,-26.25 867.78,-19.68"/>
</g>
<!-- Node17 -->
<g id="node17" class="node">
<title>Node17</title>
<g id="a_node17"><a xlink:title=" ">
<polygon fill="none" stroke="#bfbfbf" points="1942.5,-0.5 1942.5,-19.5 2007.5,-19.5 2007.5,-0.5 1942.5,-0.5"/>
<text text-anchor="middle" x="1975" y="-7.5" font-family="Helvetica,sans-Serif" font-size="10.00">semaphore</text>
</a>
</g>
</g>
<!-- Node5&#45;&gt;Node17 -->
<g id="edge16" class="edge">
<title>Node5&#45;&gt;Node17</title>
<path fill="none" stroke="midnightblue" d="M1048.15,-61.35C1238.29,-51.02 1776.67,-21.77 1932.35,-13.32"/>
<polygon fill="midnightblue" stroke="midnightblue" points="1932.67,-16.8 1942.46,-12.77 1932.29,-9.82 1932.67,-16.8"/>
</g>
<!-- Node18 -->
<g id="node18" class="node">
<title>Node18</title>
<g id="a_node18"><a xlink:title=" ">
<polygon fill="none" stroke="#bfbfbf" points="880,-0.5 880,-19.5 936,-19.5 936,-0.5 880,-0.5"/>
<text text-anchor="middle" x="908" y="-7.5" font-family="Helvetica,sans-Serif" font-size="10.00">concepts</text>
</a>
</g>
</g>
<!-- Node5&#45;&gt;Node18 -->
<g id="edge17" class="edge">
<title>Node5&#45;&gt;Node18</title>
<path fill="none" stroke="midnightblue" d="M969.27,-56.32C958.16,-48.11 941.26,-35.6 928.02,-25.81"/>
<polygon fill="midnightblue" stroke="midnightblue" points="930.06,-22.97 919.94,-19.83 925.9,-28.59 930.06,-22.97"/>
</g>
<!-- Node19 -->
<g id="node19" class="node">
<title>Node19</title>
<g id="a_node19"><a xlink:title=" ">
<polygon fill="none" stroke="#bfbfbf" points="954,-0.5 954,-19.5 1008,-19.5 1008,-0.5 954,-0.5"/>
<text text-anchor="middle" x="981" y="-7.5" font-family="Helvetica,sans-Serif" font-size="10.00">iostream</text>
</a>
</g>
</g>
<!-- Node5&#45;&gt;Node19 -->
<g id="edge18" class="edge">
<title>Node5&#45;&gt;Node19</title>
<path fill="none" stroke="midnightblue" d="M981,-56.08C981,-49.01 981,-38.86 981,-29.99"/>
<polygon fill="midnightblue" stroke="midnightblue" points="984.5,-29.75 981,-19.75 977.5,-29.75 984.5,-29.75"/>
</g>
<!-- Node20 -->
<g id="node20" class="node">
<title>Node20</title>
<g id="a_node20"><a xlink:title=" ">
<polygon fill="none" stroke="#bfbfbf" points="1026.5,-0.5 1026.5,-19.5 1075.5,-19.5 1075.5,-0.5 1026.5,-0.5"/>
<text text-anchor="middle" x="1051" y="-7.5" font-family="Helvetica,sans-Serif" font-size="10.00">fstream</text>
</a>
</g>
</g>
<!-- Node5&#45;&gt;Node20 -->
<g id="edge19" class="edge">
<title>Node5&#45;&gt;Node20</title>
<path fill="none" stroke="midnightblue" d="M992.25,-56.32C1002.8,-48.18 1018.8,-35.84 1031.44,-26.09"/>
<polygon fill="midnightblue" stroke="midnightblue" points="1033.77,-28.71 1039.55,-19.83 1029.49,-23.17 1033.77,-28.71"/>
</g>
<!-- Node21 -->
<g id="node21" class="node">
<title>Node21</title>
<g id="a_node21"><a xlink:title=" ">
<polygon fill="none" stroke="#bfbfbf" points="1093.5,-0.5 1093.5,-19.5 1134.5,-19.5 1134.5,-0.5 1093.5,-0.5"/>
<text text-anchor="middle" x="1114" y="-7.5" font-family="Helvetica,sans-Serif" font-size="10.00">bitset</text>
</a>
</g>
</g>
<!-- Node5&#45;&gt;Node21 -->
<g id="edge20" class="edge">
<title>Node5&#45;&gt;Node21</title>
<path fill="none" stroke="midnightblue" d="M1002.07,-56.44C1024.19,-47.46 1059.14,-33.27 1084.1,-23.14"/>
<polygon fill="midnightblue" stroke="midnightblue" points="1085.51,-26.34 1093.46,-19.34 1082.88,-19.86 1085.51,-26.34"/>
</g>
<!-- Node22 -->
<g id="node22" class="node">
<title>Node22</title>
<g id="a_node22"><a xlink:title=" ">
<polygon fill="none" stroke="#bfbfbf" points="1153,-0.5 1153,-19.5 1205,-19.5 1205,-0.5 1153,-0.5"/>
<text text-anchor="middle" x="1179" y="-7.5" font-family="Helvetica,sans-Serif" font-size="10.00">memory</text>
</a>
</g>
</g>
<!-- Node5&#45;&gt;Node22 -->
<g id="edge21" class="edge">
<title>Node5&#45;&gt;Node22</title>
<path fill="none" stroke="midnightblue" d="M1012.37,-56.44C1047.86,-46.77 1105.54,-31.03 1142.88,-20.85"/>
<polygon fill="midnightblue" stroke="midnightblue" points="1144.1,-24.14 1152.83,-18.14 1142.26,-17.39 1144.1,-24.14"/>
</g>
<!-- Node23 -->
<g id="node23" class="node">
<title>Node23</title>
<g id="a_node23"><a xlink:title=" ">
<polygon fill="none" stroke="#bfbfbf" points="1223.5,-0.5 1223.5,-19.5 1272.5,-19.5 1272.5,-0.5 1223.5,-0.5"/>
<text text-anchor="middle" x="1248" y="-7.5" font-family="Helvetica,sans-Serif" font-size="10.00">random</text>
</a>
</g>
</g>
<!-- Node5&#45;&gt;Node23 -->
<g id="edge22" class="edge">
<title>Node5&#45;&gt;Node23</title>
<path fill="none" stroke="midnightblue" d="M1030.3,-56.48C1075.38,-48.47 1144.13,-35.69 1213.01,-20.1"/>
<polygon fill="midnightblue" stroke="midnightblue" points="1214.2,-23.42 1223.17,-17.78 1212.64,-16.6 1214.2,-23.42"/>
</g>
<!-- Node24 -->
<g id="node24" class="node">
<title>Node24</title>
<g id="a_node24"><a xlink:title=" ">
<polygon fill="none" stroke="#bfbfbf" points="1290.5,-0.5 1290.5,-19.5 1331.5,-19.5 1331.5,-0.5 1290.5,-0.5"/>
<text text-anchor="middle" x="1311" y="-7.5" font-family="Helvetica,sans-Serif" font-size="10.00">string</text>
</a>
</g>
</g>
<!-- Node5&#45;&gt;Node24 -->
<g id="edge23" class="edge">
<title>Node5&#45;&gt;Node24</title>
<path fill="none" stroke="midnightblue" d="M1048.2,-57.93C1107.28,-51.04 1195.69,-39.09 1280.42,-20.1"/>
<polygon fill="midnightblue" stroke="midnightblue" points="1281.22,-23.51 1290.19,-17.87 1279.67,-16.68 1281.22,-23.51"/>
</g>
<!-- Node25 -->
<g id="node25" class="node">
<title>Node25</title>
<g id="a_node25"><a xlink:title=" ">
<polygon fill="none" stroke="#bfbfbf" points="1350,-0.5 1350,-19.5 1392,-19.5 1392,-0.5 1350,-0.5"/>
<text text-anchor="middle" x="1371" y="-7.5" font-family="Helvetica,sans-Serif" font-size="10.00">vector</text>
</a>
</g>
</g>
<!-- Node5&#45;&gt;Node25 -->
<g id="edge24" class="edge">
<title>Node5&#45;&gt;Node25</title>
<path fill="none" stroke="midnightblue" d="M1048.24,-59.97C1118.77,-53.94 1232.91,-42.04 1339.82,-19.94"/>
<polygon fill="midnightblue" stroke="midnightblue" points="1340.74,-23.32 1349.81,-17.84 1339.3,-16.47 1340.74,-23.32"/>
</g>
<!-- Node26 -->
<g id="node26" class="node">
<title>Node26</title>
<g id="a_node26"><a xlink:title=" ">
<polygon fill="none" stroke="#bfbfbf" points="1410,-0.5 1410,-19.5 1454,-19.5 1454,-0.5 1410,-0.5"/>
<text text-anchor="middle" x="1432" y="-7.5" font-family="Helvetica,sans-Serif" font-size="10.00">thread</text>
</a>
</g>
</g>
<!-- Node5&#45;&gt;Node26 -->
<g id="edge25" class="edge">
<title>Node5&#45;&gt;Node26</title>
<path fill="none" stroke="midnightblue" d="M1048.1,-61.46C1129.36,-56.35 1270.4,-44.89 1399.68,-19.94"/>
<polygon fill="midnightblue" stroke="midnightblue" points="1400.63,-23.32 1409.76,-17.96 1399.28,-16.45 1400.63,-23.32"/>
</g>
<!-- Node27 -->
<g id="node27" class="node">
<title>Node27</title>
<g id="a_node27"><a xlink:title=" ">
<polygon fill="none" stroke="#bfbfbf" points="1472,-0.5 1472,-19.5 1516,-19.5 1516,-0.5 1472,-0.5"/>
<text text-anchor="middle" x="1494" y="-7.5" font-family="Helvetica,sans-Serif" font-size="10.00">mutex</text>
</a>
</g>
</g>
<!-- Node5&#45;&gt;Node27 -->
<g id="edge26" class="edge">
<title>Node5&#45;&gt;Node27</title>
<path fill="none" stroke="midnightblue" d="M1048.22,-62.74C1139.88,-58.77 1309.18,-48.28 1461.75,-19.9"/>
<polygon fill="midnightblue" stroke="midnightblue" points="1462.6,-23.3 1471.77,-18 1461.3,-16.42 1462.6,-23.3"/>
</g>
<!-- Node28 -->
<g id="node28" class="node">
<title>Node28</title>
<g id="a_node28"><a xlink:title=" ">
<polygon fill="none" stroke="#bfbfbf" points="1534.5,-0.5 1534.5,-19.5 1577.5,-19.5 1577.5,-0.5 1534.5,-0.5"/>
<text text-anchor="middle" x="1556" y="-7.5" font-family="Helvetica,sans-Serif" font-size="10.00">queue</text>
</a>
</g>
</g>
<!-- Node5&#45;&gt;Node28 -->
<g id="edge27" class="edge">
<title>Node5&#45;&gt;Node28</title>
<path fill="none" stroke="midnightblue" d="M1048.14,-63.75C1149.51,-60.93 1347.63,-51.7 1524.45,-19.69"/>
<polygon fill="midnightblue" stroke="midnightblue" points="1525.25,-23.1 1534.45,-17.85 1523.98,-16.22 1525.25,-23.1"/>
</g>
<!-- Node29 -->
<g id="node29" class="node">
<title>Node29</title>
<g id="a_node29"><a xlink:title=" ">
<polygon fill="none" stroke="#bfbfbf" points="1595.5,-0.5 1595.5,-19.5 1630.5,-19.5 1630.5,-0.5 1595.5,-0.5"/>
<text text-anchor="middle" x="1613" y="-7.5" font-family="Helvetica,sans-Serif" font-size="10.00">map</text>
</a>
</g>
</g>
<!-- Node5&#45;&gt;Node29 -->
<g id="edge28" class="edge">
<title>Node5&#45;&gt;Node29</title>
<path fill="none" stroke="midnightblue" d="M1048.14,-65.65C1158.88,-65.5 1386.59,-59.99 1585.23,-19.88"/>
<polygon fill="midnightblue" stroke="midnightblue" points="1586.18,-23.26 1595.27,-17.82 1584.77,-16.4 1586.18,-23.26"/>
</g>
<!-- Node30&#45;&gt;Node4 -->
<g id="edge30" class="edge">
<title>Node30&#45;&gt;Node4</title>
<path fill="none" stroke="midnightblue" d="M886.46,-347.49C876.52,-339.38 862.88,-326.18 857,-311 836.22,-257.33 851.85,-188.25 862.77,-152.43"/>
<polygon fill="midnightblue" stroke="midnightblue" points="866.13,-153.43 865.83,-142.84 859.46,-151.31 866.13,-153.43"/>
</g>
<!-- Node30&#45;&gt;Node31 -->
<g id="edge31" class="edge">
<title>Node30&#45;&gt;Node31</title>
<path fill="none" stroke="midnightblue" d="M944.11,-347.44C995.41,-337.92 1078.27,-322.55 1133.19,-312.36"/>
<polygon fill="midnightblue" stroke="midnightblue" points="1133.91,-315.78 1143.11,-310.52 1132.64,-308.9 1133.91,-315.78"/>
</g>
<!-- Node31&#45;&gt;Node17 -->
<g id="edge48" class="edge">
<title>Node31&#45;&gt;Node17</title>
<path fill="none" stroke="midnightblue" d="M1251.65,-298.9C1455.22,-294.5 2085,-274.09 2085,-190 2085,-190 2085,-190 2085,-126.5 2085,-78.61 2034.81,-42.72 2002.23,-24.47"/>
<polygon fill="midnightblue" stroke="midnightblue" points="2003.63,-21.24 1993.16,-19.58 2000.31,-27.41 2003.63,-21.24"/>
</g>
<!-- Node32 -->
<g id="node32" class="node">
<title>Node32</title>
<g id="a_node32"><a xlink:href="../../d5/de8/a00749.html" target="_top" xlink:title=" ">
<polygon fill="none" stroke="black" points="1307,-235.5 1307,-254.5 1457,-254.5 1457,-235.5 1307,-235.5"/>
<text text-anchor="middle" x="1382" y="-242.5" font-family="Helvetica,sans-Serif" font-size="10.00">discordcoreapi/SSLClients.hpp</text>
</a>
</g>
</g>
<!-- Node31&#45;&gt;Node32 -->
<g id="edge32" class="edge">
<title>Node31&#45;&gt;Node32</title>
<path fill="none" stroke="midnightblue" d="M1219.58,-291.44C1252.61,-282.2 1305.39,-267.44 1341.77,-257.26"/>
<polygon fill="midnightblue" stroke="midnightblue" points="1342.87,-260.58 1351.56,-254.52 1340.99,-253.84 1342.87,-260.58"/>
</g>
<!-- Node32&#45;&gt;Node4 -->
<g id="edge43" class="edge">
<title>Node32&#45;&gt;Node4</title>
<path fill="none" stroke="midnightblue" d="M1306.95,-243.49C1195.25,-241.58 991.61,-233.32 928,-199 908.32,-188.38 892.92,-167.82 883.12,-151.64"/>
<polygon fill="midnightblue" stroke="midnightblue" points="886.02,-149.65 878,-142.72 879.94,-153.14 886.02,-149.65"/>
</g>
<!-- Node33 -->
<g id="node33" class="node">
<title>Node33</title>
<g id="a_node33"><a xlink:title=" ">
<polygon fill="none" stroke="#bfbfbf" points="1863.5,-179.5 1863.5,-198.5 1906.5,-198.5 1906.5,-179.5 1863.5,-179.5"/>
<text text-anchor="middle" x="1885" y="-186.5" font-family="Helvetica,sans-Serif" font-size="10.00">fcntl.h</text>
</a>
</g>
</g>
<!-- Node32&#45;&gt;Node33 -->
<g id="edge33" class="edge">
<title>Node32&#45;&gt;Node33</title>
<path fill="none" stroke="midnightblue" d="M1457,-241.19C1548.53,-236.79 1707.97,-226 1853.44,-198.72"/>
<polygon fill="midnightblue" stroke="midnightblue" points="1854.28,-202.13 1863.45,-196.82 1852.97,-195.25 1854.28,-202.13"/>
</g>
<!-- Node34 -->
<g id="node34" class="node">
<title>Node34</title>
<g id="a_node34"><a xlink:title=" ">
<polygon fill="none" stroke="#bfbfbf" points="1924.5,-179.5 1924.5,-198.5 1973.5,-198.5 1973.5,-179.5 1924.5,-179.5"/>
<text text-anchor="middle" x="1949" y="-186.5" font-family="Helvetica,sans-Serif" font-size="10.00">netdb.h</text>
</a>
</g>
</g>
<!-- Node32&#45;&gt;Node34 -->
<g id="edge34" class="edge">
<title>Node32&#45;&gt;Node34</title>
<path fill="none" stroke="midnightblue" d="M1457.29,-241.97C1559.16,-238.27 1746.57,-228.07 1914.25,-199.03"/>
<polygon fill="midnightblue" stroke="midnightblue" points="1915,-202.45 1924.24,-197.27 1913.79,-195.56 1915,-202.45"/>
</g>
<!-- Node35 -->
<g id="node35" class="node">
<title>Node35</title>
<g id="a_node35"><a xlink:title=" ">
<polygon fill="none" stroke="#bfbfbf" points="1991.5,-179.5 1991.5,-198.5 2056.5,-198.5 2056.5,-179.5 1991.5,-179.5"/>
<text text-anchor="middle" x="2024" y="-186.5" font-family="Helvetica,sans-Serif" font-size="10.00">netinet/in.h</text>
</a>
</g>
</g>
<!-- Node32&#45;&gt;Node35 -->
<g id="edge35" class="edge">
<title>Node32&#45;&gt;Node35</title>
<path fill="none" stroke="midnightblue" d="M1457.33,-241.78C1569.58,-237.71 1787.49,-226.9 1981.32,-199.06"/>
<polygon fill="midnightblue" stroke="midnightblue" points="1982.01,-202.49 1991.4,-197.59 1981,-195.57 1982.01,-202.49"/>
</g>
<!-- Node36 -->
<g id="node36" class="node">
<title>Node36</title>
<g id="a_node36"><a xlink:title=" ">
<polygon fill="none" stroke="#bfbfbf" points="937.5,-179.5 937.5,-198.5 1008.5,-198.5 1008.5,-179.5 937.5,-179.5"/>
<text text-anchor="middle" x="973" y="-186.5" font-family="Helvetica,sans-Serif" font-size="10.00">netinet/tcp.h</text>
</a>
</g>
</g>
<!-- Node32&#45;&gt;Node36 -->
<g id="edge36" class="edge">
<title>Node32&#45;&gt;Node36</title>
<path fill="none" stroke="midnightblue" d="M1306.83,-236.36C1235.29,-228.71 1124.44,-215.88 1018.7,-199.01"/>
<polygon fill="midnightblue" stroke="midnightblue" points="1019.25,-195.55 1008.82,-197.41 1018.13,-202.46 1019.25,-195.55"/>
</g>
<!-- Node37 -->
<g id="node37" class="node">
<title>Node37</title>
<g id="a_node37"><a xlink:title=" ">
<polygon fill="none" stroke="#bfbfbf" points="1026.5,-179.5 1026.5,-198.5 1075.5,-198.5 1075.5,-179.5 1026.5,-179.5"/>
<text text-anchor="middle" x="1051" y="-186.5" font-family="Helvetica,sans-Serif" font-size="10.00">stdint.h</text>
</a>
</g>
</g>
<!-- Node32&#45;&gt;Node37 -->
<g id="edge37" class="edge">
<title>Node32&#45;&gt;Node37</title>
<path fill="none" stroke="midnightblue" d="M1311.41,-235.5C1253.29,-227.99 1168.6,-215.91 1085.65,-198.94"/>
<polygon fill="midnightblue" stroke="midnightblue" points="1086.31,-195.5 1075.81,-196.9 1084.89,-202.35 1086.31,-195.5"/>
</g>
<!-- Node38 -->
<g id="node38" class="node">
<title>Node38</title>
<g id="a_node38"><a xlink:title=" ">
<polygon fill="none" stroke="#bfbfbf" points="1094,-179.5 1094,-198.5 1158,-198.5 1158,-179.5 1094,-179.5"/>
<text text-anchor="middle" x="1126" y="-186.5" font-family="Helvetica,sans-Serif" font-size="10.00">sys/epoll.h</text>
</a>
</g>
</g>
<!-- Node32&#45;&gt;Node38 -->
<g id="edge38" class="edge">
<title>Node32&#45;&gt;Node38</title>
<path fill="none" stroke="midnightblue" d="M1340.76,-235.49C1299.57,-226.97 1234.18,-213.36 1168.36,-199.28"/>
<polygon fill="midnightblue" stroke="midnightblue" points="1168.73,-195.78 1158.22,-197.1 1167.27,-202.62 1168.73,-195.78"/>
</g>
<!-- Node39 -->
<g id="node39" class="node">
<title>Node39</title>
<g id="a_node39"><a xlink:title=" ">
<polygon fill="none" stroke="#bfbfbf" points="1176,-179.5 1176,-198.5 1238,-198.5 1238,-179.5 1176,-179.5"/>
<text text-anchor="middle" x="1207" y="-186.5" font-family="Helvetica,sans-Serif" font-size="10.00">arpa/inet.h</text>
</a>
</g>
</g>
<!-- Node32&#45;&gt;Node39 -->
<g id="edge39" class="edge">
<title>Node32&#45;&gt;Node39</title>
<path fill="none" stroke="midnightblue" d="M1354.27,-235.44C1324.57,-226.28 1277.28,-211.69 1244.33,-201.52"/>
<polygon fill="midnightblue" stroke="midnightblue" points="1245.19,-198.12 1234.6,-198.52 1243.12,-204.81 1245.19,-198.12"/>
</g>
<!-- Node40 -->
<g id="node40" class="node">
<title>Node40</title>
<g id="a_node40"><a xlink:title=" ">
<polygon fill="none" stroke="#bfbfbf" points="1256.5,-179.5 1256.5,-198.5 1329.5,-198.5 1329.5,-179.5 1256.5,-179.5"/>
<text text-anchor="middle" x="1293" y="-186.5" font-family="Helvetica,sans-Serif" font-size="10.00">sys/socket.h</text>
</a>
</g>
</g>
<!-- Node32&#45;&gt;Node40 -->
<g id="edge40" class="edge">
<title>Node32&#45;&gt;Node40</title>
<path fill="none" stroke="midnightblue" d="M1367.7,-235.32C1353.82,-226.9 1332.51,-213.97 1316.2,-204.07"/>
<polygon fill="midnightblue" stroke="midnightblue" points="1317.63,-200.85 1307.26,-198.65 1314,-206.83 1317.63,-200.85"/>
</g>
<!-- Node41 -->
<g id="node41" class="node">
<title>Node41</title>
<g id="a_node41"><a xlink:title=" ">
<polygon fill="none" stroke="#bfbfbf" points="1348,-179.5 1348,-198.5 1416,-198.5 1416,-179.5 1348,-179.5"/>
<text text-anchor="middle" x="1382" y="-186.5" font-family="Helvetica,sans-Serif" font-size="10.00">sys/types.h</text>
</a>
</g>
</g>
<!-- Node32&#45;&gt;Node41 -->
<g id="edge41" class="edge">
<title>Node32&#45;&gt;Node41</title>
<path fill="none" stroke="midnightblue" d="M1382,-235.08C1382,-228.01 1382,-217.86 1382,-208.99"/>
<polygon fill="midnightblue" stroke="midnightblue" points="1385.5,-208.75 1382,-198.75 1378.5,-208.75 1385.5,-208.75"/>
</g>
<!-- Node42 -->
<g id="node42" class="node">
<title>Node42</title>
<g id="a_node42"><a xlink:title=" ">
<polygon fill="none" stroke="#bfbfbf" points="1434.5,-179.5 1434.5,-198.5 1485.5,-198.5 1485.5,-179.5 1434.5,-179.5"/>
<text text-anchor="middle" x="1460" y="-186.5" font-family="Helvetica,sans-Serif" font-size="10.00">unistd.h</text>
</a>
</g>
</g>
<!-- Node32&#45;&gt;Node42 -->
<g id="edge42" class="edge">
<title>Node32&#45;&gt;Node42</title>
<path fill="none" stroke="midnightblue" d="M1394.53,-235.32C1406.59,-226.98 1425.03,-214.21 1439.27,-204.35"/>
<polygon fill="midnightblue" stroke="midnightblue" points="1441.27,-207.22 1447.5,-198.65 1437.28,-201.47 1441.27,-207.22"/>
</g>
<!-- Node43 -->
<g id="node43" class="node">
<title>Node43</title>
<g id="a_node43"><a xlink:href="../../d4/d6a/a00704.html" target="_top" xlink:title=" ">
<polygon fill="none" stroke="black" points="1687,-179.5 1687,-198.5 1845,-198.5 1845,-179.5 1687,-179.5"/>
<text text-anchor="middle" x="1766" y="-186.5" font-family="Helvetica,sans-Serif" font-size="10.00">discordcoreapi/EventEntities.hpp</text>
</a>
</g>
</g>
<!-- Node32&#45;&gt;Node43 -->
<g id="edge44" class="edge">
<title>Node32&#45;&gt;Node43</title>
<path fill="none" stroke="midnightblue" d="M1442.85,-235.44C1511.52,-225.79 1623.07,-210.1 1695.49,-199.92"/>
<polygon fill="midnightblue" stroke="midnightblue" points="1696.02,-203.37 1705.44,-198.52 1695.05,-196.44 1696.02,-203.37"/>
</g>
<!-- Node44 -->
<g id="node44" class="node">
<title>Node44</title>
<g id="a_node44"><a xlink:title=" ">
<polygon fill="none" stroke="#bfbfbf" points="1503.5,-179.5 1503.5,-198.5 1576.5,-198.5 1576.5,-179.5 1503.5,-179.5"/>
<text text-anchor="middle" x="1540" y="-186.5" font-family="Helvetica,sans-Serif" font-size="10.00">openssl/err.h</text>
</a>
</g>
</g>
<!-- Node32&#45;&gt;Node44 -->
<g id="edge46" class="edge">
<title>Node32&#45;&gt;Node44</title>
<path fill="none" stroke="midnightblue" d="M1407.04,-235.44C1433.62,-226.36 1475.81,-211.94 1505.52,-201.78"/>
<polygon fill="midnightblue" stroke="midnightblue" points="1506.75,-205.06 1515.08,-198.52 1504.49,-198.44 1506.75,-205.06"/>
</g>
<!-- Node45 -->
<g id="node45" class="node">
<title>Node45</title>
<g id="a_node45"><a xlink:title=" ">
<polygon fill="none" stroke="#bfbfbf" points="1595,-179.5 1595,-198.5 1669,-198.5 1669,-179.5 1595,-179.5"/>
<text text-anchor="middle" x="1632" y="-186.5" font-family="Helvetica,sans-Serif" font-size="10.00">openssl/ssl.h</text>
</a>
</g>
</g>
<!-- Node32&#45;&gt;Node45 -->
<g id="edge47" class="edge">
<title>Node32&#45;&gt;Node45</title>
<path fill="none" stroke="midnightblue" d="M1421.61,-235.44C1465.87,-225.88 1537.47,-210.42 1584.64,-200.23"/>
<polygon fill="midnightblue" stroke="midnightblue" points="1585.58,-203.61 1594.61,-198.08 1584.1,-196.77 1585.58,-203.61"/>
</g>
<!-- Node43&#45;&gt;Node4 -->
<g id="edge45" class="edge">
<title>Node43&#45;&gt;Node4</title>
<path fill="none" stroke="midnightblue" d="M1686.86,-179.76C1683.87,-179.49 1680.91,-179.24 1678,-179 1409.36,-156.87 1089.7,-139.52 946.69,-132.24"/>
<polygon fill="midnightblue" stroke="midnightblue" points="946.87,-128.74 936.7,-131.73 946.51,-135.73 946.87,-128.74"/>
</g>
<!-- Node46&#45;&gt;Node4 -->
<g id="edge51" class="edge">
<title>Node46&#45;&gt;Node4</title>
<path fill="none" stroke="midnightblue" d="M1062.67,-347.32C1030.56,-325.81 948.05,-266.83 900,-199 889.97,-184.83 882.6,-166.68 877.8,-152.34"/>
<polygon fill="midnightblue" stroke="midnightblue" points="881.11,-151.17 874.76,-142.68 874.43,-153.27 881.11,-151.17"/>
</g>
<!-- Node46&#45;&gt;Node31 -->
<g id="edge52" class="edge">
<title>Node46&#45;&gt;Node31</title>
<path fill="none" stroke="midnightblue" d="M1093.91,-347.44C1112.25,-338.68 1141.01,-324.94 1162.09,-314.86"/>
<polygon fill="midnightblue" stroke="midnightblue" points="1163.67,-317.99 1171.18,-310.52 1160.65,-311.67 1163.67,-317.99"/>
</g>
</g>
</svg>
