<?xml version="1.0" encoding="UTF-8" standalone="no"?>
<!DOCTYPE svg PUBLIC "-//W3C//DTD SVG 1.1//EN"
 "http://www.w3.org/Graphics/SVG/1.1/DTD/svg11.dtd">
<!-- Generated by graphviz version 3.0.0 (20220226.1711)
 -->
<!-- Title: InputEvents.cpp Pages: 1 -->
<svg width="2109pt" height="610pt"
 viewBox="0.00 0.00 2108.50 610.00" xmlns="http://www.w3.org/2000/svg" xmlns:xlink="http://www.w3.org/1999/xlink">
<g id="graph0" class="graph" transform="scale(1 1) rotate(0) translate(4 606)">
<title>InputEvents.cpp</title>
<!-- Node1 -->
<g id="node1" class="node">
<title>Node1</title>
<g id="a_node1"><a xlink:title=" ">
<polygon fill="#bfbfbf" stroke="black" points="1036,-582.5 1036,-601.5 1122,-601.5 1122,-582.5 1036,-582.5"/>
<text text-anchor="middle" x="1079" y="-589.5" font-family="Helvetica,sans-Serif" font-size="10.00">InputEvents.cpp</text>
</a>
</g>
</g>
<!-- Node2 -->
<g id="node2" class="node">
<title>Node2</title>
<g id="a_node2"><a xlink:href="../../df/d3b/a00728.html" target="_top" xlink:title=" ">
<polygon fill="none" stroke="black" points="1221,-526.5 1221,-545.5 1373,-545.5 1373,-526.5 1221,-526.5"/>
<text text-anchor="middle" x="1297" y="-533.5" font-family="Helvetica,sans-Serif" font-size="10.00">discordcoreapi/InputEvents.hpp</text>
</a>
</g>
</g>
<!-- Node1&#45;&gt;Node2 -->
<g id="edge1" class="edge">
<title>Node1&#45;&gt;Node2</title>
<path fill="none" stroke="midnightblue" d="M1113.54,-582.44C1151.25,-573.1 1211.74,-558.12 1252.86,-547.93"/>
<polygon fill="midnightblue" stroke="midnightblue" points="1253.75,-551.32 1262.62,-545.52 1252.07,-544.52 1253.75,-551.32"/>
</g>
<!-- Node46 -->
<g id="node46" class="node">
<title>Node46</title>
<g id="a_node46"><a xlink:href="../../d1/d87/a00689.html" target="_top" xlink:title=" ">
<polygon fill="none" stroke="black" points="0,-347.5 0,-366.5 170,-366.5 170,-347.5 0,-347.5"/>
<text text-anchor="middle" x="85" y="-354.5" font-family="Helvetica,sans-Serif" font-size="10.00">discordcoreapi/ChannelEntities.hpp</text>
</a>
</g>
</g>
<!-- Node1&#45;&gt;Node46 -->
<g id="edge52" class="edge">
<title>Node1&#45;&gt;Node46</title>
<path fill="none" stroke="midnightblue" d="M1042.44,-582.43C889.53,-546.59 301.24,-408.69 131.25,-368.84"/>
<polygon fill="midnightblue" stroke="midnightblue" points="131.9,-365.4 121.36,-366.52 130.3,-372.21 131.9,-365.4"/>
</g>
<!-- Node47 -->
<g id="node47" class="node">
<title>Node47</title>
<g id="a_node47"><a xlink:href="../../d5/d5b/a00695.html" target="_top" xlink:title=" ">
<polygon fill="none" stroke="black" points="1006,-403.5 1006,-422.5 1152,-422.5 1152,-403.5 1006,-403.5"/>
<text text-anchor="middle" x="1079" y="-410.5" font-family="Helvetica,sans-Serif" font-size="10.00">discordcoreapi/CoRoutine.hpp</text>
</a>
</g>
</g>
<!-- Node1&#45;&gt;Node47 -->
<g id="edge55" class="edge">
<title>Node1&#45;&gt;Node47</title>
<path fill="none" stroke="midnightblue" d="M1079,-582.46C1079,-555.43 1079,-471.24 1079,-433.11"/>
<polygon fill="midnightblue" stroke="midnightblue" points="1082.5,-432.87 1079,-422.87 1075.5,-432.87 1082.5,-432.87"/>
</g>
<!-- Node3 -->
<g id="node3" class="node">
<title>Node3</title>
<g id="a_node3"><a xlink:href="../../d4/deb/a00710.html" target="_top" xlink:title=" ">
<polygon fill="none" stroke="black" points="1312.5,-112.5 1312.5,-142.5 1443.5,-142.5 1443.5,-112.5 1312.5,-112.5"/>
<text text-anchor="start" x="1320.5" y="-130.5" font-family="Helvetica,sans-Serif" font-size="10.00">discordcoreapi/Foundation</text>
<text text-anchor="middle" x="1378" y="-119.5" font-family="Helvetica,sans-Serif" font-size="10.00">Entities.hpp</text>
</a>
</g>
</g>
<!-- Node2&#45;&gt;Node3 -->
<g id="edge2" class="edge">
<title>Node2&#45;&gt;Node3</title>
<path fill="none" stroke="midnightblue" d="M1373.29,-527.04C1441.25,-515.23 1530,-486.02 1530,-414 1530,-414 1530,-414 1530,-244 1530,-194.55 1478.36,-163.5 1435.28,-146.21"/>
<polygon fill="midnightblue" stroke="midnightblue" points="1436.27,-142.84 1425.68,-142.52 1433.76,-149.37 1436.27,-142.84"/>
</g>
<!-- Node28 -->
<g id="node28" class="node">
<title>Node28</title>
<g id="a_node28"><a xlink:href="../../df/df7/a00731.html" target="_top" xlink:title=" ">
<polygon fill="none" stroke="black" points="1280,-459.5 1280,-489.5 1408,-489.5 1408,-459.5 1280,-459.5"/>
<text text-anchor="start" x="1288" y="-477.5" font-family="Helvetica,sans-Serif" font-size="10.00">discordcoreapi/Interaction</text>
<text text-anchor="middle" x="1344" y="-466.5" font-family="Helvetica,sans-Serif" font-size="10.00">Entities.hpp</text>
</a>
</g>
</g>
<!-- Node2&#45;&gt;Node28 -->
<g id="edge27" class="edge">
<title>Node2&#45;&gt;Node28</title>
<path fill="none" stroke="midnightblue" d="M1303.73,-526.48C1309.68,-518.94 1318.62,-507.63 1326.57,-497.57"/>
<polygon fill="midnightblue" stroke="midnightblue" points="1329.47,-499.54 1332.92,-489.52 1323.98,-495.2 1329.47,-499.54"/>
</g>
<!-- Node29 -->
<g id="node29" class="node">
<title>Node29</title>
<g id="a_node29"><a xlink:href="../../d6/dc0/a00734.html" target="_top" xlink:title=" ">
<polygon fill="none" stroke="black" points="1210,-347.5 1210,-366.5 1384,-366.5 1384,-347.5 1210,-347.5"/>
<text text-anchor="middle" x="1297" y="-354.5" font-family="Helvetica,sans-Serif" font-size="10.00">discordcoreapi/MessageEntities.hpp</text>
</a>
</g>
</g>
<!-- Node2&#45;&gt;Node29 -->
<g id="edge51" class="edge">
<title>Node2&#45;&gt;Node29</title>
<path fill="none" stroke="midnightblue" d="M1290.15,-526.31C1283.81,-517.66 1274.79,-503.74 1271,-490 1260.71,-452.73 1259.68,-440.27 1270,-403 1272.79,-392.92 1278.51,-382.83 1283.97,-374.77"/>
<polygon fill="midnightblue" stroke="midnightblue" points="1286.82,-376.79 1289.85,-366.64 1281.15,-372.69 1286.82,-376.79"/>
</g>
<!-- Node4 -->
<g id="node4" class="node">
<title>Node4</title>
<g id="a_node4"><a xlink:href="../../d5/dae/a00767.html" target="_top" xlink:title=" ">
<polygon fill="none" stroke="black" points="1311,-56.5 1311,-75.5 1445,-75.5 1445,-56.5 1311,-56.5"/>
<text text-anchor="middle" x="1378" y="-63.5" font-family="Helvetica,sans-Serif" font-size="10.00">discordcoreapi/Utilities.hpp</text>
</a>
</g>
</g>
<!-- Node3&#45;&gt;Node4 -->
<g id="edge3" class="edge">
<title>Node3&#45;&gt;Node4</title>
<path fill="none" stroke="midnightblue" d="M1378,-112.4C1378,-104.47 1378,-94.46 1378,-85.86"/>
<polygon fill="midnightblue" stroke="midnightblue" points="1381.5,-85.66 1378,-75.66 1374.5,-85.66 1381.5,-85.66"/>
</g>
<!-- Node5 -->
<g id="node5" class="node">
<title>Node5</title>
<g id="a_node5"><a xlink:title=" ">
<polygon fill="none" stroke="#bfbfbf" points="384.5,-0.5 384.5,-19.5 441.5,-19.5 441.5,-0.5 384.5,-0.5"/>
<text text-anchor="middle" x="413" y="-7.5" font-family="Helvetica,sans-Serif" font-size="10.00">pthread.h</text>
</a>
</g>
</g>
<!-- Node4&#45;&gt;Node5 -->
<g id="edge4" class="edge">
<title>Node4&#45;&gt;Node5</title>
<path fill="none" stroke="midnightblue" d="M1310.95,-63.35C1130.43,-58.65 636.03,-44.07 451.65,-19.74"/>
<polygon fill="midnightblue" stroke="midnightblue" points="451.91,-16.24 441.53,-18.35 450.96,-23.18 451.91,-16.24"/>
</g>
<!-- Node6 -->
<g id="node6" class="node">
<title>Node6</title>
<g id="a_node6"><a xlink:title=" ">
<polygon fill="none" stroke="#bfbfbf" points="460,-0.5 460,-19.5 522,-19.5 522,-0.5 460,-0.5"/>
<text text-anchor="middle" x="491" y="-7.5" font-family="Helvetica,sans-Serif" font-size="10.00">sys/time.h</text>
</a>
</g>
</g>
<!-- Node4&#45;&gt;Node6 -->
<g id="edge5" class="edge">
<title>Node4&#45;&gt;Node6</title>
<path fill="none" stroke="midnightblue" d="M1310.93,-65.26C1168.85,-64.97 827.07,-59.92 532.37,-19.95"/>
<polygon fill="midnightblue" stroke="midnightblue" points="532.73,-16.47 522.35,-18.58 531.78,-23.4 532.73,-16.47"/>
</g>
<!-- Node7 -->
<g id="node7" class="node">
<title>Node7</title>
<g id="a_node7"><a xlink:title=" ">
<polygon fill="none" stroke="#bfbfbf" points="540,-0.5 540,-19.5 584,-19.5 584,-0.5 540,-0.5"/>
<text text-anchor="middle" x="562" y="-7.5" font-family="Helvetica,sans-Serif" font-size="10.00">time.h</text>
</a>
</g>
</g>
<!-- Node4&#45;&gt;Node7 -->
<g id="edge6" class="edge">
<title>Node4&#45;&gt;Node7</title>
<path fill="none" stroke="midnightblue" d="M1310.98,-63.1C1150.91,-58.25 748.84,-44.19 594.45,-19.8"/>
<polygon fill="midnightblue" stroke="midnightblue" points="594.65,-16.28 584.21,-18.1 593.5,-23.19 594.65,-16.28"/>
</g>
<!-- Node8 -->
<g id="node8" class="node">
<title>Node8</title>
<g id="a_node8"><a xlink:title=" ">
<polygon fill="none" stroke="#bfbfbf" points="602.5,-0.5 602.5,-19.5 643.5,-19.5 643.5,-0.5 602.5,-0.5"/>
<text text-anchor="middle" x="623" y="-7.5" font-family="Helvetica,sans-Serif" font-size="10.00">ctime</text>
</a>
</g>
</g>
<!-- Node4&#45;&gt;Node8 -->
<g id="edge7" class="edge">
<title>Node4&#45;&gt;Node8</title>
<path fill="none" stroke="midnightblue" d="M1310.89,-62.89C1159.79,-57.82 795.66,-43.7 653.97,-19.9"/>
<polygon fill="midnightblue" stroke="midnightblue" points="654.22,-16.39 643.76,-18.09 653,-23.28 654.22,-16.39"/>
</g>
<!-- Node9 -->
<g id="node9" class="node">
<title>Node9</title>
<g id="a_node9"><a xlink:title=" ">
<polygon fill="none" stroke="#bfbfbf" points="661.5,-0.5 661.5,-19.5 754.5,-19.5 754.5,-0.5 661.5,-0.5"/>
<text text-anchor="middle" x="708" y="-7.5" font-family="Helvetica,sans-Serif" font-size="10.00">condition_variable</text>
</a>
</g>
</g>
<!-- Node4&#45;&gt;Node9 -->
<g id="edge8" class="edge">
<title>Node4&#45;&gt;Node9</title>
<path fill="none" stroke="midnightblue" d="M1310.59,-61.96C1199.2,-56.53 969.55,-43.55 764.75,-19.98"/>
<polygon fill="midnightblue" stroke="midnightblue" points="765.05,-16.49 754.71,-18.82 764.24,-23.45 765.05,-16.49"/>
</g>
<!-- Node10 -->
<g id="node10" class="node">
<title>Node10</title>
<g id="a_node10"><a xlink:title=" ">
<polygon fill="none" stroke="#bfbfbf" points="773,-0.5 773,-19.5 871,-19.5 871,-0.5 773,-0.5"/>
<text text-anchor="middle" x="822" y="-7.5" font-family="Helvetica,sans-Serif" font-size="10.00">nlohmann/json.hpp</text>
</a>
</g>
</g>
<!-- Node4&#45;&gt;Node10 -->
<g id="edge9" class="edge">
<title>Node4&#45;&gt;Node10</title>
<path fill="none" stroke="midnightblue" d="M1311,-60.31C1217.2,-53.44 1041.21,-39.45 881.05,-20.06"/>
<polygon fill="midnightblue" stroke="midnightblue" points="881.37,-16.57 871.02,-18.83 880.52,-23.52 881.37,-16.57"/>
</g>
<!-- Node11 -->
<g id="node11" class="node">
<title>Node11</title>
<g id="a_node11"><a xlink:title=" ">
<polygon fill="none" stroke="#bfbfbf" points="889.5,-0.5 889.5,-19.5 974.5,-19.5 974.5,-0.5 889.5,-0.5"/>
<text text-anchor="middle" x="932" y="-7.5" font-family="Helvetica,sans-Serif" font-size="10.00">source_location</text>
</a>
</g>
</g>
<!-- Node4&#45;&gt;Node11 -->
<g id="edge10" class="edge">
<title>Node4&#45;&gt;Node11</title>
<path fill="none" stroke="midnightblue" d="M1310.74,-58.6C1234.16,-51.04 1105.05,-37.42 984.68,-20.17"/>
<polygon fill="midnightblue" stroke="midnightblue" points="984.94,-16.67 974.55,-18.71 983.94,-23.6 984.94,-16.67"/>
</g>
<!-- Node12 -->
<g id="node12" class="node">
<title>Node12</title>
<g id="a_node12"><a xlink:title=" ">
<polygon fill="none" stroke="#bfbfbf" points="992.5,-0.5 992.5,-19.5 1075.5,-19.5 1075.5,-0.5 992.5,-0.5"/>
<text text-anchor="middle" x="1034" y="-7.5" font-family="Helvetica,sans-Serif" font-size="10.00">unordered_map</text>
</a>
</g>
</g>
<!-- Node4&#45;&gt;Node12 -->
<g id="edge11" class="edge">
<title>Node4&#45;&gt;Node12</title>
<path fill="none" stroke="midnightblue" d="M1320.12,-56.5C1263.17,-48.05 1173.46,-34.5 1085.85,-20.11"/>
<polygon fill="midnightblue" stroke="midnightblue" points="1086.17,-16.62 1075.74,-18.44 1085.03,-23.52 1086.17,-16.62"/>
</g>
<!-- Node13 -->
<g id="node13" class="node">
<title>Node13</title>
<g id="a_node13"><a xlink:title=" ">
<polygon fill="none" stroke="#bfbfbf" points="1094,-0.5 1094,-19.5 1172,-19.5 1172,-0.5 1094,-0.5"/>
<text text-anchor="middle" x="1133" y="-7.5" font-family="Helvetica,sans-Serif" font-size="10.00">shared_mutex</text>
</a>
</g>
</g>
<!-- Node4&#45;&gt;Node13 -->
<g id="edge12" class="edge">
<title>Node4&#45;&gt;Node13</title>
<path fill="none" stroke="midnightblue" d="M1339.18,-56.44C1296.44,-47.02 1227.67,-31.87 1181.43,-21.68"/>
<polygon fill="midnightblue" stroke="midnightblue" points="1182.16,-18.25 1171.64,-19.52 1180.65,-25.09 1182.16,-18.25"/>
</g>
<!-- Node14 -->
<g id="node14" class="node">
<title>Node14</title>
<g id="a_node14"><a xlink:title=" ">
<polygon fill="none" stroke="#bfbfbf" points="1190,-0.5 1190,-19.5 1248,-19.5 1248,-0.5 1190,-0.5"/>
<text text-anchor="middle" x="1219" y="-7.5" font-family="Helvetica,sans-Serif" font-size="10.00">functional</text>
</a>
</g>
</g>
<!-- Node4&#45;&gt;Node14 -->
<g id="edge13" class="edge">
<title>Node4&#45;&gt;Node14</title>
<path fill="none" stroke="midnightblue" d="M1352.81,-56.44C1326.06,-47.36 1283.6,-32.94 1253.69,-22.78"/>
<polygon fill="midnightblue" stroke="midnightblue" points="1254.67,-19.42 1244.08,-19.52 1252.42,-26.05 1254.67,-19.42"/>
</g>
<!-- Node15 -->
<g id="node15" class="node">
<title>Node15</title>
<g id="a_node15"><a xlink:title=" ">
<polygon fill="none" stroke="#bfbfbf" points="1266.5,-0.5 1266.5,-19.5 1331.5,-19.5 1331.5,-0.5 1266.5,-0.5"/>
<text text-anchor="middle" x="1299" y="-7.5" font-family="Helvetica,sans-Serif" font-size="10.00">semaphore</text>
</a>
</g>
</g>
<!-- Node4&#45;&gt;Node15 -->
<g id="edge14" class="edge">
<title>Node4&#45;&gt;Node15</title>
<path fill="none" stroke="midnightblue" d="M1365.31,-56.32C1353.1,-47.98 1334.42,-35.21 1320,-25.35"/>
<polygon fill="midnightblue" stroke="midnightblue" points="1321.89,-22.41 1311.66,-19.65 1317.94,-28.19 1321.89,-22.41"/>
</g>
<!-- Node16 -->
<g id="node16" class="node">
<title>Node16</title>
<g id="a_node16"><a xlink:title=" ">
<polygon fill="none" stroke="#bfbfbf" points="1350,-0.5 1350,-19.5 1406,-19.5 1406,-0.5 1350,-0.5"/>
<text text-anchor="middle" x="1378" y="-7.5" font-family="Helvetica,sans-Serif" font-size="10.00">concepts</text>
</a>
</g>
</g>
<!-- Node4&#45;&gt;Node16 -->
<g id="edge15" class="edge">
<title>Node4&#45;&gt;Node16</title>
<path fill="none" stroke="midnightblue" d="M1378,-56.08C1378,-49.01 1378,-38.86 1378,-29.99"/>
<polygon fill="midnightblue" stroke="midnightblue" points="1381.5,-29.75 1378,-19.75 1374.5,-29.75 1381.5,-29.75"/>
</g>
<!-- Node17 -->
<g id="node17" class="node">
<title>Node17</title>
<g id="a_node17"><a xlink:title=" ">
<polygon fill="none" stroke="#bfbfbf" points="1424,-0.5 1424,-19.5 1478,-19.5 1478,-0.5 1424,-0.5"/>
<text text-anchor="middle" x="1451" y="-7.5" font-family="Helvetica,sans-Serif" font-size="10.00">iostream</text>
</a>
</g>
</g>
<!-- Node4&#45;&gt;Node17 -->
<g id="edge16" class="edge">
<title>Node4&#45;&gt;Node17</title>
<path fill="none" stroke="midnightblue" d="M1389.73,-56.32C1400.84,-48.11 1417.74,-35.6 1430.98,-25.81"/>
<polygon fill="midnightblue" stroke="midnightblue" points="1433.1,-28.59 1439.06,-19.83 1428.94,-22.97 1433.1,-28.59"/>
</g>
<!-- Node18 -->
<g id="node18" class="node">
<title>Node18</title>
<g id="a_node18"><a xlink:title=" ">
<polygon fill="none" stroke="#bfbfbf" points="1496.5,-0.5 1496.5,-19.5 1545.5,-19.5 1545.5,-0.5 1496.5,-0.5"/>
<text text-anchor="middle" x="1521" y="-7.5" font-family="Helvetica,sans-Serif" font-size="10.00">fstream</text>
</a>
</g>
</g>
<!-- Node4&#45;&gt;Node18 -->
<g id="edge17" class="edge">
<title>Node4&#45;&gt;Node18</title>
<path fill="none" stroke="midnightblue" d="M1400.66,-56.44C1424.4,-47.48 1461.91,-33.31 1488.74,-23.18"/>
<polygon fill="midnightblue" stroke="midnightblue" points="1490.33,-26.32 1498.45,-19.52 1487.86,-19.77 1490.33,-26.32"/>
</g>
<!-- Node19 -->
<g id="node19" class="node">
<title>Node19</title>
<g id="a_node19"><a xlink:title=" ">
<polygon fill="none" stroke="#bfbfbf" points="1563.5,-0.5 1563.5,-19.5 1604.5,-19.5 1604.5,-0.5 1563.5,-0.5"/>
<text text-anchor="middle" x="1584" y="-7.5" font-family="Helvetica,sans-Serif" font-size="10.00">bitset</text>
</a>
</g>
</g>
<!-- Node4&#45;&gt;Node19 -->
<g id="edge18" class="edge">
<title>Node4&#45;&gt;Node19</title>
<path fill="none" stroke="midnightblue" d="M1413.18,-56.46C1446.77,-48.2 1499.03,-35.09 1553.54,-20.04"/>
<polygon fill="midnightblue" stroke="midnightblue" points="1554.68,-23.36 1563.38,-17.31 1552.8,-16.61 1554.68,-23.36"/>
</g>
<!-- Node20 -->
<g id="node20" class="node">
<title>Node20</title>
<g id="a_node20"><a xlink:title=" ">
<polygon fill="none" stroke="#bfbfbf" points="1623,-0.5 1623,-19.5 1675,-19.5 1675,-0.5 1623,-0.5"/>
<text text-anchor="middle" x="1649" y="-7.5" font-family="Helvetica,sans-Serif" font-size="10.00">memory</text>
</a>
</g>
</g>
<!-- Node4&#45;&gt;Node20 -->
<g id="edge19" class="edge">
<title>Node4&#45;&gt;Node20</title>
<path fill="none" stroke="midnightblue" d="M1426.77,-56.48C1472.27,-48.35 1542.27,-35.37 1612.75,-19.95"/>
<polygon fill="midnightblue" stroke="midnightblue" points="1613.68,-23.33 1622.69,-17.76 1612.17,-16.49 1613.68,-23.33"/>
</g>
<!-- Node21 -->
<g id="node21" class="node">
<title>Node21</title>
<g id="a_node21"><a xlink:title=" ">
<polygon fill="none" stroke="#bfbfbf" points="1693.5,-0.5 1693.5,-19.5 1742.5,-19.5 1742.5,-0.5 1693.5,-0.5"/>
<text text-anchor="middle" x="1718" y="-7.5" font-family="Helvetica,sans-Serif" font-size="10.00">random</text>
</a>
</g>
</g>
<!-- Node4&#45;&gt;Node21 -->
<g id="edge20" class="edge">
<title>Node4&#45;&gt;Node21</title>
<path fill="none" stroke="midnightblue" d="M1445.24,-57.33C1505.24,-49.97 1595.65,-37.66 1683.34,-19.93"/>
<polygon fill="midnightblue" stroke="midnightblue" points="1684.1,-23.35 1693.19,-17.91 1682.7,-16.49 1684.1,-23.35"/>
</g>
<!-- Node22 -->
<g id="node22" class="node">
<title>Node22</title>
<g id="a_node22"><a xlink:title=" ">
<polygon fill="none" stroke="#bfbfbf" points="1760.5,-0.5 1760.5,-19.5 1801.5,-19.5 1801.5,-0.5 1760.5,-0.5"/>
<text text-anchor="middle" x="1781" y="-7.5" font-family="Helvetica,sans-Serif" font-size="10.00">string</text>
</a>
</g>
</g>
<!-- Node4&#45;&gt;Node22 -->
<g id="edge21" class="edge">
<title>Node4&#45;&gt;Node22</title>
<path fill="none" stroke="midnightblue" d="M1445.15,-60.6C1518.27,-54.99 1638.68,-43.34 1750.14,-20.08"/>
<polygon fill="midnightblue" stroke="midnightblue" points="1751.16,-23.45 1760.21,-17.95 1749.7,-16.6 1751.16,-23.45"/>
</g>
<!-- Node23 -->
<g id="node23" class="node">
<title>Node23</title>
<g id="a_node23"><a xlink:title=" ">
<polygon fill="none" stroke="#bfbfbf" points="1820,-0.5 1820,-19.5 1862,-19.5 1862,-0.5 1820,-0.5"/>
<text text-anchor="middle" x="1841" y="-7.5" font-family="Helvetica,sans-Serif" font-size="10.00">vector</text>
</a>
</g>
</g>
<!-- Node4&#45;&gt;Node23 -->
<g id="edge22" class="edge">
<title>Node4&#45;&gt;Node23</title>
<path fill="none" stroke="midnightblue" d="M1445.35,-61.93C1528.91,-57.24 1675.77,-46.14 1809.78,-19.89"/>
<polygon fill="midnightblue" stroke="midnightblue" points="1810.7,-23.28 1819.82,-17.89 1809.33,-16.41 1810.7,-23.28"/>
</g>
<!-- Node24 -->
<g id="node24" class="node">
<title>Node24</title>
<g id="a_node24"><a xlink:title=" ">
<polygon fill="none" stroke="#bfbfbf" points="1880,-0.5 1880,-19.5 1924,-19.5 1924,-0.5 1880,-0.5"/>
<text text-anchor="middle" x="1902" y="-7.5" font-family="Helvetica,sans-Serif" font-size="10.00">thread</text>
</a>
</g>
</g>
<!-- Node4&#45;&gt;Node24 -->
<g id="edge23" class="edge">
<title>Node4&#45;&gt;Node24</title>
<path fill="none" stroke="midnightblue" d="M1445.15,-62.94C1538.5,-59.18 1712.77,-48.9 1869.48,-19.94"/>
<polygon fill="midnightblue" stroke="midnightblue" points="1870.59,-23.29 1879.77,-18.01 1869.3,-16.41 1870.59,-23.29"/>
</g>
<!-- Node25 -->
<g id="node25" class="node">
<title>Node25</title>
<g id="a_node25"><a xlink:title=" ">
<polygon fill="none" stroke="#bfbfbf" points="1942,-0.5 1942,-19.5 1986,-19.5 1986,-0.5 1942,-0.5"/>
<text text-anchor="middle" x="1964" y="-7.5" font-family="Helvetica,sans-Serif" font-size="10.00">mutex</text>
</a>
</g>
</g>
<!-- Node4&#45;&gt;Node25 -->
<g id="edge24" class="edge">
<title>Node4&#45;&gt;Node25</title>
<path fill="none" stroke="midnightblue" d="M1445.21,-63.91C1548.27,-61.28 1751.49,-52.3 1931.85,-19.85"/>
<polygon fill="midnightblue" stroke="midnightblue" points="1932.57,-23.27 1941.78,-18.03 1931.31,-16.39 1932.57,-23.27"/>
</g>
<!-- Node26 -->
<g id="node26" class="node">
<title>Node26</title>
<g id="a_node26"><a xlink:title=" ">
<polygon fill="none" stroke="#bfbfbf" points="2004.5,-0.5 2004.5,-19.5 2047.5,-19.5 2047.5,-0.5 2004.5,-0.5"/>
<text text-anchor="middle" x="2026" y="-7.5" font-family="Helvetica,sans-Serif" font-size="10.00">queue</text>
</a>
</g>
</g>
<!-- Node4&#45;&gt;Node26 -->
<g id="edge25" class="edge">
<title>Node4&#45;&gt;Node26</title>
<path fill="none" stroke="midnightblue" d="M1445.22,-64.69C1557.38,-63.17 1789.68,-55.74 1994.42,-19.68"/>
<polygon fill="midnightblue" stroke="midnightblue" points="1995.23,-23.09 2004.46,-17.88 1994,-16.2 1995.23,-23.09"/>
</g>
<!-- Node27 -->
<g id="node27" class="node">
<title>Node27</title>
<g id="a_node27"><a xlink:title=" ">
<polygon fill="none" stroke="#bfbfbf" points="2065.5,-0.5 2065.5,-19.5 2100.5,-19.5 2100.5,-0.5 2065.5,-0.5"/>
<text text-anchor="middle" x="2083" y="-7.5" font-family="Helvetica,sans-Serif" font-size="10.00">map</text>
</a>
</g>
</g>
<!-- Node4&#45;&gt;Node27 -->
<g id="edge26" class="edge">
<title>Node4&#45;&gt;Node27</title>
<path fill="none" stroke="midnightblue" d="M1445.19,-62.83C1589.04,-57.81 1923.78,-44.13 2055.41,-19.76"/>
<polygon fill="midnightblue" stroke="midnightblue" points="2056.13,-23.19 2065.27,-17.84 2054.79,-16.32 2056.13,-23.19"/>
</g>
<!-- Node28&#45;&gt;Node3 -->
<g id="edge28" class="edge">
<title>Node28&#45;&gt;Node3</title>
<path fill="none" stroke="midnightblue" d="M1408.27,-460.41C1431.07,-452.87 1455.21,-441.15 1472,-423 1492.53,-400.82 1492,-388.23 1492,-358 1492,-358 1492,-358 1492,-244 1492,-200.22 1450,-167.03 1416.98,-147.71"/>
<polygon fill="midnightblue" stroke="midnightblue" points="1418.38,-144.48 1407.95,-142.63 1414.95,-150.58 1418.38,-144.48"/>
</g>
<!-- Node28&#45;&gt;Node29 -->
<g id="edge29" class="edge">
<title>Node28&#45;&gt;Node29</title>
<path fill="none" stroke="midnightblue" d="M1314.31,-459.34C1300.26,-450.92 1284.86,-438.77 1277,-423 1269.37,-407.69 1276.78,-388.9 1284.65,-375.47"/>
<polygon fill="midnightblue" stroke="midnightblue" points="1287.78,-377.06 1290.25,-366.76 1281.9,-373.27 1287.78,-377.06"/>
</g>
<!-- Node45 -->
<g id="node45" class="node">
<title>Node45</title>
<g id="a_node45"><a xlink:href="../../d8/dba/a00773.html" target="_top" xlink:title=" ">
<polygon fill="none" stroke="black" points="1286.5,-403.5 1286.5,-422.5 1463.5,-422.5 1463.5,-403.5 1286.5,-403.5"/>
<text text-anchor="middle" x="1375" y="-410.5" font-family="Helvetica,sans-Serif" font-size="10.00">discordcoreapi/WebHookEntities.hpp</text>
</a>
</g>
</g>
<!-- Node28&#45;&gt;Node45 -->
<g id="edge48" class="edge">
<title>Node28&#45;&gt;Node45</title>
<path fill="none" stroke="midnightblue" d="M1351.35,-459.4C1355.67,-451.11 1361.17,-440.55 1365.77,-431.71"/>
<polygon fill="midnightblue" stroke="midnightblue" points="1368.97,-433.14 1370.49,-422.66 1362.76,-429.91 1368.97,-433.14"/>
</g>
<!-- Node29&#45;&gt;Node3 -->
<g id="edge30" class="edge">
<title>Node29&#45;&gt;Node3</title>
<path fill="none" stroke="midnightblue" d="M1341.7,-347.48C1362.23,-341.09 1384.7,-330.02 1397,-311 1428.78,-261.85 1405.16,-189.25 1389.29,-152.17"/>
<polygon fill="midnightblue" stroke="midnightblue" points="1392.34,-150.42 1385.07,-142.71 1385.94,-153.27 1392.34,-150.42"/>
</g>
<!-- Node30 -->
<g id="node30" class="node">
<title>Node30</title>
<g id="a_node30"><a xlink:href="../../db/d7c/a00722.html" target="_top" xlink:title=" ">
<polygon fill="none" stroke="black" points="882.5,-291.5 882.5,-310.5 1007.5,-310.5 1007.5,-291.5 882.5,-291.5"/>
<text text-anchor="middle" x="945" y="-298.5" font-family="Helvetica,sans-Serif" font-size="10.00">discordcoreapi/Https.hpp</text>
</a>
</g>
</g>
<!-- Node29&#45;&gt;Node30 -->
<g id="edge31" class="edge">
<title>Node29&#45;&gt;Node30</title>
<path fill="none" stroke="midnightblue" d="M1241.22,-347.44C1178.53,-337.83 1076.85,-322.23 1010.45,-312.04"/>
<polygon fill="midnightblue" stroke="midnightblue" points="1010.93,-308.57 1000.51,-310.52 1009.87,-315.49 1010.93,-308.57"/>
</g>
<!-- Node31 -->
<g id="node31" class="node">
<title>Node31</title>
<g id="a_node31"><a xlink:href="../../d5/de8/a00749.html" target="_top" xlink:title=" ">
<polygon fill="none" stroke="black" points="776,-235.5 776,-254.5 926,-254.5 926,-235.5 776,-235.5"/>
<text text-anchor="middle" x="851" y="-242.5" font-family="Helvetica,sans-Serif" font-size="10.00">discordcoreapi/SSLClients.hpp</text>
</a>
</g>
</g>
<!-- Node30&#45;&gt;Node31 -->
<g id="edge32" class="edge">
<title>Node30&#45;&gt;Node31</title>
<path fill="none" stroke="midnightblue" d="M929.9,-291.32C915.1,-282.82 892.31,-269.73 875.02,-259.8"/>
<polygon fill="midnightblue" stroke="midnightblue" points="876.48,-256.6 866.07,-254.65 872.99,-262.67 876.48,-256.6"/>
</g>
<!-- Node31&#45;&gt;Node3 -->
<g id="edge33" class="edge">
<title>Node31&#45;&gt;Node3</title>
<path fill="none" stroke="midnightblue" d="M775.84,-244.24C616.88,-243.95 258.1,-238.85 221,-199 214.94,-192.49 214.85,-185.42 221,-179 258.41,-139.92 1051,-130.86 1302.28,-128.96"/>
<polygon fill="midnightblue" stroke="midnightblue" points="1302.44,-132.46 1312.42,-128.89 1302.39,-125.46 1302.44,-132.46"/>
</g>
<!-- Node32 -->
<g id="node32" class="node">
<title>Node32</title>
<g id="a_node32"><a xlink:href="../../d4/d6a/a00704.html" target="_top" xlink:title=" ">
<polygon fill="none" stroke="black" points="230,-179.5 230,-198.5 388,-198.5 388,-179.5 230,-179.5"/>
<text text-anchor="middle" x="309" y="-186.5" font-family="Helvetica,sans-Serif" font-size="10.00">discordcoreapi/EventEntities.hpp</text>
</a>
</g>
</g>
<!-- Node31&#45;&gt;Node32 -->
<g id="edge34" class="edge">
<title>Node31&#45;&gt;Node32</title>
<path fill="none" stroke="midnightblue" d="M775.88,-236.63C687.95,-227.98 537.63,-213.15 398.17,-199.12"/>
<polygon fill="midnightblue" stroke="midnightblue" points="398.45,-195.63 388.15,-198.11 397.75,-202.59 398.45,-195.63"/>
</g>
<!-- Node33 -->
<g id="node33" class="node">
<title>Node33</title>
<g id="a_node33"><a xlink:title=" ">
<polygon fill="none" stroke="#bfbfbf" points="972.5,-179.5 972.5,-198.5 1045.5,-198.5 1045.5,-179.5 972.5,-179.5"/>
<text text-anchor="middle" x="1009" y="-186.5" font-family="Helvetica,sans-Serif" font-size="10.00">openssl/err.h</text>
</a>
</g>
</g>
<!-- Node31&#45;&gt;Node33 -->
<g id="edge36" class="edge">
<title>Node31&#45;&gt;Node33</title>
<path fill="none" stroke="midnightblue" d="M876.04,-235.44C902.62,-226.36 944.81,-211.94 974.52,-201.78"/>
<polygon fill="midnightblue" stroke="midnightblue" points="975.75,-205.06 984.08,-198.52 973.49,-198.44 975.75,-205.06"/>
</g>
<!-- Node34 -->
<g id="node34" class="node">
<title>Node34</title>
<g id="a_node34"><a xlink:title=" ">
<polygon fill="none" stroke="#bfbfbf" points="1064,-179.5 1064,-198.5 1138,-198.5 1138,-179.5 1064,-179.5"/>
<text text-anchor="middle" x="1101" y="-186.5" font-family="Helvetica,sans-Serif" font-size="10.00">openssl/ssl.h</text>
</a>
</g>
</g>
<!-- Node31&#45;&gt;Node34 -->
<g id="edge37" class="edge">
<title>Node31&#45;&gt;Node34</title>
<path fill="none" stroke="midnightblue" d="M890.61,-235.44C934.87,-225.88 1006.47,-210.42 1053.64,-200.23"/>
<polygon fill="midnightblue" stroke="midnightblue" points="1054.58,-203.61 1063.61,-198.08 1053.1,-196.77 1054.58,-203.61"/>
</g>
<!-- Node35 -->
<g id="node35" class="node">
<title>Node35</title>
<g id="a_node35"><a xlink:title=" ">
<polygon fill="none" stroke="#bfbfbf" points="1156.5,-179.5 1156.5,-198.5 1199.5,-198.5 1199.5,-179.5 1156.5,-179.5"/>
<text text-anchor="middle" x="1178" y="-186.5" font-family="Helvetica,sans-Serif" font-size="10.00">fcntl.h</text>
</a>
</g>
</g>
<!-- Node31&#45;&gt;Node35 -->
<g id="edge38" class="edge">
<title>Node31&#45;&gt;Node35</title>
<path fill="none" stroke="midnightblue" d="M925.09,-235.49C982.92,-228.21 1065.38,-216.45 1146.53,-198.84"/>
<polygon fill="midnightblue" stroke="midnightblue" points="1147.4,-202.23 1156.41,-196.66 1145.89,-195.39 1147.4,-202.23"/>
</g>
<!-- Node36 -->
<g id="node36" class="node">
<title>Node36</title>
<g id="a_node36"><a xlink:title=" ">
<polygon fill="none" stroke="#bfbfbf" points="1217.5,-179.5 1217.5,-198.5 1266.5,-198.5 1266.5,-179.5 1217.5,-179.5"/>
<text text-anchor="middle" x="1242" y="-186.5" font-family="Helvetica,sans-Serif" font-size="10.00">netdb.h</text>
</a>
</g>
</g>
<!-- Node31&#45;&gt;Node36 -->
<g id="edge39" class="edge">
<title>Node31&#45;&gt;Node36</title>
<path fill="none" stroke="midnightblue" d="M926.34,-237.45C996.64,-230.67 1104.57,-218.54 1207.28,-198.9"/>
<polygon fill="midnightblue" stroke="midnightblue" points="1208.06,-202.31 1217.21,-196.97 1206.72,-195.44 1208.06,-202.31"/>
</g>
<!-- Node37 -->
<g id="node37" class="node">
<title>Node37</title>
<g id="a_node37"><a xlink:title=" ">
<polygon fill="none" stroke="#bfbfbf" points="1284.5,-179.5 1284.5,-198.5 1349.5,-198.5 1349.5,-179.5 1284.5,-179.5"/>
<text text-anchor="middle" x="1317" y="-186.5" font-family="Helvetica,sans-Serif" font-size="10.00">netinet/in.h</text>
</a>
</g>
</g>
<!-- Node31&#45;&gt;Node37 -->
<g id="edge40" class="edge">
<title>Node31&#45;&gt;Node37</title>
<path fill="none" stroke="midnightblue" d="M926.37,-238.41C1009.24,-231.73 1146.47,-219.05 1274.09,-198.99"/>
<polygon fill="midnightblue" stroke="midnightblue" points="1274.72,-202.43 1284.05,-197.4 1273.62,-195.52 1274.72,-202.43"/>
</g>
<!-- Node38 -->
<g id="node38" class="node">
<title>Node38</title>
<g id="a_node38"><a xlink:title=" ">
<polygon fill="none" stroke="#bfbfbf" points="406.5,-179.5 406.5,-198.5 477.5,-198.5 477.5,-179.5 406.5,-179.5"/>
<text text-anchor="middle" x="442" y="-186.5" font-family="Helvetica,sans-Serif" font-size="10.00">netinet/tcp.h</text>
</a>
</g>
</g>
<!-- Node31&#45;&gt;Node38 -->
<g id="edge41" class="edge">
<title>Node31&#45;&gt;Node38</title>
<path fill="none" stroke="midnightblue" d="M775.95,-236.5C704.3,-228.94 593.09,-216.17 488.11,-199.25"/>
<polygon fill="midnightblue" stroke="midnightblue" points="488.41,-195.75 477.98,-197.6 487.28,-202.66 488.41,-195.75"/>
</g>
<!-- Node39 -->
<g id="node39" class="node">
<title>Node39</title>
<g id="a_node39"><a xlink:title=" ">
<polygon fill="none" stroke="#bfbfbf" points="495.5,-179.5 495.5,-198.5 544.5,-198.5 544.5,-179.5 495.5,-179.5"/>
<text text-anchor="middle" x="520" y="-186.5" font-family="Helvetica,sans-Serif" font-size="10.00">stdint.h</text>
</a>
</g>
</g>
<!-- Node31&#45;&gt;Node39 -->
<g id="edge42" class="edge">
<title>Node31&#45;&gt;Node39</title>
<path fill="none" stroke="midnightblue" d="M780.41,-235.5C722.29,-227.99 637.6,-215.91 554.65,-198.94"/>
<polygon fill="midnightblue" stroke="midnightblue" points="555.31,-195.5 544.81,-196.9 553.89,-202.35 555.31,-195.5"/>
</g>
<!-- Node40 -->
<g id="node40" class="node">
<title>Node40</title>
<g id="a_node40"><a xlink:title=" ">
<polygon fill="none" stroke="#bfbfbf" points="563,-179.5 563,-198.5 627,-198.5 627,-179.5 563,-179.5"/>
<text text-anchor="middle" x="595" y="-186.5" font-family="Helvetica,sans-Serif" font-size="10.00">sys/epoll.h</text>
</a>
</g>
</g>
<!-- Node31&#45;&gt;Node40 -->
<g id="edge43" class="edge">
<title>Node31&#45;&gt;Node40</title>
<path fill="none" stroke="midnightblue" d="M809.76,-235.49C768.57,-226.97 703.18,-213.36 637.36,-199.28"/>
<polygon fill="midnightblue" stroke="midnightblue" points="637.73,-195.78 627.22,-197.1 636.27,-202.62 637.73,-195.78"/>
</g>
<!-- Node41 -->
<g id="node41" class="node">
<title>Node41</title>
<g id="a_node41"><a xlink:title=" ">
<polygon fill="none" stroke="#bfbfbf" points="645,-179.5 645,-198.5 707,-198.5 707,-179.5 645,-179.5"/>
<text text-anchor="middle" x="676" y="-186.5" font-family="Helvetica,sans-Serif" font-size="10.00">arpa/inet.h</text>
</a>
</g>
</g>
<!-- Node31&#45;&gt;Node41 -->
<g id="edge44" class="edge">
<title>Node31&#45;&gt;Node41</title>
<path fill="none" stroke="midnightblue" d="M823.27,-235.44C793.57,-226.28 746.28,-211.69 713.33,-201.52"/>
<polygon fill="midnightblue" stroke="midnightblue" points="714.19,-198.12 703.6,-198.52 712.12,-204.81 714.19,-198.12"/>
</g>
<!-- Node42 -->
<g id="node42" class="node">
<title>Node42</title>
<g id="a_node42"><a xlink:title=" ">
<polygon fill="none" stroke="#bfbfbf" points="725.5,-179.5 725.5,-198.5 798.5,-198.5 798.5,-179.5 725.5,-179.5"/>
<text text-anchor="middle" x="762" y="-186.5" font-family="Helvetica,sans-Serif" font-size="10.00">sys/socket.h</text>
</a>
</g>
</g>
<!-- Node31&#45;&gt;Node42 -->
<g id="edge45" class="edge">
<title>Node31&#45;&gt;Node42</title>
<path fill="none" stroke="midnightblue" d="M836.7,-235.32C822.82,-226.9 801.51,-213.97 785.2,-204.07"/>
<polygon fill="midnightblue" stroke="midnightblue" points="786.63,-200.85 776.26,-198.65 783,-206.83 786.63,-200.85"/>
</g>
<!-- Node43 -->
<g id="node43" class="node">
<title>Node43</title>
<g id="a_node43"><a xlink:title=" ">
<polygon fill="none" stroke="#bfbfbf" points="817,-179.5 817,-198.5 885,-198.5 885,-179.5 817,-179.5"/>
<text text-anchor="middle" x="851" y="-186.5" font-family="Helvetica,sans-Serif" font-size="10.00">sys/types.h</text>
</a>
</g>
</g>
<!-- Node31&#45;&gt;Node43 -->
<g id="edge46" class="edge">
<title>Node31&#45;&gt;Node43</title>
<path fill="none" stroke="midnightblue" d="M851,-235.08C851,-228.01 851,-217.86 851,-208.99"/>
<polygon fill="midnightblue" stroke="midnightblue" points="854.5,-208.75 851,-198.75 847.5,-208.75 854.5,-208.75"/>
</g>
<!-- Node44 -->
<g id="node44" class="node">
<title>Node44</title>
<g id="a_node44"><a xlink:title=" ">
<polygon fill="none" stroke="#bfbfbf" points="903.5,-179.5 903.5,-198.5 954.5,-198.5 954.5,-179.5 903.5,-179.5"/>
<text text-anchor="middle" x="929" y="-186.5" font-family="Helvetica,sans-Serif" font-size="10.00">unistd.h</text>
</a>
</g>
</g>
<!-- Node31&#45;&gt;Node44 -->
<g id="edge47" class="edge">
<title>Node31&#45;&gt;Node44</title>
<path fill="none" stroke="midnightblue" d="M863.53,-235.32C875.59,-226.98 894.03,-214.21 908.27,-204.35"/>
<polygon fill="midnightblue" stroke="midnightblue" points="910.27,-207.22 916.5,-198.65 906.28,-201.47 910.27,-207.22"/>
</g>
<!-- Node32&#45;&gt;Node3 -->
<g id="edge35" class="edge">
<title>Node32&#45;&gt;Node3</title>
<path fill="none" stroke="midnightblue" d="M388.14,-179.72C391.13,-179.46 394.09,-179.22 397,-179 734.26,-153.09 1137.81,-137.01 1302.46,-131.09"/>
<polygon fill="midnightblue" stroke="midnightblue" points="1302.62,-134.58 1312.49,-130.73 1302.37,-127.59 1302.62,-134.58"/>
</g>
<!-- Node45&#45;&gt;Node3 -->
<g id="edge49" class="edge">
<title>Node45&#45;&gt;Node3</title>
<path fill="none" stroke="midnightblue" d="M1387.34,-403.28C1409.56,-386.45 1454,-347.14 1454,-302 1454,-302 1454,-302 1454,-244 1454,-205.99 1424.93,-170.82 1402.75,-149.51"/>
<polygon fill="midnightblue" stroke="midnightblue" points="1404.96,-146.79 1395.25,-142.57 1400.21,-151.93 1404.96,-146.79"/>
</g>
<!-- Node45&#45;&gt;Node29 -->
<g id="edge50" class="edge">
<title>Node45&#45;&gt;Node29</title>
<path fill="none" stroke="midnightblue" d="M1362.47,-403.32C1350.41,-394.98 1331.97,-382.21 1317.73,-372.35"/>
<polygon fill="midnightblue" stroke="midnightblue" points="1319.72,-369.47 1309.5,-366.65 1315.73,-375.22 1319.72,-369.47"/>
</g>
<!-- Node46&#45;&gt;Node3 -->
<g id="edge53" class="edge">
<title>Node46&#45;&gt;Node3</title>
<path fill="none" stroke="midnightblue" d="M85.08,-347.44C85.87,-318.03 92.86,-220.66 150,-179 196.63,-145 1041.58,-132.4 1302.14,-129.31"/>
<polygon fill="midnightblue" stroke="midnightblue" points="1302.31,-132.81 1312.27,-129.19 1302.23,-125.81 1302.31,-132.81"/>
</g>
<!-- Node46&#45;&gt;Node30 -->
<g id="edge54" class="edge">
<title>Node46&#45;&gt;Node30</title>
<path fill="none" stroke="midnightblue" d="M170.21,-350.65C339.19,-340.04 714.07,-316.5 872.29,-306.57"/>
<polygon fill="midnightblue" stroke="midnightblue" points="872.64,-310.05 882.4,-305.93 872.2,-303.06 872.64,-310.05"/>
</g>
<!-- Node47&#45;&gt;Node3 -->
<g id="edge56" class="edge">
<title>Node47&#45;&gt;Node3</title>
<path fill="none" stroke="midnightblue" d="M1005.82,-404.79C777.16,-380.92 98.05,-299.04 213,-179 250.7,-139.63 1049.66,-130.76 1302.2,-128.94"/>
<polygon fill="midnightblue" stroke="midnightblue" points="1302.4,-132.44 1312.38,-128.87 1302.35,-125.44 1302.4,-132.44"/>
</g>
<!-- Node48 -->
<g id="node48" class="node">
<title>Node48</title>
<g id="a_node48"><a xlink:href="../../d3/d4f/a00761.html" target="_top" xlink:title=" ">
<polygon fill="none" stroke="black" points="1004,-347.5 1004,-366.5 1154,-366.5 1154,-347.5 1004,-347.5"/>
<text text-anchor="middle" x="1079" y="-354.5" font-family="Helvetica,sans-Serif" font-size="10.00">discordcoreapi/ThreadPool.hpp</text>
</a>
</g>
</g>
<!-- Node47&#45;&gt;Node48 -->
<g id="edge57" class="edge">
<title>Node47&#45;&gt;Node48</title>
<path fill="none" stroke="midnightblue" d="M1079,-403.08C1079,-396.01 1079,-385.86 1079,-376.99"/>
<polygon fill="midnightblue" stroke="midnightblue" points="1082.5,-376.75 1079,-366.75 1075.5,-376.75 1082.5,-376.75"/>
</g>
<!-- Node49 -->
<g id="node49" class="node">
<title>Node49</title>
<g id="a_node49"><a xlink:title=" ">
<polygon fill="none" stroke="#bfbfbf" points="1332,-291.5 1332,-310.5 1388,-310.5 1388,-291.5 1332,-291.5"/>
<text text-anchor="middle" x="1360" y="-298.5" font-family="Helvetica,sans-Serif" font-size="10.00">coroutine</text>
</a>
</g>
</g>
<!-- Node47&#45;&gt;Node49 -->
<g id="edge61" class="edge">
<title>Node47&#45;&gt;Node49</title>
<path fill="none" stroke="midnightblue" d="M1095.02,-403.41C1127.49,-386 1198.26,-348.1 1201,-347 1241.1,-330.86 1289.09,-318.13 1321.78,-310.38"/>
<polygon fill="midnightblue" stroke="midnightblue" points="1322.88,-313.72 1331.82,-308.05 1321.29,-306.9 1322.88,-313.72"/>
</g>
<!-- Node48&#45;&gt;Node3 -->
<g id="edge58" class="edge">
<title>Node48&#45;&gt;Node3</title>
<path fill="none" stroke="midnightblue" d="M1109.31,-347.46C1166.75,-329.71 1291.61,-283.26 1358,-199 1368.45,-185.73 1373.44,-167.26 1375.83,-152.56"/>
<polygon fill="midnightblue" stroke="midnightblue" points="1379.3,-153.01 1377.14,-142.64 1372.36,-152.09 1379.3,-153.01"/>
</g>
<!-- Node48&#45;&gt;Node30 -->
<g id="edge59" class="edge">
<title>Node48&#45;&gt;Node30</title>
<path fill="none" stroke="midnightblue" d="M1057.77,-347.44C1035.62,-338.52 1000.68,-324.44 975.56,-314.32"/>
<polygon fill="midnightblue" stroke="midnightblue" points="976.72,-311.01 966.13,-310.52 974.1,-317.5 976.72,-311.01"/>
</g>
<!-- Node48&#45;&gt;Node49 -->
<g id="edge60" class="edge">
<title>Node48&#45;&gt;Node49</title>
<path fill="none" stroke="midnightblue" d="M1126.23,-347.47C1174.49,-338.66 1251.57,-324.37 1318,-311 1319.23,-310.75 1320.49,-310.5 1321.75,-310.24"/>
<polygon fill="midnightblue" stroke="midnightblue" points="1322.48,-313.66 1331.55,-308.2 1321.05,-306.81 1322.48,-313.66"/>
</g>
</g>
</svg>
