<?xml version="1.0" encoding="UTF-8" standalone="no"?>
<!DOCTYPE svg PUBLIC "-//W3C//DTD SVG 1.1//EN"
 "http://www.w3.org/Graphics/SVG/1.1/DTD/svg11.dtd">
<!-- Generated by graphviz version 3.0.0 (20220226.1711)
 -->
<!-- Title: InputEvents.cpp Pages: 1 -->
<svg width="2338pt" height="610pt"
 viewBox="0.00 0.00 2337.84 610.00" xmlns="http://www.w3.org/2000/svg" xmlns:xlink="http://www.w3.org/1999/xlink">
<g id="graph0" class="graph" transform="scale(1 1) rotate(0) translate(4 606)">
<title>InputEvents.cpp</title>
<!-- Node1 -->
<g id="node1" class="node">
<title>Node1</title>
<g id="a_node1"><a xlink:title=" ">
<polygon fill="#bfbfbf" stroke="black" points="1336.5,-582.5 1336.5,-601.5 1422.5,-601.5 1422.5,-582.5 1336.5,-582.5"/>
<text text-anchor="middle" x="1379.5" y="-589.5" font-family="Helvetica,sans-Serif" font-size="10.00">InputEvents.cpp</text>
</a>
</g>
</g>
<!-- Node2 -->
<g id="node2" class="node">
<title>Node2</title>
<g id="a_node2"><a xlink:href="../../df/d3b/a00728.html" target="_top" xlink:title=" ">
<polygon fill="none" stroke="black" points="1962.5,-526.5 1962.5,-545.5 2114.5,-545.5 2114.5,-526.5 1962.5,-526.5"/>
<text text-anchor="middle" x="2038.5" y="-533.5" font-family="Helvetica,sans-Serif" font-size="10.00">discordcoreapi/InputEvents.hpp</text>
</a>
</g>
</g>
<!-- Node1&#45;&gt;Node2 -->
<g id="edge1" class="edge">
<title>Node1&#45;&gt;Node2</title>
<path fill="none" stroke="midnightblue" d="M1422.74,-587.46C1529.98,-578.67 1809.79,-555.74 1952.34,-544.06"/>
<polygon fill="midnightblue" stroke="midnightblue" points="1952.68,-547.54 1962.36,-543.24 1952.11,-540.57 1952.68,-547.54"/>
</g>
<!-- Node47 -->
<g id="node47" class="node">
<title>Node47</title>
<g id="a_node47"><a xlink:href="../../d1/d87/a00689.html" target="_top" xlink:title=" ">
<polygon fill="none" stroke="black" points="1294.5,-347.5 1294.5,-366.5 1464.5,-366.5 1464.5,-347.5 1294.5,-347.5"/>
<text text-anchor="middle" x="1379.5" y="-354.5" font-family="Helvetica,sans-Serif" font-size="10.00">discordcoreapi/ChannelEntities.hpp</text>
</a>
</g>
</g>
<!-- Node1&#45;&gt;Node47 -->
<g id="edge53" class="edge">
<title>Node1&#45;&gt;Node47</title>
<path fill="none" stroke="midnightblue" d="M1379.5,-582.43C1379.5,-548.75 1379.5,-424.99 1379.5,-377.1"/>
<polygon fill="midnightblue" stroke="midnightblue" points="1383,-376.9 1379.5,-366.9 1376,-376.9 1383,-376.9"/>
</g>
<!-- Node48 -->
<g id="node48" class="node">
<title>Node48</title>
<g id="a_node48"><a xlink:href="../../d5/d5b/a00695.html" target="_top" xlink:title=" ">
<polygon fill="none" stroke="black" points="1031.5,-403.5 1031.5,-422.5 1177.5,-422.5 1177.5,-403.5 1031.5,-403.5"/>
<text text-anchor="middle" x="1104.5" y="-410.5" font-family="Helvetica,sans-Serif" font-size="10.00">discordcoreapi/CoRoutine.hpp</text>
</a>
</g>
</g>
<!-- Node1&#45;&gt;Node48 -->
<g id="edge56" class="edge">
<title>Node1&#45;&gt;Node48</title>
<path fill="none" stroke="midnightblue" d="M1366.24,-582.46C1322.32,-554.2 1181.34,-463.46 1126.56,-428.2"/>
<polygon fill="midnightblue" stroke="midnightblue" points="1128.26,-425.13 1117.95,-422.66 1124.47,-431.01 1128.26,-425.13"/>
</g>
<!-- Node3 -->
<g id="node3" class="node">
<title>Node3</title>
<g id="a_node3"><a xlink:href="../../d4/deb/a00710.html" target="_top" xlink:title=" ">
<polygon fill="none" stroke="black" points="962,-112.5 962,-142.5 1093,-142.5 1093,-112.5 962,-112.5"/>
<text text-anchor="start" x="970" y="-130.5" font-family="Helvetica,sans-Serif" font-size="10.00">discordcoreapi/Foundation</text>
<text text-anchor="middle" x="1027.5" y="-119.5" font-family="Helvetica,sans-Serif" font-size="10.00">Entities.hpp</text>
</a>
</g>
</g>
<!-- Node2&#45;&gt;Node3 -->
<g id="edge2" class="edge">
<title>Node2&#45;&gt;Node3</title>
<path fill="none" stroke="midnightblue" d="M2037.71,-526.33C2035.44,-499.52 2029.61,-415.62 2038.5,-347 2048.35,-270.98 2130.38,-234.49 2077.5,-179 2043.96,-143.81 1338.8,-132.21 1103.31,-129.32"/>
<polygon fill="midnightblue" stroke="midnightblue" points="1103.16,-125.81 1093.12,-129.19 1103.08,-132.81 1103.16,-125.81"/>
</g>
<!-- Node29 -->
<g id="node29" class="node">
<title>Node29</title>
<g id="a_node29"><a xlink:href="../../df/df7/a00731.html" target="_top" xlink:title=" ">
<polygon fill="none" stroke="black" points="2116.5,-459.5 2116.5,-489.5 2244.5,-489.5 2244.5,-459.5 2116.5,-459.5"/>
<text text-anchor="start" x="2124.5" y="-477.5" font-family="Helvetica,sans-Serif" font-size="10.00">discordcoreapi/Interaction</text>
<text text-anchor="middle" x="2180.5" y="-466.5" font-family="Helvetica,sans-Serif" font-size="10.00">Entities.hpp</text>
</a>
</g>
</g>
<!-- Node2&#45;&gt;Node29 -->
<g id="edge28" class="edge">
<title>Node2&#45;&gt;Node29</title>
<path fill="none" stroke="midnightblue" d="M2058.85,-526.48C2079.34,-517.89 2111.57,-504.38 2137.71,-493.43"/>
<polygon fill="midnightblue" stroke="midnightblue" points="2139.16,-496.62 2147.03,-489.52 2136.46,-490.16 2139.16,-496.62"/>
</g>
<!-- Node30 -->
<g id="node30" class="node">
<title>Node30</title>
<g id="a_node30"><a xlink:href="../../d6/dc0/a00734.html" target="_top" xlink:title=" ">
<polygon fill="none" stroke="black" points="2047.5,-347.5 2047.5,-366.5 2221.5,-366.5 2221.5,-347.5 2047.5,-347.5"/>
<text text-anchor="middle" x="2134.5" y="-354.5" font-family="Helvetica,sans-Serif" font-size="10.00">discordcoreapi/MessageEntities.hpp</text>
</a>
</g>
</g>
<!-- Node2&#45;&gt;Node30 -->
<g id="edge52" class="edge">
<title>Node2&#45;&gt;Node30</title>
<path fill="none" stroke="midnightblue" d="M2042.85,-526.26C2053.48,-504.96 2081.83,-448.79 2107.5,-403 2112.69,-393.75 2118.74,-383.6 2123.8,-375.29"/>
<polygon fill="midnightblue" stroke="midnightblue" points="2126.93,-376.89 2129.17,-366.54 2120.96,-373.23 2126.93,-376.89"/>
</g>
<!-- Node4 -->
<g id="node4" class="node">
<title>Node4</title>
<g id="a_node4"><a xlink:href="../../d5/dae/a00767.html" target="_top" xlink:title=" ">
<polygon fill="none" stroke="black" points="960.5,-56.5 960.5,-75.5 1094.5,-75.5 1094.5,-56.5 960.5,-56.5"/>
<text text-anchor="middle" x="1027.5" y="-63.5" font-family="Helvetica,sans-Serif" font-size="10.00">discordcoreapi/Utilities.hpp</text>
</a>
</g>
</g>
<!-- Node3&#45;&gt;Node4 -->
<g id="edge3" class="edge">
<title>Node3&#45;&gt;Node4</title>
<path fill="none" stroke="midnightblue" d="M1027.5,-112.4C1027.5,-104.47 1027.5,-94.46 1027.5,-85.86"/>
<polygon fill="midnightblue" stroke="midnightblue" points="1031,-85.66 1027.5,-75.66 1024,-85.66 1031,-85.66"/>
</g>
<!-- Node5 -->
<g id="node5" class="node">
<title>Node5</title>
<g id="a_node5"><a xlink:title=" ">
<polygon fill="none" stroke="#bfbfbf" points="0,-0.5 0,-19.5 57,-19.5 57,-0.5 0,-0.5"/>
<text text-anchor="middle" x="28.5" y="-7.5" font-family="Helvetica,sans-Serif" font-size="10.00">pthread.h</text>
</a>
</g>
</g>
<!-- Node4&#45;&gt;Node5 -->
<g id="edge4" class="edge">
<title>Node4&#45;&gt;Node5</title>
<path fill="none" stroke="midnightblue" d="M960.37,-63.48C775.08,-59.03 258.15,-44.84 66.97,-19.72"/>
<polygon fill="midnightblue" stroke="midnightblue" points="67.41,-16.24 57.03,-18.36 66.46,-23.18 67.41,-16.24"/>
</g>
<!-- Node6 -->
<g id="node6" class="node">
<title>Node6</title>
<g id="a_node6"><a xlink:title=" ">
<polygon fill="none" stroke="#bfbfbf" points="75.5,-0.5 75.5,-19.5 137.5,-19.5 137.5,-0.5 75.5,-0.5"/>
<text text-anchor="middle" x="106.5" y="-7.5" font-family="Helvetica,sans-Serif" font-size="10.00">sys/time.h</text>
</a>
</g>
</g>
<!-- Node4&#45;&gt;Node6 -->
<g id="edge5" class="edge">
<title>Node4&#45;&gt;Node6</title>
<path fill="none" stroke="midnightblue" d="M960.27,-65.45C813.99,-65.6 455.87,-61.41 147.87,-19.95"/>
<polygon fill="midnightblue" stroke="midnightblue" points="148.23,-16.47 137.85,-18.58 147.29,-23.4 148.23,-16.47"/>
</g>
<!-- Node7 -->
<g id="node7" class="node">
<title>Node7</title>
<g id="a_node7"><a xlink:title=" ">
<polygon fill="none" stroke="#bfbfbf" points="155.5,-0.5 155.5,-19.5 199.5,-19.5 199.5,-0.5 155.5,-0.5"/>
<text text-anchor="middle" x="177.5" y="-7.5" font-family="Helvetica,sans-Serif" font-size="10.00">time.h</text>
</a>
</g>
</g>
<!-- Node4&#45;&gt;Node7 -->
<g id="edge6" class="edge">
<title>Node4&#45;&gt;Node7</title>
<path fill="none" stroke="midnightblue" d="M960.38,-63.28C795.18,-58.74 371.22,-45.13 209.95,-19.79"/>
<polygon fill="midnightblue" stroke="midnightblue" points="210.15,-16.28 199.71,-18.1 209.01,-23.18 210.15,-16.28"/>
</g>
<!-- Node8 -->
<g id="node8" class="node">
<title>Node8</title>
<g id="a_node8"><a xlink:title=" ">
<polygon fill="none" stroke="#bfbfbf" points="218,-0.5 218,-19.5 259,-19.5 259,-0.5 218,-0.5"/>
<text text-anchor="middle" x="238.5" y="-7.5" font-family="Helvetica,sans-Serif" font-size="10.00">ctime</text>
</a>
</g>
</g>
<!-- Node4&#45;&gt;Node8 -->
<g id="edge7" class="edge">
<title>Node4&#45;&gt;Node8</title>
<path fill="none" stroke="midnightblue" d="M960.23,-63.1C803.79,-58.36 418.13,-44.68 269.54,-19.91"/>
<polygon fill="midnightblue" stroke="midnightblue" points="269.71,-16.38 259.26,-18.1 268.5,-23.28 269.71,-16.38"/>
</g>
<!-- Node9 -->
<g id="node9" class="node">
<title>Node9</title>
<g id="a_node9"><a xlink:title=" ">
<polygon fill="none" stroke="#bfbfbf" points="277,-0.5 277,-19.5 370,-19.5 370,-0.5 277,-0.5"/>
<text text-anchor="middle" x="323.5" y="-7.5" font-family="Helvetica,sans-Serif" font-size="10.00">condition_variable</text>
</a>
</g>
</g>
<!-- Node4&#45;&gt;Node9 -->
<g id="edge8" class="edge">
<title>Node4&#45;&gt;Node9</title>
<path fill="none" stroke="midnightblue" d="M960.15,-62.32C843.98,-57.27 598.27,-44.64 380.24,-19.97"/>
<polygon fill="midnightblue" stroke="midnightblue" points="380.54,-16.49 370.21,-18.83 379.75,-23.44 380.54,-16.49"/>
</g>
<!-- Node10 -->
<g id="node10" class="node">
<title>Node10</title>
<g id="a_node10"><a xlink:title=" ">
<polygon fill="none" stroke="#bfbfbf" points="388.5,-0.5 388.5,-19.5 486.5,-19.5 486.5,-0.5 388.5,-0.5"/>
<text text-anchor="middle" x="437.5" y="-7.5" font-family="Helvetica,sans-Serif" font-size="10.00">nlohmann/json.hpp</text>
</a>
</g>
</g>
<!-- Node4&#45;&gt;Node10 -->
<g id="edge9" class="edge">
<title>Node4&#45;&gt;Node10</title>
<path fill="none" stroke="midnightblue" d="M960.16,-60.81C860.97,-54.31 669.55,-40.48 496.57,-20.05"/>
<polygon fill="midnightblue" stroke="midnightblue" points="496.86,-16.56 486.51,-18.85 496.03,-23.51 496.86,-16.56"/>
</g>
<!-- Node11 -->
<g id="node11" class="node">
<title>Node11</title>
<g id="a_node11"><a xlink:title=" ">
<polygon fill="none" stroke="#bfbfbf" points="505,-0.5 505,-19.5 590,-19.5 590,-0.5 505,-0.5"/>
<text text-anchor="middle" x="547.5" y="-7.5" font-family="Helvetica,sans-Serif" font-size="10.00">source_location</text>
</a>
</g>
</g>
<!-- Node4&#45;&gt;Node11 -->
<g id="edge10" class="edge">
<title>Node4&#45;&gt;Node11</title>
<path fill="none" stroke="midnightblue" d="M960.44,-59.43C877.93,-52.25 733.33,-38.61 600.03,-20.13"/>
<polygon fill="midnightblue" stroke="midnightblue" points="600.43,-16.66 590.04,-18.74 599.46,-23.59 600.43,-16.66"/>
</g>
<!-- Node12 -->
<g id="node12" class="node">
<title>Node12</title>
<g id="a_node12"><a xlink:title=" ">
<polygon fill="none" stroke="#bfbfbf" points="608,-0.5 608,-19.5 691,-19.5 691,-0.5 608,-0.5"/>
<text text-anchor="middle" x="649.5" y="-7.5" font-family="Helvetica,sans-Serif" font-size="10.00">unordered_map</text>
</a>
</g>
</g>
<!-- Node4&#45;&gt;Node12 -->
<g id="edge11" class="edge">
<title>Node4&#45;&gt;Node12</title>
<path fill="none" stroke="midnightblue" d="M960.38,-56.52C896.46,-48.27 797.29,-35.03 701.39,-20.09"/>
<polygon fill="midnightblue" stroke="midnightblue" points="701.65,-16.59 691.23,-18.5 700.56,-23.5 701.65,-16.59"/>
</g>
<!-- Node13 -->
<g id="node13" class="node">
<title>Node13</title>
<g id="a_node13"><a xlink:title=" ">
<polygon fill="none" stroke="#bfbfbf" points="709.5,-0.5 709.5,-19.5 787.5,-19.5 787.5,-0.5 709.5,-0.5"/>
<text text-anchor="middle" x="748.5" y="-7.5" font-family="Helvetica,sans-Serif" font-size="10.00">shared_mutex</text>
</a>
</g>
</g>
<!-- Node4&#45;&gt;Node13 -->
<g id="edge12" class="edge">
<title>Node4&#45;&gt;Node13</title>
<path fill="none" stroke="midnightblue" d="M983.29,-56.44C932.73,-46.66 850.18,-30.68 797.64,-20.51"/>
<polygon fill="midnightblue" stroke="midnightblue" points="798.03,-17.02 787.55,-18.56 796.7,-23.89 798.03,-17.02"/>
</g>
<!-- Node14 -->
<g id="node14" class="node">
<title>Node14</title>
<g id="a_node14"><a xlink:title=" ">
<polygon fill="none" stroke="#bfbfbf" points="805.5,-0.5 805.5,-19.5 863.5,-19.5 863.5,-0.5 805.5,-0.5"/>
<text text-anchor="middle" x="834.5" y="-7.5" font-family="Helvetica,sans-Serif" font-size="10.00">functional</text>
</a>
</g>
</g>
<!-- Node4&#45;&gt;Node14 -->
<g id="edge13" class="edge">
<title>Node4&#45;&gt;Node14</title>
<path fill="none" stroke="midnightblue" d="M996.92,-56.44C963.5,-47.09 909.87,-32.09 873.46,-21.9"/>
<polygon fill="midnightblue" stroke="midnightblue" points="874.25,-18.49 863.67,-19.16 872.36,-25.23 874.25,-18.49"/>
</g>
<!-- Node15 -->
<g id="node15" class="node">
<title>Node15</title>
<g id="a_node15"><a xlink:title=" ">
<polygon fill="none" stroke="#bfbfbf" points="881.5,-0.5 881.5,-19.5 937.5,-19.5 937.5,-0.5 881.5,-0.5"/>
<text text-anchor="middle" x="909.5" y="-7.5" font-family="Helvetica,sans-Serif" font-size="10.00">coroutine</text>
</a>
</g>
</g>
<!-- Node4&#45;&gt;Node15 -->
<g id="edge14" class="edge">
<title>Node4&#45;&gt;Node15</title>
<path fill="none" stroke="midnightblue" d="M1008.8,-56.44C989.56,-47.64 959.35,-33.81 937.3,-23.72"/>
<polygon fill="midnightblue" stroke="midnightblue" points="938.66,-20.5 928.11,-19.52 935.75,-26.86 938.66,-20.5"/>
</g>
<!-- Node16 -->
<g id="node16" class="node">
<title>Node16</title>
<g id="a_node16"><a xlink:title=" ">
<polygon fill="none" stroke="#bfbfbf" points="956,-0.5 956,-19.5 1021,-19.5 1021,-0.5 956,-0.5"/>
<text text-anchor="middle" x="988.5" y="-7.5" font-family="Helvetica,sans-Serif" font-size="10.00">semaphore</text>
</a>
</g>
</g>
<!-- Node4&#45;&gt;Node16 -->
<g id="edge15" class="edge">
<title>Node4&#45;&gt;Node16</title>
<path fill="none" stroke="midnightblue" d="M1021.06,-56.08C1015.55,-48.46 1007.47,-37.26 1000.74,-27.94"/>
<polygon fill="midnightblue" stroke="midnightblue" points="1003.51,-25.81 994.82,-19.75 997.84,-29.91 1003.51,-25.81"/>
</g>
<!-- Node17 -->
<g id="node17" class="node">
<title>Node17</title>
<g id="a_node17"><a xlink:title=" ">
<polygon fill="none" stroke="#bfbfbf" points="1039.5,-0.5 1039.5,-19.5 1095.5,-19.5 1095.5,-0.5 1039.5,-0.5"/>
<text text-anchor="middle" x="1067.5" y="-7.5" font-family="Helvetica,sans-Serif" font-size="10.00">concepts</text>
</a>
</g>
</g>
<!-- Node4&#45;&gt;Node17 -->
<g id="edge16" class="edge">
<title>Node4&#45;&gt;Node17</title>
<path fill="none" stroke="midnightblue" d="M1034.11,-56.08C1039.76,-48.46 1048.04,-37.26 1054.95,-27.94"/>
<polygon fill="midnightblue" stroke="midnightblue" points="1057.88,-29.87 1061.02,-19.75 1052.25,-25.7 1057.88,-29.87"/>
</g>
<!-- Node18 -->
<g id="node18" class="node">
<title>Node18</title>
<g id="a_node18"><a xlink:title=" ">
<polygon fill="none" stroke="#bfbfbf" points="1113.5,-0.5 1113.5,-19.5 1167.5,-19.5 1167.5,-0.5 1113.5,-0.5"/>
<text text-anchor="middle" x="1140.5" y="-7.5" font-family="Helvetica,sans-Serif" font-size="10.00">iostream</text>
</a>
</g>
</g>
<!-- Node4&#45;&gt;Node18 -->
<g id="edge17" class="edge">
<title>Node4&#45;&gt;Node18</title>
<path fill="none" stroke="midnightblue" d="M1045.41,-56.44C1063.75,-47.68 1092.51,-33.94 1113.59,-23.86"/>
<polygon fill="midnightblue" stroke="midnightblue" points="1115.17,-26.99 1122.68,-19.52 1112.15,-20.67 1115.17,-26.99"/>
</g>
<!-- Node19 -->
<g id="node19" class="node">
<title>Node19</title>
<g id="a_node19"><a xlink:title=" ">
<polygon fill="none" stroke="#bfbfbf" points="1186,-0.5 1186,-19.5 1235,-19.5 1235,-0.5 1186,-0.5"/>
<text text-anchor="middle" x="1210.5" y="-7.5" font-family="Helvetica,sans-Serif" font-size="10.00">fstream</text>
</a>
</g>
</g>
<!-- Node4&#45;&gt;Node19 -->
<g id="edge18" class="edge">
<title>Node4&#45;&gt;Node19</title>
<path fill="none" stroke="midnightblue" d="M1056.5,-56.44C1088.97,-46.86 1141.56,-31.34 1176.09,-21.15"/>
<polygon fill="midnightblue" stroke="midnightblue" points="1177.15,-24.49 1185.75,-18.3 1175.17,-17.78 1177.15,-24.49"/>
</g>
<!-- Node20 -->
<g id="node20" class="node">
<title>Node20</title>
<g id="a_node20"><a xlink:title=" ">
<polygon fill="none" stroke="#bfbfbf" points="1253,-0.5 1253,-19.5 1294,-19.5 1294,-0.5 1253,-0.5"/>
<text text-anchor="middle" x="1273.5" y="-7.5" font-family="Helvetica,sans-Serif" font-size="10.00">bitset</text>
</a>
</g>
</g>
<!-- Node4&#45;&gt;Node20 -->
<g id="edge19" class="edge">
<title>Node4&#45;&gt;Node20</title>
<path fill="none" stroke="midnightblue" d="M1074.11,-56.49C1115.89,-48.59 1179.04,-36 1243.05,-19.93"/>
<polygon fill="midnightblue" stroke="midnightblue" points="1244.08,-23.28 1252.91,-17.43 1242.35,-16.5 1244.08,-23.28"/>
</g>
<!-- Node21 -->
<g id="node21" class="node">
<title>Node21</title>
<g id="a_node21"><a xlink:title=" ">
<polygon fill="none" stroke="#bfbfbf" points="1312.5,-0.5 1312.5,-19.5 1364.5,-19.5 1364.5,-0.5 1312.5,-0.5"/>
<text text-anchor="middle" x="1338.5" y="-7.5" font-family="Helvetica,sans-Serif" font-size="10.00">memory</text>
</a>
</g>
</g>
<!-- Node4&#45;&gt;Node21 -->
<g id="edge20" class="edge">
<title>Node4&#45;&gt;Node21</title>
<path fill="none" stroke="midnightblue" d="M1088.66,-56.47C1142.27,-48.66 1222.51,-36.17 1302.02,-19.94"/>
<polygon fill="midnightblue" stroke="midnightblue" points="1303.12,-23.29 1312.21,-17.84 1301.71,-16.43 1303.12,-23.29"/>
</g>
<!-- Node22 -->
<g id="node22" class="node">
<title>Node22</title>
<g id="a_node22"><a xlink:title=" ">
<polygon fill="none" stroke="#bfbfbf" points="1383,-0.5 1383,-19.5 1432,-19.5 1432,-0.5 1383,-0.5"/>
<text text-anchor="middle" x="1407.5" y="-7.5" font-family="Helvetica,sans-Serif" font-size="10.00">random</text>
</a>
</g>
</g>
<!-- Node4&#45;&gt;Node22 -->
<g id="edge21" class="edge">
<title>Node4&#45;&gt;Node22</title>
<path fill="none" stroke="midnightblue" d="M1094.57,-58.88C1162.39,-52.1 1270.35,-39.7 1372.81,-19.9"/>
<polygon fill="midnightblue" stroke="midnightblue" points="1373.56,-23.32 1382.7,-17.96 1372.22,-16.45 1373.56,-23.32"/>
</g>
<!-- Node23 -->
<g id="node23" class="node">
<title>Node23</title>
<g id="a_node23"><a xlink:title=" ">
<polygon fill="none" stroke="#bfbfbf" points="1450,-0.5 1450,-19.5 1491,-19.5 1491,-0.5 1450,-0.5"/>
<text text-anchor="middle" x="1470.5" y="-7.5" font-family="Helvetica,sans-Serif" font-size="10.00">string</text>
</a>
</g>
</g>
<!-- Node4&#45;&gt;Node23 -->
<g id="edge22" class="edge">
<title>Node4&#45;&gt;Node23</title>
<path fill="none" stroke="midnightblue" d="M1094.8,-61.68C1175.14,-56.82 1313.55,-45.63 1439.87,-20.01"/>
<polygon fill="midnightblue" stroke="midnightblue" points="1440.63,-23.42 1449.72,-17.98 1439.22,-16.57 1440.63,-23.42"/>
</g>
<!-- Node24 -->
<g id="node24" class="node">
<title>Node24</title>
<g id="a_node24"><a xlink:title=" ">
<polygon fill="none" stroke="#bfbfbf" points="1509.5,-0.5 1509.5,-19.5 1551.5,-19.5 1551.5,-0.5 1509.5,-0.5"/>
<text text-anchor="middle" x="1530.5" y="-7.5" font-family="Helvetica,sans-Serif" font-size="10.00">vector</text>
</a>
</g>
</g>
<!-- Node4&#45;&gt;Node24 -->
<g id="edge23" class="edge">
<title>Node4&#45;&gt;Node24</title>
<path fill="none" stroke="midnightblue" d="M1094.68,-62.76C1184.84,-58.84 1349.99,-48.43 1499.07,-19.91"/>
<polygon fill="midnightblue" stroke="midnightblue" points="1500.18,-23.26 1509.32,-17.91 1498.84,-16.39 1500.18,-23.26"/>
</g>
<!-- Node25 -->
<g id="node25" class="node">
<title>Node25</title>
<g id="a_node25"><a xlink:title=" ">
<polygon fill="none" stroke="#bfbfbf" points="1569.5,-0.5 1569.5,-19.5 1613.5,-19.5 1613.5,-0.5 1569.5,-0.5"/>
<text text-anchor="middle" x="1591.5" y="-7.5" font-family="Helvetica,sans-Serif" font-size="10.00">thread</text>
</a>
</g>
</g>
<!-- Node4&#45;&gt;Node25 -->
<g id="edge24" class="edge">
<title>Node4&#45;&gt;Node25</title>
<path fill="none" stroke="midnightblue" d="M1094.54,-63.59C1194.19,-60.57 1387.25,-51.11 1559.28,-19.87"/>
<polygon fill="midnightblue" stroke="midnightblue" points="1560.08,-23.28 1569.28,-18.02 1558.81,-16.4 1560.08,-23.28"/>
</g>
<!-- Node26 -->
<g id="node26" class="node">
<title>Node26</title>
<g id="a_node26"><a xlink:title=" ">
<polygon fill="none" stroke="#bfbfbf" points="1631.5,-0.5 1631.5,-19.5 1675.5,-19.5 1675.5,-0.5 1631.5,-0.5"/>
<text text-anchor="middle" x="1653.5" y="-7.5" font-family="Helvetica,sans-Serif" font-size="10.00">mutex</text>
</a>
</g>
</g>
<!-- Node4&#45;&gt;Node26 -->
<g id="edge25" class="edge">
<title>Node4&#45;&gt;Node26</title>
<path fill="none" stroke="midnightblue" d="M1094.55,-64.43C1203.49,-62.53 1425.62,-54.54 1621.39,-19.83"/>
<polygon fill="midnightblue" stroke="midnightblue" points="1622.06,-23.26 1631.28,-18.05 1620.82,-16.38 1622.06,-23.26"/>
</g>
<!-- Node27 -->
<g id="node27" class="node">
<title>Node27</title>
<g id="a_node27"><a xlink:title=" ">
<polygon fill="none" stroke="#bfbfbf" points="1694,-0.5 1694,-19.5 1737,-19.5 1737,-0.5 1694,-0.5"/>
<text text-anchor="middle" x="1715.5" y="-7.5" font-family="Helvetica,sans-Serif" font-size="10.00">queue</text>
</a>
</g>
</g>
<!-- Node4&#45;&gt;Node27 -->
<g id="edge26" class="edge">
<title>Node4&#45;&gt;Node27</title>
<path fill="none" stroke="midnightblue" d="M1094.76,-65.12C1212.54,-64.3 1463.7,-57.97 1683.83,-19.68"/>
<polygon fill="midnightblue" stroke="midnightblue" points="1684.72,-23.08 1693.96,-17.89 1683.5,-16.19 1684.72,-23.08"/>
</g>
<!-- Node28 -->
<g id="node28" class="node">
<title>Node28</title>
<g id="a_node28"><a xlink:title=" ">
<polygon fill="none" stroke="#bfbfbf" points="1755,-0.5 1755,-19.5 1790,-19.5 1790,-0.5 1755,-0.5"/>
<text text-anchor="middle" x="1772.5" y="-7.5" font-family="Helvetica,sans-Serif" font-size="10.00">map</text>
</a>
</g>
</g>
<!-- Node4&#45;&gt;Node28 -->
<g id="edge27" class="edge">
<title>Node4&#45;&gt;Node28</title>
<path fill="none" stroke="midnightblue" d="M1094.59,-63.12C1244.69,-58.54 1604.8,-45.43 1744.69,-19.79"/>
<polygon fill="midnightblue" stroke="midnightblue" points="1745.62,-23.18 1754.77,-17.85 1744.29,-16.31 1745.62,-23.18"/>
</g>
<!-- Node29&#45;&gt;Node3 -->
<g id="edge29" class="edge">
<title>Node29&#45;&gt;Node3</title>
<path fill="none" stroke="midnightblue" d="M2244.56,-461.18C2268.12,-453.71 2293.23,-441.82 2310.5,-423 2330.85,-400.82 2329.5,-388.1 2329.5,-358 2329.5,-358 2329.5,-358 2329.5,-244 2329.5,-175.8 2256.74,-195.24 2190.5,-179 1983.29,-128.2 1326.82,-126.84 1103.06,-127.93"/>
<polygon fill="midnightblue" stroke="midnightblue" points="1103.04,-124.43 1093.06,-127.98 1103.07,-131.43 1103.04,-124.43"/>
</g>
<!-- Node29&#45;&gt;Node30 -->
<g id="edge30" class="edge">
<title>Node29&#45;&gt;Node30</title>
<path fill="none" stroke="midnightblue" d="M2152.02,-459.35C2138.29,-450.86 2123.16,-438.66 2115.5,-423 2108.01,-407.7 2115.08,-388.91 2122.63,-375.47"/>
<polygon fill="midnightblue" stroke="midnightblue" points="2125.73,-377.11 2128.01,-366.76 2119.78,-373.43 2125.73,-377.11"/>
</g>
<!-- Node46 -->
<g id="node46" class="node">
<title>Node46</title>
<g id="a_node46"><a xlink:href="../../d8/dba/a00773.html" target="_top" xlink:title=" ">
<polygon fill="none" stroke="black" points="2124,-403.5 2124,-422.5 2301,-422.5 2301,-403.5 2124,-403.5"/>
<text text-anchor="middle" x="2212.5" y="-410.5" font-family="Helvetica,sans-Serif" font-size="10.00">discordcoreapi/WebHookEntities.hpp</text>
</a>
</g>
</g>
<!-- Node29&#45;&gt;Node46 -->
<g id="edge49" class="edge">
<title>Node29&#45;&gt;Node46</title>
<path fill="none" stroke="midnightblue" d="M2188.08,-459.4C2192.54,-451.11 2198.22,-440.55 2202.98,-431.71"/>
<polygon fill="midnightblue" stroke="midnightblue" points="2206.19,-433.12 2207.84,-422.66 2200.02,-429.81 2206.19,-433.12"/>
</g>
<!-- Node30&#45;&gt;Node3 -->
<g id="edge31" class="edge">
<title>Node30&#45;&gt;Node3</title>
<path fill="none" stroke="midnightblue" d="M2136.63,-347.3C2143.18,-318.27 2159.68,-224.02 2110.5,-179 2073.4,-145.03 1342.86,-132.58 1103.05,-129.4"/>
<polygon fill="midnightblue" stroke="midnightblue" points="1103.06,-125.9 1093.02,-129.26 1102.97,-132.89 1103.06,-125.9"/>
</g>
<!-- Node31 -->
<g id="node31" class="node">
<title>Node31</title>
<g id="a_node31"><a xlink:href="../../db/d7c/a00722.html" target="_top" xlink:title=" ">
<polygon fill="none" stroke="black" points="1366,-291.5 1366,-310.5 1491,-310.5 1491,-291.5 1366,-291.5"/>
<text text-anchor="middle" x="1428.5" y="-298.5" font-family="Helvetica,sans-Serif" font-size="10.00">discordcoreapi/Https.hpp</text>
</a>
</g>
</g>
<!-- Node30&#45;&gt;Node31 -->
<g id="edge32" class="edge">
<title>Node30&#45;&gt;Node31</title>
<path fill="none" stroke="midnightblue" d="M2047.22,-349.32C1906.6,-338.57 1632.42,-317.6 1501.5,-307.58"/>
<polygon fill="midnightblue" stroke="midnightblue" points="1501.42,-304.07 1491.18,-306.79 1500.89,-311.05 1501.42,-304.07"/>
</g>
<!-- Node32 -->
<g id="node32" class="node">
<title>Node32</title>
<g id="a_node32"><a xlink:href="../../d5/de8/a00749.html" target="_top" xlink:title=" ">
<polygon fill="none" stroke="black" points="1402.5,-235.5 1402.5,-254.5 1552.5,-254.5 1552.5,-235.5 1402.5,-235.5"/>
<text text-anchor="middle" x="1477.5" y="-242.5" font-family="Helvetica,sans-Serif" font-size="10.00">discordcoreapi/SSLClients.hpp</text>
</a>
</g>
</g>
<!-- Node31&#45;&gt;Node32 -->
<g id="edge33" class="edge">
<title>Node31&#45;&gt;Node32</title>
<path fill="none" stroke="midnightblue" d="M1436.59,-291.08C1443.66,-283.3 1454.09,-271.8 1462.65,-262.37"/>
<polygon fill="midnightblue" stroke="midnightblue" points="1465.43,-264.51 1469.56,-254.75 1460.25,-259.8 1465.43,-264.51"/>
</g>
<!-- Node32&#45;&gt;Node3 -->
<g id="edge34" class="edge">
<title>Node32&#45;&gt;Node3</title>
<path fill="none" stroke="midnightblue" d="M1402.44,-243.23C1261.86,-241 970.2,-232.37 939.5,-199 921.08,-178.98 948.59,-159.92 977.59,-146.68"/>
<polygon fill="midnightblue" stroke="midnightblue" points="979.22,-149.79 987,-142.59 976.44,-143.36 979.22,-149.79"/>
</g>
<!-- Node33 -->
<g id="node33" class="node">
<title>Node33</title>
<g id="a_node33"><a xlink:href="../../d4/d6a/a00704.html" target="_top" xlink:title=" ">
<polygon fill="none" stroke="black" points="948.5,-179.5 948.5,-198.5 1106.5,-198.5 1106.5,-179.5 948.5,-179.5"/>
<text text-anchor="middle" x="1027.5" y="-186.5" font-family="Helvetica,sans-Serif" font-size="10.00">discordcoreapi/EventEntities.hpp</text>
</a>
</g>
</g>
<!-- Node32&#45;&gt;Node33 -->
<g id="edge35" class="edge">
<title>Node32&#45;&gt;Node33</title>
<path fill="none" stroke="midnightblue" d="M1406.2,-235.44C1325.23,-225.73 1193.39,-209.91 1108.57,-199.73"/>
<polygon fill="midnightblue" stroke="midnightblue" points="1108.82,-196.23 1098.47,-198.52 1107.98,-203.18 1108.82,-196.23"/>
</g>
<!-- Node34 -->
<g id="node34" class="node">
<title>Node34</title>
<g id="a_node34"><a xlink:title=" ">
<polygon fill="none" stroke="#bfbfbf" points="1774,-179.5 1774,-198.5 1847,-198.5 1847,-179.5 1774,-179.5"/>
<text text-anchor="middle" x="1810.5" y="-186.5" font-family="Helvetica,sans-Serif" font-size="10.00">openssl/err.h</text>
</a>
</g>
</g>
<!-- Node32&#45;&gt;Node34 -->
<g id="edge37" class="edge">
<title>Node32&#45;&gt;Node34</title>
<path fill="none" stroke="midnightblue" d="M1536.92,-235.47C1593.01,-227.24 1679.74,-214.09 1763.73,-199.26"/>
<polygon fill="midnightblue" stroke="midnightblue" points="1764.45,-202.69 1773.69,-197.49 1763.23,-195.8 1764.45,-202.69"/>
</g>
<!-- Node35 -->
<g id="node35" class="node">
<title>Node35</title>
<g id="a_node35"><a xlink:title=" ">
<polygon fill="none" stroke="#bfbfbf" points="1865.5,-179.5 1865.5,-198.5 1939.5,-198.5 1939.5,-179.5 1865.5,-179.5"/>
<text text-anchor="middle" x="1902.5" y="-186.5" font-family="Helvetica,sans-Serif" font-size="10.00">openssl/ssl.h</text>
</a>
</g>
</g>
<!-- Node32&#45;&gt;Node35 -->
<g id="edge38" class="edge">
<title>Node32&#45;&gt;Node35</title>
<path fill="none" stroke="midnightblue" d="M1552.52,-236.77C1626.9,-229.22 1744.31,-216.28 1855.35,-199.08"/>
<polygon fill="midnightblue" stroke="midnightblue" points="1856.05,-202.51 1865.39,-197.51 1854.96,-195.6 1856.05,-202.51"/>
</g>
<!-- Node36 -->
<g id="node36" class="node">
<title>Node36</title>
<g id="a_node36"><a xlink:title=" ">
<polygon fill="none" stroke="#bfbfbf" points="1958,-179.5 1958,-198.5 2001,-198.5 2001,-179.5 1958,-179.5"/>
<text text-anchor="middle" x="1979.5" y="-186.5" font-family="Helvetica,sans-Serif" font-size="10.00">fcntl.h</text>
</a>
</g>
</g>
<!-- Node32&#45;&gt;Node36 -->
<g id="edge39" class="edge">
<title>Node32&#45;&gt;Node36</title>
<path fill="none" stroke="midnightblue" d="M1552.75,-241.15C1644.15,-236.73 1803,-225.92 1947.97,-198.72"/>
<polygon fill="midnightblue" stroke="midnightblue" points="1948.78,-202.13 1957.95,-196.82 1947.47,-195.25 1948.78,-202.13"/>
</g>
<!-- Node37 -->
<g id="node37" class="node">
<title>Node37</title>
<g id="a_node37"><a xlink:title=" ">
<polygon fill="none" stroke="#bfbfbf" points="2019,-179.5 2019,-198.5 2068,-198.5 2068,-179.5 2019,-179.5"/>
<text text-anchor="middle" x="2043.5" y="-186.5" font-family="Helvetica,sans-Serif" font-size="10.00">netdb.h</text>
</a>
</g>
</g>
<!-- Node32&#45;&gt;Node37 -->
<g id="edge40" class="edge">
<title>Node32&#45;&gt;Node37</title>
<path fill="none" stroke="midnightblue" d="M1552.65,-241.96C1654.33,-238.24 1841.39,-228.03 2008.77,-199.03"/>
<polygon fill="midnightblue" stroke="midnightblue" points="2009.5,-202.45 2018.74,-197.27 2008.29,-195.56 2009.5,-202.45"/>
</g>
<!-- Node38 -->
<g id="node38" class="node">
<title>Node38</title>
<g id="a_node38"><a xlink:title=" ">
<polygon fill="none" stroke="#bfbfbf" points="1125,-179.5 1125,-198.5 1190,-198.5 1190,-179.5 1125,-179.5"/>
<text text-anchor="middle" x="1157.5" y="-186.5" font-family="Helvetica,sans-Serif" font-size="10.00">netinet/in.h</text>
</a>
</g>
</g>
<!-- Node32&#45;&gt;Node38 -->
<g id="edge41" class="edge">
<title>Node32&#45;&gt;Node38</title>
<path fill="none" stroke="midnightblue" d="M1418.55,-235.47C1364.17,-227.39 1280.98,-214.46 1200,-199.21"/>
<polygon fill="midnightblue" stroke="midnightblue" points="1200.62,-195.76 1190.14,-197.34 1199.31,-202.64 1200.62,-195.76"/>
</g>
<!-- Node39 -->
<g id="node39" class="node">
<title>Node39</title>
<g id="a_node39"><a xlink:title=" ">
<polygon fill="none" stroke="#bfbfbf" points="1208,-179.5 1208,-198.5 1279,-198.5 1279,-179.5 1208,-179.5"/>
<text text-anchor="middle" x="1243.5" y="-186.5" font-family="Helvetica,sans-Serif" font-size="10.00">netinet/tcp.h</text>
</a>
</g>
</g>
<!-- Node32&#45;&gt;Node39 -->
<g id="edge42" class="edge">
<title>Node32&#45;&gt;Node39</title>
<path fill="none" stroke="midnightblue" d="M1440.42,-235.44C1399.41,-225.98 1333.31,-210.73 1289.15,-200.54"/>
<polygon fill="midnightblue" stroke="midnightblue" points="1289.78,-197.09 1279.25,-198.25 1288.21,-203.91 1289.78,-197.09"/>
</g>
<!-- Node40 -->
<g id="node40" class="node">
<title>Node40</title>
<g id="a_node40"><a xlink:title=" ">
<polygon fill="none" stroke="#bfbfbf" points="1297,-179.5 1297,-198.5 1346,-198.5 1346,-179.5 1297,-179.5"/>
<text text-anchor="middle" x="1321.5" y="-186.5" font-family="Helvetica,sans-Serif" font-size="10.00">stdint.h</text>
</a>
</g>
</g>
<!-- Node32&#45;&gt;Node40 -->
<g id="edge43" class="edge">
<title>Node32&#45;&gt;Node40</title>
<path fill="none" stroke="midnightblue" d="M1452.78,-235.44C1426.65,-226.4 1385.24,-212.06 1355.92,-201.92"/>
<polygon fill="midnightblue" stroke="midnightblue" points="1356.7,-198.48 1346.1,-198.52 1354.41,-205.1 1356.7,-198.48"/>
</g>
<!-- Node41 -->
<g id="node41" class="node">
<title>Node41</title>
<g id="a_node41"><a xlink:title=" ">
<polygon fill="none" stroke="#bfbfbf" points="1364.5,-179.5 1364.5,-198.5 1428.5,-198.5 1428.5,-179.5 1364.5,-179.5"/>
<text text-anchor="middle" x="1396.5" y="-186.5" font-family="Helvetica,sans-Serif" font-size="10.00">sys/epoll.h</text>
</a>
</g>
</g>
<!-- Node32&#45;&gt;Node41 -->
<g id="edge44" class="edge">
<title>Node32&#45;&gt;Node41</title>
<path fill="none" stroke="midnightblue" d="M1464.49,-235.32C1451.97,-226.98 1432.82,-214.21 1418.03,-204.35"/>
<polygon fill="midnightblue" stroke="midnightblue" points="1419.74,-201.29 1409.48,-198.65 1415.86,-207.11 1419.74,-201.29"/>
</g>
<!-- Node42 -->
<g id="node42" class="node">
<title>Node42</title>
<g id="a_node42"><a xlink:title=" ">
<polygon fill="none" stroke="#bfbfbf" points="1446.5,-179.5 1446.5,-198.5 1508.5,-198.5 1508.5,-179.5 1446.5,-179.5"/>
<text text-anchor="middle" x="1477.5" y="-186.5" font-family="Helvetica,sans-Serif" font-size="10.00">arpa/inet.h</text>
</a>
</g>
</g>
<!-- Node32&#45;&gt;Node42 -->
<g id="edge45" class="edge">
<title>Node32&#45;&gt;Node42</title>
<path fill="none" stroke="midnightblue" d="M1477.5,-235.08C1477.5,-228.01 1477.5,-217.86 1477.5,-208.99"/>
<polygon fill="midnightblue" stroke="midnightblue" points="1481,-208.75 1477.5,-198.75 1474,-208.75 1481,-208.75"/>
</g>
<!-- Node43 -->
<g id="node43" class="node">
<title>Node43</title>
<g id="a_node43"><a xlink:title=" ">
<polygon fill="none" stroke="#bfbfbf" points="1527,-179.5 1527,-198.5 1600,-198.5 1600,-179.5 1527,-179.5"/>
<text text-anchor="middle" x="1563.5" y="-186.5" font-family="Helvetica,sans-Serif" font-size="10.00">sys/socket.h</text>
</a>
</g>
</g>
<!-- Node32&#45;&gt;Node43 -->
<g id="edge46" class="edge">
<title>Node32&#45;&gt;Node43</title>
<path fill="none" stroke="midnightblue" d="M1491.32,-235.32C1504.73,-226.9 1525.32,-213.97 1541.09,-204.07"/>
<polygon fill="midnightblue" stroke="midnightblue" points="1543.11,-206.94 1549.72,-198.65 1539.39,-201.01 1543.11,-206.94"/>
</g>
<!-- Node44 -->
<g id="node44" class="node">
<title>Node44</title>
<g id="a_node44"><a xlink:title=" ">
<polygon fill="none" stroke="#bfbfbf" points="1618.5,-179.5 1618.5,-198.5 1686.5,-198.5 1686.5,-179.5 1618.5,-179.5"/>
<text text-anchor="middle" x="1652.5" y="-186.5" font-family="Helvetica,sans-Serif" font-size="10.00">sys/types.h</text>
</a>
</g>
</g>
<!-- Node32&#45;&gt;Node44 -->
<g id="edge47" class="edge">
<title>Node32&#45;&gt;Node44</title>
<path fill="none" stroke="midnightblue" d="M1505.23,-235.44C1534.93,-226.28 1582.22,-211.69 1615.17,-201.52"/>
<polygon fill="midnightblue" stroke="midnightblue" points="1616.38,-204.81 1624.9,-198.52 1614.31,-198.12 1616.38,-204.81"/>
</g>
<!-- Node45 -->
<g id="node45" class="node">
<title>Node45</title>
<g id="a_node45"><a xlink:title=" ">
<polygon fill="none" stroke="#bfbfbf" points="1705,-179.5 1705,-198.5 1756,-198.5 1756,-179.5 1705,-179.5"/>
<text text-anchor="middle" x="1730.5" y="-186.5" font-family="Helvetica,sans-Serif" font-size="10.00">unistd.h</text>
</a>
</g>
</g>
<!-- Node32&#45;&gt;Node45 -->
<g id="edge48" class="edge">
<title>Node32&#45;&gt;Node45</title>
<path fill="none" stroke="midnightblue" d="M1521.89,-235.49C1563.89,-227.29 1628.9,-214.22 1694.77,-199.08"/>
<polygon fill="midnightblue" stroke="midnightblue" points="1695.97,-202.39 1704.92,-196.73 1694.39,-195.57 1695.97,-202.39"/>
</g>
<!-- Node33&#45;&gt;Node3 -->
<g id="edge36" class="edge">
<title>Node33&#45;&gt;Node3</title>
<path fill="none" stroke="midnightblue" d="M1027.5,-179.48C1027.5,-172.47 1027.5,-162.19 1027.5,-152.7"/>
<polygon fill="midnightblue" stroke="midnightblue" points="1031,-152.52 1027.5,-142.52 1024,-152.52 1031,-152.52"/>
</g>
<!-- Node46&#45;&gt;Node3 -->
<g id="edge50" class="edge">
<title>Node46&#45;&gt;Node3</title>
<path fill="none" stroke="midnightblue" d="M2217.49,-403.49C2227.59,-385.44 2249.5,-341.69 2249.5,-302 2249.5,-302 2249.5,-302 2249.5,-244 2249.5,-184.13 2189.13,-195.24 2131.5,-179 2033.29,-151.33 1336.07,-134.78 1103.1,-129.97"/>
<polygon fill="midnightblue" stroke="midnightblue" points="1103.09,-126.47 1093.02,-129.76 1102.94,-133.47 1103.09,-126.47"/>
</g>
<!-- Node46&#45;&gt;Node30 -->
<g id="edge51" class="edge">
<title>Node46&#45;&gt;Node30</title>
<path fill="none" stroke="midnightblue" d="M2199.97,-403.32C2187.91,-394.98 2169.47,-382.21 2155.23,-372.35"/>
<polygon fill="midnightblue" stroke="midnightblue" points="2157.22,-369.47 2147,-366.65 2153.23,-375.22 2157.22,-369.47"/>
</g>
<!-- Node47&#45;&gt;Node3 -->
<g id="edge54" class="edge">
<title>Node47&#45;&gt;Node3</title>
<path fill="none" stroke="midnightblue" d="M1294.13,-353.9C1188.66,-346.16 1013.06,-315.34 930.5,-199 914.57,-176.56 940.96,-158.49 970.21,-146.27"/>
<polygon fill="midnightblue" stroke="midnightblue" points="971.73,-149.43 979.75,-142.51 969.17,-142.92 971.73,-149.43"/>
</g>
<!-- Node47&#45;&gt;Node31 -->
<g id="edge55" class="edge">
<title>Node47&#45;&gt;Node31</title>
<path fill="none" stroke="midnightblue" d="M1387.59,-347.08C1394.66,-339.3 1405.09,-327.8 1413.65,-318.37"/>
<polygon fill="midnightblue" stroke="midnightblue" points="1416.43,-320.51 1420.56,-310.75 1411.25,-315.8 1416.43,-320.51"/>
</g>
<!-- Node48&#45;&gt;Node3 -->
<g id="edge57" class="edge">
<title>Node48&#45;&gt;Node3</title>
<path fill="none" stroke="midnightblue" d="M1050.53,-403.45C964.66,-388.3 806.5,-353.43 806.5,-302 806.5,-302 806.5,-302 806.5,-244 806.5,-176.81 887.72,-148.64 951.69,-136.87"/>
<polygon fill="midnightblue" stroke="midnightblue" points="952.54,-140.27 961.79,-135.12 951.34,-133.38 952.54,-140.27"/>
</g>
<!-- Node49 -->
<g id="node49" class="node">
<title>Node49</title>
<g id="a_node49"><a xlink:href="../../d3/d4f/a00761.html" target="_top" xlink:title=" ">
<polygon fill="none" stroke="black" points="1029.5,-347.5 1029.5,-366.5 1179.5,-366.5 1179.5,-347.5 1029.5,-347.5"/>
<text text-anchor="middle" x="1104.5" y="-354.5" font-family="Helvetica,sans-Serif" font-size="10.00">discordcoreapi/ThreadPool.hpp</text>
</a>
</g>
</g>
<!-- Node48&#45;&gt;Node49 -->
<g id="edge58" class="edge">
<title>Node48&#45;&gt;Node49</title>
<path fill="none" stroke="midnightblue" d="M1104.5,-403.08C1104.5,-396.01 1104.5,-385.86 1104.5,-376.99"/>
<polygon fill="midnightblue" stroke="midnightblue" points="1108,-376.75 1104.5,-366.75 1101,-376.75 1108,-376.75"/>
</g>
<!-- Node49&#45;&gt;Node3 -->
<g id="edge59" class="edge">
<title>Node49&#45;&gt;Node3</title>
<path fill="none" stroke="midnightblue" d="M1029.3,-351.85C968.12,-346.71 888.71,-335.42 868.5,-311 831.1,-265.8 833.86,-226.35 868.5,-179 887.79,-152.63 920.95,-139.7 952.01,-133.48"/>
<polygon fill="midnightblue" stroke="midnightblue" points="952.77,-136.9 962,-131.68 951.54,-130.01 952.77,-136.9"/>
</g>
<!-- Node49&#45;&gt;Node31 -->
<g id="edge60" class="edge">
<title>Node49&#45;&gt;Node31</title>
<path fill="none" stroke="midnightblue" d="M1155.84,-347.44C1213.31,-337.87 1306.37,-322.36 1367.5,-312.17"/>
<polygon fill="midnightblue" stroke="midnightblue" points="1368.11,-315.61 1377.4,-310.52 1366.96,-308.71 1368.11,-315.61"/>
</g>
</g>
</svg>
