<?xml version="1.0" encoding="UTF-8" standalone="no"?>
<!DOCTYPE svg PUBLIC "-//W3C//DTD SVG 1.1//EN"
 "http://www.w3.org/Graphics/SVG/1.1/DTD/svg11.dtd">
<!-- Generated by graphviz version 3.0.0 (20220226.1711)
 -->
<!-- Title: InputEvents.cpp Pages: 1 -->
<svg width="1974pt" height="610pt"
 viewBox="0.00 0.00 1974.00 610.00" xmlns="http://www.w3.org/2000/svg" xmlns:xlink="http://www.w3.org/1999/xlink">
<g id="graph0" class="graph" transform="scale(1 1) rotate(0) translate(4 606)">
<title>InputEvents.cpp</title>
<!-- Node1 -->
<g id="node1" class="node">
<title>Node1</title>
<g id="a_node1"><a xlink:title=" ">
<polygon fill="#bfbfbf" stroke="black" points="788,-582.5 788,-601.5 874,-601.5 874,-582.5 788,-582.5"/>
<text text-anchor="middle" x="831" y="-589.5" font-family="Helvetica,sans-Serif" font-size="10.00">InputEvents.cpp</text>
</a>
</g>
</g>
<!-- Node2 -->
<g id="node2" class="node">
<title>Node2</title>
<g id="a_node2"><a xlink:href="../../df/d3b/a00728.html" target="_top" xlink:title=" ">
<polygon fill="none" stroke="black" points="1132,-526.5 1132,-545.5 1284,-545.5 1284,-526.5 1132,-526.5"/>
<text text-anchor="middle" x="1208" y="-533.5" font-family="Helvetica,sans-Serif" font-size="10.00">discordcoreapi/InputEvents.hpp</text>
</a>
</g>
</g>
<!-- Node1&#45;&gt;Node2 -->
<g id="edge1" class="edge">
<title>Node1&#45;&gt;Node2</title>
<path fill="none" stroke="midnightblue" d="M874.25,-584.81C938.85,-575.55 1061.2,-558.03 1138.46,-546.96"/>
<polygon fill="midnightblue" stroke="midnightblue" points="1139.18,-550.39 1148.58,-545.51 1138.19,-543.46 1139.18,-550.39"/>
</g>
<!-- Node47 -->
<g id="node47" class="node">
<title>Node47</title>
<g id="a_node47"><a xlink:href="../../d1/d87/a00689.html" target="_top" xlink:title=" ">
<polygon fill="none" stroke="black" points="746,-347.5 746,-366.5 916,-366.5 916,-347.5 746,-347.5"/>
<text text-anchor="middle" x="831" y="-354.5" font-family="Helvetica,sans-Serif" font-size="10.00">discordcoreapi/ChannelEntities.hpp</text>
</a>
</g>
</g>
<!-- Node1&#45;&gt;Node47 -->
<g id="edge54" class="edge">
<title>Node1&#45;&gt;Node47</title>
<path fill="none" stroke="midnightblue" d="M831,-582.43C831,-548.75 831,-424.99 831,-377.1"/>
<polygon fill="midnightblue" stroke="midnightblue" points="834.5,-376.9 831,-366.9 827.5,-376.9 834.5,-376.9"/>
</g>
<!-- Node48 -->
<g id="node48" class="node">
<title>Node48</title>
<g id="a_node48"><a xlink:href="../../d5/d5b/a00695.html" target="_top" xlink:title=" ">
<polygon fill="none" stroke="black" points="319,-403.5 319,-422.5 465,-422.5 465,-403.5 319,-403.5"/>
<text text-anchor="middle" x="392" y="-410.5" font-family="Helvetica,sans-Serif" font-size="10.00">discordcoreapi/CoRoutine.hpp</text>
</a>
</g>
</g>
<!-- Node1&#45;&gt;Node48 -->
<g id="edge57" class="edge">
<title>Node1&#45;&gt;Node48</title>
<path fill="none" stroke="midnightblue" d="M809.83,-582.46C738.48,-553.7 506.65,-460.22 422.7,-426.38"/>
<polygon fill="midnightblue" stroke="midnightblue" points="423.8,-423.05 413.22,-422.55 421.18,-429.54 423.8,-423.05"/>
</g>
<!-- Node3 -->
<g id="node3" class="node">
<title>Node3</title>
<g id="a_node3"><a xlink:href="../../d4/deb/a00710.html" target="_top" xlink:title=" ">
<polygon fill="none" stroke="black" points="1194.5,-112.5 1194.5,-142.5 1325.5,-142.5 1325.5,-112.5 1194.5,-112.5"/>
<text text-anchor="start" x="1202.5" y="-130.5" font-family="Helvetica,sans-Serif" font-size="10.00">discordcoreapi/Foundation</text>
<text text-anchor="middle" x="1260" y="-119.5" font-family="Helvetica,sans-Serif" font-size="10.00">Entities.hpp</text>
</a>
</g>
</g>
<!-- Node2&#45;&gt;Node3 -->
<g id="edge2" class="edge">
<title>Node2&#45;&gt;Node3</title>
<path fill="none" stroke="midnightblue" d="M1284.29,-527.04C1352.25,-515.23 1441,-486.02 1441,-414 1441,-414 1441,-414 1441,-244 1441,-190.97 1385.1,-161.21 1335.43,-145.23"/>
<polygon fill="midnightblue" stroke="midnightblue" points="1336.19,-141.8 1325.6,-142.22 1334.14,-148.5 1336.19,-141.8"/>
</g>
<!-- Node29 -->
<g id="node29" class="node">
<title>Node29</title>
<g id="a_node29"><a xlink:href="../../df/df7/a00731.html" target="_top" xlink:title=" ">
<polygon fill="none" stroke="black" points="1191,-459.5 1191,-489.5 1319,-489.5 1319,-459.5 1191,-459.5"/>
<text text-anchor="start" x="1199" y="-477.5" font-family="Helvetica,sans-Serif" font-size="10.00">discordcoreapi/Interaction</text>
<text text-anchor="middle" x="1255" y="-466.5" font-family="Helvetica,sans-Serif" font-size="10.00">Entities.hpp</text>
</a>
</g>
</g>
<!-- Node2&#45;&gt;Node29 -->
<g id="edge28" class="edge">
<title>Node2&#45;&gt;Node29</title>
<path fill="none" stroke="midnightblue" d="M1214.73,-526.48C1220.68,-518.94 1229.62,-507.63 1237.57,-497.57"/>
<polygon fill="midnightblue" stroke="midnightblue" points="1240.47,-499.54 1243.92,-489.52 1234.98,-495.2 1240.47,-499.54"/>
</g>
<!-- Node30 -->
<g id="node30" class="node">
<title>Node30</title>
<g id="a_node30"><a xlink:href="../../d6/dc0/a00734.html" target="_top" xlink:title=" ">
<polygon fill="none" stroke="black" points="1082,-347.5 1082,-366.5 1256,-366.5 1256,-347.5 1082,-347.5"/>
<text text-anchor="middle" x="1169" y="-354.5" font-family="Helvetica,sans-Serif" font-size="10.00">discordcoreapi/MessageEntities.hpp</text>
</a>
</g>
</g>
<!-- Node2&#45;&gt;Node30 -->
<g id="edge53" class="edge">
<title>Node2&#45;&gt;Node30</title>
<path fill="none" stroke="midnightblue" d="M1201.47,-526.21C1195.35,-517.5 1186.5,-503.53 1182,-490 1169.13,-451.35 1167.84,-403.08 1168.27,-376.95"/>
<polygon fill="midnightblue" stroke="midnightblue" points="1171.78,-376.7 1168.55,-366.61 1164.78,-376.51 1171.78,-376.7"/>
</g>
<!-- Node4 -->
<g id="node4" class="node">
<title>Node4</title>
<g id="a_node4"><a xlink:href="../../d5/dae/a00767.html" target="_top" xlink:title=" ">
<polygon fill="none" stroke="black" points="1164,-56.5 1164,-75.5 1298,-75.5 1298,-56.5 1164,-56.5"/>
<text text-anchor="middle" x="1231" y="-63.5" font-family="Helvetica,sans-Serif" font-size="10.00">discordcoreapi/Utilities.hpp</text>
</a>
</g>
</g>
<!-- Node3&#45;&gt;Node4 -->
<g id="edge3" class="edge">
<title>Node3&#45;&gt;Node4</title>
<path fill="none" stroke="midnightblue" d="M1253.13,-112.4C1249.09,-104.11 1243.94,-93.55 1239.63,-84.71"/>
<polygon fill="midnightblue" stroke="midnightblue" points="1242.75,-83.11 1235.22,-75.66 1236.45,-86.18 1242.75,-83.11"/>
</g>
<!-- Node5 -->
<g id="node5" class="node">
<title>Node5</title>
<g id="a_node5"><a xlink:title=" ">
<polygon fill="none" stroke="#bfbfbf" points="1828.5,-0.5 1828.5,-19.5 1885.5,-19.5 1885.5,-0.5 1828.5,-0.5"/>
<text text-anchor="middle" x="1857" y="-7.5" font-family="Helvetica,sans-Serif" font-size="10.00">pthread.h</text>
</a>
</g>
</g>
<!-- Node4&#45;&gt;Node5 -->
<g id="edge4" class="edge">
<title>Node4&#45;&gt;Node5</title>
<path fill="none" stroke="midnightblue" d="M1298.1,-63.41C1405.99,-60.09 1624.73,-50.13 1818.33,-20.03"/>
<polygon fill="midnightblue" stroke="midnightblue" points="1819.08,-23.46 1828.41,-18.44 1817.99,-16.54 1819.08,-23.46"/>
</g>
<!-- Node6 -->
<g id="node6" class="node">
<title>Node6</title>
<g id="a_node6"><a xlink:title=" ">
<polygon fill="none" stroke="#bfbfbf" points="1904,-0.5 1904,-19.5 1966,-19.5 1966,-0.5 1904,-0.5"/>
<text text-anchor="middle" x="1935" y="-7.5" font-family="Helvetica,sans-Serif" font-size="10.00">sys/time.h</text>
</a>
</g>
</g>
<!-- Node4&#45;&gt;Node6 -->
<g id="edge5" class="edge">
<title>Node4&#45;&gt;Node6</title>
<path fill="none" stroke="midnightblue" d="M1298.28,-63.85C1416.83,-61.08 1670.75,-51.8 1893.72,-19.97"/>
<polygon fill="midnightblue" stroke="midnightblue" points="1894.25,-23.43 1903.64,-18.53 1893.24,-16.5 1894.25,-23.43"/>
</g>
<!-- Node7 -->
<g id="node7" class="node">
<title>Node7</title>
<g id="a_node7"><a xlink:title=" ">
<polygon fill="none" stroke="#bfbfbf" points="260,-0.5 260,-19.5 304,-19.5 304,-0.5 260,-0.5"/>
<text text-anchor="middle" x="282" y="-7.5" font-family="Helvetica,sans-Serif" font-size="10.00">time.h</text>
</a>
</g>
</g>
<!-- Node4&#45;&gt;Node7 -->
<g id="edge6" class="edge">
<title>Node4&#45;&gt;Node7</title>
<path fill="none" stroke="midnightblue" d="M1163.87,-63.74C984.4,-60.06 495.37,-47.86 314.15,-19.73"/>
<polygon fill="midnightblue" stroke="midnightblue" points="314.64,-16.27 304.21,-18.12 313.52,-23.18 314.64,-16.27"/>
</g>
<!-- Node8 -->
<g id="node8" class="node">
<title>Node8</title>
<g id="a_node8"><a xlink:title=" ">
<polygon fill="none" stroke="#bfbfbf" points="322.5,-0.5 322.5,-19.5 363.5,-19.5 363.5,-0.5 322.5,-0.5"/>
<text text-anchor="middle" x="343" y="-7.5" font-family="Helvetica,sans-Serif" font-size="10.00">ctime</text>
</a>
</g>
</g>
<!-- Node4&#45;&gt;Node8 -->
<g id="edge7" class="edge">
<title>Node4&#45;&gt;Node8</title>
<path fill="none" stroke="midnightblue" d="M1163.78,-63.64C992.56,-59.82 542.22,-47.58 373.72,-19.84"/>
<polygon fill="midnightblue" stroke="midnightblue" points="374.21,-16.37 363.76,-18.12 373.02,-23.27 374.21,-16.37"/>
</g>
<!-- Node9 -->
<g id="node9" class="node">
<title>Node9</title>
<g id="a_node9"><a xlink:title=" ">
<polygon fill="none" stroke="#bfbfbf" points="381.5,-0.5 381.5,-19.5 474.5,-19.5 474.5,-0.5 381.5,-0.5"/>
<text text-anchor="middle" x="428" y="-7.5" font-family="Helvetica,sans-Serif" font-size="10.00">condition_variable</text>
</a>
</g>
</g>
<!-- Node4&#45;&gt;Node9 -->
<g id="edge8" class="edge">
<title>Node4&#45;&gt;Node9</title>
<path fill="none" stroke="midnightblue" d="M1163.85,-63.19C1034.52,-59.21 741.74,-47.84 484.97,-19.99"/>
<polygon fill="midnightblue" stroke="midnightblue" points="485.03,-16.47 474.7,-18.86 484.26,-23.43 485.03,-16.47"/>
</g>
<!-- Node10 -->
<g id="node10" class="node">
<title>Node10</title>
<g id="a_node10"><a xlink:title=" ">
<polygon fill="none" stroke="#bfbfbf" points="493,-0.5 493,-19.5 591,-19.5 591,-0.5 493,-0.5"/>
<text text-anchor="middle" x="542" y="-7.5" font-family="Helvetica,sans-Serif" font-size="10.00">nlohmann/json.hpp</text>
</a>
</g>
</g>
<!-- Node4&#45;&gt;Node10 -->
<g id="edge9" class="edge">
<title>Node4&#45;&gt;Node10</title>
<path fill="none" stroke="midnightblue" d="M1163.59,-62.03C1049.81,-56.61 812.2,-43.55 601.04,-20.02"/>
<polygon fill="midnightblue" stroke="midnightblue" points="601.34,-16.54 591.01,-18.9 600.56,-23.49 601.34,-16.54"/>
</g>
<!-- Node11 -->
<g id="node11" class="node">
<title>Node11</title>
<g id="a_node11"><a xlink:title=" ">
<polygon fill="none" stroke="#bfbfbf" points="609.5,-0.5 609.5,-19.5 694.5,-19.5 694.5,-0.5 609.5,-0.5"/>
<text text-anchor="middle" x="652" y="-7.5" font-family="Helvetica,sans-Serif" font-size="10.00">source_location</text>
</a>
</g>
</g>
<!-- Node4&#45;&gt;Node11 -->
<g id="edge10" class="edge">
<title>Node4&#45;&gt;Node11</title>
<path fill="none" stroke="midnightblue" d="M1163.83,-61.13C1065.4,-55.03 876,-41.75 704.49,-19.95"/>
<polygon fill="midnightblue" stroke="midnightblue" points="704.89,-16.47 694.52,-18.67 703.99,-23.41 704.89,-16.47"/>
</g>
<!-- Node12 -->
<g id="node12" class="node">
<title>Node12</title>
<g id="a_node12"><a xlink:title=" ">
<polygon fill="none" stroke="#bfbfbf" points="712.5,-0.5 712.5,-19.5 795.5,-19.5 795.5,-0.5 712.5,-0.5"/>
<text text-anchor="middle" x="754" y="-7.5" font-family="Helvetica,sans-Serif" font-size="10.00">unordered_map</text>
</a>
</g>
</g>
<!-- Node4&#45;&gt;Node12 -->
<g id="edge11" class="edge">
<title>Node4&#45;&gt;Node12</title>
<path fill="none" stroke="midnightblue" d="M1163.68,-59.34C1081.62,-52.12 938.5,-38.48 805.66,-20"/>
<polygon fill="midnightblue" stroke="midnightblue" points="806.1,-16.53 795.71,-18.6 805.13,-23.46 806.1,-16.53"/>
</g>
<!-- Node13 -->
<g id="node13" class="node">
<title>Node13</title>
<g id="a_node13"><a xlink:title=" ">
<polygon fill="none" stroke="#bfbfbf" points="814,-0.5 814,-19.5 892,-19.5 892,-0.5 814,-0.5"/>
<text text-anchor="middle" x="853" y="-7.5" font-family="Helvetica,sans-Serif" font-size="10.00">shared_mutex</text>
</a>
</g>
</g>
<!-- Node4&#45;&gt;Node13 -->
<g id="edge12" class="edge">
<title>Node4&#45;&gt;Node13</title>
<path fill="none" stroke="midnightblue" d="M1163.86,-56.84C1099.29,-48.77 998.71,-35.6 901.96,-20.09"/>
<polygon fill="midnightblue" stroke="midnightblue" points="902.43,-16.62 892,-18.48 901.32,-23.53 902.43,-16.62"/>
</g>
<!-- Node14 -->
<g id="node14" class="node">
<title>Node14</title>
<g id="a_node14"><a xlink:title=" ">
<polygon fill="none" stroke="#bfbfbf" points="910,-0.5 910,-19.5 968,-19.5 968,-0.5 910,-0.5"/>
<text text-anchor="middle" x="939" y="-7.5" font-family="Helvetica,sans-Serif" font-size="10.00">functional</text>
</a>
</g>
</g>
<!-- Node4&#45;&gt;Node14 -->
<g id="edge13" class="edge">
<title>Node4&#45;&gt;Node14</title>
<path fill="none" stroke="midnightblue" d="M1177.8,-56.49C1128.51,-48.39 1052.91,-35.46 978.08,-20.13"/>
<polygon fill="midnightblue" stroke="midnightblue" points="978.51,-16.64 968.01,-18.05 977.09,-23.5 978.51,-16.64"/>
</g>
<!-- Node15 -->
<g id="node15" class="node">
<title>Node15</title>
<g id="a_node15"><a xlink:title=" ">
<polygon fill="none" stroke="#bfbfbf" points="986,-0.5 986,-19.5 1042,-19.5 1042,-0.5 986,-0.5"/>
<text text-anchor="middle" x="1014" y="-7.5" font-family="Helvetica,sans-Serif" font-size="10.00">coroutine</text>
</a>
</g>
</g>
<!-- Node4&#45;&gt;Node15 -->
<g id="edge14" class="edge">
<title>Node4&#45;&gt;Node15</title>
<path fill="none" stroke="midnightblue" d="M1196.62,-56.44C1157.17,-46.63 1092.7,-30.59 1051.86,-20.42"/>
<polygon fill="midnightblue" stroke="midnightblue" points="1052.56,-16.99 1042.01,-17.97 1050.87,-23.78 1052.56,-16.99"/>
</g>
<!-- Node16 -->
<g id="node16" class="node">
<title>Node16</title>
<g id="a_node16"><a xlink:title=" ">
<polygon fill="none" stroke="#bfbfbf" points="119.5,-0.5 119.5,-19.5 184.5,-19.5 184.5,-0.5 119.5,-0.5"/>
<text text-anchor="middle" x="152" y="-7.5" font-family="Helvetica,sans-Serif" font-size="10.00">semaphore</text>
</a>
</g>
</g>
<!-- Node4&#45;&gt;Node16 -->
<g id="edge15" class="edge">
<title>Node4&#45;&gt;Node16</title>
<path fill="none" stroke="midnightblue" d="M1163.81,-62.95C1004.95,-57.88 593.82,-43.44 251,-20 232.61,-18.74 212.32,-16.97 194.93,-15.33"/>
<polygon fill="midnightblue" stroke="midnightblue" points="194.81,-11.8 184.52,-14.33 194.14,-18.77 194.81,-11.8"/>
</g>
<!-- Node17 -->
<g id="node17" class="node">
<title>Node17</title>
<g id="a_node17"><a xlink:title=" ">
<polygon fill="none" stroke="#bfbfbf" points="1060,-0.5 1060,-19.5 1116,-19.5 1116,-0.5 1060,-0.5"/>
<text text-anchor="middle" x="1088" y="-7.5" font-family="Helvetica,sans-Serif" font-size="10.00">concepts</text>
</a>
</g>
</g>
<!-- Node4&#45;&gt;Node17 -->
<g id="edge16" class="edge">
<title>Node4&#45;&gt;Node17</title>
<path fill="none" stroke="midnightblue" d="M1208.34,-56.44C1184.6,-47.48 1147.09,-33.31 1120.26,-23.18"/>
<polygon fill="midnightblue" stroke="midnightblue" points="1121.14,-19.77 1110.55,-19.52 1118.67,-26.32 1121.14,-19.77"/>
</g>
<!-- Node18 -->
<g id="node18" class="node">
<title>Node18</title>
<g id="a_node18"><a xlink:title=" ">
<polygon fill="none" stroke="#bfbfbf" points="1134,-0.5 1134,-19.5 1188,-19.5 1188,-0.5 1134,-0.5"/>
<text text-anchor="middle" x="1161" y="-7.5" font-family="Helvetica,sans-Serif" font-size="10.00">iostream</text>
</a>
</g>
</g>
<!-- Node4&#45;&gt;Node18 -->
<g id="edge17" class="edge">
<title>Node4&#45;&gt;Node18</title>
<path fill="none" stroke="midnightblue" d="M1219.75,-56.32C1209.2,-48.18 1193.2,-35.84 1180.56,-26.09"/>
<polygon fill="midnightblue" stroke="midnightblue" points="1182.51,-23.17 1172.45,-19.83 1178.23,-28.71 1182.51,-23.17"/>
</g>
<!-- Node19 -->
<g id="node19" class="node">
<title>Node19</title>
<g id="a_node19"><a xlink:title=" ">
<polygon fill="none" stroke="#bfbfbf" points="1206.5,-0.5 1206.5,-19.5 1255.5,-19.5 1255.5,-0.5 1206.5,-0.5"/>
<text text-anchor="middle" x="1231" y="-7.5" font-family="Helvetica,sans-Serif" font-size="10.00">fstream</text>
</a>
</g>
</g>
<!-- Node4&#45;&gt;Node19 -->
<g id="edge18" class="edge">
<title>Node4&#45;&gt;Node19</title>
<path fill="none" stroke="midnightblue" d="M1231,-56.08C1231,-49.01 1231,-38.86 1231,-29.99"/>
<polygon fill="midnightblue" stroke="midnightblue" points="1234.5,-29.75 1231,-19.75 1227.5,-29.75 1234.5,-29.75"/>
</g>
<!-- Node20 -->
<g id="node20" class="node">
<title>Node20</title>
<g id="a_node20"><a xlink:title=" ">
<polygon fill="none" stroke="#bfbfbf" points="1273.5,-0.5 1273.5,-19.5 1314.5,-19.5 1314.5,-0.5 1273.5,-0.5"/>
<text text-anchor="middle" x="1294" y="-7.5" font-family="Helvetica,sans-Serif" font-size="10.00">bitset</text>
</a>
</g>
</g>
<!-- Node4&#45;&gt;Node20 -->
<g id="edge19" class="edge">
<title>Node4&#45;&gt;Node20</title>
<path fill="none" stroke="midnightblue" d="M1241.12,-56.32C1250.53,-48.26 1264.74,-36.08 1276.07,-26.37"/>
<polygon fill="midnightblue" stroke="midnightblue" points="1278.38,-29 1283.69,-19.83 1273.82,-23.68 1278.38,-29"/>
</g>
<!-- Node21 -->
<g id="node21" class="node">
<title>Node21</title>
<g id="a_node21"><a xlink:title=" ">
<polygon fill="none" stroke="#bfbfbf" points="1333,-0.5 1333,-19.5 1385,-19.5 1385,-0.5 1333,-0.5"/>
<text text-anchor="middle" x="1359" y="-7.5" font-family="Helvetica,sans-Serif" font-size="10.00">memory</text>
</a>
</g>
</g>
<!-- Node4&#45;&gt;Node21 -->
<g id="edge20" class="edge">
<title>Node4&#45;&gt;Node21</title>
<path fill="none" stroke="midnightblue" d="M1251.28,-56.44C1272.35,-47.56 1305.52,-33.56 1329.49,-23.45"/>
<polygon fill="midnightblue" stroke="midnightblue" points="1330.96,-26.63 1338.81,-19.52 1328.24,-20.18 1330.96,-26.63"/>
</g>
<!-- Node22 -->
<g id="node22" class="node">
<title>Node22</title>
<g id="a_node22"><a xlink:title=" ">
<polygon fill="none" stroke="#bfbfbf" points="1403.5,-0.5 1403.5,-19.5 1452.5,-19.5 1452.5,-0.5 1403.5,-0.5"/>
<text text-anchor="middle" x="1428" y="-7.5" font-family="Helvetica,sans-Serif" font-size="10.00">random</text>
</a>
</g>
</g>
<!-- Node4&#45;&gt;Node22 -->
<g id="edge21" class="edge">
<title>Node4&#45;&gt;Node22</title>
<path fill="none" stroke="midnightblue" d="M1262.22,-56.44C1298.02,-46.63 1356.53,-30.59 1393.61,-20.43"/>
<polygon fill="midnightblue" stroke="midnightblue" points="1394.75,-23.74 1403.47,-17.73 1392.9,-16.99 1394.75,-23.74"/>
</g>
<!-- Node23 -->
<g id="node23" class="node">
<title>Node23</title>
<g id="a_node23"><a xlink:title=" ">
<polygon fill="none" stroke="#bfbfbf" points="1470.5,-0.5 1470.5,-19.5 1511.5,-19.5 1511.5,-0.5 1470.5,-0.5"/>
<text text-anchor="middle" x="1491" y="-7.5" font-family="Helvetica,sans-Serif" font-size="10.00">string</text>
</a>
</g>
</g>
<!-- Node4&#45;&gt;Node23 -->
<g id="edge22" class="edge">
<title>Node4&#45;&gt;Node23</title>
<path fill="none" stroke="midnightblue" d="M1283.19,-56.5C1328.04,-48.82 1394.58,-36.53 1460.73,-20.12"/>
<polygon fill="midnightblue" stroke="midnightblue" points="1461.64,-23.5 1470.48,-17.67 1459.93,-16.71 1461.64,-23.5"/>
</g>
<!-- Node24 -->
<g id="node24" class="node">
<title>Node24</title>
<g id="a_node24"><a xlink:title=" ">
<polygon fill="none" stroke="#bfbfbf" points="1530,-0.5 1530,-19.5 1572,-19.5 1572,-0.5 1530,-0.5"/>
<text text-anchor="middle" x="1551" y="-7.5" font-family="Helvetica,sans-Serif" font-size="10.00">vector</text>
</a>
</g>
</g>
<!-- Node4&#45;&gt;Node24 -->
<g id="edge23" class="edge">
<title>Node4&#45;&gt;Node24</title>
<path fill="none" stroke="midnightblue" d="M1298.01,-57.26C1354.8,-50.09 1438.5,-38.11 1519.88,-20"/>
<polygon fill="midnightblue" stroke="midnightblue" points="1520.81,-23.37 1529.79,-17.76 1519.27,-16.55 1520.81,-23.37"/>
</g>
<!-- Node25 -->
<g id="node25" class="node">
<title>Node25</title>
<g id="a_node25"><a xlink:title=" ">
<polygon fill="none" stroke="#bfbfbf" points="1590,-0.5 1590,-19.5 1634,-19.5 1634,-0.5 1590,-0.5"/>
<text text-anchor="middle" x="1612" y="-7.5" font-family="Helvetica,sans-Serif" font-size="10.00">thread</text>
</a>
</g>
</g>
<!-- Node4&#45;&gt;Node25 -->
<g id="edge24" class="edge">
<title>Node4&#45;&gt;Node25</title>
<path fill="none" stroke="midnightblue" d="M1298.28,-59.46C1366.92,-53.12 1476.57,-41.04 1579.79,-19.97"/>
<polygon fill="midnightblue" stroke="midnightblue" points="1580.67,-23.36 1589.75,-17.91 1579.25,-16.51 1580.67,-23.36"/>
</g>
<!-- Node26 -->
<g id="node26" class="node">
<title>Node26</title>
<g id="a_node26"><a xlink:title=" ">
<polygon fill="none" stroke="#bfbfbf" points="1652,-0.5 1652,-19.5 1696,-19.5 1696,-0.5 1652,-0.5"/>
<text text-anchor="middle" x="1674" y="-7.5" font-family="Helvetica,sans-Serif" font-size="10.00">mutex</text>
</a>
</g>
</g>
<!-- Node4&#45;&gt;Node26 -->
<g id="edge25" class="edge">
<title>Node4&#45;&gt;Node26</title>
<path fill="none" stroke="midnightblue" d="M1298.26,-61.25C1378.2,-56 1515.64,-44.42 1641.92,-19.9"/>
<polygon fill="midnightblue" stroke="midnightblue" points="1642.63,-23.33 1651.76,-17.96 1641.27,-16.46 1642.63,-23.33"/>
</g>
<!-- Node27 -->
<g id="node27" class="node">
<title>Node27</title>
<g id="a_node27"><a xlink:title=" ">
<polygon fill="none" stroke="#bfbfbf" points="1714.5,-0.5 1714.5,-19.5 1757.5,-19.5 1757.5,-0.5 1714.5,-0.5"/>
<text text-anchor="middle" x="1736" y="-7.5" font-family="Helvetica,sans-Serif" font-size="10.00">queue</text>
</a>
</g>
</g>
<!-- Node4&#45;&gt;Node27 -->
<g id="edge26" class="edge">
<title>Node4&#45;&gt;Node27</title>
<path fill="none" stroke="midnightblue" d="M1298.28,-62.59C1388.69,-58.47 1554.38,-47.82 1704.58,-19.7"/>
<polygon fill="midnightblue" stroke="midnightblue" points="1705.28,-23.13 1714.45,-17.82 1703.97,-16.25 1705.28,-23.13"/>
</g>
<!-- Node28 -->
<g id="node28" class="node">
<title>Node28</title>
<g id="a_node28"><a xlink:title=" ">
<polygon fill="none" stroke="#bfbfbf" points="1775.5,-0.5 1775.5,-19.5 1810.5,-19.5 1810.5,-0.5 1775.5,-0.5"/>
<text text-anchor="middle" x="1793" y="-7.5" font-family="Helvetica,sans-Serif" font-size="10.00">map</text>
</a>
</g>
</g>
<!-- Node4&#45;&gt;Node28 -->
<g id="edge27" class="edge">
<title>Node4&#45;&gt;Node28</title>
<path fill="none" stroke="midnightblue" d="M1298.21,-64.71C1398.56,-63.09 1593.35,-55.43 1765.28,-19.9"/>
<polygon fill="midnightblue" stroke="midnightblue" points="1766.2,-23.28 1775.26,-17.79 1764.76,-16.43 1766.2,-23.28"/>
</g>
<!-- Node29&#45;&gt;Node3 -->
<g id="edge29" class="edge">
<title>Node29&#45;&gt;Node3</title>
<path fill="none" stroke="midnightblue" d="M1319.24,-460.86C1342.42,-453.36 1367.03,-441.54 1384,-423 1404.32,-400.79 1403,-388.1 1403,-358 1403,-358 1403,-358 1403,-244 1403,-195.74 1353.1,-164.19 1312.26,-146.45"/>
<polygon fill="midnightblue" stroke="midnightblue" points="1313.48,-143.17 1302.9,-142.56 1310.79,-149.63 1313.48,-143.17"/>
</g>
<!-- Node29&#45;&gt;Node30 -->
<g id="edge30" class="edge">
<title>Node29&#45;&gt;Node30</title>
<path fill="none" stroke="midnightblue" d="M1229.59,-459.41C1215.79,-450.58 1199.47,-438.04 1189,-423 1179.41,-409.22 1174.3,-390.7 1171.66,-376.95"/>
<polygon fill="midnightblue" stroke="midnightblue" points="1175.05,-376.03 1169.97,-366.73 1168.15,-377.17 1175.05,-376.03"/>
</g>
<!-- Node46 -->
<g id="node46" class="node">
<title>Node46</title>
<g id="a_node46"><a xlink:href="../../d8/dba/a00773.html" target="_top" xlink:title=" ">
<polygon fill="none" stroke="black" points="1197.5,-403.5 1197.5,-422.5 1374.5,-422.5 1374.5,-403.5 1197.5,-403.5"/>
<text text-anchor="middle" x="1286" y="-410.5" font-family="Helvetica,sans-Serif" font-size="10.00">discordcoreapi/WebHookEntities.hpp</text>
</a>
</g>
</g>
<!-- Node29&#45;&gt;Node46 -->
<g id="edge50" class="edge">
<title>Node29&#45;&gt;Node46</title>
<path fill="none" stroke="midnightblue" d="M1262.35,-459.4C1266.67,-451.11 1272.17,-440.55 1276.77,-431.71"/>
<polygon fill="midnightblue" stroke="midnightblue" points="1279.97,-433.14 1281.49,-422.66 1273.76,-429.91 1279.97,-433.14"/>
</g>
<!-- Node30&#45;&gt;Node3 -->
<g id="edge31" class="edge">
<title>Node30&#45;&gt;Node3</title>
<path fill="none" stroke="midnightblue" d="M1245.19,-347.45C1267.43,-341.01 1289.39,-329.93 1303,-311 1337.25,-263.37 1323.26,-234.06 1303,-179 1299.02,-168.19 1291.59,-158.12 1284,-149.86"/>
<polygon fill="midnightblue" stroke="midnightblue" points="1286.3,-147.2 1276.8,-142.53 1281.31,-152.11 1286.3,-147.2"/>
</g>
<!-- Node31 -->
<g id="node31" class="node">
<title>Node31</title>
<g id="a_node31"><a xlink:href="../../db/d7c/a00722.html" target="_top" xlink:title=" ">
<polygon fill="none" stroke="black" points="665.5,-291.5 665.5,-310.5 790.5,-310.5 790.5,-291.5 665.5,-291.5"/>
<text text-anchor="middle" x="728" y="-298.5" font-family="Helvetica,sans-Serif" font-size="10.00">discordcoreapi/Https.hpp</text>
</a>
</g>
</g>
<!-- Node30&#45;&gt;Node31 -->
<g id="edge32" class="edge">
<title>Node30&#45;&gt;Node31</title>
<path fill="none" stroke="midnightblue" d="M1099.12,-347.44C1017.64,-337.47 883.58,-321.05 800.85,-310.92"/>
<polygon fill="midnightblue" stroke="midnightblue" points="801.12,-307.43 790.77,-309.69 800.27,-314.38 801.12,-307.43"/>
</g>
<!-- Node31&#45;&gt;Node16 -->
<g id="edge49" class="edge">
<title>Node31&#45;&gt;Node16</title>
<path fill="none" stroke="midnightblue" d="M665.39,-299.83C520.33,-297.98 167.99,-284.56 95,-199 51.13,-147.57 109.36,-63.08 137.89,-27.56"/>
<polygon fill="midnightblue" stroke="midnightblue" points="140.76,-29.57 144.42,-19.63 135.36,-25.12 140.76,-29.57"/>
</g>
<!-- Node32 -->
<g id="node32" class="node">
<title>Node32</title>
<g id="a_node32"><a xlink:href="../../d5/de8/a00749.html" target="_top" xlink:title=" ">
<polygon fill="none" stroke="black" points="653,-235.5 653,-254.5 803,-254.5 803,-235.5 653,-235.5"/>
<text text-anchor="middle" x="728" y="-242.5" font-family="Helvetica,sans-Serif" font-size="10.00">discordcoreapi/SSLClients.hpp</text>
</a>
</g>
</g>
<!-- Node31&#45;&gt;Node32 -->
<g id="edge33" class="edge">
<title>Node31&#45;&gt;Node32</title>
<path fill="none" stroke="midnightblue" d="M728,-291.08C728,-284.01 728,-273.86 728,-264.99"/>
<polygon fill="midnightblue" stroke="midnightblue" points="731.5,-264.75 728,-254.75 724.5,-264.75 731.5,-264.75"/>
</g>
<!-- Node32&#45;&gt;Node3 -->
<g id="edge44" class="edge">
<title>Node32&#45;&gt;Node3</title>
<path fill="none" stroke="midnightblue" d="M652.89,-243.45C519.7,-241.17 260.44,-230.21 309,-179 338.98,-147.39 964.29,-133.6 1184.27,-129.71"/>
<polygon fill="midnightblue" stroke="midnightblue" points="1184.5,-133.21 1194.43,-129.53 1184.37,-126.21 1184.5,-133.21"/>
</g>
<!-- Node33 -->
<g id="node33" class="node">
<title>Node33</title>
<g id="a_node33"><a xlink:title=" ">
<polygon fill="none" stroke="#bfbfbf" points="829.5,-179.5 829.5,-198.5 872.5,-198.5 872.5,-179.5 829.5,-179.5"/>
<text text-anchor="middle" x="851" y="-186.5" font-family="Helvetica,sans-Serif" font-size="10.00">fcntl.h</text>
</a>
</g>
</g>
<!-- Node32&#45;&gt;Node33 -->
<g id="edge34" class="edge">
<title>Node32&#45;&gt;Node33</title>
<path fill="none" stroke="midnightblue" d="M747.49,-235.44C767.64,-226.6 799.32,-212.69 822.33,-202.59"/>
<polygon fill="midnightblue" stroke="midnightblue" points="823.85,-205.74 831.6,-198.52 821.04,-199.33 823.85,-205.74"/>
</g>
<!-- Node34 -->
<g id="node34" class="node">
<title>Node34</title>
<g id="a_node34"><a xlink:title=" ">
<polygon fill="none" stroke="#bfbfbf" points="890.5,-179.5 890.5,-198.5 939.5,-198.5 939.5,-179.5 890.5,-179.5"/>
<text text-anchor="middle" x="915" y="-186.5" font-family="Helvetica,sans-Serif" font-size="10.00">netdb.h</text>
</a>
</g>
</g>
<!-- Node32&#45;&gt;Node34 -->
<g id="edge35" class="edge">
<title>Node32&#45;&gt;Node34</title>
<path fill="none" stroke="midnightblue" d="M757.63,-235.44C791,-225.81 845.16,-210.17 880.43,-199.98"/>
<polygon fill="midnightblue" stroke="midnightblue" points="881.65,-203.27 890.29,-197.14 879.71,-196.55 881.65,-203.27"/>
</g>
<!-- Node35 -->
<g id="node35" class="node">
<title>Node35</title>
<g id="a_node35"><a xlink:title=" ">
<polygon fill="none" stroke="#bfbfbf" points="957.5,-179.5 957.5,-198.5 1022.5,-198.5 1022.5,-179.5 957.5,-179.5"/>
<text text-anchor="middle" x="990" y="-186.5" font-family="Helvetica,sans-Serif" font-size="10.00">netinet/in.h</text>
</a>
</g>
</g>
<!-- Node32&#45;&gt;Node35 -->
<g id="edge36" class="edge">
<title>Node32&#45;&gt;Node35</title>
<path fill="none" stroke="midnightblue" d="M770.82,-235.48C813.28,-226.99 880.47,-213.43 947.46,-199.31"/>
<polygon fill="midnightblue" stroke="midnightblue" points="948.28,-202.71 957.34,-197.22 946.83,-195.86 948.28,-202.71"/>
</g>
<!-- Node36 -->
<g id="node36" class="node">
<title>Node36</title>
<g id="a_node36"><a xlink:title=" ">
<polygon fill="none" stroke="#bfbfbf" points="1040.5,-179.5 1040.5,-198.5 1111.5,-198.5 1111.5,-179.5 1040.5,-179.5"/>
<text text-anchor="middle" x="1076" y="-186.5" font-family="Helvetica,sans-Serif" font-size="10.00">netinet/tcp.h</text>
</a>
</g>
</g>
<!-- Node32&#45;&gt;Node36 -->
<g id="edge37" class="edge">
<title>Node32&#45;&gt;Node36</title>
<path fill="none" stroke="midnightblue" d="M792.51,-235.5C851.93,-227.42 942.78,-214.49 1030.63,-199.17"/>
<polygon fill="midnightblue" stroke="midnightblue" points="1031.25,-202.61 1040.49,-197.44 1030.04,-195.72 1031.25,-202.61"/>
</g>
<!-- Node37 -->
<g id="node37" class="node">
<title>Node37</title>
<g id="a_node37"><a xlink:title=" ">
<polygon fill="none" stroke="#bfbfbf" points="1129.5,-179.5 1129.5,-198.5 1178.5,-198.5 1178.5,-179.5 1129.5,-179.5"/>
<text text-anchor="middle" x="1154" y="-186.5" font-family="Helvetica,sans-Serif" font-size="10.00">stdint.h</text>
</a>
</g>
</g>
<!-- Node32&#45;&gt;Node37 -->
<g id="edge38" class="edge">
<title>Node32&#45;&gt;Node37</title>
<path fill="none" stroke="midnightblue" d="M803.12,-238.82C880.35,-232.72 1004.16,-220.79 1119.19,-199.11"/>
<polygon fill="midnightblue" stroke="midnightblue" points="1120.06,-202.51 1129.23,-197.19 1118.75,-195.63 1120.06,-202.51"/>
</g>
<!-- Node38 -->
<g id="node38" class="node">
<title>Node38</title>
<g id="a_node38"><a xlink:title=" ">
<polygon fill="none" stroke="#bfbfbf" points="1197,-179.5 1197,-198.5 1261,-198.5 1261,-179.5 1197,-179.5"/>
<text text-anchor="middle" x="1229" y="-186.5" font-family="Helvetica,sans-Serif" font-size="10.00">sys/epoll.h</text>
</a>
</g>
</g>
<!-- Node32&#45;&gt;Node38 -->
<g id="edge39" class="edge">
<title>Node32&#45;&gt;Node38</title>
<path fill="none" stroke="midnightblue" d="M803.24,-239.39C892.48,-233.3 1045.86,-220.9 1186.72,-199.03"/>
<polygon fill="midnightblue" stroke="midnightblue" points="1187.5,-202.45 1196.84,-197.44 1186.42,-195.53 1187.5,-202.45"/>
</g>
<!-- Node39 -->
<g id="node39" class="node">
<title>Node39</title>
<g id="a_node39"><a xlink:title=" ">
<polygon fill="none" stroke="#bfbfbf" points="318,-179.5 318,-198.5 380,-198.5 380,-179.5 318,-179.5"/>
<text text-anchor="middle" x="349" y="-186.5" font-family="Helvetica,sans-Serif" font-size="10.00">arpa/inet.h</text>
</a>
</g>
</g>
<!-- Node32&#45;&gt;Node39 -->
<g id="edge40" class="edge">
<title>Node32&#45;&gt;Node39</title>
<path fill="none" stroke="midnightblue" d="M652.97,-235.99C586.37,-228.43 486.22,-215.98 390.26,-199.1"/>
<polygon fill="midnightblue" stroke="midnightblue" points="390.85,-195.65 380.39,-197.34 389.62,-202.54 390.85,-195.65"/>
</g>
<!-- Node40 -->
<g id="node40" class="node">
<title>Node40</title>
<g id="a_node40"><a xlink:title=" ">
<polygon fill="none" stroke="#bfbfbf" points="398.5,-179.5 398.5,-198.5 471.5,-198.5 471.5,-179.5 398.5,-179.5"/>
<text text-anchor="middle" x="435" y="-186.5" font-family="Helvetica,sans-Serif" font-size="10.00">sys/socket.h</text>
</a>
</g>
</g>
<!-- Node32&#45;&gt;Node40 -->
<g id="edge41" class="edge">
<title>Node32&#45;&gt;Node40</title>
<path fill="none" stroke="midnightblue" d="M680.15,-235.47C632.51,-226.94 557.01,-213.3 481.78,-199.13"/>
<polygon fill="midnightblue" stroke="midnightblue" points="482.13,-195.63 471.65,-197.22 480.83,-202.51 482.13,-195.63"/>
</g>
<!-- Node41 -->
<g id="node41" class="node">
<title>Node41</title>
<g id="a_node41"><a xlink:title=" ">
<polygon fill="none" stroke="#bfbfbf" points="490,-179.5 490,-198.5 558,-198.5 558,-179.5 490,-179.5"/>
<text text-anchor="middle" x="524" y="-186.5" font-family="Helvetica,sans-Serif" font-size="10.00">sys/types.h</text>
</a>
</g>
</g>
<!-- Node32&#45;&gt;Node41 -->
<g id="edge42" class="edge">
<title>Node32&#45;&gt;Node41</title>
<path fill="none" stroke="midnightblue" d="M695.68,-235.44C660.61,-226.16 604.5,-211.31 566.04,-201.13"/>
<polygon fill="midnightblue" stroke="midnightblue" points="566.74,-197.69 556.17,-198.52 564.94,-204.46 566.74,-197.69"/>
</g>
<!-- Node42 -->
<g id="node42" class="node">
<title>Node42</title>
<g id="a_node42"><a xlink:title=" ">
<polygon fill="none" stroke="#bfbfbf" points="576.5,-179.5 576.5,-198.5 627.5,-198.5 627.5,-179.5 576.5,-179.5"/>
<text text-anchor="middle" x="602" y="-186.5" font-family="Helvetica,sans-Serif" font-size="10.00">unistd.h</text>
</a>
</g>
</g>
<!-- Node32&#45;&gt;Node42 -->
<g id="edge43" class="edge">
<title>Node32&#45;&gt;Node42</title>
<path fill="none" stroke="midnightblue" d="M708.03,-235.44C687.39,-226.6 654.94,-212.69 631.37,-202.59"/>
<polygon fill="midnightblue" stroke="midnightblue" points="632.44,-199.24 621.87,-198.52 629.68,-205.67 632.44,-199.24"/>
</g>
<!-- Node43 -->
<g id="node43" class="node">
<title>Node43</title>
<g id="a_node43"><a xlink:href="../../d4/d6a/a00704.html" target="_top" xlink:title=" ">
<polygon fill="none" stroke="black" points="104,-179.5 104,-198.5 262,-198.5 262,-179.5 104,-179.5"/>
<text text-anchor="middle" x="183" y="-186.5" font-family="Helvetica,sans-Serif" font-size="10.00">discordcoreapi/EventEntities.hpp</text>
</a>
</g>
</g>
<!-- Node32&#45;&gt;Node43 -->
<g id="edge45" class="edge">
<title>Node32&#45;&gt;Node43</title>
<path fill="none" stroke="midnightblue" d="M652.79,-236.55C553.36,-226.7 378.39,-209.36 272.34,-198.85"/>
<polygon fill="midnightblue" stroke="midnightblue" points="272.59,-195.36 262.29,-197.86 271.9,-202.33 272.59,-195.36"/>
</g>
<!-- Node44 -->
<g id="node44" class="node">
<title>Node44</title>
<g id="a_node44"><a xlink:title=" ">
<polygon fill="none" stroke="#bfbfbf" points="645.5,-179.5 645.5,-198.5 718.5,-198.5 718.5,-179.5 645.5,-179.5"/>
<text text-anchor="middle" x="682" y="-186.5" font-family="Helvetica,sans-Serif" font-size="10.00">openssl/err.h</text>
</a>
</g>
</g>
<!-- Node32&#45;&gt;Node44 -->
<g id="edge47" class="edge">
<title>Node32&#45;&gt;Node44</title>
<path fill="none" stroke="midnightblue" d="M720.4,-235.08C713.77,-227.3 703.98,-215.8 695.94,-206.37"/>
<polygon fill="midnightblue" stroke="midnightblue" points="698.6,-204.09 689.45,-198.75 693.27,-208.63 698.6,-204.09"/>
</g>
<!-- Node45 -->
<g id="node45" class="node">
<title>Node45</title>
<g id="a_node45"><a xlink:title=" ">
<polygon fill="none" stroke="#bfbfbf" points="737,-179.5 737,-198.5 811,-198.5 811,-179.5 737,-179.5"/>
<text text-anchor="middle" x="774" y="-186.5" font-family="Helvetica,sans-Serif" font-size="10.00">openssl/ssl.h</text>
</a>
</g>
</g>
<!-- Node32&#45;&gt;Node45 -->
<g id="edge48" class="edge">
<title>Node32&#45;&gt;Node45</title>
<path fill="none" stroke="midnightblue" d="M735.6,-235.08C742.23,-227.3 752.02,-215.8 760.06,-206.37"/>
<polygon fill="midnightblue" stroke="midnightblue" points="762.73,-208.63 766.55,-198.75 757.4,-204.09 762.73,-208.63"/>
</g>
<!-- Node43&#45;&gt;Node3 -->
<g id="edge46" class="edge">
<title>Node43&#45;&gt;Node3</title>
<path fill="none" stroke="midnightblue" d="M262.13,-180.1C266.82,-179.7 271.47,-179.34 276,-179 614.36,-153.96 1019.1,-137.41 1184.24,-131.22"/>
<polygon fill="midnightblue" stroke="midnightblue" points="1184.43,-134.72 1194.3,-130.85 1184.17,-127.72 1184.43,-134.72"/>
</g>
<!-- Node46&#45;&gt;Node3 -->
<g id="edge51" class="edge">
<title>Node46&#45;&gt;Node3</title>
<path fill="none" stroke="midnightblue" d="M1298.34,-403.28C1320.56,-386.45 1365,-347.14 1365,-302 1365,-302 1365,-302 1365,-244 1365,-201.58 1325.74,-167.85 1295.23,-148.04"/>
<polygon fill="midnightblue" stroke="midnightblue" points="1296.83,-144.92 1286.5,-142.59 1293.12,-150.86 1296.83,-144.92"/>
</g>
<!-- Node46&#45;&gt;Node30 -->
<g id="edge52" class="edge">
<title>Node46&#45;&gt;Node30</title>
<path fill="none" stroke="midnightblue" d="M1267.46,-403.44C1248.38,-394.64 1218.43,-380.81 1196.56,-370.72"/>
<polygon fill="midnightblue" stroke="midnightblue" points="1198,-367.53 1187.45,-366.52 1195.07,-373.88 1198,-367.53"/>
</g>
<!-- Node47&#45;&gt;Node3 -->
<g id="edge55" class="edge">
<title>Node47&#45;&gt;Node3</title>
<path fill="none" stroke="midnightblue" d="M916.33,-353.11C1019.71,-344.47 1189.94,-312.65 1270,-199 1279.54,-185.45 1276.35,-166.76 1271.14,-152.03"/>
<polygon fill="midnightblue" stroke="midnightblue" points="1274.32,-150.55 1267.35,-142.57 1267.82,-153.15 1274.32,-150.55"/>
</g>
<!-- Node47&#45;&gt;Node31 -->
<g id="edge56" class="edge">
<title>Node47&#45;&gt;Node31</title>
<path fill="none" stroke="midnightblue" d="M814.45,-347.32C798.01,-338.7 772.57,-325.36 753.53,-315.39"/>
<polygon fill="midnightblue" stroke="midnightblue" points="754.99,-312.2 744.51,-310.65 751.74,-318.4 754.99,-312.2"/>
</g>
<!-- Node48&#45;&gt;Node3 -->
<g id="edge58" class="edge">
<title>Node48&#45;&gt;Node3</title>
<path fill="none" stroke="midnightblue" d="M318.73,-406.44C205.27,-395.79 0,-367.47 0,-302 0,-302 0,-302 0,-244 0,-198.87 35.91,-195.26 78,-179 180.58,-139.36 938.83,-130.7 1183.87,-128.93"/>
<polygon fill="midnightblue" stroke="midnightblue" points="1184.13,-132.43 1194.11,-128.86 1184.08,-125.43 1184.13,-132.43"/>
</g>
<!-- Node49 -->
<g id="node49" class="node">
<title>Node49</title>
<g id="a_node49"><a xlink:href="../../d3/d4f/a00761.html" target="_top" xlink:title=" ">
<polygon fill="none" stroke="black" points="317,-347.5 317,-366.5 467,-366.5 467,-347.5 317,-347.5"/>
<text text-anchor="middle" x="392" y="-354.5" font-family="Helvetica,sans-Serif" font-size="10.00">discordcoreapi/ThreadPool.hpp</text>
</a>
</g>
</g>
<!-- Node48&#45;&gt;Node49 -->
<g id="edge59" class="edge">
<title>Node48&#45;&gt;Node49</title>
<path fill="none" stroke="midnightblue" d="M392,-403.08C392,-396.01 392,-385.86 392,-376.99"/>
<polygon fill="midnightblue" stroke="midnightblue" points="395.5,-376.75 392,-366.75 388.5,-376.75 395.5,-376.75"/>
</g>
<!-- Node49&#45;&gt;Node3 -->
<g id="edge60" class="edge">
<title>Node49&#45;&gt;Node3</title>
<path fill="none" stroke="midnightblue" d="M347.12,-347.46C245.12,-326.3 11.04,-266.68 95,-179 132.7,-139.63 931.66,-130.76 1184.2,-128.94"/>
<polygon fill="midnightblue" stroke="midnightblue" points="1184.4,-132.44 1194.38,-128.87 1184.35,-125.44 1184.4,-132.44"/>
</g>
<!-- Node49&#45;&gt;Node31 -->
<g id="edge61" class="edge">
<title>Node49&#45;&gt;Node31</title>
<path fill="none" stroke="midnightblue" d="M445.24,-347.44C504.96,-337.85 601.74,-322.29 665.13,-312.1"/>
<polygon fill="midnightblue" stroke="midnightblue" points="665.69,-315.56 675.01,-310.52 664.58,-308.65 665.69,-315.56"/>
</g>
</g>
</svg>
