<?xml version="1.0" encoding="UTF-8" standalone="no"?>
<!DOCTYPE svg PUBLIC "-//W3C//DTD SVG 1.1//EN"
 "http://www.w3.org/Graphics/SVG/1.1/DTD/svg11.dtd">
<!-- Generated by graphviz version 3.0.0 (20220226.1711)
 -->
<!-- Title: StageInstanceEntities.hpp Pages: 1 -->
<svg width="2149pt" height="375pt"
 viewBox="0.00 0.00 2149.00 375.00" xmlns="http://www.w3.org/2000/svg" xmlns:xlink="http://www.w3.org/1999/xlink">
<g id="graph0" class="graph" transform="scale(1 1) rotate(0) translate(4 371)">
<title>StageInstanceEntities.hpp</title>
<!-- Node1 -->
<g id="node1" class="node">
<title>Node1</title>
<g id="a_node1"><a xlink:title=" ">
<polygon fill="#bfbfbf" stroke="black" points="935,-347.5 935,-366.5 1066,-366.5 1066,-347.5 935,-347.5"/>
<text text-anchor="middle" x="1000.5" y="-354.5" font-family="Helvetica,sans-Serif" font-size="10.00">StageInstanceEntities.hpp</text>
</a>
</g>
</g>
<!-- Node2 -->
<g id="node2" class="node">
<title>Node2</title>
<g id="a_node2"><a xlink:href="$d4/deb/a00710.html" xlink:title=" ">
<polygon fill="none" stroke="black" points="928,-112.5 928,-142.5 1059,-142.5 1059,-112.5 928,-112.5"/>
<text text-anchor="start" x="936" y="-130.5" font-family="Helvetica,sans-Serif" font-size="10.00">discordcoreapi/Foundation</text>
<text text-anchor="middle" x="993.5" y="-119.5" font-family="Helvetica,sans-Serif" font-size="10.00">Entities.hpp</text>
</a>
</g>
</g>
<!-- Node1&#45;&gt;Node2 -->
<g id="edge1" class="edge">
<title>Node1&#45;&gt;Node2</title>
<path fill="none" stroke="midnightblue" d="M1000.22,-347.49C999.44,-323.91 997.21,-255.7 995.5,-199 995.03,-183.55 994.54,-166.19 994.16,-152.57"/>
<polygon fill="midnightblue" stroke="midnightblue" points="997.66,-152.44 993.88,-142.55 990.66,-152.64 997.66,-152.44"/>
</g>
<!-- Node27 -->
<g id="node27" class="node">
<title>Node27</title>
<g id="a_node27"><a xlink:href="$db/d7c/a00722.html" xlink:title=" ">
<polygon fill="none" stroke="black" points="1232,-291.5 1232,-310.5 1357,-310.5 1357,-291.5 1232,-291.5"/>
<text text-anchor="middle" x="1294.5" y="-298.5" font-family="Helvetica,sans-Serif" font-size="10.00">discordcoreapi/Https.hpp</text>
</a>
</g>
</g>
<!-- Node1&#45;&gt;Node27 -->
<g id="edge26" class="edge">
<title>Node1&#45;&gt;Node27</title>
<path fill="none" stroke="midnightblue" d="M1047.09,-347.44C1098.91,-337.92 1182.63,-322.55 1238.12,-312.36"/>
<polygon fill="midnightblue" stroke="midnightblue" points="1238.93,-315.77 1248.13,-310.52 1237.66,-308.88 1238.93,-315.77"/>
</g>
<!-- Node3 -->
<g id="node3" class="node">
<title>Node3</title>
<g id="a_node3"><a xlink:href="$d5/dae/a00767.html" xlink:title=" ">
<polygon fill="none" stroke="black" points="926.5,-56.5 926.5,-75.5 1060.5,-75.5 1060.5,-56.5 926.5,-56.5"/>
<text text-anchor="middle" x="993.5" y="-63.5" font-family="Helvetica,sans-Serif" font-size="10.00">discordcoreapi/Utilities.hpp</text>
</a>
</g>
</g>
<!-- Node2&#45;&gt;Node3 -->
<g id="edge2" class="edge">
<title>Node2&#45;&gt;Node3</title>
<path fill="none" stroke="midnightblue" d="M993.5,-112.4C993.5,-104.47 993.5,-94.46 993.5,-85.86"/>
<polygon fill="midnightblue" stroke="midnightblue" points="997,-85.66 993.5,-75.66 990,-85.66 997,-85.66"/>
</g>
<!-- Node4 -->
<g id="node4" class="node">
<title>Node4</title>
<g id="a_node4"><a xlink:title=" ">
<polygon fill="none" stroke="#bfbfbf" points="0,-0.5 0,-19.5 57,-19.5 57,-0.5 0,-0.5"/>
<text text-anchor="middle" x="28.5" y="-7.5" font-family="Helvetica,sans-Serif" font-size="10.00">pthread.h</text>
</a>
</g>
</g>
<!-- Node3&#45;&gt;Node4 -->
<g id="edge3" class="edge">
<title>Node3&#45;&gt;Node4</title>
<path fill="none" stroke="midnightblue" d="M926.45,-63.35C745.93,-58.65 251.53,-44.07 67.15,-19.74"/>
<polygon fill="midnightblue" stroke="midnightblue" points="67.41,-16.24 57.03,-18.35 66.46,-23.18 67.41,-16.24"/>
</g>
<!-- Node5 -->
<g id="node5" class="node">
<title>Node5</title>
<g id="a_node5"><a xlink:title=" ">
<polygon fill="none" stroke="#bfbfbf" points="75.5,-0.5 75.5,-19.5 137.5,-19.5 137.5,-0.5 75.5,-0.5"/>
<text text-anchor="middle" x="106.5" y="-7.5" font-family="Helvetica,sans-Serif" font-size="10.00">sys/time.h</text>
</a>
</g>
</g>
<!-- Node3&#45;&gt;Node5 -->
<g id="edge4" class="edge">
<title>Node3&#45;&gt;Node5</title>
<path fill="none" stroke="midnightblue" d="M926.43,-65.26C784.35,-64.97 442.57,-59.92 147.87,-19.95"/>
<polygon fill="midnightblue" stroke="midnightblue" points="148.23,-16.47 137.85,-18.58 147.28,-23.4 148.23,-16.47"/>
</g>
<!-- Node6 -->
<g id="node6" class="node">
<title>Node6</title>
<g id="a_node6"><a xlink:title=" ">
<polygon fill="none" stroke="#bfbfbf" points="155.5,-0.5 155.5,-19.5 199.5,-19.5 199.5,-0.5 155.5,-0.5"/>
<text text-anchor="middle" x="177.5" y="-7.5" font-family="Helvetica,sans-Serif" font-size="10.00">time.h</text>
</a>
</g>
</g>
<!-- Node3&#45;&gt;Node6 -->
<g id="edge5" class="edge">
<title>Node3&#45;&gt;Node6</title>
<path fill="none" stroke="midnightblue" d="M926.48,-63.1C766.41,-58.25 364.34,-44.19 209.95,-19.8"/>
<polygon fill="midnightblue" stroke="midnightblue" points="210.15,-16.28 199.71,-18.1 209,-23.19 210.15,-16.28"/>
</g>
<!-- Node7 -->
<g id="node7" class="node">
<title>Node7</title>
<g id="a_node7"><a xlink:title=" ">
<polygon fill="none" stroke="#bfbfbf" points="218,-0.5 218,-19.5 259,-19.5 259,-0.5 218,-0.5"/>
<text text-anchor="middle" x="238.5" y="-7.5" font-family="Helvetica,sans-Serif" font-size="10.00">ctime</text>
</a>
</g>
</g>
<!-- Node3&#45;&gt;Node7 -->
<g id="edge6" class="edge">
<title>Node3&#45;&gt;Node7</title>
<path fill="none" stroke="midnightblue" d="M926.39,-62.89C775.29,-57.82 411.16,-43.7 269.47,-19.9"/>
<polygon fill="midnightblue" stroke="midnightblue" points="269.72,-16.39 259.26,-18.09 268.5,-23.28 269.72,-16.39"/>
</g>
<!-- Node8 -->
<g id="node8" class="node">
<title>Node8</title>
<g id="a_node8"><a xlink:title=" ">
<polygon fill="none" stroke="#bfbfbf" points="277,-0.5 277,-19.5 370,-19.5 370,-0.5 277,-0.5"/>
<text text-anchor="middle" x="323.5" y="-7.5" font-family="Helvetica,sans-Serif" font-size="10.00">condition_variable</text>
</a>
</g>
</g>
<!-- Node3&#45;&gt;Node8 -->
<g id="edge7" class="edge">
<title>Node3&#45;&gt;Node8</title>
<path fill="none" stroke="midnightblue" d="M926.09,-61.96C814.7,-56.53 585.05,-43.55 380.25,-19.98"/>
<polygon fill="midnightblue" stroke="midnightblue" points="380.55,-16.49 370.21,-18.82 379.74,-23.45 380.55,-16.49"/>
</g>
<!-- Node9 -->
<g id="node9" class="node">
<title>Node9</title>
<g id="a_node9"><a xlink:title=" ">
<polygon fill="none" stroke="#bfbfbf" points="388.5,-0.5 388.5,-19.5 486.5,-19.5 486.5,-0.5 388.5,-0.5"/>
<text text-anchor="middle" x="437.5" y="-7.5" font-family="Helvetica,sans-Serif" font-size="10.00">nlohmann/json.hpp</text>
</a>
</g>
</g>
<!-- Node3&#45;&gt;Node9 -->
<g id="edge8" class="edge">
<title>Node3&#45;&gt;Node9</title>
<path fill="none" stroke="midnightblue" d="M926.5,-60.31C832.7,-53.44 656.71,-39.45 496.55,-20.06"/>
<polygon fill="midnightblue" stroke="midnightblue" points="496.87,-16.57 486.52,-18.83 496.02,-23.52 496.87,-16.57"/>
</g>
<!-- Node10 -->
<g id="node10" class="node">
<title>Node10</title>
<g id="a_node10"><a xlink:title=" ">
<polygon fill="none" stroke="#bfbfbf" points="505,-0.5 505,-19.5 590,-19.5 590,-0.5 505,-0.5"/>
<text text-anchor="middle" x="547.5" y="-7.5" font-family="Helvetica,sans-Serif" font-size="10.00">source_location</text>
</a>
</g>
</g>
<!-- Node3&#45;&gt;Node10 -->
<g id="edge9" class="edge">
<title>Node3&#45;&gt;Node10</title>
<path fill="none" stroke="midnightblue" d="M926.24,-58.6C849.66,-51.04 720.55,-37.42 600.18,-20.17"/>
<polygon fill="midnightblue" stroke="midnightblue" points="600.44,-16.67 590.05,-18.71 599.44,-23.6 600.44,-16.67"/>
</g>
<!-- Node11 -->
<g id="node11" class="node">
<title>Node11</title>
<g id="a_node11"><a xlink:title=" ">
<polygon fill="none" stroke="#bfbfbf" points="608,-0.5 608,-19.5 691,-19.5 691,-0.5 608,-0.5"/>
<text text-anchor="middle" x="649.5" y="-7.5" font-family="Helvetica,sans-Serif" font-size="10.00">unordered_map</text>
</a>
</g>
</g>
<!-- Node3&#45;&gt;Node11 -->
<g id="edge10" class="edge">
<title>Node3&#45;&gt;Node11</title>
<path fill="none" stroke="midnightblue" d="M935.62,-56.5C878.67,-48.05 788.96,-34.5 701.35,-20.11"/>
<polygon fill="midnightblue" stroke="midnightblue" points="701.67,-16.62 691.24,-18.44 700.53,-23.52 701.67,-16.62"/>
</g>
<!-- Node12 -->
<g id="node12" class="node">
<title>Node12</title>
<g id="a_node12"><a xlink:title=" ">
<polygon fill="none" stroke="#bfbfbf" points="709.5,-0.5 709.5,-19.5 787.5,-19.5 787.5,-0.5 709.5,-0.5"/>
<text text-anchor="middle" x="748.5" y="-7.5" font-family="Helvetica,sans-Serif" font-size="10.00">shared_mutex</text>
</a>
</g>
</g>
<!-- Node3&#45;&gt;Node12 -->
<g id="edge11" class="edge">
<title>Node3&#45;&gt;Node12</title>
<path fill="none" stroke="midnightblue" d="M954.68,-56.44C911.94,-47.02 843.17,-31.87 796.93,-21.68"/>
<polygon fill="midnightblue" stroke="midnightblue" points="797.66,-18.25 787.14,-19.52 796.15,-25.09 797.66,-18.25"/>
</g>
<!-- Node13 -->
<g id="node13" class="node">
<title>Node13</title>
<g id="a_node13"><a xlink:title=" ">
<polygon fill="none" stroke="#bfbfbf" points="805.5,-0.5 805.5,-19.5 863.5,-19.5 863.5,-0.5 805.5,-0.5"/>
<text text-anchor="middle" x="834.5" y="-7.5" font-family="Helvetica,sans-Serif" font-size="10.00">functional</text>
</a>
</g>
</g>
<!-- Node3&#45;&gt;Node13 -->
<g id="edge12" class="edge">
<title>Node3&#45;&gt;Node13</title>
<path fill="none" stroke="midnightblue" d="M968.31,-56.44C941.56,-47.36 899.1,-32.94 869.19,-22.78"/>
<polygon fill="midnightblue" stroke="midnightblue" points="870.17,-19.42 859.58,-19.52 867.92,-26.05 870.17,-19.42"/>
</g>
<!-- Node14 -->
<g id="node14" class="node">
<title>Node14</title>
<g id="a_node14"><a xlink:title=" ">
<polygon fill="none" stroke="#bfbfbf" points="882,-0.5 882,-19.5 947,-19.5 947,-0.5 882,-0.5"/>
<text text-anchor="middle" x="914.5" y="-7.5" font-family="Helvetica,sans-Serif" font-size="10.00">semaphore</text>
</a>
</g>
</g>
<!-- Node3&#45;&gt;Node14 -->
<g id="edge13" class="edge">
<title>Node3&#45;&gt;Node14</title>
<path fill="none" stroke="midnightblue" d="M980.81,-56.32C968.6,-47.98 949.92,-35.21 935.5,-25.35"/>
<polygon fill="midnightblue" stroke="midnightblue" points="937.39,-22.41 927.16,-19.65 933.44,-28.19 937.39,-22.41"/>
</g>
<!-- Node15 -->
<g id="node15" class="node">
<title>Node15</title>
<g id="a_node15"><a xlink:title=" ">
<polygon fill="none" stroke="#bfbfbf" points="965.5,-0.5 965.5,-19.5 1021.5,-19.5 1021.5,-0.5 965.5,-0.5"/>
<text text-anchor="middle" x="993.5" y="-7.5" font-family="Helvetica,sans-Serif" font-size="10.00">concepts</text>
</a>
</g>
</g>
<!-- Node3&#45;&gt;Node15 -->
<g id="edge14" class="edge">
<title>Node3&#45;&gt;Node15</title>
<path fill="none" stroke="midnightblue" d="M993.5,-56.08C993.5,-49.01 993.5,-38.86 993.5,-29.99"/>
<polygon fill="midnightblue" stroke="midnightblue" points="997,-29.75 993.5,-19.75 990,-29.75 997,-29.75"/>
</g>
<!-- Node16 -->
<g id="node16" class="node">
<title>Node16</title>
<g id="a_node16"><a xlink:title=" ">
<polygon fill="none" stroke="#bfbfbf" points="1039.5,-0.5 1039.5,-19.5 1093.5,-19.5 1093.5,-0.5 1039.5,-0.5"/>
<text text-anchor="middle" x="1066.5" y="-7.5" font-family="Helvetica,sans-Serif" font-size="10.00">iostream</text>
</a>
</g>
</g>
<!-- Node3&#45;&gt;Node16 -->
<g id="edge15" class="edge">
<title>Node3&#45;&gt;Node16</title>
<path fill="none" stroke="midnightblue" d="M1005.23,-56.32C1016.34,-48.11 1033.24,-35.6 1046.48,-25.81"/>
<polygon fill="midnightblue" stroke="midnightblue" points="1048.6,-28.59 1054.56,-19.83 1044.44,-22.97 1048.6,-28.59"/>
</g>
<!-- Node17 -->
<g id="node17" class="node">
<title>Node17</title>
<g id="a_node17"><a xlink:title=" ">
<polygon fill="none" stroke="#bfbfbf" points="1112,-0.5 1112,-19.5 1161,-19.5 1161,-0.5 1112,-0.5"/>
<text text-anchor="middle" x="1136.5" y="-7.5" font-family="Helvetica,sans-Serif" font-size="10.00">fstream</text>
</a>
</g>
</g>
<!-- Node3&#45;&gt;Node17 -->
<g id="edge16" class="edge">
<title>Node3&#45;&gt;Node17</title>
<path fill="none" stroke="midnightblue" d="M1016.16,-56.44C1039.9,-47.48 1077.41,-33.31 1104.24,-23.18"/>
<polygon fill="midnightblue" stroke="midnightblue" points="1105.83,-26.32 1113.95,-19.52 1103.36,-19.77 1105.83,-26.32"/>
</g>
<!-- Node18 -->
<g id="node18" class="node">
<title>Node18</title>
<g id="a_node18"><a xlink:title=" ">
<polygon fill="none" stroke="#bfbfbf" points="1179,-0.5 1179,-19.5 1220,-19.5 1220,-0.5 1179,-0.5"/>
<text text-anchor="middle" x="1199.5" y="-7.5" font-family="Helvetica,sans-Serif" font-size="10.00">bitset</text>
</a>
</g>
</g>
<!-- Node3&#45;&gt;Node18 -->
<g id="edge17" class="edge">
<title>Node3&#45;&gt;Node18</title>
<path fill="none" stroke="midnightblue" d="M1028.68,-56.46C1062.27,-48.2 1114.53,-35.09 1169.04,-20.04"/>
<polygon fill="midnightblue" stroke="midnightblue" points="1170.18,-23.36 1178.88,-17.31 1168.3,-16.61 1170.18,-23.36"/>
</g>
<!-- Node19 -->
<g id="node19" class="node">
<title>Node19</title>
<g id="a_node19"><a xlink:title=" ">
<polygon fill="none" stroke="#bfbfbf" points="1238.5,-0.5 1238.5,-19.5 1290.5,-19.5 1290.5,-0.5 1238.5,-0.5"/>
<text text-anchor="middle" x="1264.5" y="-7.5" font-family="Helvetica,sans-Serif" font-size="10.00">memory</text>
</a>
</g>
</g>
<!-- Node3&#45;&gt;Node19 -->
<g id="edge18" class="edge">
<title>Node3&#45;&gt;Node19</title>
<path fill="none" stroke="midnightblue" d="M1043.41,-56.43C1089.16,-48.36 1158.97,-35.51 1228.38,-20.15"/>
<polygon fill="midnightblue" stroke="midnightblue" points="1229.17,-23.56 1238.17,-17.96 1227.65,-16.72 1229.17,-23.56"/>
</g>
<!-- Node20 -->
<g id="node20" class="node">
<title>Node20</title>
<g id="a_node20"><a xlink:title=" ">
<polygon fill="none" stroke="#bfbfbf" points="1309,-0.5 1309,-19.5 1358,-19.5 1358,-0.5 1309,-0.5"/>
<text text-anchor="middle" x="1333.5" y="-7.5" font-family="Helvetica,sans-Serif" font-size="10.00">random</text>
</a>
</g>
</g>
<!-- Node3&#45;&gt;Node20 -->
<g id="edge19" class="edge">
<title>Node3&#45;&gt;Node20</title>
<path fill="none" stroke="midnightblue" d="M1060.74,-57.33C1120.74,-49.97 1211.15,-37.66 1298.84,-19.93"/>
<polygon fill="midnightblue" stroke="midnightblue" points="1299.6,-23.35 1308.69,-17.91 1298.2,-16.49 1299.6,-23.35"/>
</g>
<!-- Node21 -->
<g id="node21" class="node">
<title>Node21</title>
<g id="a_node21"><a xlink:title=" ">
<polygon fill="none" stroke="#bfbfbf" points="1376,-0.5 1376,-19.5 1417,-19.5 1417,-0.5 1376,-0.5"/>
<text text-anchor="middle" x="1396.5" y="-7.5" font-family="Helvetica,sans-Serif" font-size="10.00">string</text>
</a>
</g>
</g>
<!-- Node3&#45;&gt;Node21 -->
<g id="edge20" class="edge">
<title>Node3&#45;&gt;Node21</title>
<path fill="none" stroke="midnightblue" d="M1060.65,-60.6C1133.77,-54.99 1254.18,-43.34 1365.64,-20.08"/>
<polygon fill="midnightblue" stroke="midnightblue" points="1366.66,-23.45 1375.71,-17.95 1365.2,-16.6 1366.66,-23.45"/>
</g>
<!-- Node22 -->
<g id="node22" class="node">
<title>Node22</title>
<g id="a_node22"><a xlink:title=" ">
<polygon fill="none" stroke="#bfbfbf" points="1435.5,-0.5 1435.5,-19.5 1477.5,-19.5 1477.5,-0.5 1435.5,-0.5"/>
<text text-anchor="middle" x="1456.5" y="-7.5" font-family="Helvetica,sans-Serif" font-size="10.00">vector</text>
</a>
</g>
</g>
<!-- Node3&#45;&gt;Node22 -->
<g id="edge21" class="edge">
<title>Node3&#45;&gt;Node22</title>
<path fill="none" stroke="midnightblue" d="M1060.85,-61.93C1144.41,-57.24 1291.27,-46.14 1425.28,-19.89"/>
<polygon fill="midnightblue" stroke="midnightblue" points="1426.2,-23.28 1435.32,-17.89 1424.83,-16.41 1426.2,-23.28"/>
</g>
<!-- Node23 -->
<g id="node23" class="node">
<title>Node23</title>
<g id="a_node23"><a xlink:title=" ">
<polygon fill="none" stroke="#bfbfbf" points="1495.5,-0.5 1495.5,-19.5 1539.5,-19.5 1539.5,-0.5 1495.5,-0.5"/>
<text text-anchor="middle" x="1517.5" y="-7.5" font-family="Helvetica,sans-Serif" font-size="10.00">thread</text>
</a>
</g>
</g>
<!-- Node3&#45;&gt;Node23 -->
<g id="edge22" class="edge">
<title>Node3&#45;&gt;Node23</title>
<path fill="none" stroke="midnightblue" d="M1060.65,-62.94C1154,-59.18 1328.27,-48.9 1484.98,-19.94"/>
<polygon fill="midnightblue" stroke="midnightblue" points="1486.09,-23.29 1495.27,-18.01 1484.8,-16.41 1486.09,-23.29"/>
</g>
<!-- Node24 -->
<g id="node24" class="node">
<title>Node24</title>
<g id="a_node24"><a xlink:title=" ">
<polygon fill="none" stroke="#bfbfbf" points="1557.5,-0.5 1557.5,-19.5 1601.5,-19.5 1601.5,-0.5 1557.5,-0.5"/>
<text text-anchor="middle" x="1579.5" y="-7.5" font-family="Helvetica,sans-Serif" font-size="10.00">mutex</text>
</a>
</g>
</g>
<!-- Node3&#45;&gt;Node24 -->
<g id="edge23" class="edge">
<title>Node3&#45;&gt;Node24</title>
<path fill="none" stroke="midnightblue" d="M1060.71,-63.91C1163.77,-61.28 1366.99,-52.3 1547.35,-19.85"/>
<polygon fill="midnightblue" stroke="midnightblue" points="1548.07,-23.27 1557.28,-18.03 1546.81,-16.39 1548.07,-23.27"/>
</g>
<!-- Node25 -->
<g id="node25" class="node">
<title>Node25</title>
<g id="a_node25"><a xlink:title=" ">
<polygon fill="none" stroke="#bfbfbf" points="1620,-0.5 1620,-19.5 1663,-19.5 1663,-0.5 1620,-0.5"/>
<text text-anchor="middle" x="1641.5" y="-7.5" font-family="Helvetica,sans-Serif" font-size="10.00">queue</text>
</a>
</g>
</g>
<!-- Node3&#45;&gt;Node25 -->
<g id="edge24" class="edge">
<title>Node3&#45;&gt;Node25</title>
<path fill="none" stroke="midnightblue" d="M1060.72,-64.69C1172.88,-63.17 1405.18,-55.74 1609.92,-19.68"/>
<polygon fill="midnightblue" stroke="midnightblue" points="1610.73,-23.09 1619.96,-17.88 1609.5,-16.2 1610.73,-23.09"/>
</g>
<!-- Node26 -->
<g id="node26" class="node">
<title>Node26</title>
<g id="a_node26"><a xlink:title=" ">
<polygon fill="none" stroke="#bfbfbf" points="1681,-0.5 1681,-19.5 1716,-19.5 1716,-0.5 1681,-0.5"/>
<text text-anchor="middle" x="1698.5" y="-7.5" font-family="Helvetica,sans-Serif" font-size="10.00">map</text>
</a>
</g>
</g>
<!-- Node3&#45;&gt;Node26 -->
<g id="edge25" class="edge">
<title>Node3&#45;&gt;Node26</title>
<path fill="none" stroke="midnightblue" d="M1060.69,-62.83C1204.54,-57.81 1539.28,-44.13 1670.91,-19.76"/>
<polygon fill="midnightblue" stroke="midnightblue" points="1671.63,-23.19 1680.77,-17.84 1670.29,-16.32 1671.63,-23.19"/>
</g>
<!-- Node28 -->
<g id="node28" class="node">
<title>Node28</title>
<g id="a_node28"><a xlink:href="$d5/de8/a00749.html" xlink:title=" ">
<polygon fill="none" stroke="black" points="1467.5,-235.5 1467.5,-254.5 1617.5,-254.5 1617.5,-235.5 1467.5,-235.5"/>
<text text-anchor="middle" x="1542.5" y="-242.5" font-family="Helvetica,sans-Serif" font-size="10.00">discordcoreapi/SSLClients.hpp</text>
</a>
</g>
</g>
<!-- Node27&#45;&gt;Node28 -->
<g id="edge27" class="edge">
<title>Node27&#45;&gt;Node28</title>
<path fill="none" stroke="midnightblue" d="M1333.8,-291.44C1377.06,-282.02 1446.67,-266.87 1493.47,-256.68"/>
<polygon fill="midnightblue" stroke="midnightblue" points="1494.36,-260.06 1503.39,-254.52 1492.87,-253.22 1494.36,-260.06"/>
</g>
<!-- Node28&#45;&gt;Node2 -->
<g id="edge28" class="edge">
<title>Node28&#45;&gt;Node2</title>
<path fill="none" stroke="midnightblue" d="M1467.41,-242.33C1329.46,-238.6 1046.62,-227.52 1012.5,-199 999.14,-187.84 994.65,-168.37 993.35,-152.71"/>
<polygon fill="midnightblue" stroke="midnightblue" points="996.84,-152.46 992.9,-142.63 989.85,-152.78 996.84,-152.46"/>
</g>
<!-- Node29 -->
<g id="node29" class="node">
<title>Node29</title>
<g id="a_node29"><a xlink:href="$d4/d6a/a00704.html" xlink:title=" ">
<polygon fill="none" stroke="black" points="1021.5,-179.5 1021.5,-198.5 1179.5,-198.5 1179.5,-179.5 1021.5,-179.5"/>
<text text-anchor="middle" x="1100.5" y="-186.5" font-family="Helvetica,sans-Serif" font-size="10.00">discordcoreapi/EventEntities.hpp</text>
</a>
</g>
</g>
<!-- Node28&#45;&gt;Node29 -->
<g id="edge29" class="edge">
<title>Node28&#45;&gt;Node29</title>
<path fill="none" stroke="midnightblue" d="M1472.46,-235.44C1393.01,-225.74 1263.7,-209.94 1180.39,-199.76"/>
<polygon fill="midnightblue" stroke="midnightblue" points="1180.56,-196.26 1170.21,-198.52 1179.71,-203.2 1180.56,-196.26"/>
</g>
<!-- Node30 -->
<g id="node30" class="node">
<title>Node30</title>
<g id="a_node30"><a xlink:title=" ">
<polygon fill="none" stroke="#bfbfbf" points="1198,-179.5 1198,-198.5 1271,-198.5 1271,-179.5 1198,-179.5"/>
<text text-anchor="middle" x="1234.5" y="-186.5" font-family="Helvetica,sans-Serif" font-size="10.00">openssl/err.h</text>
</a>
</g>
</g>
<!-- Node28&#45;&gt;Node30 -->
<g id="edge31" class="edge">
<title>Node28&#45;&gt;Node30</title>
<path fill="none" stroke="midnightblue" d="M1490.74,-235.47C1440.01,-227.03 1360.23,-213.55 1281.27,-199.11"/>
<polygon fill="midnightblue" stroke="midnightblue" points="1281.61,-195.61 1271.14,-197.25 1280.35,-202.5 1281.61,-195.61"/>
</g>
<!-- Node31 -->
<g id="node31" class="node">
<title>Node31</title>
<g id="a_node31"><a xlink:title=" ">
<polygon fill="none" stroke="#bfbfbf" points="1289.5,-179.5 1289.5,-198.5 1363.5,-198.5 1363.5,-179.5 1289.5,-179.5"/>
<text text-anchor="middle" x="1326.5" y="-186.5" font-family="Helvetica,sans-Serif" font-size="10.00">openssl/ssl.h</text>
</a>
</g>
</g>
<!-- Node28&#45;&gt;Node31 -->
<g id="edge32" class="edge">
<title>Node28&#45;&gt;Node31</title>
<path fill="none" stroke="midnightblue" d="M1508.27,-235.44C1470.99,-226.12 1411.23,-211.18 1370.49,-201"/>
<polygon fill="midnightblue" stroke="midnightblue" points="1371.12,-197.55 1360.57,-198.52 1369.42,-204.34 1371.12,-197.55"/>
</g>
<!-- Node32 -->
<g id="node32" class="node">
<title>Node32</title>
<g id="a_node32"><a xlink:title=" ">
<polygon fill="none" stroke="#bfbfbf" points="1382,-179.5 1382,-198.5 1425,-198.5 1425,-179.5 1382,-179.5"/>
<text text-anchor="middle" x="1403.5" y="-186.5" font-family="Helvetica,sans-Serif" font-size="10.00">fcntl.h</text>
</a>
</g>
</g>
<!-- Node28&#45;&gt;Node32 -->
<g id="edge33" class="edge">
<title>Node28&#45;&gt;Node32</title>
<path fill="none" stroke="midnightblue" d="M1520.48,-235.44C1497.4,-226.48 1460.94,-212.31 1434.86,-202.18"/>
<polygon fill="midnightblue" stroke="midnightblue" points="1436.01,-198.88 1425.42,-198.52 1433.48,-205.4 1436.01,-198.88"/>
</g>
<!-- Node33 -->
<g id="node33" class="node">
<title>Node33</title>
<g id="a_node33"><a xlink:title=" ">
<polygon fill="none" stroke="#bfbfbf" points="1443,-179.5 1443,-198.5 1492,-198.5 1492,-179.5 1443,-179.5"/>
<text text-anchor="middle" x="1467.5" y="-186.5" font-family="Helvetica,sans-Serif" font-size="10.00">netdb.h</text>
</a>
</g>
</g>
<!-- Node28&#45;&gt;Node33 -->
<g id="edge34" class="edge">
<title>Node28&#45;&gt;Node33</title>
<path fill="none" stroke="midnightblue" d="M1530.45,-235.32C1519.04,-227.11 1501.67,-214.6 1488.07,-204.81"/>
<polygon fill="midnightblue" stroke="midnightblue" points="1489.93,-201.84 1479.77,-198.83 1485.84,-207.52 1489.93,-201.84"/>
</g>
<!-- Node34 -->
<g id="node34" class="node">
<title>Node34</title>
<g id="a_node34"><a xlink:title=" ">
<polygon fill="none" stroke="#bfbfbf" points="1510,-179.5 1510,-198.5 1575,-198.5 1575,-179.5 1510,-179.5"/>
<text text-anchor="middle" x="1542.5" y="-186.5" font-family="Helvetica,sans-Serif" font-size="10.00">netinet/in.h</text>
</a>
</g>
</g>
<!-- Node28&#45;&gt;Node34 -->
<g id="edge35" class="edge">
<title>Node28&#45;&gt;Node34</title>
<path fill="none" stroke="midnightblue" d="M1542.5,-235.08C1542.5,-228.01 1542.5,-217.86 1542.5,-208.99"/>
<polygon fill="midnightblue" stroke="midnightblue" points="1546,-208.75 1542.5,-198.75 1539,-208.75 1546,-208.75"/>
</g>
<!-- Node35 -->
<g id="node35" class="node">
<title>Node35</title>
<g id="a_node35"><a xlink:title=" ">
<polygon fill="none" stroke="#bfbfbf" points="1593,-179.5 1593,-198.5 1664,-198.5 1664,-179.5 1593,-179.5"/>
<text text-anchor="middle" x="1628.5" y="-186.5" font-family="Helvetica,sans-Serif" font-size="10.00">netinet/tcp.h</text>
</a>
</g>
</g>
<!-- Node28&#45;&gt;Node35 -->
<g id="edge36" class="edge">
<title>Node28&#45;&gt;Node35</title>
<path fill="none" stroke="midnightblue" d="M1556.32,-235.32C1569.73,-226.9 1590.32,-213.97 1606.09,-204.07"/>
<polygon fill="midnightblue" stroke="midnightblue" points="1608.11,-206.94 1614.72,-198.65 1604.39,-201.01 1608.11,-206.94"/>
</g>
<!-- Node36 -->
<g id="node36" class="node">
<title>Node36</title>
<g id="a_node36"><a xlink:title=" ">
<polygon fill="none" stroke="#bfbfbf" points="1682,-179.5 1682,-198.5 1731,-198.5 1731,-179.5 1682,-179.5"/>
<text text-anchor="middle" x="1706.5" y="-186.5" font-family="Helvetica,sans-Serif" font-size="10.00">stdint.h</text>
</a>
</g>
</g>
<!-- Node28&#45;&gt;Node36 -->
<g id="edge37" class="edge">
<title>Node28&#45;&gt;Node36</title>
<path fill="none" stroke="midnightblue" d="M1568.49,-235.44C1596.6,-226.19 1641.55,-211.39 1672.47,-201.21"/>
<polygon fill="midnightblue" stroke="midnightblue" points="1673.57,-204.53 1681.97,-198.08 1671.38,-197.88 1673.57,-204.53"/>
</g>
<!-- Node37 -->
<g id="node37" class="node">
<title>Node37</title>
<g id="a_node37"><a xlink:title=" ">
<polygon fill="none" stroke="#bfbfbf" points="1749.5,-179.5 1749.5,-198.5 1813.5,-198.5 1813.5,-179.5 1749.5,-179.5"/>
<text text-anchor="middle" x="1781.5" y="-186.5" font-family="Helvetica,sans-Serif" font-size="10.00">sys/epoll.h</text>
</a>
</g>
</g>
<!-- Node28&#45;&gt;Node37 -->
<g id="edge38" class="edge">
<title>Node28&#45;&gt;Node37</title>
<path fill="none" stroke="midnightblue" d="M1580.37,-235.44C1623.6,-225.68 1694.12,-209.74 1739.14,-199.57"/>
<polygon fill="midnightblue" stroke="midnightblue" points="1740.19,-202.92 1749.17,-197.3 1738.65,-196.09 1740.19,-202.92"/>
</g>
<!-- Node38 -->
<g id="node38" class="node">
<title>Node38</title>
<g id="a_node38"><a xlink:title=" ">
<polygon fill="none" stroke="#bfbfbf" points="1831.5,-179.5 1831.5,-198.5 1893.5,-198.5 1893.5,-179.5 1831.5,-179.5"/>
<text text-anchor="middle" x="1862.5" y="-186.5" font-family="Helvetica,sans-Serif" font-size="10.00">arpa/inet.h</text>
</a>
</g>
</g>
<!-- Node28&#45;&gt;Node38 -->
<g id="edge39" class="edge">
<title>Node28&#45;&gt;Node38</title>
<path fill="none" stroke="midnightblue" d="M1602.23,-235.5C1656.82,-227.48 1740.03,-214.63 1821.21,-199.16"/>
<polygon fill="midnightblue" stroke="midnightblue" points="1821.94,-202.58 1831.1,-197.26 1820.61,-195.71 1821.94,-202.58"/>
</g>
<!-- Node39 -->
<g id="node39" class="node">
<title>Node39</title>
<g id="a_node39"><a xlink:title=" ">
<polygon fill="none" stroke="#bfbfbf" points="1912,-179.5 1912,-198.5 1985,-198.5 1985,-179.5 1912,-179.5"/>
<text text-anchor="middle" x="1948.5" y="-186.5" font-family="Helvetica,sans-Serif" font-size="10.00">sys/socket.h</text>
</a>
</g>
</g>
<!-- Node28&#45;&gt;Node39 -->
<g id="edge40" class="edge">
<title>Node28&#45;&gt;Node39</title>
<path fill="none" stroke="midnightblue" d="M1617.52,-236.15C1688.21,-228.4 1797.31,-215.55 1901.79,-199.01"/>
<polygon fill="midnightblue" stroke="midnightblue" points="1902.56,-202.43 1911.88,-197.4 1901.46,-195.52 1902.56,-202.43"/>
</g>
<!-- Node40 -->
<g id="node40" class="node">
<title>Node40</title>
<g id="a_node40"><a xlink:title=" ">
<polygon fill="none" stroke="#bfbfbf" points="2003.5,-179.5 2003.5,-198.5 2071.5,-198.5 2071.5,-179.5 2003.5,-179.5"/>
<text text-anchor="middle" x="2037.5" y="-186.5" font-family="Helvetica,sans-Serif" font-size="10.00">sys/types.h</text>
</a>
</g>
</g>
<!-- Node28&#45;&gt;Node40 -->
<g id="edge41" class="edge">
<title>Node28&#45;&gt;Node40</title>
<path fill="none" stroke="midnightblue" d="M1617.59,-239C1705.42,-232.59 1855.35,-219.92 1993.38,-199.02"/>
<polygon fill="midnightblue" stroke="midnightblue" points="1993.94,-202.48 2003.29,-197.5 1992.88,-195.56 1993.94,-202.48"/>
</g>
<!-- Node41 -->
<g id="node41" class="node">
<title>Node41</title>
<g id="a_node41"><a xlink:title=" ">
<polygon fill="none" stroke="#bfbfbf" points="2090,-179.5 2090,-198.5 2141,-198.5 2141,-179.5 2090,-179.5"/>
<text text-anchor="middle" x="2115.5" y="-186.5" font-family="Helvetica,sans-Serif" font-size="10.00">unistd.h</text>
</a>
</g>
</g>
<!-- Node28&#45;&gt;Node41 -->
<g id="edge42" class="edge">
<title>Node28&#45;&gt;Node41</title>
<path fill="none" stroke="midnightblue" d="M1617.85,-241.69C1720.37,-237.67 1909.55,-227.08 2080.08,-198.76"/>
<polygon fill="midnightblue" stroke="midnightblue" points="2080.71,-202.2 2089.99,-197.09 2079.55,-195.3 2080.71,-202.2"/>
</g>
<!-- Node29&#45;&gt;Node2 -->
<g id="edge30" class="edge">
<title>Node29&#45;&gt;Node2</title>
<path fill="none" stroke="midnightblue" d="M1085.17,-179.48C1070.2,-171.15 1046.92,-158.21 1027.57,-147.45"/>
<polygon fill="midnightblue" stroke="midnightblue" points="1029.16,-144.32 1018.72,-142.52 1025.76,-150.44 1029.16,-144.32"/>
</g>
</g>
</svg>
