<?xml version="1.0" encoding="UTF-8" standalone="no"?>
<!DOCTYPE svg PUBLIC "-//W3C//DTD SVG 1.1//EN"
 "http://www.w3.org/Graphics/SVG/1.1/DTD/svg11.dtd">
<!-- Generated by graphviz version 2.43.0 (0)
 -->
<!-- Title: DiscordCoreAPI::AutoModerationRule Pages: 1 -->
<svg width="205pt" height="148pt"
 viewBox="0.00 0.00 205.00 148.00" xmlns="http://www.w3.org/2000/svg" xmlns:xlink="http://www.w3.org/1999/xlink">
<g id="graph0" class="graph" transform="scale(1 1) rotate(0) translate(4 144)">
<title>DiscordCoreAPI::AutoModerationRule</title>
<!-- Node1 -->
<g id="node1" class="node">
<title>Node1</title>
<g id="a_node1"><a xlink:title="Represents an auto&#45;moderation&#45;rule.">
<polygon fill="#bfbfbf" stroke="black" points="197,-19 0,-19 0,0 197,0 197,-19"/>
<text text-anchor="middle" x="98.5" y="-7" font-family="Helvetica,sans-Serif" font-size="10.00">DiscordCoreAPI::AutoModerationRule</text>
</a>
</g>
</g>
<!-- Node2 -->
<g id="node2" class="node">
<title>Node2</title>
<g id="a_node2"><a xlink:href="../../d4/d41/a02400.html" target="_top" xlink:title="Represents an auto&#45;moderation&#45;rule.">
<polygon fill="none" stroke="black" points="186.5,-85 10.5,-85 10.5,-55 186.5,-55 186.5,-85"/>
<text text-anchor="start" x="18.5" y="-73" font-family="Helvetica,sans-Serif" font-size="10.00">DiscordCoreAPI::AutoModeration</text>
<text text-anchor="middle" x="98.5" y="-62" font-family="Helvetica,sans-Serif" font-size="10.00">RuleData</text>
</a>
</g>
</g>
<!-- Node2&#45;&gt;Node1 -->
<g id="edge1" class="edge">
<title>Node2&#45;&gt;Node1</title>
<path fill="none" stroke="midnightblue" d="M98.5,-44.75C98.5,-35.72 98.5,-26.03 98.5,-19.27"/>
<polygon fill="midnightblue" stroke="midnightblue" points="95,-44.84 98.5,-54.84 102,-44.84 95,-44.84"/>
</g>
<!-- Node3 -->
<g id="node3" class="node">
<title>Node3</title>
<g id="a_node3"><a xlink:href="../../dc/d1a/a02288.html" target="_top" xlink:title="Base class for all Discord entities.">
<polygon fill="none" stroke="black" points="180,-140 17,-140 17,-121 180,-121 180,-140"/>
<text text-anchor="middle" x="98.5" y="-128" font-family="Helvetica,sans-Serif" font-size="10.00">DiscordCoreAPI::DiscordEntity</text>
</a>
</g>
</g>
<!-- Node3&#45;&gt;Node2 -->
<g id="edge2" class="edge">
<title>Node3&#45;&gt;Node2</title>
<path fill="none" stroke="midnightblue" d="M98.5,-110.65C98.5,-102.36 98.5,-92.78 98.5,-85.11"/>
<polygon fill="midnightblue" stroke="midnightblue" points="95,-110.87 98.5,-120.87 102,-110.87 95,-110.87"/>
</g>
</g>
</svg>
