<?xml version="1.0" encoding="UTF-8" standalone="no"?>
<!DOCTYPE svg PUBLIC "-//W3C//DTD SVG 1.1//EN"
 "http://www.w3.org/Graphics/SVG/1.1/DTD/svg11.dtd">
<!-- Generated by graphviz version 2.43.0 (0)
 -->
<!-- Title: DiscordCoreAPI::Reaction Pages: 1 -->
<svg width="172pt" height="137pt"
 viewBox="0.00 0.00 172.00 137.00" xmlns="http://www.w3.org/2000/svg" xmlns:xlink="http://www.w3.org/1999/xlink">
<g id="graph0" class="graph" transform="scale(1 1) rotate(0) translate(4 133)">
<title>DiscordCoreAPI::Reaction</title>
<!-- Node1 -->
<g id="node1" class="node">
<title>Node1</title>
<g id="a_node1"><a xlink:title="A single Reaction.">
<polygon fill="#bfbfbf" stroke="black" points="152,-19 12,-19 12,0 152,0 152,-19"/>
<text text-anchor="middle" x="82" y="-7" font-family="Helvetica,sans-Serif" font-size="10.00">DiscordCoreAPI::Reaction</text>
</a>
</g>
</g>
<!-- Node2 -->
<g id="node2" class="node">
<title>Node2</title>
<g id="a_node2"><a xlink:href="../../d5/d04/a02428.html" target="_top" xlink:title="Data structure representing a single reaction.">
<polygon fill="none" stroke="black" points="164,-74 0,-74 0,-55 164,-55 164,-74"/>
<text text-anchor="middle" x="82" y="-62" font-family="Helvetica,sans-Serif" font-size="10.00">DiscordCoreAPI::ReactionData</text>
</a>
</g>
</g>
<!-- Node2&#45;&gt;Node1 -->
<g id="edge1" class="edge">
<title>Node2&#45;&gt;Node1</title>
<path fill="none" stroke="midnightblue" d="M82,-44.66C82,-35.93 82,-25.99 82,-19.09"/>
<polygon fill="midnightblue" stroke="midnightblue" points="78.5,-44.75 82,-54.75 85.5,-44.75 78.5,-44.75"/>
</g>
<!-- Node3 -->
<g id="node3" class="node">
<title>Node3</title>
<g id="a_node3"><a xlink:href="../../dc/d1a/a02288.html" target="_top" xlink:title="Base class for all Discord entities.">
<polygon fill="none" stroke="black" points="163.5,-129 0.5,-129 0.5,-110 163.5,-110 163.5,-129"/>
<text text-anchor="middle" x="82" y="-117" font-family="Helvetica,sans-Serif" font-size="10.00">DiscordCoreAPI::DiscordEntity</text>
</a>
</g>
</g>
<!-- Node3&#45;&gt;Node2 -->
<g id="edge2" class="edge">
<title>Node3&#45;&gt;Node2</title>
<path fill="none" stroke="midnightblue" d="M82,-99.66C82,-90.93 82,-80.99 82,-74.09"/>
<polygon fill="midnightblue" stroke="midnightblue" points="78.5,-99.75 82,-109.75 85.5,-99.75 78.5,-99.75"/>
</g>
</g>
</svg>
