<?xml version="1.0" encoding="UTF-8" standalone="no"?>
<!DOCTYPE svg PUBLIC "-//W3C//DTD SVG 1.1//EN"
 "http://www.w3.org/Graphics/SVG/1.1/DTD/svg11.dtd">
<!-- Generated by graphviz version 2.43.0 (0)
 -->
<!-- Title: DiscordCoreAPI::SongAPI::skip Pages: 1 -->
<svg width="318pt" height="137pt"
 viewBox="0.00 0.00 318.00 137.00" xmlns="http://www.w3.org/2000/svg" xmlns:xlink="http://www.w3.org/1999/xlink">
<g id="graph0" class="graph" transform="scale(1 1) rotate(0) translate(4 133)">
<title>DiscordCoreAPI::SongAPI::skip</title>
<!-- Node1 -->
<g id="node1" class="node">
<title>Node1</title>
<g id="a_node1"><a xlink:title="Skips to the next Song in the queue, if applicable.">
<polygon fill="#bfbfbf" stroke="black" points="0,-49.5 0,-79.5 137,-79.5 137,-49.5 0,-49.5"/>
<text text-anchor="start" x="8" y="-67.5" font-family="Helvetica,sans-Serif" font-size="10.00">DiscordCoreAPI::SongAPI</text>
<text text-anchor="middle" x="68.5" y="-56.5" font-family="Helvetica,sans-Serif" font-size="10.00">::skip</text>
</a>
</g>
</g>
<!-- Node2 -->
<g id="node2" class="node">
<title>Node2</title>
<g id="a_node2"><a xlink:href="../../d1/d3a/a03353.html#a2fd8322ed36afe708a12ec4a32675940" target="_top" xlink:title="Returns the current loop&#45;all status of the current Guild&#39;s Playlist.">
<polygon fill="none" stroke="black" points="173,-98.5 173,-128.5 310,-128.5 310,-98.5 173,-98.5"/>
<text text-anchor="start" x="181" y="-116.5" font-family="Helvetica,sans-Serif" font-size="10.00">DiscordCoreAPI::SongAPI</text>
<text text-anchor="middle" x="241.5" y="-105.5" font-family="Helvetica,sans-Serif" font-size="10.00">::isLoopAllEnabled</text>
</a>
</g>
</g>
<!-- Node1&#45;&gt;Node2 -->
<g id="edge1" class="edge">
<title>Node1&#45;&gt;Node2</title>
<path fill="none" stroke="midnightblue" d="M122.2,-79.6C139.92,-84.68 159.85,-90.39 178.23,-95.66"/>
<polygon fill="midnightblue" stroke="midnightblue" points="177.4,-99.06 187.97,-98.45 179.32,-92.33 177.4,-99.06"/>
</g>
<!-- Node3 -->
<g id="node3" class="node">
<title>Node3</title>
<g id="a_node3"><a xlink:href="../../d1/d3a/a03353.html#af71c48d950393a342783d9b246f685a9" target="_top" xlink:title="Returns the current loop&#45;song of the current Guild&#39;s Playlist.">
<polygon fill="none" stroke="black" points="173,-49.5 173,-79.5 310,-79.5 310,-49.5 173,-49.5"/>
<text text-anchor="start" x="181" y="-67.5" font-family="Helvetica,sans-Serif" font-size="10.00">DiscordCoreAPI::SongAPI</text>
<text text-anchor="middle" x="241.5" y="-56.5" font-family="Helvetica,sans-Serif" font-size="10.00">::isLoopSongEnabled</text>
</a>
</g>
</g>
<!-- Node1&#45;&gt;Node3 -->
<g id="edge2" class="edge">
<title>Node1&#45;&gt;Node3</title>
<path fill="none" stroke="midnightblue" d="M137.08,-64.5C145.54,-64.5 154.24,-64.5 162.83,-64.5"/>
<polygon fill="midnightblue" stroke="midnightblue" points="162.85,-68 172.85,-64.5 162.85,-61 162.85,-68"/>
</g>
<!-- Node4 -->
<g id="node4" class="node">
<title>Node4</title>
<g id="a_node4"><a xlink:href="../../d1/d3a/a03353.html#a36d2861aef00337d8fd20c873d1119da" target="_top" xlink:title="Sets the currently playing Song.">
<polygon fill="none" stroke="black" points="173,-0.5 173,-30.5 310,-30.5 310,-0.5 173,-0.5"/>
<text text-anchor="start" x="181" y="-18.5" font-family="Helvetica,sans-Serif" font-size="10.00">DiscordCoreAPI::SongAPI</text>
<text text-anchor="middle" x="241.5" y="-7.5" font-family="Helvetica,sans-Serif" font-size="10.00">::setCurrentSong</text>
</a>
</g>
</g>
<!-- Node1&#45;&gt;Node4 -->
<g id="edge3" class="edge">
<title>Node1&#45;&gt;Node4</title>
<path fill="none" stroke="midnightblue" d="M122.2,-49.4C139.92,-44.32 159.85,-38.61 178.23,-33.34"/>
<polygon fill="midnightblue" stroke="midnightblue" points="179.32,-36.67 187.97,-30.55 177.4,-29.94 179.32,-36.67"/>
</g>
</g>
</svg>
