<?xml version="1.0" encoding="UTF-8" standalone="no"?>
<!DOCTYPE svg PUBLIC "-//W3C//DTD SVG 1.1//EN"
 "http://www.w3.org/Graphics/SVG/1.1/DTD/svg11.dtd">
<!-- Generated by graphviz version 2.43.0 (0)
 -->
<!-- Title: DiscordCoreAPI::GuildMembers::getCachedGuildMemberAsync Pages: 1 -->
<svg width="383pt" height="38pt"
 viewBox="0.00 0.00 383.00 38.00" xmlns="http://www.w3.org/2000/svg" xmlns:xlink="http://www.w3.org/1999/xlink">
<g id="graph0" class="graph" transform="scale(1 1) rotate(0) translate(4 34)">
<title>DiscordCoreAPI::GuildMembers::getCachedGuildMemberAsync</title>
<!-- Node1 -->
<g id="node1" class="node">
<title>Node1</title>
<g id="a_node1"><a xlink:title="Collects a GuildMember from the library&#39;s cache.">
<polygon fill="#bfbfbf" stroke="black" points="170,-30 0,-30 0,0 170,0 170,-30"/>
<text text-anchor="start" x="8" y="-18" font-family="Helvetica,sans-Serif" font-size="10.00">DiscordCoreAPI::GuildMembers</text>
<text text-anchor="middle" x="85" y="-7" font-family="Helvetica,sans-Serif" font-size="10.00">::getCachedGuildMemberAsync</text>
</a>
</g>
</g>
<!-- Node2 -->
<g id="node2" class="node">
<title>Node2</title>
<g id="a_node2"><a xlink:href="../../d5/d7f/a03036.html#a997c281bf11d3d686116c2f6dc35bf5b" target="_top" xlink:title="Collects a GuildMember from the Discord servers.">
<polygon fill="none" stroke="black" points="375,-30 206,-30 206,0 375,0 375,-30"/>
<text text-anchor="start" x="214" y="-18" font-family="Helvetica,sans-Serif" font-size="10.00">DiscordCoreAPI::GuildMembers</text>
<text text-anchor="middle" x="290.5" y="-7" font-family="Helvetica,sans-Serif" font-size="10.00">::getGuildMemberAsync</text>
</a>
</g>
</g>
<!-- Node1&#45;&gt;Node2 -->
<g id="edge1" class="edge">
<title>Node1&#45;&gt;Node2</title>
<path fill="none" stroke="midnightblue" d="M170.24,-8.34C178.73,-8.25 187.38,-8.23 195.96,-8.27"/>
<polygon fill="midnightblue" stroke="midnightblue" points="195.95,-11.77 205.98,-8.35 196.01,-4.77 195.95,-11.77"/>
</g>
<!-- Node2&#45;&gt;Node1 -->
<g id="edge2" class="edge">
<title>Node2&#45;&gt;Node1</title>
<path fill="none" stroke="midnightblue" d="M205.98,-21.65C197.5,-21.74 188.85,-21.77 180.27,-21.73"/>
<polygon fill="midnightblue" stroke="midnightblue" points="180.27,-18.23 170.24,-21.66 180.21,-25.23 180.27,-18.23"/>
</g>
</g>
</svg>
