<?xml version="1.0" encoding="UTF-8" standalone="no"?>
<!DOCTYPE svg PUBLIC "-//W3C//DTD SVG 1.1//EN"
 "http://www.w3.org/Graphics/SVG/1.1/DTD/svg11.dtd">
<!-- Generated by graphviz version 2.43.0 (0)
 -->
<!-- Title: DiscordCoreAPI::GuildMembers::timeoutGuildMemberAsync Pages: 1 -->
<svg width="588pt" height="86pt"
 viewBox="0.00 0.00 588.00 86.00" xmlns="http://www.w3.org/2000/svg" xmlns:xlink="http://www.w3.org/1999/xlink">
<g id="graph0" class="graph" transform="scale(1 1) rotate(0) translate(4 82)">
<title>DiscordCoreAPI::GuildMembers::timeoutGuildMemberAsync</title>
<!-- Node1 -->
<g id="node1" class="node">
<title>Node1</title>
<g id="a_node1"><a xlink:title="Times&#45;out a chosen GuildMember from a chosen Guild.">
<polygon fill="#bfbfbf" stroke="black" points="169,-54 0,-54 0,-24 169,-24 169,-54"/>
<text text-anchor="start" x="8" y="-42" font-family="Helvetica,sans-Serif" font-size="10.00">DiscordCoreAPI::GuildMembers</text>
<text text-anchor="middle" x="84.5" y="-31" font-family="Helvetica,sans-Serif" font-size="10.00">::timeoutGuildMemberAsync</text>
</a>
</g>
</g>
<!-- Node2 -->
<g id="node2" class="node">
<title>Node2</title>
<g id="a_node2"><a xlink:href="../../d5/d7f/a03036.html#a8985a29afb27c8e010bcf581528e5559" target="_top" xlink:title="Collects a GuildMember from the library&#39;s cache.">
<polygon fill="none" stroke="black" points="375,-78 205,-78 205,-48 375,-48 375,-78"/>
<text text-anchor="start" x="213" y="-66" font-family="Helvetica,sans-Serif" font-size="10.00">DiscordCoreAPI::GuildMembers</text>
<text text-anchor="middle" x="290" y="-55" font-family="Helvetica,sans-Serif" font-size="10.00">::getCachedGuildMemberAsync</text>
</a>
</g>
</g>
<!-- Node1&#45;&gt;Node2 -->
<g id="edge1" class="edge">
<title>Node1&#45;&gt;Node2</title>
<path fill="none" stroke="midnightblue" d="M169.15,-48.87C177.58,-49.86 186.19,-50.87 194.72,-51.88"/>
<polygon fill="midnightblue" stroke="midnightblue" points="194.34,-55.36 204.69,-53.06 195.16,-48.41 194.34,-55.36"/>
</g>
<!-- Node4 -->
<g id="node4" class="node">
<title>Node4</title>
<g id="a_node4"><a xlink:href="../../d5/d7f/a03036.html#afd28019271de633d1f03239f56e56bcc" target="_top" xlink:title="Modifies a GuildMember&#39;s properties.">
<polygon fill="none" stroke="black" points="374.5,-30 205.5,-30 205.5,0 374.5,0 374.5,-30"/>
<text text-anchor="start" x="213.5" y="-18" font-family="Helvetica,sans-Serif" font-size="10.00">DiscordCoreAPI::GuildMembers</text>
<text text-anchor="middle" x="290" y="-7" font-family="Helvetica,sans-Serif" font-size="10.00">::modifyGuildMemberAsync</text>
</a>
</g>
</g>
<!-- Node1&#45;&gt;Node4 -->
<g id="edge4" class="edge">
<title>Node1&#45;&gt;Node4</title>
<path fill="none" stroke="midnightblue" d="M169.15,-29.13C177.74,-28.12 186.51,-27.09 195.2,-26.06"/>
<polygon fill="midnightblue" stroke="midnightblue" points="195.82,-29.51 205.34,-24.87 195,-22.56 195.82,-29.51"/>
</g>
<!-- Node3 -->
<g id="node3" class="node">
<title>Node3</title>
<g id="a_node3"><a xlink:href="../../d5/d7f/a03036.html#a997c281bf11d3d686116c2f6dc35bf5b" target="_top" xlink:title="Collects a GuildMember from the Discord servers.">
<polygon fill="none" stroke="black" points="580,-78 411,-78 411,-48 580,-48 580,-78"/>
<text text-anchor="start" x="419" y="-66" font-family="Helvetica,sans-Serif" font-size="10.00">DiscordCoreAPI::GuildMembers</text>
<text text-anchor="middle" x="495.5" y="-55" font-family="Helvetica,sans-Serif" font-size="10.00">::getGuildMemberAsync</text>
</a>
</g>
</g>
<!-- Node2&#45;&gt;Node3 -->
<g id="edge2" class="edge">
<title>Node2&#45;&gt;Node3</title>
<path fill="none" stroke="midnightblue" d="M375.24,-56.34C383.73,-56.25 392.38,-56.23 400.96,-56.27"/>
<polygon fill="midnightblue" stroke="midnightblue" points="400.95,-59.77 410.98,-56.35 401.01,-52.77 400.95,-59.77"/>
</g>
<!-- Node3&#45;&gt;Node2 -->
<g id="edge3" class="edge">
<title>Node3&#45;&gt;Node2</title>
<path fill="none" stroke="midnightblue" d="M410.98,-69.65C402.5,-69.74 393.85,-69.77 385.27,-69.73"/>
<polygon fill="midnightblue" stroke="midnightblue" points="385.27,-66.23 375.24,-69.66 385.21,-73.23 385.27,-66.23"/>
</g>
</g>
</svg>
