<?xml version="1.0" encoding="UTF-8" standalone="no"?>
<!DOCTYPE svg PUBLIC "-//W3C//DTD SVG 1.1//EN"
 "http://www.w3.org/Graphics/SVG/1.1/DTD/svg11.dtd">
<!-- Generated by graphviz version 2.43.0 (0)
 -->
<!-- Title: ChannelEntities.hpp Pages: 1 -->
<svg width="1487pt" height="308pt"
 viewBox="0.00 0.00 1487.00 308.00" xmlns="http://www.w3.org/2000/svg" xmlns:xlink="http://www.w3.org/1999/xlink">
<g id="graph0" class="graph" transform="scale(1 1) rotate(0) translate(4 304)">
<title>ChannelEntities.hpp</title>
<!-- Node1 -->
<g id="node1" class="node">
<title>Node1</title>
<g id="a_node1"><a xlink:title=" ">
<polygon fill="#bfbfbf" stroke="black" points="774.5,-280.5 774.5,-299.5 888.5,-299.5 888.5,-280.5 774.5,-280.5"/>
<text text-anchor="middle" x="831.5" y="-287.5" font-family="Helvetica,sans-Serif" font-size="10.00">ChannelEntities.hpp</text>
</a>
</g>
</g>
<!-- Node2 -->
<g id="node2" class="node">
<title>Node2</title>
<g id="a_node2"><a xlink:href="../../df/dbb/a00698.html" target="_top" xlink:title=" ">
<polygon fill="none" stroke="black" points="728,-112.5 728,-131.5 853,-131.5 853,-112.5 728,-112.5"/>
<text text-anchor="middle" x="790.5" y="-119.5" font-family="Helvetica,sans-Serif" font-size="10.00">DiscordCoreClient.hpp</text>
</a>
</g>
</g>
<!-- Node1&#45;&gt;Node2 -->
<g id="edge1" class="edge">
<title>Node1&#45;&gt;Node2</title>
<path fill="none" stroke="midnightblue" d="M858.27,-275.65C898.27,-253.93 965.84,-209.19 935.5,-168 916.58,-142.32 883.16,-130.87 853.16,-125.92"/>
<polygon fill="midnightblue" stroke="midnightblue" points="856.46,-272.65 849.25,-280.42 859.73,-278.84 856.46,-272.65"/>
</g>
<!-- Node16 -->
<g id="node16" class="node">
<title>Node16</title>
<g id="a_node16"><a xlink:href="../../d1/d56/a00707.html" target="_top" xlink:title=" ">
<polygon fill="none" stroke="black" points="983,-168.5 983,-187.5 1090,-187.5 1090,-168.5 983,-168.5"/>
<text text-anchor="middle" x="1036.5" y="-175.5" font-family="Helvetica,sans-Serif" font-size="10.00">EventManager.hpp</text>
</a>
</g>
</g>
<!-- Node1&#45;&gt;Node16 -->
<g id="edge15" class="edge">
<title>Node1&#45;&gt;Node16</title>
<path fill="none" stroke="midnightblue" d="M883.04,-277.89C909.77,-270.73 942.23,-259.75 968.5,-244 994.27,-228.55 1018.13,-201.73 1029.5,-187.87"/>
<polygon fill="midnightblue" stroke="midnightblue" points="881.91,-274.57 873.1,-280.45 883.66,-281.35 881.91,-274.57"/>
</g>
<!-- Node17 -->
<g id="node17" class="node">
<title>Node17</title>
<g id="a_node17"><a xlink:href="../../d1/d04/a00713.html" target="_top" xlink:title=" ">
<polygon fill="none" stroke="black" points="509.5,-224.5 509.5,-243.5 609.5,-243.5 609.5,-224.5 509.5,-224.5"/>
<text text-anchor="middle" x="559.5" y="-231.5" font-family="Helvetica,sans-Serif" font-size="10.00">GuildEntities.hpp</text>
</a>
</g>
</g>
<!-- Node1&#45;&gt;Node17 -->
<g id="edge19" class="edge">
<title>Node1&#45;&gt;Node17</title>
<path fill="none" stroke="midnightblue" d="M778.48,-278.47C727.07,-268.27 650.06,-252.98 602.4,-243.52"/>
<polygon fill="midnightblue" stroke="midnightblue" points="777.91,-281.93 788.4,-280.44 779.27,-275.06 777.91,-281.93"/>
</g>
<!-- Node18 -->
<g id="node18" class="node">
<title>Node18</title>
<g id="a_node18"><a xlink:href="../../df/d0e/a00800.html" target="_top" xlink:title=" ">
<polygon fill="none" stroke="black" points="620.5,-168.5 620.5,-187.5 762.5,-187.5 762.5,-168.5 620.5,-168.5"/>
<text text-anchor="middle" x="691.5" y="-175.5" font-family="Helvetica,sans-Serif" font-size="10.00">DataParsingFunctions.cpp</text>
</a>
</g>
</g>
<!-- Node1&#45;&gt;Node18 -->
<g id="edge33" class="edge">
<title>Node1&#45;&gt;Node18</title>
<path fill="none" stroke="midnightblue" d="M810.41,-274.57C798.02,-265.94 782.16,-254.62 768.5,-244 743.64,-224.68 715.67,-200.39 701.26,-187.68"/>
<polygon fill="midnightblue" stroke="midnightblue" points="808.52,-277.52 818.73,-280.33 812.5,-271.76 808.52,-277.52"/>
</g>
<!-- Node19 -->
<g id="node19" class="node">
<title>Node19</title>
<g id="a_node19"><a xlink:href="../../d8/d2d/a00815.html" target="_top" xlink:title=" ">
<polygon fill="none" stroke="black" points="146.5,-168.5 146.5,-187.5 274.5,-187.5 274.5,-168.5 146.5,-168.5"/>
<text text-anchor="middle" x="210.5" y="-175.5" font-family="Helvetica,sans-Serif" font-size="10.00">FoundationEntities.cpp</text>
</a>
</g>
</g>
<!-- Node1&#45;&gt;Node19 -->
<g id="edge34" class="edge">
<title>Node1&#45;&gt;Node19</title>
<path fill="none" stroke="midnightblue" d="M764.14,-284.86C684.74,-279.18 549.06,-266.94 434.5,-244 360.65,-229.21 275.86,-201.6 235.02,-187.6"/>
<polygon fill="midnightblue" stroke="midnightblue" points="764.27,-288.38 774.49,-285.59 764.76,-281.39 764.27,-288.38"/>
</g>
<!-- Node21 -->
<g id="node21" class="node">
<title>Node21</title>
<g id="a_node21"><a xlink:href="../../d3/db2/a00869.html" target="_top" xlink:title=" ">
<polygon fill="none" stroke="black" points="293,-168.5 293,-187.5 368,-187.5 368,-168.5 293,-168.5"/>
<text text-anchor="middle" x="330.5" y="-175.5" font-family="Helvetica,sans-Serif" font-size="10.00">Utilities.cpp</text>
</a>
</g>
</g>
<!-- Node1&#45;&gt;Node21 -->
<g id="edge36" class="edge">
<title>Node1&#45;&gt;Node21</title>
<path fill="none" stroke="midnightblue" d="M764.14,-284.41C696.63,-278.74 590.15,-266.91 500.5,-244 443.56,-229.45 379.62,-201.73 348.91,-187.66"/>
<polygon fill="midnightblue" stroke="midnightblue" points="763.97,-287.9 774.22,-285.23 764.54,-280.93 763.97,-287.9"/>
</g>
<!-- Node22 -->
<g id="node22" class="node">
<title>Node22</title>
<g id="a_node22"><a xlink:href="../../d2/d4a/a00758.html" target="_top" xlink:title=" ">
<polygon fill="none" stroke="black" points="777.5,-224.5 777.5,-243.5 885.5,-243.5 885.5,-224.5 777.5,-224.5"/>
<text text-anchor="middle" x="831.5" y="-231.5" font-family="Helvetica,sans-Serif" font-size="10.00">ThreadEntities.hpp</text>
</a>
</g>
</g>
<!-- Node1&#45;&gt;Node22 -->
<g id="edge27" class="edge">
<title>Node1&#45;&gt;Node22</title>
<path fill="none" stroke="midnightblue" d="M831.5,-269.8C831.5,-260.91 831.5,-250.78 831.5,-243.75"/>
<polygon fill="midnightblue" stroke="midnightblue" points="828,-270.08 831.5,-280.08 835,-270.08 828,-270.08"/>
</g>
<!-- Node24 -->
<g id="node24" class="node">
<title>Node24</title>
<g id="a_node24"><a xlink:href="../../d5/d12/a00794.html" target="_top" xlink:title=" ">
<polygon fill="none" stroke="black" points="1021,-224.5 1021,-243.5 1134,-243.5 1134,-224.5 1021,-224.5"/>
<text text-anchor="middle" x="1077.5" y="-231.5" font-family="Helvetica,sans-Serif" font-size="10.00">ChannelEntities.cpp</text>
</a>
</g>
</g>
<!-- Node1&#45;&gt;Node24 -->
<g id="edge32" class="edge">
<title>Node1&#45;&gt;Node24</title>
<path fill="none" stroke="midnightblue" d="M880.33,-278.28C926.82,-268.08 995.86,-252.92 1038.7,-243.52"/>
<polygon fill="midnightblue" stroke="midnightblue" points="879.5,-274.88 870.48,-280.44 881,-281.72 879.5,-274.88"/>
</g>
<!-- Node25 -->
<g id="node25" class="node">
<title>Node25</title>
<g id="a_node25"><a xlink:href="../../d9/daf/a00830.html" target="_top" xlink:title=" ">
<polygon fill="none" stroke="black" points="1152,-224.5 1152,-243.5 1247,-243.5 1247,-224.5 1152,-224.5"/>
<text text-anchor="middle" x="1199.5" y="-231.5" font-family="Helvetica,sans-Serif" font-size="10.00">InputEvents.cpp</text>
</a>
</g>
</g>
<!-- Node1&#45;&gt;Node25 -->
<g id="edge35" class="edge">
<title>Node1&#45;&gt;Node25</title>
<path fill="none" stroke="midnightblue" d="M899,-279.58C962.22,-270.69 1059.32,-256.83 1143.5,-244 1146.23,-243.58 1149.02,-243.15 1151.85,-242.71"/>
<polygon fill="midnightblue" stroke="midnightblue" points="898.17,-276.17 888.76,-281.02 899.15,-283.1 898.17,-276.17"/>
</g>
<!-- Node3 -->
<g id="node3" class="node">
<title>Node3</title>
<g id="a_node3"><a xlink:href="../../d8/db9/a00725.html" target="_top" xlink:title=" ">
<polygon fill="none" stroke="black" points="228,-56.5 228,-75.5 293,-75.5 293,-56.5 228,-56.5"/>
<text text-anchor="middle" x="260.5" y="-63.5" font-family="Helvetica,sans-Serif" font-size="10.00">Index.hpp</text>
</a>
</g>
</g>
<!-- Node2&#45;&gt;Node3 -->
<g id="edge2" class="edge">
<title>Node2&#45;&gt;Node3</title>
<path fill="none" stroke="midnightblue" d="M717.67,-117C622,-111.13 448.98,-98.37 302.5,-76 299.55,-75.55 296.5,-75.02 293.45,-74.45"/>
<polygon fill="midnightblue" stroke="midnightblue" points="717.62,-120.5 727.81,-117.62 718.04,-113.52 717.62,-120.5"/>
</g>
<!-- Node5 -->
<g id="node5" class="node">
<title>Node5</title>
<g id="a_node5"><a xlink:href="../../da/d96/a00782.html" target="_top" xlink:title=" ">
<polygon fill="none" stroke="black" points="311,-56.5 311,-75.5 490,-75.5 490,-56.5 311,-56.5"/>
<text text-anchor="middle" x="400.5" y="-63.5" font-family="Helvetica,sans-Serif" font-size="10.00">ApplicationCommandEntities.cpp</text>
</a>
</g>
</g>
<!-- Node2&#45;&gt;Node5 -->
<g id="edge4" class="edge">
<title>Node2&#45;&gt;Node5</title>
<path fill="none" stroke="midnightblue" d="M718.58,-111.04C644.92,-100.84 531.63,-85.16 462.01,-75.52"/>
<polygon fill="midnightblue" stroke="midnightblue" points="718.32,-114.54 728.7,-112.44 719.28,-107.6 718.32,-114.54"/>
</g>
<!-- Node6 -->
<g id="node6" class="node">
<title>Node6</title>
<g id="a_node6"><a xlink:href="../../d5/d72/a00803.html" target="_top" xlink:title=" ">
<polygon fill="none" stroke="black" points="508,-56.5 508,-75.5 633,-75.5 633,-56.5 508,-56.5"/>
<text text-anchor="middle" x="570.5" y="-63.5" font-family="Helvetica,sans-Serif" font-size="10.00">DiscordCoreClient.cpp</text>
</a>
</g>
</g>
<!-- Node2&#45;&gt;Node6 -->
<g id="edge5" class="edge">
<title>Node2&#45;&gt;Node6</title>
<path fill="none" stroke="midnightblue" d="M745.78,-110.02C704.22,-99.82 643.19,-84.84 605.2,-75.52"/>
<polygon fill="midnightblue" stroke="midnightblue" points="745.09,-113.46 755.64,-112.44 746.76,-106.66 745.09,-113.46"/>
</g>
<!-- Node7 -->
<g id="node7" class="node">
<title>Node7</title>
<g id="a_node7"><a xlink:href="../../d8/db7/a00812.html" target="_top" xlink:title=" ">
<polygon fill="none" stroke="black" points="1227,-56.5 1227,-75.5 1334,-75.5 1334,-56.5 1227,-56.5"/>
<text text-anchor="middle" x="1280.5" y="-63.5" font-family="Helvetica,sans-Serif" font-size="10.00">EventManager.cpp</text>
</a>
</g>
</g>
<!-- Node2&#45;&gt;Node7 -->
<g id="edge6" class="edge">
<title>Node2&#45;&gt;Node7</title>
<path fill="none" stroke="midnightblue" d="M863.24,-114.16C948.3,-105.97 1093.28,-91.41 1217.5,-76 1220.57,-75.62 1223.72,-75.21 1226.9,-74.79"/>
<polygon fill="midnightblue" stroke="midnightblue" points="862.79,-110.69 853.17,-115.13 863.46,-117.65 862.79,-110.69"/>
</g>
<!-- Node8 -->
<g id="node8" class="node">
<title>Node8</title>
<g id="a_node8"><a xlink:href="../../d3/d60/a00818.html" target="_top" xlink:title=" ">
<polygon fill="none" stroke="black" points="0,-56.5 0,-75.5 99,-75.5 99,-56.5 0,-56.5"/>
<text text-anchor="middle" x="49.5" y="-63.5" font-family="Helvetica,sans-Serif" font-size="10.00">GuildEntities.cpp</text>
</a>
</g>
</g>
<!-- Node2&#45;&gt;Node8 -->
<g id="edge7" class="edge">
<title>Node2&#45;&gt;Node8</title>
<path fill="none" stroke="midnightblue" d="M717.61,-118.24C592.66,-113.05 329.65,-100.12 108.5,-76 105.41,-75.66 102.23,-75.28 99.03,-74.87"/>
<polygon fill="midnightblue" stroke="midnightblue" points="717.68,-121.74 727.81,-118.66 717.97,-114.75 717.68,-121.74"/>
</g>
<!-- Node9 -->
<g id="node9" class="node">
<title>Node9</title>
<g id="a_node9"><a xlink:href="../../dc/d1b/a00827.html" target="_top" xlink:title=" ">
<polygon fill="none" stroke="black" points="651,-56.5 651,-75.5 714,-75.5 714,-56.5 651,-56.5"/>
<text text-anchor="middle" x="682.5" y="-63.5" font-family="Helvetica,sans-Serif" font-size="10.00">Https.cpp</text>
</a>
</g>
</g>
<!-- Node2&#45;&gt;Node9 -->
<g id="edge8" class="edge">
<title>Node2&#45;&gt;Node9</title>
<path fill="none" stroke="midnightblue" d="M763.95,-107.73C743.95,-97.73 717.11,-84.31 699.81,-75.65"/>
<polygon fill="midnightblue" stroke="midnightblue" points="762.64,-110.98 773.15,-112.32 765.77,-104.72 762.64,-110.98"/>
</g>
<!-- Node10 -->
<g id="node10" class="node">
<title>Node10</title>
<g id="a_node10"><a xlink:href="../../d3/d13/a00836.html" target="_top" xlink:title=" ">
<polygon fill="none" stroke="black" points="732,-56.5 732,-75.5 849,-75.5 849,-56.5 732,-56.5"/>
<text text-anchor="middle" x="790.5" y="-63.5" font-family="Helvetica,sans-Serif" font-size="10.00">MessageEntities.cpp</text>
</a>
</g>
</g>
<!-- Node2&#45;&gt;Node10 -->
<g id="edge9" class="edge">
<title>Node2&#45;&gt;Node10</title>
<path fill="none" stroke="midnightblue" d="M790.5,-101.8C790.5,-92.91 790.5,-82.78 790.5,-75.75"/>
<polygon fill="midnightblue" stroke="midnightblue" points="787,-102.08 790.5,-112.08 794,-102.08 787,-102.08"/>
</g>
<!-- Node11 -->
<g id="node11" class="node">
<title>Node11</title>
<g id="a_node11"><a xlink:href="../../d7/dcf/a00845.html" target="_top" xlink:title=" ">
<polygon fill="none" stroke="black" points="867,-56.5 867,-75.5 944,-75.5 944,-56.5 867,-56.5"/>
<text text-anchor="middle" x="905.5" y="-63.5" font-family="Helvetica,sans-Serif" font-size="10.00">SongAPI.cpp</text>
</a>
</g>
</g>
<!-- Node2&#45;&gt;Node11 -->
<g id="edge10" class="edge">
<title>Node2&#45;&gt;Node11</title>
<path fill="none" stroke="midnightblue" d="M817.98,-108.1C839.47,-98.01 868.72,-84.27 887.36,-75.52"/>
<polygon fill="midnightblue" stroke="midnightblue" points="816.29,-105.02 808.72,-112.44 819.26,-111.36 816.29,-105.02"/>
</g>
<!-- Node12 -->
<g id="node12" class="node">
<title>Node12</title>
<g id="a_node12"><a xlink:href="../../d9/d30/a00848.html" target="_top" xlink:title=" ">
<polygon fill="none" stroke="black" points="962.5,-56.5 962.5,-75.5 1072.5,-75.5 1072.5,-56.5 962.5,-56.5"/>
<text text-anchor="middle" x="1017.5" y="-63.5" font-family="Helvetica,sans-Serif" font-size="10.00">SoundCloudAPI.cpp</text>
</a>
</g>
</g>
<!-- Node2&#45;&gt;Node12 -->
<g id="edge11" class="edge">
<title>Node2&#45;&gt;Node12</title>
<path fill="none" stroke="midnightblue" d="M836.37,-110.09C879.25,-99.89 942.42,-84.86 981.7,-75.52"/>
<polygon fill="midnightblue" stroke="midnightblue" points="835.39,-106.72 826.47,-112.44 837.01,-113.53 835.39,-106.72"/>
</g>
<!-- Node13 -->
<g id="node13" class="node">
<title>Node13</title>
<g id="a_node13"><a xlink:href="../../dc/d17/a00872.html" target="_top" xlink:title=" ">
<polygon fill="none" stroke="black" points="1090.5,-56.5 1090.5,-75.5 1208.5,-75.5 1208.5,-56.5 1090.5,-56.5"/>
<text text-anchor="middle" x="1149.5" y="-63.5" font-family="Helvetica,sans-Serif" font-size="10.00">VoiceConnection.cpp</text>
</a>
</g>
</g>
<!-- Node2&#45;&gt;Node13 -->
<g id="edge12" class="edge">
<title>Node2&#45;&gt;Node13</title>
<path fill="none" stroke="midnightblue" d="M857.54,-110.92C925.36,-100.71 1029.05,-85.12 1092.88,-75.52"/>
<polygon fill="midnightblue" stroke="midnightblue" points="856.75,-107.49 847.38,-112.44 857.79,-114.42 856.75,-107.49"/>
</g>
<!-- Node14 -->
<g id="node14" class="node">
<title>Node14</title>
<g id="a_node14"><a xlink:href="../../d5/d69/a00878.html" target="_top" xlink:title=" ">
<polygon fill="none" stroke="black" points="1352,-56.5 1352,-75.5 1479,-75.5 1479,-56.5 1352,-56.5"/>
<text text-anchor="middle" x="1415.5" y="-63.5" font-family="Helvetica,sans-Serif" font-size="10.00">WebSocketEntities.cpp</text>
</a>
</g>
</g>
<!-- Node2&#45;&gt;Node14 -->
<g id="edge13" class="edge">
<title>Node2&#45;&gt;Node14</title>
<path fill="none" stroke="midnightblue" d="M863.45,-116.07C969.33,-108.69 1171.72,-93.72 1343.5,-76 1346.26,-75.72 1349.07,-75.41 1351.91,-75.1"/>
<polygon fill="midnightblue" stroke="midnightblue" points="862.93,-112.6 853.19,-116.78 863.41,-119.58 862.93,-112.6"/>
</g>
<!-- Node15 -->
<g id="node15" class="node">
<title>Node15</title>
<g id="a_node15"><a xlink:href="../../df/d41/a00881.html" target="_top" xlink:title=" ">
<polygon fill="none" stroke="black" points="117.5,-56.5 117.5,-75.5 209.5,-75.5 209.5,-56.5 117.5,-56.5"/>
<text text-anchor="middle" x="163.5" y="-63.5" font-family="Helvetica,sans-Serif" font-size="10.00">YouTubeAPI.cpp</text>
</a>
</g>
</g>
<!-- Node2&#45;&gt;Node15 -->
<g id="edge14" class="edge">
<title>Node2&#45;&gt;Node15</title>
<path fill="none" stroke="midnightblue" d="M717.48,-117.22C608.55,-111.13 397.17,-97.61 218.5,-76 215.62,-75.65 212.66,-75.26 209.67,-74.84"/>
<polygon fill="midnightblue" stroke="midnightblue" points="717.52,-120.72 727.7,-117.78 717.9,-113.74 717.52,-120.72"/>
</g>
<!-- Node4 -->
<g id="node4" class="node">
<title>Node4</title>
<g id="a_node4"><a xlink:href="../../d0/dad/a00806.html" target="_top" xlink:title=" ">
<polygon fill="none" stroke="black" points="223.5,-0.5 223.5,-19.5 297.5,-19.5 297.5,-0.5 223.5,-0.5"/>
<text text-anchor="middle" x="260.5" y="-7.5" font-family="Helvetica,sans-Serif" font-size="10.00">DllMain.cpp</text>
</a>
</g>
</g>
<!-- Node3&#45;&gt;Node4 -->
<g id="edge3" class="edge">
<title>Node3&#45;&gt;Node4</title>
<path fill="none" stroke="midnightblue" d="M260.5,-45.8C260.5,-36.91 260.5,-26.78 260.5,-19.75"/>
<polygon fill="midnightblue" stroke="midnightblue" points="257,-46.08 260.5,-56.08 264,-46.08 257,-46.08"/>
</g>
<!-- Node16&#45;&gt;Node2 -->
<g id="edge16" class="edge">
<title>Node16&#45;&gt;Node2</title>
<path fill="none" stroke="midnightblue" d="M987.67,-166.28C941.18,-156.08 872.14,-140.92 829.3,-131.52"/>
<polygon fill="midnightblue" stroke="midnightblue" points="987,-169.72 997.52,-168.44 988.5,-162.88 987,-169.72"/>
</g>
<!-- Node16&#45;&gt;Node7 -->
<g id="edge17" class="edge">
<title>Node16&#45;&gt;Node7</title>
<path fill="none" stroke="midnightblue" d="M1064.97,-164.16C1115.32,-141.47 1218.77,-94.83 1261.44,-75.59"/>
<polygon fill="midnightblue" stroke="midnightblue" points="1063.32,-161.07 1055.65,-168.37 1066.2,-167.45 1063.32,-161.07"/>
</g>
<!-- Node16&#45;&gt;Node14 -->
<g id="edge18" class="edge">
<title>Node16&#45;&gt;Node14</title>
<path fill="none" stroke="midnightblue" d="M1075.62,-165.65C1151.79,-143.54 1318.45,-95.17 1386.09,-75.53"/>
<polygon fill="midnightblue" stroke="midnightblue" points="1074.55,-162.31 1065.92,-168.46 1076.5,-169.03 1074.55,-162.31"/>
</g>
<!-- Node17&#45;&gt;Node2 -->
<g id="edge20" class="edge">
<title>Node17&#45;&gt;Node2</title>
<path fill="none" stroke="midnightblue" d="M569.02,-215.58C578.04,-200.72 592.95,-179.92 611.5,-168 646.27,-145.65 691.45,-134.4 727.72,-128.74"/>
<polygon fill="midnightblue" stroke="midnightblue" points="565.94,-213.93 563.97,-224.34 572,-217.43 565.94,-213.93"/>
</g>
<!-- Node17&#45;&gt;Node8 -->
<g id="edge24" class="edge">
<title>Node17&#45;&gt;Node8</title>
<path fill="none" stroke="midnightblue" d="M516.48,-221.77C487.47,-213.66 448.61,-201.75 415.5,-188 397.87,-180.68 395.14,-175.28 377.5,-168 273.96,-125.25 145.6,-90.82 84.72,-75.54"/>
<polygon fill="midnightblue" stroke="midnightblue" points="515.73,-225.19 526.3,-224.47 517.59,-218.44 515.73,-225.19"/>
</g>
<!-- Node17&#45;&gt;Node16 -->
<g id="edge21" class="edge">
<title>Node17&#45;&gt;Node16</title>
<path fill="none" stroke="midnightblue" d="M619.83,-226.17C713.64,-215.55 893,-195.25 982.67,-185.09"/>
<polygon fill="midnightblue" stroke="midnightblue" points="619.19,-222.72 609.65,-227.32 619.98,-229.68 619.19,-222.72"/>
</g>
<!-- Node17&#45;&gt;Node18 -->
<g id="edge22" class="edge">
<title>Node17&#45;&gt;Node18</title>
<path fill="none" stroke="midnightblue" d="M589.72,-220.64C614.49,-210.5 648.9,-196.43 670.68,-187.52"/>
<polygon fill="midnightblue" stroke="midnightblue" points="588.35,-217.42 580.42,-224.44 591,-223.9 588.35,-217.42"/>
</g>
<!-- Node17&#45;&gt;Node19 -->
<g id="edge23" class="edge">
<title>Node17&#45;&gt;Node19</title>
<path fill="none" stroke="midnightblue" d="M499.29,-223.68C433.57,-213.51 329.23,-197.37 265.59,-187.52"/>
<polygon fill="midnightblue" stroke="midnightblue" points="499.08,-227.19 509.5,-225.26 500.15,-220.28 499.08,-227.19"/>
</g>
<!-- Node20 -->
<g id="node20" class="node">
<title>Node20</title>
<g id="a_node20"><a xlink:href="../../d6/d8b/a00821.html" target="_top" xlink:title=" ">
<polygon fill="none" stroke="black" points="424.5,-168.5 424.5,-187.5 564.5,-187.5 564.5,-168.5 424.5,-168.5"/>
<text text-anchor="middle" x="494.5" y="-175.5" font-family="Helvetica,sans-Serif" font-size="10.00">GuildMemberEntities.cpp</text>
</a>
</g>
</g>
<!-- Node17&#45;&gt;Node20 -->
<g id="edge25" class="edge">
<title>Node17&#45;&gt;Node20</title>
<path fill="none" stroke="midnightblue" d="M541.23,-217.82C529.58,-208.15 514.9,-195.95 505.13,-187.83"/>
<polygon fill="midnightblue" stroke="midnightblue" points="539.13,-220.63 549.06,-224.32 543.6,-215.24 539.13,-220.63"/>
</g>
<!-- Node17&#45;&gt;Node21 -->
<g id="edge26" class="edge">
<title>Node17&#45;&gt;Node21</title>
<path fill="none" stroke="midnightblue" d="M513.23,-222.09C469.96,-211.89 406.24,-196.86 366.62,-187.52"/>
<polygon fill="midnightblue" stroke="midnightblue" points="512.68,-225.55 523.21,-224.44 514.28,-218.74 512.68,-225.55"/>
</g>
<!-- Node22&#45;&gt;Node2 -->
<g id="edge28" class="edge">
<title>Node22&#45;&gt;Node2</title>
<path fill="none" stroke="midnightblue" d="M822.39,-214.97C818.46,-206.84 813.99,-197.05 810.5,-188 802.86,-168.17 796.08,-144.09 792.72,-131.54"/>
<polygon fill="midnightblue" stroke="midnightblue" points="819.38,-216.78 826.95,-224.19 825.65,-213.68 819.38,-216.78"/>
</g>
<!-- Node22&#45;&gt;Node16 -->
<g id="edge29" class="edge">
<title>Node22&#45;&gt;Node16</title>
<path fill="none" stroke="midnightblue" d="M873.91,-221.83C912.61,-211.63 968.99,-196.78 1004.17,-187.52"/>
<polygon fill="midnightblue" stroke="midnightblue" points="872.76,-218.51 863.98,-224.44 874.54,-225.28 872.76,-218.51"/>
</g>
<!-- Node22&#45;&gt;Node18 -->
<g id="edge30" class="edge">
<title>Node22&#45;&gt;Node18</title>
<path fill="none" stroke="midnightblue" d="M799.8,-220.77C773.5,-210.63 736.78,-196.47 713.58,-187.52"/>
<polygon fill="midnightblue" stroke="midnightblue" points="798.73,-224.11 809.32,-224.44 801.25,-217.58 798.73,-224.11"/>
</g>
<!-- Node23 -->
<g id="node23" class="node">
<title>Node23</title>
<g id="a_node23"><a xlink:href="../../d2/d5e/a00860.html" target="_top" xlink:title=" ">
<polygon fill="none" stroke="black" points="819,-168.5 819,-187.5 926,-187.5 926,-168.5 819,-168.5"/>
<text text-anchor="middle" x="872.5" y="-175.5" font-family="Helvetica,sans-Serif" font-size="10.00">ThreadEntities.cpp</text>
</a>
</g>
</g>
<!-- Node22&#45;&gt;Node23 -->
<g id="edge31" class="edge">
<title>Node22&#45;&gt;Node23</title>
<path fill="none" stroke="midnightblue" d="M844.52,-215.86C851.62,-206.5 860.1,-195.33 865.86,-187.75"/>
<polygon fill="midnightblue" stroke="midnightblue" points="841.53,-214 838.27,-224.08 847.11,-218.24 841.53,-214"/>
</g>
</g>
</svg>
