<?xml version="1.0" encoding="UTF-8" standalone="no"?>
<!DOCTYPE svg PUBLIC "-//W3C//DTD SVG 1.1//EN"
 "http://www.w3.org/Graphics/SVG/1.1/DTD/svg11.dtd">
<!-- Generated by graphviz version 3.0.0 (20220226.1711)
 -->
<!-- Title: ChannelEntities.hpp Pages: 1 -->
<svg width="1575pt" height="308pt"
 viewBox="0.00 0.00 1574.50 308.00" xmlns="http://www.w3.org/2000/svg" xmlns:xlink="http://www.w3.org/1999/xlink">
<g id="graph0" class="graph" transform="scale(1 1) rotate(0) translate(4 304)">
<title>ChannelEntities.hpp</title>
<!-- Node1 -->
<g id="node1" class="node">
<title>Node1</title>
<g id="a_node1"><a xlink:title=" ">
<polygon fill="#bfbfbf" stroke="black" points="1025.5,-280.5 1025.5,-299.5 1129.5,-299.5 1129.5,-280.5 1025.5,-280.5"/>
<text text-anchor="middle" x="1077.5" y="-287.5" font-family="Helvetica,sans-Serif" font-size="10.00">ChannelEntities.hpp</text>
</a>
</g>
</g>
<!-- Node2 -->
<g id="node2" class="node">
<title>Node2</title>
<g id="a_node2"><a xlink:href="$d5/d12/a00794.html" xlink:title=" ">
<polygon fill="none" stroke="black" points="565.5,-224.5 565.5,-243.5 669.5,-243.5 669.5,-224.5 565.5,-224.5"/>
<text text-anchor="middle" x="617.5" y="-231.5" font-family="Helvetica,sans-Serif" font-size="10.00">ChannelEntities.cpp</text>
</a>
</g>
</g>
<!-- Node1&#45;&gt;Node2 -->
<g id="edge1" class="edge">
<title>Node1&#45;&gt;Node2</title>
<path fill="none" stroke="midnightblue" d="M1015.09,-282.3C937.36,-273.85 800.53,-258.66 683.5,-244 679.02,-243.44 674.38,-242.84 669.72,-242.23"/>
<polygon fill="midnightblue" stroke="midnightblue" points="1014.88,-285.79 1025.2,-283.39 1015.63,-278.84 1014.88,-285.79"/>
</g>
<!-- Node3 -->
<g id="node3" class="node">
<title>Node3</title>
<g id="a_node3"><a xlink:href="$d5/d72/a00803.html" xlink:title=" ">
<polygon fill="none" stroke="black" points="880,-168.5 880,-187.5 1011,-187.5 1011,-168.5 880,-168.5"/>
<text text-anchor="middle" x="945.5" y="-175.5" font-family="Helvetica,sans-Serif" font-size="10.00">DataParsingFunctions.cpp</text>
</a>
</g>
</g>
<!-- Node1&#45;&gt;Node3 -->
<g id="edge2" class="edge">
<title>Node1&#45;&gt;Node3</title>
<path fill="none" stroke="midnightblue" d="M1060.26,-273.32C1045.42,-259.96 1023.34,-240.38 1003.5,-224 987.78,-211.02 969.05,-196.68 957.22,-187.76"/>
<polygon fill="midnightblue" stroke="midnightblue" points="1058.32,-276.29 1068.08,-280.4 1063.01,-271.09 1058.32,-276.29"/>
</g>
<!-- Node4 -->
<g id="node4" class="node">
<title>Node4</title>
<g id="a_node4"><a xlink:href="$df/dbb/a00698.html" xlink:title=" ">
<polygon fill="none" stroke="black" points="660,-112.5 660,-131.5 773,-131.5 773,-112.5 660,-112.5"/>
<text text-anchor="middle" x="716.5" y="-119.5" font-family="Helvetica,sans-Serif" font-size="10.00">DiscordCoreClient.hpp</text>
</a>
</g>
</g>
<!-- Node1&#45;&gt;Node4 -->
<g id="edge3" class="edge">
<title>Node1&#45;&gt;Node4</title>
<path fill="none" stroke="midnightblue" d="M1015.31,-289.13C937.6,-285.74 806.01,-267.59 733.5,-188 719.05,-172.14 716.59,-145.5 716.35,-131.77"/>
<polygon fill="midnightblue" stroke="midnightblue" points="1015.32,-292.64 1025.45,-289.51 1015.58,-285.64 1015.32,-292.64"/>
</g>
<!-- Node18 -->
<g id="node18" class="node">
<title>Node18</title>
<g id="a_node18"><a xlink:href="$d1/d56/a00707.html" xlink:title=" ">
<polygon fill="none" stroke="black" points="1029,-168.5 1029,-187.5 1126,-187.5 1126,-168.5 1029,-168.5"/>
<text text-anchor="middle" x="1077.5" y="-175.5" font-family="Helvetica,sans-Serif" font-size="10.00">EventManager.hpp</text>
</a>
</g>
</g>
<!-- Node1&#45;&gt;Node18 -->
<g id="edge17" class="edge">
<title>Node1&#45;&gt;Node18</title>
<path fill="none" stroke="midnightblue" d="M1077.5,-270.35C1077.5,-246.25 1077.5,-205.31 1077.5,-187.59"/>
<polygon fill="midnightblue" stroke="midnightblue" points="1074,-270.37 1077.5,-280.37 1081,-270.37 1074,-270.37"/>
</g>
<!-- Node19 -->
<g id="node19" class="node">
<title>Node19</title>
<g id="a_node19"><a xlink:href="$d3/d60/a00818.html" xlink:title=" ">
<polygon fill="none" stroke="black" points="1364.5,-168.5 1364.5,-187.5 1480.5,-187.5 1480.5,-168.5 1364.5,-168.5"/>
<text text-anchor="middle" x="1422.5" y="-175.5" font-family="Helvetica,sans-Serif" font-size="10.00">FoundationEntities.cpp</text>
</a>
</g>
</g>
<!-- Node1&#45;&gt;Node19 -->
<g id="edge21" class="edge">
<title>Node1&#45;&gt;Node19</title>
<path fill="none" stroke="midnightblue" d="M1114.49,-277.34C1140.92,-268.76 1177.2,-256.46 1208.5,-244 1228.46,-236.06 1232.27,-231.22 1252.5,-224 1296.21,-208.41 1347.94,-195.47 1382.77,-187.53"/>
<polygon fill="midnightblue" stroke="midnightblue" points="1113.32,-274.04 1104.87,-280.44 1115.47,-280.7 1113.32,-274.04"/>
</g>
<!-- Node20 -->
<g id="node20" class="node">
<title>Node20</title>
<g id="a_node20"><a xlink:href="$d1/d04/a00713.html" xlink:title=" ">
<polygon fill="none" stroke="black" points="1109,-224.5 1109,-243.5 1200,-243.5 1200,-224.5 1109,-224.5"/>
<text text-anchor="middle" x="1154.5" y="-231.5" font-family="Helvetica,sans-Serif" font-size="10.00">GuildEntities.hpp</text>
</a>
</g>
</g>
<!-- Node1&#45;&gt;Node20 -->
<g id="edge22" class="edge">
<title>Node1&#45;&gt;Node20</title>
<path fill="none" stroke="midnightblue" d="M1098.4,-274.34C1112.41,-264.52 1130.38,-251.91 1142.16,-243.65"/>
<polygon fill="midnightblue" stroke="midnightblue" points="1096.05,-271.72 1089.87,-280.32 1100.07,-277.45 1096.05,-271.72"/>
</g>
<!-- Node22 -->
<g id="node22" class="node">
<title>Node22</title>
<g id="a_node22"><a xlink:href="$dc/d17/a00872.html" xlink:title=" ">
<polygon fill="none" stroke="black" points="1498.5,-168.5 1498.5,-187.5 1566.5,-187.5 1566.5,-168.5 1498.5,-168.5"/>
<text text-anchor="middle" x="1532.5" y="-175.5" font-family="Helvetica,sans-Serif" font-size="10.00">Utilities.cpp</text>
</a>
</g>
</g>
<!-- Node1&#45;&gt;Node22 -->
<g id="edge36" class="edge">
<title>Node1&#45;&gt;Node22</title>
<path fill="none" stroke="midnightblue" d="M1127.69,-278.12C1161.26,-270.2 1206.15,-258.37 1244.5,-244 1263.49,-236.89 1266.22,-230.27 1285.5,-224 1373.06,-195.54 1399.1,-205.43 1489.5,-188 1492.35,-187.45 1495.29,-186.87 1498.25,-186.27"/>
<polygon fill="midnightblue" stroke="midnightblue" points="1126.6,-274.78 1117.65,-280.45 1128.18,-281.6 1126.6,-274.78"/>
</g>
<!-- Node23 -->
<g id="node23" class="node">
<title>Node23</title>
<g id="a_node23"><a xlink:href="$dc/d6e/a00833.html" xlink:title=" ">
<polygon fill="none" stroke="black" points="1294.5,-224.5 1294.5,-243.5 1380.5,-243.5 1380.5,-224.5 1294.5,-224.5"/>
<text text-anchor="middle" x="1337.5" y="-231.5" font-family="Helvetica,sans-Serif" font-size="10.00">InputEvents.cpp</text>
</a>
</g>
</g>
<!-- Node1&#45;&gt;Node23 -->
<g id="edge30" class="edge">
<title>Node1&#45;&gt;Node23</title>
<path fill="none" stroke="midnightblue" d="M1128.49,-278.41C1177.63,-268.2 1251.03,-252.96 1296.49,-243.52"/>
<polygon fill="midnightblue" stroke="midnightblue" points="1127.78,-274.98 1118.7,-280.44 1129.2,-281.84 1127.78,-274.98"/>
</g>
<!-- Node24 -->
<g id="node24" class="node">
<title>Node24</title>
<g id="a_node24"><a xlink:href="$d2/d4a/a00758.html" xlink:title=" ">
<polygon fill="none" stroke="black" points="896.5,-224.5 896.5,-243.5 994.5,-243.5 994.5,-224.5 896.5,-224.5"/>
<text text-anchor="middle" x="945.5" y="-231.5" font-family="Helvetica,sans-Serif" font-size="10.00">ThreadEntities.hpp</text>
</a>
</g>
</g>
<!-- Node1&#45;&gt;Node24 -->
<g id="edge31" class="edge">
<title>Node1&#45;&gt;Node24</title>
<path fill="none" stroke="midnightblue" d="M1047.28,-276.64C1022.51,-266.5 988.1,-252.43 966.32,-243.52"/>
<polygon fill="midnightblue" stroke="midnightblue" points="1046,-279.9 1056.58,-280.44 1048.65,-273.42 1046,-279.9"/>
</g>
<!-- Node5 -->
<g id="node5" class="node">
<title>Node5</title>
<g id="a_node5"><a xlink:href="$da/d96/a00782.html" xlink:title=" ">
<polygon fill="none" stroke="black" points="860,-56.5 860,-75.5 1021,-75.5 1021,-56.5 860,-56.5"/>
<text text-anchor="middle" x="940.5" y="-63.5" font-family="Helvetica,sans-Serif" font-size="10.00">ApplicationCommandEntities.cpp</text>
</a>
</g>
</g>
<!-- Node4&#45;&gt;Node5 -->
<g id="edge4" class="edge">
<title>Node4&#45;&gt;Node5</title>
<path fill="none" stroke="midnightblue" d="M761.76,-110.09C804.08,-99.89 866.41,-84.86 905.17,-75.52"/>
<polygon fill="midnightblue" stroke="midnightblue" points="760.89,-106.7 751.99,-112.44 762.54,-113.5 760.89,-106.7"/>
</g>
<!-- Node6 -->
<g id="node6" class="node">
<title>Node6</title>
<g id="a_node6"><a xlink:href="$d0/dad/a00806.html" xlink:title=" ">
<polygon fill="none" stroke="black" points="0,-56.5 0,-75.5 113,-75.5 113,-56.5 0,-56.5"/>
<text text-anchor="middle" x="56.5" y="-63.5" font-family="Helvetica,sans-Serif" font-size="10.00">DiscordCoreClient.cpp</text>
</a>
</g>
</g>
<!-- Node4&#45;&gt;Node6 -->
<g id="edge5" class="edge">
<title>Node4&#45;&gt;Node6</title>
<path fill="none" stroke="midnightblue" d="M649.48,-117.29C539.19,-110.88 312.59,-96.44 121.5,-76 118.78,-75.71 116,-75.39 113.19,-75.06"/>
<polygon fill="midnightblue" stroke="midnightblue" points="649.6,-120.8 659.79,-117.89 650,-113.82 649.6,-120.8"/>
</g>
<!-- Node7 -->
<g id="node7" class="node">
<title>Node7</title>
<g id="a_node7"><a xlink:href="$d8/d2d/a00815.html" xlink:title=" ">
<polygon fill="none" stroke="black" points="1039,-56.5 1039,-75.5 1136,-75.5 1136,-56.5 1039,-56.5"/>
<text text-anchor="middle" x="1087.5" y="-63.5" font-family="Helvetica,sans-Serif" font-size="10.00">EventManager.cpp</text>
</a>
</g>
</g>
<!-- Node4&#45;&gt;Node7 -->
<g id="edge6" class="edge">
<title>Node4&#45;&gt;Node7</title>
<path fill="none" stroke="midnightblue" d="M783.33,-111.61C846.72,-102.65 944.64,-88.68 1029.5,-76 1032.52,-75.55 1035.63,-75.08 1038.77,-74.6"/>
<polygon fill="midnightblue" stroke="midnightblue" points="782.48,-108.2 773.07,-113.06 783.46,-115.13 782.48,-108.2"/>
</g>
<!-- Node8 -->
<g id="node8" class="node">
<title>Node8</title>
<g id="a_node8"><a xlink:href="$d6/d8b/a00821.html" xlink:title=" ">
<polygon fill="none" stroke="black" points="1291,-56.5 1291,-75.5 1382,-75.5 1382,-56.5 1291,-56.5"/>
<text text-anchor="middle" x="1336.5" y="-63.5" font-family="Helvetica,sans-Serif" font-size="10.00">GuildEntities.cpp</text>
</a>
</g>
</g>
<!-- Node4&#45;&gt;Node8 -->
<g id="edge7" class="edge">
<title>Node4&#45;&gt;Node8</title>
<path fill="none" stroke="midnightblue" d="M783.54,-117.54C889.69,-111.63 1102.83,-98.07 1282.5,-76 1285.24,-75.66 1288.04,-75.29 1290.87,-74.89"/>
<polygon fill="midnightblue" stroke="midnightblue" points="783.09,-114.06 773.3,-118.1 783.48,-121.05 783.09,-114.06"/>
</g>
<!-- Node9 -->
<g id="node9" class="node">
<title>Node9</title>
<g id="a_node9"><a xlink:href="$d9/daf/a00830.html" xlink:title=" ">
<polygon fill="none" stroke="black" points="131,-56.5 131,-75.5 190,-75.5 190,-56.5 131,-56.5"/>
<text text-anchor="middle" x="160.5" y="-63.5" font-family="Helvetica,sans-Serif" font-size="10.00">Https.cpp</text>
</a>
</g>
</g>
<!-- Node4&#45;&gt;Node9 -->
<g id="edge8" class="edge">
<title>Node4&#45;&gt;Node9</title>
<path fill="none" stroke="midnightblue" d="M649.67,-118.31C550.62,-113.63 359.25,-101.88 198.5,-76 195.82,-75.57 193.05,-75.05 190.29,-74.49"/>
<polygon fill="midnightblue" stroke="midnightblue" points="649.68,-121.82 659.83,-118.78 650,-114.82 649.68,-121.82"/>
</g>
<!-- Node10 -->
<g id="node10" class="node">
<title>Node10</title>
<g id="a_node10"><a xlink:href="$d8/db9/a00725.html" xlink:title=" ">
<polygon fill="none" stroke="black" points="208,-56.5 208,-75.5 267,-75.5 267,-56.5 208,-56.5"/>
<text text-anchor="middle" x="237.5" y="-63.5" font-family="Helvetica,sans-Serif" font-size="10.00">Index.hpp</text>
</a>
</g>
</g>
<!-- Node4&#45;&gt;Node10 -->
<g id="edge9" class="edge">
<title>Node4&#45;&gt;Node10</title>
<path fill="none" stroke="midnightblue" d="M649.74,-116.78C563.22,-110.71 407.89,-97.79 276.5,-76 273.48,-75.5 270.35,-74.91 267.23,-74.26"/>
<polygon fill="midnightblue" stroke="midnightblue" points="649.72,-120.29 659.94,-117.48 650.21,-113.3 649.72,-120.29"/>
</g>
<!-- Node12 -->
<g id="node12" class="node">
<title>Node12</title>
<g id="a_node12"><a xlink:href="$df/de8/a00839.html" xlink:title=" ">
<polygon fill="none" stroke="black" points="285.5,-56.5 285.5,-75.5 393.5,-75.5 393.5,-56.5 285.5,-56.5"/>
<text text-anchor="middle" x="339.5" y="-63.5" font-family="Helvetica,sans-Serif" font-size="10.00">MessageEntities.cpp</text>
</a>
</g>
</g>
<!-- Node4&#45;&gt;Node12 -->
<g id="edge11" class="edge">
<title>Node4&#45;&gt;Node12</title>
<path fill="none" stroke="midnightblue" d="M649.65,-111.42C576.7,-100.97 461.31,-84.45 393.75,-74.77"/>
<polygon fill="midnightblue" stroke="midnightblue" points="649.26,-114.9 659.65,-112.86 650.25,-107.97 649.26,-114.9"/>
</g>
<!-- Node13 -->
<g id="node13" class="node">
<title>Node13</title>
<g id="a_node13"><a xlink:href="$d9/d30/a00848.html" xlink:title=" ">
<polygon fill="none" stroke="black" points="411.5,-56.5 411.5,-75.5 485.5,-75.5 485.5,-56.5 411.5,-56.5"/>
<text text-anchor="middle" x="448.5" y="-63.5" font-family="Helvetica,sans-Serif" font-size="10.00">SongAPI.cpp</text>
</a>
</g>
</g>
<!-- Node4&#45;&gt;Node13 -->
<g id="edge12" class="edge">
<title>Node4&#45;&gt;Node13</title>
<path fill="none" stroke="midnightblue" d="M664.23,-110.47C611.67,-99.88 531.97,-83.82 485.59,-74.47"/>
<polygon fill="midnightblue" stroke="midnightblue" points="663.54,-113.9 674.03,-112.44 664.92,-107.04 663.54,-113.9"/>
</g>
<!-- Node14 -->
<g id="node14" class="node">
<title>Node14</title>
<g id="a_node14"><a xlink:href="$df/d4c/a00851.html" xlink:title=" ">
<polygon fill="none" stroke="black" points="503.5,-56.5 503.5,-75.5 607.5,-75.5 607.5,-56.5 503.5,-56.5"/>
<text text-anchor="middle" x="555.5" y="-63.5" font-family="Helvetica,sans-Serif" font-size="10.00">SoundCloudAPI.cpp</text>
</a>
</g>
</g>
<!-- Node4&#45;&gt;Node14 -->
<g id="edge13" class="edge">
<title>Node4&#45;&gt;Node14</title>
<path fill="none" stroke="midnightblue" d="M681.24,-109.17C650.92,-99 607.93,-84.59 580.89,-75.52"/>
<polygon fill="midnightblue" stroke="midnightblue" points="680.4,-112.58 690.99,-112.44 682.62,-105.95 680.4,-112.58"/>
</g>
<!-- Node15 -->
<g id="node15" class="node">
<title>Node15</title>
<g id="a_node15"><a xlink:href="$d1/d93/a00875.html" xlink:title=" ">
<polygon fill="none" stroke="black" points="626,-56.5 626,-75.5 735,-75.5 735,-56.5 626,-56.5"/>
<text text-anchor="middle" x="680.5" y="-63.5" font-family="Helvetica,sans-Serif" font-size="10.00">VoiceConnection.cpp</text>
</a>
</g>
</g>
<!-- Node4&#45;&gt;Node15 -->
<g id="edge14" class="edge">
<title>Node4&#45;&gt;Node15</title>
<path fill="none" stroke="midnightblue" d="M704.88,-103.57C698.68,-94.27 691.33,-83.25 686.33,-75.75"/>
<polygon fill="midnightblue" stroke="midnightblue" points="702.1,-105.7 710.56,-112.08 707.92,-101.82 702.1,-105.7"/>
</g>
<!-- Node16 -->
<g id="node16" class="node">
<title>Node16</title>
<g id="a_node16"><a xlink:href="$df/d41/a00881.html" xlink:title=" ">
<polygon fill="none" stroke="black" points="1154,-56.5 1154,-75.5 1273,-75.5 1273,-56.5 1154,-56.5"/>
<text text-anchor="middle" x="1213.5" y="-63.5" font-family="Helvetica,sans-Serif" font-size="10.00">WebSocketEntities.cpp</text>
</a>
</g>
</g>
<!-- Node4&#45;&gt;Node16 -->
<g id="edge15" class="edge">
<title>Node4&#45;&gt;Node16</title>
<path fill="none" stroke="midnightblue" d="M783.52,-114.48C867.83,-106.15 1017,-91.02 1144.5,-76 1147.5,-75.65 1150.57,-75.28 1153.67,-74.9"/>
<polygon fill="midnightblue" stroke="midnightblue" points="782.93,-111.02 773.32,-115.48 783.62,-117.98 782.93,-111.02"/>
</g>
<!-- Node17 -->
<g id="node17" class="node">
<title>Node17</title>
<g id="a_node17"><a xlink:href="$dd/d08/a00884.html" xlink:title=" ">
<polygon fill="none" stroke="black" points="753,-56.5 753,-75.5 842,-75.5 842,-56.5 753,-56.5"/>
<text text-anchor="middle" x="797.5" y="-63.5" font-family="Helvetica,sans-Serif" font-size="10.00">YouTubeAPI.cpp</text>
</a>
</g>
</g>
<!-- Node4&#45;&gt;Node17 -->
<g id="edge16" class="edge">
<title>Node4&#45;&gt;Node17</title>
<path fill="none" stroke="midnightblue" d="M738.07,-106.62C752.86,-96.76 772.01,-83.99 784.52,-75.65"/>
<polygon fill="midnightblue" stroke="midnightblue" points="735.89,-103.86 729.51,-112.32 739.78,-109.69 735.89,-103.86"/>
</g>
<!-- Node11 -->
<g id="node11" class="node">
<title>Node11</title>
<g id="a_node11"><a xlink:href="$dd/d7e/a00809.html" xlink:title=" ">
<polygon fill="none" stroke="black" points="203.5,-0.5 203.5,-19.5 271.5,-19.5 271.5,-0.5 203.5,-0.5"/>
<text text-anchor="middle" x="237.5" y="-7.5" font-family="Helvetica,sans-Serif" font-size="10.00">DllMain.cpp</text>
</a>
</g>
</g>
<!-- Node10&#45;&gt;Node11 -->
<g id="edge10" class="edge">
<title>Node10&#45;&gt;Node11</title>
<path fill="none" stroke="midnightblue" d="M237.5,-45.8C237.5,-36.91 237.5,-26.78 237.5,-19.75"/>
<polygon fill="midnightblue" stroke="midnightblue" points="234,-46.08 237.5,-56.08 241,-46.08 234,-46.08"/>
</g>
<!-- Node18&#45;&gt;Node4 -->
<g id="edge18" class="edge">
<title>Node18&#45;&gt;Node4</title>
<path fill="none" stroke="midnightblue" d="M1018.72,-167.89C926.71,-153.94 831.95,-139.94 773.2,-131.31"/>
<polygon fill="midnightblue" stroke="midnightblue" points="1018.36,-171.37 1028.77,-169.41 1019.41,-164.45 1018.36,-171.37"/>
</g>
<!-- Node18&#45;&gt;Node7 -->
<g id="edge19" class="edge">
<title>Node18&#45;&gt;Node7</title>
<path fill="none" stroke="midnightblue" d="M1079.2,-158.35C1081.39,-134.25 1085.11,-93.31 1086.72,-75.59"/>
<polygon fill="midnightblue" stroke="midnightblue" points="1075.7,-158.09 1078.28,-168.37 1082.68,-158.73 1075.7,-158.09"/>
</g>
<!-- Node18&#45;&gt;Node16 -->
<g id="edge20" class="edge">
<title>Node18&#45;&gt;Node16</title>
<path fill="none" stroke="midnightblue" d="M1096.27,-161.82C1125.24,-138.39 1179.88,-94.19 1202.88,-75.59"/>
<polygon fill="midnightblue" stroke="midnightblue" points="1093.75,-159.36 1088.17,-168.37 1098.15,-164.8 1093.75,-159.36"/>
</g>
<!-- Node20&#45;&gt;Node3 -->
<g id="edge23" class="edge">
<title>Node20&#45;&gt;Node3</title>
<path fill="none" stroke="midnightblue" d="M1111.52,-221.89C1072.05,-211.7 1014.4,-196.8 978.46,-187.52"/>
<polygon fill="midnightblue" stroke="midnightblue" points="1110.83,-225.33 1121.38,-224.44 1112.58,-218.55 1110.83,-225.33"/>
</g>
<!-- Node20&#45;&gt;Node4 -->
<g id="edge24" class="edge">
<title>Node20&#45;&gt;Node4</title>
<path fill="none" stroke="midnightblue" d="M1154.03,-214.06C1152.57,-199.17 1148,-179.14 1134.5,-168 1107.19,-145.47 881.22,-131.25 773.37,-125.68"/>
<polygon fill="midnightblue" stroke="midnightblue" points="1150.54,-214.44 1154.63,-224.21 1157.53,-214.02 1150.54,-214.44"/>
</g>
<!-- Node20&#45;&gt;Node8 -->
<g id="edge27" class="edge">
<title>Node20&#45;&gt;Node8</title>
<path fill="none" stroke="midnightblue" d="M1204.04,-222.17C1249.11,-211.86 1309.75,-196.68 1317.5,-188 1346.52,-155.48 1341.25,-97.45 1337.99,-75.62"/>
<polygon fill="midnightblue" stroke="midnightblue" points="1203.09,-218.8 1194.11,-224.42 1204.64,-225.62 1203.09,-218.8"/>
</g>
<!-- Node20&#45;&gt;Node18 -->
<g id="edge25" class="edge">
<title>Node20&#45;&gt;Node18</title>
<path fill="none" stroke="midnightblue" d="M1133.6,-218.34C1119.59,-208.52 1101.62,-195.91 1089.84,-187.65"/>
<polygon fill="midnightblue" stroke="midnightblue" points="1131.93,-221.45 1142.13,-224.32 1135.95,-215.72 1131.93,-221.45"/>
</g>
<!-- Node20&#45;&gt;Node19 -->
<g id="edge26" class="edge">
<title>Node20&#45;&gt;Node19</title>
<path fill="none" stroke="midnightblue" d="M1207.06,-222.41C1257.71,-212.2 1333.37,-196.96 1380.23,-187.52"/>
<polygon fill="midnightblue" stroke="midnightblue" points="1206.08,-219.04 1196.97,-224.44 1207.46,-225.9 1206.08,-219.04"/>
</g>
<!-- Node21 -->
<g id="node21" class="node">
<title>Node21</title>
<g id="a_node21"><a xlink:href="$d8/d1c/a00824.html" xlink:title=" ">
<polygon fill="none" stroke="black" points="1182.5,-168.5 1182.5,-187.5 1308.5,-187.5 1308.5,-168.5 1182.5,-168.5"/>
<text text-anchor="middle" x="1245.5" y="-175.5" font-family="Helvetica,sans-Serif" font-size="10.00">GuildMemberEntities.cpp</text>
</a>
</g>
</g>
<!-- Node20&#45;&gt;Node21 -->
<g id="edge28" class="edge">
<title>Node20&#45;&gt;Node21</title>
<path fill="none" stroke="midnightblue" d="M1177.79,-219.18C1194.54,-209.24 1216.6,-196.15 1230.92,-187.65"/>
<polygon fill="midnightblue" stroke="midnightblue" points="1175.93,-216.21 1169.12,-224.32 1179.51,-222.23 1175.93,-216.21"/>
</g>
<!-- Node20&#45;&gt;Node22 -->
<g id="edge29" class="edge">
<title>Node20&#45;&gt;Node22</title>
<path fill="none" stroke="midnightblue" d="M1210.45,-226.75C1277.12,-219 1391.78,-204.77 1489.5,-188 1492.36,-187.51 1495.31,-186.97 1498.28,-186.4"/>
<polygon fill="midnightblue" stroke="midnightblue" points="1209.71,-223.31 1200.18,-227.93 1210.51,-230.26 1209.71,-223.31"/>
</g>
<!-- Node24&#45;&gt;Node3 -->
<g id="edge32" class="edge">
<title>Node24&#45;&gt;Node3</title>
<path fill="none" stroke="midnightblue" d="M945.5,-213.8C945.5,-204.91 945.5,-194.78 945.5,-187.75"/>
<polygon fill="midnightblue" stroke="midnightblue" points="942,-214.08 945.5,-224.08 949,-214.08 942,-214.08"/>
</g>
<!-- Node24&#45;&gt;Node4 -->
<g id="edge33" class="edge">
<title>Node24&#45;&gt;Node4</title>
<path fill="none" stroke="midnightblue" d="M886.32,-231.05C845.77,-227.03 792.63,-216.19 754.5,-188 734.95,-173.55 723.75,-145.78 719.08,-131.68"/>
<polygon fill="midnightblue" stroke="midnightblue" points="886.07,-234.54 896.34,-231.93 886.69,-227.57 886.07,-234.54"/>
</g>
<!-- Node24&#45;&gt;Node18 -->
<g id="edge34" class="edge">
<title>Node24&#45;&gt;Node18</title>
<path fill="none" stroke="midnightblue" d="M975.72,-220.64C1000.49,-210.5 1034.9,-196.43 1056.68,-187.52"/>
<polygon fill="midnightblue" stroke="midnightblue" points="974.35,-217.42 966.42,-224.44 977,-223.9 974.35,-217.42"/>
</g>
<!-- Node25 -->
<g id="node25" class="node">
<title>Node25</title>
<g id="a_node25"><a xlink:href="$d7/d49/a00863.html" xlink:title=" ">
<polygon fill="none" stroke="black" points="763.5,-168.5 763.5,-187.5 861.5,-187.5 861.5,-168.5 763.5,-168.5"/>
<text text-anchor="middle" x="812.5" y="-175.5" font-family="Helvetica,sans-Serif" font-size="10.00">ThreadEntities.cpp</text>
</a>
</g>
</g>
<!-- Node24&#45;&gt;Node25 -->
<g id="edge35" class="edge">
<title>Node24&#45;&gt;Node25</title>
<path fill="none" stroke="midnightblue" d="M915.05,-220.64C890.09,-210.5 855.42,-196.43 833.48,-187.52"/>
<polygon fill="midnightblue" stroke="midnightblue" points="913.84,-223.92 924.43,-224.44 916.48,-217.44 913.84,-223.92"/>
</g>
</g>
</svg>
