<?xml version="1.0" encoding="UTF-8" standalone="no"?>
<!DOCTYPE svg PUBLIC "-//W3C//DTD SVG 1.1//EN"
 "http://www.w3.org/Graphics/SVG/1.1/DTD/svg11.dtd">
<!-- Generated by graphviz version 2.43.0 (0)
 -->
<!-- Title: DiscordCoreAPI::AutoModerationRule Pages: 1 -->
<svg width="205pt" height="151pt"
 viewBox="0.00 0.00 205.00 151.00" xmlns="http://www.w3.org/2000/svg" xmlns:xlink="http://www.w3.org/1999/xlink">
<g id="graph0" class="graph" transform="scale(1 1) rotate(0) translate(4 147)">
<title>DiscordCoreAPI::AutoModerationRule</title>
<!-- Node1 -->
<g id="node1" class="node">
<title>Node1</title>
<g id="a_node1"><a xlink:title="Represents an auto&#45;moderation&#45;rule.">
<polygon fill="#bfbfbf" stroke="black" points="0,-0.5 0,-19.5 197,-19.5 197,-0.5 0,-0.5"/>
<text text-anchor="middle" x="98.5" y="-7.5" font-family="Helvetica,sans-Serif" font-size="10.00">DiscordCoreAPI::AutoModerationRule</text>
</a>
</g>
</g>
<!-- Node2 -->
<g id="node2" class="node">
<title>Node2</title>
<g id="a_node2"><a xlink:href="../../dd/d6b/a02397.html" target="_top" xlink:title="Represents an auto&#45;moderation&#45;rule.">
<polygon fill="none" stroke="black" points="10.5,-56.5 10.5,-86.5 186.5,-86.5 186.5,-56.5 10.5,-56.5"/>
<text text-anchor="start" x="18.5" y="-74.5" font-family="Helvetica,sans-Serif" font-size="10.00">DiscordCoreAPI::AutoModeration</text>
<text text-anchor="middle" x="98.5" y="-63.5" font-family="Helvetica,sans-Serif" font-size="10.00">RuleData</text>
</a>
</g>
</g>
<!-- Node2&#45;&gt;Node1 -->
<g id="edge1" class="edge">
<title>Node2&#45;&gt;Node1</title>
<path fill="none" stroke="midnightblue" d="M98.5,-46.29C98.5,-36.86 98.5,-26.65 98.5,-19.66"/>
<polygon fill="midnightblue" stroke="midnightblue" points="95,-46.4 98.5,-56.4 102,-46.4 95,-46.4"/>
</g>
<!-- Node3 -->
<g id="node3" class="node">
<title>Node3</title>
<g id="a_node3"><a xlink:href="../../df/d4d/a02285.html" target="_top" xlink:title="Base class for all Discord entities.">
<polygon fill="none" stroke="black" points="17,-123.5 17,-142.5 180,-142.5 180,-123.5 17,-123.5"/>
<text text-anchor="middle" x="98.5" y="-130.5" font-family="Helvetica,sans-Serif" font-size="10.00">DiscordCoreAPI::DiscordEntity</text>
</a>
</g>
</g>
<!-- Node3&#45;&gt;Node2 -->
<g id="edge2" class="edge">
<title>Node3&#45;&gt;Node2</title>
<path fill="none" stroke="midnightblue" d="M98.5,-113.23C98.5,-104.59 98.5,-94.5 98.5,-86.52"/>
<polygon fill="midnightblue" stroke="midnightblue" points="95,-113.48 98.5,-123.48 102,-113.48 95,-113.48"/>
</g>
</g>
</svg>
