<?xml version="1.0" encoding="UTF-8" standalone="no"?>
<!DOCTYPE svg PUBLIC "-//W3C//DTD SVG 1.1//EN"
 "http://www.w3.org/Graphics/SVG/1.1/DTD/svg11.dtd">
<!-- Generated by graphviz version 3.0.0 (20220226.1711)
 -->
<!-- Title: DiscordCoreAPI::Message Pages: 1 -->
<svg width="175pt" height="196pt"
 viewBox="0.00 0.00 175.00 196.00" xmlns="http://www.w3.org/2000/svg" xmlns:xlink="http://www.w3.org/1999/xlink">
<g id="graph0" class="graph" transform="scale(1 1) rotate(0) translate(4 192)">
<title>DiscordCoreAPI::Message</title>
<!-- Node1 -->
<g id="node1" class="node">
<title>Node1</title>
<g id="a_node1"><a xlink:title="A single Message.">
<polygon fill="#bfbfbf" stroke="black" points="18,-0.5 18,-19.5 149,-19.5 149,-0.5 18,-0.5"/>
<text text-anchor="middle" x="83.5" y="-7.5" font-family="Helvetica,sans-Serif" font-size="10.00">DiscordCoreAPI::Message</text>
</a>
</g>
</g>
<!-- Node2 -->
<g id="node2" class="node">
<title>Node2</title>
<g id="a_node2"><a xlink:href="../../d6/d0b/a02741.html" target="_top" xlink:title="Data structure representing a single Message.">
<polygon fill="none" stroke="black" points="7.5,-56.5 7.5,-75.5 159.5,-75.5 159.5,-56.5 7.5,-56.5"/>
<text text-anchor="middle" x="83.5" y="-63.5" font-family="Helvetica,sans-Serif" font-size="10.00">DiscordCoreAPI::MessageData</text>
</a>
</g>
</g>
<!-- Node2&#45;&gt;Node1 -->
<g id="edge1" class="edge">
<title>Node2&#45;&gt;Node1</title>
<path fill="none" stroke="midnightblue" d="M83.5,-45.8C83.5,-36.91 83.5,-26.78 83.5,-19.75"/>
<polygon fill="midnightblue" stroke="midnightblue" points="80,-46.08 83.5,-56.08 87,-46.08 80,-46.08"/>
</g>
<!-- Node3 -->
<g id="node3" class="node">
<title>Node3</title>
<g id="a_node3"><a xlink:href="../../dc/de8/a02737.html" target="_top" xlink:title="The core of a Message&#39;s data structure.">
<polygon fill="none" stroke="black" points="0,-112.5 0,-131.5 167,-131.5 167,-112.5 0,-112.5"/>
<text text-anchor="middle" x="83.5" y="-119.5" font-family="Helvetica,sans-Serif" font-size="10.00">DiscordCoreAPI::MessageDataOld</text>
</a>
</g>
</g>
<!-- Node3&#45;&gt;Node2 -->
<g id="edge2" class="edge">
<title>Node3&#45;&gt;Node2</title>
<path fill="none" stroke="midnightblue" d="M83.5,-101.8C83.5,-92.91 83.5,-82.78 83.5,-75.75"/>
<polygon fill="midnightblue" stroke="midnightblue" points="80,-102.08 83.5,-112.08 87,-102.08 80,-102.08"/>
</g>
<!-- Node4 -->
<g id="node4" class="node">
<title>Node4</title>
<g id="a_node4"><a xlink:href="../../d7/dd6/a02305.html" target="_top" xlink:title="Base class DiscordCoreAPI_Dll for all Discord entities.">
<polygon fill="none" stroke="black" points="8.5,-168.5 8.5,-187.5 158.5,-187.5 158.5,-168.5 8.5,-168.5"/>
<text text-anchor="middle" x="83.5" y="-175.5" font-family="Helvetica,sans-Serif" font-size="10.00">DiscordCoreAPI::DiscordEntity</text>
</a>
</g>
</g>
<!-- Node4&#45;&gt;Node3 -->
<g id="edge3" class="edge">
<title>Node4&#45;&gt;Node3</title>
<path fill="none" stroke="midnightblue" d="M83.5,-157.8C83.5,-148.91 83.5,-138.78 83.5,-131.75"/>
<polygon fill="midnightblue" stroke="midnightblue" points="80,-158.08 83.5,-168.08 87,-158.08 80,-158.08"/>
</g>
</g>
</svg>
