<?xml version="1.0" encoding="UTF-8" standalone="no"?>
<!DOCTYPE svg PUBLIC "-//W3C//DTD SVG 1.1//EN"
 "http://www.w3.org/Graphics/SVG/1.1/DTD/svg11.dtd">
<!-- Generated by graphviz version 2.43.0 (0)
 -->
<!-- Title: DiscordCoreAPI::ApplicationCommandData Pages: 1 -->
<svg width="171pt" height="159pt"
 viewBox="0.00 0.00 171.00 159.00" xmlns="http://www.w3.org/2000/svg" xmlns:xlink="http://www.w3.org/1999/xlink">
<g id="graph0" class="graph" transform="scale(1 1) rotate(0) translate(4 155)">
<title>DiscordCoreAPI::ApplicationCommandData</title>
<!-- Node1 -->
<g id="node1" class="node">
<title>Node1</title>
<g id="a_node1"><a xlink:title="Data structure representing an ApplicationCommand.">
<polygon fill="#bfbfbf" stroke="black" points="157.5,-96 5.5,-96 5.5,-66 157.5,-66 157.5,-96"/>
<text text-anchor="start" x="13.5" y="-84" font-family="Helvetica,sans-Serif" font-size="10.00">DiscordCoreAPI::Application</text>
<text text-anchor="middle" x="81.5" y="-73" font-family="Helvetica,sans-Serif" font-size="10.00">CommandData</text>
</a>
</g>
</g>
<!-- Node3 -->
<g id="node3" class="node">
<title>Node3</title>
<g id="a_node3"><a xlink:href="../../d5/d36/a01773.html" target="_top" xlink:title="A single ApplicationCommand.">
<polygon fill="none" stroke="black" points="157.5,-30 5.5,-30 5.5,0 157.5,0 157.5,-30"/>
<text text-anchor="start" x="13.5" y="-18" font-family="Helvetica,sans-Serif" font-size="10.00">DiscordCoreAPI::Application</text>
<text text-anchor="middle" x="81.5" y="-7" font-family="Helvetica,sans-Serif" font-size="10.00">Command</text>
</a>
</g>
</g>
<!-- Node1&#45;&gt;Node3 -->
<g id="edge2" class="edge">
<title>Node1&#45;&gt;Node3</title>
<path fill="none" stroke="midnightblue" d="M81.5,-55.54C81.5,-46.96 81.5,-37.61 81.5,-30.16"/>
<polygon fill="midnightblue" stroke="midnightblue" points="78,-55.8 81.5,-65.8 85,-55.8 78,-55.8"/>
</g>
<!-- Node2 -->
<g id="node2" class="node">
<title>Node2</title>
<g id="a_node2"><a xlink:href="../../df/d4d/a02285.html" target="_top" xlink:title="Base class for all Discord entities.">
<polygon fill="none" stroke="black" points="163,-151 0,-151 0,-132 163,-132 163,-151"/>
<text text-anchor="middle" x="81.5" y="-139" font-family="Helvetica,sans-Serif" font-size="10.00">DiscordCoreAPI::DiscordEntity</text>
</a>
</g>
</g>
<!-- Node2&#45;&gt;Node1 -->
<g id="edge1" class="edge">
<title>Node2&#45;&gt;Node1</title>
<path fill="none" stroke="midnightblue" d="M81.5,-121.65C81.5,-113.36 81.5,-103.78 81.5,-96.11"/>
<polygon fill="midnightblue" stroke="midnightblue" points="78,-121.87 81.5,-131.87 85,-121.87 78,-121.87"/>
</g>
</g>
</svg>
