<?xml version="1.0" encoding="UTF-8" standalone="no"?>
<!DOCTYPE svg PUBLIC "-//W3C//DTD SVG 1.1//EN"
 "http://www.w3.org/Graphics/SVG/1.1/DTD/svg11.dtd">
<!-- Generated by graphviz version 3.0.0 (20220226.1711)
 -->
<!-- Title: WebSocketEntities.hpp Pages: 1 -->
<svg width="2868pt" height="543pt"
 viewBox="0.00 0.00 2868.20 543.00" xmlns="http://www.w3.org/2000/svg" xmlns:xlink="http://www.w3.org/1999/xlink">
<g id="graph0" class="graph" transform="scale(1 1) rotate(0) translate(4 539)">
<title>WebSocketEntities.hpp</title>
<!-- Node1 -->
<g id="node1" class="node">
<title>Node1</title>
<g id="a_node1"><a xlink:title=" ">
<polygon fill="#bfbfbf" stroke="black" points="977.7,-515.5 977.7,-534.5 1096.7,-534.5 1096.7,-515.5 977.7,-515.5"/>
<text text-anchor="middle" x="1037.2" y="-522.5" font-family="Helvetica,sans-Serif" font-size="10.00">WebSocketEntities.hpp</text>
</a>
</g>
</g>
<!-- Node2 -->
<g id="node2" class="node">
<title>Node2</title>
<g id="a_node2"><a xlink:href="../../d4/d9b/a00680.html" target="_top" xlink:title=" ">
<polygon fill="none" stroke="black" points="246.2,-235.5 246.2,-254.5 408.2,-254.5 408.2,-235.5 246.2,-235.5"/>
<text text-anchor="middle" x="327.2" y="-242.5" font-family="Helvetica,sans-Serif" font-size="10.00">discordcoreapi/AudioDecoder.hpp</text>
</a>
</g>
</g>
<!-- Node1&#45;&gt;Node2 -->
<g id="edge1" class="edge">
<title>Node1&#45;&gt;Node2</title>
<path fill="none" stroke="midnightblue" d="M977.56,-524.52C835.17,-524.16 487.2,-513.14 487.2,-414 487.2,-414 487.2,-414 487.2,-356 487.2,-301.24 422.77,-271.68 375.69,-257.4"/>
<polygon fill="midnightblue" stroke="midnightblue" points="376.51,-253.99 365.93,-254.57 374.56,-260.71 376.51,-253.99"/>
</g>
<!-- Node3 -->
<g id="node3" class="node">
<title>Node3</title>
<g id="a_node3"><a xlink:href="../../d4/d6a/a00704.html" target="_top" xlink:title=" ">
<polygon fill="none" stroke="black" points="355.2,-179.5 355.2,-198.5 513.2,-198.5 513.2,-179.5 355.2,-179.5"/>
<text text-anchor="middle" x="434.2" y="-186.5" font-family="Helvetica,sans-Serif" font-size="10.00">discordcoreapi/EventEntities.hpp</text>
</a>
</g>
</g>
<!-- Node1&#45;&gt;Node3 -->
<g id="edge57" class="edge">
<title>Node1&#45;&gt;Node3</title>
<path fill="none" stroke="midnightblue" d="M977.49,-517.77C877.06,-505.63 685.2,-474.5 685.2,-414 685.2,-414 685.2,-414 685.2,-300 685.2,-256.32 556.08,-218.71 483.05,-200.93"/>
<polygon fill="midnightblue" stroke="midnightblue" points="483.68,-197.49 473.14,-198.56 482.05,-204.29 483.68,-197.49"/>
</g>
<!-- Node4 -->
<g id="node4" class="node">
<title>Node4</title>
<g id="a_node4"><a xlink:href="../../d4/deb/a00710.html" target="_top" xlink:title=" ">
<polygon fill="none" stroke="black" points="1560.7,-112.5 1560.7,-142.5 1691.7,-142.5 1691.7,-112.5 1560.7,-112.5"/>
<text text-anchor="start" x="1568.7" y="-130.5" font-family="Helvetica,sans-Serif" font-size="10.00">discordcoreapi/Foundation</text>
<text text-anchor="middle" x="1626.2" y="-119.5" font-family="Helvetica,sans-Serif" font-size="10.00">Entities.hpp</text>
</a>
</g>
</g>
<!-- Node1&#45;&gt;Node4 -->
<g id="edge58" class="edge">
<title>Node1&#45;&gt;Node4</title>
<path fill="none" stroke="midnightblue" d="M977.4,-523.97C756.78,-523.09 1.2,-512.86 1.2,-414 1.2,-414 1.2,-414 1.2,-244 1.2,-213.9 -3.6,-197.43 20.2,-179 81.3,-131.69 1240.09,-128.45 1550.34,-128.43"/>
<polygon fill="midnightblue" stroke="midnightblue" points="1550.58,-131.93 1560.58,-128.43 1550.58,-124.93 1550.58,-131.93"/>
</g>
<!-- Node32 -->
<g id="node32" class="node">
<title>Node32</title>
<g id="a_node32"><a xlink:href="../../d0/db6/a00692.html" target="_top" xlink:title=" ">
<polygon fill="none" stroke="black" points="1434.7,-459.5 1434.7,-478.5 1621.7,-478.5 1621.7,-459.5 1434.7,-459.5"/>
<text text-anchor="middle" x="1528.2" y="-466.5" font-family="Helvetica,sans-Serif" font-size="10.00">discordcoreapi/CommandController.hpp</text>
</a>
</g>
</g>
<!-- Node1&#45;&gt;Node32 -->
<g id="edge32" class="edge">
<title>Node1&#45;&gt;Node32</title>
<path fill="none" stroke="midnightblue" d="M1096.91,-517.43C1182.78,-507.99 1341.65,-490.52 1440.76,-479.62"/>
<polygon fill="midnightblue" stroke="midnightblue" points="1441.19,-483.09 1450.75,-478.52 1440.43,-476.13 1441.19,-483.09"/>
</g>
<!-- Node34 -->
<g id="node34" class="node">
<title>Node34</title>
<g id="a_node34"><a xlink:href="../../d3/d4f/a00761.html" target="_top" xlink:title=" ">
<polygon fill="none" stroke="black" points="1426.2,-347.5 1426.2,-366.5 1576.2,-366.5 1576.2,-347.5 1426.2,-347.5"/>
<text text-anchor="middle" x="1501.2" y="-354.5" font-family="Helvetica,sans-Serif" font-size="10.00">discordcoreapi/ThreadPool.hpp</text>
</a>
</g>
</g>
<!-- Node1&#45;&gt;Node34 -->
<g id="edge60" class="edge">
<title>Node1&#45;&gt;Node34</title>
<path fill="none" stroke="midnightblue" d="M1061.17,-515.42C1138.09,-487.9 1378.89,-401.76 1467.79,-369.95"/>
<polygon fill="midnightblue" stroke="midnightblue" points="1469.14,-373.19 1477.37,-366.52 1466.78,-366.6 1469.14,-373.19"/>
</g>
<!-- Node36 -->
<g id="node36" class="node">
<title>Node36</title>
<g id="a_node36"><a xlink:href="../../d5/de8/a00749.html" target="_top" xlink:title=" ">
<polygon fill="none" stroke="black" points="962.2,-235.5 962.2,-254.5 1112.2,-254.5 1112.2,-235.5 962.2,-235.5"/>
<text text-anchor="middle" x="1037.2" y="-242.5" font-family="Helvetica,sans-Serif" font-size="10.00">discordcoreapi/SSLClients.hpp</text>
</a>
</g>
</g>
<!-- Node1&#45;&gt;Node36 -->
<g id="edge59" class="edge">
<title>Node1&#45;&gt;Node36</title>
<path fill="none" stroke="midnightblue" d="M1037.2,-515.44C1037.2,-496.94 1037.2,-451.81 1037.2,-414 1037.2,-414 1037.2,-414 1037.2,-356 1037.2,-323.95 1037.2,-286.64 1037.2,-264.75"/>
<polygon fill="midnightblue" stroke="midnightblue" points="1040.7,-264.56 1037.2,-254.56 1033.7,-264.56 1040.7,-264.56"/>
</g>
<!-- Node49 -->
<g id="node49" class="node">
<title>Node49</title>
<g id="a_node49"><a xlink:href="../../dd/d57/a00701.html" target="_top" xlink:title=" ">
<polygon fill="none" stroke="black" points="1683.2,-403.5 1683.2,-422.5 1827.2,-422.5 1827.2,-403.5 1683.2,-403.5"/>
<text text-anchor="middle" x="1755.2" y="-410.5" font-family="Helvetica,sans-Serif" font-size="10.00">discordcoreapi/ErlPacker.hpp</text>
</a>
</g>
</g>
<!-- Node1&#45;&gt;Node49 -->
<g id="edge55" class="edge">
<title>Node1&#45;&gt;Node49</title>
<path fill="none" stroke="midnightblue" d="M1096.74,-522.55C1226.69,-518.88 1532.03,-507.43 1631.2,-479 1669.98,-467.88 1710.59,-443.86 1734.37,-428.34"/>
<polygon fill="midnightblue" stroke="midnightblue" points="1736.51,-431.11 1742.9,-422.66 1732.63,-425.29 1736.51,-431.11"/>
</g>
<!-- Node2&#45;&gt;Node3 -->
<g id="edge2" class="edge">
<title>Node2&#45;&gt;Node3</title>
<path fill="none" stroke="midnightblue" d="M344.39,-235.32C361.55,-226.66 388.14,-213.24 407.95,-203.25"/>
<polygon fill="midnightblue" stroke="midnightblue" points="409.7,-206.28 417.05,-198.65 406.55,-200.04 409.7,-206.28"/>
</g>
<!-- Node2&#45;&gt;Node4 -->
<g id="edge29" class="edge">
<title>Node2&#45;&gt;Node4</title>
<path fill="none" stroke="midnightblue" d="M326.82,-235.1C326.74,-220.67 328.96,-192.46 346.2,-179 393.82,-141.82 1283.1,-131.37 1550.66,-129.06"/>
<polygon fill="midnightblue" stroke="midnightblue" points="1550.71,-132.56 1560.67,-128.98 1550.65,-125.56 1550.71,-132.56"/>
</g>
<!-- Node30 -->
<g id="node30" class="node">
<title>Node30</title>
<g id="a_node30"><a xlink:title=" ">
<polygon fill="none" stroke="#bfbfbf" points="29.2,-179.5 29.2,-198.5 139.2,-198.5 139.2,-179.5 29.2,-179.5"/>
<text text-anchor="middle" x="84.2" y="-186.5" font-family="Helvetica,sans-Serif" font-size="10.00">libavformat/avformat.h</text>
</a>
</g>
</g>
<!-- Node2&#45;&gt;Node30 -->
<g id="edge30" class="edge">
<title>Node2&#45;&gt;Node30</title>
<path fill="none" stroke="midnightblue" d="M288.7,-235.44C246.39,-226.04 178.38,-210.93 132.53,-200.74"/>
<polygon fill="midnightblue" stroke="midnightblue" points="133.04,-197.27 122.52,-198.52 131.53,-204.1 133.04,-197.27"/>
</g>
<!-- Node31 -->
<g id="node31" class="node">
<title>Node31</title>
<g id="a_node31"><a xlink:title=" ">
<polygon fill="none" stroke="#bfbfbf" points="157.7,-179.5 157.7,-198.5 298.7,-198.5 298.7,-179.5 157.7,-179.5"/>
<text text-anchor="middle" x="228.2" y="-186.5" font-family="Helvetica,sans-Serif" font-size="10.00">libswresample/swresample.h</text>
</a>
</g>
</g>
<!-- Node2&#45;&gt;Node31 -->
<g id="edge31" class="edge">
<title>Node2&#45;&gt;Node31</title>
<path fill="none" stroke="midnightblue" d="M311.29,-235.32C295.56,-226.74 271.26,-213.49 252.99,-203.52"/>
<polygon fill="midnightblue" stroke="midnightblue" points="254.52,-200.37 244.07,-198.65 251.17,-206.52 254.52,-200.37"/>
</g>
<!-- Node3&#45;&gt;Node4 -->
<g id="edge3" class="edge">
<title>Node3&#45;&gt;Node4</title>
<path fill="none" stroke="midnightblue" d="M513.33,-179.69C516.33,-179.45 519.29,-179.22 522.2,-179 908.16,-150.46 1371.3,-135.54 1550.38,-130.5"/>
<polygon fill="midnightblue" stroke="midnightblue" points="1550.58,-134 1560.48,-130.22 1550.39,-127 1550.58,-134"/>
</g>
<!-- Node5 -->
<g id="node5" class="node">
<title>Node5</title>
<g id="a_node5"><a xlink:href="../../d5/dae/a00767.html" target="_top" xlink:title=" ">
<polygon fill="none" stroke="black" points="1988.2,-56.5 1988.2,-75.5 2122.2,-75.5 2122.2,-56.5 1988.2,-56.5"/>
<text text-anchor="middle" x="2055.2" y="-63.5" font-family="Helvetica,sans-Serif" font-size="10.00">discordcoreapi/Utilities.hpp</text>
</a>
</g>
</g>
<!-- Node4&#45;&gt;Node5 -->
<g id="edge4" class="edge">
<title>Node4&#45;&gt;Node5</title>
<path fill="none" stroke="midnightblue" d="M1691.82,-117.4C1770.6,-106.47 1902.26,-88.21 1983.6,-76.93"/>
<polygon fill="midnightblue" stroke="midnightblue" points="1984.33,-80.36 1993.76,-75.52 1983.37,-73.43 1984.33,-80.36"/>
</g>
<!-- Node6 -->
<g id="node6" class="node">
<title>Node6</title>
<g id="a_node6"><a xlink:title=" ">
<polygon fill="none" stroke="#bfbfbf" points="2722.7,-0.5 2722.7,-19.5 2779.7,-19.5 2779.7,-0.5 2722.7,-0.5"/>
<text text-anchor="middle" x="2751.2" y="-7.5" font-family="Helvetica,sans-Serif" font-size="10.00">pthread.h</text>
</a>
</g>
</g>
<!-- Node5&#45;&gt;Node6 -->
<g id="edge5" class="edge">
<title>Node5&#45;&gt;Node6</title>
<path fill="none" stroke="midnightblue" d="M2122.5,-64.18C2240.4,-61.92 2491.96,-53.42 2712.47,-20.02"/>
<polygon fill="midnightblue" stroke="midnightblue" points="2713.26,-23.44 2722.61,-18.46 2712.2,-16.52 2713.26,-23.44"/>
</g>
<!-- Node7 -->
<g id="node7" class="node">
<title>Node7</title>
<g id="a_node7"><a xlink:title=" ">
<polygon fill="none" stroke="#bfbfbf" points="2798.2,-0.5 2798.2,-19.5 2860.2,-19.5 2860.2,-0.5 2798.2,-0.5"/>
<text text-anchor="middle" x="2829.2" y="-7.5" font-family="Helvetica,sans-Serif" font-size="10.00">sys/time.h</text>
</a>
</g>
</g>
<!-- Node5&#45;&gt;Node7 -->
<g id="edge6" class="edge">
<title>Node5&#45;&gt;Node7</title>
<path fill="none" stroke="midnightblue" d="M2122.36,-64.47C2250.24,-62.68 2537.55,-54.9 2787.83,-19.97"/>
<polygon fill="midnightblue" stroke="midnightblue" points="2788.43,-23.42 2797.84,-18.55 2787.45,-16.49 2788.43,-23.42"/>
</g>
<!-- Node8 -->
<g id="node8" class="node">
<title>Node8</title>
<g id="a_node8"><a xlink:title=" ">
<polygon fill="none" stroke="#bfbfbf" points="1154.2,-0.5 1154.2,-19.5 1198.2,-19.5 1198.2,-0.5 1154.2,-0.5"/>
<text text-anchor="middle" x="1176.2" y="-7.5" font-family="Helvetica,sans-Serif" font-size="10.00">time.h</text>
</a>
</g>
</g>
<!-- Node5&#45;&gt;Node8 -->
<g id="edge7" class="edge">
<title>Node5&#45;&gt;Node8</title>
<path fill="none" stroke="midnightblue" d="M1988.01,-63.35C1818.57,-58.88 1376.04,-45.27 1208.36,-19.53"/>
<polygon fill="midnightblue" stroke="midnightblue" points="1208.87,-16.06 1198.44,-17.93 1207.76,-22.97 1208.87,-16.06"/>
</g>
<!-- Node9 -->
<g id="node9" class="node">
<title>Node9</title>
<g id="a_node9"><a xlink:title=" ">
<polygon fill="none" stroke="#bfbfbf" points="1216.7,-0.5 1216.7,-19.5 1257.7,-19.5 1257.7,-0.5 1216.7,-0.5"/>
<text text-anchor="middle" x="1237.2" y="-7.5" font-family="Helvetica,sans-Serif" font-size="10.00">ctime</text>
</a>
</g>
</g>
<!-- Node5&#45;&gt;Node9 -->
<g id="edge8" class="edge">
<title>Node5&#45;&gt;Node9</title>
<path fill="none" stroke="midnightblue" d="M1987.91,-63.18C1827.2,-58.53 1423.53,-44.86 1268.02,-19.6"/>
<polygon fill="midnightblue" stroke="midnightblue" points="1268.15,-16.07 1257.7,-17.84 1266.97,-22.97 1268.15,-16.07"/>
</g>
<!-- Node10 -->
<g id="node10" class="node">
<title>Node10</title>
<g id="a_node10"><a xlink:title=" ">
<polygon fill="none" stroke="#bfbfbf" points="1275.7,-0.5 1275.7,-19.5 1368.7,-19.5 1368.7,-0.5 1275.7,-0.5"/>
<text text-anchor="middle" x="1322.2" y="-7.5" font-family="Helvetica,sans-Serif" font-size="10.00">condition_variable</text>
</a>
</g>
</g>
<!-- Node5&#45;&gt;Node10 -->
<g id="edge9" class="edge">
<title>Node5&#45;&gt;Node10</title>
<path fill="none" stroke="midnightblue" d="M1987.75,-62.6C1867.57,-57.86 1608.32,-45.57 1379.11,-19.99"/>
<polygon fill="midnightblue" stroke="midnightblue" points="1379.23,-16.48 1368.91,-18.84 1378.45,-23.44 1379.23,-16.48"/>
</g>
<!-- Node11 -->
<g id="node11" class="node">
<title>Node11</title>
<g id="a_node11"><a xlink:title=" ">
<polygon fill="none" stroke="#bfbfbf" points="1387.2,-0.5 1387.2,-19.5 1485.2,-19.5 1485.2,-0.5 1387.2,-0.5"/>
<text text-anchor="middle" x="1436.2" y="-7.5" font-family="Helvetica,sans-Serif" font-size="10.00">nlohmann/json.hpp</text>
</a>
</g>
</g>
<!-- Node5&#45;&gt;Node11 -->
<g id="edge10" class="edge">
<title>Node5&#45;&gt;Node11</title>
<path fill="none" stroke="midnightblue" d="M1987.81,-61.14C1884.38,-54.87 1680.05,-41.13 1495.58,-19.95"/>
<polygon fill="midnightblue" stroke="midnightblue" points="1495.76,-16.45 1485.42,-18.78 1494.95,-23.4 1495.76,-16.45"/>
</g>
<!-- Node12 -->
<g id="node12" class="node">
<title>Node12</title>
<g id="a_node12"><a xlink:title=" ">
<polygon fill="none" stroke="#bfbfbf" points="1503.7,-0.5 1503.7,-19.5 1588.7,-19.5 1588.7,-0.5 1503.7,-0.5"/>
<text text-anchor="middle" x="1546.2" y="-7.5" font-family="Helvetica,sans-Serif" font-size="10.00">source_location</text>
</a>
</g>
</g>
<!-- Node5&#45;&gt;Node12 -->
<g id="edge11" class="edge">
<title>Node5&#45;&gt;Node12</title>
<path fill="none" stroke="midnightblue" d="M1988.04,-59.94C1900.78,-53.01 1743.52,-39.35 1598.69,-19.97"/>
<polygon fill="midnightblue" stroke="midnightblue" points="1599.11,-16.49 1588.73,-18.62 1598.17,-23.43 1599.11,-16.49"/>
</g>
<!-- Node13 -->
<g id="node13" class="node">
<title>Node13</title>
<g id="a_node13"><a xlink:title=" ">
<polygon fill="none" stroke="#bfbfbf" points="1606.7,-0.5 1606.7,-19.5 1689.7,-19.5 1689.7,-0.5 1606.7,-0.5"/>
<text text-anchor="middle" x="1648.2" y="-7.5" font-family="Helvetica,sans-Serif" font-size="10.00">unordered_map</text>
</a>
</g>
</g>
<!-- Node5&#45;&gt;Node13 -->
<g id="edge12" class="edge">
<title>Node5&#45;&gt;Node13</title>
<path fill="none" stroke="midnightblue" d="M1988.14,-57.51C1918.64,-49.53 1806.64,-36.04 1699.9,-20.04"/>
<polygon fill="midnightblue" stroke="midnightblue" points="1700.33,-16.57 1689.92,-18.53 1699.29,-23.49 1700.33,-16.57"/>
</g>
<!-- Node14 -->
<g id="node14" class="node">
<title>Node14</title>
<g id="a_node14"><a xlink:title=" ">
<polygon fill="none" stroke="#bfbfbf" points="1708.2,-0.5 1708.2,-19.5 1786.2,-19.5 1786.2,-0.5 1708.2,-0.5"/>
<text text-anchor="middle" x="1747.2" y="-7.5" font-family="Helvetica,sans-Serif" font-size="10.00">shared_mutex</text>
</a>
</g>
</g>
<!-- Node5&#45;&gt;Node14 -->
<g id="edge13" class="edge">
<title>Node5&#45;&gt;Node14</title>
<path fill="none" stroke="midnightblue" d="M2004.83,-56.5C1954.58,-47.96 1874.88,-34.3 1796.3,-20.18"/>
<polygon fill="midnightblue" stroke="midnightblue" points="1796.69,-16.69 1786.22,-18.36 1795.44,-23.58 1796.69,-16.69"/>
</g>
<!-- Node15 -->
<g id="node15" class="node">
<title>Node15</title>
<g id="a_node15"><a xlink:title=" ">
<polygon fill="none" stroke="#bfbfbf" points="1804.2,-0.5 1804.2,-19.5 1862.2,-19.5 1862.2,-0.5 1804.2,-0.5"/>
<text text-anchor="middle" x="1833.2" y="-7.5" font-family="Helvetica,sans-Serif" font-size="10.00">functional</text>
</a>
</g>
</g>
<!-- Node5&#45;&gt;Node15 -->
<g id="edge14" class="edge">
<title>Node5&#45;&gt;Node15</title>
<path fill="none" stroke="midnightblue" d="M2020.02,-56.44C1979.81,-46.66 1914.17,-30.7 1872.37,-20.53"/>
<polygon fill="midnightblue" stroke="midnightblue" points="1873.08,-17.1 1862.54,-18.14 1871.43,-23.9 1873.08,-17.1"/>
</g>
<!-- Node16 -->
<g id="node16" class="node">
<title>Node16</title>
<g id="a_node16"><a xlink:title=" ">
<polygon fill="none" stroke="#bfbfbf" points="1880.2,-0.5 1880.2,-19.5 1936.2,-19.5 1936.2,-0.5 1880.2,-0.5"/>
<text text-anchor="middle" x="1908.2" y="-7.5" font-family="Helvetica,sans-Serif" font-size="10.00">coroutine</text>
</a>
</g>
</g>
<!-- Node5&#45;&gt;Node16 -->
<g id="edge15" class="edge">
<title>Node5&#45;&gt;Node16</title>
<path fill="none" stroke="midnightblue" d="M2031.91,-56.44C2007.39,-47.44 1968.6,-33.19 1941,-23.05"/>
<polygon fill="midnightblue" stroke="midnightblue" points="1941.98,-19.68 1931.38,-19.52 1939.56,-26.25 1941.98,-19.68"/>
</g>
<!-- Node17 -->
<g id="node17" class="node">
<title>Node17</title>
<g id="a_node17"><a xlink:title=" ">
<polygon fill="none" stroke="#bfbfbf" points="1070.7,-0.5 1070.7,-19.5 1135.7,-19.5 1135.7,-0.5 1070.7,-0.5"/>
<text text-anchor="middle" x="1103.2" y="-7.5" font-family="Helvetica,sans-Serif" font-size="10.00">semaphore</text>
</a>
</g>
</g>
<!-- Node5&#45;&gt;Node17 -->
<g id="edge16" class="edge">
<title>Node5&#45;&gt;Node17</title>
<path fill="none" stroke="midnightblue" d="M1988.08,-65.38C1838.46,-65.43 1466.22,-61.13 1146.06,-19.88"/>
<polygon fill="midnightblue" stroke="midnightblue" points="1146.5,-16.4 1136.13,-18.58 1145.59,-23.34 1146.5,-16.4"/>
</g>
<!-- Node18 -->
<g id="node18" class="node">
<title>Node18</title>
<g id="a_node18"><a xlink:title=" ">
<polygon fill="none" stroke="#bfbfbf" points="1954.2,-0.5 1954.2,-19.5 2010.2,-19.5 2010.2,-0.5 1954.2,-0.5"/>
<text text-anchor="middle" x="1982.2" y="-7.5" font-family="Helvetica,sans-Serif" font-size="10.00">concepts</text>
</a>
</g>
</g>
<!-- Node5&#45;&gt;Node18 -->
<g id="edge17" class="edge">
<title>Node5&#45;&gt;Node18</title>
<path fill="none" stroke="midnightblue" d="M2043.47,-56.32C2032.36,-48.11 2015.46,-35.6 2002.22,-25.81"/>
<polygon fill="midnightblue" stroke="midnightblue" points="2004.26,-22.97 1994.14,-19.83 2000.1,-28.59 2004.26,-22.97"/>
</g>
<!-- Node19 -->
<g id="node19" class="node">
<title>Node19</title>
<g id="a_node19"><a xlink:title=" ">
<polygon fill="none" stroke="#bfbfbf" points="2028.2,-0.5 2028.2,-19.5 2082.2,-19.5 2082.2,-0.5 2028.2,-0.5"/>
<text text-anchor="middle" x="2055.2" y="-7.5" font-family="Helvetica,sans-Serif" font-size="10.00">iostream</text>
</a>
</g>
</g>
<!-- Node5&#45;&gt;Node19 -->
<g id="edge18" class="edge">
<title>Node5&#45;&gt;Node19</title>
<path fill="none" stroke="midnightblue" d="M2055.2,-56.08C2055.2,-49.01 2055.2,-38.86 2055.2,-29.99"/>
<polygon fill="midnightblue" stroke="midnightblue" points="2058.7,-29.75 2055.2,-19.75 2051.7,-29.75 2058.7,-29.75"/>
</g>
<!-- Node20 -->
<g id="node20" class="node">
<title>Node20</title>
<g id="a_node20"><a xlink:title=" ">
<polygon fill="none" stroke="#bfbfbf" points="2100.7,-0.5 2100.7,-19.5 2149.7,-19.5 2149.7,-0.5 2100.7,-0.5"/>
<text text-anchor="middle" x="2125.2" y="-7.5" font-family="Helvetica,sans-Serif" font-size="10.00">fstream</text>
</a>
</g>
</g>
<!-- Node5&#45;&gt;Node20 -->
<g id="edge19" class="edge">
<title>Node5&#45;&gt;Node20</title>
<path fill="none" stroke="midnightblue" d="M2066.45,-56.32C2077,-48.18 2093,-35.84 2105.64,-26.09"/>
<polygon fill="midnightblue" stroke="midnightblue" points="2107.97,-28.71 2113.75,-19.83 2103.69,-23.17 2107.97,-28.71"/>
</g>
<!-- Node21 -->
<g id="node21" class="node">
<title>Node21</title>
<g id="a_node21"><a xlink:title=" ">
<polygon fill="none" stroke="#bfbfbf" points="2167.7,-0.5 2167.7,-19.5 2208.7,-19.5 2208.7,-0.5 2167.7,-0.5"/>
<text text-anchor="middle" x="2188.2" y="-7.5" font-family="Helvetica,sans-Serif" font-size="10.00">bitset</text>
</a>
</g>
</g>
<!-- Node5&#45;&gt;Node21 -->
<g id="edge20" class="edge">
<title>Node5&#45;&gt;Node21</title>
<path fill="none" stroke="midnightblue" d="M2076.27,-56.44C2098.39,-47.46 2133.34,-33.27 2158.3,-23.14"/>
<polygon fill="midnightblue" stroke="midnightblue" points="2159.71,-26.34 2167.66,-19.34 2157.08,-19.86 2159.71,-26.34"/>
</g>
<!-- Node22 -->
<g id="node22" class="node">
<title>Node22</title>
<g id="a_node22"><a xlink:title=" ">
<polygon fill="none" stroke="#bfbfbf" points="2227.2,-0.5 2227.2,-19.5 2279.2,-19.5 2279.2,-0.5 2227.2,-0.5"/>
<text text-anchor="middle" x="2253.2" y="-7.5" font-family="Helvetica,sans-Serif" font-size="10.00">memory</text>
</a>
</g>
</g>
<!-- Node5&#45;&gt;Node22 -->
<g id="edge21" class="edge">
<title>Node5&#45;&gt;Node22</title>
<path fill="none" stroke="midnightblue" d="M2086.57,-56.44C2122.06,-46.77 2179.74,-31.03 2217.08,-20.85"/>
<polygon fill="midnightblue" stroke="midnightblue" points="2218.3,-24.14 2227.03,-18.14 2216.46,-17.39 2218.3,-24.14"/>
</g>
<!-- Node23 -->
<g id="node23" class="node">
<title>Node23</title>
<g id="a_node23"><a xlink:title=" ">
<polygon fill="none" stroke="#bfbfbf" points="2297.7,-0.5 2297.7,-19.5 2346.7,-19.5 2346.7,-0.5 2297.7,-0.5"/>
<text text-anchor="middle" x="2322.2" y="-7.5" font-family="Helvetica,sans-Serif" font-size="10.00">random</text>
</a>
</g>
</g>
<!-- Node5&#45;&gt;Node23 -->
<g id="edge22" class="edge">
<title>Node5&#45;&gt;Node23</title>
<path fill="none" stroke="midnightblue" d="M2104.49,-56.48C2149.58,-48.47 2218.32,-35.69 2287.2,-20.1"/>
<polygon fill="midnightblue" stroke="midnightblue" points="2288.39,-23.42 2297.37,-17.78 2286.84,-16.6 2288.39,-23.42"/>
</g>
<!-- Node24 -->
<g id="node24" class="node">
<title>Node24</title>
<g id="a_node24"><a xlink:title=" ">
<polygon fill="none" stroke="#bfbfbf" points="2364.7,-0.5 2364.7,-19.5 2405.7,-19.5 2405.7,-0.5 2364.7,-0.5"/>
<text text-anchor="middle" x="2385.2" y="-7.5" font-family="Helvetica,sans-Serif" font-size="10.00">string</text>
</a>
</g>
</g>
<!-- Node5&#45;&gt;Node24 -->
<g id="edge23" class="edge">
<title>Node5&#45;&gt;Node24</title>
<path fill="none" stroke="midnightblue" d="M2122.4,-57.93C2181.48,-51.04 2269.89,-39.09 2354.62,-20.1"/>
<polygon fill="midnightblue" stroke="midnightblue" points="2355.42,-23.51 2364.39,-17.87 2353.87,-16.68 2355.42,-23.51"/>
</g>
<!-- Node25 -->
<g id="node25" class="node">
<title>Node25</title>
<g id="a_node25"><a xlink:title=" ">
<polygon fill="none" stroke="#bfbfbf" points="2424.2,-0.5 2424.2,-19.5 2466.2,-19.5 2466.2,-0.5 2424.2,-0.5"/>
<text text-anchor="middle" x="2445.2" y="-7.5" font-family="Helvetica,sans-Serif" font-size="10.00">vector</text>
</a>
</g>
</g>
<!-- Node5&#45;&gt;Node25 -->
<g id="edge24" class="edge">
<title>Node5&#45;&gt;Node25</title>
<path fill="none" stroke="midnightblue" d="M2122.44,-59.97C2192.97,-53.94 2307.11,-42.04 2414.02,-19.94"/>
<polygon fill="midnightblue" stroke="midnightblue" points="2414.94,-23.32 2424.01,-17.84 2413.5,-16.47 2414.94,-23.32"/>
</g>
<!-- Node26 -->
<g id="node26" class="node">
<title>Node26</title>
<g id="a_node26"><a xlink:title=" ">
<polygon fill="none" stroke="#bfbfbf" points="2484.2,-0.5 2484.2,-19.5 2528.2,-19.5 2528.2,-0.5 2484.2,-0.5"/>
<text text-anchor="middle" x="2506.2" y="-7.5" font-family="Helvetica,sans-Serif" font-size="10.00">thread</text>
</a>
</g>
</g>
<!-- Node5&#45;&gt;Node26 -->
<g id="edge25" class="edge">
<title>Node5&#45;&gt;Node26</title>
<path fill="none" stroke="midnightblue" d="M2122.3,-61.46C2203.56,-56.35 2344.6,-44.89 2473.88,-19.94"/>
<polygon fill="midnightblue" stroke="midnightblue" points="2474.82,-23.32 2483.96,-17.96 2473.48,-16.45 2474.82,-23.32"/>
</g>
<!-- Node27 -->
<g id="node27" class="node">
<title>Node27</title>
<g id="a_node27"><a xlink:title=" ">
<polygon fill="none" stroke="#bfbfbf" points="2546.2,-0.5 2546.2,-19.5 2590.2,-19.5 2590.2,-0.5 2546.2,-0.5"/>
<text text-anchor="middle" x="2568.2" y="-7.5" font-family="Helvetica,sans-Serif" font-size="10.00">mutex</text>
</a>
</g>
</g>
<!-- Node5&#45;&gt;Node27 -->
<g id="edge26" class="edge">
<title>Node5&#45;&gt;Node27</title>
<path fill="none" stroke="midnightblue" d="M2122.42,-62.74C2214.08,-58.77 2383.38,-48.28 2535.95,-19.9"/>
<polygon fill="midnightblue" stroke="midnightblue" points="2536.8,-23.3 2545.97,-18 2535.49,-16.42 2536.8,-23.3"/>
</g>
<!-- Node28 -->
<g id="node28" class="node">
<title>Node28</title>
<g id="a_node28"><a xlink:title=" ">
<polygon fill="none" stroke="#bfbfbf" points="2608.7,-0.5 2608.7,-19.5 2651.7,-19.5 2651.7,-0.5 2608.7,-0.5"/>
<text text-anchor="middle" x="2630.2" y="-7.5" font-family="Helvetica,sans-Serif" font-size="10.00">queue</text>
</a>
</g>
</g>
<!-- Node5&#45;&gt;Node28 -->
<g id="edge27" class="edge">
<title>Node5&#45;&gt;Node28</title>
<path fill="none" stroke="midnightblue" d="M2122.34,-63.75C2223.71,-60.93 2421.83,-51.7 2598.65,-19.69"/>
<polygon fill="midnightblue" stroke="midnightblue" points="2599.45,-23.1 2608.65,-17.85 2598.18,-16.22 2599.45,-23.1"/>
</g>
<!-- Node29 -->
<g id="node29" class="node">
<title>Node29</title>
<g id="a_node29"><a xlink:title=" ">
<polygon fill="none" stroke="#bfbfbf" points="2669.7,-0.5 2669.7,-19.5 2704.7,-19.5 2704.7,-0.5 2669.7,-0.5"/>
<text text-anchor="middle" x="2687.2" y="-7.5" font-family="Helvetica,sans-Serif" font-size="10.00">map</text>
</a>
</g>
</g>
<!-- Node5&#45;&gt;Node29 -->
<g id="edge28" class="edge">
<title>Node5&#45;&gt;Node29</title>
<path fill="none" stroke="midnightblue" d="M2122.34,-65.65C2233.08,-65.5 2460.79,-59.99 2659.43,-19.88"/>
<polygon fill="midnightblue" stroke="midnightblue" points="2660.38,-23.26 2669.47,-17.82 2658.97,-16.4 2660.38,-23.26"/>
</g>
<!-- Node32&#45;&gt;Node4 -->
<g id="edge54" class="edge">
<title>Node32&#45;&gt;Node4</title>
<path fill="none" stroke="midnightblue" d="M1552.99,-459.41C1589.95,-444.83 1655.2,-411.53 1655.2,-358 1655.2,-358 1655.2,-358 1655.2,-244 1655.2,-211.55 1644.3,-175.47 1635.86,-152.41"/>
<polygon fill="midnightblue" stroke="midnightblue" points="1639.03,-150.9 1632.21,-142.8 1632.49,-153.39 1639.03,-150.9"/>
</g>
<!-- Node33 -->
<g id="node33" class="node">
<title>Node33</title>
<g id="a_node33"><a xlink:href="../../d5/d5b/a00695.html" target="_top" xlink:title=" ">
<polygon fill="none" stroke="black" points="1455.2,-403.5 1455.2,-422.5 1601.2,-422.5 1601.2,-403.5 1455.2,-403.5"/>
<text text-anchor="middle" x="1528.2" y="-410.5" font-family="Helvetica,sans-Serif" font-size="10.00">discordcoreapi/CoRoutine.hpp</text>
</a>
</g>
</g>
<!-- Node32&#45;&gt;Node33 -->
<g id="edge33" class="edge">
<title>Node32&#45;&gt;Node33</title>
<path fill="none" stroke="midnightblue" d="M1528.2,-459.08C1528.2,-452.01 1528.2,-441.86 1528.2,-432.99"/>
<polygon fill="midnightblue" stroke="midnightblue" points="1531.7,-432.75 1528.2,-422.75 1524.7,-432.75 1531.7,-432.75"/>
</g>
<!-- Node33&#45;&gt;Node4 -->
<g id="edge34" class="edge">
<title>Node33&#45;&gt;Node4</title>
<path fill="none" stroke="midnightblue" d="M1542.5,-403.4C1567.66,-387.06 1617.2,-348.92 1617.2,-302 1617.2,-302 1617.2,-302 1617.2,-244 1617.2,-212.4 1620.59,-176.08 1623.21,-152.74"/>
<polygon fill="midnightblue" stroke="midnightblue" points="1626.7,-153.04 1624.38,-142.7 1619.74,-152.23 1626.7,-153.04"/>
</g>
<!-- Node33&#45;&gt;Node34 -->
<g id="edge35" class="edge">
<title>Node33&#45;&gt;Node34</title>
<path fill="none" stroke="midnightblue" d="M1523.74,-403.08C1520.04,-395.69 1514.68,-384.95 1510.1,-375.81"/>
<polygon fill="midnightblue" stroke="midnightblue" points="1513.18,-374.13 1505.57,-366.75 1506.92,-377.26 1513.18,-374.13"/>
</g>
<!-- Node34&#45;&gt;Node4 -->
<g id="edge36" class="edge">
<title>Node34&#45;&gt;Node4</title>
<path fill="none" stroke="midnightblue" d="M1517.42,-347.35C1530.68,-339.5 1549.02,-326.76 1560.2,-311 1595.9,-260.68 1580.82,-236.5 1603.2,-179 1606.66,-170.1 1610.9,-160.51 1614.78,-152.11"/>
<polygon fill="midnightblue" stroke="midnightblue" points="1618.02,-153.44 1619.12,-142.9 1611.69,-150.46 1618.02,-153.44"/>
</g>
<!-- Node35 -->
<g id="node35" class="node">
<title>Node35</title>
<g id="a_node35"><a xlink:href="../../db/d7c/a00722.html" target="_top" xlink:title=" ">
<polygon fill="none" stroke="black" points="1425.7,-291.5 1425.7,-310.5 1550.7,-310.5 1550.7,-291.5 1425.7,-291.5"/>
<text text-anchor="middle" x="1488.2" y="-298.5" font-family="Helvetica,sans-Serif" font-size="10.00">discordcoreapi/Https.hpp</text>
</a>
</g>
</g>
<!-- Node34&#45;&gt;Node35 -->
<g id="edge37" class="edge">
<title>Node34&#45;&gt;Node35</title>
<path fill="none" stroke="midnightblue" d="M1499.05,-347.08C1497.33,-339.93 1494.85,-329.64 1492.7,-320.69"/>
<polygon fill="midnightblue" stroke="midnightblue" points="1496.05,-319.65 1490.31,-310.75 1489.24,-321.29 1496.05,-319.65"/>
</g>
<!-- Node35&#45;&gt;Node17 -->
<g id="edge53" class="edge">
<title>Node35&#45;&gt;Node17</title>
<path fill="none" stroke="midnightblue" d="M1495.16,-291.31C1511.1,-270.28 1547.02,-215.69 1522.2,-179 1477.88,-113.48 1242.95,-46.83 1145.55,-21.57"/>
<polygon fill="midnightblue" stroke="midnightblue" points="1146.3,-18.15 1135.74,-19.05 1144.55,-24.93 1146.3,-18.15"/>
</g>
<!-- Node35&#45;&gt;Node36 -->
<g id="edge38" class="edge">
<title>Node35&#45;&gt;Node36</title>
<path fill="none" stroke="midnightblue" d="M1425.49,-292.49C1345.32,-282.89 1206.37,-266.26 1118.24,-255.7"/>
<polygon fill="midnightblue" stroke="midnightblue" points="1118.63,-252.23 1108.29,-254.51 1117.8,-259.18 1118.63,-252.23"/>
</g>
<!-- Node36&#45;&gt;Node3 -->
<g id="edge50" class="edge">
<title>Node36&#45;&gt;Node3</title>
<path fill="none" stroke="midnightblue" d="M962.11,-237.79C863.86,-229.58 686.04,-214.46 523.53,-199.11"/>
<polygon fill="midnightblue" stroke="midnightblue" points="523.63,-195.61 513.35,-198.15 522.97,-202.58 523.63,-195.61"/>
</g>
<!-- Node36&#45;&gt;Node4 -->
<g id="edge49" class="edge">
<title>Node36&#45;&gt;Node4</title>
<path fill="none" stroke="midnightblue" d="M1112.25,-243.09C1191.04,-240.33 1317.73,-230.76 1422.2,-199 1440.84,-193.33 1443.15,-186.32 1461.2,-179 1493.76,-165.79 1531.13,-154.08 1562.06,-145.27"/>
<polygon fill="midnightblue" stroke="midnightblue" points="1563.18,-148.59 1571.86,-142.52 1561.29,-141.86 1563.18,-148.59"/>
</g>
<!-- Node37 -->
<g id="node37" class="node">
<title>Node37</title>
<g id="a_node37"><a xlink:title=" ">
<polygon fill="none" stroke="#bfbfbf" points="1469.7,-179.5 1469.7,-198.5 1512.7,-198.5 1512.7,-179.5 1469.7,-179.5"/>
<text text-anchor="middle" x="1491.2" y="-186.5" font-family="Helvetica,sans-Serif" font-size="10.00">fcntl.h</text>
</a>
</g>
</g>
<!-- Node36&#45;&gt;Node37 -->
<g id="edge39" class="edge">
<title>Node36&#45;&gt;Node37</title>
<path fill="none" stroke="midnightblue" d="M1112.39,-239.04C1196.41,-232.77 1336.27,-220.16 1455.2,-199 1456.67,-198.74 1458.16,-198.45 1459.67,-198.14"/>
<polygon fill="midnightblue" stroke="midnightblue" points="1460.61,-201.52 1469.6,-195.91 1459.08,-194.69 1460.61,-201.52"/>
</g>
<!-- Node38 -->
<g id="node38" class="node">
<title>Node38</title>
<g id="a_node38"><a xlink:title=" ">
<polygon fill="none" stroke="#bfbfbf" points="531.7,-179.5 531.7,-198.5 580.7,-198.5 580.7,-179.5 531.7,-179.5"/>
<text text-anchor="middle" x="556.2" y="-186.5" font-family="Helvetica,sans-Serif" font-size="10.00">netdb.h</text>
</a>
</g>
</g>
<!-- Node36&#45;&gt;Node38 -->
<g id="edge40" class="edge">
<title>Node36&#45;&gt;Node38</title>
<path fill="none" stroke="midnightblue" d="M962.15,-240.28C874.91,-235.1 726.56,-223.64 591.11,-199.1"/>
<polygon fill="midnightblue" stroke="midnightblue" points="591.43,-195.6 580.96,-197.23 590.16,-202.48 591.43,-195.6"/>
</g>
<!-- Node39 -->
<g id="node39" class="node">
<title>Node39</title>
<g id="a_node39"><a xlink:title=" ">
<polygon fill="none" stroke="#bfbfbf" points="598.7,-179.5 598.7,-198.5 663.7,-198.5 663.7,-179.5 598.7,-179.5"/>
<text text-anchor="middle" x="631.2" y="-186.5" font-family="Helvetica,sans-Serif" font-size="10.00">netinet/in.h</text>
</a>
</g>
</g>
<!-- Node36&#45;&gt;Node39 -->
<g id="edge41" class="edge">
<title>Node36&#45;&gt;Node39</title>
<path fill="none" stroke="midnightblue" d="M962.1,-236.81C890.41,-229.48 779.17,-216.88 673.98,-199.18"/>
<polygon fill="midnightblue" stroke="midnightblue" points="674.26,-195.68 663.82,-197.45 673.09,-202.58 674.26,-195.68"/>
</g>
<!-- Node40 -->
<g id="node40" class="node">
<title>Node40</title>
<g id="a_node40"><a xlink:title=" ">
<polygon fill="none" stroke="#bfbfbf" points="681.7,-179.5 681.7,-198.5 752.7,-198.5 752.7,-179.5 681.7,-179.5"/>
<text text-anchor="middle" x="717.2" y="-186.5" font-family="Helvetica,sans-Serif" font-size="10.00">netinet/tcp.h</text>
</a>
</g>
</g>
<!-- Node36&#45;&gt;Node40 -->
<g id="edge42" class="edge">
<title>Node36&#45;&gt;Node40</title>
<path fill="none" stroke="midnightblue" d="M981.53,-235.48C928.08,-227.17 844.82,-213.87 763.01,-199.09"/>
<polygon fill="midnightblue" stroke="midnightblue" points="763.5,-195.63 753.04,-197.29 762.25,-202.52 763.5,-195.63"/>
</g>
<!-- Node41 -->
<g id="node41" class="node">
<title>Node41</title>
<g id="a_node41"><a xlink:title=" ">
<polygon fill="none" stroke="#bfbfbf" points="770.7,-179.5 770.7,-198.5 819.7,-198.5 819.7,-179.5 770.7,-179.5"/>
<text text-anchor="middle" x="795.2" y="-186.5" font-family="Helvetica,sans-Serif" font-size="10.00">stdint.h</text>
</a>
</g>
</g>
<!-- Node36&#45;&gt;Node41 -->
<g id="edge43" class="edge">
<title>Node36&#45;&gt;Node41</title>
<path fill="none" stroke="midnightblue" d="M994.84,-235.43C954.86,-227.2 893,-214.14 830.14,-199.14"/>
<polygon fill="midnightblue" stroke="midnightblue" points="830.59,-195.65 820.05,-196.72 828.95,-202.46 830.59,-195.65"/>
</g>
<!-- Node42 -->
<g id="node42" class="node">
<title>Node42</title>
<g id="a_node42"><a xlink:title=" ">
<polygon fill="none" stroke="#bfbfbf" points="838.2,-179.5 838.2,-198.5 902.2,-198.5 902.2,-179.5 838.2,-179.5"/>
<text text-anchor="middle" x="870.2" y="-186.5" font-family="Helvetica,sans-Serif" font-size="10.00">sys/epoll.h</text>
</a>
</g>
</g>
<!-- Node36&#45;&gt;Node42 -->
<g id="edge44" class="edge">
<title>Node36&#45;&gt;Node42</title>
<path fill="none" stroke="midnightblue" d="M1010.74,-235.44C982.52,-226.32 937.66,-211.81 906.23,-201.65"/>
<polygon fill="midnightblue" stroke="midnightblue" points="907.13,-198.26 896.54,-198.52 904.98,-204.92 907.13,-198.26"/>
</g>
<!-- Node43 -->
<g id="node43" class="node">
<title>Node43</title>
<g id="a_node43"><a xlink:title=" ">
<polygon fill="none" stroke="#bfbfbf" points="920.2,-179.5 920.2,-198.5 982.2,-198.5 982.2,-179.5 920.2,-179.5"/>
<text text-anchor="middle" x="951.2" y="-186.5" font-family="Helvetica,sans-Serif" font-size="10.00">arpa/inet.h</text>
</a>
</g>
</g>
<!-- Node36&#45;&gt;Node43 -->
<g id="edge45" class="edge">
<title>Node36&#45;&gt;Node43</title>
<path fill="none" stroke="midnightblue" d="M1023.38,-235.32C1009.97,-226.9 989.38,-213.97 973.61,-204.07"/>
<polygon fill="midnightblue" stroke="midnightblue" points="975.31,-201.01 964.98,-198.65 971.59,-206.94 975.31,-201.01"/>
</g>
<!-- Node44 -->
<g id="node44" class="node">
<title>Node44</title>
<g id="a_node44"><a xlink:title=" ">
<polygon fill="none" stroke="#bfbfbf" points="1000.7,-179.5 1000.7,-198.5 1073.7,-198.5 1073.7,-179.5 1000.7,-179.5"/>
<text text-anchor="middle" x="1037.2" y="-186.5" font-family="Helvetica,sans-Serif" font-size="10.00">sys/socket.h</text>
</a>
</g>
</g>
<!-- Node36&#45;&gt;Node44 -->
<g id="edge46" class="edge">
<title>Node36&#45;&gt;Node44</title>
<path fill="none" stroke="midnightblue" d="M1037.2,-235.08C1037.2,-228.01 1037.2,-217.86 1037.2,-208.99"/>
<polygon fill="midnightblue" stroke="midnightblue" points="1040.7,-208.75 1037.2,-198.75 1033.7,-208.75 1040.7,-208.75"/>
</g>
<!-- Node45 -->
<g id="node45" class="node">
<title>Node45</title>
<g id="a_node45"><a xlink:title=" ">
<polygon fill="none" stroke="#bfbfbf" points="1092.2,-179.5 1092.2,-198.5 1160.2,-198.5 1160.2,-179.5 1092.2,-179.5"/>
<text text-anchor="middle" x="1126.2" y="-186.5" font-family="Helvetica,sans-Serif" font-size="10.00">sys/types.h</text>
</a>
</g>
</g>
<!-- Node36&#45;&gt;Node45 -->
<g id="edge47" class="edge">
<title>Node36&#45;&gt;Node45</title>
<path fill="none" stroke="midnightblue" d="M1051.5,-235.32C1065.38,-226.9 1086.69,-213.97 1103,-204.07"/>
<polygon fill="midnightblue" stroke="midnightblue" points="1105.2,-206.83 1111.94,-198.65 1101.57,-200.85 1105.2,-206.83"/>
</g>
<!-- Node46 -->
<g id="node46" class="node">
<title>Node46</title>
<g id="a_node46"><a xlink:title=" ">
<polygon fill="none" stroke="#bfbfbf" points="1178.7,-179.5 1178.7,-198.5 1229.7,-198.5 1229.7,-179.5 1178.7,-179.5"/>
<text text-anchor="middle" x="1204.2" y="-186.5" font-family="Helvetica,sans-Serif" font-size="10.00">unistd.h</text>
</a>
</g>
</g>
<!-- Node36&#45;&gt;Node46 -->
<g id="edge48" class="edge">
<title>Node36&#45;&gt;Node46</title>
<path fill="none" stroke="midnightblue" d="M1063.66,-235.44C1092.13,-226.24 1137.53,-211.56 1169,-201.38"/>
<polygon fill="midnightblue" stroke="midnightblue" points="1170.24,-204.66 1178.68,-198.25 1168.09,-198 1170.24,-204.66"/>
</g>
<!-- Node47 -->
<g id="node47" class="node">
<title>Node47</title>
<g id="a_node47"><a xlink:title=" ">
<polygon fill="none" stroke="#bfbfbf" points="1247.7,-179.5 1247.7,-198.5 1320.7,-198.5 1320.7,-179.5 1247.7,-179.5"/>
<text text-anchor="middle" x="1284.2" y="-186.5" font-family="Helvetica,sans-Serif" font-size="10.00">openssl/err.h</text>
</a>
</g>
</g>
<!-- Node36&#45;&gt;Node47 -->
<g id="edge51" class="edge">
<title>Node36&#45;&gt;Node47</title>
<path fill="none" stroke="midnightblue" d="M1076.34,-235.44C1120.19,-225.86 1191.21,-210.33 1237.82,-200.14"/>
<polygon fill="midnightblue" stroke="midnightblue" points="1238.64,-203.54 1247.66,-197.99 1237.14,-196.7 1238.64,-203.54"/>
</g>
<!-- Node48 -->
<g id="node48" class="node">
<title>Node48</title>
<g id="a_node48"><a xlink:title=" ">
<polygon fill="none" stroke="#bfbfbf" points="1339.2,-179.5 1339.2,-198.5 1413.2,-198.5 1413.2,-179.5 1339.2,-179.5"/>
<text text-anchor="middle" x="1376.2" y="-186.5" font-family="Helvetica,sans-Serif" font-size="10.00">openssl/ssl.h</text>
</a>
</g>
</g>
<!-- Node36&#45;&gt;Node48 -->
<g id="edge52" class="edge">
<title>Node36&#45;&gt;Node48</title>
<path fill="none" stroke="midnightblue" d="M1097.36,-235.49C1154.47,-227.25 1242.97,-214.05 1329.12,-199.13"/>
<polygon fill="midnightblue" stroke="midnightblue" points="1329.82,-202.56 1339.07,-197.4 1328.61,-195.67 1329.82,-202.56"/>
</g>
<!-- Node49&#45;&gt;Node4 -->
<g id="edge56" class="edge">
<title>Node49&#45;&gt;Node4</title>
<path fill="none" stroke="midnightblue" d="M1751.02,-403.39C1742.56,-385.16 1724.2,-341.09 1724.2,-302 1724.2,-302 1724.2,-302 1724.2,-244 1724.2,-202.65 1687.23,-168.52 1658.7,-148.35"/>
<polygon fill="midnightblue" stroke="midnightblue" points="1660.41,-145.27 1650.17,-142.54 1656.47,-151.06 1660.41,-145.27"/>
</g>
</g>
</svg>
