<?xml version="1.0" encoding="UTF-8" standalone="no"?>
<!DOCTYPE svg PUBLIC "-//W3C//DTD SVG 1.1//EN"
 "http://www.w3.org/Graphics/SVG/1.1/DTD/svg11.dtd">
<!-- Generated by graphviz version 2.43.0 (0)
 -->
<!-- Title: WebSocketEntities.hpp Pages: 1 -->
<svg width="2255pt" height="543pt"
 viewBox="0.00 0.00 2255.19 543.00" xmlns="http://www.w3.org/2000/svg" xmlns:xlink="http://www.w3.org/1999/xlink">
<g id="graph0" class="graph" transform="scale(1 1) rotate(0) translate(4 539)">
<title>WebSocketEntities.hpp</title>
<!-- Node1 -->
<g id="node1" class="node">
<title>Node1</title>
<g id="a_node1"><a xlink:title=" ">
<polygon fill="#bfbfbf" stroke="black" points="1086.19,-515.5 1086.19,-534.5 1214.19,-534.5 1214.19,-515.5 1086.19,-515.5"/>
<text text-anchor="middle" x="1150.19" y="-522.5" font-family="Helvetica,sans-Serif" font-size="10.00">WebSocketEntities.hpp</text>
</a>
</g>
</g>
<!-- Node2 -->
<g id="node2" class="node">
<title>Node2</title>
<g id="a_node2"><a xlink:href="../../d4/deb/a00710.html" target="_top" xlink:title=" ">
<polygon fill="none" stroke="black" points="1400.69,-112.5 1400.69,-142.5 1545.69,-142.5 1545.69,-112.5 1400.69,-112.5"/>
<text text-anchor="start" x="1408.69" y="-130.5" font-family="Helvetica,sans-Serif" font-size="10.00">discordcoreapi/Foundation</text>
<text text-anchor="middle" x="1473.19" y="-119.5" font-family="Helvetica,sans-Serif" font-size="10.00">Entities.hpp</text>
</a>
</g>
</g>
<!-- Node1&#45;&gt;Node2 -->
<g id="edge1" class="edge">
<title>Node1&#45;&gt;Node2</title>
<path fill="none" stroke="midnightblue" d="M1085.95,-524.64C843.98,-526.22 1.19,-523.84 1.19,-414 1.19,-414 1.19,-414 1.19,-244 1.19,-213.9 -3.57,-197.47 20.19,-179 74.48,-136.81 1089.19,-129.86 1389.89,-128.72"/>
<polygon fill="midnightblue" stroke="midnightblue" points="1390.3,-132.22 1400.29,-128.68 1390.27,-125.22 1390.3,-132.22"/>
</g>
<!-- Node27 -->
<g id="node27" class="node">
<title>Node27</title>
<g id="a_node27"><a xlink:href="../../d4/d9b/a00680.html" target="_top" xlink:title=" ">
<polygon fill="none" stroke="black" points="275.69,-235.5 275.69,-254.5 454.69,-254.5 454.69,-235.5 275.69,-235.5"/>
<text text-anchor="middle" x="365.19" y="-242.5" font-family="Helvetica,sans-Serif" font-size="10.00">discordcoreapi/AudioDecoder.hpp</text>
</a>
</g>
</g>
<!-- Node1&#45;&gt;Node27 -->
<g id="edge26" class="edge">
<title>Node1&#45;&gt;Node27</title>
<path fill="none" stroke="midnightblue" d="M1085.95,-519.39C926.46,-507.08 525.19,-470.5 525.19,-414 525.19,-414 525.19,-414 525.19,-356 525.19,-301.24 460.77,-271.68 413.68,-257.4"/>
<polygon fill="midnightblue" stroke="midnightblue" points="414.5,-253.99 403.92,-254.57 412.56,-260.71 414.5,-253.99"/>
</g>
<!-- Node28 -->
<g id="node28" class="node">
<title>Node28</title>
<g id="a_node28"><a xlink:href="../../d4/d6a/a00704.html" target="_top" xlink:title=" ">
<polygon fill="none" stroke="black" points="393.19,-179.5 393.19,-198.5 569.19,-198.5 569.19,-179.5 393.19,-179.5"/>
<text text-anchor="middle" x="481.19" y="-186.5" font-family="Helvetica,sans-Serif" font-size="10.00">discordcoreapi/EventEntities.hpp</text>
</a>
</g>
</g>
<!-- Node1&#45;&gt;Node28 -->
<g id="edge57" class="edge">
<title>Node1&#45;&gt;Node28</title>
<path fill="none" stroke="midnightblue" d="M1106.07,-515.46C1029.76,-499.41 881.19,-462 881.19,-414 881.19,-414 881.19,-414 881.19,-300 881.19,-265.21 653.33,-220.27 541.56,-200.33"/>
<polygon fill="midnightblue" stroke="midnightblue" points="541.9,-196.83 531.45,-198.53 540.68,-203.72 541.9,-196.83"/>
</g>
<!-- Node31 -->
<g id="node31" class="node">
<title>Node31</title>
<g id="a_node31"><a xlink:href="../../d0/db6/a00692.html" target="_top" xlink:title=" ">
<polygon fill="none" stroke="black" points="1413.69,-459.5 1413.69,-478.5 1622.69,-478.5 1622.69,-459.5 1413.69,-459.5"/>
<text text-anchor="middle" x="1518.19" y="-466.5" font-family="Helvetica,sans-Serif" font-size="10.00">discordcoreapi/CommandController.hpp</text>
</a>
</g>
</g>
<!-- Node1&#45;&gt;Node31 -->
<g id="edge32" class="edge">
<title>Node1&#45;&gt;Node31</title>
<path fill="none" stroke="midnightblue" d="M1208.5,-515.44C1274.18,-505.81 1380.78,-490.16 1450.19,-479.98"/>
<polygon fill="midnightblue" stroke="midnightblue" points="1450.77,-483.43 1460.15,-478.52 1449.75,-476.51 1450.77,-483.43"/>
</g>
<!-- Node33 -->
<g id="node33" class="node">
<title>Node33</title>
<g id="a_node33"><a xlink:href="../../d3/d4f/a00761.html" target="_top" xlink:title=" ">
<polygon fill="none" stroke="black" points="1402.69,-347.5 1402.69,-366.5 1569.69,-366.5 1569.69,-347.5 1402.69,-347.5"/>
<text text-anchor="middle" x="1486.19" y="-354.5" font-family="Helvetica,sans-Serif" font-size="10.00">discordcoreapi/ThreadPool.hpp</text>
</a>
</g>
</g>
<!-- Node1&#45;&gt;Node33 -->
<g id="edge59" class="edge">
<title>Node1&#45;&gt;Node33</title>
<path fill="none" stroke="midnightblue" d="M1167.78,-515.31C1223.01,-488.02 1393.19,-403.95 1459.43,-371.22"/>
<polygon fill="midnightblue" stroke="midnightblue" points="1461.36,-374.17 1468.77,-366.61 1458.26,-367.9 1461.36,-374.17"/>
</g>
<!-- Node35 -->
<g id="node35" class="node">
<title>Node35</title>
<g id="a_node35"><a xlink:href="../../d5/de8/a00749.html" target="_top" xlink:title=" ">
<polygon fill="none" stroke="black" points="1068.69,-235.5 1068.69,-254.5 1231.69,-254.5 1231.69,-235.5 1068.69,-235.5"/>
<text text-anchor="middle" x="1150.19" y="-242.5" font-family="Helvetica,sans-Serif" font-size="10.00">discordcoreapi/SSLClients.hpp</text>
</a>
</g>
</g>
<!-- Node1&#45;&gt;Node35 -->
<g id="edge58" class="edge">
<title>Node1&#45;&gt;Node35</title>
<path fill="none" stroke="midnightblue" d="M1150.19,-515.44C1150.19,-496.94 1150.19,-451.81 1150.19,-414 1150.19,-414 1150.19,-414 1150.19,-356 1150.19,-323.95 1150.19,-286.64 1150.19,-264.75"/>
<polygon fill="midnightblue" stroke="midnightblue" points="1153.69,-264.56 1150.19,-254.56 1146.69,-264.56 1153.69,-264.56"/>
</g>
<!-- Node49 -->
<g id="node49" class="node">
<title>Node49</title>
<g id="a_node49"><a xlink:href="../../dd/d57/a00701.html" target="_top" xlink:title=" ">
<polygon fill="none" stroke="black" points="1763.69,-403.5 1763.69,-422.5 1918.69,-422.5 1918.69,-403.5 1763.69,-403.5"/>
<text text-anchor="middle" x="1841.19" y="-410.5" font-family="Helvetica,sans-Serif" font-size="10.00">discordcoreapi/ErlPacker.hpp</text>
</a>
</g>
</g>
<!-- Node1&#45;&gt;Node49 -->
<g id="edge55" class="edge">
<title>Node1&#45;&gt;Node49</title>
<path fill="none" stroke="midnightblue" d="M1214.21,-522.21C1306.96,-518.68 1483.75,-508.39 1631.19,-479 1695.72,-466.14 1768.57,-441.12 1809.27,-426.16"/>
<polygon fill="midnightblue" stroke="midnightblue" points="1810.75,-429.34 1818.9,-422.58 1808.31,-422.78 1810.75,-429.34"/>
</g>
<!-- Node3 -->
<g id="node3" class="node">
<title>Node3</title>
<g id="a_node3"><a xlink:href="../../d5/dae/a00767.html" target="_top" xlink:title=" ">
<polygon fill="none" stroke="black" points="1398.19,-56.5 1398.19,-75.5 1548.19,-75.5 1548.19,-56.5 1398.19,-56.5"/>
<text text-anchor="middle" x="1473.19" y="-63.5" font-family="Helvetica,sans-Serif" font-size="10.00">discordcoreapi/Utilities.hpp</text>
</a>
</g>
</g>
<!-- Node2&#45;&gt;Node3 -->
<g id="edge2" class="edge">
<title>Node2&#45;&gt;Node3</title>
<path fill="none" stroke="midnightblue" d="M1473.19,-112.4C1473.19,-104.47 1473.19,-94.46 1473.19,-85.86"/>
<polygon fill="midnightblue" stroke="midnightblue" points="1476.69,-85.66 1473.19,-75.66 1469.69,-85.66 1476.69,-85.66"/>
</g>
<!-- Node4 -->
<g id="node4" class="node">
<title>Node4</title>
<g id="a_node4"><a xlink:title=" ">
<polygon fill="none" stroke="#bfbfbf" points="393.69,-0.5 393.69,-19.5 456.69,-19.5 456.69,-0.5 393.69,-0.5"/>
<text text-anchor="middle" x="425.19" y="-7.5" font-family="Helvetica,sans-Serif" font-size="10.00">pthread.h</text>
</a>
</g>
</g>
<!-- Node3&#45;&gt;Node4 -->
<g id="edge3" class="edge">
<title>Node3&#45;&gt;Node4</title>
<path fill="none" stroke="midnightblue" d="M1397.84,-63.31C1199.44,-58.59 664.9,-44.11 466.9,-19.8"/>
<polygon fill="midnightblue" stroke="midnightblue" points="467.24,-16.31 456.88,-18.52 466.36,-23.26 467.24,-16.31"/>
</g>
<!-- Node5 -->
<g id="node5" class="node">
<title>Node5</title>
<g id="a_node5"><a xlink:title=" ">
<polygon fill="none" stroke="#bfbfbf" points="475.19,-0.5 475.19,-19.5 543.19,-19.5 543.19,-0.5 475.19,-0.5"/>
<text text-anchor="middle" x="509.19" y="-7.5" font-family="Helvetica,sans-Serif" font-size="10.00">sys/time.h</text>
</a>
</g>
</g>
<!-- Node3&#45;&gt;Node5 -->
<g id="edge4" class="edge">
<title>Node3&#45;&gt;Node5</title>
<path fill="none" stroke="midnightblue" d="M1397.93,-65.32C1242.03,-65.13 872.46,-60.16 553.74,-19.98"/>
<polygon fill="midnightblue" stroke="midnightblue" points="553.74,-16.45 543.38,-18.66 552.85,-23.4 553.74,-16.45"/>
</g>
<!-- Node6 -->
<g id="node6" class="node">
<title>Node6</title>
<g id="a_node6"><a xlink:title=" ">
<polygon fill="none" stroke="#bfbfbf" points="561.19,-0.5 561.19,-19.5 609.19,-19.5 609.19,-0.5 561.19,-0.5"/>
<text text-anchor="middle" x="585.19" y="-7.5" font-family="Helvetica,sans-Serif" font-size="10.00">time.h</text>
</a>
</g>
</g>
<!-- Node3&#45;&gt;Node6 -->
<g id="edge5" class="edge">
<title>Node3&#45;&gt;Node6</title>
<path fill="none" stroke="midnightblue" d="M1397.91,-63.1C1221.74,-58.33 785.62,-44.55 619.3,-19.76"/>
<polygon fill="midnightblue" stroke="midnightblue" points="619.63,-16.27 609.21,-18.19 618.55,-23.19 619.63,-16.27"/>
</g>
<!-- Node7 -->
<g id="node7" class="node">
<title>Node7</title>
<g id="a_node7"><a xlink:title=" ">
<polygon fill="none" stroke="#bfbfbf" points="627.19,-0.5 627.19,-19.5 671.19,-19.5 671.19,-0.5 627.19,-0.5"/>
<text text-anchor="middle" x="649.19" y="-7.5" font-family="Helvetica,sans-Serif" font-size="10.00">ctime</text>
</a>
</g>
</g>
<!-- Node3&#45;&gt;Node7 -->
<g id="edge6" class="edge">
<title>Node3&#45;&gt;Node7</title>
<path fill="none" stroke="midnightblue" d="M1398.02,-62.9C1231.57,-57.91 835.13,-44.04 681.59,-19.79"/>
<polygon fill="midnightblue" stroke="midnightblue" points="681.84,-16.28 671.4,-18.1 680.7,-23.19 681.84,-16.28"/>
</g>
<!-- Node8 -->
<g id="node8" class="node">
<title>Node8</title>
<g id="a_node8"><a xlink:title=" ">
<polygon fill="none" stroke="#bfbfbf" points="689.69,-0.5 689.69,-19.5 796.69,-19.5 796.69,-0.5 689.69,-0.5"/>
<text text-anchor="middle" x="743.19" y="-7.5" font-family="Helvetica,sans-Serif" font-size="10.00">condition_variable</text>
</a>
</g>
</g>
<!-- Node3&#45;&gt;Node8 -->
<g id="edge7" class="edge">
<title>Node3&#45;&gt;Node8</title>
<path fill="none" stroke="midnightblue" d="M1398.01,-61.76C1276.21,-56.1 1027.97,-42.89 806.95,-19.99"/>
<polygon fill="midnightblue" stroke="midnightblue" points="807.08,-16.49 796.77,-18.93 806.36,-23.45 807.08,-16.49"/>
</g>
<!-- Node9 -->
<g id="node9" class="node">
<title>Node9</title>
<g id="a_node9"><a xlink:title=" ">
<polygon fill="none" stroke="#bfbfbf" points="815.19,-0.5 815.19,-19.5 925.19,-19.5 925.19,-0.5 815.19,-0.5"/>
<text text-anchor="middle" x="870.19" y="-7.5" font-family="Helvetica,sans-Serif" font-size="10.00">nlohmann/json.hpp</text>
</a>
</g>
</g>
<!-- Node3&#45;&gt;Node9 -->
<g id="edge8" class="edge">
<title>Node3&#45;&gt;Node9</title>
<path fill="none" stroke="midnightblue" d="M1398.07,-60.07C1295.79,-53.06 1106.74,-39.04 935.29,-20.06"/>
<polygon fill="midnightblue" stroke="midnightblue" points="935.65,-16.58 925.32,-18.95 934.88,-23.54 935.65,-16.58"/>
</g>
<!-- Node10 -->
<g id="node10" class="node">
<title>Node10</title>
<g id="a_node10"><a xlink:title=" ">
<polygon fill="none" stroke="#bfbfbf" points="943.69,-0.5 943.69,-19.5 1036.69,-19.5 1036.69,-0.5 943.69,-0.5"/>
<text text-anchor="middle" x="990.19" y="-7.5" font-family="Helvetica,sans-Serif" font-size="10.00">source_location</text>
</a>
</g>
</g>
<!-- Node3&#45;&gt;Node10 -->
<g id="edge9" class="edge">
<title>Node3&#45;&gt;Node10</title>
<path fill="none" stroke="midnightblue" d="M1398.04,-58.42C1314.62,-50.81 1175.76,-37.27 1047.01,-20.18"/>
<polygon fill="midnightblue" stroke="midnightblue" points="1047.35,-16.7 1036.97,-18.84 1046.42,-23.64 1047.35,-16.7"/>
</g>
<!-- Node11 -->
<g id="node11" class="node">
<title>Node11</title>
<g id="a_node11"><a xlink:title=" ">
<polygon fill="none" stroke="#bfbfbf" points="1054.69,-0.5 1054.69,-19.5 1147.69,-19.5 1147.69,-0.5 1054.69,-0.5"/>
<text text-anchor="middle" x="1101.19" y="-7.5" font-family="Helvetica,sans-Serif" font-size="10.00">unordered_map</text>
</a>
</g>
</g>
<!-- Node3&#45;&gt;Node11 -->
<g id="edge10" class="edge">
<title>Node3&#45;&gt;Node11</title>
<path fill="none" stroke="midnightblue" d="M1411.08,-56.49C1349.51,-47.98 1252.2,-34.32 1157.93,-20.09"/>
<polygon fill="midnightblue" stroke="midnightblue" points="1158.34,-16.61 1147.93,-18.58 1157.3,-23.53 1158.34,-16.61"/>
</g>
<!-- Node12 -->
<g id="node12" class="node">
<title>Node12</title>
<g id="a_node12"><a xlink:title=" ">
<polygon fill="none" stroke="#bfbfbf" points="1166.19,-0.5 1166.19,-19.5 1252.19,-19.5 1252.19,-0.5 1166.19,-0.5"/>
<text text-anchor="middle" x="1209.19" y="-7.5" font-family="Helvetica,sans-Serif" font-size="10.00">shared_mutex</text>
</a>
</g>
</g>
<!-- Node3&#45;&gt;Node12 -->
<g id="edge11" class="edge">
<title>Node3&#45;&gt;Node12</title>
<path fill="none" stroke="midnightblue" d="M1431.36,-56.44C1385.11,-46.98 1310.58,-31.74 1260.76,-21.55"/>
<polygon fill="midnightblue" stroke="midnightblue" points="1261.33,-18.09 1250.83,-19.52 1259.92,-24.95 1261.33,-18.09"/>
</g>
<!-- Node13 -->
<g id="node13" class="node">
<title>Node13</title>
<g id="a_node13"><a xlink:title=" ">
<polygon fill="none" stroke="#bfbfbf" points="1270.69,-0.5 1270.69,-19.5 1335.69,-19.5 1335.69,-0.5 1270.69,-0.5"/>
<text text-anchor="middle" x="1303.19" y="-7.5" font-family="Helvetica,sans-Serif" font-size="10.00">functional</text>
</a>
</g>
</g>
<!-- Node3&#45;&gt;Node13 -->
<g id="edge12" class="edge">
<title>Node3&#45;&gt;Node13</title>
<path fill="none" stroke="midnightblue" d="M1446.25,-56.44C1417.53,-47.32 1371.86,-32.81 1339.87,-22.65"/>
<polygon fill="midnightblue" stroke="midnightblue" points="1340.59,-19.21 1330,-19.52 1338.47,-25.88 1340.59,-19.21"/>
</g>
<!-- Node14 -->
<g id="node14" class="node">
<title>Node14</title>
<g id="a_node14"><a xlink:title=" ">
<polygon fill="none" stroke="#bfbfbf" points="1353.69,-0.5 1353.69,-19.5 1424.69,-19.5 1424.69,-0.5 1353.69,-0.5"/>
<text text-anchor="middle" x="1389.19" y="-7.5" font-family="Helvetica,sans-Serif" font-size="10.00">semaphore</text>
</a>
</g>
</g>
<!-- Node3&#45;&gt;Node14 -->
<g id="edge13" class="edge">
<title>Node3&#45;&gt;Node14</title>
<path fill="none" stroke="midnightblue" d="M1459.7,-56.32C1446.59,-47.9 1426.48,-34.97 1411.08,-25.07"/>
<polygon fill="midnightblue" stroke="midnightblue" points="1412.96,-22.12 1402.65,-19.65 1409.17,-28.01 1412.96,-22.12"/>
</g>
<!-- Node15 -->
<g id="node15" class="node">
<title>Node15</title>
<g id="a_node15"><a xlink:title=" ">
<polygon fill="none" stroke="#bfbfbf" points="1443.19,-0.5 1443.19,-19.5 1503.19,-19.5 1503.19,-0.5 1443.19,-0.5"/>
<text text-anchor="middle" x="1473.19" y="-7.5" font-family="Helvetica,sans-Serif" font-size="10.00">concepts</text>
</a>
</g>
</g>
<!-- Node3&#45;&gt;Node15 -->
<g id="edge14" class="edge">
<title>Node3&#45;&gt;Node15</title>
<path fill="none" stroke="midnightblue" d="M1473.19,-56.08C1473.19,-49.01 1473.19,-38.86 1473.19,-29.99"/>
<polygon fill="midnightblue" stroke="midnightblue" points="1476.69,-29.75 1473.19,-19.75 1469.69,-29.75 1476.69,-29.75"/>
</g>
<!-- Node16 -->
<g id="node16" class="node">
<title>Node16</title>
<g id="a_node16"><a xlink:title=" ">
<polygon fill="none" stroke="#bfbfbf" points="1521.19,-0.5 1521.19,-19.5 1581.19,-19.5 1581.19,-0.5 1521.19,-0.5"/>
<text text-anchor="middle" x="1551.19" y="-7.5" font-family="Helvetica,sans-Serif" font-size="10.00">iostream</text>
</a>
</g>
</g>
<!-- Node3&#45;&gt;Node16 -->
<g id="edge15" class="edge">
<title>Node3&#45;&gt;Node16</title>
<path fill="none" stroke="midnightblue" d="M1485.72,-56.32C1497.78,-47.98 1516.22,-35.21 1530.46,-25.35"/>
<polygon fill="midnightblue" stroke="midnightblue" points="1532.46,-28.22 1538.69,-19.65 1528.48,-22.47 1532.46,-28.22"/>
</g>
<!-- Node17 -->
<g id="node17" class="node">
<title>Node17</title>
<g id="a_node17"><a xlink:title=" ">
<polygon fill="none" stroke="#bfbfbf" points="1599.69,-0.5 1599.69,-19.5 1654.69,-19.5 1654.69,-0.5 1599.69,-0.5"/>
<text text-anchor="middle" x="1627.19" y="-7.5" font-family="Helvetica,sans-Serif" font-size="10.00">fstream</text>
</a>
</g>
</g>
<!-- Node3&#45;&gt;Node17 -->
<g id="edge16" class="edge">
<title>Node3&#45;&gt;Node17</title>
<path fill="none" stroke="midnightblue" d="M1497.59,-56.44C1523.39,-47.4 1564.27,-33.06 1593.21,-22.92"/>
<polygon fill="midnightblue" stroke="midnightblue" points="1594.63,-26.13 1602.9,-19.52 1592.31,-19.52 1594.63,-26.13"/>
</g>
<!-- Node18 -->
<g id="node18" class="node">
<title>Node18</title>
<g id="a_node18"><a xlink:title=" ">
<polygon fill="none" stroke="#bfbfbf" points="1673.19,-0.5 1673.19,-19.5 1717.19,-19.5 1717.19,-0.5 1673.19,-0.5"/>
<text text-anchor="middle" x="1695.19" y="-7.5" font-family="Helvetica,sans-Serif" font-size="10.00">bitset</text>
</a>
</g>
</g>
<!-- Node3&#45;&gt;Node18 -->
<g id="edge17" class="edge">
<title>Node3&#45;&gt;Node18</title>
<path fill="none" stroke="midnightblue" d="M1511.16,-56.5C1549.59,-47.77 1610.69,-33.6 1663.19,-20 1663.29,-19.97 1663.39,-19.95 1663.5,-19.92"/>
<polygon fill="midnightblue" stroke="midnightblue" points="1664.44,-23.29 1673.19,-17.32 1662.62,-16.53 1664.44,-23.29"/>
</g>
<!-- Node19 -->
<g id="node19" class="node">
<title>Node19</title>
<g id="a_node19"><a xlink:title=" ">
<polygon fill="none" stroke="#bfbfbf" points="1735.19,-0.5 1735.19,-19.5 1793.19,-19.5 1793.19,-0.5 1735.19,-0.5"/>
<text text-anchor="middle" x="1764.19" y="-7.5" font-family="Helvetica,sans-Serif" font-size="10.00">memory</text>
</a>
</g>
</g>
<!-- Node3&#45;&gt;Node19 -->
<g id="edge18" class="edge">
<title>Node3&#45;&gt;Node19</title>
<path fill="none" stroke="midnightblue" d="M1526.18,-56.47C1575.28,-48.37 1650.57,-35.43 1725.15,-20.12"/>
<polygon fill="midnightblue" stroke="midnightblue" points="1726.1,-23.5 1735.18,-18.05 1724.68,-16.65 1726.1,-23.5"/>
</g>
<!-- Node20 -->
<g id="node20" class="node">
<title>Node20</title>
<g id="a_node20"><a xlink:title=" ">
<polygon fill="none" stroke="#bfbfbf" points="1811.19,-0.5 1811.19,-19.5 1865.19,-19.5 1865.19,-0.5 1811.19,-0.5"/>
<text text-anchor="middle" x="1838.19" y="-7.5" font-family="Helvetica,sans-Serif" font-size="10.00">random</text>
</a>
</g>
</g>
<!-- Node3&#45;&gt;Node20 -->
<g id="edge19" class="edge">
<title>Node3&#45;&gt;Node20</title>
<path fill="none" stroke="midnightblue" d="M1548.38,-57.08C1612.96,-49.74 1708.7,-37.56 1801.06,-20.04"/>
<polygon fill="midnightblue" stroke="midnightblue" points="1801.98,-23.42 1811.14,-18.1 1800.65,-16.55 1801.98,-23.42"/>
</g>
<!-- Node21 -->
<g id="node21" class="node">
<title>Node21</title>
<g id="a_node21"><a xlink:title=" ">
<polygon fill="none" stroke="#bfbfbf" points="1883.19,-0.5 1883.19,-19.5 1927.19,-19.5 1927.19,-0.5 1883.19,-0.5"/>
<text text-anchor="middle" x="1905.19" y="-7.5" font-family="Helvetica,sans-Serif" font-size="10.00">string</text>
</a>
</g>
</g>
<!-- Node3&#45;&gt;Node21 -->
<g id="edge20" class="edge">
<title>Node3&#45;&gt;Node21</title>
<path fill="none" stroke="midnightblue" d="M1548.43,-60.41C1627.24,-54.73 1754.67,-43.09 1873,-19.93"/>
<polygon fill="midnightblue" stroke="midnightblue" points="1873.83,-23.33 1882.95,-17.95 1872.46,-16.47 1873.83,-23.33"/>
</g>
<!-- Node22 -->
<g id="node22" class="node">
<title>Node22</title>
<g id="a_node22"><a xlink:title=" ">
<polygon fill="none" stroke="#bfbfbf" points="1945.69,-0.5 1945.69,-19.5 1992.69,-19.5 1992.69,-0.5 1945.69,-0.5"/>
<text text-anchor="middle" x="1969.19" y="-7.5" font-family="Helvetica,sans-Serif" font-size="10.00">vector</text>
</a>
</g>
</g>
<!-- Node3&#45;&gt;Node22 -->
<g id="edge21" class="edge">
<title>Node3&#45;&gt;Node22</title>
<path fill="none" stroke="midnightblue" d="M1548.31,-61.61C1638.19,-56.69 1793.28,-45.41 1935.31,-19.84"/>
<polygon fill="midnightblue" stroke="midnightblue" points="1936.3,-23.22 1945.51,-17.97 1935.04,-16.33 1936.3,-23.22"/>
</g>
<!-- Node23 -->
<g id="node23" class="node">
<title>Node23</title>
<g id="a_node23"><a xlink:title=" ">
<polygon fill="none" stroke="#bfbfbf" points="2011.19,-0.5 2011.19,-19.5 2059.19,-19.5 2059.19,-0.5 2011.19,-0.5"/>
<text text-anchor="middle" x="2035.19" y="-7.5" font-family="Helvetica,sans-Serif" font-size="10.00">thread</text>
</a>
</g>
</g>
<!-- Node3&#45;&gt;Node23 -->
<g id="edge22" class="edge">
<title>Node3&#45;&gt;Node23</title>
<path fill="none" stroke="midnightblue" d="M1548.21,-62.9C1649.23,-59.11 1834.59,-48.83 2001.22,-19.85"/>
<polygon fill="midnightblue" stroke="midnightblue" points="2001.92,-23.28 2011.16,-18.1 2000.7,-16.39 2001.92,-23.28"/>
</g>
<!-- Node24 -->
<g id="node24" class="node">
<title>Node24</title>
<g id="a_node24"><a xlink:title=" ">
<polygon fill="none" stroke="#bfbfbf" points="2077.19,-0.5 2077.19,-19.5 2125.19,-19.5 2125.19,-0.5 2077.19,-0.5"/>
<text text-anchor="middle" x="2101.19" y="-7.5" font-family="Helvetica,sans-Serif" font-size="10.00">mutex</text>
</a>
</g>
</g>
<!-- Node3&#45;&gt;Node24 -->
<g id="edge23" class="edge">
<title>Node3&#45;&gt;Node24</title>
<path fill="none" stroke="midnightblue" d="M1548.43,-63.9C1659.94,-61.25 1875.63,-52.24 2067.19,-19.84"/>
<polygon fill="midnightblue" stroke="midnightblue" points="2067.9,-23.27 2077.16,-18.12 2066.71,-16.37 2067.9,-23.27"/>
</g>
<!-- Node25 -->
<g id="node25" class="node">
<title>Node25</title>
<g id="a_node25"><a xlink:title=" ">
<polygon fill="none" stroke="#bfbfbf" points="2143.69,-0.5 2143.69,-19.5 2190.69,-19.5 2190.69,-0.5 2143.69,-0.5"/>
<text text-anchor="middle" x="2167.19" y="-7.5" font-family="Helvetica,sans-Serif" font-size="10.00">queue</text>
</a>
</g>
</g>
<!-- Node3&#45;&gt;Node25 -->
<g id="edge24" class="edge">
<title>Node3&#45;&gt;Node25</title>
<path fill="none" stroke="midnightblue" d="M1548.6,-64.71C1670.06,-63.18 1916.48,-55.67 2133.54,-19.74"/>
<polygon fill="midnightblue" stroke="midnightblue" points="2134.24,-23.17 2143.52,-18.06 2133.08,-16.26 2134.24,-23.17"/>
</g>
<!-- Node26 -->
<g id="node26" class="node">
<title>Node26</title>
<g id="a_node26"><a xlink:title=" ">
<polygon fill="none" stroke="#bfbfbf" points="2209.19,-0.5 2209.19,-19.5 2247.19,-19.5 2247.19,-0.5 2209.19,-0.5"/>
<text text-anchor="middle" x="2228.19" y="-7.5" font-family="Helvetica,sans-Serif" font-size="10.00">map</text>
</a>
</g>
</g>
<!-- Node3&#45;&gt;Node26 -->
<g id="edge25" class="edge">
<title>Node3&#45;&gt;Node26</title>
<path fill="none" stroke="midnightblue" d="M1548.38,-62.72C1704.26,-57.61 2059.05,-43.94 2198.98,-19.68"/>
<polygon fill="midnightblue" stroke="midnightblue" points="2199.87,-23.08 2209.07,-17.84 2198.61,-16.19 2199.87,-23.08"/>
</g>
<!-- Node27&#45;&gt;Node2 -->
<g id="edge29" class="edge">
<title>Node27&#45;&gt;Node2</title>
<path fill="none" stroke="midnightblue" d="M364.82,-235.11C364.76,-220.71 367,-192.52 384.19,-179 423.58,-148.02 1143.31,-133.74 1390.58,-129.73"/>
<polygon fill="midnightblue" stroke="midnightblue" points="1390.65,-133.23 1400.59,-129.56 1390.54,-126.23 1390.65,-133.23"/>
</g>
<!-- Node27&#45;&gt;Node28 -->
<g id="edge27" class="edge">
<title>Node27&#45;&gt;Node28</title>
<path fill="none" stroke="midnightblue" d="M383.57,-235.44C402.41,-226.68 431.92,-212.94 453.57,-202.86"/>
<polygon fill="midnightblue" stroke="midnightblue" points="455.31,-205.91 462.9,-198.52 452.35,-199.56 455.31,-205.91"/>
</g>
<!-- Node29 -->
<g id="node29" class="node">
<title>Node29</title>
<g id="a_node29"><a xlink:title=" ">
<polygon fill="none" stroke="#bfbfbf" points="29.69,-179.5 29.69,-198.5 160.69,-198.5 160.69,-179.5 29.69,-179.5"/>
<text text-anchor="middle" x="95.19" y="-186.5" font-family="Helvetica,sans-Serif" font-size="10.00">libavformat/avformat.h</text>
</a>
</g>
</g>
<!-- Node27&#45;&gt;Node29 -->
<g id="edge30" class="edge">
<title>Node27&#45;&gt;Node29</title>
<path fill="none" stroke="midnightblue" d="M322.41,-235.44C275.01,-225.96 198.57,-210.67 147.61,-200.48"/>
<polygon fill="midnightblue" stroke="midnightblue" points="148.27,-197.05 137.77,-198.52 146.89,-203.91 148.27,-197.05"/>
</g>
<!-- Node30 -->
<g id="node30" class="node">
<title>Node30</title>
<g id="a_node30"><a xlink:title=" ">
<polygon fill="none" stroke="#bfbfbf" points="178.69,-179.5 178.69,-198.5 337.69,-198.5 337.69,-179.5 178.69,-179.5"/>
<text text-anchor="middle" x="258.19" y="-186.5" font-family="Helvetica,sans-Serif" font-size="10.00">libswresample/swresample.h</text>
</a>
</g>
</g>
<!-- Node27&#45;&gt;Node30 -->
<g id="edge31" class="edge">
<title>Node27&#45;&gt;Node30</title>
<path fill="none" stroke="midnightblue" d="M348,-235.32C330.84,-226.66 304.25,-213.24 284.44,-203.25"/>
<polygon fill="midnightblue" stroke="midnightblue" points="285.84,-200.04 275.34,-198.65 282.69,-206.28 285.84,-200.04"/>
</g>
<!-- Node28&#45;&gt;Node2 -->
<g id="edge28" class="edge">
<title>Node28&#45;&gt;Node2</title>
<path fill="none" stroke="midnightblue" d="M569.21,-179.69C572.24,-179.45 575.24,-179.22 578.19,-179 876.98,-156.72 1232.55,-139.39 1390.51,-132.16"/>
<polygon fill="midnightblue" stroke="midnightblue" points="1390.8,-135.66 1400.63,-131.7 1390.48,-128.66 1390.8,-135.66"/>
</g>
<!-- Node31&#45;&gt;Node2 -->
<g id="edge33" class="edge">
<title>Node31&#45;&gt;Node2</title>
<path fill="none" stroke="midnightblue" d="M1599.92,-459.45C1661.43,-447.96 1735.19,-421.04 1735.19,-358 1735.19,-358 1735.19,-358 1735.19,-244 1735.19,-164.43 1632.77,-139.21 1556,-131.48"/>
<polygon fill="midnightblue" stroke="midnightblue" points="1556.1,-127.98 1545.83,-130.54 1555.46,-134.95 1556.1,-127.98"/>
</g>
<!-- Node32 -->
<g id="node32" class="node">
<title>Node32</title>
<g id="a_node32"><a xlink:href="../../d5/d5b/a00695.html" target="_top" xlink:title=" ">
<polygon fill="none" stroke="black" points="1437.19,-403.5 1437.19,-422.5 1599.19,-422.5 1599.19,-403.5 1437.19,-403.5"/>
<text text-anchor="middle" x="1518.19" y="-410.5" font-family="Helvetica,sans-Serif" font-size="10.00">discordcoreapi/CoRoutine.hpp</text>
</a>
</g>
</g>
<!-- Node31&#45;&gt;Node32 -->
<g id="edge34" class="edge">
<title>Node31&#45;&gt;Node32</title>
<path fill="none" stroke="midnightblue" d="M1518.19,-459.08C1518.19,-452.01 1518.19,-441.86 1518.19,-432.99"/>
<polygon fill="midnightblue" stroke="midnightblue" points="1521.69,-432.75 1518.19,-422.75 1514.69,-432.75 1521.69,-432.75"/>
</g>
<!-- Node32&#45;&gt;Node2 -->
<g id="edge35" class="edge">
<title>Node32&#45;&gt;Node2</title>
<path fill="none" stroke="midnightblue" d="M1568.05,-403.45C1621.02,-391.16 1697.19,-362.91 1697.19,-302 1697.19,-302 1697.19,-302 1697.19,-244 1697.19,-178.17 1619.82,-149.82 1556.03,-137.64"/>
<polygon fill="midnightblue" stroke="midnightblue" points="1556.38,-134.15 1545.92,-135.82 1555.14,-141.04 1556.38,-134.15"/>
</g>
<!-- Node32&#45;&gt;Node33 -->
<g id="edge36" class="edge">
<title>Node32&#45;&gt;Node33</title>
<path fill="none" stroke="midnightblue" d="M1512.91,-403.08C1508.48,-395.61 1502.03,-384.72 1496.57,-375.52"/>
<polygon fill="midnightblue" stroke="midnightblue" points="1499.49,-373.57 1491.38,-366.75 1493.46,-377.14 1499.49,-373.57"/>
</g>
<!-- Node33&#45;&gt;Node2 -->
<g id="edge37" class="edge">
<title>Node33&#45;&gt;Node2</title>
<path fill="none" stroke="midnightblue" d="M1504.52,-347.37C1555.13,-322.38 1689.86,-247.37 1639.19,-179 1619.77,-152.79 1587.08,-139.72 1555.82,-133.36"/>
<polygon fill="midnightblue" stroke="midnightblue" points="1556.21,-129.87 1545.74,-131.52 1554.95,-136.76 1556.21,-129.87"/>
</g>
<!-- Node34 -->
<g id="node34" class="node">
<title>Node34</title>
<g id="a_node34"><a xlink:href="../../db/d7c/a00722.html" target="_top" xlink:title=" ">
<polygon fill="none" stroke="black" points="1417.19,-291.5 1417.19,-310.5 1555.19,-310.5 1555.19,-291.5 1417.19,-291.5"/>
<text text-anchor="middle" x="1486.19" y="-298.5" font-family="Helvetica,sans-Serif" font-size="10.00">discordcoreapi/Https.hpp</text>
</a>
</g>
</g>
<!-- Node33&#45;&gt;Node34 -->
<g id="edge38" class="edge">
<title>Node33&#45;&gt;Node34</title>
<path fill="none" stroke="midnightblue" d="M1486.19,-347.08C1486.19,-340.01 1486.19,-329.86 1486.19,-320.99"/>
<polygon fill="midnightblue" stroke="midnightblue" points="1489.69,-320.75 1486.19,-310.75 1482.69,-320.75 1489.69,-320.75"/>
</g>
<!-- Node48 -->
<g id="node48" class="node">
<title>Node48</title>
<g id="a_node48"><a xlink:title=" ">
<polygon fill="none" stroke="#bfbfbf" points="1337.19,-291.5 1337.19,-310.5 1399.19,-310.5 1399.19,-291.5 1337.19,-291.5"/>
<text text-anchor="middle" x="1368.19" y="-298.5" font-family="Helvetica,sans-Serif" font-size="10.00">coroutine</text>
</a>
</g>
</g>
<!-- Node33&#45;&gt;Node48 -->
<g id="edge54" class="edge">
<title>Node33&#45;&gt;Node48</title>
<path fill="none" stroke="midnightblue" d="M1467.49,-347.44C1448.25,-338.64 1418.04,-324.81 1395.99,-314.72"/>
<polygon fill="midnightblue" stroke="midnightblue" points="1397.35,-311.5 1386.8,-310.52 1394.44,-317.86 1397.35,-311.5"/>
</g>
<!-- Node34&#45;&gt;Node35 -->
<g id="edge39" class="edge">
<title>Node34&#45;&gt;Node35</title>
<path fill="none" stroke="midnightblue" d="M1432.95,-291.44C1373.23,-281.85 1276.45,-266.29 1213.06,-256.1"/>
<polygon fill="midnightblue" stroke="midnightblue" points="1213.61,-252.65 1203.18,-254.52 1212.5,-259.56 1213.61,-252.65"/>
</g>
<!-- Node35&#45;&gt;Node2 -->
<g id="edge40" class="edge">
<title>Node35&#45;&gt;Node2</title>
<path fill="none" stroke="midnightblue" d="M1175.63,-235.4C1199.98,-226.94 1237.57,-213.24 1269.19,-199 1286.59,-191.17 1289.54,-186.25 1307.19,-179 1339.62,-165.67 1376.88,-154.02 1407.87,-145.28"/>
<polygon fill="midnightblue" stroke="midnightblue" points="1409.01,-148.6 1417.7,-142.55 1407.13,-141.86 1409.01,-148.6"/>
</g>
<!-- Node35&#45;&gt;Node28 -->
<g id="edge41" class="edge">
<title>Node35&#45;&gt;Node28</title>
<path fill="none" stroke="midnightblue" d="M1068.23,-237.91C959.2,-229.74 760.18,-214.53 579.45,-199.1"/>
<polygon fill="midnightblue" stroke="midnightblue" points="579.48,-195.59 569.22,-198.22 578.88,-202.56 579.48,-195.59"/>
</g>
<!-- Node36 -->
<g id="node36" class="node">
<title>Node36</title>
<g id="a_node36"><a xlink:title=" ">
<polygon fill="none" stroke="#bfbfbf" points="1316.69,-179.5 1316.69,-198.5 1395.69,-198.5 1395.69,-179.5 1316.69,-179.5"/>
<text text-anchor="middle" x="1356.19" y="-186.5" font-family="Helvetica,sans-Serif" font-size="10.00">openssl/err.h</text>
</a>
</g>
</g>
<!-- Node35&#45;&gt;Node36 -->
<g id="edge42" class="edge">
<title>Node35&#45;&gt;Node36</title>
<path fill="none" stroke="midnightblue" d="M1182.83,-235.44C1218.24,-226.16 1274.9,-211.31 1313.74,-201.13"/>
<polygon fill="midnightblue" stroke="midnightblue" points="1314.92,-204.44 1323.7,-198.52 1313.14,-197.67 1314.92,-204.44"/>
</g>
<!-- Node37 -->
<g id="node37" class="node">
<title>Node37</title>
<g id="a_node37"><a xlink:title=" ">
<polygon fill="none" stroke="#bfbfbf" points="1414.19,-179.5 1414.19,-198.5 1494.19,-198.5 1494.19,-179.5 1414.19,-179.5"/>
<text text-anchor="middle" x="1454.19" y="-186.5" font-family="Helvetica,sans-Serif" font-size="10.00">openssl/ssl.h</text>
</a>
</g>
</g>
<!-- Node35&#45;&gt;Node37 -->
<g id="edge43" class="edge">
<title>Node35&#45;&gt;Node37</title>
<path fill="none" stroke="midnightblue" d="M1198.42,-235.5C1249.52,-226.48 1332.55,-211.79 1404.19,-199 1404.29,-198.98 1404.39,-198.96 1404.49,-198.95"/>
<polygon fill="midnightblue" stroke="midnightblue" points="1404.85,-202.44 1414.08,-197.23 1403.62,-195.55 1404.85,-202.44"/>
</g>
<!-- Node38 -->
<g id="node38" class="node">
<title>Node38</title>
<g id="a_node38"><a xlink:title=" ">
<polygon fill="none" stroke="#bfbfbf" points="1512.69,-179.5 1512.69,-198.5 1559.69,-198.5 1559.69,-179.5 1512.69,-179.5"/>
<text text-anchor="middle" x="1536.19" y="-186.5" font-family="Helvetica,sans-Serif" font-size="10.00">fcntl.h</text>
</a>
</g>
</g>
<!-- Node35&#45;&gt;Node38 -->
<g id="edge44" class="edge">
<title>Node35&#45;&gt;Node38</title>
<path fill="none" stroke="midnightblue" d="M1232.03,-236.83C1301.6,-229.99 1404.22,-218.13 1502.67,-198.84"/>
<polygon fill="midnightblue" stroke="midnightblue" points="1503.37,-202.27 1512.49,-196.89 1502,-195.41 1503.37,-202.27"/>
</g>
<!-- Node39 -->
<g id="node39" class="node">
<title>Node39</title>
<g id="a_node39"><a xlink:title=" ">
<polygon fill="none" stroke="#bfbfbf" points="1577.69,-179.5 1577.69,-198.5 1630.69,-198.5 1630.69,-179.5 1577.69,-179.5"/>
<text text-anchor="middle" x="1604.19" y="-186.5" font-family="Helvetica,sans-Serif" font-size="10.00">netdb.h</text>
</a>
</g>
</g>
<!-- Node35&#45;&gt;Node39 -->
<g id="edge45" class="edge">
<title>Node35&#45;&gt;Node39</title>
<path fill="none" stroke="midnightblue" d="M1231.97,-238.54C1314.34,-232.29 1445.19,-220.28 1567.62,-198.86"/>
<polygon fill="midnightblue" stroke="midnightblue" points="1568.31,-202.29 1577.54,-197.1 1567.09,-195.4 1568.31,-202.29"/>
</g>
<!-- Node40 -->
<g id="node40" class="node">
<title>Node40</title>
<g id="a_node40"><a xlink:title=" ">
<polygon fill="none" stroke="#bfbfbf" points="587.19,-179.5 587.19,-198.5 659.19,-198.5 659.19,-179.5 587.19,-179.5"/>
<text text-anchor="middle" x="623.19" y="-186.5" font-family="Helvetica,sans-Serif" font-size="10.00">netinet/in.h</text>
</a>
</g>
</g>
<!-- Node35&#45;&gt;Node40 -->
<g id="edge46" class="edge">
<title>Node35&#45;&gt;Node40</title>
<path fill="none" stroke="midnightblue" d="M1068.44,-238.98C974.47,-232.61 815.45,-220.05 669.52,-199.06"/>
<polygon fill="midnightblue" stroke="midnightblue" points="669.88,-195.57 659.48,-197.6 668.88,-202.5 669.88,-195.57"/>
</g>
<!-- Node41 -->
<g id="node41" class="node">
<title>Node41</title>
<g id="a_node41"><a xlink:title=" ">
<polygon fill="none" stroke="#bfbfbf" points="677.19,-179.5 677.19,-198.5 755.19,-198.5 755.19,-179.5 677.19,-179.5"/>
<text text-anchor="middle" x="716.19" y="-186.5" font-family="Helvetica,sans-Serif" font-size="10.00">netinet/tcp.h</text>
</a>
</g>
</g>
<!-- Node35&#45;&gt;Node41 -->
<g id="edge47" class="edge">
<title>Node35&#45;&gt;Node41</title>
<path fill="none" stroke="midnightblue" d="M1068.64,-236.15C992.66,-228.46 875.99,-215.68 765.44,-199.1"/>
<polygon fill="midnightblue" stroke="midnightblue" points="765.86,-195.62 755.45,-197.59 764.81,-202.55 765.86,-195.62"/>
</g>
<!-- Node42 -->
<g id="node42" class="node">
<title>Node42</title>
<g id="a_node42"><a xlink:title=" ">
<polygon fill="none" stroke="#bfbfbf" points="773.69,-179.5 773.69,-198.5 826.69,-198.5 826.69,-179.5 773.69,-179.5"/>
<text text-anchor="middle" x="800.19" y="-186.5" font-family="Helvetica,sans-Serif" font-size="10.00">stdint.h</text>
</a>
</g>
</g>
<!-- Node35&#45;&gt;Node42 -->
<g id="edge48" class="edge">
<title>Node35&#45;&gt;Node42</title>
<path fill="none" stroke="midnightblue" d="M1074.05,-235.5C1012.38,-228.07 923.11,-216.08 836.83,-199.16"/>
<polygon fill="midnightblue" stroke="midnightblue" points="837.37,-195.7 826.88,-197.18 836,-202.56 837.37,-195.7"/>
</g>
<!-- Node43 -->
<g id="node43" class="node">
<title>Node43</title>
<g id="a_node43"><a xlink:title=" ">
<polygon fill="none" stroke="#bfbfbf" points="844.69,-179.5 844.69,-198.5 913.69,-198.5 913.69,-179.5 844.69,-179.5"/>
<text text-anchor="middle" x="879.19" y="-186.5" font-family="Helvetica,sans-Serif" font-size="10.00">sys/epoll.h</text>
</a>
</g>
</g>
<!-- Node35&#45;&gt;Node43 -->
<g id="edge49" class="edge">
<title>Node35&#45;&gt;Node43</title>
<path fill="none" stroke="midnightblue" d="M1106.03,-235.44C1062.23,-226.91 992.92,-213.33 924.07,-199.37"/>
<polygon fill="midnightblue" stroke="midnightblue" points="924.41,-195.87 913.92,-197.3 923.02,-202.72 924.41,-195.87"/>
</g>
<!-- Node44 -->
<g id="node44" class="node">
<title>Node44</title>
<g id="a_node44"><a xlink:title=" ">
<polygon fill="none" stroke="#bfbfbf" points="931.69,-179.5 931.69,-198.5 1000.69,-198.5 1000.69,-179.5 931.69,-179.5"/>
<text text-anchor="middle" x="966.19" y="-186.5" font-family="Helvetica,sans-Serif" font-size="10.00">arpa/inet.h</text>
</a>
</g>
</g>
<!-- Node35&#45;&gt;Node44 -->
<g id="edge50" class="edge">
<title>Node35&#45;&gt;Node44</title>
<path fill="none" stroke="midnightblue" d="M1121.04,-235.44C1089.68,-226.24 1039.66,-211.56 1004.99,-201.39"/>
<polygon fill="midnightblue" stroke="midnightblue" points="1005.79,-197.97 995.21,-198.52 1003.82,-204.69 1005.79,-197.97"/>
</g>
<!-- Node45 -->
<g id="node45" class="node">
<title>Node45</title>
<g id="a_node45"><a xlink:title=" ">
<polygon fill="none" stroke="#bfbfbf" points="1018.69,-179.5 1018.69,-198.5 1095.69,-198.5 1095.69,-179.5 1018.69,-179.5"/>
<text text-anchor="middle" x="1057.19" y="-186.5" font-family="Helvetica,sans-Serif" font-size="10.00">sys/socket.h</text>
</a>
</g>
</g>
<!-- Node35&#45;&gt;Node45 -->
<g id="edge51" class="edge">
<title>Node35&#45;&gt;Node45</title>
<path fill="none" stroke="midnightblue" d="M1135.25,-235.32C1120.61,-226.82 1098.06,-213.73 1080.95,-203.8"/>
<polygon fill="midnightblue" stroke="midnightblue" points="1082.5,-200.65 1072.1,-198.65 1078.99,-206.7 1082.5,-200.65"/>
</g>
<!-- Node46 -->
<g id="node46" class="node">
<title>Node46</title>
<g id="a_node46"><a xlink:title=" ">
<polygon fill="none" stroke="#bfbfbf" points="1114.19,-179.5 1114.19,-198.5 1186.19,-198.5 1186.19,-179.5 1114.19,-179.5"/>
<text text-anchor="middle" x="1150.19" y="-186.5" font-family="Helvetica,sans-Serif" font-size="10.00">sys/types.h</text>
</a>
</g>
</g>
<!-- Node35&#45;&gt;Node46 -->
<g id="edge52" class="edge">
<title>Node35&#45;&gt;Node46</title>
<path fill="none" stroke="midnightblue" d="M1150.19,-235.08C1150.19,-228.01 1150.19,-217.86 1150.19,-208.99"/>
<polygon fill="midnightblue" stroke="midnightblue" points="1153.69,-208.75 1150.19,-198.75 1146.69,-208.75 1153.69,-208.75"/>
</g>
<!-- Node47 -->
<g id="node47" class="node">
<title>Node47</title>
<g id="a_node47"><a xlink:title=" ">
<polygon fill="none" stroke="#bfbfbf" points="1204.19,-179.5 1204.19,-198.5 1260.19,-198.5 1260.19,-179.5 1204.19,-179.5"/>
<text text-anchor="middle" x="1232.19" y="-186.5" font-family="Helvetica,sans-Serif" font-size="10.00">unistd.h</text>
</a>
</g>
</g>
<!-- Node35&#45;&gt;Node47 -->
<g id="edge53" class="edge">
<title>Node35&#45;&gt;Node47</title>
<path fill="none" stroke="midnightblue" d="M1163.37,-235.32C1176.04,-226.98 1195.42,-214.21 1210.4,-204.35"/>
<polygon fill="midnightblue" stroke="midnightblue" points="1212.62,-207.08 1219.05,-198.65 1208.77,-201.23 1212.62,-207.08"/>
</g>
<!-- Node49&#45;&gt;Node2 -->
<g id="edge56" class="edge">
<title>Node49&#45;&gt;Node2</title>
<path fill="none" stroke="midnightblue" d="M1836.61,-403.44C1827.33,-385.29 1807.19,-341.38 1807.19,-302 1807.19,-302 1807.19,-302 1807.19,-244 1807.19,-205.28 1782.95,-197.96 1749.19,-179 1689.99,-145.76 1613.44,-133.75 1555.98,-129.7"/>
<polygon fill="midnightblue" stroke="midnightblue" points="1556.04,-126.19 1545.84,-129.05 1555.6,-133.18 1556.04,-126.19"/>
</g>
</g>
</svg>
