<?xml version="1.0" encoding="UTF-8" standalone="no"?>
<!DOCTYPE svg PUBLIC "-//W3C//DTD SVG 1.1//EN"
 "http://www.w3.org/Graphics/SVG/1.1/DTD/svg11.dtd">
<!-- Generated by graphviz version 2.43.0 (0)
 -->
<!-- Title: SongAPI.hpp Pages: 1 -->
<svg width="2190pt" height="720pt"
 viewBox="0.00 0.00 2190.00 720.00" xmlns="http://www.w3.org/2000/svg" xmlns:xlink="http://www.w3.org/1999/xlink">
<g id="graph0" class="graph" transform="scale(1 1) rotate(0) translate(4 716)">
<title>SongAPI.hpp</title>
<!-- Node1 -->
<g id="node1" class="node">
<title>Node1</title>
<g id="a_node1"><a xlink:title=" ">
<polygon fill="#bfbfbf" stroke="black" points="1419.5,-712 1342.5,-712 1342.5,-693 1419.5,-693 1419.5,-712"/>
<text text-anchor="middle" x="1381" y="-700" font-family="Helvetica,sans-Serif" font-size="10.00">SongAPI.hpp</text>
</a>
</g>
</g>
<!-- Node2 -->
<g id="node2" class="node">
<title>Node2</title>
<g id="a_node2"><a xlink:href="../../db/d7c/a00722.html" target="_top" xlink:title=" ">
<polygon fill="none" stroke="black" points="1480.5,-140 1335.5,-140 1335.5,-110 1480.5,-110 1480.5,-140"/>
<text text-anchor="start" x="1343.5" y="-128" font-family="Helvetica,sans-Serif" font-size="10.00">discordcoreapi/Foundation</text>
<text text-anchor="middle" x="1408" y="-117" font-family="Helvetica,sans-Serif" font-size="10.00">Entities.hpp</text>
</a>
</g>
</g>
<!-- Node1&#45;&gt;Node2 -->
<g id="edge1" class="edge">
<title>Node1&#45;&gt;Node2</title>
<path fill="none" stroke="midnightblue" d="M1419.74,-698.72C1562.1,-688.01 2048,-646.75 2048,-582.5 2048,-582.5 2048,-582.5 2048,-239.5 2048,-186.85 1997.82,-193.01 1948,-176 1865.64,-147.88 1620.63,-134.3 1490.83,-128.92"/>
<polygon fill="midnightblue" stroke="midnightblue" points="1490.68,-125.41 1480.54,-128.5 1490.39,-132.41 1490.68,-125.41"/>
</g>
<!-- Node27 -->
<g id="node27" class="node">
<title>Node27</title>
<g id="a_node27"><a xlink:href="../../d2/d4a/a00758.html" target="_top" xlink:title=" ">
<polygon fill="none" stroke="black" points="1304,-195 1128,-195 1128,-176 1304,-176 1304,-195"/>
<text text-anchor="middle" x="1216" y="-183" font-family="Helvetica,sans-Serif" font-size="10.00">discordcoreapi/EventEntities.hpp</text>
</a>
</g>
</g>
<!-- Node1&#45;&gt;Node27 -->
<g id="edge26" class="edge">
<title>Node1&#45;&gt;Node27</title>
<path fill="none" stroke="midnightblue" d="M1342.37,-695.3C1258.26,-680.71 1066,-640.96 1066,-582.5 1066,-582.5 1066,-582.5 1066,-294.5 1066,-241.99 1127.28,-212.49 1171.5,-198.03"/>
<polygon fill="midnightblue" stroke="midnightblue" points="1172.7,-201.32 1181.21,-195 1170.62,-194.64 1172.7,-201.32"/>
</g>
<!-- Node28 -->
<g id="node28" class="node">
<title>Node28</title>
<g id="a_node28"><a xlink:href="../../d5/de8/a00749.html" target="_top" xlink:title=" ">
<polygon fill="none" stroke="black" points="868.5,-657 711.5,-657 711.5,-627 868.5,-627 868.5,-657"/>
<text text-anchor="start" x="719.5" y="-645" font-family="Helvetica,sans-Serif" font-size="10.00">discordcoreapi/GuildMember</text>
<text text-anchor="middle" x="790" y="-634" font-family="Helvetica,sans-Serif" font-size="10.00">Entities.hpp</text>
</a>
</g>
</g>
<!-- Node1&#45;&gt;Node28 -->
<g id="edge28" class="edge">
<title>Node1&#45;&gt;Node28</title>
<path fill="none" stroke="midnightblue" d="M1342.22,-697.66C1248.81,-688.41 1009.37,-664.71 878.56,-651.77"/>
<polygon fill="midnightblue" stroke="midnightblue" points="878.86,-648.28 868.57,-650.78 878.17,-655.24 878.86,-648.28"/>
</g>
<!-- Node53 -->
<g id="node53" class="node">
<title>Node53</title>
<g id="a_node53"><a xlink:href="../../d0/db6/a00692.html" target="_top" xlink:title=" ">
<polygon fill="none" stroke="black" points="1850.5,-591 1657.5,-591 1657.5,-572 1850.5,-572 1850.5,-591"/>
<text text-anchor="middle" x="1754" y="-579" font-family="Helvetica,sans-Serif" font-size="10.00">discordcoreapi/VoiceConnection.hpp</text>
</a>
</g>
</g>
<!-- Node1&#45;&gt;Node53 -->
<g id="edge68" class="edge">
<title>Node1&#45;&gt;Node53</title>
<path fill="none" stroke="midnightblue" d="M1407.83,-692.94C1473.48,-672 1642.31,-618.13 1717.24,-594.23"/>
<polygon fill="midnightblue" stroke="midnightblue" points="1718.7,-597.43 1727.17,-591.06 1716.58,-590.77 1718.7,-597.43"/>
</g>
<!-- Node3 -->
<g id="node3" class="node">
<title>Node3</title>
<g id="a_node3"><a xlink:href="../../d1/d87/a00689.html" target="_top" xlink:title=" ">
<polygon fill="none" stroke="black" points="1483,-74 1333,-74 1333,-55 1483,-55 1483,-74"/>
<text text-anchor="middle" x="1408" y="-62" font-family="Helvetica,sans-Serif" font-size="10.00">discordcoreapi/Utilities.hpp</text>
</a>
</g>
</g>
<!-- Node2&#45;&gt;Node3 -->
<g id="edge2" class="edge">
<title>Node2&#45;&gt;Node3</title>
<path fill="none" stroke="midnightblue" d="M1408,-109.84C1408,-102.21 1408,-92.7 1408,-84.45"/>
<polygon fill="midnightblue" stroke="midnightblue" points="1411.5,-84.27 1408,-74.27 1404.5,-84.27 1411.5,-84.27"/>
</g>
<!-- Node4 -->
<g id="node4" class="node">
<title>Node4</title>
<g id="a_node4"><a xlink:title=" ">
<polygon fill="none" stroke="#bfbfbf" points="391.5,-19 328.5,-19 328.5,0 391.5,0 391.5,-19"/>
<text text-anchor="middle" x="360" y="-7" font-family="Helvetica,sans-Serif" font-size="10.00">pthread.h</text>
</a>
</g>
</g>
<!-- Node3&#45;&gt;Node4 -->
<g id="edge3" class="edge">
<title>Node3&#45;&gt;Node4</title>
<path fill="none" stroke="midnightblue" d="M1332.81,-64.28C1166.54,-65.12 755.14,-62.31 401.87,-18.86"/>
<polygon fill="midnightblue" stroke="midnightblue" points="402.06,-15.36 391.7,-17.6 401.19,-22.3 402.06,-15.36"/>
</g>
<!-- Node5 -->
<g id="node5" class="node">
<title>Node5</title>
<g id="a_node5"><a xlink:title=" ">
<polygon fill="none" stroke="#bfbfbf" points="478,-19 410,-19 410,0 478,0 478,-19"/>
<text text-anchor="middle" x="444" y="-7" font-family="Helvetica,sans-Serif" font-size="10.00">sys/time.h</text>
</a>
</g>
</g>
<!-- Node3&#45;&gt;Node5 -->
<g id="edge4" class="edge">
<title>Node3&#45;&gt;Node5</title>
<path fill="none" stroke="midnightblue" d="M1332.77,-63.6C1176.94,-62.99 807.48,-57.34 488.57,-18.99"/>
<polygon fill="midnightblue" stroke="midnightblue" points="488.54,-15.46 478.19,-17.73 487.7,-22.41 488.54,-15.46"/>
</g>
<!-- Node6 -->
<g id="node6" class="node">
<title>Node6</title>
<g id="a_node6"><a xlink:title=" ">
<polygon fill="none" stroke="#bfbfbf" points="544,-19 496,-19 496,0 544,0 544,-19"/>
<text text-anchor="middle" x="520" y="-7" font-family="Helvetica,sans-Serif" font-size="10.00">time.h</text>
</a>
</g>
</g>
<!-- Node3&#45;&gt;Node6 -->
<g id="edge5" class="edge">
<title>Node3&#45;&gt;Node6</title>
<path fill="none" stroke="midnightblue" d="M1332.74,-61.52C1156.61,-56.56 720.59,-42.46 554.13,-18.78"/>
<polygon fill="midnightblue" stroke="midnightblue" points="554.44,-15.29 544.04,-17.28 553.41,-22.21 554.44,-15.29"/>
</g>
<!-- Node7 -->
<g id="node7" class="node">
<title>Node7</title>
<g id="a_node7"><a xlink:title=" ">
<polygon fill="none" stroke="#bfbfbf" points="606,-19 562,-19 562,0 606,0 606,-19"/>
<text text-anchor="middle" x="584" y="-7" font-family="Helvetica,sans-Serif" font-size="10.00">ctime</text>
</a>
</g>
</g>
<!-- Node3&#45;&gt;Node7 -->
<g id="edge6" class="edge">
<title>Node3&#45;&gt;Node7</title>
<path fill="none" stroke="midnightblue" d="M1332.86,-61.31C1166.45,-56.15 770.1,-41.99 616.43,-18.81"/>
<polygon fill="midnightblue" stroke="midnightblue" points="616.65,-15.3 606.23,-17.2 615.56,-22.22 616.65,-15.3"/>
</g>
<!-- Node8 -->
<g id="node8" class="node">
<title>Node8</title>
<g id="a_node8"><a xlink:title=" ">
<polygon fill="none" stroke="#bfbfbf" points="731.5,-19 624.5,-19 624.5,0 731.5,0 731.5,-19"/>
<text text-anchor="middle" x="678" y="-7" font-family="Helvetica,sans-Serif" font-size="10.00">condition_variable</text>
</a>
</g>
</g>
<!-- Node3&#45;&gt;Node8 -->
<g id="edge7" class="edge">
<title>Node3&#45;&gt;Node8</title>
<path fill="none" stroke="midnightblue" d="M1332.84,-60.14C1211.06,-54.34 962.86,-40.98 741.76,-19"/>
<polygon fill="midnightblue" stroke="midnightblue" points="741.89,-15.5 731.59,-17.98 741.19,-22.46 741.89,-15.5"/>
</g>
<!-- Node9 -->
<g id="node9" class="node">
<title>Node9</title>
<g id="a_node9"><a xlink:title=" ">
<polygon fill="none" stroke="#bfbfbf" points="860,-19 750,-19 750,0 860,0 860,-19"/>
<text text-anchor="middle" x="805" y="-7" font-family="Helvetica,sans-Serif" font-size="10.00">nlohmann/json.hpp</text>
</a>
</g>
</g>
<!-- Node3&#45;&gt;Node9 -->
<g id="edge8" class="edge">
<title>Node3&#45;&gt;Node9</title>
<path fill="none" stroke="midnightblue" d="M1332.9,-58.48C1230.63,-51.39 1041.61,-37.33 870.1,-19.07"/>
<polygon fill="midnightblue" stroke="midnightblue" points="870.45,-15.59 860.14,-18 869.71,-22.55 870.45,-15.59"/>
</g>
<!-- Node10 -->
<g id="node10" class="node">
<title>Node10</title>
<g id="a_node10"><a xlink:title=" ">
<polygon fill="none" stroke="#bfbfbf" points="971.5,-19 878.5,-19 878.5,0 971.5,0 971.5,-19"/>
<text text-anchor="middle" x="925" y="-7" font-family="Helvetica,sans-Serif" font-size="10.00">source_location</text>
</a>
</g>
</g>
<!-- Node3&#45;&gt;Node10 -->
<g id="edge9" class="edge">
<title>Node3&#45;&gt;Node10</title>
<path fill="none" stroke="midnightblue" d="M1332.87,-56.83C1249.48,-49.17 1110.63,-35.64 981.83,-19.18"/>
<polygon fill="midnightblue" stroke="midnightblue" points="982.15,-15.7 971.79,-17.89 981.26,-22.64 982.15,-15.7"/>
</g>
<!-- Node11 -->
<g id="node11" class="node">
<title>Node11</title>
<g id="a_node11"><a xlink:title=" ">
<polygon fill="none" stroke="#bfbfbf" points="1082.5,-19 989.5,-19 989.5,0 1082.5,0 1082.5,-19"/>
<text text-anchor="middle" x="1036" y="-7" font-family="Helvetica,sans-Serif" font-size="10.00">unordered_map</text>
</a>
</g>
</g>
<!-- Node3&#45;&gt;Node11 -->
<g id="edge10" class="edge">
<title>Node3&#45;&gt;Node11</title>
<path fill="none" stroke="midnightblue" d="M1346.21,-55C1284.67,-46.49 1187.2,-32.88 1092.76,-19.1"/>
<polygon fill="midnightblue" stroke="midnightblue" points="1093.15,-15.62 1082.75,-17.63 1092.13,-22.54 1093.15,-15.62"/>
</g>
<!-- Node12 -->
<g id="node12" class="node">
<title>Node12</title>
<g id="a_node12"><a xlink:title=" ">
<polygon fill="none" stroke="#bfbfbf" points="1187,-19 1101,-19 1101,0 1187,0 1187,-19"/>
<text text-anchor="middle" x="1144" y="-7" font-family="Helvetica,sans-Serif" font-size="10.00">shared_mutex</text>
</a>
</g>
</g>
<!-- Node3&#45;&gt;Node12 -->
<g id="edge11" class="edge">
<title>Node3&#45;&gt;Node12</title>
<path fill="none" stroke="midnightblue" d="M1365.58,-54.98C1319.63,-45.76 1246.25,-31.03 1196.65,-21.07"/>
<polygon fill="midnightblue" stroke="midnightblue" points="1197.24,-17.62 1186.75,-19.08 1195.86,-24.48 1197.24,-17.62"/>
</g>
<!-- Node13 -->
<g id="node13" class="node">
<title>Node13</title>
<g id="a_node13"><a xlink:title=" ">
<polygon fill="none" stroke="#bfbfbf" points="1270.5,-19 1205.5,-19 1205.5,0 1270.5,0 1270.5,-19"/>
<text text-anchor="middle" x="1238" y="-7" font-family="Helvetica,sans-Serif" font-size="10.00">functional</text>
</a>
</g>
</g>
<!-- Node3&#45;&gt;Node13 -->
<g id="edge12" class="edge">
<title>Node3&#45;&gt;Node13</title>
<path fill="none" stroke="midnightblue" d="M1380.69,-54.98C1352.15,-46.09 1307.17,-32.07 1275.36,-22.15"/>
<polygon fill="midnightblue" stroke="midnightblue" points="1276.12,-18.72 1265.53,-19.08 1274.03,-25.4 1276.12,-18.72"/>
</g>
<!-- Node14 -->
<g id="node14" class="node">
<title>Node14</title>
<g id="a_node14"><a xlink:title=" ">
<polygon fill="none" stroke="#bfbfbf" points="1359.5,-19 1288.5,-19 1288.5,0 1359.5,0 1359.5,-19"/>
<text text-anchor="middle" x="1324" y="-7" font-family="Helvetica,sans-Serif" font-size="10.00">semaphore</text>
</a>
</g>
</g>
<!-- Node3&#45;&gt;Node14 -->
<g id="edge13" class="edge">
<title>Node3&#45;&gt;Node14</title>
<path fill="none" stroke="midnightblue" d="M1394.5,-54.98C1381.6,-46.84 1361.9,-34.41 1346.6,-24.76"/>
<polygon fill="midnightblue" stroke="midnightblue" points="1348.07,-21.55 1337.74,-19.17 1344.33,-27.47 1348.07,-21.55"/>
</g>
<!-- Node15 -->
<g id="node15" class="node">
<title>Node15</title>
<g id="a_node15"><a xlink:title=" ">
<polygon fill="none" stroke="#bfbfbf" points="1438,-19 1378,-19 1378,0 1438,0 1438,-19"/>
<text text-anchor="middle" x="1408" y="-7" font-family="Helvetica,sans-Serif" font-size="10.00">concepts</text>
</a>
</g>
</g>
<!-- Node3&#45;&gt;Node15 -->
<g id="edge14" class="edge">
<title>Node3&#45;&gt;Node15</title>
<path fill="none" stroke="midnightblue" d="M1408,-54.75C1408,-47.8 1408,-37.85 1408,-29.13"/>
<polygon fill="midnightblue" stroke="midnightblue" points="1411.5,-29.09 1408,-19.09 1404.5,-29.09 1411.5,-29.09"/>
</g>
<!-- Node16 -->
<g id="node16" class="node">
<title>Node16</title>
<g id="a_node16"><a xlink:title=" ">
<polygon fill="none" stroke="#bfbfbf" points="1516,-19 1456,-19 1456,0 1516,0 1516,-19"/>
<text text-anchor="middle" x="1486" y="-7" font-family="Helvetica,sans-Serif" font-size="10.00">iostream</text>
</a>
</g>
</g>
<!-- Node3&#45;&gt;Node16 -->
<g id="edge15" class="edge">
<title>Node3&#45;&gt;Node16</title>
<path fill="none" stroke="midnightblue" d="M1420.53,-54.98C1432.4,-46.92 1450.46,-34.65 1464.61,-25.03"/>
<polygon fill="midnightblue" stroke="midnightblue" points="1466.94,-27.69 1473.24,-19.17 1463,-21.9 1466.94,-27.69"/>
</g>
<!-- Node17 -->
<g id="node17" class="node">
<title>Node17</title>
<g id="a_node17"><a xlink:title=" ">
<polygon fill="none" stroke="#bfbfbf" points="1589.5,-19 1534.5,-19 1534.5,0 1589.5,0 1589.5,-19"/>
<text text-anchor="middle" x="1562" y="-7" font-family="Helvetica,sans-Serif" font-size="10.00">fstream</text>
</a>
</g>
</g>
<!-- Node3&#45;&gt;Node17 -->
<g id="edge16" class="edge">
<title>Node3&#45;&gt;Node17</title>
<path fill="none" stroke="midnightblue" d="M1432.74,-54.98C1458.37,-46.16 1498.63,-32.31 1527.41,-22.41"/>
<polygon fill="midnightblue" stroke="midnightblue" points="1528.75,-25.65 1537.06,-19.08 1526.47,-19.03 1528.75,-25.65"/>
</g>
<!-- Node18 -->
<g id="node18" class="node">
<title>Node18</title>
<g id="a_node18"><a xlink:title=" ">
<polygon fill="none" stroke="#bfbfbf" points="1652,-19 1608,-19 1608,0 1652,0 1652,-19"/>
<text text-anchor="middle" x="1630" y="-7" font-family="Helvetica,sans-Serif" font-size="10.00">bitset</text>
</a>
</g>
</g>
<!-- Node3&#45;&gt;Node18 -->
<g id="edge17" class="edge">
<title>Node3&#45;&gt;Node18</title>
<path fill="none" stroke="midnightblue" d="M1445.93,-54.96C1484.34,-46.24 1545.41,-32.14 1598,-19 1598.1,-18.97 1598.2,-18.95 1598.3,-18.92"/>
<polygon fill="midnightblue" stroke="midnightblue" points="1599.17,-22.31 1607.99,-16.44 1597.43,-15.53 1599.17,-22.31"/>
</g>
<!-- Node19 -->
<g id="node19" class="node">
<title>Node19</title>
<g id="a_node19"><a xlink:title=" ">
<polygon fill="none" stroke="#bfbfbf" points="1728,-19 1670,-19 1670,0 1728,0 1728,-19"/>
<text text-anchor="middle" x="1699" y="-7" font-family="Helvetica,sans-Serif" font-size="10.00">memory</text>
</a>
</g>
</g>
<!-- Node3&#45;&gt;Node19 -->
<g id="edge18" class="edge">
<title>Node3&#45;&gt;Node19</title>
<path fill="none" stroke="midnightblue" d="M1460.46,-55C1509.52,-46.88 1585.06,-33.97 1659.91,-19.14"/>
<polygon fill="midnightblue" stroke="midnightblue" points="1660.86,-22.52 1669.98,-17.13 1659.49,-15.66 1660.86,-22.52"/>
</g>
<!-- Node20 -->
<g id="node20" class="node">
<title>Node20</title>
<g id="a_node20"><a xlink:title=" ">
<polygon fill="none" stroke="#bfbfbf" points="1800,-19 1746,-19 1746,0 1800,0 1800,-19"/>
<text text-anchor="middle" x="1773" y="-7" font-family="Helvetica,sans-Serif" font-size="10.00">random</text>
</a>
</g>
</g>
<!-- Node3&#45;&gt;Node20 -->
<g id="edge19" class="edge">
<title>Node3&#45;&gt;Node20</title>
<path fill="none" stroke="midnightblue" d="M1483.14,-55.45C1547.68,-48.05 1643.41,-35.92 1735.84,-19.05"/>
<polygon fill="midnightblue" stroke="midnightblue" points="1736.74,-22.45 1745.93,-17.19 1735.46,-15.56 1736.74,-22.45"/>
</g>
<!-- Node21 -->
<g id="node21" class="node">
<title>Node21</title>
<g id="a_node21"><a xlink:title=" ">
<polygon fill="none" stroke="#bfbfbf" points="1862,-19 1818,-19 1818,0 1862,0 1862,-19"/>
<text text-anchor="middle" x="1840" y="-7" font-family="Helvetica,sans-Serif" font-size="10.00">string</text>
</a>
</g>
</g>
<!-- Node3&#45;&gt;Node21 -->
<g id="edge20" class="edge">
<title>Node3&#45;&gt;Node21</title>
<path fill="none" stroke="midnightblue" d="M1483.17,-58.7C1561.93,-52.87 1689.32,-41.19 1807.78,-18.95"/>
<polygon fill="midnightblue" stroke="midnightblue" points="1808.58,-22.36 1817.75,-17.05 1807.27,-15.49 1808.58,-22.36"/>
</g>
<!-- Node22 -->
<g id="node22" class="node">
<title>Node22</title>
<g id="a_node22"><a xlink:title=" ">
<polygon fill="none" stroke="#bfbfbf" points="1927.5,-19 1880.5,-19 1880.5,0 1927.5,0 1927.5,-19"/>
<text text-anchor="middle" x="1904" y="-7" font-family="Helvetica,sans-Serif" font-size="10.00">vector</text>
</a>
</g>
</g>
<!-- Node3&#45;&gt;Node22 -->
<g id="edge21" class="edge">
<title>Node3&#45;&gt;Node22</title>
<path fill="none" stroke="midnightblue" d="M1483.06,-59.9C1572.89,-54.78 1727.92,-43.38 1870.09,-18.86"/>
<polygon fill="midnightblue" stroke="midnightblue" points="1871.06,-22.25 1880.3,-17.08 1869.85,-15.35 1871.06,-22.25"/>
</g>
<!-- Node23 -->
<g id="node23" class="node">
<title>Node23</title>
<g id="a_node23"><a xlink:title=" ">
<polygon fill="none" stroke="#bfbfbf" points="1994,-19 1946,-19 1946,0 1994,0 1994,-19"/>
<text text-anchor="middle" x="1970" y="-7" font-family="Helvetica,sans-Serif" font-size="10.00">thread</text>
</a>
</g>
</g>
<!-- Node3&#45;&gt;Node23 -->
<g id="edge22" class="edge">
<title>Node3&#45;&gt;Node23</title>
<path fill="none" stroke="midnightblue" d="M1483.4,-61.14C1584.46,-57.1 1769.44,-46.58 1936.02,-18.87"/>
<polygon fill="midnightblue" stroke="midnightblue" points="1936.67,-22.31 1945.95,-17.19 1935.51,-15.41 1936.67,-22.31"/>
</g>
<!-- Node24 -->
<g id="node24" class="node">
<title>Node24</title>
<g id="a_node24"><a xlink:title=" ">
<polygon fill="none" stroke="#bfbfbf" points="2060,-19 2012,-19 2012,0 2060,0 2060,-19"/>
<text text-anchor="middle" x="2036" y="-7" font-family="Helvetica,sans-Serif" font-size="10.00">mutex</text>
</a>
</g>
</g>
<!-- Node3&#45;&gt;Node24 -->
<g id="edge23" class="edge">
<title>Node3&#45;&gt;Node24</title>
<path fill="none" stroke="midnightblue" d="M1483.18,-62.14C1594.62,-59.19 1810.22,-49.86 2001.97,-18.86"/>
<polygon fill="midnightblue" stroke="midnightblue" points="2002.65,-22.29 2011.95,-17.22 2001.52,-15.38 2002.65,-22.29"/>
</g>
<!-- Node25 -->
<g id="node25" class="node">
<title>Node25</title>
<g id="a_node25"><a xlink:title=" ">
<polygon fill="none" stroke="#bfbfbf" points="2125.5,-19 2078.5,-19 2078.5,0 2125.5,0 2125.5,-19"/>
<text text-anchor="middle" x="2102" y="-7" font-family="Helvetica,sans-Serif" font-size="10.00">queue</text>
</a>
</g>
</g>
<!-- Node3&#45;&gt;Node25 -->
<g id="edge24" class="edge">
<title>Node3&#45;&gt;Node25</title>
<path fill="none" stroke="midnightblue" d="M1483.35,-62.94C1604.73,-61.05 1851.04,-53.12 2068.32,-18.76"/>
<polygon fill="midnightblue" stroke="midnightblue" points="2069,-22.2 2078.32,-17.16 2067.89,-15.29 2069,-22.2"/>
</g>
<!-- Node26 -->
<g id="node26" class="node">
<title>Node26</title>
<g id="a_node26"><a xlink:title=" ">
<polygon fill="none" stroke="#bfbfbf" points="2182,-19 2144,-19 2144,0 2182,0 2182,-19"/>
<text text-anchor="middle" x="2163" y="-7" font-family="Helvetica,sans-Serif" font-size="10.00">map</text>
</a>
</g>
</g>
<!-- Node3&#45;&gt;Node26 -->
<g id="edge25" class="edge">
<title>Node3&#45;&gt;Node26</title>
<path fill="none" stroke="midnightblue" d="M1483.16,-61.13C1638.98,-55.85 1993.68,-41.9 2133.76,-18.71"/>
<polygon fill="midnightblue" stroke="midnightblue" points="2134.61,-22.12 2143.86,-16.95 2133.41,-15.22 2134.61,-22.12"/>
</g>
<!-- Node27&#45;&gt;Node2 -->
<g id="edge27" class="edge">
<title>Node27&#45;&gt;Node2</title>
<path fill="none" stroke="midnightblue" d="M1243.92,-175.99C1272.15,-167.39 1316.58,-153.86 1352.08,-143.04"/>
<polygon fill="midnightblue" stroke="midnightblue" points="1353.29,-146.33 1361.84,-140.06 1351.25,-139.63 1353.29,-146.33"/>
</g>
<!-- Node28&#45;&gt;Node2 -->
<g id="edge29" class="edge">
<title>Node28&#45;&gt;Node2</title>
<path fill="none" stroke="midnightblue" d="M711.36,-637.33C511.54,-626.96 0,-593.43 0,-522 0,-522 0,-522 0,-239.5 0,-202.45 20.67,-192.16 54,-176 111.27,-148.23 1039.65,-131.68 1325.14,-127.22"/>
<polygon fill="midnightblue" stroke="midnightblue" points="1325.48,-130.72 1335.42,-127.06 1325.37,-123.72 1325.48,-130.72"/>
</g>
<!-- Node29 -->
<g id="node29" class="node">
<title>Node29</title>
<g id="a_node29"><a xlink:href="../../dd/db2/a00737.html" target="_top" xlink:title=" ">
<polygon fill="none" stroke="black" points="818.5,-591 647.5,-591 647.5,-572 818.5,-572 818.5,-591"/>
<text text-anchor="middle" x="733" y="-579" font-family="Helvetica,sans-Serif" font-size="10.00">discordcoreapi/UserEntities.hpp</text>
</a>
</g>
</g>
<!-- Node28&#45;&gt;Node29 -->
<g id="edge30" class="edge">
<title>Node28&#45;&gt;Node29</title>
<path fill="none" stroke="midnightblue" d="M776.2,-626.84C767.93,-618.35 757.38,-607.52 748.77,-598.69"/>
<polygon fill="midnightblue" stroke="midnightblue" points="751.03,-595.99 741.54,-591.27 746.01,-600.87 751.03,-595.99"/>
</g>
<!-- Node37 -->
<g id="node37" class="node">
<title>Node37</title>
<g id="a_node37"><a xlink:href="../../df/d9e/a00686.html" target="_top" xlink:title=" ">
<polygon fill="none" stroke="black" points="916,-305 778,-305 778,-286 916,-286 916,-305"/>
<text text-anchor="middle" x="847" y="-293" font-family="Helvetica,sans-Serif" font-size="10.00">discordcoreapi/Https.hpp</text>
</a>
</g>
</g>
<!-- Node28&#45;&gt;Node37 -->
<g id="edge67" class="edge">
<title>Node28&#45;&gt;Node37</title>
<path fill="none" stroke="midnightblue" d="M802.83,-626.59C810.74,-617.06 820.58,-603.97 827,-591 841.16,-562.38 847,-553.93 847,-522 847,-522 847,-522 847,-404.5 847,-373.19 847,-336.77 847,-315.23"/>
<polygon fill="midnightblue" stroke="midnightblue" points="850.5,-315.18 847,-305.18 843.5,-315.18 850.5,-315.18"/>
</g>
<!-- Node29&#45;&gt;Node2 -->
<g id="edge31" class="edge">
<title>Node29&#45;&gt;Node2</title>
<path fill="none" stroke="midnightblue" d="M647.43,-574.67C461.66,-560.86 38,-522.67 38,-461.5 38,-461.5 38,-461.5 38,-239.5 38,-203.85 55.31,-192.33 87,-176 142.07,-147.63 1044.29,-131.54 1325.19,-127.2"/>
<polygon fill="midnightblue" stroke="midnightblue" points="1325.37,-130.7 1335.32,-127.05 1325.26,-123.7 1325.37,-130.7"/>
</g>
<!-- Node30 -->
<g id="node30" class="node">
<title>Node30</title>
<g id="a_node30"><a xlink:href="../../df/d3b/a00728.html" target="_top" xlink:title=" ">
<polygon fill="none" stroke="black" points="1480,-536 1336,-536 1336,-506 1480,-506 1480,-536"/>
<text text-anchor="start" x="1344" y="-524" font-family="Helvetica,sans-Serif" font-size="10.00">discordcoreapi/WebSocket</text>
<text text-anchor="middle" x="1408" y="-513" font-family="Helvetica,sans-Serif" font-size="10.00">Entities.hpp</text>
</a>
</g>
</g>
<!-- Node29&#45;&gt;Node30 -->
<g id="edge32" class="edge">
<title>Node29&#45;&gt;Node30</title>
<path fill="none" stroke="midnightblue" d="M818.83,-573.06C949.51,-561.74 1196.74,-540.31 1325.45,-529.15"/>
<polygon fill="midnightblue" stroke="midnightblue" points="1325.98,-532.62 1335.64,-528.27 1325.37,-525.65 1325.98,-532.62"/>
</g>
<!-- Node30&#45;&gt;Node2 -->
<g id="edge33" class="edge">
<title>Node30&#45;&gt;Node2</title>
<path fill="none" stroke="midnightblue" d="M1416.06,-505.82C1427.21,-484.82 1446,-443.9 1446,-406.5 1446,-406.5 1446,-406.5 1446,-239.5 1446,-206.92 1431.74,-171.67 1420.7,-149.24"/>
<polygon fill="midnightblue" stroke="midnightblue" points="1423.73,-147.49 1416.06,-140.18 1417.5,-150.68 1423.73,-147.49"/>
</g>
<!-- Node30&#45;&gt;Node27 -->
<g id="edge64" class="edge">
<title>Node30&#45;&gt;Node27</title>
<path fill="none" stroke="midnightblue" d="M1335.91,-513.6C1272.41,-506.54 1186.2,-493.01 1161,-470 1139.24,-450.14 1142,-435.96 1142,-406.5 1142,-406.5 1142,-406.5 1142,-294.5 1142,-255.8 1174.73,-220.81 1196.65,-201.71"/>
<polygon fill="midnightblue" stroke="midnightblue" points="1199.02,-204.3 1204.44,-195.19 1194.52,-198.93 1199.02,-204.3"/>
</g>
<!-- Node31 -->
<g id="node31" class="node">
<title>Node31</title>
<g id="a_node31"><a xlink:href="../../dd/dd8/a00719.html" target="_top" xlink:title=" ">
<polygon fill="none" stroke="black" points="1705.5,-250 1526.5,-250 1526.5,-231 1705.5,-231 1705.5,-250"/>
<text text-anchor="middle" x="1616" y="-238" font-family="Helvetica,sans-Serif" font-size="10.00">discordcoreapi/AudioDecoder.hpp</text>
</a>
</g>
</g>
<!-- Node30&#45;&gt;Node31 -->
<g id="edge34" class="edge">
<title>Node30&#45;&gt;Node31</title>
<path fill="none" stroke="midnightblue" d="M1480.31,-516.99C1554.14,-509.57 1658,-485.15 1658,-406.5 1658,-406.5 1658,-406.5 1658,-349.5 1658,-315.46 1639.65,-279.24 1627.21,-258.59"/>
<polygon fill="midnightblue" stroke="midnightblue" points="1630.12,-256.63 1621.84,-250.02 1624.19,-260.35 1630.12,-256.63"/>
</g>
<!-- Node34 -->
<g id="node34" class="node">
<title>Node34</title>
<g id="a_node34"><a xlink:href="../../dd/d5c/a00752.html" target="_top" xlink:title=" ">
<polygon fill="none" stroke="black" points="1379.5,-470 1170.5,-470 1170.5,-451 1379.5,-451 1379.5,-470"/>
<text text-anchor="middle" x="1275" y="-458" font-family="Helvetica,sans-Serif" font-size="10.00">discordcoreapi/CommandController.hpp</text>
</a>
</g>
</g>
<!-- Node30&#45;&gt;Node34 -->
<g id="edge39" class="edge">
<title>Node30&#45;&gt;Node34</title>
<path fill="none" stroke="midnightblue" d="M1376.14,-505.99C1354.15,-496.31 1325.15,-483.56 1303.84,-474.18"/>
<polygon fill="midnightblue" stroke="midnightblue" points="1305.2,-470.96 1294.64,-470.14 1302.39,-477.37 1305.2,-470.96"/>
</g>
<!-- Node36 -->
<g id="node36" class="node">
<title>Node36</title>
<g id="a_node36"><a xlink:href="../../d3/d4f/a00761.html" target="_top" xlink:title=" ">
<polygon fill="none" stroke="black" points="1380.5,-360 1213.5,-360 1213.5,-341 1380.5,-341 1380.5,-360"/>
<text text-anchor="middle" x="1297" y="-348" font-family="Helvetica,sans-Serif" font-size="10.00">discordcoreapi/ThreadPool.hpp</text>
</a>
</g>
</g>
<!-- Node30&#45;&gt;Node36 -->
<g id="edge66" class="edge">
<title>Node30&#45;&gt;Node36</title>
<path fill="none" stroke="midnightblue" d="M1407.84,-505.75C1406.87,-490.14 1402.87,-465.4 1388,-451 1341.54,-406.01 1286.68,-466.08 1247,-415 1233.77,-397.97 1254.44,-378.51 1273.08,-365.67"/>
<polygon fill="midnightblue" stroke="midnightblue" points="1275.16,-368.49 1281.64,-360.1 1271.35,-362.62 1275.16,-368.49"/>
</g>
<!-- Node38 -->
<g id="node38" class="node">
<title>Node38</title>
<g id="a_node38"><a xlink:href="../../dd/d57/a00701.html" target="_top" xlink:title=" ">
<polygon fill="none" stroke="black" points="746.5,-250 583.5,-250 583.5,-231 746.5,-231 746.5,-250"/>
<text text-anchor="middle" x="665" y="-238" font-family="Helvetica,sans-Serif" font-size="10.00">discordcoreapi/SSLClients.hpp</text>
</a>
</g>
</g>
<!-- Node30&#45;&gt;Node38 -->
<g id="edge65" class="edge">
<title>Node30&#45;&gt;Node38</title>
<path fill="none" stroke="midnightblue" d="M1335.92,-515.15C1263.69,-508.91 1158.91,-495.67 1128,-470 1104.79,-450.72 1104,-436.67 1104,-406.5 1104,-406.5 1104,-406.5 1104,-349.5 1104,-278.62 885.49,-254 756.8,-245.64"/>
<polygon fill="midnightblue" stroke="midnightblue" points="756.74,-242.13 746.54,-245 756.3,-249.12 756.74,-242.13"/>
</g>
<!-- Node52 -->
<g id="node52" class="node">
<title>Node52</title>
<g id="a_node52"><a xlink:href="../../d4/dfa/a00746.html" target="_top" xlink:title=" ">
<polygon fill="none" stroke="black" points="1629.5,-415 1474.5,-415 1474.5,-396 1629.5,-396 1629.5,-415"/>
<text text-anchor="middle" x="1552" y="-403" font-family="Helvetica,sans-Serif" font-size="10.00">discordcoreapi/ErlPacker.hpp</text>
</a>
</g>
</g>
<!-- Node30&#45;&gt;Node52 -->
<g id="edge62" class="edge">
<title>Node30&#45;&gt;Node52</title>
<path fill="none" stroke="midnightblue" d="M1425.95,-505.85C1453.16,-484.41 1504.65,-443.82 1532.66,-421.74"/>
<polygon fill="midnightblue" stroke="midnightblue" points="1535.19,-424.21 1540.87,-415.27 1530.85,-418.71 1535.19,-424.21"/>
</g>
<!-- Node31&#45;&gt;Node2 -->
<g id="edge36" class="edge">
<title>Node31&#45;&gt;Node2</title>
<path fill="none" stroke="midnightblue" d="M1600.37,-230.97C1567.13,-212.83 1488.76,-170.07 1442.96,-145.08"/>
<polygon fill="midnightblue" stroke="midnightblue" points="1444.44,-141.9 1433.99,-140.18 1441.09,-148.04 1444.44,-141.9"/>
</g>
<!-- Node31&#45;&gt;Node27 -->
<g id="edge35" class="edge">
<title>Node31&#45;&gt;Node27</title>
<path fill="none" stroke="midnightblue" d="M1551.73,-230.98C1480.55,-221.55 1365.92,-206.36 1290.77,-196.41"/>
<polygon fill="midnightblue" stroke="midnightblue" points="1290.81,-192.88 1280.44,-195.04 1289.89,-199.82 1290.81,-192.88"/>
</g>
<!-- Node32 -->
<g id="node32" class="node">
<title>Node32</title>
<g id="a_node32"><a xlink:title=" ">
<polygon fill="none" stroke="#bfbfbf" points="1681.5,-195 1550.5,-195 1550.5,-176 1681.5,-176 1681.5,-195"/>
<text text-anchor="middle" x="1616" y="-183" font-family="Helvetica,sans-Serif" font-size="10.00">libavformat/avformat.h</text>
</a>
</g>
</g>
<!-- Node31&#45;&gt;Node32 -->
<g id="edge37" class="edge">
<title>Node31&#45;&gt;Node32</title>
<path fill="none" stroke="midnightblue" d="M1616,-230.75C1616,-223.8 1616,-213.85 1616,-205.13"/>
<polygon fill="midnightblue" stroke="midnightblue" points="1619.5,-205.09 1616,-195.09 1612.5,-205.09 1619.5,-205.09"/>
</g>
<!-- Node33 -->
<g id="node33" class="node">
<title>Node33</title>
<g id="a_node33"><a xlink:title=" ">
<polygon fill="none" stroke="#bfbfbf" points="1858.5,-195 1699.5,-195 1699.5,-176 1858.5,-176 1858.5,-195"/>
<text text-anchor="middle" x="1779" y="-183" font-family="Helvetica,sans-Serif" font-size="10.00">libswresample/swresample.h</text>
</a>
</g>
</g>
<!-- Node31&#45;&gt;Node33 -->
<g id="edge38" class="edge">
<title>Node31&#45;&gt;Node33</title>
<path fill="none" stroke="midnightblue" d="M1642.19,-230.98C1669.44,-222.13 1712.3,-208.19 1742.78,-198.28"/>
<polygon fill="midnightblue" stroke="midnightblue" points="1744.18,-201.5 1752.61,-195.08 1742.01,-194.85 1744.18,-201.5"/>
</g>
<!-- Node34&#45;&gt;Node2 -->
<g id="edge40" class="edge">
<title>Node34&#45;&gt;Node2</title>
<path fill="none" stroke="midnightblue" d="M1263.07,-450.82C1238.68,-431.94 1186.8,-385.26 1204,-341 1238.47,-252.28 1329.64,-179.51 1377.57,-145.97"/>
<polygon fill="midnightblue" stroke="midnightblue" points="1379.75,-148.73 1386,-140.17 1375.78,-142.96 1379.75,-148.73"/>
</g>
<!-- Node35 -->
<g id="node35" class="node">
<title>Node35</title>
<g id="a_node35"><a xlink:href="../../d3/d2c/a00764.html" target="_top" xlink:title=" ">
<polygon fill="none" stroke="black" points="1418,-415 1256,-415 1256,-396 1418,-396 1418,-415"/>
<text text-anchor="middle" x="1337" y="-403" font-family="Helvetica,sans-Serif" font-size="10.00">discordcoreapi/CoRoutine.hpp</text>
</a>
</g>
</g>
<!-- Node34&#45;&gt;Node35 -->
<g id="edge41" class="edge">
<title>Node34&#45;&gt;Node35</title>
<path fill="none" stroke="midnightblue" d="M1284.96,-450.98C1294.13,-443.15 1307.94,-431.34 1319.03,-421.86"/>
<polygon fill="midnightblue" stroke="midnightblue" points="1321.53,-424.33 1326.86,-415.17 1316.98,-419.01 1321.53,-424.33"/>
</g>
<!-- Node35&#45;&gt;Node2 -->
<g id="edge42" class="edge">
<title>Node35&#45;&gt;Node2</title>
<path fill="none" stroke="midnightblue" d="M1350.9,-395.93C1362.66,-387.99 1379.15,-375.14 1389,-360 1405.07,-335.31 1408,-325.96 1408,-296.5 1408,-296.5 1408,-296.5 1408,-239.5 1408,-208.85 1408,-173.54 1408,-150.56"/>
<polygon fill="midnightblue" stroke="midnightblue" points="1411.5,-150.33 1408,-140.33 1404.5,-150.33 1411.5,-150.33"/>
</g>
<!-- Node35&#45;&gt;Node36 -->
<g id="edge43" class="edge">
<title>Node35&#45;&gt;Node36</title>
<path fill="none" stroke="midnightblue" d="M1330.39,-395.75C1324.74,-388.26 1316.46,-377.28 1309.55,-368.13"/>
<polygon fill="midnightblue" stroke="midnightblue" points="1312.3,-365.96 1303.48,-360.09 1306.71,-370.18 1312.3,-365.96"/>
</g>
<!-- Node36&#45;&gt;Node2 -->
<g id="edge44" class="edge">
<title>Node36&#45;&gt;Node2</title>
<path fill="none" stroke="midnightblue" d="M1297.65,-340.59C1298.79,-328.04 1301.77,-304.62 1309,-286 1329.66,-232.79 1368.25,-177.67 1390.66,-148.04"/>
<polygon fill="midnightblue" stroke="midnightblue" points="1393.49,-150.1 1396.79,-140.04 1387.93,-145.85 1393.49,-150.1"/>
</g>
<!-- Node36&#45;&gt;Node37 -->
<g id="edge45" class="edge">
<title>Node36&#45;&gt;Node37</title>
<path fill="none" stroke="midnightblue" d="M1224.7,-340.98C1143.05,-331.37 1010.6,-315.77 926.21,-305.83"/>
<polygon fill="midnightblue" stroke="midnightblue" points="926.51,-302.34 916.17,-304.65 925.69,-309.29 926.51,-302.34"/>
</g>
<!-- Node51 -->
<g id="node51" class="node">
<title>Node51</title>
<g id="a_node51"><a xlink:title=" ">
<polygon fill="none" stroke="#bfbfbf" points="1380,-305 1318,-305 1318,-286 1380,-286 1380,-305"/>
<text text-anchor="middle" x="1349" y="-293" font-family="Helvetica,sans-Serif" font-size="10.00">coroutine</text>
</a>
</g>
</g>
<!-- Node36&#45;&gt;Node51 -->
<g id="edge61" class="edge">
<title>Node36&#45;&gt;Node51</title>
<path fill="none" stroke="midnightblue" d="M1305.59,-340.75C1313.16,-333.03 1324.38,-321.6 1333.51,-312.28"/>
<polygon fill="midnightblue" stroke="midnightblue" points="1336.07,-314.68 1340.57,-305.09 1331.07,-309.78 1336.07,-314.68"/>
</g>
<!-- Node37&#45;&gt;Node38 -->
<g id="edge46" class="edge">
<title>Node37&#45;&gt;Node38</title>
<path fill="none" stroke="midnightblue" d="M817.76,-285.98C786.94,-277.01 738.22,-262.82 704.11,-252.89"/>
<polygon fill="midnightblue" stroke="midnightblue" points="705.05,-249.52 694.47,-250.08 703.09,-256.24 705.05,-249.52"/>
</g>
<!-- Node38&#45;&gt;Node2 -->
<g id="edge47" class="edge">
<title>Node38&#45;&gt;Node2</title>
<path fill="none" stroke="midnightblue" d="M583.47,-239.12C433.79,-237.57 127.46,-230.09 95,-195 89.27,-188.8 89.14,-182.08 95,-176 137.73,-131.61 1043.76,-126.53 1325.29,-126.03"/>
<polygon fill="midnightblue" stroke="midnightblue" points="1325.45,-129.53 1335.44,-126.01 1325.43,-122.53 1325.45,-129.53"/>
</g>
<!-- Node38&#45;&gt;Node27 -->
<g id="edge48" class="edge">
<title>Node38&#45;&gt;Node27</title>
<path fill="none" stroke="midnightblue" d="M746.6,-231.65C845.42,-222.15 1011.74,-206.15 1117.57,-195.97"/>
<polygon fill="midnightblue" stroke="midnightblue" points="1118,-199.44 1127.62,-195 1117.33,-192.48 1118,-199.44"/>
</g>
<!-- Node39 -->
<g id="node39" class="node">
<title>Node39</title>
<g id="a_node39"><a xlink:title=" ">
<polygon fill="none" stroke="#bfbfbf" points="1011.5,-195 932.5,-195 932.5,-176 1011.5,-176 1011.5,-195"/>
<text text-anchor="middle" x="972" y="-183" font-family="Helvetica,sans-Serif" font-size="10.00">openssl/err.h</text>
</a>
</g>
</g>
<!-- Node38&#45;&gt;Node39 -->
<g id="edge49" class="edge">
<title>Node38&#45;&gt;Node39</title>
<path fill="none" stroke="midnightblue" d="M714.46,-230.98C764.27,-222.4 843.6,-208.73 922.33,-195.12"/>
<polygon fill="midnightblue" stroke="midnightblue" points="923.16,-198.52 932.42,-193.37 921.97,-191.62 923.16,-198.52"/>
</g>
<!-- Node40 -->
<g id="node40" class="node">
<title>Node40</title>
<g id="a_node40"><a xlink:title=" ">
<polygon fill="none" stroke="#bfbfbf" points="1110,-195 1030,-195 1030,-176 1110,-176 1110,-195"/>
<text text-anchor="middle" x="1070" y="-183" font-family="Helvetica,sans-Serif" font-size="10.00">openssl/ssl.h</text>
</a>
</g>
</g>
<!-- Node38&#45;&gt;Node40 -->
<g id="edge50" class="edge">
<title>Node38&#45;&gt;Node40</title>
<path fill="none" stroke="midnightblue" d="M740.61,-230.99C812.57,-222.66 923.83,-209.19 1020,-195 1020.1,-194.99 1020.2,-194.97 1020.3,-194.96"/>
<polygon fill="midnightblue" stroke="midnightblue" points="1020.56,-198.46 1029.91,-193.47 1019.49,-191.54 1020.56,-198.46"/>
</g>
<!-- Node41 -->
<g id="node41" class="node">
<title>Node41</title>
<g id="a_node41"><a xlink:title=" ">
<polygon fill="none" stroke="#bfbfbf" points="151.5,-195 104.5,-195 104.5,-176 151.5,-176 151.5,-195"/>
<text text-anchor="middle" x="128" y="-183" font-family="Helvetica,sans-Serif" font-size="10.00">fcntl.h</text>
</a>
</g>
</g>
<!-- Node38&#45;&gt;Node41 -->
<g id="edge51" class="edge">
<title>Node38&#45;&gt;Node41</title>
<path fill="none" stroke="midnightblue" d="M583.1,-236.61C484.89,-232.17 315.29,-221.42 161.75,-195.03"/>
<polygon fill="midnightblue" stroke="midnightblue" points="162.12,-191.54 151.66,-193.27 160.91,-198.44 162.12,-191.54"/>
</g>
<!-- Node42 -->
<g id="node42" class="node">
<title>Node42</title>
<g id="a_node42"><a xlink:title=" ">
<polygon fill="none" stroke="#bfbfbf" points="222.5,-195 169.5,-195 169.5,-176 222.5,-176 222.5,-195"/>
<text text-anchor="middle" x="196" y="-183" font-family="Helvetica,sans-Serif" font-size="10.00">netdb.h</text>
</a>
</g>
</g>
<!-- Node38&#45;&gt;Node42 -->
<g id="edge52" class="edge">
<title>Node38&#45;&gt;Node42</title>
<path fill="none" stroke="midnightblue" d="M583.17,-234.26C498.01,-228.09 360.65,-216.12 232.64,-194.88"/>
<polygon fill="midnightblue" stroke="midnightblue" points="233.1,-191.41 222.66,-193.2 231.94,-198.31 233.1,-191.41"/>
</g>
<!-- Node43 -->
<g id="node43" class="node">
<title>Node43</title>
<g id="a_node43"><a xlink:title=" ">
<polygon fill="none" stroke="#bfbfbf" points="313,-195 241,-195 241,-176 313,-176 313,-195"/>
<text text-anchor="middle" x="277" y="-183" font-family="Helvetica,sans-Serif" font-size="10.00">netinet/in.h</text>
</a>
</g>
</g>
<!-- Node38&#45;&gt;Node43 -->
<g id="edge53" class="edge">
<title>Node38&#45;&gt;Node43</title>
<path fill="none" stroke="midnightblue" d="M589.54,-230.98C522.24,-223.09 420.78,-210.48 323.34,-195.14"/>
<polygon fill="midnightblue" stroke="midnightblue" points="323.74,-191.66 313.32,-193.55 322.65,-198.57 323.74,-191.66"/>
</g>
<!-- Node44 -->
<g id="node44" class="node">
<title>Node44</title>
<g id="a_node44"><a xlink:title=" ">
<polygon fill="none" stroke="#bfbfbf" points="409,-195 331,-195 331,-176 409,-176 409,-195"/>
<text text-anchor="middle" x="370" y="-183" font-family="Helvetica,sans-Serif" font-size="10.00">netinet/tcp.h</text>
</a>
</g>
</g>
<!-- Node38&#45;&gt;Node44 -->
<g id="edge54" class="edge">
<title>Node38&#45;&gt;Node44</title>
<path fill="none" stroke="midnightblue" d="M617.6,-230.98C563.17,-221.21 474.3,-205.24 419.15,-195.33"/>
<polygon fill="midnightblue" stroke="midnightblue" points="419.72,-191.88 409.26,-193.55 418.48,-198.77 419.72,-191.88"/>
</g>
<!-- Node45 -->
<g id="node45" class="node">
<title>Node45</title>
<g id="a_node45"><a xlink:title=" ">
<polygon fill="none" stroke="#bfbfbf" points="480.5,-195 427.5,-195 427.5,-176 480.5,-176 480.5,-195"/>
<text text-anchor="middle" x="454" y="-183" font-family="Helvetica,sans-Serif" font-size="10.00">stdint.h</text>
</a>
</g>
</g>
<!-- Node38&#45;&gt;Node45 -->
<g id="edge55" class="edge">
<title>Node38&#45;&gt;Node45</title>
<path fill="none" stroke="midnightblue" d="M631.1,-230.98C592.63,-221.32 530.1,-205.62 490.56,-195.68"/>
<polygon fill="midnightblue" stroke="midnightblue" points="491.34,-192.27 480.79,-193.23 489.63,-199.06 491.34,-192.27"/>
</g>
<!-- Node46 -->
<g id="node46" class="node">
<title>Node46</title>
<g id="a_node46"><a xlink:title=" ">
<polygon fill="none" stroke="#bfbfbf" points="567.5,-195 498.5,-195 498.5,-176 567.5,-176 567.5,-195"/>
<text text-anchor="middle" x="533" y="-183" font-family="Helvetica,sans-Serif" font-size="10.00">sys/epoll.h</text>
</a>
</g>
</g>
<!-- Node38&#45;&gt;Node46 -->
<g id="edge56" class="edge">
<title>Node38&#45;&gt;Node46</title>
<path fill="none" stroke="midnightblue" d="M643.79,-230.98C622.27,-222.34 588.72,-208.87 564.17,-199.02"/>
<polygon fill="midnightblue" stroke="midnightblue" points="565.18,-195.65 554.59,-195.17 562.57,-202.14 565.18,-195.65"/>
</g>
<!-- Node47 -->
<g id="node47" class="node">
<title>Node47</title>
<g id="a_node47"><a xlink:title=" ">
<polygon fill="none" stroke="#bfbfbf" points="654.5,-195 585.5,-195 585.5,-176 654.5,-176 654.5,-195"/>
<text text-anchor="middle" x="620" y="-183" font-family="Helvetica,sans-Serif" font-size="10.00">arpa/inet.h</text>
</a>
</g>
</g>
<!-- Node38&#45;&gt;Node47 -->
<g id="edge57" class="edge">
<title>Node38&#45;&gt;Node47</title>
<path fill="none" stroke="midnightblue" d="M657.57,-230.75C651.15,-223.18 641.69,-212.05 633.88,-202.84"/>
<polygon fill="midnightblue" stroke="midnightblue" points="636.43,-200.45 627.29,-195.09 631.1,-204.98 636.43,-200.45"/>
</g>
<!-- Node48 -->
<g id="node48" class="node">
<title>Node48</title>
<g id="a_node48"><a xlink:title=" ">
<polygon fill="none" stroke="#bfbfbf" points="749.5,-195 672.5,-195 672.5,-176 749.5,-176 749.5,-195"/>
<text text-anchor="middle" x="711" y="-183" font-family="Helvetica,sans-Serif" font-size="10.00">sys/socket.h</text>
</a>
</g>
</g>
<!-- Node38&#45;&gt;Node48 -->
<g id="edge58" class="edge">
<title>Node38&#45;&gt;Node48</title>
<path fill="none" stroke="midnightblue" d="M672.6,-230.75C679.16,-223.18 688.82,-212.05 696.81,-202.84"/>
<polygon fill="midnightblue" stroke="midnightblue" points="699.63,-204.94 703.55,-195.09 694.35,-200.35 699.63,-204.94"/>
</g>
<!-- Node49 -->
<g id="node49" class="node">
<title>Node49</title>
<g id="a_node49"><a xlink:title=" ">
<polygon fill="none" stroke="#bfbfbf" points="840,-195 768,-195 768,-176 840,-176 840,-195"/>
<text text-anchor="middle" x="804" y="-183" font-family="Helvetica,sans-Serif" font-size="10.00">sys/types.h</text>
</a>
</g>
</g>
<!-- Node38&#45;&gt;Node49 -->
<g id="edge59" class="edge">
<title>Node38&#45;&gt;Node49</title>
<path fill="none" stroke="midnightblue" d="M687.33,-230.98C710.2,-222.27 745.96,-208.63 771.86,-198.75"/>
<polygon fill="midnightblue" stroke="midnightblue" points="773.16,-202 781.26,-195.17 770.67,-195.46 773.16,-202"/>
</g>
<!-- Node50 -->
<g id="node50" class="node">
<title>Node50</title>
<g id="a_node50"><a xlink:title=" ">
<polygon fill="none" stroke="#bfbfbf" points="914,-195 858,-195 858,-176 914,-176 914,-195"/>
<text text-anchor="middle" x="886" y="-183" font-family="Helvetica,sans-Serif" font-size="10.00">unistd.h</text>
</a>
</g>
</g>
<!-- Node38&#45;&gt;Node50 -->
<g id="edge60" class="edge">
<title>Node38&#45;&gt;Node50</title>
<path fill="none" stroke="midnightblue" d="M700.51,-230.98C740.89,-221.3 806.57,-205.55 847.97,-195.62"/>
<polygon fill="midnightblue" stroke="midnightblue" points="849.03,-198.96 857.94,-193.23 847.4,-192.16 849.03,-198.96"/>
</g>
<!-- Node52&#45;&gt;Node2 -->
<g id="edge63" class="edge">
<title>Node52&#45;&gt;Node2</title>
<path fill="none" stroke="midnightblue" d="M1541.67,-395.87C1522.65,-378.93 1484,-339.26 1484,-296.5 1484,-296.5 1484,-296.5 1484,-239.5 1484,-209.33 1476.61,-201.18 1460,-176 1452.96,-165.33 1443.26,-155.21 1434.15,-146.91"/>
<polygon fill="midnightblue" stroke="midnightblue" points="1436.21,-144.06 1426.37,-140.12 1431.6,-149.33 1436.21,-144.06"/>
</g>
<!-- Node53&#45;&gt;Node2 -->
<g id="edge69" class="edge">
<title>Node53&#45;&gt;Node2</title>
<path fill="none" stroke="midnightblue" d="M1850.55,-572.85C1906.8,-566.44 1970.58,-555.15 1991,-536 2015.92,-512.62 2010,-495.67 2010,-461.5 2010,-461.5 2010,-461.5 2010,-239.5 2010,-178.37 1946.54,-193.59 1888,-176 1752.96,-135.43 1588.03,-126.59 1490.86,-125.3"/>
<polygon fill="midnightblue" stroke="midnightblue" points="1490.85,-121.8 1480.81,-125.19 1490.77,-128.8 1490.85,-121.8"/>
</g>
<!-- Node53&#45;&gt;Node30 -->
<g id="edge74" class="edge">
<title>Node53&#45;&gt;Node30</title>
<path fill="none" stroke="midnightblue" d="M1703.69,-571.99C1647.71,-562.53 1556.42,-547.09 1490.07,-535.88"/>
<polygon fill="midnightblue" stroke="midnightblue" points="1490.5,-532.4 1480.06,-534.18 1489.33,-539.3 1490.5,-532.4"/>
</g>
<!-- Node53&#45;&gt;Node35 -->
<g id="edge73" class="edge">
<title>Node53&#45;&gt;Node35</title>
<path fill="none" stroke="midnightblue" d="M1733.6,-571.99C1665.86,-543.72 1448.08,-452.85 1367.42,-419.19"/>
<polygon fill="midnightblue" stroke="midnightblue" points="1368.43,-415.82 1357.85,-415.2 1365.73,-422.28 1368.43,-415.82"/>
</g>
<!-- Node54 -->
<g id="node54" class="node">
<title>Node54</title>
<g id="a_node54"><a xlink:href="../../db/d77/a00683.html" target="_top" xlink:title=" ">
<polygon fill="none" stroke="black" points="1902,-530.5 1724,-530.5 1724,-511.5 1902,-511.5 1902,-530.5"/>
<text text-anchor="middle" x="1813" y="-518.5" font-family="Helvetica,sans-Serif" font-size="10.00">discordcoreapi/AudioEncoder.hpp</text>
</a>
</g>
</g>
<!-- Node53&#45;&gt;Node54 -->
<g id="edge70" class="edge">
<title>Node53&#45;&gt;Node54</title>
<path fill="none" stroke="midnightblue" d="M1762.71,-571.87C1771.68,-562.97 1785.88,-548.89 1796.91,-537.95"/>
<polygon fill="midnightblue" stroke="midnightblue" points="1799.62,-540.19 1804.26,-530.67 1794.69,-535.22 1799.62,-540.19"/>
</g>
<!-- Node56 -->
<g id="node56" class="node">
<title>Node56</title>
<g id="a_node56"><a xlink:title=" ">
<polygon fill="none" stroke="#bfbfbf" points="1982,-530.5 1920,-530.5 1920,-511.5 1982,-511.5 1982,-530.5"/>
<text text-anchor="middle" x="1951" y="-518.5" font-family="Helvetica,sans-Serif" font-size="10.00">sodium.h</text>
</a>
</g>
</g>
<!-- Node53&#45;&gt;Node56 -->
<g id="edge75" class="edge">
<title>Node53&#45;&gt;Node56</title>
<path fill="none" stroke="midnightblue" d="M1786.34,-571.95C1818.21,-563.38 1868.19,-549.55 1911,-536 1913.25,-535.29 1915.56,-534.54 1917.89,-533.76"/>
<polygon fill="midnightblue" stroke="midnightblue" points="1919.05,-537.06 1927.39,-530.53 1916.8,-530.44 1919.05,-537.06"/>
</g>
<!-- Node54&#45;&gt;Node2 -->
<g id="edge71" class="edge">
<title>Node54&#45;&gt;Node2</title>
<path fill="none" stroke="midnightblue" d="M1818.63,-511.41C1845.8,-468.78 1958.43,-277.93 1867,-176 1842.4,-148.58 1616.44,-134.76 1491,-129.14"/>
<polygon fill="midnightblue" stroke="midnightblue" points="1490.81,-125.63 1480.67,-128.69 1490.5,-132.62 1490.81,-125.63"/>
</g>
<!-- Node55 -->
<g id="node55" class="node">
<title>Node55</title>
<g id="a_node55"><a xlink:title=" ">
<polygon fill="none" stroke="#bfbfbf" points="1981.5,-470 1906.5,-470 1906.5,-451 1981.5,-451 1981.5,-470"/>
<text text-anchor="middle" x="1944" y="-458" font-family="Helvetica,sans-Serif" font-size="10.00">opus/opus.h</text>
</a>
</g>
</g>
<!-- Node54&#45;&gt;Node55 -->
<g id="edge72" class="edge">
<title>Node54&#45;&gt;Node55</title>
<path fill="none" stroke="midnightblue" d="M1832.05,-511.49C1853.97,-501.7 1890.21,-485.52 1915.5,-474.23"/>
<polygon fill="midnightblue" stroke="midnightblue" points="1917.22,-477.29 1924.93,-470.02 1914.37,-470.9 1917.22,-477.29"/>
</g>
</g>
</svg>
