<?xml version="1.0" encoding="UTF-8" standalone="no"?>
<!DOCTYPE svg PUBLIC "-//W3C//DTD SVG 1.1//EN"
 "http://www.w3.org/Graphics/SVG/1.1/DTD/svg11.dtd">
<!-- Generated by graphviz version 3.0.0 (20220226.1711)
 -->
<!-- Title: WebSocketEntities.hpp Pages: 1 -->
<svg width="2137pt" height="543pt"
 viewBox="0.00 0.00 2136.69 543.00" xmlns="http://www.w3.org/2000/svg" xmlns:xlink="http://www.w3.org/1999/xlink">
<g id="graph0" class="graph" transform="scale(1 1) rotate(0) translate(4 539)">
<title>WebSocketEntities.hpp</title>
<!-- Node1 -->
<g id="node1" class="node">
<title>Node1</title>
<g id="a_node1"><a xlink:title=" ">
<polygon fill="#bfbfbf" stroke="black" points="999.69,-515.5 999.69,-534.5 1118.69,-534.5 1118.69,-515.5 999.69,-515.5"/>
<text text-anchor="middle" x="1059.19" y="-522.5" font-family="Helvetica,sans-Serif" font-size="10.00">WebSocketEntities.hpp</text>
</a>
</g>
</g>
<!-- Node2 -->
<g id="node2" class="node">
<title>Node2</title>
<g id="a_node2"><a xlink:href="../../d4/deb/a00710.html" target="_top" xlink:title=" ">
<polygon fill="none" stroke="black" points="1300.69,-112.5 1300.69,-142.5 1431.69,-142.5 1431.69,-112.5 1300.69,-112.5"/>
<text text-anchor="start" x="1308.69" y="-130.5" font-family="Helvetica,sans-Serif" font-size="10.00">discordcoreapi/Foundation</text>
<text text-anchor="middle" x="1366.19" y="-119.5" font-family="Helvetica,sans-Serif" font-size="10.00">Entities.hpp</text>
</a>
</g>
</g>
<!-- Node1&#45;&gt;Node2 -->
<g id="edge1" class="edge">
<title>Node1&#45;&gt;Node2</title>
<path fill="none" stroke="midnightblue" d="M999.65,-524.11C776.34,-523.74 1.19,-515.16 1.19,-414 1.19,-414 1.19,-414 1.19,-244 1.19,-213.9 -3.56,-197.5 20.19,-179 70.49,-139.8 1012.85,-130.74 1290.08,-128.91"/>
<polygon fill="midnightblue" stroke="midnightblue" points="1290.47,-132.41 1300.44,-128.85 1290.42,-125.41 1290.47,-132.41"/>
</g>
<!-- Node28 -->
<g id="node28" class="node">
<title>Node28</title>
<g id="a_node28"><a xlink:href="../../d4/d9b/a00680.html" target="_top" xlink:title=" ">
<polygon fill="none" stroke="black" points="246.19,-235.5 246.19,-254.5 408.19,-254.5 408.19,-235.5 246.19,-235.5"/>
<text text-anchor="middle" x="327.19" y="-242.5" font-family="Helvetica,sans-Serif" font-size="10.00">discordcoreapi/AudioDecoder.hpp</text>
</a>
</g>
</g>
<!-- Node1&#45;&gt;Node28 -->
<g id="edge27" class="edge">
<title>Node1&#45;&gt;Node28</title>
<path fill="none" stroke="midnightblue" d="M999.66,-521.94C907.72,-517.92 736.15,-506.84 682.19,-479 647.51,-461.11 623.19,-453.02 623.19,-414 623.19,-414 623.19,-414 623.19,-356 623.19,-306.76 477.44,-272.46 390.48,-256.38"/>
<polygon fill="midnightblue" stroke="midnightblue" points="390.91,-252.9 380.45,-254.56 389.66,-259.79 390.91,-252.9"/>
</g>
<!-- Node29 -->
<g id="node29" class="node">
<title>Node29</title>
<g id="a_node29"><a xlink:href="../../d4/d6a/a00704.html" target="_top" xlink:title=" ">
<polygon fill="none" stroke="black" points="355.19,-179.5 355.19,-198.5 513.19,-198.5 513.19,-179.5 355.19,-179.5"/>
<text text-anchor="middle" x="434.19" y="-186.5" font-family="Helvetica,sans-Serif" font-size="10.00">discordcoreapi/EventEntities.hpp</text>
</a>
</g>
</g>
<!-- Node1&#45;&gt;Node29 -->
<g id="edge57" class="edge">
<title>Node1&#45;&gt;Node29</title>
<path fill="none" stroke="midnightblue" d="M999.65,-518.36C896.67,-506.93 696.19,-476.64 696.19,-414 696.19,-414 696.19,-414 696.19,-300 696.19,-254.91 562.61,-218.13 486.21,-200.78"/>
<polygon fill="midnightblue" stroke="midnightblue" points="486.8,-197.33 476.28,-198.56 485.28,-204.16 486.8,-197.33"/>
</g>
<!-- Node32 -->
<g id="node32" class="node">
<title>Node32</title>
<g id="a_node32"><a xlink:href="../../d0/db6/a00692.html" target="_top" xlink:title=" ">
<polygon fill="none" stroke="black" points="1396.69,-459.5 1396.69,-478.5 1583.69,-478.5 1583.69,-459.5 1396.69,-459.5"/>
<text text-anchor="middle" x="1490.19" y="-466.5" font-family="Helvetica,sans-Serif" font-size="10.00">discordcoreapi/CommandController.hpp</text>
</a>
</g>
</g>
<!-- Node1&#45;&gt;Node32 -->
<g id="edge33" class="edge">
<title>Node1&#45;&gt;Node32</title>
<path fill="none" stroke="midnightblue" d="M1119.11,-516.49C1195.57,-506.91 1327.98,-490.32 1412.22,-479.77"/>
<polygon fill="midnightblue" stroke="midnightblue" points="1412.76,-483.23 1422.25,-478.51 1411.89,-476.28 1412.76,-483.23"/>
</g>
<!-- Node34 -->
<g id="node34" class="node">
<title>Node34</title>
<g id="a_node34"><a xlink:href="../../d3/d4f/a00761.html" target="_top" xlink:title=" ">
<polygon fill="none" stroke="black" points="1389.19,-347.5 1389.19,-366.5 1539.19,-366.5 1539.19,-347.5 1389.19,-347.5"/>
<text text-anchor="middle" x="1464.19" y="-354.5" font-family="Helvetica,sans-Serif" font-size="10.00">discordcoreapi/ThreadPool.hpp</text>
</a>
</g>
</g>
<!-- Node1&#45;&gt;Node34 -->
<g id="edge59" class="edge">
<title>Node1&#45;&gt;Node34</title>
<path fill="none" stroke="midnightblue" d="M1080.11,-515.42C1146.9,-488.05 1355.24,-402.65 1433.8,-370.45"/>
<polygon fill="midnightblue" stroke="midnightblue" points="1435.22,-373.65 1443.15,-366.62 1432.57,-367.18 1435.22,-373.65"/>
</g>
<!-- Node36 -->
<g id="node36" class="node">
<title>Node36</title>
<g id="a_node36"><a xlink:href="../../d5/de8/a00749.html" target="_top" xlink:title=" ">
<polygon fill="none" stroke="black" points="984.19,-235.5 984.19,-254.5 1134.19,-254.5 1134.19,-235.5 984.19,-235.5"/>
<text text-anchor="middle" x="1059.19" y="-242.5" font-family="Helvetica,sans-Serif" font-size="10.00">discordcoreapi/SSLClients.hpp</text>
</a>
</g>
</g>
<!-- Node1&#45;&gt;Node36 -->
<g id="edge58" class="edge">
<title>Node1&#45;&gt;Node36</title>
<path fill="none" stroke="midnightblue" d="M1059.19,-515.44C1059.19,-496.94 1059.19,-451.81 1059.19,-414 1059.19,-414 1059.19,-414 1059.19,-356 1059.19,-323.95 1059.19,-286.64 1059.19,-264.75"/>
<polygon fill="midnightblue" stroke="midnightblue" points="1062.69,-264.56 1059.19,-254.56 1055.69,-264.56 1062.69,-264.56"/>
</g>
<!-- Node49 -->
<g id="node49" class="node">
<title>Node49</title>
<g id="a_node49"><a xlink:href="../../dd/d57/a00701.html" target="_top" xlink:title=" ">
<polygon fill="none" stroke="black" points="1646.19,-403.5 1646.19,-422.5 1790.19,-422.5 1790.19,-403.5 1646.19,-403.5"/>
<text text-anchor="middle" x="1718.19" y="-410.5" font-family="Helvetica,sans-Serif" font-size="10.00">discordcoreapi/ErlPacker.hpp</text>
</a>
</g>
</g>
<!-- Node1&#45;&gt;Node49 -->
<g id="edge55" class="edge">
<title>Node1&#45;&gt;Node49</title>
<path fill="none" stroke="midnightblue" d="M1118.88,-521.89C1238.76,-517.18 1504.73,-504.17 1592.19,-479 1631.44,-467.7 1672.76,-443.73 1696.96,-428.27"/>
<polygon fill="midnightblue" stroke="midnightblue" points="1699.18,-431 1705.65,-422.61 1695.36,-425.14 1699.18,-431"/>
</g>
<!-- Node3 -->
<g id="node3" class="node">
<title>Node3</title>
<g id="a_node3"><a xlink:href="../../d5/dae/a00767.html" target="_top" xlink:title=" ">
<polygon fill="none" stroke="black" points="1299.19,-56.5 1299.19,-75.5 1433.19,-75.5 1433.19,-56.5 1299.19,-56.5"/>
<text text-anchor="middle" x="1366.19" y="-63.5" font-family="Helvetica,sans-Serif" font-size="10.00">discordcoreapi/Utilities.hpp</text>
</a>
</g>
</g>
<!-- Node2&#45;&gt;Node3 -->
<g id="edge2" class="edge">
<title>Node2&#45;&gt;Node3</title>
<path fill="none" stroke="midnightblue" d="M1366.19,-112.4C1366.19,-104.47 1366.19,-94.46 1366.19,-85.86"/>
<polygon fill="midnightblue" stroke="midnightblue" points="1369.69,-85.66 1366.19,-75.66 1362.69,-85.66 1369.69,-85.66"/>
</g>
<!-- Node4 -->
<g id="node4" class="node">
<title>Node4</title>
<g id="a_node4"><a xlink:title=" ">
<polygon fill="none" stroke="#bfbfbf" points="338.69,-0.5 338.69,-19.5 395.69,-19.5 395.69,-0.5 338.69,-0.5"/>
<text text-anchor="middle" x="367.19" y="-7.5" font-family="Helvetica,sans-Serif" font-size="10.00">pthread.h</text>
</a>
</g>
</g>
<!-- Node3&#45;&gt;Node4 -->
<g id="edge3" class="edge">
<title>Node3&#45;&gt;Node4</title>
<path fill="none" stroke="midnightblue" d="M1299.06,-63.48C1113.76,-59.03 596.84,-44.84 405.66,-19.72"/>
<polygon fill="midnightblue" stroke="midnightblue" points="406.09,-16.24 395.71,-18.36 405.14,-23.18 406.09,-16.24"/>
</g>
<!-- Node5 -->
<g id="node5" class="node">
<title>Node5</title>
<g id="a_node5"><a xlink:title=" ">
<polygon fill="none" stroke="#bfbfbf" points="414.19,-0.5 414.19,-19.5 476.19,-19.5 476.19,-0.5 414.19,-0.5"/>
<text text-anchor="middle" x="445.19" y="-7.5" font-family="Helvetica,sans-Serif" font-size="10.00">sys/time.h</text>
</a>
</g>
</g>
<!-- Node3&#45;&gt;Node5 -->
<g id="edge4" class="edge">
<title>Node3&#45;&gt;Node5</title>
<path fill="none" stroke="midnightblue" d="M1298.96,-65.45C1152.67,-65.6 794.56,-61.41 486.55,-19.95"/>
<polygon fill="midnightblue" stroke="midnightblue" points="486.92,-16.47 476.54,-18.58 485.97,-23.4 486.92,-16.47"/>
</g>
<!-- Node6 -->
<g id="node6" class="node">
<title>Node6</title>
<g id="a_node6"><a xlink:title=" ">
<polygon fill="none" stroke="#bfbfbf" points="494.19,-0.5 494.19,-19.5 538.19,-19.5 538.19,-0.5 494.19,-0.5"/>
<text text-anchor="middle" x="516.19" y="-7.5" font-family="Helvetica,sans-Serif" font-size="10.00">time.h</text>
</a>
</g>
</g>
<!-- Node3&#45;&gt;Node6 -->
<g id="edge5" class="edge">
<title>Node3&#45;&gt;Node6</title>
<path fill="none" stroke="midnightblue" d="M1299.06,-63.28C1133.86,-58.74 709.9,-45.13 548.63,-19.79"/>
<polygon fill="midnightblue" stroke="midnightblue" points="548.83,-16.28 538.39,-18.1 547.69,-23.18 548.83,-16.28"/>
</g>
<!-- Node7 -->
<g id="node7" class="node">
<title>Node7</title>
<g id="a_node7"><a xlink:title=" ">
<polygon fill="none" stroke="#bfbfbf" points="556.69,-0.5 556.69,-19.5 597.69,-19.5 597.69,-0.5 556.69,-0.5"/>
<text text-anchor="middle" x="577.19" y="-7.5" font-family="Helvetica,sans-Serif" font-size="10.00">ctime</text>
</a>
</g>
</g>
<!-- Node3&#45;&gt;Node7 -->
<g id="edge6" class="edge">
<title>Node3&#45;&gt;Node7</title>
<path fill="none" stroke="midnightblue" d="M1298.92,-63.1C1142.48,-58.36 756.82,-44.68 608.23,-19.91"/>
<polygon fill="midnightblue" stroke="midnightblue" points="608.4,-16.38 597.94,-18.1 607.19,-23.28 608.4,-16.38"/>
</g>
<!-- Node8 -->
<g id="node8" class="node">
<title>Node8</title>
<g id="a_node8"><a xlink:title=" ">
<polygon fill="none" stroke="#bfbfbf" points="615.69,-0.5 615.69,-19.5 708.69,-19.5 708.69,-0.5 615.69,-0.5"/>
<text text-anchor="middle" x="662.19" y="-7.5" font-family="Helvetica,sans-Serif" font-size="10.00">condition_variable</text>
</a>
</g>
</g>
<!-- Node3&#45;&gt;Node8 -->
<g id="edge7" class="edge">
<title>Node3&#45;&gt;Node8</title>
<path fill="none" stroke="midnightblue" d="M1298.84,-62.32C1182.67,-57.27 936.95,-44.64 718.93,-19.97"/>
<polygon fill="midnightblue" stroke="midnightblue" points="719.23,-16.49 708.89,-18.83 718.43,-23.44 719.23,-16.49"/>
</g>
<!-- Node9 -->
<g id="node9" class="node">
<title>Node9</title>
<g id="a_node9"><a xlink:title=" ">
<polygon fill="none" stroke="#bfbfbf" points="727.19,-0.5 727.19,-19.5 825.19,-19.5 825.19,-0.5 727.19,-0.5"/>
<text text-anchor="middle" x="776.19" y="-7.5" font-family="Helvetica,sans-Serif" font-size="10.00">nlohmann/json.hpp</text>
</a>
</g>
</g>
<!-- Node3&#45;&gt;Node9 -->
<g id="edge8" class="edge">
<title>Node3&#45;&gt;Node9</title>
<path fill="none" stroke="midnightblue" d="M1298.85,-60.81C1199.66,-54.31 1008.23,-40.48 835.25,-20.05"/>
<polygon fill="midnightblue" stroke="midnightblue" points="835.54,-16.56 825.2,-18.85 834.72,-23.51 835.54,-16.56"/>
</g>
<!-- Node10 -->
<g id="node10" class="node">
<title>Node10</title>
<g id="a_node10"><a xlink:title=" ">
<polygon fill="none" stroke="#bfbfbf" points="843.69,-0.5 843.69,-19.5 928.69,-19.5 928.69,-0.5 843.69,-0.5"/>
<text text-anchor="middle" x="886.19" y="-7.5" font-family="Helvetica,sans-Serif" font-size="10.00">source_location</text>
</a>
</g>
</g>
<!-- Node3&#45;&gt;Node10 -->
<g id="edge9" class="edge">
<title>Node3&#45;&gt;Node10</title>
<path fill="none" stroke="midnightblue" d="M1299.13,-59.43C1216.61,-52.25 1072.02,-38.61 938.71,-20.13"/>
<polygon fill="midnightblue" stroke="midnightblue" points="939.11,-16.66 928.73,-18.74 938.15,-23.59 939.11,-16.66"/>
</g>
<!-- Node11 -->
<g id="node11" class="node">
<title>Node11</title>
<g id="a_node11"><a xlink:title=" ">
<polygon fill="none" stroke="#bfbfbf" points="946.69,-0.5 946.69,-19.5 1029.69,-19.5 1029.69,-0.5 946.69,-0.5"/>
<text text-anchor="middle" x="988.19" y="-7.5" font-family="Helvetica,sans-Serif" font-size="10.00">unordered_map</text>
</a>
</g>
</g>
<!-- Node3&#45;&gt;Node11 -->
<g id="edge10" class="edge">
<title>Node3&#45;&gt;Node11</title>
<path fill="none" stroke="midnightblue" d="M1299.07,-56.52C1235.15,-48.27 1135.98,-35.03 1040.08,-20.09"/>
<polygon fill="midnightblue" stroke="midnightblue" points="1040.33,-16.59 1029.91,-18.5 1039.25,-23.5 1040.33,-16.59"/>
</g>
<!-- Node12 -->
<g id="node12" class="node">
<title>Node12</title>
<g id="a_node12"><a xlink:title=" ">
<polygon fill="none" stroke="#bfbfbf" points="1048.19,-0.5 1048.19,-19.5 1126.19,-19.5 1126.19,-0.5 1048.19,-0.5"/>
<text text-anchor="middle" x="1087.19" y="-7.5" font-family="Helvetica,sans-Serif" font-size="10.00">shared_mutex</text>
</a>
</g>
</g>
<!-- Node3&#45;&gt;Node12 -->
<g id="edge11" class="edge">
<title>Node3&#45;&gt;Node12</title>
<path fill="none" stroke="midnightblue" d="M1321.98,-56.44C1271.42,-46.66 1188.86,-30.68 1136.32,-20.51"/>
<polygon fill="midnightblue" stroke="midnightblue" points="1136.72,-17.02 1126.23,-18.56 1135.39,-23.89 1136.72,-17.02"/>
</g>
<!-- Node13 -->
<g id="node13" class="node">
<title>Node13</title>
<g id="a_node13"><a xlink:title=" ">
<polygon fill="none" stroke="#bfbfbf" points="1144.19,-0.5 1144.19,-19.5 1202.19,-19.5 1202.19,-0.5 1144.19,-0.5"/>
<text text-anchor="middle" x="1173.19" y="-7.5" font-family="Helvetica,sans-Serif" font-size="10.00">functional</text>
</a>
</g>
</g>
<!-- Node3&#45;&gt;Node13 -->
<g id="edge12" class="edge">
<title>Node3&#45;&gt;Node13</title>
<path fill="none" stroke="midnightblue" d="M1335.6,-56.44C1302.18,-47.09 1248.55,-32.09 1212.14,-21.9"/>
<polygon fill="midnightblue" stroke="midnightblue" points="1212.93,-18.49 1202.36,-19.16 1211.05,-25.23 1212.93,-18.49"/>
</g>
<!-- Node14 -->
<g id="node14" class="node">
<title>Node14</title>
<g id="a_node14"><a xlink:title=" ">
<polygon fill="none" stroke="#bfbfbf" points="1220.19,-0.5 1220.19,-19.5 1276.19,-19.5 1276.19,-0.5 1220.19,-0.5"/>
<text text-anchor="middle" x="1248.19" y="-7.5" font-family="Helvetica,sans-Serif" font-size="10.00">coroutine</text>
</a>
</g>
</g>
<!-- Node3&#45;&gt;Node14 -->
<g id="edge13" class="edge">
<title>Node3&#45;&gt;Node14</title>
<path fill="none" stroke="midnightblue" d="M1347.49,-56.44C1328.24,-47.64 1298.03,-33.81 1275.99,-23.72"/>
<polygon fill="midnightblue" stroke="midnightblue" points="1277.34,-20.5 1266.8,-19.52 1274.43,-26.86 1277.34,-20.5"/>
</g>
<!-- Node15 -->
<g id="node15" class="node">
<title>Node15</title>
<g id="a_node15"><a xlink:title=" ">
<polygon fill="none" stroke="#bfbfbf" points="1294.69,-0.5 1294.69,-19.5 1359.69,-19.5 1359.69,-0.5 1294.69,-0.5"/>
<text text-anchor="middle" x="1327.19" y="-7.5" font-family="Helvetica,sans-Serif" font-size="10.00">semaphore</text>
</a>
</g>
</g>
<!-- Node3&#45;&gt;Node15 -->
<g id="edge14" class="edge">
<title>Node3&#45;&gt;Node15</title>
<path fill="none" stroke="midnightblue" d="M1359.75,-56.08C1354.24,-48.46 1346.15,-37.26 1339.42,-27.94"/>
<polygon fill="midnightblue" stroke="midnightblue" points="1342.2,-25.81 1333.51,-19.75 1336.52,-29.91 1342.2,-25.81"/>
</g>
<!-- Node16 -->
<g id="node16" class="node">
<title>Node16</title>
<g id="a_node16"><a xlink:title=" ">
<polygon fill="none" stroke="#bfbfbf" points="1378.19,-0.5 1378.19,-19.5 1434.19,-19.5 1434.19,-0.5 1378.19,-0.5"/>
<text text-anchor="middle" x="1406.19" y="-7.5" font-family="Helvetica,sans-Serif" font-size="10.00">concepts</text>
</a>
</g>
</g>
<!-- Node3&#45;&gt;Node16 -->
<g id="edge15" class="edge">
<title>Node3&#45;&gt;Node16</title>
<path fill="none" stroke="midnightblue" d="M1372.79,-56.08C1378.44,-48.46 1386.73,-37.26 1393.64,-27.94"/>
<polygon fill="midnightblue" stroke="midnightblue" points="1396.56,-29.87 1399.7,-19.75 1390.94,-25.7 1396.56,-29.87"/>
</g>
<!-- Node17 -->
<g id="node17" class="node">
<title>Node17</title>
<g id="a_node17"><a xlink:title=" ">
<polygon fill="none" stroke="#bfbfbf" points="1452.19,-0.5 1452.19,-19.5 1506.19,-19.5 1506.19,-0.5 1452.19,-0.5"/>
<text text-anchor="middle" x="1479.19" y="-7.5" font-family="Helvetica,sans-Serif" font-size="10.00">iostream</text>
</a>
</g>
</g>
<!-- Node3&#45;&gt;Node17 -->
<g id="edge16" class="edge">
<title>Node3&#45;&gt;Node17</title>
<path fill="none" stroke="midnightblue" d="M1384.09,-56.44C1402.44,-47.68 1431.19,-33.94 1452.28,-23.86"/>
<polygon fill="midnightblue" stroke="midnightblue" points="1453.85,-26.99 1461.36,-19.52 1450.83,-20.67 1453.85,-26.99"/>
</g>
<!-- Node18 -->
<g id="node18" class="node">
<title>Node18</title>
<g id="a_node18"><a xlink:title=" ">
<polygon fill="none" stroke="#bfbfbf" points="1524.69,-0.5 1524.69,-19.5 1573.69,-19.5 1573.69,-0.5 1524.69,-0.5"/>
<text text-anchor="middle" x="1549.19" y="-7.5" font-family="Helvetica,sans-Serif" font-size="10.00">fstream</text>
</a>
</g>
</g>
<!-- Node3&#45;&gt;Node18 -->
<g id="edge17" class="edge">
<title>Node3&#45;&gt;Node18</title>
<path fill="none" stroke="midnightblue" d="M1395.18,-56.44C1427.65,-46.86 1480.24,-31.34 1514.77,-21.15"/>
<polygon fill="midnightblue" stroke="midnightblue" points="1515.83,-24.49 1524.43,-18.3 1513.85,-17.78 1515.83,-24.49"/>
</g>
<!-- Node19 -->
<g id="node19" class="node">
<title>Node19</title>
<g id="a_node19"><a xlink:title=" ">
<polygon fill="none" stroke="#bfbfbf" points="1591.69,-0.5 1591.69,-19.5 1632.69,-19.5 1632.69,-0.5 1591.69,-0.5"/>
<text text-anchor="middle" x="1612.19" y="-7.5" font-family="Helvetica,sans-Serif" font-size="10.00">bitset</text>
</a>
</g>
</g>
<!-- Node3&#45;&gt;Node19 -->
<g id="edge18" class="edge">
<title>Node3&#45;&gt;Node19</title>
<path fill="none" stroke="midnightblue" d="M1412.8,-56.49C1454.58,-48.59 1517.72,-36 1581.73,-19.93"/>
<polygon fill="midnightblue" stroke="midnightblue" points="1582.76,-23.28 1591.59,-17.43 1581.04,-16.5 1582.76,-23.28"/>
</g>
<!-- Node20 -->
<g id="node20" class="node">
<title>Node20</title>
<g id="a_node20"><a xlink:title=" ">
<polygon fill="none" stroke="#bfbfbf" points="1651.19,-0.5 1651.19,-19.5 1703.19,-19.5 1703.19,-0.5 1651.19,-0.5"/>
<text text-anchor="middle" x="1677.19" y="-7.5" font-family="Helvetica,sans-Serif" font-size="10.00">memory</text>
</a>
</g>
</g>
<!-- Node3&#45;&gt;Node20 -->
<g id="edge19" class="edge">
<title>Node3&#45;&gt;Node20</title>
<path fill="none" stroke="midnightblue" d="M1427.35,-56.47C1480.96,-48.66 1561.19,-36.17 1640.7,-19.94"/>
<polygon fill="midnightblue" stroke="midnightblue" points="1641.81,-23.29 1650.9,-17.84 1640.4,-16.43 1641.81,-23.29"/>
</g>
<!-- Node21 -->
<g id="node21" class="node">
<title>Node21</title>
<g id="a_node21"><a xlink:title=" ">
<polygon fill="none" stroke="#bfbfbf" points="1721.69,-0.5 1721.69,-19.5 1770.69,-19.5 1770.69,-0.5 1721.69,-0.5"/>
<text text-anchor="middle" x="1746.19" y="-7.5" font-family="Helvetica,sans-Serif" font-size="10.00">random</text>
</a>
</g>
</g>
<!-- Node3&#45;&gt;Node21 -->
<g id="edge20" class="edge">
<title>Node3&#45;&gt;Node21</title>
<path fill="none" stroke="midnightblue" d="M1433.25,-58.88C1501.08,-52.1 1609.04,-39.7 1711.49,-19.9"/>
<polygon fill="midnightblue" stroke="midnightblue" points="1712.25,-23.32 1721.39,-17.96 1710.9,-16.45 1712.25,-23.32"/>
</g>
<!-- Node22 -->
<g id="node22" class="node">
<title>Node22</title>
<g id="a_node22"><a xlink:title=" ">
<polygon fill="none" stroke="#bfbfbf" points="1788.69,-0.5 1788.69,-19.5 1829.69,-19.5 1829.69,-0.5 1788.69,-0.5"/>
<text text-anchor="middle" x="1809.19" y="-7.5" font-family="Helvetica,sans-Serif" font-size="10.00">string</text>
</a>
</g>
</g>
<!-- Node3&#45;&gt;Node22 -->
<g id="edge21" class="edge">
<title>Node3&#45;&gt;Node22</title>
<path fill="none" stroke="midnightblue" d="M1433.49,-61.68C1513.83,-56.82 1652.24,-45.63 1778.56,-20.01"/>
<polygon fill="midnightblue" stroke="midnightblue" points="1779.32,-23.42 1788.4,-17.98 1777.9,-16.57 1779.32,-23.42"/>
</g>
<!-- Node23 -->
<g id="node23" class="node">
<title>Node23</title>
<g id="a_node23"><a xlink:title=" ">
<polygon fill="none" stroke="#bfbfbf" points="1848.19,-0.5 1848.19,-19.5 1890.19,-19.5 1890.19,-0.5 1848.19,-0.5"/>
<text text-anchor="middle" x="1869.19" y="-7.5" font-family="Helvetica,sans-Serif" font-size="10.00">vector</text>
</a>
</g>
</g>
<!-- Node3&#45;&gt;Node23 -->
<g id="edge22" class="edge">
<title>Node3&#45;&gt;Node23</title>
<path fill="none" stroke="midnightblue" d="M1433.36,-62.76C1523.53,-58.84 1688.67,-48.43 1837.76,-19.91"/>
<polygon fill="midnightblue" stroke="midnightblue" points="1838.86,-23.26 1848.01,-17.91 1837.52,-16.39 1838.86,-23.26"/>
</g>
<!-- Node24 -->
<g id="node24" class="node">
<title>Node24</title>
<g id="a_node24"><a xlink:title=" ">
<polygon fill="none" stroke="#bfbfbf" points="1908.19,-0.5 1908.19,-19.5 1952.19,-19.5 1952.19,-0.5 1908.19,-0.5"/>
<text text-anchor="middle" x="1930.19" y="-7.5" font-family="Helvetica,sans-Serif" font-size="10.00">thread</text>
</a>
</g>
</g>
<!-- Node3&#45;&gt;Node24 -->
<g id="edge23" class="edge">
<title>Node3&#45;&gt;Node24</title>
<path fill="none" stroke="midnightblue" d="M1433.23,-63.59C1532.88,-60.57 1725.93,-51.11 1897.97,-19.87"/>
<polygon fill="midnightblue" stroke="midnightblue" points="1898.76,-23.28 1907.96,-18.02 1897.49,-16.4 1898.76,-23.28"/>
</g>
<!-- Node25 -->
<g id="node25" class="node">
<title>Node25</title>
<g id="a_node25"><a xlink:title=" ">
<polygon fill="none" stroke="#bfbfbf" points="1970.19,-0.5 1970.19,-19.5 2014.19,-19.5 2014.19,-0.5 1970.19,-0.5"/>
<text text-anchor="middle" x="1992.19" y="-7.5" font-family="Helvetica,sans-Serif" font-size="10.00">mutex</text>
</a>
</g>
</g>
<!-- Node3&#45;&gt;Node25 -->
<g id="edge24" class="edge">
<title>Node3&#45;&gt;Node25</title>
<path fill="none" stroke="midnightblue" d="M1433.23,-64.43C1542.17,-62.53 1764.3,-54.54 1960.07,-19.83"/>
<polygon fill="midnightblue" stroke="midnightblue" points="1960.74,-23.26 1969.97,-18.05 1959.5,-16.38 1960.74,-23.26"/>
</g>
<!-- Node26 -->
<g id="node26" class="node">
<title>Node26</title>
<g id="a_node26"><a xlink:title=" ">
<polygon fill="none" stroke="#bfbfbf" points="2032.69,-0.5 2032.69,-19.5 2075.69,-19.5 2075.69,-0.5 2032.69,-0.5"/>
<text text-anchor="middle" x="2054.19" y="-7.5" font-family="Helvetica,sans-Serif" font-size="10.00">queue</text>
</a>
</g>
</g>
<!-- Node3&#45;&gt;Node26 -->
<g id="edge25" class="edge">
<title>Node3&#45;&gt;Node26</title>
<path fill="none" stroke="midnightblue" d="M1433.44,-65.12C1551.22,-64.3 1802.39,-57.97 2022.52,-19.68"/>
<polygon fill="midnightblue" stroke="midnightblue" points="2023.41,-23.08 2032.64,-17.89 2022.19,-16.19 2023.41,-23.08"/>
</g>
<!-- Node27 -->
<g id="node27" class="node">
<title>Node27</title>
<g id="a_node27"><a xlink:title=" ">
<polygon fill="none" stroke="#bfbfbf" points="2093.69,-0.5 2093.69,-19.5 2128.69,-19.5 2128.69,-0.5 2093.69,-0.5"/>
<text text-anchor="middle" x="2111.19" y="-7.5" font-family="Helvetica,sans-Serif" font-size="10.00">map</text>
</a>
</g>
</g>
<!-- Node3&#45;&gt;Node27 -->
<g id="edge26" class="edge">
<title>Node3&#45;&gt;Node27</title>
<path fill="none" stroke="midnightblue" d="M1433.27,-63.12C1583.37,-58.54 1943.48,-45.43 2083.38,-19.79"/>
<polygon fill="midnightblue" stroke="midnightblue" points="2084.3,-23.18 2093.46,-17.85 2082.98,-16.31 2084.3,-23.18"/>
</g>
<!-- Node28&#45;&gt;Node2 -->
<g id="edge30" class="edge">
<title>Node28&#45;&gt;Node2</title>
<path fill="none" stroke="midnightblue" d="M326.82,-235.12C326.77,-220.72 329.02,-192.54 346.19,-179 383.11,-149.87 1059.89,-134.33 1290.19,-129.87"/>
<polygon fill="midnightblue" stroke="midnightblue" points="1290.56,-133.36 1300.49,-129.67 1290.43,-126.36 1290.56,-133.36"/>
</g>
<!-- Node28&#45;&gt;Node29 -->
<g id="edge28" class="edge">
<title>Node28&#45;&gt;Node29</title>
<path fill="none" stroke="midnightblue" d="M344.38,-235.32C361.54,-226.66 388.13,-213.24 407.93,-203.25"/>
<polygon fill="midnightblue" stroke="midnightblue" points="409.69,-206.28 417.04,-198.65 406.53,-200.04 409.69,-206.28"/>
</g>
<!-- Node30 -->
<g id="node30" class="node">
<title>Node30</title>
<g id="a_node30"><a xlink:title=" ">
<polygon fill="none" stroke="#bfbfbf" points="29.19,-179.5 29.19,-198.5 139.19,-198.5 139.19,-179.5 29.19,-179.5"/>
<text text-anchor="middle" x="84.19" y="-186.5" font-family="Helvetica,sans-Serif" font-size="10.00">libavformat/avformat.h</text>
</a>
</g>
</g>
<!-- Node28&#45;&gt;Node30 -->
<g id="edge31" class="edge">
<title>Node28&#45;&gt;Node30</title>
<path fill="none" stroke="midnightblue" d="M288.68,-235.44C246.38,-226.04 178.37,-210.93 132.51,-200.74"/>
<polygon fill="midnightblue" stroke="midnightblue" points="133.03,-197.27 122.51,-198.52 131.51,-204.1 133.03,-197.27"/>
</g>
<!-- Node31 -->
<g id="node31" class="node">
<title>Node31</title>
<g id="a_node31"><a xlink:title=" ">
<polygon fill="none" stroke="#bfbfbf" points="157.69,-179.5 157.69,-198.5 298.69,-198.5 298.69,-179.5 157.69,-179.5"/>
<text text-anchor="middle" x="228.19" y="-186.5" font-family="Helvetica,sans-Serif" font-size="10.00">libswresample/swresample.h</text>
</a>
</g>
</g>
<!-- Node28&#45;&gt;Node31 -->
<g id="edge32" class="edge">
<title>Node28&#45;&gt;Node31</title>
<path fill="none" stroke="midnightblue" d="M311.28,-235.32C295.55,-226.74 271.24,-213.49 252.98,-203.52"/>
<polygon fill="midnightblue" stroke="midnightblue" points="254.51,-200.37 244.05,-198.65 251.15,-206.52 254.51,-200.37"/>
</g>
<!-- Node29&#45;&gt;Node2 -->
<g id="edge29" class="edge">
<title>Node29&#45;&gt;Node2</title>
<path fill="none" stroke="midnightblue" d="M513.32,-179.75C516.32,-179.49 519.28,-179.24 522.19,-179 805.09,-156.08 1142.13,-138.97 1290.13,-131.97"/>
<polygon fill="midnightblue" stroke="midnightblue" points="1290.63,-135.45 1300.46,-131.49 1290.3,-128.46 1290.63,-135.45"/>
</g>
<!-- Node32&#45;&gt;Node2 -->
<g id="edge34" class="edge">
<title>Node32&#45;&gt;Node2</title>
<path fill="none" stroke="midnightblue" d="M1515.17,-459.47C1552.42,-444.97 1618.19,-411.77 1618.19,-358 1618.19,-358 1618.19,-358 1618.19,-244 1618.19,-165.63 1516.22,-140.23 1442.01,-132.12"/>
<polygon fill="midnightblue" stroke="midnightblue" points="1442.04,-128.6 1431.74,-131.09 1441.34,-135.57 1442.04,-128.6"/>
</g>
<!-- Node33 -->
<g id="node33" class="node">
<title>Node33</title>
<g id="a_node33"><a xlink:href="../../d5/d5b/a00695.html" target="_top" xlink:title=" ">
<polygon fill="none" stroke="black" points="1417.19,-403.5 1417.19,-422.5 1563.19,-422.5 1563.19,-403.5 1417.19,-403.5"/>
<text text-anchor="middle" x="1490.19" y="-410.5" font-family="Helvetica,sans-Serif" font-size="10.00">discordcoreapi/CoRoutine.hpp</text>
</a>
</g>
</g>
<!-- Node32&#45;&gt;Node33 -->
<g id="edge35" class="edge">
<title>Node32&#45;&gt;Node33</title>
<path fill="none" stroke="midnightblue" d="M1490.19,-459.08C1490.19,-452.01 1490.19,-441.86 1490.19,-432.99"/>
<polygon fill="midnightblue" stroke="midnightblue" points="1493.69,-432.75 1490.19,-422.75 1486.69,-432.75 1493.69,-432.75"/>
</g>
<!-- Node33&#45;&gt;Node2 -->
<g id="edge36" class="edge">
<title>Node33&#45;&gt;Node2</title>
<path fill="none" stroke="midnightblue" d="M1504.65,-403.44C1530.09,-387.16 1580.19,-349.13 1580.19,-302 1580.19,-302 1580.19,-302 1580.19,-244 1580.19,-179.31 1503.53,-150.68 1441.97,-138.12"/>
<polygon fill="midnightblue" stroke="midnightblue" points="1442.33,-134.63 1431.85,-136.17 1441,-141.5 1442.33,-134.63"/>
</g>
<!-- Node33&#45;&gt;Node34 -->
<g id="edge37" class="edge">
<title>Node33&#45;&gt;Node34</title>
<path fill="none" stroke="midnightblue" d="M1485.89,-403.08C1482.33,-395.69 1477.16,-384.95 1472.76,-375.81"/>
<polygon fill="midnightblue" stroke="midnightblue" points="1475.89,-374.24 1468.4,-366.75 1469.58,-377.28 1475.89,-374.24"/>
</g>
<!-- Node34&#45;&gt;Node2 -->
<g id="edge38" class="edge">
<title>Node34&#45;&gt;Node2</title>
<path fill="none" stroke="midnightblue" d="M1471.97,-347.41C1495.64,-320.24 1562.7,-234.7 1522.19,-179 1503.68,-153.56 1472.08,-140.67 1442.14,-134.24"/>
<polygon fill="midnightblue" stroke="midnightblue" points="1442.56,-130.76 1432.08,-132.3 1441.23,-137.63 1442.56,-130.76"/>
</g>
<!-- Node35 -->
<g id="node35" class="node">
<title>Node35</title>
<g id="a_node35"><a xlink:href="../../db/d7c/a00722.html" target="_top" xlink:title=" ">
<polygon fill="none" stroke="black" points="1238.69,-291.5 1238.69,-310.5 1363.69,-310.5 1363.69,-291.5 1238.69,-291.5"/>
<text text-anchor="middle" x="1301.19" y="-298.5" font-family="Helvetica,sans-Serif" font-size="10.00">discordcoreapi/Https.hpp</text>
</a>
</g>
</g>
<!-- Node34&#45;&gt;Node35 -->
<g id="edge39" class="edge">
<title>Node34&#45;&gt;Node35</title>
<path fill="none" stroke="midnightblue" d="M1438.36,-347.44C1410.94,-338.36 1367.41,-323.94 1336.75,-313.78"/>
<polygon fill="midnightblue" stroke="midnightblue" points="1337.49,-310.34 1326.89,-310.52 1335.28,-316.98 1337.49,-310.34"/>
</g>
<!-- Node35&#45;&gt;Node36 -->
<g id="edge40" class="edge">
<title>Node35&#45;&gt;Node36</title>
<path fill="none" stroke="midnightblue" d="M1262.84,-291.44C1220.71,-282.04 1152.98,-266.93 1107.31,-256.74"/>
<polygon fill="midnightblue" stroke="midnightblue" points="1107.87,-253.28 1097.35,-254.52 1106.35,-260.11 1107.87,-253.28"/>
</g>
<!-- Node36&#45;&gt;Node2 -->
<g id="edge41" class="edge">
<title>Node36&#45;&gt;Node2</title>
<path fill="none" stroke="midnightblue" d="M1082.18,-235.47C1105.01,-226.84 1140.87,-212.83 1171.19,-199 1188.91,-190.92 1192.19,-186.47 1210.19,-179 1241.25,-166.11 1276.86,-154.36 1306.22,-145.44"/>
<polygon fill="midnightblue" stroke="midnightblue" points="1307.34,-148.76 1315.92,-142.53 1305.33,-142.05 1307.34,-148.76"/>
</g>
<!-- Node36&#45;&gt;Node29 -->
<g id="edge42" class="edge">
<title>Node36&#45;&gt;Node29</title>
<path fill="none" stroke="midnightblue" d="M984,-238.14C882.14,-230.09 694.35,-214.92 523.52,-199.11"/>
<polygon fill="midnightblue" stroke="midnightblue" points="523.61,-195.6 513.33,-198.16 522.97,-202.57 523.61,-195.6"/>
</g>
<!-- Node37 -->
<g id="node37" class="node">
<title>Node37</title>
<g id="a_node37"><a xlink:title=" ">
<polygon fill="none" stroke="#bfbfbf" points="1219.69,-179.5 1219.69,-198.5 1292.69,-198.5 1292.69,-179.5 1219.69,-179.5"/>
<text text-anchor="middle" x="1256.19" y="-186.5" font-family="Helvetica,sans-Serif" font-size="10.00">openssl/err.h</text>
</a>
</g>
</g>
<!-- Node36&#45;&gt;Node37 -->
<g id="edge43" class="edge">
<title>Node36&#45;&gt;Node37</title>
<path fill="none" stroke="midnightblue" d="M1090.4,-235.44C1124.12,-226.2 1177.99,-211.44 1215.12,-201.26"/>
<polygon fill="midnightblue" stroke="midnightblue" points="1216.4,-204.54 1225.12,-198.52 1214.55,-197.78 1216.4,-204.54"/>
</g>
<!-- Node38 -->
<g id="node38" class="node">
<title>Node38</title>
<g id="a_node38"><a xlink:title=" ">
<polygon fill="none" stroke="#bfbfbf" points="1311.19,-179.5 1311.19,-198.5 1385.19,-198.5 1385.19,-179.5 1311.19,-179.5"/>
<text text-anchor="middle" x="1348.19" y="-186.5" font-family="Helvetica,sans-Serif" font-size="10.00">openssl/ssl.h</text>
</a>
</g>
</g>
<!-- Node36&#45;&gt;Node38 -->
<g id="edge44" class="edge">
<title>Node36&#45;&gt;Node38</title>
<path fill="none" stroke="midnightblue" d="M1105.59,-235.45C1152.22,-226.84 1226.44,-213.08 1300.95,-199.04"/>
<polygon fill="midnightblue" stroke="midnightblue" points="1301.81,-202.44 1310.99,-197.14 1300.51,-195.56 1301.81,-202.44"/>
</g>
<!-- Node39 -->
<g id="node39" class="node">
<title>Node39</title>
<g id="a_node39"><a xlink:title=" ">
<polygon fill="none" stroke="#bfbfbf" points="1403.69,-179.5 1403.69,-198.5 1446.69,-198.5 1446.69,-179.5 1403.69,-179.5"/>
<text text-anchor="middle" x="1425.19" y="-186.5" font-family="Helvetica,sans-Serif" font-size="10.00">fcntl.h</text>
</a>
</g>
</g>
<!-- Node36&#45;&gt;Node39 -->
<g id="edge45" class="edge">
<title>Node36&#45;&gt;Node39</title>
<path fill="none" stroke="midnightblue" d="M1134.24,-237.15C1200.16,-230.4 1298.74,-218.51 1393.56,-198.83"/>
<polygon fill="midnightblue" stroke="midnightblue" points="1394.55,-202.2 1403.61,-196.71 1393.1,-195.35 1394.55,-202.2"/>
</g>
<!-- Node40 -->
<g id="node40" class="node">
<title>Node40</title>
<g id="a_node40"><a xlink:title=" ">
<polygon fill="none" stroke="#bfbfbf" points="1464.69,-179.5 1464.69,-198.5 1513.69,-198.5 1513.69,-179.5 1464.69,-179.5"/>
<text text-anchor="middle" x="1489.19" y="-186.5" font-family="Helvetica,sans-Serif" font-size="10.00">netdb.h</text>
</a>
</g>
</g>
<!-- Node36&#45;&gt;Node40 -->
<g id="edge46" class="edge">
<title>Node36&#45;&gt;Node40</title>
<path fill="none" stroke="midnightblue" d="M1134.48,-238.73C1212.32,-232.53 1337.44,-220.5 1454.54,-198.86"/>
<polygon fill="midnightblue" stroke="midnightblue" points="1455.21,-202.29 1464.4,-197.01 1453.92,-195.41 1455.21,-202.29"/>
</g>
<!-- Node41 -->
<g id="node41" class="node">
<title>Node41</title>
<g id="a_node41"><a xlink:title=" ">
<polygon fill="none" stroke="#bfbfbf" points="531.69,-179.5 531.69,-198.5 596.69,-198.5 596.69,-179.5 531.69,-179.5"/>
<text text-anchor="middle" x="564.19" y="-186.5" font-family="Helvetica,sans-Serif" font-size="10.00">netinet/in.h</text>
</a>
</g>
</g>
<!-- Node36&#45;&gt;Node41 -->
<g id="edge47" class="edge">
<title>Node36&#45;&gt;Node41</title>
<path fill="none" stroke="midnightblue" d="M984.13,-239.27C895.93,-233.1 745.06,-220.65 606.73,-199.09"/>
<polygon fill="midnightblue" stroke="midnightblue" points="607.22,-195.62 596.79,-197.52 606.13,-202.54 607.22,-195.62"/>
</g>
<!-- Node42 -->
<g id="node42" class="node">
<title>Node42</title>
<g id="a_node42"><a xlink:title=" ">
<polygon fill="none" stroke="#bfbfbf" points="614.69,-179.5 614.69,-198.5 685.69,-198.5 685.69,-179.5 614.69,-179.5"/>
<text text-anchor="middle" x="650.19" y="-186.5" font-family="Helvetica,sans-Serif" font-size="10.00">netinet/tcp.h</text>
</a>
</g>
</g>
<!-- Node36&#45;&gt;Node42 -->
<g id="edge48" class="edge">
<title>Node36&#45;&gt;Node42</title>
<path fill="none" stroke="midnightblue" d="M984.14,-236.5C912.49,-228.94 801.27,-216.17 696.3,-199.25"/>
<polygon fill="midnightblue" stroke="midnightblue" points="696.59,-195.75 686.16,-197.6 695.47,-202.66 696.59,-195.75"/>
</g>
<!-- Node43 -->
<g id="node43" class="node">
<title>Node43</title>
<g id="a_node43"><a xlink:title=" ">
<polygon fill="none" stroke="#bfbfbf" points="703.69,-179.5 703.69,-198.5 752.69,-198.5 752.69,-179.5 703.69,-179.5"/>
<text text-anchor="middle" x="728.19" y="-186.5" font-family="Helvetica,sans-Serif" font-size="10.00">stdint.h</text>
</a>
</g>
</g>
<!-- Node36&#45;&gt;Node43 -->
<g id="edge49" class="edge">
<title>Node36&#45;&gt;Node43</title>
<path fill="none" stroke="midnightblue" d="M988.59,-235.5C930.48,-227.99 845.78,-215.91 762.84,-198.94"/>
<polygon fill="midnightblue" stroke="midnightblue" points="763.5,-195.5 752.99,-196.9 762.08,-202.35 763.5,-195.5"/>
</g>
<!-- Node44 -->
<g id="node44" class="node">
<title>Node44</title>
<g id="a_node44"><a xlink:title=" ">
<polygon fill="none" stroke="#bfbfbf" points="771.19,-179.5 771.19,-198.5 835.19,-198.5 835.19,-179.5 771.19,-179.5"/>
<text text-anchor="middle" x="803.19" y="-186.5" font-family="Helvetica,sans-Serif" font-size="10.00">sys/epoll.h</text>
</a>
</g>
</g>
<!-- Node36&#45;&gt;Node44 -->
<g id="edge50" class="edge">
<title>Node36&#45;&gt;Node44</title>
<path fill="none" stroke="midnightblue" d="M1017.94,-235.49C976.76,-226.97 911.37,-213.36 845.55,-199.28"/>
<polygon fill="midnightblue" stroke="midnightblue" points="845.92,-195.78 835.41,-197.1 844.45,-202.62 845.92,-195.78"/>
</g>
<!-- Node45 -->
<g id="node45" class="node">
<title>Node45</title>
<g id="a_node45"><a xlink:title=" ">
<polygon fill="none" stroke="#bfbfbf" points="853.19,-179.5 853.19,-198.5 915.19,-198.5 915.19,-179.5 853.19,-179.5"/>
<text text-anchor="middle" x="884.19" y="-186.5" font-family="Helvetica,sans-Serif" font-size="10.00">arpa/inet.h</text>
</a>
</g>
</g>
<!-- Node36&#45;&gt;Node45 -->
<g id="edge51" class="edge">
<title>Node36&#45;&gt;Node45</title>
<path fill="none" stroke="midnightblue" d="M1031.46,-235.44C1001.76,-226.28 954.47,-211.69 921.52,-201.52"/>
<polygon fill="midnightblue" stroke="midnightblue" points="922.37,-198.12 911.78,-198.52 920.31,-204.81 922.37,-198.12"/>
</g>
<!-- Node46 -->
<g id="node46" class="node">
<title>Node46</title>
<g id="a_node46"><a xlink:title=" ">
<polygon fill="none" stroke="#bfbfbf" points="933.69,-179.5 933.69,-198.5 1006.69,-198.5 1006.69,-179.5 933.69,-179.5"/>
<text text-anchor="middle" x="970.19" y="-186.5" font-family="Helvetica,sans-Serif" font-size="10.00">sys/socket.h</text>
</a>
</g>
</g>
<!-- Node36&#45;&gt;Node46 -->
<g id="edge52" class="edge">
<title>Node36&#45;&gt;Node46</title>
<path fill="none" stroke="midnightblue" d="M1044.89,-235.32C1031,-226.9 1009.69,-213.97 993.38,-204.07"/>
<polygon fill="midnightblue" stroke="midnightblue" points="994.81,-200.85 984.45,-198.65 991.18,-206.83 994.81,-200.85"/>
</g>
<!-- Node47 -->
<g id="node47" class="node">
<title>Node47</title>
<g id="a_node47"><a xlink:title=" ">
<polygon fill="none" stroke="#bfbfbf" points="1025.19,-179.5 1025.19,-198.5 1093.19,-198.5 1093.19,-179.5 1025.19,-179.5"/>
<text text-anchor="middle" x="1059.19" y="-186.5" font-family="Helvetica,sans-Serif" font-size="10.00">sys/types.h</text>
</a>
</g>
</g>
<!-- Node36&#45;&gt;Node47 -->
<g id="edge53" class="edge">
<title>Node36&#45;&gt;Node47</title>
<path fill="none" stroke="midnightblue" d="M1059.19,-235.08C1059.19,-228.01 1059.19,-217.86 1059.19,-208.99"/>
<polygon fill="midnightblue" stroke="midnightblue" points="1062.69,-208.75 1059.19,-198.75 1055.69,-208.75 1062.69,-208.75"/>
</g>
<!-- Node48 -->
<g id="node48" class="node">
<title>Node48</title>
<g id="a_node48"><a xlink:title=" ">
<polygon fill="none" stroke="#bfbfbf" points="1111.69,-179.5 1111.69,-198.5 1162.69,-198.5 1162.69,-179.5 1111.69,-179.5"/>
<text text-anchor="middle" x="1137.19" y="-186.5" font-family="Helvetica,sans-Serif" font-size="10.00">unistd.h</text>
</a>
</g>
</g>
<!-- Node36&#45;&gt;Node48 -->
<g id="edge54" class="edge">
<title>Node36&#45;&gt;Node48</title>
<path fill="none" stroke="midnightblue" d="M1071.72,-235.32C1083.77,-226.98 1102.21,-214.21 1116.45,-204.35"/>
<polygon fill="midnightblue" stroke="midnightblue" points="1118.45,-207.22 1124.68,-198.65 1114.47,-201.47 1118.45,-207.22"/>
</g>
<!-- Node49&#45;&gt;Node2 -->
<g id="edge56" class="edge">
<title>Node49&#45;&gt;Node2</title>
<path fill="none" stroke="midnightblue" d="M1714,-403.39C1705.54,-385.16 1687.19,-341.09 1687.19,-302 1687.19,-302 1687.19,-302 1687.19,-244 1687.19,-206.16 1664.87,-198.07 1632.19,-179 1574.18,-145.16 1498.08,-133.37 1442.14,-129.55"/>
<polygon fill="midnightblue" stroke="midnightblue" points="1442.14,-126.04 1431.94,-128.92 1441.71,-133.03 1442.14,-126.04"/>
</g>
</g>
</svg>
