<?xml version="1.0" encoding="UTF-8" standalone="no"?>
<!DOCTYPE svg PUBLIC "-//W3C//DTD SVG 1.1//EN"
 "http://www.w3.org/Graphics/SVG/1.1/DTD/svg11.dtd">
<!-- Generated by graphviz version 3.0.0 (20220226.1711)
 -->
<!-- Title: ThreadPool.cpp Pages: 1 -->
<svg width="1797pt" height="431pt"
 viewBox="0.00 0.00 1796.50 431.00" xmlns="http://www.w3.org/2000/svg" xmlns:xlink="http://www.w3.org/1999/xlink">
<g id="graph0" class="graph" transform="scale(1 1) rotate(0) translate(4 427)">
<title>ThreadPool.cpp</title>
<!-- Node1 -->
<g id="node1" class="node">
<title>Node1</title>
<g id="a_node1"><a xlink:title=" ">
<polygon fill="#bfbfbf" stroke="black" points="613,-403.5 613,-422.5 697,-422.5 697,-403.5 613,-403.5"/>
<text text-anchor="middle" x="655" y="-410.5" font-family="Helvetica,sans-Serif" font-size="10.00">ThreadPool.cpp</text>
</a>
</g>
</g>
<!-- Node2 -->
<g id="node2" class="node">
<title>Node2</title>
<g id="a_node2"><a xlink:href="../../d3/d4f/a00761.html" target="_top" xlink:title=" ">
<polygon fill="none" stroke="black" points="580,-347.5 580,-366.5 730,-366.5 730,-347.5 580,-347.5"/>
<text text-anchor="middle" x="655" y="-354.5" font-family="Helvetica,sans-Serif" font-size="10.00">discordcoreapi/ThreadPool.hpp</text>
</a>
</g>
</g>
<!-- Node1&#45;&gt;Node2 -->
<g id="edge1" class="edge">
<title>Node1&#45;&gt;Node2</title>
<path fill="none" stroke="midnightblue" d="M655,-403.08C655,-396.01 655,-385.86 655,-376.99"/>
<polygon fill="midnightblue" stroke="midnightblue" points="658.5,-376.75 655,-366.75 651.5,-376.75 658.5,-376.75"/>
</g>
<!-- Node3 -->
<g id="node3" class="node">
<title>Node3</title>
<g id="a_node3"><a xlink:href="../../d4/deb/a00710.html" target="_top" xlink:title=" ">
<polygon fill="none" stroke="black" points="1032.5,-112.5 1032.5,-142.5 1163.5,-142.5 1163.5,-112.5 1032.5,-112.5"/>
<text text-anchor="start" x="1040.5" y="-130.5" font-family="Helvetica,sans-Serif" font-size="10.00">discordcoreapi/Foundation</text>
<text text-anchor="middle" x="1098" y="-119.5" font-family="Helvetica,sans-Serif" font-size="10.00">Entities.hpp</text>
</a>
</g>
</g>
<!-- Node2&#45;&gt;Node3 -->
<g id="edge2" class="edge">
<title>Node2&#45;&gt;Node3</title>
<path fill="none" stroke="midnightblue" d="M624.28,-347.46C545.63,-324.23 348.16,-256.39 420,-179 460.28,-135.61 853.94,-129.21 1022.27,-128.48"/>
<polygon fill="midnightblue" stroke="midnightblue" points="1022.32,-131.98 1032.3,-128.44 1022.29,-124.98 1022.32,-131.98"/>
</g>
<!-- Node29 -->
<g id="node29" class="node">
<title>Node29</title>
<g id="a_node29"><a xlink:href="../../db/d7c/a00722.html" target="_top" xlink:title=" ">
<polygon fill="none" stroke="black" points="890.5,-291.5 890.5,-310.5 1015.5,-310.5 1015.5,-291.5 890.5,-291.5"/>
<text text-anchor="middle" x="953" y="-298.5" font-family="Helvetica,sans-Serif" font-size="10.00">discordcoreapi/Https.hpp</text>
</a>
</g>
</g>
<!-- Node2&#45;&gt;Node29 -->
<g id="edge28" class="edge">
<title>Node2&#45;&gt;Node29</title>
<path fill="none" stroke="midnightblue" d="M702.22,-347.44C754.75,-337.92 839.61,-322.55 895.85,-312.36"/>
<polygon fill="midnightblue" stroke="midnightblue" points="896.79,-315.74 906,-310.52 895.54,-308.86 896.79,-315.74"/>
</g>
<!-- Node4 -->
<g id="node4" class="node">
<title>Node4</title>
<g id="a_node4"><a xlink:href="../../d5/dae/a00767.html" target="_top" xlink:title=" ">
<polygon fill="none" stroke="black" points="984,-56.5 984,-75.5 1118,-75.5 1118,-56.5 984,-56.5"/>
<text text-anchor="middle" x="1051" y="-63.5" font-family="Helvetica,sans-Serif" font-size="10.00">discordcoreapi/Utilities.hpp</text>
</a>
</g>
</g>
<!-- Node3&#45;&gt;Node4 -->
<g id="edge3" class="edge">
<title>Node3&#45;&gt;Node4</title>
<path fill="none" stroke="midnightblue" d="M1086.86,-112.4C1080.03,-103.75 1071.26,-92.64 1064.09,-83.58"/>
<polygon fill="midnightblue" stroke="midnightblue" points="1066.78,-81.34 1057.84,-75.66 1061.29,-85.67 1066.78,-81.34"/>
</g>
<!-- Node5 -->
<g id="node5" class="node">
<title>Node5</title>
<g id="a_node5"><a xlink:title=" ">
<polygon fill="none" stroke="#bfbfbf" points="1648.5,-0.5 1648.5,-19.5 1705.5,-19.5 1705.5,-0.5 1648.5,-0.5"/>
<text text-anchor="middle" x="1677" y="-7.5" font-family="Helvetica,sans-Serif" font-size="10.00">pthread.h</text>
</a>
</g>
</g>
<!-- Node4&#45;&gt;Node5 -->
<g id="edge4" class="edge">
<title>Node4&#45;&gt;Node5</title>
<path fill="none" stroke="midnightblue" d="M1118.1,-63.41C1225.99,-60.09 1444.73,-50.13 1638.33,-20.03"/>
<polygon fill="midnightblue" stroke="midnightblue" points="1639.08,-23.46 1648.41,-18.44 1637.99,-16.54 1639.08,-23.46"/>
</g>
<!-- Node6 -->
<g id="node6" class="node">
<title>Node6</title>
<g id="a_node6"><a xlink:title=" ">
<polygon fill="none" stroke="#bfbfbf" points="0,-0.5 0,-19.5 62,-19.5 62,-0.5 0,-0.5"/>
<text text-anchor="middle" x="31" y="-7.5" font-family="Helvetica,sans-Serif" font-size="10.00">sys/time.h</text>
</a>
</g>
</g>
<!-- Node4&#45;&gt;Node6 -->
<g id="edge5" class="edge">
<title>Node4&#45;&gt;Node6</title>
<path fill="none" stroke="midnightblue" d="M983.93,-63.45C796.21,-58.89 267.07,-44.32 72.47,-19.92"/>
<polygon fill="midnightblue" stroke="midnightblue" points="72.72,-16.42 62.35,-18.6 71.81,-23.36 72.72,-16.42"/>
</g>
<!-- Node7 -->
<g id="node7" class="node">
<title>Node7</title>
<g id="a_node7"><a xlink:title=" ">
<polygon fill="none" stroke="#bfbfbf" points="80,-0.5 80,-19.5 124,-19.5 124,-0.5 80,-0.5"/>
<text text-anchor="middle" x="102" y="-7.5" font-family="Helvetica,sans-Serif" font-size="10.00">time.h</text>
</a>
</g>
</g>
<!-- Node4&#45;&gt;Node7 -->
<g id="edge6" class="edge">
<title>Node4&#45;&gt;Node7</title>
<path fill="none" stroke="midnightblue" d="M983.87,-63.74C804.4,-60.06 315.37,-47.86 134.15,-19.73"/>
<polygon fill="midnightblue" stroke="midnightblue" points="134.64,-16.27 124.21,-18.12 133.52,-23.18 134.64,-16.27"/>
</g>
<!-- Node8 -->
<g id="node8" class="node">
<title>Node8</title>
<g id="a_node8"><a xlink:title=" ">
<polygon fill="none" stroke="#bfbfbf" points="142.5,-0.5 142.5,-19.5 183.5,-19.5 183.5,-0.5 142.5,-0.5"/>
<text text-anchor="middle" x="163" y="-7.5" font-family="Helvetica,sans-Serif" font-size="10.00">ctime</text>
</a>
</g>
</g>
<!-- Node4&#45;&gt;Node8 -->
<g id="edge7" class="edge">
<title>Node4&#45;&gt;Node8</title>
<path fill="none" stroke="midnightblue" d="M983.78,-63.64C812.56,-59.82 362.22,-47.58 193.72,-19.84"/>
<polygon fill="midnightblue" stroke="midnightblue" points="194.21,-16.37 183.76,-18.12 193.02,-23.27 194.21,-16.37"/>
</g>
<!-- Node9 -->
<g id="node9" class="node">
<title>Node9</title>
<g id="a_node9"><a xlink:title=" ">
<polygon fill="none" stroke="#bfbfbf" points="201.5,-0.5 201.5,-19.5 294.5,-19.5 294.5,-0.5 201.5,-0.5"/>
<text text-anchor="middle" x="248" y="-7.5" font-family="Helvetica,sans-Serif" font-size="10.00">condition_variable</text>
</a>
</g>
</g>
<!-- Node4&#45;&gt;Node9 -->
<g id="edge8" class="edge">
<title>Node4&#45;&gt;Node9</title>
<path fill="none" stroke="midnightblue" d="M983.85,-63.19C854.52,-59.21 561.74,-47.84 304.97,-19.99"/>
<polygon fill="midnightblue" stroke="midnightblue" points="305.03,-16.47 294.7,-18.86 304.26,-23.43 305.03,-16.47"/>
</g>
<!-- Node10 -->
<g id="node10" class="node">
<title>Node10</title>
<g id="a_node10"><a xlink:title=" ">
<polygon fill="none" stroke="#bfbfbf" points="313,-0.5 313,-19.5 411,-19.5 411,-0.5 313,-0.5"/>
<text text-anchor="middle" x="362" y="-7.5" font-family="Helvetica,sans-Serif" font-size="10.00">nlohmann/json.hpp</text>
</a>
</g>
</g>
<!-- Node4&#45;&gt;Node10 -->
<g id="edge9" class="edge">
<title>Node4&#45;&gt;Node10</title>
<path fill="none" stroke="midnightblue" d="M983.59,-62.03C869.81,-56.61 632.2,-43.55 421.04,-20.02"/>
<polygon fill="midnightblue" stroke="midnightblue" points="421.34,-16.54 411.01,-18.9 420.56,-23.49 421.34,-16.54"/>
</g>
<!-- Node11 -->
<g id="node11" class="node">
<title>Node11</title>
<g id="a_node11"><a xlink:title=" ">
<polygon fill="none" stroke="#bfbfbf" points="429.5,-0.5 429.5,-19.5 514.5,-19.5 514.5,-0.5 429.5,-0.5"/>
<text text-anchor="middle" x="472" y="-7.5" font-family="Helvetica,sans-Serif" font-size="10.00">source_location</text>
</a>
</g>
</g>
<!-- Node4&#45;&gt;Node11 -->
<g id="edge10" class="edge">
<title>Node4&#45;&gt;Node11</title>
<path fill="none" stroke="midnightblue" d="M983.7,-61.2C885.07,-55.21 695.29,-42.05 524.46,-20.09"/>
<polygon fill="midnightblue" stroke="midnightblue" points="524.9,-16.62 514.53,-18.8 524,-23.56 524.9,-16.62"/>
</g>
<!-- Node12 -->
<g id="node12" class="node">
<title>Node12</title>
<g id="a_node12"><a xlink:title=" ">
<polygon fill="none" stroke="#bfbfbf" points="532.5,-0.5 532.5,-19.5 615.5,-19.5 615.5,-0.5 532.5,-0.5"/>
<text text-anchor="middle" x="574" y="-7.5" font-family="Helvetica,sans-Serif" font-size="10.00">unordered_map</text>
</a>
</g>
</g>
<!-- Node4&#45;&gt;Node12 -->
<g id="edge11" class="edge">
<title>Node4&#45;&gt;Node12</title>
<path fill="none" stroke="midnightblue" d="M983.68,-59.34C901.62,-52.12 758.5,-38.48 625.66,-20"/>
<polygon fill="midnightblue" stroke="midnightblue" points="626.1,-16.53 615.71,-18.6 625.13,-23.46 626.1,-16.53"/>
</g>
<!-- Node13 -->
<g id="node13" class="node">
<title>Node13</title>
<g id="a_node13"><a xlink:title=" ">
<polygon fill="none" stroke="#bfbfbf" points="634,-0.5 634,-19.5 712,-19.5 712,-0.5 634,-0.5"/>
<text text-anchor="middle" x="673" y="-7.5" font-family="Helvetica,sans-Serif" font-size="10.00">shared_mutex</text>
</a>
</g>
</g>
<!-- Node4&#45;&gt;Node13 -->
<g id="edge12" class="edge">
<title>Node4&#45;&gt;Node13</title>
<path fill="none" stroke="midnightblue" d="M983.86,-56.84C919.29,-48.77 818.71,-35.6 721.96,-20.09"/>
<polygon fill="midnightblue" stroke="midnightblue" points="722.43,-16.62 712,-18.48 721.32,-23.53 722.43,-16.62"/>
</g>
<!-- Node14 -->
<g id="node14" class="node">
<title>Node14</title>
<g id="a_node14"><a xlink:title=" ">
<polygon fill="none" stroke="#bfbfbf" points="730,-0.5 730,-19.5 788,-19.5 788,-0.5 730,-0.5"/>
<text text-anchor="middle" x="759" y="-7.5" font-family="Helvetica,sans-Serif" font-size="10.00">functional</text>
</a>
</g>
</g>
<!-- Node4&#45;&gt;Node14 -->
<g id="edge13" class="edge">
<title>Node4&#45;&gt;Node14</title>
<path fill="none" stroke="midnightblue" d="M997.8,-56.49C948.51,-48.39 872.91,-35.46 798.08,-20.13"/>
<polygon fill="midnightblue" stroke="midnightblue" points="798.51,-16.64 788.01,-18.05 797.09,-23.5 798.51,-16.64"/>
</g>
<!-- Node15 -->
<g id="node15" class="node">
<title>Node15</title>
<g id="a_node15"><a xlink:title=" ">
<polygon fill="none" stroke="#bfbfbf" points="806,-0.5 806,-19.5 862,-19.5 862,-0.5 806,-0.5"/>
<text text-anchor="middle" x="834" y="-7.5" font-family="Helvetica,sans-Serif" font-size="10.00">coroutine</text>
</a>
</g>
</g>
<!-- Node4&#45;&gt;Node15 -->
<g id="edge14" class="edge">
<title>Node4&#45;&gt;Node15</title>
<path fill="none" stroke="midnightblue" d="M1016.62,-56.44C977.17,-46.63 912.7,-30.59 871.86,-20.42"/>
<polygon fill="midnightblue" stroke="midnightblue" points="872.56,-16.99 862.01,-17.97 870.87,-23.78 872.56,-16.99"/>
</g>
<!-- Node16 -->
<g id="node16" class="node">
<title>Node16</title>
<g id="a_node16"><a xlink:title=" ">
<polygon fill="none" stroke="#bfbfbf" points="1723.5,-0.5 1723.5,-19.5 1788.5,-19.5 1788.5,-0.5 1723.5,-0.5"/>
<text text-anchor="middle" x="1756" y="-7.5" font-family="Helvetica,sans-Serif" font-size="10.00">semaphore</text>
</a>
</g>
</g>
<!-- Node4&#45;&gt;Node16 -->
<g id="edge15" class="edge">
<title>Node4&#45;&gt;Node16</title>
<path fill="none" stroke="midnightblue" d="M1118.26,-63.74C1236.79,-60.79 1490.67,-51.25 1713.49,-20.02"/>
<polygon fill="midnightblue" stroke="midnightblue" points="1714,-23.48 1723.41,-18.61 1713.01,-16.55 1714,-23.48"/>
</g>
<!-- Node17 -->
<g id="node17" class="node">
<title>Node17</title>
<g id="a_node17"><a xlink:title=" ">
<polygon fill="none" stroke="#bfbfbf" points="880,-0.5 880,-19.5 936,-19.5 936,-0.5 880,-0.5"/>
<text text-anchor="middle" x="908" y="-7.5" font-family="Helvetica,sans-Serif" font-size="10.00">concepts</text>
</a>
</g>
</g>
<!-- Node4&#45;&gt;Node17 -->
<g id="edge16" class="edge">
<title>Node4&#45;&gt;Node17</title>
<path fill="none" stroke="midnightblue" d="M1028.34,-56.44C1004.6,-47.48 967.09,-33.31 940.26,-23.18"/>
<polygon fill="midnightblue" stroke="midnightblue" points="941.14,-19.77 930.55,-19.52 938.67,-26.32 941.14,-19.77"/>
</g>
<!-- Node18 -->
<g id="node18" class="node">
<title>Node18</title>
<g id="a_node18"><a xlink:title=" ">
<polygon fill="none" stroke="#bfbfbf" points="954,-0.5 954,-19.5 1008,-19.5 1008,-0.5 954,-0.5"/>
<text text-anchor="middle" x="981" y="-7.5" font-family="Helvetica,sans-Serif" font-size="10.00">iostream</text>
</a>
</g>
</g>
<!-- Node4&#45;&gt;Node18 -->
<g id="edge17" class="edge">
<title>Node4&#45;&gt;Node18</title>
<path fill="none" stroke="midnightblue" d="M1039.75,-56.32C1029.2,-48.18 1013.2,-35.84 1000.56,-26.09"/>
<polygon fill="midnightblue" stroke="midnightblue" points="1002.51,-23.17 992.45,-19.83 998.23,-28.71 1002.51,-23.17"/>
</g>
<!-- Node19 -->
<g id="node19" class="node">
<title>Node19</title>
<g id="a_node19"><a xlink:title=" ">
<polygon fill="none" stroke="#bfbfbf" points="1026.5,-0.5 1026.5,-19.5 1075.5,-19.5 1075.5,-0.5 1026.5,-0.5"/>
<text text-anchor="middle" x="1051" y="-7.5" font-family="Helvetica,sans-Serif" font-size="10.00">fstream</text>
</a>
</g>
</g>
<!-- Node4&#45;&gt;Node19 -->
<g id="edge18" class="edge">
<title>Node4&#45;&gt;Node19</title>
<path fill="none" stroke="midnightblue" d="M1051,-56.08C1051,-49.01 1051,-38.86 1051,-29.99"/>
<polygon fill="midnightblue" stroke="midnightblue" points="1054.5,-29.75 1051,-19.75 1047.5,-29.75 1054.5,-29.75"/>
</g>
<!-- Node20 -->
<g id="node20" class="node">
<title>Node20</title>
<g id="a_node20"><a xlink:title=" ">
<polygon fill="none" stroke="#bfbfbf" points="1093.5,-0.5 1093.5,-19.5 1134.5,-19.5 1134.5,-0.5 1093.5,-0.5"/>
<text text-anchor="middle" x="1114" y="-7.5" font-family="Helvetica,sans-Serif" font-size="10.00">bitset</text>
</a>
</g>
</g>
<!-- Node4&#45;&gt;Node20 -->
<g id="edge19" class="edge">
<title>Node4&#45;&gt;Node20</title>
<path fill="none" stroke="midnightblue" d="M1061.12,-56.32C1070.53,-48.26 1084.74,-36.08 1096.07,-26.37"/>
<polygon fill="midnightblue" stroke="midnightblue" points="1098.38,-29 1103.69,-19.83 1093.82,-23.68 1098.38,-29"/>
</g>
<!-- Node21 -->
<g id="node21" class="node">
<title>Node21</title>
<g id="a_node21"><a xlink:title=" ">
<polygon fill="none" stroke="#bfbfbf" points="1153,-0.5 1153,-19.5 1205,-19.5 1205,-0.5 1153,-0.5"/>
<text text-anchor="middle" x="1179" y="-7.5" font-family="Helvetica,sans-Serif" font-size="10.00">memory</text>
</a>
</g>
</g>
<!-- Node4&#45;&gt;Node21 -->
<g id="edge20" class="edge">
<title>Node4&#45;&gt;Node21</title>
<path fill="none" stroke="midnightblue" d="M1071.28,-56.44C1092.35,-47.56 1125.52,-33.56 1149.49,-23.45"/>
<polygon fill="midnightblue" stroke="midnightblue" points="1150.96,-26.63 1158.81,-19.52 1148.24,-20.18 1150.96,-26.63"/>
</g>
<!-- Node22 -->
<g id="node22" class="node">
<title>Node22</title>
<g id="a_node22"><a xlink:title=" ">
<polygon fill="none" stroke="#bfbfbf" points="1223.5,-0.5 1223.5,-19.5 1272.5,-19.5 1272.5,-0.5 1223.5,-0.5"/>
<text text-anchor="middle" x="1248" y="-7.5" font-family="Helvetica,sans-Serif" font-size="10.00">random</text>
</a>
</g>
</g>
<!-- Node4&#45;&gt;Node22 -->
<g id="edge21" class="edge">
<title>Node4&#45;&gt;Node22</title>
<path fill="none" stroke="midnightblue" d="M1082.22,-56.44C1118.02,-46.63 1176.53,-30.59 1213.61,-20.43"/>
<polygon fill="midnightblue" stroke="midnightblue" points="1214.75,-23.74 1223.47,-17.73 1212.9,-16.99 1214.75,-23.74"/>
</g>
<!-- Node23 -->
<g id="node23" class="node">
<title>Node23</title>
<g id="a_node23"><a xlink:title=" ">
<polygon fill="none" stroke="#bfbfbf" points="1290.5,-0.5 1290.5,-19.5 1331.5,-19.5 1331.5,-0.5 1290.5,-0.5"/>
<text text-anchor="middle" x="1311" y="-7.5" font-family="Helvetica,sans-Serif" font-size="10.00">string</text>
</a>
</g>
</g>
<!-- Node4&#45;&gt;Node23 -->
<g id="edge22" class="edge">
<title>Node4&#45;&gt;Node23</title>
<path fill="none" stroke="midnightblue" d="M1103.19,-56.5C1148.04,-48.82 1214.58,-36.53 1280.73,-20.12"/>
<polygon fill="midnightblue" stroke="midnightblue" points="1281.64,-23.5 1290.48,-17.67 1279.93,-16.71 1281.64,-23.5"/>
</g>
<!-- Node24 -->
<g id="node24" class="node">
<title>Node24</title>
<g id="a_node24"><a xlink:title=" ">
<polygon fill="none" stroke="#bfbfbf" points="1350,-0.5 1350,-19.5 1392,-19.5 1392,-0.5 1350,-0.5"/>
<text text-anchor="middle" x="1371" y="-7.5" font-family="Helvetica,sans-Serif" font-size="10.00">vector</text>
</a>
</g>
</g>
<!-- Node4&#45;&gt;Node24 -->
<g id="edge23" class="edge">
<title>Node4&#45;&gt;Node24</title>
<path fill="none" stroke="midnightblue" d="M1118.01,-57.26C1174.8,-50.09 1258.5,-38.11 1339.88,-20"/>
<polygon fill="midnightblue" stroke="midnightblue" points="1340.81,-23.37 1349.79,-17.76 1339.27,-16.55 1340.81,-23.37"/>
</g>
<!-- Node25 -->
<g id="node25" class="node">
<title>Node25</title>
<g id="a_node25"><a xlink:title=" ">
<polygon fill="none" stroke="#bfbfbf" points="1410,-0.5 1410,-19.5 1454,-19.5 1454,-0.5 1410,-0.5"/>
<text text-anchor="middle" x="1432" y="-7.5" font-family="Helvetica,sans-Serif" font-size="10.00">thread</text>
</a>
</g>
</g>
<!-- Node4&#45;&gt;Node25 -->
<g id="edge24" class="edge">
<title>Node4&#45;&gt;Node25</title>
<path fill="none" stroke="midnightblue" d="M1118.28,-59.46C1186.92,-53.12 1296.57,-41.04 1399.79,-19.97"/>
<polygon fill="midnightblue" stroke="midnightblue" points="1400.67,-23.36 1409.75,-17.91 1399.25,-16.51 1400.67,-23.36"/>
</g>
<!-- Node26 -->
<g id="node26" class="node">
<title>Node26</title>
<g id="a_node26"><a xlink:title=" ">
<polygon fill="none" stroke="#bfbfbf" points="1472,-0.5 1472,-19.5 1516,-19.5 1516,-0.5 1472,-0.5"/>
<text text-anchor="middle" x="1494" y="-7.5" font-family="Helvetica,sans-Serif" font-size="10.00">mutex</text>
</a>
</g>
</g>
<!-- Node4&#45;&gt;Node26 -->
<g id="edge25" class="edge">
<title>Node4&#45;&gt;Node26</title>
<path fill="none" stroke="midnightblue" d="M1118.26,-61.25C1198.2,-56 1335.64,-44.42 1461.92,-19.9"/>
<polygon fill="midnightblue" stroke="midnightblue" points="1462.63,-23.33 1471.76,-17.96 1461.27,-16.46 1462.63,-23.33"/>
</g>
<!-- Node27 -->
<g id="node27" class="node">
<title>Node27</title>
<g id="a_node27"><a xlink:title=" ">
<polygon fill="none" stroke="#bfbfbf" points="1534.5,-0.5 1534.5,-19.5 1577.5,-19.5 1577.5,-0.5 1534.5,-0.5"/>
<text text-anchor="middle" x="1556" y="-7.5" font-family="Helvetica,sans-Serif" font-size="10.00">queue</text>
</a>
</g>
</g>
<!-- Node4&#45;&gt;Node27 -->
<g id="edge26" class="edge">
<title>Node4&#45;&gt;Node27</title>
<path fill="none" stroke="midnightblue" d="M1118.28,-62.59C1208.69,-58.47 1374.38,-47.82 1524.58,-19.7"/>
<polygon fill="midnightblue" stroke="midnightblue" points="1525.28,-23.13 1534.45,-17.82 1523.97,-16.25 1525.28,-23.13"/>
</g>
<!-- Node28 -->
<g id="node28" class="node">
<title>Node28</title>
<g id="a_node28"><a xlink:title=" ">
<polygon fill="none" stroke="#bfbfbf" points="1595.5,-0.5 1595.5,-19.5 1630.5,-19.5 1630.5,-0.5 1595.5,-0.5"/>
<text text-anchor="middle" x="1613" y="-7.5" font-family="Helvetica,sans-Serif" font-size="10.00">map</text>
</a>
</g>
</g>
<!-- Node4&#45;&gt;Node28 -->
<g id="edge27" class="edge">
<title>Node4&#45;&gt;Node28</title>
<path fill="none" stroke="midnightblue" d="M1118.21,-64.71C1218.56,-63.09 1413.35,-55.43 1585.28,-19.9"/>
<polygon fill="midnightblue" stroke="midnightblue" points="1586.2,-23.28 1595.26,-17.79 1584.76,-16.43 1586.2,-23.28"/>
</g>
<!-- Node29&#45;&gt;Node16 -->
<g id="edge45" class="edge">
<title>Node29&#45;&gt;Node16</title>
<path fill="none" stroke="midnightblue" d="M1015.51,-297.45C1196.64,-289.25 1709,-259.88 1709,-190 1709,-190 1709,-190 1709,-126.5 1709,-89.35 1730.12,-50.11 1744.04,-28.27"/>
<polygon fill="midnightblue" stroke="midnightblue" points="1747.06,-30.05 1749.66,-19.78 1741.22,-26.19 1747.06,-30.05"/>
</g>
<!-- Node30 -->
<g id="node30" class="node">
<title>Node30</title>
<g id="a_node30"><a xlink:href="../../d5/de8/a00749.html" target="_top" xlink:title=" ">
<polygon fill="none" stroke="black" points="878,-235.5 878,-254.5 1028,-254.5 1028,-235.5 878,-235.5"/>
<text text-anchor="middle" x="953" y="-242.5" font-family="Helvetica,sans-Serif" font-size="10.00">discordcoreapi/SSLClients.hpp</text>
</a>
</g>
</g>
<!-- Node29&#45;&gt;Node30 -->
<g id="edge29" class="edge">
<title>Node29&#45;&gt;Node30</title>
<path fill="none" stroke="midnightblue" d="M953,-291.08C953,-284.01 953,-273.86 953,-264.99"/>
<polygon fill="midnightblue" stroke="midnightblue" points="956.5,-264.75 953,-254.75 949.5,-264.75 956.5,-264.75"/>
</g>
<!-- Node30&#45;&gt;Node3 -->
<g id="edge40" class="edge">
<title>Node30&#45;&gt;Node3</title>
<path fill="none" stroke="midnightblue" d="M1028.09,-243.99C1182.17,-243.19 1522.64,-237.09 1558,-199 1611.51,-141.36 1317.54,-130.62 1173.7,-128.78"/>
<polygon fill="midnightblue" stroke="midnightblue" points="1173.64,-125.28 1163.6,-128.66 1173.56,-132.27 1173.64,-125.28"/>
</g>
<!-- Node31 -->
<g id="node31" class="node">
<title>Node31</title>
<g id="a_node31"><a xlink:title=" ">
<polygon fill="none" stroke="#bfbfbf" points="429.5,-179.5 429.5,-198.5 472.5,-198.5 472.5,-179.5 429.5,-179.5"/>
<text text-anchor="middle" x="451" y="-186.5" font-family="Helvetica,sans-Serif" font-size="10.00">fcntl.h</text>
</a>
</g>
</g>
<!-- Node30&#45;&gt;Node31 -->
<g id="edge30" class="edge">
<title>Node30&#45;&gt;Node31</title>
<path fill="none" stroke="midnightblue" d="M877.96,-241.39C786.4,-237.19 626.91,-226.6 482.44,-198.94"/>
<polygon fill="midnightblue" stroke="midnightblue" points="482.99,-195.48 472.5,-197 481.65,-202.35 482.99,-195.48"/>
</g>
<!-- Node32 -->
<g id="node32" class="node">
<title>Node32</title>
<g id="a_node32"><a xlink:title=" ">
<polygon fill="none" stroke="#bfbfbf" points="490.5,-179.5 490.5,-198.5 539.5,-198.5 539.5,-179.5 490.5,-179.5"/>
<text text-anchor="middle" x="515" y="-186.5" font-family="Helvetica,sans-Serif" font-size="10.00">netdb.h</text>
</a>
</g>
</g>
<!-- Node30&#45;&gt;Node32 -->
<g id="edge31" class="edge">
<title>Node30&#45;&gt;Node32</title>
<path fill="none" stroke="midnightblue" d="M877.83,-239.16C798.36,-233.26 669.27,-221.41 549.82,-199.11"/>
<polygon fill="midnightblue" stroke="midnightblue" points="550.25,-195.62 539.77,-197.2 548.94,-202.5 550.25,-195.62"/>
</g>
<!-- Node33 -->
<g id="node33" class="node">
<title>Node33</title>
<g id="a_node33"><a xlink:title=" ">
<polygon fill="none" stroke="#bfbfbf" points="557.5,-179.5 557.5,-198.5 622.5,-198.5 622.5,-179.5 557.5,-179.5"/>
<text text-anchor="middle" x="590" y="-186.5" font-family="Helvetica,sans-Serif" font-size="10.00">netinet/in.h</text>
</a>
</g>
</g>
<!-- Node30&#45;&gt;Node33 -->
<g id="edge32" class="edge">
<title>Node30&#45;&gt;Node33</title>
<path fill="none" stroke="midnightblue" d="M880.49,-235.49C817.36,-227.71 723.19,-215.21 632.52,-199.17"/>
<polygon fill="midnightblue" stroke="midnightblue" points="633.09,-195.71 622.63,-197.4 631.86,-202.6 633.09,-195.71"/>
</g>
<!-- Node34 -->
<g id="node34" class="node">
<title>Node34</title>
<g id="a_node34"><a xlink:title=" ">
<polygon fill="none" stroke="#bfbfbf" points="640.5,-179.5 640.5,-198.5 711.5,-198.5 711.5,-179.5 640.5,-179.5"/>
<text text-anchor="middle" x="676" y="-186.5" font-family="Helvetica,sans-Serif" font-size="10.00">netinet/tcp.h</text>
</a>
</g>
</g>
<!-- Node30&#45;&gt;Node34 -->
<g id="edge33" class="edge">
<title>Node30&#45;&gt;Node34</title>
<path fill="none" stroke="midnightblue" d="M907.87,-235.44C863.02,-226.89 792,-213.27 721.48,-199.28"/>
<polygon fill="midnightblue" stroke="midnightblue" points="722.03,-195.82 711.53,-197.3 720.66,-202.69 722.03,-195.82"/>
</g>
<!-- Node35 -->
<g id="node35" class="node">
<title>Node35</title>
<g id="a_node35"><a xlink:title=" ">
<polygon fill="none" stroke="#bfbfbf" points="729.5,-179.5 729.5,-198.5 778.5,-198.5 778.5,-179.5 729.5,-179.5"/>
<text text-anchor="middle" x="754" y="-186.5" font-family="Helvetica,sans-Serif" font-size="10.00">stdint.h</text>
</a>
</g>
</g>
<!-- Node30&#45;&gt;Node35 -->
<g id="edge34" class="edge">
<title>Node30&#45;&gt;Node35</title>
<path fill="none" stroke="midnightblue" d="M921.47,-235.44C885.3,-225.63 826.19,-209.59 788.74,-199.43"/>
<polygon fill="midnightblue" stroke="midnightblue" points="789.35,-195.97 778.78,-196.73 787.52,-202.72 789.35,-195.97"/>
</g>
<!-- Node36 -->
<g id="node36" class="node">
<title>Node36</title>
<g id="a_node36"><a xlink:title=" ">
<polygon fill="none" stroke="#bfbfbf" points="797,-179.5 797,-198.5 861,-198.5 861,-179.5 797,-179.5"/>
<text text-anchor="middle" x="829" y="-186.5" font-family="Helvetica,sans-Serif" font-size="10.00">sys/epoll.h</text>
</a>
</g>
</g>
<!-- Node30&#45;&gt;Node36 -->
<g id="edge35" class="edge">
<title>Node30&#45;&gt;Node36</title>
<path fill="none" stroke="midnightblue" d="M933.35,-235.44C913.04,-226.6 881.1,-212.69 857.9,-202.59"/>
<polygon fill="midnightblue" stroke="midnightblue" points="859.12,-199.3 848.56,-198.52 856.33,-205.72 859.12,-199.3"/>
</g>
<!-- Node37 -->
<g id="node37" class="node">
<title>Node37</title>
<g id="a_node37"><a xlink:title=" ">
<polygon fill="none" stroke="#bfbfbf" points="879,-179.5 879,-198.5 941,-198.5 941,-179.5 879,-179.5"/>
<text text-anchor="middle" x="910" y="-186.5" font-family="Helvetica,sans-Serif" font-size="10.00">arpa/inet.h</text>
</a>
</g>
</g>
<!-- Node30&#45;&gt;Node37 -->
<g id="edge36" class="edge">
<title>Node30&#45;&gt;Node37</title>
<path fill="none" stroke="midnightblue" d="M945.9,-235.08C939.76,-227.38 930.73,-216.03 923.26,-206.65"/>
<polygon fill="midnightblue" stroke="midnightblue" points="925.94,-204.39 916.97,-198.75 920.46,-208.75 925.94,-204.39"/>
</g>
<!-- Node38 -->
<g id="node38" class="node">
<title>Node38</title>
<g id="a_node38"><a xlink:title=" ">
<polygon fill="none" stroke="#bfbfbf" points="959.5,-179.5 959.5,-198.5 1032.5,-198.5 1032.5,-179.5 959.5,-179.5"/>
<text text-anchor="middle" x="996" y="-186.5" font-family="Helvetica,sans-Serif" font-size="10.00">sys/socket.h</text>
</a>
</g>
</g>
<!-- Node30&#45;&gt;Node38 -->
<g id="edge37" class="edge">
<title>Node30&#45;&gt;Node38</title>
<path fill="none" stroke="midnightblue" d="M960.1,-235.08C966.24,-227.38 975.27,-216.03 982.74,-206.65"/>
<polygon fill="midnightblue" stroke="midnightblue" points="985.54,-208.75 989.03,-198.75 980.06,-204.39 985.54,-208.75"/>
</g>
<!-- Node39 -->
<g id="node39" class="node">
<title>Node39</title>
<g id="a_node39"><a xlink:title=" ">
<polygon fill="none" stroke="#bfbfbf" points="1051,-179.5 1051,-198.5 1119,-198.5 1119,-179.5 1051,-179.5"/>
<text text-anchor="middle" x="1085" y="-186.5" font-family="Helvetica,sans-Serif" font-size="10.00">sys/types.h</text>
</a>
</g>
</g>
<!-- Node30&#45;&gt;Node39 -->
<g id="edge38" class="edge">
<title>Node30&#45;&gt;Node39</title>
<path fill="none" stroke="midnightblue" d="M973.92,-235.44C995.74,-226.52 1030.15,-212.44 1054.89,-202.32"/>
<polygon fill="midnightblue" stroke="midnightblue" points="1056.25,-205.54 1064.18,-198.52 1053.6,-199.06 1056.25,-205.54"/>
</g>
<!-- Node40 -->
<g id="node40" class="node">
<title>Node40</title>
<g id="a_node40"><a xlink:title=" ">
<polygon fill="none" stroke="#bfbfbf" points="1137.5,-179.5 1137.5,-198.5 1188.5,-198.5 1188.5,-179.5 1137.5,-179.5"/>
<text text-anchor="middle" x="1163" y="-186.5" font-family="Helvetica,sans-Serif" font-size="10.00">unistd.h</text>
</a>
</g>
</g>
<!-- Node30&#45;&gt;Node40 -->
<g id="edge39" class="edge">
<title>Node30&#45;&gt;Node40</title>
<path fill="none" stroke="midnightblue" d="M986.28,-235.44C1024.9,-225.51 1088.31,-209.21 1127.75,-199.06"/>
<polygon fill="midnightblue" stroke="midnightblue" points="1128.66,-202.44 1137.48,-196.56 1126.92,-195.66 1128.66,-202.44"/>
</g>
<!-- Node41 -->
<g id="node41" class="node">
<title>Node41</title>
<g id="a_node41"><a xlink:href="../../d4/d6a/a00704.html" target="_top" xlink:title=" ">
<polygon fill="none" stroke="black" points="1207,-179.5 1207,-198.5 1365,-198.5 1365,-179.5 1207,-179.5"/>
<text text-anchor="middle" x="1286" y="-186.5" font-family="Helvetica,sans-Serif" font-size="10.00">discordcoreapi/EventEntities.hpp</text>
</a>
</g>
</g>
<!-- Node30&#45;&gt;Node41 -->
<g id="edge41" class="edge">
<title>Node30&#45;&gt;Node41</title>
<path fill="none" stroke="midnightblue" d="M1005.76,-235.44C1064.83,-225.87 1160.47,-210.36 1223.31,-200.17"/>
<polygon fill="midnightblue" stroke="midnightblue" points="1224.17,-203.57 1233.48,-198.52 1223.05,-196.66 1224.17,-203.57"/>
</g>
<!-- Node42 -->
<g id="node42" class="node">
<title>Node42</title>
<g id="a_node42"><a xlink:title=" ">
<polygon fill="none" stroke="#bfbfbf" points="1383.5,-179.5 1383.5,-198.5 1456.5,-198.5 1456.5,-179.5 1383.5,-179.5"/>
<text text-anchor="middle" x="1420" y="-186.5" font-family="Helvetica,sans-Serif" font-size="10.00">openssl/err.h</text>
</a>
</g>
</g>
<!-- Node30&#45;&gt;Node42 -->
<g id="edge43" class="edge">
<title>Node30&#45;&gt;Node42</title>
<path fill="none" stroke="midnightblue" d="M1028.16,-237.95C1110.43,-230.87 1246.41,-217.87 1373.48,-198.95"/>
<polygon fill="midnightblue" stroke="midnightblue" points="1374.02,-202.41 1383.39,-197.46 1372.98,-195.49 1374.02,-202.41"/>
</g>
<!-- Node43 -->
<g id="node43" class="node">
<title>Node43</title>
<g id="a_node43"><a xlink:title=" ">
<polygon fill="none" stroke="#bfbfbf" points="1475,-179.5 1475,-198.5 1549,-198.5 1549,-179.5 1475,-179.5"/>
<text text-anchor="middle" x="1512" y="-186.5" font-family="Helvetica,sans-Serif" font-size="10.00">openssl/ssl.h</text>
</a>
</g>
</g>
<!-- Node30&#45;&gt;Node43 -->
<g id="edge44" class="edge">
<title>Node30&#45;&gt;Node43</title>
<path fill="none" stroke="midnightblue" d="M1028.05,-239.91C1126.19,-234 1303.62,-221.42 1464.8,-199.03"/>
<polygon fill="midnightblue" stroke="midnightblue" points="1465.48,-202.47 1474.9,-197.61 1464.51,-195.53 1465.48,-202.47"/>
</g>
<!-- Node41&#45;&gt;Node3 -->
<g id="edge42" class="edge">
<title>Node41&#45;&gt;Node3</title>
<path fill="none" stroke="midnightblue" d="M1259.06,-179.48C1231.22,-170.66 1187,-156.67 1151.93,-145.57"/>
<polygon fill="midnightblue" stroke="midnightblue" points="1152.9,-142.2 1142.31,-142.52 1150.79,-148.88 1152.9,-142.2"/>
</g>
</g>
</svg>
