<?xml version="1.0" encoding="UTF-8" standalone="no"?>
<!DOCTYPE svg PUBLIC "-//W3C//DTD SVG 1.1//EN"
 "http://www.w3.org/Graphics/SVG/1.1/DTD/svg11.dtd">
<!-- Generated by graphviz version 2.43.0 (0)
 -->
<!-- Title: DiscordCoreAPI::Roles::modifyGuildRolePositionsAsync Pages: 1 -->
<svg width="668pt" height="60pt"
 viewBox="0.00 0.00 668.00 60.00" xmlns="http://www.w3.org/2000/svg" xmlns:xlink="http://www.w3.org/1999/xlink">
<g id="graph0" class="graph" transform="scale(1 1) rotate(0) translate(4 56)">
<title>DiscordCoreAPI::Roles::modifyGuildRolePositionsAsync</title>
<!-- Node1 -->
<g id="node1" class="node">
<title>Node1</title>
<g id="a_node1"><a xlink:title="Updates a Role&#39;s positions.">
<polygon fill="#bfbfbf" stroke="black" points="177,-30 0,-30 0,0 177,0 177,-30"/>
<text text-anchor="start" x="8" y="-18" font-family="Helvetica,sans-Serif" font-size="10.00">DiscordCoreAPI::Roles</text>
<text text-anchor="middle" x="88.5" y="-7" font-family="Helvetica,sans-Serif" font-size="10.00">::modifyGuildRolePositionsAsync</text>
</a>
</g>
</g>
<!-- Node2 -->
<g id="node2" class="node">
<title>Node2</title>
<g id="a_node2"><a xlink:href="../../d2/d66/a03352.html#a7cdfc6e07d7950d25399ea9e88852d1b" target="_top" xlink:title="Collects a given Role from the library&#39;s cache.">
<polygon fill="none" stroke="black" points="338,-52 213,-52 213,-22 338,-22 338,-52"/>
<text text-anchor="start" x="221" y="-40" font-family="Helvetica,sans-Serif" font-size="10.00">DiscordCoreAPI::Roles</text>
<text text-anchor="middle" x="275.5" y="-29" font-family="Helvetica,sans-Serif" font-size="10.00">::getCachedRoleAsync</text>
</a>
</g>
</g>
<!-- Node1&#45;&gt;Node2 -->
<g id="edge1" class="edge">
<title>Node1&#45;&gt;Node2</title>
<path fill="none" stroke="midnightblue" d="M177.12,-25.42C185.69,-26.44 194.31,-27.46 202.69,-28.46"/>
<polygon fill="midnightblue" stroke="midnightblue" points="202.43,-31.95 212.78,-29.66 203.26,-25 202.43,-31.95"/>
</g>
<!-- Node4 -->
<g id="node4" class="node">
<title>Node4</title>
<g id="a_node4"><a xlink:href="../../d2/d66/a03352.html#a754076febb3e97b056fcbd2801646f5b" target="_top" xlink:title="Collects the Roles that a Guild has.">
<polygon fill="none" stroke="black" points="660,-30 535,-30 535,0 660,0 660,-30"/>
<text text-anchor="start" x="543" y="-18" font-family="Helvetica,sans-Serif" font-size="10.00">DiscordCoreAPI::Roles</text>
<text text-anchor="middle" x="597.5" y="-7" font-family="Helvetica,sans-Serif" font-size="10.00">::getGuildRolesAsync</text>
</a>
</g>
</g>
<!-- Node1&#45;&gt;Node4 -->
<g id="edge5" class="edge">
<title>Node1&#45;&gt;Node4</title>
<path fill="none" stroke="midnightblue" d="M177.2,-13.4C189.23,-13.24 201.42,-13.09 213,-13 340.11,-11.97 371.9,-11.7 499,-13 507.34,-13.09 516.07,-13.21 524.74,-13.36"/>
<polygon fill="midnightblue" stroke="midnightblue" points="524.81,-16.86 534.87,-13.54 524.93,-9.86 524.81,-16.86"/>
</g>
<!-- Node3 -->
<g id="node3" class="node">
<title>Node3</title>
<g id="a_node3"><a xlink:href="../../d2/d66/a03352.html#a288de1b0e26b722f78a4b68abc1c86aa" target="_top" xlink:title="Collects a Role from the Discord servers.">
<polygon fill="none" stroke="black" points="499,-52 374,-52 374,-22 499,-22 499,-52"/>
<text text-anchor="start" x="382" y="-40" font-family="Helvetica,sans-Serif" font-size="10.00">DiscordCoreAPI::Roles</text>
<text text-anchor="middle" x="436.5" y="-29" font-family="Helvetica,sans-Serif" font-size="10.00">::getRoleAsync</text>
</a>
</g>
</g>
<!-- Node2&#45;&gt;Node3 -->
<g id="edge2" class="edge">
<title>Node2&#45;&gt;Node3</title>
<path fill="none" stroke="midnightblue" d="M338.43,-30.4C346.67,-30.26 355.18,-30.22 363.58,-30.28"/>
<polygon fill="midnightblue" stroke="midnightblue" points="363.7,-33.78 373.74,-30.4 363.78,-26.78 363.7,-33.78"/>
</g>
<!-- Node3&#45;&gt;Node2 -->
<g id="edge3" class="edge">
<title>Node3&#45;&gt;Node2</title>
<path fill="none" stroke="midnightblue" d="M373.74,-43.6C365.5,-43.74 356.99,-43.78 348.59,-43.72"/>
<polygon fill="midnightblue" stroke="midnightblue" points="348.47,-40.22 338.43,-43.6 348.39,-47.22 348.47,-40.22"/>
</g>
<!-- Node3&#45;&gt;Node4 -->
<g id="edge4" class="edge">
<title>Node3&#45;&gt;Node4</title>
<path fill="none" stroke="midnightblue" d="M499.43,-28.43C507.67,-27.29 516.18,-26.11 524.58,-24.95"/>
<polygon fill="midnightblue" stroke="midnightblue" points="525.31,-28.38 534.74,-23.55 524.35,-21.45 525.31,-28.38"/>
</g>
</g>
</svg>
