<?xml version="1.0" encoding="UTF-8" standalone="no"?>
<!DOCTYPE svg PUBLIC "-//W3C//DTD SVG 1.1//EN"
 "http://www.w3.org/Graphics/SVG/1.1/DTD/svg11.dtd">
<!-- Generated by graphviz version 2.43.0 (0)
 -->
<!-- Title: DiscordCoreAPI::Roles::createGuildRoleAsync Pages: 1 -->
<svg width="834pt" height="60pt"
 viewBox="0.00 0.00 834.00 60.00" xmlns="http://www.w3.org/2000/svg" xmlns:xlink="http://www.w3.org/1999/xlink">
<g id="graph0" class="graph" transform="scale(1 1) rotate(0) translate(4 56)">
<title>DiscordCoreAPI::Roles::createGuildRoleAsync</title>
<!-- Node1 -->
<g id="node1" class="node">
<title>Node1</title>
<g id="a_node1"><a xlink:title="Creates a new Role within the given Guild.">
<polygon fill="#bfbfbf" stroke="black" points="130,-30 0,-30 0,0 130,0 130,-30"/>
<text text-anchor="start" x="8" y="-18" font-family="Helvetica,sans-Serif" font-size="10.00">DiscordCoreAPI::Roles</text>
<text text-anchor="middle" x="65" y="-7" font-family="Helvetica,sans-Serif" font-size="10.00">::createGuildRoleAsync</text>
</a>
</g>
</g>
<!-- Node2 -->
<g id="node2" class="node">
<title>Node2</title>
<g id="a_node2"><a xlink:href="../../d2/d66/a03352.html#a27cdc694fbb1843ea5bcd3cbd4a743c1" target="_top" xlink:title="Updates a Role&#39;s positions.">
<polygon fill="none" stroke="black" points="343,-30 166,-30 166,0 343,0 343,-30"/>
<text text-anchor="start" x="174" y="-18" font-family="Helvetica,sans-Serif" font-size="10.00">DiscordCoreAPI::Roles</text>
<text text-anchor="middle" x="254.5" y="-7" font-family="Helvetica,sans-Serif" font-size="10.00">::modifyGuildRolePositionsAsync</text>
</a>
</g>
</g>
<!-- Node1&#45;&gt;Node2 -->
<g id="edge1" class="edge">
<title>Node1&#45;&gt;Node2</title>
<path fill="none" stroke="midnightblue" d="M130,-15C138.31,-15 146.97,-15 155.68,-15"/>
<polygon fill="midnightblue" stroke="midnightblue" points="155.9,-18.5 165.9,-15 155.9,-11.5 155.9,-18.5"/>
</g>
<!-- Node3 -->
<g id="node3" class="node">
<title>Node3</title>
<g id="a_node3"><a xlink:href="../../d2/d66/a03352.html#a7cdfc6e07d7950d25399ea9e88852d1b" target="_top" xlink:title="Collects a given Role from the library&#39;s cache.">
<polygon fill="none" stroke="black" points="504,-52 379,-52 379,-22 504,-22 504,-52"/>
<text text-anchor="start" x="387" y="-40" font-family="Helvetica,sans-Serif" font-size="10.00">DiscordCoreAPI::Roles</text>
<text text-anchor="middle" x="441.5" y="-29" font-family="Helvetica,sans-Serif" font-size="10.00">::getCachedRoleAsync</text>
</a>
</g>
</g>
<!-- Node2&#45;&gt;Node3 -->
<g id="edge2" class="edge">
<title>Node2&#45;&gt;Node3</title>
<path fill="none" stroke="midnightblue" d="M343.12,-25.42C351.69,-26.44 360.31,-27.46 368.69,-28.46"/>
<polygon fill="midnightblue" stroke="midnightblue" points="368.43,-31.95 378.78,-29.66 369.26,-25 368.43,-31.95"/>
</g>
<!-- Node5 -->
<g id="node5" class="node">
<title>Node5</title>
<g id="a_node5"><a xlink:href="../../d2/d66/a03352.html#a754076febb3e97b056fcbd2801646f5b" target="_top" xlink:title="Collects the Roles that a Guild has.">
<polygon fill="none" stroke="black" points="826,-30 701,-30 701,0 826,0 826,-30"/>
<text text-anchor="start" x="709" y="-18" font-family="Helvetica,sans-Serif" font-size="10.00">DiscordCoreAPI::Roles</text>
<text text-anchor="middle" x="763.5" y="-7" font-family="Helvetica,sans-Serif" font-size="10.00">::getGuildRolesAsync</text>
</a>
</g>
</g>
<!-- Node2&#45;&gt;Node5 -->
<g id="edge6" class="edge">
<title>Node2&#45;&gt;Node5</title>
<path fill="none" stroke="midnightblue" d="M343.2,-13.4C355.23,-13.24 367.42,-13.09 379,-13 506.11,-11.97 537.9,-11.7 665,-13 673.34,-13.09 682.07,-13.21 690.74,-13.36"/>
<polygon fill="midnightblue" stroke="midnightblue" points="690.81,-16.86 700.87,-13.54 690.93,-9.86 690.81,-16.86"/>
</g>
<!-- Node4 -->
<g id="node4" class="node">
<title>Node4</title>
<g id="a_node4"><a xlink:href="../../d2/d66/a03352.html#a288de1b0e26b722f78a4b68abc1c86aa" target="_top" xlink:title="Collects a Role from the Discord servers.">
<polygon fill="none" stroke="black" points="665,-52 540,-52 540,-22 665,-22 665,-52"/>
<text text-anchor="start" x="548" y="-40" font-family="Helvetica,sans-Serif" font-size="10.00">DiscordCoreAPI::Roles</text>
<text text-anchor="middle" x="602.5" y="-29" font-family="Helvetica,sans-Serif" font-size="10.00">::getRoleAsync</text>
</a>
</g>
</g>
<!-- Node3&#45;&gt;Node4 -->
<g id="edge3" class="edge">
<title>Node3&#45;&gt;Node4</title>
<path fill="none" stroke="midnightblue" d="M504.43,-30.4C512.67,-30.26 521.18,-30.22 529.58,-30.28"/>
<polygon fill="midnightblue" stroke="midnightblue" points="529.7,-33.78 539.74,-30.4 529.78,-26.78 529.7,-33.78"/>
</g>
<!-- Node4&#45;&gt;Node3 -->
<g id="edge4" class="edge">
<title>Node4&#45;&gt;Node3</title>
<path fill="none" stroke="midnightblue" d="M539.74,-43.6C531.5,-43.74 522.99,-43.78 514.59,-43.72"/>
<polygon fill="midnightblue" stroke="midnightblue" points="514.47,-40.22 504.43,-43.6 514.39,-47.22 514.47,-40.22"/>
</g>
<!-- Node4&#45;&gt;Node5 -->
<g id="edge5" class="edge">
<title>Node4&#45;&gt;Node5</title>
<path fill="none" stroke="midnightblue" d="M665.43,-28.43C673.67,-27.29 682.18,-26.11 690.58,-24.95"/>
<polygon fill="midnightblue" stroke="midnightblue" points="691.31,-28.38 700.74,-23.55 690.35,-21.45 691.31,-28.38"/>
</g>
</g>
</svg>
