<?xml version="1.0" encoding="UTF-8" standalone="no"?>
<!DOCTYPE svg PUBLIC "-//W3C//DTD SVG 1.1//EN"
 "http://www.w3.org/Graphics/SVG/1.1/DTD/svg11.dtd">
<!-- Generated by graphviz version 2.43.0 (0)
 -->
<!-- Title: DiscordCoreAPI::Roles::getRoleAsync Pages: 1 -->
<svg width="294pt" height="86pt"
 viewBox="0.00 0.00 294.00 86.00" xmlns="http://www.w3.org/2000/svg" xmlns:xlink="http://www.w3.org/1999/xlink">
<g id="graph0" class="graph" transform="scale(1 1) rotate(0) translate(4 82)">
<title>DiscordCoreAPI::Roles::getRoleAsync</title>
<!-- Node1 -->
<g id="node1" class="node">
<title>Node1</title>
<g id="a_node1"><a xlink:title="Collects a Role from the Discord servers.">
<polygon fill="#bfbfbf" stroke="black" points="125,-78 0,-78 0,-48 125,-48 125,-78"/>
<text text-anchor="start" x="8" y="-66" font-family="Helvetica,sans-Serif" font-size="10.00">DiscordCoreAPI::Roles</text>
<text text-anchor="middle" x="62.5" y="-55" font-family="Helvetica,sans-Serif" font-size="10.00">::getRoleAsync</text>
</a>
</g>
</g>
<!-- Node2 -->
<g id="node2" class="node">
<title>Node2</title>
<g id="a_node2"><a xlink:href="../../d2/d66/a03352.html#a7cdfc6e07d7950d25399ea9e88852d1b" target="_top" xlink:title="Collects a given Role from the library&#39;s cache.">
<polygon fill="none" stroke="black" points="286,-78 161,-78 161,-48 286,-48 286,-78"/>
<text text-anchor="start" x="169" y="-66" font-family="Helvetica,sans-Serif" font-size="10.00">DiscordCoreAPI::Roles</text>
<text text-anchor="middle" x="223.5" y="-55" font-family="Helvetica,sans-Serif" font-size="10.00">::getCachedRoleAsync</text>
</a>
</g>
</g>
<!-- Node1&#45;&gt;Node2 -->
<g id="edge1" class="edge">
<title>Node1&#45;&gt;Node2</title>
<path fill="none" stroke="midnightblue" d="M125.43,-56.4C133.67,-56.26 142.18,-56.22 150.58,-56.28"/>
<polygon fill="midnightblue" stroke="midnightblue" points="150.7,-59.78 160.74,-56.4 150.78,-52.78 150.7,-59.78"/>
</g>
<!-- Node3 -->
<g id="node3" class="node">
<title>Node3</title>
<g id="a_node3"><a xlink:href="../../d2/d66/a03352.html#a754076febb3e97b056fcbd2801646f5b" target="_top" xlink:title="Collects the Roles that a Guild has.">
<polygon fill="none" stroke="black" points="286,-30 161,-30 161,0 286,0 286,-30"/>
<text text-anchor="start" x="169" y="-18" font-family="Helvetica,sans-Serif" font-size="10.00">DiscordCoreAPI::Roles</text>
<text text-anchor="middle" x="223.5" y="-7" font-family="Helvetica,sans-Serif" font-size="10.00">::getGuildRolesAsync</text>
</a>
</g>
</g>
<!-- Node1&#45;&gt;Node3 -->
<g id="edge3" class="edge">
<title>Node1&#45;&gt;Node3</title>
<path fill="none" stroke="midnightblue" d="M113.37,-47.94C129.06,-43.21 146.54,-37.93 162.84,-33.01"/>
<polygon fill="midnightblue" stroke="midnightblue" points="164.24,-36.24 172.8,-30 162.22,-29.54 164.24,-36.24"/>
</g>
<!-- Node2&#45;&gt;Node1 -->
<g id="edge2" class="edge">
<title>Node2&#45;&gt;Node1</title>
<path fill="none" stroke="midnightblue" d="M160.74,-69.6C152.5,-69.74 143.99,-69.78 135.59,-69.72"/>
<polygon fill="midnightblue" stroke="midnightblue" points="135.47,-66.22 125.43,-69.6 135.39,-73.22 135.47,-66.22"/>
</g>
</g>
</svg>
