<?xml version="1.0" encoding="UTF-8" standalone="no"?>
<!DOCTYPE svg PUBLIC "-//W3C//DTD SVG 1.1//EN"
 "http://www.w3.org/Graphics/SVG/1.1/DTD/svg11.dtd">
<!-- Generated by graphviz version 3.0.0 (20220226.1711)
 -->
<!-- Title: DiscordCoreClient.hpp Pages: 1 -->
<svg width="1390pt" height="140pt"
 viewBox="0.00 0.00 1390.00 140.00" xmlns="http://www.w3.org/2000/svg" xmlns:xlink="http://www.w3.org/1999/xlink">
<g id="graph0" class="graph" transform="scale(1 1) rotate(0) translate(4 136)">
<title>DiscordCoreClient.hpp</title>
<!-- Node1 -->
<g id="node1" class="node">
<title>Node1</title>
<g id="a_node1"><a xlink:title=" ">
<polygon fill="#bfbfbf" stroke="black" points="635,-112.5 635,-131.5 748,-131.5 748,-112.5 635,-112.5"/>
<text text-anchor="middle" x="691.5" y="-119.5" font-family="Helvetica,sans-Serif" font-size="10.00">DiscordCoreClient.hpp</text>
</a>
</g>
</g>
<!-- Node2 -->
<g id="node2" class="node">
<title>Node2</title>
<g id="a_node2"><a xlink:href="../../da/d96/a00782.html" target="_top" xlink:title=" ">
<polygon fill="none" stroke="black" points="0,-56.5 0,-75.5 161,-75.5 161,-56.5 0,-56.5"/>
<text text-anchor="middle" x="80.5" y="-63.5" font-family="Helvetica,sans-Serif" font-size="10.00">ApplicationCommandEntities.cpp</text>
</a>
</g>
</g>
<!-- Node1&#45;&gt;Node2 -->
<g id="edge1" class="edge">
<title>Node1&#45;&gt;Node2</title>
<path fill="none" stroke="midnightblue" d="M624.64,-115.52C525.47,-107.32 333.55,-91.19 170.5,-76 167.53,-75.72 164.5,-75.44 161.45,-75.15"/>
<polygon fill="midnightblue" stroke="midnightblue" points="624.56,-119.02 634.81,-116.36 625.13,-112.04 624.56,-119.02"/>
</g>
<!-- Node3 -->
<g id="node3" class="node">
<title>Node3</title>
<g id="a_node3"><a xlink:href="../../d0/dad/a00806.html" target="_top" xlink:title=" ">
<polygon fill="none" stroke="black" points="179,-56.5 179,-75.5 292,-75.5 292,-56.5 179,-56.5"/>
<text text-anchor="middle" x="235.5" y="-63.5" font-family="Helvetica,sans-Serif" font-size="10.00">DiscordCoreClient.cpp</text>
</a>
</g>
</g>
<!-- Node1&#45;&gt;Node3 -->
<g id="edge2" class="edge">
<title>Node1&#45;&gt;Node3</title>
<path fill="none" stroke="midnightblue" d="M624.82,-113.73C547.12,-105.16 414.92,-90.27 301.5,-76 298.4,-75.61 295.22,-75.2 292.02,-74.78"/>
<polygon fill="midnightblue" stroke="midnightblue" points="624.62,-117.23 634.94,-114.84 625.39,-110.27 624.62,-117.23"/>
</g>
<!-- Node4 -->
<g id="node4" class="node">
<title>Node4</title>
<g id="a_node4"><a xlink:href="../../d8/d2d/a00815.html" target="_top" xlink:title=" ">
<polygon fill="none" stroke="black" points="310,-56.5 310,-75.5 407,-75.5 407,-56.5 310,-56.5"/>
<text text-anchor="middle" x="358.5" y="-63.5" font-family="Helvetica,sans-Serif" font-size="10.00">EventManager.cpp</text>
</a>
</g>
</g>
<!-- Node1&#45;&gt;Node4 -->
<g id="edge3" class="edge">
<title>Node1&#45;&gt;Node4</title>
<path fill="none" stroke="midnightblue" d="M628.72,-110.82C564.44,-100.4 465.86,-84.41 407.23,-74.9"/>
<polygon fill="midnightblue" stroke="midnightblue" points="628.3,-114.3 638.74,-112.44 629.42,-107.39 628.3,-114.3"/>
</g>
<!-- Node5 -->
<g id="node5" class="node">
<title>Node5</title>
<g id="a_node5"><a xlink:href="../../d6/d8b/a00821.html" target="_top" xlink:title=" ">
<polygon fill="none" stroke="black" points="425,-56.5 425,-75.5 516,-75.5 516,-56.5 425,-56.5"/>
<text text-anchor="middle" x="470.5" y="-63.5" font-family="Helvetica,sans-Serif" font-size="10.00">GuildEntities.cpp</text>
</a>
</g>
</g>
<!-- Node1&#45;&gt;Node5 -->
<g id="edge4" class="edge">
<title>Node1&#45;&gt;Node5</title>
<path fill="none" stroke="midnightblue" d="M646.58,-110.02C604.83,-99.82 543.52,-84.84 505.35,-75.52"/>
<polygon fill="midnightblue" stroke="midnightblue" points="645.94,-113.47 656.48,-112.44 647.6,-106.67 645.94,-113.47"/>
</g>
<!-- Node6 -->
<g id="node6" class="node">
<title>Node6</title>
<g id="a_node6"><a xlink:href="../../d9/daf/a00830.html" target="_top" xlink:title=" ">
<polygon fill="none" stroke="black" points="534,-56.5 534,-75.5 593,-75.5 593,-56.5 534,-56.5"/>
<text text-anchor="middle" x="563.5" y="-63.5" font-family="Helvetica,sans-Serif" font-size="10.00">Https.cpp</text>
</a>
</g>
</g>
<!-- Node1&#45;&gt;Node6 -->
<g id="edge5" class="edge">
<title>Node1&#45;&gt;Node6</title>
<path fill="none" stroke="midnightblue" d="M661.88,-108.5C637.88,-98.38 604.72,-84.39 583.69,-75.52"/>
<polygon fill="midnightblue" stroke="midnightblue" points="660.64,-111.78 671.22,-112.44 663.36,-105.33 660.64,-111.78"/>
</g>
<!-- Node7 -->
<g id="node7" class="node">
<title>Node7</title>
<g id="a_node7"><a xlink:href="../../d8/db9/a00725.html" target="_top" xlink:title=" ">
<polygon fill="none" stroke="black" points="611,-56.5 611,-75.5 670,-75.5 670,-56.5 611,-56.5"/>
<text text-anchor="middle" x="640.5" y="-63.5" font-family="Helvetica,sans-Serif" font-size="10.00">Index.hpp</text>
</a>
</g>
</g>
<!-- Node1&#45;&gt;Node7 -->
<g id="edge6" class="edge">
<title>Node1&#45;&gt;Node7</title>
<path fill="none" stroke="midnightblue" d="M676.12,-104.72C667.13,-95.2 656.14,-83.56 648.76,-75.75"/>
<polygon fill="midnightblue" stroke="midnightblue" points="673.67,-107.22 683.08,-112.08 678.76,-102.41 673.67,-107.22"/>
</g>
<!-- Node9 -->
<g id="node9" class="node">
<title>Node9</title>
<g id="a_node9"><a xlink:href="../../df/de8/a00839.html" target="_top" xlink:title=" ">
<polygon fill="none" stroke="black" points="688.5,-56.5 688.5,-75.5 796.5,-75.5 796.5,-56.5 688.5,-56.5"/>
<text text-anchor="middle" x="742.5" y="-63.5" font-family="Helvetica,sans-Serif" font-size="10.00">MessageEntities.cpp</text>
</a>
</g>
</g>
<!-- Node1&#45;&gt;Node9 -->
<g id="edge8" class="edge">
<title>Node1&#45;&gt;Node9</title>
<path fill="none" stroke="midnightblue" d="M706.88,-104.72C715.87,-95.2 726.86,-83.56 734.24,-75.75"/>
<polygon fill="midnightblue" stroke="midnightblue" points="704.24,-102.41 699.92,-112.08 709.33,-107.22 704.24,-102.41"/>
</g>
<!-- Node10 -->
<g id="node10" class="node">
<title>Node10</title>
<g id="a_node10"><a xlink:href="../../d9/d30/a00848.html" target="_top" xlink:title=" ">
<polygon fill="none" stroke="black" points="814.5,-56.5 814.5,-75.5 888.5,-75.5 888.5,-56.5 814.5,-56.5"/>
<text text-anchor="middle" x="851.5" y="-63.5" font-family="Helvetica,sans-Serif" font-size="10.00">SongAPI.cpp</text>
</a>
</g>
</g>
<!-- Node1&#45;&gt;Node10 -->
<g id="edge9" class="edge">
<title>Node1&#45;&gt;Node10</title>
<path fill="none" stroke="midnightblue" d="M726.55,-109.17C756.67,-99 799.4,-84.59 826.27,-75.52"/>
<polygon fill="midnightblue" stroke="midnightblue" points="725.21,-105.93 716.85,-112.44 727.45,-112.56 725.21,-105.93"/>
</g>
<!-- Node11 -->
<g id="node11" class="node">
<title>Node11</title>
<g id="a_node11"><a xlink:href="../../df/d4c/a00851.html" target="_top" xlink:title=" ">
<polygon fill="none" stroke="black" points="906.5,-56.5 906.5,-75.5 1010.5,-75.5 1010.5,-56.5 906.5,-56.5"/>
<text text-anchor="middle" x="958.5" y="-63.5" font-family="Helvetica,sans-Serif" font-size="10.00">SoundCloudAPI.cpp</text>
</a>
</g>
</g>
<!-- Node1&#45;&gt;Node11 -->
<g id="edge10" class="edge">
<title>Node1&#45;&gt;Node11</title>
<path fill="none" stroke="midnightblue" d="M743.86,-110.41C794.32,-100.2 869.7,-84.96 916.39,-75.52"/>
<polygon fill="midnightblue" stroke="midnightblue" points="742.91,-107.03 733.81,-112.44 744.3,-113.89 742.91,-107.03"/>
</g>
<!-- Node12 -->
<g id="node12" class="node">
<title>Node12</title>
<g id="a_node12"><a xlink:href="../../d1/d93/a00875.html" target="_top" xlink:title=" ">
<polygon fill="none" stroke="black" points="1029,-56.5 1029,-75.5 1138,-75.5 1138,-56.5 1029,-56.5"/>
<text text-anchor="middle" x="1083.5" y="-63.5" font-family="Helvetica,sans-Serif" font-size="10.00">VoiceConnection.cpp</text>
</a>
</g>
</g>
<!-- Node1&#45;&gt;Node12 -->
<g id="edge11" class="edge">
<title>Node1&#45;&gt;Node12</title>
<path fill="none" stroke="midnightblue" d="M758.4,-111.89C824.69,-102.84 929.12,-88.55 1019.5,-76 1022.5,-75.58 1025.58,-75.15 1028.69,-74.72"/>
<polygon fill="midnightblue" stroke="midnightblue" points="757.53,-108.47 748.1,-113.29 758.48,-115.41 757.53,-108.47"/>
</g>
<!-- Node13 -->
<g id="node13" class="node">
<title>Node13</title>
<g id="a_node13"><a xlink:href="../../df/d41/a00881.html" target="_top" xlink:title=" ">
<polygon fill="none" stroke="black" points="1156,-56.5 1156,-75.5 1275,-75.5 1275,-56.5 1156,-56.5"/>
<text text-anchor="middle" x="1215.5" y="-63.5" font-family="Helvetica,sans-Serif" font-size="10.00">WebSocketEntities.cpp</text>
</a>
</g>
</g>
<!-- Node1&#45;&gt;Node13 -->
<g id="edge12" class="edge">
<title>Node1&#45;&gt;Node13</title>
<path fill="none" stroke="midnightblue" d="M758.29,-115.11C847.22,-107.11 1009.34,-91.96 1147.5,-76 1150.22,-75.69 1153,-75.36 1155.81,-75.01"/>
<polygon fill="midnightblue" stroke="midnightblue" points="757.73,-111.65 748.08,-116.03 758.35,-118.62 757.73,-111.65"/>
</g>
<!-- Node14 -->
<g id="node14" class="node">
<title>Node14</title>
<g id="a_node14"><a xlink:href="../../dd/d08/a00884.html" target="_top" xlink:title=" ">
<polygon fill="none" stroke="black" points="1293,-56.5 1293,-75.5 1382,-75.5 1382,-56.5 1293,-56.5"/>
<text text-anchor="middle" x="1337.5" y="-63.5" font-family="Helvetica,sans-Serif" font-size="10.00">YouTubeAPI.cpp</text>
</a>
</g>
</g>
<!-- Node1&#45;&gt;Node14 -->
<g id="edge13" class="edge">
<title>Node1&#45;&gt;Node14</title>
<path fill="none" stroke="midnightblue" d="M758.37,-117.94C868.4,-112.46 1094.38,-99.3 1284.5,-76 1287.19,-75.67 1289.94,-75.3 1292.72,-74.9"/>
<polygon fill="midnightblue" stroke="midnightblue" points="757.9,-114.46 748.09,-118.45 758.25,-121.45 757.9,-114.46"/>
</g>
<!-- Node8 -->
<g id="node8" class="node">
<title>Node8</title>
<g id="a_node8"><a xlink:href="../../dd/d7e/a00809.html" target="_top" xlink:title=" ">
<polygon fill="none" stroke="black" points="606.5,-0.5 606.5,-19.5 674.5,-19.5 674.5,-0.5 606.5,-0.5"/>
<text text-anchor="middle" x="640.5" y="-7.5" font-family="Helvetica,sans-Serif" font-size="10.00">DllMain.cpp</text>
</a>
</g>
</g>
<!-- Node7&#45;&gt;Node8 -->
<g id="edge7" class="edge">
<title>Node7&#45;&gt;Node8</title>
<path fill="none" stroke="midnightblue" d="M640.5,-45.8C640.5,-36.91 640.5,-26.78 640.5,-19.75"/>
<polygon fill="midnightblue" stroke="midnightblue" points="637,-46.08 640.5,-56.08 644,-46.08 637,-46.08"/>
</g>
</g>
</svg>
