<?xml version="1.0" encoding="UTF-8" standalone="no"?>
<!DOCTYPE svg PUBLIC "-//W3C//DTD SVG 1.1//EN"
 "http://www.w3.org/Graphics/SVG/1.1/DTD/svg11.dtd">
<!-- Generated by graphviz version 2.43.0 (0)
 -->
<!-- Title: DiscordCoreAPI::InputEvents::deleteInputEventResponseAsync Pages: 1 -->
<svg width="408pt" height="134pt"
 viewBox="0.00 0.00 408.00 134.00" xmlns="http://www.w3.org/2000/svg" xmlns:xlink="http://www.w3.org/1999/xlink">
<g id="graph0" class="graph" transform="scale(1 1) rotate(0) translate(4 130)">
<title>DiscordCoreAPI::InputEvents::deleteInputEventResponseAsync</title>
<!-- Node1 -->
<g id="node1" class="node">
<title>Node1</title>
<g id="a_node1"><a xlink:title="Deletes a previously sent &quot;input&#45;event&#45;response&quot;.">
<polygon fill="#bfbfbf" stroke="black" points="182,-78 0,-78 0,-48 182,-48 182,-78"/>
<text text-anchor="start" x="8" y="-66" font-family="Helvetica,sans-Serif" font-size="10.00">DiscordCoreAPI::InputEvents</text>
<text text-anchor="middle" x="91" y="-55" font-family="Helvetica,sans-Serif" font-size="10.00">::deleteInputEventResponseAsync</text>
</a>
</g>
</g>
<!-- Node2 -->
<g id="node2" class="node">
<title>Node2</title>
<g id="a_node2"><a xlink:href="../../d7/da0/a03156.html#a4f96f93f629527358ad27c06bd469f9b" target="_top" xlink:title="Deletes a follow up Message.">
<polygon fill="none" stroke="black" points="394.5,-126 223.5,-126 223.5,-96 394.5,-96 394.5,-126"/>
<text text-anchor="start" x="231.5" y="-114" font-family="Helvetica,sans-Serif" font-size="10.00">DiscordCoreAPI::Interactions</text>
<text text-anchor="middle" x="309" y="-103" font-family="Helvetica,sans-Serif" font-size="10.00">::deleteFollowUpMessageAsync</text>
</a>
</g>
</g>
<!-- Node1&#45;&gt;Node2 -->
<g id="edge1" class="edge">
<title>Node1&#45;&gt;Node2</title>
<path fill="none" stroke="midnightblue" d="M159.75,-78.06C182.27,-83.06 207.51,-88.67 230.69,-93.82"/>
<polygon fill="midnightblue" stroke="midnightblue" points="229.97,-97.24 240.49,-96 231.49,-90.41 229.97,-97.24"/>
</g>
<!-- Node3 -->
<g id="node3" class="node">
<title>Node3</title>
<g id="a_node3"><a xlink:href="../../d7/da0/a03156.html#ac0674533569a79e2c0debf7ae75c97db" target="_top" xlink:title="Deletes an Interaction respnose.">
<polygon fill="none" stroke="black" points="400,-78 218,-78 218,-48 400,-48 400,-78"/>
<text text-anchor="start" x="226" y="-66" font-family="Helvetica,sans-Serif" font-size="10.00">DiscordCoreAPI::Interactions</text>
<text text-anchor="middle" x="309" y="-55" font-family="Helvetica,sans-Serif" font-size="10.00">::deleteInteractionResponseAsync</text>
</a>
</g>
</g>
<!-- Node1&#45;&gt;Node3 -->
<g id="edge2" class="edge">
<title>Node1&#45;&gt;Node3</title>
<path fill="none" stroke="midnightblue" d="M182.04,-63C190.53,-63 199.16,-63 207.74,-63"/>
<polygon fill="midnightblue" stroke="midnightblue" points="207.76,-66.5 217.76,-63 207.76,-59.5 207.76,-66.5"/>
</g>
<!-- Node4 -->
<g id="node4" class="node">
<title>Node4</title>
<g id="a_node4"><a xlink:href="../../d5/d70/a01980.html#a904d030f3edbf8efac15b2cebba3e37a" target="_top" xlink:title="Gets the resulting value of the CoRoutine.">
<polygon fill="none" stroke="black" points="383,-30 235,-30 235,0 383,0 383,-30"/>
<text text-anchor="start" x="243" y="-18" font-family="Helvetica,sans-Serif" font-size="10.00">DiscordCoreAPI::CoRoutine</text>
<text text-anchor="middle" x="309" y="-7" font-family="Helvetica,sans-Serif" font-size="10.00">&lt; void &gt;::get</text>
</a>
</g>
</g>
<!-- Node1&#45;&gt;Node4 -->
<g id="edge3" class="edge">
<title>Node1&#45;&gt;Node4</title>
<path fill="none" stroke="midnightblue" d="M159.75,-47.94C182.27,-42.94 207.51,-37.33 230.69,-32.18"/>
<polygon fill="midnightblue" stroke="midnightblue" points="231.49,-35.59 240.49,-30 229.97,-28.76 231.49,-35.59"/>
</g>
</g>
</svg>
