<?xml version="1.0" encoding="UTF-8" standalone="no"?>
<!DOCTYPE svg PUBLIC "-//W3C//DTD SVG 1.1//EN"
 "http://www.w3.org/Graphics/SVG/1.1/DTD/svg11.dtd">
<!-- Generated by graphviz version 3.0.0 (20220226.1711)
 -->
<!-- Title: DiscordCoreAPI::InputEvents::deleteInputEventResponseAsync Pages: 1 -->
<svg width="365pt" height="88pt"
 viewBox="0.00 0.00 365.00 88.00" xmlns="http://www.w3.org/2000/svg" xmlns:xlink="http://www.w3.org/1999/xlink">
<g id="graph0" class="graph" transform="scale(1 1) rotate(0) translate(4 84)">
<title>DiscordCoreAPI::InputEvents::deleteInputEventResponseAsync</title>
<!-- Node1 -->
<g id="node1" class="node">
<title>Node1</title>
<g id="a_node1"><a xlink:title="Deletes a previously sent &quot;input&#45;event&#45;response&quot;.">
<polygon fill="#bfbfbf" stroke="black" points="0,-24.5 0,-54.5 165,-54.5 165,-24.5 0,-24.5"/>
<text text-anchor="start" x="8" y="-42.5" font-family="Helvetica,sans-Serif" font-size="10.00">DiscordCoreAPI::InputEvents</text>
<text text-anchor="middle" x="82.5" y="-31.5" font-family="Helvetica,sans-Serif" font-size="10.00">::deleteInputEventResponseAsync</text>
</a>
</g>
</g>
<!-- Node2 -->
<g id="node2" class="node">
<title>Node2</title>
<g id="a_node2"><a xlink:href="$d7/da0/a03156.html#a4f96f93f629527358ad27c06bd469f9b" xlink:title="Deletes a follow up Message.">
<polygon fill="none" stroke="black" points="201,-49.5 201,-79.5 357,-79.5 357,-49.5 201,-49.5"/>
<text text-anchor="start" x="209" y="-67.5" font-family="Helvetica,sans-Serif" font-size="10.00">DiscordCoreAPI::Interactions</text>
<text text-anchor="middle" x="279" y="-56.5" font-family="Helvetica,sans-Serif" font-size="10.00">::deleteFollowUpMessageAsync</text>
</a>
</g>
</g>
<!-- Node1&#45;&gt;Node2 -->
<g id="edge1" class="edge">
<title>Node1&#45;&gt;Node2</title>
<path fill="none" stroke="midnightblue" d="M165.14,-49.99C173.66,-51.09 182.34,-52.2 190.92,-53.31"/>
<polygon fill="midnightblue" stroke="midnightblue" points="190.55,-56.79 200.92,-54.59 191.45,-49.85 190.55,-56.79"/>
</g>
<!-- Node3 -->
<g id="node3" class="node">
<title>Node3</title>
<g id="a_node3"><a xlink:href="$d5/d70/a01980.html#a904d030f3edbf8efac15b2cebba3e37a" xlink:title="Gets the resulting value of the CoRoutine.">
<polygon fill="none" stroke="black" points="210.5,-0.5 210.5,-30.5 347.5,-30.5 347.5,-0.5 210.5,-0.5"/>
<text text-anchor="start" x="218.5" y="-18.5" font-family="Helvetica,sans-Serif" font-size="10.00">DiscordCoreAPI::CoRoutine</text>
<text text-anchor="middle" x="279" y="-7.5" font-family="Helvetica,sans-Serif" font-size="10.00">&lt; void &gt;::get</text>
</a>
</g>
</g>
<!-- Node1&#45;&gt;Node3 -->
<g id="edge2" class="edge">
<title>Node1&#45;&gt;Node3</title>
<path fill="none" stroke="midnightblue" d="M165.14,-29.43C176.8,-27.99 188.77,-26.51 200.34,-25.08"/>
<polygon fill="midnightblue" stroke="midnightblue" points="200.91,-28.54 210.4,-23.84 200.05,-21.59 200.91,-28.54"/>
</g>
</g>
</svg>
