<?xml version="1.0" encoding="UTF-8" standalone="no"?>
<!DOCTYPE svg PUBLIC "-//W3C//DTD SVG 1.1//EN"
 "http://www.w3.org/Graphics/SVG/1.1/DTD/svg11.dtd">
<!-- Generated by graphviz version 2.43.0 (0)
 -->
<!-- Title: SoundCloudAPI.hpp Pages: 1 -->
<svg width="1488pt" height="192pt"
 viewBox="0.00 0.00 1487.50 192.00" xmlns="http://www.w3.org/2000/svg" xmlns:xlink="http://www.w3.org/1999/xlink">
<g id="graph0" class="graph" transform="scale(1 1) rotate(0) translate(4 188)">
<title>SoundCloudAPI.hpp</title>
<!-- Node1 -->
<g id="node1" class="node">
<title>Node1</title>
<g id="a_node1"><a xlink:title=" ">
<polygon fill="#bfbfbf" stroke="black" points="905,-184 794,-184 794,-165 905,-165 905,-184"/>
<text text-anchor="middle" x="849.5" y="-172" font-family="Helvetica,sans-Serif" font-size="10.00">SoundCloudAPI.hpp</text>
</a>
</g>
</g>
<!-- Node2 -->
<g id="node2" class="node">
<title>Node2</title>
<g id="a_node2"><a xlink:href="../../db/d7c/a00722.html" target="_top" xlink:title=" ">
<polygon fill="none" stroke="black" points="867,-129 742,-129 742,-110 867,-110 867,-129"/>
<text text-anchor="middle" x="804.5" y="-117" font-family="Helvetica,sans-Serif" font-size="10.00">DiscordCoreClient.hpp</text>
</a>
</g>
</g>
<!-- Node1&#45;&gt;Node2 -->
<g id="edge1" class="edge">
<title>Node1&#45;&gt;Node2</title>
<path fill="none" stroke="midnightblue" d="M835.45,-156.96C827.61,-147.72 818.17,-136.6 811.79,-129.09"/>
<polygon fill="midnightblue" stroke="midnightblue" points="832.93,-159.39 842.07,-164.75 838.26,-154.86 832.93,-159.39"/>
</g>
<!-- Node6 -->
<g id="node6" class="node">
<title>Node6</title>
<g id="a_node6"><a xlink:href="../../d7/d49/a00863.html" target="_top" xlink:title=" ">
<polygon fill="none" stroke="black" points="99,-74 0,-74 0,-55 99,-55 99,-74"/>
<text text-anchor="middle" x="49.5" y="-62" font-family="Helvetica,sans-Serif" font-size="10.00">GuildEntities.cpp</text>
</a>
</g>
</g>
<!-- Node1&#45;&gt;Node6 -->
<g id="edge15" class="edge">
<title>Node1&#45;&gt;Node6</title>
<path fill="none" stroke="midnightblue" d="M783.46,-164.92C653.81,-148.01 356.88,-108.99 107.5,-74 104.78,-73.62 101.99,-73.22 99.17,-72.82"/>
<polygon fill="midnightblue" stroke="midnightblue" points="783.25,-168.42 793.62,-166.24 784.16,-161.48 783.25,-168.42"/>
</g>
<!-- Node11 -->
<g id="node11" class="node">
<title>Node11</title>
<g id="a_node11"><a xlink:href="../../df/d0c/a00788.html" target="_top" xlink:title=" ">
<polygon fill="none" stroke="black" points="1351,-74 1274,-74 1274,-55 1351,-55 1351,-74"/>
<text text-anchor="middle" x="1312.5" y="-62" font-family="Helvetica,sans-Serif" font-size="10.00">SongAPI.cpp</text>
</a>
</g>
</g>
<!-- Node1&#45;&gt;Node11 -->
<g id="edge16" class="edge">
<title>Node1&#45;&gt;Node11</title>
<path fill="none" stroke="midnightblue" d="M896.1,-162.63C988.3,-141.12 1192.28,-93.54 1275.78,-74.07"/>
<polygon fill="midnightblue" stroke="midnightblue" points="895.16,-159.25 886.22,-164.94 896.75,-166.07 895.16,-159.25"/>
</g>
<!-- Node12 -->
<g id="node12" class="node">
<title>Node12</title>
<g id="a_node12"><a xlink:href="../../d7/dcf/a00845.html" target="_top" xlink:title=" ">
<polygon fill="none" stroke="black" points="1479.5,-74 1369.5,-74 1369.5,-55 1479.5,-55 1479.5,-74"/>
<text text-anchor="middle" x="1424.5" y="-62" font-family="Helvetica,sans-Serif" font-size="10.00">SoundCloudAPI.cpp</text>
</a>
</g>
</g>
<!-- Node1&#45;&gt;Node12 -->
<g id="edge17" class="edge">
<title>Node1&#45;&gt;Node12</title>
<path fill="none" stroke="midnightblue" d="M907.57,-163.19C957.44,-154.29 1031.24,-141.01 1095.5,-129 1198,-109.84 1318.26,-86.38 1381.16,-74.03"/>
<polygon fill="midnightblue" stroke="midnightblue" points="906.84,-159.77 897.61,-164.97 908.07,-166.66 906.84,-159.77"/>
</g>
<!-- Node3 -->
<g id="node3" class="node">
<title>Node3</title>
<g id="a_node3"><a xlink:href="../../d3/db2/a00869.html" target="_top" xlink:title=" ">
<polygon fill="none" stroke="black" points="296,-74 117,-74 117,-55 296,-55 296,-74"/>
<text text-anchor="middle" x="206.5" y="-62" font-family="Helvetica,sans-Serif" font-size="10.00">ApplicationCommandEntities.cpp</text>
</a>
</g>
</g>
<!-- Node2&#45;&gt;Node3 -->
<g id="edge2" class="edge">
<title>Node2&#45;&gt;Node3</title>
<path fill="none" stroke="midnightblue" d="M731.95,-112.07C622.4,-102.36 414.99,-83.98 296.15,-73.45"/>
<polygon fill="midnightblue" stroke="midnightblue" points="731.65,-115.56 741.92,-112.95 732.26,-108.58 731.65,-115.56"/>
</g>
<!-- Node4 -->
<g id="node4" class="node">
<title>Node4</title>
<g id="a_node4"><a xlink:href="../../d8/d1c/a00824.html" target="_top" xlink:title=" ">
<polygon fill="none" stroke="black" points="439,-74 314,-74 314,-55 439,-55 439,-74"/>
<text text-anchor="middle" x="376.5" y="-62" font-family="Helvetica,sans-Serif" font-size="10.00">DiscordCoreClient.cpp</text>
</a>
</g>
</g>
<!-- Node2&#45;&gt;Node4 -->
<g id="edge3" class="edge">
<title>Node2&#45;&gt;Node4</title>
<path fill="none" stroke="midnightblue" d="M731.78,-109.5C649.49,-99.31 516.83,-82.88 439.01,-73.24"/>
<polygon fill="midnightblue" stroke="midnightblue" points="731.45,-112.98 741.81,-110.74 732.31,-106.03 731.45,-112.98"/>
</g>
<!-- Node5 -->
<g id="node5" class="node">
<title>Node5</title>
<g id="a_node5"><a xlink:href="../../dd/d7e/a00809.html" target="_top" xlink:title=" ">
<polygon fill="none" stroke="black" points="564,-74 457,-74 457,-55 564,-55 564,-74"/>
<text text-anchor="middle" x="510.5" y="-62" font-family="Helvetica,sans-Serif" font-size="10.00">EventManager.cpp</text>
</a>
</g>
</g>
<!-- Node2&#45;&gt;Node5 -->
<g id="edge4" class="edge">
<title>Node2&#45;&gt;Node5</title>
<path fill="none" stroke="midnightblue" d="M747.3,-108.19C692.18,-98.25 609.75,-83.39 558.11,-74.08"/>
<polygon fill="midnightblue" stroke="midnightblue" points="746.8,-111.65 757.26,-109.98 748.04,-104.77 746.8,-111.65"/>
</g>
<!-- Node2&#45;&gt;Node6 -->
<g id="edge5" class="edge">
<title>Node2&#45;&gt;Node6</title>
<path fill="none" stroke="midnightblue" d="M731.5,-115.81C604.44,-110.68 334.46,-97.84 107.5,-74 104.77,-73.71 101.97,-73.39 99.14,-73.05"/>
<polygon fill="midnightblue" stroke="midnightblue" points="731.75,-119.32 741.88,-116.22 732.02,-112.32 731.75,-119.32"/>
</g>
<!-- Node7 -->
<g id="node7" class="node">
<title>Node7</title>
<g id="a_node7"><a xlink:href="../../d3/d00/a00785.html" target="_top" xlink:title=" ">
<polygon fill="none" stroke="black" points="645,-74 582,-74 582,-55 645,-55 645,-74"/>
<text text-anchor="middle" x="613.5" y="-62" font-family="Helvetica,sans-Serif" font-size="10.00">Https.cpp</text>
</a>
</g>
</g>
<!-- Node2&#45;&gt;Node7 -->
<g id="edge6" class="edge">
<title>Node2&#45;&gt;Node7</title>
<path fill="none" stroke="midnightblue" d="M763.72,-107.18C728,-97.27 676.87,-83.08 644.43,-74.08"/>
<polygon fill="midnightblue" stroke="midnightblue" points="763.24,-110.68 773.81,-109.98 765.11,-103.94 763.24,-110.68"/>
</g>
<!-- Node8 -->
<g id="node8" class="node">
<title>Node8</title>
<g id="a_node8"><a xlink:href="../../d2/d4a/a00758.html" target="_top" xlink:title=" ">
<polygon fill="none" stroke="black" points="728,-74 663,-74 663,-55 728,-55 728,-74"/>
<text text-anchor="middle" x="695.5" y="-62" font-family="Helvetica,sans-Serif" font-size="10.00">Index.hpp</text>
</a>
</g>
</g>
<!-- Node2&#45;&gt;Node8 -->
<g id="edge7" class="edge">
<title>Node2&#45;&gt;Node8</title>
<path fill="none" stroke="midnightblue" d="M777.77,-105.5C757.71,-95.75 730.82,-82.68 713.33,-74.17"/>
<polygon fill="midnightblue" stroke="midnightblue" points="776.46,-108.76 786.99,-109.98 779.52,-102.46 776.46,-108.76"/>
</g>
<!-- Node10 -->
<g id="node10" class="node">
<title>Node10</title>
<g id="a_node10"><a xlink:href="../../d4/d45/a00791.html" target="_top" xlink:title=" ">
<polygon fill="none" stroke="black" points="863,-74 746,-74 746,-55 863,-55 863,-74"/>
<text text-anchor="middle" x="804.5" y="-62" font-family="Helvetica,sans-Serif" font-size="10.00">MessageEntities.cpp</text>
</a>
</g>
</g>
<!-- Node2&#45;&gt;Node10 -->
<g id="edge9" class="edge">
<title>Node2&#45;&gt;Node10</title>
<path fill="none" stroke="midnightblue" d="M804.5,-99.66C804.5,-90.93 804.5,-80.99 804.5,-74.09"/>
<polygon fill="midnightblue" stroke="midnightblue" points="801,-99.75 804.5,-109.75 808,-99.75 801,-99.75"/>
</g>
<!-- Node2&#45;&gt;Node11 -->
<g id="edge10" class="edge">
<title>Node2&#45;&gt;Node11</title>
<path fill="none" stroke="midnightblue" d="M877.37,-113.23C968.25,-106.26 1128.25,-92.62 1264.5,-74 1267.52,-73.59 1270.64,-73.12 1273.77,-72.63"/>
<polygon fill="midnightblue" stroke="midnightblue" points="876.89,-109.76 867.18,-114.01 877.42,-116.74 876.89,-109.76"/>
</g>
<!-- Node2&#45;&gt;Node12 -->
<g id="edge11" class="edge">
<title>Node2&#45;&gt;Node12</title>
<path fill="none" stroke="midnightblue" d="M877.43,-113.88C983.79,-106.87 1187.63,-92.38 1360.5,-74 1363.4,-73.69 1366.37,-73.36 1369.36,-73.01"/>
<polygon fill="midnightblue" stroke="midnightblue" points="876.89,-110.41 867.14,-114.56 877.34,-117.39 876.89,-110.41"/>
</g>
<!-- Node13 -->
<g id="node13" class="node">
<title>Node13</title>
<g id="a_node13"><a xlink:href="../../d2/d5e/a00860.html" target="_top" xlink:title=" ">
<polygon fill="none" stroke="black" points="999.5,-74 881.5,-74 881.5,-55 999.5,-55 999.5,-74"/>
<text text-anchor="middle" x="940.5" y="-62" font-family="Helvetica,sans-Serif" font-size="10.00">VoiceConnection.cpp</text>
</a>
</g>
</g>
<!-- Node2&#45;&gt;Node13 -->
<g id="edge12" class="edge">
<title>Node2&#45;&gt;Node13</title>
<path fill="none" stroke="midnightblue" d="M835.83,-106.29C861.04,-96.47 895.83,-82.91 918.25,-74.17"/>
<polygon fill="midnightblue" stroke="midnightblue" points="834.4,-103.09 826.35,-109.98 836.94,-109.61 834.4,-103.09"/>
</g>
<!-- Node14 -->
<g id="node14" class="node">
<title>Node14</title>
<g id="a_node14"><a xlink:href="../../d0/d11/a00842.html" target="_top" xlink:title=" ">
<polygon fill="none" stroke="black" points="1145,-74 1018,-74 1018,-55 1145,-55 1145,-74"/>
<text text-anchor="middle" x="1081.5" y="-62" font-family="Helvetica,sans-Serif" font-size="10.00">WebSocketEntities.cpp</text>
</a>
</g>
</g>
<!-- Node2&#45;&gt;Node14 -->
<g id="edge13" class="edge">
<title>Node2&#45;&gt;Node14</title>
<path fill="none" stroke="midnightblue" d="M859.04,-108.07C910.97,-98.13 988.19,-83.35 1036.65,-74.08"/>
<polygon fill="midnightblue" stroke="midnightblue" points="858.17,-104.67 849,-109.98 859.48,-111.54 858.17,-104.67"/>
</g>
<!-- Node15 -->
<g id="node15" class="node">
<title>Node15</title>
<g id="a_node15"><a xlink:href="../../dc/d1b/a00827.html" target="_top" xlink:title=" ">
<polygon fill="none" stroke="black" points="1255.5,-74 1163.5,-74 1163.5,-55 1255.5,-55 1255.5,-74"/>
<text text-anchor="middle" x="1209.5" y="-62" font-family="Helvetica,sans-Serif" font-size="10.00">YouTubeAPI.cpp</text>
</a>
</g>
</g>
<!-- Node2&#45;&gt;Node15 -->
<g id="edge14" class="edge">
<title>Node2&#45;&gt;Node15</title>
<path fill="none" stroke="midnightblue" d="M877.42,-109.71C948.07,-101.08 1058.22,-87.3 1153.5,-74 1156.71,-73.55 1160.03,-73.08 1163.37,-72.59"/>
<polygon fill="midnightblue" stroke="midnightblue" points="876.79,-106.27 867.29,-110.95 877.64,-113.21 876.79,-106.27"/>
</g>
<!-- Node9 -->
<g id="node9" class="node">
<title>Node9</title>
<g id="a_node9"><a xlink:href="../../d1/d93/a00875.html" target="_top" xlink:title=" ">
<polygon fill="none" stroke="black" points="732.5,-19 658.5,-19 658.5,0 732.5,0 732.5,-19"/>
<text text-anchor="middle" x="695.5" y="-7" font-family="Helvetica,sans-Serif" font-size="10.00">DllMain.cpp</text>
</a>
</g>
</g>
<!-- Node8&#45;&gt;Node9 -->
<g id="edge8" class="edge">
<title>Node8&#45;&gt;Node9</title>
<path fill="none" stroke="midnightblue" d="M695.5,-44.66C695.5,-35.93 695.5,-25.99 695.5,-19.09"/>
<polygon fill="midnightblue" stroke="midnightblue" points="692,-44.75 695.5,-54.75 699,-44.75 692,-44.75"/>
</g>
</g>
</svg>
