<?xml version="1.0" encoding="UTF-8" standalone="no"?>
<!DOCTYPE svg PUBLIC "-//W3C//DTD SVG 1.1//EN"
 "http://www.w3.org/Graphics/SVG/1.1/DTD/svg11.dtd">
<!-- Generated by graphviz version 3.0.0 (20220226.1711)
 -->
<!-- Title: MessageEntities.hpp Pages: 1 -->
<svg width="1391pt" height="364pt"
 viewBox="0.00 0.00 1390.50 364.00" xmlns="http://www.w3.org/2000/svg" xmlns:xlink="http://www.w3.org/1999/xlink">
<g id="graph0" class="graph" transform="scale(1 1) rotate(0) translate(4 360)">
<title>MessageEntities.hpp</title>
<!-- Node1 -->
<g id="node1" class="node">
<title>Node1</title>
<g id="a_node1"><a xlink:title=" ">
<polygon fill="#bfbfbf" stroke="black" points="726.5,-336.5 726.5,-355.5 834.5,-355.5 834.5,-336.5 726.5,-336.5"/>
<text text-anchor="middle" x="780.5" y="-343.5" font-family="Helvetica,sans-Serif" font-size="10.00">MessageEntities.hpp</text>
</a>
</g>
</g>
<!-- Node2 -->
<g id="node2" class="node">
<title>Node2</title>
<g id="a_node2"><a xlink:href="../../df/dbb/a00698.html" target="_top" xlink:title=" ">
<polygon fill="none" stroke="black" points="644,-112.5 644,-131.5 757,-131.5 757,-112.5 644,-112.5"/>
<text text-anchor="middle" x="700.5" y="-119.5" font-family="Helvetica,sans-Serif" font-size="10.00">DiscordCoreClient.hpp</text>
</a>
</g>
</g>
<!-- Node1&#45;&gt;Node2 -->
<g id="edge1" class="edge">
<title>Node1&#45;&gt;Node2</title>
<path fill="none" stroke="midnightblue" d="M717.79,-334.1C667.86,-321.71 601.42,-296 570.5,-244 539.77,-192.32 631.28,-149.17 676.64,-131.53"/>
<polygon fill="midnightblue" stroke="midnightblue" points="717,-337.51 727.53,-336.41 718.61,-330.7 717,-337.51"/>
</g>
<!-- Node10 -->
<g id="node10" class="node">
<title>Node10</title>
<g id="a_node10"><a xlink:href="../../df/de8/a00839.html" target="_top" xlink:title=" ">
<polygon fill="none" stroke="black" points="1274.5,-56.5 1274.5,-75.5 1382.5,-75.5 1382.5,-56.5 1274.5,-56.5"/>
<text text-anchor="middle" x="1328.5" y="-63.5" font-family="Helvetica,sans-Serif" font-size="10.00">MessageEntities.cpp</text>
</a>
</g>
</g>
<!-- Node1&#45;&gt;Node10 -->
<g id="edge32" class="edge">
<title>Node1&#45;&gt;Node10</title>
<path fill="none" stroke="midnightblue" d="M844.92,-344.56C982.69,-341.87 1293.5,-325.75 1293.5,-235 1293.5,-235 1293.5,-235 1293.5,-177 1293.5,-137.52 1314.23,-93.66 1323.78,-75.54"/>
<polygon fill="midnightblue" stroke="midnightblue" points="844.85,-341.06 834.91,-344.74 844.97,-348.06 844.85,-341.06"/>
</g>
<!-- Node16 -->
<g id="node16" class="node">
<title>Node16</title>
<g id="a_node16"><a xlink:href="../../d1/d56/a00707.html" target="_top" xlink:title=" ">
<polygon fill="none" stroke="black" points="248,-168.5 248,-187.5 345,-187.5 345,-168.5 248,-168.5"/>
<text text-anchor="middle" x="296.5" y="-175.5" font-family="Helvetica,sans-Serif" font-size="10.00">EventManager.hpp</text>
</a>
</g>
</g>
<!-- Node1&#45;&gt;Node16 -->
<g id="edge15" class="edge">
<title>Node1&#45;&gt;Node16</title>
<path fill="none" stroke="midnightblue" d="M716.33,-338.14C666.61,-331.62 596.47,-319.82 537.5,-300 446.08,-269.28 345.74,-209.65 310.03,-187.53"/>
<polygon fill="midnightblue" stroke="midnightblue" points="715.95,-341.61 726.31,-339.41 716.83,-334.67 715.95,-341.61"/>
</g>
<!-- Node17 -->
<g id="node17" class="node">
<title>Node17</title>
<g id="a_node17"><a xlink:href="../../df/d3b/a00728.html" target="_top" xlink:title=" ">
<polygon fill="none" stroke="black" points="974.5,-168.5 974.5,-187.5 1060.5,-187.5 1060.5,-168.5 974.5,-168.5"/>
<text text-anchor="middle" x="1017.5" y="-175.5" font-family="Helvetica,sans-Serif" font-size="10.00">InputEvents.hpp</text>
</a>
</g>
</g>
<!-- Node1&#45;&gt;Node17 -->
<g id="edge19" class="edge">
<title>Node1&#45;&gt;Node17</title>
<path fill="none" stroke="midnightblue" d="M801.29,-330.44C849.35,-296.78 966.91,-214.44 1005.21,-187.61"/>
<polygon fill="midnightblue" stroke="midnightblue" points="799.09,-327.71 792.91,-336.31 803.11,-333.44 799.09,-327.71"/>
</g>
<!-- Node22 -->
<g id="node22" class="node">
<title>Node22</title>
<g id="a_node22"><a xlink:href="../../df/df7/a00731.html" target="_top" xlink:title=" ">
<polygon fill="none" stroke="black" points="786,-224.5 786,-243.5 899,-243.5 899,-224.5 786,-224.5"/>
<text text-anchor="middle" x="842.5" y="-231.5" font-family="Helvetica,sans-Serif" font-size="10.00">InteractionEntities.hpp</text>
</a>
</g>
</g>
<!-- Node1&#45;&gt;Node22 -->
<g id="edge25" class="edge">
<title>Node1&#45;&gt;Node22</title>
<path fill="none" stroke="midnightblue" d="M790.28,-327.64C803.75,-303.74 827.49,-261.63 837.66,-243.59"/>
<polygon fill="midnightblue" stroke="midnightblue" points="787.23,-325.94 785.37,-336.37 793.32,-329.38 787.23,-325.94"/>
</g>
<!-- Node24 -->
<g id="node24" class="node">
<title>Node24</title>
<g id="a_node24"><a xlink:href="../../d8/dba/a00773.html" target="_top" xlink:title=" ">
<polygon fill="none" stroke="black" points="683,-280.5 683,-299.5 794,-299.5 794,-280.5 683,-280.5"/>
<text text-anchor="middle" x="738.5" y="-287.5" font-family="Helvetica,sans-Serif" font-size="10.00">WebHookEntities.hpp</text>
</a>
</g>
</g>
<!-- Node1&#45;&gt;Node24 -->
<g id="edge33" class="edge">
<title>Node1&#45;&gt;Node24</title>
<path fill="none" stroke="midnightblue" d="M767.39,-328.14C760.07,-318.74 751.26,-307.4 745.31,-299.75"/>
<polygon fill="midnightblue" stroke="midnightblue" points="764.66,-330.34 773.56,-336.08 770.19,-326.04 764.66,-330.34"/>
</g>
<!-- Node3 -->
<g id="node3" class="node">
<title>Node3</title>
<g id="a_node3"><a xlink:href="../../da/d96/a00782.html" target="_top" xlink:title=" ">
<polygon fill="none" stroke="black" points="252,-56.5 252,-75.5 413,-75.5 413,-56.5 252,-56.5"/>
<text text-anchor="middle" x="332.5" y="-63.5" font-family="Helvetica,sans-Serif" font-size="10.00">ApplicationCommandEntities.cpp</text>
</a>
</g>
</g>
<!-- Node2&#45;&gt;Node3 -->
<g id="edge2" class="edge">
<title>Node2&#45;&gt;Node3</title>
<path fill="none" stroke="midnightblue" d="M633.84,-111.22C564.35,-101.02 456.55,-85.2 390.47,-75.51"/>
<polygon fill="midnightblue" stroke="midnightblue" points="633.4,-114.69 643.81,-112.68 634.42,-107.77 633.4,-114.69"/>
</g>
<!-- Node4 -->
<g id="node4" class="node">
<title>Node4</title>
<g id="a_node4"><a xlink:href="../../d0/dad/a00806.html" target="_top" xlink:title=" ">
<polygon fill="none" stroke="black" points="431,-56.5 431,-75.5 544,-75.5 544,-56.5 431,-56.5"/>
<text text-anchor="middle" x="487.5" y="-63.5" font-family="Helvetica,sans-Serif" font-size="10.00">DiscordCoreClient.cpp</text>
</a>
</g>
</g>
<!-- Node2&#45;&gt;Node4 -->
<g id="edge3" class="edge">
<title>Node2&#45;&gt;Node4</title>
<path fill="none" stroke="midnightblue" d="M656.95,-109.96C616.72,-99.76 557.8,-84.82 521.09,-75.52"/>
<polygon fill="midnightblue" stroke="midnightblue" points="656.2,-113.38 666.75,-112.44 657.92,-106.59 656.2,-113.38"/>
</g>
<!-- Node5 -->
<g id="node5" class="node">
<title>Node5</title>
<g id="a_node5"><a xlink:href="../../d8/d2d/a00815.html" target="_top" xlink:title=" ">
<polygon fill="none" stroke="black" points="0,-56.5 0,-75.5 97,-75.5 97,-56.5 0,-56.5"/>
<text text-anchor="middle" x="48.5" y="-63.5" font-family="Helvetica,sans-Serif" font-size="10.00">EventManager.cpp</text>
</a>
</g>
</g>
<!-- Node2&#45;&gt;Node5 -->
<g id="edge4" class="edge">
<title>Node2&#45;&gt;Node5</title>
<path fill="none" stroke="midnightblue" d="M633.43,-117.71C523.08,-111.88 296.39,-98.25 105.5,-76 102.81,-75.69 100.06,-75.34 97.28,-74.97"/>
<polygon fill="midnightblue" stroke="midnightblue" points="633.58,-121.22 643.75,-118.24 633.94,-114.23 633.58,-121.22"/>
</g>
<!-- Node6 -->
<g id="node6" class="node">
<title>Node6</title>
<g id="a_node6"><a xlink:href="../../d6/d8b/a00821.html" target="_top" xlink:title=" ">
<polygon fill="none" stroke="black" points="562,-56.5 562,-75.5 653,-75.5 653,-56.5 562,-56.5"/>
<text text-anchor="middle" x="607.5" y="-63.5" font-family="Helvetica,sans-Serif" font-size="10.00">GuildEntities.cpp</text>
</a>
</g>
</g>
<!-- Node2&#45;&gt;Node6 -->
<g id="edge5" class="edge">
<title>Node2&#45;&gt;Node6</title>
<path fill="none" stroke="midnightblue" d="M676.69,-107.18C659.58,-97.24 637.03,-84.15 622.4,-75.65"/>
<polygon fill="midnightblue" stroke="midnightblue" points="675.15,-110.33 685.56,-112.32 678.67,-104.28 675.15,-110.33"/>
</g>
<!-- Node7 -->
<g id="node7" class="node">
<title>Node7</title>
<g id="a_node7"><a xlink:href="../../d9/daf/a00830.html" target="_top" xlink:title=" ">
<polygon fill="none" stroke="black" points="671,-56.5 671,-75.5 730,-75.5 730,-56.5 671,-56.5"/>
<text text-anchor="middle" x="700.5" y="-63.5" font-family="Helvetica,sans-Serif" font-size="10.00">Https.cpp</text>
</a>
</g>
</g>
<!-- Node2&#45;&gt;Node7 -->
<g id="edge6" class="edge">
<title>Node2&#45;&gt;Node7</title>
<path fill="none" stroke="midnightblue" d="M700.5,-101.8C700.5,-92.91 700.5,-82.78 700.5,-75.75"/>
<polygon fill="midnightblue" stroke="midnightblue" points="697,-102.08 700.5,-112.08 704,-102.08 697,-102.08"/>
</g>
<!-- Node8 -->
<g id="node8" class="node">
<title>Node8</title>
<g id="a_node8"><a xlink:href="../../d8/db9/a00725.html" target="_top" xlink:title=" ">
<polygon fill="none" stroke="black" points="748,-56.5 748,-75.5 807,-75.5 807,-56.5 748,-56.5"/>
<text text-anchor="middle" x="777.5" y="-63.5" font-family="Helvetica,sans-Serif" font-size="10.00">Index.hpp</text>
</a>
</g>
</g>
<!-- Node2&#45;&gt;Node8 -->
<g id="edge7" class="edge">
<title>Node2&#45;&gt;Node8</title>
<path fill="none" stroke="midnightblue" d="M721.4,-106.34C735.41,-96.52 753.38,-83.91 765.16,-75.65"/>
<polygon fill="midnightblue" stroke="midnightblue" points="719.05,-103.72 712.87,-112.32 723.07,-109.45 719.05,-103.72"/>
</g>
<!-- Node2&#45;&gt;Node10 -->
<g id="edge9" class="edge">
<title>Node2&#45;&gt;Node10</title>
<path fill="none" stroke="midnightblue" d="M767.36,-111.98C989.36,-89.28 1047.66,-99.39 1265.5,-76 1268.36,-75.69 1271.28,-75.36 1274.23,-75"/>
<polygon fill="midnightblue" stroke="midnightblue" points="766.94,-108.5 757.35,-113.01 767.66,-115.47 766.94,-108.5"/>
</g>
<!-- Node11 -->
<g id="node11" class="node">
<title>Node11</title>
<g id="a_node11"><a xlink:href="../../d9/d30/a00848.html" target="_top" xlink:title=" ">
<polygon fill="none" stroke="black" points="825.5,-56.5 825.5,-75.5 899.5,-75.5 899.5,-56.5 825.5,-56.5"/>
<text text-anchor="middle" x="862.5" y="-63.5" font-family="Helvetica,sans-Serif" font-size="10.00">SongAPI.cpp</text>
</a>
</g>
</g>
<!-- Node2&#45;&gt;Node11 -->
<g id="edge10" class="edge">
<title>Node2&#45;&gt;Node11</title>
<path fill="none" stroke="midnightblue" d="M735.98,-109.17C766.49,-99 809.74,-84.59 836.95,-75.52"/>
<polygon fill="midnightblue" stroke="midnightblue" points="734.55,-105.96 726.17,-112.44 736.76,-112.6 734.55,-105.96"/>
</g>
<!-- Node12 -->
<g id="node12" class="node">
<title>Node12</title>
<g id="a_node12"><a xlink:href="../../df/d4c/a00851.html" target="_top" xlink:title=" ">
<polygon fill="none" stroke="black" points="917.5,-56.5 917.5,-75.5 1021.5,-75.5 1021.5,-56.5 917.5,-56.5"/>
<text text-anchor="middle" x="969.5" y="-63.5" font-family="Helvetica,sans-Serif" font-size="10.00">SoundCloudAPI.cpp</text>
</a>
</g>
</g>
<!-- Node2&#45;&gt;Node12 -->
<g id="edge11" class="edge">
<title>Node2&#45;&gt;Node12</title>
<path fill="none" stroke="midnightblue" d="M752.94,-110.47C803.78,-100.27 879.94,-84.98 927.08,-75.52"/>
<polygon fill="midnightblue" stroke="midnightblue" points="752.24,-107.04 743.12,-112.44 753.62,-113.91 752.24,-107.04"/>
</g>
<!-- Node13 -->
<g id="node13" class="node">
<title>Node13</title>
<g id="a_node13"><a xlink:href="../../d1/d93/a00875.html" target="_top" xlink:title=" ">
<polygon fill="none" stroke="black" points="1040,-56.5 1040,-75.5 1149,-75.5 1149,-56.5 1040,-56.5"/>
<text text-anchor="middle" x="1094.5" y="-63.5" font-family="Helvetica,sans-Serif" font-size="10.00">VoiceConnection.cpp</text>
</a>
</g>
</g>
<!-- Node2&#45;&gt;Node13 -->
<g id="edge12" class="edge">
<title>Node2&#45;&gt;Node13</title>
<path fill="none" stroke="midnightblue" d="M767.35,-111.89C861.9,-99 1024.02,-76.9 1030.5,-76 1033.5,-75.58 1036.58,-75.16 1039.69,-74.72"/>
<polygon fill="midnightblue" stroke="midnightblue" points="766.73,-108.44 757.3,-113.26 767.68,-115.38 766.73,-108.44"/>
</g>
<!-- Node14 -->
<g id="node14" class="node">
<title>Node14</title>
<g id="a_node14"><a xlink:href="../../df/d41/a00881.html" target="_top" xlink:title=" ">
<polygon fill="none" stroke="black" points="115,-56.5 115,-75.5 234,-75.5 234,-56.5 115,-56.5"/>
<text text-anchor="middle" x="174.5" y="-63.5" font-family="Helvetica,sans-Serif" font-size="10.00">WebSocketEntities.cpp</text>
</a>
</g>
</g>
<!-- Node2&#45;&gt;Node14 -->
<g id="edge13" class="edge">
<title>Node2&#45;&gt;Node14</title>
<path fill="none" stroke="midnightblue" d="M633.69,-115.15C544.43,-107.16 381.4,-92.01 242.5,-76 239.78,-75.69 237,-75.36 234.19,-75.02"/>
<polygon fill="midnightblue" stroke="midnightblue" points="633.4,-118.63 643.67,-116.04 634.02,-111.66 633.4,-118.63"/>
</g>
<!-- Node15 -->
<g id="node15" class="node">
<title>Node15</title>
<g id="a_node15"><a xlink:href="../../dd/d08/a00884.html" target="_top" xlink:title=" ">
<polygon fill="none" stroke="black" points="1167,-56.5 1167,-75.5 1256,-75.5 1256,-56.5 1167,-56.5"/>
<text text-anchor="middle" x="1211.5" y="-63.5" font-family="Helvetica,sans-Serif" font-size="10.00">YouTubeAPI.cpp</text>
</a>
</g>
</g>
<!-- Node2&#45;&gt;Node15 -->
<g id="edge14" class="edge">
<title>Node2&#45;&gt;Node15</title>
<path fill="none" stroke="midnightblue" d="M767.07,-111.99C942.03,-92.41 988.24,-98.24 1158.5,-76 1161.18,-75.65 1163.94,-75.26 1166.72,-74.85"/>
<polygon fill="midnightblue" stroke="midnightblue" points="766.55,-108.53 757.01,-113.13 767.34,-115.48 766.55,-108.53"/>
</g>
<!-- Node9 -->
<g id="node9" class="node">
<title>Node9</title>
<g id="a_node9"><a xlink:href="../../dd/d7e/a00809.html" target="_top" xlink:title=" ">
<polygon fill="none" stroke="black" points="743.5,-0.5 743.5,-19.5 811.5,-19.5 811.5,-0.5 743.5,-0.5"/>
<text text-anchor="middle" x="777.5" y="-7.5" font-family="Helvetica,sans-Serif" font-size="10.00">DllMain.cpp</text>
</a>
</g>
</g>
<!-- Node8&#45;&gt;Node9 -->
<g id="edge8" class="edge">
<title>Node8&#45;&gt;Node9</title>
<path fill="none" stroke="midnightblue" d="M777.5,-45.8C777.5,-36.91 777.5,-26.78 777.5,-19.75"/>
<polygon fill="midnightblue" stroke="midnightblue" points="774,-46.08 777.5,-56.08 781,-46.08 774,-46.08"/>
</g>
<!-- Node16&#45;&gt;Node2 -->
<g id="edge16" class="edge">
<title>Node16&#45;&gt;Node2</title>
<path fill="none" stroke="midnightblue" d="M355.29,-169.14C432.6,-158.81 567.55,-140.77 643.8,-130.58"/>
<polygon fill="midnightblue" stroke="midnightblue" points="354.68,-165.69 345.23,-170.49 355.61,-172.63 354.68,-165.69"/>
</g>
<!-- Node16&#45;&gt;Node5 -->
<g id="edge17" class="edge">
<title>Node16&#45;&gt;Node5</title>
<path fill="none" stroke="midnightblue" d="M267.88,-164.3C216.83,-141.66 111.34,-94.87 67.87,-75.59"/>
<polygon fill="midnightblue" stroke="midnightblue" points="266.48,-167.51 277.04,-168.37 269.32,-161.11 266.48,-167.51"/>
</g>
<!-- Node16&#45;&gt;Node14 -->
<g id="edge18" class="edge">
<title>Node16&#45;&gt;Node14</title>
<path fill="none" stroke="midnightblue" d="M279.32,-161.51C253.25,-138.01 204.57,-94.11 184.03,-75.59"/>
<polygon fill="midnightblue" stroke="midnightblue" points="277.16,-164.27 286.93,-168.37 281.84,-159.07 277.16,-164.27"/>
</g>
<!-- Node17&#45;&gt;Node2 -->
<g id="edge21" class="edge">
<title>Node17&#45;&gt;Node2</title>
<path fill="none" stroke="midnightblue" d="M964.46,-167.96C904.87,-157.81 808.88,-141.46 750.54,-131.52"/>
<polygon fill="midnightblue" stroke="midnightblue" points="963.97,-171.43 974.42,-169.66 965.15,-164.53 963.97,-171.43"/>
</g>
<!-- Node18 -->
<g id="node18" class="node">
<title>Node18</title>
<g id="a_node18"><a xlink:href="../../d5/d72/a00803.html" target="_top" xlink:title=" ">
<polygon fill="none" stroke="black" points="1100,-112.5 1100,-131.5 1231,-131.5 1231,-112.5 1100,-112.5"/>
<text text-anchor="middle" x="1165.5" y="-119.5" font-family="Helvetica,sans-Serif" font-size="10.00">DataParsingFunctions.cpp</text>
</a>
</g>
</g>
<!-- Node17&#45;&gt;Node18 -->
<g id="edge20" class="edge">
<title>Node17&#45;&gt;Node18</title>
<path fill="none" stroke="midnightblue" d="M1050.65,-164.91C1078.47,-154.75 1117.52,-140.51 1142.16,-131.52"/>
<polygon fill="midnightblue" stroke="midnightblue" points="1049.15,-161.73 1040.95,-168.44 1051.54,-168.3 1049.15,-161.73"/>
</g>
<!-- Node19 -->
<g id="node19" class="node">
<title>Node19</title>
<g id="a_node19"><a xlink:href="../../d3/d60/a00818.html" target="_top" xlink:title=" ">
<polygon fill="none" stroke="black" points="775.5,-112.5 775.5,-131.5 891.5,-131.5 891.5,-112.5 775.5,-112.5"/>
<text text-anchor="middle" x="833.5" y="-119.5" font-family="Helvetica,sans-Serif" font-size="10.00">FoundationEntities.cpp</text>
</a>
</g>
</g>
<!-- Node17&#45;&gt;Node19 -->
<g id="edge22" class="edge">
<title>Node17&#45;&gt;Node19</title>
<path fill="none" stroke="midnightblue" d="M978.55,-165.57C943.84,-155.38 893.82,-140.7 862.52,-131.52"/>
<polygon fill="midnightblue" stroke="midnightblue" points="977.76,-168.99 988.34,-168.44 979.73,-162.27 977.76,-168.99"/>
</g>
<!-- Node20 -->
<g id="node20" class="node">
<title>Node20</title>
<g id="a_node20"><a xlink:href="../../dc/d6e/a00833.html" target="_top" xlink:title=" ">
<polygon fill="none" stroke="black" points="995.5,-112.5 995.5,-131.5 1081.5,-131.5 1081.5,-112.5 995.5,-112.5"/>
<text text-anchor="middle" x="1038.5" y="-119.5" font-family="Helvetica,sans-Serif" font-size="10.00">InputEvents.cpp</text>
</a>
</g>
</g>
<!-- Node17&#45;&gt;Node20 -->
<g id="edge23" class="edge">
<title>Node17&#45;&gt;Node20</title>
<path fill="none" stroke="midnightblue" d="M1024.62,-158.69C1028.16,-149.59 1032.27,-139.01 1035.1,-131.75"/>
<polygon fill="midnightblue" stroke="midnightblue" points="1021.33,-157.49 1020.97,-168.08 1027.85,-160.03 1021.33,-157.49"/>
</g>
<!-- Node21 -->
<g id="node21" class="node">
<title>Node21</title>
<g id="a_node21"><a xlink:href="../../dc/d17/a00872.html" target="_top" xlink:title=" ">
<polygon fill="none" stroke="black" points="909.5,-112.5 909.5,-131.5 977.5,-131.5 977.5,-112.5 909.5,-112.5"/>
<text text-anchor="middle" x="943.5" y="-119.5" font-family="Helvetica,sans-Serif" font-size="10.00">Utilities.cpp</text>
</a>
</g>
</g>
<!-- Node17&#45;&gt;Node21 -->
<g id="edge24" class="edge">
<title>Node17&#45;&gt;Node21</title>
<path fill="none" stroke="midnightblue" d="M997.47,-162.38C984.09,-152.62 966.94,-140.11 955.61,-131.83"/>
<polygon fill="midnightblue" stroke="midnightblue" points="995.47,-165.26 1005.61,-168.32 999.6,-159.6 995.47,-165.26"/>
</g>
<!-- Node22&#45;&gt;Node2 -->
<g id="edge27" class="edge">
<title>Node22&#45;&gt;Node2</title>
<path fill="none" stroke="midnightblue" d="M823.29,-218.12C793.15,-194.77 735.7,-150.27 711.59,-131.59"/>
<polygon fill="midnightblue" stroke="midnightblue" points="821.31,-221.01 831.36,-224.37 825.6,-215.48 821.31,-221.01"/>
</g>
<!-- Node22&#45;&gt;Node17 -->
<g id="edge29" class="edge">
<title>Node22&#45;&gt;Node17</title>
<path fill="none" stroke="midnightblue" d="M879.97,-221.44C912.97,-211.26 960.26,-196.66 989.9,-187.52"/>
<polygon fill="midnightblue" stroke="midnightblue" points="878.75,-218.15 870.23,-224.44 880.82,-224.84 878.75,-218.15"/>
</g>
<!-- Node22&#45;&gt;Node18 -->
<g id="edge26" class="edge">
<title>Node22&#45;&gt;Node18</title>
<path fill="none" stroke="midnightblue" d="M909.3,-226.85C955.64,-220.9 1018.03,-209.48 1069.5,-188 1104.05,-173.58 1139.07,-145.8 1155.64,-131.69"/>
<polygon fill="midnightblue" stroke="midnightblue" points="908.86,-223.38 899.37,-228.07 909.72,-230.32 908.86,-223.38"/>
</g>
<!-- Node22&#45;&gt;Node19 -->
<g id="edge28" class="edge">
<title>Node22&#45;&gt;Node19</title>
<path fill="none" stroke="midnightblue" d="M820.33,-218.16C810.78,-210.42 800.65,-200.05 795.5,-188 786.47,-166.84 807.81,-144.05 822.04,-131.88"/>
<polygon fill="midnightblue" stroke="midnightblue" points="818.33,-221.04 828.42,-224.26 822.54,-215.45 818.33,-221.04"/>
</g>
<!-- Node22&#45;&gt;Node21 -->
<g id="edge31" class="edge">
<title>Node22&#45;&gt;Node21</title>
<path fill="none" stroke="midnightblue" d="M880.36,-220.59C896.73,-213.45 914.77,-202.88 926.5,-188 939.78,-171.14 942.75,-144.94 943.37,-131.53"/>
<polygon fill="midnightblue" stroke="midnightblue" points="878.93,-217.4 870.98,-224.41 881.57,-223.88 878.93,-217.4"/>
</g>
<!-- Node23 -->
<g id="node23" class="node">
<title>Node23</title>
<g id="a_node23"><a xlink:href="../../d3/d13/a00836.html" target="_top" xlink:title=" ">
<polygon fill="none" stroke="black" points="805,-168.5 805,-187.5 918,-187.5 918,-168.5 805,-168.5"/>
<text text-anchor="middle" x="861.5" y="-175.5" font-family="Helvetica,sans-Serif" font-size="10.00">InteractionEntities.cpp</text>
</a>
</g>
</g>
<!-- Node22&#45;&gt;Node23 -->
<g id="edge30" class="edge">
<title>Node22&#45;&gt;Node23</title>
<path fill="none" stroke="midnightblue" d="M849.05,-214.4C852.22,-205.36 855.89,-194.94 858.42,-187.75"/>
<polygon fill="midnightblue" stroke="midnightblue" points="845.65,-213.49 845.64,-224.08 852.26,-215.81 845.65,-213.49"/>
</g>
<!-- Node24&#45;&gt;Node2 -->
<g id="edge34" class="edge">
<title>Node24&#45;&gt;Node2</title>
<path fill="none" stroke="midnightblue" d="M734.13,-269.93C725.89,-233.92 708.34,-157.23 702.46,-131.57"/>
<polygon fill="midnightblue" stroke="midnightblue" points="730.81,-271.11 736.46,-280.08 737.64,-269.55 730.81,-271.11"/>
</g>
<!-- Node24&#45;&gt;Node22 -->
<g id="edge35" class="edge">
<title>Node24&#45;&gt;Node22</title>
<path fill="none" stroke="midnightblue" d="M764.33,-275.59C783.56,-265.61 809.24,-252.27 825.83,-243.65"/>
<polygon fill="midnightblue" stroke="midnightblue" points="762.47,-272.61 755.21,-280.32 765.7,-278.82 762.47,-272.61"/>
</g>
<!-- Node25 -->
<g id="node25" class="node">
<title>Node25</title>
<g id="a_node25"><a xlink:href="../../d5/d69/a00878.html" target="_top" xlink:title=" ">
<polygon fill="none" stroke="black" points="580,-224.5 580,-243.5 691,-243.5 691,-224.5 580,-224.5"/>
<text text-anchor="middle" x="635.5" y="-231.5" font-family="Helvetica,sans-Serif" font-size="10.00">WebHookEntities.cpp</text>
</a>
</g>
</g>
<!-- Node24&#45;&gt;Node25 -->
<g id="edge36" class="edge">
<title>Node24&#45;&gt;Node25</title>
<path fill="none" stroke="midnightblue" d="M712.92,-275.59C693.88,-265.61 668.44,-252.27 652.01,-243.65"/>
<polygon fill="midnightblue" stroke="midnightblue" points="711.47,-278.78 721.95,-280.32 714.72,-272.58 711.47,-278.78"/>
</g>
</g>
</svg>
