<?xml version="1.0" encoding="UTF-8" standalone="no"?>
<!DOCTYPE svg PUBLIC "-//W3C//DTD SVG 1.1//EN"
 "http://www.w3.org/Graphics/SVG/1.1/DTD/svg11.dtd">
<!-- Generated by graphviz version 2.43.0 (0)
 -->
<!-- Title: RoleEntities.hpp Pages: 1 -->
<svg width="1549pt" height="302pt"
 viewBox="0.00 0.00 1549.00 302.00" xmlns="http://www.w3.org/2000/svg" xmlns:xlink="http://www.w3.org/1999/xlink">
<g id="graph0" class="graph" transform="scale(1 1) rotate(0) translate(4 298)">
<title>RoleEntities.hpp</title>
<!-- Node1 -->
<g id="node1" class="node">
<title>Node1</title>
<g id="a_node1"><a xlink:title=" ">
<polygon fill="#bfbfbf" stroke="black" points="1185.5,-294 1089.5,-294 1089.5,-275 1185.5,-275 1185.5,-294"/>
<text text-anchor="middle" x="1137.5" y="-282" font-family="Helvetica,sans-Serif" font-size="10.00">RoleEntities.hpp</text>
</a>
</g>
</g>
<!-- Node2 -->
<g id="node2" class="node">
<title>Node2</title>
<g id="a_node2"><a xlink:href="../../d6/d2f/a00854.html" target="_top" xlink:title=" ">
<polygon fill="none" stroke="black" points="915.5,-184 773.5,-184 773.5,-165 915.5,-165 915.5,-184"/>
<text text-anchor="middle" x="844.5" y="-172" font-family="Helvetica,sans-Serif" font-size="10.00">DataParsingFunctions.cpp</text>
</a>
</g>
</g>
<!-- Node1&#45;&gt;Node2 -->
<g id="edge1" class="edge">
<title>Node1&#45;&gt;Node2</title>
<path fill="none" stroke="midnightblue" d="M1079.35,-273.92C1042.46,-266.76 994.19,-255.37 953.5,-239 916.11,-223.96 876.16,-197.74 856.64,-184.18"/>
<polygon fill="midnightblue" stroke="midnightblue" points="1078.96,-277.41 1089.44,-275.83 1080.26,-270.53 1078.96,-277.41"/>
</g>
<!-- Node3 -->
<g id="node3" class="node">
<title>Node3</title>
<g id="a_node3"><a xlink:href="../../d1/d56/a00707.html" target="_top" xlink:title=" ">
<polygon fill="none" stroke="black" points="808,-129 683,-129 683,-110 808,-110 808,-129"/>
<text text-anchor="middle" x="745.5" y="-117" font-family="Helvetica,sans-Serif" font-size="10.00">DiscordCoreClient.hpp</text>
</a>
</g>
</g>
<!-- Node1&#45;&gt;Node3 -->
<g id="edge2" class="edge">
<title>Node1&#45;&gt;Node3</title>
<path fill="none" stroke="midnightblue" d="M1079.33,-275.56C985.58,-261.56 807.22,-229.6 764.5,-184 750.02,-168.55 746.54,-142.5 745.73,-129.08"/>
<polygon fill="midnightblue" stroke="midnightblue" points="1078.83,-279.02 1089.24,-277.01 1079.85,-272.09 1078.83,-279.02"/>
</g>
<!-- Node7 -->
<g id="node7" class="node">
<title>Node7</title>
<g id="a_node7"><a xlink:href="../../d8/d2d/a00815.html" target="_top" xlink:title=" ">
<polygon fill="none" stroke="black" points="1478,-74 1379,-74 1379,-55 1478,-55 1478,-74"/>
<text text-anchor="middle" x="1428.5" y="-62" font-family="Helvetica,sans-Serif" font-size="10.00">GuildEntities.cpp</text>
</a>
</g>
</g>
<!-- Node1&#45;&gt;Node7 -->
<g id="edge21" class="edge">
<title>Node1&#45;&gt;Node7</title>
<path fill="none" stroke="midnightblue" d="M1195.57,-277.06C1255.18,-267.31 1346.38,-243.16 1398.5,-184 1427.12,-151.52 1429.18,-95.55 1428.83,-74.16"/>
<polygon fill="midnightblue" stroke="midnightblue" points="1194.9,-273.62 1185.55,-278.61 1195.97,-280.54 1194.9,-273.62"/>
</g>
<!-- Node17 -->
<g id="node17" class="node">
<title>Node17</title>
<g id="a_node17"><a xlink:href="../../d0/d0a/a00743.html" target="_top" xlink:title=" ">
<polygon fill="none" stroke="black" points="717,-184 610,-184 610,-165 717,-165 717,-184"/>
<text text-anchor="middle" x="663.5" y="-172" font-family="Helvetica,sans-Serif" font-size="10.00">EventManager.hpp</text>
</a>
</g>
</g>
<!-- Node1&#45;&gt;Node17 -->
<g id="edge16" class="edge">
<title>Node1&#45;&gt;Node17</title>
<path fill="none" stroke="midnightblue" d="M1079.08,-281.61C981.96,-277.73 791.97,-266.75 731.5,-239 704.19,-226.47 680.67,-198.63 669.85,-184.34"/>
<polygon fill="midnightblue" stroke="midnightblue" points="1079.19,-285.12 1089.32,-282.01 1079.46,-278.12 1079.19,-285.12"/>
</g>
<!-- Node18 -->
<g id="node18" class="node">
<title>Node18</title>
<g id="a_node18"><a xlink:href="../../df/d4c/a00851.html" target="_top" xlink:title=" ">
<polygon fill="none" stroke="black" points="1295.5,-184 1167.5,-184 1167.5,-165 1295.5,-165 1295.5,-184"/>
<text text-anchor="middle" x="1231.5" y="-172" font-family="Helvetica,sans-Serif" font-size="10.00">FoundationEntities.cpp</text>
</a>
</g>
</g>
<!-- Node1&#45;&gt;Node18 -->
<g id="edge20" class="edge">
<title>Node1&#45;&gt;Node18</title>
<path fill="none" stroke="midnightblue" d="M1151.86,-267C1172.11,-243.73 1208.32,-202.13 1223.96,-184.16"/>
<polygon fill="midnightblue" stroke="midnightblue" points="1149.12,-264.82 1145.19,-274.66 1154.4,-269.42 1149.12,-264.82"/>
</g>
<!-- Node19 -->
<g id="node19" class="node">
<title>Node19</title>
<g id="a_node19"><a xlink:href="../../d5/d5b/a00695.html" target="_top" xlink:title=" ">
<polygon fill="none" stroke="black" points="1062.5,-239 962.5,-239 962.5,-220 1062.5,-220 1062.5,-239"/>
<text text-anchor="middle" x="1012.5" y="-227" font-family="Helvetica,sans-Serif" font-size="10.00">GuildEntities.hpp</text>
</a>
</g>
</g>
<!-- Node1&#45;&gt;Node19 -->
<g id="edge22" class="edge">
<title>Node1&#45;&gt;Node19</title>
<path fill="none" stroke="midnightblue" d="M1108.09,-271.03C1084.97,-261.23 1053.37,-247.83 1032.95,-239.17"/>
<polygon fill="midnightblue" stroke="midnightblue" points="1106.84,-274.3 1117.42,-274.98 1109.58,-267.86 1106.84,-274.3"/>
</g>
<!-- Node21 -->
<g id="node21" class="node">
<title>Node21</title>
<g id="a_node21"><a xlink:href="../../dc/d1b/a00827.html" target="_top" xlink:title=" ">
<polygon fill="none" stroke="black" points="1389,-184 1314,-184 1314,-165 1389,-165 1389,-184"/>
<text text-anchor="middle" x="1351.5" y="-172" font-family="Helvetica,sans-Serif" font-size="10.00">Utilities.cpp</text>
</a>
</g>
</g>
<!-- Node1&#45;&gt;Node21 -->
<g id="edge31" class="edge">
<title>Node1&#45;&gt;Node21</title>
<path fill="none" stroke="midnightblue" d="M1163.69,-270.28C1208.18,-247.83 1297.34,-202.83 1334.56,-184.05"/>
<polygon fill="midnightblue" stroke="midnightblue" points="1162,-267.21 1154.65,-274.84 1165.16,-273.46 1162,-267.21"/>
</g>
<!-- Node22 -->
<g id="node22" class="node">
<title>Node22</title>
<g id="a_node22"><a xlink:href="../../d2/d5e/a00860.html" target="_top" xlink:title=" ">
<polygon fill="none" stroke="black" points="1541,-239 1446,-239 1446,-220 1541,-220 1541,-239"/>
<text text-anchor="middle" x="1493.5" y="-227" font-family="Helvetica,sans-Serif" font-size="10.00">RoleEntities.cpp</text>
</a>
</g>
</g>
<!-- Node1&#45;&gt;Node22 -->
<g id="edge30" class="edge">
<title>Node1&#45;&gt;Node22</title>
<path fill="none" stroke="midnightblue" d="M1195.46,-274.87C1265.27,-264.48 1381.18,-247.22 1445.97,-237.58"/>
<polygon fill="midnightblue" stroke="midnightblue" points="1194.89,-271.42 1185.51,-276.35 1195.92,-278.34 1194.89,-271.42"/>
</g>
<!-- Node4 -->
<g id="node4" class="node">
<title>Node4</title>
<g id="a_node4"><a xlink:href="../../d4/d45/a00791.html" target="_top" xlink:title=" ">
<polygon fill="none" stroke="black" points="824,-74 645,-74 645,-55 824,-55 824,-74"/>
<text text-anchor="middle" x="734.5" y="-62" font-family="Helvetica,sans-Serif" font-size="10.00">ApplicationCommandEntities.cpp</text>
</a>
</g>
</g>
<!-- Node3&#45;&gt;Node4 -->
<g id="edge3" class="edge">
<title>Node3&#45;&gt;Node4</title>
<path fill="none" stroke="midnightblue" d="M741.65,-99.95C739.82,-91.15 737.73,-81.06 736.28,-74.09"/>
<polygon fill="midnightblue" stroke="midnightblue" points="738.22,-100.67 743.68,-109.75 745.08,-99.25 738.22,-100.67"/>
</g>
<!-- Node5 -->
<g id="node5" class="node">
<title>Node5</title>
<g id="a_node5"><a xlink:href="../../d8/db7/a00812.html" target="_top" xlink:title=" ">
<polygon fill="none" stroke="black" points="967,-74 842,-74 842,-55 967,-55 967,-74"/>
<text text-anchor="middle" x="904.5" y="-62" font-family="Helvetica,sans-Serif" font-size="10.00">DiscordCoreClient.cpp</text>
</a>
</g>
</g>
<!-- Node3&#45;&gt;Node5 -->
<g id="edge4" class="edge">
<title>Node3&#45;&gt;Node5</title>
<path fill="none" stroke="midnightblue" d="M780.6,-106.8C810.28,-96.91 852.1,-82.97 878.75,-74.08"/>
<polygon fill="midnightblue" stroke="midnightblue" points="779.43,-103.5 771.05,-109.98 781.64,-110.14 779.43,-103.5"/>
</g>
<!-- Node6 -->
<g id="node6" class="node">
<title>Node6</title>
<g id="a_node6"><a xlink:href="../../d1/d93/a00875.html" target="_top" xlink:title=" ">
<polygon fill="none" stroke="black" points="107,-74 0,-74 0,-55 107,-55 107,-74"/>
<text text-anchor="middle" x="53.5" y="-62" font-family="Helvetica,sans-Serif" font-size="10.00">EventManager.cpp</text>
</a>
</g>
</g>
<!-- Node3&#45;&gt;Node6 -->
<g id="edge5" class="edge">
<title>Node3&#45;&gt;Node6</title>
<path fill="none" stroke="midnightblue" d="M672.48,-114.9C554.96,-108.77 316.65,-94.87 115.5,-74 112.8,-73.72 110.03,-73.41 107.24,-73.09"/>
<polygon fill="midnightblue" stroke="midnightblue" points="672.62,-118.42 682.79,-115.44 672.98,-111.43 672.62,-118.42"/>
</g>
<!-- Node3&#45;&gt;Node7 -->
<g id="edge6" class="edge">
<title>Node3&#45;&gt;Node7</title>
<path fill="none" stroke="midnightblue" d="M818.42,-115.07C935.21,-109.19 1171.31,-95.66 1370.5,-74 1373.23,-73.7 1376.03,-73.37 1378.86,-73.02"/>
<polygon fill="midnightblue" stroke="midnightblue" points="817.99,-111.59 808.18,-115.58 818.34,-118.58 817.99,-111.59"/>
</g>
<!-- Node8 -->
<g id="node8" class="node">
<title>Node8</title>
<g id="a_node8"><a xlink:href="../../dd/db2/a00866.html" target="_top" xlink:title=" ">
<polygon fill="none" stroke="black" points="1048,-74 985,-74 985,-55 1048,-55 1048,-74"/>
<text text-anchor="middle" x="1016.5" y="-62" font-family="Helvetica,sans-Serif" font-size="10.00">Https.cpp</text>
</a>
</g>
</g>
<!-- Node3&#45;&gt;Node8 -->
<g id="edge7" class="edge">
<title>Node3&#45;&gt;Node8</title>
<path fill="none" stroke="midnightblue" d="M800.38,-108.09C847,-99.2 915.68,-85.99 975.5,-74 978.49,-73.4 981.61,-72.77 984.72,-72.13"/>
<polygon fill="midnightblue" stroke="midnightblue" points="799.66,-104.67 790.49,-109.98 800.97,-111.55 799.66,-104.67"/>
</g>
<!-- Node9 -->
<g id="node9" class="node">
<title>Node9</title>
<g id="a_node9"><a xlink:href="../../d2/ddd/a00755.html" target="_top" xlink:title=" ">
<polygon fill="none" stroke="black" points="1131,-74 1066,-74 1066,-55 1131,-55 1131,-74"/>
<text text-anchor="middle" x="1098.5" y="-62" font-family="Helvetica,sans-Serif" font-size="10.00">Index.hpp</text>
</a>
</g>
</g>
<!-- Node3&#45;&gt;Node9 -->
<g id="edge8" class="edge">
<title>Node3&#45;&gt;Node9</title>
<path fill="none" stroke="midnightblue" d="M818.47,-109.27C881.61,-100.99 975.29,-88.02 1056.5,-74 1059.58,-73.47 1062.78,-72.88 1065.98,-72.27"/>
<polygon fill="midnightblue" stroke="midnightblue" points="817.68,-105.84 808.21,-110.6 818.58,-112.78 817.68,-105.84"/>
</g>
<!-- Node11 -->
<g id="node11" class="node">
<title>Node11</title>
<g id="a_node11"><a xlink:href="../../d0/d82/a00857.html" target="_top" xlink:title=" ">
<polygon fill="none" stroke="black" points="1266,-74 1149,-74 1149,-55 1266,-55 1266,-74"/>
<text text-anchor="middle" x="1207.5" y="-62" font-family="Helvetica,sans-Serif" font-size="10.00">MessageEntities.cpp</text>
</a>
</g>
</g>
<!-- Node3&#45;&gt;Node11 -->
<g id="edge10" class="edge">
<title>Node3&#45;&gt;Node11</title>
<path fill="none" stroke="midnightblue" d="M818.65,-110.5C897.78,-101.79 1027.63,-87.31 1139.5,-74 1142.57,-73.63 1145.72,-73.26 1148.9,-72.87"/>
<polygon fill="midnightblue" stroke="midnightblue" points="817.86,-107.07 808.31,-111.64 818.63,-114.02 817.86,-107.07"/>
</g>
<!-- Node12 -->
<g id="node12" class="node">
<title>Node12</title>
<g id="a_node12"><a xlink:href="../../d3/db2/a00869.html" target="_top" xlink:title=" ">
<polygon fill="none" stroke="black" points="1361,-74 1284,-74 1284,-55 1361,-55 1361,-74"/>
<text text-anchor="middle" x="1322.5" y="-62" font-family="Helvetica,sans-Serif" font-size="10.00">SongAPI.cpp</text>
</a>
</g>
</g>
<!-- Node3&#45;&gt;Node12 -->
<g id="edge11" class="edge">
<title>Node3&#45;&gt;Node12</title>
<path fill="none" stroke="midnightblue" d="M818.35,-114.58C920.73,-108.58 1112.88,-95.48 1275.5,-74 1278.21,-73.64 1281.01,-73.23 1283.82,-72.8"/>
<polygon fill="midnightblue" stroke="midnightblue" points="817.9,-111.1 808.12,-115.18 818.31,-118.09 817.9,-111.1"/>
</g>
<!-- Node13 -->
<g id="node13" class="node">
<title>Node13</title>
<g id="a_node13"><a xlink:href="../../d6/d8b/a00821.html" target="_top" xlink:title=" ">
<polygon fill="none" stroke="black" points="380.5,-74 270.5,-74 270.5,-55 380.5,-55 380.5,-74"/>
<text text-anchor="middle" x="325.5" y="-62" font-family="Helvetica,sans-Serif" font-size="10.00">SoundCloudAPI.cpp</text>
</a>
</g>
</g>
<!-- Node3&#45;&gt;Node13 -->
<g id="edge12" class="edge">
<title>Node3&#45;&gt;Node13</title>
<path fill="none" stroke="midnightblue" d="M672.47,-109.54C600.49,-100.66 487.39,-86.62 389.5,-74 386.61,-73.63 383.65,-73.24 380.65,-72.85"/>
<polygon fill="midnightblue" stroke="midnightblue" points="672.43,-113.06 682.78,-110.81 673.28,-106.11 672.43,-113.06"/>
</g>
<!-- Node14 -->
<g id="node14" class="node">
<title>Node14</title>
<g id="a_node14"><a xlink:href="../../d9/d30/a00848.html" target="_top" xlink:title=" ">
<polygon fill="none" stroke="black" points="516.5,-74 398.5,-74 398.5,-55 516.5,-55 516.5,-74"/>
<text text-anchor="middle" x="457.5" y="-62" font-family="Helvetica,sans-Serif" font-size="10.00">VoiceConnection.cpp</text>
</a>
</g>
</g>
<!-- Node3&#45;&gt;Node14 -->
<g id="edge13" class="edge">
<title>Node3&#45;&gt;Node14</title>
<path fill="none" stroke="midnightblue" d="M689.13,-108.13C635.14,-98.19 554.62,-83.37 504.13,-74.08"/>
<polygon fill="midnightblue" stroke="midnightblue" points="688.76,-111.62 699.23,-109.98 690.03,-104.73 688.76,-111.62"/>
</g>
<!-- Node15 -->
<g id="node15" class="node">
<title>Node15</title>
<g id="a_node15"><a xlink:href="../../dc/d6e/a00833.html" target="_top" xlink:title=" ">
<polygon fill="none" stroke="black" points="252,-74 125,-74 125,-55 252,-55 252,-74"/>
<text text-anchor="middle" x="188.5" y="-62" font-family="Helvetica,sans-Serif" font-size="10.00">WebSocketEntities.cpp</text>
</a>
</g>
</g>
<!-- Node3&#45;&gt;Node15 -->
<g id="edge14" class="edge">
<title>Node3&#45;&gt;Node15</title>
<path fill="none" stroke="midnightblue" d="M672.75,-112.36C578,-104.25 407.26,-89.18 261.5,-74 258.45,-73.68 255.34,-73.35 252.19,-73.01"/>
<polygon fill="midnightblue" stroke="midnightblue" points="672.54,-115.86 682.8,-113.22 673.13,-108.88 672.54,-115.86"/>
</g>
<!-- Node16 -->
<g id="node16" class="node">
<title>Node16</title>
<g id="a_node16"><a xlink:href="../../d8/d1c/a00824.html" target="_top" xlink:title=" ">
<polygon fill="none" stroke="black" points="626.5,-74 534.5,-74 534.5,-55 626.5,-55 626.5,-74"/>
<text text-anchor="middle" x="580.5" y="-62" font-family="Helvetica,sans-Serif" font-size="10.00">YouTubeAPI.cpp</text>
</a>
</g>
</g>
<!-- Node3&#45;&gt;Node16 -->
<g id="edge15" class="edge">
<title>Node3&#45;&gt;Node16</title>
<path fill="none" stroke="midnightblue" d="M709.07,-106.8C678.28,-96.91 634.88,-82.97 607.22,-74.08"/>
<polygon fill="midnightblue" stroke="midnightblue" points="708.4,-110.26 718.99,-109.98 710.54,-103.59 708.4,-110.26"/>
</g>
<!-- Node10 -->
<g id="node10" class="node">
<title>Node10</title>
<g id="a_node10"><a xlink:href="../../d7/d49/a00863.html" target="_top" xlink:title=" ">
<polygon fill="none" stroke="black" points="1135.5,-19 1061.5,-19 1061.5,0 1135.5,0 1135.5,-19"/>
<text text-anchor="middle" x="1098.5" y="-7" font-family="Helvetica,sans-Serif" font-size="10.00">DllMain.cpp</text>
</a>
</g>
</g>
<!-- Node9&#45;&gt;Node10 -->
<g id="edge9" class="edge">
<title>Node9&#45;&gt;Node10</title>
<path fill="none" stroke="midnightblue" d="M1098.5,-44.66C1098.5,-35.93 1098.5,-25.99 1098.5,-19.09"/>
<polygon fill="midnightblue" stroke="midnightblue" points="1095,-44.75 1098.5,-54.75 1102,-44.75 1095,-44.75"/>
</g>
<!-- Node17&#45;&gt;Node3 -->
<g id="edge17" class="edge">
<title>Node17&#45;&gt;Node3</title>
<path fill="none" stroke="midnightblue" d="M685.28,-159.42C700.16,-149.81 719.41,-137.37 732.09,-129.17"/>
<polygon fill="midnightblue" stroke="midnightblue" points="683.17,-156.62 676.67,-164.98 686.97,-162.5 683.17,-156.62"/>
</g>
<!-- Node17&#45;&gt;Node6 -->
<g id="edge18" class="edge">
<title>Node17&#45;&gt;Node6</title>
<path fill="none" stroke="midnightblue" d="M599.9,-163.35C545.35,-154.56 464.69,-141.34 394.5,-129 287.74,-110.23 162.53,-86.46 97.59,-74"/>
<polygon fill="midnightblue" stroke="midnightblue" points="599.68,-166.86 610.11,-164.99 600.79,-159.95 599.68,-166.86"/>
</g>
<!-- Node17&#45;&gt;Node15 -->
<g id="edge19" class="edge">
<title>Node17&#45;&gt;Node15</title>
<path fill="none" stroke="midnightblue" d="M615.98,-162.69C521.52,-141.22 311.92,-93.56 226.17,-74.07"/>
<polygon fill="midnightblue" stroke="midnightblue" points="615.3,-166.13 625.83,-164.94 616.86,-159.31 615.3,-166.13"/>
</g>
<!-- Node19&#45;&gt;Node2 -->
<g id="edge23" class="edge">
<title>Node19&#45;&gt;Node2</title>
<path fill="none" stroke="midnightblue" d="M975.82,-216.93C944.44,-207.03 899.99,-193.01 871.7,-184.08"/>
<polygon fill="midnightblue" stroke="midnightblue" points="974.92,-220.31 985.51,-219.98 977.02,-213.64 974.92,-220.31"/>
</g>
<!-- Node19&#45;&gt;Node3 -->
<g id="edge24" class="edge">
<title>Node19&#45;&gt;Node3</title>
<path fill="none" stroke="midnightblue" d="M995.13,-212.85C978.24,-198.43 951.28,-177.42 924.5,-165 885.87,-147.08 839.06,-135.77 803,-129.03"/>
<polygon fill="midnightblue" stroke="midnightblue" points="993.16,-215.78 1003,-219.72 997.77,-210.5 993.16,-215.78"/>
</g>
<!-- Node19&#45;&gt;Node7 -->
<g id="edge27" class="edge">
<title>Node19&#45;&gt;Node7</title>
<path fill="none" stroke="midnightblue" d="M1002.17,-210.64C995.68,-196.79 990.28,-177.87 1000.5,-165 1024.16,-135.21 1270.87,-91.42 1378.62,-73.55"/>
<polygon fill="midnightblue" stroke="midnightblue" points="999.16,-212.42 1006.89,-219.66 1005.36,-209.17 999.16,-212.42"/>
</g>
<!-- Node19&#45;&gt;Node17 -->
<g id="edge25" class="edge">
<title>Node19&#45;&gt;Node17</title>
<path fill="none" stroke="midnightblue" d="M952.22,-219.35C885.98,-209.29 780.6,-193.28 717.13,-183.64"/>
<polygon fill="midnightblue" stroke="midnightblue" points="952.08,-222.87 962.5,-220.91 953.14,-215.94 952.08,-222.87"/>
</g>
<!-- Node19&#45;&gt;Node18 -->
<g id="edge26" class="edge">
<title>Node19&#45;&gt;Node18</title>
<path fill="none" stroke="midnightblue" d="M1057.43,-217.63C1098.45,-207.7 1158.29,-193.22 1196.04,-184.08"/>
<polygon fill="midnightblue" stroke="midnightblue" points="1056.58,-214.23 1047.69,-219.98 1058.23,-221.03 1056.58,-214.23"/>
</g>
<!-- Node20 -->
<g id="node20" class="node">
<title>Node20</title>
<g id="a_node20"><a xlink:href="../../d0/d11/a00842.html" target="_top" xlink:title=" ">
<polygon fill="none" stroke="black" points="1149.5,-184 1009.5,-184 1009.5,-165 1149.5,-165 1149.5,-184"/>
<text text-anchor="middle" x="1079.5" y="-172" font-family="Helvetica,sans-Serif" font-size="10.00">GuildMemberEntities.cpp</text>
</a>
</g>
</g>
<!-- Node19&#45;&gt;Node20 -->
<g id="edge28" class="edge">
<title>Node19&#45;&gt;Node20</title>
<path fill="none" stroke="midnightblue" d="M1031.33,-213.6C1043.34,-204.11 1058.47,-192.13 1068.54,-184.17"/>
<polygon fill="midnightblue" stroke="midnightblue" points="1028.94,-211.04 1023.26,-219.98 1033.28,-216.53 1028.94,-211.04"/>
</g>
<!-- Node19&#45;&gt;Node21 -->
<g id="edge29" class="edge">
<title>Node19&#45;&gt;Node21</title>
<path fill="none" stroke="midnightblue" d="M1072.59,-219.84C1131.68,-211.2 1224.41,-197.34 1304.5,-184 1307.53,-183.5 1310.66,-182.96 1313.81,-182.41"/>
<polygon fill="midnightblue" stroke="midnightblue" points="1072.08,-216.38 1062.69,-221.28 1073.09,-223.3 1072.08,-216.38"/>
</g>
</g>
</svg>
