<?xml version="1.0" encoding="UTF-8" standalone="no"?>
<!DOCTYPE svg PUBLIC "-//W3C//DTD SVG 1.1//EN"
 "http://www.w3.org/Graphics/SVG/1.1/DTD/svg11.dtd">
<!-- Generated by graphviz version 3.0.0 (20220226.1711)
 -->
<!-- Title: RoleEntities.cpp Pages: 1 -->
<svg width="2051pt" height="789pt"
 viewBox="0.00 0.00 2050.50 789.00" xmlns="http://www.w3.org/2000/svg" xmlns:xlink="http://www.w3.org/1999/xlink">
<g id="graph0" class="graph" transform="scale(1 1) rotate(0) translate(4 785)">
<title>RoleEntities.cpp</title>
<!-- Node1 -->
<g id="node1" class="node">
<title>Node1</title>
<g id="a_node1"><a xlink:title=" ">
<polygon fill="#bfbfbf" stroke="black" points="1550,-761.5 1550,-780.5 1638,-780.5 1638,-761.5 1550,-761.5"/>
<text text-anchor="middle" x="1594" y="-768.5" font-family="Helvetica,sans-Serif" font-size="10.00">RoleEntities.cpp</text>
</a>
</g>
</g>
<!-- Node2 -->
<g id="node2" class="node">
<title>Node2</title>
<g id="a_node2"><a xlink:href="../../dc/dce/a00740.html" target="_top" xlink:title=" ">
<polygon fill="none" stroke="black" points="1465,-705.5 1465,-724.5 1619,-724.5 1619,-705.5 1465,-705.5"/>
<text text-anchor="middle" x="1542" y="-712.5" font-family="Helvetica,sans-Serif" font-size="10.00">discordcoreapi/RoleEntities.hpp</text>
</a>
</g>
</g>
<!-- Node1&#45;&gt;Node2 -->
<g id="edge1" class="edge">
<title>Node1&#45;&gt;Node2</title>
<path fill="none" stroke="midnightblue" d="M1585.41,-761.08C1577.84,-753.22 1566.62,-741.57 1557.49,-732.08"/>
<polygon fill="midnightblue" stroke="midnightblue" points="1559.88,-729.53 1550.43,-724.75 1554.84,-734.38 1559.88,-729.53"/>
</g>
<!-- Node36 -->
<g id="node36" class="node">
<title>Node36</title>
<g id="a_node36"><a xlink:href="../../d0/db6/a00692.html" target="_top" xlink:title=" ">
<polygon fill="none" stroke="black" points="1212,-403.5 1212,-422.5 1358,-422.5 1358,-403.5 1212,-403.5"/>
<text text-anchor="middle" x="1285" y="-410.5" font-family="Helvetica,sans-Serif" font-size="10.00">discordcoreapi/CoRoutine.hpp</text>
</a>
</g>
</g>
<!-- Node1&#45;&gt;Node36 -->
<g id="edge70" class="edge">
<title>Node1&#45;&gt;Node36</title>
<path fill="none" stroke="midnightblue" d="M1603.46,-761.46C1622.14,-743.58 1662,-700.11 1662,-654.5 1662,-654.5 1662,-654.5 1662,-591 1662,-518.47 1430.49,-450.92 1330.31,-425.09"/>
<polygon fill="midnightblue" stroke="midnightblue" points="1331.02,-421.66 1320.47,-422.57 1329.29,-428.44 1331.02,-421.66"/>
</g>
<!-- Node3 -->
<g id="node3" class="node">
<title>Node3</title>
<g id="a_node3"><a xlink:href="../../d4/deb/a00710.html" target="_top" xlink:title=" ">
<polygon fill="none" stroke="black" points="1349.5,-112.5 1349.5,-142.5 1480.5,-142.5 1480.5,-112.5 1349.5,-112.5"/>
<text text-anchor="start" x="1357.5" y="-130.5" font-family="Helvetica,sans-Serif" font-size="10.00">discordcoreapi/Foundation</text>
<text text-anchor="middle" x="1415" y="-119.5" font-family="Helvetica,sans-Serif" font-size="10.00">Entities.hpp</text>
</a>
</g>
</g>
<!-- Node2&#45;&gt;Node3 -->
<g id="edge2" class="edge">
<title>Node2&#45;&gt;Node3</title>
<path fill="none" stroke="midnightblue" d="M1551.86,-705.26C1560.87,-696.8 1573.96,-683.19 1582,-669 1640.54,-565.65 1662,-532.78 1662,-414 1662,-414 1662,-414 1662,-244 1662,-167.37 1563.23,-141.47 1490.6,-132.78"/>
<polygon fill="midnightblue" stroke="midnightblue" points="1490.87,-129.29 1480.54,-131.67 1490.1,-136.25 1490.87,-129.29"/>
</g>
<!-- Node29 -->
<g id="node29" class="node">
<title>Node29</title>
<g id="a_node29"><a xlink:href="../../d2/d94/a00716.html" target="_top" xlink:title=" ">
<polygon fill="none" stroke="black" points="1433,-638.5 1433,-668.5 1573,-668.5 1573,-638.5 1433,-638.5"/>
<text text-anchor="start" x="1441" y="-656.5" font-family="Helvetica,sans-Serif" font-size="10.00">discordcoreapi/GuildMember</text>
<text text-anchor="middle" x="1503" y="-645.5" font-family="Helvetica,sans-Serif" font-size="10.00">Entities.hpp</text>
</a>
</g>
</g>
<!-- Node2&#45;&gt;Node29 -->
<g id="edge28" class="edge">
<title>Node2&#45;&gt;Node29</title>
<path fill="none" stroke="midnightblue" d="M1536.41,-705.48C1531.57,-698.09 1524.35,-687.08 1517.86,-677.17"/>
<polygon fill="midnightblue" stroke="midnightblue" points="1520.6,-674.97 1512.19,-668.52 1514.75,-678.81 1520.6,-674.97"/>
</g>
<!-- Node38 -->
<g id="node38" class="node">
<title>Node38</title>
<g id="a_node38"><a xlink:href="../../db/d7c/a00722.html" target="_top" xlink:title=" ">
<polygon fill="none" stroke="black" points="829.5,-291.5 829.5,-310.5 954.5,-310.5 954.5,-291.5 829.5,-291.5"/>
<text text-anchor="middle" x="892" y="-298.5" font-family="Helvetica,sans-Serif" font-size="10.00">discordcoreapi/Https.hpp</text>
</a>
</g>
</g>
<!-- Node2&#45;&gt;Node38 -->
<g id="edge69" class="edge">
<title>Node2&#45;&gt;Node38</title>
<path fill="none" stroke="midnightblue" d="M1464.72,-707.53C1293.25,-692.13 896,-650.27 896,-593 896,-593 896,-593 896,-412 896,-379.93 894.28,-342.63 893.1,-320.74"/>
<polygon fill="midnightblue" stroke="midnightblue" points="896.58,-320.34 892.52,-310.55 889.59,-320.73 896.58,-320.34"/>
</g>
<!-- Node4 -->
<g id="node4" class="node">
<title>Node4</title>
<g id="a_node4"><a xlink:href="../../d5/dae/a00767.html" target="_top" xlink:title=" ">
<polygon fill="none" stroke="black" points="1251,-56.5 1251,-75.5 1385,-75.5 1385,-56.5 1251,-56.5"/>
<text text-anchor="middle" x="1318" y="-63.5" font-family="Helvetica,sans-Serif" font-size="10.00">discordcoreapi/Utilities.hpp</text>
</a>
</g>
</g>
<!-- Node3&#45;&gt;Node4 -->
<g id="edge3" class="edge">
<title>Node3&#45;&gt;Node4</title>
<path fill="none" stroke="midnightblue" d="M1392.01,-112.4C1376.61,-102.95 1356.41,-90.56 1341,-81.11"/>
<polygon fill="midnightblue" stroke="midnightblue" points="1342.47,-77.9 1332.11,-75.66 1338.81,-83.87 1342.47,-77.9"/>
</g>
<!-- Node5 -->
<g id="node5" class="node">
<title>Node5</title>
<g id="a_node5"><a xlink:title=" ">
<polygon fill="none" stroke="#bfbfbf" points="1985.5,-0.5 1985.5,-19.5 2042.5,-19.5 2042.5,-0.5 1985.5,-0.5"/>
<text text-anchor="middle" x="2014" y="-7.5" font-family="Helvetica,sans-Serif" font-size="10.00">pthread.h</text>
</a>
</g>
</g>
<!-- Node4&#45;&gt;Node5 -->
<g id="edge4" class="edge">
<title>Node4&#45;&gt;Node5</title>
<path fill="none" stroke="midnightblue" d="M1385.3,-64.18C1503.2,-61.92 1754.76,-53.42 1975.27,-20.02"/>
<polygon fill="midnightblue" stroke="midnightblue" points="1976.06,-23.44 1985.41,-18.46 1975,-16.52 1976.06,-23.44"/>
</g>
<!-- Node6 -->
<g id="node6" class="node">
<title>Node6</title>
<g id="a_node6"><a xlink:title=" ">
<polygon fill="none" stroke="#bfbfbf" points="327,-0.5 327,-19.5 389,-19.5 389,-0.5 327,-0.5"/>
<text text-anchor="middle" x="358" y="-7.5" font-family="Helvetica,sans-Serif" font-size="10.00">sys/time.h</text>
</a>
</g>
</g>
<!-- Node4&#45;&gt;Node6 -->
<g id="edge5" class="edge">
<title>Node4&#45;&gt;Node6</title>
<path fill="none" stroke="midnightblue" d="M1250.97,-65.66C1100.21,-66.31 722.95,-63.17 399.39,-19.95"/>
<polygon fill="midnightblue" stroke="midnightblue" points="399.73,-16.46 389.35,-18.59 398.79,-23.4 399.73,-16.46"/>
</g>
<!-- Node7 -->
<g id="node7" class="node">
<title>Node7</title>
<g id="a_node7"><a xlink:title=" ">
<polygon fill="none" stroke="#bfbfbf" points="407,-0.5 407,-19.5 451,-19.5 451,-0.5 407,-0.5"/>
<text text-anchor="middle" x="429" y="-7.5" font-family="Helvetica,sans-Serif" font-size="10.00">time.h</text>
</a>
</g>
</g>
<!-- Node4&#45;&gt;Node7 -->
<g id="edge6" class="edge">
<title>Node4&#45;&gt;Node7</title>
<path fill="none" stroke="midnightblue" d="M1250.89,-63.48C1079.93,-59.28 630.25,-46.2 461.21,-19.75"/>
<polygon fill="midnightblue" stroke="midnightblue" points="461.64,-16.27 451.21,-18.11 460.51,-23.18 461.64,-16.27"/>
</g>
<!-- Node8 -->
<g id="node8" class="node">
<title>Node8</title>
<g id="a_node8"><a xlink:title=" ">
<polygon fill="none" stroke="#bfbfbf" points="469.5,-0.5 469.5,-19.5 510.5,-19.5 510.5,-0.5 469.5,-0.5"/>
<text text-anchor="middle" x="490" y="-7.5" font-family="Helvetica,sans-Serif" font-size="10.00">ctime</text>
</a>
</g>
</g>
<!-- Node4&#45;&gt;Node8 -->
<g id="edge7" class="edge">
<title>Node4&#45;&gt;Node8</title>
<path fill="none" stroke="midnightblue" d="M1250.98,-63.33C1088.67,-58.97 677,-45.82 520.68,-19.84"/>
<polygon fill="midnightblue" stroke="midnightblue" points="521.21,-16.38 510.76,-18.11 520.01,-23.27 521.21,-16.38"/>
</g>
<!-- Node9 -->
<g id="node9" class="node">
<title>Node9</title>
<g id="a_node9"><a xlink:title=" ">
<polygon fill="none" stroke="#bfbfbf" points="528.5,-0.5 528.5,-19.5 621.5,-19.5 621.5,-0.5 528.5,-0.5"/>
<text text-anchor="middle" x="575" y="-7.5" font-family="Helvetica,sans-Serif" font-size="10.00">condition_variable</text>
</a>
</g>
</g>
<!-- Node4&#45;&gt;Node9 -->
<g id="edge8" class="edge">
<title>Node4&#45;&gt;Node9</title>
<path fill="none" stroke="midnightblue" d="M1250.53,-62.68C1128.95,-58.05 864.88,-45.89 631.73,-19.97"/>
<polygon fill="midnightblue" stroke="midnightblue" points="632.03,-16.48 621.71,-18.84 631.25,-23.44 632.03,-16.48"/>
</g>
<!-- Node10 -->
<g id="node10" class="node">
<title>Node10</title>
<g id="a_node10"><a xlink:title=" ">
<polygon fill="none" stroke="#bfbfbf" points="640,-0.5 640,-19.5 738,-19.5 738,-0.5 640,-0.5"/>
<text text-anchor="middle" x="689" y="-7.5" font-family="Helvetica,sans-Serif" font-size="10.00">nlohmann/json.hpp</text>
</a>
</g>
</g>
<!-- Node4&#45;&gt;Node10 -->
<g id="edge9" class="edge">
<title>Node4&#45;&gt;Node10</title>
<path fill="none" stroke="midnightblue" d="M1250.6,-61.34C1145.5,-55.26 936.02,-41.69 748.08,-20.04"/>
<polygon fill="midnightblue" stroke="midnightblue" points="748.35,-16.55 738.01,-18.87 747.54,-23.5 748.35,-16.55"/>
</g>
<!-- Node11 -->
<g id="node11" class="node">
<title>Node11</title>
<g id="a_node11"><a xlink:title=" ">
<polygon fill="none" stroke="#bfbfbf" points="756.5,-0.5 756.5,-19.5 841.5,-19.5 841.5,-0.5 756.5,-0.5"/>
<text text-anchor="middle" x="799" y="-7.5" font-family="Helvetica,sans-Serif" font-size="10.00">source_location</text>
</a>
</g>
</g>
<!-- Node4&#45;&gt;Node11 -->
<g id="edge10" class="edge">
<title>Node4&#45;&gt;Node11</title>
<path fill="none" stroke="midnightblue" d="M1250.77,-60.21C1161.74,-53.49 999.63,-39.97 851.71,-20.14"/>
<polygon fill="midnightblue" stroke="midnightblue" points="851.92,-16.64 841.54,-18.77 850.98,-23.57 851.92,-16.64"/>
</g>
<!-- Node12 -->
<g id="node12" class="node">
<title>Node12</title>
<g id="a_node12"><a xlink:title=" ">
<polygon fill="none" stroke="#bfbfbf" points="859.5,-0.5 859.5,-19.5 942.5,-19.5 942.5,-0.5 859.5,-0.5"/>
<text text-anchor="middle" x="901" y="-7.5" font-family="Helvetica,sans-Serif" font-size="10.00">unordered_map</text>
</a>
</g>
</g>
<!-- Node4&#45;&gt;Node12 -->
<g id="edge11" class="edge">
<title>Node4&#45;&gt;Node12</title>
<path fill="none" stroke="midnightblue" d="M1250.74,-57.8C1179.36,-49.91 1063.06,-36.38 952.69,-20.03"/>
<polygon fill="midnightblue" stroke="midnightblue" points="953.13,-16.56 942.72,-18.55 952.09,-23.48 953.13,-16.56"/>
</g>
<!-- Node13 -->
<g id="node13" class="node">
<title>Node13</title>
<g id="a_node13"><a xlink:title=" ">
<polygon fill="none" stroke="#bfbfbf" points="961,-0.5 961,-19.5 1039,-19.5 1039,-0.5 961,-0.5"/>
<text text-anchor="middle" x="1000" y="-7.5" font-family="Helvetica,sans-Serif" font-size="10.00">shared_mutex</text>
</a>
</g>
</g>
<!-- Node4&#45;&gt;Node13 -->
<g id="edge12" class="edge">
<title>Node4&#45;&gt;Node13</title>
<path fill="none" stroke="midnightblue" d="M1264.92,-56.48C1212.56,-48 1129.98,-34.43 1048.9,-20.13"/>
<polygon fill="midnightblue" stroke="midnightblue" points="1049.48,-16.68 1039.02,-18.38 1048.26,-23.57 1049.48,-16.68"/>
</g>
<!-- Node14 -->
<g id="node14" class="node">
<title>Node14</title>
<g id="a_node14"><a xlink:title=" ">
<polygon fill="none" stroke="#bfbfbf" points="44,-0.5 44,-19.5 114,-19.5 114,-0.5 44,-0.5"/>
<text text-anchor="middle" x="79" y="-7.5" font-family="Helvetica,sans-Serif" font-size="10.00">opus/opus.h</text>
</a>
</g>
</g>
<!-- Node4&#45;&gt;Node14 -->
<g id="edge13" class="edge">
<title>Node4&#45;&gt;Node14</title>
<path fill="none" stroke="midnightblue" d="M1250.95,-62.08C1027.45,-52.34 311.46,-21.13 124.18,-12.97"/>
<polygon fill="midnightblue" stroke="midnightblue" points="124.27,-9.47 114.13,-12.53 123.97,-16.46 124.27,-9.47"/>
</g>
<!-- Node15 -->
<g id="node15" class="node">
<title>Node15</title>
<g id="a_node15"><a xlink:title=" ">
<polygon fill="none" stroke="#bfbfbf" points="1057,-0.5 1057,-19.5 1115,-19.5 1115,-0.5 1057,-0.5"/>
<text text-anchor="middle" x="1086" y="-7.5" font-family="Helvetica,sans-Serif" font-size="10.00">functional</text>
</a>
</g>
</g>
<!-- Node4&#45;&gt;Node15 -->
<g id="edge14" class="edge">
<title>Node4&#45;&gt;Node15</title>
<path fill="none" stroke="midnightblue" d="M1280.8,-56.42C1243.8,-47.88 1185.13,-34.31 1125.08,-20.25"/>
<polygon fill="midnightblue" stroke="midnightblue" points="1125.58,-16.77 1115.04,-17.89 1123.98,-23.58 1125.58,-16.77"/>
</g>
<!-- Node16 -->
<g id="node16" class="node">
<title>Node16</title>
<g id="a_node16"><a xlink:title=" ">
<polygon fill="none" stroke="#bfbfbf" points="1133.5,-0.5 1133.5,-19.5 1198.5,-19.5 1198.5,-0.5 1133.5,-0.5"/>
<text text-anchor="middle" x="1166" y="-7.5" font-family="Helvetica,sans-Serif" font-size="10.00">semaphore</text>
</a>
</g>
</g>
<!-- Node4&#45;&gt;Node16 -->
<g id="edge15" class="edge">
<title>Node4&#45;&gt;Node16</title>
<path fill="none" stroke="midnightblue" d="M1293.92,-56.44C1268.46,-47.4 1228.11,-33.06 1199.54,-22.92"/>
<polygon fill="midnightblue" stroke="midnightblue" points="1200.57,-19.57 1189.97,-19.52 1198.22,-26.16 1200.57,-19.57"/>
</g>
<!-- Node17 -->
<g id="node17" class="node">
<title>Node17</title>
<g id="a_node17"><a xlink:title=" ">
<polygon fill="none" stroke="#bfbfbf" points="1217,-0.5 1217,-19.5 1273,-19.5 1273,-0.5 1217,-0.5"/>
<text text-anchor="middle" x="1245" y="-7.5" font-family="Helvetica,sans-Serif" font-size="10.00">concepts</text>
</a>
</g>
</g>
<!-- Node4&#45;&gt;Node17 -->
<g id="edge16" class="edge">
<title>Node4&#45;&gt;Node17</title>
<path fill="none" stroke="midnightblue" d="M1306.27,-56.32C1295.16,-48.11 1278.26,-35.6 1265.02,-25.81"/>
<polygon fill="midnightblue" stroke="midnightblue" points="1267.06,-22.97 1256.94,-19.83 1262.9,-28.59 1267.06,-22.97"/>
</g>
<!-- Node18 -->
<g id="node18" class="node">
<title>Node18</title>
<g id="a_node18"><a xlink:title=" ">
<polygon fill="none" stroke="#bfbfbf" points="1291,-0.5 1291,-19.5 1345,-19.5 1345,-0.5 1291,-0.5"/>
<text text-anchor="middle" x="1318" y="-7.5" font-family="Helvetica,sans-Serif" font-size="10.00">iostream</text>
</a>
</g>
</g>
<!-- Node4&#45;&gt;Node18 -->
<g id="edge17" class="edge">
<title>Node4&#45;&gt;Node18</title>
<path fill="none" stroke="midnightblue" d="M1318,-56.08C1318,-49.01 1318,-38.86 1318,-29.99"/>
<polygon fill="midnightblue" stroke="midnightblue" points="1321.5,-29.75 1318,-19.75 1314.5,-29.75 1321.5,-29.75"/>
</g>
<!-- Node19 -->
<g id="node19" class="node">
<title>Node19</title>
<g id="a_node19"><a xlink:title=" ">
<polygon fill="none" stroke="#bfbfbf" points="1363.5,-0.5 1363.5,-19.5 1412.5,-19.5 1412.5,-0.5 1363.5,-0.5"/>
<text text-anchor="middle" x="1388" y="-7.5" font-family="Helvetica,sans-Serif" font-size="10.00">fstream</text>
</a>
</g>
</g>
<!-- Node4&#45;&gt;Node19 -->
<g id="edge18" class="edge">
<title>Node4&#45;&gt;Node19</title>
<path fill="none" stroke="midnightblue" d="M1329.25,-56.32C1339.8,-48.18 1355.8,-35.84 1368.44,-26.09"/>
<polygon fill="midnightblue" stroke="midnightblue" points="1370.77,-28.71 1376.55,-19.83 1366.49,-23.17 1370.77,-28.71"/>
</g>
<!-- Node20 -->
<g id="node20" class="node">
<title>Node20</title>
<g id="a_node20"><a xlink:title=" ">
<polygon fill="none" stroke="#bfbfbf" points="1430.5,-0.5 1430.5,-19.5 1471.5,-19.5 1471.5,-0.5 1430.5,-0.5"/>
<text text-anchor="middle" x="1451" y="-7.5" font-family="Helvetica,sans-Serif" font-size="10.00">bitset</text>
</a>
</g>
</g>
<!-- Node4&#45;&gt;Node20 -->
<g id="edge19" class="edge">
<title>Node4&#45;&gt;Node20</title>
<path fill="none" stroke="midnightblue" d="M1339.07,-56.44C1361.19,-47.46 1396.14,-33.27 1421.1,-23.14"/>
<polygon fill="midnightblue" stroke="midnightblue" points="1422.51,-26.34 1430.46,-19.34 1419.88,-19.86 1422.51,-26.34"/>
</g>
<!-- Node21 -->
<g id="node21" class="node">
<title>Node21</title>
<g id="a_node21"><a xlink:title=" ">
<polygon fill="none" stroke="#bfbfbf" points="1490,-0.5 1490,-19.5 1542,-19.5 1542,-0.5 1490,-0.5"/>
<text text-anchor="middle" x="1516" y="-7.5" font-family="Helvetica,sans-Serif" font-size="10.00">memory</text>
</a>
</g>
</g>
<!-- Node4&#45;&gt;Node21 -->
<g id="edge20" class="edge">
<title>Node4&#45;&gt;Node21</title>
<path fill="none" stroke="midnightblue" d="M1349.37,-56.44C1384.86,-46.77 1442.54,-31.03 1479.88,-20.85"/>
<polygon fill="midnightblue" stroke="midnightblue" points="1481.1,-24.14 1489.83,-18.14 1479.26,-17.39 1481.1,-24.14"/>
</g>
<!-- Node22 -->
<g id="node22" class="node">
<title>Node22</title>
<g id="a_node22"><a xlink:title=" ">
<polygon fill="none" stroke="#bfbfbf" points="1560.5,-0.5 1560.5,-19.5 1609.5,-19.5 1609.5,-0.5 1560.5,-0.5"/>
<text text-anchor="middle" x="1585" y="-7.5" font-family="Helvetica,sans-Serif" font-size="10.00">random</text>
</a>
</g>
</g>
<!-- Node4&#45;&gt;Node22 -->
<g id="edge21" class="edge">
<title>Node4&#45;&gt;Node22</title>
<path fill="none" stroke="midnightblue" d="M1367.3,-56.48C1412.38,-48.47 1481.13,-35.69 1550.01,-20.1"/>
<polygon fill="midnightblue" stroke="midnightblue" points="1551.2,-23.42 1560.17,-17.78 1549.64,-16.6 1551.2,-23.42"/>
</g>
<!-- Node23 -->
<g id="node23" class="node">
<title>Node23</title>
<g id="a_node23"><a xlink:title=" ">
<polygon fill="none" stroke="#bfbfbf" points="1627.5,-0.5 1627.5,-19.5 1668.5,-19.5 1668.5,-0.5 1627.5,-0.5"/>
<text text-anchor="middle" x="1648" y="-7.5" font-family="Helvetica,sans-Serif" font-size="10.00">string</text>
</a>
</g>
</g>
<!-- Node4&#45;&gt;Node23 -->
<g id="edge22" class="edge">
<title>Node4&#45;&gt;Node23</title>
<path fill="none" stroke="midnightblue" d="M1385.23,-57.7C1444.1,-50.67 1532.03,-38.65 1617.57,-19.8"/>
<polygon fill="midnightblue" stroke="midnightblue" points="1618.45,-23.19 1627.45,-17.59 1616.92,-16.36 1618.45,-23.19"/>
</g>
<!-- Node24 -->
<g id="node24" class="node">
<title>Node24</title>
<g id="a_node24"><a xlink:title=" ">
<polygon fill="none" stroke="#bfbfbf" points="1687,-0.5 1687,-19.5 1729,-19.5 1729,-0.5 1687,-0.5"/>
<text text-anchor="middle" x="1708" y="-7.5" font-family="Helvetica,sans-Serif" font-size="10.00">vector</text>
</a>
</g>
</g>
<!-- Node4&#45;&gt;Node24 -->
<g id="edge23" class="edge">
<title>Node4&#45;&gt;Node24</title>
<path fill="none" stroke="midnightblue" d="M1385.01,-59.78C1457.52,-53.4 1576.27,-40.8 1677,-20 1677.1,-19.98 1677.2,-19.96 1677.3,-19.94"/>
<polygon fill="midnightblue" stroke="midnightblue" points="1677.87,-23.4 1686.77,-17.64 1676.22,-16.6 1677.87,-23.4"/>
</g>
<!-- Node25 -->
<g id="node25" class="node">
<title>Node25</title>
<g id="a_node25"><a xlink:title=" ">
<polygon fill="none" stroke="#bfbfbf" points="1747,-0.5 1747,-19.5 1791,-19.5 1791,-0.5 1747,-0.5"/>
<text text-anchor="middle" x="1769" y="-7.5" font-family="Helvetica,sans-Serif" font-size="10.00">thread</text>
</a>
</g>
</g>
<!-- Node4&#45;&gt;Node25 -->
<g id="edge24" class="edge">
<title>Node4&#45;&gt;Node25</title>
<path fill="none" stroke="midnightblue" d="M1385.1,-61.46C1466.36,-56.35 1607.4,-44.89 1736.68,-19.94"/>
<polygon fill="midnightblue" stroke="midnightblue" points="1737.63,-23.32 1746.76,-17.96 1736.28,-16.45 1737.63,-23.32"/>
</g>
<!-- Node26 -->
<g id="node26" class="node">
<title>Node26</title>
<g id="a_node26"><a xlink:title=" ">
<polygon fill="none" stroke="#bfbfbf" points="1809,-0.5 1809,-19.5 1853,-19.5 1853,-0.5 1809,-0.5"/>
<text text-anchor="middle" x="1831" y="-7.5" font-family="Helvetica,sans-Serif" font-size="10.00">mutex</text>
</a>
</g>
</g>
<!-- Node4&#45;&gt;Node26 -->
<g id="edge25" class="edge">
<title>Node4&#45;&gt;Node26</title>
<path fill="none" stroke="midnightblue" d="M1385.22,-62.74C1476.88,-58.77 1646.18,-48.28 1798.75,-19.9"/>
<polygon fill="midnightblue" stroke="midnightblue" points="1799.6,-23.3 1808.77,-18 1798.3,-16.42 1799.6,-23.3"/>
</g>
<!-- Node27 -->
<g id="node27" class="node">
<title>Node27</title>
<g id="a_node27"><a xlink:title=" ">
<polygon fill="none" stroke="#bfbfbf" points="1871.5,-0.5 1871.5,-19.5 1914.5,-19.5 1914.5,-0.5 1871.5,-0.5"/>
<text text-anchor="middle" x="1893" y="-7.5" font-family="Helvetica,sans-Serif" font-size="10.00">queue</text>
</a>
</g>
</g>
<!-- Node4&#45;&gt;Node27 -->
<g id="edge26" class="edge">
<title>Node4&#45;&gt;Node27</title>
<path fill="none" stroke="midnightblue" d="M1385.14,-63.75C1486.51,-60.93 1684.63,-51.7 1861.45,-19.69"/>
<polygon fill="midnightblue" stroke="midnightblue" points="1862.25,-23.1 1871.45,-17.85 1860.98,-16.22 1862.25,-23.1"/>
</g>
<!-- Node28 -->
<g id="node28" class="node">
<title>Node28</title>
<g id="a_node28"><a xlink:title=" ">
<polygon fill="none" stroke="#bfbfbf" points="1932.5,-0.5 1932.5,-19.5 1967.5,-19.5 1967.5,-0.5 1932.5,-0.5"/>
<text text-anchor="middle" x="1950" y="-7.5" font-family="Helvetica,sans-Serif" font-size="10.00">map</text>
</a>
</g>
</g>
<!-- Node4&#45;&gt;Node28 -->
<g id="edge27" class="edge">
<title>Node4&#45;&gt;Node28</title>
<path fill="none" stroke="midnightblue" d="M1385.14,-65.65C1495.88,-65.5 1723.59,-59.99 1922.23,-19.88"/>
<polygon fill="midnightblue" stroke="midnightblue" points="1923.18,-23.26 1932.27,-17.82 1921.77,-16.4 1923.18,-23.26"/>
</g>
<!-- Node29&#45;&gt;Node3 -->
<g id="edge29" class="edge">
<title>Node29&#45;&gt;Node3</title>
<path fill="none" stroke="midnightblue" d="M1527.06,-638.46C1540.33,-629.58 1556.08,-616.95 1566,-602 1584.01,-574.86 1586,-564.07 1586,-531.5 1586,-531.5 1586,-531.5 1586,-244 1586,-192.39 1531.84,-162.28 1484.48,-145.83"/>
<polygon fill="midnightblue" stroke="midnightblue" points="1485.4,-142.45 1474.81,-142.62 1483.2,-149.09 1485.4,-142.45"/>
</g>
<!-- Node30 -->
<g id="node30" class="node">
<title>Node30</title>
<g id="a_node30"><a xlink:href="../../d3/d2c/a00764.html" target="_top" xlink:title=" ">
<polygon fill="none" stroke="black" points="1402.5,-582.5 1402.5,-601.5 1557.5,-601.5 1557.5,-582.5 1402.5,-582.5"/>
<text text-anchor="middle" x="1480" y="-589.5" font-family="Helvetica,sans-Serif" font-size="10.00">discordcoreapi/UserEntities.hpp</text>
</a>
</g>
</g>
<!-- Node29&#45;&gt;Node30 -->
<g id="edge30" class="edge">
<title>Node29&#45;&gt;Node30</title>
<path fill="none" stroke="midnightblue" d="M1497.55,-638.4C1494.38,-630.2 1490.35,-619.78 1486.96,-610.99"/>
<polygon fill="midnightblue" stroke="midnightblue" points="1490.22,-609.72 1483.35,-601.66 1483.69,-612.25 1490.22,-609.72"/>
</g>
<!-- Node29&#45;&gt;Node38 -->
<g id="edge68" class="edge">
<title>Node29&#45;&gt;Node38</title>
<path fill="none" stroke="midnightblue" d="M1432.96,-651.97C1282.3,-648.93 941,-631.06 941,-531.5 941,-531.5 941,-531.5 941,-412 941,-376.47 919.4,-339.63 904.88,-318.88"/>
<polygon fill="midnightblue" stroke="midnightblue" points="907.53,-316.57 898.81,-310.54 901.87,-320.69 907.53,-316.57"/>
</g>
<!-- Node30&#45;&gt;Node3 -->
<g id="edge31" class="edge">
<title>Node30&#45;&gt;Node3</title>
<path fill="none" stroke="midnightblue" d="M1489.17,-582.25C1507.73,-563.53 1548,-517.47 1548,-470 1548,-470 1548,-470 1548,-244 1548,-197.34 1500.76,-165.27 1462.59,-146.98"/>
<polygon fill="midnightblue" stroke="midnightblue" points="1463.66,-143.62 1453.11,-142.62 1460.74,-149.98 1463.66,-143.62"/>
</g>
<!-- Node31 -->
<g id="node31" class="node">
<title>Node31</title>
<g id="a_node31"><a xlink:href="../../d9/dd4/a00776.html" target="_top" xlink:title=" ">
<polygon fill="none" stroke="black" points="1011,-515.5 1011,-545.5 1145,-545.5 1145,-515.5 1011,-515.5"/>
<text text-anchor="start" x="1019" y="-533.5" font-family="Helvetica,sans-Serif" font-size="10.00">discordcoreapi/WebSocket</text>
<text text-anchor="middle" x="1078" y="-522.5" font-family="Helvetica,sans-Serif" font-size="10.00">Entities.hpp</text>
</a>
</g>
</g>
<!-- Node30&#45;&gt;Node31 -->
<g id="edge32" class="edge">
<title>Node30&#45;&gt;Node31</title>
<path fill="none" stroke="midnightblue" d="M1422.4,-582.48C1352.28,-572.1 1233.57,-554.53 1155.48,-542.97"/>
<polygon fill="midnightblue" stroke="midnightblue" points="1155.62,-539.45 1145.21,-541.45 1154.59,-546.37 1155.62,-539.45"/>
</g>
<!-- Node31&#45;&gt;Node3 -->
<g id="edge33" class="edge">
<title>Node31&#45;&gt;Node3</title>
<path fill="none" stroke="midnightblue" d="M1010.97,-529.39C775.46,-528.12 0,-516.17 0,-414 0,-414 0,-414 0,-244 0,-208.09 16.24,-195.77 48,-179 105.37,-148.71 1061.08,-133.33 1339.48,-129.48"/>
<polygon fill="midnightblue" stroke="midnightblue" points="1339.53,-132.98 1349.48,-129.34 1339.44,-125.98 1339.53,-132.98"/>
</g>
<!-- Node32 -->
<g id="node32" class="node">
<title>Node32</title>
<g id="a_node32"><a xlink:href="../../d5/d5b/a00695.html" target="_top" xlink:title=" ">
<polygon fill="none" stroke="black" points="59,-235.5 59,-254.5 199,-254.5 199,-235.5 59,-235.5"/>
<text text-anchor="middle" x="129" y="-242.5" font-family="Helvetica,sans-Serif" font-size="10.00">discordcoreapi/Demuxer.hpp</text>
</a>
</g>
</g>
<!-- Node31&#45;&gt;Node32 -->
<g id="edge34" class="edge">
<title>Node31&#45;&gt;Node32</title>
<path fill="none" stroke="midnightblue" d="M1050.63,-515.37C1035.96,-506.61 1018.58,-494.14 1007,-479 988.29,-454.54 983,-444.8 983,-414 983,-414 983,-414 983,-356 983,-325.77 986.82,-309.61 963,-291 933.61,-268.04 412.61,-252.92 209.31,-247.87"/>
<polygon fill="midnightblue" stroke="midnightblue" points="209.37,-244.37 199.29,-247.62 209.2,-251.36 209.37,-244.37"/>
</g>
<!-- Node33 -->
<g id="node33" class="node">
<title>Node33</title>
<g id="a_node33"><a xlink:href="../../d4/d6a/a00704.html" target="_top" xlink:title=" ">
<polygon fill="none" stroke="black" points="210,-179.5 210,-198.5 368,-198.5 368,-179.5 210,-179.5"/>
<text text-anchor="middle" x="289" y="-186.5" font-family="Helvetica,sans-Serif" font-size="10.00">discordcoreapi/EventEntities.hpp</text>
</a>
</g>
</g>
<!-- Node31&#45;&gt;Node33 -->
<g id="edge65" class="edge">
<title>Node31&#45;&gt;Node33</title>
<path fill="none" stroke="midnightblue" d="M1065.63,-515.3C1048.87,-494.55 1021,-454.03 1021,-414 1021,-414 1021,-414 1021,-356 1021,-323.19 1012.89,-309.81 986,-291 936.95,-256.69 555.11,-215.77 378.3,-198.43"/>
<polygon fill="midnightblue" stroke="midnightblue" points="378.53,-194.94 368.24,-197.45 377.85,-201.9 378.53,-194.94"/>
</g>
<!-- Node35 -->
<g id="node35" class="node">
<title>Node35</title>
<g id="a_node35"><a xlink:href="../../d1/d87/a00689.html" target="_top" xlink:title=" ">
<polygon fill="none" stroke="black" points="1125.5,-459.5 1125.5,-478.5 1312.5,-478.5 1312.5,-459.5 1125.5,-459.5"/>
<text text-anchor="middle" x="1219" y="-466.5" font-family="Helvetica,sans-Serif" font-size="10.00">discordcoreapi/CommandController.hpp</text>
</a>
</g>
</g>
<!-- Node31&#45;&gt;Node35 -->
<g id="edge40" class="edge">
<title>Node31&#45;&gt;Node35</title>
<path fill="none" stroke="midnightblue" d="M1111.42,-515.4C1134.97,-505.46 1166.24,-492.26 1188.99,-482.66"/>
<polygon fill="midnightblue" stroke="midnightblue" points="1190.63,-485.77 1198.48,-478.66 1187.91,-479.32 1190.63,-485.77"/>
</g>
<!-- Node37 -->
<g id="node37" class="node">
<title>Node37</title>
<g id="a_node37"><a xlink:href="../../d3/d4f/a00761.html" target="_top" xlink:title=" ">
<polygon fill="none" stroke="black" points="1212,-347.5 1212,-366.5 1362,-366.5 1362,-347.5 1212,-347.5"/>
<text text-anchor="middle" x="1287" y="-354.5" font-family="Helvetica,sans-Serif" font-size="10.00">discordcoreapi/ThreadPool.hpp</text>
</a>
</g>
</g>
<!-- Node31&#45;&gt;Node37 -->
<g id="edge67" class="edge">
<title>Node31&#45;&gt;Node37</title>
<path fill="none" stroke="midnightblue" d="M1083.08,-515.49C1089.14,-500.26 1100.42,-475.84 1116,-459 1155.45,-416.37 1217.02,-386.11 1254.52,-370.4"/>
<polygon fill="midnightblue" stroke="midnightblue" points="1256.03,-373.56 1263.96,-366.54 1253.38,-367.09 1256.03,-373.56"/>
</g>
<!-- Node39 -->
<g id="node39" class="node">
<title>Node39</title>
<g id="a_node39"><a xlink:href="../../d5/de8/a00749.html" target="_top" xlink:title=" ">
<polygon fill="none" stroke="black" points="872,-235.5 872,-254.5 1022,-254.5 1022,-235.5 872,-235.5"/>
<text text-anchor="middle" x="947" y="-242.5" font-family="Helvetica,sans-Serif" font-size="10.00">discordcoreapi/SSLClients.hpp</text>
</a>
</g>
</g>
<!-- Node31&#45;&gt;Node39 -->
<g id="edge66" class="edge">
<title>Node31&#45;&gt;Node39</title>
<path fill="none" stroke="midnightblue" d="M1074.16,-515.4C1068.6,-493.76 1059,-450.99 1059,-414 1059,-414 1059,-414 1059,-356 1059,-325.2 1055.44,-314.03 1035,-291 1021.86,-276.2 1002.69,-265.6 985.6,-258.42"/>
<polygon fill="midnightblue" stroke="midnightblue" points="986.42,-254.98 975.84,-254.58 983.86,-261.5 986.42,-254.98"/>
</g>
<!-- Node53 -->
<g id="node53" class="node">
<title>Node53</title>
<g id="a_node53"><a xlink:href="../../dd/d57/a00701.html" target="_top" xlink:title=" ">
<polygon fill="none" stroke="black" points="1376,-403.5 1376,-422.5 1520,-422.5 1520,-403.5 1376,-403.5"/>
<text text-anchor="middle" x="1448" y="-410.5" font-family="Helvetica,sans-Serif" font-size="10.00">discordcoreapi/ErlPacker.hpp</text>
</a>
</g>
</g>
<!-- Node31&#45;&gt;Node53 -->
<g id="edge63" class="edge">
<title>Node31&#45;&gt;Node53</title>
<path fill="none" stroke="midnightblue" d="M1145.06,-520.52C1194.6,-512.71 1263.19,-499.38 1321,-479 1359.32,-465.49 1400.68,-442.6 1425.45,-427.91"/>
<polygon fill="midnightblue" stroke="midnightblue" points="1427.32,-430.86 1434.08,-422.71 1423.71,-424.86 1427.32,-430.86"/>
</g>
<!-- Node32&#45;&gt;Node3 -->
<g id="edge37" class="edge">
<title>Node32&#45;&gt;Node3</title>
<path fill="none" stroke="midnightblue" d="M106.75,-235.38C78.65,-223.32 36.32,-200.46 57,-179 101.72,-132.59 1059.82,-128.61 1339.19,-128.45"/>
<polygon fill="midnightblue" stroke="midnightblue" points="1339.23,-131.95 1349.23,-128.44 1339.23,-124.95 1339.23,-131.95"/>
</g>
<!-- Node32&#45;&gt;Node14 -->
<g id="edge38" class="edge">
<title>Node32&#45;&gt;Node14</title>
<path fill="none" stroke="midnightblue" d="M97.98,-235.44C79.97,-228.69 58.77,-217.3 48,-199 15.33,-143.47 50.32,-63.61 68.92,-28.59"/>
<polygon fill="midnightblue" stroke="midnightblue" points="72.12,-30.04 73.87,-19.59 65.98,-26.67 72.12,-30.04"/>
</g>
<!-- Node32&#45;&gt;Node33 -->
<g id="edge35" class="edge">
<title>Node32&#45;&gt;Node33</title>
<path fill="none" stroke="midnightblue" d="M154.35,-235.44C181.27,-226.36 224,-211.94 254.09,-201.78"/>
<polygon fill="midnightblue" stroke="midnightblue" points="255.41,-205.03 263.77,-198.52 253.17,-198.4 255.41,-205.03"/>
</g>
<!-- Node34 -->
<g id="node34" class="node">
<title>Node34</title>
<g id="a_node34"><a xlink:title=" ">
<polygon fill="none" stroke="#bfbfbf" points="66,-179.5 66,-198.5 192,-198.5 192,-179.5 66,-179.5"/>
<text text-anchor="middle" x="129" y="-186.5" font-family="Helvetica,sans-Serif" font-size="10.00">opus/opus_multistream.h</text>
</a>
</g>
</g>
<!-- Node32&#45;&gt;Node34 -->
<g id="edge39" class="edge">
<title>Node32&#45;&gt;Node34</title>
<path fill="none" stroke="midnightblue" d="M129,-235.08C129,-228.01 129,-217.86 129,-208.99"/>
<polygon fill="midnightblue" stroke="midnightblue" points="132.5,-208.75 129,-198.75 125.5,-208.75 132.5,-208.75"/>
</g>
<!-- Node33&#45;&gt;Node3 -->
<g id="edge36" class="edge">
<title>Node33&#45;&gt;Node3</title>
<path fill="none" stroke="midnightblue" d="M368.13,-180.08C372.82,-179.7 377.47,-179.33 382,-179 739.79,-152.96 1168.3,-136.8 1339.22,-130.97"/>
<polygon fill="midnightblue" stroke="midnightblue" points="1339.49,-134.46 1349.37,-130.62 1339.26,-127.46 1339.49,-134.46"/>
</g>
<!-- Node35&#45;&gt;Node3 -->
<g id="edge41" class="edge">
<title>Node35&#45;&gt;Node3</title>
<path fill="none" stroke="midnightblue" d="M1214.77,-459.31C1205.41,-438.74 1185.1,-385.88 1203,-347 1245.33,-255.09 1312.04,-277.41 1376,-199 1387.71,-184.64 1397.74,-166.27 1404.7,-151.88"/>
<polygon fill="midnightblue" stroke="midnightblue" points="1407.95,-153.2 1409,-142.66 1401.6,-150.24 1407.95,-153.2"/>
</g>
<!-- Node35&#45;&gt;Node36 -->
<g id="edge42" class="edge">
<title>Node35&#45;&gt;Node36</title>
<path fill="none" stroke="midnightblue" d="M1229.6,-459.32C1239.46,-451.26 1254.35,-439.08 1266.22,-429.37"/>
<polygon fill="midnightblue" stroke="midnightblue" points="1268.68,-431.88 1274.2,-422.83 1264.25,-426.46 1268.68,-431.88"/>
</g>
<!-- Node36&#45;&gt;Node3 -->
<g id="edge43" class="edge">
<title>Node36&#45;&gt;Node3</title>
<path fill="none" stroke="midnightblue" d="M1340.35,-403.47C1395.49,-391.46 1472,-363.68 1472,-302 1472,-302 1472,-302 1472,-244 1472,-208.66 1450.28,-172.94 1433.66,-150.78"/>
<polygon fill="midnightblue" stroke="midnightblue" points="1436.27,-148.44 1427.37,-142.7 1430.75,-152.74 1436.27,-148.44"/>
</g>
<!-- Node36&#45;&gt;Node37 -->
<g id="edge44" class="edge">
<title>Node36&#45;&gt;Node37</title>
<path fill="none" stroke="midnightblue" d="M1285.33,-403.08C1285.59,-396.01 1285.97,-385.86 1286.3,-376.99"/>
<polygon fill="midnightblue" stroke="midnightblue" points="1289.8,-376.87 1286.68,-366.75 1282.81,-376.61 1289.8,-376.87"/>
</g>
<!-- Node37&#45;&gt;Node3 -->
<g id="edge45" class="edge">
<title>Node37&#45;&gt;Node3</title>
<path fill="none" stroke="midnightblue" d="M1297.02,-347.36C1321.58,-325.47 1384.61,-264.92 1410,-199 1415.64,-184.36 1416.89,-166.77 1416.73,-152.81"/>
<polygon fill="midnightblue" stroke="midnightblue" points="1420.22,-152.4 1416.36,-142.53 1413.23,-152.65 1420.22,-152.4"/>
</g>
<!-- Node37&#45;&gt;Node38 -->
<g id="edge46" class="edge">
<title>Node37&#45;&gt;Node38</title>
<path fill="none" stroke="midnightblue" d="M1224.41,-347.44C1153.77,-337.79 1039.02,-322.1 964.53,-311.92"/>
<polygon fill="midnightblue" stroke="midnightblue" points="964.68,-308.4 954.3,-310.52 963.73,-315.34 964.68,-308.4"/>
</g>
<!-- Node52 -->
<g id="node52" class="node">
<title>Node52</title>
<g id="a_node52"><a xlink:title=" ">
<polygon fill="none" stroke="#bfbfbf" points="1388,-291.5 1388,-310.5 1444,-310.5 1444,-291.5 1388,-291.5"/>
<text text-anchor="middle" x="1416" y="-298.5" font-family="Helvetica,sans-Serif" font-size="10.00">coroutine</text>
</a>
</g>
</g>
<!-- Node37&#45;&gt;Node52 -->
<g id="edge62" class="edge">
<title>Node37&#45;&gt;Node52</title>
<path fill="none" stroke="midnightblue" d="M1307.44,-347.44C1328.67,-338.56 1362.1,-324.56 1386.25,-314.45"/>
<polygon fill="midnightblue" stroke="midnightblue" points="1387.78,-317.61 1395.66,-310.52 1385.08,-311.15 1387.78,-317.61"/>
</g>
<!-- Node38&#45;&gt;Node39 -->
<g id="edge47" class="edge">
<title>Node38&#45;&gt;Node39</title>
<path fill="none" stroke="midnightblue" d="M901.08,-291.08C909.17,-283.14 921.2,-271.34 930.91,-261.8"/>
<polygon fill="midnightblue" stroke="midnightblue" points="933.4,-264.25 938.09,-254.75 928.5,-259.26 933.4,-264.25"/>
</g>
<!-- Node39&#45;&gt;Node3 -->
<g id="edge48" class="edge">
<title>Node39&#45;&gt;Node3</title>
<path fill="none" stroke="midnightblue" d="M871.75,-236.29C867.1,-235.84 862.49,-235.41 858,-235 759.18,-225.99 346.63,-250.91 415,-179 446.72,-145.64 1110.88,-132.91 1338.92,-129.51"/>
<polygon fill="midnightblue" stroke="midnightblue" points="1339.18,-133.01 1349.12,-129.36 1339.07,-126.01 1339.18,-133.01"/>
</g>
<!-- Node39&#45;&gt;Node33 -->
<g id="edge49" class="edge">
<title>Node39&#45;&gt;Node33</title>
<path fill="none" stroke="midnightblue" d="M871.75,-236.26C867.1,-235.82 862.49,-235.4 858,-235 646.66,-216.33 593.38,-217.22 382,-199 380.73,-198.89 379.44,-198.78 378.15,-198.67"/>
<polygon fill="midnightblue" stroke="midnightblue" points="378.41,-195.17 368.14,-197.77 377.79,-202.15 378.41,-195.17"/>
</g>
<!-- Node40 -->
<g id="node40" class="node">
<title>Node40</title>
<g id="a_node40"><a xlink:title=" ">
<polygon fill="none" stroke="#bfbfbf" points="990.5,-179.5 990.5,-198.5 1063.5,-198.5 1063.5,-179.5 990.5,-179.5"/>
<text text-anchor="middle" x="1027" y="-186.5" font-family="Helvetica,sans-Serif" font-size="10.00">openssl/err.h</text>
</a>
</g>
</g>
<!-- Node39&#45;&gt;Node40 -->
<g id="edge50" class="edge">
<title>Node39&#45;&gt;Node40</title>
<path fill="none" stroke="midnightblue" d="M959.85,-235.32C972.22,-226.98 991.13,-214.21 1005.74,-204.35"/>
<polygon fill="midnightblue" stroke="midnightblue" points="1007.85,-207.15 1014.18,-198.65 1003.93,-201.35 1007.85,-207.15"/>
</g>
<!-- Node41 -->
<g id="node41" class="node">
<title>Node41</title>
<g id="a_node41"><a xlink:title=" ">
<polygon fill="none" stroke="#bfbfbf" points="1082,-179.5 1082,-198.5 1156,-198.5 1156,-179.5 1082,-179.5"/>
<text text-anchor="middle" x="1119" y="-186.5" font-family="Helvetica,sans-Serif" font-size="10.00">openssl/ssl.h</text>
</a>
</g>
</g>
<!-- Node39&#45;&gt;Node41 -->
<g id="edge51" class="edge">
<title>Node39&#45;&gt;Node41</title>
<path fill="none" stroke="midnightblue" d="M974.25,-235.44C1003.44,-226.28 1049.92,-211.69 1082.31,-201.52"/>
<polygon fill="midnightblue" stroke="midnightblue" points="1083.38,-204.85 1091.87,-198.52 1081.28,-198.17 1083.38,-204.85"/>
</g>
<!-- Node42 -->
<g id="node42" class="node">
<title>Node42</title>
<g id="a_node42"><a xlink:title=" ">
<polygon fill="none" stroke="#bfbfbf" points="1174.5,-179.5 1174.5,-198.5 1217.5,-198.5 1217.5,-179.5 1174.5,-179.5"/>
<text text-anchor="middle" x="1196" y="-186.5" font-family="Helvetica,sans-Serif" font-size="10.00">fcntl.h</text>
</a>
</g>
</g>
<!-- Node39&#45;&gt;Node42 -->
<g id="edge52" class="edge">
<title>Node39&#45;&gt;Node42</title>
<path fill="none" stroke="midnightblue" d="M993.59,-235.49C1035.73,-227.54 1099.68,-214.87 1164.41,-198.98"/>
<polygon fill="midnightblue" stroke="midnightblue" points="1165.51,-202.32 1174.38,-196.51 1163.83,-195.52 1165.51,-202.32"/>
</g>
<!-- Node43 -->
<g id="node43" class="node">
<title>Node43</title>
<g id="a_node43"><a xlink:title=" ">
<polygon fill="none" stroke="#bfbfbf" points="1235.5,-179.5 1235.5,-198.5 1284.5,-198.5 1284.5,-179.5 1235.5,-179.5"/>
<text text-anchor="middle" x="1260" y="-186.5" font-family="Helvetica,sans-Serif" font-size="10.00">netdb.h</text>
</a>
</g>
</g>
<!-- Node39&#45;&gt;Node43 -->
<g id="edge53" class="edge">
<title>Node39&#45;&gt;Node43</title>
<path fill="none" stroke="midnightblue" d="M1011.33,-235.47C1065.76,-227.83 1146.02,-215.58 1225.05,-199.02"/>
<polygon fill="midnightblue" stroke="midnightblue" points="1226.13,-202.37 1235.19,-196.87 1224.68,-195.52 1226.13,-202.37"/>
</g>
<!-- Node44 -->
<g id="node44" class="node">
<title>Node44</title>
<g id="a_node44"><a xlink:title=" ">
<polygon fill="none" stroke="#bfbfbf" points="1302.5,-179.5 1302.5,-198.5 1367.5,-198.5 1367.5,-179.5 1302.5,-179.5"/>
<text text-anchor="middle" x="1335" y="-186.5" font-family="Helvetica,sans-Serif" font-size="10.00">netinet/in.h</text>
</a>
</g>
</g>
<!-- Node39&#45;&gt;Node44 -->
<g id="edge54" class="edge">
<title>Node39&#45;&gt;Node44</title>
<path fill="none" stroke="midnightblue" d="M1022.18,-236.02C1090.19,-228.39 1193.26,-215.8 1292.58,-198.94"/>
<polygon fill="midnightblue" stroke="midnightblue" points="1293.23,-202.38 1302.49,-197.24 1292.04,-195.48 1293.23,-202.38"/>
</g>
<!-- Node45 -->
<g id="node45" class="node">
<title>Node45</title>
<g id="a_node45"><a xlink:title=" ">
<polygon fill="none" stroke="#bfbfbf" points="424.5,-179.5 424.5,-198.5 495.5,-198.5 495.5,-179.5 424.5,-179.5"/>
<text text-anchor="middle" x="460" y="-186.5" font-family="Helvetica,sans-Serif" font-size="10.00">netinet/tcp.h</text>
</a>
</g>
</g>
<!-- Node39&#45;&gt;Node45 -->
<g id="edge55" class="edge">
<title>Node39&#45;&gt;Node45</title>
<path fill="none" stroke="midnightblue" d="M871.82,-236.39C759.03,-224.96 554.67,-204.25 506.16,-198.87"/>
<polygon fill="midnightblue" stroke="midnightblue" points="506.31,-195.37 495.97,-197.66 505.48,-202.32 506.31,-195.37"/>
</g>
<!-- Node46 -->
<g id="node46" class="node">
<title>Node46</title>
<g id="a_node46"><a xlink:title=" ">
<polygon fill="none" stroke="#bfbfbf" points="513.5,-179.5 513.5,-198.5 562.5,-198.5 562.5,-179.5 513.5,-179.5"/>
<text text-anchor="middle" x="538" y="-186.5" font-family="Helvetica,sans-Serif" font-size="10.00">stdint.h</text>
</a>
</g>
</g>
<!-- Node39&#45;&gt;Node46 -->
<g id="edge56" class="edge">
<title>Node39&#45;&gt;Node46</title>
<path fill="none" stroke="midnightblue" d="M871.87,-236.24C783.89,-226.94 642.38,-211.29 572.9,-198.87"/>
<polygon fill="midnightblue" stroke="midnightblue" points="573.26,-195.38 562.79,-196.99 571.98,-202.26 573.26,-195.38"/>
</g>
<!-- Node47 -->
<g id="node47" class="node">
<title>Node47</title>
<g id="a_node47"><a xlink:title=" ">
<polygon fill="none" stroke="#bfbfbf" points="581,-179.5 581,-198.5 645,-198.5 645,-179.5 581,-179.5"/>
<text text-anchor="middle" x="613" y="-186.5" font-family="Helvetica,sans-Serif" font-size="10.00">sys/epoll.h</text>
</a>
</g>
</g>
<!-- Node39&#45;&gt;Node47 -->
<g id="edge57" class="edge">
<title>Node39&#45;&gt;Node47</title>
<path fill="none" stroke="midnightblue" d="M883.93,-235.5C826.73,-227.52 739.85,-214.73 655.23,-199.13"/>
<polygon fill="midnightblue" stroke="midnightblue" points="655.66,-195.65 645.19,-197.27 654.38,-202.54 655.66,-195.65"/>
</g>
<!-- Node48 -->
<g id="node48" class="node">
<title>Node48</title>
<g id="a_node48"><a xlink:title=" ">
<polygon fill="none" stroke="#bfbfbf" points="663,-179.5 663,-198.5 725,-198.5 725,-179.5 663,-179.5"/>
<text text-anchor="middle" x="694" y="-186.5" font-family="Helvetica,sans-Serif" font-size="10.00">arpa/inet.h</text>
</a>
</g>
</g>
<!-- Node39&#45;&gt;Node48 -->
<g id="edge58" class="edge">
<title>Node39&#45;&gt;Node48</title>
<path fill="none" stroke="midnightblue" d="M905.73,-235.45C864.9,-226.95 800.33,-213.41 735.43,-199.29"/>
<polygon fill="midnightblue" stroke="midnightblue" points="735.95,-195.82 725.43,-197.11 734.46,-202.66 735.95,-195.82"/>
</g>
<!-- Node49 -->
<g id="node49" class="node">
<title>Node49</title>
<g id="a_node49"><a xlink:title=" ">
<polygon fill="none" stroke="#bfbfbf" points="743.5,-179.5 743.5,-198.5 816.5,-198.5 816.5,-179.5 743.5,-179.5"/>
<text text-anchor="middle" x="780" y="-186.5" font-family="Helvetica,sans-Serif" font-size="10.00">sys/socket.h</text>
</a>
</g>
</g>
<!-- Node39&#45;&gt;Node49 -->
<g id="edge59" class="edge">
<title>Node39&#45;&gt;Node49</title>
<path fill="none" stroke="midnightblue" d="M920.54,-235.44C892.32,-226.32 847.46,-211.81 816.03,-201.65"/>
<polygon fill="midnightblue" stroke="midnightblue" points="816.93,-198.26 806.34,-198.52 814.78,-204.92 816.93,-198.26"/>
</g>
<!-- Node50 -->
<g id="node50" class="node">
<title>Node50</title>
<g id="a_node50"><a xlink:title=" ">
<polygon fill="none" stroke="#bfbfbf" points="835,-179.5 835,-198.5 903,-198.5 903,-179.5 835,-179.5"/>
<text text-anchor="middle" x="869" y="-186.5" font-family="Helvetica,sans-Serif" font-size="10.00">sys/types.h</text>
</a>
</g>
</g>
<!-- Node39&#45;&gt;Node50 -->
<g id="edge60" class="edge">
<title>Node39&#45;&gt;Node50</title>
<path fill="none" stroke="midnightblue" d="M934.47,-235.32C922.41,-226.98 903.97,-214.21 889.73,-204.35"/>
<polygon fill="midnightblue" stroke="midnightblue" points="891.72,-201.47 881.5,-198.65 887.73,-207.22 891.72,-201.47"/>
</g>
<!-- Node51 -->
<g id="node51" class="node">
<title>Node51</title>
<g id="a_node51"><a xlink:title=" ">
<polygon fill="none" stroke="#bfbfbf" points="921.5,-179.5 921.5,-198.5 972.5,-198.5 972.5,-179.5 921.5,-179.5"/>
<text text-anchor="middle" x="947" y="-186.5" font-family="Helvetica,sans-Serif" font-size="10.00">unistd.h</text>
</a>
</g>
</g>
<!-- Node39&#45;&gt;Node51 -->
<g id="edge61" class="edge">
<title>Node39&#45;&gt;Node51</title>
<path fill="none" stroke="midnightblue" d="M947,-235.08C947,-228.01 947,-217.86 947,-208.99"/>
<polygon fill="midnightblue" stroke="midnightblue" points="950.5,-208.75 947,-198.75 943.5,-208.75 950.5,-208.75"/>
</g>
<!-- Node53&#45;&gt;Node3 -->
<g id="edge64" class="edge">
<title>Node53&#45;&gt;Node3</title>
<path fill="none" stroke="midnightblue" d="M1457.15,-403.25C1474.39,-385.77 1510,-344.53 1510,-302 1510,-302 1510,-302 1510,-244 1510,-213.2 1504.71,-203.46 1486,-179 1476.59,-166.7 1463.35,-156.16 1450.85,-147.94"/>
<polygon fill="midnightblue" stroke="midnightblue" points="1452.7,-144.98 1442.37,-142.63 1448.99,-150.91 1452.7,-144.98"/>
</g>
</g>
</svg>
