<?xml version="1.0" encoding="UTF-8" standalone="no"?>
<!DOCTYPE svg PUBLIC "-//W3C//DTD SVG 1.1//EN"
 "http://www.w3.org/Graphics/SVG/1.1/DTD/svg11.dtd">
<!-- Generated by graphviz version 2.43.0 (0)
 -->
<!-- Title: SSLClients.cpp Pages: 1 -->
<svg width="2294pt" height="599pt"
 viewBox="0.00 0.00 2294.00 599.00" xmlns="http://www.w3.org/2000/svg" xmlns:xlink="http://www.w3.org/1999/xlink">
<g id="graph0" class="graph" transform="scale(1 1) rotate(0) translate(4 595)">
<title>SSLClients.cpp</title>
<!-- Node1 -->
<g id="node1" class="node">
<title>Node1</title>
<g id="a_node1"><a xlink:title=" ">
<polygon fill="#bfbfbf" stroke="black" points="1345.5,-591 1257.5,-591 1257.5,-572 1345.5,-572 1345.5,-591"/>
<text text-anchor="middle" x="1301.5" y="-579" font-family="Helvetica,sans-Serif" font-size="10.00">SSLClients.cpp</text>
</a>
</g>
</g>
<!-- Node2 -->
<g id="node2" class="node">
<title>Node2</title>
<g id="a_node2"><a xlink:href="../../d0/d0a/a00743.html" target="_top" xlink:title=" ">
<polygon fill="none" stroke="black" points="1662,-250 1499,-250 1499,-231 1662,-231 1662,-250"/>
<text text-anchor="middle" x="1580.5" y="-238" font-family="Helvetica,sans-Serif" font-size="10.00">discordcoreapi/SSLClients.hpp</text>
</a>
</g>
</g>
<!-- Node1&#45;&gt;Node2 -->
<g id="edge1" class="edge">
<title>Node1&#45;&gt;Node2</title>
<path fill="none" stroke="midnightblue" d="M1345.54,-580.67C1423.46,-578.4 1577.5,-561.3 1577.5,-461.5 1577.5,-461.5 1577.5,-461.5 1577.5,-349.5 1577.5,-318.18 1578.78,-281.77 1579.66,-260.23"/>
<polygon fill="midnightblue" stroke="midnightblue" points="1583.16,-260.32 1580.1,-250.18 1576.17,-260.02 1583.16,-260.32"/>
</g>
<!-- Node41 -->
<g id="node41" class="node">
<title>Node41</title>
<g id="a_node41"><a xlink:href="../../d9/dd4/a00776.html" target="_top" xlink:title=" ">
<polygon fill="none" stroke="black" points="1161.5,-536 1017.5,-536 1017.5,-506 1161.5,-506 1161.5,-536"/>
<text text-anchor="start" x="1025.5" y="-524" font-family="Helvetica,sans-Serif" font-size="10.00">discordcoreapi/WebSocket</text>
<text text-anchor="middle" x="1089.5" y="-513" font-family="Helvetica,sans-Serif" font-size="10.00">Entities.hpp</text>
</a>
</g>
</g>
<!-- Node1&#45;&gt;Node41 -->
<g id="edge41" class="edge">
<title>Node1&#45;&gt;Node41</title>
<path fill="none" stroke="midnightblue" d="M1270.67,-571.99C1239.23,-563.32 1189.61,-549.62 1150.24,-538.76"/>
<polygon fill="midnightblue" stroke="midnightblue" points="1151.04,-535.35 1140.47,-536.06 1149.18,-542.1 1151.04,-535.35"/>
</g>
<!-- Node3 -->
<g id="node3" class="node">
<title>Node3</title>
<g id="a_node3"><a xlink:href="../../d4/deb/a00710.html" target="_top" xlink:title=" ">
<polygon fill="none" stroke="black" points="1152,-140 1007,-140 1007,-110 1152,-110 1152,-140"/>
<text text-anchor="start" x="1015" y="-128" font-family="Helvetica,sans-Serif" font-size="10.00">discordcoreapi/Foundation</text>
<text text-anchor="middle" x="1079.5" y="-117" font-family="Helvetica,sans-Serif" font-size="10.00">Entities.hpp</text>
</a>
</g>
</g>
<!-- Node2&#45;&gt;Node3 -->
<g id="edge2" class="edge">
<title>Node2&#45;&gt;Node3</title>
<path fill="none" stroke="midnightblue" d="M1498.93,-233.68C1435.91,-227.76 1347,-216.33 1271.5,-195 1251,-189.21 1247.38,-183.64 1227.5,-176 1196.81,-164.21 1162.01,-152.38 1133.86,-143.18"/>
<polygon fill="midnightblue" stroke="midnightblue" points="1134.79,-139.81 1124.2,-140.05 1132.63,-146.47 1134.79,-139.81"/>
</g>
<!-- Node28 -->
<g id="node28" class="node">
<title>Node28</title>
<g id="a_node28"><a xlink:href="../../d4/d6a/a00704.html" target="_top" xlink:title=" ">
<polygon fill="none" stroke="black" points="1109.5,-195 933.5,-195 933.5,-176 1109.5,-176 1109.5,-195"/>
<text text-anchor="middle" x="1021.5" y="-183" font-family="Helvetica,sans-Serif" font-size="10.00">discordcoreapi/EventEntities.hpp</text>
</a>
</g>
</g>
<!-- Node2&#45;&gt;Node28 -->
<g id="edge27" class="edge">
<title>Node2&#45;&gt;Node28</title>
<path fill="none" stroke="midnightblue" d="M1498.92,-231.76C1398.37,-222.23 1227.65,-206.05 1119.93,-195.83"/>
<polygon fill="midnightblue" stroke="midnightblue" points="1119.99,-192.32 1109.7,-194.86 1119.33,-199.29 1119.99,-192.32"/>
</g>
<!-- Node29 -->
<g id="node29" class="node">
<title>Node29</title>
<g id="a_node29"><a xlink:title=" ">
<polygon fill="none" stroke="#bfbfbf" points="1706,-195 1627,-195 1627,-176 1706,-176 1706,-195"/>
<text text-anchor="middle" x="1666.5" y="-183" font-family="Helvetica,sans-Serif" font-size="10.00">openssl/err.h</text>
</a>
</g>
</g>
<!-- Node2&#45;&gt;Node29 -->
<g id="edge29" class="edge">
<title>Node2&#45;&gt;Node29</title>
<path fill="none" stroke="midnightblue" d="M1594.32,-230.98C1607.65,-222.77 1628.08,-210.18 1643.81,-200.49"/>
<polygon fill="midnightblue" stroke="midnightblue" points="1645.75,-203.4 1652.43,-195.17 1642.08,-197.44 1645.75,-203.4"/>
</g>
<!-- Node30 -->
<g id="node30" class="node">
<title>Node30</title>
<g id="a_node30"><a xlink:title=" ">
<polygon fill="none" stroke="#bfbfbf" points="1804.5,-195 1724.5,-195 1724.5,-176 1804.5,-176 1804.5,-195"/>
<text text-anchor="middle" x="1764.5" y="-183" font-family="Helvetica,sans-Serif" font-size="10.00">openssl/ssl.h</text>
</a>
</g>
</g>
<!-- Node2&#45;&gt;Node30 -->
<g id="edge30" class="edge">
<title>Node2&#45;&gt;Node30</title>
<path fill="none" stroke="midnightblue" d="M1610.06,-230.98C1641.22,-222.01 1690.47,-207.82 1724.96,-197.89"/>
<polygon fill="midnightblue" stroke="midnightblue" points="1726.07,-201.21 1734.71,-195.08 1724.13,-194.49 1726.07,-201.21"/>
</g>
<!-- Node31 -->
<g id="node31" class="node">
<title>Node31</title>
<g id="a_node31"><a xlink:title=" ">
<polygon fill="none" stroke="#bfbfbf" points="1870,-195 1823,-195 1823,-176 1870,-176 1870,-195"/>
<text text-anchor="middle" x="1846.5" y="-183" font-family="Helvetica,sans-Serif" font-size="10.00">fcntl.h</text>
</a>
</g>
</g>
<!-- Node2&#45;&gt;Node31 -->
<g id="edge31" class="edge">
<title>Node2&#45;&gt;Node31</title>
<path fill="none" stroke="midnightblue" d="M1630.23,-230.94C1675.32,-222.98 1743.81,-210.34 1812.6,-195.08"/>
<polygon fill="midnightblue" stroke="midnightblue" points="1813.76,-198.41 1822.75,-192.81 1812.23,-191.58 1813.76,-198.41"/>
</g>
<!-- Node32 -->
<g id="node32" class="node">
<title>Node32</title>
<g id="a_node32"><a xlink:title=" ">
<polygon fill="none" stroke="#bfbfbf" points="1941,-195 1888,-195 1888,-176 1941,-176 1941,-195"/>
<text text-anchor="middle" x="1914.5" y="-183" font-family="Helvetica,sans-Serif" font-size="10.00">netdb.h</text>
</a>
</g>
</g>
<!-- Node2&#45;&gt;Node32 -->
<g id="edge32" class="edge">
<title>Node2&#45;&gt;Node32</title>
<path fill="none" stroke="midnightblue" d="M1649.98,-230.97C1708.46,-223.38 1794.48,-211.24 1877.91,-195.17"/>
<polygon fill="midnightblue" stroke="midnightblue" points="1878.66,-198.59 1887.8,-193.25 1877.32,-191.72 1878.66,-198.59"/>
</g>
<!-- Node33 -->
<g id="node33" class="node">
<title>Node33</title>
<g id="a_node33"><a xlink:title=" ">
<polygon fill="none" stroke="#bfbfbf" points="2031.5,-195 1959.5,-195 1959.5,-176 2031.5,-176 2031.5,-195"/>
<text text-anchor="middle" x="1995.5" y="-183" font-family="Helvetica,sans-Serif" font-size="10.00">netinet/in.h</text>
</a>
</g>
</g>
<!-- Node2&#45;&gt;Node33 -->
<g id="edge33" class="edge">
<title>Node2&#45;&gt;Node33</title>
<path fill="none" stroke="midnightblue" d="M1662.28,-231.25C1735.05,-223.55 1844.6,-211.06 1949.09,-195.13"/>
<polygon fill="midnightblue" stroke="midnightblue" points="1949.84,-198.56 1959.19,-193.58 1948.77,-191.64 1949.84,-198.56"/>
</g>
<!-- Node34 -->
<g id="node34" class="node">
<title>Node34</title>
<g id="a_node34"><a xlink:title=" ">
<polygon fill="none" stroke="#bfbfbf" points="2127.5,-195 2049.5,-195 2049.5,-176 2127.5,-176 2127.5,-195"/>
<text text-anchor="middle" x="2088.5" y="-183" font-family="Helvetica,sans-Serif" font-size="10.00">netinet/tcp.h</text>
</a>
</g>
</g>
<!-- Node2&#45;&gt;Node34 -->
<g id="edge34" class="edge">
<title>Node2&#45;&gt;Node34</title>
<path fill="none" stroke="midnightblue" d="M1662.16,-233.56C1752.14,-226.56 1901.34,-213.66 2039.33,-195.06"/>
<polygon fill="midnightblue" stroke="midnightblue" points="2039.81,-198.53 2049.25,-193.71 2038.87,-191.59 2039.81,-198.53"/>
</g>
<!-- Node35 -->
<g id="node35" class="node">
<title>Node35</title>
<g id="a_node35"><a xlink:title=" ">
<polygon fill="none" stroke="#bfbfbf" points="2199,-195 2146,-195 2146,-176 2199,-176 2199,-195"/>
<text text-anchor="middle" x="2172.5" y="-183" font-family="Helvetica,sans-Serif" font-size="10.00">stdint.h</text>
</a>
</g>
</g>
<!-- Node2&#45;&gt;Node35 -->
<g id="edge35" class="edge">
<title>Node2&#45;&gt;Node35</title>
<path fill="none" stroke="midnightblue" d="M1662.45,-236.84C1769.24,-232.49 1961.82,-221.69 2135.75,-194.85"/>
<polygon fill="midnightblue" stroke="midnightblue" points="2136.51,-198.27 2145.85,-193.27 2135.43,-191.36 2136.51,-198.27"/>
</g>
<!-- Node36 -->
<g id="node36" class="node">
<title>Node36</title>
<g id="a_node36"><a xlink:title=" ">
<polygon fill="none" stroke="#bfbfbf" points="2286,-195 2217,-195 2217,-176 2286,-176 2286,-195"/>
<text text-anchor="middle" x="2251.5" y="-183" font-family="Helvetica,sans-Serif" font-size="10.00">sys/epoll.h</text>
</a>
</g>
</g>
<!-- Node2&#45;&gt;Node36 -->
<g id="edge36" class="edge">
<title>Node2&#45;&gt;Node36</title>
<path fill="none" stroke="midnightblue" d="M1662.12,-236.96C1780.25,-232.56 2005.85,-221.46 2206.68,-195.09"/>
<polygon fill="midnightblue" stroke="midnightblue" points="2207.38,-198.53 2216.83,-193.74 2206.45,-191.59 2207.38,-198.53"/>
</g>
<!-- Node37 -->
<g id="node37" class="node">
<title>Node37</title>
<g id="a_node37"><a xlink:title=" ">
<polygon fill="none" stroke="#bfbfbf" points="1349,-195 1280,-195 1280,-176 1349,-176 1349,-195"/>
<text text-anchor="middle" x="1314.5" y="-183" font-family="Helvetica,sans-Serif" font-size="10.00">arpa/inet.h</text>
</a>
</g>
</g>
<!-- Node2&#45;&gt;Node37 -->
<g id="edge37" class="edge">
<title>Node2&#45;&gt;Node37</title>
<path fill="none" stroke="midnightblue" d="M1537.76,-230.98C1488.71,-221.21 1408.65,-205.26 1358.91,-195.35"/>
<polygon fill="midnightblue" stroke="midnightblue" points="1359.57,-191.91 1349.08,-193.39 1358.2,-198.78 1359.57,-191.91"/>
</g>
<!-- Node38 -->
<g id="node38" class="node">
<title>Node38</title>
<g id="a_node38"><a xlink:title=" ">
<polygon fill="none" stroke="#bfbfbf" points="1444,-195 1367,-195 1367,-176 1444,-176 1444,-195"/>
<text text-anchor="middle" x="1405.5" y="-183" font-family="Helvetica,sans-Serif" font-size="10.00">sys/socket.h</text>
</a>
</g>
</g>
<!-- Node2&#45;&gt;Node38 -->
<g id="edge38" class="edge">
<title>Node2&#45;&gt;Node38</title>
<path fill="none" stroke="midnightblue" d="M1552.38,-230.98C1522.88,-222.05 1476.31,-207.94 1443.53,-198.02"/>
<polygon fill="midnightblue" stroke="midnightblue" points="1444.42,-194.63 1433.84,-195.08 1442.39,-201.33 1444.42,-194.63"/>
</g>
<!-- Node39 -->
<g id="node39" class="node">
<title>Node39</title>
<g id="a_node39"><a xlink:title=" ">
<polygon fill="none" stroke="#bfbfbf" points="1534.5,-195 1462.5,-195 1462.5,-176 1534.5,-176 1534.5,-195"/>
<text text-anchor="middle" x="1498.5" y="-183" font-family="Helvetica,sans-Serif" font-size="10.00">sys/types.h</text>
</a>
</g>
</g>
<!-- Node2&#45;&gt;Node39 -->
<g id="edge39" class="edge">
<title>Node2&#45;&gt;Node39</title>
<path fill="none" stroke="midnightblue" d="M1567.33,-230.98C1554.73,-222.84 1535.5,-210.41 1520.56,-200.76"/>
<polygon fill="midnightblue" stroke="midnightblue" points="1522.21,-197.66 1511.91,-195.17 1518.41,-203.54 1522.21,-197.66"/>
</g>
<!-- Node40 -->
<g id="node40" class="node">
<title>Node40</title>
<g id="a_node40"><a xlink:title=" ">
<polygon fill="none" stroke="#bfbfbf" points="1608.5,-195 1552.5,-195 1552.5,-176 1608.5,-176 1608.5,-195"/>
<text text-anchor="middle" x="1580.5" y="-183" font-family="Helvetica,sans-Serif" font-size="10.00">unistd.h</text>
</a>
</g>
</g>
<!-- Node2&#45;&gt;Node40 -->
<g id="edge40" class="edge">
<title>Node2&#45;&gt;Node40</title>
<path fill="none" stroke="midnightblue" d="M1580.5,-230.75C1580.5,-223.8 1580.5,-213.85 1580.5,-205.13"/>
<polygon fill="midnightblue" stroke="midnightblue" points="1584,-205.09 1580.5,-195.09 1577,-205.09 1584,-205.09"/>
</g>
<!-- Node4 -->
<g id="node4" class="node">
<title>Node4</title>
<g id="a_node4"><a xlink:href="../../d5/dae/a00767.html" target="_top" xlink:title=" ">
<polygon fill="none" stroke="black" points="1154.5,-74 1004.5,-74 1004.5,-55 1154.5,-55 1154.5,-74"/>
<text text-anchor="middle" x="1079.5" y="-62" font-family="Helvetica,sans-Serif" font-size="10.00">discordcoreapi/Utilities.hpp</text>
</a>
</g>
</g>
<!-- Node3&#45;&gt;Node4 -->
<g id="edge3" class="edge">
<title>Node3&#45;&gt;Node4</title>
<path fill="none" stroke="midnightblue" d="M1079.5,-109.84C1079.5,-102.21 1079.5,-92.7 1079.5,-84.45"/>
<polygon fill="midnightblue" stroke="midnightblue" points="1083,-84.27 1079.5,-74.27 1076,-84.27 1083,-84.27"/>
</g>
<!-- Node5 -->
<g id="node5" class="node">
<title>Node5</title>
<g id="a_node5"><a xlink:title=" ">
<polygon fill="none" stroke="#bfbfbf" points="63,-19 0,-19 0,0 63,0 63,-19"/>
<text text-anchor="middle" x="31.5" y="-7" font-family="Helvetica,sans-Serif" font-size="10.00">pthread.h</text>
</a>
</g>
</g>
<!-- Node4&#45;&gt;Node5 -->
<g id="edge4" class="edge">
<title>Node4&#45;&gt;Node5</title>
<path fill="none" stroke="midnightblue" d="M1004.31,-64.28C838.04,-65.12 426.64,-62.31 73.37,-18.86"/>
<polygon fill="midnightblue" stroke="midnightblue" points="73.56,-15.36 63.2,-17.6 72.69,-22.3 73.56,-15.36"/>
</g>
<!-- Node6 -->
<g id="node6" class="node">
<title>Node6</title>
<g id="a_node6"><a xlink:title=" ">
<polygon fill="none" stroke="#bfbfbf" points="149.5,-19 81.5,-19 81.5,0 149.5,0 149.5,-19"/>
<text text-anchor="middle" x="115.5" y="-7" font-family="Helvetica,sans-Serif" font-size="10.00">sys/time.h</text>
</a>
</g>
</g>
<!-- Node4&#45;&gt;Node6 -->
<g id="edge5" class="edge">
<title>Node4&#45;&gt;Node6</title>
<path fill="none" stroke="midnightblue" d="M1004.27,-63.6C848.44,-62.99 478.98,-57.34 160.07,-18.99"/>
<polygon fill="midnightblue" stroke="midnightblue" points="160.04,-15.46 149.69,-17.73 159.2,-22.41 160.04,-15.46"/>
</g>
<!-- Node7 -->
<g id="node7" class="node">
<title>Node7</title>
<g id="a_node7"><a xlink:title=" ">
<polygon fill="none" stroke="#bfbfbf" points="215.5,-19 167.5,-19 167.5,0 215.5,0 215.5,-19"/>
<text text-anchor="middle" x="191.5" y="-7" font-family="Helvetica,sans-Serif" font-size="10.00">time.h</text>
</a>
</g>
</g>
<!-- Node4&#45;&gt;Node7 -->
<g id="edge6" class="edge">
<title>Node4&#45;&gt;Node7</title>
<path fill="none" stroke="midnightblue" d="M1004.24,-61.52C828.11,-56.56 392.09,-42.46 225.63,-18.78"/>
<polygon fill="midnightblue" stroke="midnightblue" points="225.94,-15.29 215.54,-17.28 224.91,-22.21 225.94,-15.29"/>
</g>
<!-- Node8 -->
<g id="node8" class="node">
<title>Node8</title>
<g id="a_node8"><a xlink:title=" ">
<polygon fill="none" stroke="#bfbfbf" points="277.5,-19 233.5,-19 233.5,0 277.5,0 277.5,-19"/>
<text text-anchor="middle" x="255.5" y="-7" font-family="Helvetica,sans-Serif" font-size="10.00">ctime</text>
</a>
</g>
</g>
<!-- Node4&#45;&gt;Node8 -->
<g id="edge7" class="edge">
<title>Node4&#45;&gt;Node8</title>
<path fill="none" stroke="midnightblue" d="M1004.36,-61.31C837.95,-56.15 441.6,-41.99 287.93,-18.81"/>
<polygon fill="midnightblue" stroke="midnightblue" points="288.15,-15.3 277.73,-17.2 287.06,-22.22 288.15,-15.3"/>
</g>
<!-- Node9 -->
<g id="node9" class="node">
<title>Node9</title>
<g id="a_node9"><a xlink:title=" ">
<polygon fill="none" stroke="#bfbfbf" points="403,-19 296,-19 296,0 403,0 403,-19"/>
<text text-anchor="middle" x="349.5" y="-7" font-family="Helvetica,sans-Serif" font-size="10.00">condition_variable</text>
</a>
</g>
</g>
<!-- Node4&#45;&gt;Node9 -->
<g id="edge8" class="edge">
<title>Node4&#45;&gt;Node9</title>
<path fill="none" stroke="midnightblue" d="M1004.34,-60.14C882.56,-54.34 634.36,-40.98 413.26,-19"/>
<polygon fill="midnightblue" stroke="midnightblue" points="413.39,-15.5 403.09,-17.98 412.69,-22.46 413.39,-15.5"/>
</g>
<!-- Node10 -->
<g id="node10" class="node">
<title>Node10</title>
<g id="a_node10"><a xlink:title=" ">
<polygon fill="none" stroke="#bfbfbf" points="531.5,-19 421.5,-19 421.5,0 531.5,0 531.5,-19"/>
<text text-anchor="middle" x="476.5" y="-7" font-family="Helvetica,sans-Serif" font-size="10.00">nlohmann/json.hpp</text>
</a>
</g>
</g>
<!-- Node4&#45;&gt;Node10 -->
<g id="edge9" class="edge">
<title>Node4&#45;&gt;Node10</title>
<path fill="none" stroke="midnightblue" d="M1004.4,-58.48C902.13,-51.39 713.11,-37.33 541.6,-19.07"/>
<polygon fill="midnightblue" stroke="midnightblue" points="541.95,-15.59 531.64,-18 541.21,-22.55 541.95,-15.59"/>
</g>
<!-- Node11 -->
<g id="node11" class="node">
<title>Node11</title>
<g id="a_node11"><a xlink:title=" ">
<polygon fill="none" stroke="#bfbfbf" points="643,-19 550,-19 550,0 643,0 643,-19"/>
<text text-anchor="middle" x="596.5" y="-7" font-family="Helvetica,sans-Serif" font-size="10.00">source_location</text>
</a>
</g>
</g>
<!-- Node4&#45;&gt;Node11 -->
<g id="edge10" class="edge">
<title>Node4&#45;&gt;Node11</title>
<path fill="none" stroke="midnightblue" d="M1004.37,-56.83C920.98,-49.17 782.13,-35.64 653.33,-19.18"/>
<polygon fill="midnightblue" stroke="midnightblue" points="653.65,-15.7 643.29,-17.89 652.76,-22.64 653.65,-15.7"/>
</g>
<!-- Node12 -->
<g id="node12" class="node">
<title>Node12</title>
<g id="a_node12"><a xlink:title=" ">
<polygon fill="none" stroke="#bfbfbf" points="754,-19 661,-19 661,0 754,0 754,-19"/>
<text text-anchor="middle" x="707.5" y="-7" font-family="Helvetica,sans-Serif" font-size="10.00">unordered_map</text>
</a>
</g>
</g>
<!-- Node4&#45;&gt;Node12 -->
<g id="edge11" class="edge">
<title>Node4&#45;&gt;Node12</title>
<path fill="none" stroke="midnightblue" d="M1017.71,-55C956.17,-46.49 858.7,-32.88 764.26,-19.1"/>
<polygon fill="midnightblue" stroke="midnightblue" points="764.65,-15.62 754.25,-17.63 763.63,-22.54 764.65,-15.62"/>
</g>
<!-- Node13 -->
<g id="node13" class="node">
<title>Node13</title>
<g id="a_node13"><a xlink:title=" ">
<polygon fill="none" stroke="#bfbfbf" points="858.5,-19 772.5,-19 772.5,0 858.5,0 858.5,-19"/>
<text text-anchor="middle" x="815.5" y="-7" font-family="Helvetica,sans-Serif" font-size="10.00">shared_mutex</text>
</a>
</g>
</g>
<!-- Node4&#45;&gt;Node13 -->
<g id="edge12" class="edge">
<title>Node4&#45;&gt;Node13</title>
<path fill="none" stroke="midnightblue" d="M1037.08,-54.98C991.13,-45.76 917.75,-31.03 868.15,-21.07"/>
<polygon fill="midnightblue" stroke="midnightblue" points="868.74,-17.62 858.25,-19.08 867.36,-24.48 868.74,-17.62"/>
</g>
<!-- Node14 -->
<g id="node14" class="node">
<title>Node14</title>
<g id="a_node14"><a xlink:title=" ">
<polygon fill="none" stroke="#bfbfbf" points="942,-19 877,-19 877,0 942,0 942,-19"/>
<text text-anchor="middle" x="909.5" y="-7" font-family="Helvetica,sans-Serif" font-size="10.00">functional</text>
</a>
</g>
</g>
<!-- Node4&#45;&gt;Node14 -->
<g id="edge13" class="edge">
<title>Node4&#45;&gt;Node14</title>
<path fill="none" stroke="midnightblue" d="M1052.19,-54.98C1023.65,-46.09 978.67,-32.07 946.86,-22.15"/>
<polygon fill="midnightblue" stroke="midnightblue" points="947.62,-18.72 937.03,-19.08 945.53,-25.4 947.62,-18.72"/>
</g>
<!-- Node15 -->
<g id="node15" class="node">
<title>Node15</title>
<g id="a_node15"><a xlink:title=" ">
<polygon fill="none" stroke="#bfbfbf" points="1031,-19 960,-19 960,0 1031,0 1031,-19"/>
<text text-anchor="middle" x="995.5" y="-7" font-family="Helvetica,sans-Serif" font-size="10.00">semaphore</text>
</a>
</g>
</g>
<!-- Node4&#45;&gt;Node15 -->
<g id="edge14" class="edge">
<title>Node4&#45;&gt;Node15</title>
<path fill="none" stroke="midnightblue" d="M1066,-54.98C1053.1,-46.84 1033.4,-34.41 1018.1,-24.76"/>
<polygon fill="midnightblue" stroke="midnightblue" points="1019.57,-21.55 1009.24,-19.17 1015.83,-27.47 1019.57,-21.55"/>
</g>
<!-- Node16 -->
<g id="node16" class="node">
<title>Node16</title>
<g id="a_node16"><a xlink:title=" ">
<polygon fill="none" stroke="#bfbfbf" points="1109.5,-19 1049.5,-19 1049.5,0 1109.5,0 1109.5,-19"/>
<text text-anchor="middle" x="1079.5" y="-7" font-family="Helvetica,sans-Serif" font-size="10.00">concepts</text>
</a>
</g>
</g>
<!-- Node4&#45;&gt;Node16 -->
<g id="edge15" class="edge">
<title>Node4&#45;&gt;Node16</title>
<path fill="none" stroke="midnightblue" d="M1079.5,-54.75C1079.5,-47.8 1079.5,-37.85 1079.5,-29.13"/>
<polygon fill="midnightblue" stroke="midnightblue" points="1083,-29.09 1079.5,-19.09 1076,-29.09 1083,-29.09"/>
</g>
<!-- Node17 -->
<g id="node17" class="node">
<title>Node17</title>
<g id="a_node17"><a xlink:title=" ">
<polygon fill="none" stroke="#bfbfbf" points="1187.5,-19 1127.5,-19 1127.5,0 1187.5,0 1187.5,-19"/>
<text text-anchor="middle" x="1157.5" y="-7" font-family="Helvetica,sans-Serif" font-size="10.00">iostream</text>
</a>
</g>
</g>
<!-- Node4&#45;&gt;Node17 -->
<g id="edge16" class="edge">
<title>Node4&#45;&gt;Node17</title>
<path fill="none" stroke="midnightblue" d="M1092.03,-54.98C1103.9,-46.92 1121.96,-34.65 1136.11,-25.03"/>
<polygon fill="midnightblue" stroke="midnightblue" points="1138.44,-27.69 1144.74,-19.17 1134.5,-21.9 1138.44,-27.69"/>
</g>
<!-- Node18 -->
<g id="node18" class="node">
<title>Node18</title>
<g id="a_node18"><a xlink:title=" ">
<polygon fill="none" stroke="#bfbfbf" points="1261,-19 1206,-19 1206,0 1261,0 1261,-19"/>
<text text-anchor="middle" x="1233.5" y="-7" font-family="Helvetica,sans-Serif" font-size="10.00">fstream</text>
</a>
</g>
</g>
<!-- Node4&#45;&gt;Node18 -->
<g id="edge17" class="edge">
<title>Node4&#45;&gt;Node18</title>
<path fill="none" stroke="midnightblue" d="M1104.24,-54.98C1129.87,-46.16 1170.13,-32.31 1198.91,-22.41"/>
<polygon fill="midnightblue" stroke="midnightblue" points="1200.25,-25.65 1208.56,-19.08 1197.97,-19.03 1200.25,-25.65"/>
</g>
<!-- Node19 -->
<g id="node19" class="node">
<title>Node19</title>
<g id="a_node19"><a xlink:title=" ">
<polygon fill="none" stroke="#bfbfbf" points="1323.5,-19 1279.5,-19 1279.5,0 1323.5,0 1323.5,-19"/>
<text text-anchor="middle" x="1301.5" y="-7" font-family="Helvetica,sans-Serif" font-size="10.00">bitset</text>
</a>
</g>
</g>
<!-- Node4&#45;&gt;Node19 -->
<g id="edge18" class="edge">
<title>Node4&#45;&gt;Node19</title>
<path fill="none" stroke="midnightblue" d="M1118.02,-54.99C1154.63,-46.79 1211.47,-33.8 1269.48,-19.19"/>
<polygon fill="midnightblue" stroke="midnightblue" points="1270.34,-22.58 1279.18,-16.73 1268.62,-15.79 1270.34,-22.58"/>
</g>
<!-- Node20 -->
<g id="node20" class="node">
<title>Node20</title>
<g id="a_node20"><a xlink:title=" ">
<polygon fill="none" stroke="#bfbfbf" points="1399.5,-19 1341.5,-19 1341.5,0 1399.5,0 1399.5,-19"/>
<text text-anchor="middle" x="1370.5" y="-7" font-family="Helvetica,sans-Serif" font-size="10.00">memory</text>
</a>
</g>
</g>
<!-- Node4&#45;&gt;Node20 -->
<g id="edge19" class="edge">
<title>Node4&#45;&gt;Node20</title>
<path fill="none" stroke="midnightblue" d="M1131.96,-55C1181.02,-46.88 1256.56,-33.97 1331.41,-19.14"/>
<polygon fill="midnightblue" stroke="midnightblue" points="1332.36,-22.52 1341.48,-17.13 1330.99,-15.66 1332.36,-22.52"/>
</g>
<!-- Node21 -->
<g id="node21" class="node">
<title>Node21</title>
<g id="a_node21"><a xlink:title=" ">
<polygon fill="none" stroke="#bfbfbf" points="1471.5,-19 1417.5,-19 1417.5,0 1471.5,0 1471.5,-19"/>
<text text-anchor="middle" x="1444.5" y="-7" font-family="Helvetica,sans-Serif" font-size="10.00">random</text>
</a>
</g>
</g>
<!-- Node4&#45;&gt;Node21 -->
<g id="edge20" class="edge">
<title>Node4&#45;&gt;Node21</title>
<path fill="none" stroke="midnightblue" d="M1154.64,-55.45C1219.18,-48.05 1314.91,-35.92 1407.34,-19.05"/>
<polygon fill="midnightblue" stroke="midnightblue" points="1408.24,-22.45 1417.43,-17.19 1406.96,-15.56 1408.24,-22.45"/>
</g>
<!-- Node22 -->
<g id="node22" class="node">
<title>Node22</title>
<g id="a_node22"><a xlink:title=" ">
<polygon fill="none" stroke="#bfbfbf" points="1533.5,-19 1489.5,-19 1489.5,0 1533.5,0 1533.5,-19"/>
<text text-anchor="middle" x="1511.5" y="-7" font-family="Helvetica,sans-Serif" font-size="10.00">string</text>
</a>
</g>
</g>
<!-- Node4&#45;&gt;Node22 -->
<g id="edge21" class="edge">
<title>Node4&#45;&gt;Node22</title>
<path fill="none" stroke="midnightblue" d="M1154.67,-58.7C1233.43,-52.87 1360.82,-41.19 1479.28,-18.95"/>
<polygon fill="midnightblue" stroke="midnightblue" points="1480.08,-22.36 1489.25,-17.05 1478.77,-15.49 1480.08,-22.36"/>
</g>
<!-- Node23 -->
<g id="node23" class="node">
<title>Node23</title>
<g id="a_node23"><a xlink:title=" ">
<polygon fill="none" stroke="#bfbfbf" points="1599,-19 1552,-19 1552,0 1599,0 1599,-19"/>
<text text-anchor="middle" x="1575.5" y="-7" font-family="Helvetica,sans-Serif" font-size="10.00">vector</text>
</a>
</g>
</g>
<!-- Node4&#45;&gt;Node23 -->
<g id="edge22" class="edge">
<title>Node4&#45;&gt;Node23</title>
<path fill="none" stroke="midnightblue" d="M1154.56,-59.9C1244.39,-54.78 1399.42,-43.38 1541.59,-18.86"/>
<polygon fill="midnightblue" stroke="midnightblue" points="1542.56,-22.25 1551.8,-17.08 1541.35,-15.35 1542.56,-22.25"/>
</g>
<!-- Node24 -->
<g id="node24" class="node">
<title>Node24</title>
<g id="a_node24"><a xlink:title=" ">
<polygon fill="none" stroke="#bfbfbf" points="1665.5,-19 1617.5,-19 1617.5,0 1665.5,0 1665.5,-19"/>
<text text-anchor="middle" x="1641.5" y="-7" font-family="Helvetica,sans-Serif" font-size="10.00">thread</text>
</a>
</g>
</g>
<!-- Node4&#45;&gt;Node24 -->
<g id="edge23" class="edge">
<title>Node4&#45;&gt;Node24</title>
<path fill="none" stroke="midnightblue" d="M1154.9,-61.14C1255.96,-57.1 1440.94,-46.58 1607.52,-18.87"/>
<polygon fill="midnightblue" stroke="midnightblue" points="1608.17,-22.31 1617.45,-17.19 1607.01,-15.41 1608.17,-22.31"/>
</g>
<!-- Node25 -->
<g id="node25" class="node">
<title>Node25</title>
<g id="a_node25"><a xlink:title=" ">
<polygon fill="none" stroke="#bfbfbf" points="1731.5,-19 1683.5,-19 1683.5,0 1731.5,0 1731.5,-19"/>
<text text-anchor="middle" x="1707.5" y="-7" font-family="Helvetica,sans-Serif" font-size="10.00">mutex</text>
</a>
</g>
</g>
<!-- Node4&#45;&gt;Node25 -->
<g id="edge24" class="edge">
<title>Node4&#45;&gt;Node25</title>
<path fill="none" stroke="midnightblue" d="M1154.68,-62.14C1266.12,-59.19 1481.72,-49.86 1673.47,-18.86"/>
<polygon fill="midnightblue" stroke="midnightblue" points="1674.15,-22.29 1683.45,-17.22 1673.02,-15.38 1674.15,-22.29"/>
</g>
<!-- Node26 -->
<g id="node26" class="node">
<title>Node26</title>
<g id="a_node26"><a xlink:title=" ">
<polygon fill="none" stroke="#bfbfbf" points="1797,-19 1750,-19 1750,0 1797,0 1797,-19"/>
<text text-anchor="middle" x="1773.5" y="-7" font-family="Helvetica,sans-Serif" font-size="10.00">queue</text>
</a>
</g>
</g>
<!-- Node4&#45;&gt;Node26 -->
<g id="edge25" class="edge">
<title>Node4&#45;&gt;Node26</title>
<path fill="none" stroke="midnightblue" d="M1154.85,-62.94C1276.23,-61.05 1522.54,-53.12 1739.82,-18.76"/>
<polygon fill="midnightblue" stroke="midnightblue" points="1740.5,-22.2 1749.82,-17.16 1739.39,-15.29 1740.5,-22.2"/>
</g>
<!-- Node27 -->
<g id="node27" class="node">
<title>Node27</title>
<g id="a_node27"><a xlink:title=" ">
<polygon fill="none" stroke="#bfbfbf" points="1853.5,-19 1815.5,-19 1815.5,0 1853.5,0 1853.5,-19"/>
<text text-anchor="middle" x="1834.5" y="-7" font-family="Helvetica,sans-Serif" font-size="10.00">map</text>
</a>
</g>
</g>
<!-- Node4&#45;&gt;Node27 -->
<g id="edge26" class="edge">
<title>Node4&#45;&gt;Node27</title>
<path fill="none" stroke="midnightblue" d="M1154.66,-61.13C1310.48,-55.85 1665.18,-41.9 1805.26,-18.71"/>
<polygon fill="midnightblue" stroke="midnightblue" points="1806.11,-22.12 1815.36,-16.95 1804.91,-15.22 1806.11,-22.12"/>
</g>
<!-- Node28&#45;&gt;Node3 -->
<g id="edge28" class="edge">
<title>Node28&#45;&gt;Node3</title>
<path fill="none" stroke="midnightblue" d="M1030.06,-175.87C1037.49,-168.37 1048.57,-157.2 1058.36,-147.33"/>
<polygon fill="midnightblue" stroke="midnightblue" points="1060.95,-149.68 1065.51,-140.11 1055.98,-144.75 1060.95,-149.68"/>
</g>
<!-- Node41&#45;&gt;Node2 -->
<g id="edge60" class="edge">
<title>Node41&#45;&gt;Node2</title>
<path fill="none" stroke="midnightblue" d="M1161.82,-516.52C1288.33,-508.44 1536.5,-482.86 1536.5,-406.5 1536.5,-406.5 1536.5,-406.5 1536.5,-349.5 1536.5,-315.42 1555.53,-279.46 1568.56,-258.83"/>
<polygon fill="midnightblue" stroke="midnightblue" points="1571.63,-260.53 1574.2,-250.25 1565.78,-256.68 1571.63,-260.53"/>
</g>
<!-- Node41&#45;&gt;Node3 -->
<g id="edge42" class="edge">
<title>Node41&#45;&gt;Node3</title>
<path fill="none" stroke="midnightblue" d="M1017.3,-519.97C868.49,-517.94 541.5,-502.57 541.5,-406.5 541.5,-406.5 541.5,-406.5 541.5,-239.5 541.5,-210.04 537.74,-194.71 560.5,-176 593.42,-148.94 858.67,-134.64 996.69,-128.96"/>
<polygon fill="midnightblue" stroke="midnightblue" points="996.95,-132.46 1006.81,-128.55 996.67,-125.46 996.95,-132.46"/>
</g>
<!-- Node41&#45;&gt;Node28 -->
<g id="edge59" class="edge">
<title>Node41&#45;&gt;Node28</title>
<path fill="none" stroke="midnightblue" d="M1072.69,-505.72C1062.69,-496.44 1050.45,-483.57 1042.5,-470 1027.55,-444.47 1022.5,-436.09 1022.5,-406.5 1022.5,-406.5 1022.5,-406.5 1022.5,-294.5 1022.5,-263.19 1022.07,-226.77 1021.78,-205.23"/>
<polygon fill="midnightblue" stroke="midnightblue" points="1025.28,-205.13 1021.63,-195.18 1018.28,-205.23 1025.28,-205.13"/>
</g>
<!-- Node42 -->
<g id="node42" class="node">
<title>Node42</title>
<g id="a_node42"><a xlink:href="../../d4/d9b/a00680.html" target="_top" xlink:title=" ">
<polygon fill="none" stroke="black" points="994,-250 815,-250 815,-231 994,-231 994,-250"/>
<text text-anchor="middle" x="904.5" y="-238" font-family="Helvetica,sans-Serif" font-size="10.00">discordcoreapi/AudioDecoder.hpp</text>
</a>
</g>
</g>
<!-- Node41&#45;&gt;Node42 -->
<g id="edge43" class="edge">
<title>Node41&#45;&gt;Node42</title>
<path fill="none" stroke="midnightblue" d="M1044.42,-505.97C1001.85,-489.59 944.5,-457.97 944.5,-406.5 944.5,-406.5 944.5,-406.5 944.5,-349.5 944.5,-315.67 927.03,-279.38 915.18,-258.66"/>
<polygon fill="midnightblue" stroke="midnightblue" points="918.18,-256.86 910.06,-250.06 912.16,-260.44 918.18,-256.86"/>
</g>
<!-- Node45 -->
<g id="node45" class="node">
<title>Node45</title>
<g id="a_node45"><a xlink:href="../../d5/d5b/a00695.html" target="_top" xlink:title=" ">
<polygon fill="none" stroke="black" points="1260,-470 1051,-470 1051,-451 1260,-451 1260,-470"/>
<text text-anchor="middle" x="1155.5" y="-458" font-family="Helvetica,sans-Serif" font-size="10.00">discordcoreapi/CommandController.hpp</text>
</a>
</g>
</g>
<!-- Node41&#45;&gt;Node45 -->
<g id="edge48" class="edge">
<title>Node41&#45;&gt;Node45</title>
<path fill="none" stroke="midnightblue" d="M1105.48,-505.84C1115.25,-497.17 1127.77,-486.08 1137.84,-477.15"/>
<polygon fill="midnightblue" stroke="midnightblue" points="1140.45,-479.52 1145.61,-470.27 1135.81,-474.28 1140.45,-479.52"/>
</g>
<!-- Node47 -->
<g id="node47" class="node">
<title>Node47</title>
<g id="a_node47"><a xlink:href="../../d3/d4f/a00761.html" target="_top" xlink:title=" ">
<polygon fill="none" stroke="black" points="1390,-360 1223,-360 1223,-341 1390,-341 1390,-360"/>
<text text-anchor="middle" x="1306.5" y="-348" font-family="Helvetica,sans-Serif" font-size="10.00">discordcoreapi/ThreadPool.hpp</text>
</a>
</g>
</g>
<!-- Node41&#45;&gt;Node47 -->
<g id="edge61" class="edge">
<title>Node41&#45;&gt;Node47</title>
<path fill="none" stroke="midnightblue" d="M1161.73,-507.16C1195.68,-499.34 1235.97,-487.42 1269.5,-470 1303.69,-452.24 1320.03,-449.83 1336.5,-415 1344.11,-398.91 1333.28,-380.51 1322.57,-367.68"/>
<polygon fill="midnightblue" stroke="midnightblue" points="1325.04,-365.2 1315.74,-360.13 1319.85,-369.89 1325.04,-365.2"/>
</g>
<!-- Node50 -->
<g id="node50" class="node">
<title>Node50</title>
<g id="a_node50"><a xlink:href="../../dd/d57/a00701.html" target="_top" xlink:title=" ">
<polygon fill="none" stroke="black" points="513,-415 358,-415 358,-396 513,-396 513,-415"/>
<text text-anchor="middle" x="435.5" y="-403" font-family="Helvetica,sans-Serif" font-size="10.00">discordcoreapi/ErlPacker.hpp</text>
</a>
</g>
</g>
<!-- Node41&#45;&gt;Node50 -->
<g id="edge57" class="edge">
<title>Node41&#45;&gt;Node50</title>
<path fill="none" stroke="midnightblue" d="M1017.25,-518.14C886.44,-514.03 615.72,-501.85 527.5,-470 498.32,-459.47 469.71,-437.33 452.34,-422.19"/>
<polygon fill="midnightblue" stroke="midnightblue" points="454.54,-419.46 444.76,-415.4 449.87,-424.68 454.54,-419.46"/>
</g>
<!-- Node42&#45;&gt;Node3 -->
<g id="edge45" class="edge">
<title>Node42&#45;&gt;Node3</title>
<path fill="none" stroke="midnightblue" d="M904.8,-230.84C905.74,-217.29 909.51,-191.09 924.5,-176 943.85,-156.52 970.81,-144.62 996.84,-137.36"/>
<polygon fill="midnightblue" stroke="midnightblue" points="997.94,-140.69 1006.75,-134.8 996.19,-133.91 997.94,-140.69"/>
</g>
<!-- Node42&#45;&gt;Node28 -->
<g id="edge44" class="edge">
<title>Node42&#45;&gt;Node28</title>
<path fill="none" stroke="midnightblue" d="M923.3,-230.98C942.12,-222.46 971.32,-209.23 993,-199.41"/>
<polygon fill="midnightblue" stroke="midnightblue" points="994.7,-202.48 1002.36,-195.17 991.81,-196.11 994.7,-202.48"/>
</g>
<!-- Node43 -->
<g id="node43" class="node">
<title>Node43</title>
<g id="a_node43"><a xlink:title=" ">
<polygon fill="none" stroke="#bfbfbf" points="701,-195 570,-195 570,-176 701,-176 701,-195"/>
<text text-anchor="middle" x="635.5" y="-183" font-family="Helvetica,sans-Serif" font-size="10.00">libavformat/avformat.h</text>
</a>
</g>
</g>
<!-- Node42&#45;&gt;Node43 -->
<g id="edge46" class="edge">
<title>Node42&#45;&gt;Node43</title>
<path fill="none" stroke="midnightblue" d="M861.28,-230.98C814.46,-221.76 739.69,-207.03 689.14,-197.07"/>
<polygon fill="midnightblue" stroke="midnightblue" points="689.55,-193.58 679.06,-195.08 688.19,-200.45 689.55,-193.58"/>
</g>
<!-- Node44 -->
<g id="node44" class="node">
<title>Node44</title>
<g id="a_node44"><a xlink:title=" ">
<polygon fill="none" stroke="#bfbfbf" points="878,-195 719,-195 719,-176 878,-176 878,-195"/>
<text text-anchor="middle" x="798.5" y="-183" font-family="Helvetica,sans-Serif" font-size="10.00">libswresample/swresample.h</text>
</a>
</g>
</g>
<!-- Node42&#45;&gt;Node44 -->
<g id="edge47" class="edge">
<title>Node42&#45;&gt;Node44</title>
<path fill="none" stroke="midnightblue" d="M887.47,-230.98C870.57,-222.54 844.44,-209.47 824.86,-199.68"/>
<polygon fill="midnightblue" stroke="midnightblue" points="826.35,-196.51 815.84,-195.17 823.22,-202.77 826.35,-196.51"/>
</g>
<!-- Node45&#45;&gt;Node3 -->
<g id="edge49" class="edge">
<title>Node45&#45;&gt;Node3</title>
<path fill="none" stroke="midnightblue" d="M1153.07,-450.9C1148.16,-432.72 1137.5,-388.95 1137.5,-351.5 1137.5,-351.5 1137.5,-351.5 1137.5,-239.5 1137.5,-210.04 1132.01,-202.18 1118.5,-176 1113.42,-166.17 1106.32,-156.35 1099.57,-148.05"/>
<polygon fill="midnightblue" stroke="midnightblue" points="1102.15,-145.68 1093.02,-140.31 1096.81,-150.21 1102.15,-145.68"/>
</g>
<!-- Node46 -->
<g id="node46" class="node">
<title>Node46</title>
<g id="a_node46"><a xlink:href="../../d0/db6/a00692.html" target="_top" xlink:title=" ">
<polygon fill="none" stroke="black" points="1327.5,-415 1165.5,-415 1165.5,-396 1327.5,-396 1327.5,-415"/>
<text text-anchor="middle" x="1246.5" y="-403" font-family="Helvetica,sans-Serif" font-size="10.00">discordcoreapi/CoRoutine.hpp</text>
</a>
</g>
</g>
<!-- Node45&#45;&gt;Node46 -->
<g id="edge50" class="edge">
<title>Node45&#45;&gt;Node46</title>
<path fill="none" stroke="midnightblue" d="M1170.12,-450.98C1184.36,-442.69 1206.25,-429.94 1222.95,-420.22"/>
<polygon fill="midnightblue" stroke="midnightblue" points="1224.73,-423.23 1231.61,-415.17 1221.21,-417.18 1224.73,-423.23"/>
</g>
<!-- Node46&#45;&gt;Node3 -->
<g id="edge51" class="edge">
<title>Node46&#45;&gt;Node3</title>
<path fill="none" stroke="midnightblue" d="M1235.72,-395.97C1215.85,-379.2 1175.5,-339.81 1175.5,-296.5 1175.5,-296.5 1175.5,-296.5 1175.5,-239.5 1175.5,-209.33 1170.06,-199.79 1151.5,-176 1141.99,-163.81 1128.7,-153.43 1116.11,-145.33"/>
<polygon fill="midnightblue" stroke="midnightblue" points="1117.93,-142.34 1107.57,-140.1 1114.27,-148.31 1117.93,-142.34"/>
</g>
<!-- Node46&#45;&gt;Node47 -->
<g id="edge52" class="edge">
<title>Node46&#45;&gt;Node47</title>
<path fill="none" stroke="midnightblue" d="M1256.14,-395.98C1265.01,-388.15 1278.37,-376.34 1289.11,-366.86"/>
<polygon fill="midnightblue" stroke="midnightblue" points="1291.51,-369.41 1296.68,-360.17 1286.87,-364.17 1291.51,-369.41"/>
</g>
<!-- Node47&#45;&gt;Node3 -->
<g id="edge53" class="edge">
<title>Node47&#45;&gt;Node3</title>
<path fill="none" stroke="midnightblue" d="M1297.68,-340.74C1289.19,-332.07 1276.24,-318.21 1266.5,-305 1226.88,-251.25 1239.27,-220.51 1189.5,-176 1174.05,-162.18 1154.14,-151.58 1135.51,-143.78"/>
<polygon fill="midnightblue" stroke="midnightblue" points="1136.8,-140.52 1126.21,-140.06 1134.2,-147.02 1136.8,-140.52"/>
</g>
<!-- Node48 -->
<g id="node48" class="node">
<title>Node48</title>
<g id="a_node48"><a xlink:href="../../db/d7c/a00722.html" target="_top" xlink:title=" ">
<polygon fill="none" stroke="black" points="1503.5,-305 1365.5,-305 1365.5,-286 1503.5,-286 1503.5,-305"/>
<text text-anchor="middle" x="1434.5" y="-293" font-family="Helvetica,sans-Serif" font-size="10.00">discordcoreapi/Https.hpp</text>
</a>
</g>
</g>
<!-- Node47&#45;&gt;Node48 -->
<g id="edge54" class="edge">
<title>Node47&#45;&gt;Node48</title>
<path fill="none" stroke="midnightblue" d="M1327.07,-340.98C1347.93,-332.34 1380.47,-318.87 1404.27,-309.02"/>
<polygon fill="midnightblue" stroke="midnightblue" points="1405.66,-312.23 1413.56,-305.17 1402.98,-305.76 1405.66,-312.23"/>
</g>
<!-- Node49 -->
<g id="node49" class="node">
<title>Node49</title>
<g id="a_node49"><a xlink:title=" ">
<polygon fill="none" stroke="#bfbfbf" points="1337.5,-305 1275.5,-305 1275.5,-286 1337.5,-286 1337.5,-305"/>
<text text-anchor="middle" x="1306.5" y="-293" font-family="Helvetica,sans-Serif" font-size="10.00">coroutine</text>
</a>
</g>
</g>
<!-- Node47&#45;&gt;Node49 -->
<g id="edge56" class="edge">
<title>Node47&#45;&gt;Node49</title>
<path fill="none" stroke="midnightblue" d="M1306.5,-340.75C1306.5,-333.8 1306.5,-323.85 1306.5,-315.13"/>
<polygon fill="midnightblue" stroke="midnightblue" points="1310,-315.09 1306.5,-305.09 1303,-315.09 1310,-315.09"/>
</g>
<!-- Node48&#45;&gt;Node2 -->
<g id="edge55" class="edge">
<title>Node48&#45;&gt;Node2</title>
<path fill="none" stroke="midnightblue" d="M1457.96,-285.98C1482.08,-277.23 1519.87,-263.51 1547.1,-253.62"/>
<polygon fill="midnightblue" stroke="midnightblue" points="1548.41,-256.87 1556.62,-250.17 1546.02,-250.29 1548.41,-256.87"/>
</g>
<!-- Node50&#45;&gt;Node3 -->
<g id="edge58" class="edge">
<title>Node50&#45;&gt;Node3</title>
<path fill="none" stroke="midnightblue" d="M440.23,-395.83C449.57,-377.87 469.5,-335.03 469.5,-296.5 469.5,-296.5 469.5,-296.5 469.5,-239.5 469.5,-201.28 493.26,-192.99 527.5,-176 607.79,-136.17 863.49,-127.83 996.82,-126.24"/>
<polygon fill="midnightblue" stroke="midnightblue" points="997.03,-129.74 1006.99,-126.13 996.95,-122.74 997.03,-129.74"/>
</g>
</g>
</svg>
