<?xml version="1.0" encoding="UTF-8" standalone="no"?>
<!DOCTYPE svg PUBLIC "-//W3C//DTD SVG 1.1//EN"
 "http://www.w3.org/Graphics/SVG/1.1/DTD/svg11.dtd">
<!-- Generated by graphviz version 3.0.0 (20220226.1711)
 -->
<!-- Title: SongAPI.hpp Pages: 1 -->
<svg width="2058pt" height="733pt"
 viewBox="0.00 0.00 2057.50 733.00" xmlns="http://www.w3.org/2000/svg" xmlns:xlink="http://www.w3.org/1999/xlink">
<g id="graph0" class="graph" transform="scale(1 1) rotate(0) translate(4 729)">
<title>SongAPI.hpp</title>
<!-- Node1 -->
<g id="node1" class="node">
<title>Node1</title>
<g id="a_node1"><a xlink:title=" ">
<polygon fill="#bfbfbf" stroke="black" points="1321,-705.5 1321,-724.5 1395,-724.5 1395,-705.5 1321,-705.5"/>
<text text-anchor="middle" x="1358" y="-712.5" font-family="Helvetica,sans-Serif" font-size="10.00">SongAPI.hpp</text>
</a>
</g>
</g>
<!-- Node2 -->
<g id="node2" class="node">
<title>Node2</title>
<g id="a_node2"><a xlink:href="$d4/deb/a00710.html" xlink:title=" ">
<polygon fill="none" stroke="black" points="1261.5,-112.5 1261.5,-142.5 1392.5,-142.5 1392.5,-112.5 1261.5,-112.5"/>
<text text-anchor="start" x="1269.5" y="-130.5" font-family="Helvetica,sans-Serif" font-size="10.00">discordcoreapi/Foundation</text>
<text text-anchor="middle" x="1327" y="-119.5" font-family="Helvetica,sans-Serif" font-size="10.00">Entities.hpp</text>
</a>
</g>
</g>
<!-- Node1&#45;&gt;Node2 -->
<g id="edge1" class="edge">
<title>Node1&#45;&gt;Node2</title>
<path fill="none" stroke="midnightblue" d="M1395.15,-714.11C1522.13,-713.48 1931,-702.93 1931,-593 1931,-593 1931,-593 1931,-244 1931,-201.87 1900.39,-196.37 1862,-179 1782.03,-142.82 1530.61,-132.55 1402.96,-129.64"/>
<polygon fill="midnightblue" stroke="midnightblue" points="1402.94,-126.14 1392.87,-129.42 1402.79,-133.14 1402.94,-126.14"/>
</g>
<!-- Node27 -->
<g id="node27" class="node">
<title>Node27</title>
<g id="a_node27"><a xlink:href="$d4/d6a/a00704.html" xlink:title=" ">
<polygon fill="none" stroke="black" points="1065,-179.5 1065,-198.5 1223,-198.5 1223,-179.5 1065,-179.5"/>
<text text-anchor="middle" x="1144" y="-186.5" font-family="Helvetica,sans-Serif" font-size="10.00">discordcoreapi/EventEntities.hpp</text>
</a>
</g>
</g>
<!-- Node1&#45;&gt;Node27 -->
<g id="edge26" class="edge">
<title>Node1&#45;&gt;Node27</title>
<path fill="none" stroke="midnightblue" d="M1320.77,-709.24C1230.44,-696.64 1007,-658.83 1007,-593 1007,-593 1007,-593 1007,-300 1007,-249 1065.45,-217.69 1105.99,-202.11"/>
<polygon fill="midnightblue" stroke="midnightblue" points="1107.43,-205.31 1115.61,-198.58 1105.02,-198.74 1107.43,-205.31"/>
</g>
<!-- Node28 -->
<g id="node28" class="node">
<title>Node28</title>
<g id="a_node28"><a xlink:href="$d2/d94/a00716.html" xlink:title=" ">
<polygon fill="none" stroke="black" points="677,-638.5 677,-668.5 817,-668.5 817,-638.5 677,-638.5"/>
<text text-anchor="start" x="685" y="-656.5" font-family="Helvetica,sans-Serif" font-size="10.00">discordcoreapi/GuildMember</text>
<text text-anchor="middle" x="747" y="-645.5" font-family="Helvetica,sans-Serif" font-size="10.00">Entities.hpp</text>
</a>
</g>
</g>
<!-- Node1&#45;&gt;Node28 -->
<g id="edge28" class="edge">
<title>Node1&#45;&gt;Node28</title>
<path fill="none" stroke="midnightblue" d="M1320.7,-710.37C1223.54,-700.91 960.97,-675.34 827.4,-662.33"/>
<polygon fill="midnightblue" stroke="midnightblue" points="827.52,-658.82 817.22,-661.34 826.84,-665.79 827.52,-658.82"/>
</g>
<!-- Node53 -->
<g id="node53" class="node">
<title>Node53</title>
<g id="a_node53"><a xlink:href="$d0/d7e/a00770.html" xlink:title=" ">
<polygon fill="none" stroke="black" points="1568.5,-582.5 1568.5,-601.5 1743.5,-601.5 1743.5,-582.5 1568.5,-582.5"/>
<text text-anchor="middle" x="1656" y="-589.5" font-family="Helvetica,sans-Serif" font-size="10.00">discordcoreapi/VoiceConnection.hpp</text>
</a>
</g>
</g>
<!-- Node1&#45;&gt;Node53 -->
<g id="edge68" class="edge">
<title>Node1&#45;&gt;Node53</title>
<path fill="none" stroke="midnightblue" d="M1378.95,-705.49C1430.66,-684.5 1564.51,-630.15 1625.23,-605.49"/>
<polygon fill="midnightblue" stroke="midnightblue" points="1626.72,-608.67 1634.67,-601.66 1624.09,-602.18 1626.72,-608.67"/>
</g>
<!-- Node3 -->
<g id="node3" class="node">
<title>Node3</title>
<g id="a_node3"><a xlink:href="$d5/dae/a00767.html" xlink:title=" ">
<polygon fill="none" stroke="black" points="1260,-56.5 1260,-75.5 1394,-75.5 1394,-56.5 1260,-56.5"/>
<text text-anchor="middle" x="1327" y="-63.5" font-family="Helvetica,sans-Serif" font-size="10.00">discordcoreapi/Utilities.hpp</text>
</a>
</g>
</g>
<!-- Node2&#45;&gt;Node3 -->
<g id="edge2" class="edge">
<title>Node2&#45;&gt;Node3</title>
<path fill="none" stroke="midnightblue" d="M1327,-112.4C1327,-104.47 1327,-94.46 1327,-85.86"/>
<polygon fill="midnightblue" stroke="midnightblue" points="1330.5,-85.66 1327,-75.66 1323.5,-85.66 1330.5,-85.66"/>
</g>
<!-- Node4 -->
<g id="node4" class="node">
<title>Node4</title>
<g id="a_node4"><a xlink:title=" ">
<polygon fill="none" stroke="#bfbfbf" points="333.5,-0.5 333.5,-19.5 390.5,-19.5 390.5,-0.5 333.5,-0.5"/>
<text text-anchor="middle" x="362" y="-7.5" font-family="Helvetica,sans-Serif" font-size="10.00">pthread.h</text>
</a>
</g>
</g>
<!-- Node3&#45;&gt;Node4 -->
<g id="edge3" class="edge">
<title>Node3&#45;&gt;Node4</title>
<path fill="none" stroke="midnightblue" d="M1259.95,-63.35C1079.43,-58.65 585.03,-44.07 400.65,-19.74"/>
<polygon fill="midnightblue" stroke="midnightblue" points="400.91,-16.24 390.53,-18.35 399.96,-23.18 400.91,-16.24"/>
</g>
<!-- Node5 -->
<g id="node5" class="node">
<title>Node5</title>
<g id="a_node5"><a xlink:title=" ">
<polygon fill="none" stroke="#bfbfbf" points="409,-0.5 409,-19.5 471,-19.5 471,-0.5 409,-0.5"/>
<text text-anchor="middle" x="440" y="-7.5" font-family="Helvetica,sans-Serif" font-size="10.00">sys/time.h</text>
</a>
</g>
</g>
<!-- Node3&#45;&gt;Node5 -->
<g id="edge4" class="edge">
<title>Node3&#45;&gt;Node5</title>
<path fill="none" stroke="midnightblue" d="M1259.93,-65.26C1117.85,-64.97 776.07,-59.92 481.37,-19.95"/>
<polygon fill="midnightblue" stroke="midnightblue" points="481.73,-16.47 471.35,-18.58 480.78,-23.4 481.73,-16.47"/>
</g>
<!-- Node6 -->
<g id="node6" class="node">
<title>Node6</title>
<g id="a_node6"><a xlink:title=" ">
<polygon fill="none" stroke="#bfbfbf" points="489,-0.5 489,-19.5 533,-19.5 533,-0.5 489,-0.5"/>
<text text-anchor="middle" x="511" y="-7.5" font-family="Helvetica,sans-Serif" font-size="10.00">time.h</text>
</a>
</g>
</g>
<!-- Node3&#45;&gt;Node6 -->
<g id="edge5" class="edge">
<title>Node3&#45;&gt;Node6</title>
<path fill="none" stroke="midnightblue" d="M1259.98,-63.1C1099.91,-58.25 697.84,-44.19 543.45,-19.8"/>
<polygon fill="midnightblue" stroke="midnightblue" points="543.65,-16.28 533.21,-18.1 542.5,-23.19 543.65,-16.28"/>
</g>
<!-- Node7 -->
<g id="node7" class="node">
<title>Node7</title>
<g id="a_node7"><a xlink:title=" ">
<polygon fill="none" stroke="#bfbfbf" points="551.5,-0.5 551.5,-19.5 592.5,-19.5 592.5,-0.5 551.5,-0.5"/>
<text text-anchor="middle" x="572" y="-7.5" font-family="Helvetica,sans-Serif" font-size="10.00">ctime</text>
</a>
</g>
</g>
<!-- Node3&#45;&gt;Node7 -->
<g id="edge6" class="edge">
<title>Node3&#45;&gt;Node7</title>
<path fill="none" stroke="midnightblue" d="M1259.89,-62.89C1108.79,-57.82 744.66,-43.7 602.97,-19.9"/>
<polygon fill="midnightblue" stroke="midnightblue" points="603.22,-16.39 592.76,-18.09 602,-23.28 603.22,-16.39"/>
</g>
<!-- Node8 -->
<g id="node8" class="node">
<title>Node8</title>
<g id="a_node8"><a xlink:title=" ">
<polygon fill="none" stroke="#bfbfbf" points="610.5,-0.5 610.5,-19.5 703.5,-19.5 703.5,-0.5 610.5,-0.5"/>
<text text-anchor="middle" x="657" y="-7.5" font-family="Helvetica,sans-Serif" font-size="10.00">condition_variable</text>
</a>
</g>
</g>
<!-- Node3&#45;&gt;Node8 -->
<g id="edge7" class="edge">
<title>Node3&#45;&gt;Node8</title>
<path fill="none" stroke="midnightblue" d="M1259.59,-61.96C1148.2,-56.53 918.55,-43.55 713.75,-19.98"/>
<polygon fill="midnightblue" stroke="midnightblue" points="714.05,-16.49 703.71,-18.82 713.24,-23.45 714.05,-16.49"/>
</g>
<!-- Node9 -->
<g id="node9" class="node">
<title>Node9</title>
<g id="a_node9"><a xlink:title=" ">
<polygon fill="none" stroke="#bfbfbf" points="722,-0.5 722,-19.5 820,-19.5 820,-0.5 722,-0.5"/>
<text text-anchor="middle" x="771" y="-7.5" font-family="Helvetica,sans-Serif" font-size="10.00">nlohmann/json.hpp</text>
</a>
</g>
</g>
<!-- Node3&#45;&gt;Node9 -->
<g id="edge8" class="edge">
<title>Node3&#45;&gt;Node9</title>
<path fill="none" stroke="midnightblue" d="M1260,-60.31C1166.2,-53.44 990.21,-39.45 830.05,-20.06"/>
<polygon fill="midnightblue" stroke="midnightblue" points="830.37,-16.57 820.02,-18.83 829.52,-23.52 830.37,-16.57"/>
</g>
<!-- Node10 -->
<g id="node10" class="node">
<title>Node10</title>
<g id="a_node10"><a xlink:title=" ">
<polygon fill="none" stroke="#bfbfbf" points="838.5,-0.5 838.5,-19.5 923.5,-19.5 923.5,-0.5 838.5,-0.5"/>
<text text-anchor="middle" x="881" y="-7.5" font-family="Helvetica,sans-Serif" font-size="10.00">source_location</text>
</a>
</g>
</g>
<!-- Node3&#45;&gt;Node10 -->
<g id="edge9" class="edge">
<title>Node3&#45;&gt;Node10</title>
<path fill="none" stroke="midnightblue" d="M1259.74,-58.6C1183.16,-51.04 1054.05,-37.42 933.68,-20.17"/>
<polygon fill="midnightblue" stroke="midnightblue" points="933.94,-16.67 923.55,-18.71 932.94,-23.6 933.94,-16.67"/>
</g>
<!-- Node11 -->
<g id="node11" class="node">
<title>Node11</title>
<g id="a_node11"><a xlink:title=" ">
<polygon fill="none" stroke="#bfbfbf" points="941.5,-0.5 941.5,-19.5 1024.5,-19.5 1024.5,-0.5 941.5,-0.5"/>
<text text-anchor="middle" x="983" y="-7.5" font-family="Helvetica,sans-Serif" font-size="10.00">unordered_map</text>
</a>
</g>
</g>
<!-- Node3&#45;&gt;Node11 -->
<g id="edge10" class="edge">
<title>Node3&#45;&gt;Node11</title>
<path fill="none" stroke="midnightblue" d="M1269.12,-56.5C1212.17,-48.05 1122.46,-34.5 1034.85,-20.11"/>
<polygon fill="midnightblue" stroke="midnightblue" points="1035.17,-16.62 1024.74,-18.44 1034.03,-23.52 1035.17,-16.62"/>
</g>
<!-- Node12 -->
<g id="node12" class="node">
<title>Node12</title>
<g id="a_node12"><a xlink:title=" ">
<polygon fill="none" stroke="#bfbfbf" points="1043,-0.5 1043,-19.5 1121,-19.5 1121,-0.5 1043,-0.5"/>
<text text-anchor="middle" x="1082" y="-7.5" font-family="Helvetica,sans-Serif" font-size="10.00">shared_mutex</text>
</a>
</g>
</g>
<!-- Node3&#45;&gt;Node12 -->
<g id="edge11" class="edge">
<title>Node3&#45;&gt;Node12</title>
<path fill="none" stroke="midnightblue" d="M1288.18,-56.44C1245.44,-47.02 1176.67,-31.87 1130.43,-21.68"/>
<polygon fill="midnightblue" stroke="midnightblue" points="1131.16,-18.25 1120.64,-19.52 1129.65,-25.09 1131.16,-18.25"/>
</g>
<!-- Node13 -->
<g id="node13" class="node">
<title>Node13</title>
<g id="a_node13"><a xlink:title=" ">
<polygon fill="none" stroke="#bfbfbf" points="1139,-0.5 1139,-19.5 1197,-19.5 1197,-0.5 1139,-0.5"/>
<text text-anchor="middle" x="1168" y="-7.5" font-family="Helvetica,sans-Serif" font-size="10.00">functional</text>
</a>
</g>
</g>
<!-- Node3&#45;&gt;Node13 -->
<g id="edge12" class="edge">
<title>Node3&#45;&gt;Node13</title>
<path fill="none" stroke="midnightblue" d="M1301.81,-56.44C1275.06,-47.36 1232.6,-32.94 1202.69,-22.78"/>
<polygon fill="midnightblue" stroke="midnightblue" points="1203.67,-19.42 1193.08,-19.52 1201.42,-26.05 1203.67,-19.42"/>
</g>
<!-- Node14 -->
<g id="node14" class="node">
<title>Node14</title>
<g id="a_node14"><a xlink:title=" ">
<polygon fill="none" stroke="#bfbfbf" points="1215.5,-0.5 1215.5,-19.5 1280.5,-19.5 1280.5,-0.5 1215.5,-0.5"/>
<text text-anchor="middle" x="1248" y="-7.5" font-family="Helvetica,sans-Serif" font-size="10.00">semaphore</text>
</a>
</g>
</g>
<!-- Node3&#45;&gt;Node14 -->
<g id="edge13" class="edge">
<title>Node3&#45;&gt;Node14</title>
<path fill="none" stroke="midnightblue" d="M1314.31,-56.32C1302.1,-47.98 1283.42,-35.21 1269,-25.35"/>
<polygon fill="midnightblue" stroke="midnightblue" points="1270.89,-22.41 1260.66,-19.65 1266.94,-28.19 1270.89,-22.41"/>
</g>
<!-- Node15 -->
<g id="node15" class="node">
<title>Node15</title>
<g id="a_node15"><a xlink:title=" ">
<polygon fill="none" stroke="#bfbfbf" points="1299,-0.5 1299,-19.5 1355,-19.5 1355,-0.5 1299,-0.5"/>
<text text-anchor="middle" x="1327" y="-7.5" font-family="Helvetica,sans-Serif" font-size="10.00">concepts</text>
</a>
</g>
</g>
<!-- Node3&#45;&gt;Node15 -->
<g id="edge14" class="edge">
<title>Node3&#45;&gt;Node15</title>
<path fill="none" stroke="midnightblue" d="M1327,-56.08C1327,-49.01 1327,-38.86 1327,-29.99"/>
<polygon fill="midnightblue" stroke="midnightblue" points="1330.5,-29.75 1327,-19.75 1323.5,-29.75 1330.5,-29.75"/>
</g>
<!-- Node16 -->
<g id="node16" class="node">
<title>Node16</title>
<g id="a_node16"><a xlink:title=" ">
<polygon fill="none" stroke="#bfbfbf" points="1373,-0.5 1373,-19.5 1427,-19.5 1427,-0.5 1373,-0.5"/>
<text text-anchor="middle" x="1400" y="-7.5" font-family="Helvetica,sans-Serif" font-size="10.00">iostream</text>
</a>
</g>
</g>
<!-- Node3&#45;&gt;Node16 -->
<g id="edge15" class="edge">
<title>Node3&#45;&gt;Node16</title>
<path fill="none" stroke="midnightblue" d="M1338.73,-56.32C1349.84,-48.11 1366.74,-35.6 1379.98,-25.81"/>
<polygon fill="midnightblue" stroke="midnightblue" points="1382.1,-28.59 1388.06,-19.83 1377.94,-22.97 1382.1,-28.59"/>
</g>
<!-- Node17 -->
<g id="node17" class="node">
<title>Node17</title>
<g id="a_node17"><a xlink:title=" ">
<polygon fill="none" stroke="#bfbfbf" points="1445.5,-0.5 1445.5,-19.5 1494.5,-19.5 1494.5,-0.5 1445.5,-0.5"/>
<text text-anchor="middle" x="1470" y="-7.5" font-family="Helvetica,sans-Serif" font-size="10.00">fstream</text>
</a>
</g>
</g>
<!-- Node3&#45;&gt;Node17 -->
<g id="edge16" class="edge">
<title>Node3&#45;&gt;Node17</title>
<path fill="none" stroke="midnightblue" d="M1349.66,-56.44C1373.4,-47.48 1410.91,-33.31 1437.74,-23.18"/>
<polygon fill="midnightblue" stroke="midnightblue" points="1439.33,-26.32 1447.45,-19.52 1436.86,-19.77 1439.33,-26.32"/>
</g>
<!-- Node18 -->
<g id="node18" class="node">
<title>Node18</title>
<g id="a_node18"><a xlink:title=" ">
<polygon fill="none" stroke="#bfbfbf" points="1512.5,-0.5 1512.5,-19.5 1553.5,-19.5 1553.5,-0.5 1512.5,-0.5"/>
<text text-anchor="middle" x="1533" y="-7.5" font-family="Helvetica,sans-Serif" font-size="10.00">bitset</text>
</a>
</g>
</g>
<!-- Node3&#45;&gt;Node18 -->
<g id="edge17" class="edge">
<title>Node3&#45;&gt;Node18</title>
<path fill="none" stroke="midnightblue" d="M1362.18,-56.46C1395.77,-48.2 1448.03,-35.09 1502.54,-20.04"/>
<polygon fill="midnightblue" stroke="midnightblue" points="1503.68,-23.36 1512.38,-17.31 1501.8,-16.61 1503.68,-23.36"/>
</g>
<!-- Node19 -->
<g id="node19" class="node">
<title>Node19</title>
<g id="a_node19"><a xlink:title=" ">
<polygon fill="none" stroke="#bfbfbf" points="1572,-0.5 1572,-19.5 1624,-19.5 1624,-0.5 1572,-0.5"/>
<text text-anchor="middle" x="1598" y="-7.5" font-family="Helvetica,sans-Serif" font-size="10.00">memory</text>
</a>
</g>
</g>
<!-- Node3&#45;&gt;Node19 -->
<g id="edge18" class="edge">
<title>Node3&#45;&gt;Node19</title>
<path fill="none" stroke="midnightblue" d="M1375.77,-56.48C1421.27,-48.35 1491.27,-35.37 1561.75,-19.95"/>
<polygon fill="midnightblue" stroke="midnightblue" points="1562.68,-23.33 1571.69,-17.76 1561.17,-16.49 1562.68,-23.33"/>
</g>
<!-- Node20 -->
<g id="node20" class="node">
<title>Node20</title>
<g id="a_node20"><a xlink:title=" ">
<polygon fill="none" stroke="#bfbfbf" points="1642.5,-0.5 1642.5,-19.5 1691.5,-19.5 1691.5,-0.5 1642.5,-0.5"/>
<text text-anchor="middle" x="1667" y="-7.5" font-family="Helvetica,sans-Serif" font-size="10.00">random</text>
</a>
</g>
</g>
<!-- Node3&#45;&gt;Node20 -->
<g id="edge19" class="edge">
<title>Node3&#45;&gt;Node20</title>
<path fill="none" stroke="midnightblue" d="M1394.24,-57.33C1454.24,-49.97 1544.65,-37.66 1632.34,-19.93"/>
<polygon fill="midnightblue" stroke="midnightblue" points="1633.1,-23.35 1642.19,-17.91 1631.7,-16.49 1633.1,-23.35"/>
</g>
<!-- Node21 -->
<g id="node21" class="node">
<title>Node21</title>
<g id="a_node21"><a xlink:title=" ">
<polygon fill="none" stroke="#bfbfbf" points="1709.5,-0.5 1709.5,-19.5 1750.5,-19.5 1750.5,-0.5 1709.5,-0.5"/>
<text text-anchor="middle" x="1730" y="-7.5" font-family="Helvetica,sans-Serif" font-size="10.00">string</text>
</a>
</g>
</g>
<!-- Node3&#45;&gt;Node21 -->
<g id="edge20" class="edge">
<title>Node3&#45;&gt;Node21</title>
<path fill="none" stroke="midnightblue" d="M1394.27,-60.37C1467.27,-54.57 1587.29,-42.75 1699.66,-19.71"/>
<polygon fill="midnightblue" stroke="midnightblue" points="1700.39,-23.13 1709.46,-17.67 1698.96,-16.28 1700.39,-23.13"/>
</g>
<!-- Node22 -->
<g id="node22" class="node">
<title>Node22</title>
<g id="a_node22"><a xlink:title=" ">
<polygon fill="none" stroke="#bfbfbf" points="1769,-0.5 1769,-19.5 1811,-19.5 1811,-0.5 1769,-0.5"/>
<text text-anchor="middle" x="1790" y="-7.5" font-family="Helvetica,sans-Serif" font-size="10.00">vector</text>
</a>
</g>
</g>
<!-- Node3&#45;&gt;Node22 -->
<g id="edge21" class="edge">
<title>Node3&#45;&gt;Node22</title>
<path fill="none" stroke="midnightblue" d="M1394.15,-61.73C1479.58,-56.72 1631.34,-44.97 1759,-20 1759.1,-19.98 1759.2,-19.96 1759.3,-19.94"/>
<polygon fill="midnightblue" stroke="midnightblue" points="1759.85,-23.41 1768.78,-17.7 1758.24,-16.59 1759.85,-23.41"/>
</g>
<!-- Node23 -->
<g id="node23" class="node">
<title>Node23</title>
<g id="a_node23"><a xlink:title=" ">
<polygon fill="none" stroke="#bfbfbf" points="1829,-0.5 1829,-19.5 1873,-19.5 1873,-0.5 1829,-0.5"/>
<text text-anchor="middle" x="1851" y="-7.5" font-family="Helvetica,sans-Serif" font-size="10.00">thread</text>
</a>
</g>
</g>
<!-- Node3&#45;&gt;Node23 -->
<g id="edge22" class="edge">
<title>Node3&#45;&gt;Node23</title>
<path fill="none" stroke="midnightblue" d="M1394.15,-62.94C1487.5,-59.18 1661.77,-48.9 1818.48,-19.94"/>
<polygon fill="midnightblue" stroke="midnightblue" points="1819.59,-23.29 1828.77,-18.01 1818.3,-16.41 1819.59,-23.29"/>
</g>
<!-- Node24 -->
<g id="node24" class="node">
<title>Node24</title>
<g id="a_node24"><a xlink:title=" ">
<polygon fill="none" stroke="#bfbfbf" points="1891,-0.5 1891,-19.5 1935,-19.5 1935,-0.5 1891,-0.5"/>
<text text-anchor="middle" x="1913" y="-7.5" font-family="Helvetica,sans-Serif" font-size="10.00">mutex</text>
</a>
</g>
</g>
<!-- Node3&#45;&gt;Node24 -->
<g id="edge23" class="edge">
<title>Node3&#45;&gt;Node24</title>
<path fill="none" stroke="midnightblue" d="M1394.21,-63.91C1497.27,-61.28 1700.49,-52.3 1880.85,-19.85"/>
<polygon fill="midnightblue" stroke="midnightblue" points="1881.57,-23.27 1890.78,-18.03 1880.31,-16.39 1881.57,-23.27"/>
</g>
<!-- Node25 -->
<g id="node25" class="node">
<title>Node25</title>
<g id="a_node25"><a xlink:title=" ">
<polygon fill="none" stroke="#bfbfbf" points="1953.5,-0.5 1953.5,-19.5 1996.5,-19.5 1996.5,-0.5 1953.5,-0.5"/>
<text text-anchor="middle" x="1975" y="-7.5" font-family="Helvetica,sans-Serif" font-size="10.00">queue</text>
</a>
</g>
</g>
<!-- Node3&#45;&gt;Node25 -->
<g id="edge24" class="edge">
<title>Node3&#45;&gt;Node25</title>
<path fill="none" stroke="midnightblue" d="M1394.22,-64.69C1506.38,-63.17 1738.68,-55.74 1943.42,-19.68"/>
<polygon fill="midnightblue" stroke="midnightblue" points="1944.23,-23.09 1953.46,-17.88 1943,-16.2 1944.23,-23.09"/>
</g>
<!-- Node26 -->
<g id="node26" class="node">
<title>Node26</title>
<g id="a_node26"><a xlink:title=" ">
<polygon fill="none" stroke="#bfbfbf" points="2014.5,-0.5 2014.5,-19.5 2049.5,-19.5 2049.5,-0.5 2014.5,-0.5"/>
<text text-anchor="middle" x="2032" y="-7.5" font-family="Helvetica,sans-Serif" font-size="10.00">map</text>
</a>
</g>
</g>
<!-- Node3&#45;&gt;Node26 -->
<g id="edge25" class="edge">
<title>Node3&#45;&gt;Node26</title>
<path fill="none" stroke="midnightblue" d="M1394.19,-62.83C1538.04,-57.81 1872.78,-44.13 2004.41,-19.76"/>
<polygon fill="midnightblue" stroke="midnightblue" points="2005.13,-23.19 2014.27,-17.84 2003.79,-16.32 2005.13,-23.19"/>
</g>
<!-- Node27&#45;&gt;Node2 -->
<g id="edge27" class="edge">
<title>Node27&#45;&gt;Node2</title>
<path fill="none" stroke="midnightblue" d="M1170.22,-179.48C1197.2,-170.7 1240,-156.79 1274.06,-145.71"/>
<polygon fill="midnightblue" stroke="midnightblue" points="1275.44,-148.94 1283.87,-142.52 1273.28,-142.29 1275.44,-148.94"/>
</g>
<!-- Node28&#45;&gt;Node2 -->
<g id="edge29" class="edge">
<title>Node28&#45;&gt;Node2</title>
<path fill="none" stroke="midnightblue" d="M676.72,-648.46C490.77,-636.82 0,-599.65 0,-531.5 0,-531.5 0,-531.5 0,-244 0,-207 18.98,-195.68 52,-179 105.63,-151.91 984.26,-134.46 1250.89,-129.77"/>
<polygon fill="midnightblue" stroke="midnightblue" points="1251.31,-133.27 1261.24,-129.59 1251.19,-126.27 1251.31,-133.27"/>
</g>
<!-- Node29 -->
<g id="node29" class="node">
<title>Node29</title>
<g id="a_node29"><a xlink:href="$d3/d2c/a00764.html" xlink:title=" ">
<polygon fill="none" stroke="black" points="616.5,-582.5 616.5,-601.5 771.5,-601.5 771.5,-582.5 616.5,-582.5"/>
<text text-anchor="middle" x="694" y="-589.5" font-family="Helvetica,sans-Serif" font-size="10.00">discordcoreapi/UserEntities.hpp</text>
</a>
</g>
</g>
<!-- Node28&#45;&gt;Node29 -->
<g id="edge30" class="edge">
<title>Node28&#45;&gt;Node29</title>
<path fill="none" stroke="midnightblue" d="M734.44,-638.4C726.66,-629.66 716.64,-618.41 708.52,-609.3"/>
<polygon fill="midnightblue" stroke="midnightblue" points="710.98,-606.8 701.71,-601.66 705.75,-611.45 710.98,-606.8"/>
</g>
<!-- Node37 -->
<g id="node37" class="node">
<title>Node37</title>
<g id="a_node37"><a xlink:href="$db/d7c/a00722.html" xlink:title=" ">
<polygon fill="none" stroke="black" points="737.5,-291.5 737.5,-310.5 862.5,-310.5 862.5,-291.5 737.5,-291.5"/>
<text text-anchor="middle" x="800" y="-298.5" font-family="Helvetica,sans-Serif" font-size="10.00">discordcoreapi/Https.hpp</text>
</a>
</g>
</g>
<!-- Node28&#45;&gt;Node37 -->
<g id="edge67" class="edge">
<title>Node28&#45;&gt;Node37</title>
<path fill="none" stroke="midnightblue" d="M757.73,-638.48C773.21,-616.79 800,-573.24 800,-531.5 800,-531.5 800,-531.5 800,-412 800,-379.95 800,-342.64 800,-320.75"/>
<polygon fill="midnightblue" stroke="midnightblue" points="803.5,-320.56 800,-310.56 796.5,-320.56 803.5,-320.56"/>
</g>
<!-- Node29&#45;&gt;Node2 -->
<g id="edge31" class="edge">
<title>Node29&#45;&gt;Node2</title>
<path fill="none" stroke="midnightblue" d="M616.5,-584.73C442.91,-569.65 38,-528.23 38,-470 38,-470 38,-470 38,-244 38,-207.82 54.96,-195.8 87,-179 138.64,-151.93 989.67,-134.53 1251.17,-129.8"/>
<polygon fill="midnightblue" stroke="midnightblue" points="1251.4,-133.3 1261.33,-129.62 1251.27,-126.3 1251.4,-133.3"/>
</g>
<!-- Node30 -->
<g id="node30" class="node">
<title>Node30</title>
<g id="a_node30"><a xlink:href="$d9/dd4/a00776.html" xlink:title=" ">
<polygon fill="none" stroke="black" points="1260,-515.5 1260,-545.5 1394,-545.5 1394,-515.5 1260,-515.5"/>
<text text-anchor="start" x="1268" y="-533.5" font-family="Helvetica,sans-Serif" font-size="10.00">discordcoreapi/WebSocket</text>
<text text-anchor="middle" x="1327" y="-522.5" font-family="Helvetica,sans-Serif" font-size="10.00">Entities.hpp</text>
</a>
</g>
</g>
<!-- Node29&#45;&gt;Node30 -->
<g id="edge32" class="edge">
<title>Node29&#45;&gt;Node30</title>
<path fill="none" stroke="midnightblue" d="M771.62,-583.7C893.48,-572.25 1128.3,-550.18 1249.86,-538.75"/>
<polygon fill="midnightblue" stroke="midnightblue" points="1250.21,-542.23 1259.84,-537.81 1249.55,-535.26 1250.21,-542.23"/>
</g>
<!-- Node30&#45;&gt;Node2 -->
<g id="edge33" class="edge">
<title>Node30&#45;&gt;Node2</title>
<path fill="none" stroke="midnightblue" d="M1334.87,-515.41C1346,-494.13 1365,-452.21 1365,-414 1365,-414 1365,-414 1365,-244 1365,-210.72 1350.59,-174.62 1339.51,-151.8"/>
<polygon fill="midnightblue" stroke="midnightblue" points="1342.5,-149.95 1334.87,-142.59 1336.25,-153.1 1342.5,-149.95"/>
</g>
<!-- Node30&#45;&gt;Node27 -->
<g id="edge64" class="edge">
<title>Node30&#45;&gt;Node27</title>
<path fill="none" stroke="midnightblue" d="M1259.85,-522C1202.09,-514.22 1124.59,-500.2 1102,-479 1080.05,-458.41 1083,-444.1 1083,-414 1083,-414 1083,-414 1083,-300 1083,-262.57 1110.34,-225.96 1128.41,-205.84"/>
<polygon fill="midnightblue" stroke="midnightblue" points="1130.99,-208.21 1135.26,-198.51 1125.88,-203.43 1130.99,-208.21"/>
</g>
<!-- Node31 -->
<g id="node31" class="node">
<title>Node31</title>
<g id="a_node31"><a xlink:href="$d4/d9b/a00680.html" xlink:title=" ">
<polygon fill="none" stroke="black" points="1443,-235.5 1443,-254.5 1605,-254.5 1605,-235.5 1443,-235.5"/>
<text text-anchor="middle" x="1524" y="-242.5" font-family="Helvetica,sans-Serif" font-size="10.00">discordcoreapi/AudioDecoder.hpp</text>
</a>
</g>
</g>
<!-- Node30&#45;&gt;Node31 -->
<g id="edge34" class="edge">
<title>Node30&#45;&gt;Node31</title>
<path fill="none" stroke="midnightblue" d="M1394.11,-516.74C1445.49,-503.07 1512.98,-475.78 1546,-423 1577.7,-372.33 1549.09,-297.44 1533.09,-263.66"/>
<polygon fill="midnightblue" stroke="midnightblue" points="1536.17,-261.99 1528.61,-254.57 1529.89,-265.09 1536.17,-261.99"/>
</g>
<!-- Node34 -->
<g id="node34" class="node">
<title>Node34</title>
<g id="a_node34"><a xlink:href="$d0/db6/a00692.html" xlink:title=" ">
<polygon fill="none" stroke="black" points="1111.5,-459.5 1111.5,-478.5 1298.5,-478.5 1298.5,-459.5 1111.5,-459.5"/>
<text text-anchor="middle" x="1205" y="-466.5" font-family="Helvetica,sans-Serif" font-size="10.00">discordcoreapi/CommandController.hpp</text>
</a>
</g>
</g>
<!-- Node30&#45;&gt;Node34 -->
<g id="edge39" class="edge">
<title>Node30&#45;&gt;Node34</title>
<path fill="none" stroke="midnightblue" d="M1298.09,-515.4C1277.98,-505.59 1251.38,-492.62 1231.76,-483.05"/>
<polygon fill="midnightblue" stroke="midnightblue" points="1233.27,-479.9 1222.75,-478.66 1230.21,-486.19 1233.27,-479.9"/>
</g>
<!-- Node36 -->
<g id="node36" class="node">
<title>Node36</title>
<g id="a_node36"><a xlink:href="$d3/d4f/a00761.html" xlink:title=" ">
<polygon fill="none" stroke="black" points="1149,-347.5 1149,-366.5 1299,-366.5 1299,-347.5 1149,-347.5"/>
<text text-anchor="middle" x="1224" y="-354.5" font-family="Helvetica,sans-Serif" font-size="10.00">discordcoreapi/ThreadPool.hpp</text>
</a>
</g>
</g>
<!-- Node30&#45;&gt;Node36 -->
<g id="edge66" class="edge">
<title>Node30&#45;&gt;Node36</title>
<path fill="none" stroke="midnightblue" d="M1326.87,-515.32C1325.94,-499.47 1321.99,-474.05 1307,-459 1266.2,-418.04 1216.77,-469.19 1182,-423 1169.62,-406.55 1187.12,-386.49 1203.16,-373.05"/>
<polygon fill="midnightblue" stroke="midnightblue" points="1205.56,-375.61 1211.25,-366.68 1201.23,-370.12 1205.56,-375.61"/>
</g>
<!-- Node38 -->
<g id="node38" class="node">
<title>Node38</title>
<g id="a_node38"><a xlink:href="$d5/de8/a00749.html" xlink:title=" ">
<polygon fill="none" stroke="black" points="553,-235.5 553,-254.5 703,-254.5 703,-235.5 553,-235.5"/>
<text text-anchor="middle" x="628" y="-242.5" font-family="Helvetica,sans-Serif" font-size="10.00">discordcoreapi/SSLClients.hpp</text>
</a>
</g>
</g>
<!-- Node30&#45;&gt;Node38 -->
<g id="edge65" class="edge">
<title>Node30&#45;&gt;Node38</title>
<path fill="none" stroke="midnightblue" d="M1259.88,-523.8C1193.29,-516.86 1097.2,-503 1069,-479 1045.55,-459.04 1045,-444.8 1045,-414 1045,-414 1045,-414 1045,-356 1045,-288 835.06,-261.12 713.1,-251.24"/>
<polygon fill="midnightblue" stroke="midnightblue" points="713.28,-247.74 703.03,-250.45 712.73,-254.72 713.28,-247.74"/>
</g>
<!-- Node52 -->
<g id="node52" class="node">
<title>Node52</title>
<g id="a_node52"><a xlink:href="$dd/d57/a00701.html" xlink:title=" ">
<polygon fill="none" stroke="black" points="1393,-403.5 1393,-422.5 1537,-422.5 1537,-403.5 1393,-403.5"/>
<text text-anchor="middle" x="1465" y="-410.5" font-family="Helvetica,sans-Serif" font-size="10.00">discordcoreapi/ErlPacker.hpp</text>
</a>
</g>
</g>
<!-- Node30&#45;&gt;Node52 -->
<g id="edge62" class="edge">
<title>Node30&#45;&gt;Node52</title>
<path fill="none" stroke="midnightblue" d="M1343.92,-515.34C1370.03,-493.49 1419.92,-451.73 1446.79,-429.24"/>
<polygon fill="midnightblue" stroke="midnightblue" points="1449.22,-431.77 1454.64,-422.67 1444.73,-426.4 1449.22,-431.77"/>
</g>
<!-- Node31&#45;&gt;Node2 -->
<g id="edge36" class="edge">
<title>Node31&#45;&gt;Node2</title>
<path fill="none" stroke="midnightblue" d="M1510.24,-235.43C1489.96,-222.85 1450.78,-198.73 1417,-179 1398.86,-168.4 1378.45,-156.92 1361.66,-147.58"/>
<polygon fill="midnightblue" stroke="midnightblue" points="1363.18,-144.42 1352.74,-142.63 1359.79,-150.54 1363.18,-144.42"/>
</g>
<!-- Node31&#45;&gt;Node27 -->
<g id="edge35" class="edge">
<title>Node31&#45;&gt;Node27</title>
<path fill="none" stroke="midnightblue" d="M1463.79,-235.44C1395.97,-225.81 1285.89,-210.16 1214.22,-199.98"/>
<polygon fill="midnightblue" stroke="midnightblue" points="1214.32,-196.46 1203.93,-198.52 1213.34,-203.39 1214.32,-196.46"/>
</g>
<!-- Node32 -->
<g id="node32" class="node">
<title>Node32</title>
<g id="a_node32"><a xlink:title=" ">
<polygon fill="none" stroke="#bfbfbf" points="1469,-179.5 1469,-198.5 1579,-198.5 1579,-179.5 1469,-179.5"/>
<text text-anchor="middle" x="1524" y="-186.5" font-family="Helvetica,sans-Serif" font-size="10.00">libavformat/avformat.h</text>
</a>
</g>
</g>
<!-- Node31&#45;&gt;Node32 -->
<g id="edge37" class="edge">
<title>Node31&#45;&gt;Node32</title>
<path fill="none" stroke="midnightblue" d="M1524,-235.08C1524,-228.01 1524,-217.86 1524,-208.99"/>
<polygon fill="midnightblue" stroke="midnightblue" points="1527.5,-208.75 1524,-198.75 1520.5,-208.75 1527.5,-208.75"/>
</g>
<!-- Node33 -->
<g id="node33" class="node">
<title>Node33</title>
<g id="a_node33"><a xlink:title=" ">
<polygon fill="none" stroke="#bfbfbf" points="1597.5,-179.5 1597.5,-198.5 1738.5,-198.5 1738.5,-179.5 1597.5,-179.5"/>
<text text-anchor="middle" x="1668" y="-186.5" font-family="Helvetica,sans-Serif" font-size="10.00">libswresample/swresample.h</text>
</a>
</g>
</g>
<!-- Node31&#45;&gt;Node33 -->
<g id="edge38" class="edge">
<title>Node31&#45;&gt;Node33</title>
<path fill="none" stroke="midnightblue" d="M1546.82,-235.44C1570.83,-226.44 1608.83,-212.19 1635.87,-202.05"/>
<polygon fill="midnightblue" stroke="midnightblue" points="1637.16,-205.3 1645.29,-198.52 1634.7,-198.75 1637.16,-205.3"/>
</g>
<!-- Node34&#45;&gt;Node2 -->
<g id="edge40" class="edge">
<title>Node34&#45;&gt;Node2</title>
<path fill="none" stroke="midnightblue" d="M1194.41,-459.33C1172.22,-440.04 1124.16,-391.73 1140,-347 1171,-259.45 1255.68,-183.77 1299.66,-148.93"/>
<polygon fill="midnightblue" stroke="midnightblue" points="1301.9,-151.62 1307.63,-142.71 1297.6,-146.11 1301.9,-151.62"/>
</g>
<!-- Node35 -->
<g id="node35" class="node">
<title>Node35</title>
<g id="a_node35"><a xlink:href="$d5/d5b/a00695.html" xlink:title=" ">
<polygon fill="none" stroke="black" points="1191,-403.5 1191,-422.5 1337,-422.5 1337,-403.5 1191,-403.5"/>
<text text-anchor="middle" x="1264" y="-410.5" font-family="Helvetica,sans-Serif" font-size="10.00">discordcoreapi/CoRoutine.hpp</text>
</a>
</g>
</g>
<!-- Node34&#45;&gt;Node35 -->
<g id="edge41" class="edge">
<title>Node34&#45;&gt;Node35</title>
<path fill="none" stroke="midnightblue" d="M1214.48,-459.32C1223.2,-451.34 1236.34,-439.31 1246.9,-429.65"/>
<polygon fill="midnightblue" stroke="midnightblue" points="1249.33,-432.17 1254.35,-422.83 1244.61,-427 1249.33,-432.17"/>
</g>
<!-- Node35&#45;&gt;Node2 -->
<g id="edge42" class="edge">
<title>Node35&#45;&gt;Node2</title>
<path fill="none" stroke="midnightblue" d="M1275.34,-403.18C1285.31,-394.86 1299.5,-381.52 1308,-367 1323.2,-341.02 1327,-332.1 1327,-302 1327,-302 1327,-302 1327,-244 1327,-212.49 1327,-176.16 1327,-152.78"/>
<polygon fill="midnightblue" stroke="midnightblue" points="1330.5,-152.72 1327,-142.72 1323.5,-152.72 1330.5,-152.72"/>
</g>
<!-- Node35&#45;&gt;Node36 -->
<g id="edge43" class="edge">
<title>Node35&#45;&gt;Node36</title>
<path fill="none" stroke="midnightblue" d="M1257.39,-403.08C1251.74,-395.46 1243.46,-384.26 1236.55,-374.94"/>
<polygon fill="midnightblue" stroke="midnightblue" points="1239.25,-372.7 1230.48,-366.75 1233.62,-376.87 1239.25,-372.7"/>
</g>
<!-- Node36&#45;&gt;Node2 -->
<g id="edge44" class="edge">
<title>Node36&#45;&gt;Node2</title>
<path fill="none" stroke="midnightblue" d="M1224.33,-347.34C1225.03,-334.65 1227.22,-310.4 1234,-291 1252.74,-237.38 1289.23,-181.24 1310.51,-151.01"/>
<polygon fill="midnightblue" stroke="midnightblue" points="1313.37,-153.02 1316.33,-142.84 1307.67,-148.95 1313.37,-153.02"/>
</g>
<!-- Node36&#45;&gt;Node37 -->
<g id="edge45" class="edge">
<title>Node36&#45;&gt;Node37</title>
<path fill="none" stroke="midnightblue" d="M1156.82,-347.44C1079.34,-337.58 952.42,-321.41 872.69,-311.26"/>
<polygon fill="midnightblue" stroke="midnightblue" points="873.09,-307.78 862.72,-309.99 872.2,-314.72 873.09,-307.78"/>
</g>
<!-- Node51 -->
<g id="node51" class="node">
<title>Node51</title>
<g id="a_node51"><a xlink:title=" ">
<polygon fill="none" stroke="#bfbfbf" points="1243,-291.5 1243,-310.5 1299,-310.5 1299,-291.5 1243,-291.5"/>
<text text-anchor="middle" x="1271" y="-298.5" font-family="Helvetica,sans-Serif" font-size="10.00">coroutine</text>
</a>
</g>
</g>
<!-- Node36&#45;&gt;Node51 -->
<g id="edge61" class="edge">
<title>Node36&#45;&gt;Node51</title>
<path fill="none" stroke="midnightblue" d="M1231.76,-347.08C1238.54,-339.3 1248.54,-327.8 1256.76,-318.37"/>
<polygon fill="midnightblue" stroke="midnightblue" points="1259.46,-320.59 1263.38,-310.75 1254.18,-316 1259.46,-320.59"/>
</g>
<!-- Node37&#45;&gt;Node38 -->
<g id="edge46" class="edge">
<title>Node37&#45;&gt;Node38</title>
<path fill="none" stroke="midnightblue" d="M772.75,-291.44C743.56,-282.28 697.08,-267.69 664.69,-257.52"/>
<polygon fill="midnightblue" stroke="midnightblue" points="665.72,-254.17 655.13,-254.52 663.62,-260.85 665.72,-254.17"/>
</g>
<!-- Node38&#45;&gt;Node2 -->
<g id="edge47" class="edge">
<title>Node38&#45;&gt;Node2</title>
<path fill="none" stroke="midnightblue" d="M552.83,-243.16C413.24,-240.83 125.34,-232.01 95,-199 88.98,-192.46 88.84,-185.41 95,-179 135.14,-137.18 989.36,-129.98 1251.31,-128.75"/>
<polygon fill="midnightblue" stroke="midnightblue" points="1251.5,-132.25 1261.49,-128.7 1251.47,-125.25 1251.5,-132.25"/>
</g>
<!-- Node38&#45;&gt;Node27 -->
<g id="edge48" class="edge">
<title>Node38&#45;&gt;Node27</title>
<path fill="none" stroke="midnightblue" d="M703.03,-236.15C796.26,-226.39 955.17,-209.76 1054.61,-199.35"/>
<polygon fill="midnightblue" stroke="midnightblue" points="1055.06,-202.83 1064.64,-198.31 1054.33,-195.87 1055.06,-202.83"/>
</g>
<!-- Node39 -->
<g id="node39" class="node">
<title>Node39</title>
<g id="a_node39"><a xlink:title=" ">
<polygon fill="none" stroke="#bfbfbf" points="881.5,-179.5 881.5,-198.5 954.5,-198.5 954.5,-179.5 881.5,-179.5"/>
<text text-anchor="middle" x="918" y="-186.5" font-family="Helvetica,sans-Serif" font-size="10.00">openssl/err.h</text>
</a>
</g>
</g>
<!-- Node38&#45;&gt;Node39 -->
<g id="edge49" class="edge">
<title>Node38&#45;&gt;Node39</title>
<path fill="none" stroke="midnightblue" d="M675.26,-235.44C722.32,-226.88 796.9,-213.22 871.33,-199.11"/>
<polygon fill="midnightblue" stroke="midnightblue" points="872.18,-202.51 881.35,-197.21 870.87,-195.64 872.18,-202.51"/>
</g>
<!-- Node40 -->
<g id="node40" class="node">
<title>Node40</title>
<g id="a_node40"><a xlink:title=" ">
<polygon fill="none" stroke="#bfbfbf" points="973,-179.5 973,-198.5 1047,-198.5 1047,-179.5 973,-179.5"/>
<text text-anchor="middle" x="1010" y="-186.5" font-family="Helvetica,sans-Serif" font-size="10.00">openssl/ssl.h</text>
</a>
</g>
</g>
<!-- Node38&#45;&gt;Node40 -->
<g id="edge50" class="edge">
<title>Node38&#45;&gt;Node40</title>
<path fill="none" stroke="midnightblue" d="M700.05,-235.5C765.76,-227.48 865.74,-214.6 962.84,-198.94"/>
<polygon fill="midnightblue" stroke="midnightblue" points="963.52,-202.37 972.83,-197.31 962.4,-195.46 963.52,-202.37"/>
</g>
<!-- Node41 -->
<g id="node41" class="node">
<title>Node41</title>
<g id="a_node41"><a xlink:title=" ">
<polygon fill="none" stroke="#bfbfbf" points="104.5,-179.5 104.5,-198.5 147.5,-198.5 147.5,-179.5 104.5,-179.5"/>
<text text-anchor="middle" x="126" y="-186.5" font-family="Helvetica,sans-Serif" font-size="10.00">fcntl.h</text>
</a>
</g>
</g>
<!-- Node38&#45;&gt;Node41 -->
<g id="edge51" class="edge">
<title>Node38&#45;&gt;Node41</title>
<path fill="none" stroke="midnightblue" d="M552.96,-241.39C461.4,-237.19 301.91,-226.6 157.44,-198.94"/>
<polygon fill="midnightblue" stroke="midnightblue" points="157.99,-195.48 147.5,-197 156.65,-202.35 157.99,-195.48"/>
</g>
<!-- Node42 -->
<g id="node42" class="node">
<title>Node42</title>
<g id="a_node42"><a xlink:title=" ">
<polygon fill="none" stroke="#bfbfbf" points="165.5,-179.5 165.5,-198.5 214.5,-198.5 214.5,-179.5 165.5,-179.5"/>
<text text-anchor="middle" x="190" y="-186.5" font-family="Helvetica,sans-Serif" font-size="10.00">netdb.h</text>
</a>
</g>
</g>
<!-- Node38&#45;&gt;Node42 -->
<g id="edge52" class="edge">
<title>Node38&#45;&gt;Node42</title>
<path fill="none" stroke="midnightblue" d="M552.83,-239.16C473.36,-233.26 344.27,-221.41 224.82,-199.11"/>
<polygon fill="midnightblue" stroke="midnightblue" points="225.25,-195.62 214.77,-197.2 223.94,-202.5 225.25,-195.62"/>
</g>
<!-- Node43 -->
<g id="node43" class="node">
<title>Node43</title>
<g id="a_node43"><a xlink:title=" ">
<polygon fill="none" stroke="#bfbfbf" points="232.5,-179.5 232.5,-198.5 297.5,-198.5 297.5,-179.5 232.5,-179.5"/>
<text text-anchor="middle" x="265" y="-186.5" font-family="Helvetica,sans-Serif" font-size="10.00">netinet/in.h</text>
</a>
</g>
</g>
<!-- Node38&#45;&gt;Node43 -->
<g id="edge53" class="edge">
<title>Node38&#45;&gt;Node43</title>
<path fill="none" stroke="midnightblue" d="M555.49,-235.49C492.36,-227.71 398.19,-215.21 307.52,-199.17"/>
<polygon fill="midnightblue" stroke="midnightblue" points="308.09,-195.71 297.63,-197.4 306.86,-202.6 308.09,-195.71"/>
</g>
<!-- Node44 -->
<g id="node44" class="node">
<title>Node44</title>
<g id="a_node44"><a xlink:title=" ">
<polygon fill="none" stroke="#bfbfbf" points="315.5,-179.5 315.5,-198.5 386.5,-198.5 386.5,-179.5 315.5,-179.5"/>
<text text-anchor="middle" x="351" y="-186.5" font-family="Helvetica,sans-Serif" font-size="10.00">netinet/tcp.h</text>
</a>
</g>
</g>
<!-- Node38&#45;&gt;Node44 -->
<g id="edge54" class="edge">
<title>Node38&#45;&gt;Node44</title>
<path fill="none" stroke="midnightblue" d="M582.87,-235.44C538.02,-226.89 467,-213.27 396.48,-199.28"/>
<polygon fill="midnightblue" stroke="midnightblue" points="397.03,-195.82 386.53,-197.3 395.66,-202.69 397.03,-195.82"/>
</g>
<!-- Node45 -->
<g id="node45" class="node">
<title>Node45</title>
<g id="a_node45"><a xlink:title=" ">
<polygon fill="none" stroke="#bfbfbf" points="404.5,-179.5 404.5,-198.5 453.5,-198.5 453.5,-179.5 404.5,-179.5"/>
<text text-anchor="middle" x="429" y="-186.5" font-family="Helvetica,sans-Serif" font-size="10.00">stdint.h</text>
</a>
</g>
</g>
<!-- Node38&#45;&gt;Node45 -->
<g id="edge55" class="edge">
<title>Node38&#45;&gt;Node45</title>
<path fill="none" stroke="midnightblue" d="M596.47,-235.44C560.3,-225.63 501.19,-209.59 463.74,-199.43"/>
<polygon fill="midnightblue" stroke="midnightblue" points="464.35,-195.97 453.78,-196.73 462.52,-202.72 464.35,-195.97"/>
</g>
<!-- Node46 -->
<g id="node46" class="node">
<title>Node46</title>
<g id="a_node46"><a xlink:title=" ">
<polygon fill="none" stroke="#bfbfbf" points="472,-179.5 472,-198.5 536,-198.5 536,-179.5 472,-179.5"/>
<text text-anchor="middle" x="504" y="-186.5" font-family="Helvetica,sans-Serif" font-size="10.00">sys/epoll.h</text>
</a>
</g>
</g>
<!-- Node38&#45;&gt;Node46 -->
<g id="edge56" class="edge">
<title>Node38&#45;&gt;Node46</title>
<path fill="none" stroke="midnightblue" d="M608.35,-235.44C588.04,-226.6 556.1,-212.69 532.9,-202.59"/>
<polygon fill="midnightblue" stroke="midnightblue" points="534.12,-199.3 523.56,-198.52 531.33,-205.72 534.12,-199.3"/>
</g>
<!-- Node47 -->
<g id="node47" class="node">
<title>Node47</title>
<g id="a_node47"><a xlink:title=" ">
<polygon fill="none" stroke="#bfbfbf" points="554,-179.5 554,-198.5 616,-198.5 616,-179.5 554,-179.5"/>
<text text-anchor="middle" x="585" y="-186.5" font-family="Helvetica,sans-Serif" font-size="10.00">arpa/inet.h</text>
</a>
</g>
</g>
<!-- Node38&#45;&gt;Node47 -->
<g id="edge57" class="edge">
<title>Node38&#45;&gt;Node47</title>
<path fill="none" stroke="midnightblue" d="M620.9,-235.08C614.76,-227.38 605.73,-216.03 598.26,-206.65"/>
<polygon fill="midnightblue" stroke="midnightblue" points="600.94,-204.39 591.97,-198.75 595.46,-208.75 600.94,-204.39"/>
</g>
<!-- Node48 -->
<g id="node48" class="node">
<title>Node48</title>
<g id="a_node48"><a xlink:title=" ">
<polygon fill="none" stroke="#bfbfbf" points="634.5,-179.5 634.5,-198.5 707.5,-198.5 707.5,-179.5 634.5,-179.5"/>
<text text-anchor="middle" x="671" y="-186.5" font-family="Helvetica,sans-Serif" font-size="10.00">sys/socket.h</text>
</a>
</g>
</g>
<!-- Node38&#45;&gt;Node48 -->
<g id="edge58" class="edge">
<title>Node38&#45;&gt;Node48</title>
<path fill="none" stroke="midnightblue" d="M635.1,-235.08C641.24,-227.38 650.27,-216.03 657.74,-206.65"/>
<polygon fill="midnightblue" stroke="midnightblue" points="660.54,-208.75 664.03,-198.75 655.06,-204.39 660.54,-208.75"/>
</g>
<!-- Node49 -->
<g id="node49" class="node">
<title>Node49</title>
<g id="a_node49"><a xlink:title=" ">
<polygon fill="none" stroke="#bfbfbf" points="726,-179.5 726,-198.5 794,-198.5 794,-179.5 726,-179.5"/>
<text text-anchor="middle" x="760" y="-186.5" font-family="Helvetica,sans-Serif" font-size="10.00">sys/types.h</text>
</a>
</g>
</g>
<!-- Node38&#45;&gt;Node49 -->
<g id="edge59" class="edge">
<title>Node38&#45;&gt;Node49</title>
<path fill="none" stroke="midnightblue" d="M648.92,-235.44C670.74,-226.52 705.15,-212.44 729.89,-202.32"/>
<polygon fill="midnightblue" stroke="midnightblue" points="731.25,-205.54 739.18,-198.52 728.6,-199.06 731.25,-205.54"/>
</g>
<!-- Node50 -->
<g id="node50" class="node">
<title>Node50</title>
<g id="a_node50"><a xlink:title=" ">
<polygon fill="none" stroke="#bfbfbf" points="812.5,-179.5 812.5,-198.5 863.5,-198.5 863.5,-179.5 812.5,-179.5"/>
<text text-anchor="middle" x="838" y="-186.5" font-family="Helvetica,sans-Serif" font-size="10.00">unistd.h</text>
</a>
</g>
</g>
<!-- Node38&#45;&gt;Node50 -->
<g id="edge60" class="edge">
<title>Node38&#45;&gt;Node50</title>
<path fill="none" stroke="midnightblue" d="M661.28,-235.44C699.9,-225.51 763.31,-209.21 802.75,-199.06"/>
<polygon fill="midnightblue" stroke="midnightblue" points="803.66,-202.44 812.48,-196.56 801.92,-195.66 803.66,-202.44"/>
</g>
<!-- Node52&#45;&gt;Node2 -->
<g id="edge63" class="edge">
<title>Node52&#45;&gt;Node2</title>
<path fill="none" stroke="midnightblue" d="M1455.85,-403.25C1438.61,-385.77 1403,-344.53 1403,-302 1403,-302 1403,-302 1403,-244 1403,-213.2 1395.8,-204.81 1379,-179 1371.92,-168.12 1362.11,-157.81 1352.91,-149.38"/>
<polygon fill="midnightblue" stroke="midnightblue" points="1355.22,-146.75 1345.4,-142.77 1350.59,-152 1355.22,-146.75"/>
</g>
<!-- Node53&#45;&gt;Node2 -->
<g id="edge69" class="edge">
<title>Node53&#45;&gt;Node2</title>
<path fill="none" stroke="midnightblue" d="M1743.16,-582.49C1795.36,-575.63 1855.14,-564.09 1874,-546 1899.12,-521.9 1893,-504.82 1893,-470 1893,-470 1893,-470 1893,-244 1893,-145.17 1557.5,-130.06 1403.11,-128.33"/>
<polygon fill="midnightblue" stroke="midnightblue" points="1402.79,-124.83 1392.76,-128.23 1402.72,-131.83 1402.79,-124.83"/>
</g>
<!-- Node53&#45;&gt;Node30 -->
<g id="edge74" class="edge">
<title>Node53&#45;&gt;Node30</title>
<path fill="none" stroke="midnightblue" d="M1608.86,-582.48C1555.4,-572.81 1467.42,-556.9 1403.97,-545.42"/>
<polygon fill="midnightblue" stroke="midnightblue" points="1404.47,-541.95 1394,-543.62 1403.22,-548.84 1404.47,-541.95"/>
</g>
<!-- Node53&#45;&gt;Node35 -->
<g id="edge73" class="edge">
<title>Node53&#45;&gt;Node35</title>
<path fill="none" stroke="midnightblue" d="M1637.09,-582.46C1573.72,-553.85 1368.53,-461.2 1292.6,-426.91"/>
<polygon fill="midnightblue" stroke="midnightblue" points="1293.73,-423.58 1283.18,-422.66 1290.85,-429.96 1293.73,-423.58"/>
</g>
<!-- Node54 -->
<g id="node54" class="node">
<title>Node54</title>
<g id="a_node54"><a xlink:href="$db/d77/a00683.html" xlink:title=" ">
<polygon fill="none" stroke="black" points="1629,-521 1629,-540 1791,-540 1791,-521 1629,-521"/>
<text text-anchor="middle" x="1710" y="-528" font-family="Helvetica,sans-Serif" font-size="10.00">discordcoreapi/AudioEncoder.hpp</text>
</a>
</g>
</g>
<!-- Node53&#45;&gt;Node54 -->
<g id="edge70" class="edge">
<title>Node53&#45;&gt;Node54</title>
<path fill="none" stroke="midnightblue" d="M1663.74,-582.48C1672,-573.37 1685.28,-558.74 1695.49,-547.48"/>
<polygon fill="midnightblue" stroke="midnightblue" points="1698.15,-549.77 1702.28,-540.01 1692.97,-545.06 1698.15,-549.77"/>
</g>
<!-- Node56 -->
<g id="node56" class="node">
<title>Node56</title>
<g id="a_node56"><a xlink:title=" ">
<polygon fill="none" stroke="#bfbfbf" points="1809,-521 1809,-540 1865,-540 1865,-521 1809,-521"/>
<text text-anchor="middle" x="1837" y="-528" font-family="Helvetica,sans-Serif" font-size="10.00">sodium.h</text>
</a>
</g>
</g>
<!-- Node53&#45;&gt;Node56 -->
<g id="edge75" class="edge">
<title>Node53&#45;&gt;Node56</title>
<path fill="none" stroke="midnightblue" d="M1685.43,-582.47C1714.68,-573.83 1760.71,-559.82 1800,-546 1802.12,-545.26 1804.29,-544.47 1806.47,-543.66"/>
<polygon fill="midnightblue" stroke="midnightblue" points="1807.87,-546.87 1815.96,-540.04 1805.37,-540.33 1807.87,-546.87"/>
</g>
<!-- Node54&#45;&gt;Node2 -->
<g id="edge71" class="edge">
<title>Node54&#45;&gt;Node2</title>
<path fill="none" stroke="midnightblue" d="M1717.69,-520.94C1733.25,-502.7 1767,-458.05 1767,-414 1767,-414 1767,-414 1767,-244 1767,-213.77 1770.2,-198.38 1747,-179 1696.29,-136.64 1509.35,-128.88 1402.76,-128.01"/>
<polygon fill="midnightblue" stroke="midnightblue" points="1402.72,-124.51 1392.7,-127.94 1402.68,-131.51 1402.72,-124.51"/>
</g>
<!-- Node55 -->
<g id="node55" class="node">
<title>Node55</title>
<g id="a_node55"><a xlink:title=" ">
<polygon fill="none" stroke="#bfbfbf" points="1795,-459.5 1795,-478.5 1865,-478.5 1865,-459.5 1795,-459.5"/>
<text text-anchor="middle" x="1830" y="-466.5" font-family="Helvetica,sans-Serif" font-size="10.00">opus/opus.h</text>
</a>
</g>
</g>
<!-- Node54&#45;&gt;Node55 -->
<g id="edge72" class="edge">
<title>Node54&#45;&gt;Node55</title>
<path fill="none" stroke="midnightblue" d="M1727.19,-520.98C1747.24,-511.03 1780.6,-494.49 1803.86,-482.96"/>
<polygon fill="midnightblue" stroke="midnightblue" points="1805.43,-486.09 1812.84,-478.51 1802.32,-479.82 1805.43,-486.09"/>
</g>
</g>
</svg>
