<?xml version="1.0" encoding="UTF-8" standalone="no"?>
<!DOCTYPE svg PUBLIC "-//W3C//DTD SVG 1.1//EN"
 "http://www.w3.org/Graphics/SVG/1.1/DTD/svg11.dtd">
<!-- Generated by graphviz version 3.0.0 (20220226.1711)
 -->
<!-- Title: SongAPI.hpp Pages: 1 -->
<svg width="2098pt" height="733pt"
 viewBox="0.00 0.00 2097.50 733.00" xmlns="http://www.w3.org/2000/svg" xmlns:xlink="http://www.w3.org/1999/xlink">
<g id="graph0" class="graph" transform="scale(1 1) rotate(0) translate(4 729)">
<title>SongAPI.hpp</title>
<!-- Node1 -->
<g id="node1" class="node">
<title>Node1</title>
<g id="a_node1"><a xlink:title=" ">
<polygon fill="#bfbfbf" stroke="black" points="994,-705.5 994,-724.5 1068,-724.5 1068,-705.5 994,-705.5"/>
<text text-anchor="middle" x="1031" y="-712.5" font-family="Helvetica,sans-Serif" font-size="10.00">SongAPI.hpp</text>
</a>
</g>
</g>
<!-- Node2 -->
<g id="node2" class="node">
<title>Node2</title>
<g id="a_node2"><a xlink:href="../../d4/deb/a00710.html" target="_top" xlink:title=" ">
<polygon fill="none" stroke="black" points="1261.5,-112.5 1261.5,-142.5 1392.5,-142.5 1392.5,-112.5 1261.5,-112.5"/>
<text text-anchor="start" x="1269.5" y="-130.5" font-family="Helvetica,sans-Serif" font-size="10.00">discordcoreapi/Foundation</text>
<text text-anchor="middle" x="1327" y="-119.5" font-family="Helvetica,sans-Serif" font-size="10.00">Entities.hpp</text>
</a>
</g>
</g>
<!-- Node1&#45;&gt;Node2 -->
<g id="edge1" class="edge">
<title>Node1&#45;&gt;Node2</title>
<path fill="none" stroke="midnightblue" d="M1068.2,-712.71C1232.38,-706.51 1884,-676.67 1884,-593 1884,-593 1884,-593 1884,-244 1884,-146.86 1555.06,-130.81 1402.75,-128.59"/>
<polygon fill="midnightblue" stroke="midnightblue" points="1402.58,-125.08 1392.53,-128.45 1402.49,-132.08 1402.58,-125.08"/>
</g>
<!-- Node28 -->
<g id="node28" class="node">
<title>Node28</title>
<g id="a_node28"><a xlink:href="../../d4/d6a/a00704.html" target="_top" xlink:title=" ">
<polygon fill="none" stroke="black" points="1103,-179.5 1103,-198.5 1261,-198.5 1261,-179.5 1103,-179.5"/>
<text text-anchor="middle" x="1182" y="-186.5" font-family="Helvetica,sans-Serif" font-size="10.00">discordcoreapi/EventEntities.hpp</text>
</a>
</g>
</g>
<!-- Node1&#45;&gt;Node28 -->
<g id="edge27" class="edge">
<title>Node1&#45;&gt;Node28</title>
<path fill="none" stroke="midnightblue" d="M993.63,-713.78C869.84,-712.04 481,-698.22 481,-593 481,-593 481,-593 481,-412 481,-343.84 968.85,-234.91 1130.59,-200.66"/>
<polygon fill="midnightblue" stroke="midnightblue" points="1131.7,-204 1140.77,-198.51 1130.26,-197.15 1131.7,-204"/>
</g>
<!-- Node29 -->
<g id="node29" class="node">
<title>Node29</title>
<g id="a_node29"><a xlink:href="../../d2/d94/a00716.html" target="_top" xlink:title=" ">
<polygon fill="none" stroke="black" points="59,-638.5 59,-668.5 199,-668.5 199,-638.5 59,-638.5"/>
<text text-anchor="start" x="67" y="-656.5" font-family="Helvetica,sans-Serif" font-size="10.00">discordcoreapi/GuildMember</text>
<text text-anchor="middle" x="129" y="-645.5" font-family="Helvetica,sans-Serif" font-size="10.00">Entities.hpp</text>
</a>
</g>
</g>
<!-- Node1&#45;&gt;Node29 -->
<g id="edge29" class="edge">
<title>Node1&#45;&gt;Node29</title>
<path fill="none" stroke="midnightblue" d="M993.96,-711.56C859.76,-702.7 397.08,-672.18 209.22,-659.79"/>
<polygon fill="midnightblue" stroke="midnightblue" points="209.35,-656.29 199.14,-659.13 208.89,-663.28 209.35,-656.29"/>
</g>
<!-- Node53 -->
<g id="node53" class="node">
<title>Node53</title>
<g id="a_node53"><a xlink:href="../../d0/d7e/a00770.html" target="_top" xlink:title=" ">
<polygon fill="none" stroke="black" points="1440.5,-582.5 1440.5,-601.5 1615.5,-601.5 1615.5,-582.5 1440.5,-582.5"/>
<text text-anchor="middle" x="1528" y="-589.5" font-family="Helvetica,sans-Serif" font-size="10.00">discordcoreapi/VoiceConnection.hpp</text>
</a>
</g>
</g>
<!-- Node1&#45;&gt;Node53 -->
<g id="edge68" class="edge">
<title>Node1&#45;&gt;Node53</title>
<path fill="none" stroke="midnightblue" d="M1065.95,-705.49C1153.98,-684.06 1384.77,-627.87 1482.86,-603.99"/>
<polygon fill="midnightblue" stroke="midnightblue" points="1483.87,-607.35 1492.76,-601.58 1482.21,-600.54 1483.87,-607.35"/>
</g>
<!-- Node3 -->
<g id="node3" class="node">
<title>Node3</title>
<g id="a_node3"><a xlink:href="../../d5/dae/a00767.html" target="_top" xlink:title=" ">
<polygon fill="none" stroke="black" points="1260,-56.5 1260,-75.5 1394,-75.5 1394,-56.5 1260,-56.5"/>
<text text-anchor="middle" x="1327" y="-63.5" font-family="Helvetica,sans-Serif" font-size="10.00">discordcoreapi/Utilities.hpp</text>
</a>
</g>
</g>
<!-- Node2&#45;&gt;Node3 -->
<g id="edge2" class="edge">
<title>Node2&#45;&gt;Node3</title>
<path fill="none" stroke="midnightblue" d="M1327,-112.4C1327,-104.47 1327,-94.46 1327,-85.86"/>
<polygon fill="midnightblue" stroke="midnightblue" points="1330.5,-85.66 1327,-75.66 1323.5,-85.66 1330.5,-85.66"/>
</g>
<!-- Node4 -->
<g id="node4" class="node">
<title>Node4</title>
<g id="a_node4"><a xlink:title=" ">
<polygon fill="none" stroke="#bfbfbf" points="299.5,-0.5 299.5,-19.5 356.5,-19.5 356.5,-0.5 299.5,-0.5"/>
<text text-anchor="middle" x="328" y="-7.5" font-family="Helvetica,sans-Serif" font-size="10.00">pthread.h</text>
</a>
</g>
</g>
<!-- Node3&#45;&gt;Node4 -->
<g id="edge3" class="edge">
<title>Node3&#45;&gt;Node4</title>
<path fill="none" stroke="midnightblue" d="M1259.87,-63.48C1074.58,-59.03 557.65,-44.84 366.47,-19.72"/>
<polygon fill="midnightblue" stroke="midnightblue" points="366.91,-16.24 356.53,-18.36 365.96,-23.18 366.91,-16.24"/>
</g>
<!-- Node5 -->
<g id="node5" class="node">
<title>Node5</title>
<g id="a_node5"><a xlink:title=" ">
<polygon fill="none" stroke="#bfbfbf" points="375,-0.5 375,-19.5 437,-19.5 437,-0.5 375,-0.5"/>
<text text-anchor="middle" x="406" y="-7.5" font-family="Helvetica,sans-Serif" font-size="10.00">sys/time.h</text>
</a>
</g>
</g>
<!-- Node3&#45;&gt;Node5 -->
<g id="edge4" class="edge">
<title>Node3&#45;&gt;Node5</title>
<path fill="none" stroke="midnightblue" d="M1259.77,-65.45C1113.49,-65.6 755.37,-61.41 447.37,-19.95"/>
<polygon fill="midnightblue" stroke="midnightblue" points="447.73,-16.47 437.35,-18.58 446.79,-23.4 447.73,-16.47"/>
</g>
<!-- Node6 -->
<g id="node6" class="node">
<title>Node6</title>
<g id="a_node6"><a xlink:title=" ">
<polygon fill="none" stroke="#bfbfbf" points="455,-0.5 455,-19.5 499,-19.5 499,-0.5 455,-0.5"/>
<text text-anchor="middle" x="477" y="-7.5" font-family="Helvetica,sans-Serif" font-size="10.00">time.h</text>
</a>
</g>
</g>
<!-- Node3&#45;&gt;Node6 -->
<g id="edge5" class="edge">
<title>Node3&#45;&gt;Node6</title>
<path fill="none" stroke="midnightblue" d="M1259.97,-63.21C1095,-58.49 671.62,-44.52 509.53,-19.58"/>
<polygon fill="midnightblue" stroke="midnightblue" points="509.67,-16.06 499.24,-17.93 508.55,-22.97 509.67,-16.06"/>
</g>
<!-- Node7 -->
<g id="node7" class="node">
<title>Node7</title>
<g id="a_node7"><a xlink:title=" ">
<polygon fill="none" stroke="#bfbfbf" points="517.5,-0.5 517.5,-19.5 558.5,-19.5 558.5,-0.5 517.5,-0.5"/>
<text text-anchor="middle" x="538" y="-7.5" font-family="Helvetica,sans-Serif" font-size="10.00">ctime</text>
</a>
</g>
</g>
<!-- Node3&#45;&gt;Node7 -->
<g id="edge6" class="edge">
<title>Node3&#45;&gt;Node7</title>
<path fill="none" stroke="midnightblue" d="M1259.84,-63.02C1103.48,-58.09 717.77,-44.02 568.42,-19.54"/>
<polygon fill="midnightblue" stroke="midnightblue" points="568.95,-16.08 558.5,-17.84 567.77,-22.98 568.95,-16.08"/>
</g>
<!-- Node8 -->
<g id="node8" class="node">
<title>Node8</title>
<g id="a_node8"><a xlink:title=" ">
<polygon fill="none" stroke="#bfbfbf" points="576.5,-0.5 576.5,-19.5 669.5,-19.5 669.5,-0.5 576.5,-0.5"/>
<text text-anchor="middle" x="623" y="-7.5" font-family="Helvetica,sans-Serif" font-size="10.00">condition_variable</text>
</a>
</g>
</g>
<!-- Node3&#45;&gt;Node8 -->
<g id="edge7" class="edge">
<title>Node3&#45;&gt;Node8</title>
<path fill="none" stroke="midnightblue" d="M1259.65,-62.32C1143.48,-57.27 897.77,-44.64 679.74,-19.97"/>
<polygon fill="midnightblue" stroke="midnightblue" points="680.04,-16.49 669.71,-18.83 679.25,-23.44 680.04,-16.49"/>
</g>
<!-- Node9 -->
<g id="node9" class="node">
<title>Node9</title>
<g id="a_node9"><a xlink:title=" ">
<polygon fill="none" stroke="#bfbfbf" points="688,-0.5 688,-19.5 786,-19.5 786,-0.5 688,-0.5"/>
<text text-anchor="middle" x="737" y="-7.5" font-family="Helvetica,sans-Serif" font-size="10.00">nlohmann/json.hpp</text>
</a>
</g>
</g>
<!-- Node3&#45;&gt;Node9 -->
<g id="edge8" class="edge">
<title>Node3&#45;&gt;Node9</title>
<path fill="none" stroke="midnightblue" d="M1259.8,-60.75C1160.8,-54.17 969.75,-40.25 796.3,-19.95"/>
<polygon fill="midnightblue" stroke="midnightblue" points="796.56,-16.46 786.22,-18.76 795.74,-23.41 796.56,-16.46"/>
</g>
<!-- Node10 -->
<g id="node10" class="node">
<title>Node10</title>
<g id="a_node10"><a xlink:title=" ">
<polygon fill="none" stroke="#bfbfbf" points="804.5,-0.5 804.5,-19.5 889.5,-19.5 889.5,-0.5 804.5,-0.5"/>
<text text-anchor="middle" x="847" y="-7.5" font-family="Helvetica,sans-Serif" font-size="10.00">source_location</text>
</a>
</g>
</g>
<!-- Node3&#45;&gt;Node10 -->
<g id="edge9" class="edge">
<title>Node3&#45;&gt;Node10</title>
<path fill="none" stroke="midnightblue" d="M1259.74,-59.32C1177.37,-52.06 1033.35,-38.35 899.56,-19.99"/>
<polygon fill="midnightblue" stroke="midnightblue" points="899.92,-16.5 889.53,-18.6 898.96,-23.44 899.92,-16.5"/>
</g>
<!-- Node11 -->
<g id="node11" class="node">
<title>Node11</title>
<g id="a_node11"><a xlink:title=" ">
<polygon fill="none" stroke="#bfbfbf" points="907.5,-0.5 907.5,-19.5 990.5,-19.5 990.5,-0.5 907.5,-0.5"/>
<text text-anchor="middle" x="949" y="-7.5" font-family="Helvetica,sans-Serif" font-size="10.00">unordered_map</text>
</a>
</g>
</g>
<!-- Node3&#45;&gt;Node11 -->
<g id="edge10" class="edge">
<title>Node3&#45;&gt;Node11</title>
<path fill="none" stroke="midnightblue" d="M1259.88,-56.52C1195.96,-48.27 1096.79,-35.03 1000.89,-20.09"/>
<polygon fill="midnightblue" stroke="midnightblue" points="1001.15,-16.59 990.73,-18.5 1000.06,-23.5 1001.15,-16.59"/>
</g>
<!-- Node12 -->
<g id="node12" class="node">
<title>Node12</title>
<g id="a_node12"><a xlink:title=" ">
<polygon fill="none" stroke="#bfbfbf" points="1009,-0.5 1009,-19.5 1087,-19.5 1087,-0.5 1009,-0.5"/>
<text text-anchor="middle" x="1048" y="-7.5" font-family="Helvetica,sans-Serif" font-size="10.00">shared_mutex</text>
</a>
</g>
</g>
<!-- Node3&#45;&gt;Node12 -->
<g id="edge11" class="edge">
<title>Node3&#45;&gt;Node12</title>
<path fill="none" stroke="midnightblue" d="M1282.79,-56.44C1232.23,-46.66 1149.68,-30.68 1097.14,-20.51"/>
<polygon fill="midnightblue" stroke="midnightblue" points="1097.53,-17.02 1087.05,-18.56 1096.2,-23.89 1097.53,-17.02"/>
</g>
<!-- Node13 -->
<g id="node13" class="node">
<title>Node13</title>
<g id="a_node13"><a xlink:title=" ">
<polygon fill="none" stroke="#bfbfbf" points="1105,-0.5 1105,-19.5 1163,-19.5 1163,-0.5 1105,-0.5"/>
<text text-anchor="middle" x="1134" y="-7.5" font-family="Helvetica,sans-Serif" font-size="10.00">functional</text>
</a>
</g>
</g>
<!-- Node3&#45;&gt;Node13 -->
<g id="edge12" class="edge">
<title>Node3&#45;&gt;Node13</title>
<path fill="none" stroke="midnightblue" d="M1296.42,-56.44C1263,-47.09 1209.37,-32.09 1172.96,-21.9"/>
<polygon fill="midnightblue" stroke="midnightblue" points="1173.75,-18.49 1163.17,-19.16 1171.86,-25.23 1173.75,-18.49"/>
</g>
<!-- Node14 -->
<g id="node14" class="node">
<title>Node14</title>
<g id="a_node14"><a xlink:title=" ">
<polygon fill="none" stroke="#bfbfbf" points="1181,-0.5 1181,-19.5 1237,-19.5 1237,-0.5 1181,-0.5"/>
<text text-anchor="middle" x="1209" y="-7.5" font-family="Helvetica,sans-Serif" font-size="10.00">coroutine</text>
</a>
</g>
</g>
<!-- Node3&#45;&gt;Node14 -->
<g id="edge13" class="edge">
<title>Node3&#45;&gt;Node14</title>
<path fill="none" stroke="midnightblue" d="M1308.3,-56.44C1289.06,-47.64 1258.85,-33.81 1236.8,-23.72"/>
<polygon fill="midnightblue" stroke="midnightblue" points="1238.16,-20.5 1227.61,-19.52 1235.25,-26.86 1238.16,-20.5"/>
</g>
<!-- Node15 -->
<g id="node15" class="node">
<title>Node15</title>
<g id="a_node15"><a xlink:title=" ">
<polygon fill="none" stroke="#bfbfbf" points="1255.5,-0.5 1255.5,-19.5 1320.5,-19.5 1320.5,-0.5 1255.5,-0.5"/>
<text text-anchor="middle" x="1288" y="-7.5" font-family="Helvetica,sans-Serif" font-size="10.00">semaphore</text>
</a>
</g>
</g>
<!-- Node3&#45;&gt;Node15 -->
<g id="edge14" class="edge">
<title>Node3&#45;&gt;Node15</title>
<path fill="none" stroke="midnightblue" d="M1320.56,-56.08C1315.05,-48.46 1306.97,-37.26 1300.24,-27.94"/>
<polygon fill="midnightblue" stroke="midnightblue" points="1303.01,-25.81 1294.32,-19.75 1297.34,-29.91 1303.01,-25.81"/>
</g>
<!-- Node16 -->
<g id="node16" class="node">
<title>Node16</title>
<g id="a_node16"><a xlink:title=" ">
<polygon fill="none" stroke="#bfbfbf" points="1339,-0.5 1339,-19.5 1395,-19.5 1395,-0.5 1339,-0.5"/>
<text text-anchor="middle" x="1367" y="-7.5" font-family="Helvetica,sans-Serif" font-size="10.00">concepts</text>
</a>
</g>
</g>
<!-- Node3&#45;&gt;Node16 -->
<g id="edge15" class="edge">
<title>Node3&#45;&gt;Node16</title>
<path fill="none" stroke="midnightblue" d="M1333.61,-56.08C1339.26,-48.46 1347.54,-37.26 1354.45,-27.94"/>
<polygon fill="midnightblue" stroke="midnightblue" points="1357.38,-29.87 1360.52,-19.75 1351.75,-25.7 1357.38,-29.87"/>
</g>
<!-- Node17 -->
<g id="node17" class="node">
<title>Node17</title>
<g id="a_node17"><a xlink:title=" ">
<polygon fill="none" stroke="#bfbfbf" points="1413,-0.5 1413,-19.5 1467,-19.5 1467,-0.5 1413,-0.5"/>
<text text-anchor="middle" x="1440" y="-7.5" font-family="Helvetica,sans-Serif" font-size="10.00">iostream</text>
</a>
</g>
</g>
<!-- Node3&#45;&gt;Node17 -->
<g id="edge16" class="edge">
<title>Node3&#45;&gt;Node17</title>
<path fill="none" stroke="midnightblue" d="M1344.91,-56.44C1363.25,-47.68 1392.01,-33.94 1413.09,-23.86"/>
<polygon fill="midnightblue" stroke="midnightblue" points="1414.67,-26.99 1422.18,-19.52 1411.65,-20.67 1414.67,-26.99"/>
</g>
<!-- Node18 -->
<g id="node18" class="node">
<title>Node18</title>
<g id="a_node18"><a xlink:title=" ">
<polygon fill="none" stroke="#bfbfbf" points="1485.5,-0.5 1485.5,-19.5 1534.5,-19.5 1534.5,-0.5 1485.5,-0.5"/>
<text text-anchor="middle" x="1510" y="-7.5" font-family="Helvetica,sans-Serif" font-size="10.00">fstream</text>
</a>
</g>
</g>
<!-- Node3&#45;&gt;Node18 -->
<g id="edge17" class="edge">
<title>Node3&#45;&gt;Node18</title>
<path fill="none" stroke="midnightblue" d="M1356,-56.44C1388.47,-46.86 1441.06,-31.34 1475.59,-21.15"/>
<polygon fill="midnightblue" stroke="midnightblue" points="1476.65,-24.49 1485.25,-18.3 1474.67,-17.78 1476.65,-24.49"/>
</g>
<!-- Node19 -->
<g id="node19" class="node">
<title>Node19</title>
<g id="a_node19"><a xlink:title=" ">
<polygon fill="none" stroke="#bfbfbf" points="1552.5,-0.5 1552.5,-19.5 1593.5,-19.5 1593.5,-0.5 1552.5,-0.5"/>
<text text-anchor="middle" x="1573" y="-7.5" font-family="Helvetica,sans-Serif" font-size="10.00">bitset</text>
</a>
</g>
</g>
<!-- Node3&#45;&gt;Node19 -->
<g id="edge18" class="edge">
<title>Node3&#45;&gt;Node19</title>
<path fill="none" stroke="midnightblue" d="M1374.72,-56.48C1416.73,-48.66 1479.73,-36.2 1542.77,-20.14"/>
<polygon fill="midnightblue" stroke="midnightblue" points="1543.67,-23.52 1552.47,-17.64 1541.92,-16.75 1543.67,-23.52"/>
</g>
<!-- Node20 -->
<g id="node20" class="node">
<title>Node20</title>
<g id="a_node20"><a xlink:title=" ">
<polygon fill="none" stroke="#bfbfbf" points="1612,-0.5 1612,-19.5 1664,-19.5 1664,-0.5 1612,-0.5"/>
<text text-anchor="middle" x="1638" y="-7.5" font-family="Helvetica,sans-Serif" font-size="10.00">memory</text>
</a>
</g>
</g>
<!-- Node3&#45;&gt;Node20 -->
<g id="edge19" class="edge">
<title>Node3&#45;&gt;Node20</title>
<path fill="none" stroke="midnightblue" d="M1389.23,-56.49C1443.06,-48.75 1523.16,-36.36 1601.63,-20.14"/>
<polygon fill="midnightblue" stroke="midnightblue" points="1602.61,-23.51 1611.69,-18.04 1601.18,-16.66 1602.61,-23.51"/>
</g>
<!-- Node21 -->
<g id="node21" class="node">
<title>Node21</title>
<g id="a_node21"><a xlink:title=" ">
<polygon fill="none" stroke="#bfbfbf" points="1682.5,-0.5 1682.5,-19.5 1731.5,-19.5 1731.5,-0.5 1682.5,-0.5"/>
<text text-anchor="middle" x="1707" y="-7.5" font-family="Helvetica,sans-Serif" font-size="10.00">random</text>
</a>
</g>
</g>
<!-- Node3&#45;&gt;Node21 -->
<g id="edge20" class="edge">
<title>Node3&#45;&gt;Node21</title>
<path fill="none" stroke="midnightblue" d="M1394.07,-58.88C1461.89,-52.1 1569.85,-39.7 1672.31,-19.9"/>
<polygon fill="midnightblue" stroke="midnightblue" points="1673.06,-23.32 1682.2,-17.96 1671.72,-16.45 1673.06,-23.32"/>
</g>
<!-- Node22 -->
<g id="node22" class="node">
<title>Node22</title>
<g id="a_node22"><a xlink:title=" ">
<polygon fill="none" stroke="#bfbfbf" points="1749.5,-0.5 1749.5,-19.5 1790.5,-19.5 1790.5,-0.5 1749.5,-0.5"/>
<text text-anchor="middle" x="1770" y="-7.5" font-family="Helvetica,sans-Serif" font-size="10.00">string</text>
</a>
</g>
</g>
<!-- Node3&#45;&gt;Node22 -->
<g id="edge21" class="edge">
<title>Node3&#45;&gt;Node22</title>
<path fill="none" stroke="midnightblue" d="M1394.3,-61.68C1474.64,-56.82 1613.05,-45.63 1739.37,-20.01"/>
<polygon fill="midnightblue" stroke="midnightblue" points="1740.13,-23.42 1749.22,-17.98 1738.72,-16.57 1740.13,-23.42"/>
</g>
<!-- Node23 -->
<g id="node23" class="node">
<title>Node23</title>
<g id="a_node23"><a xlink:title=" ">
<polygon fill="none" stroke="#bfbfbf" points="1809,-0.5 1809,-19.5 1851,-19.5 1851,-0.5 1809,-0.5"/>
<text text-anchor="middle" x="1830" y="-7.5" font-family="Helvetica,sans-Serif" font-size="10.00">vector</text>
</a>
</g>
</g>
<!-- Node3&#45;&gt;Node23 -->
<g id="edge22" class="edge">
<title>Node3&#45;&gt;Node23</title>
<path fill="none" stroke="midnightblue" d="M1394.18,-62.76C1484.34,-58.84 1649.49,-48.43 1798.57,-19.91"/>
<polygon fill="midnightblue" stroke="midnightblue" points="1799.68,-23.26 1808.82,-17.91 1798.34,-16.39 1799.68,-23.26"/>
</g>
<!-- Node24 -->
<g id="node24" class="node">
<title>Node24</title>
<g id="a_node24"><a xlink:title=" ">
<polygon fill="none" stroke="#bfbfbf" points="1869,-0.5 1869,-19.5 1913,-19.5 1913,-0.5 1869,-0.5"/>
<text text-anchor="middle" x="1891" y="-7.5" font-family="Helvetica,sans-Serif" font-size="10.00">thread</text>
</a>
</g>
</g>
<!-- Node3&#45;&gt;Node24 -->
<g id="edge23" class="edge">
<title>Node3&#45;&gt;Node24</title>
<path fill="none" stroke="midnightblue" d="M1394.04,-63.59C1493.69,-60.57 1686.75,-51.11 1858.78,-19.87"/>
<polygon fill="midnightblue" stroke="midnightblue" points="1859.58,-23.28 1868.78,-18.02 1858.31,-16.4 1859.58,-23.28"/>
</g>
<!-- Node25 -->
<g id="node25" class="node">
<title>Node25</title>
<g id="a_node25"><a xlink:title=" ">
<polygon fill="none" stroke="#bfbfbf" points="1931,-0.5 1931,-19.5 1975,-19.5 1975,-0.5 1931,-0.5"/>
<text text-anchor="middle" x="1953" y="-7.5" font-family="Helvetica,sans-Serif" font-size="10.00">mutex</text>
</a>
</g>
</g>
<!-- Node3&#45;&gt;Node25 -->
<g id="edge24" class="edge">
<title>Node3&#45;&gt;Node25</title>
<path fill="none" stroke="midnightblue" d="M1394.05,-64.43C1502.99,-62.53 1725.12,-54.54 1920.89,-19.83"/>
<polygon fill="midnightblue" stroke="midnightblue" points="1921.56,-23.26 1930.78,-18.05 1920.32,-16.38 1921.56,-23.26"/>
</g>
<!-- Node26 -->
<g id="node26" class="node">
<title>Node26</title>
<g id="a_node26"><a xlink:title=" ">
<polygon fill="none" stroke="#bfbfbf" points="1993.5,-0.5 1993.5,-19.5 2036.5,-19.5 2036.5,-0.5 1993.5,-0.5"/>
<text text-anchor="middle" x="2015" y="-7.5" font-family="Helvetica,sans-Serif" font-size="10.00">queue</text>
</a>
</g>
</g>
<!-- Node3&#45;&gt;Node26 -->
<g id="edge25" class="edge">
<title>Node3&#45;&gt;Node26</title>
<path fill="none" stroke="midnightblue" d="M1394.26,-65.12C1512.04,-64.3 1763.2,-57.97 1983.33,-19.68"/>
<polygon fill="midnightblue" stroke="midnightblue" points="1984.22,-23.08 1993.46,-17.89 1983,-16.19 1984.22,-23.08"/>
</g>
<!-- Node27 -->
<g id="node27" class="node">
<title>Node27</title>
<g id="a_node27"><a xlink:title=" ">
<polygon fill="none" stroke="#bfbfbf" points="2054.5,-0.5 2054.5,-19.5 2089.5,-19.5 2089.5,-0.5 2054.5,-0.5"/>
<text text-anchor="middle" x="2072" y="-7.5" font-family="Helvetica,sans-Serif" font-size="10.00">map</text>
</a>
</g>
</g>
<!-- Node3&#45;&gt;Node27 -->
<g id="edge26" class="edge">
<title>Node3&#45;&gt;Node27</title>
<path fill="none" stroke="midnightblue" d="M1394.09,-63.12C1544.19,-58.54 1904.3,-45.43 2044.19,-19.79"/>
<polygon fill="midnightblue" stroke="midnightblue" points="2045.12,-23.18 2054.27,-17.85 2043.79,-16.31 2045.12,-23.18"/>
</g>
<!-- Node28&#45;&gt;Node2 -->
<g id="edge28" class="edge">
<title>Node28&#45;&gt;Node2</title>
<path fill="none" stroke="midnightblue" d="M1202.77,-179.48C1223.7,-170.89 1256.61,-157.38 1283.31,-146.43"/>
<polygon fill="midnightblue" stroke="midnightblue" points="1284.9,-149.56 1292.83,-142.52 1282.25,-143.08 1284.9,-149.56"/>
</g>
<!-- Node29&#45;&gt;Node2 -->
<g id="edge30" class="edge">
<title>Node29&#45;&gt;Node2</title>
<path fill="none" stroke="midnightblue" d="M95.11,-638.38C56.89,-619.93 0,-583.7 0,-531.5 0,-531.5 0,-531.5 0,-244 0,-204.98 23.65,-195.5 59,-179 166.68,-128.73 993.55,-127.32 1250.84,-128.12"/>
<polygon fill="midnightblue" stroke="midnightblue" points="1251.2,-131.63 1261.21,-128.16 1251.22,-124.63 1251.2,-131.63"/>
</g>
<!-- Node30 -->
<g id="node30" class="node">
<title>Node30</title>
<g id="a_node30"><a xlink:href="../../d3/d2c/a00764.html" target="_top" xlink:title=" ">
<polygon fill="none" stroke="black" points="104.5,-582.5 104.5,-601.5 259.5,-601.5 259.5,-582.5 104.5,-582.5"/>
<text text-anchor="middle" x="182" y="-589.5" font-family="Helvetica,sans-Serif" font-size="10.00">discordcoreapi/UserEntities.hpp</text>
</a>
</g>
</g>
<!-- Node29&#45;&gt;Node30 -->
<g id="edge31" class="edge">
<title>Node29&#45;&gt;Node30</title>
<path fill="none" stroke="midnightblue" d="M141.56,-638.4C149.34,-629.66 159.36,-618.41 167.48,-609.3"/>
<polygon fill="midnightblue" stroke="midnightblue" points="170.25,-611.45 174.29,-601.66 165.02,-606.8 170.25,-611.45"/>
</g>
<!-- Node38 -->
<g id="node38" class="node">
<title>Node38</title>
<g id="a_node38"><a xlink:href="../../db/d7c/a00722.html" target="_top" xlink:title=" ">
<polygon fill="none" stroke="black" points="527.5,-291.5 527.5,-310.5 652.5,-310.5 652.5,-291.5 527.5,-291.5"/>
<text text-anchor="middle" x="590" y="-298.5" font-family="Helvetica,sans-Serif" font-size="10.00">discordcoreapi/Https.hpp</text>
</a>
</g>
</g>
<!-- Node29&#45;&gt;Node38 -->
<g id="edge67" class="edge">
<title>Node29&#45;&gt;Node38</title>
<path fill="none" stroke="midnightblue" d="M117.52,-638.23C110.19,-628.51 100.96,-615.08 95,-602 81.53,-572.47 76,-563.95 76,-531.5 76,-531.5 76,-531.5 76,-412 76,-322.86 375.34,-305.71 517.14,-302.59"/>
<polygon fill="midnightblue" stroke="midnightblue" points="517.56,-306.08 527.49,-302.38 517.42,-299.08 517.56,-306.08"/>
</g>
<!-- Node30&#45;&gt;Node2 -->
<g id="edge32" class="edge">
<title>Node30&#45;&gt;Node2</title>
<path fill="none" stroke="midnightblue" d="M167.13,-582.39C130.34,-559.86 38,-495.21 38,-414 38,-414 38,-414 38,-244 38,-201.87 68.17,-195.35 107,-179 212.03,-134.79 1001.29,-129.22 1251.29,-128.57"/>
<polygon fill="midnightblue" stroke="midnightblue" points="1251.38,-132.07 1261.38,-128.54 1251.37,-125.07 1251.38,-132.07"/>
</g>
<!-- Node31 -->
<g id="node31" class="node">
<title>Node31</title>
<g id="a_node31"><a xlink:href="../../d9/dd4/a00776.html" target="_top" xlink:title=" ">
<polygon fill="none" stroke="black" points="1099,-515.5 1099,-545.5 1233,-545.5 1233,-515.5 1099,-515.5"/>
<text text-anchor="start" x="1107" y="-533.5" font-family="Helvetica,sans-Serif" font-size="10.00">discordcoreapi/WebSocket</text>
<text text-anchor="middle" x="1166" y="-522.5" font-family="Helvetica,sans-Serif" font-size="10.00">Entities.hpp</text>
</a>
</g>
</g>
<!-- Node30&#45;&gt;Node31 -->
<g id="edge33" class="edge">
<title>Node30&#45;&gt;Node31</title>
<path fill="none" stroke="midnightblue" d="M259.62,-586.31C443.68,-575.18 904.89,-547.29 1088.66,-536.18"/>
<polygon fill="midnightblue" stroke="midnightblue" points="1089.01,-539.66 1098.79,-535.56 1088.59,-532.67 1089.01,-539.66"/>
</g>
<!-- Node31&#45;&gt;Node2 -->
<g id="edge34" class="edge">
<title>Node31&#45;&gt;Node2</title>
<path fill="none" stroke="midnightblue" d="M1233.24,-523.56C1292.2,-516.8 1371.49,-503.38 1391,-479 1474.56,-374.6 1424.71,-300.1 1368,-179 1363.14,-168.61 1355.68,-158.52 1348.45,-150.12"/>
<polygon fill="midnightblue" stroke="midnightblue" points="1350.99,-147.71 1341.69,-142.64 1345.8,-152.4 1350.99,-147.71"/>
</g>
<!-- Node31&#45;&gt;Node28 -->
<g id="edge64" class="edge">
<title>Node31&#45;&gt;Node28</title>
<path fill="none" stroke="midnightblue" d="M1156.46,-515.25C1143.25,-494.1 1121,-452.74 1121,-414 1121,-414 1121,-414 1121,-300 1121,-262.57 1148.34,-225.96 1166.41,-205.84"/>
<polygon fill="midnightblue" stroke="midnightblue" points="1168.99,-208.21 1173.26,-198.51 1163.88,-203.43 1168.99,-208.21"/>
</g>
<!-- Node32 -->
<g id="node32" class="node">
<title>Node32</title>
<g id="a_node32"><a xlink:href="../../d4/d9b/a00680.html" target="_top" xlink:title=" ">
<polygon fill="none" stroke="black" points="1431,-235.5 1431,-254.5 1593,-254.5 1593,-235.5 1431,-235.5"/>
<text text-anchor="middle" x="1512" y="-242.5" font-family="Helvetica,sans-Serif" font-size="10.00">discordcoreapi/AudioDecoder.hpp</text>
</a>
</g>
</g>
<!-- Node31&#45;&gt;Node32 -->
<g id="edge35" class="edge">
<title>Node31&#45;&gt;Node32</title>
<path fill="none" stroke="midnightblue" d="M1233.17,-524.72C1286.77,-518.96 1362.74,-506.37 1424,-479 1467.74,-459.45 1510,-461.91 1510,-414 1510,-414 1510,-414 1510,-356 1510,-323.94 1510.86,-286.64 1511.45,-264.75"/>
<polygon fill="midnightblue" stroke="midnightblue" points="1514.96,-264.65 1511.74,-254.56 1507.96,-264.45 1514.96,-264.65"/>
</g>
<!-- Node35 -->
<g id="node35" class="node">
<title>Node35</title>
<g id="a_node35"><a xlink:href="../../d0/db6/a00692.html" target="_top" xlink:title=" ">
<polygon fill="none" stroke="black" points="1194.5,-459.5 1194.5,-478.5 1381.5,-478.5 1381.5,-459.5 1194.5,-459.5"/>
<text text-anchor="middle" x="1288" y="-466.5" font-family="Helvetica,sans-Serif" font-size="10.00">discordcoreapi/CommandController.hpp</text>
</a>
</g>
</g>
<!-- Node31&#45;&gt;Node35 -->
<g id="edge40" class="edge">
<title>Node31&#45;&gt;Node35</title>
<path fill="none" stroke="midnightblue" d="M1194.91,-515.4C1215.02,-505.59 1241.62,-492.62 1261.24,-483.05"/>
<polygon fill="midnightblue" stroke="midnightblue" points="1262.79,-486.19 1270.25,-478.66 1259.73,-479.9 1262.79,-486.19"/>
</g>
<!-- Node37 -->
<g id="node37" class="node">
<title>Node37</title>
<g id="a_node37"><a xlink:href="../../d3/d4f/a00761.html" target="_top" xlink:title=" ">
<polygon fill="none" stroke="black" points="1149,-347.5 1149,-366.5 1299,-366.5 1299,-347.5 1149,-347.5"/>
<text text-anchor="middle" x="1224" y="-354.5" font-family="Helvetica,sans-Serif" font-size="10.00">discordcoreapi/ThreadPool.hpp</text>
</a>
</g>
</g>
<!-- Node31&#45;&gt;Node37 -->
<g id="edge66" class="edge">
<title>Node31&#45;&gt;Node37</title>
<path fill="none" stroke="midnightblue" d="M1167.41,-515.32C1170.17,-491.36 1177.51,-441.69 1194,-403 1198.23,-393.08 1204.69,-383.01 1210.54,-374.92"/>
<polygon fill="midnightblue" stroke="midnightblue" points="1213.49,-376.82 1216.73,-366.73 1207.91,-372.6 1213.49,-376.82"/>
</g>
<!-- Node39 -->
<g id="node39" class="node">
<title>Node39</title>
<g id="a_node39"><a xlink:href="../../d5/de8/a00749.html" target="_top" xlink:title=" ">
<polygon fill="none" stroke="black" points="521,-235.5 521,-254.5 671,-254.5 671,-235.5 521,-235.5"/>
<text text-anchor="middle" x="596" y="-242.5" font-family="Helvetica,sans-Serif" font-size="10.00">discordcoreapi/SSLClients.hpp</text>
</a>
</g>
</g>
<!-- Node31&#45;&gt;Node39 -->
<g id="edge65" class="edge">
<title>Node31&#45;&gt;Node39</title>
<path fill="none" stroke="midnightblue" d="M1098.82,-527.43C965.66,-521.49 681,-498.88 681,-414 681,-414 681,-414 681,-356 681,-325.9 679.69,-315.35 662,-291 652.26,-277.6 637.25,-266.91 623.99,-259.31"/>
<polygon fill="midnightblue" stroke="midnightblue" points="625.65,-256.23 615.19,-254.56 622.32,-262.39 625.65,-256.23"/>
</g>
<!-- Node52 -->
<g id="node52" class="node">
<title>Node52</title>
<g id="a_node52"><a xlink:href="../../dd/d57/a00701.html" target="_top" xlink:title=" ">
<polygon fill="none" stroke="black" points="509,-403.5 509,-422.5 653,-422.5 653,-403.5 509,-403.5"/>
<text text-anchor="middle" x="581" y="-410.5" font-family="Helvetica,sans-Serif" font-size="10.00">discordcoreapi/ErlPacker.hpp</text>
</a>
</g>
</g>
<!-- Node31&#45;&gt;Node52 -->
<g id="edge62" class="edge">
<title>Node31&#45;&gt;Node52</title>
<path fill="none" stroke="midnightblue" d="M1098.95,-527.19C981.57,-522.4 744,-509.22 667,-479 639.11,-468.05 612.47,-445.38 596.42,-429.92"/>
<polygon fill="midnightblue" stroke="midnightblue" points="598.61,-427.16 589.05,-422.6 593.68,-432.13 598.61,-427.16"/>
</g>
<!-- Node32&#45;&gt;Node2 -->
<g id="edge37" class="edge">
<title>Node32&#45;&gt;Node2</title>
<path fill="none" stroke="midnightblue" d="M1500.23,-235.45C1482.5,-222.67 1447.73,-198.08 1417,-179 1399.41,-168.07 1379.35,-156.72 1362.64,-147.55"/>
<polygon fill="midnightblue" stroke="midnightblue" points="1364.2,-144.41 1353.74,-142.7 1360.85,-150.56 1364.2,-144.41"/>
</g>
<!-- Node32&#45;&gt;Node28 -->
<g id="edge36" class="edge">
<title>Node32&#45;&gt;Node28</title>
<path fill="none" stroke="midnightblue" d="M1459.71,-235.44C1401.18,-225.87 1306.4,-210.36 1244.13,-200.17"/>
<polygon fill="midnightblue" stroke="midnightblue" points="1244.48,-196.68 1234.04,-198.52 1243.35,-203.59 1244.48,-196.68"/>
</g>
<!-- Node33 -->
<g id="node33" class="node">
<title>Node33</title>
<g id="a_node33"><a xlink:title=" ">
<polygon fill="none" stroke="#bfbfbf" points="1629,-179.5 1629,-198.5 1739,-198.5 1739,-179.5 1629,-179.5"/>
<text text-anchor="middle" x="1684" y="-186.5" font-family="Helvetica,sans-Serif" font-size="10.00">libavformat/avformat.h</text>
</a>
</g>
</g>
<!-- Node32&#45;&gt;Node33 -->
<g id="edge38" class="edge">
<title>Node32&#45;&gt;Node33</title>
<path fill="none" stroke="midnightblue" d="M1539.25,-235.44C1568.44,-226.28 1614.92,-211.69 1647.31,-201.52"/>
<polygon fill="midnightblue" stroke="midnightblue" points="1648.38,-204.85 1656.87,-198.52 1646.28,-198.17 1648.38,-204.85"/>
</g>
<!-- Node34 -->
<g id="node34" class="node">
<title>Node34</title>
<g id="a_node34"><a xlink:title=" ">
<polygon fill="none" stroke="#bfbfbf" points="1469.5,-179.5 1469.5,-198.5 1610.5,-198.5 1610.5,-179.5 1469.5,-179.5"/>
<text text-anchor="middle" x="1540" y="-186.5" font-family="Helvetica,sans-Serif" font-size="10.00">libswresample/swresample.h</text>
</a>
</g>
</g>
<!-- Node32&#45;&gt;Node34 -->
<g id="edge39" class="edge">
<title>Node32&#45;&gt;Node34</title>
<path fill="none" stroke="midnightblue" d="M1516.62,-235.08C1520.46,-227.69 1526.02,-216.95 1530.76,-207.81"/>
<polygon fill="midnightblue" stroke="midnightblue" points="1533.97,-209.24 1535.46,-198.75 1527.75,-206.02 1533.97,-209.24"/>
</g>
<!-- Node35&#45;&gt;Node2 -->
<g id="edge41" class="edge">
<title>Node35&#45;&gt;Node2</title>
<path fill="none" stroke="midnightblue" d="M1269.11,-459.42C1246.17,-447.74 1212.24,-425.71 1227,-403 1248.47,-369.97 1282.07,-396.66 1308,-367 1327.81,-344.34 1327,-332.1 1327,-302 1327,-302 1327,-302 1327,-244 1327,-212.49 1327,-176.16 1327,-152.78"/>
<polygon fill="midnightblue" stroke="midnightblue" points="1330.5,-152.72 1327,-142.72 1323.5,-152.72 1330.5,-152.72"/>
</g>
<!-- Node36 -->
<g id="node36" class="node">
<title>Node36</title>
<g id="a_node36"><a xlink:href="../../d5/d5b/a00695.html" target="_top" xlink:title=" ">
<polygon fill="none" stroke="black" points="1236,-403.5 1236,-422.5 1382,-422.5 1382,-403.5 1236,-403.5"/>
<text text-anchor="middle" x="1309" y="-410.5" font-family="Helvetica,sans-Serif" font-size="10.00">discordcoreapi/CoRoutine.hpp</text>
</a>
</g>
</g>
<!-- Node35&#45;&gt;Node36 -->
<g id="edge42" class="edge">
<title>Node35&#45;&gt;Node36</title>
<path fill="none" stroke="midnightblue" d="M1291.47,-459.08C1294.31,-451.77 1298.43,-441.18 1301.96,-432.1"/>
<polygon fill="midnightblue" stroke="midnightblue" points="1305.23,-433.34 1305.6,-422.75 1298.71,-430.8 1305.23,-433.34"/>
</g>
<!-- Node36&#45;&gt;Node2 -->
<g id="edge43" class="edge">
<title>Node36&#45;&gt;Node2</title>
<path fill="none" stroke="midnightblue" d="M1317.02,-403.36C1332.51,-385.74 1365,-343.79 1365,-302 1365,-302 1365,-302 1365,-244 1365,-210.72 1350.59,-174.62 1339.51,-151.8"/>
<polygon fill="midnightblue" stroke="midnightblue" points="1342.5,-149.95 1334.87,-142.59 1336.25,-153.1 1342.5,-149.95"/>
</g>
<!-- Node36&#45;&gt;Node37 -->
<g id="edge44" class="edge">
<title>Node36&#45;&gt;Node37</title>
<path fill="none" stroke="midnightblue" d="M1295.34,-403.32C1282.08,-394.9 1261.73,-381.97 1246.15,-372.07"/>
<polygon fill="midnightblue" stroke="midnightblue" points="1247.94,-369.06 1237.62,-366.65 1244.19,-374.97 1247.94,-369.06"/>
</g>
<!-- Node37&#45;&gt;Node2 -->
<g id="edge45" class="edge">
<title>Node37&#45;&gt;Node2</title>
<path fill="none" stroke="midnightblue" d="M1227.91,-347.36C1242.49,-315.16 1293.95,-201.49 1316.4,-151.91"/>
<polygon fill="midnightblue" stroke="midnightblue" points="1319.67,-153.18 1320.61,-142.62 1313.29,-150.29 1319.67,-153.18"/>
</g>
<!-- Node37&#45;&gt;Node38 -->
<g id="edge46" class="edge">
<title>Node37&#45;&gt;Node38</title>
<path fill="none" stroke="midnightblue" d="M1148.78,-349.59C1026.08,-339.14 784.37,-318.56 663.07,-308.22"/>
<polygon fill="midnightblue" stroke="midnightblue" points="663.04,-304.71 652.78,-307.35 662.44,-311.68 663.04,-304.71"/>
</g>
<!-- Node38&#45;&gt;Node39 -->
<g id="edge47" class="edge">
<title>Node38&#45;&gt;Node39</title>
<path fill="none" stroke="midnightblue" d="M590.99,-291.08C591.79,-283.93 592.93,-273.64 593.92,-264.69"/>
<polygon fill="midnightblue" stroke="midnightblue" points="597.4,-265.08 595.03,-254.75 590.44,-264.3 597.4,-265.08"/>
</g>
<!-- Node39&#45;&gt;Node2 -->
<g id="edge48" class="edge">
<title>Node39&#45;&gt;Node2</title>
<path fill="none" stroke="midnightblue" d="M520.75,-242.11C396.25,-238.2 158.51,-227.11 133,-199 127.03,-192.42 126.85,-185.42 133,-179 171.74,-138.58 994.24,-130.42 1251.08,-128.85"/>
<polygon fill="midnightblue" stroke="midnightblue" points="1251.45,-132.35 1261.43,-128.79 1251.41,-125.35 1251.45,-132.35"/>
</g>
<!-- Node39&#45;&gt;Node28 -->
<g id="edge49" class="edge">
<title>Node39&#45;&gt;Node28</title>
<path fill="none" stroke="midnightblue" d="M671.11,-237.49C766.53,-229.16 936.57,-214.1 1092.59,-199.13"/>
<polygon fill="midnightblue" stroke="midnightblue" points="1093.23,-202.58 1102.85,-198.14 1092.56,-195.61 1093.23,-202.58"/>
</g>
<!-- Node40 -->
<g id="node40" class="node">
<title>Node40</title>
<g id="a_node40"><a xlink:title=" ">
<polygon fill="none" stroke="#bfbfbf" points="1011.5,-179.5 1011.5,-198.5 1084.5,-198.5 1084.5,-179.5 1011.5,-179.5"/>
<text text-anchor="middle" x="1048" y="-186.5" font-family="Helvetica,sans-Serif" font-size="10.00">openssl/err.h</text>
</a>
</g>
</g>
<!-- Node39&#45;&gt;Node40 -->
<g id="edge50" class="edge">
<title>Node39&#45;&gt;Node40</title>
<path fill="none" stroke="midnightblue" d="M671.27,-237.66C750.92,-230.5 880.46,-217.59 1001.06,-199.19"/>
<polygon fill="midnightblue" stroke="midnightblue" points="1001.86,-202.61 1011.21,-197.63 1000.79,-195.69 1001.86,-202.61"/>
</g>
<!-- Node41 -->
<g id="node41" class="node">
<title>Node41</title>
<g id="a_node41"><a xlink:title=" ">
<polygon fill="none" stroke="#bfbfbf" points="142,-179.5 142,-198.5 216,-198.5 216,-179.5 142,-179.5"/>
<text text-anchor="middle" x="179" y="-186.5" font-family="Helvetica,sans-Serif" font-size="10.00">openssl/ssl.h</text>
</a>
</g>
</g>
<!-- Node39&#45;&gt;Node41 -->
<g id="edge51" class="edge">
<title>Node39&#45;&gt;Node41</title>
<path fill="none" stroke="midnightblue" d="M520.68,-236.36C448.03,-228.65 334.76,-215.71 226.3,-198.94"/>
<polygon fill="midnightblue" stroke="midnightblue" points="226.58,-195.44 216.16,-197.36 225.5,-202.36 226.58,-195.44"/>
</g>
<!-- Node42 -->
<g id="node42" class="node">
<title>Node42</title>
<g id="a_node42"><a xlink:title=" ">
<polygon fill="none" stroke="#bfbfbf" points="234.5,-179.5 234.5,-198.5 277.5,-198.5 277.5,-179.5 234.5,-179.5"/>
<text text-anchor="middle" x="256" y="-186.5" font-family="Helvetica,sans-Serif" font-size="10.00">fcntl.h</text>
</a>
</g>
</g>
<!-- Node39&#45;&gt;Node42 -->
<g id="edge52" class="edge">
<title>Node39&#45;&gt;Node42</title>
<path fill="none" stroke="midnightblue" d="M520.87,-236C460.31,-228.87 372.85,-217.07 287.45,-198.82"/>
<polygon fill="midnightblue" stroke="midnightblue" points="288.1,-195.38 277.58,-196.68 286.61,-202.22 288.1,-195.38"/>
</g>
<!-- Node43 -->
<g id="node43" class="node">
<title>Node43</title>
<g id="a_node43"><a xlink:title=" ">
<polygon fill="none" stroke="#bfbfbf" points="295.5,-179.5 295.5,-198.5 344.5,-198.5 344.5,-179.5 295.5,-179.5"/>
<text text-anchor="middle" x="320" y="-186.5" font-family="Helvetica,sans-Serif" font-size="10.00">netdb.h</text>
</a>
</g>
</g>
<!-- Node39&#45;&gt;Node43 -->
<g id="edge53" class="edge">
<title>Node39&#45;&gt;Node43</title>
<path fill="none" stroke="midnightblue" d="M543.84,-235.46C496.88,-227.52 425.78,-214.84 354.84,-199.05"/>
<polygon fill="midnightblue" stroke="midnightblue" points="355.35,-195.58 344.83,-196.8 353.82,-202.41 355.35,-195.58"/>
</g>
<!-- Node44 -->
<g id="node44" class="node">
<title>Node44</title>
<g id="a_node44"><a xlink:title=" ">
<polygon fill="none" stroke="#bfbfbf" points="362.5,-179.5 362.5,-198.5 427.5,-198.5 427.5,-179.5 362.5,-179.5"/>
<text text-anchor="middle" x="395" y="-186.5" font-family="Helvetica,sans-Serif" font-size="10.00">netinet/in.h</text>
</a>
</g>
</g>
<!-- Node39&#45;&gt;Node44 -->
<g id="edge54" class="edge">
<title>Node39&#45;&gt;Node44</title>
<path fill="none" stroke="midnightblue" d="M564.15,-235.44C529.6,-226.16 474.32,-211.31 436.42,-201.13"/>
<polygon fill="midnightblue" stroke="midnightblue" points="437.27,-197.73 426.7,-198.52 435.45,-204.49 437.27,-197.73"/>
</g>
<!-- Node45 -->
<g id="node45" class="node">
<title>Node45</title>
<g id="a_node45"><a xlink:title=" ">
<polygon fill="none" stroke="#bfbfbf" points="445.5,-179.5 445.5,-198.5 516.5,-198.5 516.5,-179.5 445.5,-179.5"/>
<text text-anchor="middle" x="481" y="-186.5" font-family="Helvetica,sans-Serif" font-size="10.00">netinet/tcp.h</text>
</a>
</g>
</g>
<!-- Node39&#45;&gt;Node45 -->
<g id="edge55" class="edge">
<title>Node39&#45;&gt;Node45</title>
<path fill="none" stroke="midnightblue" d="M577.78,-235.44C559.1,-226.68 529.84,-212.94 508.38,-202.86"/>
<polygon fill="midnightblue" stroke="midnightblue" points="509.68,-199.6 499.14,-198.52 506.7,-205.93 509.68,-199.6"/>
</g>
<!-- Node46 -->
<g id="node46" class="node">
<title>Node46</title>
<g id="a_node46"><a xlink:title=" ">
<polygon fill="none" stroke="#bfbfbf" points="534.5,-179.5 534.5,-198.5 583.5,-198.5 583.5,-179.5 534.5,-179.5"/>
<text text-anchor="middle" x="559" y="-186.5" font-family="Helvetica,sans-Serif" font-size="10.00">stdint.h</text>
</a>
</g>
</g>
<!-- Node39&#45;&gt;Node46 -->
<g id="edge56" class="edge">
<title>Node39&#45;&gt;Node46</title>
<path fill="none" stroke="midnightblue" d="M589.89,-235.08C584.72,-227.53 577.15,-216.49 570.81,-207.23"/>
<polygon fill="midnightblue" stroke="midnightblue" points="573.54,-205.02 565,-198.75 567.76,-208.98 573.54,-205.02"/>
</g>
<!-- Node47 -->
<g id="node47" class="node">
<title>Node47</title>
<g id="a_node47"><a xlink:title=" ">
<polygon fill="none" stroke="#bfbfbf" points="602,-179.5 602,-198.5 666,-198.5 666,-179.5 602,-179.5"/>
<text text-anchor="middle" x="634" y="-186.5" font-family="Helvetica,sans-Serif" font-size="10.00">sys/epoll.h</text>
</a>
</g>
</g>
<!-- Node39&#45;&gt;Node47 -->
<g id="edge57" class="edge">
<title>Node39&#45;&gt;Node47</title>
<path fill="none" stroke="midnightblue" d="M602.27,-235.08C607.64,-227.46 615.52,-216.26 622.08,-206.94"/>
<polygon fill="midnightblue" stroke="midnightblue" points="624.95,-208.94 627.84,-198.75 619.22,-204.91 624.95,-208.94"/>
</g>
<!-- Node48 -->
<g id="node48" class="node">
<title>Node48</title>
<g id="a_node48"><a xlink:title=" ">
<polygon fill="none" stroke="#bfbfbf" points="684,-179.5 684,-198.5 746,-198.5 746,-179.5 684,-179.5"/>
<text text-anchor="middle" x="715" y="-186.5" font-family="Helvetica,sans-Serif" font-size="10.00">arpa/inet.h</text>
</a>
</g>
</g>
<!-- Node39&#45;&gt;Node48 -->
<g id="edge58" class="edge">
<title>Node39&#45;&gt;Node48</title>
<path fill="none" stroke="midnightblue" d="M614.86,-235.44C634.27,-226.64 664.73,-212.81 686.96,-202.72"/>
<polygon fill="midnightblue" stroke="midnightblue" points="688.57,-205.84 696.23,-198.52 685.68,-199.46 688.57,-205.84"/>
</g>
<!-- Node49 -->
<g id="node49" class="node">
<title>Node49</title>
<g id="a_node49"><a xlink:title=" ">
<polygon fill="none" stroke="#bfbfbf" points="764.5,-179.5 764.5,-198.5 837.5,-198.5 837.5,-179.5 764.5,-179.5"/>
<text text-anchor="middle" x="801" y="-186.5" font-family="Helvetica,sans-Serif" font-size="10.00">sys/socket.h</text>
</a>
</g>
</g>
<!-- Node39&#45;&gt;Node49 -->
<g id="edge59" class="edge">
<title>Node39&#45;&gt;Node49</title>
<path fill="none" stroke="midnightblue" d="M628.48,-235.44C663.72,-226.16 720.1,-211.31 758.76,-201.13"/>
<polygon fill="midnightblue" stroke="midnightblue" points="759.89,-204.45 768.67,-198.52 758.11,-197.68 759.89,-204.45"/>
</g>
<!-- Node50 -->
<g id="node50" class="node">
<title>Node50</title>
<g id="a_node50"><a xlink:title=" ">
<polygon fill="none" stroke="#bfbfbf" points="856,-179.5 856,-198.5 924,-198.5 924,-179.5 856,-179.5"/>
<text text-anchor="middle" x="890" y="-186.5" font-family="Helvetica,sans-Serif" font-size="10.00">sys/types.h</text>
</a>
</g>
</g>
<!-- Node39&#45;&gt;Node50 -->
<g id="edge60" class="edge">
<title>Node39&#45;&gt;Node50</title>
<path fill="none" stroke="midnightblue" d="M646.08,-235.46C694.62,-227.08 770.59,-213.72 845.65,-199.22"/>
<polygon fill="midnightblue" stroke="midnightblue" points="846.6,-202.6 855.75,-197.26 845.27,-195.73 846.6,-202.6"/>
</g>
<!-- Node51 -->
<g id="node51" class="node">
<title>Node51</title>
<g id="a_node51"><a xlink:title=" ">
<polygon fill="none" stroke="#bfbfbf" points="942.5,-179.5 942.5,-198.5 993.5,-198.5 993.5,-179.5 942.5,-179.5"/>
<text text-anchor="middle" x="968" y="-186.5" font-family="Helvetica,sans-Serif" font-size="10.00">unistd.h</text>
</a>
</g>
</g>
<!-- Node39&#45;&gt;Node51 -->
<g id="edge61" class="edge">
<title>Node39&#45;&gt;Node51</title>
<path fill="none" stroke="midnightblue" d="M671.04,-236.57C737.33,-229.41 836.76,-217.24 932.6,-198.86"/>
<polygon fill="midnightblue" stroke="midnightblue" points="933.32,-202.28 942.47,-196.94 931.98,-195.41 933.32,-202.28"/>
</g>
<!-- Node52&#45;&gt;Node2 -->
<g id="edge63" class="edge">
<title>Node52&#45;&gt;Node2</title>
<path fill="none" stroke="midnightblue" d="M518.06,-403.48C365.81,-380.57 -0.91,-310.31 125,-179 164.05,-138.27 993.78,-130.32 1251.4,-128.83"/>
<polygon fill="midnightblue" stroke="midnightblue" points="1251.43,-132.33 1261.41,-128.77 1251.39,-125.33 1251.43,-132.33"/>
</g>
<!-- Node53&#45;&gt;Node2 -->
<g id="edge69" class="edge">
<title>Node53&#45;&gt;Node2</title>
<path fill="none" stroke="midnightblue" d="M1535.37,-582.33C1580.02,-529.35 1810.29,-249.21 1748,-179 1725.53,-153.68 1517.99,-138.67 1402.94,-132.23"/>
<polygon fill="midnightblue" stroke="midnightblue" points="1402.96,-128.73 1392.78,-131.67 1402.57,-135.72 1402.96,-128.73"/>
</g>
<!-- Node53&#45;&gt;Node31 -->
<g id="edge74" class="edge">
<title>Node53&#45;&gt;Node31</title>
<path fill="none" stroke="midnightblue" d="M1476.13,-582.48C1415.2,-572.46 1313.53,-555.75 1243.3,-544.2"/>
<polygon fill="midnightblue" stroke="midnightblue" points="1243.61,-540.71 1233.17,-542.54 1242.47,-547.62 1243.61,-540.71"/>
</g>
<!-- Node53&#45;&gt;Node36 -->
<g id="edge73" class="edge">
<title>Node53&#45;&gt;Node36</title>
<path fill="none" stroke="midnightblue" d="M1520.63,-582.48C1501.12,-560.22 1445.8,-499.32 1391,-459 1374.05,-446.53 1353.25,-435.16 1336.85,-426.96"/>
<polygon fill="midnightblue" stroke="midnightblue" points="1338.27,-423.76 1327.75,-422.52 1335.2,-430.05 1338.27,-423.76"/>
</g>
<!-- Node54 -->
<g id="node54" class="node">
<title>Node54</title>
<g id="a_node54"><a xlink:href="../../db/d77/a00683.html" target="_top" xlink:title=" ">
<polygon fill="none" stroke="black" points="1620,-521 1620,-540 1782,-540 1782,-521 1620,-521"/>
<text text-anchor="middle" x="1701" y="-528" font-family="Helvetica,sans-Serif" font-size="10.00">discordcoreapi/AudioEncoder.hpp</text>
</a>
</g>
</g>
<!-- Node53&#45;&gt;Node54 -->
<g id="edge70" class="edge">
<title>Node53&#45;&gt;Node54</title>
<path fill="none" stroke="midnightblue" d="M1552.79,-582.48C1582.59,-572.22 1632.79,-554.96 1666.4,-543.4"/>
<polygon fill="midnightblue" stroke="midnightblue" points="1667.94,-546.57 1676.26,-540.01 1665.66,-539.95 1667.94,-546.57"/>
</g>
<!-- Node56 -->
<g id="node56" class="node">
<title>Node56</title>
<g id="a_node56"><a xlink:title=" ">
<polygon fill="none" stroke="#bfbfbf" points="1800,-521 1800,-540 1856,-540 1856,-521 1800,-521"/>
<text text-anchor="middle" x="1828" y="-528" font-family="Helvetica,sans-Serif" font-size="10.00">sodium.h</text>
</a>
</g>
</g>
<!-- Node53&#45;&gt;Node56 -->
<g id="edge75" class="edge">
<title>Node53&#45;&gt;Node56</title>
<path fill="none" stroke="midnightblue" d="M1601.73,-582.48C1654.94,-575.35 1728.19,-563.48 1791,-546 1793.59,-545.28 1796.25,-544.44 1798.9,-543.54"/>
<polygon fill="midnightblue" stroke="midnightblue" points="1800.11,-546.82 1808.28,-540.09 1797.69,-540.25 1800.11,-546.82"/>
</g>
<!-- Node54&#45;&gt;Node2 -->
<g id="edge71" class="edge">
<title>Node54&#45;&gt;Node2</title>
<path fill="none" stroke="midnightblue" d="M1717.71,-520.91C1747.11,-504.47 1805,-465.54 1805,-414 1805,-414 1805,-414 1805,-244 1805,-213.2 1805.25,-197.98 1781,-179 1723.86,-134.29 1516.46,-127.69 1402.8,-127.57"/>
<polygon fill="midnightblue" stroke="midnightblue" points="1402.77,-124.07 1392.77,-127.57 1402.77,-131.07 1402.77,-124.07"/>
</g>
<!-- Node55 -->
<g id="node55" class="node">
<title>Node55</title>
<g id="a_node55"><a xlink:title=" ">
<polygon fill="none" stroke="#bfbfbf" points="1666,-459.5 1666,-478.5 1736,-478.5 1736,-459.5 1666,-459.5"/>
<text text-anchor="middle" x="1701" y="-466.5" font-family="Helvetica,sans-Serif" font-size="10.00">opus/opus.h</text>
</a>
</g>
</g>
<!-- Node54&#45;&gt;Node55 -->
<g id="edge72" class="edge">
<title>Node54&#45;&gt;Node55</title>
<path fill="none" stroke="midnightblue" d="M1701,-520.98C1701,-512.58 1701,-499.48 1701,-488.66"/>
<polygon fill="midnightblue" stroke="midnightblue" points="1704.5,-488.51 1701,-478.51 1697.5,-488.51 1704.5,-488.51"/>
</g>
</g>
</svg>
