<?xml version="1.0" encoding="UTF-8" standalone="no"?>
<!DOCTYPE svg PUBLIC "-//W3C//DTD SVG 1.1//EN"
 "http://www.w3.org/Graphics/SVG/1.1/DTD/svg11.dtd">
<!-- Generated by graphviz version 3.0.0 (20220226.1711)
 -->
<!-- Title: SongAPI.hpp Pages: 1 -->
<svg width="2456pt" height="733pt"
 viewBox="0.00 0.00 2455.50 733.00" xmlns="http://www.w3.org/2000/svg" xmlns:xlink="http://www.w3.org/1999/xlink">
<g id="graph0" class="graph" transform="scale(1 1) rotate(0) translate(4 729)">
<title>SongAPI.hpp</title>
<!-- Node1 -->
<g id="node1" class="node">
<title>Node1</title>
<g id="a_node1"><a xlink:title=" ">
<polygon fill="#bfbfbf" stroke="black" points="351.5,-705.5 351.5,-724.5 425.5,-724.5 425.5,-705.5 351.5,-705.5"/>
<text text-anchor="middle" x="388.5" y="-712.5" font-family="Helvetica,sans-Serif" font-size="10.00">SongAPI.hpp</text>
</a>
</g>
</g>
<!-- Node2 -->
<g id="node2" class="node">
<title>Node2</title>
<g id="a_node2"><a xlink:href="../../d4/deb/a00710.html" target="_top" xlink:title=" ">
<polygon fill="none" stroke="black" points="928,-112.5 928,-142.5 1059,-142.5 1059,-112.5 928,-112.5"/>
<text text-anchor="start" x="936" y="-130.5" font-family="Helvetica,sans-Serif" font-size="10.00">discordcoreapi/Foundation</text>
<text text-anchor="middle" x="993.5" y="-119.5" font-family="Helvetica,sans-Serif" font-size="10.00">Entities.hpp</text>
</a>
</g>
</g>
<!-- Node1&#45;&gt;Node2 -->
<g id="edge1" class="edge">
<title>Node1&#45;&gt;Node2</title>
<path fill="none" stroke="midnightblue" d="M376.04,-705.26C351.98,-687.25 301.5,-643.45 301.5,-593 301.5,-593 301.5,-593 301.5,-244 301.5,-194.3 345.85,-196.14 392.5,-179 486.95,-144.31 778.32,-133.24 917.7,-129.88"/>
<polygon fill="midnightblue" stroke="midnightblue" points="917.96,-133.38 927.87,-129.64 917.79,-126.38 917.96,-133.38"/>
</g>
<!-- Node27 -->
<g id="node27" class="node">
<title>Node27</title>
<g id="a_node27"><a xlink:href="../../d4/d6a/a00704.html" target="_top" xlink:title=" ">
<polygon fill="none" stroke="black" points="481.5,-179.5 481.5,-198.5 639.5,-198.5 639.5,-179.5 481.5,-179.5"/>
<text text-anchor="middle" x="560.5" y="-186.5" font-family="Helvetica,sans-Serif" font-size="10.00">discordcoreapi/EventEntities.hpp</text>
</a>
</g>
</g>
<!-- Node1&#45;&gt;Node27 -->
<g id="edge26" class="edge">
<title>Node1&#45;&gt;Node27</title>
<path fill="none" stroke="midnightblue" d="M382.29,-705.38C369.11,-686.2 339.5,-638.1 339.5,-593 339.5,-593 339.5,-593 339.5,-300 339.5,-238.09 409.87,-211.02 471.19,-199.19"/>
<polygon fill="midnightblue" stroke="midnightblue" points="472.12,-202.58 481.34,-197.35 470.87,-195.69 472.12,-202.58"/>
</g>
<!-- Node28 -->
<g id="node28" class="node">
<title>Node28</title>
<g id="a_node28"><a xlink:href="../../d2/d94/a00716.html" target="_top" xlink:title=" ">
<polygon fill="none" stroke="black" points="390.5,-638.5 390.5,-668.5 530.5,-668.5 530.5,-638.5 390.5,-638.5"/>
<text text-anchor="start" x="398.5" y="-656.5" font-family="Helvetica,sans-Serif" font-size="10.00">discordcoreapi/GuildMember</text>
<text text-anchor="middle" x="460.5" y="-645.5" font-family="Helvetica,sans-Serif" font-size="10.00">Entities.hpp</text>
</a>
</g>
</g>
<!-- Node1&#45;&gt;Node28 -->
<g id="edge28" class="edge">
<title>Node1&#45;&gt;Node28</title>
<path fill="none" stroke="midnightblue" d="M398.82,-705.48C408.38,-697.57 423.01,-685.48 435.61,-675.07"/>
<polygon fill="midnightblue" stroke="midnightblue" points="438.05,-677.59 443.53,-668.52 433.59,-672.2 438.05,-677.59"/>
</g>
<!-- Node53 -->
<g id="node53" class="node">
<title>Node53</title>
<g id="a_node53"><a xlink:href="../../d0/d7e/a00770.html" target="_top" xlink:title=" ">
<polygon fill="none" stroke="black" points="2096,-582.5 2096,-601.5 2271,-601.5 2271,-582.5 2096,-582.5"/>
<text text-anchor="middle" x="2183.5" y="-589.5" font-family="Helvetica,sans-Serif" font-size="10.00">discordcoreapi/VoiceConnection.hpp</text>
</a>
</g>
</g>
<!-- Node1&#45;&gt;Node53 -->
<g id="edge69" class="edge">
<title>Node1&#45;&gt;Node53</title>
<path fill="none" stroke="midnightblue" d="M425.76,-711.84C607.38,-701.24 1418.12,-653.2 2081.5,-602 2082.82,-601.9 2084.15,-601.79 2085.49,-601.69"/>
<polygon fill="midnightblue" stroke="midnightblue" points="2086.19,-605.14 2095.88,-600.86 2085.63,-598.17 2086.19,-605.14"/>
</g>
<!-- Node3 -->
<g id="node3" class="node">
<title>Node3</title>
<g id="a_node3"><a xlink:href="../../d5/dae/a00767.html" target="_top" xlink:title=" ">
<polygon fill="none" stroke="black" points="926.5,-56.5 926.5,-75.5 1060.5,-75.5 1060.5,-56.5 926.5,-56.5"/>
<text text-anchor="middle" x="993.5" y="-63.5" font-family="Helvetica,sans-Serif" font-size="10.00">discordcoreapi/Utilities.hpp</text>
</a>
</g>
</g>
<!-- Node2&#45;&gt;Node3 -->
<g id="edge2" class="edge">
<title>Node2&#45;&gt;Node3</title>
<path fill="none" stroke="midnightblue" d="M993.5,-112.4C993.5,-104.47 993.5,-94.46 993.5,-85.86"/>
<polygon fill="midnightblue" stroke="midnightblue" points="997,-85.66 993.5,-75.66 990,-85.66 997,-85.66"/>
</g>
<!-- Node4 -->
<g id="node4" class="node">
<title>Node4</title>
<g id="a_node4"><a xlink:title=" ">
<polygon fill="none" stroke="#bfbfbf" points="0,-0.5 0,-19.5 57,-19.5 57,-0.5 0,-0.5"/>
<text text-anchor="middle" x="28.5" y="-7.5" font-family="Helvetica,sans-Serif" font-size="10.00">pthread.h</text>
</a>
</g>
</g>
<!-- Node3&#45;&gt;Node4 -->
<g id="edge3" class="edge">
<title>Node3&#45;&gt;Node4</title>
<path fill="none" stroke="midnightblue" d="M926.45,-63.35C745.93,-58.65 251.53,-44.07 67.15,-19.74"/>
<polygon fill="midnightblue" stroke="midnightblue" points="67.41,-16.24 57.03,-18.35 66.46,-23.18 67.41,-16.24"/>
</g>
<!-- Node5 -->
<g id="node5" class="node">
<title>Node5</title>
<g id="a_node5"><a xlink:title=" ">
<polygon fill="none" stroke="#bfbfbf" points="75.5,-0.5 75.5,-19.5 137.5,-19.5 137.5,-0.5 75.5,-0.5"/>
<text text-anchor="middle" x="106.5" y="-7.5" font-family="Helvetica,sans-Serif" font-size="10.00">sys/time.h</text>
</a>
</g>
</g>
<!-- Node3&#45;&gt;Node5 -->
<g id="edge4" class="edge">
<title>Node3&#45;&gt;Node5</title>
<path fill="none" stroke="midnightblue" d="M926.43,-65.26C784.35,-64.97 442.57,-59.92 147.87,-19.95"/>
<polygon fill="midnightblue" stroke="midnightblue" points="148.23,-16.47 137.85,-18.58 147.28,-23.4 148.23,-16.47"/>
</g>
<!-- Node6 -->
<g id="node6" class="node">
<title>Node6</title>
<g id="a_node6"><a xlink:title=" ">
<polygon fill="none" stroke="#bfbfbf" points="155.5,-0.5 155.5,-19.5 199.5,-19.5 199.5,-0.5 155.5,-0.5"/>
<text text-anchor="middle" x="177.5" y="-7.5" font-family="Helvetica,sans-Serif" font-size="10.00">time.h</text>
</a>
</g>
</g>
<!-- Node3&#45;&gt;Node6 -->
<g id="edge5" class="edge">
<title>Node3&#45;&gt;Node6</title>
<path fill="none" stroke="midnightblue" d="M926.48,-63.1C766.41,-58.25 364.34,-44.19 209.95,-19.8"/>
<polygon fill="midnightblue" stroke="midnightblue" points="210.15,-16.28 199.71,-18.1 209,-23.19 210.15,-16.28"/>
</g>
<!-- Node7 -->
<g id="node7" class="node">
<title>Node7</title>
<g id="a_node7"><a xlink:title=" ">
<polygon fill="none" stroke="#bfbfbf" points="218,-0.5 218,-19.5 259,-19.5 259,-0.5 218,-0.5"/>
<text text-anchor="middle" x="238.5" y="-7.5" font-family="Helvetica,sans-Serif" font-size="10.00">ctime</text>
</a>
</g>
</g>
<!-- Node3&#45;&gt;Node7 -->
<g id="edge6" class="edge">
<title>Node3&#45;&gt;Node7</title>
<path fill="none" stroke="midnightblue" d="M926.39,-62.89C775.29,-57.82 411.16,-43.7 269.47,-19.9"/>
<polygon fill="midnightblue" stroke="midnightblue" points="269.72,-16.39 259.26,-18.09 268.5,-23.28 269.72,-16.39"/>
</g>
<!-- Node8 -->
<g id="node8" class="node">
<title>Node8</title>
<g id="a_node8"><a xlink:title=" ">
<polygon fill="none" stroke="#bfbfbf" points="277,-0.5 277,-19.5 370,-19.5 370,-0.5 277,-0.5"/>
<text text-anchor="middle" x="323.5" y="-7.5" font-family="Helvetica,sans-Serif" font-size="10.00">condition_variable</text>
</a>
</g>
</g>
<!-- Node3&#45;&gt;Node8 -->
<g id="edge7" class="edge">
<title>Node3&#45;&gt;Node8</title>
<path fill="none" stroke="midnightblue" d="M926.09,-61.96C814.7,-56.53 585.05,-43.55 380.25,-19.98"/>
<polygon fill="midnightblue" stroke="midnightblue" points="380.55,-16.49 370.21,-18.82 379.74,-23.45 380.55,-16.49"/>
</g>
<!-- Node9 -->
<g id="node9" class="node">
<title>Node9</title>
<g id="a_node9"><a xlink:title=" ">
<polygon fill="none" stroke="#bfbfbf" points="388.5,-0.5 388.5,-19.5 486.5,-19.5 486.5,-0.5 388.5,-0.5"/>
<text text-anchor="middle" x="437.5" y="-7.5" font-family="Helvetica,sans-Serif" font-size="10.00">nlohmann/json.hpp</text>
</a>
</g>
</g>
<!-- Node3&#45;&gt;Node9 -->
<g id="edge8" class="edge">
<title>Node3&#45;&gt;Node9</title>
<path fill="none" stroke="midnightblue" d="M926.5,-60.31C832.7,-53.44 656.71,-39.45 496.55,-20.06"/>
<polygon fill="midnightblue" stroke="midnightblue" points="496.87,-16.57 486.52,-18.83 496.02,-23.52 496.87,-16.57"/>
</g>
<!-- Node10 -->
<g id="node10" class="node">
<title>Node10</title>
<g id="a_node10"><a xlink:title=" ">
<polygon fill="none" stroke="#bfbfbf" points="505,-0.5 505,-19.5 590,-19.5 590,-0.5 505,-0.5"/>
<text text-anchor="middle" x="547.5" y="-7.5" font-family="Helvetica,sans-Serif" font-size="10.00">source_location</text>
</a>
</g>
</g>
<!-- Node3&#45;&gt;Node10 -->
<g id="edge9" class="edge">
<title>Node3&#45;&gt;Node10</title>
<path fill="none" stroke="midnightblue" d="M926.24,-58.6C849.66,-51.04 720.55,-37.42 600.18,-20.17"/>
<polygon fill="midnightblue" stroke="midnightblue" points="600.44,-16.67 590.05,-18.71 599.44,-23.6 600.44,-16.67"/>
</g>
<!-- Node11 -->
<g id="node11" class="node">
<title>Node11</title>
<g id="a_node11"><a xlink:title=" ">
<polygon fill="none" stroke="#bfbfbf" points="608,-0.5 608,-19.5 691,-19.5 691,-0.5 608,-0.5"/>
<text text-anchor="middle" x="649.5" y="-7.5" font-family="Helvetica,sans-Serif" font-size="10.00">unordered_map</text>
</a>
</g>
</g>
<!-- Node3&#45;&gt;Node11 -->
<g id="edge10" class="edge">
<title>Node3&#45;&gt;Node11</title>
<path fill="none" stroke="midnightblue" d="M935.62,-56.5C878.67,-48.05 788.96,-34.5 701.35,-20.11"/>
<polygon fill="midnightblue" stroke="midnightblue" points="701.67,-16.62 691.24,-18.44 700.53,-23.52 701.67,-16.62"/>
</g>
<!-- Node12 -->
<g id="node12" class="node">
<title>Node12</title>
<g id="a_node12"><a xlink:title=" ">
<polygon fill="none" stroke="#bfbfbf" points="709.5,-0.5 709.5,-19.5 787.5,-19.5 787.5,-0.5 709.5,-0.5"/>
<text text-anchor="middle" x="748.5" y="-7.5" font-family="Helvetica,sans-Serif" font-size="10.00">shared_mutex</text>
</a>
</g>
</g>
<!-- Node3&#45;&gt;Node12 -->
<g id="edge11" class="edge">
<title>Node3&#45;&gt;Node12</title>
<path fill="none" stroke="midnightblue" d="M954.68,-56.44C911.94,-47.02 843.17,-31.87 796.93,-21.68"/>
<polygon fill="midnightblue" stroke="midnightblue" points="797.66,-18.25 787.14,-19.52 796.15,-25.09 797.66,-18.25"/>
</g>
<!-- Node13 -->
<g id="node13" class="node">
<title>Node13</title>
<g id="a_node13"><a xlink:title=" ">
<polygon fill="none" stroke="#bfbfbf" points="805.5,-0.5 805.5,-19.5 863.5,-19.5 863.5,-0.5 805.5,-0.5"/>
<text text-anchor="middle" x="834.5" y="-7.5" font-family="Helvetica,sans-Serif" font-size="10.00">functional</text>
</a>
</g>
</g>
<!-- Node3&#45;&gt;Node13 -->
<g id="edge12" class="edge">
<title>Node3&#45;&gt;Node13</title>
<path fill="none" stroke="midnightblue" d="M968.31,-56.44C941.56,-47.36 899.1,-32.94 869.19,-22.78"/>
<polygon fill="midnightblue" stroke="midnightblue" points="870.17,-19.42 859.58,-19.52 867.92,-26.05 870.17,-19.42"/>
</g>
<!-- Node14 -->
<g id="node14" class="node">
<title>Node14</title>
<g id="a_node14"><a xlink:title=" ">
<polygon fill="none" stroke="#bfbfbf" points="882,-0.5 882,-19.5 947,-19.5 947,-0.5 882,-0.5"/>
<text text-anchor="middle" x="914.5" y="-7.5" font-family="Helvetica,sans-Serif" font-size="10.00">semaphore</text>
</a>
</g>
</g>
<!-- Node3&#45;&gt;Node14 -->
<g id="edge13" class="edge">
<title>Node3&#45;&gt;Node14</title>
<path fill="none" stroke="midnightblue" d="M980.81,-56.32C968.6,-47.98 949.92,-35.21 935.5,-25.35"/>
<polygon fill="midnightblue" stroke="midnightblue" points="937.39,-22.41 927.16,-19.65 933.44,-28.19 937.39,-22.41"/>
</g>
<!-- Node15 -->
<g id="node15" class="node">
<title>Node15</title>
<g id="a_node15"><a xlink:title=" ">
<polygon fill="none" stroke="#bfbfbf" points="965.5,-0.5 965.5,-19.5 1021.5,-19.5 1021.5,-0.5 965.5,-0.5"/>
<text text-anchor="middle" x="993.5" y="-7.5" font-family="Helvetica,sans-Serif" font-size="10.00">concepts</text>
</a>
</g>
</g>
<!-- Node3&#45;&gt;Node15 -->
<g id="edge14" class="edge">
<title>Node3&#45;&gt;Node15</title>
<path fill="none" stroke="midnightblue" d="M993.5,-56.08C993.5,-49.01 993.5,-38.86 993.5,-29.99"/>
<polygon fill="midnightblue" stroke="midnightblue" points="997,-29.75 993.5,-19.75 990,-29.75 997,-29.75"/>
</g>
<!-- Node16 -->
<g id="node16" class="node">
<title>Node16</title>
<g id="a_node16"><a xlink:title=" ">
<polygon fill="none" stroke="#bfbfbf" points="1039.5,-0.5 1039.5,-19.5 1093.5,-19.5 1093.5,-0.5 1039.5,-0.5"/>
<text text-anchor="middle" x="1066.5" y="-7.5" font-family="Helvetica,sans-Serif" font-size="10.00">iostream</text>
</a>
</g>
</g>
<!-- Node3&#45;&gt;Node16 -->
<g id="edge15" class="edge">
<title>Node3&#45;&gt;Node16</title>
<path fill="none" stroke="midnightblue" d="M1005.23,-56.32C1016.34,-48.11 1033.24,-35.6 1046.48,-25.81"/>
<polygon fill="midnightblue" stroke="midnightblue" points="1048.6,-28.59 1054.56,-19.83 1044.44,-22.97 1048.6,-28.59"/>
</g>
<!-- Node17 -->
<g id="node17" class="node">
<title>Node17</title>
<g id="a_node17"><a xlink:title=" ">
<polygon fill="none" stroke="#bfbfbf" points="1112,-0.5 1112,-19.5 1161,-19.5 1161,-0.5 1112,-0.5"/>
<text text-anchor="middle" x="1136.5" y="-7.5" font-family="Helvetica,sans-Serif" font-size="10.00">fstream</text>
</a>
</g>
</g>
<!-- Node3&#45;&gt;Node17 -->
<g id="edge16" class="edge">
<title>Node3&#45;&gt;Node17</title>
<path fill="none" stroke="midnightblue" d="M1016.16,-56.44C1039.9,-47.48 1077.41,-33.31 1104.24,-23.18"/>
<polygon fill="midnightblue" stroke="midnightblue" points="1105.83,-26.32 1113.95,-19.52 1103.36,-19.77 1105.83,-26.32"/>
</g>
<!-- Node18 -->
<g id="node18" class="node">
<title>Node18</title>
<g id="a_node18"><a xlink:title=" ">
<polygon fill="none" stroke="#bfbfbf" points="1179,-0.5 1179,-19.5 1220,-19.5 1220,-0.5 1179,-0.5"/>
<text text-anchor="middle" x="1199.5" y="-7.5" font-family="Helvetica,sans-Serif" font-size="10.00">bitset</text>
</a>
</g>
</g>
<!-- Node3&#45;&gt;Node18 -->
<g id="edge17" class="edge">
<title>Node3&#45;&gt;Node18</title>
<path fill="none" stroke="midnightblue" d="M1028.68,-56.46C1062.27,-48.2 1114.53,-35.09 1169.04,-20.04"/>
<polygon fill="midnightblue" stroke="midnightblue" points="1170.18,-23.36 1178.88,-17.31 1168.3,-16.61 1170.18,-23.36"/>
</g>
<!-- Node19 -->
<g id="node19" class="node">
<title>Node19</title>
<g id="a_node19"><a xlink:title=" ">
<polygon fill="none" stroke="#bfbfbf" points="1238.5,-0.5 1238.5,-19.5 1290.5,-19.5 1290.5,-0.5 1238.5,-0.5"/>
<text text-anchor="middle" x="1264.5" y="-7.5" font-family="Helvetica,sans-Serif" font-size="10.00">memory</text>
</a>
</g>
</g>
<!-- Node3&#45;&gt;Node19 -->
<g id="edge18" class="edge">
<title>Node3&#45;&gt;Node19</title>
<path fill="none" stroke="midnightblue" d="M1042.27,-56.48C1087.77,-48.35 1157.77,-35.37 1228.25,-19.95"/>
<polygon fill="midnightblue" stroke="midnightblue" points="1229.18,-23.33 1238.19,-17.76 1227.67,-16.49 1229.18,-23.33"/>
</g>
<!-- Node20 -->
<g id="node20" class="node">
<title>Node20</title>
<g id="a_node20"><a xlink:title=" ">
<polygon fill="none" stroke="#bfbfbf" points="1309,-0.5 1309,-19.5 1358,-19.5 1358,-0.5 1309,-0.5"/>
<text text-anchor="middle" x="1333.5" y="-7.5" font-family="Helvetica,sans-Serif" font-size="10.00">random</text>
</a>
</g>
</g>
<!-- Node3&#45;&gt;Node20 -->
<g id="edge19" class="edge">
<title>Node3&#45;&gt;Node20</title>
<path fill="none" stroke="midnightblue" d="M1060.74,-57.33C1120.74,-49.97 1211.15,-37.66 1298.84,-19.93"/>
<polygon fill="midnightblue" stroke="midnightblue" points="1299.6,-23.35 1308.69,-17.91 1298.2,-16.49 1299.6,-23.35"/>
</g>
<!-- Node21 -->
<g id="node21" class="node">
<title>Node21</title>
<g id="a_node21"><a xlink:title=" ">
<polygon fill="none" stroke="#bfbfbf" points="1376,-0.5 1376,-19.5 1417,-19.5 1417,-0.5 1376,-0.5"/>
<text text-anchor="middle" x="1396.5" y="-7.5" font-family="Helvetica,sans-Serif" font-size="10.00">string</text>
</a>
</g>
</g>
<!-- Node3&#45;&gt;Node21 -->
<g id="edge20" class="edge">
<title>Node3&#45;&gt;Node21</title>
<path fill="none" stroke="midnightblue" d="M1060.77,-60.37C1133.77,-54.57 1253.79,-42.75 1366.16,-19.71"/>
<polygon fill="midnightblue" stroke="midnightblue" points="1366.89,-23.13 1375.96,-17.67 1365.46,-16.28 1366.89,-23.13"/>
</g>
<!-- Node22 -->
<g id="node22" class="node">
<title>Node22</title>
<g id="a_node22"><a xlink:title=" ">
<polygon fill="none" stroke="#bfbfbf" points="1435.5,-0.5 1435.5,-19.5 1477.5,-19.5 1477.5,-0.5 1435.5,-0.5"/>
<text text-anchor="middle" x="1456.5" y="-7.5" font-family="Helvetica,sans-Serif" font-size="10.00">vector</text>
</a>
</g>
</g>
<!-- Node3&#45;&gt;Node22 -->
<g id="edge21" class="edge">
<title>Node3&#45;&gt;Node22</title>
<path fill="none" stroke="midnightblue" d="M1060.65,-61.73C1146.08,-56.72 1297.84,-44.97 1425.5,-20 1425.6,-19.98 1425.7,-19.96 1425.8,-19.94"/>
<polygon fill="midnightblue" stroke="midnightblue" points="1426.35,-23.41 1435.28,-17.7 1424.74,-16.59 1426.35,-23.41"/>
</g>
<!-- Node23 -->
<g id="node23" class="node">
<title>Node23</title>
<g id="a_node23"><a xlink:title=" ">
<polygon fill="none" stroke="#bfbfbf" points="1495.5,-0.5 1495.5,-19.5 1539.5,-19.5 1539.5,-0.5 1495.5,-0.5"/>
<text text-anchor="middle" x="1517.5" y="-7.5" font-family="Helvetica,sans-Serif" font-size="10.00">thread</text>
</a>
</g>
</g>
<!-- Node3&#45;&gt;Node23 -->
<g id="edge22" class="edge">
<title>Node3&#45;&gt;Node23</title>
<path fill="none" stroke="midnightblue" d="M1060.65,-62.94C1154,-59.18 1328.27,-48.9 1484.98,-19.94"/>
<polygon fill="midnightblue" stroke="midnightblue" points="1486.09,-23.29 1495.27,-18.01 1484.8,-16.41 1486.09,-23.29"/>
</g>
<!-- Node24 -->
<g id="node24" class="node">
<title>Node24</title>
<g id="a_node24"><a xlink:title=" ">
<polygon fill="none" stroke="#bfbfbf" points="1557.5,-0.5 1557.5,-19.5 1601.5,-19.5 1601.5,-0.5 1557.5,-0.5"/>
<text text-anchor="middle" x="1579.5" y="-7.5" font-family="Helvetica,sans-Serif" font-size="10.00">mutex</text>
</a>
</g>
</g>
<!-- Node3&#45;&gt;Node24 -->
<g id="edge23" class="edge">
<title>Node3&#45;&gt;Node24</title>
<path fill="none" stroke="midnightblue" d="M1060.71,-63.91C1163.77,-61.28 1366.99,-52.3 1547.35,-19.85"/>
<polygon fill="midnightblue" stroke="midnightblue" points="1548.07,-23.27 1557.28,-18.03 1546.81,-16.39 1548.07,-23.27"/>
</g>
<!-- Node25 -->
<g id="node25" class="node">
<title>Node25</title>
<g id="a_node25"><a xlink:title=" ">
<polygon fill="none" stroke="#bfbfbf" points="1620,-0.5 1620,-19.5 1663,-19.5 1663,-0.5 1620,-0.5"/>
<text text-anchor="middle" x="1641.5" y="-7.5" font-family="Helvetica,sans-Serif" font-size="10.00">queue</text>
</a>
</g>
</g>
<!-- Node3&#45;&gt;Node25 -->
<g id="edge24" class="edge">
<title>Node3&#45;&gt;Node25</title>
<path fill="none" stroke="midnightblue" d="M1060.72,-64.69C1172.88,-63.17 1405.18,-55.74 1609.92,-19.68"/>
<polygon fill="midnightblue" stroke="midnightblue" points="1610.73,-23.09 1619.96,-17.88 1609.5,-16.2 1610.73,-23.09"/>
</g>
<!-- Node26 -->
<g id="node26" class="node">
<title>Node26</title>
<g id="a_node26"><a xlink:title=" ">
<polygon fill="none" stroke="#bfbfbf" points="1681,-0.5 1681,-19.5 1716,-19.5 1716,-0.5 1681,-0.5"/>
<text text-anchor="middle" x="1698.5" y="-7.5" font-family="Helvetica,sans-Serif" font-size="10.00">map</text>
</a>
</g>
</g>
<!-- Node3&#45;&gt;Node26 -->
<g id="edge25" class="edge">
<title>Node3&#45;&gt;Node26</title>
<path fill="none" stroke="midnightblue" d="M1060.57,-62.73C1204.17,-57.52 1538.35,-43.45 1671,-19.46"/>
<polygon fill="midnightblue" stroke="midnightblue" points="1671.79,-22.87 1680.95,-17.56 1670.48,-16 1671.79,-22.87"/>
</g>
<!-- Node27&#45;&gt;Node2 -->
<g id="edge27" class="edge">
<title>Node27&#45;&gt;Node2</title>
<path fill="none" stroke="midnightblue" d="M622.54,-179.48C700.4,-168.78 833.88,-150.43 917.71,-138.92"/>
<polygon fill="midnightblue" stroke="midnightblue" points="918.25,-142.37 927.68,-137.55 917.29,-135.44 918.25,-142.37"/>
</g>
<!-- Node28&#45;&gt;Node2 -->
<g id="edge29" class="edge">
<title>Node28&#45;&gt;Node2</title>
<path fill="none" stroke="midnightblue" d="M435.66,-638.38C422.22,-629.55 406.4,-617.01 396.5,-602 378.63,-574.91 377.5,-563.95 377.5,-531.5 377.5,-531.5 377.5,-531.5 377.5,-244 377.5,-208.09 394.19,-196.58 425.5,-179 507.84,-132.76 782.91,-127.39 917.72,-127.66"/>
<polygon fill="midnightblue" stroke="midnightblue" points="917.95,-131.16 927.96,-127.69 917.97,-124.16 917.95,-131.16"/>
</g>
<!-- Node29 -->
<g id="node29" class="node">
<title>Node29</title>
<g id="a_node29"><a xlink:href="../../d3/d2c/a00764.html" target="_top" xlink:title=" ">
<polygon fill="none" stroke="black" points="406,-582.5 406,-601.5 561,-601.5 561,-582.5 406,-582.5"/>
<text text-anchor="middle" x="483.5" y="-589.5" font-family="Helvetica,sans-Serif" font-size="10.00">discordcoreapi/UserEntities.hpp</text>
</a>
</g>
</g>
<!-- Node28&#45;&gt;Node29 -->
<g id="edge30" class="edge">
<title>Node28&#45;&gt;Node29</title>
<path fill="none" stroke="midnightblue" d="M465.95,-638.4C469.12,-630.2 473.15,-619.78 476.54,-610.99"/>
<polygon fill="midnightblue" stroke="midnightblue" points="479.81,-612.25 480.15,-601.66 473.28,-609.72 479.81,-612.25"/>
</g>
<!-- Node37 -->
<g id="node37" class="node">
<title>Node37</title>
<g id="a_node37"><a xlink:href="../../db/d7c/a00722.html" target="_top" xlink:title=" ">
<polygon fill="none" stroke="black" points="1327,-291.5 1327,-310.5 1452,-310.5 1452,-291.5 1327,-291.5"/>
<text text-anchor="middle" x="1389.5" y="-298.5" font-family="Helvetica,sans-Serif" font-size="10.00">discordcoreapi/Https.hpp</text>
</a>
</g>
</g>
<!-- Node28&#45;&gt;Node37 -->
<g id="edge68" class="edge">
<title>Node28&#45;&gt;Node37</title>
<path fill="none" stroke="midnightblue" d="M530.58,-650.95C839.89,-643.65 2067.5,-609.75 2067.5,-531.5 2067.5,-531.5 2067.5,-531.5 2067.5,-412 2067.5,-351.2 1637.23,-317.46 1462.22,-306.25"/>
<polygon fill="midnightblue" stroke="midnightblue" points="1462.27,-302.75 1452.07,-305.61 1461.83,-309.74 1462.27,-302.75"/>
</g>
<!-- Node29&#45;&gt;Node2 -->
<g id="edge31" class="edge">
<title>Node29&#45;&gt;Node2</title>
<path fill="none" stroke="midnightblue" d="M474.33,-582.25C455.77,-563.53 415.5,-517.47 415.5,-470 415.5,-470 415.5,-470 415.5,-244 415.5,-210.54 425.28,-196.99 453.5,-179 491.75,-154.62 778.32,-138.33 917.75,-131.77"/>
<polygon fill="midnightblue" stroke="midnightblue" points="918.11,-135.25 927.93,-131.29 917.78,-128.26 918.11,-135.25"/>
</g>
<!-- Node30 -->
<g id="node30" class="node">
<title>Node30</title>
<g id="a_node30"><a xlink:href="../../d9/dd4/a00776.html" target="_top" xlink:title=" ">
<polygon fill="none" stroke="black" points="966.5,-515.5 966.5,-545.5 1100.5,-545.5 1100.5,-515.5 966.5,-515.5"/>
<text text-anchor="start" x="974.5" y="-533.5" font-family="Helvetica,sans-Serif" font-size="10.00">discordcoreapi/WebSocket</text>
<text text-anchor="middle" x="1033.5" y="-522.5" font-family="Helvetica,sans-Serif" font-size="10.00">Entities.hpp</text>
</a>
</g>
</g>
<!-- Node29&#45;&gt;Node30 -->
<g id="edge32" class="edge">
<title>Node29&#45;&gt;Node30</title>
<path fill="none" stroke="midnightblue" d="M561.14,-582.6C665.88,-571.27 851.35,-551.21 956.01,-539.88"/>
<polygon fill="midnightblue" stroke="midnightblue" points="956.63,-543.34 966.19,-538.78 955.88,-536.38 956.63,-543.34"/>
</g>
<!-- Node30&#45;&gt;Node2 -->
<g id="edge33" class="edge">
<title>Node30&#45;&gt;Node2</title>
<path fill="none" stroke="midnightblue" d="M966.4,-530.09C813.73,-529.63 453.5,-517.57 453.5,-414 453.5,-414 453.5,-414 453.5,-244 453.5,-213.9 449.32,-198.19 472.5,-179 506.04,-151.24 781.31,-136.74 917.61,-131.21"/>
<polygon fill="midnightblue" stroke="midnightblue" points="918.12,-134.69 927.97,-130.79 917.84,-127.69 918.12,-134.69"/>
</g>
<!-- Node30&#45;&gt;Node27 -->
<g id="edge65" class="edge">
<title>Node30&#45;&gt;Node27</title>
<path fill="none" stroke="midnightblue" d="M966.32,-525.49C844.7,-516.39 600.5,-488.79 600.5,-414 600.5,-414 600.5,-414 600.5,-300 600.5,-265.62 583.03,-228.63 571.18,-207.5"/>
<polygon fill="midnightblue" stroke="midnightblue" points="574.12,-205.61 566.06,-198.73 568.08,-209.13 574.12,-205.61"/>
</g>
<!-- Node31 -->
<g id="node31" class="node">
<title>Node31</title>
<g id="a_node31"><a xlink:href="../../d4/d9b/a00680.html" target="_top" xlink:title=" ">
<polygon fill="none" stroke="black" points="669.5,-235.5 669.5,-254.5 831.5,-254.5 831.5,-235.5 669.5,-235.5"/>
<text text-anchor="middle" x="750.5" y="-242.5" font-family="Helvetica,sans-Serif" font-size="10.00">discordcoreapi/AudioDecoder.hpp</text>
</a>
</g>
</g>
<!-- Node30&#45;&gt;Node31 -->
<g id="edge34" class="edge">
<title>Node30&#45;&gt;Node31</title>
<path fill="none" stroke="midnightblue" d="M966.4,-515.78C914.17,-500.72 850.5,-470.73 850.5,-414 850.5,-414 850.5,-414 850.5,-356 850.5,-311.98 806.12,-277.8 776.49,-259.87"/>
<polygon fill="midnightblue" stroke="midnightblue" points="777.87,-256.63 767.46,-254.64 774.36,-262.68 777.87,-256.63"/>
</g>
<!-- Node34 -->
<g id="node34" class="node">
<title>Node34</title>
<g id="a_node34"><a xlink:href="../../d0/db6/a00692.html" target="_top" xlink:title=" ">
<polygon fill="none" stroke="black" points="940,-459.5 940,-478.5 1127,-478.5 1127,-459.5 940,-459.5"/>
<text text-anchor="middle" x="1033.5" y="-466.5" font-family="Helvetica,sans-Serif" font-size="10.00">discordcoreapi/CommandController.hpp</text>
</a>
</g>
</g>
<!-- Node30&#45;&gt;Node34 -->
<g id="edge39" class="edge">
<title>Node30&#45;&gt;Node34</title>
<path fill="none" stroke="midnightblue" d="M1033.5,-515.4C1033.5,-507.47 1033.5,-497.46 1033.5,-488.86"/>
<polygon fill="midnightblue" stroke="midnightblue" points="1037,-488.66 1033.5,-478.66 1030,-488.66 1037,-488.66"/>
</g>
<!-- Node36 -->
<g id="node36" class="node">
<title>Node36</title>
<g id="a_node36"><a xlink:href="../../d3/d4f/a00761.html" target="_top" xlink:title=" ">
<polygon fill="none" stroke="black" points="1115.5,-347.5 1115.5,-366.5 1265.5,-366.5 1265.5,-347.5 1115.5,-347.5"/>
<text text-anchor="middle" x="1190.5" y="-354.5" font-family="Helvetica,sans-Serif" font-size="10.00">discordcoreapi/ThreadPool.hpp</text>
</a>
</g>
</g>
<!-- Node30&#45;&gt;Node36 -->
<g id="edge67" class="edge">
<title>Node30&#45;&gt;Node36</title>
<path fill="none" stroke="midnightblue" d="M1072.43,-515.44C1092.63,-506.91 1116.9,-494.64 1135.5,-479 1159.11,-459.15 1163.86,-451.14 1176.5,-423 1183.08,-408.34 1186.65,-390.4 1188.53,-377.09"/>
<polygon fill="midnightblue" stroke="midnightblue" points="1192.05,-377.12 1189.78,-366.77 1185.1,-376.28 1192.05,-377.12"/>
</g>
<!-- Node38 -->
<g id="node38" class="node">
<title>Node38</title>
<g id="a_node38"><a xlink:href="../../d5/de8/a00749.html" target="_top" xlink:title=" ">
<polygon fill="none" stroke="black" points="1405.5,-235.5 1405.5,-254.5 1555.5,-254.5 1555.5,-235.5 1405.5,-235.5"/>
<text text-anchor="middle" x="1480.5" y="-242.5" font-family="Helvetica,sans-Serif" font-size="10.00">discordcoreapi/SSLClients.hpp</text>
</a>
</g>
</g>
<!-- Node30&#45;&gt;Node38 -->
<g id="edge66" class="edge">
<title>Node30&#45;&gt;Node38</title>
<path fill="none" stroke="midnightblue" d="M1100.9,-526.04C1225.78,-517.79 1480.5,-491.45 1480.5,-414 1480.5,-414 1480.5,-414 1480.5,-356 1480.5,-323.95 1480.5,-286.64 1480.5,-264.75"/>
<polygon fill="midnightblue" stroke="midnightblue" points="1484,-264.56 1480.5,-254.56 1477,-264.56 1484,-264.56"/>
</g>
<!-- Node52 -->
<g id="node52" class="node">
<title>Node52</title>
<g id="a_node52"><a xlink:href="../../dd/d57/a00701.html" target="_top" xlink:title=" ">
<polygon fill="none" stroke="black" points="1702.5,-403.5 1702.5,-422.5 1846.5,-422.5 1846.5,-403.5 1702.5,-403.5"/>
<text text-anchor="middle" x="1774.5" y="-410.5" font-family="Helvetica,sans-Serif" font-size="10.00">discordcoreapi/ErlPacker.hpp</text>
</a>
</g>
</g>
<!-- Node30&#45;&gt;Node52 -->
<g id="edge63" class="edge">
<title>Node30&#45;&gt;Node52</title>
<path fill="none" stroke="midnightblue" d="M1100.65,-524.66C1190.71,-517.6 1355.4,-502.68 1494.5,-479 1580.23,-464.41 1679,-439.56 1733.32,-425.18"/>
<polygon fill="midnightblue" stroke="midnightblue" points="1734.49,-428.49 1743.25,-422.54 1732.69,-421.73 1734.49,-428.49"/>
</g>
<!-- Node31&#45;&gt;Node2 -->
<g id="edge36" class="edge">
<title>Node31&#45;&gt;Node2</title>
<path fill="none" stroke="midnightblue" d="M730.79,-235.36C705.9,-223.26 668.36,-200.37 686.5,-179 715.58,-144.74 836.54,-133.68 917.67,-130.14"/>
<polygon fill="midnightblue" stroke="midnightblue" points="918,-133.63 927.85,-129.72 917.71,-126.63 918,-133.63"/>
</g>
<!-- Node31&#45;&gt;Node27 -->
<g id="edge35" class="edge">
<title>Node31&#45;&gt;Node27</title>
<path fill="none" stroke="midnightblue" d="M720.39,-235.44C687.87,-226.2 635.92,-211.44 600.11,-201.26"/>
<polygon fill="midnightblue" stroke="midnightblue" points="601.04,-197.88 590.47,-198.52 599.13,-204.62 601.04,-197.88"/>
</g>
<!-- Node32 -->
<g id="node32" class="node">
<title>Node32</title>
<g id="a_node32"><a xlink:title=" ">
<polygon fill="none" stroke="#bfbfbf" points="695.5,-179.5 695.5,-198.5 805.5,-198.5 805.5,-179.5 695.5,-179.5"/>
<text text-anchor="middle" x="750.5" y="-186.5" font-family="Helvetica,sans-Serif" font-size="10.00">libavformat/avformat.h</text>
</a>
</g>
</g>
<!-- Node31&#45;&gt;Node32 -->
<g id="edge37" class="edge">
<title>Node31&#45;&gt;Node32</title>
<path fill="none" stroke="midnightblue" d="M750.5,-235.08C750.5,-228.01 750.5,-217.86 750.5,-208.99"/>
<polygon fill="midnightblue" stroke="midnightblue" points="754,-208.75 750.5,-198.75 747,-208.75 754,-208.75"/>
</g>
<!-- Node33 -->
<g id="node33" class="node">
<title>Node33</title>
<g id="a_node33"><a xlink:title=" ">
<polygon fill="none" stroke="#bfbfbf" points="824,-179.5 824,-198.5 965,-198.5 965,-179.5 824,-179.5"/>
<text text-anchor="middle" x="894.5" y="-186.5" font-family="Helvetica,sans-Serif" font-size="10.00">libswresample/swresample.h</text>
</a>
</g>
</g>
<!-- Node31&#45;&gt;Node33 -->
<g id="edge38" class="edge">
<title>Node31&#45;&gt;Node33</title>
<path fill="none" stroke="midnightblue" d="M773.32,-235.44C797.33,-226.44 835.33,-212.19 862.37,-202.05"/>
<polygon fill="midnightblue" stroke="midnightblue" points="863.66,-205.3 871.79,-198.52 861.2,-198.75 863.66,-205.3"/>
</g>
<!-- Node34&#45;&gt;Node2 -->
<g id="edge40" class="edge">
<title>Node34&#45;&gt;Node2</title>
<path fill="none" stroke="midnightblue" d="M1027.94,-459.27C1016.95,-441.15 993.5,-397.83 993.5,-358 993.5,-358 993.5,-358 993.5,-244 993.5,-212.49 993.5,-176.16 993.5,-152.78"/>
<polygon fill="midnightblue" stroke="midnightblue" points="997,-152.72 993.5,-142.72 990,-152.72 997,-152.72"/>
</g>
<!-- Node35 -->
<g id="node35" class="node">
<title>Node35</title>
<g id="a_node35"><a xlink:href="../../d5/d5b/a00695.html" target="_top" xlink:title=" ">
<polygon fill="none" stroke="black" points="1021.5,-403.5 1021.5,-422.5 1167.5,-422.5 1167.5,-403.5 1021.5,-403.5"/>
<text text-anchor="middle" x="1094.5" y="-410.5" font-family="Helvetica,sans-Serif" font-size="10.00">discordcoreapi/CoRoutine.hpp</text>
</a>
</g>
</g>
<!-- Node34&#45;&gt;Node35 -->
<g id="edge41" class="edge">
<title>Node34&#45;&gt;Node35</title>
<path fill="none" stroke="midnightblue" d="M1043.3,-459.32C1052.32,-451.34 1065.91,-439.31 1076.82,-429.65"/>
<polygon fill="midnightblue" stroke="midnightblue" points="1079.35,-432.08 1084.52,-422.83 1074.71,-426.84 1079.35,-432.08"/>
</g>
<!-- Node35&#45;&gt;Node2 -->
<g id="edge42" class="edge">
<title>Node35&#45;&gt;Node2</title>
<path fill="none" stroke="midnightblue" d="M1085.2,-403.28C1067.68,-385.85 1031.5,-344.69 1031.5,-302 1031.5,-302 1031.5,-302 1031.5,-244 1031.5,-210.72 1017.09,-174.62 1006.01,-151.8"/>
<polygon fill="midnightblue" stroke="midnightblue" points="1009,-149.95 1001.37,-142.59 1002.75,-153.1 1009,-149.95"/>
</g>
<!-- Node35&#45;&gt;Node36 -->
<g id="edge43" class="edge">
<title>Node35&#45;&gt;Node36</title>
<path fill="none" stroke="midnightblue" d="M1109.92,-403.32C1125.04,-394.82 1148.32,-381.73 1165.97,-371.8"/>
<polygon fill="midnightblue" stroke="midnightblue" points="1168.11,-374.61 1175.11,-366.65 1164.68,-368.51 1168.11,-374.61"/>
</g>
<!-- Node51 -->
<g id="node51" class="node">
<title>Node51</title>
<g id="a_node51"><a xlink:title=" ">
<polygon fill="none" stroke="#bfbfbf" points="1059.5,-291.5 1059.5,-310.5 1115.5,-310.5 1115.5,-291.5 1059.5,-291.5"/>
<text text-anchor="middle" x="1087.5" y="-298.5" font-family="Helvetica,sans-Serif" font-size="10.00">coroutine</text>
</a>
</g>
</g>
<!-- Node35&#45;&gt;Node51 -->
<g id="edge62" class="edge">
<title>Node35&#45;&gt;Node51</title>
<path fill="none" stroke="midnightblue" d="M1093.95,-403.37C1092.82,-385.62 1090.22,-344.67 1088.68,-320.6"/>
<polygon fill="midnightblue" stroke="midnightblue" points="1092.17,-320.35 1088.05,-310.59 1085.19,-320.79 1092.17,-320.35"/>
</g>
<!-- Node36&#45;&gt;Node2 -->
<g id="edge44" class="edge">
<title>Node36&#45;&gt;Node2</title>
<path fill="none" stroke="midnightblue" d="M1183.89,-347.24C1163.94,-320.94 1102.21,-240.72 1045.5,-179 1036.32,-169.01 1025.65,-158.48 1016.37,-149.63"/>
<polygon fill="midnightblue" stroke="midnightblue" points="1018.64,-146.96 1008.97,-142.65 1013.84,-152.06 1018.64,-146.96"/>
</g>
<!-- Node36&#45;&gt;Node37 -->
<g id="edge45" class="edge">
<title>Node36&#45;&gt;Node37</title>
<path fill="none" stroke="midnightblue" d="M1222.03,-347.44C1256.09,-338.2 1310.51,-323.44 1348.02,-313.26"/>
<polygon fill="midnightblue" stroke="midnightblue" points="1349.38,-316.51 1358.12,-310.52 1347.55,-309.76 1349.38,-316.51"/>
</g>
<!-- Node36&#45;&gt;Node51 -->
<g id="edge61" class="edge">
<title>Node36&#45;&gt;Node51</title>
<path fill="none" stroke="midnightblue" d="M1173.95,-347.32C1157.51,-338.7 1132.07,-325.36 1113.03,-315.39"/>
<polygon fill="midnightblue" stroke="midnightblue" points="1114.49,-312.2 1104.01,-310.65 1111.24,-318.4 1114.49,-312.2"/>
</g>
<!-- Node37&#45;&gt;Node38 -->
<g id="edge46" class="edge">
<title>Node37&#45;&gt;Node38</title>
<path fill="none" stroke="midnightblue" d="M1404.12,-291.32C1418.45,-282.82 1440.51,-269.73 1457.25,-259.8"/>
<polygon fill="midnightblue" stroke="midnightblue" points="1459.1,-262.77 1465.92,-254.65 1455.53,-256.75 1459.1,-262.77"/>
</g>
<!-- Node38&#45;&gt;Node2 -->
<g id="edge47" class="edge">
<title>Node38&#45;&gt;Node2</title>
<path fill="none" stroke="midnightblue" d="M1405.26,-242.25C1332.43,-238.75 1219.66,-228.53 1126.5,-199 1116.21,-195.74 1063.79,-167.32 1027.92,-147.57"/>
<polygon fill="midnightblue" stroke="midnightblue" points="1029.19,-144.28 1018.74,-142.51 1025.81,-150.41 1029.19,-144.28"/>
</g>
<!-- Node38&#45;&gt;Node27 -->
<g id="edge48" class="edge">
<title>Node38&#45;&gt;Node27</title>
<path fill="none" stroke="midnightblue" d="M1405.49,-240.12C1264.58,-232.74 950.7,-215.92 686.5,-199 674.7,-198.24 662.29,-197.41 650.04,-196.56"/>
<polygon fill="midnightblue" stroke="midnightblue" points="650.02,-193.05 639.8,-195.84 649.53,-200.03 650.02,-193.05"/>
</g>
<!-- Node39 -->
<g id="node39" class="node">
<title>Node39</title>
<g id="a_node39"><a xlink:title=" ">
<polygon fill="none" stroke="#bfbfbf" points="1136,-179.5 1136,-198.5 1209,-198.5 1209,-179.5 1136,-179.5"/>
<text text-anchor="middle" x="1172.5" y="-186.5" font-family="Helvetica,sans-Serif" font-size="10.00">openssl/err.h</text>
</a>
</g>
</g>
<!-- Node38&#45;&gt;Node39 -->
<g id="edge49" class="edge">
<title>Node38&#45;&gt;Node39</title>
<path fill="none" stroke="midnightblue" d="M1428.74,-235.47C1378.01,-227.03 1298.23,-213.55 1219.27,-199.11"/>
<polygon fill="midnightblue" stroke="midnightblue" points="1219.61,-195.61 1209.14,-197.25 1218.35,-202.5 1219.61,-195.61"/>
</g>
<!-- Node40 -->
<g id="node40" class="node">
<title>Node40</title>
<g id="a_node40"><a xlink:title=" ">
<polygon fill="none" stroke="#bfbfbf" points="1227.5,-179.5 1227.5,-198.5 1301.5,-198.5 1301.5,-179.5 1227.5,-179.5"/>
<text text-anchor="middle" x="1264.5" y="-186.5" font-family="Helvetica,sans-Serif" font-size="10.00">openssl/ssl.h</text>
</a>
</g>
</g>
<!-- Node38&#45;&gt;Node40 -->
<g id="edge50" class="edge">
<title>Node38&#45;&gt;Node40</title>
<path fill="none" stroke="midnightblue" d="M1446.27,-235.44C1408.99,-226.12 1349.23,-211.18 1308.49,-201"/>
<polygon fill="midnightblue" stroke="midnightblue" points="1309.12,-197.55 1298.57,-198.52 1307.42,-204.34 1309.12,-197.55"/>
</g>
<!-- Node41 -->
<g id="node41" class="node">
<title>Node41</title>
<g id="a_node41"><a xlink:title=" ">
<polygon fill="none" stroke="#bfbfbf" points="1320,-179.5 1320,-198.5 1363,-198.5 1363,-179.5 1320,-179.5"/>
<text text-anchor="middle" x="1341.5" y="-186.5" font-family="Helvetica,sans-Serif" font-size="10.00">fcntl.h</text>
</a>
</g>
</g>
<!-- Node38&#45;&gt;Node41 -->
<g id="edge51" class="edge">
<title>Node38&#45;&gt;Node41</title>
<path fill="none" stroke="midnightblue" d="M1458.48,-235.44C1435.4,-226.48 1398.94,-212.31 1372.86,-202.18"/>
<polygon fill="midnightblue" stroke="midnightblue" points="1374.01,-198.88 1363.42,-198.52 1371.48,-205.4 1374.01,-198.88"/>
</g>
<!-- Node42 -->
<g id="node42" class="node">
<title>Node42</title>
<g id="a_node42"><a xlink:title=" ">
<polygon fill="none" stroke="#bfbfbf" points="1381,-179.5 1381,-198.5 1430,-198.5 1430,-179.5 1381,-179.5"/>
<text text-anchor="middle" x="1405.5" y="-186.5" font-family="Helvetica,sans-Serif" font-size="10.00">netdb.h</text>
</a>
</g>
</g>
<!-- Node38&#45;&gt;Node42 -->
<g id="edge52" class="edge">
<title>Node38&#45;&gt;Node42</title>
<path fill="none" stroke="midnightblue" d="M1468.45,-235.32C1457.04,-227.11 1439.67,-214.6 1426.07,-204.81"/>
<polygon fill="midnightblue" stroke="midnightblue" points="1427.93,-201.84 1417.77,-198.83 1423.84,-207.52 1427.93,-201.84"/>
</g>
<!-- Node43 -->
<g id="node43" class="node">
<title>Node43</title>
<g id="a_node43"><a xlink:title=" ">
<polygon fill="none" stroke="#bfbfbf" points="1448,-179.5 1448,-198.5 1513,-198.5 1513,-179.5 1448,-179.5"/>
<text text-anchor="middle" x="1480.5" y="-186.5" font-family="Helvetica,sans-Serif" font-size="10.00">netinet/in.h</text>
</a>
</g>
</g>
<!-- Node38&#45;&gt;Node43 -->
<g id="edge53" class="edge">
<title>Node38&#45;&gt;Node43</title>
<path fill="none" stroke="midnightblue" d="M1480.5,-235.08C1480.5,-228.01 1480.5,-217.86 1480.5,-208.99"/>
<polygon fill="midnightblue" stroke="midnightblue" points="1484,-208.75 1480.5,-198.75 1477,-208.75 1484,-208.75"/>
</g>
<!-- Node44 -->
<g id="node44" class="node">
<title>Node44</title>
<g id="a_node44"><a xlink:title=" ">
<polygon fill="none" stroke="#bfbfbf" points="1531,-179.5 1531,-198.5 1602,-198.5 1602,-179.5 1531,-179.5"/>
<text text-anchor="middle" x="1566.5" y="-186.5" font-family="Helvetica,sans-Serif" font-size="10.00">netinet/tcp.h</text>
</a>
</g>
</g>
<!-- Node38&#45;&gt;Node44 -->
<g id="edge54" class="edge">
<title>Node38&#45;&gt;Node44</title>
<path fill="none" stroke="midnightblue" d="M1494.32,-235.32C1507.73,-226.9 1528.32,-213.97 1544.09,-204.07"/>
<polygon fill="midnightblue" stroke="midnightblue" points="1546.11,-206.94 1552.72,-198.65 1542.39,-201.01 1546.11,-206.94"/>
</g>
<!-- Node45 -->
<g id="node45" class="node">
<title>Node45</title>
<g id="a_node45"><a xlink:title=" ">
<polygon fill="none" stroke="#bfbfbf" points="1620,-179.5 1620,-198.5 1669,-198.5 1669,-179.5 1620,-179.5"/>
<text text-anchor="middle" x="1644.5" y="-186.5" font-family="Helvetica,sans-Serif" font-size="10.00">stdint.h</text>
</a>
</g>
</g>
<!-- Node38&#45;&gt;Node45 -->
<g id="edge55" class="edge">
<title>Node38&#45;&gt;Node45</title>
<path fill="none" stroke="midnightblue" d="M1506.49,-235.44C1534.6,-226.19 1579.55,-211.39 1610.47,-201.21"/>
<polygon fill="midnightblue" stroke="midnightblue" points="1611.57,-204.53 1619.97,-198.08 1609.38,-197.88 1611.57,-204.53"/>
</g>
<!-- Node46 -->
<g id="node46" class="node">
<title>Node46</title>
<g id="a_node46"><a xlink:title=" ">
<polygon fill="none" stroke="#bfbfbf" points="1687.5,-179.5 1687.5,-198.5 1751.5,-198.5 1751.5,-179.5 1687.5,-179.5"/>
<text text-anchor="middle" x="1719.5" y="-186.5" font-family="Helvetica,sans-Serif" font-size="10.00">sys/epoll.h</text>
</a>
</g>
</g>
<!-- Node38&#45;&gt;Node46 -->
<g id="edge56" class="edge">
<title>Node38&#45;&gt;Node46</title>
<path fill="none" stroke="midnightblue" d="M1518.37,-235.44C1561.6,-225.68 1632.12,-209.74 1677.14,-199.57"/>
<polygon fill="midnightblue" stroke="midnightblue" points="1678.19,-202.92 1687.17,-197.3 1676.65,-196.09 1678.19,-202.92"/>
</g>
<!-- Node47 -->
<g id="node47" class="node">
<title>Node47</title>
<g id="a_node47"><a xlink:title=" ">
<polygon fill="none" stroke="#bfbfbf" points="1769.5,-179.5 1769.5,-198.5 1831.5,-198.5 1831.5,-179.5 1769.5,-179.5"/>
<text text-anchor="middle" x="1800.5" y="-186.5" font-family="Helvetica,sans-Serif" font-size="10.00">arpa/inet.h</text>
</a>
</g>
</g>
<!-- Node38&#45;&gt;Node47 -->
<g id="edge57" class="edge">
<title>Node38&#45;&gt;Node47</title>
<path fill="none" stroke="midnightblue" d="M1540.23,-235.5C1594.82,-227.48 1678.03,-214.63 1759.21,-199.16"/>
<polygon fill="midnightblue" stroke="midnightblue" points="1759.94,-202.58 1769.1,-197.26 1758.61,-195.71 1759.94,-202.58"/>
</g>
<!-- Node48 -->
<g id="node48" class="node">
<title>Node48</title>
<g id="a_node48"><a xlink:title=" ">
<polygon fill="none" stroke="#bfbfbf" points="1850,-179.5 1850,-198.5 1923,-198.5 1923,-179.5 1850,-179.5"/>
<text text-anchor="middle" x="1886.5" y="-186.5" font-family="Helvetica,sans-Serif" font-size="10.00">sys/socket.h</text>
</a>
</g>
</g>
<!-- Node38&#45;&gt;Node48 -->
<g id="edge58" class="edge">
<title>Node38&#45;&gt;Node48</title>
<path fill="none" stroke="midnightblue" d="M1555.52,-236.15C1626.21,-228.4 1735.31,-215.55 1839.79,-199.01"/>
<polygon fill="midnightblue" stroke="midnightblue" points="1840.56,-202.43 1849.88,-197.4 1839.46,-195.52 1840.56,-202.43"/>
</g>
<!-- Node49 -->
<g id="node49" class="node">
<title>Node49</title>
<g id="a_node49"><a xlink:title=" ">
<polygon fill="none" stroke="#bfbfbf" points="1941.5,-179.5 1941.5,-198.5 2009.5,-198.5 2009.5,-179.5 1941.5,-179.5"/>
<text text-anchor="middle" x="1975.5" y="-186.5" font-family="Helvetica,sans-Serif" font-size="10.00">sys/types.h</text>
</a>
</g>
</g>
<!-- Node38&#45;&gt;Node49 -->
<g id="edge59" class="edge">
<title>Node38&#45;&gt;Node49</title>
<path fill="none" stroke="midnightblue" d="M1555.59,-239C1643.42,-232.59 1793.35,-219.92 1931.38,-199.02"/>
<polygon fill="midnightblue" stroke="midnightblue" points="1931.94,-202.48 1941.29,-197.5 1930.88,-195.56 1931.94,-202.48"/>
</g>
<!-- Node50 -->
<g id="node50" class="node">
<title>Node50</title>
<g id="a_node50"><a xlink:title=" ">
<polygon fill="none" stroke="#bfbfbf" points="2028,-179.5 2028,-198.5 2079,-198.5 2079,-179.5 2028,-179.5"/>
<text text-anchor="middle" x="2053.5" y="-186.5" font-family="Helvetica,sans-Serif" font-size="10.00">unistd.h</text>
</a>
</g>
</g>
<!-- Node38&#45;&gt;Node50 -->
<g id="edge60" class="edge">
<title>Node38&#45;&gt;Node50</title>
<path fill="none" stroke="midnightblue" d="M1555.85,-241.69C1658.37,-237.67 1847.55,-227.08 2018.08,-198.76"/>
<polygon fill="midnightblue" stroke="midnightblue" points="2018.71,-202.2 2027.99,-197.09 2017.55,-195.3 2018.71,-202.2"/>
</g>
<!-- Node52&#45;&gt;Node2 -->
<g id="edge64" class="edge">
<title>Node52&#45;&gt;Node2</title>
<path fill="none" stroke="midnightblue" d="M1806.21,-403.44C1904,-375.64 2188.48,-283.69 2088.5,-179 2053.33,-142.17 1311.44,-131.63 1069.24,-129.16"/>
<polygon fill="midnightblue" stroke="midnightblue" points="1069.15,-125.66 1059.12,-129.06 1069.08,-132.66 1069.15,-125.66"/>
</g>
<!-- Node53&#45;&gt;Node2 -->
<g id="edge70" class="edge">
<title>Node53&#45;&gt;Node2</title>
<path fill="none" stroke="midnightblue" d="M2178.84,-582.48C2168.69,-563.12 2145.5,-514.04 2145.5,-470 2145.5,-470 2145.5,-470 2145.5,-244 2145.5,-210.76 2136.85,-196.35 2108.5,-179 2064.25,-151.92 1313.62,-134.8 1069.52,-129.93"/>
<polygon fill="midnightblue" stroke="midnightblue" points="1069.39,-126.43 1059.32,-129.73 1069.25,-133.43 1069.39,-126.43"/>
</g>
<!-- Node53&#45;&gt;Node30 -->
<g id="edge75" class="edge">
<title>Node53&#45;&gt;Node30</title>
<path fill="none" stroke="midnightblue" d="M2095.65,-586.45C1878.01,-575.19 1316.62,-546.15 1110.7,-535.49"/>
<polygon fill="midnightblue" stroke="midnightblue" points="1110.75,-531.99 1100.58,-534.97 1110.39,-538.98 1110.75,-531.99"/>
</g>
<!-- Node53&#45;&gt;Node35 -->
<g id="edge74" class="edge">
<title>Node53&#45;&gt;Node35</title>
<path fill="none" stroke="midnightblue" d="M2130.98,-582.46C1949.93,-553.04 1352.29,-455.9 1156.91,-424.14"/>
<polygon fill="midnightblue" stroke="midnightblue" points="1157.25,-420.65 1146.82,-422.5 1156.12,-427.56 1157.25,-420.65"/>
</g>
<!-- Node54 -->
<g id="node54" class="node">
<title>Node54</title>
<g id="a_node54"><a xlink:href="../../db/d77/a00683.html" target="_top" xlink:title=" ">
<polygon fill="none" stroke="black" points="2211.5,-521 2211.5,-540 2373.5,-540 2373.5,-521 2211.5,-521"/>
<text text-anchor="middle" x="2292.5" y="-528" font-family="Helvetica,sans-Serif" font-size="10.00">discordcoreapi/AudioEncoder.hpp</text>
</a>
</g>
</g>
<!-- Node53&#45;&gt;Node54 -->
<g id="edge71" class="edge">
<title>Node53&#45;&gt;Node54</title>
<path fill="none" stroke="midnightblue" d="M2199.12,-582.48C2217.09,-572.67 2246.82,-556.43 2267.91,-544.92"/>
<polygon fill="midnightblue" stroke="midnightblue" points="2269.81,-547.87 2276.91,-540.01 2266.46,-541.73 2269.81,-547.87"/>
</g>
<!-- Node56 -->
<g id="node56" class="node">
<title>Node56</title>
<g id="a_node56"><a xlink:title=" ">
<polygon fill="none" stroke="#bfbfbf" points="2391.5,-521 2391.5,-540 2447.5,-540 2447.5,-521 2391.5,-521"/>
<text text-anchor="middle" x="2419.5" y="-528" font-family="Helvetica,sans-Serif" font-size="10.00">sodium.h</text>
</a>
</g>
</g>
<!-- Node53&#45;&gt;Node56 -->
<g id="edge76" class="edge">
<title>Node53&#45;&gt;Node56</title>
<path fill="none" stroke="midnightblue" d="M2230.67,-582.42C2271.32,-574.54 2331.37,-561.7 2382.5,-546 2384.92,-545.26 2387.41,-544.43 2389.9,-543.55"/>
<polygon fill="midnightblue" stroke="midnightblue" points="2391.19,-546.81 2399.34,-540.04 2388.75,-540.25 2391.19,-546.81"/>
</g>
<!-- Node54&#45;&gt;Node2 -->
<g id="edge72" class="edge">
<title>Node54&#45;&gt;Node2</title>
<path fill="none" stroke="midnightblue" d="M2283.18,-520.93C2264.77,-503 2225.5,-459.44 2225.5,-414 2225.5,-414 2225.5,-414 2225.5,-244 2225.5,-202.83 2197.25,-195.43 2159.5,-179 2060.08,-135.73 1311.74,-129.51 1069.16,-128.64"/>
<polygon fill="midnightblue" stroke="midnightblue" points="1069.03,-125.14 1059.02,-128.6 1069.01,-132.14 1069.03,-125.14"/>
</g>
<!-- Node55 -->
<g id="node55" class="node">
<title>Node55</title>
<g id="a_node55"><a xlink:title=" ">
<polygon fill="none" stroke="#bfbfbf" points="2257.5,-459.5 2257.5,-478.5 2327.5,-478.5 2327.5,-459.5 2257.5,-459.5"/>
<text text-anchor="middle" x="2292.5" y="-466.5" font-family="Helvetica,sans-Serif" font-size="10.00">opus/opus.h</text>
</a>
</g>
</g>
<!-- Node54&#45;&gt;Node55 -->
<g id="edge73" class="edge">
<title>Node54&#45;&gt;Node55</title>
<path fill="none" stroke="midnightblue" d="M2292.5,-520.98C2292.5,-512.58 2292.5,-499.48 2292.5,-488.66"/>
<polygon fill="midnightblue" stroke="midnightblue" points="2296,-488.51 2292.5,-478.51 2289,-488.51 2296,-488.51"/>
</g>
</g>
</svg>
