<?xml version="1.0" encoding="UTF-8" standalone="no"?>
<!DOCTYPE svg PUBLIC "-//W3C//DTD SVG 1.1//EN"
 "http://www.w3.org/Graphics/SVG/1.1/DTD/svg11.dtd">
<!-- Generated by graphviz version 2.43.0 (0)
 -->
<!-- Title: SongAPI.hpp Pages: 1 -->
<svg width="2190pt" height="733pt"
 viewBox="0.00 0.00 2190.00 733.00" xmlns="http://www.w3.org/2000/svg" xmlns:xlink="http://www.w3.org/1999/xlink">
<g id="graph0" class="graph" transform="scale(1 1) rotate(0) translate(4 729)">
<title>SongAPI.hpp</title>
<!-- Node1 -->
<g id="node1" class="node">
<title>Node1</title>
<g id="a_node1"><a xlink:title=" ">
<polygon fill="#bfbfbf" stroke="black" points="1342.5,-705.5 1342.5,-724.5 1419.5,-724.5 1419.5,-705.5 1342.5,-705.5"/>
<text text-anchor="middle" x="1381" y="-712.5" font-family="Helvetica,sans-Serif" font-size="10.00">SongAPI.hpp</text>
</a>
</g>
</g>
<!-- Node2 -->
<g id="node2" class="node">
<title>Node2</title>
<g id="a_node2"><a xlink:href="../../d4/deb/a00710.html" target="_top" xlink:title=" ">
<polygon fill="none" stroke="black" points="1335.5,-112.5 1335.5,-142.5 1480.5,-142.5 1480.5,-112.5 1335.5,-112.5"/>
<text text-anchor="start" x="1343.5" y="-130.5" font-family="Helvetica,sans-Serif" font-size="10.00">discordcoreapi/Foundation</text>
<text text-anchor="middle" x="1408" y="-119.5" font-family="Helvetica,sans-Serif" font-size="10.00">Entities.hpp</text>
</a>
</g>
</g>
<!-- Node1&#45;&gt;Node2 -->
<g id="edge1" class="edge">
<title>Node1&#45;&gt;Node2</title>
<path fill="none" stroke="midnightblue" d="M1419.74,-711.11C1562.1,-699.98 2048,-657.29 2048,-593 2048,-593 2048,-593 2048,-244 2048,-191.36 1998.67,-196.41 1949,-179 1866.71,-150.17 1621.14,-136.64 1491.03,-131.35"/>
<polygon fill="midnightblue" stroke="midnightblue" points="1490.85,-127.84 1480.72,-130.94 1490.57,-134.84 1490.85,-127.84"/>
</g>
<!-- Node27 -->
<g id="node27" class="node">
<title>Node27</title>
<g id="a_node27"><a xlink:href="../../d4/d6a/a00704.html" target="_top" xlink:title=" ">
<polygon fill="none" stroke="black" points="1128,-179.5 1128,-198.5 1304,-198.5 1304,-179.5 1128,-179.5"/>
<text text-anchor="middle" x="1216" y="-186.5" font-family="Helvetica,sans-Serif" font-size="10.00">discordcoreapi/EventEntities.hpp</text>
</a>
</g>
</g>
<!-- Node1&#45;&gt;Node27 -->
<g id="edge26" class="edge">
<title>Node1&#45;&gt;Node27</title>
<path fill="none" stroke="midnightblue" d="M1342.37,-707.57C1258.26,-692.48 1066,-651.58 1066,-593 1066,-593 1066,-593 1066,-300 1066,-246.71 1128.33,-216.41 1172.63,-201.61"/>
<polygon fill="midnightblue" stroke="midnightblue" points="1173.87,-204.89 1182.34,-198.52 1171.75,-198.22 1173.87,-204.89"/>
</g>
<!-- Node28 -->
<g id="node28" class="node">
<title>Node28</title>
<g id="a_node28"><a xlink:href="../../d2/d94/a00716.html" target="_top" xlink:title=" ">
<polygon fill="none" stroke="black" points="711.5,-638.5 711.5,-668.5 868.5,-668.5 868.5,-638.5 711.5,-638.5"/>
<text text-anchor="start" x="719.5" y="-656.5" font-family="Helvetica,sans-Serif" font-size="10.00">discordcoreapi/GuildMember</text>
<text text-anchor="middle" x="790" y="-645.5" font-family="Helvetica,sans-Serif" font-size="10.00">Entities.hpp</text>
</a>
</g>
</g>
<!-- Node1&#45;&gt;Node28 -->
<g id="edge28" class="edge">
<title>Node1&#45;&gt;Node28</title>
<path fill="none" stroke="midnightblue" d="M1342.22,-710.1C1248.81,-700.69 1009.37,-676.59 878.56,-663.42"/>
<polygon fill="midnightblue" stroke="midnightblue" points="878.87,-659.93 868.57,-662.41 878.17,-666.89 878.87,-659.93"/>
</g>
<!-- Node53 -->
<g id="node53" class="node">
<title>Node53</title>
<g id="a_node53"><a xlink:href="../../d0/d7e/a00770.html" target="_top" xlink:title=" ">
<polygon fill="none" stroke="black" points="1657.5,-582.5 1657.5,-601.5 1850.5,-601.5 1850.5,-582.5 1657.5,-582.5"/>
<text text-anchor="middle" x="1754" y="-589.5" font-family="Helvetica,sans-Serif" font-size="10.00">discordcoreapi/VoiceConnection.hpp</text>
</a>
</g>
</g>
<!-- Node1&#45;&gt;Node53 -->
<g id="edge68" class="edge">
<title>Node1&#45;&gt;Node53</title>
<path fill="none" stroke="midnightblue" d="M1407.23,-705.49C1472.48,-684.32 1642.26,-629.25 1717.35,-604.89"/>
<polygon fill="midnightblue" stroke="midnightblue" points="1718.87,-608.08 1727.3,-601.66 1716.71,-601.42 1718.87,-608.08"/>
</g>
<!-- Node3 -->
<g id="node3" class="node">
<title>Node3</title>
<g id="a_node3"><a xlink:href="../../d5/dae/a00767.html" target="_top" xlink:title=" ">
<polygon fill="none" stroke="black" points="1333,-56.5 1333,-75.5 1483,-75.5 1483,-56.5 1333,-56.5"/>
<text text-anchor="middle" x="1408" y="-63.5" font-family="Helvetica,sans-Serif" font-size="10.00">discordcoreapi/Utilities.hpp</text>
</a>
</g>
</g>
<!-- Node2&#45;&gt;Node3 -->
<g id="edge2" class="edge">
<title>Node2&#45;&gt;Node3</title>
<path fill="none" stroke="midnightblue" d="M1408,-112.4C1408,-104.47 1408,-94.46 1408,-85.86"/>
<polygon fill="midnightblue" stroke="midnightblue" points="1411.5,-85.66 1408,-75.66 1404.5,-85.66 1411.5,-85.66"/>
</g>
<!-- Node4 -->
<g id="node4" class="node">
<title>Node4</title>
<g id="a_node4"><a xlink:title=" ">
<polygon fill="none" stroke="#bfbfbf" points="328.5,-0.5 328.5,-19.5 391.5,-19.5 391.5,-0.5 328.5,-0.5"/>
<text text-anchor="middle" x="360" y="-7.5" font-family="Helvetica,sans-Serif" font-size="10.00">pthread.h</text>
</a>
</g>
</g>
<!-- Node3&#45;&gt;Node4 -->
<g id="edge3" class="edge">
<title>Node3&#45;&gt;Node4</title>
<path fill="none" stroke="midnightblue" d="M1332.65,-63.31C1134.25,-58.59 599.71,-44.11 401.71,-19.8"/>
<polygon fill="midnightblue" stroke="midnightblue" points="402.05,-16.31 391.69,-18.52 401.17,-23.26 402.05,-16.31"/>
</g>
<!-- Node5 -->
<g id="node5" class="node">
<title>Node5</title>
<g id="a_node5"><a xlink:title=" ">
<polygon fill="none" stroke="#bfbfbf" points="410,-0.5 410,-19.5 478,-19.5 478,-0.5 410,-0.5"/>
<text text-anchor="middle" x="444" y="-7.5" font-family="Helvetica,sans-Serif" font-size="10.00">sys/time.h</text>
</a>
</g>
</g>
<!-- Node3&#45;&gt;Node5 -->
<g id="edge4" class="edge">
<title>Node3&#45;&gt;Node5</title>
<path fill="none" stroke="midnightblue" d="M1332.74,-65.32C1176.84,-65.13 807.26,-60.16 488.55,-19.98"/>
<polygon fill="midnightblue" stroke="midnightblue" points="488.55,-16.45 478.19,-18.66 487.66,-23.4 488.55,-16.45"/>
</g>
<!-- Node6 -->
<g id="node6" class="node">
<title>Node6</title>
<g id="a_node6"><a xlink:title=" ">
<polygon fill="none" stroke="#bfbfbf" points="496,-0.5 496,-19.5 544,-19.5 544,-0.5 496,-0.5"/>
<text text-anchor="middle" x="520" y="-7.5" font-family="Helvetica,sans-Serif" font-size="10.00">time.h</text>
</a>
</g>
</g>
<!-- Node3&#45;&gt;Node6 -->
<g id="edge5" class="edge">
<title>Node3&#45;&gt;Node6</title>
<path fill="none" stroke="midnightblue" d="M1332.72,-63.1C1156.55,-58.33 720.43,-44.55 554.11,-19.76"/>
<polygon fill="midnightblue" stroke="midnightblue" points="554.44,-16.27 544.02,-18.19 553.36,-23.19 554.44,-16.27"/>
</g>
<!-- Node7 -->
<g id="node7" class="node">
<title>Node7</title>
<g id="a_node7"><a xlink:title=" ">
<polygon fill="none" stroke="#bfbfbf" points="562,-0.5 562,-19.5 606,-19.5 606,-0.5 562,-0.5"/>
<text text-anchor="middle" x="584" y="-7.5" font-family="Helvetica,sans-Serif" font-size="10.00">ctime</text>
</a>
</g>
</g>
<!-- Node3&#45;&gt;Node7 -->
<g id="edge6" class="edge">
<title>Node3&#45;&gt;Node7</title>
<path fill="none" stroke="midnightblue" d="M1332.83,-62.9C1166.38,-57.91 769.94,-44.04 616.4,-19.79"/>
<polygon fill="midnightblue" stroke="midnightblue" points="616.65,-16.28 606.21,-18.1 615.5,-23.19 616.65,-16.28"/>
</g>
<!-- Node8 -->
<g id="node8" class="node">
<title>Node8</title>
<g id="a_node8"><a xlink:title=" ">
<polygon fill="none" stroke="#bfbfbf" points="624.5,-0.5 624.5,-19.5 731.5,-19.5 731.5,-0.5 624.5,-0.5"/>
<text text-anchor="middle" x="678" y="-7.5" font-family="Helvetica,sans-Serif" font-size="10.00">condition_variable</text>
</a>
</g>
</g>
<!-- Node3&#45;&gt;Node8 -->
<g id="edge7" class="edge">
<title>Node3&#45;&gt;Node8</title>
<path fill="none" stroke="midnightblue" d="M1332.82,-61.76C1211.02,-56.1 962.78,-42.89 741.75,-19.99"/>
<polygon fill="midnightblue" stroke="midnightblue" points="741.89,-16.49 731.58,-18.93 741.16,-23.45 741.89,-16.49"/>
</g>
<!-- Node9 -->
<g id="node9" class="node">
<title>Node9</title>
<g id="a_node9"><a xlink:title=" ">
<polygon fill="none" stroke="#bfbfbf" points="750,-0.5 750,-19.5 860,-19.5 860,-0.5 750,-0.5"/>
<text text-anchor="middle" x="805" y="-7.5" font-family="Helvetica,sans-Serif" font-size="10.00">nlohmann/json.hpp</text>
</a>
</g>
</g>
<!-- Node3&#45;&gt;Node9 -->
<g id="edge8" class="edge">
<title>Node3&#45;&gt;Node9</title>
<path fill="none" stroke="midnightblue" d="M1332.88,-60.07C1230.59,-53.06 1041.55,-39.04 870.1,-20.06"/>
<polygon fill="midnightblue" stroke="midnightblue" points="870.46,-16.58 860.13,-18.95 869.68,-23.54 870.46,-16.58"/>
</g>
<!-- Node10 -->
<g id="node10" class="node">
<title>Node10</title>
<g id="a_node10"><a xlink:title=" ">
<polygon fill="none" stroke="#bfbfbf" points="878.5,-0.5 878.5,-19.5 971.5,-19.5 971.5,-0.5 878.5,-0.5"/>
<text text-anchor="middle" x="925" y="-7.5" font-family="Helvetica,sans-Serif" font-size="10.00">source_location</text>
</a>
</g>
</g>
<!-- Node3&#45;&gt;Node10 -->
<g id="edge9" class="edge">
<title>Node3&#45;&gt;Node10</title>
<path fill="none" stroke="midnightblue" d="M1332.85,-58.42C1249.43,-50.81 1110.57,-37.27 981.82,-20.18"/>
<polygon fill="midnightblue" stroke="midnightblue" points="982.16,-16.7 971.78,-18.84 981.23,-23.64 982.16,-16.7"/>
</g>
<!-- Node11 -->
<g id="node11" class="node">
<title>Node11</title>
<g id="a_node11"><a xlink:title=" ">
<polygon fill="none" stroke="#bfbfbf" points="989.5,-0.5 989.5,-19.5 1082.5,-19.5 1082.5,-0.5 989.5,-0.5"/>
<text text-anchor="middle" x="1036" y="-7.5" font-family="Helvetica,sans-Serif" font-size="10.00">unordered_map</text>
</a>
</g>
</g>
<!-- Node3&#45;&gt;Node11 -->
<g id="edge10" class="edge">
<title>Node3&#45;&gt;Node11</title>
<path fill="none" stroke="midnightblue" d="M1345.89,-56.49C1284.32,-47.98 1187.01,-34.32 1092.74,-20.09"/>
<polygon fill="midnightblue" stroke="midnightblue" points="1093.15,-16.61 1082.74,-18.58 1092.1,-23.53 1093.15,-16.61"/>
</g>
<!-- Node12 -->
<g id="node12" class="node">
<title>Node12</title>
<g id="a_node12"><a xlink:title=" ">
<polygon fill="none" stroke="#bfbfbf" points="1101,-0.5 1101,-19.5 1187,-19.5 1187,-0.5 1101,-0.5"/>
<text text-anchor="middle" x="1144" y="-7.5" font-family="Helvetica,sans-Serif" font-size="10.00">shared_mutex</text>
</a>
</g>
</g>
<!-- Node3&#45;&gt;Node12 -->
<g id="edge11" class="edge">
<title>Node3&#45;&gt;Node12</title>
<path fill="none" stroke="midnightblue" d="M1366.17,-56.44C1319.92,-46.98 1245.39,-31.74 1195.56,-21.55"/>
<polygon fill="midnightblue" stroke="midnightblue" points="1196.13,-18.09 1185.64,-19.52 1194.73,-24.95 1196.13,-18.09"/>
</g>
<!-- Node13 -->
<g id="node13" class="node">
<title>Node13</title>
<g id="a_node13"><a xlink:title=" ">
<polygon fill="none" stroke="#bfbfbf" points="1205.5,-0.5 1205.5,-19.5 1270.5,-19.5 1270.5,-0.5 1205.5,-0.5"/>
<text text-anchor="middle" x="1238" y="-7.5" font-family="Helvetica,sans-Serif" font-size="10.00">functional</text>
</a>
</g>
</g>
<!-- Node3&#45;&gt;Node13 -->
<g id="edge12" class="edge">
<title>Node3&#45;&gt;Node13</title>
<path fill="none" stroke="midnightblue" d="M1381.06,-56.44C1352.34,-47.32 1306.67,-32.81 1274.68,-22.65"/>
<polygon fill="midnightblue" stroke="midnightblue" points="1275.4,-19.21 1264.81,-19.52 1273.28,-25.88 1275.4,-19.21"/>
</g>
<!-- Node14 -->
<g id="node14" class="node">
<title>Node14</title>
<g id="a_node14"><a xlink:title=" ">
<polygon fill="none" stroke="#bfbfbf" points="1288.5,-0.5 1288.5,-19.5 1359.5,-19.5 1359.5,-0.5 1288.5,-0.5"/>
<text text-anchor="middle" x="1324" y="-7.5" font-family="Helvetica,sans-Serif" font-size="10.00">semaphore</text>
</a>
</g>
</g>
<!-- Node3&#45;&gt;Node14 -->
<g id="edge13" class="edge">
<title>Node3&#45;&gt;Node14</title>
<path fill="none" stroke="midnightblue" d="M1394.5,-56.32C1381.4,-47.9 1361.29,-34.97 1345.89,-25.07"/>
<polygon fill="midnightblue" stroke="midnightblue" points="1347.77,-22.12 1337.46,-19.65 1343.98,-28.01 1347.77,-22.12"/>
</g>
<!-- Node15 -->
<g id="node15" class="node">
<title>Node15</title>
<g id="a_node15"><a xlink:title=" ">
<polygon fill="none" stroke="#bfbfbf" points="1378,-0.5 1378,-19.5 1438,-19.5 1438,-0.5 1378,-0.5"/>
<text text-anchor="middle" x="1408" y="-7.5" font-family="Helvetica,sans-Serif" font-size="10.00">concepts</text>
</a>
</g>
</g>
<!-- Node3&#45;&gt;Node15 -->
<g id="edge14" class="edge">
<title>Node3&#45;&gt;Node15</title>
<path fill="none" stroke="midnightblue" d="M1408,-56.08C1408,-49.01 1408,-38.86 1408,-29.99"/>
<polygon fill="midnightblue" stroke="midnightblue" points="1411.5,-29.75 1408,-19.75 1404.5,-29.75 1411.5,-29.75"/>
</g>
<!-- Node16 -->
<g id="node16" class="node">
<title>Node16</title>
<g id="a_node16"><a xlink:title=" ">
<polygon fill="none" stroke="#bfbfbf" points="1456,-0.5 1456,-19.5 1516,-19.5 1516,-0.5 1456,-0.5"/>
<text text-anchor="middle" x="1486" y="-7.5" font-family="Helvetica,sans-Serif" font-size="10.00">iostream</text>
</a>
</g>
</g>
<!-- Node3&#45;&gt;Node16 -->
<g id="edge15" class="edge">
<title>Node3&#45;&gt;Node16</title>
<path fill="none" stroke="midnightblue" d="M1420.53,-56.32C1432.59,-47.98 1451.03,-35.21 1465.27,-25.35"/>
<polygon fill="midnightblue" stroke="midnightblue" points="1467.27,-28.22 1473.5,-19.65 1463.28,-22.47 1467.27,-28.22"/>
</g>
<!-- Node17 -->
<g id="node17" class="node">
<title>Node17</title>
<g id="a_node17"><a xlink:title=" ">
<polygon fill="none" stroke="#bfbfbf" points="1534.5,-0.5 1534.5,-19.5 1589.5,-19.5 1589.5,-0.5 1534.5,-0.5"/>
<text text-anchor="middle" x="1562" y="-7.5" font-family="Helvetica,sans-Serif" font-size="10.00">fstream</text>
</a>
</g>
</g>
<!-- Node3&#45;&gt;Node17 -->
<g id="edge16" class="edge">
<title>Node3&#45;&gt;Node17</title>
<path fill="none" stroke="midnightblue" d="M1432.4,-56.44C1458.2,-47.4 1499.08,-33.06 1528.02,-22.92"/>
<polygon fill="midnightblue" stroke="midnightblue" points="1529.43,-26.13 1537.71,-19.52 1527.12,-19.52 1529.43,-26.13"/>
</g>
<!-- Node18 -->
<g id="node18" class="node">
<title>Node18</title>
<g id="a_node18"><a xlink:title=" ">
<polygon fill="none" stroke="#bfbfbf" points="1608,-0.5 1608,-19.5 1652,-19.5 1652,-0.5 1608,-0.5"/>
<text text-anchor="middle" x="1630" y="-7.5" font-family="Helvetica,sans-Serif" font-size="10.00">bitset</text>
</a>
</g>
</g>
<!-- Node3&#45;&gt;Node18 -->
<g id="edge17" class="edge">
<title>Node3&#45;&gt;Node18</title>
<path fill="none" stroke="midnightblue" d="M1445.97,-56.5C1484.4,-47.77 1545.49,-33.6 1598,-20 1598.1,-19.97 1598.2,-19.95 1598.3,-19.92"/>
<polygon fill="midnightblue" stroke="midnightblue" points="1599.25,-23.29 1608,-17.32 1597.43,-16.53 1599.25,-23.29"/>
</g>
<!-- Node19 -->
<g id="node19" class="node">
<title>Node19</title>
<g id="a_node19"><a xlink:title=" ">
<polygon fill="none" stroke="#bfbfbf" points="1670,-0.5 1670,-19.5 1728,-19.5 1728,-0.5 1670,-0.5"/>
<text text-anchor="middle" x="1699" y="-7.5" font-family="Helvetica,sans-Serif" font-size="10.00">memory</text>
</a>
</g>
</g>
<!-- Node3&#45;&gt;Node19 -->
<g id="edge18" class="edge">
<title>Node3&#45;&gt;Node19</title>
<path fill="none" stroke="midnightblue" d="M1460.98,-56.47C1510.08,-48.37 1585.38,-35.43 1659.95,-20.12"/>
<polygon fill="midnightblue" stroke="midnightblue" points="1660.91,-23.5 1669.99,-18.05 1659.49,-16.65 1660.91,-23.5"/>
</g>
<!-- Node20 -->
<g id="node20" class="node">
<title>Node20</title>
<g id="a_node20"><a xlink:title=" ">
<polygon fill="none" stroke="#bfbfbf" points="1746,-0.5 1746,-19.5 1800,-19.5 1800,-0.5 1746,-0.5"/>
<text text-anchor="middle" x="1773" y="-7.5" font-family="Helvetica,sans-Serif" font-size="10.00">random</text>
</a>
</g>
</g>
<!-- Node3&#45;&gt;Node20 -->
<g id="edge19" class="edge">
<title>Node3&#45;&gt;Node20</title>
<path fill="none" stroke="midnightblue" d="M1483.19,-57.08C1547.77,-49.74 1643.51,-37.56 1735.86,-20.04"/>
<polygon fill="midnightblue" stroke="midnightblue" points="1736.78,-23.42 1745.94,-18.1 1735.46,-16.55 1736.78,-23.42"/>
</g>
<!-- Node21 -->
<g id="node21" class="node">
<title>Node21</title>
<g id="a_node21"><a xlink:title=" ">
<polygon fill="none" stroke="#bfbfbf" points="1818,-0.5 1818,-19.5 1862,-19.5 1862,-0.5 1818,-0.5"/>
<text text-anchor="middle" x="1840" y="-7.5" font-family="Helvetica,sans-Serif" font-size="10.00">string</text>
</a>
</g>
</g>
<!-- Node3&#45;&gt;Node21 -->
<g id="edge20" class="edge">
<title>Node3&#45;&gt;Node21</title>
<path fill="none" stroke="midnightblue" d="M1483.23,-60.41C1562.05,-54.73 1689.48,-43.09 1807.8,-19.93"/>
<polygon fill="midnightblue" stroke="midnightblue" points="1808.64,-23.33 1817.76,-17.95 1807.27,-16.47 1808.64,-23.33"/>
</g>
<!-- Node22 -->
<g id="node22" class="node">
<title>Node22</title>
<g id="a_node22"><a xlink:title=" ">
<polygon fill="none" stroke="#bfbfbf" points="1880.5,-0.5 1880.5,-19.5 1927.5,-19.5 1927.5,-0.5 1880.5,-0.5"/>
<text text-anchor="middle" x="1904" y="-7.5" font-family="Helvetica,sans-Serif" font-size="10.00">vector</text>
</a>
</g>
</g>
<!-- Node3&#45;&gt;Node22 -->
<g id="edge21" class="edge">
<title>Node3&#45;&gt;Node22</title>
<path fill="none" stroke="midnightblue" d="M1483.12,-61.61C1573,-56.69 1728.08,-45.41 1870.12,-19.84"/>
<polygon fill="midnightblue" stroke="midnightblue" points="1871.11,-23.22 1880.32,-17.97 1869.85,-16.33 1871.11,-23.22"/>
</g>
<!-- Node23 -->
<g id="node23" class="node">
<title>Node23</title>
<g id="a_node23"><a xlink:title=" ">
<polygon fill="none" stroke="#bfbfbf" points="1946,-0.5 1946,-19.5 1994,-19.5 1994,-0.5 1946,-0.5"/>
<text text-anchor="middle" x="1970" y="-7.5" font-family="Helvetica,sans-Serif" font-size="10.00">thread</text>
</a>
</g>
</g>
<!-- Node3&#45;&gt;Node23 -->
<g id="edge22" class="edge">
<title>Node3&#45;&gt;Node23</title>
<path fill="none" stroke="midnightblue" d="M1483.02,-62.9C1584.04,-59.11 1769.4,-48.83 1936.03,-19.85"/>
<polygon fill="midnightblue" stroke="midnightblue" points="1936.72,-23.28 1945.96,-18.1 1935.51,-16.39 1936.72,-23.28"/>
</g>
<!-- Node24 -->
<g id="node24" class="node">
<title>Node24</title>
<g id="a_node24"><a xlink:title=" ">
<polygon fill="none" stroke="#bfbfbf" points="2012,-0.5 2012,-19.5 2060,-19.5 2060,-0.5 2012,-0.5"/>
<text text-anchor="middle" x="2036" y="-7.5" font-family="Helvetica,sans-Serif" font-size="10.00">mutex</text>
</a>
</g>
</g>
<!-- Node3&#45;&gt;Node24 -->
<g id="edge23" class="edge">
<title>Node3&#45;&gt;Node24</title>
<path fill="none" stroke="midnightblue" d="M1483.24,-63.9C1594.75,-61.25 1810.44,-52.24 2002,-19.84"/>
<polygon fill="midnightblue" stroke="midnightblue" points="2002.71,-23.27 2011.97,-18.12 2001.52,-16.37 2002.71,-23.27"/>
</g>
<!-- Node25 -->
<g id="node25" class="node">
<title>Node25</title>
<g id="a_node25"><a xlink:title=" ">
<polygon fill="none" stroke="#bfbfbf" points="2078.5,-0.5 2078.5,-19.5 2125.5,-19.5 2125.5,-0.5 2078.5,-0.5"/>
<text text-anchor="middle" x="2102" y="-7.5" font-family="Helvetica,sans-Serif" font-size="10.00">queue</text>
</a>
</g>
</g>
<!-- Node3&#45;&gt;Node25 -->
<g id="edge24" class="edge">
<title>Node3&#45;&gt;Node25</title>
<path fill="none" stroke="midnightblue" d="M1483.41,-64.71C1604.87,-63.18 1851.29,-55.67 2068.35,-19.74"/>
<polygon fill="midnightblue" stroke="midnightblue" points="2069.05,-23.17 2078.33,-18.06 2067.89,-16.26 2069.05,-23.17"/>
</g>
<!-- Node26 -->
<g id="node26" class="node">
<title>Node26</title>
<g id="a_node26"><a xlink:title=" ">
<polygon fill="none" stroke="#bfbfbf" points="2144,-0.5 2144,-19.5 2182,-19.5 2182,-0.5 2144,-0.5"/>
<text text-anchor="middle" x="2163" y="-7.5" font-family="Helvetica,sans-Serif" font-size="10.00">map</text>
</a>
</g>
</g>
<!-- Node3&#45;&gt;Node26 -->
<g id="edge25" class="edge">
<title>Node3&#45;&gt;Node26</title>
<path fill="none" stroke="midnightblue" d="M1483.19,-62.72C1639.07,-57.61 1993.86,-43.94 2133.79,-19.68"/>
<polygon fill="midnightblue" stroke="midnightblue" points="2134.67,-23.08 2143.88,-17.84 2133.42,-16.19 2134.67,-23.08"/>
</g>
<!-- Node27&#45;&gt;Node2 -->
<g id="edge27" class="edge">
<title>Node27&#45;&gt;Node2</title>
<path fill="none" stroke="midnightblue" d="M1243.51,-179.48C1271.94,-170.66 1317.1,-156.67 1352.92,-145.57"/>
<polygon fill="midnightblue" stroke="midnightblue" points="1354.23,-148.83 1362.75,-142.52 1352.16,-142.14 1354.23,-148.83"/>
</g>
<!-- Node28&#45;&gt;Node2 -->
<g id="edge29" class="edge">
<title>Node28&#45;&gt;Node2</title>
<path fill="none" stroke="midnightblue" d="M711.36,-648.63C511.54,-637.76 0,-602.96 0,-531.5 0,-531.5 0,-531.5 0,-244 0,-207 18.96,-195.64 52,-179 108.92,-150.32 1038.97,-134.04 1324.98,-129.69"/>
<polygon fill="midnightblue" stroke="midnightblue" points="1325.34,-133.19 1335.29,-129.53 1325.24,-126.19 1325.34,-133.19"/>
</g>
<!-- Node29 -->
<g id="node29" class="node">
<title>Node29</title>
<g id="a_node29"><a xlink:href="../../d3/d2c/a00764.html" target="_top" xlink:title=" ">
<polygon fill="none" stroke="black" points="647.5,-582.5 647.5,-601.5 818.5,-601.5 818.5,-582.5 647.5,-582.5"/>
<text text-anchor="middle" x="733" y="-589.5" font-family="Helvetica,sans-Serif" font-size="10.00">discordcoreapi/UserEntities.hpp</text>
</a>
</g>
</g>
<!-- Node28&#45;&gt;Node29 -->
<g id="edge30" class="edge">
<title>Node28&#45;&gt;Node29</title>
<path fill="none" stroke="midnightblue" d="M776.49,-638.4C768.04,-629.58 757.12,-618.18 748.34,-609.02"/>
<polygon fill="midnightblue" stroke="midnightblue" points="750.74,-606.46 741.29,-601.66 745.68,-611.3 750.74,-606.46"/>
</g>
<!-- Node37 -->
<g id="node37" class="node">
<title>Node37</title>
<g id="a_node37"><a xlink:href="../../db/d7c/a00722.html" target="_top" xlink:title=" ">
<polygon fill="none" stroke="black" points="778,-291.5 778,-310.5 916,-310.5 916,-291.5 778,-291.5"/>
<text text-anchor="middle" x="847" y="-298.5" font-family="Helvetica,sans-Serif" font-size="10.00">discordcoreapi/Https.hpp</text>
</a>
</g>
</g>
<!-- Node28&#45;&gt;Node37 -->
<g id="edge67" class="edge">
<title>Node28&#45;&gt;Node37</title>
<path fill="none" stroke="midnightblue" d="M802.49,-638.37C810.48,-628.7 820.51,-615.28 827,-602 841.29,-572.73 847,-564.07 847,-531.5 847,-531.5 847,-531.5 847,-412 847,-379.95 847,-342.64 847,-320.75"/>
<polygon fill="midnightblue" stroke="midnightblue" points="850.5,-320.56 847,-310.56 843.5,-320.56 850.5,-320.56"/>
</g>
<!-- Node29&#45;&gt;Node2 -->
<g id="edge31" class="edge">
<title>Node29&#45;&gt;Node2</title>
<path fill="none" stroke="midnightblue" d="M647.43,-584.93C461.66,-570.59 38,-531.2 38,-470 38,-470 38,-470 38,-244 38,-207.82 54.94,-195.76 87,-179 141.91,-150.31 1044.24,-134.09 1325.18,-129.71"/>
<polygon fill="midnightblue" stroke="midnightblue" points="1325.36,-133.21 1335.31,-129.56 1325.25,-126.21 1325.36,-133.21"/>
</g>
<!-- Node30 -->
<g id="node30" class="node">
<title>Node30</title>
<g id="a_node30"><a xlink:href="../../d9/dd4/a00776.html" target="_top" xlink:title=" ">
<polygon fill="none" stroke="black" points="1336,-515.5 1336,-545.5 1480,-545.5 1480,-515.5 1336,-515.5"/>
<text text-anchor="start" x="1344" y="-533.5" font-family="Helvetica,sans-Serif" font-size="10.00">discordcoreapi/WebSocket</text>
<text text-anchor="middle" x="1408" y="-522.5" font-family="Helvetica,sans-Serif" font-size="10.00">Entities.hpp</text>
</a>
</g>
</g>
<!-- Node29&#45;&gt;Node30 -->
<g id="edge32" class="edge">
<title>Node29&#45;&gt;Node30</title>
<path fill="none" stroke="midnightblue" d="M818.83,-583.43C949.51,-571.91 1196.74,-550.12 1325.45,-538.78"/>
<polygon fill="midnightblue" stroke="midnightblue" points="1325.98,-542.24 1335.64,-537.88 1325.37,-535.27 1325.98,-542.24"/>
</g>
<!-- Node30&#45;&gt;Node2 -->
<g id="edge33" class="edge">
<title>Node30&#45;&gt;Node2</title>
<path fill="none" stroke="midnightblue" d="M1415.87,-515.41C1427,-494.13 1446,-452.21 1446,-414 1446,-414 1446,-414 1446,-244 1446,-210.72 1431.59,-174.62 1420.51,-151.8"/>
<polygon fill="midnightblue" stroke="midnightblue" points="1423.5,-149.95 1415.87,-142.59 1417.25,-153.1 1423.5,-149.95"/>
</g>
<!-- Node30&#45;&gt;Node27 -->
<g id="edge64" class="edge">
<title>Node30&#45;&gt;Node27</title>
<path fill="none" stroke="midnightblue" d="M1335.88,-522.99C1272.34,-515.82 1186.12,-502.12 1161,-479 1138.86,-458.62 1142,-444.1 1142,-414 1142,-414 1142,-414 1142,-300 1142,-260.61 1175.07,-224.73 1197,-205.26"/>
<polygon fill="midnightblue" stroke="midnightblue" points="1199.43,-207.79 1204.76,-198.64 1194.88,-202.47 1199.43,-207.79"/>
</g>
<!-- Node31 -->
<g id="node31" class="node">
<title>Node31</title>
<g id="a_node31"><a xlink:href="../../d4/d9b/a00680.html" target="_top" xlink:title=" ">
<polygon fill="none" stroke="black" points="1526.5,-235.5 1526.5,-254.5 1705.5,-254.5 1705.5,-235.5 1526.5,-235.5"/>
<text text-anchor="middle" x="1616" y="-242.5" font-family="Helvetica,sans-Serif" font-size="10.00">discordcoreapi/AudioDecoder.hpp</text>
</a>
</g>
</g>
<!-- Node30&#45;&gt;Node31 -->
<g id="edge34" class="edge">
<title>Node30&#45;&gt;Node31</title>
<path fill="none" stroke="midnightblue" d="M1480.31,-526C1554.14,-518.07 1658,-492.89 1658,-414 1658,-414 1658,-414 1658,-356 1658,-321.41 1639.65,-284.49 1627.21,-263.43"/>
<polygon fill="midnightblue" stroke="midnightblue" points="1630.06,-261.38 1621.84,-254.69 1624.09,-265.04 1630.06,-261.38"/>
</g>
<!-- Node34 -->
<g id="node34" class="node">
<title>Node34</title>
<g id="a_node34"><a xlink:href="../../d0/db6/a00692.html" target="_top" xlink:title=" ">
<polygon fill="none" stroke="black" points="1170.5,-459.5 1170.5,-478.5 1379.5,-478.5 1379.5,-459.5 1170.5,-459.5"/>
<text text-anchor="middle" x="1275" y="-466.5" font-family="Helvetica,sans-Serif" font-size="10.00">discordcoreapi/CommandController.hpp</text>
</a>
</g>
</g>
<!-- Node30&#45;&gt;Node34 -->
<g id="edge39" class="edge">
<title>Node30&#45;&gt;Node34</title>
<path fill="none" stroke="midnightblue" d="M1376.48,-515.4C1354.36,-505.51 1325.03,-492.38 1303.59,-482.79"/>
<polygon fill="midnightblue" stroke="midnightblue" points="1304.91,-479.55 1294.35,-478.66 1302.05,-485.94 1304.91,-479.55"/>
</g>
<!-- Node36 -->
<g id="node36" class="node">
<title>Node36</title>
<g id="a_node36"><a xlink:href="../../d3/d4f/a00761.html" target="_top" xlink:title=" ">
<polygon fill="none" stroke="black" points="1213.5,-347.5 1213.5,-366.5 1380.5,-366.5 1380.5,-347.5 1213.5,-347.5"/>
<text text-anchor="middle" x="1297" y="-354.5" font-family="Helvetica,sans-Serif" font-size="10.00">discordcoreapi/ThreadPool.hpp</text>
</a>
</g>
</g>
<!-- Node30&#45;&gt;Node36 -->
<g id="edge66" class="edge">
<title>Node30&#45;&gt;Node36</title>
<path fill="none" stroke="midnightblue" d="M1407.95,-515.24C1407.09,-499.31 1403.22,-473.82 1388,-459 1341.67,-413.88 1286.68,-474.08 1247,-423 1233.44,-405.55 1254.71,-385.36 1273.55,-372.17"/>
<polygon fill="midnightblue" stroke="midnightblue" points="1275.5,-375.08 1281.91,-366.64 1271.64,-369.24 1275.5,-375.08"/>
</g>
<!-- Node38 -->
<g id="node38" class="node">
<title>Node38</title>
<g id="a_node38"><a xlink:href="../../d5/de8/a00749.html" target="_top" xlink:title=" ">
<polygon fill="none" stroke="black" points="583.5,-235.5 583.5,-254.5 746.5,-254.5 746.5,-235.5 583.5,-235.5"/>
<text text-anchor="middle" x="665" y="-242.5" font-family="Helvetica,sans-Serif" font-size="10.00">discordcoreapi/SSLClients.hpp</text>
</a>
</g>
</g>
<!-- Node30&#45;&gt;Node38 -->
<g id="edge65" class="edge">
<title>Node30&#45;&gt;Node38</title>
<path fill="none" stroke="midnightblue" d="M1335.87,-524.56C1263.61,-518.23 1158.8,-504.83 1128,-479 1104.4,-459.21 1104,-444.8 1104,-414 1104,-414 1104,-414 1104,-356 1104,-285.05 885.49,-259.46 756.8,-250.54"/>
<polygon fill="midnightblue" stroke="midnightblue" points="756.76,-247.03 746.54,-249.85 756.29,-254.01 756.76,-247.03"/>
</g>
<!-- Node52 -->
<g id="node52" class="node">
<title>Node52</title>
<g id="a_node52"><a xlink:href="../../dd/d57/a00701.html" target="_top" xlink:title=" ">
<polygon fill="none" stroke="black" points="1474.5,-403.5 1474.5,-422.5 1629.5,-422.5 1629.5,-403.5 1474.5,-403.5"/>
<text text-anchor="middle" x="1552" y="-410.5" font-family="Helvetica,sans-Serif" font-size="10.00">discordcoreapi/ErlPacker.hpp</text>
</a>
</g>
</g>
<!-- Node30&#45;&gt;Node52 -->
<g id="edge62" class="edge">
<title>Node30&#45;&gt;Node52</title>
<path fill="none" stroke="midnightblue" d="M1425.66,-515.34C1453.02,-493.39 1505.41,-451.37 1533.36,-428.95"/>
<polygon fill="midnightblue" stroke="midnightblue" points="1535.58,-431.66 1541.19,-422.67 1531.2,-426.2 1535.58,-431.66"/>
</g>
<!-- Node31&#45;&gt;Node2 -->
<g id="edge36" class="edge">
<title>Node31&#45;&gt;Node2</title>
<path fill="none" stroke="midnightblue" d="M1600.37,-235.32C1566.96,-216.77 1487.93,-172.88 1442.24,-147.51"/>
<polygon fill="midnightblue" stroke="midnightblue" points="1443.74,-144.34 1433.29,-142.55 1440.34,-150.46 1443.74,-144.34"/>
</g>
<!-- Node31&#45;&gt;Node27 -->
<g id="edge35" class="edge">
<title>Node31&#45;&gt;Node27</title>
<path fill="none" stroke="midnightblue" d="M1552.62,-235.44C1481.08,-225.79 1364.88,-210.1 1289.45,-199.92"/>
<polygon fill="midnightblue" stroke="midnightblue" points="1289.46,-196.39 1279.08,-198.52 1288.53,-203.32 1289.46,-196.39"/>
</g>
<!-- Node32 -->
<g id="node32" class="node">
<title>Node32</title>
<g id="a_node32"><a xlink:title=" ">
<polygon fill="none" stroke="#bfbfbf" points="1550.5,-179.5 1550.5,-198.5 1681.5,-198.5 1681.5,-179.5 1550.5,-179.5"/>
<text text-anchor="middle" x="1616" y="-186.5" font-family="Helvetica,sans-Serif" font-size="10.00">libavformat/avformat.h</text>
</a>
</g>
</g>
<!-- Node31&#45;&gt;Node32 -->
<g id="edge37" class="edge">
<title>Node31&#45;&gt;Node32</title>
<path fill="none" stroke="midnightblue" d="M1616,-235.08C1616,-228.01 1616,-217.86 1616,-208.99"/>
<polygon fill="midnightblue" stroke="midnightblue" points="1619.5,-208.75 1616,-198.75 1612.5,-208.75 1619.5,-208.75"/>
</g>
<!-- Node33 -->
<g id="node33" class="node">
<title>Node33</title>
<g id="a_node33"><a xlink:title=" ">
<polygon fill="none" stroke="#bfbfbf" points="1699.5,-179.5 1699.5,-198.5 1858.5,-198.5 1858.5,-179.5 1699.5,-179.5"/>
<text text-anchor="middle" x="1779" y="-186.5" font-family="Helvetica,sans-Serif" font-size="10.00">libswresample/swresample.h</text>
</a>
</g>
</g>
<!-- Node31&#45;&gt;Node33 -->
<g id="edge38" class="edge">
<title>Node31&#45;&gt;Node33</title>
<path fill="none" stroke="midnightblue" d="M1641.83,-235.44C1669.25,-226.36 1712.78,-211.94 1743.43,-201.78"/>
<polygon fill="midnightblue" stroke="midnightblue" points="1744.9,-204.98 1753.29,-198.52 1742.7,-198.34 1744.9,-204.98"/>
</g>
<!-- Node34&#45;&gt;Node2 -->
<g id="edge40" class="edge">
<title>Node34&#45;&gt;Node2</title>
<path fill="none" stroke="midnightblue" d="M1263.43,-459.41C1239.18,-440.27 1186.65,-392.26 1204,-347 1238.54,-256.9 1330.51,-182.42 1378.28,-148.4"/>
<polygon fill="midnightblue" stroke="midnightblue" points="1380.48,-151.13 1386.66,-142.52 1376.46,-145.4 1380.48,-151.13"/>
</g>
<!-- Node35 -->
<g id="node35" class="node">
<title>Node35</title>
<g id="a_node35"><a xlink:href="../../d5/d5b/a00695.html" target="_top" xlink:title=" ">
<polygon fill="none" stroke="black" points="1256,-403.5 1256,-422.5 1418,-422.5 1418,-403.5 1256,-403.5"/>
<text text-anchor="middle" x="1337" y="-410.5" font-family="Helvetica,sans-Serif" font-size="10.00">discordcoreapi/CoRoutine.hpp</text>
</a>
</g>
</g>
<!-- Node34&#45;&gt;Node35 -->
<g id="edge41" class="edge">
<title>Node34&#45;&gt;Node35</title>
<path fill="none" stroke="midnightblue" d="M1284.96,-459.32C1294.13,-451.34 1307.94,-439.31 1319.03,-429.65"/>
<polygon fill="midnightblue" stroke="midnightblue" points="1321.62,-432.04 1326.86,-422.83 1317.02,-426.76 1321.62,-432.04"/>
</g>
<!-- Node35&#45;&gt;Node2 -->
<g id="edge42" class="edge">
<title>Node35&#45;&gt;Node2</title>
<path fill="none" stroke="midnightblue" d="M1350.92,-403.31C1362.7,-395.27 1379.19,-382.27 1389,-367 1405.26,-341.68 1408,-332.1 1408,-302 1408,-302 1408,-302 1408,-244 1408,-212.49 1408,-176.16 1408,-152.78"/>
<polygon fill="midnightblue" stroke="midnightblue" points="1411.5,-152.72 1408,-142.72 1404.5,-152.72 1411.5,-152.72"/>
</g>
<!-- Node35&#45;&gt;Node36 -->
<g id="edge43" class="edge">
<title>Node35&#45;&gt;Node36</title>
<path fill="none" stroke="midnightblue" d="M1330.39,-403.08C1324.74,-395.46 1316.46,-384.26 1309.55,-374.94"/>
<polygon fill="midnightblue" stroke="midnightblue" points="1312.25,-372.7 1303.48,-366.75 1306.62,-376.87 1312.25,-372.7"/>
</g>
<!-- Node36&#45;&gt;Node2 -->
<g id="edge44" class="edge">
<title>Node36&#45;&gt;Node2</title>
<path fill="none" stroke="midnightblue" d="M1297.6,-347.32C1298.69,-334.59 1301.63,-310.3 1309,-291 1329.6,-237.07 1368.21,-181.05 1390.64,-150.92"/>
<polygon fill="midnightblue" stroke="midnightblue" points="1393.55,-152.87 1396.77,-142.78 1387.96,-148.66 1393.55,-152.87"/>
</g>
<!-- Node36&#45;&gt;Node37 -->
<g id="edge45" class="edge">
<title>Node36&#45;&gt;Node37</title>
<path fill="none" stroke="midnightblue" d="M1225.7,-347.44C1144.13,-337.66 1010.95,-321.67 926.21,-311.51"/>
<polygon fill="midnightblue" stroke="midnightblue" points="926.47,-308.01 916.12,-310.29 925.64,-314.96 926.47,-308.01"/>
</g>
<!-- Node51 -->
<g id="node51" class="node">
<title>Node51</title>
<g id="a_node51"><a xlink:title=" ">
<polygon fill="none" stroke="#bfbfbf" points="1318,-291.5 1318,-310.5 1380,-310.5 1380,-291.5 1318,-291.5"/>
<text text-anchor="middle" x="1349" y="-298.5" font-family="Helvetica,sans-Serif" font-size="10.00">coroutine</text>
</a>
</g>
</g>
<!-- Node36&#45;&gt;Node51 -->
<g id="edge61" class="edge">
<title>Node36&#45;&gt;Node51</title>
<path fill="none" stroke="midnightblue" d="M1305.59,-347.08C1313.16,-339.22 1324.38,-327.57 1333.51,-318.08"/>
<polygon fill="midnightblue" stroke="midnightblue" points="1336.16,-320.38 1340.57,-310.75 1331.12,-315.53 1336.16,-320.38"/>
</g>
<!-- Node37&#45;&gt;Node38 -->
<g id="edge46" class="edge">
<title>Node37&#45;&gt;Node38</title>
<path fill="none" stroke="midnightblue" d="M818.16,-291.44C787.14,-282.24 737.67,-267.56 703.38,-257.39"/>
<polygon fill="midnightblue" stroke="midnightblue" points="704.29,-254.01 693.7,-254.52 702.29,-260.72 704.29,-254.01"/>
</g>
<!-- Node38&#45;&gt;Node2 -->
<g id="edge47" class="edge">
<title>Node38&#45;&gt;Node2</title>
<path fill="none" stroke="midnightblue" d="M583.46,-243.55C433.78,-241.86 127.44,-234.11 95,-199 88.97,-192.47 88.84,-185.41 95,-179 137.72,-134.6 1043.76,-129.18 1325.29,-128.56"/>
<polygon fill="midnightblue" stroke="midnightblue" points="1325.45,-132.06 1335.44,-128.54 1325.43,-125.06 1325.45,-132.06"/>
</g>
<!-- Node38&#45;&gt;Node27 -->
<g id="edge48" class="edge">
<title>Node38&#45;&gt;Node27</title>
<path fill="none" stroke="midnightblue" d="M746.6,-236C845.85,-226.28 1013.2,-209.87 1118.96,-199.51"/>
<polygon fill="midnightblue" stroke="midnightblue" points="1119.39,-202.98 1129,-198.53 1118.71,-196.02 1119.39,-202.98"/>
</g>
<!-- Node39 -->
<g id="node39" class="node">
<title>Node39</title>
<g id="a_node39"><a xlink:title=" ">
<polygon fill="none" stroke="#bfbfbf" points="932.5,-179.5 932.5,-198.5 1011.5,-198.5 1011.5,-179.5 932.5,-179.5"/>
<text text-anchor="middle" x="972" y="-186.5" font-family="Helvetica,sans-Serif" font-size="10.00">openssl/err.h</text>
</a>
</g>
</g>
<!-- Node38&#45;&gt;Node39 -->
<g id="edge49" class="edge">
<title>Node38&#45;&gt;Node39</title>
<path fill="none" stroke="midnightblue" d="M714.97,-235.42C764.82,-226.83 843.9,-213.12 922.36,-199.1"/>
<polygon fill="midnightblue" stroke="midnightblue" points="923.2,-202.51 932.43,-197.3 921.96,-195.62 923.2,-202.51"/>
</g>
<!-- Node40 -->
<g id="node40" class="node">
<title>Node40</title>
<g id="a_node40"><a xlink:title=" ">
<polygon fill="none" stroke="#bfbfbf" points="1030,-179.5 1030,-198.5 1110,-198.5 1110,-179.5 1030,-179.5"/>
<text text-anchor="middle" x="1070" y="-186.5" font-family="Helvetica,sans-Serif" font-size="10.00">openssl/ssl.h</text>
</a>
</g>
</g>
<!-- Node38&#45;&gt;Node40 -->
<g id="edge50" class="edge">
<title>Node38&#45;&gt;Node40</title>
<path fill="none" stroke="midnightblue" d="M741.33,-235.49C813.33,-227.18 924.2,-213.68 1020,-199 1020.1,-198.98 1020.2,-198.97 1020.3,-198.95"/>
<polygon fill="midnightblue" stroke="midnightblue" points="1020.6,-202.45 1029.91,-197.4 1019.48,-195.54 1020.6,-202.45"/>
</g>
<!-- Node41 -->
<g id="node41" class="node">
<title>Node41</title>
<g id="a_node41"><a xlink:title=" ">
<polygon fill="none" stroke="#bfbfbf" points="104.5,-179.5 104.5,-198.5 151.5,-198.5 151.5,-179.5 104.5,-179.5"/>
<text text-anchor="middle" x="128" y="-186.5" font-family="Helvetica,sans-Serif" font-size="10.00">fcntl.h</text>
</a>
</g>
</g>
<!-- Node38&#45;&gt;Node41 -->
<g id="edge51" class="edge">
<title>Node38&#45;&gt;Node41</title>
<path fill="none" stroke="midnightblue" d="M583.47,-241.38C485.27,-237.18 315.32,-226.6 161.74,-199.02"/>
<polygon fill="midnightblue" stroke="midnightblue" points="162.12,-195.53 151.65,-197.18 160.86,-202.42 162.12,-195.53"/>
</g>
<!-- Node42 -->
<g id="node42" class="node">
<title>Node42</title>
<g id="a_node42"><a xlink:title=" ">
<polygon fill="none" stroke="#bfbfbf" points="169.5,-179.5 169.5,-198.5 222.5,-198.5 222.5,-179.5 169.5,-179.5"/>
<text text-anchor="middle" x="196" y="-186.5" font-family="Helvetica,sans-Serif" font-size="10.00">netdb.h</text>
</a>
</g>
</g>
<!-- Node38&#45;&gt;Node42 -->
<g id="edge52" class="edge">
<title>Node38&#45;&gt;Node42</title>
<path fill="none" stroke="midnightblue" d="M583.12,-238.96C497.91,-232.92 360.52,-220.99 232.62,-198.86"/>
<polygon fill="midnightblue" stroke="midnightblue" points="233.1,-195.39 222.65,-197.11 231.89,-202.28 233.1,-195.39"/>
</g>
<!-- Node43 -->
<g id="node43" class="node">
<title>Node43</title>
<g id="a_node43"><a xlink:title=" ">
<polygon fill="none" stroke="#bfbfbf" points="241,-179.5 241,-198.5 313,-198.5 313,-179.5 241,-179.5"/>
<text text-anchor="middle" x="277" y="-186.5" font-family="Helvetica,sans-Serif" font-size="10.00">netinet/in.h</text>
</a>
</g>
</g>
<!-- Node38&#45;&gt;Node43 -->
<g id="edge53" class="edge">
<title>Node38&#45;&gt;Node43</title>
<path fill="none" stroke="midnightblue" d="M588.83,-235.49C521.49,-227.63 420.38,-214.99 323.3,-199.13"/>
<polygon fill="midnightblue" stroke="midnightblue" points="323.75,-195.65 313.31,-197.48 322.61,-202.56 323.75,-195.65"/>
</g>
<!-- Node44 -->
<g id="node44" class="node">
<title>Node44</title>
<g id="a_node44"><a xlink:title=" ">
<polygon fill="none" stroke="#bfbfbf" points="331,-179.5 331,-198.5 409,-198.5 409,-179.5 331,-179.5"/>
<text text-anchor="middle" x="370" y="-186.5" font-family="Helvetica,sans-Serif" font-size="10.00">netinet/tcp.h</text>
</a>
</g>
</g>
<!-- Node38&#45;&gt;Node44 -->
<g id="edge54" class="edge">
<title>Node38&#45;&gt;Node44</title>
<path fill="none" stroke="midnightblue" d="M617.64,-235.45C570.04,-226.83 494.29,-213.08 419.15,-199.2"/>
<polygon fill="midnightblue" stroke="midnightblue" points="419.5,-195.71 409.03,-197.34 418.23,-202.59 419.5,-195.71"/>
</g>
<!-- Node45 -->
<g id="node45" class="node">
<title>Node45</title>
<g id="a_node45"><a xlink:title=" ">
<polygon fill="none" stroke="#bfbfbf" points="427.5,-179.5 427.5,-198.5 480.5,-198.5 480.5,-179.5 427.5,-179.5"/>
<text text-anchor="middle" x="454" y="-186.5" font-family="Helvetica,sans-Serif" font-size="10.00">stdint.h</text>
</a>
</g>
</g>
<!-- Node38&#45;&gt;Node45 -->
<g id="edge55" class="edge">
<title>Node38&#45;&gt;Node45</title>
<path fill="none" stroke="midnightblue" d="M631.58,-235.47C598.18,-226.94 545.09,-213.38 490.58,-199.4"/>
<polygon fill="midnightblue" stroke="midnightblue" points="491.31,-195.98 480.75,-196.88 489.57,-202.76 491.31,-195.98"/>
</g>
<!-- Node46 -->
<g id="node46" class="node">
<title>Node46</title>
<g id="a_node46"><a xlink:title=" ">
<polygon fill="none" stroke="#bfbfbf" points="498.5,-179.5 498.5,-198.5 567.5,-198.5 567.5,-179.5 498.5,-179.5"/>
<text text-anchor="middle" x="533" y="-186.5" font-family="Helvetica,sans-Serif" font-size="10.00">sys/epoll.h</text>
</a>
</g>
</g>
<!-- Node38&#45;&gt;Node46 -->
<g id="edge56" class="edge">
<title>Node38&#45;&gt;Node46</title>
<path fill="none" stroke="midnightblue" d="M644.08,-235.44C622.26,-226.52 587.85,-212.44 563.11,-202.32"/>
<polygon fill="midnightblue" stroke="midnightblue" points="564.4,-199.06 553.82,-198.52 561.75,-205.54 564.4,-199.06"/>
</g>
<!-- Node47 -->
<g id="node47" class="node">
<title>Node47</title>
<g id="a_node47"><a xlink:title=" ">
<polygon fill="none" stroke="#bfbfbf" points="585.5,-179.5 585.5,-198.5 654.5,-198.5 654.5,-179.5 585.5,-179.5"/>
<text text-anchor="middle" x="620" y="-186.5" font-family="Helvetica,sans-Serif" font-size="10.00">arpa/inet.h</text>
</a>
</g>
</g>
<!-- Node38&#45;&gt;Node47 -->
<g id="edge57" class="edge">
<title>Node38&#45;&gt;Node47</title>
<path fill="none" stroke="midnightblue" d="M657.57,-235.08C651.15,-227.38 641.69,-216.03 633.88,-206.65"/>
<polygon fill="midnightblue" stroke="midnightblue" points="636.38,-204.19 627.29,-198.75 631.01,-208.67 636.38,-204.19"/>
</g>
<!-- Node48 -->
<g id="node48" class="node">
<title>Node48</title>
<g id="a_node48"><a xlink:title=" ">
<polygon fill="none" stroke="#bfbfbf" points="672.5,-179.5 672.5,-198.5 749.5,-198.5 749.5,-179.5 672.5,-179.5"/>
<text text-anchor="middle" x="711" y="-186.5" font-family="Helvetica,sans-Serif" font-size="10.00">sys/socket.h</text>
</a>
</g>
</g>
<!-- Node38&#45;&gt;Node48 -->
<g id="edge58" class="edge">
<title>Node38&#45;&gt;Node48</title>
<path fill="none" stroke="midnightblue" d="M672.6,-235.08C679.23,-227.3 689.02,-215.8 697.06,-206.37"/>
<polygon fill="midnightblue" stroke="midnightblue" points="699.73,-208.63 703.55,-198.75 694.4,-204.09 699.73,-208.63"/>
</g>
<!-- Node49 -->
<g id="node49" class="node">
<title>Node49</title>
<g id="a_node49"><a xlink:title=" ">
<polygon fill="none" stroke="#bfbfbf" points="768,-179.5 768,-198.5 840,-198.5 840,-179.5 768,-179.5"/>
<text text-anchor="middle" x="804" y="-186.5" font-family="Helvetica,sans-Serif" font-size="10.00">sys/types.h</text>
</a>
</g>
</g>
<!-- Node38&#45;&gt;Node49 -->
<g id="edge59" class="edge">
<title>Node38&#45;&gt;Node49</title>
<path fill="none" stroke="midnightblue" d="M687.02,-235.44C710.1,-226.48 746.56,-212.31 772.64,-202.18"/>
<polygon fill="midnightblue" stroke="midnightblue" points="774.02,-205.4 782.08,-198.52 771.49,-198.88 774.02,-205.4"/>
</g>
<!-- Node50 -->
<g id="node50" class="node">
<title>Node50</title>
<g id="a_node50"><a xlink:title=" ">
<polygon fill="none" stroke="#bfbfbf" points="858,-179.5 858,-198.5 914,-198.5 914,-179.5 858,-179.5"/>
<text text-anchor="middle" x="886" y="-186.5" font-family="Helvetica,sans-Serif" font-size="10.00">unistd.h</text>
</a>
</g>
</g>
<!-- Node38&#45;&gt;Node50 -->
<g id="edge60" class="edge">
<title>Node38&#45;&gt;Node50</title>
<path fill="none" stroke="midnightblue" d="M700.02,-235.44C740.38,-225.58 806.49,-209.43 848.06,-199.27"/>
<polygon fill="midnightblue" stroke="midnightblue" points="848.92,-202.66 857.81,-196.89 847.26,-195.86 848.92,-202.66"/>
</g>
<!-- Node52&#45;&gt;Node2 -->
<g id="edge63" class="edge">
<title>Node52&#45;&gt;Node2</title>
<path fill="none" stroke="midnightblue" d="M1541.97,-403.43C1523.05,-386.27 1484,-345.56 1484,-302 1484,-302 1484,-302 1484,-244 1484,-213.2 1476.8,-204.81 1460,-179 1452.92,-168.12 1443.11,-157.81 1433.91,-149.38"/>
<polygon fill="midnightblue" stroke="midnightblue" points="1436.22,-146.75 1426.4,-142.77 1431.59,-152 1436.22,-146.75"/>
</g>
<!-- Node53&#45;&gt;Node2 -->
<g id="edge69" class="edge">
<title>Node53&#45;&gt;Node2</title>
<path fill="none" stroke="midnightblue" d="M1850.59,-583.17C1906.86,-576.65 1970.64,-565.23 1991,-546 2016.32,-522.1 2010,-504.82 2010,-470 2010,-470 2010,-470 2010,-244 2010,-182.95 1947.34,-196.97 1889,-179 1816.78,-156.76 1608.31,-140.83 1490.9,-133.33"/>
<polygon fill="midnightblue" stroke="midnightblue" points="1491.08,-129.83 1480.88,-132.69 1490.64,-136.82 1491.08,-129.83"/>
</g>
<!-- Node53&#45;&gt;Node30 -->
<g id="edge74" class="edge">
<title>Node53&#45;&gt;Node30</title>
<path fill="none" stroke="midnightblue" d="M1704.43,-582.48C1648.53,-572.86 1556.76,-557.08 1490.12,-545.62"/>
<polygon fill="midnightblue" stroke="midnightblue" points="1490.51,-542.14 1480.06,-543.89 1489.32,-549.04 1490.51,-542.14"/>
</g>
<!-- Node53&#45;&gt;Node35 -->
<g id="edge73" class="edge">
<title>Node53&#45;&gt;Node35</title>
<path fill="none" stroke="midnightblue" d="M1733.89,-582.46C1666.33,-553.79 1447.3,-460.82 1366.93,-426.7"/>
<polygon fill="midnightblue" stroke="midnightblue" points="1367.97,-423.34 1357.4,-422.66 1365.24,-429.79 1367.97,-423.34"/>
</g>
<!-- Node54 -->
<g id="node54" class="node">
<title>Node54</title>
<g id="a_node54"><a xlink:href="../../db/d77/a00683.html" target="_top" xlink:title=" ">
<polygon fill="none" stroke="black" points="1724,-521 1724,-540 1902,-540 1902,-521 1724,-521"/>
<text text-anchor="middle" x="1813" y="-528" font-family="Helvetica,sans-Serif" font-size="10.00">discordcoreapi/AudioEncoder.hpp</text>
</a>
</g>
</g>
<!-- Node53&#45;&gt;Node54 -->
<g id="edge70" class="edge">
<title>Node53&#45;&gt;Node54</title>
<path fill="none" stroke="midnightblue" d="M1762.45,-582.48C1771.57,-573.28 1786.27,-558.46 1797.48,-547.16"/>
<polygon fill="midnightblue" stroke="midnightblue" points="1800.01,-549.57 1804.56,-540.01 1795.04,-544.65 1800.01,-549.57"/>
</g>
<!-- Node56 -->
<g id="node56" class="node">
<title>Node56</title>
<g id="a_node56"><a xlink:title=" ">
<polygon fill="none" stroke="#bfbfbf" points="1920,-521 1920,-540 1982,-540 1982,-521 1920,-521"/>
<text text-anchor="middle" x="1951" y="-528" font-family="Helvetica,sans-Serif" font-size="10.00">sodium.h</text>
</a>
</g>
</g>
<!-- Node53&#45;&gt;Node56 -->
<g id="edge75" class="edge">
<title>Node53&#45;&gt;Node56</title>
<path fill="none" stroke="midnightblue" d="M1786.37,-582.42C1818.25,-573.81 1868.25,-559.86 1911,-546 1913.55,-545.17 1916.18,-544.29 1918.81,-543.38"/>
<polygon fill="midnightblue" stroke="midnightblue" points="1919.98,-546.68 1928.25,-540.05 1917.65,-540.08 1919.98,-546.68"/>
</g>
<!-- Node54&#45;&gt;Node2 -->
<g id="edge71" class="edge">
<title>Node54&#45;&gt;Node2</title>
<path fill="none" stroke="midnightblue" d="M1818.69,-520.75C1846.18,-477.31 1960.06,-282.86 1867,-179 1842.41,-151.56 1616.45,-137.49 1491,-131.74"/>
<polygon fill="midnightblue" stroke="midnightblue" points="1490.82,-128.22 1480.67,-131.27 1490.5,-135.22 1490.82,-128.22"/>
</g>
<!-- Node55 -->
<g id="node55" class="node">
<title>Node55</title>
<g id="a_node55"><a xlink:title=" ">
<polygon fill="none" stroke="#bfbfbf" points="1906.5,-459.5 1906.5,-478.5 1981.5,-478.5 1981.5,-459.5 1906.5,-459.5"/>
<text text-anchor="middle" x="1944" y="-466.5" font-family="Helvetica,sans-Serif" font-size="10.00">opus/opus.h</text>
</a>
</g>
</g>
<!-- Node54&#45;&gt;Node55 -->
<g id="edge72" class="edge">
<title>Node54&#45;&gt;Node55</title>
<path fill="none" stroke="midnightblue" d="M1831.77,-520.98C1853.85,-510.95 1890.72,-494.2 1916.14,-482.65"/>
<polygon fill="midnightblue" stroke="midnightblue" points="1917.61,-485.83 1925.27,-478.51 1914.71,-479.46 1917.61,-485.83"/>
</g>
</g>
</svg>
