<?xml version="1.0" encoding="UTF-8" standalone="no"?>
<!DOCTYPE svg PUBLIC "-//W3C//DTD SVG 1.1//EN"
 "http://www.w3.org/Graphics/SVG/1.1/DTD/svg11.dtd">
<!-- Generated by graphviz version 3.0.0 (20220226.1711)
 -->
<!-- Title: SoundCloudAPI.hpp Pages: 1 -->
<svg width="2038pt" height="487pt"
 viewBox="0.00 0.00 2038.00 487.00" xmlns="http://www.w3.org/2000/svg" xmlns:xlink="http://www.w3.org/1999/xlink">
<g id="graph0" class="graph" transform="scale(1 1) rotate(0) translate(4 483)">
<title>SoundCloudAPI.hpp</title>
<!-- Node1 -->
<g id="node1" class="node">
<title>Node1</title>
<g id="a_node1"><a xlink:title=" ">
<polygon fill="#bfbfbf" stroke="black" points="685,-459.5 685,-478.5 789,-478.5 789,-459.5 685,-459.5"/>
<text text-anchor="middle" x="737" y="-466.5" font-family="Helvetica,sans-Serif" font-size="10.00">SoundCloudAPI.hpp</text>
</a>
</g>
</g>
<!-- Node2 -->
<g id="node2" class="node">
<title>Node2</title>
<g id="a_node2"><a xlink:href="../../d5/d5b/a00695.html" target="_top" xlink:title=" ">
<polygon fill="none" stroke="black" points="302,-235.5 302,-254.5 442,-254.5 442,-235.5 302,-235.5"/>
<text text-anchor="middle" x="372" y="-242.5" font-family="Helvetica,sans-Serif" font-size="10.00">discordcoreapi/Demuxer.hpp</text>
</a>
</g>
</g>
<!-- Node1&#45;&gt;Node2 -->
<g id="edge1" class="edge">
<title>Node1&#45;&gt;Node2</title>
<path fill="none" stroke="midnightblue" d="M722.69,-459.3C666.93,-425.38 463.85,-301.86 395,-259.99"/>
<polygon fill="midnightblue" stroke="midnightblue" points="396.57,-256.85 386.21,-254.64 392.93,-262.83 396.57,-256.85"/>
</g>
<!-- Node31 -->
<g id="node31" class="node">
<title>Node31</title>
<g id="a_node31"><a xlink:href="../../d4/d9b/a00680.html" target="_top" xlink:title=" ">
<polygon fill="none" stroke="black" points="0,-179.5 0,-198.5 162,-198.5 162,-179.5 0,-179.5"/>
<text text-anchor="middle" x="81" y="-186.5" font-family="Helvetica,sans-Serif" font-size="10.00">discordcoreapi/AudioEncoder.hpp</text>
</a>
</g>
</g>
<!-- Node1&#45;&gt;Node31 -->
<g id="edge32" class="edge">
<title>Node1&#45;&gt;Node31</title>
<path fill="none" stroke="midnightblue" d="M684.91,-468.7C546.14,-469.17 178,-460.74 178,-358 178,-358 178,-358 178,-300 178,-256.35 134.49,-221.83 105.76,-203.79"/>
<polygon fill="midnightblue" stroke="midnightblue" points="107.39,-200.68 97.02,-198.52 103.77,-206.68 107.39,-200.68"/>
</g>
<!-- Node32 -->
<g id="node32" class="node">
<title>Node32</title>
<g id="a_node32"><a xlink:href="../../d0/db6/a00692.html" target="_top" xlink:title=" ">
<polygon fill="none" stroke="black" points="1514,-403.5 1514,-422.5 1660,-422.5 1660,-403.5 1514,-403.5"/>
<text text-anchor="middle" x="1587" y="-410.5" font-family="Helvetica,sans-Serif" font-size="10.00">discordcoreapi/CoRoutine.hpp</text>
</a>
</g>
</g>
<!-- Node1&#45;&gt;Node32 -->
<g id="edge35" class="edge">
<title>Node1&#45;&gt;Node32</title>
<path fill="none" stroke="midnightblue" d="M789.21,-464.68C931.93,-455.62 1329.51,-430.36 1503.58,-419.3"/>
<polygon fill="midnightblue" stroke="midnightblue" points="1503.96,-422.78 1513.71,-418.66 1503.51,-415.8 1503.96,-422.78"/>
</g>
<!-- Node34 -->
<g id="node34" class="node">
<title>Node34</title>
<g id="a_node34"><a xlink:href="../../db/d7c/a00722.html" target="_top" xlink:title=" ">
<polygon fill="none" stroke="black" points="996.5,-291.5 996.5,-310.5 1121.5,-310.5 1121.5,-291.5 996.5,-291.5"/>
<text text-anchor="middle" x="1059" y="-298.5" font-family="Helvetica,sans-Serif" font-size="10.00">discordcoreapi/Https.hpp</text>
</a>
</g>
</g>
<!-- Node1&#45;&gt;Node34 -->
<g id="edge56" class="edge">
<title>Node1&#45;&gt;Node34</title>
<path fill="none" stroke="midnightblue" d="M753.86,-459.31C806.78,-432.02 969.87,-347.95 1033.35,-315.22"/>
<polygon fill="midnightblue" stroke="midnightblue" points="1035.02,-318.3 1042.31,-310.61 1031.82,-312.08 1035.02,-318.3"/>
</g>
<!-- Node3 -->
<g id="node3" class="node">
<title>Node3</title>
<g id="a_node3"><a xlink:href="../../d4/d6a/a00704.html" target="_top" xlink:title=" ">
<polygon fill="none" stroke="black" points="400,-179.5 400,-198.5 558,-198.5 558,-179.5 400,-179.5"/>
<text text-anchor="middle" x="479" y="-186.5" font-family="Helvetica,sans-Serif" font-size="10.00">discordcoreapi/EventEntities.hpp</text>
</a>
</g>
</g>
<!-- Node2&#45;&gt;Node3 -->
<g id="edge2" class="edge">
<title>Node2&#45;&gt;Node3</title>
<path fill="none" stroke="midnightblue" d="M389.19,-235.32C406.35,-226.66 432.95,-213.24 452.75,-203.25"/>
<polygon fill="midnightblue" stroke="midnightblue" points="454.5,-206.28 461.85,-198.65 451.35,-200.04 454.5,-206.28"/>
</g>
<!-- Node4 -->
<g id="node4" class="node">
<title>Node4</title>
<g id="a_node4"><a xlink:href="../../d4/deb/a00710.html" target="_top" xlink:title=" ">
<polygon fill="none" stroke="black" points="1194.5,-112.5 1194.5,-142.5 1325.5,-142.5 1325.5,-112.5 1194.5,-112.5"/>
<text text-anchor="start" x="1202.5" y="-130.5" font-family="Helvetica,sans-Serif" font-size="10.00">discordcoreapi/Foundation</text>
<text text-anchor="middle" x="1260" y="-119.5" font-family="Helvetica,sans-Serif" font-size="10.00">Entities.hpp</text>
</a>
</g>
</g>
<!-- Node2&#45;&gt;Node4 -->
<g id="edge29" class="edge">
<title>Node2&#45;&gt;Node4</title>
<path fill="none" stroke="midnightblue" d="M371.65,-235.13C371.61,-220.76 373.89,-192.62 391,-179 452.27,-130.23 983.99,-127.33 1184.19,-127.99"/>
<polygon fill="midnightblue" stroke="midnightblue" points="1184.31,-131.49 1194.33,-128.03 1184.34,-124.49 1184.31,-131.49"/>
</g>
<!-- Node15 -->
<g id="node15" class="node">
<title>Node15</title>
<g id="a_node15"><a xlink:title=" ">
<polygon fill="none" stroke="#bfbfbf" points="226,-0.5 226,-19.5 296,-19.5 296,-0.5 226,-0.5"/>
<text text-anchor="middle" x="261" y="-7.5" font-family="Helvetica,sans-Serif" font-size="10.00">opus/opus.h</text>
</a>
</g>
</g>
<!-- Node2&#45;&gt;Node15 -->
<g id="edge30" class="edge">
<title>Node2&#45;&gt;Node15</title>
<path fill="none" stroke="midnightblue" d="M367.92,-235.43C351.77,-201.54 292.17,-76.42 269.67,-29.2"/>
<polygon fill="midnightblue" stroke="midnightblue" points="272.7,-27.42 265.24,-19.9 266.38,-30.43 272.7,-27.42"/>
</g>
<!-- Node30 -->
<g id="node30" class="node">
<title>Node30</title>
<g id="a_node30"><a xlink:title=" ">
<polygon fill="none" stroke="#bfbfbf" points="180,-179.5 180,-198.5 306,-198.5 306,-179.5 180,-179.5"/>
<text text-anchor="middle" x="243" y="-186.5" font-family="Helvetica,sans-Serif" font-size="10.00">opus/opus_multistream.h</text>
</a>
</g>
</g>
<!-- Node2&#45;&gt;Node30 -->
<g id="edge31" class="edge">
<title>Node2&#45;&gt;Node30</title>
<path fill="none" stroke="midnightblue" d="M351.56,-235.44C330.33,-226.56 296.9,-212.56 272.75,-202.45"/>
<polygon fill="midnightblue" stroke="midnightblue" points="273.92,-199.15 263.34,-198.52 271.22,-205.61 273.92,-199.15"/>
</g>
<!-- Node3&#45;&gt;Node4 -->
<g id="edge3" class="edge">
<title>Node3&#45;&gt;Node4</title>
<path fill="none" stroke="midnightblue" d="M558.14,-179.8C561.13,-179.52 564.09,-179.25 567,-179 791.06,-159.38 1056.35,-141.55 1183.96,-133.31"/>
<polygon fill="midnightblue" stroke="midnightblue" points="1184.26,-136.8 1194.02,-132.66 1183.81,-129.82 1184.26,-136.8"/>
</g>
<!-- Node5 -->
<g id="node5" class="node">
<title>Node5</title>
<g id="a_node5"><a xlink:href="../../d5/dae/a00767.html" target="_top" xlink:title=" ">
<polygon fill="none" stroke="black" points="1193,-56.5 1193,-75.5 1327,-75.5 1327,-56.5 1193,-56.5"/>
<text text-anchor="middle" x="1260" y="-63.5" font-family="Helvetica,sans-Serif" font-size="10.00">discordcoreapi/Utilities.hpp</text>
</a>
</g>
</g>
<!-- Node4&#45;&gt;Node5 -->
<g id="edge4" class="edge">
<title>Node4&#45;&gt;Node5</title>
<path fill="none" stroke="midnightblue" d="M1260,-112.4C1260,-104.47 1260,-94.46 1260,-85.86"/>
<polygon fill="midnightblue" stroke="midnightblue" points="1263.5,-85.66 1260,-75.66 1256.5,-85.66 1263.5,-85.66"/>
</g>
<!-- Node6 -->
<g id="node6" class="node">
<title>Node6</title>
<g id="a_node6"><a xlink:title=" ">
<polygon fill="none" stroke="#bfbfbf" points="1892.5,-0.5 1892.5,-19.5 1949.5,-19.5 1949.5,-0.5 1892.5,-0.5"/>
<text text-anchor="middle" x="1921" y="-7.5" font-family="Helvetica,sans-Serif" font-size="10.00">pthread.h</text>
</a>
</g>
</g>
<!-- Node5&#45;&gt;Node6 -->
<g id="edge5" class="edge">
<title>Node5&#45;&gt;Node6</title>
<path fill="none" stroke="midnightblue" d="M1327.36,-63.81C1440.38,-61.02 1675.34,-51.76 1882.27,-20.03"/>
<polygon fill="midnightblue" stroke="midnightblue" points="1883.07,-23.45 1892.41,-18.45 1881.99,-16.53 1883.07,-23.45"/>
</g>
<!-- Node7 -->
<g id="node7" class="node">
<title>Node7</title>
<g id="a_node7"><a xlink:title=" ">
<polygon fill="none" stroke="#bfbfbf" points="1968,-0.5 1968,-19.5 2030,-19.5 2030,-0.5 1968,-0.5"/>
<text text-anchor="middle" x="1999" y="-7.5" font-family="Helvetica,sans-Serif" font-size="10.00">sys/time.h</text>
</a>
</g>
</g>
<!-- Node5&#45;&gt;Node7 -->
<g id="edge6" class="edge">
<title>Node5&#45;&gt;Node7</title>
<path fill="none" stroke="midnightblue" d="M1327.35,-64.17C1450.66,-61.89 1721,-53.35 1957.48,-20"/>
<polygon fill="midnightblue" stroke="midnightblue" points="1958.24,-23.42 1967.64,-18.54 1957.25,-16.49 1958.24,-23.42"/>
</g>
<!-- Node8 -->
<g id="node8" class="node">
<title>Node8</title>
<g id="a_node8"><a xlink:title=" ">
<polygon fill="none" stroke="#bfbfbf" points="314,-0.5 314,-19.5 358,-19.5 358,-0.5 314,-0.5"/>
<text text-anchor="middle" x="336" y="-7.5" font-family="Helvetica,sans-Serif" font-size="10.00">time.h</text>
</a>
</g>
</g>
<!-- Node5&#45;&gt;Node8 -->
<g id="edge7" class="edge">
<title>Node5&#45;&gt;Node8</title>
<path fill="none" stroke="midnightblue" d="M1192.77,-63.63C1016.7,-59.74 544.19,-47.16 368.12,-19.73"/>
<polygon fill="midnightblue" stroke="midnightblue" points="368.64,-16.27 358.21,-18.12 367.52,-23.18 368.64,-16.27"/>
</g>
<!-- Node9 -->
<g id="node9" class="node">
<title>Node9</title>
<g id="a_node9"><a xlink:title=" ">
<polygon fill="none" stroke="#bfbfbf" points="376.5,-0.5 376.5,-19.5 417.5,-19.5 417.5,-0.5 376.5,-0.5"/>
<text text-anchor="middle" x="397" y="-7.5" font-family="Helvetica,sans-Serif" font-size="10.00">ctime</text>
</a>
</g>
</g>
<!-- Node5&#45;&gt;Node9 -->
<g id="edge8" class="edge">
<title>Node5&#45;&gt;Node9</title>
<path fill="none" stroke="midnightblue" d="M1192.87,-63.51C1025.33,-59.47 591.04,-46.84 427.66,-19.83"/>
<polygon fill="midnightblue" stroke="midnightblue" points="428.21,-16.37 417.76,-18.12 427.01,-23.27 428.21,-16.37"/>
</g>
<!-- Node10 -->
<g id="node10" class="node">
<title>Node10</title>
<g id="a_node10"><a xlink:title=" ">
<polygon fill="none" stroke="#bfbfbf" points="435.5,-0.5 435.5,-19.5 528.5,-19.5 528.5,-0.5 435.5,-0.5"/>
<text text-anchor="middle" x="482" y="-7.5" font-family="Helvetica,sans-Serif" font-size="10.00">condition_variable</text>
</a>
</g>
</g>
<!-- Node5&#45;&gt;Node10 -->
<g id="edge9" class="edge">
<title>Node5&#45;&gt;Node10</title>
<path fill="none" stroke="midnightblue" d="M1192.62,-62.98C1066.45,-58.73 785.78,-47.02 538.95,-19.99"/>
<polygon fill="midnightblue" stroke="midnightblue" points="539.03,-16.47 528.7,-18.85 538.26,-23.43 539.03,-16.47"/>
</g>
<!-- Node11 -->
<g id="node11" class="node">
<title>Node11</title>
<g id="a_node11"><a xlink:title=" ">
<polygon fill="none" stroke="#bfbfbf" points="547,-0.5 547,-19.5 645,-19.5 645,-0.5 547,-0.5"/>
<text text-anchor="middle" x="596" y="-7.5" font-family="Helvetica,sans-Serif" font-size="10.00">nlohmann/json.hpp</text>
</a>
</g>
</g>
<!-- Node5&#45;&gt;Node11 -->
<g id="edge10" class="edge">
<title>Node5&#45;&gt;Node11</title>
<path fill="none" stroke="midnightblue" d="M1192.58,-61.75C1082.38,-56.06 856.61,-42.78 655.19,-20.05"/>
<polygon fill="midnightblue" stroke="midnightblue" points="655.34,-16.54 645.01,-18.89 654.55,-23.5 655.34,-16.54"/>
</g>
<!-- Node12 -->
<g id="node12" class="node">
<title>Node12</title>
<g id="a_node12"><a xlink:title=" ">
<polygon fill="none" stroke="#bfbfbf" points="663.5,-0.5 663.5,-19.5 748.5,-19.5 748.5,-0.5 663.5,-0.5"/>
<text text-anchor="middle" x="706" y="-7.5" font-family="Helvetica,sans-Serif" font-size="10.00">source_location</text>
</a>
</g>
</g>
<!-- Node5&#45;&gt;Node12 -->
<g id="edge11" class="edge">
<title>Node5&#45;&gt;Node12</title>
<path fill="none" stroke="midnightblue" d="M1192.68,-60.81C1097.98,-54.52 919.85,-41.18 758.64,-20.12"/>
<polygon fill="midnightblue" stroke="midnightblue" points="758.91,-16.62 748.53,-18.79 757.99,-23.56 758.91,-16.62"/>
</g>
<!-- Node13 -->
<g id="node13" class="node">
<title>Node13</title>
<g id="a_node13"><a xlink:title=" ">
<polygon fill="none" stroke="#bfbfbf" points="766.5,-0.5 766.5,-19.5 849.5,-19.5 849.5,-0.5 766.5,-0.5"/>
<text text-anchor="middle" x="808" y="-7.5" font-family="Helvetica,sans-Serif" font-size="10.00">unordered_map</text>
</a>
</g>
</g>
<!-- Node5&#45;&gt;Node13 -->
<g id="edge12" class="edge">
<title>Node5&#45;&gt;Node13</title>
<path fill="none" stroke="midnightblue" d="M1192.79,-58.76C1115.1,-51.26 983.19,-37.62 859.73,-20.02"/>
<polygon fill="midnightblue" stroke="midnightblue" points="860.11,-16.54 849.71,-18.58 859.11,-23.47 860.11,-16.54"/>
</g>
<!-- Node14 -->
<g id="node14" class="node">
<title>Node14</title>
<g id="a_node14"><a xlink:title=" ">
<polygon fill="none" stroke="#bfbfbf" points="868,-0.5 868,-19.5 946,-19.5 946,-0.5 868,-0.5"/>
<text text-anchor="middle" x="907" y="-7.5" font-family="Helvetica,sans-Serif" font-size="10.00">shared_mutex</text>
</a>
</g>
</g>
<!-- Node5&#45;&gt;Node14 -->
<g id="edge13" class="edge">
<title>Node5&#45;&gt;Node14</title>
<path fill="none" stroke="midnightblue" d="M1197.39,-56.49C1137.88,-48.23 1045.63,-35.01 956.07,-20.13"/>
<polygon fill="midnightblue" stroke="midnightblue" points="956.45,-16.64 946.01,-18.45 955.3,-23.55 956.45,-16.64"/>
</g>
<!-- Node5&#45;&gt;Node15 -->
<g id="edge14" class="edge">
<title>Node5&#45;&gt;Node15</title>
<path fill="none" stroke="midnightblue" d="M1192.83,-65.39C1038,-65.54 644.05,-61.51 306.44,-19.98"/>
<polygon fill="midnightblue" stroke="midnightblue" points="306.82,-16.5 296.46,-18.74 305.96,-23.45 306.82,-16.5"/>
</g>
<!-- Node16 -->
<g id="node16" class="node">
<title>Node16</title>
<g id="a_node16"><a xlink:title=" ">
<polygon fill="none" stroke="#bfbfbf" points="964,-0.5 964,-19.5 1022,-19.5 1022,-0.5 964,-0.5"/>
<text text-anchor="middle" x="993" y="-7.5" font-family="Helvetica,sans-Serif" font-size="10.00">functional</text>
</a>
</g>
</g>
<!-- Node5&#45;&gt;Node16 -->
<g id="edge15" class="edge">
<title>Node5&#45;&gt;Node16</title>
<path fill="none" stroke="midnightblue" d="M1214.49,-56.46C1170.48,-48.1 1101.65,-34.77 1032.17,-19.98"/>
<polygon fill="midnightblue" stroke="midnightblue" points="1032.88,-16.55 1022.36,-17.88 1031.41,-23.4 1032.88,-16.55"/>
</g>
<!-- Node17 -->
<g id="node17" class="node">
<title>Node17</title>
<g id="a_node17"><a xlink:title=" ">
<polygon fill="none" stroke="#bfbfbf" points="1040.5,-0.5 1040.5,-19.5 1105.5,-19.5 1105.5,-0.5 1040.5,-0.5"/>
<text text-anchor="middle" x="1073" y="-7.5" font-family="Helvetica,sans-Serif" font-size="10.00">semaphore</text>
</a>
</g>
</g>
<!-- Node5&#45;&gt;Node17 -->
<g id="edge16" class="edge">
<title>Node5&#45;&gt;Node17</title>
<path fill="none" stroke="midnightblue" d="M1230.37,-56.44C1198.5,-47.24 1147.67,-32.56 1112.44,-22.39"/>
<polygon fill="midnightblue" stroke="midnightblue" points="1113.07,-18.93 1102.49,-19.52 1111.13,-25.65 1113.07,-18.93"/>
</g>
<!-- Node18 -->
<g id="node18" class="node">
<title>Node18</title>
<g id="a_node18"><a xlink:title=" ">
<polygon fill="none" stroke="#bfbfbf" points="1124,-0.5 1124,-19.5 1180,-19.5 1180,-0.5 1124,-0.5"/>
<text text-anchor="middle" x="1152" y="-7.5" font-family="Helvetica,sans-Serif" font-size="10.00">concepts</text>
</a>
</g>
</g>
<!-- Node5&#45;&gt;Node18 -->
<g id="edge17" class="edge">
<title>Node5&#45;&gt;Node18</title>
<path fill="none" stroke="midnightblue" d="M1242.65,-56.32C1225.33,-47.66 1198.48,-34.24 1178.5,-24.25"/>
<polygon fill="midnightblue" stroke="midnightblue" points="1179.82,-21 1169.31,-19.65 1176.69,-27.26 1179.82,-21"/>
</g>
<!-- Node19 -->
<g id="node19" class="node">
<title>Node19</title>
<g id="a_node19"><a xlink:title=" ">
<polygon fill="none" stroke="#bfbfbf" points="1198,-0.5 1198,-19.5 1252,-19.5 1252,-0.5 1198,-0.5"/>
<text text-anchor="middle" x="1225" y="-7.5" font-family="Helvetica,sans-Serif" font-size="10.00">iostream</text>
</a>
</g>
</g>
<!-- Node5&#45;&gt;Node19 -->
<g id="edge18" class="edge">
<title>Node5&#45;&gt;Node19</title>
<path fill="none" stroke="midnightblue" d="M1254.22,-56.08C1249.33,-48.53 1242.17,-37.49 1236.17,-28.23"/>
<polygon fill="midnightblue" stroke="midnightblue" points="1239.05,-26.24 1230.67,-19.75 1233.17,-30.05 1239.05,-26.24"/>
</g>
<!-- Node20 -->
<g id="node20" class="node">
<title>Node20</title>
<g id="a_node20"><a xlink:title=" ">
<polygon fill="none" stroke="#bfbfbf" points="1270.5,-0.5 1270.5,-19.5 1319.5,-19.5 1319.5,-0.5 1270.5,-0.5"/>
<text text-anchor="middle" x="1295" y="-7.5" font-family="Helvetica,sans-Serif" font-size="10.00">fstream</text>
</a>
</g>
</g>
<!-- Node5&#45;&gt;Node20 -->
<g id="edge19" class="edge">
<title>Node5&#45;&gt;Node20</title>
<path fill="none" stroke="midnightblue" d="M1265.78,-56.08C1270.67,-48.53 1277.83,-37.49 1283.83,-28.23"/>
<polygon fill="midnightblue" stroke="midnightblue" points="1286.83,-30.05 1289.33,-19.75 1280.95,-26.24 1286.83,-30.05"/>
</g>
<!-- Node21 -->
<g id="node21" class="node">
<title>Node21</title>
<g id="a_node21"><a xlink:title=" ">
<polygon fill="none" stroke="#bfbfbf" points="1337.5,-0.5 1337.5,-19.5 1378.5,-19.5 1378.5,-0.5 1337.5,-0.5"/>
<text text-anchor="middle" x="1358" y="-7.5" font-family="Helvetica,sans-Serif" font-size="10.00">bitset</text>
</a>
</g>
</g>
<!-- Node5&#45;&gt;Node21 -->
<g id="edge20" class="edge">
<title>Node5&#45;&gt;Node21</title>
<path fill="none" stroke="midnightblue" d="M1275.75,-56.32C1291.32,-47.74 1315.38,-34.49 1333.46,-24.52"/>
<polygon fill="midnightblue" stroke="midnightblue" points="1335.22,-27.55 1342.29,-19.65 1331.85,-21.42 1335.22,-27.55"/>
</g>
<!-- Node22 -->
<g id="node22" class="node">
<title>Node22</title>
<g id="a_node22"><a xlink:title=" ">
<polygon fill="none" stroke="#bfbfbf" points="1397,-0.5 1397,-19.5 1449,-19.5 1449,-0.5 1397,-0.5"/>
<text text-anchor="middle" x="1423" y="-7.5" font-family="Helvetica,sans-Serif" font-size="10.00">memory</text>
</a>
</g>
</g>
<!-- Node5&#45;&gt;Node22 -->
<g id="edge21" class="edge">
<title>Node5&#45;&gt;Node22</title>
<path fill="none" stroke="midnightblue" d="M1285.83,-56.44C1313.25,-47.36 1356.78,-32.94 1387.43,-22.78"/>
<polygon fill="midnightblue" stroke="midnightblue" points="1388.9,-25.98 1397.29,-19.52 1386.7,-19.34 1388.9,-25.98"/>
</g>
<!-- Node23 -->
<g id="node23" class="node">
<title>Node23</title>
<g id="a_node23"><a xlink:title=" ">
<polygon fill="none" stroke="#bfbfbf" points="1467.5,-0.5 1467.5,-19.5 1516.5,-19.5 1516.5,-0.5 1467.5,-0.5"/>
<text text-anchor="middle" x="1492" y="-7.5" font-family="Helvetica,sans-Serif" font-size="10.00">random</text>
</a>
</g>
</g>
<!-- Node5&#45;&gt;Node23 -->
<g id="edge22" class="edge">
<title>Node5&#45;&gt;Node23</title>
<path fill="none" stroke="midnightblue" d="M1299.54,-56.44C1337.55,-48.12 1396.83,-34.9 1457.41,-20.08"/>
<polygon fill="midnightblue" stroke="midnightblue" points="1458.27,-23.47 1467.14,-17.69 1456.6,-16.68 1458.27,-23.47"/>
</g>
<!-- Node24 -->
<g id="node24" class="node">
<title>Node24</title>
<g id="a_node24"><a xlink:title=" ">
<polygon fill="none" stroke="#bfbfbf" points="1534.5,-0.5 1534.5,-19.5 1575.5,-19.5 1575.5,-0.5 1534.5,-0.5"/>
<text text-anchor="middle" x="1555" y="-7.5" font-family="Helvetica,sans-Serif" font-size="10.00">string</text>
</a>
</g>
</g>
<!-- Node5&#45;&gt;Node24 -->
<g id="edge23" class="edge">
<title>Node5&#45;&gt;Node24</title>
<path fill="none" stroke="midnightblue" d="M1324.99,-56.48C1376.82,-49.12 1451.38,-37.27 1524.64,-20.08"/>
<polygon fill="midnightblue" stroke="midnightblue" points="1525.58,-23.46 1534.5,-17.73 1523.96,-16.65 1525.58,-23.46"/>
</g>
<!-- Node25 -->
<g id="node25" class="node">
<title>Node25</title>
<g id="a_node25"><a xlink:title=" ">
<polygon fill="none" stroke="#bfbfbf" points="1594,-0.5 1594,-19.5 1636,-19.5 1636,-0.5 1594,-0.5"/>
<text text-anchor="middle" x="1615" y="-7.5" font-family="Helvetica,sans-Serif" font-size="10.00">vector</text>
</a>
</g>
</g>
<!-- Node5&#45;&gt;Node25 -->
<g id="edge24" class="edge">
<title>Node5&#45;&gt;Node25</title>
<path fill="none" stroke="midnightblue" d="M1327.13,-58.75C1390.96,-52.12 1489.75,-40.08 1583.83,-19.97"/>
<polygon fill="midnightblue" stroke="midnightblue" points="1584.77,-23.34 1593.8,-17.8 1583.29,-16.5 1584.77,-23.34"/>
</g>
<!-- Node26 -->
<g id="node26" class="node">
<title>Node26</title>
<g id="a_node26"><a xlink:title=" ">
<polygon fill="none" stroke="#bfbfbf" points="1654,-0.5 1654,-19.5 1698,-19.5 1698,-0.5 1654,-0.5"/>
<text text-anchor="middle" x="1676" y="-7.5" font-family="Helvetica,sans-Serif" font-size="10.00">thread</text>
</a>
</g>
</g>
<!-- Node5&#45;&gt;Node26 -->
<g id="edge25" class="edge">
<title>Node5&#45;&gt;Node26</title>
<path fill="none" stroke="midnightblue" d="M1327.3,-60.54C1402.38,-54.8 1527.51,-42.96 1643.63,-19.98"/>
<polygon fill="midnightblue" stroke="midnightblue" points="1644.65,-23.34 1653.76,-17.94 1643.27,-16.48 1644.65,-23.34"/>
</g>
<!-- Node27 -->
<g id="node27" class="node">
<title>Node27</title>
<g id="a_node27"><a xlink:title=" ">
<polygon fill="none" stroke="#bfbfbf" points="1716,-0.5 1716,-19.5 1760,-19.5 1760,-0.5 1716,-0.5"/>
<text text-anchor="middle" x="1738" y="-7.5" font-family="Helvetica,sans-Serif" font-size="10.00">mutex</text>
</a>
</g>
</g>
<!-- Node5&#45;&gt;Node27 -->
<g id="edge26" class="edge">
<title>Node5&#45;&gt;Node27</title>
<path fill="none" stroke="midnightblue" d="M1327.2,-62.06C1413.08,-57.44 1566.37,-46.36 1705.76,-19.91"/>
<polygon fill="midnightblue" stroke="midnightblue" points="1706.61,-23.31 1715.77,-17.98 1705.29,-16.44 1706.61,-23.31"/>
</g>
<!-- Node28 -->
<g id="node28" class="node">
<title>Node28</title>
<g id="a_node28"><a xlink:title=" ">
<polygon fill="none" stroke="#bfbfbf" points="1778.5,-0.5 1778.5,-19.5 1821.5,-19.5 1821.5,-0.5 1778.5,-0.5"/>
<text text-anchor="middle" x="1800" y="-7.5" font-family="Helvetica,sans-Serif" font-size="10.00">queue</text>
</a>
</g>
</g>
<!-- Node5&#45;&gt;Node28 -->
<g id="edge27" class="edge">
<title>Node5&#45;&gt;Node28</title>
<path fill="none" stroke="midnightblue" d="M1327.26,-63.21C1423.21,-59.74 1604.85,-49.77 1768.21,-19.75"/>
<polygon fill="midnightblue" stroke="midnightblue" points="1769.26,-23.11 1778.45,-17.84 1767.98,-16.23 1769.26,-23.11"/>
</g>
<!-- Node29 -->
<g id="node29" class="node">
<title>Node29</title>
<g id="a_node29"><a xlink:title=" ">
<polygon fill="none" stroke="#bfbfbf" points="1839.5,-0.5 1839.5,-19.5 1874.5,-19.5 1874.5,-0.5 1839.5,-0.5"/>
<text text-anchor="middle" x="1857" y="-7.5" font-family="Helvetica,sans-Serif" font-size="10.00">map</text>
</a>
</g>
</g>
<!-- Node5&#45;&gt;Node29 -->
<g id="edge28" class="edge">
<title>Node5&#45;&gt;Node29</title>
<path fill="none" stroke="midnightblue" d="M1327.15,-65.21C1432.8,-64.33 1644.06,-57.71 1829.35,-19.87"/>
<polygon fill="midnightblue" stroke="midnightblue" points="1830.19,-23.27 1839.27,-17.81 1828.76,-16.41 1830.19,-23.27"/>
</g>
<!-- Node31&#45;&gt;Node4 -->
<g id="edge33" class="edge">
<title>Node31&#45;&gt;Node4</title>
<path fill="none" stroke="midnightblue" d="M162.42,-179.66C165.31,-179.43 168.18,-179.21 171,-179 551.06,-151.21 1006.91,-135.89 1184.24,-130.62"/>
<polygon fill="midnightblue" stroke="midnightblue" points="1184.36,-134.12 1194.25,-130.33 1184.15,-127.12 1184.36,-134.12"/>
</g>
<!-- Node31&#45;&gt;Node15 -->
<g id="edge34" class="edge">
<title>Node31&#45;&gt;Node15</title>
<path fill="none" stroke="midnightblue" d="M89.68,-179.46C117.89,-151.73 207.26,-63.85 244.48,-27.24"/>
<polygon fill="midnightblue" stroke="midnightblue" points="247.31,-29.38 251.98,-19.87 242.4,-24.38 247.31,-29.38"/>
</g>
<!-- Node32&#45;&gt;Node4 -->
<g id="edge36" class="edge">
<title>Node32&#45;&gt;Node4</title>
<path fill="none" stroke="midnightblue" d="M1612.68,-403.47C1631,-396.26 1655.11,-384.3 1671,-367 1692.28,-343.83 1699,-333.46 1699,-302 1699,-302 1699,-302 1699,-244 1699,-169.84 1461.72,-142.29 1336.05,-132.91"/>
<polygon fill="midnightblue" stroke="midnightblue" points="1335.95,-129.39 1325.72,-132.16 1335.44,-136.37 1335.95,-129.39"/>
</g>
<!-- Node33 -->
<g id="node33" class="node">
<title>Node33</title>
<g id="a_node33"><a xlink:href="../../d3/d4f/a00761.html" target="_top" xlink:title=" ">
<polygon fill="none" stroke="black" points="1512,-347.5 1512,-366.5 1662,-366.5 1662,-347.5 1512,-347.5"/>
<text text-anchor="middle" x="1587" y="-354.5" font-family="Helvetica,sans-Serif" font-size="10.00">discordcoreapi/ThreadPool.hpp</text>
</a>
</g>
</g>
<!-- Node32&#45;&gt;Node33 -->
<g id="edge37" class="edge">
<title>Node32&#45;&gt;Node33</title>
<path fill="none" stroke="midnightblue" d="M1587,-403.08C1587,-396.01 1587,-385.86 1587,-376.99"/>
<polygon fill="midnightblue" stroke="midnightblue" points="1590.5,-376.75 1587,-366.75 1583.5,-376.75 1590.5,-376.75"/>
</g>
<!-- Node33&#45;&gt;Node4 -->
<g id="edge38" class="edge">
<title>Node33&#45;&gt;Node4</title>
<path fill="none" stroke="midnightblue" d="M1589.3,-347.15C1596.19,-318.45 1613.45,-227.05 1568,-179 1537.07,-146.3 1416.56,-134.77 1335.77,-130.71"/>
<polygon fill="midnightblue" stroke="midnightblue" points="1335.78,-127.21 1325.63,-130.23 1335.45,-134.2 1335.78,-127.21"/>
</g>
<!-- Node33&#45;&gt;Node34 -->
<g id="edge39" class="edge">
<title>Node33&#45;&gt;Node34</title>
<path fill="none" stroke="midnightblue" d="M1511.91,-348.32C1410.75,-337.97 1231.89,-319.68 1131.88,-309.45"/>
<polygon fill="midnightblue" stroke="midnightblue" points="1132.16,-305.96 1121.86,-308.43 1131.45,-312.93 1132.16,-305.96"/>
</g>
<!-- Node48 -->
<g id="node48" class="node">
<title>Node48</title>
<g id="a_node48"><a xlink:title=" ">
<polygon fill="none" stroke="#bfbfbf" points="1615,-291.5 1615,-310.5 1671,-310.5 1671,-291.5 1615,-291.5"/>
<text text-anchor="middle" x="1643" y="-298.5" font-family="Helvetica,sans-Serif" font-size="10.00">coroutine</text>
</a>
</g>
</g>
<!-- Node33&#45;&gt;Node48 -->
<g id="edge55" class="edge">
<title>Node33&#45;&gt;Node48</title>
<path fill="none" stroke="midnightblue" d="M1596,-347.32C1604.19,-339.42 1616.51,-327.55 1626.47,-317.94"/>
<polygon fill="midnightblue" stroke="midnightblue" points="1629.07,-320.29 1633.84,-310.83 1624.21,-315.26 1629.07,-320.29"/>
</g>
<!-- Node35 -->
<g id="node35" class="node">
<title>Node35</title>
<g id="a_node35"><a xlink:href="../../d5/de8/a00749.html" target="_top" xlink:title=" ">
<polygon fill="none" stroke="black" points="984,-235.5 984,-254.5 1134,-254.5 1134,-235.5 984,-235.5"/>
<text text-anchor="middle" x="1059" y="-242.5" font-family="Helvetica,sans-Serif" font-size="10.00">discordcoreapi/SSLClients.hpp</text>
</a>
</g>
</g>
<!-- Node34&#45;&gt;Node35 -->
<g id="edge40" class="edge">
<title>Node34&#45;&gt;Node35</title>
<path fill="none" stroke="midnightblue" d="M1059,-291.08C1059,-284.01 1059,-273.86 1059,-264.99"/>
<polygon fill="midnightblue" stroke="midnightblue" points="1062.5,-264.75 1059,-254.75 1055.5,-264.75 1062.5,-264.75"/>
</g>
<!-- Node35&#45;&gt;Node3 -->
<g id="edge42" class="edge">
<title>Node35&#45;&gt;Node3</title>
<path fill="none" stroke="midnightblue" d="M983.96,-237.39C889.53,-229.01 722.08,-213.97 568.26,-199.11"/>
<polygon fill="midnightblue" stroke="midnightblue" points="568.44,-195.61 558.15,-198.14 567.77,-202.58 568.44,-195.61"/>
</g>
<!-- Node35&#45;&gt;Node4 -->
<g id="edge41" class="edge">
<title>Node35&#45;&gt;Node4</title>
<path fill="none" stroke="midnightblue" d="M1134.29,-240.92C1244.89,-235.62 1440.58,-222.94 1462,-199 1502.5,-153.72 1408.8,-137.52 1335.84,-131.73"/>
<polygon fill="midnightblue" stroke="midnightblue" points="1335.93,-128.22 1325.7,-130.98 1335.42,-135.21 1335.93,-128.22"/>
</g>
<!-- Node36 -->
<g id="node36" class="node">
<title>Node36</title>
<g id="a_node36"><a xlink:title=" ">
<polygon fill="none" stroke="#bfbfbf" points="1225.5,-179.5 1225.5,-198.5 1298.5,-198.5 1298.5,-179.5 1225.5,-179.5"/>
<text text-anchor="middle" x="1262" y="-186.5" font-family="Helvetica,sans-Serif" font-size="10.00">openssl/err.h</text>
</a>
</g>
</g>
<!-- Node35&#45;&gt;Node36 -->
<g id="edge43" class="edge">
<title>Node35&#45;&gt;Node36</title>
<path fill="none" stroke="midnightblue" d="M1091.17,-235.44C1126.06,-226.16 1181.89,-211.31 1220.17,-201.13"/>
<polygon fill="midnightblue" stroke="midnightblue" points="1221.22,-204.47 1229.98,-198.52 1219.42,-197.7 1221.22,-204.47"/>
</g>
<!-- Node37 -->
<g id="node37" class="node">
<title>Node37</title>
<g id="a_node37"><a xlink:title=" ">
<polygon fill="none" stroke="#bfbfbf" points="1317,-179.5 1317,-198.5 1391,-198.5 1391,-179.5 1317,-179.5"/>
<text text-anchor="middle" x="1354" y="-186.5" font-family="Helvetica,sans-Serif" font-size="10.00">openssl/ssl.h</text>
</a>
</g>
</g>
<!-- Node35&#45;&gt;Node37 -->
<g id="edge44" class="edge">
<title>Node35&#45;&gt;Node37</title>
<path fill="none" stroke="midnightblue" d="M1107.24,-235.49C1155.27,-226.98 1231.39,-213.35 1306.71,-199.22"/>
<polygon fill="midnightblue" stroke="midnightblue" points="1307.67,-202.6 1316.85,-197.32 1306.38,-195.72 1307.67,-202.6"/>
</g>
<!-- Node38 -->
<g id="node38" class="node">
<title>Node38</title>
<g id="a_node38"><a xlink:title=" ">
<polygon fill="none" stroke="#bfbfbf" points="1409.5,-179.5 1409.5,-198.5 1452.5,-198.5 1452.5,-179.5 1409.5,-179.5"/>
<text text-anchor="middle" x="1431" y="-186.5" font-family="Helvetica,sans-Serif" font-size="10.00">fcntl.h</text>
</a>
</g>
</g>
<!-- Node35&#45;&gt;Node38 -->
<g id="edge45" class="edge">
<title>Node35&#45;&gt;Node38</title>
<path fill="none" stroke="midnightblue" d="M1134.05,-237.39C1201.21,-230.73 1302.42,-218.84 1399.45,-198.81"/>
<polygon fill="midnightblue" stroke="midnightblue" points="1400.36,-202.19 1409.43,-196.72 1398.92,-195.34 1400.36,-202.19"/>
</g>
<!-- Node39 -->
<g id="node39" class="node">
<title>Node39</title>
<g id="a_node39"><a xlink:title=" ">
<polygon fill="none" stroke="#bfbfbf" points="1509.5,-179.5 1509.5,-198.5 1558.5,-198.5 1558.5,-179.5 1509.5,-179.5"/>
<text text-anchor="middle" x="1534" y="-186.5" font-family="Helvetica,sans-Serif" font-size="10.00">netdb.h</text>
</a>
</g>
</g>
<!-- Node35&#45;&gt;Node39 -->
<g id="edge46" class="edge">
<title>Node35&#45;&gt;Node39</title>
<path fill="none" stroke="midnightblue" d="M1134.21,-239.08C1221.41,-232.72 1369.27,-219.91 1495,-199 1496.46,-198.76 1497.94,-198.49 1499.44,-198.21"/>
<polygon fill="midnightblue" stroke="midnightblue" points="1500.24,-201.62 1509.33,-196.18 1498.83,-194.76 1500.24,-201.62"/>
</g>
<!-- Node40 -->
<g id="node40" class="node">
<title>Node40</title>
<g id="a_node40"><a xlink:title=" ">
<polygon fill="none" stroke="#bfbfbf" points="576.5,-179.5 576.5,-198.5 641.5,-198.5 641.5,-179.5 576.5,-179.5"/>
<text text-anchor="middle" x="609" y="-186.5" font-family="Helvetica,sans-Serif" font-size="10.00">netinet/in.h</text>
</a>
</g>
</g>
<!-- Node35&#45;&gt;Node40 -->
<g id="edge47" class="edge">
<title>Node35&#45;&gt;Node40</title>
<path fill="none" stroke="midnightblue" d="M983.67,-238.13C903.61,-231.35 773.16,-218.74 651.82,-199.16"/>
<polygon fill="midnightblue" stroke="midnightblue" points="652.05,-195.65 641.61,-197.49 650.92,-202.55 652.05,-195.65"/>
</g>
<!-- Node41 -->
<g id="node41" class="node">
<title>Node41</title>
<g id="a_node41"><a xlink:title=" ">
<polygon fill="none" stroke="#bfbfbf" points="659.5,-179.5 659.5,-198.5 730.5,-198.5 730.5,-179.5 659.5,-179.5"/>
<text text-anchor="middle" x="695" y="-186.5" font-family="Helvetica,sans-Serif" font-size="10.00">netinet/tcp.h</text>
</a>
</g>
</g>
<!-- Node35&#45;&gt;Node41 -->
<g id="edge48" class="edge">
<title>Node35&#45;&gt;Node41</title>
<path fill="none" stroke="midnightblue" d="M989.52,-235.49C926.85,-227.53 831.93,-214.76 740.49,-199.17"/>
<polygon fill="midnightblue" stroke="midnightblue" points="740.95,-195.7 730.51,-197.46 739.77,-202.6 740.95,-195.7"/>
</g>
<!-- Node42 -->
<g id="node42" class="node">
<title>Node42</title>
<g id="a_node42"><a xlink:title=" ">
<polygon fill="none" stroke="#bfbfbf" points="748.5,-179.5 748.5,-198.5 797.5,-198.5 797.5,-179.5 748.5,-179.5"/>
<text text-anchor="middle" x="773" y="-186.5" font-family="Helvetica,sans-Serif" font-size="10.00">stdint.h</text>
</a>
</g>
</g>
<!-- Node35&#45;&gt;Node42 -->
<g id="edge49" class="edge">
<title>Node35&#45;&gt;Node42</title>
<path fill="none" stroke="midnightblue" d="M1003.68,-235.46C954.65,-227.59 880.93,-215.02 807.69,-199"/>
<polygon fill="midnightblue" stroke="midnightblue" points="808.34,-195.56 797.82,-196.82 806.83,-202.4 808.34,-195.56"/>
</g>
<!-- Node43 -->
<g id="node43" class="node">
<title>Node43</title>
<g id="a_node43"><a xlink:title=" ">
<polygon fill="none" stroke="#bfbfbf" points="816,-179.5 816,-198.5 880,-198.5 880,-179.5 816,-179.5"/>
<text text-anchor="middle" x="848" y="-186.5" font-family="Helvetica,sans-Serif" font-size="10.00">sys/epoll.h</text>
</a>
</g>
</g>
<!-- Node35&#45;&gt;Node43 -->
<g id="edge50" class="edge">
<title>Node35&#45;&gt;Node43</title>
<path fill="none" stroke="midnightblue" d="M1025.57,-235.44C988.9,-226.06 929.99,-210.98 890.17,-200.79"/>
<polygon fill="midnightblue" stroke="midnightblue" points="890.79,-197.34 880.24,-198.25 889.06,-204.12 890.79,-197.34"/>
</g>
<!-- Node44 -->
<g id="node44" class="node">
<title>Node44</title>
<g id="a_node44"><a xlink:title=" ">
<polygon fill="none" stroke="#bfbfbf" points="898,-179.5 898,-198.5 960,-198.5 960,-179.5 898,-179.5"/>
<text text-anchor="middle" x="929" y="-186.5" font-family="Helvetica,sans-Serif" font-size="10.00">arpa/inet.h</text>
</a>
</g>
</g>
<!-- Node35&#45;&gt;Node44 -->
<g id="edge51" class="edge">
<title>Node35&#45;&gt;Node44</title>
<path fill="none" stroke="midnightblue" d="M1038.4,-235.44C1017.01,-226.56 983.32,-212.56 958.98,-202.45"/>
<polygon fill="midnightblue" stroke="midnightblue" points="960.08,-199.12 949.5,-198.52 957.39,-205.58 960.08,-199.12"/>
</g>
<!-- Node45 -->
<g id="node45" class="node">
<title>Node45</title>
<g id="a_node45"><a xlink:title=" ">
<polygon fill="none" stroke="#bfbfbf" points="978.5,-179.5 978.5,-198.5 1051.5,-198.5 1051.5,-179.5 978.5,-179.5"/>
<text text-anchor="middle" x="1015" y="-186.5" font-family="Helvetica,sans-Serif" font-size="10.00">sys/socket.h</text>
</a>
</g>
</g>
<!-- Node35&#45;&gt;Node45 -->
<g id="edge52" class="edge">
<title>Node35&#45;&gt;Node45</title>
<path fill="none" stroke="midnightblue" d="M1051.73,-235.08C1045.46,-227.38 1036.21,-216.03 1028.57,-206.65"/>
<polygon fill="midnightblue" stroke="midnightblue" points="1031.16,-204.29 1022.13,-198.75 1025.73,-208.71 1031.16,-204.29"/>
</g>
<!-- Node46 -->
<g id="node46" class="node">
<title>Node46</title>
<g id="a_node46"><a xlink:title=" ">
<polygon fill="none" stroke="#bfbfbf" points="1070,-179.5 1070,-198.5 1138,-198.5 1138,-179.5 1070,-179.5"/>
<text text-anchor="middle" x="1104" y="-186.5" font-family="Helvetica,sans-Serif" font-size="10.00">sys/types.h</text>
</a>
</g>
</g>
<!-- Node35&#45;&gt;Node46 -->
<g id="edge53" class="edge">
<title>Node35&#45;&gt;Node46</title>
<path fill="none" stroke="midnightblue" d="M1066.43,-235.08C1072.85,-227.38 1082.31,-216.03 1090.12,-206.65"/>
<polygon fill="midnightblue" stroke="midnightblue" points="1092.99,-208.67 1096.71,-198.75 1087.62,-204.19 1092.99,-208.67"/>
</g>
<!-- Node47 -->
<g id="node47" class="node">
<title>Node47</title>
<g id="a_node47"><a xlink:title=" ">
<polygon fill="none" stroke="#bfbfbf" points="1156.5,-179.5 1156.5,-198.5 1207.5,-198.5 1207.5,-179.5 1156.5,-179.5"/>
<text text-anchor="middle" x="1182" y="-186.5" font-family="Helvetica,sans-Serif" font-size="10.00">unistd.h</text>
</a>
</g>
</g>
<!-- Node35&#45;&gt;Node47 -->
<g id="edge54" class="edge">
<title>Node35&#45;&gt;Node47</title>
<path fill="none" stroke="midnightblue" d="M1078.49,-235.44C1098.64,-226.6 1130.32,-212.69 1153.33,-202.59"/>
<polygon fill="midnightblue" stroke="midnightblue" points="1154.85,-205.74 1162.6,-198.52 1152.04,-199.33 1154.85,-205.74"/>
</g>
</g>
</svg>
