<?xml version="1.0" encoding="UTF-8" standalone="no"?>
<!DOCTYPE svg PUBLIC "-//W3C//DTD SVG 1.1//EN"
 "http://www.w3.org/Graphics/SVG/1.1/DTD/svg11.dtd">
<!-- Generated by graphviz version 2.43.0 (0)
 -->
<!-- Title: SoundCloudAPI.hpp Pages: 1 -->
<svg width="1882pt" height="487pt"
 viewBox="0.00 0.00 1881.50 487.00" xmlns="http://www.w3.org/2000/svg" xmlns:xlink="http://www.w3.org/1999/xlink">
<g id="graph0" class="graph" transform="scale(1 1) rotate(0) translate(4 483)">
<title>SoundCloudAPI.hpp</title>
<!-- Node1 -->
<g id="node1" class="node">
<title>Node1</title>
<g id="a_node1"><a xlink:title=" ">
<polygon fill="#bfbfbf" stroke="black" points="1478,-459.5 1478,-478.5 1589,-478.5 1589,-459.5 1478,-459.5"/>
<text text-anchor="middle" x="1533.5" y="-466.5" font-family="Helvetica,sans-Serif" font-size="10.00">SoundCloudAPI.hpp</text>
</a>
</g>
</g>
<!-- Node2 -->
<g id="node2" class="node">
<title>Node2</title>
<g id="a_node2"><a xlink:href="../../d4/d9b/a00680.html" target="_top" xlink:title=" ">
<polygon fill="none" stroke="black" points="247,-235.5 247,-254.5 426,-254.5 426,-235.5 247,-235.5"/>
<text text-anchor="middle" x="336.5" y="-242.5" font-family="Helvetica,sans-Serif" font-size="10.00">discordcoreapi/AudioDecoder.hpp</text>
</a>
</g>
</g>
<!-- Node1&#45;&gt;Node2 -->
<g id="edge1" class="edge">
<title>Node1&#45;&gt;Node2</title>
<path fill="none" stroke="midnightblue" d="M1487.31,-459.43C1299.92,-424.68 596.73,-294.26 392.47,-256.38"/>
<polygon fill="midnightblue" stroke="midnightblue" points="393.02,-252.92 382.55,-254.54 391.75,-259.81 393.02,-252.92"/>
</g>
<!-- Node31 -->
<g id="node31" class="node">
<title>Node31</title>
<g id="a_node31"><a xlink:href="../../db/d77/a00683.html" target="_top" xlink:title=" ">
<polygon fill="none" stroke="black" points="1688.5,-403.5 1688.5,-422.5 1866.5,-422.5 1866.5,-403.5 1688.5,-403.5"/>
<text text-anchor="middle" x="1777.5" y="-410.5" font-family="Helvetica,sans-Serif" font-size="10.00">discordcoreapi/AudioEncoder.hpp</text>
</a>
</g>
</g>
<!-- Node1&#45;&gt;Node31 -->
<g id="edge31" class="edge">
<title>Node1&#45;&gt;Node31</title>
<path fill="none" stroke="midnightblue" d="M1572.16,-459.44C1614.64,-450.04 1682.93,-434.93 1728.97,-424.74"/>
<polygon fill="midnightblue" stroke="midnightblue" points="1730.01,-428.09 1739.02,-422.52 1728.5,-421.26 1730.01,-428.09"/>
</g>
<!-- Node33 -->
<g id="node33" class="node">
<title>Node33</title>
<g id="a_node33"><a xlink:href="../../d5/d5b/a00695.html" target="_top" xlink:title=" ">
<polygon fill="none" stroke="black" points="1508.5,-403.5 1508.5,-422.5 1670.5,-422.5 1670.5,-403.5 1508.5,-403.5"/>
<text text-anchor="middle" x="1589.5" y="-410.5" font-family="Helvetica,sans-Serif" font-size="10.00">discordcoreapi/CoRoutine.hpp</text>
</a>
</g>
</g>
<!-- Node1&#45;&gt;Node33 -->
<g id="edge34" class="edge">
<title>Node1&#45;&gt;Node33</title>
<path fill="none" stroke="midnightblue" d="M1542.5,-459.32C1550.69,-451.42 1563.01,-439.55 1572.97,-429.94"/>
<polygon fill="midnightblue" stroke="midnightblue" points="1575.57,-432.29 1580.34,-422.83 1570.71,-427.26 1575.57,-432.29"/>
</g>
<!-- Node35 -->
<g id="node35" class="node">
<title>Node35</title>
<g id="a_node35"><a xlink:href="../../db/d7c/a00722.html" target="_top" xlink:title=" ">
<polygon fill="none" stroke="black" points="1410.5,-291.5 1410.5,-310.5 1548.5,-310.5 1548.5,-291.5 1410.5,-291.5"/>
<text text-anchor="middle" x="1479.5" y="-298.5" font-family="Helvetica,sans-Serif" font-size="10.00">discordcoreapi/Https.hpp</text>
</a>
</g>
</g>
<!-- Node1&#45;&gt;Node35 -->
<g id="edge55" class="edge">
<title>Node1&#45;&gt;Node35</title>
<path fill="none" stroke="midnightblue" d="M1524.75,-459.19C1516.83,-450.68 1505.52,-437.04 1499.5,-423 1484.86,-388.88 1480.88,-345.1 1479.84,-320.65"/>
<polygon fill="midnightblue" stroke="midnightblue" points="1483.33,-320.49 1479.53,-310.6 1476.34,-320.71 1483.33,-320.49"/>
</g>
<!-- Node3 -->
<g id="node3" class="node">
<title>Node3</title>
<g id="a_node3"><a xlink:href="../../d4/d6a/a00704.html" target="_top" xlink:title=" ">
<polygon fill="none" stroke="black" points="364.5,-179.5 364.5,-198.5 540.5,-198.5 540.5,-179.5 364.5,-179.5"/>
<text text-anchor="middle" x="452.5" y="-186.5" font-family="Helvetica,sans-Serif" font-size="10.00">discordcoreapi/EventEntities.hpp</text>
</a>
</g>
</g>
<!-- Node2&#45;&gt;Node3 -->
<g id="edge2" class="edge">
<title>Node2&#45;&gt;Node3</title>
<path fill="none" stroke="midnightblue" d="M354.88,-235.44C373.72,-226.68 403.23,-212.94 424.88,-202.86"/>
<polygon fill="midnightblue" stroke="midnightblue" points="426.62,-205.91 434.21,-198.52 423.66,-199.56 426.62,-205.91"/>
</g>
<!-- Node4 -->
<g id="node4" class="node">
<title>Node4</title>
<g id="a_node4"><a xlink:href="../../d4/deb/a00710.html" target="_top" xlink:title=" ">
<polygon fill="none" stroke="black" points="1027,-112.5 1027,-142.5 1172,-142.5 1172,-112.5 1027,-112.5"/>
<text text-anchor="start" x="1035" y="-130.5" font-family="Helvetica,sans-Serif" font-size="10.00">discordcoreapi/Foundation</text>
<text text-anchor="middle" x="1099.5" y="-119.5" font-family="Helvetica,sans-Serif" font-size="10.00">Entities.hpp</text>
</a>
</g>
</g>
<!-- Node2&#45;&gt;Node4 -->
<g id="edge28" class="edge">
<title>Node2&#45;&gt;Node4</title>
<path fill="none" stroke="midnightblue" d="M336.16,-235.15C336.15,-220.81 338.46,-192.7 355.5,-179 406.07,-138.35 833.64,-130.4 1016.78,-128.86"/>
<polygon fill="midnightblue" stroke="midnightblue" points="1016.93,-132.36 1026.9,-128.78 1016.87,-125.36 1016.93,-132.36"/>
</g>
<!-- Node29 -->
<g id="node29" class="node">
<title>Node29</title>
<g id="a_node29"><a xlink:title=" ">
<polygon fill="none" stroke="#bfbfbf" points="177,-179.5 177,-198.5 308,-198.5 308,-179.5 177,-179.5"/>
<text text-anchor="middle" x="242.5" y="-186.5" font-family="Helvetica,sans-Serif" font-size="10.00">libavformat/avformat.h</text>
</a>
</g>
</g>
<!-- Node2&#45;&gt;Node29 -->
<g id="edge29" class="edge">
<title>Node2&#45;&gt;Node29</title>
<path fill="none" stroke="midnightblue" d="M321.4,-235.32C306.6,-226.82 283.81,-213.73 266.52,-203.8"/>
<polygon fill="midnightblue" stroke="midnightblue" points="267.98,-200.6 257.57,-198.65 264.49,-206.67 267.98,-200.6"/>
</g>
<!-- Node30 -->
<g id="node30" class="node">
<title>Node30</title>
<g id="a_node30"><a xlink:title=" ">
<polygon fill="none" stroke="#bfbfbf" points="0,-179.5 0,-198.5 159,-198.5 159,-179.5 0,-179.5"/>
<text text-anchor="middle" x="79.5" y="-186.5" font-family="Helvetica,sans-Serif" font-size="10.00">libswresample/swresample.h</text>
</a>
</g>
</g>
<!-- Node2&#45;&gt;Node30 -->
<g id="edge30" class="edge">
<title>Node2&#45;&gt;Node30</title>
<path fill="none" stroke="midnightblue" d="M295.78,-235.44C250.85,-226 178.5,-210.8 130,-200.61"/>
<polygon fill="midnightblue" stroke="midnightblue" points="130.54,-197.15 120.03,-198.52 129.1,-204 130.54,-197.15"/>
</g>
<!-- Node3&#45;&gt;Node4 -->
<g id="edge3" class="edge">
<title>Node3&#45;&gt;Node4</title>
<path fill="none" stroke="midnightblue" d="M540.77,-179.88C666.22,-168.35 894.43,-147.36 1016.77,-136.11"/>
<polygon fill="midnightblue" stroke="midnightblue" points="1017.2,-139.58 1026.84,-135.18 1016.56,-132.61 1017.2,-139.58"/>
</g>
<!-- Node5 -->
<g id="node5" class="node">
<title>Node5</title>
<g id="a_node5"><a xlink:href="../../d5/dae/a00767.html" target="_top" xlink:title=" ">
<polygon fill="none" stroke="black" points="1024.5,-56.5 1024.5,-75.5 1174.5,-75.5 1174.5,-56.5 1024.5,-56.5"/>
<text text-anchor="middle" x="1099.5" y="-63.5" font-family="Helvetica,sans-Serif" font-size="10.00">discordcoreapi/Utilities.hpp</text>
</a>
</g>
</g>
<!-- Node4&#45;&gt;Node5 -->
<g id="edge4" class="edge">
<title>Node4&#45;&gt;Node5</title>
<path fill="none" stroke="midnightblue" d="M1099.5,-112.4C1099.5,-104.47 1099.5,-94.46 1099.5,-85.86"/>
<polygon fill="midnightblue" stroke="midnightblue" points="1103,-85.66 1099.5,-75.66 1096,-85.66 1103,-85.66"/>
</g>
<!-- Node6 -->
<g id="node6" class="node">
<title>Node6</title>
<g id="a_node6"><a xlink:title=" ">
<polygon fill="none" stroke="#bfbfbf" points="20,-0.5 20,-19.5 83,-19.5 83,-0.5 20,-0.5"/>
<text text-anchor="middle" x="51.5" y="-7.5" font-family="Helvetica,sans-Serif" font-size="10.00">pthread.h</text>
</a>
</g>
</g>
<!-- Node5&#45;&gt;Node6 -->
<g id="edge5" class="edge">
<title>Node5&#45;&gt;Node6</title>
<path fill="none" stroke="midnightblue" d="M1024.15,-63.31C825.75,-58.59 291.21,-44.11 93.21,-19.8"/>
<polygon fill="midnightblue" stroke="midnightblue" points="93.55,-16.31 83.19,-18.52 92.67,-23.26 93.55,-16.31"/>
</g>
<!-- Node7 -->
<g id="node7" class="node">
<title>Node7</title>
<g id="a_node7"><a xlink:title=" ">
<polygon fill="none" stroke="#bfbfbf" points="101.5,-0.5 101.5,-19.5 169.5,-19.5 169.5,-0.5 101.5,-0.5"/>
<text text-anchor="middle" x="135.5" y="-7.5" font-family="Helvetica,sans-Serif" font-size="10.00">sys/time.h</text>
</a>
</g>
</g>
<!-- Node5&#45;&gt;Node7 -->
<g id="edge6" class="edge">
<title>Node5&#45;&gt;Node7</title>
<path fill="none" stroke="midnightblue" d="M1024.24,-65.32C868.34,-65.13 498.76,-60.16 180.05,-19.98"/>
<polygon fill="midnightblue" stroke="midnightblue" points="180.05,-16.45 169.69,-18.66 179.16,-23.4 180.05,-16.45"/>
</g>
<!-- Node8 -->
<g id="node8" class="node">
<title>Node8</title>
<g id="a_node8"><a xlink:title=" ">
<polygon fill="none" stroke="#bfbfbf" points="187.5,-0.5 187.5,-19.5 235.5,-19.5 235.5,-0.5 187.5,-0.5"/>
<text text-anchor="middle" x="211.5" y="-7.5" font-family="Helvetica,sans-Serif" font-size="10.00">time.h</text>
</a>
</g>
</g>
<!-- Node5&#45;&gt;Node8 -->
<g id="edge7" class="edge">
<title>Node5&#45;&gt;Node8</title>
<path fill="none" stroke="midnightblue" d="M1024.22,-63.1C848.05,-58.33 411.93,-44.55 245.61,-19.76"/>
<polygon fill="midnightblue" stroke="midnightblue" points="245.94,-16.27 235.52,-18.19 244.86,-23.19 245.94,-16.27"/>
</g>
<!-- Node9 -->
<g id="node9" class="node">
<title>Node9</title>
<g id="a_node9"><a xlink:title=" ">
<polygon fill="none" stroke="#bfbfbf" points="253.5,-0.5 253.5,-19.5 297.5,-19.5 297.5,-0.5 253.5,-0.5"/>
<text text-anchor="middle" x="275.5" y="-7.5" font-family="Helvetica,sans-Serif" font-size="10.00">ctime</text>
</a>
</g>
</g>
<!-- Node5&#45;&gt;Node9 -->
<g id="edge8" class="edge">
<title>Node5&#45;&gt;Node9</title>
<path fill="none" stroke="midnightblue" d="M1024.33,-62.9C857.88,-57.91 461.44,-44.04 307.9,-19.79"/>
<polygon fill="midnightblue" stroke="midnightblue" points="308.15,-16.28 297.71,-18.1 307,-23.19 308.15,-16.28"/>
</g>
<!-- Node10 -->
<g id="node10" class="node">
<title>Node10</title>
<g id="a_node10"><a xlink:title=" ">
<polygon fill="none" stroke="#bfbfbf" points="316,-0.5 316,-19.5 423,-19.5 423,-0.5 316,-0.5"/>
<text text-anchor="middle" x="369.5" y="-7.5" font-family="Helvetica,sans-Serif" font-size="10.00">condition_variable</text>
</a>
</g>
</g>
<!-- Node5&#45;&gt;Node10 -->
<g id="edge9" class="edge">
<title>Node5&#45;&gt;Node10</title>
<path fill="none" stroke="midnightblue" d="M1024.32,-61.76C902.52,-56.1 654.28,-42.89 433.25,-19.99"/>
<polygon fill="midnightblue" stroke="midnightblue" points="433.39,-16.49 423.08,-18.93 432.66,-23.45 433.39,-16.49"/>
</g>
<!-- Node11 -->
<g id="node11" class="node">
<title>Node11</title>
<g id="a_node11"><a xlink:title=" ">
<polygon fill="none" stroke="#bfbfbf" points="441.5,-0.5 441.5,-19.5 551.5,-19.5 551.5,-0.5 441.5,-0.5"/>
<text text-anchor="middle" x="496.5" y="-7.5" font-family="Helvetica,sans-Serif" font-size="10.00">nlohmann/json.hpp</text>
</a>
</g>
</g>
<!-- Node5&#45;&gt;Node11 -->
<g id="edge10" class="edge">
<title>Node5&#45;&gt;Node11</title>
<path fill="none" stroke="midnightblue" d="M1024.38,-60.07C922.09,-53.06 733.05,-39.04 561.6,-20.06"/>
<polygon fill="midnightblue" stroke="midnightblue" points="561.96,-16.58 551.63,-18.95 561.18,-23.54 561.96,-16.58"/>
</g>
<!-- Node12 -->
<g id="node12" class="node">
<title>Node12</title>
<g id="a_node12"><a xlink:title=" ">
<polygon fill="none" stroke="#bfbfbf" points="570,-0.5 570,-19.5 663,-19.5 663,-0.5 570,-0.5"/>
<text text-anchor="middle" x="616.5" y="-7.5" font-family="Helvetica,sans-Serif" font-size="10.00">source_location</text>
</a>
</g>
</g>
<!-- Node5&#45;&gt;Node12 -->
<g id="edge11" class="edge">
<title>Node5&#45;&gt;Node12</title>
<path fill="none" stroke="midnightblue" d="M1024.35,-58.42C940.93,-50.81 802.07,-37.27 673.32,-20.18"/>
<polygon fill="midnightblue" stroke="midnightblue" points="673.66,-16.7 663.28,-18.84 672.73,-23.64 673.66,-16.7"/>
</g>
<!-- Node13 -->
<g id="node13" class="node">
<title>Node13</title>
<g id="a_node13"><a xlink:title=" ">
<polygon fill="none" stroke="#bfbfbf" points="681,-0.5 681,-19.5 774,-19.5 774,-0.5 681,-0.5"/>
<text text-anchor="middle" x="727.5" y="-7.5" font-family="Helvetica,sans-Serif" font-size="10.00">unordered_map</text>
</a>
</g>
</g>
<!-- Node5&#45;&gt;Node13 -->
<g id="edge12" class="edge">
<title>Node5&#45;&gt;Node13</title>
<path fill="none" stroke="midnightblue" d="M1037.39,-56.49C975.82,-47.98 878.51,-34.32 784.24,-20.09"/>
<polygon fill="midnightblue" stroke="midnightblue" points="784.65,-16.61 774.24,-18.58 783.6,-23.53 784.65,-16.61"/>
</g>
<!-- Node14 -->
<g id="node14" class="node">
<title>Node14</title>
<g id="a_node14"><a xlink:title=" ">
<polygon fill="none" stroke="#bfbfbf" points="792.5,-0.5 792.5,-19.5 878.5,-19.5 878.5,-0.5 792.5,-0.5"/>
<text text-anchor="middle" x="835.5" y="-7.5" font-family="Helvetica,sans-Serif" font-size="10.00">shared_mutex</text>
</a>
</g>
</g>
<!-- Node5&#45;&gt;Node14 -->
<g id="edge13" class="edge">
<title>Node5&#45;&gt;Node14</title>
<path fill="none" stroke="midnightblue" d="M1057.67,-56.44C1011.42,-46.98 936.89,-31.74 887.06,-21.55"/>
<polygon fill="midnightblue" stroke="midnightblue" points="887.63,-18.09 877.14,-19.52 886.23,-24.95 887.63,-18.09"/>
</g>
<!-- Node15 -->
<g id="node15" class="node">
<title>Node15</title>
<g id="a_node15"><a xlink:title=" ">
<polygon fill="none" stroke="#bfbfbf" points="897,-0.5 897,-19.5 962,-19.5 962,-0.5 897,-0.5"/>
<text text-anchor="middle" x="929.5" y="-7.5" font-family="Helvetica,sans-Serif" font-size="10.00">functional</text>
</a>
</g>
</g>
<!-- Node5&#45;&gt;Node15 -->
<g id="edge14" class="edge">
<title>Node5&#45;&gt;Node15</title>
<path fill="none" stroke="midnightblue" d="M1072.56,-56.44C1043.84,-47.32 998.17,-32.81 966.18,-22.65"/>
<polygon fill="midnightblue" stroke="midnightblue" points="966.9,-19.21 956.31,-19.52 964.78,-25.88 966.9,-19.21"/>
</g>
<!-- Node16 -->
<g id="node16" class="node">
<title>Node16</title>
<g id="a_node16"><a xlink:title=" ">
<polygon fill="none" stroke="#bfbfbf" points="980,-0.5 980,-19.5 1051,-19.5 1051,-0.5 980,-0.5"/>
<text text-anchor="middle" x="1015.5" y="-7.5" font-family="Helvetica,sans-Serif" font-size="10.00">semaphore</text>
</a>
</g>
</g>
<!-- Node5&#45;&gt;Node16 -->
<g id="edge15" class="edge">
<title>Node5&#45;&gt;Node16</title>
<path fill="none" stroke="midnightblue" d="M1086,-56.32C1072.9,-47.9 1052.79,-34.97 1037.39,-25.07"/>
<polygon fill="midnightblue" stroke="midnightblue" points="1039.27,-22.12 1028.96,-19.65 1035.48,-28.01 1039.27,-22.12"/>
</g>
<!-- Node17 -->
<g id="node17" class="node">
<title>Node17</title>
<g id="a_node17"><a xlink:title=" ">
<polygon fill="none" stroke="#bfbfbf" points="1069.5,-0.5 1069.5,-19.5 1129.5,-19.5 1129.5,-0.5 1069.5,-0.5"/>
<text text-anchor="middle" x="1099.5" y="-7.5" font-family="Helvetica,sans-Serif" font-size="10.00">concepts</text>
</a>
</g>
</g>
<!-- Node5&#45;&gt;Node17 -->
<g id="edge16" class="edge">
<title>Node5&#45;&gt;Node17</title>
<path fill="none" stroke="midnightblue" d="M1099.5,-56.08C1099.5,-49.01 1099.5,-38.86 1099.5,-29.99"/>
<polygon fill="midnightblue" stroke="midnightblue" points="1103,-29.75 1099.5,-19.75 1096,-29.75 1103,-29.75"/>
</g>
<!-- Node18 -->
<g id="node18" class="node">
<title>Node18</title>
<g id="a_node18"><a xlink:title=" ">
<polygon fill="none" stroke="#bfbfbf" points="1147.5,-0.5 1147.5,-19.5 1207.5,-19.5 1207.5,-0.5 1147.5,-0.5"/>
<text text-anchor="middle" x="1177.5" y="-7.5" font-family="Helvetica,sans-Serif" font-size="10.00">iostream</text>
</a>
</g>
</g>
<!-- Node5&#45;&gt;Node18 -->
<g id="edge17" class="edge">
<title>Node5&#45;&gt;Node18</title>
<path fill="none" stroke="midnightblue" d="M1112.03,-56.32C1124.09,-47.98 1142.53,-35.21 1156.77,-25.35"/>
<polygon fill="midnightblue" stroke="midnightblue" points="1158.77,-28.22 1165,-19.65 1154.78,-22.47 1158.77,-28.22"/>
</g>
<!-- Node19 -->
<g id="node19" class="node">
<title>Node19</title>
<g id="a_node19"><a xlink:title=" ">
<polygon fill="none" stroke="#bfbfbf" points="1226,-0.5 1226,-19.5 1281,-19.5 1281,-0.5 1226,-0.5"/>
<text text-anchor="middle" x="1253.5" y="-7.5" font-family="Helvetica,sans-Serif" font-size="10.00">fstream</text>
</a>
</g>
</g>
<!-- Node5&#45;&gt;Node19 -->
<g id="edge18" class="edge">
<title>Node5&#45;&gt;Node19</title>
<path fill="none" stroke="midnightblue" d="M1123.9,-56.44C1149.7,-47.4 1190.58,-33.06 1219.52,-22.92"/>
<polygon fill="midnightblue" stroke="midnightblue" points="1220.93,-26.13 1229.21,-19.52 1218.62,-19.52 1220.93,-26.13"/>
</g>
<!-- Node20 -->
<g id="node20" class="node">
<title>Node20</title>
<g id="a_node20"><a xlink:title=" ">
<polygon fill="none" stroke="#bfbfbf" points="1299.5,-0.5 1299.5,-19.5 1343.5,-19.5 1343.5,-0.5 1299.5,-0.5"/>
<text text-anchor="middle" x="1321.5" y="-7.5" font-family="Helvetica,sans-Serif" font-size="10.00">bitset</text>
</a>
</g>
</g>
<!-- Node5&#45;&gt;Node20 -->
<g id="edge19" class="edge">
<title>Node5&#45;&gt;Node20</title>
<path fill="none" stroke="midnightblue" d="M1137.47,-56.5C1175.9,-47.77 1236.99,-33.6 1289.5,-20 1289.6,-19.97 1289.7,-19.95 1289.8,-19.92"/>
<polygon fill="midnightblue" stroke="midnightblue" points="1290.75,-23.29 1299.5,-17.32 1288.93,-16.53 1290.75,-23.29"/>
</g>
<!-- Node21 -->
<g id="node21" class="node">
<title>Node21</title>
<g id="a_node21"><a xlink:title=" ">
<polygon fill="none" stroke="#bfbfbf" points="1361.5,-0.5 1361.5,-19.5 1419.5,-19.5 1419.5,-0.5 1361.5,-0.5"/>
<text text-anchor="middle" x="1390.5" y="-7.5" font-family="Helvetica,sans-Serif" font-size="10.00">memory</text>
</a>
</g>
</g>
<!-- Node5&#45;&gt;Node21 -->
<g id="edge20" class="edge">
<title>Node5&#45;&gt;Node21</title>
<path fill="none" stroke="midnightblue" d="M1152.48,-56.47C1201.58,-48.37 1276.88,-35.43 1351.45,-20.12"/>
<polygon fill="midnightblue" stroke="midnightblue" points="1352.41,-23.5 1361.49,-18.05 1350.99,-16.65 1352.41,-23.5"/>
</g>
<!-- Node22 -->
<g id="node22" class="node">
<title>Node22</title>
<g id="a_node22"><a xlink:title=" ">
<polygon fill="none" stroke="#bfbfbf" points="1437.5,-0.5 1437.5,-19.5 1491.5,-19.5 1491.5,-0.5 1437.5,-0.5"/>
<text text-anchor="middle" x="1464.5" y="-7.5" font-family="Helvetica,sans-Serif" font-size="10.00">random</text>
</a>
</g>
</g>
<!-- Node5&#45;&gt;Node22 -->
<g id="edge21" class="edge">
<title>Node5&#45;&gt;Node22</title>
<path fill="none" stroke="midnightblue" d="M1174.69,-57.08C1239.27,-49.74 1335.01,-37.56 1427.36,-20.04"/>
<polygon fill="midnightblue" stroke="midnightblue" points="1428.28,-23.42 1437.44,-18.1 1426.96,-16.55 1428.28,-23.42"/>
</g>
<!-- Node23 -->
<g id="node23" class="node">
<title>Node23</title>
<g id="a_node23"><a xlink:title=" ">
<polygon fill="none" stroke="#bfbfbf" points="1509.5,-0.5 1509.5,-19.5 1553.5,-19.5 1553.5,-0.5 1509.5,-0.5"/>
<text text-anchor="middle" x="1531.5" y="-7.5" font-family="Helvetica,sans-Serif" font-size="10.00">string</text>
</a>
</g>
</g>
<!-- Node5&#45;&gt;Node23 -->
<g id="edge22" class="edge">
<title>Node5&#45;&gt;Node23</title>
<path fill="none" stroke="midnightblue" d="M1174.73,-60.41C1253.55,-54.73 1380.98,-43.09 1499.3,-19.93"/>
<polygon fill="midnightblue" stroke="midnightblue" points="1500.14,-23.33 1509.26,-17.95 1498.77,-16.47 1500.14,-23.33"/>
</g>
<!-- Node24 -->
<g id="node24" class="node">
<title>Node24</title>
<g id="a_node24"><a xlink:title=" ">
<polygon fill="none" stroke="#bfbfbf" points="1572,-0.5 1572,-19.5 1619,-19.5 1619,-0.5 1572,-0.5"/>
<text text-anchor="middle" x="1595.5" y="-7.5" font-family="Helvetica,sans-Serif" font-size="10.00">vector</text>
</a>
</g>
</g>
<!-- Node5&#45;&gt;Node24 -->
<g id="edge23" class="edge">
<title>Node5&#45;&gt;Node24</title>
<path fill="none" stroke="midnightblue" d="M1174.62,-61.61C1264.5,-56.69 1419.58,-45.41 1561.62,-19.84"/>
<polygon fill="midnightblue" stroke="midnightblue" points="1562.61,-23.22 1571.82,-17.97 1561.35,-16.33 1562.61,-23.22"/>
</g>
<!-- Node25 -->
<g id="node25" class="node">
<title>Node25</title>
<g id="a_node25"><a xlink:title=" ">
<polygon fill="none" stroke="#bfbfbf" points="1637.5,-0.5 1637.5,-19.5 1685.5,-19.5 1685.5,-0.5 1637.5,-0.5"/>
<text text-anchor="middle" x="1661.5" y="-7.5" font-family="Helvetica,sans-Serif" font-size="10.00">thread</text>
</a>
</g>
</g>
<!-- Node5&#45;&gt;Node25 -->
<g id="edge24" class="edge">
<title>Node5&#45;&gt;Node25</title>
<path fill="none" stroke="midnightblue" d="M1174.52,-62.9C1275.54,-59.11 1460.9,-48.83 1627.53,-19.85"/>
<polygon fill="midnightblue" stroke="midnightblue" points="1628.22,-23.28 1637.46,-18.1 1627.01,-16.39 1628.22,-23.28"/>
</g>
<!-- Node26 -->
<g id="node26" class="node">
<title>Node26</title>
<g id="a_node26"><a xlink:title=" ">
<polygon fill="none" stroke="#bfbfbf" points="1703.5,-0.5 1703.5,-19.5 1751.5,-19.5 1751.5,-0.5 1703.5,-0.5"/>
<text text-anchor="middle" x="1727.5" y="-7.5" font-family="Helvetica,sans-Serif" font-size="10.00">mutex</text>
</a>
</g>
</g>
<!-- Node5&#45;&gt;Node26 -->
<g id="edge25" class="edge">
<title>Node5&#45;&gt;Node26</title>
<path fill="none" stroke="midnightblue" d="M1174.74,-63.9C1286.25,-61.25 1501.94,-52.24 1693.5,-19.84"/>
<polygon fill="midnightblue" stroke="midnightblue" points="1694.21,-23.27 1703.47,-18.12 1693.02,-16.37 1694.21,-23.27"/>
</g>
<!-- Node27 -->
<g id="node27" class="node">
<title>Node27</title>
<g id="a_node27"><a xlink:title=" ">
<polygon fill="none" stroke="#bfbfbf" points="1770,-0.5 1770,-19.5 1817,-19.5 1817,-0.5 1770,-0.5"/>
<text text-anchor="middle" x="1793.5" y="-7.5" font-family="Helvetica,sans-Serif" font-size="10.00">queue</text>
</a>
</g>
</g>
<!-- Node5&#45;&gt;Node27 -->
<g id="edge26" class="edge">
<title>Node5&#45;&gt;Node27</title>
<path fill="none" stroke="midnightblue" d="M1174.91,-64.71C1296.37,-63.18 1542.79,-55.67 1759.85,-19.74"/>
<polygon fill="midnightblue" stroke="midnightblue" points="1760.55,-23.17 1769.83,-18.06 1759.39,-16.26 1760.55,-23.17"/>
</g>
<!-- Node28 -->
<g id="node28" class="node">
<title>Node28</title>
<g id="a_node28"><a xlink:title=" ">
<polygon fill="none" stroke="#bfbfbf" points="1835.5,-0.5 1835.5,-19.5 1873.5,-19.5 1873.5,-0.5 1835.5,-0.5"/>
<text text-anchor="middle" x="1854.5" y="-7.5" font-family="Helvetica,sans-Serif" font-size="10.00">map</text>
</a>
</g>
</g>
<!-- Node5&#45;&gt;Node28 -->
<g id="edge27" class="edge">
<title>Node5&#45;&gt;Node28</title>
<path fill="none" stroke="midnightblue" d="M1174.69,-62.72C1330.57,-57.61 1685.36,-43.94 1825.29,-19.68"/>
<polygon fill="midnightblue" stroke="midnightblue" points="1826.17,-23.08 1835.38,-17.84 1824.92,-16.19 1826.17,-23.08"/>
</g>
<!-- Node31&#45;&gt;Node4 -->
<g id="edge32" class="edge">
<title>Node31&#45;&gt;Node4</title>
<path fill="none" stroke="midnightblue" d="M1773.32,-403.39C1764.86,-385.16 1746.5,-341.09 1746.5,-302 1746.5,-302 1746.5,-302 1746.5,-244 1746.5,-198.87 1710.21,-196.22 1668.5,-179 1582.79,-143.61 1318.68,-132.97 1182.54,-129.81"/>
<polygon fill="midnightblue" stroke="midnightblue" points="1182.24,-126.31 1172.17,-129.58 1182.08,-133.31 1182.24,-126.31"/>
</g>
<!-- Node32 -->
<g id="node32" class="node">
<title>Node32</title>
<g id="a_node32"><a xlink:title=" ">
<polygon fill="none" stroke="#bfbfbf" points="1775,-347.5 1775,-366.5 1850,-366.5 1850,-347.5 1775,-347.5"/>
<text text-anchor="middle" x="1812.5" y="-354.5" font-family="Helvetica,sans-Serif" font-size="10.00">opus/opus.h</text>
</a>
</g>
</g>
<!-- Node31&#45;&gt;Node32 -->
<g id="edge33" class="edge">
<title>Node31&#45;&gt;Node32</title>
<path fill="none" stroke="midnightblue" d="M1783.28,-403.08C1788.17,-395.53 1795.33,-384.49 1801.33,-375.23"/>
<polygon fill="midnightblue" stroke="midnightblue" points="1804.33,-377.05 1806.83,-366.75 1798.45,-373.24 1804.33,-377.05"/>
</g>
<!-- Node33&#45;&gt;Node4 -->
<g id="edge35" class="edge">
<title>Node33&#45;&gt;Node4</title>
<path fill="none" stroke="midnightblue" d="M1621.54,-403.37C1641.69,-396.48 1666.93,-384.94 1683.5,-367 1704.5,-344.26 1708.5,-332.95 1708.5,-302 1708.5,-302 1708.5,-302 1708.5,-244 1708.5,-198.19 1670.89,-196.36 1628.5,-179 1549.84,-146.78 1310.36,-134.78 1182.31,-130.58"/>
<polygon fill="midnightblue" stroke="midnightblue" points="1182.27,-127.08 1172.16,-130.26 1182.05,-134.08 1182.27,-127.08"/>
</g>
<!-- Node34 -->
<g id="node34" class="node">
<title>Node34</title>
<g id="a_node34"><a xlink:href="../../d3/d4f/a00761.html" target="_top" xlink:title=" ">
<polygon fill="none" stroke="black" points="1507,-347.5 1507,-366.5 1674,-366.5 1674,-347.5 1507,-347.5"/>
<text text-anchor="middle" x="1590.5" y="-354.5" font-family="Helvetica,sans-Serif" font-size="10.00">discordcoreapi/ThreadPool.hpp</text>
</a>
</g>
</g>
<!-- Node33&#45;&gt;Node34 -->
<g id="edge36" class="edge">
<title>Node33&#45;&gt;Node34</title>
<path fill="none" stroke="midnightblue" d="M1589.67,-403.08C1589.8,-396.01 1589.98,-385.86 1590.15,-376.99"/>
<polygon fill="midnightblue" stroke="midnightblue" points="1593.65,-376.81 1590.34,-366.75 1586.65,-376.68 1593.65,-376.81"/>
</g>
<!-- Node34&#45;&gt;Node4 -->
<g id="edge37" class="edge">
<title>Node34&#45;&gt;Node4</title>
<path fill="none" stroke="midnightblue" d="M1593.25,-347.11C1603,-314.77 1634.15,-203.99 1611.5,-179 1583.27,-147.84 1319.59,-135.2 1182.08,-130.69"/>
<polygon fill="midnightblue" stroke="midnightblue" points="1182.11,-127.19 1172,-130.37 1181.89,-134.19 1182.11,-127.19"/>
</g>
<!-- Node34&#45;&gt;Node35 -->
<g id="edge38" class="edge">
<title>Node34&#45;&gt;Node35</title>
<path fill="none" stroke="midnightblue" d="M1572.67,-347.32C1554.78,-338.62 1527.02,-325.12 1506.45,-315.11"/>
<polygon fill="midnightblue" stroke="midnightblue" points="1507.81,-311.88 1497.29,-310.65 1504.75,-318.18 1507.81,-311.88"/>
</g>
<!-- Node49 -->
<g id="node49" class="node">
<title>Node49</title>
<g id="a_node49"><a xlink:title=" ">
<polygon fill="none" stroke="#bfbfbf" points="1618.5,-291.5 1618.5,-310.5 1680.5,-310.5 1680.5,-291.5 1618.5,-291.5"/>
<text text-anchor="middle" x="1649.5" y="-298.5" font-family="Helvetica,sans-Serif" font-size="10.00">coroutine</text>
</a>
</g>
</g>
<!-- Node34&#45;&gt;Node49 -->
<g id="edge54" class="edge">
<title>Node34&#45;&gt;Node49</title>
<path fill="none" stroke="midnightblue" d="M1599.98,-347.32C1608.7,-339.34 1621.84,-327.31 1632.4,-317.65"/>
<polygon fill="midnightblue" stroke="midnightblue" points="1634.83,-320.17 1639.85,-310.83 1630.11,-315 1634.83,-320.17"/>
</g>
<!-- Node36 -->
<g id="node36" class="node">
<title>Node36</title>
<g id="a_node36"><a xlink:href="../../d5/de8/a00749.html" target="_top" xlink:title=" ">
<polygon fill="none" stroke="black" points="985,-235.5 985,-254.5 1148,-254.5 1148,-235.5 985,-235.5"/>
<text text-anchor="middle" x="1066.5" y="-242.5" font-family="Helvetica,sans-Serif" font-size="10.00">discordcoreapi/SSLClients.hpp</text>
</a>
</g>
</g>
<!-- Node35&#45;&gt;Node36 -->
<g id="edge39" class="edge">
<title>Node35&#45;&gt;Node36</title>
<path fill="none" stroke="midnightblue" d="M1414.06,-291.44C1340.05,-281.77 1219.73,-266.04 1141.86,-255.85"/>
<polygon fill="midnightblue" stroke="midnightblue" points="1142,-252.34 1131.63,-254.52 1141.1,-259.28 1142,-252.34"/>
</g>
<!-- Node36&#45;&gt;Node3 -->
<g id="edge41" class="edge">
<title>Node36&#45;&gt;Node3</title>
<path fill="none" stroke="midnightblue" d="M984.92,-236.84C883.88,-227.97 706.5,-212.39 554.5,-199 553.23,-198.89 551.95,-198.78 550.66,-198.66"/>
<polygon fill="midnightblue" stroke="midnightblue" points="550.95,-195.17 540.68,-197.78 550.34,-202.15 550.95,-195.17"/>
</g>
<!-- Node36&#45;&gt;Node4 -->
<g id="edge40" class="edge">
<title>Node36&#45;&gt;Node4</title>
<path fill="none" stroke="midnightblue" d="M984.77,-242.2C854.98,-238.48 613.67,-227.74 587.5,-199 581.52,-192.43 581.53,-185.59 587.5,-179 615.73,-147.84 879.41,-135.2 1016.92,-130.69"/>
<polygon fill="midnightblue" stroke="midnightblue" points="1017.11,-134.19 1027,-130.37 1016.89,-127.19 1017.11,-134.19"/>
</g>
<!-- Node37 -->
<g id="node37" class="node">
<title>Node37</title>
<g id="a_node37"><a xlink:title=" ">
<polygon fill="none" stroke="#bfbfbf" points="1288,-179.5 1288,-198.5 1367,-198.5 1367,-179.5 1288,-179.5"/>
<text text-anchor="middle" x="1327.5" y="-186.5" font-family="Helvetica,sans-Serif" font-size="10.00">openssl/err.h</text>
</a>
</g>
</g>
<!-- Node36&#45;&gt;Node37 -->
<g id="edge42" class="edge">
<title>Node36&#45;&gt;Node37</title>
<path fill="none" stroke="midnightblue" d="M1107.86,-235.44C1153.98,-225.9 1228.57,-210.47 1277.82,-200.28"/>
<polygon fill="midnightblue" stroke="midnightblue" points="1278.54,-203.7 1287.62,-198.25 1277.12,-196.85 1278.54,-203.7"/>
</g>
<!-- Node38 -->
<g id="node38" class="node">
<title>Node38</title>
<g id="a_node38"><a xlink:title=" ">
<polygon fill="none" stroke="#bfbfbf" points="1385.5,-179.5 1385.5,-198.5 1465.5,-198.5 1465.5,-179.5 1385.5,-179.5"/>
<text text-anchor="middle" x="1425.5" y="-186.5" font-family="Helvetica,sans-Serif" font-size="10.00">openssl/ssl.h</text>
</a>
</g>
</g>
<!-- Node36&#45;&gt;Node38 -->
<g id="edge43" class="edge">
<title>Node36&#45;&gt;Node38</title>
<path fill="none" stroke="midnightblue" d="M1129.33,-235.48C1191.83,-226.85 1290.42,-212.85 1375.5,-199 1375.6,-198.98 1375.7,-198.97 1375.8,-198.95"/>
<polygon fill="midnightblue" stroke="midnightblue" points="1376.12,-202.45 1385.4,-197.34 1374.96,-195.54 1376.12,-202.45"/>
</g>
<!-- Node39 -->
<g id="node39" class="node">
<title>Node39</title>
<g id="a_node39"><a xlink:title=" ">
<polygon fill="none" stroke="#bfbfbf" points="1484,-179.5 1484,-198.5 1531,-198.5 1531,-179.5 1484,-179.5"/>
<text text-anchor="middle" x="1507.5" y="-186.5" font-family="Helvetica,sans-Serif" font-size="10.00">fcntl.h</text>
</a>
</g>
</g>
<!-- Node36&#45;&gt;Node39 -->
<g id="edge44" class="edge">
<title>Node36&#45;&gt;Node39</title>
<path fill="none" stroke="midnightblue" d="M1148.34,-238.75C1228.85,-232.73 1355.34,-220.98 1473.84,-198.83"/>
<polygon fill="midnightblue" stroke="midnightblue" points="1474.64,-202.24 1483.81,-196.94 1473.33,-195.36 1474.64,-202.24"/>
</g>
<!-- Node40 -->
<g id="node40" class="node">
<title>Node40</title>
<g id="a_node40"><a xlink:title=" ">
<polygon fill="none" stroke="#bfbfbf" points="1549,-179.5 1549,-198.5 1602,-198.5 1602,-179.5 1549,-179.5"/>
<text text-anchor="middle" x="1575.5" y="-186.5" font-family="Helvetica,sans-Serif" font-size="10.00">netdb.h</text>
</a>
</g>
</g>
<!-- Node36&#45;&gt;Node40 -->
<g id="edge45" class="edge">
<title>Node36&#45;&gt;Node40</title>
<path fill="none" stroke="midnightblue" d="M1148.38,-240.14C1241.06,-234.89 1396.61,-223.41 1538.64,-199.09"/>
<polygon fill="midnightblue" stroke="midnightblue" points="1539.59,-202.48 1548.84,-197.32 1538.39,-195.58 1539.59,-202.48"/>
</g>
<!-- Node41 -->
<g id="node41" class="node">
<title>Node41</title>
<g id="a_node41"><a xlink:title=" ">
<polygon fill="none" stroke="#bfbfbf" points="596.5,-179.5 596.5,-198.5 668.5,-198.5 668.5,-179.5 596.5,-179.5"/>
<text text-anchor="middle" x="632.5" y="-186.5" font-family="Helvetica,sans-Serif" font-size="10.00">netinet/in.h</text>
</a>
</g>
</g>
<!-- Node36&#45;&gt;Node41 -->
<g id="edge46" class="edge">
<title>Node36&#45;&gt;Node41</title>
<path fill="none" stroke="midnightblue" d="M984.65,-236.51C908.06,-229.04 790.25,-216.41 678.87,-199.11"/>
<polygon fill="midnightblue" stroke="midnightblue" points="679.22,-195.62 668.8,-197.53 678.14,-202.53 679.22,-195.62"/>
</g>
<!-- Node42 -->
<g id="node42" class="node">
<title>Node42</title>
<g id="a_node42"><a xlink:title=" ">
<polygon fill="none" stroke="#bfbfbf" points="686.5,-179.5 686.5,-198.5 764.5,-198.5 764.5,-179.5 686.5,-179.5"/>
<text text-anchor="middle" x="725.5" y="-186.5" font-family="Helvetica,sans-Serif" font-size="10.00">netinet/tcp.h</text>
</a>
</g>
</g>
<!-- Node36&#45;&gt;Node42 -->
<g id="edge47" class="edge">
<title>Node36&#45;&gt;Node42</title>
<path fill="none" stroke="midnightblue" d="M1007.2,-235.48C950.15,-227.15 861.2,-213.81 774.52,-199.13"/>
<polygon fill="midnightblue" stroke="midnightblue" points="774.96,-195.65 764.51,-197.43 773.78,-202.55 774.96,-195.65"/>
</g>
<!-- Node43 -->
<g id="node43" class="node">
<title>Node43</title>
<g id="a_node43"><a xlink:title=" ">
<polygon fill="none" stroke="#bfbfbf" points="783,-179.5 783,-198.5 836,-198.5 836,-179.5 783,-179.5"/>
<text text-anchor="middle" x="809.5" y="-186.5" font-family="Helvetica,sans-Serif" font-size="10.00">stdint.h</text>
</a>
</g>
</g>
<!-- Node36&#45;&gt;Node43 -->
<g id="edge48" class="edge">
<title>Node36&#45;&gt;Node43</title>
<path fill="none" stroke="midnightblue" d="M1020.86,-235.46C978.07,-227.3 912.08,-214.3 846.34,-199.34"/>
<polygon fill="midnightblue" stroke="midnightblue" points="846.75,-195.84 836.22,-197.02 845.18,-202.67 846.75,-195.84"/>
</g>
<!-- Node44 -->
<g id="node44" class="node">
<title>Node44</title>
<g id="a_node44"><a xlink:title=" ">
<polygon fill="none" stroke="#bfbfbf" points="854,-179.5 854,-198.5 923,-198.5 923,-179.5 854,-179.5"/>
<text text-anchor="middle" x="888.5" y="-186.5" font-family="Helvetica,sans-Serif" font-size="10.00">sys/epoll.h</text>
</a>
</g>
</g>
<!-- Node36&#45;&gt;Node44 -->
<g id="edge49" class="edge">
<title>Node36&#45;&gt;Node44</title>
<path fill="none" stroke="midnightblue" d="M1038.3,-235.44C1008.09,-226.28 959.99,-211.69 926.47,-201.52"/>
<polygon fill="midnightblue" stroke="midnightblue" points="927.16,-198.07 916.57,-198.52 925.13,-204.77 927.16,-198.07"/>
</g>
<!-- Node45 -->
<g id="node45" class="node">
<title>Node45</title>
<g id="a_node45"><a xlink:title=" ">
<polygon fill="none" stroke="#bfbfbf" points="941,-179.5 941,-198.5 1010,-198.5 1010,-179.5 941,-179.5"/>
<text text-anchor="middle" x="975.5" y="-186.5" font-family="Helvetica,sans-Serif" font-size="10.00">arpa/inet.h</text>
</a>
</g>
</g>
<!-- Node36&#45;&gt;Node45 -->
<g id="edge50" class="edge">
<title>Node36&#45;&gt;Node45</title>
<path fill="none" stroke="midnightblue" d="M1051.88,-235.32C1037.55,-226.82 1015.49,-213.73 998.75,-203.8"/>
<polygon fill="midnightblue" stroke="midnightblue" points="1000.47,-200.75 990.08,-198.65 996.9,-206.77 1000.47,-200.75"/>
</g>
<!-- Node46 -->
<g id="node46" class="node">
<title>Node46</title>
<g id="a_node46"><a xlink:title=" ">
<polygon fill="none" stroke="#bfbfbf" points="1028,-179.5 1028,-198.5 1105,-198.5 1105,-179.5 1028,-179.5"/>
<text text-anchor="middle" x="1066.5" y="-186.5" font-family="Helvetica,sans-Serif" font-size="10.00">sys/socket.h</text>
</a>
</g>
</g>
<!-- Node36&#45;&gt;Node46 -->
<g id="edge51" class="edge">
<title>Node36&#45;&gt;Node46</title>
<path fill="none" stroke="midnightblue" d="M1066.5,-235.08C1066.5,-228.01 1066.5,-217.86 1066.5,-208.99"/>
<polygon fill="midnightblue" stroke="midnightblue" points="1070,-208.75 1066.5,-198.75 1063,-208.75 1070,-208.75"/>
</g>
<!-- Node47 -->
<g id="node47" class="node">
<title>Node47</title>
<g id="a_node47"><a xlink:title=" ">
<polygon fill="none" stroke="#bfbfbf" points="1123.5,-179.5 1123.5,-198.5 1195.5,-198.5 1195.5,-179.5 1123.5,-179.5"/>
<text text-anchor="middle" x="1159.5" y="-186.5" font-family="Helvetica,sans-Serif" font-size="10.00">sys/types.h</text>
</a>
</g>
</g>
<!-- Node36&#45;&gt;Node47 -->
<g id="edge52" class="edge">
<title>Node36&#45;&gt;Node47</title>
<path fill="none" stroke="midnightblue" d="M1081.44,-235.32C1096.09,-226.82 1118.63,-213.73 1135.74,-203.8"/>
<polygon fill="midnightblue" stroke="midnightblue" points="1137.7,-206.7 1144.6,-198.65 1134.19,-200.65 1137.7,-206.7"/>
</g>
<!-- Node48 -->
<g id="node48" class="node">
<title>Node48</title>
<g id="a_node48"><a xlink:title=" ">
<polygon fill="none" stroke="#bfbfbf" points="1213.5,-179.5 1213.5,-198.5 1269.5,-198.5 1269.5,-179.5 1213.5,-179.5"/>
<text text-anchor="middle" x="1241.5" y="-186.5" font-family="Helvetica,sans-Serif" font-size="10.00">unistd.h</text>
</a>
</g>
</g>
<!-- Node36&#45;&gt;Node48 -->
<g id="edge53" class="edge">
<title>Node36&#45;&gt;Node48</title>
<path fill="none" stroke="midnightblue" d="M1094.23,-235.44C1123.93,-226.28 1171.22,-211.69 1204.17,-201.52"/>
<polygon fill="midnightblue" stroke="midnightblue" points="1205.38,-204.81 1213.9,-198.52 1203.31,-198.12 1205.38,-204.81"/>
</g>
</g>
</svg>
