<?xml version="1.0" encoding="UTF-8" standalone="no"?>
<!DOCTYPE svg PUBLIC "-//W3C//DTD SVG 1.1//EN"
 "http://www.w3.org/Graphics/SVG/1.1/DTD/svg11.dtd">
<!-- Generated by graphviz version 3.0.0 (20220226.1711)
 -->
<!-- Title: SoundCloudAPI.hpp Pages: 1 -->
<svg width="2101pt" height="487pt"
 viewBox="0.00 0.00 2101.00 487.00" xmlns="http://www.w3.org/2000/svg" xmlns:xlink="http://www.w3.org/1999/xlink">
<g id="graph0" class="graph" transform="scale(1 1) rotate(0) translate(4 483)">
<title>SoundCloudAPI.hpp</title>
<!-- Node1 -->
<g id="node1" class="node">
<title>Node1</title>
<g id="a_node1"><a xlink:title=" ">
<polygon fill="#bfbfbf" stroke="black" points="1342.5,-459.5 1342.5,-478.5 1446.5,-478.5 1446.5,-459.5 1342.5,-459.5"/>
<text text-anchor="middle" x="1394.5" y="-466.5" font-family="Helvetica,sans-Serif" font-size="10.00">SoundCloudAPI.hpp</text>
</a>
</g>
</g>
<!-- Node2 -->
<g id="node2" class="node">
<title>Node2</title>
<g id="a_node2"><a xlink:href="../../d4/d9b/a00680.html" target="_top" xlink:title=" ">
<polygon fill="none" stroke="black" points="171.5,-235.5 171.5,-254.5 333.5,-254.5 333.5,-235.5 171.5,-235.5"/>
<text text-anchor="middle" x="252.5" y="-242.5" font-family="Helvetica,sans-Serif" font-size="10.00">discordcoreapi/AudioDecoder.hpp</text>
</a>
</g>
</g>
<!-- Node1&#45;&gt;Node2 -->
<g id="edge1" class="edge">
<title>Node1&#45;&gt;Node2</title>
<path fill="none" stroke="midnightblue" d="M1350.43,-459.43C1171.83,-424.71 502.11,-294.52 306.48,-256.49"/>
<polygon fill="midnightblue" stroke="midnightblue" points="306.92,-253.01 296.44,-254.54 305.59,-259.89 306.92,-253.01"/>
</g>
<!-- Node31 -->
<g id="node31" class="node">
<title>Node31</title>
<g id="a_node31"><a xlink:href="../../db/d77/a00683.html" target="_top" xlink:title=" ">
<polygon fill="none" stroke="black" points="1569.5,-403.5 1569.5,-422.5 1731.5,-422.5 1731.5,-403.5 1569.5,-403.5"/>
<text text-anchor="middle" x="1650.5" y="-410.5" font-family="Helvetica,sans-Serif" font-size="10.00">discordcoreapi/AudioEncoder.hpp</text>
</a>
</g>
</g>
<!-- Node1&#45;&gt;Node31 -->
<g id="edge31" class="edge">
<title>Node1&#45;&gt;Node31</title>
<path fill="none" stroke="midnightblue" d="M1435.06,-459.44C1479.82,-450 1551.88,-434.8 1600.2,-424.61"/>
<polygon fill="midnightblue" stroke="midnightblue" points="1601.06,-428.01 1610.13,-422.52 1599.62,-421.16 1601.06,-428.01"/>
</g>
<!-- Node33 -->
<g id="node33" class="node">
<title>Node33</title>
<g id="a_node33"><a xlink:href="../../d5/d5b/a00695.html" target="_top" xlink:title=" ">
<polygon fill="none" stroke="black" points="1389.5,-403.5 1389.5,-422.5 1535.5,-422.5 1535.5,-403.5 1389.5,-403.5"/>
<text text-anchor="middle" x="1462.5" y="-410.5" font-family="Helvetica,sans-Serif" font-size="10.00">discordcoreapi/CoRoutine.hpp</text>
</a>
</g>
</g>
<!-- Node1&#45;&gt;Node33 -->
<g id="edge34" class="edge">
<title>Node1&#45;&gt;Node33</title>
<path fill="none" stroke="midnightblue" d="M1405.43,-459.32C1415.67,-451.18 1431.22,-438.84 1443.5,-429.09"/>
<polygon fill="midnightblue" stroke="midnightblue" points="1445.72,-431.79 1451.38,-422.83 1441.37,-426.31 1445.72,-431.79"/>
</g>
<!-- Node35 -->
<g id="node35" class="node">
<title>Node35</title>
<g id="a_node35"><a xlink:href="../../db/d7c/a00722.html" target="_top" xlink:title=" ">
<polygon fill="none" stroke="black" points="1281,-291.5 1281,-310.5 1406,-310.5 1406,-291.5 1281,-291.5"/>
<text text-anchor="middle" x="1343.5" y="-298.5" font-family="Helvetica,sans-Serif" font-size="10.00">discordcoreapi/Https.hpp</text>
</a>
</g>
</g>
<!-- Node1&#45;&gt;Node35 -->
<g id="edge56" class="edge">
<title>Node1&#45;&gt;Node35</title>
<path fill="none" stroke="midnightblue" d="M1391.69,-459.37C1386.05,-441.95 1372.95,-401.31 1362.5,-367 1357.74,-351.36 1352.54,-333.53 1348.79,-320.51"/>
<polygon fill="midnightblue" stroke="midnightblue" points="1352.14,-319.5 1346.02,-310.85 1345.41,-321.43 1352.14,-319.5"/>
</g>
<!-- Node3 -->
<g id="node3" class="node">
<title>Node3</title>
<g id="a_node3"><a xlink:href="../../d4/d6a/a00704.html" target="_top" xlink:title=" ">
<polygon fill="none" stroke="black" points="325.5,-179.5 325.5,-198.5 483.5,-198.5 483.5,-179.5 325.5,-179.5"/>
<text text-anchor="middle" x="404.5" y="-186.5" font-family="Helvetica,sans-Serif" font-size="10.00">discordcoreapi/EventEntities.hpp</text>
</a>
</g>
</g>
<!-- Node2&#45;&gt;Node3 -->
<g id="edge2" class="edge">
<title>Node2&#45;&gt;Node3</title>
<path fill="none" stroke="midnightblue" d="M276.58,-235.44C302.04,-226.4 342.39,-212.06 370.96,-201.92"/>
<polygon fill="midnightblue" stroke="midnightblue" points="372.28,-205.16 380.53,-198.52 369.93,-198.57 372.28,-205.16"/>
</g>
<!-- Node4 -->
<g id="node4" class="node">
<title>Node4</title>
<g id="a_node4"><a xlink:href="../../d4/deb/a00710.html" target="_top" xlink:title=" ">
<polygon fill="none" stroke="black" points="1305,-112.5 1305,-142.5 1436,-142.5 1436,-112.5 1305,-112.5"/>
<text text-anchor="start" x="1313" y="-130.5" font-family="Helvetica,sans-Serif" font-size="10.00">discordcoreapi/Foundation</text>
<text text-anchor="middle" x="1370.5" y="-119.5" font-family="Helvetica,sans-Serif" font-size="10.00">Entities.hpp</text>
</a>
</g>
</g>
<!-- Node2&#45;&gt;Node4 -->
<g id="edge28" class="edge">
<title>Node2&#45;&gt;Node4</title>
<path fill="none" stroke="midnightblue" d="M233.29,-235.45C207.99,-223.09 168.89,-199.47 188.5,-179 226.8,-139.03 1039.23,-130.56 1294.47,-128.89"/>
<polygon fill="midnightblue" stroke="midnightblue" points="1294.78,-132.39 1304.76,-128.82 1294.74,-125.39 1294.78,-132.39"/>
</g>
<!-- Node29 -->
<g id="node29" class="node">
<title>Node29</title>
<g id="a_node29"><a xlink:title=" ">
<polygon fill="none" stroke="#bfbfbf" points="197.5,-179.5 197.5,-198.5 307.5,-198.5 307.5,-179.5 197.5,-179.5"/>
<text text-anchor="middle" x="252.5" y="-186.5" font-family="Helvetica,sans-Serif" font-size="10.00">libavformat/avformat.h</text>
</a>
</g>
</g>
<!-- Node2&#45;&gt;Node29 -->
<g id="edge29" class="edge">
<title>Node2&#45;&gt;Node29</title>
<path fill="none" stroke="midnightblue" d="M252.5,-235.08C252.5,-228.01 252.5,-217.86 252.5,-208.99"/>
<polygon fill="midnightblue" stroke="midnightblue" points="256,-208.75 252.5,-198.75 249,-208.75 256,-208.75"/>
</g>
<!-- Node30 -->
<g id="node30" class="node">
<title>Node30</title>
<g id="a_node30"><a xlink:title=" ">
<polygon fill="none" stroke="#bfbfbf" points="0,-179.5 0,-198.5 141,-198.5 141,-179.5 0,-179.5"/>
<text text-anchor="middle" x="70.5" y="-186.5" font-family="Helvetica,sans-Serif" font-size="10.00">libswresample/swresample.h</text>
</a>
</g>
</g>
<!-- Node2&#45;&gt;Node30 -->
<g id="edge30" class="edge">
<title>Node2&#45;&gt;Node30</title>
<path fill="none" stroke="midnightblue" d="M223.66,-235.44C192.64,-226.24 143.17,-211.56 108.88,-201.39"/>
<polygon fill="midnightblue" stroke="midnightblue" points="109.79,-198.01 99.2,-198.52 107.79,-204.72 109.79,-198.01"/>
</g>
<!-- Node3&#45;&gt;Node4 -->
<g id="edge3" class="edge">
<title>Node3&#45;&gt;Node4</title>
<path fill="none" stroke="midnightblue" d="M483.64,-179.74C486.63,-179.48 489.59,-179.23 492.5,-179 788.94,-155.33 1142.55,-138.44 1294.73,-131.72"/>
<polygon fill="midnightblue" stroke="midnightblue" points="1295.06,-135.21 1304.9,-131.27 1294.75,-128.22 1295.06,-135.21"/>
</g>
<!-- Node5 -->
<g id="node5" class="node">
<title>Node5</title>
<g id="a_node5"><a xlink:href="../../d5/dae/a00767.html" target="_top" xlink:title=" ">
<polygon fill="none" stroke="black" points="1303.5,-56.5 1303.5,-75.5 1437.5,-75.5 1437.5,-56.5 1303.5,-56.5"/>
<text text-anchor="middle" x="1370.5" y="-63.5" font-family="Helvetica,sans-Serif" font-size="10.00">discordcoreapi/Utilities.hpp</text>
</a>
</g>
</g>
<!-- Node4&#45;&gt;Node5 -->
<g id="edge4" class="edge">
<title>Node4&#45;&gt;Node5</title>
<path fill="none" stroke="midnightblue" d="M1370.5,-112.4C1370.5,-104.47 1370.5,-94.46 1370.5,-85.86"/>
<polygon fill="midnightblue" stroke="midnightblue" points="1374,-85.66 1370.5,-75.66 1367,-85.66 1374,-85.66"/>
</g>
<!-- Node6 -->
<g id="node6" class="node">
<title>Node6</title>
<g id="a_node6"><a xlink:title=" ">
<polygon fill="none" stroke="#bfbfbf" points="377,-0.5 377,-19.5 434,-19.5 434,-0.5 377,-0.5"/>
<text text-anchor="middle" x="405.5" y="-7.5" font-family="Helvetica,sans-Serif" font-size="10.00">pthread.h</text>
</a>
</g>
</g>
<!-- Node5&#45;&gt;Node6 -->
<g id="edge5" class="edge">
<title>Node5&#45;&gt;Node6</title>
<path fill="none" stroke="midnightblue" d="M1303.45,-63.35C1122.93,-58.65 628.53,-44.07 444.15,-19.74"/>
<polygon fill="midnightblue" stroke="midnightblue" points="444.41,-16.24 434.03,-18.35 443.46,-23.18 444.41,-16.24"/>
</g>
<!-- Node7 -->
<g id="node7" class="node">
<title>Node7</title>
<g id="a_node7"><a xlink:title=" ">
<polygon fill="none" stroke="#bfbfbf" points="452.5,-0.5 452.5,-19.5 514.5,-19.5 514.5,-0.5 452.5,-0.5"/>
<text text-anchor="middle" x="483.5" y="-7.5" font-family="Helvetica,sans-Serif" font-size="10.00">sys/time.h</text>
</a>
</g>
</g>
<!-- Node5&#45;&gt;Node7 -->
<g id="edge6" class="edge">
<title>Node5&#45;&gt;Node7</title>
<path fill="none" stroke="midnightblue" d="M1303.43,-65.26C1161.35,-64.97 819.57,-59.92 524.87,-19.95"/>
<polygon fill="midnightblue" stroke="midnightblue" points="525.23,-16.47 514.85,-18.58 524.28,-23.4 525.23,-16.47"/>
</g>
<!-- Node8 -->
<g id="node8" class="node">
<title>Node8</title>
<g id="a_node8"><a xlink:title=" ">
<polygon fill="none" stroke="#bfbfbf" points="532.5,-0.5 532.5,-19.5 576.5,-19.5 576.5,-0.5 532.5,-0.5"/>
<text text-anchor="middle" x="554.5" y="-7.5" font-family="Helvetica,sans-Serif" font-size="10.00">time.h</text>
</a>
</g>
</g>
<!-- Node5&#45;&gt;Node8 -->
<g id="edge7" class="edge">
<title>Node5&#45;&gt;Node8</title>
<path fill="none" stroke="midnightblue" d="M1303.48,-63.1C1143.41,-58.25 741.34,-44.19 586.95,-19.8"/>
<polygon fill="midnightblue" stroke="midnightblue" points="587.15,-16.28 576.71,-18.1 586,-23.19 587.15,-16.28"/>
</g>
<!-- Node9 -->
<g id="node9" class="node">
<title>Node9</title>
<g id="a_node9"><a xlink:title=" ">
<polygon fill="none" stroke="#bfbfbf" points="595,-0.5 595,-19.5 636,-19.5 636,-0.5 595,-0.5"/>
<text text-anchor="middle" x="615.5" y="-7.5" font-family="Helvetica,sans-Serif" font-size="10.00">ctime</text>
</a>
</g>
</g>
<!-- Node5&#45;&gt;Node9 -->
<g id="edge8" class="edge">
<title>Node5&#45;&gt;Node9</title>
<path fill="none" stroke="midnightblue" d="M1303.39,-62.89C1152.29,-57.82 788.16,-43.7 646.47,-19.9"/>
<polygon fill="midnightblue" stroke="midnightblue" points="646.72,-16.39 636.26,-18.09 645.5,-23.28 646.72,-16.39"/>
</g>
<!-- Node10 -->
<g id="node10" class="node">
<title>Node10</title>
<g id="a_node10"><a xlink:title=" ">
<polygon fill="none" stroke="#bfbfbf" points="654,-0.5 654,-19.5 747,-19.5 747,-0.5 654,-0.5"/>
<text text-anchor="middle" x="700.5" y="-7.5" font-family="Helvetica,sans-Serif" font-size="10.00">condition_variable</text>
</a>
</g>
</g>
<!-- Node5&#45;&gt;Node10 -->
<g id="edge9" class="edge">
<title>Node5&#45;&gt;Node10</title>
<path fill="none" stroke="midnightblue" d="M1303.09,-61.96C1191.7,-56.53 962.05,-43.55 757.25,-19.98"/>
<polygon fill="midnightblue" stroke="midnightblue" points="757.55,-16.49 747.21,-18.82 756.74,-23.45 757.55,-16.49"/>
</g>
<!-- Node11 -->
<g id="node11" class="node">
<title>Node11</title>
<g id="a_node11"><a xlink:title=" ">
<polygon fill="none" stroke="#bfbfbf" points="765.5,-0.5 765.5,-19.5 863.5,-19.5 863.5,-0.5 765.5,-0.5"/>
<text text-anchor="middle" x="814.5" y="-7.5" font-family="Helvetica,sans-Serif" font-size="10.00">nlohmann/json.hpp</text>
</a>
</g>
</g>
<!-- Node5&#45;&gt;Node11 -->
<g id="edge10" class="edge">
<title>Node5&#45;&gt;Node11</title>
<path fill="none" stroke="midnightblue" d="M1303.5,-60.31C1209.7,-53.44 1033.71,-39.45 873.55,-20.06"/>
<polygon fill="midnightblue" stroke="midnightblue" points="873.87,-16.57 863.52,-18.83 873.02,-23.52 873.87,-16.57"/>
</g>
<!-- Node12 -->
<g id="node12" class="node">
<title>Node12</title>
<g id="a_node12"><a xlink:title=" ">
<polygon fill="none" stroke="#bfbfbf" points="882,-0.5 882,-19.5 967,-19.5 967,-0.5 882,-0.5"/>
<text text-anchor="middle" x="924.5" y="-7.5" font-family="Helvetica,sans-Serif" font-size="10.00">source_location</text>
</a>
</g>
</g>
<!-- Node5&#45;&gt;Node12 -->
<g id="edge11" class="edge">
<title>Node5&#45;&gt;Node12</title>
<path fill="none" stroke="midnightblue" d="M1303.24,-58.6C1226.66,-51.04 1097.55,-37.42 977.18,-20.17"/>
<polygon fill="midnightblue" stroke="midnightblue" points="977.44,-16.67 967.05,-18.71 976.44,-23.6 977.44,-16.67"/>
</g>
<!-- Node13 -->
<g id="node13" class="node">
<title>Node13</title>
<g id="a_node13"><a xlink:title=" ">
<polygon fill="none" stroke="#bfbfbf" points="985,-0.5 985,-19.5 1068,-19.5 1068,-0.5 985,-0.5"/>
<text text-anchor="middle" x="1026.5" y="-7.5" font-family="Helvetica,sans-Serif" font-size="10.00">unordered_map</text>
</a>
</g>
</g>
<!-- Node5&#45;&gt;Node13 -->
<g id="edge12" class="edge">
<title>Node5&#45;&gt;Node13</title>
<path fill="none" stroke="midnightblue" d="M1312.62,-56.5C1255.67,-48.05 1165.96,-34.5 1078.35,-20.11"/>
<polygon fill="midnightblue" stroke="midnightblue" points="1078.67,-16.62 1068.24,-18.44 1077.53,-23.52 1078.67,-16.62"/>
</g>
<!-- Node14 -->
<g id="node14" class="node">
<title>Node14</title>
<g id="a_node14"><a xlink:title=" ">
<polygon fill="none" stroke="#bfbfbf" points="1086.5,-0.5 1086.5,-19.5 1164.5,-19.5 1164.5,-0.5 1086.5,-0.5"/>
<text text-anchor="middle" x="1125.5" y="-7.5" font-family="Helvetica,sans-Serif" font-size="10.00">shared_mutex</text>
</a>
</g>
</g>
<!-- Node5&#45;&gt;Node14 -->
<g id="edge13" class="edge">
<title>Node5&#45;&gt;Node14</title>
<path fill="none" stroke="midnightblue" d="M1331.68,-56.44C1288.94,-47.02 1220.17,-31.87 1173.93,-21.68"/>
<polygon fill="midnightblue" stroke="midnightblue" points="1174.66,-18.25 1164.14,-19.52 1173.15,-25.09 1174.66,-18.25"/>
</g>
<!-- Node15 -->
<g id="node15" class="node">
<title>Node15</title>
<g id="a_node15"><a xlink:title=" ">
<polygon fill="none" stroke="#bfbfbf" points="1182.5,-0.5 1182.5,-19.5 1240.5,-19.5 1240.5,-0.5 1182.5,-0.5"/>
<text text-anchor="middle" x="1211.5" y="-7.5" font-family="Helvetica,sans-Serif" font-size="10.00">functional</text>
</a>
</g>
</g>
<!-- Node5&#45;&gt;Node15 -->
<g id="edge14" class="edge">
<title>Node5&#45;&gt;Node15</title>
<path fill="none" stroke="midnightblue" d="M1345.31,-56.44C1318.56,-47.36 1276.1,-32.94 1246.19,-22.78"/>
<polygon fill="midnightblue" stroke="midnightblue" points="1247.17,-19.42 1236.58,-19.52 1244.92,-26.05 1247.17,-19.42"/>
</g>
<!-- Node16 -->
<g id="node16" class="node">
<title>Node16</title>
<g id="a_node16"><a xlink:title=" ">
<polygon fill="none" stroke="#bfbfbf" points="1259,-0.5 1259,-19.5 1324,-19.5 1324,-0.5 1259,-0.5"/>
<text text-anchor="middle" x="1291.5" y="-7.5" font-family="Helvetica,sans-Serif" font-size="10.00">semaphore</text>
</a>
</g>
</g>
<!-- Node5&#45;&gt;Node16 -->
<g id="edge15" class="edge">
<title>Node5&#45;&gt;Node16</title>
<path fill="none" stroke="midnightblue" d="M1357.81,-56.32C1345.6,-47.98 1326.92,-35.21 1312.5,-25.35"/>
<polygon fill="midnightblue" stroke="midnightblue" points="1314.39,-22.41 1304.16,-19.65 1310.44,-28.19 1314.39,-22.41"/>
</g>
<!-- Node17 -->
<g id="node17" class="node">
<title>Node17</title>
<g id="a_node17"><a xlink:title=" ">
<polygon fill="none" stroke="#bfbfbf" points="1342.5,-0.5 1342.5,-19.5 1398.5,-19.5 1398.5,-0.5 1342.5,-0.5"/>
<text text-anchor="middle" x="1370.5" y="-7.5" font-family="Helvetica,sans-Serif" font-size="10.00">concepts</text>
</a>
</g>
</g>
<!-- Node5&#45;&gt;Node17 -->
<g id="edge16" class="edge">
<title>Node5&#45;&gt;Node17</title>
<path fill="none" stroke="midnightblue" d="M1370.5,-56.08C1370.5,-49.01 1370.5,-38.86 1370.5,-29.99"/>
<polygon fill="midnightblue" stroke="midnightblue" points="1374,-29.75 1370.5,-19.75 1367,-29.75 1374,-29.75"/>
</g>
<!-- Node18 -->
<g id="node18" class="node">
<title>Node18</title>
<g id="a_node18"><a xlink:title=" ">
<polygon fill="none" stroke="#bfbfbf" points="1416.5,-0.5 1416.5,-19.5 1470.5,-19.5 1470.5,-0.5 1416.5,-0.5"/>
<text text-anchor="middle" x="1443.5" y="-7.5" font-family="Helvetica,sans-Serif" font-size="10.00">iostream</text>
</a>
</g>
</g>
<!-- Node5&#45;&gt;Node18 -->
<g id="edge17" class="edge">
<title>Node5&#45;&gt;Node18</title>
<path fill="none" stroke="midnightblue" d="M1382.23,-56.32C1393.34,-48.11 1410.24,-35.6 1423.48,-25.81"/>
<polygon fill="midnightblue" stroke="midnightblue" points="1425.6,-28.59 1431.56,-19.83 1421.44,-22.97 1425.6,-28.59"/>
</g>
<!-- Node19 -->
<g id="node19" class="node">
<title>Node19</title>
<g id="a_node19"><a xlink:title=" ">
<polygon fill="none" stroke="#bfbfbf" points="1489,-0.5 1489,-19.5 1538,-19.5 1538,-0.5 1489,-0.5"/>
<text text-anchor="middle" x="1513.5" y="-7.5" font-family="Helvetica,sans-Serif" font-size="10.00">fstream</text>
</a>
</g>
</g>
<!-- Node5&#45;&gt;Node19 -->
<g id="edge18" class="edge">
<title>Node5&#45;&gt;Node19</title>
<path fill="none" stroke="midnightblue" d="M1393.16,-56.44C1416.9,-47.48 1454.41,-33.31 1481.24,-23.18"/>
<polygon fill="midnightblue" stroke="midnightblue" points="1482.83,-26.32 1490.95,-19.52 1480.36,-19.77 1482.83,-26.32"/>
</g>
<!-- Node20 -->
<g id="node20" class="node">
<title>Node20</title>
<g id="a_node20"><a xlink:title=" ">
<polygon fill="none" stroke="#bfbfbf" points="1556,-0.5 1556,-19.5 1597,-19.5 1597,-0.5 1556,-0.5"/>
<text text-anchor="middle" x="1576.5" y="-7.5" font-family="Helvetica,sans-Serif" font-size="10.00">bitset</text>
</a>
</g>
</g>
<!-- Node5&#45;&gt;Node20 -->
<g id="edge19" class="edge">
<title>Node5&#45;&gt;Node20</title>
<path fill="none" stroke="midnightblue" d="M1406.24,-56.49C1440.07,-48.31 1492.47,-35.31 1546.25,-20.26"/>
<polygon fill="midnightblue" stroke="midnightblue" points="1547.27,-23.61 1555.94,-17.52 1545.37,-16.87 1547.27,-23.61"/>
</g>
<!-- Node21 -->
<g id="node21" class="node">
<title>Node21</title>
<g id="a_node21"><a xlink:title=" ">
<polygon fill="none" stroke="#bfbfbf" points="1615.5,-0.5 1615.5,-19.5 1667.5,-19.5 1667.5,-0.5 1615.5,-0.5"/>
<text text-anchor="middle" x="1641.5" y="-7.5" font-family="Helvetica,sans-Serif" font-size="10.00">memory</text>
</a>
</g>
</g>
<!-- Node5&#45;&gt;Node21 -->
<g id="edge20" class="edge">
<title>Node5&#45;&gt;Node21</title>
<path fill="none" stroke="midnightblue" d="M1420.41,-56.43C1466.16,-48.36 1535.97,-35.51 1605.38,-20.15"/>
<polygon fill="midnightblue" stroke="midnightblue" points="1606.17,-23.56 1615.17,-17.96 1604.65,-16.72 1606.17,-23.56"/>
</g>
<!-- Node22 -->
<g id="node22" class="node">
<title>Node22</title>
<g id="a_node22"><a xlink:title=" ">
<polygon fill="none" stroke="#bfbfbf" points="1686,-0.5 1686,-19.5 1735,-19.5 1735,-0.5 1686,-0.5"/>
<text text-anchor="middle" x="1710.5" y="-7.5" font-family="Helvetica,sans-Serif" font-size="10.00">random</text>
</a>
</g>
</g>
<!-- Node5&#45;&gt;Node22 -->
<g id="edge21" class="edge">
<title>Node5&#45;&gt;Node22</title>
<path fill="none" stroke="midnightblue" d="M1437.74,-57.33C1497.74,-49.97 1588.15,-37.66 1675.84,-19.93"/>
<polygon fill="midnightblue" stroke="midnightblue" points="1676.6,-23.35 1685.69,-17.91 1675.2,-16.49 1676.6,-23.35"/>
</g>
<!-- Node23 -->
<g id="node23" class="node">
<title>Node23</title>
<g id="a_node23"><a xlink:title=" ">
<polygon fill="none" stroke="#bfbfbf" points="1753,-0.5 1753,-19.5 1794,-19.5 1794,-0.5 1753,-0.5"/>
<text text-anchor="middle" x="1773.5" y="-7.5" font-family="Helvetica,sans-Serif" font-size="10.00">string</text>
</a>
</g>
</g>
<!-- Node5&#45;&gt;Node23 -->
<g id="edge22" class="edge">
<title>Node5&#45;&gt;Node23</title>
<path fill="none" stroke="midnightblue" d="M1437.65,-60.6C1510.77,-54.99 1631.18,-43.34 1742.64,-20.08"/>
<polygon fill="midnightblue" stroke="midnightblue" points="1743.66,-23.45 1752.71,-17.95 1742.2,-16.6 1743.66,-23.45"/>
</g>
<!-- Node24 -->
<g id="node24" class="node">
<title>Node24</title>
<g id="a_node24"><a xlink:title=" ">
<polygon fill="none" stroke="#bfbfbf" points="1812.5,-0.5 1812.5,-19.5 1854.5,-19.5 1854.5,-0.5 1812.5,-0.5"/>
<text text-anchor="middle" x="1833.5" y="-7.5" font-family="Helvetica,sans-Serif" font-size="10.00">vector</text>
</a>
</g>
</g>
<!-- Node5&#45;&gt;Node24 -->
<g id="edge23" class="edge">
<title>Node5&#45;&gt;Node24</title>
<path fill="none" stroke="midnightblue" d="M1437.85,-61.93C1521.41,-57.24 1668.27,-46.14 1802.28,-19.89"/>
<polygon fill="midnightblue" stroke="midnightblue" points="1803.2,-23.28 1812.32,-17.89 1801.83,-16.41 1803.2,-23.28"/>
</g>
<!-- Node25 -->
<g id="node25" class="node">
<title>Node25</title>
<g id="a_node25"><a xlink:title=" ">
<polygon fill="none" stroke="#bfbfbf" points="1872.5,-0.5 1872.5,-19.5 1916.5,-19.5 1916.5,-0.5 1872.5,-0.5"/>
<text text-anchor="middle" x="1894.5" y="-7.5" font-family="Helvetica,sans-Serif" font-size="10.00">thread</text>
</a>
</g>
</g>
<!-- Node5&#45;&gt;Node25 -->
<g id="edge24" class="edge">
<title>Node5&#45;&gt;Node25</title>
<path fill="none" stroke="midnightblue" d="M1437.65,-62.94C1531,-59.18 1705.27,-48.9 1861.98,-19.94"/>
<polygon fill="midnightblue" stroke="midnightblue" points="1863.09,-23.29 1872.27,-18.01 1861.8,-16.41 1863.09,-23.29"/>
</g>
<!-- Node26 -->
<g id="node26" class="node">
<title>Node26</title>
<g id="a_node26"><a xlink:title=" ">
<polygon fill="none" stroke="#bfbfbf" points="1934.5,-0.5 1934.5,-19.5 1978.5,-19.5 1978.5,-0.5 1934.5,-0.5"/>
<text text-anchor="middle" x="1956.5" y="-7.5" font-family="Helvetica,sans-Serif" font-size="10.00">mutex</text>
</a>
</g>
</g>
<!-- Node5&#45;&gt;Node26 -->
<g id="edge25" class="edge">
<title>Node5&#45;&gt;Node26</title>
<path fill="none" stroke="midnightblue" d="M1437.71,-63.91C1540.77,-61.28 1743.99,-52.3 1924.35,-19.85"/>
<polygon fill="midnightblue" stroke="midnightblue" points="1925.07,-23.27 1934.28,-18.03 1923.81,-16.39 1925.07,-23.27"/>
</g>
<!-- Node27 -->
<g id="node27" class="node">
<title>Node27</title>
<g id="a_node27"><a xlink:title=" ">
<polygon fill="none" stroke="#bfbfbf" points="1997,-0.5 1997,-19.5 2040,-19.5 2040,-0.5 1997,-0.5"/>
<text text-anchor="middle" x="2018.5" y="-7.5" font-family="Helvetica,sans-Serif" font-size="10.00">queue</text>
</a>
</g>
</g>
<!-- Node5&#45;&gt;Node27 -->
<g id="edge26" class="edge">
<title>Node5&#45;&gt;Node27</title>
<path fill="none" stroke="midnightblue" d="M1437.72,-64.69C1549.88,-63.17 1782.18,-55.74 1986.92,-19.68"/>
<polygon fill="midnightblue" stroke="midnightblue" points="1987.73,-23.09 1996.96,-17.88 1986.5,-16.2 1987.73,-23.09"/>
</g>
<!-- Node28 -->
<g id="node28" class="node">
<title>Node28</title>
<g id="a_node28"><a xlink:title=" ">
<polygon fill="none" stroke="#bfbfbf" points="2058,-0.5 2058,-19.5 2093,-19.5 2093,-0.5 2058,-0.5"/>
<text text-anchor="middle" x="2075.5" y="-7.5" font-family="Helvetica,sans-Serif" font-size="10.00">map</text>
</a>
</g>
</g>
<!-- Node5&#45;&gt;Node28 -->
<g id="edge27" class="edge">
<title>Node5&#45;&gt;Node28</title>
<path fill="none" stroke="midnightblue" d="M1437.69,-62.83C1581.54,-57.81 1916.28,-44.13 2047.91,-19.76"/>
<polygon fill="midnightblue" stroke="midnightblue" points="2048.63,-23.19 2057.77,-17.84 2047.29,-16.32 2048.63,-23.19"/>
</g>
<!-- Node31&#45;&gt;Node4 -->
<g id="edge32" class="edge">
<title>Node31&#45;&gt;Node4</title>
<path fill="none" stroke="midnightblue" d="M1661.84,-403.18C1671.81,-394.86 1686,-381.52 1694.5,-367 1709.7,-341.02 1713.5,-332.1 1713.5,-302 1713.5,-302 1713.5,-302 1713.5,-244 1713.5,-188.04 1547.43,-154.03 1446.4,-138.52"/>
<polygon fill="midnightblue" stroke="midnightblue" points="1446.64,-135.02 1436.23,-136.99 1445.59,-141.94 1446.64,-135.02"/>
</g>
<!-- Node32 -->
<g id="node32" class="node">
<title>Node32</title>
<g id="a_node32"><a xlink:title=" ">
<polygon fill="none" stroke="#bfbfbf" points="1615.5,-347.5 1615.5,-366.5 1685.5,-366.5 1685.5,-347.5 1615.5,-347.5"/>
<text text-anchor="middle" x="1650.5" y="-354.5" font-family="Helvetica,sans-Serif" font-size="10.00">opus/opus.h</text>
</a>
</g>
</g>
<!-- Node31&#45;&gt;Node32 -->
<g id="edge33" class="edge">
<title>Node31&#45;&gt;Node32</title>
<path fill="none" stroke="midnightblue" d="M1650.5,-403.08C1650.5,-396.01 1650.5,-385.86 1650.5,-376.99"/>
<polygon fill="midnightblue" stroke="midnightblue" points="1654,-376.75 1650.5,-366.75 1647,-376.75 1654,-376.75"/>
</g>
<!-- Node33&#45;&gt;Node4 -->
<g id="edge35" class="edge">
<title>Node33&#45;&gt;Node4</title>
<path fill="none" stroke="midnightblue" d="M1486.6,-403.41C1522.92,-388.75 1587.5,-355.19 1587.5,-302 1587.5,-302 1587.5,-302 1587.5,-244 1587.5,-178.17 1508.72,-149.74 1446.09,-137.54"/>
<polygon fill="midnightblue" stroke="midnightblue" points="1446.66,-134.08 1436.2,-135.71 1445.4,-140.97 1446.66,-134.08"/>
</g>
<!-- Node34 -->
<g id="node34" class="node">
<title>Node34</title>
<g id="a_node34"><a xlink:href="../../d3/d4f/a00761.html" target="_top" xlink:title=" ">
<polygon fill="none" stroke="black" points="1371.5,-347.5 1371.5,-366.5 1521.5,-366.5 1521.5,-347.5 1371.5,-347.5"/>
<text text-anchor="middle" x="1446.5" y="-354.5" font-family="Helvetica,sans-Serif" font-size="10.00">discordcoreapi/ThreadPool.hpp</text>
</a>
</g>
</g>
<!-- Node33&#45;&gt;Node34 -->
<g id="edge36" class="edge">
<title>Node33&#45;&gt;Node34</title>
<path fill="none" stroke="midnightblue" d="M1459.86,-403.08C1457.71,-395.85 1454.62,-385.41 1451.95,-376.4"/>
<polygon fill="midnightblue" stroke="midnightblue" points="1455.29,-375.34 1449.09,-366.75 1448.58,-377.33 1455.29,-375.34"/>
</g>
<!-- Node49 -->
<g id="node49" class="node">
<title>Node49</title>
<g id="a_node49"><a xlink:title=" ">
<polygon fill="none" stroke="#bfbfbf" points="1503.5,-291.5 1503.5,-310.5 1559.5,-310.5 1559.5,-291.5 1503.5,-291.5"/>
<text text-anchor="middle" x="1531.5" y="-298.5" font-family="Helvetica,sans-Serif" font-size="10.00">coroutine</text>
</a>
</g>
</g>
<!-- Node33&#45;&gt;Node49 -->
<g id="edge55" class="edge">
<title>Node33&#45;&gt;Node49</title>
<path fill="none" stroke="midnightblue" d="M1485.87,-403.36C1501.54,-396.21 1520.98,-384.39 1530.5,-367 1538.2,-352.92 1537.66,-334.43 1535.65,-320.77"/>
<polygon fill="midnightblue" stroke="midnightblue" points="1539.04,-319.83 1533.77,-310.64 1532.15,-321.11 1539.04,-319.83"/>
</g>
<!-- Node34&#45;&gt;Node4 -->
<g id="edge37" class="edge">
<title>Node34&#45;&gt;Node4</title>
<path fill="none" stroke="midnightblue" d="M1453.22,-347.46C1473.63,-320.43 1531.21,-235.25 1493.5,-179 1482.28,-162.27 1464.42,-151.08 1445.75,-143.59"/>
<polygon fill="midnightblue" stroke="midnightblue" points="1446.84,-140.26 1436.25,-140.11 1444.43,-146.83 1446.84,-140.26"/>
</g>
<!-- Node34&#45;&gt;Node35 -->
<g id="edge38" class="edge">
<title>Node34&#45;&gt;Node35</title>
<path fill="none" stroke="midnightblue" d="M1429.95,-347.32C1413.51,-338.7 1388.07,-325.36 1369.03,-315.39"/>
<polygon fill="midnightblue" stroke="midnightblue" points="1370.49,-312.2 1360.01,-310.65 1367.24,-318.4 1370.49,-312.2"/>
</g>
<!-- Node34&#45;&gt;Node49 -->
<g id="edge54" class="edge">
<title>Node34&#45;&gt;Node49</title>
<path fill="none" stroke="midnightblue" d="M1460.16,-347.32C1473.42,-338.9 1493.77,-325.97 1509.35,-316.07"/>
<polygon fill="midnightblue" stroke="midnightblue" points="1511.31,-318.97 1517.88,-310.65 1507.56,-313.06 1511.31,-318.97"/>
</g>
<!-- Node36 -->
<g id="node36" class="node">
<title>Node36</title>
<g id="a_node36"><a xlink:href="../../d5/de8/a00749.html" target="_top" xlink:title=" ">
<polygon fill="none" stroke="black" points="932.5,-235.5 932.5,-254.5 1082.5,-254.5 1082.5,-235.5 932.5,-235.5"/>
<text text-anchor="middle" x="1007.5" y="-242.5" font-family="Helvetica,sans-Serif" font-size="10.00">discordcoreapi/SSLClients.hpp</text>
</a>
</g>
</g>
<!-- Node35&#45;&gt;Node36 -->
<g id="edge39" class="edge">
<title>Node35&#45;&gt;Node36</title>
<path fill="none" stroke="midnightblue" d="M1290.26,-291.44C1230.54,-281.85 1133.76,-266.29 1070.37,-256.1"/>
<polygon fill="midnightblue" stroke="midnightblue" points="1070.92,-252.65 1060.49,-254.52 1069.81,-259.56 1070.92,-252.65"/>
</g>
<!-- Node36&#45;&gt;Node3 -->
<g id="edge41" class="edge">
<title>Node36&#45;&gt;Node3</title>
<path fill="none" stroke="midnightblue" d="M932.41,-237.79C834.16,-229.58 656.34,-214.46 493.84,-199.11"/>
<polygon fill="midnightblue" stroke="midnightblue" points="493.93,-195.61 483.65,-198.15 493.27,-202.58 493.93,-195.61"/>
</g>
<!-- Node36&#45;&gt;Node4 -->
<g id="edge40" class="edge">
<title>Node36&#45;&gt;Node4</title>
<path fill="none" stroke="midnightblue" d="M1063.17,-235.45C1104.13,-228.23 1160.75,-216.27 1208.5,-199 1226.82,-192.37 1229.81,-187.15 1247.5,-179 1272.75,-167.37 1301.45,-155.51 1324.78,-146.21"/>
<polygon fill="midnightblue" stroke="midnightblue" points="1326.09,-149.45 1334.1,-142.51 1323.51,-142.94 1326.09,-149.45"/>
</g>
<!-- Node37 -->
<g id="node37" class="node">
<title>Node37</title>
<g id="a_node37"><a xlink:title=" ">
<polygon fill="none" stroke="#bfbfbf" points="1257,-179.5 1257,-198.5 1330,-198.5 1330,-179.5 1257,-179.5"/>
<text text-anchor="middle" x="1293.5" y="-186.5" font-family="Helvetica,sans-Serif" font-size="10.00">openssl/err.h</text>
</a>
</g>
</g>
<!-- Node36&#45;&gt;Node37 -->
<g id="edge42" class="edge">
<title>Node36&#45;&gt;Node37</title>
<path fill="none" stroke="midnightblue" d="M1052.82,-235.44C1105.79,-225.44 1193.02,-208.97 1246.65,-198.85"/>
<polygon fill="midnightblue" stroke="midnightblue" points="1247.4,-202.27 1256.58,-196.97 1246.1,-195.39 1247.4,-202.27"/>
</g>
<!-- Node38 -->
<g id="node38" class="node">
<title>Node38</title>
<g id="a_node38"><a xlink:title=" ">
<polygon fill="none" stroke="#bfbfbf" points="1348.5,-179.5 1348.5,-198.5 1422.5,-198.5 1422.5,-179.5 1348.5,-179.5"/>
<text text-anchor="middle" x="1385.5" y="-186.5" font-family="Helvetica,sans-Serif" font-size="10.00">openssl/ssl.h</text>
</a>
</g>
</g>
<!-- Node36&#45;&gt;Node38 -->
<g id="edge43" class="edge">
<title>Node36&#45;&gt;Node38</title>
<path fill="none" stroke="midnightblue" d="M1079.57,-235.47C1144.64,-227.48 1243.24,-214.68 1338.3,-199.12"/>
<polygon fill="midnightblue" stroke="midnightblue" points="1339.08,-202.54 1348.38,-197.46 1337.94,-195.63 1339.08,-202.54"/>
</g>
<!-- Node39 -->
<g id="node39" class="node">
<title>Node39</title>
<g id="a_node39"><a xlink:title=" ">
<polygon fill="none" stroke="#bfbfbf" points="1441,-179.5 1441,-198.5 1484,-198.5 1484,-179.5 1441,-179.5"/>
<text text-anchor="middle" x="1462.5" y="-186.5" font-family="Helvetica,sans-Serif" font-size="10.00">fcntl.h</text>
</a>
</g>
</g>
<!-- Node36&#45;&gt;Node39 -->
<g id="edge44" class="edge">
<title>Node36&#45;&gt;Node39</title>
<path fill="none" stroke="midnightblue" d="M1082.78,-240.04C1165.85,-234.76 1303.54,-223.34 1431,-198.74"/>
<polygon fill="midnightblue" stroke="midnightblue" points="1431.8,-202.15 1440.94,-196.79 1430.45,-195.28 1431.8,-202.15"/>
</g>
<!-- Node40 -->
<g id="node40" class="node">
<title>Node40</title>
<g id="a_node40"><a xlink:title=" ">
<polygon fill="none" stroke="#bfbfbf" points="502,-179.5 502,-198.5 551,-198.5 551,-179.5 502,-179.5"/>
<text text-anchor="middle" x="526.5" y="-186.5" font-family="Helvetica,sans-Serif" font-size="10.00">netdb.h</text>
</a>
</g>
</g>
<!-- Node36&#45;&gt;Node40 -->
<g id="edge45" class="edge">
<title>Node36&#45;&gt;Node40</title>
<path fill="none" stroke="midnightblue" d="M932.45,-240.28C845.21,-235.1 696.86,-223.64 561.41,-199.1"/>
<polygon fill="midnightblue" stroke="midnightblue" points="561.73,-195.6 551.26,-197.23 560.47,-202.48 561.73,-195.6"/>
</g>
<!-- Node41 -->
<g id="node41" class="node">
<title>Node41</title>
<g id="a_node41"><a xlink:title=" ">
<polygon fill="none" stroke="#bfbfbf" points="569,-179.5 569,-198.5 634,-198.5 634,-179.5 569,-179.5"/>
<text text-anchor="middle" x="601.5" y="-186.5" font-family="Helvetica,sans-Serif" font-size="10.00">netinet/in.h</text>
</a>
</g>
</g>
<!-- Node36&#45;&gt;Node41 -->
<g id="edge46" class="edge">
<title>Node36&#45;&gt;Node41</title>
<path fill="none" stroke="midnightblue" d="M932.4,-236.81C860.71,-229.48 749.47,-216.88 644.28,-199.18"/>
<polygon fill="midnightblue" stroke="midnightblue" points="644.57,-195.68 634.12,-197.45 643.39,-202.58 644.57,-195.68"/>
</g>
<!-- Node42 -->
<g id="node42" class="node">
<title>Node42</title>
<g id="a_node42"><a xlink:title=" ">
<polygon fill="none" stroke="#bfbfbf" points="652,-179.5 652,-198.5 723,-198.5 723,-179.5 652,-179.5"/>
<text text-anchor="middle" x="687.5" y="-186.5" font-family="Helvetica,sans-Serif" font-size="10.00">netinet/tcp.h</text>
</a>
</g>
</g>
<!-- Node36&#45;&gt;Node42 -->
<g id="edge47" class="edge">
<title>Node36&#45;&gt;Node42</title>
<path fill="none" stroke="midnightblue" d="M951.09,-235.48C897.41,-227.22 814.12,-214.01 732.91,-199.21"/>
<polygon fill="midnightblue" stroke="midnightblue" points="733.48,-195.75 723.02,-197.39 732.22,-202.64 733.48,-195.75"/>
</g>
<!-- Node43 -->
<g id="node43" class="node">
<title>Node43</title>
<g id="a_node43"><a xlink:title=" ">
<polygon fill="none" stroke="#bfbfbf" points="741,-179.5 741,-198.5 790,-198.5 790,-179.5 741,-179.5"/>
<text text-anchor="middle" x="765.5" y="-186.5" font-family="Helvetica,sans-Serif" font-size="10.00">stdint.h</text>
</a>
</g>
</g>
<!-- Node36&#45;&gt;Node43 -->
<g id="edge48" class="edge">
<title>Node36&#45;&gt;Node43</title>
<path fill="none" stroke="midnightblue" d="M965.14,-235.43C925.16,-227.2 863.3,-214.14 800.44,-199.14"/>
<polygon fill="midnightblue" stroke="midnightblue" points="800.89,-195.65 790.35,-196.72 799.26,-202.46 800.89,-195.65"/>
</g>
<!-- Node44 -->
<g id="node44" class="node">
<title>Node44</title>
<g id="a_node44"><a xlink:title=" ">
<polygon fill="none" stroke="#bfbfbf" points="808.5,-179.5 808.5,-198.5 872.5,-198.5 872.5,-179.5 808.5,-179.5"/>
<text text-anchor="middle" x="840.5" y="-186.5" font-family="Helvetica,sans-Serif" font-size="10.00">sys/epoll.h</text>
</a>
</g>
</g>
<!-- Node36&#45;&gt;Node44 -->
<g id="edge49" class="edge">
<title>Node36&#45;&gt;Node44</title>
<path fill="none" stroke="midnightblue" d="M981.04,-235.44C952.82,-226.32 907.96,-211.81 876.53,-201.65"/>
<polygon fill="midnightblue" stroke="midnightblue" points="877.43,-198.26 866.84,-198.52 875.28,-204.92 877.43,-198.26"/>
</g>
<!-- Node45 -->
<g id="node45" class="node">
<title>Node45</title>
<g id="a_node45"><a xlink:title=" ">
<polygon fill="none" stroke="#bfbfbf" points="890.5,-179.5 890.5,-198.5 952.5,-198.5 952.5,-179.5 890.5,-179.5"/>
<text text-anchor="middle" x="921.5" y="-186.5" font-family="Helvetica,sans-Serif" font-size="10.00">arpa/inet.h</text>
</a>
</g>
</g>
<!-- Node36&#45;&gt;Node45 -->
<g id="edge50" class="edge">
<title>Node36&#45;&gt;Node45</title>
<path fill="none" stroke="midnightblue" d="M993.68,-235.32C980.27,-226.9 959.68,-213.97 943.91,-204.07"/>
<polygon fill="midnightblue" stroke="midnightblue" points="945.61,-201.01 935.28,-198.65 941.89,-206.94 945.61,-201.01"/>
</g>
<!-- Node46 -->
<g id="node46" class="node">
<title>Node46</title>
<g id="a_node46"><a xlink:title=" ">
<polygon fill="none" stroke="#bfbfbf" points="971,-179.5 971,-198.5 1044,-198.5 1044,-179.5 971,-179.5"/>
<text text-anchor="middle" x="1007.5" y="-186.5" font-family="Helvetica,sans-Serif" font-size="10.00">sys/socket.h</text>
</a>
</g>
</g>
<!-- Node36&#45;&gt;Node46 -->
<g id="edge51" class="edge">
<title>Node36&#45;&gt;Node46</title>
<path fill="none" stroke="midnightblue" d="M1007.5,-235.08C1007.5,-228.01 1007.5,-217.86 1007.5,-208.99"/>
<polygon fill="midnightblue" stroke="midnightblue" points="1011,-208.75 1007.5,-198.75 1004,-208.75 1011,-208.75"/>
</g>
<!-- Node47 -->
<g id="node47" class="node">
<title>Node47</title>
<g id="a_node47"><a xlink:title=" ">
<polygon fill="none" stroke="#bfbfbf" points="1062.5,-179.5 1062.5,-198.5 1130.5,-198.5 1130.5,-179.5 1062.5,-179.5"/>
<text text-anchor="middle" x="1096.5" y="-186.5" font-family="Helvetica,sans-Serif" font-size="10.00">sys/types.h</text>
</a>
</g>
</g>
<!-- Node36&#45;&gt;Node47 -->
<g id="edge52" class="edge">
<title>Node36&#45;&gt;Node47</title>
<path fill="none" stroke="midnightblue" d="M1021.8,-235.32C1035.68,-226.9 1056.99,-213.97 1073.3,-204.07"/>
<polygon fill="midnightblue" stroke="midnightblue" points="1075.5,-206.83 1082.24,-198.65 1071.87,-200.85 1075.5,-206.83"/>
</g>
<!-- Node48 -->
<g id="node48" class="node">
<title>Node48</title>
<g id="a_node48"><a xlink:title=" ">
<polygon fill="none" stroke="#bfbfbf" points="1149,-179.5 1149,-198.5 1200,-198.5 1200,-179.5 1149,-179.5"/>
<text text-anchor="middle" x="1174.5" y="-186.5" font-family="Helvetica,sans-Serif" font-size="10.00">unistd.h</text>
</a>
</g>
</g>
<!-- Node36&#45;&gt;Node48 -->
<g id="edge53" class="edge">
<title>Node36&#45;&gt;Node48</title>
<path fill="none" stroke="midnightblue" d="M1033.96,-235.44C1062.43,-226.24 1107.83,-211.56 1139.3,-201.38"/>
<polygon fill="midnightblue" stroke="midnightblue" points="1140.55,-204.66 1148.98,-198.25 1138.39,-198 1140.55,-204.66"/>
</g>
</g>
</svg>
