<?xml version="1.0" encoding="UTF-8" standalone="no"?>
<!DOCTYPE svg PUBLIC "-//W3C//DTD SVG 1.1//EN"
 "http://www.w3.org/Graphics/SVG/1.1/DTD/svg11.dtd">
<!-- Generated by graphviz version 3.0.0 (20220226.1711)
 -->
<!-- Title: SoundCloudAPI.hpp Pages: 1 -->
<svg width="1742pt" height="487pt"
 viewBox="0.00 0.00 1742.00 487.00" xmlns="http://www.w3.org/2000/svg" xmlns:xlink="http://www.w3.org/1999/xlink">
<g id="graph0" class="graph" transform="scale(1 1) rotate(0) translate(4 483)">
<title>SoundCloudAPI.hpp</title>
<!-- Node1 -->
<g id="node1" class="node">
<title>Node1</title>
<g id="a_node1"><a xlink:title=" ">
<polygon fill="#bfbfbf" stroke="black" points="1369.5,-459.5 1369.5,-478.5 1473.5,-478.5 1473.5,-459.5 1369.5,-459.5"/>
<text text-anchor="middle" x="1421.5" y="-466.5" font-family="Helvetica,sans-Serif" font-size="10.00">SoundCloudAPI.hpp</text>
</a>
</g>
</g>
<!-- Node2 -->
<g id="node2" class="node">
<title>Node2</title>
<g id="a_node2"><a xlink:href="$d4/d9b/a00680.html" xlink:title=" ">
<polygon fill="none" stroke="black" points="216.5,-235.5 216.5,-254.5 378.5,-254.5 378.5,-235.5 216.5,-235.5"/>
<text text-anchor="middle" x="297.5" y="-242.5" font-family="Helvetica,sans-Serif" font-size="10.00">discordcoreapi/AudioDecoder.hpp</text>
</a>
</g>
</g>
<!-- Node1&#45;&gt;Node2 -->
<g id="edge1" class="edge">
<title>Node1&#45;&gt;Node2</title>
<path fill="none" stroke="midnightblue" d="M1378.13,-459.43C1202.34,-424.71 543.18,-294.52 350.63,-256.49"/>
<polygon fill="midnightblue" stroke="midnightblue" points="351.23,-253.05 340.74,-254.54 349.88,-259.91 351.23,-253.05"/>
</g>
<!-- Node31 -->
<g id="node31" class="node">
<title>Node31</title>
<g id="a_node31"><a xlink:href="$db/d77/a00683.html" xlink:title=" ">
<polygon fill="none" stroke="black" points="1564.5,-403.5 1564.5,-422.5 1726.5,-422.5 1726.5,-403.5 1564.5,-403.5"/>
<text text-anchor="middle" x="1645.5" y="-410.5" font-family="Helvetica,sans-Serif" font-size="10.00">discordcoreapi/AudioEncoder.hpp</text>
</a>
</g>
</g>
<!-- Node1&#45;&gt;Node31 -->
<g id="edge31" class="edge">
<title>Node1&#45;&gt;Node31</title>
<path fill="none" stroke="midnightblue" d="M1456.99,-459.44C1495.82,-450.08 1558.16,-435.06 1600.42,-424.87"/>
<polygon fill="midnightblue" stroke="midnightblue" points="1601.27,-428.26 1610.17,-422.52 1599.63,-421.46 1601.27,-428.26"/>
</g>
<!-- Node33 -->
<g id="node33" class="node">
<title>Node33</title>
<g id="a_node33"><a xlink:href="$d5/d5b/a00695.html" xlink:title=" ">
<polygon fill="none" stroke="black" points="1400.5,-403.5 1400.5,-422.5 1546.5,-422.5 1546.5,-403.5 1400.5,-403.5"/>
<text text-anchor="middle" x="1473.5" y="-410.5" font-family="Helvetica,sans-Serif" font-size="10.00">discordcoreapi/CoRoutine.hpp</text>
</a>
</g>
</g>
<!-- Node1&#45;&gt;Node33 -->
<g id="edge34" class="edge">
<title>Node1&#45;&gt;Node33</title>
<path fill="none" stroke="midnightblue" d="M1430.09,-459.08C1437.66,-451.22 1448.88,-439.57 1458.01,-430.08"/>
<polygon fill="midnightblue" stroke="midnightblue" points="1460.66,-432.38 1465.07,-422.75 1455.62,-427.53 1460.66,-432.38"/>
</g>
<!-- Node35 -->
<g id="node35" class="node">
<title>Node35</title>
<g id="a_node35"><a xlink:href="$db/d7c/a00722.html" xlink:title=" ">
<polygon fill="none" stroke="black" points="1309,-291.5 1309,-310.5 1434,-310.5 1434,-291.5 1309,-291.5"/>
<text text-anchor="middle" x="1371.5" y="-298.5" font-family="Helvetica,sans-Serif" font-size="10.00">discordcoreapi/Https.hpp</text>
</a>
</g>
</g>
<!-- Node1&#45;&gt;Node35 -->
<g id="edge55" class="edge">
<title>Node1&#45;&gt;Node35</title>
<path fill="none" stroke="midnightblue" d="M1414.07,-459.33C1407.1,-450.71 1396.95,-436.8 1391.5,-423 1377.93,-388.62 1373.57,-345.23 1372.16,-320.85"/>
<polygon fill="midnightblue" stroke="midnightblue" points="1375.65,-320.37 1371.69,-310.54 1368.65,-320.69 1375.65,-320.37"/>
</g>
<!-- Node3 -->
<g id="node3" class="node">
<title>Node3</title>
<g id="a_node3"><a xlink:href="$d4/d6a/a00704.html" xlink:title=" ">
<polygon fill="none" stroke="black" points="325.5,-179.5 325.5,-198.5 483.5,-198.5 483.5,-179.5 325.5,-179.5"/>
<text text-anchor="middle" x="404.5" y="-186.5" font-family="Helvetica,sans-Serif" font-size="10.00">discordcoreapi/EventEntities.hpp</text>
</a>
</g>
</g>
<!-- Node2&#45;&gt;Node3 -->
<g id="edge2" class="edge">
<title>Node2&#45;&gt;Node3</title>
<path fill="none" stroke="midnightblue" d="M314.69,-235.32C331.85,-226.66 358.45,-213.24 378.25,-203.25"/>
<polygon fill="midnightblue" stroke="midnightblue" points="380,-206.28 387.35,-198.65 376.85,-200.04 380,-206.28"/>
</g>
<!-- Node4 -->
<g id="node4" class="node">
<title>Node4</title>
<g id="a_node4"><a xlink:href="$d4/deb/a00710.html" xlink:title=" ">
<polygon fill="none" stroke="black" points="946,-112.5 946,-142.5 1077,-142.5 1077,-112.5 946,-112.5"/>
<text text-anchor="start" x="954" y="-130.5" font-family="Helvetica,sans-Serif" font-size="10.00">discordcoreapi/Foundation</text>
<text text-anchor="middle" x="1011.5" y="-119.5" font-family="Helvetica,sans-Serif" font-size="10.00">Entities.hpp</text>
</a>
</g>
</g>
<!-- Node2&#45;&gt;Node4 -->
<g id="edge28" class="edge">
<title>Node2&#45;&gt;Node4</title>
<path fill="none" stroke="midnightblue" d="M297.17,-235.16C297.17,-220.83 299.49,-192.74 316.5,-179 363.79,-140.8 765.34,-131.45 935.64,-129.2"/>
<polygon fill="midnightblue" stroke="midnightblue" points="935.83,-132.7 945.78,-129.07 935.74,-125.7 935.83,-132.7"/>
</g>
<!-- Node29 -->
<g id="node29" class="node">
<title>Node29</title>
<g id="a_node29"><a xlink:title=" ">
<polygon fill="none" stroke="#bfbfbf" points="159.5,-179.5 159.5,-198.5 269.5,-198.5 269.5,-179.5 159.5,-179.5"/>
<text text-anchor="middle" x="214.5" y="-186.5" font-family="Helvetica,sans-Serif" font-size="10.00">libavformat/avformat.h</text>
</a>
</g>
</g>
<!-- Node2&#45;&gt;Node29 -->
<g id="edge29" class="edge">
<title>Node2&#45;&gt;Node29</title>
<path fill="none" stroke="midnightblue" d="M284.16,-235.32C271.34,-226.98 251.72,-214.21 236.56,-204.35"/>
<polygon fill="midnightblue" stroke="midnightblue" points="238.09,-201.17 227.8,-198.65 234.28,-207.04 238.09,-201.17"/>
</g>
<!-- Node30 -->
<g id="node30" class="node">
<title>Node30</title>
<g id="a_node30"><a xlink:title=" ">
<polygon fill="none" stroke="#bfbfbf" points="0,-179.5 0,-198.5 141,-198.5 141,-179.5 0,-179.5"/>
<text text-anchor="middle" x="70.5" y="-186.5" font-family="Helvetica,sans-Serif" font-size="10.00">libswresample/swresample.h</text>
</a>
</g>
</g>
<!-- Node2&#45;&gt;Node30 -->
<g id="edge30" class="edge">
<title>Node2&#45;&gt;Node30</title>
<path fill="none" stroke="midnightblue" d="M261.53,-235.44C222.18,-226.08 159.01,-211.06 116.19,-200.87"/>
<polygon fill="midnightblue" stroke="midnightblue" points="116.84,-197.43 106.3,-198.52 115.22,-204.24 116.84,-197.43"/>
</g>
<!-- Node3&#45;&gt;Node4 -->
<g id="edge3" class="edge">
<title>Node3&#45;&gt;Node4</title>
<path fill="none" stroke="midnightblue" d="M483.54,-180.25C601.04,-168.73 820.29,-147.24 935.82,-135.92"/>
<polygon fill="midnightblue" stroke="midnightblue" points="936.38,-139.38 945.99,-134.92 935.69,-132.41 936.38,-139.38"/>
</g>
<!-- Node5 -->
<g id="node5" class="node">
<title>Node5</title>
<g id="a_node5"><a xlink:href="$d5/dae/a00767.html" xlink:title=" ">
<polygon fill="none" stroke="black" points="944.5,-56.5 944.5,-75.5 1078.5,-75.5 1078.5,-56.5 944.5,-56.5"/>
<text text-anchor="middle" x="1011.5" y="-63.5" font-family="Helvetica,sans-Serif" font-size="10.00">discordcoreapi/Utilities.hpp</text>
</a>
</g>
</g>
<!-- Node4&#45;&gt;Node5 -->
<g id="edge4" class="edge">
<title>Node4&#45;&gt;Node5</title>
<path fill="none" stroke="midnightblue" d="M1011.5,-112.4C1011.5,-104.47 1011.5,-94.46 1011.5,-85.86"/>
<polygon fill="midnightblue" stroke="midnightblue" points="1015,-85.66 1011.5,-75.66 1008,-85.66 1015,-85.66"/>
</g>
<!-- Node6 -->
<g id="node6" class="node">
<title>Node6</title>
<g id="a_node6"><a xlink:title=" ">
<polygon fill="none" stroke="#bfbfbf" points="18,-0.5 18,-19.5 75,-19.5 75,-0.5 18,-0.5"/>
<text text-anchor="middle" x="46.5" y="-7.5" font-family="Helvetica,sans-Serif" font-size="10.00">pthread.h</text>
</a>
</g>
</g>
<!-- Node5&#45;&gt;Node6 -->
<g id="edge5" class="edge">
<title>Node5&#45;&gt;Node6</title>
<path fill="none" stroke="midnightblue" d="M944.45,-63.35C763.93,-58.65 269.53,-44.07 85.15,-19.74"/>
<polygon fill="midnightblue" stroke="midnightblue" points="85.41,-16.24 75.03,-18.35 84.46,-23.18 85.41,-16.24"/>
</g>
<!-- Node7 -->
<g id="node7" class="node">
<title>Node7</title>
<g id="a_node7"><a xlink:title=" ">
<polygon fill="none" stroke="#bfbfbf" points="93.5,-0.5 93.5,-19.5 155.5,-19.5 155.5,-0.5 93.5,-0.5"/>
<text text-anchor="middle" x="124.5" y="-7.5" font-family="Helvetica,sans-Serif" font-size="10.00">sys/time.h</text>
</a>
</g>
</g>
<!-- Node5&#45;&gt;Node7 -->
<g id="edge6" class="edge">
<title>Node5&#45;&gt;Node7</title>
<path fill="none" stroke="midnightblue" d="M944.43,-65.26C802.35,-64.97 460.57,-59.92 165.87,-19.95"/>
<polygon fill="midnightblue" stroke="midnightblue" points="166.23,-16.47 155.85,-18.58 165.28,-23.4 166.23,-16.47"/>
</g>
<!-- Node8 -->
<g id="node8" class="node">
<title>Node8</title>
<g id="a_node8"><a xlink:title=" ">
<polygon fill="none" stroke="#bfbfbf" points="173.5,-0.5 173.5,-19.5 217.5,-19.5 217.5,-0.5 173.5,-0.5"/>
<text text-anchor="middle" x="195.5" y="-7.5" font-family="Helvetica,sans-Serif" font-size="10.00">time.h</text>
</a>
</g>
</g>
<!-- Node5&#45;&gt;Node8 -->
<g id="edge7" class="edge">
<title>Node5&#45;&gt;Node8</title>
<path fill="none" stroke="midnightblue" d="M944.48,-63.1C784.41,-58.25 382.34,-44.19 227.95,-19.8"/>
<polygon fill="midnightblue" stroke="midnightblue" points="228.15,-16.28 217.71,-18.1 227,-23.19 228.15,-16.28"/>
</g>
<!-- Node9 -->
<g id="node9" class="node">
<title>Node9</title>
<g id="a_node9"><a xlink:title=" ">
<polygon fill="none" stroke="#bfbfbf" points="236,-0.5 236,-19.5 277,-19.5 277,-0.5 236,-0.5"/>
<text text-anchor="middle" x="256.5" y="-7.5" font-family="Helvetica,sans-Serif" font-size="10.00">ctime</text>
</a>
</g>
</g>
<!-- Node5&#45;&gt;Node9 -->
<g id="edge8" class="edge">
<title>Node5&#45;&gt;Node9</title>
<path fill="none" stroke="midnightblue" d="M944.39,-62.89C793.29,-57.82 429.16,-43.7 287.47,-19.9"/>
<polygon fill="midnightblue" stroke="midnightblue" points="287.72,-16.39 277.26,-18.09 286.5,-23.28 287.72,-16.39"/>
</g>
<!-- Node10 -->
<g id="node10" class="node">
<title>Node10</title>
<g id="a_node10"><a xlink:title=" ">
<polygon fill="none" stroke="#bfbfbf" points="295,-0.5 295,-19.5 388,-19.5 388,-0.5 295,-0.5"/>
<text text-anchor="middle" x="341.5" y="-7.5" font-family="Helvetica,sans-Serif" font-size="10.00">condition_variable</text>
</a>
</g>
</g>
<!-- Node5&#45;&gt;Node10 -->
<g id="edge9" class="edge">
<title>Node5&#45;&gt;Node10</title>
<path fill="none" stroke="midnightblue" d="M944.09,-61.96C832.7,-56.53 603.05,-43.55 398.25,-19.98"/>
<polygon fill="midnightblue" stroke="midnightblue" points="398.55,-16.49 388.21,-18.82 397.74,-23.45 398.55,-16.49"/>
</g>
<!-- Node11 -->
<g id="node11" class="node">
<title>Node11</title>
<g id="a_node11"><a xlink:title=" ">
<polygon fill="none" stroke="#bfbfbf" points="406.5,-0.5 406.5,-19.5 504.5,-19.5 504.5,-0.5 406.5,-0.5"/>
<text text-anchor="middle" x="455.5" y="-7.5" font-family="Helvetica,sans-Serif" font-size="10.00">nlohmann/json.hpp</text>
</a>
</g>
</g>
<!-- Node5&#45;&gt;Node11 -->
<g id="edge10" class="edge">
<title>Node5&#45;&gt;Node11</title>
<path fill="none" stroke="midnightblue" d="M944.5,-60.31C850.7,-53.44 674.71,-39.45 514.55,-20.06"/>
<polygon fill="midnightblue" stroke="midnightblue" points="514.87,-16.57 504.52,-18.83 514.02,-23.52 514.87,-16.57"/>
</g>
<!-- Node12 -->
<g id="node12" class="node">
<title>Node12</title>
<g id="a_node12"><a xlink:title=" ">
<polygon fill="none" stroke="#bfbfbf" points="523,-0.5 523,-19.5 608,-19.5 608,-0.5 523,-0.5"/>
<text text-anchor="middle" x="565.5" y="-7.5" font-family="Helvetica,sans-Serif" font-size="10.00">source_location</text>
</a>
</g>
</g>
<!-- Node5&#45;&gt;Node12 -->
<g id="edge11" class="edge">
<title>Node5&#45;&gt;Node12</title>
<path fill="none" stroke="midnightblue" d="M944.24,-58.6C867.66,-51.04 738.55,-37.42 618.18,-20.17"/>
<polygon fill="midnightblue" stroke="midnightblue" points="618.44,-16.67 608.05,-18.71 617.44,-23.6 618.44,-16.67"/>
</g>
<!-- Node13 -->
<g id="node13" class="node">
<title>Node13</title>
<g id="a_node13"><a xlink:title=" ">
<polygon fill="none" stroke="#bfbfbf" points="626,-0.5 626,-19.5 709,-19.5 709,-0.5 626,-0.5"/>
<text text-anchor="middle" x="667.5" y="-7.5" font-family="Helvetica,sans-Serif" font-size="10.00">unordered_map</text>
</a>
</g>
</g>
<!-- Node5&#45;&gt;Node13 -->
<g id="edge12" class="edge">
<title>Node5&#45;&gt;Node13</title>
<path fill="none" stroke="midnightblue" d="M953.62,-56.5C896.67,-48.05 806.96,-34.5 719.35,-20.11"/>
<polygon fill="midnightblue" stroke="midnightblue" points="719.67,-16.62 709.24,-18.44 718.53,-23.52 719.67,-16.62"/>
</g>
<!-- Node14 -->
<g id="node14" class="node">
<title>Node14</title>
<g id="a_node14"><a xlink:title=" ">
<polygon fill="none" stroke="#bfbfbf" points="727.5,-0.5 727.5,-19.5 805.5,-19.5 805.5,-0.5 727.5,-0.5"/>
<text text-anchor="middle" x="766.5" y="-7.5" font-family="Helvetica,sans-Serif" font-size="10.00">shared_mutex</text>
</a>
</g>
</g>
<!-- Node5&#45;&gt;Node14 -->
<g id="edge13" class="edge">
<title>Node5&#45;&gt;Node14</title>
<path fill="none" stroke="midnightblue" d="M972.68,-56.44C929.94,-47.02 861.17,-31.87 814.93,-21.68"/>
<polygon fill="midnightblue" stroke="midnightblue" points="815.66,-18.25 805.14,-19.52 814.15,-25.09 815.66,-18.25"/>
</g>
<!-- Node15 -->
<g id="node15" class="node">
<title>Node15</title>
<g id="a_node15"><a xlink:title=" ">
<polygon fill="none" stroke="#bfbfbf" points="823.5,-0.5 823.5,-19.5 881.5,-19.5 881.5,-0.5 823.5,-0.5"/>
<text text-anchor="middle" x="852.5" y="-7.5" font-family="Helvetica,sans-Serif" font-size="10.00">functional</text>
</a>
</g>
</g>
<!-- Node5&#45;&gt;Node15 -->
<g id="edge14" class="edge">
<title>Node5&#45;&gt;Node15</title>
<path fill="none" stroke="midnightblue" d="M986.31,-56.44C959.56,-47.36 917.1,-32.94 887.19,-22.78"/>
<polygon fill="midnightblue" stroke="midnightblue" points="888.17,-19.42 877.58,-19.52 885.92,-26.05 888.17,-19.42"/>
</g>
<!-- Node16 -->
<g id="node16" class="node">
<title>Node16</title>
<g id="a_node16"><a xlink:title=" ">
<polygon fill="none" stroke="#bfbfbf" points="900,-0.5 900,-19.5 965,-19.5 965,-0.5 900,-0.5"/>
<text text-anchor="middle" x="932.5" y="-7.5" font-family="Helvetica,sans-Serif" font-size="10.00">semaphore</text>
</a>
</g>
</g>
<!-- Node5&#45;&gt;Node16 -->
<g id="edge15" class="edge">
<title>Node5&#45;&gt;Node16</title>
<path fill="none" stroke="midnightblue" d="M998.81,-56.32C986.6,-47.98 967.92,-35.21 953.5,-25.35"/>
<polygon fill="midnightblue" stroke="midnightblue" points="955.39,-22.41 945.16,-19.65 951.44,-28.19 955.39,-22.41"/>
</g>
<!-- Node17 -->
<g id="node17" class="node">
<title>Node17</title>
<g id="a_node17"><a xlink:title=" ">
<polygon fill="none" stroke="#bfbfbf" points="983.5,-0.5 983.5,-19.5 1039.5,-19.5 1039.5,-0.5 983.5,-0.5"/>
<text text-anchor="middle" x="1011.5" y="-7.5" font-family="Helvetica,sans-Serif" font-size="10.00">concepts</text>
</a>
</g>
</g>
<!-- Node5&#45;&gt;Node17 -->
<g id="edge16" class="edge">
<title>Node5&#45;&gt;Node17</title>
<path fill="none" stroke="midnightblue" d="M1011.5,-56.08C1011.5,-49.01 1011.5,-38.86 1011.5,-29.99"/>
<polygon fill="midnightblue" stroke="midnightblue" points="1015,-29.75 1011.5,-19.75 1008,-29.75 1015,-29.75"/>
</g>
<!-- Node18 -->
<g id="node18" class="node">
<title>Node18</title>
<g id="a_node18"><a xlink:title=" ">
<polygon fill="none" stroke="#bfbfbf" points="1057.5,-0.5 1057.5,-19.5 1111.5,-19.5 1111.5,-0.5 1057.5,-0.5"/>
<text text-anchor="middle" x="1084.5" y="-7.5" font-family="Helvetica,sans-Serif" font-size="10.00">iostream</text>
</a>
</g>
</g>
<!-- Node5&#45;&gt;Node18 -->
<g id="edge17" class="edge">
<title>Node5&#45;&gt;Node18</title>
<path fill="none" stroke="midnightblue" d="M1023.23,-56.32C1034.34,-48.11 1051.24,-35.6 1064.48,-25.81"/>
<polygon fill="midnightblue" stroke="midnightblue" points="1066.6,-28.59 1072.56,-19.83 1062.44,-22.97 1066.6,-28.59"/>
</g>
<!-- Node19 -->
<g id="node19" class="node">
<title>Node19</title>
<g id="a_node19"><a xlink:title=" ">
<polygon fill="none" stroke="#bfbfbf" points="1130,-0.5 1130,-19.5 1179,-19.5 1179,-0.5 1130,-0.5"/>
<text text-anchor="middle" x="1154.5" y="-7.5" font-family="Helvetica,sans-Serif" font-size="10.00">fstream</text>
</a>
</g>
</g>
<!-- Node5&#45;&gt;Node19 -->
<g id="edge18" class="edge">
<title>Node5&#45;&gt;Node19</title>
<path fill="none" stroke="midnightblue" d="M1034.16,-56.44C1057.9,-47.48 1095.41,-33.31 1122.24,-23.18"/>
<polygon fill="midnightblue" stroke="midnightblue" points="1123.83,-26.32 1131.95,-19.52 1121.36,-19.77 1123.83,-26.32"/>
</g>
<!-- Node20 -->
<g id="node20" class="node">
<title>Node20</title>
<g id="a_node20"><a xlink:title=" ">
<polygon fill="none" stroke="#bfbfbf" points="1197,-0.5 1197,-19.5 1238,-19.5 1238,-0.5 1197,-0.5"/>
<text text-anchor="middle" x="1217.5" y="-7.5" font-family="Helvetica,sans-Serif" font-size="10.00">bitset</text>
</a>
</g>
</g>
<!-- Node5&#45;&gt;Node20 -->
<g id="edge19" class="edge">
<title>Node5&#45;&gt;Node20</title>
<path fill="none" stroke="midnightblue" d="M1046.68,-56.46C1080.27,-48.2 1132.53,-35.09 1187.04,-20.04"/>
<polygon fill="midnightblue" stroke="midnightblue" points="1188.18,-23.36 1196.88,-17.31 1186.3,-16.61 1188.18,-23.36"/>
</g>
<!-- Node21 -->
<g id="node21" class="node">
<title>Node21</title>
<g id="a_node21"><a xlink:title=" ">
<polygon fill="none" stroke="#bfbfbf" points="1256.5,-0.5 1256.5,-19.5 1308.5,-19.5 1308.5,-0.5 1256.5,-0.5"/>
<text text-anchor="middle" x="1282.5" y="-7.5" font-family="Helvetica,sans-Serif" font-size="10.00">memory</text>
</a>
</g>
</g>
<!-- Node5&#45;&gt;Node21 -->
<g id="edge20" class="edge">
<title>Node5&#45;&gt;Node21</title>
<path fill="none" stroke="midnightblue" d="M1060.27,-56.48C1105.77,-48.35 1175.77,-35.37 1246.25,-19.95"/>
<polygon fill="midnightblue" stroke="midnightblue" points="1247.18,-23.33 1256.19,-17.76 1245.67,-16.49 1247.18,-23.33"/>
</g>
<!-- Node22 -->
<g id="node22" class="node">
<title>Node22</title>
<g id="a_node22"><a xlink:title=" ">
<polygon fill="none" stroke="#bfbfbf" points="1327,-0.5 1327,-19.5 1376,-19.5 1376,-0.5 1327,-0.5"/>
<text text-anchor="middle" x="1351.5" y="-7.5" font-family="Helvetica,sans-Serif" font-size="10.00">random</text>
</a>
</g>
</g>
<!-- Node5&#45;&gt;Node22 -->
<g id="edge21" class="edge">
<title>Node5&#45;&gt;Node22</title>
<path fill="none" stroke="midnightblue" d="M1078.74,-57.33C1138.74,-49.97 1229.15,-37.66 1316.84,-19.93"/>
<polygon fill="midnightblue" stroke="midnightblue" points="1317.6,-23.35 1326.69,-17.91 1316.2,-16.49 1317.6,-23.35"/>
</g>
<!-- Node23 -->
<g id="node23" class="node">
<title>Node23</title>
<g id="a_node23"><a xlink:title=" ">
<polygon fill="none" stroke="#bfbfbf" points="1394,-0.5 1394,-19.5 1435,-19.5 1435,-0.5 1394,-0.5"/>
<text text-anchor="middle" x="1414.5" y="-7.5" font-family="Helvetica,sans-Serif" font-size="10.00">string</text>
</a>
</g>
</g>
<!-- Node5&#45;&gt;Node23 -->
<g id="edge22" class="edge">
<title>Node5&#45;&gt;Node23</title>
<path fill="none" stroke="midnightblue" d="M1078.65,-60.6C1151.77,-54.99 1272.18,-43.34 1383.64,-20.08"/>
<polygon fill="midnightblue" stroke="midnightblue" points="1384.66,-23.45 1393.71,-17.95 1383.2,-16.6 1384.66,-23.45"/>
</g>
<!-- Node24 -->
<g id="node24" class="node">
<title>Node24</title>
<g id="a_node24"><a xlink:title=" ">
<polygon fill="none" stroke="#bfbfbf" points="1453.5,-0.5 1453.5,-19.5 1495.5,-19.5 1495.5,-0.5 1453.5,-0.5"/>
<text text-anchor="middle" x="1474.5" y="-7.5" font-family="Helvetica,sans-Serif" font-size="10.00">vector</text>
</a>
</g>
</g>
<!-- Node5&#45;&gt;Node24 -->
<g id="edge23" class="edge">
<title>Node5&#45;&gt;Node24</title>
<path fill="none" stroke="midnightblue" d="M1078.85,-61.93C1162.41,-57.24 1309.27,-46.14 1443.28,-19.89"/>
<polygon fill="midnightblue" stroke="midnightblue" points="1444.2,-23.28 1453.32,-17.89 1442.83,-16.41 1444.2,-23.28"/>
</g>
<!-- Node25 -->
<g id="node25" class="node">
<title>Node25</title>
<g id="a_node25"><a xlink:title=" ">
<polygon fill="none" stroke="#bfbfbf" points="1513.5,-0.5 1513.5,-19.5 1557.5,-19.5 1557.5,-0.5 1513.5,-0.5"/>
<text text-anchor="middle" x="1535.5" y="-7.5" font-family="Helvetica,sans-Serif" font-size="10.00">thread</text>
</a>
</g>
</g>
<!-- Node5&#45;&gt;Node25 -->
<g id="edge24" class="edge">
<title>Node5&#45;&gt;Node25</title>
<path fill="none" stroke="midnightblue" d="M1078.65,-62.94C1172,-59.18 1346.27,-48.9 1502.98,-19.94"/>
<polygon fill="midnightblue" stroke="midnightblue" points="1504.09,-23.29 1513.27,-18.01 1502.8,-16.41 1504.09,-23.29"/>
</g>
<!-- Node26 -->
<g id="node26" class="node">
<title>Node26</title>
<g id="a_node26"><a xlink:title=" ">
<polygon fill="none" stroke="#bfbfbf" points="1575.5,-0.5 1575.5,-19.5 1619.5,-19.5 1619.5,-0.5 1575.5,-0.5"/>
<text text-anchor="middle" x="1597.5" y="-7.5" font-family="Helvetica,sans-Serif" font-size="10.00">mutex</text>
</a>
</g>
</g>
<!-- Node5&#45;&gt;Node26 -->
<g id="edge25" class="edge">
<title>Node5&#45;&gt;Node26</title>
<path fill="none" stroke="midnightblue" d="M1078.71,-63.91C1181.77,-61.28 1384.99,-52.3 1565.35,-19.85"/>
<polygon fill="midnightblue" stroke="midnightblue" points="1566.07,-23.27 1575.28,-18.03 1564.81,-16.39 1566.07,-23.27"/>
</g>
<!-- Node27 -->
<g id="node27" class="node">
<title>Node27</title>
<g id="a_node27"><a xlink:title=" ">
<polygon fill="none" stroke="#bfbfbf" points="1638,-0.5 1638,-19.5 1681,-19.5 1681,-0.5 1638,-0.5"/>
<text text-anchor="middle" x="1659.5" y="-7.5" font-family="Helvetica,sans-Serif" font-size="10.00">queue</text>
</a>
</g>
</g>
<!-- Node5&#45;&gt;Node27 -->
<g id="edge26" class="edge">
<title>Node5&#45;&gt;Node27</title>
<path fill="none" stroke="midnightblue" d="M1078.72,-64.69C1190.88,-63.17 1423.18,-55.74 1627.92,-19.68"/>
<polygon fill="midnightblue" stroke="midnightblue" points="1628.73,-23.09 1637.96,-17.88 1627.5,-16.2 1628.73,-23.09"/>
</g>
<!-- Node28 -->
<g id="node28" class="node">
<title>Node28</title>
<g id="a_node28"><a xlink:title=" ">
<polygon fill="none" stroke="#bfbfbf" points="1699,-0.5 1699,-19.5 1734,-19.5 1734,-0.5 1699,-0.5"/>
<text text-anchor="middle" x="1716.5" y="-7.5" font-family="Helvetica,sans-Serif" font-size="10.00">map</text>
</a>
</g>
</g>
<!-- Node5&#45;&gt;Node28 -->
<g id="edge27" class="edge">
<title>Node5&#45;&gt;Node28</title>
<path fill="none" stroke="midnightblue" d="M1078.69,-62.83C1222.54,-57.81 1557.28,-44.13 1688.91,-19.76"/>
<polygon fill="midnightblue" stroke="midnightblue" points="1689.63,-23.19 1698.77,-17.84 1688.29,-16.32 1689.63,-23.19"/>
</g>
<!-- Node31&#45;&gt;Node4 -->
<g id="edge32" class="edge">
<title>Node31&#45;&gt;Node4</title>
<path fill="none" stroke="midnightblue" d="M1642.67,-403.27C1636.94,-384.79 1624.5,-340.3 1624.5,-302 1624.5,-302 1624.5,-302 1624.5,-244 1624.5,-201.54 1593.26,-196.33 1554.5,-179 1472.98,-142.54 1216.76,-132.39 1087.56,-129.58"/>
<polygon fill="midnightblue" stroke="midnightblue" points="1087.43,-126.07 1077.35,-129.36 1087.28,-133.07 1087.43,-126.07"/>
</g>
<!-- Node32 -->
<g id="node32" class="node">
<title>Node32</title>
<g id="a_node32"><a xlink:title=" ">
<polygon fill="none" stroke="#bfbfbf" points="1652.5,-347.5 1652.5,-366.5 1722.5,-366.5 1722.5,-347.5 1652.5,-347.5"/>
<text text-anchor="middle" x="1687.5" y="-354.5" font-family="Helvetica,sans-Serif" font-size="10.00">opus/opus.h</text>
</a>
</g>
</g>
<!-- Node31&#45;&gt;Node32 -->
<g id="edge33" class="edge">
<title>Node31&#45;&gt;Node32</title>
<path fill="none" stroke="midnightblue" d="M1652.44,-403.08C1658.43,-395.38 1667.25,-384.03 1674.55,-374.65"/>
<polygon fill="midnightblue" stroke="midnightblue" points="1677.32,-376.79 1680.69,-366.75 1671.79,-372.5 1677.32,-376.79"/>
</g>
<!-- Node33&#45;&gt;Node4 -->
<g id="edge35" class="edge">
<title>Node33&#45;&gt;Node4</title>
<path fill="none" stroke="midnightblue" d="M1499.88,-403.39C1518.37,-396.2 1542.53,-384.3 1558.5,-367 1579.83,-343.88 1586.5,-333.46 1586.5,-302 1586.5,-302 1586.5,-302 1586.5,-244 1586.5,-143.31 1243.29,-129.26 1087.19,-128.08"/>
<polygon fill="midnightblue" stroke="midnightblue" points="1087.2,-124.58 1077.18,-128.02 1087.16,-131.58 1087.2,-124.58"/>
</g>
<!-- Node34 -->
<g id="node34" class="node">
<title>Node34</title>
<g id="a_node34"><a xlink:href="$d3/d4f/a00761.html" xlink:title=" ">
<polygon fill="none" stroke="black" points="1399.5,-347.5 1399.5,-366.5 1549.5,-366.5 1549.5,-347.5 1399.5,-347.5"/>
<text text-anchor="middle" x="1474.5" y="-354.5" font-family="Helvetica,sans-Serif" font-size="10.00">discordcoreapi/ThreadPool.hpp</text>
</a>
</g>
</g>
<!-- Node33&#45;&gt;Node34 -->
<g id="edge36" class="edge">
<title>Node33&#45;&gt;Node34</title>
<path fill="none" stroke="midnightblue" d="M1473.67,-403.08C1473.8,-396.01 1473.98,-385.86 1474.15,-376.99"/>
<polygon fill="midnightblue" stroke="midnightblue" points="1477.65,-376.81 1474.34,-366.75 1470.65,-376.68 1477.65,-376.81"/>
</g>
<!-- Node34&#45;&gt;Node4 -->
<g id="edge37" class="edge">
<title>Node34&#45;&gt;Node4</title>
<path fill="none" stroke="midnightblue" d="M1477.06,-347.11C1486.14,-314.78 1515.03,-204.02 1492.5,-179 1465.93,-149.5 1216.09,-136.02 1087.38,-131"/>
<polygon fill="midnightblue" stroke="midnightblue" points="1087.32,-127.49 1077.19,-130.61 1087.05,-134.49 1087.32,-127.49"/>
</g>
<!-- Node34&#45;&gt;Node35 -->
<g id="edge38" class="edge">
<title>Node34&#45;&gt;Node35</title>
<path fill="none" stroke="midnightblue" d="M1457.95,-347.32C1441.51,-338.7 1416.07,-325.36 1397.03,-315.39"/>
<polygon fill="midnightblue" stroke="midnightblue" points="1398.49,-312.2 1388.01,-310.65 1395.24,-318.4 1398.49,-312.2"/>
</g>
<!-- Node49 -->
<g id="node49" class="node">
<title>Node49</title>
<g id="a_node49"><a xlink:title=" ">
<polygon fill="none" stroke="#bfbfbf" points="1502.5,-291.5 1502.5,-310.5 1558.5,-310.5 1558.5,-291.5 1502.5,-291.5"/>
<text text-anchor="middle" x="1530.5" y="-298.5" font-family="Helvetica,sans-Serif" font-size="10.00">coroutine</text>
</a>
</g>
</g>
<!-- Node34&#45;&gt;Node49 -->
<g id="edge54" class="edge">
<title>Node34&#45;&gt;Node49</title>
<path fill="none" stroke="midnightblue" d="M1483.5,-347.32C1491.69,-339.42 1504.01,-327.55 1513.97,-317.94"/>
<polygon fill="midnightblue" stroke="midnightblue" points="1516.57,-320.29 1521.34,-310.83 1511.71,-315.26 1516.57,-320.29"/>
</g>
<!-- Node36 -->
<g id="node36" class="node">
<title>Node36</title>
<g id="a_node36"><a xlink:href="$d5/de8/a00749.html" xlink:title=" ">
<polygon fill="none" stroke="black" points="903.5,-235.5 903.5,-254.5 1053.5,-254.5 1053.5,-235.5 903.5,-235.5"/>
<text text-anchor="middle" x="978.5" y="-242.5" font-family="Helvetica,sans-Serif" font-size="10.00">discordcoreapi/SSLClients.hpp</text>
</a>
</g>
</g>
<!-- Node35&#45;&gt;Node36 -->
<g id="edge39" class="edge">
<title>Node35&#45;&gt;Node36</title>
<path fill="none" stroke="midnightblue" d="M1309.23,-291.44C1238.95,-281.79 1124.78,-266.1 1050.66,-255.92"/>
<polygon fill="midnightblue" stroke="midnightblue" points="1050.86,-252.41 1040.48,-254.52 1049.91,-259.35 1050.86,-252.41"/>
</g>
<!-- Node36&#45;&gt;Node3 -->
<g id="edge41" class="edge">
<title>Node36&#45;&gt;Node3</title>
<path fill="none" stroke="midnightblue" d="M903.1,-237.02C808.39,-228.24 640.9,-212.65 497.5,-199 496.23,-198.88 494.95,-198.76 493.66,-198.63"/>
<polygon fill="midnightblue" stroke="midnightblue" points="493.93,-195.14 483.65,-197.68 493.27,-202.11 493.93,-195.14"/>
</g>
<!-- Node36&#45;&gt;Node4 -->
<g id="edge40" class="edge">
<title>Node36&#45;&gt;Node4</title>
<path fill="none" stroke="midnightblue" d="M903.42,-244.38C763.07,-243.77 479.49,-235.65 530.5,-179 557.07,-149.5 806.91,-136.02 935.62,-131"/>
<polygon fill="midnightblue" stroke="midnightblue" points="935.95,-134.49 945.81,-130.61 935.68,-127.49 935.95,-134.49"/>
</g>
<!-- Node37 -->
<g id="node37" class="node">
<title>Node37</title>
<g id="a_node37"><a xlink:title=" ">
<polygon fill="none" stroke="#bfbfbf" points="1189,-179.5 1189,-198.5 1262,-198.5 1262,-179.5 1189,-179.5"/>
<text text-anchor="middle" x="1225.5" y="-186.5" font-family="Helvetica,sans-Serif" font-size="10.00">openssl/err.h</text>
</a>
</g>
</g>
<!-- Node36&#45;&gt;Node37 -->
<g id="edge42" class="edge">
<title>Node36&#45;&gt;Node37</title>
<path fill="none" stroke="midnightblue" d="M1017.64,-235.44C1061.49,-225.86 1132.51,-210.33 1179.12,-200.14"/>
<polygon fill="midnightblue" stroke="midnightblue" points="1179.94,-203.54 1188.96,-197.99 1178.44,-196.7 1179.94,-203.54"/>
</g>
<!-- Node38 -->
<g id="node38" class="node">
<title>Node38</title>
<g id="a_node38"><a xlink:title=" ">
<polygon fill="none" stroke="#bfbfbf" points="1280.5,-179.5 1280.5,-198.5 1354.5,-198.5 1354.5,-179.5 1280.5,-179.5"/>
<text text-anchor="middle" x="1317.5" y="-186.5" font-family="Helvetica,sans-Serif" font-size="10.00">openssl/ssl.h</text>
</a>
</g>
</g>
<!-- Node36&#45;&gt;Node38 -->
<g id="edge43" class="edge">
<title>Node36&#45;&gt;Node38</title>
<path fill="none" stroke="midnightblue" d="M1037.88,-235.49C1094.76,-227.2 1183.27,-213.91 1270.27,-198.98"/>
<polygon fill="midnightblue" stroke="midnightblue" points="1271.06,-202.4 1280.32,-197.25 1269.87,-195.5 1271.06,-202.4"/>
</g>
<!-- Node39 -->
<g id="node39" class="node">
<title>Node39</title>
<g id="a_node39"><a xlink:title=" ">
<polygon fill="none" stroke="#bfbfbf" points="1373,-179.5 1373,-198.5 1416,-198.5 1416,-179.5 1373,-179.5"/>
<text text-anchor="middle" x="1394.5" y="-186.5" font-family="Helvetica,sans-Serif" font-size="10.00">fcntl.h</text>
</a>
</g>
</g>
<!-- Node36&#45;&gt;Node39 -->
<g id="edge44" class="edge">
<title>Node36&#45;&gt;Node39</title>
<path fill="none" stroke="midnightblue" d="M1053.61,-238.93C1129.42,-232.98 1249.91,-221.22 1363.06,-198.75"/>
<polygon fill="midnightblue" stroke="midnightblue" points="1363.82,-202.17 1372.93,-196.76 1362.44,-195.31 1363.82,-202.17"/>
</g>
<!-- Node40 -->
<g id="node40" class="node">
<title>Node40</title>
<g id="a_node40"><a xlink:title=" ">
<polygon fill="none" stroke="#bfbfbf" points="1434,-179.5 1434,-198.5 1483,-198.5 1483,-179.5 1434,-179.5"/>
<text text-anchor="middle" x="1458.5" y="-186.5" font-family="Helvetica,sans-Serif" font-size="10.00">netdb.h</text>
</a>
</g>
</g>
<!-- Node36&#45;&gt;Node40 -->
<g id="edge45" class="edge">
<title>Node36&#45;&gt;Node40</title>
<path fill="none" stroke="midnightblue" d="M1053.78,-240.24C1140.88,-235.04 1288.65,-223.57 1423.63,-199.09"/>
<polygon fill="midnightblue" stroke="midnightblue" points="1424.54,-202.48 1433.74,-197.23 1423.27,-195.6 1424.54,-202.48"/>
</g>
<!-- Node41 -->
<g id="node41" class="node">
<title>Node41</title>
<g id="a_node41"><a xlink:title=" ">
<polygon fill="none" stroke="#bfbfbf" points="540,-179.5 540,-198.5 605,-198.5 605,-179.5 540,-179.5"/>
<text text-anchor="middle" x="572.5" y="-186.5" font-family="Helvetica,sans-Serif" font-size="10.00">netinet/in.h</text>
</a>
</g>
</g>
<!-- Node36&#45;&gt;Node41 -->
<g id="edge46" class="edge">
<title>Node36&#45;&gt;Node41</title>
<path fill="none" stroke="midnightblue" d="M903.4,-236.81C831.71,-229.48 720.47,-216.88 615.28,-199.18"/>
<polygon fill="midnightblue" stroke="midnightblue" points="615.57,-195.68 605.12,-197.45 614.39,-202.58 615.57,-195.68"/>
</g>
<!-- Node42 -->
<g id="node42" class="node">
<title>Node42</title>
<g id="a_node42"><a xlink:title=" ">
<polygon fill="none" stroke="#bfbfbf" points="623,-179.5 623,-198.5 694,-198.5 694,-179.5 623,-179.5"/>
<text text-anchor="middle" x="658.5" y="-186.5" font-family="Helvetica,sans-Serif" font-size="10.00">netinet/tcp.h</text>
</a>
</g>
</g>
<!-- Node36&#45;&gt;Node42 -->
<g id="edge47" class="edge">
<title>Node36&#45;&gt;Node42</title>
<path fill="none" stroke="midnightblue" d="M922.09,-235.48C868.41,-227.22 785.12,-214.01 703.91,-199.21"/>
<polygon fill="midnightblue" stroke="midnightblue" points="704.48,-195.75 694.02,-197.39 703.22,-202.64 704.48,-195.75"/>
</g>
<!-- Node43 -->
<g id="node43" class="node">
<title>Node43</title>
<g id="a_node43"><a xlink:title=" ">
<polygon fill="none" stroke="#bfbfbf" points="712,-179.5 712,-198.5 761,-198.5 761,-179.5 712,-179.5"/>
<text text-anchor="middle" x="736.5" y="-186.5" font-family="Helvetica,sans-Serif" font-size="10.00">stdint.h</text>
</a>
</g>
</g>
<!-- Node36&#45;&gt;Node43 -->
<g id="edge48" class="edge">
<title>Node36&#45;&gt;Node43</title>
<path fill="none" stroke="midnightblue" d="M936.14,-235.43C896.16,-227.2 834.3,-214.14 771.44,-199.14"/>
<polygon fill="midnightblue" stroke="midnightblue" points="771.89,-195.65 761.35,-196.72 770.26,-202.46 771.89,-195.65"/>
</g>
<!-- Node44 -->
<g id="node44" class="node">
<title>Node44</title>
<g id="a_node44"><a xlink:title=" ">
<polygon fill="none" stroke="#bfbfbf" points="779.5,-179.5 779.5,-198.5 843.5,-198.5 843.5,-179.5 779.5,-179.5"/>
<text text-anchor="middle" x="811.5" y="-186.5" font-family="Helvetica,sans-Serif" font-size="10.00">sys/epoll.h</text>
</a>
</g>
</g>
<!-- Node36&#45;&gt;Node44 -->
<g id="edge49" class="edge">
<title>Node36&#45;&gt;Node44</title>
<path fill="none" stroke="midnightblue" d="M952.04,-235.44C923.82,-226.32 878.96,-211.81 847.53,-201.65"/>
<polygon fill="midnightblue" stroke="midnightblue" points="848.43,-198.26 837.84,-198.52 846.28,-204.92 848.43,-198.26"/>
</g>
<!-- Node45 -->
<g id="node45" class="node">
<title>Node45</title>
<g id="a_node45"><a xlink:title=" ">
<polygon fill="none" stroke="#bfbfbf" points="861.5,-179.5 861.5,-198.5 923.5,-198.5 923.5,-179.5 861.5,-179.5"/>
<text text-anchor="middle" x="892.5" y="-186.5" font-family="Helvetica,sans-Serif" font-size="10.00">arpa/inet.h</text>
</a>
</g>
</g>
<!-- Node36&#45;&gt;Node45 -->
<g id="edge50" class="edge">
<title>Node36&#45;&gt;Node45</title>
<path fill="none" stroke="midnightblue" d="M964.68,-235.32C951.27,-226.9 930.68,-213.97 914.91,-204.07"/>
<polygon fill="midnightblue" stroke="midnightblue" points="916.61,-201.01 906.28,-198.65 912.89,-206.94 916.61,-201.01"/>
</g>
<!-- Node46 -->
<g id="node46" class="node">
<title>Node46</title>
<g id="a_node46"><a xlink:title=" ">
<polygon fill="none" stroke="#bfbfbf" points="942,-179.5 942,-198.5 1015,-198.5 1015,-179.5 942,-179.5"/>
<text text-anchor="middle" x="978.5" y="-186.5" font-family="Helvetica,sans-Serif" font-size="10.00">sys/socket.h</text>
</a>
</g>
</g>
<!-- Node36&#45;&gt;Node46 -->
<g id="edge51" class="edge">
<title>Node36&#45;&gt;Node46</title>
<path fill="none" stroke="midnightblue" d="M978.5,-235.08C978.5,-228.01 978.5,-217.86 978.5,-208.99"/>
<polygon fill="midnightblue" stroke="midnightblue" points="982,-208.75 978.5,-198.75 975,-208.75 982,-208.75"/>
</g>
<!-- Node47 -->
<g id="node47" class="node">
<title>Node47</title>
<g id="a_node47"><a xlink:title=" ">
<polygon fill="none" stroke="#bfbfbf" points="1033.5,-179.5 1033.5,-198.5 1101.5,-198.5 1101.5,-179.5 1033.5,-179.5"/>
<text text-anchor="middle" x="1067.5" y="-186.5" font-family="Helvetica,sans-Serif" font-size="10.00">sys/types.h</text>
</a>
</g>
</g>
<!-- Node36&#45;&gt;Node47 -->
<g id="edge52" class="edge">
<title>Node36&#45;&gt;Node47</title>
<path fill="none" stroke="midnightblue" d="M992.8,-235.32C1006.68,-226.9 1027.99,-213.97 1044.3,-204.07"/>
<polygon fill="midnightblue" stroke="midnightblue" points="1046.5,-206.83 1053.24,-198.65 1042.87,-200.85 1046.5,-206.83"/>
</g>
<!-- Node48 -->
<g id="node48" class="node">
<title>Node48</title>
<g id="a_node48"><a xlink:title=" ">
<polygon fill="none" stroke="#bfbfbf" points="1120,-179.5 1120,-198.5 1171,-198.5 1171,-179.5 1120,-179.5"/>
<text text-anchor="middle" x="1145.5" y="-186.5" font-family="Helvetica,sans-Serif" font-size="10.00">unistd.h</text>
</a>
</g>
</g>
<!-- Node36&#45;&gt;Node48 -->
<g id="edge53" class="edge">
<title>Node36&#45;&gt;Node48</title>
<path fill="none" stroke="midnightblue" d="M1004.96,-235.44C1033.43,-226.24 1078.83,-211.56 1110.3,-201.38"/>
<polygon fill="midnightblue" stroke="midnightblue" points="1111.55,-204.66 1119.98,-198.25 1109.39,-198 1111.55,-204.66"/>
</g>
</g>
</svg>
