<?xml version="1.0" encoding="UTF-8" standalone="no"?>
<!DOCTYPE svg PUBLIC "-//W3C//DTD SVG 1.1//EN"
 "http://www.w3.org/Graphics/SVG/1.1/DTD/svg11.dtd">
<!-- Generated by graphviz version 3.0.0 (20220226.1711)
 -->
<!-- Title: SoundCloudAPI.hpp Pages: 1 -->
<svg width="2045pt" height="487pt"
 viewBox="0.00 0.00 2044.63 487.00" xmlns="http://www.w3.org/2000/svg" xmlns:xlink="http://www.w3.org/1999/xlink">
<g id="graph0" class="graph" transform="scale(1 1) rotate(0) translate(4 483)">
<title>SoundCloudAPI.hpp</title>
<!-- Node1 -->
<g id="node1" class="node">
<title>Node1</title>
<g id="a_node1"><a xlink:title=" ">
<polygon fill="#bfbfbf" stroke="black" points="1310.13,-459.5 1310.13,-478.5 1414.13,-478.5 1414.13,-459.5 1310.13,-459.5"/>
<text text-anchor="middle" x="1362.13" y="-466.5" font-family="Helvetica,sans-Serif" font-size="10.00">SoundCloudAPI.hpp</text>
</a>
</g>
</g>
<!-- Node2 -->
<g id="node2" class="node">
<title>Node2</title>
<g id="a_node2"><a xlink:href="../../d4/d9b/a00680.html" target="_top" xlink:title=" ">
<polygon fill="none" stroke="black" points="138.13,-235.5 138.13,-254.5 300.13,-254.5 300.13,-235.5 138.13,-235.5"/>
<text text-anchor="middle" x="219.13" y="-242.5" font-family="Helvetica,sans-Serif" font-size="10.00">discordcoreapi/AudioDecoder.hpp</text>
</a>
</g>
</g>
<!-- Node1&#45;&gt;Node2 -->
<g id="edge1" class="edge">
<title>Node1&#45;&gt;Node2</title>
<path fill="none" stroke="midnightblue" d="M1318.03,-459.43C1139.27,-424.71 468.96,-294.52 273.16,-256.49"/>
<polygon fill="midnightblue" stroke="midnightblue" points="273.59,-253.01 263.11,-254.54 272.26,-259.88 273.59,-253.01"/>
</g>
<!-- Node32 -->
<g id="node32" class="node">
<title>Node32</title>
<g id="a_node32"><a xlink:href="../../db/d77/a00683.html" target="_top" xlink:title=" ">
<polygon fill="none" stroke="black" points="1504.13,-403.5 1504.13,-422.5 1666.13,-422.5 1666.13,-403.5 1504.13,-403.5"/>
<text text-anchor="middle" x="1585.13" y="-410.5" font-family="Helvetica,sans-Serif" font-size="10.00">discordcoreapi/AudioEncoder.hpp</text>
</a>
</g>
</g>
<!-- Node1&#45;&gt;Node32 -->
<g id="edge32" class="edge">
<title>Node1&#45;&gt;Node32</title>
<path fill="none" stroke="midnightblue" d="M1397.47,-459.44C1436.05,-450.1 1497.92,-435.12 1539.99,-424.93"/>
<polygon fill="midnightblue" stroke="midnightblue" points="1541.07,-428.27 1549.96,-422.52 1539.42,-421.47 1541.07,-428.27"/>
</g>
<!-- Node34 -->
<g id="node34" class="node">
<title>Node34</title>
<g id="a_node34"><a xlink:href="../../d5/d5b/a00695.html" target="_top" xlink:title=" ">
<polygon fill="none" stroke="black" points="1340.13,-403.5 1340.13,-422.5 1486.13,-422.5 1486.13,-403.5 1340.13,-403.5"/>
<text text-anchor="middle" x="1413.13" y="-410.5" font-family="Helvetica,sans-Serif" font-size="10.00">discordcoreapi/CoRoutine.hpp</text>
</a>
</g>
</g>
<!-- Node1&#45;&gt;Node34 -->
<g id="edge35" class="edge">
<title>Node1&#45;&gt;Node34</title>
<path fill="none" stroke="midnightblue" d="M1370.56,-459.08C1377.98,-451.22 1388.99,-439.57 1397.95,-430.08"/>
<polygon fill="midnightblue" stroke="midnightblue" points="1400.55,-432.42 1404.87,-422.75 1395.46,-427.62 1400.55,-432.42"/>
</g>
<!-- Node36 -->
<g id="node36" class="node">
<title>Node36</title>
<g id="a_node36"><a xlink:href="../../db/d7c/a00722.html" target="_top" xlink:title=" ">
<polygon fill="none" stroke="black" points="1248.63,-291.5 1248.63,-310.5 1373.63,-310.5 1373.63,-291.5 1248.63,-291.5"/>
<text text-anchor="middle" x="1311.13" y="-298.5" font-family="Helvetica,sans-Serif" font-size="10.00">discordcoreapi/Https.hpp</text>
</a>
</g>
</g>
<!-- Node1&#45;&gt;Node36 -->
<g id="edge55" class="edge">
<title>Node1&#45;&gt;Node36</title>
<path fill="none" stroke="midnightblue" d="M1354.45,-459.38C1347.24,-450.78 1336.74,-436.9 1331.13,-423 1317.24,-388.57 1313,-344.9 1311.7,-320.56"/>
<polygon fill="midnightblue" stroke="midnightblue" points="1315.2,-320.4 1311.28,-310.56 1308.2,-320.69 1315.2,-320.4"/>
</g>
<!-- Node3 -->
<g id="node3" class="node">
<title>Node3</title>
<g id="a_node3"><a xlink:href="../../d4/d6a/a00704.html" target="_top" xlink:title=" ">
<polygon fill="none" stroke="black" points="308.13,-179.5 308.13,-198.5 466.13,-198.5 466.13,-179.5 308.13,-179.5"/>
<text text-anchor="middle" x="387.13" y="-186.5" font-family="Helvetica,sans-Serif" font-size="10.00">discordcoreapi/EventEntities.hpp</text>
</a>
</g>
</g>
<!-- Node2&#45;&gt;Node3 -->
<g id="edge2" class="edge">
<title>Node2&#45;&gt;Node3</title>
<path fill="none" stroke="midnightblue" d="M245.75,-235.44C274.14,-226.32 319.27,-211.81 350.89,-201.65"/>
<polygon fill="midnightblue" stroke="midnightblue" points="352.19,-204.91 360.64,-198.52 350.05,-198.24 352.19,-204.91"/>
</g>
<!-- Node4 -->
<g id="node4" class="node">
<title>Node4</title>
<g id="a_node4"><a xlink:href="../../d4/deb/a00710.html" target="_top" xlink:title=" ">
<polygon fill="none" stroke="black" points="1208.63,-112.5 1208.63,-142.5 1339.63,-142.5 1339.63,-112.5 1208.63,-112.5"/>
<text text-anchor="start" x="1216.63" y="-130.5" font-family="Helvetica,sans-Serif" font-size="10.00">discordcoreapi/Foundation</text>
<text text-anchor="middle" x="1274.13" y="-119.5" font-family="Helvetica,sans-Serif" font-size="10.00">Entities.hpp</text>
</a>
</g>
</g>
<!-- Node2&#45;&gt;Node4 -->
<g id="edge29" class="edge">
<title>Node2&#45;&gt;Node4</title>
<path fill="none" stroke="midnightblue" d="M138.07,-242C62.95,-237.44 -31.26,-223.13 11.13,-179 52.37,-136.08 931,-129.64 1197.91,-128.67"/>
<polygon fill="midnightblue" stroke="midnightblue" points="1198.29,-132.17 1208.28,-128.63 1198.27,-125.17 1198.29,-132.17"/>
</g>
<!-- Node30 -->
<g id="node30" class="node">
<title>Node30</title>
<g id="a_node30"><a xlink:title=" ">
<polygon fill="none" stroke="#bfbfbf" points="20.13,-179.5 20.13,-198.5 130.13,-198.5 130.13,-179.5 20.13,-179.5"/>
<text text-anchor="middle" x="75.13" y="-186.5" font-family="Helvetica,sans-Serif" font-size="10.00">libavformat/avformat.h</text>
</a>
</g>
</g>
<!-- Node2&#45;&gt;Node30 -->
<g id="edge30" class="edge">
<title>Node2&#45;&gt;Node30</title>
<path fill="none" stroke="midnightblue" d="M196.32,-235.44C172.3,-226.44 134.31,-212.19 107.27,-202.05"/>
<polygon fill="midnightblue" stroke="midnightblue" points="108.44,-198.75 97.84,-198.52 105.98,-205.3 108.44,-198.75"/>
</g>
<!-- Node31 -->
<g id="node31" class="node">
<title>Node31</title>
<g id="a_node31"><a xlink:title=" ">
<polygon fill="none" stroke="#bfbfbf" points="148.63,-179.5 148.63,-198.5 289.63,-198.5 289.63,-179.5 148.63,-179.5"/>
<text text-anchor="middle" x="219.13" y="-186.5" font-family="Helvetica,sans-Serif" font-size="10.00">libswresample/swresample.h</text>
</a>
</g>
</g>
<!-- Node2&#45;&gt;Node31 -->
<g id="edge31" class="edge">
<title>Node2&#45;&gt;Node31</title>
<path fill="none" stroke="midnightblue" d="M219.13,-235.08C219.13,-228.01 219.13,-217.86 219.13,-208.99"/>
<polygon fill="midnightblue" stroke="midnightblue" points="222.63,-208.75 219.13,-198.75 215.63,-208.75 222.63,-208.75"/>
</g>
<!-- Node3&#45;&gt;Node4 -->
<g id="edge3" class="edge">
<title>Node3&#45;&gt;Node4</title>
<path fill="none" stroke="midnightblue" d="M466.28,-179.76C469.27,-179.49 472.23,-179.24 475.13,-179 740.51,-157.05 1056.17,-139.67 1198.23,-132.31"/>
<polygon fill="midnightblue" stroke="midnightblue" points="1198.76,-135.79 1208.56,-131.78 1198.4,-128.8 1198.76,-135.79"/>
</g>
<!-- Node5 -->
<g id="node5" class="node">
<title>Node5</title>
<g id="a_node5"><a xlink:href="../../d5/dae/a00767.html" target="_top" xlink:title=" ">
<polygon fill="none" stroke="black" points="1207.13,-56.5 1207.13,-75.5 1341.13,-75.5 1341.13,-56.5 1207.13,-56.5"/>
<text text-anchor="middle" x="1274.13" y="-63.5" font-family="Helvetica,sans-Serif" font-size="10.00">discordcoreapi/Utilities.hpp</text>
</a>
</g>
</g>
<!-- Node4&#45;&gt;Node5 -->
<g id="edge4" class="edge">
<title>Node4&#45;&gt;Node5</title>
<path fill="none" stroke="midnightblue" d="M1274.13,-112.4C1274.13,-104.47 1274.13,-94.46 1274.13,-85.86"/>
<polygon fill="midnightblue" stroke="midnightblue" points="1277.63,-85.66 1274.13,-75.66 1270.63,-85.66 1277.63,-85.66"/>
</g>
<!-- Node6 -->
<g id="node6" class="node">
<title>Node6</title>
<g id="a_node6"><a xlink:title=" ">
<polygon fill="none" stroke="#bfbfbf" points="246.63,-0.5 246.63,-19.5 303.63,-19.5 303.63,-0.5 246.63,-0.5"/>
<text text-anchor="middle" x="275.13" y="-7.5" font-family="Helvetica,sans-Serif" font-size="10.00">pthread.h</text>
</a>
</g>
</g>
<!-- Node5&#45;&gt;Node6 -->
<g id="edge5" class="edge">
<title>Node5&#45;&gt;Node6</title>
<path fill="none" stroke="midnightblue" d="M1207.01,-63.48C1021.71,-59.03 504.79,-44.84 313.61,-19.72"/>
<polygon fill="midnightblue" stroke="midnightblue" points="314.04,-16.24 303.66,-18.36 313.09,-23.18 314.04,-16.24"/>
</g>
<!-- Node7 -->
<g id="node7" class="node">
<title>Node7</title>
<g id="a_node7"><a xlink:title=" ">
<polygon fill="none" stroke="#bfbfbf" points="322.13,-0.5 322.13,-19.5 384.13,-19.5 384.13,-0.5 322.13,-0.5"/>
<text text-anchor="middle" x="353.13" y="-7.5" font-family="Helvetica,sans-Serif" font-size="10.00">sys/time.h</text>
</a>
</g>
</g>
<!-- Node5&#45;&gt;Node7 -->
<g id="edge6" class="edge">
<title>Node5&#45;&gt;Node7</title>
<path fill="none" stroke="midnightblue" d="M1206.91,-65.45C1060.62,-65.6 702.51,-61.41 394.5,-19.95"/>
<polygon fill="midnightblue" stroke="midnightblue" points="394.87,-16.47 384.49,-18.58 393.92,-23.4 394.87,-16.47"/>
</g>
<!-- Node8 -->
<g id="node8" class="node">
<title>Node8</title>
<g id="a_node8"><a xlink:title=" ">
<polygon fill="none" stroke="#bfbfbf" points="402.13,-0.5 402.13,-19.5 446.13,-19.5 446.13,-0.5 402.13,-0.5"/>
<text text-anchor="middle" x="424.13" y="-7.5" font-family="Helvetica,sans-Serif" font-size="10.00">time.h</text>
</a>
</g>
</g>
<!-- Node5&#45;&gt;Node8 -->
<g id="edge7" class="edge">
<title>Node5&#45;&gt;Node8</title>
<path fill="none" stroke="midnightblue" d="M1207.01,-63.28C1041.81,-58.74 617.85,-45.13 456.58,-19.79"/>
<polygon fill="midnightblue" stroke="midnightblue" points="456.78,-16.28 446.34,-18.1 455.64,-23.18 456.78,-16.28"/>
</g>
<!-- Node9 -->
<g id="node9" class="node">
<title>Node9</title>
<g id="a_node9"><a xlink:title=" ">
<polygon fill="none" stroke="#bfbfbf" points="464.63,-0.5 464.63,-19.5 505.63,-19.5 505.63,-0.5 464.63,-0.5"/>
<text text-anchor="middle" x="485.13" y="-7.5" font-family="Helvetica,sans-Serif" font-size="10.00">ctime</text>
</a>
</g>
</g>
<!-- Node5&#45;&gt;Node9 -->
<g id="edge8" class="edge">
<title>Node5&#45;&gt;Node9</title>
<path fill="none" stroke="midnightblue" d="M1206.87,-63.1C1050.43,-58.36 664.77,-44.68 516.18,-19.91"/>
<polygon fill="midnightblue" stroke="midnightblue" points="516.35,-16.38 505.89,-18.1 515.14,-23.28 516.35,-16.38"/>
</g>
<!-- Node10 -->
<g id="node10" class="node">
<title>Node10</title>
<g id="a_node10"><a xlink:title=" ">
<polygon fill="none" stroke="#bfbfbf" points="523.63,-0.5 523.63,-19.5 616.63,-19.5 616.63,-0.5 523.63,-0.5"/>
<text text-anchor="middle" x="570.13" y="-7.5" font-family="Helvetica,sans-Serif" font-size="10.00">condition_variable</text>
</a>
</g>
</g>
<!-- Node5&#45;&gt;Node10 -->
<g id="edge9" class="edge">
<title>Node5&#45;&gt;Node10</title>
<path fill="none" stroke="midnightblue" d="M1206.79,-62.32C1090.62,-57.27 844.9,-44.64 626.87,-19.97"/>
<polygon fill="midnightblue" stroke="midnightblue" points="627.17,-16.49 616.84,-18.83 626.38,-23.44 627.17,-16.49"/>
</g>
<!-- Node11 -->
<g id="node11" class="node">
<title>Node11</title>
<g id="a_node11"><a xlink:title=" ">
<polygon fill="none" stroke="#bfbfbf" points="635.13,-0.5 635.13,-19.5 733.13,-19.5 733.13,-0.5 635.13,-0.5"/>
<text text-anchor="middle" x="684.13" y="-7.5" font-family="Helvetica,sans-Serif" font-size="10.00">nlohmann/json.hpp</text>
</a>
</g>
</g>
<!-- Node5&#45;&gt;Node11 -->
<g id="edge10" class="edge">
<title>Node5&#45;&gt;Node11</title>
<path fill="none" stroke="midnightblue" d="M1206.8,-60.81C1107.61,-54.31 916.18,-40.48 743.2,-20.05"/>
<polygon fill="midnightblue" stroke="midnightblue" points="743.49,-16.56 733.15,-18.85 742.66,-23.51 743.49,-16.56"/>
</g>
<!-- Node12 -->
<g id="node12" class="node">
<title>Node12</title>
<g id="a_node12"><a xlink:title=" ">
<polygon fill="none" stroke="#bfbfbf" points="751.63,-0.5 751.63,-19.5 836.63,-19.5 836.63,-0.5 751.63,-0.5"/>
<text text-anchor="middle" x="794.13" y="-7.5" font-family="Helvetica,sans-Serif" font-size="10.00">source_location</text>
</a>
</g>
</g>
<!-- Node5&#45;&gt;Node12 -->
<g id="edge11" class="edge">
<title>Node5&#45;&gt;Node12</title>
<path fill="none" stroke="midnightblue" d="M1207.08,-59.43C1124.56,-52.25 979.96,-38.61 846.66,-20.13"/>
<polygon fill="midnightblue" stroke="midnightblue" points="847.06,-16.66 836.68,-18.74 846.09,-23.59 847.06,-16.66"/>
</g>
<!-- Node13 -->
<g id="node13" class="node">
<title>Node13</title>
<g id="a_node13"><a xlink:title=" ">
<polygon fill="none" stroke="#bfbfbf" points="854.63,-0.5 854.63,-19.5 937.63,-19.5 937.63,-0.5 854.63,-0.5"/>
<text text-anchor="middle" x="896.13" y="-7.5" font-family="Helvetica,sans-Serif" font-size="10.00">unordered_map</text>
</a>
</g>
</g>
<!-- Node5&#45;&gt;Node13 -->
<g id="edge12" class="edge">
<title>Node5&#45;&gt;Node13</title>
<path fill="none" stroke="midnightblue" d="M1207.01,-56.52C1143.1,-48.27 1043.93,-35.03 948.03,-20.09"/>
<polygon fill="midnightblue" stroke="midnightblue" points="948.28,-16.59 937.86,-18.5 947.2,-23.5 948.28,-16.59"/>
</g>
<!-- Node14 -->
<g id="node14" class="node">
<title>Node14</title>
<g id="a_node14"><a xlink:title=" ">
<polygon fill="none" stroke="#bfbfbf" points="956.13,-0.5 956.13,-19.5 1034.13,-19.5 1034.13,-0.5 956.13,-0.5"/>
<text text-anchor="middle" x="995.13" y="-7.5" font-family="Helvetica,sans-Serif" font-size="10.00">shared_mutex</text>
</a>
</g>
</g>
<!-- Node5&#45;&gt;Node14 -->
<g id="edge13" class="edge">
<title>Node5&#45;&gt;Node14</title>
<path fill="none" stroke="midnightblue" d="M1229.93,-56.44C1179.36,-46.66 1096.81,-30.68 1044.27,-20.51"/>
<polygon fill="midnightblue" stroke="midnightblue" points="1044.67,-17.02 1034.18,-18.56 1043.34,-23.89 1044.67,-17.02"/>
</g>
<!-- Node15 -->
<g id="node15" class="node">
<title>Node15</title>
<g id="a_node15"><a xlink:title=" ">
<polygon fill="none" stroke="#bfbfbf" points="1052.13,-0.5 1052.13,-19.5 1110.13,-19.5 1110.13,-0.5 1052.13,-0.5"/>
<text text-anchor="middle" x="1081.13" y="-7.5" font-family="Helvetica,sans-Serif" font-size="10.00">functional</text>
</a>
</g>
</g>
<!-- Node5&#45;&gt;Node15 -->
<g id="edge14" class="edge">
<title>Node5&#45;&gt;Node15</title>
<path fill="none" stroke="midnightblue" d="M1243.55,-56.44C1210.13,-47.09 1156.5,-32.09 1120.09,-21.9"/>
<polygon fill="midnightblue" stroke="midnightblue" points="1120.88,-18.49 1110.31,-19.16 1119,-25.23 1120.88,-18.49"/>
</g>
<!-- Node16 -->
<g id="node16" class="node">
<title>Node16</title>
<g id="a_node16"><a xlink:title=" ">
<polygon fill="none" stroke="#bfbfbf" points="1128.13,-0.5 1128.13,-19.5 1184.13,-19.5 1184.13,-0.5 1128.13,-0.5"/>
<text text-anchor="middle" x="1156.13" y="-7.5" font-family="Helvetica,sans-Serif" font-size="10.00">coroutine</text>
</a>
</g>
</g>
<!-- Node5&#45;&gt;Node16 -->
<g id="edge15" class="edge">
<title>Node5&#45;&gt;Node16</title>
<path fill="none" stroke="midnightblue" d="M1255.44,-56.44C1236.19,-47.64 1205.98,-33.81 1183.93,-23.72"/>
<polygon fill="midnightblue" stroke="midnightblue" points="1185.29,-20.5 1174.74,-19.52 1182.38,-26.86 1185.29,-20.5"/>
</g>
<!-- Node17 -->
<g id="node17" class="node">
<title>Node17</title>
<g id="a_node17"><a xlink:title=" ">
<polygon fill="none" stroke="#bfbfbf" points="1202.63,-0.5 1202.63,-19.5 1267.63,-19.5 1267.63,-0.5 1202.63,-0.5"/>
<text text-anchor="middle" x="1235.13" y="-7.5" font-family="Helvetica,sans-Serif" font-size="10.00">semaphore</text>
</a>
</g>
</g>
<!-- Node5&#45;&gt;Node17 -->
<g id="edge16" class="edge">
<title>Node5&#45;&gt;Node17</title>
<path fill="none" stroke="midnightblue" d="M1267.69,-56.08C1262.19,-48.46 1254.1,-37.26 1247.37,-27.94"/>
<polygon fill="midnightblue" stroke="midnightblue" points="1250.15,-25.81 1241.45,-19.75 1244.47,-29.91 1250.15,-25.81"/>
</g>
<!-- Node18 -->
<g id="node18" class="node">
<title>Node18</title>
<g id="a_node18"><a xlink:title=" ">
<polygon fill="none" stroke="#bfbfbf" points="1286.13,-0.5 1286.13,-19.5 1342.13,-19.5 1342.13,-0.5 1286.13,-0.5"/>
<text text-anchor="middle" x="1314.13" y="-7.5" font-family="Helvetica,sans-Serif" font-size="10.00">concepts</text>
</a>
</g>
</g>
<!-- Node5&#45;&gt;Node18 -->
<g id="edge17" class="edge">
<title>Node5&#45;&gt;Node18</title>
<path fill="none" stroke="midnightblue" d="M1280.74,-56.08C1286.39,-48.46 1294.68,-37.26 1301.59,-27.94"/>
<polygon fill="midnightblue" stroke="midnightblue" points="1304.51,-29.87 1307.65,-19.75 1298.89,-25.7 1304.51,-29.87"/>
</g>
<!-- Node19 -->
<g id="node19" class="node">
<title>Node19</title>
<g id="a_node19"><a xlink:title=" ">
<polygon fill="none" stroke="#bfbfbf" points="1360.13,-0.5 1360.13,-19.5 1414.13,-19.5 1414.13,-0.5 1360.13,-0.5"/>
<text text-anchor="middle" x="1387.13" y="-7.5" font-family="Helvetica,sans-Serif" font-size="10.00">iostream</text>
</a>
</g>
</g>
<!-- Node5&#45;&gt;Node19 -->
<g id="edge18" class="edge">
<title>Node5&#45;&gt;Node19</title>
<path fill="none" stroke="midnightblue" d="M1292.04,-56.44C1310.39,-47.68 1339.14,-33.94 1360.23,-23.86"/>
<polygon fill="midnightblue" stroke="midnightblue" points="1361.8,-26.99 1369.31,-19.52 1358.78,-20.67 1361.8,-26.99"/>
</g>
<!-- Node20 -->
<g id="node20" class="node">
<title>Node20</title>
<g id="a_node20"><a xlink:title=" ">
<polygon fill="none" stroke="#bfbfbf" points="1432.63,-0.5 1432.63,-19.5 1481.63,-19.5 1481.63,-0.5 1432.63,-0.5"/>
<text text-anchor="middle" x="1457.13" y="-7.5" font-family="Helvetica,sans-Serif" font-size="10.00">fstream</text>
</a>
</g>
</g>
<!-- Node5&#45;&gt;Node20 -->
<g id="edge19" class="edge">
<title>Node5&#45;&gt;Node20</title>
<path fill="none" stroke="midnightblue" d="M1303.13,-56.44C1335.6,-46.86 1388.19,-31.34 1422.72,-21.15"/>
<polygon fill="midnightblue" stroke="midnightblue" points="1423.78,-24.49 1432.38,-18.3 1421.8,-17.78 1423.78,-24.49"/>
</g>
<!-- Node21 -->
<g id="node21" class="node">
<title>Node21</title>
<g id="a_node21"><a xlink:title=" ">
<polygon fill="none" stroke="#bfbfbf" points="1499.63,-0.5 1499.63,-19.5 1540.63,-19.5 1540.63,-0.5 1499.63,-0.5"/>
<text text-anchor="middle" x="1520.13" y="-7.5" font-family="Helvetica,sans-Serif" font-size="10.00">bitset</text>
</a>
</g>
</g>
<!-- Node5&#45;&gt;Node21 -->
<g id="edge20" class="edge">
<title>Node5&#45;&gt;Node21</title>
<path fill="none" stroke="midnightblue" d="M1321.85,-56.48C1363.86,-48.66 1426.87,-36.2 1489.9,-20.14"/>
<polygon fill="midnightblue" stroke="midnightblue" points="1490.8,-23.52 1499.61,-17.64 1489.05,-16.75 1490.8,-23.52"/>
</g>
<!-- Node22 -->
<g id="node22" class="node">
<title>Node22</title>
<g id="a_node22"><a xlink:title=" ">
<polygon fill="none" stroke="#bfbfbf" points="1559.13,-0.5 1559.13,-19.5 1611.13,-19.5 1611.13,-0.5 1559.13,-0.5"/>
<text text-anchor="middle" x="1585.13" y="-7.5" font-family="Helvetica,sans-Serif" font-size="10.00">memory</text>
</a>
</g>
</g>
<!-- Node5&#45;&gt;Node22 -->
<g id="edge21" class="edge">
<title>Node5&#45;&gt;Node22</title>
<path fill="none" stroke="midnightblue" d="M1336.36,-56.49C1390.19,-48.75 1470.3,-36.36 1548.76,-20.14"/>
<polygon fill="midnightblue" stroke="midnightblue" points="1549.75,-23.51 1558.82,-18.04 1548.32,-16.66 1549.75,-23.51"/>
</g>
<!-- Node23 -->
<g id="node23" class="node">
<title>Node23</title>
<g id="a_node23"><a xlink:title=" ">
<polygon fill="none" stroke="#bfbfbf" points="1629.63,-0.5 1629.63,-19.5 1678.63,-19.5 1678.63,-0.5 1629.63,-0.5"/>
<text text-anchor="middle" x="1654.13" y="-7.5" font-family="Helvetica,sans-Serif" font-size="10.00">random</text>
</a>
</g>
</g>
<!-- Node5&#45;&gt;Node23 -->
<g id="edge22" class="edge">
<title>Node5&#45;&gt;Node23</title>
<path fill="none" stroke="midnightblue" d="M1341.2,-58.88C1409.03,-52.1 1516.99,-39.7 1619.44,-19.9"/>
<polygon fill="midnightblue" stroke="midnightblue" points="1620.2,-23.32 1629.34,-17.96 1618.85,-16.45 1620.2,-23.32"/>
</g>
<!-- Node24 -->
<g id="node24" class="node">
<title>Node24</title>
<g id="a_node24"><a xlink:title=" ">
<polygon fill="none" stroke="#bfbfbf" points="1696.63,-0.5 1696.63,-19.5 1737.63,-19.5 1737.63,-0.5 1696.63,-0.5"/>
<text text-anchor="middle" x="1717.13" y="-7.5" font-family="Helvetica,sans-Serif" font-size="10.00">string</text>
</a>
</g>
</g>
<!-- Node5&#45;&gt;Node24 -->
<g id="edge23" class="edge">
<title>Node5&#45;&gt;Node24</title>
<path fill="none" stroke="midnightblue" d="M1341.44,-61.68C1421.78,-56.82 1560.19,-45.63 1686.5,-20.01"/>
<polygon fill="midnightblue" stroke="midnightblue" points="1687.27,-23.42 1696.35,-17.98 1685.85,-16.57 1687.27,-23.42"/>
</g>
<!-- Node25 -->
<g id="node25" class="node">
<title>Node25</title>
<g id="a_node25"><a xlink:title=" ">
<polygon fill="none" stroke="#bfbfbf" points="1756.13,-0.5 1756.13,-19.5 1798.13,-19.5 1798.13,-0.5 1756.13,-0.5"/>
<text text-anchor="middle" x="1777.13" y="-7.5" font-family="Helvetica,sans-Serif" font-size="10.00">vector</text>
</a>
</g>
</g>
<!-- Node5&#45;&gt;Node25 -->
<g id="edge24" class="edge">
<title>Node5&#45;&gt;Node25</title>
<path fill="none" stroke="midnightblue" d="M1341.31,-62.76C1431.48,-58.84 1596.62,-48.43 1745.71,-19.91"/>
<polygon fill="midnightblue" stroke="midnightblue" points="1746.81,-23.26 1755.96,-17.91 1745.47,-16.39 1746.81,-23.26"/>
</g>
<!-- Node26 -->
<g id="node26" class="node">
<title>Node26</title>
<g id="a_node26"><a xlink:title=" ">
<polygon fill="none" stroke="#bfbfbf" points="1816.13,-0.5 1816.13,-19.5 1860.13,-19.5 1860.13,-0.5 1816.13,-0.5"/>
<text text-anchor="middle" x="1838.13" y="-7.5" font-family="Helvetica,sans-Serif" font-size="10.00">thread</text>
</a>
</g>
</g>
<!-- Node5&#45;&gt;Node26 -->
<g id="edge25" class="edge">
<title>Node5&#45;&gt;Node26</title>
<path fill="none" stroke="midnightblue" d="M1341.18,-63.59C1440.83,-60.57 1633.88,-51.11 1805.92,-19.87"/>
<polygon fill="midnightblue" stroke="midnightblue" points="1806.71,-23.28 1815.91,-18.02 1805.44,-16.4 1806.71,-23.28"/>
</g>
<!-- Node27 -->
<g id="node27" class="node">
<title>Node27</title>
<g id="a_node27"><a xlink:title=" ">
<polygon fill="none" stroke="#bfbfbf" points="1878.13,-0.5 1878.13,-19.5 1922.13,-19.5 1922.13,-0.5 1878.13,-0.5"/>
<text text-anchor="middle" x="1900.13" y="-7.5" font-family="Helvetica,sans-Serif" font-size="10.00">mutex</text>
</a>
</g>
</g>
<!-- Node5&#45;&gt;Node27 -->
<g id="edge26" class="edge">
<title>Node5&#45;&gt;Node27</title>
<path fill="none" stroke="midnightblue" d="M1341.18,-64.43C1450.12,-62.53 1672.25,-54.54 1868.02,-19.83"/>
<polygon fill="midnightblue" stroke="midnightblue" points="1868.69,-23.26 1877.91,-18.05 1867.45,-16.38 1868.69,-23.26"/>
</g>
<!-- Node28 -->
<g id="node28" class="node">
<title>Node28</title>
<g id="a_node28"><a xlink:title=" ">
<polygon fill="none" stroke="#bfbfbf" points="1940.63,-0.5 1940.63,-19.5 1983.63,-19.5 1983.63,-0.5 1940.63,-0.5"/>
<text text-anchor="middle" x="1962.13" y="-7.5" font-family="Helvetica,sans-Serif" font-size="10.00">queue</text>
</a>
</g>
</g>
<!-- Node5&#45;&gt;Node28 -->
<g id="edge27" class="edge">
<title>Node5&#45;&gt;Node28</title>
<path fill="none" stroke="midnightblue" d="M1341.39,-65.12C1459.17,-64.3 1710.34,-57.97 1930.47,-19.68"/>
<polygon fill="midnightblue" stroke="midnightblue" points="1931.35,-23.08 1940.59,-17.89 1930.14,-16.19 1931.35,-23.08"/>
</g>
<!-- Node29 -->
<g id="node29" class="node">
<title>Node29</title>
<g id="a_node29"><a xlink:title=" ">
<polygon fill="none" stroke="#bfbfbf" points="2001.63,-0.5 2001.63,-19.5 2036.63,-19.5 2036.63,-0.5 2001.63,-0.5"/>
<text text-anchor="middle" x="2019.13" y="-7.5" font-family="Helvetica,sans-Serif" font-size="10.00">map</text>
</a>
</g>
</g>
<!-- Node5&#45;&gt;Node29 -->
<g id="edge28" class="edge">
<title>Node5&#45;&gt;Node29</title>
<path fill="none" stroke="midnightblue" d="M1341.22,-63.12C1491.32,-58.54 1851.43,-45.43 1991.33,-19.79"/>
<polygon fill="midnightblue" stroke="midnightblue" points="1992.25,-23.18 2001.41,-17.85 1990.93,-16.31 1992.25,-23.18"/>
</g>
<!-- Node32&#45;&gt;Node4 -->
<g id="edge33" class="edge">
<title>Node32&#45;&gt;Node4</title>
<path fill="none" stroke="midnightblue" d="M1583.17,-403.5C1579.11,-385.09 1570.13,-340.16 1570.13,-302 1570.13,-302 1570.13,-302 1570.13,-244 1570.13,-208.35 1553.1,-198.31 1523.13,-179 1471.52,-145.74 1402.4,-133.72 1350.08,-129.67"/>
<polygon fill="midnightblue" stroke="midnightblue" points="1350.07,-126.16 1339.85,-128.97 1349.59,-133.15 1350.07,-126.16"/>
</g>
<!-- Node33 -->
<g id="node33" class="node">
<title>Node33</title>
<g id="a_node33"><a xlink:title=" ">
<polygon fill="none" stroke="#bfbfbf" points="1598.13,-347.5 1598.13,-366.5 1668.13,-366.5 1668.13,-347.5 1598.13,-347.5"/>
<text text-anchor="middle" x="1633.13" y="-354.5" font-family="Helvetica,sans-Serif" font-size="10.00">opus/opus.h</text>
</a>
</g>
</g>
<!-- Node32&#45;&gt;Node33 -->
<g id="edge34" class="edge">
<title>Node32&#45;&gt;Node33</title>
<path fill="none" stroke="midnightblue" d="M1593.06,-403.08C1599.98,-395.3 1610.2,-383.8 1618.59,-374.37"/>
<polygon fill="midnightblue" stroke="midnightblue" points="1621.33,-376.55 1625.36,-366.75 1616.1,-371.9 1621.33,-376.55"/>
</g>
<!-- Node34&#45;&gt;Node4 -->
<g id="edge36" class="edge">
<title>Node34&#45;&gt;Node4</title>
<path fill="none" stroke="midnightblue" d="M1437.97,-403.48C1456.4,-396.15 1481.17,-384.04 1498.13,-367 1521.13,-343.89 1532.13,-334.6 1532.13,-302 1532.13,-302 1532.13,-302 1532.13,-244 1532.13,-163.45 1426.08,-138.71 1349.97,-131.33"/>
<polygon fill="midnightblue" stroke="midnightblue" points="1350.18,-127.83 1339.91,-130.43 1349.56,-134.81 1350.18,-127.83"/>
</g>
<!-- Node35 -->
<g id="node35" class="node">
<title>Node35</title>
<g id="a_node35"><a xlink:href="../../d3/d4f/a00761.html" target="_top" xlink:title=" ">
<polygon fill="none" stroke="black" points="1339.13,-347.5 1339.13,-366.5 1489.13,-366.5 1489.13,-347.5 1339.13,-347.5"/>
<text text-anchor="middle" x="1414.13" y="-354.5" font-family="Helvetica,sans-Serif" font-size="10.00">discordcoreapi/ThreadPool.hpp</text>
</a>
</g>
</g>
<!-- Node34&#45;&gt;Node35 -->
<g id="edge37" class="edge">
<title>Node34&#45;&gt;Node35</title>
<path fill="none" stroke="midnightblue" d="M1413.3,-403.08C1413.43,-396.01 1413.62,-385.86 1413.78,-376.99"/>
<polygon fill="midnightblue" stroke="midnightblue" points="1417.29,-376.81 1413.97,-366.75 1410.29,-376.68 1417.29,-376.81"/>
</g>
<!-- Node35&#45;&gt;Node4 -->
<g id="edge38" class="edge">
<title>Node35&#45;&gt;Node4</title>
<path fill="none" stroke="midnightblue" d="M1422.32,-347.32C1447.21,-319.87 1517.71,-233.59 1475.13,-179 1459.5,-158.95 1399.87,-145.65 1349.58,-137.75"/>
<polygon fill="midnightblue" stroke="midnightblue" points="1350.08,-134.29 1339.67,-136.24 1349.03,-141.21 1350.08,-134.29"/>
</g>
<!-- Node35&#45;&gt;Node36 -->
<g id="edge39" class="edge">
<title>Node35&#45;&gt;Node36</title>
<path fill="none" stroke="midnightblue" d="M1397.59,-347.32C1381.14,-338.7 1355.7,-325.36 1336.67,-315.39"/>
<polygon fill="midnightblue" stroke="midnightblue" points="1338.12,-312.2 1327.64,-310.65 1334.87,-318.4 1338.12,-312.2"/>
</g>
<!-- Node37 -->
<g id="node37" class="node">
<title>Node37</title>
<g id="a_node37"><a xlink:href="../../d5/de8/a00749.html" target="_top" xlink:title=" ">
<polygon fill="none" stroke="black" points="915.13,-235.5 915.13,-254.5 1065.13,-254.5 1065.13,-235.5 915.13,-235.5"/>
<text text-anchor="middle" x="990.13" y="-242.5" font-family="Helvetica,sans-Serif" font-size="10.00">discordcoreapi/SSLClients.hpp</text>
</a>
</g>
</g>
<!-- Node36&#45;&gt;Node37 -->
<g id="edge40" class="edge">
<title>Node36&#45;&gt;Node37</title>
<path fill="none" stroke="midnightblue" d="M1260.27,-291.44C1203.45,-281.89 1111.52,-266.42 1050.94,-256.23"/>
<polygon fill="midnightblue" stroke="midnightblue" points="1051.2,-252.72 1040.76,-254.52 1050.04,-259.63 1051.2,-252.72"/>
</g>
<!-- Node37&#45;&gt;Node3 -->
<g id="edge42" class="edge">
<title>Node37&#45;&gt;Node3</title>
<path fill="none" stroke="midnightblue" d="M915.05,-237.79C816.8,-229.58 638.98,-214.46 476.47,-199.11"/>
<polygon fill="midnightblue" stroke="midnightblue" points="476.57,-195.61 466.28,-198.15 475.91,-202.58 476.57,-195.61"/>
</g>
<!-- Node37&#45;&gt;Node4 -->
<g id="edge41" class="edge">
<title>Node37&#45;&gt;Node4</title>
<path fill="none" stroke="midnightblue" d="M998.62,-235.44C1012.93,-221.52 1043.3,-194.01 1074.13,-179 1113,-160.08 1159.69,-147.78 1198.17,-140.05"/>
<polygon fill="midnightblue" stroke="midnightblue" points="1199.13,-143.43 1208.28,-138.09 1197.8,-136.56 1199.13,-143.43"/>
</g>
<!-- Node38 -->
<g id="node38" class="node">
<title>Node38</title>
<g id="a_node38"><a xlink:title=" ">
<polygon fill="none" stroke="#bfbfbf" points="1238.63,-179.5 1238.63,-198.5 1311.63,-198.5 1311.63,-179.5 1238.63,-179.5"/>
<text text-anchor="middle" x="1275.13" y="-186.5" font-family="Helvetica,sans-Serif" font-size="10.00">openssl/err.h</text>
</a>
</g>
</g>
<!-- Node37&#45;&gt;Node38 -->
<g id="edge43" class="edge">
<title>Node37&#45;&gt;Node38</title>
<path fill="none" stroke="midnightblue" d="M1035.97,-235.47C1082.03,-226.88 1155.32,-213.14 1228.61,-199.09"/>
<polygon fill="midnightblue" stroke="midnightblue" points="1229.32,-202.52 1238.48,-197.2 1228,-195.64 1229.32,-202.52"/>
</g>
<!-- Node39 -->
<g id="node39" class="node">
<title>Node39</title>
<g id="a_node39"><a xlink:title=" ">
<polygon fill="none" stroke="#bfbfbf" points="1330.13,-179.5 1330.13,-198.5 1404.13,-198.5 1404.13,-179.5 1330.13,-179.5"/>
<text text-anchor="middle" x="1367.13" y="-186.5" font-family="Helvetica,sans-Serif" font-size="10.00">openssl/ssl.h</text>
</a>
</g>
</g>
<!-- Node37&#45;&gt;Node39 -->
<g id="edge44" class="edge">
<title>Node37&#45;&gt;Node39</title>
<path fill="none" stroke="midnightblue" d="M1061.66,-235.49C1126.53,-227.5 1225.01,-214.68 1319.95,-199.12"/>
<polygon fill="midnightblue" stroke="midnightblue" points="1320.71,-202.54 1330.01,-197.46 1319.57,-195.63 1320.71,-202.54"/>
</g>
<!-- Node40 -->
<g id="node40" class="node">
<title>Node40</title>
<g id="a_node40"><a xlink:title=" ">
<polygon fill="none" stroke="#bfbfbf" points="1422.63,-179.5 1422.63,-198.5 1465.63,-198.5 1465.63,-179.5 1422.63,-179.5"/>
<text text-anchor="middle" x="1444.13" y="-186.5" font-family="Helvetica,sans-Serif" font-size="10.00">fcntl.h</text>
</a>
</g>
</g>
<!-- Node37&#45;&gt;Node40 -->
<g id="edge45" class="edge">
<title>Node37&#45;&gt;Node40</title>
<path fill="none" stroke="midnightblue" d="M1065.23,-240.03C1148.11,-234.74 1285.47,-223.3 1412.66,-198.73"/>
<polygon fill="midnightblue" stroke="midnightblue" points="1413.44,-202.15 1422.57,-196.79 1412.09,-195.28 1413.44,-202.15"/>
</g>
<!-- Node41 -->
<g id="node41" class="node">
<title>Node41</title>
<g id="a_node41"><a xlink:title=" ">
<polygon fill="none" stroke="#bfbfbf" points="484.63,-179.5 484.63,-198.5 533.63,-198.5 533.63,-179.5 484.63,-179.5"/>
<text text-anchor="middle" x="509.13" y="-186.5" font-family="Helvetica,sans-Serif" font-size="10.00">netdb.h</text>
</a>
</g>
</g>
<!-- Node37&#45;&gt;Node41 -->
<g id="edge46" class="edge">
<title>Node37&#45;&gt;Node41</title>
<path fill="none" stroke="midnightblue" d="M915.09,-240.28C827.85,-235.1 679.49,-223.64 544.04,-199.1"/>
<polygon fill="midnightblue" stroke="midnightblue" points="544.37,-195.6 533.9,-197.23 543.1,-202.48 544.37,-195.6"/>
</g>
<!-- Node42 -->
<g id="node42" class="node">
<title>Node42</title>
<g id="a_node42"><a xlink:title=" ">
<polygon fill="none" stroke="#bfbfbf" points="551.63,-179.5 551.63,-198.5 616.63,-198.5 616.63,-179.5 551.63,-179.5"/>
<text text-anchor="middle" x="584.13" y="-186.5" font-family="Helvetica,sans-Serif" font-size="10.00">netinet/in.h</text>
</a>
</g>
</g>
<!-- Node37&#45;&gt;Node42 -->
<g id="edge47" class="edge">
<title>Node37&#45;&gt;Node42</title>
<path fill="none" stroke="midnightblue" d="M915.04,-236.81C843.35,-229.48 732.1,-216.88 626.91,-199.18"/>
<polygon fill="midnightblue" stroke="midnightblue" points="627.2,-195.68 616.75,-197.45 626.03,-202.58 627.2,-195.68"/>
</g>
<!-- Node43 -->
<g id="node43" class="node">
<title>Node43</title>
<g id="a_node43"><a xlink:title=" ">
<polygon fill="none" stroke="#bfbfbf" points="634.63,-179.5 634.63,-198.5 705.63,-198.5 705.63,-179.5 634.63,-179.5"/>
<text text-anchor="middle" x="670.13" y="-186.5" font-family="Helvetica,sans-Serif" font-size="10.00">netinet/tcp.h</text>
</a>
</g>
</g>
<!-- Node37&#45;&gt;Node43 -->
<g id="edge48" class="edge">
<title>Node37&#45;&gt;Node43</title>
<path fill="none" stroke="midnightblue" d="M933.72,-235.48C880.04,-227.22 796.76,-214.01 715.54,-199.21"/>
<polygon fill="midnightblue" stroke="midnightblue" points="716.12,-195.75 705.65,-197.39 714.86,-202.64 716.12,-195.75"/>
</g>
<!-- Node44 -->
<g id="node44" class="node">
<title>Node44</title>
<g id="a_node44"><a xlink:title=" ">
<polygon fill="none" stroke="#bfbfbf" points="723.63,-179.5 723.63,-198.5 772.63,-198.5 772.63,-179.5 723.63,-179.5"/>
<text text-anchor="middle" x="748.13" y="-186.5" font-family="Helvetica,sans-Serif" font-size="10.00">stdint.h</text>
</a>
</g>
</g>
<!-- Node37&#45;&gt;Node44 -->
<g id="edge49" class="edge">
<title>Node37&#45;&gt;Node44</title>
<path fill="none" stroke="midnightblue" d="M947.78,-235.43C907.8,-227.2 845.93,-214.14 783.08,-199.14"/>
<polygon fill="midnightblue" stroke="midnightblue" points="783.52,-195.65 772.98,-196.72 781.89,-202.46 783.52,-195.65"/>
</g>
<!-- Node45 -->
<g id="node45" class="node">
<title>Node45</title>
<g id="a_node45"><a xlink:title=" ">
<polygon fill="none" stroke="#bfbfbf" points="791.13,-179.5 791.13,-198.5 855.13,-198.5 855.13,-179.5 791.13,-179.5"/>
<text text-anchor="middle" x="823.13" y="-186.5" font-family="Helvetica,sans-Serif" font-size="10.00">sys/epoll.h</text>
</a>
</g>
</g>
<!-- Node37&#45;&gt;Node45 -->
<g id="edge50" class="edge">
<title>Node37&#45;&gt;Node45</title>
<path fill="none" stroke="midnightblue" d="M963.67,-235.44C935.46,-226.32 890.59,-211.81 859.17,-201.65"/>
<polygon fill="midnightblue" stroke="midnightblue" points="860.06,-198.26 849.47,-198.52 857.91,-204.92 860.06,-198.26"/>
</g>
<!-- Node46 -->
<g id="node46" class="node">
<title>Node46</title>
<g id="a_node46"><a xlink:title=" ">
<polygon fill="none" stroke="#bfbfbf" points="873.13,-179.5 873.13,-198.5 935.13,-198.5 935.13,-179.5 873.13,-179.5"/>
<text text-anchor="middle" x="904.13" y="-186.5" font-family="Helvetica,sans-Serif" font-size="10.00">arpa/inet.h</text>
</a>
</g>
</g>
<!-- Node37&#45;&gt;Node46 -->
<g id="edge51" class="edge">
<title>Node37&#45;&gt;Node46</title>
<path fill="none" stroke="midnightblue" d="M976.32,-235.32C962.9,-226.9 942.31,-213.97 926.55,-204.07"/>
<polygon fill="midnightblue" stroke="midnightblue" points="928.25,-201.01 917.92,-198.65 924.53,-206.94 928.25,-201.01"/>
</g>
<!-- Node47 -->
<g id="node47" class="node">
<title>Node47</title>
<g id="a_node47"><a xlink:title=" ">
<polygon fill="none" stroke="#bfbfbf" points="953.63,-179.5 953.63,-198.5 1026.63,-198.5 1026.63,-179.5 953.63,-179.5"/>
<text text-anchor="middle" x="990.13" y="-186.5" font-family="Helvetica,sans-Serif" font-size="10.00">sys/socket.h</text>
</a>
</g>
</g>
<!-- Node37&#45;&gt;Node47 -->
<g id="edge52" class="edge">
<title>Node37&#45;&gt;Node47</title>
<path fill="none" stroke="midnightblue" d="M990.13,-235.08C990.13,-228.01 990.13,-217.86 990.13,-208.99"/>
<polygon fill="midnightblue" stroke="midnightblue" points="993.63,-208.75 990.13,-198.75 986.63,-208.75 993.63,-208.75"/>
</g>
<!-- Node48 -->
<g id="node48" class="node">
<title>Node48</title>
<g id="a_node48"><a xlink:title=" ">
<polygon fill="none" stroke="#bfbfbf" points="1083.13,-179.5 1083.13,-198.5 1151.13,-198.5 1151.13,-179.5 1083.13,-179.5"/>
<text text-anchor="middle" x="1117.13" y="-186.5" font-family="Helvetica,sans-Serif" font-size="10.00">sys/types.h</text>
</a>
</g>
</g>
<!-- Node37&#45;&gt;Node48 -->
<g id="edge53" class="edge">
<title>Node37&#45;&gt;Node48</title>
<path fill="none" stroke="midnightblue" d="M1010.26,-235.44C1031.16,-226.56 1064.07,-212.56 1087.85,-202.45"/>
<polygon fill="midnightblue" stroke="midnightblue" points="1089.27,-205.65 1097.11,-198.52 1086.53,-199.21 1089.27,-205.65"/>
</g>
<!-- Node49 -->
<g id="node49" class="node">
<title>Node49</title>
<g id="a_node49"><a xlink:title=" ">
<polygon fill="none" stroke="#bfbfbf" points="1169.63,-179.5 1169.63,-198.5 1220.63,-198.5 1220.63,-179.5 1169.63,-179.5"/>
<text text-anchor="middle" x="1195.13" y="-186.5" font-family="Helvetica,sans-Serif" font-size="10.00">unistd.h</text>
</a>
</g>
</g>
<!-- Node37&#45;&gt;Node49 -->
<g id="edge54" class="edge">
<title>Node37&#45;&gt;Node49</title>
<path fill="none" stroke="midnightblue" d="M1022.62,-235.44C1060.03,-225.59 1121.28,-209.45 1159.84,-199.3"/>
<polygon fill="midnightblue" stroke="midnightblue" points="1160.83,-202.66 1169.6,-196.73 1159.04,-195.89 1160.83,-202.66"/>
</g>
</g>
</svg>
