<?xml version="1.0" encoding="UTF-8" standalone="no"?>
<!DOCTYPE svg PUBLIC "-//W3C//DTD SVG 1.1//EN"
 "http://www.w3.org/Graphics/SVG/1.1/DTD/svg11.dtd">
<!-- Generated by graphviz version 3.0.0 (20220226.1711)
 -->
<!-- Title: CoRoutine.hpp Pages: 1 -->
<svg width="1809pt" height="431pt"
 viewBox="0.00 0.00 1808.50 431.00" xmlns="http://www.w3.org/2000/svg" xmlns:xlink="http://www.w3.org/1999/xlink">
<g id="graph0" class="graph" transform="scale(1 1) rotate(0) translate(4 427)">
<title>CoRoutine.hpp</title>
<!-- Node1 -->
<g id="node1" class="node">
<title>Node1</title>
<g id="a_node1"><a xlink:title=" ">
<polygon fill="#bfbfbf" stroke="black" points="1186.5,-403.5 1186.5,-422.5 1266.5,-422.5 1266.5,-403.5 1186.5,-403.5"/>
<text text-anchor="middle" x="1226.5" y="-410.5" font-family="Helvetica,sans-Serif" font-size="10.00">CoRoutine.hpp</text>
</a>
</g>
</g>
<!-- Node2 -->
<g id="node2" class="node">
<title>Node2</title>
<g id="a_node2"><a xlink:href="../../d4/deb/a00710.html" target="_top" xlink:title=" ">
<polygon fill="none" stroke="black" points="1006,-112.5 1006,-142.5 1137,-142.5 1137,-112.5 1006,-112.5"/>
<text text-anchor="start" x="1014" y="-130.5" font-family="Helvetica,sans-Serif" font-size="10.00">discordcoreapi/Foundation</text>
<text text-anchor="middle" x="1071.5" y="-119.5" font-family="Helvetica,sans-Serif" font-size="10.00">Entities.hpp</text>
</a>
</g>
</g>
<!-- Node1&#45;&gt;Node2 -->
<g id="edge1" class="edge">
<title>Node1&#45;&gt;Node2</title>
<path fill="none" stroke="midnightblue" d="M1234.33,-403.3C1241.74,-394.65 1252.72,-380.73 1259.5,-367 1272.82,-340.01 1278.5,-332.1 1278.5,-302 1278.5,-302 1278.5,-302 1278.5,-244 1278.5,-181.85 1206.47,-152.84 1147.39,-139.49"/>
<polygon fill="midnightblue" stroke="midnightblue" points="1147.79,-135.99 1137.28,-137.32 1146.33,-142.84 1147.79,-135.99"/>
</g>
<!-- Node28 -->
<g id="node28" class="node">
<title>Node28</title>
<g id="a_node28"><a xlink:href="../../d3/d4f/a00761.html" target="_top" xlink:title=" ">
<polygon fill="none" stroke="black" points="1100.5,-347.5 1100.5,-366.5 1250.5,-366.5 1250.5,-347.5 1100.5,-347.5"/>
<text text-anchor="middle" x="1175.5" y="-354.5" font-family="Helvetica,sans-Serif" font-size="10.00">discordcoreapi/ThreadPool.hpp</text>
</a>
</g>
</g>
<!-- Node1&#45;&gt;Node28 -->
<g id="edge27" class="edge">
<title>Node1&#45;&gt;Node28</title>
<path fill="none" stroke="midnightblue" d="M1218.08,-403.08C1210.65,-395.22 1199.65,-383.57 1190.69,-374.08"/>
<polygon fill="midnightblue" stroke="midnightblue" points="1193.18,-371.62 1183.76,-366.75 1188.09,-376.42 1193.18,-371.62"/>
</g>
<!-- Node3 -->
<g id="node3" class="node">
<title>Node3</title>
<g id="a_node3"><a xlink:href="../../d5/dae/a00767.html" target="_top" xlink:title=" ">
<polygon fill="none" stroke="black" points="998.5,-56.5 998.5,-75.5 1132.5,-75.5 1132.5,-56.5 998.5,-56.5"/>
<text text-anchor="middle" x="1065.5" y="-63.5" font-family="Helvetica,sans-Serif" font-size="10.00">discordcoreapi/Utilities.hpp</text>
</a>
</g>
</g>
<!-- Node2&#45;&gt;Node3 -->
<g id="edge2" class="edge">
<title>Node2&#45;&gt;Node3</title>
<path fill="none" stroke="midnightblue" d="M1070.08,-112.4C1069.28,-104.47 1068.27,-94.46 1067.4,-85.86"/>
<polygon fill="midnightblue" stroke="midnightblue" points="1070.86,-85.26 1066.37,-75.66 1063.89,-85.96 1070.86,-85.26"/>
</g>
<!-- Node4 -->
<g id="node4" class="node">
<title>Node4</title>
<g id="a_node4"><a xlink:title=" ">
<polygon fill="none" stroke="#bfbfbf" points="1663,-0.5 1663,-19.5 1720,-19.5 1720,-0.5 1663,-0.5"/>
<text text-anchor="middle" x="1691.5" y="-7.5" font-family="Helvetica,sans-Serif" font-size="10.00">pthread.h</text>
</a>
</g>
</g>
<!-- Node3&#45;&gt;Node4 -->
<g id="edge3" class="edge">
<title>Node3&#45;&gt;Node4</title>
<path fill="none" stroke="midnightblue" d="M1132.6,-63.41C1240.49,-60.09 1459.23,-50.13 1652.83,-20.03"/>
<polygon fill="midnightblue" stroke="midnightblue" points="1653.58,-23.46 1662.91,-18.44 1652.49,-16.54 1653.58,-23.46"/>
</g>
<!-- Node5 -->
<g id="node5" class="node">
<title>Node5</title>
<g id="a_node5"><a xlink:title=" ">
<polygon fill="none" stroke="#bfbfbf" points="1738.5,-0.5 1738.5,-19.5 1800.5,-19.5 1800.5,-0.5 1738.5,-0.5"/>
<text text-anchor="middle" x="1769.5" y="-7.5" font-family="Helvetica,sans-Serif" font-size="10.00">sys/time.h</text>
</a>
</g>
</g>
<!-- Node3&#45;&gt;Node5 -->
<g id="edge4" class="edge">
<title>Node3&#45;&gt;Node5</title>
<path fill="none" stroke="midnightblue" d="M1132.78,-63.85C1251.33,-61.08 1505.25,-51.8 1728.22,-19.97"/>
<polygon fill="midnightblue" stroke="midnightblue" points="1728.75,-23.43 1738.14,-18.53 1727.74,-16.5 1728.75,-23.43"/>
</g>
<!-- Node6 -->
<g id="node6" class="node">
<title>Node6</title>
<g id="a_node6"><a xlink:title=" ">
<polygon fill="none" stroke="#bfbfbf" points="94.5,-0.5 94.5,-19.5 138.5,-19.5 138.5,-0.5 94.5,-0.5"/>
<text text-anchor="middle" x="116.5" y="-7.5" font-family="Helvetica,sans-Serif" font-size="10.00">time.h</text>
</a>
</g>
</g>
<!-- Node3&#45;&gt;Node6 -->
<g id="edge5" class="edge">
<title>Node3&#45;&gt;Node6</title>
<path fill="none" stroke="midnightblue" d="M998.37,-63.74C818.9,-60.06 329.87,-47.86 148.65,-19.73"/>
<polygon fill="midnightblue" stroke="midnightblue" points="149.14,-16.27 138.71,-18.12 148.02,-23.18 149.14,-16.27"/>
</g>
<!-- Node7 -->
<g id="node7" class="node">
<title>Node7</title>
<g id="a_node7"><a xlink:title=" ">
<polygon fill="none" stroke="#bfbfbf" points="157,-0.5 157,-19.5 198,-19.5 198,-0.5 157,-0.5"/>
<text text-anchor="middle" x="177.5" y="-7.5" font-family="Helvetica,sans-Serif" font-size="10.00">ctime</text>
</a>
</g>
</g>
<!-- Node3&#45;&gt;Node7 -->
<g id="edge6" class="edge">
<title>Node3&#45;&gt;Node7</title>
<path fill="none" stroke="midnightblue" d="M998.28,-63.64C827.06,-59.82 376.72,-47.58 208.22,-19.84"/>
<polygon fill="midnightblue" stroke="midnightblue" points="208.71,-16.37 198.26,-18.12 207.52,-23.27 208.71,-16.37"/>
</g>
<!-- Node8 -->
<g id="node8" class="node">
<title>Node8</title>
<g id="a_node8"><a xlink:title=" ">
<polygon fill="none" stroke="#bfbfbf" points="216,-0.5 216,-19.5 309,-19.5 309,-0.5 216,-0.5"/>
<text text-anchor="middle" x="262.5" y="-7.5" font-family="Helvetica,sans-Serif" font-size="10.00">condition_variable</text>
</a>
</g>
</g>
<!-- Node3&#45;&gt;Node8 -->
<g id="edge7" class="edge">
<title>Node3&#45;&gt;Node8</title>
<path fill="none" stroke="midnightblue" d="M998.35,-63.19C869.02,-59.21 576.24,-47.84 319.47,-19.99"/>
<polygon fill="midnightblue" stroke="midnightblue" points="319.53,-16.47 309.2,-18.86 318.76,-23.43 319.53,-16.47"/>
</g>
<!-- Node9 -->
<g id="node9" class="node">
<title>Node9</title>
<g id="a_node9"><a xlink:title=" ">
<polygon fill="none" stroke="#bfbfbf" points="327.5,-0.5 327.5,-19.5 425.5,-19.5 425.5,-0.5 327.5,-0.5"/>
<text text-anchor="middle" x="376.5" y="-7.5" font-family="Helvetica,sans-Serif" font-size="10.00">nlohmann/json.hpp</text>
</a>
</g>
</g>
<!-- Node3&#45;&gt;Node9 -->
<g id="edge8" class="edge">
<title>Node3&#45;&gt;Node9</title>
<path fill="none" stroke="midnightblue" d="M998.09,-62.03C884.31,-56.61 646.7,-43.55 435.54,-20.02"/>
<polygon fill="midnightblue" stroke="midnightblue" points="435.84,-16.54 425.51,-18.9 435.06,-23.49 435.84,-16.54"/>
</g>
<!-- Node10 -->
<g id="node10" class="node">
<title>Node10</title>
<g id="a_node10"><a xlink:title=" ">
<polygon fill="none" stroke="#bfbfbf" points="444,-0.5 444,-19.5 529,-19.5 529,-0.5 444,-0.5"/>
<text text-anchor="middle" x="486.5" y="-7.5" font-family="Helvetica,sans-Serif" font-size="10.00">source_location</text>
</a>
</g>
</g>
<!-- Node3&#45;&gt;Node10 -->
<g id="edge9" class="edge">
<title>Node3&#45;&gt;Node10</title>
<path fill="none" stroke="midnightblue" d="M998.2,-61.2C899.57,-55.21 709.79,-42.05 538.96,-20.09"/>
<polygon fill="midnightblue" stroke="midnightblue" points="539.4,-16.62 529.03,-18.8 538.5,-23.56 539.4,-16.62"/>
</g>
<!-- Node11 -->
<g id="node11" class="node">
<title>Node11</title>
<g id="a_node11"><a xlink:title=" ">
<polygon fill="none" stroke="#bfbfbf" points="547,-0.5 547,-19.5 630,-19.5 630,-0.5 547,-0.5"/>
<text text-anchor="middle" x="588.5" y="-7.5" font-family="Helvetica,sans-Serif" font-size="10.00">unordered_map</text>
</a>
</g>
</g>
<!-- Node3&#45;&gt;Node11 -->
<g id="edge10" class="edge">
<title>Node3&#45;&gt;Node11</title>
<path fill="none" stroke="midnightblue" d="M998.18,-59.34C916.12,-52.12 773,-38.48 640.16,-20"/>
<polygon fill="midnightblue" stroke="midnightblue" points="640.6,-16.53 630.21,-18.6 639.63,-23.46 640.6,-16.53"/>
</g>
<!-- Node12 -->
<g id="node12" class="node">
<title>Node12</title>
<g id="a_node12"><a xlink:title=" ">
<polygon fill="none" stroke="#bfbfbf" points="648.5,-0.5 648.5,-19.5 726.5,-19.5 726.5,-0.5 648.5,-0.5"/>
<text text-anchor="middle" x="687.5" y="-7.5" font-family="Helvetica,sans-Serif" font-size="10.00">shared_mutex</text>
</a>
</g>
</g>
<!-- Node3&#45;&gt;Node12 -->
<g id="edge11" class="edge">
<title>Node3&#45;&gt;Node12</title>
<path fill="none" stroke="midnightblue" d="M998.36,-56.84C933.79,-48.77 833.21,-35.6 736.46,-20.09"/>
<polygon fill="midnightblue" stroke="midnightblue" points="736.93,-16.62 726.5,-18.48 735.82,-23.53 736.93,-16.62"/>
</g>
<!-- Node13 -->
<g id="node13" class="node">
<title>Node13</title>
<g id="a_node13"><a xlink:title=" ">
<polygon fill="none" stroke="#bfbfbf" points="744.5,-0.5 744.5,-19.5 802.5,-19.5 802.5,-0.5 744.5,-0.5"/>
<text text-anchor="middle" x="773.5" y="-7.5" font-family="Helvetica,sans-Serif" font-size="10.00">functional</text>
</a>
</g>
</g>
<!-- Node3&#45;&gt;Node13 -->
<g id="edge12" class="edge">
<title>Node3&#45;&gt;Node13</title>
<path fill="none" stroke="midnightblue" d="M1012.3,-56.49C963.01,-48.39 887.41,-35.46 812.58,-20.13"/>
<polygon fill="midnightblue" stroke="midnightblue" points="813.01,-16.64 802.51,-18.05 811.59,-23.5 813.01,-16.64"/>
</g>
<!-- Node14 -->
<g id="node14" class="node">
<title>Node14</title>
<g id="a_node14"><a xlink:title=" ">
<polygon fill="none" stroke="#bfbfbf" points="820.5,-0.5 820.5,-19.5 876.5,-19.5 876.5,-0.5 820.5,-0.5"/>
<text text-anchor="middle" x="848.5" y="-7.5" font-family="Helvetica,sans-Serif" font-size="10.00">coroutine</text>
</a>
</g>
</g>
<!-- Node3&#45;&gt;Node14 -->
<g id="edge13" class="edge">
<title>Node3&#45;&gt;Node14</title>
<path fill="none" stroke="midnightblue" d="M1031.12,-56.44C991.67,-46.63 927.2,-30.59 886.36,-20.42"/>
<polygon fill="midnightblue" stroke="midnightblue" points="887.06,-16.99 876.51,-17.97 885.37,-23.78 887.06,-16.99"/>
</g>
<!-- Node15 -->
<g id="node15" class="node">
<title>Node15</title>
<g id="a_node15"><a xlink:title=" ">
<polygon fill="none" stroke="#bfbfbf" points="0,-0.5 0,-19.5 65,-19.5 65,-0.5 0,-0.5"/>
<text text-anchor="middle" x="32.5" y="-7.5" font-family="Helvetica,sans-Serif" font-size="10.00">semaphore</text>
</a>
</g>
</g>
<!-- Node3&#45;&gt;Node15 -->
<g id="edge14" class="edge">
<title>Node3&#45;&gt;Node15</title>
<path fill="none" stroke="midnightblue" d="M998.45,-64.74C839.47,-63.52 427.36,-56.74 85.5,-20 82.21,-19.65 78.81,-19.22 75.39,-18.74"/>
<polygon fill="midnightblue" stroke="midnightblue" points="75.62,-15.24 65.21,-17.2 74.57,-22.16 75.62,-15.24"/>
</g>
<!-- Node16 -->
<g id="node16" class="node">
<title>Node16</title>
<g id="a_node16"><a xlink:title=" ">
<polygon fill="none" stroke="#bfbfbf" points="894.5,-0.5 894.5,-19.5 950.5,-19.5 950.5,-0.5 894.5,-0.5"/>
<text text-anchor="middle" x="922.5" y="-7.5" font-family="Helvetica,sans-Serif" font-size="10.00">concepts</text>
</a>
</g>
</g>
<!-- Node3&#45;&gt;Node16 -->
<g id="edge15" class="edge">
<title>Node3&#45;&gt;Node16</title>
<path fill="none" stroke="midnightblue" d="M1042.84,-56.44C1019.1,-47.48 981.59,-33.31 954.76,-23.18"/>
<polygon fill="midnightblue" stroke="midnightblue" points="955.64,-19.77 945.05,-19.52 953.17,-26.32 955.64,-19.77"/>
</g>
<!-- Node17 -->
<g id="node17" class="node">
<title>Node17</title>
<g id="a_node17"><a xlink:title=" ">
<polygon fill="none" stroke="#bfbfbf" points="968.5,-0.5 968.5,-19.5 1022.5,-19.5 1022.5,-0.5 968.5,-0.5"/>
<text text-anchor="middle" x="995.5" y="-7.5" font-family="Helvetica,sans-Serif" font-size="10.00">iostream</text>
</a>
</g>
</g>
<!-- Node3&#45;&gt;Node17 -->
<g id="edge16" class="edge">
<title>Node3&#45;&gt;Node17</title>
<path fill="none" stroke="midnightblue" d="M1054.25,-56.32C1043.7,-48.18 1027.7,-35.84 1015.06,-26.09"/>
<polygon fill="midnightblue" stroke="midnightblue" points="1017.01,-23.17 1006.95,-19.83 1012.73,-28.71 1017.01,-23.17"/>
</g>
<!-- Node18 -->
<g id="node18" class="node">
<title>Node18</title>
<g id="a_node18"><a xlink:title=" ">
<polygon fill="none" stroke="#bfbfbf" points="1041,-0.5 1041,-19.5 1090,-19.5 1090,-0.5 1041,-0.5"/>
<text text-anchor="middle" x="1065.5" y="-7.5" font-family="Helvetica,sans-Serif" font-size="10.00">fstream</text>
</a>
</g>
</g>
<!-- Node3&#45;&gt;Node18 -->
<g id="edge17" class="edge">
<title>Node3&#45;&gt;Node18</title>
<path fill="none" stroke="midnightblue" d="M1065.5,-56.08C1065.5,-49.01 1065.5,-38.86 1065.5,-29.99"/>
<polygon fill="midnightblue" stroke="midnightblue" points="1069,-29.75 1065.5,-19.75 1062,-29.75 1069,-29.75"/>
</g>
<!-- Node19 -->
<g id="node19" class="node">
<title>Node19</title>
<g id="a_node19"><a xlink:title=" ">
<polygon fill="none" stroke="#bfbfbf" points="1108,-0.5 1108,-19.5 1149,-19.5 1149,-0.5 1108,-0.5"/>
<text text-anchor="middle" x="1128.5" y="-7.5" font-family="Helvetica,sans-Serif" font-size="10.00">bitset</text>
</a>
</g>
</g>
<!-- Node3&#45;&gt;Node19 -->
<g id="edge18" class="edge">
<title>Node3&#45;&gt;Node19</title>
<path fill="none" stroke="midnightblue" d="M1075.62,-56.32C1085.03,-48.26 1099.24,-36.08 1110.57,-26.37"/>
<polygon fill="midnightblue" stroke="midnightblue" points="1112.88,-29 1118.19,-19.83 1108.32,-23.68 1112.88,-29"/>
</g>
<!-- Node20 -->
<g id="node20" class="node">
<title>Node20</title>
<g id="a_node20"><a xlink:title=" ">
<polygon fill="none" stroke="#bfbfbf" points="1167.5,-0.5 1167.5,-19.5 1219.5,-19.5 1219.5,-0.5 1167.5,-0.5"/>
<text text-anchor="middle" x="1193.5" y="-7.5" font-family="Helvetica,sans-Serif" font-size="10.00">memory</text>
</a>
</g>
</g>
<!-- Node3&#45;&gt;Node20 -->
<g id="edge19" class="edge">
<title>Node3&#45;&gt;Node20</title>
<path fill="none" stroke="midnightblue" d="M1085.78,-56.44C1106.85,-47.56 1140.02,-33.56 1163.99,-23.45"/>
<polygon fill="midnightblue" stroke="midnightblue" points="1165.46,-26.63 1173.31,-19.52 1162.74,-20.18 1165.46,-26.63"/>
</g>
<!-- Node21 -->
<g id="node21" class="node">
<title>Node21</title>
<g id="a_node21"><a xlink:title=" ">
<polygon fill="none" stroke="#bfbfbf" points="1238,-0.5 1238,-19.5 1287,-19.5 1287,-0.5 1238,-0.5"/>
<text text-anchor="middle" x="1262.5" y="-7.5" font-family="Helvetica,sans-Serif" font-size="10.00">random</text>
</a>
</g>
</g>
<!-- Node3&#45;&gt;Node21 -->
<g id="edge20" class="edge">
<title>Node3&#45;&gt;Node21</title>
<path fill="none" stroke="midnightblue" d="M1096.72,-56.44C1132.52,-46.63 1191.03,-30.59 1228.11,-20.43"/>
<polygon fill="midnightblue" stroke="midnightblue" points="1229.25,-23.74 1237.97,-17.73 1227.4,-16.99 1229.25,-23.74"/>
</g>
<!-- Node22 -->
<g id="node22" class="node">
<title>Node22</title>
<g id="a_node22"><a xlink:title=" ">
<polygon fill="none" stroke="#bfbfbf" points="1305,-0.5 1305,-19.5 1346,-19.5 1346,-0.5 1305,-0.5"/>
<text text-anchor="middle" x="1325.5" y="-7.5" font-family="Helvetica,sans-Serif" font-size="10.00">string</text>
</a>
</g>
</g>
<!-- Node3&#45;&gt;Node22 -->
<g id="edge21" class="edge">
<title>Node3&#45;&gt;Node22</title>
<path fill="none" stroke="midnightblue" d="M1117.69,-56.5C1162.54,-48.82 1229.08,-36.53 1295.23,-20.12"/>
<polygon fill="midnightblue" stroke="midnightblue" points="1296.14,-23.5 1304.98,-17.67 1294.43,-16.71 1296.14,-23.5"/>
</g>
<!-- Node23 -->
<g id="node23" class="node">
<title>Node23</title>
<g id="a_node23"><a xlink:title=" ">
<polygon fill="none" stroke="#bfbfbf" points="1364.5,-0.5 1364.5,-19.5 1406.5,-19.5 1406.5,-0.5 1364.5,-0.5"/>
<text text-anchor="middle" x="1385.5" y="-7.5" font-family="Helvetica,sans-Serif" font-size="10.00">vector</text>
</a>
</g>
</g>
<!-- Node3&#45;&gt;Node23 -->
<g id="edge22" class="edge">
<title>Node3&#45;&gt;Node23</title>
<path fill="none" stroke="midnightblue" d="M1132.51,-57.26C1189.3,-50.09 1273,-38.11 1354.38,-20"/>
<polygon fill="midnightblue" stroke="midnightblue" points="1355.31,-23.37 1364.29,-17.76 1353.77,-16.55 1355.31,-23.37"/>
</g>
<!-- Node24 -->
<g id="node24" class="node">
<title>Node24</title>
<g id="a_node24"><a xlink:title=" ">
<polygon fill="none" stroke="#bfbfbf" points="1424.5,-0.5 1424.5,-19.5 1468.5,-19.5 1468.5,-0.5 1424.5,-0.5"/>
<text text-anchor="middle" x="1446.5" y="-7.5" font-family="Helvetica,sans-Serif" font-size="10.00">thread</text>
</a>
</g>
</g>
<!-- Node3&#45;&gt;Node24 -->
<g id="edge23" class="edge">
<title>Node3&#45;&gt;Node24</title>
<path fill="none" stroke="midnightblue" d="M1132.78,-59.46C1201.42,-53.12 1311.07,-41.04 1414.29,-19.97"/>
<polygon fill="midnightblue" stroke="midnightblue" points="1415.17,-23.36 1424.25,-17.91 1413.75,-16.51 1415.17,-23.36"/>
</g>
<!-- Node25 -->
<g id="node25" class="node">
<title>Node25</title>
<g id="a_node25"><a xlink:title=" ">
<polygon fill="none" stroke="#bfbfbf" points="1486.5,-0.5 1486.5,-19.5 1530.5,-19.5 1530.5,-0.5 1486.5,-0.5"/>
<text text-anchor="middle" x="1508.5" y="-7.5" font-family="Helvetica,sans-Serif" font-size="10.00">mutex</text>
</a>
</g>
</g>
<!-- Node3&#45;&gt;Node25 -->
<g id="edge24" class="edge">
<title>Node3&#45;&gt;Node25</title>
<path fill="none" stroke="midnightblue" d="M1132.76,-61.25C1212.7,-56 1350.14,-44.42 1476.42,-19.9"/>
<polygon fill="midnightblue" stroke="midnightblue" points="1477.13,-23.33 1486.26,-17.96 1475.77,-16.46 1477.13,-23.33"/>
</g>
<!-- Node26 -->
<g id="node26" class="node">
<title>Node26</title>
<g id="a_node26"><a xlink:title=" ">
<polygon fill="none" stroke="#bfbfbf" points="1549,-0.5 1549,-19.5 1592,-19.5 1592,-0.5 1549,-0.5"/>
<text text-anchor="middle" x="1570.5" y="-7.5" font-family="Helvetica,sans-Serif" font-size="10.00">queue</text>
</a>
</g>
</g>
<!-- Node3&#45;&gt;Node26 -->
<g id="edge25" class="edge">
<title>Node3&#45;&gt;Node26</title>
<path fill="none" stroke="midnightblue" d="M1132.78,-62.59C1223.19,-58.47 1388.88,-47.82 1539.08,-19.7"/>
<polygon fill="midnightblue" stroke="midnightblue" points="1539.78,-23.13 1548.95,-17.82 1538.47,-16.25 1539.78,-23.13"/>
</g>
<!-- Node27 -->
<g id="node27" class="node">
<title>Node27</title>
<g id="a_node27"><a xlink:title=" ">
<polygon fill="none" stroke="#bfbfbf" points="1610,-0.5 1610,-19.5 1645,-19.5 1645,-0.5 1610,-0.5"/>
<text text-anchor="middle" x="1627.5" y="-7.5" font-family="Helvetica,sans-Serif" font-size="10.00">map</text>
</a>
</g>
</g>
<!-- Node3&#45;&gt;Node27 -->
<g id="edge26" class="edge">
<title>Node3&#45;&gt;Node27</title>
<path fill="none" stroke="midnightblue" d="M1132.71,-64.71C1233.06,-63.09 1427.85,-55.43 1599.78,-19.9"/>
<polygon fill="midnightblue" stroke="midnightblue" points="1600.7,-23.28 1609.76,-17.79 1599.26,-16.43 1600.7,-23.28"/>
</g>
<!-- Node28&#45;&gt;Node2 -->
<g id="edge28" class="edge">
<title>Node28&#45;&gt;Node2</title>
<path fill="none" stroke="midnightblue" d="M1182.3,-347.34C1202.91,-319.98 1260.96,-233.92 1221.5,-179 1204.29,-155.05 1175.14,-142.3 1147.09,-135.58"/>
<polygon fill="midnightblue" stroke="midnightblue" points="1147.75,-132.14 1137.23,-133.44 1146.26,-138.98 1147.75,-132.14"/>
</g>
<!-- Node29 -->
<g id="node29" class="node">
<title>Node29</title>
<g id="a_node29"><a xlink:href="../../db/d7c/a00722.html" target="_top" xlink:title=" ">
<polygon fill="none" stroke="black" points="493,-291.5 493,-310.5 618,-310.5 618,-291.5 493,-291.5"/>
<text text-anchor="middle" x="555.5" y="-298.5" font-family="Helvetica,sans-Serif" font-size="10.00">discordcoreapi/Https.hpp</text>
</a>
</g>
</g>
<!-- Node28&#45;&gt;Node29 -->
<g id="edge29" class="edge">
<title>Node28&#45;&gt;Node29</title>
<path fill="none" stroke="midnightblue" d="M1100.4,-349.46C980.42,-339.01 746.97,-318.68 628.4,-308.35"/>
<polygon fill="midnightblue" stroke="midnightblue" points="628.59,-304.85 618.33,-307.47 627.99,-311.83 628.59,-304.85"/>
</g>
<!-- Node29&#45;&gt;Node15 -->
<g id="edge46" class="edge">
<title>Node29&#45;&gt;Node15</title>
<path fill="none" stroke="midnightblue" d="M492.74,-300C352.61,-298.32 26.5,-284.27 26.5,-190 26.5,-190 26.5,-190 26.5,-126.5 26.5,-92.32 29.15,-52.52 30.93,-29.69"/>
<polygon fill="midnightblue" stroke="midnightblue" points="34.42,-29.93 31.74,-19.69 27.45,-29.37 34.42,-29.93"/>
</g>
<!-- Node30 -->
<g id="node30" class="node">
<title>Node30</title>
<g id="a_node30"><a xlink:href="../../d5/de8/a00749.html" target="_top" xlink:title=" ">
<polygon fill="none" stroke="black" points="480.5,-235.5 480.5,-254.5 630.5,-254.5 630.5,-235.5 480.5,-235.5"/>
<text text-anchor="middle" x="555.5" y="-242.5" font-family="Helvetica,sans-Serif" font-size="10.00">discordcoreapi/SSLClients.hpp</text>
</a>
</g>
</g>
<!-- Node29&#45;&gt;Node30 -->
<g id="edge30" class="edge">
<title>Node29&#45;&gt;Node30</title>
<path fill="none" stroke="midnightblue" d="M555.5,-291.08C555.5,-284.01 555.5,-273.86 555.5,-264.99"/>
<polygon fill="midnightblue" stroke="midnightblue" points="559,-264.75 555.5,-254.75 552,-264.75 559,-264.75"/>
</g>
<!-- Node30&#45;&gt;Node2 -->
<g id="edge41" class="edge">
<title>Node30&#45;&gt;Node2</title>
<path fill="none" stroke="midnightblue" d="M480.39,-244.65C333.61,-244.64 27.7,-237.73 83.5,-179 114.8,-146.06 769.5,-133.07 995.55,-129.56"/>
<polygon fill="midnightblue" stroke="midnightblue" points="995.72,-133.06 1005.66,-129.4 995.61,-126.06 995.72,-133.06"/>
</g>
<!-- Node31 -->
<g id="node31" class="node">
<title>Node31</title>
<g id="a_node31"><a xlink:title=" ">
<polygon fill="none" stroke="#bfbfbf" points="1169,-179.5 1169,-198.5 1212,-198.5 1212,-179.5 1169,-179.5"/>
<text text-anchor="middle" x="1190.5" y="-186.5" font-family="Helvetica,sans-Serif" font-size="10.00">fcntl.h</text>
</a>
</g>
</g>
<!-- Node30&#45;&gt;Node31 -->
<g id="edge31" class="edge">
<title>Node30&#45;&gt;Node31</title>
<path fill="none" stroke="midnightblue" d="M630.52,-243.41C743.43,-241.42 963.7,-233.25 1159.08,-198.65"/>
<polygon fill="midnightblue" stroke="midnightblue" points="1159.73,-202.09 1168.96,-196.88 1158.49,-195.2 1159.73,-202.09"/>
</g>
<!-- Node32 -->
<g id="node32" class="node">
<title>Node32</title>
<g id="a_node32"><a xlink:title=" ">
<polygon fill="none" stroke="#bfbfbf" points="93,-179.5 93,-198.5 142,-198.5 142,-179.5 93,-179.5"/>
<text text-anchor="middle" x="117.5" y="-186.5" font-family="Helvetica,sans-Serif" font-size="10.00">netdb.h</text>
</a>
</g>
</g>
<!-- Node30&#45;&gt;Node32 -->
<g id="edge32" class="edge">
<title>Node30&#45;&gt;Node32</title>
<path fill="none" stroke="midnightblue" d="M480.33,-239.16C400.86,-233.26 271.77,-221.41 152.32,-199.11"/>
<polygon fill="midnightblue" stroke="midnightblue" points="152.75,-195.62 142.27,-197.2 151.44,-202.5 152.75,-195.62"/>
</g>
<!-- Node33 -->
<g id="node33" class="node">
<title>Node33</title>
<g id="a_node33"><a xlink:title=" ">
<polygon fill="none" stroke="#bfbfbf" points="160,-179.5 160,-198.5 225,-198.5 225,-179.5 160,-179.5"/>
<text text-anchor="middle" x="192.5" y="-186.5" font-family="Helvetica,sans-Serif" font-size="10.00">netinet/in.h</text>
</a>
</g>
</g>
<!-- Node30&#45;&gt;Node33 -->
<g id="edge33" class="edge">
<title>Node30&#45;&gt;Node33</title>
<path fill="none" stroke="midnightblue" d="M482.99,-235.49C419.86,-227.71 325.69,-215.21 235.02,-199.17"/>
<polygon fill="midnightblue" stroke="midnightblue" points="235.59,-195.71 225.13,-197.4 234.36,-202.6 235.59,-195.71"/>
</g>
<!-- Node34 -->
<g id="node34" class="node">
<title>Node34</title>
<g id="a_node34"><a xlink:title=" ">
<polygon fill="none" stroke="#bfbfbf" points="243,-179.5 243,-198.5 314,-198.5 314,-179.5 243,-179.5"/>
<text text-anchor="middle" x="278.5" y="-186.5" font-family="Helvetica,sans-Serif" font-size="10.00">netinet/tcp.h</text>
</a>
</g>
</g>
<!-- Node30&#45;&gt;Node34 -->
<g id="edge34" class="edge">
<title>Node30&#45;&gt;Node34</title>
<path fill="none" stroke="midnightblue" d="M510.37,-235.44C465.52,-226.89 394.5,-213.27 323.98,-199.28"/>
<polygon fill="midnightblue" stroke="midnightblue" points="324.53,-195.82 314.03,-197.3 323.16,-202.69 324.53,-195.82"/>
</g>
<!-- Node35 -->
<g id="node35" class="node">
<title>Node35</title>
<g id="a_node35"><a xlink:title=" ">
<polygon fill="none" stroke="#bfbfbf" points="332,-179.5 332,-198.5 381,-198.5 381,-179.5 332,-179.5"/>
<text text-anchor="middle" x="356.5" y="-186.5" font-family="Helvetica,sans-Serif" font-size="10.00">stdint.h</text>
</a>
</g>
</g>
<!-- Node30&#45;&gt;Node35 -->
<g id="edge35" class="edge">
<title>Node30&#45;&gt;Node35</title>
<path fill="none" stroke="midnightblue" d="M523.97,-235.44C487.8,-225.63 428.69,-209.59 391.24,-199.43"/>
<polygon fill="midnightblue" stroke="midnightblue" points="391.85,-195.97 381.28,-196.73 390.02,-202.72 391.85,-195.97"/>
</g>
<!-- Node36 -->
<g id="node36" class="node">
<title>Node36</title>
<g id="a_node36"><a xlink:title=" ">
<polygon fill="none" stroke="#bfbfbf" points="399.5,-179.5 399.5,-198.5 463.5,-198.5 463.5,-179.5 399.5,-179.5"/>
<text text-anchor="middle" x="431.5" y="-186.5" font-family="Helvetica,sans-Serif" font-size="10.00">sys/epoll.h</text>
</a>
</g>
</g>
<!-- Node30&#45;&gt;Node36 -->
<g id="edge36" class="edge">
<title>Node30&#45;&gt;Node36</title>
<path fill="none" stroke="midnightblue" d="M535.85,-235.44C515.54,-226.6 483.6,-212.69 460.4,-202.59"/>
<polygon fill="midnightblue" stroke="midnightblue" points="461.62,-199.3 451.06,-198.52 458.83,-205.72 461.62,-199.3"/>
</g>
<!-- Node37 -->
<g id="node37" class="node">
<title>Node37</title>
<g id="a_node37"><a xlink:title=" ">
<polygon fill="none" stroke="#bfbfbf" points="481.5,-179.5 481.5,-198.5 543.5,-198.5 543.5,-179.5 481.5,-179.5"/>
<text text-anchor="middle" x="512.5" y="-186.5" font-family="Helvetica,sans-Serif" font-size="10.00">arpa/inet.h</text>
</a>
</g>
</g>
<!-- Node30&#45;&gt;Node37 -->
<g id="edge37" class="edge">
<title>Node30&#45;&gt;Node37</title>
<path fill="none" stroke="midnightblue" d="M548.4,-235.08C542.26,-227.38 533.23,-216.03 525.76,-206.65"/>
<polygon fill="midnightblue" stroke="midnightblue" points="528.44,-204.39 519.47,-198.75 522.96,-208.75 528.44,-204.39"/>
</g>
<!-- Node38 -->
<g id="node38" class="node">
<title>Node38</title>
<g id="a_node38"><a xlink:title=" ">
<polygon fill="none" stroke="#bfbfbf" points="562,-179.5 562,-198.5 635,-198.5 635,-179.5 562,-179.5"/>
<text text-anchor="middle" x="598.5" y="-186.5" font-family="Helvetica,sans-Serif" font-size="10.00">sys/socket.h</text>
</a>
</g>
</g>
<!-- Node30&#45;&gt;Node38 -->
<g id="edge38" class="edge">
<title>Node30&#45;&gt;Node38</title>
<path fill="none" stroke="midnightblue" d="M562.6,-235.08C568.74,-227.38 577.77,-216.03 585.24,-206.65"/>
<polygon fill="midnightblue" stroke="midnightblue" points="588.04,-208.75 591.53,-198.75 582.56,-204.39 588.04,-208.75"/>
</g>
<!-- Node39 -->
<g id="node39" class="node">
<title>Node39</title>
<g id="a_node39"><a xlink:title=" ">
<polygon fill="none" stroke="#bfbfbf" points="653.5,-179.5 653.5,-198.5 721.5,-198.5 721.5,-179.5 653.5,-179.5"/>
<text text-anchor="middle" x="687.5" y="-186.5" font-family="Helvetica,sans-Serif" font-size="10.00">sys/types.h</text>
</a>
</g>
</g>
<!-- Node30&#45;&gt;Node39 -->
<g id="edge39" class="edge">
<title>Node30&#45;&gt;Node39</title>
<path fill="none" stroke="midnightblue" d="M576.42,-235.44C598.24,-226.52 632.65,-212.44 657.39,-202.32"/>
<polygon fill="midnightblue" stroke="midnightblue" points="658.75,-205.54 666.68,-198.52 656.1,-199.06 658.75,-205.54"/>
</g>
<!-- Node40 -->
<g id="node40" class="node">
<title>Node40</title>
<g id="a_node40"><a xlink:title=" ">
<polygon fill="none" stroke="#bfbfbf" points="740,-179.5 740,-198.5 791,-198.5 791,-179.5 740,-179.5"/>
<text text-anchor="middle" x="765.5" y="-186.5" font-family="Helvetica,sans-Serif" font-size="10.00">unistd.h</text>
</a>
</g>
</g>
<!-- Node30&#45;&gt;Node40 -->
<g id="edge40" class="edge">
<title>Node30&#45;&gt;Node40</title>
<path fill="none" stroke="midnightblue" d="M588.78,-235.44C627.4,-225.51 690.81,-209.21 730.25,-199.06"/>
<polygon fill="midnightblue" stroke="midnightblue" points="731.16,-202.44 739.98,-196.56 729.42,-195.66 731.16,-202.44"/>
</g>
<!-- Node41 -->
<g id="node41" class="node">
<title>Node41</title>
<g id="a_node41"><a xlink:href="../../d4/d6a/a00704.html" target="_top" xlink:title=" ">
<polygon fill="none" stroke="black" points="992.5,-179.5 992.5,-198.5 1150.5,-198.5 1150.5,-179.5 992.5,-179.5"/>
<text text-anchor="middle" x="1071.5" y="-186.5" font-family="Helvetica,sans-Serif" font-size="10.00">discordcoreapi/EventEntities.hpp</text>
</a>
</g>
</g>
<!-- Node30&#45;&gt;Node41 -->
<g id="edge42" class="edge">
<title>Node30&#45;&gt;Node41</title>
<path fill="none" stroke="midnightblue" d="M630.53,-236.15C723.76,-226.39 882.67,-209.76 982.11,-199.35"/>
<polygon fill="midnightblue" stroke="midnightblue" points="982.56,-202.83 992.14,-198.31 981.83,-195.87 982.56,-202.83"/>
</g>
<!-- Node42 -->
<g id="node42" class="node">
<title>Node42</title>
<g id="a_node42"><a xlink:title=" ">
<polygon fill="none" stroke="#bfbfbf" points="809,-179.5 809,-198.5 882,-198.5 882,-179.5 809,-179.5"/>
<text text-anchor="middle" x="845.5" y="-186.5" font-family="Helvetica,sans-Serif" font-size="10.00">openssl/err.h</text>
</a>
</g>
</g>
<!-- Node30&#45;&gt;Node42 -->
<g id="edge44" class="edge">
<title>Node30&#45;&gt;Node42</title>
<path fill="none" stroke="midnightblue" d="M602.76,-235.44C649.82,-226.88 724.4,-213.22 798.83,-199.11"/>
<polygon fill="midnightblue" stroke="midnightblue" points="799.68,-202.51 808.85,-197.21 798.37,-195.64 799.68,-202.51"/>
</g>
<!-- Node43 -->
<g id="node43" class="node">
<title>Node43</title>
<g id="a_node43"><a xlink:title=" ">
<polygon fill="none" stroke="#bfbfbf" points="900.5,-179.5 900.5,-198.5 974.5,-198.5 974.5,-179.5 900.5,-179.5"/>
<text text-anchor="middle" x="937.5" y="-186.5" font-family="Helvetica,sans-Serif" font-size="10.00">openssl/ssl.h</text>
</a>
</g>
</g>
<!-- Node30&#45;&gt;Node43 -->
<g id="edge45" class="edge">
<title>Node30&#45;&gt;Node43</title>
<path fill="none" stroke="midnightblue" d="M627.55,-235.5C693.26,-227.48 793.24,-214.6 890.34,-198.94"/>
<polygon fill="midnightblue" stroke="midnightblue" points="891.02,-202.37 900.33,-197.31 889.9,-195.46 891.02,-202.37"/>
</g>
<!-- Node41&#45;&gt;Node2 -->
<g id="edge43" class="edge">
<title>Node41&#45;&gt;Node2</title>
<path fill="none" stroke="midnightblue" d="M1071.5,-179.48C1071.5,-172.47 1071.5,-162.19 1071.5,-152.7"/>
<polygon fill="midnightblue" stroke="midnightblue" points="1075,-152.52 1071.5,-142.52 1068,-152.52 1075,-152.52"/>
</g>
</g>
</svg>
