<?xml version="1.0" encoding="UTF-8" standalone="no"?>
<!DOCTYPE svg PUBLIC "-//W3C//DTD SVG 1.1//EN"
 "http://www.w3.org/Graphics/SVG/1.1/DTD/svg11.dtd">
<!-- Generated by graphviz version 2.43.0 (0)
 -->
<!-- Title: InputEvents.hpp Pages: 1 -->
<svg width="1487pt" height="192pt"
 viewBox="0.00 0.00 1486.50 192.00" xmlns="http://www.w3.org/2000/svg" xmlns:xlink="http://www.w3.org/1999/xlink">
<g id="graph0" class="graph" transform="scale(1 1) rotate(0) translate(4 188)">
<title>InputEvents.hpp</title>
<!-- Node1 -->
<g id="node1" class="node">
<title>Node1</title>
<g id="a_node1"><a xlink:title=" ">
<polygon fill="#bfbfbf" stroke="black" points="942,-184 847,-184 847,-165 942,-165 942,-184"/>
<text text-anchor="middle" x="894.5" y="-172" font-family="Helvetica,sans-Serif" font-size="10.00">InputEvents.hpp</text>
</a>
</g>
</g>
<!-- Node2 -->
<g id="node2" class="node">
<title>Node2</title>
<g id="a_node2"><a xlink:href="../../dc/d17/a00872.html" target="_top" xlink:title=" ">
<polygon fill="none" stroke="black" points="668.5,-129 526.5,-129 526.5,-110 668.5,-110 668.5,-129"/>
<text text-anchor="middle" x="597.5" y="-117" font-family="Helvetica,sans-Serif" font-size="10.00">DataParsingFunctions.cpp</text>
</a>
</g>
</g>
<!-- Node1&#45;&gt;Node2 -->
<g id="edge1" class="edge">
<title>Node1&#45;&gt;Node2</title>
<path fill="none" stroke="midnightblue" d="M836.72,-163.19C781.04,-153.25 697.76,-138.39 645.59,-129.08"/>
<polygon fill="midnightblue" stroke="midnightblue" points="836.32,-166.67 846.78,-164.98 837.55,-159.78 836.32,-166.67"/>
</g>
<!-- Node3 -->
<g id="node3" class="node">
<title>Node3</title>
<g id="a_node3"><a xlink:href="../../d9/dd4/a00776.html" target="_top" xlink:title=" ">
<polygon fill="none" stroke="black" points="812,-129 687,-129 687,-110 812,-110 812,-129"/>
<text text-anchor="middle" x="749.5" y="-117" font-family="Helvetica,sans-Serif" font-size="10.00">DiscordCoreClient.hpp</text>
</a>
</g>
</g>
<!-- Node1&#45;&gt;Node3 -->
<g id="edge2" class="edge">
<title>Node1&#45;&gt;Node3</title>
<path fill="none" stroke="midnightblue" d="M861.81,-161.55C834.88,-151.71 797.34,-137.98 773.22,-129.17"/>
<polygon fill="midnightblue" stroke="midnightblue" points="860.61,-164.84 871.2,-164.98 863.01,-158.26 860.61,-164.84"/>
</g>
<!-- Node17 -->
<g id="node17" class="node">
<title>Node17</title>
<g id="a_node17"><a xlink:href="../../da/db8/a00797.html" target="_top" xlink:title=" ">
<polygon fill="none" stroke="black" points="958.5,-129 830.5,-129 830.5,-110 958.5,-110 958.5,-129"/>
<text text-anchor="middle" x="894.5" y="-117" font-family="Helvetica,sans-Serif" font-size="10.00">FoundationEntities.cpp</text>
</a>
</g>
</g>
<!-- Node1&#45;&gt;Node17 -->
<g id="edge16" class="edge">
<title>Node1&#45;&gt;Node17</title>
<path fill="none" stroke="midnightblue" d="M894.5,-154.66C894.5,-145.93 894.5,-135.99 894.5,-129.09"/>
<polygon fill="midnightblue" stroke="midnightblue" points="891,-154.75 894.5,-164.75 898,-154.75 891,-154.75"/>
</g>
<!-- Node18 -->
<g id="node18" class="node">
<title>Node18</title>
<g id="a_node18"><a xlink:href="../../d6/d8b/a00821.html" target="_top" xlink:title=" ">
<polygon fill="none" stroke="black" points="1072,-129 977,-129 977,-110 1072,-110 1072,-129"/>
<text text-anchor="middle" x="1024.5" y="-117" font-family="Helvetica,sans-Serif" font-size="10.00">InputEvents.cpp</text>
</a>
</g>
</g>
<!-- Node1&#45;&gt;Node18 -->
<g id="edge17" class="edge">
<title>Node1&#45;&gt;Node18</title>
<path fill="none" stroke="midnightblue" d="M924.77,-161.16C948.84,-151.35 981.9,-137.87 1003.23,-129.17"/>
<polygon fill="midnightblue" stroke="midnightblue" points="923.33,-157.97 915.39,-164.98 925.97,-164.45 923.33,-157.97"/>
</g>
<!-- Node19 -->
<g id="node19" class="node">
<title>Node19</title>
<g id="a_node19"><a xlink:href="../../d8/d2d/a00815.html" target="_top" xlink:title=" ">
<polygon fill="none" stroke="black" points="1165,-129 1090,-129 1090,-110 1165,-110 1165,-129"/>
<text text-anchor="middle" x="1127.5" y="-117" font-family="Helvetica,sans-Serif" font-size="10.00">Utilities.cpp</text>
</a>
</g>
</g>
<!-- Node1&#45;&gt;Node19 -->
<g id="edge18" class="edge">
<title>Node1&#45;&gt;Node19</title>
<path fill="none" stroke="midnightblue" d="M941.75,-162.75C985.41,-152.82 1049.44,-138.26 1089.77,-129.08"/>
<polygon fill="midnightblue" stroke="midnightblue" points="940.91,-159.35 931.94,-164.98 942.46,-166.18 940.91,-159.35"/>
</g>
<!-- Node4 -->
<g id="node4" class="node">
<title>Node4</title>
<g id="a_node4"><a xlink:href="../../d2/d5e/a00860.html" target="_top" xlink:title=" ">
<polygon fill="none" stroke="black" points="179,-74 0,-74 0,-55 179,-55 179,-74"/>
<text text-anchor="middle" x="89.5" y="-62" font-family="Helvetica,sans-Serif" font-size="10.00">ApplicationCommandEntities.cpp</text>
</a>
</g>
</g>
<!-- Node3&#45;&gt;Node4 -->
<g id="edge3" class="edge">
<title>Node3&#45;&gt;Node4</title>
<path fill="none" stroke="midnightblue" d="M676.54,-109.95C458.87,-89.28 402.44,-91.06 188.5,-74 185.4,-73.75 182.26,-73.5 179.07,-73.24"/>
<polygon fill="midnightblue" stroke="midnightblue" points="676.4,-113.45 686.69,-110.92 677.07,-106.49 676.4,-113.45"/>
</g>
<!-- Node5 -->
<g id="node5" class="node">
<title>Node5</title>
<g id="a_node5"><a xlink:href="../../d0/d11/a00842.html" target="_top" xlink:title=" ">
<polygon fill="none" stroke="black" points="322,-74 197,-74 197,-55 322,-55 322,-74"/>
<text text-anchor="middle" x="259.5" y="-62" font-family="Helvetica,sans-Serif" font-size="10.00">DiscordCoreClient.cpp</text>
</a>
</g>
</g>
<!-- Node3&#45;&gt;Node5 -->
<g id="edge4" class="edge">
<title>Node3&#45;&gt;Node5</title>
<path fill="none" stroke="midnightblue" d="M676.35,-109.89C522.12,-92.85 481.86,-90.7 331.5,-74 328.5,-73.67 325.43,-73.32 322.32,-72.97"/>
<polygon fill="midnightblue" stroke="midnightblue" points="676.35,-113.41 686.68,-111.03 677.12,-106.45 676.35,-113.41"/>
</g>
<!-- Node6 -->
<g id="node6" class="node">
<title>Node6</title>
<g id="a_node6"><a xlink:href="../../df/d41/a00881.html" target="_top" xlink:title=" ">
<polygon fill="none" stroke="black" points="447,-74 340,-74 340,-55 447,-55 447,-74"/>
<text text-anchor="middle" x="393.5" y="-62" font-family="Helvetica,sans-Serif" font-size="10.00">EventManager.cpp</text>
</a>
</g>
</g>
<!-- Node3&#45;&gt;Node6 -->
<g id="edge5" class="edge">
<title>Node3&#45;&gt;Node6</title>
<path fill="none" stroke="midnightblue" d="M682.09,-108.46C613.9,-98.31 509.83,-82.82 447.06,-73.47"/>
<polygon fill="midnightblue" stroke="midnightblue" points="681.9,-111.97 692.3,-109.98 682.93,-105.05 681.9,-111.97"/>
</g>
<!-- Node7 -->
<g id="node7" class="node">
<title>Node7</title>
<g id="a_node7"><a xlink:href="../../d5/d69/a00878.html" target="_top" xlink:title=" ">
<polygon fill="none" stroke="black" points="564,-74 465,-74 465,-55 564,-55 564,-74"/>
<text text-anchor="middle" x="514.5" y="-62" font-family="Helvetica,sans-Serif" font-size="10.00">GuildEntities.cpp</text>
</a>
</g>
</g>
<!-- Node3&#45;&gt;Node7 -->
<g id="edge6" class="edge">
<title>Node3&#45;&gt;Node7</title>
<path fill="none" stroke="midnightblue" d="M701.85,-107.75C657.81,-97.82 593.23,-83.26 552.55,-74.08"/>
<polygon fill="midnightblue" stroke="midnightblue" points="701.22,-111.2 711.74,-109.98 702.76,-104.37 701.22,-111.2"/>
</g>
<!-- Node8 -->
<g id="node8" class="node">
<title>Node8</title>
<g id="a_node8"><a xlink:href="../../d5/d12/a00794.html" target="_top" xlink:title=" ">
<polygon fill="none" stroke="black" points="645,-74 582,-74 582,-55 645,-55 645,-74"/>
<text text-anchor="middle" x="613.5" y="-62" font-family="Helvetica,sans-Serif" font-size="10.00">Https.cpp</text>
</a>
</g>
</g>
<!-- Node3&#45;&gt;Node8 -->
<g id="edge7" class="edge">
<title>Node3&#45;&gt;Node8</title>
<path fill="none" stroke="midnightblue" d="M718.17,-106.29C692.96,-96.47 658.17,-82.91 635.75,-74.17"/>
<polygon fill="midnightblue" stroke="midnightblue" points="717.06,-109.61 727.65,-109.98 719.6,-103.09 717.06,-109.61"/>
</g>
<!-- Node9 -->
<g id="node9" class="node">
<title>Node9</title>
<g id="a_node9"><a xlink:href="../../d5/de8/a00749.html" target="_top" xlink:title=" ">
<polygon fill="none" stroke="black" points="728,-74 663,-74 663,-55 728,-55 728,-74"/>
<text text-anchor="middle" x="695.5" y="-62" font-family="Helvetica,sans-Serif" font-size="10.00">Index.hpp</text>
</a>
</g>
</g>
<!-- Node3&#45;&gt;Node9 -->
<g id="edge8" class="edge">
<title>Node3&#45;&gt;Node9</title>
<path fill="none" stroke="midnightblue" d="M733.22,-102.52C723.7,-93.18 712.06,-81.75 704.25,-74.09"/>
<polygon fill="midnightblue" stroke="midnightblue" points="730.99,-105.24 740.58,-109.75 735.9,-100.25 730.99,-105.24"/>
</g>
<!-- Node11 -->
<g id="node11" class="node">
<title>Node11</title>
<g id="a_node11"><a xlink:href="../../d3/db2/a00869.html" target="_top" xlink:title=" ">
<polygon fill="none" stroke="black" points="863,-74 746,-74 746,-55 863,-55 863,-74"/>
<text text-anchor="middle" x="804.5" y="-62" font-family="Helvetica,sans-Serif" font-size="10.00">MessageEntities.cpp</text>
</a>
</g>
</g>
<!-- Node3&#45;&gt;Node11 -->
<g id="edge10" class="edge">
<title>Node3&#45;&gt;Node11</title>
<path fill="none" stroke="midnightblue" d="M765.79,-102.8C775.54,-93.41 787.55,-81.83 795.59,-74.09"/>
<polygon fill="midnightblue" stroke="midnightblue" points="763.35,-100.29 758.58,-109.75 768.21,-105.33 763.35,-100.29"/>
</g>
<!-- Node12 -->
<g id="node12" class="node">
<title>Node12</title>
<g id="a_node12"><a xlink:href="../../d8/db7/a00812.html" target="_top" xlink:title=" ">
<polygon fill="none" stroke="black" points="958,-74 881,-74 881,-55 958,-55 958,-74"/>
<text text-anchor="middle" x="919.5" y="-62" font-family="Helvetica,sans-Serif" font-size="10.00">SongAPI.cpp</text>
</a>
</g>
</g>
<!-- Node3&#45;&gt;Node12 -->
<g id="edge11" class="edge">
<title>Node3&#45;&gt;Node12</title>
<path fill="none" stroke="midnightblue" d="M786.62,-106.93C818.37,-97.03 863.35,-83.01 891.97,-74.08"/>
<polygon fill="midnightblue" stroke="midnightblue" points="785.32,-103.67 776.81,-109.98 787.4,-110.35 785.32,-103.67"/>
</g>
<!-- Node13 -->
<g id="node13" class="node">
<title>Node13</title>
<g id="a_node13"><a xlink:href="../../d7/d49/a00863.html" target="_top" xlink:title=" ">
<polygon fill="none" stroke="black" points="1086.5,-74 976.5,-74 976.5,-55 1086.5,-55 1086.5,-74"/>
<text text-anchor="middle" x="1031.5" y="-62" font-family="Helvetica,sans-Serif" font-size="10.00">SoundCloudAPI.cpp</text>
</a>
</g>
</g>
<!-- Node3&#45;&gt;Node13 -->
<g id="edge12" class="edge">
<title>Node3&#45;&gt;Node13</title>
<path fill="none" stroke="midnightblue" d="M804.69,-108.13C857.56,-98.19 936.4,-83.37 985.84,-74.08"/>
<polygon fill="midnightblue" stroke="midnightblue" points="803.99,-104.7 794.81,-109.98 805.28,-111.58 803.99,-104.7"/>
</g>
<!-- Node14 -->
<g id="node14" class="node">
<title>Node14</title>
<g id="a_node14"><a xlink:href="../../d1/d93/a00875.html" target="_top" xlink:title=" ">
<polygon fill="none" stroke="black" points="1222.5,-74 1104.5,-74 1104.5,-55 1222.5,-55 1222.5,-74"/>
<text text-anchor="middle" x="1163.5" y="-62" font-family="Helvetica,sans-Serif" font-size="10.00">VoiceConnection.cpp</text>
</a>
</g>
</g>
<!-- Node3&#45;&gt;Node14 -->
<g id="edge13" class="edge">
<title>Node3&#45;&gt;Node14</title>
<path fill="none" stroke="midnightblue" d="M822.41,-109.17C902.66,-98.89 1030.12,-82.58 1104.4,-73.07"/>
<polygon fill="midnightblue" stroke="midnightblue" points="821.85,-105.71 812.38,-110.45 822.74,-112.65 821.85,-105.71"/>
</g>
<!-- Node15 -->
<g id="node15" class="node">
<title>Node15</title>
<g id="a_node15"><a xlink:href="../../d9/daf/a00830.html" target="_top" xlink:title=" ">
<polygon fill="none" stroke="black" points="1368,-74 1241,-74 1241,-55 1368,-55 1368,-74"/>
<text text-anchor="middle" x="1304.5" y="-62" font-family="Helvetica,sans-Serif" font-size="10.00">WebSocketEntities.cpp</text>
</a>
</g>
</g>
<!-- Node3&#45;&gt;Node15 -->
<g id="edge14" class="edge">
<title>Node3&#45;&gt;Node15</title>
<path fill="none" stroke="midnightblue" d="M822.54,-109.92C1005.17,-91.32 1052.81,-92.24 1231.5,-74 1234.55,-73.69 1237.66,-73.36 1240.81,-73.02"/>
<polygon fill="midnightblue" stroke="midnightblue" points="821.91,-106.47 812.32,-110.97 822.62,-113.43 821.91,-106.47"/>
</g>
<!-- Node16 -->
<g id="node16" class="node">
<title>Node16</title>
<g id="a_node16"><a xlink:href="../../d4/d45/a00791.html" target="_top" xlink:title=" ">
<polygon fill="none" stroke="black" points="1478.5,-74 1386.5,-74 1386.5,-55 1478.5,-55 1478.5,-74"/>
<text text-anchor="middle" x="1432.5" y="-62" font-family="Helvetica,sans-Serif" font-size="10.00">YouTubeAPI.cpp</text>
</a>
</g>
</g>
<!-- Node3&#45;&gt;Node16 -->
<g id="edge15" class="edge">
<title>Node3&#45;&gt;Node16</title>
<path fill="none" stroke="midnightblue" d="M822.33,-109.98C1069.8,-87.82 1134.59,-100.58 1377.5,-74 1380.38,-73.68 1383.34,-73.33 1386.33,-72.94"/>
<polygon fill="midnightblue" stroke="midnightblue" points="821.95,-106.5 812.31,-110.89 822.58,-113.47 821.95,-106.5"/>
</g>
<!-- Node10 -->
<g id="node10" class="node">
<title>Node10</title>
<g id="a_node10"><a xlink:href="../../da/d96/a00782.html" target="_top" xlink:title=" ">
<polygon fill="none" stroke="black" points="732.5,-19 658.5,-19 658.5,0 732.5,0 732.5,-19"/>
<text text-anchor="middle" x="695.5" y="-7" font-family="Helvetica,sans-Serif" font-size="10.00">DllMain.cpp</text>
</a>
</g>
</g>
<!-- Node9&#45;&gt;Node10 -->
<g id="edge9" class="edge">
<title>Node9&#45;&gt;Node10</title>
<path fill="none" stroke="midnightblue" d="M695.5,-44.66C695.5,-35.93 695.5,-25.99 695.5,-19.09"/>
<polygon fill="midnightblue" stroke="midnightblue" points="692,-44.75 695.5,-54.75 699,-44.75 692,-44.75"/>
</g>
</g>
</svg>
