<?xml version="1.0" encoding="UTF-8" standalone="no"?>
<!DOCTYPE svg PUBLIC "-//W3C//DTD SVG 1.1//EN"
 "http://www.w3.org/Graphics/SVG/1.1/DTD/svg11.dtd">
<!-- Generated by graphviz version 3.0.0 (20220226.1711)
 -->
<!-- Title: GuildScheduledEventEntities.cpp Pages: 1 -->
<svg width="1892pt" height="554pt"
 viewBox="0.00 0.00 1892.09 554.00" xmlns="http://www.w3.org/2000/svg" xmlns:xlink="http://www.w3.org/1999/xlink">
<g id="graph0" class="graph" transform="scale(1 1) rotate(0) translate(4 550)">
<title>GuildScheduledEventEntities.cpp</title>
<!-- Node1 -->
<g id="node1" class="node">
<title>Node1</title>
<g id="a_node1"><a xlink:title=" ">
<polygon fill="#bfbfbf" stroke="black" points="1039.09,-526.5 1039.09,-545.5 1200.09,-545.5 1200.09,-526.5 1039.09,-526.5"/>
<text text-anchor="middle" x="1119.59" y="-533.5" font-family="Helvetica,sans-Serif" font-size="10.00">GuildScheduledEventEntities.cpp</text>
</a>
</g>
</g>
<!-- Node2 -->
<g id="node2" class="node">
<title>Node2</title>
<g id="a_node2"><a xlink:href="../../dd/dd8/a00719.html" target="_top" xlink:title=" ">
<polygon fill="none" stroke="black" points="1135.09,-459.5 1135.09,-489.5 1286.09,-489.5 1286.09,-459.5 1135.09,-459.5"/>
<text text-anchor="start" x="1143.09" y="-477.5" font-family="Helvetica,sans-Serif" font-size="10.00">discordcoreapi/GuildScheduled</text>
<text text-anchor="middle" x="1210.59" y="-466.5" font-family="Helvetica,sans-Serif" font-size="10.00">EventEntities.hpp</text>
</a>
</g>
</g>
<!-- Node1&#45;&gt;Node2 -->
<g id="edge1" class="edge">
<title>Node1&#45;&gt;Node2</title>
<path fill="none" stroke="midnightblue" d="M1132.62,-526.48C1145.06,-518.34 1164.26,-505.79 1180.49,-495.18"/>
<polygon fill="midnightblue" stroke="midnightblue" points="1182.69,-497.92 1189.14,-489.52 1178.85,-492.07 1182.69,-497.92"/>
</g>
<!-- Node30 -->
<g id="node30" class="node">
<title>Node30</title>
<g id="a_node30"><a xlink:href="../../db/d7c/a00722.html" target="_top" xlink:title=" ">
<polygon fill="none" stroke="black" points="967.09,-291.5 967.09,-310.5 1092.09,-310.5 1092.09,-291.5 967.09,-291.5"/>
<text text-anchor="middle" x="1029.59" y="-298.5" font-family="Helvetica,sans-Serif" font-size="10.00">discordcoreapi/Https.hpp</text>
</a>
</g>
</g>
<!-- Node1&#45;&gt;Node30 -->
<g id="edge50" class="edge">
<title>Node1&#45;&gt;Node30</title>
<path fill="none" stroke="midnightblue" d="M1115.53,-526.4C1104.06,-501.87 1070.79,-429.34 1048.59,-367 1043.04,-351.42 1037.85,-333.35 1034.31,-320.22"/>
<polygon fill="midnightblue" stroke="midnightblue" points="1037.68,-319.29 1031.74,-310.51 1030.91,-321.08 1037.68,-319.29"/>
</g>
<!-- Node3 -->
<g id="node3" class="node">
<title>Node3</title>
<g id="a_node3"><a xlink:href="../../d4/deb/a00710.html" target="_top" xlink:title=" ">
<polygon fill="none" stroke="black" points="1096.09,-112.5 1096.09,-142.5 1227.09,-142.5 1227.09,-112.5 1096.09,-112.5"/>
<text text-anchor="start" x="1104.09" y="-130.5" font-family="Helvetica,sans-Serif" font-size="10.00">discordcoreapi/Foundation</text>
<text text-anchor="middle" x="1161.59" y="-119.5" font-family="Helvetica,sans-Serif" font-size="10.00">Entities.hpp</text>
</a>
</g>
</g>
<!-- Node2&#45;&gt;Node3 -->
<g id="edge2" class="edge">
<title>Node2&#45;&gt;Node3</title>
<path fill="none" stroke="midnightblue" d="M1245.12,-459.39C1261.64,-451.05 1280.42,-438.95 1292.59,-423 1310.84,-399.07 1311.59,-388.1 1311.59,-358 1311.59,-358 1311.59,-358 1311.59,-244 1311.59,-194.8 1260.31,-163.65 1217.71,-146.26"/>
<polygon fill="midnightblue" stroke="midnightblue" points="1218.81,-142.93 1208.23,-142.55 1216.26,-149.45 1218.81,-142.93"/>
</g>
<!-- Node28 -->
<g id="node28" class="node">
<title>Node28</title>
<g id="a_node28"><a xlink:href="../../d5/d5b/a00695.html" target="_top" xlink:title=" ">
<polygon fill="none" stroke="black" points="1137.59,-403.5 1137.59,-422.5 1283.59,-422.5 1283.59,-403.5 1137.59,-403.5"/>
<text text-anchor="middle" x="1210.59" y="-410.5" font-family="Helvetica,sans-Serif" font-size="10.00">discordcoreapi/CoRoutine.hpp</text>
</a>
</g>
</g>
<!-- Node2&#45;&gt;Node28 -->
<g id="edge27" class="edge">
<title>Node2&#45;&gt;Node28</title>
<path fill="none" stroke="midnightblue" d="M1210.59,-459.4C1210.59,-451.47 1210.59,-441.46 1210.59,-432.86"/>
<polygon fill="midnightblue" stroke="midnightblue" points="1214.09,-432.66 1210.59,-422.66 1207.09,-432.66 1214.09,-432.66"/>
</g>
<!-- Node4 -->
<g id="node4" class="node">
<title>Node4</title>
<g id="a_node4"><a xlink:href="../../d5/dae/a00767.html" target="_top" xlink:title=" ">
<polygon fill="none" stroke="black" points="1094.59,-56.5 1094.59,-75.5 1228.59,-75.5 1228.59,-56.5 1094.59,-56.5"/>
<text text-anchor="middle" x="1161.59" y="-63.5" font-family="Helvetica,sans-Serif" font-size="10.00">discordcoreapi/Utilities.hpp</text>
</a>
</g>
</g>
<!-- Node3&#45;&gt;Node4 -->
<g id="edge3" class="edge">
<title>Node3&#45;&gt;Node4</title>
<path fill="none" stroke="midnightblue" d="M1161.59,-112.4C1161.59,-104.47 1161.59,-94.46 1161.59,-85.86"/>
<polygon fill="midnightblue" stroke="midnightblue" points="1165.09,-85.66 1161.59,-75.66 1158.09,-85.66 1165.09,-85.66"/>
</g>
<!-- Node5 -->
<g id="node5" class="node">
<title>Node5</title>
<g id="a_node5"><a xlink:title=" ">
<polygon fill="none" stroke="#bfbfbf" points="168.09,-0.5 168.09,-19.5 225.09,-19.5 225.09,-0.5 168.09,-0.5"/>
<text text-anchor="middle" x="196.59" y="-7.5" font-family="Helvetica,sans-Serif" font-size="10.00">pthread.h</text>
</a>
</g>
</g>
<!-- Node4&#45;&gt;Node5 -->
<g id="edge4" class="edge">
<title>Node4&#45;&gt;Node5</title>
<path fill="none" stroke="midnightblue" d="M1094.53,-63.35C914.02,-58.65 419.61,-44.07 235.23,-19.74"/>
<polygon fill="midnightblue" stroke="midnightblue" points="235.5,-16.24 225.11,-18.35 234.54,-23.18 235.5,-16.24"/>
</g>
<!-- Node6 -->
<g id="node6" class="node">
<title>Node6</title>
<g id="a_node6"><a xlink:title=" ">
<polygon fill="none" stroke="#bfbfbf" points="243.59,-0.5 243.59,-19.5 305.59,-19.5 305.59,-0.5 243.59,-0.5"/>
<text text-anchor="middle" x="274.59" y="-7.5" font-family="Helvetica,sans-Serif" font-size="10.00">sys/time.h</text>
</a>
</g>
</g>
<!-- Node4&#45;&gt;Node6 -->
<g id="edge5" class="edge">
<title>Node4&#45;&gt;Node6</title>
<path fill="none" stroke="midnightblue" d="M1094.52,-65.26C952.43,-64.97 610.66,-59.92 315.96,-19.95"/>
<polygon fill="midnightblue" stroke="midnightblue" points="316.32,-16.47 305.94,-18.58 315.37,-23.4 316.32,-16.47"/>
</g>
<!-- Node7 -->
<g id="node7" class="node">
<title>Node7</title>
<g id="a_node7"><a xlink:title=" ">
<polygon fill="none" stroke="#bfbfbf" points="323.59,-0.5 323.59,-19.5 367.59,-19.5 367.59,-0.5 323.59,-0.5"/>
<text text-anchor="middle" x="345.59" y="-7.5" font-family="Helvetica,sans-Serif" font-size="10.00">time.h</text>
</a>
</g>
</g>
<!-- Node4&#45;&gt;Node7 -->
<g id="edge6" class="edge">
<title>Node4&#45;&gt;Node7</title>
<path fill="none" stroke="midnightblue" d="M1094.56,-63.1C934.5,-58.25 532.42,-44.19 378.04,-19.8"/>
<polygon fill="midnightblue" stroke="midnightblue" points="378.24,-16.28 367.8,-18.1 377.09,-23.19 378.24,-16.28"/>
</g>
<!-- Node8 -->
<g id="node8" class="node">
<title>Node8</title>
<g id="a_node8"><a xlink:title=" ">
<polygon fill="none" stroke="#bfbfbf" points="386.09,-0.5 386.09,-19.5 427.09,-19.5 427.09,-0.5 386.09,-0.5"/>
<text text-anchor="middle" x="406.59" y="-7.5" font-family="Helvetica,sans-Serif" font-size="10.00">ctime</text>
</a>
</g>
</g>
<!-- Node4&#45;&gt;Node8 -->
<g id="edge7" class="edge">
<title>Node4&#45;&gt;Node8</title>
<path fill="none" stroke="midnightblue" d="M1094.48,-62.89C943.38,-57.82 579.24,-43.7 437.56,-19.9"/>
<polygon fill="midnightblue" stroke="midnightblue" points="437.8,-16.39 427.35,-18.09 436.58,-23.28 437.8,-16.39"/>
</g>
<!-- Node9 -->
<g id="node9" class="node">
<title>Node9</title>
<g id="a_node9"><a xlink:title=" ">
<polygon fill="none" stroke="#bfbfbf" points="445.09,-0.5 445.09,-19.5 538.09,-19.5 538.09,-0.5 445.09,-0.5"/>
<text text-anchor="middle" x="491.59" y="-7.5" font-family="Helvetica,sans-Serif" font-size="10.00">condition_variable</text>
</a>
</g>
</g>
<!-- Node4&#45;&gt;Node9 -->
<g id="edge8" class="edge">
<title>Node4&#45;&gt;Node9</title>
<path fill="none" stroke="midnightblue" d="M1094.17,-61.96C982.79,-56.53 753.13,-43.55 548.34,-19.98"/>
<polygon fill="midnightblue" stroke="midnightblue" points="548.63,-16.49 538.3,-18.82 547.82,-23.45 548.63,-16.49"/>
</g>
<!-- Node10 -->
<g id="node10" class="node">
<title>Node10</title>
<g id="a_node10"><a xlink:title=" ">
<polygon fill="none" stroke="#bfbfbf" points="556.59,-0.5 556.59,-19.5 654.59,-19.5 654.59,-0.5 556.59,-0.5"/>
<text text-anchor="middle" x="605.59" y="-7.5" font-family="Helvetica,sans-Serif" font-size="10.00">nlohmann/json.hpp</text>
</a>
</g>
</g>
<!-- Node4&#45;&gt;Node10 -->
<g id="edge9" class="edge">
<title>Node4&#45;&gt;Node10</title>
<path fill="none" stroke="midnightblue" d="M1094.59,-60.31C1000.79,-53.44 824.8,-39.45 664.64,-20.06"/>
<polygon fill="midnightblue" stroke="midnightblue" points="664.95,-16.57 654.6,-18.83 664.11,-23.52 664.95,-16.57"/>
</g>
<!-- Node11 -->
<g id="node11" class="node">
<title>Node11</title>
<g id="a_node11"><a xlink:title=" ">
<polygon fill="none" stroke="#bfbfbf" points="673.09,-0.5 673.09,-19.5 758.09,-19.5 758.09,-0.5 673.09,-0.5"/>
<text text-anchor="middle" x="715.59" y="-7.5" font-family="Helvetica,sans-Serif" font-size="10.00">source_location</text>
</a>
</g>
</g>
<!-- Node4&#45;&gt;Node11 -->
<g id="edge10" class="edge">
<title>Node4&#45;&gt;Node11</title>
<path fill="none" stroke="midnightblue" d="M1094.33,-58.6C1017.74,-51.04 888.64,-37.42 768.26,-20.17"/>
<polygon fill="midnightblue" stroke="midnightblue" points="768.53,-16.67 758.13,-18.71 767.53,-23.6 768.53,-16.67"/>
</g>
<!-- Node12 -->
<g id="node12" class="node">
<title>Node12</title>
<g id="a_node12"><a xlink:title=" ">
<polygon fill="none" stroke="#bfbfbf" points="776.09,-0.5 776.09,-19.5 859.09,-19.5 859.09,-0.5 776.09,-0.5"/>
<text text-anchor="middle" x="817.59" y="-7.5" font-family="Helvetica,sans-Serif" font-size="10.00">unordered_map</text>
</a>
</g>
</g>
<!-- Node4&#45;&gt;Node12 -->
<g id="edge11" class="edge">
<title>Node4&#45;&gt;Node12</title>
<path fill="none" stroke="midnightblue" d="M1103.71,-56.5C1046.76,-48.05 957.05,-34.5 869.44,-20.11"/>
<polygon fill="midnightblue" stroke="midnightblue" points="869.76,-16.62 859.32,-18.44 868.62,-23.52 869.76,-16.62"/>
</g>
<!-- Node13 -->
<g id="node13" class="node">
<title>Node13</title>
<g id="a_node13"><a xlink:title=" ">
<polygon fill="none" stroke="#bfbfbf" points="877.59,-0.5 877.59,-19.5 955.59,-19.5 955.59,-0.5 877.59,-0.5"/>
<text text-anchor="middle" x="916.59" y="-7.5" font-family="Helvetica,sans-Serif" font-size="10.00">shared_mutex</text>
</a>
</g>
</g>
<!-- Node4&#45;&gt;Node13 -->
<g id="edge12" class="edge">
<title>Node4&#45;&gt;Node13</title>
<path fill="none" stroke="midnightblue" d="M1122.77,-56.44C1080.03,-47.02 1011.25,-31.87 965.02,-21.68"/>
<polygon fill="midnightblue" stroke="midnightblue" points="965.74,-18.25 955.23,-19.52 964.24,-25.09 965.74,-18.25"/>
</g>
<!-- Node14 -->
<g id="node14" class="node">
<title>Node14</title>
<g id="a_node14"><a xlink:title=" ">
<polygon fill="none" stroke="#bfbfbf" points="973.59,-0.5 973.59,-19.5 1031.59,-19.5 1031.59,-0.5 973.59,-0.5"/>
<text text-anchor="middle" x="1002.59" y="-7.5" font-family="Helvetica,sans-Serif" font-size="10.00">functional</text>
</a>
</g>
</g>
<!-- Node4&#45;&gt;Node14 -->
<g id="edge13" class="edge">
<title>Node4&#45;&gt;Node14</title>
<path fill="none" stroke="midnightblue" d="M1136.39,-56.44C1109.64,-47.36 1067.18,-32.94 1037.28,-22.78"/>
<polygon fill="midnightblue" stroke="midnightblue" points="1038.26,-19.42 1027.66,-19.52 1036.01,-26.05 1038.26,-19.42"/>
</g>
<!-- Node15 -->
<g id="node15" class="node">
<title>Node15</title>
<g id="a_node15"><a xlink:title=" ">
<polygon fill="none" stroke="#bfbfbf" points="1050.09,-0.5 1050.09,-19.5 1115.09,-19.5 1115.09,-0.5 1050.09,-0.5"/>
<text text-anchor="middle" x="1082.59" y="-7.5" font-family="Helvetica,sans-Serif" font-size="10.00">semaphore</text>
</a>
</g>
</g>
<!-- Node4&#45;&gt;Node15 -->
<g id="edge14" class="edge">
<title>Node4&#45;&gt;Node15</title>
<path fill="none" stroke="midnightblue" d="M1148.89,-56.32C1136.69,-47.98 1118.01,-35.21 1103.58,-25.35"/>
<polygon fill="midnightblue" stroke="midnightblue" points="1105.48,-22.41 1095.25,-19.65 1101.53,-28.19 1105.48,-22.41"/>
</g>
<!-- Node16 -->
<g id="node16" class="node">
<title>Node16</title>
<g id="a_node16"><a xlink:title=" ">
<polygon fill="none" stroke="#bfbfbf" points="1133.59,-0.5 1133.59,-19.5 1189.59,-19.5 1189.59,-0.5 1133.59,-0.5"/>
<text text-anchor="middle" x="1161.59" y="-7.5" font-family="Helvetica,sans-Serif" font-size="10.00">concepts</text>
</a>
</g>
</g>
<!-- Node4&#45;&gt;Node16 -->
<g id="edge15" class="edge">
<title>Node4&#45;&gt;Node16</title>
<path fill="none" stroke="midnightblue" d="M1161.59,-56.08C1161.59,-49.01 1161.59,-38.86 1161.59,-29.99"/>
<polygon fill="midnightblue" stroke="midnightblue" points="1165.09,-29.75 1161.59,-19.75 1158.09,-29.75 1165.09,-29.75"/>
</g>
<!-- Node17 -->
<g id="node17" class="node">
<title>Node17</title>
<g id="a_node17"><a xlink:title=" ">
<polygon fill="none" stroke="#bfbfbf" points="1207.59,-0.5 1207.59,-19.5 1261.59,-19.5 1261.59,-0.5 1207.59,-0.5"/>
<text text-anchor="middle" x="1234.59" y="-7.5" font-family="Helvetica,sans-Serif" font-size="10.00">iostream</text>
</a>
</g>
</g>
<!-- Node4&#45;&gt;Node17 -->
<g id="edge16" class="edge">
<title>Node4&#45;&gt;Node17</title>
<path fill="none" stroke="midnightblue" d="M1173.32,-56.32C1184.42,-48.11 1201.33,-35.6 1214.57,-25.81"/>
<polygon fill="midnightblue" stroke="midnightblue" points="1216.69,-28.59 1222.64,-19.83 1212.52,-22.97 1216.69,-28.59"/>
</g>
<!-- Node18 -->
<g id="node18" class="node">
<title>Node18</title>
<g id="a_node18"><a xlink:title=" ">
<polygon fill="none" stroke="#bfbfbf" points="1280.09,-0.5 1280.09,-19.5 1329.09,-19.5 1329.09,-0.5 1280.09,-0.5"/>
<text text-anchor="middle" x="1304.59" y="-7.5" font-family="Helvetica,sans-Serif" font-size="10.00">fstream</text>
</a>
</g>
</g>
<!-- Node4&#45;&gt;Node18 -->
<g id="edge17" class="edge">
<title>Node4&#45;&gt;Node18</title>
<path fill="none" stroke="midnightblue" d="M1184.25,-56.44C1207.99,-47.48 1245.5,-33.31 1272.32,-23.18"/>
<polygon fill="midnightblue" stroke="midnightblue" points="1273.91,-26.32 1282.03,-19.52 1271.44,-19.77 1273.91,-26.32"/>
</g>
<!-- Node19 -->
<g id="node19" class="node">
<title>Node19</title>
<g id="a_node19"><a xlink:title=" ">
<polygon fill="none" stroke="#bfbfbf" points="1347.09,-0.5 1347.09,-19.5 1388.09,-19.5 1388.09,-0.5 1347.09,-0.5"/>
<text text-anchor="middle" x="1367.59" y="-7.5" font-family="Helvetica,sans-Serif" font-size="10.00">bitset</text>
</a>
</g>
</g>
<!-- Node4&#45;&gt;Node19 -->
<g id="edge18" class="edge">
<title>Node4&#45;&gt;Node19</title>
<path fill="none" stroke="midnightblue" d="M1197.33,-56.49C1231.15,-48.31 1283.55,-35.31 1337.33,-20.26"/>
<polygon fill="midnightblue" stroke="midnightblue" points="1338.35,-23.61 1347.03,-17.52 1336.46,-16.87 1338.35,-23.61"/>
</g>
<!-- Node20 -->
<g id="node20" class="node">
<title>Node20</title>
<g id="a_node20"><a xlink:title=" ">
<polygon fill="none" stroke="#bfbfbf" points="1406.59,-0.5 1406.59,-19.5 1458.59,-19.5 1458.59,-0.5 1406.59,-0.5"/>
<text text-anchor="middle" x="1432.59" y="-7.5" font-family="Helvetica,sans-Serif" font-size="10.00">memory</text>
</a>
</g>
</g>
<!-- Node4&#45;&gt;Node20 -->
<g id="edge19" class="edge">
<title>Node4&#45;&gt;Node20</title>
<path fill="none" stroke="midnightblue" d="M1211.5,-56.43C1257.24,-48.36 1327.06,-35.51 1396.47,-20.15"/>
<polygon fill="midnightblue" stroke="midnightblue" points="1397.26,-23.56 1406.26,-17.96 1395.73,-16.72 1397.26,-23.56"/>
</g>
<!-- Node21 -->
<g id="node21" class="node">
<title>Node21</title>
<g id="a_node21"><a xlink:title=" ">
<polygon fill="none" stroke="#bfbfbf" points="1477.09,-0.5 1477.09,-19.5 1526.09,-19.5 1526.09,-0.5 1477.09,-0.5"/>
<text text-anchor="middle" x="1501.59" y="-7.5" font-family="Helvetica,sans-Serif" font-size="10.00">random</text>
</a>
</g>
</g>
<!-- Node4&#45;&gt;Node21 -->
<g id="edge20" class="edge">
<title>Node4&#45;&gt;Node21</title>
<path fill="none" stroke="midnightblue" d="M1228.82,-57.33C1288.83,-49.97 1379.23,-37.66 1466.93,-19.93"/>
<polygon fill="midnightblue" stroke="midnightblue" points="1467.69,-23.35 1476.78,-17.91 1466.28,-16.49 1467.69,-23.35"/>
</g>
<!-- Node22 -->
<g id="node22" class="node">
<title>Node22</title>
<g id="a_node22"><a xlink:title=" ">
<polygon fill="none" stroke="#bfbfbf" points="1544.09,-0.5 1544.09,-19.5 1585.09,-19.5 1585.09,-0.5 1544.09,-0.5"/>
<text text-anchor="middle" x="1564.59" y="-7.5" font-family="Helvetica,sans-Serif" font-size="10.00">string</text>
</a>
</g>
</g>
<!-- Node4&#45;&gt;Node22 -->
<g id="edge21" class="edge">
<title>Node4&#45;&gt;Node22</title>
<path fill="none" stroke="midnightblue" d="M1228.73,-60.6C1301.85,-54.99 1422.27,-43.34 1533.73,-20.08"/>
<polygon fill="midnightblue" stroke="midnightblue" points="1534.74,-23.45 1543.8,-17.95 1533.29,-16.6 1534.74,-23.45"/>
</g>
<!-- Node23 -->
<g id="node23" class="node">
<title>Node23</title>
<g id="a_node23"><a xlink:title=" ">
<polygon fill="none" stroke="#bfbfbf" points="1603.59,-0.5 1603.59,-19.5 1645.59,-19.5 1645.59,-0.5 1603.59,-0.5"/>
<text text-anchor="middle" x="1624.59" y="-7.5" font-family="Helvetica,sans-Serif" font-size="10.00">vector</text>
</a>
</g>
</g>
<!-- Node4&#45;&gt;Node23 -->
<g id="edge22" class="edge">
<title>Node4&#45;&gt;Node23</title>
<path fill="none" stroke="midnightblue" d="M1228.93,-61.93C1312.5,-57.24 1459.36,-46.14 1593.37,-19.89"/>
<polygon fill="midnightblue" stroke="midnightblue" points="1594.28,-23.28 1603.41,-17.89 1592.91,-16.41 1594.28,-23.28"/>
</g>
<!-- Node24 -->
<g id="node24" class="node">
<title>Node24</title>
<g id="a_node24"><a xlink:title=" ">
<polygon fill="none" stroke="#bfbfbf" points="1663.59,-0.5 1663.59,-19.5 1707.59,-19.5 1707.59,-0.5 1663.59,-0.5"/>
<text text-anchor="middle" x="1685.59" y="-7.5" font-family="Helvetica,sans-Serif" font-size="10.00">thread</text>
</a>
</g>
</g>
<!-- Node4&#45;&gt;Node24 -->
<g id="edge23" class="edge">
<title>Node4&#45;&gt;Node24</title>
<path fill="none" stroke="midnightblue" d="M1228.73,-62.94C1322.08,-59.18 1496.36,-48.9 1653.06,-19.94"/>
<polygon fill="midnightblue" stroke="midnightblue" points="1654.18,-23.29 1663.36,-18.01 1652.88,-16.41 1654.18,-23.29"/>
</g>
<!-- Node25 -->
<g id="node25" class="node">
<title>Node25</title>
<g id="a_node25"><a xlink:title=" ">
<polygon fill="none" stroke="#bfbfbf" points="1725.59,-0.5 1725.59,-19.5 1769.59,-19.5 1769.59,-0.5 1725.59,-0.5"/>
<text text-anchor="middle" x="1747.59" y="-7.5" font-family="Helvetica,sans-Serif" font-size="10.00">mutex</text>
</a>
</g>
</g>
<!-- Node4&#45;&gt;Node25 -->
<g id="edge24" class="edge">
<title>Node4&#45;&gt;Node25</title>
<path fill="none" stroke="midnightblue" d="M1228.79,-63.91C1331.85,-61.28 1535.08,-52.3 1715.43,-19.85"/>
<polygon fill="midnightblue" stroke="midnightblue" points="1716.16,-23.27 1725.36,-18.03 1714.9,-16.39 1716.16,-23.27"/>
</g>
<!-- Node26 -->
<g id="node26" class="node">
<title>Node26</title>
<g id="a_node26"><a xlink:title=" ">
<polygon fill="none" stroke="#bfbfbf" points="1788.09,-0.5 1788.09,-19.5 1831.09,-19.5 1831.09,-0.5 1788.09,-0.5"/>
<text text-anchor="middle" x="1809.59" y="-7.5" font-family="Helvetica,sans-Serif" font-size="10.00">queue</text>
</a>
</g>
</g>
<!-- Node4&#45;&gt;Node26 -->
<g id="edge25" class="edge">
<title>Node4&#45;&gt;Node26</title>
<path fill="none" stroke="midnightblue" d="M1228.81,-64.69C1340.97,-63.17 1573.26,-55.74 1778.01,-19.68"/>
<polygon fill="midnightblue" stroke="midnightblue" points="1778.82,-23.09 1788.04,-17.88 1777.58,-16.2 1778.82,-23.09"/>
</g>
<!-- Node27 -->
<g id="node27" class="node">
<title>Node27</title>
<g id="a_node27"><a xlink:title=" ">
<polygon fill="none" stroke="#bfbfbf" points="1849.09,-0.5 1849.09,-19.5 1884.09,-19.5 1884.09,-0.5 1849.09,-0.5"/>
<text text-anchor="middle" x="1866.59" y="-7.5" font-family="Helvetica,sans-Serif" font-size="10.00">map</text>
</a>
</g>
</g>
<!-- Node4&#45;&gt;Node27 -->
<g id="edge26" class="edge">
<title>Node4&#45;&gt;Node27</title>
<path fill="none" stroke="midnightblue" d="M1228.78,-62.83C1372.62,-57.81 1707.37,-44.13 1838.99,-19.76"/>
<polygon fill="midnightblue" stroke="midnightblue" points="1839.71,-23.19 1848.86,-17.84 1838.37,-16.32 1839.71,-23.19"/>
</g>
<!-- Node28&#45;&gt;Node3 -->
<g id="edge28" class="edge">
<title>Node28&#45;&gt;Node3</title>
<path fill="none" stroke="midnightblue" d="M1219.88,-403.28C1237.41,-385.85 1273.59,-344.69 1273.59,-302 1273.59,-302 1273.59,-302 1273.59,-244 1273.59,-200.47 1232.08,-167.13 1199.6,-147.71"/>
<polygon fill="midnightblue" stroke="midnightblue" points="1201.13,-144.56 1190.72,-142.61 1197.65,-150.63 1201.13,-144.56"/>
</g>
<!-- Node29 -->
<g id="node29" class="node">
<title>Node29</title>
<g id="a_node29"><a xlink:href="../../d3/d4f/a00761.html" target="_top" xlink:title=" ">
<polygon fill="none" stroke="black" points="1057.59,-347.5 1057.59,-366.5 1207.59,-366.5 1207.59,-347.5 1057.59,-347.5"/>
<text text-anchor="middle" x="1132.59" y="-354.5" font-family="Helvetica,sans-Serif" font-size="10.00">discordcoreapi/ThreadPool.hpp</text>
</a>
</g>
</g>
<!-- Node28&#45;&gt;Node29 -->
<g id="edge29" class="edge">
<title>Node28&#45;&gt;Node29</title>
<path fill="none" stroke="midnightblue" d="M1198.05,-403.32C1186,-394.98 1167.56,-382.21 1153.32,-372.35"/>
<polygon fill="midnightblue" stroke="midnightblue" points="1155.3,-369.47 1145.09,-366.65 1151.32,-375.22 1155.3,-369.47"/>
</g>
<!-- Node45 -->
<g id="node45" class="node">
<title>Node45</title>
<g id="a_node45"><a xlink:title=" ">
<polygon fill="none" stroke="#bfbfbf" points="1189.59,-291.5 1189.59,-310.5 1245.59,-310.5 1245.59,-291.5 1189.59,-291.5"/>
<text text-anchor="middle" x="1217.59" y="-298.5" font-family="Helvetica,sans-Serif" font-size="10.00">coroutine</text>
</a>
</g>
</g>
<!-- Node28&#45;&gt;Node45 -->
<g id="edge49" class="edge">
<title>Node28&#45;&gt;Node45</title>
<path fill="none" stroke="midnightblue" d="M1212.04,-403.4C1213.49,-394.37 1215.64,-379.73 1216.59,-367 1217.73,-351.5 1217.94,-333.88 1217.88,-320.89"/>
<polygon fill="midnightblue" stroke="midnightblue" points="1221.38,-320.81 1217.78,-310.85 1214.38,-320.88 1221.38,-320.81"/>
</g>
<!-- Node29&#45;&gt;Node3 -->
<g id="edge30" class="edge">
<title>Node29&#45;&gt;Node3</title>
<path fill="none" stroke="midnightblue" d="M1133.69,-347.36C1137.77,-315.37 1152.1,-202.91 1158.48,-152.85"/>
<polygon fill="midnightblue" stroke="midnightblue" points="1161.99,-152.99 1159.79,-142.62 1155.05,-152.1 1161.99,-152.99"/>
</g>
<!-- Node29&#45;&gt;Node30 -->
<g id="edge31" class="edge">
<title>Node29&#45;&gt;Node30</title>
<path fill="none" stroke="midnightblue" d="M1116.04,-347.32C1099.59,-338.7 1074.15,-325.36 1055.12,-315.39"/>
<polygon fill="midnightblue" stroke="midnightblue" points="1056.58,-312.2 1046.09,-310.65 1053.33,-318.4 1056.58,-312.2"/>
</g>
<!-- Node29&#45;&gt;Node45 -->
<g id="edge48" class="edge">
<title>Node29&#45;&gt;Node45</title>
<path fill="none" stroke="midnightblue" d="M1146.24,-347.32C1159.5,-338.9 1179.85,-325.97 1195.43,-316.07"/>
<polygon fill="midnightblue" stroke="midnightblue" points="1197.4,-318.97 1203.96,-310.65 1193.65,-313.06 1197.4,-318.97"/>
</g>
<!-- Node31 -->
<g id="node31" class="node">
<title>Node31</title>
<g id="a_node31"><a xlink:href="../../d5/de8/a00749.html" target="_top" xlink:title=" ">
<polygon fill="none" stroke="black" points="545.59,-235.5 545.59,-254.5 695.59,-254.5 695.59,-235.5 545.59,-235.5"/>
<text text-anchor="middle" x="620.59" y="-242.5" font-family="Helvetica,sans-Serif" font-size="10.00">discordcoreapi/SSLClients.hpp</text>
</a>
</g>
</g>
<!-- Node30&#45;&gt;Node31 -->
<g id="edge32" class="edge">
<title>Node30&#45;&gt;Node31</title>
<path fill="none" stroke="midnightblue" d="M967.02,-291.74C893.99,-282.1 773.31,-266.16 695.4,-255.88"/>
<polygon fill="midnightblue" stroke="midnightblue" points="695.54,-252.37 685.17,-254.53 694.62,-259.31 695.54,-252.37"/>
</g>
<!-- Node31&#45;&gt;Node3 -->
<g id="edge33" class="edge">
<title>Node31&#45;&gt;Node3</title>
<path fill="none" stroke="midnightblue" d="M545.32,-244.1C389.02,-243.53 40.7,-237.85 4.59,-199 -1.47,-192.49 -1.56,-185.42 4.59,-179 42,-139.92 834.59,-130.86 1085.87,-128.96"/>
<polygon fill="midnightblue" stroke="midnightblue" points="1086.03,-132.46 1096,-128.89 1085.98,-125.46 1086.03,-132.46"/>
</g>
<!-- Node32 -->
<g id="node32" class="node">
<title>Node32</title>
<g id="a_node32"><a xlink:href="../../d4/d6a/a00704.html" target="_top" xlink:title=" ">
<polygon fill="none" stroke="black" points="13.59,-179.5 13.59,-198.5 171.59,-198.5 171.59,-179.5 13.59,-179.5"/>
<text text-anchor="middle" x="92.59" y="-186.5" font-family="Helvetica,sans-Serif" font-size="10.00">discordcoreapi/EventEntities.hpp</text>
</a>
</g>
</g>
<!-- Node31&#45;&gt;Node32 -->
<g id="edge34" class="edge">
<title>Node31&#45;&gt;Node32</title>
<path fill="none" stroke="midnightblue" d="M545.5,-236.32C449.61,-226.51 283.9,-209.57 181.72,-199.12"/>
<polygon fill="midnightblue" stroke="midnightblue" points="182.03,-195.63 171.73,-198.09 181.32,-202.59 182.03,-195.63"/>
</g>
<!-- Node33 -->
<g id="node33" class="node">
<title>Node33</title>
<g id="a_node33"><a xlink:title=" ">
<polygon fill="none" stroke="#bfbfbf" points="190.09,-179.5 190.09,-198.5 263.09,-198.5 263.09,-179.5 190.09,-179.5"/>
<text text-anchor="middle" x="226.59" y="-186.5" font-family="Helvetica,sans-Serif" font-size="10.00">openssl/err.h</text>
</a>
</g>
</g>
<!-- Node31&#45;&gt;Node33 -->
<g id="edge36" class="edge">
<title>Node31&#45;&gt;Node33</title>
<path fill="none" stroke="midnightblue" d="M545.37,-235.7C477.03,-227.82 373.2,-215.06 273.18,-199"/>
<polygon fill="midnightblue" stroke="midnightblue" points="273.64,-195.53 263.21,-197.39 272.52,-202.44 273.64,-195.53"/>
</g>
<!-- Node34 -->
<g id="node34" class="node">
<title>Node34</title>
<g id="a_node34"><a xlink:title=" ">
<polygon fill="none" stroke="#bfbfbf" points="281.59,-179.5 281.59,-198.5 355.59,-198.5 355.59,-179.5 281.59,-179.5"/>
<text text-anchor="middle" x="318.59" y="-186.5" font-family="Helvetica,sans-Serif" font-size="10.00">openssl/ssl.h</text>
</a>
</g>
</g>
<!-- Node31&#45;&gt;Node34 -->
<g id="edge37" class="edge">
<title>Node31&#45;&gt;Node34</title>
<path fill="none" stroke="midnightblue" d="M570.5,-235.49C520.97,-227.01 442.76,-213.43 365.62,-199.17"/>
<polygon fill="midnightblue" stroke="midnightblue" points="366.2,-195.71 355.73,-197.33 364.93,-202.6 366.2,-195.71"/>
</g>
<!-- Node35 -->
<g id="node35" class="node">
<title>Node35</title>
<g id="a_node35"><a xlink:title=" ">
<polygon fill="none" stroke="#bfbfbf" points="374.09,-179.5 374.09,-198.5 417.09,-198.5 417.09,-179.5 374.09,-179.5"/>
<text text-anchor="middle" x="395.59" y="-186.5" font-family="Helvetica,sans-Serif" font-size="10.00">fcntl.h</text>
</a>
</g>
</g>
<!-- Node31&#45;&gt;Node35 -->
<g id="edge38" class="edge">
<title>Node31&#45;&gt;Node35</title>
<path fill="none" stroke="midnightblue" d="M580.06,-235.45C542.58,-227.36 485.11,-214.51 426.9,-199.23"/>
<polygon fill="midnightblue" stroke="midnightblue" points="427.73,-195.83 417.17,-196.66 425.94,-202.6 427.73,-195.83"/>
</g>
<!-- Node36 -->
<g id="node36" class="node">
<title>Node36</title>
<g id="a_node36"><a xlink:title=" ">
<polygon fill="none" stroke="#bfbfbf" points="435.09,-179.5 435.09,-198.5 484.09,-198.5 484.09,-179.5 435.09,-179.5"/>
<text text-anchor="middle" x="459.59" y="-186.5" font-family="Helvetica,sans-Serif" font-size="10.00">netdb.h</text>
</a>
</g>
</g>
<!-- Node31&#45;&gt;Node36 -->
<g id="edge39" class="edge">
<title>Node31&#45;&gt;Node36</title>
<path fill="none" stroke="midnightblue" d="M595.08,-235.44C567.75,-226.28 524.24,-211.68 493.92,-201.52"/>
<polygon fill="midnightblue" stroke="midnightblue" points="494.78,-198.11 484.19,-198.25 492.55,-204.75 494.78,-198.11"/>
</g>
<!-- Node37 -->
<g id="node37" class="node">
<title>Node37</title>
<g id="a_node37"><a xlink:title=" ">
<polygon fill="none" stroke="#bfbfbf" points="502.09,-179.5 502.09,-198.5 567.09,-198.5 567.09,-179.5 502.09,-179.5"/>
<text text-anchor="middle" x="534.59" y="-186.5" font-family="Helvetica,sans-Serif" font-size="10.00">netinet/in.h</text>
</a>
</g>
</g>
<!-- Node31&#45;&gt;Node37 -->
<g id="edge40" class="edge">
<title>Node31&#45;&gt;Node37</title>
<path fill="none" stroke="midnightblue" d="M606.77,-235.32C593.35,-226.9 572.76,-213.97 557,-204.07"/>
<polygon fill="midnightblue" stroke="midnightblue" points="558.7,-201.01 548.37,-198.65 554.98,-206.94 558.7,-201.01"/>
</g>
<!-- Node38 -->
<g id="node38" class="node">
<title>Node38</title>
<g id="a_node38"><a xlink:title=" ">
<polygon fill="none" stroke="#bfbfbf" points="585.09,-179.5 585.09,-198.5 656.09,-198.5 656.09,-179.5 585.09,-179.5"/>
<text text-anchor="middle" x="620.59" y="-186.5" font-family="Helvetica,sans-Serif" font-size="10.00">netinet/tcp.h</text>
</a>
</g>
</g>
<!-- Node31&#45;&gt;Node38 -->
<g id="edge41" class="edge">
<title>Node31&#45;&gt;Node38</title>
<path fill="none" stroke="midnightblue" d="M620.59,-235.08C620.59,-228.01 620.59,-217.86 620.59,-208.99"/>
<polygon fill="midnightblue" stroke="midnightblue" points="624.09,-208.75 620.59,-198.75 617.09,-208.75 624.09,-208.75"/>
</g>
<!-- Node39 -->
<g id="node39" class="node">
<title>Node39</title>
<g id="a_node39"><a xlink:title=" ">
<polygon fill="none" stroke="#bfbfbf" points="674.09,-179.5 674.09,-198.5 723.09,-198.5 723.09,-179.5 674.09,-179.5"/>
<text text-anchor="middle" x="698.59" y="-186.5" font-family="Helvetica,sans-Serif" font-size="10.00">stdint.h</text>
</a>
</g>
</g>
<!-- Node31&#45;&gt;Node39 -->
<g id="edge42" class="edge">
<title>Node31&#45;&gt;Node39</title>
<path fill="none" stroke="midnightblue" d="M633.12,-235.32C645.17,-226.98 663.61,-214.21 677.86,-204.35"/>
<polygon fill="midnightblue" stroke="midnightblue" points="679.86,-207.22 686.09,-198.65 675.87,-201.47 679.86,-207.22"/>
</g>
<!-- Node40 -->
<g id="node40" class="node">
<title>Node40</title>
<g id="a_node40"><a xlink:title=" ">
<polygon fill="none" stroke="#bfbfbf" points="741.59,-179.5 741.59,-198.5 805.59,-198.5 805.59,-179.5 741.59,-179.5"/>
<text text-anchor="middle" x="773.59" y="-186.5" font-family="Helvetica,sans-Serif" font-size="10.00">sys/epoll.h</text>
</a>
</g>
</g>
<!-- Node31&#45;&gt;Node40 -->
<g id="edge43" class="edge">
<title>Node31&#45;&gt;Node40</title>
<path fill="none" stroke="midnightblue" d="M644.83,-235.44C670.46,-226.4 711.07,-212.06 739.82,-201.92"/>
<polygon fill="midnightblue" stroke="midnightblue" points="741.19,-205.15 749.46,-198.52 738.86,-198.54 741.19,-205.15"/>
</g>
<!-- Node41 -->
<g id="node41" class="node">
<title>Node41</title>
<g id="a_node41"><a xlink:title=" ">
<polygon fill="none" stroke="#bfbfbf" points="823.59,-179.5 823.59,-198.5 885.59,-198.5 885.59,-179.5 823.59,-179.5"/>
<text text-anchor="middle" x="854.59" y="-186.5" font-family="Helvetica,sans-Serif" font-size="10.00">arpa/inet.h</text>
</a>
</g>
</g>
<!-- Node31&#45;&gt;Node41 -->
<g id="edge44" class="edge">
<title>Node31&#45;&gt;Node41</title>
<path fill="none" stroke="midnightblue" d="M657.66,-235.44C700.11,-225.65 769.43,-209.65 813.49,-199.48"/>
<polygon fill="midnightblue" stroke="midnightblue" points="814.34,-202.88 823.3,-197.22 812.77,-196.06 814.34,-202.88"/>
</g>
<!-- Node42 -->
<g id="node42" class="node">
<title>Node42</title>
<g id="a_node42"><a xlink:title=" ">
<polygon fill="none" stroke="#bfbfbf" points="904.09,-179.5 904.09,-198.5 977.09,-198.5 977.09,-179.5 904.09,-179.5"/>
<text text-anchor="middle" x="940.59" y="-186.5" font-family="Helvetica,sans-Serif" font-size="10.00">sys/socket.h</text>
</a>
</g>
</g>
<!-- Node31&#45;&gt;Node42 -->
<g id="edge45" class="edge">
<title>Node31&#45;&gt;Node42</title>
<path fill="none" stroke="midnightblue" d="M675.52,-235.48C728.73,-227.12 811.98,-213.73 893.96,-199.07"/>
<polygon fill="midnightblue" stroke="midnightblue" points="894.72,-202.49 903.95,-197.27 893.49,-195.6 894.72,-202.49"/>
</g>
<!-- Node43 -->
<g id="node43" class="node">
<title>Node43</title>
<g id="a_node43"><a xlink:title=" ">
<polygon fill="none" stroke="#bfbfbf" points="995.59,-179.5 995.59,-198.5 1063.59,-198.5 1063.59,-179.5 995.59,-179.5"/>
<text text-anchor="middle" x="1029.59" y="-186.5" font-family="Helvetica,sans-Serif" font-size="10.00">sys/types.h</text>
</a>
</g>
</g>
<!-- Node31&#45;&gt;Node43 -->
<g id="edge46" class="edge">
<title>Node31&#45;&gt;Node43</title>
<path fill="none" stroke="midnightblue" d="M695.63,-236.5C769.6,-228.7 885.72,-215.34 985.59,-199 985.69,-198.98 985.79,-198.97 985.89,-198.95"/>
<polygon fill="midnightblue" stroke="midnightblue" points="986.29,-202.43 995.53,-197.24 985.07,-195.54 986.29,-202.43"/>
</g>
<!-- Node44 -->
<g id="node44" class="node">
<title>Node44</title>
<g id="a_node44"><a xlink:title=" ">
<polygon fill="none" stroke="#bfbfbf" points="1082.09,-179.5 1082.09,-198.5 1133.09,-198.5 1133.09,-179.5 1082.09,-179.5"/>
<text text-anchor="middle" x="1107.59" y="-186.5" font-family="Helvetica,sans-Serif" font-size="10.00">unistd.h</text>
</a>
</g>
</g>
<!-- Node31&#45;&gt;Node44 -->
<g id="edge47" class="edge">
<title>Node31&#45;&gt;Node44</title>
<path fill="none" stroke="midnightblue" d="M695.85,-240.03C783.84,-234.59 933.92,-222.87 1072.14,-198.79"/>
<polygon fill="midnightblue" stroke="midnightblue" points="1072.83,-202.23 1082.07,-197.04 1071.61,-195.33 1072.83,-202.23"/>
</g>
<!-- Node32&#45;&gt;Node3 -->
<g id="edge35" class="edge">
<title>Node32&#45;&gt;Node3</title>
<path fill="none" stroke="midnightblue" d="M171.72,-179.72C174.71,-179.46 177.68,-179.22 180.59,-179 517.85,-153.09 921.39,-137.01 1086.05,-131.09"/>
<polygon fill="midnightblue" stroke="midnightblue" points="1086.21,-134.58 1096.07,-130.73 1085.96,-127.59 1086.21,-134.58"/>
</g>
</g>
</svg>
