<?xml version="1.0" encoding="UTF-8" standalone="no"?>
<!DOCTYPE svg PUBLIC "-//W3C//DTD SVG 1.1//EN"
 "http://www.w3.org/Graphics/SVG/1.1/DTD/svg11.dtd">
<!-- Generated by graphviz version 2.43.0 (0)
 -->
<!-- Title: DiscordCoreAPI::Channels::getCachedChannelAsync Pages: 1 -->
<svg width="330pt" height="38pt"
 viewBox="0.00 0.00 330.00 38.00" xmlns="http://www.w3.org/2000/svg" xmlns:xlink="http://www.w3.org/1999/xlink">
<g id="graph0" class="graph" transform="scale(1 1) rotate(0) translate(4 34)">
<title>DiscordCoreAPI::Channels::getCachedChannelAsync</title>
<!-- Node1 -->
<g id="node1" class="node">
<title>Node1</title>
<g id="a_node1"><a xlink:title="Collects a Channel from the library&#39;s cache.">
<polygon fill="#bfbfbf" stroke="black" points="322,-30 179,-30 179,0 322,0 322,-30"/>
<text text-anchor="start" x="187" y="-18" font-family="Helvetica,sans-Serif" font-size="10.00">DiscordCoreAPI::Channels</text>
<text text-anchor="middle" x="250.5" y="-7" font-family="Helvetica,sans-Serif" font-size="10.00">::getCachedChannelAsync</text>
</a>
</g>
</g>
<!-- Node2 -->
<g id="node2" class="node">
<title>Node2</title>
<g id="a_node2"><a xlink:href="../../d0/d59/a01956.html#aab91933393035b3435e636e3b7c7699f" target="_top" xlink:title="Collects a Channel from the Discord servers.">
<polygon fill="none" stroke="black" points="143,-30 0,-30 0,0 143,0 143,-30"/>
<text text-anchor="start" x="8" y="-18" font-family="Helvetica,sans-Serif" font-size="10.00">DiscordCoreAPI::Channels</text>
<text text-anchor="middle" x="71.5" y="-7" font-family="Helvetica,sans-Serif" font-size="10.00">::getChannelAsync</text>
</a>
</g>
</g>
<!-- Node1&#45;&gt;Node2 -->
<g id="edge1" class="edge">
<title>Node1&#45;&gt;Node2</title>
<path fill="none" stroke="midnightblue" d="M168.51,-8.27C160.03,-8.22 151.46,-8.26 143.11,-8.37"/>
<polygon fill="midnightblue" stroke="midnightblue" points="168.75,-11.77 178.78,-8.37 168.82,-4.77 168.75,-11.77"/>
</g>
<!-- Node2&#45;&gt;Node1 -->
<g id="edge2" class="edge">
<title>Node2&#45;&gt;Node1</title>
<path fill="none" stroke="midnightblue" d="M153.38,-21.73C161.86,-21.78 170.43,-21.74 178.78,-21.63"/>
<polygon fill="midnightblue" stroke="midnightblue" points="153.14,-18.23 143.11,-21.63 153.07,-25.22 153.14,-18.23"/>
</g>
</g>
</svg>
