<?xml version="1.0" encoding="UTF-8" standalone="no"?>
<!DOCTYPE svg PUBLIC "-//W3C//DTD SVG 1.1//EN"
 "http://www.w3.org/Graphics/SVG/1.1/DTD/svg11.dtd">
<!-- Generated by graphviz version 3.0.0 (20220226.1711)
 -->
<!-- Title: WebHookEntities.hpp Pages: 1 -->
<svg width="1390pt" height="308pt"
 viewBox="0.00 0.00 1390.00 308.00" xmlns="http://www.w3.org/2000/svg" xmlns:xlink="http://www.w3.org/1999/xlink">
<g id="graph0" class="graph" transform="scale(1 1) rotate(0) translate(4 304)">
<title>WebHookEntities.hpp</title>
<!-- Node1 -->
<g id="node1" class="node">
<title>Node1</title>
<g id="a_node1"><a xlink:title=" ">
<polygon fill="#bfbfbf" stroke="black" points="828,-280.5 828,-299.5 939,-299.5 939,-280.5 828,-280.5"/>
<text text-anchor="middle" x="883.5" y="-287.5" font-family="Helvetica,sans-Serif" font-size="10.00">WebHookEntities.hpp</text>
</a>
</g>
</g>
<!-- Node2 -->
<g id="node2" class="node">
<title>Node2</title>
<g id="a_node2"><a xlink:href="../../df/dbb/a00698.html" target="_top" xlink:title=" ">
<polygon fill="none" stroke="black" points="635,-112.5 635,-131.5 748,-131.5 748,-112.5 635,-112.5"/>
<text text-anchor="middle" x="691.5" y="-119.5" font-family="Helvetica,sans-Serif" font-size="10.00">DiscordCoreClient.hpp</text>
</a>
</g>
</g>
<!-- Node1&#45;&gt;Node2 -->
<g id="edge1" class="edge">
<title>Node1&#45;&gt;Node2</title>
<path fill="none" stroke="midnightblue" d="M860.82,-274.88C847.77,-266.43 831.28,-255.18 817.5,-244 769.93,-205.39 718.98,-152.38 699.6,-131.73"/>
<polygon fill="midnightblue" stroke="midnightblue" points="859.32,-278.07 869.63,-280.5 863.08,-272.17 859.32,-278.07"/>
</g>
<!-- Node16 -->
<g id="node16" class="node">
<title>Node16</title>
<g id="a_node16"><a xlink:href="../../df/df7/a00731.html" target="_top" xlink:title=" ">
<polygon fill="none" stroke="black" points="827,-224.5 827,-243.5 940,-243.5 940,-224.5 827,-224.5"/>
<text text-anchor="middle" x="883.5" y="-231.5" font-family="Helvetica,sans-Serif" font-size="10.00">InteractionEntities.hpp</text>
</a>
</g>
</g>
<!-- Node1&#45;&gt;Node16 -->
<g id="edge15" class="edge">
<title>Node1&#45;&gt;Node16</title>
<path fill="none" stroke="midnightblue" d="M883.5,-269.8C883.5,-260.91 883.5,-250.78 883.5,-243.75"/>
<polygon fill="midnightblue" stroke="midnightblue" points="880,-270.08 883.5,-280.08 887,-270.08 880,-270.08"/>
</g>
<!-- Node23 -->
<g id="node23" class="node">
<title>Node23</title>
<g id="a_node23"><a xlink:href="../../d5/d69/a00878.html" target="_top" xlink:title=" ">
<polygon fill="none" stroke="black" points="958,-224.5 958,-243.5 1069,-243.5 1069,-224.5 958,-224.5"/>
<text text-anchor="middle" x="1013.5" y="-231.5" font-family="Helvetica,sans-Serif" font-size="10.00">WebHookEntities.cpp</text>
</a>
</g>
</g>
<!-- Node1&#45;&gt;Node23 -->
<g id="edge27" class="edge">
<title>Node1&#45;&gt;Node23</title>
<path fill="none" stroke="midnightblue" d="M913.59,-276.5C937.96,-266.38 971.64,-252.39 993,-243.52"/>
<polygon fill="midnightblue" stroke="midnightblue" points="911.99,-273.38 904.1,-280.44 914.68,-279.84 911.99,-273.38"/>
</g>
<!-- Node3 -->
<g id="node3" class="node">
<title>Node3</title>
<g id="a_node3"><a xlink:href="../../da/d96/a00782.html" target="_top" xlink:title=" ">
<polygon fill="none" stroke="black" points="0,-56.5 0,-75.5 161,-75.5 161,-56.5 0,-56.5"/>
<text text-anchor="middle" x="80.5" y="-63.5" font-family="Helvetica,sans-Serif" font-size="10.00">ApplicationCommandEntities.cpp</text>
</a>
</g>
</g>
<!-- Node2&#45;&gt;Node3 -->
<g id="edge2" class="edge">
<title>Node2&#45;&gt;Node3</title>
<path fill="none" stroke="midnightblue" d="M624.51,-115.54C525.14,-107.38 332.85,-91.3 169.5,-76 166.72,-75.74 163.88,-75.47 161.03,-75.2"/>
<polygon fill="midnightblue" stroke="midnightblue" points="624.45,-119.05 634.7,-116.38 625.02,-112.07 624.45,-119.05"/>
</g>
<!-- Node4 -->
<g id="node4" class="node">
<title>Node4</title>
<g id="a_node4"><a xlink:href="../../d0/dad/a00806.html" target="_top" xlink:title=" ">
<polygon fill="none" stroke="black" points="179,-56.5 179,-75.5 292,-75.5 292,-56.5 179,-56.5"/>
<text text-anchor="middle" x="235.5" y="-63.5" font-family="Helvetica,sans-Serif" font-size="10.00">DiscordCoreClient.cpp</text>
</a>
</g>
</g>
<!-- Node2&#45;&gt;Node4 -->
<g id="edge3" class="edge">
<title>Node2&#45;&gt;Node4</title>
<path fill="none" stroke="midnightblue" d="M624.64,-113.78C546.74,-105.25 414.19,-90.41 300.5,-76 297.79,-75.66 295.01,-75.3 292.21,-74.93"/>
<polygon fill="midnightblue" stroke="midnightblue" points="624.47,-117.28 634.79,-114.89 625.23,-110.32 624.47,-117.28"/>
</g>
<!-- Node5 -->
<g id="node5" class="node">
<title>Node5</title>
<g id="a_node5"><a xlink:href="../../d8/d2d/a00815.html" target="_top" xlink:title=" ">
<polygon fill="none" stroke="black" points="310,-56.5 310,-75.5 407,-75.5 407,-56.5 310,-56.5"/>
<text text-anchor="middle" x="358.5" y="-63.5" font-family="Helvetica,sans-Serif" font-size="10.00">EventManager.cpp</text>
</a>
</g>
</g>
<!-- Node2&#45;&gt;Node5 -->
<g id="edge4" class="edge">
<title>Node2&#45;&gt;Node5</title>
<path fill="none" stroke="midnightblue" d="M628.72,-110.82C564.44,-100.4 465.86,-84.41 407.23,-74.9"/>
<polygon fill="midnightblue" stroke="midnightblue" points="628.3,-114.3 638.74,-112.44 629.42,-107.39 628.3,-114.3"/>
</g>
<!-- Node6 -->
<g id="node6" class="node">
<title>Node6</title>
<g id="a_node6"><a xlink:href="../../d6/d8b/a00821.html" target="_top" xlink:title=" ">
<polygon fill="none" stroke="black" points="425,-56.5 425,-75.5 516,-75.5 516,-56.5 425,-56.5"/>
<text text-anchor="middle" x="470.5" y="-63.5" font-family="Helvetica,sans-Serif" font-size="10.00">GuildEntities.cpp</text>
</a>
</g>
</g>
<!-- Node2&#45;&gt;Node6 -->
<g id="edge5" class="edge">
<title>Node2&#45;&gt;Node6</title>
<path fill="none" stroke="midnightblue" d="M646.58,-110.02C604.83,-99.82 543.52,-84.84 505.35,-75.52"/>
<polygon fill="midnightblue" stroke="midnightblue" points="645.94,-113.47 656.48,-112.44 647.6,-106.67 645.94,-113.47"/>
</g>
<!-- Node7 -->
<g id="node7" class="node">
<title>Node7</title>
<g id="a_node7"><a xlink:href="../../d9/daf/a00830.html" target="_top" xlink:title=" ">
<polygon fill="none" stroke="black" points="534,-56.5 534,-75.5 593,-75.5 593,-56.5 534,-56.5"/>
<text text-anchor="middle" x="563.5" y="-63.5" font-family="Helvetica,sans-Serif" font-size="10.00">Https.cpp</text>
</a>
</g>
</g>
<!-- Node2&#45;&gt;Node7 -->
<g id="edge6" class="edge">
<title>Node2&#45;&gt;Node7</title>
<path fill="none" stroke="midnightblue" d="M661.88,-108.5C637.88,-98.38 604.72,-84.39 583.69,-75.52"/>
<polygon fill="midnightblue" stroke="midnightblue" points="660.64,-111.78 671.22,-112.44 663.36,-105.33 660.64,-111.78"/>
</g>
<!-- Node8 -->
<g id="node8" class="node">
<title>Node8</title>
<g id="a_node8"><a xlink:href="../../d8/db9/a00725.html" target="_top" xlink:title=" ">
<polygon fill="none" stroke="black" points="611,-56.5 611,-75.5 670,-75.5 670,-56.5 611,-56.5"/>
<text text-anchor="middle" x="640.5" y="-63.5" font-family="Helvetica,sans-Serif" font-size="10.00">Index.hpp</text>
</a>
</g>
</g>
<!-- Node2&#45;&gt;Node8 -->
<g id="edge7" class="edge">
<title>Node2&#45;&gt;Node8</title>
<path fill="none" stroke="midnightblue" d="M676.12,-104.72C667.13,-95.2 656.14,-83.56 648.76,-75.75"/>
<polygon fill="midnightblue" stroke="midnightblue" points="673.67,-107.22 683.08,-112.08 678.76,-102.41 673.67,-107.22"/>
</g>
<!-- Node10 -->
<g id="node10" class="node">
<title>Node10</title>
<g id="a_node10"><a xlink:href="../../df/de8/a00839.html" target="_top" xlink:title=" ">
<polygon fill="none" stroke="black" points="688.5,-56.5 688.5,-75.5 796.5,-75.5 796.5,-56.5 688.5,-56.5"/>
<text text-anchor="middle" x="742.5" y="-63.5" font-family="Helvetica,sans-Serif" font-size="10.00">MessageEntities.cpp</text>
</a>
</g>
</g>
<!-- Node2&#45;&gt;Node10 -->
<g id="edge9" class="edge">
<title>Node2&#45;&gt;Node10</title>
<path fill="none" stroke="midnightblue" d="M706.88,-104.72C715.87,-95.2 726.86,-83.56 734.24,-75.75"/>
<polygon fill="midnightblue" stroke="midnightblue" points="704.24,-102.41 699.92,-112.08 709.33,-107.22 704.24,-102.41"/>
</g>
<!-- Node11 -->
<g id="node11" class="node">
<title>Node11</title>
<g id="a_node11"><a xlink:href="../../d9/d30/a00848.html" target="_top" xlink:title=" ">
<polygon fill="none" stroke="black" points="814.5,-56.5 814.5,-75.5 888.5,-75.5 888.5,-56.5 814.5,-56.5"/>
<text text-anchor="middle" x="851.5" y="-63.5" font-family="Helvetica,sans-Serif" font-size="10.00">SongAPI.cpp</text>
</a>
</g>
</g>
<!-- Node2&#45;&gt;Node11 -->
<g id="edge10" class="edge">
<title>Node2&#45;&gt;Node11</title>
<path fill="none" stroke="midnightblue" d="M726.55,-109.17C756.67,-99 799.4,-84.59 826.27,-75.52"/>
<polygon fill="midnightblue" stroke="midnightblue" points="725.21,-105.93 716.85,-112.44 727.45,-112.56 725.21,-105.93"/>
</g>
<!-- Node12 -->
<g id="node12" class="node">
<title>Node12</title>
<g id="a_node12"><a xlink:href="../../df/d4c/a00851.html" target="_top" xlink:title=" ">
<polygon fill="none" stroke="black" points="906.5,-56.5 906.5,-75.5 1010.5,-75.5 1010.5,-56.5 906.5,-56.5"/>
<text text-anchor="middle" x="958.5" y="-63.5" font-family="Helvetica,sans-Serif" font-size="10.00">SoundCloudAPI.cpp</text>
</a>
</g>
</g>
<!-- Node2&#45;&gt;Node12 -->
<g id="edge11" class="edge">
<title>Node2&#45;&gt;Node12</title>
<path fill="none" stroke="midnightblue" d="M743.86,-110.41C794.32,-100.2 869.7,-84.96 916.39,-75.52"/>
<polygon fill="midnightblue" stroke="midnightblue" points="742.91,-107.03 733.81,-112.44 744.3,-113.89 742.91,-107.03"/>
</g>
<!-- Node13 -->
<g id="node13" class="node">
<title>Node13</title>
<g id="a_node13"><a xlink:href="../../d1/d93/a00875.html" target="_top" xlink:title=" ">
<polygon fill="none" stroke="black" points="1029,-56.5 1029,-75.5 1138,-75.5 1138,-56.5 1029,-56.5"/>
<text text-anchor="middle" x="1083.5" y="-63.5" font-family="Helvetica,sans-Serif" font-size="10.00">VoiceConnection.cpp</text>
</a>
</g>
</g>
<!-- Node2&#45;&gt;Node13 -->
<g id="edge12" class="edge">
<title>Node2&#45;&gt;Node13</title>
<path fill="none" stroke="midnightblue" d="M758.27,-111.76C875.04,-95.7 905.84,-91.77 1019.5,-76 1022.5,-75.58 1025.58,-75.15 1028.69,-74.72"/>
<polygon fill="midnightblue" stroke="midnightblue" points="757.65,-108.31 748.22,-113.14 758.6,-115.25 757.65,-108.31"/>
</g>
<!-- Node14 -->
<g id="node14" class="node">
<title>Node14</title>
<g id="a_node14"><a xlink:href="../../df/d41/a00881.html" target="_top" xlink:title=" ">
<polygon fill="none" stroke="black" points="1156,-56.5 1156,-75.5 1275,-75.5 1275,-56.5 1156,-56.5"/>
<text text-anchor="middle" x="1215.5" y="-63.5" font-family="Helvetica,sans-Serif" font-size="10.00">WebSocketEntities.cpp</text>
</a>
</g>
</g>
<!-- Node2&#45;&gt;Node14 -->
<g id="edge13" class="edge">
<title>Node2&#45;&gt;Node14</title>
<path fill="none" stroke="midnightblue" d="M758.17,-111.85C931.55,-92.15 977.29,-95.09 1147.5,-76 1150.22,-75.69 1153,-75.37 1155.81,-75.04"/>
<polygon fill="midnightblue" stroke="midnightblue" points="757.74,-108.38 748.2,-112.99 758.53,-115.33 757.74,-108.38"/>
</g>
<!-- Node15 -->
<g id="node15" class="node">
<title>Node15</title>
<g id="a_node15"><a xlink:href="../../dd/d08/a00884.html" target="_top" xlink:title=" ">
<polygon fill="none" stroke="black" points="1293,-56.5 1293,-75.5 1382,-75.5 1382,-56.5 1293,-56.5"/>
<text text-anchor="middle" x="1337.5" y="-63.5" font-family="Helvetica,sans-Serif" font-size="10.00">YouTubeAPI.cpp</text>
</a>
</g>
</g>
<!-- Node2&#45;&gt;Node15 -->
<g id="edge14" class="edge">
<title>Node2&#45;&gt;Node15</title>
<path fill="none" stroke="midnightblue" d="M758.38,-111.87C992.22,-88.3 1054.24,-103.33 1284.5,-76 1287.19,-75.68 1289.95,-75.32 1292.73,-74.93"/>
<polygon fill="midnightblue" stroke="midnightblue" points="757.78,-108.42 748.19,-112.91 758.5,-115.38 757.78,-108.42"/>
</g>
<!-- Node9 -->
<g id="node9" class="node">
<title>Node9</title>
<g id="a_node9"><a xlink:href="../../dd/d7e/a00809.html" target="_top" xlink:title=" ">
<polygon fill="none" stroke="black" points="606.5,-0.5 606.5,-19.5 674.5,-19.5 674.5,-0.5 606.5,-0.5"/>
<text text-anchor="middle" x="640.5" y="-7.5" font-family="Helvetica,sans-Serif" font-size="10.00">DllMain.cpp</text>
</a>
</g>
</g>
<!-- Node8&#45;&gt;Node9 -->
<g id="edge8" class="edge">
<title>Node8&#45;&gt;Node9</title>
<path fill="none" stroke="midnightblue" d="M640.5,-45.8C640.5,-36.91 640.5,-26.78 640.5,-19.75"/>
<polygon fill="midnightblue" stroke="midnightblue" points="637,-46.08 640.5,-56.08 644,-46.08 637,-46.08"/>
</g>
<!-- Node16&#45;&gt;Node2 -->
<g id="edge17" class="edge">
<title>Node16&#45;&gt;Node2</title>
<path fill="none" stroke="midnightblue" d="M859.59,-219.3C819.45,-196.3 739.66,-150.59 706.5,-131.59"/>
<polygon fill="midnightblue" stroke="midnightblue" points="858.02,-222.43 868.43,-224.37 861.5,-216.36 858.02,-222.43"/>
</g>
<!-- Node17 -->
<g id="node17" class="node">
<title>Node17</title>
<g id="a_node17"><a xlink:href="../../df/d0e/a00800.html" target="_top" xlink:title=" ">
<polygon fill="none" stroke="black" points="766,-112.5 766,-131.5 897,-131.5 897,-112.5 766,-112.5"/>
<text text-anchor="middle" x="831.5" y="-119.5" font-family="Helvetica,sans-Serif" font-size="10.00">DataParsingFunctions.cpp</text>
</a>
</g>
</g>
<!-- Node16&#45;&gt;Node17 -->
<g id="edge16" class="edge">
<title>Node16&#45;&gt;Node17</title>
<path fill="none" stroke="midnightblue" d="M852.12,-219.83C838.92,-212.53 824.92,-202.05 817.5,-188 807.79,-169.63 818.66,-144.96 825.96,-131.93"/>
<polygon fill="midnightblue" stroke="midnightblue" points="850.54,-222.96 861.04,-224.38 853.72,-216.72 850.54,-222.96"/>
</g>
<!-- Node18 -->
<g id="node18" class="node">
<title>Node18</title>
<g id="a_node18"><a xlink:href="../../d3/d60/a00818.html" target="_top" xlink:title=" ">
<polygon fill="none" stroke="black" points="1019.5,-112.5 1019.5,-131.5 1135.5,-131.5 1135.5,-112.5 1019.5,-112.5"/>
<text text-anchor="middle" x="1077.5" y="-119.5" font-family="Helvetica,sans-Serif" font-size="10.00">FoundationEntities.cpp</text>
</a>
</g>
</g>
<!-- Node16&#45;&gt;Node18 -->
<g id="edge18" class="edge">
<title>Node16&#45;&gt;Node18</title>
<path fill="none" stroke="midnightblue" d="M946.2,-222.63C987.82,-214.61 1037.61,-202.45 1053.5,-188 1070.05,-172.95 1075.22,-145.45 1076.81,-131.55"/>
<polygon fill="midnightblue" stroke="midnightblue" points="945.56,-219.19 936.37,-224.48 946.85,-226.07 945.56,-219.19"/>
</g>
<!-- Node19 -->
<g id="node19" class="node">
<title>Node19</title>
<g id="a_node19"><a xlink:href="../../df/d3b/a00728.html" target="_top" xlink:title=" ">
<polygon fill="none" stroke="black" points="958.5,-168.5 958.5,-187.5 1044.5,-187.5 1044.5,-168.5 958.5,-168.5"/>
<text text-anchor="middle" x="1001.5" y="-175.5" font-family="Helvetica,sans-Serif" font-size="10.00">InputEvents.hpp</text>
</a>
</g>
</g>
<!-- Node16&#45;&gt;Node19 -->
<g id="edge19" class="edge">
<title>Node16&#45;&gt;Node19</title>
<path fill="none" stroke="midnightblue" d="M911.4,-220.23C933.47,-210.13 963.68,-196.31 982.89,-187.52"/>
<polygon fill="midnightblue" stroke="midnightblue" points="909.83,-217.1 902.2,-224.44 912.75,-223.46 909.83,-217.1"/>
</g>
<!-- Node21 -->
<g id="node21" class="node">
<title>Node21</title>
<g id="a_node21"><a xlink:href="../../dc/d17/a00872.html" target="_top" xlink:title=" ">
<polygon fill="none" stroke="black" points="1153.5,-112.5 1153.5,-131.5 1221.5,-131.5 1221.5,-112.5 1153.5,-112.5"/>
<text text-anchor="middle" x="1187.5" y="-119.5" font-family="Helvetica,sans-Serif" font-size="10.00">Utilities.cpp</text>
</a>
</g>
</g>
<!-- Node16&#45;&gt;Node21 -->
<g id="edge26" class="edge">
<title>Node16&#45;&gt;Node21</title>
<path fill="none" stroke="midnightblue" d="M948.13,-222.62C985.82,-215.38 1033.79,-204.11 1074.5,-188 1113.43,-172.6 1155.11,-145.51 1175.23,-131.67"/>
<polygon fill="midnightblue" stroke="midnightblue" points="947.48,-219.18 938.29,-224.46 948.76,-226.06 947.48,-219.18"/>
</g>
<!-- Node22 -->
<g id="node22" class="node">
<title>Node22</title>
<g id="a_node22"><a xlink:href="../../d3/d13/a00836.html" target="_top" xlink:title=" ">
<polygon fill="none" stroke="black" points="827,-168.5 827,-187.5 940,-187.5 940,-168.5 827,-168.5"/>
<text text-anchor="middle" x="883.5" y="-175.5" font-family="Helvetica,sans-Serif" font-size="10.00">InteractionEntities.cpp</text>
</a>
</g>
</g>
<!-- Node16&#45;&gt;Node22 -->
<g id="edge25" class="edge">
<title>Node16&#45;&gt;Node22</title>
<path fill="none" stroke="midnightblue" d="M883.5,-213.8C883.5,-204.91 883.5,-194.78 883.5,-187.75"/>
<polygon fill="midnightblue" stroke="midnightblue" points="880,-214.08 883.5,-224.08 887,-214.08 880,-214.08"/>
</g>
<!-- Node19&#45;&gt;Node2 -->
<g id="edge21" class="edge">
<title>Node19&#45;&gt;Node2</title>
<path fill="none" stroke="midnightblue" d="M948.27,-167.73C889.88,-157.56 796.96,-141.37 740.36,-131.51"/>
<polygon fill="midnightblue" stroke="midnightblue" points="947.94,-171.22 958.4,-169.49 949.14,-164.33 947.94,-171.22"/>
</g>
<!-- Node19&#45;&gt;Node17 -->
<g id="edge20" class="edge">
<title>Node19&#45;&gt;Node17</title>
<path fill="none" stroke="midnightblue" d="M964.68,-165.3C932.65,-155.13 886.98,-140.62 858.31,-131.52"/>
<polygon fill="midnightblue" stroke="midnightblue" points="963.97,-168.75 974.56,-168.44 966.09,-162.08 963.97,-168.75"/>
</g>
<!-- Node19&#45;&gt;Node18 -->
<g id="edge22" class="edge">
<title>Node19&#45;&gt;Node18</title>
<path fill="none" stroke="midnightblue" d="M1022.08,-162.38C1035.81,-152.62 1053.43,-140.11 1065.07,-131.83"/>
<polygon fill="midnightblue" stroke="midnightblue" points="1019.84,-159.68 1013.71,-168.32 1023.89,-165.38 1019.84,-159.68"/>
</g>
<!-- Node20 -->
<g id="node20" class="node">
<title>Node20</title>
<g id="a_node20"><a xlink:href="../../dc/d6e/a00833.html" target="_top" xlink:title=" ">
<polygon fill="none" stroke="black" points="915.5,-112.5 915.5,-131.5 1001.5,-131.5 1001.5,-112.5 915.5,-112.5"/>
<text text-anchor="middle" x="958.5" y="-119.5" font-family="Helvetica,sans-Serif" font-size="10.00">InputEvents.cpp</text>
</a>
</g>
</g>
<!-- Node19&#45;&gt;Node20 -->
<g id="edge23" class="edge">
<title>Node19&#45;&gt;Node20</title>
<path fill="none" stroke="midnightblue" d="M988.08,-160.14C980.59,-150.74 971.56,-139.4 965.47,-131.75"/>
<polygon fill="midnightblue" stroke="midnightblue" points="985.43,-162.44 994.4,-168.08 990.91,-158.08 985.43,-162.44"/>
</g>
<!-- Node19&#45;&gt;Node21 -->
<g id="edge24" class="edge">
<title>Node19&#45;&gt;Node21</title>
<path fill="none" stroke="midnightblue" d="M1040.88,-165.57C1075.97,-155.38 1126.52,-140.7 1158.17,-131.52"/>
<polygon fill="midnightblue" stroke="midnightblue" points="1039.6,-162.29 1030.97,-168.44 1041.55,-169.02 1039.6,-162.29"/>
</g>
</g>
</svg>
