<?xml version="1.0" encoding="UTF-8" standalone="no"?>
<!DOCTYPE svg PUBLIC "-//W3C//DTD SVG 1.1//EN"
 "http://www.w3.org/Graphics/SVG/1.1/DTD/svg11.dtd">
<!-- Generated by graphviz version 3.0.0 (20220226.1711)
 -->
<!-- Title: DiscordCoreAPI::GuildMembers::timeoutGuildMemberAsync Pages: 1 -->
<svg width="545pt" height="39pt"
 viewBox="0.00 0.00 545.00 39.00" xmlns="http://www.w3.org/2000/svg" xmlns:xlink="http://www.w3.org/1999/xlink">
<g id="graph0" class="graph" transform="scale(1 1) rotate(0) translate(4 35)">
<title>DiscordCoreAPI::GuildMembers::timeoutGuildMemberAsync</title>
<!-- Node1 -->
<g id="node1" class="node">
<title>Node1</title>
<g id="a_node1"><a xlink:title="Times&#45;out a chosen GuildMember from a chosen Guild.">
<polygon fill="#bfbfbf" stroke="black" points="0,-0.5 0,-30.5 155,-30.5 155,-0.5 0,-0.5"/>
<text text-anchor="start" x="8" y="-18.5" font-family="Helvetica,sans-Serif" font-size="10.00">DiscordCoreAPI::GuildMembers</text>
<text text-anchor="middle" x="77.5" y="-7.5" font-family="Helvetica,sans-Serif" font-size="10.00">::timeoutGuildMemberAsync</text>
</a>
</g>
</g>
<!-- Node2 -->
<g id="node2" class="node">
<title>Node2</title>
<g id="a_node2"><a xlink:href="../../d7/d8c/a03049.html#a8985a29afb27c8e010bcf581528e5559" target="_top" xlink:title="Collects a GuildMember from the library&#39;s cache.">
<polygon fill="none" stroke="black" points="191,-0.5 191,-30.5 346,-30.5 346,-0.5 191,-0.5"/>
<text text-anchor="start" x="199" y="-18.5" font-family="Helvetica,sans-Serif" font-size="10.00">DiscordCoreAPI::GuildMembers</text>
<text text-anchor="middle" x="268.5" y="-7.5" font-family="Helvetica,sans-Serif" font-size="10.00">::getCachedGuildMemberAsync</text>
</a>
</g>
</g>
<!-- Node1&#45;&gt;Node2 -->
<g id="edge1" class="edge">
<title>Node1&#45;&gt;Node2</title>
<path fill="none" stroke="midnightblue" d="M155.1,-15.5C163.56,-15.5 172.22,-15.5 180.79,-15.5"/>
<polygon fill="midnightblue" stroke="midnightblue" points="180.79,-19 190.79,-15.5 180.79,-12 180.79,-19"/>
</g>
<!-- Node3 -->
<g id="node3" class="node">
<title>Node3</title>
<g id="a_node3"><a xlink:href="../../d7/d8c/a03049.html#a997c281bf11d3d686116c2f6dc35bf5b" target="_top" xlink:title="Collects a GuildMember from the Discord servers.">
<polygon fill="none" stroke="black" points="382,-0.5 382,-30.5 537,-30.5 537,-0.5 382,-0.5"/>
<text text-anchor="start" x="390" y="-18.5" font-family="Helvetica,sans-Serif" font-size="10.00">DiscordCoreAPI::GuildMembers</text>
<text text-anchor="middle" x="459.5" y="-7.5" font-family="Helvetica,sans-Serif" font-size="10.00">::getGuildMemberAsync</text>
</a>
</g>
</g>
<!-- Node2&#45;&gt;Node3 -->
<g id="edge2" class="edge">
<title>Node2&#45;&gt;Node3</title>
<path fill="none" stroke="midnightblue" d="M346.1,-15.5C354.56,-15.5 363.22,-15.5 371.79,-15.5"/>
<polygon fill="midnightblue" stroke="midnightblue" points="371.79,-19 381.79,-15.5 371.79,-12 371.79,-19"/>
</g>
</g>
</svg>
