<?xml version="1.0" encoding="UTF-8" standalone="no"?>
<!DOCTYPE svg PUBLIC "-//W3C//DTD SVG 1.1//EN"
 "http://www.w3.org/Graphics/SVG/1.1/DTD/svg11.dtd">
<!-- Generated by graphviz version 3.0.0 (20220226.1711)
 -->
<!-- Title: InteractionEntities.cpp Pages: 1 -->
<svg width="1952pt" height="554pt"
 viewBox="0.00 0.00 1951.50 554.00" xmlns="http://www.w3.org/2000/svg" xmlns:xlink="http://www.w3.org/1999/xlink">
<g id="graph0" class="graph" transform="scale(1 1) rotate(0) translate(4 550)">
<title>InteractionEntities.cpp</title>
<!-- Node1 -->
<g id="node1" class="node">
<title>Node1</title>
<g id="a_node1"><a xlink:title=" ">
<polygon fill="#bfbfbf" stroke="black" points="897.5,-526.5 897.5,-545.5 1010.5,-545.5 1010.5,-526.5 897.5,-526.5"/>
<text text-anchor="middle" x="954" y="-533.5" font-family="Helvetica,sans-Serif" font-size="10.00">InteractionEntities.cpp</text>
</a>
</g>
</g>
<!-- Node2 -->
<g id="node2" class="node">
<title>Node2</title>
<g id="a_node2"><a xlink:href="../../df/df7/a00731.html" target="_top" xlink:title=" ">
<polygon fill="none" stroke="black" points="108,-459.5 108,-489.5 236,-489.5 236,-459.5 108,-459.5"/>
<text text-anchor="start" x="116" y="-477.5" font-family="Helvetica,sans-Serif" font-size="10.00">discordcoreapi/Interaction</text>
<text text-anchor="middle" x="172" y="-466.5" font-family="Helvetica,sans-Serif" font-size="10.00">Entities.hpp</text>
</a>
</g>
</g>
<!-- Node1&#45;&gt;Node2 -->
<g id="edge1" class="edge">
<title>Node1&#45;&gt;Node2</title>
<path fill="none" stroke="midnightblue" d="M897.45,-530.7C758.81,-520.15 402.03,-493 246.42,-481.16"/>
<polygon fill="midnightblue" stroke="midnightblue" points="246.26,-477.64 236.02,-480.37 245.73,-484.62 246.26,-477.64"/>
</g>
<!-- Node30 -->
<g id="node30" class="node">
<title>Node30</title>
<g id="a_node30"><a xlink:href="../../db/d7c/a00722.html" target="_top" xlink:title=" ">
<polygon fill="none" stroke="black" points="792.5,-291.5 792.5,-310.5 917.5,-310.5 917.5,-291.5 792.5,-291.5"/>
<text text-anchor="middle" x="855" y="-298.5" font-family="Helvetica,sans-Serif" font-size="10.00">discordcoreapi/Https.hpp</text>
</a>
</g>
</g>
<!-- Node1&#45;&gt;Node30 -->
<g id="edge57" class="edge">
<title>Node1&#45;&gt;Node30</title>
<path fill="none" stroke="midnightblue" d="M950.36,-526.43C935.96,-492.54 882.8,-367.42 862.73,-320.2"/>
<polygon fill="midnightblue" stroke="midnightblue" points="865.91,-318.73 858.78,-310.9 859.47,-321.47 865.91,-318.73"/>
</g>
<!-- Node32 -->
<g id="node32" class="node">
<title>Node32</title>
<g id="a_node32"><a xlink:href="../../d4/d6a/a00704.html" target="_top" xlink:title=" ">
<polygon fill="none" stroke="black" points="1285,-179.5 1285,-198.5 1443,-198.5 1443,-179.5 1285,-179.5"/>
<text text-anchor="middle" x="1364" y="-186.5" font-family="Helvetica,sans-Serif" font-size="10.00">discordcoreapi/EventEntities.hpp</text>
</a>
</g>
</g>
<!-- Node1&#45;&gt;Node32 -->
<g id="edge50" class="edge">
<title>Node1&#45;&gt;Node32</title>
<path fill="none" stroke="midnightblue" d="M1010.55,-528.67C1115.31,-515.36 1329,-480.1 1329,-414 1329,-414 1329,-414 1329,-300 1329,-266.07 1344.31,-228.91 1354.68,-207.63"/>
<polygon fill="midnightblue" stroke="midnightblue" points="1357.88,-209.05 1359.28,-198.54 1351.64,-205.88 1357.88,-209.05"/>
</g>
<!-- Node46 -->
<g id="node46" class="node">
<title>Node46</title>
<g id="a_node46"><a xlink:href="../../d3/d4f/a00761.html" target="_top" xlink:title=" ">
<polygon fill="none" stroke="black" points="961,-347.5 961,-366.5 1111,-366.5 1111,-347.5 961,-347.5"/>
<text text-anchor="middle" x="1036" y="-354.5" font-family="Helvetica,sans-Serif" font-size="10.00">discordcoreapi/ThreadPool.hpp</text>
</a>
</g>
</g>
<!-- Node1&#45;&gt;Node46 -->
<g id="edge51" class="edge">
<title>Node1&#45;&gt;Node46</title>
<path fill="none" stroke="midnightblue" d="M953.02,-526.2C950.98,-503.8 948.32,-443.54 973,-403 981.21,-389.51 995.15,-378.93 1007.84,-371.42"/>
<polygon fill="midnightblue" stroke="midnightblue" points="1009.69,-374.4 1016.75,-366.5 1006.31,-368.27 1009.69,-374.4"/>
</g>
<!-- Node47 -->
<g id="node47" class="node">
<title>Node47</title>
<g id="a_node47"><a xlink:href="../../d5/d5b/a00695.html" target="_top" xlink:title=" ">
<polygon fill="none" stroke="black" points="982,-403.5 982,-422.5 1128,-422.5 1128,-403.5 982,-403.5"/>
<text text-anchor="middle" x="1055" y="-410.5" font-family="Helvetica,sans-Serif" font-size="10.00">discordcoreapi/CoRoutine.hpp</text>
</a>
</g>
</g>
<!-- Node1&#45;&gt;Node47 -->
<g id="edge54" class="edge">
<title>Node1&#45;&gt;Node47</title>
<path fill="none" stroke="midnightblue" d="M961.26,-526.3C978.01,-506.24 1019.53,-456.49 1041.26,-430.46"/>
<polygon fill="midnightblue" stroke="midnightblue" points="1044.08,-432.54 1047.8,-422.62 1038.71,-428.06 1044.08,-432.54"/>
</g>
<!-- Node3 -->
<g id="node3" class="node">
<title>Node3</title>
<g id="a_node3"><a xlink:href="../../d4/deb/a00710.html" target="_top" xlink:title=" ">
<polygon fill="none" stroke="black" points="1115.5,-112.5 1115.5,-142.5 1246.5,-142.5 1246.5,-112.5 1115.5,-112.5"/>
<text text-anchor="start" x="1123.5" y="-130.5" font-family="Helvetica,sans-Serif" font-size="10.00">discordcoreapi/Foundation</text>
<text text-anchor="middle" x="1181" y="-119.5" font-family="Helvetica,sans-Serif" font-size="10.00">Entities.hpp</text>
</a>
</g>
</g>
<!-- Node2&#45;&gt;Node3 -->
<g id="edge2" class="edge">
<title>Node2&#45;&gt;Node3</title>
<path fill="none" stroke="midnightblue" d="M111.84,-459.48C62.24,-443.94 0,-413.39 0,-358 0,-358 0,-358 0,-244 0,-132.5 844.53,-126.98 1105.26,-127.94"/>
<polygon fill="midnightblue" stroke="midnightblue" points="1105.38,-131.44 1115.4,-127.98 1105.41,-124.44 1105.38,-131.44"/>
</g>
<!-- Node29 -->
<g id="node29" class="node">
<title>Node29</title>
<g id="a_node29"><a xlink:href="../../d6/dc0/a00734.html" target="_top" xlink:title=" ">
<polygon fill="none" stroke="black" points="28,-347.5 28,-366.5 202,-366.5 202,-347.5 28,-347.5"/>
<text text-anchor="middle" x="115" y="-354.5" font-family="Helvetica,sans-Serif" font-size="10.00">discordcoreapi/MessageEntities.hpp</text>
</a>
</g>
</g>
<!-- Node2&#45;&gt;Node29 -->
<g id="edge28" class="edge">
<title>Node2&#45;&gt;Node29</title>
<path fill="none" stroke="midnightblue" d="M157.96,-459.16C149.34,-449.62 138.69,-436.41 132,-423 124.68,-408.32 120.27,-390.16 117.78,-376.76"/>
<polygon fill="midnightblue" stroke="midnightblue" points="121.22,-376.11 116.13,-366.82 114.32,-377.26 121.22,-376.11"/>
</g>
<!-- Node45 -->
<g id="node45" class="node">
<title>Node45</title>
<g id="a_node45"><a xlink:href="../../d8/dba/a00773.html" target="_top" xlink:title=" ">
<polygon fill="none" stroke="black" points="141.5,-403.5 141.5,-422.5 318.5,-422.5 318.5,-403.5 141.5,-403.5"/>
<text text-anchor="middle" x="230" y="-410.5" font-family="Helvetica,sans-Serif" font-size="10.00">discordcoreapi/WebHookEntities.hpp</text>
</a>
</g>
</g>
<!-- Node2&#45;&gt;Node45 -->
<g id="edge47" class="edge">
<title>Node2&#45;&gt;Node45</title>
<path fill="none" stroke="midnightblue" d="M185.75,-459.4C194.35,-450.58 205.45,-439.18 214.39,-430.02"/>
<polygon fill="midnightblue" stroke="midnightblue" points="217.09,-432.26 221.56,-422.66 212.07,-427.38 217.09,-432.26"/>
</g>
<!-- Node4 -->
<g id="node4" class="node">
<title>Node4</title>
<g id="a_node4"><a xlink:href="../../d5/dae/a00767.html" target="_top" xlink:title=" ">
<polygon fill="none" stroke="black" points="1114,-56.5 1114,-75.5 1248,-75.5 1248,-56.5 1114,-56.5"/>
<text text-anchor="middle" x="1181" y="-63.5" font-family="Helvetica,sans-Serif" font-size="10.00">discordcoreapi/Utilities.hpp</text>
</a>
</g>
</g>
<!-- Node3&#45;&gt;Node4 -->
<g id="edge3" class="edge">
<title>Node3&#45;&gt;Node4</title>
<path fill="none" stroke="midnightblue" d="M1181,-112.4C1181,-104.47 1181,-94.46 1181,-85.86"/>
<polygon fill="midnightblue" stroke="midnightblue" points="1184.5,-85.66 1181,-75.66 1177.5,-85.66 1184.5,-85.66"/>
</g>
<!-- Node5 -->
<g id="node5" class="node">
<title>Node5</title>
<g id="a_node5"><a xlink:title=" ">
<polygon fill="none" stroke="#bfbfbf" points="153.5,-0.5 153.5,-19.5 210.5,-19.5 210.5,-0.5 153.5,-0.5"/>
<text text-anchor="middle" x="182" y="-7.5" font-family="Helvetica,sans-Serif" font-size="10.00">pthread.h</text>
</a>
</g>
</g>
<!-- Node4&#45;&gt;Node5 -->
<g id="edge4" class="edge">
<title>Node4&#45;&gt;Node5</title>
<path fill="none" stroke="midnightblue" d="M1113.87,-63.48C928.58,-59.03 411.65,-44.84 220.47,-19.72"/>
<polygon fill="midnightblue" stroke="midnightblue" points="220.91,-16.24 210.53,-18.36 219.96,-23.18 220.91,-16.24"/>
</g>
<!-- Node6 -->
<g id="node6" class="node">
<title>Node6</title>
<g id="a_node6"><a xlink:title=" ">
<polygon fill="none" stroke="#bfbfbf" points="229,-0.5 229,-19.5 291,-19.5 291,-0.5 229,-0.5"/>
<text text-anchor="middle" x="260" y="-7.5" font-family="Helvetica,sans-Serif" font-size="10.00">sys/time.h</text>
</a>
</g>
</g>
<!-- Node4&#45;&gt;Node6 -->
<g id="edge5" class="edge">
<title>Node4&#45;&gt;Node6</title>
<path fill="none" stroke="midnightblue" d="M1113.77,-65.45C967.49,-65.6 609.37,-61.41 301.37,-19.95"/>
<polygon fill="midnightblue" stroke="midnightblue" points="301.73,-16.47 291.35,-18.58 300.79,-23.4 301.73,-16.47"/>
</g>
<!-- Node7 -->
<g id="node7" class="node">
<title>Node7</title>
<g id="a_node7"><a xlink:title=" ">
<polygon fill="none" stroke="#bfbfbf" points="309,-0.5 309,-19.5 353,-19.5 353,-0.5 309,-0.5"/>
<text text-anchor="middle" x="331" y="-7.5" font-family="Helvetica,sans-Serif" font-size="10.00">time.h</text>
</a>
</g>
</g>
<!-- Node4&#45;&gt;Node7 -->
<g id="edge6" class="edge">
<title>Node4&#45;&gt;Node7</title>
<path fill="none" stroke="midnightblue" d="M1113.97,-63.21C949,-58.49 525.62,-44.52 363.53,-19.58"/>
<polygon fill="midnightblue" stroke="midnightblue" points="363.67,-16.06 353.24,-17.93 362.55,-22.97 363.67,-16.06"/>
</g>
<!-- Node8 -->
<g id="node8" class="node">
<title>Node8</title>
<g id="a_node8"><a xlink:title=" ">
<polygon fill="none" stroke="#bfbfbf" points="371.5,-0.5 371.5,-19.5 412.5,-19.5 412.5,-0.5 371.5,-0.5"/>
<text text-anchor="middle" x="392" y="-7.5" font-family="Helvetica,sans-Serif" font-size="10.00">ctime</text>
</a>
</g>
</g>
<!-- Node4&#45;&gt;Node8 -->
<g id="edge7" class="edge">
<title>Node4&#45;&gt;Node8</title>
<path fill="none" stroke="midnightblue" d="M1113.84,-63.02C957.48,-58.09 571.77,-44.02 422.42,-19.54"/>
<polygon fill="midnightblue" stroke="midnightblue" points="422.95,-16.08 412.5,-17.84 421.77,-22.98 422.95,-16.08"/>
</g>
<!-- Node9 -->
<g id="node9" class="node">
<title>Node9</title>
<g id="a_node9"><a xlink:title=" ">
<polygon fill="none" stroke="#bfbfbf" points="430.5,-0.5 430.5,-19.5 523.5,-19.5 523.5,-0.5 430.5,-0.5"/>
<text text-anchor="middle" x="477" y="-7.5" font-family="Helvetica,sans-Serif" font-size="10.00">condition_variable</text>
</a>
</g>
</g>
<!-- Node4&#45;&gt;Node9 -->
<g id="edge8" class="edge">
<title>Node4&#45;&gt;Node9</title>
<path fill="none" stroke="midnightblue" d="M1113.65,-62.32C997.48,-57.27 751.77,-44.64 533.74,-19.97"/>
<polygon fill="midnightblue" stroke="midnightblue" points="534.04,-16.49 523.71,-18.83 533.25,-23.44 534.04,-16.49"/>
</g>
<!-- Node10 -->
<g id="node10" class="node">
<title>Node10</title>
<g id="a_node10"><a xlink:title=" ">
<polygon fill="none" stroke="#bfbfbf" points="542,-0.5 542,-19.5 640,-19.5 640,-0.5 542,-0.5"/>
<text text-anchor="middle" x="591" y="-7.5" font-family="Helvetica,sans-Serif" font-size="10.00">nlohmann/json.hpp</text>
</a>
</g>
</g>
<!-- Node4&#45;&gt;Node10 -->
<g id="edge9" class="edge">
<title>Node4&#45;&gt;Node10</title>
<path fill="none" stroke="midnightblue" d="M1113.8,-60.75C1014.8,-54.17 823.75,-40.25 650.3,-19.95"/>
<polygon fill="midnightblue" stroke="midnightblue" points="650.56,-16.46 640.22,-18.76 649.74,-23.41 650.56,-16.46"/>
</g>
<!-- Node11 -->
<g id="node11" class="node">
<title>Node11</title>
<g id="a_node11"><a xlink:title=" ">
<polygon fill="none" stroke="#bfbfbf" points="658.5,-0.5 658.5,-19.5 743.5,-19.5 743.5,-0.5 658.5,-0.5"/>
<text text-anchor="middle" x="701" y="-7.5" font-family="Helvetica,sans-Serif" font-size="10.00">source_location</text>
</a>
</g>
</g>
<!-- Node4&#45;&gt;Node11 -->
<g id="edge10" class="edge">
<title>Node4&#45;&gt;Node11</title>
<path fill="none" stroke="midnightblue" d="M1113.74,-59.32C1031.37,-52.06 887.35,-38.35 753.56,-19.99"/>
<polygon fill="midnightblue" stroke="midnightblue" points="753.92,-16.5 743.53,-18.6 752.96,-23.44 753.92,-16.5"/>
</g>
<!-- Node12 -->
<g id="node12" class="node">
<title>Node12</title>
<g id="a_node12"><a xlink:title=" ">
<polygon fill="none" stroke="#bfbfbf" points="761.5,-0.5 761.5,-19.5 844.5,-19.5 844.5,-0.5 761.5,-0.5"/>
<text text-anchor="middle" x="803" y="-7.5" font-family="Helvetica,sans-Serif" font-size="10.00">unordered_map</text>
</a>
</g>
</g>
<!-- Node4&#45;&gt;Node12 -->
<g id="edge11" class="edge">
<title>Node4&#45;&gt;Node12</title>
<path fill="none" stroke="midnightblue" d="M1113.88,-56.52C1049.96,-48.27 950.79,-35.03 854.89,-20.09"/>
<polygon fill="midnightblue" stroke="midnightblue" points="855.15,-16.59 844.73,-18.5 854.06,-23.5 855.15,-16.59"/>
</g>
<!-- Node13 -->
<g id="node13" class="node">
<title>Node13</title>
<g id="a_node13"><a xlink:title=" ">
<polygon fill="none" stroke="#bfbfbf" points="863,-0.5 863,-19.5 941,-19.5 941,-0.5 863,-0.5"/>
<text text-anchor="middle" x="902" y="-7.5" font-family="Helvetica,sans-Serif" font-size="10.00">shared_mutex</text>
</a>
</g>
</g>
<!-- Node4&#45;&gt;Node13 -->
<g id="edge12" class="edge">
<title>Node4&#45;&gt;Node13</title>
<path fill="none" stroke="midnightblue" d="M1136.79,-56.44C1086.23,-46.66 1003.68,-30.68 951.14,-20.51"/>
<polygon fill="midnightblue" stroke="midnightblue" points="951.53,-17.02 941.05,-18.56 950.2,-23.89 951.53,-17.02"/>
</g>
<!-- Node14 -->
<g id="node14" class="node">
<title>Node14</title>
<g id="a_node14"><a xlink:title=" ">
<polygon fill="none" stroke="#bfbfbf" points="959,-0.5 959,-19.5 1017,-19.5 1017,-0.5 959,-0.5"/>
<text text-anchor="middle" x="988" y="-7.5" font-family="Helvetica,sans-Serif" font-size="10.00">functional</text>
</a>
</g>
</g>
<!-- Node4&#45;&gt;Node14 -->
<g id="edge13" class="edge">
<title>Node4&#45;&gt;Node14</title>
<path fill="none" stroke="midnightblue" d="M1150.42,-56.44C1117,-47.09 1063.37,-32.09 1026.96,-21.9"/>
<polygon fill="midnightblue" stroke="midnightblue" points="1027.75,-18.49 1017.17,-19.16 1025.86,-25.23 1027.75,-18.49"/>
</g>
<!-- Node15 -->
<g id="node15" class="node">
<title>Node15</title>
<g id="a_node15"><a xlink:title=" ">
<polygon fill="none" stroke="#bfbfbf" points="1035,-0.5 1035,-19.5 1091,-19.5 1091,-0.5 1035,-0.5"/>
<text text-anchor="middle" x="1063" y="-7.5" font-family="Helvetica,sans-Serif" font-size="10.00">coroutine</text>
</a>
</g>
</g>
<!-- Node4&#45;&gt;Node15 -->
<g id="edge14" class="edge">
<title>Node4&#45;&gt;Node15</title>
<path fill="none" stroke="midnightblue" d="M1162.3,-56.44C1143.06,-47.64 1112.85,-33.81 1090.8,-23.72"/>
<polygon fill="midnightblue" stroke="midnightblue" points="1092.16,-20.5 1081.61,-19.52 1089.25,-26.86 1092.16,-20.5"/>
</g>
<!-- Node16 -->
<g id="node16" class="node">
<title>Node16</title>
<g id="a_node16"><a xlink:title=" ">
<polygon fill="none" stroke="#bfbfbf" points="1109.5,-0.5 1109.5,-19.5 1174.5,-19.5 1174.5,-0.5 1109.5,-0.5"/>
<text text-anchor="middle" x="1142" y="-7.5" font-family="Helvetica,sans-Serif" font-size="10.00">semaphore</text>
</a>
</g>
</g>
<!-- Node4&#45;&gt;Node16 -->
<g id="edge15" class="edge">
<title>Node4&#45;&gt;Node16</title>
<path fill="none" stroke="midnightblue" d="M1174.56,-56.08C1169.05,-48.46 1160.97,-37.26 1154.24,-27.94"/>
<polygon fill="midnightblue" stroke="midnightblue" points="1157.01,-25.81 1148.32,-19.75 1151.34,-29.91 1157.01,-25.81"/>
</g>
<!-- Node17 -->
<g id="node17" class="node">
<title>Node17</title>
<g id="a_node17"><a xlink:title=" ">
<polygon fill="none" stroke="#bfbfbf" points="1193,-0.5 1193,-19.5 1249,-19.5 1249,-0.5 1193,-0.5"/>
<text text-anchor="middle" x="1221" y="-7.5" font-family="Helvetica,sans-Serif" font-size="10.00">concepts</text>
</a>
</g>
</g>
<!-- Node4&#45;&gt;Node17 -->
<g id="edge16" class="edge">
<title>Node4&#45;&gt;Node17</title>
<path fill="none" stroke="midnightblue" d="M1187.61,-56.08C1193.26,-48.46 1201.54,-37.26 1208.45,-27.94"/>
<polygon fill="midnightblue" stroke="midnightblue" points="1211.38,-29.87 1214.52,-19.75 1205.75,-25.7 1211.38,-29.87"/>
</g>
<!-- Node18 -->
<g id="node18" class="node">
<title>Node18</title>
<g id="a_node18"><a xlink:title=" ">
<polygon fill="none" stroke="#bfbfbf" points="1267,-0.5 1267,-19.5 1321,-19.5 1321,-0.5 1267,-0.5"/>
<text text-anchor="middle" x="1294" y="-7.5" font-family="Helvetica,sans-Serif" font-size="10.00">iostream</text>
</a>
</g>
</g>
<!-- Node4&#45;&gt;Node18 -->
<g id="edge17" class="edge">
<title>Node4&#45;&gt;Node18</title>
<path fill="none" stroke="midnightblue" d="M1198.91,-56.44C1217.25,-47.68 1246.01,-33.94 1267.09,-23.86"/>
<polygon fill="midnightblue" stroke="midnightblue" points="1268.67,-26.99 1276.18,-19.52 1265.65,-20.67 1268.67,-26.99"/>
</g>
<!-- Node19 -->
<g id="node19" class="node">
<title>Node19</title>
<g id="a_node19"><a xlink:title=" ">
<polygon fill="none" stroke="#bfbfbf" points="1339.5,-0.5 1339.5,-19.5 1388.5,-19.5 1388.5,-0.5 1339.5,-0.5"/>
<text text-anchor="middle" x="1364" y="-7.5" font-family="Helvetica,sans-Serif" font-size="10.00">fstream</text>
</a>
</g>
</g>
<!-- Node4&#45;&gt;Node19 -->
<g id="edge18" class="edge">
<title>Node4&#45;&gt;Node19</title>
<path fill="none" stroke="midnightblue" d="M1210,-56.44C1242.47,-46.86 1295.06,-31.34 1329.59,-21.15"/>
<polygon fill="midnightblue" stroke="midnightblue" points="1330.65,-24.49 1339.25,-18.3 1328.67,-17.78 1330.65,-24.49"/>
</g>
<!-- Node20 -->
<g id="node20" class="node">
<title>Node20</title>
<g id="a_node20"><a xlink:title=" ">
<polygon fill="none" stroke="#bfbfbf" points="1406.5,-0.5 1406.5,-19.5 1447.5,-19.5 1447.5,-0.5 1406.5,-0.5"/>
<text text-anchor="middle" x="1427" y="-7.5" font-family="Helvetica,sans-Serif" font-size="10.00">bitset</text>
</a>
</g>
</g>
<!-- Node4&#45;&gt;Node20 -->
<g id="edge19" class="edge">
<title>Node4&#45;&gt;Node20</title>
<path fill="none" stroke="midnightblue" d="M1228.72,-56.48C1270.73,-48.66 1333.73,-36.2 1396.77,-20.14"/>
<polygon fill="midnightblue" stroke="midnightblue" points="1397.67,-23.52 1406.47,-17.64 1395.92,-16.75 1397.67,-23.52"/>
</g>
<!-- Node21 -->
<g id="node21" class="node">
<title>Node21</title>
<g id="a_node21"><a xlink:title=" ">
<polygon fill="none" stroke="#bfbfbf" points="1466,-0.5 1466,-19.5 1518,-19.5 1518,-0.5 1466,-0.5"/>
<text text-anchor="middle" x="1492" y="-7.5" font-family="Helvetica,sans-Serif" font-size="10.00">memory</text>
</a>
</g>
</g>
<!-- Node4&#45;&gt;Node21 -->
<g id="edge20" class="edge">
<title>Node4&#45;&gt;Node21</title>
<path fill="none" stroke="midnightblue" d="M1243.23,-56.49C1297.06,-48.75 1377.16,-36.36 1455.63,-20.14"/>
<polygon fill="midnightblue" stroke="midnightblue" points="1456.61,-23.51 1465.69,-18.04 1455.18,-16.66 1456.61,-23.51"/>
</g>
<!-- Node22 -->
<g id="node22" class="node">
<title>Node22</title>
<g id="a_node22"><a xlink:title=" ">
<polygon fill="none" stroke="#bfbfbf" points="1536.5,-0.5 1536.5,-19.5 1585.5,-19.5 1585.5,-0.5 1536.5,-0.5"/>
<text text-anchor="middle" x="1561" y="-7.5" font-family="Helvetica,sans-Serif" font-size="10.00">random</text>
</a>
</g>
</g>
<!-- Node4&#45;&gt;Node22 -->
<g id="edge21" class="edge">
<title>Node4&#45;&gt;Node22</title>
<path fill="none" stroke="midnightblue" d="M1248.07,-58.88C1315.89,-52.1 1423.85,-39.7 1526.31,-19.9"/>
<polygon fill="midnightblue" stroke="midnightblue" points="1527.06,-23.32 1536.2,-17.96 1525.72,-16.45 1527.06,-23.32"/>
</g>
<!-- Node23 -->
<g id="node23" class="node">
<title>Node23</title>
<g id="a_node23"><a xlink:title=" ">
<polygon fill="none" stroke="#bfbfbf" points="1603.5,-0.5 1603.5,-19.5 1644.5,-19.5 1644.5,-0.5 1603.5,-0.5"/>
<text text-anchor="middle" x="1624" y="-7.5" font-family="Helvetica,sans-Serif" font-size="10.00">string</text>
</a>
</g>
</g>
<!-- Node4&#45;&gt;Node23 -->
<g id="edge22" class="edge">
<title>Node4&#45;&gt;Node23</title>
<path fill="none" stroke="midnightblue" d="M1248.3,-61.68C1328.64,-56.82 1467.05,-45.63 1593.37,-20.01"/>
<polygon fill="midnightblue" stroke="midnightblue" points="1594.13,-23.42 1603.22,-17.98 1592.72,-16.57 1594.13,-23.42"/>
</g>
<!-- Node24 -->
<g id="node24" class="node">
<title>Node24</title>
<g id="a_node24"><a xlink:title=" ">
<polygon fill="none" stroke="#bfbfbf" points="1663,-0.5 1663,-19.5 1705,-19.5 1705,-0.5 1663,-0.5"/>
<text text-anchor="middle" x="1684" y="-7.5" font-family="Helvetica,sans-Serif" font-size="10.00">vector</text>
</a>
</g>
</g>
<!-- Node4&#45;&gt;Node24 -->
<g id="edge23" class="edge">
<title>Node4&#45;&gt;Node24</title>
<path fill="none" stroke="midnightblue" d="M1248.18,-62.76C1338.34,-58.84 1503.49,-48.43 1652.57,-19.91"/>
<polygon fill="midnightblue" stroke="midnightblue" points="1653.68,-23.26 1662.82,-17.91 1652.34,-16.39 1653.68,-23.26"/>
</g>
<!-- Node25 -->
<g id="node25" class="node">
<title>Node25</title>
<g id="a_node25"><a xlink:title=" ">
<polygon fill="none" stroke="#bfbfbf" points="1723,-0.5 1723,-19.5 1767,-19.5 1767,-0.5 1723,-0.5"/>
<text text-anchor="middle" x="1745" y="-7.5" font-family="Helvetica,sans-Serif" font-size="10.00">thread</text>
</a>
</g>
</g>
<!-- Node4&#45;&gt;Node25 -->
<g id="edge24" class="edge">
<title>Node4&#45;&gt;Node25</title>
<path fill="none" stroke="midnightblue" d="M1248.04,-63.59C1347.69,-60.57 1540.75,-51.11 1712.78,-19.87"/>
<polygon fill="midnightblue" stroke="midnightblue" points="1713.58,-23.28 1722.78,-18.02 1712.31,-16.4 1713.58,-23.28"/>
</g>
<!-- Node26 -->
<g id="node26" class="node">
<title>Node26</title>
<g id="a_node26"><a xlink:title=" ">
<polygon fill="none" stroke="#bfbfbf" points="1785,-0.5 1785,-19.5 1829,-19.5 1829,-0.5 1785,-0.5"/>
<text text-anchor="middle" x="1807" y="-7.5" font-family="Helvetica,sans-Serif" font-size="10.00">mutex</text>
</a>
</g>
</g>
<!-- Node4&#45;&gt;Node26 -->
<g id="edge25" class="edge">
<title>Node4&#45;&gt;Node26</title>
<path fill="none" stroke="midnightblue" d="M1248.05,-64.43C1356.99,-62.53 1579.12,-54.54 1774.89,-19.83"/>
<polygon fill="midnightblue" stroke="midnightblue" points="1775.56,-23.26 1784.78,-18.05 1774.32,-16.38 1775.56,-23.26"/>
</g>
<!-- Node27 -->
<g id="node27" class="node">
<title>Node27</title>
<g id="a_node27"><a xlink:title=" ">
<polygon fill="none" stroke="#bfbfbf" points="1847.5,-0.5 1847.5,-19.5 1890.5,-19.5 1890.5,-0.5 1847.5,-0.5"/>
<text text-anchor="middle" x="1869" y="-7.5" font-family="Helvetica,sans-Serif" font-size="10.00">queue</text>
</a>
</g>
</g>
<!-- Node4&#45;&gt;Node27 -->
<g id="edge26" class="edge">
<title>Node4&#45;&gt;Node27</title>
<path fill="none" stroke="midnightblue" d="M1248.26,-65.12C1366.04,-64.3 1617.2,-57.97 1837.33,-19.68"/>
<polygon fill="midnightblue" stroke="midnightblue" points="1838.22,-23.08 1847.46,-17.89 1837,-16.19 1838.22,-23.08"/>
</g>
<!-- Node28 -->
<g id="node28" class="node">
<title>Node28</title>
<g id="a_node28"><a xlink:title=" ">
<polygon fill="none" stroke="#bfbfbf" points="1908.5,-0.5 1908.5,-19.5 1943.5,-19.5 1943.5,-0.5 1908.5,-0.5"/>
<text text-anchor="middle" x="1926" y="-7.5" font-family="Helvetica,sans-Serif" font-size="10.00">map</text>
</a>
</g>
</g>
<!-- Node4&#45;&gt;Node28 -->
<g id="edge27" class="edge">
<title>Node4&#45;&gt;Node28</title>
<path fill="none" stroke="midnightblue" d="M1248.09,-63.12C1398.19,-58.54 1758.3,-45.43 1898.19,-19.79"/>
<polygon fill="midnightblue" stroke="midnightblue" points="1899.12,-23.18 1908.27,-17.85 1897.79,-16.31 1899.12,-23.18"/>
</g>
<!-- Node29&#45;&gt;Node3 -->
<g id="edge29" class="edge">
<title>Node29&#45;&gt;Node3</title>
<path fill="none" stroke="midnightblue" d="M114.47,-347.11C113.23,-317.47 113.72,-221.55 168,-179 204.74,-150.2 876.06,-134.45 1105.14,-129.9"/>
<polygon fill="midnightblue" stroke="midnightblue" points="1105.46,-133.4 1115.38,-129.7 1105.32,-126.4 1105.46,-133.4"/>
</g>
<!-- Node29&#45;&gt;Node30 -->
<g id="edge30" class="edge">
<title>Node29&#45;&gt;Node30</title>
<path fill="none" stroke="midnightblue" d="M202.06,-349.65C349.48,-338.89 645.52,-317.29 782.46,-307.29"/>
<polygon fill="midnightblue" stroke="midnightblue" points="782.72,-310.78 792.44,-306.57 782.21,-303.8 782.72,-310.78"/>
</g>
<!-- Node31 -->
<g id="node31" class="node">
<title>Node31</title>
<g id="a_node31"><a xlink:href="../../d5/de8/a00749.html" target="_top" xlink:title=" ">
<polygon fill="none" stroke="black" points="721,-235.5 721,-254.5 871,-254.5 871,-235.5 721,-235.5"/>
<text text-anchor="middle" x="796" y="-242.5" font-family="Helvetica,sans-Serif" font-size="10.00">discordcoreapi/SSLClients.hpp</text>
</a>
</g>
</g>
<!-- Node30&#45;&gt;Node31 -->
<g id="edge31" class="edge">
<title>Node30&#45;&gt;Node31</title>
<path fill="none" stroke="midnightblue" d="M845.52,-291.32C836.8,-283.34 823.66,-271.31 813.1,-261.65"/>
<polygon fill="midnightblue" stroke="midnightblue" points="815.39,-259 805.65,-254.83 810.67,-264.17 815.39,-259"/>
</g>
<!-- Node31&#45;&gt;Node3 -->
<g id="edge32" class="edge">
<title>Node31&#45;&gt;Node3</title>
<path fill="none" stroke="midnightblue" d="M871.25,-244.35C965.53,-243.2 1119.88,-235.57 1162,-199 1175.14,-187.59 1179.65,-168.14 1181.01,-152.55"/>
<polygon fill="midnightblue" stroke="midnightblue" points="1184.51,-152.69 1181.51,-142.53 1177.52,-152.34 1184.51,-152.69"/>
</g>
<!-- Node31&#45;&gt;Node32 -->
<g id="edge33" class="edge">
<title>Node31&#45;&gt;Node32</title>
<path fill="none" stroke="midnightblue" d="M871.13,-236.86C975.37,-226.95 1163.54,-209.06 1274.78,-198.48"/>
<polygon fill="midnightblue" stroke="midnightblue" points="1275.35,-201.94 1284.97,-197.51 1274.69,-194.98 1275.35,-201.94"/>
</g>
<!-- Node33 -->
<g id="node33" class="node">
<title>Node33</title>
<g id="a_node33"><a xlink:title=" ">
<polygon fill="none" stroke="#bfbfbf" points="365.5,-179.5 365.5,-198.5 438.5,-198.5 438.5,-179.5 365.5,-179.5"/>
<text text-anchor="middle" x="402" y="-186.5" font-family="Helvetica,sans-Serif" font-size="10.00">openssl/err.h</text>
</a>
</g>
</g>
<!-- Node31&#45;&gt;Node33 -->
<g id="edge35" class="edge">
<title>Node31&#45;&gt;Node33</title>
<path fill="none" stroke="midnightblue" d="M720.78,-235.7C652.44,-227.82 548.61,-215.06 448.6,-199"/>
<polygon fill="midnightblue" stroke="midnightblue" points="449.05,-195.53 438.62,-197.39 447.93,-202.44 449.05,-195.53"/>
</g>
<!-- Node34 -->
<g id="node34" class="node">
<title>Node34</title>
<g id="a_node34"><a xlink:title=" ">
<polygon fill="none" stroke="#bfbfbf" points="457,-179.5 457,-198.5 531,-198.5 531,-179.5 457,-179.5"/>
<text text-anchor="middle" x="494" y="-186.5" font-family="Helvetica,sans-Serif" font-size="10.00">openssl/ssl.h</text>
</a>
</g>
</g>
<!-- Node31&#45;&gt;Node34 -->
<g id="edge36" class="edge">
<title>Node31&#45;&gt;Node34</title>
<path fill="none" stroke="midnightblue" d="M746.12,-235.42C696.8,-226.88 618.9,-213.27 541.16,-199.01"/>
<polygon fill="midnightblue" stroke="midnightblue" points="541.66,-195.54 531.19,-197.17 540.39,-202.42 541.66,-195.54"/>
</g>
<!-- Node35 -->
<g id="node35" class="node">
<title>Node35</title>
<g id="a_node35"><a xlink:title=" ">
<polygon fill="none" stroke="#bfbfbf" points="549.5,-179.5 549.5,-198.5 592.5,-198.5 592.5,-179.5 549.5,-179.5"/>
<text text-anchor="middle" x="571" y="-186.5" font-family="Helvetica,sans-Serif" font-size="10.00">fcntl.h</text>
</a>
</g>
</g>
<!-- Node31&#45;&gt;Node35 -->
<g id="edge37" class="edge">
<title>Node31&#45;&gt;Node35</title>
<path fill="none" stroke="midnightblue" d="M756.46,-235.49C719.22,-227.33 661.66,-214.34 602.53,-199.02"/>
<polygon fill="midnightblue" stroke="midnightblue" points="603.2,-195.58 592.64,-196.45 601.43,-202.36 603.2,-195.58"/>
</g>
<!-- Node36 -->
<g id="node36" class="node">
<title>Node36</title>
<g id="a_node36"><a xlink:title=" ">
<polygon fill="none" stroke="#bfbfbf" points="610.5,-179.5 610.5,-198.5 659.5,-198.5 659.5,-179.5 610.5,-179.5"/>
<text text-anchor="middle" x="635" y="-186.5" font-family="Helvetica,sans-Serif" font-size="10.00">netdb.h</text>
</a>
</g>
</g>
<!-- Node31&#45;&gt;Node36 -->
<g id="edge38" class="edge">
<title>Node31&#45;&gt;Node36</title>
<path fill="none" stroke="midnightblue" d="M770.49,-235.44C743.17,-226.28 699.65,-211.68 669.33,-201.52"/>
<polygon fill="midnightblue" stroke="midnightblue" points="670.19,-198.11 659.6,-198.25 667.97,-204.75 670.19,-198.11"/>
</g>
<!-- Node37 -->
<g id="node37" class="node">
<title>Node37</title>
<g id="a_node37"><a xlink:title=" ">
<polygon fill="none" stroke="#bfbfbf" points="677.5,-179.5 677.5,-198.5 742.5,-198.5 742.5,-179.5 677.5,-179.5"/>
<text text-anchor="middle" x="710" y="-186.5" font-family="Helvetica,sans-Serif" font-size="10.00">netinet/in.h</text>
</a>
</g>
</g>
<!-- Node31&#45;&gt;Node37 -->
<g id="edge39" class="edge">
<title>Node31&#45;&gt;Node37</title>
<path fill="none" stroke="midnightblue" d="M782.18,-235.32C768.77,-226.9 748.18,-213.97 732.41,-204.07"/>
<polygon fill="midnightblue" stroke="midnightblue" points="734.11,-201.01 723.78,-198.65 730.39,-206.94 734.11,-201.01"/>
</g>
<!-- Node38 -->
<g id="node38" class="node">
<title>Node38</title>
<g id="a_node38"><a xlink:title=" ">
<polygon fill="none" stroke="#bfbfbf" points="760.5,-179.5 760.5,-198.5 831.5,-198.5 831.5,-179.5 760.5,-179.5"/>
<text text-anchor="middle" x="796" y="-186.5" font-family="Helvetica,sans-Serif" font-size="10.00">netinet/tcp.h</text>
</a>
</g>
</g>
<!-- Node31&#45;&gt;Node38 -->
<g id="edge40" class="edge">
<title>Node31&#45;&gt;Node38</title>
<path fill="none" stroke="midnightblue" d="M796,-235.08C796,-228.01 796,-217.86 796,-208.99"/>
<polygon fill="midnightblue" stroke="midnightblue" points="799.5,-208.75 796,-198.75 792.5,-208.75 799.5,-208.75"/>
</g>
<!-- Node39 -->
<g id="node39" class="node">
<title>Node39</title>
<g id="a_node39"><a xlink:title=" ">
<polygon fill="none" stroke="#bfbfbf" points="849.5,-179.5 849.5,-198.5 898.5,-198.5 898.5,-179.5 849.5,-179.5"/>
<text text-anchor="middle" x="874" y="-186.5" font-family="Helvetica,sans-Serif" font-size="10.00">stdint.h</text>
</a>
</g>
</g>
<!-- Node31&#45;&gt;Node39 -->
<g id="edge41" class="edge">
<title>Node31&#45;&gt;Node39</title>
<path fill="none" stroke="midnightblue" d="M808.53,-235.32C820.59,-226.98 839.03,-214.21 853.27,-204.35"/>
<polygon fill="midnightblue" stroke="midnightblue" points="855.27,-207.22 861.5,-198.65 851.28,-201.47 855.27,-207.22"/>
</g>
<!-- Node40 -->
<g id="node40" class="node">
<title>Node40</title>
<g id="a_node40"><a xlink:title=" ">
<polygon fill="none" stroke="#bfbfbf" points="917,-179.5 917,-198.5 981,-198.5 981,-179.5 917,-179.5"/>
<text text-anchor="middle" x="949" y="-186.5" font-family="Helvetica,sans-Serif" font-size="10.00">sys/epoll.h</text>
</a>
</g>
</g>
<!-- Node31&#45;&gt;Node40 -->
<g id="edge42" class="edge">
<title>Node31&#45;&gt;Node40</title>
<path fill="none" stroke="midnightblue" d="M820.24,-235.44C845.87,-226.4 886.49,-212.06 915.24,-201.92"/>
<polygon fill="midnightblue" stroke="midnightblue" points="916.61,-205.15 924.87,-198.52 914.28,-198.54 916.61,-205.15"/>
</g>
<!-- Node41 -->
<g id="node41" class="node">
<title>Node41</title>
<g id="a_node41"><a xlink:title=" ">
<polygon fill="none" stroke="#bfbfbf" points="999,-179.5 999,-198.5 1061,-198.5 1061,-179.5 999,-179.5"/>
<text text-anchor="middle" x="1030" y="-186.5" font-family="Helvetica,sans-Serif" font-size="10.00">arpa/inet.h</text>
</a>
</g>
</g>
<!-- Node31&#45;&gt;Node41 -->
<g id="edge43" class="edge">
<title>Node31&#45;&gt;Node41</title>
<path fill="none" stroke="midnightblue" d="M833.08,-235.44C875.52,-225.65 944.84,-209.65 988.9,-199.48"/>
<polygon fill="midnightblue" stroke="midnightblue" points="989.76,-202.88 998.71,-197.22 988.18,-196.06 989.76,-202.88"/>
</g>
<!-- Node42 -->
<g id="node42" class="node">
<title>Node42</title>
<g id="a_node42"><a xlink:title=" ">
<polygon fill="none" stroke="#bfbfbf" points="1079.5,-179.5 1079.5,-198.5 1152.5,-198.5 1152.5,-179.5 1079.5,-179.5"/>
<text text-anchor="middle" x="1116" y="-186.5" font-family="Helvetica,sans-Serif" font-size="10.00">sys/socket.h</text>
</a>
</g>
</g>
<!-- Node31&#45;&gt;Node42 -->
<g id="edge44" class="edge">
<title>Node31&#45;&gt;Node42</title>
<path fill="none" stroke="midnightblue" d="M850.93,-235.48C904.15,-227.12 987.39,-213.73 1069.37,-199.07"/>
<polygon fill="midnightblue" stroke="midnightblue" points="1070.14,-202.49 1079.36,-197.27 1068.9,-195.6 1070.14,-202.49"/>
</g>
<!-- Node43 -->
<g id="node43" class="node">
<title>Node43</title>
<g id="a_node43"><a xlink:title=" ">
<polygon fill="none" stroke="#bfbfbf" points="210,-179.5 210,-198.5 278,-198.5 278,-179.5 210,-179.5"/>
<text text-anchor="middle" x="244" y="-186.5" font-family="Helvetica,sans-Serif" font-size="10.00">sys/types.h</text>
</a>
</g>
</g>
<!-- Node31&#45;&gt;Node43 -->
<g id="edge45" class="edge">
<title>Node31&#45;&gt;Node43</title>
<path fill="none" stroke="midnightblue" d="M720.81,-240.01C621.38,-234.13 440.88,-221.33 288,-199 287.9,-198.99 287.8,-198.97 287.7,-198.96"/>
<polygon fill="midnightblue" stroke="midnightblue" points="288.48,-195.54 278.04,-197.36 287.34,-202.44 288.48,-195.54"/>
</g>
<!-- Node44 -->
<g id="node44" class="node">
<title>Node44</title>
<g id="a_node44"><a xlink:title=" ">
<polygon fill="none" stroke="#bfbfbf" points="296.5,-179.5 296.5,-198.5 347.5,-198.5 347.5,-179.5 296.5,-179.5"/>
<text text-anchor="middle" x="322" y="-186.5" font-family="Helvetica,sans-Serif" font-size="10.00">unistd.h</text>
</a>
</g>
</g>
<!-- Node31&#45;&gt;Node44 -->
<g id="edge46" class="edge">
<title>Node31&#45;&gt;Node44</title>
<path fill="none" stroke="midnightblue" d="M720.96,-239.73C635.31,-234.1 490.96,-222.25 357.51,-198.81"/>
<polygon fill="midnightblue" stroke="midnightblue" points="357.98,-195.34 347.52,-197.03 356.75,-202.23 357.98,-195.34"/>
</g>
<!-- Node32&#45;&gt;Node3 -->
<g id="edge34" class="edge">
<title>Node32&#45;&gt;Node3</title>
<path fill="none" stroke="midnightblue" d="M1337.78,-179.48C1310.8,-170.7 1268,-156.79 1233.94,-145.71"/>
<polygon fill="midnightblue" stroke="midnightblue" points="1234.72,-142.29 1224.13,-142.52 1232.56,-148.94 1234.72,-142.29"/>
</g>
<!-- Node45&#45;&gt;Node3 -->
<g id="edge48" class="edge">
<title>Node45&#45;&gt;Node3</title>
<path fill="none" stroke="midnightblue" d="M227.2,-403.28C215.14,-364.98 169.63,-212.03 201,-179 232.02,-146.34 880.69,-133.18 1105.27,-129.59"/>
<polygon fill="midnightblue" stroke="midnightblue" points="1105.38,-133.09 1115.32,-129.43 1105.27,-126.09 1105.38,-133.09"/>
</g>
<!-- Node45&#45;&gt;Node29 -->
<g id="edge49" class="edge">
<title>Node45&#45;&gt;Node29</title>
<path fill="none" stroke="midnightblue" d="M211.78,-403.44C193.1,-394.68 163.84,-380.94 142.38,-370.86"/>
<polygon fill="midnightblue" stroke="midnightblue" points="143.68,-367.6 133.14,-366.52 140.7,-373.93 143.68,-367.6"/>
</g>
<!-- Node46&#45;&gt;Node3 -->
<g id="edge52" class="edge">
<title>Node46&#45;&gt;Node3</title>
<path fill="none" stroke="midnightblue" d="M1049.08,-347.33C1079.49,-326.27 1154.49,-268.97 1182,-199 1187.78,-184.29 1187.48,-166.49 1185.76,-152.46"/>
<polygon fill="midnightblue" stroke="midnightblue" points="1189.22,-151.92 1184.24,-142.57 1182.3,-152.99 1189.22,-151.92"/>
</g>
<!-- Node46&#45;&gt;Node30 -->
<g id="edge53" class="edge">
<title>Node46&#45;&gt;Node30</title>
<path fill="none" stroke="midnightblue" d="M1007.32,-347.44C976.47,-338.24 927.27,-323.56 893.17,-313.39"/>
<polygon fill="midnightblue" stroke="midnightblue" points="894.13,-310.02 883.55,-310.52 892.13,-316.73 894.13,-310.02"/>
</g>
<!-- Node47&#45;&gt;Node3 -->
<g id="edge55" class="edge">
<title>Node47&#45;&gt;Node3</title>
<path fill="none" stroke="midnightblue" d="M1122.26,-403.5C1181.02,-391.86 1257,-364.69 1257,-302 1257,-302 1257,-302 1257,-244 1257,-205.99 1227.93,-170.82 1205.75,-149.51"/>
<polygon fill="midnightblue" stroke="midnightblue" points="1207.96,-146.79 1198.25,-142.57 1203.21,-151.93 1207.96,-146.79"/>
</g>
<!-- Node47&#45;&gt;Node46 -->
<g id="edge56" class="edge">
<title>Node47&#45;&gt;Node46</title>
<path fill="none" stroke="midnightblue" d="M1051.86,-403.08C1049.32,-395.85 1045.64,-385.41 1042.47,-376.4"/>
<polygon fill="midnightblue" stroke="midnightblue" points="1045.7,-375.02 1039.08,-366.75 1039.1,-377.35 1045.7,-375.02"/>
</g>
</g>
</svg>
