<?xml version="1.0" encoding="UTF-8" standalone="no"?>
<!DOCTYPE svg PUBLIC "-//W3C//DTD SVG 1.1//EN"
 "http://www.w3.org/Graphics/SVG/1.1/DTD/svg11.dtd">
<!-- Generated by graphviz version 2.43.0 (0)
 -->
<!-- Title: DiscordCoreAPI::MessageResponseBase Pages: 1 -->
<svg width="406pt" height="140pt"
 viewBox="0.00 0.00 406.00 140.00" xmlns="http://www.w3.org/2000/svg" xmlns:xlink="http://www.w3.org/1999/xlink">
<g id="graph0" class="graph" transform="scale(1 1) rotate(0) translate(4 136)">
<title>DiscordCoreAPI::MessageResponseBase</title>
<!-- Node1 -->
<g id="node1" class="node">
<title>Node1</title>
<g id="a_node1"><a xlink:title="Message response base, for responding to messages.">
<polygon fill="#bfbfbf" stroke="black" points="96.5,-112.5 96.5,-131.5 308.5,-131.5 308.5,-112.5 96.5,-112.5"/>
<text text-anchor="middle" x="202.5" y="-119.5" font-family="Helvetica,sans-Serif" font-size="10.00">DiscordCoreAPI::MessageResponseBase</text>
</a>
</g>
</g>
<!-- Node2 -->
<g id="node2" class="node">
<title>Node2</title>
<g id="a_node2"><a xlink:href="../../d1/d5f/a03189.html" target="_top" xlink:title="For creating a Message.">
<polygon fill="none" stroke="black" points="0,-56.5 0,-75.5 197,-75.5 197,-56.5 0,-56.5"/>
<text text-anchor="middle" x="98.5" y="-63.5" font-family="Helvetica,sans-Serif" font-size="10.00">DiscordCoreAPI::CreateMessageData</text>
</a>
</g>
</g>
<!-- Node1&#45;&gt;Node2 -->
<g id="edge1" class="edge">
<title>Node1&#45;&gt;Node2</title>
<path fill="none" stroke="midnightblue" d="M176.67,-107.59C157.44,-97.61 131.76,-84.27 115.17,-75.65"/>
<polygon fill="midnightblue" stroke="midnightblue" points="175.3,-110.82 185.79,-112.32 178.53,-104.61 175.3,-110.82"/>
</g>
<!-- Node4 -->
<g id="node4" class="node">
<title>Node4</title>
<g id="a_node4"><a xlink:href="../../d6/df4/a03201.html" target="_top" xlink:title="For editing a Message.">
<polygon fill="none" stroke="black" points="215,-56.5 215,-75.5 398,-75.5 398,-56.5 215,-56.5"/>
<text text-anchor="middle" x="306.5" y="-63.5" font-family="Helvetica,sans-Serif" font-size="10.00">DiscordCoreAPI::EditMessageData</text>
</a>
</g>
</g>
<!-- Node1&#45;&gt;Node4 -->
<g id="edge3" class="edge">
<title>Node1&#45;&gt;Node4</title>
<path fill="none" stroke="midnightblue" d="M228.33,-107.59C247.56,-97.61 273.24,-84.27 289.83,-75.65"/>
<polygon fill="midnightblue" stroke="midnightblue" points="226.47,-104.61 219.21,-112.32 229.7,-110.82 226.47,-104.61"/>
</g>
<!-- Node3 -->
<g id="node3" class="node">
<title>Node3</title>
<g id="a_node3"><a xlink:href="../../d6/d04/a03193.html" target="_top" xlink:title="For sending a direct&#45;message.">
<polygon fill="none" stroke="black" points="18,-0.5 18,-19.5 179,-19.5 179,-0.5 18,-0.5"/>
<text text-anchor="middle" x="98.5" y="-7.5" font-family="Helvetica,sans-Serif" font-size="10.00">DiscordCoreAPI::SendDMData</text>
</a>
</g>
</g>
<!-- Node2&#45;&gt;Node3 -->
<g id="edge2" class="edge">
<title>Node2&#45;&gt;Node3</title>
<path fill="none" stroke="midnightblue" d="M98.5,-45.8C98.5,-36.91 98.5,-26.78 98.5,-19.75"/>
<polygon fill="midnightblue" stroke="midnightblue" points="95,-46.08 98.5,-56.08 102,-46.08 95,-46.08"/>
</g>
</g>
</svg>
