<?xml version="1.0" encoding="UTF-8" standalone="no"?>
<!DOCTYPE svg PUBLIC "-//W3C//DTD SVG 1.1//EN"
 "http://www.w3.org/Graphics/SVG/1.1/DTD/svg11.dtd">
<!-- Generated by graphviz version 3.0.0 (20220226.1711)
 -->
<!-- Title: Demuxer.hpp Pages: 1 -->
<svg width="1671pt" height="532pt"
 viewBox="0.00 0.00 1670.50 532.00" xmlns="http://www.w3.org/2000/svg" xmlns:xlink="http://www.w3.org/1999/xlink">
<g id="graph0" class="graph" transform="scale(1 1) rotate(0) translate(4 528)">
<title>Demuxer.hpp</title>
<!-- Node1 -->
<g id="node1" class="node">
<title>Node1</title>
<g id="a_node1"><a xlink:title=" ">
<polygon fill="#bfbfbf" stroke="black" points="1333,-504.5 1333,-523.5 1407,-523.5 1407,-504.5 1333,-504.5"/>
<text text-anchor="middle" x="1370" y="-511.5" font-family="Helvetica,sans-Serif" font-size="10.00">Demuxer.hpp</text>
</a>
</g>
</g>
<!-- Node2 -->
<g id="node2" class="node">
<title>Node2</title>
<g id="a_node2"><a xlink:href="../../d5/d72/a00803.html" target="_top" xlink:title=" ">
<polygon fill="none" stroke="black" points="1002,-448.5 1002,-467.5 1076,-467.5 1076,-448.5 1002,-448.5"/>
<text text-anchor="middle" x="1039" y="-455.5" font-family="Helvetica,sans-Serif" font-size="10.00">Demuxer.cpp</text>
</a>
</g>
</g>
<!-- Node1&#45;&gt;Node2 -->
<g id="edge1" class="edge">
<title>Node1&#45;&gt;Node2</title>
<path fill="none" stroke="midnightblue" d="M1322.67,-505.97C1266.23,-497.49 1169.1,-482.54 1086,-468 1082.81,-467.44 1079.5,-466.84 1076.18,-466.23"/>
<polygon fill="midnightblue" stroke="midnightblue" points="1322.31,-509.46 1332.72,-507.48 1323.35,-502.54 1322.31,-509.46"/>
</g>
<!-- Node3 -->
<g id="node3" class="node">
<title>Node3</title>
<g id="a_node3"><a xlink:href="../../d4/dfa/a00746.html" target="_top" xlink:title=" ">
<polygon fill="none" stroke="black" points="1378,-168.5 1378,-187.5 1482,-187.5 1482,-168.5 1378,-168.5"/>
<text text-anchor="middle" x="1430" y="-175.5" font-family="Helvetica,sans-Serif" font-size="10.00">SoundCloudAPI.hpp</text>
</a>
</g>
</g>
<!-- Node1&#45;&gt;Node3 -->
<g id="edge2" class="edge">
<title>Node1&#45;&gt;Node3</title>
<path fill="none" stroke="midnightblue" d="M1417.34,-509.52C1480.92,-501.98 1586,-478.14 1586,-403 1586,-403 1586,-403 1586,-289 1586,-230.84 1512.68,-200.73 1466.58,-187.54"/>
<polygon fill="midnightblue" stroke="midnightblue" points="1416.69,-506.07 1407.13,-510.64 1417.45,-513.03 1416.69,-506.07"/>
</g>
<!-- Node18 -->
<g id="node18" class="node">
<title>Node18</title>
<g id="a_node18"><a xlink:href="../../d9/dd4/a00776.html" target="_top" xlink:title=" ">
<polygon fill="none" stroke="black" points="1094.5,-448.5 1094.5,-467.5 1213.5,-467.5 1213.5,-448.5 1094.5,-448.5"/>
<text text-anchor="middle" x="1154" y="-455.5" font-family="Helvetica,sans-Serif" font-size="10.00">WebSocketEntities.hpp</text>
</a>
</g>
</g>
<!-- Node1&#45;&gt;Node18 -->
<g id="edge20" class="edge">
<title>Node1&#45;&gt;Node18</title>
<path fill="none" stroke="midnightblue" d="M1325.84,-501.96C1285.04,-491.76 1225.29,-476.82 1188.07,-467.52"/>
<polygon fill="midnightblue" stroke="midnightblue" points="1325.22,-505.41 1335.77,-504.44 1326.92,-498.62 1325.22,-505.41"/>
</g>
<!-- Node35 -->
<g id="node35" class="node">
<title>Node35</title>
<g id="a_node35"><a xlink:href="../../d3/d95/a00779.html" target="_top" xlink:title=" ">
<polygon fill="none" stroke="black" points="1538.5,-168.5 1538.5,-187.5 1627.5,-187.5 1627.5,-168.5 1538.5,-168.5"/>
<text text-anchor="middle" x="1583" y="-175.5" font-family="Helvetica,sans-Serif" font-size="10.00">YouTubeAPI.hpp</text>
</a>
</g>
</g>
<!-- Node1&#45;&gt;Node35 -->
<g id="edge76" class="edge">
<title>Node1&#45;&gt;Node35</title>
<path fill="none" stroke="midnightblue" d="M1417.6,-512.83C1491.15,-509.79 1624,-491.97 1624,-403 1624,-403 1624,-403 1624,-289 1624,-249.05 1599.97,-205.8 1588.7,-187.71"/>
<polygon fill="midnightblue" stroke="midnightblue" points="1417.08,-509.35 1407.21,-513.18 1417.32,-516.34 1417.08,-509.35"/>
</g>
<!-- Node4 -->
<g id="node4" class="node">
<title>Node4</title>
<g id="a_node4"><a xlink:href="../../df/dbb/a00698.html" target="_top" xlink:title=" ">
<polygon fill="none" stroke="black" points="617.5,-112.5 617.5,-131.5 730.5,-131.5 730.5,-112.5 617.5,-112.5"/>
<text text-anchor="middle" x="674" y="-119.5" font-family="Helvetica,sans-Serif" font-size="10.00">DiscordCoreClient.hpp</text>
</a>
</g>
</g>
<!-- Node3&#45;&gt;Node4 -->
<g id="edge3" class="edge">
<title>Node3&#45;&gt;Node4</title>
<path fill="none" stroke="midnightblue" d="M1367.73,-172.55C1223.64,-162.26 869,-136.93 730.61,-127.04"/>
<polygon fill="midnightblue" stroke="midnightblue" points="1367.51,-176.05 1377.74,-173.27 1368.01,-169.06 1367.51,-176.05"/>
</g>
<!-- Node8 -->
<g id="node8" class="node">
<title>Node8</title>
<g id="a_node8"><a xlink:href="../../d6/d8b/a00821.html" target="_top" xlink:title=" ">
<polygon fill="none" stroke="black" points="1154.5,-56.5 1154.5,-75.5 1245.5,-75.5 1245.5,-56.5 1154.5,-56.5"/>
<text text-anchor="middle" x="1200" y="-63.5" font-family="Helvetica,sans-Serif" font-size="10.00">GuildEntities.cpp</text>
</a>
</g>
</g>
<!-- Node3&#45;&gt;Node8 -->
<g id="edge17" class="edge">
<title>Node3&#45;&gt;Node8</title>
<path fill="none" stroke="midnightblue" d="M1402.86,-164.02C1355.3,-141.27 1258.11,-94.79 1217.96,-75.59"/>
<polygon fill="midnightblue" stroke="midnightblue" points="1401.42,-167.21 1411.95,-168.37 1404.44,-160.9 1401.42,-167.21"/>
</g>
<!-- Node13 -->
<g id="node13" class="node">
<title>Node13</title>
<g id="a_node13"><a xlink:href="../../d9/d30/a00848.html" target="_top" xlink:title=" ">
<polygon fill="none" stroke="black" points="1467,-56.5 1467,-75.5 1541,-75.5 1541,-56.5 1467,-56.5"/>
<text text-anchor="middle" x="1504" y="-63.5" font-family="Helvetica,sans-Serif" font-size="10.00">SongAPI.cpp</text>
</a>
</g>
</g>
<!-- Node3&#45;&gt;Node13 -->
<g id="edge18" class="edge">
<title>Node3&#45;&gt;Node13</title>
<path fill="none" stroke="midnightblue" d="M1450.9,-162.04C1460.83,-154.05 1472.19,-143.51 1480,-132 1492.29,-113.88 1499.23,-88.67 1502.22,-75.61"/>
<polygon fill="midnightblue" stroke="midnightblue" points="1448.48,-159.48 1442.68,-168.35 1452.74,-165.04 1448.48,-159.48"/>
</g>
<!-- Node14 -->
<g id="node14" class="node">
<title>Node14</title>
<g id="a_node14"><a xlink:href="../../df/d4c/a00851.html" target="_top" xlink:title=" ">
<polygon fill="none" stroke="black" points="1264,-56.5 1264,-75.5 1368,-75.5 1368,-56.5 1264,-56.5"/>
<text text-anchor="middle" x="1316" y="-63.5" font-family="Helvetica,sans-Serif" font-size="10.00">SoundCloudAPI.cpp</text>
</a>
</g>
</g>
<!-- Node3&#45;&gt;Node14 -->
<g id="edge19" class="edge">
<title>Node3&#45;&gt;Node14</title>
<path fill="none" stroke="midnightblue" d="M1414.76,-160.99C1401.95,-147.67 1383.06,-128.31 1366,-112 1352.49,-99.09 1336.34,-84.74 1326.12,-75.79"/>
<polygon fill="midnightblue" stroke="midnightblue" points="1412.43,-163.62 1421.87,-168.42 1417.49,-158.78 1412.43,-163.62"/>
</g>
<!-- Node5 -->
<g id="node5" class="node">
<title>Node5</title>
<g id="a_node5"><a xlink:href="../../da/d96/a00782.html" target="_top" xlink:title=" ">
<polygon fill="none" stroke="black" points="848.5,-56.5 848.5,-75.5 1009.5,-75.5 1009.5,-56.5 848.5,-56.5"/>
<text text-anchor="middle" x="929" y="-63.5" font-family="Helvetica,sans-Serif" font-size="10.00">ApplicationCommandEntities.cpp</text>
</a>
</g>
</g>
<!-- Node4&#45;&gt;Node5 -->
<g id="edge4" class="edge">
<title>Node4&#45;&gt;Node5</title>
<path fill="none" stroke="midnightblue" d="M724.31,-110.35C772.5,-100.14 844.28,-84.94 888.78,-75.52"/>
<polygon fill="midnightblue" stroke="midnightblue" points="723.46,-106.95 714.41,-112.44 724.91,-113.8 723.46,-106.95"/>
</g>
<!-- Node6 -->
<g id="node6" class="node">
<title>Node6</title>
<g id="a_node6"><a xlink:href="../../d0/dad/a00806.html" target="_top" xlink:title=" ">
<polygon fill="none" stroke="black" points="436.5,-56.5 436.5,-75.5 549.5,-75.5 549.5,-56.5 436.5,-56.5"/>
<text text-anchor="middle" x="493" y="-63.5" font-family="Helvetica,sans-Serif" font-size="10.00">DiscordCoreClient.cpp</text>
</a>
</g>
</g>
<!-- Node4&#45;&gt;Node6 -->
<g id="edge5" class="edge">
<title>Node4&#45;&gt;Node6</title>
<path fill="none" stroke="midnightblue" d="M635.68,-109.57C601.54,-99.38 552.34,-84.7 521.55,-75.52"/>
<polygon fill="midnightblue" stroke="midnightblue" points="634.74,-112.94 645.32,-112.44 636.74,-106.23 634.74,-112.94"/>
</g>
<!-- Node7 -->
<g id="node7" class="node">
<title>Node7</title>
<g id="a_node7"><a xlink:href="../../d8/d2d/a00815.html" target="_top" xlink:title=" ">
<polygon fill="none" stroke="black" points="240.5,-56.5 240.5,-75.5 337.5,-75.5 337.5,-56.5 240.5,-56.5"/>
<text text-anchor="middle" x="289" y="-63.5" font-family="Helvetica,sans-Serif" font-size="10.00">EventManager.cpp</text>
</a>
</g>
</g>
<!-- Node4&#45;&gt;Node7 -->
<g id="edge6" class="edge">
<title>Node4&#45;&gt;Node7</title>
<path fill="none" stroke="midnightblue" d="M607.13,-111.62C530.18,-100.83 405.7,-83.37 337.5,-73.8"/>
<polygon fill="midnightblue" stroke="midnightblue" points="606.8,-115.11 617.19,-113.03 607.78,-108.18 606.8,-115.11"/>
</g>
<!-- Node4&#45;&gt;Node8 -->
<g id="edge7" class="edge">
<title>Node4&#45;&gt;Node8</title>
<path fill="none" stroke="midnightblue" d="M740.55,-112.49C742.05,-112.32 743.53,-112.16 745,-112 922.9,-92.75 968.51,-98.72 1146,-76 1148.73,-75.65 1151.54,-75.26 1154.37,-74.85"/>
<polygon fill="midnightblue" stroke="midnightblue" points="740.09,-109.02 730.56,-113.64 740.89,-115.97 740.09,-109.02"/>
</g>
<!-- Node9 -->
<g id="node9" class="node">
<title>Node9</title>
<g id="a_node9"><a xlink:href="../../d9/daf/a00830.html" target="_top" xlink:title=" ">
<polygon fill="none" stroke="black" points="567.5,-56.5 567.5,-75.5 626.5,-75.5 626.5,-56.5 567.5,-56.5"/>
<text text-anchor="middle" x="597" y="-63.5" font-family="Helvetica,sans-Serif" font-size="10.00">Https.cpp</text>
</a>
</g>
</g>
<!-- Node4&#45;&gt;Node9 -->
<g id="edge8" class="edge">
<title>Node4&#45;&gt;Node9</title>
<path fill="none" stroke="midnightblue" d="M653.1,-106.34C639.09,-96.52 621.12,-83.91 609.34,-75.65"/>
<polygon fill="midnightblue" stroke="midnightblue" points="651.43,-109.45 661.63,-112.32 655.45,-103.72 651.43,-109.45"/>
</g>
<!-- Node10 -->
<g id="node10" class="node">
<title>Node10</title>
<g id="a_node10"><a xlink:href="../../d8/db9/a00725.html" target="_top" xlink:title=" ">
<polygon fill="none" stroke="black" points="644.5,-56.5 644.5,-75.5 703.5,-75.5 703.5,-56.5 644.5,-56.5"/>
<text text-anchor="middle" x="674" y="-63.5" font-family="Helvetica,sans-Serif" font-size="10.00">Index.hpp</text>
</a>
</g>
</g>
<!-- Node4&#45;&gt;Node10 -->
<g id="edge9" class="edge">
<title>Node4&#45;&gt;Node10</title>
<path fill="none" stroke="midnightblue" d="M674,-101.8C674,-92.91 674,-82.78 674,-75.75"/>
<polygon fill="midnightblue" stroke="midnightblue" points="670.5,-102.08 674,-112.08 677.5,-102.08 670.5,-102.08"/>
</g>
<!-- Node12 -->
<g id="node12" class="node">
<title>Node12</title>
<g id="a_node12"><a xlink:href="../../df/de8/a00839.html" target="_top" xlink:title=" ">
<polygon fill="none" stroke="black" points="722,-56.5 722,-75.5 830,-75.5 830,-56.5 722,-56.5"/>
<text text-anchor="middle" x="776" y="-63.5" font-family="Helvetica,sans-Serif" font-size="10.00">MessageEntities.cpp</text>
</a>
</g>
</g>
<!-- Node4&#45;&gt;Node12 -->
<g id="edge11" class="edge">
<title>Node4&#45;&gt;Node12</title>
<path fill="none" stroke="midnightblue" d="M699.33,-107.59C718.19,-97.61 743.38,-84.27 759.65,-75.65"/>
<polygon fill="midnightblue" stroke="midnightblue" points="697.59,-104.55 690.39,-112.32 700.86,-110.74 697.59,-104.55"/>
</g>
<!-- Node4&#45;&gt;Node13 -->
<g id="edge12" class="edge">
<title>Node4&#45;&gt;Node13</title>
<path fill="none" stroke="midnightblue" d="M740.67,-116.88C865.54,-109.14 1143.19,-91.77 1377,-76 1407.21,-73.96 1441.46,-71.53 1466.77,-69.71"/>
<polygon fill="midnightblue" stroke="midnightblue" points="740.27,-113.4 730.51,-117.51 740.7,-120.39 740.27,-113.4"/>
</g>
<!-- Node4&#45;&gt;Node14 -->
<g id="edge13" class="edge">
<title>Node4&#45;&gt;Node14</title>
<path fill="none" stroke="midnightblue" d="M740.73,-117.34C848.92,-111.06 1069.22,-96.87 1255,-76 1257.87,-75.68 1260.82,-75.32 1263.79,-74.95"/>
<polygon fill="midnightblue" stroke="midnightblue" points="740.4,-113.85 730.62,-117.92 740.8,-120.84 740.4,-113.85"/>
</g>
<!-- Node15 -->
<g id="node15" class="node">
<title>Node15</title>
<g id="a_node15"><a xlink:href="../../d1/d93/a00875.html" target="_top" xlink:title=" ">
<polygon fill="none" stroke="black" points="1027.5,-56.5 1027.5,-75.5 1136.5,-75.5 1136.5,-56.5 1027.5,-56.5"/>
<text text-anchor="middle" x="1082" y="-63.5" font-family="Helvetica,sans-Serif" font-size="10.00">VoiceConnection.cpp</text>
</a>
</g>
</g>
<!-- Node4&#45;&gt;Node15 -->
<g id="edge14" class="edge">
<title>Node4&#45;&gt;Node15</title>
<path fill="none" stroke="midnightblue" d="M740.44,-112.58C809.93,-103.71 922.17,-89.23 1019,-76 1021.74,-75.63 1024.54,-75.24 1027.37,-74.85"/>
<polygon fill="midnightblue" stroke="midnightblue" points="739.98,-109.11 730.5,-113.84 740.86,-116.05 739.98,-109.11"/>
</g>
<!-- Node16 -->
<g id="node16" class="node">
<title>Node16</title>
<g id="a_node16"><a xlink:href="../../df/d41/a00881.html" target="_top" xlink:title=" ">
<polygon fill="none" stroke="black" points="17.5,-56.5 17.5,-75.5 136.5,-75.5 136.5,-56.5 17.5,-56.5"/>
<text text-anchor="middle" x="77" y="-63.5" font-family="Helvetica,sans-Serif" font-size="10.00">WebSocketEntities.cpp</text>
</a>
</g>
</g>
<!-- Node4&#45;&gt;Node16 -->
<g id="edge15" class="edge">
<title>Node4&#45;&gt;Node16</title>
<path fill="none" stroke="midnightblue" d="M607.02,-114.94C489.72,-104.33 248.93,-82.55 136.85,-72.41"/>
<polygon fill="midnightblue" stroke="midnightblue" points="607.02,-118.46 617.3,-115.87 607.65,-111.48 607.02,-118.46"/>
</g>
<!-- Node17 -->
<g id="node17" class="node">
<title>Node17</title>
<g id="a_node17"><a xlink:href="../../dd/d08/a00884.html" target="_top" xlink:title=" ">
<polygon fill="none" stroke="black" points="1573.5,-56.5 1573.5,-75.5 1662.5,-75.5 1662.5,-56.5 1573.5,-56.5"/>
<text text-anchor="middle" x="1618" y="-63.5" font-family="Helvetica,sans-Serif" font-size="10.00">YouTubeAPI.cpp</text>
</a>
</g>
</g>
<!-- Node4&#45;&gt;Node17 -->
<g id="edge16" class="edge">
<title>Node4&#45;&gt;Node17</title>
<path fill="none" stroke="midnightblue" d="M740.93,-119.39C887.7,-115.47 1248.82,-103.62 1550,-76 1557.59,-75.3 1565.63,-74.39 1573.43,-73.42"/>
<polygon fill="midnightblue" stroke="midnightblue" points="740.64,-115.9 730.74,-119.66 740.82,-122.9 740.64,-115.9"/>
</g>
<!-- Node11 -->
<g id="node11" class="node">
<title>Node11</title>
<g id="a_node11"><a xlink:href="../../dd/d7e/a00809.html" target="_top" xlink:title=" ">
<polygon fill="none" stroke="black" points="640,-0.5 640,-19.5 708,-19.5 708,-0.5 640,-0.5"/>
<text text-anchor="middle" x="674" y="-7.5" font-family="Helvetica,sans-Serif" font-size="10.00">DllMain.cpp</text>
</a>
</g>
</g>
<!-- Node10&#45;&gt;Node11 -->
<g id="edge10" class="edge">
<title>Node10&#45;&gt;Node11</title>
<path fill="none" stroke="midnightblue" d="M674,-45.8C674,-36.91 674,-26.78 674,-19.75"/>
<polygon fill="midnightblue" stroke="midnightblue" points="670.5,-46.08 674,-56.08 677.5,-46.08 670.5,-46.08"/>
</g>
<!-- Node18&#45;&gt;Node4 -->
<g id="edge21" class="edge">
<title>Node18&#45;&gt;Node4</title>
<path fill="none" stroke="midnightblue" d="M1131.1,-442.82C1104.44,-424.34 1064,-389.34 1064,-347 1064,-347 1064,-347 1064,-233 1064,-199.98 1055.34,-186.53 1028,-168 980.76,-135.98 818.14,-126.74 730.7,-124.08"/>
<polygon fill="midnightblue" stroke="midnightblue" points="1129.28,-445.81 1139.54,-448.44 1133.16,-439.98 1129.28,-445.81"/>
</g>
<!-- Node18&#45;&gt;Node16 -->
<g id="edge75" class="edge">
<title>Node18&#45;&gt;Node16</title>
<path fill="none" stroke="midnightblue" d="M1084.21,-448.15C921.8,-436.24 0,-465.36 0,-347 0,-347 0,-347 0,-177 0,-132.01 43.76,-92.34 65.31,-75.53"/>
<polygon fill="midnightblue" stroke="midnightblue" points="1083.91,-451.64 1094.18,-449.04 1084.53,-444.67 1083.91,-451.64"/>
</g>
<!-- Node19 -->
<g id="node19" class="node">
<title>Node19</title>
<g id="a_node19"><a xlink:href="../../d6/d2f/a00854.html" target="_top" xlink:title=" ">
<polygon fill="none" stroke="black" points="1112,-392.5 1112,-411.5 1196,-411.5 1196,-392.5 1112,-392.5"/>
<text text-anchor="middle" x="1154" y="-399.5" font-family="Helvetica,sans-Serif" font-size="10.00">SSLClients.cpp</text>
</a>
</g>
</g>
<!-- Node18&#45;&gt;Node19 -->
<g id="edge22" class="edge">
<title>Node18&#45;&gt;Node19</title>
<path fill="none" stroke="midnightblue" d="M1154,-437.8C1154,-428.91 1154,-418.78 1154,-411.75"/>
<polygon fill="midnightblue" stroke="midnightblue" points="1150.5,-438.08 1154,-448.08 1157.5,-438.08 1150.5,-438.08"/>
</g>
<!-- Node20 -->
<g id="node20" class="node">
<title>Node20</title>
<g id="a_node20"><a xlink:href="../../d3/d2c/a00764.html" target="_top" xlink:title=" ">
<polygon fill="none" stroke="black" points="905.5,-392.5 905.5,-411.5 994.5,-411.5 994.5,-392.5 905.5,-392.5"/>
<text text-anchor="middle" x="950" y="-399.5" font-family="Helvetica,sans-Serif" font-size="10.00">UserEntities.hpp</text>
</a>
</g>
</g>
<!-- Node18&#45;&gt;Node20 -->
<g id="edge23" class="edge">
<title>Node18&#45;&gt;Node20</title>
<path fill="none" stroke="midnightblue" d="M1111.8,-445.83C1073.28,-435.63 1017.18,-420.78 982.17,-411.52"/>
<polygon fill="midnightblue" stroke="midnightblue" points="1111.11,-449.27 1121.68,-448.44 1112.9,-442.5 1111.11,-449.27"/>
</g>
<!-- Node34 -->
<g id="node34" class="node">
<title>Node34</title>
<g id="a_node34"><a xlink:href="../../d0/d7e/a00770.html" target="_top" xlink:title=" ">
<polygon fill="none" stroke="black" points="1228.5,-280.5 1228.5,-299.5 1337.5,-299.5 1337.5,-280.5 1228.5,-280.5"/>
<text text-anchor="middle" x="1283" y="-287.5" font-family="Helvetica,sans-Serif" font-size="10.00">VoiceConnection.hpp</text>
</a>
</g>
</g>
<!-- Node18&#45;&gt;Node34 -->
<g id="edge67" class="edge">
<title>Node18&#45;&gt;Node34</title>
<path fill="none" stroke="midnightblue" d="M1173.22,-442.19C1183.3,-433.91 1195.5,-423.05 1205,-412 1237.92,-373.72 1267.45,-320.51 1278.45,-299.77"/>
<polygon fill="midnightblue" stroke="midnightblue" points="1170.97,-439.5 1165.35,-448.48 1175.35,-444.97 1170.97,-439.5"/>
</g>
<!-- Node20&#45;&gt;Node4 -->
<g id="edge26" class="edge">
<title>Node20&#45;&gt;Node4</title>
<path fill="none" stroke="midnightblue" d="M969.52,-385.85C992.04,-366.5 1026,-330.72 1026,-291 1026,-291 1026,-291 1026,-233 1026,-202.9 1029.82,-187.63 1007,-168 966.64,-133.29 814.59,-125.2 730.61,-123.41"/>
<polygon fill="midnightblue" stroke="midnightblue" points="967.02,-383.37 961.54,-392.43 971.48,-388.76 967.02,-383.37"/>
</g>
<!-- Node20&#45;&gt;Node5 -->
<g id="edge24" class="edge">
<title>Node20&#45;&gt;Node5</title>
<path fill="none" stroke="midnightblue" d="M994.43,-389.41C1039.29,-374.7 1102,-344.56 1102,-291 1102,-291 1102,-291 1102,-177 1102,-116.67 1026.16,-88.01 974.91,-75.53"/>
<polygon fill="midnightblue" stroke="midnightblue" points="993.37,-386.07 984.87,-392.4 995.46,-392.75 993.37,-386.07"/>
</g>
<!-- Node20&#45;&gt;Node8 -->
<g id="edge32" class="edge">
<title>Node20&#45;&gt;Node8</title>
<path fill="none" stroke="midnightblue" d="M1003.64,-389.97C1030.34,-382.92 1062.31,-372.03 1088,-356 1176.26,-300.93 1211.91,-284.41 1251,-188 1268.13,-145.75 1227.37,-95.66 1208.71,-75.77"/>
<polygon fill="midnightblue" stroke="midnightblue" points="1002.52,-386.65 993.69,-392.49 1004.24,-393.43 1002.52,-386.65"/>
</g>
<!-- Node21 -->
<g id="node21" class="node">
<title>Node21</title>
<g id="a_node21"><a xlink:href="../../df/d0e/a00800.html" target="_top" xlink:title=" ">
<polygon fill="none" stroke="black" points="307.5,-168.5 307.5,-187.5 438.5,-187.5 438.5,-168.5 307.5,-168.5"/>
<text text-anchor="middle" x="373" y="-175.5" font-family="Helvetica,sans-Serif" font-size="10.00">DataParsingFunctions.cpp</text>
</a>
</g>
</g>
<!-- Node20&#45;&gt;Node21 -->
<g id="edge25" class="edge">
<title>Node20&#45;&gt;Node21</title>
<path fill="none" stroke="midnightblue" d="M895.21,-397C771.15,-387.03 473.3,-357.6 393,-300 368.15,-282.17 362.33,-273.13 353,-244 346.59,-223.99 358.76,-200.38 366.78,-187.85"/>
<polygon fill="midnightblue" stroke="midnightblue" points="895.01,-400.5 905.25,-397.8 895.56,-393.52 895.01,-400.5"/>
</g>
<!-- Node22 -->
<g id="node22" class="node">
<title>Node22</title>
<g id="a_node22"><a xlink:href="../../d1/d56/a00707.html" target="_top" xlink:title=" ">
<polygon fill="none" stroke="black" points="28.5,-168.5 28.5,-187.5 125.5,-187.5 125.5,-168.5 28.5,-168.5"/>
<text text-anchor="middle" x="77" y="-175.5" font-family="Helvetica,sans-Serif" font-size="10.00">EventManager.hpp</text>
</a>
</g>
</g>
<!-- Node20&#45;&gt;Node22 -->
<g id="edge27" class="edge">
<title>Node20&#45;&gt;Node22</title>
<path fill="none" stroke="midnightblue" d="M894.98,-400.27C705.75,-397.51 91.74,-386.23 63,-356 17.55,-308.19 57.87,-216.63 72.32,-187.87"/>
<polygon fill="midnightblue" stroke="midnightblue" points="895.2,-403.78 905.25,-400.42 895.3,-396.78 895.2,-403.78"/>
</g>
<!-- Node23 -->
<g id="node23" class="node">
<title>Node23</title>
<g id="a_node23"><a xlink:href="../../d3/d60/a00818.html" target="_top" xlink:title=" ">
<polygon fill="none" stroke="black" points="796,-168.5 796,-187.5 912,-187.5 912,-168.5 796,-168.5"/>
<text text-anchor="middle" x="854" y="-175.5" font-family="Helvetica,sans-Serif" font-size="10.00">FoundationEntities.cpp</text>
</a>
</g>
</g>
<!-- Node20&#45;&gt;Node23 -->
<g id="edge31" class="edge">
<title>Node20&#45;&gt;Node23</title>
<path fill="none" stroke="midnightblue" d="M942.16,-382.87C922.6,-337.63 872.16,-220.99 857.84,-187.88"/>
<polygon fill="midnightblue" stroke="midnightblue" points="939.06,-384.51 946.24,-392.3 945.48,-381.73 939.06,-384.51"/>
</g>
<!-- Node24 -->
<g id="node24" class="node">
<title>Node24</title>
<g id="a_node24"><a xlink:href="../../d2/d94/a00716.html" target="_top" xlink:title=" ">
<polygon fill="none" stroke="black" points="587,-336.5 587,-355.5 713,-355.5 713,-336.5 587,-336.5"/>
<text text-anchor="middle" x="650" y="-343.5" font-family="Helvetica,sans-Serif" font-size="10.00">GuildMemberEntities.hpp</text>
</a>
</g>
</g>
<!-- Node20&#45;&gt;Node24 -->
<g id="edge33" class="edge">
<title>Node20&#45;&gt;Node24</title>
<path fill="none" stroke="midnightblue" d="M895.56,-391.2C838.93,-381.01 751.15,-365.21 697.31,-355.52"/>
<polygon fill="midnightblue" stroke="midnightblue" points="894.95,-394.65 905.41,-392.97 896.19,-387.76 894.95,-394.65"/>
</g>
<!-- Node28 -->
<g id="node28" class="node">
<title>Node28</title>
<g id="a_node28"><a xlink:href="../../dc/d17/a00872.html" target="_top" xlink:title=" ">
<polygon fill="none" stroke="black" points="930,-168.5 930,-187.5 998,-187.5 998,-168.5 930,-168.5"/>
<text text-anchor="middle" x="964" y="-175.5" font-family="Helvetica,sans-Serif" font-size="10.00">Utilities.cpp</text>
</a>
</g>
</g>
<!-- Node20&#45;&gt;Node28 -->
<g id="edge66" class="edge">
<title>Node20&#45;&gt;Node28</title>
<path fill="none" stroke="midnightblue" d="M957.05,-382.74C959.81,-374.67 962.63,-365 964,-356 973.74,-291.9 967.42,-213.22 964.9,-187.54"/>
<polygon fill="midnightblue" stroke="midnightblue" points="953.73,-381.63 953.6,-392.22 960.31,-384.02 953.73,-381.63"/>
</g>
<!-- Node31 -->
<g id="node31" class="node">
<title>Node31</title>
<g id="a_node31"><a xlink:href="../../dd/db2/a00737.html" target="_top" xlink:title=" ">
<polygon fill="none" stroke="black" points="142.5,-224.5 142.5,-243.5 249.5,-243.5 249.5,-224.5 142.5,-224.5"/>
<text text-anchor="middle" x="196" y="-231.5" font-family="Helvetica,sans-Serif" font-size="10.00">ReactionEntities.hpp</text>
</a>
</g>
</g>
<!-- Node20&#45;&gt;Node31 -->
<g id="edge60" class="edge">
<title>Node20&#45;&gt;Node31</title>
<path fill="none" stroke="midnightblue" d="M895.15,-400.38C741.89,-398.23 316.84,-389.29 264,-356 221.8,-329.41 203.38,-266.71 197.88,-243.68"/>
<polygon fill="midnightblue" stroke="midnightblue" points="895.23,-403.88 905.28,-400.52 895.33,-396.88 895.23,-403.88"/>
</g>
<!-- Node33 -->
<g id="node33" class="node">
<title>Node33</title>
<g id="a_node33"><a xlink:href="../../d3/db2/a00869.html" target="_top" xlink:title=" ">
<polygon fill="none" stroke="black" points="72.5,-336.5 72.5,-355.5 161.5,-355.5 161.5,-336.5 72.5,-336.5"/>
<text text-anchor="middle" x="117" y="-343.5" font-family="Helvetica,sans-Serif" font-size="10.00">UserEntities.cpp</text>
</a>
</g>
</g>
<!-- Node20&#45;&gt;Node33 -->
<g id="edge65" class="edge">
<title>Node20&#45;&gt;Node33</title>
<path fill="none" stroke="midnightblue" d="M895.15,-399.57C768.29,-395.88 444.87,-384.26 176,-356 171.36,-355.51 166.53,-354.92 161.72,-354.27"/>
<polygon fill="midnightblue" stroke="midnightblue" points="895.29,-403.07 905.38,-399.86 895.49,-396.08 895.29,-403.07"/>
</g>
<!-- Node22&#45;&gt;Node4 -->
<g id="edge28" class="edge">
<title>Node22&#45;&gt;Node4</title>
<path fill="none" stroke="midnightblue" d="M135.78,-167.86C317.35,-146.31 520.84,-132.35 617.5,-126.34"/>
<polygon fill="midnightblue" stroke="midnightblue" points="135.3,-164.39 125.78,-169.06 136.13,-171.34 135.3,-164.39"/>
</g>
<!-- Node22&#45;&gt;Node7 -->
<g id="edge29" class="edge">
<title>Node22&#45;&gt;Node7</title>
<path fill="none" stroke="midnightblue" d="M102.57,-163.73C146.61,-140.88 235.59,-94.71 272.44,-75.59"/>
<polygon fill="midnightblue" stroke="midnightblue" points="100.9,-160.66 93.64,-168.37 104.12,-166.87 100.9,-160.66"/>
</g>
<!-- Node22&#45;&gt;Node16 -->
<g id="edge30" class="edge">
<title>Node22&#45;&gt;Node16</title>
<path fill="none" stroke="midnightblue" d="M77,-158.35C77,-134.25 77,-93.31 77,-75.59"/>
<polygon fill="midnightblue" stroke="midnightblue" points="73.5,-158.37 77,-168.37 80.5,-158.37 73.5,-158.37"/>
</g>
<!-- Node24&#45;&gt;Node4 -->
<g id="edge35" class="edge">
<title>Node24&#45;&gt;Node4</title>
<path fill="none" stroke="midnightblue" d="M637.53,-327.92C610.04,-289.29 548.13,-196.41 567,-168 579.71,-148.86 602.32,-137.85 623.49,-131.51"/>
<polygon fill="midnightblue" stroke="midnightblue" points="635.02,-330.43 643.7,-336.49 640.7,-326.33 635.02,-330.43"/>
</g>
<!-- Node24&#45;&gt;Node21 -->
<g id="edge34" class="edge">
<title>Node24&#45;&gt;Node21</title>
<path fill="none" stroke="midnightblue" d="M576.96,-342.99C507.82,-336.63 408.1,-314.81 363,-244 351.84,-226.47 361.6,-201.01 368.18,-187.76"/>
<polygon fill="midnightblue" stroke="midnightblue" points="576.67,-346.48 586.93,-343.82 577.25,-339.5 576.67,-346.48"/>
</g>
<!-- Node24&#45;&gt;Node22 -->
<g id="edge36" class="edge">
<title>Node24&#45;&gt;Node22</title>
<path fill="none" stroke="midnightblue" d="M576.64,-339.83C445.49,-329.24 177.82,-301.13 106,-244 88.01,-229.69 80.85,-201.86 78.28,-187.71"/>
<polygon fill="midnightblue" stroke="midnightblue" points="576.74,-343.35 586.99,-340.65 577.29,-336.37 576.74,-343.35"/>
</g>
<!-- Node24&#45;&gt;Node23 -->
<g id="edge37" class="edge">
<title>Node24&#45;&gt;Node23</title>
<path fill="none" stroke="midnightblue" d="M669.67,-330.08C695.18,-310.63 740.9,-275.39 779,-244 802.94,-224.28 830.29,-200.15 844.42,-187.57"/>
<polygon fill="midnightblue" stroke="midnightblue" points="667.38,-327.43 661.54,-336.27 671.62,-333 667.38,-327.43"/>
</g>
<!-- Node25 -->
<g id="node25" class="node">
<title>Node25</title>
<g id="a_node25"><a xlink:href="../../d8/d1c/a00824.html" target="_top" xlink:title=" ">
<polygon fill="none" stroke="black" points="576,-168.5 576,-187.5 702,-187.5 702,-168.5 576,-168.5"/>
<text text-anchor="middle" x="639" y="-175.5" font-family="Helvetica,sans-Serif" font-size="10.00">GuildMemberEntities.cpp</text>
</a>
</g>
</g>
<!-- Node24&#45;&gt;Node25 -->
<g id="edge38" class="edge">
<title>Node24&#45;&gt;Node25</title>
<path fill="none" stroke="midnightblue" d="M648.74,-325.93C646.35,-289.92 641.27,-213.23 639.57,-187.57"/>
<polygon fill="midnightblue" stroke="midnightblue" points="645.25,-326.33 649.41,-336.08 652.24,-325.87 645.25,-326.33"/>
</g>
<!-- Node26 -->
<g id="node26" class="node">
<title>Node26</title>
<g id="a_node26"><a xlink:href="../../dc/dce/a00740.html" target="_top" xlink:title=" ">
<polygon fill="none" stroke="black" points="492,-280.5 492,-299.5 580,-299.5 580,-280.5 492,-280.5"/>
<text text-anchor="middle" x="536" y="-287.5" font-family="Helvetica,sans-Serif" font-size="10.00">RoleEntities.hpp</text>
</a>
</g>
</g>
<!-- Node24&#45;&gt;Node26 -->
<g id="edge39" class="edge">
<title>Node24&#45;&gt;Node26</title>
<path fill="none" stroke="midnightblue" d="M622.76,-332.1C601.46,-322.01 572.46,-308.27 553.98,-299.52"/>
<polygon fill="midnightblue" stroke="midnightblue" points="621.4,-335.33 631.94,-336.44 624.4,-329 621.4,-335.33"/>
</g>
<!-- Node24&#45;&gt;Node28 -->
<g id="edge59" class="edge">
<title>Node24&#45;&gt;Node28</title>
<path fill="none" stroke="midnightblue" d="M675.59,-331.47C737.96,-298.5 896.44,-214.71 947.72,-187.61"/>
<polygon fill="midnightblue" stroke="midnightblue" points="673.64,-328.54 666.44,-336.31 676.92,-334.73 673.64,-328.54"/>
</g>
<!-- Node30 -->
<g id="node30" class="node">
<title>Node30</title>
<g id="a_node30"><a xlink:href="../../d0/d0a/a00743.html" target="_top" xlink:title=" ">
<polygon fill="none" stroke="black" points="1168,-168.5 1168,-187.5 1242,-187.5 1242,-168.5 1168,-168.5"/>
<text text-anchor="middle" x="1205" y="-175.5" font-family="Helvetica,sans-Serif" font-size="10.00">SongAPI.hpp</text>
</a>
</g>
</g>
<!-- Node24&#45;&gt;Node30 -->
<g id="edge55" class="edge">
<title>Node24&#45;&gt;Node30</title>
<path fill="none" stroke="midnightblue" d="M688.55,-333.47C793.79,-301.99 1084.27,-215.11 1176.5,-187.52"/>
<polygon fill="midnightblue" stroke="midnightblue" points="687.25,-330.21 678.67,-336.42 689.25,-336.91 687.25,-330.21"/>
</g>
<!-- Node26&#45;&gt;Node4 -->
<g id="edge41" class="edge">
<title>Node26&#45;&gt;Node4</title>
<path fill="none" stroke="midnightblue" d="M481.56,-286.49C424.08,-281.57 345.32,-267.02 373,-224 377.06,-217.69 488.92,-170.49 496,-168 541.27,-152.12 594.83,-139.36 631.29,-131.54"/>
<polygon fill="midnightblue" stroke="midnightblue" points="481.41,-289.99 491.65,-287.28 481.95,-283.01 481.41,-289.99"/>
</g>
<!-- Node26&#45;&gt;Node8 -->
<g id="edge44" class="edge">
<title>Node26&#45;&gt;Node8</title>
<path fill="none" stroke="midnightblue" d="M535,-270.1C534.69,-243.27 538.45,-194.44 567,-168 590.89,-145.87 1113.8,-80.9 1146,-76 1148.72,-75.59 1151.53,-75.15 1154.35,-74.7"/>
<polygon fill="midnightblue" stroke="midnightblue" points="531.51,-270.55 535.34,-280.43 538.51,-270.32 531.51,-270.55"/>
</g>
<!-- Node26&#45;&gt;Node21 -->
<g id="edge40" class="edge">
<title>Node26&#45;&gt;Node21</title>
<path fill="none" stroke="midnightblue" d="M524.35,-271.85C513.88,-257.49 497.36,-237.28 479,-224 455.67,-207.13 425.05,-195 402.72,-187.62"/>
<polygon fill="midnightblue" stroke="midnightblue" points="521.7,-274.15 530.32,-280.31 527.42,-270.12 521.7,-274.15"/>
</g>
<!-- Node26&#45;&gt;Node22 -->
<g id="edge42" class="edge">
<title>Node26&#45;&gt;Node22</title>
<path fill="none" stroke="midnightblue" d="M481.72,-287.81C386.13,-284.91 192.25,-275.26 133,-244 108.23,-230.93 89.64,-202 81.51,-187.56"/>
<polygon fill="midnightblue" stroke="midnightblue" points="481.67,-291.31 491.77,-288.1 481.88,-284.31 481.67,-291.31"/>
</g>
<!-- Node26&#45;&gt;Node23 -->
<g id="edge43" class="edge">
<title>Node26&#45;&gt;Node23</title>
<path fill="none" stroke="midnightblue" d="M560.08,-275.38C586.4,-260.97 630.14,-238.36 670,-224 715.64,-207.56 769.77,-195.13 807.45,-187.54"/>
<polygon fill="midnightblue" stroke="midnightblue" points="558.27,-272.39 551.21,-280.29 561.66,-278.51 558.27,-272.39"/>
</g>
<!-- Node27 -->
<g id="node27" class="node">
<title>Node27</title>
<g id="a_node27"><a xlink:href="../../d1/d04/a00713.html" target="_top" xlink:title=" ">
<polygon fill="none" stroke="black" points="678.5,-224.5 678.5,-243.5 769.5,-243.5 769.5,-224.5 678.5,-224.5"/>
<text text-anchor="middle" x="724" y="-231.5" font-family="Helvetica,sans-Serif" font-size="10.00">GuildEntities.hpp</text>
</a>
</g>
</g>
<!-- Node26&#45;&gt;Node27 -->
<g id="edge45" class="edge">
<title>Node26&#45;&gt;Node27</title>
<path fill="none" stroke="midnightblue" d="M575.8,-277.57C611.27,-267.38 662.37,-252.7 694.35,-243.52"/>
<polygon fill="midnightblue" stroke="midnightblue" points="574.43,-274.32 565.79,-280.44 576.37,-281.05 574.43,-274.32"/>
</g>
<!-- Node26&#45;&gt;Node28 -->
<g id="edge54" class="edge">
<title>Node26&#45;&gt;Node28</title>
<path fill="none" stroke="midnightblue" d="M590.54,-281.37C640.15,-273.85 715.14,-261.02 779,-244 839.69,-227.82 908.99,-201.2 942.97,-187.59"/>
<polygon fill="midnightblue" stroke="midnightblue" points="589.73,-277.96 580.36,-282.9 590.76,-284.88 589.73,-277.96"/>
</g>
<!-- Node29 -->
<g id="node29" class="node">
<title>Node29</title>
<g id="a_node29"><a xlink:href="../../d7/dcf/a00845.html" target="_top" xlink:title=" ">
<polygon fill="none" stroke="black" points="382,-224.5 382,-243.5 470,-243.5 470,-224.5 382,-224.5"/>
<text text-anchor="middle" x="426" y="-231.5" font-family="Helvetica,sans-Serif" font-size="10.00">RoleEntities.cpp</text>
</a>
</g>
</g>
<!-- Node26&#45;&gt;Node29 -->
<g id="edge53" class="edge">
<title>Node26&#45;&gt;Node29</title>
<path fill="none" stroke="midnightblue" d="M509.24,-275.86C488.84,-265.85 461.33,-252.35 443.63,-243.65"/>
<polygon fill="midnightblue" stroke="midnightblue" points="507.81,-279.06 518.33,-280.32 510.89,-272.78 507.81,-279.06"/>
</g>
<!-- Node27&#45;&gt;Node4 -->
<g id="edge47" class="edge">
<title>Node27&#45;&gt;Node4</title>
<path fill="none" stroke="midnightblue" d="M722.68,-214.2C721.17,-200.79 717.93,-182.62 711,-168 704.24,-153.74 691.98,-140.15 683.43,-131.71"/>
<polygon fill="midnightblue" stroke="midnightblue" points="719.2,-214.52 723.59,-224.16 726.17,-213.89 719.2,-214.52"/>
</g>
<!-- Node27&#45;&gt;Node8 -->
<g id="edge50" class="edge">
<title>Node27&#45;&gt;Node8</title>
<path fill="none" stroke="midnightblue" d="M736.03,-216.01C747.46,-201.12 766,-180.04 787,-168 850.08,-131.85 1060.65,-91.53 1154.35,-74.86"/>
<polygon fill="midnightblue" stroke="midnightblue" points="733,-214.22 729.87,-224.34 738.63,-218.38 733,-214.22"/>
</g>
<!-- Node27&#45;&gt;Node21 -->
<g id="edge46" class="edge">
<title>Node27&#45;&gt;Node21</title>
<path fill="none" stroke="midnightblue" d="M668.3,-224.43C602.54,-214.31 493.84,-197.59 428.27,-187.5"/>
<polygon fill="midnightblue" stroke="midnightblue" points="668.06,-227.93 678.47,-226 669.12,-221.02 668.06,-227.93"/>
</g>
<!-- Node27&#45;&gt;Node22 -->
<g id="edge48" class="edge">
<title>Node27&#45;&gt;Node22</title>
<path fill="none" stroke="midnightblue" d="M668.32,-230.25C563.49,-224.74 329.76,-210.88 134,-188 131.31,-187.69 128.56,-187.34 125.78,-186.97"/>
<polygon fill="midnightblue" stroke="midnightblue" points="668.19,-233.75 678.35,-230.77 668.55,-226.76 668.19,-233.75"/>
</g>
<!-- Node27&#45;&gt;Node23 -->
<g id="edge49" class="edge">
<title>Node27&#45;&gt;Node23</title>
<path fill="none" stroke="midnightblue" d="M754.09,-220.5C778.46,-210.38 812.14,-196.39 833.5,-187.52"/>
<polygon fill="midnightblue" stroke="midnightblue" points="752.49,-217.38 744.6,-224.44 755.18,-223.84 752.49,-217.38"/>
</g>
<!-- Node27&#45;&gt;Node25 -->
<g id="edge51" class="edge">
<title>Node27&#45;&gt;Node25</title>
<path fill="none" stroke="midnightblue" d="M701.81,-218.9C686.22,-209 665.87,-196.07 652.62,-187.65"/>
<polygon fill="midnightblue" stroke="midnightblue" points="700.03,-221.92 710.34,-224.32 703.78,-216.01 700.03,-221.92"/>
</g>
<!-- Node27&#45;&gt;Node28 -->
<g id="edge52" class="edge">
<title>Node27&#45;&gt;Node28</title>
<path fill="none" stroke="midnightblue" d="M771.9,-222.22C818.54,-211.73 888.28,-196.04 929.65,-186.73"/>
<polygon fill="midnightblue" stroke="midnightblue" points="771.02,-218.83 762.03,-224.44 772.55,-225.66 771.02,-218.83"/>
</g>
<!-- Node30&#45;&gt;Node4 -->
<g id="edge56" class="edge">
<title>Node30&#45;&gt;Node4</title>
<path fill="none" stroke="midnightblue" d="M1157.8,-168.53C1156.52,-168.35 1155.25,-168.17 1154,-168 1001.58,-147.44 820.67,-133.21 730.7,-126.82"/>
<polygon fill="midnightblue" stroke="midnightblue" points="1157.31,-172 1167.73,-170.06 1158.38,-165.08 1157.31,-172"/>
</g>
<!-- Node30&#45;&gt;Node8 -->
<g id="edge57" class="edge">
<title>Node30&#45;&gt;Node8</title>
<path fill="none" stroke="midnightblue" d="M1204.15,-158.35C1203.06,-134.25 1201.2,-93.31 1200.39,-75.59"/>
<polygon fill="midnightblue" stroke="midnightblue" points="1200.66,-158.54 1204.61,-168.37 1207.65,-158.22 1200.66,-158.54"/>
</g>
<!-- Node30&#45;&gt;Node13 -->
<g id="edge58" class="edge">
<title>Node30&#45;&gt;Node13</title>
<path fill="none" stroke="midnightblue" d="M1237.99,-164.86C1298.94,-142.44 1427.81,-95.03 1480.65,-75.59"/>
<polygon fill="midnightblue" stroke="midnightblue" points="1236.64,-161.63 1228.46,-168.37 1239.06,-168.2 1236.64,-161.63"/>
</g>
<!-- Node31&#45;&gt;Node4 -->
<g id="edge62" class="edge">
<title>Node31&#45;&gt;Node4</title>
<path fill="none" stroke="midnightblue" d="M216.29,-218.53C240.85,-201.3 281.01,-174.07 298,-168 406.34,-129.28 542.26,-122.47 617.43,-122.04"/>
<polygon fill="midnightblue" stroke="midnightblue" points="214.17,-215.74 208.02,-224.37 218.21,-221.46 214.17,-215.74"/>
</g>
<!-- Node31&#45;&gt;Node21 -->
<g id="edge61" class="edge">
<title>Node31&#45;&gt;Node21</title>
<path fill="none" stroke="midnightblue" d="M233.9,-221.44C267.28,-211.26 315.1,-196.66 345.09,-187.52"/>
<polygon fill="midnightblue" stroke="midnightblue" points="232.59,-218.18 224.05,-224.44 234.63,-224.87 232.59,-218.18"/>
</g>
<!-- Node31&#45;&gt;Node22 -->
<g id="edge63" class="edge">
<title>Node31&#45;&gt;Node22</title>
<path fill="none" stroke="midnightblue" d="M167.86,-220.23C145.6,-210.13 115.14,-196.31 95.77,-187.52"/>
<polygon fill="midnightblue" stroke="midnightblue" points="166.59,-223.5 177.14,-224.44 169.48,-217.12 166.59,-223.5"/>
</g>
<!-- Node32 -->
<g id="node32" class="node">
<title>Node32</title>
<g id="a_node32"><a xlink:href="../../d0/d11/a00842.html" target="_top" xlink:title=" ">
<polygon fill="none" stroke="black" points="143.5,-168.5 143.5,-187.5 250.5,-187.5 250.5,-168.5 143.5,-168.5"/>
<text text-anchor="middle" x="197" y="-175.5" font-family="Helvetica,sans-Serif" font-size="10.00">ReactionEntities.cpp</text>
</a>
</g>
</g>
<!-- Node31&#45;&gt;Node32 -->
<g id="edge64" class="edge">
<title>Node31&#45;&gt;Node32</title>
<path fill="none" stroke="midnightblue" d="M196.36,-213.8C196.52,-204.91 196.71,-194.78 196.84,-187.75"/>
<polygon fill="midnightblue" stroke="midnightblue" points="192.85,-214.02 196.17,-224.08 199.85,-214.15 192.85,-214.02"/>
</g>
<!-- Node34&#45;&gt;Node4 -->
<g id="edge68" class="edge">
<title>Node34&#45;&gt;Node4</title>
<path fill="none" stroke="midnightblue" d="M1264.01,-273.98C1229.34,-247.48 1152.49,-192.86 1078,-168 1014.99,-146.97 826.19,-132.54 730.67,-126.37"/>
<polygon fill="midnightblue" stroke="midnightblue" points="1262.21,-277.02 1272.26,-280.37 1266.5,-271.48 1262.21,-277.02"/>
</g>
<!-- Node34&#45;&gt;Node13 -->
<g id="edge70" class="edge">
<title>Node34&#45;&gt;Node13</title>
<path fill="none" stroke="midnightblue" d="M1337.38,-277.94C1385.89,-265.04 1454.7,-238.68 1491,-188 1516.1,-152.96 1509.45,-96.93 1505.72,-75.61"/>
<polygon fill="midnightblue" stroke="midnightblue" points="1336.49,-274.55 1327.66,-280.42 1338.21,-281.34 1336.49,-274.55"/>
</g>
<!-- Node34&#45;&gt;Node14 -->
<g id="edge72" class="edge">
<title>Node34&#45;&gt;Node14</title>
<path fill="none" stroke="midnightblue" d="M1301.58,-273.32C1309.48,-265.44 1317.83,-255.19 1322,-244 1344.67,-183.22 1325.9,-102.39 1318.59,-75.85"/>
<polygon fill="midnightblue" stroke="midnightblue" points="1298.94,-271 1293.99,-280.37 1303.7,-276.13 1298.94,-271"/>
</g>
<!-- Node34&#45;&gt;Node15 -->
<g id="edge73" class="edge">
<title>Node34&#45;&gt;Node15</title>
<path fill="none" stroke="midnightblue" d="M1282.34,-270.28C1280.57,-244.76 1274.12,-198.71 1251,-168 1214.1,-118.98 1145.86,-89.05 1108.37,-75.54"/>
<polygon fill="midnightblue" stroke="midnightblue" points="1278.86,-270.63 1282.88,-280.43 1285.85,-270.27 1278.86,-270.63"/>
</g>
<!-- Node34&#45;&gt;Node17 -->
<g id="edge74" class="edge">
<title>Node34&#45;&gt;Node17</title>
<path fill="none" stroke="midnightblue" d="M1347.91,-279.98C1440.38,-265.64 1602.65,-234.43 1637,-188 1662.8,-153.13 1635.42,-97 1623.23,-75.63"/>
<polygon fill="midnightblue" stroke="midnightblue" points="1347.18,-276.55 1337.82,-281.52 1348.23,-283.47 1347.18,-276.55"/>
</g>
<!-- Node34&#45;&gt;Node27 -->
<g id="edge69" class="edge">
<title>Node34&#45;&gt;Node27</title>
<path fill="none" stroke="midnightblue" d="M1218.37,-282.76C1104.04,-271.71 868.85,-248.99 769.69,-239.41"/>
<polygon fill="midnightblue" stroke="midnightblue" points="1218.09,-286.25 1228.38,-283.72 1218.77,-279.28 1218.09,-286.25"/>
</g>
<!-- Node34&#45;&gt;Node30 -->
<g id="edge71" class="edge">
<title>Node34&#45;&gt;Node30</title>
<path fill="none" stroke="midnightblue" d="M1270.92,-271.96C1254.01,-248.12 1223.94,-205.71 1211.09,-187.59"/>
<polygon fill="midnightblue" stroke="midnightblue" points="1268.24,-274.24 1276.88,-280.37 1273.95,-270.19 1268.24,-274.24"/>
</g>
<!-- Node35&#45;&gt;Node4 -->
<g id="edge77" class="edge">
<title>Node35&#45;&gt;Node4</title>
<path fill="none" stroke="midnightblue" d="M1528.06,-171.24C1515.87,-170.07 1503,-168.92 1491,-168 1205.59,-146.19 863.31,-130.83 730.51,-125.28"/>
<polygon fill="midnightblue" stroke="midnightblue" points="1527.82,-174.73 1538.11,-172.22 1528.5,-167.77 1527.82,-174.73"/>
</g>
<!-- Node35&#45;&gt;Node8 -->
<g id="edge78" class="edge">
<title>Node35&#45;&gt;Node8</title>
<path fill="none" stroke="midnightblue" d="M1543.47,-165.65C1466.49,-143.54 1298.07,-95.17 1229.72,-75.53"/>
<polygon fill="midnightblue" stroke="midnightblue" points="1542.69,-169.06 1553.27,-168.46 1544.62,-162.34 1542.69,-169.06"/>
</g>
<!-- Node35&#45;&gt;Node13 -->
<g id="edge79" class="edge">
<title>Node35&#45;&gt;Node13</title>
<path fill="none" stroke="midnightblue" d="M1577.9,-158.64C1573.52,-144.95 1566.28,-126.23 1556,-112 1545.23,-97.1 1528.6,-83.84 1517.06,-75.64"/>
<polygon fill="midnightblue" stroke="midnightblue" points="1574.59,-159.78 1580.8,-168.37 1581.3,-157.78 1574.59,-159.78"/>
</g>
<!-- Node35&#45;&gt;Node17 -->
<g id="edge80" class="edge">
<title>Node35&#45;&gt;Node17</title>
<path fill="none" stroke="midnightblue" d="M1588.83,-158.67C1596.48,-134.62 1609.6,-93.39 1615.27,-75.59"/>
<polygon fill="midnightblue" stroke="midnightblue" points="1585.44,-157.78 1585.75,-168.37 1592.11,-159.9 1585.44,-157.78"/>
</g>
</g>
</svg>
