<?xml version="1.0" encoding="UTF-8" standalone="no"?>
<!DOCTYPE svg PUBLIC "-//W3C//DTD SVG 1.1//EN"
 "http://www.w3.org/Graphics/SVG/1.1/DTD/svg11.dtd">
<!-- Generated by graphviz version 2.43.0 (0)
 -->
<!-- Title: AutoModerationEntities.hpp Pages: 1 -->
<svg width="1543pt" height="247pt"
 viewBox="0.00 0.00 1542.50 247.00" xmlns="http://www.w3.org/2000/svg" xmlns:xlink="http://www.w3.org/1999/xlink">
<g id="graph0" class="graph" transform="scale(1 1) rotate(0) translate(4 243)">
<title>AutoModerationEntities.hpp</title>
<!-- Node1 -->
<g id="node1" class="node">
<title>Node1</title>
<g id="a_node1"><a xlink:title=" ">
<polygon fill="#bfbfbf" stroke="black" points="388,-239 236,-239 236,-220 388,-220 388,-239"/>
<text text-anchor="middle" x="312" y="-227" font-family="Helvetica,sans-Serif" font-size="10.00">AutoModerationEntities.hpp</text>
</a>
</g>
</g>
<!-- Node2 -->
<g id="node2" class="node">
<title>Node2</title>
<g id="a_node2"><a xlink:href="../../d6/d2f/a00854.html" target="_top" xlink:title=" ">
<polygon fill="none" stroke="black" points="152,-184 0,-184 0,-165 152,-165 152,-184"/>
<text text-anchor="middle" x="76" y="-172" font-family="Helvetica,sans-Serif" font-size="10.00">AutoModerationEntities.cpp</text>
</a>
</g>
</g>
<!-- Node1&#45;&gt;Node2 -->
<g id="edge1" class="edge">
<title>Node1&#45;&gt;Node2</title>
<path fill="none" stroke="midnightblue" d="M264.15,-217.75C219.92,-207.82 155.07,-193.26 114.21,-184.08"/>
<polygon fill="midnightblue" stroke="midnightblue" points="263.56,-221.21 274.08,-219.98 265.09,-214.38 263.56,-221.21"/>
</g>
<!-- Node3 -->
<g id="node3" class="node">
<title>Node3</title>
<g id="a_node3"><a xlink:href="../../d8/db7/a00812.html" target="_top" xlink:title=" ">
<polygon fill="none" stroke="black" points="312,-184 170,-184 170,-165 312,-165 312,-184"/>
<text text-anchor="middle" x="241" y="-172" font-family="Helvetica,sans-Serif" font-size="10.00">DataParsingFunctions.cpp</text>
</a>
</g>
</g>
<!-- Node1&#45;&gt;Node3 -->
<g id="edge2" class="edge">
<title>Node1&#45;&gt;Node3</title>
<path fill="none" stroke="midnightblue" d="M292.41,-213.88C279.63,-204.34 263.39,-192.21 252.61,-184.17"/>
<polygon fill="midnightblue" stroke="midnightblue" points="290.49,-216.81 300.59,-219.98 294.67,-211.2 290.49,-216.81"/>
</g>
<!-- Node4 -->
<g id="node4" class="node">
<title>Node4</title>
<g id="a_node4"><a xlink:href="../../db/d7c/a00722.html" target="_top" xlink:title=" ">
<polygon fill="none" stroke="black" points="732.5,-129 607.5,-129 607.5,-110 732.5,-110 732.5,-129"/>
<text text-anchor="middle" x="670" y="-117" font-family="Helvetica,sans-Serif" font-size="10.00">DiscordCoreClient.hpp</text>
</a>
</g>
</g>
<!-- Node1&#45;&gt;Node4 -->
<g id="edge3" class="edge">
<title>Node1&#45;&gt;Node4</title>
<path fill="none" stroke="midnightblue" d="M350.01,-217.03C422.19,-195.26 577.63,-148.36 641.61,-129.07"/>
<polygon fill="midnightblue" stroke="midnightblue" points="348.95,-213.7 340.39,-219.94 350.98,-220.4 348.95,-213.7"/>
</g>
<!-- Node18 -->
<g id="node18" class="node">
<title>Node18</title>
<g id="a_node18"><a xlink:href="../../d9/dd4/a00776.html" target="_top" xlink:title=" ">
<polygon fill="none" stroke="black" points="437.5,-184 330.5,-184 330.5,-165 437.5,-165 437.5,-184"/>
<text text-anchor="middle" x="384" y="-172" font-family="Helvetica,sans-Serif" font-size="10.00">EventManager.hpp</text>
</a>
</g>
</g>
<!-- Node1&#45;&gt;Node18 -->
<g id="edge17" class="edge">
<title>Node1&#45;&gt;Node18</title>
<path fill="none" stroke="midnightblue" d="M331.87,-213.88C344.82,-204.34 361.3,-192.21 372.22,-184.17"/>
<polygon fill="midnightblue" stroke="midnightblue" points="329.55,-211.24 323.57,-219.98 333.7,-216.88 329.55,-211.24"/>
</g>
<!-- Node5 -->
<g id="node5" class="node">
<title>Node5</title>
<g id="a_node5"><a xlink:href="../../d3/db2/a00869.html" target="_top" xlink:title=" ">
<polygon fill="none" stroke="black" points="975.5,-74 796.5,-74 796.5,-55 975.5,-55 975.5,-74"/>
<text text-anchor="middle" x="886" y="-62" font-family="Helvetica,sans-Serif" font-size="10.00">ApplicationCommandEntities.cpp</text>
</a>
</g>
</g>
<!-- Node4&#45;&gt;Node5 -->
<g id="edge4" class="edge">
<title>Node4&#45;&gt;Node5</title>
<path fill="none" stroke="midnightblue" d="M714.57,-107.56C755.02,-97.64 813.87,-83.2 851.02,-74.08"/>
<polygon fill="midnightblue" stroke="midnightblue" points="713.58,-104.2 704.7,-109.98 715.25,-111 713.58,-104.2"/>
</g>
<!-- Node6 -->
<g id="node6" class="node">
<title>Node6</title>
<g id="a_node6"><a xlink:href="../../d8/d1c/a00824.html" target="_top" xlink:title=" ">
<polygon fill="none" stroke="black" points="1118.5,-74 993.5,-74 993.5,-55 1118.5,-55 1118.5,-74"/>
<text text-anchor="middle" x="1056" y="-62" font-family="Helvetica,sans-Serif" font-size="10.00">DiscordCoreClient.cpp</text>
</a>
</g>
</g>
<!-- Node4&#45;&gt;Node6 -->
<g id="edge5" class="edge">
<title>Node4&#45;&gt;Node6</title>
<path fill="none" stroke="midnightblue" d="M741.98,-108.62C814.44,-98.67 925.06,-83.48 993.82,-74.04"/>
<polygon fill="midnightblue" stroke="midnightblue" points="741.45,-105.16 732.02,-109.98 742.4,-112.09 741.45,-105.16"/>
</g>
<!-- Node7 -->
<g id="node7" class="node">
<title>Node7</title>
<g id="a_node7"><a xlink:href="../../dd/d7e/a00809.html" target="_top" xlink:title=" ">
<polygon fill="none" stroke="black" points="308.5,-74 201.5,-74 201.5,-55 308.5,-55 308.5,-74"/>
<text text-anchor="middle" x="255" y="-62" font-family="Helvetica,sans-Serif" font-size="10.00">EventManager.cpp</text>
</a>
</g>
</g>
<!-- Node4&#45;&gt;Node7 -->
<g id="edge6" class="edge">
<title>Node4&#45;&gt;Node7</title>
<path fill="none" stroke="midnightblue" d="M597.14,-109.47C525.94,-100.6 414.49,-86.61 318,-74 314.94,-73.6 311.79,-73.19 308.61,-72.76"/>
<polygon fill="midnightblue" stroke="midnightblue" points="596.99,-112.98 607.35,-110.74 597.86,-106.03 596.99,-112.98"/>
</g>
<!-- Node8 -->
<g id="node8" class="node">
<title>Node8</title>
<g id="a_node8"><a xlink:href="../../d7/d49/a00863.html" target="_top" xlink:title=" ">
<polygon fill="none" stroke="black" points="1235.5,-74 1136.5,-74 1136.5,-55 1235.5,-55 1235.5,-74"/>
<text text-anchor="middle" x="1186" y="-62" font-family="Helvetica,sans-Serif" font-size="10.00">GuildEntities.cpp</text>
</a>
</g>
</g>
<!-- Node4&#45;&gt;Node8 -->
<g id="edge7" class="edge">
<title>Node4&#45;&gt;Node8</title>
<path fill="none" stroke="midnightblue" d="M742.85,-112.52C833.31,-104.85 992.27,-90.53 1128,-74 1130.73,-73.67 1133.53,-73.31 1136.35,-72.94"/>
<polygon fill="midnightblue" stroke="midnightblue" points="742.37,-109.05 732.7,-113.38 742.96,-116.03 742.37,-109.05"/>
</g>
<!-- Node9 -->
<g id="node9" class="node">
<title>Node9</title>
<g id="a_node9"><a xlink:href="../../d3/d00/a00785.html" target="_top" xlink:title=" ">
<polygon fill="none" stroke="black" points="1316.5,-74 1253.5,-74 1253.5,-55 1316.5,-55 1316.5,-74"/>
<text text-anchor="middle" x="1285" y="-62" font-family="Helvetica,sans-Serif" font-size="10.00">Https.cpp</text>
</a>
</g>
</g>
<!-- Node4&#45;&gt;Node9 -->
<g id="edge8" class="edge">
<title>Node4&#45;&gt;Node9</title>
<path fill="none" stroke="midnightblue" d="M743.11,-115.94C852.67,-111.4 1065.72,-99.87 1245,-74 1247.67,-73.61 1250.43,-73.16 1253.19,-72.66"/>
<polygon fill="midnightblue" stroke="midnightblue" points="742.69,-112.45 732.84,-116.36 742.97,-119.45 742.69,-112.45"/>
</g>
<!-- Node10 -->
<g id="node10" class="node">
<title>Node10</title>
<g id="a_node10"><a xlink:href="../../d2/d4a/a00758.html" target="_top" xlink:title=" ">
<polygon fill="none" stroke="black" points="1399.5,-74 1334.5,-74 1334.5,-55 1399.5,-55 1399.5,-74"/>
<text text-anchor="middle" x="1367" y="-62" font-family="Helvetica,sans-Serif" font-size="10.00">Index.hpp</text>
</a>
</g>
</g>
<!-- Node4&#45;&gt;Node10 -->
<g id="edge9" class="edge">
<title>Node4&#45;&gt;Node10</title>
<path fill="none" stroke="midnightblue" d="M742.99,-116.8C864.46,-113.25 1115.56,-102.81 1326,-74 1328.74,-73.63 1331.56,-73.17 1334.4,-72.68"/>
<polygon fill="midnightblue" stroke="midnightblue" points="742.6,-113.31 732.7,-117.1 742.8,-120.31 742.6,-113.31"/>
</g>
<!-- Node12 -->
<g id="node12" class="node">
<title>Node12</title>
<g id="a_node12"><a xlink:href="../../d4/d45/a00791.html" target="_top" xlink:title=" ">
<polygon fill="none" stroke="black" points="1534.5,-74 1417.5,-74 1417.5,-55 1534.5,-55 1534.5,-74"/>
<text text-anchor="middle" x="1476" y="-62" font-family="Helvetica,sans-Serif" font-size="10.00">MessageEntities.cpp</text>
</a>
</g>
</g>
<!-- Node4&#45;&gt;Node12 -->
<g id="edge11" class="edge">
<title>Node4&#45;&gt;Node12</title>
<path fill="none" stroke="midnightblue" d="M742.93,-115.71C875.66,-110.27 1165.48,-96.75 1409,-74 1411.69,-73.75 1414.43,-73.47 1417.2,-73.18"/>
<polygon fill="midnightblue" stroke="midnightblue" points="742.73,-112.21 732.88,-116.12 743.02,-119.21 742.73,-112.21"/>
</g>
<!-- Node13 -->
<g id="node13" class="node">
<title>Node13</title>
<g id="a_node13"><a xlink:href="../../df/d0c/a00788.html" target="_top" xlink:title=" ">
<polygon fill="none" stroke="black" points="403.5,-74 326.5,-74 326.5,-55 403.5,-55 403.5,-74"/>
<text text-anchor="middle" x="365" y="-62" font-family="Helvetica,sans-Serif" font-size="10.00">SongAPI.cpp</text>
</a>
</g>
</g>
<!-- Node4&#45;&gt;Node13 -->
<g id="edge12" class="edge">
<title>Node4&#45;&gt;Node13</title>
<path fill="none" stroke="midnightblue" d="M610.17,-108.21C558.08,-99.23 480.53,-85.83 413,-74 409.92,-73.46 406.72,-72.9 403.51,-72.33"/>
<polygon fill="midnightblue" stroke="midnightblue" points="609.79,-111.69 620.24,-109.94 610.98,-104.79 609.79,-111.69"/>
</g>
<!-- Node14 -->
<g id="node14" class="node">
<title>Node14</title>
<g id="a_node14"><a xlink:href="../../d7/dcf/a00845.html" target="_top" xlink:title=" ">
<polygon fill="none" stroke="black" points="532,-74 422,-74 422,-55 532,-55 532,-74"/>
<text text-anchor="middle" x="477" y="-62" font-family="Helvetica,sans-Serif" font-size="10.00">SoundCloudAPI.cpp</text>
</a>
</g>
</g>
<!-- Node4&#45;&gt;Node14 -->
<g id="edge13" class="edge">
<title>Node4&#45;&gt;Node14</title>
<path fill="none" stroke="midnightblue" d="M629.25,-107.31C593.14,-97.39 541.17,-83.12 508.25,-74.08"/>
<polygon fill="midnightblue" stroke="midnightblue" points="628.42,-110.71 638.99,-109.98 630.28,-103.96 628.42,-110.71"/>
</g>
<!-- Node15 -->
<g id="node15" class="node">
<title>Node15</title>
<g id="a_node15"><a xlink:href="../../d2/d5e/a00860.html" target="_top" xlink:title=" ">
<polygon fill="none" stroke="black" points="668,-74 550,-74 550,-55 668,-55 668,-74"/>
<text text-anchor="middle" x="609" y="-62" font-family="Helvetica,sans-Serif" font-size="10.00">VoiceConnection.cpp</text>
</a>
</g>
</g>
<!-- Node4&#45;&gt;Node15 -->
<g id="edge14" class="edge">
<title>Node4&#45;&gt;Node15</title>
<path fill="none" stroke="midnightblue" d="M652.53,-103.32C641.66,-93.87 628.06,-82.06 618.98,-74.17"/>
<polygon fill="midnightblue" stroke="midnightblue" points="650.35,-106.07 660.2,-109.98 654.95,-100.78 650.35,-106.07"/>
</g>
<!-- Node16 -->
<g id="node16" class="node">
<title>Node16</title>
<g id="a_node16"><a xlink:href="../../d0/d11/a00842.html" target="_top" xlink:title=" ">
<polygon fill="none" stroke="black" points="183.5,-74 56.5,-74 56.5,-55 183.5,-55 183.5,-74"/>
<text text-anchor="middle" x="120" y="-62" font-family="Helvetica,sans-Serif" font-size="10.00">WebSocketEntities.cpp</text>
</a>
</g>
</g>
<!-- Node4&#45;&gt;Node16 -->
<g id="edge15" class="edge">
<title>Node4&#45;&gt;Node16</title>
<path fill="none" stroke="midnightblue" d="M597.24,-112.23C503.66,-104.05 336.11,-89.01 193,-74 189.95,-73.68 186.84,-73.35 183.69,-73"/>
<polygon fill="midnightblue" stroke="midnightblue" points="597.18,-115.74 607.45,-113.12 597.79,-108.77 597.18,-115.74"/>
</g>
<!-- Node17 -->
<g id="node17" class="node">
<title>Node17</title>
<g id="a_node17"><a xlink:href="../../dc/d1b/a00827.html" target="_top" xlink:title=" ">
<polygon fill="none" stroke="black" points="778,-74 686,-74 686,-55 778,-55 778,-74"/>
<text text-anchor="middle" x="732" y="-62" font-family="Helvetica,sans-Serif" font-size="10.00">YouTubeAPI.cpp</text>
</a>
</g>
</g>
<!-- Node4&#45;&gt;Node17 -->
<g id="edge16" class="edge">
<title>Node4&#45;&gt;Node17</title>
<path fill="none" stroke="midnightblue" d="M687.75,-103.32C698.81,-93.87 712.63,-82.06 721.86,-74.17"/>
<polygon fill="midnightblue" stroke="midnightblue" points="685.29,-100.83 679.96,-109.98 689.84,-106.15 685.29,-100.83"/>
</g>
<!-- Node11 -->
<g id="node11" class="node">
<title>Node11</title>
<g id="a_node11"><a xlink:href="../../d1/d93/a00875.html" target="_top" xlink:title=" ">
<polygon fill="none" stroke="black" points="1404,-19 1330,-19 1330,0 1404,0 1404,-19"/>
<text text-anchor="middle" x="1367" y="-7" font-family="Helvetica,sans-Serif" font-size="10.00">DllMain.cpp</text>
</a>
</g>
</g>
<!-- Node10&#45;&gt;Node11 -->
<g id="edge10" class="edge">
<title>Node10&#45;&gt;Node11</title>
<path fill="none" stroke="midnightblue" d="M1367,-44.66C1367,-35.93 1367,-25.99 1367,-19.09"/>
<polygon fill="midnightblue" stroke="midnightblue" points="1363.5,-44.75 1367,-54.75 1370.5,-44.75 1363.5,-44.75"/>
</g>
<!-- Node18&#45;&gt;Node4 -->
<g id="edge18" class="edge">
<title>Node18&#45;&gt;Node4</title>
<path fill="none" stroke="midnightblue" d="M439.97,-163.13C493.59,-153.19 573.55,-138.37 623.69,-129.08"/>
<polygon fill="midnightblue" stroke="midnightblue" points="439.15,-159.72 429.95,-164.98 440.42,-166.6 439.15,-159.72"/>
</g>
<!-- Node18&#45;&gt;Node7 -->
<g id="edge19" class="edge">
<title>Node18&#45;&gt;Node7</title>
<path fill="none" stroke="midnightblue" d="M365.73,-158.21C338.25,-135.2 287.18,-92.44 265.34,-74.16"/>
<polygon fill="midnightblue" stroke="midnightblue" points="363.53,-160.93 373.44,-164.66 368.02,-155.56 363.53,-160.93"/>
</g>
<!-- Node18&#45;&gt;Node16 -->
<g id="edge20" class="edge">
<title>Node18&#45;&gt;Node16</title>
<path fill="none" stroke="midnightblue" d="M353.4,-160.98C299.11,-138.77 187.29,-93.03 140.89,-74.05"/>
<polygon fill="midnightblue" stroke="midnightblue" points="352.26,-164.3 362.84,-164.84 354.91,-157.82 352.26,-164.3"/>
</g>
</g>
</svg>
