<?xml version="1.0" encoding="UTF-8" standalone="no"?>
<!DOCTYPE svg PUBLIC "-//W3C//DTD SVG 1.1//EN"
 "http://www.w3.org/Graphics/SVG/1.1/DTD/svg11.dtd">
<!-- Generated by graphviz version 3.0.0 (20220226.1711)
 -->
<!-- Title: GuildMemberEntities.hpp Pages: 1 -->
<svg width="2273pt" height="666pt"
 viewBox="0.00 0.00 2272.50 666.00" xmlns="http://www.w3.org/2000/svg" xmlns:xlink="http://www.w3.org/1999/xlink">
<g id="graph0" class="graph" transform="scale(1 1) rotate(0) translate(4 662)">
<title>GuildMemberEntities.hpp</title>
<!-- Node1 -->
<g id="node1" class="node">
<title>Node1</title>
<g id="a_node1"><a xlink:title=" ">
<polygon fill="#bfbfbf" stroke="black" points="2018,-638.5 2018,-657.5 2144,-657.5 2144,-638.5 2018,-638.5"/>
<text text-anchor="middle" x="2081" y="-645.5" font-family="Helvetica,sans-Serif" font-size="10.00">GuildMemberEntities.hpp</text>
</a>
</g>
</g>
<!-- Node2 -->
<g id="node2" class="node">
<title>Node2</title>
<g id="a_node2"><a xlink:href="../../d4/deb/a00710.html" target="_top" xlink:title=" ">
<polygon fill="none" stroke="black" points="843.5,-112.5 843.5,-142.5 974.5,-142.5 974.5,-112.5 843.5,-112.5"/>
<text text-anchor="start" x="851.5" y="-130.5" font-family="Helvetica,sans-Serif" font-size="10.00">discordcoreapi/Foundation</text>
<text text-anchor="middle" x="909" y="-119.5" font-family="Helvetica,sans-Serif" font-size="10.00">Entities.hpp</text>
</a>
</g>
</g>
<!-- Node1&#45;&gt;Node2 -->
<g id="edge1" class="edge">
<title>Node1&#45;&gt;Node2</title>
<path fill="none" stroke="midnightblue" d="M2017.85,-646.43C1693.62,-643.11 231,-623.06 231,-531.5 231,-531.5 231,-531.5 231,-244 231,-189.87 282.71,-196.3 334,-179 424.46,-148.49 698.79,-135.42 833.18,-130.73"/>
<polygon fill="midnightblue" stroke="midnightblue" points="833.51,-134.22 843.39,-130.38 833.27,-127.23 833.51,-134.22"/>
</g>
<!-- Node28 -->
<g id="node28" class="node">
<title>Node28</title>
<g id="a_node28"><a xlink:href="../../d3/d2c/a00764.html" target="_top" xlink:title=" ">
<polygon fill="none" stroke="black" points="2109.5,-582.5 2109.5,-601.5 2264.5,-601.5 2264.5,-582.5 2109.5,-582.5"/>
<text text-anchor="middle" x="2187" y="-589.5" font-family="Helvetica,sans-Serif" font-size="10.00">discordcoreapi/UserEntities.hpp</text>
</a>
</g>
</g>
<!-- Node1&#45;&gt;Node28 -->
<g id="edge27" class="edge">
<title>Node1&#45;&gt;Node28</title>
<path fill="none" stroke="midnightblue" d="M2098.03,-638.32C2115.03,-629.66 2141.38,-616.24 2160.99,-606.25"/>
<polygon fill="midnightblue" stroke="midnightblue" points="2162.69,-609.31 2170.01,-601.65 2159.51,-603.08 2162.69,-609.31"/>
</g>
<!-- Node37 -->
<g id="node37" class="node">
<title>Node37</title>
<g id="a_node37"><a xlink:href="../../db/d7c/a00722.html" target="_top" xlink:title=" ">
<polygon fill="none" stroke="black" points="2012.5,-291.5 2012.5,-310.5 2137.5,-310.5 2137.5,-291.5 2012.5,-291.5"/>
<text text-anchor="middle" x="2075" y="-298.5" font-family="Helvetica,sans-Serif" font-size="10.00">discordcoreapi/Https.hpp</text>
</a>
</g>
</g>
<!-- Node1&#45;&gt;Node37 -->
<g id="edge65" class="edge">
<title>Node1&#45;&gt;Node37</title>
<path fill="none" stroke="midnightblue" d="M2081,-638.31C2081,-619.06 2081,-571.4 2081,-531.5 2081,-531.5 2081,-531.5 2081,-412 2081,-379.9 2078.42,-342.61 2076.64,-320.73"/>
<polygon fill="midnightblue" stroke="midnightblue" points="2080.11,-320.22 2075.78,-310.55 2073.14,-320.81 2080.11,-320.22"/>
</g>
<!-- Node3 -->
<g id="node3" class="node">
<title>Node3</title>
<g id="a_node3"><a xlink:href="../../d5/dae/a00767.html" target="_top" xlink:title=" ">
<polygon fill="none" stroke="black" points="914,-56.5 914,-75.5 1048,-75.5 1048,-56.5 914,-56.5"/>
<text text-anchor="middle" x="981" y="-63.5" font-family="Helvetica,sans-Serif" font-size="10.00">discordcoreapi/Utilities.hpp</text>
</a>
</g>
</g>
<!-- Node2&#45;&gt;Node3 -->
<g id="edge2" class="edge">
<title>Node2&#45;&gt;Node3</title>
<path fill="none" stroke="midnightblue" d="M926.06,-112.4C937.06,-103.31 951.37,-91.49 962.62,-82.19"/>
<polygon fill="midnightblue" stroke="midnightblue" points="965.04,-84.73 970.52,-75.66 960.59,-79.33 965.04,-84.73"/>
</g>
<!-- Node4 -->
<g id="node4" class="node">
<title>Node4</title>
<g id="a_node4"><a xlink:title=" ">
<polygon fill="none" stroke="#bfbfbf" points="1648.5,-0.5 1648.5,-19.5 1705.5,-19.5 1705.5,-0.5 1648.5,-0.5"/>
<text text-anchor="middle" x="1677" y="-7.5" font-family="Helvetica,sans-Serif" font-size="10.00">pthread.h</text>
</a>
</g>
</g>
<!-- Node3&#45;&gt;Node4 -->
<g id="edge3" class="edge">
<title>Node3&#45;&gt;Node4</title>
<path fill="none" stroke="midnightblue" d="M1048.18,-64.04C1165.86,-61.56 1417,-52.75 1638.28,-19.82"/>
<polygon fill="midnightblue" stroke="midnightblue" points="1639.1,-23.24 1648.46,-18.29 1638.05,-16.32 1639.1,-23.24"/>
</g>
<!-- Node5 -->
<g id="node5" class="node">
<title>Node5</title>
<g id="a_node5"><a xlink:title=" ">
<polygon fill="none" stroke="#bfbfbf" points="0,-0.5 0,-19.5 62,-19.5 62,-0.5 0,-0.5"/>
<text text-anchor="middle" x="31" y="-7.5" font-family="Helvetica,sans-Serif" font-size="10.00">sys/time.h</text>
</a>
</g>
</g>
<!-- Node3&#45;&gt;Node5 -->
<g id="edge4" class="edge">
<title>Node3&#45;&gt;Node5</title>
<path fill="none" stroke="midnightblue" d="M913.85,-65.61C764.16,-66.13 391.81,-62.71 72.26,-19.93"/>
<polygon fill="midnightblue" stroke="midnightblue" points="72.73,-16.46 62.35,-18.59 71.79,-23.4 72.73,-16.46"/>
</g>
<!-- Node6 -->
<g id="node6" class="node">
<title>Node6</title>
<g id="a_node6"><a xlink:title=" ">
<polygon fill="none" stroke="#bfbfbf" points="80,-0.5 80,-19.5 124,-19.5 124,-0.5 80,-0.5"/>
<text text-anchor="middle" x="102" y="-7.5" font-family="Helvetica,sans-Serif" font-size="10.00">time.h</text>
</a>
</g>
</g>
<!-- Node3&#45;&gt;Node6 -->
<g id="edge5" class="edge">
<title>Node3&#45;&gt;Node6</title>
<path fill="none" stroke="midnightblue" d="M913.72,-63.42C744.05,-59.13 300.94,-45.9 134.08,-19.73"/>
<polygon fill="midnightblue" stroke="midnightblue" points="134.64,-16.28 124.21,-18.11 133.51,-23.18 134.64,-16.28"/>
</g>
<!-- Node7 -->
<g id="node7" class="node">
<title>Node7</title>
<g id="a_node7"><a xlink:title=" ">
<polygon fill="none" stroke="#bfbfbf" points="142.5,-0.5 142.5,-19.5 183.5,-19.5 183.5,-0.5 142.5,-0.5"/>
<text text-anchor="middle" x="163" y="-7.5" font-family="Helvetica,sans-Serif" font-size="10.00">ctime</text>
</a>
</g>
</g>
<!-- Node3&#45;&gt;Node7 -->
<g id="edge6" class="edge">
<title>Node3&#45;&gt;Node7</title>
<path fill="none" stroke="midnightblue" d="M913.91,-63.28C753.17,-58.81 348.52,-45.54 194.01,-19.89"/>
<polygon fill="midnightblue" stroke="midnightblue" points="194.21,-16.38 183.76,-18.11 193.01,-23.27 194.21,-16.38"/>
</g>
<!-- Node8 -->
<g id="node8" class="node">
<title>Node8</title>
<g id="a_node8"><a xlink:title=" ">
<polygon fill="none" stroke="#bfbfbf" points="201.5,-0.5 201.5,-19.5 294.5,-19.5 294.5,-0.5 201.5,-0.5"/>
<text text-anchor="middle" x="248" y="-7.5" font-family="Helvetica,sans-Serif" font-size="10.00">condition_variable</text>
</a>
</g>
</g>
<!-- Node3&#45;&gt;Node8 -->
<g id="edge7" class="edge">
<title>Node3&#45;&gt;Node8</title>
<path fill="none" stroke="midnightblue" d="M913.55,-62.6C793.37,-57.86 534.12,-45.57 304.91,-19.99"/>
<polygon fill="midnightblue" stroke="midnightblue" points="305.04,-16.48 294.71,-18.84 304.25,-23.44 305.04,-16.48"/>
</g>
<!-- Node9 -->
<g id="node9" class="node">
<title>Node9</title>
<g id="a_node9"><a xlink:title=" ">
<polygon fill="none" stroke="#bfbfbf" points="313,-0.5 313,-19.5 411,-19.5 411,-0.5 313,-0.5"/>
<text text-anchor="middle" x="362" y="-7.5" font-family="Helvetica,sans-Serif" font-size="10.00">nlohmann/json.hpp</text>
</a>
</g>
</g>
<!-- Node3&#45;&gt;Node9 -->
<g id="edge8" class="edge">
<title>Node3&#45;&gt;Node9</title>
<path fill="none" stroke="midnightblue" d="M913.92,-61.23C810.43,-55.05 605.41,-41.4 421.16,-20.05"/>
<polygon fill="midnightblue" stroke="midnightblue" points="421.35,-16.55 411.01,-18.87 420.54,-23.5 421.35,-16.55"/>
</g>
<!-- Node10 -->
<g id="node10" class="node">
<title>Node10</title>
<g id="a_node10"><a xlink:title=" ">
<polygon fill="none" stroke="#bfbfbf" points="429.5,-0.5 429.5,-19.5 514.5,-19.5 514.5,-0.5 429.5,-0.5"/>
<text text-anchor="middle" x="472" y="-7.5" font-family="Helvetica,sans-Serif" font-size="10.00">source_location</text>
</a>
</g>
</g>
<!-- Node3&#45;&gt;Node10 -->
<g id="edge9" class="edge">
<title>Node3&#45;&gt;Node10</title>
<path fill="none" stroke="midnightblue" d="M913.68,-60.01C826.23,-53.17 668.6,-39.6 524.45,-20.11"/>
<polygon fill="midnightblue" stroke="midnightblue" points="524.92,-16.64 514.54,-18.76 523.97,-23.58 524.92,-16.64"/>
</g>
<!-- Node11 -->
<g id="node11" class="node">
<title>Node11</title>
<g id="a_node11"><a xlink:title=" ">
<polygon fill="none" stroke="#bfbfbf" points="532.5,-0.5 532.5,-19.5 615.5,-19.5 615.5,-0.5 532.5,-0.5"/>
<text text-anchor="middle" x="574" y="-7.5" font-family="Helvetica,sans-Serif" font-size="10.00">unordered_map</text>
</a>
</g>
</g>
<!-- Node3&#45;&gt;Node11 -->
<g id="edge10" class="edge">
<title>Node3&#45;&gt;Node11</title>
<path fill="none" stroke="midnightblue" d="M913.94,-57.51C844.44,-49.53 732.44,-36.04 625.7,-20.04"/>
<polygon fill="midnightblue" stroke="midnightblue" points="626.13,-16.57 615.72,-18.53 625.09,-23.49 626.13,-16.57"/>
</g>
<!-- Node12 -->
<g id="node12" class="node">
<title>Node12</title>
<g id="a_node12"><a xlink:title=" ">
<polygon fill="none" stroke="#bfbfbf" points="634,-0.5 634,-19.5 712,-19.5 712,-0.5 634,-0.5"/>
<text text-anchor="middle" x="673" y="-7.5" font-family="Helvetica,sans-Serif" font-size="10.00">shared_mutex</text>
</a>
</g>
</g>
<!-- Node3&#45;&gt;Node12 -->
<g id="edge11" class="edge">
<title>Node3&#45;&gt;Node12</title>
<path fill="none" stroke="midnightblue" d="M930.63,-56.5C880.38,-47.96 800.68,-34.3 722.1,-20.18"/>
<polygon fill="midnightblue" stroke="midnightblue" points="722.49,-16.69 712.02,-18.36 721.25,-23.58 722.49,-16.69"/>
</g>
<!-- Node13 -->
<g id="node13" class="node">
<title>Node13</title>
<g id="a_node13"><a xlink:title=" ">
<polygon fill="none" stroke="#bfbfbf" points="730,-0.5 730,-19.5 788,-19.5 788,-0.5 730,-0.5"/>
<text text-anchor="middle" x="759" y="-7.5" font-family="Helvetica,sans-Serif" font-size="10.00">functional</text>
</a>
</g>
</g>
<!-- Node3&#45;&gt;Node13 -->
<g id="edge12" class="edge">
<title>Node3&#45;&gt;Node13</title>
<path fill="none" stroke="midnightblue" d="M945.82,-56.44C905.61,-46.66 839.98,-30.7 798.17,-20.53"/>
<polygon fill="midnightblue" stroke="midnightblue" points="798.88,-17.1 788.34,-18.14 797.23,-23.9 798.88,-17.1"/>
</g>
<!-- Node14 -->
<g id="node14" class="node">
<title>Node14</title>
<g id="a_node14"><a xlink:title=" ">
<polygon fill="none" stroke="#bfbfbf" points="806,-0.5 806,-19.5 862,-19.5 862,-0.5 806,-0.5"/>
<text text-anchor="middle" x="834" y="-7.5" font-family="Helvetica,sans-Serif" font-size="10.00">coroutine</text>
</a>
</g>
</g>
<!-- Node3&#45;&gt;Node14 -->
<g id="edge13" class="edge">
<title>Node3&#45;&gt;Node14</title>
<path fill="none" stroke="midnightblue" d="M957.71,-56.44C933.19,-47.44 894.4,-33.19 866.8,-23.05"/>
<polygon fill="midnightblue" stroke="midnightblue" points="867.78,-19.68 857.18,-19.52 865.36,-26.25 867.78,-19.68"/>
</g>
<!-- Node15 -->
<g id="node15" class="node">
<title>Node15</title>
<g id="a_node15"><a xlink:title=" ">
<polygon fill="none" stroke="#bfbfbf" points="1918.5,-0.5 1918.5,-19.5 1983.5,-19.5 1983.5,-0.5 1918.5,-0.5"/>
<text text-anchor="middle" x="1951" y="-7.5" font-family="Helvetica,sans-Serif" font-size="10.00">semaphore</text>
</a>
</g>
</g>
<!-- Node3&#45;&gt;Node15 -->
<g id="edge14" class="edge">
<title>Node3&#45;&gt;Node15</title>
<path fill="none" stroke="midnightblue" d="M1048.05,-61.27C1234.41,-50.89 1754.91,-21.92 1908.08,-13.39"/>
<polygon fill="midnightblue" stroke="midnightblue" points="1908.67,-16.86 1918.46,-12.81 1908.28,-9.87 1908.67,-16.86"/>
</g>
<!-- Node16 -->
<g id="node16" class="node">
<title>Node16</title>
<g id="a_node16"><a xlink:title=" ">
<polygon fill="none" stroke="#bfbfbf" points="880,-0.5 880,-19.5 936,-19.5 936,-0.5 880,-0.5"/>
<text text-anchor="middle" x="908" y="-7.5" font-family="Helvetica,sans-Serif" font-size="10.00">concepts</text>
</a>
</g>
</g>
<!-- Node3&#45;&gt;Node16 -->
<g id="edge15" class="edge">
<title>Node3&#45;&gt;Node16</title>
<path fill="none" stroke="midnightblue" d="M969.27,-56.32C958.16,-48.11 941.26,-35.6 928.02,-25.81"/>
<polygon fill="midnightblue" stroke="midnightblue" points="930.06,-22.97 919.94,-19.83 925.9,-28.59 930.06,-22.97"/>
</g>
<!-- Node17 -->
<g id="node17" class="node">
<title>Node17</title>
<g id="a_node17"><a xlink:title=" ">
<polygon fill="none" stroke="#bfbfbf" points="954,-0.5 954,-19.5 1008,-19.5 1008,-0.5 954,-0.5"/>
<text text-anchor="middle" x="981" y="-7.5" font-family="Helvetica,sans-Serif" font-size="10.00">iostream</text>
</a>
</g>
</g>
<!-- Node3&#45;&gt;Node17 -->
<g id="edge16" class="edge">
<title>Node3&#45;&gt;Node17</title>
<path fill="none" stroke="midnightblue" d="M981,-56.08C981,-49.01 981,-38.86 981,-29.99"/>
<polygon fill="midnightblue" stroke="midnightblue" points="984.5,-29.75 981,-19.75 977.5,-29.75 984.5,-29.75"/>
</g>
<!-- Node18 -->
<g id="node18" class="node">
<title>Node18</title>
<g id="a_node18"><a xlink:title=" ">
<polygon fill="none" stroke="#bfbfbf" points="1026.5,-0.5 1026.5,-19.5 1075.5,-19.5 1075.5,-0.5 1026.5,-0.5"/>
<text text-anchor="middle" x="1051" y="-7.5" font-family="Helvetica,sans-Serif" font-size="10.00">fstream</text>
</a>
</g>
</g>
<!-- Node3&#45;&gt;Node18 -->
<g id="edge17" class="edge">
<title>Node3&#45;&gt;Node18</title>
<path fill="none" stroke="midnightblue" d="M992.25,-56.32C1002.8,-48.18 1018.8,-35.84 1031.44,-26.09"/>
<polygon fill="midnightblue" stroke="midnightblue" points="1033.77,-28.71 1039.55,-19.83 1029.49,-23.17 1033.77,-28.71"/>
</g>
<!-- Node19 -->
<g id="node19" class="node">
<title>Node19</title>
<g id="a_node19"><a xlink:title=" ">
<polygon fill="none" stroke="#bfbfbf" points="1093.5,-0.5 1093.5,-19.5 1134.5,-19.5 1134.5,-0.5 1093.5,-0.5"/>
<text text-anchor="middle" x="1114" y="-7.5" font-family="Helvetica,sans-Serif" font-size="10.00">bitset</text>
</a>
</g>
</g>
<!-- Node3&#45;&gt;Node19 -->
<g id="edge18" class="edge">
<title>Node3&#45;&gt;Node19</title>
<path fill="none" stroke="midnightblue" d="M1002.07,-56.44C1024.19,-47.46 1059.14,-33.27 1084.1,-23.14"/>
<polygon fill="midnightblue" stroke="midnightblue" points="1085.51,-26.34 1093.46,-19.34 1082.88,-19.86 1085.51,-26.34"/>
</g>
<!-- Node20 -->
<g id="node20" class="node">
<title>Node20</title>
<g id="a_node20"><a xlink:title=" ">
<polygon fill="none" stroke="#bfbfbf" points="1153,-0.5 1153,-19.5 1205,-19.5 1205,-0.5 1153,-0.5"/>
<text text-anchor="middle" x="1179" y="-7.5" font-family="Helvetica,sans-Serif" font-size="10.00">memory</text>
</a>
</g>
</g>
<!-- Node3&#45;&gt;Node20 -->
<g id="edge19" class="edge">
<title>Node3&#45;&gt;Node20</title>
<path fill="none" stroke="midnightblue" d="M1012.37,-56.44C1047.86,-46.77 1105.54,-31.03 1142.88,-20.85"/>
<polygon fill="midnightblue" stroke="midnightblue" points="1144.1,-24.14 1152.83,-18.14 1142.26,-17.39 1144.1,-24.14"/>
</g>
<!-- Node21 -->
<g id="node21" class="node">
<title>Node21</title>
<g id="a_node21"><a xlink:title=" ">
<polygon fill="none" stroke="#bfbfbf" points="1223.5,-0.5 1223.5,-19.5 1272.5,-19.5 1272.5,-0.5 1223.5,-0.5"/>
<text text-anchor="middle" x="1248" y="-7.5" font-family="Helvetica,sans-Serif" font-size="10.00">random</text>
</a>
</g>
</g>
<!-- Node3&#45;&gt;Node21 -->
<g id="edge20" class="edge">
<title>Node3&#45;&gt;Node21</title>
<path fill="none" stroke="midnightblue" d="M1030.3,-56.48C1075.38,-48.47 1144.13,-35.69 1213.01,-20.1"/>
<polygon fill="midnightblue" stroke="midnightblue" points="1214.2,-23.42 1223.17,-17.78 1212.64,-16.6 1214.2,-23.42"/>
</g>
<!-- Node22 -->
<g id="node22" class="node">
<title>Node22</title>
<g id="a_node22"><a xlink:title=" ">
<polygon fill="none" stroke="#bfbfbf" points="1290.5,-0.5 1290.5,-19.5 1331.5,-19.5 1331.5,-0.5 1290.5,-0.5"/>
<text text-anchor="middle" x="1311" y="-7.5" font-family="Helvetica,sans-Serif" font-size="10.00">string</text>
</a>
</g>
</g>
<!-- Node3&#45;&gt;Node22 -->
<g id="edge21" class="edge">
<title>Node3&#45;&gt;Node22</title>
<path fill="none" stroke="midnightblue" d="M1048.23,-57.7C1107.1,-50.67 1195.03,-38.65 1280.57,-19.8"/>
<polygon fill="midnightblue" stroke="midnightblue" points="1281.45,-23.19 1290.45,-17.59 1279.92,-16.36 1281.45,-23.19"/>
</g>
<!-- Node23 -->
<g id="node23" class="node">
<title>Node23</title>
<g id="a_node23"><a xlink:title=" ">
<polygon fill="none" stroke="#bfbfbf" points="1350,-0.5 1350,-19.5 1392,-19.5 1392,-0.5 1350,-0.5"/>
<text text-anchor="middle" x="1371" y="-7.5" font-family="Helvetica,sans-Serif" font-size="10.00">vector</text>
</a>
</g>
</g>
<!-- Node3&#45;&gt;Node23 -->
<g id="edge22" class="edge">
<title>Node3&#45;&gt;Node23</title>
<path fill="none" stroke="midnightblue" d="M1048.01,-59.78C1120.52,-53.4 1239.27,-40.8 1340,-20 1340.1,-19.98 1340.2,-19.96 1340.3,-19.94"/>
<polygon fill="midnightblue" stroke="midnightblue" points="1340.87,-23.4 1349.77,-17.64 1339.22,-16.6 1340.87,-23.4"/>
</g>
<!-- Node24 -->
<g id="node24" class="node">
<title>Node24</title>
<g id="a_node24"><a xlink:title=" ">
<polygon fill="none" stroke="#bfbfbf" points="1410,-0.5 1410,-19.5 1454,-19.5 1454,-0.5 1410,-0.5"/>
<text text-anchor="middle" x="1432" y="-7.5" font-family="Helvetica,sans-Serif" font-size="10.00">thread</text>
</a>
</g>
</g>
<!-- Node3&#45;&gt;Node24 -->
<g id="edge23" class="edge">
<title>Node3&#45;&gt;Node24</title>
<path fill="none" stroke="midnightblue" d="M1048.1,-61.46C1129.36,-56.35 1270.4,-44.89 1399.68,-19.94"/>
<polygon fill="midnightblue" stroke="midnightblue" points="1400.63,-23.32 1409.76,-17.96 1399.28,-16.45 1400.63,-23.32"/>
</g>
<!-- Node25 -->
<g id="node25" class="node">
<title>Node25</title>
<g id="a_node25"><a xlink:title=" ">
<polygon fill="none" stroke="#bfbfbf" points="1472,-0.5 1472,-19.5 1516,-19.5 1516,-0.5 1472,-0.5"/>
<text text-anchor="middle" x="1494" y="-7.5" font-family="Helvetica,sans-Serif" font-size="10.00">mutex</text>
</a>
</g>
</g>
<!-- Node3&#45;&gt;Node25 -->
<g id="edge24" class="edge">
<title>Node3&#45;&gt;Node25</title>
<path fill="none" stroke="midnightblue" d="M1048.22,-62.74C1139.88,-58.77 1309.18,-48.28 1461.75,-19.9"/>
<polygon fill="midnightblue" stroke="midnightblue" points="1462.6,-23.3 1471.77,-18 1461.3,-16.42 1462.6,-23.3"/>
</g>
<!-- Node26 -->
<g id="node26" class="node">
<title>Node26</title>
<g id="a_node26"><a xlink:title=" ">
<polygon fill="none" stroke="#bfbfbf" points="1534.5,-0.5 1534.5,-19.5 1577.5,-19.5 1577.5,-0.5 1534.5,-0.5"/>
<text text-anchor="middle" x="1556" y="-7.5" font-family="Helvetica,sans-Serif" font-size="10.00">queue</text>
</a>
</g>
</g>
<!-- Node3&#45;&gt;Node26 -->
<g id="edge25" class="edge">
<title>Node3&#45;&gt;Node26</title>
<path fill="none" stroke="midnightblue" d="M1048.14,-63.75C1149.51,-60.93 1347.63,-51.7 1524.45,-19.69"/>
<polygon fill="midnightblue" stroke="midnightblue" points="1525.25,-23.1 1534.45,-17.85 1523.98,-16.22 1525.25,-23.1"/>
</g>
<!-- Node27 -->
<g id="node27" class="node">
<title>Node27</title>
<g id="a_node27"><a xlink:title=" ">
<polygon fill="none" stroke="#bfbfbf" points="1595.5,-0.5 1595.5,-19.5 1630.5,-19.5 1630.5,-0.5 1595.5,-0.5"/>
<text text-anchor="middle" x="1613" y="-7.5" font-family="Helvetica,sans-Serif" font-size="10.00">map</text>
</a>
</g>
</g>
<!-- Node3&#45;&gt;Node27 -->
<g id="edge26" class="edge">
<title>Node3&#45;&gt;Node27</title>
<path fill="none" stroke="midnightblue" d="M1048.43,-65.39C1159.09,-64.86 1385.97,-58.79 1585.38,-19.56"/>
<polygon fill="midnightblue" stroke="midnightblue" points="1586.33,-22.94 1595.45,-17.54 1584.96,-16.07 1586.33,-22.94"/>
</g>
<!-- Node28&#45;&gt;Node2 -->
<g id="edge28" class="edge">
<title>Node28&#45;&gt;Node2</title>
<path fill="none" stroke="midnightblue" d="M2185.77,-582.21C2183.1,-562.3 2177,-512.16 2177,-470 2177,-470 2177,-470 2177,-244 2177,-152.65 2071.81,-195.75 1982,-179 1790.35,-143.26 1196.05,-132.21 984.62,-129.37"/>
<polygon fill="midnightblue" stroke="midnightblue" points="984.59,-125.86 974.54,-129.23 984.5,-132.86 984.59,-125.86"/>
</g>
<!-- Node29 -->
<g id="node29" class="node">
<title>Node29</title>
<g id="a_node29"><a xlink:href="../../d9/dd4/a00776.html" target="_top" xlink:title=" ">
<polygon fill="none" stroke="black" points="796,-515.5 796,-545.5 930,-545.5 930,-515.5 796,-515.5"/>
<text text-anchor="start" x="804" y="-533.5" font-family="Helvetica,sans-Serif" font-size="10.00">discordcoreapi/WebSocket</text>
<text text-anchor="middle" x="863" y="-522.5" font-family="Helvetica,sans-Serif" font-size="10.00">Entities.hpp</text>
</a>
</g>
</g>
<!-- Node28&#45;&gt;Node29 -->
<g id="edge29" class="edge">
<title>Node28&#45;&gt;Node29</title>
<path fill="none" stroke="midnightblue" d="M2109.12,-587.5C1874.26,-576.95 1174.74,-545.51 940.45,-534.98"/>
<polygon fill="midnightblue" stroke="midnightblue" points="940.46,-531.48 930.31,-534.52 940.14,-538.47 940.46,-531.48"/>
</g>
<!-- Node29&#45;&gt;Node2 -->
<g id="edge62" class="edge">
<title>Node29&#45;&gt;Node2</title>
<path fill="none" stroke="midnightblue" d="M814.21,-515.5C671.34,-472.27 272.6,-334.42 413,-179 440.6,-148.44 701.23,-135.41 833.2,-130.73"/>
<polygon fill="midnightblue" stroke="midnightblue" points="833.37,-134.23 843.25,-130.39 833.13,-127.23 833.37,-134.23"/>
</g>
<!-- Node30 -->
<g id="node30" class="node">
<title>Node30</title>
<g id="a_node30"><a xlink:href="../../d4/d9b/a00680.html" target="_top" xlink:title=" ">
<polygon fill="none" stroke="black" points="553,-235.5 553,-254.5 715,-254.5 715,-235.5 553,-235.5"/>
<text text-anchor="middle" x="634" y="-242.5" font-family="Helvetica,sans-Serif" font-size="10.00">discordcoreapi/AudioDecoder.hpp</text>
</a>
</g>
</g>
<!-- Node29&#45;&gt;Node30 -->
<g id="edge30" class="edge">
<title>Node29&#45;&gt;Node30</title>
<path fill="none" stroke="midnightblue" d="M807.93,-515.42C760.29,-499.53 699,-468.5 699,-414 699,-414 699,-414 699,-356 699,-318.18 670.16,-281.94 650.91,-261.96"/>
<polygon fill="midnightblue" stroke="midnightblue" points="653.14,-259.24 643.59,-254.66 648.2,-264.2 653.14,-259.24"/>
</g>
<!-- Node31 -->
<g id="node31" class="node">
<title>Node31</title>
<g id="a_node31"><a xlink:href="../../d4/d6a/a00704.html" target="_top" xlink:title=" ">
<polygon fill="none" stroke="black" points="723,-179.5 723,-198.5 881,-198.5 881,-179.5 723,-179.5"/>
<text text-anchor="middle" x="802" y="-186.5" font-family="Helvetica,sans-Serif" font-size="10.00">discordcoreapi/EventEntities.hpp</text>
</a>
</g>
</g>
<!-- Node29&#45;&gt;Node31 -->
<g id="edge61" class="edge">
<title>Node29&#45;&gt;Node31</title>
<path fill="none" stroke="midnightblue" d="M848.37,-515.21C839.35,-505.69 828.18,-492.49 821,-479 806.86,-452.43 802,-444.1 802,-414 802,-414 802,-414 802,-300 802,-267.95 802,-230.64 802,-208.75"/>
<polygon fill="midnightblue" stroke="midnightblue" points="805.5,-208.56 802,-198.56 798.5,-208.56 805.5,-208.56"/>
</g>
<!-- Node34 -->
<g id="node34" class="node">
<title>Node34</title>
<g id="a_node34"><a xlink:href="../../d0/db6/a00692.html" target="_top" xlink:title=" ">
<polygon fill="none" stroke="black" points="830.5,-459.5 830.5,-478.5 1017.5,-478.5 1017.5,-459.5 830.5,-459.5"/>
<text text-anchor="middle" x="924" y="-466.5" font-family="Helvetica,sans-Serif" font-size="10.00">discordcoreapi/CommandController.hpp</text>
</a>
</g>
</g>
<!-- Node29&#45;&gt;Node34 -->
<g id="edge36" class="edge">
<title>Node29&#45;&gt;Node34</title>
<path fill="none" stroke="midnightblue" d="M877.46,-515.4C886.59,-506.49 898.42,-494.95 907.86,-485.74"/>
<polygon fill="midnightblue" stroke="midnightblue" points="910.41,-488.15 915.12,-478.66 905.52,-483.13 910.41,-488.15"/>
</g>
<!-- Node36 -->
<g id="node36" class="node">
<title>Node36</title>
<g id="a_node36"><a xlink:href="../../d3/d4f/a00761.html" target="_top" xlink:title=" ">
<polygon fill="none" stroke="black" points="1903,-347.5 1903,-366.5 2053,-366.5 2053,-347.5 1903,-347.5"/>
<text text-anchor="middle" x="1978" y="-354.5" font-family="Helvetica,sans-Serif" font-size="10.00">discordcoreapi/ThreadPool.hpp</text>
</a>
</g>
</g>
<!-- Node29&#45;&gt;Node36 -->
<g id="edge64" class="edge">
<title>Node29&#45;&gt;Node36</title>
<path fill="none" stroke="midnightblue" d="M930.07,-527.2C1155.59,-518.9 1876.86,-487.5 1957,-423 1970.69,-411.98 1975.57,-391.93 1977.25,-377"/>
<polygon fill="midnightblue" stroke="midnightblue" points="1980.75,-377.05 1978,-366.82 1973.77,-376.53 1980.75,-377.05"/>
</g>
<!-- Node38 -->
<g id="node38" class="node">
<title>Node38</title>
<g id="a_node38"><a xlink:href="../../d5/de8/a00749.html" target="_top" xlink:title=" ">
<polygon fill="none" stroke="black" points="1306,-235.5 1306,-254.5 1456,-254.5 1456,-235.5 1306,-235.5"/>
<text text-anchor="middle" x="1381" y="-242.5" font-family="Helvetica,sans-Serif" font-size="10.00">discordcoreapi/SSLClients.hpp</text>
</a>
</g>
</g>
<!-- Node29&#45;&gt;Node38 -->
<g id="edge63" class="edge">
<title>Node29&#45;&gt;Node38</title>
<path fill="none" stroke="midnightblue" d="M930.38,-519.95C1027.16,-504.3 1194,-469.31 1194,-414 1194,-414 1194,-414 1194,-356 1194,-297.94 1261.81,-269.91 1315.76,-256.81"/>
<polygon fill="midnightblue" stroke="midnightblue" points="1316.69,-260.18 1325.65,-254.53 1315.12,-253.36 1316.69,-260.18"/>
</g>
<!-- Node51 -->
<g id="node51" class="node">
<title>Node51</title>
<g id="a_node51"><a xlink:href="../../dd/d57/a00701.html" target="_top" xlink:title=" ">
<polygon fill="none" stroke="black" points="259,-403.5 259,-422.5 403,-422.5 403,-403.5 259,-403.5"/>
<text text-anchor="middle" x="331" y="-410.5" font-family="Helvetica,sans-Serif" font-size="10.00">discordcoreapi/ErlPacker.hpp</text>
</a>
</g>
</g>
<!-- Node29&#45;&gt;Node51 -->
<g id="edge59" class="edge">
<title>Node29&#45;&gt;Node51</title>
<path fill="none" stroke="midnightblue" d="M795.86,-526.24C688.7,-520.32 484.21,-505.84 417,-479 389.17,-467.89 362.52,-445.25 346.45,-429.85"/>
<polygon fill="midnightblue" stroke="midnightblue" points="348.64,-427.1 339.06,-422.56 343.72,-432.08 348.64,-427.1"/>
</g>
<!-- Node30&#45;&gt;Node2 -->
<g id="edge33" class="edge">
<title>Node30&#45;&gt;Node2</title>
<path fill="none" stroke="midnightblue" d="M552.83,-242.51C478.3,-238.34 385.17,-224.33 426,-179 452.68,-149.38 703.56,-135.96 832.81,-130.97"/>
<polygon fill="midnightblue" stroke="midnightblue" points="833.17,-134.46 843.03,-130.59 832.91,-127.47 833.17,-134.46"/>
</g>
<!-- Node30&#45;&gt;Node31 -->
<g id="edge31" class="edge">
<title>Node30&#45;&gt;Node31</title>
<path fill="none" stroke="midnightblue" d="M660.62,-235.44C689.01,-226.32 734.14,-211.81 765.75,-201.65"/>
<polygon fill="midnightblue" stroke="midnightblue" points="767.06,-204.91 775.5,-198.52 764.91,-198.24 767.06,-204.91"/>
</g>
<!-- Node32 -->
<g id="node32" class="node">
<title>Node32</title>
<g id="a_node32"><a xlink:title=" ">
<polygon fill="none" stroke="#bfbfbf" points="435,-179.5 435,-198.5 545,-198.5 545,-179.5 435,-179.5"/>
<text text-anchor="middle" x="490" y="-186.5" font-family="Helvetica,sans-Serif" font-size="10.00">libavformat/avformat.h</text>
</a>
</g>
</g>
<!-- Node30&#45;&gt;Node32 -->
<g id="edge34" class="edge">
<title>Node30&#45;&gt;Node32</title>
<path fill="none" stroke="midnightblue" d="M611.18,-235.44C587.17,-226.44 549.17,-212.19 522.13,-202.05"/>
<polygon fill="midnightblue" stroke="midnightblue" points="523.3,-198.75 512.71,-198.52 520.84,-205.3 523.3,-198.75"/>
</g>
<!-- Node33 -->
<g id="node33" class="node">
<title>Node33</title>
<g id="a_node33"><a xlink:title=" ">
<polygon fill="none" stroke="#bfbfbf" points="563.5,-179.5 563.5,-198.5 704.5,-198.5 704.5,-179.5 563.5,-179.5"/>
<text text-anchor="middle" x="634" y="-186.5" font-family="Helvetica,sans-Serif" font-size="10.00">libswresample/swresample.h</text>
</a>
</g>
</g>
<!-- Node30&#45;&gt;Node33 -->
<g id="edge35" class="edge">
<title>Node30&#45;&gt;Node33</title>
<path fill="none" stroke="midnightblue" d="M634,-235.08C634,-228.01 634,-217.86 634,-208.99"/>
<polygon fill="midnightblue" stroke="midnightblue" points="637.5,-208.75 634,-198.75 630.5,-208.75 637.5,-208.75"/>
</g>
<!-- Node31&#45;&gt;Node2 -->
<g id="edge32" class="edge">
<title>Node31&#45;&gt;Node2</title>
<path fill="none" stroke="midnightblue" d="M817.33,-179.48C832.3,-171.15 855.58,-158.21 874.93,-147.45"/>
<polygon fill="midnightblue" stroke="midnightblue" points="876.74,-150.44 883.78,-142.52 873.34,-144.32 876.74,-150.44"/>
</g>
<!-- Node34&#45;&gt;Node2 -->
<g id="edge58" class="edge">
<title>Node34&#45;&gt;Node2</title>
<path fill="none" stroke="midnightblue" d="M922.04,-459.5C917.97,-441.09 909,-396.16 909,-358 909,-358 909,-358 909,-244 909,-212.49 909,-176.16 909,-152.78"/>
<polygon fill="midnightblue" stroke="midnightblue" points="912.5,-152.72 909,-142.72 905.5,-152.72 912.5,-152.72"/>
</g>
<!-- Node35 -->
<g id="node35" class="node">
<title>Node35</title>
<g id="a_node35"><a xlink:href="../../d5/d5b/a00695.html" target="_top" xlink:title=" ">
<polygon fill="none" stroke="black" points="1802,-403.5 1802,-422.5 1948,-422.5 1948,-403.5 1802,-403.5"/>
<text text-anchor="middle" x="1875" y="-410.5" font-family="Helvetica,sans-Serif" font-size="10.00">discordcoreapi/CoRoutine.hpp</text>
</a>
</g>
</g>
<!-- Node34&#45;&gt;Node35 -->
<g id="edge37" class="edge">
<title>Node34&#45;&gt;Node35</title>
<path fill="none" stroke="midnightblue" d="M1017.79,-462.67C1203.5,-452.13 1615.3,-428.75 1791.92,-418.72"/>
<polygon fill="midnightblue" stroke="midnightblue" points="1792.15,-422.21 1801.94,-418.15 1791.75,-415.22 1792.15,-422.21"/>
</g>
<!-- Node35&#45;&gt;Node2 -->
<g id="edge38" class="edge">
<title>Node35&#45;&gt;Node2</title>
<path fill="none" stroke="midnightblue" d="M1877.32,-403.48C1886.65,-369.15 1921.07,-240.73 1926,-199 1927.04,-190.17 1932.13,-185.44 1926,-179 1893.67,-145.02 1215.93,-132.67 985.16,-129.44"/>
<polygon fill="midnightblue" stroke="midnightblue" points="984.89,-125.94 974.84,-129.3 984.79,-132.94 984.89,-125.94"/>
</g>
<!-- Node35&#45;&gt;Node36 -->
<g id="edge39" class="edge">
<title>Node35&#45;&gt;Node36</title>
<path fill="none" stroke="midnightblue" d="M1891.55,-403.32C1907.99,-394.7 1933.43,-381.36 1952.47,-371.39"/>
<polygon fill="midnightblue" stroke="midnightblue" points="1954.26,-374.4 1961.49,-366.65 1951.01,-368.2 1954.26,-374.4"/>
</g>
<!-- Node36&#45;&gt;Node2 -->
<g id="edge40" class="edge">
<title>Node36&#45;&gt;Node2</title>
<path fill="none" stroke="midnightblue" d="M1980.47,-347.35C1988.13,-318.48 2008.19,-224.69 1960,-179 1924.69,-145.52 1220.02,-132.79 984.74,-129.46"/>
<polygon fill="midnightblue" stroke="midnightblue" points="984.61,-125.96 974.56,-129.32 984.51,-132.96 984.61,-125.96"/>
</g>
<!-- Node36&#45;&gt;Node37 -->
<g id="edge41" class="edge">
<title>Node36&#45;&gt;Node37</title>
<path fill="none" stroke="midnightblue" d="M1993.58,-347.32C2009,-338.74 2032.81,-325.49 2050.71,-315.52"/>
<polygon fill="midnightblue" stroke="midnightblue" points="2052.42,-318.58 2059.45,-310.65 2049.01,-312.46 2052.42,-318.58"/>
</g>
<!-- Node37&#45;&gt;Node15 -->
<g id="edge57" class="edge">
<title>Node37&#45;&gt;Node15</title>
<path fill="none" stroke="midnightblue" d="M2071.49,-291.32C2064.4,-272.96 2049,-228.66 2049,-190 2049,-190 2049,-190 2049,-126.5 2049,-80.94 2004.12,-44.15 1975.1,-25.12"/>
<polygon fill="midnightblue" stroke="midnightblue" points="1976.64,-21.95 1966.31,-19.58 1972.9,-27.87 1976.64,-21.95"/>
</g>
<!-- Node37&#45;&gt;Node38 -->
<g id="edge42" class="edge">
<title>Node37&#45;&gt;Node38</title>
<path fill="none" stroke="midnightblue" d="M2012.5,-295.14C1887.84,-285.44 1608.16,-263.68 1466.59,-252.66"/>
<polygon fill="midnightblue" stroke="midnightblue" points="1466.46,-249.14 1456.22,-251.85 1465.92,-256.12 1466.46,-249.14"/>
</g>
<!-- Node38&#45;&gt;Node2 -->
<g id="edge53" class="edge">
<title>Node38&#45;&gt;Node2</title>
<path fill="none" stroke="midnightblue" d="M1305.97,-242.65C1202.65,-239.66 1022.86,-230.02 966,-199 946.36,-188.29 930.96,-167.74 921.15,-151.58"/>
<polygon fill="midnightblue" stroke="midnightblue" points="924.05,-149.6 916.02,-142.68 917.98,-153.1 924.05,-149.6"/>
</g>
<!-- Node38&#45;&gt;Node31 -->
<g id="edge54" class="edge">
<title>Node38&#45;&gt;Node31</title>
<path fill="none" stroke="midnightblue" d="M1305.9,-237C1199.42,-227.06 1004.9,-208.92 891.21,-198.32"/>
<polygon fill="midnightblue" stroke="midnightblue" points="891.42,-194.82 881.14,-197.38 890.77,-201.79 891.42,-194.82"/>
</g>
<!-- Node39 -->
<g id="node39" class="node">
<title>Node39</title>
<g id="a_node39"><a xlink:title=" ">
<polygon fill="none" stroke="#bfbfbf" points="1568.5,-179.5 1568.5,-198.5 1611.5,-198.5 1611.5,-179.5 1568.5,-179.5"/>
<text text-anchor="middle" x="1590" y="-186.5" font-family="Helvetica,sans-Serif" font-size="10.00">fcntl.h</text>
</a>
</g>
</g>
<!-- Node38&#45;&gt;Node39 -->
<g id="edge43" class="edge">
<title>Node38&#45;&gt;Node39</title>
<path fill="none" stroke="midnightblue" d="M1416.22,-235.48C1450.16,-227.19 1503.19,-214 1558.39,-199.09"/>
<polygon fill="midnightblue" stroke="midnightblue" points="1559.61,-202.39 1568.35,-196.39 1557.78,-195.63 1559.61,-202.39"/>
</g>
<!-- Node40 -->
<g id="node40" class="node">
<title>Node40</title>
<g id="a_node40"><a xlink:title=" ">
<polygon fill="none" stroke="#bfbfbf" points="1629.5,-179.5 1629.5,-198.5 1678.5,-198.5 1678.5,-179.5 1629.5,-179.5"/>
<text text-anchor="middle" x="1654" y="-186.5" font-family="Helvetica,sans-Serif" font-size="10.00">netdb.h</text>
</a>
</g>
</g>
<!-- Node38&#45;&gt;Node40 -->
<g id="edge44" class="edge">
<title>Node38&#45;&gt;Node40</title>
<path fill="none" stroke="midnightblue" d="M1432.04,-235.5C1478.4,-227.52 1548.87,-214.79 1619.24,-199.04"/>
<polygon fill="midnightblue" stroke="midnightblue" points="1620.19,-202.41 1629.17,-196.8 1618.64,-195.58 1620.19,-202.41"/>
</g>
<!-- Node41 -->
<g id="node41" class="node">
<title>Node41</title>
<g id="a_node41"><a xlink:title=" ">
<polygon fill="none" stroke="#bfbfbf" points="1696.5,-179.5 1696.5,-198.5 1761.5,-198.5 1761.5,-179.5 1696.5,-179.5"/>
<text text-anchor="middle" x="1729" y="-186.5" font-family="Helvetica,sans-Serif" font-size="10.00">netinet/in.h</text>
</a>
</g>
</g>
<!-- Node38&#45;&gt;Node41 -->
<g id="edge45" class="edge">
<title>Node38&#45;&gt;Node41</title>
<path fill="none" stroke="midnightblue" d="M1447.46,-235.5C1507.34,-227.54 1597.99,-214.79 1686.53,-198.98"/>
<polygon fill="midnightblue" stroke="midnightblue" points="1687.26,-202.4 1696.48,-197.19 1686.02,-195.51 1687.26,-202.4"/>
</g>
<!-- Node42 -->
<g id="node42" class="node">
<title>Node42</title>
<g id="a_node42"><a xlink:title=" ">
<polygon fill="none" stroke="#bfbfbf" points="1779.5,-179.5 1779.5,-198.5 1850.5,-198.5 1850.5,-179.5 1779.5,-179.5"/>
<text text-anchor="middle" x="1815" y="-186.5" font-family="Helvetica,sans-Serif" font-size="10.00">netinet/tcp.h</text>
</a>
</g>
</g>
<!-- Node38&#45;&gt;Node42 -->
<g id="edge46" class="edge">
<title>Node38&#45;&gt;Node42</title>
<path fill="none" stroke="midnightblue" d="M1456.19,-237.15C1532.5,-229.78 1654.24,-216.87 1769.16,-199.01"/>
<polygon fill="midnightblue" stroke="midnightblue" points="1769.85,-202.45 1779.19,-197.44 1768.76,-195.53 1769.85,-202.45"/>
</g>
<!-- Node43 -->
<g id="node43" class="node">
<title>Node43</title>
<g id="a_node43"><a xlink:title=" ">
<polygon fill="none" stroke="#bfbfbf" points="1868.5,-179.5 1868.5,-198.5 1917.5,-198.5 1917.5,-179.5 1868.5,-179.5"/>
<text text-anchor="middle" x="1893" y="-186.5" font-family="Helvetica,sans-Serif" font-size="10.00">stdint.h</text>
</a>
</g>
</g>
<!-- Node38&#45;&gt;Node43 -->
<g id="edge47" class="edge">
<title>Node38&#45;&gt;Node43</title>
<path fill="none" stroke="midnightblue" d="M1456.03,-240.77C1548.47,-235.93 1710.38,-224.67 1858.07,-198.87"/>
<polygon fill="midnightblue" stroke="midnightblue" points="1858.99,-202.26 1868.22,-197.06 1857.77,-195.36 1858.99,-202.26"/>
</g>
<!-- Node44 -->
<g id="node44" class="node">
<title>Node44</title>
<g id="a_node44"><a xlink:title=" ">
<polygon fill="none" stroke="#bfbfbf" points="975,-179.5 975,-198.5 1039,-198.5 1039,-179.5 975,-179.5"/>
<text text-anchor="middle" x="1007" y="-186.5" font-family="Helvetica,sans-Serif" font-size="10.00">sys/epoll.h</text>
</a>
</g>
</g>
<!-- Node38&#45;&gt;Node44 -->
<g id="edge48" class="edge">
<title>Node38&#45;&gt;Node44</title>
<path fill="none" stroke="midnightblue" d="M1305.67,-235.6C1240.32,-227.91 1142.96,-215.47 1049.13,-199.08"/>
<polygon fill="midnightblue" stroke="midnightblue" points="1049.64,-195.61 1039.18,-197.32 1048.42,-202.51 1049.64,-195.61"/>
</g>
<!-- Node45 -->
<g id="node45" class="node">
<title>Node45</title>
<g id="a_node45"><a xlink:title=" ">
<polygon fill="none" stroke="#bfbfbf" points="1057,-179.5 1057,-198.5 1119,-198.5 1119,-179.5 1057,-179.5"/>
<text text-anchor="middle" x="1088" y="-186.5" font-family="Helvetica,sans-Serif" font-size="10.00">arpa/inet.h</text>
</a>
</g>
</g>
<!-- Node38&#45;&gt;Node45 -->
<g id="edge49" class="edge">
<title>Node38&#45;&gt;Node45</title>
<path fill="none" stroke="midnightblue" d="M1329.02,-235.46C1279.99,-227.25 1204.18,-214.14 1129.47,-199.23"/>
<polygon fill="midnightblue" stroke="midnightblue" points="1129.91,-195.75 1119.41,-197.21 1128.53,-202.61 1129.91,-195.75"/>
</g>
<!-- Node46 -->
<g id="node46" class="node">
<title>Node46</title>
<g id="a_node46"><a xlink:title=" ">
<polygon fill="none" stroke="#bfbfbf" points="1137.5,-179.5 1137.5,-198.5 1210.5,-198.5 1210.5,-179.5 1137.5,-179.5"/>
<text text-anchor="middle" x="1174" y="-186.5" font-family="Helvetica,sans-Serif" font-size="10.00">sys/socket.h</text>
</a>
</g>
</g>
<!-- Node38&#45;&gt;Node46 -->
<g id="edge50" class="edge">
<title>Node38&#45;&gt;Node46</title>
<path fill="none" stroke="midnightblue" d="M1348.2,-235.44C1312.62,-226.16 1255.69,-211.31 1216.65,-201.13"/>
<polygon fill="midnightblue" stroke="midnightblue" points="1217.21,-197.65 1206.65,-198.52 1215.44,-204.43 1217.21,-197.65"/>
</g>
<!-- Node47 -->
<g id="node47" class="node">
<title>Node47</title>
<g id="a_node47"><a xlink:title=" ">
<polygon fill="none" stroke="#bfbfbf" points="1229,-179.5 1229,-198.5 1297,-198.5 1297,-179.5 1229,-179.5"/>
<text text-anchor="middle" x="1263" y="-186.5" font-family="Helvetica,sans-Serif" font-size="10.00">sys/types.h</text>
</a>
</g>
</g>
<!-- Node38&#45;&gt;Node47 -->
<g id="edge51" class="edge">
<title>Node38&#45;&gt;Node47</title>
<path fill="none" stroke="midnightblue" d="M1362.3,-235.44C1343.06,-226.64 1312.85,-212.81 1290.8,-202.72"/>
<polygon fill="midnightblue" stroke="midnightblue" points="1292.16,-199.5 1281.61,-198.52 1289.25,-205.86 1292.16,-199.5"/>
</g>
<!-- Node48 -->
<g id="node48" class="node">
<title>Node48</title>
<g id="a_node48"><a xlink:title=" ">
<polygon fill="none" stroke="#bfbfbf" points="1315.5,-179.5 1315.5,-198.5 1366.5,-198.5 1366.5,-179.5 1315.5,-179.5"/>
<text text-anchor="middle" x="1341" y="-186.5" font-family="Helvetica,sans-Serif" font-size="10.00">unistd.h</text>
</a>
</g>
</g>
<!-- Node38&#45;&gt;Node48 -->
<g id="edge52" class="edge">
<title>Node38&#45;&gt;Node48</title>
<path fill="none" stroke="midnightblue" d="M1374.39,-235.08C1368.74,-227.46 1360.46,-216.26 1353.55,-206.94"/>
<polygon fill="midnightblue" stroke="midnightblue" points="1356.25,-204.7 1347.48,-198.75 1350.62,-208.87 1356.25,-204.7"/>
</g>
<!-- Node49 -->
<g id="node49" class="node">
<title>Node49</title>
<g id="a_node49"><a xlink:title=" ">
<polygon fill="none" stroke="#bfbfbf" points="1384.5,-179.5 1384.5,-198.5 1457.5,-198.5 1457.5,-179.5 1384.5,-179.5"/>
<text text-anchor="middle" x="1421" y="-186.5" font-family="Helvetica,sans-Serif" font-size="10.00">openssl/err.h</text>
</a>
</g>
</g>
<!-- Node38&#45;&gt;Node49 -->
<g id="edge55" class="edge">
<title>Node38&#45;&gt;Node49</title>
<path fill="none" stroke="midnightblue" d="M1387.61,-235.08C1393.26,-227.46 1401.54,-216.26 1408.45,-206.94"/>
<polygon fill="midnightblue" stroke="midnightblue" points="1411.38,-208.87 1414.52,-198.75 1405.75,-204.7 1411.38,-208.87"/>
</g>
<!-- Node50 -->
<g id="node50" class="node">
<title>Node50</title>
<g id="a_node50"><a xlink:title=" ">
<polygon fill="none" stroke="#bfbfbf" points="1476,-179.5 1476,-198.5 1550,-198.5 1550,-179.5 1476,-179.5"/>
<text text-anchor="middle" x="1513" y="-186.5" font-family="Helvetica,sans-Serif" font-size="10.00">openssl/ssl.h</text>
</a>
</g>
</g>
<!-- Node38&#45;&gt;Node50 -->
<g id="edge56" class="edge">
<title>Node38&#45;&gt;Node50</title>
<path fill="none" stroke="midnightblue" d="M1401.92,-235.44C1423.74,-226.52 1458.15,-212.44 1482.89,-202.32"/>
<polygon fill="midnightblue" stroke="midnightblue" points="1484.25,-205.54 1492.18,-198.52 1481.6,-199.06 1484.25,-205.54"/>
</g>
<!-- Node51&#45;&gt;Node2 -->
<g id="edge60" class="edge">
<title>Node51&#45;&gt;Node2</title>
<path fill="none" stroke="midnightblue" d="M331,-403.44C331,-384.94 331,-339.81 331,-302 331,-302 331,-302 331,-244 331,-213.2 330.56,-197.73 355,-179 392.15,-150.53 690.69,-136.22 833.46,-130.95"/>
<polygon fill="midnightblue" stroke="midnightblue" points="833.6,-134.45 843.47,-130.59 833.34,-127.45 833.6,-134.45"/>
</g>
</g>
</svg>
