<?xml version="1.0" encoding="UTF-8" standalone="no"?>
<!DOCTYPE svg PUBLIC "-//W3C//DTD SVG 1.1//EN"
 "http://www.w3.org/Graphics/SVG/1.1/DTD/svg11.dtd">
<!-- Generated by graphviz version 3.0.0 (20220226.1711)
 -->
<!-- Title: GuildMemberEntities.hpp Pages: 1 -->
<svg width="2242pt" height="666pt"
 viewBox="0.00 0.00 2241.50 666.00" xmlns="http://www.w3.org/2000/svg" xmlns:xlink="http://www.w3.org/1999/xlink">
<g id="graph0" class="graph" transform="scale(1 1) rotate(0) translate(4 662)">
<title>GuildMemberEntities.hpp</title>
<!-- Node1 -->
<g id="node1" class="node">
<title>Node1</title>
<g id="a_node1"><a xlink:title=" ">
<polygon fill="#bfbfbf" stroke="black" points="770.5,-638.5 770.5,-657.5 896.5,-657.5 896.5,-638.5 770.5,-638.5"/>
<text text-anchor="middle" x="833.5" y="-645.5" font-family="Helvetica,sans-Serif" font-size="10.00">GuildMemberEntities.hpp</text>
</a>
</g>
</g>
<!-- Node2 -->
<g id="node2" class="node">
<title>Node2</title>
<g id="a_node2"><a xlink:href="../../d4/deb/a00710.html" target="_top" xlink:title=" ">
<polygon fill="none" stroke="black" points="962,-112.5 962,-142.5 1093,-142.5 1093,-112.5 962,-112.5"/>
<text text-anchor="start" x="970" y="-130.5" font-family="Helvetica,sans-Serif" font-size="10.00">discordcoreapi/Foundation</text>
<text text-anchor="middle" x="1027.5" y="-119.5" font-family="Helvetica,sans-Serif" font-size="10.00">Entities.hpp</text>
</a>
</g>
</g>
<!-- Node1&#45;&gt;Node2 -->
<g id="edge1" class="edge">
<title>Node1&#45;&gt;Node2</title>
<path fill="none" stroke="midnightblue" d="M770.24,-640.31C665.02,-627.4 465.5,-594.61 465.5,-531.5 465.5,-531.5 465.5,-531.5 465.5,-244 465.5,-206.44 486.33,-196.62 519.5,-179 592.49,-140.22 828.76,-131.14 951.66,-129.07"/>
<polygon fill="midnightblue" stroke="midnightblue" points="951.8,-132.57 961.75,-128.91 951.69,-125.57 951.8,-132.57"/>
</g>
<!-- Node28 -->
<g id="node28" class="node">
<title>Node28</title>
<g id="a_node28"><a xlink:href="../../d3/d2c/a00764.html" target="_top" xlink:title=" ">
<polygon fill="none" stroke="black" points="756,-582.5 756,-601.5 911,-601.5 911,-582.5 756,-582.5"/>
<text text-anchor="middle" x="833.5" y="-589.5" font-family="Helvetica,sans-Serif" font-size="10.00">discordcoreapi/UserEntities.hpp</text>
</a>
</g>
</g>
<!-- Node1&#45;&gt;Node28 -->
<g id="edge27" class="edge">
<title>Node1&#45;&gt;Node28</title>
<path fill="none" stroke="midnightblue" d="M833.5,-638.08C833.5,-631.01 833.5,-620.86 833.5,-611.99"/>
<polygon fill="midnightblue" stroke="midnightblue" points="837,-611.75 833.5,-601.75 830,-611.75 837,-611.75"/>
</g>
<!-- Node37 -->
<g id="node37" class="node">
<title>Node37</title>
<g id="a_node37"><a xlink:href="../../db/d7c/a00722.html" target="_top" xlink:title=" ">
<polygon fill="none" stroke="black" points="1415,-291.5 1415,-310.5 1540,-310.5 1540,-291.5 1415,-291.5"/>
<text text-anchor="middle" x="1477.5" y="-298.5" font-family="Helvetica,sans-Serif" font-size="10.00">discordcoreapi/Https.hpp</text>
</a>
</g>
</g>
<!-- Node1&#45;&gt;Node37 -->
<g id="edge64" class="edge">
<title>Node1&#45;&gt;Node37</title>
<path fill="none" stroke="midnightblue" d="M896.83,-645.14C1169.98,-636.71 2233.5,-599.52 2233.5,-531.5 2233.5,-531.5 2233.5,-531.5 2233.5,-412 2233.5,-343.38 1739.48,-313.82 1550.15,-305.01"/>
<polygon fill="midnightblue" stroke="midnightblue" points="1550.16,-301.51 1540.01,-304.55 1549.84,-308.5 1550.16,-301.51"/>
</g>
<!-- Node3 -->
<g id="node3" class="node">
<title>Node3</title>
<g id="a_node3"><a xlink:href="../../d5/dae/a00767.html" target="_top" xlink:title=" ">
<polygon fill="none" stroke="black" points="960.5,-56.5 960.5,-75.5 1094.5,-75.5 1094.5,-56.5 960.5,-56.5"/>
<text text-anchor="middle" x="1027.5" y="-63.5" font-family="Helvetica,sans-Serif" font-size="10.00">discordcoreapi/Utilities.hpp</text>
</a>
</g>
</g>
<!-- Node2&#45;&gt;Node3 -->
<g id="edge2" class="edge">
<title>Node2&#45;&gt;Node3</title>
<path fill="none" stroke="midnightblue" d="M1027.5,-112.4C1027.5,-104.47 1027.5,-94.46 1027.5,-85.86"/>
<polygon fill="midnightblue" stroke="midnightblue" points="1031,-85.66 1027.5,-75.66 1024,-85.66 1031,-85.66"/>
</g>
<!-- Node4 -->
<g id="node4" class="node">
<title>Node4</title>
<g id="a_node4"><a xlink:title=" ">
<polygon fill="none" stroke="#bfbfbf" points="0,-0.5 0,-19.5 57,-19.5 57,-0.5 0,-0.5"/>
<text text-anchor="middle" x="28.5" y="-7.5" font-family="Helvetica,sans-Serif" font-size="10.00">pthread.h</text>
</a>
</g>
</g>
<!-- Node3&#45;&gt;Node4 -->
<g id="edge3" class="edge">
<title>Node3&#45;&gt;Node4</title>
<path fill="none" stroke="midnightblue" d="M960.37,-63.48C775.08,-59.03 258.15,-44.84 66.97,-19.72"/>
<polygon fill="midnightblue" stroke="midnightblue" points="67.41,-16.24 57.03,-18.36 66.46,-23.18 67.41,-16.24"/>
</g>
<!-- Node5 -->
<g id="node5" class="node">
<title>Node5</title>
<g id="a_node5"><a xlink:title=" ">
<polygon fill="none" stroke="#bfbfbf" points="75.5,-0.5 75.5,-19.5 137.5,-19.5 137.5,-0.5 75.5,-0.5"/>
<text text-anchor="middle" x="106.5" y="-7.5" font-family="Helvetica,sans-Serif" font-size="10.00">sys/time.h</text>
</a>
</g>
</g>
<!-- Node3&#45;&gt;Node5 -->
<g id="edge4" class="edge">
<title>Node3&#45;&gt;Node5</title>
<path fill="none" stroke="midnightblue" d="M960.27,-65.45C813.99,-65.6 455.87,-61.41 147.87,-19.95"/>
<polygon fill="midnightblue" stroke="midnightblue" points="148.23,-16.47 137.85,-18.58 147.29,-23.4 148.23,-16.47"/>
</g>
<!-- Node6 -->
<g id="node6" class="node">
<title>Node6</title>
<g id="a_node6"><a xlink:title=" ">
<polygon fill="none" stroke="#bfbfbf" points="155.5,-0.5 155.5,-19.5 199.5,-19.5 199.5,-0.5 155.5,-0.5"/>
<text text-anchor="middle" x="177.5" y="-7.5" font-family="Helvetica,sans-Serif" font-size="10.00">time.h</text>
</a>
</g>
</g>
<!-- Node3&#45;&gt;Node6 -->
<g id="edge5" class="edge">
<title>Node3&#45;&gt;Node6</title>
<path fill="none" stroke="midnightblue" d="M960.38,-63.28C795.18,-58.74 371.22,-45.13 209.95,-19.79"/>
<polygon fill="midnightblue" stroke="midnightblue" points="210.15,-16.28 199.71,-18.1 209.01,-23.18 210.15,-16.28"/>
</g>
<!-- Node7 -->
<g id="node7" class="node">
<title>Node7</title>
<g id="a_node7"><a xlink:title=" ">
<polygon fill="none" stroke="#bfbfbf" points="218,-0.5 218,-19.5 259,-19.5 259,-0.5 218,-0.5"/>
<text text-anchor="middle" x="238.5" y="-7.5" font-family="Helvetica,sans-Serif" font-size="10.00">ctime</text>
</a>
</g>
</g>
<!-- Node3&#45;&gt;Node7 -->
<g id="edge6" class="edge">
<title>Node3&#45;&gt;Node7</title>
<path fill="none" stroke="midnightblue" d="M960.23,-63.1C803.79,-58.36 418.13,-44.68 269.54,-19.91"/>
<polygon fill="midnightblue" stroke="midnightblue" points="269.71,-16.38 259.26,-18.1 268.5,-23.28 269.71,-16.38"/>
</g>
<!-- Node8 -->
<g id="node8" class="node">
<title>Node8</title>
<g id="a_node8"><a xlink:title=" ">
<polygon fill="none" stroke="#bfbfbf" points="277,-0.5 277,-19.5 370,-19.5 370,-0.5 277,-0.5"/>
<text text-anchor="middle" x="323.5" y="-7.5" font-family="Helvetica,sans-Serif" font-size="10.00">condition_variable</text>
</a>
</g>
</g>
<!-- Node3&#45;&gt;Node8 -->
<g id="edge7" class="edge">
<title>Node3&#45;&gt;Node8</title>
<path fill="none" stroke="midnightblue" d="M960.15,-62.32C843.98,-57.27 598.27,-44.64 380.24,-19.97"/>
<polygon fill="midnightblue" stroke="midnightblue" points="380.54,-16.49 370.21,-18.83 379.75,-23.44 380.54,-16.49"/>
</g>
<!-- Node9 -->
<g id="node9" class="node">
<title>Node9</title>
<g id="a_node9"><a xlink:title=" ">
<polygon fill="none" stroke="#bfbfbf" points="388.5,-0.5 388.5,-19.5 486.5,-19.5 486.5,-0.5 388.5,-0.5"/>
<text text-anchor="middle" x="437.5" y="-7.5" font-family="Helvetica,sans-Serif" font-size="10.00">nlohmann/json.hpp</text>
</a>
</g>
</g>
<!-- Node3&#45;&gt;Node9 -->
<g id="edge8" class="edge">
<title>Node3&#45;&gt;Node9</title>
<path fill="none" stroke="midnightblue" d="M960.16,-60.81C860.97,-54.31 669.55,-40.48 496.57,-20.05"/>
<polygon fill="midnightblue" stroke="midnightblue" points="496.86,-16.56 486.51,-18.85 496.03,-23.51 496.86,-16.56"/>
</g>
<!-- Node10 -->
<g id="node10" class="node">
<title>Node10</title>
<g id="a_node10"><a xlink:title=" ">
<polygon fill="none" stroke="#bfbfbf" points="505,-0.5 505,-19.5 590,-19.5 590,-0.5 505,-0.5"/>
<text text-anchor="middle" x="547.5" y="-7.5" font-family="Helvetica,sans-Serif" font-size="10.00">source_location</text>
</a>
</g>
</g>
<!-- Node3&#45;&gt;Node10 -->
<g id="edge9" class="edge">
<title>Node3&#45;&gt;Node10</title>
<path fill="none" stroke="midnightblue" d="M960.44,-59.43C877.93,-52.25 733.33,-38.61 600.03,-20.13"/>
<polygon fill="midnightblue" stroke="midnightblue" points="600.43,-16.66 590.04,-18.74 599.46,-23.59 600.43,-16.66"/>
</g>
<!-- Node11 -->
<g id="node11" class="node">
<title>Node11</title>
<g id="a_node11"><a xlink:title=" ">
<polygon fill="none" stroke="#bfbfbf" points="608,-0.5 608,-19.5 691,-19.5 691,-0.5 608,-0.5"/>
<text text-anchor="middle" x="649.5" y="-7.5" font-family="Helvetica,sans-Serif" font-size="10.00">unordered_map</text>
</a>
</g>
</g>
<!-- Node3&#45;&gt;Node11 -->
<g id="edge10" class="edge">
<title>Node3&#45;&gt;Node11</title>
<path fill="none" stroke="midnightblue" d="M960.38,-56.52C896.46,-48.27 797.29,-35.03 701.39,-20.09"/>
<polygon fill="midnightblue" stroke="midnightblue" points="701.65,-16.59 691.23,-18.5 700.56,-23.5 701.65,-16.59"/>
</g>
<!-- Node12 -->
<g id="node12" class="node">
<title>Node12</title>
<g id="a_node12"><a xlink:title=" ">
<polygon fill="none" stroke="#bfbfbf" points="709.5,-0.5 709.5,-19.5 787.5,-19.5 787.5,-0.5 709.5,-0.5"/>
<text text-anchor="middle" x="748.5" y="-7.5" font-family="Helvetica,sans-Serif" font-size="10.00">shared_mutex</text>
</a>
</g>
</g>
<!-- Node3&#45;&gt;Node12 -->
<g id="edge11" class="edge">
<title>Node3&#45;&gt;Node12</title>
<path fill="none" stroke="midnightblue" d="M983.29,-56.44C932.73,-46.66 850.18,-30.68 797.64,-20.51"/>
<polygon fill="midnightblue" stroke="midnightblue" points="798.03,-17.02 787.55,-18.56 796.7,-23.89 798.03,-17.02"/>
</g>
<!-- Node13 -->
<g id="node13" class="node">
<title>Node13</title>
<g id="a_node13"><a xlink:title=" ">
<polygon fill="none" stroke="#bfbfbf" points="805.5,-0.5 805.5,-19.5 863.5,-19.5 863.5,-0.5 805.5,-0.5"/>
<text text-anchor="middle" x="834.5" y="-7.5" font-family="Helvetica,sans-Serif" font-size="10.00">functional</text>
</a>
</g>
</g>
<!-- Node3&#45;&gt;Node13 -->
<g id="edge12" class="edge">
<title>Node3&#45;&gt;Node13</title>
<path fill="none" stroke="midnightblue" d="M996.92,-56.44C963.5,-47.09 909.87,-32.09 873.46,-21.9"/>
<polygon fill="midnightblue" stroke="midnightblue" points="874.25,-18.49 863.67,-19.16 872.36,-25.23 874.25,-18.49"/>
</g>
<!-- Node14 -->
<g id="node14" class="node">
<title>Node14</title>
<g id="a_node14"><a xlink:title=" ">
<polygon fill="none" stroke="#bfbfbf" points="881.5,-0.5 881.5,-19.5 937.5,-19.5 937.5,-0.5 881.5,-0.5"/>
<text text-anchor="middle" x="909.5" y="-7.5" font-family="Helvetica,sans-Serif" font-size="10.00">coroutine</text>
</a>
</g>
</g>
<!-- Node3&#45;&gt;Node14 -->
<g id="edge13" class="edge">
<title>Node3&#45;&gt;Node14</title>
<path fill="none" stroke="midnightblue" d="M1008.8,-56.44C989.56,-47.64 959.35,-33.81 937.3,-23.72"/>
<polygon fill="midnightblue" stroke="midnightblue" points="938.66,-20.5 928.11,-19.52 935.75,-26.86 938.66,-20.5"/>
</g>
<!-- Node15 -->
<g id="node15" class="node">
<title>Node15</title>
<g id="a_node15"><a xlink:title=" ">
<polygon fill="none" stroke="#bfbfbf" points="956,-0.5 956,-19.5 1021,-19.5 1021,-0.5 956,-0.5"/>
<text text-anchor="middle" x="988.5" y="-7.5" font-family="Helvetica,sans-Serif" font-size="10.00">semaphore</text>
</a>
</g>
</g>
<!-- Node3&#45;&gt;Node15 -->
<g id="edge14" class="edge">
<title>Node3&#45;&gt;Node15</title>
<path fill="none" stroke="midnightblue" d="M1021.06,-56.08C1015.55,-48.46 1007.47,-37.26 1000.74,-27.94"/>
<polygon fill="midnightblue" stroke="midnightblue" points="1003.51,-25.81 994.82,-19.75 997.84,-29.91 1003.51,-25.81"/>
</g>
<!-- Node16 -->
<g id="node16" class="node">
<title>Node16</title>
<g id="a_node16"><a xlink:title=" ">
<polygon fill="none" stroke="#bfbfbf" points="1039.5,-0.5 1039.5,-19.5 1095.5,-19.5 1095.5,-0.5 1039.5,-0.5"/>
<text text-anchor="middle" x="1067.5" y="-7.5" font-family="Helvetica,sans-Serif" font-size="10.00">concepts</text>
</a>
</g>
</g>
<!-- Node3&#45;&gt;Node16 -->
<g id="edge15" class="edge">
<title>Node3&#45;&gt;Node16</title>
<path fill="none" stroke="midnightblue" d="M1034.11,-56.08C1039.76,-48.46 1048.04,-37.26 1054.95,-27.94"/>
<polygon fill="midnightblue" stroke="midnightblue" points="1057.88,-29.87 1061.02,-19.75 1052.25,-25.7 1057.88,-29.87"/>
</g>
<!-- Node17 -->
<g id="node17" class="node">
<title>Node17</title>
<g id="a_node17"><a xlink:title=" ">
<polygon fill="none" stroke="#bfbfbf" points="1113.5,-0.5 1113.5,-19.5 1167.5,-19.5 1167.5,-0.5 1113.5,-0.5"/>
<text text-anchor="middle" x="1140.5" y="-7.5" font-family="Helvetica,sans-Serif" font-size="10.00">iostream</text>
</a>
</g>
</g>
<!-- Node3&#45;&gt;Node17 -->
<g id="edge16" class="edge">
<title>Node3&#45;&gt;Node17</title>
<path fill="none" stroke="midnightblue" d="M1045.41,-56.44C1063.75,-47.68 1092.51,-33.94 1113.59,-23.86"/>
<polygon fill="midnightblue" stroke="midnightblue" points="1115.17,-26.99 1122.68,-19.52 1112.15,-20.67 1115.17,-26.99"/>
</g>
<!-- Node18 -->
<g id="node18" class="node">
<title>Node18</title>
<g id="a_node18"><a xlink:title=" ">
<polygon fill="none" stroke="#bfbfbf" points="1186,-0.5 1186,-19.5 1235,-19.5 1235,-0.5 1186,-0.5"/>
<text text-anchor="middle" x="1210.5" y="-7.5" font-family="Helvetica,sans-Serif" font-size="10.00">fstream</text>
</a>
</g>
</g>
<!-- Node3&#45;&gt;Node18 -->
<g id="edge17" class="edge">
<title>Node3&#45;&gt;Node18</title>
<path fill="none" stroke="midnightblue" d="M1056.5,-56.44C1088.97,-46.86 1141.56,-31.34 1176.09,-21.15"/>
<polygon fill="midnightblue" stroke="midnightblue" points="1177.15,-24.49 1185.75,-18.3 1175.17,-17.78 1177.15,-24.49"/>
</g>
<!-- Node19 -->
<g id="node19" class="node">
<title>Node19</title>
<g id="a_node19"><a xlink:title=" ">
<polygon fill="none" stroke="#bfbfbf" points="1253,-0.5 1253,-19.5 1294,-19.5 1294,-0.5 1253,-0.5"/>
<text text-anchor="middle" x="1273.5" y="-7.5" font-family="Helvetica,sans-Serif" font-size="10.00">bitset</text>
</a>
</g>
</g>
<!-- Node3&#45;&gt;Node19 -->
<g id="edge18" class="edge">
<title>Node3&#45;&gt;Node19</title>
<path fill="none" stroke="midnightblue" d="M1074.11,-56.49C1115.89,-48.59 1179.04,-36 1243.05,-19.93"/>
<polygon fill="midnightblue" stroke="midnightblue" points="1244.08,-23.28 1252.91,-17.43 1242.35,-16.5 1244.08,-23.28"/>
</g>
<!-- Node20 -->
<g id="node20" class="node">
<title>Node20</title>
<g id="a_node20"><a xlink:title=" ">
<polygon fill="none" stroke="#bfbfbf" points="1312.5,-0.5 1312.5,-19.5 1364.5,-19.5 1364.5,-0.5 1312.5,-0.5"/>
<text text-anchor="middle" x="1338.5" y="-7.5" font-family="Helvetica,sans-Serif" font-size="10.00">memory</text>
</a>
</g>
</g>
<!-- Node3&#45;&gt;Node20 -->
<g id="edge19" class="edge">
<title>Node3&#45;&gt;Node20</title>
<path fill="none" stroke="midnightblue" d="M1088.66,-56.47C1142.27,-48.66 1222.51,-36.17 1302.02,-19.94"/>
<polygon fill="midnightblue" stroke="midnightblue" points="1303.12,-23.29 1312.21,-17.84 1301.71,-16.43 1303.12,-23.29"/>
</g>
<!-- Node21 -->
<g id="node21" class="node">
<title>Node21</title>
<g id="a_node21"><a xlink:title=" ">
<polygon fill="none" stroke="#bfbfbf" points="1383,-0.5 1383,-19.5 1432,-19.5 1432,-0.5 1383,-0.5"/>
<text text-anchor="middle" x="1407.5" y="-7.5" font-family="Helvetica,sans-Serif" font-size="10.00">random</text>
</a>
</g>
</g>
<!-- Node3&#45;&gt;Node21 -->
<g id="edge20" class="edge">
<title>Node3&#45;&gt;Node21</title>
<path fill="none" stroke="midnightblue" d="M1094.57,-58.88C1162.39,-52.1 1270.35,-39.7 1372.81,-19.9"/>
<polygon fill="midnightblue" stroke="midnightblue" points="1373.56,-23.32 1382.7,-17.96 1372.22,-16.45 1373.56,-23.32"/>
</g>
<!-- Node22 -->
<g id="node22" class="node">
<title>Node22</title>
<g id="a_node22"><a xlink:title=" ">
<polygon fill="none" stroke="#bfbfbf" points="1450,-0.5 1450,-19.5 1491,-19.5 1491,-0.5 1450,-0.5"/>
<text text-anchor="middle" x="1470.5" y="-7.5" font-family="Helvetica,sans-Serif" font-size="10.00">string</text>
</a>
</g>
</g>
<!-- Node3&#45;&gt;Node22 -->
<g id="edge21" class="edge">
<title>Node3&#45;&gt;Node22</title>
<path fill="none" stroke="midnightblue" d="M1094.6,-61.47C1174.71,-56.41 1312.75,-45.03 1440.04,-19.71"/>
<polygon fill="midnightblue" stroke="midnightblue" points="1440.86,-23.11 1449.97,-17.7 1439.47,-16.25 1440.86,-23.11"/>
</g>
<!-- Node23 -->
<g id="node23" class="node">
<title>Node23</title>
<g id="a_node23"><a xlink:title=" ">
<polygon fill="none" stroke="#bfbfbf" points="1509.5,-0.5 1509.5,-19.5 1551.5,-19.5 1551.5,-0.5 1509.5,-0.5"/>
<text text-anchor="middle" x="1530.5" y="-7.5" font-family="Helvetica,sans-Serif" font-size="10.00">vector</text>
</a>
</g>
</g>
<!-- Node3&#45;&gt;Node23 -->
<g id="edge22" class="edge">
<title>Node3&#45;&gt;Node23</title>
<path fill="none" stroke="midnightblue" d="M1094.89,-62.55C1186.99,-58.3 1357,-47.23 1499.5,-20 1499.6,-19.98 1499.7,-19.96 1499.8,-19.94"/>
<polygon fill="midnightblue" stroke="midnightblue" points="1500.34,-23.41 1509.28,-17.73 1498.75,-16.59 1500.34,-23.41"/>
</g>
<!-- Node24 -->
<g id="node24" class="node">
<title>Node24</title>
<g id="a_node24"><a xlink:title=" ">
<polygon fill="none" stroke="#bfbfbf" points="1569.5,-0.5 1569.5,-19.5 1613.5,-19.5 1613.5,-0.5 1569.5,-0.5"/>
<text text-anchor="middle" x="1591.5" y="-7.5" font-family="Helvetica,sans-Serif" font-size="10.00">thread</text>
</a>
</g>
</g>
<!-- Node3&#45;&gt;Node24 -->
<g id="edge23" class="edge">
<title>Node3&#45;&gt;Node24</title>
<path fill="none" stroke="midnightblue" d="M1094.54,-63.59C1194.19,-60.57 1387.25,-51.11 1559.28,-19.87"/>
<polygon fill="midnightblue" stroke="midnightblue" points="1560.08,-23.28 1569.28,-18.02 1558.81,-16.4 1560.08,-23.28"/>
</g>
<!-- Node25 -->
<g id="node25" class="node">
<title>Node25</title>
<g id="a_node25"><a xlink:title=" ">
<polygon fill="none" stroke="#bfbfbf" points="1631.5,-0.5 1631.5,-19.5 1675.5,-19.5 1675.5,-0.5 1631.5,-0.5"/>
<text text-anchor="middle" x="1653.5" y="-7.5" font-family="Helvetica,sans-Serif" font-size="10.00">mutex</text>
</a>
</g>
</g>
<!-- Node3&#45;&gt;Node25 -->
<g id="edge24" class="edge">
<title>Node3&#45;&gt;Node25</title>
<path fill="none" stroke="midnightblue" d="M1094.55,-64.43C1203.49,-62.53 1425.62,-54.54 1621.39,-19.83"/>
<polygon fill="midnightblue" stroke="midnightblue" points="1622.06,-23.26 1631.28,-18.05 1620.82,-16.38 1622.06,-23.26"/>
</g>
<!-- Node26 -->
<g id="node26" class="node">
<title>Node26</title>
<g id="a_node26"><a xlink:title=" ">
<polygon fill="none" stroke="#bfbfbf" points="1694,-0.5 1694,-19.5 1737,-19.5 1737,-0.5 1694,-0.5"/>
<text text-anchor="middle" x="1715.5" y="-7.5" font-family="Helvetica,sans-Serif" font-size="10.00">queue</text>
</a>
</g>
</g>
<!-- Node3&#45;&gt;Node26 -->
<g id="edge25" class="edge">
<title>Node3&#45;&gt;Node26</title>
<path fill="none" stroke="midnightblue" d="M1094.76,-65.12C1212.54,-64.3 1463.7,-57.97 1683.83,-19.68"/>
<polygon fill="midnightblue" stroke="midnightblue" points="1684.72,-23.08 1693.96,-17.89 1683.5,-16.19 1684.72,-23.08"/>
</g>
<!-- Node27 -->
<g id="node27" class="node">
<title>Node27</title>
<g id="a_node27"><a xlink:title=" ">
<polygon fill="none" stroke="#bfbfbf" points="1755,-0.5 1755,-19.5 1790,-19.5 1790,-0.5 1755,-0.5"/>
<text text-anchor="middle" x="1772.5" y="-7.5" font-family="Helvetica,sans-Serif" font-size="10.00">map</text>
</a>
</g>
</g>
<!-- Node3&#45;&gt;Node27 -->
<g id="edge26" class="edge">
<title>Node3&#45;&gt;Node27</title>
<path fill="none" stroke="midnightblue" d="M1094.59,-63.12C1244.69,-58.54 1604.8,-45.43 1744.69,-19.79"/>
<polygon fill="midnightblue" stroke="midnightblue" points="1745.62,-23.18 1754.77,-17.85 1744.29,-16.31 1745.62,-23.18"/>
</g>
<!-- Node28&#45;&gt;Node2 -->
<g id="edge28" class="edge">
<title>Node28&#45;&gt;Node2</title>
<path fill="none" stroke="midnightblue" d="M778.27,-582.45C684.32,-566.34 503.5,-527.82 503.5,-470 503.5,-470 503.5,-470 503.5,-244 503.5,-207.28 522.38,-196.8 554.5,-179 620.85,-142.24 835.55,-132.23 951.52,-129.51"/>
<polygon fill="midnightblue" stroke="midnightblue" points="951.82,-133.01 961.74,-129.29 951.66,-126.01 951.82,-133.01"/>
</g>
<!-- Node29 -->
<g id="node29" class="node">
<title>Node29</title>
<g id="a_node29"><a xlink:href="../../d9/dd4/a00776.html" target="_top" xlink:title=" ">
<polygon fill="none" stroke="black" points="968.5,-515.5 968.5,-545.5 1102.5,-545.5 1102.5,-515.5 968.5,-515.5"/>
<text text-anchor="start" x="976.5" y="-533.5" font-family="Helvetica,sans-Serif" font-size="10.00">discordcoreapi/WebSocket</text>
<text text-anchor="middle" x="1035.5" y="-522.5" font-family="Helvetica,sans-Serif" font-size="10.00">Entities.hpp</text>
</a>
</g>
</g>
<!-- Node28&#45;&gt;Node29 -->
<g id="edge29" class="edge">
<title>Node28&#45;&gt;Node29</title>
<path fill="none" stroke="midnightblue" d="M862.44,-582.48C892.48,-573.63 940.28,-559.55 978.03,-548.43"/>
<polygon fill="midnightblue" stroke="midnightblue" points="979.29,-551.71 987.89,-545.52 977.31,-544.99 979.29,-551.71"/>
</g>
<!-- Node29&#45;&gt;Node2 -->
<g id="edge30" class="edge">
<title>Node29&#45;&gt;Node2</title>
<path fill="none" stroke="midnightblue" d="M968.36,-527.73C833.29,-522.33 541.5,-500.65 541.5,-414 541.5,-414 541.5,-414 541.5,-244 541.5,-209.11 555.66,-197.08 585.5,-179 645.39,-142.71 842.22,-132.49 951.93,-129.62"/>
<polygon fill="midnightblue" stroke="midnightblue" points="952.03,-133.12 961.94,-129.37 951.86,-126.12 952.03,-133.12"/>
</g>
<!-- Node30 -->
<g id="node30" class="node">
<title>Node30</title>
<g id="a_node30"><a xlink:href="../../d4/d9b/a00680.html" target="_top" xlink:title=" ">
<polygon fill="none" stroke="black" points="725.5,-235.5 725.5,-254.5 887.5,-254.5 887.5,-235.5 725.5,-235.5"/>
<text text-anchor="middle" x="806.5" y="-242.5" font-family="Helvetica,sans-Serif" font-size="10.00">discordcoreapi/AudioDecoder.hpp</text>
</a>
</g>
</g>
<!-- Node29&#45;&gt;Node30 -->
<g id="edge31" class="edge">
<title>Node29&#45;&gt;Node30</title>
<path fill="none" stroke="midnightblue" d="M980.43,-515.42C932.79,-499.53 871.5,-468.5 871.5,-414 871.5,-414 871.5,-414 871.5,-356 871.5,-318.18 842.66,-281.94 823.41,-261.96"/>
<polygon fill="midnightblue" stroke="midnightblue" points="825.64,-259.24 816.09,-254.66 820.7,-264.2 825.64,-259.24"/>
</g>
<!-- Node31 -->
<g id="node31" class="node">
<title>Node31</title>
<g id="a_node31"><a xlink:href="../../d4/d6a/a00704.html" target="_top" xlink:title=" ">
<polygon fill="none" stroke="black" points="895.5,-179.5 895.5,-198.5 1053.5,-198.5 1053.5,-179.5 895.5,-179.5"/>
<text text-anchor="middle" x="974.5" y="-186.5" font-family="Helvetica,sans-Serif" font-size="10.00">discordcoreapi/EventEntities.hpp</text>
</a>
</g>
</g>
<!-- Node29&#45;&gt;Node31 -->
<g id="edge61" class="edge">
<title>Node29&#45;&gt;Node31</title>
<path fill="none" stroke="midnightblue" d="M1020.87,-515.21C1011.85,-505.69 1000.68,-492.49 993.5,-479 979.36,-452.43 974.5,-444.1 974.5,-414 974.5,-414 974.5,-414 974.5,-300 974.5,-267.95 974.5,-230.64 974.5,-208.75"/>
<polygon fill="midnightblue" stroke="midnightblue" points="978,-208.56 974.5,-198.56 971,-208.56 978,-208.56"/>
</g>
<!-- Node34 -->
<g id="node34" class="node">
<title>Node34</title>
<g id="a_node34"><a xlink:href="../../d0/db6/a00692.html" target="_top" xlink:title=" ">
<polygon fill="none" stroke="black" points="1003,-459.5 1003,-478.5 1190,-478.5 1190,-459.5 1003,-459.5"/>
<text text-anchor="middle" x="1096.5" y="-466.5" font-family="Helvetica,sans-Serif" font-size="10.00">discordcoreapi/CommandController.hpp</text>
</a>
</g>
</g>
<!-- Node29&#45;&gt;Node34 -->
<g id="edge37" class="edge">
<title>Node29&#45;&gt;Node34</title>
<path fill="none" stroke="midnightblue" d="M1049.96,-515.4C1059.09,-506.49 1070.92,-494.95 1080.36,-485.74"/>
<polygon fill="midnightblue" stroke="midnightblue" points="1082.91,-488.15 1087.62,-478.66 1078.02,-483.13 1082.91,-488.15"/>
</g>
<!-- Node36 -->
<g id="node36" class="node">
<title>Node36</title>
<g id="a_node36"><a xlink:href="../../d3/d4f/a00761.html" target="_top" xlink:title=" ">
<polygon fill="none" stroke="black" points="1177.5,-347.5 1177.5,-366.5 1327.5,-366.5 1327.5,-347.5 1177.5,-347.5"/>
<text text-anchor="middle" x="1252.5" y="-354.5" font-family="Helvetica,sans-Serif" font-size="10.00">discordcoreapi/ThreadPool.hpp</text>
</a>
</g>
</g>
<!-- Node29&#45;&gt;Node36 -->
<g id="edge63" class="edge">
<title>Node29&#45;&gt;Node36</title>
<path fill="none" stroke="midnightblue" d="M1101.8,-515.44C1132.4,-507.35 1168.5,-495.47 1198.5,-479 1232.22,-460.49 1248.34,-457.91 1264.5,-423 1271.42,-408.06 1266.81,-389.46 1261.43,-375.99"/>
<polygon fill="midnightblue" stroke="midnightblue" points="1264.61,-374.53 1257.34,-366.83 1258.22,-377.39 1264.61,-374.53"/>
</g>
<!-- Node38 -->
<g id="node38" class="node">
<title>Node38</title>
<g id="a_node38"><a xlink:href="../../d5/de8/a00749.html" target="_top" xlink:title=" ">
<polygon fill="none" stroke="black" points="1493.5,-235.5 1493.5,-254.5 1643.5,-254.5 1643.5,-235.5 1493.5,-235.5"/>
<text text-anchor="middle" x="1568.5" y="-242.5" font-family="Helvetica,sans-Serif" font-size="10.00">discordcoreapi/SSLClients.hpp</text>
</a>
</g>
</g>
<!-- Node29&#45;&gt;Node38 -->
<g id="edge62" class="edge">
<title>Node29&#45;&gt;Node38</title>
<path fill="none" stroke="midnightblue" d="M1102.73,-528.89C1246.02,-525.77 1568.5,-508.27 1568.5,-414 1568.5,-414 1568.5,-414 1568.5,-356 1568.5,-323.95 1568.5,-286.64 1568.5,-264.75"/>
<polygon fill="midnightblue" stroke="midnightblue" points="1572,-264.56 1568.5,-254.56 1565,-264.56 1572,-264.56"/>
</g>
<!-- Node51 -->
<g id="node51" class="node">
<title>Node51</title>
<g id="a_node51"><a xlink:href="../../dd/d57/a00701.html" target="_top" xlink:title=" ">
<polygon fill="none" stroke="black" points="1929.5,-403.5 1929.5,-422.5 2073.5,-422.5 2073.5,-403.5 1929.5,-403.5"/>
<text text-anchor="middle" x="2001.5" y="-410.5" font-family="Helvetica,sans-Serif" font-size="10.00">discordcoreapi/ErlPacker.hpp</text>
</a>
</g>
</g>
<!-- Node29&#45;&gt;Node51 -->
<g id="edge59" class="edge">
<title>Node29&#45;&gt;Node51</title>
<path fill="none" stroke="midnightblue" d="M1102.59,-524.65C1205.88,-516.88 1410,-500.32 1582.5,-479 1711.59,-463.04 1862.09,-438.15 1942.94,-424.26"/>
<polygon fill="midnightblue" stroke="midnightblue" points="1943.67,-427.68 1952.93,-422.53 1942.48,-420.78 1943.67,-427.68"/>
</g>
<!-- Node30&#45;&gt;Node2 -->
<g id="edge34" class="edge">
<title>Node30&#45;&gt;Node2</title>
<path fill="none" stroke="midnightblue" d="M725.45,-242.61C651.02,-238.54 557.96,-224.59 598.5,-179 621.51,-153.13 834.57,-138.3 951.51,-132.05"/>
<polygon fill="midnightblue" stroke="midnightblue" points="952.03,-135.53 961.83,-131.51 951.66,-128.54 952.03,-135.53"/>
</g>
<!-- Node30&#45;&gt;Node31 -->
<g id="edge32" class="edge">
<title>Node30&#45;&gt;Node31</title>
<path fill="none" stroke="midnightblue" d="M833.12,-235.44C861.51,-226.32 906.64,-211.81 938.25,-201.65"/>
<polygon fill="midnightblue" stroke="midnightblue" points="939.56,-204.91 948,-198.52 937.41,-198.24 939.56,-204.91"/>
</g>
<!-- Node32 -->
<g id="node32" class="node">
<title>Node32</title>
<g id="a_node32"><a xlink:title=" ">
<polygon fill="none" stroke="#bfbfbf" points="607.5,-179.5 607.5,-198.5 717.5,-198.5 717.5,-179.5 607.5,-179.5"/>
<text text-anchor="middle" x="662.5" y="-186.5" font-family="Helvetica,sans-Serif" font-size="10.00">libavformat/avformat.h</text>
</a>
</g>
</g>
<!-- Node30&#45;&gt;Node32 -->
<g id="edge35" class="edge">
<title>Node30&#45;&gt;Node32</title>
<path fill="none" stroke="midnightblue" d="M783.68,-235.44C759.67,-226.44 721.67,-212.19 694.63,-202.05"/>
<polygon fill="midnightblue" stroke="midnightblue" points="695.8,-198.75 685.21,-198.52 693.34,-205.3 695.8,-198.75"/>
</g>
<!-- Node33 -->
<g id="node33" class="node">
<title>Node33</title>
<g id="a_node33"><a xlink:title=" ">
<polygon fill="none" stroke="#bfbfbf" points="736,-179.5 736,-198.5 877,-198.5 877,-179.5 736,-179.5"/>
<text text-anchor="middle" x="806.5" y="-186.5" font-family="Helvetica,sans-Serif" font-size="10.00">libswresample/swresample.h</text>
</a>
</g>
</g>
<!-- Node30&#45;&gt;Node33 -->
<g id="edge36" class="edge">
<title>Node30&#45;&gt;Node33</title>
<path fill="none" stroke="midnightblue" d="M806.5,-235.08C806.5,-228.01 806.5,-217.86 806.5,-208.99"/>
<polygon fill="midnightblue" stroke="midnightblue" points="810,-208.75 806.5,-198.75 803,-208.75 810,-208.75"/>
</g>
<!-- Node31&#45;&gt;Node2 -->
<g id="edge33" class="edge">
<title>Node31&#45;&gt;Node2</title>
<path fill="none" stroke="midnightblue" d="M982.09,-179.48C988.87,-171.87 999.09,-160.4 1008.11,-150.26"/>
<polygon fill="midnightblue" stroke="midnightblue" points="1010.97,-152.32 1015.01,-142.52 1005.74,-147.66 1010.97,-152.32"/>
</g>
<!-- Node34&#45;&gt;Node2 -->
<g id="edge38" class="edge">
<title>Node34&#45;&gt;Node2</title>
<path fill="none" stroke="midnightblue" d="M1094.54,-459.5C1090.47,-441.09 1081.5,-396.16 1081.5,-358 1081.5,-358 1081.5,-358 1081.5,-244 1081.5,-209.02 1060.92,-173.22 1045.17,-150.93"/>
<polygon fill="midnightblue" stroke="midnightblue" points="1047.95,-148.8 1039.22,-142.81 1042.31,-152.94 1047.95,-148.8"/>
</g>
<!-- Node35 -->
<g id="node35" class="node">
<title>Node35</title>
<g id="a_node35"><a xlink:href="../../d5/d5b/a00695.html" target="_top" xlink:title=" ">
<polygon fill="none" stroke="black" points="1109.5,-403.5 1109.5,-422.5 1255.5,-422.5 1255.5,-403.5 1109.5,-403.5"/>
<text text-anchor="middle" x="1182.5" y="-410.5" font-family="Helvetica,sans-Serif" font-size="10.00">discordcoreapi/CoRoutine.hpp</text>
</a>
</g>
</g>
<!-- Node34&#45;&gt;Node35 -->
<g id="edge39" class="edge">
<title>Node34&#45;&gt;Node35</title>
<path fill="none" stroke="midnightblue" d="M1110.32,-459.32C1123.73,-450.9 1144.32,-437.97 1160.09,-428.07"/>
<polygon fill="midnightblue" stroke="midnightblue" points="1162.11,-430.94 1168.72,-422.65 1158.39,-425.01 1162.11,-430.94"/>
</g>
<!-- Node35&#45;&gt;Node2 -->
<g id="edge40" class="edge">
<title>Node35&#45;&gt;Node2</title>
<path fill="none" stroke="midnightblue" d="M1173.2,-403.28C1155.68,-385.85 1119.5,-344.69 1119.5,-302 1119.5,-302 1119.5,-302 1119.5,-244 1119.5,-213.2 1113.96,-203.65 1095.5,-179 1086.49,-166.97 1073.84,-156.5 1061.89,-148.26"/>
<polygon fill="midnightblue" stroke="midnightblue" points="1063.65,-145.23 1053.37,-142.66 1059.8,-151.08 1063.65,-145.23"/>
</g>
<!-- Node35&#45;&gt;Node36 -->
<g id="edge41" class="edge">
<title>Node35&#45;&gt;Node36</title>
<path fill="none" stroke="midnightblue" d="M1193.75,-403.32C1204.3,-395.18 1220.3,-382.84 1232.94,-373.09"/>
<polygon fill="midnightblue" stroke="midnightblue" points="1235.27,-375.71 1241.05,-366.83 1230.99,-370.17 1235.27,-375.71"/>
</g>
<!-- Node36&#45;&gt;Node2 -->
<g id="edge42" class="edge">
<title>Node36&#45;&gt;Node2</title>
<path fill="none" stroke="midnightblue" d="M1248.79,-347.45C1236.34,-319.67 1193.5,-230.76 1133.5,-179 1117.73,-165.39 1097.66,-154.6 1079.23,-146.55"/>
<polygon fill="midnightblue" stroke="midnightblue" points="1080.36,-143.23 1069.78,-142.59 1077.65,-149.68 1080.36,-143.23"/>
</g>
<!-- Node36&#45;&gt;Node37 -->
<g id="edge43" class="edge">
<title>Node36&#45;&gt;Node37</title>
<path fill="none" stroke="midnightblue" d="M1288.15,-347.44C1327.16,-338.08 1389.77,-323.06 1432.22,-312.87"/>
<polygon fill="midnightblue" stroke="midnightblue" points="1433.11,-316.25 1442.01,-310.52 1431.47,-309.45 1433.11,-316.25"/>
</g>
<!-- Node37&#45;&gt;Node38 -->
<g id="edge44" class="edge">
<title>Node37&#45;&gt;Node38</title>
<path fill="none" stroke="midnightblue" d="M1492.12,-291.32C1506.45,-282.82 1528.51,-269.73 1545.25,-259.8"/>
<polygon fill="midnightblue" stroke="midnightblue" points="1547.1,-262.77 1553.92,-254.65 1543.53,-256.75 1547.1,-262.77"/>
</g>
<!-- Node38&#45;&gt;Node2 -->
<g id="edge45" class="edge">
<title>Node38&#45;&gt;Node2</title>
<path fill="none" stroke="midnightblue" d="M1493.24,-241.15C1420.64,-236.85 1308.25,-226.05 1214.5,-199 1194.25,-193.16 1191.02,-186.94 1171.5,-179 1141.88,-166.95 1108.19,-155.04 1080.85,-145.82"/>
<polygon fill="midnightblue" stroke="midnightblue" points="1081.67,-142.4 1071.08,-142.54 1079.45,-149.04 1081.67,-142.4"/>
</g>
<!-- Node38&#45;&gt;Node31 -->
<g id="edge46" class="edge">
<title>Node38&#45;&gt;Node31</title>
<path fill="none" stroke="midnightblue" d="M1493.27,-237.16C1383.76,-227.21 1180.81,-208.76 1063.85,-198.12"/>
<polygon fill="midnightblue" stroke="midnightblue" points="1064.12,-194.63 1053.84,-197.21 1063.49,-201.6 1064.12,-194.63"/>
</g>
<!-- Node39 -->
<g id="node39" class="node">
<title>Node39</title>
<g id="a_node39"><a xlink:title=" ">
<polygon fill="none" stroke="#bfbfbf" points="1224,-179.5 1224,-198.5 1297,-198.5 1297,-179.5 1224,-179.5"/>
<text text-anchor="middle" x="1260.5" y="-186.5" font-family="Helvetica,sans-Serif" font-size="10.00">openssl/err.h</text>
</a>
</g>
</g>
<!-- Node38&#45;&gt;Node39 -->
<g id="edge47" class="edge">
<title>Node38&#45;&gt;Node39</title>
<path fill="none" stroke="midnightblue" d="M1516.74,-235.47C1466.01,-227.03 1386.23,-213.55 1307.27,-199.11"/>
<polygon fill="midnightblue" stroke="midnightblue" points="1307.61,-195.61 1297.14,-197.25 1306.35,-202.5 1307.61,-195.61"/>
</g>
<!-- Node40 -->
<g id="node40" class="node">
<title>Node40</title>
<g id="a_node40"><a xlink:title=" ">
<polygon fill="none" stroke="#bfbfbf" points="1315.5,-179.5 1315.5,-198.5 1389.5,-198.5 1389.5,-179.5 1315.5,-179.5"/>
<text text-anchor="middle" x="1352.5" y="-186.5" font-family="Helvetica,sans-Serif" font-size="10.00">openssl/ssl.h</text>
</a>
</g>
</g>
<!-- Node38&#45;&gt;Node40 -->
<g id="edge48" class="edge">
<title>Node38&#45;&gt;Node40</title>
<path fill="none" stroke="midnightblue" d="M1534.27,-235.44C1496.99,-226.12 1437.23,-211.18 1396.49,-201"/>
<polygon fill="midnightblue" stroke="midnightblue" points="1397.12,-197.55 1386.57,-198.52 1395.42,-204.34 1397.12,-197.55"/>
</g>
<!-- Node41 -->
<g id="node41" class="node">
<title>Node41</title>
<g id="a_node41"><a xlink:title=" ">
<polygon fill="none" stroke="#bfbfbf" points="1408,-179.5 1408,-198.5 1451,-198.5 1451,-179.5 1408,-179.5"/>
<text text-anchor="middle" x="1429.5" y="-186.5" font-family="Helvetica,sans-Serif" font-size="10.00">fcntl.h</text>
</a>
</g>
</g>
<!-- Node38&#45;&gt;Node41 -->
<g id="edge49" class="edge">
<title>Node38&#45;&gt;Node41</title>
<path fill="none" stroke="midnightblue" d="M1546.48,-235.44C1523.4,-226.48 1486.94,-212.31 1460.86,-202.18"/>
<polygon fill="midnightblue" stroke="midnightblue" points="1462.01,-198.88 1451.42,-198.52 1459.48,-205.4 1462.01,-198.88"/>
</g>
<!-- Node42 -->
<g id="node42" class="node">
<title>Node42</title>
<g id="a_node42"><a xlink:title=" ">
<polygon fill="none" stroke="#bfbfbf" points="1469,-179.5 1469,-198.5 1518,-198.5 1518,-179.5 1469,-179.5"/>
<text text-anchor="middle" x="1493.5" y="-186.5" font-family="Helvetica,sans-Serif" font-size="10.00">netdb.h</text>
</a>
</g>
</g>
<!-- Node38&#45;&gt;Node42 -->
<g id="edge50" class="edge">
<title>Node38&#45;&gt;Node42</title>
<path fill="none" stroke="midnightblue" d="M1556.45,-235.32C1545.04,-227.11 1527.67,-214.6 1514.07,-204.81"/>
<polygon fill="midnightblue" stroke="midnightblue" points="1515.93,-201.84 1505.77,-198.83 1511.84,-207.52 1515.93,-201.84"/>
</g>
<!-- Node43 -->
<g id="node43" class="node">
<title>Node43</title>
<g id="a_node43"><a xlink:title=" ">
<polygon fill="none" stroke="#bfbfbf" points="1536,-179.5 1536,-198.5 1601,-198.5 1601,-179.5 1536,-179.5"/>
<text text-anchor="middle" x="1568.5" y="-186.5" font-family="Helvetica,sans-Serif" font-size="10.00">netinet/in.h</text>
</a>
</g>
</g>
<!-- Node38&#45;&gt;Node43 -->
<g id="edge51" class="edge">
<title>Node38&#45;&gt;Node43</title>
<path fill="none" stroke="midnightblue" d="M1568.5,-235.08C1568.5,-228.01 1568.5,-217.86 1568.5,-208.99"/>
<polygon fill="midnightblue" stroke="midnightblue" points="1572,-208.75 1568.5,-198.75 1565,-208.75 1572,-208.75"/>
</g>
<!-- Node44 -->
<g id="node44" class="node">
<title>Node44</title>
<g id="a_node44"><a xlink:title=" ">
<polygon fill="none" stroke="#bfbfbf" points="1619,-179.5 1619,-198.5 1690,-198.5 1690,-179.5 1619,-179.5"/>
<text text-anchor="middle" x="1654.5" y="-186.5" font-family="Helvetica,sans-Serif" font-size="10.00">netinet/tcp.h</text>
</a>
</g>
</g>
<!-- Node38&#45;&gt;Node44 -->
<g id="edge52" class="edge">
<title>Node38&#45;&gt;Node44</title>
<path fill="none" stroke="midnightblue" d="M1582.32,-235.32C1595.73,-226.9 1616.32,-213.97 1632.09,-204.07"/>
<polygon fill="midnightblue" stroke="midnightblue" points="1634.11,-206.94 1640.72,-198.65 1630.39,-201.01 1634.11,-206.94"/>
</g>
<!-- Node45 -->
<g id="node45" class="node">
<title>Node45</title>
<g id="a_node45"><a xlink:title=" ">
<polygon fill="none" stroke="#bfbfbf" points="1708,-179.5 1708,-198.5 1757,-198.5 1757,-179.5 1708,-179.5"/>
<text text-anchor="middle" x="1732.5" y="-186.5" font-family="Helvetica,sans-Serif" font-size="10.00">stdint.h</text>
</a>
</g>
</g>
<!-- Node38&#45;&gt;Node45 -->
<g id="edge53" class="edge">
<title>Node38&#45;&gt;Node45</title>
<path fill="none" stroke="midnightblue" d="M1594.49,-235.44C1622.6,-226.19 1667.55,-211.39 1698.47,-201.21"/>
<polygon fill="midnightblue" stroke="midnightblue" points="1699.57,-204.53 1707.97,-198.08 1697.38,-197.88 1699.57,-204.53"/>
</g>
<!-- Node46 -->
<g id="node46" class="node">
<title>Node46</title>
<g id="a_node46"><a xlink:title=" ">
<polygon fill="none" stroke="#bfbfbf" points="1775.5,-179.5 1775.5,-198.5 1839.5,-198.5 1839.5,-179.5 1775.5,-179.5"/>
<text text-anchor="middle" x="1807.5" y="-186.5" font-family="Helvetica,sans-Serif" font-size="10.00">sys/epoll.h</text>
</a>
</g>
</g>
<!-- Node38&#45;&gt;Node46 -->
<g id="edge54" class="edge">
<title>Node38&#45;&gt;Node46</title>
<path fill="none" stroke="midnightblue" d="M1606.37,-235.44C1649.6,-225.68 1720.12,-209.74 1765.14,-199.57"/>
<polygon fill="midnightblue" stroke="midnightblue" points="1766.19,-202.92 1775.17,-197.3 1764.65,-196.09 1766.19,-202.92"/>
</g>
<!-- Node47 -->
<g id="node47" class="node">
<title>Node47</title>
<g id="a_node47"><a xlink:title=" ">
<polygon fill="none" stroke="#bfbfbf" points="1857.5,-179.5 1857.5,-198.5 1919.5,-198.5 1919.5,-179.5 1857.5,-179.5"/>
<text text-anchor="middle" x="1888.5" y="-186.5" font-family="Helvetica,sans-Serif" font-size="10.00">arpa/inet.h</text>
</a>
</g>
</g>
<!-- Node38&#45;&gt;Node47 -->
<g id="edge55" class="edge">
<title>Node38&#45;&gt;Node47</title>
<path fill="none" stroke="midnightblue" d="M1628.23,-235.5C1682.82,-227.48 1766.03,-214.63 1847.21,-199.16"/>
<polygon fill="midnightblue" stroke="midnightblue" points="1847.94,-202.58 1857.1,-197.26 1846.61,-195.71 1847.94,-202.58"/>
</g>
<!-- Node48 -->
<g id="node48" class="node">
<title>Node48</title>
<g id="a_node48"><a xlink:title=" ">
<polygon fill="none" stroke="#bfbfbf" points="1938,-179.5 1938,-198.5 2011,-198.5 2011,-179.5 1938,-179.5"/>
<text text-anchor="middle" x="1974.5" y="-186.5" font-family="Helvetica,sans-Serif" font-size="10.00">sys/socket.h</text>
</a>
</g>
</g>
<!-- Node38&#45;&gt;Node48 -->
<g id="edge56" class="edge">
<title>Node38&#45;&gt;Node48</title>
<path fill="none" stroke="midnightblue" d="M1643.52,-236.15C1714.21,-228.4 1823.31,-215.55 1927.79,-199.01"/>
<polygon fill="midnightblue" stroke="midnightblue" points="1928.56,-202.43 1937.88,-197.4 1927.46,-195.52 1928.56,-202.43"/>
</g>
<!-- Node49 -->
<g id="node49" class="node">
<title>Node49</title>
<g id="a_node49"><a xlink:title=" ">
<polygon fill="none" stroke="#bfbfbf" points="2029.5,-179.5 2029.5,-198.5 2097.5,-198.5 2097.5,-179.5 2029.5,-179.5"/>
<text text-anchor="middle" x="2063.5" y="-186.5" font-family="Helvetica,sans-Serif" font-size="10.00">sys/types.h</text>
</a>
</g>
</g>
<!-- Node38&#45;&gt;Node49 -->
<g id="edge57" class="edge">
<title>Node38&#45;&gt;Node49</title>
<path fill="none" stroke="midnightblue" d="M1643.59,-239C1731.42,-232.59 1881.35,-219.92 2019.38,-199.02"/>
<polygon fill="midnightblue" stroke="midnightblue" points="2019.94,-202.48 2029.29,-197.5 2018.88,-195.56 2019.94,-202.48"/>
</g>
<!-- Node50 -->
<g id="node50" class="node">
<title>Node50</title>
<g id="a_node50"><a xlink:title=" ">
<polygon fill="none" stroke="#bfbfbf" points="2116,-179.5 2116,-198.5 2167,-198.5 2167,-179.5 2116,-179.5"/>
<text text-anchor="middle" x="2141.5" y="-186.5" font-family="Helvetica,sans-Serif" font-size="10.00">unistd.h</text>
</a>
</g>
</g>
<!-- Node38&#45;&gt;Node50 -->
<g id="edge58" class="edge">
<title>Node38&#45;&gt;Node50</title>
<path fill="none" stroke="midnightblue" d="M1643.85,-241.69C1746.37,-237.67 1935.55,-227.08 2106.08,-198.76"/>
<polygon fill="midnightblue" stroke="midnightblue" points="2106.71,-202.2 2115.99,-197.09 2105.55,-195.3 2106.71,-202.2"/>
</g>
<!-- Node51&#45;&gt;Node2 -->
<g id="edge60" class="edge">
<title>Node51&#45;&gt;Node2</title>
<path fill="none" stroke="midnightblue" d="M2062.08,-403.5C2119.01,-391.69 2195.5,-364.24 2195.5,-302 2195.5,-302 2195.5,-302 2195.5,-244 2195.5,-213.9 2200.18,-197.58 2176.5,-179 2134.27,-145.88 1352.4,-132.77 1103.16,-129.42"/>
<polygon fill="midnightblue" stroke="midnightblue" points="1103.15,-125.92 1093.1,-129.29 1103.06,-132.92 1103.15,-125.92"/>
</g>
</g>
</svg>
