<?xml version="1.0" encoding="UTF-8" standalone="no"?>
<!DOCTYPE svg PUBLIC "-//W3C//DTD SVG 1.1//EN"
 "http://www.w3.org/Graphics/SVG/1.1/DTD/svg11.dtd">
<!-- Generated by graphviz version 3.0.0 (20220226.1711)
 -->
<!-- Title: GuildMemberEntities.hpp Pages: 1 -->
<svg width="2208pt" height="666pt"
 viewBox="0.00 0.00 2207.50 666.00" xmlns="http://www.w3.org/2000/svg" xmlns:xlink="http://www.w3.org/1999/xlink">
<g id="graph0" class="graph" transform="scale(1 1) rotate(0) translate(4 662)">
<title>GuildMemberEntities.hpp</title>
<!-- Node1 -->
<g id="node1" class="node">
<title>Node1</title>
<g id="a_node1"><a xlink:title=" ">
<polygon fill="#bfbfbf" stroke="black" points="736.5,-638.5 736.5,-657.5 862.5,-657.5 862.5,-638.5 736.5,-638.5"/>
<text text-anchor="middle" x="799.5" y="-645.5" font-family="Helvetica,sans-Serif" font-size="10.00">GuildMemberEntities.hpp</text>
</a>
</g>
</g>
<!-- Node2 -->
<g id="node2" class="node">
<title>Node2</title>
<g id="a_node2"><a xlink:href="../../d4/deb/a00710.html" target="_top" xlink:title=" ">
<polygon fill="none" stroke="black" points="928,-112.5 928,-142.5 1059,-142.5 1059,-112.5 928,-112.5"/>
<text text-anchor="start" x="936" y="-130.5" font-family="Helvetica,sans-Serif" font-size="10.00">discordcoreapi/Foundation</text>
<text text-anchor="middle" x="993.5" y="-119.5" font-family="Helvetica,sans-Serif" font-size="10.00">Entities.hpp</text>
</a>
</g>
</g>
<!-- Node1&#45;&gt;Node2 -->
<g id="edge1" class="edge">
<title>Node1&#45;&gt;Node2</title>
<path fill="none" stroke="midnightblue" d="M736.24,-640.31C631.02,-627.4 431.5,-594.61 431.5,-531.5 431.5,-531.5 431.5,-531.5 431.5,-244 431.5,-206.44 452.33,-196.62 485.5,-179 558.49,-140.22 794.76,-131.14 917.66,-129.07"/>
<polygon fill="midnightblue" stroke="midnightblue" points="917.8,-132.57 927.75,-128.91 917.69,-125.57 917.8,-132.57"/>
</g>
<!-- Node27 -->
<g id="node27" class="node">
<title>Node27</title>
<g id="a_node27"><a xlink:href="../../d3/d2c/a00764.html" target="_top" xlink:title=" ">
<polygon fill="none" stroke="black" points="722,-582.5 722,-601.5 877,-601.5 877,-582.5 722,-582.5"/>
<text text-anchor="middle" x="799.5" y="-589.5" font-family="Helvetica,sans-Serif" font-size="10.00">discordcoreapi/UserEntities.hpp</text>
</a>
</g>
</g>
<!-- Node1&#45;&gt;Node27 -->
<g id="edge26" class="edge">
<title>Node1&#45;&gt;Node27</title>
<path fill="none" stroke="midnightblue" d="M799.5,-638.08C799.5,-631.01 799.5,-620.86 799.5,-611.99"/>
<polygon fill="midnightblue" stroke="midnightblue" points="803,-611.75 799.5,-601.75 796,-611.75 803,-611.75"/>
</g>
<!-- Node36 -->
<g id="node36" class="node">
<title>Node36</title>
<g id="a_node36"><a xlink:href="../../db/d7c/a00722.html" target="_top" xlink:title=" ">
<polygon fill="none" stroke="black" points="1381,-291.5 1381,-310.5 1506,-310.5 1506,-291.5 1381,-291.5"/>
<text text-anchor="middle" x="1443.5" y="-298.5" font-family="Helvetica,sans-Serif" font-size="10.00">discordcoreapi/Https.hpp</text>
</a>
</g>
</g>
<!-- Node1&#45;&gt;Node36 -->
<g id="edge65" class="edge">
<title>Node1&#45;&gt;Node36</title>
<path fill="none" stroke="midnightblue" d="M862.83,-645.14C1135.98,-636.71 2199.5,-599.52 2199.5,-531.5 2199.5,-531.5 2199.5,-531.5 2199.5,-412 2199.5,-343.38 1705.48,-313.82 1516.15,-305.01"/>
<polygon fill="midnightblue" stroke="midnightblue" points="1516.16,-301.51 1506.01,-304.55 1515.84,-308.5 1516.16,-301.51"/>
</g>
<!-- Node3 -->
<g id="node3" class="node">
<title>Node3</title>
<g id="a_node3"><a xlink:href="../../d5/dae/a00767.html" target="_top" xlink:title=" ">
<polygon fill="none" stroke="black" points="926.5,-56.5 926.5,-75.5 1060.5,-75.5 1060.5,-56.5 926.5,-56.5"/>
<text text-anchor="middle" x="993.5" y="-63.5" font-family="Helvetica,sans-Serif" font-size="10.00">discordcoreapi/Utilities.hpp</text>
</a>
</g>
</g>
<!-- Node2&#45;&gt;Node3 -->
<g id="edge2" class="edge">
<title>Node2&#45;&gt;Node3</title>
<path fill="none" stroke="midnightblue" d="M993.5,-112.4C993.5,-104.47 993.5,-94.46 993.5,-85.86"/>
<polygon fill="midnightblue" stroke="midnightblue" points="997,-85.66 993.5,-75.66 990,-85.66 997,-85.66"/>
</g>
<!-- Node4 -->
<g id="node4" class="node">
<title>Node4</title>
<g id="a_node4"><a xlink:title=" ">
<polygon fill="none" stroke="#bfbfbf" points="0,-0.5 0,-19.5 57,-19.5 57,-0.5 0,-0.5"/>
<text text-anchor="middle" x="28.5" y="-7.5" font-family="Helvetica,sans-Serif" font-size="10.00">pthread.h</text>
</a>
</g>
</g>
<!-- Node3&#45;&gt;Node4 -->
<g id="edge3" class="edge">
<title>Node3&#45;&gt;Node4</title>
<path fill="none" stroke="midnightblue" d="M926.45,-63.35C745.93,-58.65 251.53,-44.07 67.15,-19.74"/>
<polygon fill="midnightblue" stroke="midnightblue" points="67.41,-16.24 57.03,-18.35 66.46,-23.18 67.41,-16.24"/>
</g>
<!-- Node5 -->
<g id="node5" class="node">
<title>Node5</title>
<g id="a_node5"><a xlink:title=" ">
<polygon fill="none" stroke="#bfbfbf" points="75.5,-0.5 75.5,-19.5 137.5,-19.5 137.5,-0.5 75.5,-0.5"/>
<text text-anchor="middle" x="106.5" y="-7.5" font-family="Helvetica,sans-Serif" font-size="10.00">sys/time.h</text>
</a>
</g>
</g>
<!-- Node3&#45;&gt;Node5 -->
<g id="edge4" class="edge">
<title>Node3&#45;&gt;Node5</title>
<path fill="none" stroke="midnightblue" d="M926.43,-65.26C784.35,-64.97 442.57,-59.92 147.87,-19.95"/>
<polygon fill="midnightblue" stroke="midnightblue" points="148.23,-16.47 137.85,-18.58 147.28,-23.4 148.23,-16.47"/>
</g>
<!-- Node6 -->
<g id="node6" class="node">
<title>Node6</title>
<g id="a_node6"><a xlink:title=" ">
<polygon fill="none" stroke="#bfbfbf" points="155.5,-0.5 155.5,-19.5 199.5,-19.5 199.5,-0.5 155.5,-0.5"/>
<text text-anchor="middle" x="177.5" y="-7.5" font-family="Helvetica,sans-Serif" font-size="10.00">time.h</text>
</a>
</g>
</g>
<!-- Node3&#45;&gt;Node6 -->
<g id="edge5" class="edge">
<title>Node3&#45;&gt;Node6</title>
<path fill="none" stroke="midnightblue" d="M926.48,-63.1C766.41,-58.25 364.34,-44.19 209.95,-19.8"/>
<polygon fill="midnightblue" stroke="midnightblue" points="210.15,-16.28 199.71,-18.1 209,-23.19 210.15,-16.28"/>
</g>
<!-- Node7 -->
<g id="node7" class="node">
<title>Node7</title>
<g id="a_node7"><a xlink:title=" ">
<polygon fill="none" stroke="#bfbfbf" points="218,-0.5 218,-19.5 259,-19.5 259,-0.5 218,-0.5"/>
<text text-anchor="middle" x="238.5" y="-7.5" font-family="Helvetica,sans-Serif" font-size="10.00">ctime</text>
</a>
</g>
</g>
<!-- Node3&#45;&gt;Node7 -->
<g id="edge6" class="edge">
<title>Node3&#45;&gt;Node7</title>
<path fill="none" stroke="midnightblue" d="M926.39,-62.89C775.29,-57.82 411.16,-43.7 269.47,-19.9"/>
<polygon fill="midnightblue" stroke="midnightblue" points="269.72,-16.39 259.26,-18.09 268.5,-23.28 269.72,-16.39"/>
</g>
<!-- Node8 -->
<g id="node8" class="node">
<title>Node8</title>
<g id="a_node8"><a xlink:title=" ">
<polygon fill="none" stroke="#bfbfbf" points="277,-0.5 277,-19.5 370,-19.5 370,-0.5 277,-0.5"/>
<text text-anchor="middle" x="323.5" y="-7.5" font-family="Helvetica,sans-Serif" font-size="10.00">condition_variable</text>
</a>
</g>
</g>
<!-- Node3&#45;&gt;Node8 -->
<g id="edge7" class="edge">
<title>Node3&#45;&gt;Node8</title>
<path fill="none" stroke="midnightblue" d="M926.09,-61.96C814.7,-56.53 585.05,-43.55 380.25,-19.98"/>
<polygon fill="midnightblue" stroke="midnightblue" points="380.55,-16.49 370.21,-18.82 379.74,-23.45 380.55,-16.49"/>
</g>
<!-- Node9 -->
<g id="node9" class="node">
<title>Node9</title>
<g id="a_node9"><a xlink:title=" ">
<polygon fill="none" stroke="#bfbfbf" points="388.5,-0.5 388.5,-19.5 486.5,-19.5 486.5,-0.5 388.5,-0.5"/>
<text text-anchor="middle" x="437.5" y="-7.5" font-family="Helvetica,sans-Serif" font-size="10.00">nlohmann/json.hpp</text>
</a>
</g>
</g>
<!-- Node3&#45;&gt;Node9 -->
<g id="edge8" class="edge">
<title>Node3&#45;&gt;Node9</title>
<path fill="none" stroke="midnightblue" d="M926.5,-60.31C832.7,-53.44 656.71,-39.45 496.55,-20.06"/>
<polygon fill="midnightblue" stroke="midnightblue" points="496.87,-16.57 486.52,-18.83 496.02,-23.52 496.87,-16.57"/>
</g>
<!-- Node10 -->
<g id="node10" class="node">
<title>Node10</title>
<g id="a_node10"><a xlink:title=" ">
<polygon fill="none" stroke="#bfbfbf" points="505,-0.5 505,-19.5 590,-19.5 590,-0.5 505,-0.5"/>
<text text-anchor="middle" x="547.5" y="-7.5" font-family="Helvetica,sans-Serif" font-size="10.00">source_location</text>
</a>
</g>
</g>
<!-- Node3&#45;&gt;Node10 -->
<g id="edge9" class="edge">
<title>Node3&#45;&gt;Node10</title>
<path fill="none" stroke="midnightblue" d="M926.24,-58.6C849.66,-51.04 720.55,-37.42 600.18,-20.17"/>
<polygon fill="midnightblue" stroke="midnightblue" points="600.44,-16.67 590.05,-18.71 599.44,-23.6 600.44,-16.67"/>
</g>
<!-- Node11 -->
<g id="node11" class="node">
<title>Node11</title>
<g id="a_node11"><a xlink:title=" ">
<polygon fill="none" stroke="#bfbfbf" points="608,-0.5 608,-19.5 691,-19.5 691,-0.5 608,-0.5"/>
<text text-anchor="middle" x="649.5" y="-7.5" font-family="Helvetica,sans-Serif" font-size="10.00">unordered_map</text>
</a>
</g>
</g>
<!-- Node3&#45;&gt;Node11 -->
<g id="edge10" class="edge">
<title>Node3&#45;&gt;Node11</title>
<path fill="none" stroke="midnightblue" d="M935.62,-56.5C878.67,-48.05 788.96,-34.5 701.35,-20.11"/>
<polygon fill="midnightblue" stroke="midnightblue" points="701.67,-16.62 691.24,-18.44 700.53,-23.52 701.67,-16.62"/>
</g>
<!-- Node12 -->
<g id="node12" class="node">
<title>Node12</title>
<g id="a_node12"><a xlink:title=" ">
<polygon fill="none" stroke="#bfbfbf" points="709.5,-0.5 709.5,-19.5 787.5,-19.5 787.5,-0.5 709.5,-0.5"/>
<text text-anchor="middle" x="748.5" y="-7.5" font-family="Helvetica,sans-Serif" font-size="10.00">shared_mutex</text>
</a>
</g>
</g>
<!-- Node3&#45;&gt;Node12 -->
<g id="edge11" class="edge">
<title>Node3&#45;&gt;Node12</title>
<path fill="none" stroke="midnightblue" d="M954.68,-56.44C911.94,-47.02 843.17,-31.87 796.93,-21.68"/>
<polygon fill="midnightblue" stroke="midnightblue" points="797.66,-18.25 787.14,-19.52 796.15,-25.09 797.66,-18.25"/>
</g>
<!-- Node13 -->
<g id="node13" class="node">
<title>Node13</title>
<g id="a_node13"><a xlink:title=" ">
<polygon fill="none" stroke="#bfbfbf" points="805.5,-0.5 805.5,-19.5 863.5,-19.5 863.5,-0.5 805.5,-0.5"/>
<text text-anchor="middle" x="834.5" y="-7.5" font-family="Helvetica,sans-Serif" font-size="10.00">functional</text>
</a>
</g>
</g>
<!-- Node3&#45;&gt;Node13 -->
<g id="edge12" class="edge">
<title>Node3&#45;&gt;Node13</title>
<path fill="none" stroke="midnightblue" d="M968.31,-56.44C941.56,-47.36 899.1,-32.94 869.19,-22.78"/>
<polygon fill="midnightblue" stroke="midnightblue" points="870.17,-19.42 859.58,-19.52 867.92,-26.05 870.17,-19.42"/>
</g>
<!-- Node14 -->
<g id="node14" class="node">
<title>Node14</title>
<g id="a_node14"><a xlink:title=" ">
<polygon fill="none" stroke="#bfbfbf" points="882,-0.5 882,-19.5 947,-19.5 947,-0.5 882,-0.5"/>
<text text-anchor="middle" x="914.5" y="-7.5" font-family="Helvetica,sans-Serif" font-size="10.00">semaphore</text>
</a>
</g>
</g>
<!-- Node3&#45;&gt;Node14 -->
<g id="edge13" class="edge">
<title>Node3&#45;&gt;Node14</title>
<path fill="none" stroke="midnightblue" d="M980.81,-56.32C968.6,-47.98 949.92,-35.21 935.5,-25.35"/>
<polygon fill="midnightblue" stroke="midnightblue" points="937.39,-22.41 927.16,-19.65 933.44,-28.19 937.39,-22.41"/>
</g>
<!-- Node15 -->
<g id="node15" class="node">
<title>Node15</title>
<g id="a_node15"><a xlink:title=" ">
<polygon fill="none" stroke="#bfbfbf" points="965.5,-0.5 965.5,-19.5 1021.5,-19.5 1021.5,-0.5 965.5,-0.5"/>
<text text-anchor="middle" x="993.5" y="-7.5" font-family="Helvetica,sans-Serif" font-size="10.00">concepts</text>
</a>
</g>
</g>
<!-- Node3&#45;&gt;Node15 -->
<g id="edge14" class="edge">
<title>Node3&#45;&gt;Node15</title>
<path fill="none" stroke="midnightblue" d="M993.5,-56.08C993.5,-49.01 993.5,-38.86 993.5,-29.99"/>
<polygon fill="midnightblue" stroke="midnightblue" points="997,-29.75 993.5,-19.75 990,-29.75 997,-29.75"/>
</g>
<!-- Node16 -->
<g id="node16" class="node">
<title>Node16</title>
<g id="a_node16"><a xlink:title=" ">
<polygon fill="none" stroke="#bfbfbf" points="1039.5,-0.5 1039.5,-19.5 1093.5,-19.5 1093.5,-0.5 1039.5,-0.5"/>
<text text-anchor="middle" x="1066.5" y="-7.5" font-family="Helvetica,sans-Serif" font-size="10.00">iostream</text>
</a>
</g>
</g>
<!-- Node3&#45;&gt;Node16 -->
<g id="edge15" class="edge">
<title>Node3&#45;&gt;Node16</title>
<path fill="none" stroke="midnightblue" d="M1005.23,-56.32C1016.34,-48.11 1033.24,-35.6 1046.48,-25.81"/>
<polygon fill="midnightblue" stroke="midnightblue" points="1048.6,-28.59 1054.56,-19.83 1044.44,-22.97 1048.6,-28.59"/>
</g>
<!-- Node17 -->
<g id="node17" class="node">
<title>Node17</title>
<g id="a_node17"><a xlink:title=" ">
<polygon fill="none" stroke="#bfbfbf" points="1112,-0.5 1112,-19.5 1161,-19.5 1161,-0.5 1112,-0.5"/>
<text text-anchor="middle" x="1136.5" y="-7.5" font-family="Helvetica,sans-Serif" font-size="10.00">fstream</text>
</a>
</g>
</g>
<!-- Node3&#45;&gt;Node17 -->
<g id="edge16" class="edge">
<title>Node3&#45;&gt;Node17</title>
<path fill="none" stroke="midnightblue" d="M1016.16,-56.44C1039.9,-47.48 1077.41,-33.31 1104.24,-23.18"/>
<polygon fill="midnightblue" stroke="midnightblue" points="1105.83,-26.32 1113.95,-19.52 1103.36,-19.77 1105.83,-26.32"/>
</g>
<!-- Node18 -->
<g id="node18" class="node">
<title>Node18</title>
<g id="a_node18"><a xlink:title=" ">
<polygon fill="none" stroke="#bfbfbf" points="1179,-0.5 1179,-19.5 1220,-19.5 1220,-0.5 1179,-0.5"/>
<text text-anchor="middle" x="1199.5" y="-7.5" font-family="Helvetica,sans-Serif" font-size="10.00">bitset</text>
</a>
</g>
</g>
<!-- Node3&#45;&gt;Node18 -->
<g id="edge17" class="edge">
<title>Node3&#45;&gt;Node18</title>
<path fill="none" stroke="midnightblue" d="M1028.68,-56.46C1062.27,-48.2 1114.53,-35.09 1169.04,-20.04"/>
<polygon fill="midnightblue" stroke="midnightblue" points="1170.18,-23.36 1178.88,-17.31 1168.3,-16.61 1170.18,-23.36"/>
</g>
<!-- Node19 -->
<g id="node19" class="node">
<title>Node19</title>
<g id="a_node19"><a xlink:title=" ">
<polygon fill="none" stroke="#bfbfbf" points="1238.5,-0.5 1238.5,-19.5 1290.5,-19.5 1290.5,-0.5 1238.5,-0.5"/>
<text text-anchor="middle" x="1264.5" y="-7.5" font-family="Helvetica,sans-Serif" font-size="10.00">memory</text>
</a>
</g>
</g>
<!-- Node3&#45;&gt;Node19 -->
<g id="edge18" class="edge">
<title>Node3&#45;&gt;Node19</title>
<path fill="none" stroke="midnightblue" d="M1042.27,-56.48C1087.77,-48.35 1157.77,-35.37 1228.25,-19.95"/>
<polygon fill="midnightblue" stroke="midnightblue" points="1229.18,-23.33 1238.19,-17.76 1227.67,-16.49 1229.18,-23.33"/>
</g>
<!-- Node20 -->
<g id="node20" class="node">
<title>Node20</title>
<g id="a_node20"><a xlink:title=" ">
<polygon fill="none" stroke="#bfbfbf" points="1309,-0.5 1309,-19.5 1358,-19.5 1358,-0.5 1309,-0.5"/>
<text text-anchor="middle" x="1333.5" y="-7.5" font-family="Helvetica,sans-Serif" font-size="10.00">random</text>
</a>
</g>
</g>
<!-- Node3&#45;&gt;Node20 -->
<g id="edge19" class="edge">
<title>Node3&#45;&gt;Node20</title>
<path fill="none" stroke="midnightblue" d="M1060.74,-57.33C1120.74,-49.97 1211.15,-37.66 1298.84,-19.93"/>
<polygon fill="midnightblue" stroke="midnightblue" points="1299.6,-23.35 1308.69,-17.91 1298.2,-16.49 1299.6,-23.35"/>
</g>
<!-- Node21 -->
<g id="node21" class="node">
<title>Node21</title>
<g id="a_node21"><a xlink:title=" ">
<polygon fill="none" stroke="#bfbfbf" points="1376,-0.5 1376,-19.5 1417,-19.5 1417,-0.5 1376,-0.5"/>
<text text-anchor="middle" x="1396.5" y="-7.5" font-family="Helvetica,sans-Serif" font-size="10.00">string</text>
</a>
</g>
</g>
<!-- Node3&#45;&gt;Node21 -->
<g id="edge20" class="edge">
<title>Node3&#45;&gt;Node21</title>
<path fill="none" stroke="midnightblue" d="M1060.77,-60.37C1133.77,-54.57 1253.79,-42.75 1366.16,-19.71"/>
<polygon fill="midnightblue" stroke="midnightblue" points="1366.89,-23.13 1375.96,-17.67 1365.46,-16.28 1366.89,-23.13"/>
</g>
<!-- Node22 -->
<g id="node22" class="node">
<title>Node22</title>
<g id="a_node22"><a xlink:title=" ">
<polygon fill="none" stroke="#bfbfbf" points="1435.5,-0.5 1435.5,-19.5 1477.5,-19.5 1477.5,-0.5 1435.5,-0.5"/>
<text text-anchor="middle" x="1456.5" y="-7.5" font-family="Helvetica,sans-Serif" font-size="10.00">vector</text>
</a>
</g>
</g>
<!-- Node3&#45;&gt;Node22 -->
<g id="edge21" class="edge">
<title>Node3&#45;&gt;Node22</title>
<path fill="none" stroke="midnightblue" d="M1060.65,-61.73C1146.08,-56.72 1297.84,-44.97 1425.5,-20 1425.6,-19.98 1425.7,-19.96 1425.8,-19.94"/>
<polygon fill="midnightblue" stroke="midnightblue" points="1426.35,-23.41 1435.28,-17.7 1424.74,-16.59 1426.35,-23.41"/>
</g>
<!-- Node23 -->
<g id="node23" class="node">
<title>Node23</title>
<g id="a_node23"><a xlink:title=" ">
<polygon fill="none" stroke="#bfbfbf" points="1495.5,-0.5 1495.5,-19.5 1539.5,-19.5 1539.5,-0.5 1495.5,-0.5"/>
<text text-anchor="middle" x="1517.5" y="-7.5" font-family="Helvetica,sans-Serif" font-size="10.00">thread</text>
</a>
</g>
</g>
<!-- Node3&#45;&gt;Node23 -->
<g id="edge22" class="edge">
<title>Node3&#45;&gt;Node23</title>
<path fill="none" stroke="midnightblue" d="M1060.65,-62.94C1154,-59.18 1328.27,-48.9 1484.98,-19.94"/>
<polygon fill="midnightblue" stroke="midnightblue" points="1486.09,-23.29 1495.27,-18.01 1484.8,-16.41 1486.09,-23.29"/>
</g>
<!-- Node24 -->
<g id="node24" class="node">
<title>Node24</title>
<g id="a_node24"><a xlink:title=" ">
<polygon fill="none" stroke="#bfbfbf" points="1557.5,-0.5 1557.5,-19.5 1601.5,-19.5 1601.5,-0.5 1557.5,-0.5"/>
<text text-anchor="middle" x="1579.5" y="-7.5" font-family="Helvetica,sans-Serif" font-size="10.00">mutex</text>
</a>
</g>
</g>
<!-- Node3&#45;&gt;Node24 -->
<g id="edge23" class="edge">
<title>Node3&#45;&gt;Node24</title>
<path fill="none" stroke="midnightblue" d="M1060.71,-63.91C1163.77,-61.28 1366.99,-52.3 1547.35,-19.85"/>
<polygon fill="midnightblue" stroke="midnightblue" points="1548.07,-23.27 1557.28,-18.03 1546.81,-16.39 1548.07,-23.27"/>
</g>
<!-- Node25 -->
<g id="node25" class="node">
<title>Node25</title>
<g id="a_node25"><a xlink:title=" ">
<polygon fill="none" stroke="#bfbfbf" points="1620,-0.5 1620,-19.5 1663,-19.5 1663,-0.5 1620,-0.5"/>
<text text-anchor="middle" x="1641.5" y="-7.5" font-family="Helvetica,sans-Serif" font-size="10.00">queue</text>
</a>
</g>
</g>
<!-- Node3&#45;&gt;Node25 -->
<g id="edge24" class="edge">
<title>Node3&#45;&gt;Node25</title>
<path fill="none" stroke="midnightblue" d="M1060.72,-64.69C1172.88,-63.17 1405.18,-55.74 1609.92,-19.68"/>
<polygon fill="midnightblue" stroke="midnightblue" points="1610.73,-23.09 1619.96,-17.88 1609.5,-16.2 1610.73,-23.09"/>
</g>
<!-- Node26 -->
<g id="node26" class="node">
<title>Node26</title>
<g id="a_node26"><a xlink:title=" ">
<polygon fill="none" stroke="#bfbfbf" points="1681,-0.5 1681,-19.5 1716,-19.5 1716,-0.5 1681,-0.5"/>
<text text-anchor="middle" x="1698.5" y="-7.5" font-family="Helvetica,sans-Serif" font-size="10.00">map</text>
</a>
</g>
</g>
<!-- Node3&#45;&gt;Node26 -->
<g id="edge25" class="edge">
<title>Node3&#45;&gt;Node26</title>
<path fill="none" stroke="midnightblue" d="M1060.69,-62.83C1204.54,-57.81 1539.28,-44.13 1670.91,-19.76"/>
<polygon fill="midnightblue" stroke="midnightblue" points="1671.63,-23.19 1680.77,-17.84 1670.29,-16.32 1671.63,-23.19"/>
</g>
<!-- Node27&#45;&gt;Node2 -->
<g id="edge27" class="edge">
<title>Node27&#45;&gt;Node2</title>
<path fill="none" stroke="midnightblue" d="M744.27,-582.45C650.32,-566.34 469.5,-527.82 469.5,-470 469.5,-470 469.5,-470 469.5,-244 469.5,-207.28 488.38,-196.8 520.5,-179 586.85,-142.24 801.55,-132.23 917.52,-129.51"/>
<polygon fill="midnightblue" stroke="midnightblue" points="917.82,-133.01 927.74,-129.29 917.66,-126.01 917.82,-133.01"/>
</g>
<!-- Node28 -->
<g id="node28" class="node">
<title>Node28</title>
<g id="a_node28"><a xlink:href="../../d9/dd4/a00776.html" target="_top" xlink:title=" ">
<polygon fill="none" stroke="black" points="934.5,-515.5 934.5,-545.5 1068.5,-545.5 1068.5,-515.5 934.5,-515.5"/>
<text text-anchor="start" x="942.5" y="-533.5" font-family="Helvetica,sans-Serif" font-size="10.00">discordcoreapi/WebSocket</text>
<text text-anchor="middle" x="1001.5" y="-522.5" font-family="Helvetica,sans-Serif" font-size="10.00">Entities.hpp</text>
</a>
</g>
</g>
<!-- Node27&#45;&gt;Node28 -->
<g id="edge28" class="edge">
<title>Node27&#45;&gt;Node28</title>
<path fill="none" stroke="midnightblue" d="M828.44,-582.48C858.48,-573.63 906.28,-559.55 944.03,-548.43"/>
<polygon fill="midnightblue" stroke="midnightblue" points="945.29,-551.71 953.89,-545.52 943.31,-544.99 945.29,-551.71"/>
</g>
<!-- Node28&#45;&gt;Node2 -->
<g id="edge29" class="edge">
<title>Node28&#45;&gt;Node2</title>
<path fill="none" stroke="midnightblue" d="M934.36,-527.73C799.29,-522.33 507.5,-500.65 507.5,-414 507.5,-414 507.5,-414 507.5,-244 507.5,-209.11 521.66,-197.08 551.5,-179 611.39,-142.71 808.22,-132.49 917.93,-129.62"/>
<polygon fill="midnightblue" stroke="midnightblue" points="918.03,-133.12 927.94,-129.37 917.86,-126.12 918.03,-133.12"/>
</g>
<!-- Node29 -->
<g id="node29" class="node">
<title>Node29</title>
<g id="a_node29"><a xlink:href="../../d4/d9b/a00680.html" target="_top" xlink:title=" ">
<polygon fill="none" stroke="black" points="691.5,-235.5 691.5,-254.5 853.5,-254.5 853.5,-235.5 691.5,-235.5"/>
<text text-anchor="middle" x="772.5" y="-242.5" font-family="Helvetica,sans-Serif" font-size="10.00">discordcoreapi/AudioDecoder.hpp</text>
</a>
</g>
</g>
<!-- Node28&#45;&gt;Node29 -->
<g id="edge30" class="edge">
<title>Node28&#45;&gt;Node29</title>
<path fill="none" stroke="midnightblue" d="M946.43,-515.42C898.79,-499.53 837.5,-468.5 837.5,-414 837.5,-414 837.5,-414 837.5,-356 837.5,-318.18 808.66,-281.94 789.41,-261.96"/>
<polygon fill="midnightblue" stroke="midnightblue" points="791.64,-259.24 782.09,-254.66 786.7,-264.2 791.64,-259.24"/>
</g>
<!-- Node30 -->
<g id="node30" class="node">
<title>Node30</title>
<g id="a_node30"><a xlink:href="../../d4/d6a/a00704.html" target="_top" xlink:title=" ">
<polygon fill="none" stroke="black" points="861.5,-179.5 861.5,-198.5 1019.5,-198.5 1019.5,-179.5 861.5,-179.5"/>
<text text-anchor="middle" x="940.5" y="-186.5" font-family="Helvetica,sans-Serif" font-size="10.00">discordcoreapi/EventEntities.hpp</text>
</a>
</g>
</g>
<!-- Node28&#45;&gt;Node30 -->
<g id="edge62" class="edge">
<title>Node28&#45;&gt;Node30</title>
<path fill="none" stroke="midnightblue" d="M986.87,-515.21C977.85,-505.69 966.68,-492.49 959.5,-479 945.36,-452.43 940.5,-444.1 940.5,-414 940.5,-414 940.5,-414 940.5,-300 940.5,-267.95 940.5,-230.64 940.5,-208.75"/>
<polygon fill="midnightblue" stroke="midnightblue" points="944,-208.56 940.5,-198.56 937,-208.56 944,-208.56"/>
</g>
<!-- Node33 -->
<g id="node33" class="node">
<title>Node33</title>
<g id="a_node33"><a xlink:href="../../d0/db6/a00692.html" target="_top" xlink:title=" ">
<polygon fill="none" stroke="black" points="969,-459.5 969,-478.5 1156,-478.5 1156,-459.5 969,-459.5"/>
<text text-anchor="middle" x="1062.5" y="-466.5" font-family="Helvetica,sans-Serif" font-size="10.00">discordcoreapi/CommandController.hpp</text>
</a>
</g>
</g>
<!-- Node28&#45;&gt;Node33 -->
<g id="edge36" class="edge">
<title>Node28&#45;&gt;Node33</title>
<path fill="none" stroke="midnightblue" d="M1015.96,-515.4C1025.09,-506.49 1036.92,-494.95 1046.36,-485.74"/>
<polygon fill="midnightblue" stroke="midnightblue" points="1048.91,-488.15 1053.62,-478.66 1044.02,-483.13 1048.91,-488.15"/>
</g>
<!-- Node35 -->
<g id="node35" class="node">
<title>Node35</title>
<g id="a_node35"><a xlink:href="../../d3/d4f/a00761.html" target="_top" xlink:title=" ">
<polygon fill="none" stroke="black" points="1169.5,-347.5 1169.5,-366.5 1319.5,-366.5 1319.5,-347.5 1169.5,-347.5"/>
<text text-anchor="middle" x="1244.5" y="-354.5" font-family="Helvetica,sans-Serif" font-size="10.00">discordcoreapi/ThreadPool.hpp</text>
</a>
</g>
</g>
<!-- Node28&#45;&gt;Node35 -->
<g id="edge64" class="edge">
<title>Node28&#45;&gt;Node35</title>
<path fill="none" stroke="midnightblue" d="M1067.8,-515.44C1098.4,-507.35 1134.5,-495.47 1164.5,-479 1198.22,-460.49 1210.73,-456 1230.5,-423 1238.93,-408.92 1242.32,-390.43 1243.66,-376.77"/>
<polygon fill="midnightblue" stroke="midnightblue" points="1247.16,-376.86 1244.37,-366.64 1240.18,-376.37 1247.16,-376.86"/>
</g>
<!-- Node37 -->
<g id="node37" class="node">
<title>Node37</title>
<g id="a_node37"><a xlink:href="../../d5/de8/a00749.html" target="_top" xlink:title=" ">
<polygon fill="none" stroke="black" points="1459.5,-235.5 1459.5,-254.5 1609.5,-254.5 1609.5,-235.5 1459.5,-235.5"/>
<text text-anchor="middle" x="1534.5" y="-242.5" font-family="Helvetica,sans-Serif" font-size="10.00">discordcoreapi/SSLClients.hpp</text>
</a>
</g>
</g>
<!-- Node28&#45;&gt;Node37 -->
<g id="edge63" class="edge">
<title>Node28&#45;&gt;Node37</title>
<path fill="none" stroke="midnightblue" d="M1068.73,-528.89C1212.02,-525.77 1534.5,-508.27 1534.5,-414 1534.5,-414 1534.5,-414 1534.5,-356 1534.5,-323.95 1534.5,-286.64 1534.5,-264.75"/>
<polygon fill="midnightblue" stroke="midnightblue" points="1538,-264.56 1534.5,-254.56 1531,-264.56 1538,-264.56"/>
</g>
<!-- Node51 -->
<g id="node51" class="node">
<title>Node51</title>
<g id="a_node51"><a xlink:href="../../dd/d57/a00701.html" target="_top" xlink:title=" ">
<polygon fill="none" stroke="black" points="1895.5,-403.5 1895.5,-422.5 2039.5,-422.5 2039.5,-403.5 1895.5,-403.5"/>
<text text-anchor="middle" x="1967.5" y="-410.5" font-family="Helvetica,sans-Serif" font-size="10.00">discordcoreapi/ErlPacker.hpp</text>
</a>
</g>
</g>
<!-- Node28&#45;&gt;Node51 -->
<g id="edge60" class="edge">
<title>Node28&#45;&gt;Node51</title>
<path fill="none" stroke="midnightblue" d="M1068.59,-524.65C1171.88,-516.88 1376,-500.32 1548.5,-479 1677.59,-463.04 1828.09,-438.15 1908.94,-424.26"/>
<polygon fill="midnightblue" stroke="midnightblue" points="1909.67,-427.68 1918.93,-422.53 1908.48,-420.78 1909.67,-427.68"/>
</g>
<!-- Node29&#45;&gt;Node2 -->
<g id="edge33" class="edge">
<title>Node29&#45;&gt;Node2</title>
<path fill="none" stroke="midnightblue" d="M691.45,-242.61C617.02,-238.54 523.96,-224.59 564.5,-179 587.51,-153.13 800.57,-138.3 917.51,-132.05"/>
<polygon fill="midnightblue" stroke="midnightblue" points="918.03,-135.53 927.83,-131.51 917.66,-128.54 918.03,-135.53"/>
</g>
<!-- Node29&#45;&gt;Node30 -->
<g id="edge31" class="edge">
<title>Node29&#45;&gt;Node30</title>
<path fill="none" stroke="midnightblue" d="M799.12,-235.44C827.51,-226.32 872.64,-211.81 904.25,-201.65"/>
<polygon fill="midnightblue" stroke="midnightblue" points="905.56,-204.91 914,-198.52 903.41,-198.24 905.56,-204.91"/>
</g>
<!-- Node31 -->
<g id="node31" class="node">
<title>Node31</title>
<g id="a_node31"><a xlink:title=" ">
<polygon fill="none" stroke="#bfbfbf" points="573.5,-179.5 573.5,-198.5 683.5,-198.5 683.5,-179.5 573.5,-179.5"/>
<text text-anchor="middle" x="628.5" y="-186.5" font-family="Helvetica,sans-Serif" font-size="10.00">libavformat/avformat.h</text>
</a>
</g>
</g>
<!-- Node29&#45;&gt;Node31 -->
<g id="edge34" class="edge">
<title>Node29&#45;&gt;Node31</title>
<path fill="none" stroke="midnightblue" d="M749.68,-235.44C725.67,-226.44 687.67,-212.19 660.63,-202.05"/>
<polygon fill="midnightblue" stroke="midnightblue" points="661.8,-198.75 651.21,-198.52 659.34,-205.3 661.8,-198.75"/>
</g>
<!-- Node32 -->
<g id="node32" class="node">
<title>Node32</title>
<g id="a_node32"><a xlink:title=" ">
<polygon fill="none" stroke="#bfbfbf" points="702,-179.5 702,-198.5 843,-198.5 843,-179.5 702,-179.5"/>
<text text-anchor="middle" x="772.5" y="-186.5" font-family="Helvetica,sans-Serif" font-size="10.00">libswresample/swresample.h</text>
</a>
</g>
</g>
<!-- Node29&#45;&gt;Node32 -->
<g id="edge35" class="edge">
<title>Node29&#45;&gt;Node32</title>
<path fill="none" stroke="midnightblue" d="M772.5,-235.08C772.5,-228.01 772.5,-217.86 772.5,-208.99"/>
<polygon fill="midnightblue" stroke="midnightblue" points="776,-208.75 772.5,-198.75 769,-208.75 776,-208.75"/>
</g>
<!-- Node30&#45;&gt;Node2 -->
<g id="edge32" class="edge">
<title>Node30&#45;&gt;Node2</title>
<path fill="none" stroke="midnightblue" d="M948.09,-179.48C954.87,-171.87 965.09,-160.4 974.11,-150.26"/>
<polygon fill="midnightblue" stroke="midnightblue" points="976.97,-152.32 981.01,-142.52 971.74,-147.66 976.97,-152.32"/>
</g>
<!-- Node33&#45;&gt;Node2 -->
<g id="edge37" class="edge">
<title>Node33&#45;&gt;Node2</title>
<path fill="none" stroke="midnightblue" d="M1060.54,-459.5C1056.47,-441.09 1047.5,-396.16 1047.5,-358 1047.5,-358 1047.5,-358 1047.5,-244 1047.5,-209.02 1026.92,-173.22 1011.17,-150.93"/>
<polygon fill="midnightblue" stroke="midnightblue" points="1013.95,-148.8 1005.22,-142.81 1008.31,-152.94 1013.95,-148.8"/>
</g>
<!-- Node34 -->
<g id="node34" class="node">
<title>Node34</title>
<g id="a_node34"><a xlink:href="../../d5/d5b/a00695.html" target="_top" xlink:title=" ">
<polygon fill="none" stroke="black" points="1075.5,-403.5 1075.5,-422.5 1221.5,-422.5 1221.5,-403.5 1075.5,-403.5"/>
<text text-anchor="middle" x="1148.5" y="-410.5" font-family="Helvetica,sans-Serif" font-size="10.00">discordcoreapi/CoRoutine.hpp</text>
</a>
</g>
</g>
<!-- Node33&#45;&gt;Node34 -->
<g id="edge38" class="edge">
<title>Node33&#45;&gt;Node34</title>
<path fill="none" stroke="midnightblue" d="M1076.32,-459.32C1089.73,-450.9 1110.32,-437.97 1126.09,-428.07"/>
<polygon fill="midnightblue" stroke="midnightblue" points="1128.11,-430.94 1134.72,-422.65 1124.39,-425.01 1128.11,-430.94"/>
</g>
<!-- Node34&#45;&gt;Node2 -->
<g id="edge39" class="edge">
<title>Node34&#45;&gt;Node2</title>
<path fill="none" stroke="midnightblue" d="M1139.2,-403.28C1121.68,-385.85 1085.5,-344.69 1085.5,-302 1085.5,-302 1085.5,-302 1085.5,-244 1085.5,-213.2 1079.96,-203.65 1061.5,-179 1052.49,-166.97 1039.84,-156.5 1027.89,-148.26"/>
<polygon fill="midnightblue" stroke="midnightblue" points="1029.65,-145.23 1019.37,-142.66 1025.8,-151.08 1029.65,-145.23"/>
</g>
<!-- Node34&#45;&gt;Node35 -->
<g id="edge40" class="edge">
<title>Node34&#45;&gt;Node35</title>
<path fill="none" stroke="midnightblue" d="M1163.92,-403.32C1179.04,-394.82 1202.32,-381.73 1219.97,-371.8"/>
<polygon fill="midnightblue" stroke="midnightblue" points="1222.11,-374.61 1229.11,-366.65 1218.68,-368.51 1222.11,-374.61"/>
</g>
<!-- Node50 -->
<g id="node50" class="node">
<title>Node50</title>
<g id="a_node50"><a xlink:title=" ">
<polygon fill="none" stroke="#bfbfbf" points="1113.5,-291.5 1113.5,-310.5 1169.5,-310.5 1169.5,-291.5 1113.5,-291.5"/>
<text text-anchor="middle" x="1141.5" y="-298.5" font-family="Helvetica,sans-Serif" font-size="10.00">coroutine</text>
</a>
</g>
</g>
<!-- Node34&#45;&gt;Node50 -->
<g id="edge59" class="edge">
<title>Node34&#45;&gt;Node50</title>
<path fill="none" stroke="midnightblue" d="M1147.95,-403.37C1146.82,-385.62 1144.22,-344.67 1142.68,-320.6"/>
<polygon fill="midnightblue" stroke="midnightblue" points="1146.17,-320.35 1142.05,-310.59 1139.19,-320.79 1146.17,-320.35"/>
</g>
<!-- Node35&#45;&gt;Node2 -->
<g id="edge41" class="edge">
<title>Node35&#45;&gt;Node2</title>
<path fill="none" stroke="midnightblue" d="M1239.24,-347.11C1222.26,-319.06 1166.11,-231.18 1099.5,-179 1082.48,-165.67 1061.36,-154.71 1042.47,-146.45"/>
<polygon fill="midnightblue" stroke="midnightblue" points="1043.69,-143.17 1033.11,-142.5 1040.96,-149.62 1043.69,-143.17"/>
</g>
<!-- Node35&#45;&gt;Node36 -->
<g id="edge42" class="edge">
<title>Node35&#45;&gt;Node36</title>
<path fill="none" stroke="midnightblue" d="M1276.03,-347.44C1310.09,-338.2 1364.51,-323.44 1402.02,-313.26"/>
<polygon fill="midnightblue" stroke="midnightblue" points="1403.38,-316.51 1412.12,-310.52 1401.55,-309.76 1403.38,-316.51"/>
</g>
<!-- Node35&#45;&gt;Node50 -->
<g id="edge58" class="edge">
<title>Node35&#45;&gt;Node50</title>
<path fill="none" stroke="midnightblue" d="M1227.95,-347.32C1211.51,-338.7 1186.07,-325.36 1167.03,-315.39"/>
<polygon fill="midnightblue" stroke="midnightblue" points="1168.49,-312.2 1158.01,-310.65 1165.24,-318.4 1168.49,-312.2"/>
</g>
<!-- Node36&#45;&gt;Node37 -->
<g id="edge43" class="edge">
<title>Node36&#45;&gt;Node37</title>
<path fill="none" stroke="midnightblue" d="M1458.12,-291.32C1472.45,-282.82 1494.51,-269.73 1511.25,-259.8"/>
<polygon fill="midnightblue" stroke="midnightblue" points="1513.1,-262.77 1519.92,-254.65 1509.53,-256.75 1513.1,-262.77"/>
</g>
<!-- Node37&#45;&gt;Node2 -->
<g id="edge44" class="edge">
<title>Node37&#45;&gt;Node2</title>
<path fill="none" stroke="midnightblue" d="M1459.24,-241.15C1386.64,-236.85 1274.25,-226.05 1180.5,-199 1160.25,-193.16 1157.02,-186.94 1137.5,-179 1107.88,-166.95 1074.19,-155.04 1046.85,-145.82"/>
<polygon fill="midnightblue" stroke="midnightblue" points="1047.67,-142.4 1037.08,-142.54 1045.45,-149.04 1047.67,-142.4"/>
</g>
<!-- Node37&#45;&gt;Node30 -->
<g id="edge45" class="edge">
<title>Node37&#45;&gt;Node30</title>
<path fill="none" stroke="midnightblue" d="M1459.27,-237.16C1349.76,-227.21 1146.81,-208.76 1029.85,-198.12"/>
<polygon fill="midnightblue" stroke="midnightblue" points="1030.12,-194.63 1019.84,-197.21 1029.49,-201.6 1030.12,-194.63"/>
</g>
<!-- Node38 -->
<g id="node38" class="node">
<title>Node38</title>
<g id="a_node38"><a xlink:title=" ">
<polygon fill="none" stroke="#bfbfbf" points="1190,-179.5 1190,-198.5 1263,-198.5 1263,-179.5 1190,-179.5"/>
<text text-anchor="middle" x="1226.5" y="-186.5" font-family="Helvetica,sans-Serif" font-size="10.00">openssl/err.h</text>
</a>
</g>
</g>
<!-- Node37&#45;&gt;Node38 -->
<g id="edge46" class="edge">
<title>Node37&#45;&gt;Node38</title>
<path fill="none" stroke="midnightblue" d="M1482.74,-235.47C1432.01,-227.03 1352.23,-213.55 1273.27,-199.11"/>
<polygon fill="midnightblue" stroke="midnightblue" points="1273.61,-195.61 1263.14,-197.25 1272.35,-202.5 1273.61,-195.61"/>
</g>
<!-- Node39 -->
<g id="node39" class="node">
<title>Node39</title>
<g id="a_node39"><a xlink:title=" ">
<polygon fill="none" stroke="#bfbfbf" points="1281.5,-179.5 1281.5,-198.5 1355.5,-198.5 1355.5,-179.5 1281.5,-179.5"/>
<text text-anchor="middle" x="1318.5" y="-186.5" font-family="Helvetica,sans-Serif" font-size="10.00">openssl/ssl.h</text>
</a>
</g>
</g>
<!-- Node37&#45;&gt;Node39 -->
<g id="edge47" class="edge">
<title>Node37&#45;&gt;Node39</title>
<path fill="none" stroke="midnightblue" d="M1500.27,-235.44C1462.99,-226.12 1403.23,-211.18 1362.49,-201"/>
<polygon fill="midnightblue" stroke="midnightblue" points="1363.12,-197.55 1352.57,-198.52 1361.42,-204.34 1363.12,-197.55"/>
</g>
<!-- Node40 -->
<g id="node40" class="node">
<title>Node40</title>
<g id="a_node40"><a xlink:title=" ">
<polygon fill="none" stroke="#bfbfbf" points="1374,-179.5 1374,-198.5 1417,-198.5 1417,-179.5 1374,-179.5"/>
<text text-anchor="middle" x="1395.5" y="-186.5" font-family="Helvetica,sans-Serif" font-size="10.00">fcntl.h</text>
</a>
</g>
</g>
<!-- Node37&#45;&gt;Node40 -->
<g id="edge48" class="edge">
<title>Node37&#45;&gt;Node40</title>
<path fill="none" stroke="midnightblue" d="M1512.48,-235.44C1489.4,-226.48 1452.94,-212.31 1426.86,-202.18"/>
<polygon fill="midnightblue" stroke="midnightblue" points="1428.01,-198.88 1417.42,-198.52 1425.48,-205.4 1428.01,-198.88"/>
</g>
<!-- Node41 -->
<g id="node41" class="node">
<title>Node41</title>
<g id="a_node41"><a xlink:title=" ">
<polygon fill="none" stroke="#bfbfbf" points="1435,-179.5 1435,-198.5 1484,-198.5 1484,-179.5 1435,-179.5"/>
<text text-anchor="middle" x="1459.5" y="-186.5" font-family="Helvetica,sans-Serif" font-size="10.00">netdb.h</text>
</a>
</g>
</g>
<!-- Node37&#45;&gt;Node41 -->
<g id="edge49" class="edge">
<title>Node37&#45;&gt;Node41</title>
<path fill="none" stroke="midnightblue" d="M1522.45,-235.32C1511.04,-227.11 1493.67,-214.6 1480.07,-204.81"/>
<polygon fill="midnightblue" stroke="midnightblue" points="1481.93,-201.84 1471.77,-198.83 1477.84,-207.52 1481.93,-201.84"/>
</g>
<!-- Node42 -->
<g id="node42" class="node">
<title>Node42</title>
<g id="a_node42"><a xlink:title=" ">
<polygon fill="none" stroke="#bfbfbf" points="1502,-179.5 1502,-198.5 1567,-198.5 1567,-179.5 1502,-179.5"/>
<text text-anchor="middle" x="1534.5" y="-186.5" font-family="Helvetica,sans-Serif" font-size="10.00">netinet/in.h</text>
</a>
</g>
</g>
<!-- Node37&#45;&gt;Node42 -->
<g id="edge50" class="edge">
<title>Node37&#45;&gt;Node42</title>
<path fill="none" stroke="midnightblue" d="M1534.5,-235.08C1534.5,-228.01 1534.5,-217.86 1534.5,-208.99"/>
<polygon fill="midnightblue" stroke="midnightblue" points="1538,-208.75 1534.5,-198.75 1531,-208.75 1538,-208.75"/>
</g>
<!-- Node43 -->
<g id="node43" class="node">
<title>Node43</title>
<g id="a_node43"><a xlink:title=" ">
<polygon fill="none" stroke="#bfbfbf" points="1585,-179.5 1585,-198.5 1656,-198.5 1656,-179.5 1585,-179.5"/>
<text text-anchor="middle" x="1620.5" y="-186.5" font-family="Helvetica,sans-Serif" font-size="10.00">netinet/tcp.h</text>
</a>
</g>
</g>
<!-- Node37&#45;&gt;Node43 -->
<g id="edge51" class="edge">
<title>Node37&#45;&gt;Node43</title>
<path fill="none" stroke="midnightblue" d="M1548.32,-235.32C1561.73,-226.9 1582.32,-213.97 1598.09,-204.07"/>
<polygon fill="midnightblue" stroke="midnightblue" points="1600.11,-206.94 1606.72,-198.65 1596.39,-201.01 1600.11,-206.94"/>
</g>
<!-- Node44 -->
<g id="node44" class="node">
<title>Node44</title>
<g id="a_node44"><a xlink:title=" ">
<polygon fill="none" stroke="#bfbfbf" points="1674,-179.5 1674,-198.5 1723,-198.5 1723,-179.5 1674,-179.5"/>
<text text-anchor="middle" x="1698.5" y="-186.5" font-family="Helvetica,sans-Serif" font-size="10.00">stdint.h</text>
</a>
</g>
</g>
<!-- Node37&#45;&gt;Node44 -->
<g id="edge52" class="edge">
<title>Node37&#45;&gt;Node44</title>
<path fill="none" stroke="midnightblue" d="M1560.49,-235.44C1588.6,-226.19 1633.55,-211.39 1664.47,-201.21"/>
<polygon fill="midnightblue" stroke="midnightblue" points="1665.57,-204.53 1673.97,-198.08 1663.38,-197.88 1665.57,-204.53"/>
</g>
<!-- Node45 -->
<g id="node45" class="node">
<title>Node45</title>
<g id="a_node45"><a xlink:title=" ">
<polygon fill="none" stroke="#bfbfbf" points="1741.5,-179.5 1741.5,-198.5 1805.5,-198.5 1805.5,-179.5 1741.5,-179.5"/>
<text text-anchor="middle" x="1773.5" y="-186.5" font-family="Helvetica,sans-Serif" font-size="10.00">sys/epoll.h</text>
</a>
</g>
</g>
<!-- Node37&#45;&gt;Node45 -->
<g id="edge53" class="edge">
<title>Node37&#45;&gt;Node45</title>
<path fill="none" stroke="midnightblue" d="M1572.37,-235.44C1615.6,-225.68 1686.12,-209.74 1731.14,-199.57"/>
<polygon fill="midnightblue" stroke="midnightblue" points="1732.19,-202.92 1741.17,-197.3 1730.65,-196.09 1732.19,-202.92"/>
</g>
<!-- Node46 -->
<g id="node46" class="node">
<title>Node46</title>
<g id="a_node46"><a xlink:title=" ">
<polygon fill="none" stroke="#bfbfbf" points="1823.5,-179.5 1823.5,-198.5 1885.5,-198.5 1885.5,-179.5 1823.5,-179.5"/>
<text text-anchor="middle" x="1854.5" y="-186.5" font-family="Helvetica,sans-Serif" font-size="10.00">arpa/inet.h</text>
</a>
</g>
</g>
<!-- Node37&#45;&gt;Node46 -->
<g id="edge54" class="edge">
<title>Node37&#45;&gt;Node46</title>
<path fill="none" stroke="midnightblue" d="M1594.23,-235.5C1648.82,-227.48 1732.03,-214.63 1813.21,-199.16"/>
<polygon fill="midnightblue" stroke="midnightblue" points="1813.94,-202.58 1823.1,-197.26 1812.61,-195.71 1813.94,-202.58"/>
</g>
<!-- Node47 -->
<g id="node47" class="node">
<title>Node47</title>
<g id="a_node47"><a xlink:title=" ">
<polygon fill="none" stroke="#bfbfbf" points="1904,-179.5 1904,-198.5 1977,-198.5 1977,-179.5 1904,-179.5"/>
<text text-anchor="middle" x="1940.5" y="-186.5" font-family="Helvetica,sans-Serif" font-size="10.00">sys/socket.h</text>
</a>
</g>
</g>
<!-- Node37&#45;&gt;Node47 -->
<g id="edge55" class="edge">
<title>Node37&#45;&gt;Node47</title>
<path fill="none" stroke="midnightblue" d="M1609.52,-236.15C1680.21,-228.4 1789.31,-215.55 1893.79,-199.01"/>
<polygon fill="midnightblue" stroke="midnightblue" points="1894.56,-202.43 1903.88,-197.4 1893.46,-195.52 1894.56,-202.43"/>
</g>
<!-- Node48 -->
<g id="node48" class="node">
<title>Node48</title>
<g id="a_node48"><a xlink:title=" ">
<polygon fill="none" stroke="#bfbfbf" points="1995.5,-179.5 1995.5,-198.5 2063.5,-198.5 2063.5,-179.5 1995.5,-179.5"/>
<text text-anchor="middle" x="2029.5" y="-186.5" font-family="Helvetica,sans-Serif" font-size="10.00">sys/types.h</text>
</a>
</g>
</g>
<!-- Node37&#45;&gt;Node48 -->
<g id="edge56" class="edge">
<title>Node37&#45;&gt;Node48</title>
<path fill="none" stroke="midnightblue" d="M1609.59,-239C1697.42,-232.59 1847.35,-219.92 1985.38,-199.02"/>
<polygon fill="midnightblue" stroke="midnightblue" points="1985.94,-202.48 1995.29,-197.5 1984.88,-195.56 1985.94,-202.48"/>
</g>
<!-- Node49 -->
<g id="node49" class="node">
<title>Node49</title>
<g id="a_node49"><a xlink:title=" ">
<polygon fill="none" stroke="#bfbfbf" points="2082,-179.5 2082,-198.5 2133,-198.5 2133,-179.5 2082,-179.5"/>
<text text-anchor="middle" x="2107.5" y="-186.5" font-family="Helvetica,sans-Serif" font-size="10.00">unistd.h</text>
</a>
</g>
</g>
<!-- Node37&#45;&gt;Node49 -->
<g id="edge57" class="edge">
<title>Node37&#45;&gt;Node49</title>
<path fill="none" stroke="midnightblue" d="M1609.85,-241.69C1712.37,-237.67 1901.55,-227.08 2072.08,-198.76"/>
<polygon fill="midnightblue" stroke="midnightblue" points="2072.71,-202.2 2081.99,-197.09 2071.55,-195.3 2072.71,-202.2"/>
</g>
<!-- Node51&#45;&gt;Node2 -->
<g id="edge61" class="edge">
<title>Node51&#45;&gt;Node2</title>
<path fill="none" stroke="midnightblue" d="M2028.08,-403.5C2085.01,-391.69 2161.5,-364.24 2161.5,-302 2161.5,-302 2161.5,-302 2161.5,-244 2161.5,-213.9 2166.18,-197.58 2142.5,-179 2100.27,-145.88 1318.4,-132.77 1069.16,-129.42"/>
<polygon fill="midnightblue" stroke="midnightblue" points="1069.15,-125.92 1059.1,-129.29 1069.06,-132.92 1069.15,-125.92"/>
</g>
</g>
</svg>
