<?xml version="1.0" encoding="UTF-8" standalone="no"?>
<!DOCTYPE svg PUBLIC "-//W3C//DTD SVG 1.1//EN"
 "http://www.w3.org/Graphics/SVG/1.1/DTD/svg11.dtd">
<!-- Generated by graphviz version 3.0.0 (20220226.1711)
 -->
<!-- Title: Utilities.hpp Pages: 1 -->
<svg width="1724pt" height="84pt"
 viewBox="0.00 0.00 1724.00 84.00" xmlns="http://www.w3.org/2000/svg" xmlns:xlink="http://www.w3.org/1999/xlink">
<g id="graph0" class="graph" transform="scale(1 1) rotate(0) translate(4 80)">
<title>Utilities.hpp</title>
<!-- Node1 -->
<g id="node1" class="node">
<title>Node1</title>
<g id="a_node1"><a xlink:title=" ">
<polygon fill="#bfbfbf" stroke="black" points="959.5,-56.5 959.5,-75.5 1027.5,-75.5 1027.5,-56.5 959.5,-56.5"/>
<text text-anchor="middle" x="993.5" y="-63.5" font-family="Helvetica,sans-Serif" font-size="10.00">Utilities.hpp</text>
</a>
</g>
</g>
<!-- Node2 -->
<g id="node2" class="node">
<title>Node2</title>
<g id="a_node2"><a xlink:title=" ">
<polygon fill="none" stroke="#bfbfbf" points="0,-0.5 0,-19.5 57,-19.5 57,-0.5 0,-0.5"/>
<text text-anchor="middle" x="28.5" y="-7.5" font-family="Helvetica,sans-Serif" font-size="10.00">pthread.h</text>
</a>
</g>
</g>
<!-- Node1&#45;&gt;Node2 -->
<g id="edge1" class="edge">
<title>Node1&#45;&gt;Node2</title>
<path fill="none" stroke="midnightblue" d="M959.15,-64.18C815.71,-60.63 263.32,-45.63 66.94,-19.71"/>
<polygon fill="midnightblue" stroke="midnightblue" points="67.41,-16.24 57.03,-18.35 66.46,-23.18 67.41,-16.24"/>
</g>
<!-- Node3 -->
<g id="node3" class="node">
<title>Node3</title>
<g id="a_node3"><a xlink:title=" ">
<polygon fill="none" stroke="#bfbfbf" points="75.5,-0.5 75.5,-19.5 137.5,-19.5 137.5,-0.5 75.5,-0.5"/>
<text text-anchor="middle" x="106.5" y="-7.5" font-family="Helvetica,sans-Serif" font-size="10.00">sys/time.h</text>
</a>
</g>
</g>
<!-- Node1&#45;&gt;Node3 -->
<g id="edge2" class="edge">
<title>Node1&#45;&gt;Node3</title>
<path fill="none" stroke="midnightblue" d="M959.42,-65.24C845.56,-65.61 467.98,-63.35 147.78,-19.94"/>
<polygon fill="midnightblue" stroke="midnightblue" points="148.23,-16.47 137.85,-18.58 147.28,-23.4 148.23,-16.47"/>
</g>
<!-- Node4 -->
<g id="node4" class="node">
<title>Node4</title>
<g id="a_node4"><a xlink:title=" ">
<polygon fill="none" stroke="#bfbfbf" points="155.5,-0.5 155.5,-19.5 199.5,-19.5 199.5,-0.5 155.5,-0.5"/>
<text text-anchor="middle" x="177.5" y="-7.5" font-family="Helvetica,sans-Serif" font-size="10.00">time.h</text>
</a>
</g>
</g>
<!-- Node1&#45;&gt;Node4 -->
<g id="edge3" class="edge">
<title>Node1&#45;&gt;Node4</title>
<path fill="none" stroke="midnightblue" d="M959.18,-64.06C830.41,-60.38 375.36,-45.94 209.73,-19.76"/>
<polygon fill="midnightblue" stroke="midnightblue" points="210.15,-16.28 199.71,-18.1 209,-23.19 210.15,-16.28"/>
</g>
<!-- Node5 -->
<g id="node5" class="node">
<title>Node5</title>
<g id="a_node5"><a xlink:title=" ">
<polygon fill="none" stroke="#bfbfbf" points="218,-0.5 218,-19.5 259,-19.5 259,-0.5 218,-0.5"/>
<text text-anchor="middle" x="238.5" y="-7.5" font-family="Helvetica,sans-Serif" font-size="10.00">ctime</text>
</a>
</g>
</g>
<!-- Node1&#45;&gt;Node5 -->
<g id="edge4" class="edge">
<title>Node1&#45;&gt;Node5</title>
<path fill="none" stroke="midnightblue" d="M959.21,-63.96C836.97,-60.09 422.11,-45.51 269.37,-19.88"/>
<polygon fill="midnightblue" stroke="midnightblue" points="269.72,-16.39 259.26,-18.09 268.5,-23.28 269.72,-16.39"/>
</g>
<!-- Node6 -->
<g id="node6" class="node">
<title>Node6</title>
<g id="a_node6"><a xlink:title=" ">
<polygon fill="none" stroke="#bfbfbf" points="277,-0.5 277,-19.5 370,-19.5 370,-0.5 277,-0.5"/>
<text text-anchor="middle" x="323.5" y="-7.5" font-family="Helvetica,sans-Serif" font-size="10.00">condition_variable</text>
</a>
</g>
</g>
<!-- Node1&#45;&gt;Node6 -->
<g id="edge5" class="edge">
<title>Node1&#45;&gt;Node6</title>
<path fill="none" stroke="midnightblue" d="M959.46,-63.54C867.72,-59.37 607.56,-46.12 380.32,-19.99"/>
<polygon fill="midnightblue" stroke="midnightblue" points="380.55,-16.49 370.21,-18.82 379.74,-23.45 380.55,-16.49"/>
</g>
<!-- Node7 -->
<g id="node7" class="node">
<title>Node7</title>
<g id="a_node7"><a xlink:title=" ">
<polygon fill="none" stroke="#bfbfbf" points="388.5,-0.5 388.5,-19.5 486.5,-19.5 486.5,-0.5 388.5,-0.5"/>
<text text-anchor="middle" x="437.5" y="-7.5" font-family="Helvetica,sans-Serif" font-size="10.00">nlohmann/json.hpp</text>
</a>
</g>
</g>
<!-- Node1&#45;&gt;Node7 -->
<g id="edge6" class="edge">
<title>Node1&#45;&gt;Node7</title>
<path fill="none" stroke="midnightblue" d="M959.31,-62.67C879.94,-57.09 676.85,-41.88 496.45,-20.04"/>
<polygon fill="midnightblue" stroke="midnightblue" points="496.87,-16.57 486.52,-18.83 496.02,-23.52 496.87,-16.57"/>
</g>
<!-- Node8 -->
<g id="node8" class="node">
<title>Node8</title>
<g id="a_node8"><a xlink:title=" ">
<polygon fill="none" stroke="#bfbfbf" points="505,-0.5 505,-19.5 590,-19.5 590,-0.5 505,-0.5"/>
<text text-anchor="middle" x="547.5" y="-7.5" font-family="Helvetica,sans-Serif" font-size="10.00">source_location</text>
</a>
</g>
</g>
<!-- Node1&#45;&gt;Node8 -->
<g id="edge7" class="edge">
<title>Node1&#45;&gt;Node8</title>
<path fill="none" stroke="midnightblue" d="M959.33,-61.82C892.36,-55.43 738.94,-40.04 600.02,-20.15"/>
<polygon fill="midnightblue" stroke="midnightblue" points="600.44,-16.67 590.05,-18.71 599.44,-23.6 600.44,-16.67"/>
</g>
<!-- Node9 -->
<g id="node9" class="node">
<title>Node9</title>
<g id="a_node9"><a xlink:title=" ">
<polygon fill="none" stroke="#bfbfbf" points="608,-0.5 608,-19.5 691,-19.5 691,-0.5 608,-0.5"/>
<text text-anchor="middle" x="649.5" y="-7.5" font-family="Helvetica,sans-Serif" font-size="10.00">unordered_map</text>
</a>
</g>
</g>
<!-- Node1&#45;&gt;Node9 -->
<g id="edge8" class="edge">
<title>Node1&#45;&gt;Node9</title>
<path fill="none" stroke="midnightblue" d="M959.18,-59.98C906.18,-52.18 800.99,-36.47 701.19,-20.08"/>
<polygon fill="midnightblue" stroke="midnightblue" points="701.67,-16.62 691.24,-18.44 700.53,-23.52 701.67,-16.62"/>
</g>
<!-- Node10 -->
<g id="node10" class="node">
<title>Node10</title>
<g id="a_node10"><a xlink:title=" ">
<polygon fill="none" stroke="#bfbfbf" points="709.5,-0.5 709.5,-19.5 787.5,-19.5 787.5,-0.5 709.5,-0.5"/>
<text text-anchor="middle" x="748.5" y="-7.5" font-family="Helvetica,sans-Serif" font-size="10.00">shared_mutex</text>
</a>
</g>
</g>
<!-- Node1&#45;&gt;Node10 -->
<g id="edge9" class="edge">
<title>Node1&#45;&gt;Node10</title>
<path fill="none" stroke="midnightblue" d="M959.43,-57.49C917.21,-48.18 844.96,-32.26 796.97,-21.68"/>
<polygon fill="midnightblue" stroke="midnightblue" points="797.64,-18.25 787.12,-19.51 796.13,-25.08 797.64,-18.25"/>
</g>
<!-- Node11 -->
<g id="node11" class="node">
<title>Node11</title>
<g id="a_node11"><a xlink:title=" ">
<polygon fill="none" stroke="#bfbfbf" points="805.5,-0.5 805.5,-19.5 863.5,-19.5 863.5,-0.5 805.5,-0.5"/>
<text text-anchor="middle" x="834.5" y="-7.5" font-family="Helvetica,sans-Serif" font-size="10.00">functional</text>
</a>
</g>
</g>
<!-- Node1&#45;&gt;Node11 -->
<g id="edge10" class="edge">
<title>Node1&#45;&gt;Node11</title>
<path fill="none" stroke="midnightblue" d="M968.31,-56.44C941.56,-47.36 899.1,-32.94 869.19,-22.78"/>
<polygon fill="midnightblue" stroke="midnightblue" points="870.17,-19.42 859.58,-19.52 867.92,-26.05 870.17,-19.42"/>
</g>
<!-- Node12 -->
<g id="node12" class="node">
<title>Node12</title>
<g id="a_node12"><a xlink:title=" ">
<polygon fill="none" stroke="#bfbfbf" points="882,-0.5 882,-19.5 947,-19.5 947,-0.5 882,-0.5"/>
<text text-anchor="middle" x="914.5" y="-7.5" font-family="Helvetica,sans-Serif" font-size="10.00">semaphore</text>
</a>
</g>
</g>
<!-- Node1&#45;&gt;Node12 -->
<g id="edge11" class="edge">
<title>Node1&#45;&gt;Node12</title>
<path fill="none" stroke="midnightblue" d="M980.81,-56.32C968.6,-47.98 949.92,-35.21 935.5,-25.35"/>
<polygon fill="midnightblue" stroke="midnightblue" points="937.39,-22.41 927.16,-19.65 933.44,-28.19 937.39,-22.41"/>
</g>
<!-- Node13 -->
<g id="node13" class="node">
<title>Node13</title>
<g id="a_node13"><a xlink:title=" ">
<polygon fill="none" stroke="#bfbfbf" points="965.5,-0.5 965.5,-19.5 1021.5,-19.5 1021.5,-0.5 965.5,-0.5"/>
<text text-anchor="middle" x="993.5" y="-7.5" font-family="Helvetica,sans-Serif" font-size="10.00">concepts</text>
</a>
</g>
</g>
<!-- Node1&#45;&gt;Node13 -->
<g id="edge12" class="edge">
<title>Node1&#45;&gt;Node13</title>
<path fill="none" stroke="midnightblue" d="M993.5,-56.08C993.5,-49.01 993.5,-38.86 993.5,-29.99"/>
<polygon fill="midnightblue" stroke="midnightblue" points="997,-29.75 993.5,-19.75 990,-29.75 997,-29.75"/>
</g>
<!-- Node14 -->
<g id="node14" class="node">
<title>Node14</title>
<g id="a_node14"><a xlink:title=" ">
<polygon fill="none" stroke="#bfbfbf" points="1039.5,-0.5 1039.5,-19.5 1093.5,-19.5 1093.5,-0.5 1039.5,-0.5"/>
<text text-anchor="middle" x="1066.5" y="-7.5" font-family="Helvetica,sans-Serif" font-size="10.00">iostream</text>
</a>
</g>
</g>
<!-- Node1&#45;&gt;Node14 -->
<g id="edge13" class="edge">
<title>Node1&#45;&gt;Node14</title>
<path fill="none" stroke="midnightblue" d="M1005.23,-56.32C1016.34,-48.11 1033.24,-35.6 1046.48,-25.81"/>
<polygon fill="midnightblue" stroke="midnightblue" points="1048.6,-28.59 1054.56,-19.83 1044.44,-22.97 1048.6,-28.59"/>
</g>
<!-- Node15 -->
<g id="node15" class="node">
<title>Node15</title>
<g id="a_node15"><a xlink:title=" ">
<polygon fill="none" stroke="#bfbfbf" points="1112,-0.5 1112,-19.5 1161,-19.5 1161,-0.5 1112,-0.5"/>
<text text-anchor="middle" x="1136.5" y="-7.5" font-family="Helvetica,sans-Serif" font-size="10.00">fstream</text>
</a>
</g>
</g>
<!-- Node1&#45;&gt;Node15 -->
<g id="edge14" class="edge">
<title>Node1&#45;&gt;Node15</title>
<path fill="none" stroke="midnightblue" d="M1016.16,-56.44C1039.9,-47.48 1077.41,-33.31 1104.24,-23.18"/>
<polygon fill="midnightblue" stroke="midnightblue" points="1105.83,-26.32 1113.95,-19.52 1103.36,-19.77 1105.83,-26.32"/>
</g>
<!-- Node16 -->
<g id="node16" class="node">
<title>Node16</title>
<g id="a_node16"><a xlink:title=" ">
<polygon fill="none" stroke="#bfbfbf" points="1179,-0.5 1179,-19.5 1220,-19.5 1220,-0.5 1179,-0.5"/>
<text text-anchor="middle" x="1199.5" y="-7.5" font-family="Helvetica,sans-Serif" font-size="10.00">bitset</text>
</a>
</g>
</g>
<!-- Node1&#45;&gt;Node16 -->
<g id="edge15" class="edge">
<title>Node1&#45;&gt;Node16</title>
<path fill="none" stroke="midnightblue" d="M1027.57,-56.89C1061.29,-48.75 1114.59,-35.55 1169.11,-20.29"/>
<polygon fill="midnightblue" stroke="midnightblue" points="1170.27,-23.6 1178.94,-17.52 1168.37,-16.87 1170.27,-23.6"/>
</g>
<!-- Node17 -->
<g id="node17" class="node">
<title>Node17</title>
<g id="a_node17"><a xlink:title=" ">
<polygon fill="none" stroke="#bfbfbf" points="1238.5,-0.5 1238.5,-19.5 1290.5,-19.5 1290.5,-0.5 1238.5,-0.5"/>
<text text-anchor="middle" x="1264.5" y="-7.5" font-family="Helvetica,sans-Serif" font-size="10.00">memory</text>
</a>
</g>
</g>
<!-- Node1&#45;&gt;Node17 -->
<g id="edge16" class="edge">
<title>Node1&#45;&gt;Node17</title>
<path fill="none" stroke="midnightblue" d="M1027.64,-59.19C1071.77,-51.53 1151.2,-37.21 1228.29,-20.16"/>
<polygon fill="midnightblue" stroke="midnightblue" points="1229.17,-23.55 1238.17,-17.96 1227.65,-16.72 1229.17,-23.55"/>
</g>
<!-- Node18 -->
<g id="node18" class="node">
<title>Node18</title>
<g id="a_node18"><a xlink:title=" ">
<polygon fill="none" stroke="#bfbfbf" points="1309,-0.5 1309,-19.5 1358,-19.5 1358,-0.5 1309,-0.5"/>
<text text-anchor="middle" x="1333.5" y="-7.5" font-family="Helvetica,sans-Serif" font-size="10.00">random</text>
</a>
</g>
</g>
<!-- Node1&#45;&gt;Node18 -->
<g id="edge17" class="edge">
<title>Node1&#45;&gt;Node18</title>
<path fill="none" stroke="midnightblue" d="M1027.68,-61.25C1082.69,-54.94 1194.4,-40.98 1298.63,-19.97"/>
<polygon fill="midnightblue" stroke="midnightblue" points="1299.6,-23.34 1308.69,-17.91 1298.2,-16.48 1299.6,-23.34"/>
</g>
<!-- Node19 -->
<g id="node19" class="node">
<title>Node19</title>
<g id="a_node19"><a xlink:title=" ">
<polygon fill="none" stroke="#bfbfbf" points="1376,-0.5 1376,-19.5 1417,-19.5 1417,-0.5 1376,-0.5"/>
<text text-anchor="middle" x="1396.5" y="-7.5" font-family="Helvetica,sans-Serif" font-size="10.00">string</text>
</a>
</g>
</g>
<!-- Node1&#45;&gt;Node19 -->
<g id="edge18" class="edge">
<title>Node1&#45;&gt;Node19</title>
<path fill="none" stroke="midnightblue" d="M1027.62,-62.97C1092.1,-58.69 1236.33,-47 1365.64,-20.08"/>
<polygon fill="midnightblue" stroke="midnightblue" points="1366.65,-23.44 1375.71,-17.95 1365.2,-16.6 1366.65,-23.44"/>
</g>
<!-- Node20 -->
<g id="node20" class="node">
<title>Node20</title>
<g id="a_node20"><a xlink:title=" ">
<polygon fill="none" stroke="#bfbfbf" points="1435.5,-0.5 1435.5,-19.5 1477.5,-19.5 1477.5,-0.5 1435.5,-0.5"/>
<text text-anchor="middle" x="1456.5" y="-7.5" font-family="Helvetica,sans-Serif" font-size="10.00">vector</text>
</a>
</g>
</g>
<!-- Node1&#45;&gt;Node20 -->
<g id="edge19" class="edge">
<title>Node1&#45;&gt;Node20</title>
<path fill="none" stroke="midnightblue" d="M1027.51,-63.64C1099.41,-60.3 1272.13,-49.83 1425.26,-19.89"/>
<polygon fill="midnightblue" stroke="midnightblue" points="1426.19,-23.27 1435.32,-17.89 1424.83,-16.41 1426.19,-23.27"/>
</g>
<!-- Node21 -->
<g id="node21" class="node">
<title>Node21</title>
<g id="a_node21"><a xlink:title=" ">
<polygon fill="none" stroke="#bfbfbf" points="1495.5,-0.5 1495.5,-19.5 1539.5,-19.5 1539.5,-0.5 1495.5,-0.5"/>
<text text-anchor="middle" x="1517.5" y="-7.5" font-family="Helvetica,sans-Serif" font-size="10.00">thread</text>
</a>
</g>
</g>
<!-- Node1&#45;&gt;Node21 -->
<g id="edge20" class="edge">
<title>Node1&#45;&gt;Node21</title>
<path fill="none" stroke="midnightblue" d="M1027.58,-64.13C1106.6,-61.64 1308.44,-52.55 1485.27,-19.88"/>
<polygon fill="midnightblue" stroke="midnightblue" points="1486.09,-23.29 1495.27,-18.01 1484.8,-16.41 1486.09,-23.29"/>
</g>
<!-- Node22 -->
<g id="node22" class="node">
<title>Node22</title>
<g id="a_node22"><a xlink:title=" ">
<polygon fill="none" stroke="#bfbfbf" points="1557.5,-0.5 1557.5,-19.5 1601.5,-19.5 1601.5,-0.5 1557.5,-0.5"/>
<text text-anchor="middle" x="1579.5" y="-7.5" font-family="Helvetica,sans-Serif" font-size="10.00">mutex</text>
</a>
</g>
</g>
<!-- Node1&#45;&gt;Node22 -->
<g id="edge21" class="edge">
<title>Node1&#45;&gt;Node22</title>
<path fill="none" stroke="midnightblue" d="M1027.6,-64.62C1113.54,-63.15 1345.94,-56.05 1547.4,-19.84"/>
<polygon fill="midnightblue" stroke="midnightblue" points="1548.07,-23.27 1557.28,-18.03 1546.81,-16.39 1548.07,-23.27"/>
</g>
<!-- Node23 -->
<g id="node23" class="node">
<title>Node23</title>
<g id="a_node23"><a xlink:title=" ">
<polygon fill="none" stroke="#bfbfbf" points="1620,-0.5 1620,-19.5 1663,-19.5 1663,-0.5 1620,-0.5"/>
<text text-anchor="middle" x="1641.5" y="-7.5" font-family="Helvetica,sans-Serif" font-size="10.00">queue</text>
</a>
</g>
</g>
<!-- Node1&#45;&gt;Node23 -->
<g id="edge22" class="edge">
<title>Node1&#45;&gt;Node23</title>
<path fill="none" stroke="midnightblue" d="M1027.59,-65.01C1120,-64.51 1383.03,-59.58 1609.87,-19.68"/>
<polygon fill="midnightblue" stroke="midnightblue" points="1610.73,-23.08 1619.96,-17.88 1609.5,-16.19 1610.73,-23.08"/>
</g>
<!-- Node24 -->
<g id="node24" class="node">
<title>Node24</title>
<g id="a_node24"><a xlink:title=" ">
<polygon fill="none" stroke="#bfbfbf" points="1681,-0.5 1681,-19.5 1716,-19.5 1716,-0.5 1681,-0.5"/>
<text text-anchor="middle" x="1698.5" y="-7.5" font-family="Helvetica,sans-Serif" font-size="10.00">map</text>
</a>
</g>
</g>
<!-- Node1&#45;&gt;Node24 -->
<g id="edge23" class="edge">
<title>Node1&#45;&gt;Node24</title>
<path fill="none" stroke="midnightblue" d="M1027.64,-63.94C1144.46,-60.14 1528.43,-46.08 1670.94,-19.75"/>
<polygon fill="midnightblue" stroke="midnightblue" points="1671.63,-23.19 1680.77,-17.84 1670.29,-16.31 1671.63,-23.19"/>
</g>
</g>
</svg>
