<?xml version="1.0" encoding="UTF-8" standalone="no"?>
<!DOCTYPE svg PUBLIC "-//W3C//DTD SVG 1.1//EN"
 "http://www.w3.org/Graphics/SVG/1.1/DTD/svg11.dtd">
<!-- Generated by graphviz version 2.43.0 (0)
 -->
<!-- Title: UserEntities.hpp Pages: 1 -->
<svg width="1779pt" height="420pt"
 viewBox="0.00 0.00 1778.50 420.00" xmlns="http://www.w3.org/2000/svg" xmlns:xlink="http://www.w3.org/1999/xlink">
<g id="graph0" class="graph" transform="scale(1 1) rotate(0) translate(4 416)">
<title>UserEntities.hpp</title>
<!-- Node1 -->
<g id="node1" class="node">
<title>Node1</title>
<g id="a_node1"><a xlink:title=" ">
<polygon fill="#bfbfbf" stroke="black" points="1251,-392.5 1251,-411.5 1348,-411.5 1348,-392.5 1251,-392.5"/>
<text text-anchor="middle" x="1299.5" y="-399.5" font-family="Helvetica,sans-Serif" font-size="10.00">UserEntities.hpp</text>
</a>
</g>
</g>
<!-- Node2 -->
<g id="node2" class="node">
<title>Node2</title>
<g id="a_node2"><a xlink:href="../../df/dbb/a00698.html" target="_top" xlink:title=" ">
<polygon fill="none" stroke="black" points="740,-112.5 740,-131.5 865,-131.5 865,-112.5 740,-112.5"/>
<text text-anchor="middle" x="802.5" y="-119.5" font-family="Helvetica,sans-Serif" font-size="10.00">DiscordCoreClient.hpp</text>
</a>
</g>
</g>
<!-- Node1&#45;&gt;Node2 -->
<g id="edge1" class="edge">
<title>Node1&#45;&gt;Node2</title>
<path fill="none" stroke="midnightblue" d="M1240.74,-399.43C1050.93,-393.57 466.5,-369.2 466.5,-291 466.5,-291 466.5,-291 466.5,-233 466.5,-202.9 462.75,-187.7 485.5,-168 522.48,-135.98 658.44,-126.72 739.81,-124.06"/>
<polygon fill="midnightblue" stroke="midnightblue" points="1240.71,-402.93 1250.81,-399.73 1240.92,-395.93 1240.71,-402.93"/>
</g>
<!-- Node5 -->
<g id="node5" class="node">
<title>Node5</title>
<g id="a_node5"><a xlink:href="../../da/d96/a00782.html" target="_top" xlink:title=" ">
<polygon fill="none" stroke="black" points="0,-56.5 0,-75.5 179,-75.5 179,-56.5 0,-56.5"/>
<text text-anchor="middle" x="89.5" y="-63.5" font-family="Helvetica,sans-Serif" font-size="10.00">ApplicationCommandEntities.cpp</text>
</a>
</g>
</g>
<!-- Node1&#45;&gt;Node5 -->
<g id="edge51" class="edge">
<title>Node1&#45;&gt;Node5</title>
<path fill="none" stroke="midnightblue" d="M1240.49,-400.82C1024.21,-399.41 287.5,-387.5 287.5,-291 287.5,-291 287.5,-291 287.5,-177 287.5,-114.57 211.36,-87.27 153.51,-75.54"/>
<polygon fill="midnightblue" stroke="midnightblue" points="1240.67,-404.32 1250.69,-400.88 1240.71,-397.32 1240.67,-404.32"/>
</g>
<!-- Node8 -->
<g id="node8" class="node">
<title>Node8</title>
<g id="a_node8"><a xlink:href="../../d3/d60/a00818.html" target="_top" xlink:title=" ">
<polygon fill="none" stroke="black" points="1380,-56.5 1380,-75.5 1479,-75.5 1479,-56.5 1380,-56.5"/>
<text text-anchor="middle" x="1429.5" y="-63.5" font-family="Helvetica,sans-Serif" font-size="10.00">GuildEntities.cpp</text>
</a>
</g>
</g>
<!-- Node1&#45;&gt;Node8 -->
<g id="edge54" class="edge">
<title>Node1&#45;&gt;Node8</title>
<path fill="none" stroke="midnightblue" d="M1358.27,-394.62C1457.25,-382.24 1646.5,-350.74 1646.5,-291 1646.5,-291 1646.5,-291 1646.5,-177 1646.5,-102.35 1543.06,-78.34 1479.01,-70.64"/>
<polygon fill="midnightblue" stroke="midnightblue" points="1357.61,-391.18 1348.11,-395.87 1358.47,-398.13 1357.61,-391.18"/>
</g>
<!-- Node16 -->
<g id="node16" class="node">
<title>Node16</title>
<g id="a_node16"><a xlink:href="../../d1/d56/a00707.html" target="_top" xlink:title=" ">
<polygon fill="none" stroke="black" points="495,-168.5 495,-187.5 602,-187.5 602,-168.5 495,-168.5"/>
<text text-anchor="middle" x="548.5" y="-175.5" font-family="Helvetica,sans-Serif" font-size="10.00">EventManager.hpp</text>
</a>
</g>
</g>
<!-- Node1&#45;&gt;Node16 -->
<g id="edge15" class="edge">
<title>Node1&#45;&gt;Node16</title>
<path fill="none" stroke="midnightblue" d="M1240.62,-400.31C1127.52,-397.08 873.91,-380.61 679.5,-300 632.45,-280.49 614.32,-281.18 579.5,-244 563.77,-227.21 554.64,-200.98 550.75,-187.55"/>
<polygon fill="midnightblue" stroke="midnightblue" points="1240.7,-403.81 1250.79,-400.57 1240.89,-396.81 1240.7,-403.81"/>
</g>
<!-- Node17 -->
<g id="node17" class="node">
<title>Node17</title>
<g id="a_node17"><a xlink:href="../../d2/d94/a00716.html" target="_top" xlink:title=" ">
<polygon fill="none" stroke="black" points="1037.5,-336.5 1037.5,-355.5 1177.5,-355.5 1177.5,-336.5 1037.5,-336.5"/>
<text text-anchor="middle" x="1107.5" y="-343.5" font-family="Helvetica,sans-Serif" font-size="10.00">GuildMemberEntities.hpp</text>
</a>
</g>
</g>
<!-- Node1&#45;&gt;Node17 -->
<g id="edge19" class="edge">
<title>Node1&#45;&gt;Node17</title>
<path fill="none" stroke="midnightblue" d="M1259.32,-389.7C1223.08,-379.51 1170.59,-364.74 1137.78,-355.52"/>
<polygon fill="midnightblue" stroke="midnightblue" points="1258.5,-393.11 1269.08,-392.44 1260.4,-386.37 1258.5,-393.11"/>
</g>
<!-- Node20 -->
<g id="node20" class="node">
<title>Node20</title>
<g id="a_node20"><a xlink:href="../../df/d0e/a00800.html" target="_top" xlink:title=" ">
<polygon fill="none" stroke="black" points="1236.5,-168.5 1236.5,-187.5 1378.5,-187.5 1378.5,-168.5 1236.5,-168.5"/>
<text text-anchor="middle" x="1307.5" y="-175.5" font-family="Helvetica,sans-Serif" font-size="10.00">DataParsingFunctions.cpp</text>
</a>
</g>
</g>
<!-- Node1&#45;&gt;Node20 -->
<g id="edge52" class="edge">
<title>Node1&#45;&gt;Node20</title>
<path fill="none" stroke="midnightblue" d="M1300.17,-382.3C1301.82,-336.64 1305.99,-220.85 1307.18,-187.88"/>
<polygon fill="midnightblue" stroke="midnightblue" points="1296.68,-382.18 1299.81,-392.3 1303.67,-382.43 1296.68,-382.18"/>
</g>
<!-- Node21 -->
<g id="node21" class="node">
<title>Node21</title>
<g id="a_node21"><a xlink:href="../../d8/d2d/a00815.html" target="_top" xlink:title=" ">
<polygon fill="none" stroke="black" points="1396.5,-168.5 1396.5,-187.5 1524.5,-187.5 1524.5,-168.5 1396.5,-168.5"/>
<text text-anchor="middle" x="1460.5" y="-175.5" font-family="Helvetica,sans-Serif" font-size="10.00">FoundationEntities.cpp</text>
</a>
</g>
</g>
<!-- Node1&#45;&gt;Node21 -->
<g id="edge53" class="edge">
<title>Node1&#45;&gt;Node21</title>
<path fill="none" stroke="midnightblue" d="M1311.83,-384C1344.03,-339.6 1429.84,-221.27 1454.06,-187.88"/>
<polygon fill="midnightblue" stroke="midnightblue" points="1308.85,-382.15 1305.81,-392.3 1314.52,-386.26 1308.85,-382.15"/>
</g>
<!-- Node23 -->
<g id="node23" class="node">
<title>Node23</title>
<g id="a_node23"><a xlink:href="../../d3/db2/a00869.html" target="_top" xlink:title=" ">
<polygon fill="none" stroke="black" points="1543,-168.5 1543,-187.5 1618,-187.5 1618,-168.5 1543,-168.5"/>
<text text-anchor="middle" x="1580.5" y="-175.5" font-family="Helvetica,sans-Serif" font-size="10.00">Utilities.cpp</text>
</a>
</g>
</g>
<!-- Node1&#45;&gt;Node23 -->
<g id="edge56" class="edge">
<title>Node1&#45;&gt;Node23</title>
<path fill="none" stroke="midnightblue" d="M1318.63,-385.89C1372.97,-342.95 1527.11,-221.18 1569.56,-187.64"/>
<polygon fill="midnightblue" stroke="midnightblue" points="1316.19,-383.35 1310.52,-392.3 1320.53,-388.84 1316.19,-383.35"/>
</g>
<!-- Node26 -->
<g id="node26" class="node">
<title>Node26</title>
<g id="a_node26"><a xlink:href="../../dd/db2/a00737.html" target="_top" xlink:title=" ">
<polygon fill="none" stroke="black" points="657,-224.5 657,-243.5 774,-243.5 774,-224.5 657,-224.5"/>
<text text-anchor="middle" x="715.5" y="-231.5" font-family="Helvetica,sans-Serif" font-size="10.00">ReactionEntities.hpp</text>
</a>
</g>
</g>
<!-- Node1&#45;&gt;Node26 -->
<g id="edge46" class="edge">
<title>Node1&#45;&gt;Node26</title>
<path fill="none" stroke="midnightblue" d="M1240.68,-399.9C1141.84,-395.83 938.53,-377.8 788.5,-300 760.48,-285.47 734.64,-257.74 722.6,-243.66"/>
<polygon fill="midnightblue" stroke="midnightblue" points="1240.65,-403.4 1250.78,-400.28 1240.91,-396.41 1240.65,-403.4"/>
</g>
<!-- Node28 -->
<g id="node28" class="node">
<title>Node28</title>
<g id="a_node28"><a xlink:href="../../dd/db2/a00866.html" target="_top" xlink:title=" ">
<polygon fill="none" stroke="black" points="1674.5,-336.5 1674.5,-355.5 1770.5,-355.5 1770.5,-336.5 1674.5,-336.5"/>
<text text-anchor="middle" x="1722.5" y="-343.5" font-family="Helvetica,sans-Serif" font-size="10.00">UserEntities.cpp</text>
</a>
</g>
</g>
<!-- Node1&#45;&gt;Node28 -->
<g id="edge55" class="edge">
<title>Node1&#45;&gt;Node28</title>
<path fill="none" stroke="midnightblue" d="M1358.16,-394.06C1429.62,-385.51 1554.01,-370.36 1660.5,-356 1665.03,-355.39 1669.74,-354.74 1674.45,-354.07"/>
<polygon fill="midnightblue" stroke="midnightblue" points="1357.52,-390.61 1348,-395.27 1358.35,-397.56 1357.52,-390.61"/>
</g>
<!-- Node3 -->
<g id="node3" class="node">
<title>Node3</title>
<g id="a_node3"><a xlink:href="../../d8/db9/a00725.html" target="_top" xlink:title=" ">
<polygon fill="none" stroke="black" points="714,-56.5 714,-75.5 779,-75.5 779,-56.5 714,-56.5"/>
<text text-anchor="middle" x="746.5" y="-63.5" font-family="Helvetica,sans-Serif" font-size="10.00">Index.hpp</text>
</a>
</g>
</g>
<!-- Node2&#45;&gt;Node3 -->
<g id="edge2" class="edge">
<title>Node2&#45;&gt;Node3</title>
<path fill="none" stroke="midnightblue" d="M786.17,-105.25C776.24,-95.67 763.91,-83.79 755.66,-75.83"/>
<polygon fill="midnightblue" stroke="midnightblue" points="783.87,-107.9 793.5,-112.32 788.73,-102.86 783.87,-107.9"/>
</g>
<!-- Node2&#45;&gt;Node5 -->
<g id="edge4" class="edge">
<title>Node2&#45;&gt;Node5</title>
<path fill="none" stroke="midnightblue" d="M729.5,-116.1C614.28,-108.26 383.24,-92.15 187.5,-76 184.78,-75.78 182.01,-75.54 179.22,-75.31"/>
<polygon fill="midnightblue" stroke="midnightblue" points="729.4,-119.6 739.61,-116.78 729.87,-112.62 729.4,-119.6"/>
</g>
<!-- Node6 -->
<g id="node6" class="node">
<title>Node6</title>
<g id="a_node6"><a xlink:href="../../d5/d72/a00803.html" target="_top" xlink:title=" ">
<polygon fill="none" stroke="black" points="797,-56.5 797,-75.5 922,-75.5 922,-56.5 797,-56.5"/>
<text text-anchor="middle" x="859.5" y="-63.5" font-family="Helvetica,sans-Serif" font-size="10.00">DiscordCoreClient.cpp</text>
</a>
</g>
</g>
<!-- Node2&#45;&gt;Node6 -->
<g id="edge5" class="edge">
<title>Node2&#45;&gt;Node6</title>
<path fill="none" stroke="midnightblue" d="M819.12,-105.25C829.23,-95.67 841.78,-83.79 850.18,-75.83"/>
<polygon fill="midnightblue" stroke="midnightblue" points="816.51,-102.91 811.66,-112.32 821.32,-107.99 816.51,-102.91"/>
</g>
<!-- Node7 -->
<g id="node7" class="node">
<title>Node7</title>
<g id="a_node7"><a xlink:href="../../d8/db7/a00812.html" target="_top" xlink:title=" ">
<polygon fill="none" stroke="black" points="197,-56.5 197,-75.5 304,-75.5 304,-56.5 197,-56.5"/>
<text text-anchor="middle" x="250.5" y="-63.5" font-family="Helvetica,sans-Serif" font-size="10.00">EventManager.cpp</text>
</a>
</g>
</g>
<!-- Node2&#45;&gt;Node7 -->
<g id="edge6" class="edge">
<title>Node2&#45;&gt;Node7</title>
<path fill="none" stroke="midnightblue" d="M729.57,-115.51C633.74,-108.01 460.24,-93.5 312.5,-76 309.8,-75.68 307.04,-75.34 304.25,-74.98"/>
<polygon fill="midnightblue" stroke="midnightblue" points="729.49,-119.01 739.74,-116.3 730.04,-112.03 729.49,-119.01"/>
</g>
<!-- Node2&#45;&gt;Node8 -->
<g id="edge7" class="edge">
<title>Node2&#45;&gt;Node8</title>
<path fill="none" stroke="midnightblue" d="M875.55,-116.98C984.01,-110.62 1193.92,-96.77 1371.5,-76 1374.23,-75.68 1377.03,-75.33 1379.86,-74.95"/>
<polygon fill="midnightblue" stroke="midnightblue" points="875.16,-113.5 865.38,-117.57 875.56,-120.49 875.16,-113.5"/>
</g>
<!-- Node9 -->
<g id="node9" class="node">
<title>Node9</title>
<g id="a_node9"><a xlink:href="../../dc/d1b/a00827.html" target="_top" xlink:title=" ">
<polygon fill="none" stroke="black" points="940,-56.5 940,-75.5 1003,-75.5 1003,-56.5 940,-56.5"/>
<text text-anchor="middle" x="971.5" y="-63.5" font-family="Helvetica,sans-Serif" font-size="10.00">Https.cpp</text>
</a>
</g>
</g>
<!-- Node2&#45;&gt;Node9 -->
<g id="edge8" class="edge">
<title>Node2&#45;&gt;Node9</title>
<path fill="none" stroke="midnightblue" d="M839.1,-109.3C870.95,-99.13 916.34,-84.62 944.85,-75.52"/>
<polygon fill="midnightblue" stroke="midnightblue" points="837.74,-106.07 829.28,-112.44 839.87,-112.73 837.74,-106.07"/>
</g>
<!-- Node10 -->
<g id="node10" class="node">
<title>Node10</title>
<g id="a_node10"><a xlink:href="../../d3/d13/a00836.html" target="_top" xlink:title=" ">
<polygon fill="none" stroke="black" points="1021,-56.5 1021,-75.5 1138,-75.5 1138,-56.5 1021,-56.5"/>
<text text-anchor="middle" x="1079.5" y="-63.5" font-family="Helvetica,sans-Serif" font-size="10.00">MessageEntities.cpp</text>
</a>
</g>
</g>
<!-- Node2&#45;&gt;Node10 -->
<g id="edge9" class="edge">
<title>Node2&#45;&gt;Node10</title>
<path fill="none" stroke="midnightblue" d="M856.5,-110.47C908.85,-100.27 987.27,-84.98 1035.81,-75.52"/>
<polygon fill="midnightblue" stroke="midnightblue" points="855.54,-107.09 846.39,-112.44 856.88,-113.97 855.54,-107.09"/>
</g>
<!-- Node11 -->
<g id="node11" class="node">
<title>Node11</title>
<g id="a_node11"><a xlink:href="../../d7/dcf/a00845.html" target="_top" xlink:title=" ">
<polygon fill="none" stroke="black" points="1285,-56.5 1285,-75.5 1362,-75.5 1362,-56.5 1285,-56.5"/>
<text text-anchor="middle" x="1323.5" y="-63.5" font-family="Helvetica,sans-Serif" font-size="10.00">SongAPI.cpp</text>
</a>
</g>
</g>
<!-- Node2&#45;&gt;Node11 -->
<g id="edge10" class="edge">
<title>Node2&#45;&gt;Node11</title>
<path fill="none" stroke="midnightblue" d="M875.41,-114.88C988.31,-105.26 1200.25,-86.61 1275.5,-76 1278.52,-75.57 1281.64,-75.09 1284.78,-74.57"/>
<polygon fill="midnightblue" stroke="midnightblue" points="874.8,-111.42 865.13,-115.75 875.39,-118.39 874.8,-111.42"/>
</g>
<!-- Node12 -->
<g id="node12" class="node">
<title>Node12</title>
<g id="a_node12"><a xlink:href="../../d9/d30/a00848.html" target="_top" xlink:title=" ">
<polygon fill="none" stroke="black" points="1156.5,-56.5 1156.5,-75.5 1266.5,-75.5 1266.5,-56.5 1156.5,-56.5"/>
<text text-anchor="middle" x="1211.5" y="-63.5" font-family="Helvetica,sans-Serif" font-size="10.00">SoundCloudAPI.cpp</text>
</a>
</g>
</g>
<!-- Node2&#45;&gt;Node12 -->
<g id="edge11" class="edge">
<title>Node2&#45;&gt;Node12</title>
<path fill="none" stroke="midnightblue" d="M875.18,-111.73C945.02,-102.78 1053.51,-88.74 1147.5,-76 1150.39,-75.61 1153.35,-75.2 1156.35,-74.79"/>
<polygon fill="midnightblue" stroke="midnightblue" points="874.64,-108.28 865.16,-113.02 875.53,-115.22 874.64,-108.28"/>
</g>
<!-- Node13 -->
<g id="node13" class="node">
<title>Node13</title>
<g id="a_node13"><a xlink:href="../../dc/d17/a00872.html" target="_top" xlink:title=" ">
<polygon fill="none" stroke="black" points="467.5,-56.5 467.5,-75.5 585.5,-75.5 585.5,-56.5 467.5,-56.5"/>
<text text-anchor="middle" x="526.5" y="-63.5" font-family="Helvetica,sans-Serif" font-size="10.00">VoiceConnection.cpp</text>
</a>
</g>
</g>
<!-- Node2&#45;&gt;Node13 -->
<g id="edge12" class="edge">
<title>Node2&#45;&gt;Node13</title>
<path fill="none" stroke="midnightblue" d="M748.7,-110.47C696.54,-100.27 618.39,-84.98 570.03,-75.52"/>
<polygon fill="midnightblue" stroke="midnightblue" points="748.28,-113.96 758.77,-112.44 749.63,-107.09 748.28,-113.96"/>
</g>
<!-- Node14 -->
<g id="node14" class="node">
<title>Node14</title>
<g id="a_node14"><a xlink:href="../../d5/d69/a00878.html" target="_top" xlink:title=" ">
<polygon fill="none" stroke="black" points="322,-56.5 322,-75.5 449,-75.5 449,-56.5 322,-56.5"/>
<text text-anchor="middle" x="385.5" y="-63.5" font-family="Helvetica,sans-Serif" font-size="10.00">WebSocketEntities.cpp</text>
</a>
</g>
</g>
<!-- Node2&#45;&gt;Node14 -->
<g id="edge13" class="edge">
<title>Node2&#45;&gt;Node14</title>
<path fill="none" stroke="midnightblue" d="M729.22,-111.51C649.89,-101.24 524.63,-85.02 449.24,-75.25"/>
<polygon fill="midnightblue" stroke="midnightblue" points="729.25,-115.04 739.62,-112.86 730.15,-108.1 729.25,-115.04"/>
</g>
<!-- Node15 -->
<g id="node15" class="node">
<title>Node15</title>
<g id="a_node15"><a xlink:href="../../df/d41/a00881.html" target="_top" xlink:title=" ">
<polygon fill="none" stroke="black" points="603.5,-56.5 603.5,-75.5 695.5,-75.5 695.5,-56.5 603.5,-56.5"/>
<text text-anchor="middle" x="649.5" y="-63.5" font-family="Helvetica,sans-Serif" font-size="10.00">YouTubeAPI.cpp</text>
</a>
</g>
</g>
<!-- Node2&#45;&gt;Node15 -->
<g id="edge14" class="edge">
<title>Node2&#45;&gt;Node15</title>
<path fill="none" stroke="midnightblue" d="M768.61,-109.04C739.82,-98.88 699.21,-84.55 673.63,-75.52"/>
<polygon fill="midnightblue" stroke="midnightblue" points="767.66,-112.42 778.26,-112.44 769.99,-105.81 767.66,-112.42"/>
</g>
<!-- Node4 -->
<g id="node4" class="node">
<title>Node4</title>
<g id="a_node4"><a xlink:href="../../d0/dad/a00806.html" target="_top" xlink:title=" ">
<polygon fill="none" stroke="black" points="709.5,-0.5 709.5,-19.5 783.5,-19.5 783.5,-0.5 709.5,-0.5"/>
<text text-anchor="middle" x="746.5" y="-7.5" font-family="Helvetica,sans-Serif" font-size="10.00">DllMain.cpp</text>
</a>
</g>
</g>
<!-- Node3&#45;&gt;Node4 -->
<g id="edge3" class="edge">
<title>Node3&#45;&gt;Node4</title>
<path fill="none" stroke="midnightblue" d="M746.5,-45.8C746.5,-36.91 746.5,-26.78 746.5,-19.75"/>
<polygon fill="midnightblue" stroke="midnightblue" points="743,-46.08 746.5,-56.08 750,-46.08 743,-46.08"/>
</g>
<!-- Node16&#45;&gt;Node2 -->
<g id="edge16" class="edge">
<title>Node16&#45;&gt;Node2</title>
<path fill="none" stroke="midnightblue" d="M598.62,-166.35C646.62,-156.14 718.12,-140.94 762.44,-131.52"/>
<polygon fill="midnightblue" stroke="midnightblue" points="597.8,-162.94 588.75,-168.44 599.26,-169.79 597.8,-162.94"/>
</g>
<!-- Node16&#45;&gt;Node7 -->
<g id="edge17" class="edge">
<title>Node16&#45;&gt;Node7</title>
<path fill="none" stroke="midnightblue" d="M515.62,-164.86C454.88,-142.44 326.44,-95.03 273.77,-75.59"/>
<polygon fill="midnightblue" stroke="midnightblue" points="514.52,-168.19 525.12,-168.37 516.95,-161.62 514.52,-168.19"/>
</g>
<!-- Node16&#45;&gt;Node14 -->
<g id="edge18" class="edge">
<title>Node16&#45;&gt;Node14</title>
<path fill="none" stroke="midnightblue" d="M527.33,-162.71C492.98,-139.53 426.15,-94.43 398.23,-75.59"/>
<polygon fill="midnightblue" stroke="midnightblue" points="525.46,-165.68 535.71,-168.37 529.38,-159.87 525.46,-165.68"/>
</g>
<!-- Node17&#45;&gt;Node2 -->
<g id="edge20" class="edge">
<title>Node17&#45;&gt;Node2</title>
<path fill="none" stroke="midnightblue" d="M1027.1,-336.92C971.25,-329.87 902.97,-317.92 880.5,-300 824.06,-254.98 807.4,-160.73 803.52,-131.7"/>
<polygon fill="midnightblue" stroke="midnightblue" points="1027.01,-340.44 1037.37,-338.18 1027.87,-333.49 1027.01,-340.44"/>
</g>
<!-- Node17&#45;&gt;Node16 -->
<g id="edge21" class="edge">
<title>Node17&#45;&gt;Node16</title>
<path fill="none" stroke="midnightblue" d="M1027.07,-337.22C962.18,-330.09 868.82,-317.9 788.5,-300 705.9,-281.59 677.73,-289.7 606.5,-244 582.82,-228.81 562.93,-201.38 553.83,-187.52"/>
<polygon fill="midnightblue" stroke="midnightblue" points="1026.91,-340.72 1037.23,-338.32 1027.67,-333.76 1026.91,-340.72"/>
</g>
<!-- Node18 -->
<g id="node18" class="node">
<title>Node18</title>
<g id="a_node18"><a xlink:href="../../dc/dce/a00740.html" target="_top" xlink:title=" ">
<polygon fill="none" stroke="black" points="1059.5,-280.5 1059.5,-299.5 1155.5,-299.5 1155.5,-280.5 1059.5,-280.5"/>
<text text-anchor="middle" x="1107.5" y="-287.5" font-family="Helvetica,sans-Serif" font-size="10.00">RoleEntities.hpp</text>
</a>
</g>
</g>
<!-- Node17&#45;&gt;Node18 -->
<g id="edge22" class="edge">
<title>Node17&#45;&gt;Node18</title>
<path fill="none" stroke="midnightblue" d="M1107.5,-325.8C1107.5,-316.91 1107.5,-306.78 1107.5,-299.75"/>
<polygon fill="midnightblue" stroke="midnightblue" points="1104,-326.08 1107.5,-336.08 1111,-326.08 1104,-326.08"/>
</g>
<!-- Node17&#45;&gt;Node20 -->
<g id="edge42" class="edge">
<title>Node17&#45;&gt;Node20</title>
<path fill="none" stroke="midnightblue" d="M1126.57,-330C1137.65,-321.26 1151.88,-310.03 1164.5,-300 1195.69,-275.21 1204.06,-269.7 1234.5,-244 1257.84,-224.3 1284.45,-200.17 1298.19,-187.58"/>
<polygon fill="midnightblue" stroke="midnightblue" points="1124.13,-327.46 1118.44,-336.39 1128.47,-332.96 1124.13,-327.46"/>
</g>
<!-- Node17&#45;&gt;Node21 -->
<g id="edge43" class="edge">
<title>Node17&#45;&gt;Node21</title>
<path fill="none" stroke="midnightblue" d="M1135.41,-331.87C1204.92,-299.19 1384.32,-214.83 1442.2,-187.61"/>
<polygon fill="midnightblue" stroke="midnightblue" points="1133.54,-328.89 1125.98,-336.31 1136.52,-335.22 1133.54,-328.89"/>
</g>
<!-- Node22 -->
<g id="node22" class="node">
<title>Node22</title>
<g id="a_node22"><a xlink:href="../../d6/d8b/a00821.html" target="_top" xlink:title=" ">
<polygon fill="none" stroke="black" points="1040.5,-168.5 1040.5,-187.5 1180.5,-187.5 1180.5,-168.5 1040.5,-168.5"/>
<text text-anchor="middle" x="1110.5" y="-175.5" font-family="Helvetica,sans-Serif" font-size="10.00">GuildMemberEntities.cpp</text>
</a>
</g>
</g>
<!-- Node17&#45;&gt;Node22 -->
<g id="edge44" class="edge">
<title>Node17&#45;&gt;Node22</title>
<path fill="none" stroke="midnightblue" d="M1048.35,-334.37C971.25,-317.94 851.46,-282.07 898.5,-224 916.23,-202.11 985.76,-190.43 1040.42,-184.51"/>
<polygon fill="midnightblue" stroke="midnightblue" points="1047.96,-337.86 1058.46,-336.46 1049.38,-331 1047.96,-337.86"/>
</g>
<!-- Node17&#45;&gt;Node23 -->
<g id="edge45" class="edge">
<title>Node17&#45;&gt;Node23</title>
<path fill="none" stroke="midnightblue" d="M1141.45,-333.08C1232.04,-301.29 1477.92,-215 1556.21,-187.52"/>
<polygon fill="midnightblue" stroke="midnightblue" points="1140.21,-329.81 1131.93,-336.42 1142.53,-336.42 1140.21,-329.81"/>
</g>
<!-- Node25 -->
<g id="node25" class="node">
<title>Node25</title>
<g id="a_node25"><a xlink:href="../../d0/d0a/a00743.html" target="_top" xlink:title=" ">
<polygon fill="none" stroke="black" points="907,-168.5 907,-187.5 984,-187.5 984,-168.5 907,-168.5"/>
<text text-anchor="middle" x="945.5" y="-175.5" font-family="Helvetica,sans-Serif" font-size="10.00">SongAPI.hpp</text>
</a>
</g>
</g>
<!-- Node17&#45;&gt;Node25 -->
<g id="edge38" class="edge">
<title>Node17&#45;&gt;Node25</title>
<path fill="none" stroke="midnightblue" d="M1027.32,-335.69C978.04,-328.43 920.91,-316.74 902.5,-300 876.82,-276.65 868.85,-254.99 884.5,-224 893.04,-207.08 911.28,-194.96 925.59,-187.59"/>
<polygon fill="midnightblue" stroke="midnightblue" points="1026.98,-339.18 1037.38,-337.13 1027.97,-332.25 1026.98,-339.18"/>
</g>
<!-- Node18&#45;&gt;Node2 -->
<g id="edge23" class="edge">
<title>Node18&#45;&gt;Node2</title>
<path fill="none" stroke="midnightblue" d="M1089.77,-274.04C1071.34,-259.23 1041.11,-236.95 1011.5,-224 947.1,-195.83 917.46,-224.69 857.5,-188 834.05,-173.65 815.64,-145.84 807.33,-131.7"/>
<polygon fill="midnightblue" stroke="midnightblue" points="1087.63,-276.81 1097.59,-280.44 1092.07,-271.4 1087.63,-276.81"/>
</g>
<!-- Node18&#45;&gt;Node8 -->
<g id="edge35" class="edge">
<title>Node18&#45;&gt;Node8</title>
<path fill="none" stroke="midnightblue" d="M1092.16,-272.83C1066.02,-244.38 1017.01,-186.62 1031.5,-168 1053.3,-139.97 1282.27,-94.39 1382.71,-75.56"/>
<polygon fill="midnightblue" stroke="midnightblue" points="1089.77,-275.4 1099.15,-280.33 1094.89,-270.63 1089.77,-275.4"/>
</g>
<!-- Node18&#45;&gt;Node16 -->
<g id="edge24" class="edge">
<title>Node18&#45;&gt;Node16</title>
<path fill="none" stroke="midnightblue" d="M1049.01,-286.77C942.25,-282.11 720.09,-269.62 647.5,-244 611.05,-231.14 574.74,-202.11 558.03,-187.6"/>
<polygon fill="midnightblue" stroke="midnightblue" points="1049.15,-290.27 1059.29,-287.2 1049.44,-283.28 1049.15,-290.27"/>
</g>
<!-- Node19 -->
<g id="node19" class="node">
<title>Node19</title>
<g id="a_node19"><a xlink:href="../../d1/d04/a00713.html" target="_top" xlink:title=" ">
<polygon fill="none" stroke="black" points="1096.5,-224.5 1096.5,-243.5 1196.5,-243.5 1196.5,-224.5 1096.5,-224.5"/>
<text text-anchor="middle" x="1146.5" y="-231.5" font-family="Helvetica,sans-Serif" font-size="10.00">GuildEntities.hpp</text>
</a>
</g>
</g>
<!-- Node18&#45;&gt;Node19 -->
<g id="edge25" class="edge">
<title>Node18&#45;&gt;Node19</title>
<path fill="none" stroke="midnightblue" d="M1119.88,-271.86C1126.64,-262.5 1134.71,-251.33 1140.18,-243.75"/>
<polygon fill="midnightblue" stroke="midnightblue" points="1116.96,-269.93 1113.94,-280.08 1122.63,-274.03 1116.96,-269.93"/>
</g>
<!-- Node18&#45;&gt;Node20 -->
<g id="edge33" class="edge">
<title>Node18&#45;&gt;Node20</title>
<path fill="none" stroke="midnightblue" d="M1137.54,-276.48C1157.2,-267.97 1183.28,-256.11 1205.5,-244 1239.06,-225.71 1276.46,-200.58 1295.27,-187.57"/>
<polygon fill="midnightblue" stroke="midnightblue" points="1135.99,-273.34 1128.17,-280.49 1138.74,-279.77 1135.99,-273.34"/>
</g>
<!-- Node18&#45;&gt;Node21 -->
<g id="edge34" class="edge">
<title>Node18&#45;&gt;Node21</title>
<path fill="none" stroke="midnightblue" d="M1144.8,-277.38C1216.03,-255.18 1369.96,-207.21 1432.87,-187.61"/>
<polygon fill="midnightblue" stroke="midnightblue" points="1143.41,-274.14 1134.91,-280.46 1145.49,-280.83 1143.41,-274.14"/>
</g>
<!-- Node18&#45;&gt;Node23 -->
<g id="edge37" class="edge">
<title>Node18&#45;&gt;Node23</title>
<path fill="none" stroke="midnightblue" d="M1154.02,-278.18C1247.98,-256.33 1458.69,-207.33 1543.8,-187.53"/>
<polygon fill="midnightblue" stroke="midnightblue" points="1153.17,-274.79 1144.22,-280.46 1154.75,-281.6 1153.17,-274.79"/>
</g>
<!-- Node24 -->
<g id="node24" class="node">
<title>Node24</title>
<g id="a_node24"><a xlink:href="../../d0/d11/a00842.html" target="_top" xlink:title=" ">
<polygon fill="none" stroke="black" points="907,-224.5 907,-243.5 1002,-243.5 1002,-224.5 907,-224.5"/>
<text text-anchor="middle" x="954.5" y="-231.5" font-family="Helvetica,sans-Serif" font-size="10.00">RoleEntities.cpp</text>
</a>
</g>
</g>
<!-- Node18&#45;&gt;Node24 -->
<g id="edge36" class="edge">
<title>Node18&#45;&gt;Node24</title>
<path fill="none" stroke="midnightblue" d="M1073.61,-277.04C1044.82,-266.88 1004.21,-252.55 978.63,-243.52"/>
<polygon fill="midnightblue" stroke="midnightblue" points="1072.66,-280.42 1083.26,-280.44 1074.99,-273.81 1072.66,-280.42"/>
</g>
<!-- Node19&#45;&gt;Node2 -->
<g id="edge26" class="edge">
<title>Node19&#45;&gt;Node2</title>
<path fill="none" stroke="midnightblue" d="M1086.17,-224.97C1024.02,-216.19 931.7,-201.54 898.5,-188 863.65,-173.78 828.49,-145.65 812.07,-131.52"/>
<polygon fill="midnightblue" stroke="midnightblue" points="1085.86,-228.46 1096.25,-226.39 1086.83,-221.53 1085.86,-228.46"/>
</g>
<!-- Node19&#45;&gt;Node8 -->
<g id="edge30" class="edge">
<title>Node19&#45;&gt;Node8</title>
<path fill="none" stroke="midnightblue" d="M1163.83,-217.28C1179.7,-203.35 1204.19,-182.94 1227.5,-168 1290.39,-127.7 1371.54,-91.45 1408.95,-75.54"/>
<polygon fill="midnightblue" stroke="midnightblue" points="1161.11,-215.02 1155.97,-224.28 1165.76,-220.25 1161.11,-215.02"/>
</g>
<!-- Node19&#45;&gt;Node16 -->
<g id="edge27" class="edge">
<title>Node19&#45;&gt;Node16</title>
<path fill="none" stroke="midnightblue" d="M1086.11,-229.07C986.9,-222.35 783.25,-207.47 611.5,-188 608.43,-187.65 605.27,-187.27 602.09,-186.87"/>
<polygon fill="midnightblue" stroke="midnightblue" points="1086.04,-232.57 1096.25,-229.75 1086.51,-225.59 1086.04,-232.57"/>
</g>
<!-- Node19&#45;&gt;Node20 -->
<g id="edge28" class="edge">
<title>Node19&#45;&gt;Node20</title>
<path fill="none" stroke="midnightblue" d="M1181.76,-221.17C1212.08,-211 1255.07,-196.59 1282.11,-187.52"/>
<polygon fill="midnightblue" stroke="midnightblue" points="1180.38,-217.95 1172.01,-224.44 1182.6,-224.58 1180.38,-217.95"/>
</g>
<!-- Node19&#45;&gt;Node21 -->
<g id="edge29" class="edge">
<title>Node19&#45;&gt;Node21</title>
<path fill="none" stroke="midnightblue" d="M1206.23,-222.73C1265.57,-212.52 1355.49,-197.06 1410.98,-187.52"/>
<polygon fill="midnightblue" stroke="midnightblue" points="1205.52,-219.3 1196.25,-224.44 1206.7,-226.2 1205.52,-219.3"/>
</g>
<!-- Node19&#45;&gt;Node22 -->
<g id="edge31" class="edge">
<title>Node19&#45;&gt;Node22</title>
<path fill="none" stroke="midnightblue" d="M1134.88,-215.57C1128.68,-206.27 1121.33,-195.25 1116.33,-187.75"/>
<polygon fill="midnightblue" stroke="midnightblue" points="1132.1,-217.7 1140.56,-224.08 1137.92,-213.82 1132.1,-217.7"/>
</g>
<!-- Node19&#45;&gt;Node23 -->
<g id="edge32" class="edge">
<title>Node19&#45;&gt;Node23</title>
<path fill="none" stroke="midnightblue" d="M1207.13,-227.34C1283.47,-219.9 1418.57,-205.66 1533.5,-188 1536.54,-187.53 1539.68,-187.01 1542.83,-186.47"/>
<polygon fill="midnightblue" stroke="midnightblue" points="1206.37,-223.9 1196.75,-228.35 1207.05,-230.87 1206.37,-223.9"/>
</g>
<!-- Node25&#45;&gt;Node2 -->
<g id="edge39" class="edge">
<title>Node25&#45;&gt;Node2</title>
<path fill="none" stroke="midnightblue" d="M913.47,-164.91C886.59,-154.75 848.86,-140.51 825.05,-131.52"/>
<polygon fill="midnightblue" stroke="midnightblue" points="912.25,-168.19 922.84,-168.44 914.72,-161.64 912.25,-168.19"/>
</g>
<!-- Node25&#45;&gt;Node8 -->
<g id="edge40" class="edge">
<title>Node25&#45;&gt;Node8</title>
<path fill="none" stroke="midnightblue" d="M954.58,-159.37C963.52,-144.02 978.7,-122.6 998.5,-112 1071.92,-72.7 1288.88,-86.39 1371.5,-76 1374.23,-75.66 1377.03,-75.29 1379.85,-74.9"/>
<polygon fill="midnightblue" stroke="midnightblue" points="951.36,-157.96 949.62,-168.41 957.5,-161.33 951.36,-157.96"/>
</g>
<!-- Node25&#45;&gt;Node11 -->
<g id="edge41" class="edge">
<title>Node25&#45;&gt;Node11</title>
<path fill="none" stroke="midnightblue" d="M944.43,-158.22C944.69,-143.42 947.7,-123.43 960.5,-112 1013.05,-65.07 1205.83,-86.5 1275.5,-76 1278.52,-75.55 1281.64,-75.04 1284.77,-74.51"/>
<polygon fill="midnightblue" stroke="midnightblue" points="940.93,-158.37 944.65,-168.3 947.93,-158.22 940.93,-158.37"/>
</g>
<!-- Node26&#45;&gt;Node2 -->
<g id="edge47" class="edge">
<title>Node26&#45;&gt;Node2</title>
<path fill="none" stroke="midnightblue" d="M728.73,-216.27C747.54,-192.49 781.31,-149.79 795.7,-131.59"/>
<polygon fill="midnightblue" stroke="midnightblue" points="725.78,-214.35 722.33,-224.37 731.28,-218.7 725.78,-214.35"/>
</g>
<!-- Node26&#45;&gt;Node16 -->
<g id="edge48" class="edge">
<title>Node26&#45;&gt;Node16</title>
<path fill="none" stroke="midnightblue" d="M679.33,-221.3C647.86,-211.13 603.01,-196.62 574.84,-187.52"/>
<polygon fill="midnightblue" stroke="midnightblue" points="678.45,-224.7 689.04,-224.44 680.6,-218.04 678.45,-224.7"/>
</g>
<!-- Node26&#45;&gt;Node20 -->
<g id="edge49" class="edge">
<title>Node26&#45;&gt;Node20</title>
<path fill="none" stroke="midnightblue" d="M784.43,-226.71C897.64,-216.39 1121.83,-195.94 1236.43,-185.48"/>
<polygon fill="midnightblue" stroke="midnightblue" points="783.8,-223.26 774.16,-227.65 784.43,-230.23 783.8,-223.26"/>
</g>
<!-- Node27 -->
<g id="node27" class="node">
<title>Node27</title>
<g id="a_node27"><a xlink:href="../../df/de8/a00839.html" target="_top" xlink:title=" ">
<polygon fill="none" stroke="black" points="620.5,-168.5 620.5,-187.5 736.5,-187.5 736.5,-168.5 620.5,-168.5"/>
<text text-anchor="middle" x="678.5" y="-175.5" font-family="Helvetica,sans-Serif" font-size="10.00">ReactionEntities.cpp</text>
</a>
</g>
</g>
<!-- Node26&#45;&gt;Node27 -->
<g id="edge50" class="edge">
<title>Node26&#45;&gt;Node27</title>
<path fill="none" stroke="midnightblue" d="M703.55,-215.57C697.19,-206.27 689.63,-195.25 684.5,-187.75"/>
<polygon fill="midnightblue" stroke="midnightblue" points="700.85,-217.81 709.39,-224.08 706.63,-213.86 700.85,-217.81"/>
</g>
</g>
</svg>
