<?xml version="1.0" encoding="UTF-8" standalone="no"?>
<!DOCTYPE svg PUBLIC "-//W3C//DTD SVG 1.1//EN"
 "http://www.w3.org/Graphics/SVG/1.1/DTD/svg11.dtd">
<!-- Generated by graphviz version 2.43.0 (0)
 -->
<!-- Title: UserEntities.hpp Pages: 1 -->
<svg width="1587pt" height="412pt"
 viewBox="0.00 0.00 1586.50 412.00" xmlns="http://www.w3.org/2000/svg" xmlns:xlink="http://www.w3.org/1999/xlink">
<g id="graph0" class="graph" transform="scale(1 1) rotate(0) translate(4 408)">
<title>UserEntities.hpp</title>
<!-- Node1 -->
<g id="node1" class="node">
<title>Node1</title>
<g id="a_node1"><a xlink:title=" ">
<polygon fill="#bfbfbf" stroke="black" points="730,-404 633,-404 633,-385 730,-385 730,-404"/>
<text text-anchor="middle" x="681.5" y="-392" font-family="Helvetica,sans-Serif" font-size="10.00">UserEntities.hpp</text>
</a>
</g>
</g>
<!-- Node2 -->
<g id="node2" class="node">
<title>Node2</title>
<g id="a_node2"><a xlink:href="../../da/d96/a00782.html" target="_top" xlink:title=" ">
<polygon fill="none" stroke="black" points="179,-74 0,-74 0,-55 179,-55 179,-74"/>
<text text-anchor="middle" x="89.5" y="-62" font-family="Helvetica,sans-Serif" font-size="10.00">ApplicationCommandEntities.cpp</text>
</a>
</g>
</g>
<!-- Node1&#45;&gt;Node2 -->
<g id="edge1" class="edge">
<title>Node1&#45;&gt;Node2</title>
<path fill="none" stroke="midnightblue" d="M622.72,-393.26C488.99,-391.12 173.5,-376.45 173.5,-285.5 173.5,-285.5 173.5,-285.5 173.5,-173.5 173.5,-128.13 126.74,-90.34 103,-74.08"/>
<polygon fill="midnightblue" stroke="midnightblue" points="622.74,-396.76 632.79,-393.4 622.84,-389.76 622.74,-396.76"/>
</g>
<!-- Node3 -->
<g id="node3" class="node">
<title>Node3</title>
<g id="a_node3"><a xlink:href="../../df/d0e/a00800.html" target="_top" xlink:title=" ">
<polygon fill="none" stroke="black" points="742.5,-184 600.5,-184 600.5,-165 742.5,-165 742.5,-184"/>
<text text-anchor="middle" x="671.5" y="-172" font-family="Helvetica,sans-Serif" font-size="10.00">DataParsingFunctions.cpp</text>
</a>
</g>
</g>
<!-- Node1&#45;&gt;Node3 -->
<g id="edge2" class="edge">
<title>Node1&#45;&gt;Node3</title>
<path fill="none" stroke="midnightblue" d="M651.42,-380.18C638.84,-372.91 625.54,-362.59 618.5,-349 587.94,-289.99 643.76,-210.39 664.33,-184.23"/>
<polygon fill="midnightblue" stroke="midnightblue" points="649.88,-383.32 660.35,-384.93 653.17,-377.14 649.88,-383.32"/>
</g>
<!-- Node4 -->
<g id="node4" class="node">
<title>Node4</title>
<g id="a_node4"><a xlink:href="../../df/dbb/a00698.html" target="_top" xlink:title=" ">
<polygon fill="none" stroke="black" points="926,-129 801,-129 801,-110 926,-110 926,-129"/>
<text text-anchor="middle" x="863.5" y="-117" font-family="Helvetica,sans-Serif" font-size="10.00">DiscordCoreClient.hpp</text>
</a>
</g>
</g>
<!-- Node1&#45;&gt;Node4 -->
<g id="edge3" class="edge">
<title>Node1&#45;&gt;Node4</title>
<path fill="none" stroke="midnightblue" d="M740.06,-389.73C897.93,-378.8 1320.5,-344.06 1320.5,-285.5 1320.5,-285.5 1320.5,-285.5 1320.5,-228.5 1320.5,-198.91 1323.44,-183.69 1300.5,-165 1272.08,-141.85 1039.89,-128.37 926.02,-123.1"/>
<polygon fill="midnightblue" stroke="midnightblue" points="739.79,-386.24 730.05,-390.42 740.27,-393.23 739.79,-386.24"/>
</g>
<!-- Node7 -->
<g id="node7" class="node">
<title>Node7</title>
<g id="a_node7"><a xlink:href="../../d3/d60/a00818.html" target="_top" xlink:title=" ">
<polygon fill="none" stroke="black" points="1479,-74 1380,-74 1380,-55 1479,-55 1479,-74"/>
<text text-anchor="middle" x="1429.5" y="-62" font-family="Helvetica,sans-Serif" font-size="10.00">GuildEntities.cpp</text>
</a>
</g>
</g>
<!-- Node1&#45;&gt;Node7 -->
<g id="edge22" class="edge">
<title>Node1&#45;&gt;Node7</title>
<path fill="none" stroke="midnightblue" d="M740.25,-391.46C920.65,-384.44 1454.5,-357.57 1454.5,-285.5 1454.5,-285.5 1454.5,-285.5 1454.5,-173.5 1454.5,-135.59 1439.7,-92.07 1432.87,-74.02"/>
<polygon fill="midnightblue" stroke="midnightblue" points="740.01,-387.97 730.15,-391.85 740.27,-394.97 740.01,-387.97"/>
</g>
<!-- Node17 -->
<g id="node17" class="node">
<title>Node17</title>
<g id="a_node17"><a xlink:href="../../d1/d56/a00707.html" target="_top" xlink:title=" ">
<polygon fill="none" stroke="black" points="539,-184 432,-184 432,-165 539,-165 539,-184"/>
<text text-anchor="middle" x="485.5" y="-172" font-family="Helvetica,sans-Serif" font-size="10.00">EventManager.hpp</text>
</a>
</g>
</g>
<!-- Node1&#45;&gt;Node17 -->
<g id="edge17" class="edge">
<title>Node1&#45;&gt;Node17</title>
<path fill="none" stroke="midnightblue" d="M655.87,-379.95C641.39,-371.79 623.28,-360.73 608.5,-349 556.75,-307.92 541.45,-296.27 508.5,-239 497.98,-220.71 490.88,-196.74 487.6,-184.13"/>
<polygon fill="midnightblue" stroke="midnightblue" points="654.34,-383.1 664.79,-384.87 657.72,-376.97 654.34,-383.1"/>
</g>
<!-- Node18 -->
<g id="node18" class="node">
<title>Node18</title>
<g id="a_node18"><a xlink:href="../../d8/d2d/a00815.html" target="_top" xlink:title=" ">
<polygon fill="none" stroke="black" points="888.5,-184 760.5,-184 760.5,-165 888.5,-165 888.5,-184"/>
<text text-anchor="middle" x="824.5" y="-172" font-family="Helvetica,sans-Serif" font-size="10.00">FoundationEntities.cpp</text>
</a>
</g>
</g>
<!-- Node1&#45;&gt;Node18 -->
<g id="edge21" class="edge">
<title>Node1&#45;&gt;Node18</title>
<path fill="none" stroke="midnightblue" d="M665.62,-377.41C655.01,-364.62 644.23,-346.25 651.5,-330 684.32,-256.68 771.05,-203.81 807.74,-184.04"/>
<polygon fill="midnightblue" stroke="midnightblue" points="663.09,-379.82 672.37,-384.92 668.29,-375.15 663.09,-379.82"/>
</g>
<!-- Node19 -->
<g id="node19" class="node">
<title>Node19</title>
<g id="a_node19"><a xlink:href="../../d2/d94/a00716.html" target="_top" xlink:title=" ">
<polygon fill="none" stroke="black" points="800.5,-349 660.5,-349 660.5,-330 800.5,-330 800.5,-349"/>
<text text-anchor="middle" x="730.5" y="-337" font-family="Helvetica,sans-Serif" font-size="10.00">GuildMemberEntities.hpp</text>
</a>
</g>
</g>
<!-- Node1&#45;&gt;Node19 -->
<g id="edge23" class="edge">
<title>Node1&#45;&gt;Node19</title>
<path fill="none" stroke="midnightblue" d="M696.53,-377.24C705.12,-367.95 715.54,-356.68 722.56,-349.09"/>
<polygon fill="midnightblue" stroke="midnightblue" points="693.81,-375.03 689.59,-384.75 698.95,-379.78 693.81,-375.03"/>
</g>
<!-- Node23 -->
<g id="node23" class="node">
<title>Node23</title>
<g id="a_node23"><a xlink:href="../../d3/db2/a00869.html" target="_top" xlink:title=" ">
<polygon fill="none" stroke="black" points="1292,-184 1217,-184 1217,-165 1292,-165 1292,-184"/>
<text text-anchor="middle" x="1254.5" y="-172" font-family="Helvetica,sans-Serif" font-size="10.00">Utilities.cpp</text>
</a>
</g>
</g>
<!-- Node1&#45;&gt;Node23 -->
<g id="edge56" class="edge">
<title>Node1&#45;&gt;Node23</title>
<path fill="none" stroke="midnightblue" d="M738.12,-382.99C831.57,-364.03 1022.01,-318.49 1165.5,-239 1195.72,-222.26 1227.95,-197.23 1244.06,-184.15"/>
<polygon fill="midnightblue" stroke="midnightblue" points="737.42,-379.56 728.3,-384.96 738.79,-386.42 737.42,-379.56"/>
</g>
<!-- Node26 -->
<g id="node26" class="node">
<title>Node26</title>
<g id="a_node26"><a xlink:href="../../dd/db2/a00737.html" target="_top" xlink:title=" ">
<polygon fill="none" stroke="black" points="414,-239 297,-239 297,-220 414,-220 414,-239"/>
<text text-anchor="middle" x="355.5" y="-227" font-family="Helvetica,sans-Serif" font-size="10.00">ReactionEntities.hpp</text>
</a>
</g>
</g>
<!-- Node1&#45;&gt;Node26 -->
<g id="edge50" class="edge">
<title>Node1&#45;&gt;Node26</title>
<path fill="none" stroke="midnightblue" d="M622.82,-388.75C558.22,-382.56 459.41,-369.98 428.5,-349 387.32,-321.04 365.14,-261.35 358.05,-239.1"/>
<polygon fill="midnightblue" stroke="midnightblue" points="622.6,-392.24 632.88,-389.69 623.25,-385.27 622.6,-392.24"/>
</g>
<!-- Node28 -->
<g id="node28" class="node">
<title>Node28</title>
<g id="a_node28"><a xlink:href="../../dd/db2/a00866.html" target="_top" xlink:title=" ">
<polygon fill="none" stroke="black" points="1578.5,-349 1482.5,-349 1482.5,-330 1578.5,-330 1578.5,-349"/>
<text text-anchor="middle" x="1530.5" y="-337" font-family="Helvetica,sans-Serif" font-size="10.00">UserEntities.cpp</text>
</a>
</g>
</g>
<!-- Node1&#45;&gt;Node28 -->
<g id="edge55" class="edge">
<title>Node1&#45;&gt;Node28</title>
<path fill="none" stroke="midnightblue" d="M740.65,-391.77C871.88,-387.57 1197.28,-375.22 1468.5,-349 1473.04,-348.56 1477.76,-348.04 1482.48,-347.47"/>
<polygon fill="midnightblue" stroke="midnightblue" points="740.3,-388.28 730.42,-392.09 740.52,-395.27 740.3,-388.28"/>
</g>
<!-- Node4&#45;&gt;Node2 -->
<g id="edge4" class="edge">
<title>Node4&#45;&gt;Node2</title>
<path fill="none" stroke="midnightblue" d="M790.43,-114.19C666.4,-106.76 406.8,-90.73 187.5,-74 184.78,-73.79 182.01,-73.58 179.22,-73.36"/>
<polygon fill="midnightblue" stroke="midnightblue" points="790.37,-117.69 800.56,-114.79 790.79,-110.7 790.37,-117.69"/>
</g>
<!-- Node5 -->
<g id="node5" class="node">
<title>Node5</title>
<g id="a_node5"><a xlink:href="../../d5/d72/a00803.html" target="_top" xlink:title=" ">
<polygon fill="none" stroke="black" points="839,-74 714,-74 714,-55 839,-55 839,-74"/>
<text text-anchor="middle" x="776.5" y="-62" font-family="Helvetica,sans-Serif" font-size="10.00">DiscordCoreClient.cpp</text>
</a>
</g>
</g>
<!-- Node4&#45;&gt;Node5 -->
<g id="edge5" class="edge">
<title>Node4&#45;&gt;Node5</title>
<path fill="none" stroke="midnightblue" d="M840.84,-104.7C824.99,-95.04 804.31,-82.44 790.73,-74.17"/>
<polygon fill="midnightblue" stroke="midnightblue" points="839.16,-107.77 849.52,-109.98 842.8,-101.79 839.16,-107.77"/>
</g>
<!-- Node6 -->
<g id="node6" class="node">
<title>Node6</title>
<g id="a_node6"><a xlink:href="../../d8/db7/a00812.html" target="_top" xlink:title=" ">
<polygon fill="none" stroke="black" points="304,-74 197,-74 197,-55 304,-55 304,-74"/>
<text text-anchor="middle" x="250.5" y="-62" font-family="Helvetica,sans-Serif" font-size="10.00">EventManager.cpp</text>
</a>
</g>
</g>
<!-- Node4&#45;&gt;Node6 -->
<g id="edge6" class="edge">
<title>Node4&#45;&gt;Node6</title>
<path fill="none" stroke="midnightblue" d="M790.36,-113.89C684.71,-106.94 483.32,-92.59 312.5,-74 309.8,-73.71 307.04,-73.39 304.25,-73.05"/>
<polygon fill="midnightblue" stroke="midnightblue" points="790.38,-117.4 800.59,-114.56 790.84,-110.42 790.38,-117.4"/>
</g>
<!-- Node4&#45;&gt;Node7 -->
<g id="edge7" class="edge">
<title>Node4&#45;&gt;Node7</title>
<path fill="none" stroke="midnightblue" d="M936.07,-110.44C937.56,-110.29 939.04,-110.14 940.5,-110 1131.38,-91.48 1179.95,-95.68 1370.5,-74 1373.58,-73.65 1376.76,-73.26 1379.95,-72.86"/>
<polygon fill="midnightblue" stroke="midnightblue" points="935.69,-106.96 926.1,-111.45 936.4,-113.92 935.69,-106.96"/>
</g>
<!-- Node8 -->
<g id="node8" class="node">
<title>Node8</title>
<g id="a_node8"><a xlink:href="../../dc/d1b/a00827.html" target="_top" xlink:title=" ">
<polygon fill="none" stroke="black" points="920,-74 857,-74 857,-55 920,-55 920,-74"/>
<text text-anchor="middle" x="888.5" y="-62" font-family="Helvetica,sans-Serif" font-size="10.00">Https.cpp</text>
</a>
</g>
</g>
<!-- Node4&#45;&gt;Node8 -->
<g id="edge8" class="edge">
<title>Node4&#45;&gt;Node8</title>
<path fill="none" stroke="midnightblue" d="M871.98,-100.53C876.19,-91.6 881.09,-81.22 884.45,-74.09"/>
<polygon fill="midnightblue" stroke="midnightblue" points="868.73,-99.21 867.63,-109.75 875.06,-102.2 868.73,-99.21"/>
</g>
<!-- Node9 -->
<g id="node9" class="node">
<title>Node9</title>
<g id="a_node9"><a xlink:href="../../d8/db9/a00725.html" target="_top" xlink:title=" ">
<polygon fill="none" stroke="black" points="1003,-74 938,-74 938,-55 1003,-55 1003,-74"/>
<text text-anchor="middle" x="970.5" y="-62" font-family="Helvetica,sans-Serif" font-size="10.00">Index.hpp</text>
</a>
</g>
</g>
<!-- Node4&#45;&gt;Node9 -->
<g id="edge9" class="edge">
<title>Node4&#45;&gt;Node9</title>
<path fill="none" stroke="midnightblue" d="M889.74,-105.5C909.43,-95.75 935.82,-82.68 953,-74.17"/>
<polygon fill="midnightblue" stroke="midnightblue" points="888.1,-102.41 880.69,-109.98 891.21,-108.68 888.1,-102.41"/>
</g>
<!-- Node11 -->
<g id="node11" class="node">
<title>Node11</title>
<g id="a_node11"><a xlink:href="../../d3/d13/a00836.html" target="_top" xlink:title=" ">
<polygon fill="none" stroke="black" points="1138,-74 1021,-74 1021,-55 1138,-55 1138,-74"/>
<text text-anchor="middle" x="1079.5" y="-62" font-family="Helvetica,sans-Serif" font-size="10.00">MessageEntities.cpp</text>
</a>
</g>
</g>
<!-- Node4&#45;&gt;Node11 -->
<g id="edge11" class="edge">
<title>Node4&#45;&gt;Node11</title>
<path fill="none" stroke="midnightblue" d="M908.07,-107.56C948.52,-97.64 1007.37,-83.2 1044.52,-74.08"/>
<polygon fill="midnightblue" stroke="midnightblue" points="907.08,-104.2 898.2,-109.98 908.75,-111 907.08,-104.2"/>
</g>
<!-- Node12 -->
<g id="node12" class="node">
<title>Node12</title>
<g id="a_node12"><a xlink:href="../../d9/d30/a00848.html" target="_top" xlink:title=" ">
<polygon fill="none" stroke="black" points="1362,-74 1285,-74 1285,-55 1362,-55 1362,-74"/>
<text text-anchor="middle" x="1323.5" y="-62" font-family="Helvetica,sans-Serif" font-size="10.00">SongAPI.cpp</text>
</a>
</g>
</g>
<!-- Node4&#45;&gt;Node12 -->
<g id="edge12" class="edge">
<title>Node4&#45;&gt;Node12</title>
<path fill="none" stroke="midnightblue" d="M936.07,-110.48C937.56,-110.32 939.04,-110.16 940.5,-110 1089.37,-93.78 1127.24,-95.07 1275.5,-74 1278.52,-73.57 1281.63,-73.1 1284.76,-72.59"/>
<polygon fill="midnightblue" stroke="midnightblue" points="935.67,-107.01 926.11,-111.57 936.43,-113.96 935.67,-107.01"/>
</g>
<!-- Node13 -->
<g id="node13" class="node">
<title>Node13</title>
<g id="a_node13"><a xlink:href="../../df/d4c/a00851.html" target="_top" xlink:title=" ">
<polygon fill="none" stroke="black" points="1266.5,-74 1156.5,-74 1156.5,-55 1266.5,-55 1266.5,-74"/>
<text text-anchor="middle" x="1211.5" y="-62" font-family="Helvetica,sans-Serif" font-size="10.00">SoundCloudAPI.cpp</text>
</a>
</g>
</g>
<!-- Node4&#45;&gt;Node13 -->
<g id="edge13" class="edge">
<title>Node4&#45;&gt;Node13</title>
<path fill="none" stroke="midnightblue" d="M929.65,-108.43C995.3,-98.43 1094.77,-83.28 1156.3,-73.91"/>
<polygon fill="midnightblue" stroke="midnightblue" points="928.77,-105.02 919.41,-109.98 929.83,-111.94 928.77,-105.02"/>
</g>
<!-- Node14 -->
<g id="node14" class="node">
<title>Node14</title>
<g id="a_node14"><a xlink:href="../../dc/d17/a00872.html" target="_top" xlink:title=" ">
<polygon fill="none" stroke="black" points="585.5,-74 467.5,-74 467.5,-55 585.5,-55 585.5,-74"/>
<text text-anchor="middle" x="526.5" y="-62" font-family="Helvetica,sans-Serif" font-size="10.00">VoiceConnection.cpp</text>
</a>
</g>
</g>
<!-- Node4&#45;&gt;Node14 -->
<g id="edge14" class="edge">
<title>Node4&#45;&gt;Node14</title>
<path fill="none" stroke="midnightblue" d="M799.1,-108.37C735.82,-98.42 640.33,-83.4 580.79,-74.04"/>
<polygon fill="midnightblue" stroke="midnightblue" points="798.93,-111.89 809.36,-109.98 800.02,-104.97 798.93,-111.89"/>
</g>
<!-- Node15 -->
<g id="node15" class="node">
<title>Node15</title>
<g id="a_node15"><a xlink:href="../../d5/d69/a00878.html" target="_top" xlink:title=" ">
<polygon fill="none" stroke="black" points="449,-74 322,-74 322,-55 449,-55 449,-74"/>
<text text-anchor="middle" x="385.5" y="-62" font-family="Helvetica,sans-Serif" font-size="10.00">WebSocketEntities.cpp</text>
</a>
</g>
</g>
<!-- Node4&#45;&gt;Node15 -->
<g id="edge15" class="edge">
<title>Node4&#45;&gt;Node15</title>
<path fill="none" stroke="midnightblue" d="M790.59,-110.63C709.5,-101.85 574.6,-87.14 458.5,-74 455.46,-73.66 452.34,-73.3 449.2,-72.94"/>
<polygon fill="midnightblue" stroke="midnightblue" points="790.38,-114.13 800.7,-111.73 791.13,-107.17 790.38,-114.13"/>
</g>
<!-- Node16 -->
<g id="node16" class="node">
<title>Node16</title>
<g id="a_node16"><a xlink:href="../../df/d41/a00881.html" target="_top" xlink:title=" ">
<polygon fill="none" stroke="black" points="695.5,-74 603.5,-74 603.5,-55 695.5,-55 695.5,-74"/>
<text text-anchor="middle" x="649.5" y="-62" font-family="Helvetica,sans-Serif" font-size="10.00">YouTubeAPI.cpp</text>
</a>
</g>
</g>
<!-- Node4&#45;&gt;Node16 -->
<g id="edge16" class="edge">
<title>Node4&#45;&gt;Node16</title>
<path fill="none" stroke="midnightblue" d="M819.34,-107.56C779.26,-97.64 720.96,-83.2 684.15,-74.08"/>
<polygon fill="midnightblue" stroke="midnightblue" points="818.57,-110.98 829.12,-109.98 820.25,-104.18 818.57,-110.98"/>
</g>
<!-- Node10 -->
<g id="node10" class="node">
<title>Node10</title>
<g id="a_node10"><a xlink:href="../../d0/dad/a00806.html" target="_top" xlink:title=" ">
<polygon fill="none" stroke="black" points="1007.5,-19 933.5,-19 933.5,0 1007.5,0 1007.5,-19"/>
<text text-anchor="middle" x="970.5" y="-7" font-family="Helvetica,sans-Serif" font-size="10.00">DllMain.cpp</text>
</a>
</g>
</g>
<!-- Node9&#45;&gt;Node10 -->
<g id="edge10" class="edge">
<title>Node9&#45;&gt;Node10</title>
<path fill="none" stroke="midnightblue" d="M970.5,-44.66C970.5,-35.93 970.5,-25.99 970.5,-19.09"/>
<polygon fill="midnightblue" stroke="midnightblue" points="967,-44.75 970.5,-54.75 974,-44.75 967,-44.75"/>
</g>
<!-- Node17&#45;&gt;Node4 -->
<g id="edge18" class="edge">
<title>Node17&#45;&gt;Node4</title>
<path fill="none" stroke="midnightblue" d="M549.37,-164.54C620.1,-154.63 733.28,-138.76 802.73,-129.02"/>
<polygon fill="midnightblue" stroke="midnightblue" points="548.67,-161.11 539.26,-165.96 549.65,-168.04 548.67,-161.11"/>
</g>
<!-- Node17&#45;&gt;Node6 -->
<g id="edge19" class="edge">
<title>Node17&#45;&gt;Node6</title>
<path fill="none" stroke="midnightblue" d="M457.36,-160.57C408.7,-138.21 310.14,-92.91 269.1,-74.05"/>
<polygon fill="midnightblue" stroke="midnightblue" points="456.12,-163.85 466.67,-164.84 459.04,-157.49 456.12,-163.85"/>
</g>
<!-- Node17&#45;&gt;Node15 -->
<g id="edge20" class="edge">
<title>Node17&#45;&gt;Node15</title>
<path fill="none" stroke="midnightblue" d="M470.5,-157.3C449.02,-134.1 410.23,-92.21 393.52,-74.16"/>
<polygon fill="midnightblue" stroke="midnightblue" points="467.95,-159.7 477.32,-164.66 473.09,-154.95 467.95,-159.7"/>
</g>
<!-- Node19&#45;&gt;Node3 -->
<g id="edge24" class="edge">
<title>Node19&#45;&gt;Node3</title>
<path fill="none" stroke="midnightblue" d="M714.3,-322.46C707.19,-314.53 699.36,-304.43 694.5,-294 676.71,-255.82 672.68,-204.54 671.77,-184.27"/>
<polygon fill="midnightblue" stroke="midnightblue" points="711.89,-325.01 721.31,-329.87 716.98,-320.2 711.89,-325.01"/>
</g>
<!-- Node19&#45;&gt;Node4 -->
<g id="edge25" class="edge">
<title>Node19&#45;&gt;Node4</title>
<path fill="none" stroke="midnightblue" d="M704.84,-324.86C652.41,-295.3 541.98,-223.29 591.5,-165 617.84,-134.01 729.14,-124.55 800.95,-121.7"/>
<polygon fill="midnightblue" stroke="midnightblue" points="703.46,-328.1 713.9,-329.87 706.85,-321.97 703.46,-328.1"/>
</g>
<!-- Node19&#45;&gt;Node17 -->
<g id="edge26" class="edge">
<title>Node19&#45;&gt;Node17</title>
<path fill="none" stroke="midnightblue" d="M663.31,-327.69C635.97,-321.05 605.1,-310.53 580.5,-294 535.64,-263.85 501.71,-206 489.97,-184.15"/>
<polygon fill="midnightblue" stroke="midnightblue" points="662.67,-331.13 673.2,-329.96 664.24,-324.31 662.67,-331.13"/>
</g>
<!-- Node19&#45;&gt;Node18 -->
<g id="edge27" class="edge">
<title>Node19&#45;&gt;Node18</title>
<path fill="none" stroke="midnightblue" d="M740.27,-320.82C753.17,-297.58 776.69,-255.53 797.5,-220 804.81,-207.52 813.53,-193.26 819.04,-184.32"/>
<polygon fill="midnightblue" stroke="midnightblue" points="737.07,-319.38 735.29,-329.82 743.19,-322.77 737.07,-319.38"/>
</g>
<!-- Node20 -->
<g id="node20" class="node">
<title>Node20</title>
<g id="a_node20"><a xlink:href="../../d6/d8b/a00821.html" target="_top" xlink:title=" ">
<polygon fill="none" stroke="black" points="1160.5,-184 1020.5,-184 1020.5,-165 1160.5,-165 1160.5,-184"/>
<text text-anchor="middle" x="1090.5" y="-172" font-family="Helvetica,sans-Serif" font-size="10.00">GuildMemberEntities.cpp</text>
</a>
</g>
</g>
<!-- Node19&#45;&gt;Node20 -->
<g id="edge28" class="edge">
<title>Node19&#45;&gt;Node20</title>
<path fill="none" stroke="midnightblue" d="M810.93,-331.32C881.52,-321.22 983.3,-297 1051.5,-239 1069.63,-223.58 1081.85,-197.52 1087.28,-184.08"/>
<polygon fill="midnightblue" stroke="midnightblue" points="810.18,-327.88 800.74,-332.7 811.13,-334.82 810.18,-327.88"/>
</g>
<!-- Node21 -->
<g id="node21" class="node">
<title>Node21</title>
<g id="a_node21"><a xlink:href="../../dc/dce/a00740.html" target="_top" xlink:title=" ">
<polygon fill="none" stroke="black" points="908.5,-294 812.5,-294 812.5,-275 908.5,-275 908.5,-294"/>
<text text-anchor="middle" x="860.5" y="-282" font-family="Helvetica,sans-Serif" font-size="10.00">RoleEntities.hpp</text>
</a>
</g>
</g>
<!-- Node19&#45;&gt;Node21 -->
<g id="edge29" class="edge">
<title>Node19&#45;&gt;Node21</title>
<path fill="none" stroke="midnightblue" d="M760.77,-326.16C784.84,-316.35 817.9,-302.87 839.23,-294.17"/>
<polygon fill="midnightblue" stroke="midnightblue" points="759.33,-322.97 751.39,-329.98 761.97,-329.45 759.33,-322.97"/>
</g>
<!-- Node19&#45;&gt;Node23 -->
<g id="edge49" class="edge">
<title>Node19&#45;&gt;Node23</title>
<path fill="none" stroke="midnightblue" d="M810.8,-330.17C863.05,-323.45 932.25,-312.08 991.5,-294 1089.94,-263.97 1199.81,-205.79 1239.33,-184.01"/>
<polygon fill="midnightblue" stroke="midnightblue" points="810.07,-326.74 800.58,-331.46 810.94,-333.68 810.07,-326.74"/>
</g>
<!-- Node25 -->
<g id="node25" class="node">
<title>Node25</title>
<g id="a_node25"><a xlink:href="../../d4/dfa/a00746.html" target="_top" xlink:title=" ">
<polygon fill="none" stroke="black" points="1426,-184 1349,-184 1349,-165 1426,-165 1426,-184"/>
<text text-anchor="middle" x="1387.5" y="-172" font-family="Helvetica,sans-Serif" font-size="10.00">SongAPI.hpp</text>
</a>
</g>
</g>
<!-- Node19&#45;&gt;Node25 -->
<g id="edge45" class="edge">
<title>Node19&#45;&gt;Node25</title>
<path fill="none" stroke="midnightblue" d="M810.73,-330.57C872.01,-323.58 958.28,-311.71 1032.5,-294 1162.06,-263.08 1311.77,-205.69 1366.27,-184.05"/>
<polygon fill="midnightblue" stroke="midnightblue" points="810.28,-327.1 800.73,-331.69 811.06,-334.05 810.28,-327.1"/>
</g>
<!-- Node21&#45;&gt;Node3 -->
<g id="edge30" class="edge">
<title>Node21&#45;&gt;Node3</title>
<path fill="none" stroke="midnightblue" d="M836.63,-269.86C797.09,-247.26 719.13,-202.71 686.46,-184.05"/>
<polygon fill="midnightblue" stroke="midnightblue" points="834.93,-272.92 845.35,-274.84 838.41,-266.84 834.93,-272.92"/>
</g>
<!-- Node21&#45;&gt;Node4 -->
<g id="edge31" class="edge">
<title>Node21&#45;&gt;Node4</title>
<path fill="none" stroke="midnightblue" d="M918.53,-276.43C963.71,-269.6 1021.1,-257.52 1035.5,-239 1040.68,-232.33 1039.72,-227.31 1035.5,-220 1005.85,-168.6 938.4,-141.35 897.33,-129.01"/>
<polygon fill="midnightblue" stroke="midnightblue" points="917.9,-272.99 908.51,-277.89 918.91,-279.91 917.9,-272.99"/>
</g>
<!-- Node21&#45;&gt;Node7 -->
<g id="edge34" class="edge">
<title>Node21&#45;&gt;Node7</title>
<path fill="none" stroke="midnightblue" d="M918.72,-273.2C957.01,-265.63 1007.92,-254.05 1051.5,-239 1106.19,-220.11 1117.4,-209.16 1169.5,-184 1186.5,-175.79 1190.44,-173.09 1207.5,-165 1281.55,-129.91 1370.86,-90.86 1409.77,-74.01"/>
<polygon fill="midnightblue" stroke="midnightblue" points="917.91,-269.79 908.76,-275.13 919.25,-276.66 917.91,-269.79"/>
</g>
<!-- Node21&#45;&gt;Node17 -->
<g id="edge32" class="edge">
<title>Node21&#45;&gt;Node17</title>
<path fill="none" stroke="midnightblue" d="M820.69,-272.03C745.07,-250.26 582.25,-203.36 515.24,-184.07"/>
<polygon fill="midnightblue" stroke="midnightblue" points="820.18,-275.53 830.76,-274.94 822.12,-268.8 820.18,-275.53"/>
</g>
<!-- Node21&#45;&gt;Node18 -->
<g id="edge33" class="edge">
<title>Node21&#45;&gt;Node18</title>
<path fill="none" stroke="midnightblue" d="M833.26,-269.57C821.85,-262.17 809.8,-251.91 803.5,-239 794.33,-220.22 808.44,-196.45 817.62,-184"/>
<polygon fill="midnightblue" stroke="midnightblue" points="831.77,-272.75 842.15,-274.88 835.36,-266.75 831.77,-272.75"/>
</g>
<!-- Node22 -->
<g id="node22" class="node">
<title>Node22</title>
<g id="a_node22"><a xlink:href="../../d1/d04/a00713.html" target="_top" xlink:title=" ">
<polygon fill="none" stroke="black" points="1026.5,-239 926.5,-239 926.5,-220 1026.5,-220 1026.5,-239"/>
<text text-anchor="middle" x="976.5" y="-227" font-family="Helvetica,sans-Serif" font-size="10.00">GuildEntities.hpp</text>
</a>
</g>
</g>
<!-- Node21&#45;&gt;Node22 -->
<g id="edge35" class="edge">
<title>Node21&#45;&gt;Node22</title>
<path fill="none" stroke="midnightblue" d="M888.37,-270.77C909.77,-260.99 938.74,-247.75 957.52,-239.17"/>
<polygon fill="midnightblue" stroke="midnightblue" points="886.78,-267.65 879.14,-274.98 889.69,-274.01 886.78,-267.65"/>
</g>
<!-- Node21&#45;&gt;Node23 -->
<g id="edge44" class="edge">
<title>Node21&#45;&gt;Node23</title>
<path fill="none" stroke="midnightblue" d="M918.94,-276.72C969.34,-269.98 1043.7,-257.89 1106.5,-239 1156.03,-224.1 1211.27,-197.58 1238.09,-184.01"/>
<polygon fill="midnightblue" stroke="midnightblue" points="918.34,-273.27 908.88,-278.04 919.25,-280.21 918.34,-273.27"/>
</g>
<!-- Node24 -->
<g id="node24" class="node">
<title>Node24</title>
<g id="a_node24"><a xlink:href="../../d0/d11/a00842.html" target="_top" xlink:title=" ">
<polygon fill="none" stroke="black" points="908,-239 813,-239 813,-220 908,-220 908,-239"/>
<text text-anchor="middle" x="860.5" y="-227" font-family="Helvetica,sans-Serif" font-size="10.00">RoleEntities.cpp</text>
</a>
</g>
</g>
<!-- Node21&#45;&gt;Node24 -->
<g id="edge43" class="edge">
<title>Node21&#45;&gt;Node24</title>
<path fill="none" stroke="midnightblue" d="M860.5,-264.66C860.5,-255.93 860.5,-245.99 860.5,-239.09"/>
<polygon fill="midnightblue" stroke="midnightblue" points="857,-264.75 860.5,-274.75 864,-264.75 857,-264.75"/>
</g>
<!-- Node22&#45;&gt;Node3 -->
<g id="edge36" class="edge">
<title>Node22&#45;&gt;Node3</title>
<path fill="none" stroke="midnightblue" d="M917.5,-218.25C860.23,-208.3 774.3,-193.36 720.63,-184.04"/>
<polygon fill="midnightblue" stroke="midnightblue" points="917.04,-221.72 927.5,-219.98 918.24,-214.82 917.04,-221.72"/>
</g>
<!-- Node22&#45;&gt;Node4 -->
<g id="edge37" class="edge">
<title>Node22&#45;&gt;Node4</title>
<path fill="none" stroke="midnightblue" d="M959.87,-212.61C935.66,-189.47 891.53,-147.29 872.56,-129.16"/>
<polygon fill="midnightblue" stroke="midnightblue" points="957.61,-215.28 967.25,-219.66 962.44,-210.22 957.61,-215.28"/>
</g>
<!-- Node22&#45;&gt;Node7 -->
<g id="edge40" class="edge">
<title>Node22&#45;&gt;Node7</title>
<path fill="none" stroke="midnightblue" d="M982.45,-210.11C987.92,-195.95 997.34,-176.84 1011.5,-165 1070.16,-115.97 1100.4,-128.85 1174.5,-110 1212.5,-100.33 1317.18,-83.17 1379.98,-73.22"/>
<polygon fill="midnightblue" stroke="midnightblue" points="979.07,-209.19 979.03,-219.78 985.67,-211.52 979.07,-209.19"/>
</g>
<!-- Node22&#45;&gt;Node17 -->
<g id="edge38" class="edge">
<title>Node22&#45;&gt;Node17</title>
<path fill="none" stroke="midnightblue" d="M916.8,-220.04C916.7,-220.02 916.6,-220.01 916.5,-220 780.98,-203.41 620.98,-187.98 539.33,-180.4"/>
<polygon fill="midnightblue" stroke="midnightblue" points="916.07,-223.47 926.43,-221.26 916.95,-216.53 916.07,-223.47"/>
</g>
<!-- Node22&#45;&gt;Node18 -->
<g id="edge39" class="edge">
<title>Node22&#45;&gt;Node18</title>
<path fill="none" stroke="midnightblue" d="M942.57,-216.67C914.23,-206.79 874.48,-192.93 849.11,-184.08"/>
<polygon fill="midnightblue" stroke="midnightblue" points="941.48,-220 952.08,-219.98 943.79,-213.39 941.48,-220"/>
</g>
<!-- Node22&#45;&gt;Node20 -->
<g id="edge41" class="edge">
<title>Node22&#45;&gt;Node20</title>
<path fill="none" stroke="midnightblue" d="M1003.89,-215.77C1024.92,-205.99 1053.39,-192.75 1071.85,-184.17"/>
<polygon fill="midnightblue" stroke="midnightblue" points="1002.41,-212.6 994.82,-219.98 1005.36,-218.94 1002.41,-212.6"/>
</g>
<!-- Node22&#45;&gt;Node23 -->
<g id="edge42" class="edge">
<title>Node22&#45;&gt;Node23</title>
<path fill="none" stroke="midnightblue" d="M1031.05,-218.1C1085.8,-207.66 1168.71,-191.85 1216.64,-182.72"/>
<polygon fill="midnightblue" stroke="midnightblue" points="1030.33,-214.67 1021.17,-219.98 1031.64,-221.55 1030.33,-214.67"/>
</g>
<!-- Node25&#45;&gt;Node4 -->
<g id="edge46" class="edge">
<title>Node25&#45;&gt;Node4</title>
<path fill="none" stroke="midnightblue" d="M1338.45,-165.52C1337.12,-165.34 1335.8,-165.17 1334.5,-165 1188.66,-146.44 1016.49,-132.08 926.12,-125.12"/>
<polygon fill="midnightblue" stroke="midnightblue" points="1338.36,-169.04 1348.75,-166.99 1339.35,-162.11 1338.36,-169.04"/>
</g>
<!-- Node25&#45;&gt;Node7 -->
<g id="edge47" class="edge">
<title>Node25&#45;&gt;Node7</title>
<path fill="none" stroke="midnightblue" d="M1394.65,-155.12C1403.81,-131.56 1419.33,-91.66 1426.13,-74.16"/>
<polygon fill="midnightblue" stroke="midnightblue" points="1391.3,-154.07 1390.94,-164.66 1397.82,-156.61 1391.3,-154.07"/>
</g>
<!-- Node25&#45;&gt;Node12 -->
<g id="edge48" class="edge">
<title>Node25&#45;&gt;Node12</title>
<path fill="none" stroke="midnightblue" d="M1376.99,-155.76C1363.07,-132.28 1339.09,-91.81 1328.63,-74.16"/>
<polygon fill="midnightblue" stroke="midnightblue" points="1374.15,-157.84 1382.26,-164.66 1380.18,-154.27 1374.15,-157.84"/>
</g>
<!-- Node26&#45;&gt;Node3 -->
<g id="edge51" class="edge">
<title>Node26&#45;&gt;Node3</title>
<path fill="none" stroke="midnightblue" d="M416.26,-218.31C475.6,-208.36 564.88,-193.38 620.59,-184.04"/>
<polygon fill="midnightblue" stroke="midnightblue" points="415.55,-214.88 406.27,-219.98 416.71,-221.78 415.55,-214.88"/>
</g>
<!-- Node26&#45;&gt;Node4 -->
<g id="edge52" class="edge">
<title>Node26&#45;&gt;Node4</title>
<path fill="none" stroke="midnightblue" d="M325.07,-215.42C300.13,-202.93 271.51,-183.35 288.5,-165 322.74,-128.01 658.91,-121.68 800.81,-120.66"/>
<polygon fill="midnightblue" stroke="midnightblue" points="323.81,-218.69 334.35,-219.84 326.83,-212.37 323.81,-218.69"/>
</g>
<!-- Node26&#45;&gt;Node17 -->
<g id="edge53" class="edge">
<title>Node26&#45;&gt;Node17</title>
<path fill="none" stroke="midnightblue" d="M385.77,-216.16C409.84,-206.35 442.9,-192.87 464.23,-184.17"/>
<polygon fill="midnightblue" stroke="midnightblue" points="384.33,-212.97 376.39,-219.98 386.97,-219.45 384.33,-212.97"/>
</g>
<!-- Node27 -->
<g id="node27" class="node">
<title>Node27</title>
<g id="a_node27"><a xlink:href="../../df/de8/a00839.html" target="_top" xlink:title=" ">
<polygon fill="none" stroke="black" points="413.5,-184 297.5,-184 297.5,-165 413.5,-165 413.5,-184"/>
<text text-anchor="middle" x="355.5" y="-172" font-family="Helvetica,sans-Serif" font-size="10.00">ReactionEntities.cpp</text>
</a>
</g>
</g>
<!-- Node26&#45;&gt;Node27 -->
<g id="edge54" class="edge">
<title>Node26&#45;&gt;Node27</title>
<path fill="none" stroke="midnightblue" d="M355.5,-209.66C355.5,-200.93 355.5,-190.99 355.5,-184.09"/>
<polygon fill="midnightblue" stroke="midnightblue" points="352,-209.75 355.5,-219.75 359,-209.75 352,-209.75"/>
</g>
</g>
</svg>
