<?xml version="1.0" encoding="UTF-8" standalone="no"?>
<!DOCTYPE svg PUBLIC "-//W3C//DTD SVG 1.1//EN"
 "http://www.w3.org/Graphics/SVG/1.1/DTD/svg11.dtd">
<!-- Generated by graphviz version 3.0.0 (20220226.1711)
 -->
<!-- Title: DiscordCoreAPI::ButtonCollector::ButtonCollector Pages: 1 -->
<svg width="339pt" height="137pt"
 viewBox="0.00 0.00 339.00 137.00" xmlns="http://www.w3.org/2000/svg" xmlns:xlink="http://www.w3.org/1999/xlink">
<g id="graph0" class="graph" transform="scale(1 1) rotate(0) translate(4 133)">
<title>DiscordCoreAPI::ButtonCollector::ButtonCollector</title>
<!-- Node1 -->
<g id="node1" class="node">
<title>Node1</title>
<g id="a_node1"><a xlink:title="Constructor.">
<polygon fill="#bfbfbf" stroke="black" points="0,-49.5 0,-79.5 158,-79.5 158,-49.5 0,-49.5"/>
<text text-anchor="start" x="8" y="-67.5" font-family="Helvetica,sans-Serif" font-size="10.00">DiscordCoreAPI::ButtonCollector</text>
<text text-anchor="middle" x="79" y="-56.5" font-family="Helvetica,sans-Serif" font-size="10.00">::ButtonCollector</text>
</a>
</g>
</g>
<!-- Node2 -->
<g id="node2" class="node">
<title>Node2</title>
<g id="a_node2"><a xlink:href="../../df/d9c/a02793.html#a97c397fe274250bfff73cf674810a8f5" target="_top" xlink:title="Returns the Channel id of this input&#45;event.">
<polygon fill="none" stroke="black" points="194,-98.5 194,-128.5 331,-128.5 331,-98.5 194,-98.5"/>
<text text-anchor="start" x="202" y="-116.5" font-family="Helvetica,sans-Serif" font-size="10.00">DiscordCoreAPI::InputEvent</text>
<text text-anchor="middle" x="262.5" y="-105.5" font-family="Helvetica,sans-Serif" font-size="10.00">Data::getChannelId</text>
</a>
</g>
</g>
<!-- Node1&#45;&gt;Node2 -->
<g id="edge1" class="edge">
<title>Node1&#45;&gt;Node2</title>
<path fill="none" stroke="midnightblue" d="M135.94,-79.6C154.92,-84.73 176.29,-90.5 195.95,-95.8"/>
<polygon fill="midnightblue" stroke="midnightblue" points="195.18,-99.22 205.75,-98.45 197.01,-92.46 195.18,-99.22"/>
</g>
<!-- Node3 -->
<g id="node3" class="node">
<title>Node3</title>
<g id="a_node3"><a xlink:href="../../df/d9c/a02793.html#a520bbb225cdbd19ef871d3a00189acff" target="_top" xlink:title="Returns the InteractionData, if applicable, of this input&#45;event.">
<polygon fill="none" stroke="black" points="194,-49.5 194,-79.5 331,-79.5 331,-49.5 194,-49.5"/>
<text text-anchor="start" x="202" y="-67.5" font-family="Helvetica,sans-Serif" font-size="10.00">DiscordCoreAPI::InputEvent</text>
<text text-anchor="middle" x="262.5" y="-56.5" font-family="Helvetica,sans-Serif" font-size="10.00">Data::getInteractionData</text>
</a>
</g>
</g>
<!-- Node1&#45;&gt;Node3 -->
<g id="edge2" class="edge">
<title>Node1&#45;&gt;Node3</title>
<path fill="none" stroke="midnightblue" d="M158.03,-64.5C166.5,-64.5 175.12,-64.5 183.59,-64.5"/>
<polygon fill="midnightblue" stroke="midnightblue" points="183.82,-68 193.82,-64.5 183.82,-61 183.82,-68"/>
</g>
<!-- Node4 -->
<g id="node4" class="node">
<title>Node4</title>
<g id="a_node4"><a xlink:href="../../df/d9c/a02793.html#af7be2b81b312794ea5398591d1a7e305" target="_top" xlink:title="Returns the Message id, if applicable, of this input&#45;event.">
<polygon fill="none" stroke="black" points="194,-0.5 194,-30.5 331,-30.5 331,-0.5 194,-0.5"/>
<text text-anchor="start" x="202" y="-18.5" font-family="Helvetica,sans-Serif" font-size="10.00">DiscordCoreAPI::InputEvent</text>
<text text-anchor="middle" x="262.5" y="-7.5" font-family="Helvetica,sans-Serif" font-size="10.00">Data::getMessageId</text>
</a>
</g>
</g>
<!-- Node1&#45;&gt;Node4 -->
<g id="edge3" class="edge">
<title>Node1&#45;&gt;Node4</title>
<path fill="none" stroke="midnightblue" d="M135.94,-49.4C154.92,-44.27 176.29,-38.5 195.95,-33.2"/>
<polygon fill="midnightblue" stroke="midnightblue" points="197.01,-36.54 205.75,-30.55 195.18,-29.78 197.01,-36.54"/>
</g>
</g>
</svg>
