<?xml version="1.0" encoding="UTF-8" standalone="no"?>
<!DOCTYPE svg PUBLIC "-//W3C//DTD SVG 1.1//EN"
 "http://www.w3.org/Graphics/SVG/1.1/DTD/svg11.dtd">
<!-- Generated by graphviz version 2.43.0 (0)
 -->
<!-- Title: ChannelEntities.hpp Pages: 1 -->
<svg width="1686pt" height="302pt"
 viewBox="0.00 0.00 1686.00 302.00" xmlns="http://www.w3.org/2000/svg" xmlns:xlink="http://www.w3.org/1999/xlink">
<g id="graph0" class="graph" transform="scale(1 1) rotate(0) translate(4 298)">
<title>ChannelEntities.hpp</title>
<!-- Node1 -->
<g id="node1" class="node">
<title>Node1</title>
<g id="a_node1"><a xlink:title=" ">
<polygon fill="#bfbfbf" stroke="black" points="1207.5,-294 1093.5,-294 1093.5,-275 1207.5,-275 1207.5,-294"/>
<text text-anchor="middle" x="1150.5" y="-282" font-family="Helvetica,sans-Serif" font-size="10.00">ChannelEntities.hpp</text>
</a>
</g>
</g>
<!-- Node2 -->
<g id="node2" class="node">
<title>Node2</title>
<g id="a_node2"><a xlink:href="../../d6/d2f/a00854.html" target="_top" xlink:title=" ">
<polygon fill="none" stroke="black" points="716,-239 603,-239 603,-220 716,-220 716,-239"/>
<text text-anchor="middle" x="659.5" y="-227" font-family="Helvetica,sans-Serif" font-size="10.00">ChannelEntities.cpp</text>
</a>
</g>
</g>
<!-- Node1&#45;&gt;Node2 -->
<g id="edge1" class="edge">
<title>Node1&#45;&gt;Node2</title>
<path fill="none" stroke="midnightblue" d="M1083.36,-276.67C1000.42,-268.17 855,-253.05 730.5,-239 725.81,-238.47 720.95,-237.91 716.07,-237.34"/>
<polygon fill="midnightblue" stroke="midnightblue" points="1083.1,-280.16 1093.41,-277.7 1083.82,-273.2 1083.1,-280.16"/>
</g>
<!-- Node3 -->
<g id="node3" class="node">
<title>Node3</title>
<g id="a_node3"><a xlink:href="../../dc/d17/a00872.html" target="_top" xlink:title=" ">
<polygon fill="none" stroke="black" points="1078.5,-184 936.5,-184 936.5,-165 1078.5,-165 1078.5,-184"/>
<text text-anchor="middle" x="1007.5" y="-172" font-family="Helvetica,sans-Serif" font-size="10.00">DataParsingFunctions.cpp</text>
</a>
</g>
</g>
<!-- Node1&#45;&gt;Node3 -->
<g id="edge2" class="edge">
<title>Node1&#45;&gt;Node3</title>
<path fill="none" stroke="midnightblue" d="M1131.99,-268.33C1115.92,-255.27 1091.93,-236.06 1070.5,-220 1053.35,-207.15 1033.03,-192.98 1020.2,-184.16"/>
<polygon fill="midnightblue" stroke="midnightblue" points="1130.07,-271.28 1140.04,-274.89 1134.5,-265.85 1130.07,-271.28"/>
</g>
<!-- Node4 -->
<g id="node4" class="node">
<title>Node4</title>
<g id="a_node4"><a xlink:href="../../d9/dd4/a00776.html" target="_top" xlink:title=" ">
<polygon fill="none" stroke="black" points="826,-129 701,-129 701,-110 826,-110 826,-129"/>
<text text-anchor="middle" x="763.5" y="-117" font-family="Helvetica,sans-Serif" font-size="10.00">DiscordCoreClient.hpp</text>
</a>
</g>
</g>
<!-- Node1&#45;&gt;Node4 -->
<g id="edge3" class="edge">
<title>Node1&#45;&gt;Node4</title>
<path fill="none" stroke="midnightblue" d="M1083.17,-273.98C988.11,-259.16 821.54,-227.67 780.5,-184 766.12,-168.7 763.63,-142.59 763.37,-129.11"/>
<polygon fill="midnightblue" stroke="midnightblue" points="1082.85,-277.47 1093.26,-275.53 1083.91,-270.55 1082.85,-277.47"/>
</g>
<!-- Node18 -->
<g id="node18" class="node">
<title>Node18</title>
<g id="a_node18"><a xlink:href="../../df/d9e/a00686.html" target="_top" xlink:title=" ">
<polygon fill="none" stroke="black" points="1204,-184 1097,-184 1097,-165 1204,-165 1204,-184"/>
<text text-anchor="middle" x="1150.5" y="-172" font-family="Helvetica,sans-Serif" font-size="10.00">EventManager.hpp</text>
</a>
</g>
</g>
<!-- Node1&#45;&gt;Node18 -->
<g id="edge17" class="edge">
<title>Node1&#45;&gt;Node18</title>
<path fill="none" stroke="midnightblue" d="M1150.5,-264.48C1150.5,-240.84 1150.5,-201.5 1150.5,-184.16"/>
<polygon fill="midnightblue" stroke="midnightblue" points="1147,-264.66 1150.5,-274.66 1154,-264.66 1147,-264.66"/>
</g>
<!-- Node19 -->
<g id="node19" class="node">
<title>Node19</title>
<g id="a_node19"><a xlink:href="../../da/db8/a00797.html" target="_top" xlink:title=" ">
<polygon fill="none" stroke="black" points="1584.5,-184 1456.5,-184 1456.5,-165 1584.5,-165 1584.5,-184"/>
<text text-anchor="middle" x="1520.5" y="-172" font-family="Helvetica,sans-Serif" font-size="10.00">FoundationEntities.cpp</text>
</a>
</g>
</g>
<!-- Node1&#45;&gt;Node19 -->
<g id="edge21" class="edge">
<title>Node1&#45;&gt;Node19</title>
<path fill="none" stroke="midnightblue" d="M1190.78,-272.08C1219.2,-263.7 1258.03,-251.63 1291.5,-239 1311.05,-231.62 1314.7,-226.68 1334.5,-220 1381.38,-204.18 1436.69,-191.7 1474.75,-184.03"/>
<polygon fill="midnightblue" stroke="midnightblue" points="1189.43,-268.82 1180.81,-274.99 1191.39,-275.54 1189.43,-268.82"/>
</g>
<!-- Node20 -->
<g id="node20" class="node">
<title>Node20</title>
<g id="a_node20"><a xlink:href="../../d2/d94/a00716.html" target="_top" xlink:title=" ">
<polygon fill="none" stroke="black" points="1282.5,-239 1182.5,-239 1182.5,-220 1282.5,-220 1282.5,-239"/>
<text text-anchor="middle" x="1232.5" y="-227" font-family="Helvetica,sans-Serif" font-size="10.00">GuildEntities.hpp</text>
</a>
</g>
</g>
<!-- Node1&#45;&gt;Node20 -->
<g id="edge22" class="edge">
<title>Node1&#45;&gt;Node20</title>
<path fill="none" stroke="midnightblue" d="M1172.28,-269.42C1187.16,-259.81 1206.41,-247.37 1219.09,-239.17"/>
<polygon fill="midnightblue" stroke="midnightblue" points="1170.17,-266.62 1163.67,-274.98 1173.97,-272.5 1170.17,-266.62"/>
</g>
<!-- Node22 -->
<g id="node22" class="node">
<title>Node22</title>
<g id="a_node22"><a xlink:href="../../d8/d2d/a00815.html" target="_top" xlink:title=" ">
<polygon fill="none" stroke="black" points="1678,-184 1603,-184 1603,-165 1678,-165 1678,-184"/>
<text text-anchor="middle" x="1640.5" y="-172" font-family="Helvetica,sans-Serif" font-size="10.00">Utilities.cpp</text>
</a>
</g>
</g>
<!-- Node1&#45;&gt;Node22 -->
<g id="edge36" class="edge">
<title>Node1&#45;&gt;Node22</title>
<path fill="none" stroke="midnightblue" d="M1203.18,-272.75C1238.53,-264.91 1285.88,-253.2 1326.5,-239 1345.84,-232.24 1348.88,-225.89 1368.5,-220 1465.49,-190.87 1493.67,-201.01 1593.5,-184 1596.52,-183.48 1599.66,-182.94 1602.8,-182.39"/>
<polygon fill="midnightblue" stroke="midnightblue" points="1202.1,-269.4 1193.08,-274.95 1203.6,-276.24 1202.1,-269.4"/>
</g>
<!-- Node23 -->
<g id="node23" class="node">
<title>Node23</title>
<g id="a_node23"><a xlink:href="../../d6/d8b/a00821.html" target="_top" xlink:title=" ">
<polygon fill="none" stroke="black" points="1472,-239 1377,-239 1377,-220 1472,-220 1472,-239"/>
<text text-anchor="middle" x="1424.5" y="-227" font-family="Helvetica,sans-Serif" font-size="10.00">InputEvents.cpp</text>
</a>
</g>
</g>
<!-- Node1&#45;&gt;Node23 -->
<g id="edge30" class="edge">
<title>Node1&#45;&gt;Node23</title>
<path fill="none" stroke="midnightblue" d="M1204.45,-273.07C1255.81,-263.13 1332.2,-248.35 1380.13,-239.08"/>
<polygon fill="midnightblue" stroke="midnightblue" points="1203.68,-269.65 1194.52,-274.98 1205.01,-276.52 1203.68,-269.65"/>
</g>
<!-- Node24 -->
<g id="node24" class="node">
<title>Node24</title>
<g id="a_node24"><a xlink:href="../../d6/dc0/a00734.html" target="_top" xlink:title=" ">
<polygon fill="none" stroke="black" points="1061.5,-239 953.5,-239 953.5,-220 1061.5,-220 1061.5,-239"/>
<text text-anchor="middle" x="1007.5" y="-227" font-family="Helvetica,sans-Serif" font-size="10.00">ThreadEntities.hpp</text>
</a>
</g>
</g>
<!-- Node1&#45;&gt;Node24 -->
<g id="edge31" class="edge">
<title>Node1&#45;&gt;Node24</title>
<path fill="none" stroke="midnightblue" d="M1117.91,-271.42C1091.38,-261.59 1054.57,-247.95 1030.89,-239.17"/>
<polygon fill="midnightblue" stroke="midnightblue" points="1116.93,-274.79 1127.52,-274.98 1119.36,-268.23 1116.93,-274.79"/>
</g>
<!-- Node5 -->
<g id="node5" class="node">
<title>Node5</title>
<g id="a_node5"><a xlink:href="../../d2/d5e/a00860.html" target="_top" xlink:title=" ">
<polygon fill="none" stroke="black" points="1091,-74 912,-74 912,-55 1091,-55 1091,-74"/>
<text text-anchor="middle" x="1001.5" y="-62" font-family="Helvetica,sans-Serif" font-size="10.00">ApplicationCommandEntities.cpp</text>
</a>
</g>
</g>
<!-- Node4&#45;&gt;Node5 -->
<g id="edge4" class="edge">
<title>Node4&#45;&gt;Node5</title>
<path fill="none" stroke="midnightblue" d="M811.76,-107.75C856.36,-97.82 921.76,-83.26 962.96,-74.08"/>
<polygon fill="midnightblue" stroke="midnightblue" points="810.74,-104.39 801.74,-109.98 812.26,-111.23 810.74,-104.39"/>
</g>
<!-- Node6 -->
<g id="node6" class="node">
<title>Node6</title>
<g id="a_node6"><a xlink:href="../../d0/d11/a00842.html" target="_top" xlink:title=" ">
<polygon fill="none" stroke="black" points="125,-74 0,-74 0,-55 125,-55 125,-74"/>
<text text-anchor="middle" x="62.5" y="-62" font-family="Helvetica,sans-Serif" font-size="10.00">DiscordCoreClient.cpp</text>
</a>
</g>
</g>
<!-- Node4&#45;&gt;Node6 -->
<g id="edge5" class="edge">
<title>Node4&#45;&gt;Node6</title>
<path fill="none" stroke="midnightblue" d="M690.52,-114.5C573.05,-107.8 334.82,-93.15 133.5,-74 130.78,-73.74 128.01,-73.46 125.2,-73.17"/>
<polygon fill="midnightblue" stroke="midnightblue" points="690.64,-118.01 700.82,-115.09 691.04,-111.02 690.64,-118.01"/>
</g>
<!-- Node7 -->
<g id="node7" class="node">
<title>Node7</title>
<g id="a_node7"><a xlink:href="../../df/d41/a00881.html" target="_top" xlink:title=" ">
<polygon fill="none" stroke="black" points="1216,-74 1109,-74 1109,-55 1216,-55 1216,-74"/>
<text text-anchor="middle" x="1162.5" y="-62" font-family="Helvetica,sans-Serif" font-size="10.00">EventManager.cpp</text>
</a>
</g>
</g>
<!-- Node4&#45;&gt;Node7 -->
<g id="edge6" class="edge">
<title>Node4&#45;&gt;Node7</title>
<path fill="none" stroke="midnightblue" d="M836.24,-108.92C904.3,-99.94 1008.8,-86.13 1099.5,-74 1102.56,-73.59 1105.71,-73.17 1108.88,-72.74"/>
<polygon fill="midnightblue" stroke="midnightblue" points="835.51,-105.48 826.05,-110.26 836.42,-112.42 835.51,-105.48"/>
</g>
<!-- Node8 -->
<g id="node8" class="node">
<title>Node8</title>
<g id="a_node8"><a xlink:href="../../d5/d69/a00878.html" target="_top" xlink:title=" ">
<polygon fill="none" stroke="black" points="1478,-74 1379,-74 1379,-55 1478,-55 1478,-74"/>
<text text-anchor="middle" x="1428.5" y="-62" font-family="Helvetica,sans-Serif" font-size="10.00">GuildEntities.cpp</text>
</a>
</g>
</g>
<!-- Node4&#45;&gt;Node8 -->
<g id="edge7" class="edge">
<title>Node4&#45;&gt;Node8</title>
<path fill="none" stroke="midnightblue" d="M836.12,-114.88C950.15,-108.81 1178.06,-95.13 1370.5,-74 1373.23,-73.7 1376.03,-73.37 1378.86,-73.02"/>
<polygon fill="midnightblue" stroke="midnightblue" points="835.92,-111.38 826.11,-115.41 836.28,-118.37 835.92,-111.38"/>
</g>
<!-- Node9 -->
<g id="node9" class="node">
<title>Node9</title>
<g id="a_node9"><a xlink:href="../../d5/d12/a00794.html" target="_top" xlink:title=" ">
<polygon fill="none" stroke="black" points="206,-74 143,-74 143,-55 206,-55 206,-74"/>
<text text-anchor="middle" x="174.5" y="-62" font-family="Helvetica,sans-Serif" font-size="10.00">Https.cpp</text>
</a>
</g>
</g>
<!-- Node4&#45;&gt;Node9 -->
<g id="edge8" class="edge">
<title>Node4&#45;&gt;Node9</title>
<path fill="none" stroke="midnightblue" d="M690.41,-115.57C584.88,-110.65 383.91,-98.76 214.5,-74 211.83,-73.61 209.07,-73.15 206.31,-72.64"/>
<polygon fill="midnightblue" stroke="midnightblue" points="690.48,-119.07 700.63,-116.03 690.8,-112.08 690.48,-119.07"/>
</g>
<!-- Node10 -->
<g id="node10" class="node">
<title>Node10</title>
<g id="a_node10"><a xlink:href="../../d5/de8/a00749.html" target="_top" xlink:title=" ">
<polygon fill="none" stroke="black" points="289,-74 224,-74 224,-55 289,-55 289,-74"/>
<text text-anchor="middle" x="256.5" y="-62" font-family="Helvetica,sans-Serif" font-size="10.00">Index.hpp</text>
</a>
</g>
</g>
<!-- Node4&#45;&gt;Node10 -->
<g id="edge9" class="edge">
<title>Node4&#45;&gt;Node10</title>
<path fill="none" stroke="midnightblue" d="M690.63,-114.02C598.66,-107.79 435.76,-94.87 297.5,-74 294.77,-73.59 291.94,-73.11 289.12,-72.6"/>
<polygon fill="midnightblue" stroke="midnightblue" points="690.46,-117.51 700.67,-114.69 690.93,-110.53 690.46,-117.51"/>
</g>
<!-- Node12 -->
<g id="node12" class="node">
<title>Node12</title>
<g id="a_node12"><a xlink:href="../../d3/db2/a00869.html" target="_top" xlink:title=" ">
<polygon fill="none" stroke="black" points="424,-74 307,-74 307,-55 424,-55 424,-74"/>
<text text-anchor="middle" x="365.5" y="-62" font-family="Helvetica,sans-Serif" font-size="10.00">MessageEntities.cpp</text>
</a>
</g>
</g>
<!-- Node4&#45;&gt;Node12 -->
<g id="edge11" class="edge">
<title>Node4&#45;&gt;Node12</title>
<path fill="none" stroke="midnightblue" d="M690.82,-108.82C614.22,-98.62 495.05,-82.75 424.19,-73.32"/>
<polygon fill="midnightblue" stroke="midnightblue" points="690.5,-112.31 700.87,-110.16 691.42,-105.37 690.5,-112.31"/>
</g>
<!-- Node13 -->
<g id="node13" class="node">
<title>Node13</title>
<g id="a_node13"><a xlink:href="../../d8/db7/a00812.html" target="_top" xlink:title=" ">
<polygon fill="none" stroke="black" points="519,-74 442,-74 442,-55 519,-55 519,-74"/>
<text text-anchor="middle" x="480.5" y="-62" font-family="Helvetica,sans-Serif" font-size="10.00">SongAPI.cpp</text>
</a>
</g>
</g>
<!-- Node4&#45;&gt;Node13 -->
<g id="edge12" class="edge">
<title>Node4&#45;&gt;Node13</title>
<path fill="none" stroke="midnightblue" d="M707.97,-108.1C652.23,-97.66 567.83,-81.85 519.04,-72.72"/>
<polygon fill="midnightblue" stroke="midnightblue" points="707.56,-111.58 718.03,-109.98 708.85,-104.7 707.56,-111.58"/>
</g>
<!-- Node14 -->
<g id="node14" class="node">
<title>Node14</title>
<g id="a_node14"><a xlink:href="../../d7/d49/a00863.html" target="_top" xlink:title=" ">
<polygon fill="none" stroke="black" points="647.5,-74 537.5,-74 537.5,-55 647.5,-55 647.5,-74"/>
<text text-anchor="middle" x="592.5" y="-62" font-family="Helvetica,sans-Serif" font-size="10.00">SoundCloudAPI.cpp</text>
</a>
</g>
</g>
<!-- Node4&#45;&gt;Node14 -->
<g id="edge13" class="edge">
<title>Node4&#45;&gt;Node14</title>
<path fill="none" stroke="midnightblue" d="M726.16,-106.93C694.22,-97.03 648.98,-83.01 620.19,-74.08"/>
<polygon fill="midnightblue" stroke="midnightblue" points="725.44,-110.37 736.03,-109.98 727.51,-103.68 725.44,-110.37"/>
</g>
<!-- Node15 -->
<g id="node15" class="node">
<title>Node15</title>
<g id="a_node15"><a xlink:href="../../d1/d93/a00875.html" target="_top" xlink:title=" ">
<polygon fill="none" stroke="black" points="783.5,-74 665.5,-74 665.5,-55 783.5,-55 783.5,-74"/>
<text text-anchor="middle" x="724.5" y="-62" font-family="Helvetica,sans-Serif" font-size="10.00">VoiceConnection.cpp</text>
</a>
</g>
</g>
<!-- Node4&#45;&gt;Node15 -->
<g id="edge14" class="edge">
<title>Node4&#45;&gt;Node15</title>
<path fill="none" stroke="midnightblue" d="M751.12,-101.67C744.36,-92.5 736.29,-81.52 730.82,-74.09"/>
<polygon fill="midnightblue" stroke="midnightblue" points="748.31,-103.77 757.06,-109.75 753.95,-99.62 748.31,-103.77"/>
</g>
<!-- Node16 -->
<g id="node16" class="node">
<title>Node16</title>
<g id="a_node16"><a xlink:href="../../d9/daf/a00830.html" target="_top" xlink:title=" ">
<polygon fill="none" stroke="black" points="1361,-74 1234,-74 1234,-55 1361,-55 1361,-74"/>
<text text-anchor="middle" x="1297.5" y="-62" font-family="Helvetica,sans-Serif" font-size="10.00">WebSocketEntities.cpp</text>
</a>
</g>
</g>
<!-- Node4&#45;&gt;Node16 -->
<g id="edge15" class="edge">
<title>Node4&#45;&gt;Node16</title>
<path fill="none" stroke="midnightblue" d="M836.37,-111.91C927.28,-103.59 1087.46,-88.59 1224.5,-74 1227.55,-73.68 1230.66,-73.34 1233.81,-72.99"/>
<polygon fill="midnightblue" stroke="midnightblue" points="835.81,-108.45 826.17,-112.84 836.45,-115.42 835.81,-108.45"/>
</g>
<!-- Node17 -->
<g id="node17" class="node">
<title>Node17</title>
<g id="a_node17"><a xlink:href="../../d4/d45/a00791.html" target="_top" xlink:title=" ">
<polygon fill="none" stroke="black" points="893.5,-74 801.5,-74 801.5,-55 893.5,-55 893.5,-74"/>
<text text-anchor="middle" x="847.5" y="-62" font-family="Helvetica,sans-Serif" font-size="10.00">YouTubeAPI.cpp</text>
</a>
</g>
</g>
<!-- Node4&#45;&gt;Node17 -->
<g id="edge16" class="edge">
<title>Node4&#45;&gt;Node17</title>
<path fill="none" stroke="midnightblue" d="M785.81,-104.42C801.05,-94.81 820.77,-82.37 833.76,-74.17"/>
<polygon fill="midnightblue" stroke="midnightblue" points="783.59,-101.69 777,-109.98 787.32,-107.61 783.59,-101.69"/>
</g>
<!-- Node11 -->
<g id="node11" class="node">
<title>Node11</title>
<g id="a_node11"><a xlink:href="../../da/d96/a00782.html" target="_top" xlink:title=" ">
<polygon fill="none" stroke="black" points="293.5,-19 219.5,-19 219.5,0 293.5,0 293.5,-19"/>
<text text-anchor="middle" x="256.5" y="-7" font-family="Helvetica,sans-Serif" font-size="10.00">DllMain.cpp</text>
</a>
</g>
</g>
<!-- Node10&#45;&gt;Node11 -->
<g id="edge10" class="edge">
<title>Node10&#45;&gt;Node11</title>
<path fill="none" stroke="midnightblue" d="M256.5,-44.66C256.5,-35.93 256.5,-25.99 256.5,-19.09"/>
<polygon fill="midnightblue" stroke="midnightblue" points="253,-44.75 256.5,-54.75 260,-44.75 253,-44.75"/>
</g>
<!-- Node18&#45;&gt;Node4 -->
<g id="edge18" class="edge">
<title>Node18&#45;&gt;Node4</title>
<path fill="none" stroke="midnightblue" d="M1086.36,-164.72C1014.07,-154.82 897.34,-138.83 825.81,-129.03"/>
<polygon fill="midnightblue" stroke="midnightblue" points="1086.31,-168.24 1096.69,-166.13 1087.26,-161.31 1086.31,-168.24"/>
</g>
<!-- Node18&#45;&gt;Node7 -->
<g id="edge19" class="edge">
<title>Node18&#45;&gt;Node7</title>
<path fill="none" stroke="midnightblue" d="M1152.61,-154.48C1155.24,-130.84 1159.61,-91.5 1161.54,-74.16"/>
<polygon fill="midnightblue" stroke="midnightblue" points="1149.11,-154.34 1151.48,-164.66 1156.07,-155.11 1149.11,-154.34"/>
</g>
<!-- Node18&#45;&gt;Node16 -->
<g id="edge20" class="edge">
<title>Node18&#45;&gt;Node16</title>
<path fill="none" stroke="midnightblue" d="M1170.63,-158.71C1201.75,-135.85 1260.56,-92.64 1285.66,-74.2"/>
<polygon fill="midnightblue" stroke="midnightblue" points="1168.27,-156.1 1162.28,-164.84 1172.41,-161.74 1168.27,-156.1"/>
</g>
<!-- Node20&#45;&gt;Node3 -->
<g id="edge23" class="edge">
<title>Node20&#45;&gt;Node3</title>
<path fill="none" stroke="midnightblue" d="M1186.61,-217.69C1144.45,-207.76 1082.8,-193.24 1043.93,-184.08"/>
<polygon fill="midnightblue" stroke="midnightblue" points="1185.81,-221.1 1196.35,-219.98 1187.42,-214.28 1185.81,-221.1"/>
</g>
<!-- Node20&#45;&gt;Node4 -->
<g id="edge24" class="edge">
<title>Node20&#45;&gt;Node4</title>
<path fill="none" stroke="midnightblue" d="M1231.88,-209.52C1230.31,-195 1225.67,-175.7 1212.5,-165 1183.16,-141.17 942.86,-127.98 826.36,-122.93"/>
<polygon fill="midnightblue" stroke="midnightblue" points="1228.41,-210.15 1232.57,-219.89 1235.39,-209.68 1228.41,-210.15"/>
</g>
<!-- Node20&#45;&gt;Node8 -->
<g id="edge27" class="edge">
<title>Node20&#45;&gt;Node8</title>
<path fill="none" stroke="midnightblue" d="M1286.64,-218.01C1335.51,-208.04 1401.04,-193.23 1409.5,-184 1438.21,-152.66 1433.23,-96.02 1430.02,-74.3"/>
<polygon fill="midnightblue" stroke="midnightblue" points="1285.91,-214.58 1276.8,-219.99 1287.29,-221.44 1285.91,-214.58"/>
</g>
<!-- Node20&#45;&gt;Node18 -->
<g id="edge25" class="edge">
<title>Node20&#45;&gt;Node18</title>
<path fill="none" stroke="midnightblue" d="M1210.72,-214.42C1195.84,-204.81 1176.59,-192.37 1163.91,-184.17"/>
<polygon fill="midnightblue" stroke="midnightblue" points="1209.03,-217.5 1219.33,-219.98 1212.83,-211.62 1209.03,-217.5"/>
</g>
<!-- Node20&#45;&gt;Node19 -->
<g id="edge26" class="edge">
<title>Node20&#45;&gt;Node19</title>
<path fill="none" stroke="midnightblue" d="M1288.87,-218.13C1342.86,-208.19 1423.38,-193.37 1473.87,-184.08"/>
<polygon fill="midnightblue" stroke="midnightblue" points="1287.97,-214.73 1278.77,-219.98 1289.24,-221.62 1287.97,-214.73"/>
</g>
<!-- Node21 -->
<g id="node21" class="node">
<title>Node21</title>
<g id="a_node21"><a xlink:href="../../df/de8/a00839.html" target="_top" xlink:title=" ">
<polygon fill="none" stroke="black" points="1400.5,-184 1260.5,-184 1260.5,-165 1400.5,-165 1400.5,-184"/>
<text text-anchor="middle" x="1330.5" y="-172" font-family="Helvetica,sans-Serif" font-size="10.00">GuildMemberEntities.cpp</text>
</a>
</g>
</g>
<!-- Node20&#45;&gt;Node21 -->
<g id="edge28" class="edge">
<title>Node20&#45;&gt;Node21</title>
<path fill="none" stroke="midnightblue" d="M1257.53,-214.97C1275.44,-205.28 1299.03,-192.52 1314.47,-184.17"/>
<polygon fill="midnightblue" stroke="midnightblue" points="1255.38,-212.15 1248.25,-219.98 1258.71,-218.31 1255.38,-212.15"/>
</g>
<!-- Node20&#45;&gt;Node22 -->
<g id="edge29" class="edge">
<title>Node20&#45;&gt;Node22</title>
<path fill="none" stroke="midnightblue" d="M1292.76,-222.12C1364.55,-214.28 1488.03,-200.03 1593.5,-184 1596.53,-183.54 1599.67,-183.03 1602.82,-182.51"/>
<polygon fill="midnightblue" stroke="midnightblue" points="1292.11,-218.67 1282.55,-223.23 1292.87,-225.63 1292.11,-218.67"/>
</g>
<!-- Node24&#45;&gt;Node3 -->
<g id="edge32" class="edge">
<title>Node24&#45;&gt;Node3</title>
<path fill="none" stroke="midnightblue" d="M1007.5,-209.66C1007.5,-200.93 1007.5,-190.99 1007.5,-184.09"/>
<polygon fill="midnightblue" stroke="midnightblue" points="1004,-209.75 1007.5,-219.75 1011,-209.75 1004,-209.75"/>
</g>
<!-- Node24&#45;&gt;Node4 -->
<g id="edge33" class="edge">
<title>Node24&#45;&gt;Node4</title>
<path fill="none" stroke="midnightblue" d="M943.08,-227.64C899.52,-224.12 842.65,-213.51 801.5,-184 782.08,-170.07 770.82,-142.86 766.11,-129.02"/>
<polygon fill="midnightblue" stroke="midnightblue" points="943.07,-231.15 953.29,-228.35 943.56,-224.16 943.07,-231.15"/>
</g>
<!-- Node24&#45;&gt;Node18 -->
<g id="edge34" class="edge">
<title>Node24&#45;&gt;Node18</title>
<path fill="none" stroke="midnightblue" d="M1040.09,-216.42C1066.62,-206.59 1103.43,-192.95 1127.11,-184.17"/>
<polygon fill="midnightblue" stroke="midnightblue" points="1038.64,-213.23 1030.48,-219.98 1041.07,-219.79 1038.64,-213.23"/>
</g>
<!-- Node25 -->
<g id="node25" class="node">
<title>Node25</title>
<g id="a_node25"><a xlink:href="../../d0/d82/a00857.html" target="_top" xlink:title=" ">
<polygon fill="none" stroke="black" points="918,-184 811,-184 811,-165 918,-165 918,-184"/>
<text text-anchor="middle" x="864.5" y="-172" font-family="Helvetica,sans-Serif" font-size="10.00">ThreadEntities.cpp</text>
</a>
</g>
</g>
<!-- Node24&#45;&gt;Node25 -->
<g id="edge35" class="edge">
<title>Node24&#45;&gt;Node25</title>
<path fill="none" stroke="midnightblue" d="M974.91,-216.42C948.38,-206.59 911.57,-192.95 887.89,-184.17"/>
<polygon fill="midnightblue" stroke="midnightblue" points="973.93,-219.79 984.52,-219.98 976.36,-213.23 973.93,-219.79"/>
</g>
</g>
</svg>
