<?xml version="1.0" encoding="UTF-8" standalone="no"?>
<!DOCTYPE svg PUBLIC "-//W3C//DTD SVG 1.1//EN"
 "http://www.w3.org/Graphics/SVG/1.1/DTD/svg11.dtd">
<!-- Generated by graphviz version 3.0.0 (20220226.1711)
 -->
<!-- Title: VoiceConnection.hpp Pages: 1 -->
<svg width="1392pt" height="308pt"
 viewBox="0.00 0.00 1391.50 308.00" xmlns="http://www.w3.org/2000/svg" xmlns:xlink="http://www.w3.org/1999/xlink">
<g id="graph0" class="graph" transform="scale(1 1) rotate(0) translate(4 304)">
<title>VoiceConnection.hpp</title>
<!-- Node1 -->
<g id="node1" class="node">
<title>Node1</title>
<g id="a_node1"><a xlink:title=" ">
<polygon fill="#bfbfbf" stroke="black" points="938.5,-280.5 938.5,-299.5 1047.5,-299.5 1047.5,-280.5 938.5,-280.5"/>
<text text-anchor="middle" x="993" y="-287.5" font-family="Helvetica,sans-Serif" font-size="10.00">VoiceConnection.hpp</text>
</a>
</g>
</g>
<!-- Node2 -->
<g id="node2" class="node">
<title>Node2</title>
<g id="a_node2"><a xlink:href="$df/dbb/a00698.html" xlink:title=" ">
<polygon fill="none" stroke="black" points="528.5,-112.5 528.5,-131.5 641.5,-131.5 641.5,-112.5 528.5,-112.5"/>
<text text-anchor="middle" x="585" y="-119.5" font-family="Helvetica,sans-Serif" font-size="10.00">DiscordCoreClient.hpp</text>
</a>
</g>
</g>
<!-- Node1&#45;&gt;Node2 -->
<g id="edge1" class="edge">
<title>Node1&#45;&gt;Node2</title>
<path fill="none" stroke="midnightblue" d="M996.26,-270.46C999.78,-243.7 1001.65,-194.55 974,-168 950.49,-145.43 743.96,-131.42 641.77,-125.82"/>
<polygon fill="midnightblue" stroke="midnightblue" points="992.78,-270.01 994.72,-280.43 999.7,-271.08 992.78,-270.01"/>
</g>
<!-- Node11 -->
<g id="node11" class="node">
<title>Node11</title>
<g id="a_node11"><a xlink:href="$d9/d30/a00848.html" xlink:title=" ">
<polygon fill="none" stroke="black" points="0,-56.5 0,-75.5 74,-75.5 74,-56.5 0,-56.5"/>
<text text-anchor="middle" x="37" y="-63.5" font-family="Helvetica,sans-Serif" font-size="10.00">SongAPI.cpp</text>
</a>
</g>
</g>
<!-- Node1&#45;&gt;Node11 -->
<g id="edge26" class="edge">
<title>Node1&#45;&gt;Node11</title>
<path fill="none" stroke="midnightblue" d="M928.07,-288.47C750.44,-285.95 260.82,-271.4 127,-188 81.23,-159.47 50.84,-98.51 40.72,-75.78"/>
<polygon fill="midnightblue" stroke="midnightblue" points="928.26,-291.98 938.31,-288.61 928.36,-284.98 928.26,-291.98"/>
</g>
<!-- Node12 -->
<g id="node12" class="node">
<title>Node12</title>
<g id="a_node12"><a xlink:href="$df/d4c/a00851.html" xlink:title=" ">
<polygon fill="none" stroke="black" points="1045,-56.5 1045,-75.5 1149,-75.5 1149,-56.5 1045,-56.5"/>
<text text-anchor="middle" x="1097" y="-63.5" font-family="Helvetica,sans-Serif" font-size="10.00">SoundCloudAPI.cpp</text>
</a>
</g>
</g>
<!-- Node1&#45;&gt;Node12 -->
<g id="edge31" class="edge">
<title>Node1&#45;&gt;Node12</title>
<path fill="none" stroke="midnightblue" d="M1001.36,-271.16C1022.46,-226.12 1077.29,-109.06 1092.84,-75.88"/>
<polygon fill="midnightblue" stroke="midnightblue" points="998.15,-269.76 997.08,-280.3 1004.49,-272.73 998.15,-269.76"/>
</g>
<!-- Node13 -->
<g id="node13" class="node">
<title>Node13</title>
<g id="a_node13"><a xlink:href="$d1/d93/a00875.html" xlink:title=" ">
<polygon fill="none" stroke="black" points="1167.5,-56.5 1167.5,-75.5 1276.5,-75.5 1276.5,-56.5 1167.5,-56.5"/>
<text text-anchor="middle" x="1222" y="-63.5" font-family="Helvetica,sans-Serif" font-size="10.00">VoiceConnection.cpp</text>
</a>
</g>
</g>
<!-- Node1&#45;&gt;Node13 -->
<g id="edge32" class="edge">
<title>Node1&#45;&gt;Node13</title>
<path fill="none" stroke="midnightblue" d="M1009.4,-273.1C1054.29,-229.59 1178.11,-109.55 1212.84,-75.88"/>
<polygon fill="midnightblue" stroke="midnightblue" points="1006.72,-270.82 1001.98,-280.3 1011.59,-275.85 1006.72,-270.82"/>
</g>
<!-- Node15 -->
<g id="node15" class="node">
<title>Node15</title>
<g id="a_node15"><a xlink:href="$dd/d08/a00884.html" xlink:title=" ">
<polygon fill="none" stroke="black" points="1294.5,-56.5 1294.5,-75.5 1383.5,-75.5 1383.5,-56.5 1294.5,-56.5"/>
<text text-anchor="middle" x="1339" y="-63.5" font-family="Helvetica,sans-Serif" font-size="10.00">YouTubeAPI.cpp</text>
</a>
</g>
</g>
<!-- Node1&#45;&gt;Node15 -->
<g id="edge33" class="edge">
<title>Node1&#45;&gt;Node15</title>
<path fill="none" stroke="midnightblue" d="M1015.47,-275.08C1029.7,-266.23 1048.47,-254.51 1065,-244 1165.85,-179.91 1286.59,-101.23 1325.93,-75.54"/>
<polygon fill="midnightblue" stroke="midnightblue" points="1013.49,-272.19 1006.84,-280.43 1017.18,-278.13 1013.49,-272.19"/>
</g>
<!-- Node16 -->
<g id="node16" class="node">
<title>Node16</title>
<g id="a_node16"><a xlink:href="$d1/d04/a00713.html" xlink:title=" ">
<polygon fill="none" stroke="black" points="570.5,-224.5 570.5,-243.5 661.5,-243.5 661.5,-224.5 570.5,-224.5"/>
<text text-anchor="middle" x="616" y="-231.5" font-family="Helvetica,sans-Serif" font-size="10.00">GuildEntities.hpp</text>
</a>
</g>
</g>
<!-- Node1&#45;&gt;Node16 -->
<g id="edge15" class="edge">
<title>Node1&#45;&gt;Node16</title>
<path fill="none" stroke="midnightblue" d="M928.25,-279.73C852.29,-268.85 728.29,-251.08 661.7,-241.55"/>
<polygon fill="midnightblue" stroke="midnightblue" points="927.79,-283.19 938.18,-281.15 928.78,-276.27 927.79,-283.19"/>
</g>
<!-- Node22 -->
<g id="node22" class="node">
<title>Node22</title>
<g id="a_node22"><a xlink:href="$d0/d0a/a00743.html" xlink:title=" ">
<polygon fill="none" stroke="black" points="136,-168.5 136,-187.5 210,-187.5 210,-168.5 136,-168.5"/>
<text text-anchor="middle" x="173" y="-175.5" font-family="Helvetica,sans-Serif" font-size="10.00">SongAPI.hpp</text>
</a>
</g>
</g>
<!-- Node1&#45;&gt;Node22 -->
<g id="edge27" class="edge">
<title>Node1&#45;&gt;Node22</title>
<path fill="none" stroke="midnightblue" d="M928.34,-283.53C843.74,-276.08 690.96,-261.64 561,-244 431.56,-226.43 278.97,-198.84 210.07,-186"/>
<polygon fill="midnightblue" stroke="midnightblue" points="928.05,-287.02 938.31,-284.4 928.66,-280.04 928.05,-287.02"/>
</g>
<!-- Node3 -->
<g id="node3" class="node">
<title>Node3</title>
<g id="a_node3"><a xlink:href="$da/d96/a00782.html" xlink:title=" ">
<polygon fill="none" stroke="black" points="657.5,-56.5 657.5,-75.5 818.5,-75.5 818.5,-56.5 657.5,-56.5"/>
<text text-anchor="middle" x="738" y="-63.5" font-family="Helvetica,sans-Serif" font-size="10.00">ApplicationCommandEntities.cpp</text>
</a>
</g>
</g>
<!-- Node2&#45;&gt;Node3 -->
<g id="edge2" class="edge">
<title>Node2&#45;&gt;Node3</title>
<path fill="none" stroke="midnightblue" d="M618.89,-109.04C647.68,-98.88 688.29,-84.55 713.87,-75.52"/>
<polygon fill="midnightblue" stroke="midnightblue" points="617.51,-105.81 609.24,-112.44 619.84,-112.42 617.51,-105.81"/>
</g>
<!-- Node4 -->
<g id="node4" class="node">
<title>Node4</title>
<g id="a_node4"><a xlink:href="$d0/dad/a00806.html" xlink:title=" ">
<polygon fill="none" stroke="black" points="836.5,-56.5 836.5,-75.5 949.5,-75.5 949.5,-56.5 836.5,-56.5"/>
<text text-anchor="middle" x="893" y="-63.5" font-family="Helvetica,sans-Serif" font-size="10.00">DiscordCoreClient.cpp</text>
</a>
</g>
</g>
<!-- Node2&#45;&gt;Node4 -->
<g id="edge3" class="edge">
<title>Node2&#45;&gt;Node4</title>
<path fill="none" stroke="midnightblue" d="M643.95,-110.66C702.16,-100.46 790.11,-85.04 844.42,-75.52"/>
<polygon fill="midnightblue" stroke="midnightblue" points="643.05,-107.27 633.8,-112.44 644.26,-114.16 643.05,-107.27"/>
</g>
<!-- Node5 -->
<g id="node5" class="node">
<title>Node5</title>
<g id="a_node5"><a xlink:href="$d8/d2d/a00815.html" xlink:title=" ">
<polygon fill="none" stroke="black" points="338.5,-56.5 338.5,-75.5 435.5,-75.5 435.5,-56.5 338.5,-56.5"/>
<text text-anchor="middle" x="387" y="-63.5" font-family="Helvetica,sans-Serif" font-size="10.00">EventManager.cpp</text>
</a>
</g>
</g>
<!-- Node2&#45;&gt;Node5 -->
<g id="edge4" class="edge">
<title>Node2&#45;&gt;Node5</title>
<path fill="none" stroke="midnightblue" d="M543.56,-109.7C506.19,-99.51 452.06,-84.74 418.23,-75.52"/>
<polygon fill="midnightblue" stroke="midnightblue" points="543.06,-113.19 553.63,-112.44 544.9,-106.44 543.06,-113.19"/>
</g>
<!-- Node6 -->
<g id="node6" class="node">
<title>Node6</title>
<g id="a_node6"><a xlink:href="$d6/d8b/a00821.html" xlink:title=" ">
<polygon fill="none" stroke="black" points="92.5,-56.5 92.5,-75.5 183.5,-75.5 183.5,-56.5 92.5,-56.5"/>
<text text-anchor="middle" x="138" y="-63.5" font-family="Helvetica,sans-Serif" font-size="10.00">GuildEntities.cpp</text>
</a>
</g>
</g>
<!-- Node2&#45;&gt;Node6 -->
<g id="edge5" class="edge">
<title>Node2&#45;&gt;Node6</title>
<path fill="none" stroke="midnightblue" d="M518.06,-114.39C439.73,-106.41 306.22,-92.05 192,-76 189.27,-75.62 186.47,-75.2 183.64,-74.78"/>
<polygon fill="midnightblue" stroke="midnightblue" points="517.96,-117.9 528.26,-115.42 518.67,-110.93 517.96,-117.9"/>
</g>
<!-- Node7 -->
<g id="node7" class="node">
<title>Node7</title>
<g id="a_node7"><a xlink:href="$d9/daf/a00830.html" xlink:title=" ">
<polygon fill="none" stroke="black" points="967.5,-56.5 967.5,-75.5 1026.5,-75.5 1026.5,-56.5 967.5,-56.5"/>
<text text-anchor="middle" x="997" y="-63.5" font-family="Helvetica,sans-Serif" font-size="10.00">Https.cpp</text>
</a>
</g>
</g>
<!-- Node2&#45;&gt;Node7 -->
<g id="edge6" class="edge">
<title>Node2&#45;&gt;Node7</title>
<path fill="none" stroke="midnightblue" d="M651.74,-115.12C726.62,-108.01 851.54,-94.65 958,-76 961.01,-75.47 964.14,-74.86 967.26,-74.21"/>
<polygon fill="midnightblue" stroke="midnightblue" points="651.14,-111.66 641.52,-116.08 651.8,-118.63 651.14,-111.66"/>
</g>
<!-- Node8 -->
<g id="node8" class="node">
<title>Node8</title>
<g id="a_node8"><a xlink:href="$d8/db9/a00725.html" xlink:title=" ">
<polygon fill="none" stroke="black" points="453.5,-56.5 453.5,-75.5 512.5,-75.5 512.5,-56.5 453.5,-56.5"/>
<text text-anchor="middle" x="483" y="-63.5" font-family="Helvetica,sans-Serif" font-size="10.00">Index.hpp</text>
</a>
</g>
</g>
<!-- Node2&#45;&gt;Node8 -->
<g id="edge7" class="edge">
<title>Node2&#45;&gt;Node8</title>
<path fill="none" stroke="midnightblue" d="M559.67,-107.59C540.81,-97.61 515.62,-84.27 499.35,-75.65"/>
<polygon fill="midnightblue" stroke="midnightblue" points="558.14,-110.74 568.61,-112.32 561.41,-104.55 558.14,-110.74"/>
</g>
<!-- Node10 -->
<g id="node10" class="node">
<title>Node10</title>
<g id="a_node10"><a xlink:href="$df/de8/a00839.html" xlink:title=" ">
<polygon fill="none" stroke="black" points="531,-56.5 531,-75.5 639,-75.5 639,-56.5 531,-56.5"/>
<text text-anchor="middle" x="585" y="-63.5" font-family="Helvetica,sans-Serif" font-size="10.00">MessageEntities.cpp</text>
</a>
</g>
</g>
<!-- Node2&#45;&gt;Node10 -->
<g id="edge9" class="edge">
<title>Node2&#45;&gt;Node10</title>
<path fill="none" stroke="midnightblue" d="M585,-101.8C585,-92.91 585,-82.78 585,-75.75"/>
<polygon fill="midnightblue" stroke="midnightblue" points="581.5,-102.08 585,-112.08 588.5,-102.08 581.5,-102.08"/>
</g>
<!-- Node2&#45;&gt;Node11 -->
<g id="edge10" class="edge">
<title>Node2&#45;&gt;Node11</title>
<path fill="none" stroke="midnightblue" d="M518.13,-117.22C421.67,-111.27 238.05,-98.06 83,-76 80.1,-75.59 77.11,-75.11 74.1,-74.6"/>
<polygon fill="midnightblue" stroke="midnightblue" points="518.12,-120.73 528.32,-117.84 518.55,-113.74 518.12,-120.73"/>
</g>
<!-- Node2&#45;&gt;Node12 -->
<g id="edge11" class="edge">
<title>Node2&#45;&gt;Node12</title>
<path fill="none" stroke="midnightblue" d="M651.67,-115.27C739.61,-107.49 899.13,-92.65 1035,-76 1038.24,-75.6 1041.57,-75.18 1044.93,-74.73"/>
<polygon fill="midnightblue" stroke="midnightblue" points="651.22,-111.79 641.57,-116.16 651.83,-118.77 651.22,-111.79"/>
</g>
<!-- Node2&#45;&gt;Node13 -->
<g id="edge12" class="edge">
<title>Node2&#45;&gt;Node13</title>
<path fill="none" stroke="midnightblue" d="M651.64,-117.1C758.61,-110.53 975.18,-96.01 1158,-76 1161.01,-75.67 1164.1,-75.31 1167.21,-74.93"/>
<polygon fill="midnightblue" stroke="midnightblue" points="651.4,-113.61 641.63,-117.71 651.83,-120.59 651.4,-113.61"/>
</g>
<!-- Node14 -->
<g id="node14" class="node">
<title>Node14</title>
<g id="a_node14"><a xlink:href="$df/d41/a00881.html" xlink:title=" ">
<polygon fill="none" stroke="black" points="201.5,-56.5 201.5,-75.5 320.5,-75.5 320.5,-56.5 201.5,-56.5"/>
<text text-anchor="middle" x="261" y="-63.5" font-family="Helvetica,sans-Serif" font-size="10.00">WebSocketEntities.cpp</text>
</a>
</g>
</g>
<!-- Node2&#45;&gt;Node14 -->
<g id="edge13" class="edge">
<title>Node2&#45;&gt;Node14</title>
<path fill="none" stroke="midnightblue" d="M523.74,-110.79C462.52,-100.59 369.47,-85.08 312.1,-75.52"/>
<polygon fill="midnightblue" stroke="midnightblue" points="523.22,-114.25 533.66,-112.44 524.37,-107.35 523.22,-114.25"/>
</g>
<!-- Node2&#45;&gt;Node15 -->
<g id="edge14" class="edge">
<title>Node2&#45;&gt;Node15</title>
<path fill="none" stroke="midnightblue" d="M652.05,-118.94C776.93,-114.61 1053.48,-102.67 1285,-76 1288.02,-75.65 1291.13,-75.25 1294.26,-74.81"/>
<polygon fill="midnightblue" stroke="midnightblue" points="651.76,-115.45 641.88,-119.29 652,-122.45 651.76,-115.45"/>
</g>
<!-- Node9 -->
<g id="node9" class="node">
<title>Node9</title>
<g id="a_node9"><a xlink:href="$dd/d7e/a00809.html" xlink:title=" ">
<polygon fill="none" stroke="black" points="449,-0.5 449,-19.5 517,-19.5 517,-0.5 449,-0.5"/>
<text text-anchor="middle" x="483" y="-7.5" font-family="Helvetica,sans-Serif" font-size="10.00">DllMain.cpp</text>
</a>
</g>
</g>
<!-- Node8&#45;&gt;Node9 -->
<g id="edge8" class="edge">
<title>Node8&#45;&gt;Node9</title>
<path fill="none" stroke="midnightblue" d="M483,-45.8C483,-36.91 483,-26.78 483,-19.75"/>
<polygon fill="midnightblue" stroke="midnightblue" points="479.5,-46.08 483,-56.08 486.5,-46.08 479.5,-46.08"/>
</g>
<!-- Node16&#45;&gt;Node2 -->
<g id="edge17" class="edge">
<title>Node16&#45;&gt;Node2</title>
<path fill="none" stroke="midnightblue" d="M610.84,-214.67C604.06,-190.62 592.44,-149.39 587.42,-131.59"/>
<polygon fill="midnightblue" stroke="midnightblue" points="607.49,-215.69 613.57,-224.37 614.22,-213.79 607.49,-215.69"/>
</g>
<!-- Node16&#45;&gt;Node6 -->
<g id="edge23" class="edge">
<title>Node16&#45;&gt;Node6</title>
<path fill="none" stroke="midnightblue" d="M559.86,-228.08C483.4,-220.83 350.9,-206.15 306,-188 237.02,-160.11 169.75,-98.21 146.53,-75.54"/>
<polygon fill="midnightblue" stroke="midnightblue" points="559.97,-231.61 570.26,-229.05 560.63,-224.64 559.97,-231.61"/>
</g>
<!-- Node17 -->
<g id="node17" class="node">
<title>Node17</title>
<g id="a_node17"><a xlink:href="$d5/d72/a00803.html" xlink:title=" ">
<polygon fill="none" stroke="black" points="699.5,-168.5 699.5,-187.5 830.5,-187.5 830.5,-168.5 699.5,-168.5"/>
<text text-anchor="middle" x="765" y="-175.5" font-family="Helvetica,sans-Serif" font-size="10.00">DataParsingFunctions.cpp</text>
</a>
</g>
</g>
<!-- Node16&#45;&gt;Node17 -->
<g id="edge16" class="edge">
<title>Node16&#45;&gt;Node17</title>
<path fill="none" stroke="midnightblue" d="M649.37,-220.91C677.38,-210.75 716.7,-196.51 741.5,-187.52"/>
<polygon fill="midnightblue" stroke="midnightblue" points="647.82,-217.75 639.61,-224.44 650.2,-224.33 647.82,-217.75"/>
</g>
<!-- Node18 -->
<g id="node18" class="node">
<title>Node18</title>
<g id="a_node18"><a xlink:href="$d1/d56/a00707.html" xlink:title=" ">
<polygon fill="none" stroke="black" points="315.5,-168.5 315.5,-187.5 412.5,-187.5 412.5,-168.5 315.5,-168.5"/>
<text text-anchor="middle" x="364" y="-175.5" font-family="Helvetica,sans-Serif" font-size="10.00">EventManager.hpp</text>
</a>
</g>
</g>
<!-- Node16&#45;&gt;Node18 -->
<g id="edge18" class="edge">
<title>Node16&#45;&gt;Node18</title>
<path fill="none" stroke="midnightblue" d="M566.28,-222.35C518.66,-212.14 447.72,-196.94 403.74,-187.52"/>
<polygon fill="midnightblue" stroke="midnightblue" points="565.56,-225.77 576.07,-224.44 567.03,-218.93 565.56,-225.77"/>
</g>
<!-- Node19 -->
<g id="node19" class="node">
<title>Node19</title>
<g id="a_node19"><a xlink:href="$d3/d60/a00818.html" xlink:title=" ">
<polygon fill="none" stroke="black" points="849,-168.5 849,-187.5 965,-187.5 965,-168.5 849,-168.5"/>
<text text-anchor="middle" x="907" y="-175.5" font-family="Helvetica,sans-Serif" font-size="10.00">FoundationEntities.cpp</text>
</a>
</g>
</g>
<!-- Node16&#45;&gt;Node19 -->
<g id="edge22" class="edge">
<title>Node16&#45;&gt;Node19</title>
<path fill="none" stroke="midnightblue" d="M671.71,-222.66C726.67,-212.46 809.68,-197.06 861,-187.54"/>
<polygon fill="midnightblue" stroke="midnightblue" points="670.98,-219.24 661.79,-224.5 672.26,-226.12 670.98,-219.24"/>
</g>
<!-- Node20 -->
<g id="node20" class="node">
<title>Node20</title>
<g id="a_node20"><a xlink:href="$d8/d1c/a00824.html" xlink:title=" ">
<polygon fill="none" stroke="black" points="431,-168.5 431,-187.5 557,-187.5 557,-168.5 431,-168.5"/>
<text text-anchor="middle" x="494" y="-175.5" font-family="Helvetica,sans-Serif" font-size="10.00">GuildMemberEntities.cpp</text>
</a>
</g>
</g>
<!-- Node16&#45;&gt;Node20 -->
<g id="edge24" class="edge">
<title>Node16&#45;&gt;Node20</title>
<path fill="none" stroke="midnightblue" d="M587.46,-220.37C564.61,-210.26 533.19,-196.35 513.24,-187.52"/>
<polygon fill="midnightblue" stroke="midnightblue" points="586.11,-223.6 596.67,-224.44 588.94,-217.2 586.11,-223.6"/>
</g>
<!-- Node21 -->
<g id="node21" class="node">
<title>Node21</title>
<g id="a_node21"><a xlink:href="$dc/d17/a00872.html" xlink:title=" ">
<polygon fill="none" stroke="black" points="613,-168.5 613,-187.5 681,-187.5 681,-168.5 613,-168.5"/>
<text text-anchor="middle" x="647" y="-175.5" font-family="Helvetica,sans-Serif" font-size="10.00">Utilities.cpp</text>
</a>
</g>
</g>
<!-- Node16&#45;&gt;Node21 -->
<g id="edge25" class="edge">
<title>Node16&#45;&gt;Node21</title>
<path fill="none" stroke="midnightblue" d="M626.18,-215.27C631.47,-206.05 637.72,-195.17 641.98,-187.75"/>
<polygon fill="midnightblue" stroke="midnightblue" points="623.06,-213.67 621.12,-224.08 629.13,-217.15 623.06,-213.67"/>
</g>
<!-- Node18&#45;&gt;Node2 -->
<g id="edge19" class="edge">
<title>Node18&#45;&gt;Node2</title>
<path fill="none" stroke="midnightblue" d="M408.92,-166.02C450.67,-155.82 511.98,-140.84 550.15,-131.52"/>
<polygon fill="midnightblue" stroke="midnightblue" points="407.9,-162.67 399.02,-168.44 409.56,-169.47 407.9,-162.67"/>
</g>
<!-- Node18&#45;&gt;Node5 -->
<g id="edge20" class="edge">
<title>Node18&#45;&gt;Node5</title>
<path fill="none" stroke="midnightblue" d="M367.9,-158.35C372.94,-134.25 381.5,-93.31 385.2,-75.59"/>
<polygon fill="midnightblue" stroke="midnightblue" points="364.43,-157.86 365.8,-168.37 371.28,-159.3 364.43,-157.86"/>
</g>
<!-- Node18&#45;&gt;Node14 -->
<g id="edge21" class="edge">
<title>Node18&#45;&gt;Node14</title>
<path fill="none" stroke="midnightblue" d="M348.92,-160.9C326.78,-137.25 286.23,-93.95 269.04,-75.59"/>
<polygon fill="midnightblue" stroke="midnightblue" points="346.53,-163.46 355.92,-168.37 351.64,-158.68 346.53,-163.46"/>
</g>
<!-- Node22&#45;&gt;Node2 -->
<g id="edge28" class="edge">
<title>Node22&#45;&gt;Node2</title>
<path fill="none" stroke="midnightblue" d="M220.56,-170.77C296.91,-160.76 446.52,-141.15 528.3,-130.43"/>
<polygon fill="midnightblue" stroke="midnightblue" points="219.75,-167.34 210.29,-172.11 220.66,-174.28 219.75,-167.34"/>
</g>
<!-- Node22&#45;&gt;Node6 -->
<g id="edge29" class="edge">
<title>Node22&#45;&gt;Node6</title>
<path fill="none" stroke="midnightblue" d="M167.17,-158.67C159.52,-134.62 146.4,-93.39 140.73,-75.59"/>
<polygon fill="midnightblue" stroke="midnightblue" points="163.89,-159.9 170.25,-168.37 170.56,-157.78 163.89,-159.9"/>
</g>
<!-- Node22&#45;&gt;Node11 -->
<g id="edge30" class="edge">
<title>Node22&#45;&gt;Node11</title>
<path fill="none" stroke="midnightblue" d="M154.23,-161.82C125.26,-138.39 70.62,-94.19 47.62,-75.59"/>
<polygon fill="midnightblue" stroke="midnightblue" points="152.35,-164.8 162.33,-168.37 156.75,-159.36 152.35,-164.8"/>
</g>
</g>
</svg>
