<?xml version="1.0" encoding="UTF-8" standalone="no"?>
<!DOCTYPE svg PUBLIC "-//W3C//DTD SVG 1.1//EN"
 "http://www.w3.org/Graphics/SVG/1.1/DTD/svg11.dtd">
<!-- Generated by graphviz version 2.43.0 (0)
 -->
<!-- Title: DiscordCoreAPI::ButtonCollector::ButtonCollector Pages: 1 -->
<svg width="367pt" height="134pt"
 viewBox="0.00 0.00 367.00 134.00" xmlns="http://www.w3.org/2000/svg" xmlns:xlink="http://www.w3.org/1999/xlink">
<g id="graph0" class="graph" transform="scale(1 1) rotate(0) translate(4 130)">
<title>DiscordCoreAPI::ButtonCollector::ButtonCollector</title>
<!-- Node1 -->
<g id="node1" class="node">
<title>Node1</title>
<g id="a_node1"><a xlink:title="Constructor.">
<polygon fill="#bfbfbf" stroke="black" points="173,-78 0,-78 0,-48 173,-48 173,-78"/>
<text text-anchor="start" x="8" y="-66" font-family="Helvetica,sans-Serif" font-size="10.00">DiscordCoreAPI::ButtonCollector</text>
<text text-anchor="middle" x="86.5" y="-55" font-family="Helvetica,sans-Serif" font-size="10.00">::ButtonCollector</text>
</a>
</g>
</g>
<!-- Node2 -->
<g id="node2" class="node">
<title>Node2</title>
<g id="a_node2"><a xlink:href="../../d9/d95/a02781.html#a97c397fe274250bfff73cf674810a8f5" target="_top" xlink:title="Returns the Channel id of this input&#45;event.">
<polygon fill="none" stroke="black" points="359,-126 209,-126 209,-96 359,-96 359,-126"/>
<text text-anchor="start" x="217" y="-114" font-family="Helvetica,sans-Serif" font-size="10.00">DiscordCoreAPI::InputEvent</text>
<text text-anchor="middle" x="284" y="-103" font-family="Helvetica,sans-Serif" font-size="10.00">Data::getChannelId</text>
</a>
</g>
</g>
<!-- Node1&#45;&gt;Node2 -->
<g id="edge1" class="edge">
<title>Node1&#45;&gt;Node2</title>
<path fill="none" stroke="midnightblue" d="M148.82,-78.06C168.84,-82.97 191.23,-88.47 211.9,-93.54"/>
<polygon fill="midnightblue" stroke="midnightblue" points="211.35,-97.01 221.9,-96 213.02,-90.21 211.35,-97.01"/>
</g>
<!-- Node3 -->
<g id="node3" class="node">
<title>Node3</title>
<g id="a_node3"><a xlink:href="../../d9/d95/a02781.html#a520bbb225cdbd19ef871d3a00189acff" target="_top" xlink:title="Returns the InteractionData, if applicable, of this input&#45;event.">
<polygon fill="none" stroke="black" points="359,-78 209,-78 209,-48 359,-48 359,-78"/>
<text text-anchor="start" x="217" y="-66" font-family="Helvetica,sans-Serif" font-size="10.00">DiscordCoreAPI::InputEvent</text>
<text text-anchor="middle" x="284" y="-55" font-family="Helvetica,sans-Serif" font-size="10.00">Data::getInteractionData</text>
</a>
</g>
</g>
<!-- Node1&#45;&gt;Node3 -->
<g id="edge2" class="edge">
<title>Node1&#45;&gt;Node3</title>
<path fill="none" stroke="midnightblue" d="M173.25,-63C181.71,-63 190.29,-63 198.74,-63"/>
<polygon fill="midnightblue" stroke="midnightblue" points="198.95,-66.5 208.95,-63 198.95,-59.5 198.95,-66.5"/>
</g>
<!-- Node4 -->
<g id="node4" class="node">
<title>Node4</title>
<g id="a_node4"><a xlink:href="../../d9/d95/a02781.html#af7be2b81b312794ea5398591d1a7e305" target="_top" xlink:title="Returns the Message id, if applicable, of this input&#45;event.">
<polygon fill="none" stroke="black" points="359,-30 209,-30 209,0 359,0 359,-30"/>
<text text-anchor="start" x="217" y="-18" font-family="Helvetica,sans-Serif" font-size="10.00">DiscordCoreAPI::InputEvent</text>
<text text-anchor="middle" x="284" y="-7" font-family="Helvetica,sans-Serif" font-size="10.00">Data::getMessageId</text>
</a>
</g>
</g>
<!-- Node1&#45;&gt;Node4 -->
<g id="edge3" class="edge">
<title>Node1&#45;&gt;Node4</title>
<path fill="none" stroke="midnightblue" d="M148.82,-47.94C168.84,-43.03 191.23,-37.53 211.9,-32.46"/>
<polygon fill="midnightblue" stroke="midnightblue" points="213.02,-35.79 221.9,-30 211.35,-28.99 213.02,-35.79"/>
</g>
</g>
</svg>
