<?xml version="1.0" encoding="UTF-8" standalone="no"?>
<!DOCTYPE svg PUBLIC "-//W3C//DTD SVG 1.1//EN"
 "http://www.w3.org/Graphics/SVG/1.1/DTD/svg11.dtd">
<!-- Generated by graphviz version 3.0.0 (20220226.1711)
 -->
<!-- Title: VoiceConnection.hpp Pages: 1 -->
<svg width="2249pt" height="610pt"
 viewBox="0.00 0.00 2248.50 610.00" xmlns="http://www.w3.org/2000/svg" xmlns:xlink="http://www.w3.org/1999/xlink">
<g id="graph0" class="graph" transform="scale(1 1) rotate(0) translate(4 606)">
<title>VoiceConnection.hpp</title>
<!-- Node1 -->
<g id="node1" class="node">
<title>Node1</title>
<g id="a_node1"><a xlink:title=" ">
<polygon fill="#bfbfbf" stroke="black" points="1922,-582.5 1922,-601.5 2031,-601.5 2031,-582.5 1922,-582.5"/>
<text text-anchor="middle" x="1976.5" y="-589.5" font-family="Helvetica,sans-Serif" font-size="10.00">VoiceConnection.hpp</text>
</a>
</g>
</g>
<!-- Node2 -->
<g id="node2" class="node">
<title>Node2</title>
<g id="a_node2"><a xlink:href="$d4/deb/a00710.html" xlink:title=" ">
<polygon fill="none" stroke="black" points="928,-112.5 928,-142.5 1059,-142.5 1059,-112.5 928,-112.5"/>
<text text-anchor="start" x="936" y="-130.5" font-family="Helvetica,sans-Serif" font-size="10.00">discordcoreapi/Foundation</text>
<text text-anchor="middle" x="993.5" y="-119.5" font-family="Helvetica,sans-Serif" font-size="10.00">Entities.hpp</text>
</a>
</g>
</g>
<!-- Node1&#45;&gt;Node2 -->
<g id="edge1" class="edge">
<title>Node1&#45;&gt;Node2</title>
<path fill="none" stroke="midnightblue" d="M1921.65,-589.73C1642.91,-582.94 396.5,-548.19 396.5,-470 396.5,-470 396.5,-470 396.5,-244 396.5,-213.9 392.23,-198.08 415.5,-179 453.51,-147.83 769.58,-134.84 917.59,-130.42"/>
<polygon fill="midnightblue" stroke="midnightblue" points="918.06,-133.91 927.95,-130.12 917.85,-126.91 918.06,-133.91"/>
</g>
<!-- Node27 -->
<g id="node27" class="node">
<title>Node27</title>
<g id="a_node27"><a xlink:href="$db/d77/a00683.html" xlink:title=" ">
<polygon fill="none" stroke="black" points="2004.5,-521 2004.5,-540 2166.5,-540 2166.5,-521 2004.5,-521"/>
<text text-anchor="middle" x="2085.5" y="-528" font-family="Helvetica,sans-Serif" font-size="10.00">discordcoreapi/AudioEncoder.hpp</text>
</a>
</g>
</g>
<!-- Node1&#45;&gt;Node27 -->
<g id="edge26" class="edge">
<title>Node1&#45;&gt;Node27</title>
<path fill="none" stroke="midnightblue" d="M1992.12,-582.48C2010.09,-572.67 2039.82,-556.43 2060.91,-544.92"/>
<polygon fill="midnightblue" stroke="midnightblue" points="2062.81,-547.87 2069.91,-540.01 2059.46,-541.73 2062.81,-547.87"/>
</g>
<!-- Node29 -->
<g id="node29" class="node">
<title>Node29</title>
<g id="a_node29"><a xlink:href="$d5/d5b/a00695.html" xlink:title=" ">
<polygon fill="none" stroke="black" points="1697.5,-403.5 1697.5,-422.5 1843.5,-422.5 1843.5,-403.5 1697.5,-403.5"/>
<text text-anchor="middle" x="1770.5" y="-410.5" font-family="Helvetica,sans-Serif" font-size="10.00">discordcoreapi/CoRoutine.hpp</text>
</a>
</g>
</g>
<!-- Node1&#45;&gt;Node29 -->
<g id="edge29" class="edge">
<title>Node1&#45;&gt;Node29</title>
<path fill="none" stroke="midnightblue" d="M1966.56,-582.46C1934.08,-554.55 1830.71,-465.74 1788.61,-429.56"/>
<polygon fill="midnightblue" stroke="midnightblue" points="1790.69,-426.73 1780.82,-422.87 1786.13,-432.04 1790.69,-426.73"/>
</g>
<!-- Node47 -->
<g id="node47" class="node">
<title>Node47</title>
<g id="a_node47"><a xlink:href="$d9/dd4/a00776.html" xlink:title=" ">
<polygon fill="none" stroke="black" points="1160.5,-515.5 1160.5,-545.5 1294.5,-545.5 1294.5,-515.5 1160.5,-515.5"/>
<text text-anchor="start" x="1168.5" y="-533.5" font-family="Helvetica,sans-Serif" font-size="10.00">discordcoreapi/WebSocket</text>
<text text-anchor="middle" x="1227.5" y="-522.5" font-family="Helvetica,sans-Serif" font-size="10.00">Entities.hpp</text>
</a>
</g>
</g>
<!-- Node1&#45;&gt;Node47 -->
<g id="edge51" class="edge">
<title>Node1&#45;&gt;Node47</title>
<path fill="none" stroke="midnightblue" d="M1921.73,-586.65C1790.27,-576.21 1456.6,-549.7 1304.8,-537.64"/>
<polygon fill="midnightblue" stroke="midnightblue" points="1304.88,-534.14 1294.63,-536.83 1304.32,-541.11 1304.88,-534.14"/>
</g>
<!-- Node53 -->
<g id="node53" class="node">
<title>Node53</title>
<g id="a_node53"><a xlink:title=" ">
<polygon fill="none" stroke="#bfbfbf" points="2184.5,-521 2184.5,-540 2240.5,-540 2240.5,-521 2184.5,-521"/>
<text text-anchor="middle" x="2212.5" y="-528" font-family="Helvetica,sans-Serif" font-size="10.00">sodium.h</text>
</a>
</g>
</g>
<!-- Node1&#45;&gt;Node53 -->
<g id="edge66" class="edge">
<title>Node1&#45;&gt;Node53</title>
<path fill="none" stroke="midnightblue" d="M2023.67,-582.42C2064.32,-574.54 2124.37,-561.7 2175.5,-546 2177.92,-545.26 2180.41,-544.43 2182.9,-543.55"/>
<polygon fill="midnightblue" stroke="midnightblue" points="2184.19,-546.81 2192.34,-540.04 2181.75,-540.25 2184.19,-546.81"/>
</g>
<!-- Node3 -->
<g id="node3" class="node">
<title>Node3</title>
<g id="a_node3"><a xlink:href="$d5/dae/a00767.html" xlink:title=" ">
<polygon fill="none" stroke="black" points="926.5,-56.5 926.5,-75.5 1060.5,-75.5 1060.5,-56.5 926.5,-56.5"/>
<text text-anchor="middle" x="993.5" y="-63.5" font-family="Helvetica,sans-Serif" font-size="10.00">discordcoreapi/Utilities.hpp</text>
</a>
</g>
</g>
<!-- Node2&#45;&gt;Node3 -->
<g id="edge2" class="edge">
<title>Node2&#45;&gt;Node3</title>
<path fill="none" stroke="midnightblue" d="M993.5,-112.4C993.5,-104.47 993.5,-94.46 993.5,-85.86"/>
<polygon fill="midnightblue" stroke="midnightblue" points="997,-85.66 993.5,-75.66 990,-85.66 997,-85.66"/>
</g>
<!-- Node4 -->
<g id="node4" class="node">
<title>Node4</title>
<g id="a_node4"><a xlink:title=" ">
<polygon fill="none" stroke="#bfbfbf" points="0,-0.5 0,-19.5 57,-19.5 57,-0.5 0,-0.5"/>
<text text-anchor="middle" x="28.5" y="-7.5" font-family="Helvetica,sans-Serif" font-size="10.00">pthread.h</text>
</a>
</g>
</g>
<!-- Node3&#45;&gt;Node4 -->
<g id="edge3" class="edge">
<title>Node3&#45;&gt;Node4</title>
<path fill="none" stroke="midnightblue" d="M926.45,-63.35C745.93,-58.65 251.53,-44.07 67.15,-19.74"/>
<polygon fill="midnightblue" stroke="midnightblue" points="67.41,-16.24 57.03,-18.35 66.46,-23.18 67.41,-16.24"/>
</g>
<!-- Node5 -->
<g id="node5" class="node">
<title>Node5</title>
<g id="a_node5"><a xlink:title=" ">
<polygon fill="none" stroke="#bfbfbf" points="75.5,-0.5 75.5,-19.5 137.5,-19.5 137.5,-0.5 75.5,-0.5"/>
<text text-anchor="middle" x="106.5" y="-7.5" font-family="Helvetica,sans-Serif" font-size="10.00">sys/time.h</text>
</a>
</g>
</g>
<!-- Node3&#45;&gt;Node5 -->
<g id="edge4" class="edge">
<title>Node3&#45;&gt;Node5</title>
<path fill="none" stroke="midnightblue" d="M926.43,-65.26C784.35,-64.97 442.57,-59.92 147.87,-19.95"/>
<polygon fill="midnightblue" stroke="midnightblue" points="148.23,-16.47 137.85,-18.58 147.28,-23.4 148.23,-16.47"/>
</g>
<!-- Node6 -->
<g id="node6" class="node">
<title>Node6</title>
<g id="a_node6"><a xlink:title=" ">
<polygon fill="none" stroke="#bfbfbf" points="155.5,-0.5 155.5,-19.5 199.5,-19.5 199.5,-0.5 155.5,-0.5"/>
<text text-anchor="middle" x="177.5" y="-7.5" font-family="Helvetica,sans-Serif" font-size="10.00">time.h</text>
</a>
</g>
</g>
<!-- Node3&#45;&gt;Node6 -->
<g id="edge5" class="edge">
<title>Node3&#45;&gt;Node6</title>
<path fill="none" stroke="midnightblue" d="M926.48,-63.1C766.41,-58.25 364.34,-44.19 209.95,-19.8"/>
<polygon fill="midnightblue" stroke="midnightblue" points="210.15,-16.28 199.71,-18.1 209,-23.19 210.15,-16.28"/>
</g>
<!-- Node7 -->
<g id="node7" class="node">
<title>Node7</title>
<g id="a_node7"><a xlink:title=" ">
<polygon fill="none" stroke="#bfbfbf" points="218,-0.5 218,-19.5 259,-19.5 259,-0.5 218,-0.5"/>
<text text-anchor="middle" x="238.5" y="-7.5" font-family="Helvetica,sans-Serif" font-size="10.00">ctime</text>
</a>
</g>
</g>
<!-- Node3&#45;&gt;Node7 -->
<g id="edge6" class="edge">
<title>Node3&#45;&gt;Node7</title>
<path fill="none" stroke="midnightblue" d="M926.39,-62.89C775.29,-57.82 411.16,-43.7 269.47,-19.9"/>
<polygon fill="midnightblue" stroke="midnightblue" points="269.72,-16.39 259.26,-18.09 268.5,-23.28 269.72,-16.39"/>
</g>
<!-- Node8 -->
<g id="node8" class="node">
<title>Node8</title>
<g id="a_node8"><a xlink:title=" ">
<polygon fill="none" stroke="#bfbfbf" points="277,-0.5 277,-19.5 370,-19.5 370,-0.5 277,-0.5"/>
<text text-anchor="middle" x="323.5" y="-7.5" font-family="Helvetica,sans-Serif" font-size="10.00">condition_variable</text>
</a>
</g>
</g>
<!-- Node3&#45;&gt;Node8 -->
<g id="edge7" class="edge">
<title>Node3&#45;&gt;Node8</title>
<path fill="none" stroke="midnightblue" d="M926.09,-61.96C814.7,-56.53 585.05,-43.55 380.25,-19.98"/>
<polygon fill="midnightblue" stroke="midnightblue" points="380.55,-16.49 370.21,-18.82 379.74,-23.45 380.55,-16.49"/>
</g>
<!-- Node9 -->
<g id="node9" class="node">
<title>Node9</title>
<g id="a_node9"><a xlink:title=" ">
<polygon fill="none" stroke="#bfbfbf" points="388.5,-0.5 388.5,-19.5 486.5,-19.5 486.5,-0.5 388.5,-0.5"/>
<text text-anchor="middle" x="437.5" y="-7.5" font-family="Helvetica,sans-Serif" font-size="10.00">nlohmann/json.hpp</text>
</a>
</g>
</g>
<!-- Node3&#45;&gt;Node9 -->
<g id="edge8" class="edge">
<title>Node3&#45;&gt;Node9</title>
<path fill="none" stroke="midnightblue" d="M926.5,-60.31C832.7,-53.44 656.71,-39.45 496.55,-20.06"/>
<polygon fill="midnightblue" stroke="midnightblue" points="496.87,-16.57 486.52,-18.83 496.02,-23.52 496.87,-16.57"/>
</g>
<!-- Node10 -->
<g id="node10" class="node">
<title>Node10</title>
<g id="a_node10"><a xlink:title=" ">
<polygon fill="none" stroke="#bfbfbf" points="505,-0.5 505,-19.5 590,-19.5 590,-0.5 505,-0.5"/>
<text text-anchor="middle" x="547.5" y="-7.5" font-family="Helvetica,sans-Serif" font-size="10.00">source_location</text>
</a>
</g>
</g>
<!-- Node3&#45;&gt;Node10 -->
<g id="edge9" class="edge">
<title>Node3&#45;&gt;Node10</title>
<path fill="none" stroke="midnightblue" d="M926.24,-58.6C849.66,-51.04 720.55,-37.42 600.18,-20.17"/>
<polygon fill="midnightblue" stroke="midnightblue" points="600.44,-16.67 590.05,-18.71 599.44,-23.6 600.44,-16.67"/>
</g>
<!-- Node11 -->
<g id="node11" class="node">
<title>Node11</title>
<g id="a_node11"><a xlink:title=" ">
<polygon fill="none" stroke="#bfbfbf" points="608,-0.5 608,-19.5 691,-19.5 691,-0.5 608,-0.5"/>
<text text-anchor="middle" x="649.5" y="-7.5" font-family="Helvetica,sans-Serif" font-size="10.00">unordered_map</text>
</a>
</g>
</g>
<!-- Node3&#45;&gt;Node11 -->
<g id="edge10" class="edge">
<title>Node3&#45;&gt;Node11</title>
<path fill="none" stroke="midnightblue" d="M935.62,-56.5C878.67,-48.05 788.96,-34.5 701.35,-20.11"/>
<polygon fill="midnightblue" stroke="midnightblue" points="701.67,-16.62 691.24,-18.44 700.53,-23.52 701.67,-16.62"/>
</g>
<!-- Node12 -->
<g id="node12" class="node">
<title>Node12</title>
<g id="a_node12"><a xlink:title=" ">
<polygon fill="none" stroke="#bfbfbf" points="709.5,-0.5 709.5,-19.5 787.5,-19.5 787.5,-0.5 709.5,-0.5"/>
<text text-anchor="middle" x="748.5" y="-7.5" font-family="Helvetica,sans-Serif" font-size="10.00">shared_mutex</text>
</a>
</g>
</g>
<!-- Node3&#45;&gt;Node12 -->
<g id="edge11" class="edge">
<title>Node3&#45;&gt;Node12</title>
<path fill="none" stroke="midnightblue" d="M954.68,-56.44C911.94,-47.02 843.17,-31.87 796.93,-21.68"/>
<polygon fill="midnightblue" stroke="midnightblue" points="797.66,-18.25 787.14,-19.52 796.15,-25.09 797.66,-18.25"/>
</g>
<!-- Node13 -->
<g id="node13" class="node">
<title>Node13</title>
<g id="a_node13"><a xlink:title=" ">
<polygon fill="none" stroke="#bfbfbf" points="805.5,-0.5 805.5,-19.5 863.5,-19.5 863.5,-0.5 805.5,-0.5"/>
<text text-anchor="middle" x="834.5" y="-7.5" font-family="Helvetica,sans-Serif" font-size="10.00">functional</text>
</a>
</g>
</g>
<!-- Node3&#45;&gt;Node13 -->
<g id="edge12" class="edge">
<title>Node3&#45;&gt;Node13</title>
<path fill="none" stroke="midnightblue" d="M968.31,-56.44C941.56,-47.36 899.1,-32.94 869.19,-22.78"/>
<polygon fill="midnightblue" stroke="midnightblue" points="870.17,-19.42 859.58,-19.52 867.92,-26.05 870.17,-19.42"/>
</g>
<!-- Node14 -->
<g id="node14" class="node">
<title>Node14</title>
<g id="a_node14"><a xlink:title=" ">
<polygon fill="none" stroke="#bfbfbf" points="882,-0.5 882,-19.5 947,-19.5 947,-0.5 882,-0.5"/>
<text text-anchor="middle" x="914.5" y="-7.5" font-family="Helvetica,sans-Serif" font-size="10.00">semaphore</text>
</a>
</g>
</g>
<!-- Node3&#45;&gt;Node14 -->
<g id="edge13" class="edge">
<title>Node3&#45;&gt;Node14</title>
<path fill="none" stroke="midnightblue" d="M980.81,-56.32C968.6,-47.98 949.92,-35.21 935.5,-25.35"/>
<polygon fill="midnightblue" stroke="midnightblue" points="937.39,-22.41 927.16,-19.65 933.44,-28.19 937.39,-22.41"/>
</g>
<!-- Node15 -->
<g id="node15" class="node">
<title>Node15</title>
<g id="a_node15"><a xlink:title=" ">
<polygon fill="none" stroke="#bfbfbf" points="965.5,-0.5 965.5,-19.5 1021.5,-19.5 1021.5,-0.5 965.5,-0.5"/>
<text text-anchor="middle" x="993.5" y="-7.5" font-family="Helvetica,sans-Serif" font-size="10.00">concepts</text>
</a>
</g>
</g>
<!-- Node3&#45;&gt;Node15 -->
<g id="edge14" class="edge">
<title>Node3&#45;&gt;Node15</title>
<path fill="none" stroke="midnightblue" d="M993.5,-56.08C993.5,-49.01 993.5,-38.86 993.5,-29.99"/>
<polygon fill="midnightblue" stroke="midnightblue" points="997,-29.75 993.5,-19.75 990,-29.75 997,-29.75"/>
</g>
<!-- Node16 -->
<g id="node16" class="node">
<title>Node16</title>
<g id="a_node16"><a xlink:title=" ">
<polygon fill="none" stroke="#bfbfbf" points="1039.5,-0.5 1039.5,-19.5 1093.5,-19.5 1093.5,-0.5 1039.5,-0.5"/>
<text text-anchor="middle" x="1066.5" y="-7.5" font-family="Helvetica,sans-Serif" font-size="10.00">iostream</text>
</a>
</g>
</g>
<!-- Node3&#45;&gt;Node16 -->
<g id="edge15" class="edge">
<title>Node3&#45;&gt;Node16</title>
<path fill="none" stroke="midnightblue" d="M1005.23,-56.32C1016.34,-48.11 1033.24,-35.6 1046.48,-25.81"/>
<polygon fill="midnightblue" stroke="midnightblue" points="1048.6,-28.59 1054.56,-19.83 1044.44,-22.97 1048.6,-28.59"/>
</g>
<!-- Node17 -->
<g id="node17" class="node">
<title>Node17</title>
<g id="a_node17"><a xlink:title=" ">
<polygon fill="none" stroke="#bfbfbf" points="1112,-0.5 1112,-19.5 1161,-19.5 1161,-0.5 1112,-0.5"/>
<text text-anchor="middle" x="1136.5" y="-7.5" font-family="Helvetica,sans-Serif" font-size="10.00">fstream</text>
</a>
</g>
</g>
<!-- Node3&#45;&gt;Node17 -->
<g id="edge16" class="edge">
<title>Node3&#45;&gt;Node17</title>
<path fill="none" stroke="midnightblue" d="M1016.16,-56.44C1039.9,-47.48 1077.41,-33.31 1104.24,-23.18"/>
<polygon fill="midnightblue" stroke="midnightblue" points="1105.83,-26.32 1113.95,-19.52 1103.36,-19.77 1105.83,-26.32"/>
</g>
<!-- Node18 -->
<g id="node18" class="node">
<title>Node18</title>
<g id="a_node18"><a xlink:title=" ">
<polygon fill="none" stroke="#bfbfbf" points="1179,-0.5 1179,-19.5 1220,-19.5 1220,-0.5 1179,-0.5"/>
<text text-anchor="middle" x="1199.5" y="-7.5" font-family="Helvetica,sans-Serif" font-size="10.00">bitset</text>
</a>
</g>
</g>
<!-- Node3&#45;&gt;Node18 -->
<g id="edge17" class="edge">
<title>Node3&#45;&gt;Node18</title>
<path fill="none" stroke="midnightblue" d="M1028.68,-56.46C1062.27,-48.2 1114.53,-35.09 1169.04,-20.04"/>
<polygon fill="midnightblue" stroke="midnightblue" points="1170.18,-23.36 1178.88,-17.31 1168.3,-16.61 1170.18,-23.36"/>
</g>
<!-- Node19 -->
<g id="node19" class="node">
<title>Node19</title>
<g id="a_node19"><a xlink:title=" ">
<polygon fill="none" stroke="#bfbfbf" points="1238.5,-0.5 1238.5,-19.5 1290.5,-19.5 1290.5,-0.5 1238.5,-0.5"/>
<text text-anchor="middle" x="1264.5" y="-7.5" font-family="Helvetica,sans-Serif" font-size="10.00">memory</text>
</a>
</g>
</g>
<!-- Node3&#45;&gt;Node19 -->
<g id="edge18" class="edge">
<title>Node3&#45;&gt;Node19</title>
<path fill="none" stroke="midnightblue" d="M1042.27,-56.48C1087.77,-48.35 1157.77,-35.37 1228.25,-19.95"/>
<polygon fill="midnightblue" stroke="midnightblue" points="1229.18,-23.33 1238.19,-17.76 1227.67,-16.49 1229.18,-23.33"/>
</g>
<!-- Node20 -->
<g id="node20" class="node">
<title>Node20</title>
<g id="a_node20"><a xlink:title=" ">
<polygon fill="none" stroke="#bfbfbf" points="1309,-0.5 1309,-19.5 1358,-19.5 1358,-0.5 1309,-0.5"/>
<text text-anchor="middle" x="1333.5" y="-7.5" font-family="Helvetica,sans-Serif" font-size="10.00">random</text>
</a>
</g>
</g>
<!-- Node3&#45;&gt;Node20 -->
<g id="edge19" class="edge">
<title>Node3&#45;&gt;Node20</title>
<path fill="none" stroke="midnightblue" d="M1060.74,-57.33C1120.74,-49.97 1211.15,-37.66 1298.84,-19.93"/>
<polygon fill="midnightblue" stroke="midnightblue" points="1299.6,-23.35 1308.69,-17.91 1298.2,-16.49 1299.6,-23.35"/>
</g>
<!-- Node21 -->
<g id="node21" class="node">
<title>Node21</title>
<g id="a_node21"><a xlink:title=" ">
<polygon fill="none" stroke="#bfbfbf" points="1376,-0.5 1376,-19.5 1417,-19.5 1417,-0.5 1376,-0.5"/>
<text text-anchor="middle" x="1396.5" y="-7.5" font-family="Helvetica,sans-Serif" font-size="10.00">string</text>
</a>
</g>
</g>
<!-- Node3&#45;&gt;Node21 -->
<g id="edge20" class="edge">
<title>Node3&#45;&gt;Node21</title>
<path fill="none" stroke="midnightblue" d="M1060.77,-60.37C1133.77,-54.57 1253.79,-42.75 1366.16,-19.71"/>
<polygon fill="midnightblue" stroke="midnightblue" points="1366.89,-23.13 1375.96,-17.67 1365.46,-16.28 1366.89,-23.13"/>
</g>
<!-- Node22 -->
<g id="node22" class="node">
<title>Node22</title>
<g id="a_node22"><a xlink:title=" ">
<polygon fill="none" stroke="#bfbfbf" points="1435.5,-0.5 1435.5,-19.5 1477.5,-19.5 1477.5,-0.5 1435.5,-0.5"/>
<text text-anchor="middle" x="1456.5" y="-7.5" font-family="Helvetica,sans-Serif" font-size="10.00">vector</text>
</a>
</g>
</g>
<!-- Node3&#45;&gt;Node22 -->
<g id="edge21" class="edge">
<title>Node3&#45;&gt;Node22</title>
<path fill="none" stroke="midnightblue" d="M1060.65,-61.73C1146.08,-56.72 1297.84,-44.97 1425.5,-20 1425.6,-19.98 1425.7,-19.96 1425.8,-19.94"/>
<polygon fill="midnightblue" stroke="midnightblue" points="1426.35,-23.41 1435.28,-17.7 1424.74,-16.59 1426.35,-23.41"/>
</g>
<!-- Node23 -->
<g id="node23" class="node">
<title>Node23</title>
<g id="a_node23"><a xlink:title=" ">
<polygon fill="none" stroke="#bfbfbf" points="1495.5,-0.5 1495.5,-19.5 1539.5,-19.5 1539.5,-0.5 1495.5,-0.5"/>
<text text-anchor="middle" x="1517.5" y="-7.5" font-family="Helvetica,sans-Serif" font-size="10.00">thread</text>
</a>
</g>
</g>
<!-- Node3&#45;&gt;Node23 -->
<g id="edge22" class="edge">
<title>Node3&#45;&gt;Node23</title>
<path fill="none" stroke="midnightblue" d="M1060.65,-62.94C1154,-59.18 1328.27,-48.9 1484.98,-19.94"/>
<polygon fill="midnightblue" stroke="midnightblue" points="1486.09,-23.29 1495.27,-18.01 1484.8,-16.41 1486.09,-23.29"/>
</g>
<!-- Node24 -->
<g id="node24" class="node">
<title>Node24</title>
<g id="a_node24"><a xlink:title=" ">
<polygon fill="none" stroke="#bfbfbf" points="1557.5,-0.5 1557.5,-19.5 1601.5,-19.5 1601.5,-0.5 1557.5,-0.5"/>
<text text-anchor="middle" x="1579.5" y="-7.5" font-family="Helvetica,sans-Serif" font-size="10.00">mutex</text>
</a>
</g>
</g>
<!-- Node3&#45;&gt;Node24 -->
<g id="edge23" class="edge">
<title>Node3&#45;&gt;Node24</title>
<path fill="none" stroke="midnightblue" d="M1060.71,-63.91C1163.77,-61.28 1366.99,-52.3 1547.35,-19.85"/>
<polygon fill="midnightblue" stroke="midnightblue" points="1548.07,-23.27 1557.28,-18.03 1546.81,-16.39 1548.07,-23.27"/>
</g>
<!-- Node25 -->
<g id="node25" class="node">
<title>Node25</title>
<g id="a_node25"><a xlink:title=" ">
<polygon fill="none" stroke="#bfbfbf" points="1620,-0.5 1620,-19.5 1663,-19.5 1663,-0.5 1620,-0.5"/>
<text text-anchor="middle" x="1641.5" y="-7.5" font-family="Helvetica,sans-Serif" font-size="10.00">queue</text>
</a>
</g>
</g>
<!-- Node3&#45;&gt;Node25 -->
<g id="edge24" class="edge">
<title>Node3&#45;&gt;Node25</title>
<path fill="none" stroke="midnightblue" d="M1060.72,-64.69C1172.88,-63.17 1405.18,-55.74 1609.92,-19.68"/>
<polygon fill="midnightblue" stroke="midnightblue" points="1610.73,-23.09 1619.96,-17.88 1609.5,-16.2 1610.73,-23.09"/>
</g>
<!-- Node26 -->
<g id="node26" class="node">
<title>Node26</title>
<g id="a_node26"><a xlink:title=" ">
<polygon fill="none" stroke="#bfbfbf" points="1681,-0.5 1681,-19.5 1716,-19.5 1716,-0.5 1681,-0.5"/>
<text text-anchor="middle" x="1698.5" y="-7.5" font-family="Helvetica,sans-Serif" font-size="10.00">map</text>
</a>
</g>
</g>
<!-- Node3&#45;&gt;Node26 -->
<g id="edge25" class="edge">
<title>Node3&#45;&gt;Node26</title>
<path fill="none" stroke="midnightblue" d="M1060.57,-62.73C1204.17,-57.52 1538.35,-43.45 1671,-19.46"/>
<polygon fill="midnightblue" stroke="midnightblue" points="1671.79,-22.87 1680.95,-17.56 1670.48,-16 1671.79,-22.87"/>
</g>
<!-- Node27&#45;&gt;Node2 -->
<g id="edge27" class="edge">
<title>Node27&#45;&gt;Node2</title>
<path fill="none" stroke="midnightblue" d="M2090.73,-520.87C2101.57,-502.13 2125.5,-456.02 2125.5,-414 2125.5,-414 2125.5,-414 2125.5,-244 2125.5,-208.35 2109.86,-195.95 2078.5,-179 1990.39,-131.36 1301.17,-128.01 1069.31,-128.25"/>
<polygon fill="midnightblue" stroke="midnightblue" points="1069.27,-124.75 1059.28,-128.26 1069.28,-131.75 1069.27,-124.75"/>
</g>
<!-- Node28 -->
<g id="node28" class="node">
<title>Node28</title>
<g id="a_node28"><a xlink:title=" ">
<polygon fill="none" stroke="#bfbfbf" points="2027.5,-459.5 2027.5,-478.5 2097.5,-478.5 2097.5,-459.5 2027.5,-459.5"/>
<text text-anchor="middle" x="2062.5" y="-466.5" font-family="Helvetica,sans-Serif" font-size="10.00">opus/opus.h</text>
</a>
</g>
</g>
<!-- Node27&#45;&gt;Node28 -->
<g id="edge28" class="edge">
<title>Node27&#45;&gt;Node28</title>
<path fill="none" stroke="midnightblue" d="M2082.2,-520.98C2078.89,-512.4 2073.68,-498.93 2069.45,-487.98"/>
<polygon fill="midnightblue" stroke="midnightblue" points="2072.66,-486.57 2065.79,-478.51 2066.13,-489.1 2072.66,-486.57"/>
</g>
<!-- Node29&#45;&gt;Node2 -->
<g id="edge30" class="edge">
<title>Node29&#45;&gt;Node2</title>
<path fill="none" stroke="midnightblue" d="M1817.83,-403.45C1897.43,-387.71 2049.5,-351.2 2049.5,-302 2049.5,-302 2049.5,-302 2049.5,-244 2049.5,-213.77 2053.37,-197.54 2029.5,-179 1991.69,-149.62 1301.45,-134.2 1069.1,-129.82"/>
<polygon fill="midnightblue" stroke="midnightblue" points="1069.11,-126.32 1059.05,-129.64 1068.98,-133.32 1069.11,-126.32"/>
</g>
<!-- Node30 -->
<g id="node30" class="node">
<title>Node30</title>
<g id="a_node30"><a xlink:href="$d3/d4f/a00761.html" xlink:title=" ">
<polygon fill="none" stroke="black" points="1213.5,-347.5 1213.5,-366.5 1363.5,-366.5 1363.5,-347.5 1213.5,-347.5"/>
<text text-anchor="middle" x="1288.5" y="-354.5" font-family="Helvetica,sans-Serif" font-size="10.00">discordcoreapi/ThreadPool.hpp</text>
</a>
</g>
</g>
<!-- Node29&#45;&gt;Node30 -->
<g id="edge31" class="edge">
<title>Node29&#45;&gt;Node30</title>
<path fill="none" stroke="midnightblue" d="M1697.29,-403.8C1610.35,-394.06 1465.58,-377.84 1373.69,-367.54"/>
<polygon fill="midnightblue" stroke="midnightblue" points="1373.91,-364.05 1363.59,-366.41 1373.14,-371 1373.91,-364.05"/>
</g>
<!-- Node30&#45;&gt;Node2 -->
<g id="edge32" class="edge">
<title>Node30&#45;&gt;Node2</title>
<path fill="none" stroke="midnightblue" d="M1267.96,-347.38C1221.88,-327.23 1108.78,-273.07 1037.5,-199 1024.04,-185.01 1012.58,-166.26 1004.73,-151.61"/>
<polygon fill="midnightblue" stroke="midnightblue" points="1007.81,-149.94 1000.11,-142.67 1001.59,-153.16 1007.81,-149.94"/>
</g>
<!-- Node31 -->
<g id="node31" class="node">
<title>Node31</title>
<g id="a_node31"><a xlink:href="$db/d7c/a00722.html" xlink:title=" ">
<polygon fill="none" stroke="black" points="1286,-291.5 1286,-310.5 1411,-310.5 1411,-291.5 1286,-291.5"/>
<text text-anchor="middle" x="1348.5" y="-298.5" font-family="Helvetica,sans-Serif" font-size="10.00">discordcoreapi/Https.hpp</text>
</a>
</g>
</g>
<!-- Node30&#45;&gt;Node31 -->
<g id="edge33" class="edge">
<title>Node30&#45;&gt;Node31</title>
<path fill="none" stroke="midnightblue" d="M1298.14,-347.32C1307.01,-339.34 1320.37,-327.31 1331.11,-317.65"/>
<polygon fill="midnightblue" stroke="midnightblue" points="1333.59,-320.13 1338.68,-310.83 1328.91,-314.92 1333.59,-320.13"/>
</g>
<!-- Node46 -->
<g id="node46" class="node">
<title>Node46</title>
<g id="a_node46"><a xlink:title=" ">
<polygon fill="none" stroke="#bfbfbf" points="1211.5,-291.5 1211.5,-310.5 1267.5,-310.5 1267.5,-291.5 1211.5,-291.5"/>
<text text-anchor="middle" x="1239.5" y="-298.5" font-family="Helvetica,sans-Serif" font-size="10.00">coroutine</text>
</a>
</g>
</g>
<!-- Node30&#45;&gt;Node46 -->
<g id="edge50" class="edge">
<title>Node30&#45;&gt;Node46</title>
<path fill="none" stroke="midnightblue" d="M1280.41,-347.08C1273.34,-339.3 1262.91,-327.8 1254.35,-318.37"/>
<polygon fill="midnightblue" stroke="midnightblue" points="1256.75,-315.8 1247.44,-310.75 1251.57,-320.51 1256.75,-315.8"/>
</g>
<!-- Node32 -->
<g id="node32" class="node">
<title>Node32</title>
<g id="a_node32"><a xlink:href="$d5/de8/a00749.html" xlink:title=" ">
<polygon fill="none" stroke="black" points="1364.5,-235.5 1364.5,-254.5 1514.5,-254.5 1514.5,-235.5 1364.5,-235.5"/>
<text text-anchor="middle" x="1439.5" y="-242.5" font-family="Helvetica,sans-Serif" font-size="10.00">discordcoreapi/SSLClients.hpp</text>
</a>
</g>
</g>
<!-- Node31&#45;&gt;Node32 -->
<g id="edge34" class="edge">
<title>Node31&#45;&gt;Node32</title>
<path fill="none" stroke="midnightblue" d="M1363.12,-291.32C1377.45,-282.82 1399.51,-269.73 1416.25,-259.8"/>
<polygon fill="midnightblue" stroke="midnightblue" points="1418.1,-262.77 1424.92,-254.65 1414.53,-256.75 1418.1,-262.77"/>
</g>
<!-- Node32&#45;&gt;Node2 -->
<g id="edge35" class="edge">
<title>Node32&#45;&gt;Node2</title>
<path fill="none" stroke="midnightblue" d="M1364.45,-240.33C1271.83,-234.86 1120.35,-222.59 1069.5,-199 1045.87,-188.03 1024.66,-166.93 1010.69,-150.65"/>
<polygon fill="midnightblue" stroke="midnightblue" points="1013.15,-148.13 1004.07,-142.66 1007.76,-152.6 1013.15,-148.13"/>
</g>
<!-- Node33 -->
<g id="node33" class="node">
<title>Node33</title>
<g id="a_node33"><a xlink:href="$d4/d6a/a00704.html" xlink:title=" ">
<polygon fill="none" stroke="black" points="750.5,-179.5 750.5,-198.5 908.5,-198.5 908.5,-179.5 750.5,-179.5"/>
<text text-anchor="middle" x="829.5" y="-186.5" font-family="Helvetica,sans-Serif" font-size="10.00">discordcoreapi/EventEntities.hpp</text>
</a>
</g>
</g>
<!-- Node32&#45;&gt;Node33 -->
<g id="edge36" class="edge">
<title>Node32&#45;&gt;Node33</title>
<path fill="none" stroke="midnightblue" d="M1364.4,-237.35C1251.76,-227.38 1039.49,-208.59 918.99,-197.92"/>
<polygon fill="midnightblue" stroke="midnightblue" points="918.96,-194.41 908.69,-197.01 918.34,-201.38 918.96,-194.41"/>
</g>
<!-- Node34 -->
<g id="node34" class="node">
<title>Node34</title>
<g id="a_node34"><a xlink:title=" ">
<polygon fill="none" stroke="#bfbfbf" points="1234,-179.5 1234,-198.5 1307,-198.5 1307,-179.5 1234,-179.5"/>
<text text-anchor="middle" x="1270.5" y="-186.5" font-family="Helvetica,sans-Serif" font-size="10.00">openssl/err.h</text>
</a>
</g>
</g>
<!-- Node32&#45;&gt;Node34 -->
<g id="edge38" class="edge">
<title>Node32&#45;&gt;Node34</title>
<path fill="none" stroke="midnightblue" d="M1412.72,-235.44C1384.17,-226.32 1338.77,-211.81 1306.96,-201.65"/>
<polygon fill="midnightblue" stroke="midnightblue" points="1307.74,-198.23 1297.15,-198.52 1305.61,-204.89 1307.74,-198.23"/>
</g>
<!-- Node35 -->
<g id="node35" class="node">
<title>Node35</title>
<g id="a_node35"><a xlink:title=" ">
<polygon fill="none" stroke="#bfbfbf" points="1325.5,-179.5 1325.5,-198.5 1399.5,-198.5 1399.5,-179.5 1325.5,-179.5"/>
<text text-anchor="middle" x="1362.5" y="-186.5" font-family="Helvetica,sans-Serif" font-size="10.00">openssl/ssl.h</text>
</a>
</g>
</g>
<!-- Node32&#45;&gt;Node35 -->
<g id="edge39" class="edge">
<title>Node32&#45;&gt;Node35</title>
<path fill="none" stroke="midnightblue" d="M1427.13,-235.32C1415.34,-227.06 1397.37,-214.45 1383.36,-204.63"/>
<polygon fill="midnightblue" stroke="midnightblue" points="1385.04,-201.53 1374.84,-198.65 1381.02,-207.26 1385.04,-201.53"/>
</g>
<!-- Node36 -->
<g id="node36" class="node">
<title>Node36</title>
<g id="a_node36"><a xlink:title=" ">
<polygon fill="none" stroke="#bfbfbf" points="1418,-179.5 1418,-198.5 1461,-198.5 1461,-179.5 1418,-179.5"/>
<text text-anchor="middle" x="1439.5" y="-186.5" font-family="Helvetica,sans-Serif" font-size="10.00">fcntl.h</text>
</a>
</g>
</g>
<!-- Node32&#45;&gt;Node36 -->
<g id="edge40" class="edge">
<title>Node32&#45;&gt;Node36</title>
<path fill="none" stroke="midnightblue" d="M1439.5,-235.08C1439.5,-228.01 1439.5,-217.86 1439.5,-208.99"/>
<polygon fill="midnightblue" stroke="midnightblue" points="1443,-208.75 1439.5,-198.75 1436,-208.75 1443,-208.75"/>
</g>
<!-- Node37 -->
<g id="node37" class="node">
<title>Node37</title>
<g id="a_node37"><a xlink:title=" ">
<polygon fill="none" stroke="#bfbfbf" points="1479,-179.5 1479,-198.5 1528,-198.5 1528,-179.5 1479,-179.5"/>
<text text-anchor="middle" x="1503.5" y="-186.5" font-family="Helvetica,sans-Serif" font-size="10.00">netdb.h</text>
</a>
</g>
</g>
<!-- Node32&#45;&gt;Node37 -->
<g id="edge41" class="edge">
<title>Node32&#45;&gt;Node37</title>
<path fill="none" stroke="midnightblue" d="M1449.78,-235.32C1459.34,-227.26 1473.78,-215.08 1485.28,-205.37"/>
<polygon fill="midnightblue" stroke="midnightblue" points="1487.64,-207.96 1493.03,-198.83 1483.13,-202.61 1487.64,-207.96"/>
</g>
<!-- Node38 -->
<g id="node38" class="node">
<title>Node38</title>
<g id="a_node38"><a xlink:title=" ">
<polygon fill="none" stroke="#bfbfbf" points="1546,-179.5 1546,-198.5 1611,-198.5 1611,-179.5 1546,-179.5"/>
<text text-anchor="middle" x="1578.5" y="-186.5" font-family="Helvetica,sans-Serif" font-size="10.00">netinet/in.h</text>
</a>
</g>
</g>
<!-- Node32&#45;&gt;Node38 -->
<g id="edge42" class="edge">
<title>Node32&#45;&gt;Node38</title>
<path fill="none" stroke="midnightblue" d="M1461.52,-235.44C1484.6,-226.48 1521.06,-212.31 1547.14,-202.18"/>
<polygon fill="midnightblue" stroke="midnightblue" points="1548.52,-205.4 1556.58,-198.52 1545.99,-198.88 1548.52,-205.4"/>
</g>
<!-- Node39 -->
<g id="node39" class="node">
<title>Node39</title>
<g id="a_node39"><a xlink:title=" ">
<polygon fill="none" stroke="#bfbfbf" points="1629,-179.5 1629,-198.5 1700,-198.5 1700,-179.5 1629,-179.5"/>
<text text-anchor="middle" x="1664.5" y="-186.5" font-family="Helvetica,sans-Serif" font-size="10.00">netinet/tcp.h</text>
</a>
</g>
</g>
<!-- Node32&#45;&gt;Node39 -->
<g id="edge43" class="edge">
<title>Node32&#45;&gt;Node39</title>
<path fill="none" stroke="midnightblue" d="M1475.15,-235.44C1514.16,-226.08 1576.77,-211.06 1619.22,-200.87"/>
<polygon fill="midnightblue" stroke="midnightblue" points="1620.11,-204.25 1629.01,-198.52 1618.47,-197.45 1620.11,-204.25"/>
</g>
<!-- Node40 -->
<g id="node40" class="node">
<title>Node40</title>
<g id="a_node40"><a xlink:title=" ">
<polygon fill="none" stroke="#bfbfbf" points="1718,-179.5 1718,-198.5 1767,-198.5 1767,-179.5 1718,-179.5"/>
<text text-anchor="middle" x="1742.5" y="-186.5" font-family="Helvetica,sans-Serif" font-size="10.00">stdint.h</text>
</a>
</g>
</g>
<!-- Node32&#45;&gt;Node40 -->
<g id="edge44" class="edge">
<title>Node32&#45;&gt;Node40</title>
<path fill="none" stroke="midnightblue" d="M1500.17,-235.5C1552.64,-227.77 1630.72,-215.38 1707.8,-198.98"/>
<polygon fill="midnightblue" stroke="midnightblue" points="1708.64,-202.38 1717.68,-196.85 1707.17,-195.54 1708.64,-202.38"/>
</g>
<!-- Node41 -->
<g id="node41" class="node">
<title>Node41</title>
<g id="a_node41"><a xlink:title=" ">
<polygon fill="none" stroke="#bfbfbf" points="1785.5,-179.5 1785.5,-198.5 1849.5,-198.5 1849.5,-179.5 1785.5,-179.5"/>
<text text-anchor="middle" x="1817.5" y="-186.5" font-family="Helvetica,sans-Serif" font-size="10.00">sys/epoll.h</text>
</a>
</g>
</g>
<!-- Node32&#45;&gt;Node41 -->
<g id="edge45" class="edge">
<title>Node32&#45;&gt;Node41</title>
<path fill="none" stroke="midnightblue" d="M1514.82,-235.62C1583.09,-227.61 1686.35,-214.5 1775.5,-199 1775.6,-198.98 1775.7,-198.96 1775.8,-198.95"/>
<polygon fill="midnightblue" stroke="midnightblue" points="1776.26,-202.42 1785.45,-197.14 1774.97,-195.54 1776.26,-202.42"/>
</g>
<!-- Node42 -->
<g id="node42" class="node">
<title>Node42</title>
<g id="a_node42"><a xlink:title=" ">
<polygon fill="none" stroke="#bfbfbf" points="1867.5,-179.5 1867.5,-198.5 1929.5,-198.5 1929.5,-179.5 1867.5,-179.5"/>
<text text-anchor="middle" x="1898.5" y="-186.5" font-family="Helvetica,sans-Serif" font-size="10.00">arpa/inet.h</text>
</a>
</g>
</g>
<!-- Node32&#45;&gt;Node42 -->
<g id="edge46" class="edge">
<title>Node32&#45;&gt;Node42</title>
<path fill="none" stroke="midnightblue" d="M1514.78,-238.52C1596.71,-231.97 1731.7,-219.47 1856.97,-199.09"/>
<polygon fill="midnightblue" stroke="midnightblue" points="1857.83,-202.49 1867.12,-197.42 1856.69,-195.59 1857.83,-202.49"/>
</g>
<!-- Node43 -->
<g id="node43" class="node">
<title>Node43</title>
<g id="a_node43"><a xlink:title=" ">
<polygon fill="none" stroke="#bfbfbf" points="1948,-179.5 1948,-198.5 2021,-198.5 2021,-179.5 1948,-179.5"/>
<text text-anchor="middle" x="1984.5" y="-186.5" font-family="Helvetica,sans-Serif" font-size="10.00">sys/socket.h</text>
</a>
</g>
</g>
<!-- Node32&#45;&gt;Node43 -->
<g id="edge47" class="edge">
<title>Node32&#45;&gt;Node43</title>
<path fill="none" stroke="midnightblue" d="M1514.6,-239.65C1610.39,-233.57 1781.34,-220.89 1937.63,-198.97"/>
<polygon fill="midnightblue" stroke="midnightblue" points="1938.49,-202.38 1947.9,-197.51 1937.51,-195.45 1938.49,-202.38"/>
</g>
<!-- Node44 -->
<g id="node44" class="node">
<title>Node44</title>
<g id="a_node44"><a xlink:title=" ">
<polygon fill="none" stroke="#bfbfbf" points="1078.5,-179.5 1078.5,-198.5 1146.5,-198.5 1146.5,-179.5 1078.5,-179.5"/>
<text text-anchor="middle" x="1112.5" y="-186.5" font-family="Helvetica,sans-Serif" font-size="10.00">sys/types.h</text>
</a>
</g>
</g>
<!-- Node32&#45;&gt;Node44 -->
<g id="edge48" class="edge">
<title>Node32&#45;&gt;Node44</title>
<path fill="none" stroke="midnightblue" d="M1380.34,-235.49C1324.98,-227.34 1239.75,-214.27 1156.6,-199.13"/>
<polygon fill="midnightblue" stroke="midnightblue" points="1157.2,-195.68 1146.74,-197.32 1155.94,-202.57 1157.2,-195.68"/>
</g>
<!-- Node45 -->
<g id="node45" class="node">
<title>Node45</title>
<g id="a_node45"><a xlink:title=" ">
<polygon fill="none" stroke="#bfbfbf" points="1165,-179.5 1165,-198.5 1216,-198.5 1216,-179.5 1165,-179.5"/>
<text text-anchor="middle" x="1190.5" y="-186.5" font-family="Helvetica,sans-Serif" font-size="10.00">unistd.h</text>
</a>
</g>
</g>
<!-- Node32&#45;&gt;Node45 -->
<g id="edge49" class="edge">
<title>Node32&#45;&gt;Node45</title>
<path fill="none" stroke="midnightblue" d="M1395.29,-235.45C1353.85,-227.28 1289.94,-214.28 1225.94,-199.26"/>
<polygon fill="midnightblue" stroke="midnightblue" points="1226.62,-195.82 1216.08,-196.93 1225.01,-202.63 1226.62,-195.82"/>
</g>
<!-- Node33&#45;&gt;Node2 -->
<g id="edge37" class="edge">
<title>Node33&#45;&gt;Node2</title>
<path fill="none" stroke="midnightblue" d="M853,-179.48C876.97,-170.78 914.87,-157.03 945.27,-146"/>
<polygon fill="midnightblue" stroke="midnightblue" points="946.64,-149.22 954.85,-142.52 944.25,-142.64 946.64,-149.22"/>
</g>
<!-- Node47&#45;&gt;Node2 -->
<g id="edge52" class="edge">
<title>Node47&#45;&gt;Node2</title>
<path fill="none" stroke="midnightblue" d="M1294.62,-526.18C1497.02,-514.35 2087.5,-465.8 2087.5,-302 2087.5,-302 2087.5,-302 2087.5,-244 2087.5,-211.19 2080.26,-196.49 2052.5,-179 1969.97,-127 1297.93,-126.49 1069.31,-127.85"/>
<polygon fill="midnightblue" stroke="midnightblue" points="1069.06,-124.36 1059.09,-127.92 1069.11,-131.35 1069.06,-124.36"/>
</g>
<!-- Node47&#45;&gt;Node30 -->
<g id="edge65" class="edge">
<title>Node47&#45;&gt;Node30</title>
<path fill="none" stroke="midnightblue" d="M1242.33,-515.43C1251.35,-505.99 1262.29,-492.8 1268.5,-479 1283.74,-445.14 1287.5,-401.27 1288.34,-376.73"/>
<polygon fill="midnightblue" stroke="midnightblue" points="1291.84,-376.72 1288.56,-366.64 1284.85,-376.57 1291.84,-376.72"/>
</g>
<!-- Node47&#45;&gt;Node32 -->
<g id="edge64" class="edge">
<title>Node47&#45;&gt;Node32</title>
<path fill="none" stroke="midnightblue" d="M1294.58,-521.25C1356.69,-509.41 1439.5,-481.06 1439.5,-414 1439.5,-414 1439.5,-414 1439.5,-356 1439.5,-323.95 1439.5,-286.64 1439.5,-264.75"/>
<polygon fill="midnightblue" stroke="midnightblue" points="1443,-264.56 1439.5,-254.56 1436,-264.56 1443,-264.56"/>
</g>
<!-- Node47&#45;&gt;Node33 -->
<g id="edge63" class="edge">
<title>Node47&#45;&gt;Node33</title>
<path fill="none" stroke="midnightblue" d="M1160.15,-523.85C1046.89,-512.46 830.5,-481.83 830.5,-414 830.5,-414 830.5,-414 830.5,-300 830.5,-267.95 830.07,-230.64 829.77,-208.75"/>
<polygon fill="midnightblue" stroke="midnightblue" points="833.27,-208.51 829.63,-198.56 826.27,-208.61 833.27,-208.51"/>
</g>
<!-- Node48 -->
<g id="node48" class="node">
<title>Node48</title>
<g id="a_node48"><a xlink:href="$d4/d9b/a00680.html" xlink:title=" ">
<polygon fill="none" stroke="black" points="640.5,-235.5 640.5,-254.5 802.5,-254.5 802.5,-235.5 640.5,-235.5"/>
<text text-anchor="middle" x="721.5" y="-242.5" font-family="Helvetica,sans-Serif" font-size="10.00">discordcoreapi/AudioDecoder.hpp</text>
</a>
</g>
</g>
<!-- Node47&#45;&gt;Node48 -->
<g id="edge53" class="edge">
<title>Node47&#45;&gt;Node48</title>
<path fill="none" stroke="midnightblue" d="M1160.17,-526.82C1059.4,-521.89 874.95,-508.97 816.5,-479 781.52,-461.06 756.5,-453.32 756.5,-414 756.5,-414 756.5,-414 756.5,-356 756.5,-322.07 741.19,-284.91 730.82,-263.63"/>
<polygon fill="midnightblue" stroke="midnightblue" points="733.86,-261.88 726.22,-254.54 727.62,-265.05 733.86,-261.88"/>
</g>
<!-- Node51 -->
<g id="node51" class="node">
<title>Node51</title>
<g id="a_node51"><a xlink:href="$d0/db6/a00692.html" xlink:title=" ">
<polygon fill="none" stroke="black" points="1073,-459.5 1073,-478.5 1260,-478.5 1260,-459.5 1073,-459.5"/>
<text text-anchor="middle" x="1166.5" y="-466.5" font-family="Helvetica,sans-Serif" font-size="10.00">discordcoreapi/CommandController.hpp</text>
</a>
</g>
</g>
<!-- Node47&#45;&gt;Node51 -->
<g id="edge58" class="edge">
<title>Node47&#45;&gt;Node51</title>
<path fill="none" stroke="midnightblue" d="M1213.04,-515.4C1203.91,-506.49 1192.08,-494.95 1182.64,-485.74"/>
<polygon fill="midnightblue" stroke="midnightblue" points="1184.98,-483.13 1175.38,-478.66 1180.09,-488.15 1184.98,-483.13"/>
</g>
<!-- Node52 -->
<g id="node52" class="node">
<title>Node52</title>
<g id="a_node52"><a xlink:href="$dd/d57/a00701.html" xlink:title=" ">
<polygon fill="none" stroke="black" points="858.5,-403.5 858.5,-422.5 1002.5,-422.5 1002.5,-403.5 858.5,-403.5"/>
<text text-anchor="middle" x="930.5" y="-410.5" font-family="Helvetica,sans-Serif" font-size="10.00">discordcoreapi/ErlPacker.hpp</text>
</a>
</g>
</g>
<!-- Node47&#45;&gt;Node52 -->
<g id="edge61" class="edge">
<title>Node47&#45;&gt;Node52</title>
<path fill="none" stroke="midnightblue" d="M1174.34,-515.4C1141.89,-506.24 1099.79,-493.35 1063.5,-479 1024.55,-463.59 981.29,-441.46 954.99,-427.41"/>
<polygon fill="midnightblue" stroke="midnightblue" points="956.57,-424.28 946.11,-422.62 953.25,-430.45 956.57,-424.28"/>
</g>
<!-- Node48&#45;&gt;Node2 -->
<g id="edge55" class="edge">
<title>Node48&#45;&gt;Node2</title>
<path fill="none" stroke="midnightblue" d="M721.51,-235.38C722.03,-221.37 725.21,-193.73 741.5,-179 767.03,-155.92 853.28,-142.32 917.81,-135.15"/>
<polygon fill="midnightblue" stroke="midnightblue" points="918.4,-138.61 927.97,-134.06 917.65,-131.65 918.4,-138.61"/>
</g>
<!-- Node48&#45;&gt;Node33 -->
<g id="edge54" class="edge">
<title>Node48&#45;&gt;Node33</title>
<path fill="none" stroke="midnightblue" d="M738.85,-235.32C756.17,-226.66 783.02,-213.24 803,-203.25"/>
<polygon fill="midnightblue" stroke="midnightblue" points="804.81,-206.26 812.19,-198.65 801.68,-200 804.81,-206.26"/>
</g>
<!-- Node49 -->
<g id="node49" class="node">
<title>Node49</title>
<g id="a_node49"><a xlink:title=" ">
<polygon fill="none" stroke="#bfbfbf" points="584.5,-179.5 584.5,-198.5 694.5,-198.5 694.5,-179.5 584.5,-179.5"/>
<text text-anchor="middle" x="639.5" y="-186.5" font-family="Helvetica,sans-Serif" font-size="10.00">libavformat/avformat.h</text>
</a>
</g>
</g>
<!-- Node48&#45;&gt;Node49 -->
<g id="edge56" class="edge">
<title>Node48&#45;&gt;Node49</title>
<path fill="none" stroke="midnightblue" d="M708.33,-235.32C695.65,-226.98 676.27,-214.21 661.29,-204.35"/>
<polygon fill="midnightblue" stroke="midnightblue" points="662.92,-201.23 652.64,-198.65 659.07,-207.08 662.92,-201.23"/>
</g>
<!-- Node50 -->
<g id="node50" class="node">
<title>Node50</title>
<g id="a_node50"><a xlink:title=" ">
<polygon fill="none" stroke="#bfbfbf" points="425,-179.5 425,-198.5 566,-198.5 566,-179.5 425,-179.5"/>
<text text-anchor="middle" x="495.5" y="-186.5" font-family="Helvetica,sans-Serif" font-size="10.00">libswresample/swresample.h</text>
</a>
</g>
</g>
<!-- Node48&#45;&gt;Node50 -->
<g id="edge57" class="edge">
<title>Node48&#45;&gt;Node50</title>
<path fill="none" stroke="midnightblue" d="M685.69,-235.44C646.51,-226.08 583.62,-211.06 540.98,-200.87"/>
<polygon fill="midnightblue" stroke="midnightblue" points="541.68,-197.44 531.14,-198.52 540.06,-204.24 541.68,-197.44"/>
</g>
<!-- Node51&#45;&gt;Node2 -->
<g id="edge59" class="edge">
<title>Node51&#45;&gt;Node2</title>
<path fill="none" stroke="midnightblue" d="M1161.11,-459.44C1140.63,-426.65 1066.3,-305.5 1018.5,-199 1011.68,-183.8 1005.41,-166.13 1000.86,-152.28"/>
<polygon fill="midnightblue" stroke="midnightblue" points="1004.13,-150.99 997.74,-142.54 997.46,-153.13 1004.13,-150.99"/>
</g>
<!-- Node51&#45;&gt;Node29 -->
<g id="edge60" class="edge">
<title>Node51&#45;&gt;Node29</title>
<path fill="none" stroke="midnightblue" d="M1260.21,-459.62C1377.17,-449.16 1575.4,-431.44 1687.25,-421.44"/>
<polygon fill="midnightblue" stroke="midnightblue" points="1687.82,-424.91 1697.47,-420.53 1687.2,-417.93 1687.82,-424.91"/>
</g>
<!-- Node52&#45;&gt;Node2 -->
<g id="edge62" class="edge">
<title>Node52&#45;&gt;Node2</title>
<path fill="none" stroke="midnightblue" d="M931.28,-403.45C932.91,-384.96 936.5,-339.87 936.5,-302 936.5,-302 936.5,-302 936.5,-244 936.5,-208.66 958.22,-172.94 974.84,-150.78"/>
<polygon fill="midnightblue" stroke="midnightblue" points="977.75,-152.74 981.13,-142.7 972.23,-148.44 977.75,-152.74"/>
</g>
</g>
</svg>
