<?xml version="1.0" encoding="UTF-8" standalone="no"?>
<!DOCTYPE svg PUBLIC "-//W3C//DTD SVG 1.1//EN"
 "http://www.w3.org/Graphics/SVG/1.1/DTD/svg11.dtd">
<!-- Generated by graphviz version 3.0.0 (20220226.1711)
 -->
<!-- Title: VoiceConnection.hpp Pages: 1 -->
<svg width="2459pt" height="610pt"
 viewBox="0.00 0.00 2458.50 610.00" xmlns="http://www.w3.org/2000/svg" xmlns:xlink="http://www.w3.org/1999/xlink">
<g id="graph0" class="graph" transform="scale(1 1) rotate(0) translate(4 606)">
<title>VoiceConnection.hpp</title>
<!-- Node1 -->
<g id="node1" class="node">
<title>Node1</title>
<g id="a_node1"><a xlink:title=" ">
<polygon fill="#bfbfbf" stroke="black" points="1022.5,-582.5 1022.5,-601.5 1131.5,-601.5 1131.5,-582.5 1022.5,-582.5"/>
<text text-anchor="middle" x="1077" y="-589.5" font-family="Helvetica,sans-Serif" font-size="10.00">VoiceConnection.hpp</text>
</a>
</g>
</g>
<!-- Node2 -->
<g id="node2" class="node">
<title>Node2</title>
<g id="a_node2"><a xlink:href="../../d4/deb/a00710.html" target="_top" xlink:title=" ">
<polygon fill="none" stroke="black" points="1238.5,-112.5 1238.5,-142.5 1369.5,-142.5 1369.5,-112.5 1238.5,-112.5"/>
<text text-anchor="start" x="1246.5" y="-130.5" font-family="Helvetica,sans-Serif" font-size="10.00">discordcoreapi/Foundation</text>
<text text-anchor="middle" x="1304" y="-119.5" font-family="Helvetica,sans-Serif" font-size="10.00">Entities.hpp</text>
</a>
</g>
</g>
<!-- Node1&#45;&gt;Node2 -->
<g id="edge1" class="edge">
<title>Node1&#45;&gt;Node2</title>
<path fill="none" stroke="midnightblue" d="M1022.18,-589.32C828.8,-582.7 190,-554.41 190,-470 190,-470 190,-470 190,-244 190,-210.76 198.66,-196.38 227,-179 311.71,-127.05 996.88,-126.54 1228.11,-127.87"/>
<polygon fill="midnightblue" stroke="midnightblue" points="1228.1,-131.37 1238.12,-127.93 1228.14,-124.37 1228.1,-131.37"/>
</g>
<!-- Node28 -->
<g id="node28" class="node">
<title>Node28</title>
<g id="a_node28"><a xlink:href="../../d4/d9b/a00680.html" target="_top" xlink:title=" ">
<polygon fill="none" stroke="black" points="0,-179.5 0,-198.5 162,-198.5 162,-179.5 0,-179.5"/>
<text text-anchor="middle" x="81" y="-186.5" font-family="Helvetica,sans-Serif" font-size="10.00">discordcoreapi/AudioEncoder.hpp</text>
</a>
</g>
</g>
<!-- Node1&#45;&gt;Node28 -->
<g id="edge27" class="edge">
<title>Node1&#45;&gt;Node28</title>
<path fill="none" stroke="midnightblue" d="M1022.42,-590.91C838.83,-590.23 250.88,-585.01 176,-546 138.08,-526.24 117,-512.76 117,-470 117,-470 117,-470 117,-300 117,-265.98 101.26,-228.85 90.59,-207.6"/>
<polygon fill="midnightblue" stroke="midnightblue" points="93.59,-205.77 85.86,-198.53 87.38,-209.01 93.59,-205.77"/>
</g>
<!-- Node29 -->
<g id="node29" class="node">
<title>Node29</title>
<g id="a_node29"><a xlink:href="../../d0/db6/a00692.html" target="_top" xlink:title=" ">
<polygon fill="none" stroke="black" points="1004,-403.5 1004,-422.5 1150,-422.5 1150,-403.5 1004,-403.5"/>
<text text-anchor="middle" x="1077" y="-410.5" font-family="Helvetica,sans-Serif" font-size="10.00">discordcoreapi/CoRoutine.hpp</text>
</a>
</g>
</g>
<!-- Node1&#45;&gt;Node29 -->
<g id="edge30" class="edge">
<title>Node1&#45;&gt;Node29</title>
<path fill="none" stroke="midnightblue" d="M1077,-582.46C1077,-555.43 1077,-471.24 1077,-433.11"/>
<polygon fill="midnightblue" stroke="midnightblue" points="1080.5,-432.87 1077,-422.87 1073.5,-432.87 1080.5,-432.87"/>
</g>
<!-- Node47 -->
<g id="node47" class="node">
<title>Node47</title>
<g id="a_node47"><a xlink:href="../../d9/dd4/a00776.html" target="_top" xlink:title=" ">
<polygon fill="none" stroke="black" points="1111,-515.5 1111,-545.5 1245,-545.5 1245,-515.5 1111,-515.5"/>
<text text-anchor="start" x="1119" y="-533.5" font-family="Helvetica,sans-Serif" font-size="10.00">discordcoreapi/WebSocket</text>
<text text-anchor="middle" x="1178" y="-522.5" font-family="Helvetica,sans-Serif" font-size="10.00">Entities.hpp</text>
</a>
</g>
</g>
<!-- Node1&#45;&gt;Node47 -->
<g id="edge52" class="edge">
<title>Node1&#45;&gt;Node47</title>
<path fill="none" stroke="midnightblue" d="M1091.47,-582.48C1105.41,-574.27 1126.98,-561.56 1145.1,-550.88"/>
<polygon fill="midnightblue" stroke="midnightblue" points="1147.36,-553.61 1154.2,-545.52 1143.8,-547.58 1147.36,-553.61"/>
</g>
<!-- Node52 -->
<g id="node52" class="node">
<title>Node52</title>
<g id="a_node52"><a xlink:title=" ">
<polygon fill="none" stroke="#bfbfbf" points="1263,-521 1263,-540 1319,-540 1319,-521 1263,-521"/>
<text text-anchor="middle" x="1291" y="-528" font-family="Helvetica,sans-Serif" font-size="10.00">sodium.h</text>
</a>
</g>
</g>
<!-- Node1&#45;&gt;Node52 -->
<g id="edge67" class="edge">
<title>Node1&#45;&gt;Node52</title>
<path fill="none" stroke="midnightblue" d="M1116.42,-582.46C1152.55,-574.29 1207.37,-561 1254,-546 1256.27,-545.27 1258.61,-544.47 1260.94,-543.64"/>
<polygon fill="midnightblue" stroke="midnightblue" points="1262.28,-546.87 1270.42,-540.09 1259.83,-540.32 1262.28,-546.87"/>
</g>
<!-- Node3 -->
<g id="node3" class="node">
<title>Node3</title>
<g id="a_node3"><a xlink:href="../../d5/dae/a00767.html" target="_top" xlink:title=" ">
<polygon fill="none" stroke="black" points="1622,-56.5 1622,-75.5 1756,-75.5 1756,-56.5 1622,-56.5"/>
<text text-anchor="middle" x="1689" y="-63.5" font-family="Helvetica,sans-Serif" font-size="10.00">discordcoreapi/Utilities.hpp</text>
</a>
</g>
</g>
<!-- Node2&#45;&gt;Node3 -->
<g id="edge2" class="edge">
<title>Node2&#45;&gt;Node3</title>
<path fill="none" stroke="midnightblue" d="M1369.75,-116.34C1440.67,-105.38 1552.93,-88.03 1623.69,-77.09"/>
<polygon fill="midnightblue" stroke="midnightblue" points="1624.47,-80.51 1633.82,-75.53 1623.4,-73.6 1624.47,-80.51"/>
</g>
<!-- Node4 -->
<g id="node4" class="node">
<title>Node4</title>
<g id="a_node4"><a xlink:title=" ">
<polygon fill="none" stroke="#bfbfbf" points="2393.5,-0.5 2393.5,-19.5 2450.5,-19.5 2450.5,-0.5 2393.5,-0.5"/>
<text text-anchor="middle" x="2422" y="-7.5" font-family="Helvetica,sans-Serif" font-size="10.00">pthread.h</text>
</a>
</g>
</g>
<!-- Node3&#45;&gt;Node4 -->
<g id="edge3" class="edge">
<title>Node3&#45;&gt;Node4</title>
<path fill="none" stroke="midnightblue" d="M1756.12,-64.53C1878.99,-62.83 2148.31,-55.19 2383.31,-20.01"/>
<polygon fill="midnightblue" stroke="midnightblue" points="2384.05,-23.43 2393.41,-18.47 2383,-16.51 2384.05,-23.43"/>
</g>
<!-- Node5 -->
<g id="node5" class="node">
<title>Node5</title>
<g id="a_node5"><a xlink:title=" ">
<polygon fill="none" stroke="#bfbfbf" points="735,-0.5 735,-19.5 797,-19.5 797,-0.5 735,-0.5"/>
<text text-anchor="middle" x="766" y="-7.5" font-family="Helvetica,sans-Serif" font-size="10.00">sys/time.h</text>
</a>
</g>
</g>
<!-- Node3&#45;&gt;Node5 -->
<g id="edge4" class="edge">
<title>Node3&#45;&gt;Node5</title>
<path fill="none" stroke="midnightblue" d="M1621.85,-57.19C1617.17,-56.76 1612.51,-56.35 1608,-56 1255.57,-28.54 1161.39,-66.63 807.36,-19.94"/>
<polygon fill="midnightblue" stroke="midnightblue" points="807.72,-16.45 797.35,-18.6 806.8,-23.39 807.72,-16.45"/>
</g>
<!-- Node6 -->
<g id="node6" class="node">
<title>Node6</title>
<g id="a_node6"><a xlink:title=" ">
<polygon fill="none" stroke="#bfbfbf" points="815,-0.5 815,-19.5 859,-19.5 859,-0.5 815,-0.5"/>
<text text-anchor="middle" x="837" y="-7.5" font-family="Helvetica,sans-Serif" font-size="10.00">time.h</text>
</a>
</g>
</g>
<!-- Node3&#45;&gt;Node6 -->
<g id="edge5" class="edge">
<title>Node3&#45;&gt;Node6</title>
<path fill="none" stroke="midnightblue" d="M1621.85,-57.21C1617.16,-56.77 1612.51,-56.36 1608,-56 1283.13,-30.07 1194.58,-73.37 869.39,-19.82"/>
<polygon fill="midnightblue" stroke="midnightblue" points="869.65,-16.31 859.21,-18.12 868.5,-23.22 869.65,-16.31"/>
</g>
<!-- Node7 -->
<g id="node7" class="node">
<title>Node7</title>
<g id="a_node7"><a xlink:title=" ">
<polygon fill="none" stroke="#bfbfbf" points="877.5,-0.5 877.5,-19.5 918.5,-19.5 918.5,-0.5 877.5,-0.5"/>
<text text-anchor="middle" x="898" y="-7.5" font-family="Helvetica,sans-Serif" font-size="10.00">ctime</text>
</a>
</g>
</g>
<!-- Node3&#45;&gt;Node7 -->
<g id="edge6" class="edge">
<title>Node3&#45;&gt;Node7</title>
<path fill="none" stroke="midnightblue" d="M1621.85,-57.24C1617.16,-56.79 1612.51,-56.37 1608,-56 1309.32,-31.53 1227.2,-72.39 929,-19.94"/>
<polygon fill="midnightblue" stroke="midnightblue" points="929.21,-16.42 918.76,-18.12 927.99,-23.32 929.21,-16.42"/>
</g>
<!-- Node8 -->
<g id="node8" class="node">
<title>Node8</title>
<g id="a_node8"><a xlink:title=" ">
<polygon fill="none" stroke="#bfbfbf" points="936.5,-0.5 936.5,-19.5 1029.5,-19.5 1029.5,-0.5 936.5,-0.5"/>
<text text-anchor="middle" x="983" y="-7.5" font-family="Helvetica,sans-Serif" font-size="10.00">condition_variable</text>
</a>
</g>
</g>
<!-- Node3&#45;&gt;Node8 -->
<g id="edge7" class="edge">
<title>Node3&#45;&gt;Node8</title>
<path fill="none" stroke="midnightblue" d="M1621.84,-57.29C1617.16,-56.83 1612.51,-56.39 1608,-56 1358.89,-34.29 1292.57,-47.77 1039.93,-19.99"/>
<polygon fill="midnightblue" stroke="midnightblue" points="1040.03,-16.48 1029.71,-18.85 1039.26,-23.43 1040.03,-16.48"/>
</g>
<!-- Node9 -->
<g id="node9" class="node">
<title>Node9</title>
<g id="a_node9"><a xlink:title=" ">
<polygon fill="none" stroke="#bfbfbf" points="1048,-0.5 1048,-19.5 1146,-19.5 1146,-0.5 1048,-0.5"/>
<text text-anchor="middle" x="1097" y="-7.5" font-family="Helvetica,sans-Serif" font-size="10.00">nlohmann/json.hpp</text>
</a>
</g>
</g>
<!-- Node3&#45;&gt;Node9 -->
<g id="edge8" class="edge">
<title>Node3&#45;&gt;Node9</title>
<path fill="none" stroke="midnightblue" d="M1621.83,-57.37C1617.15,-56.89 1612.51,-56.43 1608,-56 1410.18,-37.15 1357.29,-43.29 1156.02,-20.04"/>
<polygon fill="midnightblue" stroke="midnightblue" points="1156.35,-16.55 1146.01,-18.87 1155.54,-23.5 1156.35,-16.55"/>
</g>
<!-- Node10 -->
<g id="node10" class="node">
<title>Node10</title>
<g id="a_node10"><a xlink:title=" ">
<polygon fill="none" stroke="#bfbfbf" points="1164.5,-0.5 1164.5,-19.5 1249.5,-19.5 1249.5,-0.5 1164.5,-0.5"/>
<text text-anchor="middle" x="1207" y="-7.5" font-family="Helvetica,sans-Serif" font-size="10.00">source_location</text>
</a>
</g>
</g>
<!-- Node3&#45;&gt;Node10 -->
<g id="edge9" class="edge">
<title>Node3&#45;&gt;Node10</title>
<path fill="none" stroke="midnightblue" d="M1621.82,-57.49C1617.14,-56.98 1612.5,-56.48 1608,-56 1455.85,-39.72 1414.63,-41.51 1259.9,-20.18"/>
<polygon fill="midnightblue" stroke="midnightblue" points="1259.93,-16.65 1249.54,-18.74 1258.96,-23.59 1259.93,-16.65"/>
</g>
<!-- Node11 -->
<g id="node11" class="node">
<title>Node11</title>
<g id="a_node11"><a xlink:title=" ">
<polygon fill="none" stroke="#bfbfbf" points="1267.5,-0.5 1267.5,-19.5 1350.5,-19.5 1350.5,-0.5 1267.5,-0.5"/>
<text text-anchor="middle" x="1309" y="-7.5" font-family="Helvetica,sans-Serif" font-size="10.00">unordered_map</text>
</a>
</g>
</g>
<!-- Node3&#45;&gt;Node11 -->
<g id="edge10" class="edge">
<title>Node3&#45;&gt;Node11</title>
<path fill="none" stroke="midnightblue" d="M1621.78,-56.58C1557.42,-48.34 1457.33,-35.07 1360.67,-20.05"/>
<polygon fill="midnightblue" stroke="midnightblue" points="1361.15,-16.58 1350.73,-18.5 1360.07,-23.5 1361.15,-16.58"/>
</g>
<!-- Node12 -->
<g id="node12" class="node">
<title>Node12</title>
<g id="a_node12"><a xlink:title=" ">
<polygon fill="none" stroke="#bfbfbf" points="1369,-0.5 1369,-19.5 1447,-19.5 1447,-0.5 1369,-0.5"/>
<text text-anchor="middle" x="1408" y="-7.5" font-family="Helvetica,sans-Serif" font-size="10.00">shared_mutex</text>
</a>
</g>
</g>
<!-- Node3&#45;&gt;Node12 -->
<g id="edge11" class="edge">
<title>Node3&#45;&gt;Node12</title>
<path fill="none" stroke="midnightblue" d="M1644.47,-56.44C1593.44,-46.64 1510.06,-30.61 1457.16,-20.45"/>
<polygon fill="midnightblue" stroke="midnightblue" points="1457.81,-17.01 1447.33,-18.56 1456.49,-23.88 1457.81,-17.01"/>
</g>
<!-- Node13 -->
<g id="node13" class="node">
<title>Node13</title>
<g id="a_node13"><a xlink:title=" ">
<polygon fill="none" stroke="#bfbfbf" points="647,-0.5 647,-19.5 717,-19.5 717,-0.5 647,-0.5"/>
<text text-anchor="middle" x="682" y="-7.5" font-family="Helvetica,sans-Serif" font-size="10.00">opus/opus.h</text>
</a>
</g>
</g>
<!-- Node3&#45;&gt;Node13 -->
<g id="edge12" class="edge">
<title>Node3&#45;&gt;Node13</title>
<path fill="none" stroke="midnightblue" d="M1621.85,-57.17C1617.17,-56.74 1612.51,-56.34 1608,-56 1220.14,-26.57 1117.2,-66.77 727.6,-19.99"/>
<polygon fill="midnightblue" stroke="midnightblue" points="727.81,-16.49 717.46,-18.76 726.97,-23.44 727.81,-16.49"/>
</g>
<!-- Node14 -->
<g id="node14" class="node">
<title>Node14</title>
<g id="a_node14"><a xlink:title=" ">
<polygon fill="none" stroke="#bfbfbf" points="1465,-0.5 1465,-19.5 1523,-19.5 1523,-0.5 1465,-0.5"/>
<text text-anchor="middle" x="1494" y="-7.5" font-family="Helvetica,sans-Serif" font-size="10.00">functional</text>
</a>
</g>
</g>
<!-- Node3&#45;&gt;Node14 -->
<g id="edge13" class="edge">
<title>Node3&#45;&gt;Node14</title>
<path fill="none" stroke="midnightblue" d="M1658.1,-56.44C1624.24,-47.07 1569.83,-32 1533.04,-21.81"/>
<polygon fill="midnightblue" stroke="midnightblue" points="1533.73,-18.37 1523.16,-19.08 1531.86,-25.12 1533.73,-18.37"/>
</g>
<!-- Node15 -->
<g id="node15" class="node">
<title>Node15</title>
<g id="a_node15"><a xlink:title=" ">
<polygon fill="none" stroke="#bfbfbf" points="1541.5,-0.5 1541.5,-19.5 1606.5,-19.5 1606.5,-0.5 1541.5,-0.5"/>
<text text-anchor="middle" x="1574" y="-7.5" font-family="Helvetica,sans-Serif" font-size="10.00">semaphore</text>
</a>
</g>
</g>
<!-- Node3&#45;&gt;Node15 -->
<g id="edge14" class="edge">
<title>Node3&#45;&gt;Node15</title>
<path fill="none" stroke="midnightblue" d="M1670.78,-56.44C1652.1,-47.68 1622.84,-33.94 1601.38,-23.86"/>
<polygon fill="midnightblue" stroke="midnightblue" points="1602.68,-20.6 1592.14,-19.52 1599.7,-26.93 1602.68,-20.6"/>
</g>
<!-- Node16 -->
<g id="node16" class="node">
<title>Node16</title>
<g id="a_node16"><a xlink:title=" ">
<polygon fill="none" stroke="#bfbfbf" points="1625,-0.5 1625,-19.5 1681,-19.5 1681,-0.5 1625,-0.5"/>
<text text-anchor="middle" x="1653" y="-7.5" font-family="Helvetica,sans-Serif" font-size="10.00">concepts</text>
</a>
</g>
</g>
<!-- Node3&#45;&gt;Node16 -->
<g id="edge15" class="edge">
<title>Node3&#45;&gt;Node16</title>
<path fill="none" stroke="midnightblue" d="M1683.06,-56.08C1678.02,-48.53 1670.66,-37.49 1664.49,-28.23"/>
<polygon fill="midnightblue" stroke="midnightblue" points="1667.29,-26.13 1658.83,-19.75 1661.47,-30.01 1667.29,-26.13"/>
</g>
<!-- Node17 -->
<g id="node17" class="node">
<title>Node17</title>
<g id="a_node17"><a xlink:title=" ">
<polygon fill="none" stroke="#bfbfbf" points="1699,-0.5 1699,-19.5 1753,-19.5 1753,-0.5 1699,-0.5"/>
<text text-anchor="middle" x="1726" y="-7.5" font-family="Helvetica,sans-Serif" font-size="10.00">iostream</text>
</a>
</g>
</g>
<!-- Node3&#45;&gt;Node17 -->
<g id="edge16" class="edge">
<title>Node3&#45;&gt;Node17</title>
<path fill="none" stroke="midnightblue" d="M1695.11,-56.08C1700.28,-48.53 1707.85,-37.49 1714.19,-28.23"/>
<polygon fill="midnightblue" stroke="midnightblue" points="1717.24,-29.98 1720,-19.75 1711.46,-26.02 1717.24,-29.98"/>
</g>
<!-- Node18 -->
<g id="node18" class="node">
<title>Node18</title>
<g id="a_node18"><a xlink:title=" ">
<polygon fill="none" stroke="#bfbfbf" points="1771.5,-0.5 1771.5,-19.5 1820.5,-19.5 1820.5,-0.5 1771.5,-0.5"/>
<text text-anchor="middle" x="1796" y="-7.5" font-family="Helvetica,sans-Serif" font-size="10.00">fstream</text>
</a>
</g>
</g>
<!-- Node3&#45;&gt;Node18 -->
<g id="edge17" class="edge">
<title>Node3&#45;&gt;Node18</title>
<path fill="none" stroke="midnightblue" d="M1706.19,-56.32C1723.35,-47.66 1749.95,-34.24 1769.75,-24.25"/>
<polygon fill="midnightblue" stroke="midnightblue" points="1771.5,-27.28 1778.85,-19.65 1768.35,-21.04 1771.5,-27.28"/>
</g>
<!-- Node19 -->
<g id="node19" class="node">
<title>Node19</title>
<g id="a_node19"><a xlink:title=" ">
<polygon fill="none" stroke="#bfbfbf" points="1838.5,-0.5 1838.5,-19.5 1879.5,-19.5 1879.5,-0.5 1838.5,-0.5"/>
<text text-anchor="middle" x="1859" y="-7.5" font-family="Helvetica,sans-Serif" font-size="10.00">bitset</text>
</a>
</g>
</g>
<!-- Node3&#45;&gt;Node19 -->
<g id="edge18" class="edge">
<title>Node3&#45;&gt;Node19</title>
<path fill="none" stroke="midnightblue" d="M1715.94,-56.44C1746.6,-46.7 1796.58,-30.83 1828.62,-20.65"/>
<polygon fill="midnightblue" stroke="midnightblue" points="1829.87,-23.93 1838.34,-17.56 1827.75,-17.25 1829.87,-23.93"/>
</g>
<!-- Node20 -->
<g id="node20" class="node">
<title>Node20</title>
<g id="a_node20"><a xlink:title=" ">
<polygon fill="none" stroke="#bfbfbf" points="1898,-0.5 1898,-19.5 1950,-19.5 1950,-0.5 1898,-0.5"/>
<text text-anchor="middle" x="1924" y="-7.5" font-family="Helvetica,sans-Serif" font-size="10.00">memory</text>
</a>
</g>
</g>
<!-- Node3&#45;&gt;Node20 -->
<g id="edge19" class="edge">
<title>Node3&#45;&gt;Node20</title>
<path fill="none" stroke="midnightblue" d="M1728.55,-56.47C1766.9,-48.12 1826.98,-34.82 1887.87,-20.22"/>
<polygon fill="midnightblue" stroke="midnightblue" points="1888.75,-23.61 1897.65,-17.87 1887.11,-16.81 1888.75,-23.61"/>
</g>
<!-- Node21 -->
<g id="node21" class="node">
<title>Node21</title>
<g id="a_node21"><a xlink:title=" ">
<polygon fill="none" stroke="#bfbfbf" points="1968.5,-0.5 1968.5,-19.5 2017.5,-19.5 2017.5,-0.5 1968.5,-0.5"/>
<text text-anchor="middle" x="1993" y="-7.5" font-family="Helvetica,sans-Serif" font-size="10.00">random</text>
</a>
</g>
</g>
<!-- Node3&#45;&gt;Node21 -->
<g id="edge20" class="edge">
<title>Node3&#45;&gt;Node21</title>
<path fill="none" stroke="midnightblue" d="M1750.16,-56.48C1802.84,-48.76 1881.06,-36.39 1958.28,-19.98"/>
<polygon fill="midnightblue" stroke="midnightblue" points="1959.14,-23.38 1968.18,-17.86 1957.67,-16.54 1959.14,-23.38"/>
</g>
<!-- Node22 -->
<g id="node22" class="node">
<title>Node22</title>
<g id="a_node22"><a xlink:title=" ">
<polygon fill="none" stroke="#bfbfbf" points="2035.5,-0.5 2035.5,-19.5 2076.5,-19.5 2076.5,-0.5 2035.5,-0.5"/>
<text text-anchor="middle" x="2056" y="-7.5" font-family="Helvetica,sans-Serif" font-size="10.00">string</text>
</a>
</g>
</g>
<!-- Node3&#45;&gt;Node22 -->
<g id="edge21" class="edge">
<title>Node3&#45;&gt;Node22</title>
<path fill="none" stroke="midnightblue" d="M1756.28,-59.41C1822.7,-53.13 1927.21,-41.22 2025.42,-20.06"/>
<polygon fill="midnightblue" stroke="midnightblue" points="2026.18,-23.47 2035.2,-17.91 2024.69,-16.64 2026.18,-23.47"/>
</g>
<!-- Node23 -->
<g id="node23" class="node">
<title>Node23</title>
<g id="a_node23"><a xlink:title=" ">
<polygon fill="none" stroke="#bfbfbf" points="2095,-0.5 2095,-19.5 2137,-19.5 2137,-0.5 2095,-0.5"/>
<text text-anchor="middle" x="2116" y="-7.5" font-family="Helvetica,sans-Serif" font-size="10.00">vector</text>
</a>
</g>
</g>
<!-- Node3&#45;&gt;Node23 -->
<g id="edge22" class="edge">
<title>Node3&#45;&gt;Node23</title>
<path fill="none" stroke="midnightblue" d="M1756.3,-61.05C1833.56,-55.69 1964.12,-44.12 2084.67,-19.94"/>
<polygon fill="midnightblue" stroke="midnightblue" points="2085.72,-23.3 2094.81,-17.87 2084.32,-16.44 2085.72,-23.3"/>
</g>
<!-- Node24 -->
<g id="node24" class="node">
<title>Node24</title>
<g id="a_node24"><a xlink:title=" ">
<polygon fill="none" stroke="#bfbfbf" points="2155,-0.5 2155,-19.5 2199,-19.5 2199,-0.5 2155,-0.5"/>
<text text-anchor="middle" x="2177" y="-7.5" font-family="Helvetica,sans-Serif" font-size="10.00">thread</text>
</a>
</g>
</g>
<!-- Node3&#45;&gt;Node24 -->
<g id="edge23" class="edge">
<title>Node3&#45;&gt;Node24</title>
<path fill="none" stroke="midnightblue" d="M1756.16,-62.26C1843.74,-57.83 2001.71,-46.9 2144.92,-19.88"/>
<polygon fill="midnightblue" stroke="midnightblue" points="2145.61,-23.31 2154.77,-17.99 2144.29,-16.43 2145.61,-23.31"/>
</g>
<!-- Node25 -->
<g id="node25" class="node">
<title>Node25</title>
<g id="a_node25"><a xlink:title=" ">
<polygon fill="none" stroke="#bfbfbf" points="2217,-0.5 2217,-19.5 2261,-19.5 2261,-0.5 2217,-0.5"/>
<text text-anchor="middle" x="2239" y="-7.5" font-family="Helvetica,sans-Serif" font-size="10.00">mutex</text>
</a>
</g>
</g>
<!-- Node3&#45;&gt;Node25 -->
<g id="edge24" class="edge">
<title>Node3&#45;&gt;Node25</title>
<path fill="none" stroke="midnightblue" d="M1756.34,-63.37C1853.92,-60.08 2040.29,-50.3 2206.85,-19.86"/>
<polygon fill="midnightblue" stroke="midnightblue" points="2207.58,-23.29 2216.77,-18.02 2206.3,-16.4 2207.58,-23.29"/>
</g>
<!-- Node26 -->
<g id="node26" class="node">
<title>Node26</title>
<g id="a_node26"><a xlink:title=" ">
<polygon fill="none" stroke="#bfbfbf" points="2279.5,-0.5 2279.5,-19.5 2322.5,-19.5 2322.5,-0.5 2279.5,-0.5"/>
<text text-anchor="middle" x="2301" y="-7.5" font-family="Helvetica,sans-Serif" font-size="10.00">queue</text>
</a>
</g>
</g>
<!-- Node3&#45;&gt;Node26 -->
<g id="edge25" class="edge">
<title>Node3&#45;&gt;Node26</title>
<path fill="none" stroke="midnightblue" d="M1756.23,-64.26C1863.18,-62.09 2078.58,-53.74 2269.52,-19.67"/>
<polygon fill="midnightblue" stroke="midnightblue" points="2270.24,-23.1 2279.45,-17.87 2268.99,-16.21 2270.24,-23.1"/>
</g>
<!-- Node27 -->
<g id="node27" class="node">
<title>Node27</title>
<g id="a_node27"><a xlink:title=" ">
<polygon fill="none" stroke="#bfbfbf" points="2340.5,-0.5 2340.5,-19.5 2375.5,-19.5 2375.5,-0.5 2340.5,-0.5"/>
<text text-anchor="middle" x="2358" y="-7.5" font-family="Helvetica,sans-Serif" font-size="10.00">map</text>
</a>
</g>
</g>
<!-- Node3&#45;&gt;Node27 -->
<g id="edge26" class="edge">
<title>Node3&#45;&gt;Node27</title>
<path fill="none" stroke="midnightblue" d="M1756.08,-62.54C1893.89,-57.14 2205.72,-43 2330.22,-19.81"/>
<polygon fill="midnightblue" stroke="midnightblue" points="2331.13,-23.19 2340.27,-17.83 2329.78,-16.32 2331.13,-23.19"/>
</g>
<!-- Node28&#45;&gt;Node2 -->
<g id="edge28" class="edge">
<title>Node28&#45;&gt;Node2</title>
<path fill="none" stroke="midnightblue" d="M162.08,-180.05C166.79,-179.67 171.46,-179.32 176,-179 571.65,-151.42 1046.48,-135.89 1228.2,-130.59"/>
<polygon fill="midnightblue" stroke="midnightblue" points="1228.56,-134.08 1238.45,-130.29 1228.36,-127.09 1228.56,-134.08"/>
</g>
<!-- Node28&#45;&gt;Node13 -->
<g id="edge29" class="edge">
<title>Node28&#45;&gt;Node13</title>
<path fill="none" stroke="midnightblue" d="M109.99,-179.46C208.56,-150.43 530.87,-55.51 643.07,-22.46"/>
<polygon fill="midnightblue" stroke="midnightblue" points="644.35,-25.74 652.95,-19.55 642.37,-19.02 644.35,-25.74"/>
</g>
<!-- Node29&#45;&gt;Node2 -->
<g id="edge31" class="edge">
<title>Node29&#45;&gt;Node2</title>
<path fill="none" stroke="midnightblue" d="M1073.06,-403.3C1064.16,-382.27 1044.96,-327.68 1067,-291 1111.85,-216.35 1171.27,-252.48 1240,-199 1258,-185 1275.18,-165.62 1287.2,-150.72"/>
<polygon fill="midnightblue" stroke="midnightblue" points="1290.21,-152.56 1293.65,-142.54 1284.71,-148.23 1290.21,-152.56"/>
</g>
<!-- Node30 -->
<g id="node30" class="node">
<title>Node30</title>
<g id="a_node30"><a xlink:href="../../d3/d4f/a00761.html" target="_top" xlink:title=" ">
<polygon fill="none" stroke="black" points="1103,-347.5 1103,-366.5 1253,-366.5 1253,-347.5 1103,-347.5"/>
<text text-anchor="middle" x="1178" y="-354.5" font-family="Helvetica,sans-Serif" font-size="10.00">discordcoreapi/ThreadPool.hpp</text>
</a>
</g>
</g>
<!-- Node29&#45;&gt;Node30 -->
<g id="edge32" class="edge">
<title>Node29&#45;&gt;Node30</title>
<path fill="none" stroke="midnightblue" d="M1093.23,-403.32C1109.35,-394.7 1134.3,-381.36 1152.96,-371.39"/>
<polygon fill="midnightblue" stroke="midnightblue" points="1154.64,-374.46 1161.81,-366.65 1151.34,-368.28 1154.64,-374.46"/>
</g>
<!-- Node30&#45;&gt;Node2 -->
<g id="edge33" class="edge">
<title>Node30&#45;&gt;Node2</title>
<path fill="none" stroke="midnightblue" d="M1225.68,-347.44C1247.19,-341.06 1270.89,-330.02 1285,-311 1319.89,-263.96 1314.47,-190.36 1308.64,-152.61"/>
<polygon fill="midnightblue" stroke="midnightblue" points="1312.05,-151.81 1306.94,-142.54 1305.15,-152.98 1312.05,-151.81"/>
</g>
<!-- Node31 -->
<g id="node31" class="node">
<title>Node31</title>
<g id="a_node31"><a xlink:href="../../db/d7c/a00722.html" target="_top" xlink:title=" ">
<polygon fill="none" stroke="black" points="1076.5,-291.5 1076.5,-310.5 1201.5,-310.5 1201.5,-291.5 1076.5,-291.5"/>
<text text-anchor="middle" x="1139" y="-298.5" font-family="Helvetica,sans-Serif" font-size="10.00">discordcoreapi/Https.hpp</text>
</a>
</g>
</g>
<!-- Node30&#45;&gt;Node31 -->
<g id="edge34" class="edge">
<title>Node30&#45;&gt;Node31</title>
<path fill="none" stroke="midnightblue" d="M1171.56,-347.08C1166.05,-339.46 1157.97,-328.26 1151.24,-318.94"/>
<polygon fill="midnightblue" stroke="midnightblue" points="1154.01,-316.81 1145.32,-310.75 1148.34,-320.91 1154.01,-316.81"/>
</g>
<!-- Node46 -->
<g id="node46" class="node">
<title>Node46</title>
<g id="a_node46"><a xlink:title=" ">
<polygon fill="none" stroke="#bfbfbf" points="1220,-291.5 1220,-310.5 1276,-310.5 1276,-291.5 1220,-291.5"/>
<text text-anchor="middle" x="1248" y="-298.5" font-family="Helvetica,sans-Serif" font-size="10.00">coroutine</text>
</a>
</g>
</g>
<!-- Node30&#45;&gt;Node46 -->
<g id="edge51" class="edge">
<title>Node30&#45;&gt;Node46</title>
<path fill="none" stroke="midnightblue" d="M1189.25,-347.32C1199.8,-339.18 1215.8,-326.84 1228.44,-317.09"/>
<polygon fill="midnightblue" stroke="midnightblue" points="1230.77,-319.71 1236.55,-310.83 1226.49,-314.17 1230.77,-319.71"/>
</g>
<!-- Node32 -->
<g id="node32" class="node">
<title>Node32</title>
<g id="a_node32"><a xlink:href="../../d5/de8/a00749.html" target="_top" xlink:title=" ">
<polygon fill="none" stroke="black" points="806,-235.5 806,-254.5 956,-254.5 956,-235.5 806,-235.5"/>
<text text-anchor="middle" x="881" y="-242.5" font-family="Helvetica,sans-Serif" font-size="10.00">discordcoreapi/SSLClients.hpp</text>
</a>
</g>
</g>
<!-- Node31&#45;&gt;Node32 -->
<g id="edge35" class="edge">
<title>Node31&#45;&gt;Node32</title>
<path fill="none" stroke="midnightblue" d="M1098.12,-291.44C1053.02,-282 980.39,-266.8 931.7,-256.61"/>
<polygon fill="midnightblue" stroke="midnightblue" points="932.19,-253.14 921.69,-254.52 930.76,-259.99 932.19,-253.14"/>
</g>
<!-- Node32&#45;&gt;Node2 -->
<g id="edge36" class="edge">
<title>Node32&#45;&gt;Node2</title>
<path fill="none" stroke="midnightblue" d="M956.09,-244.06C1024.16,-241.73 1126.08,-232.2 1208,-199 1236.25,-187.55 1263.8,-165.91 1282.09,-149.61"/>
<polygon fill="midnightblue" stroke="midnightblue" points="1284.79,-151.88 1289.81,-142.55 1280.06,-146.72 1284.79,-151.88"/>
</g>
<!-- Node33 -->
<g id="node33" class="node">
<title>Node33</title>
<g id="a_node33"><a xlink:href="../../d4/d6a/a00704.html" target="_top" xlink:title=" ">
<polygon fill="none" stroke="black" points="1370,-179.5 1370,-198.5 1528,-198.5 1528,-179.5 1370,-179.5"/>
<text text-anchor="middle" x="1449" y="-186.5" font-family="Helvetica,sans-Serif" font-size="10.00">discordcoreapi/EventEntities.hpp</text>
</a>
</g>
</g>
<!-- Node32&#45;&gt;Node33 -->
<g id="edge37" class="edge">
<title>Node32&#45;&gt;Node33</title>
<path fill="none" stroke="midnightblue" d="M956.13,-236.86C1060.37,-226.95 1248.54,-209.06 1359.78,-198.48"/>
<polygon fill="midnightblue" stroke="midnightblue" points="1360.35,-201.94 1369.97,-197.51 1359.69,-194.98 1360.35,-201.94"/>
</g>
<!-- Node34 -->
<g id="node34" class="node">
<title>Node34</title>
<g id="a_node34"><a xlink:title=" ">
<polygon fill="none" stroke="#bfbfbf" points="256.5,-179.5 256.5,-198.5 329.5,-198.5 329.5,-179.5 256.5,-179.5"/>
<text text-anchor="middle" x="293" y="-186.5" font-family="Helvetica,sans-Serif" font-size="10.00">openssl/err.h</text>
</a>
</g>
</g>
<!-- Node32&#45;&gt;Node34 -->
<g id="edge39" class="edge">
<title>Node32&#45;&gt;Node34</title>
<path fill="none" stroke="midnightblue" d="M805.75,-240.38C702.82,-234.85 512.2,-222.51 339.63,-198.92"/>
<polygon fill="midnightblue" stroke="midnightblue" points="339.98,-195.44 329.6,-197.54 339.02,-202.37 339.98,-195.44"/>
</g>
<!-- Node35 -->
<g id="node35" class="node">
<title>Node35</title>
<g id="a_node35"><a xlink:title=" ">
<polygon fill="none" stroke="#bfbfbf" points="348,-179.5 348,-198.5 422,-198.5 422,-179.5 348,-179.5"/>
<text text-anchor="middle" x="385" y="-186.5" font-family="Helvetica,sans-Serif" font-size="10.00">openssl/ssl.h</text>
</a>
</g>
</g>
<!-- Node32&#45;&gt;Node35 -->
<g id="edge40" class="edge">
<title>Node32&#45;&gt;Node35</title>
<path fill="none" stroke="midnightblue" d="M805.89,-238.65C718.52,-231.94 569.75,-219.01 432.4,-199.08"/>
<polygon fill="midnightblue" stroke="midnightblue" points="432.51,-195.56 422.11,-197.57 431.49,-202.48 432.51,-195.56"/>
</g>
<!-- Node36 -->
<g id="node36" class="node">
<title>Node36</title>
<g id="a_node36"><a xlink:title=" ">
<polygon fill="none" stroke="#bfbfbf" points="440.5,-179.5 440.5,-198.5 483.5,-198.5 483.5,-179.5 440.5,-179.5"/>
<text text-anchor="middle" x="462" y="-186.5" font-family="Helvetica,sans-Serif" font-size="10.00">fcntl.h</text>
</a>
</g>
</g>
<!-- Node32&#45;&gt;Node36 -->
<g id="edge41" class="edge">
<title>Node32&#45;&gt;Node36</title>
<path fill="none" stroke="midnightblue" d="M805.8,-239.25C729.22,-233.52 607.03,-221.92 493.42,-198.98"/>
<polygon fill="midnightblue" stroke="midnightblue" points="494.01,-195.53 483.51,-196.95 492.61,-202.39 494.01,-195.53"/>
</g>
<!-- Node37 -->
<g id="node37" class="node">
<title>Node37</title>
<g id="a_node37"><a xlink:title=" ">
<polygon fill="none" stroke="#bfbfbf" points="501.5,-179.5 501.5,-198.5 550.5,-198.5 550.5,-179.5 501.5,-179.5"/>
<text text-anchor="middle" x="526" y="-186.5" font-family="Helvetica,sans-Serif" font-size="10.00">netdb.h</text>
</a>
</g>
</g>
<!-- Node32&#45;&gt;Node37 -->
<g id="edge42" class="edge">
<title>Node32&#45;&gt;Node37</title>
<path fill="none" stroke="midnightblue" d="M805.71,-236.23C742.53,-229.07 649.76,-217.11 560.77,-199.17"/>
<polygon fill="midnightblue" stroke="midnightblue" points="561.28,-195.7 550.78,-197.12 559.88,-202.56 561.28,-195.7"/>
</g>
<!-- Node38 -->
<g id="node38" class="node">
<title>Node38</title>
<g id="a_node38"><a xlink:title=" ">
<polygon fill="none" stroke="#bfbfbf" points="568.5,-179.5 568.5,-198.5 633.5,-198.5 633.5,-179.5 568.5,-179.5"/>
<text text-anchor="middle" x="601" y="-186.5" font-family="Helvetica,sans-Serif" font-size="10.00">netinet/in.h</text>
</a>
</g>
</g>
<!-- Node32&#45;&gt;Node38 -->
<g id="edge43" class="edge">
<title>Node32&#45;&gt;Node38</title>
<path fill="none" stroke="midnightblue" d="M833.3,-235.45C787.17,-227.09 715.04,-213.76 643.71,-199.31"/>
<polygon fill="midnightblue" stroke="midnightblue" points="644.15,-195.82 633.65,-197.26 642.76,-202.68 644.15,-195.82"/>
</g>
<!-- Node39 -->
<g id="node39" class="node">
<title>Node39</title>
<g id="a_node39"><a xlink:title=" ">
<polygon fill="none" stroke="#bfbfbf" points="651.5,-179.5 651.5,-198.5 722.5,-198.5 722.5,-179.5 651.5,-179.5"/>
<text text-anchor="middle" x="687" y="-186.5" font-family="Helvetica,sans-Serif" font-size="10.00">netinet/tcp.h</text>
</a>
</g>
</g>
<!-- Node32&#45;&gt;Node39 -->
<g id="edge44" class="edge">
<title>Node32&#45;&gt;Node39</title>
<path fill="none" stroke="midnightblue" d="M850.26,-235.44C817.06,-226.2 764.01,-211.44 727.44,-201.26"/>
<polygon fill="midnightblue" stroke="midnightblue" points="728.17,-197.83 717.6,-198.52 726.29,-204.57 728.17,-197.83"/>
</g>
<!-- Node40 -->
<g id="node40" class="node">
<title>Node40</title>
<g id="a_node40"><a xlink:title=" ">
<polygon fill="none" stroke="#bfbfbf" points="740.5,-179.5 740.5,-198.5 789.5,-198.5 789.5,-179.5 740.5,-179.5"/>
<text text-anchor="middle" x="765" y="-186.5" font-family="Helvetica,sans-Serif" font-size="10.00">stdint.h</text>
</a>
</g>
</g>
<!-- Node32&#45;&gt;Node40 -->
<g id="edge45" class="edge">
<title>Node32&#45;&gt;Node40</title>
<path fill="none" stroke="midnightblue" d="M862.62,-235.44C843.78,-226.68 814.27,-212.94 792.62,-202.86"/>
<polygon fill="midnightblue" stroke="midnightblue" points="793.84,-199.56 783.29,-198.52 790.88,-205.91 793.84,-199.56"/>
</g>
<!-- Node41 -->
<g id="node41" class="node">
<title>Node41</title>
<g id="a_node41"><a xlink:title=" ">
<polygon fill="none" stroke="#bfbfbf" points="808,-179.5 808,-198.5 872,-198.5 872,-179.5 808,-179.5"/>
<text text-anchor="middle" x="840" y="-186.5" font-family="Helvetica,sans-Serif" font-size="10.00">sys/epoll.h</text>
</a>
</g>
</g>
<!-- Node32&#45;&gt;Node41 -->
<g id="edge46" class="edge">
<title>Node32&#45;&gt;Node41</title>
<path fill="none" stroke="midnightblue" d="M874.23,-235.08C868.44,-227.46 859.94,-216.26 852.86,-206.94"/>
<polygon fill="midnightblue" stroke="midnightblue" points="855.48,-204.6 846.64,-198.75 849.9,-208.83 855.48,-204.6"/>
</g>
<!-- Node42 -->
<g id="node42" class="node">
<title>Node42</title>
<g id="a_node42"><a xlink:title=" ">
<polygon fill="none" stroke="#bfbfbf" points="890,-179.5 890,-198.5 952,-198.5 952,-179.5 890,-179.5"/>
<text text-anchor="middle" x="921" y="-186.5" font-family="Helvetica,sans-Serif" font-size="10.00">arpa/inet.h</text>
</a>
</g>
</g>
<!-- Node32&#45;&gt;Node42 -->
<g id="edge47" class="edge">
<title>Node32&#45;&gt;Node42</title>
<path fill="none" stroke="midnightblue" d="M887.61,-235.08C893.26,-227.46 901.54,-216.26 908.45,-206.94"/>
<polygon fill="midnightblue" stroke="midnightblue" points="911.38,-208.87 914.52,-198.75 905.75,-204.7 911.38,-208.87"/>
</g>
<!-- Node43 -->
<g id="node43" class="node">
<title>Node43</title>
<g id="a_node43"><a xlink:title=" ">
<polygon fill="none" stroke="#bfbfbf" points="970.5,-179.5 970.5,-198.5 1043.5,-198.5 1043.5,-179.5 970.5,-179.5"/>
<text text-anchor="middle" x="1007" y="-186.5" font-family="Helvetica,sans-Serif" font-size="10.00">sys/socket.h</text>
</a>
</g>
</g>
<!-- Node32&#45;&gt;Node43 -->
<g id="edge48" class="edge">
<title>Node32&#45;&gt;Node43</title>
<path fill="none" stroke="midnightblue" d="M900.97,-235.44C921.61,-226.6 954.06,-212.69 977.63,-202.59"/>
<polygon fill="midnightblue" stroke="midnightblue" points="979.32,-205.67 987.13,-198.52 976.56,-199.24 979.32,-205.67"/>
</g>
<!-- Node44 -->
<g id="node44" class="node">
<title>Node44</title>
<g id="a_node44"><a xlink:title=" ">
<polygon fill="none" stroke="#bfbfbf" points="1062,-179.5 1062,-198.5 1130,-198.5 1130,-179.5 1062,-179.5"/>
<text text-anchor="middle" x="1096" y="-186.5" font-family="Helvetica,sans-Serif" font-size="10.00">sys/types.h</text>
</a>
</g>
</g>
<!-- Node32&#45;&gt;Node44 -->
<g id="edge49" class="edge">
<title>Node32&#45;&gt;Node44</title>
<path fill="none" stroke="midnightblue" d="M915.07,-235.44C952.18,-226.12 1011.66,-211.18 1052.21,-201"/>
<polygon fill="midnightblue" stroke="midnightblue" points="1053.25,-204.35 1062.09,-198.52 1051.54,-197.56 1053.25,-204.35"/>
</g>
<!-- Node45 -->
<g id="node45" class="node">
<title>Node45</title>
<g id="a_node45"><a xlink:title=" ">
<polygon fill="none" stroke="#bfbfbf" points="1148.5,-179.5 1148.5,-198.5 1199.5,-198.5 1199.5,-179.5 1148.5,-179.5"/>
<text text-anchor="middle" x="1174" y="-186.5" font-family="Helvetica,sans-Serif" font-size="10.00">unistd.h</text>
</a>
</g>
</g>
<!-- Node32&#45;&gt;Node45 -->
<g id="edge50" class="edge">
<title>Node32&#45;&gt;Node45</title>
<path fill="none" stroke="midnightblue" d="M937.36,-235.48C987.55,-227.6 1063.15,-215.01 1138.32,-199"/>
<polygon fill="midnightblue" stroke="midnightblue" points="1139.4,-202.35 1148.44,-196.82 1137.93,-195.5 1139.4,-202.35"/>
</g>
<!-- Node33&#45;&gt;Node2 -->
<g id="edge38" class="edge">
<title>Node33&#45;&gt;Node2</title>
<path fill="none" stroke="midnightblue" d="M1428.23,-179.48C1407.3,-170.89 1374.39,-157.38 1347.69,-146.43"/>
<polygon fill="midnightblue" stroke="midnightblue" points="1348.75,-143.08 1338.17,-142.52 1346.1,-149.56 1348.75,-143.08"/>
</g>
<!-- Node47&#45;&gt;Node2 -->
<g id="edge53" class="edge">
<title>Node47&#45;&gt;Node2</title>
<path fill="none" stroke="midnightblue" d="M1110.82,-528.39C894.18,-523.95 228,-503.04 228,-414 228,-414 228,-414 228,-244 228,-213.9 223.35,-197.62 247,-179 285.44,-148.73 992.19,-133.86 1228.08,-129.73"/>
<polygon fill="midnightblue" stroke="midnightblue" points="1228.35,-133.23 1238.28,-129.55 1228.22,-126.23 1228.35,-133.23"/>
</g>
<!-- Node47&#45;&gt;Node30 -->
<g id="edge66" class="edge">
<title>Node47&#45;&gt;Node30</title>
<path fill="none" stroke="midnightblue" d="M1178,-515.47C1178,-484.7 1178,-411.33 1178,-376.7"/>
<polygon fill="midnightblue" stroke="midnightblue" points="1181.5,-376.56 1178,-366.56 1174.5,-376.56 1181.5,-376.56"/>
</g>
<!-- Node47&#45;&gt;Node32 -->
<g id="edge65" class="edge">
<title>Node47&#45;&gt;Node32</title>
<path fill="none" stroke="midnightblue" d="M1110.84,-521.87C1047.43,-510.5 962,-482.46 962,-414 962,-414 962,-414 962,-356 962,-315.45 925.86,-279.99 901.86,-260.91"/>
<polygon fill="midnightblue" stroke="midnightblue" points="903.73,-257.94 893.66,-254.65 899.48,-263.5 903.73,-257.94"/>
</g>
<!-- Node47&#45;&gt;Node33 -->
<g id="edge64" class="edge">
<title>Node47&#45;&gt;Node33</title>
<path fill="none" stroke="midnightblue" d="M1245.02,-515.82C1308.68,-502.6 1395.64,-483.89 1402,-479 1427.85,-459.13 1436,-446.6 1436,-414 1436,-414 1436,-414 1436,-300 1436,-267.58 1441.64,-230.15 1445.49,-208.37"/>
<polygon fill="midnightblue" stroke="midnightblue" points="1448.93,-208.99 1447.3,-198.52 1442.05,-207.72 1448.93,-208.99"/>
</g>
<!-- Node48 -->
<g id="node48" class="node">
<title>Node48</title>
<g id="a_node48"><a xlink:href="../../d5/d5b/a00695.html" target="_top" xlink:title=" ">
<polygon fill="none" stroke="black" points="1486,-235.5 1486,-254.5 1626,-254.5 1626,-235.5 1486,-235.5"/>
<text text-anchor="middle" x="1556" y="-242.5" font-family="Helvetica,sans-Serif" font-size="10.00">discordcoreapi/Demuxer.hpp</text>
</a>
</g>
</g>
<!-- Node47&#45;&gt;Node48 -->
<g id="edge54" class="edge">
<title>Node47&#45;&gt;Node48</title>
<path fill="none" stroke="midnightblue" d="M1245.13,-516.67C1248.13,-516.1 1251.1,-515.54 1254,-515 1373.41,-492.64 1508,-535.49 1508,-414 1508,-414 1508,-414 1508,-356 1508,-320.58 1529.16,-283.71 1543.38,-262.92"/>
<polygon fill="midnightblue" stroke="midnightblue" points="1546.38,-264.74 1549.33,-254.56 1540.68,-260.68 1546.38,-264.74"/>
</g>
<!-- Node50 -->
<g id="node50" class="node">
<title>Node50</title>
<g id="a_node50"><a xlink:href="../../d1/d87/a00689.html" target="_top" xlink:title=" ">
<polygon fill="none" stroke="black" points="1206.5,-459.5 1206.5,-478.5 1393.5,-478.5 1393.5,-459.5 1206.5,-459.5"/>
<text text-anchor="middle" x="1300" y="-466.5" font-family="Helvetica,sans-Serif" font-size="10.00">discordcoreapi/CommandController.hpp</text>
</a>
</g>
</g>
<!-- Node47&#45;&gt;Node50 -->
<g id="edge59" class="edge">
<title>Node47&#45;&gt;Node50</title>
<path fill="none" stroke="midnightblue" d="M1206.91,-515.4C1227.02,-505.59 1253.62,-492.62 1273.24,-483.05"/>
<polygon fill="midnightblue" stroke="midnightblue" points="1274.79,-486.19 1282.25,-478.66 1271.73,-479.9 1274.79,-486.19"/>
</g>
<!-- Node51 -->
<g id="node51" class="node">
<title>Node51</title>
<g id="a_node51"><a xlink:href="../../dd/d57/a00701.html" target="_top" xlink:title=" ">
<polygon fill="none" stroke="black" points="1613,-403.5 1613,-422.5 1757,-422.5 1757,-403.5 1613,-403.5"/>
<text text-anchor="middle" x="1685" y="-410.5" font-family="Helvetica,sans-Serif" font-size="10.00">discordcoreapi/ErlPacker.hpp</text>
</a>
</g>
</g>
<!-- Node47&#45;&gt;Node51 -->
<g id="edge62" class="edge">
<title>Node47&#45;&gt;Node51</title>
<path fill="none" stroke="midnightblue" d="M1245.1,-516.49C1248.11,-515.97 1251.08,-515.47 1254,-515 1372.63,-495.73 1405.75,-509.49 1522,-479 1571.67,-465.97 1626.6,-441.92 1658.33,-427.01"/>
<polygon fill="midnightblue" stroke="midnightblue" points="1659.87,-430.15 1667.4,-422.7 1656.86,-423.83 1659.87,-430.15"/>
</g>
<!-- Node48&#45;&gt;Node2 -->
<g id="edge56" class="edge">
<title>Node48&#45;&gt;Node2</title>
<path fill="none" stroke="midnightblue" d="M1556.1,-235.42C1555.78,-221.46 1553,-193.9 1537,-179 1514.38,-157.93 1438.84,-144.26 1379.84,-136.52"/>
<polygon fill="midnightblue" stroke="midnightblue" points="1380.14,-133.03 1369.77,-135.24 1379.25,-139.97 1380.14,-133.03"/>
</g>
<!-- Node48&#45;&gt;Node13 -->
<g id="edge57" class="edge">
<title>Node48&#45;&gt;Node13</title>
<path fill="none" stroke="midnightblue" d="M1559.34,-235.08C1563.77,-221.61 1569.72,-195.87 1558,-179 1509.29,-108.9 1460.75,-132.97 1378,-112 1097.51,-40.9 1016.2,-69.14 726.96,-20.07"/>
<polygon fill="midnightblue" stroke="midnightblue" points="727.48,-16.61 717.03,-18.37 726.29,-23.51 727.48,-16.61"/>
</g>
<!-- Node48&#45;&gt;Node33 -->
<g id="edge55" class="edge">
<title>Node48&#45;&gt;Node33</title>
<path fill="none" stroke="midnightblue" d="M1538.81,-235.32C1521.65,-226.66 1495.05,-213.24 1475.25,-203.25"/>
<polygon fill="midnightblue" stroke="midnightblue" points="1476.65,-200.04 1466.15,-198.65 1473.5,-206.28 1476.65,-200.04"/>
</g>
<!-- Node49 -->
<g id="node49" class="node">
<title>Node49</title>
<g id="a_node49"><a xlink:title=" ">
<polygon fill="none" stroke="#bfbfbf" points="1622,-179.5 1622,-198.5 1748,-198.5 1748,-179.5 1622,-179.5"/>
<text text-anchor="middle" x="1685" y="-186.5" font-family="Helvetica,sans-Serif" font-size="10.00">opus/opus_multistream.h</text>
</a>
</g>
</g>
<!-- Node48&#45;&gt;Node49 -->
<g id="edge58" class="edge">
<title>Node48&#45;&gt;Node49</title>
<path fill="none" stroke="midnightblue" d="M1576.44,-235.44C1597.67,-226.56 1631.1,-212.56 1655.25,-202.45"/>
<polygon fill="midnightblue" stroke="midnightblue" points="1656.78,-205.61 1664.66,-198.52 1654.08,-199.15 1656.78,-205.61"/>
</g>
<!-- Node50&#45;&gt;Node2 -->
<g id="edge60" class="edge">
<title>Node50&#45;&gt;Node2</title>
<path fill="none" stroke="midnightblue" d="M1305.84,-459.31C1317.38,-441.26 1342,-398.07 1342,-358 1342,-358 1342,-358 1342,-244 1342,-210.72 1327.59,-174.62 1316.51,-151.8"/>
<polygon fill="midnightblue" stroke="midnightblue" points="1319.5,-149.95 1311.87,-142.59 1313.25,-153.1 1319.5,-149.95"/>
</g>
<!-- Node50&#45;&gt;Node29 -->
<g id="edge61" class="edge">
<title>Node50&#45;&gt;Node29</title>
<path fill="none" stroke="midnightblue" d="M1264.66,-459.44C1226.09,-450.1 1164.22,-435.12 1122.15,-424.93"/>
<polygon fill="midnightblue" stroke="midnightblue" points="1122.71,-421.47 1112.17,-422.52 1121.07,-428.27 1122.71,-421.47"/>
</g>
<!-- Node51&#45;&gt;Node2 -->
<g id="edge63" class="edge">
<title>Node51&#45;&gt;Node2</title>
<path fill="none" stroke="midnightblue" d="M1699.62,-403.48C1725.34,-387.27 1776,-349.34 1776,-302 1776,-302 1776,-302 1776,-244 1776,-213.9 1780.04,-198.36 1757,-179 1728.78,-155.29 1501.68,-139.34 1380.14,-132.42"/>
<polygon fill="midnightblue" stroke="midnightblue" points="1379.97,-128.9 1369.79,-131.84 1379.58,-135.89 1379.97,-128.9"/>
</g>
</g>
</svg>
