<?xml version="1.0" encoding="UTF-8" standalone="no"?>
<!DOCTYPE svg PUBLIC "-//W3C//DTD SVG 1.1//EN"
 "http://www.w3.org/Graphics/SVG/1.1/DTD/svg11.dtd">
<!-- Generated by graphviz version 3.0.0 (20220226.1711)
 -->
<!-- Title: VoiceConnection.hpp Pages: 1 -->
<svg width="2678pt" height="610pt"
 viewBox="0.00 0.00 2677.50 610.00" xmlns="http://www.w3.org/2000/svg" xmlns:xlink="http://www.w3.org/1999/xlink">
<g id="graph0" class="graph" transform="scale(1 1) rotate(0) translate(4 606)">
<title>VoiceConnection.hpp</title>
<!-- Node1 -->
<g id="node1" class="node">
<title>Node1</title>
<g id="a_node1"><a xlink:title=" ">
<polygon fill="#bfbfbf" stroke="black" points="1473,-582.5 1473,-601.5 1582,-601.5 1582,-582.5 1473,-582.5"/>
<text text-anchor="middle" x="1527.5" y="-589.5" font-family="Helvetica,sans-Serif" font-size="10.00">VoiceConnection.hpp</text>
</a>
</g>
</g>
<!-- Node2 -->
<g id="node2" class="node">
<title>Node2</title>
<g id="a_node2"><a xlink:href="../../d4/deb/a00710.html" target="_top" xlink:title=" ">
<polygon fill="none" stroke="black" points="962,-112.5 962,-142.5 1093,-142.5 1093,-112.5 962,-112.5"/>
<text text-anchor="start" x="970" y="-130.5" font-family="Helvetica,sans-Serif" font-size="10.00">discordcoreapi/Foundation</text>
<text text-anchor="middle" x="1027.5" y="-119.5" font-family="Helvetica,sans-Serif" font-size="10.00">Entities.hpp</text>
</a>
</g>
</g>
<!-- Node1&#45;&gt;Node2 -->
<g id="edge1" class="edge">
<title>Node1&#45;&gt;Node2</title>
<path fill="none" stroke="midnightblue" d="M1582.15,-590.55C1798.8,-588.07 2585.5,-572.03 2585.5,-470 2585.5,-470 2585.5,-470 2585.5,-244 2585.5,-207.55 2567.92,-195.65 2535.5,-179 2471.34,-146.06 1401.22,-132.42 1103.7,-129.25"/>
<polygon fill="midnightblue" stroke="midnightblue" points="1103.49,-125.75 1093.45,-129.14 1103.41,-132.75 1103.49,-125.75"/>
</g>
<!-- Node28 -->
<g id="node28" class="node">
<title>Node28</title>
<g id="a_node28"><a xlink:href="../../db/d77/a00683.html" target="_top" xlink:title=" ">
<polygon fill="none" stroke="black" points="853.5,-521 853.5,-540 1015.5,-540 1015.5,-521 853.5,-521"/>
<text text-anchor="middle" x="934.5" y="-528" font-family="Helvetica,sans-Serif" font-size="10.00">discordcoreapi/AudioEncoder.hpp</text>
</a>
</g>
</g>
<!-- Node1&#45;&gt;Node28 -->
<g id="edge27" class="edge">
<title>Node1&#45;&gt;Node28</title>
<path fill="none" stroke="midnightblue" d="M1472.75,-585.64C1387.58,-577.28 1218.2,-560.58 1074.5,-546 1058.7,-544.4 1041.89,-542.67 1025.61,-540.99"/>
<polygon fill="midnightblue" stroke="midnightblue" points="1025.86,-537.5 1015.56,-539.95 1025.14,-544.46 1025.86,-537.5"/>
</g>
<!-- Node30 -->
<g id="node30" class="node">
<title>Node30</title>
<g id="a_node30"><a xlink:href="../../d5/d5b/a00695.html" target="_top" xlink:title=" ">
<polygon fill="none" stroke="black" points="1015.5,-403.5 1015.5,-422.5 1161.5,-422.5 1161.5,-403.5 1015.5,-403.5"/>
<text text-anchor="middle" x="1088.5" y="-410.5" font-family="Helvetica,sans-Serif" font-size="10.00">discordcoreapi/CoRoutine.hpp</text>
</a>
</g>
</g>
<!-- Node1&#45;&gt;Node30 -->
<g id="edge30" class="edge">
<title>Node1&#45;&gt;Node30</title>
<path fill="none" stroke="midnightblue" d="M1472.78,-583.17C1371.31,-567.6 1159.54,-529.81 1107.5,-479 1095.29,-467.07 1090.82,-447.77 1089.23,-433.29"/>
<polygon fill="midnightblue" stroke="midnightblue" points="1092.7,-432.67 1088.49,-422.95 1085.72,-433.17 1092.7,-432.67"/>
</g>
<!-- Node47 -->
<g id="node47" class="node">
<title>Node47</title>
<g id="a_node47"><a xlink:href="../../d9/dd4/a00776.html" target="_top" xlink:title=" ">
<polygon fill="none" stroke="black" points="1460.5,-515.5 1460.5,-545.5 1594.5,-545.5 1594.5,-515.5 1460.5,-515.5"/>
<text text-anchor="start" x="1468.5" y="-533.5" font-family="Helvetica,sans-Serif" font-size="10.00">discordcoreapi/WebSocket</text>
<text text-anchor="middle" x="1527.5" y="-522.5" font-family="Helvetica,sans-Serif" font-size="10.00">Entities.hpp</text>
</a>
</g>
</g>
<!-- Node1&#45;&gt;Node47 -->
<g id="edge51" class="edge">
<title>Node1&#45;&gt;Node47</title>
<path fill="none" stroke="midnightblue" d="M1527.5,-582.48C1527.5,-575.47 1527.5,-565.19 1527.5,-555.7"/>
<polygon fill="midnightblue" stroke="midnightblue" points="1531,-555.52 1527.5,-545.52 1524,-555.52 1531,-555.52"/>
</g>
<!-- Node53 -->
<g id="node53" class="node">
<title>Node53</title>
<g id="a_node53"><a xlink:title=" ">
<polygon fill="none" stroke="#bfbfbf" points="2613.5,-521 2613.5,-540 2669.5,-540 2669.5,-521 2613.5,-521"/>
<text text-anchor="middle" x="2641.5" y="-528" font-family="Helvetica,sans-Serif" font-size="10.00">sodium.h</text>
</a>
</g>
</g>
<!-- Node1&#45;&gt;Node53 -->
<g id="edge66" class="edge">
<title>Node1&#45;&gt;Node53</title>
<path fill="none" stroke="midnightblue" d="M1582.04,-590.8C1771.65,-589.76 2401.38,-583.53 2599.5,-546 2603.2,-545.3 2607.03,-544.34 2610.78,-543.24"/>
<polygon fill="midnightblue" stroke="midnightblue" points="2612.03,-546.51 2620.46,-540.1 2609.87,-539.86 2612.03,-546.51"/>
</g>
<!-- Node3 -->
<g id="node3" class="node">
<title>Node3</title>
<g id="a_node3"><a xlink:href="../../d5/dae/a00767.html" target="_top" xlink:title=" ">
<polygon fill="none" stroke="black" points="960.5,-56.5 960.5,-75.5 1094.5,-75.5 1094.5,-56.5 960.5,-56.5"/>
<text text-anchor="middle" x="1027.5" y="-63.5" font-family="Helvetica,sans-Serif" font-size="10.00">discordcoreapi/Utilities.hpp</text>
</a>
</g>
</g>
<!-- Node2&#45;&gt;Node3 -->
<g id="edge2" class="edge">
<title>Node2&#45;&gt;Node3</title>
<path fill="none" stroke="midnightblue" d="M1027.5,-112.4C1027.5,-104.47 1027.5,-94.46 1027.5,-85.86"/>
<polygon fill="midnightblue" stroke="midnightblue" points="1031,-85.66 1027.5,-75.66 1024,-85.66 1031,-85.66"/>
</g>
<!-- Node4 -->
<g id="node4" class="node">
<title>Node4</title>
<g id="a_node4"><a xlink:title=" ">
<polygon fill="none" stroke="#bfbfbf" points="0,-0.5 0,-19.5 57,-19.5 57,-0.5 0,-0.5"/>
<text text-anchor="middle" x="28.5" y="-7.5" font-family="Helvetica,sans-Serif" font-size="10.00">pthread.h</text>
</a>
</g>
</g>
<!-- Node3&#45;&gt;Node4 -->
<g id="edge3" class="edge">
<title>Node3&#45;&gt;Node4</title>
<path fill="none" stroke="midnightblue" d="M960.37,-63.48C775.08,-59.03 258.15,-44.84 66.97,-19.72"/>
<polygon fill="midnightblue" stroke="midnightblue" points="67.41,-16.24 57.03,-18.36 66.46,-23.18 67.41,-16.24"/>
</g>
<!-- Node5 -->
<g id="node5" class="node">
<title>Node5</title>
<g id="a_node5"><a xlink:title=" ">
<polygon fill="none" stroke="#bfbfbf" points="75.5,-0.5 75.5,-19.5 137.5,-19.5 137.5,-0.5 75.5,-0.5"/>
<text text-anchor="middle" x="106.5" y="-7.5" font-family="Helvetica,sans-Serif" font-size="10.00">sys/time.h</text>
</a>
</g>
</g>
<!-- Node3&#45;&gt;Node5 -->
<g id="edge4" class="edge">
<title>Node3&#45;&gt;Node5</title>
<path fill="none" stroke="midnightblue" d="M960.27,-65.45C813.99,-65.6 455.87,-61.41 147.87,-19.95"/>
<polygon fill="midnightblue" stroke="midnightblue" points="148.23,-16.47 137.85,-18.58 147.29,-23.4 148.23,-16.47"/>
</g>
<!-- Node6 -->
<g id="node6" class="node">
<title>Node6</title>
<g id="a_node6"><a xlink:title=" ">
<polygon fill="none" stroke="#bfbfbf" points="155.5,-0.5 155.5,-19.5 199.5,-19.5 199.5,-0.5 155.5,-0.5"/>
<text text-anchor="middle" x="177.5" y="-7.5" font-family="Helvetica,sans-Serif" font-size="10.00">time.h</text>
</a>
</g>
</g>
<!-- Node3&#45;&gt;Node6 -->
<g id="edge5" class="edge">
<title>Node3&#45;&gt;Node6</title>
<path fill="none" stroke="midnightblue" d="M960.38,-63.28C795.18,-58.74 371.22,-45.13 209.95,-19.79"/>
<polygon fill="midnightblue" stroke="midnightblue" points="210.15,-16.28 199.71,-18.1 209.01,-23.18 210.15,-16.28"/>
</g>
<!-- Node7 -->
<g id="node7" class="node">
<title>Node7</title>
<g id="a_node7"><a xlink:title=" ">
<polygon fill="none" stroke="#bfbfbf" points="218,-0.5 218,-19.5 259,-19.5 259,-0.5 218,-0.5"/>
<text text-anchor="middle" x="238.5" y="-7.5" font-family="Helvetica,sans-Serif" font-size="10.00">ctime</text>
</a>
</g>
</g>
<!-- Node3&#45;&gt;Node7 -->
<g id="edge6" class="edge">
<title>Node3&#45;&gt;Node7</title>
<path fill="none" stroke="midnightblue" d="M960.23,-63.1C803.79,-58.36 418.13,-44.68 269.54,-19.91"/>
<polygon fill="midnightblue" stroke="midnightblue" points="269.71,-16.38 259.26,-18.1 268.5,-23.28 269.71,-16.38"/>
</g>
<!-- Node8 -->
<g id="node8" class="node">
<title>Node8</title>
<g id="a_node8"><a xlink:title=" ">
<polygon fill="none" stroke="#bfbfbf" points="277,-0.5 277,-19.5 370,-19.5 370,-0.5 277,-0.5"/>
<text text-anchor="middle" x="323.5" y="-7.5" font-family="Helvetica,sans-Serif" font-size="10.00">condition_variable</text>
</a>
</g>
</g>
<!-- Node3&#45;&gt;Node8 -->
<g id="edge7" class="edge">
<title>Node3&#45;&gt;Node8</title>
<path fill="none" stroke="midnightblue" d="M960.15,-62.32C843.98,-57.27 598.27,-44.64 380.24,-19.97"/>
<polygon fill="midnightblue" stroke="midnightblue" points="380.54,-16.49 370.21,-18.83 379.75,-23.44 380.54,-16.49"/>
</g>
<!-- Node9 -->
<g id="node9" class="node">
<title>Node9</title>
<g id="a_node9"><a xlink:title=" ">
<polygon fill="none" stroke="#bfbfbf" points="388.5,-0.5 388.5,-19.5 486.5,-19.5 486.5,-0.5 388.5,-0.5"/>
<text text-anchor="middle" x="437.5" y="-7.5" font-family="Helvetica,sans-Serif" font-size="10.00">nlohmann/json.hpp</text>
</a>
</g>
</g>
<!-- Node3&#45;&gt;Node9 -->
<g id="edge8" class="edge">
<title>Node3&#45;&gt;Node9</title>
<path fill="none" stroke="midnightblue" d="M960.16,-60.81C860.97,-54.31 669.55,-40.48 496.57,-20.05"/>
<polygon fill="midnightblue" stroke="midnightblue" points="496.86,-16.56 486.51,-18.85 496.03,-23.51 496.86,-16.56"/>
</g>
<!-- Node10 -->
<g id="node10" class="node">
<title>Node10</title>
<g id="a_node10"><a xlink:title=" ">
<polygon fill="none" stroke="#bfbfbf" points="505,-0.5 505,-19.5 590,-19.5 590,-0.5 505,-0.5"/>
<text text-anchor="middle" x="547.5" y="-7.5" font-family="Helvetica,sans-Serif" font-size="10.00">source_location</text>
</a>
</g>
</g>
<!-- Node3&#45;&gt;Node10 -->
<g id="edge9" class="edge">
<title>Node3&#45;&gt;Node10</title>
<path fill="none" stroke="midnightblue" d="M960.44,-59.43C877.93,-52.25 733.33,-38.61 600.03,-20.13"/>
<polygon fill="midnightblue" stroke="midnightblue" points="600.43,-16.66 590.04,-18.74 599.46,-23.59 600.43,-16.66"/>
</g>
<!-- Node11 -->
<g id="node11" class="node">
<title>Node11</title>
<g id="a_node11"><a xlink:title=" ">
<polygon fill="none" stroke="#bfbfbf" points="608,-0.5 608,-19.5 691,-19.5 691,-0.5 608,-0.5"/>
<text text-anchor="middle" x="649.5" y="-7.5" font-family="Helvetica,sans-Serif" font-size="10.00">unordered_map</text>
</a>
</g>
</g>
<!-- Node3&#45;&gt;Node11 -->
<g id="edge10" class="edge">
<title>Node3&#45;&gt;Node11</title>
<path fill="none" stroke="midnightblue" d="M960.38,-56.52C896.46,-48.27 797.29,-35.03 701.39,-20.09"/>
<polygon fill="midnightblue" stroke="midnightblue" points="701.65,-16.59 691.23,-18.5 700.56,-23.5 701.65,-16.59"/>
</g>
<!-- Node12 -->
<g id="node12" class="node">
<title>Node12</title>
<g id="a_node12"><a xlink:title=" ">
<polygon fill="none" stroke="#bfbfbf" points="709.5,-0.5 709.5,-19.5 787.5,-19.5 787.5,-0.5 709.5,-0.5"/>
<text text-anchor="middle" x="748.5" y="-7.5" font-family="Helvetica,sans-Serif" font-size="10.00">shared_mutex</text>
</a>
</g>
</g>
<!-- Node3&#45;&gt;Node12 -->
<g id="edge11" class="edge">
<title>Node3&#45;&gt;Node12</title>
<path fill="none" stroke="midnightblue" d="M983.29,-56.44C932.73,-46.66 850.18,-30.68 797.64,-20.51"/>
<polygon fill="midnightblue" stroke="midnightblue" points="798.03,-17.02 787.55,-18.56 796.7,-23.89 798.03,-17.02"/>
</g>
<!-- Node13 -->
<g id="node13" class="node">
<title>Node13</title>
<g id="a_node13"><a xlink:title=" ">
<polygon fill="none" stroke="#bfbfbf" points="805.5,-0.5 805.5,-19.5 863.5,-19.5 863.5,-0.5 805.5,-0.5"/>
<text text-anchor="middle" x="834.5" y="-7.5" font-family="Helvetica,sans-Serif" font-size="10.00">functional</text>
</a>
</g>
</g>
<!-- Node3&#45;&gt;Node13 -->
<g id="edge12" class="edge">
<title>Node3&#45;&gt;Node13</title>
<path fill="none" stroke="midnightblue" d="M996.92,-56.44C963.5,-47.09 909.87,-32.09 873.46,-21.9"/>
<polygon fill="midnightblue" stroke="midnightblue" points="874.25,-18.49 863.67,-19.16 872.36,-25.23 874.25,-18.49"/>
</g>
<!-- Node14 -->
<g id="node14" class="node">
<title>Node14</title>
<g id="a_node14"><a xlink:title=" ">
<polygon fill="none" stroke="#bfbfbf" points="881.5,-0.5 881.5,-19.5 937.5,-19.5 937.5,-0.5 881.5,-0.5"/>
<text text-anchor="middle" x="909.5" y="-7.5" font-family="Helvetica,sans-Serif" font-size="10.00">coroutine</text>
</a>
</g>
</g>
<!-- Node3&#45;&gt;Node14 -->
<g id="edge13" class="edge">
<title>Node3&#45;&gt;Node14</title>
<path fill="none" stroke="midnightblue" d="M1008.8,-56.44C989.56,-47.64 959.35,-33.81 937.3,-23.72"/>
<polygon fill="midnightblue" stroke="midnightblue" points="938.66,-20.5 928.11,-19.52 935.75,-26.86 938.66,-20.5"/>
</g>
<!-- Node15 -->
<g id="node15" class="node">
<title>Node15</title>
<g id="a_node15"><a xlink:title=" ">
<polygon fill="none" stroke="#bfbfbf" points="956,-0.5 956,-19.5 1021,-19.5 1021,-0.5 956,-0.5"/>
<text text-anchor="middle" x="988.5" y="-7.5" font-family="Helvetica,sans-Serif" font-size="10.00">semaphore</text>
</a>
</g>
</g>
<!-- Node3&#45;&gt;Node15 -->
<g id="edge14" class="edge">
<title>Node3&#45;&gt;Node15</title>
<path fill="none" stroke="midnightblue" d="M1021.06,-56.08C1015.55,-48.46 1007.47,-37.26 1000.74,-27.94"/>
<polygon fill="midnightblue" stroke="midnightblue" points="1003.51,-25.81 994.82,-19.75 997.84,-29.91 1003.51,-25.81"/>
</g>
<!-- Node16 -->
<g id="node16" class="node">
<title>Node16</title>
<g id="a_node16"><a xlink:title=" ">
<polygon fill="none" stroke="#bfbfbf" points="1039.5,-0.5 1039.5,-19.5 1095.5,-19.5 1095.5,-0.5 1039.5,-0.5"/>
<text text-anchor="middle" x="1067.5" y="-7.5" font-family="Helvetica,sans-Serif" font-size="10.00">concepts</text>
</a>
</g>
</g>
<!-- Node3&#45;&gt;Node16 -->
<g id="edge15" class="edge">
<title>Node3&#45;&gt;Node16</title>
<path fill="none" stroke="midnightblue" d="M1034.11,-56.08C1039.76,-48.46 1048.04,-37.26 1054.95,-27.94"/>
<polygon fill="midnightblue" stroke="midnightblue" points="1057.88,-29.87 1061.02,-19.75 1052.25,-25.7 1057.88,-29.87"/>
</g>
<!-- Node17 -->
<g id="node17" class="node">
<title>Node17</title>
<g id="a_node17"><a xlink:title=" ">
<polygon fill="none" stroke="#bfbfbf" points="1113.5,-0.5 1113.5,-19.5 1167.5,-19.5 1167.5,-0.5 1113.5,-0.5"/>
<text text-anchor="middle" x="1140.5" y="-7.5" font-family="Helvetica,sans-Serif" font-size="10.00">iostream</text>
</a>
</g>
</g>
<!-- Node3&#45;&gt;Node17 -->
<g id="edge16" class="edge">
<title>Node3&#45;&gt;Node17</title>
<path fill="none" stroke="midnightblue" d="M1045.41,-56.44C1063.75,-47.68 1092.51,-33.94 1113.59,-23.86"/>
<polygon fill="midnightblue" stroke="midnightblue" points="1115.17,-26.99 1122.68,-19.52 1112.15,-20.67 1115.17,-26.99"/>
</g>
<!-- Node18 -->
<g id="node18" class="node">
<title>Node18</title>
<g id="a_node18"><a xlink:title=" ">
<polygon fill="none" stroke="#bfbfbf" points="1186,-0.5 1186,-19.5 1235,-19.5 1235,-0.5 1186,-0.5"/>
<text text-anchor="middle" x="1210.5" y="-7.5" font-family="Helvetica,sans-Serif" font-size="10.00">fstream</text>
</a>
</g>
</g>
<!-- Node3&#45;&gt;Node18 -->
<g id="edge17" class="edge">
<title>Node3&#45;&gt;Node18</title>
<path fill="none" stroke="midnightblue" d="M1056.5,-56.44C1088.97,-46.86 1141.56,-31.34 1176.09,-21.15"/>
<polygon fill="midnightblue" stroke="midnightblue" points="1177.15,-24.49 1185.75,-18.3 1175.17,-17.78 1177.15,-24.49"/>
</g>
<!-- Node19 -->
<g id="node19" class="node">
<title>Node19</title>
<g id="a_node19"><a xlink:title=" ">
<polygon fill="none" stroke="#bfbfbf" points="1253,-0.5 1253,-19.5 1294,-19.5 1294,-0.5 1253,-0.5"/>
<text text-anchor="middle" x="1273.5" y="-7.5" font-family="Helvetica,sans-Serif" font-size="10.00">bitset</text>
</a>
</g>
</g>
<!-- Node3&#45;&gt;Node19 -->
<g id="edge18" class="edge">
<title>Node3&#45;&gt;Node19</title>
<path fill="none" stroke="midnightblue" d="M1075.22,-56.48C1117.23,-48.66 1180.23,-36.2 1243.27,-20.14"/>
<polygon fill="midnightblue" stroke="midnightblue" points="1244.17,-23.52 1252.97,-17.64 1242.42,-16.75 1244.17,-23.52"/>
</g>
<!-- Node20 -->
<g id="node20" class="node">
<title>Node20</title>
<g id="a_node20"><a xlink:title=" ">
<polygon fill="none" stroke="#bfbfbf" points="1312.5,-0.5 1312.5,-19.5 1364.5,-19.5 1364.5,-0.5 1312.5,-0.5"/>
<text text-anchor="middle" x="1338.5" y="-7.5" font-family="Helvetica,sans-Serif" font-size="10.00">memory</text>
</a>
</g>
</g>
<!-- Node3&#45;&gt;Node20 -->
<g id="edge19" class="edge">
<title>Node3&#45;&gt;Node20</title>
<path fill="none" stroke="midnightblue" d="M1089.73,-56.49C1143.56,-48.75 1223.66,-36.36 1302.13,-20.14"/>
<polygon fill="midnightblue" stroke="midnightblue" points="1303.11,-23.51 1312.19,-18.04 1301.68,-16.66 1303.11,-23.51"/>
</g>
<!-- Node21 -->
<g id="node21" class="node">
<title>Node21</title>
<g id="a_node21"><a xlink:title=" ">
<polygon fill="none" stroke="#bfbfbf" points="1383,-0.5 1383,-19.5 1432,-19.5 1432,-0.5 1383,-0.5"/>
<text text-anchor="middle" x="1407.5" y="-7.5" font-family="Helvetica,sans-Serif" font-size="10.00">random</text>
</a>
</g>
</g>
<!-- Node3&#45;&gt;Node21 -->
<g id="edge20" class="edge">
<title>Node3&#45;&gt;Node21</title>
<path fill="none" stroke="midnightblue" d="M1094.57,-58.88C1162.39,-52.1 1270.35,-39.7 1372.81,-19.9"/>
<polygon fill="midnightblue" stroke="midnightblue" points="1373.56,-23.32 1382.7,-17.96 1372.22,-16.45 1373.56,-23.32"/>
</g>
<!-- Node22 -->
<g id="node22" class="node">
<title>Node22</title>
<g id="a_node22"><a xlink:title=" ">
<polygon fill="none" stroke="#bfbfbf" points="1450,-0.5 1450,-19.5 1491,-19.5 1491,-0.5 1450,-0.5"/>
<text text-anchor="middle" x="1470.5" y="-7.5" font-family="Helvetica,sans-Serif" font-size="10.00">string</text>
</a>
</g>
</g>
<!-- Node3&#45;&gt;Node22 -->
<g id="edge21" class="edge">
<title>Node3&#45;&gt;Node22</title>
<path fill="none" stroke="midnightblue" d="M1094.8,-61.68C1175.14,-56.82 1313.55,-45.63 1439.87,-20.01"/>
<polygon fill="midnightblue" stroke="midnightblue" points="1440.63,-23.42 1449.72,-17.98 1439.22,-16.57 1440.63,-23.42"/>
</g>
<!-- Node23 -->
<g id="node23" class="node">
<title>Node23</title>
<g id="a_node23"><a xlink:title=" ">
<polygon fill="none" stroke="#bfbfbf" points="1509.5,-0.5 1509.5,-19.5 1551.5,-19.5 1551.5,-0.5 1509.5,-0.5"/>
<text text-anchor="middle" x="1530.5" y="-7.5" font-family="Helvetica,sans-Serif" font-size="10.00">vector</text>
</a>
</g>
</g>
<!-- Node3&#45;&gt;Node23 -->
<g id="edge22" class="edge">
<title>Node3&#45;&gt;Node23</title>
<path fill="none" stroke="midnightblue" d="M1094.68,-62.76C1184.84,-58.84 1349.99,-48.43 1499.07,-19.91"/>
<polygon fill="midnightblue" stroke="midnightblue" points="1500.18,-23.26 1509.32,-17.91 1498.84,-16.39 1500.18,-23.26"/>
</g>
<!-- Node24 -->
<g id="node24" class="node">
<title>Node24</title>
<g id="a_node24"><a xlink:title=" ">
<polygon fill="none" stroke="#bfbfbf" points="1569.5,-0.5 1569.5,-19.5 1613.5,-19.5 1613.5,-0.5 1569.5,-0.5"/>
<text text-anchor="middle" x="1591.5" y="-7.5" font-family="Helvetica,sans-Serif" font-size="10.00">thread</text>
</a>
</g>
</g>
<!-- Node3&#45;&gt;Node24 -->
<g id="edge23" class="edge">
<title>Node3&#45;&gt;Node24</title>
<path fill="none" stroke="midnightblue" d="M1094.54,-63.59C1194.19,-60.57 1387.25,-51.11 1559.28,-19.87"/>
<polygon fill="midnightblue" stroke="midnightblue" points="1560.08,-23.28 1569.28,-18.02 1558.81,-16.4 1560.08,-23.28"/>
</g>
<!-- Node25 -->
<g id="node25" class="node">
<title>Node25</title>
<g id="a_node25"><a xlink:title=" ">
<polygon fill="none" stroke="#bfbfbf" points="1631.5,-0.5 1631.5,-19.5 1675.5,-19.5 1675.5,-0.5 1631.5,-0.5"/>
<text text-anchor="middle" x="1653.5" y="-7.5" font-family="Helvetica,sans-Serif" font-size="10.00">mutex</text>
</a>
</g>
</g>
<!-- Node3&#45;&gt;Node25 -->
<g id="edge24" class="edge">
<title>Node3&#45;&gt;Node25</title>
<path fill="none" stroke="midnightblue" d="M1094.55,-64.43C1203.49,-62.53 1425.62,-54.54 1621.39,-19.83"/>
<polygon fill="midnightblue" stroke="midnightblue" points="1622.06,-23.26 1631.28,-18.05 1620.82,-16.38 1622.06,-23.26"/>
</g>
<!-- Node26 -->
<g id="node26" class="node">
<title>Node26</title>
<g id="a_node26"><a xlink:title=" ">
<polygon fill="none" stroke="#bfbfbf" points="1694,-0.5 1694,-19.5 1737,-19.5 1737,-0.5 1694,-0.5"/>
<text text-anchor="middle" x="1715.5" y="-7.5" font-family="Helvetica,sans-Serif" font-size="10.00">queue</text>
</a>
</g>
</g>
<!-- Node3&#45;&gt;Node26 -->
<g id="edge25" class="edge">
<title>Node3&#45;&gt;Node26</title>
<path fill="none" stroke="midnightblue" d="M1094.76,-65.12C1212.54,-64.3 1463.7,-57.97 1683.83,-19.68"/>
<polygon fill="midnightblue" stroke="midnightblue" points="1684.72,-23.08 1693.96,-17.89 1683.5,-16.19 1684.72,-23.08"/>
</g>
<!-- Node27 -->
<g id="node27" class="node">
<title>Node27</title>
<g id="a_node27"><a xlink:title=" ">
<polygon fill="none" stroke="#bfbfbf" points="1755,-0.5 1755,-19.5 1790,-19.5 1790,-0.5 1755,-0.5"/>
<text text-anchor="middle" x="1772.5" y="-7.5" font-family="Helvetica,sans-Serif" font-size="10.00">map</text>
</a>
</g>
</g>
<!-- Node3&#45;&gt;Node27 -->
<g id="edge26" class="edge">
<title>Node3&#45;&gt;Node27</title>
<path fill="none" stroke="midnightblue" d="M1094.59,-63.12C1244.69,-58.54 1604.8,-45.43 1744.69,-19.79"/>
<polygon fill="midnightblue" stroke="midnightblue" points="1745.62,-23.18 1754.77,-17.85 1744.29,-16.31 1745.62,-23.18"/>
</g>
<!-- Node28&#45;&gt;Node2 -->
<g id="edge28" class="edge">
<title>Node28&#45;&gt;Node2</title>
<path fill="none" stroke="midnightblue" d="M916.5,-520.87C885.54,-504.63 825.5,-466.39 825.5,-414 825.5,-414 825.5,-414 825.5,-244 825.5,-183.47 894.7,-154.23 952.09,-140.39"/>
<polygon fill="midnightblue" stroke="midnightblue" points="952.95,-143.78 961.92,-138.14 951.39,-136.96 952.95,-143.78"/>
</g>
<!-- Node29 -->
<g id="node29" class="node">
<title>Node29</title>
<g id="a_node29"><a xlink:title=" ">
<polygon fill="none" stroke="#bfbfbf" points="899.5,-459.5 899.5,-478.5 969.5,-478.5 969.5,-459.5 899.5,-459.5"/>
<text text-anchor="middle" x="934.5" y="-466.5" font-family="Helvetica,sans-Serif" font-size="10.00">opus/opus.h</text>
</a>
</g>
</g>
<!-- Node28&#45;&gt;Node29 -->
<g id="edge29" class="edge">
<title>Node28&#45;&gt;Node29</title>
<path fill="none" stroke="midnightblue" d="M934.5,-520.98C934.5,-512.58 934.5,-499.48 934.5,-488.66"/>
<polygon fill="midnightblue" stroke="midnightblue" points="938,-488.51 934.5,-478.51 931,-488.51 938,-488.51"/>
</g>
<!-- Node30&#45;&gt;Node2 -->
<g id="edge31" class="edge">
<title>Node30&#45;&gt;Node2</title>
<path fill="none" stroke="midnightblue" d="M1051.92,-403.46C1005.82,-390.27 932.5,-360.16 932.5,-302 932.5,-302 932.5,-302 932.5,-244 932.5,-213.2 937.79,-203.46 956.5,-179 965.91,-166.7 979.15,-156.16 991.65,-147.94"/>
<polygon fill="midnightblue" stroke="midnightblue" points="993.51,-150.91 1000.13,-142.63 989.8,-144.98 993.51,-150.91"/>
</g>
<!-- Node31 -->
<g id="node31" class="node">
<title>Node31</title>
<g id="a_node31"><a xlink:href="../../d3/d4f/a00761.html" target="_top" xlink:title=" ">
<polygon fill="none" stroke="black" points="1299.5,-347.5 1299.5,-366.5 1449.5,-366.5 1449.5,-347.5 1299.5,-347.5"/>
<text text-anchor="middle" x="1374.5" y="-354.5" font-family="Helvetica,sans-Serif" font-size="10.00">discordcoreapi/ThreadPool.hpp</text>
</a>
</g>
</g>
<!-- Node30&#45;&gt;Node31 -->
<g id="edge32" class="edge">
<title>Node30&#45;&gt;Node31</title>
<path fill="none" stroke="midnightblue" d="M1133.82,-403.44C1184.13,-393.94 1265.34,-378.61 1319.31,-368.42"/>
<polygon fill="midnightblue" stroke="midnightblue" points="1320.22,-371.81 1329.39,-366.52 1318.92,-364.93 1320.22,-371.81"/>
</g>
<!-- Node31&#45;&gt;Node2 -->
<g id="edge33" class="edge">
<title>Node31&#45;&gt;Node2</title>
<path fill="none" stroke="midnightblue" d="M1329.2,-347.44C1257.48,-331.43 1118.36,-290.02 1044.5,-199 1033.97,-186.02 1029.79,-167.54 1028.2,-152.76"/>
<polygon fill="midnightblue" stroke="midnightblue" points="1031.69,-152.49 1027.46,-142.78 1024.71,-153.01 1031.69,-152.49"/>
</g>
<!-- Node32 -->
<g id="node32" class="node">
<title>Node32</title>
<g id="a_node32"><a xlink:href="../../db/d7c/a00722.html" target="_top" xlink:title=" ">
<polygon fill="none" stroke="black" points="1343,-291.5 1343,-310.5 1468,-310.5 1468,-291.5 1343,-291.5"/>
<text text-anchor="middle" x="1405.5" y="-298.5" font-family="Helvetica,sans-Serif" font-size="10.00">discordcoreapi/Https.hpp</text>
</a>
</g>
</g>
<!-- Node31&#45;&gt;Node32 -->
<g id="edge34" class="edge">
<title>Node31&#45;&gt;Node32</title>
<path fill="none" stroke="midnightblue" d="M1379.62,-347.08C1383.91,-339.61 1390.16,-328.72 1395.44,-319.52"/>
<polygon fill="midnightblue" stroke="midnightblue" points="1398.53,-321.17 1400.48,-310.75 1392.46,-317.68 1398.53,-321.17"/>
</g>
<!-- Node33 -->
<g id="node33" class="node">
<title>Node33</title>
<g id="a_node33"><a xlink:href="../../d5/de8/a00749.html" target="_top" xlink:title=" ">
<polygon fill="none" stroke="black" points="1452.5,-235.5 1452.5,-254.5 1602.5,-254.5 1602.5,-235.5 1452.5,-235.5"/>
<text text-anchor="middle" x="1527.5" y="-242.5" font-family="Helvetica,sans-Serif" font-size="10.00">discordcoreapi/SSLClients.hpp</text>
</a>
</g>
</g>
<!-- Node32&#45;&gt;Node33 -->
<g id="edge35" class="edge">
<title>Node32&#45;&gt;Node33</title>
<path fill="none" stroke="midnightblue" d="M1424.83,-291.44C1444.82,-282.6 1476.24,-268.69 1499.06,-258.59"/>
<polygon fill="midnightblue" stroke="midnightblue" points="1500.53,-261.76 1508.26,-254.52 1497.7,-255.36 1500.53,-261.76"/>
</g>
<!-- Node33&#45;&gt;Node2 -->
<g id="edge36" class="edge">
<title>Node33&#45;&gt;Node2</title>
<path fill="none" stroke="midnightblue" d="M1452.23,-240.53C1329.55,-234.29 1096.92,-219.89 1065.5,-199 1049.35,-188.26 1039.52,-168.3 1033.92,-152.36"/>
<polygon fill="midnightblue" stroke="midnightblue" points="1037.18,-151.07 1030.82,-142.59 1030.51,-153.18 1037.18,-151.07"/>
</g>
<!-- Node34 -->
<g id="node34" class="node">
<title>Node34</title>
<g id="a_node34"><a xlink:href="../../d4/d6a/a00704.html" target="_top" xlink:title=" ">
<polygon fill="none" stroke="black" points="2035.5,-179.5 2035.5,-198.5 2193.5,-198.5 2193.5,-179.5 2035.5,-179.5"/>
<text text-anchor="middle" x="2114.5" y="-186.5" font-family="Helvetica,sans-Serif" font-size="10.00">discordcoreapi/EventEntities.hpp</text>
</a>
</g>
</g>
<!-- Node33&#45;&gt;Node34 -->
<g id="edge37" class="edge">
<title>Node33&#45;&gt;Node34</title>
<path fill="none" stroke="midnightblue" d="M1602.76,-237.5C1698.38,-229.17 1868.76,-214.12 2025.08,-199.13"/>
<polygon fill="midnightblue" stroke="midnightblue" points="2025.73,-202.58 2035.35,-198.14 2025.06,-195.61 2025.73,-202.58"/>
</g>
<!-- Node35 -->
<g id="node35" class="node">
<title>Node35</title>
<g id="a_node35"><a xlink:title=" ">
<polygon fill="none" stroke="#bfbfbf" points="1322,-179.5 1322,-198.5 1395,-198.5 1395,-179.5 1322,-179.5"/>
<text text-anchor="middle" x="1358.5" y="-186.5" font-family="Helvetica,sans-Serif" font-size="10.00">openssl/err.h</text>
</a>
</g>
</g>
<!-- Node33&#45;&gt;Node35 -->
<g id="edge39" class="edge">
<title>Node33&#45;&gt;Node35</title>
<path fill="none" stroke="midnightblue" d="M1500.72,-235.44C1472.17,-226.32 1426.77,-211.81 1394.96,-201.65"/>
<polygon fill="midnightblue" stroke="midnightblue" points="1395.74,-198.23 1385.15,-198.52 1393.61,-204.89 1395.74,-198.23"/>
</g>
<!-- Node36 -->
<g id="node36" class="node">
<title>Node36</title>
<g id="a_node36"><a xlink:title=" ">
<polygon fill="none" stroke="#bfbfbf" points="1413.5,-179.5 1413.5,-198.5 1487.5,-198.5 1487.5,-179.5 1413.5,-179.5"/>
<text text-anchor="middle" x="1450.5" y="-186.5" font-family="Helvetica,sans-Serif" font-size="10.00">openssl/ssl.h</text>
</a>
</g>
</g>
<!-- Node33&#45;&gt;Node36 -->
<g id="edge40" class="edge">
<title>Node33&#45;&gt;Node36</title>
<path fill="none" stroke="midnightblue" d="M1515.13,-235.32C1503.34,-227.06 1485.37,-214.45 1471.36,-204.63"/>
<polygon fill="midnightblue" stroke="midnightblue" points="1473.04,-201.53 1462.84,-198.65 1469.02,-207.26 1473.04,-201.53"/>
</g>
<!-- Node37 -->
<g id="node37" class="node">
<title>Node37</title>
<g id="a_node37"><a xlink:title=" ">
<polygon fill="none" stroke="#bfbfbf" points="1506,-179.5 1506,-198.5 1549,-198.5 1549,-179.5 1506,-179.5"/>
<text text-anchor="middle" x="1527.5" y="-186.5" font-family="Helvetica,sans-Serif" font-size="10.00">fcntl.h</text>
</a>
</g>
</g>
<!-- Node33&#45;&gt;Node37 -->
<g id="edge41" class="edge">
<title>Node33&#45;&gt;Node37</title>
<path fill="none" stroke="midnightblue" d="M1527.5,-235.08C1527.5,-228.01 1527.5,-217.86 1527.5,-208.99"/>
<polygon fill="midnightblue" stroke="midnightblue" points="1531,-208.75 1527.5,-198.75 1524,-208.75 1531,-208.75"/>
</g>
<!-- Node38 -->
<g id="node38" class="node">
<title>Node38</title>
<g id="a_node38"><a xlink:title=" ">
<polygon fill="none" stroke="#bfbfbf" points="1567,-179.5 1567,-198.5 1616,-198.5 1616,-179.5 1567,-179.5"/>
<text text-anchor="middle" x="1591.5" y="-186.5" font-family="Helvetica,sans-Serif" font-size="10.00">netdb.h</text>
</a>
</g>
</g>
<!-- Node33&#45;&gt;Node38 -->
<g id="edge42" class="edge">
<title>Node33&#45;&gt;Node38</title>
<path fill="none" stroke="midnightblue" d="M1537.78,-235.32C1547.34,-227.26 1561.78,-215.08 1573.28,-205.37"/>
<polygon fill="midnightblue" stroke="midnightblue" points="1575.64,-207.96 1581.03,-198.83 1571.13,-202.61 1575.64,-207.96"/>
</g>
<!-- Node39 -->
<g id="node39" class="node">
<title>Node39</title>
<g id="a_node39"><a xlink:title=" ">
<polygon fill="none" stroke="#bfbfbf" points="1634,-179.5 1634,-198.5 1699,-198.5 1699,-179.5 1634,-179.5"/>
<text text-anchor="middle" x="1666.5" y="-186.5" font-family="Helvetica,sans-Serif" font-size="10.00">netinet/in.h</text>
</a>
</g>
</g>
<!-- Node33&#45;&gt;Node39 -->
<g id="edge43" class="edge">
<title>Node33&#45;&gt;Node39</title>
<path fill="none" stroke="midnightblue" d="M1549.52,-235.44C1572.6,-226.48 1609.06,-212.31 1635.14,-202.18"/>
<polygon fill="midnightblue" stroke="midnightblue" points="1636.52,-205.4 1644.58,-198.52 1633.99,-198.88 1636.52,-205.4"/>
</g>
<!-- Node40 -->
<g id="node40" class="node">
<title>Node40</title>
<g id="a_node40"><a xlink:title=" ">
<polygon fill="none" stroke="#bfbfbf" points="1717,-179.5 1717,-198.5 1788,-198.5 1788,-179.5 1717,-179.5"/>
<text text-anchor="middle" x="1752.5" y="-186.5" font-family="Helvetica,sans-Serif" font-size="10.00">netinet/tcp.h</text>
</a>
</g>
</g>
<!-- Node33&#45;&gt;Node40 -->
<g id="edge44" class="edge">
<title>Node33&#45;&gt;Node40</title>
<path fill="none" stroke="midnightblue" d="M1563.15,-235.44C1602.16,-226.08 1664.77,-211.06 1707.22,-200.87"/>
<polygon fill="midnightblue" stroke="midnightblue" points="1708.11,-204.25 1717.01,-198.52 1706.47,-197.45 1708.11,-204.25"/>
</g>
<!-- Node41 -->
<g id="node41" class="node">
<title>Node41</title>
<g id="a_node41"><a xlink:title=" ">
<polygon fill="none" stroke="#bfbfbf" points="1806,-179.5 1806,-198.5 1855,-198.5 1855,-179.5 1806,-179.5"/>
<text text-anchor="middle" x="1830.5" y="-186.5" font-family="Helvetica,sans-Serif" font-size="10.00">stdint.h</text>
</a>
</g>
</g>
<!-- Node33&#45;&gt;Node41 -->
<g id="edge45" class="edge">
<title>Node33&#45;&gt;Node41</title>
<path fill="none" stroke="midnightblue" d="M1589.5,-235.49C1642.09,-227.85 1719.69,-215.62 1795.5,-199.28"/>
<polygon fill="midnightblue" stroke="midnightblue" points="1796.68,-202.6 1805.7,-197.05 1795.18,-195.77 1796.68,-202.6"/>
</g>
<!-- Node42 -->
<g id="node42" class="node">
<title>Node42</title>
<g id="a_node42"><a xlink:title=" ">
<polygon fill="none" stroke="#bfbfbf" points="1873.5,-179.5 1873.5,-198.5 1937.5,-198.5 1937.5,-179.5 1873.5,-179.5"/>
<text text-anchor="middle" x="1905.5" y="-186.5" font-family="Helvetica,sans-Serif" font-size="10.00">sys/epoll.h</text>
</a>
</g>
</g>
<!-- Node33&#45;&gt;Node42 -->
<g id="edge46" class="edge">
<title>Node33&#45;&gt;Node42</title>
<path fill="none" stroke="midnightblue" d="M1602.73,-235.77C1668.87,-228.13 1767.93,-215.66 1863.22,-199.1"/>
<polygon fill="midnightblue" stroke="midnightblue" points="1864.08,-202.51 1873.32,-197.33 1862.87,-195.61 1864.08,-202.51"/>
</g>
<!-- Node43 -->
<g id="node43" class="node">
<title>Node43</title>
<g id="a_node43"><a xlink:title=" ">
<polygon fill="none" stroke="#bfbfbf" points="1955.5,-179.5 1955.5,-198.5 2017.5,-198.5 2017.5,-179.5 1955.5,-179.5"/>
<text text-anchor="middle" x="1986.5" y="-186.5" font-family="Helvetica,sans-Serif" font-size="10.00">arpa/inet.h</text>
</a>
</g>
</g>
<!-- Node33&#45;&gt;Node43 -->
<g id="edge47" class="edge">
<title>Node33&#45;&gt;Node43</title>
<path fill="none" stroke="midnightblue" d="M1602.78,-238.52C1684.71,-231.97 1819.7,-219.47 1944.97,-199.09"/>
<polygon fill="midnightblue" stroke="midnightblue" points="1945.83,-202.49 1955.12,-197.42 1944.69,-195.59 1945.83,-202.49"/>
</g>
<!-- Node44 -->
<g id="node44" class="node">
<title>Node44</title>
<g id="a_node44"><a xlink:title=" ">
<polygon fill="none" stroke="#bfbfbf" points="1075,-179.5 1075,-198.5 1148,-198.5 1148,-179.5 1075,-179.5"/>
<text text-anchor="middle" x="1111.5" y="-186.5" font-family="Helvetica,sans-Serif" font-size="10.00">sys/socket.h</text>
</a>
</g>
</g>
<!-- Node33&#45;&gt;Node44 -->
<g id="edge48" class="edge">
<title>Node33&#45;&gt;Node44</title>
<path fill="none" stroke="midnightblue" d="M1452.16,-236.45C1379.51,-228.8 1266.23,-215.91 1158.22,-199.01"/>
<polygon fill="midnightblue" stroke="midnightblue" points="1158.54,-195.51 1148.12,-197.41 1157.45,-202.43 1158.54,-195.51"/>
</g>
<!-- Node45 -->
<g id="node45" class="node">
<title>Node45</title>
<g id="a_node45"><a xlink:title=" ">
<polygon fill="none" stroke="#bfbfbf" points="1166.5,-179.5 1166.5,-198.5 1234.5,-198.5 1234.5,-179.5 1166.5,-179.5"/>
<text text-anchor="middle" x="1200.5" y="-186.5" font-family="Helvetica,sans-Serif" font-size="10.00">sys/types.h</text>
</a>
</g>
</g>
<!-- Node33&#45;&gt;Node45 -->
<g id="edge49" class="edge">
<title>Node33&#45;&gt;Node45</title>
<path fill="none" stroke="midnightblue" d="M1469.11,-235.48C1411.8,-226.94 1321.96,-213.07 1244.5,-199 1244.4,-198.98 1244.3,-198.96 1244.2,-198.94"/>
<polygon fill="midnightblue" stroke="midnightblue" points="1245.06,-195.55 1234.58,-197.13 1243.76,-202.42 1245.06,-195.55"/>
</g>
<!-- Node46 -->
<g id="node46" class="node">
<title>Node46</title>
<g id="a_node46"><a xlink:title=" ">
<polygon fill="none" stroke="#bfbfbf" points="1253,-179.5 1253,-198.5 1304,-198.5 1304,-179.5 1253,-179.5"/>
<text text-anchor="middle" x="1278.5" y="-186.5" font-family="Helvetica,sans-Serif" font-size="10.00">unistd.h</text>
</a>
</g>
</g>
<!-- Node33&#45;&gt;Node46 -->
<g id="edge50" class="edge">
<title>Node33&#45;&gt;Node46</title>
<path fill="none" stroke="midnightblue" d="M1483.93,-235.43C1442.71,-227.19 1378.89,-214.09 1314.07,-199.05"/>
<polygon fill="midnightblue" stroke="midnightblue" points="1314.62,-195.58 1304.08,-196.72 1313.02,-202.4 1314.62,-195.58"/>
</g>
<!-- Node34&#45;&gt;Node2 -->
<g id="edge38" class="edge">
<title>Node34&#45;&gt;Node2</title>
<path fill="none" stroke="midnightblue" d="M2035.36,-179.71C2032.37,-179.46 2029.41,-179.22 2026.5,-179 1682.2,-152.71 1270.07,-136.79 1103.19,-131"/>
<polygon fill="midnightblue" stroke="midnightblue" points="1103.14,-127.49 1093.03,-130.65 1102.9,-134.49 1103.14,-127.49"/>
</g>
<!-- Node47&#45;&gt;Node2 -->
<g id="edge52" class="edge">
<title>Node47&#45;&gt;Node2</title>
<path fill="none" stroke="midnightblue" d="M1594.82,-528.97C1822.19,-526.28 2547.5,-510.18 2547.5,-414 2547.5,-414 2547.5,-414 2547.5,-244 2547.5,-210.54 2538.24,-196.14 2509.5,-179 2448.7,-142.73 1397.75,-131.5 1103.51,-129.06"/>
<polygon fill="midnightblue" stroke="midnightblue" points="1103.39,-125.56 1093.36,-128.98 1103.33,-132.56 1103.39,-125.56"/>
</g>
<!-- Node47&#45;&gt;Node31 -->
<g id="edge65" class="edge">
<title>Node47&#45;&gt;Node31</title>
<path fill="none" stroke="midnightblue" d="M1514.98,-515.47C1486.82,-483.9 1418.63,-407.47 1388.84,-374.07"/>
<polygon fill="midnightblue" stroke="midnightblue" points="1391.41,-371.69 1382.14,-366.56 1386.18,-376.35 1391.41,-371.69"/>
</g>
<!-- Node47&#45;&gt;Node33 -->
<g id="edge64" class="edge">
<title>Node47&#45;&gt;Node33</title>
<path fill="none" stroke="midnightblue" d="M1527.5,-515.28C1527.5,-493.48 1527.5,-450.49 1527.5,-414 1527.5,-414 1527.5,-414 1527.5,-356 1527.5,-323.95 1527.5,-286.64 1527.5,-264.75"/>
<polygon fill="midnightblue" stroke="midnightblue" points="1531,-264.56 1527.5,-254.56 1524,-264.56 1531,-264.56"/>
</g>
<!-- Node47&#45;&gt;Node34 -->
<g id="edge63" class="edge">
<title>Node47&#45;&gt;Node34</title>
<path fill="none" stroke="midnightblue" d="M1594.84,-520.9C1695.24,-506.17 1872.5,-471.95 1872.5,-414 1872.5,-414 1872.5,-414 1872.5,-300 1872.5,-257.5 1997.78,-219.21 2068.06,-201.08"/>
<polygon fill="midnightblue" stroke="midnightblue" points="2069.18,-204.4 2078.01,-198.55 2067.45,-197.62 2069.18,-204.4"/>
</g>
<!-- Node48 -->
<g id="node48" class="node">
<title>Node48</title>
<g id="a_node48"><a xlink:href="../../d4/d9b/a00680.html" target="_top" xlink:title=" ">
<polygon fill="none" stroke="black" points="2185.5,-235.5 2185.5,-254.5 2347.5,-254.5 2347.5,-235.5 2185.5,-235.5"/>
<text text-anchor="middle" x="2266.5" y="-242.5" font-family="Helvetica,sans-Serif" font-size="10.00">discordcoreapi/AudioDecoder.hpp</text>
</a>
</g>
</g>
<!-- Node47&#45;&gt;Node48 -->
<g id="edge53" class="edge">
<title>Node47&#45;&gt;Node48</title>
<path fill="none" stroke="midnightblue" d="M1594.76,-525.12C1766.82,-513.04 2209.5,-475.92 2209.5,-414 2209.5,-414 2209.5,-414 2209.5,-356 2209.5,-319.3 2234.82,-282.66 2251.71,-262.3"/>
<polygon fill="midnightblue" stroke="midnightblue" points="2254.45,-264.48 2258.33,-254.62 2249.15,-259.9 2254.45,-264.48"/>
</g>
<!-- Node51 -->
<g id="node51" class="node">
<title>Node51</title>
<g id="a_node51"><a xlink:href="../../d0/db6/a00692.html" target="_top" xlink:title=" ">
<polygon fill="none" stroke="black" points="1117,-459.5 1117,-478.5 1304,-478.5 1304,-459.5 1117,-459.5"/>
<text text-anchor="middle" x="1210.5" y="-466.5" font-family="Helvetica,sans-Serif" font-size="10.00">discordcoreapi/CommandController.hpp</text>
</a>
</g>
</g>
<!-- Node47&#45;&gt;Node51 -->
<g id="edge58" class="edge">
<title>Node47&#45;&gt;Node51</title>
<path fill="none" stroke="midnightblue" d="M1460.27,-516.88C1402.56,-506.05 1320.36,-490.62 1266.25,-480.46"/>
<polygon fill="midnightblue" stroke="midnightblue" points="1266.62,-476.97 1256.15,-478.57 1265.33,-483.85 1266.62,-476.97"/>
</g>
<!-- Node52 -->
<g id="node52" class="node">
<title>Node52</title>
<g id="a_node52"><a xlink:href="../../dd/d57/a00701.html" target="_top" xlink:title=" ">
<polygon fill="none" stroke="black" points="853.5,-403.5 853.5,-422.5 997.5,-422.5 997.5,-403.5 853.5,-403.5"/>
<text text-anchor="middle" x="925.5" y="-410.5" font-family="Helvetica,sans-Serif" font-size="10.00">discordcoreapi/ErlPacker.hpp</text>
</a>
</g>
</g>
<!-- Node47&#45;&gt;Node52 -->
<g id="edge61" class="edge">
<title>Node47&#45;&gt;Node52</title>
<path fill="none" stroke="midnightblue" d="M1460.14,-526.04C1376.5,-520.69 1229.92,-507.84 1107.5,-479 1051.83,-465.89 989.6,-441.41 954.23,-426.53"/>
<polygon fill="midnightblue" stroke="midnightblue" points="955.56,-423.29 944.99,-422.6 952.82,-429.73 955.56,-423.29"/>
</g>
<!-- Node48&#45;&gt;Node2 -->
<g id="edge55" class="edge">
<title>Node48&#45;&gt;Node2</title>
<path fill="none" stroke="midnightblue" d="M2347.78,-243.46C2429.48,-240.28 2537.13,-227.27 2490.5,-179 2441.94,-128.73 1396.23,-127.57 1103.21,-128.23"/>
<polygon fill="midnightblue" stroke="midnightblue" points="1103.1,-124.73 1093.11,-128.26 1103.12,-131.73 1103.1,-124.73"/>
</g>
<!-- Node48&#45;&gt;Node34 -->
<g id="edge54" class="edge">
<title>Node48&#45;&gt;Node34</title>
<path fill="none" stroke="midnightblue" d="M2242.42,-235.44C2216.96,-226.4 2176.61,-212.06 2148.04,-201.92"/>
<polygon fill="midnightblue" stroke="midnightblue" points="2149.07,-198.57 2138.47,-198.52 2146.72,-205.16 2149.07,-198.57"/>
</g>
<!-- Node49 -->
<g id="node49" class="node">
<title>Node49</title>
<g id="a_node49"><a xlink:title=" ">
<polygon fill="none" stroke="#bfbfbf" points="2211.5,-179.5 2211.5,-198.5 2321.5,-198.5 2321.5,-179.5 2211.5,-179.5"/>
<text text-anchor="middle" x="2266.5" y="-186.5" font-family="Helvetica,sans-Serif" font-size="10.00">libavformat/avformat.h</text>
</a>
</g>
</g>
<!-- Node48&#45;&gt;Node49 -->
<g id="edge56" class="edge">
<title>Node48&#45;&gt;Node49</title>
<path fill="none" stroke="midnightblue" d="M2266.5,-235.08C2266.5,-228.01 2266.5,-217.86 2266.5,-208.99"/>
<polygon fill="midnightblue" stroke="midnightblue" points="2270,-208.75 2266.5,-198.75 2263,-208.75 2270,-208.75"/>
</g>
<!-- Node50 -->
<g id="node50" class="node">
<title>Node50</title>
<g id="a_node50"><a xlink:title=" ">
<polygon fill="none" stroke="#bfbfbf" points="2340,-179.5 2340,-198.5 2481,-198.5 2481,-179.5 2340,-179.5"/>
<text text-anchor="middle" x="2410.5" y="-186.5" font-family="Helvetica,sans-Serif" font-size="10.00">libswresample/swresample.h</text>
</a>
</g>
</g>
<!-- Node48&#45;&gt;Node50 -->
<g id="edge57" class="edge">
<title>Node48&#45;&gt;Node50</title>
<path fill="none" stroke="midnightblue" d="M2289.32,-235.44C2313.33,-226.44 2351.33,-212.19 2378.37,-202.05"/>
<polygon fill="midnightblue" stroke="midnightblue" points="2379.66,-205.3 2387.79,-198.52 2377.2,-198.75 2379.66,-205.3"/>
</g>
<!-- Node51&#45;&gt;Node2 -->
<g id="edge59" class="edge">
<title>Node51&#45;&gt;Node2</title>
<path fill="none" stroke="midnightblue" d="M1205.2,-459.08C1197.67,-446.47 1183.36,-422.77 1170.5,-403 1110.55,-310.81 1065.3,-303.31 1030.5,-199 1025.57,-184.24 1024.8,-166.76 1025.27,-152.91"/>
<polygon fill="midnightblue" stroke="midnightblue" points="1028.78,-152.87 1025.85,-142.69 1021.79,-152.47 1028.78,-152.87"/>
</g>
<!-- Node51&#45;&gt;Node30 -->
<g id="edge60" class="edge">
<title>Node51&#45;&gt;Node30</title>
<path fill="none" stroke="midnightblue" d="M1191.17,-459.44C1171.18,-450.6 1139.76,-436.69 1116.94,-426.59"/>
<polygon fill="midnightblue" stroke="midnightblue" points="1118.3,-423.36 1107.74,-422.52 1115.47,-429.76 1118.3,-423.36"/>
</g>
<!-- Node52&#45;&gt;Node2 -->
<g id="edge62" class="edge">
<title>Node52&#45;&gt;Node2</title>
<path fill="none" stroke="midnightblue" d="M921.32,-403.39C912.86,-385.16 894.5,-341.09 894.5,-302 894.5,-302 894.5,-302 894.5,-244 894.5,-197.34 941.74,-165.27 979.91,-146.98"/>
<polygon fill="midnightblue" stroke="midnightblue" points="981.76,-149.98 989.39,-142.62 978.84,-143.62 981.76,-149.98"/>
</g>
</g>
</svg>
