<?xml version="1.0" encoding="UTF-8" standalone="no"?>
<!DOCTYPE svg PUBLIC "-//W3C//DTD SVG 1.1//EN"
 "http://www.w3.org/Graphics/SVG/1.1/DTD/svg11.dtd">
<!-- Generated by graphviz version 2.43.0 (0)
 -->
<!-- Title: GuildMemberEntities.hpp Pages: 1 -->
<svg width="2016pt" height="654pt"
 viewBox="0.00 0.00 2016.00 654.00" xmlns="http://www.w3.org/2000/svg" xmlns:xlink="http://www.w3.org/1999/xlink">
<g id="graph0" class="graph" transform="scale(1 1) rotate(0) translate(4 650)">
<title>GuildMemberEntities.hpp</title>
<!-- Node1 -->
<g id="node1" class="node">
<title>Node1</title>
<g id="a_node1"><a xlink:title=" ">
<polygon fill="#bfbfbf" stroke="black" points="1608,-646 1468,-646 1468,-627 1608,-627 1608,-646"/>
<text text-anchor="middle" x="1538" y="-634" font-family="Helvetica,sans-Serif" font-size="10.00">GuildMemberEntities.hpp</text>
</a>
</g>
</g>
<!-- Node2 -->
<g id="node2" class="node">
<title>Node2</title>
<g id="a_node2"><a xlink:href="../../d1/d87/a00689.html" target="_top" xlink:title=" ">
<polygon fill="none" stroke="black" points="1306.5,-140 1161.5,-140 1161.5,-110 1306.5,-110 1306.5,-140"/>
<text text-anchor="start" x="1169.5" y="-128" font-family="Helvetica,sans-Serif" font-size="10.00">discordcoreapi/Foundation</text>
<text text-anchor="middle" x="1234" y="-117" font-family="Helvetica,sans-Serif" font-size="10.00">Entities.hpp</text>
</a>
</g>
</g>
<!-- Node1&#45;&gt;Node2 -->
<g id="edge1" class="edge">
<title>Node1&#45;&gt;Node2</title>
<path fill="none" stroke="midnightblue" d="M1593.06,-626.95C1682.15,-611.54 1848,-575.66 1848,-522 1848,-522 1848,-522 1848,-239.5 1848,-204.12 1830.95,-193.14 1800,-176 1719.13,-131.21 1453.27,-125.2 1316.65,-125.2"/>
<polygon fill="midnightblue" stroke="midnightblue" points="1316.64,-121.7 1306.64,-125.21 1316.65,-128.7 1316.64,-121.7"/>
</g>
<!-- Node27 -->
<g id="node27" class="node">
<title>Node27</title>
<g id="a_node27"><a xlink:href="../../d3/d4f/a00761.html" target="_top" xlink:title=" ">
<polygon fill="none" stroke="black" points="1623.5,-591 1452.5,-591 1452.5,-572 1623.5,-572 1623.5,-591"/>
<text text-anchor="middle" x="1538" y="-579" font-family="Helvetica,sans-Serif" font-size="10.00">discordcoreapi/UserEntities.hpp</text>
</a>
</g>
</g>
<!-- Node1&#45;&gt;Node27 -->
<g id="edge26" class="edge">
<title>Node1&#45;&gt;Node27</title>
<path fill="none" stroke="midnightblue" d="M1538,-626.75C1538,-619.8 1538,-609.85 1538,-601.13"/>
<polygon fill="midnightblue" stroke="midnightblue" points="1541.5,-601.09 1538,-591.09 1534.5,-601.09 1541.5,-601.09"/>
</g>
<!-- Node36 -->
<g id="node36" class="node">
<title>Node36</title>
<g id="a_node36"><a xlink:href="../../dd/dd8/a00719.html" target="_top" xlink:title=" ">
<polygon fill="none" stroke="black" points="780,-305 642,-305 642,-286 780,-286 780,-305"/>
<text text-anchor="middle" x="711" y="-293" font-family="Helvetica,sans-Serif" font-size="10.00">discordcoreapi/Https.hpp</text>
</a>
</g>
</g>
<!-- Node1&#45;&gt;Node36 -->
<g id="edge64" class="edge">
<title>Node1&#45;&gt;Node36</title>
<path fill="none" stroke="midnightblue" d="M1467.89,-631.02C1294.96,-619.04 862,-582.95 862,-522 862,-522 862,-522 862,-404.5 862,-351.91 800.66,-322.49 756.17,-308.06"/>
<polygon fill="midnightblue" stroke="midnightblue" points="756.99,-304.65 746.4,-305.04 754.92,-311.34 756.99,-304.65"/>
</g>
<!-- Node3 -->
<g id="node3" class="node">
<title>Node3</title>
<g id="a_node3"><a xlink:href="../../d4/deb/a00710.html" target="_top" xlink:title=" ">
<polygon fill="none" stroke="black" points="1309,-74 1159,-74 1159,-55 1309,-55 1309,-74"/>
<text text-anchor="middle" x="1234" y="-62" font-family="Helvetica,sans-Serif" font-size="10.00">discordcoreapi/Utilities.hpp</text>
</a>
</g>
</g>
<!-- Node2&#45;&gt;Node3 -->
<g id="edge2" class="edge">
<title>Node2&#45;&gt;Node3</title>
<path fill="none" stroke="midnightblue" d="M1234,-109.84C1234,-102.21 1234,-92.7 1234,-84.45"/>
<polygon fill="midnightblue" stroke="midnightblue" points="1237.5,-84.27 1234,-74.27 1230.5,-84.27 1237.5,-84.27"/>
</g>
<!-- Node4 -->
<g id="node4" class="node">
<title>Node4</title>
<g id="a_node4"><a xlink:title=" ">
<polygon fill="none" stroke="#bfbfbf" points="217.5,-19 154.5,-19 154.5,0 217.5,0 217.5,-19"/>
<text text-anchor="middle" x="186" y="-7" font-family="Helvetica,sans-Serif" font-size="10.00">pthread.h</text>
</a>
</g>
</g>
<!-- Node3&#45;&gt;Node4 -->
<g id="edge3" class="edge">
<title>Node3&#45;&gt;Node4</title>
<path fill="none" stroke="midnightblue" d="M1158.81,-64.28C992.54,-65.12 581.14,-62.31 227.87,-18.86"/>
<polygon fill="midnightblue" stroke="midnightblue" points="228.06,-15.36 217.7,-17.6 227.19,-22.3 228.06,-15.36"/>
</g>
<!-- Node5 -->
<g id="node5" class="node">
<title>Node5</title>
<g id="a_node5"><a xlink:title=" ">
<polygon fill="none" stroke="#bfbfbf" points="304,-19 236,-19 236,0 304,0 304,-19"/>
<text text-anchor="middle" x="270" y="-7" font-family="Helvetica,sans-Serif" font-size="10.00">sys/time.h</text>
</a>
</g>
</g>
<!-- Node3&#45;&gt;Node5 -->
<g id="edge4" class="edge">
<title>Node3&#45;&gt;Node5</title>
<path fill="none" stroke="midnightblue" d="M1158.77,-63.6C1002.94,-62.99 633.48,-57.34 314.57,-18.99"/>
<polygon fill="midnightblue" stroke="midnightblue" points="314.54,-15.46 304.19,-17.73 313.7,-22.41 314.54,-15.46"/>
</g>
<!-- Node6 -->
<g id="node6" class="node">
<title>Node6</title>
<g id="a_node6"><a xlink:title=" ">
<polygon fill="none" stroke="#bfbfbf" points="370,-19 322,-19 322,0 370,0 370,-19"/>
<text text-anchor="middle" x="346" y="-7" font-family="Helvetica,sans-Serif" font-size="10.00">time.h</text>
</a>
</g>
</g>
<!-- Node3&#45;&gt;Node6 -->
<g id="edge5" class="edge">
<title>Node3&#45;&gt;Node6</title>
<path fill="none" stroke="midnightblue" d="M1158.74,-61.52C982.61,-56.56 546.59,-42.46 380.13,-18.78"/>
<polygon fill="midnightblue" stroke="midnightblue" points="380.44,-15.29 370.04,-17.28 379.41,-22.21 380.44,-15.29"/>
</g>
<!-- Node7 -->
<g id="node7" class="node">
<title>Node7</title>
<g id="a_node7"><a xlink:title=" ">
<polygon fill="none" stroke="#bfbfbf" points="432,-19 388,-19 388,0 432,0 432,-19"/>
<text text-anchor="middle" x="410" y="-7" font-family="Helvetica,sans-Serif" font-size="10.00">ctime</text>
</a>
</g>
</g>
<!-- Node3&#45;&gt;Node7 -->
<g id="edge6" class="edge">
<title>Node3&#45;&gt;Node7</title>
<path fill="none" stroke="midnightblue" d="M1158.86,-61.31C992.45,-56.15 596.1,-41.99 442.43,-18.81"/>
<polygon fill="midnightblue" stroke="midnightblue" points="442.65,-15.3 432.23,-17.2 441.56,-22.22 442.65,-15.3"/>
</g>
<!-- Node8 -->
<g id="node8" class="node">
<title>Node8</title>
<g id="a_node8"><a xlink:title=" ">
<polygon fill="none" stroke="#bfbfbf" points="557.5,-19 450.5,-19 450.5,0 557.5,0 557.5,-19"/>
<text text-anchor="middle" x="504" y="-7" font-family="Helvetica,sans-Serif" font-size="10.00">condition_variable</text>
</a>
</g>
</g>
<!-- Node3&#45;&gt;Node8 -->
<g id="edge7" class="edge">
<title>Node3&#45;&gt;Node8</title>
<path fill="none" stroke="midnightblue" d="M1158.84,-60.14C1037.06,-54.34 788.86,-40.98 567.76,-19"/>
<polygon fill="midnightblue" stroke="midnightblue" points="567.89,-15.5 557.59,-17.98 567.19,-22.46 567.89,-15.5"/>
</g>
<!-- Node9 -->
<g id="node9" class="node">
<title>Node9</title>
<g id="a_node9"><a xlink:title=" ">
<polygon fill="none" stroke="#bfbfbf" points="686,-19 576,-19 576,0 686,0 686,-19"/>
<text text-anchor="middle" x="631" y="-7" font-family="Helvetica,sans-Serif" font-size="10.00">nlohmann/json.hpp</text>
</a>
</g>
</g>
<!-- Node3&#45;&gt;Node9 -->
<g id="edge8" class="edge">
<title>Node3&#45;&gt;Node9</title>
<path fill="none" stroke="midnightblue" d="M1158.9,-58.48C1056.63,-51.39 867.61,-37.33 696.1,-19.07"/>
<polygon fill="midnightblue" stroke="midnightblue" points="696.45,-15.59 686.14,-18 695.71,-22.55 696.45,-15.59"/>
</g>
<!-- Node10 -->
<g id="node10" class="node">
<title>Node10</title>
<g id="a_node10"><a xlink:title=" ">
<polygon fill="none" stroke="#bfbfbf" points="797.5,-19 704.5,-19 704.5,0 797.5,0 797.5,-19"/>
<text text-anchor="middle" x="751" y="-7" font-family="Helvetica,sans-Serif" font-size="10.00">source_location</text>
</a>
</g>
</g>
<!-- Node3&#45;&gt;Node10 -->
<g id="edge9" class="edge">
<title>Node3&#45;&gt;Node10</title>
<path fill="none" stroke="midnightblue" d="M1158.87,-56.83C1075.48,-49.17 936.63,-35.64 807.83,-19.18"/>
<polygon fill="midnightblue" stroke="midnightblue" points="808.15,-15.7 797.79,-17.89 807.26,-22.64 808.15,-15.7"/>
</g>
<!-- Node11 -->
<g id="node11" class="node">
<title>Node11</title>
<g id="a_node11"><a xlink:title=" ">
<polygon fill="none" stroke="#bfbfbf" points="908.5,-19 815.5,-19 815.5,0 908.5,0 908.5,-19"/>
<text text-anchor="middle" x="862" y="-7" font-family="Helvetica,sans-Serif" font-size="10.00">unordered_map</text>
</a>
</g>
</g>
<!-- Node3&#45;&gt;Node11 -->
<g id="edge10" class="edge">
<title>Node3&#45;&gt;Node11</title>
<path fill="none" stroke="midnightblue" d="M1172.21,-55C1110.67,-46.49 1013.2,-32.88 918.76,-19.1"/>
<polygon fill="midnightblue" stroke="midnightblue" points="919.15,-15.62 908.75,-17.63 918.13,-22.54 919.15,-15.62"/>
</g>
<!-- Node12 -->
<g id="node12" class="node">
<title>Node12</title>
<g id="a_node12"><a xlink:title=" ">
<polygon fill="none" stroke="#bfbfbf" points="1013,-19 927,-19 927,0 1013,0 1013,-19"/>
<text text-anchor="middle" x="970" y="-7" font-family="Helvetica,sans-Serif" font-size="10.00">shared_mutex</text>
</a>
</g>
</g>
<!-- Node3&#45;&gt;Node12 -->
<g id="edge11" class="edge">
<title>Node3&#45;&gt;Node12</title>
<path fill="none" stroke="midnightblue" d="M1191.58,-54.98C1145.63,-45.76 1072.25,-31.03 1022.65,-21.07"/>
<polygon fill="midnightblue" stroke="midnightblue" points="1023.24,-17.62 1012.75,-19.08 1021.86,-24.48 1023.24,-17.62"/>
</g>
<!-- Node13 -->
<g id="node13" class="node">
<title>Node13</title>
<g id="a_node13"><a xlink:title=" ">
<polygon fill="none" stroke="#bfbfbf" points="1096.5,-19 1031.5,-19 1031.5,0 1096.5,0 1096.5,-19"/>
<text text-anchor="middle" x="1064" y="-7" font-family="Helvetica,sans-Serif" font-size="10.00">functional</text>
</a>
</g>
</g>
<!-- Node3&#45;&gt;Node13 -->
<g id="edge12" class="edge">
<title>Node3&#45;&gt;Node13</title>
<path fill="none" stroke="midnightblue" d="M1206.69,-54.98C1178.15,-46.09 1133.17,-32.07 1101.36,-22.15"/>
<polygon fill="midnightblue" stroke="midnightblue" points="1102.12,-18.72 1091.53,-19.08 1100.03,-25.4 1102.12,-18.72"/>
</g>
<!-- Node14 -->
<g id="node14" class="node">
<title>Node14</title>
<g id="a_node14"><a xlink:title=" ">
<polygon fill="none" stroke="#bfbfbf" points="1185.5,-19 1114.5,-19 1114.5,0 1185.5,0 1185.5,-19"/>
<text text-anchor="middle" x="1150" y="-7" font-family="Helvetica,sans-Serif" font-size="10.00">semaphore</text>
</a>
</g>
</g>
<!-- Node3&#45;&gt;Node14 -->
<g id="edge13" class="edge">
<title>Node3&#45;&gt;Node14</title>
<path fill="none" stroke="midnightblue" d="M1220.5,-54.98C1207.6,-46.84 1187.9,-34.41 1172.6,-24.76"/>
<polygon fill="midnightblue" stroke="midnightblue" points="1174.07,-21.55 1163.74,-19.17 1170.33,-27.47 1174.07,-21.55"/>
</g>
<!-- Node15 -->
<g id="node15" class="node">
<title>Node15</title>
<g id="a_node15"><a xlink:title=" ">
<polygon fill="none" stroke="#bfbfbf" points="1264,-19 1204,-19 1204,0 1264,0 1264,-19"/>
<text text-anchor="middle" x="1234" y="-7" font-family="Helvetica,sans-Serif" font-size="10.00">concepts</text>
</a>
</g>
</g>
<!-- Node3&#45;&gt;Node15 -->
<g id="edge14" class="edge">
<title>Node3&#45;&gt;Node15</title>
<path fill="none" stroke="midnightblue" d="M1234,-54.75C1234,-47.8 1234,-37.85 1234,-29.13"/>
<polygon fill="midnightblue" stroke="midnightblue" points="1237.5,-29.09 1234,-19.09 1230.5,-29.09 1237.5,-29.09"/>
</g>
<!-- Node16 -->
<g id="node16" class="node">
<title>Node16</title>
<g id="a_node16"><a xlink:title=" ">
<polygon fill="none" stroke="#bfbfbf" points="1342,-19 1282,-19 1282,0 1342,0 1342,-19"/>
<text text-anchor="middle" x="1312" y="-7" font-family="Helvetica,sans-Serif" font-size="10.00">iostream</text>
</a>
</g>
</g>
<!-- Node3&#45;&gt;Node16 -->
<g id="edge15" class="edge">
<title>Node3&#45;&gt;Node16</title>
<path fill="none" stroke="midnightblue" d="M1246.53,-54.98C1258.4,-46.92 1276.46,-34.65 1290.61,-25.03"/>
<polygon fill="midnightblue" stroke="midnightblue" points="1292.94,-27.69 1299.24,-19.17 1289,-21.9 1292.94,-27.69"/>
</g>
<!-- Node17 -->
<g id="node17" class="node">
<title>Node17</title>
<g id="a_node17"><a xlink:title=" ">
<polygon fill="none" stroke="#bfbfbf" points="1415.5,-19 1360.5,-19 1360.5,0 1415.5,0 1415.5,-19"/>
<text text-anchor="middle" x="1388" y="-7" font-family="Helvetica,sans-Serif" font-size="10.00">fstream</text>
</a>
</g>
</g>
<!-- Node3&#45;&gt;Node17 -->
<g id="edge16" class="edge">
<title>Node3&#45;&gt;Node17</title>
<path fill="none" stroke="midnightblue" d="M1258.74,-54.98C1284.37,-46.16 1324.63,-32.31 1353.41,-22.41"/>
<polygon fill="midnightblue" stroke="midnightblue" points="1354.75,-25.65 1363.06,-19.08 1352.47,-19.03 1354.75,-25.65"/>
</g>
<!-- Node18 -->
<g id="node18" class="node">
<title>Node18</title>
<g id="a_node18"><a xlink:title=" ">
<polygon fill="none" stroke="#bfbfbf" points="1478,-19 1434,-19 1434,0 1478,0 1478,-19"/>
<text text-anchor="middle" x="1456" y="-7" font-family="Helvetica,sans-Serif" font-size="10.00">bitset</text>
</a>
</g>
</g>
<!-- Node3&#45;&gt;Node18 -->
<g id="edge17" class="edge">
<title>Node3&#45;&gt;Node18</title>
<path fill="none" stroke="midnightblue" d="M1271.93,-54.96C1310.34,-46.24 1371.41,-32.14 1424,-19 1424.1,-18.97 1424.2,-18.95 1424.3,-18.92"/>
<polygon fill="midnightblue" stroke="midnightblue" points="1425.17,-22.31 1433.99,-16.44 1423.43,-15.53 1425.17,-22.31"/>
</g>
<!-- Node19 -->
<g id="node19" class="node">
<title>Node19</title>
<g id="a_node19"><a xlink:title=" ">
<polygon fill="none" stroke="#bfbfbf" points="1554,-19 1496,-19 1496,0 1554,0 1554,-19"/>
<text text-anchor="middle" x="1525" y="-7" font-family="Helvetica,sans-Serif" font-size="10.00">memory</text>
</a>
</g>
</g>
<!-- Node3&#45;&gt;Node19 -->
<g id="edge18" class="edge">
<title>Node3&#45;&gt;Node19</title>
<path fill="none" stroke="midnightblue" d="M1286.46,-55C1335.52,-46.88 1411.06,-33.97 1485.91,-19.14"/>
<polygon fill="midnightblue" stroke="midnightblue" points="1486.86,-22.52 1495.98,-17.13 1485.49,-15.66 1486.86,-22.52"/>
</g>
<!-- Node20 -->
<g id="node20" class="node">
<title>Node20</title>
<g id="a_node20"><a xlink:title=" ">
<polygon fill="none" stroke="#bfbfbf" points="1626,-19 1572,-19 1572,0 1626,0 1626,-19"/>
<text text-anchor="middle" x="1599" y="-7" font-family="Helvetica,sans-Serif" font-size="10.00">random</text>
</a>
</g>
</g>
<!-- Node3&#45;&gt;Node20 -->
<g id="edge19" class="edge">
<title>Node3&#45;&gt;Node20</title>
<path fill="none" stroke="midnightblue" d="M1309.14,-55.45C1373.68,-48.05 1469.41,-35.92 1561.84,-19.05"/>
<polygon fill="midnightblue" stroke="midnightblue" points="1562.74,-22.45 1571.93,-17.19 1561.46,-15.56 1562.74,-22.45"/>
</g>
<!-- Node21 -->
<g id="node21" class="node">
<title>Node21</title>
<g id="a_node21"><a xlink:title=" ">
<polygon fill="none" stroke="#bfbfbf" points="1688,-19 1644,-19 1644,0 1688,0 1688,-19"/>
<text text-anchor="middle" x="1666" y="-7" font-family="Helvetica,sans-Serif" font-size="10.00">string</text>
</a>
</g>
</g>
<!-- Node3&#45;&gt;Node21 -->
<g id="edge20" class="edge">
<title>Node3&#45;&gt;Node21</title>
<path fill="none" stroke="midnightblue" d="M1309.17,-58.7C1387.93,-52.87 1515.32,-41.19 1633.78,-18.95"/>
<polygon fill="midnightblue" stroke="midnightblue" points="1634.58,-22.36 1643.75,-17.05 1633.27,-15.49 1634.58,-22.36"/>
</g>
<!-- Node22 -->
<g id="node22" class="node">
<title>Node22</title>
<g id="a_node22"><a xlink:title=" ">
<polygon fill="none" stroke="#bfbfbf" points="1753.5,-19 1706.5,-19 1706.5,0 1753.5,0 1753.5,-19"/>
<text text-anchor="middle" x="1730" y="-7" font-family="Helvetica,sans-Serif" font-size="10.00">vector</text>
</a>
</g>
</g>
<!-- Node3&#45;&gt;Node22 -->
<g id="edge21" class="edge">
<title>Node3&#45;&gt;Node22</title>
<path fill="none" stroke="midnightblue" d="M1309.06,-59.9C1398.89,-54.78 1553.92,-43.38 1696.09,-18.86"/>
<polygon fill="midnightblue" stroke="midnightblue" points="1697.06,-22.25 1706.3,-17.08 1695.85,-15.35 1697.06,-22.25"/>
</g>
<!-- Node23 -->
<g id="node23" class="node">
<title>Node23</title>
<g id="a_node23"><a xlink:title=" ">
<polygon fill="none" stroke="#bfbfbf" points="1820,-19 1772,-19 1772,0 1820,0 1820,-19"/>
<text text-anchor="middle" x="1796" y="-7" font-family="Helvetica,sans-Serif" font-size="10.00">thread</text>
</a>
</g>
</g>
<!-- Node3&#45;&gt;Node23 -->
<g id="edge22" class="edge">
<title>Node3&#45;&gt;Node23</title>
<path fill="none" stroke="midnightblue" d="M1309.4,-61.14C1410.46,-57.1 1595.44,-46.58 1762.02,-18.87"/>
<polygon fill="midnightblue" stroke="midnightblue" points="1762.67,-22.31 1771.95,-17.19 1761.51,-15.41 1762.67,-22.31"/>
</g>
<!-- Node24 -->
<g id="node24" class="node">
<title>Node24</title>
<g id="a_node24"><a xlink:title=" ">
<polygon fill="none" stroke="#bfbfbf" points="1886,-19 1838,-19 1838,0 1886,0 1886,-19"/>
<text text-anchor="middle" x="1862" y="-7" font-family="Helvetica,sans-Serif" font-size="10.00">mutex</text>
</a>
</g>
</g>
<!-- Node3&#45;&gt;Node24 -->
<g id="edge23" class="edge">
<title>Node3&#45;&gt;Node24</title>
<path fill="none" stroke="midnightblue" d="M1309.18,-62.14C1420.62,-59.19 1636.22,-49.86 1827.97,-18.86"/>
<polygon fill="midnightblue" stroke="midnightblue" points="1828.65,-22.29 1837.95,-17.22 1827.52,-15.38 1828.65,-22.29"/>
</g>
<!-- Node25 -->
<g id="node25" class="node">
<title>Node25</title>
<g id="a_node25"><a xlink:title=" ">
<polygon fill="none" stroke="#bfbfbf" points="1951.5,-19 1904.5,-19 1904.5,0 1951.5,0 1951.5,-19"/>
<text text-anchor="middle" x="1928" y="-7" font-family="Helvetica,sans-Serif" font-size="10.00">queue</text>
</a>
</g>
</g>
<!-- Node3&#45;&gt;Node25 -->
<g id="edge24" class="edge">
<title>Node3&#45;&gt;Node25</title>
<path fill="none" stroke="midnightblue" d="M1309.35,-62.94C1430.73,-61.05 1677.04,-53.12 1894.32,-18.76"/>
<polygon fill="midnightblue" stroke="midnightblue" points="1895,-22.2 1904.32,-17.16 1893.89,-15.29 1895,-22.2"/>
</g>
<!-- Node26 -->
<g id="node26" class="node">
<title>Node26</title>
<g id="a_node26"><a xlink:title=" ">
<polygon fill="none" stroke="#bfbfbf" points="2008,-19 1970,-19 1970,0 2008,0 2008,-19"/>
<text text-anchor="middle" x="1989" y="-7" font-family="Helvetica,sans-Serif" font-size="10.00">map</text>
</a>
</g>
</g>
<!-- Node3&#45;&gt;Node26 -->
<g id="edge25" class="edge">
<title>Node3&#45;&gt;Node26</title>
<path fill="none" stroke="midnightblue" d="M1309.16,-61.13C1464.98,-55.85 1819.68,-41.9 1959.76,-18.71"/>
<polygon fill="midnightblue" stroke="midnightblue" points="1960.61,-22.12 1969.86,-16.95 1959.41,-15.22 1960.61,-22.12"/>
</g>
<!-- Node27&#45;&gt;Node2 -->
<g id="edge27" class="edge">
<title>Node27&#45;&gt;Node2</title>
<path fill="none" stroke="midnightblue" d="M1623.69,-577.68C1703.42,-569.92 1810,-544.1 1810,-461.5 1810,-461.5 1810,-461.5 1810,-239.5 1810,-207.27 1801.96,-193.65 1775,-176 1737.61,-151.52 1459.11,-135.89 1316.97,-129.41"/>
<polygon fill="midnightblue" stroke="midnightblue" points="1316.7,-125.9 1306.56,-128.94 1316.39,-132.89 1316.7,-125.9"/>
</g>
<!-- Node28 -->
<g id="node28" class="node">
<title>Node28</title>
<g id="a_node28"><a xlink:href="../../d8/db9/a00725.html" target="_top" xlink:title=" ">
<polygon fill="none" stroke="black" points="1332,-536 1188,-536 1188,-506 1332,-506 1332,-536"/>
<text text-anchor="start" x="1196" y="-524" font-family="Helvetica,sans-Serif" font-size="10.00">discordcoreapi/WebSocket</text>
<text text-anchor="middle" x="1260" y="-513" font-family="Helvetica,sans-Serif" font-size="10.00">Entities.hpp</text>
</a>
</g>
</g>
<!-- Node27&#45;&gt;Node28 -->
<g id="edge28" class="edge">
<title>Node27&#45;&gt;Node28</title>
<path fill="none" stroke="midnightblue" d="M1497.58,-571.99C1455.49,-563.14 1388.56,-549.05 1336.45,-538.09"/>
<polygon fill="midnightblue" stroke="midnightblue" points="1337.07,-534.64 1326.57,-536.01 1335.63,-541.49 1337.07,-534.64"/>
</g>
<!-- Node28&#45;&gt;Node2 -->
<g id="edge29" class="edge">
<title>Node28&#45;&gt;Node2</title>
<path fill="none" stroke="midnightblue" d="M1332,-518.9C1473.02,-514.78 1772,-495.56 1772,-406.5 1772,-406.5 1772,-406.5 1772,-239.5 1772,-210.17 1776.53,-194.79 1754,-176 1721.2,-148.64 1455.01,-134.47 1316.74,-128.89"/>
<polygon fill="midnightblue" stroke="midnightblue" points="1316.74,-125.39 1306.61,-128.49 1316.46,-132.38 1316.74,-125.39"/>
</g>
<!-- Node29 -->
<g id="node29" class="node">
<title>Node29</title>
<g id="a_node29"><a xlink:href="../../d5/de8/a00749.html" target="_top" xlink:title=" ">
<polygon fill="none" stroke="black" points="1497.5,-250 1318.5,-250 1318.5,-231 1497.5,-231 1497.5,-250"/>
<text text-anchor="middle" x="1408" y="-238" font-family="Helvetica,sans-Serif" font-size="10.00">discordcoreapi/AudioDecoder.hpp</text>
</a>
</g>
</g>
<!-- Node28&#45;&gt;Node29 -->
<g id="edge30" class="edge">
<title>Node28&#45;&gt;Node29</title>
<path fill="none" stroke="midnightblue" d="M1287.83,-505.93C1319.54,-487.69 1367,-452.67 1367,-406.5 1367,-406.5 1367,-406.5 1367,-349.5 1367,-315.57 1384.91,-279.31 1397.06,-258.62"/>
<polygon fill="midnightblue" stroke="midnightblue" points="1400.07,-260.4 1402.3,-250.04 1394.1,-256.75 1400.07,-260.4"/>
</g>
<!-- Node30 -->
<g id="node30" class="node">
<title>Node30</title>
<g id="a_node30"><a xlink:href="../../d3/d2c/a00764.html" target="_top" xlink:title=" ">
<polygon fill="none" stroke="black" points="1380,-195 1204,-195 1204,-176 1380,-176 1380,-195"/>
<text text-anchor="middle" x="1292" y="-183" font-family="Helvetica,sans-Serif" font-size="10.00">discordcoreapi/EventEntities.hpp</text>
</a>
</g>
</g>
<!-- Node28&#45;&gt;Node30 -->
<g id="edge61" class="edge">
<title>Node28&#45;&gt;Node30</title>
<path fill="none" stroke="midnightblue" d="M1265.8,-505.94C1274,-484.76 1288,-443.24 1288,-406.5 1288,-406.5 1288,-406.5 1288,-294.5 1288,-263.17 1289.7,-226.76 1290.89,-205.23"/>
<polygon fill="midnightblue" stroke="midnightblue" points="1294.38,-205.36 1291.46,-195.18 1287.4,-204.96 1294.38,-205.36"/>
</g>
<!-- Node33 -->
<g id="node33" class="node">
<title>Node33</title>
<g id="a_node33"><a xlink:href="../../dd/d57/a00701.html" target="_top" xlink:title=" ">
<polygon fill="none" stroke="black" points="334.5,-470 125.5,-470 125.5,-451 334.5,-451 334.5,-470"/>
<text text-anchor="middle" x="230" y="-458" font-family="Helvetica,sans-Serif" font-size="10.00">discordcoreapi/CommandController.hpp</text>
</a>
</g>
</g>
<!-- Node28&#45;&gt;Node33 -->
<g id="edge36" class="edge">
<title>Node28&#45;&gt;Node33</title>
<path fill="none" stroke="midnightblue" d="M1187.98,-515.91C1011.95,-505.91 558.69,-480.17 344.88,-468.02"/>
<polygon fill="midnightblue" stroke="midnightblue" points="345.06,-464.53 334.88,-467.46 344.66,-471.52 345.06,-464.53"/>
</g>
<!-- Node35 -->
<g id="node35" class="node">
<title>Node35</title>
<g id="a_node35"><a xlink:href="../../d4/d6a/a00704.html" target="_top" xlink:title=" ">
<polygon fill="none" stroke="black" points="555.5,-360 388.5,-360 388.5,-341 555.5,-341 555.5,-360"/>
<text text-anchor="middle" x="472" y="-348" font-family="Helvetica,sans-Serif" font-size="10.00">discordcoreapi/ThreadPool.hpp</text>
</a>
</g>
</g>
<!-- Node28&#45;&gt;Node35 -->
<g id="edge63" class="edge">
<title>Node28&#45;&gt;Node35</title>
<path fill="none" stroke="midnightblue" d="M1193.61,-505.98C1146.32,-495.99 1081.24,-482.21 1024,-470 838.56,-430.45 618.17,-383.01 521.54,-362.18"/>
<polygon fill="midnightblue" stroke="midnightblue" points="522,-358.7 511.48,-360.01 520.52,-365.54 522,-358.7"/>
</g>
<!-- Node37 -->
<g id="node37" class="node">
<title>Node37</title>
<g id="a_node37"><a xlink:href="../../dd/d5c/a00752.html" target="_top" xlink:title=" ">
<polygon fill="none" stroke="black" points="792.5,-250 629.5,-250 629.5,-231 792.5,-231 792.5,-250"/>
<text text-anchor="middle" x="711" y="-238" font-family="Helvetica,sans-Serif" font-size="10.00">discordcoreapi/SSLClients.hpp</text>
</a>
</g>
</g>
<!-- Node28&#45;&gt;Node37 -->
<g id="edge62" class="edge">
<title>Node28&#45;&gt;Node37</title>
<path fill="none" stroke="midnightblue" d="M1187.92,-513.01C1123.1,-502.27 1038,-475.11 1038,-406.5 1038,-406.5 1038,-406.5 1038,-349.5 1038,-297.31 885.94,-266.08 789.2,-251.49"/>
<polygon fill="midnightblue" stroke="midnightblue" points="789.56,-248 779.15,-250 788.53,-254.93 789.56,-248"/>
</g>
<!-- Node51 -->
<g id="node51" class="node">
<title>Node51</title>
<g id="a_node51"><a xlink:href="../../dd/db2/a00737.html" target="_top" xlink:title=" ">
<polygon fill="none" stroke="black" points="1255.5,-415 1100.5,-415 1100.5,-396 1255.5,-396 1255.5,-415"/>
<text text-anchor="middle" x="1178" y="-403" font-family="Helvetica,sans-Serif" font-size="10.00">discordcoreapi/ErlPacker.hpp</text>
</a>
</g>
</g>
<!-- Node28&#45;&gt;Node51 -->
<g id="edge59" class="edge">
<title>Node28&#45;&gt;Node51</title>
<path fill="none" stroke="midnightblue" d="M1249.61,-505.63C1234.46,-484.65 1206.35,-445.75 1190.23,-423.42"/>
<polygon fill="midnightblue" stroke="midnightblue" points="1193,-421.29 1184.31,-415.23 1187.33,-425.38 1193,-421.29"/>
</g>
<!-- Node29&#45;&gt;Node2 -->
<g id="edge33" class="edge">
<title>Node29&#45;&gt;Node2</title>
<path fill="none" stroke="midnightblue" d="M1407.85,-230.85C1407.15,-217.32 1403.81,-191.13 1389,-176 1369.71,-156.29 1342.61,-144.34 1316.47,-137.1"/>
<polygon fill="midnightblue" stroke="midnightblue" points="1317.07,-133.64 1306.51,-134.55 1315.33,-140.42 1317.07,-133.64"/>
</g>
<!-- Node29&#45;&gt;Node30 -->
<g id="edge31" class="edge">
<title>Node29&#45;&gt;Node30</title>
<path fill="none" stroke="midnightblue" d="M1389.36,-230.98C1370.7,-222.46 1341.75,-209.23 1320.26,-199.41"/>
<polygon fill="midnightblue" stroke="midnightblue" points="1321.53,-196.14 1310.98,-195.17 1318.62,-202.51 1321.53,-196.14"/>
</g>
<!-- Node31 -->
<g id="node31" class="node">
<title>Node31</title>
<g id="a_node31"><a xlink:title=" ">
<polygon fill="none" stroke="#bfbfbf" points="1567.5,-195 1436.5,-195 1436.5,-176 1567.5,-176 1567.5,-195"/>
<text text-anchor="middle" x="1502" y="-183" font-family="Helvetica,sans-Serif" font-size="10.00">libavformat/avformat.h</text>
</a>
</g>
</g>
<!-- Node29&#45;&gt;Node31 -->
<g id="edge34" class="edge">
<title>Node29&#45;&gt;Node31</title>
<path fill="none" stroke="midnightblue" d="M1423.1,-230.98C1437.82,-222.69 1460.42,-209.94 1477.67,-200.22"/>
<polygon fill="midnightblue" stroke="midnightblue" points="1479.63,-203.13 1486.62,-195.17 1476.19,-197.03 1479.63,-203.13"/>
</g>
<!-- Node32 -->
<g id="node32" class="node">
<title>Node32</title>
<g id="a_node32"><a xlink:title=" ">
<polygon fill="none" stroke="#bfbfbf" points="1744.5,-195 1585.5,-195 1585.5,-176 1744.5,-176 1744.5,-195"/>
<text text-anchor="middle" x="1665" y="-183" font-family="Helvetica,sans-Serif" font-size="10.00">libswresample/swresample.h</text>
</a>
</g>
</g>
<!-- Node29&#45;&gt;Node32 -->
<g id="edge35" class="edge">
<title>Node29&#45;&gt;Node32</title>
<path fill="none" stroke="midnightblue" d="M1449.29,-230.98C1493.93,-221.78 1565.16,-207.09 1613.45,-197.13"/>
<polygon fill="midnightblue" stroke="midnightblue" points="1614.3,-200.53 1623.38,-195.08 1612.88,-193.67 1614.3,-200.53"/>
</g>
<!-- Node30&#45;&gt;Node2 -->
<g id="edge32" class="edge">
<title>Node30&#45;&gt;Node2</title>
<path fill="none" stroke="midnightblue" d="M1283.44,-175.87C1276.01,-168.37 1264.93,-157.2 1255.14,-147.33"/>
<polygon fill="midnightblue" stroke="midnightblue" points="1257.52,-144.75 1247.99,-140.11 1252.55,-149.68 1257.52,-144.75"/>
</g>
<!-- Node33&#45;&gt;Node2 -->
<g id="edge37" class="edge">
<title>Node33&#45;&gt;Node2</title>
<path fill="none" stroke="midnightblue" d="M130.46,-450.99C68.3,-439.58 0,-413.04 0,-351.5 0,-351.5 0,-351.5 0,-239.5 0,-203.85 17.35,-192.39 49,-176 146.1,-125.71 898.02,-124.45 1151.15,-125.48"/>
<polygon fill="midnightblue" stroke="midnightblue" points="1151.37,-128.98 1161.38,-125.53 1151.4,-121.98 1151.37,-128.98"/>
</g>
<!-- Node34 -->
<g id="node34" class="node">
<title>Node34</title>
<g id="a_node34"><a xlink:href="../../db/d77/a00683.html" target="_top" xlink:title=" ">
<polygon fill="none" stroke="black" points="311,-415 149,-415 149,-396 311,-396 311,-415"/>
<text text-anchor="middle" x="230" y="-403" font-family="Helvetica,sans-Serif" font-size="10.00">discordcoreapi/CoRoutine.hpp</text>
</a>
</g>
</g>
<!-- Node33&#45;&gt;Node34 -->
<g id="edge38" class="edge">
<title>Node33&#45;&gt;Node34</title>
<path fill="none" stroke="midnightblue" d="M230,-450.75C230,-443.8 230,-433.85 230,-425.13"/>
<polygon fill="midnightblue" stroke="midnightblue" points="233.5,-425.09 230,-415.09 226.5,-425.09 233.5,-425.09"/>
</g>
<!-- Node34&#45;&gt;Node2 -->
<g id="edge39" class="edge">
<title>Node34&#45;&gt;Node2</title>
<path fill="none" stroke="midnightblue" d="M168.46,-395.98C112.3,-384.33 38,-357.41 38,-296.5 38,-296.5 38,-296.5 38,-239.5 38,-206.15 49.15,-192.75 78,-176 124.26,-149.15 894.02,-132.36 1151.13,-127.48"/>
<polygon fill="midnightblue" stroke="midnightblue" points="1151.23,-130.98 1161.16,-127.29 1151.1,-123.98 1151.23,-130.98"/>
</g>
<!-- Node34&#45;&gt;Node35 -->
<g id="edge40" class="edge">
<title>Node34&#45;&gt;Node35</title>
<path fill="none" stroke="midnightblue" d="M268.88,-395.98C310.74,-386.82 377.43,-372.21 422.88,-362.26"/>
<polygon fill="midnightblue" stroke="midnightblue" points="423.79,-365.64 432.81,-360.08 422.3,-358.8 423.79,-365.64"/>
</g>
<!-- Node35&#45;&gt;Node2 -->
<g id="edge41" class="edge">
<title>Node35&#45;&gt;Node2</title>
<path fill="none" stroke="midnightblue" d="M394.1,-340.99C257.89,-323.32 -0.4,-275.68 95,-176 131.4,-137.96 894.31,-128.61 1150.75,-126.54"/>
<polygon fill="midnightblue" stroke="midnightblue" points="1151.15,-130.04 1161.12,-126.46 1151.09,-123.04 1151.15,-130.04"/>
</g>
<!-- Node35&#45;&gt;Node36 -->
<g id="edge42" class="edge">
<title>Node35&#45;&gt;Node36</title>
<path fill="none" stroke="midnightblue" d="M510.4,-340.98C551.74,-331.82 617.6,-317.21 662.49,-307.26"/>
<polygon fill="midnightblue" stroke="midnightblue" points="663.29,-310.66 672.3,-305.08 661.78,-303.83 663.29,-310.66"/>
</g>
<!-- Node50 -->
<g id="node50" class="node">
<title>Node50</title>
<g id="a_node50"><a xlink:title=" ">
<polygon fill="none" stroke="#bfbfbf" points="503,-305 441,-305 441,-286 503,-286 503,-305"/>
<text text-anchor="middle" x="472" y="-293" font-family="Helvetica,sans-Serif" font-size="10.00">coroutine</text>
</a>
</g>
</g>
<!-- Node35&#45;&gt;Node50 -->
<g id="edge58" class="edge">
<title>Node35&#45;&gt;Node50</title>
<path fill="none" stroke="midnightblue" d="M472,-340.75C472,-333.8 472,-323.85 472,-315.13"/>
<polygon fill="midnightblue" stroke="midnightblue" points="475.5,-315.09 472,-305.09 468.5,-315.09 475.5,-315.09"/>
</g>
<!-- Node36&#45;&gt;Node37 -->
<g id="edge43" class="edge">
<title>Node36&#45;&gt;Node37</title>
<path fill="none" stroke="midnightblue" d="M711,-285.75C711,-278.8 711,-268.85 711,-260.13"/>
<polygon fill="midnightblue" stroke="midnightblue" points="714.5,-260.09 711,-250.09 707.5,-260.09 714.5,-260.09"/>
</g>
<!-- Node37&#45;&gt;Node2 -->
<g id="edge44" class="edge">
<title>Node37&#45;&gt;Node2</title>
<path fill="none" stroke="midnightblue" d="M792.55,-234.75C893.84,-228.14 1060.41,-214.71 1119,-195 1151.92,-183.92 1185.53,-162.32 1207.84,-146.23"/>
<polygon fill="midnightblue" stroke="midnightblue" points="1210.13,-148.89 1216.1,-140.14 1205.98,-143.25 1210.13,-148.89"/>
</g>
<!-- Node37&#45;&gt;Node30 -->
<g id="edge45" class="edge">
<title>Node37&#45;&gt;Node30</title>
<path fill="none" stroke="midnightblue" d="M792.7,-232.05C897.98,-222.44 1080.84,-205.76 1193.63,-195.47"/>
<polygon fill="midnightblue" stroke="midnightblue" points="1194.01,-198.95 1203.65,-194.56 1193.37,-191.98 1194.01,-198.95"/>
</g>
<!-- Node38 -->
<g id="node38" class="node">
<title>Node38</title>
<g id="a_node38"><a xlink:title=" ">
<polygon fill="none" stroke="#bfbfbf" points="1011.5,-195 932.5,-195 932.5,-176 1011.5,-176 1011.5,-195"/>
<text text-anchor="middle" x="972" y="-183" font-family="Helvetica,sans-Serif" font-size="10.00">openssl/err.h</text>
</a>
</g>
</g>
<!-- Node37&#45;&gt;Node38 -->
<g id="edge46" class="edge">
<title>Node37&#45;&gt;Node38</title>
<path fill="none" stroke="midnightblue" d="M752.93,-230.98C799.08,-221.61 873.19,-206.56 922.24,-196.6"/>
<polygon fill="midnightblue" stroke="midnightblue" points="923.21,-199.98 932.31,-194.56 921.81,-193.12 923.21,-199.98"/>
</g>
<!-- Node39 -->
<g id="node39" class="node">
<title>Node39</title>
<g id="a_node39"><a xlink:title=" ">
<polygon fill="none" stroke="#bfbfbf" points="1110,-195 1030,-195 1030,-176 1110,-176 1110,-195"/>
<text text-anchor="middle" x="1070" y="-183" font-family="Helvetica,sans-Serif" font-size="10.00">openssl/ssl.h</text>
</a>
</g>
</g>
<!-- Node37&#45;&gt;Node39 -->
<g id="edge47" class="edge">
<title>Node37&#45;&gt;Node39</title>
<path fill="none" stroke="midnightblue" d="M773.51,-230.97C835.98,-222.34 934.73,-208.39 1020,-195 1020.1,-194.98 1020.2,-194.97 1020.3,-194.95"/>
<polygon fill="midnightblue" stroke="midnightblue" points="1020.58,-198.45 1029.9,-193.41 1019.47,-191.54 1020.58,-198.45"/>
</g>
<!-- Node40 -->
<g id="node40" class="node">
<title>Node40</title>
<g id="a_node40"><a xlink:title=" ">
<polygon fill="none" stroke="#bfbfbf" points="151.5,-195 104.5,-195 104.5,-176 151.5,-176 151.5,-195"/>
<text text-anchor="middle" x="128" y="-183" font-family="Helvetica,sans-Serif" font-size="10.00">fcntl.h</text>
</a>
</g>
</g>
<!-- Node37&#45;&gt;Node40 -->
<g id="edge48" class="edge">
<title>Node37&#45;&gt;Node40</title>
<path fill="none" stroke="midnightblue" d="M629.21,-237.46C523.16,-233.8 332.49,-223.74 161.59,-194.99"/>
<polygon fill="midnightblue" stroke="midnightblue" points="162.11,-191.52 151.66,-193.29 160.93,-198.42 162.11,-191.52"/>
</g>
<!-- Node41 -->
<g id="node41" class="node">
<title>Node41</title>
<g id="a_node41"><a xlink:title=" ">
<polygon fill="none" stroke="#bfbfbf" points="222.5,-195 169.5,-195 169.5,-176 222.5,-176 222.5,-195"/>
<text text-anchor="middle" x="196" y="-183" font-family="Helvetica,sans-Serif" font-size="10.00">netdb.h</text>
</a>
</g>
</g>
<!-- Node37&#45;&gt;Node41 -->
<g id="edge49" class="edge">
<title>Node37&#45;&gt;Node41</title>
<path fill="none" stroke="midnightblue" d="M629.2,-235.37C535.63,-229.87 377.76,-218.21 232.64,-194.86"/>
<polygon fill="midnightblue" stroke="midnightblue" points="233.09,-191.38 222.65,-193.23 231.96,-198.29 233.09,-191.38"/>
</g>
<!-- Node42 -->
<g id="node42" class="node">
<title>Node42</title>
<g id="a_node42"><a xlink:title=" ">
<polygon fill="none" stroke="#bfbfbf" points="313,-195 241,-195 241,-176 313,-176 313,-195"/>
<text text-anchor="middle" x="277" y="-183" font-family="Helvetica,sans-Serif" font-size="10.00">netinet/in.h</text>
</a>
</g>
</g>
<!-- Node37&#45;&gt;Node42 -->
<g id="edge50" class="edge">
<title>Node37&#45;&gt;Node42</title>
<path fill="none" stroke="midnightblue" d="M629.19,-231.89C552.62,-224.36 434.83,-211.77 323.38,-195.11"/>
<polygon fill="midnightblue" stroke="midnightblue" points="323.72,-191.62 313.31,-193.59 322.68,-198.55 323.72,-191.62"/>
</g>
<!-- Node43 -->
<g id="node43" class="node">
<title>Node43</title>
<g id="a_node43"><a xlink:title=" ">
<polygon fill="none" stroke="#bfbfbf" points="409,-195 331,-195 331,-176 409,-176 409,-195"/>
<text text-anchor="middle" x="370" y="-183" font-family="Helvetica,sans-Serif" font-size="10.00">netinet/tcp.h</text>
</a>
</g>
</g>
<!-- Node37&#45;&gt;Node43 -->
<g id="edge51" class="edge">
<title>Node37&#45;&gt;Node43</title>
<path fill="none" stroke="midnightblue" d="M652.01,-230.97C594.99,-222.64 505.89,-209.35 419.05,-195.14"/>
<polygon fill="midnightblue" stroke="midnightblue" points="419.45,-191.66 409.02,-193.49 418.32,-198.57 419.45,-191.66"/>
</g>
<!-- Node44 -->
<g id="node44" class="node">
<title>Node44</title>
<g id="a_node44"><a xlink:title=" ">
<polygon fill="none" stroke="#bfbfbf" points="480.5,-195 427.5,-195 427.5,-176 480.5,-176 480.5,-195"/>
<text text-anchor="middle" x="454" y="-183" font-family="Helvetica,sans-Serif" font-size="10.00">stdint.h</text>
</a>
</g>
</g>
<!-- Node37&#45;&gt;Node44 -->
<g id="edge52" class="edge">
<title>Node37&#45;&gt;Node44</title>
<path fill="none" stroke="midnightblue" d="M665.82,-231C623.07,-222.83 556.88,-209.86 490.89,-195.35"/>
<polygon fill="midnightblue" stroke="midnightblue" points="491.25,-191.85 480.73,-193.11 489.74,-198.69 491.25,-191.85"/>
</g>
<!-- Node45 -->
<g id="node45" class="node">
<title>Node45</title>
<g id="a_node45"><a xlink:title=" ">
<polygon fill="none" stroke="#bfbfbf" points="567.5,-195 498.5,-195 498.5,-176 567.5,-176 567.5,-195"/>
<text text-anchor="middle" x="533" y="-183" font-family="Helvetica,sans-Serif" font-size="10.00">sys/epoll.h</text>
</a>
</g>
</g>
<!-- Node37&#45;&gt;Node45 -->
<g id="edge53" class="edge">
<title>Node37&#45;&gt;Node45</title>
<path fill="none" stroke="midnightblue" d="M682.4,-230.98C652.39,-222.05 605.02,-207.94 571.68,-198.02"/>
<polygon fill="midnightblue" stroke="midnightblue" points="572.41,-194.58 561.82,-195.08 570.41,-201.29 572.41,-194.58"/>
</g>
<!-- Node46 -->
<g id="node46" class="node">
<title>Node46</title>
<g id="a_node46"><a xlink:title=" ">
<polygon fill="none" stroke="#bfbfbf" points="654.5,-195 585.5,-195 585.5,-176 654.5,-176 654.5,-195"/>
<text text-anchor="middle" x="620" y="-183" font-family="Helvetica,sans-Serif" font-size="10.00">arpa/inet.h</text>
</a>
</g>
</g>
<!-- Node37&#45;&gt;Node46 -->
<g id="edge54" class="edge">
<title>Node37&#45;&gt;Node46</title>
<path fill="none" stroke="midnightblue" d="M696.38,-230.98C682.14,-222.69 660.25,-209.94 643.55,-200.22"/>
<polygon fill="midnightblue" stroke="midnightblue" points="645.29,-197.18 634.89,-195.17 641.77,-203.23 645.29,-197.18"/>
</g>
<!-- Node47 -->
<g id="node47" class="node">
<title>Node47</title>
<g id="a_node47"><a xlink:title=" ">
<polygon fill="none" stroke="#bfbfbf" points="749.5,-195 672.5,-195 672.5,-176 749.5,-176 749.5,-195"/>
<text text-anchor="middle" x="711" y="-183" font-family="Helvetica,sans-Serif" font-size="10.00">sys/socket.h</text>
</a>
</g>
</g>
<!-- Node37&#45;&gt;Node47 -->
<g id="edge55" class="edge">
<title>Node37&#45;&gt;Node47</title>
<path fill="none" stroke="midnightblue" d="M711,-230.75C711,-223.8 711,-213.85 711,-205.13"/>
<polygon fill="midnightblue" stroke="midnightblue" points="714.5,-205.09 711,-195.09 707.5,-205.09 714.5,-205.09"/>
</g>
<!-- Node48 -->
<g id="node48" class="node">
<title>Node48</title>
<g id="a_node48"><a xlink:title=" ">
<polygon fill="none" stroke="#bfbfbf" points="840,-195 768,-195 768,-176 840,-176 840,-195"/>
<text text-anchor="middle" x="804" y="-183" font-family="Helvetica,sans-Serif" font-size="10.00">sys/types.h</text>
</a>
</g>
</g>
<!-- Node37&#45;&gt;Node48 -->
<g id="edge56" class="edge">
<title>Node37&#45;&gt;Node48</title>
<path fill="none" stroke="midnightblue" d="M725.94,-230.98C740.5,-222.69 762.87,-209.94 779.93,-200.22"/>
<polygon fill="midnightblue" stroke="midnightblue" points="781.83,-203.16 788.79,-195.17 778.36,-197.08 781.83,-203.16"/>
</g>
<!-- Node49 -->
<g id="node49" class="node">
<title>Node49</title>
<g id="a_node49"><a xlink:title=" ">
<polygon fill="none" stroke="#bfbfbf" points="914,-195 858,-195 858,-176 914,-176 914,-195"/>
<text text-anchor="middle" x="886" y="-183" font-family="Helvetica,sans-Serif" font-size="10.00">unistd.h</text>
</a>
</g>
</g>
<!-- Node37&#45;&gt;Node49 -->
<g id="edge57" class="edge">
<title>Node37&#45;&gt;Node49</title>
<path fill="none" stroke="midnightblue" d="M739.12,-230.98C768.71,-222.02 815.47,-207.86 848.26,-197.93"/>
<polygon fill="midnightblue" stroke="midnightblue" points="849.4,-201.24 857.95,-194.99 847.37,-194.54 849.4,-201.24"/>
</g>
<!-- Node51&#45;&gt;Node2 -->
<g id="edge60" class="edge">
<title>Node51&#45;&gt;Node2</title>
<path fill="none" stroke="midnightblue" d="M1177.73,-395.82C1177.18,-377.48 1176,-333.44 1176,-296.5 1176,-296.5 1176,-296.5 1176,-239.5 1176,-210.04 1181.49,-202.18 1195,-176 1200.08,-166.17 1207.18,-156.35 1213.93,-148.05"/>
<polygon fill="midnightblue" stroke="midnightblue" points="1216.69,-150.21 1220.48,-140.31 1211.35,-145.68 1216.69,-150.21"/>
</g>
</g>
</svg>
