<?xml version="1.0" encoding="UTF-8" standalone="no"?>
<!DOCTYPE svg PUBLIC "-//W3C//DTD SVG 1.1//EN"
 "http://www.w3.org/Graphics/SVG/1.1/DTD/svg11.dtd">
<!-- Generated by graphviz version 2.43.0 (0)
 -->
<!-- Title: VoiceConnection.hpp Pages: 1 -->
<svg width="2404pt" height="610pt"
 viewBox="0.00 0.00 2403.50 610.00" xmlns="http://www.w3.org/2000/svg" xmlns:xlink="http://www.w3.org/1999/xlink">
<g id="graph0" class="graph" transform="scale(1 1) rotate(0) translate(4 606)">
<title>VoiceConnection.hpp</title>
<!-- Node1 -->
<g id="node1" class="node">
<title>Node1</title>
<g id="a_node1"><a xlink:title=" ">
<polygon fill="#bfbfbf" stroke="black" points="2050,-582.5 2050,-601.5 2169,-601.5 2169,-582.5 2050,-582.5"/>
<text text-anchor="middle" x="2109.5" y="-589.5" font-family="Helvetica,sans-Serif" font-size="10.00">VoiceConnection.hpp</text>
</a>
</g>
</g>
<!-- Node2 -->
<g id="node2" class="node">
<title>Node2</title>
<g id="a_node2"><a xlink:href="../../d4/deb/a00710.html" target="_top" xlink:title=" ">
<polygon fill="none" stroke="black" points="1007,-112.5 1007,-142.5 1152,-142.5 1152,-112.5 1007,-112.5"/>
<text text-anchor="start" x="1015" y="-130.5" font-family="Helvetica,sans-Serif" font-size="10.00">discordcoreapi/Foundation</text>
<text text-anchor="middle" x="1079.5" y="-119.5" font-family="Helvetica,sans-Serif" font-size="10.00">Entities.hpp</text>
</a>
</g>
</g>
<!-- Node1&#45;&gt;Node2 -->
<g id="edge1" class="edge">
<title>Node1&#45;&gt;Node2</title>
<path fill="none" stroke="midnightblue" d="M2049.6,-589.89C1749.79,-583.97 426.5,-553.12 426.5,-470 426.5,-470 426.5,-470 426.5,-244 426.5,-214.02 421.38,-198.08 444.5,-179 486.15,-144.62 833.95,-133.31 996.44,-129.87"/>
<polygon fill="midnightblue" stroke="midnightblue" points="996.95,-133.36 1006.87,-129.66 996.8,-126.36 996.95,-133.36"/>
</g>
<!-- Node27 -->
<g id="node27" class="node">
<title>Node27</title>
<g id="a_node27"><a xlink:href="../../db/d77/a00683.html" target="_top" xlink:title=" ">
<polygon fill="none" stroke="black" points="2137.5,-521 2137.5,-540 2315.5,-540 2315.5,-521 2137.5,-521"/>
<text text-anchor="middle" x="2226.5" y="-528" font-family="Helvetica,sans-Serif" font-size="10.00">discordcoreapi/AudioEncoder.hpp</text>
</a>
</g>
</g>
<!-- Node1&#45;&gt;Node27 -->
<g id="edge26" class="edge">
<title>Node1&#45;&gt;Node27</title>
<path fill="none" stroke="midnightblue" d="M2126.26,-582.48C2145.72,-572.58 2178.05,-556.14 2200.71,-544.62"/>
<polygon fill="midnightblue" stroke="midnightblue" points="2202.44,-547.66 2209.77,-540.01 2199.27,-541.42 2202.44,-547.66"/>
</g>
<!-- Node29 -->
<g id="node29" class="node">
<title>Node29</title>
<g id="a_node29"><a xlink:href="../../d5/d5b/a00695.html" target="_top" xlink:title=" ">
<polygon fill="none" stroke="black" points="1802.5,-403.5 1802.5,-422.5 1964.5,-422.5 1964.5,-403.5 1802.5,-403.5"/>
<text text-anchor="middle" x="1883.5" y="-410.5" font-family="Helvetica,sans-Serif" font-size="10.00">discordcoreapi/CoRoutine.hpp</text>
</a>
</g>
</g>
<!-- Node1&#45;&gt;Node29 -->
<g id="edge29" class="edge">
<title>Node1&#45;&gt;Node29</title>
<path fill="none" stroke="midnightblue" d="M2098.6,-582.46C2062.73,-554.37 1948.08,-464.58 1902.47,-428.86"/>
<polygon fill="midnightblue" stroke="midnightblue" points="1904.59,-426.07 1894.56,-422.66 1900.27,-431.58 1904.59,-426.07"/>
</g>
<!-- Node47 -->
<g id="node47" class="node">
<title>Node47</title>
<g id="a_node47"><a xlink:href="../../d9/dd4/a00776.html" target="_top" xlink:title=" ">
<polygon fill="none" stroke="black" points="1260.5,-515.5 1260.5,-545.5 1404.5,-545.5 1404.5,-515.5 1260.5,-515.5"/>
<text text-anchor="start" x="1268.5" y="-533.5" font-family="Helvetica,sans-Serif" font-size="10.00">discordcoreapi/WebSocket</text>
<text text-anchor="middle" x="1332.5" y="-522.5" font-family="Helvetica,sans-Serif" font-size="10.00">Entities.hpp</text>
</a>
</g>
</g>
<!-- Node1&#45;&gt;Node47 -->
<g id="edge51" class="edge">
<title>Node1&#45;&gt;Node47</title>
<path fill="none" stroke="midnightblue" d="M2049.82,-586.43C1912.12,-575.89 1571.98,-549.84 1414.7,-537.79"/>
<polygon fill="midnightblue" stroke="midnightblue" points="1414.85,-534.3 1404.61,-537.02 1414.31,-541.28 1414.85,-534.3"/>
</g>
<!-- Node53 -->
<g id="node53" class="node">
<title>Node53</title>
<g id="a_node53"><a xlink:title=" ">
<polygon fill="none" stroke="#bfbfbf" points="2333.5,-521 2333.5,-540 2395.5,-540 2395.5,-521 2333.5,-521"/>
<text text-anchor="middle" x="2364.5" y="-528" font-family="Helvetica,sans-Serif" font-size="10.00">sodium.h</text>
</a>
</g>
</g>
<!-- Node1&#45;&gt;Node53 -->
<g id="edge66" class="edge">
<title>Node1&#45;&gt;Node53</title>
<path fill="none" stroke="midnightblue" d="M2160.38,-582.45C2204.26,-574.58 2269.11,-561.75 2324.5,-546 2327.3,-545.2 2330.18,-544.31 2333.06,-543.37"/>
<polygon fill="midnightblue" stroke="midnightblue" points="2334.37,-546.62 2342.68,-540.04 2332.08,-540 2334.37,-546.62"/>
</g>
<!-- Node3 -->
<g id="node3" class="node">
<title>Node3</title>
<g id="a_node3"><a xlink:href="../../d5/dae/a00767.html" target="_top" xlink:title=" ">
<polygon fill="none" stroke="black" points="1004.5,-56.5 1004.5,-75.5 1154.5,-75.5 1154.5,-56.5 1004.5,-56.5"/>
<text text-anchor="middle" x="1079.5" y="-63.5" font-family="Helvetica,sans-Serif" font-size="10.00">discordcoreapi/Utilities.hpp</text>
</a>
</g>
</g>
<!-- Node2&#45;&gt;Node3 -->
<g id="edge2" class="edge">
<title>Node2&#45;&gt;Node3</title>
<path fill="none" stroke="midnightblue" d="M1079.5,-112.4C1079.5,-104.47 1079.5,-94.46 1079.5,-85.86"/>
<polygon fill="midnightblue" stroke="midnightblue" points="1083,-85.66 1079.5,-75.66 1076,-85.66 1083,-85.66"/>
</g>
<!-- Node4 -->
<g id="node4" class="node">
<title>Node4</title>
<g id="a_node4"><a xlink:title=" ">
<polygon fill="none" stroke="#bfbfbf" points="0,-0.5 0,-19.5 63,-19.5 63,-0.5 0,-0.5"/>
<text text-anchor="middle" x="31.5" y="-7.5" font-family="Helvetica,sans-Serif" font-size="10.00">pthread.h</text>
</a>
</g>
</g>
<!-- Node3&#45;&gt;Node4 -->
<g id="edge3" class="edge">
<title>Node3&#45;&gt;Node4</title>
<path fill="none" stroke="midnightblue" d="M1004.15,-63.31C805.75,-58.59 271.21,-44.11 73.21,-19.8"/>
<polygon fill="midnightblue" stroke="midnightblue" points="73.55,-16.31 63.19,-18.52 72.67,-23.26 73.55,-16.31"/>
</g>
<!-- Node5 -->
<g id="node5" class="node">
<title>Node5</title>
<g id="a_node5"><a xlink:title=" ">
<polygon fill="none" stroke="#bfbfbf" points="81.5,-0.5 81.5,-19.5 149.5,-19.5 149.5,-0.5 81.5,-0.5"/>
<text text-anchor="middle" x="115.5" y="-7.5" font-family="Helvetica,sans-Serif" font-size="10.00">sys/time.h</text>
</a>
</g>
</g>
<!-- Node3&#45;&gt;Node5 -->
<g id="edge4" class="edge">
<title>Node3&#45;&gt;Node5</title>
<path fill="none" stroke="midnightblue" d="M1004.24,-65.32C848.34,-65.13 478.76,-60.16 160.05,-19.98"/>
<polygon fill="midnightblue" stroke="midnightblue" points="160.05,-16.45 149.69,-18.66 159.16,-23.4 160.05,-16.45"/>
</g>
<!-- Node6 -->
<g id="node6" class="node">
<title>Node6</title>
<g id="a_node6"><a xlink:title=" ">
<polygon fill="none" stroke="#bfbfbf" points="167.5,-0.5 167.5,-19.5 215.5,-19.5 215.5,-0.5 167.5,-0.5"/>
<text text-anchor="middle" x="191.5" y="-7.5" font-family="Helvetica,sans-Serif" font-size="10.00">time.h</text>
</a>
</g>
</g>
<!-- Node3&#45;&gt;Node6 -->
<g id="edge5" class="edge">
<title>Node3&#45;&gt;Node6</title>
<path fill="none" stroke="midnightblue" d="M1004.22,-63.1C828.05,-58.33 391.93,-44.55 225.61,-19.76"/>
<polygon fill="midnightblue" stroke="midnightblue" points="225.94,-16.27 215.52,-18.19 224.86,-23.19 225.94,-16.27"/>
</g>
<!-- Node7 -->
<g id="node7" class="node">
<title>Node7</title>
<g id="a_node7"><a xlink:title=" ">
<polygon fill="none" stroke="#bfbfbf" points="233.5,-0.5 233.5,-19.5 277.5,-19.5 277.5,-0.5 233.5,-0.5"/>
<text text-anchor="middle" x="255.5" y="-7.5" font-family="Helvetica,sans-Serif" font-size="10.00">ctime</text>
</a>
</g>
</g>
<!-- Node3&#45;&gt;Node7 -->
<g id="edge6" class="edge">
<title>Node3&#45;&gt;Node7</title>
<path fill="none" stroke="midnightblue" d="M1004.33,-62.9C837.88,-57.91 441.44,-44.04 287.9,-19.79"/>
<polygon fill="midnightblue" stroke="midnightblue" points="288.15,-16.28 277.71,-18.1 287,-23.19 288.15,-16.28"/>
</g>
<!-- Node8 -->
<g id="node8" class="node">
<title>Node8</title>
<g id="a_node8"><a xlink:title=" ">
<polygon fill="none" stroke="#bfbfbf" points="296,-0.5 296,-19.5 403,-19.5 403,-0.5 296,-0.5"/>
<text text-anchor="middle" x="349.5" y="-7.5" font-family="Helvetica,sans-Serif" font-size="10.00">condition_variable</text>
</a>
</g>
</g>
<!-- Node3&#45;&gt;Node8 -->
<g id="edge7" class="edge">
<title>Node3&#45;&gt;Node8</title>
<path fill="none" stroke="midnightblue" d="M1004.32,-61.76C882.52,-56.1 634.28,-42.89 413.25,-19.99"/>
<polygon fill="midnightblue" stroke="midnightblue" points="413.39,-16.49 403.08,-18.93 412.66,-23.45 413.39,-16.49"/>
</g>
<!-- Node9 -->
<g id="node9" class="node">
<title>Node9</title>
<g id="a_node9"><a xlink:title=" ">
<polygon fill="none" stroke="#bfbfbf" points="421.5,-0.5 421.5,-19.5 531.5,-19.5 531.5,-0.5 421.5,-0.5"/>
<text text-anchor="middle" x="476.5" y="-7.5" font-family="Helvetica,sans-Serif" font-size="10.00">nlohmann/json.hpp</text>
</a>
</g>
</g>
<!-- Node3&#45;&gt;Node9 -->
<g id="edge8" class="edge">
<title>Node3&#45;&gt;Node9</title>
<path fill="none" stroke="midnightblue" d="M1004.38,-60.07C902.09,-53.06 713.05,-39.04 541.6,-20.06"/>
<polygon fill="midnightblue" stroke="midnightblue" points="541.96,-16.58 531.63,-18.95 541.18,-23.54 541.96,-16.58"/>
</g>
<!-- Node10 -->
<g id="node10" class="node">
<title>Node10</title>
<g id="a_node10"><a xlink:title=" ">
<polygon fill="none" stroke="#bfbfbf" points="550,-0.5 550,-19.5 643,-19.5 643,-0.5 550,-0.5"/>
<text text-anchor="middle" x="596.5" y="-7.5" font-family="Helvetica,sans-Serif" font-size="10.00">source_location</text>
</a>
</g>
</g>
<!-- Node3&#45;&gt;Node10 -->
<g id="edge9" class="edge">
<title>Node3&#45;&gt;Node10</title>
<path fill="none" stroke="midnightblue" d="M1004.35,-58.42C920.93,-50.81 782.07,-37.27 653.32,-20.18"/>
<polygon fill="midnightblue" stroke="midnightblue" points="653.66,-16.7 643.28,-18.84 652.73,-23.64 653.66,-16.7"/>
</g>
<!-- Node11 -->
<g id="node11" class="node">
<title>Node11</title>
<g id="a_node11"><a xlink:title=" ">
<polygon fill="none" stroke="#bfbfbf" points="661,-0.5 661,-19.5 754,-19.5 754,-0.5 661,-0.5"/>
<text text-anchor="middle" x="707.5" y="-7.5" font-family="Helvetica,sans-Serif" font-size="10.00">unordered_map</text>
</a>
</g>
</g>
<!-- Node3&#45;&gt;Node11 -->
<g id="edge10" class="edge">
<title>Node3&#45;&gt;Node11</title>
<path fill="none" stroke="midnightblue" d="M1017.39,-56.49C955.82,-47.98 858.51,-34.32 764.24,-20.09"/>
<polygon fill="midnightblue" stroke="midnightblue" points="764.65,-16.61 754.24,-18.58 763.6,-23.53 764.65,-16.61"/>
</g>
<!-- Node12 -->
<g id="node12" class="node">
<title>Node12</title>
<g id="a_node12"><a xlink:title=" ">
<polygon fill="none" stroke="#bfbfbf" points="772.5,-0.5 772.5,-19.5 858.5,-19.5 858.5,-0.5 772.5,-0.5"/>
<text text-anchor="middle" x="815.5" y="-7.5" font-family="Helvetica,sans-Serif" font-size="10.00">shared_mutex</text>
</a>
</g>
</g>
<!-- Node3&#45;&gt;Node12 -->
<g id="edge11" class="edge">
<title>Node3&#45;&gt;Node12</title>
<path fill="none" stroke="midnightblue" d="M1037.67,-56.44C991.42,-46.98 916.89,-31.74 867.06,-21.55"/>
<polygon fill="midnightblue" stroke="midnightblue" points="867.63,-18.09 857.14,-19.52 866.23,-24.95 867.63,-18.09"/>
</g>
<!-- Node13 -->
<g id="node13" class="node">
<title>Node13</title>
<g id="a_node13"><a xlink:title=" ">
<polygon fill="none" stroke="#bfbfbf" points="877,-0.5 877,-19.5 942,-19.5 942,-0.5 877,-0.5"/>
<text text-anchor="middle" x="909.5" y="-7.5" font-family="Helvetica,sans-Serif" font-size="10.00">functional</text>
</a>
</g>
</g>
<!-- Node3&#45;&gt;Node13 -->
<g id="edge12" class="edge">
<title>Node3&#45;&gt;Node13</title>
<path fill="none" stroke="midnightblue" d="M1052.56,-56.44C1023.84,-47.32 978.17,-32.81 946.18,-22.65"/>
<polygon fill="midnightblue" stroke="midnightblue" points="946.9,-19.21 936.31,-19.52 944.78,-25.88 946.9,-19.21"/>
</g>
<!-- Node14 -->
<g id="node14" class="node">
<title>Node14</title>
<g id="a_node14"><a xlink:title=" ">
<polygon fill="none" stroke="#bfbfbf" points="960,-0.5 960,-19.5 1031,-19.5 1031,-0.5 960,-0.5"/>
<text text-anchor="middle" x="995.5" y="-7.5" font-family="Helvetica,sans-Serif" font-size="10.00">semaphore</text>
</a>
</g>
</g>
<!-- Node3&#45;&gt;Node14 -->
<g id="edge13" class="edge">
<title>Node3&#45;&gt;Node14</title>
<path fill="none" stroke="midnightblue" d="M1066,-56.32C1052.9,-47.9 1032.79,-34.97 1017.39,-25.07"/>
<polygon fill="midnightblue" stroke="midnightblue" points="1019.27,-22.12 1008.96,-19.65 1015.48,-28.01 1019.27,-22.12"/>
</g>
<!-- Node15 -->
<g id="node15" class="node">
<title>Node15</title>
<g id="a_node15"><a xlink:title=" ">
<polygon fill="none" stroke="#bfbfbf" points="1049.5,-0.5 1049.5,-19.5 1109.5,-19.5 1109.5,-0.5 1049.5,-0.5"/>
<text text-anchor="middle" x="1079.5" y="-7.5" font-family="Helvetica,sans-Serif" font-size="10.00">concepts</text>
</a>
</g>
</g>
<!-- Node3&#45;&gt;Node15 -->
<g id="edge14" class="edge">
<title>Node3&#45;&gt;Node15</title>
<path fill="none" stroke="midnightblue" d="M1079.5,-56.08C1079.5,-49.01 1079.5,-38.86 1079.5,-29.99"/>
<polygon fill="midnightblue" stroke="midnightblue" points="1083,-29.75 1079.5,-19.75 1076,-29.75 1083,-29.75"/>
</g>
<!-- Node16 -->
<g id="node16" class="node">
<title>Node16</title>
<g id="a_node16"><a xlink:title=" ">
<polygon fill="none" stroke="#bfbfbf" points="1127.5,-0.5 1127.5,-19.5 1187.5,-19.5 1187.5,-0.5 1127.5,-0.5"/>
<text text-anchor="middle" x="1157.5" y="-7.5" font-family="Helvetica,sans-Serif" font-size="10.00">iostream</text>
</a>
</g>
</g>
<!-- Node3&#45;&gt;Node16 -->
<g id="edge15" class="edge">
<title>Node3&#45;&gt;Node16</title>
<path fill="none" stroke="midnightblue" d="M1092.03,-56.32C1104.09,-47.98 1122.53,-35.21 1136.77,-25.35"/>
<polygon fill="midnightblue" stroke="midnightblue" points="1138.77,-28.22 1145,-19.65 1134.78,-22.47 1138.77,-28.22"/>
</g>
<!-- Node17 -->
<g id="node17" class="node">
<title>Node17</title>
<g id="a_node17"><a xlink:title=" ">
<polygon fill="none" stroke="#bfbfbf" points="1206,-0.5 1206,-19.5 1261,-19.5 1261,-0.5 1206,-0.5"/>
<text text-anchor="middle" x="1233.5" y="-7.5" font-family="Helvetica,sans-Serif" font-size="10.00">fstream</text>
</a>
</g>
</g>
<!-- Node3&#45;&gt;Node17 -->
<g id="edge16" class="edge">
<title>Node3&#45;&gt;Node17</title>
<path fill="none" stroke="midnightblue" d="M1103.9,-56.44C1129.7,-47.4 1170.58,-33.06 1199.52,-22.92"/>
<polygon fill="midnightblue" stroke="midnightblue" points="1200.93,-26.13 1209.21,-19.52 1198.62,-19.52 1200.93,-26.13"/>
</g>
<!-- Node18 -->
<g id="node18" class="node">
<title>Node18</title>
<g id="a_node18"><a xlink:title=" ">
<polygon fill="none" stroke="#bfbfbf" points="1279.5,-0.5 1279.5,-19.5 1323.5,-19.5 1323.5,-0.5 1279.5,-0.5"/>
<text text-anchor="middle" x="1301.5" y="-7.5" font-family="Helvetica,sans-Serif" font-size="10.00">bitset</text>
</a>
</g>
</g>
<!-- Node3&#45;&gt;Node18 -->
<g id="edge17" class="edge">
<title>Node3&#45;&gt;Node18</title>
<path fill="none" stroke="midnightblue" d="M1117.47,-56.5C1155.9,-47.77 1216.99,-33.6 1269.5,-20 1269.6,-19.97 1269.7,-19.95 1269.8,-19.92"/>
<polygon fill="midnightblue" stroke="midnightblue" points="1270.75,-23.29 1279.5,-17.32 1268.93,-16.53 1270.75,-23.29"/>
</g>
<!-- Node19 -->
<g id="node19" class="node">
<title>Node19</title>
<g id="a_node19"><a xlink:title=" ">
<polygon fill="none" stroke="#bfbfbf" points="1341.5,-0.5 1341.5,-19.5 1399.5,-19.5 1399.5,-0.5 1341.5,-0.5"/>
<text text-anchor="middle" x="1370.5" y="-7.5" font-family="Helvetica,sans-Serif" font-size="10.00">memory</text>
</a>
</g>
</g>
<!-- Node3&#45;&gt;Node19 -->
<g id="edge18" class="edge">
<title>Node3&#45;&gt;Node19</title>
<path fill="none" stroke="midnightblue" d="M1132.48,-56.47C1181.58,-48.37 1256.88,-35.43 1331.45,-20.12"/>
<polygon fill="midnightblue" stroke="midnightblue" points="1332.41,-23.5 1341.49,-18.05 1330.99,-16.65 1332.41,-23.5"/>
</g>
<!-- Node20 -->
<g id="node20" class="node">
<title>Node20</title>
<g id="a_node20"><a xlink:title=" ">
<polygon fill="none" stroke="#bfbfbf" points="1417.5,-0.5 1417.5,-19.5 1471.5,-19.5 1471.5,-0.5 1417.5,-0.5"/>
<text text-anchor="middle" x="1444.5" y="-7.5" font-family="Helvetica,sans-Serif" font-size="10.00">random</text>
</a>
</g>
</g>
<!-- Node3&#45;&gt;Node20 -->
<g id="edge19" class="edge">
<title>Node3&#45;&gt;Node20</title>
<path fill="none" stroke="midnightblue" d="M1154.69,-57.08C1219.27,-49.74 1315.01,-37.56 1407.36,-20.04"/>
<polygon fill="midnightblue" stroke="midnightblue" points="1408.28,-23.42 1417.44,-18.1 1406.96,-16.55 1408.28,-23.42"/>
</g>
<!-- Node21 -->
<g id="node21" class="node">
<title>Node21</title>
<g id="a_node21"><a xlink:title=" ">
<polygon fill="none" stroke="#bfbfbf" points="1489.5,-0.5 1489.5,-19.5 1533.5,-19.5 1533.5,-0.5 1489.5,-0.5"/>
<text text-anchor="middle" x="1511.5" y="-7.5" font-family="Helvetica,sans-Serif" font-size="10.00">string</text>
</a>
</g>
</g>
<!-- Node3&#45;&gt;Node21 -->
<g id="edge20" class="edge">
<title>Node3&#45;&gt;Node21</title>
<path fill="none" stroke="midnightblue" d="M1154.73,-60.41C1233.55,-54.73 1360.98,-43.09 1479.3,-19.93"/>
<polygon fill="midnightblue" stroke="midnightblue" points="1480.14,-23.33 1489.26,-17.95 1478.77,-16.47 1480.14,-23.33"/>
</g>
<!-- Node22 -->
<g id="node22" class="node">
<title>Node22</title>
<g id="a_node22"><a xlink:title=" ">
<polygon fill="none" stroke="#bfbfbf" points="1552,-0.5 1552,-19.5 1599,-19.5 1599,-0.5 1552,-0.5"/>
<text text-anchor="middle" x="1575.5" y="-7.5" font-family="Helvetica,sans-Serif" font-size="10.00">vector</text>
</a>
</g>
</g>
<!-- Node3&#45;&gt;Node22 -->
<g id="edge21" class="edge">
<title>Node3&#45;&gt;Node22</title>
<path fill="none" stroke="midnightblue" d="M1154.62,-61.61C1244.5,-56.69 1399.58,-45.41 1541.62,-19.84"/>
<polygon fill="midnightblue" stroke="midnightblue" points="1542.61,-23.22 1551.82,-17.97 1541.35,-16.33 1542.61,-23.22"/>
</g>
<!-- Node23 -->
<g id="node23" class="node">
<title>Node23</title>
<g id="a_node23"><a xlink:title=" ">
<polygon fill="none" stroke="#bfbfbf" points="1617.5,-0.5 1617.5,-19.5 1665.5,-19.5 1665.5,-0.5 1617.5,-0.5"/>
<text text-anchor="middle" x="1641.5" y="-7.5" font-family="Helvetica,sans-Serif" font-size="10.00">thread</text>
</a>
</g>
</g>
<!-- Node3&#45;&gt;Node23 -->
<g id="edge22" class="edge">
<title>Node3&#45;&gt;Node23</title>
<path fill="none" stroke="midnightblue" d="M1154.78,-62.69C1257.69,-58.61 1447.74,-47.74 1607.5,-20 1607.6,-19.98 1607.7,-19.96 1607.8,-19.95"/>
<polygon fill="midnightblue" stroke="midnightblue" points="1608.4,-23.4 1617.47,-17.91 1606.96,-16.55 1608.4,-23.4"/>
</g>
<!-- Node24 -->
<g id="node24" class="node">
<title>Node24</title>
<g id="a_node24"><a xlink:title=" ">
<polygon fill="none" stroke="#bfbfbf" points="1683.5,-0.5 1683.5,-19.5 1731.5,-19.5 1731.5,-0.5 1683.5,-0.5"/>
<text text-anchor="middle" x="1707.5" y="-7.5" font-family="Helvetica,sans-Serif" font-size="10.00">mutex</text>
</a>
</g>
</g>
<!-- Node3&#45;&gt;Node24 -->
<g id="edge23" class="edge">
<title>Node3&#45;&gt;Node24</title>
<path fill="none" stroke="midnightblue" d="M1154.74,-63.9C1266.25,-61.25 1481.94,-52.24 1673.5,-19.84"/>
<polygon fill="midnightblue" stroke="midnightblue" points="1674.21,-23.27 1683.47,-18.12 1673.02,-16.37 1674.21,-23.27"/>
</g>
<!-- Node25 -->
<g id="node25" class="node">
<title>Node25</title>
<g id="a_node25"><a xlink:title=" ">
<polygon fill="none" stroke="#bfbfbf" points="1750,-0.5 1750,-19.5 1797,-19.5 1797,-0.5 1750,-0.5"/>
<text text-anchor="middle" x="1773.5" y="-7.5" font-family="Helvetica,sans-Serif" font-size="10.00">queue</text>
</a>
</g>
</g>
<!-- Node3&#45;&gt;Node25 -->
<g id="edge24" class="edge">
<title>Node3&#45;&gt;Node25</title>
<path fill="none" stroke="midnightblue" d="M1154.91,-64.71C1276.37,-63.18 1522.79,-55.67 1739.85,-19.74"/>
<polygon fill="midnightblue" stroke="midnightblue" points="1740.55,-23.17 1749.83,-18.06 1739.39,-16.26 1740.55,-23.17"/>
</g>
<!-- Node26 -->
<g id="node26" class="node">
<title>Node26</title>
<g id="a_node26"><a xlink:title=" ">
<polygon fill="none" stroke="#bfbfbf" points="1815.5,-0.5 1815.5,-19.5 1853.5,-19.5 1853.5,-0.5 1815.5,-0.5"/>
<text text-anchor="middle" x="1834.5" y="-7.5" font-family="Helvetica,sans-Serif" font-size="10.00">map</text>
</a>
</g>
</g>
<!-- Node3&#45;&gt;Node26 -->
<g id="edge25" class="edge">
<title>Node3&#45;&gt;Node26</title>
<path fill="none" stroke="midnightblue" d="M1154.57,-62.62C1314.09,-57.2 1682.3,-42.6 1805.5,-20 1805.6,-19.98 1805.7,-19.96 1805.8,-19.94"/>
<polygon fill="midnightblue" stroke="midnightblue" points="1806.41,-23.4 1815.32,-17.66 1804.78,-16.59 1806.41,-23.4"/>
</g>
<!-- Node27&#45;&gt;Node2 -->
<g id="edge27" class="edge">
<title>Node27&#45;&gt;Node2</title>
<path fill="none" stroke="midnightblue" d="M2232.97,-520.74C2246.08,-502.11 2274.5,-456.78 2274.5,-414 2274.5,-414 2274.5,-414 2274.5,-244 2274.5,-208.35 2258.88,-195.91 2227.5,-179 2134.56,-128.91 1410.34,-127.13 1162.42,-128.01"/>
<polygon fill="midnightblue" stroke="midnightblue" points="1162.37,-124.51 1152.38,-128.05 1162.4,-131.51 1162.37,-124.51"/>
</g>
<!-- Node28 -->
<g id="node28" class="node">
<title>Node28</title>
<g id="a_node28"><a xlink:title=" ">
<polygon fill="none" stroke="#bfbfbf" points="2171,-459.5 2171,-478.5 2246,-478.5 2246,-459.5 2171,-459.5"/>
<text text-anchor="middle" x="2208.5" y="-466.5" font-family="Helvetica,sans-Serif" font-size="10.00">opus/opus.h</text>
</a>
</g>
</g>
<!-- Node27&#45;&gt;Node28 -->
<g id="edge28" class="edge">
<title>Node27&#45;&gt;Node28</title>
<path fill="none" stroke="midnightblue" d="M2223.92,-520.98C2221.35,-512.49 2217.33,-499.2 2214.04,-488.32"/>
<polygon fill="midnightblue" stroke="midnightblue" points="2217.32,-487.07 2211.07,-478.51 2210.62,-489.09 2217.32,-487.07"/>
</g>
<!-- Node29&#45;&gt;Node2 -->
<g id="edge30" class="edge">
<title>Node29&#45;&gt;Node2</title>
<path fill="none" stroke="midnightblue" d="M1943.86,-403.5C2035.33,-388.89 2198.5,-355.36 2198.5,-302 2198.5,-302 2198.5,-302 2198.5,-244 2198.5,-213.77 2202.39,-197.51 2178.5,-179 2138.5,-148.01 1411.49,-133.72 1162.41,-129.72"/>
<polygon fill="midnightblue" stroke="midnightblue" points="1162.39,-126.22 1152.33,-129.56 1162.28,-133.22 1162.39,-126.22"/>
</g>
<!-- Node30 -->
<g id="node30" class="node">
<title>Node30</title>
<g id="a_node30"><a xlink:href="../../d3/d4f/a00761.html" target="_top" xlink:title=" ">
<polygon fill="none" stroke="black" points="1315,-347.5 1315,-366.5 1482,-366.5 1482,-347.5 1315,-347.5"/>
<text text-anchor="middle" x="1398.5" y="-354.5" font-family="Helvetica,sans-Serif" font-size="10.00">discordcoreapi/ThreadPool.hpp</text>
</a>
</g>
</g>
<!-- Node29&#45;&gt;Node30 -->
<g id="edge31" class="edge">
<title>Node29&#45;&gt;Node30</title>
<path fill="none" stroke="midnightblue" d="M1806.92,-403.47C1719.44,-393.73 1576.62,-377.83 1485.15,-367.65"/>
<polygon fill="midnightblue" stroke="midnightblue" points="1485.41,-364.15 1475.08,-366.53 1484.63,-371.11 1485.41,-364.15"/>
</g>
<!-- Node30&#45;&gt;Node2 -->
<g id="edge32" class="edge">
<title>Node30&#45;&gt;Node2</title>
<path fill="none" stroke="midnightblue" d="M1374.25,-347.47C1322.45,-328.22 1199.52,-276.91 1123.5,-199 1109.94,-185.11 1098.49,-166.35 1090.66,-151.67"/>
<polygon fill="midnightblue" stroke="midnightblue" points="1093.74,-150.01 1086.06,-142.71 1087.51,-153.2 1093.74,-150.01"/>
</g>
<!-- Node31 -->
<g id="node31" class="node">
<title>Node31</title>
<g id="a_node31"><a xlink:href="../../db/d7c/a00722.html" target="_top" xlink:title=" ">
<polygon fill="none" stroke="black" points="1382.5,-291.5 1382.5,-310.5 1520.5,-310.5 1520.5,-291.5 1382.5,-291.5"/>
<text text-anchor="middle" x="1451.5" y="-298.5" font-family="Helvetica,sans-Serif" font-size="10.00">discordcoreapi/Https.hpp</text>
</a>
</g>
</g>
<!-- Node30&#45;&gt;Node31 -->
<g id="edge33" class="edge">
<title>Node30&#45;&gt;Node31</title>
<path fill="none" stroke="midnightblue" d="M1407.25,-347.08C1414.97,-339.22 1426.4,-327.57 1435.72,-318.08"/>
<polygon fill="midnightblue" stroke="midnightblue" points="1438.4,-320.34 1442.91,-310.75 1433.41,-315.44 1438.4,-320.34"/>
</g>
<!-- Node46 -->
<g id="node46" class="node">
<title>Node46</title>
<g id="a_node46"><a xlink:title=" ">
<polygon fill="none" stroke="#bfbfbf" points="1302.5,-291.5 1302.5,-310.5 1364.5,-310.5 1364.5,-291.5 1302.5,-291.5"/>
<text text-anchor="middle" x="1333.5" y="-298.5" font-family="Helvetica,sans-Serif" font-size="10.00">coroutine</text>
</a>
</g>
</g>
<!-- Node30&#45;&gt;Node46 -->
<g id="edge50" class="edge">
<title>Node30&#45;&gt;Node46</title>
<path fill="none" stroke="midnightblue" d="M1388.06,-347.32C1378.35,-339.26 1363.68,-327.08 1352,-317.37"/>
<polygon fill="midnightblue" stroke="midnightblue" points="1354.06,-314.53 1344.13,-310.83 1349.59,-319.92 1354.06,-314.53"/>
</g>
<!-- Node32 -->
<g id="node32" class="node">
<title>Node32</title>
<g id="a_node32"><a xlink:href="../../d5/de8/a00749.html" target="_top" xlink:title=" ">
<polygon fill="none" stroke="black" points="1467,-235.5 1467,-254.5 1630,-254.5 1630,-235.5 1467,-235.5"/>
<text text-anchor="middle" x="1548.5" y="-242.5" font-family="Helvetica,sans-Serif" font-size="10.00">discordcoreapi/SSLClients.hpp</text>
</a>
</g>
</g>
<!-- Node31&#45;&gt;Node32 -->
<g id="edge34" class="edge">
<title>Node31&#45;&gt;Node32</title>
<path fill="none" stroke="midnightblue" d="M1467.08,-291.32C1482.5,-282.74 1506.31,-269.49 1524.21,-259.52"/>
<polygon fill="midnightblue" stroke="midnightblue" points="1525.92,-262.58 1532.95,-254.65 1522.51,-256.46 1525.92,-262.58"/>
</g>
<!-- Node32&#45;&gt;Node2 -->
<g id="edge35" class="edge">
<title>Node32&#45;&gt;Node2</title>
<path fill="none" stroke="midnightblue" d="M1466.66,-240.61C1368.12,-235.5 1209.16,-223.67 1155.5,-199 1131.83,-188.12 1110.63,-167 1096.67,-150.7"/>
<polygon fill="midnightblue" stroke="midnightblue" points="1099.12,-148.18 1090.06,-142.7 1093.73,-152.63 1099.12,-148.18"/>
</g>
<!-- Node33 -->
<g id="node33" class="node">
<title>Node33</title>
<g id="a_node33"><a xlink:href="../../d4/d6a/a00704.html" target="_top" xlink:title=" ">
<polygon fill="none" stroke="black" points="818.5,-179.5 818.5,-198.5 994.5,-198.5 994.5,-179.5 818.5,-179.5"/>
<text text-anchor="middle" x="906.5" y="-186.5" font-family="Helvetica,sans-Serif" font-size="10.00">discordcoreapi/EventEntities.hpp</text>
</a>
</g>
</g>
<!-- Node32&#45;&gt;Node33 -->
<g id="edge36" class="edge">
<title>Node32&#45;&gt;Node33</title>
<path fill="none" stroke="midnightblue" d="M1466.86,-237.13C1348.98,-227.22 1131.39,-208.92 1004.83,-198.27"/>
<polygon fill="midnightblue" stroke="midnightblue" points="1005.01,-194.77 994.75,-197.42 1004.42,-201.75 1005.01,-194.77"/>
</g>
<!-- Node34 -->
<g id="node34" class="node">
<title>Node34</title>
<g id="a_node34"><a xlink:title=" ">
<polygon fill="none" stroke="#bfbfbf" points="1329,-179.5 1329,-198.5 1408,-198.5 1408,-179.5 1329,-179.5"/>
<text text-anchor="middle" x="1368.5" y="-186.5" font-family="Helvetica,sans-Serif" font-size="10.00">openssl/err.h</text>
</a>
</g>
</g>
<!-- Node32&#45;&gt;Node34 -->
<g id="edge38" class="edge">
<title>Node32&#45;&gt;Node34</title>
<path fill="none" stroke="midnightblue" d="M1519.98,-235.44C1489.43,-226.28 1440.79,-211.69 1406.9,-201.52"/>
<polygon fill="midnightblue" stroke="midnightblue" points="1407.47,-198.04 1396.89,-198.52 1405.46,-204.74 1407.47,-198.04"/>
</g>
<!-- Node35 -->
<g id="node35" class="node">
<title>Node35</title>
<g id="a_node35"><a xlink:title=" ">
<polygon fill="none" stroke="#bfbfbf" points="1426.5,-179.5 1426.5,-198.5 1506.5,-198.5 1506.5,-179.5 1426.5,-179.5"/>
<text text-anchor="middle" x="1466.5" y="-186.5" font-family="Helvetica,sans-Serif" font-size="10.00">openssl/ssl.h</text>
</a>
</g>
</g>
<!-- Node32&#45;&gt;Node35 -->
<g id="edge39" class="edge">
<title>Node32&#45;&gt;Node35</title>
<path fill="none" stroke="midnightblue" d="M1535.33,-235.32C1522.65,-226.98 1503.27,-214.21 1488.29,-204.35"/>
<polygon fill="midnightblue" stroke="midnightblue" points="1489.92,-201.23 1479.64,-198.65 1486.07,-207.08 1489.92,-201.23"/>
</g>
<!-- Node36 -->
<g id="node36" class="node">
<title>Node36</title>
<g id="a_node36"><a xlink:title=" ">
<polygon fill="none" stroke="#bfbfbf" points="1525,-179.5 1525,-198.5 1572,-198.5 1572,-179.5 1525,-179.5"/>
<text text-anchor="middle" x="1548.5" y="-186.5" font-family="Helvetica,sans-Serif" font-size="10.00">fcntl.h</text>
</a>
</g>
</g>
<!-- Node32&#45;&gt;Node36 -->
<g id="edge40" class="edge">
<title>Node32&#45;&gt;Node36</title>
<path fill="none" stroke="midnightblue" d="M1548.5,-235.08C1548.5,-228.01 1548.5,-217.86 1548.5,-208.99"/>
<polygon fill="midnightblue" stroke="midnightblue" points="1552,-208.75 1548.5,-198.75 1545,-208.75 1552,-208.75"/>
</g>
<!-- Node37 -->
<g id="node37" class="node">
<title>Node37</title>
<g id="a_node37"><a xlink:title=" ">
<polygon fill="none" stroke="#bfbfbf" points="1590,-179.5 1590,-198.5 1643,-198.5 1643,-179.5 1590,-179.5"/>
<text text-anchor="middle" x="1616.5" y="-186.5" font-family="Helvetica,sans-Serif" font-size="10.00">netdb.h</text>
</a>
</g>
</g>
<!-- Node32&#45;&gt;Node37 -->
<g id="edge41" class="edge">
<title>Node32&#45;&gt;Node37</title>
<path fill="none" stroke="midnightblue" d="M1559.43,-235.32C1569.67,-227.18 1585.22,-214.84 1597.5,-205.09"/>
<polygon fill="midnightblue" stroke="midnightblue" points="1599.72,-207.79 1605.38,-198.83 1595.37,-202.31 1599.72,-207.79"/>
</g>
<!-- Node38 -->
<g id="node38" class="node">
<title>Node38</title>
<g id="a_node38"><a xlink:title=" ">
<polygon fill="none" stroke="#bfbfbf" points="1661.5,-179.5 1661.5,-198.5 1733.5,-198.5 1733.5,-179.5 1661.5,-179.5"/>
<text text-anchor="middle" x="1697.5" y="-186.5" font-family="Helvetica,sans-Serif" font-size="10.00">netinet/in.h</text>
</a>
</g>
</g>
<!-- Node32&#45;&gt;Node38 -->
<g id="edge42" class="edge">
<title>Node32&#45;&gt;Node38</title>
<path fill="none" stroke="midnightblue" d="M1572.11,-235.44C1596.96,-226.44 1636.27,-212.19 1664.25,-202.05"/>
<polygon fill="midnightblue" stroke="midnightblue" points="1665.79,-205.21 1674,-198.52 1663.41,-198.63 1665.79,-205.21"/>
</g>
<!-- Node39 -->
<g id="node39" class="node">
<title>Node39</title>
<g id="a_node39"><a xlink:title=" ">
<polygon fill="none" stroke="#bfbfbf" points="1751.5,-179.5 1751.5,-198.5 1829.5,-198.5 1829.5,-179.5 1751.5,-179.5"/>
<text text-anchor="middle" x="1790.5" y="-186.5" font-family="Helvetica,sans-Serif" font-size="10.00">netinet/tcp.h</text>
</a>
</g>
</g>
<!-- Node32&#45;&gt;Node39 -->
<g id="edge43" class="edge">
<title>Node32&#45;&gt;Node39</title>
<path fill="none" stroke="midnightblue" d="M1586.85,-235.44C1628.97,-226.04 1696.71,-210.93 1742.37,-200.74"/>
<polygon fill="midnightblue" stroke="midnightblue" points="1743.34,-204.11 1752.33,-198.52 1741.81,-197.28 1743.34,-204.11"/>
</g>
<!-- Node40 -->
<g id="node40" class="node">
<title>Node40</title>
<g id="a_node40"><a xlink:title=" ">
<polygon fill="none" stroke="#bfbfbf" points="1848,-179.5 1848,-198.5 1901,-198.5 1901,-179.5 1848,-179.5"/>
<text text-anchor="middle" x="1874.5" y="-186.5" font-family="Helvetica,sans-Serif" font-size="10.00">stdint.h</text>
</a>
</g>
</g>
<!-- Node32&#45;&gt;Node40 -->
<g id="edge44" class="edge">
<title>Node32&#45;&gt;Node40</title>
<path fill="none" stroke="midnightblue" d="M1614.74,-235.47C1671.42,-227.77 1755.35,-215.43 1837.78,-198.98"/>
<polygon fill="midnightblue" stroke="midnightblue" points="1838.71,-202.36 1847.83,-196.96 1837.33,-195.5 1838.71,-202.36"/>
</g>
<!-- Node41 -->
<g id="node41" class="node">
<title>Node41</title>
<g id="a_node41"><a xlink:title=" ">
<polygon fill="none" stroke="#bfbfbf" points="1919,-179.5 1919,-198.5 1988,-198.5 1988,-179.5 1919,-179.5"/>
<text text-anchor="middle" x="1953.5" y="-186.5" font-family="Helvetica,sans-Serif" font-size="10.00">sys/epoll.h</text>
</a>
</g>
</g>
<!-- Node32&#45;&gt;Node41 -->
<g id="edge45" class="edge">
<title>Node32&#45;&gt;Node41</title>
<path fill="none" stroke="midnightblue" d="M1630.12,-235.66C1701.1,-227.98 1806.91,-215.53 1908.8,-198.99"/>
<polygon fill="midnightblue" stroke="midnightblue" points="1909.66,-202.4 1918.96,-197.33 1908.53,-195.49 1909.66,-202.4"/>
</g>
<!-- Node42 -->
<g id="node42" class="node">
<title>Node42</title>
<g id="a_node42"><a xlink:title=" ">
<polygon fill="none" stroke="#bfbfbf" points="2006,-179.5 2006,-198.5 2075,-198.5 2075,-179.5 2006,-179.5"/>
<text text-anchor="middle" x="2040.5" y="-186.5" font-family="Helvetica,sans-Serif" font-size="10.00">arpa/inet.h</text>
</a>
</g>
</g>
<!-- Node32&#45;&gt;Node42 -->
<g id="edge46" class="edge">
<title>Node32&#45;&gt;Node42</title>
<path fill="none" stroke="midnightblue" d="M1630.15,-238.3C1717.99,-231.61 1861.94,-219 1995.93,-198.93"/>
<polygon fill="midnightblue" stroke="midnightblue" points="1996.61,-202.37 2005.97,-197.41 1995.56,-195.45 1996.61,-202.37"/>
</g>
<!-- Node43 -->
<g id="node43" class="node">
<title>Node43</title>
<g id="a_node43"><a xlink:title=" ">
<polygon fill="none" stroke="#bfbfbf" points="2093,-179.5 2093,-198.5 2170,-198.5 2170,-179.5 2093,-179.5"/>
<text text-anchor="middle" x="2131.5" y="-186.5" font-family="Helvetica,sans-Serif" font-size="10.00">sys/socket.h</text>
</a>
</g>
</g>
<!-- Node32&#45;&gt;Node43 -->
<g id="edge47" class="edge">
<title>Node32&#45;&gt;Node43</title>
<path fill="none" stroke="midnightblue" d="M1630.36,-239.7C1733.5,-233.7 1916.39,-221.15 2082.85,-198.95"/>
<polygon fill="midnightblue" stroke="midnightblue" points="2083.34,-202.41 2092.78,-197.61 2082.4,-195.48 2083.34,-202.41"/>
</g>
<!-- Node44 -->
<g id="node44" class="node">
<title>Node44</title>
<g id="a_node44"><a xlink:title=" ">
<polygon fill="none" stroke="#bfbfbf" points="1164.5,-179.5 1164.5,-198.5 1236.5,-198.5 1236.5,-179.5 1164.5,-179.5"/>
<text text-anchor="middle" x="1200.5" y="-186.5" font-family="Helvetica,sans-Serif" font-size="10.00">sys/types.h</text>
</a>
</g>
</g>
<!-- Node32&#45;&gt;Node44 -->
<g id="edge48" class="edge">
<title>Node32&#45;&gt;Node44</title>
<path fill="none" stroke="midnightblue" d="M1484.8,-235.48C1425.61,-227.35 1334.74,-214.33 1246.71,-199.14"/>
<polygon fill="midnightblue" stroke="midnightblue" points="1247.27,-195.69 1236.82,-197.43 1246.07,-202.59 1247.27,-195.69"/>
</g>
<!-- Node45 -->
<g id="node45" class="node">
<title>Node45</title>
<g id="a_node45"><a xlink:title=" ">
<polygon fill="none" stroke="#bfbfbf" points="1254.5,-179.5 1254.5,-198.5 1310.5,-198.5 1310.5,-179.5 1254.5,-179.5"/>
<text text-anchor="middle" x="1282.5" y="-186.5" font-family="Helvetica,sans-Serif" font-size="10.00">unistd.h</text>
</a>
</g>
</g>
<!-- Node32&#45;&gt;Node45 -->
<g id="edge49" class="edge">
<title>Node32&#45;&gt;Node45</title>
<path fill="none" stroke="midnightblue" d="M1501.88,-235.47C1457.69,-227.24 1389.22,-214.13 1320.84,-199.22"/>
<polygon fill="midnightblue" stroke="midnightblue" points="1321.27,-195.73 1310.75,-197.01 1319.77,-202.57 1321.27,-195.73"/>
</g>
<!-- Node33&#45;&gt;Node2 -->
<g id="edge37" class="edge">
<title>Node33&#45;&gt;Node2</title>
<path fill="none" stroke="midnightblue" d="M931.29,-179.48C956.69,-170.74 996.9,-156.91 1029.04,-145.86"/>
<polygon fill="midnightblue" stroke="midnightblue" points="1030.41,-149.09 1038.73,-142.52 1028.13,-142.47 1030.41,-149.09"/>
</g>
<!-- Node47&#45;&gt;Node2 -->
<g id="edge52" class="edge">
<title>Node47&#45;&gt;Node2</title>
<path fill="none" stroke="midnightblue" d="M1404.57,-526.8C1618.74,-516.83 2236.5,-473.24 2236.5,-302 2236.5,-302 2236.5,-302 2236.5,-244 2236.5,-211.19 2229.28,-196.45 2201.5,-179 2157.68,-151.47 1414.85,-134.87 1162.57,-130.01"/>
<polygon fill="midnightblue" stroke="midnightblue" points="1162.43,-126.5 1152.36,-129.81 1162.29,-133.5 1162.43,-126.5"/>
</g>
<!-- Node47&#45;&gt;Node30 -->
<g id="edge65" class="edge">
<title>Node47&#45;&gt;Node30</title>
<path fill="none" stroke="midnightblue" d="M1349.62,-515.35C1359.66,-506.07 1371.67,-493.09 1378.5,-479 1394.69,-445.59 1398.11,-401.55 1398.64,-376.87"/>
<polygon fill="midnightblue" stroke="midnightblue" points="1402.14,-376.74 1398.71,-366.71 1395.14,-376.69 1402.14,-376.74"/>
</g>
<!-- Node47&#45;&gt;Node32 -->
<g id="edge64" class="edge">
<title>Node47&#45;&gt;Node32</title>
<path fill="none" stroke="midnightblue" d="M1404.73,-520.94C1467.52,-508.99 1548.5,-480.66 1548.5,-414 1548.5,-414 1548.5,-414 1548.5,-356 1548.5,-323.95 1548.5,-286.64 1548.5,-264.75"/>
<polygon fill="midnightblue" stroke="midnightblue" points="1552,-264.56 1548.5,-254.56 1545,-264.56 1552,-264.56"/>
</g>
<!-- Node47&#45;&gt;Node33 -->
<g id="edge63" class="edge">
<title>Node47&#45;&gt;Node33</title>
<path fill="none" stroke="midnightblue" d="M1260.4,-524.75C1139.15,-514.78 907.5,-486.26 907.5,-414 907.5,-414 907.5,-414 907.5,-300 907.5,-267.95 907.07,-230.64 906.77,-208.75"/>
<polygon fill="midnightblue" stroke="midnightblue" points="910.27,-208.51 906.63,-198.56 903.27,-208.61 910.27,-208.51"/>
</g>
<!-- Node48 -->
<g id="node48" class="node">
<title>Node48</title>
<g id="a_node48"><a xlink:href="../../d4/d9b/a00680.html" target="_top" xlink:title=" ">
<polygon fill="none" stroke="black" points="700,-235.5 700,-254.5 879,-254.5 879,-235.5 700,-235.5"/>
<text text-anchor="middle" x="789.5" y="-242.5" font-family="Helvetica,sans-Serif" font-size="10.00">discordcoreapi/AudioDecoder.hpp</text>
</a>
</g>
</g>
<!-- Node47&#45;&gt;Node48 -->
<g id="edge53" class="edge">
<title>Node47&#45;&gt;Node48</title>
<path fill="none" stroke="midnightblue" d="M1260.28,-526.99C1152.73,-522.29 956.42,-509.69 893.5,-479 857.06,-461.23 829.5,-454.54 829.5,-414 829.5,-414 829.5,-414 829.5,-356 829.5,-321.62 812.03,-284.63 800.18,-263.5"/>
<polygon fill="midnightblue" stroke="midnightblue" points="803.12,-261.61 795.06,-254.73 797.08,-265.13 803.12,-261.61"/>
</g>
<!-- Node51 -->
<g id="node51" class="node">
<title>Node51</title>
<g id="a_node51"><a xlink:href="../../d0/db6/a00692.html" target="_top" xlink:title=" ">
<polygon fill="none" stroke="black" points="1161,-459.5 1161,-478.5 1370,-478.5 1370,-459.5 1161,-459.5"/>
<text text-anchor="middle" x="1265.5" y="-466.5" font-family="Helvetica,sans-Serif" font-size="10.00">discordcoreapi/CommandController.hpp</text>
</a>
</g>
</g>
<!-- Node47&#45;&gt;Node51 -->
<g id="edge58" class="edge">
<title>Node47&#45;&gt;Node51</title>
<path fill="none" stroke="midnightblue" d="M1316.62,-515.4C1306.48,-506.4 1293.34,-494.72 1282.91,-485.47"/>
<polygon fill="midnightblue" stroke="midnightblue" points="1285.05,-482.68 1275.25,-478.66 1280.4,-487.92 1285.05,-482.68"/>
</g>
<!-- Node52 -->
<g id="node52" class="node">
<title>Node52</title>
<g id="a_node52"><a xlink:href="../../dd/d57/a00701.html" target="_top" xlink:title=" ">
<polygon fill="none" stroke="black" points="936,-403.5 936,-422.5 1091,-422.5 1091,-403.5 936,-403.5"/>
<text text-anchor="middle" x="1013.5" y="-410.5" font-family="Helvetica,sans-Serif" font-size="10.00">discordcoreapi/ErlPacker.hpp</text>
</a>
</g>
</g>
<!-- Node47&#45;&gt;Node52 -->
<g id="edge61" class="edge">
<title>Node47&#45;&gt;Node52</title>
<path fill="none" stroke="midnightblue" d="M1272.6,-515.48C1236.95,-506.48 1191.1,-493.73 1151.5,-479 1110.82,-463.87 1065.68,-441.47 1038.45,-427.32"/>
<polygon fill="midnightblue" stroke="midnightblue" points="1039.75,-424.05 1029.27,-422.5 1036.5,-430.25 1039.75,-424.05"/>
</g>
<!-- Node48&#45;&gt;Node2 -->
<g id="edge55" class="edge">
<title>Node48&#45;&gt;Node2</title>
<path fill="none" stroke="midnightblue" d="M789.49,-235.36C789.98,-221.31 793.11,-193.62 809.5,-179 836.71,-154.71 927.82,-141.42 996.73,-134.65"/>
<polygon fill="midnightblue" stroke="midnightblue" points="997.11,-138.13 1006.73,-133.7 996.45,-131.17 997.11,-138.13"/>
</g>
<!-- Node48&#45;&gt;Node33 -->
<g id="edge54" class="edge">
<title>Node48&#45;&gt;Node33</title>
<path fill="none" stroke="midnightblue" d="M808.04,-235.44C827.12,-226.64 857.07,-212.81 878.94,-202.72"/>
<polygon fill="midnightblue" stroke="midnightblue" points="880.43,-205.88 888.05,-198.52 877.5,-199.53 880.43,-205.88"/>
</g>
<!-- Node49 -->
<g id="node49" class="node">
<title>Node49</title>
<g id="a_node49"><a xlink:title=" ">
<polygon fill="none" stroke="#bfbfbf" points="631,-179.5 631,-198.5 762,-198.5 762,-179.5 631,-179.5"/>
<text text-anchor="middle" x="696.5" y="-186.5" font-family="Helvetica,sans-Serif" font-size="10.00">libavformat/avformat.h</text>
</a>
</g>
</g>
<!-- Node48&#45;&gt;Node49 -->
<g id="edge56" class="edge">
<title>Node48&#45;&gt;Node49</title>
<path fill="none" stroke="midnightblue" d="M774.56,-235.32C759.91,-226.82 737.37,-213.73 720.26,-203.8"/>
<polygon fill="midnightblue" stroke="midnightblue" points="721.81,-200.65 711.4,-198.65 718.3,-206.7 721.81,-200.65"/>
</g>
<!-- Node50 -->
<g id="node50" class="node">
<title>Node50</title>
<g id="a_node50"><a xlink:title=" ">
<polygon fill="none" stroke="#bfbfbf" points="454,-179.5 454,-198.5 613,-198.5 613,-179.5 454,-179.5"/>
<text text-anchor="middle" x="533.5" y="-186.5" font-family="Helvetica,sans-Serif" font-size="10.00">libswresample/swresample.h</text>
</a>
</g>
</g>
<!-- Node48&#45;&gt;Node50 -->
<g id="edge57" class="edge">
<title>Node48&#45;&gt;Node50</title>
<path fill="none" stroke="midnightblue" d="M748.94,-235.44C704.18,-226 632.12,-210.8 583.8,-200.61"/>
<polygon fill="midnightblue" stroke="midnightblue" points="584.38,-197.16 573.87,-198.52 582.94,-204.01 584.38,-197.16"/>
</g>
<!-- Node51&#45;&gt;Node2 -->
<g id="edge59" class="edge">
<title>Node51&#45;&gt;Node2</title>
<path fill="none" stroke="midnightblue" d="M1259.25,-459.07C1236.26,-425.94 1155.04,-306.35 1104.5,-199 1097.4,-183.93 1091.14,-166.25 1086.66,-152.37"/>
<polygon fill="midnightblue" stroke="midnightblue" points="1089.93,-151.1 1083.59,-142.61 1083.25,-153.19 1089.93,-151.1"/>
</g>
<!-- Node51&#45;&gt;Node29 -->
<g id="edge60" class="edge">
<title>Node51&#45;&gt;Node29</title>
<path fill="none" stroke="midnightblue" d="M1363.08,-459.47C1480.79,-449.19 1677.12,-432.03 1792.03,-421.99"/>
<polygon fill="midnightblue" stroke="midnightblue" points="1792.55,-425.46 1802.2,-421.1 1791.94,-418.49 1792.55,-425.46"/>
</g>
<!-- Node52&#45;&gt;Node2 -->
<g id="edge62" class="edge">
<title>Node52&#45;&gt;Node2</title>
<path fill="none" stroke="midnightblue" d="M1014.68,-403.46C1017.12,-384.99 1022.5,-339.94 1022.5,-302 1022.5,-302 1022.5,-302 1022.5,-244 1022.5,-208.66 1044.22,-172.94 1060.84,-150.78"/>
<polygon fill="midnightblue" stroke="midnightblue" points="1063.75,-152.74 1067.13,-142.7 1058.23,-148.44 1063.75,-152.74"/>
</g>
</g>
</svg>
