<?xml version="1.0" encoding="UTF-8" standalone="no"?>
<!DOCTYPE svg PUBLIC "-//W3C//DTD SVG 1.1//EN"
 "http://www.w3.org/Graphics/SVG/1.1/DTD/svg11.dtd">
<!-- Generated by graphviz version 2.43.0 (0)
 -->
<!-- Title: DiscordCoreAPI::Users::getUserAsync Pages: 1 -->
<svg width="295pt" height="38pt"
 viewBox="0.00 0.00 295.00 38.00" xmlns="http://www.w3.org/2000/svg" xmlns:xlink="http://www.w3.org/1999/xlink">
<g id="graph0" class="graph" transform="scale(1 1) rotate(0) translate(4 34)">
<title>DiscordCoreAPI::Users::getUserAsync</title>
<!-- Node1 -->
<g id="node1" class="node">
<title>Node1</title>
<g id="a_node1"><a xlink:title="Collects a given User from the Discord servers.">
<polygon fill="#bfbfbf" stroke="black" points="125,-30 0,-30 0,0 125,0 125,-30"/>
<text text-anchor="start" x="8" y="-18" font-family="Helvetica,sans-Serif" font-size="10.00">DiscordCoreAPI::Users</text>
<text text-anchor="middle" x="62.5" y="-7" font-family="Helvetica,sans-Serif" font-size="10.00">::getUserAsync</text>
</a>
</g>
</g>
<!-- Node2 -->
<g id="node2" class="node">
<title>Node2</title>
<g id="a_node2"><a xlink:href="../../d0/d92/a03585.html#a01ba31f6c4c93a6716eb56afffe4a608" target="_top" xlink:title="Collects a given User from the library&#39;s cache.">
<polygon fill="none" stroke="black" points="287,-30 161,-30 161,0 287,0 287,-30"/>
<text text-anchor="start" x="169" y="-18" font-family="Helvetica,sans-Serif" font-size="10.00">DiscordCoreAPI::Users</text>
<text text-anchor="middle" x="224" y="-7" font-family="Helvetica,sans-Serif" font-size="10.00">::getCachedUserAsync</text>
</a>
</g>
</g>
<!-- Node1&#45;&gt;Node2 -->
<g id="edge1" class="edge">
<title>Node1&#45;&gt;Node2</title>
<path fill="none" stroke="midnightblue" d="M125.17,-8.41C133.61,-8.26 142.34,-8.22 150.95,-8.28"/>
<polygon fill="midnightblue" stroke="midnightblue" points="150.93,-11.78 160.97,-8.4 151.01,-4.78 150.93,-11.78"/>
</g>
<!-- Node2&#45;&gt;Node1 -->
<g id="edge2" class="edge">
<title>Node2&#45;&gt;Node1</title>
<path fill="none" stroke="midnightblue" d="M160.97,-21.6C152.52,-21.75 143.79,-21.79 135.19,-21.72"/>
<polygon fill="midnightblue" stroke="midnightblue" points="135.21,-18.22 125.17,-21.59 135.12,-25.22 135.21,-18.22"/>
</g>
</g>
</svg>
