<?xml version="1.0" encoding="UTF-8" standalone="no"?>
<!DOCTYPE svg PUBLIC "-//W3C//DTD SVG 1.1//EN"
 "http://www.w3.org/Graphics/SVG/1.1/DTD/svg11.dtd">
<!-- Generated by graphviz version 3.0.0 (20220226.1711)
 -->
<!-- Title: ReactionEntities.cpp Pages: 1 -->
<svg width="1949pt" height="722pt"
 viewBox="0.00 0.00 1948.50 722.00" xmlns="http://www.w3.org/2000/svg" xmlns:xlink="http://www.w3.org/1999/xlink">
<g id="graph0" class="graph" transform="scale(1 1) rotate(0) translate(4 718)">
<title>ReactionEntities.cpp</title>
<!-- Node1 -->
<g id="node1" class="node">
<title>Node1</title>
<g id="a_node1"><a xlink:title=" ">
<polygon fill="#bfbfbf" stroke="black" points="1825.5,-694.5 1825.5,-713.5 1932.5,-713.5 1932.5,-694.5 1825.5,-694.5"/>
<text text-anchor="middle" x="1879" y="-701.5" font-family="Helvetica,sans-Serif" font-size="10.00">ReactionEntities.cpp</text>
</a>
</g>
</g>
<!-- Node2 -->
<g id="node2" class="node">
<title>Node2</title>
<g id="a_node2"><a xlink:href="../../dd/db2/a00737.html" target="_top" xlink:title=" ">
<polygon fill="none" stroke="black" points="203.5,-638.5 203.5,-657.5 376.5,-657.5 376.5,-638.5 203.5,-638.5"/>
<text text-anchor="middle" x="290" y="-645.5" font-family="Helvetica,sans-Serif" font-size="10.00">discordcoreapi/ReactionEntities.hpp</text>
</a>
</g>
</g>
<!-- Node1&#45;&gt;Node2 -->
<g id="edge1" class="edge">
<title>Node1&#45;&gt;Node2</title>
<path fill="none" stroke="midnightblue" d="M1825.22,-701.17C1594.57,-693.33 687.17,-662.5 386.99,-652.3"/>
<polygon fill="midnightblue" stroke="midnightblue" points="386.69,-648.78 376.57,-651.94 386.45,-655.78 386.69,-648.78"/>
</g>
<!-- Node19 -->
<g id="node19" class="node">
<title>Node19</title>
<g id="a_node19"><a xlink:title=" ">
<polygon fill="none" stroke="#bfbfbf" points="1891.5,-0.5 1891.5,-19.5 1940.5,-19.5 1940.5,-0.5 1891.5,-0.5"/>
<text text-anchor="middle" x="1916" y="-7.5" font-family="Helvetica,sans-Serif" font-size="10.00">fstream</text>
</a>
</g>
</g>
<!-- Node1&#45;&gt;Node19 -->
<g id="edge68" class="edge">
<title>Node1&#45;&gt;Node19</title>
<path fill="none" stroke="midnightblue" d="M1887.17,-694.38C1902.93,-676.81 1936,-634.94 1936,-593 1936,-593 1936,-593 1936,-126.5 1936,-91.86 1927.16,-52.21 1921.23,-29.54"/>
<polygon fill="midnightblue" stroke="midnightblue" points="1924.53,-28.34 1918.53,-19.61 1917.78,-30.17 1924.53,-28.34"/>
</g>
<!-- Node36 -->
<g id="node36" class="node">
<title>Node36</title>
<g id="a_node36"><a xlink:href="../../d5/d5b/a00695.html" target="_top" xlink:title=" ">
<polygon fill="none" stroke="black" points="1648,-403.5 1648,-422.5 1794,-422.5 1794,-403.5 1648,-403.5"/>
<text text-anchor="middle" x="1721" y="-410.5" font-family="Helvetica,sans-Serif" font-size="10.00">discordcoreapi/CoRoutine.hpp</text>
</a>
</g>
</g>
<!-- Node1&#45;&gt;Node36 -->
<g id="edge66" class="edge">
<title>Node1&#45;&gt;Node36</title>
<path fill="none" stroke="midnightblue" d="M1876.44,-694.25C1871.25,-675.74 1860,-631.18 1860,-593 1860,-593 1860,-593 1860,-529.5 1860,-476.05 1798.46,-442.59 1757.27,-426.19"/>
<polygon fill="midnightblue" stroke="midnightblue" points="1758.39,-422.87 1747.8,-422.57 1755.89,-429.41 1758.39,-422.87"/>
</g>
<!-- Node38 -->
<g id="node38" class="node">
<title>Node38</title>
<g id="a_node38"><a xlink:href="../../db/d7c/a00722.html" target="_top" xlink:title=" ">
<polygon fill="none" stroke="black" points="1758.5,-291.5 1758.5,-310.5 1883.5,-310.5 1883.5,-291.5 1758.5,-291.5"/>
<text text-anchor="middle" x="1821" y="-298.5" font-family="Helvetica,sans-Serif" font-size="10.00">discordcoreapi/Https.hpp</text>
</a>
</g>
</g>
<!-- Node1&#45;&gt;Node38 -->
<g id="edge67" class="edge">
<title>Node1&#45;&gt;Node38</title>
<path fill="none" stroke="midnightblue" d="M1881.56,-694.25C1886.75,-675.74 1898,-631.18 1898,-593 1898,-593 1898,-593 1898,-412 1898,-381.9 1895.94,-371.88 1879,-347 1870.43,-334.41 1857.22,-323.76 1845.57,-315.99"/>
<polygon fill="midnightblue" stroke="midnightblue" points="1847.39,-313.01 1837.06,-310.63 1843.65,-318.93 1847.39,-313.01"/>
</g>
<!-- Node3 -->
<g id="node3" class="node">
<title>Node3</title>
<g id="a_node3"><a xlink:href="../../d4/deb/a00710.html" target="_top" xlink:title=" ">
<polygon fill="none" stroke="black" points="481.5,-112.5 481.5,-142.5 612.5,-142.5 612.5,-112.5 481.5,-112.5"/>
<text text-anchor="start" x="489.5" y="-130.5" font-family="Helvetica,sans-Serif" font-size="10.00">discordcoreapi/Foundation</text>
<text text-anchor="middle" x="547" y="-119.5" font-family="Helvetica,sans-Serif" font-size="10.00">Entities.hpp</text>
</a>
</g>
</g>
<!-- Node2&#45;&gt;Node3 -->
<g id="edge2" class="edge">
<title>Node2&#45;&gt;Node3</title>
<path fill="none" stroke="midnightblue" d="M243.41,-638.45C161.43,-622.08 0,-583.25 0,-531.5 0,-531.5 0,-531.5 0,-244 0,-207.82 17.48,-196.75 49,-179 119.35,-139.37 349.99,-130.67 471.13,-128.87"/>
<polygon fill="midnightblue" stroke="midnightblue" points="471.48,-132.37 481.44,-128.73 471.39,-125.37 471.48,-132.37"/>
</g>
<!-- Node29 -->
<g id="node29" class="node">
<title>Node29</title>
<g id="a_node29"><a xlink:href="../../d3/d2c/a00764.html" target="_top" xlink:title=" ">
<polygon fill="none" stroke="black" points="212.5,-582.5 212.5,-601.5 367.5,-601.5 367.5,-582.5 212.5,-582.5"/>
<text text-anchor="middle" x="290" y="-589.5" font-family="Helvetica,sans-Serif" font-size="10.00">discordcoreapi/UserEntities.hpp</text>
</a>
</g>
</g>
<!-- Node2&#45;&gt;Node29 -->
<g id="edge28" class="edge">
<title>Node2&#45;&gt;Node29</title>
<path fill="none" stroke="midnightblue" d="M290,-638.08C290,-631.01 290,-620.86 290,-611.99"/>
<polygon fill="midnightblue" stroke="midnightblue" points="293.5,-611.75 290,-601.75 286.5,-611.75 293.5,-611.75"/>
</g>
<!-- Node4 -->
<g id="node4" class="node">
<title>Node4</title>
<g id="a_node4"><a xlink:href="../../d5/dae/a00767.html" target="_top" xlink:title=" ">
<polygon fill="none" stroke="black" points="1044,-56.5 1044,-75.5 1178,-75.5 1178,-56.5 1044,-56.5"/>
<text text-anchor="middle" x="1111" y="-63.5" font-family="Helvetica,sans-Serif" font-size="10.00">discordcoreapi/Utilities.hpp</text>
</a>
</g>
</g>
<!-- Node3&#45;&gt;Node4 -->
<g id="edge3" class="edge">
<title>Node3&#45;&gt;Node4</title>
<path fill="none" stroke="midnightblue" d="M612.53,-119.59C717.24,-108.54 921.85,-86.96 1033.6,-75.17"/>
<polygon fill="midnightblue" stroke="midnightblue" points="1034.22,-78.62 1043.79,-74.09 1033.48,-71.66 1034.22,-78.62"/>
</g>
<!-- Node5 -->
<g id="node5" class="node">
<title>Node5</title>
<g id="a_node5"><a xlink:title=" ">
<polygon fill="none" stroke="#bfbfbf" points="1511.5,-0.5 1511.5,-19.5 1568.5,-19.5 1568.5,-0.5 1511.5,-0.5"/>
<text text-anchor="middle" x="1540" y="-7.5" font-family="Helvetica,sans-Serif" font-size="10.00">pthread.h</text>
</a>
</g>
</g>
<!-- Node4&#45;&gt;Node5 -->
<g id="edge4" class="edge">
<title>Node4&#45;&gt;Node5</title>
<path fill="none" stroke="midnightblue" d="M1178.11,-59.7C1254.13,-53.15 1381.88,-40.51 1501.38,-19.9"/>
<polygon fill="midnightblue" stroke="midnightblue" points="1502.19,-23.31 1511.44,-18.15 1500.99,-16.42 1502.19,-23.31"/>
</g>
<!-- Node6 -->
<g id="node6" class="node">
<title>Node6</title>
<g id="a_node6"><a xlink:title=" ">
<polygon fill="none" stroke="#bfbfbf" points="1587,-0.5 1587,-19.5 1649,-19.5 1649,-0.5 1587,-0.5"/>
<text text-anchor="middle" x="1618" y="-7.5" font-family="Helvetica,sans-Serif" font-size="10.00">sys/time.h</text>
</a>
</g>
</g>
<!-- Node4&#45;&gt;Node6 -->
<g id="edge5" class="edge">
<title>Node4&#45;&gt;Node6</title>
<path fill="none" stroke="midnightblue" d="M1178.07,-61.06C1266.86,-55.27 1428.43,-42.8 1576.55,-19.86"/>
<polygon fill="midnightblue" stroke="midnightblue" points="1577.4,-23.27 1586.73,-18.27 1576.31,-16.36 1577.4,-23.27"/>
</g>
<!-- Node7 -->
<g id="node7" class="node">
<title>Node7</title>
<g id="a_node7"><a xlink:title=" ">
<polygon fill="none" stroke="#bfbfbf" points="1667,-0.5 1667,-19.5 1711,-19.5 1711,-0.5 1667,-0.5"/>
<text text-anchor="middle" x="1689" y="-7.5" font-family="Helvetica,sans-Serif" font-size="10.00">time.h</text>
</a>
</g>
</g>
<!-- Node4&#45;&gt;Node7 -->
<g id="edge6" class="edge">
<title>Node4&#45;&gt;Node7</title>
<path fill="none" stroke="midnightblue" d="M1178.09,-63.8C1279.88,-61.03 1479.41,-51.88 1656.74,-19.87"/>
<polygon fill="midnightblue" stroke="midnightblue" points="1657.57,-23.28 1666.78,-18.03 1656.31,-16.39 1657.57,-23.28"/>
</g>
<!-- Node8 -->
<g id="node8" class="node">
<title>Node8</title>
<g id="a_node8"><a xlink:title=" ">
<polygon fill="none" stroke="#bfbfbf" points="1729.5,-0.5 1729.5,-19.5 1770.5,-19.5 1770.5,-0.5 1729.5,-0.5"/>
<text text-anchor="middle" x="1750" y="-7.5" font-family="Helvetica,sans-Serif" font-size="10.00">ctime</text>
</a>
</g>
</g>
<!-- Node4&#45;&gt;Node8 -->
<g id="edge7" class="edge">
<title>Node4&#45;&gt;Node8</title>
<path fill="none" stroke="midnightblue" d="M1178.29,-64.79C1289.39,-63.4 1518.04,-56.14 1719.61,-19.61"/>
<polygon fill="midnightblue" stroke="midnightblue" points="1720.29,-23.05 1729.49,-17.8 1719.02,-16.16 1720.29,-23.05"/>
</g>
<!-- Node9 -->
<g id="node9" class="node">
<title>Node9</title>
<g id="a_node9"><a xlink:title=" ">
<polygon fill="none" stroke="#bfbfbf" points="131.5,-0.5 131.5,-19.5 224.5,-19.5 224.5,-0.5 131.5,-0.5"/>
<text text-anchor="middle" x="178" y="-7.5" font-family="Helvetica,sans-Serif" font-size="10.00">condition_variable</text>
</a>
</g>
</g>
<!-- Node4&#45;&gt;Node9 -->
<g id="edge8" class="edge">
<title>Node4&#45;&gt;Node9</title>
<path fill="none" stroke="midnightblue" d="M1043.97,-64.03C898.51,-61.39 542.89,-52.03 234.72,-19.95"/>
<polygon fill="midnightblue" stroke="midnightblue" points="235.01,-16.46 224.7,-18.89 234.28,-23.42 235.01,-16.46"/>
</g>
<!-- Node10 -->
<g id="node10" class="node">
<title>Node10</title>
<g id="a_node10"><a xlink:title=" ">
<polygon fill="none" stroke="#bfbfbf" points="243,-0.5 243,-19.5 341,-19.5 341,-0.5 243,-0.5"/>
<text text-anchor="middle" x="292" y="-7.5" font-family="Helvetica,sans-Serif" font-size="10.00">nlohmann/json.hpp</text>
</a>
</g>
</g>
<!-- Node4&#45;&gt;Node10 -->
<g id="edge9" class="edge">
<title>Node4&#45;&gt;Node10</title>
<path fill="none" stroke="midnightblue" d="M1043.89,-63.17C912.77,-59.13 613.2,-47.61 351.1,-20.01"/>
<polygon fill="midnightblue" stroke="midnightblue" points="351.32,-16.52 341,-18.94 350.58,-23.48 351.32,-16.52"/>
</g>
<!-- Node11 -->
<g id="node11" class="node">
<title>Node11</title>
<g id="a_node11"><a xlink:title=" ">
<polygon fill="none" stroke="#bfbfbf" points="359.5,-0.5 359.5,-19.5 444.5,-19.5 444.5,-0.5 359.5,-0.5"/>
<text text-anchor="middle" x="402" y="-7.5" font-family="Helvetica,sans-Serif" font-size="10.00">source_location</text>
</a>
</g>
</g>
<!-- Node4&#45;&gt;Node11 -->
<g id="edge10" class="edge">
<title>Node4&#45;&gt;Node11</title>
<path fill="none" stroke="midnightblue" d="M1043.99,-62.77C926.57,-58.35 675.84,-46.62 454.7,-20.09"/>
<polygon fill="midnightblue" stroke="midnightblue" points="454.87,-16.58 444.53,-18.85 454.03,-23.53 454.87,-16.58"/>
</g>
<!-- Node12 -->
<g id="node12" class="node">
<title>Node12</title>
<g id="a_node12"><a xlink:title=" ">
<polygon fill="none" stroke="#bfbfbf" points="462.5,-0.5 462.5,-19.5 545.5,-19.5 545.5,-0.5 462.5,-0.5"/>
<text text-anchor="middle" x="504" y="-7.5" font-family="Helvetica,sans-Serif" font-size="10.00">unordered_map</text>
</a>
</g>
</g>
<!-- Node4&#45;&gt;Node12 -->
<g id="edge11" class="edge">
<title>Node4&#45;&gt;Node12</title>
<path fill="none" stroke="midnightblue" d="M1043.6,-61.59C940.69,-55.94 738.03,-43.02 555.74,-19.97"/>
<polygon fill="midnightblue" stroke="midnightblue" points="556.06,-16.48 545.7,-18.69 555.18,-23.43 556.06,-16.48"/>
</g>
<!-- Node13 -->
<g id="node13" class="node">
<title>Node13</title>
<g id="a_node13"><a xlink:title=" ">
<polygon fill="none" stroke="#bfbfbf" points="564,-0.5 564,-19.5 642,-19.5 642,-0.5 564,-0.5"/>
<text text-anchor="middle" x="603" y="-7.5" font-family="Helvetica,sans-Serif" font-size="10.00">shared_mutex</text>
</a>
</g>
</g>
<!-- Node4&#45;&gt;Node13 -->
<g id="edge12" class="edge">
<title>Node4&#45;&gt;Node13</title>
<path fill="none" stroke="midnightblue" d="M1043.74,-60.28C955.95,-53.71 797.35,-40.41 652.23,-20.06"/>
<polygon fill="midnightblue" stroke="midnightblue" points="652.64,-16.59 642.25,-18.65 651.66,-23.52 652.64,-16.59"/>
</g>
<!-- Node14 -->
<g id="node14" class="node">
<title>Node14</title>
<g id="a_node14"><a xlink:title=" ">
<polygon fill="none" stroke="#bfbfbf" points="660,-0.5 660,-19.5 718,-19.5 718,-0.5 660,-0.5"/>
<text text-anchor="middle" x="689" y="-7.5" font-family="Helvetica,sans-Serif" font-size="10.00">functional</text>
</a>
</g>
</g>
<!-- Node4&#45;&gt;Node14 -->
<g id="edge13" class="edge">
<title>Node4&#45;&gt;Node14</title>
<path fill="none" stroke="midnightblue" d="M1043.72,-59.5C968.96,-52.84 844.52,-40.19 728.51,-20.09"/>
<polygon fill="midnightblue" stroke="midnightblue" points="728.84,-16.6 718.39,-18.32 727.63,-23.49 728.84,-16.6"/>
</g>
<!-- Node15 -->
<g id="node15" class="node">
<title>Node15</title>
<g id="a_node15"><a xlink:title=" ">
<polygon fill="none" stroke="#bfbfbf" points="736,-0.5 736,-19.5 792,-19.5 792,-0.5 736,-0.5"/>
<text text-anchor="middle" x="764" y="-7.5" font-family="Helvetica,sans-Serif" font-size="10.00">coroutine</text>
</a>
</g>
</g>
<!-- Node4&#45;&gt;Node15 -->
<g id="edge14" class="edge">
<title>Node4&#45;&gt;Node15</title>
<path fill="none" stroke="midnightblue" d="M1043.87,-57.11C983.15,-49.56 891.1,-37.06 802.2,-20.08"/>
<polygon fill="midnightblue" stroke="midnightblue" points="802.7,-16.62 792.22,-18.16 801.38,-23.49 802.7,-16.62"/>
</g>
<!-- Node16 -->
<g id="node16" class="node">
<title>Node16</title>
<g id="a_node16"><a xlink:title=" ">
<polygon fill="none" stroke="#bfbfbf" points="1788.5,-0.5 1788.5,-19.5 1853.5,-19.5 1853.5,-0.5 1788.5,-0.5"/>
<text text-anchor="middle" x="1821" y="-7.5" font-family="Helvetica,sans-Serif" font-size="10.00">semaphore</text>
</a>
</g>
</g>
<!-- Node4&#45;&gt;Node16 -->
<g id="edge15" class="edge">
<title>Node4&#45;&gt;Node16</title>
<path fill="none" stroke="midnightblue" d="M1178.17,-63.67C1297.18,-60.6 1552.94,-50.89 1778.05,-19.92"/>
<polygon fill="midnightblue" stroke="midnightblue" points="1778.64,-23.37 1788.06,-18.53 1777.68,-16.44 1778.64,-23.37"/>
</g>
<!-- Node17 -->
<g id="node17" class="node">
<title>Node17</title>
<g id="a_node17"><a xlink:title=" ">
<polygon fill="none" stroke="#bfbfbf" points="810,-0.5 810,-19.5 866,-19.5 866,-0.5 810,-0.5"/>
<text text-anchor="middle" x="838" y="-7.5" font-family="Helvetica,sans-Serif" font-size="10.00">concepts</text>
</a>
</g>
</g>
<!-- Node4&#45;&gt;Node17 -->
<g id="edge16" class="edge">
<title>Node4&#45;&gt;Node17</title>
<path fill="none" stroke="midnightblue" d="M1062.49,-56.49C1016.83,-48.31 946.3,-35.25 876.14,-20.17"/>
<polygon fill="midnightblue" stroke="midnightblue" points="876.76,-16.72 866.25,-18.03 875.28,-23.56 876.76,-16.72"/>
</g>
<!-- Node18 -->
<g id="node18" class="node">
<title>Node18</title>
<g id="a_node18"><a xlink:title=" ">
<polygon fill="none" stroke="#bfbfbf" points="884,-0.5 884,-19.5 938,-19.5 938,-0.5 884,-0.5"/>
<text text-anchor="middle" x="911" y="-7.5" font-family="Helvetica,sans-Serif" font-size="10.00">iostream</text>
</a>
</g>
</g>
<!-- Node4&#45;&gt;Node18 -->
<g id="edge17" class="edge">
<title>Node4&#45;&gt;Node18</title>
<path fill="none" stroke="midnightblue" d="M1079.31,-56.44C1043.67,-46.82 985.85,-31.21 948.13,-21.02"/>
<polygon fill="midnightblue" stroke="midnightblue" points="948.62,-17.53 938.05,-18.3 946.79,-24.29 948.62,-17.53"/>
</g>
<!-- Node4&#45;&gt;Node19 -->
<g id="edge18" class="edge">
<title>Node4&#45;&gt;Node19</title>
<path fill="none" stroke="midnightblue" d="M1178.01,-63.35C1309.53,-59.59 1610.53,-48.41 1862,-20 1868.17,-19.3 1874.71,-18.38 1881.03,-17.38"/>
<polygon fill="midnightblue" stroke="midnightblue" points="1882.05,-20.76 1891.34,-15.67 1880.91,-13.85 1882.05,-20.76"/>
</g>
<!-- Node20 -->
<g id="node20" class="node">
<title>Node20</title>
<g id="a_node20"><a xlink:title=" ">
<polygon fill="none" stroke="#bfbfbf" points="956.5,-0.5 956.5,-19.5 997.5,-19.5 997.5,-0.5 956.5,-0.5"/>
<text text-anchor="middle" x="977" y="-7.5" font-family="Helvetica,sans-Serif" font-size="10.00">bitset</text>
</a>
</g>
</g>
<!-- Node4&#45;&gt;Node20 -->
<g id="edge19" class="edge">
<title>Node4&#45;&gt;Node20</title>
<path fill="none" stroke="midnightblue" d="M1089.77,-56.44C1067.49,-47.46 1032.27,-33.27 1007.12,-23.14"/>
<polygon fill="midnightblue" stroke="midnightblue" points="1008.28,-19.83 997.69,-19.34 1005.66,-26.32 1008.28,-19.83"/>
</g>
<!-- Node21 -->
<g id="node21" class="node">
<title>Node21</title>
<g id="a_node21"><a xlink:title=" ">
<polygon fill="none" stroke="#bfbfbf" points="1016,-0.5 1016,-19.5 1068,-19.5 1068,-0.5 1016,-0.5"/>
<text text-anchor="middle" x="1042" y="-7.5" font-family="Helvetica,sans-Serif" font-size="10.00">memory</text>
</a>
</g>
</g>
<!-- Node4&#45;&gt;Node21 -->
<g id="edge20" class="edge">
<title>Node4&#45;&gt;Node21</title>
<path fill="none" stroke="midnightblue" d="M1099.91,-56.32C1089.51,-48.18 1073.74,-35.84 1061.28,-26.09"/>
<polygon fill="midnightblue" stroke="midnightblue" points="1063.32,-23.24 1053.29,-19.83 1059.01,-28.75 1063.32,-23.24"/>
</g>
<!-- Node22 -->
<g id="node22" class="node">
<title>Node22</title>
<g id="a_node22"><a xlink:title=" ">
<polygon fill="none" stroke="#bfbfbf" points="1086.5,-0.5 1086.5,-19.5 1135.5,-19.5 1135.5,-0.5 1086.5,-0.5"/>
<text text-anchor="middle" x="1111" y="-7.5" font-family="Helvetica,sans-Serif" font-size="10.00">random</text>
</a>
</g>
</g>
<!-- Node4&#45;&gt;Node22 -->
<g id="edge21" class="edge">
<title>Node4&#45;&gt;Node22</title>
<path fill="none" stroke="midnightblue" d="M1111,-56.08C1111,-49.01 1111,-38.86 1111,-29.99"/>
<polygon fill="midnightblue" stroke="midnightblue" points="1114.5,-29.75 1111,-19.75 1107.5,-29.75 1114.5,-29.75"/>
</g>
<!-- Node23 -->
<g id="node23" class="node">
<title>Node23</title>
<g id="a_node23"><a xlink:title=" ">
<polygon fill="none" stroke="#bfbfbf" points="1153.5,-0.5 1153.5,-19.5 1194.5,-19.5 1194.5,-0.5 1153.5,-0.5"/>
<text text-anchor="middle" x="1174" y="-7.5" font-family="Helvetica,sans-Serif" font-size="10.00">string</text>
</a>
</g>
</g>
<!-- Node4&#45;&gt;Node23 -->
<g id="edge22" class="edge">
<title>Node4&#45;&gt;Node23</title>
<path fill="none" stroke="midnightblue" d="M1121.12,-56.32C1130.53,-48.26 1144.74,-36.08 1156.07,-26.37"/>
<polygon fill="midnightblue" stroke="midnightblue" points="1158.38,-29 1163.69,-19.83 1153.82,-23.68 1158.38,-29"/>
</g>
<!-- Node24 -->
<g id="node24" class="node">
<title>Node24</title>
<g id="a_node24"><a xlink:title=" ">
<polygon fill="none" stroke="#bfbfbf" points="1213,-0.5 1213,-19.5 1255,-19.5 1255,-0.5 1213,-0.5"/>
<text text-anchor="middle" x="1234" y="-7.5" font-family="Helvetica,sans-Serif" font-size="10.00">vector</text>
</a>
</g>
</g>
<!-- Node4&#45;&gt;Node24 -->
<g id="edge23" class="edge">
<title>Node4&#45;&gt;Node24</title>
<path fill="none" stroke="midnightblue" d="M1130.49,-56.44C1150.64,-47.6 1182.32,-33.69 1205.33,-23.59"/>
<polygon fill="midnightblue" stroke="midnightblue" points="1206.85,-26.74 1214.6,-19.52 1204.04,-20.33 1206.85,-26.74"/>
</g>
<!-- Node25 -->
<g id="node25" class="node">
<title>Node25</title>
<g id="a_node25"><a xlink:title=" ">
<polygon fill="none" stroke="#bfbfbf" points="1273,-0.5 1273,-19.5 1317,-19.5 1317,-0.5 1273,-0.5"/>
<text text-anchor="middle" x="1295" y="-7.5" font-family="Helvetica,sans-Serif" font-size="10.00">thread</text>
</a>
</g>
</g>
<!-- Node4&#45;&gt;Node25 -->
<g id="edge24" class="edge">
<title>Node4&#45;&gt;Node25</title>
<path fill="none" stroke="midnightblue" d="M1140.16,-56.44C1173.73,-46.59 1228.68,-30.46 1263.3,-20.3"/>
<polygon fill="midnightblue" stroke="midnightblue" points="1264.3,-23.66 1272.91,-17.48 1262.33,-16.94 1264.3,-23.66"/>
</g>
<!-- Node26 -->
<g id="node26" class="node">
<title>Node26</title>
<g id="a_node26"><a xlink:title=" ">
<polygon fill="none" stroke="#bfbfbf" points="1335,-0.5 1335,-19.5 1379,-19.5 1379,-0.5 1335,-0.5"/>
<text text-anchor="middle" x="1357" y="-7.5" font-family="Helvetica,sans-Serif" font-size="10.00">mutex</text>
</a>
</g>
</g>
<!-- Node4&#45;&gt;Node26 -->
<g id="edge25" class="edge">
<title>Node4&#45;&gt;Node26</title>
<path fill="none" stroke="midnightblue" d="M1156.95,-56.44C1198.5,-48.45 1261.56,-35.76 1324.94,-20.12"/>
<polygon fill="midnightblue" stroke="midnightblue" points="1325.85,-23.51 1334.7,-17.69 1324.15,-16.71 1325.85,-23.51"/>
</g>
<!-- Node27 -->
<g id="node27" class="node">
<title>Node27</title>
<g id="a_node27"><a xlink:title=" ">
<polygon fill="none" stroke="#bfbfbf" points="1397.5,-0.5 1397.5,-19.5 1440.5,-19.5 1440.5,-0.5 1397.5,-0.5"/>
<text text-anchor="middle" x="1419" y="-7.5" font-family="Helvetica,sans-Serif" font-size="10.00">queue</text>
</a>
</g>
</g>
<!-- Node4&#45;&gt;Node27 -->
<g id="edge26" class="edge">
<title>Node4&#45;&gt;Node27</title>
<path fill="none" stroke="midnightblue" d="M1177.76,-56.47C1231.83,-49.04 1310.09,-37.08 1387.48,-19.87"/>
<polygon fill="midnightblue" stroke="midnightblue" points="1388.42,-23.25 1397.41,-17.63 1386.88,-16.42 1388.42,-23.25"/>
</g>
<!-- Node28 -->
<g id="node28" class="node">
<title>Node28</title>
<g id="a_node28"><a xlink:title=" ">
<polygon fill="none" stroke="#bfbfbf" points="1458.5,-0.5 1458.5,-19.5 1493.5,-19.5 1493.5,-0.5 1458.5,-0.5"/>
<text text-anchor="middle" x="1476" y="-7.5" font-family="Helvetica,sans-Serif" font-size="10.00">map</text>
</a>
</g>
</g>
<!-- Node4&#45;&gt;Node28 -->
<g id="edge27" class="edge">
<title>Node4&#45;&gt;Node28</title>
<path fill="none" stroke="midnightblue" d="M1178.05,-59.84C1244.52,-53.88 1349.26,-42.21 1448.52,-19.68"/>
<polygon fill="midnightblue" stroke="midnightblue" points="1449.46,-23.05 1458.42,-17.39 1447.89,-16.23 1449.46,-23.05"/>
</g>
<!-- Node29&#45;&gt;Node3 -->
<g id="edge29" class="edge">
<title>Node29&#45;&gt;Node3</title>
<path fill="none" stroke="midnightblue" d="M212.34,-585.75C138.29,-576.02 38,-548.38 38,-470 38,-470 38,-470 38,-244 38,-210.54 47.9,-197.18 76,-179 139.5,-137.91 354.93,-129.8 471.16,-128.48"/>
<polygon fill="midnightblue" stroke="midnightblue" points="471.44,-131.98 481.41,-128.38 471.37,-124.98 471.44,-131.98"/>
</g>
<!-- Node30 -->
<g id="node30" class="node">
<title>Node30</title>
<g id="a_node30"><a xlink:href="../../d9/dd4/a00776.html" target="_top" xlink:title=" ">
<polygon fill="none" stroke="black" points="409,-515.5 409,-545.5 543,-545.5 543,-515.5 409,-515.5"/>
<text text-anchor="start" x="417" y="-533.5" font-family="Helvetica,sans-Serif" font-size="10.00">discordcoreapi/WebSocket</text>
<text text-anchor="middle" x="476" y="-522.5" font-family="Helvetica,sans-Serif" font-size="10.00">Entities.hpp</text>
</a>
</g>
</g>
<!-- Node29&#45;&gt;Node30 -->
<g id="edge30" class="edge">
<title>Node29&#45;&gt;Node30</title>
<path fill="none" stroke="midnightblue" d="M316.65,-582.48C344.19,-573.66 387.94,-559.67 422.64,-548.57"/>
<polygon fill="midnightblue" stroke="midnightblue" points="423.71,-551.9 432.16,-545.52 421.57,-545.24 423.71,-551.9"/>
</g>
<!-- Node30&#45;&gt;Node3 -->
<g id="edge63" class="edge">
<title>Node30&#45;&gt;Node3</title>
<path fill="none" stroke="midnightblue" d="M468.54,-515.36C458,-494.01 440,-452.02 440,-414 440,-414 440,-414 440,-244 440,-213.9 440.38,-202.65 459,-179 469.56,-165.59 484.73,-155.1 499.51,-147.24"/>
<polygon fill="midnightblue" stroke="midnightblue" points="501.24,-150.28 508.62,-142.68 498.11,-144.02 501.24,-150.28"/>
</g>
<!-- Node31 -->
<g id="node31" class="node">
<title>Node31</title>
<g id="a_node31"><a xlink:href="../../d4/d9b/a00680.html" target="_top" xlink:title=" ">
<polygon fill="none" stroke="black" points="250,-235.5 250,-254.5 412,-254.5 412,-235.5 250,-235.5"/>
<text text-anchor="middle" x="331" y="-242.5" font-family="Helvetica,sans-Serif" font-size="10.00">discordcoreapi/AudioDecoder.hpp</text>
</a>
</g>
</g>
<!-- Node30&#45;&gt;Node31 -->
<g id="edge31" class="edge">
<title>Node30&#45;&gt;Node31</title>
<path fill="none" stroke="midnightblue" d="M447.93,-515.35C415.63,-496.84 367,-461.15 367,-414 367,-414 367,-414 367,-356 367,-321.98 351.26,-284.85 340.59,-263.6"/>
<polygon fill="midnightblue" stroke="midnightblue" points="343.59,-261.77 335.86,-254.53 337.38,-265.01 343.59,-261.77"/>
</g>
<!-- Node32 -->
<g id="node32" class="node">
<title>Node32</title>
<g id="a_node32"><a xlink:href="../../d4/d6a/a00704.html" target="_top" xlink:title=" ">
<polygon fill="none" stroke="black" points="468,-179.5 468,-198.5 626,-198.5 626,-179.5 468,-179.5"/>
<text text-anchor="middle" x="547" y="-186.5" font-family="Helvetica,sans-Serif" font-size="10.00">discordcoreapi/EventEntities.hpp</text>
</a>
</g>
</g>
<!-- Node30&#45;&gt;Node32 -->
<g id="edge62" class="edge">
<title>Node30&#45;&gt;Node32</title>
<path fill="none" stroke="midnightblue" d="M483.46,-515.36C494,-494.01 512,-452.02 512,-414 512,-414 512,-414 512,-300 512,-266.07 527.31,-228.91 537.68,-207.63"/>
<polygon fill="midnightblue" stroke="midnightblue" points="540.88,-209.05 542.28,-198.54 534.64,-205.88 540.88,-209.05"/>
</g>
<!-- Node35 -->
<g id="node35" class="node">
<title>Node35</title>
<g id="a_node35"><a xlink:href="../../d0/db6/a00692.html" target="_top" xlink:title=" ">
<polygon fill="none" stroke="black" points="1526.5,-459.5 1526.5,-478.5 1713.5,-478.5 1713.5,-459.5 1526.5,-459.5"/>
<text text-anchor="middle" x="1620" y="-466.5" font-family="Helvetica,sans-Serif" font-size="10.00">discordcoreapi/CommandController.hpp</text>
</a>
</g>
</g>
<!-- Node30&#45;&gt;Node35 -->
<g id="edge37" class="edge">
<title>Node30&#45;&gt;Node35</title>
<path fill="none" stroke="midnightblue" d="M543.29,-526C735.13,-516.02 1285.78,-487.38 1516.42,-475.39"/>
<polygon fill="midnightblue" stroke="midnightblue" points="1516.69,-478.88 1526.49,-474.86 1516.32,-471.89 1516.69,-478.88"/>
</g>
<!-- Node37 -->
<g id="node37" class="node">
<title>Node37</title>
<g id="a_node37"><a xlink:href="../../d3/d4f/a00761.html" target="_top" xlink:title=" ">
<polygon fill="none" stroke="black" points="1720,-347.5 1720,-366.5 1870,-366.5 1870,-347.5 1720,-347.5"/>
<text text-anchor="middle" x="1795" y="-354.5" font-family="Helvetica,sans-Serif" font-size="10.00">discordcoreapi/ThreadPool.hpp</text>
</a>
</g>
</g>
<!-- Node30&#45;&gt;Node37 -->
<g id="edge65" class="edge">
<title>Node30&#45;&gt;Node37</title>
<path fill="none" stroke="midnightblue" d="M543.23,-528.96C786.18,-526.72 1610.16,-516.4 1722,-479 1763.51,-465.12 1782.68,-461.76 1803,-423 1810.58,-408.54 1807.14,-389.85 1802.66,-376.22"/>
<polygon fill="midnightblue" stroke="midnightblue" points="1805.82,-374.69 1799.03,-366.56 1799.27,-377.15 1805.82,-374.69"/>
</g>
<!-- Node39 -->
<g id="node39" class="node">
<title>Node39</title>
<g id="a_node39"><a xlink:href="../../d5/de8/a00749.html" target="_top" xlink:title=" ">
<polygon fill="none" stroke="black" points="1002,-235.5 1002,-254.5 1152,-254.5 1152,-235.5 1002,-235.5"/>
<text text-anchor="middle" x="1077" y="-242.5" font-family="Helvetica,sans-Serif" font-size="10.00">discordcoreapi/SSLClients.hpp</text>
</a>
</g>
</g>
<!-- Node30&#45;&gt;Node39 -->
<g id="edge64" class="edge">
<title>Node30&#45;&gt;Node39</title>
<path fill="none" stroke="midnightblue" d="M543.05,-519.05C636.35,-502.59 794,-466.94 794,-414 794,-414 794,-414 794,-356 794,-308.31 935.4,-273.08 1018.3,-256.52"/>
<polygon fill="midnightblue" stroke="midnightblue" points="1019.21,-259.91 1028.35,-254.55 1017.86,-253.04 1019.21,-259.91"/>
</g>
<!-- Node52 -->
<g id="node52" class="node">
<title>Node52</title>
<g id="a_node52"><a xlink:href="../../dd/d57/a00701.html" target="_top" xlink:title=" ">
<polygon fill="none" stroke="black" points="113,-403.5 113,-422.5 257,-422.5 257,-403.5 113,-403.5"/>
<text text-anchor="middle" x="185" y="-410.5" font-family="Helvetica,sans-Serif" font-size="10.00">discordcoreapi/ErlPacker.hpp</text>
</a>
</g>
</g>
<!-- Node30&#45;&gt;Node52 -->
<g id="edge60" class="edge">
<title>Node30&#45;&gt;Node52</title>
<path fill="none" stroke="midnightblue" d="M440.61,-515.45C383.14,-492.64 270.49,-447.93 216,-426.3"/>
<polygon fill="midnightblue" stroke="midnightblue" points="217.11,-422.98 206.52,-422.54 214.53,-429.48 217.11,-422.98"/>
</g>
<!-- Node31&#45;&gt;Node3 -->
<g id="edge34" class="edge">
<title>Node31&#45;&gt;Node3</title>
<path fill="none" stroke="midnightblue" d="M341.93,-235.42C359.13,-222.17 393.87,-196.46 426,-179 449.01,-166.5 475.78,-155.03 498.28,-146.2"/>
<polygon fill="midnightblue" stroke="midnightblue" points="499.58,-149.45 507.64,-142.57 497.05,-142.92 499.58,-149.45"/>
</g>
<!-- Node31&#45;&gt;Node32 -->
<g id="edge32" class="edge">
<title>Node31&#45;&gt;Node32</title>
<path fill="none" stroke="midnightblue" d="M365.23,-235.44C402.51,-226.12 462.27,-211.18 503.01,-201"/>
<polygon fill="midnightblue" stroke="midnightblue" points="504.08,-204.34 512.93,-198.52 502.38,-197.55 504.08,-204.34"/>
</g>
<!-- Node33 -->
<g id="node33" class="node">
<title>Node33</title>
<g id="a_node33"><a xlink:title=" ">
<polygon fill="none" stroke="#bfbfbf" points="264,-179.5 264,-198.5 374,-198.5 374,-179.5 264,-179.5"/>
<text text-anchor="middle" x="319" y="-186.5" font-family="Helvetica,sans-Serif" font-size="10.00">libavformat/avformat.h</text>
</a>
</g>
</g>
<!-- Node31&#45;&gt;Node33 -->
<g id="edge35" class="edge">
<title>Node31&#45;&gt;Node33</title>
<path fill="none" stroke="midnightblue" d="M329.02,-235.08C327.43,-227.93 325.14,-217.64 323.15,-208.69"/>
<polygon fill="midnightblue" stroke="midnightblue" points="326.53,-207.75 320.94,-198.75 319.7,-209.27 326.53,-207.75"/>
</g>
<!-- Node34 -->
<g id="node34" class="node">
<title>Node34</title>
<g id="a_node34"><a xlink:title=" ">
<polygon fill="none" stroke="#bfbfbf" points="104.5,-179.5 104.5,-198.5 245.5,-198.5 245.5,-179.5 104.5,-179.5"/>
<text text-anchor="middle" x="175" y="-186.5" font-family="Helvetica,sans-Serif" font-size="10.00">libswresample/swresample.h</text>
</a>
</g>
</g>
<!-- Node31&#45;&gt;Node34 -->
<g id="edge36" class="edge">
<title>Node31&#45;&gt;Node34</title>
<path fill="none" stroke="midnightblue" d="M306.28,-235.44C280.15,-226.4 238.74,-212.06 209.42,-201.92"/>
<polygon fill="midnightblue" stroke="midnightblue" points="210.2,-198.48 199.6,-198.52 207.91,-205.1 210.2,-198.48"/>
</g>
<!-- Node32&#45;&gt;Node3 -->
<g id="edge33" class="edge">
<title>Node32&#45;&gt;Node3</title>
<path fill="none" stroke="midnightblue" d="M547,-179.48C547,-172.47 547,-162.19 547,-152.7"/>
<polygon fill="midnightblue" stroke="midnightblue" points="550.5,-152.52 547,-142.52 543.5,-152.52 550.5,-152.52"/>
</g>
<!-- Node35&#45;&gt;Node3 -->
<g id="edge59" class="edge">
<title>Node35&#45;&gt;Node3</title>
<path fill="none" stroke="midnightblue" d="M1622.01,-459.3C1631.91,-415.58 1673.37,-220.24 1634,-179 1599.12,-142.46 863.46,-131.72 622.6,-129.18"/>
<polygon fill="midnightblue" stroke="midnightblue" points="622.57,-125.68 612.53,-129.08 622.5,-132.68 622.57,-125.68"/>
</g>
<!-- Node35&#45;&gt;Node36 -->
<g id="edge38" class="edge">
<title>Node35&#45;&gt;Node36</title>
<path fill="none" stroke="midnightblue" d="M1636.23,-459.32C1652.35,-450.7 1677.3,-437.36 1695.96,-427.39"/>
<polygon fill="midnightblue" stroke="midnightblue" points="1697.64,-430.46 1704.81,-422.65 1694.34,-424.28 1697.64,-430.46"/>
</g>
<!-- Node36&#45;&gt;Node3 -->
<g id="edge39" class="edge">
<title>Node36&#45;&gt;Node3</title>
<path fill="none" stroke="midnightblue" d="M1717.09,-403.36C1709.17,-385.07 1692,-340.91 1692,-302 1692,-302 1692,-302 1692,-244 1692,-213.2 1692.86,-197.17 1668,-179 1625.84,-148.19 867.88,-133.56 622.78,-129.63"/>
<polygon fill="midnightblue" stroke="midnightblue" points="622.59,-126.12 612.53,-129.46 622.48,-133.12 622.59,-126.12"/>
</g>
<!-- Node36&#45;&gt;Node37 -->
<g id="edge40" class="edge">
<title>Node36&#45;&gt;Node37</title>
<path fill="none" stroke="midnightblue" d="M1732.89,-403.32C1744.15,-395.11 1761.29,-382.6 1774.71,-372.81"/>
<polygon fill="midnightblue" stroke="midnightblue" points="1776.88,-375.56 1782.89,-366.83 1772.75,-369.9 1776.88,-375.56"/>
</g>
<!-- Node37&#45;&gt;Node3 -->
<g id="edge41" class="edge">
<title>Node37&#45;&gt;Node3</title>
<path fill="none" stroke="midnightblue" d="M1783.23,-347.22C1772.88,-338.93 1758.08,-325.62 1749,-311 1716.45,-258.58 1755.13,-216.33 1706,-179 1662.87,-146.23 873.66,-132.87 622.85,-129.44"/>
<polygon fill="midnightblue" stroke="midnightblue" points="622.78,-125.94 612.73,-129.31 622.68,-132.94 622.78,-125.94"/>
</g>
<!-- Node37&#45;&gt;Node38 -->
<g id="edge42" class="edge">
<title>Node37&#45;&gt;Node38</title>
<path fill="none" stroke="midnightblue" d="M1799.29,-347.08C1802.85,-339.69 1808.02,-328.95 1812.42,-319.81"/>
<polygon fill="midnightblue" stroke="midnightblue" points="1815.6,-321.28 1816.79,-310.75 1809.29,-318.24 1815.6,-321.28"/>
</g>
<!-- Node38&#45;&gt;Node16 -->
<g id="edge58" class="edge">
<title>Node38&#45;&gt;Node16</title>
<path fill="none" stroke="midnightblue" d="M1821,-291.44C1821,-272.94 1821,-227.81 1821,-190 1821,-190 1821,-190 1821,-126.5 1821,-92.36 1821,-52.55 1821,-29.71"/>
<polygon fill="midnightblue" stroke="midnightblue" points="1824.5,-29.69 1821,-19.69 1817.5,-29.69 1824.5,-29.69"/>
</g>
<!-- Node38&#45;&gt;Node39 -->
<g id="edge43" class="edge">
<title>Node38&#45;&gt;Node39</title>
<path fill="none" stroke="midnightblue" d="M1758.21,-295.44C1624.91,-285.77 1313.5,-263.17 1162.34,-252.19"/>
<polygon fill="midnightblue" stroke="midnightblue" points="1162.4,-248.69 1152.18,-251.46 1161.9,-255.67 1162.4,-248.69"/>
</g>
<!-- Node39&#45;&gt;Node3 -->
<g id="edge54" class="edge">
<title>Node39&#45;&gt;Node3</title>
<path fill="none" stroke="midnightblue" d="M1001.8,-244.47C919.24,-242.96 783.71,-234.53 673,-199 668.04,-197.41 616.44,-168.19 580.84,-147.87"/>
<polygon fill="midnightblue" stroke="midnightblue" points="582.14,-144.58 571.72,-142.66 578.66,-150.66 582.14,-144.58"/>
</g>
<!-- Node39&#45;&gt;Node32 -->
<g id="edge55" class="edge">
<title>Node39&#45;&gt;Node32</title>
<path fill="none" stroke="midnightblue" d="M1001.91,-236.35C905.6,-226.54 738.78,-209.54 636.13,-199.08"/>
<polygon fill="midnightblue" stroke="midnightblue" points="636.4,-195.59 626.09,-198.06 635.69,-202.55 636.4,-195.59"/>
</g>
<!-- Node40 -->
<g id="node40" class="node">
<title>Node40</title>
<g id="a_node40"><a xlink:title=" ">
<polygon fill="none" stroke="#bfbfbf" points="1343.5,-179.5 1343.5,-198.5 1386.5,-198.5 1386.5,-179.5 1343.5,-179.5"/>
<text text-anchor="middle" x="1365" y="-186.5" font-family="Helvetica,sans-Serif" font-size="10.00">fcntl.h</text>
</a>
</g>
</g>
<!-- Node39&#45;&gt;Node40 -->
<g id="edge44" class="edge">
<title>Node39&#45;&gt;Node40</title>
<path fill="none" stroke="midnightblue" d="M1136.32,-235.5C1186.4,-227.89 1260.15,-215.69 1333.52,-198.89"/>
<polygon fill="midnightblue" stroke="midnightblue" points="1334.45,-202.27 1343.4,-196.6 1332.87,-195.45 1334.45,-202.27"/>
</g>
<!-- Node41 -->
<g id="node41" class="node">
<title>Node41</title>
<g id="a_node41"><a xlink:title=" ">
<polygon fill="none" stroke="#bfbfbf" points="1404.5,-179.5 1404.5,-198.5 1453.5,-198.5 1453.5,-179.5 1404.5,-179.5"/>
<text text-anchor="middle" x="1429" y="-186.5" font-family="Helvetica,sans-Serif" font-size="10.00">netdb.h</text>
</a>
</g>
</g>
<!-- Node39&#45;&gt;Node41 -->
<g id="edge45" class="edge">
<title>Node39&#45;&gt;Node41</title>
<path fill="none" stroke="midnightblue" d="M1152.28,-235.89C1214.65,-228.59 1305.74,-216.58 1394.26,-198.94"/>
<polygon fill="midnightblue" stroke="midnightblue" points="1395.09,-202.34 1404.2,-196.93 1393.7,-195.48 1395.09,-202.34"/>
</g>
<!-- Node42 -->
<g id="node42" class="node">
<title>Node42</title>
<g id="a_node42"><a xlink:title=" ">
<polygon fill="none" stroke="#bfbfbf" points="1471.5,-179.5 1471.5,-198.5 1536.5,-198.5 1536.5,-179.5 1471.5,-179.5"/>
<text text-anchor="middle" x="1504" y="-186.5" font-family="Helvetica,sans-Serif" font-size="10.00">netinet/in.h</text>
</a>
</g>
</g>
<!-- Node39&#45;&gt;Node42 -->
<g id="edge46" class="edge">
<title>Node39&#45;&gt;Node42</title>
<path fill="none" stroke="midnightblue" d="M1152.18,-237.34C1227.8,-230.16 1347.9,-217.43 1461.58,-198.92"/>
<polygon fill="midnightblue" stroke="midnightblue" points="1462.2,-202.36 1471.5,-197.28 1461.06,-195.45 1462.2,-202.36"/>
</g>
<!-- Node43 -->
<g id="node43" class="node">
<title>Node43</title>
<g id="a_node43"><a xlink:title=" ">
<polygon fill="none" stroke="#bfbfbf" points="1554.5,-179.5 1554.5,-198.5 1625.5,-198.5 1625.5,-179.5 1554.5,-179.5"/>
<text text-anchor="middle" x="1590" y="-186.5" font-family="Helvetica,sans-Serif" font-size="10.00">netinet/tcp.h</text>
</a>
</g>
</g>
<!-- Node39&#45;&gt;Node43 -->
<g id="edge47" class="edge">
<title>Node39&#45;&gt;Node43</title>
<path fill="none" stroke="midnightblue" d="M1152.26,-239.13C1242.89,-232.73 1399.87,-219.95 1544.26,-198.96"/>
<polygon fill="midnightblue" stroke="midnightblue" points="1544.81,-202.42 1554.2,-197.5 1543.79,-195.49 1544.81,-202.42"/>
</g>
<!-- Node44 -->
<g id="node44" class="node">
<title>Node44</title>
<g id="a_node44"><a xlink:title=" ">
<polygon fill="none" stroke="#bfbfbf" points="682.5,-179.5 682.5,-198.5 731.5,-198.5 731.5,-179.5 682.5,-179.5"/>
<text text-anchor="middle" x="707" y="-186.5" font-family="Helvetica,sans-Serif" font-size="10.00">stdint.h</text>
</a>
</g>
</g>
<!-- Node39&#45;&gt;Node44 -->
<g id="edge48" class="edge">
<title>Node39&#45;&gt;Node44</title>
<path fill="none" stroke="midnightblue" d="M1001.82,-236.67C935.77,-229.6 836.94,-217.51 741.88,-198.94"/>
<polygon fill="midnightblue" stroke="midnightblue" points="742.29,-195.46 731.8,-196.95 740.93,-202.33 742.29,-195.46"/>
</g>
<!-- Node45 -->
<g id="node45" class="node">
<title>Node45</title>
<g id="a_node45"><a xlink:title=" ">
<polygon fill="none" stroke="#bfbfbf" points="750,-179.5 750,-198.5 814,-198.5 814,-179.5 750,-179.5"/>
<text text-anchor="middle" x="782" y="-186.5" font-family="Helvetica,sans-Serif" font-size="10.00">sys/epoll.h</text>
</a>
</g>
</g>
<!-- Node39&#45;&gt;Node45 -->
<g id="edge49" class="edge">
<title>Node39&#45;&gt;Node45</title>
<path fill="none" stroke="midnightblue" d="M1025.32,-235.48C976.12,-227.22 899.76,-214.04 824.35,-199.21"/>
<polygon fill="midnightblue" stroke="midnightblue" points="824.69,-195.71 814.2,-197.2 823.33,-202.57 824.69,-195.71"/>
</g>
<!-- Node46 -->
<g id="node46" class="node">
<title>Node46</title>
<g id="a_node46"><a xlink:title=" ">
<polygon fill="none" stroke="#bfbfbf" points="832,-179.5 832,-198.5 894,-198.5 894,-179.5 832,-179.5"/>
<text text-anchor="middle" x="863" y="-186.5" font-family="Helvetica,sans-Serif" font-size="10.00">arpa/inet.h</text>
</a>
</g>
</g>
<!-- Node39&#45;&gt;Node46 -->
<g id="edge50" class="edge">
<title>Node39&#45;&gt;Node46</title>
<path fill="none" stroke="midnightblue" d="M1043.09,-235.44C1005.39,-225.93 944.5,-210.57 904.11,-200.37"/>
<polygon fill="midnightblue" stroke="midnightblue" points="904.87,-196.95 894.31,-197.9 903.15,-203.74 904.87,-196.95"/>
</g>
<!-- Node47 -->
<g id="node47" class="node">
<title>Node47</title>
<g id="a_node47"><a xlink:title=" ">
<polygon fill="none" stroke="#bfbfbf" points="912.5,-179.5 912.5,-198.5 985.5,-198.5 985.5,-179.5 912.5,-179.5"/>
<text text-anchor="middle" x="949" y="-186.5" font-family="Helvetica,sans-Serif" font-size="10.00">sys/socket.h</text>
</a>
</g>
</g>
<!-- Node39&#45;&gt;Node47 -->
<g id="edge51" class="edge">
<title>Node39&#45;&gt;Node47</title>
<path fill="none" stroke="midnightblue" d="M1056.72,-235.44C1035.65,-226.56 1002.48,-212.56 978.51,-202.45"/>
<polygon fill="midnightblue" stroke="midnightblue" points="979.76,-199.18 969.19,-198.52 977.04,-205.63 979.76,-199.18"/>
</g>
<!-- Node48 -->
<g id="node48" class="node">
<title>Node48</title>
<g id="a_node48"><a xlink:title=" ">
<polygon fill="none" stroke="#bfbfbf" points="1004,-179.5 1004,-198.5 1072,-198.5 1072,-179.5 1004,-179.5"/>
<text text-anchor="middle" x="1038" y="-186.5" font-family="Helvetica,sans-Serif" font-size="10.00">sys/types.h</text>
</a>
</g>
</g>
<!-- Node39&#45;&gt;Node48 -->
<g id="edge52" class="edge">
<title>Node39&#45;&gt;Node48</title>
<path fill="none" stroke="midnightblue" d="M1070.56,-235.08C1065.05,-227.46 1056.97,-216.26 1050.24,-206.94"/>
<polygon fill="midnightblue" stroke="midnightblue" points="1053.01,-204.81 1044.32,-198.75 1047.34,-208.91 1053.01,-204.81"/>
</g>
<!-- Node49 -->
<g id="node49" class="node">
<title>Node49</title>
<g id="a_node49"><a xlink:title=" ">
<polygon fill="none" stroke="#bfbfbf" points="1090.5,-179.5 1090.5,-198.5 1141.5,-198.5 1141.5,-179.5 1090.5,-179.5"/>
<text text-anchor="middle" x="1116" y="-186.5" font-family="Helvetica,sans-Serif" font-size="10.00">unistd.h</text>
</a>
</g>
</g>
<!-- Node39&#45;&gt;Node49 -->
<g id="edge53" class="edge">
<title>Node39&#45;&gt;Node49</title>
<path fill="none" stroke="midnightblue" d="M1083.44,-235.08C1088.95,-227.46 1097.03,-216.26 1103.76,-206.94"/>
<polygon fill="midnightblue" stroke="midnightblue" points="1106.66,-208.91 1109.68,-198.75 1100.99,-204.81 1106.66,-208.91"/>
</g>
<!-- Node50 -->
<g id="node50" class="node">
<title>Node50</title>
<g id="a_node50"><a xlink:title=" ">
<polygon fill="none" stroke="#bfbfbf" points="1159.5,-179.5 1159.5,-198.5 1232.5,-198.5 1232.5,-179.5 1159.5,-179.5"/>
<text text-anchor="middle" x="1196" y="-186.5" font-family="Helvetica,sans-Serif" font-size="10.00">openssl/err.h</text>
</a>
</g>
</g>
<!-- Node39&#45;&gt;Node50 -->
<g id="edge56" class="edge">
<title>Node39&#45;&gt;Node50</title>
<path fill="none" stroke="midnightblue" d="M1095.86,-235.44C1115.27,-226.64 1145.73,-212.81 1167.96,-202.72"/>
<polygon fill="midnightblue" stroke="midnightblue" points="1169.57,-205.84 1177.23,-198.52 1166.68,-199.46 1169.57,-205.84"/>
</g>
<!-- Node51 -->
<g id="node51" class="node">
<title>Node51</title>
<g id="a_node51"><a xlink:title=" ">
<polygon fill="none" stroke="#bfbfbf" points="1251,-179.5 1251,-198.5 1325,-198.5 1325,-179.5 1251,-179.5"/>
<text text-anchor="middle" x="1288" y="-186.5" font-family="Helvetica,sans-Serif" font-size="10.00">openssl/ssl.h</text>
</a>
</g>
</g>
<!-- Node39&#45;&gt;Node51 -->
<g id="edge57" class="edge">
<title>Node39&#45;&gt;Node51</title>
<path fill="none" stroke="midnightblue" d="M1110.43,-235.44C1146.86,-226.12 1205.23,-211.18 1245.03,-201"/>
<polygon fill="midnightblue" stroke="midnightblue" points="1245.9,-204.39 1254.72,-198.52 1244.17,-197.61 1245.9,-204.39"/>
</g>
<!-- Node52&#45;&gt;Node3 -->
<g id="edge61" class="edge">
<title>Node52&#45;&gt;Node3</title>
<path fill="none" stroke="midnightblue" d="M165.76,-403.42C134.47,-387.99 76,-352.41 76,-302 76,-302 76,-302 76,-244 76,-213.9 71.96,-198.36 95,-179 123.16,-155.34 349.76,-139.37 471.03,-132.43"/>
<polygon fill="midnightblue" stroke="midnightblue" points="471.57,-135.9 481.35,-131.84 471.17,-128.91 471.57,-135.9"/>
</g>
</g>
</svg>
