<?xml version="1.0" encoding="UTF-8" standalone="no"?>
<!DOCTYPE svg PUBLIC "-//W3C//DTD SVG 1.1//EN"
 "http://www.w3.org/Graphics/SVG/1.1/DTD/svg11.dtd">
<!-- Generated by graphviz version 3.0.0 (20220226.1711)
 -->
<!-- Title: ReactionEntities.cpp Pages: 1 -->
<svg width="2131pt" height="722pt"
 viewBox="0.00 0.00 2130.50 722.00" xmlns="http://www.w3.org/2000/svg" xmlns:xlink="http://www.w3.org/1999/xlink">
<g id="graph0" class="graph" transform="scale(1 1) rotate(0) translate(4 718)">
<title>ReactionEntities.cpp</title>
<!-- Node1 -->
<g id="node1" class="node">
<title>Node1</title>
<g id="a_node1"><a xlink:title=" ">
<polygon fill="#bfbfbf" stroke="black" points="2012,-694.5 2012,-713.5 2119,-713.5 2119,-694.5 2012,-694.5"/>
<text text-anchor="middle" x="2065.5" y="-701.5" font-family="Helvetica,sans-Serif" font-size="10.00">ReactionEntities.cpp</text>
</a>
</g>
</g>
<!-- Node2 -->
<g id="node2" class="node">
<title>Node2</title>
<g id="a_node2"><a xlink:href="../../dd/db2/a00737.html" target="_top" xlink:title=" ">
<polygon fill="none" stroke="black" points="500,-638.5 500,-657.5 673,-657.5 673,-638.5 500,-638.5"/>
<text text-anchor="middle" x="586.5" y="-645.5" font-family="Helvetica,sans-Serif" font-size="10.00">discordcoreapi/ReactionEntities.hpp</text>
</a>
</g>
</g>
<!-- Node1&#45;&gt;Node2 -->
<g id="edge1" class="edge">
<title>Node1&#45;&gt;Node2</title>
<path fill="none" stroke="midnightblue" d="M2011.99,-701.05C1793.55,-693.07 967.6,-662.91 683.32,-652.54"/>
<polygon fill="midnightblue" stroke="midnightblue" points="683.16,-649.03 673.04,-652.16 682.9,-656.02 683.16,-649.03"/>
</g>
<!-- Node19 -->
<g id="node19" class="node">
<title>Node19</title>
<g id="a_node19"><a xlink:title=" ">
<polygon fill="none" stroke="#bfbfbf" points="1928,-0.5 1928,-19.5 1977,-19.5 1977,-0.5 1928,-0.5"/>
<text text-anchor="middle" x="1952.5" y="-7.5" font-family="Helvetica,sans-Serif" font-size="10.00">fstream</text>
</a>
</g>
</g>
<!-- Node1&#45;&gt;Node19 -->
<g id="edge67" class="edge">
<title>Node1&#45;&gt;Node19</title>
<path fill="none" stroke="midnightblue" d="M2062.94,-694.25C2057.75,-675.74 2046.5,-631.18 2046.5,-593 2046.5,-593 2046.5,-593 2046.5,-126.5 2046.5,-81.71 2003.45,-44.64 1975.62,-25.36"/>
<polygon fill="midnightblue" stroke="midnightblue" points="1977.45,-22.38 1967.19,-19.74 1973.56,-28.2 1977.45,-22.38"/>
</g>
<!-- Node36 -->
<g id="node36" class="node">
<title>Node36</title>
<g id="a_node36"><a xlink:href="../../d5/d5b/a00695.html" target="_top" xlink:title=" ">
<polygon fill="none" stroke="black" points="922.5,-403.5 922.5,-422.5 1068.5,-422.5 1068.5,-403.5 922.5,-403.5"/>
<text text-anchor="middle" x="995.5" y="-410.5" font-family="Helvetica,sans-Serif" font-size="10.00">discordcoreapi/CoRoutine.hpp</text>
</a>
</g>
</g>
<!-- Node1&#45;&gt;Node36 -->
<g id="edge65" class="edge">
<title>Node1&#45;&gt;Node36</title>
<path fill="none" stroke="midnightblue" d="M2068.06,-694.25C2073.25,-675.74 2084.5,-631.18 2084.5,-593 2084.5,-593 2084.5,-593 2084.5,-529.5 2084.5,-428.47 1333.77,-415.59 1078.95,-414.12"/>
<polygon fill="midnightblue" stroke="midnightblue" points="1078.66,-410.62 1068.64,-414.07 1078.62,-417.62 1078.66,-410.62"/>
</g>
<!-- Node38 -->
<g id="node38" class="node">
<title>Node38</title>
<g id="a_node38"><a xlink:href="../../db/d7c/a00722.html" target="_top" xlink:title=" ">
<polygon fill="none" stroke="black" points="1228,-291.5 1228,-310.5 1353,-310.5 1353,-291.5 1228,-291.5"/>
<text text-anchor="middle" x="1290.5" y="-298.5" font-family="Helvetica,sans-Serif" font-size="10.00">discordcoreapi/Https.hpp</text>
</a>
</g>
</g>
<!-- Node1&#45;&gt;Node38 -->
<g id="edge66" class="edge">
<title>Node1&#45;&gt;Node38</title>
<path fill="none" stroke="midnightblue" d="M2073.67,-694.38C2089.43,-676.81 2122.5,-634.94 2122.5,-593 2122.5,-593 2122.5,-593 2122.5,-412 2122.5,-335.74 1566.04,-310.64 1363.29,-304.03"/>
<polygon fill="midnightblue" stroke="midnightblue" points="1363.14,-300.52 1353.04,-303.7 1362.92,-307.52 1363.14,-300.52"/>
</g>
<!-- Node3 -->
<g id="node3" class="node">
<title>Node3</title>
<g id="a_node3"><a xlink:href="../../d4/deb/a00710.html" target="_top" xlink:title=" ">
<polygon fill="none" stroke="black" points="829,-112.5 829,-142.5 960,-142.5 960,-112.5 829,-112.5"/>
<text text-anchor="start" x="837" y="-130.5" font-family="Helvetica,sans-Serif" font-size="10.00">discordcoreapi/Foundation</text>
<text text-anchor="middle" x="894.5" y="-119.5" font-family="Helvetica,sans-Serif" font-size="10.00">Entities.hpp</text>
</a>
</g>
</g>
<!-- Node2&#45;&gt;Node3 -->
<g id="edge2" class="edge">
<title>Node2&#45;&gt;Node3</title>
<path fill="none" stroke="midnightblue" d="M534.25,-638.5C446.38,-622.7 278.5,-585.47 278.5,-531.5 278.5,-531.5 278.5,-531.5 278.5,-244 278.5,-206.44 299.25,-196.46 332.5,-179 415.02,-135.66 685.39,-128.85 818.74,-128.21"/>
<polygon fill="midnightblue" stroke="midnightblue" points="818.89,-131.71 828.88,-128.17 818.87,-124.71 818.89,-131.71"/>
</g>
<!-- Node29 -->
<g id="node29" class="node">
<title>Node29</title>
<g id="a_node29"><a xlink:href="../../d3/d2c/a00764.html" target="_top" xlink:title=" ">
<polygon fill="none" stroke="black" points="509,-582.5 509,-601.5 664,-601.5 664,-582.5 509,-582.5"/>
<text text-anchor="middle" x="586.5" y="-589.5" font-family="Helvetica,sans-Serif" font-size="10.00">discordcoreapi/UserEntities.hpp</text>
</a>
</g>
</g>
<!-- Node2&#45;&gt;Node29 -->
<g id="edge28" class="edge">
<title>Node2&#45;&gt;Node29</title>
<path fill="none" stroke="midnightblue" d="M586.5,-638.08C586.5,-631.01 586.5,-620.86 586.5,-611.99"/>
<polygon fill="midnightblue" stroke="midnightblue" points="590,-611.75 586.5,-601.75 583,-611.75 590,-611.75"/>
</g>
<!-- Node4 -->
<g id="node4" class="node">
<title>Node4</title>
<g id="a_node4"><a xlink:href="../../d5/dae/a00767.html" target="_top" xlink:title=" ">
<polygon fill="none" stroke="black" points="921.5,-56.5 921.5,-75.5 1055.5,-75.5 1055.5,-56.5 921.5,-56.5"/>
<text text-anchor="middle" x="988.5" y="-63.5" font-family="Helvetica,sans-Serif" font-size="10.00">discordcoreapi/Utilities.hpp</text>
</a>
</g>
</g>
<!-- Node3&#45;&gt;Node4 -->
<g id="edge3" class="edge">
<title>Node3&#45;&gt;Node4</title>
<path fill="none" stroke="midnightblue" d="M916.78,-112.4C931.7,-102.95 951.28,-90.56 966.21,-81.11"/>
<polygon fill="midnightblue" stroke="midnightblue" points="968.24,-83.96 974.82,-75.66 964.5,-78.05 968.24,-83.96"/>
</g>
<!-- Node5 -->
<g id="node5" class="node">
<title>Node5</title>
<g id="a_node5"><a xlink:title=" ">
<polygon fill="none" stroke="#bfbfbf" points="0,-0.5 0,-19.5 57,-19.5 57,-0.5 0,-0.5"/>
<text text-anchor="middle" x="28.5" y="-7.5" font-family="Helvetica,sans-Serif" font-size="10.00">pthread.h</text>
</a>
</g>
</g>
<!-- Node4&#45;&gt;Node5 -->
<g id="edge4" class="edge">
<title>Node4&#45;&gt;Node5</title>
<path fill="none" stroke="midnightblue" d="M921.48,-63.33C741.66,-58.6 250.41,-43.95 67.09,-19.73"/>
<polygon fill="midnightblue" stroke="midnightblue" points="67.41,-16.25 57.03,-18.35 66.46,-23.18 67.41,-16.25"/>
</g>
<!-- Node6 -->
<g id="node6" class="node">
<title>Node6</title>
<g id="a_node6"><a xlink:title=" ">
<polygon fill="none" stroke="#bfbfbf" points="75.5,-0.5 75.5,-19.5 137.5,-19.5 137.5,-0.5 75.5,-0.5"/>
<text text-anchor="middle" x="106.5" y="-7.5" font-family="Helvetica,sans-Serif" font-size="10.00">sys/time.h</text>
</a>
</g>
</g>
<!-- Node4&#45;&gt;Node6 -->
<g id="edge5" class="edge">
<title>Node4&#45;&gt;Node6</title>
<path fill="none" stroke="midnightblue" d="M921.28,-65.23C779.71,-64.87 440.45,-59.68 147.8,-19.94"/>
<polygon fill="midnightblue" stroke="midnightblue" points="148.24,-16.47 137.85,-18.58 147.28,-23.41 148.24,-16.47"/>
</g>
<!-- Node7 -->
<g id="node7" class="node">
<title>Node7</title>
<g id="a_node7"><a xlink:title=" ">
<polygon fill="none" stroke="#bfbfbf" points="155.5,-0.5 155.5,-19.5 199.5,-19.5 199.5,-0.5 155.5,-0.5"/>
<text text-anchor="middle" x="177.5" y="-7.5" font-family="Helvetica,sans-Serif" font-size="10.00">time.h</text>
</a>
</g>
</g>
<!-- Node4&#45;&gt;Node7 -->
<g id="edge6" class="edge">
<title>Node4&#45;&gt;Node7</title>
<path fill="none" stroke="midnightblue" d="M921.31,-63.06C761.85,-58.17 363.14,-44.04 209.88,-19.79"/>
<polygon fill="midnightblue" stroke="midnightblue" points="210.15,-16.28 199.71,-18.1 209,-23.19 210.15,-16.28"/>
</g>
<!-- Node8 -->
<g id="node8" class="node">
<title>Node8</title>
<g id="a_node8"><a xlink:title=" ">
<polygon fill="none" stroke="#bfbfbf" points="218,-0.5 218,-19.5 259,-19.5 259,-0.5 218,-0.5"/>
<text text-anchor="middle" x="238.5" y="-7.5" font-family="Helvetica,sans-Serif" font-size="10.00">ctime</text>
</a>
</g>
</g>
<!-- Node4&#45;&gt;Node8 -->
<g id="edge7" class="edge">
<title>Node4&#45;&gt;Node8</title>
<path fill="none" stroke="midnightblue" d="M921.28,-62.85C770.87,-57.73 409.97,-43.54 269.39,-19.89"/>
<polygon fill="midnightblue" stroke="midnightblue" points="269.72,-16.39 259.26,-18.09 268.5,-23.28 269.72,-16.39"/>
</g>
<!-- Node9 -->
<g id="node9" class="node">
<title>Node9</title>
<g id="a_node9"><a xlink:title=" ">
<polygon fill="none" stroke="#bfbfbf" points="277,-0.5 277,-19.5 370,-19.5 370,-0.5 277,-0.5"/>
<text text-anchor="middle" x="323.5" y="-7.5" font-family="Helvetica,sans-Serif" font-size="10.00">condition_variable</text>
</a>
</g>
</g>
<!-- Node4&#45;&gt;Node9 -->
<g id="edge8" class="edge">
<title>Node4&#45;&gt;Node9</title>
<path fill="none" stroke="midnightblue" d="M921.18,-61.91C810.53,-56.42 583.1,-43.39 380.16,-19.97"/>
<polygon fill="midnightblue" stroke="midnightblue" points="380.55,-16.49 370.21,-18.81 379.74,-23.45 380.55,-16.49"/>
</g>
<!-- Node10 -->
<g id="node10" class="node">
<title>Node10</title>
<g id="a_node10"><a xlink:title=" ">
<polygon fill="none" stroke="#bfbfbf" points="388.5,-0.5 388.5,-19.5 486.5,-19.5 486.5,-0.5 388.5,-0.5"/>
<text text-anchor="middle" x="437.5" y="-7.5" font-family="Helvetica,sans-Serif" font-size="10.00">nlohmann/json.hpp</text>
</a>
</g>
</g>
<!-- Node4&#45;&gt;Node10 -->
<g id="edge9" class="edge">
<title>Node4&#45;&gt;Node10</title>
<path fill="none" stroke="midnightblue" d="M921.37,-60.22C828.41,-53.3 654.99,-39.31 496.91,-20.1"/>
<polygon fill="midnightblue" stroke="midnightblue" points="496.87,-16.57 486.52,-18.83 496.02,-23.52 496.87,-16.57"/>
</g>
<!-- Node11 -->
<g id="node11" class="node">
<title>Node11</title>
<g id="a_node11"><a xlink:title=" ">
<polygon fill="none" stroke="#bfbfbf" points="505,-0.5 505,-19.5 590,-19.5 590,-0.5 505,-0.5"/>
<text text-anchor="middle" x="547.5" y="-7.5" font-family="Helvetica,sans-Serif" font-size="10.00">source_location</text>
</a>
</g>
</g>
<!-- Node4&#45;&gt;Node11 -->
<g id="edge10" class="edge">
<title>Node4&#45;&gt;Node11</title>
<path fill="none" stroke="midnightblue" d="M921.4,-58.49C845.7,-50.87 718.65,-37.24 600.03,-20.15"/>
<polygon fill="midnightblue" stroke="midnightblue" points="600.45,-16.68 590.05,-18.7 599.44,-23.6 600.45,-16.68"/>
</g>
<!-- Node12 -->
<g id="node12" class="node">
<title>Node12</title>
<g id="a_node12"><a xlink:title=" ">
<polygon fill="none" stroke="#bfbfbf" points="608,-0.5 608,-19.5 691,-19.5 691,-0.5 608,-0.5"/>
<text text-anchor="middle" x="649.5" y="-7.5" font-family="Helvetica,sans-Serif" font-size="10.00">unordered_map</text>
</a>
</g>
</g>
<!-- Node4&#45;&gt;Node12 -->
<g id="edge11" class="edge">
<title>Node4&#45;&gt;Node12</title>
<path fill="none" stroke="midnightblue" d="M931.89,-56.49C875.93,-48 787.6,-34.4 701.21,-20.09"/>
<polygon fill="midnightblue" stroke="midnightblue" points="701.68,-16.62 691.24,-18.43 700.53,-23.53 701.68,-16.62"/>
</g>
<!-- Node13 -->
<g id="node13" class="node">
<title>Node13</title>
<g id="a_node13"><a xlink:title=" ">
<polygon fill="none" stroke="#bfbfbf" points="709.5,-0.5 709.5,-19.5 787.5,-19.5 787.5,-0.5 709.5,-0.5"/>
<text text-anchor="middle" x="748.5" y="-7.5" font-family="Helvetica,sans-Serif" font-size="10.00">shared_mutex</text>
</a>
</g>
</g>
<!-- Node4&#45;&gt;Node13 -->
<g id="edge12" class="edge">
<title>Node4&#45;&gt;Node13</title>
<path fill="none" stroke="midnightblue" d="M950.47,-56.44C908.69,-47.04 841.52,-31.93 796.23,-21.74"/>
<polygon fill="midnightblue" stroke="midnightblue" points="796.88,-18.3 786.35,-19.52 795.34,-25.13 796.88,-18.3"/>
</g>
<!-- Node14 -->
<g id="node14" class="node">
<title>Node14</title>
<g id="a_node14"><a xlink:title=" ">
<polygon fill="none" stroke="#bfbfbf" points="805.5,-0.5 805.5,-19.5 863.5,-19.5 863.5,-0.5 805.5,-0.5"/>
<text text-anchor="middle" x="834.5" y="-7.5" font-family="Helvetica,sans-Serif" font-size="10.00">functional</text>
</a>
</g>
</g>
<!-- Node4&#45;&gt;Node14 -->
<g id="edge13" class="edge">
<title>Node4&#45;&gt;Node14</title>
<path fill="none" stroke="midnightblue" d="M964.1,-56.44C938.3,-47.4 897.42,-33.06 868.48,-22.92"/>
<polygon fill="midnightblue" stroke="midnightblue" points="869.38,-19.52 858.79,-19.52 867.07,-26.13 869.38,-19.52"/>
</g>
<!-- Node15 -->
<g id="node15" class="node">
<title>Node15</title>
<g id="a_node15"><a xlink:title=" ">
<polygon fill="none" stroke="#bfbfbf" points="881.5,-0.5 881.5,-19.5 937.5,-19.5 937.5,-0.5 881.5,-0.5"/>
<text text-anchor="middle" x="909.5" y="-7.5" font-family="Helvetica,sans-Serif" font-size="10.00">coroutine</text>
</a>
</g>
</g>
<!-- Node4&#45;&gt;Node15 -->
<g id="edge14" class="edge">
<title>Node4&#45;&gt;Node15</title>
<path fill="none" stroke="midnightblue" d="M975.81,-56.32C963.6,-47.98 944.92,-35.21 930.5,-25.35"/>
<polygon fill="midnightblue" stroke="midnightblue" points="932.39,-22.41 922.16,-19.65 928.44,-28.19 932.39,-22.41"/>
</g>
<!-- Node16 -->
<g id="node16" class="node">
<title>Node16</title>
<g id="a_node16"><a xlink:title=" ">
<polygon fill="none" stroke="#bfbfbf" points="956,-0.5 956,-19.5 1021,-19.5 1021,-0.5 956,-0.5"/>
<text text-anchor="middle" x="988.5" y="-7.5" font-family="Helvetica,sans-Serif" font-size="10.00">semaphore</text>
</a>
</g>
</g>
<!-- Node4&#45;&gt;Node16 -->
<g id="edge15" class="edge">
<title>Node4&#45;&gt;Node16</title>
<path fill="none" stroke="midnightblue" d="M988.5,-56.08C988.5,-49.01 988.5,-38.86 988.5,-29.99"/>
<polygon fill="midnightblue" stroke="midnightblue" points="992,-29.75 988.5,-19.75 985,-29.75 992,-29.75"/>
</g>
<!-- Node17 -->
<g id="node17" class="node">
<title>Node17</title>
<g id="a_node17"><a xlink:title=" ">
<polygon fill="none" stroke="#bfbfbf" points="1039.5,-0.5 1039.5,-19.5 1095.5,-19.5 1095.5,-0.5 1039.5,-0.5"/>
<text text-anchor="middle" x="1067.5" y="-7.5" font-family="Helvetica,sans-Serif" font-size="10.00">concepts</text>
</a>
</g>
</g>
<!-- Node4&#45;&gt;Node17 -->
<g id="edge16" class="edge">
<title>Node4&#45;&gt;Node17</title>
<path fill="none" stroke="midnightblue" d="M1001.19,-56.32C1013.4,-47.98 1032.08,-35.21 1046.5,-25.35"/>
<polygon fill="midnightblue" stroke="midnightblue" points="1048.56,-28.19 1054.84,-19.65 1044.61,-22.41 1048.56,-28.19"/>
</g>
<!-- Node18 -->
<g id="node18" class="node">
<title>Node18</title>
<g id="a_node18"><a xlink:title=" ">
<polygon fill="none" stroke="#bfbfbf" points="1113.5,-0.5 1113.5,-19.5 1167.5,-19.5 1167.5,-0.5 1113.5,-0.5"/>
<text text-anchor="middle" x="1140.5" y="-7.5" font-family="Helvetica,sans-Serif" font-size="10.00">iostream</text>
</a>
</g>
</g>
<!-- Node4&#45;&gt;Node18 -->
<g id="edge17" class="edge">
<title>Node4&#45;&gt;Node18</title>
<path fill="none" stroke="midnightblue" d="M1012.58,-56.44C1038.04,-47.4 1078.39,-33.06 1106.96,-22.92"/>
<polygon fill="midnightblue" stroke="midnightblue" points="1108.28,-26.16 1116.53,-19.52 1105.93,-19.57 1108.28,-26.16"/>
</g>
<!-- Node4&#45;&gt;Node19 -->
<g id="edge18" class="edge">
<title>Node4&#45;&gt;Node19</title>
<path fill="none" stroke="midnightblue" d="M1055.52,-61.25C1244.24,-50.67 1775.57,-20.91 1917.35,-12.97"/>
<polygon fill="midnightblue" stroke="midnightblue" points="1917.84,-16.45 1927.63,-12.39 1917.45,-9.46 1917.84,-16.45"/>
</g>
<!-- Node20 -->
<g id="node20" class="node">
<title>Node20</title>
<g id="a_node20"><a xlink:title=" ">
<polygon fill="none" stroke="#bfbfbf" points="1186,-0.5 1186,-19.5 1227,-19.5 1227,-0.5 1186,-0.5"/>
<text text-anchor="middle" x="1206.5" y="-7.5" font-family="Helvetica,sans-Serif" font-size="10.00">bitset</text>
</a>
</g>
</g>
<!-- Node4&#45;&gt;Node20 -->
<g id="edge19" class="edge">
<title>Node4&#45;&gt;Node20</title>
<path fill="none" stroke="midnightblue" d="M1026.83,-56.49C1062.85,-48.35 1118.47,-35.4 1175.9,-20.04"/>
<polygon fill="midnightblue" stroke="midnightblue" points="1177.14,-23.33 1185.89,-17.35 1175.32,-16.57 1177.14,-23.33"/>
</g>
<!-- Node21 -->
<g id="node21" class="node">
<title>Node21</title>
<g id="a_node21"><a xlink:title=" ">
<polygon fill="none" stroke="#bfbfbf" points="1245.5,-0.5 1245.5,-19.5 1297.5,-19.5 1297.5,-0.5 1245.5,-0.5"/>
<text text-anchor="middle" x="1271.5" y="-7.5" font-family="Helvetica,sans-Serif" font-size="10.00">memory</text>
</a>
</g>
</g>
<!-- Node4&#45;&gt;Node21 -->
<g id="edge20" class="edge">
<title>Node4&#45;&gt;Node21</title>
<path fill="none" stroke="midnightblue" d="M1040.74,-56.49C1088.71,-48.45 1161.98,-35.6 1235.32,-19.91"/>
<polygon fill="midnightblue" stroke="midnightblue" points="1236.16,-23.31 1245.2,-17.78 1234.69,-16.47 1236.16,-23.31"/>
</g>
<!-- Node22 -->
<g id="node22" class="node">
<title>Node22</title>
<g id="a_node22"><a xlink:title=" ">
<polygon fill="none" stroke="#bfbfbf" points="1316,-0.5 1316,-19.5 1365,-19.5 1365,-0.5 1316,-0.5"/>
<text text-anchor="middle" x="1340.5" y="-7.5" font-family="Helvetica,sans-Serif" font-size="10.00">random</text>
</a>
</g>
</g>
<!-- Node4&#45;&gt;Node22 -->
<g id="edge21" class="edge">
<title>Node4&#45;&gt;Node22</title>
<path fill="none" stroke="midnightblue" d="M1055.59,-57.84C1117.94,-50.66 1213.55,-38.3 1305.65,-19.96"/>
<polygon fill="midnightblue" stroke="midnightblue" points="1306.59,-23.34 1315.7,-17.93 1305.2,-16.48 1306.59,-23.34"/>
</g>
<!-- Node23 -->
<g id="node23" class="node">
<title>Node23</title>
<g id="a_node23"><a xlink:title=" ">
<polygon fill="none" stroke="#bfbfbf" points="1383,-0.5 1383,-19.5 1424,-19.5 1424,-0.5 1383,-0.5"/>
<text text-anchor="middle" x="1403.5" y="-7.5" font-family="Helvetica,sans-Serif" font-size="10.00">string</text>
</a>
</g>
</g>
<!-- Node4&#45;&gt;Node23 -->
<g id="edge22" class="edge">
<title>Node4&#45;&gt;Node23</title>
<path fill="none" stroke="midnightblue" d="M1055.84,-60.72C1131.03,-55.13 1256.36,-43.42 1373.14,-19.71"/>
<polygon fill="midnightblue" stroke="midnightblue" points="1373.88,-23.13 1382.96,-17.68 1372.46,-16.27 1373.88,-23.13"/>
</g>
<!-- Node24 -->
<g id="node24" class="node">
<title>Node24</title>
<g id="a_node24"><a xlink:title=" ">
<polygon fill="none" stroke="#bfbfbf" points="1442.5,-0.5 1442.5,-19.5 1484.5,-19.5 1484.5,-0.5 1442.5,-0.5"/>
<text text-anchor="middle" x="1463.5" y="-7.5" font-family="Helvetica,sans-Serif" font-size="10.00">vector</text>
</a>
</g>
</g>
<!-- Node4&#45;&gt;Node24 -->
<g id="edge23" class="edge">
<title>Node4&#45;&gt;Node24</title>
<path fill="none" stroke="midnightblue" d="M1055.62,-62C1143.06,-57.22 1300.35,-45.66 1432.5,-20 1432.6,-19.98 1432.7,-19.96 1432.8,-19.94"/>
<polygon fill="midnightblue" stroke="midnightblue" points="1433.35,-23.41 1442.28,-17.71 1431.74,-16.59 1433.35,-23.41"/>
</g>
<!-- Node25 -->
<g id="node25" class="node">
<title>Node25</title>
<g id="a_node25"><a xlink:title=" ">
<polygon fill="none" stroke="#bfbfbf" points="1502.5,-0.5 1502.5,-19.5 1546.5,-19.5 1546.5,-0.5 1502.5,-0.5"/>
<text text-anchor="middle" x="1524.5" y="-7.5" font-family="Helvetica,sans-Serif" font-size="10.00">thread</text>
</a>
</g>
</g>
<!-- Node4&#45;&gt;Node25 -->
<g id="edge24" class="edge">
<title>Node4&#45;&gt;Node25</title>
<path fill="none" stroke="midnightblue" d="M1055.64,-63.15C1150.94,-59.61 1330.86,-49.56 1492.17,-19.9"/>
<polygon fill="midnightblue" stroke="midnightblue" points="1493.09,-23.29 1502.27,-18.01 1491.8,-16.41 1493.09,-23.29"/>
</g>
<!-- Node26 -->
<g id="node26" class="node">
<title>Node26</title>
<g id="a_node26"><a xlink:title=" ">
<polygon fill="none" stroke="#bfbfbf" points="1564.5,-0.5 1564.5,-19.5 1608.5,-19.5 1608.5,-0.5 1564.5,-0.5"/>
<text text-anchor="middle" x="1586.5" y="-7.5" font-family="Helvetica,sans-Serif" font-size="10.00">mutex</text>
</a>
</g>
</g>
<!-- Node4&#45;&gt;Node26 -->
<g id="edge25" class="edge">
<title>Node4&#45;&gt;Node26</title>
<path fill="none" stroke="midnightblue" d="M1055.85,-64.07C1160.76,-61.65 1369.51,-52.95 1554.38,-19.84"/>
<polygon fill="midnightblue" stroke="midnightblue" points="1555.07,-23.27 1564.28,-18.04 1553.81,-16.38 1555.07,-23.27"/>
</g>
<!-- Node27 -->
<g id="node27" class="node">
<title>Node27</title>
<g id="a_node27"><a xlink:title=" ">
<polygon fill="none" stroke="#bfbfbf" points="1627,-0.5 1627,-19.5 1670,-19.5 1670,-0.5 1627,-0.5"/>
<text text-anchor="middle" x="1648.5" y="-7.5" font-family="Helvetica,sans-Serif" font-size="10.00">queue</text>
</a>
</g>
</g>
<!-- Node4&#45;&gt;Node27 -->
<g id="edge26" class="edge">
<title>Node4&#45;&gt;Node27</title>
<path fill="none" stroke="midnightblue" d="M1055.64,-64.83C1169.48,-63.52 1407.57,-56.42 1617.01,-19.66"/>
<polygon fill="midnightblue" stroke="midnightblue" points="1617.73,-23.08 1626.96,-17.88 1616.5,-16.19 1617.73,-23.08"/>
</g>
<!-- Node28 -->
<g id="node28" class="node">
<title>Node28</title>
<g id="a_node28"><a xlink:title=" ">
<polygon fill="none" stroke="#bfbfbf" points="1688,-0.5 1688,-19.5 1723,-19.5 1723,-0.5 1688,-0.5"/>
<text text-anchor="middle" x="1705.5" y="-7.5" font-family="Helvetica,sans-Serif" font-size="10.00">map</text>
</a>
</g>
</g>
<!-- Node4&#45;&gt;Node28 -->
<g id="edge27" class="edge">
<title>Node4&#45;&gt;Node28</title>
<path fill="none" stroke="midnightblue" d="M1055.75,-62.91C1201.5,-58.03 1543.55,-44.52 1677.72,-19.8"/>
<polygon fill="midnightblue" stroke="midnightblue" points="1678.62,-23.18 1687.77,-17.84 1677.29,-16.31 1678.62,-23.18"/>
</g>
<!-- Node29&#45;&gt;Node3 -->
<g id="edge29" class="edge">
<title>Node29&#45;&gt;Node3</title>
<path fill="none" stroke="midnightblue" d="M508.77,-588.16C429,-580.6 316.5,-554.88 316.5,-470 316.5,-470 316.5,-470 316.5,-244 316.5,-207.28 335.28,-196.62 367.5,-179 443.26,-137.56 691.75,-129.75 818.57,-128.52"/>
<polygon fill="midnightblue" stroke="midnightblue" points="818.63,-132.02 828.6,-128.44 818.57,-125.02 818.63,-132.02"/>
</g>
<!-- Node30 -->
<g id="node30" class="node">
<title>Node30</title>
<g id="a_node30"><a xlink:href="../../d9/dd4/a00776.html" target="_top" xlink:title=" ">
<polygon fill="none" stroke="black" points="781.5,-515.5 781.5,-545.5 915.5,-545.5 915.5,-515.5 781.5,-515.5"/>
<text text-anchor="start" x="789.5" y="-533.5" font-family="Helvetica,sans-Serif" font-size="10.00">discordcoreapi/WebSocket</text>
<text text-anchor="middle" x="848.5" y="-522.5" font-family="Helvetica,sans-Serif" font-size="10.00">Entities.hpp</text>
</a>
</g>
</g>
<!-- Node29&#45;&gt;Node30 -->
<g id="edge30" class="edge">
<title>Node29&#45;&gt;Node30</title>
<path fill="none" stroke="midnightblue" d="M624.04,-582.48C663.75,-573.46 727.37,-559.01 776.76,-547.79"/>
<polygon fill="midnightblue" stroke="midnightblue" points="777.78,-551.15 786.75,-545.52 776.22,-544.32 777.78,-551.15"/>
</g>
<!-- Node30&#45;&gt;Node3 -->
<g id="edge31" class="edge">
<title>Node30&#45;&gt;Node3</title>
<path fill="none" stroke="midnightblue" d="M781.36,-527.73C646.29,-522.33 354.5,-500.65 354.5,-414 354.5,-414 354.5,-414 354.5,-244 354.5,-209.11 368.55,-196.89 398.5,-179 467.54,-137.75 697.71,-129.78 818.7,-128.5"/>
<polygon fill="midnightblue" stroke="midnightblue" points="819.03,-132 829,-128.41 818.96,-125 819.03,-132"/>
</g>
<!-- Node31 -->
<g id="node31" class="node">
<title>Node31</title>
<g id="a_node31"><a xlink:href="../../d4/d9b/a00680.html" target="_top" xlink:title=" ">
<polygon fill="none" stroke="black" points="538.5,-235.5 538.5,-254.5 700.5,-254.5 700.5,-235.5 538.5,-235.5"/>
<text text-anchor="middle" x="619.5" y="-242.5" font-family="Helvetica,sans-Serif" font-size="10.00">discordcoreapi/AudioDecoder.hpp</text>
</a>
</g>
</g>
<!-- Node30&#45;&gt;Node31 -->
<g id="edge32" class="edge">
<title>Node30&#45;&gt;Node31</title>
<path fill="none" stroke="midnightblue" d="M793.43,-515.42C745.79,-499.53 684.5,-468.5 684.5,-414 684.5,-414 684.5,-414 684.5,-356 684.5,-318.18 655.66,-281.94 636.41,-261.96"/>
<polygon fill="midnightblue" stroke="midnightblue" points="638.64,-259.24 629.09,-254.66 633.7,-264.2 638.64,-259.24"/>
</g>
<!-- Node32 -->
<g id="node32" class="node">
<title>Node32</title>
<g id="a_node32"><a xlink:href="../../d4/d6a/a00704.html" target="_top" xlink:title=" ">
<polygon fill="none" stroke="black" points="708.5,-179.5 708.5,-198.5 866.5,-198.5 866.5,-179.5 708.5,-179.5"/>
<text text-anchor="middle" x="787.5" y="-186.5" font-family="Helvetica,sans-Serif" font-size="10.00">discordcoreapi/EventEntities.hpp</text>
</a>
</g>
</g>
<!-- Node30&#45;&gt;Node32 -->
<g id="edge62" class="edge">
<title>Node30&#45;&gt;Node32</title>
<path fill="none" stroke="midnightblue" d="M833.87,-515.21C824.85,-505.69 813.68,-492.49 806.5,-479 792.36,-452.43 787.5,-444.1 787.5,-414 787.5,-414 787.5,-414 787.5,-300 787.5,-267.95 787.5,-230.64 787.5,-208.75"/>
<polygon fill="midnightblue" stroke="midnightblue" points="791,-208.56 787.5,-198.56 784,-208.56 791,-208.56"/>
</g>
<!-- Node35 -->
<g id="node35" class="node">
<title>Node35</title>
<g id="a_node35"><a xlink:href="../../d0/db6/a00692.html" target="_top" xlink:title=" ">
<polygon fill="none" stroke="black" points="816,-459.5 816,-478.5 1003,-478.5 1003,-459.5 816,-459.5"/>
<text text-anchor="middle" x="909.5" y="-466.5" font-family="Helvetica,sans-Serif" font-size="10.00">discordcoreapi/CommandController.hpp</text>
</a>
</g>
</g>
<!-- Node30&#45;&gt;Node35 -->
<g id="edge38" class="edge">
<title>Node30&#45;&gt;Node35</title>
<path fill="none" stroke="midnightblue" d="M862.96,-515.4C872.09,-506.49 883.92,-494.95 893.36,-485.74"/>
<polygon fill="midnightblue" stroke="midnightblue" points="895.91,-488.15 900.62,-478.66 891.02,-483.13 895.91,-488.15"/>
</g>
<!-- Node37 -->
<g id="node37" class="node">
<title>Node37</title>
<g id="a_node37"><a xlink:href="../../d3/d4f/a00761.html" target="_top" xlink:title=" ">
<polygon fill="none" stroke="black" points="990.5,-347.5 990.5,-366.5 1140.5,-366.5 1140.5,-347.5 990.5,-347.5"/>
<text text-anchor="middle" x="1065.5" y="-354.5" font-family="Helvetica,sans-Serif" font-size="10.00">discordcoreapi/ThreadPool.hpp</text>
</a>
</g>
</g>
<!-- Node30&#45;&gt;Node37 -->
<g id="edge64" class="edge">
<title>Node30&#45;&gt;Node37</title>
<path fill="none" stroke="midnightblue" d="M914.8,-515.44C945.4,-507.35 981.5,-495.47 1011.5,-479 1045.22,-460.49 1061.34,-457.91 1077.5,-423 1084.42,-408.06 1079.81,-389.46 1074.43,-375.99"/>
<polygon fill="midnightblue" stroke="midnightblue" points="1077.61,-374.53 1070.34,-366.83 1071.22,-377.39 1077.61,-374.53"/>
</g>
<!-- Node39 -->
<g id="node39" class="node">
<title>Node39</title>
<g id="a_node39"><a xlink:href="../../d5/de8/a00749.html" target="_top" xlink:title=" ">
<polygon fill="none" stroke="black" points="1306.5,-235.5 1306.5,-254.5 1456.5,-254.5 1456.5,-235.5 1306.5,-235.5"/>
<text text-anchor="middle" x="1381.5" y="-242.5" font-family="Helvetica,sans-Serif" font-size="10.00">discordcoreapi/SSLClients.hpp</text>
</a>
</g>
</g>
<!-- Node30&#45;&gt;Node39 -->
<g id="edge63" class="edge">
<title>Node30&#45;&gt;Node39</title>
<path fill="none" stroke="midnightblue" d="M915.73,-528.89C1059.02,-525.77 1381.5,-508.27 1381.5,-414 1381.5,-414 1381.5,-414 1381.5,-356 1381.5,-323.95 1381.5,-286.64 1381.5,-264.75"/>
<polygon fill="midnightblue" stroke="midnightblue" points="1385,-264.56 1381.5,-254.56 1378,-264.56 1385,-264.56"/>
</g>
<!-- Node52 -->
<g id="node52" class="node">
<title>Node52</title>
<g id="a_node52"><a xlink:href="../../dd/d57/a00701.html" target="_top" xlink:title=" ">
<polygon fill="none" stroke="black" points="1742.5,-403.5 1742.5,-422.5 1886.5,-422.5 1886.5,-403.5 1742.5,-403.5"/>
<text text-anchor="middle" x="1814.5" y="-410.5" font-family="Helvetica,sans-Serif" font-size="10.00">discordcoreapi/ErlPacker.hpp</text>
</a>
</g>
</g>
<!-- Node30&#45;&gt;Node52 -->
<g id="edge60" class="edge">
<title>Node30&#45;&gt;Node52</title>
<path fill="none" stroke="midnightblue" d="M915.59,-524.65C1018.88,-516.88 1223,-500.32 1395.5,-479 1524.59,-463.04 1675.09,-438.15 1755.94,-424.26"/>
<polygon fill="midnightblue" stroke="midnightblue" points="1756.67,-427.68 1765.93,-422.53 1755.48,-420.78 1756.67,-427.68"/>
</g>
<!-- Node31&#45;&gt;Node3 -->
<g id="edge35" class="edge">
<title>Node31&#45;&gt;Node3</title>
<path fill="none" stroke="midnightblue" d="M538.33,-242.51C463.8,-238.34 370.67,-224.33 411.5,-179 438.18,-149.38 689.06,-135.96 818.31,-130.97"/>
<polygon fill="midnightblue" stroke="midnightblue" points="818.67,-134.46 828.53,-130.59 818.41,-127.47 818.67,-134.46"/>
</g>
<!-- Node31&#45;&gt;Node32 -->
<g id="edge33" class="edge">
<title>Node31&#45;&gt;Node32</title>
<path fill="none" stroke="midnightblue" d="M646.12,-235.44C674.51,-226.32 719.64,-211.81 751.25,-201.65"/>
<polygon fill="midnightblue" stroke="midnightblue" points="752.56,-204.91 761,-198.52 750.41,-198.24 752.56,-204.91"/>
</g>
<!-- Node33 -->
<g id="node33" class="node">
<title>Node33</title>
<g id="a_node33"><a xlink:title=" ">
<polygon fill="none" stroke="#bfbfbf" points="420.5,-179.5 420.5,-198.5 530.5,-198.5 530.5,-179.5 420.5,-179.5"/>
<text text-anchor="middle" x="475.5" y="-186.5" font-family="Helvetica,sans-Serif" font-size="10.00">libavformat/avformat.h</text>
</a>
</g>
</g>
<!-- Node31&#45;&gt;Node33 -->
<g id="edge36" class="edge">
<title>Node31&#45;&gt;Node33</title>
<path fill="none" stroke="midnightblue" d="M596.68,-235.44C572.67,-226.44 534.67,-212.19 507.63,-202.05"/>
<polygon fill="midnightblue" stroke="midnightblue" points="508.8,-198.75 498.21,-198.52 506.34,-205.3 508.8,-198.75"/>
</g>
<!-- Node34 -->
<g id="node34" class="node">
<title>Node34</title>
<g id="a_node34"><a xlink:title=" ">
<polygon fill="none" stroke="#bfbfbf" points="549,-179.5 549,-198.5 690,-198.5 690,-179.5 549,-179.5"/>
<text text-anchor="middle" x="619.5" y="-186.5" font-family="Helvetica,sans-Serif" font-size="10.00">libswresample/swresample.h</text>
</a>
</g>
</g>
<!-- Node31&#45;&gt;Node34 -->
<g id="edge37" class="edge">
<title>Node31&#45;&gt;Node34</title>
<path fill="none" stroke="midnightblue" d="M619.5,-235.08C619.5,-228.01 619.5,-217.86 619.5,-208.99"/>
<polygon fill="midnightblue" stroke="midnightblue" points="623,-208.75 619.5,-198.75 616,-208.75 623,-208.75"/>
</g>
<!-- Node32&#45;&gt;Node3 -->
<g id="edge34" class="edge">
<title>Node32&#45;&gt;Node3</title>
<path fill="none" stroke="midnightblue" d="M802.83,-179.48C817.8,-171.15 841.08,-158.21 860.43,-147.45"/>
<polygon fill="midnightblue" stroke="midnightblue" points="862.24,-150.44 869.28,-142.52 858.84,-144.32 862.24,-150.44"/>
</g>
<!-- Node35&#45;&gt;Node3 -->
<g id="edge39" class="edge">
<title>Node35&#45;&gt;Node3</title>
<path fill="none" stroke="midnightblue" d="M907.54,-459.5C903.47,-441.09 894.5,-396.16 894.5,-358 894.5,-358 894.5,-358 894.5,-244 894.5,-212.49 894.5,-176.16 894.5,-152.78"/>
<polygon fill="midnightblue" stroke="midnightblue" points="898,-152.72 894.5,-142.72 891,-152.72 898,-152.72"/>
</g>
<!-- Node35&#45;&gt;Node36 -->
<g id="edge40" class="edge">
<title>Node35&#45;&gt;Node36</title>
<path fill="none" stroke="midnightblue" d="M923.32,-459.32C936.73,-450.9 957.32,-437.97 973.09,-428.07"/>
<polygon fill="midnightblue" stroke="midnightblue" points="975.11,-430.94 981.72,-422.65 971.39,-425.01 975.11,-430.94"/>
</g>
<!-- Node36&#45;&gt;Node3 -->
<g id="edge41" class="edge">
<title>Node36&#45;&gt;Node3</title>
<path fill="none" stroke="midnightblue" d="M986.2,-403.28C968.68,-385.85 932.5,-344.69 932.5,-302 932.5,-302 932.5,-302 932.5,-244 932.5,-210.72 918.09,-174.62 907.01,-151.8"/>
<polygon fill="midnightblue" stroke="midnightblue" points="910,-149.95 902.37,-142.59 903.75,-153.1 910,-149.95"/>
</g>
<!-- Node36&#45;&gt;Node37 -->
<g id="edge42" class="edge">
<title>Node36&#45;&gt;Node37</title>
<path fill="none" stroke="midnightblue" d="M1006.75,-403.32C1017.3,-395.18 1033.3,-382.84 1045.94,-373.09"/>
<polygon fill="midnightblue" stroke="midnightblue" points="1048.27,-375.71 1054.05,-366.83 1043.99,-370.17 1048.27,-375.71"/>
</g>
<!-- Node37&#45;&gt;Node3 -->
<g id="edge43" class="edge">
<title>Node37&#45;&gt;Node3</title>
<path fill="none" stroke="midnightblue" d="M1060.62,-347.45C1045.41,-321.09 996.83,-239.24 946.5,-179 937.93,-168.74 927.51,-158.3 918.26,-149.59"/>
<polygon fill="midnightblue" stroke="midnightblue" points="920.55,-146.94 910.83,-142.73 915.8,-152.08 920.55,-146.94"/>
</g>
<!-- Node37&#45;&gt;Node38 -->
<g id="edge44" class="edge">
<title>Node37&#45;&gt;Node38</title>
<path fill="none" stroke="midnightblue" d="M1101.15,-347.44C1140.16,-338.08 1202.77,-323.06 1245.22,-312.87"/>
<polygon fill="midnightblue" stroke="midnightblue" points="1246.11,-316.25 1255.01,-310.52 1244.47,-309.45 1246.11,-316.25"/>
</g>
<!-- Node38&#45;&gt;Node39 -->
<g id="edge45" class="edge">
<title>Node38&#45;&gt;Node39</title>
<path fill="none" stroke="midnightblue" d="M1305.12,-291.32C1319.45,-282.82 1341.51,-269.73 1358.25,-259.8"/>
<polygon fill="midnightblue" stroke="midnightblue" points="1360.1,-262.77 1366.92,-254.65 1356.53,-256.75 1360.1,-262.77"/>
</g>
<!-- Node39&#45;&gt;Node3 -->
<g id="edge46" class="edge">
<title>Node39&#45;&gt;Node3</title>
<path fill="none" stroke="midnightblue" d="M1306.26,-242.25C1233.43,-238.75 1120.66,-228.53 1027.5,-199 1017.21,-195.74 964.79,-167.32 928.92,-147.57"/>
<polygon fill="midnightblue" stroke="midnightblue" points="930.19,-144.28 919.74,-142.51 926.81,-150.41 930.19,-144.28"/>
</g>
<!-- Node39&#45;&gt;Node32 -->
<g id="edge47" class="edge">
<title>Node39&#45;&gt;Node32</title>
<path fill="none" stroke="midnightblue" d="M1306.27,-237.16C1196.76,-227.21 993.81,-208.76 876.85,-198.12"/>
<polygon fill="midnightblue" stroke="midnightblue" points="877.12,-194.63 866.84,-197.21 876.49,-201.6 877.12,-194.63"/>
</g>
<!-- Node40 -->
<g id="node40" class="node">
<title>Node40</title>
<g id="a_node40"><a xlink:title=" ">
<polygon fill="none" stroke="#bfbfbf" points="1037,-179.5 1037,-198.5 1110,-198.5 1110,-179.5 1037,-179.5"/>
<text text-anchor="middle" x="1073.5" y="-186.5" font-family="Helvetica,sans-Serif" font-size="10.00">openssl/err.h</text>
</a>
</g>
</g>
<!-- Node39&#45;&gt;Node40 -->
<g id="edge48" class="edge">
<title>Node39&#45;&gt;Node40</title>
<path fill="none" stroke="midnightblue" d="M1329.74,-235.47C1279.01,-227.03 1199.23,-213.55 1120.27,-199.11"/>
<polygon fill="midnightblue" stroke="midnightblue" points="1120.61,-195.61 1110.14,-197.25 1119.35,-202.5 1120.61,-195.61"/>
</g>
<!-- Node41 -->
<g id="node41" class="node">
<title>Node41</title>
<g id="a_node41"><a xlink:title=" ">
<polygon fill="none" stroke="#bfbfbf" points="1128.5,-179.5 1128.5,-198.5 1202.5,-198.5 1202.5,-179.5 1128.5,-179.5"/>
<text text-anchor="middle" x="1165.5" y="-186.5" font-family="Helvetica,sans-Serif" font-size="10.00">openssl/ssl.h</text>
</a>
</g>
</g>
<!-- Node39&#45;&gt;Node41 -->
<g id="edge49" class="edge">
<title>Node39&#45;&gt;Node41</title>
<path fill="none" stroke="midnightblue" d="M1347.27,-235.44C1309.99,-226.12 1250.23,-211.18 1209.49,-201"/>
<polygon fill="midnightblue" stroke="midnightblue" points="1210.12,-197.55 1199.57,-198.52 1208.42,-204.34 1210.12,-197.55"/>
</g>
<!-- Node42 -->
<g id="node42" class="node">
<title>Node42</title>
<g id="a_node42"><a xlink:title=" ">
<polygon fill="none" stroke="#bfbfbf" points="1221,-179.5 1221,-198.5 1264,-198.5 1264,-179.5 1221,-179.5"/>
<text text-anchor="middle" x="1242.5" y="-186.5" font-family="Helvetica,sans-Serif" font-size="10.00">fcntl.h</text>
</a>
</g>
</g>
<!-- Node39&#45;&gt;Node42 -->
<g id="edge50" class="edge">
<title>Node39&#45;&gt;Node42</title>
<path fill="none" stroke="midnightblue" d="M1359.48,-235.44C1336.4,-226.48 1299.94,-212.31 1273.86,-202.18"/>
<polygon fill="midnightblue" stroke="midnightblue" points="1275.01,-198.88 1264.42,-198.52 1272.48,-205.4 1275.01,-198.88"/>
</g>
<!-- Node43 -->
<g id="node43" class="node">
<title>Node43</title>
<g id="a_node43"><a xlink:title=" ">
<polygon fill="none" stroke="#bfbfbf" points="1282,-179.5 1282,-198.5 1331,-198.5 1331,-179.5 1282,-179.5"/>
<text text-anchor="middle" x="1306.5" y="-186.5" font-family="Helvetica,sans-Serif" font-size="10.00">netdb.h</text>
</a>
</g>
</g>
<!-- Node39&#45;&gt;Node43 -->
<g id="edge51" class="edge">
<title>Node39&#45;&gt;Node43</title>
<path fill="none" stroke="midnightblue" d="M1369.45,-235.32C1358.04,-227.11 1340.67,-214.6 1327.07,-204.81"/>
<polygon fill="midnightblue" stroke="midnightblue" points="1328.93,-201.84 1318.77,-198.83 1324.84,-207.52 1328.93,-201.84"/>
</g>
<!-- Node44 -->
<g id="node44" class="node">
<title>Node44</title>
<g id="a_node44"><a xlink:title=" ">
<polygon fill="none" stroke="#bfbfbf" points="1349,-179.5 1349,-198.5 1414,-198.5 1414,-179.5 1349,-179.5"/>
<text text-anchor="middle" x="1381.5" y="-186.5" font-family="Helvetica,sans-Serif" font-size="10.00">netinet/in.h</text>
</a>
</g>
</g>
<!-- Node39&#45;&gt;Node44 -->
<g id="edge52" class="edge">
<title>Node39&#45;&gt;Node44</title>
<path fill="none" stroke="midnightblue" d="M1381.5,-235.08C1381.5,-228.01 1381.5,-217.86 1381.5,-208.99"/>
<polygon fill="midnightblue" stroke="midnightblue" points="1385,-208.75 1381.5,-198.75 1378,-208.75 1385,-208.75"/>
</g>
<!-- Node45 -->
<g id="node45" class="node">
<title>Node45</title>
<g id="a_node45"><a xlink:title=" ">
<polygon fill="none" stroke="#bfbfbf" points="1432,-179.5 1432,-198.5 1503,-198.5 1503,-179.5 1432,-179.5"/>
<text text-anchor="middle" x="1467.5" y="-186.5" font-family="Helvetica,sans-Serif" font-size="10.00">netinet/tcp.h</text>
</a>
</g>
</g>
<!-- Node39&#45;&gt;Node45 -->
<g id="edge53" class="edge">
<title>Node39&#45;&gt;Node45</title>
<path fill="none" stroke="midnightblue" d="M1395.32,-235.32C1408.73,-226.9 1429.32,-213.97 1445.09,-204.07"/>
<polygon fill="midnightblue" stroke="midnightblue" points="1447.11,-206.94 1453.72,-198.65 1443.39,-201.01 1447.11,-206.94"/>
</g>
<!-- Node46 -->
<g id="node46" class="node">
<title>Node46</title>
<g id="a_node46"><a xlink:title=" ">
<polygon fill="none" stroke="#bfbfbf" points="1521,-179.5 1521,-198.5 1570,-198.5 1570,-179.5 1521,-179.5"/>
<text text-anchor="middle" x="1545.5" y="-186.5" font-family="Helvetica,sans-Serif" font-size="10.00">stdint.h</text>
</a>
</g>
</g>
<!-- Node39&#45;&gt;Node46 -->
<g id="edge54" class="edge">
<title>Node39&#45;&gt;Node46</title>
<path fill="none" stroke="midnightblue" d="M1407.49,-235.44C1435.6,-226.19 1480.55,-211.39 1511.47,-201.21"/>
<polygon fill="midnightblue" stroke="midnightblue" points="1512.57,-204.53 1520.97,-198.08 1510.38,-197.88 1512.57,-204.53"/>
</g>
<!-- Node47 -->
<g id="node47" class="node">
<title>Node47</title>
<g id="a_node47"><a xlink:title=" ">
<polygon fill="none" stroke="#bfbfbf" points="1588.5,-179.5 1588.5,-198.5 1652.5,-198.5 1652.5,-179.5 1588.5,-179.5"/>
<text text-anchor="middle" x="1620.5" y="-186.5" font-family="Helvetica,sans-Serif" font-size="10.00">sys/epoll.h</text>
</a>
</g>
</g>
<!-- Node39&#45;&gt;Node47 -->
<g id="edge55" class="edge">
<title>Node39&#45;&gt;Node47</title>
<path fill="none" stroke="midnightblue" d="M1419.37,-235.44C1462.6,-225.68 1533.12,-209.74 1578.14,-199.57"/>
<polygon fill="midnightblue" stroke="midnightblue" points="1579.19,-202.92 1588.17,-197.3 1577.65,-196.09 1579.19,-202.92"/>
</g>
<!-- Node48 -->
<g id="node48" class="node">
<title>Node48</title>
<g id="a_node48"><a xlink:title=" ">
<polygon fill="none" stroke="#bfbfbf" points="1670.5,-179.5 1670.5,-198.5 1732.5,-198.5 1732.5,-179.5 1670.5,-179.5"/>
<text text-anchor="middle" x="1701.5" y="-186.5" font-family="Helvetica,sans-Serif" font-size="10.00">arpa/inet.h</text>
</a>
</g>
</g>
<!-- Node39&#45;&gt;Node48 -->
<g id="edge56" class="edge">
<title>Node39&#45;&gt;Node48</title>
<path fill="none" stroke="midnightblue" d="M1441.23,-235.5C1495.82,-227.48 1579.03,-214.63 1660.21,-199.16"/>
<polygon fill="midnightblue" stroke="midnightblue" points="1660.94,-202.58 1670.1,-197.26 1659.61,-195.71 1660.94,-202.58"/>
</g>
<!-- Node49 -->
<g id="node49" class="node">
<title>Node49</title>
<g id="a_node49"><a xlink:title=" ">
<polygon fill="none" stroke="#bfbfbf" points="1751,-179.5 1751,-198.5 1824,-198.5 1824,-179.5 1751,-179.5"/>
<text text-anchor="middle" x="1787.5" y="-186.5" font-family="Helvetica,sans-Serif" font-size="10.00">sys/socket.h</text>
</a>
</g>
</g>
<!-- Node39&#45;&gt;Node49 -->
<g id="edge57" class="edge">
<title>Node39&#45;&gt;Node49</title>
<path fill="none" stroke="midnightblue" d="M1456.52,-236.15C1527.21,-228.4 1636.31,-215.55 1740.79,-199.01"/>
<polygon fill="midnightblue" stroke="midnightblue" points="1741.56,-202.43 1750.88,-197.4 1740.46,-195.52 1741.56,-202.43"/>
</g>
<!-- Node50 -->
<g id="node50" class="node">
<title>Node50</title>
<g id="a_node50"><a xlink:title=" ">
<polygon fill="none" stroke="#bfbfbf" points="1842.5,-179.5 1842.5,-198.5 1910.5,-198.5 1910.5,-179.5 1842.5,-179.5"/>
<text text-anchor="middle" x="1876.5" y="-186.5" font-family="Helvetica,sans-Serif" font-size="10.00">sys/types.h</text>
</a>
</g>
</g>
<!-- Node39&#45;&gt;Node50 -->
<g id="edge58" class="edge">
<title>Node39&#45;&gt;Node50</title>
<path fill="none" stroke="midnightblue" d="M1456.59,-239C1544.42,-232.59 1694.35,-219.92 1832.38,-199.02"/>
<polygon fill="midnightblue" stroke="midnightblue" points="1832.94,-202.48 1842.29,-197.5 1831.88,-195.56 1832.94,-202.48"/>
</g>
<!-- Node51 -->
<g id="node51" class="node">
<title>Node51</title>
<g id="a_node51"><a xlink:title=" ">
<polygon fill="none" stroke="#bfbfbf" points="1929,-179.5 1929,-198.5 1980,-198.5 1980,-179.5 1929,-179.5"/>
<text text-anchor="middle" x="1954.5" y="-186.5" font-family="Helvetica,sans-Serif" font-size="10.00">unistd.h</text>
</a>
</g>
</g>
<!-- Node39&#45;&gt;Node51 -->
<g id="edge59" class="edge">
<title>Node39&#45;&gt;Node51</title>
<path fill="none" stroke="midnightblue" d="M1456.85,-241.69C1559.37,-237.67 1748.55,-227.08 1919.08,-198.76"/>
<polygon fill="midnightblue" stroke="midnightblue" points="1919.71,-202.2 1928.99,-197.09 1918.55,-195.3 1919.71,-202.2"/>
</g>
<!-- Node52&#45;&gt;Node3 -->
<g id="edge61" class="edge">
<title>Node52&#45;&gt;Node3</title>
<path fill="none" stroke="midnightblue" d="M1875.08,-403.5C1932.01,-391.69 2008.5,-364.24 2008.5,-302 2008.5,-302 2008.5,-302 2008.5,-244 2008.5,-213.9 2013.16,-197.6 1989.5,-179 1949.49,-147.55 1211.69,-133.4 970.26,-129.6"/>
<polygon fill="midnightblue" stroke="midnightblue" points="970.23,-126.09 960.17,-129.44 970.12,-133.09 970.23,-126.09"/>
</g>
</g>
</svg>
