<?xml version="1.0" encoding="UTF-8" standalone="no"?>
<!DOCTYPE svg PUBLIC "-//W3C//DTD SVG 1.1//EN"
 "http://www.w3.org/Graphics/SVG/1.1/DTD/svg11.dtd">
<!-- Generated by graphviz version 2.43.0 (0)
 -->
<!-- Title: ReactionEntities.cpp Pages: 1 -->
<svg width="2004pt" height="722pt"
 viewBox="0.00 0.00 2004.00 722.00" xmlns="http://www.w3.org/2000/svg" xmlns:xlink="http://www.w3.org/1999/xlink">
<g id="graph0" class="graph" transform="scale(1 1) rotate(0) translate(4 718)">
<title>ReactionEntities.cpp</title>
<!-- Node1 -->
<g id="node1" class="node">
<title>Node1</title>
<g id="a_node1"><a xlink:title=" ">
<polygon fill="#bfbfbf" stroke="black" points="1359.5,-694.5 1359.5,-713.5 1475.5,-713.5 1475.5,-694.5 1359.5,-694.5"/>
<text text-anchor="middle" x="1417.5" y="-701.5" font-family="Helvetica,sans-Serif" font-size="10.00">ReactionEntities.cpp</text>
</a>
</g>
</g>
<!-- Node2 -->
<g id="node2" class="node">
<title>Node2</title>
<g id="a_node2"><a xlink:href="../../dd/db2/a00737.html" target="_top" xlink:title=" ">
<polygon fill="none" stroke="black" points="1581,-638.5 1581,-657.5 1772,-657.5 1772,-638.5 1581,-638.5"/>
<text text-anchor="middle" x="1676.5" y="-645.5" font-family="Helvetica,sans-Serif" font-size="10.00">discordcoreapi/ReactionEntities.hpp</text>
</a>
</g>
</g>
<!-- Node1&#45;&gt;Node2 -->
<g id="edge1" class="edge">
<title>Node1&#45;&gt;Node2</title>
<path fill="none" stroke="midnightblue" d="M1458.54,-694.44C1503.82,-685 1576.73,-669.8 1625.61,-659.61"/>
<polygon fill="midnightblue" stroke="midnightblue" points="1626.58,-662.98 1635.65,-657.52 1625.15,-656.13 1626.58,-662.98"/>
</g>
<!-- Node18 -->
<g id="node18" class="node">
<title>Node18</title>
<g id="a_node18"><a xlink:title=" ">
<polygon fill="none" stroke="#bfbfbf" points="1941,-0.5 1941,-19.5 1996,-19.5 1996,-0.5 1941,-0.5"/>
<text text-anchor="middle" x="1968.5" y="-7.5" font-family="Helvetica,sans-Serif" font-size="10.00">fstream</text>
</a>
</g>
</g>
<!-- Node1&#45;&gt;Node18 -->
<g id="edge67" class="edge">
<title>Node1&#45;&gt;Node18</title>
<path fill="none" stroke="midnightblue" d="M1475.58,-702.72C1610.26,-700.52 1932.5,-685.57 1932.5,-593 1932.5,-593 1932.5,-593 1932.5,-126.5 1932.5,-90.6 1948.55,-51.15 1959.22,-28.89"/>
<polygon fill="midnightblue" stroke="midnightblue" points="1962.47,-30.21 1963.79,-19.7 1956.2,-27.09 1962.47,-30.21"/>
</g>
<!-- Node35 -->
<g id="node35" class="node">
<title>Node35</title>
<g id="a_node35"><a xlink:href="../../d5/d5b/a00695.html" target="_top" xlink:title=" ">
<polygon fill="none" stroke="black" points="1167.5,-403.5 1167.5,-422.5 1329.5,-422.5 1329.5,-403.5 1167.5,-403.5"/>
<text text-anchor="middle" x="1248.5" y="-410.5" font-family="Helvetica,sans-Serif" font-size="10.00">discordcoreapi/CoRoutine.hpp</text>
</a>
</g>
</g>
<!-- Node1&#45;&gt;Node35 -->
<g id="edge65" class="edge">
<title>Node1&#45;&gt;Node35</title>
<path fill="none" stroke="midnightblue" d="M1359.17,-694.88C1267.87,-680.52 1101.5,-646.95 1101.5,-593 1101.5,-593 1101.5,-593 1101.5,-529.5 1101.5,-474.58 1165.72,-441.8 1209.26,-425.89"/>
<polygon fill="midnightblue" stroke="midnightblue" points="1210.47,-429.18 1218.75,-422.57 1208.16,-422.57 1210.47,-429.18"/>
</g>
<!-- Node37 -->
<g id="node37" class="node">
<title>Node37</title>
<g id="a_node37"><a xlink:href="../../db/d7c/a00722.html" target="_top" xlink:title=" ">
<polygon fill="none" stroke="black" points="973.5,-291.5 973.5,-310.5 1111.5,-310.5 1111.5,-291.5 973.5,-291.5"/>
<text text-anchor="middle" x="1042.5" y="-298.5" font-family="Helvetica,sans-Serif" font-size="10.00">discordcoreapi/Https.hpp</text>
</a>
</g>
</g>
<!-- Node1&#45;&gt;Node37 -->
<g id="edge66" class="edge">
<title>Node1&#45;&gt;Node37</title>
<path fill="none" stroke="midnightblue" d="M1359.49,-702.6C1225.82,-700.12 907.5,-684.6 907.5,-593 907.5,-593 907.5,-593 907.5,-412 907.5,-361.31 965.41,-329.83 1005.38,-314.14"/>
<polygon fill="midnightblue" stroke="midnightblue" points="1006.72,-317.38 1014.85,-310.58 1004.26,-310.82 1006.72,-317.38"/>
</g>
<!-- Node3 -->
<g id="node3" class="node">
<title>Node3</title>
<g id="a_node3"><a xlink:href="../../d4/deb/a00710.html" target="_top" xlink:title=" ">
<polygon fill="none" stroke="black" points="1270,-112.5 1270,-142.5 1415,-142.5 1415,-112.5 1270,-112.5"/>
<text text-anchor="start" x="1278" y="-130.5" font-family="Helvetica,sans-Serif" font-size="10.00">discordcoreapi/Foundation</text>
<text text-anchor="middle" x="1342.5" y="-119.5" font-family="Helvetica,sans-Serif" font-size="10.00">Entities.hpp</text>
</a>
</g>
</g>
<!-- Node2&#45;&gt;Node3 -->
<g id="edge2" class="edge">
<title>Node2&#45;&gt;Node3</title>
<path fill="none" stroke="midnightblue" d="M1723.37,-638.42C1777.29,-625.53 1858.5,-595.49 1858.5,-531.5 1858.5,-531.5 1858.5,-531.5 1858.5,-244 1858.5,-205.28 1834.91,-196.74 1800.5,-179 1737,-146.26 1539.17,-134.62 1425.35,-130.58"/>
<polygon fill="midnightblue" stroke="midnightblue" points="1425.4,-127.08 1415.28,-130.23 1425.16,-134.07 1425.4,-127.08"/>
</g>
<!-- Node28 -->
<g id="node28" class="node">
<title>Node28</title>
<g id="a_node28"><a xlink:href="../../d3/d2c/a00764.html" target="_top" xlink:title=" ">
<polygon fill="none" stroke="black" points="1591,-582.5 1591,-601.5 1762,-601.5 1762,-582.5 1591,-582.5"/>
<text text-anchor="middle" x="1676.5" y="-589.5" font-family="Helvetica,sans-Serif" font-size="10.00">discordcoreapi/UserEntities.hpp</text>
</a>
</g>
</g>
<!-- Node2&#45;&gt;Node28 -->
<g id="edge27" class="edge">
<title>Node2&#45;&gt;Node28</title>
<path fill="none" stroke="midnightblue" d="M1676.5,-638.08C1676.5,-631.01 1676.5,-620.86 1676.5,-611.99"/>
<polygon fill="midnightblue" stroke="midnightblue" points="1680,-611.75 1676.5,-601.75 1673,-611.75 1680,-611.75"/>
</g>
<!-- Node4 -->
<g id="node4" class="node">
<title>Node4</title>
<g id="a_node4"><a xlink:href="../../d5/dae/a00767.html" target="_top" xlink:title=" ">
<polygon fill="none" stroke="black" points="1161.5,-56.5 1161.5,-75.5 1311.5,-75.5 1311.5,-56.5 1161.5,-56.5"/>
<text text-anchor="middle" x="1236.5" y="-63.5" font-family="Helvetica,sans-Serif" font-size="10.00">discordcoreapi/Utilities.hpp</text>
</a>
</g>
</g>
<!-- Node3&#45;&gt;Node4 -->
<g id="edge3" class="edge">
<title>Node3&#45;&gt;Node4</title>
<path fill="none" stroke="midnightblue" d="M1317.38,-112.4C1300.23,-102.77 1277.64,-90.09 1260.69,-80.58"/>
<polygon fill="midnightblue" stroke="midnightblue" points="1262.36,-77.5 1251.92,-75.66 1258.93,-83.6 1262.36,-77.5"/>
</g>
<!-- Node5 -->
<g id="node5" class="node">
<title>Node5</title>
<g id="a_node5"><a xlink:title=" ">
<polygon fill="none" stroke="#bfbfbf" points="1773,-0.5 1773,-19.5 1836,-19.5 1836,-0.5 1773,-0.5"/>
<text text-anchor="middle" x="1804.5" y="-7.5" font-family="Helvetica,sans-Serif" font-size="10.00">pthread.h</text>
</a>
</g>
</g>
<!-- Node4&#45;&gt;Node5 -->
<g id="edge4" class="edge">
<title>Node4&#45;&gt;Node5</title>
<path fill="none" stroke="midnightblue" d="M1311.92,-61.67C1412.54,-56.53 1596.36,-44.73 1762.86,-19.89"/>
<polygon fill="midnightblue" stroke="midnightblue" points="1763.43,-23.34 1772.79,-18.39 1762.38,-16.42 1763.43,-23.34"/>
</g>
<!-- Node6 -->
<g id="node6" class="node">
<title>Node6</title>
<g id="a_node6"><a xlink:title=" ">
<polygon fill="none" stroke="#bfbfbf" points="1854.5,-0.5 1854.5,-19.5 1922.5,-19.5 1922.5,-0.5 1854.5,-0.5"/>
<text text-anchor="middle" x="1888.5" y="-7.5" font-family="Helvetica,sans-Serif" font-size="10.00">sys/time.h</text>
</a>
</g>
</g>
<!-- Node4&#45;&gt;Node6 -->
<g id="edge5" class="edge">
<title>Node4&#45;&gt;Node6</title>
<path fill="none" stroke="midnightblue" d="M1311.85,-62.64C1425.32,-58.39 1646.92,-47.31 1844.33,-19.98"/>
<polygon fill="midnightblue" stroke="midnightblue" points="1844.89,-23.44 1854.3,-18.58 1843.92,-16.51 1844.89,-23.44"/>
</g>
<!-- Node7 -->
<g id="node7" class="node">
<title>Node7</title>
<g id="a_node7"><a xlink:title=" ">
<polygon fill="none" stroke="#bfbfbf" points="142.5,-0.5 142.5,-19.5 190.5,-19.5 190.5,-0.5 142.5,-0.5"/>
<text text-anchor="middle" x="166.5" y="-7.5" font-family="Helvetica,sans-Serif" font-size="10.00">time.h</text>
</a>
</g>
</g>
<!-- Node4&#45;&gt;Node7 -->
<g id="edge6" class="edge">
<title>Node4&#45;&gt;Node7</title>
<path fill="none" stroke="midnightblue" d="M1161.45,-63.91C958.99,-60.64 403.85,-49.33 200.51,-19.73"/>
<polygon fill="midnightblue" stroke="midnightblue" points="200.93,-16.25 190.52,-18.21 199.88,-23.17 200.93,-16.25"/>
</g>
<!-- Node8 -->
<g id="node8" class="node">
<title>Node8</title>
<g id="a_node8"><a xlink:title=" ">
<polygon fill="none" stroke="#bfbfbf" points="208.5,-0.5 208.5,-19.5 252.5,-19.5 252.5,-0.5 208.5,-0.5"/>
<text text-anchor="middle" x="230.5" y="-7.5" font-family="Helvetica,sans-Serif" font-size="10.00">ctime</text>
</a>
</g>
</g>
<!-- Node4&#45;&gt;Node8 -->
<g id="edge7" class="edge">
<title>Node4&#45;&gt;Node8</title>
<path fill="none" stroke="midnightblue" d="M1161.31,-63.83C967.4,-60.44 452.83,-49.07 262.6,-19.72"/>
<polygon fill="midnightblue" stroke="midnightblue" points="263.13,-16.26 252.71,-18.13 262.02,-23.17 263.13,-16.26"/>
</g>
<!-- Node9 -->
<g id="node9" class="node">
<title>Node9</title>
<g id="a_node9"><a xlink:title=" ">
<polygon fill="none" stroke="#bfbfbf" points="271,-0.5 271,-19.5 378,-19.5 378,-0.5 271,-0.5"/>
<text text-anchor="middle" x="324.5" y="-7.5" font-family="Helvetica,sans-Serif" font-size="10.00">condition_variable</text>
</a>
</g>
</g>
<!-- Node4&#45;&gt;Node9 -->
<g id="edge8" class="edge">
<title>Node4&#45;&gt;Node9</title>
<path fill="none" stroke="midnightblue" d="M1161.38,-63.26C1014.84,-59.38 680.45,-48.12 388.45,-19.99"/>
<polygon fill="midnightblue" stroke="midnightblue" points="388.37,-16.47 378.08,-18.98 387.69,-23.44 388.37,-16.47"/>
</g>
<!-- Node10 -->
<g id="node10" class="node">
<title>Node10</title>
<g id="a_node10"><a xlink:title=" ">
<polygon fill="none" stroke="#bfbfbf" points="396.5,-0.5 396.5,-19.5 506.5,-19.5 506.5,-0.5 396.5,-0.5"/>
<text text-anchor="middle" x="451.5" y="-7.5" font-family="Helvetica,sans-Serif" font-size="10.00">nlohmann/json.hpp</text>
</a>
</g>
</g>
<!-- Node4&#45;&gt;Node10 -->
<g id="edge9" class="edge">
<title>Node4&#45;&gt;Node10</title>
<path fill="none" stroke="midnightblue" d="M1161.35,-62.23C1031.87,-57.03 758.17,-44.18 516.65,-20.04"/>
<polygon fill="midnightblue" stroke="midnightblue" points="516.93,-16.55 506.63,-19.03 516.22,-23.51 516.93,-16.55"/>
</g>
<!-- Node11 -->
<g id="node11" class="node">
<title>Node11</title>
<g id="a_node11"><a xlink:title=" ">
<polygon fill="none" stroke="#bfbfbf" points="525,-0.5 525,-19.5 618,-19.5 618,-0.5 525,-0.5"/>
<text text-anchor="middle" x="571.5" y="-7.5" font-family="Helvetica,sans-Serif" font-size="10.00">source_location</text>
</a>
</g>
</g>
<!-- Node4&#45;&gt;Node11 -->
<g id="edge10" class="edge">
<title>Node4&#45;&gt;Node11</title>
<path fill="none" stroke="midnightblue" d="M1161.17,-61.59C1047.69,-55.98 825.94,-43.17 628.26,-20.12"/>
<polygon fill="midnightblue" stroke="midnightblue" points="628.61,-16.64 618.27,-18.94 627.79,-23.59 628.61,-16.64"/>
</g>
<!-- Node12 -->
<g id="node12" class="node">
<title>Node12</title>
<g id="a_node12"><a xlink:title=" ">
<polygon fill="none" stroke="#bfbfbf" points="636,-0.5 636,-19.5 729,-19.5 729,-0.5 636,-0.5"/>
<text text-anchor="middle" x="682.5" y="-7.5" font-family="Helvetica,sans-Serif" font-size="10.00">unordered_map</text>
</a>
</g>
</g>
<!-- Node4&#45;&gt;Node12 -->
<g id="edge11" class="edge">
<title>Node4&#45;&gt;Node12</title>
<path fill="none" stroke="midnightblue" d="M1161.24,-59.83C1065.66,-52.9 895.46,-39.34 739.47,-20.04"/>
<polygon fill="midnightblue" stroke="midnightblue" points="739.57,-16.52 729.22,-18.76 738.71,-23.47 739.57,-16.52"/>
</g>
<!-- Node13 -->
<g id="node13" class="node">
<title>Node13</title>
<g id="a_node13"><a xlink:title=" ">
<polygon fill="none" stroke="#bfbfbf" points="747.5,-0.5 747.5,-19.5 833.5,-19.5 833.5,-0.5 747.5,-0.5"/>
<text text-anchor="middle" x="790.5" y="-7.5" font-family="Helvetica,sans-Serif" font-size="10.00">shared_mutex</text>
</a>
</g>
</g>
<!-- Node4&#45;&gt;Node13 -->
<g id="edge12" class="edge">
<title>Node4&#45;&gt;Node13</title>
<path fill="none" stroke="midnightblue" d="M1161.37,-57.62C1082.16,-49.55 953.82,-35.67 843.5,-20 843.4,-19.99 843.3,-19.97 843.2,-19.96"/>
<polygon fill="midnightblue" stroke="midnightblue" points="843.98,-16.53 833.57,-18.51 842.94,-23.46 843.98,-16.53"/>
</g>
<!-- Node14 -->
<g id="node14" class="node">
<title>Node14</title>
<g id="a_node14"><a xlink:title=" ">
<polygon fill="none" stroke="#bfbfbf" points="852,-0.5 852,-19.5 917,-19.5 917,-0.5 852,-0.5"/>
<text text-anchor="middle" x="884.5" y="-7.5" font-family="Helvetica,sans-Serif" font-size="10.00">functional</text>
</a>
</g>
</g>
<!-- Node4&#45;&gt;Node14 -->
<g id="edge13" class="edge">
<title>Node4&#45;&gt;Node14</title>
<path fill="none" stroke="midnightblue" d="M1168.56,-56.47C1107.89,-48.55 1016.37,-35.85 927.05,-19.99"/>
<polygon fill="midnightblue" stroke="midnightblue" points="927.48,-16.51 917.02,-18.19 926.24,-23.4 927.48,-16.51"/>
</g>
<!-- Node15 -->
<g id="node15" class="node">
<title>Node15</title>
<g id="a_node15"><a xlink:title=" ">
<polygon fill="none" stroke="#bfbfbf" points="935,-0.5 935,-19.5 1006,-19.5 1006,-0.5 935,-0.5"/>
<text text-anchor="middle" x="970.5" y="-7.5" font-family="Helvetica,sans-Serif" font-size="10.00">semaphore</text>
</a>
</g>
</g>
<!-- Node4&#45;&gt;Node15 -->
<g id="edge14" class="edge">
<title>Node4&#45;&gt;Node15</title>
<path fill="none" stroke="midnightblue" d="M1194.35,-56.44C1145.7,-46.57 1065.97,-30.38 1015.96,-20.23"/>
<polygon fill="midnightblue" stroke="midnightblue" points="1016.56,-16.78 1006.07,-18.22 1015.17,-23.64 1016.56,-16.78"/>
</g>
<!-- Node16 -->
<g id="node16" class="node">
<title>Node16</title>
<g id="a_node16"><a xlink:title=" ">
<polygon fill="none" stroke="#bfbfbf" points="1024.5,-0.5 1024.5,-19.5 1084.5,-19.5 1084.5,-0.5 1024.5,-0.5"/>
<text text-anchor="middle" x="1054.5" y="-7.5" font-family="Helvetica,sans-Serif" font-size="10.00">concepts</text>
</a>
</g>
</g>
<!-- Node4&#45;&gt;Node16 -->
<g id="edge15" class="edge">
<title>Node4&#45;&gt;Node16</title>
<path fill="none" stroke="midnightblue" d="M1207.66,-56.44C1176.64,-47.24 1127.17,-32.56 1092.88,-22.39"/>
<polygon fill="midnightblue" stroke="midnightblue" points="1093.79,-19.01 1083.2,-19.52 1091.79,-25.72 1093.79,-19.01"/>
</g>
<!-- Node17 -->
<g id="node17" class="node">
<title>Node17</title>
<g id="a_node17"><a xlink:title=" ">
<polygon fill="none" stroke="#bfbfbf" points="1102.5,-0.5 1102.5,-19.5 1162.5,-19.5 1162.5,-0.5 1102.5,-0.5"/>
<text text-anchor="middle" x="1132.5" y="-7.5" font-family="Helvetica,sans-Serif" font-size="10.00">iostream</text>
</a>
</g>
</g>
<!-- Node4&#45;&gt;Node17 -->
<g id="edge16" class="edge">
<title>Node4&#45;&gt;Node17</title>
<path fill="none" stroke="midnightblue" d="M1219.79,-56.32C1203.19,-47.7 1177.5,-34.36 1158.28,-24.39"/>
<polygon fill="midnightblue" stroke="midnightblue" points="1159.66,-21.16 1149.17,-19.65 1156.43,-27.37 1159.66,-21.16"/>
</g>
<!-- Node4&#45;&gt;Node18 -->
<g id="edge17" class="edge">
<title>Node4&#45;&gt;Node18</title>
<path fill="none" stroke="midnightblue" d="M1311.53,-64.41C1437.64,-62.47 1700.12,-54.43 1930.8,-19.81"/>
<polygon fill="midnightblue" stroke="midnightblue" points="1931.36,-23.27 1940.72,-18.31 1930.31,-16.35 1931.36,-23.27"/>
</g>
<!-- Node19 -->
<g id="node19" class="node">
<title>Node19</title>
<g id="a_node19"><a xlink:title=" ">
<polygon fill="none" stroke="#bfbfbf" points="1180.5,-0.5 1180.5,-19.5 1224.5,-19.5 1224.5,-0.5 1180.5,-0.5"/>
<text text-anchor="middle" x="1202.5" y="-7.5" font-family="Helvetica,sans-Serif" font-size="10.00">bitset</text>
</a>
</g>
</g>
<!-- Node4&#45;&gt;Node19 -->
<g id="edge18" class="edge">
<title>Node4&#45;&gt;Node19</title>
<path fill="none" stroke="midnightblue" d="M1230.89,-56.08C1226.13,-48.53 1219.18,-37.49 1213.35,-28.23"/>
<polygon fill="midnightblue" stroke="midnightblue" points="1216.3,-26.35 1208.01,-19.75 1210.38,-30.08 1216.3,-26.35"/>
</g>
<!-- Node20 -->
<g id="node20" class="node">
<title>Node20</title>
<g id="a_node20"><a xlink:title=" ">
<polygon fill="none" stroke="#bfbfbf" points="1242.5,-0.5 1242.5,-19.5 1300.5,-19.5 1300.5,-0.5 1242.5,-0.5"/>
<text text-anchor="middle" x="1271.5" y="-7.5" font-family="Helvetica,sans-Serif" font-size="10.00">memory</text>
</a>
</g>
</g>
<!-- Node4&#45;&gt;Node20 -->
<g id="edge19" class="edge">
<title>Node4&#45;&gt;Node20</title>
<path fill="none" stroke="midnightblue" d="M1242.28,-56.08C1247.17,-48.53 1254.33,-37.49 1260.33,-28.23"/>
<polygon fill="midnightblue" stroke="midnightblue" points="1263.33,-30.05 1265.83,-19.75 1257.45,-26.24 1263.33,-30.05"/>
</g>
<!-- Node21 -->
<g id="node21" class="node">
<title>Node21</title>
<g id="a_node21"><a xlink:title=" ">
<polygon fill="none" stroke="#bfbfbf" points="1318.5,-0.5 1318.5,-19.5 1372.5,-19.5 1372.5,-0.5 1318.5,-0.5"/>
<text text-anchor="middle" x="1345.5" y="-7.5" font-family="Helvetica,sans-Serif" font-size="10.00">random</text>
</a>
</g>
</g>
<!-- Node4&#45;&gt;Node21 -->
<g id="edge20" class="edge">
<title>Node4&#45;&gt;Node21</title>
<path fill="none" stroke="midnightblue" d="M1254.01,-56.32C1271.57,-47.62 1298.83,-34.12 1319.03,-24.11"/>
<polygon fill="midnightblue" stroke="midnightblue" points="1320.62,-27.23 1328.03,-19.65 1317.52,-20.96 1320.62,-27.23"/>
</g>
<!-- Node22 -->
<g id="node22" class="node">
<title>Node22</title>
<g id="a_node22"><a xlink:title=" ">
<polygon fill="none" stroke="#bfbfbf" points="1390.5,-0.5 1390.5,-19.5 1434.5,-19.5 1434.5,-0.5 1390.5,-0.5"/>
<text text-anchor="middle" x="1412.5" y="-7.5" font-family="Helvetica,sans-Serif" font-size="10.00">string</text>
</a>
</g>
</g>
<!-- Node4&#45;&gt;Node22 -->
<g id="edge21" class="edge">
<title>Node4&#45;&gt;Node22</title>
<path fill="none" stroke="midnightblue" d="M1264.39,-56.44C1296.01,-46.74 1347.47,-30.95 1380.65,-20.77"/>
<polygon fill="midnightblue" stroke="midnightblue" points="1381.78,-24.09 1390.32,-17.81 1379.73,-17.39 1381.78,-24.09"/>
</g>
<!-- Node23 -->
<g id="node23" class="node">
<title>Node23</title>
<g id="a_node23"><a xlink:title=" ">
<polygon fill="none" stroke="#bfbfbf" points="1453,-0.5 1453,-19.5 1500,-19.5 1500,-0.5 1453,-0.5"/>
<text text-anchor="middle" x="1476.5" y="-7.5" font-family="Helvetica,sans-Serif" font-size="10.00">vector</text>
</a>
</g>
</g>
<!-- Node4&#45;&gt;Node23 -->
<g id="edge22" class="edge">
<title>Node4&#45;&gt;Node23</title>
<path fill="none" stroke="midnightblue" d="M1279.07,-56.42C1318.89,-48.25 1380.25,-35.27 1442.71,-20.09"/>
<polygon fill="midnightblue" stroke="midnightblue" points="1443.86,-23.41 1452.75,-17.64 1442.2,-16.61 1443.86,-23.41"/>
</g>
<!-- Node24 -->
<g id="node24" class="node">
<title>Node24</title>
<g id="a_node24"><a xlink:title=" ">
<polygon fill="none" stroke="#bfbfbf" points="1518.5,-0.5 1518.5,-19.5 1566.5,-19.5 1566.5,-0.5 1518.5,-0.5"/>
<text text-anchor="middle" x="1542.5" y="-7.5" font-family="Helvetica,sans-Serif" font-size="10.00">thread</text>
</a>
</g>
</g>
<!-- Node4&#45;&gt;Node24 -->
<g id="edge23" class="edge">
<title>Node4&#45;&gt;Node24</title>
<path fill="none" stroke="midnightblue" d="M1299.47,-56.5C1352.75,-48.88 1431.28,-36.64 1508.52,-20.03"/>
<polygon fill="midnightblue" stroke="midnightblue" points="1509.39,-23.42 1518.42,-17.87 1507.9,-16.58 1509.39,-23.42"/>
</g>
<!-- Node25 -->
<g id="node25" class="node">
<title>Node25</title>
<g id="a_node25"><a xlink:title=" ">
<polygon fill="none" stroke="#bfbfbf" points="1584.5,-0.5 1584.5,-19.5 1632.5,-19.5 1632.5,-0.5 1584.5,-0.5"/>
<text text-anchor="middle" x="1608.5" y="-7.5" font-family="Helvetica,sans-Serif" font-size="10.00">mutex</text>
</a>
</g>
</g>
<!-- Node4&#45;&gt;Node25 -->
<g id="edge24" class="edge">
<title>Node4&#45;&gt;Node25</title>
<path fill="none" stroke="midnightblue" d="M1311.71,-57.94C1378.43,-51.02 1478.66,-38.98 1574.57,-19.95"/>
<polygon fill="midnightblue" stroke="midnightblue" points="1575.33,-23.37 1584.44,-17.96 1573.94,-16.5 1575.33,-23.37"/>
</g>
<!-- Node26 -->
<g id="node26" class="node">
<title>Node26</title>
<g id="a_node26"><a xlink:title=" ">
<polygon fill="none" stroke="#bfbfbf" points="1651,-0.5 1651,-19.5 1698,-19.5 1698,-0.5 1651,-0.5"/>
<text text-anchor="middle" x="1674.5" y="-7.5" font-family="Helvetica,sans-Serif" font-size="10.00">queue</text>
</a>
</g>
</g>
<!-- Node4&#45;&gt;Node26 -->
<g id="edge25" class="edge">
<title>Node4&#45;&gt;Node26</title>
<path fill="none" stroke="midnightblue" d="M1311.67,-60.16C1391.14,-54.26 1520.23,-42.41 1640.67,-19.86"/>
<polygon fill="midnightblue" stroke="midnightblue" points="1641.64,-23.24 1650.81,-17.93 1640.33,-16.36 1641.64,-23.24"/>
</g>
<!-- Node27 -->
<g id="node27" class="node">
<title>Node27</title>
<g id="a_node27"><a xlink:title=" ">
<polygon fill="none" stroke="#bfbfbf" points="1716.5,-0.5 1716.5,-19.5 1754.5,-19.5 1754.5,-0.5 1716.5,-0.5"/>
<text text-anchor="middle" x="1735.5" y="-7.5" font-family="Helvetica,sans-Serif" font-size="10.00">map</text>
</a>
</g>
</g>
<!-- Node4&#45;&gt;Node27 -->
<g id="edge26" class="edge">
<title>Node4&#45;&gt;Node27</title>
<path fill="none" stroke="midnightblue" d="M1311.88,-62.8C1403.41,-59.01 1562.38,-48.85 1706.46,-19.78"/>
<polygon fill="midnightblue" stroke="midnightblue" points="1707.27,-23.19 1716.37,-17.75 1705.87,-16.33 1707.27,-23.19"/>
</g>
<!-- Node28&#45;&gt;Node3 -->
<g id="edge28" class="edge">
<title>Node28&#45;&gt;Node3</title>
<path fill="none" stroke="midnightblue" d="M1702.91,-582.43C1744.48,-567.09 1820.5,-530.74 1820.5,-470 1820.5,-470 1820.5,-470 1820.5,-244 1820.5,-208.09 1803.56,-197.02 1772.5,-179 1715.27,-145.79 1533.36,-134.37 1425.34,-130.48"/>
<polygon fill="midnightblue" stroke="midnightblue" points="1425.24,-126.98 1415.13,-130.13 1425,-133.97 1425.24,-126.98"/>
</g>
<!-- Node29 -->
<g id="node29" class="node">
<title>Node29</title>
<g id="a_node29"><a xlink:href="../../d9/dd4/a00776.html" target="_top" xlink:title=" ">
<polygon fill="none" stroke="black" points="1451.5,-515.5 1451.5,-545.5 1595.5,-545.5 1595.5,-515.5 1451.5,-515.5"/>
<text text-anchor="start" x="1459.5" y="-533.5" font-family="Helvetica,sans-Serif" font-size="10.00">discordcoreapi/WebSocket</text>
<text text-anchor="middle" x="1523.5" y="-522.5" font-family="Helvetica,sans-Serif" font-size="10.00">Entities.hpp</text>
</a>
</g>
</g>
<!-- Node28&#45;&gt;Node29 -->
<g id="edge29" class="edge">
<title>Node28&#45;&gt;Node29</title>
<path fill="none" stroke="midnightblue" d="M1654.58,-582.48C1632.4,-573.85 1597.46,-560.26 1569.23,-549.29"/>
<polygon fill="midnightblue" stroke="midnightblue" points="1570.15,-545.89 1559.56,-545.52 1567.61,-552.41 1570.15,-545.89"/>
</g>
<!-- Node29&#45;&gt;Node3 -->
<g id="edge30" class="edge">
<title>Node29&#45;&gt;Node3</title>
<path fill="none" stroke="midnightblue" d="M1595.65,-527.14C1672.28,-520.32 1782.5,-496.22 1782.5,-414 1782.5,-414 1782.5,-414 1782.5,-244 1782.5,-211.19 1774.57,-197.54 1747.5,-179 1696.72,-144.23 1528.37,-133.39 1425.39,-130.02"/>
<polygon fill="midnightblue" stroke="midnightblue" points="1425.43,-126.52 1415.33,-129.71 1425.21,-133.52 1425.43,-126.52"/>
</g>
<!-- Node30 -->
<g id="node30" class="node">
<title>Node30</title>
<g id="a_node30"><a xlink:href="../../d4/d9b/a00680.html" target="_top" xlink:title=" ">
<polygon fill="none" stroke="black" points="1385,-235.5 1385,-254.5 1564,-254.5 1564,-235.5 1385,-235.5"/>
<text text-anchor="middle" x="1474.5" y="-242.5" font-family="Helvetica,sans-Serif" font-size="10.00">discordcoreapi/AudioDecoder.hpp</text>
</a>
</g>
</g>
<!-- Node29&#45;&gt;Node30 -->
<g id="edge31" class="edge">
<title>Node29&#45;&gt;Node30</title>
<path fill="none" stroke="midnightblue" d="M1542.31,-515.37C1552.77,-506.29 1564.8,-493.49 1570.5,-479 1573.75,-470.73 1572.37,-467.69 1570.5,-459 1553.9,-381.79 1507.03,-298.82 1485.52,-263.51"/>
<polygon fill="midnightblue" stroke="midnightblue" points="1488.41,-261.53 1480.18,-254.86 1482.46,-265.21 1488.41,-261.53"/>
</g>
<!-- Node31 -->
<g id="node31" class="node">
<title>Node31</title>
<g id="a_node31"><a xlink:href="../../d4/d6a/a00704.html" target="_top" xlink:title=" ">
<polygon fill="none" stroke="black" points="1062.5,-179.5 1062.5,-198.5 1238.5,-198.5 1238.5,-179.5 1062.5,-179.5"/>
<text text-anchor="middle" x="1150.5" y="-186.5" font-family="Helvetica,sans-Serif" font-size="10.00">discordcoreapi/EventEntities.hpp</text>
</a>
</g>
</g>
<!-- Node29&#45;&gt;Node31 -->
<g id="edge62" class="edge">
<title>Node29&#45;&gt;Node31</title>
<path fill="none" stroke="midnightblue" d="M1451.27,-522.64C1340.04,-510.04 1139.5,-478.4 1139.5,-414 1139.5,-414 1139.5,-414 1139.5,-300 1139.5,-267.79 1144.23,-230.53 1147.48,-208.69"/>
<polygon fill="midnightblue" stroke="midnightblue" points="1150.99,-208.95 1149.06,-198.53 1144.07,-207.87 1150.99,-208.95"/>
</g>
<!-- Node34 -->
<g id="node34" class="node">
<title>Node34</title>
<g id="a_node34"><a xlink:href="../../d0/db6/a00692.html" target="_top" xlink:title=" ">
<polygon fill="none" stroke="black" points="1352,-459.5 1352,-478.5 1561,-478.5 1561,-459.5 1352,-459.5"/>
<text text-anchor="middle" x="1456.5" y="-466.5" font-family="Helvetica,sans-Serif" font-size="10.00">discordcoreapi/CommandController.hpp</text>
</a>
</g>
</g>
<!-- Node29&#45;&gt;Node34 -->
<g id="edge37" class="edge">
<title>Node29&#45;&gt;Node34</title>
<path fill="none" stroke="midnightblue" d="M1507.62,-515.4C1497.48,-506.4 1484.34,-494.72 1473.91,-485.47"/>
<polygon fill="midnightblue" stroke="midnightblue" points="1476.05,-482.68 1466.25,-478.66 1471.4,-487.92 1476.05,-482.68"/>
</g>
<!-- Node36 -->
<g id="node36" class="node">
<title>Node36</title>
<g id="a_node36"><a xlink:href="../../d3/d4f/a00761.html" target="_top" xlink:title=" ">
<polygon fill="none" stroke="black" points="1262,-347.5 1262,-366.5 1429,-366.5 1429,-347.5 1262,-347.5"/>
<text text-anchor="middle" x="1345.5" y="-354.5" font-family="Helvetica,sans-Serif" font-size="10.00">discordcoreapi/ThreadPool.hpp</text>
</a>
</g>
</g>
<!-- Node29&#45;&gt;Node36 -->
<g id="edge64" class="edge">
<title>Node29&#45;&gt;Node36</title>
<path fill="none" stroke="midnightblue" d="M1451.2,-518.3C1407.17,-509.84 1356.88,-496.65 1343.5,-479 1337.51,-471.1 1341.44,-409.03 1343.92,-377"/>
<polygon fill="midnightblue" stroke="midnightblue" points="1347.44,-376.96 1344.75,-366.71 1340.46,-376.4 1347.44,-376.96"/>
</g>
<!-- Node38 -->
<g id="node38" class="node">
<title>Node38</title>
<g id="a_node38"><a xlink:href="../../d5/de8/a00749.html" target="_top" xlink:title=" ">
<polygon fill="none" stroke="black" points="594,-235.5 594,-254.5 757,-254.5 757,-235.5 594,-235.5"/>
<text text-anchor="middle" x="675.5" y="-242.5" font-family="Helvetica,sans-Serif" font-size="10.00">discordcoreapi/SSLClients.hpp</text>
</a>
</g>
</g>
<!-- Node29&#45;&gt;Node38 -->
<g id="edge63" class="edge">
<title>Node29&#45;&gt;Node38</title>
<path fill="none" stroke="midnightblue" d="M1451.46,-530.02C1296.52,-529.2 945.5,-516.08 945.5,-414 945.5,-414 945.5,-414 945.5,-356 945.5,-309.92 808.92,-273.74 730.04,-256.69"/>
<polygon fill="midnightblue" stroke="midnightblue" points="730.29,-253.17 719.78,-254.51 728.84,-260.02 730.29,-253.17"/>
</g>
<!-- Node52 -->
<g id="node52" class="node">
<title>Node52</title>
<g id="a_node52"><a xlink:href="../../dd/d57/a00701.html" target="_top" xlink:title=" ">
<polygon fill="none" stroke="black" points="1599,-403.5 1599,-422.5 1754,-422.5 1754,-403.5 1599,-403.5"/>
<text text-anchor="middle" x="1676.5" y="-410.5" font-family="Helvetica,sans-Serif" font-size="10.00">discordcoreapi/ErlPacker.hpp</text>
</a>
</g>
</g>
<!-- Node29&#45;&gt;Node52 -->
<g id="edge60" class="edge">
<title>Node29&#45;&gt;Node52</title>
<path fill="none" stroke="midnightblue" d="M1547.99,-515.47C1564.19,-505.85 1585.65,-492.43 1603.5,-479 1623.9,-463.64 1645.54,-443.88 1659.91,-430.2"/>
<polygon fill="midnightblue" stroke="midnightblue" points="1662.69,-432.38 1667.47,-422.93 1657.84,-427.34 1662.69,-432.38"/>
</g>
<!-- Node30&#45;&gt;Node3 -->
<g id="edge34" class="edge">
<title>Node30&#45;&gt;Node3</title>
<path fill="none" stroke="midnightblue" d="M1456.95,-235.49C1441.22,-227.37 1417.99,-214.17 1400.5,-199 1384.24,-184.9 1368.91,-165.92 1358.09,-151.2"/>
<polygon fill="midnightblue" stroke="midnightblue" points="1360.65,-148.76 1351.98,-142.67 1354.96,-152.84 1360.65,-148.76"/>
</g>
<!-- Node30&#45;&gt;Node31 -->
<g id="edge32" class="edge">
<title>Node30&#45;&gt;Node31</title>
<path fill="none" stroke="midnightblue" d="M1423.16,-235.44C1365.69,-225.87 1272.63,-210.36 1211.5,-200.17"/>
<polygon fill="midnightblue" stroke="midnightblue" points="1212.04,-196.71 1201.6,-198.52 1210.89,-203.61 1212.04,-196.71"/>
</g>
<!-- Node32 -->
<g id="node32" class="node">
<title>Node32</title>
<g id="a_node32"><a xlink:title=" ">
<polygon fill="none" stroke="#bfbfbf" points="1409,-179.5 1409,-198.5 1540,-198.5 1540,-179.5 1409,-179.5"/>
<text text-anchor="middle" x="1474.5" y="-186.5" font-family="Helvetica,sans-Serif" font-size="10.00">libavformat/avformat.h</text>
</a>
</g>
</g>
<!-- Node30&#45;&gt;Node32 -->
<g id="edge35" class="edge">
<title>Node30&#45;&gt;Node32</title>
<path fill="none" stroke="midnightblue" d="M1474.5,-235.08C1474.5,-228.01 1474.5,-217.86 1474.5,-208.99"/>
<polygon fill="midnightblue" stroke="midnightblue" points="1478,-208.75 1474.5,-198.75 1471,-208.75 1478,-208.75"/>
</g>
<!-- Node33 -->
<g id="node33" class="node">
<title>Node33</title>
<g id="a_node33"><a xlink:title=" ">
<polygon fill="none" stroke="#bfbfbf" points="1558,-179.5 1558,-198.5 1717,-198.5 1717,-179.5 1558,-179.5"/>
<text text-anchor="middle" x="1637.5" y="-186.5" font-family="Helvetica,sans-Serif" font-size="10.00">libswresample/swresample.h</text>
</a>
</g>
</g>
<!-- Node30&#45;&gt;Node33 -->
<g id="edge36" class="edge">
<title>Node30&#45;&gt;Node33</title>
<path fill="none" stroke="midnightblue" d="M1500.33,-235.44C1527.75,-226.36 1571.28,-211.94 1601.93,-201.78"/>
<polygon fill="midnightblue" stroke="midnightblue" points="1603.4,-204.98 1611.79,-198.52 1601.2,-198.34 1603.4,-204.98"/>
</g>
<!-- Node31&#45;&gt;Node3 -->
<g id="edge33" class="edge">
<title>Node31&#45;&gt;Node3</title>
<path fill="none" stroke="midnightblue" d="M1178.01,-179.48C1206.44,-170.66 1251.6,-156.67 1287.42,-145.57"/>
<polygon fill="midnightblue" stroke="midnightblue" points="1288.73,-148.83 1297.25,-142.52 1286.66,-142.14 1288.73,-148.83"/>
</g>
<!-- Node34&#45;&gt;Node3 -->
<g id="edge38" class="edge">
<title>Node34&#45;&gt;Node3</title>
<path fill="none" stroke="midnightblue" d="M1456.42,-459.49C1455.97,-439.32 1453.34,-387.25 1438.5,-347 1428.35,-319.46 1420.1,-315.21 1403.5,-291 1392.19,-274.51 1385.25,-272.98 1376.5,-255 1360.21,-221.54 1350.86,-179.18 1346.22,-152.96"/>
<polygon fill="midnightblue" stroke="midnightblue" points="1349.62,-152.07 1344.52,-142.78 1342.72,-153.22 1349.62,-152.07"/>
</g>
<!-- Node34&#45;&gt;Node35 -->
<g id="edge39" class="edge">
<title>Node34&#45;&gt;Node35</title>
<path fill="none" stroke="midnightblue" d="M1423.54,-459.44C1387.71,-450.14 1330.34,-435.25 1291.11,-425.06"/>
<polygon fill="midnightblue" stroke="midnightblue" points="1291.86,-421.64 1281.3,-422.52 1290.1,-428.42 1291.86,-421.64"/>
</g>
<!-- Node35&#45;&gt;Node3 -->
<g id="edge40" class="edge">
<title>Node35&#45;&gt;Node3</title>
<path fill="none" stroke="midnightblue" d="M1248.34,-403.46C1248.29,-390.92 1248.89,-366.84 1253.5,-347 1270.79,-272.52 1310.19,-190.47 1330.26,-151.5"/>
<polygon fill="midnightblue" stroke="midnightblue" points="1333.41,-153.04 1334.92,-142.55 1327.2,-149.81 1333.41,-153.04"/>
</g>
<!-- Node35&#45;&gt;Node36 -->
<g id="edge41" class="edge">
<title>Node35&#45;&gt;Node36</title>
<path fill="none" stroke="midnightblue" d="M1264.08,-403.32C1279.5,-394.74 1303.31,-381.49 1321.21,-371.52"/>
<polygon fill="midnightblue" stroke="midnightblue" points="1322.92,-374.58 1329.95,-366.65 1319.51,-368.46 1322.92,-374.58"/>
</g>
<!-- Node36&#45;&gt;Node3 -->
<g id="edge42" class="edge">
<title>Node36&#45;&gt;Node3</title>
<path fill="none" stroke="midnightblue" d="M1339.86,-347.48C1334.45,-338.74 1326.64,-324.56 1323.5,-311 1310.62,-255.31 1325.13,-188.03 1334.96,-152.76"/>
<polygon fill="midnightblue" stroke="midnightblue" points="1338.4,-153.48 1337.83,-142.9 1331.68,-151.52 1338.4,-153.48"/>
</g>
<!-- Node36&#45;&gt;Node37 -->
<g id="edge43" class="edge">
<title>Node36&#45;&gt;Node37</title>
<path fill="none" stroke="midnightblue" d="M1297.49,-347.44C1243.97,-337.9 1157.43,-322.48 1100.26,-312.29"/>
<polygon fill="midnightblue" stroke="midnightblue" points="1100.75,-308.83 1090.29,-310.52 1099.52,-315.72 1100.75,-308.83"/>
</g>
<!-- Node51 -->
<g id="node51" class="node">
<title>Node51</title>
<g id="a_node51"><a xlink:title=" ">
<polygon fill="none" stroke="#bfbfbf" points="1332.5,-291.5 1332.5,-310.5 1394.5,-310.5 1394.5,-291.5 1332.5,-291.5"/>
<text text-anchor="middle" x="1363.5" y="-298.5" font-family="Helvetica,sans-Serif" font-size="10.00">coroutine</text>
</a>
</g>
</g>
<!-- Node36&#45;&gt;Node51 -->
<g id="edge59" class="edge">
<title>Node36&#45;&gt;Node51</title>
<path fill="none" stroke="midnightblue" d="M1348.47,-347.08C1350.88,-339.85 1354.36,-329.41 1357.37,-320.4"/>
<polygon fill="midnightblue" stroke="midnightblue" points="1360.74,-321.34 1360.58,-310.75 1354.1,-319.13 1360.74,-321.34"/>
</g>
<!-- Node37&#45;&gt;Node38 -->
<g id="edge44" class="edge">
<title>Node37&#45;&gt;Node38</title>
<path fill="none" stroke="midnightblue" d="M984.35,-291.44C918.85,-281.81 812.54,-266.16 743.31,-255.98"/>
<polygon fill="midnightblue" stroke="midnightblue" points="743.78,-252.51 733.38,-254.52 742.76,-259.43 743.78,-252.51"/>
</g>
<!-- Node38&#45;&gt;Node3 -->
<g id="edge45" class="edge">
<title>Node38&#45;&gt;Node3</title>
<path fill="none" stroke="midnightblue" d="M757.28,-241.24C827.27,-236.98 929.96,-226.21 1015.5,-199 1033.69,-193.21 1035.44,-185.16 1053.5,-179 1121.06,-155.96 1201.26,-143.01 1260.01,-136.01"/>
<polygon fill="midnightblue" stroke="midnightblue" points="1260.46,-139.48 1269.99,-134.85 1259.65,-132.53 1260.46,-139.48"/>
</g>
<!-- Node38&#45;&gt;Node31 -->
<g id="edge46" class="edge">
<title>Node38&#45;&gt;Node31</title>
<path fill="none" stroke="midnightblue" d="M750.5,-235.47C836.09,-225.74 975.77,-209.86 1065.37,-199.68"/>
<polygon fill="midnightblue" stroke="midnightblue" points="1065.96,-203.13 1075.5,-198.53 1065.17,-196.18 1065.96,-203.13"/>
</g>
<!-- Node39 -->
<g id="node39" class="node">
<title>Node39</title>
<g id="a_node39"><a xlink:title=" ">
<polygon fill="none" stroke="#bfbfbf" points="763,-179.5 763,-198.5 842,-198.5 842,-179.5 763,-179.5"/>
<text text-anchor="middle" x="802.5" y="-186.5" font-family="Helvetica,sans-Serif" font-size="10.00">openssl/err.h</text>
</a>
</g>
</g>
<!-- Node38&#45;&gt;Node39 -->
<g id="edge47" class="edge">
<title>Node38&#45;&gt;Node39</title>
<path fill="none" stroke="midnightblue" d="M695.62,-235.44C716.52,-226.56 749.43,-212.56 773.22,-202.45"/>
<polygon fill="midnightblue" stroke="midnightblue" points="774.64,-205.65 782.47,-198.52 771.9,-199.21 774.64,-205.65"/>
</g>
<!-- Node40 -->
<g id="node40" class="node">
<title>Node40</title>
<g id="a_node40"><a xlink:title=" ">
<polygon fill="none" stroke="#bfbfbf" points="860.5,-179.5 860.5,-198.5 940.5,-198.5 940.5,-179.5 860.5,-179.5"/>
<text text-anchor="middle" x="900.5" y="-186.5" font-family="Helvetica,sans-Serif" font-size="10.00">openssl/ssl.h</text>
</a>
</g>
</g>
<!-- Node38&#45;&gt;Node40 -->
<g id="edge48" class="edge">
<title>Node38&#45;&gt;Node40</title>
<path fill="none" stroke="midnightblue" d="M711.15,-235.44C750.16,-226.08 812.77,-211.06 855.22,-200.87"/>
<polygon fill="midnightblue" stroke="midnightblue" points="856.11,-204.25 865.01,-198.52 854.47,-197.45 856.11,-204.25"/>
</g>
<!-- Node41 -->
<g id="node41" class="node">
<title>Node41</title>
<g id="a_node41"><a xlink:title=" ">
<polygon fill="none" stroke="#bfbfbf" points="959,-179.5 959,-198.5 1006,-198.5 1006,-179.5 959,-179.5"/>
<text text-anchor="middle" x="982.5" y="-186.5" font-family="Helvetica,sans-Serif" font-size="10.00">fcntl.h</text>
</a>
</g>
</g>
<!-- Node38&#45;&gt;Node41 -->
<g id="edge49" class="edge">
<title>Node38&#45;&gt;Node41</title>
<path fill="none" stroke="midnightblue" d="M738.97,-235.48C792.45,-227.86 871.13,-215.65 948.82,-198.95"/>
<polygon fill="midnightblue" stroke="midnightblue" points="949.75,-202.33 958.78,-196.78 948.26,-195.49 949.75,-202.33"/>
</g>
<!-- Node42 -->
<g id="node42" class="node">
<title>Node42</title>
<g id="a_node42"><a xlink:title=" ">
<polygon fill="none" stroke="#bfbfbf" points="0,-179.5 0,-198.5 53,-198.5 53,-179.5 0,-179.5"/>
<text text-anchor="middle" x="26.5" y="-186.5" font-family="Helvetica,sans-Serif" font-size="10.00">netdb.h</text>
</a>
</g>
</g>
<!-- Node38&#45;&gt;Node42 -->
<g id="edge50" class="edge">
<title>Node38&#45;&gt;Node42</title>
<path fill="none" stroke="midnightblue" d="M593.68,-242.45C477.61,-239.26 258.52,-229.6 63.01,-198.78"/>
<polygon fill="midnightblue" stroke="midnightblue" points="63.56,-195.32 53.13,-197.2 62.45,-202.23 63.56,-195.32"/>
</g>
<!-- Node43 -->
<g id="node43" class="node">
<title>Node43</title>
<g id="a_node43"><a xlink:title=" ">
<polygon fill="none" stroke="#bfbfbf" points="71.5,-179.5 71.5,-198.5 143.5,-198.5 143.5,-179.5 71.5,-179.5"/>
<text text-anchor="middle" x="107.5" y="-186.5" font-family="Helvetica,sans-Serif" font-size="10.00">netinet/in.h</text>
</a>
</g>
</g>
<!-- Node38&#45;&gt;Node43 -->
<g id="edge51" class="edge">
<title>Node38&#45;&gt;Node43</title>
<path fill="none" stroke="midnightblue" d="M593.65,-239.79C492.55,-233.95 315.14,-221.64 153.9,-199.05"/>
<polygon fill="midnightblue" stroke="midnightblue" points="154.18,-195.56 143.79,-197.62 153.2,-202.49 154.18,-195.56"/>
</g>
<!-- Node44 -->
<g id="node44" class="node">
<title>Node44</title>
<g id="a_node44"><a xlink:title=" ">
<polygon fill="none" stroke="#bfbfbf" points="161.5,-179.5 161.5,-198.5 239.5,-198.5 239.5,-179.5 161.5,-179.5"/>
<text text-anchor="middle" x="200.5" y="-186.5" font-family="Helvetica,sans-Serif" font-size="10.00">netinet/tcp.h</text>
</a>
</g>
</g>
<!-- Node38&#45;&gt;Node44 -->
<g id="edge52" class="edge">
<title>Node38&#45;&gt;Node44</title>
<path fill="none" stroke="midnightblue" d="M593.79,-237.35C509.94,-230.09 375.49,-217.2 249.93,-199.11"/>
<polygon fill="midnightblue" stroke="midnightblue" points="250.15,-195.6 239.75,-197.63 249.14,-202.53 250.15,-195.6"/>
</g>
<!-- Node45 -->
<g id="node45" class="node">
<title>Node45</title>
<g id="a_node45"><a xlink:title=" ">
<polygon fill="none" stroke="#bfbfbf" points="258,-179.5 258,-198.5 311,-198.5 311,-179.5 258,-179.5"/>
<text text-anchor="middle" x="284.5" y="-186.5" font-family="Helvetica,sans-Serif" font-size="10.00">stdint.h</text>
</a>
</g>
</g>
<!-- Node38&#45;&gt;Node45 -->
<g id="edge53" class="edge">
<title>Node38&#45;&gt;Node45</title>
<path fill="none" stroke="midnightblue" d="M593.74,-236.62C523.62,-229.61 419.77,-217.63 321.02,-199.1"/>
<polygon fill="midnightblue" stroke="midnightblue" points="321.65,-195.66 311.17,-197.23 320.34,-202.53 321.65,-195.66"/>
</g>
<!-- Node46 -->
<g id="node46" class="node">
<title>Node46</title>
<g id="a_node46"><a xlink:title=" ">
<polygon fill="none" stroke="#bfbfbf" points="329,-179.5 329,-198.5 398,-198.5 398,-179.5 329,-179.5"/>
<text text-anchor="middle" x="363.5" y="-186.5" font-family="Helvetica,sans-Serif" font-size="10.00">sys/epoll.h</text>
</a>
</g>
</g>
<!-- Node38&#45;&gt;Node46 -->
<g id="edge54" class="edge">
<title>Node38&#45;&gt;Node46</title>
<path fill="none" stroke="midnightblue" d="M620.52,-235.47C568.3,-227.22 487.35,-214.04 408.33,-199.29"/>
<polygon fill="midnightblue" stroke="midnightblue" points="408.68,-195.8 398.21,-197.39 407.39,-202.68 408.68,-195.8"/>
</g>
<!-- Node47 -->
<g id="node47" class="node">
<title>Node47</title>
<g id="a_node47"><a xlink:title=" ">
<polygon fill="none" stroke="#bfbfbf" points="416,-179.5 416,-198.5 485,-198.5 485,-179.5 416,-179.5"/>
<text text-anchor="middle" x="450.5" y="-186.5" font-family="Helvetica,sans-Serif" font-size="10.00">arpa/inet.h</text>
</a>
</g>
</g>
<!-- Node38&#45;&gt;Node47 -->
<g id="edge55" class="edge">
<title>Node38&#45;&gt;Node47</title>
<path fill="none" stroke="midnightblue" d="M639.85,-235.44C600.61,-226.03 537.5,-210.88 495.04,-200.69"/>
<polygon fill="midnightblue" stroke="midnightblue" points="495.79,-197.27 485.25,-198.34 494.15,-204.08 495.79,-197.27"/>
</g>
<!-- Node48 -->
<g id="node48" class="node">
<title>Node48</title>
<g id="a_node48"><a xlink:title=" ">
<polygon fill="none" stroke="#bfbfbf" points="503,-179.5 503,-198.5 580,-198.5 580,-179.5 503,-179.5"/>
<text text-anchor="middle" x="541.5" y="-186.5" font-family="Helvetica,sans-Serif" font-size="10.00">sys/socket.h</text>
</a>
</g>
</g>
<!-- Node38&#45;&gt;Node48 -->
<g id="edge56" class="edge">
<title>Node38&#45;&gt;Node48</title>
<path fill="none" stroke="midnightblue" d="M654.27,-235.44C632.12,-226.52 597.18,-212.44 572.06,-202.32"/>
<polygon fill="midnightblue" stroke="midnightblue" points="573.22,-199.01 562.63,-198.52 570.6,-205.5 573.22,-199.01"/>
</g>
<!-- Node49 -->
<g id="node49" class="node">
<title>Node49</title>
<g id="a_node49"><a xlink:title=" ">
<polygon fill="none" stroke="#bfbfbf" points="598.5,-179.5 598.5,-198.5 670.5,-198.5 670.5,-179.5 598.5,-179.5"/>
<text text-anchor="middle" x="634.5" y="-186.5" font-family="Helvetica,sans-Serif" font-size="10.00">sys/types.h</text>
</a>
</g>
</g>
<!-- Node38&#45;&gt;Node49 -->
<g id="edge57" class="edge">
<title>Node38&#45;&gt;Node49</title>
<path fill="none" stroke="midnightblue" d="M668.73,-235.08C662.94,-227.46 654.44,-216.26 647.36,-206.94"/>
<polygon fill="midnightblue" stroke="midnightblue" points="649.98,-204.6 641.14,-198.75 644.4,-208.83 649.98,-204.6"/>
</g>
<!-- Node50 -->
<g id="node50" class="node">
<title>Node50</title>
<g id="a_node50"><a xlink:title=" ">
<polygon fill="none" stroke="#bfbfbf" points="688.5,-179.5 688.5,-198.5 744.5,-198.5 744.5,-179.5 688.5,-179.5"/>
<text text-anchor="middle" x="716.5" y="-186.5" font-family="Helvetica,sans-Serif" font-size="10.00">unistd.h</text>
</a>
</g>
</g>
<!-- Node38&#45;&gt;Node50 -->
<g id="edge58" class="edge">
<title>Node38&#45;&gt;Node50</title>
<path fill="none" stroke="midnightblue" d="M682.27,-235.08C688.06,-227.46 696.56,-216.26 703.64,-206.94"/>
<polygon fill="midnightblue" stroke="midnightblue" points="706.6,-208.83 709.86,-198.75 701.02,-204.6 706.6,-208.83"/>
</g>
<!-- Node52&#45;&gt;Node3 -->
<g id="edge61" class="edge">
<title>Node52&#45;&gt;Node3</title>
<path fill="none" stroke="midnightblue" d="M1686.53,-403.43C1705.45,-386.27 1744.5,-345.56 1744.5,-302 1744.5,-302 1744.5,-302 1744.5,-244 1744.5,-214.02 1749.12,-198.67 1726.5,-179 1682.84,-141.04 1524.35,-131.29 1425.15,-128.98"/>
<polygon fill="midnightblue" stroke="midnightblue" points="1425.22,-125.48 1415.14,-128.77 1425.07,-132.48 1425.22,-125.48"/>
</g>
</g>
</svg>
