<?xml version="1.0" encoding="UTF-8" standalone="no"?>
<!DOCTYPE svg PUBLIC "-//W3C//DTD SVG 1.1//EN"
 "http://www.w3.org/Graphics/SVG/1.1/DTD/svg11.dtd">
<!-- Generated by graphviz version 2.43.0 (0)
 -->
<!-- Title: DiscordCoreAPI::Roles::getGuildRolesAsync Pages: 1 -->
<svg width="491pt" height="88pt"
 viewBox="0.00 0.00 491.00 88.00" xmlns="http://www.w3.org/2000/svg" xmlns:xlink="http://www.w3.org/1999/xlink">
<g id="graph0" class="graph" transform="scale(1 1) rotate(0) translate(4 84)">
<title>DiscordCoreAPI::Roles::getGuildRolesAsync</title>
<!-- Node1 -->
<g id="node1" class="node">
<title>Node1</title>
<g id="a_node1"><a xlink:title="Collects the Roles that a Guild has.">
<polygon fill="#bfbfbf" stroke="black" points="358,-24.5 358,-54.5 483,-54.5 483,-24.5 358,-24.5"/>
<text text-anchor="start" x="366" y="-42.5" font-family="Helvetica,sans-Serif" font-size="10.00">DiscordCoreAPI::Roles</text>
<text text-anchor="middle" x="420.5" y="-31.5" font-family="Helvetica,sans-Serif" font-size="10.00">::getGuildRolesAsync</text>
</a>
</g>
</g>
<!-- Node2 -->
<g id="node2" class="node">
<title>Node2</title>
<g id="a_node2"><a xlink:href="../../d6/df3/a03349.html#a20b1e7f73eb0ddb76d0db68fbd1a689d" target="_top" xlink:title="Collects the Roles that a GuildMember has.">
<polygon fill="none" stroke="black" points="161,-49.5 161,-79.5 322,-79.5 322,-49.5 161,-49.5"/>
<text text-anchor="start" x="169" y="-67.5" font-family="Helvetica,sans-Serif" font-size="10.00">DiscordCoreAPI::Roles</text>
<text text-anchor="middle" x="241.5" y="-56.5" font-family="Helvetica,sans-Serif" font-size="10.00">::getGuildMemberRolesAsync</text>
</a>
</g>
</g>
<!-- Node1&#45;&gt;Node2 -->
<g id="edge1" class="edge">
<title>Node1&#45;&gt;Node2</title>
<path fill="none" stroke="midnightblue" d="M347.51,-49.67C339.14,-50.85 330.57,-52.06 322.1,-53.26"/>
<polygon fill="midnightblue" stroke="midnightblue" points="348.18,-53.11 357.59,-48.24 347.2,-46.18 348.18,-53.11"/>
</g>
<!-- Node3 -->
<g id="node3" class="node">
<title>Node3</title>
<g id="a_node3"><a xlink:href="../../d6/df3/a03349.html#a288de1b0e26b722f78a4b68abc1c86aa" target="_top" xlink:title="Collects a Role from the Discord servers.">
<polygon fill="none" stroke="black" points="179,-0.5 179,-30.5 304,-30.5 304,-0.5 179,-0.5"/>
<text text-anchor="start" x="187" y="-18.5" font-family="Helvetica,sans-Serif" font-size="10.00">DiscordCoreAPI::Roles</text>
<text text-anchor="middle" x="241.5" y="-7.5" font-family="Helvetica,sans-Serif" font-size="10.00">::getRoleAsync</text>
</a>
</g>
</g>
<!-- Node1&#45;&gt;Node3 -->
<g id="edge2" class="edge">
<title>Node1&#45;&gt;Node3</title>
<path fill="none" stroke="midnightblue" d="M347.28,-29.71C332.94,-27.76 318.01,-25.74 304.07,-23.85"/>
<polygon fill="midnightblue" stroke="midnightblue" points="347.21,-33.23 357.59,-31.11 348.15,-26.29 347.21,-33.23"/>
</g>
<!-- Node4 -->
<g id="node4" class="node">
<title>Node4</title>
<g id="a_node4"><a xlink:href="../../d6/df3/a03349.html#a7cdfc6e07d7950d25399ea9e88852d1b" target="_top" xlink:title="Collects a given Role from the library&#39;s cache.">
<polygon fill="none" stroke="black" points="0,-0.5 0,-30.5 125,-30.5 125,-0.5 0,-0.5"/>
<text text-anchor="start" x="8" y="-18.5" font-family="Helvetica,sans-Serif" font-size="10.00">DiscordCoreAPI::Roles</text>
<text text-anchor="middle" x="62.5" y="-7.5" font-family="Helvetica,sans-Serif" font-size="10.00">::getCachedRoleAsync</text>
</a>
</g>
</g>
<!-- Node3&#45;&gt;Node4 -->
<g id="edge3" class="edge">
<title>Node3&#45;&gt;Node4</title>
<path fill="none" stroke="midnightblue" d="M168.28,-8.85C153.94,-8.67 139.01,-8.73 125.07,-9.04"/>
<polygon fill="midnightblue" stroke="midnightblue" points="168.54,-12.36 178.59,-9.03 168.66,-5.36 168.54,-12.36"/>
</g>
<!-- Node4&#45;&gt;Node3 -->
<g id="edge4" class="edge">
<title>Node4&#45;&gt;Node3</title>
<path fill="none" stroke="midnightblue" d="M135.38,-22.14C149.7,-22.33 164.64,-22.27 178.59,-21.97"/>
<polygon fill="midnightblue" stroke="midnightblue" points="135.13,-18.64 125.07,-21.96 135.01,-25.64 135.13,-18.64"/>
</g>
</g>
</svg>
