<?xml version="1.0" encoding="UTF-8" standalone="no"?>
<!DOCTYPE svg PUBLIC "-//W3C//DTD SVG 1.1//EN"
 "http://www.w3.org/Graphics/SVG/1.1/DTD/svg11.dtd">
<!-- Generated by graphviz version 2.43.0 (0)
 -->
<!-- Title: DiscordCoreAPI::Roles::getGuildRolesAsync Pages: 1 -->
<svg width="870pt" height="108pt"
 viewBox="0.00 0.00 870.00 108.00" xmlns="http://www.w3.org/2000/svg" xmlns:xlink="http://www.w3.org/1999/xlink">
<g id="graph0" class="graph" transform="scale(1 1) rotate(0) translate(4 104)">
<title>DiscordCoreAPI::Roles::getGuildRolesAsync</title>
<!-- Node1 -->
<g id="node1" class="node">
<title>Node1</title>
<g id="a_node1"><a xlink:title="Collects the Roles that a Guild has.">
<polygon fill="#bfbfbf" stroke="black" points="862,-52 737,-52 737,-22 862,-22 862,-52"/>
<text text-anchor="start" x="745" y="-40" font-family="Helvetica,sans-Serif" font-size="10.00">DiscordCoreAPI::Roles</text>
<text text-anchor="middle" x="799.5" y="-29" font-family="Helvetica,sans-Serif" font-size="10.00">::getGuildRolesAsync</text>
</a>
</g>
</g>
<!-- Node2 -->
<g id="node2" class="node">
<title>Node2</title>
<g id="a_node2"><a xlink:href="../../d6/df3/a03349.html#a20b1e7f73eb0ddb76d0db68fbd1a689d" target="_top" xlink:title="Collects the Roles that a GuildMember has.">
<polygon fill="none" stroke="black" points="701,-100 540,-100 540,-70 701,-70 701,-100"/>
<text text-anchor="start" x="548" y="-88" font-family="Helvetica,sans-Serif" font-size="10.00">DiscordCoreAPI::Roles</text>
<text text-anchor="middle" x="620.5" y="-77" font-family="Helvetica,sans-Serif" font-size="10.00">::getGuildMemberRolesAsync</text>
</a>
</g>
</g>
<!-- Node1&#45;&gt;Node2 -->
<g id="edge1" class="edge">
<title>Node1&#45;&gt;Node2</title>
<path fill="none" stroke="midnightblue" d="M733.16,-54.72C714.65,-59.74 694.68,-65.15 676.82,-70"/>
<polygon fill="midnightblue" stroke="midnightblue" points="734.25,-58.05 742.98,-52.06 732.41,-51.3 734.25,-58.05"/>
</g>
<!-- Node3 -->
<g id="node3" class="node">
<title>Node3</title>
<g id="a_node3"><a xlink:href="../../d6/df3/a03349.html#a288de1b0e26b722f78a4b68abc1c86aa" target="_top" xlink:title="Collects a Role from the Discord servers.">
<polygon fill="none" stroke="black" points="683,-52 558,-52 558,-22 683,-22 683,-52"/>
<text text-anchor="start" x="566" y="-40" font-family="Helvetica,sans-Serif" font-size="10.00">DiscordCoreAPI::Roles</text>
<text text-anchor="middle" x="620.5" y="-29" font-family="Helvetica,sans-Serif" font-size="10.00">::getRoleAsync</text>
</a>
</g>
</g>
<!-- Node1&#45;&gt;Node3 -->
<g id="edge2" class="edge">
<title>Node1&#45;&gt;Node3</title>
<path fill="none" stroke="midnightblue" d="M726.28,-37C711.94,-37 697.01,-37 683.07,-37"/>
<polygon fill="midnightblue" stroke="midnightblue" points="726.59,-40.5 736.59,-37 726.59,-33.5 726.59,-40.5"/>
</g>
<!-- Node5 -->
<g id="node5" class="node">
<title>Node5</title>
<g id="a_node5"><a xlink:href="../../d6/df3/a03349.html#a27cdc694fbb1843ea5bcd3cbd4a743c1" target="_top" xlink:title="Updates a Role&#39;s positions.">
<polygon fill="none" stroke="black" points="343,-30 166,-30 166,0 343,0 343,-30"/>
<text text-anchor="start" x="174" y="-18" font-family="Helvetica,sans-Serif" font-size="10.00">DiscordCoreAPI::Roles</text>
<text text-anchor="middle" x="254.5" y="-7" font-family="Helvetica,sans-Serif" font-size="10.00">::modifyGuildRolePositionsAsync</text>
</a>
</g>
</g>
<!-- Node1&#45;&gt;Node5 -->
<g id="edge7" class="edge">
<title>Node1&#45;&gt;Node5</title>
<path fill="none" stroke="midnightblue" d="M737.41,-19.58C725.44,-16.84 712.9,-14.44 701,-13 577.57,1.97 433.49,-2.65 343.37,-8.16"/>
<polygon fill="midnightblue" stroke="midnightblue" points="736.78,-23.03 747.32,-21.94 738.4,-16.22 736.78,-23.03"/>
</g>
<!-- Node4 -->
<g id="node4" class="node">
<title>Node4</title>
<g id="a_node4"><a xlink:href="../../d6/df3/a03349.html#a7cdfc6e07d7950d25399ea9e88852d1b" target="_top" xlink:title="Collects a given Role from the library&#39;s cache.">
<polygon fill="none" stroke="black" points="504,-52 379,-52 379,-22 504,-22 504,-52"/>
<text text-anchor="start" x="387" y="-40" font-family="Helvetica,sans-Serif" font-size="10.00">DiscordCoreAPI::Roles</text>
<text text-anchor="middle" x="441.5" y="-29" font-family="Helvetica,sans-Serif" font-size="10.00">::getCachedRoleAsync</text>
</a>
</g>
</g>
<!-- Node3&#45;&gt;Node4 -->
<g id="edge3" class="edge">
<title>Node3&#45;&gt;Node4</title>
<path fill="none" stroke="midnightblue" d="M547.28,-30.35C532.94,-30.17 518.01,-30.23 504.07,-30.54"/>
<polygon fill="midnightblue" stroke="midnightblue" points="547.54,-33.86 557.59,-30.53 547.66,-26.86 547.54,-33.86"/>
</g>
<!-- Node4&#45;&gt;Node3 -->
<g id="edge4" class="edge">
<title>Node4&#45;&gt;Node3</title>
<path fill="none" stroke="midnightblue" d="M514.38,-43.64C528.7,-43.83 543.64,-43.77 557.59,-43.47"/>
<polygon fill="midnightblue" stroke="midnightblue" points="514.13,-40.14 504.07,-43.46 514.01,-47.14 514.13,-40.14"/>
</g>
<!-- Node4&#45;&gt;Node5 -->
<g id="edge5" class="edge">
<title>Node4&#45;&gt;Node5</title>
<path fill="none" stroke="midnightblue" d="M368.8,-28.47C360.41,-27.48 351.78,-26.45 343.21,-25.43"/>
<polygon fill="midnightblue" stroke="midnightblue" points="368.55,-31.97 378.9,-29.67 369.38,-25.02 368.55,-31.97"/>
</g>
<!-- Node6 -->
<g id="node6" class="node">
<title>Node6</title>
<g id="a_node6"><a xlink:href="../../d6/df3/a03349.html#afdfd3fb636d652e1819007f162d18fc6" target="_top" xlink:title="Creates a new Role within the given Guild.">
<polygon fill="none" stroke="black" points="130,-30 0,-30 0,0 130,0 130,-30"/>
<text text-anchor="start" x="8" y="-18" font-family="Helvetica,sans-Serif" font-size="10.00">DiscordCoreAPI::Roles</text>
<text text-anchor="middle" x="65" y="-7" font-family="Helvetica,sans-Serif" font-size="10.00">::createGuildRoleAsync</text>
</a>
</g>
</g>
<!-- Node5&#45;&gt;Node6 -->
<g id="edge6" class="edge">
<title>Node5&#45;&gt;Node6</title>
<path fill="none" stroke="midnightblue" d="M155.64,-15C147,-15 138.41,-15 130.16,-15"/>
<polygon fill="midnightblue" stroke="midnightblue" points="155.79,-18.5 165.79,-15 155.79,-11.5 155.79,-18.5"/>
</g>
</g>
</svg>
