<?xml version="1.0" encoding="UTF-8" standalone="no"?>
<!DOCTYPE svg PUBLIC "-//W3C//DTD SVG 1.1//EN"
 "http://www.w3.org/Graphics/SVG/1.1/DTD/svg11.dtd">
<!-- Generated by graphviz version 2.43.0 (0)
 -->
<!-- Title: DiscordCoreAPI::Roles::getCachedRoleAsync Pages: 1 -->
<svg width="512pt" height="86pt"
 viewBox="0.00 0.00 512.00 86.00" xmlns="http://www.w3.org/2000/svg" xmlns:xlink="http://www.w3.org/1999/xlink">
<g id="graph0" class="graph" transform="scale(1 1) rotate(0) translate(4 82)">
<title>DiscordCoreAPI::Roles::getCachedRoleAsync</title>
<!-- Node1 -->
<g id="node1" class="node">
<title>Node1</title>
<g id="a_node1"><a xlink:title="Collects a given Role from the library&#39;s cache.">
<polygon fill="#bfbfbf" stroke="black" points="504,-78 379,-78 379,-48 504,-48 504,-78"/>
<text text-anchor="start" x="387" y="-66" font-family="Helvetica,sans-Serif" font-size="10.00">DiscordCoreAPI::Roles</text>
<text text-anchor="middle" x="441.5" y="-55" font-family="Helvetica,sans-Serif" font-size="10.00">::getCachedRoleAsync</text>
</a>
</g>
</g>
<!-- Node2 -->
<g id="node2" class="node">
<title>Node2</title>
<g id="a_node2"><a xlink:href="../../d6/df3/a03349.html#a288de1b0e26b722f78a4b68abc1c86aa" target="_top" xlink:title="Collects a Role from the Discord servers.">
<polygon fill="none" stroke="black" points="317,-78 192,-78 192,-48 317,-48 317,-78"/>
<text text-anchor="start" x="200" y="-66" font-family="Helvetica,sans-Serif" font-size="10.00">DiscordCoreAPI::Roles</text>
<text text-anchor="middle" x="254.5" y="-55" font-family="Helvetica,sans-Serif" font-size="10.00">::getRoleAsync</text>
</a>
</g>
</g>
<!-- Node1&#45;&gt;Node2 -->
<g id="edge1" class="edge">
<title>Node1&#45;&gt;Node2</title>
<path fill="none" stroke="midnightblue" d="M368.49,-56.4C351.53,-56.15 333.6,-56.21 317.15,-56.6"/>
<polygon fill="midnightblue" stroke="midnightblue" points="368.83,-59.91 378.9,-56.6 368.97,-52.91 368.83,-59.91"/>
</g>
<!-- Node3 -->
<g id="node3" class="node">
<title>Node3</title>
<g id="a_node3"><a xlink:href="../../d6/df3/a03349.html#a27cdc694fbb1843ea5bcd3cbd4a743c1" target="_top" xlink:title="Updates a Role&#39;s positions.">
<polygon fill="none" stroke="black" points="343,-30 166,-30 166,0 343,0 343,-30"/>
<text text-anchor="start" x="174" y="-18" font-family="Helvetica,sans-Serif" font-size="10.00">DiscordCoreAPI::Roles</text>
<text text-anchor="middle" x="254.5" y="-7" font-family="Helvetica,sans-Serif" font-size="10.00">::modifyGuildRolePositionsAsync</text>
</a>
</g>
</g>
<!-- Node1&#45;&gt;Node3 -->
<g id="edge3" class="edge">
<title>Node1&#45;&gt;Node3</title>
<path fill="none" stroke="midnightblue" d="M372.74,-45.42C353.24,-40.36 332.16,-34.89 313.32,-30"/>
<polygon fill="midnightblue" stroke="midnightblue" points="371.91,-48.82 382.47,-47.94 373.67,-42.04 371.91,-48.82"/>
</g>
<!-- Node2&#45;&gt;Node1 -->
<g id="edge2" class="edge">
<title>Node2&#45;&gt;Node1</title>
<path fill="none" stroke="midnightblue" d="M327.56,-69.6C344.52,-69.85 362.45,-69.79 378.9,-69.4"/>
<polygon fill="midnightblue" stroke="midnightblue" points="327.21,-66.09 317.15,-69.4 327.08,-73.09 327.21,-66.09"/>
</g>
<!-- Node4 -->
<g id="node4" class="node">
<title>Node4</title>
<g id="a_node4"><a xlink:href="../../d6/df3/a03349.html#afdfd3fb636d652e1819007f162d18fc6" target="_top" xlink:title="Creates a new Role within the given Guild.">
<polygon fill="none" stroke="black" points="130,-30 0,-30 0,0 130,0 130,-30"/>
<text text-anchor="start" x="8" y="-18" font-family="Helvetica,sans-Serif" font-size="10.00">DiscordCoreAPI::Roles</text>
<text text-anchor="middle" x="65" y="-7" font-family="Helvetica,sans-Serif" font-size="10.00">::createGuildRoleAsync</text>
</a>
</g>
</g>
<!-- Node3&#45;&gt;Node4 -->
<g id="edge4" class="edge">
<title>Node3&#45;&gt;Node4</title>
<path fill="none" stroke="midnightblue" d="M155.64,-15C147,-15 138.41,-15 130.16,-15"/>
<polygon fill="midnightblue" stroke="midnightblue" points="155.79,-18.5 165.79,-15 155.79,-11.5 155.79,-18.5"/>
</g>
</g>
</svg>
