<?xml version="1.0" encoding="UTF-8" standalone="no"?>
<!DOCTYPE svg PUBLIC "-//W3C//DTD SVG 1.1//EN"
 "http://www.w3.org/Graphics/SVG/1.1/DTD/svg11.dtd">
<!-- Generated by graphviz version 3.0.0 (20220226.1711)
 -->
<!-- Title: StageInstanceEntities.cpp Pages: 1 -->
<svg width="1738pt" height="498pt"
 viewBox="0.00 0.00 1738.28 498.00" xmlns="http://www.w3.org/2000/svg" xmlns:xlink="http://www.w3.org/1999/xlink">
<g id="graph0" class="graph" transform="scale(1 1) rotate(0) translate(4 494)">
<title>StageInstanceEntities.cpp</title>
<!-- Node1 -->
<g id="node1" class="node">
<title>Node1</title>
<g id="a_node1"><a xlink:title=" ">
<polygon fill="#bfbfbf" stroke="black" points="1071.28,-470.5 1071.28,-489.5 1202.28,-489.5 1202.28,-470.5 1071.28,-470.5"/>
<text text-anchor="middle" x="1136.78" y="-477.5" font-family="Helvetica,sans-Serif" font-size="10.00">StageInstanceEntities.cpp</text>
</a>
</g>
</g>
<!-- Node2 -->
<g id="node2" class="node">
<title>Node2</title>
<g id="a_node2"><a xlink:href="../../dd/d5c/a00752.html" target="_top" xlink:title=" ">
<polygon fill="none" stroke="black" points="730.28,-347.5 730.28,-377.5 875.28,-377.5 875.28,-347.5 730.28,-347.5"/>
<text text-anchor="start" x="738.28" y="-365.5" font-family="Helvetica,sans-Serif" font-size="10.00">discordcoreapi/StageInstance</text>
<text text-anchor="middle" x="802.78" y="-354.5" font-family="Helvetica,sans-Serif" font-size="10.00">Entities.hpp</text>
</a>
</g>
</g>
<!-- Node1&#45;&gt;Node2 -->
<g id="edge1" class="edge">
<title>Node1&#45;&gt;Node2</title>
<path fill="none" stroke="midnightblue" d="M1111.95,-470.41C1057.37,-451.54 926.04,-406.13 853.34,-380.98"/>
<polygon fill="midnightblue" stroke="midnightblue" points="854.08,-377.54 843.48,-377.58 851.79,-384.15 854.08,-377.54"/>
</g>
<!-- Node43 -->
<g id="node43" class="node">
<title>Node43</title>
<g id="a_node43"><a xlink:href="../../d5/d5b/a00695.html" target="_top" xlink:title=" ">
<polygon fill="none" stroke="black" points="1146.78,-414.5 1146.78,-433.5 1292.78,-433.5 1292.78,-414.5 1146.78,-414.5"/>
<text text-anchor="middle" x="1219.78" y="-421.5" font-family="Helvetica,sans-Serif" font-size="10.00">discordcoreapi/CoRoutine.hpp</text>
</a>
</g>
</g>
<!-- Node1&#45;&gt;Node43 -->
<g id="edge44" class="edge">
<title>Node1&#45;&gt;Node43</title>
<path fill="none" stroke="midnightblue" d="M1150.11,-470.32C1162.94,-461.98 1182.56,-449.21 1197.72,-439.35"/>
<polygon fill="midnightblue" stroke="midnightblue" points="1200,-442.04 1206.48,-433.65 1196.19,-436.17 1200,-442.04"/>
</g>
<!-- Node3 -->
<g id="node3" class="node">
<title>Node3</title>
<g id="a_node3"><a xlink:href="../../d4/deb/a00710.html" target="_top" xlink:title=" ">
<polygon fill="none" stroke="black" points="942.28,-112.5 942.28,-142.5 1073.28,-142.5 1073.28,-112.5 942.28,-112.5"/>
<text text-anchor="start" x="950.28" y="-130.5" font-family="Helvetica,sans-Serif" font-size="10.00">discordcoreapi/Foundation</text>
<text text-anchor="middle" x="1007.78" y="-119.5" font-family="Helvetica,sans-Serif" font-size="10.00">Entities.hpp</text>
</a>
</g>
</g>
<!-- Node2&#45;&gt;Node3 -->
<g id="edge2" class="edge">
<title>Node2&#45;&gt;Node3</title>
<path fill="none" stroke="midnightblue" d="M730.08,-356.67C515.99,-341.12 -90.9,-287.02 11.78,-179 43.37,-145.77 704.87,-132.95 932,-129.52"/>
<polygon fill="midnightblue" stroke="midnightblue" points="932.22,-133.02 942.16,-129.37 932.11,-126.02 932.22,-133.02"/>
</g>
<!-- Node28 -->
<g id="node28" class="node">
<title>Node28</title>
<g id="a_node28"><a xlink:href="../../db/d7c/a00722.html" target="_top" xlink:title=" ">
<polygon fill="none" stroke="black" points="740.28,-291.5 740.28,-310.5 865.28,-310.5 865.28,-291.5 740.28,-291.5"/>
<text text-anchor="middle" x="802.78" y="-298.5" font-family="Helvetica,sans-Serif" font-size="10.00">discordcoreapi/Https.hpp</text>
</a>
</g>
</g>
<!-- Node2&#45;&gt;Node28 -->
<g id="edge27" class="edge">
<title>Node2&#45;&gt;Node28</title>
<path fill="none" stroke="midnightblue" d="M802.78,-347.4C802.78,-339.47 802.78,-329.46 802.78,-320.86"/>
<polygon fill="midnightblue" stroke="midnightblue" points="806.28,-320.66 802.78,-310.66 799.28,-320.66 806.28,-320.66"/>
</g>
<!-- Node4 -->
<g id="node4" class="node">
<title>Node4</title>
<g id="a_node4"><a xlink:href="../../d5/dae/a00767.html" target="_top" xlink:title=" ">
<polygon fill="none" stroke="black" points="940.78,-56.5 940.78,-75.5 1074.78,-75.5 1074.78,-56.5 940.78,-56.5"/>
<text text-anchor="middle" x="1007.78" y="-63.5" font-family="Helvetica,sans-Serif" font-size="10.00">discordcoreapi/Utilities.hpp</text>
</a>
</g>
</g>
<!-- Node3&#45;&gt;Node4 -->
<g id="edge3" class="edge">
<title>Node3&#45;&gt;Node4</title>
<path fill="none" stroke="midnightblue" d="M1007.78,-112.4C1007.78,-104.47 1007.78,-94.46 1007.78,-85.86"/>
<polygon fill="midnightblue" stroke="midnightblue" points="1011.28,-85.66 1007.78,-75.66 1004.28,-85.66 1011.28,-85.66"/>
</g>
<!-- Node5 -->
<g id="node5" class="node">
<title>Node5</title>
<g id="a_node5"><a xlink:title=" ">
<polygon fill="none" stroke="#bfbfbf" points="14.28,-0.5 14.28,-19.5 71.28,-19.5 71.28,-0.5 14.28,-0.5"/>
<text text-anchor="middle" x="42.78" y="-7.5" font-family="Helvetica,sans-Serif" font-size="10.00">pthread.h</text>
</a>
</g>
</g>
<!-- Node4&#45;&gt;Node5 -->
<g id="edge4" class="edge">
<title>Node4&#45;&gt;Node5</title>
<path fill="none" stroke="midnightblue" d="M940.73,-63.35C760.21,-58.65 265.8,-44.07 81.43,-19.74"/>
<polygon fill="midnightblue" stroke="midnightblue" points="81.69,-16.24 71.3,-18.35 80.74,-23.18 81.69,-16.24"/>
</g>
<!-- Node6 -->
<g id="node6" class="node">
<title>Node6</title>
<g id="a_node6"><a xlink:title=" ">
<polygon fill="none" stroke="#bfbfbf" points="89.78,-0.5 89.78,-19.5 151.78,-19.5 151.78,-0.5 89.78,-0.5"/>
<text text-anchor="middle" x="120.78" y="-7.5" font-family="Helvetica,sans-Serif" font-size="10.00">sys/time.h</text>
</a>
</g>
</g>
<!-- Node4&#45;&gt;Node6 -->
<g id="edge5" class="edge">
<title>Node4&#45;&gt;Node6</title>
<path fill="none" stroke="midnightblue" d="M940.71,-65.26C798.63,-64.97 456.85,-59.92 162.15,-19.95"/>
<polygon fill="midnightblue" stroke="midnightblue" points="162.51,-16.47 152.13,-18.58 161.56,-23.4 162.51,-16.47"/>
</g>
<!-- Node7 -->
<g id="node7" class="node">
<title>Node7</title>
<g id="a_node7"><a xlink:title=" ">
<polygon fill="none" stroke="#bfbfbf" points="169.78,-0.5 169.78,-19.5 213.78,-19.5 213.78,-0.5 169.78,-0.5"/>
<text text-anchor="middle" x="191.78" y="-7.5" font-family="Helvetica,sans-Serif" font-size="10.00">time.h</text>
</a>
</g>
</g>
<!-- Node4&#45;&gt;Node7 -->
<g id="edge6" class="edge">
<title>Node4&#45;&gt;Node7</title>
<path fill="none" stroke="midnightblue" d="M940.76,-63.1C780.69,-58.25 378.62,-44.19 224.23,-19.8"/>
<polygon fill="midnightblue" stroke="midnightblue" points="224.43,-16.28 213.99,-18.1 223.28,-23.19 224.43,-16.28"/>
</g>
<!-- Node8 -->
<g id="node8" class="node">
<title>Node8</title>
<g id="a_node8"><a xlink:title=" ">
<polygon fill="none" stroke="#bfbfbf" points="232.28,-0.5 232.28,-19.5 273.28,-19.5 273.28,-0.5 232.28,-0.5"/>
<text text-anchor="middle" x="252.78" y="-7.5" font-family="Helvetica,sans-Serif" font-size="10.00">ctime</text>
</a>
</g>
</g>
<!-- Node4&#45;&gt;Node8 -->
<g id="edge7" class="edge">
<title>Node4&#45;&gt;Node8</title>
<path fill="none" stroke="midnightblue" d="M940.67,-62.89C789.57,-57.82 425.43,-43.7 283.75,-19.9"/>
<polygon fill="midnightblue" stroke="midnightblue" points="284,-16.39 273.54,-18.09 282.78,-23.28 284,-16.39"/>
</g>
<!-- Node9 -->
<g id="node9" class="node">
<title>Node9</title>
<g id="a_node9"><a xlink:title=" ">
<polygon fill="none" stroke="#bfbfbf" points="291.28,-0.5 291.28,-19.5 384.28,-19.5 384.28,-0.5 291.28,-0.5"/>
<text text-anchor="middle" x="337.78" y="-7.5" font-family="Helvetica,sans-Serif" font-size="10.00">condition_variable</text>
</a>
</g>
</g>
<!-- Node4&#45;&gt;Node9 -->
<g id="edge8" class="edge">
<title>Node4&#45;&gt;Node9</title>
<path fill="none" stroke="midnightblue" d="M940.37,-61.96C828.98,-56.53 599.32,-43.55 394.53,-19.98"/>
<polygon fill="midnightblue" stroke="midnightblue" points="394.82,-16.49 384.49,-18.82 394.02,-23.45 394.82,-16.49"/>
</g>
<!-- Node10 -->
<g id="node10" class="node">
<title>Node10</title>
<g id="a_node10"><a xlink:title=" ">
<polygon fill="none" stroke="#bfbfbf" points="402.78,-0.5 402.78,-19.5 500.78,-19.5 500.78,-0.5 402.78,-0.5"/>
<text text-anchor="middle" x="451.78" y="-7.5" font-family="Helvetica,sans-Serif" font-size="10.00">nlohmann/json.hpp</text>
</a>
</g>
</g>
<!-- Node4&#45;&gt;Node10 -->
<g id="edge9" class="edge">
<title>Node4&#45;&gt;Node10</title>
<path fill="none" stroke="midnightblue" d="M940.78,-60.31C846.98,-53.44 670.99,-39.45 510.83,-20.06"/>
<polygon fill="midnightblue" stroke="midnightblue" points="511.15,-16.57 500.8,-18.83 510.3,-23.52 511.15,-16.57"/>
</g>
<!-- Node11 -->
<g id="node11" class="node">
<title>Node11</title>
<g id="a_node11"><a xlink:title=" ">
<polygon fill="none" stroke="#bfbfbf" points="519.28,-0.5 519.28,-19.5 604.28,-19.5 604.28,-0.5 519.28,-0.5"/>
<text text-anchor="middle" x="561.78" y="-7.5" font-family="Helvetica,sans-Serif" font-size="10.00">source_location</text>
</a>
</g>
</g>
<!-- Node4&#45;&gt;Node11 -->
<g id="edge10" class="edge">
<title>Node4&#45;&gt;Node11</title>
<path fill="none" stroke="midnightblue" d="M940.52,-58.6C863.94,-51.04 734.83,-37.42 614.45,-20.17"/>
<polygon fill="midnightblue" stroke="midnightblue" points="614.72,-16.67 604.32,-18.71 613.72,-23.6 614.72,-16.67"/>
</g>
<!-- Node12 -->
<g id="node12" class="node">
<title>Node12</title>
<g id="a_node12"><a xlink:title=" ">
<polygon fill="none" stroke="#bfbfbf" points="622.28,-0.5 622.28,-19.5 705.28,-19.5 705.28,-0.5 622.28,-0.5"/>
<text text-anchor="middle" x="663.78" y="-7.5" font-family="Helvetica,sans-Serif" font-size="10.00">unordered_map</text>
</a>
</g>
</g>
<!-- Node4&#45;&gt;Node12 -->
<g id="edge11" class="edge">
<title>Node4&#45;&gt;Node12</title>
<path fill="none" stroke="midnightblue" d="M949.9,-56.5C892.95,-48.05 803.24,-34.5 715.63,-20.11"/>
<polygon fill="midnightblue" stroke="midnightblue" points="715.95,-16.62 705.51,-18.44 714.81,-23.52 715.95,-16.62"/>
</g>
<!-- Node13 -->
<g id="node13" class="node">
<title>Node13</title>
<g id="a_node13"><a xlink:title=" ">
<polygon fill="none" stroke="#bfbfbf" points="723.78,-0.5 723.78,-19.5 801.78,-19.5 801.78,-0.5 723.78,-0.5"/>
<text text-anchor="middle" x="762.78" y="-7.5" font-family="Helvetica,sans-Serif" font-size="10.00">shared_mutex</text>
</a>
</g>
</g>
<!-- Node4&#45;&gt;Node13 -->
<g id="edge12" class="edge">
<title>Node4&#45;&gt;Node13</title>
<path fill="none" stroke="midnightblue" d="M968.96,-56.44C926.22,-47.02 857.45,-31.87 811.21,-21.68"/>
<polygon fill="midnightblue" stroke="midnightblue" points="811.94,-18.25 801.42,-19.52 810.43,-25.09 811.94,-18.25"/>
</g>
<!-- Node14 -->
<g id="node14" class="node">
<title>Node14</title>
<g id="a_node14"><a xlink:title=" ">
<polygon fill="none" stroke="#bfbfbf" points="819.78,-0.5 819.78,-19.5 877.78,-19.5 877.78,-0.5 819.78,-0.5"/>
<text text-anchor="middle" x="848.78" y="-7.5" font-family="Helvetica,sans-Serif" font-size="10.00">functional</text>
</a>
</g>
</g>
<!-- Node4&#45;&gt;Node14 -->
<g id="edge13" class="edge">
<title>Node4&#45;&gt;Node14</title>
<path fill="none" stroke="midnightblue" d="M982.58,-56.44C955.84,-47.36 913.38,-32.94 883.47,-22.78"/>
<polygon fill="midnightblue" stroke="midnightblue" points="884.45,-19.42 873.85,-19.52 882.2,-26.05 884.45,-19.42"/>
</g>
<!-- Node15 -->
<g id="node15" class="node">
<title>Node15</title>
<g id="a_node15"><a xlink:title=" ">
<polygon fill="none" stroke="#bfbfbf" points="896.28,-0.5 896.28,-19.5 961.28,-19.5 961.28,-0.5 896.28,-0.5"/>
<text text-anchor="middle" x="928.78" y="-7.5" font-family="Helvetica,sans-Serif" font-size="10.00">semaphore</text>
</a>
</g>
</g>
<!-- Node4&#45;&gt;Node15 -->
<g id="edge14" class="edge">
<title>Node4&#45;&gt;Node15</title>
<path fill="none" stroke="midnightblue" d="M995.09,-56.32C982.88,-47.98 964.2,-35.21 949.78,-25.35"/>
<polygon fill="midnightblue" stroke="midnightblue" points="951.67,-22.41 941.44,-19.65 947.72,-28.19 951.67,-22.41"/>
</g>
<!-- Node16 -->
<g id="node16" class="node">
<title>Node16</title>
<g id="a_node16"><a xlink:title=" ">
<polygon fill="none" stroke="#bfbfbf" points="979.78,-0.5 979.78,-19.5 1035.78,-19.5 1035.78,-0.5 979.78,-0.5"/>
<text text-anchor="middle" x="1007.78" y="-7.5" font-family="Helvetica,sans-Serif" font-size="10.00">concepts</text>
</a>
</g>
</g>
<!-- Node4&#45;&gt;Node16 -->
<g id="edge15" class="edge">
<title>Node4&#45;&gt;Node16</title>
<path fill="none" stroke="midnightblue" d="M1007.78,-56.08C1007.78,-49.01 1007.78,-38.86 1007.78,-29.99"/>
<polygon fill="midnightblue" stroke="midnightblue" points="1011.28,-29.75 1007.78,-19.75 1004.28,-29.75 1011.28,-29.75"/>
</g>
<!-- Node17 -->
<g id="node17" class="node">
<title>Node17</title>
<g id="a_node17"><a xlink:title=" ">
<polygon fill="none" stroke="#bfbfbf" points="1053.78,-0.5 1053.78,-19.5 1107.78,-19.5 1107.78,-0.5 1053.78,-0.5"/>
<text text-anchor="middle" x="1080.78" y="-7.5" font-family="Helvetica,sans-Serif" font-size="10.00">iostream</text>
</a>
</g>
</g>
<!-- Node4&#45;&gt;Node17 -->
<g id="edge16" class="edge">
<title>Node4&#45;&gt;Node17</title>
<path fill="none" stroke="midnightblue" d="M1019.51,-56.32C1030.62,-48.11 1047.52,-35.6 1060.76,-25.81"/>
<polygon fill="midnightblue" stroke="midnightblue" points="1062.88,-28.59 1068.84,-19.83 1058.72,-22.97 1062.88,-28.59"/>
</g>
<!-- Node18 -->
<g id="node18" class="node">
<title>Node18</title>
<g id="a_node18"><a xlink:title=" ">
<polygon fill="none" stroke="#bfbfbf" points="1126.28,-0.5 1126.28,-19.5 1175.28,-19.5 1175.28,-0.5 1126.28,-0.5"/>
<text text-anchor="middle" x="1150.78" y="-7.5" font-family="Helvetica,sans-Serif" font-size="10.00">fstream</text>
</a>
</g>
</g>
<!-- Node4&#45;&gt;Node18 -->
<g id="edge17" class="edge">
<title>Node4&#45;&gt;Node18</title>
<path fill="none" stroke="midnightblue" d="M1030.44,-56.44C1054.18,-47.48 1091.69,-33.31 1118.52,-23.18"/>
<polygon fill="midnightblue" stroke="midnightblue" points="1120.11,-26.32 1128.23,-19.52 1117.63,-19.77 1120.11,-26.32"/>
</g>
<!-- Node19 -->
<g id="node19" class="node">
<title>Node19</title>
<g id="a_node19"><a xlink:title=" ">
<polygon fill="none" stroke="#bfbfbf" points="1193.28,-0.5 1193.28,-19.5 1234.28,-19.5 1234.28,-0.5 1193.28,-0.5"/>
<text text-anchor="middle" x="1213.78" y="-7.5" font-family="Helvetica,sans-Serif" font-size="10.00">bitset</text>
</a>
</g>
</g>
<!-- Node4&#45;&gt;Node19 -->
<g id="edge18" class="edge">
<title>Node4&#45;&gt;Node19</title>
<path fill="none" stroke="midnightblue" d="M1042.95,-56.46C1076.55,-48.2 1128.81,-35.09 1183.32,-20.04"/>
<polygon fill="midnightblue" stroke="midnightblue" points="1184.46,-23.36 1193.15,-17.31 1182.58,-16.61 1184.46,-23.36"/>
</g>
<!-- Node20 -->
<g id="node20" class="node">
<title>Node20</title>
<g id="a_node20"><a xlink:title=" ">
<polygon fill="none" stroke="#bfbfbf" points="1252.78,-0.5 1252.78,-19.5 1304.78,-19.5 1304.78,-0.5 1252.78,-0.5"/>
<text text-anchor="middle" x="1278.78" y="-7.5" font-family="Helvetica,sans-Serif" font-size="10.00">memory</text>
</a>
</g>
</g>
<!-- Node4&#45;&gt;Node20 -->
<g id="edge19" class="edge">
<title>Node4&#45;&gt;Node20</title>
<path fill="none" stroke="midnightblue" d="M1056.55,-56.48C1102.05,-48.35 1172.05,-35.37 1242.53,-19.95"/>
<polygon fill="midnightblue" stroke="midnightblue" points="1243.46,-23.33 1252.47,-17.76 1241.95,-16.49 1243.46,-23.33"/>
</g>
<!-- Node21 -->
<g id="node21" class="node">
<title>Node21</title>
<g id="a_node21"><a xlink:title=" ">
<polygon fill="none" stroke="#bfbfbf" points="1323.28,-0.5 1323.28,-19.5 1372.28,-19.5 1372.28,-0.5 1323.28,-0.5"/>
<text text-anchor="middle" x="1347.78" y="-7.5" font-family="Helvetica,sans-Serif" font-size="10.00">random</text>
</a>
</g>
</g>
<!-- Node4&#45;&gt;Node21 -->
<g id="edge20" class="edge">
<title>Node4&#45;&gt;Node21</title>
<path fill="none" stroke="midnightblue" d="M1075.01,-57.33C1135.02,-49.97 1225.43,-37.66 1313.12,-19.93"/>
<polygon fill="midnightblue" stroke="midnightblue" points="1313.88,-23.35 1322.97,-17.91 1312.47,-16.49 1313.88,-23.35"/>
</g>
<!-- Node22 -->
<g id="node22" class="node">
<title>Node22</title>
<g id="a_node22"><a xlink:title=" ">
<polygon fill="none" stroke="#bfbfbf" points="1390.28,-0.5 1390.28,-19.5 1431.28,-19.5 1431.28,-0.5 1390.28,-0.5"/>
<text text-anchor="middle" x="1410.78" y="-7.5" font-family="Helvetica,sans-Serif" font-size="10.00">string</text>
</a>
</g>
</g>
<!-- Node4&#45;&gt;Node22 -->
<g id="edge21" class="edge">
<title>Node4&#45;&gt;Node22</title>
<path fill="none" stroke="midnightblue" d="M1074.93,-60.6C1148.04,-54.99 1268.46,-43.34 1379.92,-20.08"/>
<polygon fill="midnightblue" stroke="midnightblue" points="1380.93,-23.45 1389.99,-17.95 1379.48,-16.6 1380.93,-23.45"/>
</g>
<!-- Node23 -->
<g id="node23" class="node">
<title>Node23</title>
<g id="a_node23"><a xlink:title=" ">
<polygon fill="none" stroke="#bfbfbf" points="1449.78,-0.5 1449.78,-19.5 1491.78,-19.5 1491.78,-0.5 1449.78,-0.5"/>
<text text-anchor="middle" x="1470.78" y="-7.5" font-family="Helvetica,sans-Serif" font-size="10.00">vector</text>
</a>
</g>
</g>
<!-- Node4&#45;&gt;Node23 -->
<g id="edge22" class="edge">
<title>Node4&#45;&gt;Node23</title>
<path fill="none" stroke="midnightblue" d="M1075.12,-61.93C1158.69,-57.24 1305.55,-46.14 1439.56,-19.89"/>
<polygon fill="midnightblue" stroke="midnightblue" points="1440.47,-23.28 1449.6,-17.89 1439.11,-16.41 1440.47,-23.28"/>
</g>
<!-- Node24 -->
<g id="node24" class="node">
<title>Node24</title>
<g id="a_node24"><a xlink:title=" ">
<polygon fill="none" stroke="#bfbfbf" points="1509.78,-0.5 1509.78,-19.5 1553.78,-19.5 1553.78,-0.5 1509.78,-0.5"/>
<text text-anchor="middle" x="1531.78" y="-7.5" font-family="Helvetica,sans-Serif" font-size="10.00">thread</text>
</a>
</g>
</g>
<!-- Node4&#45;&gt;Node24 -->
<g id="edge23" class="edge">
<title>Node4&#45;&gt;Node24</title>
<path fill="none" stroke="midnightblue" d="M1074.92,-62.94C1168.28,-59.18 1342.55,-48.9 1499.26,-19.94"/>
<polygon fill="midnightblue" stroke="midnightblue" points="1500.37,-23.29 1509.55,-18.01 1499.08,-16.41 1500.37,-23.29"/>
</g>
<!-- Node25 -->
<g id="node25" class="node">
<title>Node25</title>
<g id="a_node25"><a xlink:title=" ">
<polygon fill="none" stroke="#bfbfbf" points="1571.78,-0.5 1571.78,-19.5 1615.78,-19.5 1615.78,-0.5 1571.78,-0.5"/>
<text text-anchor="middle" x="1593.78" y="-7.5" font-family="Helvetica,sans-Serif" font-size="10.00">mutex</text>
</a>
</g>
</g>
<!-- Node4&#45;&gt;Node25 -->
<g id="edge24" class="edge">
<title>Node4&#45;&gt;Node25</title>
<path fill="none" stroke="midnightblue" d="M1074.98,-63.91C1178.05,-61.28 1381.27,-52.3 1561.63,-19.85"/>
<polygon fill="midnightblue" stroke="midnightblue" points="1562.35,-23.27 1571.56,-18.03 1561.09,-16.39 1562.35,-23.27"/>
</g>
<!-- Node26 -->
<g id="node26" class="node">
<title>Node26</title>
<g id="a_node26"><a xlink:title=" ">
<polygon fill="none" stroke="#bfbfbf" points="1634.28,-0.5 1634.28,-19.5 1677.28,-19.5 1677.28,-0.5 1634.28,-0.5"/>
<text text-anchor="middle" x="1655.78" y="-7.5" font-family="Helvetica,sans-Serif" font-size="10.00">queue</text>
</a>
</g>
</g>
<!-- Node4&#45;&gt;Node26 -->
<g id="edge25" class="edge">
<title>Node4&#45;&gt;Node26</title>
<path fill="none" stroke="midnightblue" d="M1075,-64.69C1187.16,-63.17 1419.46,-55.74 1624.2,-19.68"/>
<polygon fill="midnightblue" stroke="midnightblue" points="1625.01,-23.09 1634.24,-17.88 1623.78,-16.2 1625.01,-23.09"/>
</g>
<!-- Node27 -->
<g id="node27" class="node">
<title>Node27</title>
<g id="a_node27"><a xlink:title=" ">
<polygon fill="none" stroke="#bfbfbf" points="1695.28,-0.5 1695.28,-19.5 1730.28,-19.5 1730.28,-0.5 1695.28,-0.5"/>
<text text-anchor="middle" x="1712.78" y="-7.5" font-family="Helvetica,sans-Serif" font-size="10.00">map</text>
</a>
</g>
</g>
<!-- Node4&#45;&gt;Node27 -->
<g id="edge26" class="edge">
<title>Node4&#45;&gt;Node27</title>
<path fill="none" stroke="midnightblue" d="M1074.97,-62.83C1218.82,-57.81 1553.56,-44.13 1685.18,-19.76"/>
<polygon fill="midnightblue" stroke="midnightblue" points="1685.91,-23.19 1695.05,-17.84 1684.57,-16.32 1685.91,-23.19"/>
</g>
<!-- Node29 -->
<g id="node29" class="node">
<title>Node29</title>
<g id="a_node29"><a xlink:href="../../d5/de8/a00749.html" target="_top" xlink:title=" ">
<polygon fill="none" stroke="black" points="518.78,-235.5 518.78,-254.5 668.78,-254.5 668.78,-235.5 518.78,-235.5"/>
<text text-anchor="middle" x="593.78" y="-242.5" font-family="Helvetica,sans-Serif" font-size="10.00">discordcoreapi/SSLClients.hpp</text>
</a>
</g>
</g>
<!-- Node28&#45;&gt;Node29 -->
<g id="edge28" class="edge">
<title>Node28&#45;&gt;Node29</title>
<path fill="none" stroke="midnightblue" d="M769.66,-291.44C733.66,-282.14 676.01,-267.25 636.59,-257.06"/>
<polygon fill="midnightblue" stroke="midnightblue" points="637.3,-253.63 626.74,-254.52 635.55,-260.41 637.3,-253.63"/>
</g>
<!-- Node29&#45;&gt;Node3 -->
<g id="edge29" class="edge">
<title>Node29&#45;&gt;Node3</title>
<path fill="none" stroke="midnightblue" d="M668.94,-239.45C727.87,-234.17 811.26,-222.9 880.78,-199 890.6,-195.62 940.39,-167.39 974.63,-147.69"/>
<polygon fill="midnightblue" stroke="midnightblue" points="976.48,-150.66 983.4,-142.64 972.99,-144.6 976.48,-150.66"/>
</g>
<!-- Node30 -->
<g id="node30" class="node">
<title>Node30</title>
<g id="a_node30"><a xlink:href="../../d4/d6a/a00704.html" target="_top" xlink:title=" ">
<polygon fill="none" stroke="black" points="928.78,-179.5 928.78,-198.5 1086.78,-198.5 1086.78,-179.5 928.78,-179.5"/>
<text text-anchor="middle" x="1007.78" y="-186.5" font-family="Helvetica,sans-Serif" font-size="10.00">discordcoreapi/EventEntities.hpp</text>
</a>
</g>
</g>
<!-- Node29&#45;&gt;Node30 -->
<g id="edge30" class="edge">
<title>Node29&#45;&gt;Node30</title>
<path fill="none" stroke="midnightblue" d="M659.38,-235.44C733.57,-225.77 854.18,-210.04 932.24,-199.85"/>
<polygon fill="midnightblue" stroke="midnightblue" points="933.02,-203.28 942.49,-198.52 932.12,-196.34 933.02,-203.28"/>
</g>
<!-- Node31 -->
<g id="node31" class="node">
<title>Node31</title>
<g id="a_node31"><a xlink:title=" ">
<polygon fill="none" stroke="#bfbfbf" points="1105.28,-179.5 1105.28,-198.5 1178.28,-198.5 1178.28,-179.5 1105.28,-179.5"/>
<text text-anchor="middle" x="1141.78" y="-186.5" font-family="Helvetica,sans-Serif" font-size="10.00">openssl/err.h</text>
</a>
</g>
</g>
<!-- Node29&#45;&gt;Node31 -->
<g id="edge32" class="edge">
<title>Node29&#45;&gt;Node31</title>
<path fill="none" stroke="midnightblue" d="M668.9,-239.71C765.19,-233.66 937.44,-221 1094.83,-198.98"/>
<polygon fill="midnightblue" stroke="midnightblue" points="1095.77,-202.38 1105.18,-197.52 1094.79,-195.45 1095.77,-202.38"/>
</g>
<!-- Node32 -->
<g id="node32" class="node">
<title>Node32</title>
<g id="a_node32"><a xlink:title=" ">
<polygon fill="none" stroke="#bfbfbf" points="20.78,-179.5 20.78,-198.5 94.78,-198.5 94.78,-179.5 20.78,-179.5"/>
<text text-anchor="middle" x="57.78" y="-186.5" font-family="Helvetica,sans-Serif" font-size="10.00">openssl/ssl.h</text>
</a>
</g>
</g>
<!-- Node29&#45;&gt;Node32 -->
<g id="edge33" class="edge">
<title>Node29&#45;&gt;Node32</title>
<path fill="none" stroke="midnightblue" d="M518.37,-239.46C423.99,-233.25 257.22,-220.51 104.89,-199.02"/>
<polygon fill="midnightblue" stroke="midnightblue" points="105.27,-195.54 94.88,-197.6 104.29,-202.47 105.27,-195.54"/>
</g>
<!-- Node33 -->
<g id="node33" class="node">
<title>Node33</title>
<g id="a_node33"><a xlink:title=" ">
<polygon fill="none" stroke="#bfbfbf" points="113.28,-179.5 113.28,-198.5 156.28,-198.5 156.28,-179.5 113.28,-179.5"/>
<text text-anchor="middle" x="134.78" y="-186.5" font-family="Helvetica,sans-Serif" font-size="10.00">fcntl.h</text>
</a>
</g>
</g>
<!-- Node29&#45;&gt;Node33 -->
<g id="edge34" class="edge">
<title>Node29&#45;&gt;Node33</title>
<path fill="none" stroke="midnightblue" d="M518.74,-240.38C434.79,-235.38 294.73,-224.19 166.3,-198.98"/>
<polygon fill="midnightblue" stroke="midnightblue" points="166.78,-195.5 156.29,-196.98 165.41,-202.37 166.78,-195.5"/>
</g>
<!-- Node34 -->
<g id="node34" class="node">
<title>Node34</title>
<g id="a_node34"><a xlink:title=" ">
<polygon fill="none" stroke="#bfbfbf" points="174.28,-179.5 174.28,-198.5 223.28,-198.5 223.28,-179.5 174.28,-179.5"/>
<text text-anchor="middle" x="198.78" y="-186.5" font-family="Helvetica,sans-Serif" font-size="10.00">netdb.h</text>
</a>
</g>
</g>
<!-- Node29&#45;&gt;Node34 -->
<g id="edge35" class="edge">
<title>Node29&#45;&gt;Node34</title>
<path fill="none" stroke="midnightblue" d="M518.75,-237.82C447.49,-231.24 337.25,-219.2 233.57,-199.13"/>
<polygon fill="midnightblue" stroke="midnightblue" points="234.04,-195.66 223.55,-197.16 232.69,-202.53 234.04,-195.66"/>
</g>
<!-- Node35 -->
<g id="node35" class="node">
<title>Node35</title>
<g id="a_node35"><a xlink:title=" ">
<polygon fill="none" stroke="#bfbfbf" points="241.28,-179.5 241.28,-198.5 306.28,-198.5 306.28,-179.5 241.28,-179.5"/>
<text text-anchor="middle" x="273.78" y="-186.5" font-family="Helvetica,sans-Serif" font-size="10.00">netinet/in.h</text>
</a>
</g>
</g>
<!-- Node29&#45;&gt;Node35 -->
<g id="edge36" class="edge">
<title>Node29&#45;&gt;Node35</title>
<path fill="none" stroke="midnightblue" d="M534.83,-235.47C480.45,-227.39 397.26,-214.46 316.28,-199.21"/>
<polygon fill="midnightblue" stroke="midnightblue" points="316.9,-195.76 306.42,-197.34 315.59,-202.64 316.9,-195.76"/>
</g>
<!-- Node36 -->
<g id="node36" class="node">
<title>Node36</title>
<g id="a_node36"><a xlink:title=" ">
<polygon fill="none" stroke="#bfbfbf" points="324.28,-179.5 324.28,-198.5 395.28,-198.5 395.28,-179.5 324.28,-179.5"/>
<text text-anchor="middle" x="359.78" y="-186.5" font-family="Helvetica,sans-Serif" font-size="10.00">netinet/tcp.h</text>
</a>
</g>
</g>
<!-- Node29&#45;&gt;Node36 -->
<g id="edge37" class="edge">
<title>Node29&#45;&gt;Node36</title>
<path fill="none" stroke="midnightblue" d="M556.7,-235.44C515.69,-225.98 449.59,-210.73 405.43,-200.54"/>
<polygon fill="midnightblue" stroke="midnightblue" points="406.06,-197.09 395.53,-198.25 404.49,-203.91 406.06,-197.09"/>
</g>
<!-- Node37 -->
<g id="node37" class="node">
<title>Node37</title>
<g id="a_node37"><a xlink:title=" ">
<polygon fill="none" stroke="#bfbfbf" points="413.28,-179.5 413.28,-198.5 462.28,-198.5 462.28,-179.5 413.28,-179.5"/>
<text text-anchor="middle" x="437.78" y="-186.5" font-family="Helvetica,sans-Serif" font-size="10.00">stdint.h</text>
</a>
</g>
</g>
<!-- Node29&#45;&gt;Node37 -->
<g id="edge38" class="edge">
<title>Node29&#45;&gt;Node37</title>
<path fill="none" stroke="midnightblue" d="M569.06,-235.44C542.93,-226.4 501.52,-212.06 472.2,-201.92"/>
<polygon fill="midnightblue" stroke="midnightblue" points="472.98,-198.48 462.38,-198.52 470.69,-205.1 472.98,-198.48"/>
</g>
<!-- Node38 -->
<g id="node38" class="node">
<title>Node38</title>
<g id="a_node38"><a xlink:title=" ">
<polygon fill="none" stroke="#bfbfbf" points="480.78,-179.5 480.78,-198.5 544.78,-198.5 544.78,-179.5 480.78,-179.5"/>
<text text-anchor="middle" x="512.78" y="-186.5" font-family="Helvetica,sans-Serif" font-size="10.00">sys/epoll.h</text>
</a>
</g>
</g>
<!-- Node29&#45;&gt;Node38 -->
<g id="edge39" class="edge">
<title>Node29&#45;&gt;Node38</title>
<path fill="none" stroke="midnightblue" d="M580.76,-235.32C568.25,-226.98 549.1,-214.21 534.31,-204.35"/>
<polygon fill="midnightblue" stroke="midnightblue" points="536.02,-201.29 525.76,-198.65 532.14,-207.11 536.02,-201.29"/>
</g>
<!-- Node39 -->
<g id="node39" class="node">
<title>Node39</title>
<g id="a_node39"><a xlink:title=" ">
<polygon fill="none" stroke="#bfbfbf" points="562.78,-179.5 562.78,-198.5 624.78,-198.5 624.78,-179.5 562.78,-179.5"/>
<text text-anchor="middle" x="593.78" y="-186.5" font-family="Helvetica,sans-Serif" font-size="10.00">arpa/inet.h</text>
</a>
</g>
</g>
<!-- Node29&#45;&gt;Node39 -->
<g id="edge40" class="edge">
<title>Node29&#45;&gt;Node39</title>
<path fill="none" stroke="midnightblue" d="M593.78,-235.08C593.78,-228.01 593.78,-217.86 593.78,-208.99"/>
<polygon fill="midnightblue" stroke="midnightblue" points="597.28,-208.75 593.78,-198.75 590.28,-208.75 597.28,-208.75"/>
</g>
<!-- Node40 -->
<g id="node40" class="node">
<title>Node40</title>
<g id="a_node40"><a xlink:title=" ">
<polygon fill="none" stroke="#bfbfbf" points="643.28,-179.5 643.28,-198.5 716.28,-198.5 716.28,-179.5 643.28,-179.5"/>
<text text-anchor="middle" x="679.78" y="-186.5" font-family="Helvetica,sans-Serif" font-size="10.00">sys/socket.h</text>
</a>
</g>
</g>
<!-- Node29&#45;&gt;Node40 -->
<g id="edge41" class="edge">
<title>Node29&#45;&gt;Node40</title>
<path fill="none" stroke="midnightblue" d="M607.6,-235.32C621.01,-226.9 641.6,-213.97 657.36,-204.07"/>
<polygon fill="midnightblue" stroke="midnightblue" points="659.39,-206.94 666,-198.65 655.67,-201.01 659.39,-206.94"/>
</g>
<!-- Node41 -->
<g id="node41" class="node">
<title>Node41</title>
<g id="a_node41"><a xlink:title=" ">
<polygon fill="none" stroke="#bfbfbf" points="734.78,-179.5 734.78,-198.5 802.78,-198.5 802.78,-179.5 734.78,-179.5"/>
<text text-anchor="middle" x="768.78" y="-186.5" font-family="Helvetica,sans-Serif" font-size="10.00">sys/types.h</text>
</a>
</g>
</g>
<!-- Node29&#45;&gt;Node41 -->
<g id="edge42" class="edge">
<title>Node29&#45;&gt;Node41</title>
<path fill="none" stroke="midnightblue" d="M621.51,-235.44C651.2,-226.28 698.49,-211.69 731.45,-201.52"/>
<polygon fill="midnightblue" stroke="midnightblue" points="732.66,-204.81 741.18,-198.52 730.59,-198.12 732.66,-204.81"/>
</g>
<!-- Node42 -->
<g id="node42" class="node">
<title>Node42</title>
<g id="a_node42"><a xlink:title=" ">
<polygon fill="none" stroke="#bfbfbf" points="821.28,-179.5 821.28,-198.5 872.28,-198.5 872.28,-179.5 821.28,-179.5"/>
<text text-anchor="middle" x="846.78" y="-186.5" font-family="Helvetica,sans-Serif" font-size="10.00">unistd.h</text>
</a>
</g>
</g>
<!-- Node29&#45;&gt;Node42 -->
<g id="edge43" class="edge">
<title>Node29&#45;&gt;Node42</title>
<path fill="none" stroke="midnightblue" d="M638.17,-235.49C680.16,-227.29 745.18,-214.22 811.05,-199.08"/>
<polygon fill="midnightblue" stroke="midnightblue" points="812.25,-202.39 821.2,-196.73 810.67,-195.57 812.25,-202.39"/>
</g>
<!-- Node30&#45;&gt;Node3 -->
<g id="edge31" class="edge">
<title>Node30&#45;&gt;Node3</title>
<path fill="none" stroke="midnightblue" d="M1007.78,-179.48C1007.78,-172.47 1007.78,-162.19 1007.78,-152.7"/>
<polygon fill="midnightblue" stroke="midnightblue" points="1011.28,-152.52 1007.78,-142.52 1004.28,-152.52 1011.28,-152.52"/>
</g>
<!-- Node43&#45;&gt;Node3 -->
<g id="edge45" class="edge">
<title>Node43&#45;&gt;Node3</title>
<path fill="none" stroke="midnightblue" d="M1234.39,-414.41C1261.92,-396.99 1318.78,-354.66 1318.78,-302 1318.78,-302 1318.78,-302 1318.78,-244 1318.78,-193.92 1175.25,-158.58 1083.2,-141.06"/>
<polygon fill="midnightblue" stroke="midnightblue" points="1083.83,-137.62 1073.35,-139.22 1082.54,-144.5 1083.83,-137.62"/>
</g>
<!-- Node44 -->
<g id="node44" class="node">
<title>Node44</title>
<g id="a_node44"><a xlink:href="../../d3/d4f/a00761.html" target="_top" xlink:title=" ">
<polygon fill="none" stroke="black" points="1093.78,-353 1093.78,-372 1243.78,-372 1243.78,-353 1093.78,-353"/>
<text text-anchor="middle" x="1168.78" y="-360" font-family="Helvetica,sans-Serif" font-size="10.00">discordcoreapi/ThreadPool.hpp</text>
</a>
</g>
</g>
<!-- Node43&#45;&gt;Node44 -->
<g id="edge46" class="edge">
<title>Node43&#45;&gt;Node44</title>
<path fill="none" stroke="midnightblue" d="M1212.47,-414.48C1204.75,-405.46 1192.37,-391.02 1182.76,-379.81"/>
<polygon fill="midnightblue" stroke="midnightblue" points="1185.24,-377.32 1176.07,-372.01 1179.92,-381.88 1185.24,-377.32"/>
</g>
<!-- Node45 -->
<g id="node45" class="node">
<title>Node45</title>
<g id="a_node45"><a xlink:title=" ">
<polygon fill="none" stroke="#bfbfbf" points="1234.78,-291.5 1234.78,-310.5 1290.78,-310.5 1290.78,-291.5 1234.78,-291.5"/>
<text text-anchor="middle" x="1262.78" y="-298.5" font-family="Helvetica,sans-Serif" font-size="10.00">coroutine</text>
</a>
</g>
</g>
<!-- Node43&#45;&gt;Node45 -->
<g id="edge50" class="edge">
<title>Node43&#45;&gt;Node45</title>
<path fill="none" stroke="midnightblue" d="M1228.37,-414.19C1236.13,-405.67 1247.15,-392.03 1252.78,-378 1260.2,-359.52 1262.36,-336.67 1262.88,-320.88"/>
<polygon fill="midnightblue" stroke="midnightblue" points="1266.38,-320.83 1263.01,-310.79 1259.38,-320.74 1266.38,-320.83"/>
</g>
<!-- Node44&#45;&gt;Node3 -->
<g id="edge47" class="edge">
<title>Node44&#45;&gt;Node3</title>
<path fill="none" stroke="midnightblue" d="M1173.39,-352.76C1187.69,-324.35 1227.9,-233.33 1186.78,-179 1173.85,-161.92 1126.25,-148.98 1083.39,-140.48"/>
<polygon fill="midnightblue" stroke="midnightblue" points="1083.95,-137.02 1073.47,-138.57 1082.63,-143.9 1083.95,-137.02"/>
</g>
<!-- Node44&#45;&gt;Node28 -->
<g id="edge48" class="edge">
<title>Node44&#45;&gt;Node28</title>
<path fill="none" stroke="midnightblue" d="M1116.34,-352.98C1050.02,-342.19 935.98,-323.65 865.23,-312.15"/>
<polygon fill="midnightblue" stroke="midnightblue" points="865.55,-308.66 855.12,-310.51 864.43,-315.57 865.55,-308.66"/>
</g>
<!-- Node44&#45;&gt;Node45 -->
<g id="edge49" class="edge">
<title>Node44&#45;&gt;Node45</title>
<path fill="none" stroke="midnightblue" d="M1182.25,-352.98C1197.46,-343.34 1222.47,-327.52 1240.58,-316.05"/>
<polygon fill="midnightblue" stroke="midnightblue" points="1242.76,-318.81 1249.34,-310.51 1239.01,-312.9 1242.76,-318.81"/>
</g>
</g>
</svg>
