<?xml version="1.0" encoding="UTF-8" standalone="no"?>
<!DOCTYPE svg PUBLIC "-//W3C//DTD SVG 1.1//EN"
 "http://www.w3.org/Graphics/SVG/1.1/DTD/svg11.dtd">
<!-- Generated by graphviz version 3.0.0 (20220226.1711)
 -->
<!-- Title: SSLClients.cpp Pages: 1 -->
<svg width="2141pt" height="610pt"
 viewBox="0.00 0.00 2140.50 610.00" xmlns="http://www.w3.org/2000/svg" xmlns:xlink="http://www.w3.org/1999/xlink">
<g id="graph0" class="graph" transform="scale(1 1) rotate(0) translate(4 606)">
<title>SSLClients.cpp</title>
<!-- Node1 -->
<g id="node1" class="node">
<title>Node1</title>
<g id="a_node1"><a xlink:title=" ">
<polygon fill="#bfbfbf" stroke="black" points="1164.5,-582.5 1164.5,-601.5 1248.5,-601.5 1248.5,-582.5 1164.5,-582.5"/>
<text text-anchor="middle" x="1206.5" y="-589.5" font-family="Helvetica,sans-Serif" font-size="10.00">SSLClients.cpp</text>
</a>
</g>
</g>
<!-- Node2 -->
<g id="node2" class="node">
<title>Node2</title>
<g id="a_node2"><a xlink:href="$d5/de8/a00749.html" xlink:title=" ">
<polygon fill="none" stroke="black" points="1398.5,-235.5 1398.5,-254.5 1548.5,-254.5 1548.5,-235.5 1398.5,-235.5"/>
<text text-anchor="middle" x="1473.5" y="-242.5" font-family="Helvetica,sans-Serif" font-size="10.00">discordcoreapi/SSLClients.hpp</text>
</a>
</g>
</g>
<!-- Node1&#45;&gt;Node2 -->
<g id="edge1" class="edge">
<title>Node1&#45;&gt;Node2</title>
<path fill="none" stroke="midnightblue" d="M1248.62,-590.2C1323.16,-586.31 1470.5,-566.42 1470.5,-470 1470.5,-470 1470.5,-470 1470.5,-356 1470.5,-323.94 1471.79,-286.63 1472.68,-264.74"/>
<polygon fill="midnightblue" stroke="midnightblue" points="1476.18,-264.69 1473.11,-254.56 1469.19,-264.4 1476.18,-264.69"/>
</g>
<!-- Node41 -->
<g id="node41" class="node">
<title>Node41</title>
<g id="a_node41"><a xlink:href="$d9/dd4/a00776.html" xlink:title=" ">
<polygon fill="none" stroke="black" points="935.5,-515.5 935.5,-545.5 1069.5,-545.5 1069.5,-515.5 935.5,-515.5"/>
<text text-anchor="start" x="943.5" y="-533.5" font-family="Helvetica,sans-Serif" font-size="10.00">discordcoreapi/WebSocket</text>
<text text-anchor="middle" x="1002.5" y="-522.5" font-family="Helvetica,sans-Serif" font-size="10.00">Entities.hpp</text>
</a>
</g>
</g>
<!-- Node1&#45;&gt;Node41 -->
<g id="edge41" class="edge">
<title>Node1&#45;&gt;Node41</title>
<path fill="none" stroke="midnightblue" d="M1177.27,-582.48C1146.93,-573.63 1098.67,-559.55 1060.54,-548.43"/>
<polygon fill="midnightblue" stroke="midnightblue" points="1061.16,-544.96 1050.58,-545.52 1059.2,-551.68 1061.16,-544.96"/>
</g>
<!-- Node3 -->
<g id="node3" class="node">
<title>Node3</title>
<g id="a_node3"><a xlink:href="$d4/deb/a00710.html" xlink:title=" ">
<polygon fill="none" stroke="black" points="928,-112.5 928,-142.5 1059,-142.5 1059,-112.5 928,-112.5"/>
<text text-anchor="start" x="936" y="-130.5" font-family="Helvetica,sans-Serif" font-size="10.00">discordcoreapi/Foundation</text>
<text text-anchor="middle" x="993.5" y="-119.5" font-family="Helvetica,sans-Serif" font-size="10.00">Entities.hpp</text>
</a>
</g>
</g>
<!-- Node2&#45;&gt;Node3 -->
<g id="edge2" class="edge">
<title>Node2&#45;&gt;Node3</title>
<path fill="none" stroke="midnightblue" d="M1398.45,-238.36C1338.48,-232.46 1252.79,-220.88 1180.5,-199 1160.33,-192.89 1157.02,-186.94 1137.5,-179 1107.88,-166.95 1074.19,-155.04 1046.85,-145.82"/>
<polygon fill="midnightblue" stroke="midnightblue" points="1047.67,-142.4 1037.08,-142.54 1045.45,-149.04 1047.67,-142.4"/>
</g>
<!-- Node28 -->
<g id="node28" class="node">
<title>Node28</title>
<g id="a_node28"><a xlink:href="$d4/d6a/a00704.html" xlink:title=" ">
<polygon fill="none" stroke="black" points="861.5,-179.5 861.5,-198.5 1019.5,-198.5 1019.5,-179.5 861.5,-179.5"/>
<text text-anchor="middle" x="940.5" y="-186.5" font-family="Helvetica,sans-Serif" font-size="10.00">discordcoreapi/EventEntities.hpp</text>
</a>
</g>
</g>
<!-- Node2&#45;&gt;Node28 -->
<g id="edge27" class="edge">
<title>Node2&#45;&gt;Node28</title>
<path fill="none" stroke="midnightblue" d="M1398.26,-236.38C1301.34,-226.56 1133.09,-209.51 1029.79,-199.05"/>
<polygon fill="midnightblue" stroke="midnightblue" points="1030,-195.55 1019.7,-198.02 1029.29,-202.51 1030,-195.55"/>
</g>
<!-- Node29 -->
<g id="node29" class="node">
<title>Node29</title>
<g id="a_node29"><a xlink:title=" ">
<polygon fill="none" stroke="#bfbfbf" points="1517,-179.5 1517,-198.5 1590,-198.5 1590,-179.5 1517,-179.5"/>
<text text-anchor="middle" x="1553.5" y="-186.5" font-family="Helvetica,sans-Serif" font-size="10.00">openssl/err.h</text>
</a>
</g>
</g>
<!-- Node2&#45;&gt;Node29 -->
<g id="edge29" class="edge">
<title>Node2&#45;&gt;Node29</title>
<path fill="none" stroke="midnightblue" d="M1486.35,-235.32C1498.72,-226.98 1517.63,-214.21 1532.24,-204.35"/>
<polygon fill="midnightblue" stroke="midnightblue" points="1534.35,-207.15 1540.68,-198.65 1530.43,-201.35 1534.35,-207.15"/>
</g>
<!-- Node30 -->
<g id="node30" class="node">
<title>Node30</title>
<g id="a_node30"><a xlink:title=" ">
<polygon fill="none" stroke="#bfbfbf" points="1608.5,-179.5 1608.5,-198.5 1682.5,-198.5 1682.5,-179.5 1608.5,-179.5"/>
<text text-anchor="middle" x="1645.5" y="-186.5" font-family="Helvetica,sans-Serif" font-size="10.00">openssl/ssl.h</text>
</a>
</g>
</g>
<!-- Node2&#45;&gt;Node30 -->
<g id="edge30" class="edge">
<title>Node2&#45;&gt;Node30</title>
<path fill="none" stroke="midnightblue" d="M1500.75,-235.44C1529.94,-226.28 1576.42,-211.69 1608.81,-201.52"/>
<polygon fill="midnightblue" stroke="midnightblue" points="1609.88,-204.85 1618.37,-198.52 1607.78,-198.17 1609.88,-204.85"/>
</g>
<!-- Node31 -->
<g id="node31" class="node">
<title>Node31</title>
<g id="a_node31"><a xlink:title=" ">
<polygon fill="none" stroke="#bfbfbf" points="1701,-179.5 1701,-198.5 1744,-198.5 1744,-179.5 1701,-179.5"/>
<text text-anchor="middle" x="1722.5" y="-186.5" font-family="Helvetica,sans-Serif" font-size="10.00">fcntl.h</text>
</a>
</g>
</g>
<!-- Node2&#45;&gt;Node31 -->
<g id="edge31" class="edge">
<title>Node2&#45;&gt;Node31</title>
<path fill="none" stroke="midnightblue" d="M1520.09,-235.49C1562.23,-227.54 1626.18,-214.87 1690.91,-198.98"/>
<polygon fill="midnightblue" stroke="midnightblue" points="1692.01,-202.32 1700.88,-196.51 1690.33,-195.52 1692.01,-202.32"/>
</g>
<!-- Node32 -->
<g id="node32" class="node">
<title>Node32</title>
<g id="a_node32"><a xlink:title=" ">
<polygon fill="none" stroke="#bfbfbf" points="1762,-179.5 1762,-198.5 1811,-198.5 1811,-179.5 1762,-179.5"/>
<text text-anchor="middle" x="1786.5" y="-186.5" font-family="Helvetica,sans-Serif" font-size="10.00">netdb.h</text>
</a>
</g>
</g>
<!-- Node2&#45;&gt;Node32 -->
<g id="edge32" class="edge">
<title>Node2&#45;&gt;Node32</title>
<path fill="none" stroke="midnightblue" d="M1539.21,-235.46C1593.86,-227.9 1673.83,-215.77 1751.72,-199.22"/>
<polygon fill="midnightblue" stroke="midnightblue" points="1752.66,-202.59 1761.7,-197.07 1751.19,-195.75 1752.66,-202.59"/>
</g>
<!-- Node33 -->
<g id="node33" class="node">
<title>Node33</title>
<g id="a_node33"><a xlink:title=" ">
<polygon fill="none" stroke="#bfbfbf" points="1829,-179.5 1829,-198.5 1894,-198.5 1894,-179.5 1829,-179.5"/>
<text text-anchor="middle" x="1861.5" y="-186.5" font-family="Helvetica,sans-Serif" font-size="10.00">netinet/in.h</text>
</a>
</g>
</g>
<!-- Node2&#45;&gt;Node33 -->
<g id="edge33" class="edge">
<title>Node2&#45;&gt;Node33</title>
<path fill="none" stroke="midnightblue" d="M1548.58,-236.17C1616.72,-228.64 1720.14,-216.11 1818.74,-199.19"/>
<polygon fill="midnightblue" stroke="midnightblue" points="1819.62,-202.59 1828.88,-197.43 1818.43,-195.69 1819.62,-202.59"/>
</g>
<!-- Node34 -->
<g id="node34" class="node">
<title>Node34</title>
<g id="a_node34"><a xlink:title=" ">
<polygon fill="none" stroke="#bfbfbf" points="1912,-179.5 1912,-198.5 1983,-198.5 1983,-179.5 1912,-179.5"/>
<text text-anchor="middle" x="1947.5" y="-186.5" font-family="Helvetica,sans-Serif" font-size="10.00">netinet/tcp.h</text>
</a>
</g>
</g>
<!-- Node2&#45;&gt;Node34 -->
<g id="edge34" class="edge">
<title>Node2&#45;&gt;Node34</title>
<path fill="none" stroke="midnightblue" d="M1548.75,-238.36C1632.62,-231.57 1772.47,-218.75 1901.47,-199.2"/>
<polygon fill="midnightblue" stroke="midnightblue" points="1902.18,-202.63 1911.53,-197.65 1901.12,-195.71 1902.18,-202.63"/>
</g>
<!-- Node35 -->
<g id="node35" class="node">
<title>Node35</title>
<g id="a_node35"><a xlink:title=" ">
<polygon fill="none" stroke="#bfbfbf" points="2001,-179.5 2001,-198.5 2050,-198.5 2050,-179.5 2001,-179.5"/>
<text text-anchor="middle" x="2025.5" y="-186.5" font-family="Helvetica,sans-Serif" font-size="10.00">stdint.h</text>
</a>
</g>
</g>
<!-- Node2&#45;&gt;Node35 -->
<g id="edge35" class="edge">
<title>Node2&#45;&gt;Node35</title>
<path fill="none" stroke="midnightblue" d="M1548.83,-241.71C1648.23,-237.75 1828.65,-227.29 1990.6,-199.06"/>
<polygon fill="midnightblue" stroke="midnightblue" points="1991.51,-202.45 2000.74,-197.27 1990.29,-195.56 1991.51,-202.45"/>
</g>
<!-- Node36 -->
<g id="node36" class="node">
<title>Node36</title>
<g id="a_node36"><a xlink:title=" ">
<polygon fill="none" stroke="#bfbfbf" points="2068.5,-179.5 2068.5,-198.5 2132.5,-198.5 2132.5,-179.5 2068.5,-179.5"/>
<text text-anchor="middle" x="2100.5" y="-186.5" font-family="Helvetica,sans-Serif" font-size="10.00">sys/epoll.h</text>
</a>
</g>
</g>
<!-- Node2&#45;&gt;Node36 -->
<g id="edge36" class="edge">
<title>Node2&#45;&gt;Node36</title>
<path fill="none" stroke="midnightblue" d="M1548.8,-241.58C1658.74,-237.29 1869.71,-226.26 2058.25,-198.98"/>
<polygon fill="midnightblue" stroke="midnightblue" points="2058.96,-202.41 2068.35,-197.5 2057.95,-195.49 2058.96,-202.41"/>
</g>
<!-- Node37 -->
<g id="node37" class="node">
<title>Node37</title>
<g id="a_node37"><a xlink:title=" ">
<polygon fill="none" stroke="#bfbfbf" points="1189.5,-179.5 1189.5,-198.5 1251.5,-198.5 1251.5,-179.5 1189.5,-179.5"/>
<text text-anchor="middle" x="1220.5" y="-186.5" font-family="Helvetica,sans-Serif" font-size="10.00">arpa/inet.h</text>
</a>
</g>
</g>
<!-- Node2&#45;&gt;Node37 -->
<g id="edge37" class="edge">
<title>Node2&#45;&gt;Node37</title>
<path fill="none" stroke="midnightblue" d="M1432.84,-235.46C1392.23,-226.91 1327.76,-213.28 1261.97,-199.09"/>
<polygon fill="midnightblue" stroke="midnightblue" points="1262.35,-195.59 1251.83,-196.9 1260.87,-202.43 1262.35,-195.59"/>
</g>
<!-- Node38 -->
<g id="node38" class="node">
<title>Node38</title>
<g id="a_node38"><a xlink:title=" ">
<polygon fill="none" stroke="#bfbfbf" points="1270,-179.5 1270,-198.5 1343,-198.5 1343,-179.5 1270,-179.5"/>
<text text-anchor="middle" x="1306.5" y="-186.5" font-family="Helvetica,sans-Serif" font-size="10.00">sys/socket.h</text>
</a>
</g>
</g>
<!-- Node2&#45;&gt;Node38 -->
<g id="edge38" class="edge">
<title>Node2&#45;&gt;Node38</title>
<path fill="none" stroke="midnightblue" d="M1447.04,-235.44C1418.82,-226.32 1373.96,-211.81 1342.53,-201.65"/>
<polygon fill="midnightblue" stroke="midnightblue" points="1343.43,-198.26 1332.84,-198.52 1341.28,-204.92 1343.43,-198.26"/>
</g>
<!-- Node39 -->
<g id="node39" class="node">
<title>Node39</title>
<g id="a_node39"><a xlink:title=" ">
<polygon fill="none" stroke="#bfbfbf" points="1361.5,-179.5 1361.5,-198.5 1429.5,-198.5 1429.5,-179.5 1361.5,-179.5"/>
<text text-anchor="middle" x="1395.5" y="-186.5" font-family="Helvetica,sans-Serif" font-size="10.00">sys/types.h</text>
</a>
</g>
</g>
<!-- Node2&#45;&gt;Node39 -->
<g id="edge39" class="edge">
<title>Node2&#45;&gt;Node39</title>
<path fill="none" stroke="midnightblue" d="M1460.97,-235.32C1448.91,-226.98 1430.47,-214.21 1416.23,-204.35"/>
<polygon fill="midnightblue" stroke="midnightblue" points="1418.22,-201.47 1408,-198.65 1414.23,-207.22 1418.22,-201.47"/>
</g>
<!-- Node40 -->
<g id="node40" class="node">
<title>Node40</title>
<g id="a_node40"><a xlink:title=" ">
<polygon fill="none" stroke="#bfbfbf" points="1448,-179.5 1448,-198.5 1499,-198.5 1499,-179.5 1448,-179.5"/>
<text text-anchor="middle" x="1473.5" y="-186.5" font-family="Helvetica,sans-Serif" font-size="10.00">unistd.h</text>
</a>
</g>
</g>
<!-- Node2&#45;&gt;Node40 -->
<g id="edge40" class="edge">
<title>Node2&#45;&gt;Node40</title>
<path fill="none" stroke="midnightblue" d="M1473.5,-235.08C1473.5,-228.01 1473.5,-217.86 1473.5,-208.99"/>
<polygon fill="midnightblue" stroke="midnightblue" points="1477,-208.75 1473.5,-198.75 1470,-208.75 1477,-208.75"/>
</g>
<!-- Node4 -->
<g id="node4" class="node">
<title>Node4</title>
<g id="a_node4"><a xlink:href="$d5/dae/a00767.html" xlink:title=" ">
<polygon fill="none" stroke="black" points="926.5,-56.5 926.5,-75.5 1060.5,-75.5 1060.5,-56.5 926.5,-56.5"/>
<text text-anchor="middle" x="993.5" y="-63.5" font-family="Helvetica,sans-Serif" font-size="10.00">discordcoreapi/Utilities.hpp</text>
</a>
</g>
</g>
<!-- Node3&#45;&gt;Node4 -->
<g id="edge3" class="edge">
<title>Node3&#45;&gt;Node4</title>
<path fill="none" stroke="midnightblue" d="M993.5,-112.4C993.5,-104.47 993.5,-94.46 993.5,-85.86"/>
<polygon fill="midnightblue" stroke="midnightblue" points="997,-85.66 993.5,-75.66 990,-85.66 997,-85.66"/>
</g>
<!-- Node5 -->
<g id="node5" class="node">
<title>Node5</title>
<g id="a_node5"><a xlink:title=" ">
<polygon fill="none" stroke="#bfbfbf" points="0,-0.5 0,-19.5 57,-19.5 57,-0.5 0,-0.5"/>
<text text-anchor="middle" x="28.5" y="-7.5" font-family="Helvetica,sans-Serif" font-size="10.00">pthread.h</text>
</a>
</g>
</g>
<!-- Node4&#45;&gt;Node5 -->
<g id="edge4" class="edge">
<title>Node4&#45;&gt;Node5</title>
<path fill="none" stroke="midnightblue" d="M926.45,-63.35C745.93,-58.65 251.53,-44.07 67.15,-19.74"/>
<polygon fill="midnightblue" stroke="midnightblue" points="67.41,-16.24 57.03,-18.35 66.46,-23.18 67.41,-16.24"/>
</g>
<!-- Node6 -->
<g id="node6" class="node">
<title>Node6</title>
<g id="a_node6"><a xlink:title=" ">
<polygon fill="none" stroke="#bfbfbf" points="75.5,-0.5 75.5,-19.5 137.5,-19.5 137.5,-0.5 75.5,-0.5"/>
<text text-anchor="middle" x="106.5" y="-7.5" font-family="Helvetica,sans-Serif" font-size="10.00">sys/time.h</text>
</a>
</g>
</g>
<!-- Node4&#45;&gt;Node6 -->
<g id="edge5" class="edge">
<title>Node4&#45;&gt;Node6</title>
<path fill="none" stroke="midnightblue" d="M926.43,-65.26C784.35,-64.97 442.57,-59.92 147.87,-19.95"/>
<polygon fill="midnightblue" stroke="midnightblue" points="148.23,-16.47 137.85,-18.58 147.28,-23.4 148.23,-16.47"/>
</g>
<!-- Node7 -->
<g id="node7" class="node">
<title>Node7</title>
<g id="a_node7"><a xlink:title=" ">
<polygon fill="none" stroke="#bfbfbf" points="155.5,-0.5 155.5,-19.5 199.5,-19.5 199.5,-0.5 155.5,-0.5"/>
<text text-anchor="middle" x="177.5" y="-7.5" font-family="Helvetica,sans-Serif" font-size="10.00">time.h</text>
</a>
</g>
</g>
<!-- Node4&#45;&gt;Node7 -->
<g id="edge6" class="edge">
<title>Node4&#45;&gt;Node7</title>
<path fill="none" stroke="midnightblue" d="M926.48,-63.1C766.41,-58.25 364.34,-44.19 209.95,-19.8"/>
<polygon fill="midnightblue" stroke="midnightblue" points="210.15,-16.28 199.71,-18.1 209,-23.19 210.15,-16.28"/>
</g>
<!-- Node8 -->
<g id="node8" class="node">
<title>Node8</title>
<g id="a_node8"><a xlink:title=" ">
<polygon fill="none" stroke="#bfbfbf" points="218,-0.5 218,-19.5 259,-19.5 259,-0.5 218,-0.5"/>
<text text-anchor="middle" x="238.5" y="-7.5" font-family="Helvetica,sans-Serif" font-size="10.00">ctime</text>
</a>
</g>
</g>
<!-- Node4&#45;&gt;Node8 -->
<g id="edge7" class="edge">
<title>Node4&#45;&gt;Node8</title>
<path fill="none" stroke="midnightblue" d="M926.39,-62.89C775.29,-57.82 411.16,-43.7 269.47,-19.9"/>
<polygon fill="midnightblue" stroke="midnightblue" points="269.72,-16.39 259.26,-18.09 268.5,-23.28 269.72,-16.39"/>
</g>
<!-- Node9 -->
<g id="node9" class="node">
<title>Node9</title>
<g id="a_node9"><a xlink:title=" ">
<polygon fill="none" stroke="#bfbfbf" points="277,-0.5 277,-19.5 370,-19.5 370,-0.5 277,-0.5"/>
<text text-anchor="middle" x="323.5" y="-7.5" font-family="Helvetica,sans-Serif" font-size="10.00">condition_variable</text>
</a>
</g>
</g>
<!-- Node4&#45;&gt;Node9 -->
<g id="edge8" class="edge">
<title>Node4&#45;&gt;Node9</title>
<path fill="none" stroke="midnightblue" d="M926.09,-61.96C814.7,-56.53 585.05,-43.55 380.25,-19.98"/>
<polygon fill="midnightblue" stroke="midnightblue" points="380.55,-16.49 370.21,-18.82 379.74,-23.45 380.55,-16.49"/>
</g>
<!-- Node10 -->
<g id="node10" class="node">
<title>Node10</title>
<g id="a_node10"><a xlink:title=" ">
<polygon fill="none" stroke="#bfbfbf" points="388.5,-0.5 388.5,-19.5 486.5,-19.5 486.5,-0.5 388.5,-0.5"/>
<text text-anchor="middle" x="437.5" y="-7.5" font-family="Helvetica,sans-Serif" font-size="10.00">nlohmann/json.hpp</text>
</a>
</g>
</g>
<!-- Node4&#45;&gt;Node10 -->
<g id="edge9" class="edge">
<title>Node4&#45;&gt;Node10</title>
<path fill="none" stroke="midnightblue" d="M926.5,-60.31C832.7,-53.44 656.71,-39.45 496.55,-20.06"/>
<polygon fill="midnightblue" stroke="midnightblue" points="496.87,-16.57 486.52,-18.83 496.02,-23.52 496.87,-16.57"/>
</g>
<!-- Node11 -->
<g id="node11" class="node">
<title>Node11</title>
<g id="a_node11"><a xlink:title=" ">
<polygon fill="none" stroke="#bfbfbf" points="505,-0.5 505,-19.5 590,-19.5 590,-0.5 505,-0.5"/>
<text text-anchor="middle" x="547.5" y="-7.5" font-family="Helvetica,sans-Serif" font-size="10.00">source_location</text>
</a>
</g>
</g>
<!-- Node4&#45;&gt;Node11 -->
<g id="edge10" class="edge">
<title>Node4&#45;&gt;Node11</title>
<path fill="none" stroke="midnightblue" d="M926.24,-58.6C849.66,-51.04 720.55,-37.42 600.18,-20.17"/>
<polygon fill="midnightblue" stroke="midnightblue" points="600.44,-16.67 590.05,-18.71 599.44,-23.6 600.44,-16.67"/>
</g>
<!-- Node12 -->
<g id="node12" class="node">
<title>Node12</title>
<g id="a_node12"><a xlink:title=" ">
<polygon fill="none" stroke="#bfbfbf" points="608,-0.5 608,-19.5 691,-19.5 691,-0.5 608,-0.5"/>
<text text-anchor="middle" x="649.5" y="-7.5" font-family="Helvetica,sans-Serif" font-size="10.00">unordered_map</text>
</a>
</g>
</g>
<!-- Node4&#45;&gt;Node12 -->
<g id="edge11" class="edge">
<title>Node4&#45;&gt;Node12</title>
<path fill="none" stroke="midnightblue" d="M935.62,-56.5C878.67,-48.05 788.96,-34.5 701.35,-20.11"/>
<polygon fill="midnightblue" stroke="midnightblue" points="701.67,-16.62 691.24,-18.44 700.53,-23.52 701.67,-16.62"/>
</g>
<!-- Node13 -->
<g id="node13" class="node">
<title>Node13</title>
<g id="a_node13"><a xlink:title=" ">
<polygon fill="none" stroke="#bfbfbf" points="709.5,-0.5 709.5,-19.5 787.5,-19.5 787.5,-0.5 709.5,-0.5"/>
<text text-anchor="middle" x="748.5" y="-7.5" font-family="Helvetica,sans-Serif" font-size="10.00">shared_mutex</text>
</a>
</g>
</g>
<!-- Node4&#45;&gt;Node13 -->
<g id="edge12" class="edge">
<title>Node4&#45;&gt;Node13</title>
<path fill="none" stroke="midnightblue" d="M954.68,-56.44C911.94,-47.02 843.17,-31.87 796.93,-21.68"/>
<polygon fill="midnightblue" stroke="midnightblue" points="797.66,-18.25 787.14,-19.52 796.15,-25.09 797.66,-18.25"/>
</g>
<!-- Node14 -->
<g id="node14" class="node">
<title>Node14</title>
<g id="a_node14"><a xlink:title=" ">
<polygon fill="none" stroke="#bfbfbf" points="805.5,-0.5 805.5,-19.5 863.5,-19.5 863.5,-0.5 805.5,-0.5"/>
<text text-anchor="middle" x="834.5" y="-7.5" font-family="Helvetica,sans-Serif" font-size="10.00">functional</text>
</a>
</g>
</g>
<!-- Node4&#45;&gt;Node14 -->
<g id="edge13" class="edge">
<title>Node4&#45;&gt;Node14</title>
<path fill="none" stroke="midnightblue" d="M968.31,-56.44C941.56,-47.36 899.1,-32.94 869.19,-22.78"/>
<polygon fill="midnightblue" stroke="midnightblue" points="870.17,-19.42 859.58,-19.52 867.92,-26.05 870.17,-19.42"/>
</g>
<!-- Node15 -->
<g id="node15" class="node">
<title>Node15</title>
<g id="a_node15"><a xlink:title=" ">
<polygon fill="none" stroke="#bfbfbf" points="882,-0.5 882,-19.5 947,-19.5 947,-0.5 882,-0.5"/>
<text text-anchor="middle" x="914.5" y="-7.5" font-family="Helvetica,sans-Serif" font-size="10.00">semaphore</text>
</a>
</g>
</g>
<!-- Node4&#45;&gt;Node15 -->
<g id="edge14" class="edge">
<title>Node4&#45;&gt;Node15</title>
<path fill="none" stroke="midnightblue" d="M980.81,-56.32C968.6,-47.98 949.92,-35.21 935.5,-25.35"/>
<polygon fill="midnightblue" stroke="midnightblue" points="937.39,-22.41 927.16,-19.65 933.44,-28.19 937.39,-22.41"/>
</g>
<!-- Node16 -->
<g id="node16" class="node">
<title>Node16</title>
<g id="a_node16"><a xlink:title=" ">
<polygon fill="none" stroke="#bfbfbf" points="965.5,-0.5 965.5,-19.5 1021.5,-19.5 1021.5,-0.5 965.5,-0.5"/>
<text text-anchor="middle" x="993.5" y="-7.5" font-family="Helvetica,sans-Serif" font-size="10.00">concepts</text>
</a>
</g>
</g>
<!-- Node4&#45;&gt;Node16 -->
<g id="edge15" class="edge">
<title>Node4&#45;&gt;Node16</title>
<path fill="none" stroke="midnightblue" d="M993.5,-56.08C993.5,-49.01 993.5,-38.86 993.5,-29.99"/>
<polygon fill="midnightblue" stroke="midnightblue" points="997,-29.75 993.5,-19.75 990,-29.75 997,-29.75"/>
</g>
<!-- Node17 -->
<g id="node17" class="node">
<title>Node17</title>
<g id="a_node17"><a xlink:title=" ">
<polygon fill="none" stroke="#bfbfbf" points="1039.5,-0.5 1039.5,-19.5 1093.5,-19.5 1093.5,-0.5 1039.5,-0.5"/>
<text text-anchor="middle" x="1066.5" y="-7.5" font-family="Helvetica,sans-Serif" font-size="10.00">iostream</text>
</a>
</g>
</g>
<!-- Node4&#45;&gt;Node17 -->
<g id="edge16" class="edge">
<title>Node4&#45;&gt;Node17</title>
<path fill="none" stroke="midnightblue" d="M1005.23,-56.32C1016.34,-48.11 1033.24,-35.6 1046.48,-25.81"/>
<polygon fill="midnightblue" stroke="midnightblue" points="1048.6,-28.59 1054.56,-19.83 1044.44,-22.97 1048.6,-28.59"/>
</g>
<!-- Node18 -->
<g id="node18" class="node">
<title>Node18</title>
<g id="a_node18"><a xlink:title=" ">
<polygon fill="none" stroke="#bfbfbf" points="1112,-0.5 1112,-19.5 1161,-19.5 1161,-0.5 1112,-0.5"/>
<text text-anchor="middle" x="1136.5" y="-7.5" font-family="Helvetica,sans-Serif" font-size="10.00">fstream</text>
</a>
</g>
</g>
<!-- Node4&#45;&gt;Node18 -->
<g id="edge17" class="edge">
<title>Node4&#45;&gt;Node18</title>
<path fill="none" stroke="midnightblue" d="M1016.16,-56.44C1039.9,-47.48 1077.41,-33.31 1104.24,-23.18"/>
<polygon fill="midnightblue" stroke="midnightblue" points="1105.83,-26.32 1113.95,-19.52 1103.36,-19.77 1105.83,-26.32"/>
</g>
<!-- Node19 -->
<g id="node19" class="node">
<title>Node19</title>
<g id="a_node19"><a xlink:title=" ">
<polygon fill="none" stroke="#bfbfbf" points="1179,-0.5 1179,-19.5 1220,-19.5 1220,-0.5 1179,-0.5"/>
<text text-anchor="middle" x="1199.5" y="-7.5" font-family="Helvetica,sans-Serif" font-size="10.00">bitset</text>
</a>
</g>
</g>
<!-- Node4&#45;&gt;Node19 -->
<g id="edge18" class="edge">
<title>Node4&#45;&gt;Node19</title>
<path fill="none" stroke="midnightblue" d="M1029.24,-56.49C1063.07,-48.31 1115.47,-35.31 1169.25,-20.26"/>
<polygon fill="midnightblue" stroke="midnightblue" points="1170.27,-23.61 1178.94,-17.52 1168.37,-16.87 1170.27,-23.61"/>
</g>
<!-- Node20 -->
<g id="node20" class="node">
<title>Node20</title>
<g id="a_node20"><a xlink:title=" ">
<polygon fill="none" stroke="#bfbfbf" points="1238.5,-0.5 1238.5,-19.5 1290.5,-19.5 1290.5,-0.5 1238.5,-0.5"/>
<text text-anchor="middle" x="1264.5" y="-7.5" font-family="Helvetica,sans-Serif" font-size="10.00">memory</text>
</a>
</g>
</g>
<!-- Node4&#45;&gt;Node20 -->
<g id="edge19" class="edge">
<title>Node4&#45;&gt;Node20</title>
<path fill="none" stroke="midnightblue" d="M1043.41,-56.43C1089.16,-48.36 1158.97,-35.51 1228.38,-20.15"/>
<polygon fill="midnightblue" stroke="midnightblue" points="1229.17,-23.56 1238.17,-17.96 1227.65,-16.72 1229.17,-23.56"/>
</g>
<!-- Node21 -->
<g id="node21" class="node">
<title>Node21</title>
<g id="a_node21"><a xlink:title=" ">
<polygon fill="none" stroke="#bfbfbf" points="1309,-0.5 1309,-19.5 1358,-19.5 1358,-0.5 1309,-0.5"/>
<text text-anchor="middle" x="1333.5" y="-7.5" font-family="Helvetica,sans-Serif" font-size="10.00">random</text>
</a>
</g>
</g>
<!-- Node4&#45;&gt;Node21 -->
<g id="edge20" class="edge">
<title>Node4&#45;&gt;Node21</title>
<path fill="none" stroke="midnightblue" d="M1060.74,-57.33C1120.74,-49.97 1211.15,-37.66 1298.84,-19.93"/>
<polygon fill="midnightblue" stroke="midnightblue" points="1299.6,-23.35 1308.69,-17.91 1298.2,-16.49 1299.6,-23.35"/>
</g>
<!-- Node22 -->
<g id="node22" class="node">
<title>Node22</title>
<g id="a_node22"><a xlink:title=" ">
<polygon fill="none" stroke="#bfbfbf" points="1376,-0.5 1376,-19.5 1417,-19.5 1417,-0.5 1376,-0.5"/>
<text text-anchor="middle" x="1396.5" y="-7.5" font-family="Helvetica,sans-Serif" font-size="10.00">string</text>
</a>
</g>
</g>
<!-- Node4&#45;&gt;Node22 -->
<g id="edge21" class="edge">
<title>Node4&#45;&gt;Node22</title>
<path fill="none" stroke="midnightblue" d="M1060.65,-60.6C1133.77,-54.99 1254.18,-43.34 1365.64,-20.08"/>
<polygon fill="midnightblue" stroke="midnightblue" points="1366.66,-23.45 1375.71,-17.95 1365.2,-16.6 1366.66,-23.45"/>
</g>
<!-- Node23 -->
<g id="node23" class="node">
<title>Node23</title>
<g id="a_node23"><a xlink:title=" ">
<polygon fill="none" stroke="#bfbfbf" points="1435.5,-0.5 1435.5,-19.5 1477.5,-19.5 1477.5,-0.5 1435.5,-0.5"/>
<text text-anchor="middle" x="1456.5" y="-7.5" font-family="Helvetica,sans-Serif" font-size="10.00">vector</text>
</a>
</g>
</g>
<!-- Node4&#45;&gt;Node23 -->
<g id="edge22" class="edge">
<title>Node4&#45;&gt;Node23</title>
<path fill="none" stroke="midnightblue" d="M1060.85,-61.93C1144.41,-57.24 1291.27,-46.14 1425.28,-19.89"/>
<polygon fill="midnightblue" stroke="midnightblue" points="1426.2,-23.28 1435.32,-17.89 1424.83,-16.41 1426.2,-23.28"/>
</g>
<!-- Node24 -->
<g id="node24" class="node">
<title>Node24</title>
<g id="a_node24"><a xlink:title=" ">
<polygon fill="none" stroke="#bfbfbf" points="1495.5,-0.5 1495.5,-19.5 1539.5,-19.5 1539.5,-0.5 1495.5,-0.5"/>
<text text-anchor="middle" x="1517.5" y="-7.5" font-family="Helvetica,sans-Serif" font-size="10.00">thread</text>
</a>
</g>
</g>
<!-- Node4&#45;&gt;Node24 -->
<g id="edge23" class="edge">
<title>Node4&#45;&gt;Node24</title>
<path fill="none" stroke="midnightblue" d="M1060.65,-62.94C1154,-59.18 1328.27,-48.9 1484.98,-19.94"/>
<polygon fill="midnightblue" stroke="midnightblue" points="1486.09,-23.29 1495.27,-18.01 1484.8,-16.41 1486.09,-23.29"/>
</g>
<!-- Node25 -->
<g id="node25" class="node">
<title>Node25</title>
<g id="a_node25"><a xlink:title=" ">
<polygon fill="none" stroke="#bfbfbf" points="1557.5,-0.5 1557.5,-19.5 1601.5,-19.5 1601.5,-0.5 1557.5,-0.5"/>
<text text-anchor="middle" x="1579.5" y="-7.5" font-family="Helvetica,sans-Serif" font-size="10.00">mutex</text>
</a>
</g>
</g>
<!-- Node4&#45;&gt;Node25 -->
<g id="edge24" class="edge">
<title>Node4&#45;&gt;Node25</title>
<path fill="none" stroke="midnightblue" d="M1060.71,-63.91C1163.77,-61.28 1366.99,-52.3 1547.35,-19.85"/>
<polygon fill="midnightblue" stroke="midnightblue" points="1548.07,-23.27 1557.28,-18.03 1546.81,-16.39 1548.07,-23.27"/>
</g>
<!-- Node26 -->
<g id="node26" class="node">
<title>Node26</title>
<g id="a_node26"><a xlink:title=" ">
<polygon fill="none" stroke="#bfbfbf" points="1620,-0.5 1620,-19.5 1663,-19.5 1663,-0.5 1620,-0.5"/>
<text text-anchor="middle" x="1641.5" y="-7.5" font-family="Helvetica,sans-Serif" font-size="10.00">queue</text>
</a>
</g>
</g>
<!-- Node4&#45;&gt;Node26 -->
<g id="edge25" class="edge">
<title>Node4&#45;&gt;Node26</title>
<path fill="none" stroke="midnightblue" d="M1060.72,-64.69C1172.88,-63.17 1405.18,-55.74 1609.92,-19.68"/>
<polygon fill="midnightblue" stroke="midnightblue" points="1610.73,-23.09 1619.96,-17.88 1609.5,-16.2 1610.73,-23.09"/>
</g>
<!-- Node27 -->
<g id="node27" class="node">
<title>Node27</title>
<g id="a_node27"><a xlink:title=" ">
<polygon fill="none" stroke="#bfbfbf" points="1681,-0.5 1681,-19.5 1716,-19.5 1716,-0.5 1681,-0.5"/>
<text text-anchor="middle" x="1698.5" y="-7.5" font-family="Helvetica,sans-Serif" font-size="10.00">map</text>
</a>
</g>
</g>
<!-- Node4&#45;&gt;Node27 -->
<g id="edge26" class="edge">
<title>Node4&#45;&gt;Node27</title>
<path fill="none" stroke="midnightblue" d="M1060.69,-62.83C1204.54,-57.81 1539.28,-44.13 1670.91,-19.76"/>
<polygon fill="midnightblue" stroke="midnightblue" points="1671.63,-23.19 1680.77,-17.84 1670.29,-16.32 1671.63,-23.19"/>
</g>
<!-- Node28&#45;&gt;Node3 -->
<g id="edge28" class="edge">
<title>Node28&#45;&gt;Node3</title>
<path fill="none" stroke="midnightblue" d="M948.09,-179.48C954.87,-171.87 965.09,-160.4 974.11,-150.26"/>
<polygon fill="midnightblue" stroke="midnightblue" points="976.97,-152.32 981.01,-142.52 971.74,-147.66 976.97,-152.32"/>
</g>
<!-- Node41&#45;&gt;Node2 -->
<g id="edge60" class="edge">
<title>Node41&#45;&gt;Node2</title>
<path fill="none" stroke="midnightblue" d="M1069.71,-524.34C1185.31,-513.6 1409.5,-483.78 1409.5,-414 1409.5,-414 1409.5,-414 1409.5,-356 1409.5,-318.33 1437.89,-282.04 1456.85,-262.01"/>
<polygon fill="midnightblue" stroke="midnightblue" points="1459.54,-264.27 1464.06,-254.69 1454.55,-259.36 1459.54,-264.27"/>
</g>
<!-- Node41&#45;&gt;Node3 -->
<g id="edge42" class="edge">
<title>Node41&#45;&gt;Node3</title>
<path fill="none" stroke="midnightblue" d="M935.48,-527.76C800.26,-522.43 507.5,-500.87 507.5,-414 507.5,-414 507.5,-414 507.5,-244 507.5,-213.9 503.42,-198.32 526.5,-179 555.81,-154.46 792.65,-138.78 917.34,-132.14"/>
<polygon fill="midnightblue" stroke="midnightblue" points="917.78,-135.63 927.58,-131.6 917.41,-128.63 917.78,-135.63"/>
</g>
<!-- Node41&#45;&gt;Node28 -->
<g id="edge59" class="edge">
<title>Node41&#45;&gt;Node28</title>
<path fill="none" stroke="midnightblue" d="M988.29,-515.12C979.52,-505.56 968.62,-492.35 961.5,-479 947.27,-452.33 941.5,-444.23 941.5,-414 941.5,-414 941.5,-414 941.5,-300 941.5,-267.95 941.07,-230.64 940.77,-208.75"/>
<polygon fill="midnightblue" stroke="midnightblue" points="944.27,-208.51 940.63,-198.56 937.27,-208.61 944.27,-208.51"/>
</g>
<!-- Node42 -->
<g id="node42" class="node">
<title>Node42</title>
<g id="a_node42"><a xlink:href="$d4/d9b/a00680.html" xlink:title=" ">
<polygon fill="none" stroke="black" points="751.5,-235.5 751.5,-254.5 913.5,-254.5 913.5,-235.5 751.5,-235.5"/>
<text text-anchor="middle" x="832.5" y="-242.5" font-family="Helvetica,sans-Serif" font-size="10.00">discordcoreapi/AudioDecoder.hpp</text>
</a>
</g>
</g>
<!-- Node41&#45;&gt;Node42 -->
<g id="edge43" class="edge">
<title>Node41&#45;&gt;Node42</title>
<path fill="none" stroke="midnightblue" d="M963.45,-515.39C923.58,-498.16 867.5,-464.89 867.5,-414 867.5,-414 867.5,-414 867.5,-356 867.5,-322.07 852.19,-284.91 841.82,-263.63"/>
<polygon fill="midnightblue" stroke="midnightblue" points="844.86,-261.88 837.22,-254.54 838.62,-265.05 844.86,-261.88"/>
</g>
<!-- Node45 -->
<g id="node45" class="node">
<title>Node45</title>
<g id="a_node45"><a xlink:href="$d0/db6/a00692.html" xlink:title=" ">
<polygon fill="none" stroke="black" points="970,-459.5 970,-478.5 1157,-478.5 1157,-459.5 970,-459.5"/>
<text text-anchor="middle" x="1063.5" y="-466.5" font-family="Helvetica,sans-Serif" font-size="10.00">discordcoreapi/CommandController.hpp</text>
</a>
</g>
</g>
<!-- Node41&#45;&gt;Node45 -->
<g id="edge48" class="edge">
<title>Node41&#45;&gt;Node45</title>
<path fill="none" stroke="midnightblue" d="M1016.96,-515.4C1026.09,-506.49 1037.92,-494.95 1047.36,-485.74"/>
<polygon fill="midnightblue" stroke="midnightblue" points="1049.91,-488.15 1054.62,-478.66 1045.02,-483.13 1049.91,-488.15"/>
</g>
<!-- Node47 -->
<g id="node47" class="node">
<title>Node47</title>
<g id="a_node47"><a xlink:href="$d3/d4f/a00761.html" xlink:title=" ">
<polygon fill="none" stroke="black" points="1116.5,-347.5 1116.5,-366.5 1266.5,-366.5 1266.5,-347.5 1116.5,-347.5"/>
<text text-anchor="middle" x="1191.5" y="-354.5" font-family="Helvetica,sans-Serif" font-size="10.00">discordcoreapi/ThreadPool.hpp</text>
</a>
</g>
</g>
<!-- Node41&#45;&gt;Node47 -->
<g id="edge61" class="edge">
<title>Node41&#45;&gt;Node47</title>
<path fill="none" stroke="midnightblue" d="M1069.56,-521.32C1126.34,-510.19 1202.79,-484.07 1230.5,-423 1238.5,-405.37 1224.42,-386.53 1211,-373.7"/>
<polygon fill="midnightblue" stroke="midnightblue" points="1213.15,-370.93 1203.35,-366.9 1208.5,-376.16 1213.15,-370.93"/>
</g>
<!-- Node50 -->
<g id="node50" class="node">
<title>Node50</title>
<g id="a_node50"><a xlink:href="$dd/d57/a00701.html" xlink:title=" ">
<polygon fill="none" stroke="black" points="335.5,-403.5 335.5,-422.5 479.5,-422.5 479.5,-403.5 335.5,-403.5"/>
<text text-anchor="middle" x="407.5" y="-410.5" font-family="Helvetica,sans-Serif" font-size="10.00">discordcoreapi/ErlPacker.hpp</text>
</a>
</g>
</g>
<!-- Node41&#45;&gt;Node50 -->
<g id="edge57" class="edge">
<title>Node41&#45;&gt;Node50</title>
<path fill="none" stroke="midnightblue" d="M935.06,-527.33C815.66,-522.74 572.27,-509.83 493.5,-479 465.6,-468.08 438.96,-445.4 422.92,-429.94"/>
<polygon fill="midnightblue" stroke="midnightblue" points="425.11,-427.17 415.54,-422.61 420.17,-432.14 425.11,-427.17"/>
</g>
<!-- Node42&#45;&gt;Node3 -->
<g id="edge45" class="edge">
<title>Node42&#45;&gt;Node3</title>
<path fill="none" stroke="midnightblue" d="M832.79,-235.19C833.73,-221.41 837.49,-194.71 852.5,-179 869.95,-160.74 894.45,-149.07 918.14,-141.61"/>
<polygon fill="midnightblue" stroke="midnightblue" points="919.26,-144.93 927.87,-138.77 917.29,-138.22 919.26,-144.93"/>
</g>
<!-- Node42&#45;&gt;Node28 -->
<g id="edge44" class="edge">
<title>Node42&#45;&gt;Node28</title>
<path fill="none" stroke="midnightblue" d="M849.85,-235.32C867.17,-226.66 894.02,-213.24 914,-203.25"/>
<polygon fill="midnightblue" stroke="midnightblue" points="915.81,-206.26 923.19,-198.65 912.68,-200 915.81,-206.26"/>
</g>
<!-- Node43 -->
<g id="node43" class="node">
<title>Node43</title>
<g id="a_node43"><a xlink:title=" ">
<polygon fill="none" stroke="#bfbfbf" points="535.5,-179.5 535.5,-198.5 645.5,-198.5 645.5,-179.5 535.5,-179.5"/>
<text text-anchor="middle" x="590.5" y="-186.5" font-family="Helvetica,sans-Serif" font-size="10.00">libavformat/avformat.h</text>
</a>
</g>
</g>
<!-- Node42&#45;&gt;Node43 -->
<g id="edge46" class="edge">
<title>Node42&#45;&gt;Node43</title>
<path fill="none" stroke="midnightblue" d="M794.15,-235.44C752.03,-226.04 684.29,-210.93 638.63,-200.74"/>
<polygon fill="midnightblue" stroke="midnightblue" points="639.19,-197.28 628.67,-198.52 637.66,-204.11 639.19,-197.28"/>
</g>
<!-- Node44 -->
<g id="node44" class="node">
<title>Node44</title>
<g id="a_node44"><a xlink:title=" ">
<polygon fill="none" stroke="#bfbfbf" points="664,-179.5 664,-198.5 805,-198.5 805,-179.5 664,-179.5"/>
<text text-anchor="middle" x="734.5" y="-186.5" font-family="Helvetica,sans-Serif" font-size="10.00">libswresample/swresample.h</text>
</a>
</g>
</g>
<!-- Node42&#45;&gt;Node44 -->
<g id="edge47" class="edge">
<title>Node42&#45;&gt;Node44</title>
<path fill="none" stroke="midnightblue" d="M816.75,-235.32C801.18,-226.74 777.12,-213.49 759.04,-203.52"/>
<polygon fill="midnightblue" stroke="midnightblue" points="760.65,-200.42 750.21,-198.65 757.28,-206.55 760.65,-200.42"/>
</g>
<!-- Node45&#45;&gt;Node3 -->
<g id="edge49" class="edge">
<title>Node45&#45;&gt;Node3</title>
<path fill="none" stroke="midnightblue" d="M1061.34,-459.22C1056.97,-440.66 1047.5,-396.02 1047.5,-358 1047.5,-358 1047.5,-358 1047.5,-244 1047.5,-209.02 1026.92,-173.22 1011.17,-150.93"/>
<polygon fill="midnightblue" stroke="midnightblue" points="1013.95,-148.8 1005.22,-142.81 1008.31,-152.94 1013.95,-148.8"/>
</g>
<!-- Node46 -->
<g id="node46" class="node">
<title>Node46</title>
<g id="a_node46"><a xlink:href="$d5/d5b/a00695.html" xlink:title=" ">
<polygon fill="none" stroke="black" points="1075.5,-403.5 1075.5,-422.5 1221.5,-422.5 1221.5,-403.5 1075.5,-403.5"/>
<text text-anchor="middle" x="1148.5" y="-410.5" font-family="Helvetica,sans-Serif" font-size="10.00">discordcoreapi/CoRoutine.hpp</text>
</a>
</g>
</g>
<!-- Node45&#45;&gt;Node46 -->
<g id="edge50" class="edge">
<title>Node45&#45;&gt;Node46</title>
<path fill="none" stroke="midnightblue" d="M1077.16,-459.32C1090.42,-450.9 1110.77,-437.97 1126.35,-428.07"/>
<polygon fill="midnightblue" stroke="midnightblue" points="1128.31,-430.97 1134.88,-422.65 1124.56,-425.06 1128.31,-430.97"/>
</g>
<!-- Node46&#45;&gt;Node3 -->
<g id="edge51" class="edge">
<title>Node46&#45;&gt;Node3</title>
<path fill="none" stroke="midnightblue" d="M1138.45,-403.27C1129.27,-394.81 1115.87,-381.2 1107.5,-367 1092.01,-340.73 1085.5,-332.5 1085.5,-302 1085.5,-302 1085.5,-302 1085.5,-244 1085.5,-213.2 1079.96,-203.65 1061.5,-179 1052.49,-166.97 1039.84,-156.5 1027.89,-148.26"/>
<polygon fill="midnightblue" stroke="midnightblue" points="1029.65,-145.23 1019.37,-142.66 1025.8,-151.08 1029.65,-145.23"/>
</g>
<!-- Node46&#45;&gt;Node47 -->
<g id="edge52" class="edge">
<title>Node46&#45;&gt;Node47</title>
<path fill="none" stroke="midnightblue" d="M1155.6,-403.08C1161.74,-395.38 1170.77,-384.03 1178.24,-374.65"/>
<polygon fill="midnightblue" stroke="midnightblue" points="1181.04,-376.75 1184.53,-366.75 1175.56,-372.39 1181.04,-376.75"/>
</g>
<!-- Node47&#45;&gt;Node3 -->
<g id="edge53" class="edge">
<title>Node47&#45;&gt;Node3</title>
<path fill="none" stroke="midnightblue" d="M1183.01,-347.29C1174.9,-338.63 1162.74,-324.69 1154.5,-311 1121.74,-256.54 1143.31,-225.05 1099.5,-179 1086.1,-164.92 1067.98,-154.32 1050.51,-146.57"/>
<polygon fill="midnightblue" stroke="midnightblue" points="1051.49,-143.18 1040.91,-142.55 1048.78,-149.64 1051.49,-143.18"/>
</g>
<!-- Node48 -->
<g id="node48" class="node">
<title>Node48</title>
<g id="a_node48"><a xlink:href="$db/d7c/a00722.html" xlink:title=" ">
<polygon fill="none" stroke="black" points="1250,-291.5 1250,-310.5 1375,-310.5 1375,-291.5 1250,-291.5"/>
<text text-anchor="middle" x="1312.5" y="-298.5" font-family="Helvetica,sans-Serif" font-size="10.00">discordcoreapi/Https.hpp</text>
</a>
</g>
</g>
<!-- Node47&#45;&gt;Node48 -->
<g id="edge54" class="edge">
<title>Node47&#45;&gt;Node48</title>
<path fill="none" stroke="midnightblue" d="M1210.67,-347.44C1230.41,-338.64 1261.39,-324.81 1283.99,-314.72"/>
<polygon fill="midnightblue" stroke="midnightblue" points="1285.71,-317.79 1293.42,-310.52 1282.86,-311.4 1285.71,-317.79"/>
</g>
<!-- Node49 -->
<g id="node49" class="node">
<title>Node49</title>
<g id="a_node49"><a xlink:title=" ">
<polygon fill="none" stroke="#bfbfbf" points="1163.5,-291.5 1163.5,-310.5 1219.5,-310.5 1219.5,-291.5 1163.5,-291.5"/>
<text text-anchor="middle" x="1191.5" y="-298.5" font-family="Helvetica,sans-Serif" font-size="10.00">coroutine</text>
</a>
</g>
</g>
<!-- Node47&#45;&gt;Node49 -->
<g id="edge56" class="edge">
<title>Node47&#45;&gt;Node49</title>
<path fill="none" stroke="midnightblue" d="M1191.5,-347.08C1191.5,-340.01 1191.5,-329.86 1191.5,-320.99"/>
<polygon fill="midnightblue" stroke="midnightblue" points="1195,-320.75 1191.5,-310.75 1188,-320.75 1195,-320.75"/>
</g>
<!-- Node48&#45;&gt;Node2 -->
<g id="edge55" class="edge">
<title>Node48&#45;&gt;Node2</title>
<path fill="none" stroke="midnightblue" d="M1338.01,-291.44C1365.1,-282.36 1408.09,-267.94 1438.37,-257.78"/>
<polygon fill="midnightblue" stroke="midnightblue" points="1439.74,-261.01 1448.11,-254.52 1437.51,-254.38 1439.74,-261.01"/>
</g>
<!-- Node50&#45;&gt;Node3 -->
<g id="edge58" class="edge">
<title>Node50&#45;&gt;Node3</title>
<path fill="none" stroke="midnightblue" d="M411.68,-403.39C420.14,-385.16 438.5,-341.09 438.5,-302 438.5,-302 438.5,-302 438.5,-244 438.5,-206.16 460.01,-196.63 493.5,-179 565.23,-141.23 796.3,-131.69 917.57,-129.29"/>
<polygon fill="midnightblue" stroke="midnightblue" points="917.96,-132.78 927.89,-129.1 917.83,-125.79 917.96,-132.78"/>
</g>
</g>
</svg>
