<?xml version="1.0" encoding="UTF-8" standalone="no"?>
<!DOCTYPE svg PUBLIC "-//W3C//DTD SVG 1.1//EN"
 "http://www.w3.org/Graphics/SVG/1.1/DTD/svg11.dtd">
<!-- Generated by graphviz version 2.43.0 (0)
 -->
<!-- Title: ReactionEntities.cpp Pages: 1 -->
<svg width="2004pt" height="709pt"
 viewBox="0.00 0.00 2004.00 709.00" xmlns="http://www.w3.org/2000/svg" xmlns:xlink="http://www.w3.org/1999/xlink">
<g id="graph0" class="graph" transform="scale(1 1) rotate(0) translate(4 705)">
<title>ReactionEntities.cpp</title>
<!-- Node1 -->
<g id="node1" class="node">
<title>Node1</title>
<g id="a_node1"><a xlink:title=" ">
<polygon fill="#bfbfbf" stroke="black" points="1475.5,-701 1359.5,-701 1359.5,-682 1475.5,-682 1475.5,-701"/>
<text text-anchor="middle" x="1417.5" y="-689" font-family="Helvetica,sans-Serif" font-size="10.00">ReactionEntities.cpp</text>
</a>
</g>
</g>
<!-- Node2 -->
<g id="node2" class="node">
<title>Node2</title>
<g id="a_node2"><a xlink:href="../../d3/d4f/a00761.html" target="_top" xlink:title=" ">
<polygon fill="none" stroke="black" points="1772,-646 1581,-646 1581,-627 1772,-627 1772,-646"/>
<text text-anchor="middle" x="1676.5" y="-634" font-family="Helvetica,sans-Serif" font-size="10.00">discordcoreapi/ReactionEntities.hpp</text>
</a>
</g>
</g>
<!-- Node1&#45;&gt;Node2 -->
<g id="edge1" class="edge">
<title>Node1&#45;&gt;Node2</title>
<path fill="none" stroke="midnightblue" d="M1459.11,-681.98C1504.1,-672.78 1575.89,-658.09 1624.55,-648.13"/>
<polygon fill="midnightblue" stroke="midnightblue" points="1625.47,-651.52 1634.56,-646.08 1624.06,-644.66 1625.47,-651.52"/>
</g>
<!-- Node18 -->
<g id="node18" class="node">
<title>Node18</title>
<g id="a_node18"><a xlink:title=" ">
<polygon fill="none" stroke="#bfbfbf" points="1996,-19 1941,-19 1941,0 1996,0 1996,-19"/>
<text text-anchor="middle" x="1968.5" y="-7" font-family="Helvetica,sans-Serif" font-size="10.00">fstream</text>
</a>
</g>
</g>
<!-- Node1&#45;&gt;Node18 -->
<g id="edge67" class="edge">
<title>Node1&#45;&gt;Node18</title>
<path fill="none" stroke="midnightblue" d="M1475.58,-690.44C1610.26,-688.74 1932.5,-675 1932.5,-582.5 1932.5,-582.5 1932.5,-582.5 1932.5,-124 1932.5,-88.66 1948.55,-49.92 1959.22,-28.06"/>
<polygon fill="midnightblue" stroke="midnightblue" points="1962.39,-29.54 1963.79,-19.04 1956.15,-26.37 1962.39,-29.54"/>
</g>
<!-- Node35 -->
<g id="node35" class="node">
<title>Node35</title>
<g id="a_node35"><a xlink:href="../../d4/d9b/a00680.html" target="_top" xlink:title=" ">
<polygon fill="none" stroke="black" points="1329.5,-415 1167.5,-415 1167.5,-396 1329.5,-396 1329.5,-415"/>
<text text-anchor="middle" x="1248.5" y="-403" font-family="Helvetica,sans-Serif" font-size="10.00">discordcoreapi/CoRoutine.hpp</text>
</a>
</g>
</g>
<!-- Node1&#45;&gt;Node35 -->
<g id="edge65" class="edge">
<title>Node1&#45;&gt;Node35</title>
<path fill="none" stroke="midnightblue" d="M1359.17,-682.73C1267.87,-668.91 1101.5,-636.35 1101.5,-582.5 1101.5,-582.5 1101.5,-582.5 1101.5,-520 1101.5,-465.89 1164.66,-433.95 1208.18,-418.37"/>
<polygon fill="midnightblue" stroke="midnightblue" points="1209.36,-421.66 1217.68,-415.11 1207.09,-415.04 1209.36,-421.66"/>
</g>
<!-- Node37 -->
<g id="node37" class="node">
<title>Node37</title>
<g id="a_node37"><a xlink:href="../../d4/d6a/a00704.html" target="_top" xlink:title=" ">
<polygon fill="none" stroke="black" points="1111.5,-305 973.5,-305 973.5,-286 1111.5,-286 1111.5,-305"/>
<text text-anchor="middle" x="1042.5" y="-293" font-family="Helvetica,sans-Serif" font-size="10.00">discordcoreapi/Https.hpp</text>
</a>
</g>
</g>
<!-- Node1&#45;&gt;Node37 -->
<g id="edge66" class="edge">
<title>Node1&#45;&gt;Node37</title>
<path fill="none" stroke="midnightblue" d="M1359.49,-690.32C1225.82,-688.34 907.5,-674.02 907.5,-582.5 907.5,-582.5 907.5,-582.5 907.5,-404.5 907.5,-354.45 964.78,-323.78 1004.72,-308.48"/>
<polygon fill="midnightblue" stroke="midnightblue" points="1006.01,-311.73 1014.2,-305 1003.61,-305.16 1006.01,-311.73"/>
</g>
<!-- Node3 -->
<g id="node3" class="node">
<title>Node3</title>
<g id="a_node3"><a xlink:href="../../d3/d2c/a00764.html" target="_top" xlink:title=" ">
<polygon fill="none" stroke="black" points="1415,-140 1270,-140 1270,-110 1415,-110 1415,-140"/>
<text text-anchor="start" x="1278" y="-128" font-family="Helvetica,sans-Serif" font-size="10.00">discordcoreapi/Foundation</text>
<text text-anchor="middle" x="1342.5" y="-117" font-family="Helvetica,sans-Serif" font-size="10.00">Entities.hpp</text>
</a>
</g>
</g>
<!-- Node2&#45;&gt;Node3 -->
<g id="edge2" class="edge">
<title>Node2&#45;&gt;Node3</title>
<path fill="none" stroke="midnightblue" d="M1725.27,-626.89C1779.18,-614.24 1858.5,-584.93 1858.5,-522 1858.5,-522 1858.5,-522 1858.5,-239.5 1858.5,-201.28 1834.58,-193.3 1800.5,-176 1736.8,-143.67 1539.05,-132.11 1425.3,-128.08"/>
<polygon fill="midnightblue" stroke="midnightblue" points="1425.35,-124.58 1415.24,-127.74 1425.11,-131.58 1425.35,-124.58"/>
</g>
<!-- Node28 -->
<g id="node28" class="node">
<title>Node28</title>
<g id="a_node28"><a xlink:href="../../d5/de8/a00749.html" target="_top" xlink:title=" ">
<polygon fill="none" stroke="black" points="1762,-591 1591,-591 1591,-572 1762,-572 1762,-591"/>
<text text-anchor="middle" x="1676.5" y="-579" font-family="Helvetica,sans-Serif" font-size="10.00">discordcoreapi/UserEntities.hpp</text>
</a>
</g>
</g>
<!-- Node2&#45;&gt;Node28 -->
<g id="edge27" class="edge">
<title>Node2&#45;&gt;Node28</title>
<path fill="none" stroke="midnightblue" d="M1676.5,-626.75C1676.5,-619.8 1676.5,-609.85 1676.5,-601.13"/>
<polygon fill="midnightblue" stroke="midnightblue" points="1680,-601.09 1676.5,-591.09 1673,-601.09 1680,-601.09"/>
</g>
<!-- Node4 -->
<g id="node4" class="node">
<title>Node4</title>
<g id="a_node4"><a xlink:href="../../d8/db9/a00725.html" target="_top" xlink:title=" ">
<polygon fill="none" stroke="black" points="1311.5,-74 1161.5,-74 1161.5,-55 1311.5,-55 1311.5,-74"/>
<text text-anchor="middle" x="1236.5" y="-62" font-family="Helvetica,sans-Serif" font-size="10.00">discordcoreapi/Utilities.hpp</text>
</a>
</g>
</g>
<!-- Node3&#45;&gt;Node4 -->
<g id="edge3" class="edge">
<title>Node3&#45;&gt;Node4</title>
<path fill="none" stroke="midnightblue" d="M1317.11,-109.99C1300.21,-100.66 1278.12,-88.47 1261.34,-79.21"/>
<polygon fill="midnightblue" stroke="midnightblue" points="1262.6,-75.91 1252.15,-74.14 1259.22,-82.04 1262.6,-75.91"/>
</g>
<!-- Node5 -->
<g id="node5" class="node">
<title>Node5</title>
<g id="a_node5"><a xlink:title=" ">
<polygon fill="none" stroke="#bfbfbf" points="1836,-19 1773,-19 1773,0 1836,0 1836,-19"/>
<text text-anchor="middle" x="1804.5" y="-7" font-family="Helvetica,sans-Serif" font-size="10.00">pthread.h</text>
</a>
</g>
</g>
<!-- Node4&#45;&gt;Node5 -->
<g id="edge4" class="edge">
<title>Node4&#45;&gt;Node5</title>
<path fill="none" stroke="midnightblue" d="M1311.88,-59.99C1412.46,-54.67 1596.22,-42.72 1762.85,-18.91"/>
<polygon fill="midnightblue" stroke="midnightblue" points="1763.39,-22.36 1772.78,-17.47 1762.38,-15.44 1763.39,-22.36"/>
</g>
<!-- Node6 -->
<g id="node6" class="node">
<title>Node6</title>
<g id="a_node6"><a xlink:title=" ">
<polygon fill="none" stroke="#bfbfbf" points="1922.5,-19 1854.5,-19 1854.5,0 1922.5,0 1922.5,-19"/>
<text text-anchor="middle" x="1888.5" y="-7" font-family="Helvetica,sans-Serif" font-size="10.00">sys/time.h</text>
</a>
</g>
</g>
<!-- Node4&#45;&gt;Node6 -->
<g id="edge5" class="edge">
<title>Node4&#45;&gt;Node6</title>
<path fill="none" stroke="midnightblue" d="M1311.81,-60.96C1425.23,-56.48 1646.78,-45.17 1844.31,-18.99"/>
<polygon fill="midnightblue" stroke="midnightblue" points="1844.85,-22.45 1854.3,-17.65 1843.92,-15.51 1844.85,-22.45"/>
</g>
<!-- Node7 -->
<g id="node7" class="node">
<title>Node7</title>
<g id="a_node7"><a xlink:title=" ">
<polygon fill="none" stroke="#bfbfbf" points="190.5,-19 142.5,-19 142.5,0 190.5,0 190.5,-19"/>
<text text-anchor="middle" x="166.5" y="-7" font-family="Helvetica,sans-Serif" font-size="10.00">time.h</text>
</a>
</g>
</g>
<!-- Node4&#45;&gt;Node7 -->
<g id="edge6" class="edge">
<title>Node4&#45;&gt;Node7</title>
<path fill="none" stroke="midnightblue" d="M1161.47,-62.32C959.07,-58.81 404.05,-46.99 200.53,-18.75"/>
<polygon fill="midnightblue" stroke="midnightblue" points="200.93,-15.27 190.53,-17.31 199.93,-22.2 200.93,-15.27"/>
</g>
<!-- Node8 -->
<g id="node8" class="node">
<title>Node8</title>
<g id="a_node8"><a xlink:title=" ">
<polygon fill="none" stroke="#bfbfbf" points="252.5,-19 208.5,-19 208.5,0 252.5,0 252.5,-19"/>
<text text-anchor="middle" x="230.5" y="-7" font-family="Helvetica,sans-Serif" font-size="10.00">ctime</text>
</a>
</g>
</g>
<!-- Node4&#45;&gt;Node8 -->
<g id="edge7" class="edge">
<title>Node4&#45;&gt;Node8</title>
<path fill="none" stroke="midnightblue" d="M1161.34,-62.23C967.48,-58.6 453.03,-46.75 262.63,-18.75"/>
<polygon fill="midnightblue" stroke="midnightblue" points="263.14,-15.28 252.72,-17.23 262.08,-22.2 263.14,-15.28"/>
</g>
<!-- Node9 -->
<g id="node9" class="node">
<title>Node9</title>
<g id="a_node9"><a xlink:title=" ">
<polygon fill="none" stroke="#bfbfbf" points="378,-19 271,-19 271,0 378,0 378,-19"/>
<text text-anchor="middle" x="324.5" y="-7" font-family="Helvetica,sans-Serif" font-size="10.00">condition_variable</text>
</a>
</g>
</g>
<!-- Node4&#45;&gt;Node9 -->
<g id="edge8" class="edge">
<title>Node4&#45;&gt;Node9</title>
<path fill="none" stroke="midnightblue" d="M1161.39,-61.62C1014.89,-57.52 680.55,-45.94 388.45,-19"/>
<polygon fill="midnightblue" stroke="midnightblue" points="388.36,-15.47 378.08,-18.03 387.72,-22.44 388.36,-15.47"/>
</g>
<!-- Node10 -->
<g id="node10" class="node">
<title>Node10</title>
<g id="a_node10"><a xlink:title=" ">
<polygon fill="none" stroke="#bfbfbf" points="506.5,-19 396.5,-19 396.5,0 506.5,0 506.5,-19"/>
<text text-anchor="middle" x="451.5" y="-7" font-family="Helvetica,sans-Serif" font-size="10.00">nlohmann/json.hpp</text>
</a>
</g>
</g>
<!-- Node4&#45;&gt;Node10 -->
<g id="edge9" class="edge">
<title>Node4&#45;&gt;Node10</title>
<path fill="none" stroke="midnightblue" d="M1161.37,-60.61C1031.92,-55.24 758.25,-42.21 516.66,-19.04"/>
<polygon fill="midnightblue" stroke="midnightblue" points="516.92,-15.55 506.63,-18.07 516.25,-22.52 516.92,-15.55"/>
</g>
<!-- Node11 -->
<g id="node11" class="node">
<title>Node11</title>
<g id="a_node11"><a xlink:title=" ">
<polygon fill="none" stroke="#bfbfbf" points="618,-19 525,-19 525,0 618,0 618,-19"/>
<text text-anchor="middle" x="571.5" y="-7" font-family="Helvetica,sans-Serif" font-size="10.00">source_location</text>
</a>
</g>
</g>
<!-- Node4&#45;&gt;Node11 -->
<g id="edge10" class="edge">
<title>Node4&#45;&gt;Node11</title>
<path fill="none" stroke="midnightblue" d="M1161.19,-59.96C1047.74,-54.2 826.04,-41.25 628.27,-19.12"/>
<polygon fill="midnightblue" stroke="midnightblue" points="628.6,-15.63 618.27,-17.99 627.82,-22.59 628.6,-15.63"/>
</g>
<!-- Node12 -->
<g id="node12" class="node">
<title>Node12</title>
<g id="a_node12"><a xlink:title=" ">
<polygon fill="none" stroke="#bfbfbf" points="729,-19 636,-19 636,0 729,0 729,-19"/>
<text text-anchor="middle" x="682.5" y="-7" font-family="Helvetica,sans-Serif" font-size="10.00">unordered_map</text>
</a>
</g>
</g>
<!-- Node4&#45;&gt;Node12 -->
<g id="edge11" class="edge">
<title>Node4&#45;&gt;Node12</title>
<path fill="none" stroke="midnightblue" d="M1161.26,-58.23C1065.71,-51.2 895.53,-37.61 739.48,-19.04"/>
<polygon fill="midnightblue" stroke="midnightblue" points="739.57,-15.53 729.22,-17.81 738.73,-22.48 739.57,-15.53"/>
</g>
<!-- Node13 -->
<g id="node13" class="node">
<title>Node13</title>
<g id="a_node13"><a xlink:title=" ">
<polygon fill="none" stroke="#bfbfbf" points="833.5,-19 747.5,-19 747.5,0 833.5,0 833.5,-19"/>
<text text-anchor="middle" x="790.5" y="-7" font-family="Helvetica,sans-Serif" font-size="10.00">shared_mutex</text>
</a>
</g>
</g>
<!-- Node4&#45;&gt;Node13 -->
<g id="edge12" class="edge">
<title>Node4&#45;&gt;Node13</title>
<path fill="none" stroke="midnightblue" d="M1161.4,-56.04C1082.21,-47.93 953.88,-34.09 843.5,-19 843.4,-18.99 843.3,-18.97 843.2,-18.96"/>
<polygon fill="midnightblue" stroke="midnightblue" points="843.97,-15.53 833.57,-17.58 842.98,-22.46 843.97,-15.53"/>
</g>
<!-- Node14 -->
<g id="node14" class="node">
<title>Node14</title>
<g id="a_node14"><a xlink:title=" ">
<polygon fill="none" stroke="#bfbfbf" points="917,-19 852,-19 852,0 917,0 917,-19"/>
<text text-anchor="middle" x="884.5" y="-7" font-family="Helvetica,sans-Serif" font-size="10.00">functional</text>
</a>
</g>
</g>
<!-- Node4&#45;&gt;Node14 -->
<g id="edge13" class="edge">
<title>Node4&#45;&gt;Node14</title>
<path fill="none" stroke="midnightblue" d="M1169.2,-54.97C1108.56,-47.02 1016.74,-34.35 927.1,-19.01"/>
<polygon fill="midnightblue" stroke="midnightblue" points="927.47,-15.52 917.02,-17.27 926.28,-22.42 927.47,-15.52"/>
</g>
<!-- Node15 -->
<g id="node15" class="node">
<title>Node15</title>
<g id="a_node15"><a xlink:title=" ">
<polygon fill="none" stroke="#bfbfbf" points="1006,-19 935,-19 935,0 1006,0 1006,-19"/>
<text text-anchor="middle" x="970.5" y="-7" font-family="Helvetica,sans-Serif" font-size="10.00">semaphore</text>
</a>
</g>
</g>
<!-- Node4&#45;&gt;Node15 -->
<g id="edge14" class="edge">
<title>Node4&#45;&gt;Node15</title>
<path fill="none" stroke="midnightblue" d="M1193.76,-54.98C1145.13,-45.29 1065.99,-29.53 1016.17,-19.6"/>
<polygon fill="midnightblue" stroke="midnightblue" points="1016.8,-16.16 1006.31,-17.63 1015.43,-23.02 1016.8,-16.16"/>
</g>
<!-- Node16 -->
<g id="node16" class="node">
<title>Node16</title>
<g id="a_node16"><a xlink:title=" ">
<polygon fill="none" stroke="#bfbfbf" points="1084.5,-19 1024.5,-19 1024.5,0 1084.5,0 1084.5,-19"/>
<text text-anchor="middle" x="1054.5" y="-7" font-family="Helvetica,sans-Serif" font-size="10.00">concepts</text>
</a>
</g>
</g>
<!-- Node4&#45;&gt;Node16 -->
<g id="edge15" class="edge">
<title>Node4&#45;&gt;Node16</title>
<path fill="none" stroke="midnightblue" d="M1207.26,-54.98C1176.44,-46.01 1127.72,-31.82 1093.61,-21.89"/>
<polygon fill="midnightblue" stroke="midnightblue" points="1094.55,-18.52 1083.97,-19.08 1092.59,-25.24 1094.55,-18.52"/>
</g>
<!-- Node17 -->
<g id="node17" class="node">
<title>Node17</title>
<g id="a_node17"><a xlink:title=" ">
<polygon fill="none" stroke="#bfbfbf" points="1162.5,-19 1102.5,-19 1102.5,0 1162.5,0 1162.5,-19"/>
<text text-anchor="middle" x="1132.5" y="-7" font-family="Helvetica,sans-Serif" font-size="10.00">iostream</text>
</a>
</g>
</g>
<!-- Node4&#45;&gt;Node17 -->
<g id="edge16" class="edge">
<title>Node4&#45;&gt;Node17</title>
<path fill="none" stroke="midnightblue" d="M1219.79,-54.98C1203.29,-46.57 1177.8,-33.59 1158.62,-23.81"/>
<polygon fill="midnightblue" stroke="midnightblue" points="1160.01,-20.59 1149.51,-19.17 1156.83,-26.83 1160.01,-20.59"/>
</g>
<!-- Node4&#45;&gt;Node18 -->
<g id="edge17" class="edge">
<title>Node4&#45;&gt;Node18</title>
<path fill="none" stroke="midnightblue" d="M1311.74,-62.66C1437.89,-60.38 1700.06,-51.91 1930.79,-18.83"/>
<polygon fill="midnightblue" stroke="midnightblue" points="1931.32,-22.29 1940.71,-17.39 1930.31,-15.36 1931.32,-22.29"/>
</g>
<!-- Node19 -->
<g id="node19" class="node">
<title>Node19</title>
<g id="a_node19"><a xlink:title=" ">
<polygon fill="none" stroke="#bfbfbf" points="1224.5,-19 1180.5,-19 1180.5,0 1224.5,0 1224.5,-19"/>
<text text-anchor="middle" x="1202.5" y="-7" font-family="Helvetica,sans-Serif" font-size="10.00">bitset</text>
</a>
</g>
</g>
<!-- Node4&#45;&gt;Node19 -->
<g id="edge18" class="edge">
<title>Node4&#45;&gt;Node19</title>
<path fill="none" stroke="midnightblue" d="M1230.89,-54.75C1226.18,-47.42 1219.33,-36.73 1213.53,-27.7"/>
<polygon fill="midnightblue" stroke="midnightblue" points="1216.36,-25.62 1208.01,-19.09 1210.46,-29.4 1216.36,-25.62"/>
</g>
<!-- Node20 -->
<g id="node20" class="node">
<title>Node20</title>
<g id="a_node20"><a xlink:title=" ">
<polygon fill="none" stroke="#bfbfbf" points="1300.5,-19 1242.5,-19 1242.5,0 1300.5,0 1300.5,-19"/>
<text text-anchor="middle" x="1271.5" y="-7" font-family="Helvetica,sans-Serif" font-size="10.00">memory</text>
</a>
</g>
</g>
<!-- Node4&#45;&gt;Node20 -->
<g id="edge19" class="edge">
<title>Node4&#45;&gt;Node20</title>
<path fill="none" stroke="midnightblue" d="M1242.28,-54.75C1247.12,-47.42 1254.18,-36.73 1260.14,-27.7"/>
<polygon fill="midnightblue" stroke="midnightblue" points="1263.24,-29.36 1265.83,-19.09 1257.4,-25.5 1263.24,-29.36"/>
</g>
<!-- Node21 -->
<g id="node21" class="node">
<title>Node21</title>
<g id="a_node21"><a xlink:title=" ">
<polygon fill="none" stroke="#bfbfbf" points="1372.5,-19 1318.5,-19 1318.5,0 1372.5,0 1372.5,-19"/>
<text text-anchor="middle" x="1345.5" y="-7" font-family="Helvetica,sans-Serif" font-size="10.00">random</text>
</a>
</g>
</g>
<!-- Node4&#45;&gt;Node21 -->
<g id="edge20" class="edge">
<title>Node4&#45;&gt;Node21</title>
<path fill="none" stroke="midnightblue" d="M1254.01,-54.98C1271.47,-46.5 1298.51,-33.35 1318.67,-23.54"/>
<polygon fill="midnightblue" stroke="midnightblue" points="1320.21,-26.69 1327.67,-19.17 1317.14,-20.4 1320.21,-26.69"/>
</g>
<!-- Node22 -->
<g id="node22" class="node">
<title>Node22</title>
<g id="a_node22"><a xlink:title=" ">
<polygon fill="none" stroke="#bfbfbf" points="1434.5,-19 1390.5,-19 1390.5,0 1434.5,0 1434.5,-19"/>
<text text-anchor="middle" x="1412.5" y="-7" font-family="Helvetica,sans-Serif" font-size="10.00">string</text>
</a>
</g>
</g>
<!-- Node4&#45;&gt;Node22 -->
<g id="edge21" class="edge">
<title>Node4&#45;&gt;Node22</title>
<path fill="none" stroke="midnightblue" d="M1264.78,-54.98C1296.48,-45.44 1347.76,-30 1380.8,-20.05"/>
<polygon fill="midnightblue" stroke="midnightblue" points="1381.86,-23.38 1390.42,-17.15 1379.84,-16.68 1381.86,-23.38"/>
</g>
<!-- Node23 -->
<g id="node23" class="node">
<title>Node23</title>
<g id="a_node23"><a xlink:title=" ">
<polygon fill="none" stroke="#bfbfbf" points="1500,-19 1453,-19 1453,0 1500,0 1500,-19"/>
<text text-anchor="middle" x="1476.5" y="-7" font-family="Helvetica,sans-Serif" font-size="10.00">vector</text>
</a>
</g>
</g>
<!-- Node4&#45;&gt;Node23 -->
<g id="edge22" class="edge">
<title>Node4&#45;&gt;Node23</title>
<path fill="none" stroke="midnightblue" d="M1278.64,-54.96C1318.41,-46.78 1379.97,-33.83 1442.67,-19.12"/>
<polygon fill="midnightblue" stroke="midnightblue" points="1443.81,-22.45 1452.74,-16.74 1442.2,-15.63 1443.81,-22.45"/>
</g>
<!-- Node24 -->
<g id="node24" class="node">
<title>Node24</title>
<g id="a_node24"><a xlink:title=" ">
<polygon fill="none" stroke="#bfbfbf" points="1566.5,-19 1518.5,-19 1518.5,0 1566.5,0 1566.5,-19"/>
<text text-anchor="middle" x="1542.5" y="-7" font-family="Helvetica,sans-Serif" font-size="10.00">thread</text>
</a>
</g>
</g>
<!-- Node4&#45;&gt;Node24 -->
<g id="edge23" class="edge">
<title>Node4&#45;&gt;Node24</title>
<path fill="none" stroke="midnightblue" d="M1298.87,-54.97C1352.12,-47.32 1430.92,-35.12 1508.47,-19.06"/>
<polygon fill="midnightblue" stroke="midnightblue" points="1509.34,-22.45 1518.41,-16.97 1507.9,-15.6 1509.34,-22.45"/>
</g>
<!-- Node25 -->
<g id="node25" class="node">
<title>Node25</title>
<g id="a_node25"><a xlink:title=" ">
<polygon fill="none" stroke="#bfbfbf" points="1632.5,-19 1584.5,-19 1584.5,0 1632.5,0 1632.5,-19"/>
<text text-anchor="middle" x="1608.5" y="-7" font-family="Helvetica,sans-Serif" font-size="10.00">mutex</text>
</a>
</g>
</g>
<!-- Node4&#45;&gt;Node25 -->
<g id="edge24" class="edge">
<title>Node4&#45;&gt;Node25</title>
<path fill="none" stroke="midnightblue" d="M1311.65,-56.28C1378.34,-49.28 1478.54,-37.27 1574.55,-18.97"/>
<polygon fill="midnightblue" stroke="midnightblue" points="1575.27,-22.39 1584.43,-17.06 1573.94,-15.52 1575.27,-22.39"/>
</g>
<!-- Node26 -->
<g id="node26" class="node">
<title>Node26</title>
<g id="a_node26"><a xlink:title=" ">
<polygon fill="none" stroke="#bfbfbf" points="1698,-19 1651,-19 1651,0 1698,0 1698,-19"/>
<text text-anchor="middle" x="1674.5" y="-7" font-family="Helvetica,sans-Serif" font-size="10.00">queue</text>
</a>
</g>
</g>
<!-- Node4&#45;&gt;Node26 -->
<g id="edge25" class="edge">
<title>Node4&#45;&gt;Node26</title>
<path fill="none" stroke="midnightblue" d="M1311.61,-58.47C1391.03,-52.42 1520.09,-40.53 1640.65,-18.89"/>
<polygon fill="midnightblue" stroke="midnightblue" points="1641.59,-22.27 1650.8,-17.04 1640.33,-15.39 1641.59,-22.27"/>
</g>
<!-- Node27 -->
<g id="node27" class="node">
<title>Node27</title>
<g id="a_node27"><a xlink:title=" ">
<polygon fill="none" stroke="#bfbfbf" points="1754.5,-19 1716.5,-19 1716.5,0 1754.5,0 1754.5,-19"/>
<text text-anchor="middle" x="1735.5" y="-7" font-family="Helvetica,sans-Serif" font-size="10.00">map</text>
</a>
</g>
</g>
<!-- Node4&#45;&gt;Node27 -->
<g id="edge26" class="edge">
<title>Node4&#45;&gt;Node27</title>
<path fill="none" stroke="midnightblue" d="M1311.81,-61.03C1403.26,-57 1562.16,-46.66 1706.43,-18.81"/>
<polygon fill="midnightblue" stroke="midnightblue" points="1707.21,-22.23 1716.35,-16.87 1705.86,-15.36 1707.21,-22.23"/>
</g>
<!-- Node28&#45;&gt;Node3 -->
<g id="edge28" class="edge">
<title>Node28&#45;&gt;Node3</title>
<path fill="none" stroke="midnightblue" d="M1703.59,-571.96C1745.3,-556.93 1820.5,-521.5 1820.5,-461.5 1820.5,-461.5 1820.5,-461.5 1820.5,-239.5 1820.5,-204.12 1803.21,-193.57 1772.5,-176 1715.07,-143.15 1533.23,-131.83 1425.28,-127.97"/>
<polygon fill="midnightblue" stroke="midnightblue" points="1425.19,-124.47 1415.07,-127.62 1424.95,-131.46 1425.19,-124.47"/>
</g>
<!-- Node29 -->
<g id="node29" class="node">
<title>Node29</title>
<g id="a_node29"><a xlink:href="../../df/dbb/a00698.html" target="_top" xlink:title=" ">
<polygon fill="none" stroke="black" points="1595.5,-536 1451.5,-536 1451.5,-506 1595.5,-506 1595.5,-536"/>
<text text-anchor="start" x="1459.5" y="-524" font-family="Helvetica,sans-Serif" font-size="10.00">discordcoreapi/WebSocket</text>
<text text-anchor="middle" x="1523.5" y="-513" font-family="Helvetica,sans-Serif" font-size="10.00">Entities.hpp</text>
</a>
</g>
</g>
<!-- Node28&#45;&gt;Node29 -->
<g id="edge29" class="edge">
<title>Node28&#45;&gt;Node29</title>
<path fill="none" stroke="midnightblue" d="M1654.25,-571.99C1632.23,-563.57 1597.86,-550.43 1569.88,-539.73"/>
<polygon fill="midnightblue" stroke="midnightblue" points="1570.87,-536.37 1560.28,-536.06 1568.37,-542.9 1570.87,-536.37"/>
</g>
<!-- Node29&#45;&gt;Node3 -->
<g id="edge30" class="edge">
<title>Node29&#45;&gt;Node3</title>
<path fill="none" stroke="midnightblue" d="M1595.65,-518.11C1672.28,-511.81 1782.5,-488.49 1782.5,-406.5 1782.5,-406.5 1782.5,-406.5 1782.5,-239.5 1782.5,-207.27 1774.19,-194.06 1747.5,-176 1696.54,-141.51 1528.25,-130.81 1425.33,-127.49"/>
<polygon fill="midnightblue" stroke="midnightblue" points="1425.38,-123.99 1415.28,-127.18 1425.16,-130.98 1425.38,-123.99"/>
</g>
<!-- Node30 -->
<g id="node30" class="node">
<title>Node30</title>
<g id="a_node30"><a xlink:href="../../d3/d95/a00779.html" target="_top" xlink:title=" ">
<polygon fill="none" stroke="black" points="1564,-250 1385,-250 1385,-231 1564,-231 1564,-250"/>
<text text-anchor="middle" x="1474.5" y="-238" font-family="Helvetica,sans-Serif" font-size="10.00">discordcoreapi/AudioDecoder.hpp</text>
</a>
</g>
</g>
<!-- Node29&#45;&gt;Node30 -->
<g id="edge31" class="edge">
<title>Node29&#45;&gt;Node30</title>
<path fill="none" stroke="midnightblue" d="M1542.79,-505.63C1553.13,-496.68 1564.88,-484.18 1570.5,-470 1573.61,-462.15 1572.3,-459.25 1570.5,-451 1553.89,-374.9 1507.02,-293.38 1485.52,-258.7"/>
<polygon fill="midnightblue" stroke="midnightblue" points="1488.47,-256.8 1480.18,-250.2 1482.54,-260.53 1488.47,-256.8"/>
</g>
<!-- Node31 -->
<g id="node31" class="node">
<title>Node31</title>
<g id="a_node31"><a xlink:href="../../d2/ddd/a00755.html" target="_top" xlink:title=" ">
<polygon fill="none" stroke="black" points="1238.5,-195 1062.5,-195 1062.5,-176 1238.5,-176 1238.5,-195"/>
<text text-anchor="middle" x="1150.5" y="-183" font-family="Helvetica,sans-Serif" font-size="10.00">discordcoreapi/EventEntities.hpp</text>
</a>
</g>
</g>
<!-- Node29&#45;&gt;Node31 -->
<g id="edge62" class="edge">
<title>Node29&#45;&gt;Node31</title>
<path fill="none" stroke="midnightblue" d="M1451.27,-513.49C1340.04,-501.44 1139.5,-470.8 1139.5,-406.5 1139.5,-406.5 1139.5,-406.5 1139.5,-294.5 1139.5,-263.03 1144.18,-226.66 1147.44,-205.18"/>
<polygon fill="midnightblue" stroke="midnightblue" points="1150.92,-205.57 1149.02,-195.15 1144,-204.48 1150.92,-205.57"/>
</g>
<!-- Node34 -->
<g id="node34" class="node">
<title>Node34</title>
<g id="a_node34"><a xlink:href="../../d4/dfa/a00746.html" target="_top" xlink:title=" ">
<polygon fill="none" stroke="black" points="1561,-470 1352,-470 1352,-451 1561,-451 1561,-470"/>
<text text-anchor="middle" x="1456.5" y="-458" font-family="Helvetica,sans-Serif" font-size="10.00">discordcoreapi/CommandController.hpp</text>
</a>
</g>
</g>
<!-- Node29&#45;&gt;Node34 -->
<g id="edge37" class="edge">
<title>Node29&#45;&gt;Node34</title>
<path fill="none" stroke="midnightblue" d="M1507.28,-505.84C1497.26,-497.09 1484.39,-485.85 1474.12,-476.88"/>
<polygon fill="midnightblue" stroke="midnightblue" points="1476.37,-474.21 1466.54,-470.27 1471.77,-479.48 1476.37,-474.21"/>
</g>
<!-- Node36 -->
<g id="node36" class="node">
<title>Node36</title>
<g id="a_node36"><a xlink:href="../../d1/d56/a00707.html" target="_top" xlink:title=" ">
<polygon fill="none" stroke="black" points="1429,-360 1262,-360 1262,-341 1429,-341 1429,-360"/>
<text text-anchor="middle" x="1345.5" y="-348" font-family="Helvetica,sans-Serif" font-size="10.00">discordcoreapi/ThreadPool.hpp</text>
</a>
</g>
</g>
<!-- Node29&#45;&gt;Node36 -->
<g id="edge64" class="edge">
<title>Node29&#45;&gt;Node36</title>
<path fill="none" stroke="midnightblue" d="M1451.21,-509.01C1407.18,-500.67 1356.89,-487.62 1343.5,-470 1337.62,-462.27 1341.5,-401.48 1343.94,-370.1"/>
<polygon fill="midnightblue" stroke="midnightblue" points="1347.44,-370.28 1344.76,-360.03 1340.46,-369.71 1347.44,-370.28"/>
</g>
<!-- Node38 -->
<g id="node38" class="node">
<title>Node38</title>
<g id="a_node38"><a xlink:href="../../dc/de4/a00677.html" target="_top" xlink:title=" ">
<polygon fill="none" stroke="black" points="757,-250 594,-250 594,-231 757,-231 757,-250"/>
<text text-anchor="middle" x="675.5" y="-238" font-family="Helvetica,sans-Serif" font-size="10.00">discordcoreapi/SSLClients.hpp</text>
</a>
</g>
</g>
<!-- Node29&#45;&gt;Node38 -->
<g id="edge63" class="edge">
<title>Node29&#45;&gt;Node38</title>
<path fill="none" stroke="midnightblue" d="M1451.46,-520.76C1296.52,-520.46 945.5,-508.51 945.5,-406.5 945.5,-406.5 945.5,-406.5 945.5,-349.5 945.5,-303.75 810.16,-268.64 731.12,-252.04"/>
<polygon fill="midnightblue" stroke="midnightblue" points="731.8,-248.61 721.3,-250.02 730.39,-255.47 731.8,-248.61"/>
</g>
<!-- Node52 -->
<g id="node52" class="node">
<title>Node52</title>
<g id="a_node52"><a xlink:href="../../d0/d0a/a00743.html" target="_top" xlink:title=" ">
<polygon fill="none" stroke="black" points="1754,-415 1599,-415 1599,-396 1754,-396 1754,-415"/>
<text text-anchor="middle" x="1676.5" y="-403" font-family="Helvetica,sans-Serif" font-size="10.00">discordcoreapi/ErlPacker.hpp</text>
</a>
</g>
</g>
<!-- Node29&#45;&gt;Node52 -->
<g id="edge60" class="edge">
<title>Node29&#45;&gt;Node52</title>
<path fill="none" stroke="midnightblue" d="M1548.31,-505.87C1564.45,-496.34 1585.73,-483.16 1603.5,-470 1623.81,-454.96 1645.47,-435.66 1659.87,-422.31"/>
<polygon fill="midnightblue" stroke="midnightblue" points="1662.54,-424.6 1667.44,-415.21 1657.75,-419.49 1662.54,-424.6"/>
</g>
<!-- Node30&#45;&gt;Node3 -->
<g id="edge34" class="edge">
<title>Node30&#45;&gt;Node3</title>
<path fill="none" stroke="midnightblue" d="M1456.67,-230.92C1440.97,-222.88 1417.94,-209.89 1400.5,-195 1384.43,-181.29 1369.18,-162.85 1358.36,-148.48"/>
<polygon fill="midnightblue" stroke="midnightblue" points="1360.97,-146.12 1352.22,-140.15 1355.33,-150.27 1360.97,-146.12"/>
</g>
<!-- Node30&#45;&gt;Node31 -->
<g id="edge32" class="edge">
<title>Node30&#45;&gt;Node31</title>
<path fill="none" stroke="midnightblue" d="M1422.44,-230.98C1365.26,-221.63 1273.46,-206.61 1212.57,-196.65"/>
<polygon fill="midnightblue" stroke="midnightblue" points="1213.13,-193.2 1202.7,-195.04 1212,-200.11 1213.13,-193.2"/>
</g>
<!-- Node32 -->
<g id="node32" class="node">
<title>Node32</title>
<g id="a_node32"><a xlink:title=" ">
<polygon fill="none" stroke="#bfbfbf" points="1540,-195 1409,-195 1409,-176 1540,-176 1540,-195"/>
<text text-anchor="middle" x="1474.5" y="-183" font-family="Helvetica,sans-Serif" font-size="10.00">libavformat/avformat.h</text>
</a>
</g>
</g>
<!-- Node30&#45;&gt;Node32 -->
<g id="edge35" class="edge">
<title>Node30&#45;&gt;Node32</title>
<path fill="none" stroke="midnightblue" d="M1474.5,-230.75C1474.5,-223.8 1474.5,-213.85 1474.5,-205.13"/>
<polygon fill="midnightblue" stroke="midnightblue" points="1478,-205.09 1474.5,-195.09 1471,-205.09 1478,-205.09"/>
</g>
<!-- Node33 -->
<g id="node33" class="node">
<title>Node33</title>
<g id="a_node33"><a xlink:title=" ">
<polygon fill="none" stroke="#bfbfbf" points="1717,-195 1558,-195 1558,-176 1717,-176 1717,-195"/>
<text text-anchor="middle" x="1637.5" y="-183" font-family="Helvetica,sans-Serif" font-size="10.00">libswresample/swresample.h</text>
</a>
</g>
</g>
<!-- Node30&#45;&gt;Node33 -->
<g id="edge36" class="edge">
<title>Node30&#45;&gt;Node33</title>
<path fill="none" stroke="midnightblue" d="M1500.69,-230.98C1527.94,-222.13 1570.8,-208.19 1601.28,-198.28"/>
<polygon fill="midnightblue" stroke="midnightblue" points="1602.68,-201.5 1611.11,-195.08 1600.51,-194.85 1602.68,-201.5"/>
</g>
<!-- Node31&#45;&gt;Node3 -->
<g id="edge33" class="edge">
<title>Node31&#45;&gt;Node3</title>
<path fill="none" stroke="midnightblue" d="M1178.42,-175.99C1206.65,-167.39 1251.08,-153.86 1286.58,-143.04"/>
<polygon fill="midnightblue" stroke="midnightblue" points="1287.79,-146.33 1296.34,-140.06 1285.75,-139.63 1287.79,-146.33"/>
</g>
<!-- Node34&#45;&gt;Node3 -->
<g id="edge38" class="edge">
<title>Node34&#45;&gt;Node3</title>
<path fill="none" stroke="midnightblue" d="M1456.4,-450.86C1455.91,-430.88 1453.18,-380.16 1438.5,-341 1428.33,-313.87 1419.98,-309.83 1403.5,-286 1392.12,-269.55 1385.3,-267.96 1376.5,-250 1360.52,-217.38 1351.11,-176.12 1346.38,-150.39"/>
<polygon fill="midnightblue" stroke="midnightblue" points="1349.81,-149.63 1344.64,-140.38 1342.91,-150.83 1349.81,-149.63"/>
</g>
<!-- Node34&#45;&gt;Node35 -->
<g id="edge39" class="edge">
<title>Node34&#45;&gt;Node35</title>
<path fill="none" stroke="midnightblue" d="M1423.08,-450.98C1387.56,-441.93 1331.23,-427.58 1292.2,-417.64"/>
<polygon fill="midnightblue" stroke="midnightblue" points="1292.74,-414.16 1282.18,-415.08 1291.01,-420.94 1292.74,-414.16"/>
</g>
<!-- Node35&#45;&gt;Node3 -->
<g id="edge40" class="edge">
<title>Node35&#45;&gt;Node3</title>
<path fill="none" stroke="midnightblue" d="M1248.35,-395.74C1248.32,-383.37 1248.97,-360.16 1253.5,-341 1270.73,-268.1 1309.7,-188.01 1329.87,-149.39"/>
<polygon fill="midnightblue" stroke="midnightblue" points="1333.22,-150.54 1334.8,-140.06 1327.03,-147.27 1333.22,-150.54"/>
</g>
<!-- Node35&#45;&gt;Node36 -->
<g id="edge41" class="edge">
<title>Node35&#45;&gt;Node36</title>
<path fill="none" stroke="midnightblue" d="M1264.08,-395.98C1279.27,-387.69 1302.6,-374.94 1320.4,-365.22"/>
<polygon fill="midnightblue" stroke="midnightblue" points="1322.53,-368.04 1329.63,-360.17 1319.18,-361.89 1322.53,-368.04"/>
</g>
<!-- Node36&#45;&gt;Node3 -->
<g id="edge42" class="edge">
<title>Node36&#45;&gt;Node3</title>
<path fill="none" stroke="midnightblue" d="M1339.66,-340.76C1334.25,-332.1 1326.6,-318.26 1323.5,-305 1310.74,-250.4 1325.2,-184.4 1334.99,-149.8"/>
<polygon fill="midnightblue" stroke="midnightblue" points="1338.38,-150.7 1337.85,-140.12 1331.66,-148.72 1338.38,-150.7"/>
</g>
<!-- Node36&#45;&gt;Node37 -->
<g id="edge43" class="edge">
<title>Node36&#45;&gt;Node37</title>
<path fill="none" stroke="midnightblue" d="M1296.82,-340.98C1243.56,-331.67 1158.19,-316.74 1101.25,-306.78"/>
<polygon fill="midnightblue" stroke="midnightblue" points="1101.77,-303.31 1091.31,-305.04 1100.56,-310.21 1101.77,-303.31"/>
</g>
<!-- Node51 -->
<g id="node51" class="node">
<title>Node51</title>
<g id="a_node51"><a xlink:title=" ">
<polygon fill="none" stroke="#bfbfbf" points="1394.5,-305 1332.5,-305 1332.5,-286 1394.5,-286 1394.5,-305"/>
<text text-anchor="middle" x="1363.5" y="-293" font-family="Helvetica,sans-Serif" font-size="10.00">coroutine</text>
</a>
</g>
</g>
<!-- Node36&#45;&gt;Node51 -->
<g id="edge59" class="edge">
<title>Node36&#45;&gt;Node51</title>
<path fill="none" stroke="midnightblue" d="M1348.47,-340.75C1350.86,-333.72 1354.29,-323.62 1357.27,-314.84"/>
<polygon fill="midnightblue" stroke="midnightblue" points="1360.68,-315.68 1360.58,-305.09 1354.05,-313.43 1360.68,-315.68"/>
</g>
<!-- Node37&#45;&gt;Node38 -->
<g id="edge44" class="edge">
<title>Node37&#45;&gt;Node38</title>
<path fill="none" stroke="midnightblue" d="M983.54,-285.98C918.36,-276.57 813.49,-261.43 744.53,-251.47"/>
<polygon fill="midnightblue" stroke="midnightblue" points="745.02,-248 734.62,-250.04 744.02,-254.93 745.02,-248"/>
</g>
<!-- Node38&#45;&gt;Node3 -->
<g id="edge45" class="edge">
<title>Node38&#45;&gt;Node3</title>
<path fill="none" stroke="midnightblue" d="M757.14,-236.43C827.04,-232.02 929.68,-221.25 1015.5,-195 1033.56,-189.48 1035.56,-181.89 1053.5,-176 1121.18,-153.76 1201.2,-140.9 1259.86,-133.8"/>
<polygon fill="midnightblue" stroke="midnightblue" points="1260.3,-137.27 1269.82,-132.63 1259.48,-130.32 1260.3,-137.27"/>
</g>
<!-- Node38&#45;&gt;Node31 -->
<g id="edge46" class="edge">
<title>Node38&#45;&gt;Node31</title>
<path fill="none" stroke="midnightblue" d="M751.82,-230.98C837.04,-221.48 974.7,-206.12 1063.89,-196.16"/>
<polygon fill="midnightblue" stroke="midnightblue" points="1064.43,-199.63 1073.98,-195.04 1063.65,-192.67 1064.43,-199.63"/>
</g>
<!-- Node39 -->
<g id="node39" class="node">
<title>Node39</title>
<g id="a_node39"><a xlink:title=" ">
<polygon fill="none" stroke="#bfbfbf" points="842,-195 763,-195 763,-176 842,-176 842,-195"/>
<text text-anchor="middle" x="802.5" y="-183" font-family="Helvetica,sans-Serif" font-size="10.00">openssl/err.h</text>
</a>
</g>
</g>
<!-- Node38&#45;&gt;Node39 -->
<g id="edge47" class="edge">
<title>Node38&#45;&gt;Node39</title>
<path fill="none" stroke="midnightblue" d="M695.9,-230.98C716.52,-222.38 748.61,-208.99 772.19,-199.15"/>
<polygon fill="midnightblue" stroke="midnightblue" points="773.84,-202.25 781.72,-195.17 771.15,-195.79 773.84,-202.25"/>
</g>
<!-- Node40 -->
<g id="node40" class="node">
<title>Node40</title>
<g id="a_node40"><a xlink:title=" ">
<polygon fill="none" stroke="#bfbfbf" points="940.5,-195 860.5,-195 860.5,-176 940.5,-176 940.5,-195"/>
<text text-anchor="middle" x="900.5" y="-183" font-family="Helvetica,sans-Serif" font-size="10.00">openssl/ssl.h</text>
</a>
</g>
</g>
<!-- Node38&#45;&gt;Node40 -->
<g id="edge48" class="edge">
<title>Node38&#45;&gt;Node40</title>
<path fill="none" stroke="midnightblue" d="M711.65,-230.98C750.41,-221.86 812.05,-207.33 854.3,-197.38"/>
<polygon fill="midnightblue" stroke="midnightblue" points="855.14,-200.78 864.07,-195.08 853.53,-193.97 855.14,-200.78"/>
</g>
<!-- Node41 -->
<g id="node41" class="node">
<title>Node41</title>
<g id="a_node41"><a xlink:title=" ">
<polygon fill="none" stroke="#bfbfbf" points="1006,-195 959,-195 959,-176 1006,-176 1006,-195"/>
<text text-anchor="middle" x="982.5" y="-183" font-family="Helvetica,sans-Serif" font-size="10.00">fcntl.h</text>
</a>
</g>
</g>
<!-- Node38&#45;&gt;Node41 -->
<g id="edge49" class="edge">
<title>Node38&#45;&gt;Node41</title>
<path fill="none" stroke="midnightblue" d="M738.1,-230.99C791.54,-223.35 870.64,-211.15 948.75,-194.98"/>
<polygon fill="midnightblue" stroke="midnightblue" points="949.7,-198.36 958.77,-192.89 948.26,-191.51 949.7,-198.36"/>
</g>
<!-- Node42 -->
<g id="node42" class="node">
<title>Node42</title>
<g id="a_node42"><a xlink:title=" ">
<polygon fill="none" stroke="#bfbfbf" points="53,-195 0,-195 0,-176 53,-176 53,-195"/>
<text text-anchor="middle" x="26.5" y="-183" font-family="Helvetica,sans-Serif" font-size="10.00">netdb.h</text>
</a>
</g>
</g>
<!-- Node38&#45;&gt;Node42 -->
<g id="edge50" class="edge">
<title>Node38&#45;&gt;Node42</title>
<path fill="none" stroke="midnightblue" d="M593.73,-237.7C477.73,-234.23 258.72,-224.29 63.03,-194.8"/>
<polygon fill="midnightblue" stroke="midnightblue" points="63.56,-191.34 53.14,-193.29 62.5,-198.26 63.56,-191.34"/>
</g>
<!-- Node43 -->
<g id="node43" class="node">
<title>Node43</title>
<g id="a_node43"><a xlink:title=" ">
<polygon fill="none" stroke="#bfbfbf" points="143.5,-195 71.5,-195 71.5,-176 143.5,-176 143.5,-195"/>
<text text-anchor="middle" x="107.5" y="-183" font-family="Helvetica,sans-Serif" font-size="10.00">netinet/in.h</text>
</a>
</g>
</g>
<!-- Node38&#45;&gt;Node43 -->
<g id="edge51" class="edge">
<title>Node38&#45;&gt;Node43</title>
<path fill="none" stroke="midnightblue" d="M593.69,-235.12C492.62,-229.14 315.26,-216.74 153.91,-195.06"/>
<polygon fill="midnightblue" stroke="midnightblue" points="154.18,-191.56 143.8,-193.68 153.24,-198.5 154.18,-191.56"/>
</g>
<!-- Node44 -->
<g id="node44" class="node">
<title>Node44</title>
<g id="a_node44"><a xlink:title=" ">
<polygon fill="none" stroke="#bfbfbf" points="239.5,-195 161.5,-195 161.5,-176 239.5,-176 239.5,-195"/>
<text text-anchor="middle" x="200.5" y="-183" font-family="Helvetica,sans-Serif" font-size="10.00">netinet/tcp.h</text>
</a>
</g>
</g>
<!-- Node38&#45;&gt;Node44 -->
<g id="edge52" class="edge">
<title>Node38&#45;&gt;Node44</title>
<path fill="none" stroke="midnightblue" d="M593.83,-232.74C510,-225.39 375.57,-212.52 249.94,-195.11"/>
<polygon fill="midnightblue" stroke="midnightblue" points="250.14,-191.61 239.76,-193.69 249.18,-198.54 250.14,-191.61"/>
</g>
<!-- Node45 -->
<g id="node45" class="node">
<title>Node45</title>
<g id="a_node45"><a xlink:title=" ">
<polygon fill="none" stroke="#bfbfbf" points="311,-195 258,-195 258,-176 311,-176 311,-195"/>
<text text-anchor="middle" x="284.5" y="-183" font-family="Helvetica,sans-Serif" font-size="10.00">stdint.h</text>
</a>
</g>
</g>
<!-- Node38&#45;&gt;Node45 -->
<g id="edge53" class="edge">
<title>Node38&#45;&gt;Node45</title>
<path fill="none" stroke="midnightblue" d="M593.8,-231.96C523.71,-224.88 419.88,-212.93 321.04,-195.11"/>
<polygon fill="midnightblue" stroke="midnightblue" points="321.65,-191.67 311.19,-193.31 320.39,-198.55 321.65,-191.67"/>
</g>
<!-- Node46 -->
<g id="node46" class="node">
<title>Node46</title>
<g id="a_node46"><a xlink:title=" ">
<polygon fill="none" stroke="#bfbfbf" points="398,-195 329,-195 329,-176 398,-176 398,-195"/>
<text text-anchor="middle" x="363.5" y="-183" font-family="Helvetica,sans-Serif" font-size="10.00">sys/epoll.h</text>
</a>
</g>
</g>
<!-- Node38&#45;&gt;Node46 -->
<g id="edge54" class="edge">
<title>Node38&#45;&gt;Node46</title>
<path fill="none" stroke="midnightblue" d="M620.8,-230.96C568.62,-222.71 487.54,-209.57 408.36,-195.3"/>
<polygon fill="midnightblue" stroke="midnightblue" points="408.68,-191.8 398.22,-193.46 407.43,-198.69 408.68,-191.8"/>
</g>
<!-- Node47 -->
<g id="node47" class="node">
<title>Node47</title>
<g id="a_node47"><a xlink:title=" ">
<polygon fill="none" stroke="#bfbfbf" points="485,-195 416,-195 416,-176 485,-176 485,-195"/>
<text text-anchor="middle" x="450.5" y="-183" font-family="Helvetica,sans-Serif" font-size="10.00">arpa/inet.h</text>
</a>
</g>
</g>
<!-- Node38&#45;&gt;Node47 -->
<g id="edge55" class="edge">
<title>Node38&#45;&gt;Node47</title>
<path fill="none" stroke="midnightblue" d="M639.35,-230.98C600.02,-221.72 537.11,-206.9 494.83,-196.94"/>
<polygon fill="midnightblue" stroke="midnightblue" points="495.62,-193.53 485.08,-194.65 494.01,-200.35 495.62,-193.53"/>
</g>
<!-- Node48 -->
<g id="node48" class="node">
<title>Node48</title>
<g id="a_node48"><a xlink:title=" ">
<polygon fill="none" stroke="#bfbfbf" points="580,-195 503,-195 503,-176 580,-176 580,-195"/>
<text text-anchor="middle" x="541.5" y="-183" font-family="Helvetica,sans-Serif" font-size="10.00">sys/socket.h</text>
</a>
</g>
</g>
<!-- Node38&#45;&gt;Node48 -->
<g id="edge56" class="edge">
<title>Node38&#45;&gt;Node48</title>
<path fill="none" stroke="midnightblue" d="M653.97,-230.98C632.03,-222.3 597.76,-208.75 572.81,-198.88"/>
<polygon fill="midnightblue" stroke="midnightblue" points="574.01,-195.59 563.42,-195.17 571.43,-202.1 574.01,-195.59"/>
</g>
<!-- Node49 -->
<g id="node49" class="node">
<title>Node49</title>
<g id="a_node49"><a xlink:title=" ">
<polygon fill="none" stroke="#bfbfbf" points="670.5,-195 598.5,-195 598.5,-176 670.5,-176 670.5,-195"/>
<text text-anchor="middle" x="634.5" y="-183" font-family="Helvetica,sans-Serif" font-size="10.00">sys/types.h</text>
</a>
</g>
</g>
<!-- Node38&#45;&gt;Node49 -->
<g id="edge57" class="edge">
<title>Node38&#45;&gt;Node49</title>
<path fill="none" stroke="midnightblue" d="M668.73,-230.75C662.94,-223.26 654.44,-212.28 647.36,-203.13"/>
<polygon fill="midnightblue" stroke="midnightblue" points="650.03,-200.86 641.14,-195.09 644.49,-205.14 650.03,-200.86"/>
</g>
<!-- Node50 -->
<g id="node50" class="node">
<title>Node50</title>
<g id="a_node50"><a xlink:title=" ">
<polygon fill="none" stroke="#bfbfbf" points="744.5,-195 688.5,-195 688.5,-176 744.5,-176 744.5,-195"/>
<text text-anchor="middle" x="716.5" y="-183" font-family="Helvetica,sans-Serif" font-size="10.00">unistd.h</text>
</a>
</g>
</g>
<!-- Node38&#45;&gt;Node50 -->
<g id="edge58" class="edge">
<title>Node38&#45;&gt;Node50</title>
<path fill="none" stroke="midnightblue" d="M682.27,-230.75C688.06,-223.26 696.56,-212.28 703.64,-203.13"/>
<polygon fill="midnightblue" stroke="midnightblue" points="706.51,-205.14 709.86,-195.09 700.97,-200.86 706.51,-205.14"/>
</g>
<!-- Node52&#45;&gt;Node3 -->
<g id="edge61" class="edge">
<title>Node52&#45;&gt;Node3</title>
<path fill="none" stroke="midnightblue" d="M1686.83,-395.87C1705.85,-378.93 1744.5,-339.26 1744.5,-296.5 1744.5,-296.5 1744.5,-296.5 1744.5,-239.5 1744.5,-210.17 1748.71,-195.17 1726.5,-176 1682.71,-138.2 1524.27,-128.63 1425.11,-126.41"/>
<polygon fill="midnightblue" stroke="midnightblue" points="1425.18,-122.91 1415.11,-126.21 1425.03,-129.91 1425.18,-122.91"/>
</g>
</g>
</svg>
