<?xml version="1.0" encoding="UTF-8" standalone="no"?>
<!DOCTYPE svg PUBLIC "-//W3C//DTD SVG 1.1//EN"
 "http://www.w3.org/Graphics/SVG/1.1/DTD/svg11.dtd">
<!-- Generated by graphviz version 2.43.0 (0)
 -->
<!-- Title: CommandController.hpp Pages: 1 -->
<svg width="1687pt" height="532pt"
 viewBox="0.00 0.00 1686.50 532.00" xmlns="http://www.w3.org/2000/svg" xmlns:xlink="http://www.w3.org/1999/xlink">
<g id="graph0" class="graph" transform="scale(1 1) rotate(0) translate(4 528)">
<title>CommandController.hpp</title>
<!-- Node1 -->
<g id="node1" class="node">
<title>Node1</title>
<g id="a_node1"><a xlink:title=" ">
<polygon fill="#bfbfbf" stroke="black" points="1234,-504.5 1234,-523.5 1369,-523.5 1369,-504.5 1234,-504.5"/>
<text text-anchor="middle" x="1301.5" y="-511.5" font-family="Helvetica,sans-Serif" font-size="10.00">CommandController.hpp</text>
</a>
</g>
</g>
<!-- Node2 -->
<g id="node2" class="node">
<title>Node2</title>
<g id="a_node2"><a xlink:href="../../df/dbb/a00698.html" target="_top" xlink:title=" ">
<polygon fill="none" stroke="black" points="827,-112.5 827,-131.5 952,-131.5 952,-112.5 827,-112.5"/>
<text text-anchor="middle" x="889.5" y="-119.5" font-family="Helvetica,sans-Serif" font-size="10.00">DiscordCoreClient.hpp</text>
</a>
</g>
</g>
<!-- Node1&#45;&gt;Node2 -->
<g id="edge1" class="edge">
<title>Node1&#45;&gt;Node2</title>
<path fill="none" stroke="midnightblue" d="M1306.19,-494.26C1319.6,-435.69 1351.35,-254.76 1256.5,-168 1213.28,-128.47 1045.17,-122.43 952.2,-122.22"/>
<polygon fill="midnightblue" stroke="midnightblue" points="1302.71,-493.74 1303.79,-504.28 1309.52,-495.37 1302.71,-493.74"/>
</g>
<!-- Node7 -->
<g id="node7" class="node">
<title>Node7</title>
<g id="a_node7"><a xlink:href="../../d8/db7/a00812.html" target="_top" xlink:title=" ">
<polygon fill="none" stroke="black" points="0,-56.5 0,-75.5 107,-75.5 107,-56.5 0,-56.5"/>
<text text-anchor="middle" x="53.5" y="-63.5" font-family="Helvetica,sans-Serif" font-size="10.00">EventManager.cpp</text>
</a>
</g>
</g>
<!-- Node1&#45;&gt;Node7 -->
<g id="edge72" class="edge">
<title>Node1&#45;&gt;Node7</title>
<path fill="none" stroke="midnightblue" d="M1223.51,-510.33C947.64,-500.4 34.5,-462.98 34.5,-403 34.5,-403 34.5,-403 34.5,-177 34.5,-138.82 45.75,-94.26 50.94,-75.75"/>
<polygon fill="midnightblue" stroke="midnightblue" points="1223.71,-513.84 1233.83,-510.7 1223.96,-506.85 1223.71,-513.84"/>
</g>
<!-- Node16 -->
<g id="node16" class="node">
<title>Node16</title>
<g id="a_node16"><a xlink:href="../../d9/dd4/a00776.html" target="_top" xlink:title=" ">
<polygon fill="none" stroke="black" points="1146.5,-448.5 1146.5,-467.5 1274.5,-467.5 1274.5,-448.5 1146.5,-448.5"/>
<text text-anchor="middle" x="1210.5" y="-455.5" font-family="Helvetica,sans-Serif" font-size="10.00">WebSocketEntities.hpp</text>
</a>
</g>
</g>
<!-- Node1&#45;&gt;Node16 -->
<g id="edge15" class="edge">
<title>Node1&#45;&gt;Node16</title>
<path fill="none" stroke="midnightblue" d="M1278.21,-499.18C1261.46,-489.24 1239.4,-476.15 1225.08,-467.65"/>
<polygon fill="midnightblue" stroke="midnightblue" points="1276.49,-502.23 1286.88,-504.32 1280.07,-496.21 1276.49,-502.23"/>
</g>
<!-- Node33 -->
<g id="node33" class="node">
<title>Node33</title>
<g id="a_node33"><a xlink:href="../../da/db8/a00797.html" target="_top" xlink:title=" ">
<polygon fill="none" stroke="black" points="1384.5,-448.5 1384.5,-467.5 1518.5,-467.5 1518.5,-448.5 1384.5,-448.5"/>
<text text-anchor="middle" x="1451.5" y="-455.5" font-family="Helvetica,sans-Serif" font-size="10.00">CommandController.cpp</text>
</a>
</g>
</g>
<!-- Node1&#45;&gt;Node33 -->
<g id="edge71" class="edge">
<title>Node1&#45;&gt;Node33</title>
<path fill="none" stroke="midnightblue" d="M1334.72,-501.04C1362.95,-490.88 1402.76,-476.55 1427.84,-467.52"/>
<polygon fill="midnightblue" stroke="midnightblue" points="1333.49,-497.76 1325.27,-504.44 1335.86,-504.35 1333.49,-497.76"/>
</g>
<!-- Node3 -->
<g id="node3" class="node">
<title>Node3</title>
<g id="a_node3"><a xlink:href="../../d8/db9/a00725.html" target="_top" xlink:title=" ">
<polygon fill="none" stroke="black" points="857,-56.5 857,-75.5 922,-75.5 922,-56.5 857,-56.5"/>
<text text-anchor="middle" x="889.5" y="-63.5" font-family="Helvetica,sans-Serif" font-size="10.00">Index.hpp</text>
</a>
</g>
</g>
<!-- Node2&#45;&gt;Node3 -->
<g id="edge2" class="edge">
<title>Node2&#45;&gt;Node3</title>
<path fill="none" stroke="midnightblue" d="M889.5,-101.8C889.5,-92.91 889.5,-82.78 889.5,-75.75"/>
<polygon fill="midnightblue" stroke="midnightblue" points="886,-102.08 889.5,-112.08 893,-102.08 886,-102.08"/>
</g>
<!-- Node5 -->
<g id="node5" class="node">
<title>Node5</title>
<g id="a_node5"><a xlink:href="../../da/d96/a00782.html" target="_top" xlink:title=" ">
<polygon fill="none" stroke="black" points="380,-56.5 380,-75.5 559,-75.5 559,-56.5 380,-56.5"/>
<text text-anchor="middle" x="469.5" y="-63.5" font-family="Helvetica,sans-Serif" font-size="10.00">ApplicationCommandEntities.cpp</text>
</a>
</g>
</g>
<!-- Node2&#45;&gt;Node5 -->
<g id="edge4" class="edge">
<title>Node2&#45;&gt;Node5</title>
<path fill="none" stroke="midnightblue" d="M816.25,-111.58C737.16,-101.41 612.27,-85.36 535.93,-75.54"/>
<polygon fill="midnightblue" stroke="midnightblue" points="816.26,-115.11 826.62,-112.92 817.15,-108.17 816.26,-115.11"/>
</g>
<!-- Node6 -->
<g id="node6" class="node">
<title>Node6</title>
<g id="a_node6"><a xlink:href="../../d5/d72/a00803.html" target="_top" xlink:title=" ">
<polygon fill="none" stroke="black" points="940,-56.5 940,-75.5 1065,-75.5 1065,-56.5 940,-56.5"/>
<text text-anchor="middle" x="1002.5" y="-63.5" font-family="Helvetica,sans-Serif" font-size="10.00">DiscordCoreClient.cpp</text>
</a>
</g>
</g>
<!-- Node2&#45;&gt;Node6 -->
<g id="edge5" class="edge">
<title>Node2&#45;&gt;Node6</title>
<path fill="none" stroke="midnightblue" d="M916.5,-108.1C937.61,-98.01 966.36,-84.27 984.68,-75.52"/>
<polygon fill="midnightblue" stroke="midnightblue" points="914.92,-104.97 907.41,-112.44 917.94,-111.29 914.92,-104.97"/>
</g>
<!-- Node2&#45;&gt;Node7 -->
<g id="edge6" class="edge">
<title>Node2&#45;&gt;Node7</title>
<path fill="none" stroke="midnightblue" d="M816.51,-118.85C679.04,-114.34 372.45,-102.07 115.5,-76 112.79,-75.73 110.03,-75.42 107.23,-75.09"/>
<polygon fill="midnightblue" stroke="midnightblue" points="816.79,-122.36 826.9,-119.19 817.02,-115.37 816.79,-122.36"/>
</g>
<!-- Node8 -->
<g id="node8" class="node">
<title>Node8</title>
<g id="a_node8"><a xlink:href="../../d3/d60/a00818.html" target="_top" xlink:title=" ">
<polygon fill="none" stroke="black" points="1083,-56.5 1083,-75.5 1182,-75.5 1182,-56.5 1083,-56.5"/>
<text text-anchor="middle" x="1132.5" y="-63.5" font-family="Helvetica,sans-Serif" font-size="10.00">GuildEntities.cpp</text>
</a>
</g>
</g>
<!-- Node2&#45;&gt;Node8 -->
<g id="edge7" class="edge">
<title>Node2&#45;&gt;Node8</title>
<path fill="none" stroke="midnightblue" d="M938.02,-110.22C983.94,-100.01 1051.95,-84.9 1094.18,-75.52"/>
<polygon fill="midnightblue" stroke="midnightblue" points="937.01,-106.86 928,-112.44 938.53,-113.69 937.01,-106.86"/>
</g>
<!-- Node9 -->
<g id="node9" class="node">
<title>Node9</title>
<g id="a_node9"><a xlink:href="../../dc/d1b/a00827.html" target="_top" xlink:title=" ">
<polygon fill="none" stroke="black" points="641,-56.5 641,-75.5 704,-75.5 704,-56.5 641,-56.5"/>
<text text-anchor="middle" x="672.5" y="-63.5" font-family="Helvetica,sans-Serif" font-size="10.00">Https.cpp</text>
</a>
</g>
</g>
<!-- Node2&#45;&gt;Node9 -->
<g id="edge8" class="edge">
<title>Node2&#45;&gt;Node9</title>
<path fill="none" stroke="midnightblue" d="M845.18,-109.97C803.28,-99.54 741.44,-84.16 704.25,-74.9"/>
<polygon fill="midnightblue" stroke="midnightblue" points="844.57,-113.43 855.12,-112.44 846.26,-106.63 844.57,-113.43"/>
</g>
<!-- Node10 -->
<g id="node10" class="node">
<title>Node10</title>
<g id="a_node10"><a xlink:href="../../d3/d13/a00836.html" target="_top" xlink:title=" ">
<polygon fill="none" stroke="black" points="722,-56.5 722,-75.5 839,-75.5 839,-56.5 722,-56.5"/>
<text text-anchor="middle" x="780.5" y="-63.5" font-family="Helvetica,sans-Serif" font-size="10.00">MessageEntities.cpp</text>
</a>
</g>
</g>
<!-- Node2&#45;&gt;Node10 -->
<g id="edge9" class="edge">
<title>Node2&#45;&gt;Node10</title>
<path fill="none" stroke="midnightblue" d="M862.98,-107.86C842.77,-97.85 815.51,-84.35 797.97,-75.65"/>
<polygon fill="midnightblue" stroke="midnightblue" points="861.47,-111.02 871.99,-112.32 864.58,-104.75 861.47,-111.02"/>
</g>
<!-- Node11 -->
<g id="node11" class="node">
<title>Node11</title>
<g id="a_node11"><a xlink:href="../../d7/dcf/a00845.html" target="_top" xlink:title=" ">
<polygon fill="none" stroke="black" points="1227,-56.5 1227,-75.5 1304,-75.5 1304,-56.5 1227,-56.5"/>
<text text-anchor="middle" x="1265.5" y="-63.5" font-family="Helvetica,sans-Serif" font-size="10.00">SongAPI.cpp</text>
</a>
</g>
</g>
<!-- Node2&#45;&gt;Node11 -->
<g id="edge10" class="edge">
<title>Node2&#45;&gt;Node11</title>
<path fill="none" stroke="midnightblue" d="M959.42,-110.96C1038.34,-99.62 1163.92,-81.59 1226.86,-72.55"/>
<polygon fill="midnightblue" stroke="midnightblue" points="958.48,-107.56 949.08,-112.44 959.47,-114.49 958.48,-107.56"/>
</g>
<!-- Node12 -->
<g id="node12" class="node">
<title>Node12</title>
<g id="a_node12"><a xlink:href="../../d9/d30/a00848.html" target="_top" xlink:title=" ">
<polygon fill="none" stroke="black" points="1322.5,-56.5 1322.5,-75.5 1432.5,-75.5 1432.5,-56.5 1322.5,-56.5"/>
<text text-anchor="middle" x="1377.5" y="-63.5" font-family="Helvetica,sans-Serif" font-size="10.00">SoundCloudAPI.cpp</text>
</a>
</g>
</g>
<!-- Node2&#45;&gt;Node12 -->
<g id="edge11" class="edge">
<title>Node2&#45;&gt;Node12</title>
<path fill="none" stroke="midnightblue" d="M962.08,-114.05C1046.59,-105.79 1190.31,-91.19 1313.5,-76 1316.4,-75.64 1319.36,-75.27 1322.36,-74.88"/>
<polygon fill="midnightblue" stroke="midnightblue" points="961.69,-110.58 952.08,-115.03 962.37,-117.54 961.69,-110.58"/>
</g>
<!-- Node13 -->
<g id="node13" class="node">
<title>Node13</title>
<g id="a_node13"><a xlink:href="../../dc/d17/a00872.html" target="_top" xlink:title=" ">
<polygon fill="none" stroke="black" points="1450.5,-56.5 1450.5,-75.5 1568.5,-75.5 1568.5,-56.5 1450.5,-56.5"/>
<text text-anchor="middle" x="1509.5" y="-63.5" font-family="Helvetica,sans-Serif" font-size="10.00">VoiceConnection.cpp</text>
</a>
</g>
</g>
<!-- Node2&#45;&gt;Node13 -->
<g id="edge12" class="edge">
<title>Node2&#45;&gt;Node13</title>
<path fill="none" stroke="midnightblue" d="M962.33,-116.23C1068.04,-109.05 1270.1,-94.32 1441.5,-76 1444.34,-75.7 1447.25,-75.37 1450.18,-75.03"/>
<polygon fill="midnightblue" stroke="midnightblue" points="961.84,-112.76 952.1,-116.93 962.31,-119.74 961.84,-112.76"/>
</g>
<!-- Node14 -->
<g id="node14" class="node">
<title>Node14</title>
<g id="a_node14"><a xlink:href="../../d5/d69/a00878.html" target="_top" xlink:title=" ">
<polygon fill="none" stroke="black" points="125,-56.5 125,-75.5 252,-75.5 252,-56.5 125,-56.5"/>
<text text-anchor="middle" x="188.5" y="-63.5" font-family="Helvetica,sans-Serif" font-size="10.00">WebSocketEntities.cpp</text>
</a>
</g>
</g>
<!-- Node2&#45;&gt;Node14 -->
<g id="edge13" class="edge">
<title>Node2&#45;&gt;Node14</title>
<path fill="none" stroke="midnightblue" d="M816.95,-115.41C679.3,-104.81 382.34,-81.93 252.01,-71.89"/>
<polygon fill="midnightblue" stroke="midnightblue" points="816.74,-118.91 826.98,-116.18 817.28,-111.93 816.74,-118.91"/>
</g>
<!-- Node15 -->
<g id="node15" class="node">
<title>Node15</title>
<g id="a_node15"><a xlink:href="../../df/d41/a00881.html" target="_top" xlink:title=" ">
<polygon fill="none" stroke="black" points="1586.5,-56.5 1586.5,-75.5 1678.5,-75.5 1678.5,-56.5 1586.5,-56.5"/>
<text text-anchor="middle" x="1632.5" y="-63.5" font-family="Helvetica,sans-Serif" font-size="10.00">YouTubeAPI.cpp</text>
</a>
</g>
</g>
<!-- Node2&#45;&gt;Node15 -->
<g id="edge14" class="edge">
<title>Node2&#45;&gt;Node15</title>
<path fill="none" stroke="midnightblue" d="M962.57,-118.55C1088.47,-113.8 1354.25,-101.51 1577.5,-76 1580.38,-75.67 1583.35,-75.29 1586.33,-74.89"/>
<polygon fill="midnightblue" stroke="midnightblue" points="962.15,-115.06 952.29,-118.93 962.41,-122.06 962.15,-115.06"/>
</g>
<!-- Node4 -->
<g id="node4" class="node">
<title>Node4</title>
<g id="a_node4"><a xlink:href="../../d0/dad/a00806.html" target="_top" xlink:title=" ">
<polygon fill="none" stroke="black" points="852.5,-0.5 852.5,-19.5 926.5,-19.5 926.5,-0.5 852.5,-0.5"/>
<text text-anchor="middle" x="889.5" y="-7.5" font-family="Helvetica,sans-Serif" font-size="10.00">DllMain.cpp</text>
</a>
</g>
</g>
<!-- Node3&#45;&gt;Node4 -->
<g id="edge3" class="edge">
<title>Node3&#45;&gt;Node4</title>
<path fill="none" stroke="midnightblue" d="M889.5,-45.8C889.5,-36.91 889.5,-26.78 889.5,-19.75"/>
<polygon fill="midnightblue" stroke="midnightblue" points="886,-46.08 889.5,-56.08 893,-46.08 886,-46.08"/>
</g>
<!-- Node16&#45;&gt;Node2 -->
<g id="edge16" class="edge">
<title>Node16&#45;&gt;Node2</title>
<path fill="none" stroke="midnightblue" d="M1201.11,-439.01C1195.47,-426.02 1190.02,-408.01 1193.5,-392 1203.05,-348.08 1219.26,-341.91 1235.5,-300 1244.94,-275.62 1249.45,-269.83 1253.5,-244 1258.89,-209.6 1261.43,-190.07 1234.5,-168 1192.58,-133.63 1039.83,-125.33 952.28,-123.45"/>
<polygon fill="midnightblue" stroke="midnightblue" points="1198.04,-440.7 1205.5,-448.22 1204.36,-437.69 1198.04,-440.7"/>
</g>
<!-- Node16&#45;&gt;Node14 -->
<g id="edge70" class="edge">
<title>Node16&#45;&gt;Node14</title>
<path fill="none" stroke="midnightblue" d="M1135.87,-457.38C888.41,-457.65 110.5,-450.3 110.5,-347 110.5,-347 110.5,-347 110.5,-177 110.5,-132.05 154.38,-92.65 176.31,-75.76"/>
<polygon fill="midnightblue" stroke="midnightblue" points="1136.21,-460.88 1146.2,-457.36 1136.2,-453.88 1136.21,-460.88"/>
</g>
<!-- Node17 -->
<g id="node17" class="node">
<title>Node17</title>
<g id="a_node17"><a xlink:href="../../d3/d2c/a00764.html" target="_top" xlink:title=" ">
<polygon fill="none" stroke="black" points="966,-392.5 966,-411.5 1063,-411.5 1063,-392.5 966,-392.5"/>
<text text-anchor="middle" x="1014.5" y="-399.5" font-family="Helvetica,sans-Serif" font-size="10.00">UserEntities.hpp</text>
</a>
</g>
</g>
<!-- Node16&#45;&gt;Node17 -->
<g id="edge17" class="edge">
<title>Node16&#45;&gt;Node17</title>
<path fill="none" stroke="midnightblue" d="M1169.48,-445.7C1132.49,-435.51 1078.9,-420.74 1045.41,-411.52"/>
<polygon fill="midnightblue" stroke="midnightblue" points="1168.87,-449.16 1179.44,-448.44 1170.73,-442.41 1168.87,-449.16"/>
</g>
<!-- Node31 -->
<g id="node31" class="node">
<title>Node31</title>
<g id="a_node31"><a xlink:href="../../d0/d7e/a00770.html" target="_top" xlink:title=" ">
<polygon fill="none" stroke="black" points="1375,-280.5 1375,-299.5 1494,-299.5 1494,-280.5 1375,-280.5"/>
<text text-anchor="middle" x="1434.5" y="-287.5" font-family="Helvetica,sans-Serif" font-size="10.00">VoiceConnection.hpp</text>
</a>
</g>
</g>
<!-- Node16&#45;&gt;Node31 -->
<g id="edge61" class="edge">
<title>Node16&#45;&gt;Node31</title>
<path fill="none" stroke="midnightblue" d="M1240.48,-444.24C1258.28,-436.09 1280.92,-424.69 1299.5,-412 1352.25,-375.95 1406.23,-320.99 1426.32,-299.78"/>
<polygon fill="midnightblue" stroke="midnightblue" points="1238.84,-441.14 1231.14,-448.43 1241.7,-447.53 1238.84,-441.14"/>
</g>
<!-- Node32 -->
<g id="node32" class="node">
<title>Node32</title>
<g id="a_node32"><a xlink:href="../../df/d4c/a00851.html" target="_top" xlink:title=" ">
<polygon fill="none" stroke="black" points="1202.5,-392.5 1202.5,-411.5 1290.5,-411.5 1290.5,-392.5 1202.5,-392.5"/>
<text text-anchor="middle" x="1246.5" y="-399.5" font-family="Helvetica,sans-Serif" font-size="10.00">SSLClients.cpp</text>
</a>
</g>
</g>
<!-- Node16&#45;&gt;Node32 -->
<g id="edge69" class="edge">
<title>Node16&#45;&gt;Node32</title>
<path fill="none" stroke="midnightblue" d="M1222.12,-439.57C1228.32,-430.27 1235.67,-419.25 1240.67,-411.75"/>
<polygon fill="midnightblue" stroke="midnightblue" points="1219.08,-437.82 1216.44,-448.08 1224.9,-441.7 1219.08,-437.82"/>
</g>
<!-- Node17&#45;&gt;Node2 -->
<g id="edge18" class="edge">
<title>Node17&#45;&gt;Node2</title>
<path fill="none" stroke="midnightblue" d="M1073.07,-396.7C1104.68,-391.49 1142.27,-380.22 1167.5,-356 1229.56,-296.44 1269.99,-232.87 1213.5,-168 1180.31,-129.88 1036.63,-123.02 952.16,-122.37"/>
<polygon fill="midnightblue" stroke="midnightblue" points="1072.43,-393.26 1063.05,-398.19 1073.45,-400.18 1072.43,-393.26"/>
</g>
<!-- Node17&#45;&gt;Node5 -->
<g id="edge55" class="edge">
<title>Node17&#45;&gt;Node5</title>
<path fill="none" stroke="midnightblue" d="M955.27,-399.33C810.94,-394.9 444.21,-381.45 324.5,-356 242.94,-338.66 148.5,-374.39 148.5,-291 148.5,-291 148.5,-291 148.5,-233 148.5,-128.38 284.69,-89.62 379.66,-75.31"/>
<polygon fill="midnightblue" stroke="midnightblue" points="955.57,-402.84 965.68,-399.64 955.79,-395.84 955.57,-402.84"/>
</g>
<!-- Node17&#45;&gt;Node8 -->
<g id="edge58" class="edge">
<title>Node17&#45;&gt;Node8</title>
<path fill="none" stroke="midnightblue" d="M1073.27,-390.65C1108.19,-383.37 1152.87,-372.03 1190.5,-356 1255.69,-328.24 1427.04,-249.91 1461.5,-188 1512.85,-95.75 1516.44,-182.37 1286.5,-112 1243.62,-98.88 1193.76,-84.46 1162.67,-75.57"/>
<polygon fill="midnightblue" stroke="midnightblue" points="1072.33,-387.27 1063.23,-392.69 1073.72,-394.13 1072.33,-387.27"/>
</g>
<!-- Node18 -->
<g id="node18" class="node">
<title>Node18</title>
<g id="a_node18"><a xlink:href="../../d1/d56/a00707.html" target="_top" xlink:title=" ">
<polygon fill="none" stroke="black" points="509,-168.5 509,-187.5 616,-187.5 616,-168.5 509,-168.5"/>
<text text-anchor="middle" x="562.5" y="-175.5" font-family="Helvetica,sans-Serif" font-size="10.00">EventManager.hpp</text>
</a>
</g>
</g>
<!-- Node17&#45;&gt;Node18 -->
<g id="edge19" class="edge">
<title>Node17&#45;&gt;Node18</title>
<path fill="none" stroke="midnightblue" d="M955.56,-399.01C830.23,-393.4 543.99,-372.73 486.5,-300 478.2,-289.5 470.69,-255.67 489.5,-224 499.99,-206.34 520.39,-194.64 536.96,-187.61"/>
<polygon fill="midnightblue" stroke="midnightblue" points="955.6,-402.52 965.74,-399.45 955.9,-395.53 955.6,-402.52"/>
</g>
<!-- Node19 -->
<g id="node19" class="node">
<title>Node19</title>
<g id="a_node19"><a xlink:href="../../d2/d94/a00716.html" target="_top" xlink:title=" ">
<polygon fill="none" stroke="black" points="731.5,-336.5 731.5,-355.5 871.5,-355.5 871.5,-336.5 731.5,-336.5"/>
<text text-anchor="middle" x="801.5" y="-343.5" font-family="Helvetica,sans-Serif" font-size="10.00">GuildMemberEntities.hpp</text>
</a>
</g>
</g>
<!-- Node17&#45;&gt;Node19 -->
<g id="edge23" class="edge">
<title>Node17&#45;&gt;Node19</title>
<path fill="none" stroke="midnightblue" d="M970.95,-389.96C930.72,-379.76 871.8,-364.82 835.09,-355.52"/>
<polygon fill="midnightblue" stroke="midnightblue" points="970.2,-393.38 980.75,-392.44 971.92,-386.59 970.2,-393.38"/>
</g>
<!-- Node22 -->
<g id="node22" class="node">
<title>Node22</title>
<g id="a_node22"><a xlink:href="../../df/d0e/a00800.html" target="_top" xlink:title=" ">
<polygon fill="none" stroke="black" points="348.5,-168.5 348.5,-187.5 490.5,-187.5 490.5,-168.5 348.5,-168.5"/>
<text text-anchor="middle" x="419.5" y="-175.5" font-family="Helvetica,sans-Serif" font-size="10.00">DataParsingFunctions.cpp</text>
</a>
</g>
</g>
<!-- Node17&#45;&gt;Node22 -->
<g id="edge56" class="edge">
<title>Node17&#45;&gt;Node22</title>
<path fill="none" stroke="midnightblue" d="M955.63,-399.73C845.97,-396.65 614.87,-386.64 541.5,-356 476.25,-328.76 456.86,-308.78 428.5,-244 420.28,-225.21 419.17,-200.71 419.23,-187.82"/>
<polygon fill="midnightblue" stroke="midnightblue" points="955.77,-403.23 965.86,-400 955.96,-396.23 955.77,-403.23"/>
</g>
<!-- Node23 -->
<g id="node23" class="node">
<title>Node23</title>
<g id="a_node23"><a xlink:href="../../d8/d2d/a00815.html" target="_top" xlink:title=" ">
<polygon fill="none" stroke="black" points="982.5,-168.5 982.5,-187.5 1110.5,-187.5 1110.5,-168.5 982.5,-168.5"/>
<text text-anchor="middle" x="1046.5" y="-175.5" font-family="Helvetica,sans-Serif" font-size="10.00">FoundationEntities.cpp</text>
</a>
</g>
</g>
<!-- Node17&#45;&gt;Node23 -->
<g id="edge57" class="edge">
<title>Node17&#45;&gt;Node23</title>
<path fill="none" stroke="midnightblue" d="M1017.2,-382.3C1023.78,-336.64 1040.47,-220.85 1045.22,-187.88"/>
<polygon fill="midnightblue" stroke="midnightblue" points="1013.72,-381.9 1015.75,-392.3 1020.65,-382.9 1013.72,-381.9"/>
</g>
<!-- Node25 -->
<g id="node25" class="node">
<title>Node25</title>
<g id="a_node25"><a xlink:href="../../d3/db2/a00869.html" target="_top" xlink:title=" ">
<polygon fill="none" stroke="black" points="1129,-168.5 1129,-187.5 1204,-187.5 1204,-168.5 1129,-168.5"/>
<text text-anchor="middle" x="1166.5" y="-175.5" font-family="Helvetica,sans-Serif" font-size="10.00">Utilities.cpp</text>
</a>
</g>
</g>
<!-- Node17&#45;&gt;Node25 -->
<g id="edge60" class="edge">
<title>Node17&#45;&gt;Node25</title>
<path fill="none" stroke="midnightblue" d="M1073.14,-395.42C1099.88,-389.74 1129.52,-378.43 1147.5,-356 1188.87,-304.4 1174.35,-215.38 1168.47,-187.56"/>
<polygon fill="midnightblue" stroke="midnightblue" points="1072.23,-392.03 1063.06,-397.34 1073.54,-398.91 1072.23,-392.03"/>
</g>
<!-- Node28 -->
<g id="node28" class="node">
<title>Node28</title>
<g id="a_node28"><a xlink:href="../../dd/db2/a00737.html" target="_top" xlink:title=" ">
<polygon fill="none" stroke="black" points="219,-224.5 219,-243.5 336,-243.5 336,-224.5 219,-224.5"/>
<text text-anchor="middle" x="277.5" y="-231.5" font-family="Helvetica,sans-Serif" font-size="10.00">ReactionEntities.hpp</text>
</a>
</g>
</g>
<!-- Node17&#45;&gt;Node28 -->
<g id="edge50" class="edge">
<title>Node17&#45;&gt;Node28</title>
<path fill="none" stroke="midnightblue" d="M955.62,-400.09C802.73,-397.31 401.45,-387.09 350.5,-356 307.15,-329.55 286.17,-266.76 279.73,-243.69"/>
<polygon fill="midnightblue" stroke="midnightblue" points="955.7,-403.59 965.76,-400.27 955.82,-396.6 955.7,-403.59"/>
</g>
<!-- Node30 -->
<g id="node30" class="node">
<title>Node30</title>
<g id="a_node30"><a xlink:href="../../dd/db2/a00866.html" target="_top" xlink:title=" ">
<polygon fill="none" stroke="black" points="1042.5,-336.5 1042.5,-355.5 1138.5,-355.5 1138.5,-336.5 1042.5,-336.5"/>
<text text-anchor="middle" x="1090.5" y="-343.5" font-family="Helvetica,sans-Serif" font-size="10.00">UserEntities.cpp</text>
</a>
</g>
</g>
<!-- Node17&#45;&gt;Node30 -->
<g id="edge59" class="edge">
<title>Node17&#45;&gt;Node30</title>
<path fill="none" stroke="midnightblue" d="M1035.08,-386.38C1048.81,-376.62 1066.43,-364.11 1078.07,-355.83"/>
<polygon fill="midnightblue" stroke="midnightblue" points="1032.84,-383.68 1026.71,-392.32 1036.89,-389.38 1032.84,-383.68"/>
</g>
<!-- Node18&#45;&gt;Node2 -->
<g id="edge20" class="edge">
<title>Node18&#45;&gt;Node2</title>
<path fill="none" stroke="midnightblue" d="M624.32,-166.79C686.11,-156.59 780.03,-141.08 837.93,-131.52"/>
<polygon fill="midnightblue" stroke="midnightblue" points="623.61,-163.36 614.31,-168.44 624.75,-170.27 623.61,-163.36"/>
</g>
<!-- Node18&#45;&gt;Node7 -->
<g id="edge21" class="edge">
<title>Node18&#45;&gt;Node7</title>
<path fill="none" stroke="midnightblue" d="M508.3,-166.52C462.88,-157.64 396.37,-144.41 338.5,-132 248.68,-112.74 143.4,-88.22 89.43,-75.51"/>
<polygon fill="midnightblue" stroke="midnightblue" points="507.74,-169.98 518.23,-168.46 509.08,-163.11 507.74,-169.98"/>
</g>
<!-- Node18&#45;&gt;Node14 -->
<g id="edge22" class="edge">
<title>Node18&#45;&gt;Node14</title>
<path fill="none" stroke="midnightblue" d="M523.44,-165.51C448.06,-143.34 284.13,-95.13 217.52,-75.53"/>
<polygon fill="midnightblue" stroke="midnightblue" points="522.88,-169 533.46,-168.46 524.86,-162.28 522.88,-169"/>
</g>
<!-- Node19&#45;&gt;Node2 -->
<g id="edge24" class="edge">
<title>Node19&#45;&gt;Node2</title>
<path fill="none" stroke="midnightblue" d="M721.44,-334.81C697.65,-328.26 673.24,-317.53 655.5,-300 630.81,-275.6 620.35,-254.18 637.5,-224 675.05,-157.92 765.28,-135.01 826.92,-127.11"/>
<polygon fill="midnightblue" stroke="midnightblue" points="720.66,-338.22 731.21,-337.28 722.38,-331.44 720.66,-338.22"/>
</g>
<!-- Node19&#45;&gt;Node18 -->
<g id="edge25" class="edge">
<title>Node19&#45;&gt;Node18</title>
<path fill="none" stroke="midnightblue" d="M721,-344.28C642.24,-341.66 530.19,-332.17 502.5,-300 480.46,-274.4 487.39,-254.21 502.5,-224 510.94,-207.11 529.07,-194.92 543.2,-187.52"/>
<polygon fill="midnightblue" stroke="midnightblue" points="721.3,-347.79 731.4,-344.59 721.51,-340.79 721.3,-347.79"/>
</g>
<!-- Node20 -->
<g id="node20" class="node">
<title>Node20</title>
<g id="a_node20"><a xlink:href="../../dc/dce/a00740.html" target="_top" xlink:title=" ">
<polygon fill="none" stroke="black" points="753.5,-280.5 753.5,-299.5 849.5,-299.5 849.5,-280.5 753.5,-280.5"/>
<text text-anchor="middle" x="801.5" y="-287.5" font-family="Helvetica,sans-Serif" font-size="10.00">RoleEntities.hpp</text>
</a>
</g>
</g>
<!-- Node19&#45;&gt;Node20 -->
<g id="edge26" class="edge">
<title>Node19&#45;&gt;Node20</title>
<path fill="none" stroke="midnightblue" d="M801.5,-325.8C801.5,-316.91 801.5,-306.78 801.5,-299.75"/>
<polygon fill="midnightblue" stroke="midnightblue" points="798,-326.08 801.5,-336.08 805,-326.08 798,-326.08"/>
</g>
<!-- Node19&#45;&gt;Node22 -->
<g id="edge46" class="edge">
<title>Node19&#45;&gt;Node22</title>
<path fill="none" stroke="midnightblue" d="M721.35,-341.6C640.83,-336.78 523.52,-325.52 486.5,-300 445.57,-271.79 427.03,-210.09 421.43,-187.5"/>
<polygon fill="midnightblue" stroke="midnightblue" points="721.29,-345.1 731.47,-342.18 721.69,-338.11 721.29,-345.1"/>
</g>
<!-- Node19&#45;&gt;Node23 -->
<g id="edge47" class="edge">
<title>Node19&#45;&gt;Node23</title>
<path fill="none" stroke="midnightblue" d="M831.47,-332.32C869.62,-315.39 936.58,-282.95 986.5,-244 1008.54,-226.81 1029.57,-201.21 1039.88,-187.84"/>
<polygon fill="midnightblue" stroke="midnightblue" points="829.72,-329.27 821.96,-336.49 832.52,-335.68 829.72,-329.27"/>
</g>
<!-- Node24 -->
<g id="node24" class="node">
<title>Node24</title>
<g id="a_node24"><a xlink:href="../../d6/d8b/a00821.html" target="_top" xlink:title=" ">
<polygon fill="none" stroke="black" points="748.5,-168.5 748.5,-187.5 888.5,-187.5 888.5,-168.5 748.5,-168.5"/>
<text text-anchor="middle" x="818.5" y="-175.5" font-family="Helvetica,sans-Serif" font-size="10.00">GuildMemberEntities.cpp</text>
</a>
</g>
</g>
<!-- Node19&#45;&gt;Node24 -->
<g id="edge48" class="edge">
<title>Node19&#45;&gt;Node24</title>
<path fill="none" stroke="midnightblue" d="M762.98,-333.14C706.81,-313.86 612.97,-272.9 650.5,-224 663.64,-206.87 714.52,-194.84 756.88,-187.55"/>
<polygon fill="midnightblue" stroke="midnightblue" points="762.06,-336.53 772.66,-336.38 764.28,-329.89 762.06,-336.53"/>
</g>
<!-- Node19&#45;&gt;Node25 -->
<g id="edge49" class="edge">
<title>Node19&#45;&gt;Node25</title>
<path fill="none" stroke="midnightblue" d="M839.13,-333.24C864.9,-324.84 899.68,-312.78 929.5,-300 1015.91,-262.95 1114.7,-208.34 1151.59,-187.51"/>
<polygon fill="midnightblue" stroke="midnightblue" points="837.82,-329.99 829.37,-336.39 839.97,-336.65 837.82,-329.99"/>
</g>
<!-- Node27 -->
<g id="node27" class="node">
<title>Node27</title>
<g id="a_node27"><a xlink:href="../../d0/d0a/a00743.html" target="_top" xlink:title=" ">
<polygon fill="none" stroke="black" points="1375,-168.5 1375,-187.5 1452,-187.5 1452,-168.5 1375,-168.5"/>
<text text-anchor="middle" x="1413.5" y="-175.5" font-family="Helvetica,sans-Serif" font-size="10.00">SongAPI.hpp</text>
</a>
</g>
</g>
<!-- Node19&#45;&gt;Node27 -->
<g id="edge42" class="edge">
<title>Node19&#45;&gt;Node27</title>
<path fill="none" stroke="midnightblue" d="M842.96,-333.75C958.12,-302.52 1280.06,-215.19 1382.07,-187.52"/>
<polygon fill="midnightblue" stroke="midnightblue" points="841.85,-330.43 833.12,-336.42 843.68,-337.18 841.85,-330.43"/>
</g>
<!-- Node20&#45;&gt;Node2 -->
<g id="edge27" class="edge">
<title>Node20&#45;&gt;Node2</title>
<path fill="none" stroke="midnightblue" d="M804.34,-270.06C805.43,-256.31 804.8,-237.79 796.5,-224 781.04,-198.33 753.96,-214.24 739.5,-188 735.21,-180.22 734.19,-175.13 739.5,-168 759.54,-141.06 795.16,-129.64 826.65,-125.04"/>
<polygon fill="midnightblue" stroke="midnightblue" points="800.83,-269.93 803.15,-280.27 807.78,-270.74 800.83,-269.93"/>
</g>
<!-- Node20&#45;&gt;Node8 -->
<g id="edge39" class="edge">
<title>Node20&#45;&gt;Node8</title>
<path fill="none" stroke="midnightblue" d="M792.31,-271.15C785.11,-257.75 774.51,-239.17 763.5,-224 750.93,-206.68 739.11,-208.01 731.5,-188 728.34,-179.69 727.24,-175.8 731.5,-168 807.09,-29.45 918.37,-99.09 1074.5,-76 1077.22,-75.6 1080.01,-75.18 1082.83,-74.75"/>
<polygon fill="midnightblue" stroke="midnightblue" points="789.34,-273.03 797.1,-280.25 795.54,-269.77 789.34,-273.03"/>
</g>
<!-- Node20&#45;&gt;Node18 -->
<g id="edge28" class="edge">
<title>Node20&#45;&gt;Node18</title>
<path fill="none" stroke="midnightblue" d="M749.2,-278.15C719.33,-270.81 681.73,-259.58 650.5,-244 619.23,-228.39 587.45,-201.64 572.05,-187.83"/>
<polygon fill="midnightblue" stroke="midnightblue" points="748.47,-281.58 759.01,-280.5 750.1,-274.77 748.47,-281.58"/>
</g>
<!-- Node21 -->
<g id="node21" class="node">
<title>Node21</title>
<g id="a_node21"><a xlink:href="../../d1/d04/a00713.html" target="_top" xlink:title=" ">
<polygon fill="none" stroke="black" points="848.5,-224.5 848.5,-243.5 948.5,-243.5 948.5,-224.5 848.5,-224.5"/>
<text text-anchor="middle" x="898.5" y="-231.5" font-family="Helvetica,sans-Serif" font-size="10.00">GuildEntities.hpp</text>
</a>
</g>
</g>
<!-- Node20&#45;&gt;Node21 -->
<g id="edge29" class="edge">
<title>Node20&#45;&gt;Node21</title>
<path fill="none" stroke="midnightblue" d="M825.84,-275.45C843.74,-265.48 867.55,-252.23 882.95,-243.65"/>
<polygon fill="midnightblue" stroke="midnightblue" points="824.12,-272.4 817.08,-280.32 827.52,-278.52 824.12,-272.4"/>
</g>
<!-- Node20&#45;&gt;Node22 -->
<g id="edge37" class="edge">
<title>Node20&#45;&gt;Node22</title>
<path fill="none" stroke="midnightblue" d="M751.87,-278.17C714.23,-269.67 661.34,-257.12 615.5,-244 552.6,-225.99 479.77,-200.63 443.14,-187.54"/>
<polygon fill="midnightblue" stroke="midnightblue" points="751.54,-281.68 762.06,-280.46 753.07,-274.85 751.54,-281.68"/>
</g>
<!-- Node20&#45;&gt;Node23 -->
<g id="edge38" class="edge">
<title>Node20&#45;&gt;Node23</title>
<path fill="none" stroke="midnightblue" d="M856.49,-278.11C887.18,-270.82 925.55,-259.66 957.5,-244 989.11,-228.5 1021.26,-201.7 1036.84,-187.86"/>
<polygon fill="midnightblue" stroke="midnightblue" points="855.35,-274.78 846.4,-280.43 856.93,-281.6 855.35,-274.78"/>
</g>
<!-- Node20&#45;&gt;Node25 -->
<g id="edge41" class="edge">
<title>Node20&#45;&gt;Node25</title>
<path fill="none" stroke="midnightblue" d="M852.04,-278.25C889.45,-269.93 941.51,-257.55 986.5,-244 1044.72,-226.46 1111.68,-200.78 1145.14,-187.56"/>
<polygon fill="midnightblue" stroke="midnightblue" points="850.9,-274.92 841.89,-280.49 852.41,-281.76 850.9,-274.92"/>
</g>
<!-- Node26 -->
<g id="node26" class="node">
<title>Node26</title>
<g id="a_node26"><a xlink:href="../../d0/d11/a00842.html" target="_top" xlink:title=" ">
<polygon fill="none" stroke="black" points="659,-224.5 659,-243.5 754,-243.5 754,-224.5 659,-224.5"/>
<text text-anchor="middle" x="706.5" y="-231.5" font-family="Helvetica,sans-Serif" font-size="10.00">RoleEntities.cpp</text>
</a>
</g>
</g>
<!-- Node20&#45;&gt;Node26 -->
<g id="edge40" class="edge">
<title>Node20&#45;&gt;Node26</title>
<path fill="none" stroke="midnightblue" d="M777.18,-275.18C759.7,-265.24 736.67,-252.15 721.73,-243.65"/>
<polygon fill="midnightblue" stroke="midnightblue" points="775.81,-278.43 786.24,-280.32 779.27,-272.34 775.81,-278.43"/>
</g>
<!-- Node21&#45;&gt;Node2 -->
<g id="edge30" class="edge">
<title>Node21&#45;&gt;Node2</title>
<path fill="none" stroke="midnightblue" d="M899.01,-214.09C899.16,-201.1 898.98,-183.47 897.5,-168 896.27,-155.2 893.39,-140.58 891.45,-131.57"/>
<polygon fill="midnightblue" stroke="midnightblue" points="895.51,-214.08 898.81,-224.14 902.51,-214.21 895.51,-214.08"/>
</g>
<!-- Node21&#45;&gt;Node8 -->
<g id="edge34" class="edge">
<title>Node21&#45;&gt;Node8</title>
<path fill="none" stroke="midnightblue" d="M915.21,-217.24C930.03,-203.59 952.51,-183.63 973.5,-168 1023.86,-130.5 1088.12,-92.44 1117.1,-75.75"/>
<polygon fill="midnightblue" stroke="midnightblue" points="912.77,-214.74 907.83,-224.11 917.53,-219.86 912.77,-214.74"/>
</g>
<!-- Node21&#45;&gt;Node18 -->
<g id="edge31" class="edge">
<title>Node21&#45;&gt;Node18</title>
<path fill="none" stroke="midnightblue" d="M837.95,-223.27C774.59,-213.09 676.09,-197.26 615.65,-187.54"/>
<polygon fill="midnightblue" stroke="midnightblue" points="837.77,-226.78 848.2,-224.92 838.88,-219.87 837.77,-226.78"/>
</g>
<!-- Node21&#45;&gt;Node22 -->
<g id="edge32" class="edge">
<title>Node21&#45;&gt;Node22</title>
<path fill="none" stroke="midnightblue" d="M838,-226.18C749.5,-216.2 585.07,-197.67 490.82,-187.04"/>
<polygon fill="midnightblue" stroke="midnightblue" points="837.81,-229.68 848.14,-227.32 838.6,-222.72 837.81,-229.68"/>
</g>
<!-- Node21&#45;&gt;Node23 -->
<g id="edge33" class="edge">
<title>Node21&#45;&gt;Node23</title>
<path fill="none" stroke="midnightblue" d="M931.65,-220.91C959.47,-210.75 998.52,-196.51 1023.16,-187.52"/>
<polygon fill="midnightblue" stroke="midnightblue" points="930.15,-217.73 921.95,-224.44 932.54,-224.3 930.15,-217.73"/>
</g>
<!-- Node21&#45;&gt;Node24 -->
<g id="edge35" class="edge">
<title>Node21&#45;&gt;Node24</title>
<path fill="none" stroke="midnightblue" d="M877.2,-218.62C862.58,-208.76 843.67,-195.99 831.32,-187.65"/>
<polygon fill="midnightblue" stroke="midnightblue" points="875.4,-221.63 885.65,-224.32 879.32,-215.83 875.4,-221.63"/>
</g>
<!-- Node21&#45;&gt;Node25 -->
<g id="edge36" class="edge">
<title>Node21&#45;&gt;Node25</title>
<path fill="none" stroke="midnightblue" d="M951.07,-222.41C1003.47,-211.85 1082.63,-195.9 1128.99,-186.56"/>
<polygon fill="midnightblue" stroke="midnightblue" points="950.08,-219.04 940.97,-224.44 951.46,-225.9 950.08,-219.04"/>
</g>
<!-- Node27&#45;&gt;Node2 -->
<g id="edge43" class="edge">
<title>Node27&#45;&gt;Node2</title>
<path fill="none" stroke="midnightblue" d="M1364.45,-168.54C1363.12,-168.35 1361.8,-168.17 1360.5,-168 1214.74,-148.69 1042.54,-134.38 952.14,-127.52"/>
<polygon fill="midnightblue" stroke="midnightblue" points="1364.35,-172.07 1374.76,-170.09 1365.39,-165.14 1364.35,-172.07"/>
</g>
<!-- Node27&#45;&gt;Node8 -->
<g id="edge44" class="edge">
<title>Node27&#45;&gt;Node8</title>
<path fill="none" stroke="midnightblue" d="M1381.79,-164.59C1324.22,-142.05 1203.9,-94.95 1154.45,-75.59"/>
<polygon fill="midnightblue" stroke="midnightblue" points="1380.86,-167.98 1391.45,-168.37 1383.41,-161.46 1380.86,-167.98"/>
</g>
<!-- Node27&#45;&gt;Node11 -->
<g id="edge45" class="edge">
<title>Node27&#45;&gt;Node11</title>
<path fill="none" stroke="midnightblue" d="M1393.48,-162.12C1362.06,-138.77 1302.19,-94.27 1277.06,-75.59"/>
<polygon fill="midnightblue" stroke="midnightblue" points="1391.77,-165.21 1401.89,-168.37 1395.95,-159.59 1391.77,-165.21"/>
</g>
<!-- Node28&#45;&gt;Node2 -->
<g id="edge51" class="edge">
<title>Node28&#45;&gt;Node2</title>
<path fill="none" stroke="midnightblue" d="M246.1,-220.33C219.14,-207.71 187.28,-187.46 205.5,-168 247.44,-123.21 665.78,-121.38 826.8,-122.36"/>
<polygon fill="midnightblue" stroke="midnightblue" points="244.78,-223.58 255.34,-224.47 247.64,-217.19 244.78,-223.58"/>
</g>
<!-- Node28&#45;&gt;Node18 -->
<g id="edge52" class="edge">
<title>Node28&#45;&gt;Node18</title>
<path fill="none" stroke="midnightblue" d="M332.72,-222.54C386.58,-212.33 467.5,-197 517.55,-187.52"/>
<polygon fill="midnightblue" stroke="midnightblue" points="331.83,-219.14 322.66,-224.44 333.14,-226.02 331.83,-219.14"/>
</g>
<!-- Node28&#45;&gt;Node22 -->
<g id="edge53" class="edge">
<title>Node28&#45;&gt;Node22</title>
<path fill="none" stroke="midnightblue" d="M309.66,-220.77C336.33,-210.63 373.57,-196.47 397.1,-187.52"/>
<polygon fill="midnightblue" stroke="midnightblue" points="308.1,-217.62 300,-224.44 310.59,-224.16 308.1,-217.62"/>
</g>
<!-- Node29 -->
<g id="node29" class="node">
<title>Node29</title>
<g id="a_node29"><a xlink:href="../../df/de8/a00839.html" target="_top" xlink:title=" ">
<polygon fill="none" stroke="black" points="214.5,-168.5 214.5,-187.5 330.5,-187.5 330.5,-168.5 214.5,-168.5"/>
<text text-anchor="middle" x="272.5" y="-175.5" font-family="Helvetica,sans-Serif" font-size="10.00">ReactionEntities.cpp</text>
</a>
</g>
</g>
<!-- Node28&#45;&gt;Node29 -->
<g id="edge54" class="edge">
<title>Node28&#45;&gt;Node29</title>
<path fill="none" stroke="midnightblue" d="M275.75,-214.1C274.92,-205.14 273.97,-194.86 273.31,-187.75"/>
<polygon fill="midnightblue" stroke="midnightblue" points="272.27,-214.45 276.67,-224.08 279.24,-213.8 272.27,-214.45"/>
</g>
<!-- Node31&#45;&gt;Node2 -->
<g id="edge62" class="edge">
<title>Node31&#45;&gt;Node2</title>
<path fill="none" stroke="midnightblue" d="M1424.18,-271.42C1407,-243.97 1369.7,-191.61 1322.5,-168 1259.13,-136.3 1056.31,-126.9 952.3,-124.13"/>
<polygon fill="midnightblue" stroke="midnightblue" points="1421.4,-273.58 1429.59,-280.31 1427.38,-269.95 1421.4,-273.58"/>
</g>
<!-- Node31&#45;&gt;Node11 -->
<g id="edge65" class="edge">
<title>Node31&#45;&gt;Node11</title>
<path fill="none" stroke="midnightblue" d="M1454.49,-273.82C1463.67,-265.87 1473.95,-255.43 1480.5,-244 1497.59,-214.21 1513.26,-196.77 1494.5,-168 1471.42,-132.6 1351.22,-92.69 1294.8,-75.56"/>
<polygon fill="midnightblue" stroke="midnightblue" points="1452.02,-271.32 1446.51,-280.37 1456.46,-276.73 1452.02,-271.32"/>
</g>
<!-- Node31&#45;&gt;Node12 -->
<g id="edge66" class="edge">
<title>Node31&#45;&gt;Node12</title>
<path fill="none" stroke="midnightblue" d="M1487.2,-277.13C1504.65,-270.42 1522.23,-260.02 1532.5,-244 1564.17,-194.61 1567.73,-158.91 1532.5,-112 1520.13,-95.53 1470.86,-83.14 1431.14,-75.57"/>
<polygon fill="midnightblue" stroke="midnightblue" points="1485.86,-273.89 1477.57,-280.49 1488.16,-280.5 1485.86,-273.89"/>
</g>
<!-- Node31&#45;&gt;Node13 -->
<g id="edge67" class="edge">
<title>Node31&#45;&gt;Node13</title>
<path fill="none" stroke="midnightblue" d="M1492.4,-277.6C1513.37,-270.9 1535.75,-260.39 1551.5,-244 1569.71,-225.05 1566.22,-213.93 1570.5,-188 1576.15,-153.75 1570.25,-141.83 1552.5,-112 1543.88,-97.51 1529.8,-83.97 1520.11,-75.6"/>
<polygon fill="midnightblue" stroke="midnightblue" points="1491.17,-274.31 1482.57,-280.5 1493.16,-281.02 1491.17,-274.31"/>
</g>
<!-- Node31&#45;&gt;Node15 -->
<g id="edge68" class="edge">
<title>Node31&#45;&gt;Node15</title>
<path fill="none" stroke="midnightblue" d="M1503.87,-279.19C1527.89,-272.7 1553.32,-261.92 1571.5,-244 1621.04,-195.17 1630.38,-104.29 1632.11,-75.79"/>
<polygon fill="midnightblue" stroke="midnightblue" points="1502.91,-275.82 1494.05,-281.64 1504.6,-282.62 1502.91,-275.82"/>
</g>
<!-- Node31&#45;&gt;Node21 -->
<g id="edge63" class="edge">
<title>Node31&#45;&gt;Node21</title>
<path fill="none" stroke="midnightblue" d="M1364.86,-281.98C1255.16,-270.93 1044.74,-249.73 948.62,-240.05"/>
<polygon fill="midnightblue" stroke="midnightblue" points="1364.53,-285.47 1374.83,-282.99 1365.23,-278.5 1364.53,-285.47"/>
</g>
<!-- Node31&#45;&gt;Node27 -->
<g id="edge64" class="edge">
<title>Node31&#45;&gt;Node27</title>
<path fill="none" stroke="midnightblue" d="M1430.94,-270.35C1426.34,-246.25 1418.52,-205.31 1415.14,-187.59"/>
<polygon fill="midnightblue" stroke="midnightblue" points="1427.54,-271.2 1432.85,-280.37 1434.41,-269.89 1427.54,-271.2"/>
</g>
</g>
</svg>
