<?xml version="1.0" encoding="UTF-8" standalone="no"?>
<!DOCTYPE svg PUBLIC "-//W3C//DTD SVG 1.1//EN"
 "http://www.w3.org/Graphics/SVG/1.1/DTD/svg11.dtd">
<!-- Generated by graphviz version 3.0.0 (20220226.1711)
 -->
<!-- Title: ErlPacker.hpp Pages: 1 -->
<svg width="1643pt" height="532pt"
 viewBox="0.00 0.00 1643.00 532.00" xmlns="http://www.w3.org/2000/svg" xmlns:xlink="http://www.w3.org/1999/xlink">
<g id="graph0" class="graph" transform="scale(1 1) rotate(0) translate(4 528)">
<title>ErlPacker.hpp</title>
<!-- Node1 -->
<g id="node1" class="node">
<title>Node1</title>
<g id="a_node1"><a xlink:title=" ">
<polygon fill="#bfbfbf" stroke="black" points="1090,-504.5 1090,-523.5 1168,-523.5 1168,-504.5 1090,-504.5"/>
<text text-anchor="middle" x="1129" y="-511.5" font-family="Helvetica,sans-Serif" font-size="10.00">ErlPacker.hpp</text>
</a>
</g>
</g>
<!-- Node2 -->
<g id="node2" class="node">
<title>Node2</title>
<g id="a_node2"><a xlink:href="../../d8/db7/a00812.html" target="_top" xlink:title=" ">
<polygon fill="none" stroke="black" points="1032,-448.5 1032,-467.5 1110,-467.5 1110,-448.5 1032,-448.5"/>
<text text-anchor="middle" x="1071" y="-455.5" font-family="Helvetica,sans-Serif" font-size="10.00">ErlPacker.cpp</text>
</a>
</g>
</g>
<!-- Node1&#45;&gt;Node2 -->
<g id="edge1" class="edge">
<title>Node1&#45;&gt;Node2</title>
<path fill="none" stroke="midnightblue" d="M1112.09,-497.25C1101.8,-487.67 1089.03,-475.79 1080.49,-467.83"/>
<polygon fill="midnightblue" stroke="midnightblue" points="1109.98,-500.07 1119.68,-504.32 1114.75,-494.95 1109.98,-500.07"/>
</g>
<!-- Node3 -->
<g id="node3" class="node">
<title>Node3</title>
<g id="a_node3"><a xlink:href="../../d9/dd4/a00776.html" target="_top" xlink:title=" ">
<polygon fill="none" stroke="black" points="1128.5,-448.5 1128.5,-467.5 1247.5,-467.5 1247.5,-448.5 1128.5,-448.5"/>
<text text-anchor="middle" x="1188" y="-455.5" font-family="Helvetica,sans-Serif" font-size="10.00">WebSocketEntities.hpp</text>
</a>
</g>
</g>
<!-- Node1&#45;&gt;Node3 -->
<g id="edge2" class="edge">
<title>Node1&#45;&gt;Node3</title>
<path fill="none" stroke="midnightblue" d="M1145.89,-497.54C1156.41,-487.91 1169.57,-475.87 1178.35,-467.83"/>
<polygon fill="midnightblue" stroke="midnightblue" points="1143.49,-494.99 1138.48,-504.32 1148.22,-500.15 1143.49,-494.99"/>
</g>
<!-- Node4 -->
<g id="node4" class="node">
<title>Node4</title>
<g id="a_node4"><a xlink:href="../../df/dbb/a00698.html" target="_top" xlink:title=" ">
<polygon fill="none" stroke="black" points="841.5,-112.5 841.5,-131.5 954.5,-131.5 954.5,-112.5 841.5,-112.5"/>
<text text-anchor="middle" x="898" y="-119.5" font-family="Helvetica,sans-Serif" font-size="10.00">DiscordCoreClient.hpp</text>
</a>
</g>
</g>
<!-- Node3&#45;&gt;Node4 -->
<g id="edge3" class="edge">
<title>Node3&#45;&gt;Node4</title>
<path fill="none" stroke="midnightblue" d="M1127.7,-446.66C1045.23,-431.57 893.29,-400.41 769,-356 715.09,-336.74 702.98,-327.92 653,-300 572.39,-254.96 522.33,-269.01 478,-188 473.73,-180.2 472.06,-174.61 478,-168 501.86,-141.44 732.49,-129.25 841.48,-124.93"/>
<polygon fill="midnightblue" stroke="midnightblue" points="1127.19,-450.12 1137.66,-448.46 1128.44,-443.23 1127.19,-450.12"/>
</g>
<!-- Node16 -->
<g id="node16" class="node">
<title>Node16</title>
<g id="a_node16"><a xlink:href="../../df/d41/a00881.html" target="_top" xlink:title=" ">
<polygon fill="none" stroke="black" points="1264.5,-56.5 1264.5,-75.5 1383.5,-75.5 1383.5,-56.5 1264.5,-56.5"/>
<text text-anchor="middle" x="1324" y="-63.5" font-family="Helvetica,sans-Serif" font-size="10.00">WebSocketEntities.cpp</text>
</a>
</g>
</g>
<!-- Node3&#45;&gt;Node16 -->
<g id="edge70" class="edge">
<title>Node3&#45;&gt;Node16</title>
<path fill="none" stroke="midnightblue" d="M1257.66,-448.44C1355.81,-434.4 1523,-402.35 1523,-347 1523,-347 1523,-347 1523,-177 1523,-112.66 1442.32,-85.65 1383.71,-74.53"/>
<polygon fill="midnightblue" stroke="midnightblue" points="1256.92,-445.01 1247.51,-449.86 1257.89,-451.94 1256.92,-445.01"/>
</g>
<!-- Node18 -->
<g id="node18" class="node">
<title>Node18</title>
<g id="a_node18"><a xlink:href="../../d6/d2f/a00854.html" target="_top" xlink:title=" ">
<polygon fill="none" stroke="black" points="1551,-392.5 1551,-411.5 1635,-411.5 1635,-392.5 1551,-392.5"/>
<text text-anchor="middle" x="1593" y="-399.5" font-family="Helvetica,sans-Serif" font-size="10.00">SSLClients.cpp</text>
</a>
</g>
</g>
<!-- Node3&#45;&gt;Node18 -->
<g id="edge17" class="edge">
<title>Node3&#45;&gt;Node18</title>
<path fill="none" stroke="midnightblue" d="M1257.76,-448.65C1328.28,-440.06 1440.33,-426 1537,-412 1541.48,-411.35 1546.16,-410.64 1550.82,-409.92"/>
<polygon fill="midnightblue" stroke="midnightblue" points="1257.17,-445.2 1247.67,-449.88 1258.02,-452.15 1257.17,-445.2"/>
</g>
<!-- Node19 -->
<g id="node19" class="node">
<title>Node19</title>
<g id="a_node19"><a xlink:href="../../d3/d2c/a00764.html" target="_top" xlink:title=" ">
<polygon fill="none" stroke="black" points="1143.5,-392.5 1143.5,-411.5 1232.5,-411.5 1232.5,-392.5 1143.5,-392.5"/>
<text text-anchor="middle" x="1188" y="-399.5" font-family="Helvetica,sans-Serif" font-size="10.00">UserEntities.hpp</text>
</a>
</g>
</g>
<!-- Node3&#45;&gt;Node19 -->
<g id="edge18" class="edge">
<title>Node3&#45;&gt;Node19</title>
<path fill="none" stroke="midnightblue" d="M1188,-437.8C1188,-428.91 1188,-418.78 1188,-411.75"/>
<polygon fill="midnightblue" stroke="midnightblue" points="1184.5,-438.08 1188,-448.08 1191.5,-438.08 1184.5,-438.08"/>
</g>
<!-- Node33 -->
<g id="node33" class="node">
<title>Node33</title>
<g id="a_node33"><a xlink:href="../../d0/d7e/a00770.html" target="_top" xlink:title=" ">
<polygon fill="none" stroke="black" points="153.5,-280.5 153.5,-299.5 262.5,-299.5 262.5,-280.5 153.5,-280.5"/>
<text text-anchor="middle" x="208" y="-287.5" font-family="Helvetica,sans-Serif" font-size="10.00">VoiceConnection.hpp</text>
</a>
</g>
</g>
<!-- Node3&#45;&gt;Node33 -->
<g id="edge62" class="edge">
<title>Node3&#45;&gt;Node33</title>
<path fill="none" stroke="midnightblue" d="M1118.2,-448.17C993.23,-440.77 393.32,-449.42 315,-412 262.37,-386.85 224.63,-322.69 212.32,-299.51"/>
<polygon fill="midnightblue" stroke="midnightblue" points="1117.97,-451.66 1128.19,-448.88 1118.47,-444.68 1117.97,-451.66"/>
</g>
<!-- Node5 -->
<g id="node5" class="node">
<title>Node5</title>
<g id="a_node5"><a xlink:href="../../da/d96/a00782.html" target="_top" xlink:title=" ">
<polygon fill="none" stroke="black" points="449.5,-56.5 449.5,-75.5 610.5,-75.5 610.5,-56.5 449.5,-56.5"/>
<text text-anchor="middle" x="530" y="-63.5" font-family="Helvetica,sans-Serif" font-size="10.00">ApplicationCommandEntities.cpp</text>
</a>
</g>
</g>
<!-- Node4&#45;&gt;Node5 -->
<g id="edge4" class="edge">
<title>Node4&#45;&gt;Node5</title>
<path fill="none" stroke="midnightblue" d="M831.34,-111.22C761.85,-101.02 654.05,-85.2 587.97,-75.51"/>
<polygon fill="midnightblue" stroke="midnightblue" points="830.9,-114.69 841.31,-112.68 831.92,-107.77 830.9,-114.69"/>
</g>
<!-- Node6 -->
<g id="node6" class="node">
<title>Node6</title>
<g id="a_node6"><a xlink:href="../../d0/dad/a00806.html" target="_top" xlink:title=" ">
<polygon fill="none" stroke="black" points="737.5,-56.5 737.5,-75.5 850.5,-75.5 850.5,-56.5 737.5,-56.5"/>
<text text-anchor="middle" x="794" y="-63.5" font-family="Helvetica,sans-Serif" font-size="10.00">DiscordCoreClient.cpp</text>
</a>
</g>
</g>
<!-- Node4&#45;&gt;Node6 -->
<g id="edge5" class="edge">
<title>Node4&#45;&gt;Node6</title>
<path fill="none" stroke="midnightblue" d="M872.17,-107.59C852.94,-97.61 827.26,-84.27 810.67,-75.65"/>
<polygon fill="midnightblue" stroke="midnightblue" points="870.8,-110.82 881.29,-112.32 874.03,-104.61 870.8,-110.82"/>
</g>
<!-- Node7 -->
<g id="node7" class="node">
<title>Node7</title>
<g id="a_node7"><a xlink:href="../../d8/d2d/a00815.html" target="_top" xlink:title=" ">
<polygon fill="none" stroke="black" points="1149.5,-56.5 1149.5,-75.5 1246.5,-75.5 1246.5,-56.5 1149.5,-56.5"/>
<text text-anchor="middle" x="1198" y="-63.5" font-family="Helvetica,sans-Serif" font-size="10.00">EventManager.cpp</text>
</a>
</g>
</g>
<!-- Node4&#45;&gt;Node7 -->
<g id="edge6" class="edge">
<title>Node4&#45;&gt;Node7</title>
<path fill="none" stroke="midnightblue" d="M955.42,-110.66C1012.12,-100.46 1097.79,-85.04 1150.69,-75.52"/>
<polygon fill="midnightblue" stroke="midnightblue" points="954.76,-107.23 945.54,-112.44 956,-114.12 954.76,-107.23"/>
</g>
<!-- Node8 -->
<g id="node8" class="node">
<title>Node8</title>
<g id="a_node8"><a xlink:href="../../d6/d8b/a00821.html" target="_top" xlink:title=" ">
<polygon fill="none" stroke="black" points="628.5,-56.5 628.5,-75.5 719.5,-75.5 719.5,-56.5 628.5,-56.5"/>
<text text-anchor="middle" x="674" y="-63.5" font-family="Helvetica,sans-Serif" font-size="10.00">GuildEntities.cpp</text>
</a>
</g>
</g>
<!-- Node4&#45;&gt;Node8 -->
<g id="edge7" class="edge">
<title>Node4&#45;&gt;Node8</title>
<path fill="none" stroke="midnightblue" d="M852.74,-110.09C810.42,-99.89 748.09,-84.86 709.33,-75.52"/>
<polygon fill="midnightblue" stroke="midnightblue" points="851.96,-113.5 862.51,-112.44 853.61,-106.7 851.96,-113.5"/>
</g>
<!-- Node9 -->
<g id="node9" class="node">
<title>Node9</title>
<g id="a_node9"><a xlink:href="../../d9/daf/a00830.html" target="_top" xlink:title=" ">
<polygon fill="none" stroke="black" points="868.5,-56.5 868.5,-75.5 927.5,-75.5 927.5,-56.5 868.5,-56.5"/>
<text text-anchor="middle" x="898" y="-63.5" font-family="Helvetica,sans-Serif" font-size="10.00">Https.cpp</text>
</a>
</g>
</g>
<!-- Node4&#45;&gt;Node9 -->
<g id="edge8" class="edge">
<title>Node4&#45;&gt;Node9</title>
<path fill="none" stroke="midnightblue" d="M898,-101.8C898,-92.91 898,-82.78 898,-75.75"/>
<polygon fill="midnightblue" stroke="midnightblue" points="894.5,-102.08 898,-112.08 901.5,-102.08 894.5,-102.08"/>
</g>
<!-- Node10 -->
<g id="node10" class="node">
<title>Node10</title>
<g id="a_node10"><a xlink:href="../../d8/db9/a00725.html" target="_top" xlink:title=" ">
<polygon fill="none" stroke="black" points="945.5,-56.5 945.5,-75.5 1004.5,-75.5 1004.5,-56.5 945.5,-56.5"/>
<text text-anchor="middle" x="975" y="-63.5" font-family="Helvetica,sans-Serif" font-size="10.00">Index.hpp</text>
</a>
</g>
</g>
<!-- Node4&#45;&gt;Node10 -->
<g id="edge9" class="edge">
<title>Node4&#45;&gt;Node10</title>
<path fill="none" stroke="midnightblue" d="M918.9,-106.34C932.91,-96.52 950.88,-83.91 962.66,-75.65"/>
<polygon fill="midnightblue" stroke="midnightblue" points="916.55,-103.72 910.37,-112.32 920.57,-109.45 916.55,-103.72"/>
</g>
<!-- Node12 -->
<g id="node12" class="node">
<title>Node12</title>
<g id="a_node12"><a xlink:href="../../df/de8/a00839.html" target="_top" xlink:title=" ">
<polygon fill="none" stroke="black" points="1023,-56.5 1023,-75.5 1131,-75.5 1131,-56.5 1023,-56.5"/>
<text text-anchor="middle" x="1077" y="-63.5" font-family="Helvetica,sans-Serif" font-size="10.00">MessageEntities.cpp</text>
</a>
</g>
</g>
<!-- Node4&#45;&gt;Node12 -->
<g id="edge11" class="edge">
<title>Node4&#45;&gt;Node12</title>
<path fill="none" stroke="midnightblue" d="M936.33,-109.44C970.08,-99.26 1018.45,-84.66 1048.77,-75.52"/>
<polygon fill="midnightblue" stroke="midnightblue" points="934.93,-106.2 926.36,-112.44 936.95,-112.91 934.93,-106.2"/>
</g>
<!-- Node13 -->
<g id="node13" class="node">
<title>Node13</title>
<g id="a_node13"><a xlink:href="../../d9/d30/a00848.html" target="_top" xlink:title=" ">
<polygon fill="none" stroke="black" points="357,-56.5 357,-75.5 431,-75.5 431,-56.5 357,-56.5"/>
<text text-anchor="middle" x="394" y="-63.5" font-family="Helvetica,sans-Serif" font-size="10.00">SongAPI.cpp</text>
</a>
</g>
</g>
<!-- Node4&#45;&gt;Node13 -->
<g id="edge12" class="edge">
<title>Node4&#45;&gt;Node13</title>
<path fill="none" stroke="midnightblue" d="M831.39,-116.45C742.03,-109.9 578.53,-96.31 440,-76 437.1,-75.58 434.11,-75.09 431.1,-74.57"/>
<polygon fill="midnightblue" stroke="midnightblue" points="831.15,-119.95 841.38,-117.18 831.66,-112.97 831.15,-119.95"/>
</g>
<!-- Node14 -->
<g id="node14" class="node">
<title>Node14</title>
<g id="a_node14"><a xlink:href="../../df/d4c/a00851.html" target="_top" xlink:title=" ">
<polygon fill="none" stroke="black" points="0,-56.5 0,-75.5 104,-75.5 104,-56.5 0,-56.5"/>
<text text-anchor="middle" x="52" y="-63.5" font-family="Helvetica,sans-Serif" font-size="10.00">SoundCloudAPI.cpp</text>
</a>
</g>
</g>
<!-- Node4&#45;&gt;Node14 -->
<g id="edge13" class="edge">
<title>Node4&#45;&gt;Node14</title>
<path fill="none" stroke="midnightblue" d="M830.98,-119.17C695.21,-115.03 378.04,-103.09 113,-76 110.12,-75.71 107.18,-75.37 104.21,-75.02"/>
<polygon fill="midnightblue" stroke="midnightblue" points="831.12,-122.68 841.22,-119.48 831.33,-115.68 831.12,-122.68"/>
</g>
<!-- Node15 -->
<g id="node15" class="node">
<title>Node15</title>
<g id="a_node15"><a xlink:href="../../d1/d93/a00875.html" target="_top" xlink:title=" ">
<polygon fill="none" stroke="black" points="122.5,-56.5 122.5,-75.5 231.5,-75.5 231.5,-56.5 122.5,-56.5"/>
<text text-anchor="middle" x="177" y="-63.5" font-family="Helvetica,sans-Serif" font-size="10.00">VoiceConnection.cpp</text>
</a>
</g>
</g>
<!-- Node4&#45;&gt;Node15 -->
<g id="edge14" class="edge">
<title>Node4&#45;&gt;Node15</title>
<path fill="none" stroke="midnightblue" d="M831.05,-118.05C711.94,-112.44 455.48,-98.73 240,-76 237.25,-75.71 234.44,-75.39 231.61,-75.05"/>
<polygon fill="midnightblue" stroke="midnightblue" points="830.96,-121.55 841.11,-118.52 831.28,-114.56 830.96,-121.55"/>
</g>
<!-- Node4&#45;&gt;Node16 -->
<g id="edge15" class="edge">
<title>Node4&#45;&gt;Node16</title>
<path fill="none" stroke="midnightblue" d="M965.02,-112.71C1036.97,-103.78 1154.59,-89.08 1256,-76 1258.72,-75.65 1261.49,-75.29 1264.3,-74.92"/>
<polygon fill="midnightblue" stroke="midnightblue" points="964.24,-109.28 954.75,-113.98 965.1,-116.23 964.24,-109.28"/>
</g>
<!-- Node17 -->
<g id="node17" class="node">
<title>Node17</title>
<g id="a_node17"><a xlink:href="../../dd/d08/a00884.html" target="_top" xlink:title=" ">
<polygon fill="none" stroke="black" points="249.5,-56.5 249.5,-75.5 338.5,-75.5 338.5,-56.5 249.5,-56.5"/>
<text text-anchor="middle" x="294" y="-63.5" font-family="Helvetica,sans-Serif" font-size="10.00">YouTubeAPI.cpp</text>
</a>
</g>
</g>
<!-- Node4&#45;&gt;Node17 -->
<g id="edge16" class="edge">
<title>Node4&#45;&gt;Node17</title>
<path fill="none" stroke="midnightblue" d="M831.22,-117.34C727.53,-111.25 521.67,-97.54 348,-76 344.98,-75.63 341.87,-75.2 338.75,-74.75"/>
<polygon fill="midnightblue" stroke="midnightblue" points="831.04,-120.84 841.23,-117.92 831.45,-113.85 831.04,-120.84"/>
</g>
<!-- Node11 -->
<g id="node11" class="node">
<title>Node11</title>
<g id="a_node11"><a xlink:href="../../dd/d7e/a00809.html" target="_top" xlink:title=" ">
<polygon fill="none" stroke="black" points="941,-0.5 941,-19.5 1009,-19.5 1009,-0.5 941,-0.5"/>
<text text-anchor="middle" x="975" y="-7.5" font-family="Helvetica,sans-Serif" font-size="10.00">DllMain.cpp</text>
</a>
</g>
</g>
<!-- Node10&#45;&gt;Node11 -->
<g id="edge10" class="edge">
<title>Node10&#45;&gt;Node11</title>
<path fill="none" stroke="midnightblue" d="M975,-45.8C975,-36.91 975,-26.78 975,-19.75"/>
<polygon fill="midnightblue" stroke="midnightblue" points="971.5,-46.08 975,-56.08 978.5,-46.08 971.5,-46.08"/>
</g>
<!-- Node19&#45;&gt;Node4 -->
<g id="edge21" class="edge">
<title>Node19&#45;&gt;Node4</title>
<path fill="none" stroke="midnightblue" d="M1200.08,-383.79C1205.05,-375.74 1210.28,-365.78 1213,-356 1235.63,-274.68 1248.79,-224.42 1186,-168 1152.83,-138.19 1028.82,-128.1 954.78,-124.7"/>
<polygon fill="midnightblue" stroke="midnightblue" points="1197.09,-381.97 1194.52,-392.25 1202.94,-385.81 1197.09,-381.97"/>
</g>
<!-- Node19&#45;&gt;Node5 -->
<g id="edge19" class="edge">
<title>Node19&#45;&gt;Node5</title>
<path fill="none" stroke="midnightblue" d="M1132.97,-401.21C1040.12,-400.43 847.01,-393.87 689,-356 607.91,-336.57 294.06,-220.72 272,-188 224.49,-117.55 356.86,-87.17 449.13,-74.8"/>
<polygon fill="midnightblue" stroke="midnightblue" points="1133.22,-404.72 1143.25,-401.28 1133.27,-397.72 1133.22,-404.72"/>
</g>
<!-- Node19&#45;&gt;Node8 -->
<g id="edge27" class="edge">
<title>Node19&#45;&gt;Node8</title>
<path fill="none" stroke="midnightblue" d="M1132.84,-401.03C1051.61,-399.75 895.73,-392.22 769,-356 625.41,-314.96 549.69,-319 478,-188 442.58,-123.28 560.02,-89 628.38,-74.9"/>
<polygon fill="midnightblue" stroke="midnightblue" points="1133.27,-404.53 1143.32,-401.17 1133.37,-397.53 1133.27,-404.53"/>
</g>
<!-- Node20 -->
<g id="node20" class="node">
<title>Node20</title>
<g id="a_node20"><a xlink:href="../../d5/d72/a00803.html" target="_top" xlink:title=" ">
<polygon fill="none" stroke="black" points="1045.5,-168.5 1045.5,-187.5 1176.5,-187.5 1176.5,-168.5 1045.5,-168.5"/>
<text text-anchor="middle" x="1111" y="-175.5" font-family="Helvetica,sans-Serif" font-size="10.00">DataParsingFunctions.cpp</text>
</a>
</g>
</g>
<!-- Node19&#45;&gt;Node20 -->
<g id="edge20" class="edge">
<title>Node19&#45;&gt;Node20</title>
<path fill="none" stroke="midnightblue" d="M1192.91,-382.13C1200.67,-347.99 1212.1,-274.81 1183,-224 1172.89,-206.35 1152.76,-194.65 1136.34,-187.62"/>
<polygon fill="midnightblue" stroke="midnightblue" points="1189.44,-381.58 1190.48,-392.12 1196.24,-383.23 1189.44,-381.58"/>
</g>
<!-- Node21 -->
<g id="node21" class="node">
<title>Node21</title>
<g id="a_node21"><a xlink:href="../../d1/d56/a00707.html" target="_top" xlink:title=" ">
<polygon fill="none" stroke="black" points="1233.5,-168.5 1233.5,-187.5 1330.5,-187.5 1330.5,-168.5 1233.5,-168.5"/>
<text text-anchor="middle" x="1282" y="-175.5" font-family="Helvetica,sans-Serif" font-size="10.00">EventManager.hpp</text>
</a>
</g>
</g>
<!-- Node19&#45;&gt;Node21 -->
<g id="edge22" class="edge">
<title>Node19&#45;&gt;Node21</title>
<path fill="none" stroke="midnightblue" d="M1242.69,-395.05C1290.99,-388.53 1356.12,-376.23 1372,-356 1417.12,-298.51 1325.79,-214.85 1293.06,-187.79"/>
<polygon fill="midnightblue" stroke="midnightblue" points="1242.13,-391.59 1232.67,-396.35 1243.04,-398.53 1242.13,-391.59"/>
</g>
<!-- Node22 -->
<g id="node22" class="node">
<title>Node22</title>
<g id="a_node22"><a xlink:href="../../d3/d60/a00818.html" target="_top" xlink:title=" ">
<polygon fill="none" stroke="black" points="487,-168.5 487,-187.5 603,-187.5 603,-168.5 487,-168.5"/>
<text text-anchor="middle" x="545" y="-175.5" font-family="Helvetica,sans-Serif" font-size="10.00">FoundationEntities.cpp</text>
</a>
</g>
</g>
<!-- Node19&#45;&gt;Node22 -->
<g id="edge26" class="edge">
<title>Node19&#45;&gt;Node22</title>
<path fill="none" stroke="midnightblue" d="M1133.31,-399.54C1037.95,-394.98 837.26,-376.27 689,-300 629.18,-269.23 572.39,-209.63 552.49,-187.52"/>
<polygon fill="midnightblue" stroke="midnightblue" points="1133.16,-403.04 1143.31,-399.99 1133.48,-396.05 1133.16,-403.04"/>
</g>
<!-- Node23 -->
<g id="node23" class="node">
<title>Node23</title>
<g id="a_node23"><a xlink:href="../../d2/d94/a00716.html" target="_top" xlink:title=" ">
<polygon fill="none" stroke="black" points="916,-336.5 916,-355.5 1042,-355.5 1042,-336.5 916,-336.5"/>
<text text-anchor="middle" x="979" y="-343.5" font-family="Helvetica,sans-Serif" font-size="10.00">GuildMemberEntities.hpp</text>
</a>
</g>
</g>
<!-- Node19&#45;&gt;Node23 -->
<g id="edge28" class="edge">
<title>Node19&#45;&gt;Node23</title>
<path fill="none" stroke="midnightblue" d="M1145.02,-389.89C1105.55,-379.7 1047.9,-364.8 1011.96,-355.52"/>
<polygon fill="midnightblue" stroke="midnightblue" points="1144.33,-393.33 1154.88,-392.44 1146.08,-386.55 1144.33,-393.33"/>
</g>
<!-- Node27 -->
<g id="node27" class="node">
<title>Node27</title>
<g id="a_node27"><a xlink:href="../../dc/d17/a00872.html" target="_top" xlink:title=" ">
<polygon fill="none" stroke="black" points="919,-168.5 919,-187.5 987,-187.5 987,-168.5 919,-168.5"/>
<text text-anchor="middle" x="953" y="-175.5" font-family="Helvetica,sans-Serif" font-size="10.00">Utilities.cpp</text>
</a>
</g>
</g>
<!-- Node19&#45;&gt;Node27 -->
<g id="edge61" class="edge">
<title>Node19&#45;&gt;Node27</title>
<path fill="none" stroke="midnightblue" d="M1171.44,-385.35C1125.49,-341.95 997.5,-221.04 962.15,-187.64"/>
<polygon fill="midnightblue" stroke="midnightblue" points="1169.11,-387.97 1178.79,-392.3 1173.92,-382.89 1169.11,-387.97"/>
</g>
<!-- Node30 -->
<g id="node30" class="node">
<title>Node30</title>
<g id="a_node30"><a xlink:href="../../dd/db2/a00737.html" target="_top" xlink:title=" ">
<polygon fill="none" stroke="black" points="1381.5,-224.5 1381.5,-243.5 1488.5,-243.5 1488.5,-224.5 1381.5,-224.5"/>
<text text-anchor="middle" x="1435" y="-231.5" font-family="Helvetica,sans-Serif" font-size="10.00">ReactionEntities.hpp</text>
</a>
</g>
</g>
<!-- Node19&#45;&gt;Node30 -->
<g id="edge55" class="edge">
<title>Node19&#45;&gt;Node30</title>
<path fill="none" stroke="midnightblue" d="M1242.84,-396.25C1299.32,-390.23 1382.23,-377.91 1405,-356 1437.13,-325.09 1436.98,-265.57 1435.69,-243.51"/>
<polygon fill="midnightblue" stroke="midnightblue" points="1242.21,-392.79 1232.62,-397.3 1242.93,-399.76 1242.21,-392.79"/>
</g>
<!-- Node32 -->
<g id="node32" class="node">
<title>Node32</title>
<g id="a_node32"><a xlink:href="../../d3/db2/a00869.html" target="_top" xlink:title=" ">
<polygon fill="none" stroke="black" points="1273.5,-336.5 1273.5,-355.5 1362.5,-355.5 1362.5,-336.5 1273.5,-336.5"/>
<text text-anchor="middle" x="1318" y="-343.5" font-family="Helvetica,sans-Serif" font-size="10.00">UserEntities.cpp</text>
</a>
</g>
</g>
<!-- Node19&#45;&gt;Node32 -->
<g id="edge60" class="edge">
<title>Node19&#45;&gt;Node32</title>
<path fill="none" stroke="midnightblue" d="M1218.09,-388.5C1242.46,-378.38 1276.14,-364.39 1297.5,-355.52"/>
<polygon fill="midnightblue" stroke="midnightblue" points="1216.49,-385.38 1208.6,-392.44 1219.18,-391.84 1216.49,-385.38"/>
</g>
<!-- Node21&#45;&gt;Node4 -->
<g id="edge23" class="edge">
<title>Node21&#45;&gt;Node4</title>
<path fill="none" stroke="midnightblue" d="M1222.92,-168.55C1221.6,-168.37 1220.29,-168.18 1219,-168 1126.37,-154.89 1018.67,-139.83 954.54,-130.88"/>
<polygon fill="midnightblue" stroke="midnightblue" points="1222.77,-172.07 1233.16,-170.01 1223.75,-165.14 1222.77,-172.07"/>
</g>
<!-- Node21&#45;&gt;Node7 -->
<g id="edge24" class="edge">
<title>Node21&#45;&gt;Node7</title>
<path fill="none" stroke="midnightblue" d="M1269.23,-160.27C1251.07,-136.49 1218.46,-93.79 1204.56,-75.59"/>
<polygon fill="midnightblue" stroke="midnightblue" points="1266.56,-162.54 1275.41,-168.37 1272.12,-158.3 1266.56,-162.54"/>
</g>
<!-- Node21&#45;&gt;Node16 -->
<g id="edge25" class="edge">
<title>Node21&#45;&gt;Node16</title>
<path fill="none" stroke="midnightblue" d="M1288.87,-159C1298.04,-135 1313.89,-93.47 1320.72,-75.59"/>
<polygon fill="midnightblue" stroke="midnightblue" points="1285.59,-157.78 1285.3,-168.37 1292.13,-160.27 1285.59,-157.78"/>
</g>
<!-- Node23&#45;&gt;Node4 -->
<g id="edge30" class="edge">
<title>Node23&#45;&gt;Node4</title>
<path fill="none" stroke="midnightblue" d="M987.42,-327.25C1002.16,-293.31 1028.16,-218.16 996,-168 983.82,-149.01 961.4,-137.93 941.07,-131.51"/>
<polygon fill="midnightblue" stroke="midnightblue" points="984.22,-325.83 983.28,-336.38 990.59,-328.72 984.22,-325.83"/>
</g>
<!-- Node23&#45;&gt;Node20 -->
<g id="edge29" class="edge">
<title>Node23&#45;&gt;Node20</title>
<path fill="none" stroke="midnightblue" d="M998.57,-330.2C1008.84,-321.93 1021.27,-311.07 1031,-300 1064.57,-261.78 1094.97,-208.54 1106.3,-187.78"/>
<polygon fill="midnightblue" stroke="midnightblue" points="996.26,-327.57 990.55,-336.5 1000.58,-333.07 996.26,-327.57"/>
</g>
<!-- Node23&#45;&gt;Node21 -->
<g id="edge31" class="edge">
<title>Node23&#45;&gt;Node21</title>
<path fill="none" stroke="midnightblue" d="M1003.7,-331.47C1063.88,-298.5 1216.81,-214.71 1266.29,-187.61"/>
<polygon fill="midnightblue" stroke="midnightblue" points="1001.95,-328.43 994.86,-336.31 1005.32,-334.57 1001.95,-328.43"/>
</g>
<!-- Node23&#45;&gt;Node22 -->
<g id="edge32" class="edge">
<title>Node23&#45;&gt;Node22</title>
<path fill="none" stroke="midnightblue" d="M905.74,-340.02C824.16,-331.39 691.39,-307.88 597,-244 574.74,-228.93 557.38,-201.45 549.54,-187.54"/>
<polygon fill="midnightblue" stroke="midnightblue" points="905.61,-343.52 915.91,-341.04 906.32,-336.56 905.61,-343.52"/>
</g>
<!-- Node24 -->
<g id="node24" class="node">
<title>Node24</title>
<g id="a_node24"><a xlink:href="../../d8/d1c/a00824.html" target="_top" xlink:title=" ">
<polygon fill="none" stroke="black" points="621,-168.5 621,-187.5 747,-187.5 747,-168.5 621,-168.5"/>
<text text-anchor="middle" x="684" y="-175.5" font-family="Helvetica,sans-Serif" font-size="10.00">GuildMemberEntities.cpp</text>
</a>
</g>
</g>
<!-- Node23&#45;&gt;Node24 -->
<g id="edge33" class="edge">
<title>Node23&#45;&gt;Node24</title>
<path fill="none" stroke="midnightblue" d="M908.92,-334.89C817.69,-320.06 666.15,-289.2 635,-244 620.73,-223.29 649.99,-199.95 669.15,-187.66"/>
<polygon fill="midnightblue" stroke="midnightblue" points="908.49,-338.36 918.92,-336.49 909.6,-331.45 908.49,-338.36"/>
</g>
<!-- Node25 -->
<g id="node25" class="node">
<title>Node25</title>
<g id="a_node25"><a xlink:href="../../dc/dce/a00740.html" target="_top" xlink:title=" ">
<polygon fill="none" stroke="black" points="791,-280.5 791,-299.5 879,-299.5 879,-280.5 791,-280.5"/>
<text text-anchor="middle" x="835" y="-287.5" font-family="Helvetica,sans-Serif" font-size="10.00">RoleEntities.hpp</text>
</a>
</g>
</g>
<!-- Node23&#45;&gt;Node25 -->
<g id="edge34" class="edge">
<title>Node23&#45;&gt;Node25</title>
<path fill="none" stroke="midnightblue" d="M946.75,-332.91C919.68,-322.75 881.68,-308.51 857.71,-299.52"/>
<polygon fill="midnightblue" stroke="midnightblue" points="945.59,-336.21 956.18,-336.44 948.05,-329.66 945.59,-336.21"/>
</g>
<!-- Node23&#45;&gt;Node27 -->
<g id="edge54" class="edge">
<title>Node23&#45;&gt;Node27</title>
<path fill="none" stroke="midnightblue" d="M976.01,-325.93C970.37,-289.92 958.36,-213.23 954.34,-187.57"/>
<polygon fill="midnightblue" stroke="midnightblue" points="972.6,-326.74 977.6,-336.08 979.51,-325.65 972.6,-326.74"/>
</g>
<!-- Node29 -->
<g id="node29" class="node">
<title>Node29</title>
<g id="a_node29"><a xlink:href="../../d0/d0a/a00743.html" target="_top" xlink:title=" ">
<polygon fill="none" stroke="black" points="281,-168.5 281,-187.5 355,-187.5 355,-168.5 281,-168.5"/>
<text text-anchor="middle" x="318" y="-175.5" font-family="Helvetica,sans-Serif" font-size="10.00">SongAPI.hpp</text>
</a>
</g>
</g>
<!-- Node23&#45;&gt;Node29 -->
<g id="edge50" class="edge">
<title>Node23&#45;&gt;Node29</title>
<path fill="none" stroke="midnightblue" d="M905.95,-336.98C846.92,-329.7 761.96,-317.44 689,-300 553.92,-267.71 397.27,-209.55 340.22,-187.65"/>
<polygon fill="midnightblue" stroke="midnightblue" points="905.57,-340.46 915.92,-338.19 906.42,-333.51 905.57,-340.46"/>
</g>
<!-- Node25&#45;&gt;Node4 -->
<g id="edge36" class="edge">
<title>Node25&#45;&gt;Node4</title>
<path fill="none" stroke="midnightblue" d="M833.88,-270.16C833.64,-256.96 834.42,-239.06 839,-224 850.4,-186.5 878.14,-148.14 891.11,-131.53"/>
<polygon fill="midnightblue" stroke="midnightblue" points="830.39,-270.51 834.28,-280.36 837.39,-270.23 830.39,-270.51"/>
</g>
<!-- Node25&#45;&gt;Node8 -->
<g id="edge39" class="edge">
<title>Node25&#45;&gt;Node8</title>
<path fill="none" stroke="midnightblue" d="M780.56,-281.46C737.58,-274.25 682.65,-261.84 669,-244 634.37,-198.74 717.2,-246.05 756,-188 784.2,-145.81 718.29,-95.69 688.1,-75.78"/>
<polygon fill="midnightblue" stroke="midnightblue" points="780.21,-284.94 790.64,-283.09 781.33,-278.03 780.21,-284.94"/>
</g>
<!-- Node25&#45;&gt;Node20 -->
<g id="edge35" class="edge">
<title>Node25&#45;&gt;Node20</title>
<path fill="none" stroke="midnightblue" d="M869.56,-277.19C894.78,-268.43 929.7,-255.96 960,-244 1008.05,-225.03 1063.64,-200.39 1092.09,-187.58"/>
<polygon fill="midnightblue" stroke="midnightblue" points="868.37,-273.9 860.07,-280.48 870.66,-280.52 868.37,-273.9"/>
</g>
<!-- Node25&#45;&gt;Node21 -->
<g id="edge37" class="edge">
<title>Node25&#45;&gt;Node21</title>
<path fill="none" stroke="midnightblue" d="M879.5,-278.05C968.56,-256.13 1167.05,-207.29 1247.32,-187.53"/>
<polygon fill="midnightblue" stroke="midnightblue" points="878.58,-274.67 869.7,-280.46 880.25,-281.47 878.58,-274.67"/>
</g>
<!-- Node25&#45;&gt;Node22 -->
<g id="edge38" class="edge">
<title>Node25&#45;&gt;Node22</title>
<path fill="none" stroke="midnightblue" d="M780.72,-282.82C739.38,-276.71 681.81,-265.1 635,-244 602.32,-229.27 569.62,-201.63 554.18,-187.62"/>
<polygon fill="midnightblue" stroke="midnightblue" points="780.47,-286.32 790.86,-284.26 781.45,-279.39 780.47,-286.32"/>
</g>
<!-- Node26 -->
<g id="node26" class="node">
<title>Node26</title>
<g id="a_node26"><a xlink:href="../../d1/d04/a00713.html" target="_top" xlink:title=" ">
<polygon fill="none" stroke="black" points="677.5,-224.5 677.5,-243.5 768.5,-243.5 768.5,-224.5 677.5,-224.5"/>
<text text-anchor="middle" x="723" y="-231.5" font-family="Helvetica,sans-Serif" font-size="10.00">GuildEntities.hpp</text>
</a>
</g>
</g>
<!-- Node25&#45;&gt;Node26 -->
<g id="edge40" class="edge">
<title>Node25&#45;&gt;Node26</title>
<path fill="none" stroke="midnightblue" d="M807.75,-275.86C786.98,-265.85 758.98,-252.35 740.95,-243.65"/>
<polygon fill="midnightblue" stroke="midnightblue" points="806.48,-279.13 817.01,-280.32 809.52,-272.83 806.48,-279.13"/>
</g>
<!-- Node25&#45;&gt;Node27 -->
<g id="edge49" class="edge">
<title>Node25&#45;&gt;Node27</title>
<path fill="none" stroke="midnightblue" d="M836.31,-270.26C838.21,-256.07 842.82,-236.9 854,-224 870.7,-204.74 897.31,-193.28 918.75,-186.75"/>
<polygon fill="midnightblue" stroke="midnightblue" points="832.82,-270.05 835.3,-280.35 839.78,-270.75 832.82,-270.05"/>
</g>
<!-- Node28 -->
<g id="node28" class="node">
<title>Node28</title>
<g id="a_node28"><a xlink:href="../../d7/dcf/a00845.html" target="_top" xlink:title=" ">
<polygon fill="none" stroke="black" points="863,-224.5 863,-243.5 951,-243.5 951,-224.5 863,-224.5"/>
<text text-anchor="middle" x="907" y="-231.5" font-family="Helvetica,sans-Serif" font-size="10.00">RoleEntities.cpp</text>
</a>
</g>
</g>
<!-- Node25&#45;&gt;Node28 -->
<g id="edge48" class="edge">
<title>Node25&#45;&gt;Node28</title>
<path fill="none" stroke="midnightblue" d="M854.87,-274.1C867.82,-264.38 884.3,-252.03 895.22,-243.83"/>
<polygon fill="midnightblue" stroke="midnightblue" points="852.47,-271.52 846.57,-280.32 856.67,-277.12 852.47,-271.52"/>
</g>
<!-- Node26&#45;&gt;Node4 -->
<g id="edge42" class="edge">
<title>Node26&#45;&gt;Node4</title>
<path fill="none" stroke="midnightblue" d="M758.43,-221.04C779.26,-213.2 805.62,-201.85 827,-188 852.81,-171.28 878.2,-145.02 890.43,-131.57"/>
<polygon fill="midnightblue" stroke="midnightblue" points="757.17,-217.77 748.99,-224.5 759.58,-224.35 757.17,-217.77"/>
</g>
<!-- Node26&#45;&gt;Node8 -->
<g id="edge45" class="edge">
<title>Node26&#45;&gt;Node8</title>
<path fill="none" stroke="midnightblue" d="M754.38,-219.83C767.58,-212.53 781.58,-202.05 789,-188 804.78,-158.14 808.04,-139.9 789,-112 779.42,-97.97 737.62,-84.06 707.17,-75.5"/>
<polygon fill="midnightblue" stroke="midnightblue" points="752.78,-216.72 745.46,-224.38 755.96,-222.96 752.78,-216.72"/>
</g>
<!-- Node26&#45;&gt;Node20 -->
<g id="edge41" class="edge">
<title>Node26&#45;&gt;Node20</title>
<path fill="none" stroke="midnightblue" d="M778.87,-225.22C850.85,-215.21 975.51,-197.86 1049.92,-187.5"/>
<polygon fill="midnightblue" stroke="midnightblue" points="778.07,-221.8 768.65,-226.65 779.04,-228.73 778.07,-221.8"/>
</g>
<!-- Node26&#45;&gt;Node21 -->
<g id="edge43" class="edge">
<title>Node26&#45;&gt;Node21</title>
<path fill="none" stroke="midnightblue" d="M778.93,-227.6C888.49,-217.01 1129.71,-193.71 1233.24,-183.71"/>
<polygon fill="midnightblue" stroke="midnightblue" points="778.36,-224.14 768.75,-228.58 779.04,-231.1 778.36,-224.14"/>
</g>
<!-- Node26&#45;&gt;Node22 -->
<g id="edge44" class="edge">
<title>Node26&#45;&gt;Node22</title>
<path fill="none" stroke="midnightblue" d="M684.88,-221.44C651.32,-211.26 603.23,-196.66 573.07,-187.52"/>
<polygon fill="midnightblue" stroke="midnightblue" points="684.21,-224.89 694.8,-224.44 686.24,-218.19 684.21,-224.89"/>
</g>
<!-- Node26&#45;&gt;Node24 -->
<g id="edge46" class="edge">
<title>Node26&#45;&gt;Node24</title>
<path fill="none" stroke="midnightblue" d="M710.62,-215.86C703.86,-206.5 695.79,-195.33 690.32,-187.75"/>
<polygon fill="midnightblue" stroke="midnightblue" points="707.87,-218.03 716.56,-224.08 713.54,-213.93 707.87,-218.03"/>
</g>
<!-- Node26&#45;&gt;Node27 -->
<g id="edge47" class="edge">
<title>Node26&#45;&gt;Node27</title>
<path fill="none" stroke="midnightblue" d="M769.38,-222.11C813.66,-211.71 879.34,-196.29 918.98,-186.99"/>
<polygon fill="midnightblue" stroke="midnightblue" points="768.38,-218.75 759.44,-224.44 769.98,-225.57 768.38,-218.75"/>
</g>
<!-- Node29&#45;&gt;Node4 -->
<g id="edge51" class="edge">
<title>Node29&#45;&gt;Node4</title>
<path fill="none" stroke="midnightblue" d="M365.26,-172.14C378.74,-170.77 393.45,-169.31 407,-168 564.2,-152.85 749.84,-136.16 841.28,-128.02"/>
<polygon fill="midnightblue" stroke="midnightblue" points="364.83,-168.66 355.23,-173.16 365.54,-175.63 364.83,-168.66"/>
</g>
<!-- Node29&#45;&gt;Node8 -->
<g id="edge52" class="edge">
<title>Node29&#45;&gt;Node8</title>
<path fill="none" stroke="midnightblue" d="M326.97,-159.11C335.58,-143.94 350.05,-122.96 369,-112 466.18,-55.81 508.05,-93.06 619,-76 622.06,-75.53 625.21,-75.04 628.39,-74.53"/>
<polygon fill="midnightblue" stroke="midnightblue" points="323.8,-157.61 322.17,-168.07 329.98,-160.91 323.8,-157.61"/>
</g>
<!-- Node29&#45;&gt;Node13 -->
<g id="edge53" class="edge">
<title>Node29&#45;&gt;Node13</title>
<path fill="none" stroke="midnightblue" d="M318.16,-158.03C319.09,-144.27 322.12,-125.74 331,-112 341.73,-95.41 360.91,-83.03 375.3,-75.5"/>
<polygon fill="midnightblue" stroke="midnightblue" points="314.65,-158.13 317.78,-168.26 321.64,-158.39 314.65,-158.13"/>
</g>
<!-- Node30&#45;&gt;Node4 -->
<g id="edge57" class="edge">
<title>Node30&#45;&gt;Node4</title>
<path fill="none" stroke="midnightblue" d="M1418.13,-217.52C1400.21,-202.07 1370.32,-179.09 1340,-168 1270.64,-142.62 1057.72,-130.03 954.83,-125.3"/>
<polygon fill="midnightblue" stroke="midnightblue" points="1416.11,-220.4 1425.92,-224.41 1420.75,-215.16 1416.11,-220.4"/>
</g>
<!-- Node30&#45;&gt;Node20 -->
<g id="edge56" class="edge">
<title>Node30&#45;&gt;Node20</title>
<path fill="none" stroke="midnightblue" d="M1373.74,-222.79C1312.52,-212.59 1219.47,-197.08 1162.1,-187.52"/>
<polygon fill="midnightblue" stroke="midnightblue" points="1373.22,-226.25 1383.66,-224.44 1374.37,-219.35 1373.22,-226.25"/>
</g>
<!-- Node30&#45;&gt;Node21 -->
<g id="edge58" class="edge">
<title>Node30&#45;&gt;Node21</title>
<path fill="none" stroke="midnightblue" d="M1401.11,-221.04C1372.32,-210.88 1331.71,-196.55 1306.13,-187.52"/>
<polygon fill="midnightblue" stroke="midnightblue" points="1400.16,-224.42 1410.76,-224.44 1402.49,-217.81 1400.16,-224.42"/>
</g>
<!-- Node31 -->
<g id="node31" class="node">
<title>Node31</title>
<g id="a_node31"><a xlink:href="../../d0/d11/a00842.html" target="_top" xlink:title=" ">
<polygon fill="none" stroke="black" points="1387.5,-168.5 1387.5,-187.5 1494.5,-187.5 1494.5,-168.5 1387.5,-168.5"/>
<text text-anchor="middle" x="1441" y="-175.5" font-family="Helvetica,sans-Serif" font-size="10.00">ReactionEntities.cpp</text>
</a>
</g>
</g>
<!-- Node30&#45;&gt;Node31 -->
<g id="edge59" class="edge">
<title>Node30&#45;&gt;Node31</title>
<path fill="none" stroke="midnightblue" d="M1437.1,-214.1C1438.1,-205.14 1439.24,-194.86 1440.03,-187.75"/>
<polygon fill="midnightblue" stroke="midnightblue" points="1433.62,-213.76 1435.99,-224.08 1440.57,-214.53 1433.62,-213.76"/>
</g>
<!-- Node33&#45;&gt;Node4 -->
<g id="edge63" class="edge">
<title>Node33&#45;&gt;Node4</title>
<path fill="none" stroke="midnightblue" d="M229.05,-274.8C269.09,-248.58 359.87,-192.99 445,-168 517.89,-146.6 736.78,-131.96 841.28,-126"/>
<polygon fill="midnightblue" stroke="midnightblue" points="227.05,-271.92 220.64,-280.36 230.91,-277.76 227.05,-271.92"/>
</g>
<!-- Node33&#45;&gt;Node13 -->
<g id="edge65" class="edge">
<title>Node33&#45;&gt;Node13</title>
<path fill="none" stroke="midnightblue" d="M205.41,-270.32C201.6,-234.75 198.79,-156.86 239,-112 247.02,-103.05 313.86,-85.9 357.11,-75.55"/>
<polygon fill="midnightblue" stroke="midnightblue" points="201.94,-270.78 206.63,-280.28 208.89,-269.93 201.94,-270.78"/>
</g>
<!-- Node33&#45;&gt;Node14 -->
<g id="edge67" class="edge">
<title>Node33&#45;&gt;Node14</title>
<path fill="none" stroke="midnightblue" d="M187.27,-274.5C176.53,-266.34 163.67,-255.49 154,-244 105.6,-186.46 67.41,-102.84 55.71,-75.79"/>
<polygon fill="midnightblue" stroke="midnightblue" points="185.2,-277.33 195.33,-280.43 189.35,-271.69 185.2,-277.33"/>
</g>
<!-- Node33&#45;&gt;Node15 -->
<g id="edge68" class="edge">
<title>Node33&#45;&gt;Node15</title>
<path fill="none" stroke="midnightblue" d="M186.83,-274.04C177.67,-266.26 167.92,-255.88 163,-244 137.99,-183.63 164,-101.86 173.69,-75.54"/>
<polygon fill="midnightblue" stroke="midnightblue" points="184.92,-276.99 194.94,-280.44 189.25,-271.49 184.92,-276.99"/>
</g>
<!-- Node33&#45;&gt;Node17 -->
<g id="edge69" class="edge">
<title>Node33&#45;&gt;Node17</title>
<path fill="none" stroke="midnightblue" d="M201.06,-270.83C189.29,-236.73 169.6,-162.08 201,-112 212.82,-93.16 235,-82.01 254.75,-75.52"/>
<polygon fill="midnightblue" stroke="midnightblue" points="197.83,-272.19 204.53,-280.39 204.41,-269.8 197.83,-272.19"/>
</g>
<!-- Node33&#45;&gt;Node26 -->
<g id="edge64" class="edge">
<title>Node33&#45;&gt;Node26</title>
<path fill="none" stroke="midnightblue" d="M272.84,-282.2C378.52,-271.12 585.32,-249.44 677.16,-239.81"/>
<polygon fill="midnightblue" stroke="midnightblue" points="272.21,-278.75 262.63,-283.27 272.94,-285.71 272.21,-278.75"/>
</g>
<!-- Node33&#45;&gt;Node29 -->
<g id="edge66" class="edge">
<title>Node33&#45;&gt;Node29</title>
<path fill="none" stroke="midnightblue" d="M223.79,-273.21C247.37,-249.63 290.97,-206.03 309.41,-187.59"/>
<polygon fill="midnightblue" stroke="midnightblue" points="221.23,-270.82 216.63,-280.37 226.18,-275.77 221.23,-270.82"/>
</g>
</g>
</svg>
