<?xml version="1.0" encoding="UTF-8" standalone="no"?>
<!DOCTYPE svg PUBLIC "-//W3C//DTD SVG 1.1//EN"
 "http://www.w3.org/Graphics/SVG/1.1/DTD/svg11.dtd">
<!-- Generated by graphviz version 2.43.0 (0)
 -->
<!-- Title: YouTubeAPI.hpp Pages: 1 -->
<svg width="1487pt" height="192pt"
 viewBox="0.00 0.00 1486.50 192.00" xmlns="http://www.w3.org/2000/svg" xmlns:xlink="http://www.w3.org/1999/xlink">
<g id="graph0" class="graph" transform="scale(1 1) rotate(0) translate(4 188)">
<title>YouTubeAPI.hpp</title>
<!-- Node1 -->
<g id="node1" class="node">
<title>Node1</title>
<g id="a_node1"><a xlink:title=" ">
<polygon fill="#bfbfbf" stroke="black" points="895.5,-184 803.5,-184 803.5,-165 895.5,-165 895.5,-184"/>
<text text-anchor="middle" x="849.5" y="-172" font-family="Helvetica,sans-Serif" font-size="10.00">YouTubeAPI.hpp</text>
</a>
</g>
</g>
<!-- Node2 -->
<g id="node2" class="node">
<title>Node2</title>
<g id="a_node2"><a xlink:href="../../db/d7c/a00722.html" target="_top" xlink:title=" ">
<polygon fill="none" stroke="black" points="867,-129 742,-129 742,-110 867,-110 867,-129"/>
<text text-anchor="middle" x="804.5" y="-117" font-family="Helvetica,sans-Serif" font-size="10.00">DiscordCoreClient.hpp</text>
</a>
</g>
</g>
<!-- Node1&#45;&gt;Node2 -->
<g id="edge1" class="edge">
<title>Node1&#45;&gt;Node2</title>
<path fill="none" stroke="midnightblue" d="M835.45,-156.96C827.61,-147.72 818.17,-136.6 811.79,-129.09"/>
<polygon fill="midnightblue" stroke="midnightblue" points="832.93,-159.39 842.07,-164.75 838.26,-154.86 832.93,-159.39"/>
</g>
<!-- Node6 -->
<g id="node6" class="node">
<title>Node6</title>
<g id="a_node6"><a xlink:href="../../d7/d49/a00863.html" target="_top" xlink:title=" ">
<polygon fill="none" stroke="black" points="99,-74 0,-74 0,-55 99,-55 99,-74"/>
<text text-anchor="middle" x="49.5" y="-62" font-family="Helvetica,sans-Serif" font-size="10.00">GuildEntities.cpp</text>
</a>
</g>
</g>
<!-- Node1&#45;&gt;Node6 -->
<g id="edge15" class="edge">
<title>Node1&#45;&gt;Node6</title>
<path fill="none" stroke="midnightblue" d="M793.45,-166.22C669.64,-150.09 363.52,-109.92 107.5,-74 104.78,-73.62 101.99,-73.22 99.17,-72.82"/>
<polygon fill="midnightblue" stroke="midnightblue" points="793.08,-169.7 803.45,-167.52 793.99,-162.76 793.08,-169.7"/>
</g>
<!-- Node11 -->
<g id="node11" class="node">
<title>Node11</title>
<g id="a_node11"><a xlink:href="../../df/d0c/a00788.html" target="_top" xlink:title=" ">
<polygon fill="none" stroke="black" points="1368,-74 1291,-74 1291,-55 1368,-55 1368,-74"/>
<text text-anchor="middle" x="1329.5" y="-62" font-family="Helvetica,sans-Serif" font-size="10.00">SongAPI.cpp</text>
</a>
</g>
</g>
<!-- Node1&#45;&gt;Node11 -->
<g id="edge16" class="edge">
<title>Node1&#45;&gt;Node11</title>
<path fill="none" stroke="midnightblue" d="M897.52,-162.69C992.97,-141.22 1204.78,-93.56 1291.43,-74.07"/>
<polygon fill="midnightblue" stroke="midnightblue" points="896.55,-159.33 887.57,-164.94 898.09,-166.15 896.55,-159.33"/>
</g>
<!-- Node15 -->
<g id="node15" class="node">
<title>Node15</title>
<g id="a_node15"><a xlink:href="../../dc/d1b/a00827.html" target="_top" xlink:title=" ">
<polygon fill="none" stroke="black" points="1478.5,-74 1386.5,-74 1386.5,-55 1478.5,-55 1478.5,-74"/>
<text text-anchor="middle" x="1432.5" y="-62" font-family="Helvetica,sans-Serif" font-size="10.00">YouTubeAPI.cpp</text>
</a>
</g>
</g>
<!-- Node1&#45;&gt;Node15 -->
<g id="edge17" class="edge">
<title>Node1&#45;&gt;Node15</title>
<path fill="none" stroke="midnightblue" d="M905.58,-164.02C957.28,-155.21 1036.13,-141.58 1104.5,-129 1207.04,-110.13 1327.29,-86.45 1389.83,-74.02"/>
<polygon fill="midnightblue" stroke="midnightblue" points="904.88,-160.59 895.61,-165.72 906.06,-167.49 904.88,-160.59"/>
</g>
<!-- Node3 -->
<g id="node3" class="node">
<title>Node3</title>
<g id="a_node3"><a xlink:href="../../d3/db2/a00869.html" target="_top" xlink:title=" ">
<polygon fill="none" stroke="black" points="296,-74 117,-74 117,-55 296,-55 296,-74"/>
<text text-anchor="middle" x="206.5" y="-62" font-family="Helvetica,sans-Serif" font-size="10.00">ApplicationCommandEntities.cpp</text>
</a>
</g>
</g>
<!-- Node2&#45;&gt;Node3 -->
<g id="edge2" class="edge">
<title>Node2&#45;&gt;Node3</title>
<path fill="none" stroke="midnightblue" d="M731.95,-112.07C622.4,-102.36 414.99,-83.98 296.15,-73.45"/>
<polygon fill="midnightblue" stroke="midnightblue" points="731.65,-115.56 741.92,-112.95 732.26,-108.58 731.65,-115.56"/>
</g>
<!-- Node4 -->
<g id="node4" class="node">
<title>Node4</title>
<g id="a_node4"><a xlink:href="../../d8/d1c/a00824.html" target="_top" xlink:title=" ">
<polygon fill="none" stroke="black" points="439,-74 314,-74 314,-55 439,-55 439,-74"/>
<text text-anchor="middle" x="376.5" y="-62" font-family="Helvetica,sans-Serif" font-size="10.00">DiscordCoreClient.cpp</text>
</a>
</g>
</g>
<!-- Node2&#45;&gt;Node4 -->
<g id="edge3" class="edge">
<title>Node2&#45;&gt;Node4</title>
<path fill="none" stroke="midnightblue" d="M731.78,-109.5C649.49,-99.31 516.83,-82.88 439.01,-73.24"/>
<polygon fill="midnightblue" stroke="midnightblue" points="731.45,-112.98 741.81,-110.74 732.31,-106.03 731.45,-112.98"/>
</g>
<!-- Node5 -->
<g id="node5" class="node">
<title>Node5</title>
<g id="a_node5"><a xlink:href="../../dd/d7e/a00809.html" target="_top" xlink:title=" ">
<polygon fill="none" stroke="black" points="564,-74 457,-74 457,-55 564,-55 564,-74"/>
<text text-anchor="middle" x="510.5" y="-62" font-family="Helvetica,sans-Serif" font-size="10.00">EventManager.cpp</text>
</a>
</g>
</g>
<!-- Node2&#45;&gt;Node5 -->
<g id="edge4" class="edge">
<title>Node2&#45;&gt;Node5</title>
<path fill="none" stroke="midnightblue" d="M747.3,-108.19C692.18,-98.25 609.75,-83.39 558.11,-74.08"/>
<polygon fill="midnightblue" stroke="midnightblue" points="746.8,-111.65 757.26,-109.98 748.04,-104.77 746.8,-111.65"/>
</g>
<!-- Node2&#45;&gt;Node6 -->
<g id="edge5" class="edge">
<title>Node2&#45;&gt;Node6</title>
<path fill="none" stroke="midnightblue" d="M731.5,-115.81C604.44,-110.68 334.46,-97.84 107.5,-74 104.77,-73.71 101.97,-73.39 99.14,-73.05"/>
<polygon fill="midnightblue" stroke="midnightblue" points="731.75,-119.32 741.88,-116.22 732.02,-112.32 731.75,-119.32"/>
</g>
<!-- Node7 -->
<g id="node7" class="node">
<title>Node7</title>
<g id="a_node7"><a xlink:href="../../d3/d00/a00785.html" target="_top" xlink:title=" ">
<polygon fill="none" stroke="black" points="645,-74 582,-74 582,-55 645,-55 645,-74"/>
<text text-anchor="middle" x="613.5" y="-62" font-family="Helvetica,sans-Serif" font-size="10.00">Https.cpp</text>
</a>
</g>
</g>
<!-- Node2&#45;&gt;Node7 -->
<g id="edge6" class="edge">
<title>Node2&#45;&gt;Node7</title>
<path fill="none" stroke="midnightblue" d="M763.72,-107.18C728,-97.27 676.87,-83.08 644.43,-74.08"/>
<polygon fill="midnightblue" stroke="midnightblue" points="763.24,-110.68 773.81,-109.98 765.11,-103.94 763.24,-110.68"/>
</g>
<!-- Node8 -->
<g id="node8" class="node">
<title>Node8</title>
<g id="a_node8"><a xlink:href="../../d2/d4a/a00758.html" target="_top" xlink:title=" ">
<polygon fill="none" stroke="black" points="728,-74 663,-74 663,-55 728,-55 728,-74"/>
<text text-anchor="middle" x="695.5" y="-62" font-family="Helvetica,sans-Serif" font-size="10.00">Index.hpp</text>
</a>
</g>
</g>
<!-- Node2&#45;&gt;Node8 -->
<g id="edge7" class="edge">
<title>Node2&#45;&gt;Node8</title>
<path fill="none" stroke="midnightblue" d="M777.77,-105.5C757.71,-95.75 730.82,-82.68 713.33,-74.17"/>
<polygon fill="midnightblue" stroke="midnightblue" points="776.46,-108.76 786.99,-109.98 779.52,-102.46 776.46,-108.76"/>
</g>
<!-- Node10 -->
<g id="node10" class="node">
<title>Node10</title>
<g id="a_node10"><a xlink:href="../../d4/d45/a00791.html" target="_top" xlink:title=" ">
<polygon fill="none" stroke="black" points="863,-74 746,-74 746,-55 863,-55 863,-74"/>
<text text-anchor="middle" x="804.5" y="-62" font-family="Helvetica,sans-Serif" font-size="10.00">MessageEntities.cpp</text>
</a>
</g>
</g>
<!-- Node2&#45;&gt;Node10 -->
<g id="edge9" class="edge">
<title>Node2&#45;&gt;Node10</title>
<path fill="none" stroke="midnightblue" d="M804.5,-99.66C804.5,-90.93 804.5,-80.99 804.5,-74.09"/>
<polygon fill="midnightblue" stroke="midnightblue" points="801,-99.75 804.5,-109.75 808,-99.75 801,-99.75"/>
</g>
<!-- Node2&#45;&gt;Node11 -->
<g id="edge10" class="edge">
<title>Node2&#45;&gt;Node11</title>
<path fill="none" stroke="midnightblue" d="M877.58,-113.66C971.54,-106.99 1139.63,-93.53 1282.5,-74 1285.21,-73.63 1288,-73.21 1290.81,-72.77"/>
<polygon fill="midnightblue" stroke="midnightblue" points="877.06,-110.19 867.33,-114.38 877.56,-117.17 877.06,-110.19"/>
</g>
<!-- Node12 -->
<g id="node12" class="node">
<title>Node12</title>
<g id="a_node12"><a xlink:href="../../d7/dcf/a00845.html" target="_top" xlink:title=" ">
<polygon fill="none" stroke="black" points="991.5,-74 881.5,-74 881.5,-55 991.5,-55 991.5,-74"/>
<text text-anchor="middle" x="936.5" y="-62" font-family="Helvetica,sans-Serif" font-size="10.00">SoundCloudAPI.cpp</text>
</a>
</g>
</g>
<!-- Node2&#45;&gt;Node12 -->
<g id="edge11" class="edge">
<title>Node2&#45;&gt;Node12</title>
<path fill="none" stroke="midnightblue" d="M835.23,-106.16C859.67,-96.35 893.24,-82.87 914.91,-74.17"/>
<polygon fill="midnightblue" stroke="midnightblue" points="833.68,-103.01 825.71,-109.98 836.29,-109.51 833.68,-103.01"/>
</g>
<!-- Node13 -->
<g id="node13" class="node">
<title>Node13</title>
<g id="a_node13"><a xlink:href="../../d2/d5e/a00860.html" target="_top" xlink:title=" ">
<polygon fill="none" stroke="black" points="1127.5,-74 1009.5,-74 1009.5,-55 1127.5,-55 1127.5,-74"/>
<text text-anchor="middle" x="1068.5" y="-62" font-family="Helvetica,sans-Serif" font-size="10.00">VoiceConnection.cpp</text>
</a>
</g>
</g>
<!-- Node2&#45;&gt;Node13 -->
<g id="edge12" class="edge">
<title>Node2&#45;&gt;Node13</title>
<path fill="none" stroke="midnightblue" d="M856.79,-108C906.28,-98.07 979.67,-83.33 1025.75,-74.08"/>
<polygon fill="midnightblue" stroke="midnightblue" points="856.03,-104.58 846.92,-109.98 857.41,-111.45 856.03,-104.58"/>
</g>
<!-- Node14 -->
<g id="node14" class="node">
<title>Node14</title>
<g id="a_node14"><a xlink:href="../../d0/d11/a00842.html" target="_top" xlink:title=" ">
<polygon fill="none" stroke="black" points="1273,-74 1146,-74 1146,-55 1273,-55 1273,-74"/>
<text text-anchor="middle" x="1209.5" y="-62" font-family="Helvetica,sans-Serif" font-size="10.00">WebSocketEntities.cpp</text>
</a>
</g>
</g>
<!-- Node2&#45;&gt;Node14 -->
<g id="edge13" class="edge">
<title>Node2&#45;&gt;Node14</title>
<path fill="none" stroke="midnightblue" d="M877.38,-108.96C953.89,-98.95 1072.99,-83.36 1145.85,-73.83"/>
<polygon fill="midnightblue" stroke="midnightblue" points="876.8,-105.51 867.34,-110.28 877.71,-112.45 876.8,-105.51"/>
</g>
<!-- Node2&#45;&gt;Node15 -->
<g id="edge14" class="edge">
<title>Node2&#45;&gt;Node15</title>
<path fill="none" stroke="midnightblue" d="M877.63,-114.6C986.71,-108.38 1198.43,-94.76 1377.5,-74 1380.38,-73.67 1383.34,-73.29 1386.32,-72.9"/>
<polygon fill="midnightblue" stroke="midnightblue" points="877.18,-111.12 867.39,-115.18 877.58,-118.11 877.18,-111.12"/>
</g>
<!-- Node9 -->
<g id="node9" class="node">
<title>Node9</title>
<g id="a_node9"><a xlink:href="../../d1/d93/a00875.html" target="_top" xlink:title=" ">
<polygon fill="none" stroke="black" points="732.5,-19 658.5,-19 658.5,0 732.5,0 732.5,-19"/>
<text text-anchor="middle" x="695.5" y="-7" font-family="Helvetica,sans-Serif" font-size="10.00">DllMain.cpp</text>
</a>
</g>
</g>
<!-- Node8&#45;&gt;Node9 -->
<g id="edge8" class="edge">
<title>Node8&#45;&gt;Node9</title>
<path fill="none" stroke="midnightblue" d="M695.5,-44.66C695.5,-35.93 695.5,-25.99 695.5,-19.09"/>
<polygon fill="midnightblue" stroke="midnightblue" points="692,-44.75 695.5,-54.75 699,-44.75 692,-44.75"/>
</g>
</g>
</svg>
