<?xml version="1.0" encoding="UTF-8" standalone="no"?>
<!DOCTYPE svg PUBLIC "-//W3C//DTD SVG 1.1//EN"
 "http://www.w3.org/Graphics/SVG/1.1/DTD/svg11.dtd">
<!-- Generated by graphviz version 2.43.0 (0)
 -->
<!-- Title: DiscordCoreAPI::SendDMData Pages: 1 -->
<svg width="220pt" height="137pt"
 viewBox="0.00 0.00 220.00 137.00" xmlns="http://www.w3.org/2000/svg" xmlns:xlink="http://www.w3.org/1999/xlink">
<g id="graph0" class="graph" transform="scale(1 1) rotate(0) translate(4 133)">
<title>DiscordCoreAPI::SendDMData</title>
<!-- Node1 -->
<g id="node1" class="node">
<title>Node1</title>
<g id="a_node1"><a xlink:title="For sending a direct&#45;message.">
<polygon fill="#bfbfbf" stroke="black" points="186.5,-19 25.5,-19 25.5,0 186.5,0 186.5,-19"/>
<text text-anchor="middle" x="106" y="-7" font-family="Helvetica,sans-Serif" font-size="10.00">DiscordCoreAPI::SendDMData</text>
</a>
</g>
</g>
<!-- Node2 -->
<g id="node2" class="node">
<title>Node2</title>
<g id="a_node2"><a xlink:href="../../d8/d2a/a03192.html" target="_top" xlink:title="For creating a Message.">
<polygon fill="none" stroke="black" points="204.5,-74 7.5,-74 7.5,-55 204.5,-55 204.5,-74"/>
<text text-anchor="middle" x="106" y="-62" font-family="Helvetica,sans-Serif" font-size="10.00">DiscordCoreAPI::CreateMessageData</text>
</a>
</g>
</g>
<!-- Node2&#45;&gt;Node1 -->
<g id="edge1" class="edge">
<title>Node2&#45;&gt;Node1</title>
<path fill="none" stroke="midnightblue" d="M106,-44.66C106,-35.93 106,-25.99 106,-19.09"/>
<polygon fill="midnightblue" stroke="midnightblue" points="102.5,-44.75 106,-54.75 109.5,-44.75 102.5,-44.75"/>
</g>
<!-- Node3 -->
<g id="node3" class="node">
<title>Node3</title>
<g id="a_node3"><a xlink:href="../../de/db6/a02792.html" target="_top" xlink:title="Message response base, for responding to messages.">
<polygon fill="none" stroke="black" points="212,-129 0,-129 0,-110 212,-110 212,-129"/>
<text text-anchor="middle" x="106" y="-117" font-family="Helvetica,sans-Serif" font-size="10.00">DiscordCoreAPI::MessageResponseBase</text>
</a>
</g>
</g>
<!-- Node3&#45;&gt;Node2 -->
<g id="edge2" class="edge">
<title>Node3&#45;&gt;Node2</title>
<path fill="none" stroke="midnightblue" d="M106,-99.66C106,-90.93 106,-80.99 106,-74.09"/>
<polygon fill="midnightblue" stroke="midnightblue" points="102.5,-99.75 106,-109.75 109.5,-99.75 102.5,-99.75"/>
</g>
</g>
</svg>
