<?xml version="1.0" encoding="UTF-8" standalone="no"?>
<!DOCTYPE svg PUBLIC "-//W3C//DTD SVG 1.1//EN"
 "http://www.w3.org/Graphics/SVG/1.1/DTD/svg11.dtd">
<!-- Generated by graphviz version 3.0.0 (20220226.1711)
 -->
<!-- Title: DiscordCoreAPI::SongAPI::getCurrentSong Pages: 1 -->
<svg width="304pt" height="88pt"
 viewBox="0.00 0.00 304.00 88.00" xmlns="http://www.w3.org/2000/svg" xmlns:xlink="http://www.w3.org/1999/xlink">
<g id="graph0" class="graph" transform="scale(1 1) rotate(0) translate(4 84)">
<title>DiscordCoreAPI::SongAPI::getCurrentSong</title>
<!-- Node1 -->
<g id="node1" class="node">
<title>Node1</title>
<g id="a_node1"><a xlink:title="Collects the currently playing Song.">
<polygon fill="#bfbfbf" stroke="black" points="166,-24.5 166,-54.5 296,-54.5 296,-24.5 166,-24.5"/>
<text text-anchor="start" x="174" y="-42.5" font-family="Helvetica,sans-Serif" font-size="10.00">DiscordCoreAPI::SongAPI</text>
<text text-anchor="middle" x="231" y="-31.5" font-family="Helvetica,sans-Serif" font-size="10.00">::getCurrentSong</text>
</a>
</g>
</g>
<!-- Node2 -->
<g id="node2" class="node">
<title>Node2</title>
<g id="a_node2"><a xlink:href="../../d9/d58/a03371.html#ae7c43fec03815d6eea1987c433858ef7" target="_top" xlink:title="Skips to the next Song in the queue, if applicable.">
<polygon fill="none" stroke="black" points="0,-49.5 0,-79.5 130,-79.5 130,-49.5 0,-49.5"/>
<text text-anchor="start" x="8" y="-67.5" font-family="Helvetica,sans-Serif" font-size="10.00">DiscordCoreAPI::SongAPI</text>
<text text-anchor="middle" x="65" y="-56.5" font-family="Helvetica,sans-Serif" font-size="10.00">::skip</text>
</a>
</g>
</g>
<!-- Node1&#45;&gt;Node2 -->
<g id="edge1" class="edge">
<title>Node1&#45;&gt;Node2</title>
<path fill="none" stroke="midnightblue" d="M155.71,-50.82C147.18,-52.12 138.54,-53.44 130.16,-54.72"/>
<polygon fill="midnightblue" stroke="midnightblue" points="156.3,-54.28 165.65,-49.31 155.24,-47.36 156.3,-54.28"/>
</g>
<!-- Node3 -->
<g id="node3" class="node">
<title>Node3</title>
<g id="a_node3"><a xlink:href="../../d9/d58/a03371.html#ad3ea2df692e7786ba797699ec81f3781" target="_top" xlink:title="Stops the currently playing Song.">
<polygon fill="none" stroke="black" points="0,-0.5 0,-30.5 130,-30.5 130,-0.5 0,-0.5"/>
<text text-anchor="start" x="8" y="-18.5" font-family="Helvetica,sans-Serif" font-size="10.00">DiscordCoreAPI::SongAPI</text>
<text text-anchor="middle" x="65" y="-7.5" font-family="Helvetica,sans-Serif" font-size="10.00">::stop</text>
</a>
</g>
</g>
<!-- Node1&#45;&gt;Node3 -->
<g id="edge2" class="edge">
<title>Node1&#45;&gt;Node3</title>
<path fill="none" stroke="midnightblue" d="M155.71,-28.63C147.18,-27.38 138.54,-26.12 130.16,-24.89"/>
<polygon fill="midnightblue" stroke="midnightblue" points="155.25,-32.1 165.65,-30.08 156.27,-25.17 155.25,-32.1"/>
</g>
</g>
</svg>
