<?xml version="1.0" encoding="UTF-8" standalone="no"?>
<!DOCTYPE svg PUBLIC "-//W3C//DTD SVG 1.1//EN"
 "http://www.w3.org/Graphics/SVG/1.1/DTD/svg11.dtd">
<!-- Generated by graphviz version 5.0.0 (20220707.1540)
 -->
<!-- Title: ApplicationCommandEntities.hpp Pages: 1 -->
<svg width="3468pt" height="302pt"
 viewBox="0.00 0.00 3468.00 302.00" xmlns="http://www.w3.org/2000/svg" xmlns:xlink="http://www.w3.org/1999/xlink">
<g id="graph0" class="graph" transform="scale(1 1) rotate(0) translate(4 298)">
<title>ApplicationCommandEntities.hpp</title>
<!-- Node1 -->
<g id="node1" class="node">
<title>Node1</title>
<g id="a_node1"><a xlink:title=" ">
<polygon fill="#999999" stroke="#666666" points="1783,-294 1622,-294 1622,-275 1783,-275 1783,-294"/>
<text text-anchor="middle" x="1702.5" y="-282" font-family="Helvetica,sans-Serif" font-size="10.00">ApplicationCommandEntities.hpp</text>
</a>
</g>
</g>
<!-- Node2 -->
<g id="node2" class="node">
<title>Node2</title>
<g id="a_node2"><a xlink:href="_application_command_entities_8cpp.html" target="_top" xlink:title=" ">
<polygon fill="white" stroke="#666666" points="161,-129 0,-129 0,-110 161,-110 161,-129"/>
<text text-anchor="middle" x="80.5" y="-117" font-family="Helvetica,sans-Serif" font-size="10.00">ApplicationCommandEntities.cpp</text>
</a>
</g>
</g>
<!-- Node1&#45;&gt;Node2 -->
<g id="edge1" class="edge">
<title>Node1&#45;&gt;Node2</title>
<path fill="none" stroke="#63b8ff" d="M1611.81,-274.39C1324.12,-245.48 434.88,-156.11 161.38,-128.63"/>
<polygon fill="#63b8ff" stroke="#63b8ff" points="1611.49,-277.87 1621.79,-275.39 1612.19,-270.91 1611.49,-277.87"/>
</g>
<!-- Node3 -->
<g id="node3" class="node">
<title>Node3</title>
<g id="a_node3"><a xlink:href="_discord_core_client_8hpp.html" target="_top" xlink:title=" ">
<polygon fill="white" stroke="#666666" points="1759,-184 1646,-184 1646,-165 1759,-165 1759,-184"/>
<text text-anchor="middle" x="1702.5" y="-172" font-family="Helvetica,sans-Serif" font-size="10.00">DiscordCoreClient.hpp</text>
</a>
</g>
</g>
<!-- Node1&#45;&gt;Node3 -->
<g id="edge2" class="edge">
<title>Node1&#45;&gt;Node3</title>
<path fill="none" stroke="#63b8ff" d="M1702.5,-264.48C1702.5,-240.84 1702.5,-201.5 1702.5,-184.16"/>
<polygon fill="#63b8ff" stroke="#63b8ff" points="1699,-264.66 1702.5,-274.66 1706,-264.66 1699,-264.66"/>
</g>
<!-- Node33 -->
<g id="node33" class="node">
<title>Node33</title>
<g id="a_node33"><a xlink:href="_event_manager_8hpp.html" target="_top" xlink:title=" ">
<polygon fill="white" stroke="#666666" points="1832,-239 1735,-239 1735,-220 1832,-220 1832,-239"/>
<text text-anchor="middle" x="1783.5" y="-227" font-family="Helvetica,sans-Serif" font-size="10.00">EventManager.hpp</text>
</a>
</g>
</g>
<!-- Node1&#45;&gt;Node33 -->
<g id="edge33" class="edge">
<title>Node1&#45;&gt;Node33</title>
<path fill="none" stroke="#63b8ff" d="M1724.01,-269.42C1738.71,-259.81 1757.72,-247.37 1770.25,-239.17"/>
<polygon fill="#63b8ff" stroke="#63b8ff" points="1721.97,-266.58 1715.51,-274.98 1725.8,-272.44 1721.97,-266.58"/>
</g>
<!-- Node3&#45;&gt;Node2 -->
<g id="edge3" class="edge">
<title>Node3&#45;&gt;Node2</title>
<path fill="none" stroke="#63b8ff" d="M1635.59,-173.14C1421.78,-171.64 735.89,-164.23 169.5,-129 166.71,-128.83 163.88,-128.64 161.01,-128.43"/>
<polygon fill="#63b8ff" stroke="#63b8ff" points="1635.69,-176.64 1645.71,-173.21 1635.74,-169.64 1635.69,-176.64"/>
</g>
<!-- Node4 -->
<g id="node4" class="node">
<title>Node4</title>
<g id="a_node4"><a xlink:href="_auto_moderation_entities_8cpp.html" target="_top" xlink:title=" ">
<polygon fill="white" stroke="#666666" points="2255,-129 2118,-129 2118,-110 2255,-110 2255,-129"/>
<text text-anchor="middle" x="2186.5" y="-117" font-family="Helvetica,sans-Serif" font-size="10.00">AutoModerationEntities.cpp</text>
</a>
</g>
</g>
<!-- Node3&#45;&gt;Node4 -->
<g id="edge4" class="edge">
<title>Node3&#45;&gt;Node4</title>
<path fill="none" stroke="#63b8ff" d="M1769.45,-166.17C1861.16,-156.13 2025.04,-138.18 2117.71,-128.03"/>
<polygon fill="#63b8ff" stroke="#63b8ff" points="1769,-162.7 1759.44,-167.26 1769.77,-169.65 1769,-162.7"/>
</g>
<!-- Node5 -->
<g id="node5" class="node">
<title>Node5</title>
<g id="a_node5"><a xlink:href="_channel_entities_8cpp.html" target="_top" xlink:title=" ">
<polygon fill="white" stroke="#666666" points="2377.5,-129 2273.5,-129 2273.5,-110 2377.5,-110 2377.5,-129"/>
<text text-anchor="middle" x="2325.5" y="-117" font-family="Helvetica,sans-Serif" font-size="10.00">ChannelEntities.cpp</text>
</a>
</g>
</g>
<!-- Node3&#45;&gt;Node5 -->
<g id="edge5" class="edge">
<title>Node3&#45;&gt;Node5</title>
<path fill="none" stroke="#63b8ff" d="M1769.29,-169.44C1874.55,-162.76 2085.36,-148.26 2263.5,-129 2266.74,-128.65 2270.07,-128.26 2273.43,-127.86"/>
<polygon fill="#63b8ff" stroke="#63b8ff" points="1768.9,-165.96 1759.14,-170.08 1769.34,-172.94 1768.9,-165.96"/>
</g>
<!-- Node6 -->
<g id="node6" class="node">
<title>Node6</title>
<g id="a_node6"><a xlink:href="_command_controller_8cpp.html" target="_top" xlink:title=" ">
<polygon fill="white" stroke="#666666" points="2517,-129 2396,-129 2396,-110 2517,-110 2517,-129"/>
<text text-anchor="middle" x="2456.5" y="-117" font-family="Helvetica,sans-Serif" font-size="10.00">CommandController.cpp</text>
</a>
</g>
</g>
<!-- Node3&#45;&gt;Node6 -->
<g id="edge6" class="edge">
<title>Node3&#45;&gt;Node6</title>
<path fill="none" stroke="#63b8ff" d="M1769.69,-170.38C1892.38,-164.4 2160.84,-150.02 2386.5,-129 2389.55,-128.72 2392.67,-128.41 2395.82,-128.08"/>
<polygon fill="#63b8ff" stroke="#63b8ff" points="1769.15,-166.9 1759.34,-170.88 1769.49,-173.89 1769.15,-166.9"/>
</g>
<!-- Node7 -->
<g id="node7" class="node">
<title>Node7</title>
<g id="a_node7"><a xlink:href="_discord_core_client_8cpp.html" target="_top" xlink:title=" ">
<polygon fill="white" stroke="#666666" points="2648,-129 2535,-129 2535,-110 2648,-110 2648,-129"/>
<text text-anchor="middle" x="2591.5" y="-117" font-family="Helvetica,sans-Serif" font-size="10.00">DiscordCoreClient.cpp</text>
</a>
</g>
</g>
<!-- Node3&#45;&gt;Node7 -->
<g id="edge7" class="edge">
<title>Node3&#45;&gt;Node7</title>
<path fill="none" stroke="#63b8ff" d="M1769.66,-171.55C1910.17,-167.11 2245.38,-154.58 2525.5,-129 2528.49,-128.73 2531.56,-128.42 2534.65,-128.09"/>
<polygon fill="#63b8ff" stroke="#63b8ff" points="1769.36,-168.06 1759.48,-171.87 1769.58,-175.06 1769.36,-168.06"/>
</g>
<!-- Node8 -->
<g id="node8" class="node">
<title>Node8</title>
<g id="a_node8"><a xlink:href="_event_manager_8cpp.html" target="_top" xlink:title=" ">
<polygon fill="white" stroke="#666666" points="3331,-129 3234,-129 3234,-110 3331,-110 3331,-129"/>
<text text-anchor="middle" x="3282.5" y="-117" font-family="Helvetica,sans-Serif" font-size="10.00">EventManager.cpp</text>
</a>
</g>
</g>
<!-- Node3&#45;&gt;Node8 -->
<g id="edge8" class="edge">
<title>Node3&#45;&gt;Node8</title>
<path fill="none" stroke="#63b8ff" d="M1769.49,-172.6C2024.75,-169.02 2936.54,-154.67 3225.5,-129 3228.19,-128.76 3230.95,-128.48 3233.73,-128.16"/>
<polygon fill="#63b8ff" stroke="#63b8ff" points="1769.21,-169.11 1759.26,-172.75 1769.31,-176.11 1769.21,-169.11"/>
</g>
<!-- Node9 -->
<g id="node9" class="node">
<title>Node9</title>
<g id="a_node9"><a xlink:href="_foundation_entities_8cpp.html" target="_top" xlink:title=" ">
<polygon fill="white" stroke="#666666" points="2782.5,-129 2666.5,-129 2666.5,-110 2782.5,-110 2782.5,-129"/>
<text text-anchor="middle" x="2724.5" y="-117" font-family="Helvetica,sans-Serif" font-size="10.00">FoundationEntities.cpp</text>
</a>
</g>
</g>
<!-- Node3&#45;&gt;Node9 -->
<g id="edge9" class="edge">
<title>Node3&#45;&gt;Node9</title>
<path fill="none" stroke="#63b8ff" d="M1769.4,-172.17C1925.2,-168.67 2324.24,-157.47 2656.5,-129 2659.7,-128.73 2662.98,-128.41 2666.29,-128.08"/>
<polygon fill="#63b8ff" stroke="#63b8ff" points="1768.97,-168.68 1759.05,-172.4 1769.13,-175.67 1768.97,-168.68"/>
</g>
<!-- Node10 -->
<g id="node10" class="node">
<title>Node10</title>
<g id="a_node10"><a xlink:href="_guild_entities_8cpp.html" target="_top" xlink:title=" ">
<polygon fill="white" stroke="#666666" points="2892,-129 2801,-129 2801,-110 2892,-110 2892,-129"/>
<text text-anchor="middle" x="2846.5" y="-117" font-family="Helvetica,sans-Serif" font-size="10.00">GuildEntities.cpp</text>
</a>
</g>
</g>
<!-- Node3&#45;&gt;Node10 -->
<g id="edge10" class="edge">
<title>Node3&#45;&gt;Node10</title>
<path fill="none" stroke="#63b8ff" d="M1769.13,-173.38C1939.63,-172.51 2405.54,-166.59 2791.5,-129 2794.58,-128.7 2797.74,-128.34 2800.93,-127.95"/>
<polygon fill="#63b8ff" stroke="#63b8ff" points="1769.03,-169.88 1759.05,-173.43 1769.07,-176.88 1769.03,-169.88"/>
</g>
<!-- Node11 -->
<g id="node11" class="node">
<title>Node11</title>
<g id="a_node11"><a xlink:href="_guild_member_entities_8cpp.html" target="_top" xlink:title=" ">
<polygon fill="white" stroke="#666666" points="3036.5,-129 2910.5,-129 2910.5,-110 3036.5,-110 3036.5,-129"/>
<text text-anchor="middle" x="2973.5" y="-117" font-family="Helvetica,sans-Serif" font-size="10.00">GuildMemberEntities.cpp</text>
</a>
</g>
</g>
<!-- Node3&#45;&gt;Node11 -->
<g id="edge11" class="edge">
<title>Node3&#45;&gt;Node11</title>
<path fill="none" stroke="#63b8ff" d="M1769.23,-172.86C1951.02,-170.73 2470.21,-161.99 2900.5,-129 2903.68,-128.76 2906.94,-128.48 2910.22,-128.18"/>
<polygon fill="#63b8ff" stroke="#63b8ff" points="1768.99,-169.37 1759.03,-172.98 1769.07,-176.37 1768.99,-169.37"/>
</g>
<!-- Node12 -->
<g id="node12" class="node">
<title>Node12</title>
<g id="a_node12"><a xlink:href="_guild_scheduled_event_entities_8cpp.html" target="_top" xlink:title=" ">
<polygon fill="white" stroke="#666666" points="3216,-129 3055,-129 3055,-110 3216,-110 3216,-129"/>
<text text-anchor="middle" x="3135.5" y="-117" font-family="Helvetica,sans-Serif" font-size="10.00">GuildScheduledEventEntities.cpp</text>
</a>
</g>
</g>
<!-- Node3&#45;&gt;Node12 -->
<g id="edge12" class="edge">
<title>Node3&#45;&gt;Node12</title>
<path fill="none" stroke="#63b8ff" d="M1769.32,-172.73C1965.43,-170.15 2556.32,-160.18 3045.5,-129 3048.48,-128.81 3051.51,-128.6 3054.57,-128.38"/>
<polygon fill="#63b8ff" stroke="#63b8ff" points="1769.13,-169.23 1759.18,-172.86 1769.22,-176.23 1769.13,-169.23"/>
</g>
<!-- Node13 -->
<g id="node13" class="node">
<title>Node13</title>
<g id="a_node13"><a xlink:href="_https_client_8cpp.html" target="_top" xlink:title=" ">
<polygon fill="white" stroke="#666666" points="262,-129 179,-129 179,-110 262,-110 262,-129"/>
<text text-anchor="middle" x="220.5" y="-117" font-family="Helvetica,sans-Serif" font-size="10.00">HttpsClient.cpp</text>
</a>
</g>
</g>
<!-- Node3&#45;&gt;Node13 -->
<g id="edge13" class="edge">
<title>Node3&#45;&gt;Node13</title>
<path fill="none" stroke="#63b8ff" d="M1635.49,-172.61C1390.16,-169.16 541.27,-155.55 271.5,-129 268.46,-128.7 265.33,-128.33 262.19,-127.92"/>
<polygon fill="#63b8ff" stroke="#63b8ff" points="1635.63,-176.11 1645.68,-172.75 1635.73,-169.11 1635.63,-176.11"/>
</g>
<!-- Node14 -->
<g id="node14" class="node">
<title>Node14</title>
<g id="a_node14"><a xlink:href="_input_events_8cpp.html" target="_top" xlink:title=" ">
<polygon fill="white" stroke="#666666" points="366.5,-129 280.5,-129 280.5,-110 366.5,-110 366.5,-129"/>
<text text-anchor="middle" x="323.5" y="-117" font-family="Helvetica,sans-Serif" font-size="10.00">InputEvents.cpp</text>
</a>
</g>
</g>
<!-- Node3&#45;&gt;Node14 -->
<g id="edge14" class="edge">
<title>Node3&#45;&gt;Node14</title>
<path fill="none" stroke="#63b8ff" d="M1635.71,-172.4C1402.33,-168.37 624.01,-153.38 375.5,-129 372.59,-128.71 369.59,-128.37 366.57,-127.98"/>
<polygon fill="#63b8ff" stroke="#63b8ff" points="1635.69,-175.9 1645.75,-172.57 1635.81,-168.9 1635.69,-175.9"/>
</g>
<!-- Node15 -->
<g id="node15" class="node">
<title>Node15</title>
<g id="a_node15"><a xlink:href="_interaction_entities_8cpp.html" target="_top" xlink:title=" ">
<polygon fill="white" stroke="#666666" points="498,-129 385,-129 385,-110 498,-110 498,-129"/>
<text text-anchor="middle" x="441.5" y="-117" font-family="Helvetica,sans-Serif" font-size="10.00">InteractionEntities.cpp</text>
</a>
</g>
</g>
<!-- Node3&#45;&gt;Node15 -->
<g id="edge15" class="edge">
<title>Node3&#45;&gt;Node15</title>
<path fill="none" stroke="#63b8ff" d="M1635.59,-173.14C1453.91,-171.69 936.25,-164.52 507.5,-129 504.51,-128.75 501.44,-128.47 498.35,-128.15"/>
<polygon fill="#63b8ff" stroke="#63b8ff" points="1635.76,-176.64 1645.79,-173.22 1635.81,-169.64 1635.76,-176.64"/>
</g>
<!-- Node16 -->
<g id="node16" class="node">
<title>Node16</title>
<g id="a_node16"><a xlink:href="_message_entities_8cpp.html" target="_top" xlink:title=" ">
<polygon fill="white" stroke="#666666" points="624.5,-129 516.5,-129 516.5,-110 624.5,-110 624.5,-129"/>
<text text-anchor="middle" x="570.5" y="-117" font-family="Helvetica,sans-Serif" font-size="10.00">MessageEntities.cpp</text>
</a>
</g>
</g>
<!-- Node3&#45;&gt;Node16 -->
<g id="edge16" class="edge">
<title>Node3&#45;&gt;Node16</title>
<path fill="none" stroke="#63b8ff" d="M1635.68,-172.86C1467.22,-170.79 1011.61,-162.31 633.5,-129 630.64,-128.75 627.71,-128.46 624.76,-128.15"/>
<polygon fill="#63b8ff" stroke="#63b8ff" points="1635.84,-176.37 1645.88,-172.99 1635.92,-169.37 1635.84,-176.37"/>
</g>
<!-- Node17 -->
<g id="node17" class="node">
<title>Node17</title>
<g id="a_node17"><a xlink:href="_reaction_entities_8cpp.html" target="_top" xlink:title=" ">
<polygon fill="white" stroke="#666666" points="750,-129 643,-129 643,-110 750,-110 750,-129"/>
<text text-anchor="middle" x="696.5" y="-117" font-family="Helvetica,sans-Serif" font-size="10.00">ReactionEntities.cpp</text>
</a>
</g>
</g>
<!-- Node3&#45;&gt;Node17 -->
<g id="edge17" class="edge">
<title>Node3&#45;&gt;Node17</title>
<path fill="none" stroke="#63b8ff" d="M1635.5,-172.34C1480.87,-169.22 1087.19,-158.78 759.5,-129 756.42,-128.72 753.26,-128.4 750.08,-128.05"/>
<polygon fill="#63b8ff" stroke="#63b8ff" points="1635.71,-175.84 1645.78,-172.54 1635.85,-168.84 1635.71,-175.84"/>
</g>
<!-- Node18 -->
<g id="node18" class="node">
<title>Node18</title>
<g id="a_node18"><a xlink:href="_role_entities_8cpp.html" target="_top" xlink:title=" ">
<polygon fill="white" stroke="#666666" points="856.5,-129 768.5,-129 768.5,-110 856.5,-110 856.5,-129"/>
<text text-anchor="middle" x="812.5" y="-117" font-family="Helvetica,sans-Serif" font-size="10.00">RoleEntities.cpp</text>
</a>
</g>
</g>
<!-- Node3&#45;&gt;Node18 -->
<g id="edge18" class="edge">
<title>Node3&#45;&gt;Node18</title>
<path fill="none" stroke="#63b8ff" d="M1635.45,-172.34C1493.21,-169.36 1150.83,-159.38 865.5,-129 862.63,-128.69 859.67,-128.34 856.7,-127.95"/>
<polygon fill="#63b8ff" stroke="#63b8ff" points="1635.68,-175.85 1645.75,-172.55 1635.83,-168.85 1635.68,-175.85"/>
</g>
<!-- Node19 -->
<g id="node19" class="node">
<title>Node19</title>
<g id="a_node19"><a xlink:href="_song_a_p_i_8cpp.html" target="_top" xlink:title=" ">
<polygon fill="white" stroke="#666666" points="948.5,-129 874.5,-129 874.5,-110 948.5,-110 948.5,-129"/>
<text text-anchor="middle" x="911.5" y="-117" font-family="Helvetica,sans-Serif" font-size="10.00">SongAPI.cpp</text>
</a>
</g>
</g>
<!-- Node3&#45;&gt;Node19 -->
<g id="edge19" class="edge">
<title>Node3&#45;&gt;Node19</title>
<path fill="none" stroke="#63b8ff" d="M1635.49,-172.26C1504.69,-169.22 1206.39,-159.31 957.5,-129 954.6,-128.65 951.6,-128.22 948.6,-127.76"/>
<polygon fill="#63b8ff" stroke="#63b8ff" points="1635.67,-175.76 1645.74,-172.49 1635.82,-168.76 1635.67,-175.76"/>
</g>
<!-- Node20 -->
<g id="node20" class="node">
<title>Node20</title>
<g id="a_node20"><a xlink:href="_sound_cloud_a_p_i_8cpp.html" target="_top" xlink:title=" ">
<polygon fill="white" stroke="#666666" points="1070.5,-129 966.5,-129 966.5,-110 1070.5,-110 1070.5,-129"/>
<text text-anchor="middle" x="1018.5" y="-117" font-family="Helvetica,sans-Serif" font-size="10.00">SoundCloudAPI.cpp</text>
</a>
</g>
</g>
<!-- Node3&#45;&gt;Node20 -->
<g id="edge20" class="edge">
<title>Node3&#45;&gt;Node20</title>
<path fill="none" stroke="#63b8ff" d="M1635.7,-170.2C1521.52,-164.24 1281.53,-150.27 1079.5,-129 1076.63,-128.7 1073.68,-128.36 1070.72,-128.01"/>
<polygon fill="#63b8ff" stroke="#63b8ff" points="1635.53,-173.7 1645.69,-170.72 1635.89,-166.71 1635.53,-173.7"/>
</g>
<!-- Node21 -->
<g id="node21" class="node">
<title>Node21</title>
<g id="a_node21"><a xlink:href="_stage_instance_entities_8cpp.html" target="_top" xlink:title=" ">
<polygon fill="white" stroke="#666666" points="1220,-129 1089,-129 1089,-110 1220,-110 1220,-129"/>
<text text-anchor="middle" x="1154.5" y="-117" font-family="Helvetica,sans-Serif" font-size="10.00">StageInstanceEntities.cpp</text>
</a>
</g>
</g>
<!-- Node3&#45;&gt;Node21 -->
<g id="edge21" class="edge">
<title>Node3&#45;&gt;Node21</title>
<path fill="none" stroke="#63b8ff" d="M1635.93,-167.69C1544.18,-159.58 1373.7,-144.15 1228.5,-129 1225.8,-128.72 1223.04,-128.43 1220.26,-128.13"/>
<polygon fill="#63b8ff" stroke="#63b8ff" points="1635.65,-171.18 1645.92,-168.57 1636.26,-164.2 1635.65,-171.18"/>
</g>
<!-- Node22 -->
<g id="node22" class="node">
<title>Node22</title>
<g id="a_node22"><a xlink:href="_sticker_entities_8cpp.html" target="_top" xlink:title=" ">
<polygon fill="white" stroke="#666666" points="1337,-129 1238,-129 1238,-110 1337,-110 1337,-129"/>
<text text-anchor="middle" x="1287.5" y="-117" font-family="Helvetica,sans-Serif" font-size="10.00">StickerEntities.cpp</text>
</a>
</g>
</g>
<!-- Node3&#45;&gt;Node22 -->
<g id="edge22" class="edge">
<title>Node3&#45;&gt;Node22</title>
<path fill="none" stroke="#63b8ff" d="M1635.51,-165.51C1563.91,-156.87 1447.11,-142.53 1346.5,-129 1343.42,-128.59 1340.26,-128.15 1337.07,-127.71"/>
<polygon fill="#63b8ff" stroke="#63b8ff" points="1635.39,-169.02 1645.73,-166.74 1636.22,-162.07 1635.39,-169.02"/>
</g>
<!-- Node23 -->
<g id="node23" class="node">
<title>Node23</title>
<g id="a_node23"><a xlink:href="_thread_entities_8cpp.html" target="_top" xlink:title=" ">
<polygon fill="white" stroke="#666666" points="1453.5,-129 1355.5,-129 1355.5,-110 1453.5,-110 1453.5,-129"/>
<text text-anchor="middle" x="1404.5" y="-117" font-family="Helvetica,sans-Serif" font-size="10.00">ThreadEntities.cpp</text>
</a>
</g>
</g>
<!-- Node3&#45;&gt;Node23 -->
<g id="edge23" class="edge">
<title>Node3&#45;&gt;Node23</title>
<path fill="none" stroke="#63b8ff" d="M1644.52,-163.19C1588.65,-153.25 1505.1,-138.39 1452.75,-129.08"/>
<polygon fill="#63b8ff" stroke="#63b8ff" points="1644.16,-166.68 1654.62,-164.98 1645.39,-159.79 1644.16,-166.68"/>
</g>
<!-- Node24 -->
<g id="node24" class="node">
<title>Node24</title>
<g id="a_node24"><a xlink:href="_to_entity_8hpp.html" target="_top" xlink:title=" ">
<polygon fill="white" stroke="#666666" points="1543,-129 1472,-129 1472,-110 1543,-110 1543,-129"/>
<text text-anchor="middle" x="1507.5" y="-117" font-family="Helvetica,sans-Serif" font-size="10.00">ToEntity.hpp</text>
</a>
</g>
</g>
<!-- Node3&#45;&gt;Node24 -->
<g id="edge24" class="edge">
<title>Node3&#45;&gt;Node24</title>
<path fill="none" stroke="#63b8ff" d="M1661.33,-162.31C1624.84,-152.39 1572.33,-138.12 1539.08,-129.08"/>
<polygon fill="#63b8ff" stroke="#63b8ff" points="1660.6,-165.74 1671.17,-164.98 1662.44,-158.98 1660.6,-165.74"/>
</g>
<!-- Node27 -->
<g id="node27" class="node">
<title>Node27</title>
<g id="a_node27"><a xlink:href="_user_entities_8cpp.html" target="_top" xlink:title=" ">
<polygon fill="white" stroke="#666666" points="1650,-129 1561,-129 1561,-110 1650,-110 1650,-129"/>
<text text-anchor="middle" x="1605.5" y="-117" font-family="Helvetica,sans-Serif" font-size="10.00">UserEntities.cpp</text>
</a>
</g>
</g>
<!-- Node3&#45;&gt;Node27 -->
<g id="edge27" class="edge">
<title>Node3&#45;&gt;Node27</title>
<path fill="none" stroke="#63b8ff" d="M1677.73,-159.97C1660,-150.28 1636.65,-137.52 1621.37,-129.17"/>
<polygon fill="#63b8ff" stroke="#63b8ff" points="1676.46,-163.26 1686.92,-164.98 1679.82,-157.12 1676.46,-163.26"/>
</g>
<!-- Node28 -->
<g id="node28" class="node">
<title>Node28</title>
<g id="a_node28"><a xlink:href="_utilities_8cpp.html" target="_top" xlink:title=" ">
<polygon fill="white" stroke="#666666" points="1736.5,-129 1668.5,-129 1668.5,-110 1736.5,-110 1736.5,-129"/>
<text text-anchor="middle" x="1702.5" y="-117" font-family="Helvetica,sans-Serif" font-size="10.00">Utilities.cpp</text>
</a>
</g>
</g>
<!-- Node3&#45;&gt;Node28 -->
<g id="edge28" class="edge">
<title>Node3&#45;&gt;Node28</title>
<path fill="none" stroke="#63b8ff" d="M1702.5,-154.66C1702.5,-145.93 1702.5,-135.99 1702.5,-129.09"/>
<polygon fill="#63b8ff" stroke="#63b8ff" points="1699,-154.75 1702.5,-164.75 1706,-154.75 1699,-154.75"/>
</g>
<!-- Node29 -->
<g id="node29" class="node">
<title>Node29</title>
<g id="a_node29"><a xlink:href="_voice_connection_8cpp.html" target="_top" xlink:title=" ">
<polygon fill="white" stroke="#666666" points="1864,-129 1755,-129 1755,-110 1864,-110 1864,-129"/>
<text text-anchor="middle" x="1809.5" y="-117" font-family="Helvetica,sans-Serif" font-size="10.00">VoiceConnection.cpp</text>
</a>
</g>
</g>
<!-- Node3&#45;&gt;Node29 -->
<g id="edge29" class="edge">
<title>Node3&#45;&gt;Node29</title>
<path fill="none" stroke="#63b8ff" d="M1728.74,-160.5C1748.43,-150.75 1774.82,-137.68 1792,-129.17"/>
<polygon fill="#63b8ff" stroke="#63b8ff" points="1727.1,-157.41 1719.69,-164.98 1730.21,-163.68 1727.1,-157.41"/>
</g>
<!-- Node30 -->
<g id="node30" class="node">
<title>Node30</title>
<g id="a_node30"><a xlink:href="_web_hook_entities_8cpp.html" target="_top" xlink:title=" ">
<polygon fill="white" stroke="#666666" points="1993,-129 1882,-129 1882,-110 1993,-110 1993,-129"/>
<text text-anchor="middle" x="1937.5" y="-117" font-family="Helvetica,sans-Serif" font-size="10.00">WebHookEntities.cpp</text>
</a>
</g>
</g>
<!-- Node3&#45;&gt;Node30 -->
<g id="edge30" class="edge">
<title>Node3&#45;&gt;Node30</title>
<path fill="none" stroke="#63b8ff" d="M1750.15,-162.75C1794.19,-152.82 1858.77,-138.26 1899.45,-129.08"/>
<polygon fill="#63b8ff" stroke="#63b8ff" points="1749.24,-159.37 1740.26,-164.98 1750.78,-166.2 1749.24,-159.37"/>
</g>
<!-- Node31 -->
<g id="node31" class="node">
<title>Node31</title>
<g id="a_node31"><a xlink:href="_web_socket_client_8cpp.html" target="_top" xlink:title=" ">
<polygon fill="white" stroke="#666666" points="3460,-129 3349,-129 3349,-110 3460,-110 3460,-129"/>
<text text-anchor="middle" x="3404.5" y="-117" font-family="Helvetica,sans-Serif" font-size="10.00">WebSocketClient.cpp</text>
</a>
</g>
</g>
<!-- Node3&#45;&gt;Node31 -->
<g id="edge31" class="edge">
<title>Node3&#45;&gt;Node31</title>
<path fill="none" stroke="#63b8ff" d="M1769.58,-172.62C2036.99,-168.95 3027.6,-153.96 3340.5,-129 3343.18,-128.79 3345.92,-128.54 3348.69,-128.26"/>
<polygon fill="#63b8ff" stroke="#63b8ff" points="1769.2,-169.12 1759.25,-172.76 1769.3,-176.12 1769.2,-169.12"/>
</g>
<!-- Node32 -->
<g id="node32" class="node">
<title>Node32</title>
<g id="a_node32"><a xlink:href="_you_tube_a_p_i_8cpp.html" target="_top" xlink:title=" ">
<polygon fill="white" stroke="#666666" points="2100,-129 2011,-129 2011,-110 2100,-110 2100,-129"/>
<text text-anchor="middle" x="2055.5" y="-117" font-family="Helvetica,sans-Serif" font-size="10.00">YouTubeAPI.cpp</text>
</a>
</g>
</g>
<!-- Node3&#45;&gt;Node32 -->
<g id="edge32" class="edge">
<title>Node3&#45;&gt;Node32</title>
<path fill="none" stroke="#63b8ff" d="M1769.2,-163.74C1829.82,-154.82 1921.69,-141.22 2001.5,-129 2004.5,-128.54 2007.6,-128.06 2010.72,-127.58"/>
<polygon fill="#63b8ff" stroke="#63b8ff" points="1768.39,-160.32 1759.01,-165.23 1769.41,-167.24 1768.39,-160.32"/>
</g>
<!-- Node25 -->
<g id="node25" class="node">
<title>Node25</title>
<g id="a_node25"><a xlink:href="_index_8hpp.html" target="_top" xlink:title=" ">
<polygon fill="white" stroke="#666666" points="1537,-74 1478,-74 1478,-55 1537,-55 1537,-74"/>
<text text-anchor="middle" x="1507.5" y="-62" font-family="Helvetica,sans-Serif" font-size="10.00">Index.hpp</text>
</a>
</g>
</g>
<!-- Node24&#45;&gt;Node25 -->
<g id="edge25" class="edge">
<title>Node24&#45;&gt;Node25</title>
<path fill="none" stroke="#63b8ff" d="M1507.5,-99.66C1507.5,-90.93 1507.5,-80.99 1507.5,-74.09"/>
<polygon fill="#63b8ff" stroke="#63b8ff" points="1504,-99.75 1507.5,-109.75 1511,-99.75 1504,-99.75"/>
</g>
<!-- Node26 -->
<g id="node26" class="node">
<title>Node26</title>
<g id="a_node26"><a xlink:href="_dll_main_8cpp.html" target="_top" xlink:title=" ">
<polygon fill="white" stroke="#666666" points="1541.5,-19 1473.5,-19 1473.5,0 1541.5,0 1541.5,-19"/>
<text text-anchor="middle" x="1507.5" y="-7" font-family="Helvetica,sans-Serif" font-size="10.00">DllMain.cpp</text>
</a>
</g>
</g>
<!-- Node25&#45;&gt;Node26 -->
<g id="edge26" class="edge">
<title>Node25&#45;&gt;Node26</title>
<path fill="none" stroke="#63b8ff" d="M1507.5,-44.66C1507.5,-35.93 1507.5,-25.99 1507.5,-19.09"/>
<polygon fill="#63b8ff" stroke="#63b8ff" points="1504,-44.75 1507.5,-54.75 1511,-44.75 1504,-44.75"/>
</g>
<!-- Node33&#45;&gt;Node3 -->
<g id="edge34" class="edge">
<title>Node33&#45;&gt;Node3</title>
<path fill="none" stroke="#63b8ff" d="M1761.99,-214.42C1747.29,-204.81 1728.28,-192.37 1715.75,-184.17"/>
<polygon fill="#63b8ff" stroke="#63b8ff" points="1760.2,-217.44 1770.49,-219.98 1764.03,-211.58 1760.2,-217.44"/>
</g>
<!-- Node33&#45;&gt;Node8 -->
<g id="edge35" class="edge">
<title>Node33&#45;&gt;Node8</title>
<path fill="none" stroke="#63b8ff" d="M1842.27,-226.12C2038.67,-217.79 2689.99,-187.31 3225.5,-129 3228.19,-128.71 3230.94,-128.38 3233.72,-128.03"/>
<polygon fill="#63b8ff" stroke="#63b8ff" points="1842.02,-222.62 1832.17,-226.54 1842.31,-229.62 1842.02,-222.62"/>
</g>
<!-- Node33&#45;&gt;Node31 -->
<g id="edge36" class="edge">
<title>Node33&#45;&gt;Node31</title>
<path fill="none" stroke="#63b8ff" d="M1842.37,-226.59C1990.81,-221.57 2392.36,-206.84 2726.5,-184 2999.84,-165.32 3068.2,-159.26 3340.5,-129 3343.17,-128.7 3345.91,-128.39 3348.67,-128.06"/>
<polygon fill="#63b8ff" stroke="#63b8ff" points="1842,-223.1 1832.13,-226.93 1842.24,-230.09 1842,-223.1"/>
</g>
</g>
</svg>
