<?xml version="1.0" encoding="UTF-8" standalone="no"?>
<!DOCTYPE svg PUBLIC "-//W3C//DTD SVG 1.1//EN"
 "http://www.w3.org/Graphics/SVG/1.1/DTD/svg11.dtd">
<!-- Generated by graphviz version 5.0.0 (20220707.1540)
 -->
<!-- Title: Base.hpp Pages: 1 -->
<svg width="1809pt" height="82pt"
 viewBox="0.00 0.00 1809.00 82.00" xmlns="http://www.w3.org/2000/svg" xmlns:xlink="http://www.w3.org/1999/xlink">
<g id="graph0" class="graph" transform="scale(1 1) rotate(0) translate(4 78)">
<title>Base.hpp</title>
<!-- Node1 -->
<g id="node1" class="node">
<title>Node1</title>
<g id="a_node1"><a xlink:title=" ">
<polygon fill="#999999" stroke="#666666" points="1020,-74 962,-74 962,-55 1020,-55 1020,-74"/>
<text text-anchor="middle" x="991" y="-62" font-family="Helvetica,sans-Serif" font-size="10.00">Base.hpp</text>
</a>
</g>
</g>
<!-- Node2 -->
<g id="node2" class="node">
<title>Node2</title>
<g id="a_node2"><a xlink:title=" ">
<polygon fill="#e0e0e0" stroke="#999999" points="62,-19 0,-19 0,0 62,0 62,-19"/>
<text text-anchor="middle" x="31" y="-7" font-family="Helvetica,sans-Serif" font-size="10.00">arpa/inet.h</text>
</a>
</g>
</g>
<!-- Node1&#45;&gt;Node2 -->
<g id="edge1" class="edge">
<title>Node1&#45;&gt;Node2</title>
<path fill="none" stroke="#63b8ff" d="M961.85,-63.79C848.65,-64.57 427.4,-64.16 72.32,-18.95"/>
<polygon fill="#63b8ff" stroke="#63b8ff" points="72.73,-15.47 62.36,-17.66 71.83,-22.41 72.73,-15.47"/>
</g>
<!-- Node3 -->
<g id="node3" class="node">
<title>Node3</title>
<g id="a_node3"><a xlink:title=" ">
<polygon fill="#e0e0e0" stroke="#999999" points="142,-19 80,-19 80,0 142,0 142,-19"/>
<text text-anchor="middle" x="111" y="-7" font-family="Helvetica,sans-Serif" font-size="10.00">sys/time.h</text>
</a>
</g>
</g>
<!-- Node1&#45;&gt;Node3 -->
<g id="edge2" class="edge">
<title>Node1&#45;&gt;Node3</title>
<path fill="none" stroke="#63b8ff" d="M961.83,-63.6C854.94,-63.63 474.54,-60.7 152.36,-18.96"/>
<polygon fill="#63b8ff" stroke="#63b8ff" points="152.73,-15.48 142.36,-17.65 151.82,-22.42 152.73,-15.48"/>
</g>
<!-- Node4 -->
<g id="node4" class="node">
<title>Node4</title>
<g id="a_node4"><a xlink:title=" ">
<polygon fill="#e0e0e0" stroke="#999999" points="217.5,-19 160.5,-19 160.5,0 217.5,0 217.5,-19"/>
<text text-anchor="middle" x="189" y="-7" font-family="Helvetica,sans-Serif" font-size="10.00">pthread.h</text>
</a>
</g>
</g>
<!-- Node1&#45;&gt;Node4 -->
<g id="edge3" class="edge">
<title>Node1&#45;&gt;Node4</title>
<path fill="none" stroke="#63b8ff" d="M961.69,-63.5C860.86,-63.12 519.01,-58.89 227.46,-18.79"/>
<polygon fill="#63b8ff" stroke="#63b8ff" points="227.93,-15.32 217.54,-17.4 226.96,-22.25 227.93,-15.32"/>
</g>
<!-- Node5 -->
<g id="node5" class="node">
<title>Node5</title>
<g id="a_node5"><a xlink:title=" ">
<polygon fill="#e0e0e0" stroke="#999999" points="282,-19 236,-19 236,0 282,0 282,-19"/>
<text text-anchor="middle" x="259" y="-7" font-family="Helvetica,sans-Serif" font-size="10.00">cstdint</text>
</a>
</g>
</g>
<!-- Node1&#45;&gt;Node5 -->
<g id="edge4" class="edge">
<title>Node1&#45;&gt;Node5</title>
<path fill="none" stroke="#63b8ff" d="M961.77,-63.68C866.51,-63.86 556.51,-61.04 292.47,-18.9"/>
<polygon fill="#63b8ff" stroke="#63b8ff" points="292.74,-15.4 282.3,-17.26 291.62,-22.31 292.74,-15.4"/>
</g>
<!-- Node6 -->
<g id="node6" class="node">
<title>Node6</title>
<g id="a_node6"><a xlink:title=" ">
<polygon fill="#e0e0e0" stroke="#999999" points="346,-19 300,-19 300,0 346,0 346,-19"/>
<text text-anchor="middle" x="323" y="-7" font-family="Helvetica,sans-Serif" font-size="10.00">cstring</text>
</a>
</g>
</g>
<!-- Node1&#45;&gt;Node6 -->
<g id="edge5" class="edge">
<title>Node1&#45;&gt;Node6</title>
<path fill="none" stroke="#63b8ff" d="M961.93,-63.42C872.64,-62.77 594.5,-57.67 356.19,-18.87"/>
<polygon fill="#63b8ff" stroke="#63b8ff" points="356.74,-15.41 346.31,-17.24 355.6,-22.32 356.74,-15.41"/>
</g>
<!-- Node7 -->
<g id="node7" class="node">
<title>Node7</title>
<g id="a_node7"><a xlink:title=" ">
<polygon fill="#e0e0e0" stroke="#999999" points="408,-19 364,-19 364,0 408,0 408,-19"/>
<text text-anchor="middle" x="386" y="-7" font-family="Helvetica,sans-Serif" font-size="10.00">time.h</text>
</a>
</g>
</g>
<!-- Node1&#45;&gt;Node7 -->
<g id="edge6" class="edge">
<title>Node1&#45;&gt;Node7</title>
<path fill="none" stroke="#63b8ff" d="M961.79,-63.19C878.29,-61.9 631.42,-55.2 418.36,-18.89"/>
<polygon fill="#63b8ff" stroke="#63b8ff" points="418.69,-15.4 408.24,-17.14 417.49,-22.3 418.69,-15.4"/>
</g>
<!-- Node8 -->
<g id="node8" class="node">
<title>Node8</title>
<g id="a_node8"><a xlink:title=" ">
<polygon fill="#e0e0e0" stroke="#999999" points="467.5,-19 426.5,-19 426.5,0 467.5,0 467.5,-19"/>
<text text-anchor="middle" x="447" y="-7" font-family="Helvetica,sans-Serif" font-size="10.00">ctime</text>
</a>
</g>
</g>
<!-- Node1&#45;&gt;Node8 -->
<g id="edge7" class="edge">
<title>Node1&#45;&gt;Node8</title>
<path fill="none" stroke="#63b8ff" d="M961.97,-63.01C884.54,-61.27 666.64,-53.61 477.89,-19.01"/>
<polygon fill="#63b8ff" stroke="#63b8ff" points="478.26,-15.52 467.79,-17.13 476.98,-22.4 478.26,-15.52"/>
</g>
<!-- Node9 -->
<g id="node9" class="node">
<title>Node9</title>
<g id="a_node9"><a xlink:title=" ">
<polygon fill="#e0e0e0" stroke="#999999" points="580.5,-19 485.5,-19 485.5,0 580.5,0 580.5,-19"/>
<text text-anchor="middle" x="533" y="-7" font-family="Helvetica,sans-Serif" font-size="10.00">jsonifier/Index.hpp</text>
</a>
</g>
</g>
<!-- Node1&#45;&gt;Node9 -->
<g id="edge8" class="edge">
<title>Node1&#45;&gt;Node9</title>
<path fill="none" stroke="#63b8ff" d="M961.7,-60.67C896.77,-54.3 735.7,-38.02 590.61,-19.17"/>
<polygon fill="#63b8ff" stroke="#63b8ff" points="591.01,-15.69 580.64,-17.86 590.1,-22.63 591.01,-15.69"/>
</g>
<!-- Node10 -->
<g id="node10" class="node">
<title>Node10</title>
<g id="a_node10"><a xlink:title=" ">
<polygon fill="#e0e0e0" stroke="#999999" points="683.5,-19 598.5,-19 598.5,0 683.5,0 683.5,-19"/>
<text text-anchor="middle" x="641" y="-7" font-family="Helvetica,sans-Serif" font-size="10.00">source_location</text>
</a>
</g>
</g>
<!-- Node1&#45;&gt;Node10 -->
<g id="edge9" class="edge">
<title>Node1&#45;&gt;Node10</title>
<path fill="none" stroke="#63b8ff" d="M961.79,-59.28C910.07,-51.76 798.7,-35.46 693.7,-19.09"/>
<polygon fill="#63b8ff" stroke="#63b8ff" points="693.98,-15.59 683.56,-17.51 692.9,-22.51 693.98,-15.59"/>
</g>
<!-- Node11 -->
<g id="node11" class="node">
<title>Node11</title>
<g id="a_node11"><a xlink:title=" ">
<polygon fill="#e0e0e0" stroke="#999999" points="780,-19 702,-19 702,0 780,0 780,-19"/>
<text text-anchor="middle" x="741" y="-7" font-family="Helvetica,sans-Serif" font-size="10.00">shared_mutex</text>
</a>
</g>
</g>
<!-- Node1&#45;&gt;Node11 -->
<g id="edge10" class="edge">
<title>Node1&#45;&gt;Node11</title>
<path fill="none" stroke="#63b8ff" d="M961.83,-57.32C919.69,-48.38 841.23,-31.75 790.07,-20.9"/>
<polygon fill="#63b8ff" stroke="#63b8ff" points="790.74,-17.47 780.23,-18.82 789.28,-24.31 790.74,-17.47"/>
</g>
<!-- Node12 -->
<g id="node12" class="node">
<title>Node12</title>
<g id="a_node12"><a xlink:title=" ">
<polygon fill="#e0e0e0" stroke="#999999" points="863.5,-19 798.5,-19 798.5,0 863.5,0 863.5,-19"/>
<text text-anchor="middle" x="831" y="-7" font-family="Helvetica,sans-Serif" font-size="10.00">immintrin.h</text>
</a>
</g>
</g>
<!-- Node1&#45;&gt;Node12 -->
<g id="edge11" class="edge">
<title>Node1&#45;&gt;Node12</title>
<path fill="none" stroke="#63b8ff" d="M965.29,-54.98C938.55,-46.13 896.47,-32.19 866.55,-22.28"/>
<polygon fill="#63b8ff" stroke="#63b8ff" points="867.5,-18.9 856.91,-19.08 865.3,-25.55 867.5,-18.9"/>
</g>
<!-- Node13 -->
<g id="node13" class="node">
<title>Node13</title>
<g id="a_node13"><a xlink:title=" ">
<polygon fill="#e0e0e0" stroke="#999999" points="940,-19 882,-19 882,0 940,0 940,-19"/>
<text text-anchor="middle" x="911" y="-7" font-family="Helvetica,sans-Serif" font-size="10.00">functional</text>
</a>
</g>
</g>
<!-- Node1&#45;&gt;Node13 -->
<g id="edge12" class="edge">
<title>Node1&#45;&gt;Node13</title>
<path fill="none" stroke="#63b8ff" d="M978.15,-54.98C965.86,-46.84 947.09,-34.41 932.52,-24.76"/>
<polygon fill="#63b8ff" stroke="#63b8ff" points="934.36,-21.78 924.09,-19.17 930.49,-27.61 934.36,-21.78"/>
</g>
<!-- Node14 -->
<g id="node14" class="node">
<title>Node14</title>
<g id="a_node14"><a xlink:title=" ">
<polygon fill="#e0e0e0" stroke="#999999" points="1023.5,-19 958.5,-19 958.5,0 1023.5,0 1023.5,-19"/>
<text text-anchor="middle" x="991" y="-7" font-family="Helvetica,sans-Serif" font-size="10.00">semaphore</text>
</a>
</g>
</g>
<!-- Node1&#45;&gt;Node14 -->
<g id="edge13" class="edge">
<title>Node1&#45;&gt;Node14</title>
<path fill="none" stroke="#63b8ff" d="M991,-54.75C991,-47.8 991,-37.85 991,-29.13"/>
<polygon fill="#63b8ff" stroke="#63b8ff" points="994.5,-29.09 991,-19.09 987.5,-29.09 994.5,-29.09"/>
</g>
<!-- Node15 -->
<g id="node15" class="node">
<title>Node15</title>
<g id="a_node15"><a xlink:title=" ">
<polygon fill="#e0e0e0" stroke="#999999" points="1098,-19 1042,-19 1042,0 1098,0 1098,-19"/>
<text text-anchor="middle" x="1070" y="-7" font-family="Helvetica,sans-Serif" font-size="10.00">concepts</text>
</a>
</g>
</g>
<!-- Node1&#45;&gt;Node15 -->
<g id="edge14" class="edge">
<title>Node1&#45;&gt;Node15</title>
<path fill="none" stroke="#63b8ff" d="M1003.69,-54.98C1015.83,-46.84 1034.36,-34.41 1048.75,-24.76"/>
<polygon fill="#63b8ff" stroke="#63b8ff" points="1050.72,-27.65 1057.08,-19.17 1046.82,-21.84 1050.72,-27.65"/>
</g>
<!-- Node16 -->
<g id="node16" class="node">
<title>Node16</title>
<g id="a_node16"><a xlink:title=" ">
<polygon fill="#e0e0e0" stroke="#999999" points="1170,-19 1116,-19 1116,0 1170,0 1170,-19"/>
<text text-anchor="middle" x="1143" y="-7" font-family="Helvetica,sans-Serif" font-size="10.00">iostream</text>
</a>
</g>
</g>
<!-- Node1&#45;&gt;Node16 -->
<g id="edge15" class="edge">
<title>Node1&#45;&gt;Node16</title>
<path fill="none" stroke="#63b8ff" d="M1015.42,-54.98C1040.72,-46.16 1080.45,-32.31 1108.86,-22.41"/>
<polygon fill="#63b8ff" stroke="#63b8ff" points="1110.1,-25.68 1118.39,-19.08 1107.79,-19.07 1110.1,-25.68"/>
</g>
<!-- Node17 -->
<g id="node17" class="node">
<title>Node17</title>
<g id="a_node17"><a xlink:title=" ">
<polygon fill="#e0e0e0" stroke="#999999" points="1240,-19 1188,-19 1188,0 1240,0 1240,-19"/>
<text text-anchor="middle" x="1214" y="-7" font-family="Helvetica,sans-Serif" font-size="10.00">sstream</text>
</a>
</g>
</g>
<!-- Node1&#45;&gt;Node17 -->
<g id="edge16" class="edge">
<title>Node1&#45;&gt;Node17</title>
<path fill="none" stroke="#63b8ff" d="M1020.32,-56.62C1055.44,-48.36 1116.31,-34 1177.77,-19.29"/>
<polygon fill="#63b8ff" stroke="#63b8ff" points="1178.72,-22.66 1187.63,-16.92 1177.09,-15.85 1178.72,-22.66"/>
</g>
<!-- Node18 -->
<g id="node18" class="node">
<title>Node18</title>
<g id="a_node18"><a xlink:title=" ">
<polygon fill="#e0e0e0" stroke="#999999" points="1308,-19 1258,-19 1258,0 1308,0 1308,-19"/>
<text text-anchor="middle" x="1283" y="-7" font-family="Helvetica,sans-Serif" font-size="10.00">iomanip</text>
</a>
</g>
</g>
<!-- Node1&#45;&gt;Node18 -->
<g id="edge17" class="edge">
<title>Node1&#45;&gt;Node18</title>
<path fill="none" stroke="#63b8ff" d="M1020.15,-59.19C1066.36,-52.21 1159.45,-37.52 1247.88,-19.11"/>
<polygon fill="#63b8ff" stroke="#63b8ff" points="1248.73,-22.5 1257.8,-17.02 1247.29,-15.65 1248.73,-22.5"/>
</g>
<!-- Node19 -->
<g id="node19" class="node">
<title>Node19</title>
<g id="a_node19"><a xlink:title=" ">
<polygon fill="#e0e0e0" stroke="#999999" points="1368,-19 1326,-19 1326,0 1368,0 1368,-19"/>
<text text-anchor="middle" x="1347" y="-7" font-family="Helvetica,sans-Serif" font-size="10.00">vector</text>
</a>
</g>
</g>
<!-- Node1&#45;&gt;Node19 -->
<g id="edge18" class="edge">
<title>Node1&#45;&gt;Node19</title>
<path fill="none" stroke="#63b8ff" d="M1020.01,-60.92C1075.62,-55.68 1201.15,-42.43 1315.79,-18.99"/>
<polygon fill="#63b8ff" stroke="#63b8ff" points="1316.71,-22.37 1325.79,-16.91 1315.28,-15.52 1316.71,-22.37"/>
</g>
<!-- Node20 -->
<g id="node20" class="node">
<title>Node20</title>
<g id="a_node20"><a xlink:title=" ">
<polygon fill="#e0e0e0" stroke="#999999" points="1432,-19 1386,-19 1386,0 1432,0 1432,-19"/>
<text text-anchor="middle" x="1409" y="-7" font-family="Helvetica,sans-Serif" font-size="10.00">atomic</text>
</a>
</g>
</g>
<!-- Node1&#45;&gt;Node20 -->
<g id="edge19" class="edge">
<title>Node1&#45;&gt;Node20</title>
<path fill="none" stroke="#63b8ff" d="M1020.27,-61.58C1083.5,-57.12 1237.65,-44.59 1375.76,-18.98"/>
<polygon fill="#63b8ff" stroke="#63b8ff" points="1376.49,-22.4 1385.67,-17.11 1375.2,-15.53 1376.49,-22.4"/>
</g>
<!-- Node21 -->
<g id="node21" class="node">
<title>Node21</title>
<g id="a_node21"><a xlink:title=" ">
<polygon fill="#e0e0e0" stroke="#999999" points="1499.5,-19 1450.5,-19 1450.5,0 1499.5,0 1499.5,-19"/>
<text text-anchor="middle" x="1475" y="-7" font-family="Helvetica,sans-Serif" font-size="10.00">random</text>
</a>
</g>
</g>
<!-- Node1&#45;&gt;Node21 -->
<g id="edge20" class="edge">
<title>Node1&#45;&gt;Node21</title>
<path fill="none" stroke="#63b8ff" d="M1020.15,-62.1C1090.61,-58.4 1275.79,-46.8 1439.93,-18.92"/>
<polygon fill="#63b8ff" stroke="#63b8ff" points="1440.95,-22.29 1450.21,-17.14 1439.76,-15.39 1440.95,-22.29"/>
</g>
<!-- Node22 -->
<g id="node22" class="node">
<title>Node22</title>
<g id="a_node22"><a xlink:title=" ">
<polygon fill="#e0e0e0" stroke="#999999" points="1558.5,-19 1517.5,-19 1517.5,0 1558.5,0 1558.5,-19"/>
<text text-anchor="middle" x="1538" y="-7" font-family="Helvetica,sans-Serif" font-size="10.00">string</text>
</a>
</g>
</g>
<!-- Node1&#45;&gt;Node22 -->
<g id="edge21" class="edge">
<title>Node1&#45;&gt;Node22</title>
<path fill="none" stroke="#63b8ff" d="M1020.2,-63.03C1098.12,-61.33 1317.47,-53.75 1507.34,-18.97"/>
<polygon fill="#63b8ff" stroke="#63b8ff" points="1508.02,-22.4 1517.21,-17.13 1506.74,-15.52 1508.02,-22.4"/>
</g>
<!-- Node23 -->
<g id="node23" class="node">
<title>Node23</title>
<g id="a_node23"><a xlink:title=" ">
<polygon fill="#e0e0e0" stroke="#999999" points="1621,-19 1577,-19 1577,0 1621,0 1621,-19"/>
<text text-anchor="middle" x="1599" y="-7" font-family="Helvetica,sans-Serif" font-size="10.00">thread</text>
</a>
</g>
</g>
<!-- Node1&#45;&gt;Node23 -->
<g id="edge22" class="edge">
<title>Node1&#45;&gt;Node23</title>
<path fill="none" stroke="#63b8ff" d="M1020.06,-63.21C1103.74,-61.96 1352.45,-55.38 1566.9,-18.85"/>
<polygon fill="#63b8ff" stroke="#63b8ff" points="1567.51,-22.3 1576.76,-17.14 1566.31,-15.4 1567.51,-22.3"/>
</g>
<!-- Node24 -->
<g id="node24" class="node">
<title>Node24</title>
<g id="a_node24"><a xlink:title=" ">
<polygon fill="#e0e0e0" stroke="#999999" points="1683,-19 1639,-19 1639,0 1683,0 1683,-19"/>
<text text-anchor="middle" x="1661" y="-7" font-family="Helvetica,sans-Serif" font-size="10.00">mutex</text>
</a>
</g>
</g>
<!-- Node1&#45;&gt;Node24 -->
<g id="edge23" class="edge">
<title>Node1&#45;&gt;Node24</title>
<path fill="none" stroke="#63b8ff" d="M1020.22,-63.51C1109.97,-63.13 1389.52,-58.72 1628.84,-18.84"/>
<polygon fill="#63b8ff" stroke="#63b8ff" points="1629.49,-22.28 1638.77,-17.16 1628.32,-15.38 1629.49,-22.28"/>
</g>
<!-- Node25 -->
<g id="node25" class="node">
<title>Node25</title>
<g id="a_node25"><a xlink:title=" ">
<polygon fill="#e0e0e0" stroke="#999999" points="1744.5,-19 1701.5,-19 1701.5,0 1744.5,0 1744.5,-19"/>
<text text-anchor="middle" x="1723" y="-7" font-family="Helvetica,sans-Serif" font-size="10.00">queue</text>
</a>
</g>
</g>
<!-- Node1&#45;&gt;Node25 -->
<g id="edge24" class="edge">
<title>Node1&#45;&gt;Node25</title>
<path fill="none" stroke="#63b8ff" d="M1020.29,-63.77C1115.72,-64.2 1426.28,-62.1 1691.25,-18.71"/>
<polygon fill="#63b8ff" stroke="#63b8ff" points="1692.15,-22.11 1701.45,-17.01 1691.01,-15.2 1692.15,-22.11"/>
</g>
<!-- Node26 -->
<g id="node26" class="node">
<title>Node26</title>
<g id="a_node26"><a xlink:title=" ">
<polygon fill="#e0e0e0" stroke="#999999" points="1801,-19 1763,-19 1763,0 1801,0 1801,-19"/>
<text text-anchor="middle" x="1782" y="-7" font-family="Helvetica,sans-Serif" font-size="10.00">array</text>
</a>
</g>
</g>
<!-- Node1&#45;&gt;Node26 -->
<g id="edge25" class="edge">
<title>Node1&#45;&gt;Node26</title>
<path fill="none" stroke="#63b8ff" d="M1020.13,-62.72C1139.2,-59.4 1589.98,-45.45 1753.01,-18.66"/>
<polygon fill="#63b8ff" stroke="#63b8ff" points="1753.61,-22.11 1762.87,-16.96 1752.42,-15.21 1753.61,-22.11"/>
</g>
</g>
</svg>
