<?xml version="1.0" encoding="UTF-8" standalone="no"?>
<!DOCTYPE svg PUBLIC "-//W3C//DTD SVG 1.1//EN"
 "http://www.w3.org/Graphics/SVG/1.1/DTD/svg11.dtd">
<!-- Generated by graphviz version 5.0.0 (20220707.1540)
 -->
<!-- Title: ChannelEntities.hpp Pages: 1 -->
<svg width="3464pt" height="357pt"
 viewBox="0.00 0.00 3464.00 357.00" xmlns="http://www.w3.org/2000/svg" xmlns:xlink="http://www.w3.org/1999/xlink">
<g id="graph0" class="graph" transform="scale(1 1) rotate(0) translate(4 353)">
<title>ChannelEntities.hpp</title>
<!-- Node1 -->
<g id="node1" class="node">
<title>Node1</title>
<g id="a_node1"><a xlink:title=" ">
<polygon fill="#999999" stroke="#666666" points="807,-349 703,-349 703,-330 807,-330 807,-349"/>
<text text-anchor="middle" x="755" y="-337" font-family="Helvetica,sans-Serif" font-size="10.00">ChannelEntities.hpp</text>
</a>
</g>
</g>
<!-- Node2 -->
<g id="node2" class="node">
<title>Node2</title>
<g id="a_node2"><a xlink:href="_channel_entities_8cpp.html" target="_top" xlink:title=" ">
<polygon fill="white" stroke="#666666" points="238,-129 134,-129 134,-110 238,-110 238,-129"/>
<text text-anchor="middle" x="186" y="-117" font-family="Helvetica,sans-Serif" font-size="10.00">ChannelEntities.cpp</text>
</a>
</g>
</g>
<!-- Node1&#45;&gt;Node2 -->
<g id="edge1" class="edge">
<title>Node1&#45;&gt;Node2</title>
<path fill="none" stroke="#63b8ff" d="M717.53,-326.84C690.32,-318.2 652.69,-305.91 620,-294 458.75,-235.25 267.71,-155.15 206.16,-129.08"/>
<polygon fill="#63b8ff" stroke="#63b8ff" points="716.83,-330.28 727.42,-329.96 718.94,-323.61 716.83,-330.28"/>
</g>
<!-- Node3 -->
<g id="node3" class="node">
<title>Node3</title>
<g id="a_node3"><a xlink:href="_discord_core_client_8hpp.html" target="_top" xlink:title=" ">
<polygon fill="white" stroke="#666666" points="1618.5,-184 1505.5,-184 1505.5,-165 1618.5,-165 1618.5,-184"/>
<text text-anchor="middle" x="1562" y="-172" font-family="Helvetica,sans-Serif" font-size="10.00">DiscordCoreClient.hpp</text>
</a>
</g>
</g>
<!-- Node1&#45;&gt;Node3 -->
<g id="edge2" class="edge">
<title>Node1&#45;&gt;Node3</title>
<path fill="none" stroke="#63b8ff" d="M807.09,-327.98C956.32,-297.84 1383.42,-211.57 1519.68,-184.05"/>
<polygon fill="#63b8ff" stroke="#63b8ff" points="806.36,-324.56 797.25,-329.97 807.75,-331.42 806.36,-324.56"/>
</g>
<!-- Node9 -->
<g id="node9" class="node">
<title>Node9</title>
<g id="a_node9"><a xlink:href="_foundation_entities_8cpp.html" target="_top" xlink:title=" ">
<polygon fill="white" stroke="#666666" points="116,-129 0,-129 0,-110 116,-110 116,-129"/>
<text text-anchor="middle" x="58" y="-117" font-family="Helvetica,sans-Serif" font-size="10.00">FoundationEntities.cpp</text>
</a>
</g>
</g>
<!-- Node1&#45;&gt;Node9 -->
<g id="edge37" class="edge">
<title>Node1&#45;&gt;Node9</title>
<path fill="none" stroke="#63b8ff" d="M704.89,-327.74C667.49,-319.4 615.25,-307.08 570,-294 378.4,-238.62 152.1,-155.63 80.73,-129.03"/>
<polygon fill="#63b8ff" stroke="#63b8ff" points="704.51,-331.24 715.03,-329.99 706.02,-324.41 704.51,-331.24"/>
</g>
<!-- Node14 -->
<g id="node14" class="node">
<title>Node14</title>
<g id="a_node14"><a xlink:href="_input_events_8cpp.html" target="_top" xlink:title=" ">
<polygon fill="white" stroke="#666666" points="342,-129 256,-129 256,-110 342,-110 342,-129"/>
<text text-anchor="middle" x="299" y="-117" font-family="Helvetica,sans-Serif" font-size="10.00">InputEvents.cpp</text>
</a>
</g>
</g>
<!-- Node1&#45;&gt;Node14 -->
<g id="edge45" class="edge">
<title>Node1&#45;&gt;Node14</title>
<path fill="none" stroke="#63b8ff" d="M727.96,-325.57C643.79,-285.33 387.91,-163.01 317.25,-129.22"/>
<polygon fill="#63b8ff" stroke="#63b8ff" points="726.59,-328.8 737.12,-329.95 729.61,-322.48 726.59,-328.8"/>
</g>
<!-- Node28 -->
<g id="node28" class="node">
<title>Node28</title>
<g id="a_node28"><a xlink:href="_utilities_8cpp.html" target="_top" xlink:title=" ">
<polygon fill="white" stroke="#666666" points="3456,-129 3388,-129 3388,-110 3456,-110 3456,-129"/>
<text text-anchor="middle" x="3422" y="-117" font-family="Helvetica,sans-Serif" font-size="10.00">Utilities.cpp</text>
</a>
</g>
</g>
<!-- Node1&#45;&gt;Node28 -->
<g id="edge50" class="edge">
<title>Node1&#45;&gt;Node28</title>
<path fill="none" stroke="#63b8ff" d="M817.14,-336.65C968.04,-331.93 1365.78,-318.05 1697,-294 2446.17,-239.59 2635.9,-238.63 3379,-129 3381.86,-128.58 3384.82,-128.09 3387.78,-127.58"/>
<polygon fill="#63b8ff" stroke="#63b8ff" points="817.02,-333.15 807.14,-336.96 817.24,-340.15 817.02,-333.15"/>
</g>
<!-- Node33 -->
<g id="node33" class="node">
<title>Node33</title>
<g id="a_node33"><a xlink:href="_event_manager_8hpp.html" target="_top" xlink:title=" ">
<polygon fill="white" stroke="#666666" points="840.5,-239 743.5,-239 743.5,-220 840.5,-220 840.5,-239"/>
<text text-anchor="middle" x="792" y="-227" font-family="Helvetica,sans-Serif" font-size="10.00">EventManager.hpp</text>
</a>
</g>
</g>
<!-- Node1&#45;&gt;Node33 -->
<g id="edge33" class="edge">
<title>Node1&#45;&gt;Node33</title>
<path fill="none" stroke="#63b8ff" d="M762.26,-320.24C765.37,-312.23 768.97,-302.69 772,-294 778.76,-274.57 785.79,-251.46 789.45,-239.18"/>
<polygon fill="#63b8ff" stroke="#63b8ff" points="758.94,-319.1 758.54,-329.69 765.46,-321.67 758.94,-319.1"/>
</g>
<!-- Node34 -->
<g id="node34" class="node">
<title>Node34</title>
<g id="a_node34"><a xlink:href="_guild_entities_8hpp.html" target="_top" xlink:title=" ">
<polygon fill="white" stroke="#666666" points="763.5,-294 672.5,-294 672.5,-275 763.5,-275 763.5,-294"/>
<text text-anchor="middle" x="718" y="-282" font-family="Helvetica,sans-Serif" font-size="10.00">GuildEntities.hpp</text>
</a>
</g>
</g>
<!-- Node1&#45;&gt;Node34 -->
<g id="edge38" class="edge">
<title>Node1&#45;&gt;Node34</title>
<path fill="none" stroke="#63b8ff" d="M743.05,-321.39C736.69,-312.27 729.13,-301.45 724,-294.09"/>
<polygon fill="#63b8ff" stroke="#63b8ff" points="740.3,-323.55 748.89,-329.75 746.04,-319.55 740.3,-323.55"/>
</g>
<!-- Node35 -->
<g id="node35" class="node">
<title>Node35</title>
<g id="a_node35"><a xlink:href="_thread_entities_8hpp.html" target="_top" xlink:title=" ">
<polygon fill="white" stroke="#666666" points="1688,-294 1590,-294 1590,-275 1688,-275 1688,-294"/>
<text text-anchor="middle" x="1639" y="-282" font-family="Helvetica,sans-Serif" font-size="10.00">ThreadEntities.hpp</text>
</a>
</g>
</g>
<!-- Node1&#45;&gt;Node35 -->
<g id="edge46" class="edge">
<title>Node1&#45;&gt;Node35</title>
<path fill="none" stroke="#63b8ff" d="M817.8,-336.81C955.41,-332.73 1293.8,-320.64 1576,-294 1580.5,-293.57 1585.18,-293.07 1589.86,-292.52"/>
<polygon fill="#63b8ff" stroke="#63b8ff" points="817.35,-333.32 807.46,-337.11 817.55,-340.32 817.35,-333.32"/>
</g>
<!-- Node3&#45;&gt;Node2 -->
<g id="edge5" class="edge">
<title>Node3&#45;&gt;Node2</title>
<path fill="none" stroke="#63b8ff" d="M1495.48,-173.7C1302.24,-173.77 724.35,-170.22 247,-129 244.12,-128.75 241.18,-128.46 238.2,-128.14"/>
<polygon fill="#63b8ff" stroke="#63b8ff" points="1495.48,-177.2 1505.48,-173.7 1495.48,-170.2 1495.48,-177.2"/>
</g>
<!-- Node4 -->
<g id="node4" class="node">
<title>Node4</title>
<g id="a_node4"><a xlink:href="_application_command_entities_8cpp.html" target="_top" xlink:title=" ">
<polygon fill="white" stroke="#666666" points="3253.5,-129 3092.5,-129 3092.5,-110 3253.5,-110 3253.5,-129"/>
<text text-anchor="middle" x="3173" y="-117" font-family="Helvetica,sans-Serif" font-size="10.00">ApplicationCommandEntities.cpp</text>
</a>
</g>
</g>
<!-- Node3&#45;&gt;Node4 -->
<g id="edge3" class="edge">
<title>Node3&#45;&gt;Node4</title>
<path fill="none" stroke="#63b8ff" d="M1628.54,-165.34C1630.04,-165.22 1631.53,-165.11 1633,-165 2276.42,-118.61 2440.07,-167.69 3084,-129 3086.79,-128.83 3089.63,-128.65 3092.49,-128.45"/>
<polygon fill="#63b8ff" stroke="#63b8ff" points="1628.18,-161.86 1618.54,-166.24 1628.81,-168.83 1628.18,-161.86"/>
</g>
<!-- Node5 -->
<g id="node5" class="node">
<title>Node5</title>
<g id="a_node5"><a xlink:href="_auto_moderation_entities_8cpp.html" target="_top" xlink:title=" ">
<polygon fill="white" stroke="#666666" points="995.5,-129 858.5,-129 858.5,-110 995.5,-110 995.5,-129"/>
<text text-anchor="middle" x="927" y="-117" font-family="Helvetica,sans-Serif" font-size="10.00">AutoModerationEntities.cpp</text>
</a>
</g>
</g>
<!-- Node3&#45;&gt;Node5 -->
<g id="edge4" class="edge">
<title>Node3&#45;&gt;Node5</title>
<path fill="none" stroke="#63b8ff" d="M1495.21,-168.83C1390.46,-161.36 1181.19,-145.84 1004,-129 1001.32,-128.75 998.59,-128.48 995.84,-128.2"/>
<polygon fill="#63b8ff" stroke="#63b8ff" points="1495.09,-172.33 1505.32,-169.55 1495.59,-165.35 1495.09,-172.33"/>
</g>
<!-- Node6 -->
<g id="node6" class="node">
<title>Node6</title>
<g id="a_node6"><a xlink:href="_command_controller_8cpp.html" target="_top" xlink:title=" ">
<polygon fill="white" stroke="#666666" points="1134.5,-129 1013.5,-129 1013.5,-110 1134.5,-110 1134.5,-129"/>
<text text-anchor="middle" x="1074" y="-117" font-family="Helvetica,sans-Serif" font-size="10.00">CommandController.cpp</text>
</a>
</g>
</g>
<!-- Node3&#45;&gt;Node6 -->
<g id="edge6" class="edge">
<title>Node3&#45;&gt;Node6</title>
<path fill="none" stroke="#63b8ff" d="M1495.36,-166.77C1412.67,-158.34 1267.36,-143.26 1143,-129 1140.24,-128.68 1137.42,-128.36 1134.58,-128.02"/>
<polygon fill="#63b8ff" stroke="#63b8ff" points="1495.07,-170.26 1505.38,-167.79 1495.78,-163.3 1495.07,-170.26"/>
</g>
<!-- Node7 -->
<g id="node7" class="node">
<title>Node7</title>
<g id="a_node7"><a xlink:href="_discord_core_client_8cpp.html" target="_top" xlink:title=" ">
<polygon fill="white" stroke="#666666" points="1265.5,-129 1152.5,-129 1152.5,-110 1265.5,-110 1265.5,-129"/>
<text text-anchor="middle" x="1209" y="-117" font-family="Helvetica,sans-Serif" font-size="10.00">DiscordCoreClient.cpp</text>
</a>
</g>
</g>
<!-- Node3&#45;&gt;Node7 -->
<g id="edge7" class="edge">
<title>Node3&#45;&gt;Node7</title>
<path fill="none" stroke="#63b8ff" d="M1495.34,-163.49C1428.96,-153.53 1328.17,-138.39 1265.57,-128.99"/>
<polygon fill="#63b8ff" stroke="#63b8ff" points="1494.88,-166.96 1505.28,-164.98 1495.91,-160.04 1494.88,-166.96"/>
</g>
<!-- Node8 -->
<g id="node8" class="node">
<title>Node8</title>
<g id="a_node8"><a xlink:href="_event_manager_8cpp.html" target="_top" xlink:title=" ">
<polygon fill="white" stroke="#666666" points="840.5,-129 743.5,-129 743.5,-110 840.5,-110 840.5,-129"/>
<text text-anchor="middle" x="792" y="-117" font-family="Helvetica,sans-Serif" font-size="10.00">EventManager.cpp</text>
</a>
</g>
</g>
<!-- Node3&#45;&gt;Node8 -->
<g id="edge8" class="edge">
<title>Node3&#45;&gt;Node8</title>
<path fill="none" stroke="#63b8ff" d="M1495.19,-171.24C1368.76,-166.54 1085.94,-154.01 849,-129 846.31,-128.72 843.56,-128.4 840.78,-128.06"/>
<polygon fill="#63b8ff" stroke="#63b8ff" points="1495.36,-174.75 1505.48,-171.62 1495.62,-167.75 1495.36,-174.75"/>
</g>
<!-- Node3&#45;&gt;Node9 -->
<g id="edge9" class="edge">
<title>Node3&#45;&gt;Node9</title>
<path fill="none" stroke="#63b8ff" d="M1495.11,-173.69C1289.97,-173.79 651.76,-170.47 125,-129 122.08,-128.77 119.09,-128.5 116.07,-128.21"/>
<polygon fill="#63b8ff" stroke="#63b8ff" points="1495.41,-177.19 1505.41,-173.68 1495.41,-170.19 1495.41,-177.19"/>
</g>
<!-- Node10 -->
<g id="node10" class="node">
<title>Node10</title>
<g id="a_node10"><a xlink:href="_guild_entities_8cpp.html" target="_top" xlink:title=" ">
<polygon fill="white" stroke="#666666" points="451.5,-129 360.5,-129 360.5,-110 451.5,-110 451.5,-129"/>
<text text-anchor="middle" x="406" y="-117" font-family="Helvetica,sans-Serif" font-size="10.00">GuildEntities.cpp</text>
</a>
</g>
</g>
<!-- Node3&#45;&gt;Node10 -->
<g id="edge10" class="edge">
<title>Node3&#45;&gt;Node10</title>
<path fill="none" stroke="#63b8ff" d="M1495.26,-173.42C1323.38,-172.66 851.68,-166.96 461,-129 457.92,-128.7 454.76,-128.34 451.57,-127.95"/>
<polygon fill="#63b8ff" stroke="#63b8ff" points="1495.4,-176.92 1505.41,-173.46 1495.43,-169.92 1495.4,-176.92"/>
</g>
<!-- Node11 -->
<g id="node11" class="node">
<title>Node11</title>
<g id="a_node11"><a xlink:href="_guild_member_entities_8cpp.html" target="_top" xlink:title=" ">
<polygon fill="white" stroke="#666666" points="596,-129 470,-129 470,-110 596,-110 596,-129"/>
<text text-anchor="middle" x="533" y="-117" font-family="Helvetica,sans-Serif" font-size="10.00">GuildMemberEntities.cpp</text>
</a>
</g>
</g>
<!-- Node3&#45;&gt;Node11 -->
<g id="edge11" class="edge">
<title>Node3&#45;&gt;Node11</title>
<path fill="none" stroke="#63b8ff" d="M1494.9,-172.02C1338.64,-168.21 938.4,-156.4 605,-129 602.11,-128.76 599.17,-128.5 596.19,-128.22"/>
<polygon fill="#63b8ff" stroke="#63b8ff" points="1495.2,-175.53 1505.28,-172.27 1495.37,-168.53 1495.2,-175.53"/>
</g>
<!-- Node12 -->
<g id="node12" class="node">
<title>Node12</title>
<g id="a_node12"><a xlink:href="_guild_scheduled_event_entities_8cpp.html" target="_top" xlink:title=" ">
<polygon fill="white" stroke="#666666" points="1444.5,-129 1283.5,-129 1283.5,-110 1444.5,-110 1444.5,-129"/>
<text text-anchor="middle" x="1364" y="-117" font-family="Helvetica,sans-Serif" font-size="10.00">GuildScheduledEventEntities.cpp</text>
</a>
</g>
</g>
<!-- Node3&#45;&gt;Node12 -->
<g id="edge12" class="edge">
<title>Node3&#45;&gt;Node12</title>
<path fill="none" stroke="#63b8ff" d="M1520.2,-162.31C1483.15,-152.39 1429.83,-138.12 1396.06,-129.08"/>
<polygon fill="#63b8ff" stroke="#63b8ff" points="1519.62,-165.78 1530.19,-164.98 1521.43,-159.02 1519.62,-165.78"/>
</g>
<!-- Node13 -->
<g id="node13" class="node">
<title>Node13</title>
<g id="a_node13"><a xlink:href="_https_client_8cpp.html" target="_top" xlink:title=" ">
<polygon fill="white" stroke="#666666" points="1545.5,-129 1462.5,-129 1462.5,-110 1545.5,-110 1545.5,-129"/>
<text text-anchor="middle" x="1504" y="-117" font-family="Helvetica,sans-Serif" font-size="10.00">HttpsClient.cpp</text>
</a>
</g>
</g>
<!-- Node3&#45;&gt;Node13 -->
<g id="edge13" class="edge">
<title>Node3&#45;&gt;Node13</title>
<path fill="none" stroke="#63b8ff" d="M1545.09,-158.04C1534.8,-148.64 1522.03,-136.98 1513.49,-129.17"/>
<polygon fill="#63b8ff" stroke="#63b8ff" points="1542.94,-160.82 1552.68,-164.98 1547.66,-155.66 1542.94,-160.82"/>
</g>
<!-- Node3&#45;&gt;Node14 -->
<g id="edge14" class="edge">
<title>Node3&#45;&gt;Node14</title>
<path fill="none" stroke="#63b8ff" d="M1495.37,-173.98C1312.21,-174.65 785.81,-172.35 351,-129 348.09,-128.71 345.09,-128.36 342.08,-127.97"/>
<polygon fill="#63b8ff" stroke="#63b8ff" points="1495.4,-177.48 1505.39,-173.93 1495.38,-170.48 1495.4,-177.48"/>
</g>
<!-- Node15 -->
<g id="node15" class="node">
<title>Node15</title>
<g id="a_node15"><a xlink:href="_interaction_entities_8cpp.html" target="_top" xlink:title=" ">
<polygon fill="white" stroke="#666666" points="1676.5,-129 1563.5,-129 1563.5,-110 1676.5,-110 1676.5,-129"/>
<text text-anchor="middle" x="1620" y="-117" font-family="Helvetica,sans-Serif" font-size="10.00">InteractionEntities.cpp</text>
</a>
</g>
</g>
<!-- Node3&#45;&gt;Node15 -->
<g id="edge15" class="edge">
<title>Node3&#45;&gt;Node15</title>
<path fill="none" stroke="#63b8ff" d="M1578.91,-158.04C1589.2,-148.64 1601.97,-136.98 1610.51,-129.17"/>
<polygon fill="#63b8ff" stroke="#63b8ff" points="1576.34,-155.66 1571.32,-164.98 1581.06,-160.82 1576.34,-155.66"/>
</g>
<!-- Node16 -->
<g id="node16" class="node">
<title>Node16</title>
<g id="a_node16"><a xlink:href="_message_entities_8cpp.html" target="_top" xlink:title=" ">
<polygon fill="white" stroke="#666666" points="1803,-129 1695,-129 1695,-110 1803,-110 1803,-129"/>
<text text-anchor="middle" x="1749" y="-117" font-family="Helvetica,sans-Serif" font-size="10.00">MessageEntities.cpp</text>
</a>
</g>
</g>
<!-- Node3&#45;&gt;Node16 -->
<g id="edge16" class="edge">
<title>Node3&#45;&gt;Node16</title>
<path fill="none" stroke="#63b8ff" d="M1601.93,-162.18C1636.9,-152.27 1686.96,-138.08 1718.72,-129.08"/>
<polygon fill="#63b8ff" stroke="#63b8ff" points="1600.71,-158.89 1592.04,-164.98 1602.62,-165.63 1600.71,-158.89"/>
</g>
<!-- Node17 -->
<g id="node17" class="node">
<title>Node17</title>
<g id="a_node17"><a xlink:href="_reaction_entities_8cpp.html" target="_top" xlink:title=" ">
<polygon fill="white" stroke="#666666" points="1928.5,-129 1821.5,-129 1821.5,-110 1928.5,-110 1928.5,-129"/>
<text text-anchor="middle" x="1875" y="-117" font-family="Helvetica,sans-Serif" font-size="10.00">ReactionEntities.cpp</text>
</a>
</g>
</g>
<!-- Node3&#45;&gt;Node17 -->
<g id="edge17" class="edge">
<title>Node3&#45;&gt;Node17</title>
<path fill="none" stroke="#63b8ff" d="M1622.18,-163.31C1680.96,-153.36 1769.39,-138.38 1824.58,-129.04"/>
<polygon fill="#63b8ff" stroke="#63b8ff" points="1621.56,-159.86 1612.29,-164.98 1622.73,-166.77 1621.56,-159.86"/>
</g>
<!-- Node18 -->
<g id="node18" class="node">
<title>Node18</title>
<g id="a_node18"><a xlink:href="_role_entities_8cpp.html" target="_top" xlink:title=" ">
<polygon fill="white" stroke="#666666" points="2035,-129 1947,-129 1947,-110 2035,-110 2035,-129"/>
<text text-anchor="middle" x="1991" y="-117" font-family="Helvetica,sans-Serif" font-size="10.00">RoleEntities.cpp</text>
</a>
</g>
</g>
<!-- Node3&#45;&gt;Node18 -->
<g id="edge18" class="edge">
<title>Node3&#45;&gt;Node18</title>
<path fill="none" stroke="#63b8ff" d="M1628.56,-165.53C1630.06,-165.35 1631.54,-165.17 1633,-165 1768.54,-148.89 1802.81,-147.81 1938,-129 1940.86,-128.6 1943.81,-128.18 1946.77,-127.73"/>
<polygon fill="#63b8ff" stroke="#63b8ff" points="1628.1,-162.06 1618.58,-166.72 1628.92,-169.01 1628.1,-162.06"/>
</g>
<!-- Node19 -->
<g id="node19" class="node">
<title>Node19</title>
<g id="a_node19"><a xlink:href="_song_a_p_i_8cpp.html" target="_top" xlink:title=" ">
<polygon fill="white" stroke="#666666" points="2127,-129 2053,-129 2053,-110 2127,-110 2127,-129"/>
<text text-anchor="middle" x="2090" y="-117" font-family="Helvetica,sans-Serif" font-size="10.00">SongAPI.cpp</text>
</a>
</g>
</g>
<!-- Node3&#45;&gt;Node19 -->
<g id="edge19" class="edge">
<title>Node3&#45;&gt;Node19</title>
<path fill="none" stroke="#63b8ff" d="M1628.56,-165.47C1630.05,-165.31 1631.53,-165.15 1633,-165 1815.39,-146.1 1862.3,-153.69 2044,-129 2046.9,-128.61 2049.89,-128.16 2052.89,-127.67"/>
<polygon fill="#63b8ff" stroke="#63b8ff" points="1628.12,-161.99 1618.56,-166.56 1628.89,-168.95 1628.12,-161.99"/>
</g>
<!-- Node20 -->
<g id="node20" class="node">
<title>Node20</title>
<g id="a_node20"><a xlink:href="_sound_cloud_a_p_i_8cpp.html" target="_top" xlink:title=" ">
<polygon fill="white" stroke="#666666" points="2249,-129 2145,-129 2145,-110 2249,-110 2249,-129"/>
<text text-anchor="middle" x="2197" y="-117" font-family="Helvetica,sans-Serif" font-size="10.00">SoundCloudAPI.cpp</text>
</a>
</g>
</g>
<!-- Node3&#45;&gt;Node20 -->
<g id="edge20" class="edge">
<title>Node3&#45;&gt;Node20</title>
<path fill="none" stroke="#63b8ff" d="M1628.55,-165.44C1630.05,-165.29 1631.53,-165.14 1633,-165 1856.11,-143.67 1913.11,-152.48 2136,-129 2138.87,-128.7 2141.82,-128.36 2144.78,-128.01"/>
<polygon fill="#63b8ff" stroke="#63b8ff" points="1628.14,-161.96 1618.56,-166.48 1628.87,-168.92 1628.14,-161.96"/>
</g>
<!-- Node21 -->
<g id="node21" class="node">
<title>Node21</title>
<g id="a_node21"><a xlink:href="_stage_instance_entities_8cpp.html" target="_top" xlink:title=" ">
<polygon fill="white" stroke="#666666" points="2398.5,-129 2267.5,-129 2267.5,-110 2398.5,-110 2398.5,-129"/>
<text text-anchor="middle" x="2333" y="-117" font-family="Helvetica,sans-Serif" font-size="10.00">StageInstanceEntities.cpp</text>
</a>
</g>
</g>
<!-- Node3&#45;&gt;Node21 -->
<g id="edge21" class="edge">
<title>Node3&#45;&gt;Node21</title>
<path fill="none" stroke="#63b8ff" d="M1628.55,-165.41C1630.05,-165.27 1631.53,-165.13 1633,-165 1910.15,-140.45 1980.77,-152.68 2258,-129 2261,-128.74 2264.07,-128.46 2267.17,-128.17"/>
<polygon fill="#63b8ff" stroke="#63b8ff" points="1628.15,-161.93 1618.55,-166.41 1628.85,-168.9 1628.15,-161.93"/>
</g>
<!-- Node22 -->
<g id="node22" class="node">
<title>Node22</title>
<g id="a_node22"><a xlink:href="_sticker_entities_8cpp.html" target="_top" xlink:title=" ">
<polygon fill="white" stroke="#666666" points="2515.5,-129 2416.5,-129 2416.5,-110 2515.5,-110 2515.5,-129"/>
<text text-anchor="middle" x="2466" y="-117" font-family="Helvetica,sans-Serif" font-size="10.00">StickerEntities.cpp</text>
</a>
</g>
</g>
<!-- Node3&#45;&gt;Node22 -->
<g id="edge22" class="edge">
<title>Node3&#45;&gt;Node22</title>
<path fill="none" stroke="#63b8ff" d="M1628.55,-165.39C1630.05,-165.25 1631.53,-165.12 1633,-165 1976.63,-136.49 2064.77,-162.04 2408,-129 2410.74,-128.74 2413.54,-128.43 2416.37,-128.1"/>
<polygon fill="#63b8ff" stroke="#63b8ff" points="1628.16,-161.91 1618.54,-166.35 1628.83,-168.87 1628.16,-161.91"/>
</g>
<!-- Node23 -->
<g id="node23" class="node">
<title>Node23</title>
<g id="a_node23"><a xlink:href="_thread_entities_8cpp.html" target="_top" xlink:title=" ">
<polygon fill="white" stroke="#666666" points="3370,-129 3272,-129 3272,-110 3370,-110 3370,-129"/>
<text text-anchor="middle" x="3321" y="-117" font-family="Helvetica,sans-Serif" font-size="10.00">ThreadEntities.cpp</text>
</a>
</g>
</g>
<!-- Node3&#45;&gt;Node23 -->
<g id="edge23" class="edge">
<title>Node3&#45;&gt;Node23</title>
<path fill="none" stroke="#63b8ff" d="M1628.54,-165.34C1630.04,-165.22 1631.53,-165.1 1633,-165 2355.82,-113.87 2540.92,-189.65 3263,-129 3265.84,-128.76 3268.75,-128.47 3271.69,-128.15"/>
<polygon fill="#63b8ff" stroke="#63b8ff" points="1628.18,-161.86 1618.53,-166.23 1628.81,-168.83 1628.18,-161.86"/>
</g>
<!-- Node24 -->
<g id="node24" class="node">
<title>Node24</title>
<g id="a_node24"><a xlink:href="_to_entity_8hpp.html" target="_top" xlink:title=" ">
<polygon fill="white" stroke="#666666" points="2604.5,-129 2533.5,-129 2533.5,-110 2604.5,-110 2604.5,-129"/>
<text text-anchor="middle" x="2569" y="-117" font-family="Helvetica,sans-Serif" font-size="10.00">ToEntity.hpp</text>
</a>
</g>
</g>
<!-- Node3&#45;&gt;Node24 -->
<g id="edge24" class="edge">
<title>Node3&#45;&gt;Node24</title>
<path fill="none" stroke="#63b8ff" d="M1628.55,-165.37C1630.04,-165.24 1631.53,-165.12 1633,-165 2028.51,-133.39 2130.88,-174.76 2525,-129 2527.63,-128.69 2530.33,-128.32 2533.05,-127.9"/>
<polygon fill="#63b8ff" stroke="#63b8ff" points="1628.17,-161.89 1618.54,-166.32 1628.83,-168.86 1628.17,-161.89"/>
</g>
<!-- Node27 -->
<g id="node27" class="node">
<title>Node27</title>
<g id="a_node27"><a xlink:href="_user_entities_8cpp.html" target="_top" xlink:title=" ">
<polygon fill="white" stroke="#666666" points="2711.5,-129 2622.5,-129 2622.5,-110 2711.5,-110 2711.5,-129"/>
<text text-anchor="middle" x="2667" y="-117" font-family="Helvetica,sans-Serif" font-size="10.00">UserEntities.cpp</text>
</a>
</g>
</g>
<!-- Node3&#45;&gt;Node27 -->
<g id="edge27" class="edge">
<title>Node3&#45;&gt;Node27</title>
<path fill="none" stroke="#63b8ff" d="M1628.55,-165.37C1630.04,-165.24 1631.53,-165.11 1633,-165 2067.97,-131.04 2179.79,-171.62 2614,-129 2616.69,-128.74 2619.45,-128.42 2622.23,-128.07"/>
<polygon fill="#63b8ff" stroke="#63b8ff" points="1628.17,-161.89 1618.54,-166.31 1628.82,-168.86 1628.17,-161.89"/>
</g>
<!-- Node3&#45;&gt;Node28 -->
<g id="edge28" class="edge">
<title>Node3&#45;&gt;Node28</title>
<path fill="none" stroke="#63b8ff" d="M1628.58,-167.7C1642.59,-166.65 1657.27,-165.68 1671,-165 2050.18,-146.23 3001.58,-169.97 3379,-129 3381.87,-128.69 3384.84,-128.28 3387.82,-127.81"/>
<polygon fill="#63b8ff" stroke="#63b8ff" points="1628.24,-164.22 1618.53,-168.48 1628.77,-171.2 1628.24,-164.22"/>
</g>
<!-- Node29 -->
<g id="node29" class="node">
<title>Node29</title>
<g id="a_node29"><a xlink:href="_voice_connection_8cpp.html" target="_top" xlink:title=" ">
<polygon fill="white" stroke="#666666" points="2838.5,-129 2729.5,-129 2729.5,-110 2838.5,-110 2838.5,-129"/>
<text text-anchor="middle" x="2784" y="-117" font-family="Helvetica,sans-Serif" font-size="10.00">VoiceConnection.cpp</text>
</a>
</g>
</g>
<!-- Node3&#45;&gt;Node29 -->
<g id="edge29" class="edge">
<title>Node3&#45;&gt;Node29</title>
<path fill="none" stroke="#63b8ff" d="M1628.55,-165.36C1630.04,-165.23 1631.53,-165.11 1633,-165 2115.42,-128.21 2238.87,-169.4 2721,-129 2723.75,-128.77 2726.56,-128.5 2729.4,-128.21"/>
<polygon fill="#63b8ff" stroke="#63b8ff" points="1628.17,-161.88 1618.54,-166.29 1628.82,-168.85 1628.17,-161.88"/>
</g>
<!-- Node30 -->
<g id="node30" class="node">
<title>Node30</title>
<g id="a_node30"><a xlink:href="_web_hook_entities_8cpp.html" target="_top" xlink:title=" ">
<polygon fill="white" stroke="#666666" points="2967.5,-129 2856.5,-129 2856.5,-110 2967.5,-110 2967.5,-129"/>
<text text-anchor="middle" x="2912" y="-117" font-family="Helvetica,sans-Serif" font-size="10.00">WebHookEntities.cpp</text>
</a>
</g>
</g>
<!-- Node3&#45;&gt;Node30 -->
<g id="edge30" class="edge">
<title>Node3&#45;&gt;Node30</title>
<path fill="none" stroke="#63b8ff" d="M1628.55,-165.35C1630.04,-165.23 1631.53,-165.11 1633,-165 2171.74,-124.85 2309.53,-172.62 2848,-129 2850.68,-128.78 2853.42,-128.53 2856.19,-128.25"/>
<polygon fill="#63b8ff" stroke="#63b8ff" points="1628.18,-161.87 1618.54,-166.27 1628.81,-168.84 1628.18,-161.87"/>
</g>
<!-- Node31 -->
<g id="node31" class="node">
<title>Node31</title>
<g id="a_node31"><a xlink:href="_web_socket_client_8cpp.html" target="_top" xlink:title=" ">
<polygon fill="white" stroke="#666666" points="725.5,-129 614.5,-129 614.5,-110 725.5,-110 725.5,-129"/>
<text text-anchor="middle" x="670" y="-117" font-family="Helvetica,sans-Serif" font-size="10.00">WebSocketClient.cpp</text>
</a>
</g>
</g>
<!-- Node3&#45;&gt;Node31 -->
<g id="edge31" class="edge">
<title>Node3&#45;&gt;Node31</title>
<path fill="none" stroke="#63b8ff" d="M1495.21,-171.69C1354.3,-167.47 1016.3,-155.29 734,-129 731.32,-128.75 728.58,-128.47 725.82,-128.18"/>
<polygon fill="#63b8ff" stroke="#63b8ff" points="1495.32,-175.19 1505.42,-171.99 1495.53,-168.19 1495.32,-175.19"/>
</g>
<!-- Node32 -->
<g id="node32" class="node">
<title>Node32</title>
<g id="a_node32"><a xlink:href="_you_tube_a_p_i_8cpp.html" target="_top" xlink:title=" ">
<polygon fill="white" stroke="#666666" points="3074.5,-129 2985.5,-129 2985.5,-110 3074.5,-110 3074.5,-129"/>
<text text-anchor="middle" x="3030" y="-117" font-family="Helvetica,sans-Serif" font-size="10.00">YouTubeAPI.cpp</text>
</a>
</g>
</g>
<!-- Node3&#45;&gt;Node32 -->
<g id="edge32" class="edge">
<title>Node3&#45;&gt;Node32</title>
<path fill="none" stroke="#63b8ff" d="M1628.54,-165.35C1630.04,-165.22 1631.53,-165.11 1633,-165 2228.96,-121.44 2382.03,-184.43 2977,-129 2979.69,-128.75 2982.45,-128.45 2985.23,-128.11"/>
<polygon fill="#63b8ff" stroke="#63b8ff" points="1628.18,-161.87 1618.54,-166.25 1628.81,-168.84 1628.18,-161.87"/>
</g>
<!-- Node25 -->
<g id="node25" class="node">
<title>Node25</title>
<g id="a_node25"><a xlink:href="_index_8hpp.html" target="_top" xlink:title=" ">
<polygon fill="white" stroke="#666666" points="2598.5,-74 2539.5,-74 2539.5,-55 2598.5,-55 2598.5,-74"/>
<text text-anchor="middle" x="2569" y="-62" font-family="Helvetica,sans-Serif" font-size="10.00">Index.hpp</text>
</a>
</g>
</g>
<!-- Node24&#45;&gt;Node25 -->
<g id="edge25" class="edge">
<title>Node24&#45;&gt;Node25</title>
<path fill="none" stroke="#63b8ff" d="M2569,-99.66C2569,-90.93 2569,-80.99 2569,-74.09"/>
<polygon fill="#63b8ff" stroke="#63b8ff" points="2565.5,-99.75 2569,-109.75 2572.5,-99.75 2565.5,-99.75"/>
</g>
<!-- Node26 -->
<g id="node26" class="node">
<title>Node26</title>
<g id="a_node26"><a xlink:href="_dll_main_8cpp.html" target="_top" xlink:title=" ">
<polygon fill="white" stroke="#666666" points="2603,-19 2535,-19 2535,0 2603,0 2603,-19"/>
<text text-anchor="middle" x="2569" y="-7" font-family="Helvetica,sans-Serif" font-size="10.00">DllMain.cpp</text>
</a>
</g>
</g>
<!-- Node25&#45;&gt;Node26 -->
<g id="edge26" class="edge">
<title>Node25&#45;&gt;Node26</title>
<path fill="none" stroke="#63b8ff" d="M2569,-44.66C2569,-35.93 2569,-25.99 2569,-19.09"/>
<polygon fill="#63b8ff" stroke="#63b8ff" points="2565.5,-44.75 2569,-54.75 2572.5,-44.75 2565.5,-44.75"/>
</g>
<!-- Node33&#45;&gt;Node3 -->
<g id="edge34" class="edge">
<title>Node33&#45;&gt;Node3</title>
<path fill="none" stroke="#63b8ff" d="M851.15,-224.43C995.36,-214.5 1363.59,-189.16 1505.27,-179.41"/>
<polygon fill="#63b8ff" stroke="#63b8ff" points="850.49,-220.97 840.75,-225.14 850.97,-227.95 850.49,-220.97"/>
</g>
<!-- Node33&#45;&gt;Node8 -->
<g id="edge35" class="edge">
<title>Node33&#45;&gt;Node8</title>
<path fill="none" stroke="#63b8ff" d="M792,-209.48C792,-185.84 792,-146.5 792,-129.16"/>
<polygon fill="#63b8ff" stroke="#63b8ff" points="788.5,-209.66 792,-219.66 795.5,-209.66 788.5,-209.66"/>
</g>
<!-- Node33&#45;&gt;Node31 -->
<g id="edge36" class="edge">
<title>Node33&#45;&gt;Node31</title>
<path fill="none" stroke="#63b8ff" d="M774.39,-212.91C748.32,-189.83 700.35,-147.37 679.78,-129.16"/>
<polygon fill="#63b8ff" stroke="#63b8ff" points="772.21,-215.65 782.02,-219.66 776.85,-210.41 772.21,-215.65"/>
</g>
<!-- Node34&#45;&gt;Node3 -->
<g id="edge39" class="edge">
<title>Node34&#45;&gt;Node3</title>
<path fill="none" stroke="#63b8ff" d="M773.78,-276.36C926.71,-256.79 1351.46,-202.44 1505.38,-182.75"/>
<polygon fill="#63b8ff" stroke="#63b8ff" points="773.15,-272.91 763.68,-277.66 774.04,-279.86 773.15,-272.91"/>
</g>
<!-- Node34&#45;&gt;Node9 -->
<g id="edge41" class="edge">
<title>Node34&#45;&gt;Node9</title>
<path fill="none" stroke="#63b8ff" d="M673.55,-272.52C549.87,-241.98 203.49,-156.43 92.61,-129.05"/>
<polygon fill="#63b8ff" stroke="#63b8ff" points="672.9,-275.97 683.44,-274.97 674.58,-269.17 672.9,-275.97"/>
</g>
<!-- Node34&#45;&gt;Node10 -->
<g id="edge42" class="edge">
<title>Node34&#45;&gt;Node10</title>
<path fill="none" stroke="#63b8ff" d="M697.02,-269.22C661.73,-245.59 587.8,-197.71 521,-165 491.39,-150.5 455.79,-137.34 432.12,-129.16"/>
<polygon fill="#63b8ff" stroke="#63b8ff" points="695.27,-272.26 705.52,-274.95 699.18,-266.46 695.27,-272.26"/>
</g>
<!-- Node34&#45;&gt;Node11 -->
<g id="edge43" class="edge">
<title>Node34&#45;&gt;Node11</title>
<path fill="none" stroke="#63b8ff" d="M709.33,-265.66C696.19,-240.26 669.03,-193.59 634,-165 613.07,-147.92 584.56,-136.15 563.16,-129.03"/>
<polygon fill="#63b8ff" stroke="#63b8ff" points="706.33,-267.48 713.94,-274.84 712.58,-264.34 706.33,-267.48"/>
</g>
<!-- Node34&#45;&gt;Node28 -->
<g id="edge44" class="edge">
<title>Node34&#45;&gt;Node28</title>
<path fill="none" stroke="#63b8ff" d="M773.8,-279.6C999.94,-263.85 1870.35,-204 2587,-165 2938.84,-145.85 3029.18,-171.28 3379,-129 3381.87,-128.65 3384.84,-128.22 3387.81,-127.74"/>
<polygon fill="#63b8ff" stroke="#63b8ff" points="773.25,-276.13 763.52,-280.31 773.74,-283.11 773.25,-276.13"/>
</g>
<!-- Node34&#45;&gt;Node33 -->
<g id="edge40" class="edge">
<title>Node34&#45;&gt;Node33</title>
<path fill="none" stroke="#63b8ff" d="M738.03,-269.15C751.41,-259.57 768.56,-247.29 779.89,-239.17"/>
<polygon fill="#63b8ff" stroke="#63b8ff" points="735.98,-266.32 729.89,-274.98 740.06,-272.01 735.98,-266.32"/>
</g>
<!-- Node35&#45;&gt;Node3 -->
<g id="edge47" class="edge">
<title>Node35&#45;&gt;Node3</title>
<path fill="none" stroke="#63b8ff" d="M1626.8,-266.38C1610.13,-243.01 1580.87,-201.97 1568.17,-184.16"/>
<polygon fill="#63b8ff" stroke="#63b8ff" points="1624.04,-268.55 1632.7,-274.66 1629.74,-264.49 1624.04,-268.55"/>
</g>
<!-- Node35&#45;&gt;Node23 -->
<g id="edge49" class="edge">
<title>Node35&#45;&gt;Node23</title>
<path fill="none" stroke="#63b8ff" d="M1698.51,-274.56C1847.69,-252.49 2249.8,-195.02 2587,-165 2886.69,-138.32 2963.61,-158.85 3263,-129 3265.94,-128.71 3268.95,-128.37 3271.99,-128.01"/>
<polygon fill="#63b8ff" stroke="#63b8ff" points="1697.59,-271.16 1688.21,-276.09 1698.62,-278.09 1697.59,-271.16"/>
</g>
<!-- Node35&#45;&gt;Node33 -->
<g id="edge48" class="edge">
<title>Node35&#45;&gt;Node33</title>
<path fill="none" stroke="#63b8ff" d="M1579.73,-279.79C1420.63,-269.84 986.42,-242.67 840.54,-233.54"/>
<polygon fill="#63b8ff" stroke="#63b8ff" points="1579.6,-283.29 1589.8,-280.42 1580.04,-276.3 1579.6,-283.29"/>
</g>
</g>
</svg>
