<?xml version="1.0" encoding="UTF-8" standalone="no"?>
<!DOCTYPE svg PUBLIC "-//W3C//DTD SVG 1.1//EN"
 "http://www.w3.org/Graphics/SVG/1.1/DTD/svg11.dtd">
<!-- Generated by graphviz version 2.43.0 (0)
 -->
<!-- Title: CoRoutineThreadPool.hpp Pages: 1 -->
<svg width="1946pt" height="214pt"
 viewBox="0.00 0.00 1945.50 214.00" xmlns="http://www.w3.org/2000/svg" xmlns:xlink="http://www.w3.org/1999/xlink">
<g id="graph0" class="graph" transform="scale(1 1) rotate(0) translate(4 210)">
<title>CoRoutineThreadPool.hpp</title>
<!-- Node1 -->
<g id="Node000001" class="node">
<title>Node1</title>
<g id="a_Node000001"><a xlink:title=" ">
<polygon fill="#999999" stroke="#666666" points="1275,-206 1132,-206 1132,-187 1275,-187 1275,-206"/>
<text text-anchor="middle" x="1203.5" y="-194" font-family="Helvetica,sans-Serif" font-size="10.00">CoRoutineThreadPool.hpp</text>
</a>
</g>
</g>
<!-- Node2 -->
<g id="Node000002" class="node">
<title>Node2</title>
<g id="a_Node000002"><a xlink:href="_unbounded_message_block_8hpp.html" target="_top" xlink:title=" ">
<polygon fill="white" stroke="#666666" points="1155,-151 988,-151 988,-121 1155,-121 1155,-151"/>
<text text-anchor="start" x="996" y="-139" font-family="Helvetica,sans-Serif" font-size="10.00">discordcoreapi/Utilities</text>
<text text-anchor="middle" x="1071.5" y="-128" font-family="Helvetica,sans-Serif" font-size="10.00">/UnboundedMessageBlock.hpp</text>
</a>
</g>
</g>
<!-- Node1&#45;&gt;Node2 -->
<g id="edge1_Node000001_Node000002" class="edge">
<title>Node1&#45;&gt;Node2</title>
<g id="a_edge1_Node000001_Node000002"><a xlink:title=" ">
<path fill="none" stroke="#63b8ff" d="M1184.31,-186.99C1165.56,-178.68 1136.43,-165.78 1112.47,-155.16"/>
<polygon fill="#63b8ff" stroke="#63b8ff" points="1113.8,-151.92 1103.23,-151.06 1110.96,-158.32 1113.8,-151.92"/>
</a>
</g>
</g>
<!-- Node29 -->
<g id="Node000029" class="node">
<title>Node29</title>
<g id="a_Node000029"><a xlink:title=" ">
<polygon fill="#e0e0e0" stroke="#999999" points="1234.5,-145.5 1172.5,-145.5 1172.5,-126.5 1234.5,-126.5 1234.5,-145.5"/>
<text text-anchor="middle" x="1203.5" y="-133.5" font-family="Helvetica,sans-Serif" font-size="10.00">coroutine</text>
</a>
</g>
</g>
<!-- Node1&#45;&gt;Node29 -->
<g id="edge28_Node000001_Node000029" class="edge">
<title>Node1&#45;&gt;Node29</title>
<g id="a_edge28_Node000001_Node000029"><a xlink:title=" ">
<path fill="none" stroke="#63b8ff" d="M1203.5,-186.87C1203.5,-178.75 1203.5,-166.31 1203.5,-155.89"/>
<polygon fill="#63b8ff" stroke="#63b8ff" points="1207,-155.67 1203.5,-145.67 1200,-155.67 1207,-155.67"/>
</a>
</g>
</g>
<!-- Node30 -->
<g id="Node000030" class="node">
<title>Node30</title>
<g id="a_Node000030"><a xlink:title=" ">
<polygon fill="#e0e0e0" stroke="#999999" points="1300,-145.5 1253,-145.5 1253,-126.5 1300,-126.5 1300,-145.5"/>
<text text-anchor="middle" x="1276.5" y="-133.5" font-family="Helvetica,sans-Serif" font-size="10.00">deque</text>
</a>
</g>
</g>
<!-- Node1&#45;&gt;Node30 -->
<g id="edge29_Node000001_Node000030" class="edge">
<title>Node1&#45;&gt;Node30</title>
<g id="a_edge29_Node000001_Node000030"><a xlink:title=" ">
<path fill="none" stroke="#63b8ff" d="M1214.27,-186.87C1225.7,-177.71 1243.98,-163.06 1257.78,-152.01"/>
<polygon fill="#63b8ff" stroke="#63b8ff" points="1260.07,-154.65 1265.68,-145.67 1255.69,-149.19 1260.07,-154.65"/>
</a>
</g>
</g>
<!-- Node3 -->
<g id="Node000003" class="node">
<title>Node3</title>
<g id="a_Node000003"><a xlink:href="_base_8hpp.html" target="_top" xlink:title=" ">
<polygon fill="white" stroke="#666666" points="1136,-85 1007,-85 1007,-55 1136,-55 1136,-85"/>
<text text-anchor="start" x="1015" y="-73" font-family="Helvetica,sans-Serif" font-size="10.00">discordcoreapi/Utilities</text>
<text text-anchor="middle" x="1071.5" y="-62" font-family="Helvetica,sans-Serif" font-size="10.00">/Base.hpp</text>
</a>
</g>
</g>
<!-- Node2&#45;&gt;Node3 -->
<g id="edge2_Node000002_Node000003" class="edge">
<title>Node2&#45;&gt;Node3</title>
<g id="a_edge2_Node000002_Node000003"><a xlink:title=" ">
<path fill="none" stroke="#63b8ff" d="M1071.5,-120.8C1071.5,-113.34 1071.5,-103.99 1071.5,-95.41"/>
<polygon fill="#63b8ff" stroke="#63b8ff" points="1075,-95.16 1071.5,-85.16 1068,-95.16 1075,-95.16"/>
</a>
</g>
</g>
<!-- Node4 -->
<g id="Node000004" class="node">
<title>Node4</title>
<g id="a_Node000004"><a xlink:title=" ">
<polygon fill="#e0e0e0" stroke="#999999" points="69,-19 0,-19 0,0 69,0 69,-19"/>
<text text-anchor="middle" x="34.5" y="-7" font-family="Helvetica,sans-Serif" font-size="10.00">arpa/inet.h</text>
</a>
</g>
</g>
<!-- Node3&#45;&gt;Node4 -->
<g id="edge3_Node000003_Node000004" class="edge">
<title>Node3&#45;&gt;Node4</title>
<g id="a_edge3_Node000003_Node000004"><a xlink:title=" ">
<path fill="none" stroke="#63b8ff" d="M1006.75,-68.88C849.44,-67.92 434.58,-61.32 78.99,-18.85"/>
<polygon fill="#63b8ff" stroke="#63b8ff" points="79.36,-15.37 69.01,-17.64 78.52,-22.32 79.36,-15.37"/>
</a>
</g>
</g>
<!-- Node5 -->
<g id="Node000005" class="node">
<title>Node5</title>
<g id="a_Node000005"><a xlink:title=" ">
<polygon fill="#e0e0e0" stroke="#999999" points="155.5,-19 87.5,-19 87.5,0 155.5,0 155.5,-19"/>
<text text-anchor="middle" x="121.5" y="-7" font-family="Helvetica,sans-Serif" font-size="10.00">sys/time.h</text>
</a>
</g>
</g>
<!-- Node3&#45;&gt;Node5 -->
<g id="edge4_Node000003_Node000005" class="edge">
<title>Node3&#45;&gt;Node5</title>
<g id="a_edge4_Node000003_Node000005"><a xlink:title=" ">
<path fill="none" stroke="#63b8ff" d="M1006.89,-68.54C859.36,-66.82 486.37,-58.68 165.65,-18.95"/>
<polygon fill="#63b8ff" stroke="#63b8ff" points="166.05,-15.48 155.7,-17.71 165.19,-22.42 166.05,-15.48"/>
</a>
</g>
</g>
<!-- Node6 -->
<g id="Node000006" class="node">
<title>Node6</title>
<g id="a_Node000006"><a xlink:title=" ">
<polygon fill="#e0e0e0" stroke="#999999" points="237,-19 174,-19 174,0 237,0 237,-19"/>
<text text-anchor="middle" x="205.5" y="-7" font-family="Helvetica,sans-Serif" font-size="10.00">pthread.h</text>
</a>
</g>
</g>
<!-- Node3&#45;&gt;Node6 -->
<g id="edge5_Node000003_Node000006" class="edge">
<title>Node3&#45;&gt;Node6</title>
<g id="a_edge5_Node000003_Node000006"><a xlink:title=" ">
<path fill="none" stroke="#63b8ff" d="M1006.75,-68.24C868.84,-65.93 535.87,-56.72 247.45,-18.9"/>
<polygon fill="#63b8ff" stroke="#63b8ff" points="247.58,-15.39 237.21,-17.54 246.66,-22.33 247.58,-15.39"/>
</a>
</g>
</g>
<!-- Node7 -->
<g id="Node000007" class="node">
<title>Node7</title>
<g id="a_Node000007"><a xlink:title=" ">
<polygon fill="#e0e0e0" stroke="#999999" points="305.5,-19 255.5,-19 255.5,0 305.5,0 305.5,-19"/>
<text text-anchor="middle" x="280.5" y="-7" font-family="Helvetica,sans-Serif" font-size="10.00">cstdint</text>
</a>
</g>
</g>
<!-- Node3&#45;&gt;Node7 -->
<g id="edge6_Node000003_Node000007" class="edge">
<title>Node3&#45;&gt;Node7</title>
<g id="a_edge6_Node000003_Node000007"><a xlink:title=" ">
<path fill="none" stroke="#63b8ff" d="M1006.77,-68.62C877.1,-67 576.33,-59.03 315.68,-18.88"/>
<polygon fill="#63b8ff" stroke="#63b8ff" points="316.07,-15.4 305.65,-17.32 314.99,-22.32 316.07,-15.4"/>
</a>
</g>
</g>
<!-- Node8 -->
<g id="Node000008" class="node">
<title>Node8</title>
<g id="a_Node000008"><a xlink:title=" ">
<polygon fill="#e0e0e0" stroke="#999999" points="373.5,-19 323.5,-19 323.5,0 373.5,0 373.5,-19"/>
<text text-anchor="middle" x="348.5" y="-7" font-family="Helvetica,sans-Serif" font-size="10.00">cstring</text>
</a>
</g>
</g>
<!-- Node3&#45;&gt;Node8 -->
<g id="edge7_Node000003_Node000008" class="edge">
<title>Node3&#45;&gt;Node8</title>
<g id="a_edge7_Node000003_Node000008"><a xlink:title=" ">
<path fill="none" stroke="#63b8ff" d="M1006.96,-68.02C886.2,-65.39 617.91,-55.72 383.72,-18.9"/>
<polygon fill="#63b8ff" stroke="#63b8ff" points="384.08,-15.42 373.65,-17.3 382.98,-22.33 384.08,-15.42"/>
</a>
</g>
</g>
<!-- Node9 -->
<g id="Node000009" class="node">
<title>Node9</title>
<g id="a_Node000009"><a xlink:title=" ">
<polygon fill="#e0e0e0" stroke="#999999" points="439.5,-19 391.5,-19 391.5,0 439.5,0 439.5,-19"/>
<text text-anchor="middle" x="415.5" y="-7" font-family="Helvetica,sans-Serif" font-size="10.00">time.h</text>
</a>
</g>
</g>
<!-- Node3&#45;&gt;Node9 -->
<g id="edge8_Node000003_Node000009" class="edge">
<title>Node3&#45;&gt;Node9</title>
<g id="a_edge8_Node000003_Node000009"><a xlink:title=" ">
<path fill="none" stroke="#63b8ff" d="M1006.93,-67.47C895.07,-64.03 658.05,-53.21 449.46,-18.86"/>
<polygon fill="#63b8ff" stroke="#63b8ff" points="449.99,-15.4 439.55,-17.2 448.84,-22.3 449.99,-15.4"/>
</a>
</g>
</g>
<!-- Node10 -->
<g id="Node000010" class="node">
<title>Node10</title>
<g id="a_Node000010"><a xlink:title=" ">
<polygon fill="#e0e0e0" stroke="#999999" points="501.5,-19 457.5,-19 457.5,0 501.5,0 501.5,-19"/>
<text text-anchor="middle" x="479.5" y="-7" font-family="Helvetica,sans-Serif" font-size="10.00">ctime</text>
</a>
</g>
</g>
<!-- Node3&#45;&gt;Node10 -->
<g id="edge9_Node000003_Node000010" class="edge">
<title>Node3&#45;&gt;Node10</title>
<g id="a_edge9_Node000003_Node000010"><a xlink:title=" ">
<path fill="none" stroke="#63b8ff" d="M1006.64,-66.98C903.49,-62.94 695.76,-51.45 511.6,-18.88"/>
<polygon fill="#63b8ff" stroke="#63b8ff" points="512.2,-15.43 501.74,-17.11 510.97,-22.32 512.2,-15.43"/>
</a>
</g>
</g>
<!-- Node11 -->
<g id="Node000011" class="node">
<title>Node11</title>
<g id="a_Node000011"><a xlink:title=" ">
<polygon fill="#e0e0e0" stroke="#999999" points="627,-19 520,-19 520,0 627,0 627,-19"/>
<text text-anchor="middle" x="573.5" y="-7" font-family="Helvetica,sans-Serif" font-size="10.00">jsonifier/Index.hpp</text>
</a>
</g>
</g>
<!-- Node3&#45;&gt;Node11 -->
<g id="edge10_Node000003_Node000011" class="edge">
<title>Node3&#45;&gt;Node11</title>
<g id="a_edge10_Node000003_Node000011"><a xlink:title=" ">
<path fill="none" stroke="#63b8ff" d="M1006.81,-62.03C923.71,-52.98 774.72,-36.41 637.53,-19.23"/>
<polygon fill="#63b8ff" stroke="#63b8ff" points="637.62,-15.72 627.26,-17.94 636.74,-22.66 637.62,-15.72"/>
</a>
</g>
</g>
<!-- Node12 -->
<g id="Node000012" class="node">
<title>Node12</title>
<g id="a_Node000012"><a xlink:title=" ">
<polygon fill="#e0e0e0" stroke="#999999" points="738,-19 645,-19 645,0 738,0 738,-19"/>
<text text-anchor="middle" x="691.5" y="-7" font-family="Helvetica,sans-Serif" font-size="10.00">source_location</text>
</a>
</g>
</g>
<!-- Node3&#45;&gt;Node12 -->
<g id="edge11_Node000003_Node000012" class="edge">
<title>Node3&#45;&gt;Node12</title>
<g id="a_edge11_Node000003_Node000012"><a xlink:title=" ">
<path fill="none" stroke="#63b8ff" d="M1006.61,-59.01C934.02,-47.84 817.58,-29.91 748.42,-19.26"/>
<polygon fill="#63b8ff" stroke="#63b8ff" points="748.57,-15.74 738.15,-17.68 747.5,-22.66 748.57,-15.74"/>
</a>
</g>
</g>
<!-- Node13 -->
<g id="Node000013" class="node">
<title>Node13</title>
<g id="a_Node000013"><a xlink:title=" ">
<polygon fill="#e0e0e0" stroke="#999999" points="842.5,-19 756.5,-19 756.5,0 842.5,0 842.5,-19"/>
<text text-anchor="middle" x="799.5" y="-7" font-family="Helvetica,sans-Serif" font-size="10.00">shared_mutex</text>
</a>
</g>
</g>
<!-- Node3&#45;&gt;Node13 -->
<g id="edge12_Node000003_Node000013" class="edge">
<title>Node3&#45;&gt;Node13</title>
<g id="a_edge12_Node000003_Node000013"><a xlink:title=" ">
<path fill="none" stroke="#63b8ff" d="M1006.69,-55.06C958.44,-44.68 893.54,-30.73 849.31,-21.21"/>
<polygon fill="#63b8ff" stroke="#63b8ff" points="849.89,-17.76 839.37,-19.08 848.41,-24.6 849.89,-17.76"/>
</a>
</g>
</g>
<!-- Node14 -->
<g id="Node000014" class="node">
<title>Node14</title>
<g id="a_Node000014"><a xlink:title=" ">
<polygon fill="#e0e0e0" stroke="#999999" points="934.5,-19 860.5,-19 860.5,0 934.5,0 934.5,-19"/>
<text text-anchor="middle" x="897.5" y="-7" font-family="Helvetica,sans-Serif" font-size="10.00">immintrin.h</text>
</a>
</g>
</g>
<!-- Node3&#45;&gt;Node14 -->
<g id="edge13_Node000003_Node000014" class="edge">
<title>Node3&#45;&gt;Node14</title>
<g id="a_edge13_Node000003_Node000014"><a xlink:title=" ">
<path fill="none" stroke="#63b8ff" d="M1029.82,-54.99C1000.18,-45.02 960.81,-31.78 932.73,-22.35"/>
<polygon fill="#63b8ff" stroke="#63b8ff" points="933.54,-18.92 922.94,-19.05 931.3,-25.56 933.54,-18.92"/>
</a>
</g>
</g>
<!-- Node15 -->
<g id="Node000015" class="node">
<title>Node15</title>
<g id="a_Node000015"><a xlink:title=" ">
<polygon fill="#e0e0e0" stroke="#999999" points="1018,-19 953,-19 953,0 1018,0 1018,-19"/>
<text text-anchor="middle" x="985.5" y="-7" font-family="Helvetica,sans-Serif" font-size="10.00">functional</text>
</a>
</g>
</g>
<!-- Node3&#45;&gt;Node15 -->
<g id="edge14_Node000003_Node000015" class="edge">
<title>Node3&#45;&gt;Node15</title>
<g id="a_edge14_Node000003_Node000015"><a xlink:title=" ">
<path fill="none" stroke="#63b8ff" d="M1050.68,-54.84C1037.35,-45.77 1020.11,-34.04 1006.71,-24.92"/>
<polygon fill="#63b8ff" stroke="#63b8ff" points="1008.37,-21.83 998.13,-19.09 1004.43,-27.61 1008.37,-21.83"/>
</a>
</g>
</g>
<!-- Node16 -->
<g id="Node000016" class="node">
<title>Node16</title>
<g id="a_Node000016"><a xlink:title=" ">
<polygon fill="#e0e0e0" stroke="#999999" points="1107,-19 1036,-19 1036,0 1107,0 1107,-19"/>
<text text-anchor="middle" x="1071.5" y="-7" font-family="Helvetica,sans-Serif" font-size="10.00">semaphore</text>
</a>
</g>
</g>
<!-- Node3&#45;&gt;Node16 -->
<g id="edge15_Node000003_Node000016" class="edge">
<title>Node3&#45;&gt;Node16</title>
<g id="a_edge15_Node000003_Node000016"><a xlink:title=" ">
<path fill="none" stroke="#63b8ff" d="M1071.5,-54.84C1071.5,-47.21 1071.5,-37.7 1071.5,-29.45"/>
<polygon fill="#63b8ff" stroke="#63b8ff" points="1075,-29.27 1071.5,-19.27 1068,-29.27 1075,-29.27"/>
</a>
</g>
</g>
<!-- Node17 -->
<g id="Node000017" class="node">
<title>Node17</title>
<g id="a_Node000017"><a xlink:title=" ">
<polygon fill="#e0e0e0" stroke="#999999" points="1185.5,-19 1125.5,-19 1125.5,0 1185.5,0 1185.5,-19"/>
<text text-anchor="middle" x="1155.5" y="-7" font-family="Helvetica,sans-Serif" font-size="10.00">concepts</text>
</a>
</g>
</g>
<!-- Node3&#45;&gt;Node17 -->
<g id="edge16_Node000003_Node000017" class="edge">
<title>Node3&#45;&gt;Node17</title>
<g id="a_edge16_Node000003_Node000017"><a xlink:title=" ">
<path fill="none" stroke="#63b8ff" d="M1091.83,-54.84C1104.77,-45.83 1121.49,-34.18 1134.55,-25.09"/>
<polygon fill="#63b8ff" stroke="#63b8ff" points="1136.71,-27.85 1142.91,-19.27 1132.71,-22.11 1136.71,-27.85"/>
</a>
</g>
</g>
<!-- Node18 -->
<g id="Node000018" class="node">
<title>Node18</title>
<g id="a_Node000018"><a xlink:title=" ">
<polygon fill="#e0e0e0" stroke="#999999" points="1263.5,-19 1203.5,-19 1203.5,0 1263.5,0 1263.5,-19"/>
<text text-anchor="middle" x="1233.5" y="-7" font-family="Helvetica,sans-Serif" font-size="10.00">iostream</text>
</a>
</g>
</g>
<!-- Node3&#45;&gt;Node18 -->
<g id="edge17_Node000003_Node000018" class="edge">
<title>Node3&#45;&gt;Node18</title>
<g id="a_edge17_Node000003_Node000018"><a xlink:title=" ">
<path fill="none" stroke="#63b8ff" d="M1110.3,-54.99C1137.69,-45.1 1174.02,-31.98 1200.11,-22.56"/>
<polygon fill="#63b8ff" stroke="#63b8ff" points="1201.36,-25.83 1209.58,-19.14 1198.98,-19.24 1201.36,-25.83"/>
</a>
</g>
</g>
<!-- Node19 -->
<g id="Node000019" class="node">
<title>Node19</title>
<g id="a_Node000019"><a xlink:title=" ">
<polygon fill="#e0e0e0" stroke="#999999" points="1337.5,-19 1281.5,-19 1281.5,0 1337.5,0 1337.5,-19"/>
<text text-anchor="middle" x="1309.5" y="-7" font-family="Helvetica,sans-Serif" font-size="10.00">sstream</text>
</a>
</g>
</g>
<!-- Node3&#45;&gt;Node19 -->
<g id="edge18_Node000003_Node000019" class="edge">
<title>Node3&#45;&gt;Node19</title>
<g id="a_edge18_Node000003_Node000019"><a xlink:title=" ">
<path fill="none" stroke="#63b8ff" d="M1128.51,-54.99C1172.82,-44.1 1233.04,-29.29 1271.59,-19.82"/>
<polygon fill="#63b8ff" stroke="#63b8ff" points="1272.51,-23.2 1281.38,-17.41 1270.84,-16.4 1272.51,-23.2"/>
</a>
</g>
</g>
<!-- Node20 -->
<g id="Node000020" class="node">
<title>Node20</title>
<g id="a_Node000020"><a xlink:title=" ">
<polygon fill="#e0e0e0" stroke="#999999" points="1411.5,-19 1355.5,-19 1355.5,0 1411.5,0 1411.5,-19"/>
<text text-anchor="middle" x="1383.5" y="-7" font-family="Helvetica,sans-Serif" font-size="10.00">iomanip</text>
</a>
</g>
</g>
<!-- Node3&#45;&gt;Node20 -->
<g id="edge19_Node000003_Node000020" class="edge">
<title>Node3&#45;&gt;Node20</title>
<g id="a_edge19_Node000003_Node000020"><a xlink:title=" ">
<path fill="none" stroke="#63b8ff" d="M1136.12,-58.12C1189.66,-48.9 1267.98,-34.96 1345.33,-19.17"/>
<polygon fill="#63b8ff" stroke="#63b8ff" points="1346.16,-22.57 1355.25,-17.13 1344.75,-15.71 1346.16,-22.57"/>
</a>
</g>
</g>
<!-- Node21 -->
<g id="Node000021" class="node">
<title>Node21</title>
<g id="a_Node000021"><a xlink:title=" ">
<polygon fill="#e0e0e0" stroke="#999999" points="1477,-19 1430,-19 1430,0 1477,0 1477,-19"/>
<text text-anchor="middle" x="1453.5" y="-7" font-family="Helvetica,sans-Serif" font-size="10.00">vector</text>
</a>
</g>
</g>
<!-- Node3&#45;&gt;Node21 -->
<g id="edge20_Node000003_Node000021" class="edge">
<title>Node3&#45;&gt;Node21</title>
<g id="a_edge20_Node000003_Node000021"><a xlink:title=" ">
<path fill="none" stroke="#63b8ff" d="M1136.18,-61.89C1204.32,-53.91 1314.89,-39.6 1419.66,-18.96"/>
<polygon fill="#63b8ff" stroke="#63b8ff" points="1420.66,-22.33 1429.78,-16.94 1419.29,-15.46 1420.66,-22.33"/>
</a>
</g>
</g>
<!-- Node22 -->
<g id="Node000022" class="node">
<title>Node22</title>
<g id="a_Node000022"><a xlink:title=" ">
<polygon fill="#e0e0e0" stroke="#999999" points="1545.5,-19 1495.5,-19 1495.5,0 1545.5,0 1545.5,-19"/>
<text text-anchor="middle" x="1520.5" y="-7" font-family="Helvetica,sans-Serif" font-size="10.00">atomic</text>
</a>
</g>
</g>
<!-- Node3&#45;&gt;Node22 -->
<g id="edge21_Node000003_Node000022" class="edge">
<title>Node3&#45;&gt;Node22</title>
<g id="a_edge21_Node000003_Node000022"><a xlink:title=" ">
<path fill="none" stroke="#63b8ff" d="M1136.22,-63.73C1216.11,-56.66 1356.23,-42.43 1485.26,-19.01"/>
<polygon fill="#63b8ff" stroke="#63b8ff" points="1486.12,-22.42 1495.33,-17.17 1484.86,-15.53 1486.12,-22.42"/>
</a>
</g>
</g>
<!-- Node23 -->
<g id="Node000023" class="node">
<title>Node23</title>
<g id="a_Node000023"><a xlink:title=" ">
<polygon fill="#e0e0e0" stroke="#999999" points="1617.5,-19 1563.5,-19 1563.5,0 1617.5,0 1617.5,-19"/>
<text text-anchor="middle" x="1590.5" y="-7" font-family="Helvetica,sans-Serif" font-size="10.00">random</text>
</a>
</g>
</g>
<!-- Node3&#45;&gt;Node23 -->
<g id="edge22_Node000003_Node000023" class="edge">
<title>Node3&#45;&gt;Node23</title>
<g id="a_edge22_Node000003_Node000023"><a xlink:title=" ">
<path fill="none" stroke="#63b8ff" d="M1136.31,-64.95C1227.35,-58.68 1398.37,-44.74 1553.27,-18.99"/>
<polygon fill="#63b8ff" stroke="#63b8ff" points="1554.17,-22.39 1563.45,-17.28 1553.01,-15.49 1554.17,-22.39"/>
</a>
</g>
</g>
<!-- Node24 -->
<g id="Node000024" class="node">
<title>Node24</title>
<g id="a_Node000024"><a xlink:title=" ">
<polygon fill="#e0e0e0" stroke="#999999" points="1679.5,-19 1635.5,-19 1635.5,0 1679.5,0 1679.5,-19"/>
<text text-anchor="middle" x="1657.5" y="-7" font-family="Helvetica,sans-Serif" font-size="10.00">string</text>
</a>
</g>
</g>
<!-- Node3&#45;&gt;Node24 -->
<g id="edge23_Node000003_Node000024" class="edge">
<title>Node3&#45;&gt;Node24</title>
<g id="a_edge23_Node000003_Node000024"><a xlink:title=" ">
<path fill="none" stroke="#63b8ff" d="M1136.09,-66.9C1238.23,-62.77 1443.27,-51.16 1625.24,-18.91"/>
<polygon fill="#63b8ff" stroke="#63b8ff" points="1626.03,-22.32 1635.26,-17.11 1624.8,-15.43 1626.03,-22.32"/>
</a>
</g>
</g>
<!-- Node25 -->
<g id="Node000025" class="node">
<title>Node25</title>
<g id="a_Node000025"><a xlink:title=" ">
<polygon fill="#e0e0e0" stroke="#999999" points="1745.5,-19 1697.5,-19 1697.5,0 1745.5,0 1745.5,-19"/>
<text text-anchor="middle" x="1721.5" y="-7" font-family="Helvetica,sans-Serif" font-size="10.00">thread</text>
</a>
</g>
</g>
<!-- Node3&#45;&gt;Node25 -->
<g id="edge24_Node000003_Node000025" class="edge">
<title>Node3&#45;&gt;Node25</title>
<g id="a_edge24_Node000003_Node000025"><a xlink:title=" ">
<path fill="none" stroke="#63b8ff" d="M1136.35,-67.39C1247.44,-63.84 1481.29,-52.89 1687.35,-18.89"/>
<polygon fill="#63b8ff" stroke="#63b8ff" points="1688.17,-22.3 1697.45,-17.2 1687.01,-15.4 1688.17,-22.3"/>
</a>
</g>
</g>
<!-- Node26 -->
<g id="Node000026" class="node">
<title>Node26</title>
<g id="a_Node000026"><a xlink:title=" ">
<polygon fill="#e0e0e0" stroke="#999999" points="1811.5,-19 1763.5,-19 1763.5,0 1811.5,0 1811.5,-19"/>
<text text-anchor="middle" x="1787.5" y="-7" font-family="Helvetica,sans-Serif" font-size="10.00">mutex</text>
</a>
</g>
</g>
<!-- Node3&#45;&gt;Node26 -->
<g id="edge25_Node000003_Node000026" class="edge">
<title>Node3&#45;&gt;Node26</title>
<g id="a_edge25_Node000003_Node000026"><a xlink:title=" ">
<path fill="none" stroke="#63b8ff" d="M1136.46,-68.11C1256.66,-65.61 1521.88,-56.18 1753.5,-18.85"/>
<polygon fill="#63b8ff" stroke="#63b8ff" points="1754.15,-22.29 1763.46,-17.22 1753.02,-15.38 1754.15,-22.29"/>
</a>
</g>
</g>
<!-- Node27 -->
<g id="Node000027" class="node">
<title>Node27</title>
<g id="a_Node000027"><a xlink:title=" ">
<polygon fill="#e0e0e0" stroke="#999999" points="1877,-19 1830,-19 1830,0 1877,0 1877,-19"/>
<text text-anchor="middle" x="1853.5" y="-7" font-family="Helvetica,sans-Serif" font-size="10.00">queue</text>
</a>
</g>
</g>
<!-- Node3&#45;&gt;Node27 -->
<g id="edge26_Node000003_Node000027" class="edge">
<title>Node3&#45;&gt;Node27</title>
<g id="a_edge26_Node000003_Node000027"><a xlink:title=" ">
<path fill="none" stroke="#63b8ff" d="M1136.07,-68.71C1264.69,-67.25 1561.92,-59.53 1819.89,-18.75"/>
<polygon fill="#63b8ff" stroke="#63b8ff" points="1820.5,-22.2 1829.82,-17.16 1819.39,-15.28 1820.5,-22.2"/>
</a>
</g>
</g>
<!-- Node28 -->
<g id="Node000028" class="node">
<title>Node28</title>
<g id="a_Node000028"><a xlink:title=" ">
<polygon fill="#e0e0e0" stroke="#999999" points="1937.5,-19 1895.5,-19 1895.5,0 1937.5,0 1937.5,-19"/>
<text text-anchor="middle" x="1916.5" y="-7" font-family="Helvetica,sans-Serif" font-size="10.00">array</text>
</a>
</g>
</g>
<!-- Node3&#45;&gt;Node28 -->
<g id="edge27_Node000003_Node000028" class="edge">
<title>Node3&#45;&gt;Node28</title>
<g id="a_edge27_Node000003_Node000028"><a xlink:title=" ">
<path fill="none" stroke="#63b8ff" d="M1136.22,-69.72C1273.23,-70.24 1602.49,-66.13 1885.28,-18.81"/>
<polygon fill="#63b8ff" stroke="#63b8ff" points="1886.05,-22.23 1895.32,-17.11 1884.88,-15.33 1886.05,-22.23"/>
</a>
</g>
</g>
</g>
</svg>
