<?xml version="1.0" encoding="UTF-8" standalone="no"?>
<!DOCTYPE svg PUBLIC "-//W3C//DTD SVG 1.1//EN"
 "http://www.w3.org/Graphics/SVG/1.1/DTD/svg11.dtd">
<!-- Generated by graphviz version 5.0.0 (20220707.1540)
 -->
<!-- Title: CommandController.hpp Pages: 1 -->
<svg width="3467pt" height="247pt"
 viewBox="0.00 0.00 3467.00 247.00" xmlns="http://www.w3.org/2000/svg" xmlns:xlink="http://www.w3.org/1999/xlink">
<g id="graph0" class="graph" transform="scale(1 1) rotate(0) translate(4 243)">
<title>CommandController.hpp</title>
<!-- Node1 -->
<g id="node1" class="node">
<title>Node1</title>
<g id="a_node1"><a xlink:title=" ">
<polygon fill="#999999" stroke="#666666" points="1423,-239 1302,-239 1302,-220 1423,-220 1423,-239"/>
<text text-anchor="middle" x="1362.5" y="-227" font-family="Helvetica,sans-Serif" font-size="10.00">CommandController.hpp</text>
</a>
</g>
</g>
<!-- Node2 -->
<g id="node2" class="node">
<title>Node2</title>
<g id="a_node2"><a xlink:href="_command_controller_8cpp.html" target="_top" xlink:title=" ">
<polygon fill="white" stroke="#666666" points="121,-129 0,-129 0,-110 121,-110 121,-129"/>
<text text-anchor="middle" x="60.5" y="-117" font-family="Helvetica,sans-Serif" font-size="10.00">CommandController.cpp</text>
</a>
</g>
</g>
<!-- Node1&#45;&gt;Node2 -->
<g id="edge1" class="edge">
<title>Node1&#45;&gt;Node2</title>
<path fill="none" stroke="#63b8ff" d="M1291.75,-226.7C1147.53,-222.59 809.29,-210.75 526.5,-184 375.71,-169.74 198.77,-142.8 112.75,-129.05"/>
<polygon fill="#63b8ff" stroke="#63b8ff" points="1291.7,-230.2 1301.79,-226.98 1291.9,-223.2 1291.7,-230.2"/>
</g>
<!-- Node3 -->
<g id="node3" class="node">
<title>Node3</title>
<g id="a_node3"><a xlink:href="_discord_core_client_8cpp.html" target="_top" xlink:title=" ">
<polygon fill="white" stroke="#666666" points="252,-129 139,-129 139,-110 252,-110 252,-129"/>
<text text-anchor="middle" x="195.5" y="-117" font-family="Helvetica,sans-Serif" font-size="10.00">DiscordCoreClient.cpp</text>
</a>
</g>
</g>
<!-- Node1&#45;&gt;Node3 -->
<g id="edge2" class="edge">
<title>Node1&#45;&gt;Node3</title>
<path fill="none" stroke="#63b8ff" d="M1291.59,-225.12C1169.9,-219.01 913.5,-204.8 697.5,-184 502.65,-165.23 454.66,-153.91 260.5,-129 257.79,-128.65 255.02,-128.3 252.22,-127.93"/>
<polygon fill="#63b8ff" stroke="#63b8ff" points="1291.73,-228.63 1301.89,-225.63 1292.07,-221.64 1291.73,-228.63"/>
</g>
<!-- Node4 -->
<g id="node4" class="node">
<title>Node4</title>
<g id="a_node4"><a xlink:href="_discord_core_client_8hpp.html" target="_top" xlink:title=" ">
<polygon fill="white" stroke="#666666" points="1768,-184 1655,-184 1655,-165 1768,-165 1768,-184"/>
<text text-anchor="middle" x="1711.5" y="-172" font-family="Helvetica,sans-Serif" font-size="10.00">DiscordCoreClient.hpp</text>
</a>
</g>
</g>
<!-- Node1&#45;&gt;Node4 -->
<g id="edge3" class="edge">
<title>Node1&#45;&gt;Node4</title>
<path fill="none" stroke="#63b8ff" d="M1428.79,-218.43C1494.32,-208.48 1593.49,-193.42 1655.28,-184.04"/>
<polygon fill="#63b8ff" stroke="#63b8ff" points="1427.93,-215.02 1418.57,-219.98 1428.99,-221.94 1427.93,-215.02"/>
</g>
<!-- Node8 -->
<g id="node8" class="node">
<title>Node8</title>
<g id="a_node8"><a xlink:href="_event_manager_8cpp.html" target="_top" xlink:title=" ">
<polygon fill="white" stroke="#666666" points="367,-129 270,-129 270,-110 367,-110 367,-129"/>
<text text-anchor="middle" x="318.5" y="-117" font-family="Helvetica,sans-Serif" font-size="10.00">EventManager.cpp</text>
</a>
</g>
</g>
<!-- Node1&#45;&gt;Node8 -->
<g id="edge34" class="edge">
<title>Node1&#45;&gt;Node8</title>
<path fill="none" stroke="#63b8ff" d="M1291.4,-222.5C1128.89,-208.53 717.89,-171.76 375.5,-129 372.82,-128.67 370.07,-128.31 367.3,-127.93"/>
<polygon fill="#63b8ff" stroke="#63b8ff" points="1291.48,-226.02 1301.74,-223.39 1292.07,-219.05 1291.48,-226.02"/>
</g>
<!-- Node24 -->
<g id="node24" class="node">
<title>Node24</title>
<g id="a_node24"><a xlink:href="_to_entity_8hpp.html" target="_top" xlink:title=" ">
<polygon fill="white" stroke="#666666" points="3330,-129 3259,-129 3259,-110 3330,-110 3330,-129"/>
<text text-anchor="middle" x="3294.5" y="-117" font-family="Helvetica,sans-Serif" font-size="10.00">ToEntity.hpp</text>
</a>
</g>
</g>
<!-- Node1&#45;&gt;Node24 -->
<g id="edge35" class="edge">
<title>Node1&#45;&gt;Node24</title>
<path fill="none" stroke="#63b8ff" d="M1433.05,-228.18C1682.29,-226.33 2544.34,-213.8 3249.5,-129 3252.5,-128.64 3255.6,-128.2 3258.71,-127.71"/>
<polygon fill="#63b8ff" stroke="#63b8ff" points="1433.02,-224.68 1423.04,-228.25 1433.06,-231.68 1433.02,-224.68"/>
</g>
<!-- Node31 -->
<g id="node31" class="node">
<title>Node31</title>
<g id="a_node31"><a xlink:href="_web_socket_client_8cpp.html" target="_top" xlink:title=" ">
<polygon fill="white" stroke="#666666" points="3459,-129 3348,-129 3348,-110 3459,-110 3459,-129"/>
<text text-anchor="middle" x="3403.5" y="-117" font-family="Helvetica,sans-Serif" font-size="10.00">WebSocketClient.cpp</text>
</a>
</g>
</g>
<!-- Node1&#45;&gt;Node31 -->
<g id="edge36" class="edge">
<title>Node1&#45;&gt;Node31</title>
<path fill="none" stroke="#63b8ff" d="M1433.39,-228.07C1642.62,-226.43 2275.68,-218.74 2799.5,-184 3040.21,-168.03 3099.9,-157.11 3339.5,-129 3342.17,-128.69 3344.91,-128.36 3347.66,-128.02"/>
<polygon fill="#63b8ff" stroke="#63b8ff" points="1433.13,-224.58 1423.16,-228.15 1433.18,-231.58 1433.13,-224.58"/>
</g>
<!-- Node4&#45;&gt;Node2 -->
<g id="edge7" class="edge">
<title>Node4&#45;&gt;Node2</title>
<path fill="none" stroke="#63b8ff" d="M1644.63,-173.88C1426.41,-174.62 715.43,-173.23 129.5,-129 126.73,-128.79 123.9,-128.55 121.05,-128.29"/>
<polygon fill="#63b8ff" stroke="#63b8ff" points="1644.66,-177.38 1654.65,-173.84 1644.63,-170.38 1644.66,-177.38"/>
</g>
<!-- Node4&#45;&gt;Node3 -->
<g id="edge8" class="edge">
<title>Node4&#45;&gt;Node3</title>
<path fill="none" stroke="#63b8ff" d="M1644.61,-173.81C1438.18,-174.26 792.88,-171.87 260.5,-129 257.78,-128.78 254.99,-128.53 252.19,-128.25"/>
<polygon fill="#63b8ff" stroke="#63b8ff" points="1644.7,-177.31 1654.69,-173.78 1644.68,-170.31 1644.7,-177.31"/>
</g>
<!-- Node5 -->
<g id="node5" class="node">
<title>Node5</title>
<g id="a_node5"><a xlink:href="_application_command_entities_8cpp.html" target="_top" xlink:title=" ">
<polygon fill="white" stroke="#666666" points="1486,-129 1325,-129 1325,-110 1486,-110 1486,-129"/>
<text text-anchor="middle" x="1405.5" y="-117" font-family="Helvetica,sans-Serif" font-size="10.00">ApplicationCommandEntities.cpp</text>
</a>
</g>
</g>
<!-- Node4&#45;&gt;Node5 -->
<g id="edge4" class="edge">
<title>Node4&#45;&gt;Node5</title>
<path fill="none" stroke="#63b8ff" d="M1652.31,-163.25C1594.85,-153.3 1508.64,-138.36 1454.8,-129.04"/>
<polygon fill="#63b8ff" stroke="#63b8ff" points="1651.89,-166.73 1662.34,-164.98 1653.08,-159.83 1651.89,-166.73"/>
</g>
<!-- Node6 -->
<g id="node6" class="node">
<title>Node6</title>
<g id="a_node6"><a xlink:href="_auto_moderation_entities_8cpp.html" target="_top" xlink:title=" ">
<polygon fill="white" stroke="#666666" points="1641,-129 1504,-129 1504,-110 1641,-110 1641,-129"/>
<text text-anchor="middle" x="1572.5" y="-117" font-family="Helvetica,sans-Serif" font-size="10.00">AutoModerationEntities.cpp</text>
</a>
</g>
</g>
<!-- Node4&#45;&gt;Node6 -->
<g id="edge5" class="edge">
<title>Node4&#45;&gt;Node6</title>
<path fill="none" stroke="#63b8ff" d="M1679.82,-161.42C1654.03,-151.59 1618.26,-137.95 1595.24,-129.17"/>
<polygon fill="#63b8ff" stroke="#63b8ff" points="1678.58,-164.69 1689.17,-164.98 1681.07,-158.15 1678.58,-164.69"/>
</g>
<!-- Node7 -->
<g id="node7" class="node">
<title>Node7</title>
<g id="a_node7"><a xlink:href="_channel_entities_8cpp.html" target="_top" xlink:title=" ">
<polygon fill="white" stroke="#666666" points="1763.5,-129 1659.5,-129 1659.5,-110 1763.5,-110 1763.5,-129"/>
<text text-anchor="middle" x="1711.5" y="-117" font-family="Helvetica,sans-Serif" font-size="10.00">ChannelEntities.cpp</text>
</a>
</g>
</g>
<!-- Node4&#45;&gt;Node7 -->
<g id="edge6" class="edge">
<title>Node4&#45;&gt;Node7</title>
<path fill="none" stroke="#63b8ff" d="M1711.5,-154.66C1711.5,-145.93 1711.5,-135.99 1711.5,-129.09"/>
<polygon fill="#63b8ff" stroke="#63b8ff" points="1708,-154.75 1711.5,-164.75 1715,-154.75 1708,-154.75"/>
</g>
<!-- Node4&#45;&gt;Node8 -->
<g id="edge9" class="edge">
<title>Node4&#45;&gt;Node8</title>
<path fill="none" stroke="#63b8ff" d="M1644.59,-173.98C1448.89,-174.8 860.83,-173.12 375.5,-129 372.81,-128.76 370.05,-128.47 367.27,-128.15"/>
<polygon fill="#63b8ff" stroke="#63b8ff" points="1644.73,-177.48 1654.71,-173.93 1644.69,-170.48 1644.73,-177.48"/>
</g>
<!-- Node9 -->
<g id="node9" class="node">
<title>Node9</title>
<g id="a_node9"><a xlink:href="_foundation_entities_8cpp.html" target="_top" xlink:title=" ">
<polygon fill="white" stroke="#666666" points="1897.5,-129 1781.5,-129 1781.5,-110 1897.5,-110 1897.5,-129"/>
<text text-anchor="middle" x="1839.5" y="-117" font-family="Helvetica,sans-Serif" font-size="10.00">FoundationEntities.cpp</text>
</a>
</g>
</g>
<!-- Node4&#45;&gt;Node9 -->
<g id="edge10" class="edge">
<title>Node4&#45;&gt;Node9</title>
<path fill="none" stroke="#63b8ff" d="M1741.62,-161.03C1765.29,-151.23 1797.65,-137.83 1818.56,-129.17"/>
<polygon fill="#63b8ff" stroke="#63b8ff" points="1739.97,-157.93 1732.07,-164.98 1742.64,-164.39 1739.97,-157.93"/>
</g>
<!-- Node10 -->
<g id="node10" class="node">
<title>Node10</title>
<g id="a_node10"><a xlink:href="_guild_entities_8cpp.html" target="_top" xlink:title=" ">
<polygon fill="white" stroke="#666666" points="2007,-129 1916,-129 1916,-110 2007,-110 2007,-129"/>
<text text-anchor="middle" x="1961.5" y="-117" font-family="Helvetica,sans-Serif" font-size="10.00">GuildEntities.cpp</text>
</a>
</g>
</g>
<!-- Node4&#45;&gt;Node10 -->
<g id="edge11" class="edge">
<title>Node4&#45;&gt;Node10</title>
<path fill="none" stroke="#63b8ff" d="M1761.6,-162.88C1808.46,-152.94 1877.56,-138.3 1921.02,-129.08"/>
<polygon fill="#63b8ff" stroke="#63b8ff" points="1760.72,-159.49 1751.67,-164.98 1762.18,-166.33 1760.72,-159.49"/>
</g>
<!-- Node11 -->
<g id="node11" class="node">
<title>Node11</title>
<g id="a_node11"><a xlink:href="_guild_member_entities_8cpp.html" target="_top" xlink:title=" ">
<polygon fill="white" stroke="#666666" points="2151.5,-129 2025.5,-129 2025.5,-110 2151.5,-110 2151.5,-129"/>
<text text-anchor="middle" x="2088.5" y="-117" font-family="Helvetica,sans-Serif" font-size="10.00">GuildMemberEntities.cpp</text>
</a>
</g>
</g>
<!-- Node4&#45;&gt;Node11 -->
<g id="edge12" class="edge">
<title>Node4&#45;&gt;Node11</title>
<path fill="none" stroke="#63b8ff" d="M1778.48,-164.08C1849.14,-154.15 1959.53,-138.63 2027.75,-129.04"/>
<polygon fill="#63b8ff" stroke="#63b8ff" points="1777.76,-160.65 1768.35,-165.51 1778.74,-167.58 1777.76,-160.65"/>
</g>
<!-- Node12 -->
<g id="node12" class="node">
<title>Node12</title>
<g id="a_node12"><a xlink:href="_guild_scheduled_event_entities_8cpp.html" target="_top" xlink:title=" ">
<polygon fill="white" stroke="#666666" points="2331,-129 2170,-129 2170,-110 2331,-110 2331,-129"/>
<text text-anchor="middle" x="2250.5" y="-117" font-family="Helvetica,sans-Serif" font-size="10.00">GuildScheduledEventEntities.cpp</text>
</a>
</g>
</g>
<!-- Node4&#45;&gt;Node12 -->
<g id="edge13" class="edge">
<title>Node4&#45;&gt;Node12</title>
<path fill="none" stroke="#63b8ff" d="M1778.36,-166.93C1877.49,-157.18 2063.21,-138.92 2169.79,-128.44"/>
<polygon fill="#63b8ff" stroke="#63b8ff" points="1777.77,-163.47 1768.16,-167.93 1778.46,-170.43 1777.77,-163.47"/>
</g>
<!-- Node13 -->
<g id="node13" class="node">
<title>Node13</title>
<g id="a_node13"><a xlink:href="_https_client_8cpp.html" target="_top" xlink:title=" ">
<polygon fill="white" stroke="#666666" points="2432,-129 2349,-129 2349,-110 2432,-110 2432,-129"/>
<text text-anchor="middle" x="2390.5" y="-117" font-family="Helvetica,sans-Serif" font-size="10.00">HttpsClient.cpp</text>
</a>
</g>
</g>
<!-- Node4&#45;&gt;Node13 -->
<g id="edge14" class="edge">
<title>Node4&#45;&gt;Node13</title>
<path fill="none" stroke="#63b8ff" d="M1778.45,-170.83C1893.47,-165.79 2135.89,-153.13 2339.5,-129 2342.53,-128.64 2345.66,-128.23 2348.8,-127.78"/>
<polygon fill="#63b8ff" stroke="#63b8ff" points="1778.23,-167.34 1768.39,-171.27 1778.53,-174.33 1778.23,-167.34"/>
</g>
<!-- Node14 -->
<g id="node14" class="node">
<title>Node14</title>
<g id="a_node14"><a xlink:href="_input_events_8cpp.html" target="_top" xlink:title=" ">
<polygon fill="white" stroke="#666666" points="2536.5,-129 2450.5,-129 2450.5,-110 2536.5,-110 2536.5,-129"/>
<text text-anchor="middle" x="2493.5" y="-117" font-family="Helvetica,sans-Serif" font-size="10.00">InputEvents.cpp</text>
</a>
</g>
</g>
<!-- Node4&#45;&gt;Node14 -->
<g id="edge15" class="edge">
<title>Node4&#45;&gt;Node14</title>
<path fill="none" stroke="#63b8ff" d="M1778.47,-171.61C1907.1,-167.49 2197.54,-155.83 2440.5,-129 2443.74,-128.64 2447.09,-128.22 2450.45,-127.77"/>
<polygon fill="#63b8ff" stroke="#63b8ff" points="1778.26,-168.11 1768.38,-171.93 1778.48,-175.11 1778.26,-168.11"/>
</g>
<!-- Node15 -->
<g id="node15" class="node">
<title>Node15</title>
<g id="a_node15"><a xlink:href="_interaction_entities_8cpp.html" target="_top" xlink:title=" ">
<polygon fill="white" stroke="#666666" points="2668,-129 2555,-129 2555,-110 2668,-110 2668,-129"/>
<text text-anchor="middle" x="2611.5" y="-117" font-family="Helvetica,sans-Serif" font-size="10.00">InteractionEntities.cpp</text>
</a>
</g>
</g>
<!-- Node4&#45;&gt;Node15 -->
<g id="edge16" class="edge">
<title>Node4&#45;&gt;Node15</title>
<path fill="none" stroke="#63b8ff" d="M1778.5,-171.63C1920.26,-167.29 2260.93,-154.88 2545.5,-129 2548.49,-128.73 2551.56,-128.42 2554.65,-128.1"/>
<polygon fill="#63b8ff" stroke="#63b8ff" points="1778.12,-168.14 1768.23,-171.94 1778.34,-175.13 1778.12,-168.14"/>
</g>
<!-- Node16 -->
<g id="node16" class="node">
<title>Node16</title>
<g id="a_node16"><a xlink:href="_message_entities_8cpp.html" target="_top" xlink:title=" ">
<polygon fill="white" stroke="#666666" points="2794.5,-129 2686.5,-129 2686.5,-110 2794.5,-110 2794.5,-129"/>
<text text-anchor="middle" x="2740.5" y="-117" font-family="Helvetica,sans-Serif" font-size="10.00">MessageEntities.cpp</text>
</a>
</g>
</g>
<!-- Node4&#45;&gt;Node16 -->
<g id="edge17" class="edge">
<title>Node4&#45;&gt;Node16</title>
<path fill="none" stroke="#63b8ff" d="M1778.62,-172.39C1935.83,-169.35 2340.11,-159.04 2676.5,-129 2679.74,-128.71 2683.06,-128.38 2686.41,-128.02"/>
<polygon fill="#63b8ff" stroke="#63b8ff" points="1778.11,-168.9 1768.17,-172.59 1778.24,-175.9 1778.11,-168.9"/>
</g>
<!-- Node17 -->
<g id="node17" class="node">
<title>Node17</title>
<g id="a_node17"><a xlink:href="_reaction_entities_8cpp.html" target="_top" xlink:title=" ">
<polygon fill="white" stroke="#666666" points="2920,-129 2813,-129 2813,-110 2920,-110 2920,-129"/>
<text text-anchor="middle" x="2866.5" y="-117" font-family="Helvetica,sans-Serif" font-size="10.00">ReactionEntities.cpp</text>
</a>
</g>
</g>
<!-- Node4&#45;&gt;Node17 -->
<g id="edge18" class="edge">
<title>Node4&#45;&gt;Node17</title>
<path fill="none" stroke="#63b8ff" d="M1778.27,-172.95C1949.15,-171.06 2416.13,-162.95 2803.5,-129 2806.58,-128.73 2809.74,-128.42 2812.92,-128.08"/>
<polygon fill="#63b8ff" stroke="#63b8ff" points="1778.13,-169.45 1768.17,-173.05 1778.21,-176.45 1778.13,-169.45"/>
</g>
<!-- Node18 -->
<g id="node18" class="node">
<title>Node18</title>
<g id="a_node18"><a xlink:href="_role_entities_8cpp.html" target="_top" xlink:title=" ">
<polygon fill="white" stroke="#666666" points="3026.5,-129 2938.5,-129 2938.5,-110 3026.5,-110 3026.5,-129"/>
<text text-anchor="middle" x="2982.5" y="-117" font-family="Helvetica,sans-Serif" font-size="10.00">RoleEntities.cpp</text>
</a>
</g>
</g>
<!-- Node4&#45;&gt;Node18 -->
<g id="edge19" class="edge">
<title>Node4&#45;&gt;Node18</title>
<path fill="none" stroke="#63b8ff" d="M1778.12,-173.86C1961.85,-174.23 2491.15,-171.26 2928.5,-129 2931.71,-128.69 2935.02,-128.31 2938.35,-127.89"/>
<polygon fill="#63b8ff" stroke="#63b8ff" points="1778.08,-170.36 1768.07,-173.83 1778.06,-177.36 1778.08,-170.36"/>
</g>
<!-- Node19 -->
<g id="node19" class="node">
<title>Node19</title>
<g id="a_node19"><a xlink:href="_song_a_p_i_8cpp.html" target="_top" xlink:title=" ">
<polygon fill="white" stroke="#666666" points="3118.5,-129 3044.5,-129 3044.5,-110 3118.5,-110 3118.5,-129"/>
<text text-anchor="middle" x="3081.5" y="-117" font-family="Helvetica,sans-Serif" font-size="10.00">SongAPI.cpp</text>
</a>
</g>
</g>
<!-- Node4&#45;&gt;Node19 -->
<g id="edge20" class="edge">
<title>Node4&#45;&gt;Node19</title>
<path fill="none" stroke="#63b8ff" d="M1778.16,-172.58C2011.07,-169.14 2787.81,-155.89 3035.5,-129 3038.41,-128.68 3041.41,-128.29 3044.41,-127.84"/>
<polygon fill="#63b8ff" stroke="#63b8ff" points="1778.08,-169.08 1768.14,-172.72 1778.19,-176.08 1778.08,-169.08"/>
</g>
<!-- Node20 -->
<g id="node20" class="node">
<title>Node20</title>
<g id="a_node20"><a xlink:href="_sound_cloud_a_p_i_8cpp.html" target="_top" xlink:title=" ">
<polygon fill="white" stroke="#666666" points="3240.5,-129 3136.5,-129 3136.5,-110 3240.5,-110 3240.5,-129"/>
<text text-anchor="middle" x="3188.5" y="-117" font-family="Helvetica,sans-Serif" font-size="10.00">SoundCloudAPI.cpp</text>
</a>
</g>
</g>
<!-- Node4&#45;&gt;Node20 -->
<g id="edge21" class="edge">
<title>Node4&#45;&gt;Node20</title>
<path fill="none" stroke="#63b8ff" d="M1778.5,-173.94C1981.83,-174.71 2609.61,-173.09 3127.5,-129 3130.38,-128.76 3133.32,-128.47 3136.3,-128.15"/>
<polygon fill="#63b8ff" stroke="#63b8ff" points="1778.3,-170.44 1768.28,-173.89 1778.27,-177.43 1778.3,-170.44"/>
</g>
<!-- Node21 -->
<g id="node21" class="node">
<title>Node21</title>
<g id="a_node21"><a xlink:href="_stage_instance_entities_8cpp.html" target="_top" xlink:title=" ">
<polygon fill="white" stroke="#666666" points="516,-129 385,-129 385,-110 516,-110 516,-129"/>
<text text-anchor="middle" x="450.5" y="-117" font-family="Helvetica,sans-Serif" font-size="10.00">StageInstanceEntities.cpp</text>
</a>
</g>
</g>
<!-- Node4&#45;&gt;Node21 -->
<g id="edge22" class="edge">
<title>Node4&#45;&gt;Node21</title>
<path fill="none" stroke="#63b8ff" d="M1644.74,-172.8C1464.05,-170.5 950.36,-161.39 524.5,-129 521.79,-128.79 519.03,-128.56 516.24,-128.32"/>
<polygon fill="#63b8ff" stroke="#63b8ff" points="1644.84,-176.3 1654.89,-172.92 1644.93,-169.3 1644.84,-176.3"/>
</g>
<!-- Node22 -->
<g id="node22" class="node">
<title>Node22</title>
<g id="a_node22"><a xlink:href="_sticker_entities_8cpp.html" target="_top" xlink:title=" ">
<polygon fill="white" stroke="#666666" points="633,-129 534,-129 534,-110 633,-110 633,-129"/>
<text text-anchor="middle" x="583.5" y="-117" font-family="Helvetica,sans-Serif" font-size="10.00">StickerEntities.cpp</text>
</a>
</g>
</g>
<!-- Node4&#45;&gt;Node22 -->
<g id="edge23" class="edge">
<title>Node4&#45;&gt;Node22</title>
<path fill="none" stroke="#63b8ff" d="M1644.66,-173.07C1476.16,-171.48 1020.46,-164 642.5,-129 639.41,-128.71 636.23,-128.38 633.03,-128.01"/>
<polygon fill="#63b8ff" stroke="#63b8ff" points="1644.83,-176.57 1654.87,-173.16 1644.9,-169.57 1644.83,-176.57"/>
</g>
<!-- Node23 -->
<g id="node23" class="node">
<title>Node23</title>
<g id="a_node23"><a xlink:href="_thread_entities_8cpp.html" target="_top" xlink:title=" ">
<polygon fill="white" stroke="#666666" points="749.5,-129 651.5,-129 651.5,-110 749.5,-110 749.5,-129"/>
<text text-anchor="middle" x="700.5" y="-117" font-family="Helvetica,sans-Serif" font-size="10.00">ThreadEntities.cpp</text>
</a>
</g>
</g>
<!-- Node4&#45;&gt;Node23 -->
<g id="edge24" class="edge">
<title>Node4&#45;&gt;Node23</title>
<path fill="none" stroke="#63b8ff" d="M1644.62,-172.65C1488.9,-170.17 1090.1,-160.96 758.5,-129 755.56,-128.72 752.55,-128.39 749.51,-128.03"/>
<polygon fill="#63b8ff" stroke="#63b8ff" points="1644.92,-176.15 1654.97,-172.81 1645.02,-169.15 1644.92,-176.15"/>
</g>
<!-- Node4&#45;&gt;Node24 -->
<g id="edge25" class="edge">
<title>Node4&#45;&gt;Node24</title>
<path fill="none" stroke="#63b8ff" d="M1778.32,-172.97C2035.01,-170.72 2957.92,-160.56 3249.5,-129 3252.5,-128.67 3255.61,-128.26 3258.71,-127.79"/>
<polygon fill="#63b8ff" stroke="#63b8ff" points="1778,-169.47 1768.03,-173.06 1778.06,-176.47 1778,-169.47"/>
</g>
<!-- Node27 -->
<g id="node27" class="node">
<title>Node27</title>
<g id="a_node27"><a xlink:href="_user_entities_8cpp.html" target="_top" xlink:title=" ">
<polygon fill="white" stroke="#666666" points="857,-129 768,-129 768,-110 857,-110 857,-129"/>
<text text-anchor="middle" x="812.5" y="-117" font-family="Helvetica,sans-Serif" font-size="10.00">UserEntities.cpp</text>
</a>
</g>
</g>
<!-- Node4&#45;&gt;Node27 -->
<g id="edge28" class="edge">
<title>Node4&#45;&gt;Node27</title>
<path fill="none" stroke="#63b8ff" d="M1644.62,-172.33C1501.51,-169.31 1155.14,-159.24 866.5,-129 863.48,-128.68 860.37,-128.31 857.24,-127.91"/>
<polygon fill="#63b8ff" stroke="#63b8ff" points="1644.91,-175.84 1654.98,-172.54 1645.05,-168.84 1644.91,-175.84"/>
</g>
<!-- Node28 -->
<g id="node28" class="node">
<title>Node28</title>
<g id="a_node28"><a xlink:href="_utilities_8cpp.html" target="_top" xlink:title=" ">
<polygon fill="white" stroke="#666666" points="943.5,-129 875.5,-129 875.5,-110 943.5,-110 943.5,-129"/>
<text text-anchor="middle" x="909.5" y="-117" font-family="Helvetica,sans-Serif" font-size="10.00">Utilities.cpp</text>
</a>
</g>
</g>
<!-- Node4&#45;&gt;Node28 -->
<g id="edge29" class="edge">
<title>Node4&#45;&gt;Node28</title>
<path fill="none" stroke="#63b8ff" d="M1644.6,-172.64C1512.02,-170.27 1206.77,-161.43 952.5,-129 949.63,-128.63 946.67,-128.19 943.7,-127.7"/>
<polygon fill="#63b8ff" stroke="#63b8ff" points="1644.54,-176.14 1654.6,-172.81 1644.66,-169.14 1644.54,-176.14"/>
</g>
<!-- Node29 -->
<g id="node29" class="node">
<title>Node29</title>
<g id="a_node29"><a xlink:href="_voice_connection_8cpp.html" target="_top" xlink:title=" ">
<polygon fill="white" stroke="#666666" points="1071,-129 962,-129 962,-110 1071,-110 1071,-129"/>
<text text-anchor="middle" x="1016.5" y="-117" font-family="Helvetica,sans-Serif" font-size="10.00">VoiceConnection.cpp</text>
</a>
</g>
</g>
<!-- Node4&#45;&gt;Node29 -->
<g id="edge30" class="edge">
<title>Node4&#45;&gt;Node29</title>
<path fill="none" stroke="#63b8ff" d="M1644.65,-170.2C1529.19,-164.18 1285.02,-150.08 1079.5,-129 1076.76,-128.72 1073.95,-128.41 1071.11,-128.09"/>
<polygon fill="#63b8ff" stroke="#63b8ff" points="1644.58,-173.7 1654.74,-170.72 1644.94,-166.71 1644.58,-173.7"/>
</g>
<!-- Node30 -->
<g id="node30" class="node">
<title>Node30</title>
<g id="a_node30"><a xlink:href="_web_hook_entities_8cpp.html" target="_top" xlink:title=" ">
<polygon fill="white" stroke="#666666" points="1200,-129 1089,-129 1089,-110 1200,-110 1200,-129"/>
<text text-anchor="middle" x="1144.5" y="-117" font-family="Helvetica,sans-Serif" font-size="10.00">WebHookEntities.cpp</text>
</a>
</g>
</g>
<!-- Node4&#45;&gt;Node30 -->
<g id="edge31" class="edge">
<title>Node4&#45;&gt;Node30</title>
<path fill="none" stroke="#63b8ff" d="M1644.65,-168.52C1548.2,-161.13 1364.46,-146.25 1208.5,-129 1205.83,-128.7 1203.09,-128.39 1200.33,-128.06"/>
<polygon fill="#63b8ff" stroke="#63b8ff" points="1644.61,-172.03 1654.84,-169.3 1645.14,-165.05 1644.61,-172.03"/>
</g>
<!-- Node4&#45;&gt;Node31 -->
<g id="edge32" class="edge">
<title>Node4&#45;&gt;Node31</title>
<path fill="none" stroke="#63b8ff" d="M1778.62,-172.6C2045.05,-168.9 3028.69,-153.82 3339.5,-129 3342.18,-128.79 3344.92,-128.54 3347.69,-128.26"/>
<polygon fill="#63b8ff" stroke="#63b8ff" points="1778.28,-169.11 1768.32,-172.75 1778.37,-176.11 1778.28,-169.11"/>
</g>
<!-- Node32 -->
<g id="node32" class="node">
<title>Node32</title>
<g id="a_node32"><a xlink:href="_you_tube_a_p_i_8cpp.html" target="_top" xlink:title=" ">
<polygon fill="white" stroke="#666666" points="1307,-129 1218,-129 1218,-110 1307,-110 1307,-129"/>
<text text-anchor="middle" x="1262.5" y="-117" font-family="Helvetica,sans-Serif" font-size="10.00">YouTubeAPI.cpp</text>
</a>
</g>
</g>
<!-- Node4&#45;&gt;Node32 -->
<g id="edge33" class="edge">
<title>Node4&#45;&gt;Node32</title>
<path fill="none" stroke="#63b8ff" d="M1644.73,-166.97C1565.92,-159.03 1430.96,-144.74 1315.5,-129 1312.73,-128.62 1309.88,-128.22 1307.01,-127.79"/>
<polygon fill="#63b8ff" stroke="#63b8ff" points="1644.7,-170.48 1655,-168 1645.4,-163.52 1644.7,-170.48"/>
</g>
<!-- Node25 -->
<g id="node25" class="node">
<title>Node25</title>
<g id="a_node25"><a xlink:href="_index_8hpp.html" target="_top" xlink:title=" ">
<polygon fill="white" stroke="#666666" points="3324,-74 3265,-74 3265,-55 3324,-55 3324,-74"/>
<text text-anchor="middle" x="3294.5" y="-62" font-family="Helvetica,sans-Serif" font-size="10.00">Index.hpp</text>
</a>
</g>
</g>
<!-- Node24&#45;&gt;Node25 -->
<g id="edge26" class="edge">
<title>Node24&#45;&gt;Node25</title>
<path fill="none" stroke="#63b8ff" d="M3294.5,-99.66C3294.5,-90.93 3294.5,-80.99 3294.5,-74.09"/>
<polygon fill="#63b8ff" stroke="#63b8ff" points="3291,-99.75 3294.5,-109.75 3298,-99.75 3291,-99.75"/>
</g>
<!-- Node26 -->
<g id="node26" class="node">
<title>Node26</title>
<g id="a_node26"><a xlink:href="_dll_main_8cpp.html" target="_top" xlink:title=" ">
<polygon fill="white" stroke="#666666" points="3328.5,-19 3260.5,-19 3260.5,0 3328.5,0 3328.5,-19"/>
<text text-anchor="middle" x="3294.5" y="-7" font-family="Helvetica,sans-Serif" font-size="10.00">DllMain.cpp</text>
</a>
</g>
</g>
<!-- Node25&#45;&gt;Node26 -->
<g id="edge27" class="edge">
<title>Node25&#45;&gt;Node26</title>
<path fill="none" stroke="#63b8ff" d="M3294.5,-44.66C3294.5,-35.93 3294.5,-25.99 3294.5,-19.09"/>
<polygon fill="#63b8ff" stroke="#63b8ff" points="3291,-44.75 3294.5,-54.75 3298,-44.75 3291,-44.75"/>
</g>
</g>
</svg>
