<?xml version="1.0" encoding="UTF-8" standalone="no"?>
<!DOCTYPE svg PUBLIC "-//W3C//DTD SVG 1.1//EN"
 "http://www.w3.org/Graphics/SVG/1.1/DTD/svg11.dtd">
<!-- Generated by graphviz version 2.43.0 (0)
 -->
<!-- Title: Demuxers.hpp Pages: 1 -->
<svg width="2274pt" height="335pt"
 viewBox="0.00 0.00 2274.00 335.00" xmlns="http://www.w3.org/2000/svg" xmlns:xlink="http://www.w3.org/1999/xlink">
<g id="graph0" class="graph" transform="scale(1 1) rotate(0) translate(4 331)">
<title>Demuxers.hpp</title>
<!-- Node1 -->
<g id="Node000001" class="node">
<title>Node1</title>
<g id="a_Node000001"><a xlink:title=" ">
<polygon fill="#999999" stroke="#666666" points="1452,-327 1365,-327 1365,-308 1452,-308 1452,-327"/>
<text text-anchor="middle" x="1408.5" y="-315" font-family="Helvetica,sans-Serif" font-size="10.00">Demuxers.hpp</text>
</a>
</g>
</g>
<!-- Node2 -->
<g id="Node000002" class="node">
<title>Node2</title>
<g id="a_Node000002"><a xlink:href="_utilities_8hpp.html" target="_top" xlink:title=" ">
<polygon fill="white" stroke="#666666" points="1353.5,-272 1203.5,-272 1203.5,-253 1353.5,-253 1353.5,-272"/>
<text text-anchor="middle" x="1278.5" y="-260" font-family="Helvetica,sans-Serif" font-size="10.00">discordcoreapi/Utilities.hpp</text>
</a>
</g>
</g>
<!-- Node1&#45;&gt;Node2 -->
<g id="edge1_Node000001_Node000002" class="edge">
<title>Node1&#45;&gt;Node2</title>
<g id="a_edge1_Node000001_Node000002"><a xlink:title=" ">
<path fill="none" stroke="#63b8ff" d="M1387.61,-307.98C1366.42,-299.34 1333.37,-285.87 1309.2,-276.02"/>
<polygon fill="#63b8ff" stroke="#63b8ff" points="1310.35,-272.7 1299.77,-272.17 1307.71,-279.19 1310.35,-272.7"/>
</a>
</g>
</g>
<!-- Node41 -->
<g id="Node000041" class="node">
<title>Node41</title>
<g id="a_Node000041"><a xlink:title=" ">
<polygon fill="#e0e0e0" stroke="#999999" points="1446,-272 1371,-272 1371,-253 1446,-253 1446,-272"/>
<text text-anchor="middle" x="1408.5" y="-260" font-family="Helvetica,sans-Serif" font-size="10.00">opus/opus.h</text>
</a>
</g>
</g>
<!-- Node1&#45;&gt;Node41 -->
<g id="edge54_Node000001_Node000041" class="edge">
<title>Node1&#45;&gt;Node41</title>
<g id="a_edge54_Node000001_Node000041"><a xlink:title=" ">
<path fill="none" stroke="#63b8ff" d="M1408.5,-307.75C1408.5,-300.8 1408.5,-290.85 1408.5,-282.13"/>
<polygon fill="#63b8ff" stroke="#63b8ff" points="1412,-282.09 1408.5,-272.09 1405,-282.09 1412,-282.09"/>
</a>
</g>
</g>
<!-- Node42 -->
<g id="Node000042" class="node">
<title>Node42</title>
<g id="a_Node000042"><a xlink:title=" ">
<polygon fill="#e0e0e0" stroke="#999999" points="1519,-272 1464,-272 1464,-253 1519,-253 1519,-272"/>
<text text-anchor="middle" x="1491.5" y="-260" font-family="Helvetica,sans-Serif" font-size="10.00">fstream</text>
</a>
</g>
</g>
<!-- Node1&#45;&gt;Node42 -->
<g id="edge55_Node000001_Node000042" class="edge">
<title>Node1&#45;&gt;Node42</title>
<g id="a_edge55_Node000001_Node000042"><a xlink:title=" ">
<path fill="none" stroke="#63b8ff" d="M1421.84,-307.98C1434.59,-299.84 1454.05,-287.41 1469.17,-277.76"/>
<polygon fill="#63b8ff" stroke="#63b8ff" points="1471.38,-280.5 1477.92,-272.17 1467.61,-274.6 1471.38,-280.5"/>
</a>
</g>
</g>
<!-- Node3 -->
<g id="Node000003" class="node">
<title>Node3</title>
<g id="a_Node000003"><a xlink:href="_base_8hpp.html" target="_top" xlink:title=" ">
<polygon fill="white" stroke="#666666" points="1215,-151 1086,-151 1086,-121 1215,-121 1215,-151"/>
<text text-anchor="start" x="1094" y="-139" font-family="Helvetica,sans-Serif" font-size="10.00">discordcoreapi/Utilities</text>
<text text-anchor="middle" x="1150.5" y="-128" font-family="Helvetica,sans-Serif" font-size="10.00">/Base.hpp</text>
</a>
</g>
</g>
<!-- Node2&#45;&gt;Node3 -->
<g id="edge2_Node000002_Node000003" class="edge">
<title>Node2&#45;&gt;Node3</title>
<g id="a_edge2_Node000002_Node000003"><a xlink:title=" ">
<path fill="none" stroke="#63b8ff" d="M1278.74,-252.6C1278.67,-237.42 1276.44,-206.28 1260.5,-187 1248.72,-172.74 1232,-162.37 1215.15,-154.91"/>
<polygon fill="#63b8ff" stroke="#63b8ff" points="1216.38,-151.63 1205.8,-151.05 1213.71,-158.1 1216.38,-151.63"/>
</a>
</g>
</g>
<!-- Node29 -->
<g id="Node000029" class="node">
<title>Node29</title>
<g id="a_Node000029"><a xlink:href="_unordered_set_8hpp.html" target="_top" xlink:title=" ">
<polygon fill="white" stroke="#666666" points="2120,-217 1991,-217 1991,-187 2120,-187 2120,-217"/>
<text text-anchor="start" x="1999" y="-205" font-family="Helvetica,sans-Serif" font-size="10.00">discordcoreapi/Utilities</text>
<text text-anchor="middle" x="2055.5" y="-194" font-family="Helvetica,sans-Serif" font-size="10.00">/UnorderedSet.hpp</text>
</a>
</g>
</g>
<!-- Node2&#45;&gt;Node29 -->
<g id="edge28_Node000002_Node000029" class="edge">
<title>Node2&#45;&gt;Node29</title>
<g id="a_edge28_Node000002_Node000029"><a xlink:title=" ">
<path fill="none" stroke="#63b8ff" d="M1353.59,-253.74C1356.6,-253.48 1359.58,-253.23 1362.5,-253 1634.29,-231.37 1706.83,-250.59 1980.45,-217.15"/>
<polygon fill="#63b8ff" stroke="#63b8ff" points="1981.2,-220.59 1990.69,-215.89 1980.34,-213.64 1981.2,-220.59"/>
</a>
</g>
</g>
<!-- Node34 -->
<g id="Node000034" class="node">
<title>Node34</title>
<g id="a_Node000034"><a xlink:href="_unordered_map_8hpp_source.html" target="_top" xlink:title=" ">
<polygon fill="white" stroke="#666666" points="1973,-217 1844,-217 1844,-187 1973,-187 1973,-217"/>
<text text-anchor="start" x="1852" y="-205" font-family="Helvetica,sans-Serif" font-size="10.00">discordcoreapi/Utilities</text>
<text text-anchor="middle" x="1908.5" y="-194" font-family="Helvetica,sans-Serif" font-size="10.00">/UnorderedMap.hpp</text>
</a>
</g>
</g>
<!-- Node2&#45;&gt;Node34 -->
<g id="edge34_Node000002_Node000034" class="edge">
<title>Node2&#45;&gt;Node34</title>
<g id="a_edge34_Node000002_Node000034"><a xlink:title=" ">
<path fill="none" stroke="#63b8ff" d="M1353.6,-253.86C1356.61,-253.57 1359.58,-253.28 1362.5,-253 1530.76,-236.78 1728.32,-219 1833.56,-209.63"/>
<polygon fill="#63b8ff" stroke="#63b8ff" points="1834.11,-213.1 1843.76,-208.73 1833.49,-206.13 1834.11,-213.1"/>
</a>
</g>
</g>
<!-- Node37 -->
<g id="Node000037" class="node">
<title>Node37</title>
<g id="a_Node000037"><a xlink:href="_object_cache_8hpp.html" target="_top" xlink:title=" ">
<polygon fill="white" stroke="#666666" points="1066,-217 937,-217 937,-187 1066,-187 1066,-217"/>
<text text-anchor="start" x="945" y="-205" font-family="Helvetica,sans-Serif" font-size="10.00">discordcoreapi/Utilities</text>
<text text-anchor="middle" x="1001.5" y="-194" font-family="Helvetica,sans-Serif" font-size="10.00">/ObjectCache.hpp</text>
</a>
</g>
</g>
<!-- Node2&#45;&gt;Node37 -->
<g id="edge45_Node000002_Node000037" class="edge">
<title>Node2&#45;&gt;Node37</title>
<g id="a_edge45_Node000002_Node000037"><a xlink:title=" ">
<path fill="none" stroke="#63b8ff" d="M1238.22,-252.99C1195.86,-244.05 1128.25,-229.77 1076.11,-218.76"/>
<polygon fill="#63b8ff" stroke="#63b8ff" points="1076.74,-215.31 1066.23,-216.67 1075.29,-222.16 1076.74,-215.31"/>
</a>
</g>
</g>
<!-- Node38 -->
<g id="Node000038" class="node">
<title>Node38</title>
<g id="a_Node000038"><a xlink:href="_etf_8hpp.html" target="_top" xlink:title=" ">
<polygon fill="white" stroke="#666666" points="973,-151 844,-151 844,-121 973,-121 973,-151"/>
<text text-anchor="start" x="852" y="-139" font-family="Helvetica,sans-Serif" font-size="10.00">discordcoreapi/Utilities</text>
<text text-anchor="middle" x="908.5" y="-128" font-family="Helvetica,sans-Serif" font-size="10.00">/Etf.hpp</text>
</a>
</g>
</g>
<!-- Node2&#45;&gt;Node38 -->
<g id="edge52_Node000002_Node000038" class="edge">
<title>Node2&#45;&gt;Node38</title>
<g id="a_edge52_Node000002_Node000038"><a xlink:title=" ">
<path fill="none" stroke="#63b8ff" d="M1203.3,-261.58C1112.76,-260.07 967.95,-252.03 928.5,-217 913,-203.24 908.64,-179.46 907.77,-161.39"/>
<polygon fill="#63b8ff" stroke="#63b8ff" points="911.27,-161.22 907.61,-151.27 904.27,-161.33 911.27,-161.22"/>
</a>
</g>
</g>
<!-- Node39 -->
<g id="Node000039" class="node">
<title>Node39</title>
<g id="a_Node000039"><a xlink:href="_unbounded_message_block_8hpp.html" target="_top" xlink:title=" ">
<polygon fill="white" stroke="#666666" points="1251,-217 1084,-217 1084,-187 1251,-187 1251,-217"/>
<text text-anchor="start" x="1092" y="-205" font-family="Helvetica,sans-Serif" font-size="10.00">discordcoreapi/Utilities</text>
<text text-anchor="middle" x="1167.5" y="-194" font-family="Helvetica,sans-Serif" font-size="10.00">/UnboundedMessageBlock.hpp</text>
</a>
</g>
</g>
<!-- Node2&#45;&gt;Node39 -->
<g id="edge50_Node000002_Node000039" class="edge">
<title>Node2&#45;&gt;Node39</title>
<g id="a_edge50_Node000002_Node000039"><a xlink:title=" ">
<path fill="none" stroke="#63b8ff" d="M1262.12,-252.87C1246.71,-244.75 1223.11,-232.31 1203.34,-221.89"/>
<polygon fill="#63b8ff" stroke="#63b8ff" points="1204.76,-218.68 1194.28,-217.11 1201.5,-224.87 1204.76,-218.68"/>
</a>
</g>
</g>
<!-- Node40 -->
<g id="Node000040" class="node">
<title>Node40</title>
<g id="a_Node000040"><a xlink:title=" ">
<polygon fill="#e0e0e0" stroke="#999999" points="2200.5,-211.5 2138.5,-211.5 2138.5,-192.5 2200.5,-192.5 2200.5,-211.5"/>
<text text-anchor="middle" x="2169.5" y="-199.5" font-family="Helvetica,sans-Serif" font-size="10.00">coroutine</text>
</a>
</g>
</g>
<!-- Node2&#45;&gt;Node40 -->
<g id="edge53_Node000002_Node000040" class="edge">
<title>Node2&#45;&gt;Node40</title>
<g id="a_edge53_Node000002_Node000040"><a xlink:title=" ">
<path fill="none" stroke="#63b8ff" d="M1353.59,-253.7C1356.6,-253.45 1359.58,-253.22 1362.5,-253 1702.83,-227.81 1794.49,-282.05 2129.5,-217 2132.58,-216.4 2135.74,-215.62 2138.87,-214.72"/>
<polygon fill="#63b8ff" stroke="#63b8ff" points="2140.19,-217.97 2148.64,-211.58 2138.05,-211.31 2140.19,-217.97"/>
</a>
</g>
</g>
<!-- Node4 -->
<g id="Node000004" class="node">
<title>Node4</title>
<g id="a_Node000004"><a xlink:title=" ">
<polygon fill="#e0e0e0" stroke="#999999" points="1291,-79.5 1222,-79.5 1222,-60.5 1291,-60.5 1291,-79.5"/>
<text text-anchor="middle" x="1256.5" y="-67.5" font-family="Helvetica,sans-Serif" font-size="10.00">arpa/inet.h</text>
</a>
</g>
</g>
<!-- Node3&#45;&gt;Node4 -->
<g id="edge3_Node000003_Node000004" class="edge">
<title>Node3&#45;&gt;Node4</title>
<g id="a_edge3_Node000003_Node000004"><a xlink:title=" ">
<path fill="none" stroke="#63b8ff" d="M1173.76,-120.95C1191.61,-110.18 1216.12,-95.38 1233.83,-84.69"/>
<polygon fill="#63b8ff" stroke="#63b8ff" points="1235.64,-87.68 1242.39,-79.52 1232.02,-81.69 1235.64,-87.68"/>
</a>
</g>
</g>
<!-- Node5 -->
<g id="Node000005" class="node">
<title>Node5</title>
<g id="a_Node000005"><a xlink:title=" ">
<polygon fill="#e0e0e0" stroke="#999999" points="1377.5,-79.5 1309.5,-79.5 1309.5,-60.5 1377.5,-60.5 1377.5,-79.5"/>
<text text-anchor="middle" x="1343.5" y="-67.5" font-family="Helvetica,sans-Serif" font-size="10.00">sys/time.h</text>
</a>
</g>
</g>
<!-- Node3&#45;&gt;Node5 -->
<g id="edge4_Node000003_Node000005" class="edge">
<title>Node3&#45;&gt;Node5</title>
<g id="a_edge4_Node000003_Node000005"><a xlink:title=" ">
<path fill="none" stroke="#63b8ff" d="M1192.85,-120.95C1227.45,-109.48 1275.76,-93.46 1308.27,-82.68"/>
<polygon fill="#63b8ff" stroke="#63b8ff" points="1309.42,-85.99 1317.81,-79.52 1307.22,-79.34 1309.42,-85.99"/>
</a>
</g>
</g>
<!-- Node6 -->
<g id="Node000006" class="node">
<title>Node6</title>
<g id="a_Node000006"><a xlink:title=" ">
<polygon fill="#e0e0e0" stroke="#999999" points="1459,-79.5 1396,-79.5 1396,-60.5 1459,-60.5 1459,-79.5"/>
<text text-anchor="middle" x="1427.5" y="-67.5" font-family="Helvetica,sans-Serif" font-size="10.00">pthread.h</text>
</a>
</g>
</g>
<!-- Node3&#45;&gt;Node6 -->
<g id="edge5_Node000003_Node000006" class="edge">
<title>Node3&#45;&gt;Node6</title>
<g id="a_edge5_Node000003_Node000006"><a xlink:title=" ">
<path fill="none" stroke="#63b8ff" d="M1215.11,-123.49C1262.82,-114.46 1329.17,-100.8 1386.5,-85 1388.97,-84.32 1391.52,-83.57 1394.07,-82.78"/>
<polygon fill="#63b8ff" stroke="#63b8ff" points="1395.37,-86.04 1403.8,-79.63 1393.21,-79.38 1395.37,-86.04"/>
</a>
</g>
</g>
<!-- Node7 -->
<g id="Node000007" class="node">
<title>Node7</title>
<g id="a_Node000007"><a xlink:title=" ">
<polygon fill="#e0e0e0" stroke="#999999" points="1527.5,-79.5 1477.5,-79.5 1477.5,-60.5 1527.5,-60.5 1527.5,-79.5"/>
<text text-anchor="middle" x="1502.5" y="-67.5" font-family="Helvetica,sans-Serif" font-size="10.00">cstdint</text>
</a>
</g>
</g>
<!-- Node3&#45;&gt;Node7 -->
<g id="edge6_Node000003_Node000007" class="edge">
<title>Node3&#45;&gt;Node7</title>
<g id="a_edge6_Node000003_Node000007"><a xlink:title=" ">
<path fill="none" stroke="#63b8ff" d="M1215.1,-129.33C1280.03,-122.59 1382.53,-109.1 1468.5,-85 1470.44,-84.46 1472.41,-83.84 1474.38,-83.16"/>
<polygon fill="#63b8ff" stroke="#63b8ff" points="1475.95,-86.31 1484.07,-79.51 1473.48,-79.76 1475.95,-86.31"/>
</a>
</g>
</g>
<!-- Node8 -->
<g id="Node000008" class="node">
<title>Node8</title>
<g id="a_Node000008"><a xlink:title=" ">
<polygon fill="#e0e0e0" stroke="#999999" points="1595.5,-79.5 1545.5,-79.5 1545.5,-60.5 1595.5,-60.5 1595.5,-79.5"/>
<text text-anchor="middle" x="1570.5" y="-67.5" font-family="Helvetica,sans-Serif" font-size="10.00">cstring</text>
</a>
</g>
</g>
<!-- Node3&#45;&gt;Node8 -->
<g id="edge7_Node000003_Node000008" class="edge">
<title>Node3&#45;&gt;Node8</title>
<g id="a_edge7_Node000003_Node000008"><a xlink:title=" ">
<path fill="none" stroke="#63b8ff" d="M1215.01,-131.81C1292.48,-126.8 1425.8,-114.41 1536.5,-85 1538.44,-84.48 1540.42,-83.88 1542.4,-83.22"/>
<polygon fill="#63b8ff" stroke="#63b8ff" points="1543.96,-86.38 1552.1,-79.6 1541.51,-79.82 1543.96,-86.38"/>
</a>
</g>
</g>
<!-- Node9 -->
<g id="Node000009" class="node">
<title>Node9</title>
<g id="a_Node000009"><a xlink:title=" ">
<polygon fill="#e0e0e0" stroke="#999999" points="1661.5,-79.5 1613.5,-79.5 1613.5,-60.5 1661.5,-60.5 1661.5,-79.5"/>
<text text-anchor="middle" x="1637.5" y="-67.5" font-family="Helvetica,sans-Serif" font-size="10.00">time.h</text>
</a>
</g>
</g>
<!-- Node3&#45;&gt;Node9 -->
<g id="edge8_Node000003_Node000009" class="edge">
<title>Node3&#45;&gt;Node9</title>
<g id="a_edge8_Node000003_Node000009"><a xlink:title=" ">
<path fill="none" stroke="#63b8ff" d="M1215.1,-133.77C1304.12,-130.76 1468.89,-120.42 1604.5,-85 1606.44,-84.49 1608.42,-83.89 1610.39,-83.23"/>
<polygon fill="#63b8ff" stroke="#63b8ff" points="1611.94,-86.38 1620.02,-79.53 1609.43,-79.85 1611.94,-86.38"/>
</a>
</g>
</g>
<!-- Node10 -->
<g id="Node000010" class="node">
<title>Node10</title>
<g id="a_Node000010"><a xlink:title=" ">
<polygon fill="#e0e0e0" stroke="#999999" points="1723.5,-79.5 1679.5,-79.5 1679.5,-60.5 1723.5,-60.5 1723.5,-79.5"/>
<text text-anchor="middle" x="1701.5" y="-67.5" font-family="Helvetica,sans-Serif" font-size="10.00">ctime</text>
</a>
</g>
</g>
<!-- Node3&#45;&gt;Node10 -->
<g id="edge9_Node000003_Node000010" class="edge">
<title>Node3&#45;&gt;Node10</title>
<g id="a_edge9_Node000003_Node000010"><a xlink:title=" ">
<path fill="none" stroke="#63b8ff" d="M1215.33,-135.52C1314.92,-134.83 1510.77,-127.5 1670.5,-85 1672.19,-84.55 1673.9,-84.02 1675.6,-83.43"/>
<polygon fill="#63b8ff" stroke="#63b8ff" points="1677.17,-86.57 1685.14,-79.59 1674.55,-80.08 1677.17,-86.57"/>
</a>
</g>
</g>
<!-- Node11 -->
<g id="Node000011" class="node">
<title>Node11</title>
<g id="a_Node000011"><a xlink:title=" ">
<polygon fill="#e0e0e0" stroke="#999999" points="961,-19 854,-19 854,0 961,0 961,-19"/>
<text text-anchor="middle" x="907.5" y="-7" font-family="Helvetica,sans-Serif" font-size="10.00">jsonifier/Index.hpp</text>
</a>
</g>
</g>
<!-- Node3&#45;&gt;Node11 -->
<g id="edge10_Node000003_Node000011" class="edge">
<title>Node3&#45;&gt;Node11</title>
<g id="a_edge10_Node000003_Node000011"><a xlink:title=" ">
<path fill="none" stroke="#63b8ff" d="M1215.19,-135.76C1381.31,-136.62 1804.97,-131.49 1732.5,-55 1706.42,-27.48 1160.4,-15.06 971.3,-11.57"/>
<polygon fill="#63b8ff" stroke="#63b8ff" points="971.29,-8.07 961.23,-11.39 971.16,-15.07 971.29,-8.07"/>
</a>
</g>
</g>
<!-- Node12 -->
<g id="Node000012" class="node">
<title>Node12</title>
<g id="a_Node000012"><a xlink:title=" ">
<polygon fill="#e0e0e0" stroke="#999999" points="240,-79.5 147,-79.5 147,-60.5 240,-60.5 240,-79.5"/>
<text text-anchor="middle" x="193.5" y="-67.5" font-family="Helvetica,sans-Serif" font-size="10.00">source_location</text>
</a>
</g>
</g>
<!-- Node3&#45;&gt;Node12 -->
<g id="edge11_Node000003_Node000012" class="edge">
<title>Node3&#45;&gt;Node12</title>
<g id="a_edge11_Node000003_Node000012"><a xlink:title=" ">
<path fill="none" stroke="#63b8ff" d="M1085.73,-123.84C1077.92,-122.75 1070.04,-121.76 1062.5,-121 702.66,-84.53 607.41,-137.12 249.5,-85 244.05,-84.21 238.35,-83.11 232.77,-81.87"/>
<polygon fill="#63b8ff" stroke="#63b8ff" points="233.46,-78.44 222.92,-79.53 231.84,-85.25 233.46,-78.44"/>
</a>
</g>
</g>
<!-- Node13 -->
<g id="Node000013" class="node">
<title>Node13</title>
<g id="a_Node000013"><a xlink:title=" ">
<polygon fill="#e0e0e0" stroke="#999999" points="1865.5,-79.5 1779.5,-79.5 1779.5,-60.5 1865.5,-60.5 1865.5,-79.5"/>
<text text-anchor="middle" x="1822.5" y="-67.5" font-family="Helvetica,sans-Serif" font-size="10.00">shared_mutex</text>
</a>
</g>
</g>
<!-- Node3&#45;&gt;Node13 -->
<g id="edge12_Node000003_Node000013" class="edge">
<title>Node3&#45;&gt;Node13</title>
<g id="a_edge12_Node000003_Node000013"><a xlink:title=" ">
<path fill="none" stroke="#63b8ff" d="M1215.1,-133.14C1327.59,-129.15 1566.45,-117.32 1765.5,-85 1770.71,-84.15 1776.14,-83.08 1781.5,-81.9"/>
<polygon fill="#63b8ff" stroke="#63b8ff" points="1782.68,-85.22 1791.62,-79.54 1781.09,-78.4 1782.68,-85.22"/>
</a>
</g>
</g>
<!-- Node14 -->
<g id="Node000014" class="node">
<title>Node14</title>
<g id="a_Node000014"><a xlink:title=" ">
<polygon fill="#e0e0e0" stroke="#999999" points="332.5,-79.5 258.5,-79.5 258.5,-60.5 332.5,-60.5 332.5,-79.5"/>
<text text-anchor="middle" x="295.5" y="-67.5" font-family="Helvetica,sans-Serif" font-size="10.00">immintrin.h</text>
</a>
</g>
</g>
<!-- Node3&#45;&gt;Node14 -->
<g id="edge13_Node000003_Node000014" class="edge">
<title>Node3&#45;&gt;Node14</title>
<g id="a_edge13_Node000003_Node000014"><a xlink:title=" ">
<path fill="none" stroke="#63b8ff" d="M1085.73,-123.88C1077.92,-122.78 1070.04,-121.79 1062.5,-121 743.38,-87.75 657.57,-140.12 341.5,-85 337.54,-84.31 333.45,-83.38 329.41,-82.34"/>
<polygon fill="#63b8ff" stroke="#63b8ff" points="330.16,-78.91 319.58,-79.54 328.24,-85.64 330.16,-78.91"/>
</a>
</g>
</g>
<!-- Node15 -->
<g id="Node000015" class="node">
<title>Node15</title>
<g id="a_Node000015"><a xlink:title=" ">
<polygon fill="#e0e0e0" stroke="#999999" points="416,-79.5 351,-79.5 351,-60.5 416,-60.5 416,-79.5"/>
<text text-anchor="middle" x="383.5" y="-67.5" font-family="Helvetica,sans-Serif" font-size="10.00">functional</text>
</a>
</g>
</g>
<!-- Node3&#45;&gt;Node15 -->
<g id="edge14_Node000003_Node000015" class="edge">
<title>Node3&#45;&gt;Node15</title>
<g id="a_edge14_Node000003_Node000015"><a xlink:title=" ">
<path fill="none" stroke="#63b8ff" d="M1085.72,-123.93C1077.91,-122.82 1070.04,-121.81 1062.5,-121 780.12,-90.65 703.25,-139.39 424.5,-85 421.25,-84.37 417.91,-83.54 414.6,-82.6"/>
<polygon fill="#63b8ff" stroke="#63b8ff" points="415.49,-79.21 404.9,-79.54 413.39,-85.88 415.49,-79.21"/>
</a>
</g>
</g>
<!-- Node16 -->
<g id="Node000016" class="node">
<title>Node16</title>
<g id="a_Node000016"><a xlink:title=" ">
<polygon fill="#e0e0e0" stroke="#999999" points="505,-79.5 434,-79.5 434,-60.5 505,-60.5 505,-79.5"/>
<text text-anchor="middle" x="469.5" y="-67.5" font-family="Helvetica,sans-Serif" font-size="10.00">semaphore</text>
</a>
</g>
</g>
<!-- Node3&#45;&gt;Node16 -->
<g id="edge15_Node000003_Node000016" class="edge">
<title>Node3&#45;&gt;Node16</title>
<g id="a_edge15_Node000003_Node000016"><a xlink:title=" ">
<path fill="none" stroke="#63b8ff" d="M1085.71,-124C1077.91,-122.88 1070.03,-121.84 1062.5,-121 819.94,-93.8 754.48,-129.56 514.5,-85 510.82,-84.32 507.03,-83.43 503.27,-82.44"/>
<polygon fill="#63b8ff" stroke="#63b8ff" points="504.1,-79.04 493.52,-79.62 502.16,-85.76 504.1,-79.04"/>
</a>
</g>
</g>
<!-- Node17 -->
<g id="Node000017" class="node">
<title>Node17</title>
<g id="a_Node000017"><a xlink:title=" ">
<polygon fill="#e0e0e0" stroke="#999999" points="583.5,-79.5 523.5,-79.5 523.5,-60.5 583.5,-60.5 583.5,-79.5"/>
<text text-anchor="middle" x="553.5" y="-67.5" font-family="Helvetica,sans-Serif" font-size="10.00">concepts</text>
</a>
</g>
</g>
<!-- Node3&#45;&gt;Node17 -->
<g id="edge16_Node000003_Node000017" class="edge">
<title>Node3&#45;&gt;Node17</title>
<g id="a_edge16_Node000003_Node000017"><a xlink:title=" ">
<path fill="none" stroke="#63b8ff" d="M1085.7,-124.08C1077.9,-122.95 1070.03,-121.89 1062.5,-121 854.43,-96.52 797.37,-128.78 592.5,-85 589.66,-84.39 586.75,-83.63 583.86,-82.78"/>
<polygon fill="#63b8ff" stroke="#63b8ff" points="584.84,-79.41 574.25,-79.61 582.65,-86.06 584.84,-79.41"/>
</a>
</g>
</g>
<!-- Node18 -->
<g id="Node000018" class="node">
<title>Node18</title>
<g id="a_Node000018"><a xlink:title=" ">
<polygon fill="#e0e0e0" stroke="#999999" points="661.5,-79.5 601.5,-79.5 601.5,-60.5 661.5,-60.5 661.5,-79.5"/>
<text text-anchor="middle" x="631.5" y="-67.5" font-family="Helvetica,sans-Serif" font-size="10.00">iostream</text>
</a>
</g>
</g>
<!-- Node3&#45;&gt;Node18 -->
<g id="edge17_Node000003_Node000018" class="edge">
<title>Node3&#45;&gt;Node18</title>
<g id="a_edge17_Node000003_Node000018"><a xlink:title=" ">
<path fill="none" stroke="#63b8ff" d="M1085.69,-124.19C1077.89,-123.04 1070.02,-121.94 1062.5,-121 888.9,-99.24 841.31,-122.86 670.5,-85 667.67,-84.37 664.76,-83.6 661.87,-82.73"/>
<polygon fill="#63b8ff" stroke="#63b8ff" points="662.86,-79.37 652.26,-79.55 660.66,-86.02 662.86,-79.37"/>
</a>
</g>
</g>
<!-- Node19 -->
<g id="Node000019" class="node">
<title>Node19</title>
<g id="a_Node000019"><a xlink:title=" ">
<polygon fill="#e0e0e0" stroke="#999999" points="735.5,-79.5 679.5,-79.5 679.5,-60.5 735.5,-60.5 735.5,-79.5"/>
<text text-anchor="middle" x="707.5" y="-67.5" font-family="Helvetica,sans-Serif" font-size="10.00">sstream</text>
</a>
</g>
</g>
<!-- Node3&#45;&gt;Node19 -->
<g id="edge18_Node000003_Node000019" class="edge">
<title>Node3&#45;&gt;Node19</title>
<g id="a_edge18_Node000003_Node000019"><a xlink:title=" ">
<path fill="none" stroke="#63b8ff" d="M1085.67,-124.35C1077.87,-123.17 1070.01,-122.02 1062.5,-121 921.56,-101.82 882.75,-118.43 744.5,-85 742.05,-84.41 739.54,-83.7 737.03,-82.91"/>
<polygon fill="#63b8ff" stroke="#63b8ff" points="738.16,-79.6 727.57,-79.63 735.87,-86.21 738.16,-79.6"/>
</a>
</g>
</g>
<!-- Node20 -->
<g id="Node000020" class="node">
<title>Node20</title>
<g id="a_Node000020"><a xlink:title=" ">
<polygon fill="#e0e0e0" stroke="#999999" points="809.5,-79.5 753.5,-79.5 753.5,-60.5 809.5,-60.5 809.5,-79.5"/>
<text text-anchor="middle" x="781.5" y="-67.5" font-family="Helvetica,sans-Serif" font-size="10.00">iomanip</text>
</a>
</g>
</g>
<!-- Node3&#45;&gt;Node20 -->
<g id="edge19_Node000003_Node000020" class="edge">
<title>Node3&#45;&gt;Node20</title>
<g id="a_edge19_Node000003_Node000020"><a xlink:title=" ">
<path fill="none" stroke="#63b8ff" d="M1085.63,-124.6C1077.84,-123.37 1069.99,-122.15 1062.5,-121 954.15,-104.39 924.6,-112.56 818.5,-85 816.06,-84.37 813.55,-83.62 811.06,-82.82"/>
<polygon fill="#63b8ff" stroke="#63b8ff" points="812.2,-79.51 801.6,-79.5 809.88,-86.12 812.2,-79.51"/>
</a>
</g>
</g>
<!-- Node21 -->
<g id="Node000021" class="node">
<title>Node21</title>
<g id="a_Node000021"><a xlink:title=" ">
<polygon fill="#e0e0e0" stroke="#999999" points="1997,-79.5 1950,-79.5 1950,-60.5 1997,-60.5 1997,-79.5"/>
<text text-anchor="middle" x="1973.5" y="-67.5" font-family="Helvetica,sans-Serif" font-size="10.00">vector</text>
</a>
</g>
</g>
<!-- Node3&#45;&gt;Node21 -->
<g id="edge20_Node000003_Node000021" class="edge">
<title>Node3&#45;&gt;Node21</title>
<g id="a_edge20_Node000003_Node000021"><a xlink:title=" ">
<path fill="none" stroke="#63b8ff" d="M1215.15,-133.71C1378.26,-130.01 1803.25,-117.46 1940.5,-85 1942.67,-84.49 1944.87,-83.85 1947.06,-83.12"/>
<polygon fill="#63b8ff" stroke="#63b8ff" points="1948.31,-86.39 1956.4,-79.55 1945.81,-79.85 1948.31,-86.39"/>
</a>
</g>
</g>
<!-- Node22 -->
<g id="Node000022" class="node">
<title>Node22</title>
<g id="a_Node000022"><a xlink:title=" ">
<polygon fill="#e0e0e0" stroke="#999999" points="877.5,-79.5 827.5,-79.5 827.5,-60.5 877.5,-60.5 877.5,-79.5"/>
<text text-anchor="middle" x="852.5" y="-67.5" font-family="Helvetica,sans-Serif" font-size="10.00">atomic</text>
</a>
</g>
</g>
<!-- Node3&#45;&gt;Node22 -->
<g id="edge21_Node000003_Node000022" class="edge">
<title>Node3&#45;&gt;Node22</title>
<g id="a_edge21_Node000003_Node000022"><a xlink:title=" ">
<path fill="none" stroke="#63b8ff" d="M1085.72,-124.29C1020.01,-113.14 922.94,-95.83 886.5,-85 884.62,-84.44 882.7,-83.81 880.78,-83.14"/>
<polygon fill="#63b8ff" stroke="#63b8ff" points="881.91,-79.83 871.32,-79.54 879.42,-86.37 881.91,-79.83"/>
</a>
</g>
</g>
<!-- Node23 -->
<g id="Node000023" class="node">
<title>Node23</title>
<g id="a_Node000023"><a xlink:title=" ">
<polygon fill="#e0e0e0" stroke="#999999" points="949.5,-79.5 895.5,-79.5 895.5,-60.5 949.5,-60.5 949.5,-79.5"/>
<text text-anchor="middle" x="922.5" y="-67.5" font-family="Helvetica,sans-Serif" font-size="10.00">random</text>
</a>
</g>
</g>
<!-- Node3&#45;&gt;Node23 -->
<g id="edge22_Node000003_Node000023" class="edge">
<title>Node3&#45;&gt;Node23</title>
<g id="a_edge22_Node000003_Node000023"><a xlink:title=" ">
<path fill="none" stroke="#63b8ff" d="M1089.02,-120.92C1051.08,-111.75 1001.6,-98.94 958.5,-85 956.63,-84.4 954.72,-83.75 952.8,-83.07"/>
<polygon fill="#63b8ff" stroke="#63b8ff" points="953.89,-79.74 943.29,-79.56 951.46,-86.31 953.89,-79.74"/>
</a>
</g>
</g>
<!-- Node24 -->
<g id="Node000024" class="node">
<title>Node24</title>
<g id="a_Node000024"><a xlink:title=" ">
<polygon fill="#e0e0e0" stroke="#999999" points="1011.5,-79.5 967.5,-79.5 967.5,-60.5 1011.5,-60.5 1011.5,-79.5"/>
<text text-anchor="middle" x="989.5" y="-67.5" font-family="Helvetica,sans-Serif" font-size="10.00">string</text>
</a>
</g>
</g>
<!-- Node3&#45;&gt;Node24 -->
<g id="edge23_Node000003_Node000024" class="edge">
<title>Node3&#45;&gt;Node24</title>
<g id="a_edge23_Node000003_Node000024"><a xlink:title=" ">
<path fill="none" stroke="#63b8ff" d="M1112.16,-120.91C1086.15,-111.19 1051.07,-97.77 1020.5,-85 1019.49,-84.58 1018.47,-84.15 1017.43,-83.7"/>
<polygon fill="#63b8ff" stroke="#63b8ff" points="1018.68,-80.43 1008.11,-79.61 1015.86,-86.84 1018.68,-80.43"/>
</a>
</g>
</g>
<!-- Node25 -->
<g id="Node000025" class="node">
<title>Node25</title>
<g id="a_Node000025"><a xlink:title=" ">
<polygon fill="#e0e0e0" stroke="#999999" points="1077.5,-79.5 1029.5,-79.5 1029.5,-60.5 1077.5,-60.5 1077.5,-79.5"/>
<text text-anchor="middle" x="1053.5" y="-67.5" font-family="Helvetica,sans-Serif" font-size="10.00">thread</text>
</a>
</g>
</g>
<!-- Node3&#45;&gt;Node25 -->
<g id="edge24_Node000003_Node000025" class="edge">
<title>Node3&#45;&gt;Node25</title>
<g id="a_edge24_Node000003_Node000025"><a xlink:title=" ">
<path fill="none" stroke="#63b8ff" d="M1128.97,-120.8C1113.02,-110.27 1091.35,-95.97 1075.32,-85.4"/>
<polygon fill="#63b8ff" stroke="#63b8ff" points="1076.9,-82.24 1066.62,-79.66 1073.04,-88.09 1076.9,-82.24"/>
</a>
</g>
</g>
<!-- Node26 -->
<g id="Node000026" class="node">
<title>Node26</title>
<g id="a_Node000026"><a xlink:title=" ">
<polygon fill="#e0e0e0" stroke="#999999" points="1931.5,-79.5 1883.5,-79.5 1883.5,-60.5 1931.5,-60.5 1931.5,-79.5"/>
<text text-anchor="middle" x="1907.5" y="-67.5" font-family="Helvetica,sans-Serif" font-size="10.00">mutex</text>
</a>
</g>
</g>
<!-- Node3&#45;&gt;Node26 -->
<g id="edge25_Node000003_Node000026" class="edge">
<title>Node3&#45;&gt;Node26</title>
<g id="a_edge25_Node000003_Node000026"><a xlink:title=" ">
<path fill="none" stroke="#63b8ff" d="M1215.04,-133.28C1368.22,-128.76 1750.21,-114.77 1874.5,-85 1876.66,-84.48 1878.87,-83.84 1881.06,-83.11"/>
<polygon fill="#63b8ff" stroke="#63b8ff" points="1882.31,-86.37 1890.4,-79.53 1879.81,-79.84 1882.31,-86.37"/>
</a>
</g>
</g>
<!-- Node27 -->
<g id="Node000027" class="node">
<title>Node27</title>
<g id="a_Node000027"><a xlink:title=" ">
<polygon fill="#e0e0e0" stroke="#999999" points="1143,-79.5 1096,-79.5 1096,-60.5 1143,-60.5 1143,-79.5"/>
<text text-anchor="middle" x="1119.5" y="-67.5" font-family="Helvetica,sans-Serif" font-size="10.00">queue</text>
</a>
</g>
</g>
<!-- Node3&#45;&gt;Node27 -->
<g id="edge26_Node000003_Node000027" class="edge">
<title>Node3&#45;&gt;Node27</title>
<g id="a_edge26_Node000003_Node000027"><a xlink:title=" ">
<path fill="none" stroke="#63b8ff" d="M1143.62,-120.8C1139.07,-111.41 1133.07,-99.02 1128.19,-88.95"/>
<polygon fill="#63b8ff" stroke="#63b8ff" points="1131.29,-87.32 1123.78,-79.84 1124.99,-90.37 1131.29,-87.32"/>
</a>
</g>
</g>
<!-- Node28 -->
<g id="Node000028" class="node">
<title>Node28</title>
<g id="a_Node000028"><a xlink:title=" ">
<polygon fill="#e0e0e0" stroke="#999999" points="1203.5,-79.5 1161.5,-79.5 1161.5,-60.5 1203.5,-60.5 1203.5,-79.5"/>
<text text-anchor="middle" x="1182.5" y="-67.5" font-family="Helvetica,sans-Serif" font-size="10.00">array</text>
</a>
</g>
</g>
<!-- Node3&#45;&gt;Node28 -->
<g id="edge27_Node000003_Node000028" class="edge">
<title>Node3&#45;&gt;Node28</title>
<g id="a_edge27_Node000003_Node000028"><a xlink:title=" ">
<path fill="none" stroke="#63b8ff" d="M1157.6,-120.8C1162.3,-111.41 1168.49,-99.02 1173.53,-88.95"/>
<polygon fill="#63b8ff" stroke="#63b8ff" points="1176.74,-90.35 1178.08,-79.84 1170.48,-87.22 1176.74,-90.35"/>
</a>
</g>
</g>
<!-- Node30 -->
<g id="Node000030" class="node">
<title>Node30</title>
<g id="a_Node000030"><a xlink:href="_hash_8hpp.html" target="_top" xlink:title=" ">
<polygon fill="white" stroke="#666666" points="2180,-151 2051,-151 2051,-121 2180,-121 2180,-151"/>
<text text-anchor="start" x="2059" y="-139" font-family="Helvetica,sans-Serif" font-size="10.00">discordcoreapi/Utilities</text>
<text text-anchor="middle" x="2115.5" y="-128" font-family="Helvetica,sans-Serif" font-size="10.00">/Hash.hpp</text>
</a>
</g>
</g>
<!-- Node29&#45;&gt;Node30 -->
<g id="edge29_Node000029_Node000030" class="edge">
<title>Node29&#45;&gt;Node30</title>
<g id="a_edge29_Node000029_Node000030"><a xlink:title=" ">
<path fill="none" stroke="#63b8ff" d="M2068.82,-186.8C2076.58,-178.51 2086.54,-167.89 2095.26,-158.59"/>
<polygon fill="#63b8ff" stroke="#63b8ff" points="2097.94,-160.85 2102.22,-151.16 2092.83,-156.07 2097.94,-160.85"/>
</a>
</g>
</g>
<!-- Node30&#45;&gt;Node21 -->
<g id="edge33_Node000030_Node000021" class="edge">
<title>Node30&#45;&gt;Node21</title>
<g id="a_edge33_Node000030_Node000021"><a xlink:title=" ">
<path fill="none" stroke="#63b8ff" d="M2084.34,-120.95C2059.65,-109.83 2025.47,-94.42 2001.62,-83.67"/>
<polygon fill="#63b8ff" stroke="#63b8ff" points="2002.95,-80.44 1992.4,-79.52 2000.08,-86.82 2002.95,-80.44"/>
</a>
</g>
</g>
<!-- Node31 -->
<g id="Node000031" class="node">
<title>Node31</title>
<g id="a_Node000031"><a xlink:title=" ">
<polygon fill="#e0e0e0" stroke="#999999" points="2266,-79.5 2161,-79.5 2161,-60.5 2266,-60.5 2266,-79.5"/>
<text text-anchor="middle" x="2213.5" y="-67.5" font-family="Helvetica,sans-Serif" font-size="10.00">memory_resource</text>
</a>
</g>
</g>
<!-- Node30&#45;&gt;Node31 -->
<g id="edge30_Node000030_Node000031" class="edge">
<title>Node30&#45;&gt;Node31</title>
<g id="a_edge30_Node000030_Node000031"><a xlink:title=" ">
<path fill="none" stroke="#63b8ff" d="M2137.25,-120.8C2153.37,-110.27 2175.26,-95.97 2191.45,-85.4"/>
<polygon fill="#63b8ff" stroke="#63b8ff" points="2193.78,-88.06 2200.24,-79.66 2189.96,-82.2 2193.78,-88.06"/>
</a>
</g>
</g>
<!-- Node32 -->
<g id="Node000032" class="node">
<title>Node32</title>
<g id="a_Node000032"><a xlink:title=" ">
<polygon fill="#e0e0e0" stroke="#999999" points="2080,-79.5 2015,-79.5 2015,-60.5 2080,-60.5 2080,-79.5"/>
<text text-anchor="middle" x="2047.5" y="-67.5" font-family="Helvetica,sans-Serif" font-size="10.00">exception</text>
</a>
</g>
</g>
<!-- Node30&#45;&gt;Node32 -->
<g id="edge31_Node000030_Node000032" class="edge">
<title>Node30&#45;&gt;Node32</title>
<g id="a_edge31_Node000030_Node000032"><a xlink:title=" ">
<path fill="none" stroke="#63b8ff" d="M2100.41,-120.8C2089.7,-110.72 2075.33,-97.19 2064.27,-86.78"/>
<polygon fill="#63b8ff" stroke="#63b8ff" points="2066.58,-84.15 2056.9,-79.84 2061.78,-89.25 2066.58,-84.15"/>
</a>
</g>
</g>
<!-- Node33 -->
<g id="Node000033" class="node">
<title>Node33</title>
<g id="a_Node000033"><a xlink:title=" ">
<polygon fill="#e0e0e0" stroke="#999999" points="2143,-79.5 2098,-79.5 2098,-60.5 2143,-60.5 2143,-79.5"/>
<text text-anchor="middle" x="2120.5" y="-67.5" font-family="Helvetica,sans-Serif" font-size="10.00">utility</text>
</a>
</g>
</g>
<!-- Node30&#45;&gt;Node33 -->
<g id="edge32_Node000030_Node000033" class="edge">
<title>Node30&#45;&gt;Node33</title>
<g id="a_edge32_Node000030_Node000033"><a xlink:title=" ">
<path fill="none" stroke="#63b8ff" d="M2116.61,-120.8C2117.32,-111.7 2118.25,-99.79 2119.02,-89.9"/>
<polygon fill="#63b8ff" stroke="#63b8ff" points="2122.52,-90.09 2119.81,-79.84 2115.54,-89.54 2122.52,-90.09"/>
</a>
</g>
</g>
<!-- Node34&#45;&gt;Node13 -->
<g id="edge39_Node000034_Node000013" class="edge">
<title>Node34&#45;&gt;Node13</title>
<g id="a_edge39_Node000034_Node000013"><a xlink:title=" ">
<path fill="none" stroke="#63b8ff" d="M1860.4,-186.8C1843.13,-179.12 1825.47,-167.68 1815.5,-151 1804.25,-132.17 1809.47,-106.27 1815.17,-89.1"/>
<polygon fill="#63b8ff" stroke="#63b8ff" points="1818.47,-90.27 1818.63,-79.68 1811.9,-87.85 1818.47,-90.27"/>
</a>
</g>
</g>
<!-- Node34&#45;&gt;Node21 -->
<g id="edge43_Node000034_Node000021" class="edge">
<title>Node34&#45;&gt;Node21</title>
<g id="a_edge43_Node000034_Node000021"><a xlink:title=" ">
<path fill="none" stroke="#63b8ff" d="M1915.58,-186.84C1927.49,-163.02 1951.51,-114.99 1964.56,-88.88"/>
<polygon fill="#63b8ff" stroke="#63b8ff" points="1967.78,-90.26 1969.13,-79.75 1961.52,-87.13 1967.78,-90.26"/>
</a>
</g>
</g>
<!-- Node34&#45;&gt;Node26 -->
<g id="edge44_Node000034_Node000026" class="edge">
<title>Node34&#45;&gt;Node26</title>
<g id="a_edge44_Node000034_Node000026"><a xlink:title=" ">
<path fill="none" stroke="#63b8ff" d="M1908.39,-186.84C1908.21,-163.34 1907.85,-116.26 1907.65,-89.93"/>
<polygon fill="#63b8ff" stroke="#63b8ff" points="1911.14,-89.72 1907.57,-79.75 1904.14,-89.77 1911.14,-89.72"/>
</a>
</g>
</g>
<!-- Node34&#45;&gt;Node30 -->
<g id="edge35_Node000034_Node000030" class="edge">
<title>Node34&#45;&gt;Node30</title>
<g id="a_edge35_Node000034_Node000030"><a xlink:title=" ">
<path fill="none" stroke="#63b8ff" d="M1953.93,-186.95C1985.34,-177.24 2027.3,-164.27 2060.59,-153.98"/>
<polygon fill="#63b8ff" stroke="#63b8ff" points="2061.66,-157.31 2070.18,-151.01 2059.59,-150.62 2061.66,-157.31"/>
</a>
</g>
</g>
<!-- Node34&#45;&gt;Node31 -->
<g id="edge38_Node000034_Node000031" class="edge">
<title>Node34&#45;&gt;Node31</title>
<g id="a_edge38_Node000034_Node000031"><a xlink:title=" ">
<path fill="none" stroke="#63b8ff" d="M1973.06,-188.73C1976.25,-188.14 1979.41,-187.56 1982.5,-187 2074.38,-170.32 2119.65,-212.98 2189.5,-151 2206.93,-135.54 2211.93,-107.98 2213.24,-89.59"/>
<polygon fill="#63b8ff" stroke="#63b8ff" points="2216.74,-89.66 2213.66,-79.52 2209.75,-89.37 2216.74,-89.66"/>
</a>
</g>
</g>
<!-- Node34&#45;&gt;Node32 -->
<g id="edge40_Node000034_Node000032" class="edge">
<title>Node34&#45;&gt;Node32</title>
<g id="a_edge40_Node000034_Node000032"><a xlink:title=" ">
<path fill="none" stroke="#63b8ff" d="M1923.64,-186.84C1949.78,-162.39 2003.21,-112.42 2030.56,-86.85"/>
<polygon fill="#63b8ff" stroke="#63b8ff" points="2033.23,-89.14 2038.15,-79.75 2028.45,-84.02 2033.23,-89.14"/>
</a>
</g>
</g>
<!-- Node34&#45;&gt;Node33 -->
<g id="edge42_Node000034_Node000033" class="edge">
<title>Node34&#45;&gt;Node33</title>
<g id="a_edge42_Node000034_Node000033"><a xlink:title=" ">
<path fill="none" stroke="#63b8ff" d="M1932.16,-186.86C1948.79,-176.89 1971.55,-163.2 1991.5,-151 2028.95,-128.11 2072.27,-101.14 2097.97,-85.09"/>
<polygon fill="#63b8ff" stroke="#63b8ff" points="2099.98,-87.97 2106.6,-79.7 2096.27,-82.03 2099.98,-87.97"/>
</a>
</g>
</g>
<!-- Node35 -->
<g id="Node000035" class="node">
<title>Node35</title>
<g id="a_Node000035"><a xlink:href="_unique_ptr_8hpp.html" target="_top" xlink:title=" ">
<polygon fill="white" stroke="#666666" points="129,-85 0,-85 0,-55 129,-55 129,-85"/>
<text text-anchor="start" x="8" y="-73" font-family="Helvetica,sans-Serif" font-size="10.00">discordcoreapi/Utilities</text>
<text text-anchor="middle" x="64.5" y="-62" font-family="Helvetica,sans-Serif" font-size="10.00">/UniquePtr.hpp</text>
</a>
</g>
</g>
<!-- Node34&#45;&gt;Node35 -->
<g id="edge36_Node000034_Node000035" class="edge">
<title>Node34&#45;&gt;Node35</title>
<g id="a_edge36_Node000034_Node000035"><a xlink:title=" ">
<path fill="none" stroke="#63b8ff" d="M1843.93,-199.86C1675.01,-196.42 1223.06,-184.32 1077.5,-151 1043.31,-143.17 1038.76,-128.51 1004.5,-121 819.26,-80.41 345.14,-106.33 139.48,-85.06"/>
<polygon fill="#63b8ff" stroke="#63b8ff" points="139.62,-81.56 129.3,-83.94 138.86,-88.51 139.62,-81.56"/>
</a>
</g>
</g>
<!-- Node36 -->
<g id="Node000036" class="node">
<title>Node36</title>
<g id="a_Node000036"><a xlink:title=" ">
<polygon fill="#e0e0e0" stroke="#999999" points="1880.5,-145.5 1824.5,-145.5 1824.5,-126.5 1880.5,-126.5 1880.5,-145.5"/>
<text text-anchor="middle" x="1852.5" y="-133.5" font-family="Helvetica,sans-Serif" font-size="10.00">optional</text>
</a>
</g>
</g>
<!-- Node34&#45;&gt;Node36 -->
<g id="edge41_Node000034_Node000036" class="edge">
<title>Node34&#45;&gt;Node36</title>
<g id="a_edge41_Node000034_Node000036"><a xlink:title=" ">
<path fill="none" stroke="#63b8ff" d="M1896.07,-186.8C1887.43,-176.92 1875.88,-163.72 1866.84,-153.39"/>
<polygon fill="#63b8ff" stroke="#63b8ff" points="1869.46,-151.07 1860.24,-145.84 1864.19,-155.67 1869.46,-151.07"/>
</a>
</g>
</g>
<!-- Node35&#45;&gt;Node11 -->
<g id="edge37_Node000035_Node000011" class="edge">
<title>Node35&#45;&gt;Node11</title>
<g id="a_edge37_Node000035_Node000011"><a xlink:title=" ">
<path fill="none" stroke="#63b8ff" d="M129.31,-56.11C132.07,-55.71 134.81,-55.33 137.5,-55 397.87,-22.65 710.77,-13.75 843.24,-11.36"/>
<polygon fill="#63b8ff" stroke="#63b8ff" points="843.66,-14.85 853.6,-11.18 843.54,-7.85 843.66,-14.85"/>
</a>
</g>
</g>
<!-- Node37&#45;&gt;Node3 -->
<g id="edge46_Node000037_Node000003" class="edge">
<title>Node37&#45;&gt;Node3</title>
<g id="a_edge46_Node000037_Node000003"><a xlink:title=" ">
<path fill="none" stroke="#63b8ff" d="M1034.2,-186.95C1056.03,-177.58 1084.95,-165.16 1108.49,-155.05"/>
<polygon fill="#63b8ff" stroke="#63b8ff" points="1110.07,-158.17 1117.88,-151.01 1107.31,-151.74 1110.07,-158.17"/>
</a>
</g>
</g>
<!-- Node37&#45;&gt;Node35 -->
<g id="edge49_Node000037_Node000035" class="edge">
<title>Node37&#45;&gt;Node35</title>
<g id="a_edge49_Node000037_Node000035"><a xlink:title=" ">
<path fill="none" stroke="#63b8ff" d="M1002.78,-186.82C1003.57,-168.45 1001.77,-136.9 982.5,-121 947.75,-92.31 245.47,-90.54 139.52,-84.71"/>
<polygon fill="#63b8ff" stroke="#63b8ff" points="139.54,-81.2 129.3,-83.94 139.01,-88.18 139.54,-81.2"/>
</a>
</g>
</g>
<!-- Node37&#45;&gt;Node38 -->
<g id="edge47_Node000037_Node000038" class="edge">
<title>Node37&#45;&gt;Node38</title>
<g id="a_edge47_Node000037_Node000038"><a xlink:title=" ">
<path fill="none" stroke="#63b8ff" d="M980.86,-186.8C968.1,-178.01 951.52,-166.61 937.46,-156.93"/>
<polygon fill="#63b8ff" stroke="#63b8ff" points="939.3,-153.95 929.08,-151.16 935.34,-159.72 939.3,-153.95"/>
</a>
</g>
</g>
<!-- Node38&#45;&gt;Node35 -->
<g id="edge48_Node000038_Node000035" class="edge">
<title>Node38&#45;&gt;Node35</title>
<g id="a_edge48_Node000038_Node000035"><a xlink:title=" ">
<path fill="none" stroke="#63b8ff" d="M843.76,-133.53C712.58,-129.95 405.87,-118.58 139.56,-85.16"/>
<polygon fill="#63b8ff" stroke="#63b8ff" points="139.67,-81.65 129.31,-83.86 138.79,-88.59 139.67,-81.65"/>
</a>
</g>
</g>
<!-- Node39&#45;&gt;Node3 -->
<g id="edge51_Node000039_Node000003" class="edge">
<title>Node39&#45;&gt;Node3</title>
<g id="a_edge51_Node000039_Node000003"><a xlink:title=" ">
<path fill="none" stroke="#63b8ff" d="M1163.73,-186.8C1161.7,-179.17 1159.15,-169.57 1156.83,-160.84"/>
<polygon fill="#63b8ff" stroke="#63b8ff" points="1160.21,-159.93 1154.26,-151.16 1153.45,-161.73 1160.21,-159.93"/>
</a>
</g>
</g>
</g>
</svg>
