<?xml version="1.0" encoding="UTF-8" standalone="no"?>
<!DOCTYPE svg PUBLIC "-//W3C//DTD SVG 1.1//EN"
 "http://www.w3.org/Graphics/SVG/1.1/DTD/svg11.dtd">
<!-- Generated by graphviz version 5.0.0 (20220707.1540)
 -->
<!-- Title: DiscordCoreClient.hpp Pages: 1 -->
<svg width="3468pt" height="192pt"
 viewBox="0.00 0.00 3468.00 192.00" xmlns="http://www.w3.org/2000/svg" xmlns:xlink="http://www.w3.org/1999/xlink">
<g id="graph0" class="graph" transform="scale(1 1) rotate(0) translate(4 188)">
<title>DiscordCoreClient.hpp</title>
<!-- Node1 -->
<g id="node1" class="node">
<title>Node1</title>
<g id="a_node1"><a xlink:title=" ">
<polygon fill="#999999" stroke="#666666" points="1921,-184 1808,-184 1808,-165 1921,-165 1921,-184"/>
<text text-anchor="middle" x="1864.5" y="-172" font-family="Helvetica,sans-Serif" font-size="10.00">DiscordCoreClient.hpp</text>
</a>
</g>
</g>
<!-- Node2 -->
<g id="node2" class="node">
<title>Node2</title>
<g id="a_node2"><a xlink:href="_application_command_entities_8cpp.html" target="_top" xlink:title=" ">
<polygon fill="white" stroke="#666666" points="161,-129 0,-129 0,-110 161,-110 161,-129"/>
<text text-anchor="middle" x="80.5" y="-117" font-family="Helvetica,sans-Serif" font-size="10.00">ApplicationCommandEntities.cpp</text>
</a>
</g>
</g>
<!-- Node1&#45;&gt;Node2 -->
<g id="edge1" class="edge">
<title>Node1&#45;&gt;Node2</title>
<path fill="none" stroke="#63b8ff" d="M1797.66,-173.37C1569.83,-172.6 802.81,-167.12 170.5,-129 167.52,-128.82 164.49,-128.62 161.43,-128.41"/>
<polygon fill="#63b8ff" stroke="#63b8ff" points="1797.76,-176.87 1807.78,-173.41 1797.79,-169.87 1797.76,-176.87"/>
</g>
<!-- Node3 -->
<g id="node3" class="node">
<title>Node3</title>
<g id="a_node3"><a xlink:href="_auto_moderation_entities_8cpp.html" target="_top" xlink:title=" ">
<polygon fill="white" stroke="#666666" points="316,-129 179,-129 179,-110 316,-110 316,-129"/>
<text text-anchor="middle" x="247.5" y="-117" font-family="Helvetica,sans-Serif" font-size="10.00">AutoModerationEntities.cpp</text>
</a>
</g>
</g>
<!-- Node1&#45;&gt;Node3 -->
<g id="edge2" class="edge">
<title>Node1&#45;&gt;Node3</title>
<path fill="none" stroke="#63b8ff" d="M1797.68,-173.47C1583.39,-172.95 894.19,-168.15 325.5,-129 322.51,-128.79 319.46,-128.56 316.38,-128.31"/>
<polygon fill="#63b8ff" stroke="#63b8ff" points="1797.82,-176.97 1807.82,-173.49 1797.83,-169.97 1797.82,-176.97"/>
</g>
<!-- Node4 -->
<g id="node4" class="node">
<title>Node4</title>
<g id="a_node4"><a xlink:href="_channel_entities_8cpp.html" target="_top" xlink:title=" ">
<polygon fill="white" stroke="#666666" points="438.5,-129 334.5,-129 334.5,-110 438.5,-110 438.5,-129"/>
<text text-anchor="middle" x="386.5" y="-117" font-family="Helvetica,sans-Serif" font-size="10.00">ChannelEntities.cpp</text>
</a>
</g>
</g>
<!-- Node1&#45;&gt;Node4 -->
<g id="edge3" class="edge">
<title>Node1&#45;&gt;Node4</title>
<path fill="none" stroke="#63b8ff" d="M1797.5,-173.88C1594.18,-174.51 966.44,-172.52 448.5,-129 445.25,-128.73 441.91,-128.4 438.55,-128.04"/>
<polygon fill="#63b8ff" stroke="#63b8ff" points="1797.73,-177.38 1807.72,-173.85 1797.71,-170.38 1797.73,-177.38"/>
</g>
<!-- Node5 -->
<g id="node5" class="node">
<title>Node5</title>
<g id="a_node5"><a xlink:href="_command_controller_8cpp.html" target="_top" xlink:title=" ">
<polygon fill="white" stroke="#666666" points="578,-129 457,-129 457,-110 578,-110 578,-129"/>
<text text-anchor="middle" x="517.5" y="-117" font-family="Helvetica,sans-Serif" font-size="10.00">CommandController.cpp</text>
</a>
</g>
</g>
<!-- Node1&#45;&gt;Node5 -->
<g id="edge4" class="edge">
<title>Node1&#45;&gt;Node5</title>
<path fill="none" stroke="#63b8ff" d="M1797.66,-173.19C1607.87,-171.89 1049.53,-165.03 587.5,-129 584.45,-128.76 581.33,-128.49 578.17,-128.19"/>
<polygon fill="#63b8ff" stroke="#63b8ff" points="1797.74,-176.7 1807.76,-173.26 1797.78,-169.7 1797.74,-176.7"/>
</g>
<!-- Node6 -->
<g id="node6" class="node">
<title>Node6</title>
<g id="a_node6"><a xlink:href="_discord_core_client_8cpp.html" target="_top" xlink:title=" ">
<polygon fill="white" stroke="#666666" points="709,-129 596,-129 596,-110 709,-110 709,-129"/>
<text text-anchor="middle" x="652.5" y="-117" font-family="Helvetica,sans-Serif" font-size="10.00">DiscordCoreClient.cpp</text>
</a>
</g>
</g>
<!-- Node1&#45;&gt;Node6 -->
<g id="edge5" class="edge">
<title>Node1&#45;&gt;Node6</title>
<path fill="none" stroke="#63b8ff" d="M1797.57,-172.99C1620.91,-171.18 1127.52,-163.21 718.5,-129 715.51,-128.75 712.44,-128.46 709.35,-128.15"/>
<polygon fill="#63b8ff" stroke="#63b8ff" points="1797.72,-176.49 1807.75,-173.09 1797.79,-169.49 1797.72,-176.49"/>
</g>
<!-- Node7 -->
<g id="node7" class="node">
<title>Node7</title>
<g id="a_node7"><a xlink:href="_event_manager_8cpp.html" target="_top" xlink:title=" ">
<polygon fill="white" stroke="#666666" points="824,-129 727,-129 727,-110 824,-110 824,-129"/>
<text text-anchor="middle" x="775.5" y="-117" font-family="Helvetica,sans-Serif" font-size="10.00">EventManager.cpp</text>
</a>
</g>
</g>
<!-- Node1&#45;&gt;Node7 -->
<g id="edge6" class="edge">
<title>Node1&#45;&gt;Node7</title>
<path fill="none" stroke="#63b8ff" d="M1797.48,-172.98C1632.95,-171.19 1196.09,-163.3 833.5,-129 830.46,-128.71 827.34,-128.38 824.19,-128"/>
<polygon fill="#63b8ff" stroke="#63b8ff" points="1797.89,-176.48 1807.92,-173.09 1797.96,-169.48 1797.89,-176.48"/>
</g>
<!-- Node8 -->
<g id="node8" class="node">
<title>Node8</title>
<g id="a_node8"><a xlink:href="_foundation_entities_8cpp.html" target="_top" xlink:title=" ">
<polygon fill="white" stroke="#666666" points="958.5,-129 842.5,-129 842.5,-110 958.5,-110 958.5,-129"/>
<text text-anchor="middle" x="900.5" y="-117" font-family="Helvetica,sans-Serif" font-size="10.00">FoundationEntities.cpp</text>
</a>
</g>
</g>
<!-- Node1&#45;&gt;Node8 -->
<g id="edge7" class="edge">
<title>Node1&#45;&gt;Node8</title>
<path fill="none" stroke="#63b8ff" d="M1797.44,-171.88C1648.23,-167.91 1277.6,-155.96 968.5,-129 965.3,-128.72 962.02,-128.41 958.71,-128.07"/>
<polygon fill="#63b8ff" stroke="#63b8ff" points="1797.7,-175.39 1807.79,-172.15 1797.89,-168.39 1797.7,-175.39"/>
</g>
<!-- Node9 -->
<g id="node9" class="node">
<title>Node9</title>
<g id="a_node9"><a xlink:href="_guild_entities_8cpp.html" target="_top" xlink:title=" ">
<polygon fill="white" stroke="#666666" points="1068,-129 977,-129 977,-110 1068,-110 1068,-129"/>
<text text-anchor="middle" x="1022.5" y="-117" font-family="Helvetica,sans-Serif" font-size="10.00">GuildEntities.cpp</text>
</a>
</g>
</g>
<!-- Node1&#45;&gt;Node9 -->
<g id="edge8" class="edge">
<title>Node1&#45;&gt;Node9</title>
<path fill="none" stroke="#63b8ff" d="M1797.29,-171.89C1661.14,-168.16 1343.12,-156.97 1077.5,-129 1074.43,-128.68 1071.26,-128.3 1068.07,-127.89"/>
<polygon fill="#63b8ff" stroke="#63b8ff" points="1797.47,-175.4 1807.56,-172.17 1797.66,-168.4 1797.47,-175.4"/>
</g>
<!-- Node10 -->
<g id="node10" class="node">
<title>Node10</title>
<g id="a_node10"><a xlink:href="_guild_member_entities_8cpp.html" target="_top" xlink:title=" ">
<polygon fill="white" stroke="#666666" points="1212.5,-129 1086.5,-129 1086.5,-110 1212.5,-110 1212.5,-129"/>
<text text-anchor="middle" x="1149.5" y="-117" font-family="Helvetica,sans-Serif" font-size="10.00">GuildMemberEntities.cpp</text>
</a>
</g>
</g>
<!-- Node1&#45;&gt;Node10 -->
<g id="edge9" class="edge">
<title>Node1&#45;&gt;Node10</title>
<path fill="none" stroke="#63b8ff" d="M1797.53,-169.89C1680.68,-163.36 1432,-148.45 1222.5,-129 1219.32,-128.71 1216.07,-128.39 1212.79,-128.05"/>
<polygon fill="#63b8ff" stroke="#63b8ff" points="1797.57,-173.4 1807.75,-170.46 1797.96,-166.41 1797.57,-173.4"/>
</g>
<!-- Node11 -->
<g id="node11" class="node">
<title>Node11</title>
<g id="a_node11"><a xlink:href="_guild_scheduled_event_entities_8cpp.html" target="_top" xlink:title=" ">
<polygon fill="white" stroke="#666666" points="1392,-129 1231,-129 1231,-110 1392,-110 1392,-129"/>
<text text-anchor="middle" x="1311.5" y="-117" font-family="Helvetica,sans-Serif" font-size="10.00">GuildScheduledEventEntities.cpp</text>
</a>
</g>
</g>
<!-- Node1&#45;&gt;Node11 -->
<g id="edge10" class="edge">
<title>Node1&#45;&gt;Node11</title>
<path fill="none" stroke="#63b8ff" d="M1797.76,-167.1C1695.96,-157.35 1502.17,-138.77 1392.47,-128.26"/>
<polygon fill="#63b8ff" stroke="#63b8ff" points="1797.63,-170.61 1807.92,-168.08 1798.3,-163.64 1797.63,-170.61"/>
</g>
<!-- Node12 -->
<g id="node12" class="node">
<title>Node12</title>
<g id="a_node12"><a xlink:href="_https_client_8cpp.html" target="_top" xlink:title=" ">
<polygon fill="white" stroke="#666666" points="1493,-129 1410,-129 1410,-110 1493,-110 1493,-129"/>
<text text-anchor="middle" x="1451.5" y="-117" font-family="Helvetica,sans-Serif" font-size="10.00">HttpsClient.cpp</text>
</a>
</g>
</g>
<!-- Node1&#45;&gt;Node12 -->
<g id="edge11" class="edge">
<title>Node1&#45;&gt;Node12</title>
<path fill="none" stroke="#63b8ff" d="M1798.03,-166.19C1725.33,-158 1605.45,-143.9 1502.5,-129 1499.48,-128.56 1496.36,-128.09 1493.23,-127.6"/>
<polygon fill="#63b8ff" stroke="#63b8ff" points="1797.64,-169.67 1807.97,-167.31 1798.42,-162.72 1797.64,-169.67"/>
</g>
<!-- Node13 -->
<g id="node13" class="node">
<title>Node13</title>
<g id="a_node13"><a xlink:href="_input_events_8cpp.html" target="_top" xlink:title=" ">
<polygon fill="white" stroke="#666666" points="1597.5,-129 1511.5,-129 1511.5,-110 1597.5,-110 1597.5,-129"/>
<text text-anchor="middle" x="1554.5" y="-117" font-family="Helvetica,sans-Serif" font-size="10.00">InputEvents.cpp</text>
</a>
</g>
</g>
<!-- Node1&#45;&gt;Node13 -->
<g id="edge12" class="edge">
<title>Node1&#45;&gt;Node13</title>
<path fill="none" stroke="#63b8ff" d="M1804.49,-163.24C1743.81,-152.87 1651.51,-137.09 1597.68,-127.88"/>
<polygon fill="#63b8ff" stroke="#63b8ff" points="1804.25,-166.75 1814.69,-164.98 1805.43,-159.85 1804.25,-166.75"/>
</g>
<!-- Node14 -->
<g id="node14" class="node">
<title>Node14</title>
<g id="a_node14"><a xlink:href="_interaction_entities_8cpp.html" target="_top" xlink:title=" ">
<polygon fill="white" stroke="#666666" points="1729,-129 1616,-129 1616,-110 1729,-110 1729,-129"/>
<text text-anchor="middle" x="1672.5" y="-117" font-family="Helvetica,sans-Serif" font-size="10.00">InteractionEntities.cpp</text>
</a>
</g>
</g>
<!-- Node1&#45;&gt;Node14 -->
<g id="edge13" class="edge">
<title>Node1&#45;&gt;Node14</title>
<path fill="none" stroke="#63b8ff" d="M1823.97,-162.31C1788.04,-152.39 1736.34,-138.12 1703.59,-129.08"/>
<polygon fill="#63b8ff" stroke="#63b8ff" points="1823.08,-165.7 1833.65,-164.98 1824.94,-158.95 1823.08,-165.7"/>
</g>
<!-- Node15 -->
<g id="node15" class="node">
<title>Node15</title>
<g id="a_node15"><a xlink:href="_message_entities_8cpp.html" target="_top" xlink:title=" ">
<polygon fill="white" stroke="#666666" points="1855.5,-129 1747.5,-129 1747.5,-110 1855.5,-110 1855.5,-129"/>
<text text-anchor="middle" x="1801.5" y="-117" font-family="Helvetica,sans-Serif" font-size="10.00">MessageEntities.cpp</text>
</a>
</g>
</g>
<!-- Node1&#45;&gt;Node15 -->
<g id="edge14" class="edge">
<title>Node1&#45;&gt;Node15</title>
<path fill="none" stroke="#63b8ff" d="M1846.46,-158.32C1835.23,-148.87 1821.18,-137.06 1811.81,-129.17"/>
<polygon fill="#63b8ff" stroke="#63b8ff" points="1844.47,-161.23 1854.38,-164.98 1848.98,-155.87 1844.47,-161.23"/>
</g>
<!-- Node16 -->
<g id="node16" class="node">
<title>Node16</title>
<g id="a_node16"><a xlink:href="_reaction_entities_8cpp.html" target="_top" xlink:title=" ">
<polygon fill="white" stroke="#666666" points="1981,-129 1874,-129 1874,-110 1981,-110 1981,-129"/>
<text text-anchor="middle" x="1927.5" y="-117" font-family="Helvetica,sans-Serif" font-size="10.00">ReactionEntities.cpp</text>
</a>
</g>
</g>
<!-- Node1&#45;&gt;Node16 -->
<g id="edge15" class="edge">
<title>Node1&#45;&gt;Node16</title>
<path fill="none" stroke="#63b8ff" d="M1882.54,-158.32C1893.77,-148.87 1907.82,-137.06 1917.19,-129.17"/>
<polygon fill="#63b8ff" stroke="#63b8ff" points="1880.02,-155.87 1874.62,-164.98 1884.53,-161.23 1880.02,-155.87"/>
</g>
<!-- Node17 -->
<g id="node17" class="node">
<title>Node17</title>
<g id="a_node17"><a xlink:href="_role_entities_8cpp.html" target="_top" xlink:title=" ">
<polygon fill="white" stroke="#666666" points="2087.5,-129 1999.5,-129 1999.5,-110 2087.5,-110 2087.5,-129"/>
<text text-anchor="middle" x="2043.5" y="-117" font-family="Helvetica,sans-Serif" font-size="10.00">RoleEntities.cpp</text>
</a>
</g>
</g>
<!-- Node1&#45;&gt;Node17 -->
<g id="edge16" class="edge">
<title>Node1&#45;&gt;Node17</title>
<path fill="none" stroke="#63b8ff" d="M1903.15,-162.06C1936.61,-152.15 1984.25,-138.04 2014.52,-129.08"/>
<polygon fill="#63b8ff" stroke="#63b8ff" points="1901.85,-158.79 1893.26,-164.98 1903.84,-165.5 1901.85,-158.79"/>
</g>
<!-- Node18 -->
<g id="node18" class="node">
<title>Node18</title>
<g id="a_node18"><a xlink:href="_song_a_p_i_8cpp.html" target="_top" xlink:title=" ">
<polygon fill="white" stroke="#666666" points="2179.5,-129 2105.5,-129 2105.5,-110 2179.5,-110 2179.5,-129"/>
<text text-anchor="middle" x="2142.5" y="-117" font-family="Helvetica,sans-Serif" font-size="10.00">SongAPI.cpp</text>
</a>
</g>
</g>
<!-- Node1&#45;&gt;Node18 -->
<g id="edge17" class="edge">
<title>Node1&#45;&gt;Node18</title>
<path fill="none" stroke="#63b8ff" d="M1919.08,-163.1C1974,-152.62 2057.22,-136.76 2105.08,-127.63"/>
<polygon fill="#63b8ff" stroke="#63b8ff" points="1918.33,-159.67 1909.17,-164.98 1919.64,-166.55 1918.33,-159.67"/>
</g>
<!-- Node19 -->
<g id="node19" class="node">
<title>Node19</title>
<g id="a_node19"><a xlink:href="_sound_cloud_a_p_i_8cpp.html" target="_top" xlink:title=" ">
<polygon fill="white" stroke="#666666" points="2301.5,-129 2197.5,-129 2197.5,-110 2301.5,-110 2301.5,-129"/>
<text text-anchor="middle" x="2249.5" y="-117" font-family="Helvetica,sans-Serif" font-size="10.00">SoundCloudAPI.cpp</text>
</a>
</g>
</g>
<!-- Node1&#45;&gt;Node19 -->
<g id="edge18" class="edge">
<title>Node1&#45;&gt;Node19</title>
<path fill="none" stroke="#63b8ff" d="M1931.47,-164.34C1996.99,-155.37 2099.61,-141.3 2188.5,-129 2191.36,-128.6 2194.29,-128.2 2197.26,-127.79"/>
<polygon fill="#63b8ff" stroke="#63b8ff" points="1930.71,-160.91 1921.28,-165.74 1931.66,-167.85 1930.71,-160.91"/>
</g>
<!-- Node20 -->
<g id="node20" class="node">
<title>Node20</title>
<g id="a_node20"><a xlink:href="_stage_instance_entities_8cpp.html" target="_top" xlink:title=" ">
<polygon fill="white" stroke="#666666" points="2451,-129 2320,-129 2320,-110 2451,-110 2451,-129"/>
<text text-anchor="middle" x="2385.5" y="-117" font-family="Helvetica,sans-Serif" font-size="10.00">StageInstanceEntities.cpp</text>
</a>
</g>
</g>
<!-- Node1&#45;&gt;Node20 -->
<g id="edge19" class="edge">
<title>Node1&#45;&gt;Node20</title>
<path fill="none" stroke="#63b8ff" d="M1931.22,-167.12C2018.45,-158.72 2175.97,-143.33 2310.5,-129 2313.5,-128.68 2316.56,-128.35 2319.66,-128.01"/>
<polygon fill="#63b8ff" stroke="#63b8ff" points="1930.82,-163.65 1921.2,-168.09 1931.49,-170.61 1930.82,-163.65"/>
</g>
<!-- Node21 -->
<g id="node21" class="node">
<title>Node21</title>
<g id="a_node21"><a xlink:href="_sticker_entities_8cpp.html" target="_top" xlink:title=" ">
<polygon fill="white" stroke="#666666" points="2568,-129 2469,-129 2469,-110 2568,-110 2568,-129"/>
<text text-anchor="middle" x="2518.5" y="-117" font-family="Helvetica,sans-Serif" font-size="10.00">StickerEntities.cpp</text>
</a>
</g>
</g>
<!-- Node1&#45;&gt;Node21 -->
<g id="edge20" class="edge">
<title>Node1&#45;&gt;Node21</title>
<path fill="none" stroke="#63b8ff" d="M1931.32,-170.06C2041.7,-164.04 2268.98,-150.16 2460.5,-129 2463.23,-128.7 2466.03,-128.37 2468.86,-128.01"/>
<polygon fill="#63b8ff" stroke="#63b8ff" points="1931.12,-166.57 1921.33,-170.6 1931.5,-173.56 1931.12,-166.57"/>
</g>
<!-- Node22 -->
<g id="node22" class="node">
<title>Node22</title>
<g id="a_node22"><a xlink:href="_thread_entities_8cpp.html" target="_top" xlink:title=" ">
<polygon fill="white" stroke="#666666" points="2684.5,-129 2586.5,-129 2586.5,-110 2684.5,-110 2684.5,-129"/>
<text text-anchor="middle" x="2635.5" y="-117" font-family="Helvetica,sans-Serif" font-size="10.00">ThreadEntities.cpp</text>
</a>
</g>
</g>
<!-- Node1&#45;&gt;Node22 -->
<g id="edge21" class="edge">
<title>Node1&#45;&gt;Node22</title>
<path fill="none" stroke="#63b8ff" d="M1931.3,-171.19C2057.72,-166.4 2340.53,-153.72 2577.5,-129 2580.44,-128.69 2583.45,-128.35 2586.49,-127.98"/>
<polygon fill="#63b8ff" stroke="#63b8ff" points="1930.88,-167.7 1921.01,-171.57 1931.14,-174.69 1930.88,-167.7"/>
</g>
<!-- Node23 -->
<g id="node23" class="node">
<title>Node23</title>
<g id="a_node23"><a xlink:href="_to_entity_8hpp.html" target="_top" xlink:title=" ">
<polygon fill="white" stroke="#666666" points="2774,-129 2703,-129 2703,-110 2774,-110 2774,-129"/>
<text text-anchor="middle" x="2738.5" y="-117" font-family="Helvetica,sans-Serif" font-size="10.00">ToEntity.hpp</text>
</a>
</g>
</g>
<!-- Node1&#45;&gt;Node23 -->
<g id="edge22" class="edge">
<title>Node1&#45;&gt;Node23</title>
<path fill="none" stroke="#63b8ff" d="M1931.24,-172.92C2072.42,-171.05 2411.51,-163.05 2693.5,-129 2696.5,-128.64 2699.6,-128.2 2702.71,-127.71"/>
<polygon fill="#63b8ff" stroke="#63b8ff" points="1930.97,-169.43 1921.01,-173.05 1931.06,-176.43 1930.97,-169.43"/>
</g>
<!-- Node26 -->
<g id="node26" class="node">
<title>Node26</title>
<g id="a_node26"><a xlink:href="_user_entities_8cpp.html" target="_top" xlink:title=" ">
<polygon fill="white" stroke="#666666" points="2881,-129 2792,-129 2792,-110 2881,-110 2881,-129"/>
<text text-anchor="middle" x="2836.5" y="-117" font-family="Helvetica,sans-Serif" font-size="10.00">UserEntities.cpp</text>
</a>
</g>
</g>
<!-- Node1&#45;&gt;Node26 -->
<g id="edge25" class="edge">
<title>Node1&#45;&gt;Node26</title>
<path fill="none" stroke="#63b8ff" d="M1931.23,-172.8C2082.99,-170.64 2465.51,-162.1 2783.5,-129 2786.19,-128.72 2788.95,-128.39 2791.73,-128.04"/>
<polygon fill="#63b8ff" stroke="#63b8ff" points="1931.09,-169.3 1921.14,-172.93 1931.18,-176.3 1931.09,-169.3"/>
</g>
<!-- Node27 -->
<g id="node27" class="node">
<title>Node27</title>
<g id="a_node27"><a xlink:href="_utilities_8cpp.html" target="_top" xlink:title=" ">
<polygon fill="white" stroke="#666666" points="2967.5,-129 2899.5,-129 2899.5,-110 2967.5,-110 2967.5,-129"/>
<text text-anchor="middle" x="2933.5" y="-117" font-family="Helvetica,sans-Serif" font-size="10.00">Utilities.cpp</text>
</a>
</g>
</g>
<!-- Node1&#45;&gt;Node27 -->
<g id="edge26" class="edge">
<title>Node1&#45;&gt;Node27</title>
<path fill="none" stroke="#63b8ff" d="M1931.61,-174.1C2095.85,-174.82 2530.85,-172.09 2890.5,-129 2893.37,-128.66 2896.34,-128.23 2899.31,-127.75"/>
<polygon fill="#63b8ff" stroke="#63b8ff" points="1931.21,-170.6 1921.19,-174.05 1931.17,-177.6 1931.21,-170.6"/>
</g>
<!-- Node28 -->
<g id="node28" class="node">
<title>Node28</title>
<g id="a_node28"><a xlink:href="_voice_connection_8cpp.html" target="_top" xlink:title=" ">
<polygon fill="white" stroke="#666666" points="3095,-129 2986,-129 2986,-110 3095,-110 3095,-129"/>
<text text-anchor="middle" x="3040.5" y="-117" font-family="Helvetica,sans-Serif" font-size="10.00">VoiceConnection.cpp</text>
</a>
</g>
</g>
<!-- Node1&#45;&gt;Node28 -->
<g id="edge27" class="edge">
<title>Node1&#45;&gt;Node28</title>
<path fill="none" stroke="#63b8ff" d="M1931.24,-172.97C2104.21,-171.13 2581.06,-163.1 2976.5,-129 2979.52,-128.74 2982.61,-128.44 2985.72,-128.11"/>
<polygon fill="#63b8ff" stroke="#63b8ff" points="1930.99,-169.47 1921.03,-173.07 1931.06,-176.47 1930.99,-169.47"/>
</g>
<!-- Node29 -->
<g id="node29" class="node">
<title>Node29</title>
<g id="a_node29"><a xlink:href="_web_hook_entities_8cpp.html" target="_top" xlink:title=" ">
<polygon fill="white" stroke="#666666" points="3224,-129 3113,-129 3113,-110 3224,-110 3224,-129"/>
<text text-anchor="middle" x="3168.5" y="-117" font-family="Helvetica,sans-Serif" font-size="10.00">WebHookEntities.cpp</text>
</a>
</g>
</g>
<!-- Node1&#45;&gt;Node29 -->
<g id="edge28" class="edge">
<title>Node1&#45;&gt;Node29</title>
<path fill="none" stroke="#63b8ff" d="M1931.33,-173.36C2117.49,-172.48 2657.61,-166.61 3104.5,-129 3107.18,-128.77 3109.92,-128.52 3112.69,-128.23"/>
<polygon fill="#63b8ff" stroke="#63b8ff" points="1931.14,-169.86 1921.16,-173.4 1931.17,-176.86 1931.14,-169.86"/>
</g>
<!-- Node30 -->
<g id="node30" class="node">
<title>Node30</title>
<g id="a_node30"><a xlink:href="_web_socket_client_8cpp.html" target="_top" xlink:title=" ">
<polygon fill="white" stroke="#666666" points="3353,-129 3242,-129 3242,-110 3353,-110 3353,-129"/>
<text text-anchor="middle" x="3297.5" y="-117" font-family="Helvetica,sans-Serif" font-size="10.00">WebSocketClient.cpp</text>
</a>
</g>
</g>
<!-- Node1&#45;&gt;Node30 -->
<g id="edge29" class="edge">
<title>Node1&#45;&gt;Node30</title>
<path fill="none" stroke="#63b8ff" d="M1931.29,-173.68C2129.94,-173.71 2734.37,-170.15 3233.5,-129 3236.18,-128.78 3238.92,-128.52 3241.69,-128.25"/>
<polygon fill="#63b8ff" stroke="#63b8ff" points="1931.02,-170.18 1921.01,-173.68 1931.01,-177.18 1931.02,-170.18"/>
</g>
<!-- Node31 -->
<g id="node31" class="node">
<title>Node31</title>
<g id="a_node31"><a xlink:href="_you_tube_a_p_i_8cpp.html" target="_top" xlink:title=" ">
<polygon fill="white" stroke="#666666" points="3460,-129 3371,-129 3371,-110 3460,-110 3460,-129"/>
<text text-anchor="middle" x="3415.5" y="-117" font-family="Helvetica,sans-Serif" font-size="10.00">YouTubeAPI.cpp</text>
</a>
</g>
</g>
<!-- Node1&#45;&gt;Node31 -->
<g id="edge30" class="edge">
<title>Node1&#45;&gt;Node31</title>
<path fill="none" stroke="#63b8ff" d="M1931.25,-172.67C2183.52,-169.34 3078.75,-155.85 3362.5,-129 3365.19,-128.75 3367.95,-128.44 3370.73,-128.1"/>
<polygon fill="#63b8ff" stroke="#63b8ff" points="1931.09,-169.17 1921.14,-172.8 1931.18,-176.17 1931.09,-169.17"/>
</g>
<!-- Node24 -->
<g id="node24" class="node">
<title>Node24</title>
<g id="a_node24"><a xlink:href="_index_8hpp.html" target="_top" xlink:title=" ">
<polygon fill="white" stroke="#666666" points="2768,-74 2709,-74 2709,-55 2768,-55 2768,-74"/>
<text text-anchor="middle" x="2738.5" y="-62" font-family="Helvetica,sans-Serif" font-size="10.00">Index.hpp</text>
</a>
</g>
</g>
<!-- Node23&#45;&gt;Node24 -->
<g id="edge23" class="edge">
<title>Node23&#45;&gt;Node24</title>
<path fill="none" stroke="#63b8ff" d="M2738.5,-99.66C2738.5,-90.93 2738.5,-80.99 2738.5,-74.09"/>
<polygon fill="#63b8ff" stroke="#63b8ff" points="2735,-99.75 2738.5,-109.75 2742,-99.75 2735,-99.75"/>
</g>
<!-- Node25 -->
<g id="node25" class="node">
<title>Node25</title>
<g id="a_node25"><a xlink:href="_dll_main_8cpp.html" target="_top" xlink:title=" ">
<polygon fill="white" stroke="#666666" points="2772.5,-19 2704.5,-19 2704.5,0 2772.5,0 2772.5,-19"/>
<text text-anchor="middle" x="2738.5" y="-7" font-family="Helvetica,sans-Serif" font-size="10.00">DllMain.cpp</text>
</a>
</g>
</g>
<!-- Node24&#45;&gt;Node25 -->
<g id="edge24" class="edge">
<title>Node24&#45;&gt;Node25</title>
<path fill="none" stroke="#63b8ff" d="M2738.5,-44.66C2738.5,-35.93 2738.5,-25.99 2738.5,-19.09"/>
<polygon fill="#63b8ff" stroke="#63b8ff" points="2735,-44.75 2738.5,-54.75 2742,-44.75 2735,-44.75"/>
</g>
</g>
</svg>
