<?xml version="1.0" encoding="UTF-8" standalone="no"?>
<!DOCTYPE svg PUBLIC "-//W3C//DTD SVG 1.1//EN"
 "http://www.w3.org/Graphics/SVG/1.1/DTD/svg11.dtd">
<!-- Generated by graphviz version 2.43.0 (0)
 -->
<!-- Title: DiscordCoreClient.hpp Pages: 1 -->
<svg width="3739pt" height="192pt"
 viewBox="0.00 0.00 3738.50 192.00" xmlns="http://www.w3.org/2000/svg" xmlns:xlink="http://www.w3.org/1999/xlink">
<g id="graph0" class="graph" transform="scale(1 1) rotate(0) translate(4 188)">
<title>DiscordCoreClient.hpp</title>
<!-- Node1 -->
<g id="Node000001" class="node">
<title>Node1</title>
<g id="a_Node000001"><a xlink:title=" ">
<polygon fill="#999999" stroke="#666666" points="2095,-184 1970,-184 1970,-165 2095,-165 2095,-184"/>
<text text-anchor="middle" x="2032.5" y="-172" font-family="Helvetica,sans-Serif" font-size="10.00">DiscordCoreClient.hpp</text>
</a>
</g>
</g>
<!-- Node2 -->
<g id="Node000002" class="node">
<title>Node2</title>
<g id="a_Node000002"><a xlink:href="_application_command_entities_8cpp.html" target="_top" xlink:title=" ">
<polygon fill="white" stroke="#666666" points="179,-129 0,-129 0,-110 179,-110 179,-129"/>
<text text-anchor="middle" x="89.5" y="-117" font-family="Helvetica,sans-Serif" font-size="10.00">ApplicationCommandEntities.cpp</text>
</a>
</g>
</g>
<!-- Node1&#45;&gt;Node2 -->
<g id="edge1_Node000001_Node000002" class="edge">
<title>Node1&#45;&gt;Node2</title>
<g id="a_edge1_Node000001_Node000002"><a xlink:title=" ">
<path fill="none" stroke="#63b8ff" d="M1959.64,-173.35C1711.54,-172.5 876.87,-166.82 188.5,-129 185.4,-128.83 182.25,-128.64 179.06,-128.44"/>
<polygon fill="#63b8ff" stroke="#63b8ff" points="1959.95,-176.85 1969.96,-173.38 1959.97,-169.85 1959.95,-176.85"/>
</a>
</g>
</g>
<!-- Node3 -->
<g id="Node000003" class="node">
<title>Node3</title>
<g id="a_Node000003"><a xlink:href="_auto_moderation_entities_8cpp.html" target="_top" xlink:title=" ">
<polygon fill="white" stroke="#666666" points="349.5,-129 197.5,-129 197.5,-110 349.5,-110 349.5,-129"/>
<text text-anchor="middle" x="273.5" y="-117" font-family="Helvetica,sans-Serif" font-size="10.00">AutoModerationEntities.cpp</text>
</a>
</g>
</g>
<!-- Node1&#45;&gt;Node3 -->
<g id="edge2_Node000001_Node000003" class="edge">
<title>Node1&#45;&gt;Node3</title>
<g id="a_edge2_Node000001_Node000003"><a xlink:title=" ">
<path fill="none" stroke="#63b8ff" d="M1959.71,-173.43C1726.62,-172.81 977.77,-167.73 359.5,-129 356.36,-128.8 353.15,-128.58 349.91,-128.34"/>
<polygon fill="#63b8ff" stroke="#63b8ff" points="1959.75,-176.93 1969.76,-173.46 1959.77,-169.93 1959.75,-176.93"/>
</a>
</g>
</g>
<!-- Node4 -->
<g id="Node000004" class="node">
<title>Node4</title>
<g id="a_Node000004"><a xlink:href="_channel_entities_8cpp.html" target="_top" xlink:title=" ">
<polygon fill="white" stroke="#666666" points="481,-129 368,-129 368,-110 481,-110 481,-129"/>
<text text-anchor="middle" x="424.5" y="-117" font-family="Helvetica,sans-Serif" font-size="10.00">ChannelEntities.cpp</text>
</a>
</g>
</g>
<!-- Node1&#45;&gt;Node4 -->
<g id="edge3_Node000001_Node000004" class="edge">
<title>Node1&#45;&gt;Node4</title>
<g id="a_edge3_Node000001_Node000004"><a xlink:title=" ">
<path fill="none" stroke="#63b8ff" d="M1959.78,-173.96C1738.65,-174.81 1054.91,-173.38 490.5,-129 487.51,-128.76 484.44,-128.49 481.34,-128.18"/>
<polygon fill="#63b8ff" stroke="#63b8ff" points="1959.97,-177.46 1969.95,-173.92 1959.94,-170.46 1959.97,-177.46"/>
</a>
</g>
</g>
<!-- Node5 -->
<g id="Node000005" class="node">
<title>Node5</title>
<g id="a_Node000005"><a xlink:href="_command_controller_8cpp.html" target="_top" xlink:title=" ">
<polygon fill="white" stroke="#666666" points="633.5,-129 499.5,-129 499.5,-110 633.5,-110 633.5,-129"/>
<text text-anchor="middle" x="566.5" y="-117" font-family="Helvetica,sans-Serif" font-size="10.00">CommandController.cpp</text>
</a>
</g>
</g>
<!-- Node1&#45;&gt;Node5 -->
<g id="edge4_Node000001_Node000005" class="edge">
<title>Node1&#45;&gt;Node5</title>
<g id="a_edge4_Node000001_Node000005"><a xlink:title=" ">
<path fill="none" stroke="#63b8ff" d="M1959.65,-173.16C1753.11,-171.78 1146.12,-164.74 643.5,-129 640.28,-128.77 636.99,-128.51 633.66,-128.23"/>
<polygon fill="#63b8ff" stroke="#63b8ff" points="1959.74,-176.67 1969.77,-173.23 1959.79,-169.67 1959.74,-176.67"/>
</a>
</g>
</g>
<!-- Node6 -->
<g id="Node000006" class="node">
<title>Node6</title>
<g id="a_Node000006"><a xlink:href="_discord_core_client_8cpp.html" target="_top" xlink:title=" ">
<polygon fill="white" stroke="#666666" points="777,-129 652,-129 652,-110 777,-110 777,-129"/>
<text text-anchor="middle" x="714.5" y="-117" font-family="Helvetica,sans-Serif" font-size="10.00">DiscordCoreClient.cpp</text>
</a>
</g>
</g>
<!-- Node1&#45;&gt;Node6 -->
<g id="edge5_Node000001_Node000006" class="edge">
<title>Node1&#45;&gt;Node6</title>
<g id="a_edge5_Node000001_Node000006"><a xlink:title=" ">
<path fill="none" stroke="#63b8ff" d="M1959.59,-172.98C1767.42,-171.15 1231.27,-163.14 786.5,-129 783.49,-128.77 780.41,-128.51 777.3,-128.22"/>
<polygon fill="#63b8ff" stroke="#63b8ff" points="1959.81,-176.48 1969.84,-173.07 1959.87,-169.48 1959.81,-176.48"/>
</a>
</g>
</g>
<!-- Node7 -->
<g id="Node000007" class="node">
<title>Node7</title>
<g id="a_Node000007"><a xlink:href="_event_manager_8cpp.html" target="_top" xlink:title=" ">
<polygon fill="white" stroke="#666666" points="902,-129 795,-129 795,-110 902,-110 902,-129"/>
<text text-anchor="middle" x="848.5" y="-117" font-family="Helvetica,sans-Serif" font-size="10.00">EventManager.cpp</text>
</a>
</g>
</g>
<!-- Node1&#45;&gt;Node7 -->
<g id="edge6_Node000001_Node000007" class="edge">
<title>Node1&#45;&gt;Node7</title>
<g id="a_edge6_Node000001_Node000007"><a xlink:title=" ">
<path fill="none" stroke="#63b8ff" d="M1959.7,-172.99C1780.9,-171.21 1305.98,-163.36 911.5,-129 908.42,-128.73 905.26,-128.42 902.08,-128.08"/>
<polygon fill="#63b8ff" stroke="#63b8ff" points="1959.74,-176.49 1969.78,-173.08 1959.81,-169.49 1959.74,-176.49"/>
</a>
</g>
</g>
<!-- Node8 -->
<g id="Node000008" class="node">
<title>Node8</title>
<g id="a_Node000008"><a xlink:href="_foundation_entities_8cpp.html" target="_top" xlink:title=" ">
<polygon fill="white" stroke="#666666" points="1048.5,-129 920.5,-129 920.5,-110 1048.5,-110 1048.5,-129"/>
<text text-anchor="middle" x="984.5" y="-117" font-family="Helvetica,sans-Serif" font-size="10.00">FoundationEntities.cpp</text>
</a>
</g>
</g>
<!-- Node1&#45;&gt;Node8 -->
<g id="edge7_Node000001_Node000008" class="edge">
<title>Node1&#45;&gt;Node8</title>
<g id="a_edge7_Node000001_Node000008"><a xlink:title=" ">
<path fill="none" stroke="#63b8ff" d="M1959.39,-171.88C1797.1,-167.89 1394.49,-155.94 1058.5,-129 1055.28,-128.74 1051.98,-128.45 1048.65,-128.14"/>
<polygon fill="#63b8ff" stroke="#63b8ff" points="1959.65,-175.38 1969.73,-172.13 1959.82,-168.39 1959.65,-175.38"/>
</a>
</g>
</g>
<!-- Node9 -->
<g id="Node000009" class="node">
<title>Node9</title>
<g id="a_Node000009"><a xlink:href="_guild_entities_8cpp.html" target="_top" xlink:title=" ">
<polygon fill="white" stroke="#666666" points="1166,-129 1067,-129 1067,-110 1166,-110 1166,-129"/>
<text text-anchor="middle" x="1116.5" y="-117" font-family="Helvetica,sans-Serif" font-size="10.00">GuildEntities.cpp</text>
</a>
</g>
</g>
<!-- Node1&#45;&gt;Node9 -->
<g id="edge8_Node000001_Node000009" class="edge">
<title>Node1&#45;&gt;Node9</title>
<g id="a_edge8_Node000001_Node000009"><a xlink:title=" ">
<path fill="none" stroke="#63b8ff" d="M1959.68,-171.96C1811.65,-168.33 1465.11,-157.32 1175.5,-129 1172.41,-128.7 1169.23,-128.35 1166.03,-127.97"/>
<polygon fill="#63b8ff" stroke="#63b8ff" points="1959.91,-175.46 1969.99,-172.21 1960.07,-168.47 1959.91,-175.46"/>
</a>
</g>
</g>
<!-- Node10 -->
<g id="Node000010" class="node">
<title>Node10</title>
<g id="a_Node000010"><a xlink:href="_guild_member_entities_8cpp.html" target="_top" xlink:title=" ">
<polygon fill="white" stroke="#666666" points="1324.5,-129 1184.5,-129 1184.5,-110 1324.5,-110 1324.5,-129"/>
<text text-anchor="middle" x="1254.5" y="-117" font-family="Helvetica,sans-Serif" font-size="10.00">GuildMemberEntities.cpp</text>
</a>
</g>
</g>
<!-- Node1&#45;&gt;Node10 -->
<g id="edge9_Node000001_Node000010" class="edge">
<title>Node1&#45;&gt;Node10</title>
<g id="a_edge9_Node000001_Node000010"><a xlink:title=" ">
<path fill="none" stroke="#63b8ff" d="M1959.87,-169.88C1832.92,-163.33 1562.44,-148.37 1334.5,-129 1331.3,-128.73 1328.03,-128.44 1324.72,-128.13"/>
<polygon fill="#63b8ff" stroke="#63b8ff" points="1959.7,-173.38 1969.87,-170.39 1960.06,-166.39 1959.7,-173.38"/>
</a>
</g>
</g>
<!-- Node11 -->
<g id="Node000011" class="node">
<title>Node11</title>
<g id="a_Node000011"><a xlink:href="_guild_scheduled_event_entities_8cpp.html" target="_top" xlink:title=" ">
<polygon fill="white" stroke="#666666" points="1520,-129 1343,-129 1343,-110 1520,-110 1520,-129"/>
<text text-anchor="middle" x="1431.5" y="-117" font-family="Helvetica,sans-Serif" font-size="10.00">GuildScheduledEventEntities.cpp</text>
</a>
</g>
</g>
<!-- Node1&#45;&gt;Node11 -->
<g id="edge10_Node000001_Node000011" class="edge">
<title>Node1&#45;&gt;Node11</title>
<g id="a_edge10_Node000001_Node000011"><a xlink:title=" ">
<path fill="none" stroke="#63b8ff" d="M1959.83,-167.09C1849.36,-157.35 1639.42,-138.84 1520.14,-128.32"/>
<polygon fill="#63b8ff" stroke="#63b8ff" points="1959.61,-170.59 1969.88,-167.98 1960.23,-163.61 1959.61,-170.59"/>
</a>
</g>
</g>
<!-- Node12 -->
<g id="Node000012" class="node">
<title>Node12</title>
<g id="a_Node000012"><a xlink:href="_https_client_8cpp.html" target="_top" xlink:title=" ">
<polygon fill="white" stroke="#666666" points="1630.5,-129 1538.5,-129 1538.5,-110 1630.5,-110 1630.5,-129"/>
<text text-anchor="middle" x="1584.5" y="-117" font-family="Helvetica,sans-Serif" font-size="10.00">HttpsClient.cpp</text>
</a>
</g>
</g>
<!-- Node1&#45;&gt;Node12 -->
<g id="edge11_Node000001_Node000012" class="edge">
<title>Node1&#45;&gt;Node12</title>
<g id="a_edge11_Node000001_Node000012"><a xlink:title=" ">
<path fill="none" stroke="#63b8ff" d="M1959.65,-166.06C1880.86,-157.82 1751.62,-143.73 1640.5,-129 1637.28,-128.57 1633.96,-128.12 1630.63,-127.64"/>
<polygon fill="#63b8ff" stroke="#63b8ff" points="1959.64,-169.58 1969.95,-167.13 1960.37,-162.61 1959.64,-169.58"/>
</a>
</g>
</g>
<!-- Node13 -->
<g id="Node000013" class="node">
<title>Node13</title>
<g id="a_Node000013"><a xlink:href="_input_events_8cpp.html" target="_top" xlink:title=" ">
<polygon fill="white" stroke="#666666" points="1744,-129 1649,-129 1649,-110 1744,-110 1744,-129"/>
<text text-anchor="middle" x="1696.5" y="-117" font-family="Helvetica,sans-Serif" font-size="10.00">InputEvents.cpp</text>
</a>
</g>
</g>
<!-- Node1&#45;&gt;Node13 -->
<g id="edge12_Node000001_Node000013" class="edge">
<title>Node1&#45;&gt;Node13</title>
<g id="a_edge12_Node000001_Node000013"><a xlink:title=" ">
<path fill="none" stroke="#63b8ff" d="M1968.32,-163.38C1902.86,-153.05 1802.81,-137.27 1744.1,-128.01"/>
<polygon fill="#63b8ff" stroke="#63b8ff" points="1968.09,-166.88 1978.52,-164.98 1969.18,-159.97 1968.09,-166.88"/>
</a>
</g>
</g>
<!-- Node14 -->
<g id="Node000014" class="node">
<title>Node14</title>
<g id="a_Node000014"><a xlink:href="_interaction_entities_8cpp.html" target="_top" xlink:title=" ">
<polygon fill="white" stroke="#666666" points="1888.5,-129 1762.5,-129 1762.5,-110 1888.5,-110 1888.5,-129"/>
<text text-anchor="middle" x="1825.5" y="-117" font-family="Helvetica,sans-Serif" font-size="10.00">InteractionEntities.cpp</text>
</a>
</g>
</g>
<!-- Node1&#45;&gt;Node14 -->
<g id="edge13_Node000001_Node000014" class="edge">
<title>Node1&#45;&gt;Node14</title>
<g id="a_edge13_Node000001_Node000014"><a xlink:title=" ">
<path fill="none" stroke="#63b8ff" d="M1989.29,-162.44C1950.54,-152.52 1894.47,-138.16 1859.02,-129.08"/>
<polygon fill="#63b8ff" stroke="#63b8ff" points="1988.69,-165.89 1999.24,-164.98 1990.42,-159.11 1988.69,-165.89"/>
</a>
</g>
</g>
<!-- Node15 -->
<g id="Node000015" class="node">
<title>Node15</title>
<g id="a_Node000015"><a xlink:href="_message_entities_8cpp.html" target="_top" xlink:title=" ">
<polygon fill="white" stroke="#666666" points="2024,-129 1907,-129 1907,-110 2024,-110 2024,-129"/>
<text text-anchor="middle" x="1965.5" y="-117" font-family="Helvetica,sans-Serif" font-size="10.00">MessageEntities.cpp</text>
</a>
</g>
</g>
<!-- Node1&#45;&gt;Node15 -->
<g id="edge14_Node000001_Node000015" class="edge">
<title>Node1&#45;&gt;Node15</title>
<g id="a_edge14_Node000001_Node000015"><a xlink:title=" ">
<path fill="none" stroke="#63b8ff" d="M2013.67,-158.6C2001.66,-149.11 1986.53,-137.13 1976.46,-129.17"/>
<polygon fill="#63b8ff" stroke="#63b8ff" points="2011.72,-161.53 2021.74,-164.98 2016.06,-156.04 2011.72,-161.53"/>
</a>
</g>
</g>
<!-- Node16 -->
<g id="Node000016" class="node">
<title>Node16</title>
<g id="a_Node000016"><a xlink:href="_reaction_entities_8cpp.html" target="_top" xlink:title=" ">
<polygon fill="white" stroke="#666666" points="2158.5,-129 2042.5,-129 2042.5,-110 2158.5,-110 2158.5,-129"/>
<text text-anchor="middle" x="2100.5" y="-117" font-family="Helvetica,sans-Serif" font-size="10.00">ReactionEntities.cpp</text>
</a>
</g>
</g>
<!-- Node1&#45;&gt;Node16 -->
<g id="edge15_Node000001_Node000016" class="edge">
<title>Node1&#45;&gt;Node16</title>
<g id="a_edge15_Node000001_Node000016"><a xlink:title=" ">
<path fill="none" stroke="#63b8ff" d="M2051.62,-158.6C2063.8,-149.11 2079.16,-137.13 2089.38,-129.17"/>
<polygon fill="#63b8ff" stroke="#63b8ff" points="2049.16,-156.08 2043.43,-164.98 2053.46,-161.6 2049.16,-156.08"/>
</a>
</g>
</g>
<!-- Node17 -->
<g id="Node000017" class="node">
<title>Node17</title>
<g id="a_Node000017"><a xlink:href="_role_entities_8cpp.html" target="_top" xlink:title=" ">
<polygon fill="white" stroke="#666666" points="2272,-129 2177,-129 2177,-110 2272,-110 2272,-129"/>
<text text-anchor="middle" x="2224.5" y="-117" font-family="Helvetica,sans-Serif" font-size="10.00">RoleEntities.cpp</text>
</a>
</g>
</g>
<!-- Node1&#45;&gt;Node17 -->
<g id="edge16_Node000001_Node000017" class="edge">
<title>Node1&#45;&gt;Node17</title>
<g id="a_edge16_Node000001_Node000017"><a xlink:title=" ">
<path fill="none" stroke="#63b8ff" d="M2073.03,-162.31C2108.96,-152.39 2160.66,-138.12 2193.41,-129.08"/>
<polygon fill="#63b8ff" stroke="#63b8ff" points="2072.06,-158.95 2063.35,-164.98 2073.92,-165.7 2072.06,-158.95"/>
</a>
</g>
</g>
<!-- Node18 -->
<g id="Node000018" class="node">
<title>Node18</title>
<g id="a_Node000018"><a xlink:href="_song_a_p_i_8cpp.html" target="_top" xlink:title=" ">
<polygon fill="white" stroke="#666666" points="2367,-129 2290,-129 2290,-110 2367,-110 2367,-129"/>
<text text-anchor="middle" x="2328.5" y="-117" font-family="Helvetica,sans-Serif" font-size="10.00">SongAPI.cpp</text>
</a>
</g>
</g>
<!-- Node1&#45;&gt;Node18 -->
<g id="edge17_Node000001_Node000018" class="edge">
<title>Node1&#45;&gt;Node18</title>
<g id="a_edge17_Node000001_Node000018"><a xlink:title=" ">
<path fill="none" stroke="#63b8ff" d="M2090.31,-163.2C2140.78,-154.21 2215.99,-140.78 2281.5,-129 2284.19,-128.52 2286.97,-128.02 2289.77,-127.51"/>
<polygon fill="#63b8ff" stroke="#63b8ff" points="2089.47,-159.8 2080.24,-165 2090.7,-166.69 2089.47,-159.8"/>
</a>
</g>
</g>
<!-- Node19 -->
<g id="Node000019" class="node">
<title>Node19</title>
<g id="a_Node000019"><a xlink:href="_sound_cloud_a_p_i_8cpp.html" target="_top" xlink:title=" ">
<polygon fill="white" stroke="#666666" points="2495.5,-129 2385.5,-129 2385.5,-110 2495.5,-110 2495.5,-129"/>
<text text-anchor="middle" x="2440.5" y="-117" font-family="Helvetica,sans-Serif" font-size="10.00">SoundCloudAPI.cpp</text>
</a>
</g>
</g>
<!-- Node1&#45;&gt;Node19 -->
<g id="edge18_Node000001_Node000019" class="edge">
<title>Node1&#45;&gt;Node19</title>
<g id="a_edge18_Node000001_Node000019"><a xlink:title=" ">
<path fill="none" stroke="#63b8ff" d="M2105.27,-164.16C2174.9,-155.2 2282.88,-141.27 2376.5,-129 2379.39,-128.62 2382.35,-128.23 2385.34,-127.84"/>
<polygon fill="#63b8ff" stroke="#63b8ff" points="2104.75,-160.7 2095.28,-165.44 2105.65,-167.64 2104.75,-160.7"/>
</a>
</g>
</g>
<!-- Node20 -->
<g id="Node000020" class="node">
<title>Node20</title>
<g id="a_Node000020"><a xlink:href="_stage_instance_entities_8cpp.html" target="_top" xlink:title=" ">
<polygon fill="white" stroke="#666666" points="2657,-129 2514,-129 2514,-110 2657,-110 2657,-129"/>
<text text-anchor="middle" x="2585.5" y="-117" font-family="Helvetica,sans-Serif" font-size="10.00">StageInstanceEntities.cpp</text>
</a>
</g>
</g>
<!-- Node1&#45;&gt;Node20 -->
<g id="edge19_Node000001_Node000020" class="edge">
<title>Node1&#45;&gt;Node20</title>
<g id="a_edge19_Node000001_Node000020"><a xlink:title=" ">
<path fill="none" stroke="#63b8ff" d="M2105.24,-166.88C2197.96,-158.39 2363.19,-143.08 2504.5,-129 2507.6,-128.69 2510.76,-128.37 2513.95,-128.05"/>
<polygon fill="#63b8ff" stroke="#63b8ff" points="2104.77,-163.41 2095.13,-167.81 2105.4,-170.38 2104.77,-163.41"/>
</a>
</g>
</g>
<!-- Node21 -->
<g id="Node000021" class="node">
<title>Node21</title>
<g id="a_Node000021"><a xlink:href="_sticker_entities_8cpp.html" target="_top" xlink:title=" ">
<polygon fill="white" stroke="#666666" points="2782,-129 2675,-129 2675,-110 2782,-110 2782,-129"/>
<text text-anchor="middle" x="2728.5" y="-117" font-family="Helvetica,sans-Serif" font-size="10.00">StickerEntities.cpp</text>
</a>
</g>
</g>
<!-- Node1&#45;&gt;Node21 -->
<g id="edge20_Node000001_Node000021" class="edge">
<title>Node1&#45;&gt;Node21</title>
<g id="a_edge20_Node000001_Node000021"><a xlink:title=" ">
<path fill="none" stroke="#63b8ff" d="M2105.16,-169.97C2223.14,-163.88 2463.61,-150.01 2666.5,-129 2669.2,-128.72 2671.97,-128.41 2674.76,-128.09"/>
<polygon fill="#63b8ff" stroke="#63b8ff" points="2104.97,-166.47 2095.16,-170.48 2105.33,-173.46 2104.97,-166.47"/>
</a>
</g>
</g>
<!-- Node22 -->
<g id="Node000022" class="node">
<title>Node22</title>
<g id="a_Node000022"><a xlink:href="_thread_entities_8cpp.html" target="_top" xlink:title=" ">
<polygon fill="white" stroke="#666666" points="2907,-129 2800,-129 2800,-110 2907,-110 2907,-129"/>
<text text-anchor="middle" x="2853.5" y="-117" font-family="Helvetica,sans-Serif" font-size="10.00">ThreadEntities.cpp</text>
</a>
</g>
</g>
<!-- Node1&#45;&gt;Node22 -->
<g id="edge21_Node000001_Node000022" class="edge">
<title>Node1&#45;&gt;Node22</title>
<g id="a_edge21_Node000001_Node000022"><a xlink:title=" ">
<path fill="none" stroke="#63b8ff" d="M2105.35,-171.11C2240.74,-166.26 2540.23,-153.55 2791.5,-129 2794.2,-128.74 2796.97,-128.44 2799.76,-128.13"/>
<polygon fill="#63b8ff" stroke="#63b8ff" points="2104.97,-167.62 2095.11,-171.48 2105.22,-174.62 2104.97,-167.62"/>
</a>
</g>
</g>
<!-- Node23 -->
<g id="Node000023" class="node">
<title>Node23</title>
<g id="a_Node000023"><a xlink:href="_to_entity_8hpp.html" target="_top" xlink:title=" ">
<polygon fill="white" stroke="#666666" points="3000,-129 2925,-129 2925,-110 3000,-110 3000,-129"/>
<text text-anchor="middle" x="2962.5" y="-117" font-family="Helvetica,sans-Serif" font-size="10.00">ToEntity.hpp</text>
</a>
</g>
</g>
<!-- Node1&#45;&gt;Node23 -->
<g id="edge22_Node000001_Node000023" class="edge">
<title>Node1&#45;&gt;Node23</title>
<g id="a_edge22_Node000001_Node000023"><a xlink:title=" ">
<path fill="none" stroke="#63b8ff" d="M2105.28,-173.09C2256.76,-171.52 2616.8,-164.08 2916.5,-129 2919.24,-128.68 2922.07,-128.29 2924.91,-127.87"/>
<polygon fill="#63b8ff" stroke="#63b8ff" points="2105.13,-169.59 2095.17,-173.19 2105.2,-176.59 2105.13,-169.59"/>
</a>
</g>
</g>
<!-- Node26 -->
<g id="Node000026" class="node">
<title>Node26</title>
<g id="a_Node000026"><a xlink:href="_user_entities_8cpp.html" target="_top" xlink:title=" ">
<polygon fill="white" stroke="#666666" points="3114.5,-129 3018.5,-129 3018.5,-110 3114.5,-110 3114.5,-129"/>
<text text-anchor="middle" x="3066.5" y="-117" font-family="Helvetica,sans-Serif" font-size="10.00">UserEntities.cpp</text>
</a>
</g>
</g>
<!-- Node1&#45;&gt;Node26 -->
<g id="edge25_Node000001_Node000026" class="edge">
<title>Node1&#45;&gt;Node26</title>
<g id="a_edge25_Node000001_Node000026"><a xlink:title=" ">
<path fill="none" stroke="#63b8ff" d="M2105.61,-172.73C2268.36,-170.45 2672.77,-161.69 3009.5,-129 3012.39,-128.72 3015.35,-128.39 3018.34,-128.04"/>
<polygon fill="#63b8ff" stroke="#63b8ff" points="2105.19,-169.23 2095.24,-172.87 2105.28,-176.23 2105.19,-169.23"/>
</a>
</g>
</g>
<!-- Node27 -->
<g id="Node000027" class="node">
<title>Node27</title>
<g id="a_Node000027"><a xlink:href="_utilities_8cpp.html" target="_top" xlink:title=" ">
<polygon fill="white" stroke="#666666" points="3208,-129 3133,-129 3133,-110 3208,-110 3208,-129"/>
<text text-anchor="middle" x="3170.5" y="-117" font-family="Helvetica,sans-Serif" font-size="10.00">Utilities.cpp</text>
</a>
</g>
</g>
<!-- Node1&#45;&gt;Node27 -->
<g id="edge26_Node000001_Node000027" class="edge">
<title>Node1&#45;&gt;Node27</title>
<g id="a_edge26_Node000001_Node000027"><a xlink:title=" ">
<path fill="none" stroke="#63b8ff" d="M2105.3,-173.99C2280.97,-174.44 2741.77,-171.1 3123.5,-129 3126.55,-128.66 3129.7,-128.25 3132.86,-127.78"/>
<polygon fill="#63b8ff" stroke="#63b8ff" points="2105.16,-170.49 2095.15,-173.96 2105.14,-177.49 2105.16,-170.49"/>
</a>
</g>
</g>
<!-- Node28 -->
<g id="Node000028" class="node">
<title>Node28</title>
<g id="a_Node000028"><a xlink:href="_voice_connection_8cpp.html" target="_top" xlink:title=" ">
<polygon fill="white" stroke="#666666" points="3344.5,-129 3226.5,-129 3226.5,-110 3344.5,-110 3344.5,-129"/>
<text text-anchor="middle" x="3285.5" y="-117" font-family="Helvetica,sans-Serif" font-size="10.00">VoiceConnection.cpp</text>
</a>
</g>
</g>
<!-- Node1&#45;&gt;Node28 -->
<g id="edge27_Node000001_Node000028" class="edge">
<title>Node1&#45;&gt;Node28</title>
<g id="a_edge27_Node000001_Node000028"><a xlink:title=" ">
<path fill="none" stroke="#63b8ff" d="M2105.44,-172.96C2291.23,-171.11 2797.34,-163.08 3217.5,-129 3220.35,-128.77 3223.26,-128.51 3226.19,-128.22"/>
<polygon fill="#63b8ff" stroke="#63b8ff" points="2105.21,-169.46 2095.24,-173.06 2105.28,-176.46 2105.21,-169.46"/>
</a>
</g>
</g>
<!-- Node29 -->
<g id="Node000029" class="node">
<title>Node29</title>
<g id="a_Node000029"><a xlink:href="_web_hook_entities_8cpp.html" target="_top" xlink:title=" ">
<polygon fill="white" stroke="#666666" points="3482.5,-129 3362.5,-129 3362.5,-110 3482.5,-110 3482.5,-129"/>
<text text-anchor="middle" x="3422.5" y="-117" font-family="Helvetica,sans-Serif" font-size="10.00">WebHookEntities.cpp</text>
</a>
</g>
</g>
<!-- Node1&#45;&gt;Node29 -->
<g id="edge28_Node000001_Node000029" class="edge">
<title>Node1&#45;&gt;Node29</title>
<g id="a_edge28_Node000001_Node000029"><a xlink:title=" ">
<path fill="none" stroke="#63b8ff" d="M2105.26,-173.32C2304.98,-172.32 2878.48,-166.19 3353.5,-129 3356.39,-128.77 3359.34,-128.52 3362.32,-128.23"/>
<polygon fill="#63b8ff" stroke="#63b8ff" points="2105.17,-169.82 2095.18,-173.36 2105.2,-176.82 2105.17,-169.82"/>
</a>
</g>
</g>
<!-- Node30 -->
<g id="Node000030" class="node">
<title>Node30</title>
<g id="a_Node000030"><a xlink:href="_web_socket_client_8cpp.html" target="_top" xlink:title=" ">
<polygon fill="white" stroke="#666666" points="3620,-129 3501,-129 3501,-110 3620,-110 3620,-129"/>
<text text-anchor="middle" x="3560.5" y="-117" font-family="Helvetica,sans-Serif" font-size="10.00">WebSocketClient.cpp</text>
</a>
</g>
</g>
<!-- Node1&#45;&gt;Node30 -->
<g id="edge29_Node000001_Node000030" class="edge">
<title>Node1&#45;&gt;Node30</title>
<g id="a_edge29_Node000001_Node000030"><a xlink:title=" ">
<path fill="none" stroke="#63b8ff" d="M2105.31,-173.65C2318.66,-173.57 2960.73,-169.7 3491.5,-129 3494.51,-128.77 3497.59,-128.5 3500.69,-128.21"/>
<polygon fill="#63b8ff" stroke="#63b8ff" points="2105.18,-170.15 2095.18,-173.65 2105.18,-177.15 2105.18,-170.15"/>
</a>
</g>
</g>
<!-- Node31 -->
<g id="Node000031" class="node">
<title>Node31</title>
<g id="a_Node000031"><a xlink:href="_you_tube_a_p_i_8cpp.html" target="_top" xlink:title=" ">
<polygon fill="white" stroke="#666666" points="3730.5,-129 3638.5,-129 3638.5,-110 3730.5,-110 3730.5,-129"/>
<text text-anchor="middle" x="3684.5" y="-117" font-family="Helvetica,sans-Serif" font-size="10.00">YouTubeAPI.cpp</text>
</a>
</g>
</g>
<!-- Node1&#45;&gt;Node31 -->
<g id="edge30_Node000001_Node000031" class="edge">
<title>Node1&#45;&gt;Node31</title>
<g id="a_edge30_Node000001_Node000031"><a xlink:title=" ">
<path fill="none" stroke="#63b8ff" d="M2105.14,-172.69C2376.06,-169.47 3327.46,-156.44 3629.5,-129 3632.39,-128.74 3635.35,-128.42 3638.34,-128.06"/>
<polygon fill="#63b8ff" stroke="#63b8ff" points="2104.99,-169.19 2095.03,-172.81 2105.07,-176.19 2104.99,-169.19"/>
</a>
</g>
</g>
<!-- Node24 -->
<g id="Node000024" class="node">
<title>Node24</title>
<g id="a_Node000024"><a xlink:href="_index_8hpp.html" target="_top" xlink:title=" ">
<polygon fill="white" stroke="#666666" points="2995,-74 2930,-74 2930,-55 2995,-55 2995,-74"/>
<text text-anchor="middle" x="2962.5" y="-62" font-family="Helvetica,sans-Serif" font-size="10.00">Index.hpp</text>
</a>
</g>
</g>
<!-- Node23&#45;&gt;Node24 -->
<g id="edge23_Node000023_Node000024" class="edge">
<title>Node23&#45;&gt;Node24</title>
<g id="a_edge23_Node000023_Node000024"><a xlink:title=" ">
<path fill="none" stroke="#63b8ff" d="M2962.5,-99.66C2962.5,-90.93 2962.5,-80.99 2962.5,-74.09"/>
<polygon fill="#63b8ff" stroke="#63b8ff" points="2959,-99.75 2962.5,-109.75 2966,-99.75 2959,-99.75"/>
</a>
</g>
</g>
<!-- Node25 -->
<g id="Node000025" class="node">
<title>Node25</title>
<g id="a_Node000025"><a xlink:href="_dll_main_8cpp.html" target="_top" xlink:title=" ">
<polygon fill="white" stroke="#666666" points="2999.5,-19 2925.5,-19 2925.5,0 2999.5,0 2999.5,-19"/>
<text text-anchor="middle" x="2962.5" y="-7" font-family="Helvetica,sans-Serif" font-size="10.00">DllMain.cpp</text>
</a>
</g>
</g>
<!-- Node24&#45;&gt;Node25 -->
<g id="edge24_Node000024_Node000025" class="edge">
<title>Node24&#45;&gt;Node25</title>
<g id="a_edge24_Node000024_Node000025"><a xlink:title=" ">
<path fill="none" stroke="#63b8ff" d="M2962.5,-44.66C2962.5,-35.93 2962.5,-25.99 2962.5,-19.09"/>
<polygon fill="#63b8ff" stroke="#63b8ff" points="2959,-44.75 2962.5,-54.75 2966,-44.75 2959,-44.75"/>
</a>
</g>
</g>
</g>
</svg>
