<?xml version="1.0" encoding="UTF-8" standalone="no"?>
<!DOCTYPE svg PUBLIC "-//W3C//DTD SVG 1.1//EN"
 "http://www.w3.org/Graphics/SVG/1.1/DTD/svg11.dtd">
<!-- Generated by graphviz version 5.0.0 (20220707.1540)
 -->
<!-- Title: EventManager.hpp Pages: 1 -->
<svg width="3468pt" height="247pt"
 viewBox="0.00 0.00 3468.00 247.00" xmlns="http://www.w3.org/2000/svg" xmlns:xlink="http://www.w3.org/1999/xlink">
<g id="graph0" class="graph" transform="scale(1 1) rotate(0) translate(4 243)">
<title>EventManager.hpp</title>
<!-- Node1 -->
<g id="node1" class="node">
<title>Node1</title>
<g id="a_node1"><a xlink:title=" ">
<polygon fill="#999999" stroke="#666666" points="1913,-239 1816,-239 1816,-220 1913,-220 1913,-239"/>
<text text-anchor="middle" x="1864.5" y="-227" font-family="Helvetica,sans-Serif" font-size="10.00">EventManager.hpp</text>
</a>
</g>
</g>
<!-- Node2 -->
<g id="node2" class="node">
<title>Node2</title>
<g id="a_node2"><a xlink:href="_discord_core_client_8hpp.html" target="_top" xlink:title=" ">
<polygon fill="white" stroke="#666666" points="1921,-184 1808,-184 1808,-165 1921,-165 1921,-184"/>
<text text-anchor="middle" x="1864.5" y="-172" font-family="Helvetica,sans-Serif" font-size="10.00">DiscordCoreClient.hpp</text>
</a>
</g>
</g>
<!-- Node1&#45;&gt;Node2 -->
<g id="edge1" class="edge">
<title>Node1&#45;&gt;Node2</title>
<path fill="none" stroke="#63b8ff" d="M1864.5,-209.66C1864.5,-200.93 1864.5,-190.99 1864.5,-184.09"/>
<polygon fill="#63b8ff" stroke="#63b8ff" points="1861,-209.75 1864.5,-219.75 1868,-209.75 1861,-209.75"/>
</g>
<!-- Node8 -->
<g id="node8" class="node">
<title>Node8</title>
<g id="a_node8"><a xlink:href="_event_manager_8cpp.html" target="_top" xlink:title=" ">
<polygon fill="white" stroke="#666666" points="97,-129 0,-129 0,-110 97,-110 97,-129"/>
<text text-anchor="middle" x="48.5" y="-117" font-family="Helvetica,sans-Serif" font-size="10.00">EventManager.cpp</text>
</a>
</g>
</g>
<!-- Node1&#45;&gt;Node8 -->
<g id="edge32" class="edge">
<title>Node1&#45;&gt;Node8</title>
<path fill="none" stroke="#63b8ff" d="M1805.6,-227.12C1582.83,-221.51 770.8,-197.28 105.5,-129 102.81,-128.72 100.06,-128.41 97.28,-128.07"/>
<polygon fill="#63b8ff" stroke="#63b8ff" points="1805.67,-230.63 1815.75,-227.38 1805.85,-223.63 1805.67,-230.63"/>
</g>
<!-- Node31 -->
<g id="node31" class="node">
<title>Node31</title>
<g id="a_node31"><a xlink:href="_web_socket_client_8cpp.html" target="_top" xlink:title=" ">
<polygon fill="white" stroke="#666666" points="3460,-129 3349,-129 3349,-110 3460,-110 3460,-129"/>
<text text-anchor="middle" x="3404.5" y="-117" font-family="Helvetica,sans-Serif" font-size="10.00">WebSocketClient.cpp</text>
</a>
</g>
</g>
<!-- Node1&#45;&gt;Node31 -->
<g id="edge33" class="edge">
<title>Node1&#45;&gt;Node31</title>
<path fill="none" stroke="#63b8ff" d="M1923.55,-225.85C2123.06,-216.61 2790.3,-183.38 3339.5,-129 3342.56,-128.7 3345.69,-128.36 3348.86,-128.01"/>
<polygon fill="#63b8ff" stroke="#63b8ff" points="1923.12,-222.36 1913.29,-226.32 1923.44,-229.36 1923.12,-222.36"/>
</g>
<!-- Node3 -->
<g id="node3" class="node">
<title>Node3</title>
<g id="a_node3"><a xlink:href="_application_command_entities_8cpp.html" target="_top" xlink:title=" ">
<polygon fill="white" stroke="#666666" points="276,-129 115,-129 115,-110 276,-110 276,-129"/>
<text text-anchor="middle" x="195.5" y="-117" font-family="Helvetica,sans-Serif" font-size="10.00">ApplicationCommandEntities.cpp</text>
</a>
</g>
</g>
<!-- Node2&#45;&gt;Node3 -->
<g id="edge2" class="edge">
<title>Node2&#45;&gt;Node3</title>
<path fill="none" stroke="#63b8ff" d="M1797.43,-173.22C1579.25,-171.96 869.94,-165.16 284.5,-129 281.71,-128.83 278.87,-128.64 276.01,-128.43"/>
<polygon fill="#63b8ff" stroke="#63b8ff" points="1797.74,-176.72 1807.76,-173.28 1797.78,-169.72 1797.74,-176.72"/>
</g>
<!-- Node4 -->
<g id="node4" class="node">
<title>Node4</title>
<g id="a_node4"><a xlink:href="_auto_moderation_entities_8cpp.html" target="_top" xlink:title=" ">
<polygon fill="white" stroke="#666666" points="431,-129 294,-129 294,-110 431,-110 431,-129"/>
<text text-anchor="middle" x="362.5" y="-117" font-family="Helvetica,sans-Serif" font-size="10.00">AutoModerationEntities.cpp</text>
</a>
</g>
</g>
<!-- Node2&#45;&gt;Node4 -->
<g id="edge3" class="edge">
<title>Node2&#45;&gt;Node4</title>
<path fill="none" stroke="#63b8ff" d="M1797.53,-173.24C1593.58,-172.07 962.23,-165.52 440.5,-129 437.51,-128.79 434.46,-128.55 431.38,-128.3"/>
<polygon fill="#63b8ff" stroke="#63b8ff" points="1797.76,-176.75 1807.78,-173.3 1797.8,-169.75 1797.76,-176.75"/>
</g>
<!-- Node5 -->
<g id="node5" class="node">
<title>Node5</title>
<g id="a_node5"><a xlink:href="_channel_entities_8cpp.html" target="_top" xlink:title=" ">
<polygon fill="white" stroke="#666666" points="553.5,-129 449.5,-129 449.5,-110 553.5,-110 553.5,-129"/>
<text text-anchor="middle" x="501.5" y="-117" font-family="Helvetica,sans-Serif" font-size="10.00">ChannelEntities.cpp</text>
</a>
</g>
</g>
<!-- Node2&#45;&gt;Node5 -->
<g id="edge4" class="edge">
<title>Node2&#45;&gt;Node5</title>
<path fill="none" stroke="#63b8ff" d="M1797.68,-173.67C1605.4,-173.64 1034.34,-169.83 562.5,-129 559.62,-128.75 556.68,-128.46 553.7,-128.14"/>
<polygon fill="#63b8ff" stroke="#63b8ff" points="1797.9,-177.17 1807.9,-173.67 1797.9,-170.17 1797.9,-177.17"/>
</g>
<!-- Node6 -->
<g id="node6" class="node">
<title>Node6</title>
<g id="a_node6"><a xlink:href="_command_controller_8cpp.html" target="_top" xlink:title=" ">
<polygon fill="white" stroke="#666666" points="693,-129 572,-129 572,-110 693,-110 693,-129"/>
<text text-anchor="middle" x="632.5" y="-117" font-family="Helvetica,sans-Serif" font-size="10.00">CommandController.cpp</text>
</a>
</g>
</g>
<!-- Node2&#45;&gt;Node6 -->
<g id="edge5" class="edge">
<title>Node2&#45;&gt;Node6</title>
<path fill="none" stroke="#63b8ff" d="M1797.81,-172.91C1619.62,-170.92 1117.63,-162.53 701.5,-129 698.73,-128.78 695.91,-128.53 693.05,-128.25"/>
<polygon fill="#63b8ff" stroke="#63b8ff" points="1797.78,-176.41 1807.82,-173.02 1797.86,-169.41 1797.78,-176.41"/>
</g>
<!-- Node7 -->
<g id="node7" class="node">
<title>Node7</title>
<g id="a_node7"><a xlink:href="_discord_core_client_8cpp.html" target="_top" xlink:title=" ">
<polygon fill="white" stroke="#666666" points="824,-129 711,-129 711,-110 824,-110 824,-129"/>
<text text-anchor="middle" x="767.5" y="-117" font-family="Helvetica,sans-Serif" font-size="10.00">DiscordCoreClient.cpp</text>
</a>
</g>
</g>
<!-- Node2&#45;&gt;Node7 -->
<g id="edge6" class="edge">
<title>Node2&#45;&gt;Node7</title>
<path fill="none" stroke="#63b8ff" d="M1797.52,-172.58C1633.06,-169.89 1196.37,-160.14 833.5,-129 830.51,-128.74 827.44,-128.45 824.35,-128.13"/>
<polygon fill="#63b8ff" stroke="#63b8ff" points="1797.9,-176.08 1807.95,-172.75 1798.01,-169.09 1797.9,-176.08"/>
</g>
<!-- Node2&#45;&gt;Node8 -->
<g id="edge7" class="edge">
<title>Node2&#45;&gt;Node8</title>
<path fill="none" stroke="#63b8ff" d="M1797.61,-172.91C1518.22,-170.26 443.34,-158.35 105.5,-129 102.81,-128.77 100.05,-128.49 97.27,-128.17"/>
<polygon fill="#63b8ff" stroke="#63b8ff" points="1797.96,-176.41 1807.99,-173 1798.03,-169.41 1797.96,-176.41"/>
</g>
<!-- Node9 -->
<g id="node9" class="node">
<title>Node9</title>
<g id="a_node9"><a xlink:href="_foundation_entities_8cpp.html" target="_top" xlink:title=" ">
<polygon fill="white" stroke="#666666" points="958.5,-129 842.5,-129 842.5,-110 958.5,-110 958.5,-129"/>
<text text-anchor="middle" x="900.5" y="-117" font-family="Helvetica,sans-Serif" font-size="10.00">FoundationEntities.cpp</text>
</a>
</g>
</g>
<!-- Node2&#45;&gt;Node9 -->
<g id="edge8" class="edge">
<title>Node2&#45;&gt;Node9</title>
<path fill="none" stroke="#63b8ff" d="M1797.63,-171.93C1648.43,-168.06 1277.11,-156.28 967.5,-129 964.58,-128.74 961.59,-128.45 958.58,-128.14"/>
<polygon fill="#63b8ff" stroke="#63b8ff" points="1797.9,-175.44 1807.99,-172.2 1798.08,-168.44 1797.9,-175.44"/>
</g>
<!-- Node10 -->
<g id="node10" class="node">
<title>Node10</title>
<g id="a_node10"><a xlink:href="_guild_entities_8cpp.html" target="_top" xlink:title=" ">
<polygon fill="white" stroke="#666666" points="1068,-129 977,-129 977,-110 1068,-110 1068,-129"/>
<text text-anchor="middle" x="1022.5" y="-117" font-family="Helvetica,sans-Serif" font-size="10.00">GuildEntities.cpp</text>
</a>
</g>
</g>
<!-- Node2&#45;&gt;Node10 -->
<g id="edge9" class="edge">
<title>Node2&#45;&gt;Node10</title>
<path fill="none" stroke="#63b8ff" d="M1797.29,-171.89C1661.14,-168.16 1343.12,-156.97 1077.5,-129 1074.43,-128.68 1071.26,-128.3 1068.07,-127.89"/>
<polygon fill="#63b8ff" stroke="#63b8ff" points="1797.47,-175.4 1807.56,-172.17 1797.66,-168.4 1797.47,-175.4"/>
</g>
<!-- Node11 -->
<g id="node11" class="node">
<title>Node11</title>
<g id="a_node11"><a xlink:href="_guild_member_entities_8cpp.html" target="_top" xlink:title=" ">
<polygon fill="white" stroke="#666666" points="1212.5,-129 1086.5,-129 1086.5,-110 1212.5,-110 1212.5,-129"/>
<text text-anchor="middle" x="1149.5" y="-117" font-family="Helvetica,sans-Serif" font-size="10.00">GuildMemberEntities.cpp</text>
</a>
</g>
</g>
<!-- Node2&#45;&gt;Node11 -->
<g id="edge10" class="edge">
<title>Node2&#45;&gt;Node11</title>
<path fill="none" stroke="#63b8ff" d="M1797.42,-169.93C1680.38,-163.46 1431.31,-148.63 1221.5,-129 1218.62,-128.73 1215.67,-128.44 1212.7,-128.14"/>
<polygon fill="#63b8ff" stroke="#63b8ff" points="1797.48,-173.44 1807.66,-170.49 1797.86,-166.45 1797.48,-173.44"/>
</g>
<!-- Node12 -->
<g id="node12" class="node">
<title>Node12</title>
<g id="a_node12"><a xlink:href="_guild_scheduled_event_entities_8cpp.html" target="_top" xlink:title=" ">
<polygon fill="white" stroke="#666666" points="1392,-129 1231,-129 1231,-110 1392,-110 1392,-129"/>
<text text-anchor="middle" x="1311.5" y="-117" font-family="Helvetica,sans-Serif" font-size="10.00">GuildScheduledEventEntities.cpp</text>
</a>
</g>
</g>
<!-- Node2&#45;&gt;Node12 -->
<g id="edge11" class="edge">
<title>Node2&#45;&gt;Node12</title>
<path fill="none" stroke="#63b8ff" d="M1797.76,-167.1C1695.96,-157.35 1502.17,-138.77 1392.47,-128.26"/>
<polygon fill="#63b8ff" stroke="#63b8ff" points="1797.63,-170.61 1807.92,-168.08 1798.3,-163.64 1797.63,-170.61"/>
</g>
<!-- Node13 -->
<g id="node13" class="node">
<title>Node13</title>
<g id="a_node13"><a xlink:href="_https_client_8cpp.html" target="_top" xlink:title=" ">
<polygon fill="white" stroke="#666666" points="1493,-129 1410,-129 1410,-110 1493,-110 1493,-129"/>
<text text-anchor="middle" x="1451.5" y="-117" font-family="Helvetica,sans-Serif" font-size="10.00">HttpsClient.cpp</text>
</a>
</g>
</g>
<!-- Node2&#45;&gt;Node13 -->
<g id="edge12" class="edge">
<title>Node2&#45;&gt;Node13</title>
<path fill="none" stroke="#63b8ff" d="M1798.03,-166.19C1725.33,-158 1605.45,-143.9 1502.5,-129 1499.48,-128.56 1496.36,-128.09 1493.23,-127.6"/>
<polygon fill="#63b8ff" stroke="#63b8ff" points="1797.64,-169.67 1807.97,-167.31 1798.42,-162.72 1797.64,-169.67"/>
</g>
<!-- Node14 -->
<g id="node14" class="node">
<title>Node14</title>
<g id="a_node14"><a xlink:href="_input_events_8cpp.html" target="_top" xlink:title=" ">
<polygon fill="white" stroke="#666666" points="1597.5,-129 1511.5,-129 1511.5,-110 1597.5,-110 1597.5,-129"/>
<text text-anchor="middle" x="1554.5" y="-117" font-family="Helvetica,sans-Serif" font-size="10.00">InputEvents.cpp</text>
</a>
</g>
</g>
<!-- Node2&#45;&gt;Node14 -->
<g id="edge13" class="edge">
<title>Node2&#45;&gt;Node14</title>
<path fill="none" stroke="#63b8ff" d="M1804.49,-163.24C1743.81,-152.87 1651.51,-137.09 1597.68,-127.88"/>
<polygon fill="#63b8ff" stroke="#63b8ff" points="1804.25,-166.75 1814.69,-164.98 1805.43,-159.85 1804.25,-166.75"/>
</g>
<!-- Node15 -->
<g id="node15" class="node">
<title>Node15</title>
<g id="a_node15"><a xlink:href="_interaction_entities_8cpp.html" target="_top" xlink:title=" ">
<polygon fill="white" stroke="#666666" points="1729,-129 1616,-129 1616,-110 1729,-110 1729,-129"/>
<text text-anchor="middle" x="1672.5" y="-117" font-family="Helvetica,sans-Serif" font-size="10.00">InteractionEntities.cpp</text>
</a>
</g>
</g>
<!-- Node2&#45;&gt;Node15 -->
<g id="edge14" class="edge">
<title>Node2&#45;&gt;Node15</title>
<path fill="none" stroke="#63b8ff" d="M1823.97,-162.31C1788.04,-152.39 1736.34,-138.12 1703.59,-129.08"/>
<polygon fill="#63b8ff" stroke="#63b8ff" points="1823.08,-165.7 1833.65,-164.98 1824.94,-158.95 1823.08,-165.7"/>
</g>
<!-- Node16 -->
<g id="node16" class="node">
<title>Node16</title>
<g id="a_node16"><a xlink:href="_message_entities_8cpp.html" target="_top" xlink:title=" ">
<polygon fill="white" stroke="#666666" points="1855.5,-129 1747.5,-129 1747.5,-110 1855.5,-110 1855.5,-129"/>
<text text-anchor="middle" x="1801.5" y="-117" font-family="Helvetica,sans-Serif" font-size="10.00">MessageEntities.cpp</text>
</a>
</g>
</g>
<!-- Node2&#45;&gt;Node16 -->
<g id="edge15" class="edge">
<title>Node2&#45;&gt;Node16</title>
<path fill="none" stroke="#63b8ff" d="M1846.46,-158.32C1835.23,-148.87 1821.18,-137.06 1811.81,-129.17"/>
<polygon fill="#63b8ff" stroke="#63b8ff" points="1844.47,-161.23 1854.38,-164.98 1848.98,-155.87 1844.47,-161.23"/>
</g>
<!-- Node17 -->
<g id="node17" class="node">
<title>Node17</title>
<g id="a_node17"><a xlink:href="_reaction_entities_8cpp.html" target="_top" xlink:title=" ">
<polygon fill="white" stroke="#666666" points="1981,-129 1874,-129 1874,-110 1981,-110 1981,-129"/>
<text text-anchor="middle" x="1927.5" y="-117" font-family="Helvetica,sans-Serif" font-size="10.00">ReactionEntities.cpp</text>
</a>
</g>
</g>
<!-- Node2&#45;&gt;Node17 -->
<g id="edge16" class="edge">
<title>Node2&#45;&gt;Node17</title>
<path fill="none" stroke="#63b8ff" d="M1882.54,-158.32C1893.77,-148.87 1907.82,-137.06 1917.19,-129.17"/>
<polygon fill="#63b8ff" stroke="#63b8ff" points="1880.02,-155.87 1874.62,-164.98 1884.53,-161.23 1880.02,-155.87"/>
</g>
<!-- Node18 -->
<g id="node18" class="node">
<title>Node18</title>
<g id="a_node18"><a xlink:href="_role_entities_8cpp.html" target="_top" xlink:title=" ">
<polygon fill="white" stroke="#666666" points="2087.5,-129 1999.5,-129 1999.5,-110 2087.5,-110 2087.5,-129"/>
<text text-anchor="middle" x="2043.5" y="-117" font-family="Helvetica,sans-Serif" font-size="10.00">RoleEntities.cpp</text>
</a>
</g>
</g>
<!-- Node2&#45;&gt;Node18 -->
<g id="edge17" class="edge">
<title>Node2&#45;&gt;Node18</title>
<path fill="none" stroke="#63b8ff" d="M1903.15,-162.06C1936.61,-152.15 1984.25,-138.04 2014.52,-129.08"/>
<polygon fill="#63b8ff" stroke="#63b8ff" points="1901.85,-158.79 1893.26,-164.98 1903.84,-165.5 1901.85,-158.79"/>
</g>
<!-- Node19 -->
<g id="node19" class="node">
<title>Node19</title>
<g id="a_node19"><a xlink:href="_song_a_p_i_8cpp.html" target="_top" xlink:title=" ">
<polygon fill="white" stroke="#666666" points="2179.5,-129 2105.5,-129 2105.5,-110 2179.5,-110 2179.5,-129"/>
<text text-anchor="middle" x="2142.5" y="-117" font-family="Helvetica,sans-Serif" font-size="10.00">SongAPI.cpp</text>
</a>
</g>
</g>
<!-- Node2&#45;&gt;Node19 -->
<g id="edge18" class="edge">
<title>Node2&#45;&gt;Node19</title>
<path fill="none" stroke="#63b8ff" d="M1919.08,-163.1C1974,-152.62 2057.22,-136.76 2105.08,-127.63"/>
<polygon fill="#63b8ff" stroke="#63b8ff" points="1918.33,-159.67 1909.17,-164.98 1919.64,-166.55 1918.33,-159.67"/>
</g>
<!-- Node20 -->
<g id="node20" class="node">
<title>Node20</title>
<g id="a_node20"><a xlink:href="_sound_cloud_a_p_i_8cpp.html" target="_top" xlink:title=" ">
<polygon fill="white" stroke="#666666" points="2301.5,-129 2197.5,-129 2197.5,-110 2301.5,-110 2301.5,-129"/>
<text text-anchor="middle" x="2249.5" y="-117" font-family="Helvetica,sans-Serif" font-size="10.00">SoundCloudAPI.cpp</text>
</a>
</g>
</g>
<!-- Node2&#45;&gt;Node20 -->
<g id="edge19" class="edge">
<title>Node2&#45;&gt;Node20</title>
<path fill="none" stroke="#63b8ff" d="M1931.47,-164.34C1996.99,-155.37 2099.61,-141.3 2188.5,-129 2191.36,-128.6 2194.29,-128.2 2197.26,-127.79"/>
<polygon fill="#63b8ff" stroke="#63b8ff" points="1930.71,-160.91 1921.28,-165.74 1931.66,-167.85 1930.71,-160.91"/>
</g>
<!-- Node21 -->
<g id="node21" class="node">
<title>Node21</title>
<g id="a_node21"><a xlink:href="_stage_instance_entities_8cpp.html" target="_top" xlink:title=" ">
<polygon fill="white" stroke="#666666" points="2451,-129 2320,-129 2320,-110 2451,-110 2451,-129"/>
<text text-anchor="middle" x="2385.5" y="-117" font-family="Helvetica,sans-Serif" font-size="10.00">StageInstanceEntities.cpp</text>
</a>
</g>
</g>
<!-- Node2&#45;&gt;Node21 -->
<g id="edge20" class="edge">
<title>Node2&#45;&gt;Node21</title>
<path fill="none" stroke="#63b8ff" d="M1931.22,-167.12C2018.45,-158.72 2175.97,-143.33 2310.5,-129 2313.5,-128.68 2316.56,-128.35 2319.66,-128.01"/>
<polygon fill="#63b8ff" stroke="#63b8ff" points="1930.82,-163.65 1921.2,-168.09 1931.49,-170.61 1930.82,-163.65"/>
</g>
<!-- Node22 -->
<g id="node22" class="node">
<title>Node22</title>
<g id="a_node22"><a xlink:href="_sticker_entities_8cpp.html" target="_top" xlink:title=" ">
<polygon fill="white" stroke="#666666" points="2568,-129 2469,-129 2469,-110 2568,-110 2568,-129"/>
<text text-anchor="middle" x="2518.5" y="-117" font-family="Helvetica,sans-Serif" font-size="10.00">StickerEntities.cpp</text>
</a>
</g>
</g>
<!-- Node2&#45;&gt;Node22 -->
<g id="edge21" class="edge">
<title>Node2&#45;&gt;Node22</title>
<path fill="none" stroke="#63b8ff" d="M1931.53,-169.99C2041.84,-163.87 2268.47,-149.88 2459.5,-129 2462.59,-128.66 2465.76,-128.29 2468.96,-127.89"/>
<polygon fill="#63b8ff" stroke="#63b8ff" points="1931.02,-166.51 1921.23,-170.55 1931.4,-173.5 1931.02,-166.51"/>
</g>
<!-- Node23 -->
<g id="node23" class="node">
<title>Node23</title>
<g id="a_node23"><a xlink:href="_thread_entities_8cpp.html" target="_top" xlink:title=" ">
<polygon fill="white" stroke="#666666" points="2684.5,-129 2586.5,-129 2586.5,-110 2684.5,-110 2684.5,-129"/>
<text text-anchor="middle" x="2635.5" y="-117" font-family="Helvetica,sans-Serif" font-size="10.00">ThreadEntities.cpp</text>
</a>
</g>
</g>
<!-- Node2&#45;&gt;Node23 -->
<g id="edge22" class="edge">
<title>Node2&#45;&gt;Node23</title>
<path fill="none" stroke="#63b8ff" d="M1931.68,-171.11C2058.15,-166.21 2340.13,-153.37 2576.5,-129 2579.69,-128.67 2582.97,-128.3 2586.28,-127.89"/>
<polygon fill="#63b8ff" stroke="#63b8ff" points="1931.25,-167.62 1921.39,-171.5 1931.52,-174.62 1931.25,-167.62"/>
</g>
<!-- Node24 -->
<g id="node24" class="node">
<title>Node24</title>
<g id="a_node24"><a xlink:href="_to_entity_8hpp.html" target="_top" xlink:title=" ">
<polygon fill="white" stroke="#666666" points="2774,-129 2703,-129 2703,-110 2774,-110 2774,-129"/>
<text text-anchor="middle" x="2738.5" y="-117" font-family="Helvetica,sans-Serif" font-size="10.00">ToEntity.hpp</text>
</a>
</g>
</g>
<!-- Node2&#45;&gt;Node24 -->
<g id="edge23" class="edge">
<title>Node2&#45;&gt;Node24</title>
<path fill="none" stroke="#63b8ff" d="M1931.24,-172.92C2072.42,-171.05 2411.51,-163.05 2693.5,-129 2696.5,-128.64 2699.6,-128.2 2702.71,-127.71"/>
<polygon fill="#63b8ff" stroke="#63b8ff" points="1930.97,-169.43 1921.01,-173.05 1931.06,-176.43 1930.97,-169.43"/>
</g>
<!-- Node27 -->
<g id="node27" class="node">
<title>Node27</title>
<g id="a_node27"><a xlink:href="_user_entities_8cpp.html" target="_top" xlink:title=" ">
<polygon fill="white" stroke="#666666" points="2881,-129 2792,-129 2792,-110 2881,-110 2881,-129"/>
<text text-anchor="middle" x="2836.5" y="-117" font-family="Helvetica,sans-Serif" font-size="10.00">UserEntities.cpp</text>
</a>
</g>
</g>
<!-- Node2&#45;&gt;Node27 -->
<g id="edge26" class="edge">
<title>Node2&#45;&gt;Node27</title>
<path fill="none" stroke="#63b8ff" d="M1931.15,-172.73C2082.73,-170.43 2464.8,-161.61 2782.5,-129 2785.52,-128.69 2788.63,-128.32 2791.76,-127.92"/>
<polygon fill="#63b8ff" stroke="#63b8ff" points="1931.02,-169.23 1921.07,-172.87 1931.12,-176.23 1931.02,-169.23"/>
</g>
<!-- Node28 -->
<g id="node28" class="node">
<title>Node28</title>
<g id="a_node28"><a xlink:href="_utilities_8cpp.html" target="_top" xlink:title=" ">
<polygon fill="white" stroke="#666666" points="2967.5,-129 2899.5,-129 2899.5,-110 2967.5,-110 2967.5,-129"/>
<text text-anchor="middle" x="2933.5" y="-117" font-family="Helvetica,sans-Serif" font-size="10.00">Utilities.cpp</text>
</a>
</g>
</g>
<!-- Node2&#45;&gt;Node28 -->
<g id="edge27" class="edge">
<title>Node2&#45;&gt;Node28</title>
<path fill="none" stroke="#63b8ff" d="M1931.53,-174C2095.59,-174.48 2530.1,-171.28 2889.5,-129 2892.75,-128.62 2896.11,-128.13 2899.47,-127.59"/>
<polygon fill="#63b8ff" stroke="#63b8ff" points="1931.14,-170.5 1921.12,-173.96 1931.11,-177.5 1931.14,-170.5"/>
</g>
<!-- Node29 -->
<g id="node29" class="node">
<title>Node29</title>
<g id="a_node29"><a xlink:href="_voice_connection_8cpp.html" target="_top" xlink:title=" ">
<polygon fill="white" stroke="#666666" points="3095,-129 2986,-129 2986,-110 3095,-110 3095,-129"/>
<text text-anchor="middle" x="3040.5" y="-117" font-family="Helvetica,sans-Serif" font-size="10.00">VoiceConnection.cpp</text>
</a>
</g>
</g>
<!-- Node2&#45;&gt;Node29 -->
<g id="edge28" class="edge">
<title>Node2&#45;&gt;Node29</title>
<path fill="none" stroke="#63b8ff" d="M1931.24,-172.97C2104.21,-171.13 2581.06,-163.1 2976.5,-129 2979.52,-128.74 2982.61,-128.44 2985.72,-128.11"/>
<polygon fill="#63b8ff" stroke="#63b8ff" points="1930.99,-169.47 1921.03,-173.07 1931.06,-176.47 1930.99,-169.47"/>
</g>
<!-- Node30 -->
<g id="node30" class="node">
<title>Node30</title>
<g id="a_node30"><a xlink:href="_web_hook_entities_8cpp.html" target="_top" xlink:title=" ">
<polygon fill="white" stroke="#666666" points="3224,-129 3113,-129 3113,-110 3224,-110 3224,-129"/>
<text text-anchor="middle" x="3168.5" y="-117" font-family="Helvetica,sans-Serif" font-size="10.00">WebHookEntities.cpp</text>
</a>
</g>
</g>
<!-- Node2&#45;&gt;Node30 -->
<g id="edge29" class="edge">
<title>Node2&#45;&gt;Node30</title>
<path fill="none" stroke="#63b8ff" d="M1931.28,-173.31C2117.27,-172.3 2656.93,-166.14 3103.5,-129 3106.56,-128.75 3109.7,-128.45 3112.87,-128.12"/>
<polygon fill="#63b8ff" stroke="#63b8ff" points="1931.09,-169.81 1921.11,-173.36 1931.13,-176.81 1931.09,-169.81"/>
</g>
<!-- Node2&#45;&gt;Node31 -->
<g id="edge30" class="edge">
<title>Node2&#45;&gt;Node31</title>
<path fill="none" stroke="#63b8ff" d="M1931.4,-173.86C2140.05,-174.46 2797.37,-172.52 3339.5,-129 3342.56,-128.75 3345.7,-128.47 3348.87,-128.15"/>
<polygon fill="#63b8ff" stroke="#63b8ff" points="1931.23,-170.36 1921.22,-173.82 1931.21,-177.36 1931.23,-170.36"/>
</g>
<!-- Node32 -->
<g id="node32" class="node">
<title>Node32</title>
<g id="a_node32"><a xlink:href="_you_tube_a_p_i_8cpp.html" target="_top" xlink:title=" ">
<polygon fill="white" stroke="#666666" points="3331,-129 3242,-129 3242,-110 3331,-110 3331,-129"/>
<text text-anchor="middle" x="3286.5" y="-117" font-family="Helvetica,sans-Serif" font-size="10.00">YouTubeAPI.cpp</text>
</a>
</g>
</g>
<!-- Node2&#45;&gt;Node32 -->
<g id="edge31" class="edge">
<title>Node2&#45;&gt;Node32</title>
<path fill="none" stroke="#63b8ff" d="M1931.31,-172.42C2169.35,-168.41 2975.5,-153.31 3232.5,-129 3235.52,-128.71 3238.63,-128.37 3241.76,-127.98"/>
<polygon fill="#63b8ff" stroke="#63b8ff" points="1931.02,-168.93 1921.08,-172.59 1931.13,-175.93 1931.02,-168.93"/>
</g>
<!-- Node25 -->
<g id="node25" class="node">
<title>Node25</title>
<g id="a_node25"><a xlink:href="_index_8hpp.html" target="_top" xlink:title=" ">
<polygon fill="white" stroke="#666666" points="2768,-74 2709,-74 2709,-55 2768,-55 2768,-74"/>
<text text-anchor="middle" x="2738.5" y="-62" font-family="Helvetica,sans-Serif" font-size="10.00">Index.hpp</text>
</a>
</g>
</g>
<!-- Node24&#45;&gt;Node25 -->
<g id="edge24" class="edge">
<title>Node24&#45;&gt;Node25</title>
<path fill="none" stroke="#63b8ff" d="M2738.5,-99.66C2738.5,-90.93 2738.5,-80.99 2738.5,-74.09"/>
<polygon fill="#63b8ff" stroke="#63b8ff" points="2735,-99.75 2738.5,-109.75 2742,-99.75 2735,-99.75"/>
</g>
<!-- Node26 -->
<g id="node26" class="node">
<title>Node26</title>
<g id="a_node26"><a xlink:href="_dll_main_8cpp.html" target="_top" xlink:title=" ">
<polygon fill="white" stroke="#666666" points="2772.5,-19 2704.5,-19 2704.5,0 2772.5,0 2772.5,-19"/>
<text text-anchor="middle" x="2738.5" y="-7" font-family="Helvetica,sans-Serif" font-size="10.00">DllMain.cpp</text>
</a>
</g>
</g>
<!-- Node25&#45;&gt;Node26 -->
<g id="edge25" class="edge">
<title>Node25&#45;&gt;Node26</title>
<path fill="none" stroke="#63b8ff" d="M2738.5,-44.66C2738.5,-35.93 2738.5,-25.99 2738.5,-19.09"/>
<polygon fill="#63b8ff" stroke="#63b8ff" points="2735,-44.75 2738.5,-54.75 2742,-44.75 2735,-44.75"/>
</g>
</g>
</svg>
