<?xml version="1.0" encoding="UTF-8" standalone="no"?>
<!DOCTYPE svg PUBLIC "-//W3C//DTD SVG 1.1//EN"
 "http://www.w3.org/Graphics/SVG/1.1/DTD/svg11.dtd">
<!-- Generated by graphviz version 2.43.0 (0)
 -->
<!-- Title: GuildMemberEntities.hpp Pages: 1 -->
<svg width="3735pt" height="412pt"
 viewBox="0.00 0.00 3734.50 412.00" xmlns="http://www.w3.org/2000/svg" xmlns:xlink="http://www.w3.org/1999/xlink">
<g id="graph0" class="graph" transform="scale(1 1) rotate(0) translate(4 408)">
<title>GuildMemberEntities.hpp</title>
<!-- Node1 -->
<g id="Node000001" class="node">
<title>Node1</title>
<g id="a_Node000001"><a xlink:title=" ">
<polygon fill="#999999" stroke="#666666" points="3057.5,-404 2917.5,-404 2917.5,-385 3057.5,-385 3057.5,-404"/>
<text text-anchor="middle" x="2987.5" y="-392" font-family="Helvetica,sans-Serif" font-size="10.00">GuildMemberEntities.hpp</text>
</a>
</g>
</g>
<!-- Node2 -->
<g id="Node000002" class="node">
<title>Node2</title>
<g id="a_Node000002"><a xlink:href="_discord_core_client_8hpp.html" target="_top" xlink:title=" ">
<polygon fill="white" stroke="#666666" points="2187,-184 2062,-184 2062,-165 2187,-165 2187,-184"/>
<text text-anchor="middle" x="2124.5" y="-172" font-family="Helvetica,sans-Serif" font-size="10.00">DiscordCoreClient.hpp</text>
</a>
</g>
</g>
<!-- Node1&#45;&gt;Node2 -->
<g id="edge1_Node000001_Node000002" class="edge">
<title>Node1&#45;&gt;Node2</title>
<g id="a_edge1_Node000001_Node000002"><a xlink:title=" ">
<path fill="none" stroke="#63b8ff" d="M2943.21,-382.49C2841.93,-357.28 2585.62,-293.38 2371.5,-239 2294.9,-219.55 2205.03,-196.35 2157.64,-184.09"/>
<polygon fill="#63b8ff" stroke="#63b8ff" points="2942.54,-385.93 2953.09,-384.94 2944.23,-379.13 2942.54,-385.93"/>
</a>
</g>
</g>
<!-- Node9 -->
<g id="Node000009" class="node">
<title>Node9</title>
<g id="a_Node000009"><a xlink:href="_foundation_entities_8cpp.html" target="_top" xlink:title=" ">
<polygon fill="white" stroke="#666666" points="3726.5,-129 3598.5,-129 3598.5,-110 3726.5,-110 3726.5,-129"/>
<text text-anchor="middle" x="3662.5" y="-117" font-family="Helvetica,sans-Serif" font-size="10.00">FoundationEntities.cpp</text>
</a>
</g>
</g>
<!-- Node1&#45;&gt;Node9 -->
<g id="edge36_Node000001_Node000009" class="edge">
<title>Node1&#45;&gt;Node9</title>
<g id="a_edge36_Node000001_Node000009"><a xlink:title=" ">
<path fill="none" stroke="#63b8ff" d="M3067.83,-388.85C3245.97,-377.47 3658.5,-344.71 3658.5,-285.5 3658.5,-285.5 3658.5,-285.5 3658.5,-228.5 3658.5,-191.54 3660.87,-147.51 3661.96,-129.18"/>
<polygon fill="#63b8ff" stroke="#63b8ff" points="3067.48,-385.37 3057.72,-389.49 3067.93,-392.35 3067.48,-385.37"/>
</a>
</g>
</g>
<!-- Node11 -->
<g id="Node000011" class="node">
<title>Node11</title>
<g id="a_Node000011"><a xlink:href="_guild_member_entities_8cpp.html" target="_top" xlink:title=" ">
<polygon fill="white" stroke="#666666" points="3367.5,-129 3227.5,-129 3227.5,-110 3367.5,-110 3367.5,-129"/>
<text text-anchor="middle" x="3297.5" y="-117" font-family="Helvetica,sans-Serif" font-size="10.00">GuildMemberEntities.cpp</text>
</a>
</g>
</g>
<!-- Node1&#45;&gt;Node11 -->
<g id="edge37_Node000001_Node000011" class="edge">
<title>Node1&#45;&gt;Node11</title>
<g id="a_edge37_Node000001_Node000011"><a xlink:title=" ">
<path fill="none" stroke="#63b8ff" d="M3068.2,-391.91C3143.23,-385.63 3243.5,-362.78 3243.5,-285.5 3243.5,-285.5 3243.5,-285.5 3243.5,-228.5 3243.5,-187.62 3274.83,-146.36 3289.76,-129.01"/>
<polygon fill="#63b8ff" stroke="#63b8ff" points="3067.5,-388.46 3057.79,-392.69 3068.03,-395.44 3067.5,-388.46"/>
</a>
</g>
</g>
<!-- Node28 -->
<g id="Node000028" class="node">
<title>Node28</title>
<g id="a_Node000028"><a xlink:href="_utilities_8cpp.html" target="_top" xlink:title=" ">
<polygon fill="white" stroke="#666666" points="75,-129 0,-129 0,-110 75,-110 75,-129"/>
<text text-anchor="middle" x="37.5" y="-117" font-family="Helvetica,sans-Serif" font-size="10.00">Utilities.cpp</text>
</a>
</g>
</g>
<!-- Node1&#45;&gt;Node28 -->
<g id="edge56_Node000001_Node000028" class="edge">
<title>Node1&#45;&gt;Node28</title>
<g id="a_edge56_Node000001_Node000028"><a xlink:title=" ">
<path fill="none" stroke="#63b8ff" d="M2907.14,-393.5C2530.65,-392.97 959.5,-384.81 959.5,-285.5 959.5,-285.5 959.5,-285.5 959.5,-228.5 959.5,-130.54 180.39,-143.44 83.5,-129 80.77,-128.59 77.95,-128.14 75.12,-127.67"/>
<polygon fill="#63b8ff" stroke="#63b8ff" points="2907.39,-397 2917.4,-393.51 2907.4,-390 2907.39,-397"/>
</a>
</g>
</g>
<!-- Node33 -->
<g id="Node000033" class="node">
<title>Node33</title>
<g id="a_Node000033"><a xlink:href="_event_manager_8hpp.html" target="_top" xlink:title=" ">
<polygon fill="white" stroke="#666666" points="2096,-239 1989,-239 1989,-220 2096,-220 2096,-239"/>
<text text-anchor="middle" x="2042.5" y="-227" font-family="Helvetica,sans-Serif" font-size="10.00">EventManager.hpp</text>
</a>
</g>
</g>
<!-- Node1&#45;&gt;Node33 -->
<g id="edge32_Node000001_Node000033" class="edge">
<title>Node1&#45;&gt;Node33</title>
<g id="a_edge32_Node000001_Node000033"><a xlink:title=" ">
<path fill="none" stroke="#63b8ff" d="M2907.2,-393.77C2703.37,-393.84 2177.35,-390.01 2110.5,-349 2068.65,-323.33 2050.02,-261.69 2044.42,-239.04"/>
<polygon fill="#63b8ff" stroke="#63b8ff" points="2907.24,-397.27 2917.24,-393.76 2907.24,-390.27 2907.24,-397.27"/>
</a>
</g>
</g>
<!-- Node34 -->
<g id="Node000034" class="node">
<title>Node34</title>
<g id="a_Node000034"><a xlink:href="_role_entities_8hpp.html" target="_top" xlink:title=" ">
<polygon fill="white" stroke="#666666" points="3035.5,-349 2939.5,-349 2939.5,-330 3035.5,-330 3035.5,-349"/>
<text text-anchor="middle" x="2987.5" y="-337" font-family="Helvetica,sans-Serif" font-size="10.00">RoleEntities.hpp</text>
</a>
</g>
</g>
<!-- Node1&#45;&gt;Node34 -->
<g id="edge38_Node000001_Node000034" class="edge">
<title>Node1&#45;&gt;Node34</title>
<g id="a_edge38_Node000001_Node000034"><a xlink:title=" ">
<path fill="none" stroke="#63b8ff" d="M2987.5,-374.66C2987.5,-365.93 2987.5,-355.99 2987.5,-349.09"/>
<polygon fill="#63b8ff" stroke="#63b8ff" points="2984,-374.75 2987.5,-384.75 2991,-374.75 2984,-374.75"/>
</a>
</g>
</g>
<!-- Node36 -->
<g id="Node000036" class="node">
<title>Node36</title>
<g id="a_Node000036"><a xlink:href="_song_a_p_i_8hpp.html" target="_top" xlink:title=" ">
<polygon fill="white" stroke="#666666" points="3430,-239 3353,-239 3353,-220 3430,-220 3430,-239"/>
<text text-anchor="middle" x="3391.5" y="-227" font-family="Helvetica,sans-Serif" font-size="10.00">SongAPI.hpp</text>
</a>
</g>
</g>
<!-- Node1&#45;&gt;Node36 -->
<g id="edge52_Node000001_Node000036" class="edge">
<title>Node1&#45;&gt;Node36</title>
<g id="a_edge52_Node000001_Node000036"><a xlink:title=" ">
<path fill="none" stroke="#63b8ff" d="M3067.94,-391.86C3123.54,-388.01 3197.92,-377.32 3257.5,-349 3315.28,-321.54 3366.84,-261.54 3384.77,-239.15"/>
<polygon fill="#63b8ff" stroke="#63b8ff" points="3067.54,-388.38 3057.78,-392.51 3067.99,-395.37 3067.54,-388.38"/>
</a>
</g>
</g>
<!-- Node3 -->
<g id="Node000003" class="node">
<title>Node3</title>
<g id="a_Node000003"><a xlink:href="_application_command_entities_8cpp.html" target="_top" xlink:title=" ">
<polygon fill="white" stroke="#666666" points="2532,-129 2353,-129 2353,-110 2532,-110 2532,-129"/>
<text text-anchor="middle" x="2442.5" y="-117" font-family="Helvetica,sans-Serif" font-size="10.00">ApplicationCommandEntities.cpp</text>
</a>
</g>
</g>
<!-- Node2&#45;&gt;Node3 -->
<g id="edge2_Node000002_Node000003" class="edge">
<title>Node2&#45;&gt;Node3</title>
<g id="a_edge2_Node000002_Node000003"><a xlink:title=" ">
<path fill="none" stroke="#63b8ff" d="M2185.64,-163.31C2245.36,-153.36 2335.2,-138.38 2391.27,-129.04"/>
<polygon fill="#63b8ff" stroke="#63b8ff" points="2184.88,-159.89 2175.59,-164.98 2186.03,-166.79 2184.88,-159.89"/>
</a>
</g>
</g>
<!-- Node4 -->
<g id="Node000004" class="node">
<title>Node4</title>
<g id="a_Node000004"><a xlink:href="_auto_moderation_entities_8cpp.html" target="_top" xlink:title=" ">
<polygon fill="white" stroke="#666666" points="1907.5,-129 1755.5,-129 1755.5,-110 1907.5,-110 1907.5,-129"/>
<text text-anchor="middle" x="1831.5" y="-117" font-family="Helvetica,sans-Serif" font-size="10.00">AutoModerationEntities.cpp</text>
</a>
</g>
</g>
<!-- Node2&#45;&gt;Node4 -->
<g id="edge3_Node000002_Node000004" class="edge">
<title>Node2&#45;&gt;Node4</title>
<g id="a_edge3_Node000002_Node000004"><a xlink:title=" ">
<path fill="none" stroke="#63b8ff" d="M2067.5,-163.19C2012.56,-153.25 1930.41,-138.39 1878.94,-129.08"/>
<polygon fill="#63b8ff" stroke="#63b8ff" points="2066.96,-166.65 2077.42,-164.98 2068.21,-159.76 2066.96,-166.65"/>
</a>
</g>
</g>
<!-- Node5 -->
<g id="Node000005" class="node">
<title>Node5</title>
<g id="a_Node000005"><a xlink:href="_channel_entities_8cpp.html" target="_top" xlink:title=" ">
<polygon fill="white" stroke="#666666" points="2039,-129 1926,-129 1926,-110 2039,-110 2039,-129"/>
<text text-anchor="middle" x="1982.5" y="-117" font-family="Helvetica,sans-Serif" font-size="10.00">ChannelEntities.cpp</text>
</a>
</g>
</g>
<!-- Node2&#45;&gt;Node5 -->
<g id="edge4_Node000002_Node000005" class="edge">
<title>Node2&#45;&gt;Node5</title>
<g id="a_edge4_Node000002_Node000005"><a xlink:title=" ">
<path fill="none" stroke="#63b8ff" d="M2092.14,-161.42C2065.79,-151.59 2029.24,-137.95 2005.73,-129.17"/>
<polygon fill="#63b8ff" stroke="#63b8ff" points="2091.09,-164.77 2101.69,-164.98 2093.54,-158.21 2091.09,-164.77"/>
</a>
</g>
</g>
<!-- Node6 -->
<g id="Node000006" class="node">
<title>Node6</title>
<g id="a_Node000006"><a xlink:href="_command_controller_8cpp.html" target="_top" xlink:title=" ">
<polygon fill="white" stroke="#666666" points="2191.5,-129 2057.5,-129 2057.5,-110 2191.5,-110 2191.5,-129"/>
<text text-anchor="middle" x="2124.5" y="-117" font-family="Helvetica,sans-Serif" font-size="10.00">CommandController.cpp</text>
</a>
</g>
</g>
<!-- Node2&#45;&gt;Node6 -->
<g id="edge5_Node000002_Node000006" class="edge">
<title>Node2&#45;&gt;Node6</title>
<g id="a_edge5_Node000002_Node000006"><a xlink:title=" ">
<path fill="none" stroke="#63b8ff" d="M2124.5,-154.66C2124.5,-145.93 2124.5,-135.99 2124.5,-129.09"/>
<polygon fill="#63b8ff" stroke="#63b8ff" points="2121,-154.75 2124.5,-164.75 2128,-154.75 2121,-154.75"/>
</a>
</g>
</g>
<!-- Node7 -->
<g id="Node000007" class="node">
<title>Node7</title>
<g id="a_Node000007"><a xlink:href="_discord_core_client_8cpp.html" target="_top" xlink:title=" ">
<polygon fill="white" stroke="#666666" points="2335,-129 2210,-129 2210,-110 2335,-110 2335,-129"/>
<text text-anchor="middle" x="2272.5" y="-117" font-family="Helvetica,sans-Serif" font-size="10.00">DiscordCoreClient.cpp</text>
</a>
</g>
</g>
<!-- Node2&#45;&gt;Node7 -->
<g id="edge6_Node000002_Node000007" class="edge">
<title>Node2&#45;&gt;Node7</title>
<g id="a_edge6_Node000002_Node000007"><a xlink:title=" ">
<path fill="none" stroke="#63b8ff" d="M2157.87,-161.55C2185.35,-151.71 2223.67,-137.98 2248.29,-129.17"/>
<polygon fill="#63b8ff" stroke="#63b8ff" points="2156.51,-158.32 2148.28,-164.98 2158.87,-164.91 2156.51,-158.32"/>
</a>
</g>
</g>
<!-- Node8 -->
<g id="Node000008" class="node">
<title>Node8</title>
<g id="a_Node000008"><a xlink:href="_event_manager_8cpp.html" target="_top" xlink:title=" ">
<polygon fill="white" stroke="#666666" points="200,-129 93,-129 93,-110 200,-110 200,-129"/>
<text text-anchor="middle" x="146.5" y="-117" font-family="Helvetica,sans-Serif" font-size="10.00">EventManager.cpp</text>
</a>
</g>
</g>
<!-- Node2&#45;&gt;Node8 -->
<g id="edge7_Node000002_Node000008" class="edge">
<title>Node2&#45;&gt;Node8</title>
<g id="a_edge7_Node000002_Node000008"><a xlink:title=" ">
<path fill="none" stroke="#63b8ff" d="M2051.78,-167.53C2037.76,-166.55 2023.18,-165.64 2009.5,-165 1209.78,-127.48 1006.66,-191.48 208.5,-129 205.79,-128.79 203.02,-128.54 200.23,-128.25"/>
<polygon fill="#63b8ff" stroke="#63b8ff" points="2051.64,-171.03 2061.87,-168.26 2052.15,-164.05 2051.64,-171.03"/>
</a>
</g>
</g>
<!-- Node2&#45;&gt;Node9 -->
<g id="edge8_Node000002_Node000009" class="edge">
<title>Node2&#45;&gt;Node9</title>
<g id="a_edge8_Node000002_Node000009"><a xlink:title=" ">
<path fill="none" stroke="#63b8ff" d="M2197.22,-173.49C2411.04,-172.99 3056.1,-168.08 3589.5,-129 3592.43,-128.79 3595.42,-128.54 3598.44,-128.27"/>
<polygon fill="#63b8ff" stroke="#63b8ff" points="2197.06,-169.99 2187.07,-173.51 2197.08,-176.99 2197.06,-169.99"/>
</a>
</g>
</g>
<!-- Node10 -->
<g id="Node000010" class="node">
<title>Node10</title>
<g id="a_Node000010"><a xlink:href="_guild_entities_8cpp.html" target="_top" xlink:title=" ">
<polygon fill="white" stroke="#666666" points="3485,-129 3386,-129 3386,-110 3485,-110 3485,-129"/>
<text text-anchor="middle" x="3435.5" y="-117" font-family="Helvetica,sans-Serif" font-size="10.00">GuildEntities.cpp</text>
</a>
</g>
</g>
<!-- Node2&#45;&gt;Node10 -->
<g id="edge9_Node000002_Node000010" class="edge">
<title>Node2&#45;&gt;Node10</title>
<g id="a_edge9_Node000002_Node000010"><a xlink:title=" ">
<path fill="none" stroke="#63b8ff" d="M2197.19,-173.64C2389.87,-173.44 2929.57,-169.02 3376.5,-129 3379.59,-128.72 3382.77,-128.39 3385.97,-128.03"/>
<polygon fill="#63b8ff" stroke="#63b8ff" points="2197.18,-170.14 2187.18,-173.65 2197.18,-177.14 2197.18,-170.14"/>
</a>
</g>
</g>
<!-- Node2&#45;&gt;Node11 -->
<g id="edge10_Node000002_Node000011" class="edge">
<title>Node2&#45;&gt;Node11</title>
<g id="a_edge10_Node000002_Node000011"><a xlink:title=" ">
<path fill="none" stroke="#63b8ff" d="M2197.34,-172.21C2373.12,-168.74 2834.45,-157.44 3218.5,-129 3221.39,-128.79 3224.34,-128.55 3227.31,-128.3"/>
<polygon fill="#63b8ff" stroke="#63b8ff" points="2197.11,-168.71 2187.18,-172.41 2197.24,-175.71 2197.11,-168.71"/>
</a>
</g>
</g>
<!-- Node12 -->
<g id="Node000012" class="node">
<title>Node12</title>
<g id="a_Node000012"><a xlink:href="_guild_scheduled_event_entities_8cpp.html" target="_top" xlink:title=" ">
<polygon fill="white" stroke="#666666" points="2727,-129 2550,-129 2550,-110 2727,-110 2727,-129"/>
<text text-anchor="middle" x="2638.5" y="-117" font-family="Helvetica,sans-Serif" font-size="10.00">GuildScheduledEventEntities.cpp</text>
</a>
</g>
</g>
<!-- Node2&#45;&gt;Node12 -->
<g id="edge11_Node000002_Node000012" class="edge">
<title>Node2&#45;&gt;Node12</title>
<g id="a_edge11_Node000002_Node000012"><a xlink:title=" ">
<path fill="none" stroke="#63b8ff" d="M2197.05,-166.02C2291.54,-156.28 2456.34,-139.28 2555.64,-129.04"/>
<polygon fill="#63b8ff" stroke="#63b8ff" points="2196.6,-162.55 2187.01,-167.05 2197.32,-169.51 2196.6,-162.55"/>
</a>
</g>
</g>
<!-- Node13 -->
<g id="Node000013" class="node">
<title>Node13</title>
<g id="a_Node000013"><a xlink:href="_https_client_8cpp.html" target="_top" xlink:title=" ">
<polygon fill="white" stroke="#666666" points="2837.5,-129 2745.5,-129 2745.5,-110 2837.5,-110 2837.5,-129"/>
<text text-anchor="middle" x="2791.5" y="-117" font-family="Helvetica,sans-Serif" font-size="10.00">HttpsClient.cpp</text>
</a>
</g>
</g>
<!-- Node2&#45;&gt;Node13 -->
<g id="edge12_Node000002_Node000013" class="edge">
<title>Node2&#45;&gt;Node13</title>
<g id="a_edge12_Node000002_Node000013"><a xlink:title=" ">
<path fill="none" stroke="#63b8ff" d="M2197.29,-170.11C2312.13,-164.34 2542.3,-151.03 2736.5,-129 2739.38,-128.67 2742.34,-128.31 2745.32,-127.91"/>
<polygon fill="#63b8ff" stroke="#63b8ff" points="2197.02,-166.62 2187.21,-170.61 2197.37,-173.61 2197.02,-166.62"/>
</a>
</g>
</g>
<!-- Node14 -->
<g id="Node000014" class="node">
<title>Node14</title>
<g id="a_Node000014"><a xlink:href="_input_events_8cpp.html" target="_top" xlink:title=" ">
<polygon fill="white" stroke="#666666" points="2951,-129 2856,-129 2856,-110 2951,-110 2951,-129"/>
<text text-anchor="middle" x="2903.5" y="-117" font-family="Helvetica,sans-Serif" font-size="10.00">InputEvents.cpp</text>
</a>
</g>
</g>
<!-- Node2&#45;&gt;Node14 -->
<g id="edge13_Node000002_Node000014" class="edge">
<title>Node2&#45;&gt;Node14</title>
<g id="a_edge13_Node000002_Node000014"><a xlink:title=" ">
<path fill="none" stroke="#63b8ff" d="M2197.7,-171.08C2328.3,-166.3 2609.98,-153.88 2846.5,-129 2849.58,-128.68 2852.76,-128.31 2855.95,-127.9"/>
<polygon fill="#63b8ff" stroke="#63b8ff" points="2197.29,-167.59 2187.43,-171.45 2197.55,-174.59 2197.29,-167.59"/>
</a>
</g>
</g>
<!-- Node15 -->
<g id="Node000015" class="node">
<title>Node15</title>
<g id="a_Node000015"><a xlink:href="_interaction_entities_8cpp.html" target="_top" xlink:title=" ">
<polygon fill="white" stroke="#666666" points="3095.5,-129 2969.5,-129 2969.5,-110 3095.5,-110 3095.5,-129"/>
<text text-anchor="middle" x="3032.5" y="-117" font-family="Helvetica,sans-Serif" font-size="10.00">InteractionEntities.cpp</text>
</a>
</g>
</g>
<!-- Node2&#45;&gt;Node15 -->
<g id="edge14_Node000002_Node000015" class="edge">
<title>Node2&#45;&gt;Node15</title>
<g id="a_edge14_Node000002_Node000015"><a xlink:title=" ">
<path fill="none" stroke="#63b8ff" d="M2197.39,-171.2C2342.74,-166.26 2678.89,-153.09 2960.5,-129 2963.38,-128.75 2966.33,-128.48 2969.31,-128.19"/>
<polygon fill="#63b8ff" stroke="#63b8ff" points="2197.13,-167.7 2187.26,-171.54 2197.37,-174.7 2197.13,-167.7"/>
</a>
</g>
</g>
<!-- Node16 -->
<g id="Node000016" class="node">
<title>Node16</title>
<g id="a_Node000016"><a xlink:href="_message_entities_8cpp.html" target="_top" xlink:title=" ">
<polygon fill="white" stroke="#666666" points="472,-129 355,-129 355,-110 472,-110 472,-129"/>
<text text-anchor="middle" x="413.5" y="-117" font-family="Helvetica,sans-Serif" font-size="10.00">MessageEntities.cpp</text>
</a>
</g>
</g>
<!-- Node2&#45;&gt;Node16 -->
<g id="edge15_Node000002_Node000016" class="edge">
<title>Node2&#45;&gt;Node16</title>
<g id="a_edge15_Node000002_Node000016"><a xlink:title=" ">
<path fill="none" stroke="#63b8ff" d="M2051.94,-165.31C2050.45,-165.2 2048.97,-165.1 2047.5,-165 1352.85,-118.76 1175.8,-180.24 481.5,-129 478.42,-128.77 475.26,-128.5 472.07,-128.2"/>
<polygon fill="#63b8ff" stroke="#63b8ff" points="2051.67,-168.8 2061.93,-166.13 2052.24,-161.83 2051.67,-168.8"/>
</a>
</g>
</g>
<!-- Node17 -->
<g id="Node000017" class="node">
<title>Node17</title>
<g id="a_Node000017"><a xlink:href="_reaction_entities_8cpp.html" target="_top" xlink:title=" ">
<polygon fill="white" stroke="#666666" points="606.5,-129 490.5,-129 490.5,-110 606.5,-110 606.5,-129"/>
<text text-anchor="middle" x="548.5" y="-117" font-family="Helvetica,sans-Serif" font-size="10.00">ReactionEntities.cpp</text>
</a>
</g>
</g>
<!-- Node2&#45;&gt;Node17 -->
<g id="edge16_Node000002_Node000017" class="edge">
<title>Node2&#45;&gt;Node17</title>
<g id="a_edge16_Node000002_Node000017"><a xlink:title=" ">
<path fill="none" stroke="#63b8ff" d="M2051.94,-165.32C2050.45,-165.21 2048.97,-165.1 2047.5,-165 1412.31,-122.03 1250.32,-177.12 615.5,-129 612.58,-128.78 609.59,-128.52 606.57,-128.23"/>
<polygon fill="#63b8ff" stroke="#63b8ff" points="2051.67,-168.81 2061.92,-166.14 2052.25,-161.83 2051.67,-168.81"/>
</a>
</g>
</g>
<!-- Node18 -->
<g id="Node000018" class="node">
<title>Node18</title>
<g id="a_Node000018"><a xlink:href="_role_entities_8cpp.html" target="_top" xlink:title=" ">
<polygon fill="white" stroke="#666666" points="3209,-129 3114,-129 3114,-110 3209,-110 3209,-129"/>
<text text-anchor="middle" x="3161.5" y="-117" font-family="Helvetica,sans-Serif" font-size="10.00">RoleEntities.cpp</text>
</a>
</g>
</g>
<!-- Node2&#45;&gt;Node18 -->
<g id="edge17_Node000002_Node000018" class="edge">
<title>Node2&#45;&gt;Node18</title>
<g id="a_edge17_Node000002_Node000018"><a xlink:title=" ">
<path fill="none" stroke="#63b8ff" d="M2197.53,-172.74C2360.58,-170.49 2766.53,-161.79 3104.5,-129 3107.59,-128.7 3110.76,-128.35 3113.96,-127.96"/>
<polygon fill="#63b8ff" stroke="#63b8ff" points="2197.1,-169.25 2187.14,-172.88 2197.19,-176.25 2197.1,-169.25"/>
</a>
</g>
</g>
<!-- Node19 -->
<g id="Node000019" class="node">
<title>Node19</title>
<g id="a_Node000019"><a xlink:href="_song_a_p_i_8cpp.html" target="_top" xlink:title=" ">
<polygon fill="white" stroke="#666666" points="3580,-129 3503,-129 3503,-110 3580,-110 3580,-129"/>
<text text-anchor="middle" x="3541.5" y="-117" font-family="Helvetica,sans-Serif" font-size="10.00">SongAPI.cpp</text>
</a>
</g>
</g>
<!-- Node2&#45;&gt;Node19 -->
<g id="edge18_Node000002_Node000019" class="edge">
<title>Node2&#45;&gt;Node19</title>
<g id="a_edge18_Node000002_Node000019"><a xlink:title=" ">
<path fill="none" stroke="#63b8ff" d="M2197.27,-172.54C2442.79,-169.1 3239.48,-156.05 3494.5,-129 3497.22,-128.71 3500.02,-128.36 3502.84,-127.96"/>
<polygon fill="#63b8ff" stroke="#63b8ff" points="2196.99,-169.05 2187.04,-172.69 2197.08,-176.05 2196.99,-169.05"/>
</a>
</g>
</g>
<!-- Node20 -->
<g id="Node000020" class="node">
<title>Node20</title>
<g id="a_Node000020"><a xlink:href="_sound_cloud_a_p_i_8cpp.html" target="_top" xlink:title=" ">
<polygon fill="white" stroke="#666666" points="734.5,-129 624.5,-129 624.5,-110 734.5,-110 734.5,-129"/>
<text text-anchor="middle" x="679.5" y="-117" font-family="Helvetica,sans-Serif" font-size="10.00">SoundCloudAPI.cpp</text>
</a>
</g>
</g>
<!-- Node2&#45;&gt;Node20 -->
<g id="edge19_Node000002_Node000020" class="edge">
<title>Node2&#45;&gt;Node20</title>
<g id="a_edge19_Node000002_Node000020"><a xlink:title=" ">
<path fill="none" stroke="#63b8ff" d="M2051.94,-165.32C2050.45,-165.21 2048.97,-165.1 2047.5,-165 1469.54,-125.18 1322.03,-174.62 744.5,-129 741.32,-128.75 738.06,-128.45 734.78,-128.12"/>
<polygon fill="#63b8ff" stroke="#63b8ff" points="2051.67,-168.81 2061.92,-166.16 2052.25,-161.84 2051.67,-168.81"/>
</a>
</g>
</g>
<!-- Node21 -->
<g id="Node000021" class="node">
<title>Node21</title>
<g id="a_Node000021"><a xlink:href="_stage_instance_entities_8cpp.html" target="_top" xlink:title=" ">
<polygon fill="white" stroke="#666666" points="896,-129 753,-129 753,-110 896,-110 896,-129"/>
<text text-anchor="middle" x="824.5" y="-117" font-family="Helvetica,sans-Serif" font-size="10.00">StageInstanceEntities.cpp</text>
</a>
</g>
</g>
<!-- Node2&#45;&gt;Node21 -->
<g id="edge20_Node000002_Node000021" class="edge">
<title>Node2&#45;&gt;Node21</title>
<g id="a_edge20_Node000002_Node000021"><a xlink:title=" ">
<path fill="none" stroke="#63b8ff" d="M2051.94,-165.33C2050.45,-165.21 2048.97,-165.1 2047.5,-165 1540.96,-129.11 1412.13,-163.52 905.5,-129 902.4,-128.79 899.23,-128.55 896.03,-128.29"/>
<polygon fill="#63b8ff" stroke="#63b8ff" points="2051.66,-168.82 2061.92,-166.18 2052.25,-161.84 2051.66,-168.82"/>
</a>
</g>
</g>
<!-- Node22 -->
<g id="Node000022" class="node">
<title>Node22</title>
<g id="a_Node000022"><a xlink:href="_sticker_entities_8cpp.html" target="_top" xlink:title=" ">
<polygon fill="white" stroke="#666666" points="1021,-129 914,-129 914,-110 1021,-110 1021,-129"/>
<text text-anchor="middle" x="967.5" y="-117" font-family="Helvetica,sans-Serif" font-size="10.00">StickerEntities.cpp</text>
</a>
</g>
</g>
<!-- Node2&#45;&gt;Node22 -->
<g id="edge21_Node000002_Node000022" class="edge">
<title>Node2&#45;&gt;Node22</title>
<g id="a_edge21_Node000002_Node000022"><a xlink:title=" ">
<path fill="none" stroke="#63b8ff" d="M2051.94,-165.34C2050.45,-165.22 2048.97,-165.11 2047.5,-165 1596.41,-132.16 1481.16,-167.28 1030.5,-129 1027.42,-128.74 1024.26,-128.43 1021.08,-128.09"/>
<polygon fill="#63b8ff" stroke="#63b8ff" points="2051.66,-168.83 2061.92,-166.2 2052.26,-161.85 2051.66,-168.83"/>
</a>
</g>
</g>
<!-- Node23 -->
<g id="Node000023" class="node">
<title>Node23</title>
<g id="a_Node000023"><a xlink:href="_thread_entities_8cpp.html" target="_top" xlink:title=" ">
<polygon fill="white" stroke="#666666" points="1146,-129 1039,-129 1039,-110 1146,-110 1146,-129"/>
<text text-anchor="middle" x="1092.5" y="-117" font-family="Helvetica,sans-Serif" font-size="10.00">ThreadEntities.cpp</text>
</a>
</g>
</g>
<!-- Node2&#45;&gt;Node23 -->
<g id="edge22_Node000002_Node000023" class="edge">
<title>Node2&#45;&gt;Node23</title>
<g id="a_edge22_Node000002_Node000023"><a xlink:title=" ">
<path fill="none" stroke="#63b8ff" d="M2051.94,-165.35C2050.45,-165.23 2048.97,-165.11 2047.5,-165 1651.85,-135.21 1550.76,-163.56 1155.5,-129 1152.42,-128.73 1149.26,-128.42 1146.08,-128.08"/>
<polygon fill="#63b8ff" stroke="#63b8ff" points="2051.65,-168.84 2061.92,-166.22 2052.26,-161.86 2051.65,-168.84"/>
</a>
</g>
</g>
<!-- Node24 -->
<g id="Node000024" class="node">
<title>Node24</title>
<g id="a_Node000024"><a xlink:href="_to_entity_8hpp.html" target="_top" xlink:title=" ">
<polygon fill="white" stroke="#666666" points="1239,-129 1164,-129 1164,-110 1239,-110 1239,-129"/>
<text text-anchor="middle" x="1201.5" y="-117" font-family="Helvetica,sans-Serif" font-size="10.00">ToEntity.hpp</text>
</a>
</g>
</g>
<!-- Node2&#45;&gt;Node24 -->
<g id="edge23_Node000002_Node000024" class="edge">
<title>Node2&#45;&gt;Node24</title>
<g id="a_edge23_Node000002_Node000024"><a xlink:title=" ">
<path fill="none" stroke="#63b8ff" d="M2051.94,-165.36C2050.45,-165.23 2048.97,-165.11 2047.5,-165 1693.1,-137.48 1601.75,-168.72 1248.5,-129 1245.45,-128.66 1242.3,-128.24 1239.14,-127.77"/>
<polygon fill="#63b8ff" stroke="#63b8ff" points="2051.65,-168.85 2061.92,-166.25 2052.27,-161.87 2051.65,-168.85"/>
</a>
</g>
</g>
<!-- Node27 -->
<g id="Node000027" class="node">
<title>Node27</title>
<g id="a_Node000027"><a xlink:href="_user_entities_8cpp.html" target="_top" xlink:title=" ">
<polygon fill="white" stroke="#666666" points="1353.5,-129 1257.5,-129 1257.5,-110 1353.5,-110 1353.5,-129"/>
<text text-anchor="middle" x="1305.5" y="-117" font-family="Helvetica,sans-Serif" font-size="10.00">UserEntities.cpp</text>
</a>
</g>
</g>
<!-- Node2&#45;&gt;Node27 -->
<g id="edge26_Node000002_Node000027" class="edge">
<title>Node2&#45;&gt;Node27</title>
<g id="a_edge26_Node000002_Node000027"><a xlink:title=" ">
<path fill="none" stroke="#63b8ff" d="M2051.94,-165.37C2050.45,-165.24 2048.97,-165.12 2047.5,-165 1743.64,-140.26 1665.83,-159.52 1362.5,-129 1359.61,-128.71 1356.65,-128.38 1353.66,-128.01"/>
<polygon fill="#63b8ff" stroke="#63b8ff" points="2051.64,-168.86 2061.91,-166.29 2052.27,-161.89 2051.64,-168.86"/>
</a>
</g>
</g>
<!-- Node2&#45;&gt;Node28 -->
<g id="edge27_Node000002_Node000028" class="edge">
<title>Node2&#45;&gt;Node28</title>
<g id="a_edge27_Node000002_Node000028"><a xlink:title=" ">
<path fill="none" stroke="#63b8ff" d="M2051.71,-168.91C2026.34,-167.46 1997.67,-165.98 1971.5,-165 1552.16,-149.36 501,-171.27 83.5,-129 80.75,-128.72 77.92,-128.37 75.08,-127.96"/>
<polygon fill="#63b8ff" stroke="#63b8ff" points="2051.81,-172.42 2061.99,-169.51 2052.21,-165.44 2051.81,-172.42"/>
</a>
</g>
</g>
<!-- Node29 -->
<g id="Node000029" class="node">
<title>Node29</title>
<g id="a_Node000029"><a xlink:href="_voice_connection_8cpp.html" target="_top" xlink:title=" ">
<polygon fill="white" stroke="#666666" points="1489.5,-129 1371.5,-129 1371.5,-110 1489.5,-110 1489.5,-129"/>
<text text-anchor="middle" x="1430.5" y="-117" font-family="Helvetica,sans-Serif" font-size="10.00">VoiceConnection.cpp</text>
</a>
</g>
</g>
<!-- Node2&#45;&gt;Node29 -->
<g id="edge28_Node000002_Node000029" class="edge">
<title>Node2&#45;&gt;Node29</title>
<g id="a_edge28_Node000002_Node000029"><a xlink:title=" ">
<path fill="none" stroke="#63b8ff" d="M2051.94,-165.4C2050.45,-165.26 2048.97,-165.13 2047.5,-165 1803.92,-143.58 1741.92,-152.17 1498.5,-129 1495.66,-128.73 1492.75,-128.43 1489.82,-128.12"/>
<polygon fill="#63b8ff" stroke="#63b8ff" points="2051.62,-168.88 2061.91,-166.36 2052.29,-161.92 2051.62,-168.88"/>
</a>
</g>
</g>
<!-- Node30 -->
<g id="Node000030" class="node">
<title>Node30</title>
<g id="a_Node000030"><a xlink:href="_web_hook_entities_8cpp.html" target="_top" xlink:title=" ">
<polygon fill="white" stroke="#666666" points="1627.5,-129 1507.5,-129 1507.5,-110 1627.5,-110 1627.5,-129"/>
<text text-anchor="middle" x="1567.5" y="-117" font-family="Helvetica,sans-Serif" font-size="10.00">WebHookEntities.cpp</text>
</a>
</g>
</g>
<!-- Node2&#45;&gt;Node30 -->
<g id="edge29_Node000002_Node000030" class="edge">
<title>Node2&#45;&gt;Node30</title>
<g id="a_edge29_Node000002_Node000030"><a xlink:title=" ">
<path fill="none" stroke="#63b8ff" d="M2051.93,-165.44C2050.44,-165.29 2048.96,-165.14 2047.5,-165 1865.03,-146.94 1818.86,-148.21 1636.5,-129 1633.62,-128.7 1630.67,-128.38 1627.7,-128.04"/>
<polygon fill="#63b8ff" stroke="#63b8ff" points="2051.59,-168.93 2061.9,-166.47 2052.31,-161.96 2051.59,-168.93"/>
</a>
</g>
</g>
<!-- Node31 -->
<g id="Node000031" class="node">
<title>Node31</title>
<g id="a_Node000031"><a xlink:href="_web_socket_client_8cpp.html" target="_top" xlink:title=" ">
<polygon fill="white" stroke="#666666" points="337,-129 218,-129 218,-110 337,-110 337,-129"/>
<text text-anchor="middle" x="277.5" y="-117" font-family="Helvetica,sans-Serif" font-size="10.00">WebSocketClient.cpp</text>
</a>
</g>
</g>
<!-- Node2&#45;&gt;Node31 -->
<g id="edge30_Node000002_Node000031" class="edge">
<title>Node2&#45;&gt;Node31</title>
<g id="a_edge30_Node000002_Node000031"><a xlink:title=" ">
<path fill="none" stroke="#63b8ff" d="M2051.94,-165.31C2050.45,-165.2 2048.97,-165.1 2047.5,-165 1292.51,-115.44 1100.11,-184 345.5,-129 342.77,-128.8 339.98,-128.57 337.17,-128.31"/>
<polygon fill="#63b8ff" stroke="#63b8ff" points="2051.67,-168.8 2061.93,-166.12 2052.24,-161.82 2051.67,-168.8"/>
</a>
</g>
</g>
<!-- Node32 -->
<g id="Node000032" class="node">
<title>Node32</title>
<g id="a_Node000032"><a xlink:href="_you_tube_a_p_i_8cpp.html" target="_top" xlink:title=" ">
<polygon fill="white" stroke="#666666" points="1737.5,-129 1645.5,-129 1645.5,-110 1737.5,-110 1737.5,-129"/>
<text text-anchor="middle" x="1691.5" y="-117" font-family="Helvetica,sans-Serif" font-size="10.00">YouTubeAPI.cpp</text>
</a>
</g>
</g>
<!-- Node2&#45;&gt;Node32 -->
<g id="edge31_Node000002_Node000032" class="edge">
<title>Node2&#45;&gt;Node32</title>
<g id="a_edge31_Node000002_Node000032"><a xlink:title=" ">
<path fill="none" stroke="#63b8ff" d="M2051.65,-165.24C1958.86,-154.67 1803.69,-136.78 1746.5,-129 1743.63,-128.61 1740.67,-128.19 1737.7,-127.76"/>
<polygon fill="#63b8ff" stroke="#63b8ff" points="2051.48,-168.74 2061.81,-166.4 2052.27,-161.79 2051.48,-168.74"/>
</a>
</g>
</g>
<!-- Node25 -->
<g id="Node000025" class="node">
<title>Node25</title>
<g id="a_Node000025"><a xlink:href="_index_8hpp.html" target="_top" xlink:title=" ">
<polygon fill="white" stroke="#666666" points="1234,-74 1169,-74 1169,-55 1234,-55 1234,-74"/>
<text text-anchor="middle" x="1201.5" y="-62" font-family="Helvetica,sans-Serif" font-size="10.00">Index.hpp</text>
</a>
</g>
</g>
<!-- Node24&#45;&gt;Node25 -->
<g id="edge24_Node000024_Node000025" class="edge">
<title>Node24&#45;&gt;Node25</title>
<g id="a_edge24_Node000024_Node000025"><a xlink:title=" ">
<path fill="none" stroke="#63b8ff" d="M1201.5,-99.66C1201.5,-90.93 1201.5,-80.99 1201.5,-74.09"/>
<polygon fill="#63b8ff" stroke="#63b8ff" points="1198,-99.75 1201.5,-109.75 1205,-99.75 1198,-99.75"/>
</a>
</g>
</g>
<!-- Node26 -->
<g id="Node000026" class="node">
<title>Node26</title>
<g id="a_Node000026"><a xlink:href="_dll_main_8cpp.html" target="_top" xlink:title=" ">
<polygon fill="white" stroke="#666666" points="1238.5,-19 1164.5,-19 1164.5,0 1238.5,0 1238.5,-19"/>
<text text-anchor="middle" x="1201.5" y="-7" font-family="Helvetica,sans-Serif" font-size="10.00">DllMain.cpp</text>
</a>
</g>
</g>
<!-- Node25&#45;&gt;Node26 -->
<g id="edge25_Node000025_Node000026" class="edge">
<title>Node25&#45;&gt;Node26</title>
<g id="a_edge25_Node000025_Node000026"><a xlink:title=" ">
<path fill="none" stroke="#63b8ff" d="M1201.5,-44.66C1201.5,-35.93 1201.5,-25.99 1201.5,-19.09"/>
<polygon fill="#63b8ff" stroke="#63b8ff" points="1198,-44.75 1201.5,-54.75 1205,-44.75 1198,-44.75"/>
</a>
</g>
</g>
<!-- Node33&#45;&gt;Node2 -->
<g id="edge33_Node000033_Node000002" class="edge">
<title>Node33&#45;&gt;Node2</title>
<g id="a_edge33_Node000033_Node000002"><a xlink:title=" ">
<path fill="none" stroke="#63b8ff" d="M2064.28,-214.42C2079.16,-204.81 2098.41,-192.37 2111.09,-184.17"/>
<polygon fill="#63b8ff" stroke="#63b8ff" points="2062.17,-211.62 2055.67,-219.98 2065.97,-217.5 2062.17,-211.62"/>
</a>
</g>
</g>
<!-- Node33&#45;&gt;Node8 -->
<g id="edge34_Node000033_Node000008" class="edge">
<title>Node33&#45;&gt;Node8</title>
<g id="a_edge34_Node000033_Node000008"><a xlink:title=" ">
<path fill="none" stroke="#63b8ff" d="M2029.74,-211.67C2016.93,-196.28 1995.68,-174.52 1971.5,-165 1880.34,-129.11 306.16,-136.67 208.5,-129 205.79,-128.79 203.02,-128.54 200.23,-128.25"/>
<polygon fill="#63b8ff" stroke="#63b8ff" points="2027.29,-214.21 2036.26,-219.85 2032.76,-209.85 2027.29,-214.21"/>
</a>
</g>
</g>
<!-- Node33&#45;&gt;Node31 -->
<g id="edge35_Node000033_Node000031" class="edge">
<title>Node33&#45;&gt;Node31</title>
<g id="a_edge35_Node000033_Node000031"><a xlink:title=" ">
<path fill="none" stroke="#63b8ff" d="M2038.32,-209.82C2033.9,-194.87 2025.29,-174.82 2009.5,-165 1930.99,-116.15 437.72,-135.74 345.5,-129 342.77,-128.8 339.98,-128.57 337.17,-128.31"/>
<polygon fill="#63b8ff" stroke="#63b8ff" points="2034.96,-210.79 2040.85,-219.59 2041.73,-209.03 2034.96,-210.79"/>
</a>
</g>
</g>
<!-- Node34&#45;&gt;Node2 -->
<g id="edge39_Node000034_Node000002" class="edge">
<title>Node34&#45;&gt;Node2</title>
<g id="a_edge39_Node000034_Node000002"><a xlink:title=" ">
<path fill="none" stroke="#63b8ff" d="M2932.27,-328.07C2773.12,-298.01 2315.61,-211.6 2169.76,-184.05"/>
<polygon fill="#63b8ff" stroke="#63b8ff" points="2931.84,-331.55 2942.32,-329.97 2933.14,-324.67 2931.84,-331.55"/>
</a>
</g>
</g>
<!-- Node34&#45;&gt;Node9 -->
<g id="edge41_Node000034_Node000009" class="edge">
<title>Node34&#45;&gt;Node9</title>
<g id="a_edge41_Node000034_Node000009"><a xlink:title=" ">
<path fill="none" stroke="#63b8ff" d="M3045.64,-331.44C3138.79,-319.08 3326.46,-289.89 3478.5,-239 3532.23,-221.02 3546.58,-215.76 3593.5,-184 3618.04,-167.39 3642.56,-142.3 3654.69,-129.19"/>
<polygon fill="#63b8ff" stroke="#63b8ff" points="3045.03,-327.99 3035.57,-332.76 3045.94,-334.93 3045.03,-327.99"/>
</a>
</g>
</g>
<!-- Node34&#45;&gt;Node10 -->
<g id="edge42_Node000034_Node000010" class="edge">
<title>Node34&#45;&gt;Node10</title>
<g id="a_edge42_Node000034_Node000010"><a xlink:title=" ">
<path fill="none" stroke="#63b8ff" d="M3014.32,-325.45C3097.27,-285.09 3348.22,-162.97 3417.57,-129.22"/>
<polygon fill="#63b8ff" stroke="#63b8ff" points="3012.52,-322.43 3005.06,-329.95 3015.59,-328.73 3012.52,-322.43"/>
</a>
</g>
</g>
<!-- Node34&#45;&gt;Node18 -->
<g id="edge50_Node000034_Node000018" class="edge">
<title>Node34&#45;&gt;Node18</title>
<g id="a_edge50_Node000034_Node000018"><a xlink:title=" ">
<path fill="none" stroke="#63b8ff" d="M3010.05,-324.2C3021.71,-316.17 3035.71,-305.47 3046.5,-294 3099,-238.2 3143.41,-155.84 3157.13,-129.17"/>
<polygon fill="#63b8ff" stroke="#63b8ff" points="3008.06,-321.32 3001.69,-329.79 3011.95,-327.14 3008.06,-321.32"/>
</a>
</g>
</g>
<!-- Node34&#45;&gt;Node28 -->
<g id="edge51_Node000034_Node000028" class="edge">
<title>Node34&#45;&gt;Node28</title>
<g id="a_edge51_Node000034_Node000028"><a xlink:title=" ">
<path fill="none" stroke="#63b8ff" d="M2929.25,-333.72C2831.09,-325.65 2626.51,-308.75 2453.5,-294 1795.61,-237.92 1632.43,-207.02 973.5,-165 578.42,-139.81 476.92,-173.08 83.5,-129 80.76,-128.69 77.93,-128.32 75.09,-127.9"/>
<polygon fill="#63b8ff" stroke="#63b8ff" points="2929.01,-337.21 2939.26,-334.54 2929.58,-330.23 2929.01,-337.21"/>
</a>
</g>
</g>
<!-- Node34&#45;&gt;Node33 -->
<g id="edge40_Node000034_Node000033" class="edge">
<title>Node34&#45;&gt;Node33</title>
<g id="a_edge40_Node000034_Node000033"><a xlink:title=" ">
<path fill="none" stroke="#63b8ff" d="M2929.29,-331.85C2758.54,-312.33 2260.69,-255.44 2096.05,-236.62"/>
<polygon fill="#63b8ff" stroke="#63b8ff" points="2929.01,-335.34 2939.34,-333 2929.8,-328.38 2929.01,-335.34"/>
</a>
</g>
</g>
<!-- Node35 -->
<g id="Node000035" class="node">
<title>Node35</title>
<g id="a_Node000035"><a xlink:href="_guild_entities_8hpp.html" target="_top" xlink:title=" ">
<polygon fill="white" stroke="#666666" points="3037.5,-294 2937.5,-294 2937.5,-275 3037.5,-275 3037.5,-294"/>
<text text-anchor="middle" x="2987.5" y="-282" font-family="Helvetica,sans-Serif" font-size="10.00">GuildEntities.hpp</text>
</a>
</g>
</g>
<!-- Node34&#45;&gt;Node35 -->
<g id="edge43_Node000034_Node000035" class="edge">
<title>Node34&#45;&gt;Node35</title>
<g id="a_edge43_Node000034_Node000035"><a xlink:title=" ">
<path fill="none" stroke="#63b8ff" d="M2987.5,-319.66C2987.5,-310.93 2987.5,-300.99 2987.5,-294.09"/>
<polygon fill="#63b8ff" stroke="#63b8ff" points="2984,-319.75 2987.5,-329.75 2991,-319.75 2984,-319.75"/>
</a>
</g>
</g>
<!-- Node35&#45;&gt;Node2 -->
<g id="edge44_Node000035_Node000002" class="edge">
<title>Node35&#45;&gt;Node2</title>
<g id="a_edge44_Node000035_Node000002"><a xlink:title=" ">
<path fill="none" stroke="#63b8ff" d="M2961.55,-270.24C2930.56,-255.11 2876.71,-231.03 2827.5,-220 2706.45,-192.87 2335.76,-180.79 2187.12,-176.95"/>
<polygon fill="#63b8ff" stroke="#63b8ff" points="2960.27,-273.51 2970.78,-274.81 2963.37,-267.24 2960.27,-273.51"/>
</a>
</g>
</g>
<!-- Node35&#45;&gt;Node9 -->
<g id="edge46_Node000035_Node000009" class="edge">
<title>Node35&#45;&gt;Node9</title>
<g id="a_edge46_Node000035_Node000009"><a xlink:title=" ">
<path fill="none" stroke="#63b8ff" d="M3047.96,-280.46C3153.71,-274.67 3367.82,-260.65 3439.5,-239 3525.96,-212.89 3617.67,-152.07 3650.2,-129.31"/>
<polygon fill="#63b8ff" stroke="#63b8ff" points="3047.57,-276.98 3037.77,-281.01 3047.94,-283.97 3047.57,-276.98"/>
</a>
</g>
</g>
<!-- Node35&#45;&gt;Node10 -->
<g id="edge47_Node000035_Node000010" class="edge">
<title>Node35&#45;&gt;Node10</title>
<g id="a_edge47_Node000035_Node000010"><a xlink:title=" ">
<path fill="none" stroke="#63b8ff" d="M3014.52,-270.55C3063.9,-247.21 3172.42,-197.53 3267.5,-165 3311.18,-150.06 3362.66,-137.08 3397.01,-129.06"/>
<polygon fill="#63b8ff" stroke="#63b8ff" points="3012.71,-267.53 3005.17,-274.98 3015.71,-273.85 3012.71,-267.53"/>
</a>
</g>
</g>
<!-- Node35&#45;&gt;Node11 -->
<g id="edge48_Node000035_Node000011" class="edge">
<title>Node35&#45;&gt;Node11</title>
<g id="a_edge48_Node000035_Node000011"><a xlink:title=" ">
<path fill="none" stroke="#63b8ff" d="M2991.55,-265.02C2998.4,-238.41 3014.95,-189.78 3048.5,-165 3063.2,-154.14 3164.11,-138.58 3232.87,-129.03"/>
<polygon fill="#63b8ff" stroke="#63b8ff" points="2988.1,-264.41 2989.18,-274.95 2994.91,-266.03 2988.1,-264.41"/>
</a>
</g>
</g>
<!-- Node35&#45;&gt;Node28 -->
<g id="edge49_Node000035_Node000028" class="edge">
<title>Node35&#45;&gt;Node28</title>
<g id="a_edge49_Node000035_Node000028"><a xlink:title=" ">
<path fill="none" stroke="#63b8ff" d="M2927.05,-284.05C2722.17,-285.47 2062.24,-286.3 1980.5,-239 1946.78,-219.49 1967.46,-184.1 1933.5,-165 1843.89,-114.62 185.77,-139.37 83.5,-129 80.75,-128.72 77.92,-128.37 75.08,-127.96"/>
<polygon fill="#63b8ff" stroke="#63b8ff" points="2927.35,-287.55 2937.32,-283.97 2927.3,-280.55 2927.35,-287.55"/>
</a>
</g>
</g>
<!-- Node35&#45;&gt;Node33 -->
<g id="edge45_Node000035_Node000033" class="edge">
<title>Node35&#45;&gt;Node33</title>
<g id="a_edge45_Node000035_Node000033"><a xlink:title=" ">
<path fill="none" stroke="#63b8ff" d="M2927.18,-280.12C2754.47,-270.43 2259.91,-242.69 2096,-233.5"/>
<polygon fill="#63b8ff" stroke="#63b8ff" points="2927.18,-283.62 2937.36,-280.69 2927.57,-276.63 2927.18,-283.62"/>
</a>
</g>
</g>
<!-- Node36&#45;&gt;Node2 -->
<g id="edge53_Node000036_Node000002" class="edge">
<title>Node36&#45;&gt;Node2</title>
<g id="a_edge53_Node000036_Node000002"><a xlink:title=" ">
<path fill="none" stroke="#63b8ff" d="M3342.84,-226.46C3145.91,-218.23 2407.98,-187.36 2187.25,-178.12"/>
<polygon fill="#63b8ff" stroke="#63b8ff" points="3342.75,-229.96 3352.89,-226.88 3343.04,-222.97 3342.75,-229.96"/>
</a>
</g>
</g>
<!-- Node36&#45;&gt;Node10 -->
<g id="edge54_Node000036_Node000010" class="edge">
<title>Node36&#45;&gt;Node10</title>
<g id="a_edge54_Node000036_Node000010"><a xlink:title=" ">
<path fill="none" stroke="#63b8ff" d="M3398.99,-210.12C3408.59,-186.56 3424.84,-146.66 3431.97,-129.16"/>
<polygon fill="#63b8ff" stroke="#63b8ff" points="3395.63,-209.08 3395.1,-219.66 3402.12,-211.72 3395.63,-209.08"/>
</a>
</g>
</g>
<!-- Node36&#45;&gt;Node19 -->
<g id="edge55_Node000036_Node000019" class="edge">
<title>Node36&#45;&gt;Node19</title>
<g id="a_edge55_Node000036_Node000019"><a xlink:title=" ">
<path fill="none" stroke="#63b8ff" d="M3412.04,-213.71C3443.79,-190.85 3503.81,-147.64 3529.42,-129.2"/>
<polygon fill="#63b8ff" stroke="#63b8ff" points="3409.59,-211.16 3403.52,-219.84 3413.68,-216.84 3409.59,-211.16"/>
</a>
</g>
</g>
</g>
</svg>
