<?xml version="1.0" encoding="UTF-8" standalone="no"?>
<!DOCTYPE svg PUBLIC "-//W3C//DTD SVG 1.1//EN"
 "http://www.w3.org/Graphics/SVG/1.1/DTD/svg11.dtd">
<!-- Generated by graphviz version 2.43.0 (0)
 -->
<!-- Title: GuildScheduledEventEntities.hpp Pages: 1 -->
<svg width="3737pt" height="357pt"
 viewBox="0.00 0.00 3736.50 357.00" xmlns="http://www.w3.org/2000/svg" xmlns:xlink="http://www.w3.org/1999/xlink">
<g id="graph0" class="graph" transform="scale(1 1) rotate(0) translate(4 353)">
<title>GuildScheduledEventEntities.hpp</title>
<!-- Node1 -->
<g id="Node000001" class="node">
<title>Node1</title>
<g id="a_Node000001"><a xlink:title=" ">
<polygon fill="#999999" stroke="#666666" points="1592.5,-349 1414.5,-349 1414.5,-330 1592.5,-330 1592.5,-349"/>
<text text-anchor="middle" x="1503.5" y="-337" font-family="Helvetica,sans-Serif" font-size="10.00">GuildScheduledEventEntities.hpp</text>
</a>
</g>
</g>
<!-- Node2 -->
<g id="Node000002" class="node">
<title>Node2</title>
<g id="a_Node000002"><a xlink:href="_discord_core_client_8hpp.html" target="_top" xlink:title=" ">
<polygon fill="white" stroke="#666666" points="1910,-184 1785,-184 1785,-165 1910,-165 1910,-184"/>
<text text-anchor="middle" x="1847.5" y="-172" font-family="Helvetica,sans-Serif" font-size="10.00">DiscordCoreClient.hpp</text>
</a>
</g>
</g>
<!-- Node1&#45;&gt;Node2 -->
<g id="edge1_Node000001_Node000002" class="edge">
<title>Node1&#45;&gt;Node2</title>
<g id="a_edge1_Node000001_Node000002"><a xlink:title=" ">
<path fill="none" stroke="#63b8ff" d="M1530.68,-325.62C1598.23,-293.61 1772.4,-211.09 1829.25,-184.15"/>
<polygon fill="#63b8ff" stroke="#63b8ff" points="1529.05,-322.52 1521.51,-329.97 1532.05,-328.85 1529.05,-322.52"/>
</a>
</g>
</g>
<!-- Node9 -->
<g id="Node000009" class="node">
<title>Node9</title>
<g id="a_Node000009"><a xlink:href="_foundation_entities_8cpp.html" target="_top" xlink:title=" ">
<polygon fill="white" stroke="#666666" points="3728.5,-129 3600.5,-129 3600.5,-110 3728.5,-110 3728.5,-129"/>
<text text-anchor="middle" x="3664.5" y="-117" font-family="Helvetica,sans-Serif" font-size="10.00">FoundationEntities.cpp</text>
</a>
</g>
</g>
<!-- Node1&#45;&gt;Node9 -->
<g id="edge32_Node000001_Node000009" class="edge">
<title>Node1&#45;&gt;Node9</title>
<g id="a_edge32_Node000001_Node000009"><a xlink:title=" ">
<path fill="none" stroke="#63b8ff" d="M1603.1,-329.44C1854.68,-306.43 2536.13,-243.36 3103.5,-184 3283.6,-165.16 3495.93,-140.44 3600.17,-128.14"/>
<polygon fill="#63b8ff" stroke="#63b8ff" points="1602.53,-325.98 1592.89,-330.37 1603.16,-332.95 1602.53,-325.98"/>
</a>
</g>
</g>
<!-- Node12 -->
<g id="Node000012" class="node">
<title>Node12</title>
<g id="a_Node000012"><a xlink:href="_guild_scheduled_event_entities_8cpp.html" target="_top" xlink:title=" ">
<polygon fill="white" stroke="#666666" points="270,-129 93,-129 93,-110 270,-110 270,-129"/>
<text text-anchor="middle" x="181.5" y="-117" font-family="Helvetica,sans-Serif" font-size="10.00">GuildScheduledEventEntities.cpp</text>
</a>
</g>
</g>
<!-- Node1&#45;&gt;Node12 -->
<g id="edge43_Node000001_Node000012" class="edge">
<title>Node1&#45;&gt;Node12</title>
<g id="a_edge43_Node000001_Node000012"><a xlink:title=" ">
<path fill="none" stroke="#63b8ff" d="M1441.68,-328.31C1216.36,-291.15 441.48,-163.37 233.32,-129.05"/>
<polygon fill="#63b8ff" stroke="#63b8ff" points="1441.24,-331.78 1451.68,-329.95 1442.38,-324.87 1441.24,-331.78"/>
</a>
</g>
</g>
<!-- Node28 -->
<g id="Node000028" class="node">
<title>Node28</title>
<g id="a_Node000028"><a xlink:href="_utilities_8cpp.html" target="_top" xlink:title=" ">
<polygon fill="white" stroke="#666666" points="75,-129 0,-129 0,-110 75,-110 75,-129"/>
<text text-anchor="middle" x="37.5" y="-117" font-family="Helvetica,sans-Serif" font-size="10.00">Utilities.cpp</text>
</a>
</g>
</g>
<!-- Node1&#45;&gt;Node28 -->
<g id="edge44_Node000001_Node000028" class="edge">
<title>Node1&#45;&gt;Node28</title>
<g id="a_edge44_Node000001_Node000028"><a xlink:title=" ">
<path fill="none" stroke="#63b8ff" d="M1409.6,-328.87C1331.14,-320.55 1216.37,-307.72 1116.5,-294 656.33,-230.79 542.4,-207 84.5,-129 81.48,-128.48 78.34,-127.94 75.2,-127.39"/>
<polygon fill="#63b8ff" stroke="#63b8ff" points="1409.64,-332.4 1419.95,-329.97 1410.37,-325.43 1409.64,-332.4"/>
</a>
</g>
</g>
<!-- Node33 -->
<g id="Node000033" class="node">
<title>Node33</title>
<g id="a_Node000033"><a xlink:href="_guild_entities_8hpp.html" target="_top" xlink:title=" ">
<polygon fill="white" stroke="#666666" points="1553.5,-294 1453.5,-294 1453.5,-275 1553.5,-275 1553.5,-294"/>
<text text-anchor="middle" x="1503.5" y="-282" font-family="Helvetica,sans-Serif" font-size="10.00">GuildEntities.hpp</text>
</a>
</g>
</g>
<!-- Node1&#45;&gt;Node33 -->
<g id="edge33_Node000001_Node000033" class="edge">
<title>Node1&#45;&gt;Node33</title>
<g id="a_edge33_Node000001_Node000033"><a xlink:title=" ">
<path fill="none" stroke="#63b8ff" d="M1503.5,-319.66C1503.5,-310.93 1503.5,-300.99 1503.5,-294.09"/>
<polygon fill="#63b8ff" stroke="#63b8ff" points="1500,-319.75 1503.5,-329.75 1507,-319.75 1500,-319.75"/>
</a>
</g>
</g>
<!-- Node3 -->
<g id="Node000003" class="node">
<title>Node3</title>
<g id="a_Node000003"><a xlink:href="_application_command_entities_8cpp.html" target="_top" xlink:title=" ">
<polygon fill="white" stroke="#666666" points="1460,-129 1281,-129 1281,-110 1460,-110 1460,-129"/>
<text text-anchor="middle" x="1370.5" y="-117" font-family="Helvetica,sans-Serif" font-size="10.00">ApplicationCommandEntities.cpp</text>
</a>
</g>
</g>
<!-- Node2&#45;&gt;Node3 -->
<g id="edge2_Node000002_Node000003" class="edge">
<title>Node2&#45;&gt;Node3</title>
<g id="a_edge2_Node000002_Node000003"><a xlink:title=" ">
<path fill="none" stroke="#63b8ff" d="M1774.69,-165.41C1686.21,-155.58 1537.56,-139.06 1447.31,-129.03"/>
<polygon fill="#63b8ff" stroke="#63b8ff" points="1774.32,-168.89 1784.65,-166.52 1775.1,-161.93 1774.32,-168.89"/>
</a>
</g>
</g>
<!-- Node4 -->
<g id="Node000004" class="node">
<title>Node4</title>
<g id="a_Node000004"><a xlink:href="_auto_moderation_entities_8cpp.html" target="_top" xlink:title=" ">
<polygon fill="white" stroke="#666666" points="1630.5,-129 1478.5,-129 1478.5,-110 1630.5,-110 1630.5,-129"/>
<text text-anchor="middle" x="1554.5" y="-117" font-family="Helvetica,sans-Serif" font-size="10.00">AutoModerationEntities.cpp</text>
</a>
</g>
</g>
<!-- Node2&#45;&gt;Node4 -->
<g id="edge3_Node000002_Node000004" class="edge">
<title>Node2&#45;&gt;Node4</title>
<g id="a_edge3_Node000002_Node000004"><a xlink:title=" ">
<path fill="none" stroke="#63b8ff" d="M1790.5,-163.19C1735.56,-153.25 1653.41,-138.39 1601.94,-129.08"/>
<polygon fill="#63b8ff" stroke="#63b8ff" points="1789.96,-166.65 1800.42,-164.98 1791.21,-159.76 1789.96,-166.65"/>
</a>
</g>
</g>
<!-- Node5 -->
<g id="Node000005" class="node">
<title>Node5</title>
<g id="a_Node000005"><a xlink:href="_channel_entities_8cpp.html" target="_top" xlink:title=" ">
<polygon fill="white" stroke="#666666" points="1762,-129 1649,-129 1649,-110 1762,-110 1762,-129"/>
<text text-anchor="middle" x="1705.5" y="-117" font-family="Helvetica,sans-Serif" font-size="10.00">ChannelEntities.cpp</text>
</a>
</g>
</g>
<!-- Node2&#45;&gt;Node5 -->
<g id="edge4_Node000002_Node000005" class="edge">
<title>Node2&#45;&gt;Node5</title>
<g id="a_edge4_Node000002_Node000005"><a xlink:title=" ">
<path fill="none" stroke="#63b8ff" d="M1815.14,-161.42C1788.79,-151.59 1752.24,-137.95 1728.73,-129.17"/>
<polygon fill="#63b8ff" stroke="#63b8ff" points="1814.09,-164.77 1824.69,-164.98 1816.54,-158.21 1814.09,-164.77"/>
</a>
</g>
</g>
<!-- Node6 -->
<g id="Node000006" class="node">
<title>Node6</title>
<g id="a_Node000006"><a xlink:href="_command_controller_8cpp.html" target="_top" xlink:title=" ">
<polygon fill="white" stroke="#666666" points="1914.5,-129 1780.5,-129 1780.5,-110 1914.5,-110 1914.5,-129"/>
<text text-anchor="middle" x="1847.5" y="-117" font-family="Helvetica,sans-Serif" font-size="10.00">CommandController.cpp</text>
</a>
</g>
</g>
<!-- Node2&#45;&gt;Node6 -->
<g id="edge5_Node000002_Node000006" class="edge">
<title>Node2&#45;&gt;Node6</title>
<g id="a_edge5_Node000002_Node000006"><a xlink:title=" ">
<path fill="none" stroke="#63b8ff" d="M1847.5,-154.66C1847.5,-145.93 1847.5,-135.99 1847.5,-129.09"/>
<polygon fill="#63b8ff" stroke="#63b8ff" points="1844,-154.75 1847.5,-164.75 1851,-154.75 1844,-154.75"/>
</a>
</g>
</g>
<!-- Node7 -->
<g id="Node000007" class="node">
<title>Node7</title>
<g id="a_Node000007"><a xlink:href="_discord_core_client_8cpp.html" target="_top" xlink:title=" ">
<polygon fill="white" stroke="#666666" points="2058,-129 1933,-129 1933,-110 2058,-110 2058,-129"/>
<text text-anchor="middle" x="1995.5" y="-117" font-family="Helvetica,sans-Serif" font-size="10.00">DiscordCoreClient.cpp</text>
</a>
</g>
</g>
<!-- Node2&#45;&gt;Node7 -->
<g id="edge6_Node000002_Node000007" class="edge">
<title>Node2&#45;&gt;Node7</title>
<g id="a_edge6_Node000002_Node000007"><a xlink:title=" ">
<path fill="none" stroke="#63b8ff" d="M1880.87,-161.55C1908.35,-151.71 1946.67,-137.98 1971.29,-129.17"/>
<polygon fill="#63b8ff" stroke="#63b8ff" points="1879.51,-158.32 1871.28,-164.98 1881.87,-164.91 1879.51,-158.32"/>
</a>
</g>
</g>
<!-- Node8 -->
<g id="Node000008" class="node">
<title>Node8</title>
<g id="a_Node000008"><a xlink:href="_event_manager_8cpp.html" target="_top" xlink:title=" ">
<polygon fill="white" stroke="#666666" points="3445,-129 3338,-129 3338,-110 3445,-110 3445,-129"/>
<text text-anchor="middle" x="3391.5" y="-117" font-family="Helvetica,sans-Serif" font-size="10.00">EventManager.cpp</text>
</a>
</g>
</g>
<!-- Node2&#45;&gt;Node8 -->
<g id="edge7_Node000002_Node000008" class="edge">
<title>Node2&#45;&gt;Node8</title>
<g id="a_edge7_Node000002_Node000008"><a xlink:title=" ">
<path fill="none" stroke="#63b8ff" d="M1920.35,-174.05C2135.99,-175.08 2789.71,-173.98 3329.5,-129 3332.21,-128.77 3334.98,-128.51 3337.77,-128.22"/>
<polygon fill="#63b8ff" stroke="#63b8ff" points="1920.13,-170.55 1910.11,-174 1920.09,-177.55 1920.13,-170.55"/>
</a>
</g>
</g>
<!-- Node2&#45;&gt;Node9 -->
<g id="edge8_Node000002_Node000009" class="edge">
<title>Node2&#45;&gt;Node9</title>
<g id="a_edge8_Node000002_Node000009"><a xlink:title=" ">
<path fill="none" stroke="#63b8ff" d="M1920.46,-172.52C2207.39,-168.53 3258.75,-152.57 3591.5,-129 3594.43,-128.79 3597.42,-128.55 3600.44,-128.29"/>
<polygon fill="#63b8ff" stroke="#63b8ff" points="1920.13,-169.02 1910.18,-172.66 1920.22,-176.02 1920.13,-169.02"/>
</a>
</g>
</g>
<!-- Node10 -->
<g id="Node000010" class="node">
<title>Node10</title>
<g id="a_Node000010"><a xlink:href="_guild_entities_8cpp.html" target="_top" xlink:title=" ">
<polygon fill="white" stroke="#666666" points="387,-129 288,-129 288,-110 387,-110 387,-129"/>
<text text-anchor="middle" x="337.5" y="-117" font-family="Helvetica,sans-Serif" font-size="10.00">GuildEntities.cpp</text>
</a>
</g>
</g>
<!-- Node2&#45;&gt;Node10 -->
<g id="edge9_Node000002_Node000010" class="edge">
<title>Node2&#45;&gt;Node10</title>
<g id="a_edge9_Node000002_Node000010"><a xlink:title=" ">
<path fill="none" stroke="#63b8ff" d="M1774.37,-172.35C1519.11,-168.15 668.45,-152.68 396.5,-129 393.41,-128.73 390.23,-128.41 387.03,-128.05"/>
<polygon fill="#63b8ff" stroke="#63b8ff" points="1774.58,-175.85 1784.64,-172.51 1774.7,-168.85 1774.58,-175.85"/>
</a>
</g>
</g>
<!-- Node11 -->
<g id="Node000011" class="node">
<title>Node11</title>
<g id="a_Node000011"><a xlink:href="_guild_member_entities_8cpp.html" target="_top" xlink:title=" ">
<polygon fill="white" stroke="#666666" points="545.5,-129 405.5,-129 405.5,-110 545.5,-110 545.5,-129"/>
<text text-anchor="middle" x="475.5" y="-117" font-family="Helvetica,sans-Serif" font-size="10.00">GuildMemberEntities.cpp</text>
</a>
</g>
</g>
<!-- Node2&#45;&gt;Node11 -->
<g id="edge10_Node000002_Node000011" class="edge">
<title>Node2&#45;&gt;Node11</title>
<g id="a_edge10_Node000002_Node000011"><a xlink:title=" ">
<path fill="none" stroke="#63b8ff" d="M1774.56,-171.67C1538.27,-165.65 795.27,-145.85 555.5,-129 552.3,-128.77 549.02,-128.52 545.72,-128.25"/>
<polygon fill="#63b8ff" stroke="#63b8ff" points="1774.67,-175.18 1784.76,-171.93 1774.85,-168.18 1774.67,-175.18"/>
</a>
</g>
</g>
<!-- Node2&#45;&gt;Node12 -->
<g id="edge11_Node000002_Node000012" class="edge">
<title>Node2&#45;&gt;Node12</title>
<g id="a_edge11_Node000002_Node000012"><a xlink:title=" ">
<path fill="none" stroke="#63b8ff" d="M1774.41,-172.94C1550.59,-170.88 854.91,-162.09 279.5,-129 276.43,-128.82 273.31,-128.63 270.16,-128.42"/>
<polygon fill="#63b8ff" stroke="#63b8ff" points="1774.67,-176.44 1784.71,-173.03 1774.74,-169.44 1774.67,-176.44"/>
</a>
</g>
</g>
<!-- Node13 -->
<g id="Node000013" class="node">
<title>Node13</title>
<g id="a_Node000013"><a xlink:href="_https_client_8cpp.html" target="_top" xlink:title=" ">
<polygon fill="white" stroke="#666666" points="2168.5,-129 2076.5,-129 2076.5,-110 2168.5,-110 2168.5,-129"/>
<text text-anchor="middle" x="2122.5" y="-117" font-family="Helvetica,sans-Serif" font-size="10.00">HttpsClient.cpp</text>
</a>
</g>
</g>
<!-- Node2&#45;&gt;Node13 -->
<g id="edge12_Node000002_Node000013" class="edge">
<title>Node2&#45;&gt;Node13</title>
<g id="a_edge12_Node000002_Node000013"><a xlink:title=" ">
<path fill="none" stroke="#63b8ff" d="M1901.64,-163.07C1953.2,-153.13 2029.86,-138.35 2077.97,-129.08"/>
<polygon fill="#63b8ff" stroke="#63b8ff" points="1900.84,-159.66 1891.68,-164.98 1902.17,-166.53 1900.84,-159.66"/>
</a>
</g>
</g>
<!-- Node14 -->
<g id="Node000014" class="node">
<title>Node14</title>
<g id="a_Node000014"><a xlink:href="_input_events_8cpp.html" target="_top" xlink:title=" ">
<polygon fill="white" stroke="#666666" points="2282,-129 2187,-129 2187,-110 2282,-110 2282,-129"/>
<text text-anchor="middle" x="2234.5" y="-117" font-family="Helvetica,sans-Serif" font-size="10.00">InputEvents.cpp</text>
</a>
</g>
</g>
<!-- Node2&#45;&gt;Node14 -->
<g id="edge13_Node000002_Node000014" class="edge">
<title>Node2&#45;&gt;Node14</title>
<g id="a_edge13_Node000002_Node000014"><a xlink:title=" ">
<path fill="none" stroke="#63b8ff" d="M1920.2,-163.99C1987.1,-155.18 2089.03,-141.56 2177.5,-129 2180.57,-128.56 2183.73,-128.11 2186.92,-127.65"/>
<polygon fill="#63b8ff" stroke="#63b8ff" points="1919.64,-160.54 1910.19,-165.31 1920.56,-167.48 1919.64,-160.54"/>
</a>
</g>
</g>
<!-- Node15 -->
<g id="Node000015" class="node">
<title>Node15</title>
<g id="a_Node000015"><a xlink:href="_interaction_entities_8cpp.html" target="_top" xlink:title=" ">
<polygon fill="white" stroke="#666666" points="2426.5,-129 2300.5,-129 2300.5,-110 2426.5,-110 2426.5,-129"/>
<text text-anchor="middle" x="2363.5" y="-117" font-family="Helvetica,sans-Serif" font-size="10.00">InteractionEntities.cpp</text>
</a>
</g>
</g>
<!-- Node2&#45;&gt;Node15 -->
<g id="edge14_Node000002_Node000015" class="edge">
<title>Node2&#45;&gt;Node15</title>
<g id="a_edge14_Node000002_Node000015"><a xlink:title=" ">
<path fill="none" stroke="#63b8ff" d="M1920.18,-166.61C2008.14,-158.18 2160.75,-143.27 2291.5,-129 2294.38,-128.69 2297.32,-128.36 2300.29,-128.03"/>
<polygon fill="#63b8ff" stroke="#63b8ff" points="1919.66,-163.15 1910.04,-167.58 1920.32,-170.11 1919.66,-163.15"/>
</a>
</g>
</g>
<!-- Node16 -->
<g id="Node000016" class="node">
<title>Node16</title>
<g id="a_Node000016"><a xlink:href="_message_entities_8cpp.html" target="_top" xlink:title=" ">
<polygon fill="white" stroke="#666666" points="2562,-129 2445,-129 2445,-110 2562,-110 2562,-129"/>
<text text-anchor="middle" x="2503.5" y="-117" font-family="Helvetica,sans-Serif" font-size="10.00">MessageEntities.cpp</text>
</a>
</g>
</g>
<!-- Node2&#45;&gt;Node16 -->
<g id="edge15_Node000002_Node000016" class="edge">
<title>Node2&#45;&gt;Node16</title>
<g id="a_edge15_Node000002_Node000016"><a xlink:title=" ">
<path fill="none" stroke="#63b8ff" d="M1920.34,-169.13C2031.55,-162.21 2250.29,-147.57 2435.5,-129 2438.58,-128.69 2441.73,-128.36 2444.92,-128.01"/>
<polygon fill="#63b8ff" stroke="#63b8ff" points="1920.01,-165.65 1910.24,-169.76 1920.44,-172.64 1920.01,-165.65"/>
</a>
</g>
</g>
<!-- Node17 -->
<g id="Node000017" class="node">
<title>Node17</title>
<g id="a_Node000017"><a xlink:href="_reaction_entities_8cpp.html" target="_top" xlink:title=" ">
<polygon fill="white" stroke="#666666" points="2696.5,-129 2580.5,-129 2580.5,-110 2696.5,-110 2696.5,-129"/>
<text text-anchor="middle" x="2638.5" y="-117" font-family="Helvetica,sans-Serif" font-size="10.00">ReactionEntities.cpp</text>
</a>
</g>
</g>
<!-- Node2&#45;&gt;Node17 -->
<g id="edge16_Node000002_Node000017" class="edge">
<title>Node2&#45;&gt;Node17</title>
<g id="a_edge16_Node000002_Node000017"><a xlink:title=" ">
<path fill="none" stroke="#63b8ff" d="M1920.35,-170.59C2051.01,-165.01 2333.76,-151.36 2571.5,-129 2574.42,-128.73 2577.41,-128.42 2580.42,-128.1"/>
<polygon fill="#63b8ff" stroke="#63b8ff" points="1919.91,-167.1 1910.07,-171.02 1920.21,-174.09 1919.91,-167.1"/>
</a>
</g>
</g>
<!-- Node18 -->
<g id="Node000018" class="node">
<title>Node18</title>
<g id="a_Node000018"><a xlink:href="_role_entities_8cpp.html" target="_top" xlink:title=" ">
<polygon fill="white" stroke="#666666" points="2810,-129 2715,-129 2715,-110 2810,-110 2810,-129"/>
<text text-anchor="middle" x="2762.5" y="-117" font-family="Helvetica,sans-Serif" font-size="10.00">RoleEntities.cpp</text>
</a>
</g>
</g>
<!-- Node2&#45;&gt;Node18 -->
<g id="edge17_Node000002_Node000018" class="edge">
<title>Node2&#45;&gt;Node18</title>
<g id="a_edge17_Node000002_Node000018"><a xlink:title=" ">
<path fill="none" stroke="#63b8ff" d="M1920.42,-172.08C2068.64,-168.68 2415.63,-158.06 2705.5,-129 2708.59,-128.69 2711.76,-128.33 2714.96,-127.94"/>
<polygon fill="#63b8ff" stroke="#63b8ff" points="1920.02,-168.59 1910.1,-172.32 1920.17,-175.59 1920.02,-168.59"/>
</a>
</g>
</g>
<!-- Node19 -->
<g id="Node000019" class="node">
<title>Node19</title>
<g id="a_Node000019"><a xlink:href="_song_a_p_i_8cpp.html" target="_top" xlink:title=" ">
<polygon fill="white" stroke="#666666" points="2905,-129 2828,-129 2828,-110 2905,-110 2905,-129"/>
<text text-anchor="middle" x="2866.5" y="-117" font-family="Helvetica,sans-Serif" font-size="10.00">SongAPI.cpp</text>
</a>
</g>
</g>
<!-- Node2&#45;&gt;Node19 -->
<g id="edge18_Node000002_Node000019" class="edge">
<title>Node2&#45;&gt;Node19</title>
<g id="a_edge18_Node000002_Node000019"><a xlink:title=" ">
<path fill="none" stroke="#63b8ff" d="M1920.61,-173.47C2082.88,-172.68 2485.24,-166.71 2819.5,-129 2822.22,-128.69 2825.02,-128.32 2827.83,-127.91"/>
<polygon fill="#63b8ff" stroke="#63b8ff" points="1920.26,-169.97 1910.27,-173.52 1920.29,-176.97 1920.26,-169.97"/>
</a>
</g>
</g>
<!-- Node20 -->
<g id="Node000020" class="node">
<title>Node20</title>
<g id="a_Node000020"><a xlink:href="_sound_cloud_a_p_i_8cpp.html" target="_top" xlink:title=" ">
<polygon fill="white" stroke="#666666" points="3033.5,-129 2923.5,-129 2923.5,-110 3033.5,-110 3033.5,-129"/>
<text text-anchor="middle" x="2978.5" y="-117" font-family="Helvetica,sans-Serif" font-size="10.00">SoundCloudAPI.cpp</text>
</a>
</g>
</g>
<!-- Node2&#45;&gt;Node20 -->
<g id="edge19_Node000002_Node000020" class="edge">
<title>Node2&#45;&gt;Node20</title>
<g id="a_edge19_Node000002_Node000020"><a xlink:title=" ">
<path fill="none" stroke="#63b8ff" d="M1920.41,-172.73C2093.31,-170.4 2541.62,-161.47 2914.5,-129 2917.4,-128.75 2920.38,-128.46 2923.38,-128.14"/>
<polygon fill="#63b8ff" stroke="#63b8ff" points="1920.12,-169.23 1910.17,-172.86 1920.21,-176.23 1920.12,-169.23"/>
</a>
</g>
</g>
<!-- Node21 -->
<g id="Node000021" class="node">
<title>Node21</title>
<g id="a_Node000021"><a xlink:href="_stage_instance_entities_8cpp.html" target="_top" xlink:title=" ">
<polygon fill="white" stroke="#666666" points="3195,-129 3052,-129 3052,-110 3195,-110 3195,-129"/>
<text text-anchor="middle" x="3123.5" y="-117" font-family="Helvetica,sans-Serif" font-size="10.00">StageInstanceEntities.cpp</text>
</a>
</g>
</g>
<!-- Node2&#45;&gt;Node21 -->
<g id="edge20_Node000002_Node000021" class="edge">
<title>Node2&#45;&gt;Node21</title>
<g id="a_edge20_Node000002_Node000021"><a xlink:title=" ">
<path fill="none" stroke="#63b8ff" d="M1920.34,-172.49C2107.06,-169.55 2617.97,-159.14 3042.5,-129 3045.6,-128.78 3048.77,-128.53 3051.97,-128.27"/>
<polygon fill="#63b8ff" stroke="#63b8ff" points="1920.05,-169 1910.1,-172.65 1920.15,-176 1920.05,-169"/>
</a>
</g>
</g>
<!-- Node22 -->
<g id="Node000022" class="node">
<title>Node22</title>
<g id="a_Node000022"><a xlink:href="_sticker_entities_8cpp.html" target="_top" xlink:title=" ">
<polygon fill="white" stroke="#666666" points="3320,-129 3213,-129 3213,-110 3320,-110 3320,-129"/>
<text text-anchor="middle" x="3266.5" y="-117" font-family="Helvetica,sans-Serif" font-size="10.00">StickerEntities.cpp</text>
</a>
</g>
</g>
<!-- Node2&#45;&gt;Node22 -->
<g id="edge21_Node000002_Node000022" class="edge">
<title>Node2&#45;&gt;Node22</title>
<g id="a_edge21_Node000002_Node000022"><a xlink:title=" ">
<path fill="none" stroke="#63b8ff" d="M1920.46,-173.76C2124.02,-173.91 2715.36,-170.44 3204.5,-129 3207.21,-128.77 3209.98,-128.51 3212.77,-128.21"/>
<polygon fill="#63b8ff" stroke="#63b8ff" points="1920.2,-170.26 1910.19,-173.75 1920.19,-177.26 1920.2,-170.26"/>
</a>
</g>
</g>
<!-- Node23 -->
<g id="Node000023" class="node">
<title>Node23</title>
<g id="a_Node000023"><a xlink:href="_thread_entities_8cpp.html" target="_top" xlink:title=" ">
<polygon fill="white" stroke="#666666" points="671,-129 564,-129 564,-110 671,-110 671,-129"/>
<text text-anchor="middle" x="617.5" y="-117" font-family="Helvetica,sans-Serif" font-size="10.00">ThreadEntities.cpp</text>
</a>
</g>
</g>
<!-- Node2&#45;&gt;Node23 -->
<g id="edge22_Node000002_Node000023" class="edge">
<title>Node2&#45;&gt;Node23</title>
<g id="a_edge22_Node000002_Node000023"><a xlink:title=" ">
<path fill="none" stroke="#63b8ff" d="M1774.55,-171.64C1553.72,-165.85 894.51,-147.47 680.5,-129 677.42,-128.73 674.26,-128.42 671.08,-128.08"/>
<polygon fill="#63b8ff" stroke="#63b8ff" points="1774.64,-175.14 1784.73,-171.9 1774.83,-168.14 1774.64,-175.14"/>
</a>
</g>
</g>
<!-- Node24 -->
<g id="Node000024" class="node">
<title>Node24</title>
<g id="a_Node000024"><a xlink:href="_to_entity_8hpp.html" target="_top" xlink:title=" ">
<polygon fill="white" stroke="#666666" points="764,-129 689,-129 689,-110 764,-110 764,-129"/>
<text text-anchor="middle" x="726.5" y="-117" font-family="Helvetica,sans-Serif" font-size="10.00">ToEntity.hpp</text>
</a>
</g>
</g>
<!-- Node2&#45;&gt;Node24 -->
<g id="edge23_Node000002_Node000024" class="edge">
<title>Node2&#45;&gt;Node24</title>
<g id="a_edge23_Node000002_Node000024"><a xlink:title=" ">
<path fill="none" stroke="#63b8ff" d="M1774.66,-171.79C1565.95,-166.68 968.22,-150.54 773.5,-129 770.45,-128.66 767.3,-128.25 764.14,-127.78"/>
<polygon fill="#63b8ff" stroke="#63b8ff" points="1774.82,-175.29 1784.9,-172.04 1774.99,-168.3 1774.82,-175.29"/>
</a>
</g>
</g>
<!-- Node27 -->
<g id="Node000027" class="node">
<title>Node27</title>
<g id="a_Node000027"><a xlink:href="_user_entities_8cpp.html" target="_top" xlink:title=" ">
<polygon fill="white" stroke="#666666" points="878.5,-129 782.5,-129 782.5,-110 878.5,-110 878.5,-129"/>
<text text-anchor="middle" x="830.5" y="-117" font-family="Helvetica,sans-Serif" font-size="10.00">UserEntities.cpp</text>
</a>
</g>
</g>
<!-- Node2&#45;&gt;Node27 -->
<g id="edge26_Node000002_Node000027" class="edge">
<title>Node2&#45;&gt;Node27</title>
<g id="a_edge26_Node000002_Node000027"><a xlink:title=" ">
<path fill="none" stroke="#63b8ff" d="M1774.48,-172.65C1613.8,-170.21 1217.56,-161.18 887.5,-129 884.61,-128.72 881.65,-128.39 878.66,-128.03"/>
<polygon fill="#63b8ff" stroke="#63b8ff" points="1774.67,-176.15 1784.73,-172.8 1774.78,-169.15 1774.67,-176.15"/>
</a>
</g>
</g>
<!-- Node2&#45;&gt;Node28 -->
<g id="edge27_Node000002_Node000028" class="edge">
<title>Node2&#45;&gt;Node28</title>
<g id="a_edge27_Node000002_Node000028"><a xlink:title=" ">
<path fill="none" stroke="#63b8ff" d="M1774.46,-172.32C1463.01,-167.2 254.09,-146.37 84.5,-129 81.45,-128.69 78.3,-128.29 75.14,-127.83"/>
<polygon fill="#63b8ff" stroke="#63b8ff" points="1774.67,-175.82 1784.72,-172.49 1774.78,-168.82 1774.67,-175.82"/>
</a>
</g>
</g>
<!-- Node29 -->
<g id="Node000029" class="node">
<title>Node29</title>
<g id="a_Node000029"><a xlink:href="_voice_connection_8cpp.html" target="_top" xlink:title=" ">
<polygon fill="white" stroke="#666666" points="1014.5,-129 896.5,-129 896.5,-110 1014.5,-110 1014.5,-129"/>
<text text-anchor="middle" x="955.5" y="-117" font-family="Helvetica,sans-Serif" font-size="10.00">VoiceConnection.cpp</text>
</a>
</g>
</g>
<!-- Node2&#45;&gt;Node29 -->
<g id="edge28_Node000002_Node000029" class="edge">
<title>Node2&#45;&gt;Node29</title>
<g id="a_edge28_Node000002_Node000029"><a xlink:title=" ">
<path fill="none" stroke="#63b8ff" d="M1774.83,-171.29C1631.11,-166.55 1300.46,-153.76 1023.5,-129 1020.66,-128.75 1017.75,-128.46 1014.81,-128.16"/>
<polygon fill="#63b8ff" stroke="#63b8ff" points="1774.74,-174.79 1784.85,-171.62 1774.97,-167.8 1774.74,-174.79"/>
</a>
</g>
</g>
<!-- Node30 -->
<g id="Node000030" class="node">
<title>Node30</title>
<g id="a_Node000030"><a xlink:href="_web_hook_entities_8cpp.html" target="_top" xlink:title=" ">
<polygon fill="white" stroke="#666666" points="1152.5,-129 1032.5,-129 1032.5,-110 1152.5,-110 1152.5,-129"/>
<text text-anchor="middle" x="1092.5" y="-117" font-family="Helvetica,sans-Serif" font-size="10.00">WebHookEntities.cpp</text>
</a>
</g>
</g>
<!-- Node2&#45;&gt;Node30 -->
<g id="edge29_Node000002_Node000030" class="edge">
<title>Node2&#45;&gt;Node30</title>
<g id="a_edge29_Node000002_Node000030"><a xlink:title=" ">
<path fill="none" stroke="#63b8ff" d="M1774.74,-170.16C1649.36,-164.11 1384.56,-149.96 1161.5,-129 1158.62,-128.73 1155.67,-128.43 1152.69,-128.12"/>
<polygon fill="#63b8ff" stroke="#63b8ff" points="1774.82,-173.67 1784.98,-170.66 1775.16,-166.68 1774.82,-173.67"/>
</a>
</g>
</g>
<!-- Node31 -->
<g id="Node000031" class="node">
<title>Node31</title>
<g id="a_Node000031"><a xlink:href="_web_socket_client_8cpp.html" target="_top" xlink:title=" ">
<polygon fill="white" stroke="#666666" points="3582,-129 3463,-129 3463,-110 3582,-110 3582,-129"/>
<text text-anchor="middle" x="3522.5" y="-117" font-family="Helvetica,sans-Serif" font-size="10.00">WebSocketClient.cpp</text>
</a>
</g>
</g>
<!-- Node2&#45;&gt;Node31 -->
<g id="edge30_Node000002_Node000031" class="edge">
<title>Node2&#45;&gt;Node31</title>
<g id="a_edge30_Node000002_Node000031"><a xlink:title=" ">
<path fill="none" stroke="#63b8ff" d="M1920.57,-172.42C2193.1,-168.23 3150.2,-152.18 3454.5,-129 3457.23,-128.79 3460.02,-128.55 3462.83,-128.29"/>
<polygon fill="#63b8ff" stroke="#63b8ff" points="1920.34,-168.92 1910.4,-172.57 1920.45,-175.92 1920.34,-168.92"/>
</a>
</g>
</g>
<!-- Node32 -->
<g id="Node000032" class="node">
<title>Node32</title>
<g id="a_Node000032"><a xlink:href="_you_tube_a_p_i_8cpp.html" target="_top" xlink:title=" ">
<polygon fill="white" stroke="#666666" points="1262.5,-129 1170.5,-129 1170.5,-110 1262.5,-110 1262.5,-129"/>
<text text-anchor="middle" x="1216.5" y="-117" font-family="Helvetica,sans-Serif" font-size="10.00">YouTubeAPI.cpp</text>
</a>
</g>
</g>
<!-- Node2&#45;&gt;Node32 -->
<g id="edge31_Node000002_Node000032" class="edge">
<title>Node2&#45;&gt;Node32</title>
<g id="a_edge31_Node000002_Node000032"><a xlink:title=" ">
<path fill="none" stroke="#63b8ff" d="M1774.57,-169.58C1665.24,-163.3 1452.47,-149.59 1272.5,-129 1269.28,-128.63 1265.95,-128.22 1262.61,-127.77"/>
<polygon fill="#63b8ff" stroke="#63b8ff" points="1774.64,-173.09 1784.82,-170.16 1775.03,-166.1 1774.64,-173.09"/>
</a>
</g>
</g>
<!-- Node25 -->
<g id="Node000025" class="node">
<title>Node25</title>
<g id="a_Node000025"><a xlink:href="_index_8hpp.html" target="_top" xlink:title=" ">
<polygon fill="white" stroke="#666666" points="759,-74 694,-74 694,-55 759,-55 759,-74"/>
<text text-anchor="middle" x="726.5" y="-62" font-family="Helvetica,sans-Serif" font-size="10.00">Index.hpp</text>
</a>
</g>
</g>
<!-- Node24&#45;&gt;Node25 -->
<g id="edge24_Node000024_Node000025" class="edge">
<title>Node24&#45;&gt;Node25</title>
<g id="a_edge24_Node000024_Node000025"><a xlink:title=" ">
<path fill="none" stroke="#63b8ff" d="M726.5,-99.66C726.5,-90.93 726.5,-80.99 726.5,-74.09"/>
<polygon fill="#63b8ff" stroke="#63b8ff" points="723,-99.75 726.5,-109.75 730,-99.75 723,-99.75"/>
</a>
</g>
</g>
<!-- Node26 -->
<g id="Node000026" class="node">
<title>Node26</title>
<g id="a_Node000026"><a xlink:href="_dll_main_8cpp.html" target="_top" xlink:title=" ">
<polygon fill="white" stroke="#666666" points="763.5,-19 689.5,-19 689.5,0 763.5,0 763.5,-19"/>
<text text-anchor="middle" x="726.5" y="-7" font-family="Helvetica,sans-Serif" font-size="10.00">DllMain.cpp</text>
</a>
</g>
</g>
<!-- Node25&#45;&gt;Node26 -->
<g id="edge25_Node000025_Node000026" class="edge">
<title>Node25&#45;&gt;Node26</title>
<g id="a_edge25_Node000025_Node000026"><a xlink:title=" ">
<path fill="none" stroke="#63b8ff" d="M726.5,-44.66C726.5,-35.93 726.5,-25.99 726.5,-19.09"/>
<polygon fill="#63b8ff" stroke="#63b8ff" points="723,-44.75 726.5,-54.75 730,-44.75 723,-44.75"/>
</a>
</g>
</g>
<!-- Node33&#45;&gt;Node2 -->
<g id="edge34_Node000033_Node000002" class="edge">
<title>Node33&#45;&gt;Node2</title>
<g id="a_edge34_Node000033_Node000002"><a xlink:title=" ">
<path fill="none" stroke="#63b8ff" d="M1540.45,-271.9C1610,-250.07 1758.87,-203.33 1820.22,-184.07"/>
<polygon fill="#63b8ff" stroke="#63b8ff" points="1539.27,-268.6 1530.78,-274.94 1541.37,-275.28 1539.27,-268.6"/>
</a>
</g>
</g>
<!-- Node33&#45;&gt;Node9 -->
<g id="edge39_Node000033_Node000009" class="edge">
<title>Node33&#45;&gt;Node9</title>
<g id="a_edge39_Node000033_Node000009"><a xlink:title=" ">
<path fill="none" stroke="#63b8ff" d="M1563.59,-281.12C1703,-275.45 2059.22,-259.99 2356.5,-239 2493.92,-229.3 3454.46,-143.08 3591.5,-129 3594.42,-128.7 3597.4,-128.39 3600.42,-128.06"/>
<polygon fill="#63b8ff" stroke="#63b8ff" points="1563.38,-277.63 1553.53,-281.53 1563.67,-284.62 1563.38,-277.63"/>
</a>
</g>
</g>
<!-- Node33&#45;&gt;Node10 -->
<g id="edge40_Node000033_Node000010" class="edge">
<title>Node33&#45;&gt;Node10</title>
<g id="a_edge40_Node000033_Node000010"><a xlink:title=" ">
<path fill="none" stroke="#63b8ff" d="M1474.82,-270.75C1415.86,-245.24 1276.17,-188.35 1152.5,-165 821.96,-102.6 731.35,-161.02 396.5,-129 393.41,-128.7 390.23,-128.36 387.03,-127.99"/>
<polygon fill="#63b8ff" stroke="#63b8ff" points="1473.66,-274.06 1484.22,-274.85 1476.46,-267.65 1473.66,-274.06"/>
</a>
</g>
</g>
<!-- Node33&#45;&gt;Node11 -->
<g id="edge41_Node000033_Node000011" class="edge">
<title>Node33&#45;&gt;Node11</title>
<g id="a_edge41_Node000033_Node000011"><a xlink:title=" ">
<path fill="none" stroke="#63b8ff" d="M1485.66,-268.33C1453.04,-241.64 1380.48,-187.02 1308.5,-165 1148.31,-115.99 722.53,-141.86 555.5,-129 552.3,-128.75 549.02,-128.48 545.72,-128.19"/>
<polygon fill="#63b8ff" stroke="#63b8ff" points="1483.49,-271.08 1493.42,-274.77 1487.96,-265.69 1483.49,-271.08"/>
</a>
</g>
</g>
<!-- Node33&#45;&gt;Node28 -->
<g id="edge42_Node000033_Node000028" class="edge">
<title>Node33&#45;&gt;Node28</title>
<g id="a_edge42_Node000033_Node000028"><a xlink:title=" ">
<path fill="none" stroke="#63b8ff" d="M1443.28,-278.47C1247.1,-261.77 608.86,-204.86 84.5,-129 81.46,-128.56 78.32,-128.07 75.17,-127.55"/>
<polygon fill="#63b8ff" stroke="#63b8ff" points="1443.12,-281.97 1453.38,-279.33 1443.71,-275 1443.12,-281.97"/>
</a>
</g>
</g>
<!-- Node34 -->
<g id="Node000034" class="node">
<title>Node34</title>
<g id="a_Node000034"><a xlink:href="_event_manager_8hpp.html" target="_top" xlink:title=" ">
<polygon fill="white" stroke="#666666" points="2347,-239 2240,-239 2240,-220 2347,-220 2347,-239"/>
<text text-anchor="middle" x="2293.5" y="-227" font-family="Helvetica,sans-Serif" font-size="10.00">EventManager.hpp</text>
</a>
</g>
</g>
<!-- Node33&#45;&gt;Node34 -->
<g id="edge35_Node000033_Node000034" class="edge">
<title>Node33&#45;&gt;Node34</title>
<g id="a_edge35_Node000033_Node000034"><a xlink:title=" ">
<path fill="none" stroke="#63b8ff" d="M1563.85,-279.45C1713.14,-269.44 2097.86,-243.63 2239.83,-234.1"/>
<polygon fill="#63b8ff" stroke="#63b8ff" points="1563.26,-275.98 1553.52,-280.14 1563.73,-282.97 1563.26,-275.98"/>
</a>
</g>
</g>
<!-- Node34&#45;&gt;Node2 -->
<g id="edge36_Node000034_Node000002" class="edge">
<title>Node34&#45;&gt;Node2</title>
<g id="a_edge36_Node000034_Node000002"><a xlink:title=" ">
<path fill="none" stroke="#63b8ff" d="M2229.64,-220.91C2144.47,-210.79 1994.62,-192.98 1910.09,-182.94"/>
<polygon fill="#63b8ff" stroke="#63b8ff" points="2229.36,-224.4 2239.7,-222.11 2230.18,-217.45 2229.36,-224.4"/>
</a>
</g>
</g>
<!-- Node34&#45;&gt;Node8 -->
<g id="edge37_Node000034_Node000008" class="edge">
<title>Node34&#45;&gt;Node8</title>
<g id="a_edge37_Node000034_Node000008"><a xlink:title=" ">
<path fill="none" stroke="#63b8ff" d="M2347.33,-218.12C2423.61,-203.83 2567.66,-178.34 2691.5,-165 2973.87,-134.59 3046.81,-156.31 3329.5,-129 3332.2,-128.74 3334.97,-128.45 3337.76,-128.13"/>
<polygon fill="#63b8ff" stroke="#63b8ff" points="2346.65,-214.69 2337.47,-219.98 2347.95,-221.57 2346.65,-214.69"/>
</a>
</g>
</g>
<!-- Node34&#45;&gt;Node31 -->
<g id="edge38_Node000034_Node000031" class="edge">
<title>Node34&#45;&gt;Node31</title>
<g id="a_edge38_Node000034_Node000031"><a xlink:title=" ">
<path fill="none" stroke="#63b8ff" d="M2357.44,-221.36C2425.91,-213.42 2537.66,-199.64 2633.5,-184 2676.86,-176.92 2686.89,-170.33 2730.5,-165 3050.3,-125.93 3133.54,-157 3454.5,-129 3457.23,-128.76 3460.01,-128.5 3462.82,-128.22"/>
<polygon fill="#63b8ff" stroke="#63b8ff" points="2356.77,-217.91 2347.24,-222.53 2357.58,-224.86 2356.77,-217.91"/>
</a>
</g>
</g>
</g>
</svg>
