<?xml version="1.0" encoding="UTF-8" standalone="no"?>
<!DOCTYPE svg PUBLIC "-//W3C//DTD SVG 1.1//EN"
 "http://www.w3.org/Graphics/SVG/1.1/DTD/svg11.dtd">
<!-- Generated by graphviz version 5.0.0 (20220707.1540)
 -->
<!-- Title: InputEvents.hpp Pages: 1 -->
<svg width="3466pt" height="247pt"
 viewBox="0.00 0.00 3466.00 247.00" xmlns="http://www.w3.org/2000/svg" xmlns:xlink="http://www.w3.org/1999/xlink">
<g id="graph0" class="graph" transform="scale(1 1) rotate(0) translate(4 243)">
<title>InputEvents.hpp</title>
<!-- Node1 -->
<g id="node1" class="node">
<title>Node1</title>
<g id="a_node1"><a xlink:title=" ">
<polygon fill="#999999" stroke="#666666" points="1257,-239 1171,-239 1171,-220 1257,-220 1257,-239"/>
<text text-anchor="middle" x="1214" y="-227" font-family="Helvetica,sans-Serif" font-size="10.00">InputEvents.hpp</text>
</a>
</g>
</g>
<!-- Node2 -->
<g id="node2" class="node">
<title>Node2</title>
<g id="a_node2"><a xlink:href="_discord_core_client_8hpp.html" target="_top" xlink:title=" ">
<polygon fill="white" stroke="#666666" points="1616.5,-184 1503.5,-184 1503.5,-165 1616.5,-165 1616.5,-184"/>
<text text-anchor="middle" x="1560" y="-172" font-family="Helvetica,sans-Serif" font-size="10.00">DiscordCoreClient.hpp</text>
</a>
</g>
</g>
<!-- Node1&#45;&gt;Node2 -->
<g id="edge1" class="edge">
<title>Node1&#45;&gt;Node2</title>
<path fill="none" stroke="#63b8ff" d="M1267.04,-220.38C1331.26,-210.54 1438.91,-194.05 1504.3,-184.03"/>
<polygon fill="#63b8ff" stroke="#63b8ff" points="1266.48,-216.92 1257.12,-221.89 1267.54,-223.84 1266.48,-216.92"/>
</g>
<!-- Node9 -->
<g id="node9" class="node">
<title>Node9</title>
<g id="a_node9"><a xlink:href="_foundation_entities_8cpp.html" target="_top" xlink:title=" ">
<polygon fill="white" stroke="#666666" points="116,-129 0,-129 0,-110 116,-110 116,-129"/>
<text text-anchor="middle" x="58" y="-117" font-family="Helvetica,sans-Serif" font-size="10.00">FoundationEntities.cpp</text>
</a>
</g>
</g>
<!-- Node1&#45;&gt;Node9 -->
<g id="edge32" class="edge">
<title>Node1&#45;&gt;Node9</title>
<path fill="none" stroke="#63b8ff" d="M1160.71,-226.04C1047.89,-220.59 776.63,-206.2 550,-184 392.07,-168.53 206.61,-142.44 115.06,-129.02"/>
<polygon fill="#63b8ff" stroke="#63b8ff" points="1160.65,-229.54 1170.81,-226.53 1160.99,-222.55 1160.65,-229.54"/>
</g>
<!-- Node14 -->
<g id="node14" class="node">
<title>Node14</title>
<g id="a_node14"><a xlink:href="_input_events_8cpp.html" target="_top" xlink:title=" ">
<polygon fill="white" stroke="#666666" points="220,-129 134,-129 134,-110 220,-110 220,-129"/>
<text text-anchor="middle" x="177" y="-117" font-family="Helvetica,sans-Serif" font-size="10.00">InputEvents.cpp</text>
</a>
</g>
</g>
<!-- Node1&#45;&gt;Node14 -->
<g id="edge33" class="edge">
<title>Node1&#45;&gt;Node14</title>
<path fill="none" stroke="#63b8ff" d="M1160.5,-224.26C1012.2,-212.25 583.44,-175.83 229,-129 226.1,-128.62 223.11,-128.2 220.1,-127.75"/>
<polygon fill="#63b8ff" stroke="#63b8ff" points="1160.44,-227.76 1170.68,-225.08 1161,-220.79 1160.44,-227.76"/>
</g>
<!-- Node28 -->
<g id="node28" class="node">
<title>Node28</title>
<g id="a_node28"><a xlink:href="_utilities_8cpp.html" target="_top" xlink:title=" ">
<polygon fill="white" stroke="#666666" points="3458,-129 3390,-129 3390,-110 3458,-110 3458,-129"/>
<text text-anchor="middle" x="3424" y="-117" font-family="Helvetica,sans-Serif" font-size="10.00">Utilities.cpp</text>
</a>
</g>
</g>
<!-- Node1&#45;&gt;Node28 -->
<g id="edge34" class="edge">
<title>Node1&#45;&gt;Node28</title>
<path fill="none" stroke="#63b8ff" d="M1267.35,-228.98C1511.09,-230.54 2542.93,-230.5 3381,-129 3383.87,-128.65 3386.84,-128.22 3389.81,-127.74"/>
<polygon fill="#63b8ff" stroke="#63b8ff" points="1267.36,-225.48 1257.34,-228.91 1267.31,-232.48 1267.36,-225.48"/>
</g>
<!-- Node3 -->
<g id="node3" class="node">
<title>Node3</title>
<g id="a_node3"><a xlink:href="_application_command_entities_8cpp.html" target="_top" xlink:title=" ">
<polygon fill="white" stroke="#666666" points="2275.5,-129 2114.5,-129 2114.5,-110 2275.5,-110 2275.5,-129"/>
<text text-anchor="middle" x="2195" y="-117" font-family="Helvetica,sans-Serif" font-size="10.00">ApplicationCommandEntities.cpp</text>
</a>
</g>
</g>
<!-- Node2&#45;&gt;Node3 -->
<g id="edge2" class="edge">
<title>Node2&#45;&gt;Node3</title>
<path fill="none" stroke="#63b8ff" d="M1626.74,-168.33C1729.5,-160.3 1932.66,-144.17 2105,-129 2107.97,-128.74 2111,-128.47 2114.05,-128.19"/>
<polygon fill="#63b8ff" stroke="#63b8ff" points="1626.21,-164.86 1616.51,-169.12 1626.75,-171.83 1626.21,-164.86"/>
</g>
<!-- Node4 -->
<g id="node4" class="node">
<title>Node4</title>
<g id="a_node4"><a xlink:href="_auto_moderation_entities_8cpp.html" target="_top" xlink:title=" ">
<polygon fill="white" stroke="#666666" points="2430.5,-129 2293.5,-129 2293.5,-110 2430.5,-110 2430.5,-129"/>
<text text-anchor="middle" x="2362" y="-117" font-family="Helvetica,sans-Serif" font-size="10.00">AutoModerationEntities.cpp</text>
</a>
</g>
</g>
<!-- Node2&#45;&gt;Node4 -->
<g id="edge3" class="edge">
<title>Node2&#45;&gt;Node4</title>
<path fill="none" stroke="#63b8ff" d="M1626.88,-170.45C1754.69,-164.37 2042.41,-149.58 2284,-129 2286.99,-128.75 2290.03,-128.47 2293.11,-128.19"/>
<polygon fill="#63b8ff" stroke="#63b8ff" points="1626.68,-166.95 1616.85,-170.92 1627.01,-173.94 1626.68,-166.95"/>
</g>
<!-- Node5 -->
<g id="node5" class="node">
<title>Node5</title>
<g id="a_node5"><a xlink:href="_channel_entities_8cpp.html" target="_top" xlink:title=" ">
<polygon fill="white" stroke="#666666" points="2553,-129 2449,-129 2449,-110 2553,-110 2553,-129"/>
<text text-anchor="middle" x="2501" y="-117" font-family="Helvetica,sans-Serif" font-size="10.00">ChannelEntities.cpp</text>
</a>
</g>
</g>
<!-- Node2&#45;&gt;Node5 -->
<g id="edge4" class="edge">
<title>Node2&#45;&gt;Node5</title>
<path fill="none" stroke="#63b8ff" d="M1626.9,-172.07C1774.02,-168.49 2136.66,-157.33 2439,-129 2442.25,-128.7 2445.58,-128.35 2448.94,-127.97"/>
<polygon fill="#63b8ff" stroke="#63b8ff" points="1626.59,-168.57 1616.68,-172.31 1626.76,-175.57 1626.59,-168.57"/>
</g>
<!-- Node6 -->
<g id="node6" class="node">
<title>Node6</title>
<g id="a_node6"><a xlink:href="_command_controller_8cpp.html" target="_top" xlink:title=" ">
<polygon fill="white" stroke="#666666" points="2692.5,-129 2571.5,-129 2571.5,-110 2692.5,-110 2692.5,-129"/>
<text text-anchor="middle" x="2632" y="-117" font-family="Helvetica,sans-Serif" font-size="10.00">CommandController.cpp</text>
</a>
</g>
</g>
<!-- Node2&#45;&gt;Node6 -->
<g id="edge5" class="edge">
<title>Node2&#45;&gt;Node6</title>
<path fill="none" stroke="#63b8ff" d="M1626.83,-172.3C1787.94,-169.01 2210.5,-158.1 2562,-129 2565.05,-128.75 2568.17,-128.46 2571.32,-128.16"/>
<polygon fill="#63b8ff" stroke="#63b8ff" points="1626.52,-168.8 1616.59,-172.5 1626.66,-175.8 1626.52,-168.8"/>
</g>
<!-- Node7 -->
<g id="node7" class="node">
<title>Node7</title>
<g id="a_node7"><a xlink:href="_discord_core_client_8cpp.html" target="_top" xlink:title=" ">
<polygon fill="white" stroke="#666666" points="2823.5,-129 2710.5,-129 2710.5,-110 2823.5,-110 2823.5,-129"/>
<text text-anchor="middle" x="2767" y="-117" font-family="Helvetica,sans-Serif" font-size="10.00">DiscordCoreClient.cpp</text>
</a>
</g>
</g>
<!-- Node2&#45;&gt;Node7 -->
<g id="edge6" class="edge">
<title>Node2&#45;&gt;Node7</title>
<path fill="none" stroke="#63b8ff" d="M1626.7,-173.02C1802.75,-171.3 2294.44,-163.52 2702,-129 2704.72,-128.77 2707.5,-128.51 2710.31,-128.22"/>
<polygon fill="#63b8ff" stroke="#63b8ff" points="1626.52,-169.52 1616.55,-173.12 1626.59,-176.52 1626.52,-169.52"/>
</g>
<!-- Node8 -->
<g id="node8" class="node">
<title>Node8</title>
<g id="a_node8"><a xlink:href="_event_manager_8cpp.html" target="_top" xlink:title=" ">
<polygon fill="white" stroke="#666666" points="2938.5,-129 2841.5,-129 2841.5,-110 2938.5,-110 2938.5,-129"/>
<text text-anchor="middle" x="2890" y="-117" font-family="Helvetica,sans-Serif" font-size="10.00">EventManager.cpp</text>
</a>
</g>
</g>
<!-- Node2&#45;&gt;Node8 -->
<g id="edge7" class="edge">
<title>Node2&#45;&gt;Node8</title>
<path fill="none" stroke="#63b8ff" d="M1626.68,-173.82C1816.02,-174.16 2372.95,-171.21 2833,-129 2835.69,-128.75 2838.45,-128.46 2841.23,-128.14"/>
<polygon fill="#63b8ff" stroke="#63b8ff" points="1626.62,-170.32 1616.61,-173.8 1626.6,-177.32 1626.62,-170.32"/>
</g>
<!-- Node2&#45;&gt;Node9 -->
<g id="edge8" class="edge">
<title>Node2&#45;&gt;Node9</title>
<path fill="none" stroke="#63b8ff" d="M1493.2,-173.69C1288.35,-173.77 651.02,-170.43 125,-129 122.08,-128.77 119.09,-128.5 116.07,-128.21"/>
<polygon fill="#63b8ff" stroke="#63b8ff" points="1493.49,-177.19 1503.49,-173.68 1493.49,-170.19 1493.49,-177.19"/>
</g>
<!-- Node10 -->
<g id="node10" class="node">
<title>Node10</title>
<g id="a_node10"><a xlink:href="_guild_entities_8cpp.html" target="_top" xlink:title=" ">
<polygon fill="white" stroke="#666666" points="3047.5,-129 2956.5,-129 2956.5,-110 3047.5,-110 3047.5,-129"/>
<text text-anchor="middle" x="3002" y="-117" font-family="Helvetica,sans-Serif" font-size="10.00">GuildEntities.cpp</text>
</a>
</g>
</g>
<!-- Node2&#45;&gt;Node10 -->
<g id="edge9" class="edge">
<title>Node2&#45;&gt;Node10</title>
<path fill="none" stroke="#63b8ff" d="M1626.97,-172.46C1867.45,-168.53 2686.95,-153.63 2948,-129 2950.74,-128.74 2953.55,-128.43 2956.39,-128.09"/>
<polygon fill="#63b8ff" stroke="#63b8ff" points="1626.57,-168.96 1616.63,-172.62 1626.69,-175.96 1626.57,-168.96"/>
</g>
<!-- Node11 -->
<g id="node11" class="node">
<title>Node11</title>
<g id="a_node11"><a xlink:href="_guild_member_entities_8cpp.html" target="_top" xlink:title=" ">
<polygon fill="white" stroke="#666666" points="3192,-129 3066,-129 3066,-110 3192,-110 3192,-129"/>
<text text-anchor="middle" x="3129" y="-117" font-family="Helvetica,sans-Serif" font-size="10.00">GuildMemberEntities.cpp</text>
</a>
</g>
</g>
<!-- Node2&#45;&gt;Node11 -->
<g id="edge10" class="edge">
<title>Node2&#45;&gt;Node11</title>
<path fill="none" stroke="#63b8ff" d="M1626.78,-173.6C1837.25,-173.48 2505.56,-169.67 3057,-129 3059.89,-128.79 3062.84,-128.54 3065.81,-128.28"/>
<polygon fill="#63b8ff" stroke="#63b8ff" points="1626.51,-170.1 1616.51,-173.61 1626.51,-177.1 1626.51,-170.1"/>
</g>
<!-- Node12 -->
<g id="node12" class="node">
<title>Node12</title>
<g id="a_node12"><a xlink:href="_guild_scheduled_event_entities_8cpp.html" target="_top" xlink:title=" ">
<polygon fill="white" stroke="#666666" points="3371.5,-129 3210.5,-129 3210.5,-110 3371.5,-110 3371.5,-129"/>
<text text-anchor="middle" x="3291" y="-117" font-family="Helvetica,sans-Serif" font-size="10.00">GuildScheduledEventEntities.cpp</text>
</a>
</g>
</g>
<!-- Node2&#45;&gt;Node12 -->
<g id="edge11" class="edge">
<title>Node2&#45;&gt;Node12</title>
<path fill="none" stroke="#63b8ff" d="M1626.99,-173.29C1850.43,-172.26 2590.53,-166.06 3201,-129 3203.98,-128.82 3207.01,-128.62 3210.07,-128.4"/>
<polygon fill="#63b8ff" stroke="#63b8ff" points="1626.73,-169.79 1616.74,-173.34 1626.76,-176.79 1626.73,-169.79"/>
</g>
<!-- Node13 -->
<g id="node13" class="node">
<title>Node13</title>
<g id="a_node13"><a xlink:href="_https_client_8cpp.html" target="_top" xlink:title=" ">
<polygon fill="white" stroke="#666666" points="321.5,-129 238.5,-129 238.5,-110 321.5,-110 321.5,-129"/>
<text text-anchor="middle" x="280" y="-117" font-family="Helvetica,sans-Serif" font-size="10.00">HttpsClient.cpp</text>
</a>
</g>
</g>
<!-- Node2&#45;&gt;Node13 -->
<g id="edge12" class="edge">
<title>Node2&#45;&gt;Node13</title>
<path fill="none" stroke="#63b8ff" d="M1493.3,-174.18C1308.13,-175.39 772.28,-174.39 330,-129 327.28,-128.72 324.49,-128.39 321.69,-128.01"/>
<polygon fill="#63b8ff" stroke="#63b8ff" points="1493.45,-177.68 1503.42,-174.11 1493.4,-170.68 1493.45,-177.68"/>
</g>
<!-- Node2&#45;&gt;Node14 -->
<g id="edge13" class="edge">
<title>Node2&#45;&gt;Node14</title>
<path fill="none" stroke="#63b8ff" d="M1493.4,-172.41C1259.81,-168.4 478.4,-153.45 229,-129 226.09,-128.71 223.09,-128.37 220.07,-127.98"/>
<polygon fill="#63b8ff" stroke="#63b8ff" points="1493.4,-175.91 1503.46,-172.58 1493.52,-168.91 1493.4,-175.91"/>
</g>
<!-- Node15 -->
<g id="node15" class="node">
<title>Node15</title>
<g id="a_node15"><a xlink:href="_interaction_entities_8cpp.html" target="_top" xlink:title=" ">
<polygon fill="white" stroke="#666666" points="452.5,-129 339.5,-129 339.5,-110 452.5,-110 452.5,-129"/>
<text text-anchor="middle" x="396" y="-117" font-family="Helvetica,sans-Serif" font-size="10.00">InteractionEntities.cpp</text>
</a>
</g>
</g>
<!-- Node2&#45;&gt;Node15 -->
<g id="edge14" class="edge">
<title>Node2&#45;&gt;Node15</title>
<path fill="none" stroke="#63b8ff" d="M1493.18,-172.83C1321.65,-170.66 851.83,-161.94 462,-129 459.01,-128.75 455.94,-128.46 452.85,-128.14"/>
<polygon fill="#63b8ff" stroke="#63b8ff" points="1493.28,-176.33 1503.32,-172.95 1493.36,-169.33 1493.28,-176.33"/>
</g>
<!-- Node16 -->
<g id="node16" class="node">
<title>Node16</title>
<g id="a_node16"><a xlink:href="_message_entities_8cpp.html" target="_top" xlink:title=" ">
<polygon fill="white" stroke="#666666" points="579,-129 471,-129 471,-110 579,-110 579,-129"/>
<text text-anchor="middle" x="525" y="-117" font-family="Helvetica,sans-Serif" font-size="10.00">MessageEntities.cpp</text>
</a>
</g>
</g>
<!-- Node2&#45;&gt;Node16 -->
<g id="edge15" class="edge">
<title>Node2&#45;&gt;Node16</title>
<path fill="none" stroke="#63b8ff" d="M1493.44,-172.48C1335.83,-169.62 927.55,-159.62 588,-129 585.14,-128.74 582.21,-128.45 579.26,-128.13"/>
<polygon fill="#63b8ff" stroke="#63b8ff" points="1493.4,-175.98 1503.46,-172.66 1493.52,-168.98 1493.4,-175.98"/>
</g>
<!-- Node17 -->
<g id="node17" class="node">
<title>Node17</title>
<g id="a_node17"><a xlink:href="_reaction_entities_8cpp.html" target="_top" xlink:title=" ">
<polygon fill="white" stroke="#666666" points="704.5,-129 597.5,-129 597.5,-110 704.5,-110 704.5,-129"/>
<text text-anchor="middle" x="651" y="-117" font-family="Helvetica,sans-Serif" font-size="10.00">ReactionEntities.cpp</text>
</a>
</g>
</g>
<!-- Node2&#45;&gt;Node17 -->
<g id="edge16" class="edge">
<title>Node2&#45;&gt;Node17</title>
<path fill="none" stroke="#63b8ff" d="M1493.09,-171.84C1349.91,-167.87 1003.3,-156.08 714,-129 710.92,-128.71 707.77,-128.39 704.58,-128.03"/>
<polygon fill="#63b8ff" stroke="#63b8ff" points="1493.36,-175.34 1503.45,-172.12 1493.55,-168.35 1493.36,-175.34"/>
</g>
<!-- Node18 -->
<g id="node18" class="node">
<title>Node18</title>
<g id="a_node18"><a xlink:href="_role_entities_8cpp.html" target="_top" xlink:title=" ">
<polygon fill="white" stroke="#666666" points="811,-129 723,-129 723,-110 811,-110 811,-129"/>
<text text-anchor="middle" x="767" y="-117" font-family="Helvetica,sans-Serif" font-size="10.00">RoleEntities.cpp</text>
</a>
</g>
</g>
<!-- Node2&#45;&gt;Node18 -->
<g id="edge17" class="edge">
<title>Node2&#45;&gt;Node18</title>
<path fill="none" stroke="#63b8ff" d="M1493.01,-171.69C1362.94,-167.69 1067.25,-156.19 820,-129 817.13,-128.68 814.18,-128.32 811.2,-127.92"/>
<polygon fill="#63b8ff" stroke="#63b8ff" points="1493.11,-175.2 1503.21,-172 1493.32,-168.2 1493.11,-175.2"/>
</g>
<!-- Node19 -->
<g id="node19" class="node">
<title>Node19</title>
<g id="a_node19"><a xlink:href="_song_a_p_i_8cpp.html" target="_top" xlink:title=" ">
<polygon fill="white" stroke="#666666" points="903,-129 829,-129 829,-110 903,-110 903,-129"/>
<text text-anchor="middle" x="866" y="-117" font-family="Helvetica,sans-Serif" font-size="10.00">SongAPI.cpp</text>
</a>
</g>
</g>
<!-- Node2&#45;&gt;Node19 -->
<g id="edge18" class="edge">
<title>Node2&#45;&gt;Node19</title>
<path fill="none" stroke="#63b8ff" d="M1493.15,-171.43C1375.35,-167.21 1123.22,-155.68 912,-129 909.1,-128.63 906.1,-128.2 903.1,-127.73"/>
<polygon fill="#63b8ff" stroke="#63b8ff" points="1493.33,-174.93 1503.45,-171.79 1493.58,-167.94 1493.33,-174.93"/>
</g>
<!-- Node20 -->
<g id="node20" class="node">
<title>Node20</title>
<g id="a_node20"><a xlink:href="_sound_cloud_a_p_i_8cpp.html" target="_top" xlink:title=" ">
<polygon fill="white" stroke="#666666" points="1025,-129 921,-129 921,-110 1025,-110 1025,-129"/>
<text text-anchor="middle" x="973" y="-117" font-family="Helvetica,sans-Serif" font-size="10.00">SoundCloudAPI.cpp</text>
</a>
</g>
</g>
<!-- Node2&#45;&gt;Node20 -->
<g id="edge19" class="edge">
<title>Node2&#45;&gt;Node20</title>
<path fill="none" stroke="#63b8ff" d="M1493.21,-169.01C1393.21,-162.03 1198.71,-147.43 1034,-129 1031.13,-128.68 1028.19,-128.33 1025.22,-127.97"/>
<polygon fill="#63b8ff" stroke="#63b8ff" points="1493.25,-172.52 1503.47,-169.72 1493.73,-165.54 1493.25,-172.52"/>
</g>
<!-- Node21 -->
<g id="node21" class="node">
<title>Node21</title>
<g id="a_node21"><a xlink:href="_stage_instance_entities_8cpp.html" target="_top" xlink:title=" ">
<polygon fill="white" stroke="#666666" points="1174.5,-129 1043.5,-129 1043.5,-110 1174.5,-110 1174.5,-129"/>
<text text-anchor="middle" x="1109" y="-117" font-family="Helvetica,sans-Serif" font-size="10.00">StageInstanceEntities.cpp</text>
</a>
</g>
</g>
<!-- Node2&#45;&gt;Node21 -->
<g id="edge20" class="edge">
<title>Node2&#45;&gt;Node21</title>
<path fill="none" stroke="#63b8ff" d="M1493.2,-165.65C1407.47,-155.58 1259.68,-138.21 1174.55,-128.2"/>
<polygon fill="#63b8ff" stroke="#63b8ff" points="1493,-169.15 1503.34,-166.84 1493.81,-162.2 1493,-169.15"/>
</g>
<!-- Node22 -->
<g id="node22" class="node">
<title>Node22</title>
<g id="a_node22"><a xlink:href="_sticker_entities_8cpp.html" target="_top" xlink:title=" ">
<polygon fill="white" stroke="#666666" points="1291.5,-129 1192.5,-129 1192.5,-110 1291.5,-110 1291.5,-129"/>
<text text-anchor="middle" x="1242" y="-117" font-family="Helvetica,sans-Serif" font-size="10.00">StickerEntities.cpp</text>
</a>
</g>
</g>
<!-- Node2&#45;&gt;Node22 -->
<g id="edge21" class="edge">
<title>Node2&#45;&gt;Node22</title>
<path fill="none" stroke="#63b8ff" d="M1498.77,-163.29C1438.49,-153.25 1347.58,-138.1 1291.66,-128.78"/>
<polygon fill="#63b8ff" stroke="#63b8ff" points="1498.47,-166.79 1508.91,-164.98 1499.62,-159.89 1498.47,-166.79"/>
</g>
<!-- Node23 -->
<g id="node23" class="node">
<title>Node23</title>
<g id="a_node23"><a xlink:href="_thread_entities_8cpp.html" target="_top" xlink:title=" ">
<polygon fill="white" stroke="#666666" points="1408,-129 1310,-129 1310,-110 1408,-110 1408,-129"/>
<text text-anchor="middle" x="1359" y="-117" font-family="Helvetica,sans-Serif" font-size="10.00">ThreadEntities.cpp</text>
</a>
</g>
</g>
<!-- Node2&#45;&gt;Node23 -->
<g id="edge22" class="edge">
<title>Node2&#45;&gt;Node23</title>
<path fill="none" stroke="#63b8ff" d="M1517.57,-162.31C1479.96,-152.39 1425.83,-138.12 1391.55,-129.08"/>
<polygon fill="#63b8ff" stroke="#63b8ff" points="1517.14,-165.82 1527.71,-164.98 1518.93,-159.05 1517.14,-165.82"/>
</g>
<!-- Node24 -->
<g id="node24" class="node">
<title>Node24</title>
<g id="a_node24"><a xlink:href="_to_entity_8hpp.html" target="_top" xlink:title=" ">
<polygon fill="white" stroke="#666666" points="1497.5,-129 1426.5,-129 1426.5,-110 1497.5,-110 1497.5,-129"/>
<text text-anchor="middle" x="1462" y="-117" font-family="Helvetica,sans-Serif" font-size="10.00">ToEntity.hpp</text>
</a>
</g>
</g>
<!-- Node2&#45;&gt;Node24 -->
<g id="edge23" class="edge">
<title>Node2&#45;&gt;Node24</title>
<path fill="none" stroke="#63b8ff" d="M1534.97,-159.97C1517.06,-150.28 1493.47,-137.52 1478.03,-129.17"/>
<polygon fill="#63b8ff" stroke="#63b8ff" points="1533.79,-163.31 1544.25,-164.98 1537.12,-157.15 1533.79,-163.31"/>
</g>
<!-- Node27 -->
<g id="node27" class="node">
<title>Node27</title>
<g id="a_node27"><a xlink:href="_user_entities_8cpp.html" target="_top" xlink:title=" ">
<polygon fill="white" stroke="#666666" points="1604.5,-129 1515.5,-129 1515.5,-110 1604.5,-110 1604.5,-129"/>
<text text-anchor="middle" x="1560" y="-117" font-family="Helvetica,sans-Serif" font-size="10.00">UserEntities.cpp</text>
</a>
</g>
</g>
<!-- Node2&#45;&gt;Node27 -->
<g id="edge26" class="edge">
<title>Node2&#45;&gt;Node27</title>
<path fill="none" stroke="#63b8ff" d="M1560,-154.66C1560,-145.93 1560,-135.99 1560,-129.09"/>
<polygon fill="#63b8ff" stroke="#63b8ff" points="1556.5,-154.75 1560,-164.75 1563.5,-154.75 1556.5,-154.75"/>
</g>
<!-- Node2&#45;&gt;Node28 -->
<g id="edge27" class="edge">
<title>Node2&#45;&gt;Node28</title>
<path fill="none" stroke="#63b8ff" d="M1626.95,-173.39C1912.64,-172.71 3031.11,-167.57 3381,-129 3383.87,-128.68 3386.84,-128.27 3389.81,-127.8"/>
<polygon fill="#63b8ff" stroke="#63b8ff" points="1626.73,-169.9 1616.74,-173.42 1626.75,-176.9 1626.73,-169.9"/>
</g>
<!-- Node29 -->
<g id="node29" class="node">
<title>Node29</title>
<g id="a_node29"><a xlink:href="_voice_connection_8cpp.html" target="_top" xlink:title=" ">
<polygon fill="white" stroke="#666666" points="1731.5,-129 1622.5,-129 1622.5,-110 1731.5,-110 1731.5,-129"/>
<text text-anchor="middle" x="1677" y="-117" font-family="Helvetica,sans-Serif" font-size="10.00">VoiceConnection.cpp</text>
</a>
</g>
</g>
<!-- Node2&#45;&gt;Node29 -->
<g id="edge28" class="edge">
<title>Node2&#45;&gt;Node29</title>
<path fill="none" stroke="#63b8ff" d="M1588.11,-160.77C1609.69,-150.99 1638.91,-137.75 1657.86,-129.17"/>
<polygon fill="#63b8ff" stroke="#63b8ff" points="1586.46,-157.67 1578.8,-164.98 1589.35,-164.05 1586.46,-157.67"/>
</g>
<!-- Node30 -->
<g id="node30" class="node">
<title>Node30</title>
<g id="a_node30"><a xlink:href="_web_hook_entities_8cpp.html" target="_top" xlink:title=" ">
<polygon fill="white" stroke="#666666" points="1860.5,-129 1749.5,-129 1749.5,-110 1860.5,-110 1860.5,-129"/>
<text text-anchor="middle" x="1805" y="-117" font-family="Helvetica,sans-Serif" font-size="10.00">WebHookEntities.cpp</text>
</a>
</g>
</g>
<!-- Node2&#45;&gt;Node30 -->
<g id="edge29" class="edge">
<title>Node2&#45;&gt;Node30</title>
<path fill="none" stroke="#63b8ff" d="M1609.39,-162.82C1655.3,-152.88 1722.83,-138.28 1765.33,-129.08"/>
<polygon fill="#63b8ff" stroke="#63b8ff" points="1608.4,-159.45 1599.36,-164.98 1609.88,-166.29 1608.4,-159.45"/>
</g>
<!-- Node31 -->
<g id="node31" class="node">
<title>Node31</title>
<g id="a_node31"><a xlink:href="_web_socket_client_8cpp.html" target="_top" xlink:title=" ">
<polygon fill="white" stroke="#666666" points="1989.5,-129 1878.5,-129 1878.5,-110 1989.5,-110 1989.5,-129"/>
<text text-anchor="middle" x="1934" y="-117" font-family="Helvetica,sans-Serif" font-size="10.00">WebSocketClient.cpp</text>
</a>
</g>
</g>
<!-- Node2&#45;&gt;Node31 -->
<g id="edge30" class="edge">
<title>Node2&#45;&gt;Node31</title>
<path fill="none" stroke="#63b8ff" d="M1627.09,-163.99C1698.9,-153.82 1811.5,-137.86 1878.5,-128.37"/>
<polygon fill="#63b8ff" stroke="#63b8ff" points="1626.21,-160.58 1616.8,-165.45 1627.19,-167.51 1626.21,-160.58"/>
</g>
<!-- Node32 -->
<g id="node32" class="node">
<title>Node32</title>
<g id="a_node32"><a xlink:href="_you_tube_a_p_i_8cpp.html" target="_top" xlink:title=" ">
<polygon fill="white" stroke="#666666" points="2096.5,-129 2007.5,-129 2007.5,-110 2096.5,-110 2096.5,-129"/>
<text text-anchor="middle" x="2052" y="-117" font-family="Helvetica,sans-Serif" font-size="10.00">YouTubeAPI.cpp</text>
</a>
</g>
</g>
<!-- Node2&#45;&gt;Node32 -->
<g id="edge31" class="edge">
<title>Node2&#45;&gt;Node32</title>
<path fill="none" stroke="#63b8ff" d="M1626.96,-167.85C1713,-160.32 1866.89,-145.97 1998,-129 2001.01,-128.61 2004.11,-128.19 2007.24,-127.74"/>
<polygon fill="#63b8ff" stroke="#63b8ff" points="1626.47,-164.38 1616.81,-168.73 1627.08,-171.35 1626.47,-164.38"/>
</g>
<!-- Node25 -->
<g id="node25" class="node">
<title>Node25</title>
<g id="a_node25"><a xlink:href="_index_8hpp.html" target="_top" xlink:title=" ">
<polygon fill="white" stroke="#666666" points="1491.5,-74 1432.5,-74 1432.5,-55 1491.5,-55 1491.5,-74"/>
<text text-anchor="middle" x="1462" y="-62" font-family="Helvetica,sans-Serif" font-size="10.00">Index.hpp</text>
</a>
</g>
</g>
<!-- Node24&#45;&gt;Node25 -->
<g id="edge24" class="edge">
<title>Node24&#45;&gt;Node25</title>
<path fill="none" stroke="#63b8ff" d="M1462,-99.66C1462,-90.93 1462,-80.99 1462,-74.09"/>
<polygon fill="#63b8ff" stroke="#63b8ff" points="1458.5,-99.75 1462,-109.75 1465.5,-99.75 1458.5,-99.75"/>
</g>
<!-- Node26 -->
<g id="node26" class="node">
<title>Node26</title>
<g id="a_node26"><a xlink:href="_dll_main_8cpp.html" target="_top" xlink:title=" ">
<polygon fill="white" stroke="#666666" points="1496,-19 1428,-19 1428,0 1496,0 1496,-19"/>
<text text-anchor="middle" x="1462" y="-7" font-family="Helvetica,sans-Serif" font-size="10.00">DllMain.cpp</text>
</a>
</g>
</g>
<!-- Node25&#45;&gt;Node26 -->
<g id="edge25" class="edge">
<title>Node25&#45;&gt;Node26</title>
<path fill="none" stroke="#63b8ff" d="M1462,-44.66C1462,-35.93 1462,-25.99 1462,-19.09"/>
<polygon fill="#63b8ff" stroke="#63b8ff" points="1458.5,-44.75 1462,-54.75 1465.5,-44.75 1458.5,-44.75"/>
</g>
</g>
</svg>
