<?xml version="1.0" encoding="UTF-8" standalone="no"?>
<!DOCTYPE svg PUBLIC "-//W3C//DTD SVG 1.1//EN"
 "http://www.w3.org/Graphics/SVG/1.1/DTD/svg11.dtd">
<!-- Generated by graphviz version 2.43.0 (0)
 -->
<!-- Title: InputEvents.hpp Pages: 1 -->
<svg width="3737pt" height="247pt"
 viewBox="0.00 0.00 3736.50 247.00" xmlns="http://www.w3.org/2000/svg" xmlns:xlink="http://www.w3.org/1999/xlink">
<g id="graph0" class="graph" transform="scale(1 1) rotate(0) translate(4 243)">
<title>InputEvents.hpp</title>
<!-- Node1 -->
<g id="Node000001" class="node">
<title>Node1</title>
<g id="a_Node000001"><a xlink:title=" ">
<polygon fill="#999999" stroke="#666666" points="1351.5,-239 1256.5,-239 1256.5,-220 1351.5,-220 1351.5,-239"/>
<text text-anchor="middle" x="1304" y="-227" font-family="Helvetica,sans-Serif" font-size="10.00">InputEvents.hpp</text>
</a>
</g>
</g>
<!-- Node2 -->
<g id="Node000002" class="node">
<title>Node2</title>
<g id="a_Node000002"><a xlink:href="_discord_core_client_8hpp.html" target="_top" xlink:title=" ">
<polygon fill="white" stroke="#666666" points="1736.5,-184 1611.5,-184 1611.5,-165 1736.5,-165 1736.5,-184"/>
<text text-anchor="middle" x="1674" y="-172" font-family="Helvetica,sans-Serif" font-size="10.00">DiscordCoreClient.hpp</text>
</a>
</g>
</g>
<!-- Node1&#45;&gt;Node2 -->
<g id="edge1_Node000001_Node000002" class="edge">
<title>Node1&#45;&gt;Node2</title>
<g id="a_edge1_Node000001_Node000002"><a xlink:title=" ">
<path fill="none" stroke="#63b8ff" d="M1361.85,-220.21C1430.72,-210.35 1545.13,-193.96 1614.65,-184"/>
<polygon fill="#63b8ff" stroke="#63b8ff" points="1361.02,-216.8 1351.61,-221.68 1362.01,-223.73 1361.02,-216.8"/>
</a>
</g>
</g>
<!-- Node9 -->
<g id="Node000009" class="node">
<title>Node9</title>
<g id="a_Node000009"><a xlink:href="_foundation_entities_8cpp.html" target="_top" xlink:title=" ">
<polygon fill="white" stroke="#666666" points="128,-129 0,-129 0,-110 128,-110 128,-129"/>
<text text-anchor="middle" x="64" y="-117" font-family="Helvetica,sans-Serif" font-size="10.00">FoundationEntities.cpp</text>
</a>
</g>
</g>
<!-- Node1&#45;&gt;Node9 -->
<g id="edge32_Node000001_Node000009" class="edge">
<title>Node1&#45;&gt;Node9</title>
<g id="a_edge32_Node000001_Node000009"><a xlink:title=" ">
<path fill="none" stroke="#63b8ff" d="M1245.98,-225.98C1124.73,-220.46 835.71,-206.04 594,-184 423.96,-168.5 224.14,-142.42 125.49,-129.01"/>
<polygon fill="#63b8ff" stroke="#63b8ff" points="1246,-229.48 1256.14,-226.44 1246.31,-222.49 1246,-229.48"/>
</a>
</g>
</g>
<!-- Node14 -->
<g id="Node000014" class="node">
<title>Node14</title>
<g id="a_Node000014"><a xlink:href="_input_events_8cpp.html" target="_top" xlink:title=" ">
<polygon fill="white" stroke="#666666" points="241.5,-129 146.5,-129 146.5,-110 241.5,-110 241.5,-129"/>
<text text-anchor="middle" x="194" y="-117" font-family="Helvetica,sans-Serif" font-size="10.00">InputEvents.cpp</text>
</a>
</g>
</g>
<!-- Node1&#45;&gt;Node14 -->
<g id="edge33_Node000001_Node000014" class="edge">
<title>Node1&#45;&gt;Node14</title>
<g id="a_edge33_Node000001_Node000014"><a xlink:title=" ">
<path fill="none" stroke="#63b8ff" d="M1246.38,-224.15C1087.5,-211.92 629.8,-175.11 251,-129 247.92,-128.63 244.75,-128.22 241.56,-127.79"/>
<polygon fill="#63b8ff" stroke="#63b8ff" points="1246.17,-227.65 1256.41,-224.92 1246.71,-220.67 1246.17,-227.65"/>
</a>
</g>
</g>
<!-- Node28 -->
<g id="Node000028" class="node">
<title>Node28</title>
<g id="a_Node000028"><a xlink:href="_utilities_8cpp.html" target="_top" xlink:title=" ">
<polygon fill="white" stroke="#666666" points="3728.5,-129 3653.5,-129 3653.5,-110 3728.5,-110 3728.5,-129"/>
<text text-anchor="middle" x="3691" y="-117" font-family="Helvetica,sans-Serif" font-size="10.00">Utilities.cpp</text>
</a>
</g>
</g>
<!-- Node1&#45;&gt;Node28 -->
<g id="edge34_Node000001_Node000028" class="edge">
<title>Node1&#45;&gt;Node28</title>
<g id="a_edge34_Node000001_Node000028"><a xlink:title=" ">
<path fill="none" stroke="#63b8ff" d="M1361.69,-229.02C1625.01,-230.78 2739.03,-231.45 3645,-129 3647.74,-128.69 3650.57,-128.31 3653.41,-127.89"/>
<polygon fill="#63b8ff" stroke="#63b8ff" points="1361.61,-225.52 1351.59,-228.95 1361.57,-232.52 1361.61,-225.52"/>
</a>
</g>
</g>
<!-- Node3 -->
<g id="Node000003" class="node">
<title>Node3</title>
<g id="a_Node000003"><a xlink:href="_application_command_entities_8cpp.html" target="_top" xlink:title=" ">
<polygon fill="white" stroke="#666666" points="2441.5,-129 2262.5,-129 2262.5,-110 2441.5,-110 2441.5,-129"/>
<text text-anchor="middle" x="2352" y="-117" font-family="Helvetica,sans-Serif" font-size="10.00">ApplicationCommandEntities.cpp</text>
</a>
</g>
</g>
<!-- Node2&#45;&gt;Node3 -->
<g id="edge2_Node000002_Node000003" class="edge">
<title>Node2&#45;&gt;Node3</title>
<g id="a_edge2_Node000002_Node000003"><a xlink:title=" ">
<path fill="none" stroke="#63b8ff" d="M1746.85,-168.11C1856.62,-159.94 2070.96,-143.81 2253,-129 2256.09,-128.75 2259.24,-128.49 2262.42,-128.23"/>
<polygon fill="#63b8ff" stroke="#63b8ff" points="1746.27,-164.64 1736.56,-168.88 1746.79,-171.62 1746.27,-164.64"/>
</a>
</g>
</g>
<!-- Node4 -->
<g id="Node000004" class="node">
<title>Node4</title>
<g id="a_Node000004"><a xlink:href="_auto_moderation_entities_8cpp.html" target="_top" xlink:title=" ">
<polygon fill="white" stroke="#666666" points="2612,-129 2460,-129 2460,-110 2612,-110 2612,-129"/>
<text text-anchor="middle" x="2536" y="-117" font-family="Helvetica,sans-Serif" font-size="10.00">AutoModerationEntities.cpp</text>
</a>
</g>
</g>
<!-- Node2&#45;&gt;Node4 -->
<g id="edge3_Node000002_Node000004" class="edge">
<title>Node2&#45;&gt;Node4</title>
<g id="a_edge3_Node000002_Node000004"><a xlink:title=" ">
<path fill="none" stroke="#63b8ff" d="M1746.67,-170.33C1884.13,-164.12 2191.6,-149.17 2450,-129 2453.14,-128.75 2456.35,-128.49 2459.58,-128.22"/>
<polygon fill="#63b8ff" stroke="#63b8ff" points="1746.51,-166.84 1736.67,-170.78 1746.82,-173.83 1746.51,-166.84"/>
</a>
</g>
</g>
<!-- Node5 -->
<g id="Node000005" class="node">
<title>Node5</title>
<g id="a_Node000005"><a xlink:href="_channel_entities_8cpp.html" target="_top" xlink:title=" ">
<polygon fill="white" stroke="#666666" points="2743.5,-129 2630.5,-129 2630.5,-110 2743.5,-110 2743.5,-129"/>
<text text-anchor="middle" x="2687" y="-117" font-family="Helvetica,sans-Serif" font-size="10.00">ChannelEntities.cpp</text>
</a>
</g>
</g>
<!-- Node2&#45;&gt;Node5 -->
<g id="edge4_Node000002_Node000005" class="edge">
<title>Node2&#45;&gt;Node5</title>
<g id="a_edge4_Node000002_Node000005"><a xlink:title=" ">
<path fill="none" stroke="#63b8ff" d="M1746.86,-172.09C1905.85,-168.57 2295.71,-157.54 2621,-129 2623.99,-128.74 2627.06,-128.44 2630.15,-128.12"/>
<polygon fill="#63b8ff" stroke="#63b8ff" points="1746.65,-168.59 1736.73,-172.31 1746.8,-175.59 1746.65,-168.59"/>
</a>
</g>
</g>
<!-- Node6 -->
<g id="Node000006" class="node">
<title>Node6</title>
<g id="a_Node000006"><a xlink:href="_command_controller_8cpp.html" target="_top" xlink:title=" ">
<polygon fill="white" stroke="#666666" points="2896,-129 2762,-129 2762,-110 2896,-110 2896,-129"/>
<text text-anchor="middle" x="2829" y="-117" font-family="Helvetica,sans-Serif" font-size="10.00">CommandController.cpp</text>
</a>
</g>
</g>
<!-- Node2&#45;&gt;Node6 -->
<g id="edge5_Node000002_Node000006" class="edge">
<title>Node2&#45;&gt;Node6</title>
<g id="a_edge5_Node000002_Node000006"><a xlink:title=" ">
<path fill="none" stroke="#63b8ff" d="M1746.8,-172.26C1920.89,-168.91 2374.97,-157.9 2753,-129 2755.91,-128.78 2758.89,-128.53 2761.89,-128.26"/>
<polygon fill="#63b8ff" stroke="#63b8ff" points="1746.66,-168.76 1736.73,-172.45 1746.79,-175.76 1746.66,-168.76"/>
</a>
</g>
</g>
<!-- Node7 -->
<g id="Node000007" class="node">
<title>Node7</title>
<g id="a_Node000007"><a xlink:href="_discord_core_client_8cpp.html" target="_top" xlink:title=" ">
<polygon fill="white" stroke="#666666" points="3039.5,-129 2914.5,-129 2914.5,-110 3039.5,-110 3039.5,-129"/>
<text text-anchor="middle" x="2977" y="-117" font-family="Helvetica,sans-Serif" font-size="10.00">DiscordCoreClient.cpp</text>
</a>
</g>
</g>
<!-- Node2&#45;&gt;Node7 -->
<g id="edge6_Node000002_Node000007" class="edge">
<title>Node2&#45;&gt;Node7</title>
<g id="a_edge6_Node000002_Node000007"><a xlink:title=" ">
<path fill="none" stroke="#63b8ff" d="M1746.72,-172.94C1937.16,-171.01 2466.1,-162.78 2905,-129 2908.01,-128.77 2911.09,-128.51 2914.2,-128.22"/>
<polygon fill="#63b8ff" stroke="#63b8ff" points="1746.52,-169.44 1736.55,-173.04 1746.58,-176.44 1746.52,-169.44"/>
</a>
</g>
</g>
<!-- Node8 -->
<g id="Node000008" class="node">
<title>Node8</title>
<g id="a_Node000008"><a xlink:href="_event_manager_8cpp.html" target="_top" xlink:title=" ">
<polygon fill="white" stroke="#666666" points="3164.5,-129 3057.5,-129 3057.5,-110 3164.5,-110 3164.5,-129"/>
<text text-anchor="middle" x="3111" y="-117" font-family="Helvetica,sans-Serif" font-size="10.00">EventManager.cpp</text>
</a>
</g>
</g>
<!-- Node2&#45;&gt;Node8 -->
<g id="edge7_Node000002_Node000008" class="edge">
<title>Node2&#45;&gt;Node8</title>
<g id="a_edge7_Node000002_Node000008"><a xlink:title=" ">
<path fill="none" stroke="#63b8ff" d="M1746.89,-173.8C1952.18,-174.08 2552.54,-170.95 3049,-129 3051.71,-128.77 3054.48,-128.51 3057.27,-128.21"/>
<polygon fill="#63b8ff" stroke="#63b8ff" points="1746.84,-170.3 1736.83,-173.79 1746.83,-177.3 1746.84,-170.3"/>
</a>
</g>
</g>
<!-- Node2&#45;&gt;Node9 -->
<g id="edge8_Node000002_Node000009" class="edge">
<title>Node2&#45;&gt;Node9</title>
<g id="a_edge8_Node000002_Node000009"><a xlink:title=" ">
<path fill="none" stroke="#63b8ff" d="M1601.15,-173.64C1380.39,-173.57 699.51,-169.81 137,-129 134.07,-128.79 131.08,-128.54 128.06,-128.28"/>
<polygon fill="#63b8ff" stroke="#63b8ff" points="1601.31,-177.14 1611.31,-173.64 1601.31,-170.14 1601.31,-177.14"/>
</a>
</g>
</g>
<!-- Node10 -->
<g id="Node000010" class="node">
<title>Node10</title>
<g id="a_Node000010"><a xlink:href="_guild_entities_8cpp.html" target="_top" xlink:title=" ">
<polygon fill="white" stroke="#666666" points="3281.5,-129 3182.5,-129 3182.5,-110 3281.5,-110 3281.5,-129"/>
<text text-anchor="middle" x="3232" y="-117" font-family="Helvetica,sans-Serif" font-size="10.00">GuildEntities.cpp</text>
</a>
</g>
</g>
<!-- Node2&#45;&gt;Node10 -->
<g id="edge9_Node000002_Node000010" class="edge">
<title>Node2&#45;&gt;Node10</title>
<g id="a_edge9_Node000002_Node000010"><a xlink:title=" ">
<path fill="none" stroke="#63b8ff" d="M1746.97,-172.46C2007.6,-168.56 2891.96,-153.77 3174,-129 3176.74,-128.76 3179.54,-128.48 3182.37,-128.16"/>
<polygon fill="#63b8ff" stroke="#63b8ff" points="1746.81,-168.96 1736.87,-172.61 1746.92,-175.96 1746.81,-168.96"/>
</a>
</g>
</g>
<!-- Node11 -->
<g id="Node000011" class="node">
<title>Node11</title>
<g id="a_Node000011"><a xlink:href="_guild_member_entities_8cpp.html" target="_top" xlink:title=" ">
<polygon fill="white" stroke="#666666" points="3440,-129 3300,-129 3300,-110 3440,-110 3440,-129"/>
<text text-anchor="middle" x="3370" y="-117" font-family="Helvetica,sans-Serif" font-size="10.00">GuildMemberEntities.cpp</text>
</a>
</g>
</g>
<!-- Node2&#45;&gt;Node11 -->
<g id="edge10_Node000002_Node000011" class="edge">
<title>Node2&#45;&gt;Node11</title>
<g id="a_edge10_Node000002_Node000011"><a xlink:title=" ">
<path fill="none" stroke="#63b8ff" d="M1746.67,-173.56C1974.6,-173.31 2695.62,-169.16 3291,-129 3293.89,-128.81 3296.84,-128.58 3299.81,-128.34"/>
<polygon fill="#63b8ff" stroke="#63b8ff" points="1746.51,-170.06 1736.52,-173.57 1746.52,-177.06 1746.51,-170.06"/>
</a>
</g>
</g>
<!-- Node12 -->
<g id="Node000012" class="node">
<title>Node12</title>
<g id="a_Node000012"><a xlink:href="_guild_scheduled_event_entities_8cpp.html" target="_top" xlink:title=" ">
<polygon fill="white" stroke="#666666" points="3635.5,-129 3458.5,-129 3458.5,-110 3635.5,-110 3635.5,-129"/>
<text text-anchor="middle" x="3547" y="-117" font-family="Helvetica,sans-Serif" font-size="10.00">GuildScheduledEventEntities.cpp</text>
</a>
</g>
</g>
<!-- Node2&#45;&gt;Node12 -->
<g id="edge11_Node000002_Node000012" class="edge">
<title>Node2&#45;&gt;Node12</title>
<g id="a_edge11_Node000002_Node000012"><a xlink:title=" ">
<path fill="none" stroke="#63b8ff" d="M1746.62,-173.28C1988.48,-172.2 2788.68,-165.88 3449,-129 3452.07,-128.83 3455.19,-128.64 3458.34,-128.44"/>
<polygon fill="#63b8ff" stroke="#63b8ff" points="1746.53,-169.78 1736.55,-173.32 1746.56,-176.78 1746.53,-169.78"/>
</a>
</g>
</g>
<!-- Node13 -->
<g id="Node000013" class="node">
<title>Node13</title>
<g id="a_Node000013"><a xlink:href="_https_client_8cpp.html" target="_top" xlink:title=" ">
<polygon fill="white" stroke="#666666" points="352,-129 260,-129 260,-110 352,-110 352,-129"/>
<text text-anchor="middle" x="306" y="-117" font-family="Helvetica,sans-Serif" font-size="10.00">HttpsClient.cpp</text>
</a>
</g>
</g>
<!-- Node2&#45;&gt;Node13 -->
<g id="edge12_Node000002_Node000013" class="edge">
<title>Node2&#45;&gt;Node13</title>
<g id="a_edge12_Node000002_Node000013"><a xlink:title=" ">
<path fill="none" stroke="#63b8ff" d="M1601.26,-174.08C1402.26,-175 832.24,-173.24 361,-129 358.11,-128.73 355.15,-128.4 352.16,-128.04"/>
<polygon fill="#63b8ff" stroke="#63b8ff" points="1601.32,-177.58 1611.3,-174.03 1601.29,-170.58 1601.32,-177.58"/>
</a>
</g>
</g>
<!-- Node2&#45;&gt;Node14 -->
<g id="edge13_Node000002_Node000014" class="edge">
<title>Node2&#45;&gt;Node14</title>
<g id="a_edge13_Node000002_Node000014"><a xlink:title=" ">
<path fill="none" stroke="#63b8ff" d="M1600.99,-172.35C1349.08,-168.18 517.18,-152.93 251,-129 247.91,-128.72 244.73,-128.39 241.54,-128.01"/>
<polygon fill="#63b8ff" stroke="#63b8ff" points="1601.07,-175.85 1611.13,-172.51 1601.19,-168.85 1601.07,-175.85"/>
</a>
</g>
</g>
<!-- Node15 -->
<g id="Node000015" class="node">
<title>Node15</title>
<g id="a_Node000015"><a xlink:href="_interaction_entities_8cpp.html" target="_top" xlink:title=" ">
<polygon fill="white" stroke="#666666" points="496,-129 370,-129 370,-110 496,-110 496,-129"/>
<text text-anchor="middle" x="433" y="-117" font-family="Helvetica,sans-Serif" font-size="10.00">InteractionEntities.cpp</text>
</a>
</g>
</g>
<!-- Node2&#45;&gt;Node15 -->
<g id="edge14_Node000002_Node000015" class="edge">
<title>Node2&#45;&gt;Node15</title>
<g id="a_edge14_Node000002_Node000015"><a xlink:title=" ">
<path fill="none" stroke="#63b8ff" d="M1601.4,-172.74C1417.61,-170.38 919.1,-161.27 505,-129 502.11,-128.78 499.17,-128.52 496.19,-128.25"/>
<polygon fill="#63b8ff" stroke="#63b8ff" points="1601.44,-176.24 1611.49,-172.87 1601.53,-169.24 1601.44,-176.24"/>
</a>
</g>
</g>
<!-- Node16 -->
<g id="Node000016" class="node">
<title>Node16</title>
<g id="a_Node000016"><a xlink:href="_message_entities_8cpp.html" target="_top" xlink:title=" ">
<polygon fill="white" stroke="#666666" points="631.5,-129 514.5,-129 514.5,-110 631.5,-110 631.5,-129"/>
<text text-anchor="middle" x="573" y="-117" font-family="Helvetica,sans-Serif" font-size="10.00">MessageEntities.cpp</text>
</a>
</g>
</g>
<!-- Node2&#45;&gt;Node16 -->
<g id="edge15_Node000002_Node000016" class="edge">
<title>Node2&#45;&gt;Node16</title>
<g id="a_edge15_Node000002_Node000016"><a xlink:title=" ">
<path fill="none" stroke="#63b8ff" d="M1601.28,-172.4C1432.39,-169.4 1000.58,-159.17 641,-129 637.92,-128.74 634.76,-128.45 631.57,-128.13"/>
<polygon fill="#63b8ff" stroke="#63b8ff" points="1601.24,-175.9 1611.3,-172.57 1601.36,-168.9 1601.24,-175.9"/>
</a>
</g>
</g>
<!-- Node17 -->
<g id="Node000017" class="node">
<title>Node17</title>
<g id="a_Node000017"><a xlink:href="_reaction_entities_8cpp.html" target="_top" xlink:title=" ">
<polygon fill="white" stroke="#666666" points="766,-129 650,-129 650,-110 766,-110 766,-129"/>
<text text-anchor="middle" x="708" y="-117" font-family="Helvetica,sans-Serif" font-size="10.00">ReactionEntities.cpp</text>
</a>
</g>
</g>
<!-- Node2&#45;&gt;Node17 -->
<g id="edge16_Node000002_Node000017" class="edge">
<title>Node2&#45;&gt;Node17</title>
<g id="a_edge16_Node000002_Node000017"><a xlink:title=" ">
<path fill="none" stroke="#63b8ff" d="M1601.28,-171.79C1448.17,-167.78 1081.43,-155.98 775,-129 772.08,-128.74 769.09,-128.45 766.08,-128.14"/>
<polygon fill="#63b8ff" stroke="#63b8ff" points="1601.4,-175.3 1611.49,-172.06 1601.58,-168.3 1601.4,-175.3"/>
</a>
</g>
</g>
<!-- Node18 -->
<g id="Node000018" class="node">
<title>Node18</title>
<g id="a_Node000018"><a xlink:href="_role_entities_8cpp.html" target="_top" xlink:title=" ">
<polygon fill="white" stroke="#666666" points="879.5,-129 784.5,-129 784.5,-110 879.5,-110 879.5,-129"/>
<text text-anchor="middle" x="832" y="-117" font-family="Helvetica,sans-Serif" font-size="10.00">RoleEntities.cpp</text>
</a>
</g>
</g>
<!-- Node2&#45;&gt;Node18 -->
<g id="edge17_Node000002_Node000018" class="edge">
<title>Node2&#45;&gt;Node18</title>
<g id="a_edge17_Node000002_Node000018"><a xlink:title=" ">
<path fill="none" stroke="#63b8ff" d="M1601.34,-171.67C1462.44,-167.67 1149.77,-156.22 888,-129 885.26,-128.72 882.45,-128.39 879.62,-128.04"/>
<polygon fill="#63b8ff" stroke="#63b8ff" points="1601.34,-175.17 1611.43,-171.96 1601.54,-168.17 1601.34,-175.17"/>
</a>
</g>
</g>
<!-- Node19 -->
<g id="Node000019" class="node">
<title>Node19</title>
<g id="a_Node000019"><a xlink:href="_song_a_p_i_8cpp.html" target="_top" xlink:title=" ">
<polygon fill="white" stroke="#666666" points="974.5,-129 897.5,-129 897.5,-110 974.5,-110 974.5,-129"/>
<text text-anchor="middle" x="936" y="-117" font-family="Helvetica,sans-Serif" font-size="10.00">SongAPI.cpp</text>
</a>
</g>
</g>
<!-- Node2&#45;&gt;Node19 -->
<g id="edge18_Node000002_Node000019" class="edge">
<title>Node2&#45;&gt;Node19</title>
<g id="a_edge18_Node000002_Node000019"><a xlink:title=" ">
<path fill="none" stroke="#63b8ff" d="M1601.17,-171.46C1475.06,-167.33 1208.02,-155.97 984,-129 980.98,-128.64 977.85,-128.21 974.72,-127.74"/>
<polygon fill="#63b8ff" stroke="#63b8ff" points="1601.36,-174.96 1611.47,-171.79 1601.58,-167.97 1601.36,-174.96"/>
</a>
</g>
</g>
<!-- Node20 -->
<g id="Node000020" class="node">
<title>Node20</title>
<g id="a_Node000020"><a xlink:href="_sound_cloud_a_p_i_8cpp.html" target="_top" xlink:title=" ">
<polygon fill="white" stroke="#666666" points="1103,-129 993,-129 993,-110 1103,-110 1103,-129"/>
<text text-anchor="middle" x="1048" y="-117" font-family="Helvetica,sans-Serif" font-size="10.00">SoundCloudAPI.cpp</text>
</a>
</g>
</g>
<!-- Node2&#45;&gt;Node20 -->
<g id="edge19_Node000002_Node000020" class="edge">
<title>Node2&#45;&gt;Node20</title>
<g id="a_edge19_Node000002_Node000020"><a xlink:title=" ">
<path fill="none" stroke="#63b8ff" d="M1601.04,-168.96C1493.74,-162.01 1287.14,-147.55 1112,-129 1109.1,-128.69 1106.13,-128.36 1103.14,-128.01"/>
<polygon fill="#63b8ff" stroke="#63b8ff" points="1600.9,-172.46 1611.11,-169.61 1601.35,-165.48 1600.9,-172.46"/>
</a>
</g>
</g>
<!-- Node21 -->
<g id="Node000021" class="node">
<title>Node21</title>
<g id="a_Node000021"><a xlink:href="_stage_instance_entities_8cpp.html" target="_top" xlink:title=" ">
<polygon fill="white" stroke="#666666" points="1264.5,-129 1121.5,-129 1121.5,-110 1264.5,-110 1264.5,-129"/>
<text text-anchor="middle" x="1193" y="-117" font-family="Helvetica,sans-Serif" font-size="10.00">StageInstanceEntities.cpp</text>
</a>
</g>
</g>
<!-- Node2&#45;&gt;Node21 -->
<g id="edge20_Node000002_Node000021" class="edge">
<title>Node2&#45;&gt;Node21</title>
<g id="a_edge20_Node000002_Node000021"><a xlink:title=" ">
<path fill="none" stroke="#63b8ff" d="M1601.15,-165.47C1510.02,-155.43 1355.01,-138.35 1264.52,-128.38"/>
<polygon fill="#63b8ff" stroke="#63b8ff" points="1600.79,-168.95 1611.12,-166.57 1601.56,-162 1600.79,-168.95"/>
</a>
</g>
</g>
<!-- Node22 -->
<g id="Node000022" class="node">
<title>Node22</title>
<g id="a_Node000022"><a xlink:href="_sticker_entities_8cpp.html" target="_top" xlink:title=" ">
<polygon fill="white" stroke="#666666" points="1389.5,-129 1282.5,-129 1282.5,-110 1389.5,-110 1389.5,-129"/>
<text text-anchor="middle" x="1336" y="-117" font-family="Helvetica,sans-Serif" font-size="10.00">StickerEntities.cpp</text>
</a>
</g>
</g>
<!-- Node2&#45;&gt;Node22 -->
<g id="edge21_Node000002_Node000022" class="edge">
<title>Node2&#45;&gt;Node22</title>
<g id="a_edge21_Node000002_Node000022"><a xlink:title=" ">
<path fill="none" stroke="#63b8ff" d="M1609.75,-163.43C1545.99,-153.43 1449.38,-138.28 1389.61,-128.91"/>
<polygon fill="#63b8ff" stroke="#63b8ff" points="1609.27,-166.89 1619.69,-164.98 1610.36,-159.98 1609.27,-166.89"/>
</a>
</g>
</g>
<!-- Node23 -->
<g id="Node000023" class="node">
<title>Node23</title>
<g id="a_Node000023"><a xlink:href="_thread_entities_8cpp.html" target="_top" xlink:title=" ">
<polygon fill="white" stroke="#666666" points="1514.5,-129 1407.5,-129 1407.5,-110 1514.5,-110 1514.5,-129"/>
<text text-anchor="middle" x="1461" y="-117" font-family="Helvetica,sans-Serif" font-size="10.00">ThreadEntities.cpp</text>
</a>
</g>
</g>
<!-- Node2&#45;&gt;Node23 -->
<g id="edge22_Node000002_Node000023" class="edge">
<title>Node2&#45;&gt;Node23</title>
<g id="a_edge22_Node000002_Node000023"><a xlink:title=" ">
<path fill="none" stroke="#63b8ff" d="M1630.05,-162.56C1590.16,-152.64 1532.13,-138.2 1495.49,-129.08"/>
<polygon fill="#63b8ff" stroke="#63b8ff" points="1629.23,-165.97 1639.78,-164.98 1630.92,-159.17 1629.23,-165.97"/>
</a>
</g>
</g>
<!-- Node24 -->
<g id="Node000024" class="node">
<title>Node24</title>
<g id="a_Node000024"><a xlink:href="_to_entity_8hpp.html" target="_top" xlink:title=" ">
<polygon fill="white" stroke="#666666" points="1607.5,-129 1532.5,-129 1532.5,-110 1607.5,-110 1607.5,-129"/>
<text text-anchor="middle" x="1570" y="-117" font-family="Helvetica,sans-Serif" font-size="10.00">ToEntity.hpp</text>
</a>
</g>
</g>
<!-- Node2&#45;&gt;Node24 -->
<g id="edge23_Node000002_Node000024" class="edge">
<title>Node2&#45;&gt;Node24</title>
<g id="a_edge23_Node000002_Node000024"><a xlink:title=" ">
<path fill="none" stroke="#63b8ff" d="M1648.23,-160.37C1629.13,-150.63 1603.63,-137.64 1587.01,-129.17"/>
<polygon fill="#63b8ff" stroke="#63b8ff" points="1646.79,-163.56 1657.29,-164.98 1649.97,-157.33 1646.79,-163.56"/>
</a>
</g>
</g>
<!-- Node27 -->
<g id="Node000027" class="node">
<title>Node27</title>
<g id="a_Node000027"><a xlink:href="_user_entities_8cpp.html" target="_top" xlink:title=" ">
<polygon fill="white" stroke="#666666" points="1722,-129 1626,-129 1626,-110 1722,-110 1722,-129"/>
<text text-anchor="middle" x="1674" y="-117" font-family="Helvetica,sans-Serif" font-size="10.00">UserEntities.cpp</text>
</a>
</g>
</g>
<!-- Node2&#45;&gt;Node27 -->
<g id="edge26_Node000002_Node000027" class="edge">
<title>Node2&#45;&gt;Node27</title>
<g id="a_edge26_Node000002_Node000027"><a xlink:title=" ">
<path fill="none" stroke="#63b8ff" d="M1674,-154.66C1674,-145.93 1674,-135.99 1674,-129.09"/>
<polygon fill="#63b8ff" stroke="#63b8ff" points="1670.5,-154.75 1674,-164.75 1677.5,-154.75 1670.5,-154.75"/>
</a>
</g>
</g>
<!-- Node2&#45;&gt;Node28 -->
<g id="edge27_Node000002_Node000028" class="edge">
<title>Node2&#45;&gt;Node28</title>
<g id="a_edge27_Node000002_Node000028"><a xlink:title=" ">
<path fill="none" stroke="#63b8ff" d="M1747.08,-173.42C2057.25,-172.83 3266.27,-168.01 3645,-129 3647.75,-128.72 3650.58,-128.36 3653.42,-127.95"/>
<polygon fill="#63b8ff" stroke="#63b8ff" points="1746.85,-169.92 1736.86,-173.44 1746.86,-176.92 1746.85,-169.92"/>
</a>
</g>
</g>
<!-- Node29 -->
<g id="Node000029" class="node">
<title>Node29</title>
<g id="a_Node000029"><a xlink:href="_voice_connection_8cpp.html" target="_top" xlink:title=" ">
<polygon fill="white" stroke="#666666" points="1858,-129 1740,-129 1740,-110 1858,-110 1858,-129"/>
<text text-anchor="middle" x="1799" y="-117" font-family="Helvetica,sans-Serif" font-size="10.00">VoiceConnection.cpp</text>
</a>
</g>
</g>
<!-- Node2&#45;&gt;Node29 -->
<g id="edge28_Node000002_Node000029" class="edge">
<title>Node2&#45;&gt;Node29</title>
<g id="a_edge28_Node000002_Node000029"><a xlink:title=" ">
<path fill="none" stroke="#63b8ff" d="M1703.41,-161.03C1726.53,-151.23 1758.13,-137.83 1778.55,-129.17"/>
<polygon fill="#63b8ff" stroke="#63b8ff" points="1701.92,-157.86 1694.08,-164.98 1704.66,-164.3 1701.92,-157.86"/>
</a>
</g>
</g>
<!-- Node30 -->
<g id="Node000030" class="node">
<title>Node30</title>
<g id="a_Node000030"><a xlink:href="_web_hook_entities_8cpp.html" target="_top" xlink:title=" ">
<polygon fill="white" stroke="#666666" points="1996,-129 1876,-129 1876,-110 1996,-110 1996,-129"/>
<text text-anchor="middle" x="1936" y="-117" font-family="Helvetica,sans-Serif" font-size="10.00">WebHookEntities.cpp</text>
</a>
</g>
</g>
<!-- Node2&#45;&gt;Node30 -->
<g id="edge29_Node000002_Node000030" class="edge">
<title>Node2&#45;&gt;Node30</title>
<g id="a_edge29_Node000002_Node000030"><a xlink:title=" ">
<path fill="none" stroke="#63b8ff" d="M1726.2,-162.94C1775.31,-153.01 1847.93,-138.31 1893.58,-129.08"/>
<polygon fill="#63b8ff" stroke="#63b8ff" points="1725.2,-159.57 1716.09,-164.98 1726.59,-166.43 1725.2,-159.57"/>
</a>
</g>
</g>
<!-- Node31 -->
<g id="Node000031" class="node">
<title>Node31</title>
<g id="a_Node000031"><a xlink:href="_web_socket_client_8cpp.html" target="_top" xlink:title=" ">
<polygon fill="white" stroke="#666666" points="2133.5,-129 2014.5,-129 2014.5,-110 2133.5,-110 2133.5,-129"/>
<text text-anchor="middle" x="2074" y="-117" font-family="Helvetica,sans-Serif" font-size="10.00">WebSocketClient.cpp</text>
</a>
</g>
</g>
<!-- Node2&#45;&gt;Node31 -->
<g id="edge30_Node000002_Node000031" class="edge">
<title>Node2&#45;&gt;Node31</title>
<g id="a_edge30_Node000002_Node000031"><a xlink:title=" ">
<path fill="none" stroke="#63b8ff" d="M1746.56,-163.89C1823.25,-153.73 1942.77,-137.89 2014.22,-128.42"/>
<polygon fill="#63b8ff" stroke="#63b8ff" points="1745.95,-160.44 1736.5,-165.22 1746.87,-167.37 1745.95,-160.44"/>
</a>
</g>
</g>
<!-- Node32 -->
<g id="Node000032" class="node">
<title>Node32</title>
<g id="a_Node000032"><a xlink:href="_you_tube_a_p_i_8cpp.html" target="_top" xlink:title=" ">
<polygon fill="white" stroke="#666666" points="2244,-129 2152,-129 2152,-110 2244,-110 2244,-129"/>
<text text-anchor="middle" x="2198" y="-117" font-family="Helvetica,sans-Serif" font-size="10.00">YouTubeAPI.cpp</text>
</a>
</g>
</g>
<!-- Node2&#45;&gt;Node32 -->
<g id="edge31_Node000002_Node000032" class="edge">
<title>Node2&#45;&gt;Node32</title>
<g id="a_edge31_Node000002_Node000032"><a xlink:title=" ">
<path fill="none" stroke="#63b8ff" d="M1746.63,-167.86C1838.75,-160.41 2002.44,-146.21 2142,-129 2145.22,-128.6 2148.54,-128.17 2151.88,-127.71"/>
<polygon fill="#63b8ff" stroke="#63b8ff" points="1746.26,-164.38 1736.57,-168.67 1746.82,-171.35 1746.26,-164.38"/>
</a>
</g>
</g>
<!-- Node25 -->
<g id="Node000025" class="node">
<title>Node25</title>
<g id="a_Node000025"><a xlink:href="_index_8hpp.html" target="_top" xlink:title=" ">
<polygon fill="white" stroke="#666666" points="1602.5,-74 1537.5,-74 1537.5,-55 1602.5,-55 1602.5,-74"/>
<text text-anchor="middle" x="1570" y="-62" font-family="Helvetica,sans-Serif" font-size="10.00">Index.hpp</text>
</a>
</g>
</g>
<!-- Node24&#45;&gt;Node25 -->
<g id="edge24_Node000024_Node000025" class="edge">
<title>Node24&#45;&gt;Node25</title>
<g id="a_edge24_Node000024_Node000025"><a xlink:title=" ">
<path fill="none" stroke="#63b8ff" d="M1570,-99.66C1570,-90.93 1570,-80.99 1570,-74.09"/>
<polygon fill="#63b8ff" stroke="#63b8ff" points="1566.5,-99.75 1570,-109.75 1573.5,-99.75 1566.5,-99.75"/>
</a>
</g>
</g>
<!-- Node26 -->
<g id="Node000026" class="node">
<title>Node26</title>
<g id="a_Node000026"><a xlink:href="_dll_main_8cpp.html" target="_top" xlink:title=" ">
<polygon fill="white" stroke="#666666" points="1607,-19 1533,-19 1533,0 1607,0 1607,-19"/>
<text text-anchor="middle" x="1570" y="-7" font-family="Helvetica,sans-Serif" font-size="10.00">DllMain.cpp</text>
</a>
</g>
</g>
<!-- Node25&#45;&gt;Node26 -->
<g id="edge25_Node000025_Node000026" class="edge">
<title>Node25&#45;&gt;Node26</title>
<g id="a_edge25_Node000025_Node000026"><a xlink:title=" ">
<path fill="none" stroke="#63b8ff" d="M1570,-44.66C1570,-35.93 1570,-25.99 1570,-19.09"/>
<polygon fill="#63b8ff" stroke="#63b8ff" points="1566.5,-44.75 1570,-54.75 1573.5,-44.75 1566.5,-44.75"/>
</a>
</g>
</g>
</g>
</svg>
