<?xml version="1.0" encoding="UTF-8" standalone="no"?>
<!DOCTYPE svg PUBLIC "-//W3C//DTD SVG 1.1//EN"
 "http://www.w3.org/Graphics/SVG/1.1/DTD/svg11.dtd">
<!-- Generated by graphviz version 5.0.0 (20220707.1540)
 -->
<!-- Title: RateLimitQueue.hpp Pages: 1 -->
<svg width="2237pt" height="533pt"
 viewBox="0.00 0.00 2236.50 533.00" xmlns="http://www.w3.org/2000/svg" xmlns:xlink="http://www.w3.org/1999/xlink">
<g id="graph0" class="graph" transform="scale(1 1) rotate(0) translate(4 529)">
<title>RateLimitQueue.hpp</title>
<!-- Node1 -->
<g id="node1" class="node">
<title>Node1</title>
<g id="a_node1"><a xlink:title=" ">
<polygon fill="#999999" stroke="#666666" points="1537.5,-525 1432.5,-525 1432.5,-506 1537.5,-506 1537.5,-525"/>
<text text-anchor="middle" x="1485" y="-513" font-family="Helvetica,sans-Serif" font-size="10.00">RateLimitQueue.hpp</text>
</a>
</g>
</g>
<!-- Node2 -->
<g id="node2" class="node">
<title>Node2</title>
<g id="a_node2"><a xlink:href="_t_c_p_connection_8hpp.html" target="_top" xlink:title=" ">
<polygon fill="white" stroke="#666666" points="1703.5,-470 1588.5,-470 1588.5,-440 1703.5,-440 1703.5,-470"/>
<text text-anchor="start" x="1596.5" y="-458" font-family="Helvetica,sans-Serif" font-size="10.00">discordcoreapi/Utilities</text>
<text text-anchor="middle" x="1646" y="-447" font-family="Helvetica,sans-Serif" font-size="10.00">/TCPConnection.hpp</text>
</a>
</g>
</g>
<!-- Node1&#45;&gt;Node2 -->
<g id="edge1" class="edge">
<title>Node1&#45;&gt;Node2</title>
<path fill="none" stroke="#63b8ff" d="M1508.41,-505.99C1531.68,-497.54 1568.07,-484.32 1597.58,-473.59"/>
<polygon fill="#63b8ff" stroke="#63b8ff" points="1599.09,-476.77 1607.29,-470.06 1596.7,-470.19 1599.09,-476.77"/>
</g>
<!-- Node32 -->
<g id="node32" class="node">
<title>Node32</title>
<g id="a_node32"><a xlink:title=" ">
<polygon fill="#e0e0e0" stroke="#999999" points="44,-79.5 0,-79.5 0,-60.5 44,-60.5 44,-79.5"/>
<text text-anchor="middle" x="22" y="-67.5" font-family="Helvetica,sans-Serif" font-size="10.00">mutex</text>
</a>
</g>
</g>
<!-- Node1&#45;&gt;Node32 -->
<g id="edge77" class="edge">
<title>Node1&#45;&gt;Node32</title>
<path fill="none" stroke="#63b8ff" d="M1432.18,-512.82C1170.43,-504.15 25,-462.1 25,-390 25,-390 25,-390 25,-201 25,-161.44 23.59,-115.12 22.71,-89.84"/>
<polygon fill="#63b8ff" stroke="#63b8ff" points="26.19,-89.38 22.33,-79.52 19.2,-89.64 26.19,-89.38"/>
</g>
<!-- Node43 -->
<g id="node43" class="node">
<title>Node43</title>
<g id="a_node43"><a xlink:href="_unique_ptr_8hpp.html" target="_top" xlink:title=" ">
<polygon fill="white" stroke="#666666" points="2228.5,-85 2113.5,-85 2113.5,-55 2228.5,-55 2228.5,-85"/>
<text text-anchor="start" x="2121.5" y="-73" font-family="Helvetica,sans-Serif" font-size="10.00">discordcoreapi/Utilities</text>
<text text-anchor="middle" x="2171" y="-62" font-family="Helvetica,sans-Serif" font-size="10.00">/UniquePtr.hpp</text>
</a>
</g>
</g>
<!-- Node1&#45;&gt;Node43 -->
<g id="edge74" class="edge">
<title>Node1&#45;&gt;Node43</title>
<path fill="none" stroke="#63b8ff" d="M1537.69,-510.04C1693.13,-496.17 2139,-451.08 2139,-390 2139,-390 2139,-390 2139,-201 2139,-163 2152.05,-120.52 2161.48,-94.78"/>
<polygon fill="#63b8ff" stroke="#63b8ff" points="2164.86,-95.74 2165.13,-85.15 2158.31,-93.26 2164.86,-95.74"/>
</g>
<!-- Node57 -->
<g id="node57" class="node">
<title>Node57</title>
<g id="a_node57"><a xlink:href="_json_specializations_8hpp.html" target="_top" xlink:title=" ">
<polygon fill="white" stroke="#666666" points="1258,-464.5 1070,-464.5 1070,-445.5 1258,-445.5 1258,-464.5"/>
<text text-anchor="middle" x="1164" y="-452.5" font-family="Helvetica,sans-Serif" font-size="10.00">discordcoreapi/JsonSpecializations.hpp</text>
</a>
</g>
</g>
<!-- Node1&#45;&gt;Node57 -->
<g id="edge75" class="edge">
<title>Node1&#45;&gt;Node57</title>
<path fill="none" stroke="#63b8ff" d="M1438.32,-505.99C1380.67,-495.49 1282.66,-477.62 1220.73,-466.34"/>
<polygon fill="#63b8ff" stroke="#63b8ff" points="1221.2,-462.87 1210.73,-464.52 1219.94,-469.75 1221.2,-462.87"/>
</g>
<!-- Node3 -->
<g id="node3" class="node">
<title>Node3</title>
<g id="a_node3"><a xlink:href="_ring_buffer_8hpp.html" target="_top" xlink:title=" ">
<polygon fill="white" stroke="#666666" points="1868.5,-151 1753.5,-151 1753.5,-121 1868.5,-121 1868.5,-151"/>
<text text-anchor="start" x="1761.5" y="-139" font-family="Helvetica,sans-Serif" font-size="10.00">discordcoreapi/Utilities</text>
<text text-anchor="middle" x="1811" y="-128" font-family="Helvetica,sans-Serif" font-size="10.00">/RingBuffer.hpp</text>
</a>
</g>
</g>
<!-- Node2&#45;&gt;Node3 -->
<g id="edge2" class="edge">
<title>Node2&#45;&gt;Node3</title>
<path fill="none" stroke="#63b8ff" d="M1703.65,-453.76C1794.75,-452.15 1966.19,-443.76 2010,-404 2037.06,-379.44 2029,-360.54 2029,-324 2029,-324 2029,-324 2029,-261.5 2029,-191.27 1942.64,-160.13 1878.63,-146.69"/>
<polygon fill="#63b8ff" stroke="#63b8ff" points="1879.05,-143.2 1868.56,-144.68 1877.68,-150.07 1879.05,-143.2"/>
</g>
<!-- Node10 -->
<g id="node10" class="node">
<title>Node10</title>
<g id="a_node10"><a xlink:href="_event_entities_8hpp.html" target="_top" xlink:title=" ">
<polygon fill="white" stroke="#666666" points="1146.5,-404 1031.5,-404 1031.5,-374 1146.5,-374 1146.5,-404"/>
<text text-anchor="start" x="1039.5" y="-392" font-family="Helvetica,sans-Serif" font-size="10.00">discordcoreapi/Utilities</text>
<text text-anchor="middle" x="1089" y="-381" font-family="Helvetica,sans-Serif" font-size="10.00">/EventEntities.hpp</text>
</a>
</g>
</g>
<!-- Node2&#45;&gt;Node10 -->
<g id="edge9" class="edge">
<title>Node2&#45;&gt;Node10</title>
<path fill="none" stroke="#63b8ff" d="M1588.29,-450.14C1498.15,-443.68 1318.33,-429 1156.66,-404.16"/>
<polygon fill="#63b8ff" stroke="#63b8ff" points="1156.94,-400.66 1146.53,-402.58 1155.87,-407.58 1156.94,-400.66"/>
</g>
<!-- Node14 -->
<g id="node14" class="node">
<title>Node14</title>
<g id="a_node14"><a xlink:title=" ">
<polygon fill="#e0e0e0" stroke="#999999" points="2095,-79.5 2033,-79.5 2033,-60.5 2095,-60.5 2095,-79.5"/>
<text text-anchor="middle" x="2064" y="-67.5" font-family="Helvetica,sans-Serif" font-size="10.00">arpa/inet.h</text>
</a>
</g>
</g>
<!-- Node2&#45;&gt;Node14 -->
<g id="edge68" class="edge">
<title>Node2&#45;&gt;Node14</title>
<path fill="none" stroke="#63b8ff" d="M1703.53,-453.38C1798.6,-451.26 1983.05,-442.19 2034,-404 2065.05,-380.72 2069,-362.81 2069,-324 2069,-324 2069,-324 2069,-201 2069,-161.42 2066.66,-115.11 2065.18,-89.83"/>
<polygon fill="#63b8ff" stroke="#63b8ff" points="2068.65,-89.28 2064.55,-79.51 2061.66,-89.71 2068.65,-89.28"/>
</g>
<!-- Node46 -->
<g id="node46" class="node">
<title>Node46</title>
<g id="a_node46"><a xlink:title=" ">
<polygon fill="#e0e0e0" stroke="#999999" points="1237.5,-398.5 1164.5,-398.5 1164.5,-379.5 1237.5,-379.5 1237.5,-398.5"/>
<text text-anchor="middle" x="1201" y="-386.5" font-family="Helvetica,sans-Serif" font-size="10.00">openssl/err.h</text>
</a>
</g>
</g>
<!-- Node2&#45;&gt;Node46 -->
<g id="edge62" class="edge">
<title>Node2&#45;&gt;Node46</title>
<path fill="none" stroke="#63b8ff" d="M1588.33,-449.88C1510.29,-443.61 1367,-429.58 1247,-404 1243.55,-403.26 1239.98,-402.39 1236.43,-401.44"/>
<polygon fill="#63b8ff" stroke="#63b8ff" points="1237.16,-398.01 1226.59,-398.63 1235.24,-404.74 1237.16,-398.01"/>
</g>
<!-- Node47 -->
<g id="node47" class="node">
<title>Node47</title>
<g id="a_node47"><a xlink:title=" ">
<polygon fill="#e0e0e0" stroke="#999999" points="1330,-398.5 1256,-398.5 1256,-379.5 1330,-379.5 1330,-398.5"/>
<text text-anchor="middle" x="1293" y="-386.5" font-family="Helvetica,sans-Serif" font-size="10.00">openssl/ssl.h</text>
</a>
</g>
</g>
<!-- Node2&#45;&gt;Node47 -->
<g id="edge63" class="edge">
<title>Node2&#45;&gt;Node47</title>
<path fill="none" stroke="#63b8ff" d="M1588.4,-446.97C1526.37,-438.84 1425,-423.99 1339,-404 1335.65,-403.22 1332.18,-402.33 1328.72,-401.38"/>
<polygon fill="#63b8ff" stroke="#63b8ff" points="1329.69,-398.02 1319.11,-398.61 1327.75,-404.74 1329.69,-398.02"/>
</g>
<!-- Node48 -->
<g id="node48" class="node">
<title>Node48</title>
<g id="a_node48"><a xlink:title=" ">
<polygon fill="#e0e0e0" stroke="#999999" points="1419.5,-398.5 1348.5,-398.5 1348.5,-379.5 1419.5,-379.5 1419.5,-398.5"/>
<text text-anchor="middle" x="1384" y="-386.5" font-family="Helvetica,sans-Serif" font-size="10.00">netinet/tcp.h</text>
</a>
</g>
</g>
<!-- Node2&#45;&gt;Node48 -->
<g id="edge64" class="edge">
<title>Node2&#45;&gt;Node48</title>
<path fill="none" stroke="#63b8ff" d="M1588.3,-442.13C1544.17,-432.72 1481.94,-418.74 1428,-404 1425.17,-403.23 1422.26,-402.39 1419.33,-401.52"/>
<polygon fill="#63b8ff" stroke="#63b8ff" points="1420.07,-398.09 1409.49,-398.5 1418.02,-404.78 1420.07,-398.09"/>
</g>
<!-- Node49 -->
<g id="node49" class="node">
<title>Node49</title>
<g id="a_node49"><a xlink:title=" ">
<polygon fill="#e0e0e0" stroke="#999999" points="1502.5,-398.5 1437.5,-398.5 1437.5,-379.5 1502.5,-379.5 1502.5,-398.5"/>
<text text-anchor="middle" x="1470" y="-386.5" font-family="Helvetica,sans-Serif" font-size="10.00">netinet/in.h</text>
</a>
</g>
</g>
<!-- Node2&#45;&gt;Node49 -->
<g id="edge65" class="edge">
<title>Node2&#45;&gt;Node49</title>
<path fill="none" stroke="#63b8ff" d="M1607.38,-439.95C1576.1,-428.58 1532.53,-412.74 1502.9,-401.96"/>
<polygon fill="#63b8ff" stroke="#63b8ff" points="1504.02,-398.65 1493.42,-398.52 1501.62,-405.22 1504.02,-398.65"/>
</g>
<!-- Node50 -->
<g id="node50" class="node">
<title>Node50</title>
<g id="a_node50"><a xlink:title=" ">
<polygon fill="#e0e0e0" stroke="#999999" points="1593.5,-398.5 1520.5,-398.5 1520.5,-379.5 1593.5,-379.5 1593.5,-398.5"/>
<text text-anchor="middle" x="1557" y="-386.5" font-family="Helvetica,sans-Serif" font-size="10.00">sys/socket.h</text>
</a>
</g>
</g>
<!-- Node2&#45;&gt;Node50 -->
<g id="edge66" class="edge">
<title>Node2&#45;&gt;Node50</title>
<path fill="none" stroke="#63b8ff" d="M1626.25,-439.8C1611.74,-429.37 1592.1,-415.24 1577.44,-404.69"/>
<polygon fill="#63b8ff" stroke="#63b8ff" points="1579.2,-401.66 1569.04,-398.66 1575.12,-407.34 1579.2,-401.66"/>
</g>
<!-- Node51 -->
<g id="node51" class="node">
<title>Node51</title>
<g id="a_node51"><a xlink:title=" ">
<polygon fill="#e0e0e0" stroke="#999999" points="1680,-398.5 1612,-398.5 1612,-379.5 1680,-379.5 1680,-398.5"/>
<text text-anchor="middle" x="1646" y="-386.5" font-family="Helvetica,sans-Serif" font-size="10.00">sys/types.h</text>
</a>
</g>
</g>
<!-- Node2&#45;&gt;Node51 -->
<g id="edge67" class="edge">
<title>Node2&#45;&gt;Node51</title>
<path fill="none" stroke="#63b8ff" d="M1646,-439.8C1646,-430.7 1646,-418.79 1646,-408.9"/>
<polygon fill="#63b8ff" stroke="#63b8ff" points="1649.5,-408.84 1646,-398.84 1642.5,-408.84 1649.5,-408.84"/>
</g>
<!-- Node52 -->
<g id="node52" class="node">
<title>Node52</title>
<g id="a_node52"><a xlink:title=" ">
<polygon fill="#e0e0e0" stroke="#999999" points="1749.5,-398.5 1698.5,-398.5 1698.5,-379.5 1749.5,-379.5 1749.5,-398.5"/>
<text text-anchor="middle" x="1724" y="-386.5" font-family="Helvetica,sans-Serif" font-size="10.00">unistd.h</text>
</a>
</g>
</g>
<!-- Node2&#45;&gt;Node52 -->
<g id="edge69" class="edge">
<title>Node2&#45;&gt;Node52</title>
<path fill="none" stroke="#63b8ff" d="M1663.31,-439.8C1675.71,-429.62 1692.4,-415.93 1705.13,-405.48"/>
<polygon fill="#63b8ff" stroke="#63b8ff" points="1707.71,-407.89 1713.22,-398.84 1703.27,-402.48 1707.71,-407.89"/>
</g>
<!-- Node53 -->
<g id="node53" class="node">
<title>Node53</title>
<g id="a_node53"><a xlink:title=" ">
<polygon fill="#e0e0e0" stroke="#999999" points="1814.5,-398.5 1767.5,-398.5 1767.5,-379.5 1814.5,-379.5 1814.5,-398.5"/>
<text text-anchor="middle" x="1791" y="-386.5" font-family="Helvetica,sans-Serif" font-size="10.00">errno.h</text>
</a>
</g>
</g>
<!-- Node2&#45;&gt;Node53 -->
<g id="edge70" class="edge">
<title>Node2&#45;&gt;Node53</title>
<path fill="none" stroke="#63b8ff" d="M1677.82,-439.95C1703.03,-428.83 1737.93,-413.42 1762.29,-402.67"/>
<polygon fill="#63b8ff" stroke="#63b8ff" points="1763.97,-405.76 1771.7,-398.52 1761.14,-399.35 1763.97,-405.76"/>
</g>
<!-- Node54 -->
<g id="node54" class="node">
<title>Node54</title>
<g id="a_node54"><a xlink:title=" ">
<polygon fill="#e0e0e0" stroke="#999999" points="1881.5,-398.5 1832.5,-398.5 1832.5,-379.5 1881.5,-379.5 1881.5,-398.5"/>
<text text-anchor="middle" x="1857" y="-386.5" font-family="Helvetica,sans-Serif" font-size="10.00">netdb.h</text>
</a>
</g>
</g>
<!-- Node2&#45;&gt;Node54 -->
<g id="edge71" class="edge">
<title>Node2&#45;&gt;Node54</title>
<path fill="none" stroke="#63b8ff" d="M1701.92,-439.97C1737,-430.74 1783.01,-417.83 1823,-404 1824.62,-403.44 1826.27,-402.84 1827.93,-402.23"/>
<polygon fill="#63b8ff" stroke="#63b8ff" points="1829.33,-405.44 1837.37,-398.53 1826.78,-398.92 1829.33,-405.44"/>
</g>
<!-- Node55 -->
<g id="node55" class="node">
<title>Node55</title>
<g id="a_node55"><a xlink:title=" ">
<polygon fill="#e0e0e0" stroke="#999999" points="1942.5,-398.5 1899.5,-398.5 1899.5,-379.5 1942.5,-379.5 1942.5,-398.5"/>
<text text-anchor="middle" x="1921" y="-386.5" font-family="Helvetica,sans-Serif" font-size="10.00">fcntl.h</text>
</a>
</g>
</g>
<!-- Node2&#45;&gt;Node55 -->
<g id="edge72" class="edge">
<title>Node2&#45;&gt;Node55</title>
<path fill="none" stroke="#63b8ff" d="M1703.62,-445.9C1753.66,-437.99 1827.68,-424.18 1890,-404 1891.44,-403.53 1892.9,-403.02 1894.37,-402.47"/>
<polygon fill="#63b8ff" stroke="#63b8ff" points="1895.98,-405.59 1903.89,-398.54 1893.31,-399.12 1895.98,-405.59"/>
</g>
<!-- Node56 -->
<g id="node56" class="node">
<title>Node56</title>
<g id="a_node56"><a xlink:title=" ">
<polygon fill="#e0e0e0" stroke="#999999" points="2001,-398.5 1961,-398.5 1961,-379.5 2001,-379.5 2001,-398.5"/>
<text text-anchor="middle" x="1981" y="-386.5" font-family="Helvetica,sans-Serif" font-size="10.00">poll.h</text>
</a>
</g>
</g>
<!-- Node2&#45;&gt;Node56 -->
<g id="edge73" class="edge">
<title>Node2&#45;&gt;Node56</title>
<path fill="none" stroke="#63b8ff" d="M1703.57,-449.3C1765.7,-443.14 1867.05,-429.93 1951,-404 1952.44,-403.55 1953.9,-403.05 1955.36,-402.51"/>
<polygon fill="#63b8ff" stroke="#63b8ff" points="1956.96,-405.64 1964.82,-398.54 1954.24,-399.19 1956.96,-405.64"/>
</g>
<!-- Node4 -->
<g id="node4" class="node">
<title>Node4</title>
<g id="a_node4"><a xlink:title=" ">
<polygon fill="#e0e0e0" stroke="#999999" points="1970.5,-19 1875.5,-19 1875.5,0 1970.5,0 1970.5,-19"/>
<text text-anchor="middle" x="1923" y="-7" font-family="Helvetica,sans-Serif" font-size="10.00">jsonifier/Index.hpp</text>
</a>
</g>
</g>
<!-- Node3&#45;&gt;Node4 -->
<g id="edge3" class="edge">
<title>Node3&#45;&gt;Node4</title>
<path fill="none" stroke="#63b8ff" d="M1853.69,-120.9C1871.63,-112.97 1891.24,-101.32 1904,-85 1916.44,-69.09 1920.81,-45.97 1922.31,-29.71"/>
<polygon fill="#63b8ff" stroke="#63b8ff" points="1925.83,-29.49 1922.96,-19.29 1918.84,-29.05 1925.83,-29.49"/>
</g>
<!-- Node5 -->
<g id="node5" class="node">
<title>Node5</title>
<g id="a_node5"><a xlink:title=" ">
<polygon fill="#e0e0e0" stroke="#999999" points="2015,-79.5 1951,-79.5 1951,-60.5 2015,-60.5 2015,-79.5"/>
<text text-anchor="middle" x="1983" y="-67.5" font-family="Helvetica,sans-Serif" font-size="10.00">string_view</text>
</a>
</g>
</g>
<!-- Node3&#45;&gt;Node5 -->
<g id="edge4" class="edge">
<title>Node3&#45;&gt;Node5</title>
<path fill="none" stroke="#63b8ff" d="M1848.75,-120.95C1879.18,-109.63 1921.52,-93.88 1950.47,-83.1"/>
<polygon fill="#63b8ff" stroke="#63b8ff" points="1951.96,-86.28 1960.11,-79.52 1949.52,-79.72 1951.96,-86.28"/>
</g>
<!-- Node6 -->
<g id="node6" class="node">
<title>Node6</title>
<g id="a_node6"><a xlink:title=" ">
<polygon fill="#e0e0e0" stroke="#999999" points="1895,-79.5 1849,-79.5 1849,-60.5 1895,-60.5 1895,-79.5"/>
<text text-anchor="middle" x="1872" y="-67.5" font-family="Helvetica,sans-Serif" font-size="10.00">cstring</text>
</a>
</g>
</g>
<!-- Node3&#45;&gt;Node6 -->
<g id="edge5" class="edge">
<title>Node3&#45;&gt;Node6</title>
<path fill="none" stroke="#63b8ff" d="M1824.54,-120.8C1834.05,-110.82 1846.78,-97.46 1856.67,-87.09"/>
<polygon fill="#63b8ff" stroke="#63b8ff" points="1859.2,-89.5 1863.57,-79.84 1854.14,-84.67 1859.2,-89.5"/>
</g>
<!-- Node7 -->
<g id="node7" class="node">
<title>Node7</title>
<g id="a_node7"><a xlink:title=" ">
<polygon fill="#e0e0e0" stroke="#999999" points="1775,-79.5 1729,-79.5 1729,-60.5 1775,-60.5 1775,-79.5"/>
<text text-anchor="middle" x="1752" y="-67.5" font-family="Helvetica,sans-Serif" font-size="10.00">cstdint</text>
</a>
</g>
</g>
<!-- Node3&#45;&gt;Node7 -->
<g id="edge6" class="edge">
<title>Node3&#45;&gt;Node7</title>
<path fill="none" stroke="#63b8ff" d="M1797.91,-120.8C1788.8,-110.92 1776.63,-97.72 1767.11,-87.39"/>
<polygon fill="#63b8ff" stroke="#63b8ff" points="1769.5,-84.82 1760.15,-79.84 1764.36,-89.57 1769.5,-84.82"/>
</g>
<!-- Node8 -->
<g id="node8" class="node">
<title>Node8</title>
<g id="a_node8"><a xlink:title=" ">
<polygon fill="#e0e0e0" stroke="#999999" points="354,-79.5 312,-79.5 312,-60.5 354,-60.5 354,-79.5"/>
<text text-anchor="middle" x="333" y="-67.5" font-family="Helvetica,sans-Serif" font-size="10.00">vector</text>
</a>
</g>
</g>
<!-- Node3&#45;&gt;Node8 -->
<g id="edge7" class="edge">
<title>Node3&#45;&gt;Node8</title>
<path fill="none" stroke="#63b8ff" d="M1753.31,-133.65C1492.29,-127.48 431.6,-101.47 363,-85 361.27,-84.58 359.52,-84.07 357.78,-83.47"/>
<polygon fill="#63b8ff" stroke="#63b8ff" points="358.72,-80.07 348.14,-79.5 356.05,-86.55 358.72,-80.07"/>
</g>
<!-- Node9 -->
<g id="node9" class="node">
<title>Node9</title>
<g id="a_node9"><a xlink:title=" ">
<polygon fill="#e0e0e0" stroke="#999999" points="1831,-79.5 1793,-79.5 1793,-60.5 1831,-60.5 1831,-79.5"/>
<text text-anchor="middle" x="1812" y="-67.5" font-family="Helvetica,sans-Serif" font-size="10.00">array</text>
</a>
</g>
</g>
<!-- Node3&#45;&gt;Node9 -->
<g id="edge8" class="edge">
<title>Node3&#45;&gt;Node9</title>
<path fill="none" stroke="#63b8ff" d="M1811.22,-120.8C1811.36,-111.7 1811.55,-99.79 1811.7,-89.9"/>
<polygon fill="#63b8ff" stroke="#63b8ff" points="1815.21,-89.9 1811.86,-79.84 1808.21,-89.79 1815.21,-89.9"/>
</g>
<!-- Node11 -->
<g id="node11" class="node">
<title>Node11</title>
<g id="a_node11"><a xlink:href="_foundation_entities_8hpp.html" target="_top" xlink:title=" ">
<polygon fill="white" stroke="#666666" points="1153.5,-338 1022.5,-338 1022.5,-308 1153.5,-308 1153.5,-338"/>
<text text-anchor="start" x="1030.5" y="-326" font-family="Helvetica,sans-Serif" font-size="10.00">discordcoreapi/Foundation</text>
<text text-anchor="middle" x="1088" y="-315" font-family="Helvetica,sans-Serif" font-size="10.00">Entities.hpp</text>
</a>
</g>
</g>
<!-- Node10&#45;&gt;Node11 -->
<g id="edge10" class="edge">
<title>Node10&#45;&gt;Node11</title>
<path fill="none" stroke="#63b8ff" d="M1088.78,-373.8C1088.66,-366.34 1088.52,-356.99 1088.38,-348.41"/>
<polygon fill="#63b8ff" stroke="#63b8ff" points="1091.88,-348.11 1088.22,-338.16 1084.88,-348.22 1091.88,-348.11"/>
</g>
<!-- Node12 -->
<g id="node12" class="node">
<title>Node12</title>
<g id="a_node12"><a xlink:href="_utilities_8hpp.html" target="_top" xlink:title=" ">
<polygon fill="white" stroke="#666666" points="1155,-272 1021,-272 1021,-253 1155,-253 1155,-272"/>
<text text-anchor="middle" x="1088" y="-260" font-family="Helvetica,sans-Serif" font-size="10.00">discordcoreapi/Utilities.hpp</text>
</a>
</g>
</g>
<!-- Node11&#45;&gt;Node12 -->
<g id="edge11" class="edge">
<title>Node11&#45;&gt;Node12</title>
<path fill="none" stroke="#63b8ff" d="M1088,-307.84C1088,-300.21 1088,-290.7 1088,-282.45"/>
<polygon fill="#63b8ff" stroke="#63b8ff" points="1091.5,-282.27 1088,-272.27 1084.5,-282.27 1091.5,-282.27"/>
</g>
<!-- Node13 -->
<g id="node13" class="node">
<title>Node13</title>
<g id="a_node13"><a xlink:href="_base_8hpp.html" target="_top" xlink:title=" ">
<polygon fill="white" stroke="#666666" points="1145.5,-151 1030.5,-151 1030.5,-121 1145.5,-121 1145.5,-151"/>
<text text-anchor="start" x="1038.5" y="-139" font-family="Helvetica,sans-Serif" font-size="10.00">discordcoreapi/Utilities</text>
<text text-anchor="middle" x="1088" y="-128" font-family="Helvetica,sans-Serif" font-size="10.00">/Base.hpp</text>
</a>
</g>
</g>
<!-- Node12&#45;&gt;Node13 -->
<g id="edge12" class="edge">
<title>Node12&#45;&gt;Node13</title>
<path fill="none" stroke="#63b8ff" d="M1053.78,-252.93C1035.29,-246.37 1014.04,-235.24 1003,-217 996.1,-205.59 996.38,-198.57 1003,-187 1010.74,-173.47 1023.73,-163.24 1037.25,-155.67"/>
<polygon fill="#63b8ff" stroke="#63b8ff" points="1038.88,-158.77 1046.16,-151.07 1035.67,-152.55 1038.88,-158.77"/>
</g>
<!-- Node34 -->
<g id="node34" class="node">
<title>Node34</title>
<g id="a_node34"><a xlink:href="_unordered_set_8hpp.html" target="_top" xlink:title=" ">
<polygon fill="white" stroke="#666666" points="254.5,-217 139.5,-217 139.5,-187 254.5,-187 254.5,-217"/>
<text text-anchor="start" x="147.5" y="-205" font-family="Helvetica,sans-Serif" font-size="10.00">discordcoreapi/Utilities</text>
<text text-anchor="middle" x="197" y="-194" font-family="Helvetica,sans-Serif" font-size="10.00">/UnorderedSet.hpp</text>
</a>
</g>
</g>
<!-- Node12&#45;&gt;Node34 -->
<g id="edge38" class="edge">
<title>Node12&#45;&gt;Node34</title>
<path fill="none" stroke="#63b8ff" d="M1020.84,-261.18C880.22,-259.78 544.74,-252.63 266,-217 265.66,-216.96 265.32,-216.91 264.97,-216.87"/>
<polygon fill="#63b8ff" stroke="#63b8ff" points="265.28,-213.37 254.87,-215.38 264.26,-220.3 265.28,-213.37"/>
</g>
<!-- Node39 -->
<g id="node39" class="node">
<title>Node39</title>
<g id="a_node39"><a xlink:href="_unordered_map_8hpp.html" target="_top" xlink:title=" ">
<polygon fill="white" stroke="#666666" points="390.5,-217 275.5,-217 275.5,-187 390.5,-187 390.5,-217"/>
<text text-anchor="start" x="283.5" y="-205" font-family="Helvetica,sans-Serif" font-size="10.00">discordcoreapi/Utilities</text>
<text text-anchor="middle" x="333" y="-194" font-family="Helvetica,sans-Serif" font-size="10.00">/UnorderedMap.hpp</text>
</a>
</g>
</g>
<!-- Node12&#45;&gt;Node39 -->
<g id="edge44" class="edge">
<title>Node12&#45;&gt;Node39</title>
<path fill="none" stroke="#63b8ff" d="M1021,-256.31C878,-245.23 544.27,-219.37 400.67,-208.24"/>
<polygon fill="#63b8ff" stroke="#63b8ff" points="400.91,-204.75 390.67,-207.47 400.37,-211.73 400.91,-204.75"/>
</g>
<!-- Node41 -->
<g id="node41" class="node">
<title>Node41</title>
<g id="a_node41"><a xlink:href="_object_cache_8hpp.html" target="_top" xlink:title=" ">
<polygon fill="white" stroke="#666666" points="1661.5,-217 1546.5,-217 1546.5,-187 1661.5,-187 1661.5,-217"/>
<text text-anchor="start" x="1554.5" y="-205" font-family="Helvetica,sans-Serif" font-size="10.00">discordcoreapi/Utilities</text>
<text text-anchor="middle" x="1604" y="-194" font-family="Helvetica,sans-Serif" font-size="10.00">/ObjectCache.hpp</text>
</a>
</g>
</g>
<!-- Node12&#45;&gt;Node41 -->
<g id="edge52" class="edge">
<title>Node12&#45;&gt;Node41</title>
<path fill="none" stroke="#63b8ff" d="M1155.19,-253.88C1253.91,-242.69 1437.14,-221.92 1536.2,-210.69"/>
<polygon fill="#63b8ff" stroke="#63b8ff" points="1536.85,-214.14 1546.4,-209.53 1536.06,-207.18 1536.85,-214.14"/>
</g>
<!-- Node42 -->
<g id="node42" class="node">
<title>Node42</title>
<g id="a_node42"><a xlink:href="_etf_8hpp.html" target="_top" xlink:title=" ">
<polygon fill="white" stroke="#666666" points="2040.5,-151 1925.5,-151 1925.5,-121 2040.5,-121 2040.5,-151"/>
<text text-anchor="start" x="1933.5" y="-139" font-family="Helvetica,sans-Serif" font-size="10.00">discordcoreapi/Utilities</text>
<text text-anchor="middle" x="1983" y="-128" font-family="Helvetica,sans-Serif" font-size="10.00">/Etf.hpp</text>
</a>
</g>
</g>
<!-- Node12&#45;&gt;Node42 -->
<g id="edge60" class="edge">
<title>Node12&#45;&gt;Node42</title>
<path fill="none" stroke="#63b8ff" d="M1155.23,-260.15C1264.05,-257.12 1485.27,-247.43 1670,-217 1762,-201.84 1866.51,-172.64 1928.48,-154.02"/>
<polygon fill="#63b8ff" stroke="#63b8ff" points="1929.87,-157.25 1938.43,-151.01 1927.84,-150.55 1929.87,-157.25"/>
</g>
<!-- Node44 -->
<g id="node44" class="node">
<title>Node44</title>
<g id="a_node44"><a xlink:href="_unbounded_message_block_8hpp.html" target="_top" xlink:title=" ">
<polygon fill="white" stroke="#666666" points="1164,-217 1012,-217 1012,-187 1164,-187 1164,-217"/>
<text text-anchor="start" x="1020" y="-205" font-family="Helvetica,sans-Serif" font-size="10.00">discordcoreapi/Utilities</text>
<text text-anchor="middle" x="1088" y="-194" font-family="Helvetica,sans-Serif" font-size="10.00">/UnboundedMessageBlock.hpp</text>
</a>
</g>
</g>
<!-- Node12&#45;&gt;Node44 -->
<g id="edge58" class="edge">
<title>Node12&#45;&gt;Node44</title>
<path fill="none" stroke="#63b8ff" d="M1088,-252.87C1088,-246.11 1088,-236.35 1088,-227.26"/>
<polygon fill="#63b8ff" stroke="#63b8ff" points="1091.5,-227.11 1088,-217.11 1084.5,-227.11 1091.5,-227.11"/>
</g>
<!-- Node45 -->
<g id="node45" class="node">
<title>Node45</title>
<g id="a_node45"><a xlink:title=" ">
<polygon fill="#e0e0e0" stroke="#999999" points="1238,-211.5 1182,-211.5 1182,-192.5 1238,-192.5 1238,-211.5"/>
<text text-anchor="middle" x="1210" y="-199.5" font-family="Helvetica,sans-Serif" font-size="10.00">coroutine</text>
</a>
</g>
</g>
<!-- Node12&#45;&gt;Node45 -->
<g id="edge61" class="edge">
<title>Node12&#45;&gt;Node45</title>
<path fill="none" stroke="#63b8ff" d="M1105.74,-252.99C1126.07,-243.25 1159.61,-227.16 1183.14,-215.88"/>
<polygon fill="#63b8ff" stroke="#63b8ff" points="1184.74,-219 1192.24,-211.52 1181.71,-212.68 1184.74,-219"/>
</g>
<!-- Node13&#45;&gt;Node4 -->
<g id="edge20" class="edge">
<title>Node13&#45;&gt;Node4</title>
<path fill="none" stroke="#63b8ff" d="M1030.28,-135.74C867.5,-136.89 421.33,-133.06 497,-55 521.2,-30.03 1600.81,-14.62 1865.08,-11.22"/>
<polygon fill="#63b8ff" stroke="#63b8ff" points="1865.28,-14.71 1875.23,-11.09 1865.19,-7.71 1865.28,-14.71"/>
</g>
<!-- Node13&#45;&gt;Node6 -->
<g id="edge17" class="edge">
<title>Node13&#45;&gt;Node6</title>
<path fill="none" stroke="#63b8ff" d="M1145.65,-133.74C1297.96,-129.98 1708.44,-117.11 1840,-85 1841.94,-84.53 1843.92,-83.94 1845.88,-83.28"/>
<polygon fill="#63b8ff" stroke="#63b8ff" points="1847.41,-86.44 1855.44,-79.54 1844.85,-79.93 1847.41,-86.44"/>
</g>
<!-- Node13&#45;&gt;Node7 -->
<g id="edge16" class="edge">
<title>Node13&#45;&gt;Node7</title>
<path fill="none" stroke="#63b8ff" d="M1145.61,-132.89C1280.19,-127.58 1612.04,-112.07 1720,-85 1721.9,-84.52 1723.82,-83.95 1725.74,-83.3"/>
<polygon fill="#63b8ff" stroke="#63b8ff" points="1727.06,-86.54 1735.1,-79.64 1724.51,-80.02 1727.06,-86.54"/>
</g>
<!-- Node13&#45;&gt;Node8 -->
<g id="edge30" class="edge">
<title>Node13&#45;&gt;Node8</title>
<path fill="none" stroke="#63b8ff" d="M1030.23,-133.74C881.6,-130.07 488.82,-117.5 363,-85 361.32,-84.57 359.61,-84.04 357.92,-83.45"/>
<polygon fill="#63b8ff" stroke="#63b8ff" points="359.05,-80.13 348.48,-79.54 356.38,-86.6 359.05,-80.13"/>
</g>
<!-- Node13&#45;&gt;Node9 -->
<g id="edge37" class="edge">
<title>Node13&#45;&gt;Node9</title>
<path fill="none" stroke="#63b8ff" d="M1145.6,-133.75C1289.98,-130.15 1664.25,-117.84 1784,-85 1785.44,-84.6 1786.9,-84.13 1788.34,-83.61"/>
<polygon fill="#63b8ff" stroke="#63b8ff" points="1789.86,-86.76 1797.61,-79.54 1787.05,-80.35 1789.86,-86.76"/>
</g>
<!-- Node13&#45;&gt;Node14 -->
<g id="edge13" class="edge">
<title>Node13&#45;&gt;Node14</title>
<path fill="none" stroke="#63b8ff" d="M1145.51,-134.06C1322.05,-130.82 1854.47,-118.49 2024,-85 2027.08,-84.39 2030.24,-83.6 2033.37,-82.7"/>
<polygon fill="#63b8ff" stroke="#63b8ff" points="2034.69,-85.95 2043.14,-79.55 2032.55,-79.29 2034.69,-85.95"/>
</g>
<!-- Node15 -->
<g id="node15" class="node">
<title>Node15</title>
<g id="a_node15"><a xlink:title=" ">
<polygon fill="#e0e0e0" stroke="#999999" points="1251,-79.5 1189,-79.5 1189,-60.5 1251,-60.5 1251,-79.5"/>
<text text-anchor="middle" x="1220" y="-67.5" font-family="Helvetica,sans-Serif" font-size="10.00">sys/time.h</text>
</a>
</g>
</g>
<!-- Node13&#45;&gt;Node15 -->
<g id="edge14" class="edge">
<title>Node13&#45;&gt;Node15</title>
<path fill="none" stroke="#63b8ff" d="M1116.97,-120.95C1139.71,-109.93 1171.12,-94.7 1193.27,-83.96"/>
<polygon fill="#63b8ff" stroke="#63b8ff" points="1194.96,-87.03 1202.43,-79.52 1191.91,-80.73 1194.96,-87.03"/>
</g>
<!-- Node16 -->
<g id="node16" class="node">
<title>Node16</title>
<g id="a_node16"><a xlink:title=" ">
<polygon fill="#e0e0e0" stroke="#999999" points="1326.5,-79.5 1269.5,-79.5 1269.5,-60.5 1326.5,-60.5 1326.5,-79.5"/>
<text text-anchor="middle" x="1298" y="-67.5" font-family="Helvetica,sans-Serif" font-size="10.00">pthread.h</text>
</a>
</g>
</g>
<!-- Node13&#45;&gt;Node16 -->
<g id="edge15" class="edge">
<title>Node13&#45;&gt;Node16</title>
<path fill="none" stroke="#63b8ff" d="M1139.85,-120.95C1174.13,-111.41 1219.98,-98.17 1260,-85 1261.9,-84.37 1263.85,-83.71 1265.82,-83.03"/>
<polygon fill="#63b8ff" stroke="#63b8ff" points="1267.34,-86.21 1275.59,-79.55 1264.99,-79.61 1267.34,-86.21"/>
</g>
<!-- Node17 -->
<g id="node17" class="node">
<title>Node17</title>
<g id="a_node17"><a xlink:title=" ">
<polygon fill="#e0e0e0" stroke="#999999" points="1389,-79.5 1345,-79.5 1345,-60.5 1389,-60.5 1389,-79.5"/>
<text text-anchor="middle" x="1367" y="-67.5" font-family="Helvetica,sans-Serif" font-size="10.00">time.h</text>
</a>
</g>
</g>
<!-- Node13&#45;&gt;Node17 -->
<g id="edge18" class="edge">
<title>Node13&#45;&gt;Node17</title>
<path fill="none" stroke="#63b8ff" d="M1145.78,-126.87C1196.4,-118.91 1271.59,-105.04 1335,-85 1336.63,-84.48 1338.29,-83.91 1339.95,-83.3"/>
<polygon fill="#63b8ff" stroke="#63b8ff" points="1341.35,-86.52 1349.32,-79.53 1338.73,-80.02 1341.35,-86.52"/>
</g>
<!-- Node18 -->
<g id="node18" class="node">
<title>Node18</title>
<g id="a_node18"><a xlink:title=" ">
<polygon fill="#e0e0e0" stroke="#999999" points="1448.5,-79.5 1407.5,-79.5 1407.5,-60.5 1448.5,-60.5 1448.5,-79.5"/>
<text text-anchor="middle" x="1428" y="-67.5" font-family="Helvetica,sans-Serif" font-size="10.00">ctime</text>
</a>
</g>
</g>
<!-- Node13&#45;&gt;Node18 -->
<g id="edge19" class="edge">
<title>Node13&#45;&gt;Node18</title>
<path fill="none" stroke="#63b8ff" d="M1145.65,-130.5C1208.72,-124.48 1312.28,-111.35 1398,-85 1399.44,-84.56 1400.9,-84.06 1402.37,-83.52"/>
<polygon fill="#63b8ff" stroke="#63b8ff" points="1403.96,-86.65 1411.82,-79.55 1401.24,-80.19 1403.96,-86.65"/>
</g>
<!-- Node19 -->
<g id="node19" class="node">
<title>Node19</title>
<g id="a_node19"><a xlink:title=" ">
<polygon fill="#e0e0e0" stroke="#999999" points="1551.5,-79.5 1466.5,-79.5 1466.5,-60.5 1551.5,-60.5 1551.5,-79.5"/>
<text text-anchor="middle" x="1509" y="-67.5" font-family="Helvetica,sans-Serif" font-size="10.00">source_location</text>
</a>
</g>
</g>
<!-- Node13&#45;&gt;Node19 -->
<g id="edge21" class="edge">
<title>Node13&#45;&gt;Node19</title>
<path fill="none" stroke="#63b8ff" d="M1145.59,-129.51C1218.52,-122.03 1347.84,-107 1457,-85 1461.23,-84.15 1465.62,-83.15 1469.98,-82.08"/>
<polygon fill="#63b8ff" stroke="#63b8ff" points="1471.19,-85.39 1480,-79.51 1469.45,-78.61 1471.19,-85.39"/>
</g>
<!-- Node20 -->
<g id="node20" class="node">
<title>Node20</title>
<g id="a_node20"><a xlink:title=" ">
<polygon fill="#e0e0e0" stroke="#999999" points="450,-79.5 372,-79.5 372,-60.5 450,-60.5 450,-79.5"/>
<text text-anchor="middle" x="411" y="-67.5" font-family="Helvetica,sans-Serif" font-size="10.00">shared_mutex</text>
</a>
</g>
</g>
<!-- Node13&#45;&gt;Node20 -->
<g id="edge22" class="edge">
<title>Node13&#45;&gt;Node20</title>
<path fill="none" stroke="#63b8ff" d="M1030.36,-133.81C919.78,-130.77 670.49,-120.26 464,-85 459.27,-84.19 454.34,-83.16 449.48,-82.02"/>
<polygon fill="#63b8ff" stroke="#63b8ff" points="450.23,-78.6 439.68,-79.57 448.53,-85.39 450.23,-78.6"/>
</g>
<!-- Node21 -->
<g id="node21" class="node">
<title>Node21</title>
<g id="a_node21"><a xlink:title=" ">
<polygon fill="#e0e0e0" stroke="#999999" points="1634.5,-79.5 1569.5,-79.5 1569.5,-60.5 1634.5,-60.5 1634.5,-79.5"/>
<text text-anchor="middle" x="1602" y="-67.5" font-family="Helvetica,sans-Serif" font-size="10.00">immintrin.h</text>
</a>
</g>
</g>
<!-- Node13&#45;&gt;Node21 -->
<g id="edge23" class="edge">
<title>Node13&#45;&gt;Node21</title>
<path fill="none" stroke="#63b8ff" d="M1145.67,-132.9C1235.25,-128.75 1412.83,-116.93 1560,-85 1563.06,-84.34 1566.2,-83.53 1569.33,-82.64"/>
<polygon fill="#63b8ff" stroke="#63b8ff" points="1570.62,-85.91 1579.14,-79.61 1568.56,-79.22 1570.62,-85.91"/>
</g>
<!-- Node22 -->
<g id="node22" class="node">
<title>Node22</title>
<g id="a_node22"><a xlink:title=" ">
<polygon fill="#e0e0e0" stroke="#999999" points="1711,-79.5 1653,-79.5 1653,-60.5 1711,-60.5 1711,-79.5"/>
<text text-anchor="middle" x="1682" y="-67.5" font-family="Helvetica,sans-Serif" font-size="10.00">functional</text>
</a>
</g>
</g>
<!-- Node13&#45;&gt;Node22 -->
<g id="edge24" class="edge">
<title>Node13&#45;&gt;Node22</title>
<path fill="none" stroke="#63b8ff" d="M1145.86,-134.61C1247.61,-132.86 1464.69,-124.36 1643,-85 1645.83,-84.37 1648.74,-83.6 1651.63,-82.74"/>
<polygon fill="#63b8ff" stroke="#63b8ff" points="1652.84,-86.02 1661.24,-79.56 1650.65,-79.37 1652.84,-86.02"/>
</g>
<!-- Node23 -->
<g id="node23" class="node">
<title>Node23</title>
<g id="a_node23"><a xlink:title=" ">
<polygon fill="#e0e0e0" stroke="#999999" points="571.5,-79.5 506.5,-79.5 506.5,-60.5 571.5,-60.5 571.5,-79.5"/>
<text text-anchor="middle" x="539" y="-67.5" font-family="Helvetica,sans-Serif" font-size="10.00">semaphore</text>
</a>
</g>
</g>
<!-- Node13&#45;&gt;Node23 -->
<g id="edge25" class="edge">
<title>Node13&#45;&gt;Node23</title>
<path fill="none" stroke="#63b8ff" d="M1030.33,-133.5C935.59,-130.09 741.47,-119.21 581,-85 577.94,-84.35 574.79,-83.55 571.66,-82.67"/>
<polygon fill="#63b8ff" stroke="#63b8ff" points="572.44,-79.24 561.85,-79.64 570.38,-85.93 572.44,-79.24"/>
</g>
<!-- Node24 -->
<g id="node24" class="node">
<title>Node24</title>
<g id="a_node24"><a xlink:title=" ">
<polygon fill="#e0e0e0" stroke="#999999" points="646,-79.5 590,-79.5 590,-60.5 646,-60.5 646,-79.5"/>
<text text-anchor="middle" x="618" y="-67.5" font-family="Helvetica,sans-Serif" font-size="10.00">concepts</text>
</a>
</g>
</g>
<!-- Node13&#45;&gt;Node24 -->
<g id="edge26" class="edge">
<title>Node13&#45;&gt;Node24</title>
<path fill="none" stroke="#63b8ff" d="M1030.47,-132.87C946.77,-128.75 786.99,-117.07 655,-85 652.55,-84.4 650.04,-83.69 647.53,-82.91"/>
<polygon fill="#63b8ff" stroke="#63b8ff" points="648.67,-79.59 638.07,-79.62 646.37,-86.21 648.67,-79.59"/>
</g>
<!-- Node25 -->
<g id="node25" class="node">
<title>Node25</title>
<g id="a_node25"><a xlink:title=" ">
<polygon fill="#e0e0e0" stroke="#999999" points="718,-79.5 664,-79.5 664,-60.5 718,-60.5 718,-79.5"/>
<text text-anchor="middle" x="691" y="-67.5" font-family="Helvetica,sans-Serif" font-size="10.00">iostream</text>
</a>
</g>
</g>
<!-- Node13&#45;&gt;Node25 -->
<g id="edge27" class="edge">
<title>Node13&#45;&gt;Node25</title>
<path fill="none" stroke="#63b8ff" d="M1030.3,-131.17C958.35,-125.46 832.02,-112.29 727,-85 724.7,-84.4 722.35,-83.7 720,-82.94"/>
<polygon fill="#63b8ff" stroke="#63b8ff" points="721.13,-79.62 710.53,-79.55 718.77,-86.21 721.13,-79.62"/>
</g>
<!-- Node26 -->
<g id="node26" class="node">
<title>Node26</title>
<g id="a_node26"><a xlink:title=" ">
<polygon fill="#e0e0e0" stroke="#999999" points="788,-79.5 736,-79.5 736,-60.5 788,-60.5 788,-79.5"/>
<text text-anchor="middle" x="762" y="-67.5" font-family="Helvetica,sans-Serif" font-size="10.00">sstream</text>
</a>
</g>
</g>
<!-- Node13&#45;&gt;Node26 -->
<g id="edge28" class="edge">
<title>Node13&#45;&gt;Node26</title>
<path fill="none" stroke="#63b8ff" d="M1030.33,-128.72C971.04,-121.43 876.42,-107.44 797,-85 795.06,-84.45 793.09,-83.84 791.11,-83.17"/>
<polygon fill="#63b8ff" stroke="#63b8ff" points="791.96,-79.76 781.37,-79.59 789.55,-86.33 791.96,-79.76"/>
</g>
<!-- Node27 -->
<g id="node27" class="node">
<title>Node27</title>
<g id="a_node27"><a xlink:title=" ">
<polygon fill="#e0e0e0" stroke="#999999" points="856,-79.5 806,-79.5 806,-60.5 856,-60.5 856,-79.5"/>
<text text-anchor="middle" x="831" y="-67.5" font-family="Helvetica,sans-Serif" font-size="10.00">iomanip</text>
</a>
</g>
</g>
<!-- Node13&#45;&gt;Node27 -->
<g id="edge29" class="edge">
<title>Node13&#45;&gt;Node27</title>
<path fill="none" stroke="#63b8ff" d="M1030.46,-124.89C985.01,-116.24 920.24,-102.43 865,-85 863.33,-84.47 861.62,-83.9 859.91,-83.29"/>
<polygon fill="#63b8ff" stroke="#63b8ff" points="860.8,-79.88 850.21,-79.57 858.3,-86.42 860.8,-79.88"/>
</g>
<!-- Node28 -->
<g id="node28" class="node">
<title>Node28</title>
<g id="a_node28"><a xlink:title=" ">
<polygon fill="#e0e0e0" stroke="#999999" points="920,-79.5 874,-79.5 874,-60.5 920,-60.5 920,-79.5"/>
<text text-anchor="middle" x="897" y="-67.5" font-family="Helvetica,sans-Serif" font-size="10.00">atomic</text>
</a>
</g>
</g>
<!-- Node13&#45;&gt;Node28 -->
<g id="edge31" class="edge">
<title>Node13&#45;&gt;Node28</title>
<path fill="none" stroke="#63b8ff" d="M1038.47,-120.92C1006.86,-111.57 965.17,-98.56 929,-85 927.79,-84.55 926.55,-84.07 925.31,-83.58"/>
<polygon fill="#63b8ff" stroke="#63b8ff" points="926.39,-80.24 915.81,-79.63 923.71,-86.7 926.39,-80.24"/>
</g>
<!-- Node29 -->
<g id="node29" class="node">
<title>Node29</title>
<g id="a_node29"><a xlink:title=" ">
<polygon fill="#e0e0e0" stroke="#999999" points="987.5,-79.5 938.5,-79.5 938.5,-60.5 987.5,-60.5 987.5,-79.5"/>
<text text-anchor="middle" x="963" y="-67.5" font-family="Helvetica,sans-Serif" font-size="10.00">random</text>
</a>
</g>
</g>
<!-- Node13&#45;&gt;Node29 -->
<g id="edge32" class="edge">
<title>Node13&#45;&gt;Node29</title>
<path fill="none" stroke="#63b8ff" d="M1060.57,-120.95C1039.13,-109.98 1009.55,-94.83 988.6,-84.11"/>
<polygon fill="#63b8ff" stroke="#63b8ff" points="990.13,-80.96 979.64,-79.52 986.94,-87.19 990.13,-80.96"/>
</g>
<!-- Node30 -->
<g id="node30" class="node">
<title>Node30</title>
<g id="a_node30"><a xlink:title=" ">
<polygon fill="#e0e0e0" stroke="#999999" points="1046.5,-79.5 1005.5,-79.5 1005.5,-60.5 1046.5,-60.5 1046.5,-79.5"/>
<text text-anchor="middle" x="1026" y="-67.5" font-family="Helvetica,sans-Serif" font-size="10.00">string</text>
</a>
</g>
</g>
<!-- Node13&#45;&gt;Node30 -->
<g id="edge33" class="edge">
<title>Node13&#45;&gt;Node30</title>
<path fill="none" stroke="#63b8ff" d="M1074.24,-120.8C1064.57,-110.82 1051.63,-97.46 1041.58,-87.09"/>
<polygon fill="#63b8ff" stroke="#63b8ff" points="1044.04,-84.59 1034.57,-79.84 1039.01,-89.46 1044.04,-84.59"/>
</g>
<!-- Node31 -->
<g id="node31" class="node">
<title>Node31</title>
<g id="a_node31"><a xlink:title=" ">
<polygon fill="#e0e0e0" stroke="#999999" points="1109,-79.5 1065,-79.5 1065,-60.5 1109,-60.5 1109,-79.5"/>
<text text-anchor="middle" x="1087" y="-67.5" font-family="Helvetica,sans-Serif" font-size="10.00">thread</text>
</a>
</g>
</g>
<!-- Node13&#45;&gt;Node31 -->
<g id="edge34" class="edge">
<title>Node13&#45;&gt;Node31</title>
<path fill="none" stroke="#63b8ff" d="M1087.78,-120.8C1087.64,-111.7 1087.45,-99.79 1087.3,-89.9"/>
<polygon fill="#63b8ff" stroke="#63b8ff" points="1090.79,-89.79 1087.14,-79.84 1083.79,-89.9 1090.79,-89.79"/>
</g>
<!-- Node13&#45;&gt;Node32 -->
<g id="edge35" class="edge">
<title>Node13&#45;&gt;Node32</title>
<path fill="none" stroke="#63b8ff" d="M1030.34,-135.04C841.15,-134.75 240.69,-130.18 53,-85 51.26,-84.58 49.5,-84.07 47.75,-83.48"/>
<polygon fill="#63b8ff" stroke="#63b8ff" points="48.59,-80.05 38,-79.6 46,-86.55 48.59,-80.05"/>
</g>
<!-- Node33 -->
<g id="node33" class="node">
<title>Node33</title>
<g id="a_node33"><a xlink:title=" ">
<polygon fill="#e0e0e0" stroke="#999999" points="1170.5,-79.5 1127.5,-79.5 1127.5,-60.5 1170.5,-60.5 1170.5,-79.5"/>
<text text-anchor="middle" x="1149" y="-67.5" font-family="Helvetica,sans-Serif" font-size="10.00">queue</text>
</a>
</g>
</g>
<!-- Node13&#45;&gt;Node33 -->
<g id="edge36" class="edge">
<title>Node13&#45;&gt;Node33</title>
<path fill="none" stroke="#63b8ff" d="M1101.54,-120.8C1111.05,-110.82 1123.78,-97.46 1133.67,-87.09"/>
<polygon fill="#63b8ff" stroke="#63b8ff" points="1136.2,-89.5 1140.57,-79.84 1131.14,-84.67 1136.2,-89.5"/>
</g>
<!-- Node35 -->
<g id="node35" class="node">
<title>Node35</title>
<g id="a_node35"><a xlink:href="_hash_8hpp.html" target="_top" xlink:title=" ">
<polygon fill="white" stroke="#666666" points="253.5,-151 138.5,-151 138.5,-121 253.5,-121 253.5,-151"/>
<text text-anchor="start" x="146.5" y="-139" font-family="Helvetica,sans-Serif" font-size="10.00">discordcoreapi/Utilities</text>
<text text-anchor="middle" x="196" y="-128" font-family="Helvetica,sans-Serif" font-size="10.00">/Hash.hpp</text>
</a>
</g>
</g>
<!-- Node34&#45;&gt;Node35 -->
<g id="edge39" class="edge">
<title>Node34&#45;&gt;Node35</title>
<path fill="none" stroke="#63b8ff" d="M196.78,-186.8C196.66,-179.34 196.52,-169.99 196.38,-161.41"/>
<polygon fill="#63b8ff" stroke="#63b8ff" points="199.88,-161.11 196.22,-151.16 192.88,-161.22 199.88,-161.11"/>
</g>
<!-- Node35&#45;&gt;Node8 -->
<g id="edge43" class="edge">
<title>Node35&#45;&gt;Node8</title>
<path fill="none" stroke="#63b8ff" d="M226.07,-120.95C249.77,-109.88 282.56,-94.56 305.56,-83.82"/>
<polygon fill="#63b8ff" stroke="#63b8ff" points="307.19,-86.92 314.77,-79.52 304.23,-80.58 307.19,-86.92"/>
</g>
<!-- Node36 -->
<g id="node36" class="node">
<title>Node36</title>
<g id="a_node36"><a xlink:title=" ">
<polygon fill="#e0e0e0" stroke="#999999" points="157.5,-79.5 62.5,-79.5 62.5,-60.5 157.5,-60.5 157.5,-79.5"/>
<text text-anchor="middle" x="110" y="-67.5" font-family="Helvetica,sans-Serif" font-size="10.00">memory_resource</text>
</a>
</g>
</g>
<!-- Node35&#45;&gt;Node36 -->
<g id="edge40" class="edge">
<title>Node35&#45;&gt;Node36</title>
<path fill="none" stroke="#63b8ff" d="M176.91,-120.8C162.98,-110.43 144.14,-96.4 130,-85.88"/>
<polygon fill="#63b8ff" stroke="#63b8ff" points="132,-83.01 121.88,-79.84 127.82,-88.62 132,-83.01"/>
</g>
<!-- Node37 -->
<g id="node37" class="node">
<title>Node37</title>
<g id="a_node37"><a xlink:title=" ">
<polygon fill="#e0e0e0" stroke="#999999" points="293.5,-79.5 234.5,-79.5 234.5,-60.5 293.5,-60.5 293.5,-79.5"/>
<text text-anchor="middle" x="264" y="-67.5" font-family="Helvetica,sans-Serif" font-size="10.00">exception</text>
</a>
</g>
</g>
<!-- Node35&#45;&gt;Node37 -->
<g id="edge41" class="edge">
<title>Node35&#45;&gt;Node37</title>
<path fill="none" stroke="#63b8ff" d="M211.09,-120.8C221.8,-110.72 236.17,-97.19 247.23,-86.78"/>
<polygon fill="#63b8ff" stroke="#63b8ff" points="249.72,-89.25 254.6,-79.84 244.92,-84.15 249.72,-89.25"/>
</g>
<!-- Node38 -->
<g id="node38" class="node">
<title>Node38</title>
<g id="a_node38"><a xlink:title=" ">
<polygon fill="#e0e0e0" stroke="#999999" points="216,-79.5 176,-79.5 176,-60.5 216,-60.5 216,-79.5"/>
<text text-anchor="middle" x="196" y="-67.5" font-family="Helvetica,sans-Serif" font-size="10.00">utility</text>
</a>
</g>
</g>
<!-- Node35&#45;&gt;Node38 -->
<g id="edge42" class="edge">
<title>Node35&#45;&gt;Node38</title>
<path fill="none" stroke="#63b8ff" d="M196,-120.8C196,-111.7 196,-99.79 196,-89.9"/>
<polygon fill="#63b8ff" stroke="#63b8ff" points="199.5,-89.84 196,-79.84 192.5,-89.84 199.5,-89.84"/>
</g>
<!-- Node39&#45;&gt;Node8 -->
<g id="edge50" class="edge">
<title>Node39&#45;&gt;Node8</title>
<path fill="none" stroke="#63b8ff" d="M347.11,-186.63C355.23,-177.31 364.67,-164.44 369,-151 373.09,-138.31 373.09,-133.69 369,-121 364.93,-108.37 356.35,-96.25 348.59,-87.1"/>
<polygon fill="#63b8ff" stroke="#63b8ff" points="351.14,-84.69 341.85,-79.6 345.93,-89.38 351.14,-84.69"/>
</g>
<!-- Node39&#45;&gt;Node20 -->
<g id="edge47" class="edge">
<title>Node39&#45;&gt;Node20</title>
<path fill="none" stroke="#63b8ff" d="M351.86,-186.82C362.88,-177.67 376.29,-164.9 385,-151 396.97,-131.89 403.96,-106.74 407.62,-89.78"/>
<polygon fill="#63b8ff" stroke="#63b8ff" points="411.14,-90.01 409.64,-79.52 404.27,-88.65 411.14,-90.01"/>
</g>
<!-- Node39&#45;&gt;Node32 -->
<g id="edge51" class="edge">
<title>Node39&#45;&gt;Node32</title>
<path fill="none" stroke="#63b8ff" d="M275.25,-188.82C211.68,-175.3 117.42,-154.85 110,-151 79.45,-135.13 51.37,-106 35.5,-87.61"/>
<polygon fill="#63b8ff" stroke="#63b8ff" points="37.84,-84.96 28.73,-79.55 32.48,-89.46 37.84,-84.96"/>
</g>
<!-- Node39&#45;&gt;Node35 -->
<g id="edge45" class="edge">
<title>Node39&#45;&gt;Node35</title>
<path fill="none" stroke="#63b8ff" d="M302.93,-186.95C283.04,-177.66 256.74,-165.38 235.21,-155.32"/>
<polygon fill="#63b8ff" stroke="#63b8ff" points="236.54,-152.07 226,-151.01 233.57,-158.42 236.54,-152.07"/>
</g>
<!-- Node39&#45;&gt;Node36 -->
<g id="edge46" class="edge">
<title>Node39&#45;&gt;Node36</title>
<path fill="none" stroke="#63b8ff" d="M275.47,-188.44C217.01,-175.45 134.28,-156.32 129,-151 113.08,-134.97 109.58,-108.19 109.23,-90.07"/>
<polygon fill="#63b8ff" stroke="#63b8ff" points="112.74,-89.89 109.35,-79.85 105.74,-89.81 112.74,-89.89"/>
</g>
<!-- Node39&#45;&gt;Node37 -->
<g id="edge48" class="edge">
<title>Node39&#45;&gt;Node37</title>
<path fill="none" stroke="#63b8ff" d="M323.23,-186.87C316.6,-177.03 307.83,-163.47 301,-151 289.66,-130.3 278.56,-105.51 271.52,-89.07"/>
<polygon fill="#63b8ff" stroke="#63b8ff" points="274.63,-87.45 267.52,-79.59 268.18,-90.17 274.63,-87.45"/>
</g>
<!-- Node40 -->
<g id="node40" class="node">
<title>Node40</title>
<g id="a_node40"><a xlink:title=" ">
<polygon fill="#e0e0e0" stroke="#999999" points="360,-145.5 310,-145.5 310,-126.5 360,-126.5 360,-145.5"/>
<text text-anchor="middle" x="335" y="-133.5" font-family="Helvetica,sans-Serif" font-size="10.00">optional</text>
</a>
</g>
</g>
<!-- Node39&#45;&gt;Node40 -->
<g id="edge49" class="edge">
<title>Node39&#45;&gt;Node40</title>
<path fill="none" stroke="#63b8ff" d="M333.44,-186.8C333.73,-177.7 334.1,-165.79 334.41,-155.9"/>
<polygon fill="#63b8ff" stroke="#63b8ff" points="337.91,-155.95 334.72,-145.84 330.91,-155.73 337.91,-155.95"/>
</g>
<!-- Node41&#45;&gt;Node13 -->
<g id="edge53" class="edge">
<title>Node41&#45;&gt;Node13</title>
<path fill="none" stroke="#63b8ff" d="M1546.31,-193.84C1450.33,-181.94 1258.31,-158.12 1155.94,-145.43"/>
<polygon fill="#63b8ff" stroke="#63b8ff" points="1156.07,-141.92 1145.71,-144.16 1155.21,-148.86 1156.07,-141.92"/>
</g>
<!-- Node41&#45;&gt;Node42 -->
<g id="edge54" class="edge">
<title>Node41&#45;&gt;Node42</title>
<path fill="none" stroke="#63b8ff" d="M1661.52,-192.17C1723.27,-182.56 1824.22,-166.5 1911,-151 1912.45,-150.74 1913.91,-150.48 1915.39,-150.21"/>
<polygon fill="#63b8ff" stroke="#63b8ff" points="1916.06,-153.64 1925.26,-148.39 1914.79,-146.76 1916.06,-153.64"/>
</g>
<!-- Node41&#45;&gt;Node43 -->
<g id="edge57" class="edge">
<title>Node41&#45;&gt;Node43</title>
<path fill="none" stroke="#63b8ff" d="M1661.73,-198.31C1718.64,-193.88 1807,-182.13 1877,-151 1896.98,-142.11 1896.05,-129.97 1916,-121 1990.72,-87.41 2018.51,-100.61 2103.22,-85.06"/>
<polygon fill="#63b8ff" stroke="#63b8ff" points="2104.11,-88.45 2113.27,-83.13 2102.79,-81.58 2104.11,-88.45"/>
</g>
<!-- Node42&#45;&gt;Node43 -->
<g id="edge55" class="edge">
<title>Node42&#45;&gt;Node43</title>
<path fill="none" stroke="#63b8ff" d="M2024.26,-120.95C2052.54,-111.33 2090.25,-98.49 2120.35,-88.24"/>
<polygon fill="#63b8ff" stroke="#63b8ff" points="2121.5,-91.55 2129.84,-85.01 2119.24,-84.92 2121.5,-91.55"/>
</g>
<!-- Node43&#45;&gt;Node4 -->
<g id="edge56" class="edge">
<title>Node43&#45;&gt;Node4</title>
<path fill="none" stroke="#63b8ff" d="M2113.48,-55.43C2069.55,-45.07 2009.83,-30.98 1969.04,-21.36"/>
<polygon fill="#63b8ff" stroke="#63b8ff" points="1969.63,-17.9 1959.09,-19.01 1968.02,-24.72 1969.63,-17.9"/>
</g>
<!-- Node44&#45;&gt;Node13 -->
<g id="edge59" class="edge">
<title>Node44&#45;&gt;Node13</title>
<path fill="none" stroke="#63b8ff" d="M1088,-186.8C1088,-179.34 1088,-169.99 1088,-161.41"/>
<polygon fill="#63b8ff" stroke="#63b8ff" points="1091.5,-161.16 1088,-151.16 1084.5,-161.16 1091.5,-161.16"/>
</g>
<!-- Node57&#45;&gt;Node11 -->
<g id="edge76" class="edge">
<title>Node57&#45;&gt;Node11</title>
<path fill="none" stroke="#63b8ff" d="M1089.51,-445.41C1063.83,-438.48 1037.63,-426.08 1022,-404 1006.8,-382.54 1030.43,-359.52 1053.53,-343.71"/>
<polygon fill="#63b8ff" stroke="#63b8ff" points="1055.48,-346.62 1061.94,-338.23 1051.65,-340.76 1055.48,-346.62"/>
</g>
</g>
</svg>
