<?xml version="1.0" encoding="UTF-8" standalone="no"?>
<!DOCTYPE svg PUBLIC "-//W3C//DTD SVG 1.1//EN"
 "http://www.w3.org/Graphics/SVG/1.1/DTD/svg11.dtd">
<!-- Generated by graphviz version 5.0.0 (20220707.1540)
 -->
<!-- Title: ReactionEntities.hpp Pages: 1 -->
<svg width="3467pt" height="302pt"
 viewBox="0.00 0.00 3467.00 302.00" xmlns="http://www.w3.org/2000/svg" xmlns:xlink="http://www.w3.org/1999/xlink">
<g id="graph0" class="graph" transform="scale(1 1) rotate(0) translate(4 298)">
<title>ReactionEntities.hpp</title>
<!-- Node1 -->
<g id="node1" class="node">
<title>Node1</title>
<g id="a_node1"><a xlink:title=" ">
<polygon fill="#999999" stroke="#666666" points="1598,-294 1491,-294 1491,-275 1598,-275 1598,-294"/>
<text text-anchor="middle" x="1544.5" y="-282" font-family="Helvetica,sans-Serif" font-size="10.00">ReactionEntities.hpp</text>
</a>
</g>
</g>
<!-- Node2 -->
<g id="node2" class="node">
<title>Node2</title>
<g id="a_node2"><a xlink:href="_discord_core_client_8hpp.html" target="_top" xlink:title=" ">
<polygon fill="white" stroke="#666666" points="1601,-184 1488,-184 1488,-165 1601,-165 1601,-184"/>
<text text-anchor="middle" x="1544.5" y="-172" font-family="Helvetica,sans-Serif" font-size="10.00">DiscordCoreClient.hpp</text>
</a>
</g>
</g>
<!-- Node1&#45;&gt;Node2 -->
<g id="edge1" class="edge">
<title>Node1&#45;&gt;Node2</title>
<path fill="none" stroke="#63b8ff" d="M1544.5,-264.48C1544.5,-240.84 1544.5,-201.5 1544.5,-184.16"/>
<polygon fill="#63b8ff" stroke="#63b8ff" points="1541,-264.66 1544.5,-274.66 1548,-264.66 1541,-264.66"/>
</g>
<!-- Node17 -->
<g id="node17" class="node">
<title>Node17</title>
<g id="a_node17"><a xlink:href="_reaction_entities_8cpp.html" target="_top" xlink:title=" ">
<polygon fill="white" stroke="#666666" points="3459,-129 3352,-129 3352,-110 3459,-110 3459,-129"/>
<text text-anchor="middle" x="3405.5" y="-117" font-family="Helvetica,sans-Serif" font-size="10.00">ReactionEntities.cpp</text>
</a>
</g>
</g>
<!-- Node1&#45;&gt;Node17 -->
<g id="edge36" class="edge">
<title>Node1&#45;&gt;Node17</title>
<path fill="none" stroke="#63b8ff" d="M1608.3,-279.19C1840.98,-263.24 2665.83,-204.5 3343.5,-129 3346.2,-128.7 3348.96,-128.38 3351.75,-128.04"/>
<polygon fill="#63b8ff" stroke="#63b8ff" points="1608.05,-275.7 1598.31,-279.88 1608.53,-282.69 1608.05,-275.7"/>
</g>
<!-- Node33 -->
<g id="node33" class="node">
<title>Node33</title>
<g id="a_node33"><a xlink:href="_event_manager_8hpp.html" target="_top" xlink:title=" ">
<polygon fill="white" stroke="#666666" points="1341,-239 1244,-239 1244,-220 1341,-220 1341,-239"/>
<text text-anchor="middle" x="1292.5" y="-227" font-family="Helvetica,sans-Serif" font-size="10.00">EventManager.hpp</text>
</a>
</g>
</g>
<!-- Node1&#45;&gt;Node33 -->
<g id="edge32" class="edge">
<title>Node1&#45;&gt;Node33</title>
<path fill="none" stroke="#63b8ff" d="M1494,-272.88C1446.76,-262.94 1377.11,-248.3 1333.31,-239.08"/>
<polygon fill="#63b8ff" stroke="#63b8ff" points="1493.51,-276.35 1504.01,-274.98 1494.95,-269.5 1493.51,-276.35"/>
</g>
<!-- Node3 -->
<g id="node3" class="node">
<title>Node3</title>
<g id="a_node3"><a xlink:href="_application_command_entities_8cpp.html" target="_top" xlink:title=" ">
<polygon fill="white" stroke="#666666" points="2218,-129 2057,-129 2057,-110 2218,-110 2218,-129"/>
<text text-anchor="middle" x="2137.5" y="-117" font-family="Helvetica,sans-Serif" font-size="10.00">ApplicationCommandEntities.cpp</text>
</a>
</g>
</g>
<!-- Node2&#45;&gt;Node3 -->
<g id="edge2" class="edge">
<title>Node2&#45;&gt;Node3</title>
<path fill="none" stroke="#63b8ff" d="M1611.4,-167.75C1707.95,-159.41 1891.94,-143.39 2048.5,-129 2051.28,-128.74 2054.11,-128.48 2056.97,-128.22"/>
<polygon fill="#63b8ff" stroke="#63b8ff" points="1610.86,-164.28 1601.2,-168.63 1611.46,-171.25 1610.86,-164.28"/>
</g>
<!-- Node4 -->
<g id="node4" class="node">
<title>Node4</title>
<g id="a_node4"><a xlink:href="_auto_moderation_entities_8cpp.html" target="_top" xlink:title=" ">
<polygon fill="white" stroke="#666666" points="2373,-129 2236,-129 2236,-110 2373,-110 2373,-129"/>
<text text-anchor="middle" x="2304.5" y="-117" font-family="Helvetica,sans-Serif" font-size="10.00">AutoModerationEntities.cpp</text>
</a>
</g>
</g>
<!-- Node2&#45;&gt;Node4 -->
<g id="edge3" class="edge">
<title>Node2&#45;&gt;Node4</title>
<path fill="none" stroke="#63b8ff" d="M1611.57,-170.13C1734.04,-163.76 2002.06,-148.78 2227.5,-129 2230.18,-128.76 2232.91,-128.51 2235.67,-128.25"/>
<polygon fill="#63b8ff" stroke="#63b8ff" points="1611.04,-166.65 1601.23,-170.67 1611.4,-173.64 1611.04,-166.65"/>
</g>
<!-- Node5 -->
<g id="node5" class="node">
<title>Node5</title>
<g id="a_node5"><a xlink:href="_channel_entities_8cpp.html" target="_top" xlink:title=" ">
<polygon fill="white" stroke="#666666" points="2495.5,-129 2391.5,-129 2391.5,-110 2495.5,-110 2495.5,-129"/>
<text text-anchor="middle" x="2443.5" y="-117" font-family="Helvetica,sans-Serif" font-size="10.00">ChannelEntities.cpp</text>
</a>
</g>
</g>
<!-- Node2&#45;&gt;Node5 -->
<g id="edge4" class="edge">
<title>Node2&#45;&gt;Node5</title>
<path fill="none" stroke="#63b8ff" d="M1611.31,-171.89C1753.48,-168.04 2096.35,-156.48 2382.5,-129 2385.37,-128.72 2388.32,-128.41 2391.29,-128.07"/>
<polygon fill="#63b8ff" stroke="#63b8ff" points="1610.93,-168.4 1601.02,-172.16 1611.11,-175.4 1610.93,-168.4"/>
</g>
<!-- Node6 -->
<g id="node6" class="node">
<title>Node6</title>
<g id="a_node6"><a xlink:href="_command_controller_8cpp.html" target="_top" xlink:title=" ">
<polygon fill="white" stroke="#666666" points="2635,-129 2514,-129 2514,-110 2635,-110 2635,-129"/>
<text text-anchor="middle" x="2574.5" y="-117" font-family="Helvetica,sans-Serif" font-size="10.00">CommandController.cpp</text>
</a>
</g>
</g>
<!-- Node2&#45;&gt;Node6 -->
<g id="edge5" class="edge">
<title>Node2&#45;&gt;Node6</title>
<path fill="none" stroke="#63b8ff" d="M1611.53,-172.11C1768.09,-168.49 2169.89,-157.03 2504.5,-129 2507.55,-128.74 2510.67,-128.46 2513.82,-128.15"/>
<polygon fill="#63b8ff" stroke="#63b8ff" points="1611.05,-168.62 1601.13,-172.35 1611.21,-175.62 1611.05,-168.62"/>
</g>
<!-- Node7 -->
<g id="node7" class="node">
<title>Node7</title>
<g id="a_node7"><a xlink:href="_discord_core_client_8cpp.html" target="_top" xlink:title=" ">
<polygon fill="white" stroke="#666666" points="2766,-129 2653,-129 2653,-110 2766,-110 2766,-129"/>
<text text-anchor="middle" x="2709.5" y="-117" font-family="Helvetica,sans-Serif" font-size="10.00">DiscordCoreClient.cpp</text>
</a>
</g>
</g>
<!-- Node2&#45;&gt;Node7 -->
<g id="edge6" class="edge">
<title>Node2&#45;&gt;Node7</title>
<path fill="none" stroke="#63b8ff" d="M1611.44,-172.88C1783.3,-170.83 2253.99,-162.36 2644.5,-129 2647.22,-128.77 2650,-128.5 2652.81,-128.22"/>
<polygon fill="#63b8ff" stroke="#63b8ff" points="1611.25,-169.38 1601.29,-173 1611.33,-176.38 1611.25,-169.38"/>
</g>
<!-- Node8 -->
<g id="node8" class="node">
<title>Node8</title>
<g id="a_node8"><a xlink:href="_event_manager_8cpp.html" target="_top" xlink:title=" ">
<polygon fill="white" stroke="#666666" points="97,-129 0,-129 0,-110 97,-110 97,-129"/>
<text text-anchor="middle" x="48.5" y="-117" font-family="Helvetica,sans-Serif" font-size="10.00">EventManager.cpp</text>
</a>
</g>
</g>
<!-- Node2&#45;&gt;Node8 -->
<g id="edge7" class="edge">
<title>Node2&#45;&gt;Node8</title>
<path fill="none" stroke="#63b8ff" d="M1477.55,-172.47C1231.44,-168.53 377.15,-153.37 105.5,-129 102.81,-128.76 100.05,-128.47 97.27,-128.16"/>
<polygon fill="#63b8ff" stroke="#63b8ff" points="1477.72,-175.97 1487.77,-172.63 1477.83,-168.98 1477.72,-175.97"/>
</g>
<!-- Node9 -->
<g id="node9" class="node">
<title>Node9</title>
<g id="a_node9"><a xlink:href="_foundation_entities_8cpp.html" target="_top" xlink:title=" ">
<polygon fill="white" stroke="#666666" points="2900.5,-129 2784.5,-129 2784.5,-110 2900.5,-110 2900.5,-129"/>
<text text-anchor="middle" x="2842.5" y="-117" font-family="Helvetica,sans-Serif" font-size="10.00">FoundationEntities.cpp</text>
</a>
</g>
</g>
<!-- Node2&#45;&gt;Node9 -->
<g id="edge8" class="edge">
<title>Node2&#45;&gt;Node9</title>
<path fill="none" stroke="#63b8ff" d="M1611.17,-173.2C1796.25,-171.9 2332,-165.07 2775.5,-129 2778.42,-128.76 2781.41,-128.49 2784.43,-128.19"/>
<polygon fill="#63b8ff" stroke="#63b8ff" points="1611.02,-169.7 1601.05,-173.27 1611.07,-176.7 1611.02,-169.7"/>
</g>
<!-- Node10 -->
<g id="node10" class="node">
<title>Node10</title>
<g id="a_node10"><a xlink:href="_guild_entities_8cpp.html" target="_top" xlink:title=" ">
<polygon fill="white" stroke="#666666" points="3010,-129 2919,-129 2919,-110 3010,-110 3010,-129"/>
<text text-anchor="middle" x="2964.5" y="-117" font-family="Helvetica,sans-Serif" font-size="10.00">GuildEntities.cpp</text>
</a>
</g>
</g>
<!-- Node2&#45;&gt;Node10 -->
<g id="edge9" class="edge">
<title>Node2&#45;&gt;Node10</title>
<path fill="none" stroke="#63b8ff" d="M1611.57,-172.39C1849.59,-168.27 2653.18,-152.9 2909.5,-129 2912.58,-128.71 2915.75,-128.36 2918.93,-127.98"/>
<polygon fill="#63b8ff" stroke="#63b8ff" points="1611.27,-168.89 1601.33,-172.56 1611.39,-175.89 1611.27,-168.89"/>
</g>
<!-- Node11 -->
<g id="node11" class="node">
<title>Node11</title>
<g id="a_node11"><a xlink:href="_guild_member_entities_8cpp.html" target="_top" xlink:title=" ">
<polygon fill="white" stroke="#666666" points="3154.5,-129 3028.5,-129 3028.5,-110 3154.5,-110 3154.5,-129"/>
<text text-anchor="middle" x="3091.5" y="-117" font-family="Helvetica,sans-Serif" font-size="10.00">GuildMemberEntities.cpp</text>
</a>
</g>
</g>
<!-- Node2&#45;&gt;Node11 -->
<g id="edge10" class="edge">
<title>Node2&#45;&gt;Node11</title>
<path fill="none" stroke="#63b8ff" d="M1611.38,-173.56C1819.96,-173.3 2477.11,-169.12 3019.5,-129 3022.39,-128.79 3025.34,-128.54 3028.31,-128.28"/>
<polygon fill="#63b8ff" stroke="#63b8ff" points="1611.2,-170.06 1601.2,-173.57 1611.2,-177.06 1611.2,-170.06"/>
</g>
<!-- Node12 -->
<g id="node12" class="node">
<title>Node12</title>
<g id="a_node12"><a xlink:href="_guild_scheduled_event_entities_8cpp.html" target="_top" xlink:title=" ">
<polygon fill="white" stroke="#666666" points="3334,-129 3173,-129 3173,-110 3334,-110 3334,-129"/>
<text text-anchor="middle" x="3253.5" y="-117" font-family="Helvetica,sans-Serif" font-size="10.00">GuildScheduledEventEntities.cpp</text>
</a>
</g>
</g>
<!-- Node2&#45;&gt;Node12 -->
<g id="edge11" class="edge">
<title>Node2&#45;&gt;Node12</title>
<path fill="none" stroke="#63b8ff" d="M1611.35,-173.26C1832.71,-172.12 2561.91,-165.64 3163.5,-129 3166.48,-128.82 3169.51,-128.62 3172.57,-128.4"/>
<polygon fill="#63b8ff" stroke="#63b8ff" points="1611.18,-169.76 1601.2,-173.31 1611.22,-176.76 1611.18,-169.76"/>
</g>
<!-- Node13 -->
<g id="node13" class="node">
<title>Node13</title>
<g id="a_node13"><a xlink:href="_https_client_8cpp.html" target="_top" xlink:title=" ">
<polygon fill="white" stroke="#666666" points="327,-129 244,-129 244,-110 327,-110 327,-129"/>
<text text-anchor="middle" x="285.5" y="-117" font-family="Helvetica,sans-Serif" font-size="10.00">HttpsClient.cpp</text>
</a>
</g>
</g>
<!-- Node2&#45;&gt;Node13 -->
<g id="edge12" class="edge">
<title>Node2&#45;&gt;Node13</title>
<path fill="none" stroke="#63b8ff" d="M1477.88,-172.17C1258.6,-167.63 560.66,-151.71 336.5,-129 333.46,-128.69 330.33,-128.32 327.19,-127.9"/>
<polygon fill="#63b8ff" stroke="#63b8ff" points="1477.88,-175.67 1487.95,-172.38 1478.03,-168.68 1477.88,-175.67"/>
</g>
<!-- Node14 -->
<g id="node14" class="node">
<title>Node14</title>
<g id="a_node14"><a xlink:href="_input_events_8cpp.html" target="_top" xlink:title=" ">
<polygon fill="white" stroke="#666666" points="431.5,-129 345.5,-129 345.5,-110 431.5,-110 431.5,-129"/>
<text text-anchor="middle" x="388.5" y="-117" font-family="Helvetica,sans-Serif" font-size="10.00">InputEvents.cpp</text>
</a>
</g>
</g>
<!-- Node2&#45;&gt;Node14 -->
<g id="edge13" class="edge">
<title>Node2&#45;&gt;Node14</title>
<path fill="none" stroke="#63b8ff" d="M1477.8,-171.85C1271.3,-166.57 644.27,-149.28 441.5,-129 438.25,-128.68 434.91,-128.28 431.54,-127.84"/>
<polygon fill="#63b8ff" stroke="#63b8ff" points="1477.81,-175.35 1487.89,-172.11 1477.99,-168.35 1477.81,-175.35"/>
</g>
<!-- Node15 -->
<g id="node15" class="node">
<title>Node15</title>
<g id="a_node15"><a xlink:href="_interaction_entities_8cpp.html" target="_top" xlink:title=" ">
<polygon fill="white" stroke="#666666" points="563,-129 450,-129 450,-110 563,-110 563,-129"/>
<text text-anchor="middle" x="506.5" y="-117" font-family="Helvetica,sans-Serif" font-size="10.00">InteractionEntities.cpp</text>
</a>
</g>
</g>
<!-- Node2&#45;&gt;Node15 -->
<g id="edge14" class="edge">
<title>Node2&#45;&gt;Node15</title>
<path fill="none" stroke="#63b8ff" d="M1477.95,-172.34C1320.37,-169.18 912.14,-158.59 572.5,-129 569.51,-128.74 566.44,-128.44 563.35,-128.12"/>
<polygon fill="#63b8ff" stroke="#63b8ff" points="1477.9,-175.84 1487.97,-172.54 1478.04,-168.84 1477.9,-175.84"/>
</g>
<!-- Node16 -->
<g id="node16" class="node">
<title>Node16</title>
<g id="a_node16"><a xlink:href="_message_entities_8cpp.html" target="_top" xlink:title=" ">
<polygon fill="white" stroke="#666666" points="689.5,-129 581.5,-129 581.5,-110 689.5,-110 689.5,-129"/>
<text text-anchor="middle" x="635.5" y="-117" font-family="Helvetica,sans-Serif" font-size="10.00">MessageEntities.cpp</text>
</a>
</g>
</g>
<!-- Node2&#45;&gt;Node16 -->
<g id="edge15" class="edge">
<title>Node2&#45;&gt;Node16</title>
<path fill="none" stroke="#63b8ff" d="M1477.59,-171.84C1334.41,-167.87 987.8,-156.08 698.5,-129 695.64,-128.73 692.72,-128.43 689.76,-128.11"/>
<polygon fill="#63b8ff" stroke="#63b8ff" points="1477.86,-175.34 1487.95,-172.12 1478.05,-168.35 1477.86,-175.34"/>
</g>
<!-- Node2&#45;&gt;Node17 -->
<g id="edge16" class="edge">
<title>Node2&#45;&gt;Node17</title>
<path fill="none" stroke="#63b8ff" d="M1611.53,-172.84C1895.08,-169.91 2997.25,-156.93 3343.5,-129 3346.21,-128.78 3348.98,-128.52 3351.77,-128.24"/>
<polygon fill="#63b8ff" stroke="#63b8ff" points="1611.36,-169.35 1601.39,-172.95 1611.43,-176.35 1611.36,-169.35"/>
</g>
<!-- Node18 -->
<g id="node18" class="node">
<title>Node18</title>
<g id="a_node18"><a xlink:href="_role_entities_8cpp.html" target="_top" xlink:title=" ">
<polygon fill="white" stroke="#666666" points="795.5,-129 707.5,-129 707.5,-110 795.5,-110 795.5,-129"/>
<text text-anchor="middle" x="751.5" y="-117" font-family="Helvetica,sans-Serif" font-size="10.00">RoleEntities.cpp</text>
</a>
</g>
</g>
<!-- Node2&#45;&gt;Node18 -->
<g id="edge17" class="edge">
<title>Node2&#45;&gt;Node18</title>
<path fill="none" stroke="#63b8ff" d="M1477.51,-171.69C1347.44,-167.69 1051.75,-156.19 804.5,-129 801.63,-128.68 798.68,-128.32 795.7,-127.92"/>
<polygon fill="#63b8ff" stroke="#63b8ff" points="1477.61,-175.2 1487.71,-172 1477.82,-168.2 1477.61,-175.2"/>
</g>
<!-- Node19 -->
<g id="node19" class="node">
<title>Node19</title>
<g id="a_node19"><a xlink:href="_song_a_p_i_8cpp.html" target="_top" xlink:title=" ">
<polygon fill="white" stroke="#666666" points="887.5,-129 813.5,-129 813.5,-110 887.5,-110 887.5,-129"/>
<text text-anchor="middle" x="850.5" y="-117" font-family="Helvetica,sans-Serif" font-size="10.00">SongAPI.cpp</text>
</a>
</g>
</g>
<!-- Node2&#45;&gt;Node19 -->
<g id="edge18" class="edge">
<title>Node2&#45;&gt;Node19</title>
<path fill="none" stroke="#63b8ff" d="M1477.65,-171.43C1359.85,-167.21 1107.72,-155.68 896.5,-129 893.6,-128.63 890.6,-128.2 887.6,-127.73"/>
<polygon fill="#63b8ff" stroke="#63b8ff" points="1477.83,-174.93 1487.95,-171.79 1478.08,-167.94 1477.83,-174.93"/>
</g>
<!-- Node20 -->
<g id="node20" class="node">
<title>Node20</title>
<g id="a_node20"><a xlink:href="_sound_cloud_a_p_i_8cpp.html" target="_top" xlink:title=" ">
<polygon fill="white" stroke="#666666" points="1009.5,-129 905.5,-129 905.5,-110 1009.5,-110 1009.5,-129"/>
<text text-anchor="middle" x="957.5" y="-117" font-family="Helvetica,sans-Serif" font-size="10.00">SoundCloudAPI.cpp</text>
</a>
</g>
</g>
<!-- Node2&#45;&gt;Node20 -->
<g id="edge19" class="edge">
<title>Node2&#45;&gt;Node20</title>
<path fill="none" stroke="#63b8ff" d="M1477.44,-168.93C1377.52,-161.87 1183.7,-147.2 1019.5,-129 1016.26,-128.64 1012.93,-128.25 1009.57,-127.84"/>
<polygon fill="#63b8ff" stroke="#63b8ff" points="1477.47,-172.44 1487.69,-169.65 1477.96,-165.46 1477.47,-172.44"/>
</g>
<!-- Node21 -->
<g id="node21" class="node">
<title>Node21</title>
<g id="a_node21"><a xlink:href="_stage_instance_entities_8cpp.html" target="_top" xlink:title=" ">
<polygon fill="white" stroke="#666666" points="1159,-129 1028,-129 1028,-110 1159,-110 1159,-129"/>
<text text-anchor="middle" x="1093.5" y="-117" font-family="Helvetica,sans-Serif" font-size="10.00">StageInstanceEntities.cpp</text>
</a>
</g>
</g>
<!-- Node2&#45;&gt;Node21 -->
<g id="edge20" class="edge">
<title>Node2&#45;&gt;Node21</title>
<path fill="none" stroke="#63b8ff" d="M1477.7,-165.65C1391.97,-155.58 1244.18,-138.21 1159.05,-128.2"/>
<polygon fill="#63b8ff" stroke="#63b8ff" points="1477.5,-169.15 1487.84,-166.84 1478.31,-162.2 1477.5,-169.15"/>
</g>
<!-- Node22 -->
<g id="node22" class="node">
<title>Node22</title>
<g id="a_node22"><a xlink:href="_sticker_entities_8cpp.html" target="_top" xlink:title=" ">
<polygon fill="white" stroke="#666666" points="1276,-129 1177,-129 1177,-110 1276,-110 1276,-129"/>
<text text-anchor="middle" x="1226.5" y="-117" font-family="Helvetica,sans-Serif" font-size="10.00">StickerEntities.cpp</text>
</a>
</g>
</g>
<!-- Node2&#45;&gt;Node22 -->
<g id="edge21" class="edge">
<title>Node2&#45;&gt;Node22</title>
<path fill="none" stroke="#63b8ff" d="M1483.27,-163.29C1422.99,-153.25 1332.08,-138.1 1276.16,-128.78"/>
<polygon fill="#63b8ff" stroke="#63b8ff" points="1482.97,-166.79 1493.41,-164.98 1484.12,-159.89 1482.97,-166.79"/>
</g>
<!-- Node23 -->
<g id="node23" class="node">
<title>Node23</title>
<g id="a_node23"><a xlink:href="_thread_entities_8cpp.html" target="_top" xlink:title=" ">
<polygon fill="white" stroke="#666666" points="1392.5,-129 1294.5,-129 1294.5,-110 1392.5,-110 1392.5,-129"/>
<text text-anchor="middle" x="1343.5" y="-117" font-family="Helvetica,sans-Serif" font-size="10.00">ThreadEntities.cpp</text>
</a>
</g>
</g>
<!-- Node2&#45;&gt;Node23 -->
<g id="edge22" class="edge">
<title>Node2&#45;&gt;Node23</title>
<path fill="none" stroke="#63b8ff" d="M1502.07,-162.31C1464.46,-152.39 1410.33,-138.12 1376.05,-129.08"/>
<polygon fill="#63b8ff" stroke="#63b8ff" points="1501.64,-165.82 1512.21,-164.98 1503.43,-159.05 1501.64,-165.82"/>
</g>
<!-- Node24 -->
<g id="node24" class="node">
<title>Node24</title>
<g id="a_node24"><a xlink:href="_to_entity_8hpp.html" target="_top" xlink:title=" ">
<polygon fill="white" stroke="#666666" points="1482,-129 1411,-129 1411,-110 1482,-110 1482,-129"/>
<text text-anchor="middle" x="1446.5" y="-117" font-family="Helvetica,sans-Serif" font-size="10.00">ToEntity.hpp</text>
</a>
</g>
</g>
<!-- Node2&#45;&gt;Node24 -->
<g id="edge23" class="edge">
<title>Node2&#45;&gt;Node24</title>
<path fill="none" stroke="#63b8ff" d="M1519.47,-159.97C1501.56,-150.28 1477.97,-137.52 1462.53,-129.17"/>
<polygon fill="#63b8ff" stroke="#63b8ff" points="1518.29,-163.31 1528.75,-164.98 1521.62,-157.15 1518.29,-163.31"/>
</g>
<!-- Node27 -->
<g id="node27" class="node">
<title>Node27</title>
<g id="a_node27"><a xlink:href="_user_entities_8cpp.html" target="_top" xlink:title=" ">
<polygon fill="white" stroke="#666666" points="1589,-129 1500,-129 1500,-110 1589,-110 1589,-129"/>
<text text-anchor="middle" x="1544.5" y="-117" font-family="Helvetica,sans-Serif" font-size="10.00">UserEntities.cpp</text>
</a>
</g>
</g>
<!-- Node2&#45;&gt;Node27 -->
<g id="edge26" class="edge">
<title>Node2&#45;&gt;Node27</title>
<path fill="none" stroke="#63b8ff" d="M1544.5,-154.66C1544.5,-145.93 1544.5,-135.99 1544.5,-129.09"/>
<polygon fill="#63b8ff" stroke="#63b8ff" points="1541,-154.75 1544.5,-164.75 1548,-154.75 1541,-154.75"/>
</g>
<!-- Node28 -->
<g id="node28" class="node">
<title>Node28</title>
<g id="a_node28"><a xlink:href="_utilities_8cpp.html" target="_top" xlink:title=" ">
<polygon fill="white" stroke="#666666" points="1675.5,-129 1607.5,-129 1607.5,-110 1675.5,-110 1675.5,-129"/>
<text text-anchor="middle" x="1641.5" y="-117" font-family="Helvetica,sans-Serif" font-size="10.00">Utilities.cpp</text>
</a>
</g>
</g>
<!-- Node2&#45;&gt;Node28 -->
<g id="edge27" class="edge">
<title>Node2&#45;&gt;Node28</title>
<path fill="none" stroke="#63b8ff" d="M1569.27,-159.97C1587,-150.28 1610.35,-137.52 1625.63,-129.17"/>
<polygon fill="#63b8ff" stroke="#63b8ff" points="1567.18,-157.12 1560.08,-164.98 1570.54,-163.26 1567.18,-157.12"/>
</g>
<!-- Node29 -->
<g id="node29" class="node">
<title>Node29</title>
<g id="a_node29"><a xlink:href="_voice_connection_8cpp.html" target="_top" xlink:title=" ">
<polygon fill="white" stroke="#666666" points="1803,-129 1694,-129 1694,-110 1803,-110 1803,-129"/>
<text text-anchor="middle" x="1748.5" y="-117" font-family="Helvetica,sans-Serif" font-size="10.00">VoiceConnection.cpp</text>
</a>
</g>
</g>
<!-- Node2&#45;&gt;Node29 -->
<g id="edge28" class="edge">
<title>Node2&#45;&gt;Node29</title>
<path fill="none" stroke="#63b8ff" d="M1587.08,-162.44C1625.27,-152.52 1680.52,-138.16 1715.47,-129.08"/>
<polygon fill="#63b8ff" stroke="#63b8ff" points="1586.07,-159.08 1577.28,-164.98 1587.83,-165.86 1586.07,-159.08"/>
</g>
<!-- Node30 -->
<g id="node30" class="node">
<title>Node30</title>
<g id="a_node30"><a xlink:href="_web_hook_entities_8cpp.html" target="_top" xlink:title=" ">
<polygon fill="white" stroke="#666666" points="1932,-129 1821,-129 1821,-110 1932,-110 1932,-129"/>
<text text-anchor="middle" x="1876.5" y="-117" font-family="Helvetica,sans-Serif" font-size="10.00">WebHookEntities.cpp</text>
</a>
</g>
</g>
<!-- Node2&#45;&gt;Node30 -->
<g id="edge29" class="edge">
<title>Node2&#45;&gt;Node30</title>
<path fill="none" stroke="#63b8ff" d="M1607.95,-163.37C1670.29,-153.42 1764.36,-138.4 1823.02,-129.04"/>
<polygon fill="#63b8ff" stroke="#63b8ff" points="1607.16,-159.95 1597.84,-164.98 1608.27,-166.86 1607.16,-159.95"/>
</g>
<!-- Node31 -->
<g id="node31" class="node">
<title>Node31</title>
<g id="a_node31"><a xlink:href="_web_socket_client_8cpp.html" target="_top" xlink:title=" ">
<polygon fill="white" stroke="#666666" points="226,-129 115,-129 115,-110 226,-110 226,-129"/>
<text text-anchor="middle" x="170.5" y="-117" font-family="Helvetica,sans-Serif" font-size="10.00">WebSocketClient.cpp</text>
</a>
</g>
</g>
<!-- Node2&#45;&gt;Node31 -->
<g id="edge30" class="edge">
<title>Node2&#45;&gt;Node31</title>
<path fill="none" stroke="#63b8ff" d="M1477.51,-172.07C1246.01,-167.02 480.59,-149.14 235.5,-129 232.44,-128.75 229.3,-128.46 226.13,-128.13"/>
<polygon fill="#63b8ff" stroke="#63b8ff" points="1477.73,-175.58 1487.8,-172.3 1477.88,-168.58 1477.73,-175.58"/>
</g>
<!-- Node32 -->
<g id="node32" class="node">
<title>Node32</title>
<g id="a_node32"><a xlink:href="_you_tube_a_p_i_8cpp.html" target="_top" xlink:title=" ">
<polygon fill="white" stroke="#666666" points="2039,-129 1950,-129 1950,-110 2039,-110 2039,-129"/>
<text text-anchor="middle" x="1994.5" y="-117" font-family="Helvetica,sans-Serif" font-size="10.00">YouTubeAPI.cpp</text>
</a>
</g>
</g>
<!-- Node2&#45;&gt;Node32 -->
<g id="edge31" class="edge">
<title>Node2&#45;&gt;Node32</title>
<path fill="none" stroke="#63b8ff" d="M1611.44,-166.97C1690.45,-159.05 1825.75,-144.76 1941.5,-129 1944.27,-128.62 1947.12,-128.22 1949.99,-127.8"/>
<polygon fill="#63b8ff" stroke="#63b8ff" points="1610.75,-163.53 1601.14,-168 1611.44,-170.49 1610.75,-163.53"/>
</g>
<!-- Node25 -->
<g id="node25" class="node">
<title>Node25</title>
<g id="a_node25"><a xlink:href="_index_8hpp.html" target="_top" xlink:title=" ">
<polygon fill="white" stroke="#666666" points="1476,-74 1417,-74 1417,-55 1476,-55 1476,-74"/>
<text text-anchor="middle" x="1446.5" y="-62" font-family="Helvetica,sans-Serif" font-size="10.00">Index.hpp</text>
</a>
</g>
</g>
<!-- Node24&#45;&gt;Node25 -->
<g id="edge24" class="edge">
<title>Node24&#45;&gt;Node25</title>
<path fill="none" stroke="#63b8ff" d="M1446.5,-99.66C1446.5,-90.93 1446.5,-80.99 1446.5,-74.09"/>
<polygon fill="#63b8ff" stroke="#63b8ff" points="1443,-99.75 1446.5,-109.75 1450,-99.75 1443,-99.75"/>
</g>
<!-- Node26 -->
<g id="node26" class="node">
<title>Node26</title>
<g id="a_node26"><a xlink:href="_dll_main_8cpp.html" target="_top" xlink:title=" ">
<polygon fill="white" stroke="#666666" points="1480.5,-19 1412.5,-19 1412.5,0 1480.5,0 1480.5,-19"/>
<text text-anchor="middle" x="1446.5" y="-7" font-family="Helvetica,sans-Serif" font-size="10.00">DllMain.cpp</text>
</a>
</g>
</g>
<!-- Node25&#45;&gt;Node26 -->
<g id="edge25" class="edge">
<title>Node25&#45;&gt;Node26</title>
<path fill="none" stroke="#63b8ff" d="M1446.5,-44.66C1446.5,-35.93 1446.5,-25.99 1446.5,-19.09"/>
<polygon fill="#63b8ff" stroke="#63b8ff" points="1443,-44.75 1446.5,-54.75 1450,-44.75 1443,-44.75"/>
</g>
<!-- Node33&#45;&gt;Node2 -->
<g id="edge33" class="edge">
<title>Node33&#45;&gt;Node2</title>
<path fill="none" stroke="#63b8ff" d="M1343,-217.88C1390.24,-207.94 1459.89,-193.3 1503.69,-184.08"/>
<polygon fill="#63b8ff" stroke="#63b8ff" points="1342.05,-214.5 1332.99,-219.98 1343.49,-221.35 1342.05,-214.5"/>
</g>
<!-- Node33&#45;&gt;Node8 -->
<g id="edge34" class="edge">
<title>Node33&#45;&gt;Node8</title>
<path fill="none" stroke="#63b8ff" d="M1233.33,-225.87C1111.05,-220.21 821.67,-205.59 579.5,-184 368.26,-165.17 315.74,-156.87 105.5,-129 102.82,-128.65 100.07,-128.27 97.3,-127.88"/>
<polygon fill="#63b8ff" stroke="#63b8ff" points="1233.44,-229.38 1243.59,-226.35 1233.76,-222.39 1233.44,-229.38"/>
</g>
<!-- Node33&#45;&gt;Node31 -->
<g id="edge35" class="edge">
<title>Node33&#45;&gt;Node31</title>
<path fill="none" stroke="#63b8ff" d="M1233.86,-223.73C1073.7,-210.54 615.47,-171.71 235.5,-129 232.45,-128.66 229.31,-128.29 226.15,-127.91"/>
<polygon fill="#63b8ff" stroke="#63b8ff" points="1233.72,-227.23 1243.97,-224.56 1234.29,-220.25 1233.72,-227.23"/>
</g>
</g>
</svg>
