<?xml version="1.0" encoding="UTF-8" standalone="no"?>
<!DOCTYPE svg PUBLIC "-//W3C//DTD SVG 1.1//EN"
 "http://www.w3.org/Graphics/SVG/1.1/DTD/svg11.dtd">
<!-- Generated by graphviz version 2.43.0 (0)
 -->
<!-- Title: ReactionEntities.hpp Pages: 1 -->
<svg width="3737pt" height="302pt"
 viewBox="0.00 0.00 3736.50 302.00" xmlns="http://www.w3.org/2000/svg" xmlns:xlink="http://www.w3.org/1999/xlink">
<g id="graph0" class="graph" transform="scale(1 1) rotate(0) translate(4 298)">
<title>ReactionEntities.hpp</title>
<!-- Node1 -->
<g id="Node000001" class="node">
<title>Node1</title>
<g id="a_Node000001"><a xlink:title=" ">
<polygon fill="#999999" stroke="#666666" points="1714,-294 1597,-294 1597,-275 1714,-275 1714,-294"/>
<text text-anchor="middle" x="1655.5" y="-282" font-family="Helvetica,sans-Serif" font-size="10.00">ReactionEntities.hpp</text>
</a>
</g>
</g>
<!-- Node2 -->
<g id="Node000002" class="node">
<title>Node2</title>
<g id="a_Node000002"><a xlink:href="_discord_core_client_8hpp.html" target="_top" xlink:title=" ">
<polygon fill="white" stroke="#666666" points="1718,-184 1593,-184 1593,-165 1718,-165 1718,-184"/>
<text text-anchor="middle" x="1655.5" y="-172" font-family="Helvetica,sans-Serif" font-size="10.00">DiscordCoreClient.hpp</text>
</a>
</g>
</g>
<!-- Node1&#45;&gt;Node2 -->
<g id="edge1_Node000001_Node000002" class="edge">
<title>Node1&#45;&gt;Node2</title>
<g id="a_edge1_Node000001_Node000002"><a xlink:title=" ">
<path fill="none" stroke="#63b8ff" d="M1655.5,-264.48C1655.5,-240.84 1655.5,-201.5 1655.5,-184.16"/>
<polygon fill="#63b8ff" stroke="#63b8ff" points="1652,-264.66 1655.5,-274.66 1659,-264.66 1652,-264.66"/>
</a>
</g>
</g>
<!-- Node17 -->
<g id="Node000017" class="node">
<title>Node17</title>
<g id="a_Node000017"><a xlink:href="_reaction_entities_8cpp.html" target="_top" xlink:title=" ">
<polygon fill="white" stroke="#666666" points="3728.5,-129 3612.5,-129 3612.5,-110 3728.5,-110 3728.5,-129"/>
<text text-anchor="middle" x="3670.5" y="-117" font-family="Helvetica,sans-Serif" font-size="10.00">ReactionEntities.cpp</text>
</a>
</g>
</g>
<!-- Node1&#45;&gt;Node17 -->
<g id="edge36_Node000001_Node000017" class="edge">
<title>Node1&#45;&gt;Node17</title>
<g id="a_edge36_Node000001_Node000017"><a xlink:title=" ">
<path fill="none" stroke="#63b8ff" d="M1724.28,-279.27C1975.88,-263.54 2869.83,-205.38 3604.5,-129 3607.03,-128.74 3609.61,-128.46 3612.22,-128.16"/>
<polygon fill="#63b8ff" stroke="#63b8ff" points="1723.96,-275.79 1714.19,-279.9 1724.39,-282.77 1723.96,-275.79"/>
</a>
</g>
</g>
<!-- Node33 -->
<g id="Node000033" class="node">
<title>Node33</title>
<g id="a_Node000033"><a xlink:href="_event_manager_8hpp.html" target="_top" xlink:title=" ">
<polygon fill="white" stroke="#666666" points="1439,-239 1332,-239 1332,-220 1439,-220 1439,-239"/>
<text text-anchor="middle" x="1385.5" y="-227" font-family="Helvetica,sans-Serif" font-size="10.00">EventManager.hpp</text>
</a>
</g>
</g>
<!-- Node1&#45;&gt;Node33 -->
<g id="edge32_Node000001_Node000033" class="edge">
<title>Node1&#45;&gt;Node33</title>
<g id="a_edge32_Node000001_Node000033"><a xlink:title=" ">
<path fill="none" stroke="#63b8ff" d="M1602.02,-273C1551.41,-263.07 1476.35,-248.33 1429.22,-239.08"/>
<polygon fill="#63b8ff" stroke="#63b8ff" points="1601.63,-276.49 1612.12,-274.98 1602.98,-269.62 1601.63,-276.49"/>
</a>
</g>
</g>
<!-- Node3 -->
<g id="Node000003" class="node">
<title>Node3</title>
<g id="a_Node000003"><a xlink:href="_application_command_entities_8cpp.html" target="_top" xlink:title=" ">
<polygon fill="white" stroke="#666666" points="2379,-129 2200,-129 2200,-110 2379,-110 2379,-129"/>
<text text-anchor="middle" x="2289.5" y="-117" font-family="Helvetica,sans-Serif" font-size="10.00">ApplicationCommandEntities.cpp</text>
</a>
</g>
</g>
<!-- Node2&#45;&gt;Node3 -->
<g id="edge2_Node000002_Node000003" class="edge">
<title>Node2&#45;&gt;Node3</title>
<g id="a_edge2_Node000002_Node000003"><a xlink:title=" ">
<path fill="none" stroke="#63b8ff" d="M1728.07,-167.53C1830.96,-159.04 2025.12,-142.98 2190.5,-129 2193.59,-128.74 2196.74,-128.47 2199.92,-128.2"/>
<polygon fill="#63b8ff" stroke="#63b8ff" points="1727.78,-164.04 1718.1,-168.35 1728.36,-171.01 1727.78,-164.04"/>
</a>
</g>
</g>
<!-- Node4 -->
<g id="Node000004" class="node">
<title>Node4</title>
<g id="a_Node000004"><a xlink:href="_auto_moderation_entities_8cpp.html" target="_top" xlink:title=" ">
<polygon fill="white" stroke="#666666" points="2549.5,-129 2397.5,-129 2397.5,-110 2549.5,-110 2549.5,-129"/>
<text text-anchor="middle" x="2473.5" y="-117" font-family="Helvetica,sans-Serif" font-size="10.00">AutoModerationEntities.cpp</text>
</a>
</g>
</g>
<!-- Node2&#45;&gt;Node4 -->
<g id="edge3_Node000002_Node000004" class="edge">
<title>Node2&#45;&gt;Node4</title>
<g id="a_edge3_Node000002_Node000004"><a xlink:title=" ">
<path fill="none" stroke="#63b8ff" d="M1728.69,-170C1860.66,-163.49 2147.22,-148.38 2388.5,-129 2391.31,-128.77 2394.17,-128.54 2397.06,-128.29"/>
<polygon fill="#63b8ff" stroke="#63b8ff" points="1728.13,-166.53 1718.31,-170.51 1728.47,-173.52 1728.13,-166.53"/>
</a>
</g>
</g>
<!-- Node5 -->
<g id="Node000005" class="node">
<title>Node5</title>
<g id="a_Node000005"><a xlink:href="_channel_entities_8cpp.html" target="_top" xlink:title=" ">
<polygon fill="white" stroke="#666666" points="2681,-129 2568,-129 2568,-110 2681,-110 2681,-129"/>
<text text-anchor="middle" x="2624.5" y="-117" font-family="Helvetica,sans-Serif" font-size="10.00">ChannelEntities.cpp</text>
</a>
</g>
</g>
<!-- Node2&#45;&gt;Node5 -->
<g id="edge4_Node000002_Node000005" class="edge">
<title>Node2&#45;&gt;Node5</title>
<g id="a_edge4_Node000002_Node000005"><a xlink:title=" ">
<path fill="none" stroke="#63b8ff" d="M1728.26,-171.86C1881.89,-167.97 2250.54,-156.38 2558.5,-129 2561.49,-128.73 2564.56,-128.43 2567.65,-128.11"/>
<polygon fill="#63b8ff" stroke="#63b8ff" points="1727.93,-168.37 1718.02,-172.12 1728.1,-175.36 1727.93,-168.37"/>
</a>
</g>
</g>
<!-- Node6 -->
<g id="Node000006" class="node">
<title>Node6</title>
<g id="a_Node000006"><a xlink:href="_command_controller_8cpp.html" target="_top" xlink:title=" ">
<polygon fill="white" stroke="#666666" points="2833.5,-129 2699.5,-129 2699.5,-110 2833.5,-110 2833.5,-129"/>
<text text-anchor="middle" x="2766.5" y="-117" font-family="Helvetica,sans-Serif" font-size="10.00">CommandController.cpp</text>
</a>
</g>
</g>
<!-- Node2&#45;&gt;Node6 -->
<g id="edge5_Node000002_Node000006" class="edge">
<title>Node2&#45;&gt;Node6</title>
<g id="a_edge5_Node000002_Node000006"><a xlink:title=" ">
<path fill="none" stroke="#63b8ff" d="M1728.03,-172.09C1896.97,-168.42 2329.82,-156.89 2690.5,-129 2693.41,-128.77 2696.39,-128.53 2699.39,-128.26"/>
<polygon fill="#63b8ff" stroke="#63b8ff" points="1727.93,-168.59 1718.01,-172.3 1728.08,-175.59 1727.93,-168.59"/>
</a>
</g>
</g>
<!-- Node7 -->
<g id="Node000007" class="node">
<title>Node7</title>
<g id="a_Node000007"><a xlink:href="_discord_core_client_8cpp.html" target="_top" xlink:title=" ">
<polygon fill="white" stroke="#666666" points="2977,-129 2852,-129 2852,-110 2977,-110 2977,-129"/>
<text text-anchor="middle" x="2914.5" y="-117" font-family="Helvetica,sans-Serif" font-size="10.00">DiscordCoreClient.cpp</text>
</a>
</g>
</g>
<!-- Node2&#45;&gt;Node7 -->
<g id="edge6_Node000002_Node000007" class="edge">
<title>Node2&#45;&gt;Node7</title>
<g id="a_edge6_Node000002_Node000007"><a xlink:title=" ">
<path fill="none" stroke="#63b8ff" d="M1728.21,-172.8C1914.01,-170.56 2421.27,-161.71 2842.5,-129 2845.51,-128.77 2848.59,-128.5 2851.7,-128.21"/>
<polygon fill="#63b8ff" stroke="#63b8ff" points="1727.98,-169.3 1718.02,-172.92 1728.06,-176.3 1727.98,-169.3"/>
</a>
</g>
</g>
<!-- Node8 -->
<g id="Node000008" class="node">
<title>Node8</title>
<g id="a_Node000008"><a xlink:href="_event_manager_8cpp.html" target="_top" xlink:title=" ">
<polygon fill="white" stroke="#666666" points="107,-129 0,-129 0,-110 107,-110 107,-129"/>
<text text-anchor="middle" x="53.5" y="-117" font-family="Helvetica,sans-Serif" font-size="10.00">EventManager.cpp</text>
</a>
</g>
</g>
<!-- Node2&#45;&gt;Node8 -->
<g id="edge7_Node000002_Node000008" class="edge">
<title>Node2&#45;&gt;Node8</title>
<g id="a_edge7_Node000002_Node000008"><a xlink:title=" ">
<path fill="none" stroke="#63b8ff" d="M1582.4,-172.43C1317.16,-168.39 405.84,-153.03 115.5,-129 112.79,-128.78 110.02,-128.51 107.23,-128.23"/>
<polygon fill="#63b8ff" stroke="#63b8ff" points="1582.63,-175.93 1592.68,-172.59 1582.74,-168.93 1582.63,-175.93"/>
</a>
</g>
</g>
<!-- Node9 -->
<g id="Node000009" class="node">
<title>Node9</title>
<g id="a_Node000009"><a xlink:href="_foundation_entities_8cpp.html" target="_top" xlink:title=" ">
<polygon fill="white" stroke="#666666" points="3123.5,-129 2995.5,-129 2995.5,-110 3123.5,-110 3123.5,-129"/>
<text text-anchor="middle" x="3059.5" y="-117" font-family="Helvetica,sans-Serif" font-size="10.00">FoundationEntities.cpp</text>
</a>
</g>
</g>
<!-- Node2&#45;&gt;Node9 -->
<g id="edge8_Node000002_Node000009" class="edge">
<title>Node2&#45;&gt;Node9</title>
<g id="a_edge8_Node000002_Node000009"><a xlink:title=" ">
<path fill="none" stroke="#63b8ff" d="M1728.44,-173.17C1929.32,-171.81 2507.48,-164.83 2986.5,-129 2989.43,-128.78 2992.42,-128.53 2995.43,-128.26"/>
<polygon fill="#63b8ff" stroke="#63b8ff" points="1728.28,-169.67 1718.31,-173.24 1728.33,-176.67 1728.28,-169.67"/>
</a>
</g>
</g>
<!-- Node10 -->
<g id="Node000010" class="node">
<title>Node10</title>
<g id="a_Node000010"><a xlink:href="_guild_entities_8cpp.html" target="_top" xlink:title=" ">
<polygon fill="white" stroke="#666666" points="3241,-129 3142,-129 3142,-110 3241,-110 3241,-129"/>
<text text-anchor="middle" x="3191.5" y="-117" font-family="Helvetica,sans-Serif" font-size="10.00">GuildEntities.cpp</text>
</a>
</g>
</g>
<!-- Node2&#45;&gt;Node10 -->
<g id="edge9_Node000002_Node000010" class="edge">
<title>Node2&#45;&gt;Node10</title>
<g id="a_edge9_Node000002_Node000010"><a xlink:title=" ">
<path fill="none" stroke="#63b8ff" d="M1728.23,-172.4C1985.96,-168.32 2855.07,-153.09 3132.5,-129 3135.59,-128.73 3138.77,-128.41 3141.97,-128.05"/>
<polygon fill="#63b8ff" stroke="#63b8ff" points="1728.17,-168.9 1718.23,-172.56 1728.29,-175.9 1728.17,-168.9"/>
</a>
</g>
</g>
<!-- Node11 -->
<g id="Node000011" class="node">
<title>Node11</title>
<g id="a_Node000011"><a xlink:href="_guild_member_entities_8cpp.html" target="_top" xlink:title=" ">
<polygon fill="white" stroke="#666666" points="3399.5,-129 3259.5,-129 3259.5,-110 3399.5,-110 3399.5,-129"/>
<text text-anchor="middle" x="3329.5" y="-117" font-family="Helvetica,sans-Serif" font-size="10.00">GuildMemberEntities.cpp</text>
</a>
</g>
</g>
<!-- Node2&#45;&gt;Node11 -->
<g id="edge10_Node000002_Node000011" class="edge">
<title>Node2&#45;&gt;Node11</title>
<g id="a_edge10_Node000002_Node000011"><a xlink:title=" ">
<path fill="none" stroke="#63b8ff" d="M1728.36,-173.52C1954.48,-173.15 2664.24,-168.65 3250.5,-129 3253.39,-128.8 3256.34,-128.58 3259.31,-128.34"/>
<polygon fill="#63b8ff" stroke="#63b8ff" points="1728.28,-170.02 1718.28,-173.54 1728.29,-177.02 1728.28,-170.02"/>
</a>
</g>
</g>
<!-- Node12 -->
<g id="Node000012" class="node">
<title>Node12</title>
<g id="a_Node000012"><a xlink:href="_guild_scheduled_event_entities_8cpp.html" target="_top" xlink:title=" ">
<polygon fill="white" stroke="#666666" points="3595,-129 3418,-129 3418,-110 3595,-110 3595,-129"/>
<text text-anchor="middle" x="3506.5" y="-117" font-family="Helvetica,sans-Serif" font-size="10.00">GuildScheduledEventEntities.cpp</text>
</a>
</g>
</g>
<!-- Node2&#45;&gt;Node12 -->
<g id="edge11_Node000002_Node000012" class="edge">
<title>Node2&#45;&gt;Node12</title>
<g id="a_edge11_Node000002_Node000012"><a xlink:title=" ">
<path fill="none" stroke="#63b8ff" d="M1728.4,-173.24C1968.68,-172.06 2757.44,-165.46 3408.5,-129 3411.57,-128.83 3414.69,-128.64 3417.84,-128.43"/>
<polygon fill="#63b8ff" stroke="#63b8ff" points="1728.04,-169.75 1718.05,-173.29 1728.07,-176.75 1728.04,-169.75"/>
</a>
</g>
</g>
<!-- Node13 -->
<g id="Node000013" class="node">
<title>Node13</title>
<g id="a_Node000013"><a xlink:href="_https_client_8cpp.html" target="_top" xlink:title=" ">
<polygon fill="white" stroke="#666666" points="354.5,-129 262.5,-129 262.5,-110 354.5,-110 354.5,-129"/>
<text text-anchor="middle" x="308.5" y="-117" font-family="Helvetica,sans-Serif" font-size="10.00">HttpsClient.cpp</text>
</a>
</g>
</g>
<!-- Node2&#45;&gt;Node13 -->
<g id="edge12_Node000002_Node000013" class="edge">
<title>Node2&#45;&gt;Node13</title>
<g id="a_edge12_Node000002_Node000013"><a xlink:title=" ">
<path fill="none" stroke="#63b8ff" d="M1582.58,-172.1C1346.36,-167.4 603.65,-151.2 364.5,-129 361.27,-128.7 357.94,-128.34 354.59,-127.93"/>
<polygon fill="#63b8ff" stroke="#63b8ff" points="1582.71,-175.61 1592.78,-172.3 1582.85,-168.61 1582.71,-175.61"/>
</a>
</g>
</g>
<!-- Node14 -->
<g id="Node000014" class="node">
<title>Node14</title>
<g id="a_Node000014"><a xlink:href="_input_events_8cpp.html" target="_top" xlink:title=" ">
<polygon fill="white" stroke="#666666" points="468,-129 373,-129 373,-110 468,-110 468,-129"/>
<text text-anchor="middle" x="420.5" y="-117" font-family="Helvetica,sans-Serif" font-size="10.00">InputEvents.cpp</text>
</a>
</g>
</g>
<!-- Node2&#45;&gt;Node14 -->
<g id="edge13_Node000002_Node000014" class="edge">
<title>Node2&#45;&gt;Node14</title>
<g id="a_edge13_Node000002_Node000014"><a xlink:title=" ">
<path fill="none" stroke="#63b8ff" d="M1582.63,-171.8C1360.45,-166.46 693.64,-149.14 477.5,-129 474.41,-128.71 471.24,-128.37 468.04,-127.99"/>
<polygon fill="#63b8ff" stroke="#63b8ff" points="1582.78,-175.31 1592.87,-172.05 1582.95,-168.31 1582.78,-175.31"/>
</a>
</g>
</g>
<!-- Node15 -->
<g id="Node000015" class="node">
<title>Node15</title>
<g id="a_Node000015"><a xlink:href="_interaction_entities_8cpp.html" target="_top" xlink:title=" ">
<polygon fill="white" stroke="#666666" points="612.5,-129 486.5,-129 486.5,-110 612.5,-110 612.5,-129"/>
<text text-anchor="middle" x="549.5" y="-117" font-family="Helvetica,sans-Serif" font-size="10.00">InteractionEntities.cpp</text>
</a>
</g>
</g>
<!-- Node2&#45;&gt;Node15 -->
<g id="edge14_Node000002_Node000015" class="edge">
<title>Node2&#45;&gt;Node15</title>
<g id="a_edge14_Node000002_Node000015"><a xlink:title=" ">
<path fill="none" stroke="#63b8ff" d="M1582.8,-172.19C1413.94,-168.74 982.2,-157.65 622.5,-129 619.32,-128.75 616.07,-128.46 612.78,-128.15"/>
<polygon fill="#63b8ff" stroke="#63b8ff" points="1582.74,-175.69 1592.81,-172.39 1582.89,-168.69 1582.74,-175.69"/>
</a>
</g>
</g>
<!-- Node16 -->
<g id="Node000016" class="node">
<title>Node16</title>
<g id="a_Node000016"><a xlink:href="_message_entities_8cpp.html" target="_top" xlink:title=" ">
<polygon fill="white" stroke="#666666" points="748,-129 631,-129 631,-110 748,-110 748,-129"/>
<text text-anchor="middle" x="689.5" y="-117" font-family="Helvetica,sans-Serif" font-size="10.00">MessageEntities.cpp</text>
</a>
</g>
</g>
<!-- Node2&#45;&gt;Node16 -->
<g id="edge15_Node000002_Node000016" class="edge">
<title>Node2&#45;&gt;Node16</title>
<g id="a_edge15_Node000002_Node000016"><a xlink:title=" ">
<path fill="none" stroke="#63b8ff" d="M1582.58,-171.74C1429.48,-167.63 1063.42,-155.66 757.5,-129 754.42,-128.73 751.26,-128.43 748.08,-128.1"/>
<polygon fill="#63b8ff" stroke="#63b8ff" points="1582.7,-175.24 1592.79,-172.01 1582.89,-168.24 1582.7,-175.24"/>
</a>
</g>
</g>
<!-- Node2&#45;&gt;Node17 -->
<g id="edge16_Node000002_Node000017" class="edge">
<title>Node2&#45;&gt;Node17</title>
<g id="a_edge16_Node000002_Node000017"><a xlink:title=" ">
<path fill="none" stroke="#63b8ff" d="M1728.22,-172.87C2035.57,-170.03 3229.29,-157.37 3604.5,-129 3607.03,-128.81 3609.62,-128.59 3612.23,-128.34"/>
<polygon fill="#63b8ff" stroke="#63b8ff" points="1728.07,-169.37 1718.1,-172.96 1728.13,-176.37 1728.07,-169.37"/>
</a>
</g>
</g>
<!-- Node18 -->
<g id="Node000018" class="node">
<title>Node18</title>
<g id="a_Node000018"><a xlink:href="_role_entities_8cpp.html" target="_top" xlink:title=" ">
<polygon fill="white" stroke="#666666" points="861,-129 766,-129 766,-110 861,-110 861,-129"/>
<text text-anchor="middle" x="813.5" y="-117" font-family="Helvetica,sans-Serif" font-size="10.00">RoleEntities.cpp</text>
</a>
</g>
</g>
<!-- Node2&#45;&gt;Node18 -->
<g id="edge17_Node000002_Node000018" class="edge">
<title>Node2&#45;&gt;Node18</title>
<g id="a_edge17_Node000002_Node000018"><a xlink:title=" ">
<path fill="none" stroke="#63b8ff" d="M1582.67,-171.59C1443.83,-167.47 1131.81,-155.83 870.5,-129 867.41,-128.68 864.24,-128.32 861.04,-127.92"/>
<polygon fill="#63b8ff" stroke="#63b8ff" points="1582.67,-175.1 1592.77,-171.89 1582.87,-168.1 1582.67,-175.1"/>
</a>
</g>
</g>
<!-- Node19 -->
<g id="Node000019" class="node">
<title>Node19</title>
<g id="a_Node000019"><a xlink:href="_song_a_p_i_8cpp.html" target="_top" xlink:title=" ">
<polygon fill="white" stroke="#666666" points="956,-129 879,-129 879,-110 956,-110 956,-129"/>
<text text-anchor="middle" x="917.5" y="-117" font-family="Helvetica,sans-Serif" font-size="10.00">SongAPI.cpp</text>
</a>
</g>
</g>
<!-- Node2&#45;&gt;Node19 -->
<g id="edge18_Node000002_Node000019" class="edge">
<title>Node2&#45;&gt;Node19</title>
<g id="a_edge18_Node000002_Node000019"><a xlink:title=" ">
<path fill="none" stroke="#63b8ff" d="M1582.67,-171.46C1456.56,-167.33 1189.52,-155.97 965.5,-129 962.48,-128.64 959.35,-128.21 956.22,-127.74"/>
<polygon fill="#63b8ff" stroke="#63b8ff" points="1582.86,-174.96 1592.97,-171.79 1583.08,-167.97 1582.86,-174.96"/>
</a>
</g>
</g>
<!-- Node20 -->
<g id="Node000020" class="node">
<title>Node20</title>
<g id="a_Node000020"><a xlink:href="_sound_cloud_a_p_i_8cpp.html" target="_top" xlink:title=" ">
<polygon fill="white" stroke="#666666" points="1084.5,-129 974.5,-129 974.5,-110 1084.5,-110 1084.5,-129"/>
<text text-anchor="middle" x="1029.5" y="-117" font-family="Helvetica,sans-Serif" font-size="10.00">SoundCloudAPI.cpp</text>
</a>
</g>
</g>
<!-- Node2&#45;&gt;Node20 -->
<g id="edge19_Node000002_Node000020" class="edge">
<title>Node2&#45;&gt;Node20</title>
<g id="a_edge19_Node000002_Node000020"><a xlink:title=" ">
<path fill="none" stroke="#63b8ff" d="M1582.67,-168.91C1475.57,-161.89 1269.35,-147.36 1094.5,-129 1091.33,-128.67 1088.08,-128.31 1084.8,-127.93"/>
<polygon fill="#63b8ff" stroke="#63b8ff" points="1582.52,-172.41 1592.72,-169.57 1582.97,-165.42 1582.52,-172.41"/>
</a>
</g>
</g>
<!-- Node21 -->
<g id="Node000021" class="node">
<title>Node21</title>
<g id="a_Node000021"><a xlink:href="_stage_instance_entities_8cpp.html" target="_top" xlink:title=" ">
<polygon fill="white" stroke="#666666" points="1246,-129 1103,-129 1103,-110 1246,-110 1246,-129"/>
<text text-anchor="middle" x="1174.5" y="-117" font-family="Helvetica,sans-Serif" font-size="10.00">StageInstanceEntities.cpp</text>
</a>
</g>
</g>
<!-- Node2&#45;&gt;Node21 -->
<g id="edge20_Node000002_Node000021" class="edge">
<title>Node2&#45;&gt;Node21</title>
<g id="a_edge20_Node000002_Node000021"><a xlink:title=" ">
<path fill="none" stroke="#63b8ff" d="M1582.65,-165.47C1491.52,-155.43 1336.51,-138.35 1246.02,-128.38"/>
<polygon fill="#63b8ff" stroke="#63b8ff" points="1582.29,-168.95 1592.62,-166.57 1583.06,-162 1582.29,-168.95"/>
</a>
</g>
</g>
<!-- Node22 -->
<g id="Node000022" class="node">
<title>Node22</title>
<g id="a_Node000022"><a xlink:href="_sticker_entities_8cpp.html" target="_top" xlink:title=" ">
<polygon fill="white" stroke="#666666" points="1371,-129 1264,-129 1264,-110 1371,-110 1371,-129"/>
<text text-anchor="middle" x="1317.5" y="-117" font-family="Helvetica,sans-Serif" font-size="10.00">StickerEntities.cpp</text>
</a>
</g>
</g>
<!-- Node2&#45;&gt;Node22 -->
<g id="edge21_Node000002_Node000022" class="edge">
<title>Node2&#45;&gt;Node22</title>
<g id="a_edge21_Node000002_Node000022"><a xlink:title=" ">
<path fill="none" stroke="#63b8ff" d="M1591.25,-163.43C1527.49,-153.43 1430.88,-138.28 1371.11,-128.91"/>
<polygon fill="#63b8ff" stroke="#63b8ff" points="1590.77,-166.89 1601.19,-164.98 1591.86,-159.98 1590.77,-166.89"/>
</a>
</g>
</g>
<!-- Node23 -->
<g id="Node000023" class="node">
<title>Node23</title>
<g id="a_Node000023"><a xlink:href="_thread_entities_8cpp.html" target="_top" xlink:title=" ">
<polygon fill="white" stroke="#666666" points="1496,-129 1389,-129 1389,-110 1496,-110 1496,-129"/>
<text text-anchor="middle" x="1442.5" y="-117" font-family="Helvetica,sans-Serif" font-size="10.00">ThreadEntities.cpp</text>
</a>
</g>
</g>
<!-- Node2&#45;&gt;Node23 -->
<g id="edge22_Node000002_Node000023" class="edge">
<title>Node2&#45;&gt;Node23</title>
<g id="a_edge22_Node000002_Node000023"><a xlink:title=" ">
<path fill="none" stroke="#63b8ff" d="M1611.55,-162.56C1571.66,-152.64 1513.63,-138.2 1476.99,-129.08"/>
<polygon fill="#63b8ff" stroke="#63b8ff" points="1610.73,-165.97 1621.28,-164.98 1612.42,-159.17 1610.73,-165.97"/>
</a>
</g>
</g>
<!-- Node24 -->
<g id="Node000024" class="node">
<title>Node24</title>
<g id="a_Node000024"><a xlink:href="_to_entity_8hpp.html" target="_top" xlink:title=" ">
<polygon fill="white" stroke="#666666" points="1589,-129 1514,-129 1514,-110 1589,-110 1589,-129"/>
<text text-anchor="middle" x="1551.5" y="-117" font-family="Helvetica,sans-Serif" font-size="10.00">ToEntity.hpp</text>
</a>
</g>
</g>
<!-- Node2&#45;&gt;Node24 -->
<g id="edge23_Node000002_Node000024" class="edge">
<title>Node2&#45;&gt;Node24</title>
<g id="a_edge23_Node000002_Node000024"><a xlink:title=" ">
<path fill="none" stroke="#63b8ff" d="M1629.73,-160.37C1610.63,-150.63 1585.13,-137.64 1568.51,-129.17"/>
<polygon fill="#63b8ff" stroke="#63b8ff" points="1628.29,-163.56 1638.79,-164.98 1631.47,-157.33 1628.29,-163.56"/>
</a>
</g>
</g>
<!-- Node27 -->
<g id="Node000027" class="node">
<title>Node27</title>
<g id="a_Node000027"><a xlink:href="_user_entities_8cpp.html" target="_top" xlink:title=" ">
<polygon fill="white" stroke="#666666" points="1703.5,-129 1607.5,-129 1607.5,-110 1703.5,-110 1703.5,-129"/>
<text text-anchor="middle" x="1655.5" y="-117" font-family="Helvetica,sans-Serif" font-size="10.00">UserEntities.cpp</text>
</a>
</g>
</g>
<!-- Node2&#45;&gt;Node27 -->
<g id="edge26_Node000002_Node000027" class="edge">
<title>Node2&#45;&gt;Node27</title>
<g id="a_edge26_Node000002_Node000027"><a xlink:title=" ">
<path fill="none" stroke="#63b8ff" d="M1655.5,-154.66C1655.5,-145.93 1655.5,-135.99 1655.5,-129.09"/>
<polygon fill="#63b8ff" stroke="#63b8ff" points="1652,-154.75 1655.5,-164.75 1659,-154.75 1652,-154.75"/>
</a>
</g>
</g>
<!-- Node28 -->
<g id="Node000028" class="node">
<title>Node28</title>
<g id="a_Node000028"><a xlink:href="_utilities_8cpp.html" target="_top" xlink:title=" ">
<polygon fill="white" stroke="#666666" points="1797,-129 1722,-129 1722,-110 1797,-110 1797,-129"/>
<text text-anchor="middle" x="1759.5" y="-117" font-family="Helvetica,sans-Serif" font-size="10.00">Utilities.cpp</text>
</a>
</g>
</g>
<!-- Node2&#45;&gt;Node28 -->
<g id="edge27_Node000002_Node000028" class="edge">
<title>Node2&#45;&gt;Node28</title>
<g id="a_edge27_Node000002_Node000028"><a xlink:title=" ">
<path fill="none" stroke="#63b8ff" d="M1681.27,-160.37C1700.37,-150.63 1725.87,-137.64 1742.49,-129.17"/>
<polygon fill="#63b8ff" stroke="#63b8ff" points="1679.53,-157.33 1672.21,-164.98 1682.71,-163.56 1679.53,-157.33"/>
</a>
</g>
</g>
<!-- Node29 -->
<g id="Node000029" class="node">
<title>Node29</title>
<g id="a_Node000029"><a xlink:href="_voice_connection_8cpp.html" target="_top" xlink:title=" ">
<polygon fill="white" stroke="#666666" points="1933.5,-129 1815.5,-129 1815.5,-110 1933.5,-110 1933.5,-129"/>
<text text-anchor="middle" x="1874.5" y="-117" font-family="Helvetica,sans-Serif" font-size="10.00">VoiceConnection.cpp</text>
</a>
</g>
</g>
<!-- Node2&#45;&gt;Node29 -->
<g id="edge28_Node000002_Node000029" class="edge">
<title>Node2&#45;&gt;Node29</title>
<g id="a_edge28_Node000002_Node000029"><a xlink:title=" ">
<path fill="none" stroke="#63b8ff" d="M1700.43,-162.63C1741.45,-152.7 1801.29,-138.22 1839.04,-129.08"/>
<polygon fill="#63b8ff" stroke="#63b8ff" points="1699.58,-159.23 1690.69,-164.98 1701.23,-166.03 1699.58,-159.23"/>
</a>
</g>
</g>
<!-- Node30 -->
<g id="Node000030" class="node">
<title>Node30</title>
<g id="a_Node000030"><a xlink:href="_web_hook_entities_8cpp.html" target="_top" xlink:title=" ">
<polygon fill="white" stroke="#666666" points="2071.5,-129 1951.5,-129 1951.5,-110 2071.5,-110 2071.5,-129"/>
<text text-anchor="middle" x="2011.5" y="-117" font-family="Helvetica,sans-Serif" font-size="10.00">WebHookEntities.cpp</text>
</a>
</g>
</g>
<!-- Node2&#45;&gt;Node30 -->
<g id="edge29_Node000002_Node000030" class="edge">
<title>Node2&#45;&gt;Node30</title>
<g id="a_edge29_Node000002_Node000030"><a xlink:title=" ">
<path fill="none" stroke="#63b8ff" d="M1722.71,-163.49C1789.55,-153.54 1890.99,-138.44 1954.15,-129.04"/>
<polygon fill="#63b8ff" stroke="#63b8ff" points="1722.07,-160.05 1712.7,-164.98 1723.1,-166.97 1722.07,-160.05"/>
</a>
</g>
</g>
<!-- Node31 -->
<g id="Node000031" class="node">
<title>Node31</title>
<g id="a_Node000031"><a xlink:href="_web_socket_client_8cpp.html" target="_top" xlink:title=" ">
<polygon fill="white" stroke="#666666" points="244,-129 125,-129 125,-110 244,-110 244,-129"/>
<text text-anchor="middle" x="184.5" y="-117" font-family="Helvetica,sans-Serif" font-size="10.00">WebSocketClient.cpp</text>
</a>
</g>
</g>
<!-- Node2&#45;&gt;Node31 -->
<g id="edge30_Node000002_Node000031" class="edge">
<title>Node2&#45;&gt;Node31</title>
<g id="a_edge30_Node000002_Node000031"><a xlink:title=" ">
<path fill="none" stroke="#63b8ff" d="M1582.74,-172.07C1333.59,-167.02 515.73,-149.27 253.5,-129 250.49,-128.77 247.41,-128.5 244.31,-128.2"/>
<polygon fill="#63b8ff" stroke="#63b8ff" points="1582.7,-175.57 1592.77,-172.27 1582.84,-168.57 1582.7,-175.57"/>
</a>
</g>
</g>
<!-- Node32 -->
<g id="Node000032" class="node">
<title>Node32</title>
<g id="a_Node000032"><a xlink:href="_you_tube_a_p_i_8cpp.html" target="_top" xlink:title=" ">
<polygon fill="white" stroke="#666666" points="2181.5,-129 2089.5,-129 2089.5,-110 2181.5,-110 2181.5,-129"/>
<text text-anchor="middle" x="2135.5" y="-117" font-family="Helvetica,sans-Serif" font-size="10.00">YouTubeAPI.cpp</text>
</a>
</g>
</g>
<!-- Node2&#45;&gt;Node32 -->
<g id="edge31_Node000002_Node000032" class="edge">
<title>Node2&#45;&gt;Node32</title>
<g id="a_edge31_Node000002_Node000032"><a xlink:title=" ">
<path fill="none" stroke="#63b8ff" d="M1728.3,-166.97C1813.03,-159.12 1957.13,-144.98 2080.5,-129 2083.37,-128.63 2086.33,-128.23 2089.31,-127.81"/>
<polygon fill="#63b8ff" stroke="#63b8ff" points="1727.9,-163.49 1718.26,-167.9 1728.54,-170.46 1727.9,-163.49"/>
</a>
</g>
</g>
<!-- Node25 -->
<g id="Node000025" class="node">
<title>Node25</title>
<g id="a_Node000025"><a xlink:href="_index_8hpp.html" target="_top" xlink:title=" ">
<polygon fill="white" stroke="#666666" points="1584,-74 1519,-74 1519,-55 1584,-55 1584,-74"/>
<text text-anchor="middle" x="1551.5" y="-62" font-family="Helvetica,sans-Serif" font-size="10.00">Index.hpp</text>
</a>
</g>
</g>
<!-- Node24&#45;&gt;Node25 -->
<g id="edge24_Node000024_Node000025" class="edge">
<title>Node24&#45;&gt;Node25</title>
<g id="a_edge24_Node000024_Node000025"><a xlink:title=" ">
<path fill="none" stroke="#63b8ff" d="M1551.5,-99.66C1551.5,-90.93 1551.5,-80.99 1551.5,-74.09"/>
<polygon fill="#63b8ff" stroke="#63b8ff" points="1548,-99.75 1551.5,-109.75 1555,-99.75 1548,-99.75"/>
</a>
</g>
</g>
<!-- Node26 -->
<g id="Node000026" class="node">
<title>Node26</title>
<g id="a_Node000026"><a xlink:href="_dll_main_8cpp.html" target="_top" xlink:title=" ">
<polygon fill="white" stroke="#666666" points="1588.5,-19 1514.5,-19 1514.5,0 1588.5,0 1588.5,-19"/>
<text text-anchor="middle" x="1551.5" y="-7" font-family="Helvetica,sans-Serif" font-size="10.00">DllMain.cpp</text>
</a>
</g>
</g>
<!-- Node25&#45;&gt;Node26 -->
<g id="edge25_Node000025_Node000026" class="edge">
<title>Node25&#45;&gt;Node26</title>
<g id="a_edge25_Node000025_Node000026"><a xlink:title=" ">
<path fill="none" stroke="#63b8ff" d="M1551.5,-44.66C1551.5,-35.93 1551.5,-25.99 1551.5,-19.09"/>
<polygon fill="#63b8ff" stroke="#63b8ff" points="1548,-44.75 1551.5,-54.75 1555,-44.75 1548,-44.75"/>
</a>
</g>
</g>
<!-- Node33&#45;&gt;Node2 -->
<g id="edge33_Node000033_Node000002" class="edge">
<title>Node33&#45;&gt;Node2</title>
<g id="a_edge33_Node000033_Node000002"><a xlink:title=" ">
<path fill="none" stroke="#63b8ff" d="M1438.98,-218C1489.59,-208.07 1564.65,-193.33 1611.78,-184.08"/>
<polygon fill="#63b8ff" stroke="#63b8ff" points="1438.02,-214.62 1428.88,-219.98 1439.37,-221.49 1438.02,-214.62"/>
</a>
</g>
</g>
<!-- Node33&#45;&gt;Node8 -->
<g id="edge34_Node000033_Node000008" class="edge">
<title>Node33&#45;&gt;Node8</title>
<g id="a_edge34_Node000033_Node000008"><a xlink:title=" ">
<path fill="none" stroke="#63b8ff" d="M1321.52,-225.85C1190.3,-220.17 881.28,-205.57 622.5,-184 396.63,-165.17 340.47,-156.62 115.5,-129 112.8,-128.67 110.04,-128.32 107.26,-127.96"/>
<polygon fill="#63b8ff" stroke="#63b8ff" points="1321.64,-229.35 1331.78,-226.29 1321.94,-222.36 1321.64,-229.35"/>
</a>
</g>
</g>
<!-- Node33&#45;&gt;Node31 -->
<g id="edge35_Node000033_Node000031" class="edge">
<title>Node33&#45;&gt;Node31</title>
<g id="a_edge35_Node000033_Node000031"><a xlink:title=" ">
<path fill="none" stroke="#63b8ff" d="M1321.65,-223.67C1149.2,-210.47 659.67,-171.85 253.5,-129 250.5,-128.68 247.43,-128.35 244.32,-128"/>
<polygon fill="#63b8ff" stroke="#63b8ff" points="1321.58,-227.18 1331.82,-224.45 1322.11,-220.2 1321.58,-227.18"/>
</a>
</g>
</g>
</g>
</svg>
