<?xml version="1.0" encoding="UTF-8" standalone="no"?>
<!DOCTYPE svg PUBLIC "-//W3C//DTD SVG 1.1//EN"
 "http://www.w3.org/Graphics/SVG/1.1/DTD/svg11.dtd">
<!-- Generated by graphviz version 2.43.0 (0)
 -->
<!-- Title: RingBuffer.hpp Pages: 1 -->
<svg width="1945pt" height="148pt"
 viewBox="0.00 0.00 1945.00 148.00" xmlns="http://www.w3.org/2000/svg" xmlns:xlink="http://www.w3.org/1999/xlink">
<g id="graph0" class="graph" transform="scale(1 1) rotate(0) translate(4 144)">
<title>RingBuffer.hpp</title>
<!-- Node1 -->
<g id="Node000001" class="node">
<title>Node1</title>
<g id="a_Node000001"><a xlink:title=" ">
<polygon fill="#999999" stroke="#666666" points="973,-140 885,-140 885,-121 973,-121 973,-140"/>
<text text-anchor="middle" x="929" y="-128" font-family="Helvetica,sans-Serif" font-size="10.00">RingBuffer.hpp</text>
</a>
</g>
</g>
<!-- Node2 -->
<g id="Node000002" class="node">
<title>Node2</title>
<g id="a_Node000002"><a xlink:href="_base_8hpp.html" target="_top" xlink:title=" ">
<polygon fill="white" stroke="#666666" points="947.5,-85 818.5,-85 818.5,-55 947.5,-55 947.5,-85"/>
<text text-anchor="start" x="826.5" y="-73" font-family="Helvetica,sans-Serif" font-size="10.00">discordcoreapi/Utilities</text>
<text text-anchor="middle" x="883" y="-62" font-family="Helvetica,sans-Serif" font-size="10.00">/Base.hpp</text>
</a>
</g>
</g>
<!-- Node1&#45;&gt;Node2 -->
<g id="edge1_Node000001_Node000002" class="edge">
<title>Node1&#45;&gt;Node2</title>
<g id="a_edge1_Node000001_Node000002"><a xlink:title=" ">
<path fill="none" stroke="#63b8ff" d="M922.21,-120.87C916.49,-113.59 908.05,-102.85 900.46,-93.2"/>
<polygon fill="#63b8ff" stroke="#63b8ff" points="903.03,-90.81 894.1,-85.11 897.53,-95.14 903.03,-90.81"/>
</a>
</g>
</g>
<!-- Node6 -->
<g id="Node000006" class="node">
<title>Node6</title>
<g id="a_Node000006"><a xlink:title=" ">
<polygon fill="#e0e0e0" stroke="#999999" points="50,-19 0,-19 0,0 50,0 50,-19"/>
<text text-anchor="middle" x="25" y="-7" font-family="Helvetica,sans-Serif" font-size="10.00">cstdint</text>
</a>
</g>
</g>
<!-- Node1&#45;&gt;Node6 -->
<g id="edge29_Node000001_Node000006" class="edge">
<title>Node1&#45;&gt;Node6</title>
<g id="a_edge29_Node000001_Node000006"><a xlink:title=" ">
<path fill="none" stroke="#63b8ff" d="M884.63,-128.44C786.47,-125.59 543.69,-115.76 343,-85 238.84,-69.04 118.32,-36.99 60.09,-20.62"/>
<polygon fill="#63b8ff" stroke="#63b8ff" points="60.87,-17.21 50.29,-17.85 58.96,-23.94 60.87,-17.21"/>
</a>
</g>
</g>
<!-- Node7 -->
<g id="Node000007" class="node">
<title>Node7</title>
<g id="a_Node000007"><a xlink:title=" ">
<polygon fill="#e0e0e0" stroke="#999999" points="118,-19 68,-19 68,0 118,0 118,-19"/>
<text text-anchor="middle" x="93" y="-7" font-family="Helvetica,sans-Serif" font-size="10.00">cstring</text>
</a>
</g>
</g>
<!-- Node1&#45;&gt;Node7 -->
<g id="edge28_Node000001_Node000007" class="edge">
<title>Node1&#45;&gt;Node7</title>
<g id="a_edge28_Node000001_Node000007"><a xlink:title=" ">
<path fill="none" stroke="#63b8ff" d="M884.82,-125.11C764.61,-112.8 421.51,-75.27 128.16,-19.04"/>
<polygon fill="#63b8ff" stroke="#63b8ff" points="128.67,-15.57 118.18,-17.12 127.34,-22.45 128.67,-15.57"/>
</a>
</g>
</g>
<!-- Node20 -->
<g id="Node000020" class="node">
<title>Node20</title>
<g id="a_Node000020"><a xlink:title=" ">
<polygon fill="#e0e0e0" stroke="#999999" points="1876.5,-19 1829.5,-19 1829.5,0 1876.5,0 1876.5,-19"/>
<text text-anchor="middle" x="1853" y="-7" font-family="Helvetica,sans-Serif" font-size="10.00">vector</text>
</a>
</g>
</g>
<!-- Node1&#45;&gt;Node20 -->
<g id="edge30_Node000001_Node000020" class="edge">
<title>Node1&#45;&gt;Node20</title>
<g id="a_edge30_Node000001_Node000020"><a xlink:title=" ">
<path fill="none" stroke="#63b8ff" d="M934.24,-120.52C944.45,-104 968.77,-69.2 1000,-55 1080.59,-18.36 1692.38,-31.6 1819.2,-18.49"/>
<polygon fill="#63b8ff" stroke="#63b8ff" points="1819.84,-21.94 1829.33,-17.23 1818.97,-14.99 1819.84,-21.94"/>
</a>
</g>
</g>
<!-- Node27 -->
<g id="Node000027" class="node">
<title>Node27</title>
<g id="a_Node000027"><a xlink:title=" ">
<polygon fill="#e0e0e0" stroke="#999999" points="1937,-19 1895,-19 1895,0 1937,0 1937,-19"/>
<text text-anchor="middle" x="1916" y="-7" font-family="Helvetica,sans-Serif" font-size="10.00">array</text>
</a>
</g>
</g>
<!-- Node1&#45;&gt;Node27 -->
<g id="edge31_Node000001_Node000027" class="edge">
<title>Node1&#45;&gt;Node27</title>
<g id="a_edge31_Node000001_Node000027"><a xlink:title=" ">
<path fill="none" stroke="#63b8ff" d="M942.32,-120.87C955.76,-112.08 977.06,-97.93 995,-85 1012.74,-72.21 1013.45,-62.48 1034,-55 1209.12,8.72 1682.81,-47.12 1884.84,-18.67"/>
<polygon fill="#63b8ff" stroke="#63b8ff" points="1885.47,-22.12 1894.83,-17.16 1884.42,-15.2 1885.47,-22.12"/>
</a>
</g>
</g>
<!-- Node28 -->
<g id="Node000028" class="node">
<title>Node28</title>
<g id="a_Node000028"><a xlink:title=" ">
<polygon fill="#e0e0e0" stroke="#999999" points="1115.5,-79.5 1042.5,-79.5 1042.5,-60.5 1115.5,-60.5 1115.5,-79.5"/>
<text text-anchor="middle" x="1079" y="-67.5" font-family="Helvetica,sans-Serif" font-size="10.00">string_view</text>
</a>
</g>
</g>
<!-- Node1&#45;&gt;Node28 -->
<g id="edge27_Node000001_Node000028" class="edge">
<title>Node1&#45;&gt;Node28</title>
<g id="a_edge27_Node000001_Node000028"><a xlink:title=" ">
<path fill="none" stroke="#63b8ff" d="M950.81,-120.99C976.25,-111.07 1018.51,-94.59 1047.51,-83.28"/>
<polygon fill="#63b8ff" stroke="#63b8ff" points="1049.12,-86.41 1057.16,-79.52 1046.57,-79.89 1049.12,-86.41"/>
</a>
</g>
</g>
<!-- Node3 -->
<g id="Node000003" class="node">
<title>Node3</title>
<g id="a_Node000003"><a xlink:title=" ">
<polygon fill="#e0e0e0" stroke="#999999" points="830.5,-19 761.5,-19 761.5,0 830.5,0 830.5,-19"/>
<text text-anchor="middle" x="796" y="-7" font-family="Helvetica,sans-Serif" font-size="10.00">arpa/inet.h</text>
</a>
</g>
</g>
<!-- Node2&#45;&gt;Node3 -->
<g id="edge2_Node000002_Node000003" class="edge">
<title>Node2&#45;&gt;Node3</title>
<g id="a_edge2_Node000002_Node000003"><a xlink:title=" ">
<path fill="none" stroke="#63b8ff" d="M861.94,-54.84C848.46,-45.77 831.01,-34.04 817.45,-24.92"/>
<polygon fill="#63b8ff" stroke="#63b8ff" points="819.03,-21.77 808.78,-19.09 815.13,-27.58 819.03,-21.77"/>
</a>
</g>
</g>
<!-- Node4 -->
<g id="Node000004" class="node">
<title>Node4</title>
<g id="a_Node000004"><a xlink:title=" ">
<polygon fill="#e0e0e0" stroke="#999999" points="917,-19 849,-19 849,0 917,0 917,-19"/>
<text text-anchor="middle" x="883" y="-7" font-family="Helvetica,sans-Serif" font-size="10.00">sys/time.h</text>
</a>
</g>
</g>
<!-- Node2&#45;&gt;Node4 -->
<g id="edge3_Node000002_Node000004" class="edge">
<title>Node2&#45;&gt;Node4</title>
<g id="a_edge3_Node000002_Node000004"><a xlink:title=" ">
<path fill="none" stroke="#63b8ff" d="M883,-54.84C883,-47.21 883,-37.7 883,-29.45"/>
<polygon fill="#63b8ff" stroke="#63b8ff" points="886.5,-29.27 883,-19.27 879.5,-29.27 886.5,-29.27"/>
</a>
</g>
</g>
<!-- Node5 -->
<g id="Node000005" class="node">
<title>Node5</title>
<g id="a_Node000005"><a xlink:title=" ">
<polygon fill="#e0e0e0" stroke="#999999" points="998.5,-19 935.5,-19 935.5,0 998.5,0 998.5,-19"/>
<text text-anchor="middle" x="967" y="-7" font-family="Helvetica,sans-Serif" font-size="10.00">pthread.h</text>
</a>
</g>
</g>
<!-- Node2&#45;&gt;Node5 -->
<g id="edge4_Node000002_Node000005" class="edge">
<title>Node2&#45;&gt;Node5</title>
<g id="a_edge4_Node000002_Node000005"><a xlink:title=" ">
<path fill="none" stroke="#63b8ff" d="M903.33,-54.84C916.27,-45.83 932.99,-34.18 946.05,-25.09"/>
<polygon fill="#63b8ff" stroke="#63b8ff" points="948.21,-27.85 954.41,-19.27 944.21,-22.11 948.21,-27.85"/>
</a>
</g>
</g>
<!-- Node2&#45;&gt;Node6 -->
<g id="edge5_Node000002_Node000006" class="edge">
<title>Node2&#45;&gt;Node6</title>
<g id="a_edge5_Node000002_Node000006"><a xlink:title=" ">
<path fill="none" stroke="#63b8ff" d="M818.47,-69.11C680.64,-68.49 347.4,-62.34 60.34,-18.9"/>
<polygon fill="#63b8ff" stroke="#63b8ff" points="60.56,-15.39 50.15,-17.34 59.5,-22.31 60.56,-15.39"/>
</a>
</g>
</g>
<!-- Node2&#45;&gt;Node7 -->
<g id="edge6_Node000002_Node000007" class="edge">
<title>Node2&#45;&gt;Node7</title>
<g id="a_edge6_Node000002_Node000007"><a xlink:title=" ">
<path fill="none" stroke="#63b8ff" d="M818.21,-65.38C653.91,-56.12 227.54,-31.47 128.15,-18.74"/>
<polygon fill="#63b8ff" stroke="#63b8ff" points="128.54,-15.26 118.15,-17.32 127.56,-22.19 128.54,-15.26"/>
</a>
</g>
</g>
<!-- Node8 -->
<g id="Node000008" class="node">
<title>Node8</title>
<g id="a_Node000008"><a xlink:title=" ">
<polygon fill="#e0e0e0" stroke="#999999" points="1065,-19 1017,-19 1017,0 1065,0 1065,-19"/>
<text text-anchor="middle" x="1041" y="-7" font-family="Helvetica,sans-Serif" font-size="10.00">time.h</text>
</a>
</g>
</g>
<!-- Node2&#45;&gt;Node8 -->
<g id="edge7_Node000002_Node000008" class="edge">
<title>Node2&#45;&gt;Node8</title>
<g id="a_edge7_Node000002_Node000008"><a xlink:title=" ">
<path fill="none" stroke="#63b8ff" d="M920.84,-54.99C947.44,-45.14 982.67,-32.1 1008.1,-22.68"/>
<polygon fill="#63b8ff" stroke="#63b8ff" points="1009.5,-25.89 1017.67,-19.14 1007.07,-19.33 1009.5,-25.89"/>
</a>
</g>
</g>
<!-- Node9 -->
<g id="Node000009" class="node">
<title>Node9</title>
<g id="a_Node000009"><a xlink:title=" ">
<polygon fill="#e0e0e0" stroke="#999999" points="1127,-19 1083,-19 1083,0 1127,0 1127,-19"/>
<text text-anchor="middle" x="1105" y="-7" font-family="Helvetica,sans-Serif" font-size="10.00">ctime</text>
</a>
</g>
</g>
<!-- Node2&#45;&gt;Node9 -->
<g id="edge8_Node000002_Node000009" class="edge">
<title>Node2&#45;&gt;Node9</title>
<g id="a_edge8_Node000002_Node000009"><a xlink:title=" ">
<path fill="none" stroke="#63b8ff" d="M937.38,-54.94C973.31,-45.61 1021.69,-32.98 1073.03,-19.24"/>
<polygon fill="#63b8ff" stroke="#63b8ff" points="1074.24,-22.54 1082.99,-16.57 1072.43,-15.78 1074.24,-22.54"/>
</a>
</g>
</g>
<!-- Node10 -->
<g id="Node000010" class="node">
<title>Node10</title>
<g id="a_Node000010"><a xlink:title=" ">
<polygon fill="#e0e0e0" stroke="#999999" points="1252.5,-19 1145.5,-19 1145.5,0 1252.5,0 1252.5,-19"/>
<text text-anchor="middle" x="1199" y="-7" font-family="Helvetica,sans-Serif" font-size="10.00">jsonifier/Index.hpp</text>
</a>
</g>
</g>
<!-- Node2&#45;&gt;Node10 -->
<g id="edge9_Node000002_Node000010" class="edge">
<title>Node2&#45;&gt;Node10</title>
<g id="a_edge9_Node000002_Node000010"><a xlink:title=" ">
<path fill="none" stroke="#63b8ff" d="M947.71,-57.02C1005.17,-46.38 1088.26,-31 1142.94,-20.88"/>
<polygon fill="#63b8ff" stroke="#63b8ff" points="1143.61,-24.31 1152.81,-19.05 1142.34,-17.43 1143.61,-24.31"/>
</a>
</g>
</g>
<!-- Node11 -->
<g id="Node000011" class="node">
<title>Node11</title>
<g id="a_Node000011"><a xlink:title=" ">
<polygon fill="#e0e0e0" stroke="#999999" points="1363.5,-19 1270.5,-19 1270.5,0 1363.5,0 1363.5,-19"/>
<text text-anchor="middle" x="1317" y="-7" font-family="Helvetica,sans-Serif" font-size="10.00">source_location</text>
</a>
</g>
</g>
<!-- Node2&#45;&gt;Node11 -->
<g id="edge10_Node000002_Node000011" class="edge">
<title>Node2&#45;&gt;Node11</title>
<g id="a_edge10_Node000002_Node000011"><a xlink:title=" ">
<path fill="none" stroke="#63b8ff" d="M947.62,-57.24C952.48,-56.45 957.32,-55.7 962,-55 1091.59,-35.76 1127.23,-37.17 1260.05,-19.23"/>
<polygon fill="#63b8ff" stroke="#63b8ff" points="1260.77,-22.66 1270.21,-17.84 1259.83,-15.72 1260.77,-22.66"/>
</a>
</g>
</g>
<!-- Node12 -->
<g id="Node000012" class="node">
<title>Node12</title>
<g id="a_Node000012"><a xlink:title=" ">
<polygon fill="#e0e0e0" stroke="#999999" points="1468,-19 1382,-19 1382,0 1468,0 1468,-19"/>
<text text-anchor="middle" x="1425" y="-7" font-family="Helvetica,sans-Serif" font-size="10.00">shared_mutex</text>
</a>
</g>
</g>
<!-- Node2&#45;&gt;Node12 -->
<g id="edge11_Node000002_Node000012" class="edge">
<title>Node2&#45;&gt;Node12</title>
<g id="a_edge11_Node000002_Node000012"><a xlink:title=" ">
<path fill="none" stroke="#63b8ff" d="M947.6,-57.07C952.46,-56.32 957.3,-55.62 962,-55 1140.59,-31.4 1189.35,-41.44 1371.97,-19.03"/>
<polygon fill="#63b8ff" stroke="#63b8ff" points="1372.41,-22.5 1381.91,-17.8 1371.55,-15.56 1372.41,-22.5"/>
</a>
</g>
</g>
<!-- Node13 -->
<g id="Node000013" class="node">
<title>Node13</title>
<g id="a_Node000013"><a xlink:title=" ">
<polygon fill="#e0e0e0" stroke="#999999" points="1560,-19 1486,-19 1486,0 1560,0 1560,-19"/>
<text text-anchor="middle" x="1523" y="-7" font-family="Helvetica,sans-Serif" font-size="10.00">immintrin.h</text>
</a>
</g>
</g>
<!-- Node2&#45;&gt;Node13 -->
<g id="edge12_Node000002_Node000013" class="edge">
<title>Node2&#45;&gt;Node13</title>
<g id="a_edge12_Node000002_Node000013"><a xlink:title=" ">
<path fill="none" stroke="#63b8ff" d="M947.59,-56.98C952.45,-56.25 957.3,-55.58 962,-55 1186.5,-27.34 1247.66,-47.31 1475.96,-18.98"/>
<polygon fill="#63b8ff" stroke="#63b8ff" points="1476.41,-22.45 1485.9,-17.73 1475.54,-15.5 1476.41,-22.45"/>
</a>
</g>
</g>
<!-- Node14 -->
<g id="Node000014" class="node">
<title>Node14</title>
<g id="a_Node000014"><a xlink:title=" ">
<polygon fill="#e0e0e0" stroke="#999999" points="1643.5,-19 1578.5,-19 1578.5,0 1643.5,0 1643.5,-19"/>
<text text-anchor="middle" x="1611" y="-7" font-family="Helvetica,sans-Serif" font-size="10.00">functional</text>
</a>
</g>
</g>
<!-- Node2&#45;&gt;Node14 -->
<g id="edge13_Node000002_Node000014" class="edge">
<title>Node2&#45;&gt;Node14</title>
<g id="a_edge13_Node000002_Node000014"><a xlink:title=" ">
<path fill="none" stroke="#63b8ff" d="M947.58,-56.93C952.45,-56.21 957.3,-55.55 962,-55 1227.12,-23.75 1299.26,-53.15 1568,-18.92"/>
<polygon fill="#63b8ff" stroke="#63b8ff" points="1568.59,-22.37 1578.06,-17.62 1567.69,-15.43 1568.59,-22.37"/>
</a>
</g>
</g>
<!-- Node15 -->
<g id="Node000015" class="node">
<title>Node15</title>
<g id="a_Node000015"><a xlink:title=" ">
<polygon fill="#e0e0e0" stroke="#999999" points="1732.5,-19 1661.5,-19 1661.5,0 1732.5,0 1732.5,-19"/>
<text text-anchor="middle" x="1697" y="-7" font-family="Helvetica,sans-Serif" font-size="10.00">semaphore</text>
</a>
</g>
</g>
<!-- Node2&#45;&gt;Node15 -->
<g id="edge14_Node000002_Node000015" class="edge">
<title>Node2&#45;&gt;Node15</title>
<g id="a_edge14_Node000002_Node000015"><a xlink:title=" ">
<path fill="none" stroke="#63b8ff" d="M947.57,-56.89C952.45,-56.18 957.29,-55.54 962,-55 1264.26,-20.48 1345.99,-55.49 1651.03,-19.08"/>
<polygon fill="#63b8ff" stroke="#63b8ff" points="1651.54,-22.54 1661.05,-17.87 1650.7,-15.59 1651.54,-22.54"/>
</a>
</g>
</g>
<!-- Node16 -->
<g id="Node000016" class="node">
<title>Node16</title>
<g id="a_Node000016"><a xlink:title=" ">
<polygon fill="#e0e0e0" stroke="#999999" points="1811,-19 1751,-19 1751,0 1811,0 1811,-19"/>
<text text-anchor="middle" x="1781" y="-7" font-family="Helvetica,sans-Serif" font-size="10.00">concepts</text>
</a>
</g>
</g>
<!-- Node2&#45;&gt;Node16 -->
<g id="edge15_Node000002_Node000016" class="edge">
<title>Node2&#45;&gt;Node16</title>
<g id="a_edge15_Node000002_Node000016"><a xlink:title=" ">
<path fill="none" stroke="#63b8ff" d="M947.57,-56.86C952.44,-56.15 957.29,-55.52 962,-55 1303.63,-17.01 1396.15,-63.21 1740.84,-18.9"/>
<polygon fill="#63b8ff" stroke="#63b8ff" points="1741.39,-22.36 1750.85,-17.6 1740.49,-15.42 1741.39,-22.36"/>
</a>
</g>
</g>
<!-- Node17 -->
<g id="Node000017" class="node">
<title>Node17</title>
<g id="a_Node000017"><a xlink:title=" ">
<polygon fill="#e0e0e0" stroke="#999999" points="196,-19 136,-19 136,0 196,0 196,-19"/>
<text text-anchor="middle" x="166" y="-7" font-family="Helvetica,sans-Serif" font-size="10.00">iostream</text>
</a>
</g>
</g>
<!-- Node2&#45;&gt;Node17 -->
<g id="edge16_Node000002_Node000017" class="edge">
<title>Node2&#45;&gt;Node17</title>
<g id="a_edge16_Node000002_Node000017"><a xlink:title=" ">
<path fill="none" stroke="#63b8ff" d="M818.27,-65.4C676.23,-57.3 339.9,-37.08 206.19,-18.93"/>
<polygon fill="#63b8ff" stroke="#63b8ff" points="206.55,-15.44 196.16,-17.51 205.57,-22.37 206.55,-15.44"/>
</a>
</g>
</g>
<!-- Node18 -->
<g id="Node000018" class="node">
<title>Node18</title>
<g id="a_Node000018"><a xlink:title=" ">
<polygon fill="#e0e0e0" stroke="#999999" points="270,-19 214,-19 214,0 270,0 270,-19"/>
<text text-anchor="middle" x="242" y="-7" font-family="Helvetica,sans-Serif" font-size="10.00">sstream</text>
</a>
</g>
</g>
<!-- Node2&#45;&gt;Node18 -->
<g id="edge17_Node000002_Node000018" class="edge">
<title>Node2&#45;&gt;Node18</title>
<g id="a_edge17_Node000002_Node000018"><a xlink:title=" ">
<path fill="none" stroke="#63b8ff" d="M818.37,-64.83C688.44,-56.25 398.57,-36.12 280.11,-18.91"/>
<polygon fill="#63b8ff" stroke="#63b8ff" points="280.61,-15.45 270.2,-17.42 279.57,-22.37 280.61,-15.45"/>
</a>
</g>
</g>
<!-- Node19 -->
<g id="Node000019" class="node">
<title>Node19</title>
<g id="a_Node000019"><a xlink:title=" ">
<polygon fill="#e0e0e0" stroke="#999999" points="344,-19 288,-19 288,0 344,0 344,-19"/>
<text text-anchor="middle" x="316" y="-7" font-family="Helvetica,sans-Serif" font-size="10.00">iomanip</text>
</a>
</g>
</g>
<!-- Node2&#45;&gt;Node19 -->
<g id="edge18_Node000002_Node000019" class="edge">
<title>Node2&#45;&gt;Node19</title>
<g id="a_edge18_Node000002_Node000019"><a xlink:title=" ">
<path fill="none" stroke="#63b8ff" d="M818.2,-65.64C719.88,-59.95 527.04,-46.39 354.25,-18.99"/>
<polygon fill="#63b8ff" stroke="#63b8ff" points="354.63,-15.51 344.21,-17.38 353.53,-22.42 354.63,-15.51"/>
</a>
</g>
</g>
<!-- Node2&#45;&gt;Node20 -->
<g id="edge19_Node000002_Node000020" class="edge">
<title>Node2&#45;&gt;Node20</title>
<g id="a_edge19_Node000002_Node000020"><a xlink:title=" ">
<path fill="none" stroke="#63b8ff" d="M947.57,-56.83C952.44,-56.14 957.29,-55.51 962,-55 1338.08,-13.97 1440.65,-73.84 1819.19,-18.73"/>
<polygon fill="#63b8ff" stroke="#63b8ff" points="1819.95,-22.15 1829.33,-17.23 1818.93,-15.23 1819.95,-22.15"/>
</a>
</g>
</g>
<!-- Node21 -->
<g id="Node000021" class="node">
<title>Node21</title>
<g id="a_Node000021"><a xlink:title=" ">
<polygon fill="#e0e0e0" stroke="#999999" points="412,-19 362,-19 362,0 412,0 412,-19"/>
<text text-anchor="middle" x="387" y="-7" font-family="Helvetica,sans-Serif" font-size="10.00">atomic</text>
</a>
</g>
</g>
<!-- Node2&#45;&gt;Node21 -->
<g id="edge20_Node000002_Node000021" class="edge">
<title>Node2&#45;&gt;Node21</title>
<g id="a_edge20_Node000002_Node000021"><a xlink:title=" ">
<path fill="none" stroke="#63b8ff" d="M818.33,-64.81C730.64,-58.51 569.05,-44.7 422.26,-18.99"/>
<polygon fill="#63b8ff" stroke="#63b8ff" points="422.63,-15.5 412.17,-17.2 421.4,-22.39 422.63,-15.5"/>
</a>
</g>
</g>
<!-- Node22 -->
<g id="Node000022" class="node">
<title>Node22</title>
<g id="a_Node000022"><a xlink:title=" ">
<polygon fill="#e0e0e0" stroke="#999999" points="484,-19 430,-19 430,0 484,0 484,-19"/>
<text text-anchor="middle" x="457" y="-7" font-family="Helvetica,sans-Serif" font-size="10.00">random</text>
</a>
</g>
</g>
<!-- Node2&#45;&gt;Node22 -->
<g id="edge21_Node000002_Node000022" class="edge">
<title>Node2&#45;&gt;Node22</title>
<g id="a_edge21_Node000002_Node000022"><a xlink:title=" ">
<path fill="none" stroke="#63b8ff" d="M818.16,-62.78C742.63,-55.07 613.95,-40.47 494.14,-19.03"/>
<polygon fill="#63b8ff" stroke="#63b8ff" points="494.53,-15.55 484.06,-17.21 493.28,-22.43 494.53,-15.55"/>
</a>
</g>
</g>
<!-- Node23 -->
<g id="Node000023" class="node">
<title>Node23</title>
<g id="a_Node000023"><a xlink:title=" ">
<polygon fill="#e0e0e0" stroke="#999999" points="546,-19 502,-19 502,0 546,0 546,-19"/>
<text text-anchor="middle" x="524" y="-7" font-family="Helvetica,sans-Serif" font-size="10.00">string</text>
</a>
</g>
</g>
<!-- Node2&#45;&gt;Node23 -->
<g id="edge22_Node000002_Node000023" class="edge">
<title>Node2&#45;&gt;Node23</title>
<g id="a_edge22_Node000002_Node000023"><a xlink:title=" ">
<path fill="none" stroke="#63b8ff" d="M818.49,-61.42C754.26,-53.36 652.73,-39.26 556.2,-19.05"/>
<polygon fill="#63b8ff" stroke="#63b8ff" points="556.78,-15.59 546.28,-16.94 555.33,-22.44 556.78,-15.59"/>
</a>
</g>
</g>
<!-- Node24 -->
<g id="Node000024" class="node">
<title>Node24</title>
<g id="a_Node000024"><a xlink:title=" ">
<polygon fill="#e0e0e0" stroke="#999999" points="612,-19 564,-19 564,0 612,0 612,-19"/>
<text text-anchor="middle" x="588" y="-7" font-family="Helvetica,sans-Serif" font-size="10.00">thread</text>
</a>
</g>
</g>
<!-- Node2&#45;&gt;Node24 -->
<g id="edge23_Node000002_Node000024" class="edge">
<title>Node2&#45;&gt;Node24</title>
<g id="a_edge23_Node000002_Node000024"><a xlink:title=" ">
<path fill="none" stroke="#63b8ff" d="M818.43,-57.86C767.54,-48.8 694.59,-35.23 621.9,-19.09"/>
<polygon fill="#63b8ff" stroke="#63b8ff" points="622.63,-15.67 612.11,-16.9 621.1,-22.5 622.63,-15.67"/>
</a>
</g>
</g>
<!-- Node25 -->
<g id="Node000025" class="node">
<title>Node25</title>
<g id="a_Node000025"><a xlink:title=" ">
<polygon fill="#e0e0e0" stroke="#999999" points="678,-19 630,-19 630,0 678,0 678,-19"/>
<text text-anchor="middle" x="654" y="-7" font-family="Helvetica,sans-Serif" font-size="10.00">mutex</text>
</a>
</g>
</g>
<!-- Node2&#45;&gt;Node25 -->
<g id="edge24_Node000002_Node000025" class="edge">
<title>Node2&#45;&gt;Node25</title>
<g id="a_edge24_Node000002_Node000025"><a xlink:title=" ">
<path fill="none" stroke="#63b8ff" d="M827.65,-54.92C790.69,-45.5 740.72,-32.76 688.02,-19.26"/>
<polygon fill="#63b8ff" stroke="#63b8ff" points="688.7,-15.82 678.15,-16.73 686.97,-22.6 688.7,-15.82"/>
</a>
</g>
</g>
<!-- Node26 -->
<g id="Node000026" class="node">
<title>Node26</title>
<g id="a_Node000026"><a xlink:title=" ">
<polygon fill="#e0e0e0" stroke="#999999" points="743.5,-19 696.5,-19 696.5,0 743.5,0 743.5,-19"/>
<text text-anchor="middle" x="720" y="-7" font-family="Helvetica,sans-Serif" font-size="10.00">queue</text>
</a>
</g>
</g>
<!-- Node2&#45;&gt;Node26 -->
<g id="edge25_Node000002_Node000026" class="edge">
<title>Node2&#45;&gt;Node26</title>
<g id="a_edge25_Node000002_Node000026"><a xlink:title=" ">
<path fill="none" stroke="#63b8ff" d="M843.96,-54.99C816.23,-45.04 779.41,-31.82 753.12,-22.39"/>
<polygon fill="#63b8ff" stroke="#63b8ff" points="754.19,-19.05 743.6,-18.97 751.83,-25.64 754.19,-19.05"/>
</a>
</g>
</g>
<!-- Node2&#45;&gt;Node27 -->
<g id="edge26_Node000002_Node000027" class="edge">
<title>Node2&#45;&gt;Node27</title>
<g id="a_edge26_Node000002_Node000027"><a xlink:title=" ">
<path fill="none" stroke="#63b8ff" d="M947.58,-60.35C964.61,-58.33 982.97,-56.36 1000,-55 1389.49,-23.83 1495.03,-80.17 1884.69,-18.78"/>
<polygon fill="#63b8ff" stroke="#63b8ff" points="1885.51,-22.19 1894.83,-17.16 1884.41,-15.28 1885.51,-22.19"/>
</a>
</g>
</g>
</g>
</svg>
