<?xml version="1.0" encoding="UTF-8" standalone="no"?>
<!DOCTYPE svg PUBLIC "-//W3C//DTD SVG 1.1//EN"
 "http://www.w3.org/Graphics/SVG/1.1/DTD/svg11.dtd">
<!-- Generated by graphviz version 2.43.0 (0)
 -->
<!-- Title: RoleEntities.hpp Pages: 1 -->
<svg width="3735pt" height="357pt"
 viewBox="0.00 0.00 3735.00 357.00" xmlns="http://www.w3.org/2000/svg" xmlns:xlink="http://www.w3.org/1999/xlink">
<g id="graph0" class="graph" transform="scale(1 1) rotate(0) translate(4 353)">
<title>RoleEntities.hpp</title>
<!-- Node1 -->
<g id="Node000001" class="node">
<title>Node1</title>
<g id="a_Node000001"><a xlink:title=" ">
<polygon fill="#999999" stroke="#666666" points="1766.5,-349 1670.5,-349 1670.5,-330 1766.5,-330 1766.5,-349"/>
<text text-anchor="middle" x="1718.5" y="-337" font-family="Helvetica,sans-Serif" font-size="10.00">RoleEntities.hpp</text>
</a>
</g>
</g>
<!-- Node2 -->
<g id="Node000002" class="node">
<title>Node2</title>
<g id="a_Node000002"><a xlink:href="_discord_core_client_8hpp.html" target="_top" xlink:title=" ">
<polygon fill="white" stroke="#666666" points="1781,-184 1656,-184 1656,-165 1781,-165 1781,-184"/>
<text text-anchor="middle" x="1718.5" y="-172" font-family="Helvetica,sans-Serif" font-size="10.00">DiscordCoreClient.hpp</text>
</a>
</g>
</g>
<!-- Node1&#45;&gt;Node2 -->
<g id="edge1_Node000001_Node000002" class="edge">
<title>Node1&#45;&gt;Node2</title>
<g id="a_edge1_Node000001_Node000002"><a xlink:title=" ">
<path fill="none" stroke="#63b8ff" d="M1718.5,-319.37C1718.5,-284.03 1718.5,-209.79 1718.5,-184.31"/>
<polygon fill="#63b8ff" stroke="#63b8ff" points="1715,-319.74 1718.5,-329.74 1722,-319.74 1715,-319.74"/>
</a>
</g>
</g>
<!-- Node9 -->
<g id="Node000009" class="node">
<title>Node9</title>
<g id="a_Node000009"><a xlink:href="_foundation_entities_8cpp.html" target="_top" xlink:title=" ">
<polygon fill="white" stroke="#666666" points="3633.5,-129 3505.5,-129 3505.5,-110 3633.5,-110 3633.5,-129"/>
<text text-anchor="middle" x="3569.5" y="-117" font-family="Helvetica,sans-Serif" font-size="10.00">FoundationEntities.cpp</text>
</a>
</g>
</g>
<!-- Node1&#45;&gt;Node9 -->
<g id="edge36_Node000001_Node000009" class="edge">
<title>Node1&#45;&gt;Node9</title>
<g id="a_edge36_Node000001_Node000009"><a xlink:title=" ">
<path fill="none" stroke="#63b8ff" d="M1776.75,-331.64C2051.68,-299.26 3218.25,-161.87 3505.43,-128.05"/>
<polygon fill="#63b8ff" stroke="#63b8ff" points="1776.11,-328.19 1766.59,-332.84 1776.93,-335.14 1776.11,-328.19"/>
</a>
</g>
</g>
<!-- Node10 -->
<g id="Node000010" class="node">
<title>Node10</title>
<g id="a_Node000010"><a xlink:href="_guild_entities_8cpp.html" target="_top" xlink:title=" ">
<polygon fill="white" stroke="#666666" points="212,-129 113,-129 113,-110 212,-110 212,-129"/>
<text text-anchor="middle" x="162.5" y="-117" font-family="Helvetica,sans-Serif" font-size="10.00">GuildEntities.cpp</text>
</a>
</g>
</g>
<!-- Node1&#45;&gt;Node10 -->
<g id="edge37_Node000001_Node000010" class="edge">
<title>Node1&#45;&gt;Node10</title>
<g id="a_edge37_Node000001_Node000010"><a xlink:title=" ">
<path fill="none" stroke="#63b8ff" d="M1660.35,-330.45C1460.26,-302.72 781.74,-208.56 221.5,-129 218.43,-128.56 215.26,-128.11 212.07,-127.66"/>
<polygon fill="#63b8ff" stroke="#63b8ff" points="1659.96,-333.93 1670.34,-331.83 1660.92,-326.99 1659.96,-333.93"/>
</a>
</g>
</g>
<!-- Node18 -->
<g id="Node000018" class="node">
<title>Node18</title>
<g id="a_Node000018"><a xlink:href="_role_entities_8cpp.html" target="_top" xlink:title=" ">
<polygon fill="white" stroke="#666666" points="95,-129 0,-129 0,-110 95,-110 95,-129"/>
<text text-anchor="middle" x="47.5" y="-117" font-family="Helvetica,sans-Serif" font-size="10.00">RoleEntities.cpp</text>
</a>
</g>
</g>
<!-- Node1&#45;&gt;Node18 -->
<g id="edge45_Node000001_Node000018" class="edge">
<title>Node1&#45;&gt;Node18</title>
<g id="a_edge45_Node000001_Node000018"><a xlink:title=" ">
<path fill="none" stroke="#63b8ff" d="M1660.25,-333.42C1575.02,-325.83 1411.34,-310.61 1272.5,-294 812.89,-239.01 259.02,-153.66 95.27,-128.02"/>
<polygon fill="#63b8ff" stroke="#63b8ff" points="1659.98,-336.91 1670.25,-334.31 1660.6,-329.94 1659.98,-336.91"/>
</a>
</g>
</g>
<!-- Node28 -->
<g id="Node000028" class="node">
<title>Node28</title>
<g id="a_Node000028"><a xlink:href="_utilities_8cpp.html" target="_top" xlink:title=" ">
<polygon fill="white" stroke="#666666" points="3727,-129 3652,-129 3652,-110 3727,-110 3727,-129"/>
<text text-anchor="middle" x="3689.5" y="-117" font-family="Helvetica,sans-Serif" font-size="10.00">Utilities.cpp</text>
</a>
</g>
</g>
<!-- Node1&#45;&gt;Node28 -->
<g id="edge46_Node000001_Node000028" class="edge">
<title>Node1&#45;&gt;Node28</title>
<g id="a_edge46_Node000001_Node000028"><a xlink:title=" ">
<path fill="none" stroke="#63b8ff" d="M1776.72,-333.52C1867.22,-325.69 2047.09,-309.76 2199.5,-294 2841.59,-227.6 3003.89,-223.16 3642.5,-129 3645.54,-128.55 3648.67,-128.06 3651.83,-127.54"/>
<polygon fill="#63b8ff" stroke="#63b8ff" points="1776.33,-330.04 1766.67,-334.39 1776.93,-337.02 1776.33,-330.04"/>
</a>
</g>
</g>
<!-- Node33 -->
<g id="Node000033" class="node">
<title>Node33</title>
<g id="a_Node000033"><a xlink:href="_event_manager_8hpp.html" target="_top" xlink:title=" ">
<polygon fill="white" stroke="#666666" points="1690,-239 1583,-239 1583,-220 1690,-220 1690,-239"/>
<text text-anchor="middle" x="1636.5" y="-227" font-family="Helvetica,sans-Serif" font-size="10.00">EventManager.hpp</text>
</a>
</g>
</g>
<!-- Node1&#45;&gt;Node33 -->
<g id="edge32_Node000001_Node000033" class="edge">
<title>Node1&#45;&gt;Node33</title>
<g id="a_edge32_Node000001_Node000033"><a xlink:title=" ">
<path fill="none" stroke="#63b8ff" d="M1705.74,-321.69C1688.03,-298.37 1656.66,-257.05 1643.07,-239.16"/>
<polygon fill="#63b8ff" stroke="#63b8ff" points="1702.95,-323.81 1711.79,-329.66 1708.53,-319.58 1702.95,-323.81"/>
</a>
</g>
</g>
<!-- Node34 -->
<g id="Node000034" class="node">
<title>Node34</title>
<g id="a_Node000034"><a xlink:href="_guild_entities_8hpp.html" target="_top" xlink:title=" ">
<polygon fill="white" stroke="#666666" points="1846.5,-294 1746.5,-294 1746.5,-275 1846.5,-275 1846.5,-294"/>
<text text-anchor="middle" x="1796.5" y="-282" font-family="Helvetica,sans-Serif" font-size="10.00">GuildEntities.hpp</text>
</a>
</g>
</g>
<!-- Node1&#45;&gt;Node34 -->
<g id="edge38_Node000001_Node000034" class="edge">
<title>Node1&#45;&gt;Node34</title>
<g id="a_edge38_Node000001_Node000034"><a xlink:title=" ">
<path fill="none" stroke="#63b8ff" d="M1739.62,-324.15C1753.71,-314.57 1771.79,-302.29 1783.74,-294.17"/>
<polygon fill="#63b8ff" stroke="#63b8ff" points="1737.34,-321.47 1731.03,-329.98 1741.27,-327.26 1737.34,-321.47"/>
</a>
</g>
</g>
<!-- Node3 -->
<g id="Node000003" class="node">
<title>Node3</title>
<g id="a_Node000003"><a xlink:href="_application_command_entities_8cpp.html" target="_top" xlink:title=" ">
<polygon fill="white" stroke="#666666" points="2168,-129 1989,-129 1989,-110 2168,-110 2168,-129"/>
<text text-anchor="middle" x="2078.5" y="-117" font-family="Helvetica,sans-Serif" font-size="10.00">ApplicationCommandEntities.cpp</text>
</a>
</g>
</g>
<!-- Node2&#45;&gt;Node3 -->
<g id="edge2_Node000002_Node000003" class="edge">
<title>Node2&#45;&gt;Node3</title>
<g id="a_edge2_Node000002_Node000003"><a xlink:title=" ">
<path fill="none" stroke="#63b8ff" d="M1786.46,-163.49C1854.05,-153.54 1956.64,-138.44 2020.51,-129.04"/>
<polygon fill="#63b8ff" stroke="#63b8ff" points="1785.72,-160.07 1776.34,-164.98 1786.74,-166.99 1785.72,-160.07"/>
</a>
</g>
</g>
<!-- Node4 -->
<g id="Node000004" class="node">
<title>Node4</title>
<g id="a_Node000004"><a xlink:href="_auto_moderation_entities_8cpp.html" target="_top" xlink:title=" ">
<polygon fill="white" stroke="#666666" points="2338.5,-129 2186.5,-129 2186.5,-110 2338.5,-110 2338.5,-129"/>
<text text-anchor="middle" x="2262.5" y="-117" font-family="Helvetica,sans-Serif" font-size="10.00">AutoModerationEntities.cpp</text>
</a>
</g>
</g>
<!-- Node2&#45;&gt;Node4 -->
<g id="edge3_Node000002_Node000004" class="edge">
<title>Node2&#45;&gt;Node4</title>
<g id="a_edge3_Node000002_Node000004"><a xlink:title=" ">
<path fill="none" stroke="#63b8ff" d="M1791.4,-166.5C1881.94,-157.79 2041.13,-142.43 2177.5,-129 2180.3,-128.72 2183.16,-128.44 2186.05,-128.16"/>
<polygon fill="#63b8ff" stroke="#63b8ff" points="1790.86,-163.04 1781.24,-167.48 1791.53,-170 1790.86,-163.04"/>
</a>
</g>
</g>
<!-- Node5 -->
<g id="Node000005" class="node">
<title>Node5</title>
<g id="a_Node000005"><a xlink:href="_channel_entities_8cpp.html" target="_top" xlink:title=" ">
<polygon fill="white" stroke="#666666" points="2470,-129 2357,-129 2357,-110 2470,-110 2470,-129"/>
<text text-anchor="middle" x="2413.5" y="-117" font-family="Helvetica,sans-Serif" font-size="10.00">ChannelEntities.cpp</text>
</a>
</g>
</g>
<!-- Node2&#45;&gt;Node5 -->
<g id="edge4_Node000002_Node000005" class="edge">
<title>Node2&#45;&gt;Node5</title>
<g id="a_edge4_Node000002_Node000005"><a xlink:title=" ">
<path fill="none" stroke="#63b8ff" d="M1791.57,-166.35C1796.96,-165.88 1802.31,-165.42 1807.5,-165 2047.25,-145.56 2108.11,-152.37 2347.5,-129 2350.49,-128.71 2353.55,-128.39 2356.64,-128.05"/>
<polygon fill="#63b8ff" stroke="#63b8ff" points="1790.85,-162.9 1781.2,-167.28 1791.48,-169.87 1790.85,-162.9"/>
</a>
</g>
</g>
<!-- Node6 -->
<g id="Node000006" class="node">
<title>Node6</title>
<g id="a_Node000006"><a xlink:href="_command_controller_8cpp.html" target="_top" xlink:title=" ">
<polygon fill="white" stroke="#666666" points="2622.5,-129 2488.5,-129 2488.5,-110 2622.5,-110 2622.5,-129"/>
<text text-anchor="middle" x="2555.5" y="-117" font-family="Helvetica,sans-Serif" font-size="10.00">CommandController.cpp</text>
</a>
</g>
</g>
<!-- Node2&#45;&gt;Node6 -->
<g id="edge5_Node000002_Node000006" class="edge">
<title>Node2&#45;&gt;Node6</title>
<g id="a_edge5_Node000002_Node000006"><a xlink:title=" ">
<path fill="none" stroke="#63b8ff" d="M1791.57,-166.27C1796.96,-165.82 1802.31,-165.39 1807.5,-165 2105.77,-142.78 2181.42,-153.63 2479.5,-129 2482.41,-128.76 2485.38,-128.5 2488.38,-128.22"/>
<polygon fill="#63b8ff" stroke="#63b8ff" points="1790.85,-162.82 1781.2,-167.18 1791.46,-169.8 1790.85,-162.82"/>
</a>
</g>
</g>
<!-- Node7 -->
<g id="Node000007" class="node">
<title>Node7</title>
<g id="a_Node000007"><a xlink:href="_discord_core_client_8cpp.html" target="_top" xlink:title=" ">
<polygon fill="white" stroke="#666666" points="2766,-129 2641,-129 2641,-110 2766,-110 2766,-129"/>
<text text-anchor="middle" x="2703.5" y="-117" font-family="Helvetica,sans-Serif" font-size="10.00">DiscordCoreClient.cpp</text>
</a>
</g>
</g>
<!-- Node2&#45;&gt;Node7 -->
<g id="edge6_Node000002_Node000007" class="edge">
<title>Node2&#45;&gt;Node7</title>
<g id="a_edge6_Node000002_Node000007"><a xlink:title=" ">
<path fill="none" stroke="#63b8ff" d="M1791.56,-166.22C1796.95,-165.77 1802.31,-165.36 1807.5,-165 2173.19,-139.57 2266.12,-158.51 2631.5,-129 2634.51,-128.76 2637.59,-128.48 2640.7,-128.19"/>
<polygon fill="#63b8ff" stroke="#63b8ff" points="1790.86,-162.76 1781.19,-167.1 1791.45,-169.74 1790.86,-162.76"/>
</a>
</g>
</g>
<!-- Node8 -->
<g id="Node000008" class="node">
<title>Node8</title>
<g id="a_Node000008"><a xlink:href="_event_manager_8cpp.html" target="_top" xlink:title=" ">
<polygon fill="white" stroke="#666666" points="337,-129 230,-129 230,-110 337,-110 337,-129"/>
<text text-anchor="middle" x="283.5" y="-117" font-family="Helvetica,sans-Serif" font-size="10.00">EventManager.cpp</text>
</a>
</g>
</g>
<!-- Node2&#45;&gt;Node8 -->
<g id="edge7_Node000002_Node000008" class="edge">
<title>Node2&#45;&gt;Node8</title>
<g id="a_edge7_Node000002_Node000008"><a xlink:title=" ">
<path fill="none" stroke="#63b8ff" d="M1645.66,-171.57C1380.56,-164.5 475.99,-139.81 346.5,-129 343.42,-128.74 340.26,-128.44 337.08,-128.11"/>
<polygon fill="#63b8ff" stroke="#63b8ff" points="1645.84,-175.08 1655.93,-171.85 1646.03,-168.08 1645.84,-175.08"/>
</a>
</g>
</g>
<!-- Node2&#45;&gt;Node9 -->
<g id="edge8_Node000002_Node000009" class="edge">
<title>Node2&#45;&gt;Node9</title>
<g id="a_edge8_Node000002_Node000009"><a xlink:title=" ">
<path fill="none" stroke="#63b8ff" d="M1791.41,-172.56C2081.8,-168.68 3156.69,-152.99 3496.5,-129 3499.43,-128.79 3502.42,-128.56 3505.44,-128.29"/>
<polygon fill="#63b8ff" stroke="#63b8ff" points="1790.96,-169.07 1781.01,-172.7 1791.06,-176.07 1790.96,-169.07"/>
</a>
</g>
</g>
<!-- Node2&#45;&gt;Node10 -->
<g id="edge9_Node000002_Node000010" class="edge">
<title>Node2&#45;&gt;Node10</title>
<g id="a_edge9_Node000002_Node000010"><a xlink:title=" ">
<path fill="none" stroke="#63b8ff" d="M1645.67,-172.43C1385.57,-168.44 503.01,-153.38 221.5,-129 218.41,-128.73 215.23,-128.41 212.03,-128.05"/>
<polygon fill="#63b8ff" stroke="#63b8ff" points="1645.71,-175.93 1655.76,-172.58 1645.82,-168.93 1645.71,-175.93"/>
</a>
</g>
</g>
<!-- Node11 -->
<g id="Node000011" class="node">
<title>Node11</title>
<g id="a_Node000011"><a xlink:href="_guild_member_entities_8cpp.html" target="_top" xlink:title=" ">
<polygon fill="white" stroke="#666666" points="3487.5,-129 3347.5,-129 3347.5,-110 3487.5,-110 3487.5,-129"/>
<text text-anchor="middle" x="3417.5" y="-117" font-family="Helvetica,sans-Serif" font-size="10.00">GuildMemberEntities.cpp</text>
</a>
</g>
</g>
<!-- Node2&#45;&gt;Node11 -->
<g id="edge10_Node000002_Node000011" class="edge">
<title>Node2&#45;&gt;Node11</title>
<g id="a_edge10_Node000002_Node000011"><a xlink:title=" ">
<path fill="none" stroke="#63b8ff" d="M1791.56,-166.1C1796.95,-165.68 1802.31,-165.31 1807.5,-165 2486.93,-124.62 2659.32,-173.45 3338.5,-129 3341.39,-128.81 3344.34,-128.6 3347.32,-128.36"/>
<polygon fill="#63b8ff" stroke="#63b8ff" points="1790.86,-162.64 1781.18,-166.95 1791.43,-169.62 1790.86,-162.64"/>
</a>
</g>
</g>
<!-- Node12 -->
<g id="Node000012" class="node">
<title>Node12</title>
<g id="a_Node000012"><a xlink:href="_guild_scheduled_event_entities_8cpp.html" target="_top" xlink:title=" ">
<polygon fill="white" stroke="#666666" points="2961,-129 2784,-129 2784,-110 2961,-110 2961,-129"/>
<text text-anchor="middle" x="2872.5" y="-117" font-family="Helvetica,sans-Serif" font-size="10.00">GuildScheduledEventEntities.cpp</text>
</a>
</g>
</g>
<!-- Node2&#45;&gt;Node12 -->
<g id="edge11_Node000002_Node000012" class="edge">
<title>Node2&#45;&gt;Node12</title>
<g id="a_edge11_Node000002_Node000012"><a xlink:title=" ">
<path fill="none" stroke="#63b8ff" d="M1791.56,-166.18C1796.95,-165.74 1802.31,-165.34 1807.5,-165 2237.08,-136.52 2345.82,-155.8 2775.5,-129 2778.28,-128.83 2781.11,-128.64 2783.97,-128.44"/>
<polygon fill="#63b8ff" stroke="#63b8ff" points="1790.86,-162.73 1781.19,-167.05 1791.45,-169.7 1790.86,-162.73"/>
</a>
</g>
</g>
<!-- Node13 -->
<g id="Node000013" class="node">
<title>Node13</title>
<g id="a_Node000013"><a xlink:href="_https_client_8cpp.html" target="_top" xlink:title=" ">
<polygon fill="white" stroke="#666666" points="3071.5,-129 2979.5,-129 2979.5,-110 3071.5,-110 3071.5,-129"/>
<text text-anchor="middle" x="3025.5" y="-117" font-family="Helvetica,sans-Serif" font-size="10.00">HttpsClient.cpp</text>
</a>
</g>
</g>
<!-- Node2&#45;&gt;Node13 -->
<g id="edge12_Node000002_Node000013" class="edge">
<title>Node2&#45;&gt;Node13</title>
<g id="a_edge12_Node000002_Node000013"><a xlink:title=" ">
<path fill="none" stroke="#63b8ff" d="M1791.56,-166.14C1796.95,-165.72 1802.31,-165.33 1807.5,-165 2323.61,-132.4 2455.56,-176.58 2970.5,-129 2973.39,-128.73 2976.35,-128.41 2979.34,-128.05"/>
<polygon fill="#63b8ff" stroke="#63b8ff" points="1790.86,-162.69 1781.18,-167 1791.44,-169.66 1790.86,-162.69"/>
</a>
</g>
</g>
<!-- Node14 -->
<g id="Node000014" class="node">
<title>Node14</title>
<g id="a_Node000014"><a xlink:href="_input_events_8cpp.html" target="_top" xlink:title=" ">
<polygon fill="white" stroke="#666666" points="3185,-129 3090,-129 3090,-110 3185,-110 3185,-129"/>
<text text-anchor="middle" x="3137.5" y="-117" font-family="Helvetica,sans-Serif" font-size="10.00">InputEvents.cpp</text>
</a>
</g>
</g>
<!-- Node2&#45;&gt;Node14 -->
<g id="edge13_Node000002_Node000014" class="edge">
<title>Node2&#45;&gt;Node14</title>
<g id="a_edge13_Node000002_Node000014"><a xlink:title=" ">
<path fill="none" stroke="#63b8ff" d="M1791.56,-166.13C1796.95,-165.7 1802.31,-165.32 1807.5,-165 2372.43,-130.07 2516.69,-178.83 3080.5,-129 3083.59,-128.73 3086.77,-128.4 3089.96,-128.02"/>
<polygon fill="#63b8ff" stroke="#63b8ff" points="1790.86,-162.67 1781.18,-166.98 1791.44,-169.65 1790.86,-162.67"/>
</a>
</g>
</g>
<!-- Node15 -->
<g id="Node000015" class="node">
<title>Node15</title>
<g id="a_Node000015"><a xlink:href="_interaction_entities_8cpp.html" target="_top" xlink:title=" ">
<polygon fill="white" stroke="#666666" points="3329.5,-129 3203.5,-129 3203.5,-110 3329.5,-110 3329.5,-129"/>
<text text-anchor="middle" x="3266.5" y="-117" font-family="Helvetica,sans-Serif" font-size="10.00">InteractionEntities.cpp</text>
</a>
</g>
</g>
<!-- Node2&#45;&gt;Node15 -->
<g id="edge14_Node000002_Node000015" class="edge">
<title>Node2&#45;&gt;Node15</title>
<g id="a_edge14_Node000002_Node000015"><a xlink:title=" ">
<path fill="none" stroke="#63b8ff" d="M1791.56,-166.11C1796.95,-165.69 1802.31,-165.31 1807.5,-165 2423.02,-127.66 2579.43,-173.19 3194.5,-129 3197.39,-128.79 3200.34,-128.55 3203.32,-128.29"/>
<polygon fill="#63b8ff" stroke="#63b8ff" points="1790.86,-162.66 1781.18,-166.96 1791.43,-169.63 1790.86,-162.66"/>
</a>
</g>
</g>
<!-- Node16 -->
<g id="Node000016" class="node">
<title>Node16</title>
<g id="a_Node000016"><a xlink:href="_message_entities_8cpp.html" target="_top" xlink:title=" ">
<polygon fill="white" stroke="#666666" points="609,-129 492,-129 492,-110 609,-110 609,-129"/>
<text text-anchor="middle" x="550.5" y="-117" font-family="Helvetica,sans-Serif" font-size="10.00">MessageEntities.cpp</text>
</a>
</g>
</g>
<!-- Node2&#45;&gt;Node16 -->
<g id="edge15_Node000002_Node000016" class="edge">
<title>Node2&#45;&gt;Node16</title>
<g id="a_edge15_Node000002_Node000016"><a xlink:title=" ">
<path fill="none" stroke="#63b8ff" d="M1645.65,-169.49C1617.49,-167.99 1585,-166.34 1555.5,-165 1139.17,-146.15 1033.87,-162.88 618.5,-129 615.42,-128.75 612.26,-128.46 609.07,-128.15"/>
<polygon fill="#63b8ff" stroke="#63b8ff" points="1645.64,-172.99 1655.81,-170.03 1646.01,-166 1645.64,-172.99"/>
</a>
</g>
</g>
<!-- Node17 -->
<g id="Node000017" class="node">
<title>Node17</title>
<g id="a_Node000017"><a xlink:href="_reaction_entities_8cpp.html" target="_top" xlink:title=" ">
<polygon fill="white" stroke="#666666" points="743.5,-129 627.5,-129 627.5,-110 743.5,-110 743.5,-129"/>
<text text-anchor="middle" x="685.5" y="-117" font-family="Helvetica,sans-Serif" font-size="10.00">ReactionEntities.cpp</text>
</a>
</g>
</g>
<!-- Node2&#45;&gt;Node17 -->
<g id="edge16_Node000002_Node000017" class="edge">
<title>Node2&#45;&gt;Node17</title>
<g id="a_edge16_Node000002_Node000017"><a xlink:title=" ">
<path fill="none" stroke="#63b8ff" d="M1645.64,-169.59C1617.48,-168.11 1584.99,-166.43 1555.5,-165 1199.12,-147.71 1109.03,-159.15 753.5,-129 750.3,-128.73 747.02,-128.42 743.71,-128.08"/>
<polygon fill="#63b8ff" stroke="#63b8ff" points="1645.64,-173.09 1655.81,-170.12 1646.01,-166.1 1645.64,-173.09"/>
</a>
</g>
</g>
<!-- Node2&#45;&gt;Node18 -->
<g id="edge17_Node000002_Node000018" class="edge">
<title>Node2&#45;&gt;Node18</title>
<g id="a_edge17_Node000002_Node000018"><a xlink:title=" ">
<path fill="none" stroke="#63b8ff" d="M1645.56,-172.66C1372.39,-169.32 410,-155.89 104.5,-129 101.41,-128.73 98.23,-128.4 95.03,-128.03"/>
<polygon fill="#63b8ff" stroke="#63b8ff" points="1645.71,-176.16 1655.75,-172.78 1645.79,-169.16 1645.71,-176.16"/>
</a>
</g>
</g>
<!-- Node19 -->
<g id="Node000019" class="node">
<title>Node19</title>
<g id="a_Node000019"><a xlink:href="_song_a_p_i_8cpp.html" target="_top" xlink:title=" ">
<polygon fill="white" stroke="#666666" points="839,-129 762,-129 762,-110 839,-110 839,-129"/>
<text text-anchor="middle" x="800.5" y="-117" font-family="Helvetica,sans-Serif" font-size="10.00">SongAPI.cpp</text>
</a>
</g>
</g>
<!-- Node2&#45;&gt;Node19 -->
<g id="edge18_Node000002_Node000019" class="edge">
<title>Node2&#45;&gt;Node19</title>
<g id="a_edge18_Node000002_Node000019"><a xlink:title=" ">
<path fill="none" stroke="#63b8ff" d="M1645.64,-169.68C1617.48,-168.21 1584.99,-166.52 1555.5,-165 1241.29,-148.81 1161.12,-164.5 848.5,-129 845.47,-128.66 842.35,-128.24 839.21,-127.78"/>
<polygon fill="#63b8ff" stroke="#63b8ff" points="1645.64,-173.19 1655.8,-170.21 1646,-166.2 1645.64,-173.19"/>
</a>
</g>
</g>
<!-- Node20 -->
<g id="Node000020" class="node">
<title>Node20</title>
<g id="a_Node000020"><a xlink:href="_sound_cloud_a_p_i_8cpp.html" target="_top" xlink:title=" ">
<polygon fill="white" stroke="#666666" points="967.5,-129 857.5,-129 857.5,-110 967.5,-110 967.5,-129"/>
<text text-anchor="middle" x="912.5" y="-117" font-family="Helvetica,sans-Serif" font-size="10.00">SoundCloudAPI.cpp</text>
</a>
</g>
</g>
<!-- Node2&#45;&gt;Node20 -->
<g id="edge19_Node000002_Node000020" class="edge">
<title>Node2&#45;&gt;Node20</title>
<g id="a_edge19_Node000002_Node000020"><a xlink:title=" ">
<path fill="none" stroke="#63b8ff" d="M1645.89,-169.43C1472.29,-159.66 1042.75,-135.22 977.5,-129 974.33,-128.7 971.07,-128.36 967.79,-128"/>
<polygon fill="#63b8ff" stroke="#63b8ff" points="1645.77,-172.93 1655.95,-170 1646.17,-165.94 1645.77,-172.93"/>
</a>
</g>
</g>
<!-- Node21 -->
<g id="Node000021" class="node">
<title>Node21</title>
<g id="a_Node000021"><a xlink:href="_stage_instance_entities_8cpp.html" target="_top" xlink:title=" ">
<polygon fill="white" stroke="#666666" points="1129,-129 986,-129 986,-110 1129,-110 1129,-129"/>
<text text-anchor="middle" x="1057.5" y="-117" font-family="Helvetica,sans-Serif" font-size="10.00">StageInstanceEntities.cpp</text>
</a>
</g>
</g>
<!-- Node2&#45;&gt;Node21 -->
<g id="edge20_Node000002_Node000021" class="edge">
<title>Node2&#45;&gt;Node21</title>
<g id="a_edge20_Node000002_Node000021"><a xlink:title=" ">
<path fill="none" stroke="#63b8ff" d="M1645.82,-168.58C1535.91,-160.99 1320.88,-145.56 1138.5,-129 1135.4,-128.72 1132.24,-128.42 1129.04,-128.12"/>
<polygon fill="#63b8ff" stroke="#63b8ff" points="1645.58,-172.07 1655.8,-169.27 1646.06,-165.09 1645.58,-172.07"/>
</a>
</g>
</g>
<!-- Node22 -->
<g id="Node000022" class="node">
<title>Node22</title>
<g id="a_Node000022"><a xlink:href="_sticker_entities_8cpp.html" target="_top" xlink:title=" ">
<polygon fill="white" stroke="#666666" points="1254,-129 1147,-129 1147,-110 1254,-110 1254,-129"/>
<text text-anchor="middle" x="1200.5" y="-117" font-family="Helvetica,sans-Serif" font-size="10.00">StickerEntities.cpp</text>
</a>
</g>
</g>
<!-- Node2&#45;&gt;Node22 -->
<g id="edge21_Node000002_Node000022" class="edge">
<title>Node2&#45;&gt;Node22</title>
<g id="a_edge21_Node000002_Node000022"><a xlink:title=" ">
<path fill="none" stroke="#63b8ff" d="M1645.78,-167.21C1555.88,-159.25 1398.25,-144.67 1263.5,-129 1260.43,-128.64 1257.28,-128.26 1254.1,-127.87"/>
<polygon fill="#63b8ff" stroke="#63b8ff" points="1645.59,-170.71 1655.86,-168.11 1646.21,-163.74 1645.59,-170.71"/>
</a>
</g>
</g>
<!-- Node23 -->
<g id="Node000023" class="node">
<title>Node23</title>
<g id="a_Node000023"><a xlink:href="_thread_entities_8cpp.html" target="_top" xlink:title=" ">
<polygon fill="white" stroke="#666666" points="1379,-129 1272,-129 1272,-110 1379,-110 1379,-129"/>
<text text-anchor="middle" x="1325.5" y="-117" font-family="Helvetica,sans-Serif" font-size="10.00">ThreadEntities.cpp</text>
</a>
</g>
</g>
<!-- Node2&#45;&gt;Node23 -->
<g id="edge22_Node000002_Node000023" class="edge">
<title>Node2&#45;&gt;Node23</title>
<g id="a_edge22_Node000002_Node000023"><a xlink:title=" ">
<path fill="none" stroke="#63b8ff" d="M1645.66,-163.68C1568.4,-153.26 1448.18,-137.04 1379.14,-127.73"/>
<polygon fill="#63b8ff" stroke="#63b8ff" points="1645.42,-167.18 1655.79,-165.04 1646.35,-160.24 1645.42,-167.18"/>
</a>
</g>
</g>
<!-- Node24 -->
<g id="Node000024" class="node">
<title>Node24</title>
<g id="a_Node000024"><a xlink:href="_to_entity_8hpp.html" target="_top" xlink:title=" ">
<polygon fill="white" stroke="#666666" points="1472,-129 1397,-129 1397,-110 1472,-110 1472,-129"/>
<text text-anchor="middle" x="1434.5" y="-117" font-family="Helvetica,sans-Serif" font-size="10.00">ToEntity.hpp</text>
</a>
</g>
</g>
<!-- Node2&#45;&gt;Node24 -->
<g id="edge23_Node000002_Node000024" class="edge">
<title>Node2&#45;&gt;Node24</title>
<g id="a_edge23_Node000002_Node000024"><a xlink:title=" ">
<path fill="none" stroke="#63b8ff" d="M1662.72,-163.09C1606.44,-152.59 1521.1,-136.66 1472.29,-127.55"/>
<polygon fill="#63b8ff" stroke="#63b8ff" points="1662.4,-166.59 1672.87,-164.98 1663.68,-159.71 1662.4,-166.59"/>
</a>
</g>
</g>
<!-- Node27 -->
<g id="Node000027" class="node">
<title>Node27</title>
<g id="a_Node000027"><a xlink:href="_user_entities_8cpp.html" target="_top" xlink:title=" ">
<polygon fill="white" stroke="#666666" points="1586.5,-129 1490.5,-129 1490.5,-110 1586.5,-110 1586.5,-129"/>
<text text-anchor="middle" x="1538.5" y="-117" font-family="Helvetica,sans-Serif" font-size="10.00">UserEntities.cpp</text>
</a>
</g>
</g>
<!-- Node2&#45;&gt;Node27 -->
<g id="edge26_Node000002_Node000027" class="edge">
<title>Node2&#45;&gt;Node27</title>
<g id="a_edge26_Node000002_Node000027"><a xlink:title=" ">
<path fill="none" stroke="#63b8ff" d="M1679.63,-162.06C1645.99,-152.15 1598.08,-138.04 1567.65,-129.08"/>
<polygon fill="#63b8ff" stroke="#63b8ff" points="1679,-165.52 1689.58,-164.98 1680.98,-158.8 1679,-165.52"/>
</a>
</g>
</g>
<!-- Node2&#45;&gt;Node28 -->
<g id="edge27_Node000002_Node000028" class="edge">
<title>Node2&#45;&gt;Node28</title>
<g id="a_edge27_Node000002_Node000028"><a xlink:title=" ">
<path fill="none" stroke="#63b8ff" d="M1791.6,-172.48C2120.63,-167.82 3456.19,-147.89 3642.5,-129 3645.55,-128.69 3648.7,-128.29 3651.86,-127.84"/>
<polygon fill="#63b8ff" stroke="#63b8ff" points="1791.19,-168.99 1781.25,-172.63 1791.29,-175.99 1791.19,-168.99"/>
</a>
</g>
</g>
<!-- Node29 -->
<g id="Node000029" class="node">
<title>Node29</title>
<g id="a_Node000029"><a xlink:href="_voice_connection_8cpp.html" target="_top" xlink:title=" ">
<polygon fill="white" stroke="#666666" points="1722.5,-129 1604.5,-129 1604.5,-110 1722.5,-110 1722.5,-129"/>
<text text-anchor="middle" x="1663.5" y="-117" font-family="Helvetica,sans-Serif" font-size="10.00">VoiceConnection.cpp</text>
</a>
</g>
</g>
<!-- Node2&#45;&gt;Node29 -->
<g id="edge28_Node000002_Node000029" class="edge">
<title>Node2&#45;&gt;Node29</title>
<g id="a_edge28_Node000002_Node000029"><a xlink:title=" ">
<path fill="none" stroke="#63b8ff" d="M1702.21,-157.8C1692.46,-148.41 1680.45,-136.83 1672.41,-129.09"/>
<polygon fill="#63b8ff" stroke="#63b8ff" points="1699.79,-160.33 1709.42,-164.75 1704.65,-155.29 1699.79,-160.33"/>
</a>
</g>
</g>
<!-- Node30 -->
<g id="Node000030" class="node">
<title>Node30</title>
<g id="a_Node000030"><a xlink:href="_web_hook_entities_8cpp.html" target="_top" xlink:title=" ">
<polygon fill="white" stroke="#666666" points="1860.5,-129 1740.5,-129 1740.5,-110 1860.5,-110 1860.5,-129"/>
<text text-anchor="middle" x="1800.5" y="-117" font-family="Helvetica,sans-Serif" font-size="10.00">WebHookEntities.cpp</text>
</a>
</g>
</g>
<!-- Node2&#45;&gt;Node30 -->
<g id="edge29_Node000002_Node000030" class="edge">
<title>Node2&#45;&gt;Node30</title>
<g id="a_edge29_Node000002_Node000030"><a xlink:title=" ">
<path fill="none" stroke="#63b8ff" d="M1740.28,-159.42C1755.16,-149.81 1774.41,-137.37 1787.09,-129.17"/>
<polygon fill="#63b8ff" stroke="#63b8ff" points="1738.17,-156.62 1731.67,-164.98 1741.97,-162.5 1738.17,-156.62"/>
</a>
</g>
</g>
<!-- Node31 -->
<g id="Node000031" class="node">
<title>Node31</title>
<g id="a_Node000031"><a xlink:href="_web_socket_client_8cpp.html" target="_top" xlink:title=" ">
<polygon fill="white" stroke="#666666" points="474,-129 355,-129 355,-110 474,-110 474,-129"/>
<text text-anchor="middle" x="414.5" y="-117" font-family="Helvetica,sans-Serif" font-size="10.00">WebSocketClient.cpp</text>
</a>
</g>
</g>
<!-- Node2&#45;&gt;Node31 -->
<g id="edge30_Node000002_Node000031" class="edge">
<title>Node2&#45;&gt;Node31</title>
<g id="a_edge30_Node000002_Node000031"><a xlink:title=" ">
<path fill="none" stroke="#63b8ff" d="M1645.65,-169.41C1617.49,-167.91 1585,-166.26 1555.5,-165 1079.22,-144.59 958.76,-166.18 483.5,-129 480.49,-128.76 477.41,-128.49 474.31,-128.2"/>
<polygon fill="#63b8ff" stroke="#63b8ff" points="1645.64,-172.92 1655.82,-169.96 1646.02,-165.93 1645.64,-172.92"/>
</a>
</g>
</g>
<!-- Node32 -->
<g id="Node000032" class="node">
<title>Node32</title>
<g id="a_Node000032"><a xlink:href="_you_tube_a_p_i_8cpp.html" target="_top" xlink:title=" ">
<polygon fill="white" stroke="#666666" points="1970.5,-129 1878.5,-129 1878.5,-110 1970.5,-110 1970.5,-129"/>
<text text-anchor="middle" x="1924.5" y="-117" font-family="Helvetica,sans-Serif" font-size="10.00">YouTubeAPI.cpp</text>
</a>
</g>
</g>
<!-- Node2&#45;&gt;Node32 -->
<g id="edge31_Node000002_Node000032" class="edge">
<title>Node2&#45;&gt;Node32</title>
<g id="a_edge31_Node000002_Node000032"><a xlink:title=" ">
<path fill="none" stroke="#63b8ff" d="M1761.5,-162.44C1800.06,-152.52 1855.86,-138.16 1891.14,-129.08"/>
<polygon fill="#63b8ff" stroke="#63b8ff" points="1760.41,-159.1 1751.6,-164.98 1762.15,-165.88 1760.41,-159.1"/>
</a>
</g>
</g>
<!-- Node25 -->
<g id="Node000025" class="node">
<title>Node25</title>
<g id="a_Node000025"><a xlink:href="_index_8hpp.html" target="_top" xlink:title=" ">
<polygon fill="white" stroke="#666666" points="1467,-74 1402,-74 1402,-55 1467,-55 1467,-74"/>
<text text-anchor="middle" x="1434.5" y="-62" font-family="Helvetica,sans-Serif" font-size="10.00">Index.hpp</text>
</a>
</g>
</g>
<!-- Node24&#45;&gt;Node25 -->
<g id="edge24_Node000024_Node000025" class="edge">
<title>Node24&#45;&gt;Node25</title>
<g id="a_edge24_Node000024_Node000025"><a xlink:title=" ">
<path fill="none" stroke="#63b8ff" d="M1434.5,-99.66C1434.5,-90.93 1434.5,-80.99 1434.5,-74.09"/>
<polygon fill="#63b8ff" stroke="#63b8ff" points="1431,-99.75 1434.5,-109.75 1438,-99.75 1431,-99.75"/>
</a>
</g>
</g>
<!-- Node26 -->
<g id="Node000026" class="node">
<title>Node26</title>
<g id="a_Node000026"><a xlink:href="_dll_main_8cpp.html" target="_top" xlink:title=" ">
<polygon fill="white" stroke="#666666" points="1471.5,-19 1397.5,-19 1397.5,0 1471.5,0 1471.5,-19"/>
<text text-anchor="middle" x="1434.5" y="-7" font-family="Helvetica,sans-Serif" font-size="10.00">DllMain.cpp</text>
</a>
</g>
</g>
<!-- Node25&#45;&gt;Node26 -->
<g id="edge25_Node000025_Node000026" class="edge">
<title>Node25&#45;&gt;Node26</title>
<g id="a_edge25_Node000025_Node000026"><a xlink:title=" ">
<path fill="none" stroke="#63b8ff" d="M1434.5,-44.66C1434.5,-35.93 1434.5,-25.99 1434.5,-19.09"/>
<polygon fill="#63b8ff" stroke="#63b8ff" points="1431,-44.75 1434.5,-54.75 1438,-44.75 1431,-44.75"/>
</a>
</g>
</g>
<!-- Node33&#45;&gt;Node2 -->
<g id="edge33_Node000033_Node000002" class="edge">
<title>Node33&#45;&gt;Node2</title>
<g id="a_edge33_Node000033_Node000002"><a xlink:title=" ">
<path fill="none" stroke="#63b8ff" d="M1658.28,-214.42C1673.16,-204.81 1692.41,-192.37 1705.09,-184.17"/>
<polygon fill="#63b8ff" stroke="#63b8ff" points="1656.17,-211.62 1649.67,-219.98 1659.97,-217.5 1656.17,-211.62"/>
</a>
</g>
</g>
<!-- Node33&#45;&gt;Node8 -->
<g id="edge34_Node000033_Node000008" class="edge">
<title>Node33&#45;&gt;Node8</title>
<g id="a_edge34_Node000033_Node000008"><a xlink:title=" ">
<path fill="none" stroke="#63b8ff" d="M1572.94,-221.72C1453.74,-209.19 1188.45,-182.1 964.5,-165 690.17,-144.06 620.36,-155.41 346.5,-129 343.42,-128.7 340.27,-128.37 337.08,-128.01"/>
<polygon fill="#63b8ff" stroke="#63b8ff" points="1572.67,-225.22 1582.98,-222.78 1573.41,-218.25 1572.67,-225.22"/>
</a>
</g>
</g>
<!-- Node33&#45;&gt;Node31 -->
<g id="edge35_Node000033_Node000031" class="edge">
<title>Node33&#45;&gt;Node31</title>
<g id="a_edge35_Node000033_Node000031"><a xlink:title=" ">
<path fill="none" stroke="#63b8ff" d="M1595.94,-217.31C1540.06,-202.44 1436.02,-176.68 1345.5,-165 965.21,-115.94 865.65,-160.47 483.5,-129 480.49,-128.75 477.41,-128.47 474.31,-128.17"/>
<polygon fill="#63b8ff" stroke="#63b8ff" points="1595.23,-220.75 1605.8,-219.96 1597.05,-213.99 1595.23,-220.75"/>
</a>
</g>
</g>
<!-- Node34&#45;&gt;Node2 -->
<g id="edge39_Node000034_Node000002" class="edge">
<title>Node34&#45;&gt;Node2</title>
<g id="a_edge39_Node000034_Node000002"><a xlink:title=" ">
<path fill="none" stroke="#63b8ff" d="M1784.14,-266.38C1767.25,-243.01 1737.62,-201.97 1724.75,-184.16"/>
<polygon fill="#63b8ff" stroke="#63b8ff" points="1781.42,-268.6 1790.12,-274.66 1787.1,-264.51 1781.42,-268.6"/>
</a>
</g>
</g>
<!-- Node34&#45;&gt;Node9 -->
<g id="edge41_Node000034_Node000009" class="edge">
<title>Node34&#45;&gt;Node9</title>
<g id="a_edge41_Node000034_Node000009"><a xlink:title=" ">
<path fill="none" stroke="#63b8ff" d="M1848.94,-272.96C1970.45,-249.03 2280.96,-190.69 2543.5,-165 2965.34,-123.72 3073.89,-161.54 3496.5,-129 3499.43,-128.77 3502.42,-128.52 3505.43,-128.25"/>
<polygon fill="#63b8ff" stroke="#63b8ff" points="1847.94,-269.59 1838.8,-274.97 1849.29,-276.46 1847.94,-269.59"/>
</a>
</g>
</g>
<!-- Node34&#45;&gt;Node10 -->
<g id="edge42_Node000034_Node000010" class="edge">
<title>Node34&#45;&gt;Node10</title>
<g id="a_edge42_Node000034_Node000010"><a xlink:title=" ">
<path fill="none" stroke="#63b8ff" d="M1735.69,-278.57C1597.8,-266.87 1251.07,-234.58 964.5,-184 928.09,-177.57 920.1,-170.25 883.5,-165 591.82,-123.19 514.72,-158.04 221.5,-129 218.41,-128.69 215.23,-128.34 212.04,-127.96"/>
<polygon fill="#63b8ff" stroke="#63b8ff" points="1735.78,-282.09 1746.04,-279.44 1736.37,-275.11 1735.78,-282.09"/>
</a>
</g>
</g>
<!-- Node34&#45;&gt;Node11 -->
<g id="edge43_Node000034_Node000011" class="edge">
<title>Node34&#45;&gt;Node11</title>
<g id="a_edge43_Node000034_Node000011"><a xlink:title=" ">
<path fill="none" stroke="#63b8ff" d="M1832.83,-271.99C1913.34,-247.09 2113.28,-188.56 2285.5,-165 2749.45,-101.53 2871.4,-162.07 3338.5,-129 3341.39,-128.8 3344.34,-128.57 3347.31,-128.32"/>
<polygon fill="#63b8ff" stroke="#63b8ff" points="1831.68,-268.69 1823.17,-275 1833.75,-275.37 1831.68,-268.69"/>
</a>
</g>
</g>
<!-- Node34&#45;&gt;Node28 -->
<g id="edge44_Node000034_Node000028" class="edge">
<title>Node34&#45;&gt;Node28</title>
<g id="a_edge44_Node000034_Node000028"><a xlink:title=" ">
<path fill="none" stroke="#63b8ff" d="M1856.86,-280.55C2088.67,-268.76 2943.81,-221.2 3642.5,-129 3645.54,-128.6 3648.69,-128.14 3651.84,-127.64"/>
<polygon fill="#63b8ff" stroke="#63b8ff" points="1856.43,-277.06 1846.62,-281.06 1856.78,-284.06 1856.43,-277.06"/>
</a>
</g>
</g>
<!-- Node34&#45;&gt;Node33 -->
<g id="edge40_Node000034_Node000033" class="edge">
<title>Node34&#45;&gt;Node33</title>
<g id="a_edge40_Node000034_Node000033"><a xlink:title=" ">
<path fill="none" stroke="#63b8ff" d="M1761.17,-271.8C1731.31,-261.91 1689.23,-247.97 1662.41,-239.08"/>
<polygon fill="#63b8ff" stroke="#63b8ff" points="1760.2,-275.16 1770.79,-274.98 1762.4,-268.52 1760.2,-275.16"/>
</a>
</g>
</g>
</g>
</svg>
