<?xml version="1.0" encoding="UTF-8" standalone="no"?>
<!DOCTYPE svg PUBLIC "-//W3C//DTD SVG 1.1//EN"
 "http://www.w3.org/Graphics/SVG/1.1/DTD/svg11.dtd">
<!-- Generated by graphviz version 2.43.0 (0)
 -->
<!-- Title: SongAPI.hpp Pages: 1 -->
<svg width="3738pt" height="247pt"
 viewBox="0.00 0.00 3738.00 247.00" xmlns="http://www.w3.org/2000/svg" xmlns:xlink="http://www.w3.org/1999/xlink">
<g id="graph0" class="graph" transform="scale(1 1) rotate(0) translate(4 243)">
<title>SongAPI.hpp</title>
<!-- Node1 -->
<g id="Node000001" class="node">
<title>Node1</title>
<g id="a_Node000001"><a xlink:title=" ">
<polygon fill="#999999" stroke="#666666" points="2070,-239 1993,-239 1993,-220 2070,-220 2070,-239"/>
<text text-anchor="middle" x="2031.5" y="-227" font-family="Helvetica,sans-Serif" font-size="10.00">SongAPI.hpp</text>
</a>
</g>
</g>
<!-- Node2 -->
<g id="Node000002" class="node">
<title>Node2</title>
<g id="a_Node000002"><a xlink:href="_discord_core_client_8hpp.html" target="_top" xlink:title=" ">
<polygon fill="white" stroke="#666666" points="2094,-184 1969,-184 1969,-165 2094,-165 2094,-184"/>
<text text-anchor="middle" x="2031.5" y="-172" font-family="Helvetica,sans-Serif" font-size="10.00">DiscordCoreClient.hpp</text>
</a>
</g>
</g>
<!-- Node1&#45;&gt;Node2 -->
<g id="edge1_Node000001_Node000002" class="edge">
<title>Node1&#45;&gt;Node2</title>
<g id="a_edge1_Node000001_Node000002"><a xlink:title=" ">
<path fill="none" stroke="#63b8ff" d="M2031.5,-209.66C2031.5,-200.93 2031.5,-190.99 2031.5,-184.09"/>
<polygon fill="#63b8ff" stroke="#63b8ff" points="2028,-209.75 2031.5,-219.75 2035,-209.75 2028,-209.75"/>
</a>
</g>
</g>
<!-- Node10 -->
<g id="Node000010" class="node">
<title>Node10</title>
<g id="a_Node000010"><a xlink:href="_guild_entities_8cpp.html" target="_top" xlink:title=" ">
<polygon fill="white" stroke="#666666" points="99,-129 0,-129 0,-110 99,-110 99,-129"/>
<text text-anchor="middle" x="49.5" y="-117" font-family="Helvetica,sans-Serif" font-size="10.00">GuildEntities.cpp</text>
</a>
</g>
</g>
<!-- Node1&#45;&gt;Node10 -->
<g id="edge32_Node000001_Node000010" class="edge">
<title>Node1&#45;&gt;Node10</title>
<g id="a_edge32_Node000001_Node000010"><a xlink:title=" ">
<path fill="none" stroke="#63b8ff" d="M1982.57,-227.66C1763.6,-223.54 851.71,-202.61 107.5,-129 104.77,-128.73 101.96,-128.42 99.14,-128.09"/>
<polygon fill="#63b8ff" stroke="#63b8ff" points="1982.71,-231.16 1992.77,-227.85 1982.84,-224.16 1982.71,-231.16"/>
</a>
</g>
</g>
<!-- Node19 -->
<g id="Node000019" class="node">
<title>Node19</title>
<g id="a_Node000019"><a xlink:href="_song_a_p_i_8cpp.html" target="_top" xlink:title=" ">
<polygon fill="white" stroke="#666666" points="3730,-129 3653,-129 3653,-110 3730,-110 3730,-129"/>
<text text-anchor="middle" x="3691.5" y="-117" font-family="Helvetica,sans-Serif" font-size="10.00">SongAPI.cpp</text>
</a>
</g>
</g>
<!-- Node1&#45;&gt;Node19 -->
<g id="edge33_Node000001_Node000019" class="edge">
<title>Node1&#45;&gt;Node19</title>
<g id="a_edge33_Node000001_Node000019"><a xlink:title=" ">
<path fill="none" stroke="#63b8ff" d="M2080.3,-227.51C2276.85,-223.09 3029.38,-202.09 3643.5,-129 3646.53,-128.64 3649.65,-128.21 3652.78,-127.75"/>
<polygon fill="#63b8ff" stroke="#63b8ff" points="2079.94,-224.02 2070.02,-227.74 2080.1,-231.02 2079.94,-224.02"/>
</a>
</g>
</g>
<!-- Node3 -->
<g id="Node000003" class="node">
<title>Node3</title>
<g id="a_Node000003"><a xlink:href="_application_command_entities_8cpp.html" target="_top" xlink:title=" ">
<polygon fill="white" stroke="#666666" points="296,-129 117,-129 117,-110 296,-110 296,-129"/>
<text text-anchor="middle" x="206.5" y="-117" font-family="Helvetica,sans-Serif" font-size="10.00">ApplicationCommandEntities.cpp</text>
</a>
</g>
</g>
<!-- Node2&#45;&gt;Node3 -->
<g id="edge2_Node000002_Node000003" class="edge">
<title>Node2&#45;&gt;Node3</title>
<g id="a_edge2_Node000002_Node000003"><a xlink:title=" ">
<path fill="none" stroke="#63b8ff" d="M1958.49,-173.18C1720.47,-171.8 945.44,-164.69 305.5,-129 302.4,-128.83 299.25,-128.64 296.06,-128.43"/>
<polygon fill="#63b8ff" stroke="#63b8ff" points="1958.73,-176.68 1968.75,-173.24 1958.77,-169.68 1958.73,-176.68"/>
</a>
</g>
</g>
<!-- Node4 -->
<g id="Node000004" class="node">
<title>Node4</title>
<g id="a_Node000004"><a xlink:href="_auto_moderation_entities_8cpp.html" target="_top" xlink:title=" ">
<polygon fill="white" stroke="#666666" points="466.5,-129 314.5,-129 314.5,-110 466.5,-110 466.5,-129"/>
<text text-anchor="middle" x="390.5" y="-117" font-family="Helvetica,sans-Serif" font-size="10.00">AutoModerationEntities.cpp</text>
</a>
</g>
</g>
<!-- Node2&#45;&gt;Node4 -->
<g id="edge3_Node000002_Node000004" class="edge">
<title>Node2&#45;&gt;Node4</title>
<g id="a_edge3_Node000002_Node000004"><a xlink:title=" ">
<path fill="none" stroke="#63b8ff" d="M1958.61,-173.22C1736.18,-171.99 1046.6,-165.29 476.5,-129 473.36,-128.8 470.15,-128.58 466.91,-128.33"/>
<polygon fill="#63b8ff" stroke="#63b8ff" points="1958.82,-176.72 1968.84,-173.28 1958.86,-169.72 1958.82,-176.72"/>
</a>
</g>
</g>
<!-- Node5 -->
<g id="Node000005" class="node">
<title>Node5</title>
<g id="a_Node000005"><a xlink:href="_channel_entities_8cpp.html" target="_top" xlink:title=" ">
<polygon fill="white" stroke="#666666" points="598,-129 485,-129 485,-110 598,-110 598,-129"/>
<text text-anchor="middle" x="541.5" y="-117" font-family="Helvetica,sans-Serif" font-size="10.00">ChannelEntities.cpp</text>
</a>
</g>
</g>
<!-- Node2&#45;&gt;Node5 -->
<g id="edge4_Node000002_Node000005" class="edge">
<title>Node2&#45;&gt;Node5</title>
<g id="a_edge4_Node000002_Node000005"><a xlink:title=" ">
<path fill="none" stroke="#63b8ff" d="M1958.64,-173.71C1748.6,-173.78 1123.95,-170.23 607.5,-129 604.51,-128.76 601.44,-128.48 598.35,-128.18"/>
<polygon fill="#63b8ff" stroke="#63b8ff" points="1958.92,-177.21 1968.92,-173.7 1958.92,-170.21 1958.92,-177.21"/>
</a>
</g>
</g>
<!-- Node6 -->
<g id="Node000006" class="node">
<title>Node6</title>
<g id="a_Node000006"><a xlink:href="_command_controller_8cpp.html" target="_top" xlink:title=" ">
<polygon fill="white" stroke="#666666" points="750.5,-129 616.5,-129 616.5,-110 750.5,-110 750.5,-129"/>
<text text-anchor="middle" x="683.5" y="-117" font-family="Helvetica,sans-Serif" font-size="10.00">CommandController.cpp</text>
</a>
</g>
</g>
<!-- Node2&#45;&gt;Node6 -->
<g id="edge5_Node000002_Node000006" class="edge">
<title>Node2&#45;&gt;Node6</title>
<g id="a_edge5_Node000002_Node000006"><a xlink:title=" ">
<path fill="none" stroke="#63b8ff" d="M1958.82,-172.86C1764.3,-170.74 1215.63,-162.04 760.5,-129 757.28,-128.77 753.99,-128.5 750.66,-128.21"/>
<polygon fill="#63b8ff" stroke="#63b8ff" points="1958.89,-176.36 1968.92,-172.97 1958.96,-169.36 1958.89,-176.36"/>
</a>
</g>
</g>
<!-- Node7 -->
<g id="Node000007" class="node">
<title>Node7</title>
<g id="a_Node000007"><a xlink:href="_discord_core_client_8cpp.html" target="_top" xlink:title=" ">
<polygon fill="white" stroke="#666666" points="894,-129 769,-129 769,-110 894,-110 894,-129"/>
<text text-anchor="middle" x="831.5" y="-117" font-family="Helvetica,sans-Serif" font-size="10.00">DiscordCoreClient.cpp</text>
</a>
</g>
</g>
<!-- Node2&#45;&gt;Node7 -->
<g id="edge6_Node000002_Node000007" class="edge">
<title>Node2&#45;&gt;Node7</title>
<g id="a_edge6_Node000002_Node000007"><a xlink:title=" ">
<path fill="none" stroke="#63b8ff" d="M1958.61,-172.59C1779.02,-169.94 1300.96,-160.25 903.5,-129 900.49,-128.76 897.41,-128.5 894.3,-128.21"/>
<polygon fill="#63b8ff" stroke="#63b8ff" points="1958.68,-176.1 1968.73,-172.74 1958.78,-169.1 1958.68,-176.1"/>
</a>
</g>
</g>
<!-- Node8 -->
<g id="Node000008" class="node">
<title>Node8</title>
<g id="a_Node000008"><a xlink:href="_event_manager_8cpp.html" target="_top" xlink:title=" ">
<polygon fill="white" stroke="#666666" points="1019,-129 912,-129 912,-110 1019,-110 1019,-129"/>
<text text-anchor="middle" x="965.5" y="-117" font-family="Helvetica,sans-Serif" font-size="10.00">EventManager.cpp</text>
</a>
</g>
</g>
<!-- Node2&#45;&gt;Node8 -->
<g id="edge7_Node000002_Node000008" class="edge">
<title>Node2&#45;&gt;Node8</title>
<g id="a_edge7_Node000002_Node000008"><a xlink:title=" ">
<path fill="none" stroke="#63b8ff" d="M1958.81,-172.51C1793.36,-169.77 1376.04,-160.09 1028.5,-129 1025.42,-128.72 1022.26,-128.41 1019.08,-128.06"/>
<polygon fill="#63b8ff" stroke="#63b8ff" points="1958.82,-176.01 1968.87,-172.67 1958.93,-169.01 1958.82,-176.01"/>
</a>
</g>
</g>
<!-- Node9 -->
<g id="Node000009" class="node">
<title>Node9</title>
<g id="a_Node000009"><a xlink:href="_foundation_entities_8cpp.html" target="_top" xlink:title=" ">
<polygon fill="white" stroke="#666666" points="1165.5,-129 1037.5,-129 1037.5,-110 1165.5,-110 1165.5,-129"/>
<text text-anchor="middle" x="1101.5" y="-117" font-family="Helvetica,sans-Serif" font-size="10.00">FoundationEntities.cpp</text>
</a>
</g>
</g>
<!-- Node2&#45;&gt;Node9 -->
<g id="edge8_Node000002_Node000009" class="edge">
<title>Node2&#45;&gt;Node9</title>
<g id="a_edge8_Node000002_Node000009"><a xlink:title=" ">
<path fill="none" stroke="#63b8ff" d="M1958.46,-171.29C1810.38,-166.45 1464.28,-153.37 1174.5,-129 1171.58,-128.75 1168.59,-128.48 1165.57,-128.2"/>
<polygon fill="#63b8ff" stroke="#63b8ff" points="1958.67,-174.79 1968.77,-171.62 1958.89,-167.8 1958.67,-174.79"/>
</a>
</g>
</g>
<!-- Node2&#45;&gt;Node10 -->
<g id="edge9_Node000002_Node000010" class="edge">
<title>Node2&#45;&gt;Node10</title>
<g id="a_edge9_Node000002_Node000010"><a xlink:title=" ">
<path fill="none" stroke="#63b8ff" d="M1958.68,-173.01C1653.62,-170.77 477.22,-160.25 107.5,-129 104.76,-128.77 101.96,-128.49 99.13,-128.18"/>
<polygon fill="#63b8ff" stroke="#63b8ff" points="1958.71,-176.51 1968.73,-173.08 1958.76,-169.51 1958.71,-176.51"/>
</a>
</g>
</g>
<!-- Node11 -->
<g id="Node000011" class="node">
<title>Node11</title>
<g id="a_Node000011"><a xlink:href="_guild_member_entities_8cpp.html" target="_top" xlink:title=" ">
<polygon fill="white" stroke="#666666" points="1323.5,-129 1183.5,-129 1183.5,-110 1323.5,-110 1323.5,-129"/>
<text text-anchor="middle" x="1253.5" y="-117" font-family="Helvetica,sans-Serif" font-size="10.00">GuildMemberEntities.cpp</text>
</a>
</g>
</g>
<!-- Node2&#45;&gt;Node11 -->
<g id="edge10_Node000002_Node000011" class="edge">
<title>Node2&#45;&gt;Node11</title>
<g id="a_edge10_Node000002_Node000011"><a xlink:title=" ">
<path fill="none" stroke="#63b8ff" d="M1958.87,-169.88C1831.92,-163.33 1561.44,-148.37 1333.5,-129 1330.3,-128.73 1327.03,-128.44 1323.72,-128.13"/>
<polygon fill="#63b8ff" stroke="#63b8ff" points="1958.7,-173.38 1968.87,-170.39 1959.06,-166.39 1958.7,-173.38"/>
</a>
</g>
</g>
<!-- Node12 -->
<g id="Node000012" class="node">
<title>Node12</title>
<g id="a_Node000012"><a xlink:href="_guild_scheduled_event_entities_8cpp.html" target="_top" xlink:title=" ">
<polygon fill="white" stroke="#666666" points="1519,-129 1342,-129 1342,-110 1519,-110 1519,-129"/>
<text text-anchor="middle" x="1430.5" y="-117" font-family="Helvetica,sans-Serif" font-size="10.00">GuildScheduledEventEntities.cpp</text>
</a>
</g>
</g>
<!-- Node2&#45;&gt;Node12 -->
<g id="edge11_Node000002_Node000012" class="edge">
<title>Node2&#45;&gt;Node12</title>
<g id="a_edge11_Node000002_Node000012"><a xlink:title=" ">
<path fill="none" stroke="#63b8ff" d="M1958.83,-167.09C1848.36,-157.35 1638.42,-138.84 1519.14,-128.32"/>
<polygon fill="#63b8ff" stroke="#63b8ff" points="1958.61,-170.59 1968.88,-167.98 1959.23,-163.61 1958.61,-170.59"/>
</a>
</g>
</g>
<!-- Node13 -->
<g id="Node000013" class="node">
<title>Node13</title>
<g id="a_Node000013"><a xlink:href="_https_client_8cpp.html" target="_top" xlink:title=" ">
<polygon fill="white" stroke="#666666" points="1629.5,-129 1537.5,-129 1537.5,-110 1629.5,-110 1629.5,-129"/>
<text text-anchor="middle" x="1583.5" y="-117" font-family="Helvetica,sans-Serif" font-size="10.00">HttpsClient.cpp</text>
</a>
</g>
</g>
<!-- Node2&#45;&gt;Node13 -->
<g id="edge12_Node000002_Node000013" class="edge">
<title>Node2&#45;&gt;Node13</title>
<g id="a_edge12_Node000002_Node000013"><a xlink:title=" ">
<path fill="none" stroke="#63b8ff" d="M1958.65,-166.06C1879.86,-157.82 1750.62,-143.73 1639.5,-129 1636.28,-128.57 1632.96,-128.12 1629.63,-127.64"/>
<polygon fill="#63b8ff" stroke="#63b8ff" points="1958.64,-169.58 1968.95,-167.13 1959.37,-162.61 1958.64,-169.58"/>
</a>
</g>
</g>
<!-- Node14 -->
<g id="Node000014" class="node">
<title>Node14</title>
<g id="a_Node000014"><a xlink:href="_input_events_8cpp.html" target="_top" xlink:title=" ">
<polygon fill="white" stroke="#666666" points="1743,-129 1648,-129 1648,-110 1743,-110 1743,-129"/>
<text text-anchor="middle" x="1695.5" y="-117" font-family="Helvetica,sans-Serif" font-size="10.00">InputEvents.cpp</text>
</a>
</g>
</g>
<!-- Node2&#45;&gt;Node14 -->
<g id="edge13_Node000002_Node000014" class="edge">
<title>Node2&#45;&gt;Node14</title>
<g id="a_edge13_Node000002_Node000014"><a xlink:title=" ">
<path fill="none" stroke="#63b8ff" d="M1967.32,-163.38C1901.86,-153.05 1801.81,-137.27 1743.1,-128.01"/>
<polygon fill="#63b8ff" stroke="#63b8ff" points="1967.09,-166.88 1977.52,-164.98 1968.18,-159.97 1967.09,-166.88"/>
</a>
</g>
</g>
<!-- Node15 -->
<g id="Node000015" class="node">
<title>Node15</title>
<g id="a_Node000015"><a xlink:href="_interaction_entities_8cpp.html" target="_top" xlink:title=" ">
<polygon fill="white" stroke="#666666" points="1887.5,-129 1761.5,-129 1761.5,-110 1887.5,-110 1887.5,-129"/>
<text text-anchor="middle" x="1824.5" y="-117" font-family="Helvetica,sans-Serif" font-size="10.00">InteractionEntities.cpp</text>
</a>
</g>
</g>
<!-- Node2&#45;&gt;Node15 -->
<g id="edge14_Node000002_Node000015" class="edge">
<title>Node2&#45;&gt;Node15</title>
<g id="a_edge14_Node000002_Node000015"><a xlink:title=" ">
<path fill="none" stroke="#63b8ff" d="M1988.29,-162.44C1949.54,-152.52 1893.47,-138.16 1858.02,-129.08"/>
<polygon fill="#63b8ff" stroke="#63b8ff" points="1987.69,-165.89 1998.24,-164.98 1989.42,-159.11 1987.69,-165.89"/>
</a>
</g>
</g>
<!-- Node16 -->
<g id="Node000016" class="node">
<title>Node16</title>
<g id="a_Node000016"><a xlink:href="_message_entities_8cpp.html" target="_top" xlink:title=" ">
<polygon fill="white" stroke="#666666" points="2023,-129 1906,-129 1906,-110 2023,-110 2023,-129"/>
<text text-anchor="middle" x="1964.5" y="-117" font-family="Helvetica,sans-Serif" font-size="10.00">MessageEntities.cpp</text>
</a>
</g>
</g>
<!-- Node2&#45;&gt;Node16 -->
<g id="edge15_Node000002_Node000016" class="edge">
<title>Node2&#45;&gt;Node16</title>
<g id="a_edge15_Node000002_Node000016"><a xlink:title=" ">
<path fill="none" stroke="#63b8ff" d="M2012.67,-158.6C2000.66,-149.11 1985.53,-137.13 1975.46,-129.17"/>
<polygon fill="#63b8ff" stroke="#63b8ff" points="2010.72,-161.53 2020.74,-164.98 2015.06,-156.04 2010.72,-161.53"/>
</a>
</g>
</g>
<!-- Node17 -->
<g id="Node000017" class="node">
<title>Node17</title>
<g id="a_Node000017"><a xlink:href="_reaction_entities_8cpp.html" target="_top" xlink:title=" ">
<polygon fill="white" stroke="#666666" points="2157.5,-129 2041.5,-129 2041.5,-110 2157.5,-110 2157.5,-129"/>
<text text-anchor="middle" x="2099.5" y="-117" font-family="Helvetica,sans-Serif" font-size="10.00">ReactionEntities.cpp</text>
</a>
</g>
</g>
<!-- Node2&#45;&gt;Node17 -->
<g id="edge16_Node000002_Node000017" class="edge">
<title>Node2&#45;&gt;Node17</title>
<g id="a_edge16_Node000002_Node000017"><a xlink:title=" ">
<path fill="none" stroke="#63b8ff" d="M2050.62,-158.6C2062.8,-149.11 2078.16,-137.13 2088.38,-129.17"/>
<polygon fill="#63b8ff" stroke="#63b8ff" points="2048.16,-156.08 2042.43,-164.98 2052.46,-161.6 2048.16,-156.08"/>
</a>
</g>
</g>
<!-- Node18 -->
<g id="Node000018" class="node">
<title>Node18</title>
<g id="a_Node000018"><a xlink:href="_role_entities_8cpp.html" target="_top" xlink:title=" ">
<polygon fill="white" stroke="#666666" points="2271,-129 2176,-129 2176,-110 2271,-110 2271,-129"/>
<text text-anchor="middle" x="2223.5" y="-117" font-family="Helvetica,sans-Serif" font-size="10.00">RoleEntities.cpp</text>
</a>
</g>
</g>
<!-- Node2&#45;&gt;Node18 -->
<g id="edge17_Node000002_Node000018" class="edge">
<title>Node2&#45;&gt;Node18</title>
<g id="a_edge17_Node000002_Node000018"><a xlink:title=" ">
<path fill="none" stroke="#63b8ff" d="M2072.03,-162.31C2107.96,-152.39 2159.66,-138.12 2192.41,-129.08"/>
<polygon fill="#63b8ff" stroke="#63b8ff" points="2071.06,-158.95 2062.35,-164.98 2072.92,-165.7 2071.06,-158.95"/>
</a>
</g>
</g>
<!-- Node2&#45;&gt;Node19 -->
<g id="edge18_Node000002_Node000019" class="edge">
<title>Node2&#45;&gt;Node19</title>
<g id="a_edge18_Node000002_Node000019"><a xlink:title=" ">
<path fill="none" stroke="#63b8ff" d="M2104.38,-172.92C2377.29,-170.52 3338.77,-160.02 3643.5,-129 3646.53,-128.69 3649.66,-128.3 3652.8,-127.86"/>
<polygon fill="#63b8ff" stroke="#63b8ff" points="2104.16,-169.42 2094.19,-173.01 2104.22,-176.42 2104.16,-169.42"/>
</a>
</g>
</g>
<!-- Node20 -->
<g id="Node000020" class="node">
<title>Node20</title>
<g id="a_Node000020"><a xlink:href="_sound_cloud_a_p_i_8cpp.html" target="_top" xlink:title=" ">
<polygon fill="white" stroke="#666666" points="2399.5,-129 2289.5,-129 2289.5,-110 2399.5,-110 2399.5,-129"/>
<text text-anchor="middle" x="2344.5" y="-117" font-family="Helvetica,sans-Serif" font-size="10.00">SoundCloudAPI.cpp</text>
</a>
</g>
</g>
<!-- Node2&#45;&gt;Node20 -->
<g id="edge19_Node000002_Node000020" class="edge">
<title>Node2&#45;&gt;Node20</title>
<g id="a_edge19_Node000002_Node000020"><a xlink:title=" ">
<path fill="none" stroke="#63b8ff" d="M2091.68,-163.31C2150.46,-153.36 2238.89,-138.38 2294.08,-129.04"/>
<polygon fill="#63b8ff" stroke="#63b8ff" points="2091.06,-159.86 2081.79,-164.98 2092.23,-166.77 2091.06,-159.86"/>
</a>
</g>
</g>
<!-- Node21 -->
<g id="Node000021" class="node">
<title>Node21</title>
<g id="a_Node000021"><a xlink:href="_stage_instance_entities_8cpp.html" target="_top" xlink:title=" ">
<polygon fill="white" stroke="#666666" points="2561,-129 2418,-129 2418,-110 2561,-110 2561,-129"/>
<text text-anchor="middle" x="2489.5" y="-117" font-family="Helvetica,sans-Serif" font-size="10.00">StageInstanceEntities.cpp</text>
</a>
</g>
</g>
<!-- Node2&#45;&gt;Node21 -->
<g id="edge20_Node000002_Node000021" class="edge">
<title>Node2&#45;&gt;Node21</title>
<g id="a_edge20_Node000002_Node000021"><a xlink:title=" ">
<path fill="none" stroke="#63b8ff" d="M2104.16,-165.09C2190.09,-155.15 2332.22,-138.7 2417.75,-128.8"/>
<polygon fill="#63b8ff" stroke="#63b8ff" points="2103.75,-161.62 2094.22,-166.24 2104.56,-168.57 2103.75,-161.62"/>
</a>
</g>
</g>
<!-- Node22 -->
<g id="Node000022" class="node">
<title>Node22</title>
<g id="a_Node000022"><a xlink:href="_sticker_entities_8cpp.html" target="_top" xlink:title=" ">
<polygon fill="white" stroke="#666666" points="2686,-129 2579,-129 2579,-110 2686,-110 2686,-129"/>
<text text-anchor="middle" x="2632.5" y="-117" font-family="Helvetica,sans-Serif" font-size="10.00">StickerEntities.cpp</text>
</a>
</g>
</g>
<!-- Node2&#45;&gt;Node22 -->
<g id="edge21_Node000002_Node000022" class="edge">
<title>Node2&#45;&gt;Node22</title>
<g id="a_edge21_Node000002_Node000022"><a xlink:title=" ">
<path fill="none" stroke="#63b8ff" d="M2104.31,-168.74C2207.99,-161.68 2404.07,-147.26 2570.5,-129 2573.2,-128.7 2575.96,-128.38 2578.75,-128.05"/>
<polygon fill="#63b8ff" stroke="#63b8ff" points="2104,-165.25 2094.26,-169.42 2104.47,-172.24 2104,-165.25"/>
</a>
</g>
</g>
<!-- Node23 -->
<g id="Node000023" class="node">
<title>Node23</title>
<g id="a_Node000023"><a xlink:href="_thread_entities_8cpp.html" target="_top" xlink:title=" ">
<polygon fill="white" stroke="#666666" points="2811,-129 2704,-129 2704,-110 2811,-110 2811,-129"/>
<text text-anchor="middle" x="2757.5" y="-117" font-family="Helvetica,sans-Serif" font-size="10.00">ThreadEntities.cpp</text>
</a>
</g>
</g>
<!-- Node2&#45;&gt;Node23 -->
<g id="edge22_Node000002_Node000023" class="edge">
<title>Node2&#45;&gt;Node23</title>
<g id="a_edge22_Node000002_Node000023"><a xlink:title=" ">
<path fill="none" stroke="#63b8ff" d="M2104.33,-170.27C2226.68,-164.48 2481.13,-150.85 2695.5,-129 2698.2,-128.72 2700.97,-128.42 2703.76,-128.1"/>
<polygon fill="#63b8ff" stroke="#63b8ff" points="2104.16,-166.78 2094.33,-170.74 2104.49,-173.77 2104.16,-166.78"/>
</a>
</g>
</g>
<!-- Node24 -->
<g id="Node000024" class="node">
<title>Node24</title>
<g id="a_Node000024"><a xlink:href="_to_entity_8hpp.html" target="_top" xlink:title=" ">
<polygon fill="white" stroke="#666666" points="2904,-129 2829,-129 2829,-110 2904,-110 2904,-129"/>
<text text-anchor="middle" x="2866.5" y="-117" font-family="Helvetica,sans-Serif" font-size="10.00">ToEntity.hpp</text>
</a>
</g>
</g>
<!-- Node2&#45;&gt;Node24 -->
<g id="edge23_Node000002_Node000024" class="edge">
<title>Node2&#45;&gt;Node24</title>
<g id="a_edge23_Node000002_Node000024"><a xlink:title=" ">
<path fill="none" stroke="#63b8ff" d="M2104.26,-172.46C2243.71,-169.8 2558.04,-160.52 2820.5,-129 2823.24,-128.67 2826.07,-128.28 2828.9,-127.85"/>
<polygon fill="#63b8ff" stroke="#63b8ff" points="2104.06,-168.97 2094.13,-172.65 2104.19,-175.97 2104.06,-168.97"/>
</a>
</g>
</g>
<!-- Node27 -->
<g id="Node000027" class="node">
<title>Node27</title>
<g id="a_Node000027"><a xlink:href="_user_entities_8cpp.html" target="_top" xlink:title=" ">
<polygon fill="white" stroke="#666666" points="3018.5,-129 2922.5,-129 2922.5,-110 3018.5,-110 3018.5,-129"/>
<text text-anchor="middle" x="2970.5" y="-117" font-family="Helvetica,sans-Serif" font-size="10.00">UserEntities.cpp</text>
</a>
</g>
</g>
<!-- Node2&#45;&gt;Node27 -->
<g id="edge26_Node000002_Node000027" class="edge">
<title>Node2&#45;&gt;Node27</title>
<g id="a_edge26_Node000002_Node000027"><a xlink:title=" ">
<path fill="none" stroke="#63b8ff" d="M2104.3,-172.23C2255.44,-169.06 2614.1,-158.8 2913.5,-129 2916.39,-128.71 2919.35,-128.38 2922.34,-128.02"/>
<polygon fill="#63b8ff" stroke="#63b8ff" points="2104.14,-168.73 2094.22,-172.44 2104.29,-175.73 2104.14,-168.73"/>
</a>
</g>
</g>
<!-- Node28 -->
<g id="Node000028" class="node">
<title>Node28</title>
<g id="a_Node000028"><a xlink:href="_utilities_8cpp.html" target="_top" xlink:title=" ">
<polygon fill="white" stroke="#666666" points="3112,-129 3037,-129 3037,-110 3112,-110 3112,-129"/>
<text text-anchor="middle" x="3074.5" y="-117" font-family="Helvetica,sans-Serif" font-size="10.00">Utilities.cpp</text>
</a>
</g>
</g>
<!-- Node2&#45;&gt;Node28 -->
<g id="edge27_Node000002_Node000028" class="edge">
<title>Node2&#45;&gt;Node28</title>
<g id="a_edge27_Node000002_Node000028"><a xlink:title=" ">
<path fill="none" stroke="#63b8ff" d="M2104.09,-173.59C2268.83,-173.06 2683.38,-167.63 3027.5,-129 3030.55,-128.66 3033.7,-128.24 3036.86,-127.77"/>
<polygon fill="#63b8ff" stroke="#63b8ff" points="2104.07,-170.09 2094.08,-173.61 2104.09,-177.09 2104.07,-170.09"/>
</a>
</g>
</g>
<!-- Node29 -->
<g id="Node000029" class="node">
<title>Node29</title>
<g id="a_Node000029"><a xlink:href="_voice_connection_8cpp.html" target="_top" xlink:title=" ">
<polygon fill="white" stroke="#666666" points="3248.5,-129 3130.5,-129 3130.5,-110 3248.5,-110 3248.5,-129"/>
<text text-anchor="middle" x="3189.5" y="-117" font-family="Helvetica,sans-Serif" font-size="10.00">VoiceConnection.cpp</text>
</a>
</g>
</g>
<!-- Node2&#45;&gt;Node29 -->
<g id="edge28_Node000002_Node000029" class="edge">
<title>Node2&#45;&gt;Node29</title>
<g id="a_edge28_Node000002_Node000029"><a xlink:title=" ">
<path fill="none" stroke="#63b8ff" d="M2104.43,-172.63C2279.88,-170.06 2739.35,-160.63 3121.5,-129 3124.35,-128.76 3127.26,-128.5 3130.19,-128.21"/>
<polygon fill="#63b8ff" stroke="#63b8ff" points="2104.23,-169.13 2094.28,-172.77 2104.33,-176.13 2104.23,-169.13"/>
</a>
</g>
</g>
<!-- Node30 -->
<g id="Node000030" class="node">
<title>Node30</title>
<g id="a_Node000030"><a xlink:href="_web_hook_entities_8cpp.html" target="_top" xlink:title=" ">
<polygon fill="white" stroke="#666666" points="3386.5,-129 3266.5,-129 3266.5,-110 3386.5,-110 3386.5,-129"/>
<text text-anchor="middle" x="3326.5" y="-117" font-family="Helvetica,sans-Serif" font-size="10.00">WebHookEntities.cpp</text>
</a>
</g>
</g>
<!-- Node2&#45;&gt;Node30 -->
<g id="edge29_Node000002_Node000030" class="edge">
<title>Node2&#45;&gt;Node30</title>
<g id="a_edge29_Node000002_Node000030"><a xlink:title=" ">
<path fill="none" stroke="#63b8ff" d="M2104.27,-173.05C2294.25,-171.39 2820.73,-163.76 3257.5,-129 3260.39,-128.77 3263.34,-128.51 3266.32,-128.22"/>
<polygon fill="#63b8ff" stroke="#63b8ff" points="2104.1,-169.55 2094.13,-173.13 2104.16,-176.55 2104.1,-169.55"/>
</a>
</g>
</g>
<!-- Node31 -->
<g id="Node000031" class="node">
<title>Node31</title>
<g id="a_Node000031"><a xlink:href="_web_socket_client_8cpp.html" target="_top" xlink:title=" ">
<polygon fill="white" stroke="#666666" points="3524,-129 3405,-129 3405,-110 3524,-110 3524,-129"/>
<text text-anchor="middle" x="3464.5" y="-117" font-family="Helvetica,sans-Serif" font-size="10.00">WebSocketClient.cpp</text>
</a>
</g>
</g>
<!-- Node2&#45;&gt;Node31 -->
<g id="edge30_Node000002_Node000031" class="edge">
<title>Node2&#45;&gt;Node31</title>
<g id="a_edge30_Node000002_Node000031"><a xlink:title=" ">
<path fill="none" stroke="#63b8ff" d="M2104.44,-173.43C2308.65,-172.72 2903.27,-167.27 3395.5,-129 3398.51,-128.77 3401.59,-128.5 3404.69,-128.2"/>
<polygon fill="#63b8ff" stroke="#63b8ff" points="2104.14,-169.93 2094.15,-173.46 2104.16,-176.93 2104.14,-169.93"/>
</a>
</g>
</g>
<!-- Node32 -->
<g id="Node000032" class="node">
<title>Node32</title>
<g id="a_Node000032"><a xlink:href="_you_tube_a_p_i_8cpp.html" target="_top" xlink:title=" ">
<polygon fill="white" stroke="#666666" points="3634.5,-129 3542.5,-129 3542.5,-110 3634.5,-110 3634.5,-129"/>
<text text-anchor="middle" x="3588.5" y="-117" font-family="Helvetica,sans-Serif" font-size="10.00">YouTubeAPI.cpp</text>
</a>
</g>
</g>
<!-- Node2&#45;&gt;Node32 -->
<g id="edge31_Node000002_Node000032" class="edge">
<title>Node2&#45;&gt;Node32</title>
<g id="a_edge31_Node000002_Node000032"><a xlink:title=" ">
<path fill="none" stroke="#63b8ff" d="M2104.14,-172.54C2364.57,-168.91 3251.02,-154.91 3533.5,-129 3536.39,-128.74 3539.35,-128.42 3542.34,-128.06"/>
<polygon fill="#63b8ff" stroke="#63b8ff" points="2103.99,-169.04 2094.04,-172.68 2104.08,-176.04 2103.99,-169.04"/>
</a>
</g>
</g>
<!-- Node25 -->
<g id="Node000025" class="node">
<title>Node25</title>
<g id="a_Node000025"><a xlink:href="_index_8hpp.html" target="_top" xlink:title=" ">
<polygon fill="white" stroke="#666666" points="2899,-74 2834,-74 2834,-55 2899,-55 2899,-74"/>
<text text-anchor="middle" x="2866.5" y="-62" font-family="Helvetica,sans-Serif" font-size="10.00">Index.hpp</text>
</a>
</g>
</g>
<!-- Node24&#45;&gt;Node25 -->
<g id="edge24_Node000024_Node000025" class="edge">
<title>Node24&#45;&gt;Node25</title>
<g id="a_edge24_Node000024_Node000025"><a xlink:title=" ">
<path fill="none" stroke="#63b8ff" d="M2866.5,-99.66C2866.5,-90.93 2866.5,-80.99 2866.5,-74.09"/>
<polygon fill="#63b8ff" stroke="#63b8ff" points="2863,-99.75 2866.5,-109.75 2870,-99.75 2863,-99.75"/>
</a>
</g>
</g>
<!-- Node26 -->
<g id="Node000026" class="node">
<title>Node26</title>
<g id="a_Node000026"><a xlink:href="_dll_main_8cpp.html" target="_top" xlink:title=" ">
<polygon fill="white" stroke="#666666" points="2903.5,-19 2829.5,-19 2829.5,0 2903.5,0 2903.5,-19"/>
<text text-anchor="middle" x="2866.5" y="-7" font-family="Helvetica,sans-Serif" font-size="10.00">DllMain.cpp</text>
</a>
</g>
</g>
<!-- Node25&#45;&gt;Node26 -->
<g id="edge25_Node000025_Node000026" class="edge">
<title>Node25&#45;&gt;Node26</title>
<g id="a_edge25_Node000025_Node000026"><a xlink:title=" ">
<path fill="none" stroke="#63b8ff" d="M2866.5,-44.66C2866.5,-35.93 2866.5,-25.99 2866.5,-19.09"/>
<polygon fill="#63b8ff" stroke="#63b8ff" points="2863,-44.75 2866.5,-54.75 2870,-44.75 2863,-44.75"/>
</a>
</g>
</g>
</g>
</svg>
