<?xml version="1.0" encoding="UTF-8" standalone="no"?>
<!DOCTYPE svg PUBLIC "-//W3C//DTD SVG 1.1//EN"
 "http://www.w3.org/Graphics/SVG/1.1/DTD/svg11.dtd">
<!-- Generated by graphviz version 2.43.0 (0)
 -->
<!-- Title: SoundCloudAPI.hpp Pages: 1 -->
<svg width="3738pt" height="247pt"
 viewBox="0.00 0.00 3737.50 247.00" xmlns="http://www.w3.org/2000/svg" xmlns:xlink="http://www.w3.org/1999/xlink">
<g id="graph0" class="graph" transform="scale(1 1) rotate(0) translate(4 243)">
<title>SoundCloudAPI.hpp</title>
<!-- Node1 -->
<g id="Node000001" class="node">
<title>Node1</title>
<g id="a_Node000001"><a xlink:title=" ">
<polygon fill="#999999" stroke="#666666" points="1878,-239 1767,-239 1767,-220 1878,-220 1878,-239"/>
<text text-anchor="middle" x="1822.5" y="-227" font-family="Helvetica,sans-Serif" font-size="10.00">SoundCloudAPI.hpp</text>
</a>
</g>
</g>
<!-- Node2 -->
<g id="Node000002" class="node">
<title>Node2</title>
<g id="a_Node000002"><a xlink:href="_discord_core_client_8hpp.html" target="_top" xlink:title=" ">
<polygon fill="white" stroke="#666666" points="1840,-184 1715,-184 1715,-165 1840,-165 1840,-184"/>
<text text-anchor="middle" x="1777.5" y="-172" font-family="Helvetica,sans-Serif" font-size="10.00">DiscordCoreClient.hpp</text>
</a>
</g>
</g>
<!-- Node1&#45;&gt;Node2 -->
<g id="edge1_Node000001_Node000002" class="edge">
<title>Node1&#45;&gt;Node2</title>
<g id="a_edge1_Node000001_Node000002"><a xlink:title=" ">
<path fill="none" stroke="#63b8ff" d="M1808.45,-211.96C1800.61,-202.72 1791.17,-191.6 1784.79,-184.09"/>
<polygon fill="#63b8ff" stroke="#63b8ff" points="1805.93,-214.39 1815.07,-219.75 1811.26,-209.86 1805.93,-214.39"/>
</a>
</g>
</g>
<!-- Node10 -->
<g id="Node000010" class="node">
<title>Node10</title>
<g id="a_Node000010"><a xlink:href="_guild_entities_8cpp.html" target="_top" xlink:title=" ">
<polygon fill="white" stroke="#666666" points="99,-129 0,-129 0,-110 99,-110 99,-129"/>
<text text-anchor="middle" x="49.5" y="-117" font-family="Helvetica,sans-Serif" font-size="10.00">GuildEntities.cpp</text>
</a>
</g>
</g>
<!-- Node1&#45;&gt;Node10 -->
<g id="edge32_Node000001_Node000010" class="edge">
<title>Node1&#45;&gt;Node10</title>
<g id="a_edge32_Node000001_Node000010"><a xlink:title=" ">
<path fill="none" stroke="#63b8ff" d="M1756.74,-226.7C1528.41,-220.01 748.88,-193.6 108.5,-129 105.41,-128.69 102.24,-128.33 99.04,-127.95"/>
<polygon fill="#63b8ff" stroke="#63b8ff" points="1756.78,-230.2 1766.87,-226.99 1756.98,-223.2 1756.78,-230.2"/>
</a>
</g>
</g>
<!-- Node19 -->
<g id="Node000019" class="node">
<title>Node19</title>
<g id="a_Node000019"><a xlink:href="_song_a_p_i_8cpp.html" target="_top" xlink:title=" ">
<polygon fill="white" stroke="#666666" points="3601,-129 3524,-129 3524,-110 3601,-110 3601,-129"/>
<text text-anchor="middle" x="3562.5" y="-117" font-family="Helvetica,sans-Serif" font-size="10.00">SongAPI.cpp</text>
</a>
</g>
</g>
<!-- Node1&#45;&gt;Node19 -->
<g id="edge33_Node000001_Node000019" class="edge">
<title>Node1&#45;&gt;Node19</title>
<g id="a_edge33_Node000001_Node000019"><a xlink:title=" ">
<path fill="none" stroke="#63b8ff" d="M1888.32,-227.47C2115.14,-223.34 2884.93,-204.27 3515.5,-129 3518.22,-128.68 3521.01,-128.29 3523.83,-127.87"/>
<polygon fill="#63b8ff" stroke="#63b8ff" points="1888.19,-223.98 1878.25,-227.66 1888.31,-230.98 1888.19,-223.98"/>
</a>
</g>
</g>
<!-- Node20 -->
<g id="Node000020" class="node">
<title>Node20</title>
<g id="a_Node000020"><a xlink:href="_sound_cloud_a_p_i_8cpp.html" target="_top" xlink:title=" ">
<polygon fill="white" stroke="#666666" points="3729.5,-129 3619.5,-129 3619.5,-110 3729.5,-110 3729.5,-129"/>
<text text-anchor="middle" x="3674.5" y="-117" font-family="Helvetica,sans-Serif" font-size="10.00">SoundCloudAPI.cpp</text>
</a>
</g>
</g>
<!-- Node1&#45;&gt;Node20 -->
<g id="edge34_Node000001_Node000020" class="edge">
<title>Node1&#45;&gt;Node20</title>
<g id="a_edge34_Node000001_Node000020"><a xlink:title=" ">
<path fill="none" stroke="#63b8ff" d="M1888.2,-227.49C2071.19,-224.38 2602.23,-213.32 3042.5,-184 3295.56,-167.15 3358.53,-157.92 3610.5,-129 3613.4,-128.67 3616.36,-128.32 3619.36,-127.95"/>
<polygon fill="#63b8ff" stroke="#63b8ff" points="1888.13,-223.99 1878.19,-227.66 1888.25,-230.99 1888.13,-223.99"/>
</a>
</g>
</g>
<!-- Node3 -->
<g id="Node000003" class="node">
<title>Node3</title>
<g id="a_Node000003"><a xlink:href="_application_command_entities_8cpp.html" target="_top" xlink:title=" ">
<polygon fill="white" stroke="#666666" points="2283,-129 2104,-129 2104,-110 2283,-110 2283,-129"/>
<text text-anchor="middle" x="2193.5" y="-117" font-family="Helvetica,sans-Serif" font-size="10.00">ApplicationCommandEntities.cpp</text>
</a>
</g>
</g>
<!-- Node2&#45;&gt;Node3 -->
<g id="edge2_Node000002_Node000003" class="edge">
<title>Node2&#45;&gt;Node3</title>
<g id="a_edge2_Node000002_Node000003"><a xlink:title=" ">
<path fill="none" stroke="#63b8ff" d="M1850.45,-164.21C1928.38,-154.28 2050.88,-138.67 2126.46,-129.04"/>
<polygon fill="#63b8ff" stroke="#63b8ff" points="1849.71,-160.77 1840.23,-165.51 1850.59,-167.72 1849.71,-160.77"/>
</a>
</g>
</g>
<!-- Node4 -->
<g id="Node000004" class="node">
<title>Node4</title>
<g id="a_Node000004"><a xlink:href="_auto_moderation_entities_8cpp.html" target="_top" xlink:title=" ">
<polygon fill="white" stroke="#666666" points="2453.5,-129 2301.5,-129 2301.5,-110 2453.5,-110 2453.5,-129"/>
<text text-anchor="middle" x="2377.5" y="-117" font-family="Helvetica,sans-Serif" font-size="10.00">AutoModerationEntities.cpp</text>
</a>
</g>
</g>
<!-- Node2&#45;&gt;Node4 -->
<g id="edge3_Node000002_Node000004" class="edge">
<title>Node2&#45;&gt;Node4</title>
<g id="a_edge3_Node000002_Node000004"><a xlink:title=" ">
<path fill="none" stroke="#63b8ff" d="M1850.12,-167.54C1949.87,-159.27 2134.84,-143.69 2292.5,-129 2295.31,-128.74 2298.16,-128.47 2301.05,-128.19"/>
<polygon fill="#63b8ff" stroke="#63b8ff" points="1849.83,-164.05 1840.15,-168.36 1850.41,-171.02 1849.83,-164.05"/>
</a>
</g>
</g>
<!-- Node5 -->
<g id="Node000005" class="node">
<title>Node5</title>
<g id="a_Node000005"><a xlink:href="_channel_entities_8cpp.html" target="_top" xlink:title=" ">
<polygon fill="white" stroke="#666666" points="2585,-129 2472,-129 2472,-110 2585,-110 2585,-129"/>
<text text-anchor="middle" x="2528.5" y="-117" font-family="Helvetica,sans-Serif" font-size="10.00">ChannelEntities.cpp</text>
</a>
</g>
</g>
<!-- Node2&#45;&gt;Node5 -->
<g id="edge4_Node000002_Node000005" class="edge">
<title>Node2&#45;&gt;Node5</title>
<g id="a_edge4_Node000002_Node000005"><a xlink:title=" ">
<path fill="none" stroke="#63b8ff" d="M1850.66,-170.27C1976.07,-164.39 2240.11,-150.52 2462.5,-129 2465.49,-128.71 2468.55,-128.39 2471.64,-128.05"/>
<polygon fill="#63b8ff" stroke="#63b8ff" points="1850.24,-166.78 1840.41,-170.75 1850.56,-173.78 1850.24,-166.78"/>
</a>
</g>
</g>
<!-- Node6 -->
<g id="Node000006" class="node">
<title>Node6</title>
<g id="a_Node000006"><a xlink:href="_command_controller_8cpp.html" target="_top" xlink:title=" ">
<polygon fill="white" stroke="#666666" points="2737.5,-129 2603.5,-129 2603.5,-110 2737.5,-110 2737.5,-129"/>
<text text-anchor="middle" x="2670.5" y="-117" font-family="Helvetica,sans-Serif" font-size="10.00">CommandController.cpp</text>
</a>
</g>
</g>
<!-- Node2&#45;&gt;Node6 -->
<g id="edge5_Node000002_Node000006" class="edge">
<title>Node2&#45;&gt;Node6</title>
<g id="a_edge5_Node000002_Node000006"><a xlink:title=" ">
<path fill="none" stroke="#63b8ff" d="M1850.49,-170.92C1993.46,-165.56 2320.36,-151.78 2594.5,-129 2597.41,-128.76 2600.38,-128.5 2603.38,-128.22"/>
<polygon fill="#63b8ff" stroke="#63b8ff" points="1849.97,-167.44 1840.11,-171.31 1850.23,-174.43 1849.97,-167.44"/>
</a>
</g>
</g>
<!-- Node7 -->
<g id="Node000007" class="node">
<title>Node7</title>
<g id="a_Node000007"><a xlink:href="_discord_core_client_8cpp.html" target="_top" xlink:title=" ">
<polygon fill="white" stroke="#666666" points="2881,-129 2756,-129 2756,-110 2881,-110 2881,-129"/>
<text text-anchor="middle" x="2818.5" y="-117" font-family="Helvetica,sans-Serif" font-size="10.00">DiscordCoreClient.cpp</text>
</a>
</g>
</g>
<!-- Node2&#45;&gt;Node7 -->
<g id="edge6_Node000002_Node000007" class="edge">
<title>Node2&#45;&gt;Node7</title>
<g id="a_edge6_Node000002_Node000007"><a xlink:title=" ">
<path fill="none" stroke="#63b8ff" d="M1850.53,-171.93C2012.21,-168.07 2412.48,-156.35 2746.5,-129 2749.51,-128.75 2752.59,-128.48 2755.7,-128.18"/>
<polygon fill="#63b8ff" stroke="#63b8ff" points="1850.15,-168.44 1840.23,-172.18 1850.31,-175.44 1850.15,-168.44"/>
</a>
</g>
</g>
<!-- Node8 -->
<g id="Node000008" class="node">
<title>Node8</title>
<g id="a_Node000008"><a xlink:href="_event_manager_8cpp.html" target="_top" xlink:title=" ">
<polygon fill="white" stroke="#666666" points="3006,-129 2899,-129 2899,-110 3006,-110 3006,-129"/>
<text text-anchor="middle" x="2952.5" y="-117" font-family="Helvetica,sans-Serif" font-size="10.00">EventManager.cpp</text>
</a>
</g>
</g>
<!-- Node2&#45;&gt;Node8 -->
<g id="edge7_Node000002_Node000008" class="edge">
<title>Node2&#45;&gt;Node8</title>
<g id="a_edge7_Node000002_Node000008"><a xlink:title=" ">
<path fill="none" stroke="#63b8ff" d="M1850.1,-173.01C2027.89,-171.3 2499.11,-163.57 2890.5,-129 2893.21,-128.76 2895.97,-128.49 2898.77,-128.19"/>
<polygon fill="#63b8ff" stroke="#63b8ff" points="1850.05,-169.51 1840.09,-173.11 1850.12,-176.51 1850.05,-169.51"/>
</a>
</g>
</g>
<!-- Node9 -->
<g id="Node000009" class="node">
<title>Node9</title>
<g id="a_Node000009"><a xlink:href="_foundation_entities_8cpp.html" target="_top" xlink:title=" ">
<polygon fill="white" stroke="#666666" points="3152.5,-129 3024.5,-129 3024.5,-110 3152.5,-110 3152.5,-129"/>
<text text-anchor="middle" x="3088.5" y="-117" font-family="Helvetica,sans-Serif" font-size="10.00">FoundationEntities.cpp</text>
</a>
</g>
</g>
<!-- Node2&#45;&gt;Node9 -->
<g id="edge8_Node000002_Node000009" class="edge">
<title>Node2&#45;&gt;Node9</title>
<g id="a_edge8_Node000002_Node000009"><a xlink:title=" ">
<path fill="none" stroke="#63b8ff" d="M1850.28,-172.92C2041.51,-170.94 2573.82,-162.6 3015.5,-129 3018.43,-128.78 3021.42,-128.53 3024.43,-128.25"/>
<polygon fill="#63b8ff" stroke="#63b8ff" points="1850.04,-169.42 1840.08,-173.02 1850.11,-176.42 1850.04,-169.42"/>
</a>
</g>
</g>
<!-- Node2&#45;&gt;Node10 -->
<g id="edge9_Node000002_Node000010" class="edge">
<title>Node2&#45;&gt;Node10</title>
<g id="a_edge9_Node000002_Node000010"><a xlink:title=" ">
<path fill="none" stroke="#63b8ff" d="M1704.45,-172.69C1425.24,-169.4 425.37,-155.96 108.5,-129 105.41,-128.74 102.23,-128.42 99.03,-128.06"/>
<polygon fill="#63b8ff" stroke="#63b8ff" points="1704.82,-176.19 1714.86,-172.81 1704.9,-169.19 1704.82,-176.19"/>
</a>
</g>
</g>
<!-- Node11 -->
<g id="Node000011" class="node">
<title>Node11</title>
<g id="a_Node000011"><a xlink:href="_guild_member_entities_8cpp.html" target="_top" xlink:title=" ">
<polygon fill="white" stroke="#666666" points="3310.5,-129 3170.5,-129 3170.5,-110 3310.5,-110 3310.5,-129"/>
<text text-anchor="middle" x="3240.5" y="-117" font-family="Helvetica,sans-Serif" font-size="10.00">GuildMemberEntities.cpp</text>
</a>
</g>
</g>
<!-- Node2&#45;&gt;Node11 -->
<g id="edge10_Node000002_Node000011" class="edge">
<title>Node2&#45;&gt;Node11</title>
<g id="a_edge10_Node000002_Node000011"><a xlink:title=" ">
<path fill="none" stroke="#63b8ff" d="M1850.08,-173.08C2055.87,-171.49 2660.64,-163.95 3161.5,-129 3164.39,-128.8 3167.34,-128.57 3170.31,-128.33"/>
<polygon fill="#63b8ff" stroke="#63b8ff" points="1849.98,-169.58 1840,-173.16 1850.03,-176.58 1849.98,-169.58"/>
</a>
</g>
</g>
<!-- Node12 -->
<g id="Node000012" class="node">
<title>Node12</title>
<g id="a_Node000012"><a xlink:href="_guild_scheduled_event_entities_8cpp.html" target="_top" xlink:title=" ">
<polygon fill="white" stroke="#666666" points="3506,-129 3329,-129 3329,-110 3506,-110 3506,-129"/>
<text text-anchor="middle" x="3417.5" y="-117" font-family="Helvetica,sans-Serif" font-size="10.00">GuildScheduledEventEntities.cpp</text>
</a>
</g>
</g>
<!-- Node2&#45;&gt;Node12 -->
<g id="edge11_Node000002_Node000012" class="edge">
<title>Node2&#45;&gt;Node12</title>
<g id="a_edge11_Node000002_Node000012"><a xlink:title=" ">
<path fill="none" stroke="#63b8ff" d="M1850.54,-172.89C2071.87,-170.71 2754.61,-161.62 3319.5,-129 3322.57,-128.82 3325.69,-128.63 3328.84,-128.42"/>
<polygon fill="#63b8ff" stroke="#63b8ff" points="1850.31,-169.39 1840.35,-172.99 1850.38,-176.39 1850.31,-169.39"/>
</a>
</g>
</g>
<!-- Node13 -->
<g id="Node000013" class="node">
<title>Node13</title>
<g id="a_Node000013"><a xlink:href="_https_client_8cpp.html" target="_top" xlink:title=" ">
<polygon fill="white" stroke="#666666" points="209.5,-129 117.5,-129 117.5,-110 209.5,-110 209.5,-129"/>
<text text-anchor="middle" x="163.5" y="-117" font-family="Helvetica,sans-Serif" font-size="10.00">HttpsClient.cpp</text>
</a>
</g>
</g>
<!-- Node2&#45;&gt;Node13 -->
<g id="edge12_Node000002_Node000013" class="edge">
<title>Node2&#45;&gt;Node13</title>
<g id="a_edge12_Node000002_Node000013"><a xlink:title=" ">
<path fill="none" stroke="#63b8ff" d="M1704.39,-172.63C1437.01,-169.24 512.54,-155.81 218.5,-129 215.61,-128.74 212.65,-128.42 209.66,-128.06"/>
<polygon fill="#63b8ff" stroke="#63b8ff" points="1704.71,-176.13 1714.75,-172.76 1704.8,-169.13 1704.71,-176.13"/>
</a>
</g>
</g>
<!-- Node14 -->
<g id="Node000014" class="node">
<title>Node14</title>
<g id="a_Node000014"><a xlink:href="_input_events_8cpp.html" target="_top" xlink:title=" ">
<polygon fill="white" stroke="#666666" points="323,-129 228,-129 228,-110 323,-110 323,-129"/>
<text text-anchor="middle" x="275.5" y="-117" font-family="Helvetica,sans-Serif" font-size="10.00">InputEvents.cpp</text>
</a>
</g>
</g>
<!-- Node2&#45;&gt;Node14 -->
<g id="edge13_Node000002_Node000014" class="edge">
<title>Node2&#45;&gt;Node14</title>
<g id="a_edge13_Node000002_Node000014"><a xlink:title=" ">
<path fill="none" stroke="#63b8ff" d="M1704.67,-172.39C1450.45,-168.33 603.26,-153.27 332.5,-129 329.41,-128.72 326.23,-128.39 323.04,-128.01"/>
<polygon fill="#63b8ff" stroke="#63b8ff" points="1704.84,-175.89 1714.9,-172.55 1704.95,-168.89 1704.84,-175.89"/>
</a>
</g>
</g>
<!-- Node15 -->
<g id="Node000015" class="node">
<title>Node15</title>
<g id="a_Node000015"><a xlink:href="_interaction_entities_8cpp.html" target="_top" xlink:title=" ">
<polygon fill="white" stroke="#666666" points="467.5,-129 341.5,-129 341.5,-110 467.5,-110 467.5,-129"/>
<text text-anchor="middle" x="404.5" y="-117" font-family="Helvetica,sans-Serif" font-size="10.00">InteractionEntities.cpp</text>
</a>
</g>
</g>
<!-- Node2&#45;&gt;Node15 -->
<g id="edge14_Node000002_Node000015" class="edge">
<title>Node2&#45;&gt;Node15</title>
<g id="a_edge14_Node000002_Node000015"><a xlink:title=" ">
<path fill="none" stroke="#63b8ff" d="M1704.57,-173.09C1506.83,-171.53 944.02,-164.09 477.5,-129 474.32,-128.76 471.06,-128.49 467.78,-128.19"/>
<polygon fill="#63b8ff" stroke="#63b8ff" points="1704.8,-176.59 1714.83,-173.17 1704.85,-169.59 1704.8,-176.59"/>
</a>
</g>
</g>
<!-- Node16 -->
<g id="Node000016" class="node">
<title>Node16</title>
<g id="a_Node000016"><a xlink:href="_message_entities_8cpp.html" target="_top" xlink:title=" ">
<polygon fill="white" stroke="#666666" points="603,-129 486,-129 486,-110 603,-110 603,-129"/>
<text text-anchor="middle" x="544.5" y="-117" font-family="Helvetica,sans-Serif" font-size="10.00">MessageEntities.cpp</text>
</a>
</g>
</g>
<!-- Node2&#45;&gt;Node16 -->
<g id="edge15_Node000002_Node000016" class="edge">
<title>Node2&#45;&gt;Node16</title>
<g id="a_edge15_Node000002_Node000016"><a xlink:title=" ">
<path fill="none" stroke="#63b8ff" d="M1704.81,-172.9C1521.35,-170.91 1024.82,-162.58 612.5,-129 609.42,-128.75 606.26,-128.46 603.07,-128.15"/>
<polygon fill="#63b8ff" stroke="#63b8ff" points="1704.84,-176.4 1714.87,-173 1704.91,-169.4 1704.84,-176.4"/>
</a>
</g>
</g>
<!-- Node17 -->
<g id="Node000017" class="node">
<title>Node17</title>
<g id="a_Node000017"><a xlink:href="_reaction_entities_8cpp.html" target="_top" xlink:title=" ">
<polygon fill="white" stroke="#666666" points="737.5,-129 621.5,-129 621.5,-110 737.5,-110 737.5,-129"/>
<text text-anchor="middle" x="679.5" y="-117" font-family="Helvetica,sans-Serif" font-size="10.00">ReactionEntities.cpp</text>
</a>
</g>
</g>
<!-- Node2&#45;&gt;Node17 -->
<g id="edge16_Node000002_Node000017" class="edge">
<title>Node2&#45;&gt;Node17</title>
<g id="a_edge16_Node000002_Node000017"><a xlink:title=" ">
<path fill="none" stroke="#63b8ff" d="M1704.74,-172.38C1536.16,-169.36 1105.86,-159.09 747.5,-129 744.3,-128.73 741.02,-128.42 737.71,-128.09"/>
<polygon fill="#63b8ff" stroke="#63b8ff" points="1704.92,-175.89 1714.98,-172.57 1705.04,-168.89 1704.92,-175.89"/>
</a>
</g>
</g>
<!-- Node18 -->
<g id="Node000018" class="node">
<title>Node18</title>
<g id="a_Node000018"><a xlink:href="_role_entities_8cpp.html" target="_top" xlink:title=" ">
<polygon fill="white" stroke="#666666" points="851,-129 756,-129 756,-110 851,-110 851,-129"/>
<text text-anchor="middle" x="803.5" y="-117" font-family="Helvetica,sans-Serif" font-size="10.00">RoleEntities.cpp</text>
</a>
</g>
</g>
<!-- Node2&#45;&gt;Node18 -->
<g id="edge17_Node000002_Node000018" class="edge">
<title>Node2&#45;&gt;Node18</title>
<g id="a_edge17_Node000002_Node000018"><a xlink:title=" ">
<path fill="none" stroke="#63b8ff" d="M1704.43,-172.42C1548.86,-169.58 1173.52,-159.86 860.5,-129 857.41,-128.7 854.24,-128.34 851.04,-127.95"/>
<polygon fill="#63b8ff" stroke="#63b8ff" points="1704.74,-175.93 1714.8,-172.61 1704.87,-168.93 1704.74,-175.93"/>
</a>
</g>
</g>
<!-- Node2&#45;&gt;Node19 -->
<g id="edge18_Node000002_Node000019" class="edge">
<title>Node2&#45;&gt;Node19</title>
<g id="a_edge18_Node000002_Node000019"><a xlink:title=" ">
<path fill="none" stroke="#63b8ff" d="M1850.26,-173.12C2136.41,-171.42 3184.8,-162.94 3515.5,-129 3518.22,-128.72 3521.02,-128.37 3523.84,-127.98"/>
<polygon fill="#63b8ff" stroke="#63b8ff" points="1849.98,-169.63 1840.01,-173.18 1850.03,-176.63 1849.98,-169.63"/>
</a>
</g>
</g>
<!-- Node2&#45;&gt;Node20 -->
<g id="edge19_Node000002_Node000020" class="edge">
<title>Node2&#45;&gt;Node20</title>
<g id="a_edge19_Node000002_Node000020"><a xlink:title=" ">
<path fill="none" stroke="#63b8ff" d="M1850.24,-172.78C2146.03,-169.7 3259.43,-156.49 3610.5,-129 3613.41,-128.77 3616.38,-128.5 3619.38,-128.2"/>
<polygon fill="#63b8ff" stroke="#63b8ff" points="1850.03,-169.28 1840.07,-172.89 1850.1,-176.28 1850.03,-169.28"/>
</a>
</g>
</g>
<!-- Node21 -->
<g id="Node000021" class="node">
<title>Node21</title>
<g id="a_Node000021"><a xlink:href="_stage_instance_entities_8cpp.html" target="_top" xlink:title=" ">
<polygon fill="white" stroke="#666666" points="1012,-129 869,-129 869,-110 1012,-110 1012,-129"/>
<text text-anchor="middle" x="940.5" y="-117" font-family="Helvetica,sans-Serif" font-size="10.00">StageInstanceEntities.cpp</text>
</a>
</g>
</g>
<!-- Node2&#45;&gt;Node21 -->
<g id="edge20_Node000002_Node000021" class="edge">
<title>Node2&#45;&gt;Node21</title>
<g id="a_edge20_Node000002_Node000021"><a xlink:title=" ">
<path fill="none" stroke="#63b8ff" d="M1704.49,-170.31C1569.5,-164.18 1271.81,-149.49 1021.5,-129 1018.4,-128.75 1015.23,-128.47 1012.04,-128.19"/>
<polygon fill="#63b8ff" stroke="#63b8ff" points="1704.56,-173.82 1714.71,-170.78 1704.88,-166.83 1704.56,-173.82"/>
</a>
</g>
</g>
<!-- Node22 -->
<g id="Node000022" class="node">
<title>Node22</title>
<g id="a_Node000022"><a xlink:href="_sticker_entities_8cpp.html" target="_top" xlink:title=" ">
<polygon fill="white" stroke="#666666" points="1137,-129 1030,-129 1030,-110 1137,-110 1137,-129"/>
<text text-anchor="middle" x="1083.5" y="-117" font-family="Helvetica,sans-Serif" font-size="10.00">StickerEntities.cpp</text>
</a>
</g>
</g>
<!-- Node2&#45;&gt;Node22 -->
<g id="edge21_Node000002_Node000022" class="edge">
<title>Node2&#45;&gt;Node22</title>
<g id="a_edge21_Node000002_Node000022"><a xlink:title=" ">
<path fill="none" stroke="#63b8ff" d="M1704.37,-169.86C1586.67,-163.66 1347.99,-149.68 1146.5,-129 1143.43,-128.68 1140.27,-128.34 1137.09,-127.97"/>
<polygon fill="#63b8ff" stroke="#63b8ff" points="1704.52,-173.37 1714.69,-170.4 1704.89,-166.38 1704.52,-173.37"/>
</a>
</g>
</g>
<!-- Node23 -->
<g id="Node000023" class="node">
<title>Node23</title>
<g id="a_Node000023"><a xlink:href="_thread_entities_8cpp.html" target="_top" xlink:title=" ">
<polygon fill="white" stroke="#666666" points="1262,-129 1155,-129 1155,-110 1262,-110 1262,-129"/>
<text text-anchor="middle" x="1208.5" y="-117" font-family="Helvetica,sans-Serif" font-size="10.00">ThreadEntities.cpp</text>
</a>
</g>
</g>
<!-- Node2&#45;&gt;Node23 -->
<g id="edge22_Node000002_Node000023" class="edge">
<title>Node2&#45;&gt;Node23</title>
<g id="a_edge22_Node000002_Node000023"><a xlink:title=" ">
<path fill="none" stroke="#63b8ff" d="M1704.56,-168.15C1606.12,-160.69 1425.35,-146.13 1271.5,-129 1268.43,-128.66 1265.28,-128.29 1262.1,-127.9"/>
<polygon fill="#63b8ff" stroke="#63b8ff" points="1704.46,-171.66 1714.69,-168.92 1704.99,-164.68 1704.46,-171.66"/>
</a>
</g>
</g>
<!-- Node24 -->
<g id="Node000024" class="node">
<title>Node24</title>
<g id="a_Node000024"><a xlink:href="_to_entity_8hpp.html" target="_top" xlink:title=" ">
<polygon fill="white" stroke="#666666" points="1355,-129 1280,-129 1280,-110 1355,-110 1355,-129"/>
<text text-anchor="middle" x="1317.5" y="-117" font-family="Helvetica,sans-Serif" font-size="10.00">ToEntity.hpp</text>
</a>
</g>
</g>
<!-- Node2&#45;&gt;Node24 -->
<g id="edge23_Node000002_Node000024" class="edge">
<title>Node2&#45;&gt;Node24</title>
<g id="a_edge23_Node000002_Node000024"><a xlink:title=" ">
<path fill="none" stroke="#63b8ff" d="M1704.66,-167.24C1621.99,-159.77 1483.21,-146.11 1364.5,-129 1361.46,-128.56 1358.32,-128.07 1355.17,-127.56"/>
<polygon fill="#63b8ff" stroke="#63b8ff" points="1704.43,-170.73 1714.7,-168.14 1705.06,-163.76 1704.43,-170.73"/>
</a>
</g>
</g>
<!-- Node27 -->
<g id="Node000027" class="node">
<title>Node27</title>
<g id="a_Node000027"><a xlink:href="_user_entities_8cpp.html" target="_top" xlink:title=" ">
<polygon fill="white" stroke="#666666" points="1469.5,-129 1373.5,-129 1373.5,-110 1469.5,-110 1469.5,-129"/>
<text text-anchor="middle" x="1421.5" y="-117" font-family="Helvetica,sans-Serif" font-size="10.00">UserEntities.cpp</text>
</a>
</g>
</g>
<!-- Node2&#45;&gt;Node27 -->
<g id="edge26_Node000002_Node000027" class="edge">
<title>Node2&#45;&gt;Node27</title>
<g id="a_edge26_Node000002_Node000027"><a xlink:title=" ">
<path fill="none" stroke="#63b8ff" d="M1710.24,-163.49C1640.06,-153.04 1531.79,-136.92 1469.7,-127.68"/>
<polygon fill="#63b8ff" stroke="#63b8ff" points="1709.9,-166.97 1720.3,-164.98 1710.93,-160.05 1709.9,-166.97"/>
</a>
</g>
</g>
<!-- Node28 -->
<g id="Node000028" class="node">
<title>Node28</title>
<g id="a_Node000028"><a xlink:href="_utilities_8cpp.html" target="_top" xlink:title=" ">
<polygon fill="white" stroke="#666666" points="1563,-129 1488,-129 1488,-110 1563,-110 1563,-129"/>
<text text-anchor="middle" x="1525.5" y="-117" font-family="Helvetica,sans-Serif" font-size="10.00">Utilities.cpp</text>
</a>
</g>
</g>
<!-- Node2&#45;&gt;Node28 -->
<g id="edge27_Node000002_Node000028" class="edge">
<title>Node2&#45;&gt;Node28</title>
<g id="a_edge27_Node000002_Node000028"><a xlink:title=" ">
<path fill="none" stroke="#63b8ff" d="M1727.05,-162.89C1678.62,-152.7 1606.57,-137.55 1563.01,-128.39"/>
<polygon fill="#63b8ff" stroke="#63b8ff" points="1726.51,-166.35 1737.01,-164.98 1727.95,-159.5 1726.51,-166.35"/>
</a>
</g>
</g>
<!-- Node29 -->
<g id="Node000029" class="node">
<title>Node29</title>
<g id="a_Node000029"><a xlink:href="_voice_connection_8cpp.html" target="_top" xlink:title=" ">
<polygon fill="white" stroke="#666666" points="1699.5,-129 1581.5,-129 1581.5,-110 1699.5,-110 1699.5,-129"/>
<text text-anchor="middle" x="1640.5" y="-117" font-family="Helvetica,sans-Serif" font-size="10.00">VoiceConnection.cpp</text>
</a>
</g>
</g>
<!-- Node2&#45;&gt;Node29 -->
<g id="edge28_Node000002_Node000029" class="edge">
<title>Node2&#45;&gt;Node29</title>
<g id="a_edge28_Node000002_Node000029"><a xlink:title=" ">
<path fill="none" stroke="#63b8ff" d="M1745.94,-161.29C1720.55,-151.47 1685.5,-137.91 1662.91,-129.17"/>
<polygon fill="#63b8ff" stroke="#63b8ff" points="1744.9,-164.64 1755.49,-164.98 1747.42,-158.11 1744.9,-164.64"/>
</a>
</g>
</g>
<!-- Node30 -->
<g id="Node000030" class="node">
<title>Node30</title>
<g id="a_Node000030"><a xlink:href="_web_hook_entities_8cpp.html" target="_top" xlink:title=" ">
<polygon fill="white" stroke="#666666" points="1837.5,-129 1717.5,-129 1717.5,-110 1837.5,-110 1837.5,-129"/>
<text text-anchor="middle" x="1777.5" y="-117" font-family="Helvetica,sans-Serif" font-size="10.00">WebHookEntities.cpp</text>
</a>
</g>
</g>
<!-- Node2&#45;&gt;Node30 -->
<g id="edge29_Node000002_Node000030" class="edge">
<title>Node2&#45;&gt;Node30</title>
<g id="a_edge29_Node000002_Node000030"><a xlink:title=" ">
<path fill="none" stroke="#63b8ff" d="M1777.5,-154.66C1777.5,-145.93 1777.5,-135.99 1777.5,-129.09"/>
<polygon fill="#63b8ff" stroke="#63b8ff" points="1774,-154.75 1777.5,-164.75 1781,-154.75 1774,-154.75"/>
</a>
</g>
</g>
<!-- Node31 -->
<g id="Node000031" class="node">
<title>Node31</title>
<g id="a_Node000031"><a xlink:href="_web_socket_client_8cpp.html" target="_top" xlink:title=" ">
<polygon fill="white" stroke="#666666" points="1975,-129 1856,-129 1856,-110 1975,-110 1975,-129"/>
<text text-anchor="middle" x="1915.5" y="-117" font-family="Helvetica,sans-Serif" font-size="10.00">WebSocketClient.cpp</text>
</a>
</g>
</g>
<!-- Node2&#45;&gt;Node31 -->
<g id="edge30_Node000002_Node000031" class="edge">
<title>Node2&#45;&gt;Node31</title>
<g id="a_edge30_Node000002_Node000031"><a xlink:title=" ">
<path fill="none" stroke="#63b8ff" d="M1809.29,-161.29C1834.87,-151.47 1870.17,-137.91 1892.92,-129.17"/>
<polygon fill="#63b8ff" stroke="#63b8ff" points="1807.75,-158.13 1799.67,-164.98 1810.26,-164.67 1807.75,-158.13"/>
</a>
</g>
</g>
<!-- Node32 -->
<g id="Node000032" class="node">
<title>Node32</title>
<g id="a_Node000032"><a xlink:href="_you_tube_a_p_i_8cpp.html" target="_top" xlink:title=" ">
<polygon fill="white" stroke="#666666" points="2085.5,-129 1993.5,-129 1993.5,-110 2085.5,-110 2085.5,-129"/>
<text text-anchor="middle" x="2039.5" y="-117" font-family="Helvetica,sans-Serif" font-size="10.00">YouTubeAPI.cpp</text>
</a>
</g>
</g>
<!-- Node2&#45;&gt;Node32 -->
<g id="edge31_Node000002_Node000032" class="edge">
<title>Node2&#45;&gt;Node32</title>
<g id="a_edge31_Node000002_Node000032"><a xlink:title=" ">
<path fill="none" stroke="#63b8ff" d="M1829.7,-162.94C1878.81,-153.01 1951.43,-138.31 1997.08,-129.08"/>
<polygon fill="#63b8ff" stroke="#63b8ff" points="1828.7,-159.57 1819.59,-164.98 1830.09,-166.43 1828.7,-159.57"/>
</a>
</g>
</g>
<!-- Node25 -->
<g id="Node000025" class="node">
<title>Node25</title>
<g id="a_Node000025"><a xlink:href="_index_8hpp.html" target="_top" xlink:title=" ">
<polygon fill="white" stroke="#666666" points="1350,-74 1285,-74 1285,-55 1350,-55 1350,-74"/>
<text text-anchor="middle" x="1317.5" y="-62" font-family="Helvetica,sans-Serif" font-size="10.00">Index.hpp</text>
</a>
</g>
</g>
<!-- Node24&#45;&gt;Node25 -->
<g id="edge24_Node000024_Node000025" class="edge">
<title>Node24&#45;&gt;Node25</title>
<g id="a_edge24_Node000024_Node000025"><a xlink:title=" ">
<path fill="none" stroke="#63b8ff" d="M1317.5,-99.66C1317.5,-90.93 1317.5,-80.99 1317.5,-74.09"/>
<polygon fill="#63b8ff" stroke="#63b8ff" points="1314,-99.75 1317.5,-109.75 1321,-99.75 1314,-99.75"/>
</a>
</g>
</g>
<!-- Node26 -->
<g id="Node000026" class="node">
<title>Node26</title>
<g id="a_Node000026"><a xlink:href="_dll_main_8cpp.html" target="_top" xlink:title=" ">
<polygon fill="white" stroke="#666666" points="1354.5,-19 1280.5,-19 1280.5,0 1354.5,0 1354.5,-19"/>
<text text-anchor="middle" x="1317.5" y="-7" font-family="Helvetica,sans-Serif" font-size="10.00">DllMain.cpp</text>
</a>
</g>
</g>
<!-- Node25&#45;&gt;Node26 -->
<g id="edge25_Node000025_Node000026" class="edge">
<title>Node25&#45;&gt;Node26</title>
<g id="a_edge25_Node000025_Node000026"><a xlink:title=" ">
<path fill="none" stroke="#63b8ff" d="M1317.5,-44.66C1317.5,-35.93 1317.5,-25.99 1317.5,-19.09"/>
<polygon fill="#63b8ff" stroke="#63b8ff" points="1314,-44.75 1317.5,-54.75 1321,-44.75 1314,-44.75"/>
</a>
</g>
</g>
</g>
</svg>
