<?xml version="1.0" encoding="UTF-8" standalone="no"?>
<!DOCTYPE svg PUBLIC "-//W3C//DTD SVG 1.1//EN"
 "http://www.w3.org/Graphics/SVG/1.1/DTD/svg11.dtd">
<!-- Generated by graphviz version 5.0.0 (20220707.1540)
 -->
<!-- Title: StageInstanceEntities.hpp Pages: 1 -->
<svg width="3466pt" height="357pt"
 viewBox="0.00 0.00 3465.50 357.00" xmlns="http://www.w3.org/2000/svg" xmlns:xlink="http://www.w3.org/1999/xlink">
<g id="graph0" class="graph" transform="scale(1 1) rotate(0) translate(4 353)">
<title>StageInstanceEntities.hpp</title>
<!-- Node1 -->
<g id="node1" class="node">
<title>Node1</title>
<g id="a_node1"><a xlink:title=" ">
<polygon fill="#999999" stroke="#666666" points="1724.5,-349 1593.5,-349 1593.5,-330 1724.5,-330 1724.5,-349"/>
<text text-anchor="middle" x="1659" y="-337" font-family="Helvetica,sans-Serif" font-size="10.00">StageInstanceEntities.hpp</text>
</a>
</g>
</g>
<!-- Node2 -->
<g id="node2" class="node">
<title>Node2</title>
<g id="a_node2"><a xlink:href="_discord_core_client_8hpp.html" target="_top" xlink:title=" ">
<polygon fill="white" stroke="#666666" points="1554.5,-184 1441.5,-184 1441.5,-165 1554.5,-165 1554.5,-184"/>
<text text-anchor="middle" x="1498" y="-172" font-family="Helvetica,sans-Serif" font-size="10.00">DiscordCoreClient.hpp</text>
</a>
</g>
</g>
<!-- Node1&#45;&gt;Node2 -->
<g id="edge1" class="edge">
<title>Node1&#45;&gt;Node2</title>
<path fill="none" stroke="#63b8ff" d="M1643.18,-322.49C1609.7,-288.59 1532.64,-210.57 1506.7,-184.31"/>
<polygon fill="#63b8ff" stroke="#63b8ff" points="1640.83,-325.08 1650.34,-329.74 1645.81,-320.16 1640.83,-325.08"/>
</g>
<!-- Node21 -->
<g id="node21" class="node">
<title>Node21</title>
<g id="a_node21"><a xlink:href="_stage_instance_entities_8cpp.html" target="_top" xlink:title=" ">
<polygon fill="white" stroke="#666666" points="3457.5,-129 3326.5,-129 3326.5,-110 3457.5,-110 3457.5,-129"/>
<text text-anchor="middle" x="3392" y="-117" font-family="Helvetica,sans-Serif" font-size="10.00">StageInstanceEntities.cpp</text>
</a>
</g>
</g>
<!-- Node1&#45;&gt;Node21 -->
<g id="edge42" class="edge">
<title>Node1&#45;&gt;Node21</title>
<path fill="none" stroke="#63b8ff" d="M1734.51,-329C2023.21,-292.68 3054.52,-162.95 3326.08,-128.79"/>
<polygon fill="#63b8ff" stroke="#63b8ff" points="1734.04,-325.53 1724.56,-330.25 1734.92,-332.48 1734.04,-325.53"/>
</g>
<!-- Node33 -->
<g id="node33" class="node">
<title>Node33</title>
<g id="a_node33"><a xlink:href="_guild_entities_8hpp.html" target="_top" xlink:title=" ">
<polygon fill="white" stroke="#666666" points="1543.5,-294 1452.5,-294 1452.5,-275 1543.5,-275 1543.5,-294"/>
<text text-anchor="middle" x="1498" y="-282" font-family="Helvetica,sans-Serif" font-size="10.00">GuildEntities.hpp</text>
</a>
</g>
</g>
<!-- Node1&#45;&gt;Node33 -->
<g id="edge32" class="edge">
<title>Node1&#45;&gt;Node33</title>
<path fill="none" stroke="#63b8ff" d="M1623.45,-326.8C1593.41,-316.91 1551.06,-302.97 1524.07,-294.08"/>
<polygon fill="#63b8ff" stroke="#63b8ff" points="1622.54,-330.18 1633.13,-329.98 1624.73,-323.53 1622.54,-330.18"/>
</g>
<!-- Node3 -->
<g id="node3" class="node">
<title>Node3</title>
<g id="a_node3"><a xlink:href="_application_command_entities_8cpp.html" target="_top" xlink:title=" ">
<polygon fill="white" stroke="#666666" points="1839.5,-129 1678.5,-129 1678.5,-110 1839.5,-110 1839.5,-129"/>
<text text-anchor="middle" x="1759" y="-117" font-family="Helvetica,sans-Serif" font-size="10.00">ApplicationCommandEntities.cpp</text>
</a>
</g>
</g>
<!-- Node2&#45;&gt;Node3 -->
<g id="edge2" class="edge">
<title>Node2&#45;&gt;Node3</title>
<path fill="none" stroke="#63b8ff" d="M1550,-162.94C1598.92,-153.01 1671.27,-138.31 1716.74,-129.08"/>
<polygon fill="#63b8ff" stroke="#63b8ff" points="1549.04,-159.56 1539.93,-164.98 1550.43,-166.42 1549.04,-159.56"/>
</g>
<!-- Node4 -->
<g id="node4" class="node">
<title>Node4</title>
<g id="a_node4"><a xlink:href="_auto_moderation_entities_8cpp.html" target="_top" xlink:title=" ">
<polygon fill="white" stroke="#666666" points="1994.5,-129 1857.5,-129 1857.5,-110 1994.5,-110 1994.5,-129"/>
<text text-anchor="middle" x="1926" y="-117" font-family="Helvetica,sans-Serif" font-size="10.00">AutoModerationEntities.cpp</text>
</a>
</g>
</g>
<!-- Node2&#45;&gt;Node4 -->
<g id="edge3" class="edge">
<title>Node2&#45;&gt;Node4</title>
<path fill="none" stroke="#63b8ff" d="M1565.24,-165.17C1644.9,-155.31 1776.92,-138.96 1857.24,-129.01"/>
<polygon fill="#63b8ff" stroke="#63b8ff" points="1564.33,-161.76 1554.84,-166.46 1565.19,-168.71 1564.33,-161.76"/>
</g>
<!-- Node5 -->
<g id="node5" class="node">
<title>Node5</title>
<g id="a_node5"><a xlink:href="_channel_entities_8cpp.html" target="_top" xlink:title=" ">
<polygon fill="white" stroke="#666666" points="2117,-129 2013,-129 2013,-110 2117,-110 2117,-129"/>
<text text-anchor="middle" x="2065" y="-117" font-family="Helvetica,sans-Serif" font-size="10.00">ChannelEntities.cpp</text>
</a>
</g>
</g>
<!-- Node2&#45;&gt;Node5 -->
<g id="edge4" class="edge">
<title>Node2&#45;&gt;Node5</title>
<path fill="none" stroke="#63b8ff" d="M1564.55,-165.46C1566.05,-165.3 1567.53,-165.15 1569,-165 1762.01,-145.47 1811.19,-150.4 2004,-129 2006.87,-128.68 2009.81,-128.34 2012.78,-127.97"/>
<polygon fill="#63b8ff" stroke="#63b8ff" points="1564.13,-161.98 1554.56,-166.54 1564.88,-168.94 1564.13,-161.98"/>
</g>
<!-- Node6 -->
<g id="node6" class="node">
<title>Node6</title>
<g id="a_node6"><a xlink:href="_command_controller_8cpp.html" target="_top" xlink:title=" ">
<polygon fill="white" stroke="#666666" points="2256.5,-129 2135.5,-129 2135.5,-110 2256.5,-110 2256.5,-129"/>
<text text-anchor="middle" x="2196" y="-117" font-family="Helvetica,sans-Serif" font-size="10.00">CommandController.cpp</text>
</a>
</g>
</g>
<!-- Node2&#45;&gt;Node6 -->
<g id="edge5" class="edge">
<title>Node2&#45;&gt;Node6</title>
<path fill="none" stroke="#63b8ff" d="M1564.55,-165.42C1566.05,-165.28 1567.53,-165.14 1569,-165 1816.03,-142.25 1878.99,-151.96 2126,-129 2129.05,-128.72 2132.17,-128.41 2135.32,-128.08"/>
<polygon fill="#63b8ff" stroke="#63b8ff" points="1564.14,-161.95 1554.55,-166.45 1564.86,-168.91 1564.14,-161.95"/>
</g>
<!-- Node7 -->
<g id="node7" class="node">
<title>Node7</title>
<g id="a_node7"><a xlink:href="_discord_core_client_8cpp.html" target="_top" xlink:title=" ">
<polygon fill="white" stroke="#666666" points="2387.5,-129 2274.5,-129 2274.5,-110 2387.5,-110 2387.5,-129"/>
<text text-anchor="middle" x="2331" y="-117" font-family="Helvetica,sans-Serif" font-size="10.00">DiscordCoreClient.cpp</text>
</a>
</g>
</g>
<!-- Node2&#45;&gt;Node7 -->
<g id="edge6" class="edge">
<title>Node2&#45;&gt;Node7</title>
<path fill="none" stroke="#63b8ff" d="M1564.55,-165.4C1566.05,-165.26 1567.53,-165.13 1569,-165 1878.06,-138.55 1957.09,-157.13 2266,-129 2268.72,-128.75 2271.5,-128.48 2274.31,-128.18"/>
<polygon fill="#63b8ff" stroke="#63b8ff" points="1564.15,-161.92 1554.55,-166.38 1564.84,-168.88 1564.15,-161.92"/>
</g>
<!-- Node8 -->
<g id="node8" class="node">
<title>Node8</title>
<g id="a_node8"><a xlink:href="_event_manager_8cpp.html" target="_top" xlink:title=" ">
<polygon fill="white" stroke="#666666" points="292.5,-129 195.5,-129 195.5,-110 292.5,-110 292.5,-129"/>
<text text-anchor="middle" x="244" y="-117" font-family="Helvetica,sans-Serif" font-size="10.00">EventManager.cpp</text>
</a>
</g>
</g>
<!-- Node2&#45;&gt;Node8 -->
<g id="edge7" class="edge">
<title>Node2&#45;&gt;Node8</title>
<path fill="none" stroke="#63b8ff" d="M1431.31,-171.97C1213.43,-166.83 523.89,-149.33 302,-129 298.96,-128.72 295.84,-128.39 292.69,-128.03"/>
<polygon fill="#63b8ff" stroke="#63b8ff" points="1431.24,-175.47 1441.32,-172.21 1431.41,-168.47 1431.24,-175.47"/>
</g>
<!-- Node9 -->
<g id="node9" class="node">
<title>Node9</title>
<g id="a_node9"><a xlink:href="_foundation_entities_8cpp.html" target="_top" xlink:title=" ">
<polygon fill="white" stroke="#666666" points="3164,-129 3048,-129 3048,-110 3164,-110 3164,-129"/>
<text text-anchor="middle" x="3106" y="-117" font-family="Helvetica,sans-Serif" font-size="10.00">FoundationEntities.cpp</text>
</a>
</g>
</g>
<!-- Node2&#45;&gt;Node9 -->
<g id="edge8" class="edge">
<title>Node2&#45;&gt;Node9</title>
<path fill="none" stroke="#63b8ff" d="M1564.54,-165.34C1566.04,-165.22 1567.53,-165.11 1569,-165 2220.84,-118.11 2387.32,-178.19 3039,-129 3041.92,-128.78 3044.91,-128.52 3047.93,-128.23"/>
<polygon fill="#63b8ff" stroke="#63b8ff" points="1564.18,-161.86 1554.53,-166.24 1564.81,-168.83 1564.18,-161.86"/>
</g>
<!-- Node10 -->
<g id="node10" class="node">
<title>Node10</title>
<g id="a_node10"><a xlink:href="_guild_entities_8cpp.html" target="_top" xlink:title=" ">
<polygon fill="white" stroke="#666666" points="177.5,-129 86.5,-129 86.5,-110 177.5,-110 177.5,-129"/>
<text text-anchor="middle" x="132" y="-117" font-family="Helvetica,sans-Serif" font-size="10.00">GuildEntities.cpp</text>
</a>
</g>
</g>
<!-- Node2&#45;&gt;Node10 -->
<g id="edge9" class="edge">
<title>Node2&#45;&gt;Node10</title>
<path fill="none" stroke="#63b8ff" d="M1430.89,-172.28C1198.97,-167.91 432.22,-152.03 187,-129 183.92,-128.71 180.75,-128.36 177.57,-127.97"/>
<polygon fill="#63b8ff" stroke="#63b8ff" points="1431.13,-175.79 1441.2,-172.48 1431.26,-168.79 1431.13,-175.79"/>
</g>
<!-- Node11 -->
<g id="node11" class="node">
<title>Node11</title>
<g id="a_node11"><a xlink:href="_guild_member_entities_8cpp.html" target="_top" xlink:title=" ">
<polygon fill="white" stroke="#666666" points="3308,-129 3182,-129 3182,-110 3308,-110 3308,-129"/>
<text text-anchor="middle" x="3245" y="-117" font-family="Helvetica,sans-Serif" font-size="10.00">GuildMemberEntities.cpp</text>
</a>
</g>
</g>
<!-- Node2&#45;&gt;Node11 -->
<g id="edge10" class="edge">
<title>Node2&#45;&gt;Node11</title>
<path fill="none" stroke="#63b8ff" d="M1564.59,-167.72C1578.59,-166.67 1593.27,-165.69 1607,-165 2302.3,-129.92 2478.53,-177.87 3173,-129 3175.89,-128.8 3178.84,-128.56 3181.82,-128.3"/>
<polygon fill="#63b8ff" stroke="#63b8ff" points="1564.24,-164.24 1554.54,-168.5 1564.77,-171.22 1564.24,-164.24"/>
</g>
<!-- Node12 -->
<g id="node12" class="node">
<title>Node12</title>
<g id="a_node12"><a xlink:href="_guild_scheduled_event_entities_8cpp.html" target="_top" xlink:title=" ">
<polygon fill="white" stroke="#666666" points="2566.5,-129 2405.5,-129 2405.5,-110 2566.5,-110 2566.5,-129"/>
<text text-anchor="middle" x="2486" y="-117" font-family="Helvetica,sans-Serif" font-size="10.00">GuildScheduledEventEntities.cpp</text>
</a>
</g>
</g>
<!-- Node2&#45;&gt;Node12 -->
<g id="edge11" class="edge">
<title>Node2&#45;&gt;Node12</title>
<path fill="none" stroke="#63b8ff" d="M1564.55,-165.38C1566.04,-165.25 1567.53,-165.12 1569,-165 1936.13,-135.09 2029.54,-154.52 2397,-129 2399.79,-128.81 2402.62,-128.6 2405.49,-128.38"/>
<polygon fill="#63b8ff" stroke="#63b8ff" points="1564.16,-161.9 1554.54,-166.34 1564.83,-168.87 1564.16,-161.9"/>
</g>
<!-- Node13 -->
<g id="node13" class="node">
<title>Node13</title>
<g id="a_node13"><a xlink:href="_https_client_8cpp.html" target="_top" xlink:title=" ">
<polygon fill="white" stroke="#666666" points="2667.5,-129 2584.5,-129 2584.5,-110 2667.5,-110 2667.5,-129"/>
<text text-anchor="middle" x="2626" y="-117" font-family="Helvetica,sans-Serif" font-size="10.00">HttpsClient.cpp</text>
</a>
</g>
</g>
<!-- Node2&#45;&gt;Node13 -->
<g id="edge12" class="edge">
<title>Node2&#45;&gt;Node13</title>
<path fill="none" stroke="#63b8ff" d="M1564.55,-165.36C1566.04,-165.24 1567.53,-165.11 1569,-165 2015.5,-130.35 2130.49,-174.63 2576,-129 2578.72,-128.72 2581.51,-128.39 2584.31,-128.01"/>
<polygon fill="#63b8ff" stroke="#63b8ff" points="1564.17,-161.88 1554.54,-166.3 1564.82,-168.85 1564.17,-161.88"/>
</g>
<!-- Node14 -->
<g id="node14" class="node">
<title>Node14</title>
<g id="a_node14"><a xlink:href="_input_events_8cpp.html" target="_top" xlink:title=" ">
<polygon fill="white" stroke="#666666" points="2772,-129 2686,-129 2686,-110 2772,-110 2772,-129"/>
<text text-anchor="middle" x="2729" y="-117" font-family="Helvetica,sans-Serif" font-size="10.00">InputEvents.cpp</text>
</a>
</g>
</g>
<!-- Node2&#45;&gt;Node14 -->
<g id="edge13" class="edge">
<title>Node2&#45;&gt;Node14</title>
<path fill="none" stroke="#63b8ff" d="M1564.55,-165.36C1566.04,-165.23 1567.53,-165.11 1569,-165 2060.29,-127.68 2186.62,-176.84 2677,-129 2679.91,-128.72 2682.91,-128.37 2685.93,-127.98"/>
<polygon fill="#63b8ff" stroke="#63b8ff" points="1564.17,-161.88 1554.54,-166.28 1564.82,-168.85 1564.17,-161.88"/>
</g>
<!-- Node15 -->
<g id="node15" class="node">
<title>Node15</title>
<g id="a_node15"><a xlink:href="_interaction_entities_8cpp.html" target="_top" xlink:title=" ">
<polygon fill="white" stroke="#666666" points="2903.5,-129 2790.5,-129 2790.5,-110 2903.5,-110 2903.5,-129"/>
<text text-anchor="middle" x="2847" y="-117" font-family="Helvetica,sans-Serif" font-size="10.00">InteractionEntities.cpp</text>
</a>
</g>
</g>
<!-- Node2&#45;&gt;Node15 -->
<g id="edge14" class="edge">
<title>Node2&#45;&gt;Node15</title>
<path fill="none" stroke="#63b8ff" d="M1564.55,-165.35C1566.04,-165.23 1567.53,-165.11 1569,-165 2106.41,-124.93 2243.77,-171.47 2781,-129 2783.99,-128.76 2787.06,-128.49 2790.16,-128.18"/>
<polygon fill="#63b8ff" stroke="#63b8ff" points="1564.18,-161.87 1554.54,-166.27 1564.81,-168.84 1564.18,-161.87"/>
</g>
<!-- Node16 -->
<g id="node16" class="node">
<title>Node16</title>
<g id="a_node16"><a xlink:href="_message_entities_8cpp.html" target="_top" xlink:title=" ">
<polygon fill="white" stroke="#666666" points="3030,-129 2922,-129 2922,-110 3030,-110 3030,-129"/>
<text text-anchor="middle" x="2976" y="-117" font-family="Helvetica,sans-Serif" font-size="10.00">MessageEntities.cpp</text>
</a>
</g>
</g>
<!-- Node2&#45;&gt;Node16 -->
<g id="edge15" class="edge">
<title>Node2&#45;&gt;Node16</title>
<path fill="none" stroke="#63b8ff" d="M1564.54,-165.35C1566.04,-165.22 1567.53,-165.11 1569,-165 2164.96,-121.44 2317.38,-177.02 2913,-129 2915.86,-128.77 2918.79,-128.5 2921.74,-128.2"/>
<polygon fill="#63b8ff" stroke="#63b8ff" points="1564.18,-161.87 1554.54,-166.25 1564.81,-168.84 1564.18,-161.87"/>
</g>
<!-- Node17 -->
<g id="node17" class="node">
<title>Node17</title>
<g id="a_node17"><a xlink:href="_reaction_entities_8cpp.html" target="_top" xlink:title=" ">
<polygon fill="white" stroke="#666666" points="546.5,-129 439.5,-129 439.5,-110 546.5,-110 546.5,-129"/>
<text text-anchor="middle" x="493" y="-117" font-family="Helvetica,sans-Serif" font-size="10.00">ReactionEntities.cpp</text>
</a>
</g>
</g>
<!-- Node2&#45;&gt;Node17 -->
<g id="edge16" class="edge">
<title>Node2&#45;&gt;Node17</title>
<path fill="none" stroke="#63b8ff" d="M1431.26,-169.56C1405.28,-168.07 1375.25,-166.39 1348,-165 996.09,-147.03 906.94,-160.59 556,-129 552.92,-128.72 549.76,-128.4 546.58,-128.06"/>
<polygon fill="#63b8ff" stroke="#63b8ff" points="1431.2,-173.06 1441.38,-170.14 1431.6,-166.07 1431.2,-173.06"/>
</g>
<!-- Node18 -->
<g id="node18" class="node">
<title>Node18</title>
<g id="a_node18"><a xlink:href="_role_entities_8cpp.html" target="_top" xlink:title=" ">
<polygon fill="white" stroke="#666666" points="653,-129 565,-129 565,-110 653,-110 653,-129"/>
<text text-anchor="middle" x="609" y="-117" font-family="Helvetica,sans-Serif" font-size="10.00">RoleEntities.cpp</text>
</a>
</g>
</g>
<!-- Node2&#45;&gt;Node18 -->
<g id="edge17" class="edge">
<title>Node2&#45;&gt;Node18</title>
<path fill="none" stroke="#63b8ff" d="M1431.26,-169.66C1405.27,-168.18 1375.25,-166.49 1348,-165 1043.15,-148.36 965.6,-161.22 662,-129 659.13,-128.7 656.17,-128.34 653.2,-127.95"/>
<polygon fill="#63b8ff" stroke="#63b8ff" points="1431.19,-173.16 1441.38,-170.24 1431.59,-166.17 1431.19,-173.16"/>
</g>
<!-- Node19 -->
<g id="node19" class="node">
<title>Node19</title>
<g id="a_node19"><a xlink:href="_song_a_p_i_8cpp.html" target="_top" xlink:title=" ">
<polygon fill="white" stroke="#666666" points="745,-129 671,-129 671,-110 745,-110 745,-129"/>
<text text-anchor="middle" x="708" y="-117" font-family="Helvetica,sans-Serif" font-size="10.00">SongAPI.cpp</text>
</a>
</g>
</g>
<!-- Node2&#45;&gt;Node19 -->
<g id="edge18" class="edge">
<title>Node2&#45;&gt;Node19</title>
<path fill="none" stroke="#63b8ff" d="M1431.26,-169.73C1254.83,-159.74 787.3,-133.06 754,-129 751.1,-128.65 748.1,-128.22 745.1,-127.76"/>
<polygon fill="#63b8ff" stroke="#63b8ff" points="1431.27,-173.24 1441.45,-170.31 1431.67,-166.25 1431.27,-173.24"/>
</g>
<!-- Node20 -->
<g id="node20" class="node">
<title>Node20</title>
<g id="a_node20"><a xlink:href="_sound_cloud_a_p_i_8cpp.html" target="_top" xlink:title=" ">
<polygon fill="white" stroke="#666666" points="867,-129 763,-129 763,-110 867,-110 867,-129"/>
<text text-anchor="middle" x="815" y="-117" font-family="Helvetica,sans-Serif" font-size="10.00">SoundCloudAPI.cpp</text>
</a>
</g>
</g>
<!-- Node2&#45;&gt;Node20 -->
<g id="edge19" class="edge">
<title>Node2&#45;&gt;Node20</title>
<path fill="none" stroke="#63b8ff" d="M1431.27,-169.27C1293.77,-160.46 982.93,-140.05 877,-129 873.76,-128.66 870.42,-128.29 867.07,-127.89"/>
<polygon fill="#63b8ff" stroke="#63b8ff" points="1431.05,-172.76 1441.26,-169.91 1431.5,-165.77 1431.05,-172.76"/>
</g>
<!-- Node2&#45;&gt;Node21 -->
<g id="edge20" class="edge">
<title>Node2&#45;&gt;Node21</title>
<path fill="none" stroke="#63b8ff" d="M1564.9,-173.99C1803.35,-175.3 2633.83,-175.98 3317,-129 3320.01,-128.79 3323.08,-128.56 3326.18,-128.29"/>
<polygon fill="#63b8ff" stroke="#63b8ff" points="1564.68,-170.49 1554.66,-173.94 1564.64,-177.49 1564.68,-170.49"/>
</g>
<!-- Node22 -->
<g id="node22" class="node">
<title>Node22</title>
<g id="a_node22"><a xlink:href="_sticker_entities_8cpp.html" target="_top" xlink:title=" ">
<polygon fill="white" stroke="#666666" points="984.5,-129 885.5,-129 885.5,-110 984.5,-110 984.5,-129"/>
<text text-anchor="middle" x="935" y="-117" font-family="Helvetica,sans-Serif" font-size="10.00">StickerEntities.cpp</text>
</a>
</g>
</g>
<!-- Node2&#45;&gt;Node22 -->
<g id="edge21" class="edge">
<title>Node2&#45;&gt;Node22</title>
<path fill="none" stroke="#63b8ff" d="M1430.99,-168.76C1334.32,-161.66 1150.17,-147.13 994,-129 990.92,-128.64 987.74,-128.25 984.55,-127.84"/>
<polygon fill="#63b8ff" stroke="#63b8ff" points="1430.98,-172.27 1441.21,-169.51 1431.49,-165.29 1430.98,-172.27"/>
</g>
<!-- Node23 -->
<g id="node23" class="node">
<title>Node23</title>
<g id="a_node23"><a xlink:href="_thread_entities_8cpp.html" target="_top" xlink:title=" ">
<polygon fill="white" stroke="#666666" points="1101,-129 1003,-129 1003,-110 1101,-110 1101,-129"/>
<text text-anchor="middle" x="1052" y="-117" font-family="Helvetica,sans-Serif" font-size="10.00">ThreadEntities.cpp</text>
</a>
</g>
</g>
<!-- Node2&#45;&gt;Node23 -->
<g id="edge22" class="edge">
<title>Node2&#45;&gt;Node23</title>
<path fill="none" stroke="#63b8ff" d="M1431.15,-166.4C1353.95,-158.06 1223.17,-143.53 1111,-129 1107.82,-128.59 1104.54,-128.15 1101.24,-127.7"/>
<polygon fill="#63b8ff" stroke="#63b8ff" points="1430.9,-169.89 1441.21,-167.48 1431.65,-162.93 1430.9,-169.89"/>
</g>
<!-- Node24 -->
<g id="node24" class="node">
<title>Node24</title>
<g id="a_node24"><a xlink:href="_to_entity_8hpp.html" target="_top" xlink:title=" ">
<polygon fill="white" stroke="#666666" points="1190.5,-129 1119.5,-129 1119.5,-110 1190.5,-110 1190.5,-129"/>
<text text-anchor="middle" x="1155" y="-117" font-family="Helvetica,sans-Serif" font-size="10.00">ToEntity.hpp</text>
</a>
</g>
</g>
<!-- Node2&#45;&gt;Node24 -->
<g id="edge23" class="edge">
<title>Node2&#45;&gt;Node24</title>
<path fill="none" stroke="#63b8ff" d="M1431.15,-164.27C1370.67,-155.74 1279.23,-142.39 1200,-129 1197.02,-128.5 1193.93,-127.96 1190.84,-127.4"/>
<polygon fill="#63b8ff" stroke="#63b8ff" points="1430.93,-167.77 1441.32,-165.7 1431.91,-160.84 1430.93,-167.77"/>
</g>
<!-- Node27 -->
<g id="node27" class="node">
<title>Node27</title>
<g id="a_node27"><a xlink:href="_user_entities_8cpp.html" target="_top" xlink:title=" ">
<polygon fill="white" stroke="#666666" points="1297.5,-129 1208.5,-129 1208.5,-110 1297.5,-110 1297.5,-129"/>
<text text-anchor="middle" x="1253" y="-117" font-family="Helvetica,sans-Serif" font-size="10.00">UserEntities.cpp</text>
</a>
</g>
</g>
<!-- Node2&#45;&gt;Node27 -->
<g id="edge26" class="edge">
<title>Node2&#45;&gt;Node27</title>
<path fill="none" stroke="#63b8ff" d="M1448.61,-162.82C1402.7,-152.88 1335.17,-138.28 1292.67,-129.08"/>
<polygon fill="#63b8ff" stroke="#63b8ff" points="1448.12,-166.29 1458.64,-164.98 1449.6,-159.45 1448.12,-166.29"/>
</g>
<!-- Node28 -->
<g id="node28" class="node">
<title>Node28</title>
<g id="a_node28"><a xlink:href="_utilities_8cpp.html" target="_top" xlink:title=" ">
<polygon fill="white" stroke="#666666" points="68,-129 0,-129 0,-110 68,-110 68,-129"/>
<text text-anchor="middle" x="34" y="-117" font-family="Helvetica,sans-Serif" font-size="10.00">Utilities.cpp</text>
</a>
</g>
</g>
<!-- Node2&#45;&gt;Node28 -->
<g id="edge27" class="edge">
<title>Node2&#45;&gt;Node28</title>
<path fill="none" stroke="#63b8ff" d="M1431.01,-172.86C1186.76,-170.29 344.31,-159.4 77,-129 74.13,-128.67 71.16,-128.26 68.19,-127.78"/>
<polygon fill="#63b8ff" stroke="#63b8ff" points="1431.13,-176.36 1441.17,-172.96 1431.2,-169.36 1431.13,-176.36"/>
</g>
<!-- Node29 -->
<g id="node29" class="node">
<title>Node29</title>
<g id="a_node29"><a xlink:href="_voice_connection_8cpp.html" target="_top" xlink:title=" ">
<polygon fill="white" stroke="#666666" points="1424.5,-129 1315.5,-129 1315.5,-110 1424.5,-110 1424.5,-129"/>
<text text-anchor="middle" x="1370" y="-117" font-family="Helvetica,sans-Serif" font-size="10.00">VoiceConnection.cpp</text>
</a>
</g>
</g>
<!-- Node2&#45;&gt;Node29 -->
<g id="edge28" class="edge">
<title>Node2&#45;&gt;Node29</title>
<path fill="none" stroke="#63b8ff" d="M1467.88,-161.03C1444.21,-151.23 1411.85,-137.83 1390.94,-129.17"/>
<polygon fill="#63b8ff" stroke="#63b8ff" points="1466.86,-164.39 1477.43,-164.98 1469.53,-157.93 1466.86,-164.39"/>
</g>
<!-- Node30 -->
<g id="node30" class="node">
<title>Node30</title>
<g id="a_node30"><a xlink:href="_web_hook_entities_8cpp.html" target="_top" xlink:title=" ">
<polygon fill="white" stroke="#666666" points="1553.5,-129 1442.5,-129 1442.5,-110 1553.5,-110 1553.5,-129"/>
<text text-anchor="middle" x="1498" y="-117" font-family="Helvetica,sans-Serif" font-size="10.00">WebHookEntities.cpp</text>
</a>
</g>
</g>
<!-- Node2&#45;&gt;Node30 -->
<g id="edge29" class="edge">
<title>Node2&#45;&gt;Node30</title>
<path fill="none" stroke="#63b8ff" d="M1498,-154.66C1498,-145.93 1498,-135.99 1498,-129.09"/>
<polygon fill="#63b8ff" stroke="#63b8ff" points="1494.5,-154.75 1498,-164.75 1501.5,-154.75 1494.5,-154.75"/>
</g>
<!-- Node31 -->
<g id="node31" class="node">
<title>Node31</title>
<g id="a_node31"><a xlink:href="_web_socket_client_8cpp.html" target="_top" xlink:title=" ">
<polygon fill="white" stroke="#666666" points="421.5,-129 310.5,-129 310.5,-110 421.5,-110 421.5,-129"/>
<text text-anchor="middle" x="366" y="-117" font-family="Helvetica,sans-Serif" font-size="10.00">WebSocketClient.cpp</text>
</a>
</g>
</g>
<!-- Node2&#45;&gt;Node31 -->
<g id="edge30" class="edge">
<title>Node2&#45;&gt;Node31</title>
<path fill="none" stroke="#63b8ff" d="M1431.27,-169.47C1405.28,-167.97 1375.26,-166.31 1348,-165 940.6,-145.46 837.41,-163.48 431,-129 427.94,-128.74 424.8,-128.44 421.63,-128.11"/>
<polygon fill="#63b8ff" stroke="#63b8ff" points="1431.2,-172.97 1441.39,-170.06 1431.61,-165.98 1431.2,-172.97"/>
</g>
<!-- Node32 -->
<g id="node32" class="node">
<title>Node32</title>
<g id="a_node32"><a xlink:href="_you_tube_a_p_i_8cpp.html" target="_top" xlink:title=" ">
<polygon fill="white" stroke="#666666" points="1660.5,-129 1571.5,-129 1571.5,-110 1660.5,-110 1660.5,-129"/>
<text text-anchor="middle" x="1616" y="-117" font-family="Helvetica,sans-Serif" font-size="10.00">YouTubeAPI.cpp</text>
</a>
</g>
</g>
<!-- Node2&#45;&gt;Node32 -->
<g id="edge31" class="edge">
<title>Node2&#45;&gt;Node32</title>
<path fill="none" stroke="#63b8ff" d="M1526.35,-160.77C1548.12,-150.99 1577.59,-137.75 1596.7,-129.17"/>
<polygon fill="#63b8ff" stroke="#63b8ff" points="1524.65,-157.69 1516.96,-164.98 1527.51,-164.08 1524.65,-157.69"/>
</g>
<!-- Node25 -->
<g id="node25" class="node">
<title>Node25</title>
<g id="a_node25"><a xlink:href="_index_8hpp.html" target="_top" xlink:title=" ">
<polygon fill="white" stroke="#666666" points="1184.5,-74 1125.5,-74 1125.5,-55 1184.5,-55 1184.5,-74"/>
<text text-anchor="middle" x="1155" y="-62" font-family="Helvetica,sans-Serif" font-size="10.00">Index.hpp</text>
</a>
</g>
</g>
<!-- Node24&#45;&gt;Node25 -->
<g id="edge24" class="edge">
<title>Node24&#45;&gt;Node25</title>
<path fill="none" stroke="#63b8ff" d="M1155,-99.66C1155,-90.93 1155,-80.99 1155,-74.09"/>
<polygon fill="#63b8ff" stroke="#63b8ff" points="1151.5,-99.75 1155,-109.75 1158.5,-99.75 1151.5,-99.75"/>
</g>
<!-- Node26 -->
<g id="node26" class="node">
<title>Node26</title>
<g id="a_node26"><a xlink:href="_dll_main_8cpp.html" target="_top" xlink:title=" ">
<polygon fill="white" stroke="#666666" points="1189,-19 1121,-19 1121,0 1189,0 1189,-19"/>
<text text-anchor="middle" x="1155" y="-7" font-family="Helvetica,sans-Serif" font-size="10.00">DllMain.cpp</text>
</a>
</g>
</g>
<!-- Node25&#45;&gt;Node26 -->
<g id="edge25" class="edge">
<title>Node25&#45;&gt;Node26</title>
<path fill="none" stroke="#63b8ff" d="M1155,-44.66C1155,-35.93 1155,-25.99 1155,-19.09"/>
<polygon fill="#63b8ff" stroke="#63b8ff" points="1151.5,-44.75 1155,-54.75 1158.5,-44.75 1151.5,-44.75"/>
</g>
<!-- Node33&#45;&gt;Node2 -->
<g id="edge33" class="edge">
<title>Node33&#45;&gt;Node2</title>
<path fill="none" stroke="#63b8ff" d="M1498,-264.48C1498,-240.84 1498,-201.5 1498,-184.16"/>
<polygon fill="#63b8ff" stroke="#63b8ff" points="1494.5,-264.66 1498,-274.66 1501.5,-264.66 1494.5,-264.66"/>
</g>
<!-- Node33&#45;&gt;Node9 -->
<g id="edge38" class="edge">
<title>Node33&#45;&gt;Node9</title>
<path fill="none" stroke="#63b8ff" d="M1507.81,-265.86C1524.21,-238.38 1560.08,-186.3 1607,-165 1679.46,-132.11 2959.65,-135.02 3039,-129 3041.92,-128.78 3044.91,-128.52 3047.93,-128.23"/>
<polygon fill="#63b8ff" stroke="#63b8ff" points="1504.63,-264.36 1502.66,-274.77 1510.69,-267.86 1504.63,-264.36"/>
</g>
<!-- Node33&#45;&gt;Node10 -->
<g id="edge39" class="edge">
<title>Node33&#45;&gt;Node10</title>
<path fill="none" stroke="#63b8ff" d="M1442.26,-277.66C1261.06,-258.51 672.34,-195.08 187,-129 183.94,-128.58 180.78,-128.14 177.6,-127.68"/>
<polygon fill="#63b8ff" stroke="#63b8ff" points="1442.04,-281.15 1452.35,-278.72 1442.77,-274.19 1442.04,-281.15"/>
</g>
<!-- Node33&#45;&gt;Node11 -->
<g id="edge40" class="edge">
<title>Node33&#45;&gt;Node11</title>
<path fill="none" stroke="#63b8ff" d="M1553.88,-275.92C1708.68,-255.17 2156.29,-196.89 2530,-165 2815.19,-140.66 2887.85,-153.79 3173,-129 3175.88,-128.75 3178.83,-128.47 3181.81,-128.18"/>
<polygon fill="#63b8ff" stroke="#63b8ff" points="1553.13,-272.49 1543.68,-277.29 1554.06,-279.43 1553.13,-272.49"/>
</g>
<!-- Node33&#45;&gt;Node28 -->
<g id="edge41" class="edge">
<title>Node33&#45;&gt;Node28</title>
<path fill="none" stroke="#63b8ff" d="M1441.94,-280.01C1338.48,-273.38 1110.57,-257.93 919,-239 716.29,-218.97 665.96,-210.55 464,-184 291.75,-161.35 248.28,-158.08 77,-129 74.15,-128.52 71.2,-127.99 68.24,-127.44"/>
<polygon fill="#63b8ff" stroke="#63b8ff" points="1441.95,-283.51 1452.15,-280.66 1442.4,-276.53 1441.95,-283.51"/>
</g>
<!-- Node34 -->
<g id="node34" class="node">
<title>Node34</title>
<g id="a_node34"><a xlink:href="_event_manager_8hpp.html" target="_top" xlink:title=" ">
<polygon fill="white" stroke="#666666" points="1466.5,-239 1369.5,-239 1369.5,-220 1466.5,-220 1466.5,-239"/>
<text text-anchor="middle" x="1418" y="-227" font-family="Helvetica,sans-Serif" font-size="10.00">EventManager.hpp</text>
</a>
</g>
</g>
<!-- Node33&#45;&gt;Node34 -->
<g id="edge34" class="edge">
<title>Node33&#45;&gt;Node34</title>
<path fill="none" stroke="#63b8ff" d="M1476.75,-269.42C1462.24,-259.81 1443.46,-247.37 1431.09,-239.17"/>
<polygon fill="#63b8ff" stroke="#63b8ff" points="1474.88,-272.38 1485.15,-274.98 1478.74,-266.54 1474.88,-272.38"/>
</g>
<!-- Node34&#45;&gt;Node2 -->
<g id="edge35" class="edge">
<title>Node34&#45;&gt;Node2</title>
<path fill="none" stroke="#63b8ff" d="M1439.25,-214.42C1453.76,-204.81 1472.54,-192.37 1484.91,-184.17"/>
<polygon fill="#63b8ff" stroke="#63b8ff" points="1437.26,-211.54 1430.85,-219.98 1441.12,-217.38 1437.26,-211.54"/>
</g>
<!-- Node34&#45;&gt;Node8 -->
<g id="edge36" class="edge">
<title>Node34&#45;&gt;Node8</title>
<path fill="none" stroke="#63b8ff" d="M1359.19,-221.89C1249.13,-209.65 1004.49,-183.06 798,-165 577.82,-145.74 521.71,-153.04 302,-129 298.97,-128.67 295.84,-128.3 292.7,-127.9"/>
<polygon fill="#63b8ff" stroke="#63b8ff" points="1359.09,-225.4 1369.42,-223.03 1359.86,-218.44 1359.09,-225.4"/>
</g>
<!-- Node34&#45;&gt;Node31 -->
<g id="edge37" class="edge">
<title>Node34&#45;&gt;Node31</title>
<path fill="none" stroke="#63b8ff" d="M1379.94,-217.07C1328.69,-202.21 1234.4,-176.79 1152,-165 834.39,-119.56 750.55,-157.82 431,-129 427.94,-128.72 424.8,-128.41 421.64,-128.07"/>
<polygon fill="#63b8ff" stroke="#63b8ff" points="1379.02,-220.44 1389.6,-219.89 1380.98,-213.72 1379.02,-220.44"/>
</g>
</g>
</svg>
