<?xml version="1.0" encoding="UTF-8" standalone="no"?>
<!DOCTYPE svg PUBLIC "-//W3C//DTD SVG 1.1//EN"
 "http://www.w3.org/Graphics/SVG/1.1/DTD/svg11.dtd">
<!-- Generated by graphviz version 5.0.0 (20220707.1540)
 -->
<!-- Title: StickerEntities.hpp Pages: 1 -->
<svg width="3466pt" height="357pt"
 viewBox="0.00 0.00 3465.50 357.00" xmlns="http://www.w3.org/2000/svg" xmlns:xlink="http://www.w3.org/1999/xlink">
<g id="graph0" class="graph" transform="scale(1 1) rotate(0) translate(4 353)">
<title>StickerEntities.hpp</title>
<!-- Node1 -->
<g id="node1" class="node">
<title>Node1</title>
<g id="a_node1"><a xlink:title=" ">
<polygon fill="#999999" stroke="#666666" points="1740.5,-349 1641.5,-349 1641.5,-330 1740.5,-330 1740.5,-349"/>
<text text-anchor="middle" x="1691" y="-337" font-family="Helvetica,sans-Serif" font-size="10.00">StickerEntities.hpp</text>
</a>
</g>
</g>
<!-- Node2 -->
<g id="node2" class="node">
<title>Node2</title>
<g id="a_node2"><a xlink:href="_discord_core_client_8hpp.html" target="_top" xlink:title=" ">
<polygon fill="white" stroke="#666666" points="1586.5,-184 1473.5,-184 1473.5,-165 1586.5,-165 1586.5,-184"/>
<text text-anchor="middle" x="1530" y="-172" font-family="Helvetica,sans-Serif" font-size="10.00">DiscordCoreClient.hpp</text>
</a>
</g>
</g>
<!-- Node1&#45;&gt;Node2 -->
<g id="edge1" class="edge">
<title>Node1&#45;&gt;Node2</title>
<path fill="none" stroke="#63b8ff" d="M1675.18,-322.49C1641.7,-288.59 1564.64,-210.57 1538.7,-184.31"/>
<polygon fill="#63b8ff" stroke="#63b8ff" points="1672.83,-325.08 1682.34,-329.74 1677.81,-320.16 1672.83,-325.08"/>
</g>
<!-- Node22 -->
<g id="node22" class="node">
<title>Node22</title>
<g id="a_node22"><a xlink:href="_sticker_entities_8cpp.html" target="_top" xlink:title=" ">
<polygon fill="white" stroke="#666666" points="3457.5,-129 3358.5,-129 3358.5,-110 3457.5,-110 3457.5,-129"/>
<text text-anchor="middle" x="3408" y="-117" font-family="Helvetica,sans-Serif" font-size="10.00">StickerEntities.cpp</text>
</a>
</g>
</g>
<!-- Node1&#45;&gt;Node22 -->
<g id="edge42" class="edge">
<title>Node1&#45;&gt;Node22</title>
<path fill="none" stroke="#63b8ff" d="M1750.7,-331.34C1966.24,-305.4 2724.53,-213.43 3349,-129 3352.08,-128.58 3355.24,-128.15 3358.43,-127.7"/>
<polygon fill="#63b8ff" stroke="#63b8ff" points="1750.06,-327.89 1740.55,-332.56 1750.89,-334.84 1750.06,-327.89"/>
</g>
<!-- Node33 -->
<g id="node33" class="node">
<title>Node33</title>
<g id="a_node33"><a xlink:href="_guild_entities_8hpp.html" target="_top" xlink:title=" ">
<polygon fill="white" stroke="#666666" points="1575.5,-294 1484.5,-294 1484.5,-275 1575.5,-275 1575.5,-294"/>
<text text-anchor="middle" x="1530" y="-282" font-family="Helvetica,sans-Serif" font-size="10.00">GuildEntities.hpp</text>
</a>
</g>
</g>
<!-- Node1&#45;&gt;Node33 -->
<g id="edge32" class="edge">
<title>Node1&#45;&gt;Node33</title>
<path fill="none" stroke="#63b8ff" d="M1655.45,-326.8C1625.41,-316.91 1583.06,-302.97 1556.07,-294.08"/>
<polygon fill="#63b8ff" stroke="#63b8ff" points="1654.54,-330.18 1665.13,-329.98 1656.73,-323.53 1654.54,-330.18"/>
</g>
<!-- Node3 -->
<g id="node3" class="node">
<title>Node3</title>
<g id="a_node3"><a xlink:href="_application_command_entities_8cpp.html" target="_top" xlink:title=" ">
<polygon fill="white" stroke="#666666" points="1871.5,-129 1710.5,-129 1710.5,-110 1871.5,-110 1871.5,-129"/>
<text text-anchor="middle" x="1791" y="-117" font-family="Helvetica,sans-Serif" font-size="10.00">ApplicationCommandEntities.cpp</text>
</a>
</g>
</g>
<!-- Node2&#45;&gt;Node3 -->
<g id="edge2" class="edge">
<title>Node2&#45;&gt;Node3</title>
<path fill="none" stroke="#63b8ff" d="M1582,-162.94C1630.92,-153.01 1703.27,-138.31 1748.74,-129.08"/>
<polygon fill="#63b8ff" stroke="#63b8ff" points="1581.04,-159.56 1571.93,-164.98 1582.43,-166.42 1581.04,-159.56"/>
</g>
<!-- Node4 -->
<g id="node4" class="node">
<title>Node4</title>
<g id="a_node4"><a xlink:href="_auto_moderation_entities_8cpp.html" target="_top" xlink:title=" ">
<polygon fill="white" stroke="#666666" points="2026.5,-129 1889.5,-129 1889.5,-110 2026.5,-110 2026.5,-129"/>
<text text-anchor="middle" x="1958" y="-117" font-family="Helvetica,sans-Serif" font-size="10.00">AutoModerationEntities.cpp</text>
</a>
</g>
</g>
<!-- Node2&#45;&gt;Node4 -->
<g id="edge3" class="edge">
<title>Node2&#45;&gt;Node4</title>
<path fill="none" stroke="#63b8ff" d="M1597.24,-165.17C1676.9,-155.31 1808.92,-138.96 1889.24,-129.01"/>
<polygon fill="#63b8ff" stroke="#63b8ff" points="1596.33,-161.76 1586.84,-166.46 1597.19,-168.71 1596.33,-161.76"/>
</g>
<!-- Node5 -->
<g id="node5" class="node">
<title>Node5</title>
<g id="a_node5"><a xlink:href="_channel_entities_8cpp.html" target="_top" xlink:title=" ">
<polygon fill="white" stroke="#666666" points="2149,-129 2045,-129 2045,-110 2149,-110 2149,-129"/>
<text text-anchor="middle" x="2097" y="-117" font-family="Helvetica,sans-Serif" font-size="10.00">ChannelEntities.cpp</text>
</a>
</g>
</g>
<!-- Node2&#45;&gt;Node5 -->
<g id="edge4" class="edge">
<title>Node2&#45;&gt;Node5</title>
<path fill="none" stroke="#63b8ff" d="M1596.55,-165.46C1598.05,-165.3 1599.53,-165.15 1601,-165 1794.01,-145.47 1843.19,-150.4 2036,-129 2038.87,-128.68 2041.81,-128.34 2044.78,-127.97"/>
<polygon fill="#63b8ff" stroke="#63b8ff" points="1596.13,-161.98 1586.56,-166.54 1596.88,-168.94 1596.13,-161.98"/>
</g>
<!-- Node6 -->
<g id="node6" class="node">
<title>Node6</title>
<g id="a_node6"><a xlink:href="_command_controller_8cpp.html" target="_top" xlink:title=" ">
<polygon fill="white" stroke="#666666" points="2288.5,-129 2167.5,-129 2167.5,-110 2288.5,-110 2288.5,-129"/>
<text text-anchor="middle" x="2228" y="-117" font-family="Helvetica,sans-Serif" font-size="10.00">CommandController.cpp</text>
</a>
</g>
</g>
<!-- Node2&#45;&gt;Node6 -->
<g id="edge5" class="edge">
<title>Node2&#45;&gt;Node6</title>
<path fill="none" stroke="#63b8ff" d="M1596.55,-165.42C1598.05,-165.28 1599.53,-165.14 1601,-165 1848.03,-142.25 1910.99,-151.96 2158,-129 2161.05,-128.72 2164.17,-128.41 2167.32,-128.08"/>
<polygon fill="#63b8ff" stroke="#63b8ff" points="1596.14,-161.95 1586.55,-166.45 1596.86,-168.91 1596.14,-161.95"/>
</g>
<!-- Node7 -->
<g id="node7" class="node">
<title>Node7</title>
<g id="a_node7"><a xlink:href="_discord_core_client_8cpp.html" target="_top" xlink:title=" ">
<polygon fill="white" stroke="#666666" points="2419.5,-129 2306.5,-129 2306.5,-110 2419.5,-110 2419.5,-129"/>
<text text-anchor="middle" x="2363" y="-117" font-family="Helvetica,sans-Serif" font-size="10.00">DiscordCoreClient.cpp</text>
</a>
</g>
</g>
<!-- Node2&#45;&gt;Node7 -->
<g id="edge6" class="edge">
<title>Node2&#45;&gt;Node7</title>
<path fill="none" stroke="#63b8ff" d="M1596.55,-165.4C1598.05,-165.26 1599.53,-165.13 1601,-165 1910.06,-138.55 1989.09,-157.13 2298,-129 2300.72,-128.75 2303.5,-128.48 2306.31,-128.18"/>
<polygon fill="#63b8ff" stroke="#63b8ff" points="1596.15,-161.92 1586.55,-166.38 1596.84,-168.88 1596.15,-161.92"/>
</g>
<!-- Node8 -->
<g id="node8" class="node">
<title>Node8</title>
<g id="a_node8"><a xlink:href="_event_manager_8cpp.html" target="_top" xlink:title=" ">
<polygon fill="white" stroke="#666666" points="292.5,-129 195.5,-129 195.5,-110 292.5,-110 292.5,-129"/>
<text text-anchor="middle" x="244" y="-117" font-family="Helvetica,sans-Serif" font-size="10.00">EventManager.cpp</text>
</a>
</g>
</g>
<!-- Node2&#45;&gt;Node8 -->
<g id="edge7" class="edge">
<title>Node2&#45;&gt;Node8</title>
<path fill="none" stroke="#63b8ff" d="M1462.92,-171.5C1223.28,-164.29 417.53,-139.53 302,-129 298.96,-128.72 295.84,-128.39 292.69,-128.03"/>
<polygon fill="#63b8ff" stroke="#63b8ff" points="1463.13,-175.01 1473.23,-171.81 1463.34,-168.01 1463.13,-175.01"/>
</g>
<!-- Node9 -->
<g id="node9" class="node">
<title>Node9</title>
<g id="a_node9"><a xlink:href="_foundation_entities_8cpp.html" target="_top" xlink:title=" ">
<polygon fill="white" stroke="#666666" points="3196,-129 3080,-129 3080,-110 3196,-110 3196,-129"/>
<text text-anchor="middle" x="3138" y="-117" font-family="Helvetica,sans-Serif" font-size="10.00">FoundationEntities.cpp</text>
</a>
</g>
</g>
<!-- Node2&#45;&gt;Node9 -->
<g id="edge8" class="edge">
<title>Node2&#45;&gt;Node9</title>
<path fill="none" stroke="#63b8ff" d="M1596.54,-165.34C1598.04,-165.22 1599.53,-165.11 1601,-165 2252.84,-118.11 2419.32,-178.19 3071,-129 3073.92,-128.78 3076.91,-128.52 3079.93,-128.23"/>
<polygon fill="#63b8ff" stroke="#63b8ff" points="1596.18,-161.86 1586.53,-166.24 1596.81,-168.83 1596.18,-161.86"/>
</g>
<!-- Node10 -->
<g id="node10" class="node">
<title>Node10</title>
<g id="a_node10"><a xlink:href="_guild_entities_8cpp.html" target="_top" xlink:title=" ">
<polygon fill="white" stroke="#666666" points="177.5,-129 86.5,-129 86.5,-110 177.5,-110 177.5,-129"/>
<text text-anchor="middle" x="132" y="-117" font-family="Helvetica,sans-Serif" font-size="10.00">GuildEntities.cpp</text>
</a>
</g>
</g>
<!-- Node2&#45;&gt;Node10 -->
<g id="edge9" class="edge">
<title>Node2&#45;&gt;Node10</title>
<path fill="none" stroke="#63b8ff" d="M1463.21,-172.35C1228.04,-168.14 438.9,-152.55 187,-129 183.92,-128.71 180.75,-128.36 177.57,-127.97"/>
<polygon fill="#63b8ff" stroke="#63b8ff" points="1463.27,-175.85 1473.33,-172.53 1463.39,-168.85 1463.27,-175.85"/>
</g>
<!-- Node11 -->
<g id="node11" class="node">
<title>Node11</title>
<g id="a_node11"><a xlink:href="_guild_member_entities_8cpp.html" target="_top" xlink:title=" ">
<polygon fill="white" stroke="#666666" points="3340,-129 3214,-129 3214,-110 3340,-110 3340,-129"/>
<text text-anchor="middle" x="3277" y="-117" font-family="Helvetica,sans-Serif" font-size="10.00">GuildMemberEntities.cpp</text>
</a>
</g>
</g>
<!-- Node2&#45;&gt;Node11 -->
<g id="edge10" class="edge">
<title>Node2&#45;&gt;Node11</title>
<path fill="none" stroke="#63b8ff" d="M1596.59,-167.72C1610.59,-166.67 1625.27,-165.69 1639,-165 2334.3,-129.92 2510.53,-177.87 3205,-129 3207.89,-128.8 3210.84,-128.56 3213.82,-128.3"/>
<polygon fill="#63b8ff" stroke="#63b8ff" points="1596.24,-164.24 1586.54,-168.5 1596.77,-171.22 1596.24,-164.24"/>
</g>
<!-- Node12 -->
<g id="node12" class="node">
<title>Node12</title>
<g id="a_node12"><a xlink:href="_guild_scheduled_event_entities_8cpp.html" target="_top" xlink:title=" ">
<polygon fill="white" stroke="#666666" points="2598.5,-129 2437.5,-129 2437.5,-110 2598.5,-110 2598.5,-129"/>
<text text-anchor="middle" x="2518" y="-117" font-family="Helvetica,sans-Serif" font-size="10.00">GuildScheduledEventEntities.cpp</text>
</a>
</g>
</g>
<!-- Node2&#45;&gt;Node12 -->
<g id="edge11" class="edge">
<title>Node2&#45;&gt;Node12</title>
<path fill="none" stroke="#63b8ff" d="M1596.55,-165.38C1598.04,-165.25 1599.53,-165.12 1601,-165 1968.13,-135.09 2061.54,-154.52 2429,-129 2431.79,-128.81 2434.62,-128.6 2437.49,-128.38"/>
<polygon fill="#63b8ff" stroke="#63b8ff" points="1596.16,-161.9 1586.54,-166.34 1596.83,-168.87 1596.16,-161.9"/>
</g>
<!-- Node13 -->
<g id="node13" class="node">
<title>Node13</title>
<g id="a_node13"><a xlink:href="_https_client_8cpp.html" target="_top" xlink:title=" ">
<polygon fill="white" stroke="#666666" points="2699.5,-129 2616.5,-129 2616.5,-110 2699.5,-110 2699.5,-129"/>
<text text-anchor="middle" x="2658" y="-117" font-family="Helvetica,sans-Serif" font-size="10.00">HttpsClient.cpp</text>
</a>
</g>
</g>
<!-- Node2&#45;&gt;Node13 -->
<g id="edge12" class="edge">
<title>Node2&#45;&gt;Node13</title>
<path fill="none" stroke="#63b8ff" d="M1596.55,-165.36C1598.04,-165.24 1599.53,-165.11 1601,-165 2047.5,-130.35 2162.49,-174.63 2608,-129 2610.72,-128.72 2613.51,-128.39 2616.31,-128.01"/>
<polygon fill="#63b8ff" stroke="#63b8ff" points="1596.17,-161.88 1586.54,-166.3 1596.82,-168.85 1596.17,-161.88"/>
</g>
<!-- Node14 -->
<g id="node14" class="node">
<title>Node14</title>
<g id="a_node14"><a xlink:href="_input_events_8cpp.html" target="_top" xlink:title=" ">
<polygon fill="white" stroke="#666666" points="2804,-129 2718,-129 2718,-110 2804,-110 2804,-129"/>
<text text-anchor="middle" x="2761" y="-117" font-family="Helvetica,sans-Serif" font-size="10.00">InputEvents.cpp</text>
</a>
</g>
</g>
<!-- Node2&#45;&gt;Node14 -->
<g id="edge13" class="edge">
<title>Node2&#45;&gt;Node14</title>
<path fill="none" stroke="#63b8ff" d="M1596.55,-165.36C1598.04,-165.23 1599.53,-165.11 1601,-165 2092.29,-127.68 2218.62,-176.84 2709,-129 2711.91,-128.72 2714.91,-128.37 2717.93,-127.98"/>
<polygon fill="#63b8ff" stroke="#63b8ff" points="1596.17,-161.88 1586.54,-166.28 1596.82,-168.85 1596.17,-161.88"/>
</g>
<!-- Node15 -->
<g id="node15" class="node">
<title>Node15</title>
<g id="a_node15"><a xlink:href="_interaction_entities_8cpp.html" target="_top" xlink:title=" ">
<polygon fill="white" stroke="#666666" points="2935.5,-129 2822.5,-129 2822.5,-110 2935.5,-110 2935.5,-129"/>
<text text-anchor="middle" x="2879" y="-117" font-family="Helvetica,sans-Serif" font-size="10.00">InteractionEntities.cpp</text>
</a>
</g>
</g>
<!-- Node2&#45;&gt;Node15 -->
<g id="edge14" class="edge">
<title>Node2&#45;&gt;Node15</title>
<path fill="none" stroke="#63b8ff" d="M1596.55,-165.35C1598.04,-165.23 1599.53,-165.11 1601,-165 2138.41,-124.93 2275.77,-171.47 2813,-129 2815.99,-128.76 2819.06,-128.49 2822.16,-128.18"/>
<polygon fill="#63b8ff" stroke="#63b8ff" points="1596.18,-161.87 1586.54,-166.27 1596.81,-168.84 1596.18,-161.87"/>
</g>
<!-- Node16 -->
<g id="node16" class="node">
<title>Node16</title>
<g id="a_node16"><a xlink:href="_message_entities_8cpp.html" target="_top" xlink:title=" ">
<polygon fill="white" stroke="#666666" points="3062,-129 2954,-129 2954,-110 3062,-110 3062,-129"/>
<text text-anchor="middle" x="3008" y="-117" font-family="Helvetica,sans-Serif" font-size="10.00">MessageEntities.cpp</text>
</a>
</g>
</g>
<!-- Node2&#45;&gt;Node16 -->
<g id="edge15" class="edge">
<title>Node2&#45;&gt;Node16</title>
<path fill="none" stroke="#63b8ff" d="M1596.54,-165.35C1598.04,-165.22 1599.53,-165.11 1601,-165 2196.96,-121.44 2349.38,-177.02 2945,-129 2947.86,-128.77 2950.79,-128.5 2953.74,-128.2"/>
<polygon fill="#63b8ff" stroke="#63b8ff" points="1596.18,-161.87 1586.54,-166.25 1596.81,-168.84 1596.18,-161.87"/>
</g>
<!-- Node17 -->
<g id="node17" class="node">
<title>Node17</title>
<g id="a_node17"><a xlink:href="_reaction_entities_8cpp.html" target="_top" xlink:title=" ">
<polygon fill="white" stroke="#666666" points="546.5,-129 439.5,-129 439.5,-110 546.5,-110 546.5,-129"/>
<text text-anchor="middle" x="493" y="-117" font-family="Helvetica,sans-Serif" font-size="10.00">ReactionEntities.cpp</text>
</a>
</g>
</g>
<!-- Node2&#45;&gt;Node17 -->
<g id="edge16" class="edge">
<title>Node2&#45;&gt;Node17</title>
<path fill="none" stroke="#63b8ff" d="M1463.04,-169.58C1436.56,-168.08 1405.85,-166.39 1378,-165 1012.77,-146.79 920.24,-161.48 556,-129 552.92,-128.73 549.76,-128.41 546.58,-128.06"/>
<polygon fill="#63b8ff" stroke="#63b8ff" points="1463.16,-173.09 1473.35,-170.17 1463.56,-166.1 1463.16,-173.09"/>
</g>
<!-- Node18 -->
<g id="node18" class="node">
<title>Node18</title>
<g id="a_node18"><a xlink:href="_role_entities_8cpp.html" target="_top" xlink:title=" ">
<polygon fill="white" stroke="#666666" points="653,-129 565,-129 565,-110 653,-110 653,-129"/>
<text text-anchor="middle" x="609" y="-117" font-family="Helvetica,sans-Serif" font-size="10.00">RoleEntities.cpp</text>
</a>
</g>
</g>
<!-- Node2&#45;&gt;Node18 -->
<g id="edge17" class="edge">
<title>Node2&#45;&gt;Node18</title>
<path fill="none" stroke="#63b8ff" d="M1463.03,-169.67C1436.55,-168.18 1405.84,-166.48 1378,-165 1059.82,-148.1 978.88,-162.28 662,-129 659.13,-128.7 656.17,-128.35 653.2,-127.96"/>
<polygon fill="#63b8ff" stroke="#63b8ff" points="1463.16,-173.19 1473.34,-170.26 1463.55,-166.2 1463.16,-173.19"/>
</g>
<!-- Node19 -->
<g id="node19" class="node">
<title>Node19</title>
<g id="a_node19"><a xlink:href="_song_a_p_i_8cpp.html" target="_top" xlink:title=" ">
<polygon fill="white" stroke="#666666" points="745,-129 671,-129 671,-110 745,-110 745,-129"/>
<text text-anchor="middle" x="708" y="-117" font-family="Helvetica,sans-Serif" font-size="10.00">SongAPI.cpp</text>
</a>
</g>
</g>
<!-- Node2&#45;&gt;Node19 -->
<g id="edge18" class="edge">
<title>Node2&#45;&gt;Node19</title>
<path fill="none" stroke="#63b8ff" d="M1463.14,-169.72C1276.47,-159.16 762.77,-130.06 754,-129 751.1,-128.65 748.1,-128.23 745.1,-127.77"/>
<polygon fill="#63b8ff" stroke="#63b8ff" points="1463.19,-173.23 1473.37,-170.3 1463.58,-166.24 1463.19,-173.23"/>
</g>
<!-- Node20 -->
<g id="node20" class="node">
<title>Node20</title>
<g id="a_node20"><a xlink:href="_sound_cloud_a_p_i_8cpp.html" target="_top" xlink:title=" ">
<polygon fill="white" stroke="#666666" points="867,-129 763,-129 763,-110 867,-110 867,-129"/>
<text text-anchor="middle" x="815" y="-117" font-family="Helvetica,sans-Serif" font-size="10.00">SoundCloudAPI.cpp</text>
</a>
</g>
</g>
<!-- Node2&#45;&gt;Node20 -->
<g id="edge19" class="edge">
<title>Node2&#45;&gt;Node20</title>
<path fill="none" stroke="#63b8ff" d="M1463.02,-169.52C1320.11,-160.93 989.21,-140.5 877,-129 873.76,-128.67 870.42,-128.3 867.06,-127.9"/>
<polygon fill="#63b8ff" stroke="#63b8ff" points="1463.19,-173.03 1473.39,-170.14 1463.61,-166.05 1463.19,-173.03"/>
</g>
<!-- Node21 -->
<g id="node21" class="node">
<title>Node21</title>
<g id="a_node21"><a xlink:href="_stage_instance_entities_8cpp.html" target="_top" xlink:title=" ">
<polygon fill="white" stroke="#666666" points="1016.5,-129 885.5,-129 885.5,-110 1016.5,-110 1016.5,-129"/>
<text text-anchor="middle" x="951" y="-117" font-family="Helvetica,sans-Serif" font-size="10.00">StageInstanceEntities.cpp</text>
</a>
</g>
</g>
<!-- Node2&#45;&gt;Node21 -->
<g id="edge20" class="edge">
<title>Node2&#45;&gt;Node21</title>
<path fill="none" stroke="#63b8ff" d="M1463.06,-168.12C1366.47,-160.24 1182.42,-144.77 1026,-129 1023,-128.7 1019.94,-128.38 1016.84,-128.06"/>
<polygon fill="#63b8ff" stroke="#63b8ff" points="1463.02,-171.63 1473.27,-168.95 1463.59,-164.65 1463.02,-171.63"/>
</g>
<!-- Node2&#45;&gt;Node22 -->
<g id="edge21" class="edge">
<title>Node2&#45;&gt;Node22</title>
<path fill="none" stroke="#63b8ff" d="M1596.83,-172.93C1882.02,-170.32 2998.61,-158.42 3349,-129 3352.09,-128.74 3355.27,-128.42 3358.47,-128.07"/>
<polygon fill="#63b8ff" stroke="#63b8ff" points="1596.61,-169.43 1586.64,-173.02 1596.67,-176.43 1596.61,-169.43"/>
</g>
<!-- Node23 -->
<g id="node23" class="node">
<title>Node23</title>
<g id="a_node23"><a xlink:href="_thread_entities_8cpp.html" target="_top" xlink:title=" ">
<polygon fill="white" stroke="#666666" points="1133,-129 1035,-129 1035,-110 1133,-110 1133,-129"/>
<text text-anchor="middle" x="1084" y="-117" font-family="Helvetica,sans-Serif" font-size="10.00">ThreadEntities.cpp</text>
</a>
</g>
</g>
<!-- Node2&#45;&gt;Node23 -->
<g id="edge22" class="edge">
<title>Node2&#45;&gt;Node23</title>
<path fill="none" stroke="#63b8ff" d="M1463.15,-166.4C1385.95,-158.06 1255.17,-143.53 1143,-129 1139.82,-128.59 1136.54,-128.15 1133.24,-127.7"/>
<polygon fill="#63b8ff" stroke="#63b8ff" points="1462.9,-169.89 1473.21,-167.48 1463.65,-162.93 1462.9,-169.89"/>
</g>
<!-- Node24 -->
<g id="node24" class="node">
<title>Node24</title>
<g id="a_node24"><a xlink:href="_to_entity_8hpp.html" target="_top" xlink:title=" ">
<polygon fill="white" stroke="#666666" points="1222.5,-129 1151.5,-129 1151.5,-110 1222.5,-110 1222.5,-129"/>
<text text-anchor="middle" x="1187" y="-117" font-family="Helvetica,sans-Serif" font-size="10.00">ToEntity.hpp</text>
</a>
</g>
</g>
<!-- Node2&#45;&gt;Node24 -->
<g id="edge23" class="edge">
<title>Node2&#45;&gt;Node24</title>
<path fill="none" stroke="#63b8ff" d="M1463.15,-164.27C1402.67,-155.74 1311.23,-142.39 1232,-129 1229.02,-128.5 1225.93,-127.96 1222.84,-127.4"/>
<polygon fill="#63b8ff" stroke="#63b8ff" points="1462.93,-167.77 1473.32,-165.7 1463.91,-160.84 1462.93,-167.77"/>
</g>
<!-- Node27 -->
<g id="node27" class="node">
<title>Node27</title>
<g id="a_node27"><a xlink:href="_user_entities_8cpp.html" target="_top" xlink:title=" ">
<polygon fill="white" stroke="#666666" points="1329.5,-129 1240.5,-129 1240.5,-110 1329.5,-110 1329.5,-129"/>
<text text-anchor="middle" x="1285" y="-117" font-family="Helvetica,sans-Serif" font-size="10.00">UserEntities.cpp</text>
</a>
</g>
</g>
<!-- Node2&#45;&gt;Node27 -->
<g id="edge26" class="edge">
<title>Node2&#45;&gt;Node27</title>
<path fill="none" stroke="#63b8ff" d="M1480.61,-162.82C1434.7,-152.88 1367.17,-138.28 1324.67,-129.08"/>
<polygon fill="#63b8ff" stroke="#63b8ff" points="1480.12,-166.29 1490.64,-164.98 1481.6,-159.45 1480.12,-166.29"/>
</g>
<!-- Node28 -->
<g id="node28" class="node">
<title>Node28</title>
<g id="a_node28"><a xlink:href="_utilities_8cpp.html" target="_top" xlink:title=" ">
<polygon fill="white" stroke="#666666" points="68,-129 0,-129 0,-110 68,-110 68,-129"/>
<text text-anchor="middle" x="34" y="-117" font-family="Helvetica,sans-Serif" font-size="10.00">Utilities.cpp</text>
</a>
</g>
</g>
<!-- Node2&#45;&gt;Node28 -->
<g id="edge27" class="edge">
<title>Node2&#45;&gt;Node28</title>
<path fill="none" stroke="#63b8ff" d="M1463.19,-172.91C1215.65,-170.52 350.95,-160.06 77,-129 74.13,-128.67 71.16,-128.26 68.19,-127.79"/>
<polygon fill="#63b8ff" stroke="#63b8ff" points="1463.44,-176.42 1473.47,-173.01 1463.51,-169.42 1463.44,-176.42"/>
</g>
<!-- Node29 -->
<g id="node29" class="node">
<title>Node29</title>
<g id="a_node29"><a xlink:href="_voice_connection_8cpp.html" target="_top" xlink:title=" ">
<polygon fill="white" stroke="#666666" points="1456.5,-129 1347.5,-129 1347.5,-110 1456.5,-110 1456.5,-129"/>
<text text-anchor="middle" x="1402" y="-117" font-family="Helvetica,sans-Serif" font-size="10.00">VoiceConnection.cpp</text>
</a>
</g>
</g>
<!-- Node2&#45;&gt;Node29 -->
<g id="edge28" class="edge">
<title>Node2&#45;&gt;Node29</title>
<path fill="none" stroke="#63b8ff" d="M1499.88,-161.03C1476.21,-151.23 1443.85,-137.83 1422.94,-129.17"/>
<polygon fill="#63b8ff" stroke="#63b8ff" points="1498.86,-164.39 1509.43,-164.98 1501.53,-157.93 1498.86,-164.39"/>
</g>
<!-- Node30 -->
<g id="node30" class="node">
<title>Node30</title>
<g id="a_node30"><a xlink:href="_web_hook_entities_8cpp.html" target="_top" xlink:title=" ">
<polygon fill="white" stroke="#666666" points="1585.5,-129 1474.5,-129 1474.5,-110 1585.5,-110 1585.5,-129"/>
<text text-anchor="middle" x="1530" y="-117" font-family="Helvetica,sans-Serif" font-size="10.00">WebHookEntities.cpp</text>
</a>
</g>
</g>
<!-- Node2&#45;&gt;Node30 -->
<g id="edge29" class="edge">
<title>Node2&#45;&gt;Node30</title>
<path fill="none" stroke="#63b8ff" d="M1530,-154.66C1530,-145.93 1530,-135.99 1530,-129.09"/>
<polygon fill="#63b8ff" stroke="#63b8ff" points="1526.5,-154.75 1530,-164.75 1533.5,-154.75 1526.5,-154.75"/>
</g>
<!-- Node31 -->
<g id="node31" class="node">
<title>Node31</title>
<g id="a_node31"><a xlink:href="_web_socket_client_8cpp.html" target="_top" xlink:title=" ">
<polygon fill="white" stroke="#666666" points="421.5,-129 310.5,-129 310.5,-110 421.5,-110 421.5,-129"/>
<text text-anchor="middle" x="366" y="-117" font-family="Helvetica,sans-Serif" font-size="10.00">WebSocketClient.cpp</text>
</a>
</g>
</g>
<!-- Node2&#45;&gt;Node31 -->
<g id="edge30" class="edge">
<title>Node2&#45;&gt;Node31</title>
<path fill="none" stroke="#63b8ff" d="M1463.04,-169.5C1436.56,-167.98 1405.85,-166.31 1378,-165 957.27,-145.24 850.71,-164.34 431,-129 427.94,-128.74 424.8,-128.44 421.63,-128.12"/>
<polygon fill="#63b8ff" stroke="#63b8ff" points="1463.16,-173.01 1473.35,-170.09 1463.57,-166.02 1463.16,-173.01"/>
</g>
<!-- Node32 -->
<g id="node32" class="node">
<title>Node32</title>
<g id="a_node32"><a xlink:href="_you_tube_a_p_i_8cpp.html" target="_top" xlink:title=" ">
<polygon fill="white" stroke="#666666" points="1692.5,-129 1603.5,-129 1603.5,-110 1692.5,-110 1692.5,-129"/>
<text text-anchor="middle" x="1648" y="-117" font-family="Helvetica,sans-Serif" font-size="10.00">YouTubeAPI.cpp</text>
</a>
</g>
</g>
<!-- Node2&#45;&gt;Node32 -->
<g id="edge31" class="edge">
<title>Node2&#45;&gt;Node32</title>
<path fill="none" stroke="#63b8ff" d="M1558.35,-160.77C1580.12,-150.99 1609.59,-137.75 1628.7,-129.17"/>
<polygon fill="#63b8ff" stroke="#63b8ff" points="1556.65,-157.69 1548.96,-164.98 1559.51,-164.08 1556.65,-157.69"/>
</g>
<!-- Node25 -->
<g id="node25" class="node">
<title>Node25</title>
<g id="a_node25"><a xlink:href="_index_8hpp.html" target="_top" xlink:title=" ">
<polygon fill="white" stroke="#666666" points="1216.5,-74 1157.5,-74 1157.5,-55 1216.5,-55 1216.5,-74"/>
<text text-anchor="middle" x="1187" y="-62" font-family="Helvetica,sans-Serif" font-size="10.00">Index.hpp</text>
</a>
</g>
</g>
<!-- Node24&#45;&gt;Node25 -->
<g id="edge24" class="edge">
<title>Node24&#45;&gt;Node25</title>
<path fill="none" stroke="#63b8ff" d="M1187,-99.66C1187,-90.93 1187,-80.99 1187,-74.09"/>
<polygon fill="#63b8ff" stroke="#63b8ff" points="1183.5,-99.75 1187,-109.75 1190.5,-99.75 1183.5,-99.75"/>
</g>
<!-- Node26 -->
<g id="node26" class="node">
<title>Node26</title>
<g id="a_node26"><a xlink:href="_dll_main_8cpp.html" target="_top" xlink:title=" ">
<polygon fill="white" stroke="#666666" points="1221,-19 1153,-19 1153,0 1221,0 1221,-19"/>
<text text-anchor="middle" x="1187" y="-7" font-family="Helvetica,sans-Serif" font-size="10.00">DllMain.cpp</text>
</a>
</g>
</g>
<!-- Node25&#45;&gt;Node26 -->
<g id="edge25" class="edge">
<title>Node25&#45;&gt;Node26</title>
<path fill="none" stroke="#63b8ff" d="M1187,-44.66C1187,-35.93 1187,-25.99 1187,-19.09"/>
<polygon fill="#63b8ff" stroke="#63b8ff" points="1183.5,-44.75 1187,-54.75 1190.5,-44.75 1183.5,-44.75"/>
</g>
<!-- Node33&#45;&gt;Node2 -->
<g id="edge33" class="edge">
<title>Node33&#45;&gt;Node2</title>
<path fill="none" stroke="#63b8ff" d="M1530,-264.48C1530,-240.84 1530,-201.5 1530,-184.16"/>
<polygon fill="#63b8ff" stroke="#63b8ff" points="1526.5,-264.66 1530,-274.66 1533.5,-264.66 1526.5,-264.66"/>
</g>
<!-- Node33&#45;&gt;Node9 -->
<g id="edge38" class="edge">
<title>Node33&#45;&gt;Node9</title>
<path fill="none" stroke="#63b8ff" d="M1539.81,-265.86C1556.21,-238.38 1592.08,-186.3 1639,-165 1711.46,-132.11 2991.65,-135.02 3071,-129 3073.92,-128.78 3076.91,-128.52 3079.93,-128.23"/>
<polygon fill="#63b8ff" stroke="#63b8ff" points="1536.63,-264.36 1534.66,-274.77 1542.69,-267.86 1536.63,-264.36"/>
</g>
<!-- Node33&#45;&gt;Node10 -->
<g id="edge39" class="edge">
<title>Node33&#45;&gt;Node10</title>
<path fill="none" stroke="#63b8ff" d="M1474.44,-277.89C1290.63,-259.16 685.51,-196.17 187,-129 183.94,-128.59 180.78,-128.14 177.6,-127.69"/>
<polygon fill="#63b8ff" stroke="#63b8ff" points="1474.11,-281.37 1484.41,-278.9 1474.82,-274.41 1474.11,-281.37"/>
</g>
<!-- Node33&#45;&gt;Node11 -->
<g id="edge40" class="edge">
<title>Node33&#45;&gt;Node11</title>
<path fill="none" stroke="#63b8ff" d="M1585.72,-275.86C1739.56,-255.03 2183.37,-196.66 2554,-165 2842.72,-140.33 2916.3,-154 3205,-129 3207.88,-128.75 3210.83,-128.48 3213.81,-128.19"/>
<polygon fill="#63b8ff" stroke="#63b8ff" points="1585.01,-272.42 1575.58,-277.24 1585.96,-279.36 1585.01,-272.42"/>
</g>
<!-- Node33&#45;&gt;Node28 -->
<g id="edge41" class="edge">
<title>Node33&#45;&gt;Node28</title>
<path fill="none" stroke="#63b8ff" d="M1474.11,-280.1C1368.88,-273.53 1134.16,-258.02 937,-239 729.42,-218.97 677.84,-210.64 471,-184 295.64,-161.41 251.35,-158.38 77,-129 74.15,-128.52 71.2,-127.99 68.24,-127.45"/>
<polygon fill="#63b8ff" stroke="#63b8ff" points="1473.99,-283.6 1484.19,-280.73 1474.42,-276.61 1473.99,-283.6"/>
</g>
<!-- Node34 -->
<g id="node34" class="node">
<title>Node34</title>
<g id="a_node34"><a xlink:href="_event_manager_8hpp.html" target="_top" xlink:title=" ">
<polygon fill="white" stroke="#666666" points="1498.5,-239 1401.5,-239 1401.5,-220 1498.5,-220 1498.5,-239"/>
<text text-anchor="middle" x="1450" y="-227" font-family="Helvetica,sans-Serif" font-size="10.00">EventManager.hpp</text>
</a>
</g>
</g>
<!-- Node33&#45;&gt;Node34 -->
<g id="edge34" class="edge">
<title>Node33&#45;&gt;Node34</title>
<path fill="none" stroke="#63b8ff" d="M1508.75,-269.42C1494.24,-259.81 1475.46,-247.37 1463.09,-239.17"/>
<polygon fill="#63b8ff" stroke="#63b8ff" points="1506.88,-272.38 1517.15,-274.98 1510.74,-266.54 1506.88,-272.38"/>
</g>
<!-- Node34&#45;&gt;Node2 -->
<g id="edge35" class="edge">
<title>Node34&#45;&gt;Node2</title>
<path fill="none" stroke="#63b8ff" d="M1471.25,-214.42C1485.76,-204.81 1504.54,-192.37 1516.91,-184.17"/>
<polygon fill="#63b8ff" stroke="#63b8ff" points="1469.26,-211.54 1462.85,-219.98 1473.12,-217.38 1469.26,-211.54"/>
</g>
<!-- Node34&#45;&gt;Node8 -->
<g id="edge36" class="edge">
<title>Node34&#45;&gt;Node8</title>
<path fill="none" stroke="#63b8ff" d="M1391.05,-222C1279.09,-209.79 1027.9,-183.03 816,-165 587.82,-145.59 529.68,-153.62 302,-129 298.96,-128.67 295.84,-128.3 292.7,-127.91"/>
<polygon fill="#63b8ff" stroke="#63b8ff" points="1390.8,-225.5 1401.13,-223.1 1391.56,-218.54 1390.8,-225.5"/>
</g>
<!-- Node34&#45;&gt;Node31 -->
<g id="edge37" class="edge">
<title>Node34&#45;&gt;Node31</title>
<path fill="none" stroke="#63b8ff" d="M1411.48,-217.18C1359.15,-202.33 1262.42,-176.79 1178,-165 848.81,-119.03 762.07,-158.57 431,-129 427.94,-128.73 424.8,-128.42 421.64,-128.08"/>
<polygon fill="#63b8ff" stroke="#63b8ff" points="1410.76,-220.61 1421.34,-219.99 1412.69,-213.88 1410.76,-220.61"/>
</g>
</g>
</svg>
