<?xml version="1.0" encoding="UTF-8" standalone="no"?>
<!DOCTYPE svg PUBLIC "-//W3C//DTD SVG 1.1//EN"
 "http://www.w3.org/Graphics/SVG/1.1/DTD/svg11.dtd">
<!-- Generated by graphviz version 2.43.0 (0)
 -->
<!-- Title: ThreadEntities.hpp Pages: 1 -->
<svg width="3738pt" height="302pt"
 viewBox="0.00 0.00 3738.00 302.00" xmlns="http://www.w3.org/2000/svg" xmlns:xlink="http://www.w3.org/1999/xlink">
<g id="graph0" class="graph" transform="scale(1 1) rotate(0) translate(4 298)">
<title>ThreadEntities.hpp</title>
<!-- Node1 -->
<g id="Node000001" class="node">
<title>Node1</title>
<g id="a_Node000001"><a xlink:title=" ">
<polygon fill="#999999" stroke="#666666" points="1719.5,-294 1611.5,-294 1611.5,-275 1719.5,-275 1719.5,-294"/>
<text text-anchor="middle" x="1665.5" y="-282" font-family="Helvetica,sans-Serif" font-size="10.00">ThreadEntities.hpp</text>
</a>
</g>
</g>
<!-- Node2 -->
<g id="Node000002" class="node">
<title>Node2</title>
<g id="a_Node000002"><a xlink:href="_discord_core_client_8hpp.html" target="_top" xlink:title=" ">
<polygon fill="white" stroke="#666666" points="1728,-184 1603,-184 1603,-165 1728,-165 1728,-184"/>
<text text-anchor="middle" x="1665.5" y="-172" font-family="Helvetica,sans-Serif" font-size="10.00">DiscordCoreClient.hpp</text>
</a>
</g>
</g>
<!-- Node1&#45;&gt;Node2 -->
<g id="edge1_Node000001_Node000002" class="edge">
<title>Node1&#45;&gt;Node2</title>
<g id="a_edge1_Node000001_Node000002"><a xlink:title=" ">
<path fill="none" stroke="#63b8ff" d="M1665.5,-264.48C1665.5,-240.84 1665.5,-201.5 1665.5,-184.16"/>
<polygon fill="#63b8ff" stroke="#63b8ff" points="1662,-264.66 1665.5,-274.66 1669,-264.66 1662,-264.66"/>
</a>
</g>
</g>
<!-- Node23 -->
<g id="Node000023" class="node">
<title>Node23</title>
<g id="a_Node000023"><a xlink:href="_thread_entities_8cpp.html" target="_top" xlink:title=" ">
<polygon fill="white" stroke="#666666" points="3730,-129 3623,-129 3623,-110 3730,-110 3730,-129"/>
<text text-anchor="middle" x="3676.5" y="-117" font-family="Helvetica,sans-Serif" font-size="10.00">ThreadEntities.cpp</text>
</a>
</g>
</g>
<!-- Node1&#45;&gt;Node23 -->
<g id="edge36_Node000001_Node000023" class="edge">
<title>Node1&#45;&gt;Node23</title>
<g id="a_edge36_Node000001_Node000023"><a xlink:title=" ">
<path fill="none" stroke="#63b8ff" d="M1730.04,-279.73C1975.72,-265.09 2875.94,-208.83 3614.5,-129 3617.2,-128.71 3619.96,-128.39 3622.75,-128.06"/>
<polygon fill="#63b8ff" stroke="#63b8ff" points="1729.63,-276.25 1719.86,-280.33 1730.05,-283.23 1729.63,-276.25"/>
</a>
</g>
</g>
<!-- Node33 -->
<g id="Node000033" class="node">
<title>Node33</title>
<g id="a_Node000033"><a xlink:href="_event_manager_8hpp.html" target="_top" xlink:title=" ">
<polygon fill="white" stroke="#666666" points="1447,-239 1340,-239 1340,-220 1447,-220 1447,-239"/>
<text text-anchor="middle" x="1393.5" y="-227" font-family="Helvetica,sans-Serif" font-size="10.00">EventManager.hpp</text>
</a>
</g>
</g>
<!-- Node1&#45;&gt;Node33 -->
<g id="edge32_Node000001_Node000033" class="edge">
<title>Node1&#45;&gt;Node33</title>
<g id="a_edge32_Node000001_Node000033"><a xlink:title=" ">
<path fill="none" stroke="#63b8ff" d="M1611.95,-273.07C1560.95,-263.13 1485.13,-248.35 1437.54,-239.08"/>
<polygon fill="#63b8ff" stroke="#63b8ff" points="1611.31,-276.51 1621.8,-274.98 1612.65,-269.64 1611.31,-276.51"/>
</a>
</g>
</g>
<!-- Node3 -->
<g id="Node000003" class="node">
<title>Node3</title>
<g id="a_Node000003"><a xlink:href="_application_command_entities_8cpp.html" target="_top" xlink:title=" ">
<polygon fill="white" stroke="#666666" points="2389,-129 2210,-129 2210,-110 2389,-110 2389,-129"/>
<text text-anchor="middle" x="2299.5" y="-117" font-family="Helvetica,sans-Serif" font-size="10.00">ApplicationCommandEntities.cpp</text>
</a>
</g>
</g>
<!-- Node2&#45;&gt;Node3 -->
<g id="edge2_Node000002_Node000003" class="edge">
<title>Node2&#45;&gt;Node3</title>
<g id="a_edge2_Node000002_Node000003"><a xlink:title=" ">
<path fill="none" stroke="#63b8ff" d="M1738.07,-167.53C1840.96,-159.04 2035.12,-142.98 2200.5,-129 2203.59,-128.74 2206.74,-128.47 2209.92,-128.2"/>
<polygon fill="#63b8ff" stroke="#63b8ff" points="1737.78,-164.04 1728.1,-168.35 1738.36,-171.01 1737.78,-164.04"/>
</a>
</g>
</g>
<!-- Node4 -->
<g id="Node000004" class="node">
<title>Node4</title>
<g id="a_Node000004"><a xlink:href="_auto_moderation_entities_8cpp.html" target="_top" xlink:title=" ">
<polygon fill="white" stroke="#666666" points="2559.5,-129 2407.5,-129 2407.5,-110 2559.5,-110 2559.5,-129"/>
<text text-anchor="middle" x="2483.5" y="-117" font-family="Helvetica,sans-Serif" font-size="10.00">AutoModerationEntities.cpp</text>
</a>
</g>
</g>
<!-- Node2&#45;&gt;Node4 -->
<g id="edge3_Node000002_Node000004" class="edge">
<title>Node2&#45;&gt;Node4</title>
<g id="a_edge3_Node000002_Node000004"><a xlink:title=" ">
<path fill="none" stroke="#63b8ff" d="M1738.69,-170C1870.66,-163.49 2157.22,-148.38 2398.5,-129 2401.31,-128.77 2404.17,-128.54 2407.06,-128.29"/>
<polygon fill="#63b8ff" stroke="#63b8ff" points="1738.13,-166.53 1728.31,-170.51 1738.47,-173.52 1738.13,-166.53"/>
</a>
</g>
</g>
<!-- Node5 -->
<g id="Node000005" class="node">
<title>Node5</title>
<g id="a_Node000005"><a xlink:href="_channel_entities_8cpp.html" target="_top" xlink:title=" ">
<polygon fill="white" stroke="#666666" points="2691,-129 2578,-129 2578,-110 2691,-110 2691,-129"/>
<text text-anchor="middle" x="2634.5" y="-117" font-family="Helvetica,sans-Serif" font-size="10.00">ChannelEntities.cpp</text>
</a>
</g>
</g>
<!-- Node2&#45;&gt;Node5 -->
<g id="edge4_Node000002_Node000005" class="edge">
<title>Node2&#45;&gt;Node5</title>
<g id="a_edge4_Node000002_Node000005"><a xlink:title=" ">
<path fill="none" stroke="#63b8ff" d="M1738.26,-171.86C1891.89,-167.97 2260.54,-156.38 2568.5,-129 2571.49,-128.73 2574.56,-128.43 2577.65,-128.11"/>
<polygon fill="#63b8ff" stroke="#63b8ff" points="1737.93,-168.37 1728.02,-172.12 1738.1,-175.36 1737.93,-168.37"/>
</a>
</g>
</g>
<!-- Node6 -->
<g id="Node000006" class="node">
<title>Node6</title>
<g id="a_Node000006"><a xlink:href="_command_controller_8cpp.html" target="_top" xlink:title=" ">
<polygon fill="white" stroke="#666666" points="2843.5,-129 2709.5,-129 2709.5,-110 2843.5,-110 2843.5,-129"/>
<text text-anchor="middle" x="2776.5" y="-117" font-family="Helvetica,sans-Serif" font-size="10.00">CommandController.cpp</text>
</a>
</g>
</g>
<!-- Node2&#45;&gt;Node6 -->
<g id="edge5_Node000002_Node000006" class="edge">
<title>Node2&#45;&gt;Node6</title>
<g id="a_edge5_Node000002_Node000006"><a xlink:title=" ">
<path fill="none" stroke="#63b8ff" d="M1738.03,-172.09C1906.97,-168.42 2339.82,-156.89 2700.5,-129 2703.41,-128.77 2706.39,-128.53 2709.39,-128.26"/>
<polygon fill="#63b8ff" stroke="#63b8ff" points="1737.93,-168.59 1728.01,-172.3 1738.08,-175.59 1737.93,-168.59"/>
</a>
</g>
</g>
<!-- Node7 -->
<g id="Node000007" class="node">
<title>Node7</title>
<g id="a_Node000007"><a xlink:href="_discord_core_client_8cpp.html" target="_top" xlink:title=" ">
<polygon fill="white" stroke="#666666" points="2987,-129 2862,-129 2862,-110 2987,-110 2987,-129"/>
<text text-anchor="middle" x="2924.5" y="-117" font-family="Helvetica,sans-Serif" font-size="10.00">DiscordCoreClient.cpp</text>
</a>
</g>
</g>
<!-- Node2&#45;&gt;Node7 -->
<g id="edge6_Node000002_Node000007" class="edge">
<title>Node2&#45;&gt;Node7</title>
<g id="a_edge6_Node000002_Node000007"><a xlink:title=" ">
<path fill="none" stroke="#63b8ff" d="M1738.21,-172.8C1924.01,-170.56 2431.27,-161.71 2852.5,-129 2855.51,-128.77 2858.59,-128.5 2861.7,-128.21"/>
<polygon fill="#63b8ff" stroke="#63b8ff" points="1737.98,-169.3 1728.02,-172.92 1738.06,-176.3 1737.98,-169.3"/>
</a>
</g>
</g>
<!-- Node8 -->
<g id="Node000008" class="node">
<title>Node8</title>
<g id="a_Node000008"><a xlink:href="_event_manager_8cpp.html" target="_top" xlink:title=" ">
<polygon fill="white" stroke="#666666" points="107,-129 0,-129 0,-110 107,-110 107,-129"/>
<text text-anchor="middle" x="53.5" y="-117" font-family="Helvetica,sans-Serif" font-size="10.00">EventManager.cpp</text>
</a>
</g>
</g>
<!-- Node2&#45;&gt;Node8 -->
<g id="edge7_Node000002_Node000008" class="edge">
<title>Node2&#45;&gt;Node8</title>
<g id="a_edge7_Node000002_Node000008"><a xlink:title=" ">
<path fill="none" stroke="#63b8ff" d="M1592.38,-172.45C1326,-168.44 407.89,-153.17 115.5,-129 112.79,-128.78 110.02,-128.52 107.23,-128.23"/>
<polygon fill="#63b8ff" stroke="#63b8ff" points="1592.65,-175.95 1602.7,-172.6 1592.76,-168.95 1592.65,-175.95"/>
</a>
</g>
</g>
<!-- Node9 -->
<g id="Node000009" class="node">
<title>Node9</title>
<g id="a_Node000009"><a xlink:href="_foundation_entities_8cpp.html" target="_top" xlink:title=" ">
<polygon fill="white" stroke="#666666" points="3133.5,-129 3005.5,-129 3005.5,-110 3133.5,-110 3133.5,-129"/>
<text text-anchor="middle" x="3069.5" y="-117" font-family="Helvetica,sans-Serif" font-size="10.00">FoundationEntities.cpp</text>
</a>
</g>
</g>
<!-- Node2&#45;&gt;Node9 -->
<g id="edge8_Node000002_Node000009" class="edge">
<title>Node2&#45;&gt;Node9</title>
<g id="a_edge8_Node000002_Node000009"><a xlink:title=" ">
<path fill="none" stroke="#63b8ff" d="M1738.44,-173.17C1939.32,-171.81 2517.48,-164.83 2996.5,-129 2999.43,-128.78 3002.42,-128.53 3005.43,-128.26"/>
<polygon fill="#63b8ff" stroke="#63b8ff" points="1738.28,-169.67 1728.31,-173.24 1738.33,-176.67 1738.28,-169.67"/>
</a>
</g>
</g>
<!-- Node10 -->
<g id="Node000010" class="node">
<title>Node10</title>
<g id="a_Node000010"><a xlink:href="_guild_entities_8cpp.html" target="_top" xlink:title=" ">
<polygon fill="white" stroke="#666666" points="3251,-129 3152,-129 3152,-110 3251,-110 3251,-129"/>
<text text-anchor="middle" x="3201.5" y="-117" font-family="Helvetica,sans-Serif" font-size="10.00">GuildEntities.cpp</text>
</a>
</g>
</g>
<!-- Node2&#45;&gt;Node10 -->
<g id="edge9_Node000002_Node000010" class="edge">
<title>Node2&#45;&gt;Node10</title>
<g id="a_edge9_Node000002_Node000010"><a xlink:title=" ">
<path fill="none" stroke="#63b8ff" d="M1738.23,-172.4C1995.96,-168.32 2865.07,-153.09 3142.5,-129 3145.59,-128.73 3148.77,-128.41 3151.97,-128.05"/>
<polygon fill="#63b8ff" stroke="#63b8ff" points="1738.17,-168.9 1728.23,-172.56 1738.29,-175.9 1738.17,-168.9"/>
</a>
</g>
</g>
<!-- Node11 -->
<g id="Node000011" class="node">
<title>Node11</title>
<g id="a_Node000011"><a xlink:href="_guild_member_entities_8cpp.html" target="_top" xlink:title=" ">
<polygon fill="white" stroke="#666666" points="3409.5,-129 3269.5,-129 3269.5,-110 3409.5,-110 3409.5,-129"/>
<text text-anchor="middle" x="3339.5" y="-117" font-family="Helvetica,sans-Serif" font-size="10.00">GuildMemberEntities.cpp</text>
</a>
</g>
</g>
<!-- Node2&#45;&gt;Node11 -->
<g id="edge10_Node000002_Node000011" class="edge">
<title>Node2&#45;&gt;Node11</title>
<g id="a_edge10_Node000002_Node000011"><a xlink:title=" ">
<path fill="none" stroke="#63b8ff" d="M1738.36,-173.52C1964.48,-173.15 2674.24,-168.65 3260.5,-129 3263.39,-128.8 3266.34,-128.58 3269.31,-128.34"/>
<polygon fill="#63b8ff" stroke="#63b8ff" points="1738.28,-170.02 1728.28,-173.54 1738.29,-177.02 1738.28,-170.02"/>
</a>
</g>
</g>
<!-- Node12 -->
<g id="Node000012" class="node">
<title>Node12</title>
<g id="a_Node000012"><a xlink:href="_guild_scheduled_event_entities_8cpp.html" target="_top" xlink:title=" ">
<polygon fill="white" stroke="#666666" points="3605,-129 3428,-129 3428,-110 3605,-110 3605,-129"/>
<text text-anchor="middle" x="3516.5" y="-117" font-family="Helvetica,sans-Serif" font-size="10.00">GuildScheduledEventEntities.cpp</text>
</a>
</g>
</g>
<!-- Node2&#45;&gt;Node12 -->
<g id="edge11_Node000002_Node000012" class="edge">
<title>Node2&#45;&gt;Node12</title>
<g id="a_edge11_Node000002_Node000012"><a xlink:title=" ">
<path fill="none" stroke="#63b8ff" d="M1738.4,-173.24C1978.68,-172.06 2767.44,-165.46 3418.5,-129 3421.57,-128.83 3424.69,-128.64 3427.84,-128.43"/>
<polygon fill="#63b8ff" stroke="#63b8ff" points="1738.04,-169.75 1728.05,-173.29 1738.07,-176.75 1738.04,-169.75"/>
</a>
</g>
</g>
<!-- Node13 -->
<g id="Node000013" class="node">
<title>Node13</title>
<g id="a_Node000013"><a xlink:href="_https_client_8cpp.html" target="_top" xlink:title=" ">
<polygon fill="white" stroke="#666666" points="354.5,-129 262.5,-129 262.5,-110 354.5,-110 354.5,-129"/>
<text text-anchor="middle" x="308.5" y="-117" font-family="Helvetica,sans-Serif" font-size="10.00">HttpsClient.cpp</text>
</a>
</g>
</g>
<!-- Node2&#45;&gt;Node13 -->
<g id="edge12_Node000002_Node000013" class="edge">
<title>Node2&#45;&gt;Node13</title>
<g id="a_edge12_Node000002_Node000013"><a xlink:title=" ">
<path fill="none" stroke="#63b8ff" d="M1592.43,-172.12C1354.83,-167.47 605.64,-151.35 364.5,-129 361.27,-128.7 357.94,-128.34 354.59,-127.93"/>
<polygon fill="#63b8ff" stroke="#63b8ff" points="1592.61,-175.63 1602.68,-172.32 1592.75,-168.63 1592.61,-175.63"/>
</a>
</g>
</g>
<!-- Node14 -->
<g id="Node000014" class="node">
<title>Node14</title>
<g id="a_Node000014"><a xlink:href="_input_events_8cpp.html" target="_top" xlink:title=" ">
<polygon fill="white" stroke="#666666" points="468,-129 373,-129 373,-110 468,-110 468,-129"/>
<text text-anchor="middle" x="420.5" y="-117" font-family="Helvetica,sans-Serif" font-size="10.00">InputEvents.cpp</text>
</a>
</g>
</g>
<!-- Node2&#45;&gt;Node14 -->
<g id="edge13_Node000002_Node000014" class="edge">
<title>Node2&#45;&gt;Node14</title>
<g id="a_edge13_Node000002_Node000014"><a xlink:title=" ">
<path fill="none" stroke="#63b8ff" d="M1592.4,-171.82C1368.72,-166.52 695.6,-149.28 477.5,-129 474.41,-128.71 471.24,-128.37 468.04,-127.99"/>
<polygon fill="#63b8ff" stroke="#63b8ff" points="1592.62,-175.33 1602.7,-172.07 1592.79,-168.33 1592.62,-175.33"/>
</a>
</g>
</g>
<!-- Node15 -->
<g id="Node000015" class="node">
<title>Node15</title>
<g id="a_Node000015"><a xlink:href="_interaction_entities_8cpp.html" target="_top" xlink:title=" ">
<polygon fill="white" stroke="#666666" points="612.5,-129 486.5,-129 486.5,-110 612.5,-110 612.5,-129"/>
<text text-anchor="middle" x="549.5" y="-117" font-family="Helvetica,sans-Serif" font-size="10.00">InteractionEntities.cpp</text>
</a>
</g>
</g>
<!-- Node2&#45;&gt;Node15 -->
<g id="edge14_Node000002_Node000015" class="edge">
<title>Node2&#45;&gt;Node15</title>
<g id="a_edge14_Node000002_Node000015"><a xlink:title=" ">
<path fill="none" stroke="#63b8ff" d="M1592.71,-172.23C1422.66,-168.86 986.13,-157.89 622.5,-129 619.32,-128.75 616.07,-128.46 612.78,-128.16"/>
<polygon fill="#63b8ff" stroke="#63b8ff" points="1592.73,-175.73 1602.8,-172.43 1592.87,-168.73 1592.73,-175.73"/>
</a>
</g>
</g>
<!-- Node16 -->
<g id="Node000016" class="node">
<title>Node16</title>
<g id="a_Node000016"><a xlink:href="_message_entities_8cpp.html" target="_top" xlink:title=" ">
<polygon fill="white" stroke="#666666" points="748,-129 631,-129 631,-110 748,-110 748,-129"/>
<text text-anchor="middle" x="689.5" y="-117" font-family="Helvetica,sans-Serif" font-size="10.00">MessageEntities.cpp</text>
</a>
</g>
</g>
<!-- Node2&#45;&gt;Node16 -->
<g id="edge15_Node000002_Node000016" class="edge">
<title>Node2&#45;&gt;Node16</title>
<g id="a_edge15_Node000002_Node000016"><a xlink:title=" ">
<path fill="none" stroke="#63b8ff" d="M1592.63,-171.79C1438.34,-167.77 1067.41,-155.92 757.5,-129 754.42,-128.73 751.26,-128.43 748.08,-128.11"/>
<polygon fill="#63b8ff" stroke="#63b8ff" points="1592.83,-175.3 1602.92,-172.06 1593.01,-168.3 1592.83,-175.3"/>
</a>
</g>
</g>
<!-- Node17 -->
<g id="Node000017" class="node">
<title>Node17</title>
<g id="a_Node000017"><a xlink:href="_reaction_entities_8cpp.html" target="_top" xlink:title=" ">
<polygon fill="white" stroke="#666666" points="882.5,-129 766.5,-129 766.5,-110 882.5,-110 882.5,-129"/>
<text text-anchor="middle" x="824.5" y="-117" font-family="Helvetica,sans-Serif" font-size="10.00">ReactionEntities.cpp</text>
</a>
</g>
</g>
<!-- Node2&#45;&gt;Node17 -->
<g id="edge16_Node000002_Node000017" class="edge">
<title>Node2&#45;&gt;Node17</title>
<g id="a_edge16_Node000002_Node000017"><a xlink:title=" ">
<path fill="none" stroke="#63b8ff" d="M1592.38,-170.92C1455.04,-165.72 1149.2,-152.41 892.5,-129 889.3,-128.71 886.02,-128.38 882.71,-128.04"/>
<polygon fill="#63b8ff" stroke="#63b8ff" points="1592.65,-174.43 1602.77,-171.31 1592.91,-167.44 1592.65,-174.43"/>
</a>
</g>
</g>
<!-- Node18 -->
<g id="Node000018" class="node">
<title>Node18</title>
<g id="a_Node000018"><a xlink:href="_role_entities_8cpp.html" target="_top" xlink:title=" ">
<polygon fill="white" stroke="#666666" points="996,-129 901,-129 901,-110 996,-110 996,-129"/>
<text text-anchor="middle" x="948.5" y="-117" font-family="Helvetica,sans-Serif" font-size="10.00">RoleEntities.cpp</text>
</a>
</g>
</g>
<!-- Node2&#45;&gt;Node18 -->
<g id="edge17_Node000002_Node000018" class="edge">
<title>Node2&#45;&gt;Node18</title>
<g id="a_edge17_Node000002_Node000018"><a xlink:title=" ">
<path fill="none" stroke="#63b8ff" d="M1592.23,-170.49C1470.26,-165.06 1217.96,-151.97 1005.5,-129 1002.42,-128.67 999.24,-128.29 996.05,-127.88"/>
<polygon fill="#63b8ff" stroke="#63b8ff" points="1592.42,-174.01 1602.56,-170.95 1592.73,-167.01 1592.42,-174.01"/>
</a>
</g>
</g>
<!-- Node19 -->
<g id="Node000019" class="node">
<title>Node19</title>
<g id="a_Node000019"><a xlink:href="_song_a_p_i_8cpp.html" target="_top" xlink:title=" ">
<polygon fill="white" stroke="#666666" points="1091,-129 1014,-129 1014,-110 1091,-110 1091,-129"/>
<text text-anchor="middle" x="1052.5" y="-117" font-family="Helvetica,sans-Serif" font-size="10.00">SongAPI.cpp</text>
</a>
</g>
</g>
<!-- Node2&#45;&gt;Node19 -->
<g id="edge18_Node000002_Node000019" class="edge">
<title>Node2&#45;&gt;Node19</title>
<g id="a_edge18_Node000002_Node000019"><a xlink:title=" ">
<path fill="none" stroke="#63b8ff" d="M1592.47,-170.01C1484.57,-164.34 1276.37,-151.44 1100.5,-129 1097.48,-128.61 1094.36,-128.17 1091.22,-127.69"/>
<polygon fill="#63b8ff" stroke="#63b8ff" points="1592.42,-173.51 1602.59,-170.53 1592.79,-166.52 1592.42,-173.51"/>
</a>
</g>
</g>
<!-- Node20 -->
<g id="Node000020" class="node">
<title>Node20</title>
<g id="a_Node000020"><a xlink:href="_sound_cloud_a_p_i_8cpp.html" target="_top" xlink:title=" ">
<polygon fill="white" stroke="#666666" points="1219.5,-129 1109.5,-129 1109.5,-110 1219.5,-110 1219.5,-129"/>
<text text-anchor="middle" x="1164.5" y="-117" font-family="Helvetica,sans-Serif" font-size="10.00">SoundCloudAPI.cpp</text>
</a>
</g>
</g>
<!-- Node2&#45;&gt;Node20 -->
<g id="edge19_Node000002_Node000020" class="edge">
<title>Node2&#45;&gt;Node20</title>
<g id="a_edge19_Node000002_Node000020"><a xlink:title=" ">
<path fill="none" stroke="#63b8ff" d="M1593,-166.73C1506.42,-158.51 1357.27,-143.87 1229.5,-129 1226.33,-128.63 1223.08,-128.24 1219.81,-127.84"/>
<polygon fill="#63b8ff" stroke="#63b8ff" points="1592.7,-170.22 1602.99,-167.68 1593.36,-163.25 1592.7,-170.22"/>
</a>
</g>
</g>
<!-- Node21 -->
<g id="Node000021" class="node">
<title>Node21</title>
<g id="a_Node000021"><a xlink:href="_stage_instance_entities_8cpp.html" target="_top" xlink:title=" ">
<polygon fill="white" stroke="#666666" points="1381,-129 1238,-129 1238,-110 1381,-110 1381,-129"/>
<text text-anchor="middle" x="1309.5" y="-117" font-family="Helvetica,sans-Serif" font-size="10.00">StageInstanceEntities.cpp</text>
</a>
</g>
</g>
<!-- Node2&#45;&gt;Node21 -->
<g id="edge20_Node000002_Node000021" class="edge">
<title>Node2&#45;&gt;Node21</title>
<g id="a_edge20_Node000002_Node000021"><a xlink:title=" ">
<path fill="none" stroke="#63b8ff" d="M1598.29,-163.49C1531.45,-153.54 1430.01,-138.44 1366.85,-129.04"/>
<polygon fill="#63b8ff" stroke="#63b8ff" points="1597.9,-166.97 1608.3,-164.98 1598.93,-160.05 1597.9,-166.97"/>
</a>
</g>
</g>
<!-- Node22 -->
<g id="Node000022" class="node">
<title>Node22</title>
<g id="a_Node000022"><a xlink:href="_sticker_entities_8cpp.html" target="_top" xlink:title=" ">
<polygon fill="white" stroke="#666666" points="1506,-129 1399,-129 1399,-110 1506,-110 1506,-129"/>
<text text-anchor="middle" x="1452.5" y="-117" font-family="Helvetica,sans-Serif" font-size="10.00">StickerEntities.cpp</text>
</a>
</g>
</g>
<!-- Node2&#45;&gt;Node22 -->
<g id="edge21_Node000002_Node000022" class="edge">
<title>Node2&#45;&gt;Node22</title>
<g id="a_edge21_Node000002_Node000022"><a xlink:title=" ">
<path fill="none" stroke="#63b8ff" d="M1621.55,-162.56C1581.66,-152.64 1523.63,-138.2 1486.99,-129.08"/>
<polygon fill="#63b8ff" stroke="#63b8ff" points="1620.73,-165.97 1631.28,-164.98 1622.42,-159.17 1620.73,-165.97"/>
</a>
</g>
</g>
<!-- Node2&#45;&gt;Node23 -->
<g id="edge22_Node000002_Node000023" class="edge">
<title>Node2&#45;&gt;Node23</title>
<g id="a_edge22_Node000002_Node000023"><a xlink:title=" ">
<path fill="none" stroke="#63b8ff" d="M1738.23,-172.95C2045.6,-170.43 3239.41,-158.9 3614.5,-129 3617.21,-128.78 3619.98,-128.53 3622.77,-128.25"/>
<polygon fill="#63b8ff" stroke="#63b8ff" points="1738.07,-169.45 1728.1,-173.03 1738.13,-176.45 1738.07,-169.45"/>
</a>
</g>
</g>
<!-- Node24 -->
<g id="Node000024" class="node">
<title>Node24</title>
<g id="a_Node000024"><a xlink:href="_to_entity_8hpp.html" target="_top" xlink:title=" ">
<polygon fill="white" stroke="#666666" points="1599,-129 1524,-129 1524,-110 1599,-110 1599,-129"/>
<text text-anchor="middle" x="1561.5" y="-117" font-family="Helvetica,sans-Serif" font-size="10.00">ToEntity.hpp</text>
</a>
</g>
</g>
<!-- Node2&#45;&gt;Node24 -->
<g id="edge23_Node000002_Node000024" class="edge">
<title>Node2&#45;&gt;Node24</title>
<g id="a_edge23_Node000002_Node000024"><a xlink:title=" ">
<path fill="none" stroke="#63b8ff" d="M1639.73,-160.37C1620.63,-150.63 1595.13,-137.64 1578.51,-129.17"/>
<polygon fill="#63b8ff" stroke="#63b8ff" points="1638.29,-163.56 1648.79,-164.98 1641.47,-157.33 1638.29,-163.56"/>
</a>
</g>
</g>
<!-- Node27 -->
<g id="Node000027" class="node">
<title>Node27</title>
<g id="a_Node000027"><a xlink:href="_user_entities_8cpp.html" target="_top" xlink:title=" ">
<polygon fill="white" stroke="#666666" points="1713.5,-129 1617.5,-129 1617.5,-110 1713.5,-110 1713.5,-129"/>
<text text-anchor="middle" x="1665.5" y="-117" font-family="Helvetica,sans-Serif" font-size="10.00">UserEntities.cpp</text>
</a>
</g>
</g>
<!-- Node2&#45;&gt;Node27 -->
<g id="edge26_Node000002_Node000027" class="edge">
<title>Node2&#45;&gt;Node27</title>
<g id="a_edge26_Node000002_Node000027"><a xlink:title=" ">
<path fill="none" stroke="#63b8ff" d="M1665.5,-154.66C1665.5,-145.93 1665.5,-135.99 1665.5,-129.09"/>
<polygon fill="#63b8ff" stroke="#63b8ff" points="1662,-154.75 1665.5,-164.75 1669,-154.75 1662,-154.75"/>
</a>
</g>
</g>
<!-- Node28 -->
<g id="Node000028" class="node">
<title>Node28</title>
<g id="a_Node000028"><a xlink:href="_utilities_8cpp.html" target="_top" xlink:title=" ">
<polygon fill="white" stroke="#666666" points="1807,-129 1732,-129 1732,-110 1807,-110 1807,-129"/>
<text text-anchor="middle" x="1769.5" y="-117" font-family="Helvetica,sans-Serif" font-size="10.00">Utilities.cpp</text>
</a>
</g>
</g>
<!-- Node2&#45;&gt;Node28 -->
<g id="edge27_Node000002_Node000028" class="edge">
<title>Node2&#45;&gt;Node28</title>
<g id="a_edge27_Node000002_Node000028"><a xlink:title=" ">
<path fill="none" stroke="#63b8ff" d="M1691.27,-160.37C1710.37,-150.63 1735.87,-137.64 1752.49,-129.17"/>
<polygon fill="#63b8ff" stroke="#63b8ff" points="1689.53,-157.33 1682.21,-164.98 1692.71,-163.56 1689.53,-157.33"/>
</a>
</g>
</g>
<!-- Node29 -->
<g id="Node000029" class="node">
<title>Node29</title>
<g id="a_Node000029"><a xlink:href="_voice_connection_8cpp.html" target="_top" xlink:title=" ">
<polygon fill="white" stroke="#666666" points="1943.5,-129 1825.5,-129 1825.5,-110 1943.5,-110 1943.5,-129"/>
<text text-anchor="middle" x="1884.5" y="-117" font-family="Helvetica,sans-Serif" font-size="10.00">VoiceConnection.cpp</text>
</a>
</g>
</g>
<!-- Node2&#45;&gt;Node29 -->
<g id="edge28_Node000002_Node000029" class="edge">
<title>Node2&#45;&gt;Node29</title>
<g id="a_edge28_Node000002_Node000029"><a xlink:title=" ">
<path fill="none" stroke="#63b8ff" d="M1710.43,-162.63C1751.45,-152.7 1811.29,-138.22 1849.04,-129.08"/>
<polygon fill="#63b8ff" stroke="#63b8ff" points="1709.58,-159.23 1700.69,-164.98 1711.23,-166.03 1709.58,-159.23"/>
</a>
</g>
</g>
<!-- Node30 -->
<g id="Node000030" class="node">
<title>Node30</title>
<g id="a_Node000030"><a xlink:href="_web_hook_entities_8cpp.html" target="_top" xlink:title=" ">
<polygon fill="white" stroke="#666666" points="2081.5,-129 1961.5,-129 1961.5,-110 2081.5,-110 2081.5,-129"/>
<text text-anchor="middle" x="2021.5" y="-117" font-family="Helvetica,sans-Serif" font-size="10.00">WebHookEntities.cpp</text>
</a>
</g>
</g>
<!-- Node2&#45;&gt;Node30 -->
<g id="edge29_Node000002_Node000030" class="edge">
<title>Node2&#45;&gt;Node30</title>
<g id="a_edge29_Node000002_Node000030"><a xlink:title=" ">
<path fill="none" stroke="#63b8ff" d="M1732.71,-163.49C1799.55,-153.54 1900.99,-138.44 1964.15,-129.04"/>
<polygon fill="#63b8ff" stroke="#63b8ff" points="1732.07,-160.05 1722.7,-164.98 1733.1,-166.97 1732.07,-160.05"/>
</a>
</g>
</g>
<!-- Node31 -->
<g id="Node000031" class="node">
<title>Node31</title>
<g id="a_Node000031"><a xlink:href="_web_socket_client_8cpp.html" target="_top" xlink:title=" ">
<polygon fill="white" stroke="#666666" points="244,-129 125,-129 125,-110 244,-110 244,-129"/>
<text text-anchor="middle" x="184.5" y="-117" font-family="Helvetica,sans-Serif" font-size="10.00">WebSocketClient.cpp</text>
</a>
</g>
</g>
<!-- Node2&#45;&gt;Node31 -->
<g id="edge30_Node000002_Node000031" class="edge">
<title>Node2&#45;&gt;Node31</title>
<g id="a_edge30_Node000002_Node000031"><a xlink:title=" ">
<path fill="none" stroke="#63b8ff" d="M1592.65,-172.08C1342.24,-167.07 517.75,-149.4 253.5,-129 250.49,-128.77 247.41,-128.5 244.31,-128.21"/>
<polygon fill="#63b8ff" stroke="#63b8ff" points="1592.66,-175.58 1602.73,-172.28 1592.8,-168.58 1592.66,-175.58"/>
</a>
</g>
</g>
<!-- Node32 -->
<g id="Node000032" class="node">
<title>Node32</title>
<g id="a_Node000032"><a xlink:href="_you_tube_a_p_i_8cpp.html" target="_top" xlink:title=" ">
<polygon fill="white" stroke="#666666" points="2191.5,-129 2099.5,-129 2099.5,-110 2191.5,-110 2191.5,-129"/>
<text text-anchor="middle" x="2145.5" y="-117" font-family="Helvetica,sans-Serif" font-size="10.00">YouTubeAPI.cpp</text>
</a>
</g>
</g>
<!-- Node2&#45;&gt;Node32 -->
<g id="edge31_Node000002_Node000032" class="edge">
<title>Node2&#45;&gt;Node32</title>
<g id="a_edge31_Node000002_Node000032"><a xlink:title=" ">
<path fill="none" stroke="#63b8ff" d="M1738.3,-166.97C1823.03,-159.12 1967.13,-144.98 2090.5,-129 2093.37,-128.63 2096.33,-128.23 2099.31,-127.81"/>
<polygon fill="#63b8ff" stroke="#63b8ff" points="1737.9,-163.49 1728.26,-167.9 1738.54,-170.46 1737.9,-163.49"/>
</a>
</g>
</g>
<!-- Node25 -->
<g id="Node000025" class="node">
<title>Node25</title>
<g id="a_Node000025"><a xlink:href="_index_8hpp.html" target="_top" xlink:title=" ">
<polygon fill="white" stroke="#666666" points="1594,-74 1529,-74 1529,-55 1594,-55 1594,-74"/>
<text text-anchor="middle" x="1561.5" y="-62" font-family="Helvetica,sans-Serif" font-size="10.00">Index.hpp</text>
</a>
</g>
</g>
<!-- Node24&#45;&gt;Node25 -->
<g id="edge24_Node000024_Node000025" class="edge">
<title>Node24&#45;&gt;Node25</title>
<g id="a_edge24_Node000024_Node000025"><a xlink:title=" ">
<path fill="none" stroke="#63b8ff" d="M1561.5,-99.66C1561.5,-90.93 1561.5,-80.99 1561.5,-74.09"/>
<polygon fill="#63b8ff" stroke="#63b8ff" points="1558,-99.75 1561.5,-109.75 1565,-99.75 1558,-99.75"/>
</a>
</g>
</g>
<!-- Node26 -->
<g id="Node000026" class="node">
<title>Node26</title>
<g id="a_Node000026"><a xlink:href="_dll_main_8cpp.html" target="_top" xlink:title=" ">
<polygon fill="white" stroke="#666666" points="1598.5,-19 1524.5,-19 1524.5,0 1598.5,0 1598.5,-19"/>
<text text-anchor="middle" x="1561.5" y="-7" font-family="Helvetica,sans-Serif" font-size="10.00">DllMain.cpp</text>
</a>
</g>
</g>
<!-- Node25&#45;&gt;Node26 -->
<g id="edge25_Node000025_Node000026" class="edge">
<title>Node25&#45;&gt;Node26</title>
<g id="a_edge25_Node000025_Node000026"><a xlink:title=" ">
<path fill="none" stroke="#63b8ff" d="M1561.5,-44.66C1561.5,-35.93 1561.5,-25.99 1561.5,-19.09"/>
<polygon fill="#63b8ff" stroke="#63b8ff" points="1558,-44.75 1561.5,-54.75 1565,-44.75 1558,-44.75"/>
</a>
</g>
</g>
<!-- Node33&#45;&gt;Node2 -->
<g id="edge33_Node000033_Node000002" class="edge">
<title>Node33&#45;&gt;Node2</title>
<g id="a_edge33_Node000033_Node000002"><a xlink:title=" ">
<path fill="none" stroke="#63b8ff" d="M1447.05,-218.07C1498.05,-208.13 1573.87,-193.35 1621.46,-184.08"/>
<polygon fill="#63b8ff" stroke="#63b8ff" points="1446.35,-214.64 1437.2,-219.98 1447.69,-221.51 1446.35,-214.64"/>
</a>
</g>
</g>
<!-- Node33&#45;&gt;Node8 -->
<g id="edge34_Node000033_Node000008" class="edge">
<title>Node33&#45;&gt;Node8</title>
<g id="a_edge34_Node000033_Node000008"><a xlink:title=" ">
<path fill="none" stroke="#63b8ff" d="M1329.51,-225.88C1197.54,-220.23 885.64,-205.65 624.5,-184 397.74,-165.2 341.35,-156.68 115.5,-129 112.8,-128.67 110.04,-128.32 107.26,-127.97"/>
<polygon fill="#63b8ff" stroke="#63b8ff" points="1329.69,-229.39 1339.83,-226.32 1329.99,-222.39 1329.69,-229.39"/>
</a>
</g>
</g>
<!-- Node33&#45;&gt;Node31 -->
<g id="edge35_Node000033_Node000031" class="edge">
<title>Node33&#45;&gt;Node31</title>
<g id="a_edge35_Node000033_Node000031"><a xlink:title=" ">
<path fill="none" stroke="#63b8ff" d="M1329.5,-223.72C1156.11,-210.58 662.77,-172.06 253.5,-129 250.5,-128.68 247.43,-128.35 244.32,-128"/>
<polygon fill="#63b8ff" stroke="#63b8ff" points="1329.49,-227.22 1339.73,-224.49 1330.02,-220.24 1329.49,-227.22"/>
</a>
</g>
</g>
</g>
</svg>
