<?xml version="1.0" encoding="UTF-8" standalone="no"?>
<!DOCTYPE svg PUBLIC "-//W3C//DTD SVG 1.1//EN"
 "http://www.w3.org/Graphics/SVG/1.1/DTD/svg11.dtd">
<!-- Generated by graphviz version 5.0.0 (20220707.1540)
 -->
<!-- Title: ThreadEntities.hpp Pages: 1 -->
<svg width="3468pt" height="302pt"
 viewBox="0.00 0.00 3467.50 302.00" xmlns="http://www.w3.org/2000/svg" xmlns:xlink="http://www.w3.org/1999/xlink">
<g id="graph0" class="graph" transform="scale(1 1) rotate(0) translate(4 298)">
<title>ThreadEntities.hpp</title>
<!-- Node1 -->
<g id="node1" class="node">
<title>Node1</title>
<g id="a_node1"><a xlink:title=" ">
<polygon fill="#999999" stroke="#666666" points="1602.5,-294 1504.5,-294 1504.5,-275 1602.5,-275 1602.5,-294"/>
<text text-anchor="middle" x="1553.5" y="-282" font-family="Helvetica,sans-Serif" font-size="10.00">ThreadEntities.hpp</text>
</a>
</g>
</g>
<!-- Node2 -->
<g id="node2" class="node">
<title>Node2</title>
<g id="a_node2"><a xlink:href="_discord_core_client_8hpp.html" target="_top" xlink:title=" ">
<polygon fill="white" stroke="#666666" points="1610,-184 1497,-184 1497,-165 1610,-165 1610,-184"/>
<text text-anchor="middle" x="1553.5" y="-172" font-family="Helvetica,sans-Serif" font-size="10.00">DiscordCoreClient.hpp</text>
</a>
</g>
</g>
<!-- Node1&#45;&gt;Node2 -->
<g id="edge1" class="edge">
<title>Node1&#45;&gt;Node2</title>
<path fill="none" stroke="#63b8ff" d="M1553.5,-264.48C1553.5,-240.84 1553.5,-201.5 1553.5,-184.16"/>
<polygon fill="#63b8ff" stroke="#63b8ff" points="1550,-264.66 1553.5,-274.66 1557,-264.66 1550,-264.66"/>
</g>
<!-- Node23 -->
<g id="node23" class="node">
<title>Node23</title>
<g id="a_node23"><a xlink:href="_thread_entities_8cpp.html" target="_top" xlink:title=" ">
<polygon fill="white" stroke="#666666" points="3459.5,-129 3361.5,-129 3361.5,-110 3459.5,-110 3459.5,-129"/>
<text text-anchor="middle" x="3410.5" y="-117" font-family="Helvetica,sans-Serif" font-size="10.00">ThreadEntities.cpp</text>
</a>
</g>
</g>
<!-- Node1&#45;&gt;Node23 -->
<g id="edge36" class="edge">
<title>Node1&#45;&gt;Node23</title>
<path fill="none" stroke="#63b8ff" d="M1612.61,-279.71C1838.75,-264.96 2670.54,-208.18 3352.5,-129 3355.43,-128.66 3358.44,-128.29 3361.48,-127.89"/>
<polygon fill="#63b8ff" stroke="#63b8ff" points="1612.37,-276.22 1602.62,-280.37 1612.82,-283.21 1612.37,-276.22"/>
</g>
<!-- Node33 -->
<g id="node33" class="node">
<title>Node33</title>
<g id="a_node33"><a xlink:href="_event_manager_8hpp.html" target="_top" xlink:title=" ">
<polygon fill="white" stroke="#666666" points="1349,-239 1252,-239 1252,-220 1349,-220 1349,-239"/>
<text text-anchor="middle" x="1300.5" y="-227" font-family="Helvetica,sans-Serif" font-size="10.00">EventManager.hpp</text>
</a>
</g>
</g>
<!-- Node1&#45;&gt;Node33 -->
<g id="edge32" class="edge">
<title>Node1&#45;&gt;Node33</title>
<path fill="none" stroke="#63b8ff" d="M1502.8,-272.88C1455.38,-262.94 1385.45,-248.3 1341.47,-239.08"/>
<polygon fill="#63b8ff" stroke="#63b8ff" points="1502.35,-276.36 1512.85,-274.98 1503.78,-269.51 1502.35,-276.36"/>
</g>
<!-- Node3 -->
<g id="node3" class="node">
<title>Node3</title>
<g id="a_node3"><a xlink:href="_application_command_entities_8cpp.html" target="_top" xlink:title=" ">
<polygon fill="white" stroke="#666666" points="2227,-129 2066,-129 2066,-110 2227,-110 2227,-129"/>
<text text-anchor="middle" x="2146.5" y="-117" font-family="Helvetica,sans-Serif" font-size="10.00">ApplicationCommandEntities.cpp</text>
</a>
</g>
</g>
<!-- Node2&#45;&gt;Node3 -->
<g id="edge2" class="edge">
<title>Node2&#45;&gt;Node3</title>
<path fill="none" stroke="#63b8ff" d="M1620.4,-167.75C1716.95,-159.41 1900.94,-143.39 2057.5,-129 2060.28,-128.74 2063.11,-128.48 2065.97,-128.22"/>
<polygon fill="#63b8ff" stroke="#63b8ff" points="1619.86,-164.28 1610.2,-168.63 1620.46,-171.25 1619.86,-164.28"/>
</g>
<!-- Node4 -->
<g id="node4" class="node">
<title>Node4</title>
<g id="a_node4"><a xlink:href="_auto_moderation_entities_8cpp.html" target="_top" xlink:title=" ">
<polygon fill="white" stroke="#666666" points="2382,-129 2245,-129 2245,-110 2382,-110 2382,-129"/>
<text text-anchor="middle" x="2313.5" y="-117" font-family="Helvetica,sans-Serif" font-size="10.00">AutoModerationEntities.cpp</text>
</a>
</g>
</g>
<!-- Node2&#45;&gt;Node4 -->
<g id="edge3" class="edge">
<title>Node2&#45;&gt;Node4</title>
<path fill="none" stroke="#63b8ff" d="M1620.57,-170.13C1743.04,-163.76 2011.06,-148.78 2236.5,-129 2239.18,-128.76 2241.91,-128.51 2244.67,-128.25"/>
<polygon fill="#63b8ff" stroke="#63b8ff" points="1620.04,-166.65 1610.23,-170.67 1620.4,-173.64 1620.04,-166.65"/>
</g>
<!-- Node5 -->
<g id="node5" class="node">
<title>Node5</title>
<g id="a_node5"><a xlink:href="_channel_entities_8cpp.html" target="_top" xlink:title=" ">
<polygon fill="white" stroke="#666666" points="2504.5,-129 2400.5,-129 2400.5,-110 2504.5,-110 2504.5,-129"/>
<text text-anchor="middle" x="2452.5" y="-117" font-family="Helvetica,sans-Serif" font-size="10.00">ChannelEntities.cpp</text>
</a>
</g>
</g>
<!-- Node2&#45;&gt;Node5 -->
<g id="edge4" class="edge">
<title>Node2&#45;&gt;Node5</title>
<path fill="none" stroke="#63b8ff" d="M1620.31,-171.89C1762.48,-168.04 2105.35,-156.48 2391.5,-129 2394.37,-128.72 2397.32,-128.41 2400.29,-128.07"/>
<polygon fill="#63b8ff" stroke="#63b8ff" points="1619.93,-168.4 1610.02,-172.16 1620.11,-175.4 1619.93,-168.4"/>
</g>
<!-- Node6 -->
<g id="node6" class="node">
<title>Node6</title>
<g id="a_node6"><a xlink:href="_command_controller_8cpp.html" target="_top" xlink:title=" ">
<polygon fill="white" stroke="#666666" points="2644,-129 2523,-129 2523,-110 2644,-110 2644,-129"/>
<text text-anchor="middle" x="2583.5" y="-117" font-family="Helvetica,sans-Serif" font-size="10.00">CommandController.cpp</text>
</a>
</g>
</g>
<!-- Node2&#45;&gt;Node6 -->
<g id="edge5" class="edge">
<title>Node2&#45;&gt;Node6</title>
<path fill="none" stroke="#63b8ff" d="M1620.53,-172.11C1777.09,-168.49 2178.89,-157.03 2513.5,-129 2516.55,-128.74 2519.67,-128.46 2522.82,-128.15"/>
<polygon fill="#63b8ff" stroke="#63b8ff" points="1620.05,-168.62 1610.13,-172.35 1620.21,-175.62 1620.05,-168.62"/>
</g>
<!-- Node7 -->
<g id="node7" class="node">
<title>Node7</title>
<g id="a_node7"><a xlink:href="_discord_core_client_8cpp.html" target="_top" xlink:title=" ">
<polygon fill="white" stroke="#666666" points="2775,-129 2662,-129 2662,-110 2775,-110 2775,-129"/>
<text text-anchor="middle" x="2718.5" y="-117" font-family="Helvetica,sans-Serif" font-size="10.00">DiscordCoreClient.cpp</text>
</a>
</g>
</g>
<!-- Node2&#45;&gt;Node7 -->
<g id="edge6" class="edge">
<title>Node2&#45;&gt;Node7</title>
<path fill="none" stroke="#63b8ff" d="M1620.44,-172.88C1792.3,-170.83 2262.99,-162.36 2653.5,-129 2656.22,-128.77 2659,-128.5 2661.81,-128.22"/>
<polygon fill="#63b8ff" stroke="#63b8ff" points="1620.25,-169.38 1610.29,-173 1620.33,-176.38 1620.25,-169.38"/>
</g>
<!-- Node8 -->
<g id="node8" class="node">
<title>Node8</title>
<g id="a_node8"><a xlink:href="_event_manager_8cpp.html" target="_top" xlink:title=" ">
<polygon fill="white" stroke="#666666" points="97,-129 0,-129 0,-110 97,-110 97,-129"/>
<text text-anchor="middle" x="48.5" y="-117" font-family="Helvetica,sans-Serif" font-size="10.00">EventManager.cpp</text>
</a>
</g>
</g>
<!-- Node2&#45;&gt;Node8 -->
<g id="edge7" class="edge">
<title>Node2&#45;&gt;Node8</title>
<path fill="none" stroke="#63b8ff" d="M1486.55,-172.49C1239.45,-168.58 379,-153.51 105.5,-129 102.81,-128.76 100.05,-128.47 97.27,-128.16"/>
<polygon fill="#63b8ff" stroke="#63b8ff" points="1486.76,-175.99 1496.81,-172.65 1486.87,-168.99 1486.76,-175.99"/>
</g>
<!-- Node9 -->
<g id="node9" class="node">
<title>Node9</title>
<g id="a_node9"><a xlink:href="_foundation_entities_8cpp.html" target="_top" xlink:title=" ">
<polygon fill="white" stroke="#666666" points="2909.5,-129 2793.5,-129 2793.5,-110 2909.5,-110 2909.5,-129"/>
<text text-anchor="middle" x="2851.5" y="-117" font-family="Helvetica,sans-Serif" font-size="10.00">FoundationEntities.cpp</text>
</a>
</g>
</g>
<!-- Node2&#45;&gt;Node9 -->
<g id="edge8" class="edge">
<title>Node2&#45;&gt;Node9</title>
<path fill="none" stroke="#63b8ff" d="M1620.17,-173.2C1805.25,-171.9 2341,-165.07 2784.5,-129 2787.42,-128.76 2790.41,-128.49 2793.43,-128.19"/>
<polygon fill="#63b8ff" stroke="#63b8ff" points="1620.02,-169.7 1610.05,-173.27 1620.07,-176.7 1620.02,-169.7"/>
</g>
<!-- Node10 -->
<g id="node10" class="node">
<title>Node10</title>
<g id="a_node10"><a xlink:href="_guild_entities_8cpp.html" target="_top" xlink:title=" ">
<polygon fill="white" stroke="#666666" points="3019,-129 2928,-129 2928,-110 3019,-110 3019,-129"/>
<text text-anchor="middle" x="2973.5" y="-117" font-family="Helvetica,sans-Serif" font-size="10.00">GuildEntities.cpp</text>
</a>
</g>
</g>
<!-- Node2&#45;&gt;Node10 -->
<g id="edge9" class="edge">
<title>Node2&#45;&gt;Node10</title>
<path fill="none" stroke="#63b8ff" d="M1620.57,-172.39C1858.59,-168.27 2662.18,-152.9 2918.5,-129 2921.58,-128.71 2924.75,-128.36 2927.93,-127.98"/>
<polygon fill="#63b8ff" stroke="#63b8ff" points="1620.27,-168.89 1610.33,-172.56 1620.39,-175.89 1620.27,-168.89"/>
</g>
<!-- Node11 -->
<g id="node11" class="node">
<title>Node11</title>
<g id="a_node11"><a xlink:href="_guild_member_entities_8cpp.html" target="_top" xlink:title=" ">
<polygon fill="white" stroke="#666666" points="3163.5,-129 3037.5,-129 3037.5,-110 3163.5,-110 3163.5,-129"/>
<text text-anchor="middle" x="3100.5" y="-117" font-family="Helvetica,sans-Serif" font-size="10.00">GuildMemberEntities.cpp</text>
</a>
</g>
</g>
<!-- Node2&#45;&gt;Node11 -->
<g id="edge10" class="edge">
<title>Node2&#45;&gt;Node11</title>
<path fill="none" stroke="#63b8ff" d="M1620.38,-173.56C1828.96,-173.3 2486.11,-169.12 3028.5,-129 3031.39,-128.79 3034.34,-128.54 3037.31,-128.28"/>
<polygon fill="#63b8ff" stroke="#63b8ff" points="1620.2,-170.06 1610.2,-173.57 1620.2,-177.06 1620.2,-170.06"/>
</g>
<!-- Node12 -->
<g id="node12" class="node">
<title>Node12</title>
<g id="a_node12"><a xlink:href="_guild_scheduled_event_entities_8cpp.html" target="_top" xlink:title=" ">
<polygon fill="white" stroke="#666666" points="3343,-129 3182,-129 3182,-110 3343,-110 3343,-129"/>
<text text-anchor="middle" x="3262.5" y="-117" font-family="Helvetica,sans-Serif" font-size="10.00">GuildScheduledEventEntities.cpp</text>
</a>
</g>
</g>
<!-- Node2&#45;&gt;Node12 -->
<g id="edge11" class="edge">
<title>Node2&#45;&gt;Node12</title>
<path fill="none" stroke="#63b8ff" d="M1620.35,-173.26C1841.71,-172.12 2570.91,-165.64 3172.5,-129 3175.48,-128.82 3178.51,-128.62 3181.57,-128.4"/>
<polygon fill="#63b8ff" stroke="#63b8ff" points="1620.18,-169.76 1610.2,-173.31 1620.22,-176.76 1620.18,-169.76"/>
</g>
<!-- Node13 -->
<g id="node13" class="node">
<title>Node13</title>
<g id="a_node13"><a xlink:href="_https_client_8cpp.html" target="_top" xlink:title=" ">
<polygon fill="white" stroke="#666666" points="327,-129 244,-129 244,-110 327,-110 327,-129"/>
<text text-anchor="middle" x="285.5" y="-117" font-family="Helvetica,sans-Serif" font-size="10.00">HttpsClient.cpp</text>
</a>
</g>
</g>
<!-- Node2&#45;&gt;Node13 -->
<g id="edge12" class="edge">
<title>Node2&#45;&gt;Node13</title>
<path fill="none" stroke="#63b8ff" d="M1486.76,-172.19C1266.28,-167.69 562.46,-151.87 336.5,-129 333.46,-128.69 330.33,-128.32 327.19,-127.9"/>
<polygon fill="#63b8ff" stroke="#63b8ff" points="1486.82,-175.69 1496.89,-172.4 1486.96,-168.7 1486.82,-175.69"/>
</g>
<!-- Node14 -->
<g id="node14" class="node">
<title>Node14</title>
<g id="a_node14"><a xlink:href="_input_events_8cpp.html" target="_top" xlink:title=" ">
<polygon fill="white" stroke="#666666" points="431.5,-129 345.5,-129 345.5,-110 431.5,-110 431.5,-129"/>
<text text-anchor="middle" x="388.5" y="-117" font-family="Helvetica,sans-Serif" font-size="10.00">InputEvents.cpp</text>
</a>
</g>
</g>
<!-- Node2&#45;&gt;Node14 -->
<g id="edge13" class="edge">
<title>Node2&#45;&gt;Node14</title>
<path fill="none" stroke="#63b8ff" d="M1486.61,-171.87C1278.8,-166.64 646.04,-149.42 441.5,-129 438.25,-128.68 434.91,-128.28 431.54,-127.84"/>
<polygon fill="#63b8ff" stroke="#63b8ff" points="1486.69,-175.37 1496.77,-172.12 1486.86,-168.37 1486.69,-175.37"/>
</g>
<!-- Node15 -->
<g id="node15" class="node">
<title>Node15</title>
<g id="a_node15"><a xlink:href="_interaction_entities_8cpp.html" target="_top" xlink:title=" ">
<polygon fill="white" stroke="#666666" points="563,-129 450,-129 450,-110 563,-110 563,-129"/>
<text text-anchor="middle" x="506.5" y="-117" font-family="Helvetica,sans-Serif" font-size="10.00">InteractionEntities.cpp</text>
</a>
</g>
</g>
<!-- Node2&#45;&gt;Node15 -->
<g id="edge14" class="edge">
<title>Node2&#45;&gt;Node15</title>
<path fill="none" stroke="#63b8ff" d="M1486.91,-172.38C1328.29,-169.29 915.7,-158.83 572.5,-129 569.51,-128.74 566.44,-128.44 563.35,-128.12"/>
<polygon fill="#63b8ff" stroke="#63b8ff" points="1486.93,-175.88 1496.99,-172.57 1487.06,-168.88 1486.93,-175.88"/>
</g>
<!-- Node16 -->
<g id="node16" class="node">
<title>Node16</title>
<g id="a_node16"><a xlink:href="_message_entities_8cpp.html" target="_top" xlink:title=" ">
<polygon fill="white" stroke="#666666" points="689.5,-129 581.5,-129 581.5,-110 689.5,-110 689.5,-129"/>
<text text-anchor="middle" x="635.5" y="-117" font-family="Helvetica,sans-Serif" font-size="10.00">MessageEntities.cpp</text>
</a>
</g>
</g>
<!-- Node2&#45;&gt;Node16 -->
<g id="edge15" class="edge">
<title>Node2&#45;&gt;Node16</title>
<path fill="none" stroke="#63b8ff" d="M1486.93,-171.84C1343,-167.86 992.21,-156.02 699.5,-129 696.26,-128.7 692.94,-128.36 689.59,-127.99"/>
<polygon fill="#63b8ff" stroke="#63b8ff" points="1486.84,-175.34 1496.93,-172.12 1487.03,-168.34 1486.84,-175.34"/>
</g>
<!-- Node17 -->
<g id="node17" class="node">
<title>Node17</title>
<g id="a_node17"><a xlink:href="_reaction_entities_8cpp.html" target="_top" xlink:title=" ">
<polygon fill="white" stroke="#666666" points="815,-129 708,-129 708,-110 815,-110 815,-129"/>
<text text-anchor="middle" x="761.5" y="-117" font-family="Helvetica,sans-Serif" font-size="10.00">ReactionEntities.cpp</text>
</a>
</g>
</g>
<!-- Node2&#45;&gt;Node17 -->
<g id="edge16" class="edge">
<title>Node2&#45;&gt;Node17</title>
<path fill="none" stroke="#63b8ff" d="M1486.59,-171.05C1358.06,-165.99 1067.78,-152.8 824.5,-129 821.42,-128.7 818.27,-128.36 815.09,-128"/>
<polygon fill="#63b8ff" stroke="#63b8ff" points="1486.54,-174.55 1496.67,-171.45 1486.82,-167.56 1486.54,-174.55"/>
</g>
<!-- Node18 -->
<g id="node18" class="node">
<title>Node18</title>
<g id="a_node18"><a xlink:href="_role_entities_8cpp.html" target="_top" xlink:title=" ">
<polygon fill="white" stroke="#666666" points="921.5,-129 833.5,-129 833.5,-110 921.5,-110 921.5,-129"/>
<text text-anchor="middle" x="877.5" y="-117" font-family="Helvetica,sans-Serif" font-size="10.00">RoleEntities.cpp</text>
</a>
</g>
</g>
<!-- Node2&#45;&gt;Node18 -->
<g id="edge17" class="edge">
<title>Node2&#45;&gt;Node18</title>
<path fill="none" stroke="#63b8ff" d="M1486.65,-170.65C1372.39,-165.35 1132.3,-152.34 930.5,-129 927.63,-128.67 924.68,-128.29 921.71,-127.89"/>
<polygon fill="#63b8ff" stroke="#63b8ff" points="1486.5,-174.15 1496.65,-171.11 1486.82,-167.16 1486.5,-174.15"/>
</g>
<!-- Node19 -->
<g id="node19" class="node">
<title>Node19</title>
<g id="a_node19"><a xlink:href="_song_a_p_i_8cpp.html" target="_top" xlink:title=" ">
<polygon fill="white" stroke="#666666" points="1013.5,-129 939.5,-129 939.5,-110 1013.5,-110 1013.5,-129"/>
<text text-anchor="middle" x="976.5" y="-117" font-family="Helvetica,sans-Serif" font-size="10.00">SongAPI.cpp</text>
</a>
</g>
</g>
<!-- Node2&#45;&gt;Node19 -->
<g id="edge18" class="edge">
<title>Node2&#45;&gt;Node19</title>
<path fill="none" stroke="#63b8ff" d="M1486.67,-170.03C1385.78,-164.31 1188.71,-151.27 1022.5,-129 1019.6,-128.61 1016.61,-128.16 1013.61,-127.68"/>
<polygon fill="#63b8ff" stroke="#63b8ff" points="1486.54,-173.53 1496.72,-170.59 1486.93,-166.54 1486.54,-173.53"/>
</g>
<!-- Node20 -->
<g id="node20" class="node">
<title>Node20</title>
<g id="a_node20"><a xlink:href="_sound_cloud_a_p_i_8cpp.html" target="_top" xlink:title=" ">
<polygon fill="white" stroke="#666666" points="1135.5,-129 1031.5,-129 1031.5,-110 1135.5,-110 1135.5,-129"/>
<text text-anchor="middle" x="1083.5" y="-117" font-family="Helvetica,sans-Serif" font-size="10.00">SoundCloudAPI.cpp</text>
</a>
</g>
</g>
<!-- Node2&#45;&gt;Node20 -->
<g id="edge19" class="edge">
<title>Node2&#45;&gt;Node20</title>
<path fill="none" stroke="#63b8ff" d="M1486.64,-166.78C1405.77,-158.52 1265.54,-143.77 1145.5,-129 1142.27,-128.6 1138.94,-128.18 1135.58,-127.75"/>
<polygon fill="#63b8ff" stroke="#63b8ff" points="1486.38,-170.27 1496.68,-167.8 1487.09,-163.31 1486.38,-170.27"/>
</g>
<!-- Node21 -->
<g id="node21" class="node">
<title>Node21</title>
<g id="a_node21"><a xlink:href="_stage_instance_entities_8cpp.html" target="_top" xlink:title=" ">
<polygon fill="white" stroke="#666666" points="1285,-129 1154,-129 1154,-110 1285,-110 1285,-129"/>
<text text-anchor="middle" x="1219.5" y="-117" font-family="Helvetica,sans-Serif" font-size="10.00">StageInstanceEntities.cpp</text>
</a>
</g>
</g>
<!-- Node2&#45;&gt;Node21 -->
<g id="edge20" class="edge">
<title>Node2&#45;&gt;Node21</title>
<path fill="none" stroke="#63b8ff" d="M1489.67,-163.37C1426.95,-153.42 1332.32,-138.4 1273.31,-129.04"/>
<polygon fill="#63b8ff" stroke="#63b8ff" points="1489.41,-166.87 1499.84,-164.98 1490.51,-159.96 1489.41,-166.87"/>
</g>
<!-- Node22 -->
<g id="node22" class="node">
<title>Node22</title>
<g id="a_node22"><a xlink:href="_sticker_entities_8cpp.html" target="_top" xlink:title=" ">
<polygon fill="white" stroke="#666666" points="1402,-129 1303,-129 1303,-110 1402,-110 1402,-129"/>
<text text-anchor="middle" x="1352.5" y="-117" font-family="Helvetica,sans-Serif" font-size="10.00">StickerEntities.cpp</text>
</a>
</g>
</g>
<!-- Node2&#45;&gt;Node22 -->
<g id="edge21" class="edge">
<title>Node2&#45;&gt;Node22</title>
<path fill="none" stroke="#63b8ff" d="M1511.07,-162.31C1473.46,-152.39 1419.33,-138.12 1385.05,-129.08"/>
<polygon fill="#63b8ff" stroke="#63b8ff" points="1510.64,-165.82 1521.21,-164.98 1512.43,-159.05 1510.64,-165.82"/>
</g>
<!-- Node2&#45;&gt;Node23 -->
<g id="edge22" class="edge">
<title>Node2&#45;&gt;Node23</title>
<path fill="none" stroke="#63b8ff" d="M1620.54,-172.93C1904.11,-170.34 3006.38,-158.53 3352.5,-129 3355.34,-128.76 3358.25,-128.47 3361.19,-128.14"/>
<polygon fill="#63b8ff" stroke="#63b8ff" points="1620.37,-169.43 1610.4,-173.02 1620.43,-176.43 1620.37,-169.43"/>
</g>
<!-- Node24 -->
<g id="node24" class="node">
<title>Node24</title>
<g id="a_node24"><a xlink:href="_to_entity_8hpp.html" target="_top" xlink:title=" ">
<polygon fill="white" stroke="#666666" points="1491,-129 1420,-129 1420,-110 1491,-110 1491,-129"/>
<text text-anchor="middle" x="1455.5" y="-117" font-family="Helvetica,sans-Serif" font-size="10.00">ToEntity.hpp</text>
</a>
</g>
</g>
<!-- Node2&#45;&gt;Node24 -->
<g id="edge23" class="edge">
<title>Node2&#45;&gt;Node24</title>
<path fill="none" stroke="#63b8ff" d="M1528.47,-159.97C1510.56,-150.28 1486.97,-137.52 1471.53,-129.17"/>
<polygon fill="#63b8ff" stroke="#63b8ff" points="1527.29,-163.31 1537.75,-164.98 1530.62,-157.15 1527.29,-163.31"/>
</g>
<!-- Node27 -->
<g id="node27" class="node">
<title>Node27</title>
<g id="a_node27"><a xlink:href="_user_entities_8cpp.html" target="_top" xlink:title=" ">
<polygon fill="white" stroke="#666666" points="1598,-129 1509,-129 1509,-110 1598,-110 1598,-129"/>
<text text-anchor="middle" x="1553.5" y="-117" font-family="Helvetica,sans-Serif" font-size="10.00">UserEntities.cpp</text>
</a>
</g>
</g>
<!-- Node2&#45;&gt;Node27 -->
<g id="edge26" class="edge">
<title>Node2&#45;&gt;Node27</title>
<path fill="none" stroke="#63b8ff" d="M1553.5,-154.66C1553.5,-145.93 1553.5,-135.99 1553.5,-129.09"/>
<polygon fill="#63b8ff" stroke="#63b8ff" points="1550,-154.75 1553.5,-164.75 1557,-154.75 1550,-154.75"/>
</g>
<!-- Node28 -->
<g id="node28" class="node">
<title>Node28</title>
<g id="a_node28"><a xlink:href="_utilities_8cpp.html" target="_top" xlink:title=" ">
<polygon fill="white" stroke="#666666" points="1684.5,-129 1616.5,-129 1616.5,-110 1684.5,-110 1684.5,-129"/>
<text text-anchor="middle" x="1650.5" y="-117" font-family="Helvetica,sans-Serif" font-size="10.00">Utilities.cpp</text>
</a>
</g>
</g>
<!-- Node2&#45;&gt;Node28 -->
<g id="edge27" class="edge">
<title>Node2&#45;&gt;Node28</title>
<path fill="none" stroke="#63b8ff" d="M1578.27,-159.97C1596,-150.28 1619.35,-137.52 1634.63,-129.17"/>
<polygon fill="#63b8ff" stroke="#63b8ff" points="1576.18,-157.12 1569.08,-164.98 1579.54,-163.26 1576.18,-157.12"/>
</g>
<!-- Node29 -->
<g id="node29" class="node">
<title>Node29</title>
<g id="a_node29"><a xlink:href="_voice_connection_8cpp.html" target="_top" xlink:title=" ">
<polygon fill="white" stroke="#666666" points="1812,-129 1703,-129 1703,-110 1812,-110 1812,-129"/>
<text text-anchor="middle" x="1757.5" y="-117" font-family="Helvetica,sans-Serif" font-size="10.00">VoiceConnection.cpp</text>
</a>
</g>
</g>
<!-- Node2&#45;&gt;Node29 -->
<g id="edge28" class="edge">
<title>Node2&#45;&gt;Node29</title>
<path fill="none" stroke="#63b8ff" d="M1596.08,-162.44C1634.27,-152.52 1689.52,-138.16 1724.47,-129.08"/>
<polygon fill="#63b8ff" stroke="#63b8ff" points="1595.07,-159.08 1586.28,-164.98 1596.83,-165.86 1595.07,-159.08"/>
</g>
<!-- Node30 -->
<g id="node30" class="node">
<title>Node30</title>
<g id="a_node30"><a xlink:href="_web_hook_entities_8cpp.html" target="_top" xlink:title=" ">
<polygon fill="white" stroke="#666666" points="1941,-129 1830,-129 1830,-110 1941,-110 1941,-129"/>
<text text-anchor="middle" x="1885.5" y="-117" font-family="Helvetica,sans-Serif" font-size="10.00">WebHookEntities.cpp</text>
</a>
</g>
</g>
<!-- Node2&#45;&gt;Node30 -->
<g id="edge29" class="edge">
<title>Node2&#45;&gt;Node30</title>
<path fill="none" stroke="#63b8ff" d="M1616.95,-163.37C1679.29,-153.42 1773.36,-138.4 1832.02,-129.04"/>
<polygon fill="#63b8ff" stroke="#63b8ff" points="1616.16,-159.95 1606.84,-164.98 1617.27,-166.86 1616.16,-159.95"/>
</g>
<!-- Node31 -->
<g id="node31" class="node">
<title>Node31</title>
<g id="a_node31"><a xlink:href="_web_socket_client_8cpp.html" target="_top" xlink:title=" ">
<polygon fill="white" stroke="#666666" points="226,-129 115,-129 115,-110 226,-110 226,-129"/>
<text text-anchor="middle" x="170.5" y="-117" font-family="Helvetica,sans-Serif" font-size="10.00">WebSocketClient.cpp</text>
</a>
</g>
</g>
<!-- Node2&#45;&gt;Node31 -->
<g id="edge30" class="edge">
<title>Node2&#45;&gt;Node31</title>
<path fill="none" stroke="#63b8ff" d="M1486.44,-172.09C1253.83,-167.07 482.42,-149.27 235.5,-129 232.44,-128.75 229.3,-128.46 226.13,-128.13"/>
<polygon fill="#63b8ff" stroke="#63b8ff" points="1486.71,-175.6 1496.78,-172.31 1486.86,-168.6 1486.71,-175.6"/>
</g>
<!-- Node32 -->
<g id="node32" class="node">
<title>Node32</title>
<g id="a_node32"><a xlink:href="_you_tube_a_p_i_8cpp.html" target="_top" xlink:title=" ">
<polygon fill="white" stroke="#666666" points="2048,-129 1959,-129 1959,-110 2048,-110 2048,-129"/>
<text text-anchor="middle" x="2003.5" y="-117" font-family="Helvetica,sans-Serif" font-size="10.00">YouTubeAPI.cpp</text>
</a>
</g>
</g>
<!-- Node2&#45;&gt;Node32 -->
<g id="edge31" class="edge">
<title>Node2&#45;&gt;Node32</title>
<path fill="none" stroke="#63b8ff" d="M1620.44,-166.97C1699.45,-159.05 1834.75,-144.76 1950.5,-129 1953.27,-128.62 1956.12,-128.22 1958.99,-127.8"/>
<polygon fill="#63b8ff" stroke="#63b8ff" points="1619.75,-163.53 1610.14,-168 1620.44,-170.49 1619.75,-163.53"/>
</g>
<!-- Node25 -->
<g id="node25" class="node">
<title>Node25</title>
<g id="a_node25"><a xlink:href="_index_8hpp.html" target="_top" xlink:title=" ">
<polygon fill="white" stroke="#666666" points="1485,-74 1426,-74 1426,-55 1485,-55 1485,-74"/>
<text text-anchor="middle" x="1455.5" y="-62" font-family="Helvetica,sans-Serif" font-size="10.00">Index.hpp</text>
</a>
</g>
</g>
<!-- Node24&#45;&gt;Node25 -->
<g id="edge24" class="edge">
<title>Node24&#45;&gt;Node25</title>
<path fill="none" stroke="#63b8ff" d="M1455.5,-99.66C1455.5,-90.93 1455.5,-80.99 1455.5,-74.09"/>
<polygon fill="#63b8ff" stroke="#63b8ff" points="1452,-99.75 1455.5,-109.75 1459,-99.75 1452,-99.75"/>
</g>
<!-- Node26 -->
<g id="node26" class="node">
<title>Node26</title>
<g id="a_node26"><a xlink:href="_dll_main_8cpp.html" target="_top" xlink:title=" ">
<polygon fill="white" stroke="#666666" points="1489.5,-19 1421.5,-19 1421.5,0 1489.5,0 1489.5,-19"/>
<text text-anchor="middle" x="1455.5" y="-7" font-family="Helvetica,sans-Serif" font-size="10.00">DllMain.cpp</text>
</a>
</g>
</g>
<!-- Node25&#45;&gt;Node26 -->
<g id="edge25" class="edge">
<title>Node25&#45;&gt;Node26</title>
<path fill="none" stroke="#63b8ff" d="M1455.5,-44.66C1455.5,-35.93 1455.5,-25.99 1455.5,-19.09"/>
<polygon fill="#63b8ff" stroke="#63b8ff" points="1452,-44.75 1455.5,-54.75 1459,-44.75 1452,-44.75"/>
</g>
<!-- Node33&#45;&gt;Node2 -->
<g id="edge33" class="edge">
<title>Node33&#45;&gt;Node2</title>
<path fill="none" stroke="#63b8ff" d="M1351.2,-217.88C1398.62,-207.94 1468.55,-193.3 1512.53,-184.08"/>
<polygon fill="#63b8ff" stroke="#63b8ff" points="1350.22,-214.51 1341.15,-219.98 1351.65,-221.36 1350.22,-214.51"/>
</g>
<!-- Node33&#45;&gt;Node8 -->
<g id="edge34" class="edge">
<title>Node33&#45;&gt;Node8</title>
<path fill="none" stroke="#63b8ff" d="M1241.37,-225.9C1118.51,-220.25 826.68,-205.63 582.5,-184 369.93,-165.17 317.06,-156.96 105.5,-129 102.82,-128.65 100.07,-128.27 97.3,-127.89"/>
<polygon fill="#63b8ff" stroke="#63b8ff" points="1241.53,-229.41 1251.68,-226.37 1241.85,-222.41 1241.53,-229.41"/>
</g>
<!-- Node33&#45;&gt;Node31 -->
<g id="edge35" class="edge">
<title>Node33&#45;&gt;Node31</title>
<path fill="none" stroke="#63b8ff" d="M1241.7,-223.77C1080.59,-210.65 618.56,-171.93 235.5,-129 232.45,-128.66 229.31,-128.29 226.15,-127.91"/>
<polygon fill="#63b8ff" stroke="#63b8ff" points="1241.62,-227.28 1251.87,-224.6 1242.19,-220.3 1241.62,-227.28"/>
</g>
</g>
</svg>
