<?xml version="1.0" encoding="UTF-8" standalone="no"?>
<!DOCTYPE svg PUBLIC "-//W3C//DTD SVG 1.1//EN"
 "http://www.w3.org/Graphics/SVG/1.1/DTD/svg11.dtd">
<!-- Generated by graphviz version 5.0.0 (20220707.1540)
 -->
<!-- Title: VoiceConnection.hpp Pages: 1 -->
<svg width="3467pt" height="357pt"
 viewBox="0.00 0.00 3467.00 357.00" xmlns="http://www.w3.org/2000/svg" xmlns:xlink="http://www.w3.org/1999/xlink">
<g id="graph0" class="graph" transform="scale(1 1) rotate(0) translate(4 353)">
<title>VoiceConnection.hpp</title>
<!-- Node1 -->
<g id="node1" class="node">
<title>Node1</title>
<g id="a_node1"><a xlink:title=" ">
<polygon fill="#999999" stroke="#666666" points="895.5,-349 786.5,-349 786.5,-330 895.5,-330 895.5,-349"/>
<text text-anchor="middle" x="841" y="-337" font-family="Helvetica,sans-Serif" font-size="10.00">VoiceConnection.hpp</text>
</a>
</g>
</g>
<!-- Node2 -->
<g id="node2" class="node">
<title>Node2</title>
<g id="a_node2"><a xlink:href="_discord_core_client_8hpp.html" target="_top" xlink:title=" ">
<polygon fill="white" stroke="#666666" points="1643.5,-184 1530.5,-184 1530.5,-165 1643.5,-165 1643.5,-184"/>
<text text-anchor="middle" x="1587" y="-172" font-family="Helvetica,sans-Serif" font-size="10.00">DiscordCoreClient.hpp</text>
</a>
</g>
</g>
<!-- Node1&#45;&gt;Node2 -->
<g id="edge1" class="edge">
<title>Node1&#45;&gt;Node2</title>
<path fill="none" stroke="#63b8ff" d="M889.98,-327.8C1028.68,-297.49 1422.17,-211.51 1547.88,-184.05"/>
<polygon fill="#63b8ff" stroke="#63b8ff" points="889.08,-324.41 880.06,-329.97 890.57,-331.25 889.08,-324.41"/>
</g>
<!-- Node19 -->
<g id="node19" class="node">
<title>Node19</title>
<g id="a_node19"><a xlink:href="_song_a_p_i_8cpp.html" target="_top" xlink:title=" ">
<polygon fill="white" stroke="#666666" points="3459,-129 3385,-129 3385,-110 3459,-110 3459,-129"/>
<text text-anchor="middle" x="3422" y="-117" font-family="Helvetica,sans-Serif" font-size="10.00">SongAPI.cpp</text>
</a>
</g>
</g>
<!-- Node1&#45;&gt;Node19 -->
<g id="edge42" class="edge">
<title>Node1&#45;&gt;Node19</title>
<path fill="none" stroke="#63b8ff" d="M905.68,-336.46C1058.56,-331.42 1454.16,-317.08 1784,-294 2311.64,-257.08 2443.47,-243.87 2969,-184 3150.36,-163.34 3195.76,-157.81 3376,-129 3378.89,-128.54 3381.87,-128.04 3384.87,-127.52"/>
<polygon fill="#63b8ff" stroke="#63b8ff" points="905.41,-332.97 895.53,-336.79 905.64,-339.96 905.41,-332.97"/>
</g>
<!-- Node20 -->
<g id="node20" class="node">
<title>Node20</title>
<g id="a_node20"><a xlink:href="_sound_cloud_a_p_i_8cpp.html" target="_top" xlink:title=" ">
<polygon fill="white" stroke="#666666" points="104,-129 0,-129 0,-110 104,-110 104,-129"/>
<text text-anchor="middle" x="52" y="-117" font-family="Helvetica,sans-Serif" font-size="10.00">SoundCloudAPI.cpp</text>
</a>
</g>
</g>
<!-- Node1&#45;&gt;Node20 -->
<g id="edge47" class="edge">
<title>Node1&#45;&gt;Node20</title>
<path fill="none" stroke="#63b8ff" d="M781.43,-328.14C736.75,-319.97 674.21,-307.7 620,-294 407.32,-240.24 155.85,-156.01 76.95,-129.08"/>
<polygon fill="#63b8ff" stroke="#63b8ff" points="781.07,-331.63 791.53,-329.97 782.32,-324.74 781.07,-331.63"/>
</g>
<!-- Node29 -->
<g id="node29" class="node">
<title>Node29</title>
<g id="a_node29"><a xlink:href="_voice_connection_8cpp.html" target="_top" xlink:title=" ">
<polygon fill="white" stroke="#666666" points="231.5,-129 122.5,-129 122.5,-110 231.5,-110 231.5,-129"/>
<text text-anchor="middle" x="177" y="-117" font-family="Helvetica,sans-Serif" font-size="10.00">VoiceConnection.cpp</text>
</a>
</g>
</g>
<!-- Node1&#45;&gt;Node29 -->
<g id="edge48" class="edge">
<title>Node1&#45;&gt;Node29</title>
<path fill="none" stroke="#63b8ff" d="M797.31,-327.42C764.36,-318.86 718.13,-306.41 678,-294 491.57,-236.34 270.33,-155.2 199.79,-129"/>
<polygon fill="#63b8ff" stroke="#63b8ff" points="796.54,-330.84 807.09,-329.95 798.29,-324.06 796.54,-330.84"/>
</g>
<!-- Node32 -->
<g id="node32" class="node">
<title>Node32</title>
<g id="a_node32"><a xlink:href="_you_tube_a_p_i_8cpp.html" target="_top" xlink:title=" ">
<polygon fill="white" stroke="#666666" points="338.5,-129 249.5,-129 249.5,-110 338.5,-110 338.5,-129"/>
<text text-anchor="middle" x="294" y="-117" font-family="Helvetica,sans-Serif" font-size="10.00">YouTubeAPI.cpp</text>
</a>
</g>
</g>
<!-- Node1&#45;&gt;Node32 -->
<g id="edge49" class="edge">
<title>Node1&#45;&gt;Node32</title>
<path fill="none" stroke="#63b8ff" d="M810.07,-326.17C710.58,-286.52 400.36,-162.89 315.59,-129.1"/>
<polygon fill="#63b8ff" stroke="#63b8ff" points="808.97,-329.5 819.56,-329.95 811.56,-323 808.97,-329.5"/>
</g>
<!-- Node33 -->
<g id="node33" class="node">
<title>Node33</title>
<g id="a_node33"><a xlink:href="_guild_entities_8hpp.html" target="_top" xlink:title=" ">
<polygon fill="white" stroke="#666666" points="886.5,-294 795.5,-294 795.5,-275 886.5,-275 886.5,-294"/>
<text text-anchor="middle" x="841" y="-282" font-family="Helvetica,sans-Serif" font-size="10.00">GuildEntities.hpp</text>
</a>
</g>
</g>
<!-- Node1&#45;&gt;Node33 -->
<g id="edge32" class="edge">
<title>Node1&#45;&gt;Node33</title>
<path fill="none" stroke="#63b8ff" d="M841,-319.66C841,-310.93 841,-300.99 841,-294.09"/>
<polygon fill="#63b8ff" stroke="#63b8ff" points="837.5,-319.75 841,-329.75 844.5,-319.75 837.5,-319.75"/>
</g>
<!-- Node35 -->
<g id="node35" class="node">
<title>Node35</title>
<g id="a_node35"><a xlink:href="_song_a_p_i_8hpp.html" target="_top" xlink:title=" ">
<polygon fill="white" stroke="#666666" points="2017,-239 1943,-239 1943,-220 2017,-220 2017,-239"/>
<text text-anchor="middle" x="1980" y="-227" font-family="Helvetica,sans-Serif" font-size="10.00">SongAPI.hpp</text>
</a>
</g>
</g>
<!-- Node1&#45;&gt;Node35 -->
<g id="edge43" class="edge">
<title>Node1&#45;&gt;Node35</title>
<path fill="none" stroke="#63b8ff" d="M905.88,-336.85C1081.95,-332.13 1566.1,-317.34 1724,-294 1808.94,-281.45 1906.78,-253.22 1953.07,-239.01"/>
<polygon fill="#63b8ff" stroke="#63b8ff" points="905.63,-333.36 895.73,-337.12 905.82,-340.36 905.63,-333.36"/>
</g>
<!-- Node3 -->
<g id="node3" class="node">
<title>Node3</title>
<g id="a_node3"><a xlink:href="_application_command_entities_8cpp.html" target="_top" xlink:title=" ">
<polygon fill="white" stroke="#666666" points="2324.5,-129 2163.5,-129 2163.5,-110 2324.5,-110 2324.5,-129"/>
<text text-anchor="middle" x="2244" y="-117" font-family="Helvetica,sans-Serif" font-size="10.00">ApplicationCommandEntities.cpp</text>
</a>
</g>
</g>
<!-- Node2&#45;&gt;Node3 -->
<g id="edge2" class="edge">
<title>Node2&#45;&gt;Node3</title>
<path fill="none" stroke="#63b8ff" d="M1653.55,-165.44C1655.05,-165.29 1656.53,-165.14 1658,-165 1878.45,-143.83 1934.31,-147.53 2155,-129 2157.78,-128.77 2160.62,-128.52 2163.48,-128.27"/>
<polygon fill="#63b8ff" stroke="#63b8ff" points="1653.14,-161.96 1643.56,-166.49 1653.87,-168.92 1653.14,-161.96"/>
</g>
<!-- Node4 -->
<g id="node4" class="node">
<title>Node4</title>
<g id="a_node4"><a xlink:href="_auto_moderation_entities_8cpp.html" target="_top" xlink:title=" ">
<polygon fill="white" stroke="#666666" points="2479.5,-129 2342.5,-129 2342.5,-110 2479.5,-110 2479.5,-129"/>
<text text-anchor="middle" x="2411" y="-117" font-family="Helvetica,sans-Serif" font-size="10.00">AutoModerationEntities.cpp</text>
</a>
</g>
</g>
<!-- Node2&#45;&gt;Node4 -->
<g id="edge3" class="edge">
<title>Node2&#45;&gt;Node4</title>
<path fill="none" stroke="#63b8ff" d="M1653.55,-165.4C1655.05,-165.26 1656.53,-165.13 1658,-165 1957.75,-139.1 2034.13,-153.52 2334,-129 2336.68,-128.78 2339.41,-128.54 2342.17,-128.29"/>
<polygon fill="#63b8ff" stroke="#63b8ff" points="1653.15,-161.92 1643.55,-166.39 1653.84,-168.89 1653.15,-161.92"/>
</g>
<!-- Node5 -->
<g id="node5" class="node">
<title>Node5</title>
<g id="a_node5"><a xlink:href="_channel_entities_8cpp.html" target="_top" xlink:title=" ">
<polygon fill="white" stroke="#666666" points="2602,-129 2498,-129 2498,-110 2602,-110 2602,-129"/>
<text text-anchor="middle" x="2550" y="-117" font-family="Helvetica,sans-Serif" font-size="10.00">ChannelEntities.cpp</text>
</a>
</g>
</g>
<!-- Node2&#45;&gt;Node5 -->
<g id="edge4" class="edge">
<title>Node2&#45;&gt;Node5</title>
<path fill="none" stroke="#63b8ff" d="M1653.55,-165.38C1655.04,-165.25 1656.53,-165.12 1658,-165 2026.46,-135.01 2120.85,-162.55 2489,-129 2491.88,-128.74 2494.82,-128.44 2497.79,-128.11"/>
<polygon fill="#63b8ff" stroke="#63b8ff" points="1653.16,-161.9 1643.54,-166.34 1653.83,-168.87 1653.16,-161.9"/>
</g>
<!-- Node6 -->
<g id="node6" class="node">
<title>Node6</title>
<g id="a_node6"><a xlink:href="_command_controller_8cpp.html" target="_top" xlink:title=" ">
<polygon fill="white" stroke="#666666" points="2741.5,-129 2620.5,-129 2620.5,-110 2741.5,-110 2741.5,-129"/>
<text text-anchor="middle" x="2681" y="-117" font-family="Helvetica,sans-Serif" font-size="10.00">CommandController.cpp</text>
</a>
</g>
</g>
<!-- Node2&#45;&gt;Node6 -->
<g id="edge5" class="edge">
<title>Node2&#45;&gt;Node6</title>
<path fill="none" stroke="#63b8ff" d="M1653.55,-165.37C1655.04,-165.24 1656.53,-165.12 1658,-165 2080.55,-131.78 2188.47,-162.58 2611,-129 2614.05,-128.76 2617.17,-128.48 2620.32,-128.18"/>
<polygon fill="#63b8ff" stroke="#63b8ff" points="1653.17,-161.89 1643.54,-166.31 1653.82,-168.86 1653.17,-161.89"/>
</g>
<!-- Node7 -->
<g id="node7" class="node">
<title>Node7</title>
<g id="a_node7"><a xlink:href="_discord_core_client_8cpp.html" target="_top" xlink:title=" ">
<polygon fill="white" stroke="#666666" points="2872.5,-129 2759.5,-129 2759.5,-110 2872.5,-110 2872.5,-129"/>
<text text-anchor="middle" x="2816" y="-117" font-family="Helvetica,sans-Serif" font-size="10.00">DiscordCoreClient.cpp</text>
</a>
</g>
</g>
<!-- Node2&#45;&gt;Node7 -->
<g id="edge6" class="edge">
<title>Node2&#45;&gt;Node7</title>
<path fill="none" stroke="#63b8ff" d="M1653.55,-165.36C1655.04,-165.23 1656.53,-165.11 1658,-165 2142.64,-128.08 2266.57,-168.56 2751,-129 2753.72,-128.78 2756.51,-128.52 2759.31,-128.24"/>
<polygon fill="#63b8ff" stroke="#63b8ff" points="1653.17,-161.88 1643.54,-166.29 1653.82,-168.85 1653.17,-161.88"/>
</g>
<!-- Node8 -->
<g id="node8" class="node">
<title>Node8</title>
<g id="a_node8"><a xlink:href="_event_manager_8cpp.html" target="_top" xlink:title=" ">
<polygon fill="white" stroke="#666666" points="947.5,-129 850.5,-129 850.5,-110 947.5,-110 947.5,-129"/>
<text text-anchor="middle" x="899" y="-117" font-family="Helvetica,sans-Serif" font-size="10.00">EventManager.cpp</text>
</a>
</g>
</g>
<!-- Node2&#45;&gt;Node8 -->
<g id="edge7" class="edge">
<title>Node2&#45;&gt;Node8</title>
<path fill="none" stroke="#63b8ff" d="M1520.33,-170.44C1405.2,-164.78 1161.75,-151.2 957,-129 953.96,-128.67 950.84,-128.3 947.7,-127.91"/>
<polygon fill="#63b8ff" stroke="#63b8ff" points="1520.24,-173.94 1530.4,-170.93 1520.58,-166.95 1520.24,-173.94"/>
</g>
<!-- Node9 -->
<g id="node9" class="node">
<title>Node9</title>
<g id="a_node9"><a xlink:href="_foundation_entities_8cpp.html" target="_top" xlink:title=" ">
<polygon fill="white" stroke="#666666" points="473,-129 357,-129 357,-110 473,-110 473,-129"/>
<text text-anchor="middle" x="415" y="-117" font-family="Helvetica,sans-Serif" font-size="10.00">FoundationEntities.cpp</text>
</a>
</g>
</g>
<!-- Node2&#45;&gt;Node9 -->
<g id="edge8" class="edge">
<title>Node2&#45;&gt;Node9</title>
<path fill="none" stroke="#63b8ff" d="M1520.07,-172.81C1347.71,-170.59 874.58,-161.75 482,-129 479.08,-128.76 476.09,-128.48 473.07,-128.18"/>
<polygon fill="#63b8ff" stroke="#63b8ff" points="1520.21,-176.31 1530.25,-172.93 1520.3,-169.31 1520.21,-176.31"/>
</g>
<!-- Node10 -->
<g id="node10" class="node">
<title>Node10</title>
<g id="a_node10"><a xlink:href="_guild_entities_8cpp.html" target="_top" xlink:title=" ">
<polygon fill="white" stroke="#666666" points="3366.5,-129 3275.5,-129 3275.5,-110 3366.5,-110 3366.5,-129"/>
<text text-anchor="middle" x="3321" y="-117" font-family="Helvetica,sans-Serif" font-size="10.00">GuildEntities.cpp</text>
</a>
</g>
</g>
<!-- Node2&#45;&gt;Node10 -->
<g id="edge9" class="edge">
<title>Node2&#45;&gt;Node10</title>
<path fill="none" stroke="#63b8ff" d="M1653.54,-165.34C1655.04,-165.22 1656.53,-165.1 1658,-165 2371.06,-114.45 2553.91,-191.72 3266,-129 3269.08,-128.73 3272.25,-128.39 3275.44,-128.01"/>
<polygon fill="#63b8ff" stroke="#63b8ff" points="1653.18,-161.86 1643.53,-166.23 1653.81,-168.83 1653.18,-161.86"/>
</g>
<!-- Node11 -->
<g id="node11" class="node">
<title>Node11</title>
<g id="a_node11"><a xlink:href="_guild_member_entities_8cpp.html" target="_top" xlink:title=" ">
<polygon fill="white" stroke="#666666" points="617,-129 491,-129 491,-110 617,-110 617,-129"/>
<text text-anchor="middle" x="554" y="-117" font-family="Helvetica,sans-Serif" font-size="10.00">GuildMemberEntities.cpp</text>
</a>
</g>
</g>
<!-- Node2&#45;&gt;Node11 -->
<g id="edge10" class="edge">
<title>Node2&#45;&gt;Node11</title>
<path fill="none" stroke="#63b8ff" d="M1519.9,-172.04C1363.2,-168.26 961,-156.5 626,-129 623.11,-128.76 620.17,-128.5 617.19,-128.22"/>
<polygon fill="#63b8ff" stroke="#63b8ff" points="1520.23,-175.55 1530.31,-172.28 1520.4,-168.55 1520.23,-175.55"/>
</g>
<!-- Node12 -->
<g id="node12" class="node">
<title>Node12</title>
<g id="a_node12"><a xlink:href="_guild_scheduled_event_entities_8cpp.html" target="_top" xlink:title=" ">
<polygon fill="white" stroke="#666666" points="3051.5,-129 2890.5,-129 2890.5,-110 3051.5,-110 3051.5,-129"/>
<text text-anchor="middle" x="2971" y="-117" font-family="Helvetica,sans-Serif" font-size="10.00">GuildScheduledEventEntities.cpp</text>
</a>
</g>
</g>
<!-- Node2&#45;&gt;Node12 -->
<g id="edge11" class="edge">
<title>Node2&#45;&gt;Node12</title>
<path fill="none" stroke="#63b8ff" d="M1653.55,-165.35C1655.04,-165.23 1656.53,-165.11 1658,-165 2200.73,-124.61 2338.82,-162.89 2882,-129 2884.79,-128.83 2887.62,-128.63 2890.49,-128.43"/>
<polygon fill="#63b8ff" stroke="#63b8ff" points="1653.18,-161.87 1643.54,-166.27 1653.81,-168.84 1653.18,-161.87"/>
</g>
<!-- Node13 -->
<g id="node13" class="node">
<title>Node13</title>
<g id="a_node13"><a xlink:href="_https_client_8cpp.html" target="_top" xlink:title=" ">
<polygon fill="white" stroke="#666666" points="3152.5,-129 3069.5,-129 3069.5,-110 3152.5,-110 3152.5,-129"/>
<text text-anchor="middle" x="3111" y="-117" font-family="Helvetica,sans-Serif" font-size="10.00">HttpsClient.cpp</text>
</a>
</g>
</g>
<!-- Node2&#45;&gt;Node13 -->
<g id="edge12" class="edge">
<title>Node2&#45;&gt;Node13</title>
<path fill="none" stroke="#63b8ff" d="M1653.54,-165.34C1655.04,-165.22 1656.53,-165.11 1658,-165 2280.13,-119.88 2440.17,-189.42 3061,-129 3063.72,-128.74 3066.51,-128.41 3069.32,-128.04"/>
<polygon fill="#63b8ff" stroke="#63b8ff" points="1653.18,-161.86 1643.54,-166.25 1653.81,-168.83 1653.18,-161.86"/>
</g>
<!-- Node14 -->
<g id="node14" class="node">
<title>Node14</title>
<g id="a_node14"><a xlink:href="_input_events_8cpp.html" target="_top" xlink:title=" ">
<polygon fill="white" stroke="#666666" points="3257,-129 3171,-129 3171,-110 3257,-110 3257,-129"/>
<text text-anchor="middle" x="3214" y="-117" font-family="Helvetica,sans-Serif" font-size="10.00">InputEvents.cpp</text>
</a>
</g>
</g>
<!-- Node2&#45;&gt;Node14 -->
<g id="edge13" class="edge">
<title>Node2&#45;&gt;Node14</title>
<path fill="none" stroke="#63b8ff" d="M1653.54,-165.34C1655.04,-165.22 1656.53,-165.11 1658,-165 2324.93,-117.21 2496.25,-191.08 3162,-129 3164.91,-128.73 3167.91,-128.39 3170.93,-128.01"/>
<polygon fill="#63b8ff" stroke="#63b8ff" points="1653.18,-161.86 1643.53,-166.24 1653.81,-168.83 1653.18,-161.86"/>
</g>
<!-- Node15 -->
<g id="node15" class="node">
<title>Node15</title>
<g id="a_node15"><a xlink:href="_interaction_entities_8cpp.html" target="_top" xlink:title=" ">
<polygon fill="white" stroke="#666666" points="1078.5,-129 965.5,-129 965.5,-110 1078.5,-110 1078.5,-129"/>
<text text-anchor="middle" x="1022" y="-117" font-family="Helvetica,sans-Serif" font-size="10.00">InteractionEntities.cpp</text>
</a>
</g>
</g>
<!-- Node2&#45;&gt;Node15 -->
<g id="edge14" class="edge">
<title>Node2&#45;&gt;Node15</title>
<path fill="none" stroke="#63b8ff" d="M1520.31,-168.39C1424.53,-160.86 1242.54,-145.84 1088,-129 1084.9,-128.66 1081.72,-128.3 1078.51,-127.93"/>
<polygon fill="#63b8ff" stroke="#63b8ff" points="1520.19,-171.89 1530.43,-169.18 1520.73,-164.91 1520.19,-171.89"/>
</g>
<!-- Node16 -->
<g id="node16" class="node">
<title>Node16</title>
<g id="a_node16"><a xlink:href="_message_entities_8cpp.html" target="_top" xlink:title=" ">
<polygon fill="white" stroke="#666666" points="1205,-129 1097,-129 1097,-110 1205,-110 1205,-129"/>
<text text-anchor="middle" x="1151" y="-117" font-family="Helvetica,sans-Serif" font-size="10.00">MessageEntities.cpp</text>
</a>
</g>
</g>
<!-- Node2&#45;&gt;Node16 -->
<g id="edge15" class="edge">
<title>Node2&#45;&gt;Node16</title>
<path fill="none" stroke="#63b8ff" d="M1520.07,-165.76C1445.58,-157.08 1321.62,-142.46 1215,-129 1211.78,-128.59 1208.46,-128.17 1205.12,-127.74"/>
<polygon fill="#63b8ff" stroke="#63b8ff" points="1519.91,-169.26 1530.25,-166.94 1520.72,-162.31 1519.91,-169.26"/>
</g>
<!-- Node17 -->
<g id="node17" class="node">
<title>Node17</title>
<g id="a_node17"><a xlink:href="_reaction_entities_8cpp.html" target="_top" xlink:title=" ">
<polygon fill="white" stroke="#666666" points="1330.5,-129 1223.5,-129 1223.5,-110 1330.5,-110 1330.5,-129"/>
<text text-anchor="middle" x="1277" y="-117" font-family="Helvetica,sans-Serif" font-size="10.00">ReactionEntities.cpp</text>
</a>
</g>
</g>
<!-- Node2&#45;&gt;Node17 -->
<g id="edge16" class="edge">
<title>Node2&#45;&gt;Node17</title>
<path fill="none" stroke="#63b8ff" d="M1527.04,-163.25C1468.82,-153.3 1381.49,-138.36 1326.94,-129.04"/>
<polygon fill="#63b8ff" stroke="#63b8ff" points="1526.75,-166.75 1537.19,-164.98 1527.93,-159.85 1526.75,-166.75"/>
</g>
<!-- Node18 -->
<g id="node18" class="node">
<title>Node18</title>
<g id="a_node18"><a xlink:href="_role_entities_8cpp.html" target="_top" xlink:title=" ">
<polygon fill="white" stroke="#666666" points="1437,-129 1349,-129 1349,-110 1437,-110 1437,-129"/>
<text text-anchor="middle" x="1393" y="-117" font-family="Helvetica,sans-Serif" font-size="10.00">RoleEntities.cpp</text>
</a>
</g>
</g>
<!-- Node2&#45;&gt;Node18 -->
<g id="edge17" class="edge">
<title>Node2&#45;&gt;Node18</title>
<path fill="none" stroke="#63b8ff" d="M1546.04,-162.31C1509.74,-152.39 1457.5,-138.12 1424.41,-129.08"/>
<polygon fill="#63b8ff" stroke="#63b8ff" points="1545.26,-165.73 1555.83,-164.98 1547.11,-158.97 1545.26,-165.73"/>
</g>
<!-- Node2&#45;&gt;Node19 -->
<g id="edge18" class="edge">
<title>Node2&#45;&gt;Node19</title>
<path fill="none" stroke="#63b8ff" d="M1653.69,-173.25C1935.82,-171.98 3032.41,-164.79 3376,-129 3378.91,-128.7 3381.91,-128.31 3384.92,-127.87"/>
<polygon fill="#63b8ff" stroke="#63b8ff" points="1653.6,-169.75 1643.61,-173.3 1653.63,-176.75 1653.6,-169.75"/>
</g>
<!-- Node2&#45;&gt;Node20 -->
<g id="edge19" class="edge">
<title>Node2&#45;&gt;Node20</title>
<path fill="none" stroke="#63b8ff" d="M1520.13,-174.05C1311.57,-175.23 654.58,-174.77 113,-129 110.12,-128.76 107.17,-128.47 104.2,-128.15"/>
<polygon fill="#63b8ff" stroke="#63b8ff" points="1520.33,-177.55 1530.31,-173.99 1520.28,-170.55 1520.33,-177.55"/>
</g>
<!-- Node21 -->
<g id="node21" class="node">
<title>Node21</title>
<g id="a_node21"><a xlink:href="_stage_instance_entities_8cpp.html" target="_top" xlink:title=" ">
<polygon fill="white" stroke="#666666" points="1586.5,-129 1455.5,-129 1455.5,-110 1586.5,-110 1586.5,-129"/>
<text text-anchor="middle" x="1521" y="-117" font-family="Helvetica,sans-Serif" font-size="10.00">StageInstanceEntities.cpp</text>
</a>
</g>
</g>
<!-- Node2&#45;&gt;Node21 -->
<g id="edge20" class="edge">
<title>Node2&#45;&gt;Node21</title>
<path fill="none" stroke="#63b8ff" d="M1568.45,-158.6C1556.62,-149.11 1541.71,-137.13 1531.8,-129.17"/>
<polygon fill="#63b8ff" stroke="#63b8ff" points="1566.41,-161.45 1576.4,-164.98 1570.79,-155.99 1566.41,-161.45"/>
</g>
<!-- Node22 -->
<g id="node22" class="node">
<title>Node22</title>
<g id="a_node22"><a xlink:href="_sticker_entities_8cpp.html" target="_top" xlink:title=" ">
<polygon fill="white" stroke="#666666" points="1703.5,-129 1604.5,-129 1604.5,-110 1703.5,-110 1703.5,-129"/>
<text text-anchor="middle" x="1654" y="-117" font-family="Helvetica,sans-Serif" font-size="10.00">StickerEntities.cpp</text>
</a>
</g>
</g>
<!-- Node2&#45;&gt;Node22 -->
<g id="edge21" class="edge">
<title>Node2&#45;&gt;Node22</title>
<path fill="none" stroke="#63b8ff" d="M1605.83,-158.6C1617.84,-149.11 1632.97,-137.13 1643.04,-129.17"/>
<polygon fill="#63b8ff" stroke="#63b8ff" points="1603.44,-156.04 1597.76,-164.98 1607.78,-161.53 1603.44,-156.04"/>
</g>
<!-- Node23 -->
<g id="node23" class="node">
<title>Node23</title>
<g id="a_node23"><a xlink:href="_thread_entities_8cpp.html" target="_top" xlink:title=" ">
<polygon fill="white" stroke="#666666" points="1820,-129 1722,-129 1722,-110 1820,-110 1820,-129"/>
<text text-anchor="middle" x="1771" y="-117" font-family="Helvetica,sans-Serif" font-size="10.00">ThreadEntities.cpp</text>
</a>
</g>
</g>
<!-- Node2&#45;&gt;Node23 -->
<g id="edge22" class="edge">
<title>Node2&#45;&gt;Node23</title>
<path fill="none" stroke="#63b8ff" d="M1626.29,-162.18C1660.7,-152.27 1709.96,-138.08 1741.21,-129.08"/>
<polygon fill="#63b8ff" stroke="#63b8ff" points="1625.2,-158.85 1616.56,-164.98 1627.14,-165.58 1625.2,-158.85"/>
</g>
<!-- Node24 -->
<g id="node24" class="node">
<title>Node24</title>
<g id="a_node24"><a xlink:href="_to_entity_8hpp.html" target="_top" xlink:title=" ">
<polygon fill="white" stroke="#666666" points="1909.5,-129 1838.5,-129 1838.5,-110 1909.5,-110 1909.5,-129"/>
<text text-anchor="middle" x="1874" y="-117" font-family="Helvetica,sans-Serif" font-size="10.00">ToEntity.hpp</text>
</a>
</g>
</g>
<!-- Node2&#45;&gt;Node24 -->
<g id="edge23" class="edge">
<title>Node2&#45;&gt;Node24</title>
<path fill="none" stroke="#63b8ff" d="M1643.95,-163.11C1693,-154.14 1765.68,-140.8 1829,-129 1831.97,-128.45 1835.05,-127.87 1838.14,-127.29"/>
<polygon fill="#63b8ff" stroke="#63b8ff" points="1643.06,-159.71 1633.86,-164.95 1644.32,-166.6 1643.06,-159.71"/>
</g>
<!-- Node27 -->
<g id="node27" class="node">
<title>Node27</title>
<g id="a_node27"><a xlink:href="_user_entities_8cpp.html" target="_top" xlink:title=" ">
<polygon fill="white" stroke="#666666" points="2016.5,-129 1927.5,-129 1927.5,-110 2016.5,-110 2016.5,-129"/>
<text text-anchor="middle" x="1972" y="-117" font-family="Helvetica,sans-Serif" font-size="10.00">UserEntities.cpp</text>
</a>
</g>
</g>
<!-- Node2&#45;&gt;Node27 -->
<g id="edge26" class="edge">
<title>Node2&#45;&gt;Node27</title>
<path fill="none" stroke="#63b8ff" d="M1653.77,-165.06C1720.86,-156.47 1827.2,-142.51 1919,-129 1921.77,-128.59 1924.61,-128.16 1927.48,-127.73"/>
<polygon fill="#63b8ff" stroke="#63b8ff" points="1653.23,-161.61 1643.75,-166.35 1654.11,-168.55 1653.23,-161.61"/>
</g>
<!-- Node28 -->
<g id="node28" class="node">
<title>Node28</title>
<g id="a_node28"><a xlink:href="_utilities_8cpp.html" target="_top" xlink:title=" ">
<polygon fill="white" stroke="#666666" points="703,-129 635,-129 635,-110 703,-110 703,-129"/>
<text text-anchor="middle" x="669" y="-117" font-family="Helvetica,sans-Serif" font-size="10.00">Utilities.cpp</text>
</a>
</g>
</g>
<!-- Node2&#45;&gt;Node28 -->
<g id="edge27" class="edge">
<title>Node2&#45;&gt;Node28</title>
<path fill="none" stroke="#63b8ff" d="M1520.08,-173.28C1373.36,-172.09 1012.55,-165.38 713,-129 709.76,-128.61 706.39,-128.11 703.04,-127.56"/>
<polygon fill="#63b8ff" stroke="#63b8ff" points="1520.25,-176.78 1530.27,-173.35 1520.3,-169.78 1520.25,-176.78"/>
</g>
<!-- Node2&#45;&gt;Node29 -->
<g id="edge28" class="edge">
<title>Node2&#45;&gt;Node29</title>
<path fill="none" stroke="#63b8ff" d="M1520.25,-173.68C1323.73,-173.69 730.2,-170.06 240,-129 237.25,-128.77 234.44,-128.5 231.6,-128.21"/>
<polygon fill="#63b8ff" stroke="#63b8ff" points="1520.42,-177.18 1530.42,-173.67 1520.42,-170.18 1520.42,-177.18"/>
</g>
<!-- Node30 -->
<g id="node30" class="node">
<title>Node30</title>
<g id="a_node30"><a xlink:href="_web_hook_entities_8cpp.html" target="_top" xlink:title=" ">
<polygon fill="white" stroke="#666666" points="2145.5,-129 2034.5,-129 2034.5,-110 2145.5,-110 2145.5,-129"/>
<text text-anchor="middle" x="2090" y="-117" font-family="Helvetica,sans-Serif" font-size="10.00">WebHookEntities.cpp</text>
</a>
</g>
</g>
<!-- Node2&#45;&gt;Node30 -->
<g id="edge29" class="edge">
<title>Node2&#45;&gt;Node30</title>
<path fill="none" stroke="#63b8ff" d="M1653.56,-165.49C1655.05,-165.32 1656.53,-165.16 1658,-165 1821.37,-147.23 1862.74,-147.82 2026,-129 2028.67,-128.69 2031.41,-128.37 2034.17,-128.03"/>
<polygon fill="#63b8ff" stroke="#63b8ff" points="1653.11,-162.02 1643.57,-166.62 1653.9,-168.97 1653.11,-162.02"/>
</g>
<!-- Node31 -->
<g id="node31" class="node">
<title>Node31</title>
<g id="a_node31"><a xlink:href="_web_socket_client_8cpp.html" target="_top" xlink:title=" ">
<polygon fill="white" stroke="#666666" points="832.5,-129 721.5,-129 721.5,-110 832.5,-110 832.5,-129"/>
<text text-anchor="middle" x="777" y="-117" font-family="Helvetica,sans-Serif" font-size="10.00">WebSocketClient.cpp</text>
</a>
</g>
</g>
<!-- Node2&#45;&gt;Node31 -->
<g id="edge30" class="edge">
<title>Node2&#45;&gt;Node31</title>
<path fill="none" stroke="#63b8ff" d="M1520.12,-171.08C1389.54,-166.02 1091.6,-152.75 842,-129 838.94,-128.71 835.8,-128.38 832.64,-128.04"/>
<polygon fill="#63b8ff" stroke="#63b8ff" points="1520.23,-174.59 1530.35,-171.48 1520.49,-167.6 1520.23,-174.59"/>
</g>
<!-- Node2&#45;&gt;Node32 -->
<g id="edge31" class="edge">
<title>Node2&#45;&gt;Node32</title>
<path fill="none" stroke="#63b8ff" d="M1520.17,-173.92C1334.03,-174.48 794.05,-171.96 348,-129 344.98,-128.71 341.87,-128.36 338.74,-127.97"/>
<polygon fill="#63b8ff" stroke="#63b8ff" points="1520.35,-177.42 1530.34,-173.88 1520.33,-170.42 1520.35,-177.42"/>
</g>
<!-- Node25 -->
<g id="node25" class="node">
<title>Node25</title>
<g id="a_node25"><a xlink:href="_index_8hpp.html" target="_top" xlink:title=" ">
<polygon fill="white" stroke="#666666" points="1903.5,-74 1844.5,-74 1844.5,-55 1903.5,-55 1903.5,-74"/>
<text text-anchor="middle" x="1874" y="-62" font-family="Helvetica,sans-Serif" font-size="10.00">Index.hpp</text>
</a>
</g>
</g>
<!-- Node24&#45;&gt;Node25 -->
<g id="edge24" class="edge">
<title>Node24&#45;&gt;Node25</title>
<path fill="none" stroke="#63b8ff" d="M1874,-99.66C1874,-90.93 1874,-80.99 1874,-74.09"/>
<polygon fill="#63b8ff" stroke="#63b8ff" points="1870.5,-99.75 1874,-109.75 1877.5,-99.75 1870.5,-99.75"/>
</g>
<!-- Node26 -->
<g id="node26" class="node">
<title>Node26</title>
<g id="a_node26"><a xlink:href="_dll_main_8cpp.html" target="_top" xlink:title=" ">
<polygon fill="white" stroke="#666666" points="1908,-19 1840,-19 1840,0 1908,0 1908,-19"/>
<text text-anchor="middle" x="1874" y="-7" font-family="Helvetica,sans-Serif" font-size="10.00">DllMain.cpp</text>
</a>
</g>
</g>
<!-- Node25&#45;&gt;Node26 -->
<g id="edge25" class="edge">
<title>Node25&#45;&gt;Node26</title>
<path fill="none" stroke="#63b8ff" d="M1874,-44.66C1874,-35.93 1874,-25.99 1874,-19.09"/>
<polygon fill="#63b8ff" stroke="#63b8ff" points="1870.5,-44.75 1874,-54.75 1877.5,-44.75 1870.5,-44.75"/>
</g>
<!-- Node33&#45;&gt;Node2 -->
<g id="edge33" class="edge">
<title>Node33&#45;&gt;Node2</title>
<path fill="none" stroke="#63b8ff" d="M896.47,-275.47C1034.33,-255.51 1391.32,-203.83 1530.38,-183.7"/>
<polygon fill="#63b8ff" stroke="#63b8ff" points="895.94,-272.01 886.54,-276.91 896.94,-278.94 895.94,-272.01"/>
</g>
<!-- Node33&#45;&gt;Node9 -->
<g id="edge38" class="edge">
<title>Node33&#45;&gt;Node9</title>
<path fill="none" stroke="#63b8ff" d="M809.11,-271.3C726.67,-239.75 507.97,-156.07 437.34,-129.05"/>
<polygon fill="#63b8ff" stroke="#63b8ff" points="808.11,-274.66 818.7,-274.97 810.61,-268.12 808.11,-274.66"/>
</g>
<!-- Node33&#45;&gt;Node10 -->
<g id="edge39" class="edge">
<title>Node33&#45;&gt;Node10</title>
<path fill="none" stroke="#63b8ff" d="M896.87,-279.54C1116.05,-264.05 1938.49,-206.38 2616,-165 2904.79,-147.36 2978.24,-159.13 3266,-129 3269.08,-128.68 3272.24,-128.3 3275.43,-127.9"/>
<polygon fill="#63b8ff" stroke="#63b8ff" points="896.31,-276.07 886.59,-280.27 896.81,-283.05 896.31,-276.07"/>
</g>
<!-- Node33&#45;&gt;Node11 -->
<g id="edge40" class="edge">
<title>Node33&#45;&gt;Node11</title>
<path fill="none" stroke="#63b8ff" d="M818.03,-269.4C780.95,-246.76 705.41,-201.17 640,-165 616.46,-151.98 588.75,-137.86 571.28,-129.09"/>
<polygon fill="#63b8ff" stroke="#63b8ff" points="816.66,-272.66 827.02,-274.9 820.32,-266.69 816.66,-272.66"/>
</g>
<!-- Node33&#45;&gt;Node28 -->
<g id="edge41" class="edge">
<title>Node33&#45;&gt;Node28</title>
<path fill="none" stroke="#63b8ff" d="M829.32,-266.78C811.8,-242.47 776.82,-196.81 740,-165 723.05,-150.36 700.8,-137.23 685.76,-129.09"/>
<polygon fill="#63b8ff" stroke="#63b8ff" points="826.5,-268.86 835.15,-274.98 832.2,-264.8 826.5,-268.86"/>
</g>
<!-- Node34 -->
<g id="node34" class="node">
<title>Node34</title>
<g id="a_node34"><a xlink:href="_event_manager_8hpp.html" target="_top" xlink:title=" ">
<polygon fill="white" stroke="#666666" points="935.5,-239 838.5,-239 838.5,-220 935.5,-220 935.5,-239"/>
<text text-anchor="middle" x="887" y="-227" font-family="Helvetica,sans-Serif" font-size="10.00">EventManager.hpp</text>
</a>
</g>
</g>
<!-- Node33&#45;&gt;Node34 -->
<g id="edge34" class="edge">
<title>Node33&#45;&gt;Node34</title>
<path fill="none" stroke="#63b8ff" d="M855.36,-266.96C863.37,-257.72 873.03,-246.6 879.55,-239.09"/>
<polygon fill="#63b8ff" stroke="#63b8ff" points="852.51,-264.9 848.6,-274.75 857.79,-269.49 852.51,-264.9"/>
</g>
<!-- Node34&#45;&gt;Node2 -->
<g id="edge35" class="edge">
<title>Node34&#45;&gt;Node2</title>
<path fill="none" stroke="#63b8ff" d="M945.64,-224.06C1078.28,-214.02 1399.92,-189.66 1530.5,-179.78"/>
<polygon fill="#63b8ff" stroke="#63b8ff" points="945.37,-220.57 935.67,-224.82 945.9,-227.55 945.37,-220.57"/>
</g>
<!-- Node34&#45;&gt;Node8 -->
<g id="edge36" class="edge">
<title>Node34&#45;&gt;Node8</title>
<path fill="none" stroke="#63b8ff" d="M889.11,-209.48C891.74,-185.84 896.11,-146.5 898.04,-129.16"/>
<polygon fill="#63b8ff" stroke="#63b8ff" points="885.61,-209.34 887.98,-219.66 892.57,-210.11 885.61,-209.34"/>
</g>
<!-- Node34&#45;&gt;Node31 -->
<g id="edge37" class="edge">
<title>Node34&#45;&gt;Node31</title>
<path fill="none" stroke="#63b8ff" d="M870.81,-212.61C847.24,-189.47 804.28,-147.29 785.82,-129.16"/>
<polygon fill="#63b8ff" stroke="#63b8ff" points="868.41,-215.15 878,-219.66 873.31,-210.16 868.41,-215.15"/>
</g>
<!-- Node35&#45;&gt;Node2 -->
<g id="edge44" class="edge">
<title>Node35&#45;&gt;Node2</title>
<path fill="none" stroke="#63b8ff" d="M1932.44,-222.09C1859.74,-212.28 1721.23,-193.6 1643.51,-183.12"/>
<polygon fill="#63b8ff" stroke="#63b8ff" points="1932.3,-225.6 1942.67,-223.47 1933.23,-218.66 1932.3,-225.6"/>
</g>
<!-- Node35&#45;&gt;Node10 -->
<g id="edge45" class="edge">
<title>Node35&#45;&gt;Node10</title>
<path fill="none" stroke="#63b8ff" d="M2027.24,-225.33C2228.87,-211.72 3018.39,-157.67 3266,-129 3269.07,-128.64 3272.23,-128.24 3275.42,-127.82"/>
<polygon fill="#63b8ff" stroke="#63b8ff" points="2027,-221.84 2017.26,-226 2027.47,-228.82 2027,-221.84"/>
</g>
<!-- Node35&#45;&gt;Node19 -->
<g id="edge46" class="edge">
<title>Node35&#45;&gt;Node19</title>
<path fill="none" stroke="#63b8ff" d="M2027.17,-227.34C2204.79,-222.5 2849.91,-200.74 3376,-129 3378.9,-128.6 3381.89,-128.15 3384.89,-127.67"/>
<polygon fill="#63b8ff" stroke="#63b8ff" points="2027.02,-223.84 2017.12,-227.61 2027.21,-230.84 2027.02,-223.84"/>
</g>
</g>
</svg>
