<?xml version="1.0" encoding="UTF-8" standalone="no"?>
<!DOCTYPE svg PUBLIC "-//W3C//DTD SVG 1.1//EN"
 "http://www.w3.org/Graphics/SVG/1.1/DTD/svg11.dtd">
<!-- Generated by graphviz version 5.0.0 (20220707.1540)
 -->
<!-- Title: WebHookEntities.hpp Pages: 1 -->
<svg width="3466pt" height="357pt"
 viewBox="0.00 0.00 3465.50 357.00" xmlns="http://www.w3.org/2000/svg" xmlns:xlink="http://www.w3.org/1999/xlink">
<g id="graph0" class="graph" transform="scale(1 1) rotate(0) translate(4 353)">
<title>WebHookEntities.hpp</title>
<!-- Node1 -->
<g id="node1" class="node">
<title>Node1</title>
<g id="a_node1"><a xlink:title=" ">
<polygon fill="#999999" stroke="#666666" points="1687,-349 1576,-349 1576,-330 1687,-330 1687,-349"/>
<text text-anchor="middle" x="1631.5" y="-337" font-family="Helvetica,sans-Serif" font-size="10.00">WebHookEntities.hpp</text>
</a>
</g>
</g>
<!-- Node2 -->
<g id="node2" class="node">
<title>Node2</title>
<g id="a_node2"><a xlink:href="_discord_core_client_8hpp.html" target="_top" xlink:title=" ">
<polygon fill="white" stroke="#666666" points="1811,-184 1698,-184 1698,-165 1811,-165 1811,-184"/>
<text text-anchor="middle" x="1754.5" y="-172" font-family="Helvetica,sans-Serif" font-size="10.00">DiscordCoreClient.hpp</text>
</a>
</g>
</g>
<!-- Node1&#45;&gt;Node2 -->
<g id="edge1" class="edge">
<title>Node1&#45;&gt;Node2</title>
<path fill="none" stroke="#63b8ff" d="M1644.24,-321.62C1670.15,-287.28 1728.21,-210.34 1747.85,-184.31"/>
<polygon fill="#63b8ff" stroke="#63b8ff" points="1641.34,-319.65 1638.11,-329.74 1646.93,-323.86 1641.34,-319.65"/>
</g>
<!-- Node30 -->
<g id="node30" class="node">
<title>Node30</title>
<g id="a_node30"><a xlink:href="_web_hook_entities_8cpp.html" target="_top" xlink:title=" ">
<polygon fill="white" stroke="#666666" points="111,-129 0,-129 0,-110 111,-110 111,-129"/>
<text text-anchor="middle" x="55.5" y="-117" font-family="Helvetica,sans-Serif" font-size="10.00">WebHookEntities.cpp</text>
</a>
</g>
</g>
<!-- Node1&#45;&gt;Node30 -->
<g id="edge42" class="edge">
<title>Node1&#45;&gt;Node30</title>
<path fill="none" stroke="#63b8ff" d="M1565.84,-329.42C1306.09,-293.49 352.86,-161.63 111.39,-128.23"/>
<polygon fill="#63b8ff" stroke="#63b8ff" points="1565.49,-332.9 1575.87,-330.81 1566.45,-325.97 1565.49,-332.9"/>
</g>
<!-- Node33 -->
<g id="node33" class="node">
<title>Node33</title>
<g id="a_node33"><a xlink:href="_interaction_entities_8hpp.html" target="_top" xlink:title=" ">
<polygon fill="white" stroke="#666666" points="2123,-294 2010,-294 2010,-275 2123,-275 2123,-294"/>
<text text-anchor="middle" x="2066.5" y="-282" font-family="Helvetica,sans-Serif" font-size="10.00">InteractionEntities.hpp</text>
</a>
</g>
</g>
<!-- Node1&#45;&gt;Node33 -->
<g id="edge32" class="edge">
<title>Node1&#45;&gt;Node33</title>
<path fill="none" stroke="#63b8ff" d="M1697.1,-330.51C1782.25,-320.13 1929.44,-302.2 2009.92,-292.39"/>
<polygon fill="#63b8ff" stroke="#63b8ff" points="1696.54,-327.05 1687.03,-331.73 1697.38,-334 1696.54,-327.05"/>
</g>
<!-- Node3 -->
<g id="node3" class="node">
<title>Node3</title>
<g id="a_node3"><a xlink:href="_application_command_entities_8cpp.html" target="_top" xlink:title=" ">
<polygon fill="white" stroke="#666666" points="2037,-129 1876,-129 1876,-110 2037,-110 2037,-129"/>
<text text-anchor="middle" x="1956.5" y="-117" font-family="Helvetica,sans-Serif" font-size="10.00">ApplicationCommandEntities.cpp</text>
</a>
</g>
</g>
<!-- Node2&#45;&gt;Node3 -->
<g id="edge2" class="edge">
<title>Node2&#45;&gt;Node3</title>
<path fill="none" stroke="#63b8ff" d="M1796.66,-162.44C1834.48,-152.52 1889.19,-138.16 1923.79,-129.08"/>
<polygon fill="#63b8ff" stroke="#63b8ff" points="1795.74,-159.06 1786.95,-164.98 1797.52,-165.83 1795.74,-159.06"/>
</g>
<!-- Node4 -->
<g id="node4" class="node">
<title>Node4</title>
<g id="a_node4"><a xlink:href="_auto_moderation_entities_8cpp.html" target="_top" xlink:title=" ">
<polygon fill="white" stroke="#666666" points="2192,-129 2055,-129 2055,-110 2192,-110 2192,-129"/>
<text text-anchor="middle" x="2123.5" y="-117" font-family="Helvetica,sans-Serif" font-size="10.00">AutoModerationEntities.cpp</text>
</a>
</g>
</g>
<!-- Node2&#45;&gt;Node4 -->
<g id="edge3" class="edge">
<title>Node2&#45;&gt;Node4</title>
<path fill="none" stroke="#63b8ff" d="M1821.28,-163.91C1890.53,-153.96 1997.77,-138.56 2064.14,-129.03"/>
<polygon fill="#63b8ff" stroke="#63b8ff" points="1820.75,-160.45 1811.35,-165.33 1821.74,-167.38 1820.75,-160.45"/>
</g>
<!-- Node5 -->
<g id="node5" class="node">
<title>Node5</title>
<g id="a_node5"><a xlink:href="_channel_entities_8cpp.html" target="_top" xlink:title=" ">
<polygon fill="white" stroke="#666666" points="2314.5,-129 2210.5,-129 2210.5,-110 2314.5,-110 2314.5,-129"/>
<text text-anchor="middle" x="2262.5" y="-117" font-family="Helvetica,sans-Serif" font-size="10.00">ChannelEntities.cpp</text>
</a>
</g>
</g>
<!-- Node2&#45;&gt;Node5 -->
<g id="edge4" class="edge">
<title>Node2&#45;&gt;Node5</title>
<path fill="none" stroke="#63b8ff" d="M1821.07,-167.69C1908.48,-159.88 2066.68,-145.1 2201.5,-129 2204.37,-128.66 2207.31,-128.29 2210.27,-127.91"/>
<polygon fill="#63b8ff" stroke="#63b8ff" points="1820.68,-164.22 1811.03,-168.59 1821.3,-171.19 1820.68,-164.22"/>
</g>
<!-- Node6 -->
<g id="node6" class="node">
<title>Node6</title>
<g id="a_node6"><a xlink:href="_command_controller_8cpp.html" target="_top" xlink:title=" ">
<polygon fill="white" stroke="#666666" points="2454,-129 2333,-129 2333,-110 2454,-110 2454,-129"/>
<text text-anchor="middle" x="2393.5" y="-117" font-family="Helvetica,sans-Serif" font-size="10.00">CommandController.cpp</text>
</a>
</g>
</g>
<!-- Node2&#45;&gt;Node6 -->
<g id="edge5" class="edge">
<title>Node2&#45;&gt;Node6</title>
<path fill="none" stroke="#63b8ff" d="M1821.37,-169.2C1927.79,-162.15 2142.2,-147.09 2323.5,-129 2326.55,-128.7 2329.66,-128.37 2332.81,-128.03"/>
<polygon fill="#63b8ff" stroke="#63b8ff" points="1820.85,-165.73 1811.1,-169.88 1821.31,-172.71 1820.85,-165.73"/>
</g>
<!-- Node7 -->
<g id="node7" class="node">
<title>Node7</title>
<g id="a_node7"><a xlink:href="_discord_core_client_8cpp.html" target="_top" xlink:title=" ">
<polygon fill="white" stroke="#666666" points="2585,-129 2472,-129 2472,-110 2585,-110 2585,-129"/>
<text text-anchor="middle" x="2528.5" y="-117" font-family="Helvetica,sans-Serif" font-size="10.00">DiscordCoreClient.cpp</text>
</a>
</g>
</g>
<!-- Node2&#45;&gt;Node7 -->
<g id="edge6" class="edge">
<title>Node2&#45;&gt;Node7</title>
<path fill="none" stroke="#63b8ff" d="M1821.37,-170.81C1947.26,-165.4 2227.98,-151.76 2463.5,-129 2466.22,-128.74 2469,-128.45 2471.81,-128.14"/>
<polygon fill="#63b8ff" stroke="#63b8ff" points="1820.97,-167.32 1811.12,-171.24 1821.26,-174.31 1820.97,-167.32"/>
</g>
<!-- Node8 -->
<g id="node8" class="node">
<title>Node8</title>
<g id="a_node8"><a xlink:href="_event_manager_8cpp.html" target="_top" xlink:title=" ">
<polygon fill="white" stroke="#666666" points="2700,-129 2603,-129 2603,-110 2700,-110 2700,-129"/>
<text text-anchor="middle" x="2651.5" y="-117" font-family="Helvetica,sans-Serif" font-size="10.00">EventManager.cpp</text>
</a>
</g>
</g>
<!-- Node2&#45;&gt;Node8 -->
<g id="edge7" class="edge">
<title>Node2&#45;&gt;Node8</title>
<path fill="none" stroke="#63b8ff" d="M1821.5,-172.11C1964.04,-168.69 2307.8,-157.9 2594.5,-129 2597.19,-128.73 2599.94,-128.42 2602.72,-128.09"/>
<polygon fill="#63b8ff" stroke="#63b8ff" points="1821.09,-168.62 1811.18,-172.36 1821.26,-175.62 1821.09,-168.62"/>
</g>
<!-- Node9 -->
<g id="node9" class="node">
<title>Node9</title>
<g id="a_node9"><a xlink:href="_foundation_entities_8cpp.html" target="_top" xlink:title=" ">
<polygon fill="white" stroke="#666666" points="3267.5,-129 3151.5,-129 3151.5,-110 3267.5,-110 3267.5,-129"/>
<text text-anchor="middle" x="3209.5" y="-117" font-family="Helvetica,sans-Serif" font-size="10.00">FoundationEntities.cpp</text>
</a>
</g>
</g>
<!-- Node2&#45;&gt;Node9 -->
<g id="edge8" class="edge">
<title>Node2&#45;&gt;Node9</title>
<path fill="none" stroke="#63b8ff" d="M1821.2,-173.59C2021.55,-173.36 2635.48,-169.2 3142.5,-129 3145.42,-128.77 3148.41,-128.5 3151.43,-128.21"/>
<polygon fill="#63b8ff" stroke="#63b8ff" points="1821.12,-170.09 1811.13,-173.59 1821.13,-177.09 1821.12,-170.09"/>
</g>
<!-- Node10 -->
<g id="node10" class="node">
<title>Node10</title>
<g id="a_node10"><a xlink:href="_guild_entities_8cpp.html" target="_top" xlink:title=" ">
<polygon fill="white" stroke="#666666" points="2809,-129 2718,-129 2718,-110 2809,-110 2809,-129"/>
<text text-anchor="middle" x="2763.5" y="-117" font-family="Helvetica,sans-Serif" font-size="10.00">GuildEntities.cpp</text>
</a>
</g>
</g>
<!-- Node2&#45;&gt;Node10 -->
<g id="edge9" class="edge">
<title>Node2&#45;&gt;Node10</title>
<path fill="none" stroke="#63b8ff" d="M1821.54,-172.9C1977.64,-170.95 2377.38,-162.77 2709.5,-129 2712.24,-128.72 2715.05,-128.4 2717.88,-128.04"/>
<polygon fill="#63b8ff" stroke="#63b8ff" points="1821.13,-169.4 1811.17,-173.02 1821.21,-176.4 1821.13,-169.4"/>
</g>
<!-- Node11 -->
<g id="node11" class="node">
<title>Node11</title>
<g id="a_node11"><a xlink:href="_guild_member_entities_8cpp.html" target="_top" xlink:title=" ">
<polygon fill="white" stroke="#666666" points="2953.5,-129 2827.5,-129 2827.5,-110 2953.5,-110 2953.5,-129"/>
<text text-anchor="middle" x="2890.5" y="-117" font-family="Helvetica,sans-Serif" font-size="10.00">GuildMemberEntities.cpp</text>
</a>
</g>
</g>
<!-- Node2&#45;&gt;Node11 -->
<g id="edge10" class="edge">
<title>Node2&#45;&gt;Node11</title>
<path fill="none" stroke="#63b8ff" d="M1821.28,-172.46C1989.12,-169.47 2442.12,-159.04 2818.5,-129 2821.39,-128.77 2824.33,-128.51 2827.31,-128.23"/>
<polygon fill="#63b8ff" stroke="#63b8ff" points="1821.05,-168.97 1811.11,-172.64 1821.17,-175.96 1821.05,-168.97"/>
</g>
<!-- Node12 -->
<g id="node12" class="node">
<title>Node12</title>
<g id="a_node12"><a xlink:href="_guild_scheduled_event_entities_8cpp.html" target="_top" xlink:title=" ">
<polygon fill="white" stroke="#666666" points="3133,-129 2972,-129 2972,-110 3133,-110 3133,-129"/>
<text text-anchor="middle" x="3052.5" y="-117" font-family="Helvetica,sans-Serif" font-size="10.00">GuildScheduledEventEntities.cpp</text>
</a>
</g>
</g>
<!-- Node2&#45;&gt;Node12 -->
<g id="edge11" class="edge">
<title>Node2&#45;&gt;Node12</title>
<path fill="none" stroke="#63b8ff" d="M1821.43,-172.38C2004.35,-169.03 2528.02,-157.5 2962.5,-129 2965.48,-128.8 2968.51,-128.59 2971.56,-128.36"/>
<polygon fill="#63b8ff" stroke="#63b8ff" points="1821.1,-168.89 1811.16,-172.57 1821.23,-175.89 1821.1,-168.89"/>
</g>
<!-- Node13 -->
<g id="node13" class="node">
<title>Node13</title>
<g id="a_node13"><a xlink:href="_https_client_8cpp.html" target="_top" xlink:title=" ">
<polygon fill="white" stroke="#666666" points="343,-129 260,-129 260,-110 343,-110 343,-129"/>
<text text-anchor="middle" x="301.5" y="-117" font-family="Helvetica,sans-Serif" font-size="10.00">HttpsClient.cpp</text>
</a>
</g>
</g>
<!-- Node2&#45;&gt;Node13 -->
<g id="edge12" class="edge">
<title>Node2&#45;&gt;Node13</title>
<path fill="none" stroke="#63b8ff" d="M1687.96,-165.35C1686.46,-165.22 1684.97,-165.11 1683.5,-165 1093.31,-121.78 941.54,-185.78 352.5,-129 349.46,-128.71 346.33,-128.34 343.19,-127.93"/>
<polygon fill="#63b8ff" stroke="#63b8ff" points="1687.69,-168.84 1697.96,-166.26 1688.32,-161.87 1687.69,-168.84"/>
</g>
<!-- Node14 -->
<g id="node14" class="node">
<title>Node14</title>
<g id="a_node14"><a xlink:href="_input_events_8cpp.html" target="_top" xlink:title=" ">
<polygon fill="white" stroke="#666666" points="3371.5,-129 3285.5,-129 3285.5,-110 3371.5,-110 3371.5,-129"/>
<text text-anchor="middle" x="3328.5" y="-117" font-family="Helvetica,sans-Serif" font-size="10.00">InputEvents.cpp</text>
</a>
</g>
</g>
<!-- Node2&#45;&gt;Node14 -->
<g id="edge13" class="edge">
<title>Node2&#45;&gt;Node14</title>
<path fill="none" stroke="#63b8ff" d="M1821.46,-172.73C2076.59,-169.6 2987.92,-156.68 3276.5,-129 3279.41,-128.72 3282.41,-128.38 3285.43,-127.99"/>
<polygon fill="#63b8ff" stroke="#63b8ff" points="1821.19,-169.23 1811.23,-172.85 1821.27,-176.23 1821.19,-169.23"/>
</g>
<!-- Node15 -->
<g id="node15" class="node">
<title>Node15</title>
<g id="a_node15"><a xlink:href="_interaction_entities_8cpp.html" target="_top" xlink:title=" ">
<polygon fill="white" stroke="#666666" points="242,-129 129,-129 129,-110 242,-110 242,-129"/>
<text text-anchor="middle" x="185.5" y="-117" font-family="Helvetica,sans-Serif" font-size="10.00">InteractionEntities.cpp</text>
</a>
</g>
</g>
<!-- Node2&#45;&gt;Node15 -->
<g id="edge14" class="edge">
<title>Node2&#45;&gt;Node15</title>
<path fill="none" stroke="#63b8ff" d="M1687.96,-165.34C1686.46,-165.22 1684.97,-165.11 1683.5,-165 1048.07,-119.08 885.67,-178.37 250.5,-129 247.78,-128.79 244.99,-128.54 242.18,-128.27"/>
<polygon fill="#63b8ff" stroke="#63b8ff" points="1687.69,-168.83 1697.96,-166.25 1688.32,-161.86 1687.69,-168.83"/>
</g>
<!-- Node16 -->
<g id="node16" class="node">
<title>Node16</title>
<g id="a_node16"><a xlink:href="_message_entities_8cpp.html" target="_top" xlink:title=" ">
<polygon fill="white" stroke="#666666" points="469.5,-129 361.5,-129 361.5,-110 469.5,-110 469.5,-129"/>
<text text-anchor="middle" x="415.5" y="-117" font-family="Helvetica,sans-Serif" font-size="10.00">MessageEntities.cpp</text>
</a>
</g>
</g>
<!-- Node2&#45;&gt;Node16 -->
<g id="edge15" class="edge">
<title>Node2&#45;&gt;Node16</title>
<path fill="none" stroke="#63b8ff" d="M1687.95,-165.35C1686.46,-165.23 1684.97,-165.11 1683.5,-165 1149.19,-125.12 1012.49,-172.88 478.5,-129 475.64,-128.76 472.71,-128.49 469.76,-128.19"/>
<polygon fill="#63b8ff" stroke="#63b8ff" points="1687.69,-168.84 1697.96,-166.27 1688.32,-161.87 1687.69,-168.84"/>
</g>
<!-- Node17 -->
<g id="node17" class="node">
<title>Node17</title>
<g id="a_node17"><a xlink:href="_reaction_entities_8cpp.html" target="_top" xlink:title=" ">
<polygon fill="white" stroke="#666666" points="595,-129 488,-129 488,-110 595,-110 595,-129"/>
<text text-anchor="middle" x="541.5" y="-117" font-family="Helvetica,sans-Serif" font-size="10.00">ReactionEntities.cpp</text>
</a>
</g>
</g>
<!-- Node2&#45;&gt;Node17 -->
<g id="edge16" class="edge">
<title>Node2&#45;&gt;Node17</title>
<path fill="none" stroke="#63b8ff" d="M1687.95,-165.36C1686.46,-165.23 1684.97,-165.11 1683.5,-165 1205.07,-128.45 1082.64,-169.13 604.5,-129 601.42,-128.74 598.26,-128.44 595.08,-128.1"/>
<polygon fill="#63b8ff" stroke="#63b8ff" points="1687.68,-168.85 1697.96,-166.29 1688.33,-161.88 1687.68,-168.85"/>
</g>
<!-- Node18 -->
<g id="node18" class="node">
<title>Node18</title>
<g id="a_node18"><a xlink:href="_role_entities_8cpp.html" target="_top" xlink:title=" ">
<polygon fill="white" stroke="#666666" points="701.5,-129 613.5,-129 613.5,-110 701.5,-110 701.5,-129"/>
<text text-anchor="middle" x="657.5" y="-117" font-family="Helvetica,sans-Serif" font-size="10.00">RoleEntities.cpp</text>
</a>
</g>
</g>
<!-- Node2&#45;&gt;Node18 -->
<g id="edge17" class="edge">
<title>Node2&#45;&gt;Node18</title>
<path fill="none" stroke="#63b8ff" d="M1687.95,-165.37C1686.46,-165.24 1684.97,-165.11 1683.5,-165 1252.08,-131.25 1141.16,-171.34 710.5,-129 707.62,-128.72 704.67,-128.38 701.69,-128"/>
<polygon fill="#63b8ff" stroke="#63b8ff" points="1687.68,-168.86 1697.96,-166.31 1688.33,-161.89 1687.68,-168.86"/>
</g>
<!-- Node19 -->
<g id="node19" class="node">
<title>Node19</title>
<g id="a_node19"><a xlink:href="_song_a_p_i_8cpp.html" target="_top" xlink:title=" ">
<polygon fill="white" stroke="#666666" points="793.5,-129 719.5,-129 719.5,-110 793.5,-110 793.5,-129"/>
<text text-anchor="middle" x="756.5" y="-117" font-family="Helvetica,sans-Serif" font-size="10.00">SongAPI.cpp</text>
</a>
</g>
</g>
<!-- Node2&#45;&gt;Node19 -->
<g id="edge18" class="edge">
<title>Node2&#45;&gt;Node19</title>
<path fill="none" stroke="#63b8ff" d="M1687.95,-165.37C1686.46,-165.24 1684.97,-165.12 1683.5,-165 1292.87,-133.68 1191.94,-172.71 802.5,-129 799.59,-128.67 796.6,-128.27 793.59,-127.82"/>
<polygon fill="#63b8ff" stroke="#63b8ff" points="1687.67,-168.86 1697.96,-166.33 1688.34,-161.9 1687.67,-168.86"/>
</g>
<!-- Node20 -->
<g id="node20" class="node">
<title>Node20</title>
<g id="a_node20"><a xlink:href="_sound_cloud_a_p_i_8cpp.html" target="_top" xlink:title=" ">
<polygon fill="white" stroke="#666666" points="915.5,-129 811.5,-129 811.5,-110 915.5,-110 915.5,-129"/>
<text text-anchor="middle" x="863.5" y="-117" font-family="Helvetica,sans-Serif" font-size="10.00">SoundCloudAPI.cpp</text>
</a>
</g>
</g>
<!-- Node2&#45;&gt;Node20 -->
<g id="edge19" class="edge">
<title>Node2&#45;&gt;Node20</title>
<path fill="none" stroke="#63b8ff" d="M1687.95,-165.39C1686.45,-165.25 1684.97,-165.12 1683.5,-165 1346.96,-136.91 1260.76,-160.34 924.5,-129 921.63,-128.73 918.68,-128.43 915.71,-128.09"/>
<polygon fill="#63b8ff" stroke="#63b8ff" points="1687.66,-168.88 1697.96,-166.36 1688.34,-161.91 1687.66,-168.88"/>
</g>
<!-- Node21 -->
<g id="node21" class="node">
<title>Node21</title>
<g id="a_node21"><a xlink:href="_stage_instance_entities_8cpp.html" target="_top" xlink:title=" ">
<polygon fill="white" stroke="#666666" points="1065,-129 934,-129 934,-110 1065,-110 1065,-129"/>
<text text-anchor="middle" x="999.5" y="-117" font-family="Helvetica,sans-Serif" font-size="10.00">StageInstanceEntities.cpp</text>
</a>
</g>
</g>
<!-- Node2&#45;&gt;Node21 -->
<g id="edge20" class="edge">
<title>Node2&#45;&gt;Node21</title>
<path fill="none" stroke="#63b8ff" d="M1687.95,-165.41C1686.45,-165.27 1684.97,-165.13 1683.5,-165 1412.99,-140.85 1344.06,-152.5 1073.5,-129 1070.79,-128.76 1068.03,-128.51 1065.25,-128.24"/>
<polygon fill="#63b8ff" stroke="#63b8ff" points="1687.65,-168.9 1697.95,-166.42 1688.35,-161.93 1687.65,-168.9"/>
</g>
<!-- Node22 -->
<g id="node22" class="node">
<title>Node22</title>
<g id="a_node22"><a xlink:href="_sticker_entities_8cpp.html" target="_top" xlink:title=" ">
<polygon fill="white" stroke="#666666" points="1182,-129 1083,-129 1083,-110 1182,-110 1182,-129"/>
<text text-anchor="middle" x="1132.5" y="-117" font-family="Helvetica,sans-Serif" font-size="10.00">StickerEntities.cpp</text>
</a>
</g>
</g>
<!-- Node2&#45;&gt;Node22 -->
<g id="edge21" class="edge">
<title>Node2&#45;&gt;Node22</title>
<path fill="none" stroke="#63b8ff" d="M1687.95,-165.44C1686.45,-165.29 1684.97,-165.14 1683.5,-165 1465.26,-143.96 1409.47,-152.65 1191.5,-129 1188.41,-128.67 1185.24,-128.29 1182.04,-127.89"/>
<polygon fill="#63b8ff" stroke="#63b8ff" points="1687.63,-168.93 1697.94,-166.49 1688.37,-161.96 1687.63,-168.93"/>
</g>
<!-- Node23 -->
<g id="node23" class="node">
<title>Node23</title>
<g id="a_node23"><a xlink:href="_thread_entities_8cpp.html" target="_top" xlink:title=" ">
<polygon fill="white" stroke="#666666" points="1298.5,-129 1200.5,-129 1200.5,-110 1298.5,-110 1298.5,-129"/>
<text text-anchor="middle" x="1249.5" y="-117" font-family="Helvetica,sans-Serif" font-size="10.00">ThreadEntities.cpp</text>
</a>
</g>
</g>
<!-- Node2&#45;&gt;Node23 -->
<g id="edge22" class="edge">
<title>Node2&#45;&gt;Node23</title>
<path fill="none" stroke="#63b8ff" d="M1687.94,-165.48C1686.45,-165.32 1684.97,-165.16 1683.5,-165 1516.59,-147.02 1474.16,-149.18 1307.5,-129 1304.57,-128.65 1301.56,-128.26 1298.52,-127.86"/>
<polygon fill="#63b8ff" stroke="#63b8ff" points="1687.6,-168.97 1697.93,-166.61 1688.39,-162.01 1687.6,-168.97"/>
</g>
<!-- Node24 -->
<g id="node24" class="node">
<title>Node24</title>
<g id="a_node24"><a xlink:href="_to_entity_8hpp.html" target="_top" xlink:title=" ">
<polygon fill="white" stroke="#666666" points="1388,-129 1317,-129 1317,-110 1388,-110 1388,-129"/>
<text text-anchor="middle" x="1352.5" y="-117" font-family="Helvetica,sans-Serif" font-size="10.00">ToEntity.hpp</text>
</a>
</g>
</g>
<!-- Node2&#45;&gt;Node24 -->
<g id="edge23" class="edge">
<title>Node2&#45;&gt;Node24</title>
<path fill="none" stroke="#63b8ff" d="M1687.77,-165.45C1592.14,-153.88 1424.51,-133.44 1396.5,-129 1393.73,-128.56 1390.88,-128.08 1388.01,-127.57"/>
<polygon fill="#63b8ff" stroke="#63b8ff" points="1687.57,-168.95 1697.92,-166.68 1688.42,-162 1687.57,-168.95"/>
</g>
<!-- Node27 -->
<g id="node27" class="node">
<title>Node27</title>
<g id="a_node27"><a xlink:href="_user_entities_8cpp.html" target="_top" xlink:title=" ">
<polygon fill="white" stroke="#666666" points="1495,-129 1406,-129 1406,-110 1495,-110 1495,-129"/>
<text text-anchor="middle" x="1450.5" y="-117" font-family="Helvetica,sans-Serif" font-size="10.00">UserEntities.cpp</text>
</a>
</g>
</g>
<!-- Node2&#45;&gt;Node27 -->
<g id="edge26" class="edge">
<title>Node2&#45;&gt;Node27</title>
<path fill="none" stroke="#63b8ff" d="M1695.8,-163.27C1637.19,-153.05 1548.4,-137.57 1495.26,-128.3"/>
<polygon fill="#63b8ff" stroke="#63b8ff" points="1695.2,-166.72 1705.66,-164.98 1696.41,-159.82 1695.2,-166.72"/>
</g>
<!-- Node28 -->
<g id="node28" class="node">
<title>Node28</title>
<g id="a_node28"><a xlink:href="_utilities_8cpp.html" target="_top" xlink:title=" ">
<polygon fill="white" stroke="#666666" points="3457.5,-129 3389.5,-129 3389.5,-110 3457.5,-110 3457.5,-129"/>
<text text-anchor="middle" x="3423.5" y="-117" font-family="Helvetica,sans-Serif" font-size="10.00">Utilities.cpp</text>
</a>
</g>
</g>
<!-- Node2&#45;&gt;Node28 -->
<g id="edge27" class="edge">
<title>Node2&#45;&gt;Node28</title>
<path fill="none" stroke="#63b8ff" d="M1821.59,-173.17C2087.9,-171.61 3071.01,-163.58 3380.5,-129 3383.37,-128.68 3386.34,-128.27 3389.31,-127.8"/>
<polygon fill="#63b8ff" stroke="#63b8ff" points="1821.28,-169.67 1811.3,-173.22 1821.32,-176.67 1821.28,-169.67"/>
</g>
<!-- Node29 -->
<g id="node29" class="node">
<title>Node29</title>
<g id="a_node29"><a xlink:href="_voice_connection_8cpp.html" target="_top" xlink:title=" ">
<polygon fill="white" stroke="#666666" points="1622,-129 1513,-129 1513,-110 1622,-110 1622,-129"/>
<text text-anchor="middle" x="1567.5" y="-117" font-family="Helvetica,sans-Serif" font-size="10.00">VoiceConnection.cpp</text>
</a>
</g>
</g>
<!-- Node2&#45;&gt;Node29 -->
<g id="edge28" class="edge">
<title>Node2&#45;&gt;Node29</title>
<path fill="none" stroke="#63b8ff" d="M1714.57,-162.18C1679.6,-152.27 1629.54,-138.08 1597.78,-129.08"/>
<polygon fill="#63b8ff" stroke="#63b8ff" points="1713.88,-165.63 1724.46,-164.98 1715.79,-158.89 1713.88,-165.63"/>
</g>
<!-- Node2&#45;&gt;Node30 -->
<g id="edge29" class="edge">
<title>Node2&#45;&gt;Node30</title>
<path fill="none" stroke="#63b8ff" d="M1687.54,-172.62C1420.62,-168.94 431.82,-153.92 119.5,-129 116.82,-128.79 114.08,-128.54 111.31,-128.26"/>
<polygon fill="#63b8ff" stroke="#63b8ff" points="1687.8,-176.12 1697.85,-172.76 1687.9,-169.12 1687.8,-176.12"/>
</g>
<!-- Node31 -->
<g id="node31" class="node">
<title>Node31</title>
<g id="a_node31"><a xlink:href="_web_socket_client_8cpp.html" target="_top" xlink:title=" ">
<polygon fill="white" stroke="#666666" points="1751,-129 1640,-129 1640,-110 1751,-110 1751,-129"/>
<text text-anchor="middle" x="1695.5" y="-117" font-family="Helvetica,sans-Serif" font-size="10.00">WebSocketClient.cpp</text>
</a>
</g>
</g>
<!-- Node2&#45;&gt;Node31 -->
<g id="edge30" class="edge">
<title>Node2&#45;&gt;Node31</title>
<path fill="none" stroke="#63b8ff" d="M1737.3,-158.04C1726.83,-148.64 1713.85,-136.98 1705.15,-129.17"/>
<polygon fill="#63b8ff" stroke="#63b8ff" points="1735.24,-160.91 1745.02,-164.98 1739.92,-155.7 1735.24,-160.91"/>
</g>
<!-- Node32 -->
<g id="node32" class="node">
<title>Node32</title>
<g id="a_node32"><a xlink:href="_you_tube_a_p_i_8cpp.html" target="_top" xlink:title=" ">
<polygon fill="white" stroke="#666666" points="1858,-129 1769,-129 1769,-110 1858,-110 1858,-129"/>
<text text-anchor="middle" x="1813.5" y="-117" font-family="Helvetica,sans-Serif" font-size="10.00">YouTubeAPI.cpp</text>
</a>
</g>
</g>
<!-- Node2&#45;&gt;Node32 -->
<g id="edge31" class="edge">
<title>Node2&#45;&gt;Node32</title>
<path fill="none" stroke="#63b8ff" d="M1771.7,-158.04C1782.17,-148.64 1795.15,-136.98 1803.85,-129.17"/>
<polygon fill="#63b8ff" stroke="#63b8ff" points="1769.08,-155.7 1763.98,-164.98 1773.76,-160.91 1769.08,-155.7"/>
</g>
<!-- Node25 -->
<g id="node25" class="node">
<title>Node25</title>
<g id="a_node25"><a xlink:href="_index_8hpp.html" target="_top" xlink:title=" ">
<polygon fill="white" stroke="#666666" points="1382,-74 1323,-74 1323,-55 1382,-55 1382,-74"/>
<text text-anchor="middle" x="1352.5" y="-62" font-family="Helvetica,sans-Serif" font-size="10.00">Index.hpp</text>
</a>
</g>
</g>
<!-- Node24&#45;&gt;Node25 -->
<g id="edge24" class="edge">
<title>Node24&#45;&gt;Node25</title>
<path fill="none" stroke="#63b8ff" d="M1352.5,-99.66C1352.5,-90.93 1352.5,-80.99 1352.5,-74.09"/>
<polygon fill="#63b8ff" stroke="#63b8ff" points="1349,-99.75 1352.5,-109.75 1356,-99.75 1349,-99.75"/>
</g>
<!-- Node26 -->
<g id="node26" class="node">
<title>Node26</title>
<g id="a_node26"><a xlink:href="_dll_main_8cpp.html" target="_top" xlink:title=" ">
<polygon fill="white" stroke="#666666" points="1386.5,-19 1318.5,-19 1318.5,0 1386.5,0 1386.5,-19"/>
<text text-anchor="middle" x="1352.5" y="-7" font-family="Helvetica,sans-Serif" font-size="10.00">DllMain.cpp</text>
</a>
</g>
</g>
<!-- Node25&#45;&gt;Node26 -->
<g id="edge25" class="edge">
<title>Node25&#45;&gt;Node26</title>
<path fill="none" stroke="#63b8ff" d="M1352.5,-44.66C1352.5,-35.93 1352.5,-25.99 1352.5,-19.09"/>
<polygon fill="#63b8ff" stroke="#63b8ff" points="1349,-44.75 1352.5,-54.75 1356,-44.75 1349,-44.75"/>
</g>
<!-- Node33&#45;&gt;Node2 -->
<g id="edge33" class="edge">
<title>Node33&#45;&gt;Node2</title>
<path fill="none" stroke="#63b8ff" d="M2032.21,-271.63C1968.81,-249.68 1834.66,-203.25 1779.25,-184.07"/>
<polygon fill="#63b8ff" stroke="#63b8ff" points="2031.16,-274.97 2041.76,-274.94 2033.45,-268.36 2031.16,-274.97"/>
</g>
<!-- Node33&#45;&gt;Node9 -->
<g id="edge34" class="edge">
<title>Node33&#45;&gt;Node9</title>
<path fill="none" stroke="#63b8ff" d="M2133.22,-273.99C2338.49,-244.71 2958.4,-156.31 3151.46,-128.78"/>
<polygon fill="#63b8ff" stroke="#63b8ff" points="2132.59,-270.54 2123.18,-275.42 2133.58,-277.47 2132.59,-270.54"/>
</g>
<!-- Node33&#45;&gt;Node15 -->
<g id="edge40" class="edge">
<title>Node33&#45;&gt;Node15</title>
<path fill="none" stroke="#63b8ff" d="M1999.63,-275.93C1818.02,-255.57 1300.28,-198.92 868.5,-165 594.21,-143.45 524.41,-154.85 250.5,-129 247.78,-128.74 245,-128.46 242.19,-128.16"/>
<polygon fill="#63b8ff" stroke="#63b8ff" points="1999.5,-279.44 2009.83,-277.07 2000.28,-272.48 1999.5,-279.44"/>
</g>
<!-- Node33&#45;&gt;Node28 -->
<g id="edge41" class="edge">
<title>Node33&#45;&gt;Node28</title>
<path fill="none" stroke="#63b8ff" d="M2133.37,-283.29C2369.39,-282.24 3155.04,-275.99 3261.5,-239 3329.64,-215.33 3393.5,-152.46 3415.46,-129.26"/>
<polygon fill="#63b8ff" stroke="#63b8ff" points="2133.19,-279.79 2123.21,-283.34 2133.22,-286.79 2133.19,-279.79"/>
</g>
<!-- Node34 -->
<g id="node34" class="node">
<title>Node34</title>
<g id="a_node34"><a xlink:href="_input_events_8hpp.html" target="_top" xlink:title=" ">
<polygon fill="white" stroke="#666666" points="3252.5,-239 3166.5,-239 3166.5,-220 3252.5,-220 3252.5,-239"/>
<text text-anchor="middle" x="3209.5" y="-227" font-family="Helvetica,sans-Serif" font-size="10.00">InputEvents.hpp</text>
</a>
</g>
</g>
<!-- Node33&#45;&gt;Node34 -->
<g id="edge35" class="edge">
<title>Node33&#45;&gt;Node34</title>
<path fill="none" stroke="#63b8ff" d="M2133.18,-280.41C2343.98,-270.63 2992.31,-240.57 3166.2,-232.51"/>
<polygon fill="#63b8ff" stroke="#63b8ff" points="2133.01,-276.91 2123.18,-280.87 2133.33,-283.9 2133.01,-276.91"/>
</g>
<!-- Node34&#45;&gt;Node2 -->
<g id="edge36" class="edge">
<title>Node34&#45;&gt;Node2</title>
<path fill="none" stroke="#63b8ff" d="M3156.03,-226.55C2928.81,-218.28 2044.33,-186.06 1811.13,-177.56"/>
<polygon fill="#63b8ff" stroke="#63b8ff" points="3156.23,-230.06 3166.35,-226.93 3156.48,-223.07 3156.23,-230.06"/>
</g>
<!-- Node34&#45;&gt;Node9 -->
<g id="edge37" class="edge">
<title>Node34&#45;&gt;Node9</title>
<path fill="none" stroke="#63b8ff" d="M3209.5,-209.48C3209.5,-185.84 3209.5,-146.5 3209.5,-129.16"/>
<polygon fill="#63b8ff" stroke="#63b8ff" points="3206,-209.66 3209.5,-219.66 3213,-209.66 3206,-209.66"/>
</g>
<!-- Node34&#45;&gt;Node14 -->
<g id="edge38" class="edge">
<title>Node34&#45;&gt;Node14</title>
<path fill="none" stroke="#63b8ff" d="M3226.68,-212.91C3252.11,-189.83 3298.9,-147.37 3318.96,-129.16"/>
<polygon fill="#63b8ff" stroke="#63b8ff" points="3224.29,-210.35 3219.24,-219.66 3229,-215.53 3224.29,-210.35"/>
</g>
<!-- Node34&#45;&gt;Node28 -->
<g id="edge39" class="edge">
<title>Node34&#45;&gt;Node28</title>
<path fill="none" stroke="#63b8ff" d="M3235.69,-215.28C3280.18,-192.83 3369.34,-147.83 3406.56,-129.05"/>
<polygon fill="#63b8ff" stroke="#63b8ff" points="3234,-212.21 3226.65,-219.84 3237.16,-218.46 3234,-212.21"/>
</g>
</g>
</svg>
