<?xml version="1.0" encoding="UTF-8" standalone="no"?>
<!DOCTYPE svg PUBLIC "-//W3C//DTD SVG 1.1//EN"
 "http://www.w3.org/Graphics/SVG/1.1/DTD/svg11.dtd">
<!-- Generated by graphviz version 5.0.0 (20220707.1540)
 -->
<!-- Title: WebSocketClient.hpp Pages: 1 -->
<svg width="3467pt" height="522pt"
 viewBox="0.00 0.00 3467.00 522.00" xmlns="http://www.w3.org/2000/svg" xmlns:xlink="http://www.w3.org/1999/xlink">
<g id="graph0" class="graph" transform="scale(1 1) rotate(0) translate(4 518)">
<title>WebSocketClient.hpp</title>
<!-- Node1 -->
<g id="node1" class="node">
<title>Node1</title>
<g id="a_node1"><a xlink:title=" ">
<polygon fill="#999999" stroke="#666666" points="2126.5,-514 2015.5,-514 2015.5,-495 2126.5,-495 2126.5,-514"/>
<text text-anchor="middle" x="2071" y="-502" font-family="Helvetica,sans-Serif" font-size="10.00">WebSocketClient.hpp</text>
</a>
</g>
</g>
<!-- Node2 -->
<g id="node2" class="node">
<title>Node2</title>
<g id="a_node2"><a xlink:href="_discord_core_client_8hpp.html" target="_top" xlink:title=" ">
<polygon fill="white" stroke="#666666" points="2200.5,-184 2087.5,-184 2087.5,-165 2200.5,-165 2200.5,-184"/>
<text text-anchor="middle" x="2144" y="-172" font-family="Helvetica,sans-Serif" font-size="10.00">DiscordCoreClient.hpp</text>
</a>
</g>
</g>
<!-- Node1&#45;&gt;Node2 -->
<g id="edge1" class="edge">
<title>Node1&#45;&gt;Node2</title>
<path fill="none" stroke="#63b8ff" d="M2054.92,-487.38C2010.9,-441.29 1896.08,-306.75 1964,-220 1979.18,-200.61 2040.51,-188.5 2087.4,-181.9"/>
<polygon fill="#63b8ff" stroke="#63b8ff" points="2052.55,-489.96 2062.03,-494.69 2057.57,-485.08 2052.55,-489.96"/>
</g>
<!-- Node31 -->
<g id="node31" class="node">
<title>Node31</title>
<g id="a_node31"><a xlink:href="_web_socket_client_8cpp.html" target="_top" xlink:title=" ">
<polygon fill="white" stroke="#666666" points="3129.5,-129 3018.5,-129 3018.5,-110 3129.5,-110 3129.5,-129"/>
<text text-anchor="middle" x="3074" y="-117" font-family="Helvetica,sans-Serif" font-size="10.00">WebSocketClient.cpp</text>
</a>
</g>
</g>
<!-- Node1&#45;&gt;Node31 -->
<g id="edge79" class="edge">
<title>Node1&#45;&gt;Node31</title>
<path fill="none" stroke="#63b8ff" d="M2137.06,-503.72C2368.53,-503.62 3129,-495.68 3129,-395.5 3129,-395.5 3129,-395.5 3129,-338.5 3129,-254.58 3090.21,-157.86 3077.78,-129.03"/>
<polygon fill="#63b8ff" stroke="#63b8ff" points="2136.76,-500.22 2126.76,-503.72 2136.76,-507.22 2136.76,-500.22"/>
</g>
<!-- Node33 -->
<g id="node33" class="node">
<title>Node33</title>
<g id="a_node33"><a xlink:href="_user_entities_8hpp.html" target="_top" xlink:title=" ">
<polygon fill="white" stroke="#666666" points="2388.5,-459 2299.5,-459 2299.5,-440 2388.5,-440 2388.5,-459"/>
<text text-anchor="middle" x="2344" y="-447" font-family="Helvetica,sans-Serif" font-size="10.00">UserEntities.hpp</text>
</a>
</g>
</g>
<!-- Node1&#45;&gt;Node33 -->
<g id="edge32" class="edge">
<title>Node1&#45;&gt;Node33</title>
<path fill="none" stroke="#63b8ff" d="M2124.75,-493.07C2175.93,-483.13 2252.04,-468.35 2299.79,-459.08"/>
<polygon fill="#63b8ff" stroke="#63b8ff" points="2124.01,-489.64 2114.86,-494.98 2125.35,-496.51 2124.01,-489.64"/>
</g>
<!-- Node40 -->
<g id="node40" class="node">
<title>Node40</title>
<g id="a_node40"><a xlink:href="_voice_connection_8hpp.html" target="_top" xlink:title=" ">
<polygon fill="white" stroke="#666666" points="1090.5,-349 981.5,-349 981.5,-330 1090.5,-330 1090.5,-349"/>
<text text-anchor="middle" x="1036" y="-337" font-family="Helvetica,sans-Serif" font-size="10.00">VoiceConnection.hpp</text>
</a>
</g>
</g>
<!-- Node1&#45;&gt;Node40 -->
<g id="edge71" class="edge">
<title>Node1&#45;&gt;Node40</title>
<path fill="none" stroke="#63b8ff" d="M2005.31,-493.62C1946.12,-484.69 1856.71,-471.12 1779,-459 1519.91,-418.6 1210.27,-368.69 1088.68,-349.03"/>
<polygon fill="#63b8ff" stroke="#63b8ff" points="2004.87,-497.09 2015.28,-495.13 2005.91,-490.17 2004.87,-497.09"/>
</g>
<!-- Node3 -->
<g id="node3" class="node">
<title>Node3</title>
<g id="a_node3"><a xlink:href="_application_command_entities_8cpp.html" target="_top" xlink:title=" ">
<polygon fill="white" stroke="#666666" points="610.5,-129 449.5,-129 449.5,-110 610.5,-110 610.5,-129"/>
<text text-anchor="middle" x="530" y="-117" font-family="Helvetica,sans-Serif" font-size="10.00">ApplicationCommandEntities.cpp</text>
</a>
</g>
</g>
<!-- Node2&#45;&gt;Node3 -->
<g id="edge2" class="edge">
<title>Node2&#45;&gt;Node3</title>
<path fill="none" stroke="#63b8ff" d="M2077.06,-169.55C2048.41,-167.96 2014.57,-166.22 1984,-165 1378.05,-140.91 1225.33,-165.53 620,-129 617.02,-128.82 613.99,-128.62 610.93,-128.4"/>
<polygon fill="#63b8ff" stroke="#63b8ff" points="2077.19,-173.06 2087.37,-170.12 2077.58,-166.07 2077.19,-173.06"/>
</g>
<!-- Node4 -->
<g id="node4" class="node">
<title>Node4</title>
<g id="a_node4"><a xlink:href="_auto_moderation_entities_8cpp.html" target="_top" xlink:title=" ">
<polygon fill="white" stroke="#666666" points="2749.5,-129 2612.5,-129 2612.5,-110 2749.5,-110 2749.5,-129"/>
<text text-anchor="middle" x="2681" y="-117" font-family="Helvetica,sans-Serif" font-size="10.00">AutoModerationEntities.cpp</text>
</a>
</g>
</g>
<!-- Node2&#45;&gt;Node4 -->
<g id="edge3" class="edge">
<title>Node2&#45;&gt;Node4</title>
<path fill="none" stroke="#63b8ff" d="M2210.69,-167.33C2300.2,-158.99 2464.14,-143.48 2604,-129 2606.68,-128.72 2609.4,-128.44 2612.16,-128.15"/>
<polygon fill="#63b8ff" stroke="#63b8ff" points="2210.31,-163.85 2200.68,-168.27 2210.96,-170.82 2210.31,-163.85"/>
</g>
<!-- Node5 -->
<g id="node5" class="node">
<title>Node5</title>
<g id="a_node5"><a xlink:href="_channel_entities_8cpp.html" target="_top" xlink:title=" ">
<polygon fill="white" stroke="#666666" points="1080,-129 976,-129 976,-110 1080,-110 1080,-129"/>
<text text-anchor="middle" x="1028" y="-117" font-family="Helvetica,sans-Serif" font-size="10.00">ChannelEntities.cpp</text>
</a>
</g>
</g>
<!-- Node2&#45;&gt;Node5 -->
<g id="edge4" class="edge">
<title>Node2&#45;&gt;Node5</title>
<path fill="none" stroke="#63b8ff" d="M2077.45,-165.37C2075.96,-165.24 2074.47,-165.11 2073,-165 1637.14,-130.99 1525.55,-166.74 1090,-129 1086.75,-128.72 1083.42,-128.39 1080.05,-128.02"/>
<polygon fill="#63b8ff" stroke="#63b8ff" points="2077.18,-168.86 2087.46,-166.3 2077.83,-161.89 2077.18,-168.86"/>
</g>
<!-- Node6 -->
<g id="node6" class="node">
<title>Node6</title>
<g id="a_node6"><a xlink:href="_command_controller_8cpp.html" target="_top" xlink:title=" ">
<polygon fill="white" stroke="#666666" points="1219.5,-129 1098.5,-129 1098.5,-110 1219.5,-110 1219.5,-129"/>
<text text-anchor="middle" x="1159" y="-117" font-family="Helvetica,sans-Serif" font-size="10.00">CommandController.cpp</text>
</a>
</g>
</g>
<!-- Node2&#45;&gt;Node6 -->
<g id="edge5" class="edge">
<title>Node2&#45;&gt;Node6</title>
<path fill="none" stroke="#63b8ff" d="M2077.45,-165.38C2075.96,-165.25 2074.47,-165.12 2073,-165 1698.78,-134.66 1603.2,-159.65 1229,-129 1225.95,-128.75 1222.83,-128.47 1219.68,-128.16"/>
<polygon fill="#63b8ff" stroke="#63b8ff" points="2077.17,-168.87 2087.46,-166.34 2077.84,-161.9 2077.17,-168.87"/>
</g>
<!-- Node7 -->
<g id="node7" class="node">
<title>Node7</title>
<g id="a_node7"><a xlink:href="_discord_core_client_8cpp.html" target="_top" xlink:title=" ">
<polygon fill="white" stroke="#666666" points="1350.5,-129 1237.5,-129 1237.5,-110 1350.5,-110 1350.5,-129"/>
<text text-anchor="middle" x="1294" y="-117" font-family="Helvetica,sans-Serif" font-size="10.00">DiscordCoreClient.cpp</text>
</a>
</g>
</g>
<!-- Node2&#45;&gt;Node7 -->
<g id="edge6" class="edge">
<title>Node2&#45;&gt;Node7</title>
<path fill="none" stroke="#63b8ff" d="M2077.45,-165.39C2075.95,-165.26 2074.47,-165.12 2073,-165 1756.85,-138.13 1676.03,-157.29 1360,-129 1357.01,-128.73 1353.94,-128.43 1350.85,-128.11"/>
<polygon fill="#63b8ff" stroke="#63b8ff" points="2077.16,-168.88 2087.45,-166.38 2077.84,-161.92 2077.16,-168.88"/>
</g>
<!-- Node8 -->
<g id="node8" class="node">
<title>Node8</title>
<g id="a_node8"><a xlink:href="_event_manager_8cpp.html" target="_top" xlink:title=" ">
<polygon fill="white" stroke="#666666" points="957.5,-129 860.5,-129 860.5,-110 957.5,-110 957.5,-129"/>
<text text-anchor="middle" x="909" y="-117" font-family="Helvetica,sans-Serif" font-size="10.00">EventManager.cpp</text>
</a>
</g>
</g>
<!-- Node2&#45;&gt;Node8 -->
<g id="edge7" class="edge">
<title>Node2&#45;&gt;Node8</title>
<path fill="none" stroke="#63b8ff" d="M2077.45,-165.36C2075.96,-165.23 2074.47,-165.11 2073,-165 1582.6,-127.73 1456.87,-172.73 967,-129 963.96,-128.73 960.83,-128.4 957.69,-128.04"/>
<polygon fill="#63b8ff" stroke="#63b8ff" points="2077.18,-168.85 2087.46,-166.28 2077.83,-161.88 2077.18,-168.85"/>
</g>
<!-- Node9 -->
<g id="node9" class="node">
<title>Node9</title>
<g id="a_node9"><a xlink:href="_foundation_entities_8cpp.html" target="_top" xlink:title=" ">
<polygon fill="white" stroke="#666666" points="3459,-129 3343,-129 3343,-110 3459,-110 3459,-129"/>
<text text-anchor="middle" x="3401" y="-117" font-family="Helvetica,sans-Serif" font-size="10.00">FoundationEntities.cpp</text>
</a>
</g>
</g>
<!-- Node2&#45;&gt;Node9 -->
<g id="edge8" class="edge">
<title>Node2&#45;&gt;Node9</title>
<path fill="none" stroke="#63b8ff" d="M2210.95,-173.08C2392.15,-171.49 2907.26,-163.98 3334,-129 3336.92,-128.76 3339.91,-128.49 3342.93,-128.19"/>
<polygon fill="#63b8ff" stroke="#63b8ff" points="2210.75,-169.58 2200.78,-173.16 2210.81,-176.58 2210.75,-169.58"/>
</g>
<!-- Node10 -->
<g id="node10" class="node">
<title>Node10</title>
<g id="a_node10"><a xlink:href="_guild_entities_8cpp.html" target="_top" xlink:title=" ">
<polygon fill="white" stroke="#666666" points="3238.5,-129 3147.5,-129 3147.5,-110 3238.5,-110 3238.5,-129"/>
<text text-anchor="middle" x="3193" y="-117" font-family="Helvetica,sans-Serif" font-size="10.00">GuildEntities.cpp</text>
</a>
</g>
</g>
<!-- Node2&#45;&gt;Node10 -->
<g id="edge9" class="edge">
<title>Node2&#45;&gt;Node10</title>
<path fill="none" stroke="#63b8ff" d="M2210.72,-173.08C2371.09,-171.51 2790.73,-164.09 3139,-129 3141.74,-128.72 3144.55,-128.4 3147.38,-128.05"/>
<polygon fill="#63b8ff" stroke="#63b8ff" points="2210.5,-169.58 2200.54,-173.17 2210.57,-176.58 2210.5,-169.58"/>
</g>
<!-- Node11 -->
<g id="node11" class="node">
<title>Node11</title>
<g id="a_node11"><a xlink:href="_guild_member_entities_8cpp.html" target="_top" xlink:title=" ">
<polygon fill="white" stroke="#666666" points="2894,-129 2768,-129 2768,-110 2894,-110 2894,-129"/>
<text text-anchor="middle" x="2831" y="-117" font-family="Helvetica,sans-Serif" font-size="10.00">GuildMemberEntities.cpp</text>
</a>
</g>
</g>
<!-- Node2&#45;&gt;Node11 -->
<g id="edge10" class="edge">
<title>Node2&#45;&gt;Node11</title>
<path fill="none" stroke="#63b8ff" d="M2211.11,-169.64C2324.25,-162.91 2560.07,-147.93 2759,-129 2761.88,-128.73 2764.83,-128.43 2767.8,-128.12"/>
<polygon fill="#63b8ff" stroke="#63b8ff" points="2210.66,-166.16 2200.88,-170.25 2211.07,-173.15 2210.66,-166.16"/>
</g>
<!-- Node12 -->
<g id="node12" class="node">
<title>Node12</title>
<g id="a_node12"><a xlink:href="_guild_scheduled_event_entities_8cpp.html" target="_top" xlink:title=" ">
<polygon fill="white" stroke="#666666" points="1529.5,-129 1368.5,-129 1368.5,-110 1529.5,-110 1529.5,-129"/>
<text text-anchor="middle" x="1449" y="-117" font-family="Helvetica,sans-Serif" font-size="10.00">GuildScheduledEventEntities.cpp</text>
</a>
</g>
</g>
<!-- Node2&#45;&gt;Node12 -->
<g id="edge11" class="edge">
<title>Node2&#45;&gt;Node12</title>
<path fill="none" stroke="#63b8ff" d="M2077.45,-165.43C2075.95,-165.28 2074.47,-165.14 2073,-165 1836.16,-142.85 1776.1,-148.18 1539,-129 1536.03,-128.76 1533,-128.51 1529.94,-128.25"/>
<polygon fill="#63b8ff" stroke="#63b8ff" points="2077.14,-168.91 2087.45,-166.46 2077.86,-161.95 2077.14,-168.91"/>
</g>
<!-- Node13 -->
<g id="node13" class="node">
<title>Node13</title>
<g id="a_node13"><a xlink:href="_https_client_8cpp.html" target="_top" xlink:title=" ">
<polygon fill="white" stroke="#666666" points="1630.5,-129 1547.5,-129 1547.5,-110 1630.5,-110 1630.5,-129"/>
<text text-anchor="middle" x="1589" y="-117" font-family="Helvetica,sans-Serif" font-size="10.00">HttpsClient.cpp</text>
</a>
</g>
</g>
<!-- Node2&#45;&gt;Node13 -->
<g id="edge12" class="edge">
<title>Node2&#45;&gt;Node13</title>
<path fill="none" stroke="#63b8ff" d="M2077.45,-165.46C2075.95,-165.3 2074.47,-165.15 2073,-165 1880.88,-145.52 1831.62,-152.89 1640,-129 1636.97,-128.62 1633.85,-128.2 1630.71,-127.74"/>
<polygon fill="#63b8ff" stroke="#63b8ff" points="2077.12,-168.94 2087.44,-166.54 2077.87,-161.98 2077.12,-168.94"/>
</g>
<!-- Node14 -->
<g id="node14" class="node">
<title>Node14</title>
<g id="a_node14"><a xlink:href="_input_events_8cpp.html" target="_top" xlink:title=" ">
<polygon fill="white" stroke="#666666" points="1735,-129 1649,-129 1649,-110 1735,-110 1735,-129"/>
<text text-anchor="middle" x="1692" y="-117" font-family="Helvetica,sans-Serif" font-size="10.00">InputEvents.cpp</text>
</a>
</g>
</g>
<!-- Node2&#45;&gt;Node14 -->
<g id="edge13" class="edge">
<title>Node2&#45;&gt;Node14</title>
<path fill="none" stroke="#63b8ff" d="M2077.44,-165.51C2075.95,-165.34 2074.46,-165.17 2073,-165 1927.3,-148.28 1890.34,-148.62 1745,-129 1741.77,-128.56 1738.43,-128.09 1735.07,-127.59"/>
<polygon fill="#63b8ff" stroke="#63b8ff" points="2077.09,-168.99 2087.42,-166.68 2077.9,-162.04 2077.09,-168.99"/>
</g>
<!-- Node15 -->
<g id="node15" class="node">
<title>Node15</title>
<g id="a_node15"><a xlink:href="_interaction_entities_8cpp.html" target="_top" xlink:title=" ">
<polygon fill="white" stroke="#666666" points="1866.5,-129 1753.5,-129 1753.5,-110 1866.5,-110 1866.5,-129"/>
<text text-anchor="middle" x="1810" y="-117" font-family="Helvetica,sans-Serif" font-size="10.00">InteractionEntities.cpp</text>
</a>
</g>
</g>
<!-- Node2&#45;&gt;Node15 -->
<g id="edge14" class="edge">
<title>Node2&#45;&gt;Node15</title>
<path fill="none" stroke="#63b8ff" d="M2080.17,-163.37C2017.45,-153.42 1922.82,-138.4 1863.81,-129.04"/>
<polygon fill="#63b8ff" stroke="#63b8ff" points="2079.91,-166.87 2090.34,-164.98 2081.01,-159.96 2079.91,-166.87"/>
</g>
<!-- Node16 -->
<g id="node16" class="node">
<title>Node16</title>
<g id="a_node16"><a xlink:href="_message_entities_8cpp.html" target="_top" xlink:title=" ">
<polygon fill="white" stroke="#666666" points="1993,-129 1885,-129 1885,-110 1993,-110 1993,-129"/>
<text text-anchor="middle" x="1939" y="-117" font-family="Helvetica,sans-Serif" font-size="10.00">MessageEntities.cpp</text>
</a>
</g>
</g>
<!-- Node2&#45;&gt;Node16 -->
<g id="edge15" class="edge">
<title>Node2&#45;&gt;Node16</title>
<path fill="none" stroke="#63b8ff" d="M2101.21,-162.44C2062.83,-152.52 2007.31,-138.16 1972.19,-129.08"/>
<polygon fill="#63b8ff" stroke="#63b8ff" points="2100.51,-165.87 2111.06,-164.98 2102.26,-159.09 2100.51,-165.87"/>
</g>
<!-- Node17 -->
<g id="node17" class="node">
<title>Node17</title>
<g id="a_node17"><a xlink:href="_reaction_entities_8cpp.html" target="_top" xlink:title=" ">
<polygon fill="white" stroke="#666666" points="842.5,-129 735.5,-129 735.5,-110 842.5,-110 842.5,-129"/>
<text text-anchor="middle" x="789" y="-117" font-family="Helvetica,sans-Serif" font-size="10.00">ReactionEntities.cpp</text>
</a>
</g>
</g>
<!-- Node2&#45;&gt;Node17 -->
<g id="edge16" class="edge">
<title>Node2&#45;&gt;Node17</title>
<path fill="none" stroke="#63b8ff" d="M2077.41,-167.8C2063.41,-166.75 2048.73,-165.74 2035,-165 1509.75,-136.54 1376.24,-172.22 852,-129 848.92,-128.75 845.76,-128.45 842.58,-128.11"/>
<polygon fill="#63b8ff" stroke="#63b8ff" points="2077.22,-171.3 2087.46,-168.58 2077.76,-164.32 2077.22,-171.3"/>
</g>
<!-- Node18 -->
<g id="node18" class="node">
<title>Node18</title>
<g id="a_node18"><a xlink:href="_role_entities_8cpp.html" target="_top" xlink:title=" ">
<polygon fill="white" stroke="#666666" points="3000,-129 2912,-129 2912,-110 3000,-110 3000,-129"/>
<text text-anchor="middle" x="2956" y="-117" font-family="Helvetica,sans-Serif" font-size="10.00">RoleEntities.cpp</text>
</a>
</g>
</g>
<!-- Node2&#45;&gt;Node18 -->
<g id="edge17" class="edge">
<title>Node2&#45;&gt;Node18</title>
<path fill="none" stroke="#63b8ff" d="M2211.21,-171.83C2343.83,-168.02 2648.44,-156.8 2903,-129 2905.87,-128.69 2908.83,-128.32 2911.8,-127.93"/>
<polygon fill="#63b8ff" stroke="#63b8ff" points="2210.71,-168.34 2200.82,-172.12 2210.91,-175.34 2210.71,-168.34"/>
</g>
<!-- Node19 -->
<g id="node19" class="node">
<title>Node19</title>
<g id="a_node19"><a xlink:href="_song_a_p_i_8cpp.html" target="_top" xlink:title=" ">
<polygon fill="white" stroke="#666666" points="324,-129 250,-129 250,-110 324,-110 324,-129"/>
<text text-anchor="middle" x="287" y="-117" font-family="Helvetica,sans-Serif" font-size="10.00">SongAPI.cpp</text>
</a>
</g>
</g>
<!-- Node2&#45;&gt;Node19 -->
<g id="edge18" class="edge">
<title>Node2&#45;&gt;Node19</title>
<path fill="none" stroke="#63b8ff" d="M2077.07,-169.48C2048.41,-167.88 2014.58,-166.15 1984,-165 1617.5,-151.27 698.91,-165.75 334,-129 330.78,-128.68 327.45,-128.25 324.12,-127.77"/>
<polygon fill="#63b8ff" stroke="#63b8ff" points="2077.19,-172.99 2087.37,-170.06 2077.59,-166 2077.19,-172.99"/>
</g>
<!-- Node20 -->
<g id="node20" class="node">
<title>Node20</title>
<g id="a_node20"><a xlink:href="_sound_cloud_a_p_i_8cpp.html" target="_top" xlink:title=" ">
<polygon fill="white" stroke="#666666" points="104,-129 0,-129 0,-110 104,-110 104,-129"/>
<text text-anchor="middle" x="52" y="-117" font-family="Helvetica,sans-Serif" font-size="10.00">SoundCloudAPI.cpp</text>
</a>
</g>
</g>
<!-- Node2&#45;&gt;Node20 -->
<g id="edge19" class="edge">
<title>Node2&#45;&gt;Node20</title>
<path fill="none" stroke="#63b8ff" d="M2077.04,-173.08C1771.49,-171.02 507.53,-160.7 113,-129 110.12,-128.77 107.17,-128.49 104.2,-128.18"/>
<polygon fill="#63b8ff" stroke="#63b8ff" points="2077.05,-176.58 2087.08,-173.15 2077.1,-169.58 2077.05,-176.58"/>
</g>
<!-- Node21 -->
<g id="node21" class="node">
<title>Node21</title>
<g id="a_node21"><a xlink:href="_stage_instance_entities_8cpp.html" target="_top" xlink:title=" ">
<polygon fill="white" stroke="#666666" points="2142.5,-129 2011.5,-129 2011.5,-110 2142.5,-110 2142.5,-129"/>
<text text-anchor="middle" x="2077" y="-117" font-family="Helvetica,sans-Serif" font-size="10.00">StageInstanceEntities.cpp</text>
</a>
</g>
</g>
<!-- Node2&#45;&gt;Node21 -->
<g id="edge20" class="edge">
<title>Node2&#45;&gt;Node21</title>
<path fill="none" stroke="#63b8ff" d="M2125.17,-158.6C2113.16,-149.11 2098.03,-137.13 2087.96,-129.17"/>
<polygon fill="#63b8ff" stroke="#63b8ff" points="2123.22,-161.53 2133.24,-164.98 2127.56,-156.04 2123.22,-161.53"/>
</g>
<!-- Node22 -->
<g id="node22" class="node">
<title>Node22</title>
<g id="a_node22"><a xlink:href="_sticker_entities_8cpp.html" target="_top" xlink:title=" ">
<polygon fill="white" stroke="#666666" points="2259.5,-129 2160.5,-129 2160.5,-110 2259.5,-110 2259.5,-129"/>
<text text-anchor="middle" x="2210" y="-117" font-family="Helvetica,sans-Serif" font-size="10.00">StickerEntities.cpp</text>
</a>
</g>
</g>
<!-- Node2&#45;&gt;Node22 -->
<g id="edge21" class="edge">
<title>Node2&#45;&gt;Node22</title>
<path fill="none" stroke="#63b8ff" d="M2162.55,-158.6C2174.38,-149.11 2189.29,-137.13 2199.2,-129.17"/>
<polygon fill="#63b8ff" stroke="#63b8ff" points="2160.21,-155.99 2154.6,-164.98 2164.59,-161.45 2160.21,-155.99"/>
</g>
<!-- Node23 -->
<g id="node23" class="node">
<title>Node23</title>
<g id="a_node23"><a xlink:href="_thread_entities_8cpp.html" target="_top" xlink:title=" ">
<polygon fill="white" stroke="#666666" points="2376,-129 2278,-129 2278,-110 2376,-110 2376,-129"/>
<text text-anchor="middle" x="2327" y="-117" font-family="Helvetica,sans-Serif" font-size="10.00">ThreadEntities.cpp</text>
</a>
</g>
</g>
<!-- Node2&#45;&gt;Node23 -->
<g id="edge22" class="edge">
<title>Node2&#45;&gt;Node23</title>
<path fill="none" stroke="#63b8ff" d="M2183.07,-162.18C2217.3,-152.27 2266.29,-138.08 2297.37,-129.08"/>
<polygon fill="#63b8ff" stroke="#63b8ff" points="2182.03,-158.84 2173.4,-164.98 2183.98,-165.56 2182.03,-158.84"/>
</g>
<!-- Node24 -->
<g id="node24" class="node">
<title>Node24</title>
<g id="a_node24"><a xlink:href="_to_entity_8hpp.html" target="_top" xlink:title=" ">
<polygon fill="white" stroke="#666666" points="2465.5,-129 2394.5,-129 2394.5,-110 2465.5,-110 2465.5,-129"/>
<text text-anchor="middle" x="2430" y="-117" font-family="Helvetica,sans-Serif" font-size="10.00">ToEntity.hpp</text>
</a>
</g>
</g>
<!-- Node2&#45;&gt;Node24 -->
<g id="edge23" class="edge">
<title>Node2&#45;&gt;Node24</title>
<path fill="none" stroke="#63b8ff" d="M2200.72,-163.1C2249.56,-154.12 2321.94,-140.78 2385,-129 2387.97,-128.45 2391.05,-127.87 2394.14,-127.29"/>
<polygon fill="#63b8ff" stroke="#63b8ff" points="2199.86,-159.69 2190.66,-164.94 2201.13,-166.58 2199.86,-159.69"/>
</g>
<!-- Node27 -->
<g id="node27" class="node">
<title>Node27</title>
<g id="a_node27"><a xlink:href="_user_entities_8cpp.html" target="_top" xlink:title=" ">
<polygon fill="white" stroke="#666666" points="717.5,-129 628.5,-129 628.5,-110 717.5,-110 717.5,-129"/>
<text text-anchor="middle" x="673" y="-117" font-family="Helvetica,sans-Serif" font-size="10.00">UserEntities.cpp</text>
</a>
</g>
</g>
<!-- Node2&#45;&gt;Node27 -->
<g id="edge26" class="edge">
<title>Node2&#45;&gt;Node27</title>
<path fill="none" stroke="#63b8ff" d="M2077.06,-169.58C2048.41,-167.99 2014.57,-166.25 1984,-165 1425.57,-142.17 1283.51,-180.56 727,-129 723.98,-128.72 720.86,-128.38 717.73,-127.99"/>
<polygon fill="#63b8ff" stroke="#63b8ff" points="2077.19,-173.09 2087.37,-170.15 2077.58,-166.1 2077.19,-173.09"/>
</g>
<!-- Node28 -->
<g id="node28" class="node">
<title>Node28</title>
<g id="a_node28"><a xlink:href="_utilities_8cpp.html" target="_top" xlink:title=" ">
<polygon fill="white" stroke="#666666" points="3325,-129 3257,-129 3257,-110 3325,-110 3325,-129"/>
<text text-anchor="middle" x="3291" y="-117" font-family="Helvetica,sans-Serif" font-size="10.00">Utilities.cpp</text>
</a>
</g>
</g>
<!-- Node2&#45;&gt;Node28 -->
<g id="edge27" class="edge">
<title>Node2&#45;&gt;Node28</title>
<path fill="none" stroke="#63b8ff" d="M2210.8,-172.17C2417.58,-167.82 3045.45,-152.96 3248,-129 3250.87,-128.66 3253.84,-128.23 3256.81,-127.75"/>
<polygon fill="#63b8ff" stroke="#63b8ff" points="2210.61,-168.67 2200.69,-172.38 2210.76,-175.67 2210.61,-168.67"/>
</g>
<!-- Node29 -->
<g id="node29" class="node">
<title>Node29</title>
<g id="a_node29"><a xlink:href="_voice_connection_8cpp.html" target="_top" xlink:title=" ">
<polygon fill="white" stroke="#666666" points="231.5,-129 122.5,-129 122.5,-110 231.5,-110 231.5,-129"/>
<text text-anchor="middle" x="177" y="-117" font-family="Helvetica,sans-Serif" font-size="10.00">VoiceConnection.cpp</text>
</a>
</g>
</g>
<!-- Node2&#45;&gt;Node29 -->
<g id="edge28" class="edge">
<title>Node2&#45;&gt;Node29</title>
<path fill="none" stroke="#63b8ff" d="M2076.99,-172.91C1783.41,-170.18 608.94,-157.65 241,-129 237.98,-128.77 234.89,-128.49 231.77,-128.17"/>
<polygon fill="#63b8ff" stroke="#63b8ff" points="2077.03,-176.41 2087.06,-173 2077.1,-169.41 2077.03,-176.41"/>
</g>
<!-- Node30 -->
<g id="node30" class="node">
<title>Node30</title>
<g id="a_node30"><a xlink:href="_web_hook_entities_8cpp.html" target="_top" xlink:title=" ">
<polygon fill="white" stroke="#666666" points="2594.5,-129 2483.5,-129 2483.5,-110 2594.5,-110 2594.5,-129"/>
<text text-anchor="middle" x="2539" y="-117" font-family="Helvetica,sans-Serif" font-size="10.00">WebHookEntities.cpp</text>
</a>
</g>
</g>
<!-- Node2&#45;&gt;Node30 -->
<g id="edge29" class="edge">
<title>Node2&#45;&gt;Node30</title>
<path fill="none" stroke="#63b8ff" d="M2210.62,-164.56C2287.29,-154.27 2411.82,-137.57 2483.47,-127.95"/>
<polygon fill="#63b8ff" stroke="#63b8ff" points="2210.04,-161.11 2200.59,-165.91 2210.97,-168.05 2210.04,-161.11"/>
</g>
<!-- Node2&#45;&gt;Node31 -->
<g id="edge30" class="edge">
<title>Node2&#45;&gt;Node31</title>
<path fill="none" stroke="#63b8ff" d="M2210.62,-171.86C2355.89,-167.89 2711.94,-156.02 3009,-129 3012.06,-128.72 3015.2,-128.41 3018.36,-128.07"/>
<polygon fill="#63b8ff" stroke="#63b8ff" points="2210.43,-168.36 2200.53,-172.13 2210.62,-175.36 2210.43,-168.36"/>
</g>
<!-- Node32 -->
<g id="node32" class="node">
<title>Node32</title>
<g id="a_node32"><a xlink:href="_you_tube_a_p_i_8cpp.html" target="_top" xlink:title=" ">
<polygon fill="white" stroke="#666666" points="431.5,-129 342.5,-129 342.5,-110 431.5,-110 431.5,-129"/>
<text text-anchor="middle" x="387" y="-117" font-family="Helvetica,sans-Serif" font-size="10.00">YouTubeAPI.cpp</text>
</a>
</g>
</g>
<!-- Node2&#45;&gt;Node32 -->
<g id="edge31" class="edge">
<title>Node2&#45;&gt;Node32</title>
<path fill="none" stroke="#63b8ff" d="M2077.07,-169.5C2048.41,-167.9 2014.57,-166.17 1984,-165 1298.54,-138.8 1124.2,-190.47 441,-129 437.98,-128.73 434.86,-128.39 431.73,-128.01"/>
<polygon fill="#63b8ff" stroke="#63b8ff" points="2077.19,-173.01 2087.37,-170.08 2077.58,-166.02 2077.19,-173.01"/>
</g>
<!-- Node25 -->
<g id="node25" class="node">
<title>Node25</title>
<g id="a_node25"><a xlink:href="_index_8hpp.html" target="_top" xlink:title=" ">
<polygon fill="white" stroke="#666666" points="2459.5,-74 2400.5,-74 2400.5,-55 2459.5,-55 2459.5,-74"/>
<text text-anchor="middle" x="2430" y="-62" font-family="Helvetica,sans-Serif" font-size="10.00">Index.hpp</text>
</a>
</g>
</g>
<!-- Node24&#45;&gt;Node25 -->
<g id="edge24" class="edge">
<title>Node24&#45;&gt;Node25</title>
<path fill="none" stroke="#63b8ff" d="M2430,-99.66C2430,-90.93 2430,-80.99 2430,-74.09"/>
<polygon fill="#63b8ff" stroke="#63b8ff" points="2426.5,-99.75 2430,-109.75 2433.5,-99.75 2426.5,-99.75"/>
</g>
<!-- Node26 -->
<g id="node26" class="node">
<title>Node26</title>
<g id="a_node26"><a xlink:href="_dll_main_8cpp.html" target="_top" xlink:title=" ">
<polygon fill="white" stroke="#666666" points="2464,-19 2396,-19 2396,0 2464,0 2464,-19"/>
<text text-anchor="middle" x="2430" y="-7" font-family="Helvetica,sans-Serif" font-size="10.00">DllMain.cpp</text>
</a>
</g>
</g>
<!-- Node25&#45;&gt;Node26 -->
<g id="edge25" class="edge">
<title>Node25&#45;&gt;Node26</title>
<path fill="none" stroke="#63b8ff" d="M2430,-44.66C2430,-35.93 2430,-25.99 2430,-19.09"/>
<polygon fill="#63b8ff" stroke="#63b8ff" points="2426.5,-44.75 2430,-54.75 2433.5,-44.75 2426.5,-44.75"/>
</g>
<!-- Node33&#45;&gt;Node2 -->
<g id="edge34" class="edge">
<title>Node33&#45;&gt;Node2</title>
<path fill="none" stroke="#63b8ff" d="M2334.79,-430.86C2324.72,-409.9 2310,-373.61 2310,-340.5 2310,-340.5 2310,-340.5 2310,-283.5 2310,-225.05 2236.8,-196.6 2187.61,-184.09"/>
<polygon fill="#63b8ff" stroke="#63b8ff" points="2331.67,-432.45 2339.27,-439.83 2337.93,-429.32 2331.67,-432.45"/>
</g>
<!-- Node33&#45;&gt;Node3 -->
<g id="edge33" class="edge">
<title>Node33&#45;&gt;Node3</title>
<path fill="none" stroke="#63b8ff" d="M2289.34,-444.05C2150.11,-431.22 1793,-388.3 1793,-285.5 1793,-285.5 1793,-285.5 1793,-228.5 1793,-97.7 750.28,-140.68 620,-129 617.03,-128.73 614.01,-128.46 610.95,-128.18"/>
<polygon fill="#63b8ff" stroke="#63b8ff" points="2289.1,-447.54 2299.38,-444.96 2289.73,-440.57 2289.1,-447.54"/>
</g>
<!-- Node33&#45;&gt;Node9 -->
<g id="edge39" class="edge">
<title>Node33&#45;&gt;Node9</title>
<path fill="none" stroke="#63b8ff" d="M2398.72,-448.61C2612.94,-448.34 3383,-440.42 3383,-340.5 3383,-340.5 3383,-340.5 3383,-228.5 3383,-191.05 3393.66,-147.28 3398.57,-129.1"/>
<polygon fill="#63b8ff" stroke="#63b8ff" points="2398.64,-445.11 2388.64,-448.62 2398.65,-452.11 2398.64,-445.11"/>
</g>
<!-- Node33&#45;&gt;Node10 -->
<g id="edge40" class="edge">
<title>Node33&#45;&gt;Node10</title>
<path fill="none" stroke="#63b8ff" d="M2398.63,-445.93C2564.81,-437.37 3053,-406.62 3053,-340.5 3053,-340.5 3053,-340.5 3053,-228.5 3053,-173.55 3121.45,-142.64 3162.62,-129.02"/>
<polygon fill="#63b8ff" stroke="#63b8ff" points="2398.43,-442.43 2388.62,-446.43 2398.78,-449.42 2398.43,-442.43"/>
</g>
<!-- Node33&#45;&gt;Node27 -->
<g id="edge69" class="edge">
<title>Node33&#45;&gt;Node27</title>
<path fill="none" stroke="#63b8ff" d="M2318.91,-435.16C2213.82,-379.29 1814.08,-166.88 1807,-165 1574.91,-103.37 966.06,-151.71 727,-129 723.98,-128.71 720.87,-128.36 717.74,-127.98"/>
<polygon fill="#63b8ff" stroke="#63b8ff" points="2317.4,-438.32 2327.87,-439.92 2320.69,-432.14 2317.4,-438.32"/>
</g>
<!-- Node33&#45;&gt;Node28 -->
<g id="edge70" class="edge">
<title>Node33&#45;&gt;Node28</title>
<path fill="none" stroke="#63b8ff" d="M2398.83,-446.68C2525.58,-442.1 2835.78,-428.66 2937,-404 2997.56,-389.25 3014.49,-384.09 3066,-349 3166.76,-280.35 3259.79,-161.93 3284.57,-129.14"/>
<polygon fill="#63b8ff" stroke="#63b8ff" points="2398.45,-443.19 2388.58,-447.04 2398.7,-450.18 2398.45,-443.19"/>
</g>
<!-- Node34 -->
<g id="node34" class="node">
<title>Node34</title>
<g id="a_node34"><a xlink:href="_event_manager_8hpp.html" target="_top" xlink:title=" ">
<polygon fill="white" stroke="#666666" points="2445.5,-239 2348.5,-239 2348.5,-220 2445.5,-220 2445.5,-239"/>
<text text-anchor="middle" x="2397" y="-227" font-family="Helvetica,sans-Serif" font-size="10.00">EventManager.hpp</text>
</a>
</g>
</g>
<!-- Node33&#45;&gt;Node34 -->
<g id="edge35" class="edge">
<title>Node33&#45;&gt;Node34</title>
<path fill="none" stroke="#63b8ff" d="M2348.47,-430.13C2359.36,-385.3 2387.01,-271.6 2394.88,-239.22"/>
<polygon fill="#63b8ff" stroke="#63b8ff" points="2345.04,-429.41 2346.08,-439.95 2351.84,-431.06 2345.04,-429.41"/>
</g>
<!-- Node35 -->
<g id="node35" class="node">
<title>Node35</title>
<g id="a_node35"><a xlink:href="_guild_member_entities_8hpp.html" target="_top" xlink:title=" ">
<polygon fill="white" stroke="#666666" points="2620,-404 2494,-404 2494,-385 2620,-385 2620,-404"/>
<text text-anchor="middle" x="2557" y="-392" font-family="Helvetica,sans-Serif" font-size="10.00">GuildMemberEntities.hpp</text>
</a>
</g>
</g>
<!-- Node33&#45;&gt;Node35 -->
<g id="edge41" class="edge">
<title>Node33&#45;&gt;Node35</title>
<path fill="none" stroke="#63b8ff" d="M2387.95,-437.56C2427.84,-427.64 2485.87,-413.2 2522.51,-404.08"/>
<polygon fill="#63b8ff" stroke="#63b8ff" points="2387.08,-434.17 2378.22,-439.98 2388.77,-440.97 2387.08,-434.17"/>
</g>
<!-- Node39 -->
<g id="node39" class="node">
<title>Node39</title>
<g id="a_node39"><a xlink:href="_reaction_entities_8hpp.html" target="_top" xlink:title=" ">
<polygon fill="white" stroke="#666666" points="2281.5,-294 2174.5,-294 2174.5,-275 2281.5,-275 2281.5,-294"/>
<text text-anchor="middle" x="2228" y="-282" font-family="Helvetica,sans-Serif" font-size="10.00">ReactionEntities.hpp</text>
</a>
</g>
</g>
<!-- Node33&#45;&gt;Node39 -->
<g id="edge65" class="edge">
<title>Node33&#45;&gt;Node39</title>
<path fill="none" stroke="#63b8ff" d="M2325.1,-433.33C2315.69,-425.23 2304.54,-414.73 2296,-404 2266.17,-366.51 2241.08,-314.4 2231.82,-294.09"/>
<polygon fill="#63b8ff" stroke="#63b8ff" points="2322.89,-436.05 2332.8,-439.78 2327.38,-430.68 2322.89,-436.05"/>
</g>
<!-- Node34&#45;&gt;Node2 -->
<g id="edge36" class="edge">
<title>Node34&#45;&gt;Node2</title>
<path fill="none" stroke="#63b8ff" d="M2346.3,-217.88C2298.88,-207.94 2228.95,-193.3 2184.97,-184.08"/>
<polygon fill="#63b8ff" stroke="#63b8ff" points="2345.85,-221.36 2356.35,-219.98 2347.28,-214.51 2345.85,-221.36"/>
</g>
<!-- Node34&#45;&gt;Node8 -->
<g id="edge37" class="edge">
<title>Node34&#45;&gt;Node8</title>
<path fill="none" stroke="#63b8ff" d="M2338.51,-225.03C2273.97,-220.13 2167.53,-208.82 2079,-184 2058.49,-178.25 2055.78,-169.66 2035,-165 1803.29,-113.02 1203.52,-150.25 967,-129 963.96,-128.73 960.83,-128.4 957.69,-128.04"/>
<polygon fill="#63b8ff" stroke="#63b8ff" points="2338.27,-228.53 2348.5,-225.77 2338.78,-221.54 2338.27,-228.53"/>
</g>
<!-- Node34&#45;&gt;Node31 -->
<g id="edge38" class="edge">
<title>Node34&#45;&gt;Node31</title>
<path fill="none" stroke="#63b8ff" d="M2455.85,-219.11C2585.86,-198.37 2895.91,-148.91 3020.66,-129.01"/>
<polygon fill="#63b8ff" stroke="#63b8ff" points="2455.01,-215.7 2445.69,-220.73 2456.11,-222.61 2455.01,-215.7"/>
</g>
<!-- Node35&#45;&gt;Node2 -->
<g id="edge42" class="edge">
<title>Node35&#45;&gt;Node2</title>
<path fill="none" stroke="#63b8ff" d="M2552,-375.02C2541.1,-338.62 2511.54,-257.92 2455,-220 2414.51,-192.85 2278.94,-181.92 2200.81,-177.79"/>
<polygon fill="#63b8ff" stroke="#63b8ff" points="2548.68,-376.14 2554.79,-384.79 2555.41,-374.22 2548.68,-376.14"/>
</g>
<!-- Node35&#45;&gt;Node9 -->
<g id="edge44" class="edge">
<title>Node35&#45;&gt;Node9</title>
<path fill="none" stroke="#63b8ff" d="M2630.46,-390.61C2820.04,-382.19 3311,-353.79 3311,-285.5 3311,-285.5 3311,-285.5 3311,-228.5 3311,-182.13 3360.58,-145.1 3386.14,-129.09"/>
<polygon fill="#63b8ff" stroke="#63b8ff" points="2630.15,-387.12 2620.31,-391.06 2630.46,-394.12 2630.15,-387.12"/>
</g>
<!-- Node35&#45;&gt;Node11 -->
<g id="edge45" class="edge">
<title>Node35&#45;&gt;Node11</title>
<path fill="none" stroke="#63b8ff" d="M2577.13,-378.46C2599.94,-359.53 2634,-324.7 2634,-285.5 2634,-285.5 2634,-285.5 2634,-228.5 2634,-166.39 2710.23,-139.76 2767.86,-128.5"/>
<polygon fill="#63b8ff" stroke="#63b8ff" points="2574.67,-375.95 2569.03,-384.91 2579.03,-381.42 2574.67,-375.95"/>
</g>
<!-- Node35&#45;&gt;Node28 -->
<g id="edge64" class="edge">
<title>Node35&#45;&gt;Node28</title>
<path fill="none" stroke="#63b8ff" d="M2630.23,-386.09C2679.71,-379.66 2745.97,-368.27 2802,-349 2968.56,-291.72 2990.59,-233.17 3153,-165 3188.51,-150.09 3230.87,-137.11 3259.2,-129.08"/>
<polygon fill="#63b8ff" stroke="#63b8ff" points="2629.74,-382.62 2620.26,-387.35 2630.61,-389.57 2629.74,-382.62"/>
</g>
<!-- Node35&#45;&gt;Node34 -->
<g id="edge43" class="edge">
<title>Node35&#45;&gt;Node34</title>
<path fill="none" stroke="#63b8ff" d="M2519.41,-381.27C2501.4,-374.02 2480.44,-363.39 2465,-349 2429.6,-316.01 2407.44,-260.35 2399.9,-239.1"/>
<polygon fill="#63b8ff" stroke="#63b8ff" points="2518.47,-384.66 2529.06,-384.95 2520.97,-378.12 2518.47,-384.66"/>
</g>
<!-- Node36 -->
<g id="node36" class="node">
<title>Node36</title>
<g id="a_node36"><a xlink:href="_role_entities_8hpp.html" target="_top" xlink:title=" ">
<polygon fill="white" stroke="#666666" points="2793,-349 2705,-349 2705,-330 2793,-330 2793,-349"/>
<text text-anchor="middle" x="2749" y="-337" font-family="Helvetica,sans-Serif" font-size="10.00">RoleEntities.hpp</text>
</a>
</g>
</g>
<!-- Node35&#45;&gt;Node36 -->
<g id="edge46" class="edge">
<title>Node35&#45;&gt;Node36</title>
<path fill="none" stroke="#63b8ff" d="M2597.53,-382.31C2633.46,-372.39 2685.16,-358.12 2717.91,-349.08"/>
<polygon fill="#63b8ff" stroke="#63b8ff" points="2596.56,-378.95 2587.85,-384.98 2598.42,-385.7 2596.56,-378.95"/>
</g>
<!-- Node38 -->
<g id="node38" class="node">
<title>Node38</title>
<g id="a_node38"><a xlink:href="_song_a_p_i_8hpp.html" target="_top" xlink:title=" ">
<polygon fill="white" stroke="#666666" points="2047,-239 1973,-239 1973,-220 2047,-220 2047,-239"/>
<text text-anchor="middle" x="2010" y="-227" font-family="Helvetica,sans-Serif" font-size="10.00">SongAPI.hpp</text>
</a>
</g>
</g>
<!-- Node35&#45;&gt;Node38 -->
<g id="edge60" class="edge">
<title>Node35&#45;&gt;Node38</title>
<path fill="none" stroke="#63b8ff" d="M2505.49,-382.76C2430.08,-366.51 2285.63,-333.36 2166,-294 2115.45,-277.37 2057.93,-252.29 2028.9,-239.18"/>
<polygon fill="#63b8ff" stroke="#63b8ff" points="2505.15,-386.27 2515.66,-384.94 2506.61,-379.42 2505.15,-386.27"/>
</g>
<!-- Node36&#45;&gt;Node2 -->
<g id="edge47" class="edge">
<title>Node36&#45;&gt;Node2</title>
<path fill="none" stroke="#63b8ff" d="M2722.12,-325.49C2661.32,-296.14 2516.68,-226.81 2493,-220 2392.62,-191.12 2270.63,-180.97 2200.68,-177.41"/>
<polygon fill="#63b8ff" stroke="#63b8ff" points="2720.6,-328.64 2731.12,-329.84 2723.64,-322.34 2720.6,-328.64"/>
</g>
<!-- Node36&#45;&gt;Node9 -->
<g id="edge49" class="edge">
<title>Node36&#45;&gt;Node9</title>
<path fill="none" stroke="#63b8ff" d="M2784.09,-326.77C2900.71,-287.77 3273.72,-163.06 3375.26,-129.1"/>
<polygon fill="#63b8ff" stroke="#63b8ff" points="2782.93,-323.46 2774.56,-329.95 2785.15,-330.1 2782.93,-323.46"/>
</g>
<!-- Node36&#45;&gt;Node10 -->
<g id="edge50" class="edge">
<title>Node36&#45;&gt;Node10</title>
<path fill="none" stroke="#63b8ff" d="M2763.66,-322.09C2795.92,-287.09 2877.08,-205.05 2963,-165 2979.47,-157.32 3085.08,-138.67 3147.31,-128.11"/>
<polygon fill="#63b8ff" stroke="#63b8ff" points="2760.68,-320.17 2756.54,-329.92 2765.85,-324.88 2760.68,-320.17"/>
</g>
<!-- Node36&#45;&gt;Node18 -->
<g id="edge58" class="edge">
<title>Node36&#45;&gt;Node18</title>
<path fill="none" stroke="#63b8ff" d="M2757.48,-320.59C2776.49,-281.05 2822.87,-187.96 2849,-165 2869.25,-147.2 2897.62,-135.84 2920.06,-129.06"/>
<polygon fill="#63b8ff" stroke="#63b8ff" points="2754.22,-319.29 2753.07,-329.82 2760.54,-322.3 2754.22,-319.29"/>
</g>
<!-- Node36&#45;&gt;Node28 -->
<g id="edge59" class="edge">
<title>Node36&#45;&gt;Node28</title>
<path fill="none" stroke="#63b8ff" d="M2773.29,-324.93C2830.99,-293.16 2981.45,-213.02 3115,-165 3140.88,-155.7 3213.25,-138.4 3256.71,-128.33"/>
<polygon fill="#63b8ff" stroke="#63b8ff" points="2771.29,-322.04 2764.23,-329.94 2774.68,-328.16 2771.29,-322.04"/>
</g>
<!-- Node36&#45;&gt;Node34 -->
<g id="edge48" class="edge">
<title>Node36&#45;&gt;Node34</title>
<path fill="none" stroke="#63b8ff" d="M2694.77,-330.03C2652.32,-322.66 2592.12,-310.55 2541,-294 2493.17,-278.52 2439.7,-252.49 2413.41,-239.07"/>
<polygon fill="#63b8ff" stroke="#63b8ff" points="2694.45,-333.53 2704.89,-331.76 2695.62,-326.63 2694.45,-333.53"/>
</g>
<!-- Node37 -->
<g id="node37" class="node">
<title>Node37</title>
<g id="a_node37"><a xlink:href="_guild_entities_8hpp.html" target="_top" xlink:title=" ">
<polygon fill="white" stroke="#666666" points="2756.5,-294 2665.5,-294 2665.5,-275 2756.5,-275 2756.5,-294"/>
<text text-anchor="middle" x="2711" y="-282" font-family="Helvetica,sans-Serif" font-size="10.00">GuildEntities.hpp</text>
</a>
</g>
</g>
<!-- Node36&#45;&gt;Node37 -->
<g id="edge51" class="edge">
<title>Node36&#45;&gt;Node37</title>
<path fill="none" stroke="#63b8ff" d="M2736.73,-321.39C2730.19,-312.27 2722.43,-301.45 2717.16,-294.09"/>
<polygon fill="#63b8ff" stroke="#63b8ff" points="2734.05,-323.66 2742.73,-329.75 2739.74,-319.58 2734.05,-323.66"/>
</g>
<!-- Node37&#45;&gt;Node2 -->
<g id="edge52" class="edge">
<title>Node37&#45;&gt;Node2</title>
<path fill="none" stroke="#63b8ff" d="M2686.93,-269.89C2659.36,-254.98 2612.39,-231.66 2569,-220 2440.39,-185.45 2283.19,-177.48 2200.72,-175.79"/>
<polygon fill="#63b8ff" stroke="#63b8ff" points="2685.39,-273.03 2695.84,-274.78 2688.75,-266.9 2685.39,-273.03"/>
</g>
<!-- Node37&#45;&gt;Node9 -->
<g id="edge54" class="edge">
<title>Node37&#45;&gt;Node9</title>
<path fill="none" stroke="#63b8ff" d="M2754,-272.38C2837.85,-250.8 3029.17,-202.11 3191,-165 3248.94,-151.71 3316.2,-137.71 3358.68,-129.04"/>
<polygon fill="#63b8ff" stroke="#63b8ff" points="2752.89,-269.05 2744.08,-274.93 2754.64,-275.83 2752.89,-269.05"/>
</g>
<!-- Node37&#45;&gt;Node10 -->
<g id="edge55" class="edge">
<title>Node37&#45;&gt;Node10</title>
<path fill="none" stroke="#63b8ff" d="M2724.6,-266.7C2747.26,-240.04 2795.55,-188.65 2849,-165 2967.77,-112.45 3010.39,-147.1 3139,-129 3141.73,-128.62 3144.53,-128.21 3147.35,-127.79"/>
<polygon fill="#63b8ff" stroke="#63b8ff" points="2721.63,-264.79 2717.93,-274.72 2727.01,-269.27 2721.63,-264.79"/>
</g>
<!-- Node37&#45;&gt;Node11 -->
<g id="edge56" class="edge">
<title>Node37&#45;&gt;Node11</title>
<path fill="none" stroke="#63b8ff" d="M2716.68,-264.94C2720.96,-252 2727.39,-234.51 2735,-220 2748.8,-193.69 2752.52,-186.53 2773,-165 2786.47,-150.84 2804.72,-137.61 2817.13,-129.32"/>
<polygon fill="#63b8ff" stroke="#63b8ff" points="2713.31,-263.99 2713.61,-274.58 2719.98,-266.12 2713.31,-263.99"/>
</g>
<!-- Node37&#45;&gt;Node28 -->
<g id="edge57" class="edge">
<title>Node37&#45;&gt;Node28</title>
<path fill="none" stroke="#63b8ff" d="M2731.06,-268.78C2767.56,-242.85 2848.15,-189.48 2925,-165 3062.63,-121.16 3105.24,-151.02 3248,-129 3250.86,-128.56 3253.81,-128.06 3256.78,-127.53"/>
<polygon fill="#63b8ff" stroke="#63b8ff" points="2728.84,-266.06 2722.76,-274.74 2732.92,-271.75 2728.84,-266.06"/>
</g>
<!-- Node37&#45;&gt;Node34 -->
<g id="edge53" class="edge">
<title>Node37&#45;&gt;Node34</title>
<path fill="none" stroke="#63b8ff" d="M2655.36,-274.11C2595.8,-264.05 2502.24,-248.26 2445.55,-238.7"/>
<polygon fill="#63b8ff" stroke="#63b8ff" points="2654.9,-277.58 2665.34,-275.79 2656.06,-270.68 2654.9,-277.58"/>
</g>
<!-- Node38&#45;&gt;Node2 -->
<g id="edge61" class="edge">
<title>Node38&#45;&gt;Node2</title>
<path fill="none" stroke="#63b8ff" d="M2040.87,-216.29C2065.7,-206.47 2099.99,-192.91 2122.08,-184.17"/>
<polygon fill="#63b8ff" stroke="#63b8ff" points="2039.54,-213.05 2031.53,-219.98 2042.12,-219.56 2039.54,-213.05"/>
</g>
<!-- Node38&#45;&gt;Node10 -->
<g id="edge62" class="edge">
<title>Node38&#45;&gt;Node10</title>
<path fill="none" stroke="#63b8ff" d="M2057.27,-225.49C2212.54,-215.37 2720.89,-180.27 3139,-129 3141.73,-128.67 3144.54,-128.3 3147.37,-127.91"/>
<polygon fill="#63b8ff" stroke="#63b8ff" points="2056.88,-222.01 2047.13,-226.15 2057.34,-229 2056.88,-222.01"/>
</g>
<!-- Node38&#45;&gt;Node19 -->
<g id="edge63" class="edge">
<title>Node38&#45;&gt;Node19</title>
<path fill="none" stroke="#63b8ff" d="M1962.91,-227.77C1764.36,-224.23 976.23,-205.86 334,-129 330.79,-128.62 327.47,-128.15 324.14,-127.64"/>
<polygon fill="#63b8ff" stroke="#63b8ff" points="1962.93,-231.27 1972.99,-227.94 1963.06,-224.27 1962.93,-231.27"/>
</g>
<!-- Node39&#45;&gt;Node2 -->
<g id="edge66" class="edge">
<title>Node39&#45;&gt;Node2</title>
<path fill="none" stroke="#63b8ff" d="M2214.93,-266.69C2196.79,-243.37 2164.65,-202.05 2150.73,-184.16"/>
<polygon fill="#63b8ff" stroke="#63b8ff" points="2212.22,-268.92 2221.13,-274.66 2217.75,-264.62 2212.22,-268.92"/>
</g>
<!-- Node39&#45;&gt;Node17 -->
<g id="edge68" class="edge">
<title>Node39&#45;&gt;Node17</title>
<path fill="none" stroke="#63b8ff" d="M2200.4,-270.58C2167.01,-255.59 2108.71,-231.49 2056,-220 1531.67,-105.75 1385.69,-185.12 852,-129 848.93,-128.68 845.77,-128.32 842.59,-127.95"/>
<polygon fill="#63b8ff" stroke="#63b8ff" points="2199.37,-273.96 2209.93,-274.91 2202.27,-267.58 2199.37,-273.96"/>
</g>
<!-- Node39&#45;&gt;Node34 -->
<g id="edge67" class="edge">
<title>Node39&#45;&gt;Node34</title>
<path fill="none" stroke="#63b8ff" d="M2264.9,-271.93C2296.47,-262.03 2341.18,-248.01 2369.63,-239.08"/>
<polygon fill="#63b8ff" stroke="#63b8ff" points="2263.65,-268.65 2255.15,-274.98 2265.74,-275.33 2263.65,-268.65"/>
</g>
<!-- Node40&#45;&gt;Node2 -->
<g id="edge72" class="edge">
<title>Node40&#45;&gt;Node2</title>
<path fill="none" stroke="#63b8ff" d="M1100.57,-329C1299.3,-299.76 1899.71,-211.44 2087.34,-183.84"/>
<polygon fill="#63b8ff" stroke="#63b8ff" points="1099.95,-325.55 1090.57,-330.47 1100.97,-332.48 1099.95,-325.55"/>
</g>
<!-- Node40&#45;&gt;Node19 -->
<g id="edge74" class="edge">
<title>Node40&#45;&gt;Node19</title>
<path fill="none" stroke="#63b8ff" d="M985.31,-327.83C946.45,-319.39 891.59,-306.91 844,-294 636.52,-237.73 390.2,-155.5 312.06,-129.04"/>
<polygon fill="#63b8ff" stroke="#63b8ff" points="984.81,-331.3 995.33,-329.99 986.29,-324.46 984.81,-331.3"/>
</g>
<!-- Node40&#45;&gt;Node20 -->
<g id="edge76" class="edge">
<title>Node40&#45;&gt;Node20</title>
<path fill="none" stroke="#63b8ff" d="M971.31,-332.54C902.97,-325.64 792.27,-312.78 698,-294 454.28,-245.45 166.61,-156.83 78.78,-129.06"/>
<polygon fill="#63b8ff" stroke="#63b8ff" points="971.19,-336.04 981.49,-333.55 971.89,-329.08 971.19,-336.04"/>
</g>
<!-- Node40&#45;&gt;Node29 -->
<g id="edge77" class="edge">
<title>Node40&#45;&gt;Node29</title>
<path fill="none" stroke="#63b8ff" d="M971.21,-329.74C917.51,-321.96 839.35,-309.44 772,-294 657.68,-267.79 306.59,-160.4 204.88,-129.1"/>
<polygon fill="#63b8ff" stroke="#63b8ff" points="970.88,-333.22 981.28,-331.18 971.88,-326.29 970.88,-333.22"/>
</g>
<!-- Node40&#45;&gt;Node32 -->
<g id="edge78" class="edge">
<title>Node40&#45;&gt;Node32</title>
<path fill="none" stroke="#63b8ff" d="M1001.07,-326.77C884.98,-287.77 513.7,-163.06 412.62,-129.1"/>
<polygon fill="#63b8ff" stroke="#63b8ff" points="999.96,-330.09 1010.56,-329.95 1002.19,-323.45 999.96,-330.09"/>
</g>
<!-- Node40&#45;&gt;Node37 -->
<g id="edge73" class="edge">
<title>Node40&#45;&gt;Node37</title>
<path fill="none" stroke="#63b8ff" d="M1100.95,-336.44C1374.77,-327.78 2431.64,-294.34 2665.16,-286.95"/>
<polygon fill="#63b8ff" stroke="#63b8ff" points="1100.66,-332.95 1090.78,-336.77 1100.88,-339.95 1100.66,-332.95"/>
</g>
<!-- Node40&#45;&gt;Node38 -->
<g id="edge75" class="edge">
<title>Node40&#45;&gt;Node38</title>
<path fill="none" stroke="#63b8ff" d="M1100.66,-338.51C1272.16,-337.99 1735.54,-332.92 1883,-294 1927.81,-282.17 1975.3,-253.47 1997.36,-239.06"/>
<polygon fill="#63b8ff" stroke="#63b8ff" points="1100.51,-335.01 1090.52,-338.54 1100.53,-342.01 1100.51,-335.01"/>
</g>
</g>
</svg>
