<?xml version="1.0" encoding="UTF-8" standalone="no"?>
<!DOCTYPE svg PUBLIC "-//W3C//DTD SVG 1.1//EN"
 "http://www.w3.org/Graphics/SVG/1.1/DTD/svg11.dtd">
<!-- Generated by graphviz version 5.0.0 (20220707.1540)
 -->
<!-- Title: YouTubeAPI.hpp Pages: 1 -->
<svg width="3468pt" height="247pt"
 viewBox="0.00 0.00 3468.00 247.00" xmlns="http://www.w3.org/2000/svg" xmlns:xlink="http://www.w3.org/1999/xlink">
<g id="graph0" class="graph" transform="scale(1 1) rotate(0) translate(4 243)">
<title>YouTubeAPI.hpp</title>
<!-- Node1 -->
<g id="node1" class="node">
<title>Node1</title>
<g id="a_node1"><a xlink:title=" ">
<polygon fill="#999999" stroke="#666666" points="1734,-239 1645,-239 1645,-220 1734,-220 1734,-239"/>
<text text-anchor="middle" x="1689.5" y="-227" font-family="Helvetica,sans-Serif" font-size="10.00">YouTubeAPI.hpp</text>
</a>
</g>
</g>
<!-- Node2 -->
<g id="node2" class="node">
<title>Node2</title>
<g id="a_node2"><a xlink:href="_discord_core_client_8hpp.html" target="_top" xlink:title=" ">
<polygon fill="white" stroke="#666666" points="1704,-184 1591,-184 1591,-165 1704,-165 1704,-184"/>
<text text-anchor="middle" x="1647.5" y="-172" font-family="Helvetica,sans-Serif" font-size="10.00">DiscordCoreClient.hpp</text>
</a>
</g>
</g>
<!-- Node1&#45;&gt;Node2 -->
<g id="edge1" class="edge">
<title>Node1&#45;&gt;Node2</title>
<path fill="none" stroke="#63b8ff" d="M1676.17,-211.67C1668.89,-202.5 1660.2,-191.52 1654.31,-184.09"/>
<polygon fill="#63b8ff" stroke="#63b8ff" points="1673.61,-214.08 1682.56,-219.75 1679.1,-209.74 1673.61,-214.08"/>
</g>
<!-- Node10 -->
<g id="node10" class="node">
<title>Node10</title>
<g id="a_node10"><a xlink:href="_guild_entities_8cpp.html" target="_top" xlink:title=" ">
<polygon fill="white" stroke="#666666" points="91,-129 0,-129 0,-110 91,-110 91,-129"/>
<text text-anchor="middle" x="45.5" y="-117" font-family="Helvetica,sans-Serif" font-size="10.00">GuildEntities.cpp</text>
</a>
</g>
</g>
<!-- Node1&#45;&gt;Node10 -->
<g id="edge32" class="edge">
<title>Node1&#45;&gt;Node10</title>
<path fill="none" stroke="#63b8ff" d="M1634.65,-226.93C1430.99,-220.7 699.08,-194.8 99.5,-129 96.76,-128.7 93.96,-128.36 91.12,-127.99"/>
<polygon fill="#63b8ff" stroke="#63b8ff" points="1634.69,-230.43 1644.79,-227.24 1634.9,-223.43 1634.69,-230.43"/>
</g>
<!-- Node19 -->
<g id="node19" class="node">
<title>Node19</title>
<g id="a_node19"><a xlink:href="_song_a_p_i_8cpp.html" target="_top" xlink:title=" ">
<polygon fill="white" stroke="#666666" points="3352.5,-129 3278.5,-129 3278.5,-110 3352.5,-110 3352.5,-129"/>
<text text-anchor="middle" x="3315.5" y="-117" font-family="Helvetica,sans-Serif" font-size="10.00">SongAPI.cpp</text>
</a>
</g>
</g>
<!-- Node1&#45;&gt;Node19 -->
<g id="edge33" class="edge">
<title>Node1&#45;&gt;Node19</title>
<path fill="none" stroke="#63b8ff" d="M1744.41,-227.42C1947.47,-222.94 2674.95,-202.38 3269.5,-129 3272.4,-128.64 3275.4,-128.22 3278.4,-127.75"/>
<polygon fill="#63b8ff" stroke="#63b8ff" points="1744.22,-223.93 1734.29,-227.64 1744.37,-230.92 1744.22,-223.93"/>
</g>
<!-- Node32 -->
<g id="node32" class="node">
<title>Node32</title>
<g id="a_node32"><a xlink:href="_you_tube_a_p_i_8cpp.html" target="_top" xlink:title=" ">
<polygon fill="white" stroke="#666666" points="3460,-129 3371,-129 3371,-110 3460,-110 3460,-129"/>
<text text-anchor="middle" x="3415.5" y="-117" font-family="Helvetica,sans-Serif" font-size="10.00">YouTubeAPI.cpp</text>
</a>
</g>
</g>
<!-- Node1&#45;&gt;Node32 -->
<g id="edge34" class="edge">
<title>Node1&#45;&gt;Node32</title>
<path fill="none" stroke="#63b8ff" d="M1744.45,-227.6C1909.12,-224.64 2412.89,-213.64 2829.5,-184 3066.61,-167.13 3125.79,-159.71 3361.5,-129 3364.51,-128.61 3367.61,-128.18 3370.74,-127.73"/>
<polygon fill="#63b8ff" stroke="#63b8ff" points="1744.04,-224.11 1734.1,-227.79 1744.16,-231.11 1744.04,-224.11"/>
</g>
<!-- Node3 -->
<g id="node3" class="node">
<title>Node3</title>
<g id="a_node3"><a xlink:href="_application_command_entities_8cpp.html" target="_top" xlink:title=" ">
<polygon fill="white" stroke="#666666" points="2139,-129 1978,-129 1978,-110 2139,-110 2139,-129"/>
<text text-anchor="middle" x="2058.5" y="-117" font-family="Helvetica,sans-Serif" font-size="10.00">ApplicationCommandEntities.cpp</text>
</a>
</g>
</g>
<!-- Node2&#45;&gt;Node3 -->
<g id="edge2" class="edge">
<title>Node2&#45;&gt;Node3</title>
<path fill="none" stroke="#63b8ff" d="M1714.25,-164.89C1790.97,-155 1916.12,-138.86 1992.52,-129.01"/>
<polygon fill="#63b8ff" stroke="#63b8ff" points="1713.69,-161.44 1704.22,-166.19 1714.58,-168.38 1713.69,-161.44"/>
</g>
<!-- Node4 -->
<g id="node4" class="node">
<title>Node4</title>
<g id="a_node4"><a xlink:href="_auto_moderation_entities_8cpp.html" target="_top" xlink:title=" ">
<polygon fill="white" stroke="#666666" points="2294,-129 2157,-129 2157,-110 2294,-110 2294,-129"/>
<text text-anchor="middle" x="2225.5" y="-117" font-family="Helvetica,sans-Serif" font-size="10.00">AutoModerationEntities.cpp</text>
</a>
</g>
</g>
<!-- Node2&#45;&gt;Node4 -->
<g id="edge3" class="edge">
<title>Node2&#45;&gt;Node4</title>
<path fill="none" stroke="#63b8ff" d="M1714.28,-167.98C1810.2,-159.95 1992.49,-144.34 2147.5,-129 2150.48,-128.7 2153.53,-128.4 2156.6,-128.08"/>
<polygon fill="#63b8ff" stroke="#63b8ff" points="1713.82,-164.51 1704.15,-168.83 1714.4,-171.48 1713.82,-164.51"/>
</g>
<!-- Node5 -->
<g id="node5" class="node">
<title>Node5</title>
<g id="a_node5"><a xlink:href="_channel_entities_8cpp.html" target="_top" xlink:title=" ">
<polygon fill="white" stroke="#666666" points="2416.5,-129 2312.5,-129 2312.5,-110 2416.5,-110 2416.5,-129"/>
<text text-anchor="middle" x="2364.5" y="-117" font-family="Helvetica,sans-Serif" font-size="10.00">ChannelEntities.cpp</text>
</a>
</g>
</g>
<!-- Node2&#45;&gt;Node5 -->
<g id="edge4" class="edge">
<title>Node2&#45;&gt;Node5</title>
<path fill="none" stroke="#63b8ff" d="M1714.13,-170.48C1832.68,-164.78 2087.94,-150.97 2302.5,-129 2305.74,-128.67 2309.08,-128.3 2312.44,-127.9"/>
<polygon fill="#63b8ff" stroke="#63b8ff" points="1713.94,-166.99 1704.12,-170.96 1714.28,-173.98 1713.94,-166.99"/>
</g>
<!-- Node6 -->
<g id="node6" class="node">
<title>Node6</title>
<g id="a_node6"><a xlink:href="_command_controller_8cpp.html" target="_top" xlink:title=" ">
<polygon fill="white" stroke="#666666" points="2556,-129 2435,-129 2435,-110 2556,-110 2556,-129"/>
<text text-anchor="middle" x="2495.5" y="-117" font-family="Helvetica,sans-Serif" font-size="10.00">CommandController.cpp</text>
</a>
</g>
</g>
<!-- Node2&#45;&gt;Node6 -->
<g id="edge5" class="edge">
<title>Node2&#45;&gt;Node6</title>
<path fill="none" stroke="#63b8ff" d="M1714.37,-171.11C1849.12,-165.98 2162.83,-152.44 2425.5,-129 2428.55,-128.73 2431.67,-128.43 2434.82,-128.11"/>
<polygon fill="#63b8ff" stroke="#63b8ff" points="1714.07,-167.62 1704.21,-171.5 1714.33,-174.62 1714.07,-167.62"/>
</g>
<!-- Node7 -->
<g id="node7" class="node">
<title>Node7</title>
<g id="a_node7"><a xlink:href="_discord_core_client_8cpp.html" target="_top" xlink:title=" ">
<polygon fill="white" stroke="#666666" points="2687,-129 2574,-129 2574,-110 2687,-110 2687,-129"/>
<text text-anchor="middle" x="2630.5" y="-117" font-family="Helvetica,sans-Serif" font-size="10.00">DiscordCoreClient.cpp</text>
</a>
</g>
</g>
<!-- Node2&#45;&gt;Node7 -->
<g id="edge6" class="edge">
<title>Node2&#45;&gt;Node7</title>
<path fill="none" stroke="#63b8ff" d="M1714.29,-172.08C1865.78,-168.46 2246.92,-157.11 2564.5,-129 2567.49,-128.74 2570.56,-128.44 2573.65,-128.11"/>
<polygon fill="#63b8ff" stroke="#63b8ff" points="1714.13,-168.58 1704.22,-172.32 1714.3,-175.58 1714.13,-168.58"/>
</g>
<!-- Node8 -->
<g id="node8" class="node">
<title>Node8</title>
<g id="a_node8"><a xlink:href="_event_manager_8cpp.html" target="_top" xlink:title=" ">
<polygon fill="white" stroke="#666666" points="2802,-129 2705,-129 2705,-110 2802,-110 2802,-129"/>
<text text-anchor="middle" x="2753.5" y="-117" font-family="Helvetica,sans-Serif" font-size="10.00">EventManager.cpp</text>
</a>
</g>
</g>
<!-- Node2&#45;&gt;Node8 -->
<g id="edge7" class="edge">
<title>Node2&#45;&gt;Node8</title>
<path fill="none" stroke="#63b8ff" d="M1714.22,-173.05C1880.38,-171.41 2325.9,-163.84 2695.5,-129 2698.54,-128.71 2701.66,-128.38 2704.81,-128.01"/>
<polygon fill="#63b8ff" stroke="#63b8ff" points="1714.12,-169.55 1704.16,-173.14 1714.19,-176.55 1714.12,-169.55"/>
</g>
<!-- Node9 -->
<g id="node9" class="node">
<title>Node9</title>
<g id="a_node9"><a xlink:href="_foundation_entities_8cpp.html" target="_top" xlink:title=" ">
<polygon fill="white" stroke="#666666" points="2936.5,-129 2820.5,-129 2820.5,-110 2936.5,-110 2936.5,-129"/>
<text text-anchor="middle" x="2878.5" y="-117" font-family="Helvetica,sans-Serif" font-size="10.00">FoundationEntities.cpp</text>
</a>
</g>
</g>
<!-- Node2&#45;&gt;Node9 -->
<g id="edge8" class="edge">
<title>Node2&#45;&gt;Node9</title>
<path fill="none" stroke="#63b8ff" d="M1714.19,-172.96C1892.39,-171.07 2394.4,-162.9 2810.5,-129 2813.7,-128.74 2816.98,-128.44 2820.3,-128.11"/>
<polygon fill="#63b8ff" stroke="#63b8ff" points="1714.14,-169.46 1704.18,-173.06 1714.22,-176.46 1714.14,-169.46"/>
</g>
<!-- Node2&#45;&gt;Node10 -->
<g id="edge9" class="edge">
<title>Node2&#45;&gt;Node10</title>
<path fill="none" stroke="#63b8ff" d="M1580.27,-172.71C1322.02,-169.49 393.42,-156.25 99.5,-129 96.76,-128.75 93.95,-128.44 91.11,-128.1"/>
<polygon fill="#63b8ff" stroke="#63b8ff" points="1580.58,-176.21 1590.62,-172.84 1580.67,-169.21 1580.58,-176.21"/>
</g>
<!-- Node11 -->
<g id="node11" class="node">
<title>Node11</title>
<g id="a_node11"><a xlink:href="_guild_member_entities_8cpp.html" target="_top" xlink:title=" ">
<polygon fill="white" stroke="#666666" points="3080.5,-129 2954.5,-129 2954.5,-110 3080.5,-110 3080.5,-129"/>
<text text-anchor="middle" x="3017.5" y="-117" font-family="Helvetica,sans-Serif" font-size="10.00">GuildMemberEntities.cpp</text>
</a>
</g>
</g>
<!-- Node2&#45;&gt;Node11 -->
<g id="edge10" class="edge">
<title>Node2&#45;&gt;Node11</title>
<path fill="none" stroke="#63b8ff" d="M1714.42,-173.17C1906.33,-171.8 2474.99,-164.78 2945.5,-129 2948.39,-128.78 2951.34,-128.53 2954.31,-128.26"/>
<polygon fill="#63b8ff" stroke="#63b8ff" points="1714.18,-169.67 1704.21,-173.24 1714.23,-176.67 1714.18,-169.67"/>
</g>
<!-- Node12 -->
<g id="node12" class="node">
<title>Node12</title>
<g id="a_node12"><a xlink:href="_guild_scheduled_event_entities_8cpp.html" target="_top" xlink:title=" ">
<polygon fill="white" stroke="#666666" points="3260,-129 3099,-129 3099,-110 3260,-110 3260,-129"/>
<text text-anchor="middle" x="3179.5" y="-117" font-family="Helvetica,sans-Serif" font-size="10.00">GuildScheduledEventEntities.cpp</text>
</a>
</g>
</g>
<!-- Node2&#45;&gt;Node12 -->
<g id="edge11" class="edge">
<title>Node2&#45;&gt;Node12</title>
<path fill="none" stroke="#63b8ff" d="M1714.27,-172.94C1919.63,-170.9 2560.05,-162.14 3089.5,-129 3092.48,-128.81 3095.51,-128.61 3098.57,-128.39"/>
<polygon fill="#63b8ff" stroke="#63b8ff" points="1714.21,-169.44 1704.24,-173.04 1714.28,-176.44 1714.21,-169.44"/>
</g>
<!-- Node13 -->
<g id="node13" class="node">
<title>Node13</title>
<g id="a_node13"><a xlink:href="_https_client_8cpp.html" target="_top" xlink:title=" ">
<polygon fill="white" stroke="#666666" points="192,-129 109,-129 109,-110 192,-110 192,-129"/>
<text text-anchor="middle" x="150.5" y="-117" font-family="Helvetica,sans-Serif" font-size="10.00">HttpsClient.cpp</text>
</a>
</g>
</g>
<!-- Node2&#45;&gt;Node13 -->
<g id="edge12" class="edge">
<title>Node2&#45;&gt;Node13</title>
<path fill="none" stroke="#63b8ff" d="M1580.62,-172.64C1333.82,-169.26 474.41,-155.82 201.5,-129 198.46,-128.7 195.33,-128.33 192.19,-127.92"/>
<polygon fill="#63b8ff" stroke="#63b8ff" points="1580.83,-176.14 1590.88,-172.78 1580.92,-169.14 1580.83,-176.14"/>
</g>
<!-- Node14 -->
<g id="node14" class="node">
<title>Node14</title>
<g id="a_node14"><a xlink:href="_input_events_8cpp.html" target="_top" xlink:title=" ">
<polygon fill="white" stroke="#666666" points="296.5,-129 210.5,-129 210.5,-110 296.5,-110 296.5,-129"/>
<text text-anchor="middle" x="253.5" y="-117" font-family="Helvetica,sans-Serif" font-size="10.00">InputEvents.cpp</text>
</a>
</g>
</g>
<!-- Node2&#45;&gt;Node14 -->
<g id="edge13" class="edge">
<title>Node2&#45;&gt;Node14</title>
<path fill="none" stroke="#63b8ff" d="M1580.76,-172.43C1345.73,-168.47 557.11,-153.63 305.5,-129 302.59,-128.71 299.59,-128.37 296.57,-127.98"/>
<polygon fill="#63b8ff" stroke="#63b8ff" points="1580.81,-175.93 1590.87,-172.6 1580.93,-168.93 1580.81,-175.93"/>
</g>
<!-- Node15 -->
<g id="node15" class="node">
<title>Node15</title>
<g id="a_node15"><a xlink:href="_interaction_entities_8cpp.html" target="_top" xlink:title=" ">
<polygon fill="white" stroke="#666666" points="428,-129 315,-129 315,-110 428,-110 428,-129"/>
<text text-anchor="middle" x="371.5" y="-117" font-family="Helvetica,sans-Serif" font-size="10.00">InteractionEntities.cpp</text>
</a>
</g>
</g>
<!-- Node2&#45;&gt;Node15 -->
<g id="edge14" class="edge">
<title>Node2&#45;&gt;Node15</title>
<path fill="none" stroke="#63b8ff" d="M1580.73,-173.18C1397.65,-171.85 872.41,-164.93 437.5,-129 434.51,-128.75 431.44,-128.47 428.35,-128.16"/>
<polygon fill="#63b8ff" stroke="#63b8ff" points="1580.97,-176.68 1591,-173.25 1581.02,-169.68 1580.97,-176.68"/>
</g>
<!-- Node16 -->
<g id="node16" class="node">
<title>Node16</title>
<g id="a_node16"><a xlink:href="_message_entities_8cpp.html" target="_top" xlink:title=" ">
<polygon fill="white" stroke="#666666" points="554.5,-129 446.5,-129 446.5,-110 554.5,-110 554.5,-129"/>
<text text-anchor="middle" x="500.5" y="-117" font-family="Helvetica,sans-Serif" font-size="10.00">MessageEntities.cpp</text>
</a>
</g>
</g>
<!-- Node2&#45;&gt;Node16 -->
<g id="edge15" class="edge">
<title>Node2&#45;&gt;Node16</title>
<path fill="none" stroke="#63b8ff" d="M1580.92,-172.92C1411.04,-170.98 947.8,-162.74 563.5,-129 560.64,-128.75 557.71,-128.46 554.76,-128.15"/>
<polygon fill="#63b8ff" stroke="#63b8ff" points="1580.92,-176.42 1590.96,-173.03 1581,-169.42 1580.92,-176.42"/>
</g>
<!-- Node17 -->
<g id="node17" class="node">
<title>Node17</title>
<g id="a_node17"><a xlink:href="_reaction_entities_8cpp.html" target="_top" xlink:title=" ">
<polygon fill="white" stroke="#666666" points="680,-129 573,-129 573,-110 680,-110 680,-129"/>
<text text-anchor="middle" x="626.5" y="-117" font-family="Helvetica,sans-Serif" font-size="10.00">ReactionEntities.cpp</text>
</a>
</g>
</g>
<!-- Node2&#45;&gt;Node17 -->
<g id="edge16" class="edge">
<title>Node2&#45;&gt;Node17</title>
<path fill="none" stroke="#63b8ff" d="M1580.58,-172.41C1424.29,-169.42 1023.22,-159.2 689.5,-129 686.42,-128.72 683.26,-128.4 680.08,-128.05"/>
<polygon fill="#63b8ff" stroke="#63b8ff" points="1580.9,-175.92 1590.96,-172.6 1581.03,-168.92 1580.9,-175.92"/>
</g>
<!-- Node18 -->
<g id="node18" class="node">
<title>Node18</title>
<g id="a_node18"><a xlink:href="_role_entities_8cpp.html" target="_top" xlink:title=" ">
<polygon fill="white" stroke="#666666" points="786.5,-129 698.5,-129 698.5,-110 786.5,-110 786.5,-129"/>
<text text-anchor="middle" x="742.5" y="-117" font-family="Helvetica,sans-Serif" font-size="10.00">RoleEntities.cpp</text>
</a>
</g>
</g>
<!-- Node2&#45;&gt;Node18 -->
<g id="edge17" class="edge">
<title>Node2&#45;&gt;Node18</title>
<path fill="none" stroke="#63b8ff" d="M1580.76,-172.44C1436.88,-169.62 1086.96,-159.89 795.5,-129 792.63,-128.7 789.67,-128.34 786.7,-127.95"/>
<polygon fill="#63b8ff" stroke="#63b8ff" points="1580.69,-175.94 1590.75,-172.63 1580.82,-168.94 1580.69,-175.94"/>
</g>
<!-- Node2&#45;&gt;Node19 -->
<g id="edge18" class="edge">
<title>Node2&#45;&gt;Node19</title>
<path fill="none" stroke="#63b8ff" d="M1714.41,-173.05C1980.02,-171.05 2960.56,-161.58 3269.5,-129 3272.41,-128.69 3275.41,-128.3 3278.42,-127.86"/>
<polygon fill="#63b8ff" stroke="#63b8ff" points="1714.12,-169.55 1704.15,-173.13 1714.18,-176.55 1714.12,-169.55"/>
</g>
<!-- Node20 -->
<g id="node20" class="node">
<title>Node20</title>
<g id="a_node20"><a xlink:href="_sound_cloud_a_p_i_8cpp.html" target="_top" xlink:title=" ">
<polygon fill="white" stroke="#666666" points="908.5,-129 804.5,-129 804.5,-110 908.5,-110 908.5,-129"/>
<text text-anchor="middle" x="856.5" y="-117" font-family="Helvetica,sans-Serif" font-size="10.00">SoundCloudAPI.cpp</text>
</a>
</g>
</g>
<!-- Node2&#45;&gt;Node20 -->
<g id="edge19" class="edge">
<title>Node2&#45;&gt;Node20</title>
<path fill="none" stroke="#63b8ff" d="M1580.49,-171.15C1451.76,-166.26 1161.06,-153.36 917.5,-129 914.63,-128.71 911.68,-128.39 908.71,-128.05"/>
<polygon fill="#63b8ff" stroke="#63b8ff" points="1580.46,-174.66 1590.59,-171.53 1580.73,-167.66 1580.46,-174.66"/>
</g>
<!-- Node21 -->
<g id="node21" class="node">
<title>Node21</title>
<g id="a_node21"><a xlink:href="_stage_instance_entities_8cpp.html" target="_top" xlink:title=" ">
<polygon fill="white" stroke="#666666" points="1058,-129 927,-129 927,-110 1058,-110 1058,-129"/>
<text text-anchor="middle" x="992.5" y="-117" font-family="Helvetica,sans-Serif" font-size="10.00">StageInstanceEntities.cpp</text>
</a>
</g>
</g>
<!-- Node2&#45;&gt;Node21 -->
<g id="edge20" class="edge">
<title>Node2&#45;&gt;Node21</title>
<path fill="none" stroke="#63b8ff" d="M1580.84,-169.22C1472.75,-162.09 1252.59,-146.81 1066.5,-129 1063.8,-128.74 1061.04,-128.47 1058.25,-128.18"/>
<polygon fill="#63b8ff" stroke="#63b8ff" points="1580.74,-172.72 1590.94,-169.88 1581.2,-165.74 1580.74,-172.72"/>
</g>
<!-- Node22 -->
<g id="node22" class="node">
<title>Node22</title>
<g id="a_node22"><a xlink:href="_sticker_entities_8cpp.html" target="_top" xlink:title=" ">
<polygon fill="white" stroke="#666666" points="1175,-129 1076,-129 1076,-110 1175,-110 1175,-129"/>
<text text-anchor="middle" x="1125.5" y="-117" font-family="Helvetica,sans-Serif" font-size="10.00">StickerEntities.cpp</text>
</a>
</g>
</g>
<!-- Node2&#45;&gt;Node22 -->
<g id="edge21" class="edge">
<title>Node2&#45;&gt;Node22</title>
<path fill="none" stroke="#63b8ff" d="M1580.67,-168.07C1490.57,-160.53 1325.2,-145.89 1184.5,-129 1181.42,-128.63 1178.25,-128.23 1175.05,-127.81"/>
<polygon fill="#63b8ff" stroke="#63b8ff" points="1580.49,-171.57 1590.74,-168.91 1581.07,-164.6 1580.49,-171.57"/>
</g>
<!-- Node23 -->
<g id="node23" class="node">
<title>Node23</title>
<g id="a_node23"><a xlink:href="_thread_entities_8cpp.html" target="_top" xlink:title=" ">
<polygon fill="white" stroke="#666666" points="1291.5,-129 1193.5,-129 1193.5,-110 1291.5,-110 1291.5,-129"/>
<text text-anchor="middle" x="1242.5" y="-117" font-family="Helvetica,sans-Serif" font-size="10.00">ThreadEntities.cpp</text>
</a>
</g>
</g>
<!-- Node2&#45;&gt;Node23 -->
<g id="edge22" class="edge">
<title>Node2&#45;&gt;Node23</title>
<path fill="none" stroke="#63b8ff" d="M1580.97,-165.33C1511.09,-156.66 1398,-142.39 1300.5,-129 1297.58,-128.6 1294.57,-128.18 1291.54,-127.75"/>
<polygon fill="#63b8ff" stroke="#63b8ff" points="1580.61,-168.81 1590.96,-166.57 1581.47,-161.86 1580.61,-168.81"/>
</g>
<!-- Node24 -->
<g id="node24" class="node">
<title>Node24</title>
<g id="a_node24"><a xlink:href="_to_entity_8hpp.html" target="_top" xlink:title=" ">
<polygon fill="white" stroke="#666666" points="1381,-129 1310,-129 1310,-110 1381,-110 1381,-129"/>
<text text-anchor="middle" x="1345.5" y="-117" font-family="Helvetica,sans-Serif" font-size="10.00">ToEntity.hpp</text>
</a>
</g>
</g>
<!-- Node2&#45;&gt;Node24 -->
<g id="edge23" class="edge">
<title>Node2&#45;&gt;Node24</title>
<path fill="none" stroke="#63b8ff" d="M1585.93,-163.24C1533.62,-154.43 1456.57,-141.26 1389.5,-129 1386.74,-128.5 1383.89,-127.97 1381.03,-127.43"/>
<polygon fill="#63b8ff" stroke="#63b8ff" points="1585.61,-166.73 1596.05,-164.94 1586.77,-159.83 1585.61,-166.73"/>
</g>
<!-- Node27 -->
<g id="node27" class="node">
<title>Node27</title>
<g id="a_node27"><a xlink:href="_user_entities_8cpp.html" target="_top" xlink:title=" ">
<polygon fill="white" stroke="#666666" points="1488,-129 1399,-129 1399,-110 1488,-110 1488,-129"/>
<text text-anchor="middle" x="1443.5" y="-117" font-family="Helvetica,sans-Serif" font-size="10.00">UserEntities.cpp</text>
</a>
</g>
</g>
<!-- Node2&#45;&gt;Node27 -->
<g id="edge26" class="edge">
<title>Node2&#45;&gt;Node27</title>
<path fill="none" stroke="#63b8ff" d="M1604.92,-162.44C1566.73,-152.52 1511.48,-138.16 1476.53,-129.08"/>
<polygon fill="#63b8ff" stroke="#63b8ff" points="1604.17,-165.86 1614.72,-164.98 1605.93,-159.08 1604.17,-165.86"/>
</g>
<!-- Node28 -->
<g id="node28" class="node">
<title>Node28</title>
<g id="a_node28"><a xlink:href="_utilities_8cpp.html" target="_top" xlink:title=" ">
<polygon fill="white" stroke="#666666" points="1574.5,-129 1506.5,-129 1506.5,-110 1574.5,-110 1574.5,-129"/>
<text text-anchor="middle" x="1540.5" y="-117" font-family="Helvetica,sans-Serif" font-size="10.00">Utilities.cpp</text>
</a>
</g>
</g>
<!-- Node2&#45;&gt;Node28 -->
<g id="edge27" class="edge">
<title>Node2&#45;&gt;Node28</title>
<path fill="none" stroke="#63b8ff" d="M1621.26,-160.5C1601.57,-150.75 1575.18,-137.68 1558,-129.17"/>
<polygon fill="#63b8ff" stroke="#63b8ff" points="1619.79,-163.68 1630.31,-164.98 1622.9,-157.41 1619.79,-163.68"/>
</g>
<!-- Node29 -->
<g id="node29" class="node">
<title>Node29</title>
<g id="a_node29"><a xlink:href="_voice_connection_8cpp.html" target="_top" xlink:title=" ">
<polygon fill="white" stroke="#666666" points="1702,-129 1593,-129 1593,-110 1702,-110 1702,-129"/>
<text text-anchor="middle" x="1647.5" y="-117" font-family="Helvetica,sans-Serif" font-size="10.00">VoiceConnection.cpp</text>
</a>
</g>
</g>
<!-- Node2&#45;&gt;Node29 -->
<g id="edge28" class="edge">
<title>Node2&#45;&gt;Node29</title>
<path fill="none" stroke="#63b8ff" d="M1647.5,-154.66C1647.5,-145.93 1647.5,-135.99 1647.5,-129.09"/>
<polygon fill="#63b8ff" stroke="#63b8ff" points="1644,-154.75 1647.5,-164.75 1651,-154.75 1644,-154.75"/>
</g>
<!-- Node30 -->
<g id="node30" class="node">
<title>Node30</title>
<g id="a_node30"><a xlink:href="_web_hook_entities_8cpp.html" target="_top" xlink:title=" ">
<polygon fill="white" stroke="#666666" points="1831,-129 1720,-129 1720,-110 1831,-110 1831,-129"/>
<text text-anchor="middle" x="1775.5" y="-117" font-family="Helvetica,sans-Serif" font-size="10.00">WebHookEntities.cpp</text>
</a>
</g>
</g>
<!-- Node2&#45;&gt;Node30 -->
<g id="edge29" class="edge">
<title>Node2&#45;&gt;Node30</title>
<path fill="none" stroke="#63b8ff" d="M1677.62,-161.03C1701.29,-151.23 1733.65,-137.83 1754.56,-129.17"/>
<polygon fill="#63b8ff" stroke="#63b8ff" points="1675.97,-157.93 1668.07,-164.98 1678.64,-164.39 1675.97,-157.93"/>
</g>
<!-- Node31 -->
<g id="node31" class="node">
<title>Node31</title>
<g id="a_node31"><a xlink:href="_web_socket_client_8cpp.html" target="_top" xlink:title=" ">
<polygon fill="white" stroke="#666666" points="1960,-129 1849,-129 1849,-110 1960,-110 1960,-129"/>
<text text-anchor="middle" x="1904.5" y="-117" font-family="Helvetica,sans-Serif" font-size="10.00">WebSocketClient.cpp</text>
</a>
</g>
</g>
<!-- Node2&#45;&gt;Node31 -->
<g id="edge30" class="edge">
<title>Node2&#45;&gt;Node31</title>
<path fill="none" stroke="#63b8ff" d="M1698.7,-162.94C1746.88,-153.01 1818.12,-138.31 1862.88,-129.08"/>
<polygon fill="#63b8ff" stroke="#63b8ff" points="1697.88,-159.54 1688.79,-164.98 1699.29,-166.39 1697.88,-159.54"/>
</g>
<!-- Node2&#45;&gt;Node32 -->
<g id="edge31" class="edge">
<title>Node2&#45;&gt;Node32</title>
<path fill="none" stroke="#63b8ff" d="M1714.51,-172.93C1989.61,-170.4 3033.16,-158.98 3361.5,-129 3364.52,-128.72 3367.64,-128.38 3370.77,-128"/>
<polygon fill="#63b8ff" stroke="#63b8ff" points="1714.25,-169.43 1704.28,-173.02 1714.31,-176.43 1714.25,-169.43"/>
</g>
<!-- Node25 -->
<g id="node25" class="node">
<title>Node25</title>
<g id="a_node25"><a xlink:href="_index_8hpp.html" target="_top" xlink:title=" ">
<polygon fill="white" stroke="#666666" points="1375,-74 1316,-74 1316,-55 1375,-55 1375,-74"/>
<text text-anchor="middle" x="1345.5" y="-62" font-family="Helvetica,sans-Serif" font-size="10.00">Index.hpp</text>
</a>
</g>
</g>
<!-- Node24&#45;&gt;Node25 -->
<g id="edge24" class="edge">
<title>Node24&#45;&gt;Node25</title>
<path fill="none" stroke="#63b8ff" d="M1345.5,-99.66C1345.5,-90.93 1345.5,-80.99 1345.5,-74.09"/>
<polygon fill="#63b8ff" stroke="#63b8ff" points="1342,-99.75 1345.5,-109.75 1349,-99.75 1342,-99.75"/>
</g>
<!-- Node26 -->
<g id="node26" class="node">
<title>Node26</title>
<g id="a_node26"><a xlink:href="_dll_main_8cpp.html" target="_top" xlink:title=" ">
<polygon fill="white" stroke="#666666" points="1379.5,-19 1311.5,-19 1311.5,0 1379.5,0 1379.5,-19"/>
<text text-anchor="middle" x="1345.5" y="-7" font-family="Helvetica,sans-Serif" font-size="10.00">DllMain.cpp</text>
</a>
</g>
</g>
<!-- Node25&#45;&gt;Node26 -->
<g id="edge25" class="edge">
<title>Node25&#45;&gt;Node26</title>
<path fill="none" stroke="#63b8ff" d="M1345.5,-44.66C1345.5,-35.93 1345.5,-25.99 1345.5,-19.09"/>
<polygon fill="#63b8ff" stroke="#63b8ff" points="1342,-44.75 1345.5,-54.75 1349,-44.75 1342,-44.75"/>
</g>
</g>
</svg>
