<?xml version="1.0" encoding="UTF-8" standalone="no"?>
<!DOCTYPE svg PUBLIC "-//W3C//DTD SVG 1.1//EN"
 "http://www.w3.org/Graphics/SVG/1.1/DTD/svg11.dtd">
<!-- Generated by graphviz version 5.0.0 (20220707.1540)
 -->
<!-- Title: discord_core_api::button_collector::button_collector Pages: 1 -->
<svg width="331pt" height="86pt"
 viewBox="0.00 0.00 331.00 86.00" xmlns="http://www.w3.org/2000/svg" xmlns:xlink="http://www.w3.org/1999/xlink">
<g id="graph0" class="graph" transform="scale(1 1) rotate(0) translate(4 82)">
<title>discord_core_api::button_collector::button_collector</title>
<!-- Node1 -->
<g id="node1" class="node">
<title>Node1</title>
<g id="a_node1"><a xlink:title="Constructor.">
<polygon fill="#999999" stroke="#666666" points="134,-54 0,-54 0,-24 134,-24 134,-54"/>
<text text-anchor="start" x="8" y="-42" font-family="Helvetica,sans-Serif" font-size="10.00">discord_core_api::button</text>
<text text-anchor="middle" x="67" y="-31" font-family="Helvetica,sans-Serif" font-size="10.00">_collector::button_collector</text>
</a>
</g>
</g>
<!-- Node2 -->
<g id="node2" class="node">
<title>Node2</title>
<g id="a_node2"><a xlink:href="classdiscord__core__api_1_1input__event__data.html#a90b36195d32d224726f0984d04a8a3d0" target="_top" xlink:title="Returns the interaction data, if appplicable, of this input&#45;event.">
<polygon fill="white" stroke="#666666" points="323,-78 170,-78 170,-48 323,-48 323,-78"/>
<text text-anchor="start" x="178" y="-66" font-family="Helvetica,sans-Serif" font-size="10.00">discord_core_api::input</text>
<text text-anchor="middle" x="246.5" y="-55" font-family="Helvetica,sans-Serif" font-size="10.00">_event_data::getInteractionData</text>
</a>
</g>
</g>
<!-- Node1&#45;&gt;Node2 -->
<g id="edge1" class="edge">
<title>Node1&#45;&gt;Node2</title>
<path fill="none" stroke="#63b8ff" d="M134.09,-47.94C142.45,-49.07 151.1,-50.24 159.71,-51.4"/>
<polygon fill="#63b8ff" stroke="#63b8ff" points="159.4,-54.89 169.78,-52.76 160.34,-47.95 159.4,-54.89"/>
</g>
<!-- Node3 -->
<g id="node3" class="node">
<title>Node3</title>
<g id="a_node3"><a xlink:href="classdiscord__core__api_1_1input__event__data.html#ab71fbb92479aa72ddee7299c2895719f" target="_top" xlink:title="Returns the message data, if applicable, of this input&#45;event.">
<polygon fill="white" stroke="#666666" points="320.5,-30 172.5,-30 172.5,0 320.5,0 320.5,-30"/>
<text text-anchor="start" x="180.5" y="-18" font-family="Helvetica,sans-Serif" font-size="10.00">discord_core_api::input</text>
<text text-anchor="middle" x="246.5" y="-7" font-family="Helvetica,sans-Serif" font-size="10.00">_event_data::getMessageData</text>
</a>
</g>
</g>
<!-- Node1&#45;&gt;Node3 -->
<g id="edge2" class="edge">
<title>Node1&#45;&gt;Node3</title>
<path fill="none" stroke="#63b8ff" d="M134.09,-30.06C143.29,-28.82 152.83,-27.53 162.28,-26.25"/>
<polygon fill="#63b8ff" stroke="#63b8ff" points="163.05,-29.68 172.49,-24.87 162.11,-22.74 163.05,-29.68"/>
</g>
</g>
</svg>
