<?xml version="1.0" encoding="UTF-8" standalone="no"?>
<!DOCTYPE svg PUBLIC "-//W3C//DTD SVG 1.1//EN"
 "http://www.w3.org/Graphics/SVG/1.1/DTD/svg11.dtd">
<!-- Generated by graphviz version 5.0.0 (20220707.1540)
 -->
<!-- Title: discord_core_api::time_stamp_base::getTimeSinceEpoch Pages: 1 -->
<svg width="739pt" height="194pt"
 viewBox="0.00 0.00 739.00 194.00" xmlns="http://www.w3.org/2000/svg" xmlns:xlink="http://www.w3.org/1999/xlink">
<g id="graph0" class="graph" transform="scale(1 1) rotate(0) translate(4 190)">
<title>discord_core_api::time_stamp_base::getTimeSinceEpoch</title>
<!-- Node1 -->
<g id="node1" class="node">
<title>Node1</title>
<g id="a_node1"><a xlink:title="Gets the time since the unix epoch for the specified date and time.">
<polygon fill="#999999" stroke="#666666" points="731,-94.5 563,-94.5 563,-64.5 731,-64.5 731,-94.5"/>
<text text-anchor="start" x="571" y="-82.5" font-family="Helvetica,sans-Serif" font-size="10.00">discord_core_api::time</text>
<text text-anchor="middle" x="647" y="-71.5" font-family="Helvetica,sans-Serif" font-size="10.00">_stamp_base::getTimeSinceEpoch</text>
</a>
</g>
</g>
<!-- Node2 -->
<g id="node2" class="node">
<title>Node2</title>
<g id="a_node2"><a xlink:href="classdiscord__core__api_1_1time__stamp__base.html#adb6cb1d482b99d0d9be5b35dbfaa20fe" target="_top" xlink:title="Converts a string time stamp into a uint64_t time value.">
<polygon fill="white" stroke="#666666" points="527,-159 366,-159 366,-118 527,-118 527,-159"/>
<text text-anchor="start" x="374" y="-147" font-family="Helvetica,sans-Serif" font-size="10.00">discord_core_api::time</text>
<text text-anchor="start" x="374" y="-136" font-family="Helvetica,sans-Serif" font-size="10.00">_stamp_base::convertTimeStamp</text>
<text text-anchor="middle" x="446.5" y="-125" font-family="Helvetica,sans-Serif" font-size="10.00">ToTimeUnits</text>
</a>
</g>
</g>
<!-- Node1&#45;&gt;Node2 -->
<g id="edge1" class="edge">
<title>Node1&#45;&gt;Node2</title>
<path fill="none" stroke="#63b8ff" d="M585.63,-97.44C563.88,-103.91 539.18,-111.25 516.73,-117.92"/>
<polygon fill="#63b8ff" stroke="#63b8ff" points="586.81,-100.74 595.4,-94.54 584.81,-94.04 586.81,-100.74"/>
</g>
<!-- Node6 -->
<g id="node6" class="node">
<title>Node6</title>
<g id="a_node6"><a xlink:href="classdiscord__core__api_1_1time__stamp__base.html#a6147253339945417c491610c61122b1f" target="_top" xlink:title="Converts the current time into an iso8601 time stamp.">
<polygon fill="white" stroke="#666666" points="523.5,-100 369.5,-100 369.5,-59 523.5,-59 523.5,-100"/>
<text text-anchor="start" x="377.5" y="-88" font-family="Helvetica,sans-Serif" font-size="10.00">discord_core_api::time</text>
<text text-anchor="start" x="377.5" y="-77" font-family="Helvetica,sans-Serif" font-size="10.00">_stamp_base::convertToCurrent</text>
<text text-anchor="middle" x="446.5" y="-66" font-family="Helvetica,sans-Serif" font-size="10.00">ISO8601TimeStamp</text>
</a>
</g>
</g>
<!-- Node1&#45;&gt;Node6 -->
<g id="edge5" class="edge">
<title>Node1&#45;&gt;Node6</title>
<path fill="none" stroke="#63b8ff" d="M552.8,-79.5C543,-79.5 533.12,-79.5 523.55,-79.5"/>
<polygon fill="#63b8ff" stroke="#63b8ff" points="552.97,-83 562.97,-79.5 552.97,-76 552.97,-83"/>
</g>
<!-- Node7 -->
<g id="node7" class="node">
<title>Node7</title>
<g id="a_node7"><a xlink:href="classdiscord__core__api_1_1time__stamp__base.html#af63f669a86beebdca4d90598394b275e" target="_top" xlink:title="Converts given time values into a future iso8601 time stamp.">
<polygon fill="white" stroke="#666666" points="521.5,-41 371.5,-41 371.5,0 521.5,0 521.5,-41"/>
<text text-anchor="start" x="379.5" y="-29" font-family="Helvetica,sans-Serif" font-size="10.00">discord_core_api::time</text>
<text text-anchor="start" x="379.5" y="-18" font-family="Helvetica,sans-Serif" font-size="10.00">_stamp_base::convertToFuture</text>
<text text-anchor="middle" x="446.5" y="-7" font-family="Helvetica,sans-Serif" font-size="10.00">ISO8601TimeStamp</text>
</a>
</g>
</g>
<!-- Node1&#45;&gt;Node7 -->
<g id="edge6" class="edge">
<title>Node1&#45;&gt;Node7</title>
<path fill="none" stroke="#63b8ff" d="M585.63,-61.56C563.88,-55.09 539.18,-47.75 516.73,-41.08"/>
<polygon fill="#63b8ff" stroke="#63b8ff" points="584.81,-64.96 595.4,-64.46 586.81,-58.26 584.81,-64.96"/>
</g>
<!-- Node3 -->
<g id="node3" class="node">
<title>Node3</title>
<g id="a_node3"><a xlink:href="classdiscord__core__api_1_1time__stamp__base.html#ab72c67b0e9eae765528653a27e019720" target="_top" xlink:title="Converts a string time stamp into a uint64_t time value.">
<polygon fill="white" stroke="#666666" points="327.5,-186 179.5,-186 179.5,-145 327.5,-145 327.5,-186"/>
<text text-anchor="start" x="187.5" y="-174" font-family="Helvetica,sans-Serif" font-size="10.00">discord_core_api::time</text>
<text text-anchor="start" x="187.5" y="-163" font-family="Helvetica,sans-Serif" font-size="10.00">_stamp_base::convertStringTo</text>
<text text-anchor="middle" x="253.5" y="-152" font-family="Helvetica,sans-Serif" font-size="10.00">UintTimeStamp</text>
</a>
</g>
</g>
<!-- Node2&#45;&gt;Node3 -->
<g id="edge2" class="edge">
<title>Node2&#45;&gt;Node3</title>
<path fill="none" stroke="#63b8ff" d="M355.7,-151.19C346.28,-152.53 336.78,-153.87 327.58,-155.17"/>
<polygon fill="#63b8ff" stroke="#63b8ff" points="356.47,-154.62 365.88,-149.75 355.49,-147.69 356.47,-154.62"/>
</g>
<!-- Node4 -->
<g id="node4" class="node">
<title>Node4</title>
<g id="a_node4"><a xlink:href="classdiscord__core__api_1_1time__stamp__base.html#ad0216deb6195100d9e00a5e915dc54e9" target="_top" xlink:title="Checks if a certain time duration has elapsed.">
<polygon fill="white" stroke="#666666" points="330,-126.5 177,-126.5 177,-96.5 330,-96.5 330,-126.5"/>
<text text-anchor="start" x="185" y="-114.5" font-family="Helvetica,sans-Serif" font-size="10.00">discord_core_api::time</text>
<text text-anchor="middle" x="253.5" y="-103.5" font-family="Helvetica,sans-Serif" font-size="10.00">_stamp_base::hasTimeElapsed</text>
</a>
</g>
</g>
<!-- Node2&#45;&gt;Node4 -->
<g id="edge3" class="edge">
<title>Node2&#45;&gt;Node4</title>
<path fill="none" stroke="#63b8ff" d="M355.8,-125.82C347.17,-124.6 338.48,-123.37 330.01,-122.17"/>
<polygon fill="#63b8ff" stroke="#63b8ff" points="355.49,-129.31 365.88,-127.25 356.47,-122.38 355.49,-129.31"/>
</g>
<!-- Node5 -->
<g id="node5" class="node">
<title>Node5</title>
<g id="a_node5"><a xlink:href="classdiscord__core__api_1_1messages.html#ab824032cc6936d2c0aa8375f0a209040" target="_top" xlink:title="Deletes a message.">
<polygon fill="white" stroke="#666666" points="141,-126.5 0,-126.5 0,-96.5 141,-96.5 141,-126.5"/>
<text text-anchor="start" x="8" y="-114.5" font-family="Helvetica,sans-Serif" font-size="10.00">discord_core_api::messages</text>
<text text-anchor="middle" x="70.5" y="-103.5" font-family="Helvetica,sans-Serif" font-size="10.00">::deleteMessageAsync</text>
</a>
</g>
</g>
<!-- Node4&#45;&gt;Node5 -->
<g id="edge4" class="edge">
<title>Node4&#45;&gt;Node5</title>
<path fill="none" stroke="#63b8ff" d="M166.75,-111.5C158.17,-111.5 149.52,-111.5 141.13,-111.5"/>
<polygon fill="#63b8ff" stroke="#63b8ff" points="166.79,-115 176.79,-111.5 166.79,-108 166.79,-115"/>
</g>
</g>
</svg>
