<?xml version="1.0" encoding="UTF-8" standalone="no"?>
<!DOCTYPE svg PUBLIC "-//W3C//DTD SVG 1.1//EN"
 "http://www.w3.org/Graphics/SVG/1.1/DTD/svg11.dtd">
<!-- Generated by graphviz version 5.0.0 (20220707.1540)
 -->
<!-- Title: discord_core_api::roles::modifyGuildRolePositionsAsync Pages: 1 -->
<svg width="628pt" height="60pt"
 viewBox="0.00 0.00 628.00 60.00" xmlns="http://www.w3.org/2000/svg" xmlns:xlink="http://www.w3.org/1999/xlink">
<g id="graph0" class="graph" transform="scale(1 1) rotate(0) translate(4 56)">
<title>discord_core_api::roles::modifyGuildRolePositionsAsync</title>
<!-- Node1 -->
<g id="node1" class="node">
<title>Node1</title>
<g id="a_node1"><a xlink:title="Updates a role_data&#39;s positions.">
<polygon fill="#999999" stroke="#666666" points="161,-30 0,-30 0,0 161,0 161,-30"/>
<text text-anchor="start" x="8" y="-18" font-family="Helvetica,sans-Serif" font-size="10.00">discord_core_api::roles</text>
<text text-anchor="middle" x="80.5" y="-7" font-family="Helvetica,sans-Serif" font-size="10.00">::modifyGuildRolePositionsAsync</text>
</a>
</g>
</g>
<!-- Node2 -->
<g id="node2" class="node">
<title>Node2</title>
<g id="a_node2"><a xlink:href="classdiscord__core__api_1_1roles.html#a8642b4b5cd5ffb1539afec395d11ef09" target="_top" xlink:title="Collects a given role from the library&#39;s cache.">
<polygon fill="white" stroke="#666666" points="314,-52 197,-52 197,-22 314,-22 314,-52"/>
<text text-anchor="start" x="205" y="-40" font-family="Helvetica,sans-Serif" font-size="10.00">discord_core_api::roles</text>
<text text-anchor="middle" x="255.5" y="-29" font-family="Helvetica,sans-Serif" font-size="10.00">::getCachedRole</text>
</a>
</g>
</g>
<!-- Node1&#45;&gt;Node2 -->
<g id="edge1" class="edge">
<title>Node1&#45;&gt;Node2</title>
<path fill="none" stroke="#63b8ff" d="M161.16,-25.13C169.74,-26.22 178.4,-27.32 186.82,-28.39"/>
<polygon fill="#63b8ff" stroke="#63b8ff" points="186.57,-31.89 196.93,-29.68 187.46,-24.95 186.57,-31.89"/>
</g>
<!-- Node4 -->
<g id="node4" class="node">
<title>Node4</title>
<g id="a_node4"><a xlink:href="classdiscord__core__api_1_1roles.html#a767affffd8bd3b4e23419be4de80a8f8" target="_top" xlink:title="Collects the roles that a guild has.">
<polygon fill="white" stroke="#666666" points="620,-30 503,-30 503,0 620,0 620,-30"/>
<text text-anchor="start" x="511" y="-18" font-family="Helvetica,sans-Serif" font-size="10.00">discord_core_api::roles</text>
<text text-anchor="middle" x="561.5" y="-7" font-family="Helvetica,sans-Serif" font-size="10.00">::getGuildRolesAsync</text>
</a>
</g>
</g>
<!-- Node1&#45;&gt;Node4 -->
<g id="edge4" class="edge">
<title>Node1&#45;&gt;Node4</title>
<path fill="none" stroke="#63b8ff" d="M161.03,-13.44C173.08,-13.26 185.37,-13.1 197,-13 317,-11.96 347.01,-11.72 467,-13 475.29,-13.09 483.98,-13.22 492.6,-13.38"/>
<polygon fill="#63b8ff" stroke="#63b8ff" points="492.58,-16.88 502.65,-13.57 492.71,-9.88 492.58,-16.88"/>
</g>
<!-- Node3 -->
<g id="node3" class="node">
<title>Node3</title>
<g id="a_node3"><a xlink:href="classdiscord__core__api_1_1roles.html#a5ffa574fb5a9d549f03e636b688b9c78" target="_top" xlink:title="Collects a role_data from the discord servers.">
<polygon fill="white" stroke="#666666" points="467,-52 350,-52 350,-22 467,-22 467,-52"/>
<text text-anchor="start" x="358" y="-40" font-family="Helvetica,sans-Serif" font-size="10.00">discord_core_api::roles</text>
<text text-anchor="middle" x="408.5" y="-29" font-family="Helvetica,sans-Serif" font-size="10.00">::getRoleAsync</text>
</a>
</g>
</g>
<!-- Node2&#45;&gt;Node3 -->
<g id="edge2" class="edge">
<title>Node2&#45;&gt;Node3</title>
<path fill="none" stroke="#63b8ff" d="M314.02,-37C322.46,-37 331.23,-37 339.86,-37"/>
<polygon fill="#63b8ff" stroke="#63b8ff" points="339.89,-40.5 349.89,-37 339.89,-33.5 339.89,-40.5"/>
</g>
<!-- Node3&#45;&gt;Node4 -->
<g id="edge3" class="edge">
<title>Node3&#45;&gt;Node4</title>
<path fill="none" stroke="#63b8ff" d="M467.02,-28.62C475.46,-27.39 484.23,-26.11 492.86,-24.86"/>
<polygon fill="#63b8ff" stroke="#63b8ff" points="493.5,-28.3 502.89,-23.39 492.49,-21.37 493.5,-28.3"/>
</g>
</g>
</svg>
