<?xml version="1.0" encoding="UTF-8" standalone="no"?>
<!DOCTYPE svg PUBLIC "-//W3C//DTD SVG 1.1//EN"
 "http://www.w3.org/Graphics/SVG/1.1/DTD/svg11.dtd">
<!-- Generated by graphviz version 5.0.0 (20220707.1540)
 -->
<!-- Title: discord_core_api::edit_interaction_response_data Pages: 1 -->
<svg width="144pt" height="170pt"
 viewBox="0.00 0.00 144.00 170.00" xmlns="http://www.w3.org/2000/svg" xmlns:xlink="http://www.w3.org/1999/xlink">
<g id="graph0" class="graph" transform="scale(1 1) rotate(0) translate(4 166)">
<title>discord_core_api::edit_interaction_response_data</title>
<!-- Node1 -->
<g id="node1" class="node">
<title>Node1</title>
<g id="a_node1"><a xlink:title="For editing an interaction response.">
<polygon fill="#999999" stroke="#666666" points="136,-30 0,-30 0,0 136,0 136,-30"/>
<text text-anchor="start" x="8" y="-18" font-family="Helvetica,sans-Serif" font-size="10.00">discord_core_api::edit</text>
<text text-anchor="middle" x="68" y="-7" font-family="Helvetica,sans-Serif" font-size="10.00">_interaction_response_data</text>
</a>
</g>
</g>
<!-- Node2 -->
<g id="node2" class="node">
<title>Node2</title>
<g id="a_node2"><a xlink:href="classdiscord__core__api_1_1edit__web__hook__data.html" target="_top" xlink:title="For editing a web_hook message_data.">
<polygon fill="white" stroke="#666666" points="124,-96 12,-96 12,-66 124,-66 124,-96"/>
<text text-anchor="start" x="20" y="-84" font-family="Helvetica,sans-Serif" font-size="10.00">discord_core_api::edit</text>
<text text-anchor="middle" x="68" y="-73" font-family="Helvetica,sans-Serif" font-size="10.00">_web_hook_data</text>
</a>
</g>
</g>
<!-- Node2&#45;&gt;Node1 -->
<g id="edge1" class="edge">
<title>Node2&#45;&gt;Node1</title>
<path fill="none" stroke="#63b8ff" d="M68,-55.54C68,-46.96 68,-37.61 68,-30.16"/>
<polygon fill="#63b8ff" stroke="#63b8ff" points="64.5,-55.8 68,-65.8 71.5,-55.8 64.5,-55.8"/>
</g>
<!-- Node3 -->
<g id="node3" class="node">
<title>Node3</title>
<g id="a_node3"><a xlink:href="classdiscord__core__api_1_1execute__web__hook__data.html" target="_top" xlink:title="For executing a web_hook.">
<polygon fill="white" stroke="#666666" points="133.5,-162 2.5,-162 2.5,-132 133.5,-132 133.5,-162"/>
<text text-anchor="start" x="10.5" y="-150" font-family="Helvetica,sans-Serif" font-size="10.00">discord_core_api::execute</text>
<text text-anchor="middle" x="68" y="-139" font-family="Helvetica,sans-Serif" font-size="10.00">_web_hook_data</text>
</a>
</g>
</g>
<!-- Node3&#45;&gt;Node2 -->
<g id="edge2" class="edge">
<title>Node3&#45;&gt;Node2</title>
<path fill="none" stroke="#63b8ff" d="M68,-121.54C68,-112.96 68,-103.61 68,-96.16"/>
<polygon fill="#63b8ff" stroke="#63b8ff" points="64.5,-121.8 68,-131.8 71.5,-121.8 64.5,-121.8"/>
</g>
</g>
</svg>
