<?xml version="1.0" encoding="UTF-8" standalone="no"?>
<!DOCTYPE svg PUBLIC "-//W3C//DTD SVG 1.1//EN"
 "http://www.w3.org/Graphics/SVG/1.1/DTD/svg11.dtd">
<!-- Generated by graphviz version 5.0.0 (20220707.1540)
 -->
<!-- Title: discord_core_api::unique_ptr::reset Pages: 1 -->
<svg width="459pt" height="129pt"
 viewBox="0.00 0.00 459.00 129.00" xmlns="http://www.w3.org/2000/svg" xmlns:xlink="http://www.w3.org/1999/xlink">
<g id="graph0" class="graph" transform="scale(1 1) rotate(0) translate(4 125)">
<title>discord_core_api::unique_ptr::reset</title>
<!-- Node1 -->
<g id="node1" class="node">
<title>Node1</title>
<g id="a_node1"><a xlink:title="Resets the managed pointer and invokes the deleter.">
<polygon fill="#999999" stroke="#666666" points="451,-78 326,-78 326,-48 451,-48 451,-78"/>
<text text-anchor="start" x="334" y="-66" font-family="Helvetica,sans-Serif" font-size="10.00">discord_core_api::unique</text>
<text text-anchor="middle" x="388.5" y="-55" font-family="Helvetica,sans-Serif" font-size="10.00">_ptr::reset</text>
</a>
</g>
</g>
<!-- Node2 -->
<g id="node2" class="node">
<title>Node2</title>
<g id="a_node2"><a xlink:href="classdiscord__core__api_1_1unique__ptr.html#af838aeef646a628fabd5b86a584f74e4" target="_top" xlink:title="Commits a new pointer value and resets the current one.">
<polygon fill="white" stroke="#666666" points="290,-78 165,-78 165,-48 290,-48 290,-78"/>
<text text-anchor="start" x="173" y="-66" font-family="Helvetica,sans-Serif" font-size="10.00">discord_core_api::unique</text>
<text text-anchor="middle" x="227.5" y="-55" font-family="Helvetica,sans-Serif" font-size="10.00">_ptr::commit</text>
</a>
</g>
</g>
<!-- Node1&#45;&gt;Node2 -->
<g id="edge1" class="edge">
<title>Node1&#45;&gt;Node2</title>
<path fill="none" stroke="#63b8ff" d="M315.41,-63C307.01,-63 298.5,-63 290.26,-63"/>
<polygon fill="#63b8ff" stroke="#63b8ff" points="315.57,-66.5 325.57,-63 315.57,-59.5 315.57,-66.5"/>
</g>
<!-- Node3 -->
<g id="node3" class="node">
<title>Node3</title>
<g id="a_node3"><a xlink:href="classdiscord__core__api_1_1unique__ptr.html#aae122579e38834589e68bef8c3e1efe8" target="_top" xlink:title="Move assignment operator for related pointers.">
<polygon fill="white" stroke="#666666" points="127,-121 2,-121 2,-91 127,-91 127,-121"/>
<text text-anchor="start" x="10" y="-109" font-family="Helvetica,sans-Serif" font-size="10.00">discord_core_api::unique</text>
<text text-anchor="middle" x="64.5" y="-98" font-family="Helvetica,sans-Serif" font-size="10.00">_ptr::operator=</text>
</a>
</g>
</g>
<!-- Node1&#45;&gt;Node3 -->
<g id="edge4" class="edge">
<title>Node1&#45;&gt;Node3</title>
<path fill="none" stroke="#63b8ff" d="M322.97,-80.39C312.03,-82.91 300.73,-85.24 290,-87 235.38,-95.98 172.56,-100.83 127.28,-103.38"/>
<polygon fill="#63b8ff" stroke="#63b8ff" points="323.97,-83.75 332.9,-78.04 322.36,-76.94 323.97,-83.75"/>
</g>
<!-- Node5 -->
<g id="node5" class="node">
<title>Node5</title>
<g id="a_node5"><a xlink:href="classdiscord__core__api_1_1unique__ptr.html#a547c2a9ed694fe711d20cb5d0e171ad2" target="_top" xlink:title="Destructor that releases the managed object.">
<polygon fill="white" stroke="#666666" points="290,-30 165,-30 165,0 290,0 290,-30"/>
<text text-anchor="start" x="173" y="-18" font-family="Helvetica,sans-Serif" font-size="10.00">discord_core_api::unique</text>
<text text-anchor="middle" x="227.5" y="-7" font-family="Helvetica,sans-Serif" font-size="10.00">_ptr::~unique_ptr</text>
</a>
</g>
</g>
<!-- Node1&#45;&gt;Node5 -->
<g id="edge5" class="edge">
<title>Node1&#45;&gt;Node5</title>
<path fill="none" stroke="#63b8ff" d="M327.65,-44.93C311.35,-40.01 293.87,-34.73 278.2,-30"/>
<polygon fill="#63b8ff" stroke="#63b8ff" points="327.04,-48.4 337.63,-47.94 329.07,-41.7 327.04,-48.4"/>
</g>
<!-- Node2&#45;&gt;Node3 -->
<g id="edge2" class="edge">
<title>Node2&#45;&gt;Node3</title>
<path fill="none" stroke="#63b8ff" d="M160.49,-80.63C147.64,-84.06 134.28,-87.63 121.78,-90.97"/>
<polygon fill="#63b8ff" stroke="#63b8ff" points="161.43,-84 170.19,-78.04 159.63,-77.24 161.43,-84"/>
</g>
<!-- Node4 -->
<g id="node4" class="node">
<title>Node4</title>
<g id="a_node4"><a xlink:href="classdiscord__core__api_1_1unique__ptr_3_01value__type_0f_0e_00_01deleter_01_4.html#adafd686791a9e8f0081e9017c8b9edfa" target="_top" xlink:title="Move assignment operator for related pointers.">
<polygon fill="white" stroke="#666666" points="129,-72.5 0,-72.5 0,-31.5 129,-31.5 129,-72.5"/>
<text text-anchor="start" x="8" y="-60.5" font-family="Helvetica,sans-Serif" font-size="10.00">discord_core_api::unique</text>
<text text-anchor="start" x="8" y="-49.5" font-family="Helvetica,sans-Serif" font-size="10.00">_ptr&lt; value_type[], deleter</text>
<text text-anchor="middle" x="64.5" y="-38.5" font-family="Helvetica,sans-Serif" font-size="10.00"> &gt;::operator=</text>
</a>
</g>
</g>
<!-- Node2&#45;&gt;Node4 -->
<g id="edge3" class="edge">
<title>Node2&#45;&gt;Node4</title>
<path fill="none" stroke="#63b8ff" d="M154.53,-58.08C146.1,-57.51 137.55,-56.92 129.25,-56.36"/>
<polygon fill="#63b8ff" stroke="#63b8ff" points="154.5,-61.59 164.71,-58.78 154.98,-54.6 154.5,-61.59"/>
</g>
</g>
</svg>
