<?xml version="1.0" encoding="UTF-8" standalone="no"?>
<!DOCTYPE svg PUBLIC "-//W3C//DTD SVG 1.1//EN"
 "http://www.w3.org/Graphics/SVG/1.1/DTD/svg11.dtd">
<!-- Generated by graphviz version 5.0.0 (20220707.1540)
 -->
<!-- Title: discord_core_api::bot_user::updateVoiceStatus Pages: 1 -->
<svg width="298pt" height="86pt"
 viewBox="0.00 0.00 298.00 86.00" xmlns="http://www.w3.org/2000/svg" xmlns:xlink="http://www.w3.org/1999/xlink">
<g id="graph0" class="graph" transform="scale(1 1) rotate(0) translate(4 82)">
<title>discord_core_api::bot_user::updateVoiceStatus</title>
<!-- Node1 -->
<g id="node1" class="node">
<title>Node1</title>
<g id="a_node1"><a xlink:title="Updates the bot&#39;s current voice&#45;status. joins/leaves a channel, and/or self deafens/mutes.">
<polygon fill="#999999" stroke="#666666" points="290,-54 161,-54 161,-24 290,-24 290,-54"/>
<text text-anchor="start" x="169" y="-42" font-family="Helvetica,sans-Serif" font-size="10.00">discord_core_api::bot</text>
<text text-anchor="middle" x="225.5" y="-31" font-family="Helvetica,sans-Serif" font-size="10.00">_user::updateVoiceStatus</text>
</a>
</g>
</g>
<!-- Node2 -->
<g id="node2" class="node">
<title>Node2</title>
<g id="a_node2"><a xlink:href="classdiscord__core__api_1_1guild__data.html#a20d3a7d33cd7db64bcb9bf3ded6799a9" target="_top" xlink:title="For disconnecting from the current guild&#39;s voice channel.">
<polygon fill="white" stroke="#666666" points="120.5,-78 4.5,-78 4.5,-48 120.5,-48 120.5,-78"/>
<text text-anchor="start" x="12.5" y="-66" font-family="Helvetica,sans-Serif" font-size="10.00">discord_core_api::guild</text>
<text text-anchor="middle" x="62.5" y="-55" font-family="Helvetica,sans-Serif" font-size="10.00">_data::disconnect</text>
</a>
</g>
</g>
<!-- Node1&#45;&gt;Node2 -->
<g id="edge1" class="edge">
<title>Node1&#45;&gt;Node2</title>
<path fill="none" stroke="#63b8ff" d="M150.82,-49.98C140.7,-51.49 130.43,-53.02 120.66,-54.48"/>
<polygon fill="#63b8ff" stroke="#63b8ff" points="151.49,-53.42 160.87,-48.49 150.46,-46.5 151.49,-53.42"/>
</g>
<!-- Node3 -->
<g id="node3" class="node">
<title>Node3</title>
<g id="a_node3"><a xlink:href="classdiscord__core__api_1_1guild__cache__data.html#a5bc0db60572a5be2c29b884d8cf51c35" target="_top" xlink:title="For disconnecting from the current guild&#39;s voice channel.">
<polygon fill="white" stroke="#666666" points="125,-30 0,-30 0,0 125,0 125,-30"/>
<text text-anchor="start" x="8" y="-18" font-family="Helvetica,sans-Serif" font-size="10.00">discord_core_api::guild</text>
<text text-anchor="middle" x="62.5" y="-7" font-family="Helvetica,sans-Serif" font-size="10.00">_cache_data::disconnect</text>
</a>
</g>
</g>
<!-- Node1&#45;&gt;Node3 -->
<g id="edge2" class="edge">
<title>Node1&#45;&gt;Node3</title>
<path fill="none" stroke="#63b8ff" d="M150.84,-28.02C142.23,-26.74 133.51,-25.44 125.09,-24.18"/>
<polygon fill="#63b8ff" stroke="#63b8ff" points="150.46,-31.5 160.87,-29.51 151.49,-24.58 150.46,-31.5"/>
</g>
</g>
</svg>
