<?xml version="1.0" encoding="UTF-8" standalone="no"?>
<!DOCTYPE svg PUBLIC "-//W3C//DTD SVG 1.1//EN"
 "http://www.w3.org/Graphics/SVG/1.1/DTD/svg11.dtd">
<!-- Generated by graphviz version 5.0.0 (20220707.1540)
 -->
<!-- Title: discord_core_api::time_stamp_base::convertToCurrentISO8601TimeStamp Pages: 1 -->
<svg width="380pt" height="86pt"
 viewBox="0.00 0.00 380.00 86.00" xmlns="http://www.w3.org/2000/svg" xmlns:xlink="http://www.w3.org/1999/xlink">
<g id="graph0" class="graph" transform="scale(1 1) rotate(0) translate(4 82)">
<title>discord_core_api::time_stamp_base::convertToCurrentISO8601TimeStamp</title>
<!-- Node1 -->
<g id="node1" class="node">
<title>Node1</title>
<g id="a_node1"><a xlink:title="Converts the current time into an iso8601 time stamp.">
<polygon fill="#999999" stroke="#666666" points="154,-59.5 0,-59.5 0,-18.5 154,-18.5 154,-59.5"/>
<text text-anchor="start" x="8" y="-47.5" font-family="Helvetica,sans-Serif" font-size="10.00">discord_core_api::time</text>
<text text-anchor="start" x="8" y="-36.5" font-family="Helvetica,sans-Serif" font-size="10.00">_stamp_base::convertToCurrent</text>
<text text-anchor="middle" x="77" y="-25.5" font-family="Helvetica,sans-Serif" font-size="10.00">ISO8601TimeStamp</text>
</a>
</g>
</g>
<!-- Node2 -->
<g id="node2" class="node">
<title>Node2</title>
<g id="a_node2"><a xlink:href="classdiscord__core__api_1_1time__stamp__base.html#aecd4ccd369e954e864c0ca20e0b28ff1" target="_top" xlink:title="Gets an iso8601 time stamp string based on the provided time format.">
<polygon fill="white" stroke="#666666" points="372,-78 190,-78 190,-48 372,-48 372,-78"/>
<text text-anchor="start" x="198" y="-66" font-family="Helvetica,sans-Serif" font-size="10.00">discord_core_api::time</text>
<text text-anchor="middle" x="281" y="-55" font-family="Helvetica,sans-Serif" font-size="10.00">_stamp_base::getISO8601TimeStamp</text>
</a>
</g>
</g>
<!-- Node1&#45;&gt;Node2 -->
<g id="edge1" class="edge">
<title>Node1&#45;&gt;Node2</title>
<path fill="none" stroke="#63b8ff" d="M154.08,-48.04C162.44,-49.03 171.04,-50.05 179.64,-51.08"/>
<polygon fill="#63b8ff" stroke="#63b8ff" points="179.37,-54.57 189.71,-52.27 180.2,-47.62 179.37,-54.57"/>
</g>
<!-- Node3 -->
<g id="node3" class="node">
<title>Node3</title>
<g id="a_node3"><a xlink:href="classdiscord__core__api_1_1time__stamp__base.html#a3125c5ca61b7b25bff4c24018b7805e9" target="_top" xlink:title="Gets the time since the unix epoch for the specified date and time.">
<polygon fill="white" stroke="#666666" points="365,-30 197,-30 197,0 365,0 365,-30"/>
<text text-anchor="start" x="205" y="-18" font-family="Helvetica,sans-Serif" font-size="10.00">discord_core_api::time</text>
<text text-anchor="middle" x="281" y="-7" font-family="Helvetica,sans-Serif" font-size="10.00">_stamp_base::getTimeSinceEpoch</text>
</a>
</g>
</g>
<!-- Node1&#45;&gt;Node3 -->
<g id="edge2" class="edge">
<title>Node1&#45;&gt;Node3</title>
<path fill="none" stroke="#63b8ff" d="M154.08,-29.96C164.78,-28.69 175.88,-27.37 186.86,-26.07"/>
<polygon fill="#63b8ff" stroke="#63b8ff" points="187.37,-29.53 196.89,-24.87 186.55,-22.58 187.37,-29.53"/>
</g>
</g>
</svg>
