<?xml version="1.0" encoding="UTF-8" standalone="no"?>
<!DOCTYPE svg PUBLIC "-//W3C//DTD SVG 1.1//EN"
 "http://www.w3.org/Graphics/SVG/1.1/DTD/svg11.dtd">
<!-- Generated by graphviz version 5.0.0 (20220707.1540)
 -->
<!-- Title: discord_core_api::co_routine::getStatus Pages: 1 -->
<svg width="269pt" height="134pt"
 viewBox="0.00 0.00 269.00 134.00" xmlns="http://www.w3.org/2000/svg" xmlns:xlink="http://www.w3.org/1999/xlink">
<g id="graph0" class="graph" transform="scale(1 1) rotate(0) translate(4 130)">
<title>discord_core_api::co_routine::getStatus</title>
<!-- Node1 -->
<g id="node1" class="node">
<title>Node1</title>
<g id="a_node1"><a xlink:title="Collects the status of the co_routine.">
<polygon fill="#999999" stroke="#666666" points="261,-78 154,-78 154,-48 261,-48 261,-78"/>
<text text-anchor="start" x="162" y="-66" font-family="Helvetica,sans-Serif" font-size="10.00">discord_core_api::co</text>
<text text-anchor="middle" x="207.5" y="-55" font-family="Helvetica,sans-Serif" font-size="10.00">_routine::getStatus</text>
</a>
</g>
</g>
<!-- Node2 -->
<g id="node2" class="node">
<title>Node2</title>
<g id="a_node2"><a xlink:href="classdiscord__core__api_1_1voice__connection.html#a4f1064e5b3c042fe2018b3fe59051d0a" target="_top" xlink:title="Connects to a currently held voice channel.">
<polygon fill="white" stroke="#666666" points="118,-126 0,-126 0,-96 118,-96 118,-126"/>
<text text-anchor="start" x="8" y="-114" font-family="Helvetica,sans-Serif" font-size="10.00">discord_core_api::voice</text>
<text text-anchor="middle" x="59" y="-103" font-family="Helvetica,sans-Serif" font-size="10.00">_connection::connect</text>
</a>
</g>
</g>
<!-- Node1&#45;&gt;Node2 -->
<g id="edge1" class="edge">
<title>Node1&#45;&gt;Node2</title>
<path fill="none" stroke="#63b8ff" d="M150.93,-81.21C136.03,-86.09 120.09,-91.31 105.79,-96"/>
<polygon fill="#63b8ff" stroke="#63b8ff" points="152.14,-84.5 160.55,-78.06 149.96,-77.84 152.14,-84.5"/>
</g>
<!-- Node3 -->
<g id="node3" class="node">
<title>Node3</title>
<g id="a_node3"><a xlink:href="classdiscord__core__api_1_1song__api.html#aabdfc4ebf2ed57449343e338bd7ee43d" target="_top" xlink:title="Plays the current song. (assuming that you are currently connected to a voice_connection).">
<polygon fill="white" stroke="#666666" points="117.5,-78 0.5,-78 0.5,-48 117.5,-48 117.5,-78"/>
<text text-anchor="start" x="8.5" y="-66" font-family="Helvetica,sans-Serif" font-size="10.00">discord_core_api::song</text>
<text text-anchor="middle" x="59" y="-55" font-family="Helvetica,sans-Serif" font-size="10.00">_api::play</text>
</a>
</g>
</g>
<!-- Node1&#45;&gt;Node3 -->
<g id="edge2" class="edge">
<title>Node1&#45;&gt;Node3</title>
<path fill="none" stroke="#63b8ff" d="M143.36,-63C134.86,-63 126.17,-63 117.77,-63"/>
<polygon fill="#63b8ff" stroke="#63b8ff" points="143.61,-66.5 153.61,-63 143.61,-59.5 143.61,-66.5"/>
</g>
<!-- Node4 -->
<g id="node4" class="node">
<title>Node4</title>
<g id="a_node4"><a xlink:href="classdiscord__core__api_1_1song__api.html#aea128000f8b9805bd9dc497fa9725ca8" target="_top" xlink:title="Stops the currently playing song.">
<polygon fill="white" stroke="#666666" points="117.5,-30 0.5,-30 0.5,0 117.5,0 117.5,-30"/>
<text text-anchor="start" x="8.5" y="-18" font-family="Helvetica,sans-Serif" font-size="10.00">discord_core_api::song</text>
<text text-anchor="middle" x="59" y="-7" font-family="Helvetica,sans-Serif" font-size="10.00">_api::stop</text>
</a>
</g>
</g>
<!-- Node1&#45;&gt;Node4 -->
<g id="edge3" class="edge">
<title>Node1&#45;&gt;Node4</title>
<path fill="none" stroke="#63b8ff" d="M150.93,-44.79C136.03,-39.91 120.09,-34.69 105.79,-30"/>
<polygon fill="#63b8ff" stroke="#63b8ff" points="149.96,-48.16 160.55,-47.94 152.14,-41.5 149.96,-48.16"/>
</g>
</g>
</svg>
