<?xml version="1.0" encoding="UTF-8" standalone="no"?>
<!DOCTYPE svg PUBLIC "-//W3C//DTD SVG 1.1//EN"
 "http://www.w3.org/Graphics/SVG/1.1/DTD/svg11.dtd">
<!-- Generated by graphviz version 5.0.0 (20220707.1540)
 -->
<!-- Title: discord_core_api::select_menu_collector::select_menu_collector Pages: 1 -->
<svg width="319pt" height="86pt"
 viewBox="0.00 0.00 319.00 86.00" xmlns="http://www.w3.org/2000/svg" xmlns:xlink="http://www.w3.org/1999/xlink">
<g id="graph0" class="graph" transform="scale(1 1) rotate(0) translate(4 82)">
<title>discord_core_api::select_menu_collector::select_menu_collector</title>
<!-- Node1 -->
<g id="node1" class="node">
<title>Node1</title>
<g id="a_node1"><a xlink:title="Constructor.">
<polygon fill="#999999" stroke="#666666" points="122,-59.5 0,-59.5 0,-18.5 122,-18.5 122,-59.5"/>
<text text-anchor="start" x="8" y="-47.5" font-family="Helvetica,sans-Serif" font-size="10.00">discord_core_api::select</text>
<text text-anchor="start" x="8" y="-36.5" font-family="Helvetica,sans-Serif" font-size="10.00">_menu_collector::select</text>
<text text-anchor="middle" x="61" y="-25.5" font-family="Helvetica,sans-Serif" font-size="10.00">_menu_collector</text>
</a>
</g>
</g>
<!-- Node2 -->
<g id="node2" class="node">
<title>Node2</title>
<g id="a_node2"><a xlink:href="classdiscord__core__api_1_1input__event__data.html#a90b36195d32d224726f0984d04a8a3d0" target="_top" xlink:title="Returns the interaction data, if appplicable, of this input&#45;event.">
<polygon fill="white" stroke="#666666" points="311,-78 158,-78 158,-48 311,-48 311,-78"/>
<text text-anchor="start" x="166" y="-66" font-family="Helvetica,sans-Serif" font-size="10.00">discord_core_api::input</text>
<text text-anchor="middle" x="234.5" y="-55" font-family="Helvetica,sans-Serif" font-size="10.00">_event_data::getInteractionData</text>
</a>
</g>
</g>
<!-- Node1&#45;&gt;Node2 -->
<g id="edge1" class="edge">
<title>Node1&#45;&gt;Node2</title>
<path fill="none" stroke="#63b8ff" d="M122.46,-47.46C130.71,-48.62 139.3,-49.82 147.89,-51.02"/>
<polygon fill="#63b8ff" stroke="#63b8ff" points="147.57,-54.51 157.95,-52.43 148.54,-47.58 147.57,-54.51"/>
</g>
<!-- Node3 -->
<g id="node3" class="node">
<title>Node3</title>
<g id="a_node3"><a xlink:href="classdiscord__core__api_1_1input__event__data.html#ab71fbb92479aa72ddee7299c2895719f" target="_top" xlink:title="Returns the message data, if applicable, of this input&#45;event.">
<polygon fill="white" stroke="#666666" points="308.5,-30 160.5,-30 160.5,0 308.5,0 308.5,-30"/>
<text text-anchor="start" x="168.5" y="-18" font-family="Helvetica,sans-Serif" font-size="10.00">discord_core_api::input</text>
<text text-anchor="middle" x="234.5" y="-7" font-family="Helvetica,sans-Serif" font-size="10.00">_event_data::getMessageData</text>
</a>
</g>
</g>
<!-- Node1&#45;&gt;Node3 -->
<g id="edge2" class="edge">
<title>Node1&#45;&gt;Node3</title>
<path fill="none" stroke="#63b8ff" d="M122.46,-30.54C131.46,-29.28 140.86,-27.96 150.22,-26.65"/>
<polygon fill="#63b8ff" stroke="#63b8ff" points="150.93,-30.09 160.35,-25.24 149.96,-23.16 150.93,-30.09"/>
</g>
</g>
</svg>
