<?xml version="1.0" encoding="UTF-8" standalone="no"?>
<!DOCTYPE svg PUBLIC "-//W3C//DTD SVG 1.1//EN"
 "http://www.w3.org/Graphics/SVG/1.1/DTD/svg11.dtd">
<!-- Generated by graphviz version 5.0.0 (20220707.1540)
 -->
<!-- Title: discord_core_api::edit_web_hook_data Pages: 1 -->
<svg width="459pt" height="86pt"
 viewBox="0.00 0.00 459.00 86.00" xmlns="http://www.w3.org/2000/svg" xmlns:xlink="http://www.w3.org/1999/xlink">
<g id="graph0" class="graph" transform="scale(1 1) rotate(0) translate(4 82)">
<title>discord_core_api::edit_web_hook_data</title>
<!-- Node1 -->
<g id="node1" class="node">
<title>Node1</title>
<g id="a_node1"><a xlink:title="For editing a web_hook message_data.">
<polygon fill="#999999" stroke="#666666" points="279,-54 167,-54 167,-24 279,-24 279,-54"/>
<text text-anchor="start" x="175" y="-42" font-family="Helvetica,sans-Serif" font-size="10.00">discord_core_api::edit</text>
<text text-anchor="middle" x="223" y="-31" font-family="Helvetica,sans-Serif" font-size="10.00">_web_hook_data</text>
</a>
</g>
</g>
<!-- Node3 -->
<g id="node3" class="node">
<title>Node3</title>
<g id="a_node3"><a xlink:href="classdiscord__core__api_1_1edit__follow__up__message__data.html" target="_top" xlink:title="For editing a follow up message_data.">
<polygon fill="white" stroke="#666666" points="448.5,-78 317.5,-78 317.5,-48 448.5,-48 448.5,-78"/>
<text text-anchor="start" x="325.5" y="-66" font-family="Helvetica,sans-Serif" font-size="10.00">discord_core_api::edit</text>
<text text-anchor="middle" x="383" y="-55" font-family="Helvetica,sans-Serif" font-size="10.00">_follow_up_message_data</text>
</a>
</g>
</g>
<!-- Node1&#45;&gt;Node3 -->
<g id="edge2" class="edge">
<title>Node1&#45;&gt;Node3</title>
<path fill="none" stroke="#63b8ff" d="M289.2,-48.9C298.48,-50.31 308.02,-51.76 317.29,-53.17"/>
<polygon fill="#63b8ff" stroke="#63b8ff" points="289.67,-45.44 279.26,-47.39 288.62,-52.36 289.67,-45.44"/>
</g>
<!-- Node4 -->
<g id="node4" class="node">
<title>Node4</title>
<g id="a_node4"><a xlink:href="classdiscord__core__api_1_1edit__interaction__response__data.html" target="_top" xlink:title="For editing an interaction response.">
<polygon fill="white" stroke="#666666" points="451,-30 315,-30 315,0 451,0 451,-30"/>
<text text-anchor="start" x="323" y="-18" font-family="Helvetica,sans-Serif" font-size="10.00">discord_core_api::edit</text>
<text text-anchor="middle" x="383" y="-7" font-family="Helvetica,sans-Serif" font-size="10.00">_interaction_response_data</text>
</a>
</g>
</g>
<!-- Node1&#45;&gt;Node4 -->
<g id="edge3" class="edge">
<title>Node1&#45;&gt;Node4</title>
<path fill="none" stroke="#63b8ff" d="M289.37,-29.07C297.77,-27.79 306.38,-26.49 314.81,-25.21"/>
<polygon fill="#63b8ff" stroke="#63b8ff" points="288.62,-25.64 279.26,-30.61 289.67,-32.56 288.62,-25.64"/>
</g>
<!-- Node2 -->
<g id="node2" class="node">
<title>Node2</title>
<g id="a_node2"><a xlink:href="classdiscord__core__api_1_1execute__web__hook__data.html" target="_top" xlink:title="For executing a web_hook.">
<polygon fill="white" stroke="#666666" points="131,-54 0,-54 0,-24 131,-24 131,-54"/>
<text text-anchor="start" x="8" y="-42" font-family="Helvetica,sans-Serif" font-size="10.00">discord_core_api::execute</text>
<text text-anchor="middle" x="65.5" y="-31" font-family="Helvetica,sans-Serif" font-size="10.00">_web_hook_data</text>
</a>
</g>
</g>
<!-- Node2&#45;&gt;Node1 -->
<g id="edge1" class="edge">
<title>Node2&#45;&gt;Node1</title>
<path fill="none" stroke="#63b8ff" d="M141.17,-39C149.79,-39 158.46,-39 166.76,-39"/>
<polygon fill="#63b8ff" stroke="#63b8ff" points="141.1,-35.5 131.1,-39 141.1,-42.5 141.1,-35.5"/>
</g>
</g>
</svg>
