<?xml version="1.0" encoding="UTF-8" standalone="no"?>
<!DOCTYPE svg PUBLIC "-//W3C//DTD SVG 1.1//EN"
 "http://www.w3.org/Graphics/SVG/1.1/DTD/svg11.dtd">
<!-- Generated by graphviz version 5.0.0 (20220707.1540)
 -->
<!-- Title: discord_core_api::unique_ptr::getDeleter Pages: 1 -->
<svg width="624pt" height="141pt"
 viewBox="0.00 0.00 624.00 140.50" xmlns="http://www.w3.org/2000/svg" xmlns:xlink="http://www.w3.org/1999/xlink">
<g id="graph0" class="graph" transform="scale(1 1) rotate(0) translate(4 136.5)">
<title>discord_core_api::unique_ptr::getDeleter</title>
<!-- Node1 -->
<g id="node1" class="node">
<title>Node1</title>
<g id="a_node1"><a xlink:title="Gets the deleter associated with the managed object.">
<polygon fill="#999999" stroke="#666666" points="616,-62.5 491,-62.5 491,-32.5 616,-32.5 616,-62.5"/>
<text text-anchor="start" x="499" y="-50.5" font-family="Helvetica,sans-Serif" font-size="10.00">discord_core_api::unique</text>
<text text-anchor="middle" x="553.5" y="-39.5" font-family="Helvetica,sans-Serif" font-size="10.00">_ptr::getDeleter</text>
</a>
</g>
</g>
<!-- Node2 -->
<g id="node2" class="node">
<title>Node2</title>
<g id="a_node2"><a xlink:href="classdiscord__core__api_1_1unique__ptr.html#ac4181f2db372911de8b59113fee8e057" target="_top" xlink:title="Resets the managed pointer and invokes the deleter.">
<polygon fill="white" stroke="#666666" points="453,-89.5 328,-89.5 328,-59.5 453,-59.5 453,-89.5"/>
<text text-anchor="start" x="336" y="-77.5" font-family="Helvetica,sans-Serif" font-size="10.00">discord_core_api::unique</text>
<text text-anchor="middle" x="390.5" y="-66.5" font-family="Helvetica,sans-Serif" font-size="10.00">_ptr::reset</text>
</a>
</g>
</g>
<!-- Node1&#45;&gt;Node2 -->
<g id="edge1" class="edge">
<title>Node1&#45;&gt;Node2</title>
<path fill="none" stroke="#63b8ff" d="M480.78,-59.53C471.55,-61.07 462.17,-62.65 453.12,-64.17"/>
<polygon fill="#63b8ff" stroke="#63b8ff" points="481.43,-62.97 490.71,-57.86 480.27,-56.06 481.43,-62.97"/>
</g>
<!-- Node7 -->
<g id="node7" class="node">
<title>Node7</title>
<g id="a_node7"><a xlink:href="classdiscord__core__api_1_1unique__ptr_3_01value__type_0f_0e_00_01deleter_01_4.html#a0d3dfde80d02edeb34bcd830ba989679" target="_top" xlink:title="Resets the managed pointer and invokes the deleter.">
<polygon fill="white" stroke="#666666" points="455,-41 326,-41 326,0 455,0 455,-41"/>
<text text-anchor="start" x="334" y="-29" font-family="Helvetica,sans-Serif" font-size="10.00">discord_core_api::unique</text>
<text text-anchor="start" x="334" y="-18" font-family="Helvetica,sans-Serif" font-size="10.00">_ptr&lt; value_type[], deleter</text>
<text text-anchor="middle" x="390.5" y="-7" font-family="Helvetica,sans-Serif" font-size="10.00"> &gt;::reset</text>
</a>
</g>
</g>
<!-- Node1&#45;&gt;Node7 -->
<g id="edge7" class="edge">
<title>Node1&#45;&gt;Node7</title>
<path fill="none" stroke="#63b8ff" d="M480.8,-35.48C472.29,-34.05 463.65,-32.6 455.25,-31.19"/>
<polygon fill="#63b8ff" stroke="#63b8ff" points="480.27,-38.94 490.71,-37.14 481.43,-32.03 480.27,-38.94"/>
</g>
<!-- Node3 -->
<g id="node3" class="node">
<title>Node3</title>
<g id="a_node3"><a xlink:href="classdiscord__core__api_1_1unique__ptr.html#af838aeef646a628fabd5b86a584f74e4" target="_top" xlink:title="Commits a new pointer value and resets the current one.">
<polygon fill="white" stroke="#666666" points="290,-89.5 165,-89.5 165,-59.5 290,-59.5 290,-89.5"/>
<text text-anchor="start" x="173" y="-77.5" font-family="Helvetica,sans-Serif" font-size="10.00">discord_core_api::unique</text>
<text text-anchor="middle" x="227.5" y="-66.5" font-family="Helvetica,sans-Serif" font-size="10.00">_ptr::commit</text>
</a>
</g>
</g>
<!-- Node2&#45;&gt;Node3 -->
<g id="edge2" class="edge">
<title>Node2&#45;&gt;Node3</title>
<path fill="none" stroke="#63b8ff" d="M317.49,-74.5C308.35,-74.5 299.07,-74.5 290.12,-74.5"/>
<polygon fill="#63b8ff" stroke="#63b8ff" points="317.71,-78 327.71,-74.5 317.71,-71 317.71,-78"/>
</g>
<!-- Node4 -->
<g id="node4" class="node">
<title>Node4</title>
<g id="a_node4"><a xlink:href="classdiscord__core__api_1_1unique__ptr.html#aae122579e38834589e68bef8c3e1efe8" target="_top" xlink:title="Move assignment operator for related pointers.">
<polygon fill="white" stroke="#666666" points="127,-132.5 2,-132.5 2,-102.5 127,-102.5 127,-132.5"/>
<text text-anchor="start" x="10" y="-120.5" font-family="Helvetica,sans-Serif" font-size="10.00">discord_core_api::unique</text>
<text text-anchor="middle" x="64.5" y="-109.5" font-family="Helvetica,sans-Serif" font-size="10.00">_ptr::operator=</text>
</a>
</g>
</g>
<!-- Node2&#45;&gt;Node4 -->
<g id="edge5" class="edge">
<title>Node2&#45;&gt;Node4</title>
<path fill="none" stroke="#63b8ff" d="M323.97,-91.8C312.7,-94.35 301.06,-96.71 290,-98.5 235.36,-107.35 172.54,-112.22 127.27,-114.81"/>
<polygon fill="#63b8ff" stroke="#63b8ff" points="324.81,-95.2 333.76,-89.52 323.23,-88.38 324.81,-95.2"/>
</g>
<!-- Node6 -->
<g id="node6" class="node">
<title>Node6</title>
<g id="a_node6"><a xlink:href="classdiscord__core__api_1_1unique__ptr.html#a547c2a9ed694fe711d20cb5d0e171ad2" target="_top" xlink:title="Destructor that releases the managed object.">
<polygon fill="white" stroke="#666666" points="290,-41.5 165,-41.5 165,-11.5 290,-11.5 290,-41.5"/>
<text text-anchor="start" x="173" y="-29.5" font-family="Helvetica,sans-Serif" font-size="10.00">discord_core_api::unique</text>
<text text-anchor="middle" x="227.5" y="-18.5" font-family="Helvetica,sans-Serif" font-size="10.00">_ptr::~unique_ptr</text>
</a>
</g>
</g>
<!-- Node2&#45;&gt;Node6 -->
<g id="edge6" class="edge">
<title>Node2&#45;&gt;Node6</title>
<path fill="none" stroke="#63b8ff" d="M329.37,-56.57C312.73,-51.61 294.84,-46.28 278.82,-41.5"/>
<polygon fill="#63b8ff" stroke="#63b8ff" points="328.42,-59.94 339,-59.44 330.42,-53.23 328.42,-59.94"/>
</g>
<!-- Node3&#45;&gt;Node4 -->
<g id="edge3" class="edge">
<title>Node3&#45;&gt;Node4</title>
<path fill="none" stroke="#63b8ff" d="M160.49,-92.13C147.64,-95.56 134.28,-99.13 121.78,-102.47"/>
<polygon fill="#63b8ff" stroke="#63b8ff" points="161.43,-95.5 170.19,-89.54 159.63,-88.74 161.43,-95.5"/>
</g>
<!-- Node5 -->
<g id="node5" class="node">
<title>Node5</title>
<g id="a_node5"><a xlink:href="classdiscord__core__api_1_1unique__ptr_3_01value__type_0f_0e_00_01deleter_01_4.html#adafd686791a9e8f0081e9017c8b9edfa" target="_top" xlink:title="Move assignment operator for related pointers.">
<polygon fill="white" stroke="#666666" points="129,-84 0,-84 0,-43 129,-43 129,-84"/>
<text text-anchor="start" x="8" y="-72" font-family="Helvetica,sans-Serif" font-size="10.00">discord_core_api::unique</text>
<text text-anchor="start" x="8" y="-61" font-family="Helvetica,sans-Serif" font-size="10.00">_ptr&lt; value_type[], deleter</text>
<text text-anchor="middle" x="64.5" y="-50" font-family="Helvetica,sans-Serif" font-size="10.00"> &gt;::operator=</text>
</a>
</g>
</g>
<!-- Node3&#45;&gt;Node5 -->
<g id="edge4" class="edge">
<title>Node3&#45;&gt;Node5</title>
<path fill="none" stroke="#63b8ff" d="M154.53,-69.58C146.1,-69.01 137.55,-68.42 129.25,-67.86"/>
<polygon fill="#63b8ff" stroke="#63b8ff" points="154.5,-73.09 164.71,-70.28 154.98,-66.1 154.5,-73.09"/>
</g>
</g>
</svg>
