<?xml version="1.0" encoding="UTF-8" standalone="no"?>
<!DOCTYPE svg PUBLIC "-//W3C//DTD SVG 1.1//EN"
 "http://www.w3.org/Graphics/SVG/1.1/DTD/svg11.dtd">
<!-- Generated by graphviz version 5.0.0 (20220707.1540)
 -->
<!-- Title: discord_core_api::co_routine::cancelAndWait Pages: 1 -->
<svg width="284pt" height="86pt"
 viewBox="0.00 0.00 284.00 86.00" xmlns="http://www.w3.org/2000/svg" xmlns:xlink="http://www.w3.org/1999/xlink">
<g id="graph0" class="graph" transform="scale(1 1) rotate(0) translate(4 82)">
<title>discord_core_api::co_routine::cancelAndWait</title>
<!-- Node1 -->
<g id="node1" class="node">
<title>Node1</title>
<g id="a_node1"><a xlink:title="Cancels the currently running co_routine, while blocking to wait for it to complete.">
<polygon fill="#999999" stroke="#666666" points="276,-54 153,-54 153,-24 276,-24 276,-54"/>
<text text-anchor="start" x="161" y="-42" font-family="Helvetica,sans-Serif" font-size="10.00">discord_core_api::co</text>
<text text-anchor="middle" x="214.5" y="-31" font-family="Helvetica,sans-Serif" font-size="10.00">_routine::cancelAndWait</text>
</a>
</g>
</g>
<!-- Node2 -->
<g id="node2" class="node">
<title>Node2</title>
<g id="a_node2"><a xlink:href="classdiscord__core__api_1_1song__api.html#aabdfc4ebf2ed57449343e338bd7ee43d" target="_top" xlink:title="Plays the current song. (assuming that you are currently connected to a voice_connection).">
<polygon fill="white" stroke="#666666" points="117,-78 0,-78 0,-48 117,-48 117,-78"/>
<text text-anchor="start" x="8" y="-66" font-family="Helvetica,sans-Serif" font-size="10.00">discord_core_api::song</text>
<text text-anchor="middle" x="58.5" y="-55" font-family="Helvetica,sans-Serif" font-size="10.00">_api::play</text>
</a>
</g>
</g>
<!-- Node1&#45;&gt;Node2 -->
<g id="edge1" class="edge">
<title>Node1&#45;&gt;Node2</title>
<path fill="none" stroke="#63b8ff" d="M142.75,-50.03C134.27,-51.35 125.68,-52.69 117.41,-53.97"/>
<polygon fill="#63b8ff" stroke="#63b8ff" points="143.29,-53.48 152.64,-48.49 142.22,-46.57 143.29,-53.48"/>
</g>
<!-- Node3 -->
<g id="node3" class="node">
<title>Node3</title>
<g id="a_node3"><a xlink:href="classdiscord__core__api_1_1song__api.html#aea128000f8b9805bd9dc497fa9725ca8" target="_top" xlink:title="Stops the currently playing song.">
<polygon fill="white" stroke="#666666" points="117,-30 0,-30 0,0 117,0 117,-30"/>
<text text-anchor="start" x="8" y="-18" font-family="Helvetica,sans-Serif" font-size="10.00">discord_core_api::song</text>
<text text-anchor="middle" x="58.5" y="-7" font-family="Helvetica,sans-Serif" font-size="10.00">_api::stop</text>
</a>
</g>
</g>
<!-- Node1&#45;&gt;Node3 -->
<g id="edge2" class="edge">
<title>Node1&#45;&gt;Node3</title>
<path fill="none" stroke="#63b8ff" d="M142.75,-27.97C134.27,-26.65 125.68,-25.31 117.41,-24.03"/>
<polygon fill="#63b8ff" stroke="#63b8ff" points="142.22,-31.43 152.64,-29.51 143.29,-24.52 142.22,-31.43"/>
</g>
</g>
</svg>
