<?xml version="1.0" encoding="UTF-8" standalone="no"?>
<!DOCTYPE svg PUBLIC "-//W3C//DTD SVG 1.1//EN"
 "http://www.w3.org/Graphics/SVG/1.1/DTD/svg11.dtd">
<!-- Generated by graphviz version 5.0.0 (20220707.1540)
 -->
<!-- Title: discord_core_api::discord_core_client::getBotUser Pages: 1 -->
<svg width="300pt" height="134pt"
 viewBox="0.00 0.00 300.00 134.00" xmlns="http://www.w3.org/2000/svg" xmlns:xlink="http://www.w3.org/1999/xlink">
<g id="graph0" class="graph" transform="scale(1 1) rotate(0) translate(4 130)">
<title>discord_core_api::discord_core_client::getBotUser</title>
<!-- Node1 -->
<g id="node1" class="node">
<title>Node1</title>
<g id="a_node1"><a xlink:title="For collecting a copy of the current bot&#39;s user_data.">
<polygon fill="#999999" stroke="#666666" points="292,-78 164,-78 164,-48 292,-48 292,-78"/>
<text text-anchor="start" x="172" y="-66" font-family="Helvetica,sans-Serif" font-size="10.00">discord_core_api::discord</text>
<text text-anchor="middle" x="228" y="-55" font-family="Helvetica,sans-Serif" font-size="10.00">_core_client::getBotUser</text>
</a>
</g>
</g>
<!-- Node2 -->
<g id="node2" class="node">
<title>Node2</title>
<g id="a_node2"><a xlink:href="classdiscord__core__api_1_1guild__data.html#a20d3a7d33cd7db64bcb9bf3ded6799a9" target="_top" xlink:title="For disconnecting from the current guild&#39;s voice channel.">
<polygon fill="white" stroke="#666666" points="122,-126 6,-126 6,-96 122,-96 122,-126"/>
<text text-anchor="start" x="14" y="-114" font-family="Helvetica,sans-Serif" font-size="10.00">discord_core_api::guild</text>
<text text-anchor="middle" x="64" y="-103" font-family="Helvetica,sans-Serif" font-size="10.00">_data::disconnect</text>
</a>
</g>
</g>
<!-- Node1&#45;&gt;Node2 -->
<g id="edge1" class="edge">
<title>Node1&#45;&gt;Node2</title>
<path fill="none" stroke="#63b8ff" d="M166.5,-80.93C149.75,-85.89 131.75,-91.22 115.63,-96"/>
<polygon fill="#63b8ff" stroke="#63b8ff" points="167.59,-84.25 176.19,-78.06 165.6,-77.54 167.59,-84.25"/>
</g>
<!-- Node3 -->
<g id="node3" class="node">
<title>Node3</title>
<g id="a_node3"><a xlink:href="classdiscord__core__api_1_1guild__cache__data.html#a5bc0db60572a5be2c29b884d8cf51c35" target="_top" xlink:title="For disconnecting from the current guild&#39;s voice channel.">
<polygon fill="white" stroke="#666666" points="126.5,-78 1.5,-78 1.5,-48 126.5,-48 126.5,-78"/>
<text text-anchor="start" x="9.5" y="-66" font-family="Helvetica,sans-Serif" font-size="10.00">discord_core_api::guild</text>
<text text-anchor="middle" x="64" y="-55" font-family="Helvetica,sans-Serif" font-size="10.00">_cache_data::disconnect</text>
</a>
</g>
</g>
<!-- Node1&#45;&gt;Node3 -->
<g id="edge2" class="edge">
<title>Node1&#45;&gt;Node3</title>
<path fill="none" stroke="#63b8ff" d="M153.74,-63C144.67,-63 135.47,-63 126.6,-63"/>
<polygon fill="#63b8ff" stroke="#63b8ff" points="153.9,-66.5 163.9,-63 153.9,-59.5 153.9,-66.5"/>
</g>
<!-- Node4 -->
<g id="node4" class="node">
<title>Node4</title>
<g id="a_node4"><a xlink:href="classdiscord__core__api_1_1discord__core__client.html#a3d713a5a5a7d11c19a9b9d0d8f570560" target="_top" xlink:title="Executes the library, and waits for completion.">
<polygon fill="white" stroke="#666666" points="128,-30 0,-30 0,0 128,0 128,-30"/>
<text text-anchor="start" x="8" y="-18" font-family="Helvetica,sans-Serif" font-size="10.00">discord_core_api::discord</text>
<text text-anchor="middle" x="64" y="-7" font-family="Helvetica,sans-Serif" font-size="10.00">_core_client::runBot</text>
</a>
</g>
</g>
<!-- Node1&#45;&gt;Node4 -->
<g id="edge3" class="edge">
<title>Node1&#45;&gt;Node4</title>
<path fill="none" stroke="#63b8ff" d="M166.5,-45.07C149.75,-40.11 131.75,-34.78 115.63,-30"/>
<polygon fill="#63b8ff" stroke="#63b8ff" points="165.6,-48.46 176.19,-47.94 167.59,-41.75 165.6,-48.46"/>
</g>
</g>
</svg>
