<?xml version="1.0" encoding="UTF-8" standalone="no"?>
<!DOCTYPE svg PUBLIC "-//W3C//DTD SVG 1.1//EN"
 "http://www.w3.org/Graphics/SVG/1.1/DTD/svg11.dtd">
<!-- Generated by graphviz version 5.0.0 (20220707.1540)
 -->
<!-- Title: discord_core_api::input_event_data::getMessageData Pages: 1 -->
<svg width="331pt" height="146pt"
 viewBox="0.00 0.00 331.00 145.50" xmlns="http://www.w3.org/2000/svg" xmlns:xlink="http://www.w3.org/1999/xlink">
<g id="graph0" class="graph" transform="scale(1 1) rotate(0) translate(4 141.5)">
<title>discord_core_api::input_event_data::getMessageData</title>
<!-- Node1 -->
<g id="node1" class="node">
<title>Node1</title>
<g id="a_node1"><a xlink:title="Returns the message data, if applicable, of this input&#45;event.">
<polygon fill="#999999" stroke="#666666" points="323,-89.5 175,-89.5 175,-59.5 323,-59.5 323,-89.5"/>
<text text-anchor="start" x="183" y="-77.5" font-family="Helvetica,sans-Serif" font-size="10.00">discord_core_api::input</text>
<text text-anchor="middle" x="249" y="-66.5" font-family="Helvetica,sans-Serif" font-size="10.00">_event_data::getMessageData</text>
</a>
</g>
</g>
<!-- Node2 -->
<g id="node2" class="node">
<title>Node2</title>
<g id="a_node2"><a xlink:href="classdiscord__core__api_1_1button__collector.html#ab79f6c694ebdb4545747292ee1957794" target="_top" xlink:title="Constructor.">
<polygon fill="white" stroke="#666666" points="136.5,-137.5 2.5,-137.5 2.5,-107.5 136.5,-107.5 136.5,-137.5"/>
<text text-anchor="start" x="10.5" y="-125.5" font-family="Helvetica,sans-Serif" font-size="10.00">discord_core_api::button</text>
<text text-anchor="middle" x="69.5" y="-114.5" font-family="Helvetica,sans-Serif" font-size="10.00">_collector::button_collector</text>
</a>
</g>
</g>
<!-- Node1&#45;&gt;Node2 -->
<g id="edge1" class="edge">
<title>Node1&#45;&gt;Node2</title>
<path fill="none" stroke="#63b8ff" d="M182.48,-92.22C163.91,-97.24 143.89,-102.65 125.98,-107.5"/>
<polygon fill="#63b8ff" stroke="#63b8ff" points="183.59,-95.54 192.32,-89.56 181.76,-88.79 183.59,-95.54"/>
</g>
<!-- Node3 -->
<g id="node3" class="node">
<title>Node3</title>
<g id="a_node3"><a xlink:href="classdiscord__core__api_1_1command__data.html#aa14b54cb5f3f033f1a9acbf3db3efa24" target="_top" xlink:title="Returns the message data, if applicable, of this input&#45;event.">
<polygon fill="white" stroke="#666666" points="139,-89.5 0,-89.5 0,-59.5 139,-59.5 139,-89.5"/>
<text text-anchor="start" x="8" y="-77.5" font-family="Helvetica,sans-Serif" font-size="10.00">discord_core_api::command</text>
<text text-anchor="middle" x="69.5" y="-66.5" font-family="Helvetica,sans-Serif" font-size="10.00">_data::getMessageData</text>
</a>
</g>
</g>
<!-- Node1&#45;&gt;Node3 -->
<g id="edge2" class="edge">
<title>Node1&#45;&gt;Node3</title>
<path fill="none" stroke="#63b8ff" d="M164.52,-74.5C156.07,-74.5 147.55,-74.5 139.27,-74.5"/>
<polygon fill="#63b8ff" stroke="#63b8ff" points="164.78,-78 174.78,-74.5 164.78,-71 164.78,-78"/>
</g>
<!-- Node4 -->
<g id="node4" class="node">
<title>Node4</title>
<g id="a_node4"><a xlink:href="classdiscord__core__api_1_1select__menu__collector.html#a9a5118ff126df5e7261e864da579d0f8" target="_top" xlink:title="Constructor.">
<polygon fill="white" stroke="#666666" points="130.5,-41 8.5,-41 8.5,0 130.5,0 130.5,-41"/>
<text text-anchor="start" x="16.5" y="-29" font-family="Helvetica,sans-Serif" font-size="10.00">discord_core_api::select</text>
<text text-anchor="start" x="16.5" y="-18" font-family="Helvetica,sans-Serif" font-size="10.00">_menu_collector::select</text>
<text text-anchor="middle" x="69.5" y="-7" font-family="Helvetica,sans-Serif" font-size="10.00">_menu_collector</text>
</a>
</g>
</g>
<!-- Node1&#45;&gt;Node4 -->
<g id="edge3" class="edge">
<title>Node1&#45;&gt;Node4</title>
<path fill="none" stroke="#63b8ff" d="M188.97,-56.54C170.25,-50.85 149.53,-44.54 130.73,-38.82"/>
<polygon fill="#63b8ff" stroke="#63b8ff" points="187.97,-59.9 198.56,-59.46 190.01,-53.2 187.97,-59.9"/>
</g>
</g>
</svg>
