<?xml version="1.0" encoding="UTF-8" standalone="no"?>
<!DOCTYPE svg PUBLIC "-//W3C//DTD SVG 1.1//EN"
 "http://www.w3.org/Graphics/SVG/1.1/DTD/svg11.dtd">
<!-- Generated by graphviz version 5.0.0 (20220707.1540)
 -->
<!-- Title: discord_core_api::song_api::stop Pages: 1 -->
<svg width="284pt" height="86pt"
 viewBox="0.00 0.00 284.00 86.00" xmlns="http://www.w3.org/2000/svg" xmlns:xlink="http://www.w3.org/1999/xlink">
<g id="graph0" class="graph" transform="scale(1 1) rotate(0) translate(4 82)">
<title>discord_core_api::song_api::stop</title>
<!-- Node1 -->
<g id="node1" class="node">
<title>Node1</title>
<g id="a_node1"><a xlink:title="Stops the currently playing song.">
<polygon fill="#999999" stroke="#666666" points="117,-54 0,-54 0,-24 117,-24 117,-54"/>
<text text-anchor="start" x="8" y="-42" font-family="Helvetica,sans-Serif" font-size="10.00">discord_core_api::song</text>
<text text-anchor="middle" x="58.5" y="-31" font-family="Helvetica,sans-Serif" font-size="10.00">_api::stop</text>
</a>
</g>
</g>
<!-- Node2 -->
<g id="node2" class="node">
<title>Node2</title>
<g id="a_node2"><a xlink:href="classdiscord__core__api_1_1co__routine.html#a543e5d5dc04db1461dac2586f473fc1d" target="_top" xlink:title="Cancels the currently running co_routine, while blocking to wait for it to complete.">
<polygon fill="white" stroke="#666666" points="276,-78 153,-78 153,-48 276,-48 276,-78"/>
<text text-anchor="start" x="161" y="-66" font-family="Helvetica,sans-Serif" font-size="10.00">discord_core_api::co</text>
<text text-anchor="middle" x="214.5" y="-55" font-family="Helvetica,sans-Serif" font-size="10.00">_routine::cancelAndWait</text>
</a>
</g>
</g>
<!-- Node1&#45;&gt;Node2 -->
<g id="edge1" class="edge">
<title>Node1&#45;&gt;Node2</title>
<path fill="none" stroke="#63b8ff" d="M117.28,-48C125.62,-49.31 134.29,-50.66 142.85,-51.99"/>
<polygon fill="#63b8ff" stroke="#63b8ff" points="142.4,-55.46 152.82,-53.54 143.48,-48.55 142.4,-55.46"/>
</g>
<!-- Node3 -->
<g id="node3" class="node">
<title>Node3</title>
<g id="a_node3"><a xlink:href="classdiscord__core__api_1_1co__routine.html#a466be18382a2335dc9d9da7b3a2b70bd" target="_top" xlink:title="Collects the status of the co_routine.">
<polygon fill="white" stroke="#666666" points="268,-30 161,-30 161,0 268,0 268,-30"/>
<text text-anchor="start" x="169" y="-18" font-family="Helvetica,sans-Serif" font-size="10.00">discord_core_api::co</text>
<text text-anchor="middle" x="214.5" y="-7" font-family="Helvetica,sans-Serif" font-size="10.00">_routine::getStatus</text>
</a>
</g>
</g>
<!-- Node1&#45;&gt;Node3 -->
<g id="edge2" class="edge">
<title>Node1&#45;&gt;Node3</title>
<path fill="none" stroke="#63b8ff" d="M117.28,-30C128.26,-28.28 139.79,-26.49 150.91,-24.75"/>
<polygon fill="#63b8ff" stroke="#63b8ff" points="151.64,-28.18 160.98,-23.18 150.56,-21.27 151.64,-28.18"/>
</g>
</g>
</svg>
