<?xml version="1.0" encoding="UTF-8" standalone="no"?>
<!DOCTYPE svg PUBLIC "-//W3C//DTD SVG 1.1//EN"
 "http://www.w3.org/Graphics/SVG/1.1/DTD/svg11.dtd">
<!-- Generated by graphviz version 5.0.0 (20220707.1540)
 -->
<!-- Title: discord_core_api::roles::getCachedRole Pages: 1 -->
<svg width="477pt" height="38pt"
 viewBox="0.00 0.00 477.00 38.00" xmlns="http://www.w3.org/2000/svg" xmlns:xlink="http://www.w3.org/1999/xlink">
<g id="graph0" class="graph" transform="scale(1 1) rotate(0) translate(4 34)">
<title>discord_core_api::roles::getCachedRole</title>
<!-- Node1 -->
<g id="node1" class="node">
<title>Node1</title>
<g id="a_node1"><a xlink:title="Collects a given role from the library&#39;s cache.">
<polygon fill="#999999" stroke="#666666" points="469,-30 352,-30 352,0 469,0 469,-30"/>
<text text-anchor="start" x="360" y="-18" font-family="Helvetica,sans-Serif" font-size="10.00">discord_core_api::roles</text>
<text text-anchor="middle" x="410.5" y="-7" font-family="Helvetica,sans-Serif" font-size="10.00">::getCachedRole</text>
</a>
</g>
</g>
<!-- Node2 -->
<g id="node2" class="node">
<title>Node2</title>
<g id="a_node2"><a xlink:href="classdiscord__core__api_1_1roles.html#a53a90ed9bfc3c7b61121cb2b0ce31a19" target="_top" xlink:title="Updates a role_data&#39;s positions.">
<polygon fill="white" stroke="#666666" points="316,-30 155,-30 155,0 316,0 316,-30"/>
<text text-anchor="start" x="163" y="-18" font-family="Helvetica,sans-Serif" font-size="10.00">discord_core_api::roles</text>
<text text-anchor="middle" x="235.5" y="-7" font-family="Helvetica,sans-Serif" font-size="10.00">::modifyGuildRolePositionsAsync</text>
</a>
</g>
</g>
<!-- Node1&#45;&gt;Node2 -->
<g id="edge1" class="edge">
<title>Node1&#45;&gt;Node2</title>
<path fill="none" stroke="#63b8ff" d="M341.75,-15C333.31,-15 324.63,-15 316.04,-15"/>
<polygon fill="#63b8ff" stroke="#63b8ff" points="341.89,-18.5 351.89,-15 341.89,-11.5 341.89,-18.5"/>
</g>
<!-- Node3 -->
<g id="node3" class="node">
<title>Node3</title>
<g id="a_node3"><a xlink:href="classdiscord__core__api_1_1roles.html#aa705ecb5a94c0406ef505100f56f90c5" target="_top" xlink:title="Creates a new role_data within the given guild.">
<polygon fill="white" stroke="#666666" points="119,-30 0,-30 0,0 119,0 119,-30"/>
<text text-anchor="start" x="8" y="-18" font-family="Helvetica,sans-Serif" font-size="10.00">discord_core_api::roles</text>
<text text-anchor="middle" x="59.5" y="-7" font-family="Helvetica,sans-Serif" font-size="10.00">::createGuildRoleAsync</text>
</a>
</g>
</g>
<!-- Node2&#45;&gt;Node3 -->
<g id="edge2" class="edge">
<title>Node2&#45;&gt;Node3</title>
<path fill="none" stroke="#63b8ff" d="M144.67,-15C135.96,-15 127.29,-15 119.01,-15"/>
<polygon fill="#63b8ff" stroke="#63b8ff" points="144.88,-18.5 154.88,-15 144.88,-11.5 144.88,-18.5"/>
</g>
</g>
</svg>
