<?xml version="1.0" encoding="UTF-8" standalone="no"?>
<!DOCTYPE svg PUBLIC "-//W3C//DTD SVG 1.1//EN"
 "http://www.w3.org/Graphics/SVG/1.1/DTD/svg11.dtd">
<!-- Generated by graphviz version 5.0.0 (20220707.1540)
 -->
<!-- Title: discord_core_api::unique_ptr&lt; value_type[], deleter &gt;::operator= Pages: 1 -->
<svg width="620pt" height="49pt"
 viewBox="0.00 0.00 620.00 49.00" xmlns="http://www.w3.org/2000/svg" xmlns:xlink="http://www.w3.org/1999/xlink">
<g id="graph0" class="graph" transform="scale(1 1) rotate(0) translate(4 45)">
<title>discord_core_api::unique_ptr&lt; value_type[], deleter &gt;::operator=</title>
<!-- Node1 -->
<g id="node1" class="node">
<title>Node1</title>
<g id="a_node1"><a xlink:title="Move assignment operator for raw pointer.">
<polygon fill="#999999" stroke="#666666" points="129,-41 0,-41 0,0 129,0 129,-41"/>
<text text-anchor="start" x="8" y="-29" font-family="Helvetica,sans-Serif" font-size="10.00">discord_core_api::unique</text>
<text text-anchor="start" x="8" y="-18" font-family="Helvetica,sans-Serif" font-size="10.00">_ptr&lt; value_type[], deleter</text>
<text text-anchor="middle" x="64.5" y="-7" font-family="Helvetica,sans-Serif" font-size="10.00"> &gt;::operator=</text>
</a>
</g>
</g>
<!-- Node2 -->
<g id="node2" class="node">
<title>Node2</title>
<g id="a_node2"><a xlink:href="classdiscord__core__api_1_1unique__ptr.html#af838aeef646a628fabd5b86a584f74e4" target="_top" xlink:title="Commits a new pointer value and resets the current one.">
<polygon fill="white" stroke="#666666" points="290,-35.5 165,-35.5 165,-5.5 290,-5.5 290,-35.5"/>
<text text-anchor="start" x="173" y="-23.5" font-family="Helvetica,sans-Serif" font-size="10.00">discord_core_api::unique</text>
<text text-anchor="middle" x="227.5" y="-12.5" font-family="Helvetica,sans-Serif" font-size="10.00">_ptr::commit</text>
</a>
</g>
</g>
<!-- Node1&#45;&gt;Node2 -->
<g id="edge1" class="edge">
<title>Node1&#45;&gt;Node2</title>
<path fill="none" stroke="#63b8ff" d="M129.13,-20.5C137.5,-20.5 146.13,-20.5 154.63,-20.5"/>
<polygon fill="#63b8ff" stroke="#63b8ff" points="154.91,-24 164.91,-20.5 154.91,-17 154.91,-24"/>
</g>
<!-- Node3 -->
<g id="node3" class="node">
<title>Node3</title>
<g id="a_node3"><a xlink:href="classdiscord__core__api_1_1unique__ptr.html#ac4181f2db372911de8b59113fee8e057" target="_top" xlink:title="Resets the managed pointer and invokes the deleter.">
<polygon fill="white" stroke="#666666" points="451,-35.5 326,-35.5 326,-5.5 451,-5.5 451,-35.5"/>
<text text-anchor="start" x="334" y="-23.5" font-family="Helvetica,sans-Serif" font-size="10.00">discord_core_api::unique</text>
<text text-anchor="middle" x="388.5" y="-12.5" font-family="Helvetica,sans-Serif" font-size="10.00">_ptr::reset</text>
</a>
</g>
</g>
<!-- Node2&#45;&gt;Node3 -->
<g id="edge2" class="edge">
<title>Node2&#45;&gt;Node3</title>
<path fill="none" stroke="#63b8ff" d="M290.43,-20.5C298.67,-20.5 307.18,-20.5 315.58,-20.5"/>
<polygon fill="#63b8ff" stroke="#63b8ff" points="315.74,-24 325.74,-20.5 315.74,-17 315.74,-24"/>
</g>
<!-- Node4 -->
<g id="node4" class="node">
<title>Node4</title>
<g id="a_node4"><a xlink:href="classdiscord__core__api_1_1unique__ptr.html#a214c4ae19c56f00fea131d352e97aa86" target="_top" xlink:title="Gets the deleter associated with the managed object.">
<polygon fill="white" stroke="#666666" points="612,-35.5 487,-35.5 487,-5.5 612,-5.5 612,-35.5"/>
<text text-anchor="start" x="495" y="-23.5" font-family="Helvetica,sans-Serif" font-size="10.00">discord_core_api::unique</text>
<text text-anchor="middle" x="549.5" y="-12.5" font-family="Helvetica,sans-Serif" font-size="10.00">_ptr::getDeleter</text>
</a>
</g>
</g>
<!-- Node3&#45;&gt;Node4 -->
<g id="edge3" class="edge">
<title>Node3&#45;&gt;Node4</title>
<path fill="none" stroke="#63b8ff" d="M451.43,-20.5C459.67,-20.5 468.18,-20.5 476.58,-20.5"/>
<polygon fill="#63b8ff" stroke="#63b8ff" points="476.74,-24 486.74,-20.5 476.74,-17 476.74,-24"/>
</g>
</g>
</svg>
