<?xml version="1.0" encoding="UTF-8" standalone="no"?>
<!DOCTYPE svg PUBLIC "-//W3C//DTD SVG 1.1//EN"
 "http://www.w3.org/Graphics/SVG/1.1/DTD/svg11.dtd">
<!-- Generated by graphviz version 5.0.0 (20220707.1540)
 -->
<!-- Title: discord_core_api::edit_follow_up_message_data Pages: 1 -->
<svg width="139pt" height="170pt"
 viewBox="0.00 0.00 139.00 170.00" xmlns="http://www.w3.org/2000/svg" xmlns:xlink="http://www.w3.org/1999/xlink">
<g id="graph0" class="graph" transform="scale(1 1) rotate(0) translate(4 166)">
<title>discord_core_api::edit_follow_up_message_data</title>
<!-- Node1 -->
<g id="node1" class="node">
<title>Node1</title>
<g id="a_node1"><a xlink:title="For editing a follow up message_data.">
<polygon fill="#999999" stroke="#666666" points="131,-30 0,-30 0,0 131,0 131,-30"/>
<text text-anchor="start" x="8" y="-18" font-family="Helvetica,sans-Serif" font-size="10.00">discord_core_api::edit</text>
<text text-anchor="middle" x="65.5" y="-7" font-family="Helvetica,sans-Serif" font-size="10.00">_follow_up_message_data</text>
</a>
</g>
</g>
<!-- Node2 -->
<g id="node2" class="node">
<title>Node2</title>
<g id="a_node2"><a xlink:href="classdiscord__core__api_1_1edit__web__hook__data.html" target="_top" xlink:title="For editing a web_hook message_data.">
<polygon fill="white" stroke="#666666" points="121.5,-96 9.5,-96 9.5,-66 121.5,-66 121.5,-96"/>
<text text-anchor="start" x="17.5" y="-84" font-family="Helvetica,sans-Serif" font-size="10.00">discord_core_api::edit</text>
<text text-anchor="middle" x="65.5" y="-73" font-family="Helvetica,sans-Serif" font-size="10.00">_web_hook_data</text>
</a>
</g>
</g>
<!-- Node2&#45;&gt;Node1 -->
<g id="edge1" class="edge">
<title>Node2&#45;&gt;Node1</title>
<path fill="none" stroke="#63b8ff" d="M65.5,-55.54C65.5,-46.96 65.5,-37.61 65.5,-30.16"/>
<polygon fill="#63b8ff" stroke="#63b8ff" points="62,-55.8 65.5,-65.8 69,-55.8 62,-55.8"/>
</g>
<!-- Node3 -->
<g id="node3" class="node">
<title>Node3</title>
<g id="a_node3"><a xlink:href="classdiscord__core__api_1_1execute__web__hook__data.html" target="_top" xlink:title="For executing a web_hook.">
<polygon fill="white" stroke="#666666" points="131,-162 0,-162 0,-132 131,-132 131,-162"/>
<text text-anchor="start" x="8" y="-150" font-family="Helvetica,sans-Serif" font-size="10.00">discord_core_api::execute</text>
<text text-anchor="middle" x="65.5" y="-139" font-family="Helvetica,sans-Serif" font-size="10.00">_web_hook_data</text>
</a>
</g>
</g>
<!-- Node3&#45;&gt;Node2 -->
<g id="edge2" class="edge">
<title>Node3&#45;&gt;Node2</title>
<path fill="none" stroke="#63b8ff" d="M65.5,-121.54C65.5,-112.96 65.5,-103.61 65.5,-96.16"/>
<polygon fill="#63b8ff" stroke="#63b8ff" points="62,-121.8 65.5,-131.8 69,-121.8 62,-121.8"/>
</g>
</g>
</svg>
