<?xml version="1.0" encoding="UTF-8" standalone="no"?>
<!DOCTYPE svg PUBLIC "-//W3C//DTD SVG 1.1//EN"
 "http://www.w3.org/Graphics/SVG/1.1/DTD/svg11.dtd">
<!-- Generated by graphviz version 5.0.0 (20220707.1540)
 -->
<!-- Title: discord_core_api::discord_core_internal::ogg_demuxer::processOggPage Pages: 1 -->
<svg width="492pt" height="108pt"
 viewBox="0.00 0.00 492.00 108.00" xmlns="http://www.w3.org/2000/svg" xmlns:xlink="http://www.w3.org/1999/xlink">
<g id="graph0" class="graph" transform="scale(1 1) rotate(0) translate(4 104)">
<title>discord_core_api::discord_core_internal::ogg_demuxer::processOggPage</title>
<!-- Node1 -->
<g id="node1" class="node">
<title>Node1</title>
<g id="a_node1"><a xlink:title="Processes an Ogg page for demuxing.">
<polygon fill="#999999" stroke="#666666" points="142,-70 0,-70 0,-29 142,-29 142,-70"/>
<text text-anchor="start" x="8" y="-58" font-family="Helvetica,sans-Serif" font-size="10.00">discord_core_api::discord</text>
<text text-anchor="start" x="8" y="-47" font-family="Helvetica,sans-Serif" font-size="10.00">_core_internal::ogg_demuxer</text>
<text text-anchor="middle" x="71" y="-36" font-family="Helvetica,sans-Serif" font-size="10.00">::processOggPage</text>
</a>
</g>
</g>
<!-- Node2 -->
<g id="node2" class="node">
<title>Node2</title>
<g id="a_node2"><a xlink:href="classdiscord__core__api_1_1discord__core__internal_1_1ogg__demuxer.html#a2befc6d56bf822993b6eb5a51e2353f3" target="_top" xlink:title="Processes Opus packets extracted from Ogg pages.">
<polygon fill="white" stroke="#666666" points="320,-100 178,-100 178,-59 320,-59 320,-100"/>
<text text-anchor="start" x="186" y="-88" font-family="Helvetica,sans-Serif" font-size="10.00">discord_core_api::discord</text>
<text text-anchor="start" x="186" y="-77" font-family="Helvetica,sans-Serif" font-size="10.00">_core_internal::ogg_demuxer</text>
<text text-anchor="middle" x="249" y="-66" font-family="Helvetica,sans-Serif" font-size="10.00">::processPackets</text>
</a>
</g>
</g>
<!-- Node1&#45;&gt;Node2 -->
<g id="edge1" class="edge">
<title>Node1&#45;&gt;Node2</title>
<path fill="none" stroke="#63b8ff" d="M142.07,-61.44C150.54,-62.89 159.25,-64.37 167.85,-65.84"/>
<polygon fill="#63b8ff" stroke="#63b8ff" points="167.44,-69.32 177.89,-67.55 168.62,-62.42 167.44,-69.32"/>
</g>
<!-- Node3 -->
<g id="node3" class="node">
<title>Node3</title>
<g id="a_node3"><a xlink:href="classdiscord__core__api_1_1discord__core__internal_1_1ogg__demuxer.html#a985d1a0148a52aa7bee1aebf01a1eeae" target="_top" xlink:title="Processes Ogg pages to extract Opus packets.">
<polygon fill="white" stroke="#666666" points="320,-41 178,-41 178,0 320,0 320,-41"/>
<text text-anchor="start" x="186" y="-29" font-family="Helvetica,sans-Serif" font-size="10.00">discord_core_api::discord</text>
<text text-anchor="start" x="186" y="-18" font-family="Helvetica,sans-Serif" font-size="10.00">_core_internal::ogg_demuxer</text>
<text text-anchor="middle" x="249" y="-7" font-family="Helvetica,sans-Serif" font-size="10.00">::processPages</text>
</a>
</g>
</g>
<!-- Node1&#45;&gt;Node3 -->
<g id="edge2" class="edge">
<title>Node1&#45;&gt;Node3</title>
<path fill="none" stroke="#63b8ff" d="M142.07,-37.96C150.54,-36.56 159.25,-35.12 167.85,-33.71"/>
<polygon fill="#63b8ff" stroke="#63b8ff" points="168.59,-37.13 177.89,-32.05 167.45,-30.23 168.59,-37.13"/>
</g>
<!-- Node4 -->
<g id="node4" class="node">
<title>Node4</title>
<g id="a_node4"><a xlink:href="classdiscord__core__api_1_1discord__core__internal_1_1ogg__page.html#a79384fe76af930751bb319ba6bd57735" target="_top" xlink:title="Retrieves the next Opus packet from the Ogg page.">
<polygon fill="white" stroke="#666666" points="484,-41 356,-41 356,0 484,0 484,-41"/>
<text text-anchor="start" x="364" y="-29" font-family="Helvetica,sans-Serif" font-size="10.00">discord_core_api::discord</text>
<text text-anchor="start" x="364" y="-18" font-family="Helvetica,sans-Serif" font-size="10.00">_core_internal::ogg_page</text>
<text text-anchor="middle" x="420" y="-7" font-family="Helvetica,sans-Serif" font-size="10.00">::getOpusPacket</text>
</a>
</g>
</g>
<!-- Node3&#45;&gt;Node4 -->
<g id="edge3" class="edge">
<title>Node3&#45;&gt;Node4</title>
<path fill="none" stroke="#63b8ff" d="M320.2,-20.5C328.58,-20.5 337.16,-20.5 345.58,-20.5"/>
<polygon fill="#63b8ff" stroke="#63b8ff" points="345.76,-24 355.76,-20.5 345.76,-17 345.76,-24"/>
</g>
</g>
</svg>
