<?xml version="1.0" encoding="UTF-8" standalone="no"?>
<!DOCTYPE svg PUBLIC "-//W3C//DTD SVG 1.1//EN"
 "http://www.w3.org/Graphics/SVG/1.1/DTD/svg11.dtd">
<!-- Generated by graphviz version 5.0.0 (20220707.1540)
 -->
<!-- Title: discord_core_api::discord_core_internal::ring_buffer::writeData Pages: 1 -->
<svg width="357pt" height="477pt"
 viewBox="0.00 0.00 357.00 477.00" xmlns="http://www.w3.org/2000/svg" xmlns:xlink="http://www.w3.org/1999/xlink">
<g id="graph0" class="graph" transform="scale(1 1) rotate(0) translate(4 473)">
<title>discord_core_api::discord_core_internal::ring_buffer::writeData</title>
<!-- Node1 -->
<g id="node1" class="node">
<title>Node1</title>
<g id="a_node1"><a xlink:title="Write data into the buffer.">
<polygon fill="#999999" stroke="#666666" points="128,-209 0,-209 0,-168 128,-168 128,-209"/>
<text text-anchor="start" x="8" y="-197" font-family="Helvetica,sans-Serif" font-size="10.00">discord_core_api::discord</text>
<text text-anchor="start" x="8" y="-186" font-family="Helvetica,sans-Serif" font-size="10.00">_core_internal::ring_buffer</text>
<text text-anchor="middle" x="64" y="-175" font-family="Helvetica,sans-Serif" font-size="10.00">::writeData</text>
</a>
</g>
</g>
<!-- Node2 -->
<g id="node2" class="node">
<title>Node2</title>
<g id="a_node2"><a xlink:href="classdiscord__core__api_1_1discord__core__internal_1_1ring__buffer__interface.html#a4caa83386f429171894be63c13eee2b0" target="_top" xlink:title="Clear the buffer by resetting positions.">
<polygon fill="white" stroke="#666666" points="320.5,-469 192.5,-469 192.5,-428 320.5,-428 320.5,-469"/>
<text text-anchor="start" x="200.5" y="-457" font-family="Helvetica,sans-Serif" font-size="10.00">discord_core_api::discord</text>
<text text-anchor="start" x="200.5" y="-446" font-family="Helvetica,sans-Serif" font-size="10.00">_core_internal::ring_buffer</text>
<text text-anchor="middle" x="256.5" y="-435" font-family="Helvetica,sans-Serif" font-size="10.00">_interface::clear</text>
</a>
</g>
</g>
<!-- Node1&#45;&gt;Node2 -->
<g id="edge1" class="edge">
<title>Node1&#45;&gt;Node2</title>
<path fill="none" stroke="#63b8ff" d="M68.1,-209.29C75.87,-254.06 100.31,-360.28 164,-418.5 169.51,-423.54 175.89,-427.74 182.66,-431.23"/>
<polygon fill="#63b8ff" stroke="#63b8ff" points="181.55,-434.57 192.09,-435.56 184.47,-428.21 181.55,-434.57"/>
</g>
<!-- Node3 -->
<g id="node3" class="node">
<title>Node3</title>
<g id="a_node3"><a xlink:href="classdiscord__core__api_1_1discord__core__internal_1_1ring__buffer__interface.html#ae537b696b125410e1f668ddc538d56a7" target="_top" xlink:title="Get a pointer to the current head position.">
<polygon fill="white" stroke="#666666" points="347,-409.5 166,-409.5 166,-335.5 347,-335.5 347,-409.5"/>
<text text-anchor="start" x="174" y="-397.5" font-family="Helvetica,sans-Serif" font-size="10.00">discord_core_api::discord</text>
<text text-anchor="start" x="174" y="-386.5" font-family="Helvetica,sans-Serif" font-size="10.00">_core_internal::ring_buffer</text>
<text text-anchor="start" x="174" y="-375.5" font-family="Helvetica,sans-Serif" font-size="10.00">_interface&lt; ring_buffer_interface</text>
<text text-anchor="start" x="174" y="-364.5" font-family="Helvetica,sans-Serif" font-size="10.00">&lt; std::unwrap_ref_decay_t&lt; value</text>
<text text-anchor="start" x="174" y="-353.5" font-family="Helvetica,sans-Serif" font-size="10.00">_type_new &gt;, 1024 *16 &gt;, slice_count</text>
<text text-anchor="middle" x="256.5" y="-342.5" font-family="Helvetica,sans-Serif" font-size="10.00"> &gt;::getCurrentHead</text>
</a>
</g>
</g>
<!-- Node1&#45;&gt;Node3 -->
<g id="edge2" class="edge">
<title>Node1&#45;&gt;Node3</title>
<path fill="none" stroke="#63b8ff" d="M75.59,-209.14C91.46,-238.4 123.88,-292.21 164,-326.5 165.14,-327.47 166.31,-328.43 167.49,-329.38"/>
<polygon fill="#63b8ff" stroke="#63b8ff" points="165.49,-332.25 175.6,-335.41 169.67,-326.64 165.49,-332.25"/>
</g>
<!-- Node4 -->
<g id="node4" class="node">
<title>Node4</title>
<g id="a_node4"><a xlink:href="classdiscord__core__api_1_1discord__core__internal_1_1ring__buffer__interface.html#aef4106da276bdc044efcbbe8acb13db7" target="_top" xlink:title="Get a pointer to the current tail position.">
<polygon fill="white" stroke="#666666" points="347,-317.5 166,-317.5 166,-243.5 347,-243.5 347,-317.5"/>
<text text-anchor="start" x="174" y="-305.5" font-family="Helvetica,sans-Serif" font-size="10.00">discord_core_api::discord</text>
<text text-anchor="start" x="174" y="-294.5" font-family="Helvetica,sans-Serif" font-size="10.00">_core_internal::ring_buffer</text>
<text text-anchor="start" x="174" y="-283.5" font-family="Helvetica,sans-Serif" font-size="10.00">_interface&lt; ring_buffer_interface</text>
<text text-anchor="start" x="174" y="-272.5" font-family="Helvetica,sans-Serif" font-size="10.00">&lt; std::unwrap_ref_decay_t&lt; value</text>
<text text-anchor="start" x="174" y="-261.5" font-family="Helvetica,sans-Serif" font-size="10.00">_type_new &gt;, 1024 *16 &gt;, slice_count</text>
<text text-anchor="middle" x="256.5" y="-250.5" font-family="Helvetica,sans-Serif" font-size="10.00"> &gt;::getCurrentTail</text>
</a>
</g>
</g>
<!-- Node1&#45;&gt;Node4 -->
<g id="edge3" class="edge">
<title>Node1&#45;&gt;Node4</title>
<path fill="none" stroke="#63b8ff" d="M107.75,-209.15C126.09,-218 148.19,-228.68 169.66,-239.04"/>
<polygon fill="#63b8ff" stroke="#63b8ff" points="168.28,-242.26 178.8,-243.46 171.32,-235.96 168.28,-242.26"/>
</g>
<!-- Node5 -->
<g id="node5" class="node">
<title>Node5</title>
<g id="a_node5"><a xlink:href="classdiscord__core__api_1_1discord__core__internal_1_1ring__buffer__interface.html#afb8531c883d540cd1ee5e3f05b4ffe21" target="_top" xlink:title="Get the used space in the buffer.">
<polygon fill="white" stroke="#666666" points="347,-225.5 166,-225.5 166,-151.5 347,-151.5 347,-225.5"/>
<text text-anchor="start" x="174" y="-213.5" font-family="Helvetica,sans-Serif" font-size="10.00">discord_core_api::discord</text>
<text text-anchor="start" x="174" y="-202.5" font-family="Helvetica,sans-Serif" font-size="10.00">_core_internal::ring_buffer</text>
<text text-anchor="start" x="174" y="-191.5" font-family="Helvetica,sans-Serif" font-size="10.00">_interface&lt; ring_buffer_interface</text>
<text text-anchor="start" x="174" y="-180.5" font-family="Helvetica,sans-Serif" font-size="10.00">&lt; std::unwrap_ref_decay_t&lt; value</text>
<text text-anchor="start" x="174" y="-169.5" font-family="Helvetica,sans-Serif" font-size="10.00">_type_new &gt;, 1024 *16 &gt;, slice_count</text>
<text text-anchor="middle" x="256.5" y="-158.5" font-family="Helvetica,sans-Serif" font-size="10.00"> &gt;::getUsedSpace</text>
</a>
</g>
</g>
<!-- Node1&#45;&gt;Node5 -->
<g id="edge4" class="edge">
<title>Node1&#45;&gt;Node5</title>
<path fill="none" stroke="#63b8ff" d="M128.17,-188.5C137.08,-188.5 146.41,-188.5 155.8,-188.5"/>
<polygon fill="#63b8ff" stroke="#63b8ff" points="155.99,-192 165.99,-188.5 155.99,-185 155.99,-192"/>
</g>
<!-- Node6 -->
<g id="node6" class="node">
<title>Node6</title>
<g id="a_node6"><a xlink:href="classdiscord__core__api_1_1discord__core__internal_1_1ring__buffer__interface.html#afbbe905efed4a1af794530751b357bbe" target="_top" xlink:title="Check if the buffer is full.">
<polygon fill="white" stroke="#666666" points="347,-133.5 166,-133.5 166,-59.5 347,-59.5 347,-133.5"/>
<text text-anchor="start" x="174" y="-121.5" font-family="Helvetica,sans-Serif" font-size="10.00">discord_core_api::discord</text>
<text text-anchor="start" x="174" y="-110.5" font-family="Helvetica,sans-Serif" font-size="10.00">_core_internal::ring_buffer</text>
<text text-anchor="start" x="174" y="-99.5" font-family="Helvetica,sans-Serif" font-size="10.00">_interface&lt; ring_buffer_interface</text>
<text text-anchor="start" x="174" y="-88.5" font-family="Helvetica,sans-Serif" font-size="10.00">&lt; std::unwrap_ref_decay_t&lt; value</text>
<text text-anchor="start" x="174" y="-77.5" font-family="Helvetica,sans-Serif" font-size="10.00">_type_new &gt;, 1024 *16 &gt;, slice_count</text>
<text text-anchor="middle" x="256.5" y="-66.5" font-family="Helvetica,sans-Serif" font-size="10.00"> &gt;::isItFull</text>
</a>
</g>
</g>
<!-- Node1&#45;&gt;Node6 -->
<g id="edge5" class="edge">
<title>Node1&#45;&gt;Node6</title>
<path fill="none" stroke="#63b8ff" d="M107.75,-167.85C126.09,-159 148.19,-148.32 169.66,-137.96"/>
<polygon fill="#63b8ff" stroke="#63b8ff" points="171.32,-141.04 178.8,-133.54 168.28,-134.74 171.32,-141.04"/>
</g>
<!-- Node7 -->
<g id="node7" class="node">
<title>Node7</title>
<g id="a_node7"><a xlink:href="classdiscord__core__api_1_1discord__core__internal_1_1ring__buffer__interface.html#a9755eb1b81e10cff09603f24142d7ed3" target="_top" xlink:title="Modify the read or write position of the buffer.">
<polygon fill="white" stroke="#666666" points="349,-41 164,-41 164,0 349,0 349,-41"/>
<text text-anchor="start" x="172" y="-29" font-family="Helvetica,sans-Serif" font-size="10.00">discord_core_api::discord</text>
<text text-anchor="start" x="172" y="-18" font-family="Helvetica,sans-Serif" font-size="10.00">_core_internal::ring_buffer</text>
<text text-anchor="middle" x="256.5" y="-7" font-family="Helvetica,sans-Serif" font-size="10.00">_interface::modifyReadOrWritePosition</text>
</a>
</g>
</g>
<!-- Node1&#45;&gt;Node7 -->
<g id="edge6" class="edge">
<title>Node1&#45;&gt;Node7</title>
<path fill="none" stroke="#63b8ff" d="M72.01,-167.76C84.86,-137.43 114.68,-81.9 156.47,-47.39"/>
<polygon fill="#63b8ff" stroke="#63b8ff" points="158.67,-50.11 164.41,-41.2 154.37,-44.59 158.67,-50.11"/>
</g>
<!-- Node1&#45;&gt;Node7 -->
<g id="edge7" class="edge">
<title>Node1&#45;&gt;Node7</title>
<path fill="none" stroke="#63b8ff" d="M77.75,-167.88C93.72,-139.37 123.93,-88.88 164,-59.5 172.09,-53.57 181.41,-48.77 190.95,-44.78"/>
<polygon fill="#63b8ff" stroke="#63b8ff" points="192.47,-47.95 200.52,-41.05 189.93,-41.42 192.47,-47.95"/>
</g>
</g>
</svg>
