<?xml version="1.0" encoding="UTF-8" standalone="no"?>
<!DOCTYPE svg PUBLIC "-//W3C//DTD SVG 1.1//EN"
 "http://www.w3.org/Graphics/SVG/1.1/DTD/svg11.dtd">
<!-- Generated by graphviz version 5.0.0 (20220707.1540)
 -->
<!-- Title: discord_core_api::execute_web_hook_data Pages: 1 -->
<svg width="528pt" height="158pt"
 viewBox="0.00 0.00 528.00 158.00" xmlns="http://www.w3.org/2000/svg" xmlns:xlink="http://www.w3.org/1999/xlink">
<g id="graph0" class="graph" transform="scale(1 1) rotate(0) translate(4 154)">
<title>discord_core_api::execute_web_hook_data</title>
<!-- Node1 -->
<g id="node1" class="node">
<title>Node1</title>
<g id="a_node1"><a xlink:title="For executing a web_hook.">
<polygon fill="#999999" stroke="#666666" points="131,-102 0,-102 0,-72 131,-72 131,-102"/>
<text text-anchor="start" x="8" y="-90" font-family="Helvetica,sans-Serif" font-size="10.00">discord_core_api::execute</text>
<text text-anchor="middle" x="65.5" y="-79" font-family="Helvetica,sans-Serif" font-size="10.00">_web_hook_data</text>
</a>
</g>
</g>
<!-- Node2 -->
<g id="node2" class="node">
<title>Node2</title>
<g id="a_node2"><a xlink:href="classdiscord__core__api_1_1create__ephemeral__follow__up__message__data.html" target="_top" xlink:title="For creating an ephemeral follow up message_data.">
<polygon fill="white" stroke="#666666" points="348,-150 167,-150 167,-120 348,-120 348,-150"/>
<text text-anchor="start" x="175" y="-138" font-family="Helvetica,sans-Serif" font-size="10.00">discord_core_api::create</text>
<text text-anchor="middle" x="257.5" y="-127" font-family="Helvetica,sans-Serif" font-size="10.00">_ephemeral_follow_up_message_data</text>
</a>
</g>
</g>
<!-- Node1&#45;&gt;Node2 -->
<g id="edge1" class="edge">
<title>Node1&#45;&gt;Node2</title>
<path fill="none" stroke="#63b8ff" d="M135.81,-104.51C155.92,-109.59 177.68,-115.09 197.12,-120"/>
<polygon fill="#63b8ff" stroke="#63b8ff" points="136.65,-101.11 126.1,-102.06 134.93,-107.9 136.65,-101.11"/>
</g>
<!-- Node3 -->
<g id="node3" class="node">
<title>Node3</title>
<g id="a_node3"><a xlink:href="classdiscord__core__api_1_1create__follow__up__message__data.html" target="_top" xlink:title="For creating a follow up message_data.">
<polygon fill="white" stroke="#666666" points="323,-102 192,-102 192,-72 323,-72 323,-102"/>
<text text-anchor="start" x="200" y="-90" font-family="Helvetica,sans-Serif" font-size="10.00">discord_core_api::create</text>
<text text-anchor="middle" x="257.5" y="-79" font-family="Helvetica,sans-Serif" font-size="10.00">_follow_up_message_data</text>
</a>
</g>
</g>
<!-- Node1&#45;&gt;Node3 -->
<g id="edge2" class="edge">
<title>Node1&#45;&gt;Node3</title>
<path fill="none" stroke="#63b8ff" d="M141.34,-87C158.01,-87 175.54,-87 191.77,-87"/>
<polygon fill="#63b8ff" stroke="#63b8ff" points="141.09,-83.5 131.09,-87 141.09,-90.5 141.09,-83.5"/>
</g>
<!-- Node4 -->
<g id="node4" class="node">
<title>Node4</title>
<g id="a_node4"><a xlink:href="classdiscord__core__api_1_1edit__web__hook__data.html" target="_top" xlink:title="For editing a web_hook message_data.">
<polygon fill="white" stroke="#666666" points="313.5,-54 201.5,-54 201.5,-24 313.5,-24 313.5,-54"/>
<text text-anchor="start" x="209.5" y="-42" font-family="Helvetica,sans-Serif" font-size="10.00">discord_core_api::edit</text>
<text text-anchor="middle" x="257.5" y="-31" font-family="Helvetica,sans-Serif" font-size="10.00">_web_hook_data</text>
</a>
</g>
</g>
<!-- Node1&#45;&gt;Node4 -->
<g id="edge3" class="edge">
<title>Node1&#45;&gt;Node4</title>
<path fill="none" stroke="#63b8ff" d="M135.85,-69.48C157.4,-64.03 180.86,-58.11 201.32,-52.94"/>
<polygon fill="#63b8ff" stroke="#63b8ff" points="134.93,-66.1 126.1,-71.94 136.65,-72.89 134.93,-66.1"/>
</g>
<!-- Node5 -->
<g id="node5" class="node">
<title>Node5</title>
<g id="a_node5"><a xlink:href="classdiscord__core__api_1_1edit__follow__up__message__data.html" target="_top" xlink:title="For editing a follow up message_data.">
<polygon fill="white" stroke="#666666" points="517.5,-78 386.5,-78 386.5,-48 517.5,-48 517.5,-78"/>
<text text-anchor="start" x="394.5" y="-66" font-family="Helvetica,sans-Serif" font-size="10.00">discord_core_api::edit</text>
<text text-anchor="middle" x="452" y="-55" font-family="Helvetica,sans-Serif" font-size="10.00">_follow_up_message_data</text>
</a>
</g>
</g>
<!-- Node4&#45;&gt;Node5 -->
<g id="edge4" class="edge">
<title>Node4&#45;&gt;Node5</title>
<path fill="none" stroke="#63b8ff" d="M323.7,-47.13C343.9,-49.65 366.14,-52.42 386.3,-54.93"/>
<polygon fill="#63b8ff" stroke="#63b8ff" points="324.02,-43.64 313.66,-45.88 323.15,-50.59 324.02,-43.64"/>
</g>
<!-- Node6 -->
<g id="node6" class="node">
<title>Node6</title>
<g id="a_node6"><a xlink:href="classdiscord__core__api_1_1edit__interaction__response__data.html" target="_top" xlink:title="For editing an interaction response.">
<polygon fill="white" stroke="#666666" points="520,-30 384,-30 384,0 520,0 520,-30"/>
<text text-anchor="start" x="392" y="-18" font-family="Helvetica,sans-Serif" font-size="10.00">discord_core_api::edit</text>
<text text-anchor="middle" x="452" y="-7" font-family="Helvetica,sans-Serif" font-size="10.00">_interaction_response_data</text>
</a>
</g>
</g>
<!-- Node4&#45;&gt;Node6 -->
<g id="edge5" class="edge">
<title>Node4&#45;&gt;Node6</title>
<path fill="none" stroke="#63b8ff" d="M323.62,-30.88C343.03,-28.46 364.33,-25.81 383.87,-23.37"/>
<polygon fill="#63b8ff" stroke="#63b8ff" points="323.15,-27.41 313.66,-32.12 324.02,-34.36 323.15,-27.41"/>
</g>
</g>
</svg>
