<?xml version="1.0" encoding="UTF-8" standalone="no"?>
<!DOCTYPE svg PUBLIC "-//W3C//DTD SVG 1.1//EN"
 "http://www.w3.org/Graphics/SVG/1.1/DTD/svg11.dtd">
<!-- Generated by graphviz version 5.0.0 (20220707.1540)
 -->
<!-- Title: discord_core_api::roles::getCachedRole Pages: 1 -->
<svg width="431pt" height="38pt"
 viewBox="0.00 0.00 431.00 38.00" xmlns="http://www.w3.org/2000/svg" xmlns:xlink="http://www.w3.org/1999/xlink">
<g id="graph0" class="graph" transform="scale(1 1) rotate(0) translate(4 34)">
<title>discord_core_api::roles::getCachedRole</title>
<!-- Node1 -->
<g id="node1" class="node">
<title>Node1</title>
<g id="a_node1"><a xlink:title="Collects a given role from the library&#39;s cache.">
<polygon fill="#999999" stroke="#666666" points="117,-30 0,-30 0,0 117,0 117,-30"/>
<text text-anchor="start" x="8" y="-18" font-family="Helvetica,sans-Serif" font-size="10.00">discord_core_api::roles</text>
<text text-anchor="middle" x="58.5" y="-7" font-family="Helvetica,sans-Serif" font-size="10.00">::getCachedRole</text>
</a>
</g>
</g>
<!-- Node2 -->
<g id="node2" class="node">
<title>Node2</title>
<g id="a_node2"><a xlink:href="classdiscord__core__api_1_1roles.html#a5ffa574fb5a9d549f03e636b688b9c78" target="_top" xlink:title="Collects a role_data from the discord servers.">
<polygon fill="white" stroke="#666666" points="270,-30 153,-30 153,0 270,0 270,-30"/>
<text text-anchor="start" x="161" y="-18" font-family="Helvetica,sans-Serif" font-size="10.00">discord_core_api::roles</text>
<text text-anchor="middle" x="211.5" y="-7" font-family="Helvetica,sans-Serif" font-size="10.00">::getRoleAsync</text>
</a>
</g>
</g>
<!-- Node1&#45;&gt;Node2 -->
<g id="edge1" class="edge">
<title>Node1&#45;&gt;Node2</title>
<path fill="none" stroke="#63b8ff" d="M117.02,-15C125.46,-15 134.23,-15 142.86,-15"/>
<polygon fill="#63b8ff" stroke="#63b8ff" points="142.89,-18.5 152.89,-15 142.89,-11.5 142.89,-18.5"/>
</g>
<!-- Node3 -->
<g id="node3" class="node">
<title>Node3</title>
<g id="a_node3"><a xlink:href="classdiscord__core__api_1_1roles.html#a767affffd8bd3b4e23419be4de80a8f8" target="_top" xlink:title="Collects the roles that a guild has.">
<polygon fill="white" stroke="#666666" points="423,-30 306,-30 306,0 423,0 423,-30"/>
<text text-anchor="start" x="314" y="-18" font-family="Helvetica,sans-Serif" font-size="10.00">discord_core_api::roles</text>
<text text-anchor="middle" x="364.5" y="-7" font-family="Helvetica,sans-Serif" font-size="10.00">::getGuildRolesAsync</text>
</a>
</g>
</g>
<!-- Node2&#45;&gt;Node3 -->
<g id="edge2" class="edge">
<title>Node2&#45;&gt;Node3</title>
<path fill="none" stroke="#63b8ff" d="M270.02,-15C278.46,-15 287.23,-15 295.86,-15"/>
<polygon fill="#63b8ff" stroke="#63b8ff" points="295.89,-18.5 305.89,-15 295.89,-11.5 295.89,-18.5"/>
</g>
</g>
</svg>
