<?xml version="1.0" encoding="UTF-8" standalone="no"?>
<!DOCTYPE svg PUBLIC "-//W3C//DTD SVG 1.1//EN"
 "http://www.w3.org/Graphics/SVG/1.1/DTD/svg11.dtd">
<!-- Generated by graphviz version 5.0.0 (20220707.1540)
 -->
<!-- Title: discord_core_api::time_stamp_base::convertTimeStampToTimeUnits Pages: 1 -->
<svg width="535pt" height="98pt"
 viewBox="0.00 0.00 535.00 97.50" xmlns="http://www.w3.org/2000/svg" xmlns:xlink="http://www.w3.org/1999/xlink">
<g id="graph0" class="graph" transform="scale(1 1) rotate(0) translate(4 93.5)">
<title>discord_core_api::time_stamp_base::convertTimeStampToTimeUnits</title>
<!-- Node1 -->
<g id="node1" class="node">
<title>Node1</title>
<g id="a_node1"><a xlink:title="Converts a string time stamp into a uint64_t time value.">
<polygon fill="#999999" stroke="#666666" points="527,-62.5 366,-62.5 366,-21.5 527,-21.5 527,-62.5"/>
<text text-anchor="start" x="374" y="-50.5" font-family="Helvetica,sans-Serif" font-size="10.00">discord_core_api::time</text>
<text text-anchor="start" x="374" y="-39.5" font-family="Helvetica,sans-Serif" font-size="10.00">_stamp_base::convertTimeStamp</text>
<text text-anchor="middle" x="446.5" y="-28.5" font-family="Helvetica,sans-Serif" font-size="10.00">ToTimeUnits</text>
</a>
</g>
</g>
<!-- Node2 -->
<g id="node2" class="node">
<title>Node2</title>
<g id="a_node2"><a xlink:href="classdiscord__core__api_1_1time__stamp__base.html#ab72c67b0e9eae765528653a27e019720" target="_top" xlink:title="Converts a string time stamp into a uint64_t time value.">
<polygon fill="white" stroke="#666666" points="327.5,-89.5 179.5,-89.5 179.5,-48.5 327.5,-48.5 327.5,-89.5"/>
<text text-anchor="start" x="187.5" y="-77.5" font-family="Helvetica,sans-Serif" font-size="10.00">discord_core_api::time</text>
<text text-anchor="start" x="187.5" y="-66.5" font-family="Helvetica,sans-Serif" font-size="10.00">_stamp_base::convertStringTo</text>
<text text-anchor="middle" x="253.5" y="-55.5" font-family="Helvetica,sans-Serif" font-size="10.00">UintTimeStamp</text>
</a>
</g>
</g>
<!-- Node1&#45;&gt;Node2 -->
<g id="edge1" class="edge">
<title>Node1&#45;&gt;Node2</title>
<path fill="none" stroke="#63b8ff" d="M355.7,-54.69C346.28,-56.03 336.78,-57.37 327.58,-58.67"/>
<polygon fill="#63b8ff" stroke="#63b8ff" points="356.47,-58.12 365.88,-53.25 355.49,-51.19 356.47,-58.12"/>
</g>
<!-- Node3 -->
<g id="node3" class="node">
<title>Node3</title>
<g id="a_node3"><a xlink:href="classdiscord__core__api_1_1time__stamp__base.html#ad0216deb6195100d9e00a5e915dc54e9" target="_top" xlink:title="Checks if a certain time duration has elapsed.">
<polygon fill="white" stroke="#666666" points="330,-30 177,-30 177,0 330,0 330,-30"/>
<text text-anchor="start" x="185" y="-18" font-family="Helvetica,sans-Serif" font-size="10.00">discord_core_api::time</text>
<text text-anchor="middle" x="253.5" y="-7" font-family="Helvetica,sans-Serif" font-size="10.00">_stamp_base::hasTimeElapsed</text>
</a>
</g>
</g>
<!-- Node1&#45;&gt;Node3 -->
<g id="edge2" class="edge">
<title>Node1&#45;&gt;Node3</title>
<path fill="none" stroke="#63b8ff" d="M355.8,-29.32C347.17,-28.1 338.48,-26.87 330.01,-25.67"/>
<polygon fill="#63b8ff" stroke="#63b8ff" points="355.49,-32.81 365.88,-30.75 356.47,-25.88 355.49,-32.81"/>
</g>
<!-- Node4 -->
<g id="node4" class="node">
<title>Node4</title>
<g id="a_node4"><a xlink:href="classdiscord__core__api_1_1messages.html#ab824032cc6936d2c0aa8375f0a209040" target="_top" xlink:title="Deletes a message.">
<polygon fill="white" stroke="#666666" points="141,-30 0,-30 0,0 141,0 141,-30"/>
<text text-anchor="start" x="8" y="-18" font-family="Helvetica,sans-Serif" font-size="10.00">discord_core_api::messages</text>
<text text-anchor="middle" x="70.5" y="-7" font-family="Helvetica,sans-Serif" font-size="10.00">::deleteMessageAsync</text>
</a>
</g>
</g>
<!-- Node3&#45;&gt;Node4 -->
<g id="edge3" class="edge">
<title>Node3&#45;&gt;Node4</title>
<path fill="none" stroke="#63b8ff" d="M166.75,-15C158.17,-15 149.52,-15 141.13,-15"/>
<polygon fill="#63b8ff" stroke="#63b8ff" points="166.79,-18.5 176.79,-15 166.79,-11.5 166.79,-18.5"/>
</g>
</g>
</svg>
