<?xml version="1.0" encoding="UTF-8" standalone="no"?>
<!DOCTYPE svg PUBLIC "-//W3C//DTD SVG 1.1//EN"
 "http://www.w3.org/Graphics/SVG/1.1/DTD/svg11.dtd">
<!-- Generated by graphviz version 5.0.0 (20220707.1540)
 -->
<!-- Title: discord_core_api::send_dmdata Pages: 1 -->
<svg width="144pt" height="170pt"
 viewBox="0.00 0.00 144.00 170.00" xmlns="http://www.w3.org/2000/svg" xmlns:xlink="http://www.w3.org/1999/xlink">
<g id="graph0" class="graph" transform="scale(1 1) rotate(0) translate(4 166)">
<title>discord_core_api::send_dmdata</title>
<!-- Node1 -->
<g id="node1" class="node">
<title>Node1</title>
<g id="a_node1"><a xlink:title="For sending a direct&#45;message.">
<polygon fill="#999999" stroke="#666666" points="126.5,-30 9.5,-30 9.5,0 126.5,0 126.5,-30"/>
<text text-anchor="start" x="17.5" y="-18" font-family="Helvetica,sans-Serif" font-size="10.00">discord_core_api::send</text>
<text text-anchor="middle" x="68" y="-7" font-family="Helvetica,sans-Serif" font-size="10.00">_dmdata</text>
</a>
</g>
</g>
<!-- Node2 -->
<g id="node2" class="node">
<title>Node2</title>
<g id="a_node2"><a xlink:href="classdiscord__core__api_1_1create__message__data.html" target="_top" xlink:title="For creating a message.">
<polygon fill="white" stroke="#666666" points="129.5,-96 6.5,-96 6.5,-66 129.5,-66 129.5,-96"/>
<text text-anchor="start" x="14.5" y="-84" font-family="Helvetica,sans-Serif" font-size="10.00">discord_core_api::create</text>
<text text-anchor="middle" x="68" y="-73" font-family="Helvetica,sans-Serif" font-size="10.00">_message_data</text>
</a>
</g>
</g>
<!-- Node2&#45;&gt;Node1 -->
<g id="edge1" class="edge">
<title>Node2&#45;&gt;Node1</title>
<path fill="none" stroke="#63b8ff" d="M68,-55.54C68,-46.96 68,-37.61 68,-30.16"/>
<polygon fill="#63b8ff" stroke="#63b8ff" points="64.5,-55.8 68,-65.8 71.5,-55.8 64.5,-55.8"/>
</g>
<!-- Node3 -->
<g id="node3" class="node">
<title>Node3</title>
<g id="a_node3"><a xlink:href="classdiscord__core__api_1_1message__response__base.html" target="_top" xlink:title="Message response base, for responding to messages.">
<polygon fill="white" stroke="#666666" points="136,-162 0,-162 0,-132 136,-132 136,-162"/>
<text text-anchor="start" x="8" y="-150" font-family="Helvetica,sans-Serif" font-size="10.00">discord_core_api::message</text>
<text text-anchor="middle" x="68" y="-139" font-family="Helvetica,sans-Serif" font-size="10.00">_response_base</text>
</a>
</g>
</g>
<!-- Node3&#45;&gt;Node2 -->
<g id="edge2" class="edge">
<title>Node3&#45;&gt;Node2</title>
<path fill="none" stroke="#63b8ff" d="M68,-121.54C68,-112.96 68,-103.61 68,-96.16"/>
<polygon fill="#63b8ff" stroke="#63b8ff" points="64.5,-121.8 68,-131.8 71.5,-121.8 64.5,-121.8"/>
</g>
</g>
</svg>
