<?xml version="1.0" encoding="UTF-8" standalone="no"?>
<!DOCTYPE svg PUBLIC "-//W3C//DTD SVG 1.1//EN"
 "http://www.w3.org/Graphics/SVG/1.1/DTD/svg11.dtd">
<!-- Generated by graphviz version 2.43.0 (0)
 -->
<!-- Title: discord_core_api::discord_core_internal::reverseByteOrder Pages: 1 -->
<svg width="735pt" height="157pt"
 viewBox="0.00 0.00 735.00 156.50" xmlns="http://www.w3.org/2000/svg" xmlns:xlink="http://www.w3.org/1999/xlink">
<g id="graph0" class="graph" transform="scale(1 1) rotate(0) translate(4 152.5)">
<title>discord_core_api::discord_core_internal::reverseByteOrder</title>
<!-- Node1 -->
<g id="Node000001" class="node">
<title>Node1</title>
<g id="a_Node000001"><a xlink:title="Reverses the byte order of a value if needed, based on the endianness.">
<polygon fill="#999999" stroke="#666666" points="727,-84 549,-84 549,-54 727,-54 727,-84"/>
<text text-anchor="start" x="557" y="-72" font-family="Helvetica,sans-Serif" font-size="10.00">discord_core_api::discord</text>
<text text-anchor="middle" x="638" y="-61" font-family="Helvetica,sans-Serif" font-size="10.00">_core_internal::reverseByteOrder</text>
</a>
</g>
</g>
<!-- Node2 -->
<g id="Node000002" class="node">
<title>Node2</title>
<g id="a_Node000002"><a xlink:href="classdiscord__core__api_1_1discord__core__internal_1_1etf__parser.html#aacb013cc72fd1e18600522e57eeabe5c" target="_top" xlink:title="Read bits from the data buffer and convert to return_type.">
<polygon fill="white" stroke="#666666" points="513,-148.5 372,-148.5 372,-107.5 513,-107.5 513,-148.5"/>
<text text-anchor="start" x="380" y="-136.5" font-family="Helvetica,sans-Serif" font-size="10.00">discord_core_api::discord</text>
<text text-anchor="start" x="380" y="-125.5" font-family="Helvetica,sans-Serif" font-size="10.00">_core_internal::etf_parser</text>
<text text-anchor="middle" x="442.5" y="-114.5" font-family="Helvetica,sans-Serif" font-size="10.00">::readBitsFromBuffer</text>
</a>
</g>
</g>
<!-- Node1&#45;&gt;Node2 -->
<g id="edge1_Node000001_Node000002" class="edge">
<title>Node1&#45;&gt;Node2</title>
<g id="a_edge1_Node000001_Node000002"><a xlink:title=" ">
<path fill="none" stroke="#63b8ff" d="M577.87,-87.03C556.74,-93.47 532.77,-100.78 510.99,-107.42"/>
<polygon fill="#63b8ff" stroke="#63b8ff" points="579.13,-90.31 587.67,-84.04 577.09,-83.61 579.13,-90.31"/>
</a>
</g>
</g>
<!-- Node3 -->
<g id="Node000003" class="node">
<title>Node3</title>
<g id="a_Node000003"><a xlink:href="classdiscord__core__api_1_1discord__core__internal_1_1matroska__demuxer.html#a4d3cd81b7ae45f4c8f48b0046f7f8ef5" target="_top" xlink:title="Reverses the byte order of the current element being processed.">
<polygon fill="white" stroke="#666666" points="512.5,-89.5 372.5,-89.5 372.5,-48.5 512.5,-48.5 512.5,-89.5"/>
<text text-anchor="start" x="380.5" y="-77.5" font-family="Helvetica,sans-Serif" font-size="10.00">discord_core_api::discord</text>
<text text-anchor="start" x="380.5" y="-66.5" font-family="Helvetica,sans-Serif" font-size="10.00">_core_internal::matroska</text>
<text text-anchor="middle" x="442.5" y="-55.5" font-family="Helvetica,sans-Serif" font-size="10.00">_demuxer::reverseBytes</text>
</a>
</g>
</g>
<!-- Node1&#45;&gt;Node3 -->
<g id="edge2_Node000001_Node000003" class="edge">
<title>Node1&#45;&gt;Node3</title>
<g id="a_edge2_Node000001_Node000003"><a xlink:title=" ">
<path fill="none" stroke="#63b8ff" d="M538.54,-69C529.84,-69 521.17,-69 512.79,-69"/>
<polygon fill="#63b8ff" stroke="#63b8ff" points="538.74,-72.5 548.74,-69 538.74,-65.5 538.74,-72.5"/>
</a>
</g>
</g>
<!-- Node6 -->
<g id="Node000006" class="node">
<title>Node6</title>
<g id="a_Node000006"><a xlink:href="group__discord__core__internal.html#ga167109a01aa09b0fd24107a776f80441" target="_top" xlink:title="Stores the bits of a number into a character array.">
<polygon fill="white" stroke="#666666" points="512.5,-30 372.5,-30 372.5,0 512.5,0 512.5,-30"/>
<text text-anchor="start" x="380.5" y="-18" font-family="Helvetica,sans-Serif" font-size="10.00">discord_core_api::discord</text>
<text text-anchor="middle" x="442.5" y="-7" font-family="Helvetica,sans-Serif" font-size="10.00">_core_internal::storeBits</text>
</a>
</g>
</g>
<!-- Node1&#45;&gt;Node6 -->
<g id="edge6_Node000001_Node000006" class="edge">
<title>Node1&#45;&gt;Node6</title>
<g id="a_edge6_Node000001_Node000006"><a xlink:title=" ">
<path fill="none" stroke="#63b8ff" d="M573.17,-51.19C548.66,-44.35 520.94,-36.61 497.45,-30.05"/>
<polygon fill="#63b8ff" stroke="#63b8ff" points="572.53,-54.64 583.1,-53.96 574.41,-47.9 572.53,-54.64"/>
</a>
</g>
</g>
<!-- Node4 -->
<g id="Node000004" class="node">
<title>Node4</title>
<g id="a_Node000004"><a xlink:href="classdiscord__core__api_1_1discord__core__internal_1_1matroska__demuxer.html#a48798dd602e449ac0fb3a4842bebc548" target="_top" xlink:title="Finds the next occurrence of the specified value in the data.">
<polygon fill="white" stroke="#666666" points="336,-113.5 196,-113.5 196,-72.5 336,-72.5 336,-113.5"/>
<text text-anchor="start" x="204" y="-101.5" font-family="Helvetica,sans-Serif" font-size="10.00">discord_core_api::discord</text>
<text text-anchor="start" x="204" y="-90.5" font-family="Helvetica,sans-Serif" font-size="10.00">_core_internal::matroska</text>
<text text-anchor="middle" x="266" y="-79.5" font-family="Helvetica,sans-Serif" font-size="10.00">_demuxer::findNextId</text>
</a>
</g>
</g>
<!-- Node3&#45;&gt;Node4 -->
<g id="edge3_Node000003_Node000004" class="edge">
<title>Node3&#45;&gt;Node4</title>
<g id="a_edge3_Node000003_Node000004"><a xlink:title=" ">
<path fill="none" stroke="#63b8ff" d="M362.16,-79.91C353.47,-81.11 344.68,-82.32 336.13,-83.49"/>
<polygon fill="#63b8ff" stroke="#63b8ff" points="362.85,-83.35 372.28,-78.52 361.9,-76.42 362.85,-83.35"/>
</a>
</g>
</g>
<!-- Node5 -->
<g id="Node000005" class="node">
<title>Node5</title>
<g id="a_Node000005"><a xlink:href="classdiscord__core__api_1_1discord__core__internal_1_1matroska__demuxer.html#af1384f635fcc1cf0d7a98ce108f545c4" target="_top" xlink:title="Proceed with the demuxing process.">
<polygon fill="white" stroke="#666666" points="160,-88.5 0,-88.5 0,-47.5 160,-47.5 160,-88.5"/>
<text text-anchor="start" x="8" y="-76.5" font-family="Helvetica,sans-Serif" font-size="10.00">discord_core_api::discord</text>
<text text-anchor="start" x="8" y="-65.5" font-family="Helvetica,sans-Serif" font-size="10.00">_core_internal::matroska</text>
<text text-anchor="middle" x="80" y="-54.5" font-family="Helvetica,sans-Serif" font-size="10.00">_demuxer::proceedDemuxing</text>
</a>
</g>
</g>
<!-- Node3&#45;&gt;Node5 -->
<g id="edge5_Node000003_Node000005" class="edge">
<title>Node3&#45;&gt;Node5</title>
<g id="a_edge5_Node000003_Node000005"><a xlink:title=" ">
<path fill="none" stroke="#63b8ff" d="M362.02,-64C353.25,-63.59 344.44,-63.24 336,-63 273.8,-61.23 258.21,-61.65 196,-63 184.41,-63.25 172.17,-63.65 160.17,-64.11"/>
<polygon fill="#63b8ff" stroke="#63b8ff" points="362.13,-67.5 372.29,-64.5 362.47,-60.51 362.13,-67.5"/>
</a>
</g>
</g>
<!-- Node4&#45;&gt;Node5 -->
<g id="edge4_Node000004_Node000005" class="edge">
<title>Node4&#45;&gt;Node5</title>
<g id="a_edge4_Node000004_Node000005"><a xlink:title=" ">
<path fill="none" stroke="#63b8ff" d="M185.96,-82.26C177.36,-81.09 168.61,-79.9 160.02,-78.74"/>
<polygon fill="#63b8ff" stroke="#63b8ff" points="185.58,-85.74 195.96,-83.62 186.52,-78.81 185.58,-85.74"/>
</a>
</g>
</g>
</g>
</svg>
