<?xml version="1.0" encoding="UTF-8" standalone="no"?>
<!DOCTYPE svg PUBLIC "-//W3C//DTD SVG 1.1//EN"
 "http://www.w3.org/Graphics/SVG/1.1/DTD/svg11.dtd">
<!-- Generated by graphviz version 2.43.0 (0)
 -->
<!-- Title: Graphical Class Hierarchy Pages: 1 -->
<svg width="608pt" height="134pt"
 viewBox="0.00 0.00 608.00 134.00" xmlns="http://www.w3.org/2000/svg" xmlns:xlink="http://www.w3.org/1999/xlink">
<g id="graph0" class="graph" transform="scale(1 1) rotate(0) translate(4 130)">
<title>Graphical Class Hierarchy</title>
<!-- Node0 -->
<g id="Node000000" class="node">
<title>Node0</title>
<g id="a_Node000000"><a xlink:title=" ">
<polygon fill="#e0e0e0" stroke="#999999" points="86,-72.5 0,-72.5 0,-53.5 86,-53.5 86,-72.5"/>
<text text-anchor="middle" x="43" y="-60.5" font-family="Helvetica,sans-Serif" font-size="10.00">std::exception</text>
</a>
</g>
</g>
<!-- Node1 -->
<g id="Node000001" class="node">
<title>Node1</title>
<g id="a_Node000001"><a xlink:title=" ">
<polygon fill="#e0e0e0" stroke="#999999" points="226,-72.5 122,-72.5 122,-53.5 226,-53.5 226,-72.5"/>
<text text-anchor="middle" x="174" y="-60.5" font-family="Helvetica,sans-Serif" font-size="10.00">std::runtime_error</text>
</a>
</g>
</g>
<!-- Node0&#45;&gt;Node1 -->
<g id="edge26_Node000000_Node000001" class="edge">
<title>Node0&#45;&gt;Node1</title>
<g id="a_edge26_Node000000_Node000001"><a xlink:title=" ">
<path fill="none" stroke="#63b8ff" d="M96.27,-63C104.65,-63 113.31,-63 121.66,-63"/>
<polygon fill="#63b8ff" stroke="#63b8ff" points="96.24,-59.5 86.24,-63 96.24,-66.5 96.24,-59.5"/>
</a>
</g>
</g>
<!-- Node2 -->
<g id="Node000002" class="node">
<title>Node2</title>
<g id="a_Node000002"><a xlink:href="structdiscord__core__api_1_1dca__exception.html" target="_top" xlink:title="An exception class derived from std::runtime_error for dca&#45;related exceptions.">
<polygon fill="white" stroke="#666666" points="384,-78 262,-78 262,-48 384,-48 384,-78"/>
<text text-anchor="start" x="270" y="-66" font-family="Helvetica,sans-Serif" font-size="10.00">discord_core_api::dca</text>
<text text-anchor="middle" x="323" y="-55" font-family="Helvetica,sans-Serif" font-size="10.00">_exception</text>
</a>
</g>
</g>
<!-- Node1&#45;&gt;Node2 -->
<g id="edge27_Node000001_Node000002" class="edge">
<title>Node1&#45;&gt;Node2</title>
<g id="a_edge27_Node000001_Node000002"><a xlink:title=" ">
<path fill="none" stroke="#63b8ff" d="M236.24,-63C244.76,-63 253.5,-63 261.99,-63"/>
<polygon fill="#63b8ff" stroke="#63b8ff" points="236,-59.5 226,-63 236,-66.5 236,-59.5"/>
</a>
</g>
</g>
<!-- Node3 -->
<g id="Node000003" class="node">
<title>Node3</title>
<g id="a_Node000003"><a xlink:href="structdiscord__core__api_1_1co__routine__error.html" target="_top" xlink:title="An error type for co_routines.">
<polygon fill="white" stroke="#666666" points="568,-126 452,-126 452,-96 568,-96 568,-126"/>
<text text-anchor="start" x="460" y="-114" font-family="Helvetica,sans-Serif" font-size="10.00">discord_core_api::co</text>
<text text-anchor="middle" x="510" y="-103" font-family="Helvetica,sans-Serif" font-size="10.00">_routine_error</text>
</a>
</g>
</g>
<!-- Node2&#45;&gt;Node3 -->
<g id="edge28_Node000002_Node000003" class="edge">
<title>Node2&#45;&gt;Node3</title>
<g id="a_edge28_Node000002_Node000003"><a xlink:title=" ">
<path fill="none" stroke="#63b8ff" d="M391.85,-80.6C411.54,-85.71 432.84,-91.24 451.81,-96.16"/>
<polygon fill="#63b8ff" stroke="#63b8ff" points="392.59,-77.18 382.03,-78.06 390.83,-83.96 392.59,-77.18"/>
</a>
</g>
</g>
<!-- Node4 -->
<g id="Node000004" class="node">
<title>Node4</title>
<g id="a_Node000004"><a xlink:href="structdiscord__core__api_1_1discord__core__internal_1_1etf__parse__error.html" target="_top" xlink:title="Exception class for etf parsing errors.">
<polygon fill="white" stroke="#666666" points="593,-78 427,-78 427,-48 593,-48 593,-78"/>
<text text-anchor="start" x="435" y="-66" font-family="Helvetica,sans-Serif" font-size="10.00">discord_core_api::discord</text>
<text text-anchor="middle" x="510" y="-55" font-family="Helvetica,sans-Serif" font-size="10.00">_core_internal::etf_parse_error</text>
</a>
</g>
</g>
<!-- Node2&#45;&gt;Node4 -->
<g id="edge29_Node000002_Node000004" class="edge">
<title>Node2&#45;&gt;Node4</title>
<g id="a_edge29_Node000002_Node000004"><a xlink:title=" ">
<path fill="none" stroke="#63b8ff" d="M394.12,-63C404.77,-63 415.83,-63 426.71,-63"/>
<polygon fill="#63b8ff" stroke="#63b8ff" points="394.06,-59.5 384.06,-63 394.06,-66.5 394.06,-59.5"/>
</a>
</g>
</g>
<!-- Node5 -->
<g id="Node000005" class="node">
<title>Node5</title>
<g id="a_Node000005"><a xlink:href="structdiscord__core__api_1_1discord__core__internal_1_1etf__serialize__error.html" target="_top" xlink:title="Custom exception class for etf serialization errors.">
<polygon fill="white" stroke="#666666" points="600,-30 420,-30 420,0 600,0 600,-30"/>
<text text-anchor="start" x="428" y="-18" font-family="Helvetica,sans-Serif" font-size="10.00">discord_core_api::discord</text>
<text text-anchor="middle" x="510" y="-7" font-family="Helvetica,sans-Serif" font-size="10.00">_core_internal::etf_serialize_error</text>
</a>
</g>
</g>
<!-- Node2&#45;&gt;Node5 -->
<g id="edge30_Node000002_Node000005" class="edge">
<title>Node2&#45;&gt;Node5</title>
<g id="a_edge30_Node000002_Node000005"><a xlink:title=" ">
<path fill="none" stroke="#63b8ff" d="M391.76,-45.42C411.26,-40.36 432.34,-34.89 451.18,-30"/>
<polygon fill="#63b8ff" stroke="#63b8ff" points="390.83,-42.04 382.03,-47.94 392.59,-48.82 390.83,-42.04"/>
</a>
</g>
</g>
</g>
</svg>
