<?xml version="1.0" encoding="UTF-8" standalone="no"?>
<!DOCTYPE svg PUBLIC "-//W3C//DTD SVG 1.1//EN"
 "http://www.w3.org/Graphics/SVG/1.1/DTD/svg11.dtd">
<!-- Generated by graphviz version 5.0.0 (20220707.1540)
 -->
<!-- Title: Graphical Class Hierarchy Pages: 1 -->
<svg width="559pt" height="134pt"
 viewBox="0.00 0.00 559.00 134.00" xmlns="http://www.w3.org/2000/svg" xmlns:xlink="http://www.w3.org/1999/xlink">
<g id="graph0" class="graph" transform="scale(1 1) rotate(0) translate(4 130)">
<title>Graphical Class Hierarchy</title>
<!-- Node0 -->
<g id="node1" class="node">
<title>Node0</title>
<g id="a_node1"><a xlink:title=" ">
<polygon fill="#e0e0e0" stroke="#999999" points="78,-72.5 0,-72.5 0,-53.5 78,-53.5 78,-72.5"/>
<text text-anchor="middle" x="39" y="-60.5" font-family="Helvetica,sans-Serif" font-size="10.00">std::exception</text>
</a>
</g>
</g>
<!-- Node1 -->
<g id="node2" class="node">
<title>Node1</title>
<g id="a_node2"><a xlink:title=" ">
<polygon fill="#e0e0e0" stroke="#999999" points="207,-72.5 114,-72.5 114,-53.5 207,-53.5 207,-72.5"/>
<text text-anchor="middle" x="160.5" y="-60.5" font-family="Helvetica,sans-Serif" font-size="10.00">std::runtime_error</text>
</a>
</g>
</g>
<!-- Node0&#45;&gt;Node1 -->
<g id="edge1" class="edge">
<title>Node0&#45;&gt;Node1</title>
<path fill="none" stroke="#63b8ff" d="M88.23,-63C96.66,-63 105.42,-63 113.79,-63"/>
<polygon fill="#63b8ff" stroke="#63b8ff" points="88.14,-59.5 78.14,-63 88.14,-66.5 88.14,-59.5"/>
</g>
<!-- Node2 -->
<g id="node3" class="node">
<title>Node2</title>
<g id="a_node3"><a xlink:href="structdiscord__core__api_1_1dca__exception.html" target="_top" xlink:title="An exception class derived from std::runtime_error for dca&#45;related exceptions.">
<polygon fill="white" stroke="#666666" points="355,-78 243,-78 243,-48 355,-48 355,-78"/>
<text text-anchor="start" x="251" y="-66" font-family="Helvetica,sans-Serif" font-size="10.00">discord_core_api::dca</text>
<text text-anchor="middle" x="299" y="-55" font-family="Helvetica,sans-Serif" font-size="10.00">_exception</text>
</a>
</g>
</g>
<!-- Node1&#45;&gt;Node2 -->
<g id="edge2" class="edge">
<title>Node1&#45;&gt;Node2</title>
<path fill="none" stroke="#63b8ff" d="M217.33,-63C225.67,-63 234.26,-63 242.58,-63"/>
<polygon fill="#63b8ff" stroke="#63b8ff" points="217.33,-59.5 207.33,-63 217.33,-66.5 217.33,-59.5"/>
</g>
<!-- Node3 -->
<g id="node4" class="node">
<title>Node3</title>
<g id="a_node4"><a xlink:href="structdiscord__core__api_1_1co__routine__error.html" target="_top" xlink:title="An error type for co_routines.">
<polygon fill="white" stroke="#666666" points="524.5,-126 417.5,-126 417.5,-96 524.5,-96 524.5,-126"/>
<text text-anchor="start" x="425.5" y="-114" font-family="Helvetica,sans-Serif" font-size="10.00">discord_core_api::co</text>
<text text-anchor="middle" x="471" y="-103" font-family="Helvetica,sans-Serif" font-size="10.00">_routine_error</text>
</a>
</g>
</g>
<!-- Node2&#45;&gt;Node3 -->
<g id="edge3" class="edge">
<title>Node2&#45;&gt;Node3</title>
<path fill="none" stroke="#63b8ff" d="M363.09,-80.82C380.98,-85.87 400.26,-91.31 417.45,-96.16"/>
<polygon fill="#63b8ff" stroke="#63b8ff" points="363.9,-77.4 353.32,-78.06 362,-84.14 363.9,-77.4"/>
</g>
<!-- Node4 -->
<g id="node5" class="node">
<title>Node4</title>
<g id="a_node5"><a xlink:href="structdiscord__core__api_1_1discord__core__internal_1_1etf__parse__error.html" target="_top" xlink:title="Exception class for etf parsing errors.">
<polygon fill="white" stroke="#666666" points="545,-78 397,-78 397,-48 545,-48 545,-78"/>
<text text-anchor="start" x="405" y="-66" font-family="Helvetica,sans-Serif" font-size="10.00">discord_core_api::discord</text>
<text text-anchor="middle" x="471" y="-55" font-family="Helvetica,sans-Serif" font-size="10.00">_core_internal::etf_parse_error</text>
</a>
</g>
</g>
<!-- Node2&#45;&gt;Node4 -->
<g id="edge4" class="edge">
<title>Node2&#45;&gt;Node4</title>
<path fill="none" stroke="#63b8ff" d="M365.34,-63C375.65,-63 386.36,-63 396.83,-63"/>
<polygon fill="#63b8ff" stroke="#63b8ff" points="365.19,-59.5 355.19,-63 365.19,-66.5 365.19,-59.5"/>
</g>
<!-- Node5 -->
<g id="node6" class="node">
<title>Node5</title>
<g id="a_node6"><a xlink:href="structdiscord__core__api_1_1discord__core__internal_1_1etf__serialize__error.html" target="_top" xlink:title="Custom exception class for etf serialization errors.">
<polygon fill="white" stroke="#666666" points="551,-30 391,-30 391,0 551,0 551,-30"/>
<text text-anchor="start" x="399" y="-18" font-family="Helvetica,sans-Serif" font-size="10.00">discord_core_api::discord</text>
<text text-anchor="middle" x="471" y="-7" font-family="Helvetica,sans-Serif" font-size="10.00">_core_internal::etf_serialize_error</text>
</a>
</g>
</g>
<!-- Node2&#45;&gt;Node5 -->
<g id="edge5" class="edge">
<title>Node2&#45;&gt;Node5</title>
<path fill="none" stroke="#63b8ff" d="M363,-45.21C380.71,-40.21 399.79,-34.82 416.87,-30"/>
<polygon fill="#63b8ff" stroke="#63b8ff" points="362,-41.86 353.32,-47.94 363.9,-48.6 362,-41.86"/>
</g>
</g>
</svg>
