<?xml version="1.0" encoding="UTF-8" standalone="no"?>
<!DOCTYPE svg PUBLIC "-//W3C//DTD SVG 1.1//EN"
 "http://www.w3.org/Graphics/SVG/1.1/DTD/svg11.dtd">
<!-- Generated by graphviz version 5.0.0 (20220707.1540)
 -->
<!-- Title: Graphical Class Hierarchy Pages: 1 -->
<svg width="456pt" height="86pt"
 viewBox="0.00 0.00 456.00 86.00" xmlns="http://www.w3.org/2000/svg" xmlns:xlink="http://www.w3.org/1999/xlink">
<g id="graph0" class="graph" transform="scale(1 1) rotate(0) translate(4 82)">
<title>Graphical Class Hierarchy</title>
<!-- Node0 -->
<g id="node1" class="node">
<title>Node0</title>
<g id="a_node1"><a xlink:href="classdiscord__core__api_1_1message__response__base.html" target="_top" xlink:title="Message response base, for responding to messages.">
<polygon fill="white" stroke="#666666" points="136,-54 0,-54 0,-24 136,-24 136,-54"/>
<text text-anchor="start" x="8" y="-42" font-family="Helvetica,sans-Serif" font-size="10.00">discord_core_api::message</text>
<text text-anchor="middle" x="68" y="-31" font-family="Helvetica,sans-Serif" font-size="10.00">_response_base</text>
</a>
</g>
</g>
<!-- Node1 -->
<g id="node2" class="node">
<title>Node1</title>
<g id="a_node2"><a xlink:href="classdiscord__core__api_1_1create__message__data.html" target="_top" xlink:title="For creating a message.">
<polygon fill="white" stroke="#666666" points="295,-78 172,-78 172,-48 295,-48 295,-78"/>
<text text-anchor="start" x="180" y="-66" font-family="Helvetica,sans-Serif" font-size="10.00">discord_core_api::create</text>
<text text-anchor="middle" x="233.5" y="-55" font-family="Helvetica,sans-Serif" font-size="10.00">_message_data</text>
</a>
</g>
</g>
<!-- Node0&#45;&gt;Node1 -->
<g id="edge1" class="edge">
<title>Node0&#45;&gt;Node1</title>
<path fill="none" stroke="#63b8ff" d="M146.39,-50.36C154.91,-51.61 163.48,-52.87 171.75,-54.08"/>
<polygon fill="#63b8ff" stroke="#63b8ff" points="146.85,-46.89 136.45,-48.9 145.83,-53.82 146.85,-46.89"/>
</g>
<!-- Node3 -->
<g id="node4" class="node">
<title>Node3</title>
<g id="a_node4"><a xlink:href="classdiscord__core__api_1_1edit__message__data.html" target="_top" xlink:title="For editing a message.">
<polygon fill="white" stroke="#666666" points="289.5,-30 177.5,-30 177.5,0 289.5,0 289.5,-30"/>
<text text-anchor="start" x="185.5" y="-18" font-family="Helvetica,sans-Serif" font-size="10.00">discord_core_api::edit</text>
<text text-anchor="middle" x="233.5" y="-7" font-family="Helvetica,sans-Serif" font-size="10.00">_message_data</text>
</a>
</g>
</g>
<!-- Node0&#45;&gt;Node3 -->
<g id="edge3" class="edge">
<title>Node0&#45;&gt;Node3</title>
<path fill="none" stroke="#63b8ff" d="M146.43,-27.63C156.89,-26.1 167.45,-24.55 177.41,-23.09"/>
<polygon fill="#63b8ff" stroke="#63b8ff" points="145.83,-24.18 136.45,-29.1 146.85,-31.11 145.83,-24.18"/>
</g>
<!-- Node2 -->
<g id="node3" class="node">
<title>Node2</title>
<g id="a_node3"><a xlink:href="classdiscord__core__api_1_1send__dmdata.html" target="_top" xlink:title="For sending a direct&#45;message.">
<polygon fill="white" stroke="#666666" points="448,-78 331,-78 331,-48 448,-48 448,-78"/>
<text text-anchor="start" x="339" y="-66" font-family="Helvetica,sans-Serif" font-size="10.00">discord_core_api::send</text>
<text text-anchor="middle" x="389.5" y="-55" font-family="Helvetica,sans-Serif" font-size="10.00">_dmdata</text>
</a>
</g>
</g>
<!-- Node1&#45;&gt;Node2 -->
<g id="edge2" class="edge">
<title>Node1&#45;&gt;Node2</title>
<path fill="none" stroke="#63b8ff" d="M305.53,-63C313.92,-63 322.41,-63 330.59,-63"/>
<polygon fill="#63b8ff" stroke="#63b8ff" points="305.36,-59.5 295.36,-63 305.36,-66.5 305.36,-59.5"/>
</g>
</g>
</svg>
