<?xml version="1.0" encoding="UTF-8" standalone="no"?>
<!DOCTYPE svg PUBLIC "-//W3C//DTD SVG 1.1//EN"
 "http://www.w3.org/Graphics/SVG/1.1/DTD/svg11.dtd">
<!-- Generated by graphviz version 5.0.0 (20220707.1540)
 -->
<!-- Title: Graphical Class Hierarchy Pages: 1 -->
<svg width="736pt" height="38pt"
 viewBox="0.00 0.00 736.00 38.00" xmlns="http://www.w3.org/2000/svg" xmlns:xlink="http://www.w3.org/1999/xlink">
<g id="graph0" class="graph" transform="scale(1 1) rotate(0) translate(4 34)">
<title>Graphical Class Hierarchy</title>
<!-- Node0 -->
<g id="node1" class="node">
<title>Node0</title>
<g id="a_node1"><a xlink:href="classdiscord__core__api_1_1application__command__data.html" target="_top" xlink:title="Data structure representing an application_command_data.">
<polygon fill="white" stroke="#666666" points="143,-30 0,-30 0,0 143,0 143,-30"/>
<text text-anchor="start" x="8" y="-18" font-family="Helvetica,sans-Serif" font-size="10.00">discord_core_api::application</text>
<text text-anchor="middle" x="71.5" y="-7" font-family="Helvetica,sans-Serif" font-size="10.00">_command_data</text>
</a>
</g>
</g>
<!-- Node1 -->
<g id="node2" class="node">
<title>Node1</title>
<g id="a_node2"><a xlink:href="structdiscord__core__api_1_1create__application__command__data.html" target="_top" xlink:title="For creating an application command.">
<polygon fill="white" stroke="#666666" points="319,-30 179,-30 179,0 319,0 319,-30"/>
<text text-anchor="start" x="187" y="-18" font-family="Helvetica,sans-Serif" font-size="10.00">discord_core_api::create</text>
<text text-anchor="middle" x="249" y="-7" font-family="Helvetica,sans-Serif" font-size="10.00">_application_command_data</text>
</a>
</g>
</g>
<!-- Node0&#45;&gt;Node1 -->
<g id="edge1" class="edge">
<title>Node0&#45;&gt;Node1</title>
<path fill="none" stroke="#63b8ff" d="M153.17,-15C161.78,-15 170.49,-15 178.95,-15"/>
<polygon fill="#63b8ff" stroke="#63b8ff" points="153.12,-11.5 143.12,-15 153.12,-18.5 153.12,-11.5"/>
</g>
<!-- Node2 -->
<g id="node3" class="node">
<title>Node2</title>
<g id="a_node3"><a xlink:href="structdiscord__core__api_1_1create__global__application__command__data.html" target="_top" xlink:title="For creating a single global application_command_data.">
<polygon fill="white" stroke="#666666" points="526,-30 355,-30 355,0 526,0 526,-30"/>
<text text-anchor="start" x="363" y="-18" font-family="Helvetica,sans-Serif" font-size="10.00">discord_core_api::create</text>
<text text-anchor="middle" x="440.5" y="-7" font-family="Helvetica,sans-Serif" font-size="10.00">_global_application_command_data</text>
</a>
</g>
</g>
<!-- Node1&#45;&gt;Node2 -->
<g id="edge2" class="edge">
<title>Node1&#45;&gt;Node2</title>
<path fill="none" stroke="#63b8ff" d="M329.42,-15C337.87,-15 346.49,-15 355,-15"/>
<polygon fill="#63b8ff" stroke="#63b8ff" points="329.22,-11.5 319.22,-15 329.22,-18.5 329.22,-11.5"/>
</g>
<!-- Node3 -->
<g id="node4" class="node">
<title>Node3</title>
<g id="a_node4"><a xlink:href="structdiscord__core__api_1_1create__guild__application__command__data.html" target="_top" xlink:title="For creating a single guild application_command_data.">
<polygon fill="white" stroke="#666666" points="728,-30 562,-30 562,0 728,0 728,-30"/>
<text text-anchor="start" x="570" y="-18" font-family="Helvetica,sans-Serif" font-size="10.00">discord_core_api::create</text>
<text text-anchor="middle" x="645" y="-7" font-family="Helvetica,sans-Serif" font-size="10.00">_guild_application_command_data</text>
</a>
</g>
</g>
<!-- Node2&#45;&gt;Node3 -->
<g id="edge3" class="edge">
<title>Node2&#45;&gt;Node3</title>
<path fill="none" stroke="#63b8ff" d="M536.23,-15C544.81,-15 553.45,-15 561.9,-15"/>
<polygon fill="#63b8ff" stroke="#63b8ff" points="536.2,-11.5 526.2,-15 536.2,-18.5 536.2,-11.5"/>
</g>
</g>
</svg>
