<?xml version="1.0" encoding="UTF-8" standalone="no"?>
<!DOCTYPE svg PUBLIC "-//W3C//DTD SVG 1.1//EN"
 "http://www.w3.org/Graphics/SVG/1.1/DTD/svg11.dtd">
<!-- Generated by graphviz version 2.43.0 (0)
 -->
<!-- Title: Graphical Class Hierarchy Pages: 1 -->
<svg width="394pt" height="167pt"
 viewBox="0.00 0.00 394.00 167.00" xmlns="http://www.w3.org/2000/svg" xmlns:xlink="http://www.w3.org/1999/xlink">
<g id="graph0" class="graph" transform="scale(1 1) rotate(0) translate(4 163)">
<title>Graphical Class Hierarchy</title>
<!-- Node0 -->
<g id="Node000000" class="node">
<title>Node0</title>
<g id="a_Node000000"><a xlink:href="classdiscord__core__api_1_1discord__core__internal_1_1ring__buffer__interface.html" target="_top" xlink:title=" ">
<polygon fill="white" stroke="#666666" points="206,-111 0,-111 0,-48 206,-48 206,-111"/>
<text text-anchor="start" x="8" y="-99" font-family="Helvetica,sans-Serif" font-size="10.00">discord_core_api::discord</text>
<text text-anchor="start" x="8" y="-88" font-family="Helvetica,sans-Serif" font-size="10.00">_core_internal::ring_buffer</text>
<text text-anchor="start" x="8" y="-77" font-family="Helvetica,sans-Serif" font-size="10.00">_interface&lt; ring_buffer_interface</text>
<text text-anchor="start" x="8" y="-66" font-family="Helvetica,sans-Serif" font-size="10.00">&lt; jsonifier_internal::unwrap_t</text>
<text text-anchor="middle" x="103" y="-55" font-family="Helvetica,sans-Serif" font-size="10.00">&lt; uint8_t &gt;, 1024 *16 &gt;, slice_count &gt;</text>
</a>
</g>
</g>
<!-- Node1 -->
<g id="Node000001" class="node">
<title>Node1</title>
<g id="a_Node000001"><a xlink:href="classdiscord__core__api_1_1discord__core__internal_1_1ring__buffer.html" target="_top" xlink:title=" ">
<polygon fill="white" stroke="#666666" points="386,-159 242,-159 242,-118 386,-118 386,-159"/>
<text text-anchor="start" x="250" y="-147" font-family="Helvetica,sans-Serif" font-size="10.00">discord_core_api::discord</text>
<text text-anchor="start" x="250" y="-136" font-family="Helvetica,sans-Serif" font-size="10.00">_core_internal::ring_buffer</text>
<text text-anchor="middle" x="314" y="-125" font-family="Helvetica,sans-Serif" font-size="10.00">&lt; uint8_t, 16 &gt;</text>
</a>
</g>
</g>
<!-- Node0&#45;&gt;Node1 -->
<g id="edge10_Node000000_Node000001" class="edge">
<title>Node0&#45;&gt;Node1</title>
<g id="a_edge10_Node000000_Node000001"><a xlink:title=" ">
<path fill="none" stroke="#63b8ff" d="M215.71,-111.04C224.6,-113.54 233.41,-116.03 241.9,-118.43"/>
<polygon fill="#63b8ff" stroke="#63b8ff" points="216.63,-107.66 206.05,-108.31 214.72,-114.39 216.63,-107.66"/>
</a>
</g>
</g>
<!-- Node2 -->
<g id="Node000002" class="node">
<title>Node2</title>
<g id="a_Node000002"><a xlink:href="classdiscord__core__api_1_1discord__core__internal_1_1ring__buffer.html" target="_top" xlink:title=" ">
<polygon fill="white" stroke="#666666" points="386,-100 242,-100 242,-59 386,-59 386,-100"/>
<text text-anchor="start" x="250" y="-88" font-family="Helvetica,sans-Serif" font-size="10.00">discord_core_api::discord</text>
<text text-anchor="start" x="250" y="-77" font-family="Helvetica,sans-Serif" font-size="10.00">_core_internal::ring_buffer</text>
<text text-anchor="middle" x="314" y="-66" font-family="Helvetica,sans-Serif" font-size="10.00">&lt; uint8_t, 64 &gt;</text>
</a>
</g>
</g>
<!-- Node0&#45;&gt;Node2 -->
<g id="edge11_Node000000_Node000002" class="edge">
<title>Node0&#45;&gt;Node2</title>
<g id="a_edge11_Node000000_Node000002"><a xlink:title=" ">
<path fill="none" stroke="#63b8ff" d="M216.28,-79.5C224.97,-79.5 233.59,-79.5 241.9,-79.5"/>
<polygon fill="#63b8ff" stroke="#63b8ff" points="216.05,-76 206.05,-79.5 216.05,-83 216.05,-76"/>
</a>
</g>
</g>
<!-- Node3 -->
<g id="Node000003" class="node">
<title>Node3</title>
<g id="a_Node000003"><a xlink:href="classdiscord__core__api_1_1discord__core__internal_1_1ring__buffer.html" target="_top" xlink:title=" ">
<polygon fill="white" stroke="#666666" points="386,-41 242,-41 242,0 386,0 386,-41"/>
<text text-anchor="start" x="250" y="-29" font-family="Helvetica,sans-Serif" font-size="10.00">discord_core_api::discord</text>
<text text-anchor="start" x="250" y="-18" font-family="Helvetica,sans-Serif" font-size="10.00">_core_internal::ring_buffer</text>
<text text-anchor="middle" x="314" y="-7" font-family="Helvetica,sans-Serif" font-size="10.00">&lt; uint8_t, 10 &gt;</text>
</a>
</g>
</g>
<!-- Node0&#45;&gt;Node3 -->
<g id="edge12_Node000000_Node000003" class="edge">
<title>Node0&#45;&gt;Node3</title>
<g id="a_edge12_Node000000_Node000003"><a xlink:title=" ">
<path fill="none" stroke="#63b8ff" d="M215.71,-47.96C224.6,-45.46 233.41,-42.97 241.9,-40.57"/>
<polygon fill="#63b8ff" stroke="#63b8ff" points="214.72,-44.61 206.05,-50.69 216.63,-51.34 214.72,-44.61"/>
</a>
</g>
</g>
</g>
</svg>
