<?xml version="1.0" encoding="UTF-8" standalone="no"?>
<!DOCTYPE svg PUBLIC "-//W3C//DTD SVG 1.1//EN"
 "http://www.w3.org/Graphics/SVG/1.1/DTD/svg11.dtd">
<!-- Generated by graphviz version 5.0.0 (20220707.1540)
 -->
<!-- Title: discord_core_api::create_guild_application_command_data Pages: 1 -->
<svg width="179pt" height="236pt"
 viewBox="0.00 0.00 179.00 236.00" xmlns="http://www.w3.org/2000/svg" xmlns:xlink="http://www.w3.org/1999/xlink">
<g id="graph0" class="graph" transform="scale(1 1) rotate(0) translate(4 232)">
<title>discord_core_api::create_guild_application_command_data</title>
<!-- Node1 -->
<g id="node1" class="node">
<title>Node1</title>
<g id="a_node1"><a xlink:title="For creating a single guild application_command_data.">
<polygon fill="#999999" stroke="#666666" points="168.5,-30 2.5,-30 2.5,0 168.5,0 168.5,-30"/>
<text text-anchor="start" x="10.5" y="-18" font-family="Helvetica,sans-Serif" font-size="10.00">discord_core_api::create</text>
<text text-anchor="middle" x="85.5" y="-7" font-family="Helvetica,sans-Serif" font-size="10.00">_guild_application_command_data</text>
</a>
</g>
</g>
<!-- Node2 -->
<g id="node2" class="node">
<title>Node2</title>
<g id="a_node2"><a xlink:href="structdiscord__core__api_1_1create__global__application__command__data.html" target="_top" xlink:title="For creating a single global application_command_data.">
<polygon fill="white" stroke="#666666" points="171,-96 0,-96 0,-66 171,-66 171,-96"/>
<text text-anchor="start" x="8" y="-84" font-family="Helvetica,sans-Serif" font-size="10.00">discord_core_api::create</text>
<text text-anchor="middle" x="85.5" y="-73" font-family="Helvetica,sans-Serif" font-size="10.00">_global_application_command_data</text>
</a>
</g>
</g>
<!-- Node2&#45;&gt;Node1 -->
<g id="edge1" class="edge">
<title>Node2&#45;&gt;Node1</title>
<path fill="none" stroke="#63b8ff" d="M85.5,-55.54C85.5,-46.96 85.5,-37.61 85.5,-30.16"/>
<polygon fill="#63b8ff" stroke="#63b8ff" points="82,-55.8 85.5,-65.8 89,-55.8 82,-55.8"/>
</g>
<!-- Node3 -->
<g id="node3" class="node">
<title>Node3</title>
<g id="a_node3"><a xlink:href="structdiscord__core__api_1_1create__application__command__data.html" target="_top" xlink:title="For creating an application command.">
<polygon fill="white" stroke="#666666" points="155.5,-162 15.5,-162 15.5,-132 155.5,-132 155.5,-162"/>
<text text-anchor="start" x="23.5" y="-150" font-family="Helvetica,sans-Serif" font-size="10.00">discord_core_api::create</text>
<text text-anchor="middle" x="85.5" y="-139" font-family="Helvetica,sans-Serif" font-size="10.00">_application_command_data</text>
</a>
</g>
</g>
<!-- Node3&#45;&gt;Node2 -->
<g id="edge2" class="edge">
<title>Node3&#45;&gt;Node2</title>
<path fill="none" stroke="#63b8ff" d="M85.5,-121.54C85.5,-112.96 85.5,-103.61 85.5,-96.16"/>
<polygon fill="#63b8ff" stroke="#63b8ff" points="82,-121.8 85.5,-131.8 89,-121.8 82,-121.8"/>
</g>
<!-- Node4 -->
<g id="node4" class="node">
<title>Node4</title>
<g id="a_node4"><a xlink:href="classdiscord__core__api_1_1application__command__data.html" target="_top" xlink:title="Data structure representing an application_command_data.">
<polygon fill="white" stroke="#666666" points="157,-228 14,-228 14,-198 157,-198 157,-228"/>
<text text-anchor="start" x="22" y="-216" font-family="Helvetica,sans-Serif" font-size="10.00">discord_core_api::application</text>
<text text-anchor="middle" x="85.5" y="-205" font-family="Helvetica,sans-Serif" font-size="10.00">_command_data</text>
</a>
</g>
</g>
<!-- Node4&#45;&gt;Node3 -->
<g id="edge3" class="edge">
<title>Node4&#45;&gt;Node3</title>
<path fill="none" stroke="#63b8ff" d="M85.5,-187.54C85.5,-178.96 85.5,-169.61 85.5,-162.16"/>
<polygon fill="#63b8ff" stroke="#63b8ff" points="82,-187.8 85.5,-197.8 89,-187.8 82,-187.8"/>
</g>
</g>
</svg>
