<?xml version="1.0" encoding="UTF-8" standalone="no"?>
<!DOCTYPE svg PUBLIC "-//W3C//DTD SVG 1.1//EN"
 "http://www.w3.org/Graphics/SVG/1.1/DTD/svg11.dtd">
<!-- Generated by graphviz version 3.0.0 (20220226.1711)
 -->
<!-- Title: DiscordCoreAPI::Roles::getGuildRolesAsync Pages: 1 -->
<svg width="458pt" height="88pt"
 viewBox="0.00 0.00 458.00 88.00" xmlns="http://www.w3.org/2000/svg" xmlns:xlink="http://www.w3.org/1999/xlink">
<g id="graph0" class="graph" transform="scale(1 1) rotate(0) translate(4 84)">
<title>DiscordCoreAPI::Roles::getGuildRolesAsync</title>
<!-- Node1 -->
<g id="node1" class="node">
<title>Node1</title>
<g id="a_node1"><a xlink:title="Collects the Roles that a Guild has.">
<polygon fill="#bfbfbf" stroke="black" points="334,-24.5 334,-54.5 450,-54.5 450,-24.5 334,-24.5"/>
<text text-anchor="start" x="342" y="-42.5" font-family="Helvetica,sans-Serif" font-size="10.00">DiscordCoreAPI::Roles</text>
<text text-anchor="middle" x="392" y="-31.5" font-family="Helvetica,sans-Serif" font-size="10.00">::getGuildRolesAsync</text>
</a>
</g>
</g>
<!-- Node2 -->
<g id="node2" class="node">
<title>Node2</title>
<g id="a_node2"><a xlink:href="../../dc/d7f/a03367.html#a20b1e7f73eb0ddb76d0db68fbd1a689d" target="_top" xlink:title="Collects the Roles that a GuildMember has.">
<polygon fill="none" stroke="black" points="152,-49.5 152,-79.5 298,-79.5 298,-49.5 152,-49.5"/>
<text text-anchor="start" x="160" y="-67.5" font-family="Helvetica,sans-Serif" font-size="10.00">DiscordCoreAPI::Roles</text>
<text text-anchor="middle" x="225" y="-56.5" font-family="Helvetica,sans-Serif" font-size="10.00">::getGuildMemberRolesAsync</text>
</a>
</g>
</g>
<!-- Node1&#45;&gt;Node2 -->
<g id="edge1" class="edge">
<title>Node1&#45;&gt;Node2</title>
<path fill="none" stroke="midnightblue" d="M323.67,-49.7C315.3,-50.97 306.71,-52.27 298.26,-53.55"/>
<polygon fill="midnightblue" stroke="midnightblue" points="324.39,-53.13 333.75,-48.17 323.34,-46.21 324.39,-53.13"/>
</g>
<!-- Node3 -->
<g id="node3" class="node">
<title>Node3</title>
<g id="a_node3"><a xlink:href="../../dc/d7f/a03367.html#a288de1b0e26b722f78a4b68abc1c86aa" target="_top" xlink:title="Collects a Role from the Discord servers.">
<polygon fill="none" stroke="black" points="167,-0.5 167,-30.5 283,-30.5 283,-0.5 167,-0.5"/>
<text text-anchor="start" x="175" y="-18.5" font-family="Helvetica,sans-Serif" font-size="10.00">DiscordCoreAPI::Roles</text>
<text text-anchor="middle" x="225" y="-7.5" font-family="Helvetica,sans-Serif" font-size="10.00">::getRoleAsync</text>
</a>
</g>
</g>
<!-- Node1&#45;&gt;Node3 -->
<g id="edge2" class="edge">
<title>Node1&#45;&gt;Node3</title>
<path fill="none" stroke="midnightblue" d="M323.61,-29.7C310.18,-27.74 296.19,-25.71 283.14,-23.81"/>
<polygon fill="midnightblue" stroke="midnightblue" points="323.35,-33.2 333.75,-31.17 324.36,-26.27 323.35,-33.2"/>
</g>
<!-- Node4 -->
<g id="node4" class="node">
<title>Node4</title>
<g id="a_node4"><a xlink:href="../../dc/d7f/a03367.html#a7cdfc6e07d7950d25399ea9e88852d1b" target="_top" xlink:title="Collects a given Role from the library&#39;s cache.">
<polygon fill="none" stroke="black" points="0,-0.5 0,-30.5 116,-30.5 116,-0.5 0,-0.5"/>
<text text-anchor="start" x="8" y="-18.5" font-family="Helvetica,sans-Serif" font-size="10.00">DiscordCoreAPI::Roles</text>
<text text-anchor="middle" x="58" y="-7.5" font-family="Helvetica,sans-Serif" font-size="10.00">::getCachedRoleAsync</text>
</a>
</g>
</g>
<!-- Node3&#45;&gt;Node4 -->
<g id="edge3" class="edge">
<title>Node3&#45;&gt;Node4</title>
<path fill="none" stroke="midnightblue" d="M156.61,-15.5C143.18,-15.5 129.19,-15.5 116.14,-15.5"/>
<polygon fill="midnightblue" stroke="midnightblue" points="156.75,-19 166.75,-15.5 156.75,-12 156.75,-19"/>
</g>
</g>
</svg>
