<?xml version="1.0" encoding="UTF-8" standalone="no"?>
<!DOCTYPE svg PUBLIC "-//W3C//DTD SVG 1.1//EN"
 "http://www.w3.org/Graphics/SVG/1.1/DTD/svg11.dtd">
<!-- Generated by graphviz version 3.0.0 (20220226.1711)
 -->
<!-- Title: InteractionEntities.hpp Pages: 1 -->
<svg width="2227pt" height="487pt"
 viewBox="0.00 0.00 2226.67 487.00" xmlns="http://www.w3.org/2000/svg" xmlns:xlink="http://www.w3.org/1999/xlink">
<g id="graph0" class="graph" transform="scale(1 1) rotate(0) translate(4 483)">
<title>InteractionEntities.hpp</title>
<!-- Node1 -->
<g id="node1" class="node">
<title>Node1</title>
<g id="a_node1"><a xlink:title=" ">
<polygon fill="#bfbfbf" stroke="black" points="1182,-459.5 1182,-478.5 1295,-478.5 1295,-459.5 1182,-459.5"/>
<text text-anchor="middle" x="1238.5" y="-466.5" font-family="Helvetica,sans-Serif" font-size="10.00">InteractionEntities.hpp</text>
</a>
</g>
</g>
<!-- Node2 -->
<g id="node2" class="node">
<title>Node2</title>
<g id="a_node2"><a xlink:href="../../d4/deb/a00710.html" target="_top" xlink:title=" ">
<polygon fill="none" stroke="black" points="976,-112.5 976,-142.5 1107,-142.5 1107,-112.5 976,-112.5"/>
<text text-anchor="start" x="984" y="-130.5" font-family="Helvetica,sans-Serif" font-size="10.00">discordcoreapi/Foundation</text>
<text text-anchor="middle" x="1041.5" y="-119.5" font-family="Helvetica,sans-Serif" font-size="10.00">Entities.hpp</text>
</a>
</g>
</g>
<!-- Node1&#45;&gt;Node2 -->
<g id="edge1" class="edge">
<title>Node1&#45;&gt;Node2</title>
<path fill="none" stroke="midnightblue" d="M1193.11,-459.45C1115.48,-443.53 965.5,-406.48 965.5,-358 965.5,-358 965.5,-358 965.5,-244 965.5,-205.99 994.57,-170.82 1016.75,-149.51"/>
<polygon fill="midnightblue" stroke="midnightblue" points="1019.29,-151.93 1024.25,-142.57 1014.54,-146.79 1019.29,-151.93"/>
</g>
<!-- Node28 -->
<g id="node28" class="node">
<title>Node28</title>
<g id="a_node28"><a xlink:href="../../d6/dc0/a00734.html" target="_top" xlink:title=" ">
<polygon fill="none" stroke="black" points="1210.5,-347.5 1210.5,-366.5 1384.5,-366.5 1384.5,-347.5 1210.5,-347.5"/>
<text text-anchor="middle" x="1297.5" y="-354.5" font-family="Helvetica,sans-Serif" font-size="10.00">discordcoreapi/MessageEntities.hpp</text>
</a>
</g>
</g>
<!-- Node1&#45;&gt;Node28 -->
<g id="edge27" class="edge">
<title>Node1&#45;&gt;Node28</title>
<path fill="none" stroke="midnightblue" d="M1239.82,-459.11C1242.02,-446.13 1247.25,-421.52 1257.5,-403 1263.42,-392.3 1272.29,-381.98 1280.17,-373.93"/>
<polygon fill="midnightblue" stroke="midnightblue" points="1282.86,-376.19 1287.57,-366.7 1277.97,-371.18 1282.86,-376.19"/>
</g>
<!-- Node44 -->
<g id="node44" class="node">
<title>Node44</title>
<g id="a_node44"><a xlink:href="../../d8/dba/a00773.html" target="_top" xlink:title=" ">
<polygon fill="none" stroke="black" points="1267,-403.5 1267,-422.5 1444,-422.5 1444,-403.5 1267,-403.5"/>
<text text-anchor="middle" x="1355.5" y="-410.5" font-family="Helvetica,sans-Serif" font-size="10.00">discordcoreapi/WebHookEntities.hpp</text>
</a>
</g>
</g>
<!-- Node1&#45;&gt;Node44 -->
<g id="edge46" class="edge">
<title>Node1&#45;&gt;Node44</title>
<path fill="none" stroke="midnightblue" d="M1257.04,-459.44C1276.12,-450.64 1306.07,-436.81 1327.94,-426.72"/>
<polygon fill="midnightblue" stroke="midnightblue" points="1329.43,-429.88 1337.05,-422.52 1326.5,-423.53 1329.43,-429.88"/>
</g>
<!-- Node3 -->
<g id="node3" class="node">
<title>Node3</title>
<g id="a_node3"><a xlink:href="../../d5/dae/a00767.html" target="_top" xlink:title=" ">
<polygon fill="none" stroke="black" points="974.5,-56.5 974.5,-75.5 1108.5,-75.5 1108.5,-56.5 974.5,-56.5"/>
<text text-anchor="middle" x="1041.5" y="-63.5" font-family="Helvetica,sans-Serif" font-size="10.00">discordcoreapi/Utilities.hpp</text>
</a>
</g>
</g>
<!-- Node2&#45;&gt;Node3 -->
<g id="edge2" class="edge">
<title>Node2&#45;&gt;Node3</title>
<path fill="none" stroke="midnightblue" d="M1041.5,-112.4C1041.5,-104.47 1041.5,-94.46 1041.5,-85.86"/>
<polygon fill="midnightblue" stroke="midnightblue" points="1045,-85.66 1041.5,-75.66 1038,-85.66 1045,-85.66"/>
</g>
<!-- Node4 -->
<g id="node4" class="node">
<title>Node4</title>
<g id="a_node4"><a xlink:title=" ">
<polygon fill="none" stroke="#bfbfbf" points="0,-0.5 0,-19.5 57,-19.5 57,-0.5 0,-0.5"/>
<text text-anchor="middle" x="28.5" y="-7.5" font-family="Helvetica,sans-Serif" font-size="10.00">pthread.h</text>
</a>
</g>
</g>
<!-- Node3&#45;&gt;Node4 -->
<g id="edge3" class="edge">
<title>Node3&#45;&gt;Node4</title>
<path fill="none" stroke="midnightblue" d="M974.42,-63.53C787.32,-59.19 261.32,-45.17 67.13,-19.73"/>
<polygon fill="midnightblue" stroke="midnightblue" points="67.41,-16.24 57.03,-18.36 66.46,-23.18 67.41,-16.24"/>
</g>
<!-- Node5 -->
<g id="node5" class="node">
<title>Node5</title>
<g id="a_node5"><a xlink:title=" ">
<polygon fill="none" stroke="#bfbfbf" points="75.5,-0.5 75.5,-19.5 137.5,-19.5 137.5,-0.5 75.5,-0.5"/>
<text text-anchor="middle" x="106.5" y="-7.5" font-family="Helvetica,sans-Serif" font-size="10.00">sys/time.h</text>
</a>
</g>
</g>
<!-- Node3&#45;&gt;Node5 -->
<g id="edge4" class="edge">
<title>Node3&#45;&gt;Node5</title>
<path fill="none" stroke="midnightblue" d="M974.33,-65.53C826.45,-65.86 461.59,-62.04 148.05,-19.97"/>
<polygon fill="midnightblue" stroke="midnightblue" points="148.23,-16.46 137.85,-18.59 147.29,-23.4 148.23,-16.46"/>
</g>
<!-- Node6 -->
<g id="node6" class="node">
<title>Node6</title>
<g id="a_node6"><a xlink:title=" ">
<polygon fill="none" stroke="#bfbfbf" points="155.5,-0.5 155.5,-19.5 199.5,-19.5 199.5,-0.5 155.5,-0.5"/>
<text text-anchor="middle" x="177.5" y="-7.5" font-family="Helvetica,sans-Serif" font-size="10.00">time.h</text>
</a>
</g>
</g>
<!-- Node3&#45;&gt;Node6 -->
<g id="edge5" class="edge">
<title>Node3&#45;&gt;Node6</title>
<path fill="none" stroke="midnightblue" d="M974.48,-63.36C807.2,-58.94 373.57,-45.5 209.65,-19.74"/>
<polygon fill="midnightblue" stroke="midnightblue" points="210.14,-16.28 199.71,-18.11 209.01,-23.18 210.14,-16.28"/>
</g>
<!-- Node7 -->
<g id="node7" class="node">
<title>Node7</title>
<g id="a_node7"><a xlink:title=" ">
<polygon fill="none" stroke="#bfbfbf" points="218,-0.5 218,-19.5 259,-19.5 259,-0.5 218,-0.5"/>
<text text-anchor="middle" x="238.5" y="-7.5" font-family="Helvetica,sans-Serif" font-size="10.00">ctime</text>
</a>
</g>
</g>
<!-- Node3&#45;&gt;Node7 -->
<g id="edge6" class="edge">
<title>Node3&#45;&gt;Node7</title>
<path fill="none" stroke="midnightblue" d="M974.5,-63.19C816.01,-58.59 420.63,-45.09 269.3,-19.86"/>
<polygon fill="midnightblue" stroke="midnightblue" points="269.71,-16.38 259.26,-18.1 268.5,-23.28 269.71,-16.38"/>
</g>
<!-- Node8 -->
<g id="node8" class="node">
<title>Node8</title>
<g id="a_node8"><a xlink:title=" ">
<polygon fill="none" stroke="#bfbfbf" points="277,-0.5 277,-19.5 370,-19.5 370,-0.5 277,-0.5"/>
<text text-anchor="middle" x="323.5" y="-7.5" font-family="Helvetica,sans-Serif" font-size="10.00">condition_variable</text>
</a>
</g>
</g>
<!-- Node3&#45;&gt;Node8 -->
<g id="edge7" class="edge">
<title>Node3&#45;&gt;Node8</title>
<path fill="none" stroke="midnightblue" d="M974.13,-62.46C856,-57.55 603.64,-45.09 380.15,-19.96"/>
<polygon fill="midnightblue" stroke="midnightblue" points="380.54,-16.48 370.21,-18.83 379.75,-23.44 380.54,-16.48"/>
</g>
<!-- Node9 -->
<g id="node9" class="node">
<title>Node9</title>
<g id="a_node9"><a xlink:title=" ">
<polygon fill="none" stroke="#bfbfbf" points="388.5,-0.5 388.5,-19.5 486.5,-19.5 486.5,-0.5 388.5,-0.5"/>
<text text-anchor="middle" x="437.5" y="-7.5" font-family="Helvetica,sans-Serif" font-size="10.00">nlohmann/json.hpp</text>
</a>
</g>
</g>
<!-- Node3&#45;&gt;Node9 -->
<g id="edge8" class="edge">
<title>Node3&#45;&gt;Node9</title>
<path fill="none" stroke="midnightblue" d="M974.1,-61.01C872.76,-54.65 674.92,-40.92 496.61,-20.05"/>
<polygon fill="midnightblue" stroke="midnightblue" points="496.86,-16.55 486.51,-18.86 496.03,-23.51 496.86,-16.55"/>
</g>
<!-- Node10 -->
<g id="node10" class="node">
<title>Node10</title>
<g id="a_node10"><a xlink:title=" ">
<polygon fill="none" stroke="#bfbfbf" points="505,-0.5 505,-19.5 590,-19.5 590,-0.5 505,-0.5"/>
<text text-anchor="middle" x="547.5" y="-7.5" font-family="Helvetica,sans-Serif" font-size="10.00">source_location</text>
</a>
</g>
</g>
<!-- Node3&#45;&gt;Node10 -->
<g id="edge9" class="edge">
<title>Node3&#45;&gt;Node10</title>
<path fill="none" stroke="midnightblue" d="M974.15,-59.71C889.2,-52.69 738.43,-39.07 599.99,-20.12"/>
<polygon fill="midnightblue" stroke="midnightblue" points="600.42,-16.65 590.04,-18.75 599.47,-23.58 600.42,-16.65"/>
</g>
<!-- Node11 -->
<g id="node11" class="node">
<title>Node11</title>
<g id="a_node11"><a xlink:title=" ">
<polygon fill="none" stroke="#bfbfbf" points="608,-0.5 608,-19.5 691,-19.5 691,-0.5 608,-0.5"/>
<text text-anchor="middle" x="649.5" y="-7.5" font-family="Helvetica,sans-Serif" font-size="10.00">unordered_map</text>
</a>
</g>
</g>
<!-- Node3&#45;&gt;Node11 -->
<g id="edge10" class="edge">
<title>Node3&#45;&gt;Node11</title>
<path fill="none" stroke="midnightblue" d="M974.41,-57.02C907.77,-48.9 802.43,-35.52 701.31,-20.07"/>
<polygon fill="midnightblue" stroke="midnightblue" points="701.64,-16.58 691.22,-18.52 700.58,-23.49 701.64,-16.58"/>
</g>
<!-- Node12 -->
<g id="node12" class="node">
<title>Node12</title>
<g id="a_node12"><a xlink:title=" ">
<polygon fill="none" stroke="#bfbfbf" points="709.5,-0.5 709.5,-19.5 787.5,-19.5 787.5,-0.5 709.5,-0.5"/>
<text text-anchor="middle" x="748.5" y="-7.5" font-family="Helvetica,sans-Serif" font-size="10.00">shared_mutex</text>
</a>
</g>
</g>
<!-- Node3&#45;&gt;Node12 -->
<g id="edge11" class="edge">
<title>Node3&#45;&gt;Node12</title>
<path fill="none" stroke="midnightblue" d="M994.52,-56.42C947.32,-47.8 872.19,-34.03 797.57,-20.19"/>
<polygon fill="midnightblue" stroke="midnightblue" points="798,-16.71 787.53,-18.33 796.72,-23.6 798,-16.71"/>
</g>
<!-- Node13 -->
<g id="node13" class="node">
<title>Node13</title>
<g id="a_node13"><a xlink:title=" ">
<polygon fill="none" stroke="#bfbfbf" points="805.5,-0.5 805.5,-19.5 875.5,-19.5 875.5,-0.5 805.5,-0.5"/>
<text text-anchor="middle" x="840.5" y="-7.5" font-family="Helvetica,sans-Serif" font-size="10.00">opus/opus.h</text>
</a>
</g>
</g>
<!-- Node3&#45;&gt;Node13 -->
<g id="edge12" class="edge">
<title>Node3&#45;&gt;Node13</title>
<path fill="none" stroke="midnightblue" d="M1009.65,-56.44C975.1,-47.16 919.82,-32.31 881.92,-22.13"/>
<polygon fill="midnightblue" stroke="midnightblue" points="882.77,-18.73 872.2,-19.52 880.95,-25.49 882.77,-18.73"/>
</g>
<!-- Node14 -->
<g id="node14" class="node">
<title>Node14</title>
<g id="a_node14"><a xlink:title=" ">
<polygon fill="none" stroke="#bfbfbf" points="893.5,-0.5 893.5,-19.5 951.5,-19.5 951.5,-0.5 893.5,-0.5"/>
<text text-anchor="middle" x="922.5" y="-7.5" font-family="Helvetica,sans-Serif" font-size="10.00">functional</text>
</a>
</g>
</g>
<!-- Node3&#45;&gt;Node14 -->
<g id="edge13" class="edge">
<title>Node3&#45;&gt;Node14</title>
<path fill="none" stroke="midnightblue" d="M1022.64,-56.44C1003.23,-47.64 972.77,-33.81 950.54,-23.72"/>
<polygon fill="midnightblue" stroke="midnightblue" points="951.82,-20.46 941.27,-19.52 948.93,-26.84 951.82,-20.46"/>
</g>
<!-- Node15 -->
<g id="node15" class="node">
<title>Node15</title>
<g id="a_node15"><a xlink:title=" ">
<polygon fill="none" stroke="#bfbfbf" points="970,-0.5 970,-19.5 1035,-19.5 1035,-0.5 970,-0.5"/>
<text text-anchor="middle" x="1002.5" y="-7.5" font-family="Helvetica,sans-Serif" font-size="10.00">semaphore</text>
</a>
</g>
</g>
<!-- Node3&#45;&gt;Node15 -->
<g id="edge14" class="edge">
<title>Node3&#45;&gt;Node15</title>
<path fill="none" stroke="midnightblue" d="M1035.06,-56.08C1029.55,-48.46 1021.47,-37.26 1014.74,-27.94"/>
<polygon fill="midnightblue" stroke="midnightblue" points="1017.51,-25.81 1008.82,-19.75 1011.84,-29.91 1017.51,-25.81"/>
</g>
<!-- Node16 -->
<g id="node16" class="node">
<title>Node16</title>
<g id="a_node16"><a xlink:title=" ">
<polygon fill="none" stroke="#bfbfbf" points="1053.5,-0.5 1053.5,-19.5 1109.5,-19.5 1109.5,-0.5 1053.5,-0.5"/>
<text text-anchor="middle" x="1081.5" y="-7.5" font-family="Helvetica,sans-Serif" font-size="10.00">concepts</text>
</a>
</g>
</g>
<!-- Node3&#45;&gt;Node16 -->
<g id="edge15" class="edge">
<title>Node3&#45;&gt;Node16</title>
<path fill="none" stroke="midnightblue" d="M1048.11,-56.08C1053.76,-48.46 1062.04,-37.26 1068.95,-27.94"/>
<polygon fill="midnightblue" stroke="midnightblue" points="1071.88,-29.87 1075.02,-19.75 1066.25,-25.7 1071.88,-29.87"/>
</g>
<!-- Node17 -->
<g id="node17" class="node">
<title>Node17</title>
<g id="a_node17"><a xlink:title=" ">
<polygon fill="none" stroke="#bfbfbf" points="1127.5,-0.5 1127.5,-19.5 1181.5,-19.5 1181.5,-0.5 1127.5,-0.5"/>
<text text-anchor="middle" x="1154.5" y="-7.5" font-family="Helvetica,sans-Serif" font-size="10.00">iostream</text>
</a>
</g>
</g>
<!-- Node3&#45;&gt;Node17 -->
<g id="edge16" class="edge">
<title>Node3&#45;&gt;Node17</title>
<path fill="none" stroke="midnightblue" d="M1059.41,-56.44C1077.75,-47.68 1106.51,-33.94 1127.59,-23.86"/>
<polygon fill="midnightblue" stroke="midnightblue" points="1129.17,-26.99 1136.68,-19.52 1126.15,-20.67 1129.17,-26.99"/>
</g>
<!-- Node18 -->
<g id="node18" class="node">
<title>Node18</title>
<g id="a_node18"><a xlink:title=" ">
<polygon fill="none" stroke="#bfbfbf" points="1200,-0.5 1200,-19.5 1249,-19.5 1249,-0.5 1200,-0.5"/>
<text text-anchor="middle" x="1224.5" y="-7.5" font-family="Helvetica,sans-Serif" font-size="10.00">fstream</text>
</a>
</g>
</g>
<!-- Node3&#45;&gt;Node18 -->
<g id="edge17" class="edge">
<title>Node3&#45;&gt;Node18</title>
<path fill="none" stroke="midnightblue" d="M1070.5,-56.44C1102.97,-46.86 1155.56,-31.34 1190.09,-21.15"/>
<polygon fill="midnightblue" stroke="midnightblue" points="1191.15,-24.49 1199.75,-18.3 1189.17,-17.78 1191.15,-24.49"/>
</g>
<!-- Node19 -->
<g id="node19" class="node">
<title>Node19</title>
<g id="a_node19"><a xlink:title=" ">
<polygon fill="none" stroke="#bfbfbf" points="1267,-0.5 1267,-19.5 1308,-19.5 1308,-0.5 1267,-0.5"/>
<text text-anchor="middle" x="1287.5" y="-7.5" font-family="Helvetica,sans-Serif" font-size="10.00">bitset</text>
</a>
</g>
</g>
<!-- Node3&#45;&gt;Node19 -->
<g id="edge18" class="edge">
<title>Node3&#45;&gt;Node19</title>
<path fill="none" stroke="midnightblue" d="M1088.11,-56.49C1129.89,-48.59 1193.04,-36 1257.05,-19.93"/>
<polygon fill="midnightblue" stroke="midnightblue" points="1258.08,-23.28 1266.91,-17.43 1256.35,-16.5 1258.08,-23.28"/>
</g>
<!-- Node20 -->
<g id="node20" class="node">
<title>Node20</title>
<g id="a_node20"><a xlink:title=" ">
<polygon fill="none" stroke="#bfbfbf" points="1326.5,-0.5 1326.5,-19.5 1378.5,-19.5 1378.5,-0.5 1326.5,-0.5"/>
<text text-anchor="middle" x="1352.5" y="-7.5" font-family="Helvetica,sans-Serif" font-size="10.00">memory</text>
</a>
</g>
</g>
<!-- Node3&#45;&gt;Node20 -->
<g id="edge19" class="edge">
<title>Node3&#45;&gt;Node20</title>
<path fill="none" stroke="midnightblue" d="M1103.73,-56.49C1157.56,-48.75 1237.66,-36.36 1316.13,-20.14"/>
<polygon fill="midnightblue" stroke="midnightblue" points="1317.11,-23.51 1326.19,-18.04 1315.68,-16.66 1317.11,-23.51"/>
</g>
<!-- Node21 -->
<g id="node21" class="node">
<title>Node21</title>
<g id="a_node21"><a xlink:title=" ">
<polygon fill="none" stroke="#bfbfbf" points="1397,-0.5 1397,-19.5 1446,-19.5 1446,-0.5 1397,-0.5"/>
<text text-anchor="middle" x="1421.5" y="-7.5" font-family="Helvetica,sans-Serif" font-size="10.00">random</text>
</a>
</g>
</g>
<!-- Node3&#45;&gt;Node21 -->
<g id="edge20" class="edge">
<title>Node3&#45;&gt;Node21</title>
<path fill="none" stroke="midnightblue" d="M1108.57,-58.88C1176.39,-52.1 1284.35,-39.7 1386.81,-19.9"/>
<polygon fill="midnightblue" stroke="midnightblue" points="1387.56,-23.32 1396.7,-17.96 1386.22,-16.45 1387.56,-23.32"/>
</g>
<!-- Node22 -->
<g id="node22" class="node">
<title>Node22</title>
<g id="a_node22"><a xlink:title=" ">
<polygon fill="none" stroke="#bfbfbf" points="1464,-0.5 1464,-19.5 1505,-19.5 1505,-0.5 1464,-0.5"/>
<text text-anchor="middle" x="1484.5" y="-7.5" font-family="Helvetica,sans-Serif" font-size="10.00">string</text>
</a>
</g>
</g>
<!-- Node3&#45;&gt;Node22 -->
<g id="edge21" class="edge">
<title>Node3&#45;&gt;Node22</title>
<path fill="none" stroke="midnightblue" d="M1108.8,-61.68C1189.14,-56.82 1327.55,-45.63 1453.87,-20.01"/>
<polygon fill="midnightblue" stroke="midnightblue" points="1454.63,-23.42 1463.72,-17.98 1453.22,-16.57 1454.63,-23.42"/>
</g>
<!-- Node23 -->
<g id="node23" class="node">
<title>Node23</title>
<g id="a_node23"><a xlink:title=" ">
<polygon fill="none" stroke="#bfbfbf" points="1523.5,-0.5 1523.5,-19.5 1565.5,-19.5 1565.5,-0.5 1523.5,-0.5"/>
<text text-anchor="middle" x="1544.5" y="-7.5" font-family="Helvetica,sans-Serif" font-size="10.00">vector</text>
</a>
</g>
</g>
<!-- Node3&#45;&gt;Node23 -->
<g id="edge22" class="edge">
<title>Node3&#45;&gt;Node23</title>
<path fill="none" stroke="midnightblue" d="M1108.68,-62.76C1198.84,-58.84 1363.99,-48.43 1513.07,-19.91"/>
<polygon fill="midnightblue" stroke="midnightblue" points="1514.18,-23.26 1523.32,-17.91 1512.84,-16.39 1514.18,-23.26"/>
</g>
<!-- Node24 -->
<g id="node24" class="node">
<title>Node24</title>
<g id="a_node24"><a xlink:title=" ">
<polygon fill="none" stroke="#bfbfbf" points="1583.5,-0.5 1583.5,-19.5 1627.5,-19.5 1627.5,-0.5 1583.5,-0.5"/>
<text text-anchor="middle" x="1605.5" y="-7.5" font-family="Helvetica,sans-Serif" font-size="10.00">thread</text>
</a>
</g>
</g>
<!-- Node3&#45;&gt;Node24 -->
<g id="edge23" class="edge">
<title>Node3&#45;&gt;Node24</title>
<path fill="none" stroke="midnightblue" d="M1108.54,-63.59C1208.19,-60.57 1401.25,-51.11 1573.28,-19.87"/>
<polygon fill="midnightblue" stroke="midnightblue" points="1574.08,-23.28 1583.28,-18.02 1572.81,-16.4 1574.08,-23.28"/>
</g>
<!-- Node25 -->
<g id="node25" class="node">
<title>Node25</title>
<g id="a_node25"><a xlink:title=" ">
<polygon fill="none" stroke="#bfbfbf" points="1645.5,-0.5 1645.5,-19.5 1689.5,-19.5 1689.5,-0.5 1645.5,-0.5"/>
<text text-anchor="middle" x="1667.5" y="-7.5" font-family="Helvetica,sans-Serif" font-size="10.00">mutex</text>
</a>
</g>
</g>
<!-- Node3&#45;&gt;Node25 -->
<g id="edge24" class="edge">
<title>Node3&#45;&gt;Node25</title>
<path fill="none" stroke="midnightblue" d="M1108.55,-64.43C1217.49,-62.53 1439.62,-54.54 1635.39,-19.83"/>
<polygon fill="midnightblue" stroke="midnightblue" points="1636.06,-23.26 1645.28,-18.05 1634.82,-16.38 1636.06,-23.26"/>
</g>
<!-- Node26 -->
<g id="node26" class="node">
<title>Node26</title>
<g id="a_node26"><a xlink:title=" ">
<polygon fill="none" stroke="#bfbfbf" points="1708,-0.5 1708,-19.5 1751,-19.5 1751,-0.5 1708,-0.5"/>
<text text-anchor="middle" x="1729.5" y="-7.5" font-family="Helvetica,sans-Serif" font-size="10.00">queue</text>
</a>
</g>
</g>
<!-- Node3&#45;&gt;Node26 -->
<g id="edge25" class="edge">
<title>Node3&#45;&gt;Node26</title>
<path fill="none" stroke="midnightblue" d="M1108.76,-65.12C1226.54,-64.3 1477.7,-57.97 1697.83,-19.68"/>
<polygon fill="midnightblue" stroke="midnightblue" points="1698.72,-23.08 1707.96,-17.89 1697.5,-16.19 1698.72,-23.08"/>
</g>
<!-- Node27 -->
<g id="node27" class="node">
<title>Node27</title>
<g id="a_node27"><a xlink:title=" ">
<polygon fill="none" stroke="#bfbfbf" points="1769,-0.5 1769,-19.5 1804,-19.5 1804,-0.5 1769,-0.5"/>
<text text-anchor="middle" x="1786.5" y="-7.5" font-family="Helvetica,sans-Serif" font-size="10.00">map</text>
</a>
</g>
</g>
<!-- Node3&#45;&gt;Node27 -->
<g id="edge26" class="edge">
<title>Node3&#45;&gt;Node27</title>
<path fill="none" stroke="midnightblue" d="M1108.59,-63.12C1258.69,-58.54 1618.8,-45.43 1758.69,-19.79"/>
<polygon fill="midnightblue" stroke="midnightblue" points="1759.62,-23.18 1768.77,-17.85 1758.29,-16.31 1759.62,-23.18"/>
</g>
<!-- Node28&#45;&gt;Node2 -->
<g id="edge28" class="edge">
<title>Node28&#45;&gt;Node2</title>
<path fill="none" stroke="midnightblue" d="M1266.25,-347.37C1210,-329.96 1092.94,-284.79 1043.5,-199 1035.51,-185.14 1035.16,-167.05 1036.73,-152.67"/>
<polygon fill="midnightblue" stroke="midnightblue" points="1040.22,-152.93 1038.2,-142.53 1033.3,-151.92 1040.22,-152.93"/>
</g>
<!-- Node29 -->
<g id="node29" class="node">
<title>Node29</title>
<g id="a_node29"><a xlink:href="../../db/d7c/a00722.html" target="_top" xlink:title=" ">
<polygon fill="none" stroke="black" points="1411,-291.5 1411,-310.5 1536,-310.5 1536,-291.5 1411,-291.5"/>
<text text-anchor="middle" x="1473.5" y="-298.5" font-family="Helvetica,sans-Serif" font-size="10.00">discordcoreapi/Https.hpp</text>
</a>
</g>
</g>
<!-- Node28&#45;&gt;Node29 -->
<g id="edge29" class="edge">
<title>Node28&#45;&gt;Node29</title>
<path fill="none" stroke="midnightblue" d="M1325.39,-347.44C1355.25,-338.28 1402.81,-323.69 1435.96,-313.52"/>
<polygon fill="midnightblue" stroke="midnightblue" points="1437.21,-316.8 1445.74,-310.52 1435.16,-310.1 1437.21,-316.8"/>
</g>
<!-- Node30 -->
<g id="node30" class="node">
<title>Node30</title>
<g id="a_node30"><a xlink:href="../../d5/de8/a00749.html" target="_top" xlink:title=" ">
<polygon fill="none" stroke="black" points="1515.5,-235.5 1515.5,-254.5 1665.5,-254.5 1665.5,-235.5 1515.5,-235.5"/>
<text text-anchor="middle" x="1590.5" y="-242.5" font-family="Helvetica,sans-Serif" font-size="10.00">discordcoreapi/SSLClients.hpp</text>
</a>
</g>
</g>
<!-- Node29&#45;&gt;Node30 -->
<g id="edge30" class="edge">
<title>Node29&#45;&gt;Node30</title>
<path fill="none" stroke="midnightblue" d="M1492.04,-291.44C1511.12,-282.64 1541.07,-268.81 1562.94,-258.72"/>
<polygon fill="midnightblue" stroke="midnightblue" points="1564.43,-261.88 1572.05,-254.52 1561.5,-255.53 1564.43,-261.88"/>
</g>
<!-- Node30&#45;&gt;Node2 -->
<g id="edge31" class="edge">
<title>Node30&#45;&gt;Node2</title>
<path fill="none" stroke="midnightblue" d="M1515.41,-242.33C1377.46,-238.6 1094.62,-227.52 1060.5,-199 1047.14,-187.84 1042.65,-168.37 1041.35,-152.71"/>
<polygon fill="midnightblue" stroke="midnightblue" points="1044.84,-152.46 1040.9,-142.63 1037.85,-152.78 1044.84,-152.46"/>
</g>
<!-- Node31 -->
<g id="node31" class="node">
<title>Node31</title>
<g id="a_node31"><a xlink:href="../../d4/d6a/a00704.html" target="_top" xlink:title=" ">
<polygon fill="none" stroke="black" points="1069.5,-179.5 1069.5,-198.5 1227.5,-198.5 1227.5,-179.5 1069.5,-179.5"/>
<text text-anchor="middle" x="1148.5" y="-186.5" font-family="Helvetica,sans-Serif" font-size="10.00">discordcoreapi/EventEntities.hpp</text>
</a>
</g>
</g>
<!-- Node30&#45;&gt;Node31 -->
<g id="edge32" class="edge">
<title>Node30&#45;&gt;Node31</title>
<path fill="none" stroke="midnightblue" d="M1520.46,-235.44C1441.01,-225.74 1311.7,-209.94 1228.39,-199.76"/>
<polygon fill="midnightblue" stroke="midnightblue" points="1228.56,-196.26 1218.21,-198.52 1227.71,-203.2 1228.56,-196.26"/>
</g>
<!-- Node32 -->
<g id="node32" class="node">
<title>Node32</title>
<g id="a_node32"><a xlink:title=" ">
<polygon fill="none" stroke="#bfbfbf" points="1246,-179.5 1246,-198.5 1319,-198.5 1319,-179.5 1246,-179.5"/>
<text text-anchor="middle" x="1282.5" y="-186.5" font-family="Helvetica,sans-Serif" font-size="10.00">openssl/err.h</text>
</a>
</g>
</g>
<!-- Node30&#45;&gt;Node32 -->
<g id="edge34" class="edge">
<title>Node30&#45;&gt;Node32</title>
<path fill="none" stroke="midnightblue" d="M1538.74,-235.47C1488.01,-227.03 1408.23,-213.55 1329.27,-199.11"/>
<polygon fill="midnightblue" stroke="midnightblue" points="1329.61,-195.61 1319.14,-197.25 1328.35,-202.5 1329.61,-195.61"/>
</g>
<!-- Node33 -->
<g id="node33" class="node">
<title>Node33</title>
<g id="a_node33"><a xlink:title=" ">
<polygon fill="none" stroke="#bfbfbf" points="1337.5,-179.5 1337.5,-198.5 1411.5,-198.5 1411.5,-179.5 1337.5,-179.5"/>
<text text-anchor="middle" x="1374.5" y="-186.5" font-family="Helvetica,sans-Serif" font-size="10.00">openssl/ssl.h</text>
</a>
</g>
</g>
<!-- Node30&#45;&gt;Node33 -->
<g id="edge35" class="edge">
<title>Node30&#45;&gt;Node33</title>
<path fill="none" stroke="midnightblue" d="M1556.27,-235.44C1518.99,-226.12 1459.23,-211.18 1418.49,-201"/>
<polygon fill="midnightblue" stroke="midnightblue" points="1419.12,-197.55 1408.57,-198.52 1417.42,-204.34 1419.12,-197.55"/>
</g>
<!-- Node34 -->
<g id="node34" class="node">
<title>Node34</title>
<g id="a_node34"><a xlink:title=" ">
<polygon fill="none" stroke="#bfbfbf" points="1430,-179.5 1430,-198.5 1473,-198.5 1473,-179.5 1430,-179.5"/>
<text text-anchor="middle" x="1451.5" y="-186.5" font-family="Helvetica,sans-Serif" font-size="10.00">fcntl.h</text>
</a>
</g>
</g>
<!-- Node30&#45;&gt;Node34 -->
<g id="edge36" class="edge">
<title>Node30&#45;&gt;Node34</title>
<path fill="none" stroke="midnightblue" d="M1568.48,-235.44C1545.4,-226.48 1508.94,-212.31 1482.86,-202.18"/>
<polygon fill="midnightblue" stroke="midnightblue" points="1484.01,-198.88 1473.42,-198.52 1481.48,-205.4 1484.01,-198.88"/>
</g>
<!-- Node35 -->
<g id="node35" class="node">
<title>Node35</title>
<g id="a_node35"><a xlink:title=" ">
<polygon fill="none" stroke="#bfbfbf" points="1491,-179.5 1491,-198.5 1540,-198.5 1540,-179.5 1491,-179.5"/>
<text text-anchor="middle" x="1515.5" y="-186.5" font-family="Helvetica,sans-Serif" font-size="10.00">netdb.h</text>
</a>
</g>
</g>
<!-- Node30&#45;&gt;Node35 -->
<g id="edge37" class="edge">
<title>Node30&#45;&gt;Node35</title>
<path fill="none" stroke="midnightblue" d="M1578.45,-235.32C1567.04,-227.11 1549.67,-214.6 1536.07,-204.81"/>
<polygon fill="midnightblue" stroke="midnightblue" points="1537.93,-201.84 1527.77,-198.83 1533.84,-207.52 1537.93,-201.84"/>
</g>
<!-- Node36 -->
<g id="node36" class="node">
<title>Node36</title>
<g id="a_node36"><a xlink:title=" ">
<polygon fill="none" stroke="#bfbfbf" points="1558,-179.5 1558,-198.5 1623,-198.5 1623,-179.5 1558,-179.5"/>
<text text-anchor="middle" x="1590.5" y="-186.5" font-family="Helvetica,sans-Serif" font-size="10.00">netinet/in.h</text>
</a>
</g>
</g>
<!-- Node30&#45;&gt;Node36 -->
<g id="edge38" class="edge">
<title>Node30&#45;&gt;Node36</title>
<path fill="none" stroke="midnightblue" d="M1590.5,-235.08C1590.5,-228.01 1590.5,-217.86 1590.5,-208.99"/>
<polygon fill="midnightblue" stroke="midnightblue" points="1594,-208.75 1590.5,-198.75 1587,-208.75 1594,-208.75"/>
</g>
<!-- Node37 -->
<g id="node37" class="node">
<title>Node37</title>
<g id="a_node37"><a xlink:title=" ">
<polygon fill="none" stroke="#bfbfbf" points="1641,-179.5 1641,-198.5 1712,-198.5 1712,-179.5 1641,-179.5"/>
<text text-anchor="middle" x="1676.5" y="-186.5" font-family="Helvetica,sans-Serif" font-size="10.00">netinet/tcp.h</text>
</a>
</g>
</g>
<!-- Node30&#45;&gt;Node37 -->
<g id="edge39" class="edge">
<title>Node30&#45;&gt;Node37</title>
<path fill="none" stroke="midnightblue" d="M1604.32,-235.32C1617.73,-226.9 1638.32,-213.97 1654.09,-204.07"/>
<polygon fill="midnightblue" stroke="midnightblue" points="1656.11,-206.94 1662.72,-198.65 1652.39,-201.01 1656.11,-206.94"/>
</g>
<!-- Node38 -->
<g id="node38" class="node">
<title>Node38</title>
<g id="a_node38"><a xlink:title=" ">
<polygon fill="none" stroke="#bfbfbf" points="1730,-179.5 1730,-198.5 1779,-198.5 1779,-179.5 1730,-179.5"/>
<text text-anchor="middle" x="1754.5" y="-186.5" font-family="Helvetica,sans-Serif" font-size="10.00">stdint.h</text>
</a>
</g>
</g>
<!-- Node30&#45;&gt;Node38 -->
<g id="edge40" class="edge">
<title>Node30&#45;&gt;Node38</title>
<path fill="none" stroke="midnightblue" d="M1616.49,-235.44C1644.6,-226.19 1689.55,-211.39 1720.47,-201.21"/>
<polygon fill="midnightblue" stroke="midnightblue" points="1721.57,-204.53 1729.97,-198.08 1719.38,-197.88 1721.57,-204.53"/>
</g>
<!-- Node39 -->
<g id="node39" class="node">
<title>Node39</title>
<g id="a_node39"><a xlink:title=" ">
<polygon fill="none" stroke="#bfbfbf" points="1797.5,-179.5 1797.5,-198.5 1861.5,-198.5 1861.5,-179.5 1797.5,-179.5"/>
<text text-anchor="middle" x="1829.5" y="-186.5" font-family="Helvetica,sans-Serif" font-size="10.00">sys/epoll.h</text>
</a>
</g>
</g>
<!-- Node30&#45;&gt;Node39 -->
<g id="edge41" class="edge">
<title>Node30&#45;&gt;Node39</title>
<path fill="none" stroke="midnightblue" d="M1628.37,-235.44C1671.6,-225.68 1742.12,-209.74 1787.14,-199.57"/>
<polygon fill="midnightblue" stroke="midnightblue" points="1788.19,-202.92 1797.17,-197.3 1786.65,-196.09 1788.19,-202.92"/>
</g>
<!-- Node40 -->
<g id="node40" class="node">
<title>Node40</title>
<g id="a_node40"><a xlink:title=" ">
<polygon fill="none" stroke="#bfbfbf" points="1879.5,-179.5 1879.5,-198.5 1941.5,-198.5 1941.5,-179.5 1879.5,-179.5"/>
<text text-anchor="middle" x="1910.5" y="-186.5" font-family="Helvetica,sans-Serif" font-size="10.00">arpa/inet.h</text>
</a>
</g>
</g>
<!-- Node30&#45;&gt;Node40 -->
<g id="edge42" class="edge">
<title>Node30&#45;&gt;Node40</title>
<path fill="none" stroke="midnightblue" d="M1650.23,-235.5C1704.82,-227.48 1788.03,-214.63 1869.21,-199.16"/>
<polygon fill="midnightblue" stroke="midnightblue" points="1869.94,-202.58 1879.1,-197.26 1868.61,-195.71 1869.94,-202.58"/>
</g>
<!-- Node41 -->
<g id="node41" class="node">
<title>Node41</title>
<g id="a_node41"><a xlink:title=" ">
<polygon fill="none" stroke="#bfbfbf" points="1960,-179.5 1960,-198.5 2033,-198.5 2033,-179.5 1960,-179.5"/>
<text text-anchor="middle" x="1996.5" y="-186.5" font-family="Helvetica,sans-Serif" font-size="10.00">sys/socket.h</text>
</a>
</g>
</g>
<!-- Node30&#45;&gt;Node41 -->
<g id="edge43" class="edge">
<title>Node30&#45;&gt;Node41</title>
<path fill="none" stroke="midnightblue" d="M1665.52,-236.15C1736.21,-228.4 1845.31,-215.55 1949.79,-199.01"/>
<polygon fill="midnightblue" stroke="midnightblue" points="1950.56,-202.43 1959.88,-197.4 1949.46,-195.52 1950.56,-202.43"/>
</g>
<!-- Node42 -->
<g id="node42" class="node">
<title>Node42</title>
<g id="a_node42"><a xlink:title=" ">
<polygon fill="none" stroke="#bfbfbf" points="2051.5,-179.5 2051.5,-198.5 2119.5,-198.5 2119.5,-179.5 2051.5,-179.5"/>
<text text-anchor="middle" x="2085.5" y="-186.5" font-family="Helvetica,sans-Serif" font-size="10.00">sys/types.h</text>
</a>
</g>
</g>
<!-- Node30&#45;&gt;Node42 -->
<g id="edge44" class="edge">
<title>Node30&#45;&gt;Node42</title>
<path fill="none" stroke="midnightblue" d="M1665.59,-239C1753.42,-232.59 1903.35,-219.92 2041.38,-199.02"/>
<polygon fill="midnightblue" stroke="midnightblue" points="2041.94,-202.48 2051.29,-197.5 2040.88,-195.56 2041.94,-202.48"/>
</g>
<!-- Node43 -->
<g id="node43" class="node">
<title>Node43</title>
<g id="a_node43"><a xlink:title=" ">
<polygon fill="none" stroke="#bfbfbf" points="2138,-179.5 2138,-198.5 2189,-198.5 2189,-179.5 2138,-179.5"/>
<text text-anchor="middle" x="2163.5" y="-186.5" font-family="Helvetica,sans-Serif" font-size="10.00">unistd.h</text>
</a>
</g>
</g>
<!-- Node30&#45;&gt;Node43 -->
<g id="edge45" class="edge">
<title>Node30&#45;&gt;Node43</title>
<path fill="none" stroke="midnightblue" d="M1665.85,-241.69C1768.37,-237.67 1957.55,-227.08 2128.08,-198.76"/>
<polygon fill="midnightblue" stroke="midnightblue" points="2128.71,-202.2 2137.99,-197.09 2127.55,-195.3 2128.71,-202.2"/>
</g>
<!-- Node31&#45;&gt;Node2 -->
<g id="edge33" class="edge">
<title>Node31&#45;&gt;Node2</title>
<path fill="none" stroke="midnightblue" d="M1133.17,-179.48C1118.2,-171.15 1094.92,-158.21 1075.57,-147.45"/>
<polygon fill="midnightblue" stroke="midnightblue" points="1077.16,-144.32 1066.72,-142.52 1073.76,-150.44 1077.16,-144.32"/>
</g>
<!-- Node44&#45;&gt;Node2 -->
<g id="edge47" class="edge">
<title>Node44&#45;&gt;Node2</title>
<path fill="none" stroke="midnightblue" d="M1444.1,-409.86C1664.07,-403.37 2217.5,-379.37 2217.5,-302 2217.5,-302 2217.5,-302 2217.5,-244 2217.5,-213.9 2222.18,-197.57 2198.5,-179 2155.95,-145.63 1367.76,-132.68 1117.25,-129.4"/>
<polygon fill="midnightblue" stroke="midnightblue" points="1117.19,-125.9 1107.15,-129.27 1117.1,-132.9 1117.19,-125.9"/>
</g>
<!-- Node44&#45;&gt;Node28 -->
<g id="edge48" class="edge">
<title>Node44&#45;&gt;Node28</title>
<path fill="none" stroke="midnightblue" d="M1346.18,-403.32C1337.61,-395.34 1324.69,-383.31 1314.31,-373.65"/>
<polygon fill="midnightblue" stroke="midnightblue" points="1316.69,-371.09 1306.99,-366.83 1311.92,-376.21 1316.69,-371.09"/>
</g>
</g>
</svg>
