<?xml version="1.0" encoding="UTF-8" standalone="no"?>
<!DOCTYPE svg PUBLIC "-//W3C//DTD SVG 1.1//EN"
 "http://www.w3.org/Graphics/SVG/1.1/DTD/svg11.dtd">
<!-- Generated by graphviz version 3.0.0 (20220226.1711)
 -->
<!-- Title: DiscordCoreAPI::AutoModerationRule Pages: 1 -->
<svg width="187pt" height="151pt"
 viewBox="0.00 0.00 187.00 151.00" xmlns="http://www.w3.org/2000/svg" xmlns:xlink="http://www.w3.org/1999/xlink">
<g id="graph0" class="graph" transform="scale(1 1) rotate(0) translate(4 147)">
<title>DiscordCoreAPI::AutoModerationRule</title>
<!-- Node1 -->
<g id="node1" class="node">
<title>Node1</title>
<g id="a_node1"><a xlink:title="Represents an auto&#45;moderation&#45;rule.">
<polygon fill="#bfbfbf" stroke="black" points="0,-0.5 0,-19.5 179,-19.5 179,-0.5 0,-0.5"/>
<text text-anchor="middle" x="89.5" y="-7.5" font-family="Helvetica,sans-Serif" font-size="10.00">DiscordCoreAPI::AutoModerationRule</text>
</a>
</g>
</g>
<!-- Node2 -->
<g id="node2" class="node">
<title>Node2</title>
<g id="a_node2"><a xlink:href="../../d7/d18/a02409.html" target="_top" xlink:title="Represents an auto&#45;moderation&#45;rule.">
<polygon fill="none" stroke="black" points="9.5,-56.5 9.5,-86.5 169.5,-86.5 169.5,-56.5 9.5,-56.5"/>
<text text-anchor="start" x="17.5" y="-74.5" font-family="Helvetica,sans-Serif" font-size="10.00">DiscordCoreAPI::AutoModeration</text>
<text text-anchor="middle" x="89.5" y="-63.5" font-family="Helvetica,sans-Serif" font-size="10.00">RuleData</text>
</a>
</g>
</g>
<!-- Node2&#45;&gt;Node1 -->
<g id="edge1" class="edge">
<title>Node2&#45;&gt;Node1</title>
<path fill="none" stroke="midnightblue" d="M89.5,-46.29C89.5,-36.86 89.5,-26.65 89.5,-19.66"/>
<polygon fill="midnightblue" stroke="midnightblue" points="86,-46.4 89.5,-56.4 93,-46.4 86,-46.4"/>
</g>
<!-- Node3 -->
<g id="node3" class="node">
<title>Node3</title>
<g id="a_node3"><a xlink:href="../../d1/db8/a02297.html" target="_top" xlink:title="Base class DiscordCoreAPI_Dll for all Discord entities.">
<polygon fill="none" stroke="black" points="14.5,-123.5 14.5,-142.5 164.5,-142.5 164.5,-123.5 14.5,-123.5"/>
<text text-anchor="middle" x="89.5" y="-130.5" font-family="Helvetica,sans-Serif" font-size="10.00">DiscordCoreAPI::DiscordEntity</text>
</a>
</g>
</g>
<!-- Node3&#45;&gt;Node2 -->
<g id="edge2" class="edge">
<title>Node3&#45;&gt;Node2</title>
<path fill="none" stroke="midnightblue" d="M89.5,-113.23C89.5,-104.59 89.5,-94.5 89.5,-86.52"/>
<polygon fill="midnightblue" stroke="midnightblue" points="86,-113.48 89.5,-123.48 93,-113.48 86,-113.48"/>
</g>
</g>
</svg>
