<?xml version="1.0" encoding="UTF-8" standalone="no"?>
<!DOCTYPE svg PUBLIC "-//W3C//DTD SVG 1.1//EN"
 "http://www.w3.org/Graphics/SVG/1.1/DTD/svg11.dtd">
<!-- Generated by graphviz version 3.0.0 (20220226.1711)
 -->
<!-- Title: DiscordCoreAPI::ExecuteWebHookData Pages: 1 -->
<svg width="364pt" height="127pt"
 viewBox="0.00 0.00 364.00 126.50" xmlns="http://www.w3.org/2000/svg" xmlns:xlink="http://www.w3.org/1999/xlink">
<g id="graph0" class="graph" transform="scale(1 1) rotate(0) translate(4 122.5)">
<title>DiscordCoreAPI::ExecuteWebHookData</title>
<!-- Node1 -->
<g id="node1" class="node">
<title>Node1</title>
<g id="a_node1"><a xlink:title="For executing a WebHook.">
<polygon fill="#bfbfbf" stroke="black" points="0,-39 0,-69 148,-69 148,-39 0,-39"/>
<text text-anchor="start" x="8" y="-57" font-family="Helvetica,sans-Serif" font-size="10.00">DiscordCoreAPI::ExecuteWeb</text>
<text text-anchor="middle" x="74" y="-46" font-family="Helvetica,sans-Serif" font-size="10.00">HookData</text>
</a>
</g>
</g>
<!-- Node2 -->
<g id="node2" class="node">
<title>Node2</title>
<g id="a_node2"><a xlink:href="../../d5/d1f/a03147.html" target="_top" xlink:title="For creating an ephemeral follow up Message.">
<polygon fill="none" stroke="black" points="186.5,-88 186.5,-118 353.5,-118 353.5,-88 186.5,-88"/>
<text text-anchor="start" x="194.5" y="-106" font-family="Helvetica,sans-Serif" font-size="10.00">DiscordCoreAPI::CreateEphemeral</text>
<text text-anchor="middle" x="270" y="-95" font-family="Helvetica,sans-Serif" font-size="10.00">FollowUpMessageData</text>
</a>
</g>
</g>
<!-- Node1&#45;&gt;Node2 -->
<g id="edge1" class="edge">
<title>Node1&#45;&gt;Node2</title>
<path fill="none" stroke="midnightblue" d="M144.48,-71.55C165.79,-76.93 189.02,-82.8 209.59,-87.99"/>
<polygon fill="midnightblue" stroke="midnightblue" points="145.08,-68.09 134.52,-69.03 143.36,-74.88 145.08,-68.09"/>
</g>
<!-- Node3 -->
<g id="node3" class="node">
<title>Node3</title>
<g id="a_node3"><a xlink:href="../../d3/dd4/a03151.html" target="_top" xlink:title="For creating a follow up Message.">
<polygon fill="none" stroke="black" points="196,-39 196,-69 344,-69 344,-39 196,-39"/>
<text text-anchor="start" x="204" y="-57" font-family="Helvetica,sans-Serif" font-size="10.00">DiscordCoreAPI::CreateFollow</text>
<text text-anchor="middle" x="270" y="-46" font-family="Helvetica,sans-Serif" font-size="10.00">UpMessageData</text>
</a>
</g>
</g>
<!-- Node1&#45;&gt;Node3 -->
<g id="edge2" class="edge">
<title>Node1&#45;&gt;Node3</title>
<path fill="none" stroke="midnightblue" d="M158.09,-54C170.7,-54 183.63,-54 196,-54"/>
<polygon fill="midnightblue" stroke="midnightblue" points="158.07,-50.5 148.07,-54 158.07,-57.5 158.07,-50.5"/>
</g>
<!-- Node4 -->
<g id="node4" class="node">
<title>Node4</title>
<g id="a_node4"><a xlink:href="../../d2/db4/a03695.html" target="_top" xlink:title="For editing a WebHook Message.">
<polygon fill="none" stroke="black" points="184,-0.5 184,-19.5 356,-19.5 356,-0.5 184,-0.5"/>
<text text-anchor="middle" x="270" y="-7.5" font-family="Helvetica,sans-Serif" font-size="10.00">DiscordCoreAPI::EditWebHookData</text>
</a>
</g>
</g>
<!-- Node1&#45;&gt;Node4 -->
<g id="edge3" class="edge">
<title>Node1&#45;&gt;Node4</title>
<path fill="none" stroke="midnightblue" d="M151.02,-36.76C176.89,-30.89 204.85,-24.55 227.06,-19.51"/>
<polygon fill="midnightblue" stroke="midnightblue" points="150.2,-33.36 141.22,-38.98 151.75,-40.18 150.2,-33.36"/>
</g>
</g>
</svg>
