<?xml version="1.0" encoding="UTF-8" standalone="no"?>
<!DOCTYPE svg PUBLIC "-//W3C//DTD SVG 1.1//EN"
 "http://www.w3.org/Graphics/SVG/1.1/DTD/svg11.dtd">
<!-- Generated by graphviz version 3.0.0 (20220226.1711)
 -->
<!-- Title: AudioEncoder.cpp Pages: 1 -->
<svg width="1813pt" height="263pt"
 viewBox="0.00 0.00 1812.50 263.00" xmlns="http://www.w3.org/2000/svg" xmlns:xlink="http://www.w3.org/1999/xlink">
<g id="graph0" class="graph" transform="scale(1 1) rotate(0) translate(4 259)">
<title>AudioEncoder.cpp</title>
<!-- Node1 -->
<g id="node1" class="node">
<title>Node1</title>
<g id="a_node1"><a xlink:title=" ">
<polygon fill="#bfbfbf" stroke="black" points="471,-235.5 471,-254.5 567,-254.5 567,-235.5 471,-235.5"/>
<text text-anchor="middle" x="519" y="-242.5" font-family="Helvetica,sans-Serif" font-size="10.00">AudioEncoder.cpp</text>
</a>
</g>
</g>
<!-- Node2 -->
<g id="node2" class="node">
<title>Node2</title>
<g id="a_node2"><a xlink:href="../../d4/d9b/a00680.html" target="_top" xlink:title=" ">
<polygon fill="none" stroke="black" points="438,-179.5 438,-198.5 600,-198.5 600,-179.5 438,-179.5"/>
<text text-anchor="middle" x="519" y="-186.5" font-family="Helvetica,sans-Serif" font-size="10.00">discordcoreapi/AudioEncoder.hpp</text>
</a>
</g>
</g>
<!-- Node1&#45;&gt;Node2 -->
<g id="edge1" class="edge">
<title>Node1&#45;&gt;Node2</title>
<path fill="none" stroke="midnightblue" d="M519,-235.08C519,-228.01 519,-217.86 519,-208.99"/>
<polygon fill="midnightblue" stroke="midnightblue" points="522.5,-208.75 519,-198.75 515.5,-208.75 522.5,-208.75"/>
</g>
<!-- Node3 -->
<g id="node3" class="node">
<title>Node3</title>
<g id="a_node3"><a xlink:href="../../d4/deb/a00710.html" target="_top" xlink:title=" ">
<polygon fill="none" stroke="black" points="500.5,-112.5 500.5,-142.5 631.5,-142.5 631.5,-112.5 500.5,-112.5"/>
<text text-anchor="start" x="508.5" y="-130.5" font-family="Helvetica,sans-Serif" font-size="10.00">discordcoreapi/Foundation</text>
<text text-anchor="middle" x="566" y="-119.5" font-family="Helvetica,sans-Serif" font-size="10.00">Entities.hpp</text>
</a>
</g>
</g>
<!-- Node2&#45;&gt;Node3 -->
<g id="edge2" class="edge">
<title>Node2&#45;&gt;Node3</title>
<path fill="none" stroke="midnightblue" d="M525.73,-179.48C531.68,-171.94 540.62,-160.63 548.57,-150.57"/>
<polygon fill="midnightblue" stroke="midnightblue" points="551.47,-152.54 554.92,-142.52 545.98,-148.2 551.47,-152.54"/>
</g>
<!-- Node14 -->
<g id="node14" class="node">
<title>Node14</title>
<g id="a_node14"><a xlink:title=" ">
<polygon fill="none" stroke="#bfbfbf" points="0,-0.5 0,-19.5 70,-19.5 70,-0.5 0,-0.5"/>
<text text-anchor="middle" x="35" y="-7.5" font-family="Helvetica,sans-Serif" font-size="10.00">opus/opus.h</text>
</a>
</g>
</g>
<!-- Node2&#45;&gt;Node14 -->
<g id="edge28" class="edge">
<title>Node2&#45;&gt;Node14</title>
<path fill="none" stroke="midnightblue" d="M495.66,-179.46C416.76,-150.61 159.84,-56.65 68.01,-23.07"/>
<polygon fill="midnightblue" stroke="midnightblue" points="68.99,-19.7 58.39,-19.55 66.58,-26.28 68.99,-19.7"/>
</g>
<!-- Node4 -->
<g id="node4" class="node">
<title>Node4</title>
<g id="a_node4"><a xlink:href="../../d5/dae/a00767.html" target="_top" xlink:title=" ">
<polygon fill="none" stroke="black" points="936,-56.5 936,-75.5 1070,-75.5 1070,-56.5 936,-56.5"/>
<text text-anchor="middle" x="1003" y="-63.5" font-family="Helvetica,sans-Serif" font-size="10.00">discordcoreapi/Utilities.hpp</text>
</a>
</g>
</g>
<!-- Node3&#45;&gt;Node4 -->
<g id="edge3" class="edge">
<title>Node3&#45;&gt;Node4</title>
<path fill="none" stroke="midnightblue" d="M631.9,-117.53C712.12,-106.6 847.17,-88.22 930.34,-76.89"/>
<polygon fill="midnightblue" stroke="midnightblue" points="931.03,-80.33 940.47,-75.51 930.09,-73.4 931.03,-80.33"/>
</g>
<!-- Node5 -->
<g id="node5" class="node">
<title>Node5</title>
<g id="a_node5"><a xlink:title=" ">
<polygon fill="none" stroke="#bfbfbf" points="88.5,-0.5 88.5,-19.5 145.5,-19.5 145.5,-0.5 88.5,-0.5"/>
<text text-anchor="middle" x="117" y="-7.5" font-family="Helvetica,sans-Serif" font-size="10.00">pthread.h</text>
</a>
</g>
</g>
<!-- Node4&#45;&gt;Node5 -->
<g id="edge4" class="edge">
<title>Node4&#45;&gt;Node5</title>
<path fill="none" stroke="midnightblue" d="M935.82,-65.52C793.5,-65.72 451.19,-61.56 155.58,-19.78"/>
<polygon fill="midnightblue" stroke="midnightblue" points="155.92,-16.29 145.53,-18.34 154.93,-23.22 155.92,-16.29"/>
</g>
<!-- Node6 -->
<g id="node6" class="node">
<title>Node6</title>
<g id="a_node6"><a xlink:title=" ">
<polygon fill="none" stroke="#bfbfbf" points="164,-0.5 164,-19.5 226,-19.5 226,-0.5 164,-0.5"/>
<text text-anchor="middle" x="195" y="-7.5" font-family="Helvetica,sans-Serif" font-size="10.00">sys/time.h</text>
</a>
</g>
</g>
<!-- Node4&#45;&gt;Node6 -->
<g id="edge5" class="edge">
<title>Node4&#45;&gt;Node6</title>
<path fill="none" stroke="midnightblue" d="M935.86,-64.73C803.62,-63.4 500.07,-56.41 236.5,-19.98"/>
<polygon fill="midnightblue" stroke="midnightblue" points="236.74,-16.48 226.35,-18.56 235.77,-23.41 236.74,-16.48"/>
</g>
<!-- Node7 -->
<g id="node7" class="node">
<title>Node7</title>
<g id="a_node7"><a xlink:title=" ">
<polygon fill="none" stroke="#bfbfbf" points="244,-0.5 244,-19.5 288,-19.5 288,-0.5 244,-0.5"/>
<text text-anchor="middle" x="266" y="-7.5" font-family="Helvetica,sans-Serif" font-size="10.00">time.h</text>
</a>
</g>
</g>
<!-- Node4&#45;&gt;Node7 -->
<g id="edge6" class="edge">
<title>Node4&#45;&gt;Node7</title>
<path fill="none" stroke="midnightblue" d="M935.75,-65.58C811.26,-65.61 536.63,-60.7 298.11,-19.8"/>
<polygon fill="midnightblue" stroke="midnightblue" points="298.67,-16.35 288.21,-18.08 297.47,-23.24 298.67,-16.35"/>
</g>
<!-- Node8 -->
<g id="node8" class="node">
<title>Node8</title>
<g id="a_node8"><a xlink:title=" ">
<polygon fill="none" stroke="#bfbfbf" points="306.5,-0.5 306.5,-19.5 347.5,-19.5 347.5,-0.5 306.5,-0.5"/>
<text text-anchor="middle" x="327" y="-7.5" font-family="Helvetica,sans-Serif" font-size="10.00">ctime</text>
</a>
</g>
</g>
<!-- Node4&#45;&gt;Node8 -->
<g id="edge7" class="edge">
<title>Node4&#45;&gt;Node8</title>
<path fill="none" stroke="midnightblue" d="M935.76,-65.42C819.26,-65.03 572.51,-59.31 357.65,-19.92"/>
<polygon fill="midnightblue" stroke="midnightblue" points="358.24,-16.47 347.76,-18.08 356.95,-23.35 358.24,-16.47"/>
</g>
<!-- Node9 -->
<g id="node9" class="node">
<title>Node9</title>
<g id="a_node9"><a xlink:title=" ">
<polygon fill="none" stroke="#bfbfbf" points="365.5,-0.5 365.5,-19.5 458.5,-19.5 458.5,-0.5 365.5,-0.5"/>
<text text-anchor="middle" x="412" y="-7.5" font-family="Helvetica,sans-Serif" font-size="10.00">condition_variable</text>
</a>
</g>
</g>
<!-- Node4&#45;&gt;Node9 -->
<g id="edge8" class="edge">
<title>Node4&#45;&gt;Node9</title>
<path fill="none" stroke="midnightblue" d="M935.69,-60.97C836.05,-54.65 643.22,-41.03 468.85,-20.01"/>
<polygon fill="midnightblue" stroke="midnightblue" points="469.06,-16.51 458.71,-18.78 468.22,-23.46 469.06,-16.51"/>
</g>
<!-- Node10 -->
<g id="node10" class="node">
<title>Node10</title>
<g id="a_node10"><a xlink:title=" ">
<polygon fill="none" stroke="#bfbfbf" points="477,-0.5 477,-19.5 575,-19.5 575,-0.5 477,-0.5"/>
<text text-anchor="middle" x="526" y="-7.5" font-family="Helvetica,sans-Serif" font-size="10.00">nlohmann/json.hpp</text>
</a>
</g>
</g>
<!-- Node4&#45;&gt;Node10 -->
<g id="edge9" class="edge">
<title>Node4&#45;&gt;Node10</title>
<path fill="none" stroke="midnightblue" d="M935.93,-58.7C855.37,-50.93 715.9,-36.81 585.41,-20"/>
<polygon fill="midnightblue" stroke="midnightblue" points="585.6,-16.49 575.23,-18.68 584.7,-23.43 585.6,-16.49"/>
</g>
<!-- Node11 -->
<g id="node11" class="node">
<title>Node11</title>
<g id="a_node11"><a xlink:title=" ">
<polygon fill="none" stroke="#bfbfbf" points="593.5,-0.5 593.5,-19.5 678.5,-19.5 678.5,-0.5 593.5,-0.5"/>
<text text-anchor="middle" x="636" y="-7.5" font-family="Helvetica,sans-Serif" font-size="10.00">source_location</text>
</a>
</g>
</g>
<!-- Node4&#45;&gt;Node11 -->
<g id="edge10" class="edge">
<title>Node4&#45;&gt;Node11</title>
<path fill="none" stroke="midnightblue" d="M939.57,-56.5C878.07,-48.13 781.88,-34.7 688.46,-20.03"/>
<polygon fill="midnightblue" stroke="midnightblue" points="688.97,-16.57 678.55,-18.47 687.88,-23.48 688.97,-16.57"/>
</g>
<!-- Node12 -->
<g id="node12" class="node">
<title>Node12</title>
<g id="a_node12"><a xlink:title=" ">
<polygon fill="none" stroke="#bfbfbf" points="696.5,-0.5 696.5,-19.5 779.5,-19.5 779.5,-0.5 696.5,-0.5"/>
<text text-anchor="middle" x="738" y="-7.5" font-family="Helvetica,sans-Serif" font-size="10.00">unordered_map</text>
</a>
</g>
</g>
<!-- Node4&#45;&gt;Node12 -->
<g id="edge11" class="edge">
<title>Node4&#45;&gt;Node12</title>
<path fill="none" stroke="midnightblue" d="M961.01,-56.44C914.59,-46.98 839.77,-31.74 789.76,-21.55"/>
<polygon fill="midnightblue" stroke="midnightblue" points="790.29,-18.08 779.79,-19.52 788.89,-24.94 790.29,-18.08"/>
</g>
<!-- Node13 -->
<g id="node13" class="node">
<title>Node13</title>
<g id="a_node13"><a xlink:title=" ">
<polygon fill="none" stroke="#bfbfbf" points="798,-0.5 798,-19.5 876,-19.5 876,-0.5 798,-0.5"/>
<text text-anchor="middle" x="837" y="-7.5" font-family="Helvetica,sans-Serif" font-size="10.00">shared_mutex</text>
</a>
</g>
</g>
<!-- Node4&#45;&gt;Node13 -->
<g id="edge12" class="edge">
<title>Node4&#45;&gt;Node13</title>
<path fill="none" stroke="midnightblue" d="M976.7,-56.44C948.65,-47.32 904.06,-32.81 872.82,-22.65"/>
<polygon fill="midnightblue" stroke="midnightblue" points="873.77,-19.28 863.18,-19.52 871.61,-25.94 873.77,-19.28"/>
</g>
<!-- Node4&#45;&gt;Node14 -->
<g id="edge13" class="edge">
<title>Node4&#45;&gt;Node14</title>
<path fill="none" stroke="midnightblue" d="M935.74,-65.24C784.44,-65.02 405.77,-60.24 80.55,-20"/>
<polygon fill="midnightblue" stroke="midnightblue" points="80.82,-16.51 70.46,-18.74 79.95,-23.45 80.82,-16.51"/>
</g>
<!-- Node15 -->
<g id="node15" class="node">
<title>Node15</title>
<g id="a_node15"><a xlink:title=" ">
<polygon fill="none" stroke="#bfbfbf" points="894,-0.5 894,-19.5 952,-19.5 952,-0.5 894,-0.5"/>
<text text-anchor="middle" x="923" y="-7.5" font-family="Helvetica,sans-Serif" font-size="10.00">functional</text>
</a>
</g>
</g>
<!-- Node4&#45;&gt;Node15 -->
<g id="edge14" class="edge">
<title>Node4&#45;&gt;Node15</title>
<path fill="none" stroke="midnightblue" d="M990.15,-56.32C977.78,-47.98 958.87,-35.21 944.26,-25.35"/>
<polygon fill="midnightblue" stroke="midnightblue" points="946.07,-22.35 935.82,-19.65 942.15,-28.15 946.07,-22.35"/>
</g>
<!-- Node16 -->
<g id="node16" class="node">
<title>Node16</title>
<g id="a_node16"><a xlink:title=" ">
<polygon fill="none" stroke="#bfbfbf" points="970.5,-0.5 970.5,-19.5 1035.5,-19.5 1035.5,-0.5 970.5,-0.5"/>
<text text-anchor="middle" x="1003" y="-7.5" font-family="Helvetica,sans-Serif" font-size="10.00">semaphore</text>
</a>
</g>
</g>
<!-- Node4&#45;&gt;Node16 -->
<g id="edge15" class="edge">
<title>Node4&#45;&gt;Node16</title>
<path fill="none" stroke="midnightblue" d="M1003,-56.08C1003,-49.01 1003,-38.86 1003,-29.99"/>
<polygon fill="midnightblue" stroke="midnightblue" points="1006.5,-29.75 1003,-19.75 999.5,-29.75 1006.5,-29.75"/>
</g>
<!-- Node17 -->
<g id="node17" class="node">
<title>Node17</title>
<g id="a_node17"><a xlink:title=" ">
<polygon fill="none" stroke="#bfbfbf" points="1054,-0.5 1054,-19.5 1110,-19.5 1110,-0.5 1054,-0.5"/>
<text text-anchor="middle" x="1082" y="-7.5" font-family="Helvetica,sans-Serif" font-size="10.00">concepts</text>
</a>
</g>
</g>
<!-- Node4&#45;&gt;Node17 -->
<g id="edge16" class="edge">
<title>Node4&#45;&gt;Node17</title>
<path fill="none" stroke="midnightblue" d="M1015.69,-56.32C1027.9,-47.98 1046.58,-35.21 1061,-25.35"/>
<polygon fill="midnightblue" stroke="midnightblue" points="1063.06,-28.19 1069.34,-19.65 1059.11,-22.41 1063.06,-28.19"/>
</g>
<!-- Node18 -->
<g id="node18" class="node">
<title>Node18</title>
<g id="a_node18"><a xlink:title=" ">
<polygon fill="none" stroke="#bfbfbf" points="1128,-0.5 1128,-19.5 1182,-19.5 1182,-0.5 1128,-0.5"/>
<text text-anchor="middle" x="1155" y="-7.5" font-family="Helvetica,sans-Serif" font-size="10.00">iostream</text>
</a>
</g>
</g>
<!-- Node4&#45;&gt;Node18 -->
<g id="edge17" class="edge">
<title>Node4&#45;&gt;Node18</title>
<path fill="none" stroke="midnightblue" d="M1027.08,-56.44C1052.54,-47.4 1092.89,-33.06 1121.46,-22.92"/>
<polygon fill="midnightblue" stroke="midnightblue" points="1122.78,-26.16 1131.03,-19.52 1120.43,-19.57 1122.78,-26.16"/>
</g>
<!-- Node19 -->
<g id="node19" class="node">
<title>Node19</title>
<g id="a_node19"><a xlink:title=" ">
<polygon fill="none" stroke="#bfbfbf" points="1200.5,-0.5 1200.5,-19.5 1249.5,-19.5 1249.5,-0.5 1200.5,-0.5"/>
<text text-anchor="middle" x="1225" y="-7.5" font-family="Helvetica,sans-Serif" font-size="10.00">fstream</text>
</a>
</g>
</g>
<!-- Node4&#45;&gt;Node19 -->
<g id="edge18" class="edge">
<title>Node4&#45;&gt;Node19</title>
<path fill="none" stroke="midnightblue" d="M1039.81,-56.46C1075.75,-48.07 1132.25,-34.71 1190.41,-20.1"/>
<polygon fill="midnightblue" stroke="midnightblue" points="1191.29,-23.49 1200.14,-17.65 1189.58,-16.7 1191.29,-23.49"/>
</g>
<!-- Node20 -->
<g id="node20" class="node">
<title>Node20</title>
<g id="a_node20"><a xlink:title=" ">
<polygon fill="none" stroke="#bfbfbf" points="1267.5,-0.5 1267.5,-19.5 1308.5,-19.5 1308.5,-0.5 1267.5,-0.5"/>
<text text-anchor="middle" x="1288" y="-7.5" font-family="Helvetica,sans-Serif" font-size="10.00">bitset</text>
</a>
</g>
</g>
<!-- Node4&#45;&gt;Node20 -->
<g id="edge19" class="edge">
<title>Node4&#45;&gt;Node20</title>
<path fill="none" stroke="midnightblue" d="M1064.23,-56.47C1114.03,-49.03 1186.26,-37.08 1257.46,-20.14"/>
<polygon fill="midnightblue" stroke="midnightblue" points="1258.6,-23.47 1267.49,-17.72 1256.95,-16.66 1258.6,-23.47"/>
</g>
<!-- Node21 -->
<g id="node21" class="node">
<title>Node21</title>
<g id="a_node21"><a xlink:title=" ">
<polygon fill="none" stroke="#bfbfbf" points="1327,-0.5 1327,-19.5 1379,-19.5 1379,-0.5 1327,-0.5"/>
<text text-anchor="middle" x="1353" y="-7.5" font-family="Helvetica,sans-Serif" font-size="10.00">memory</text>
</a>
</g>
</g>
<!-- Node4&#45;&gt;Node21 -->
<g id="edge20" class="edge">
<title>Node4&#45;&gt;Node21</title>
<path fill="none" stroke="midnightblue" d="M1070.04,-57.59C1131.8,-50.27 1226.16,-37.84 1316.81,-20.06"/>
<polygon fill="midnightblue" stroke="midnightblue" points="1317.57,-23.48 1326.7,-18.09 1316.21,-16.61 1317.57,-23.48"/>
</g>
<!-- Node22 -->
<g id="node22" class="node">
<title>Node22</title>
<g id="a_node22"><a xlink:title=" ">
<polygon fill="none" stroke="#bfbfbf" points="1397.5,-0.5 1397.5,-19.5 1446.5,-19.5 1446.5,-0.5 1397.5,-0.5"/>
<text text-anchor="middle" x="1422" y="-7.5" font-family="Helvetica,sans-Serif" font-size="10.00">random</text>
</a>
</g>
</g>
<!-- Node4&#45;&gt;Node22 -->
<g id="edge21" class="edge">
<title>Node4&#45;&gt;Node22</title>
<path fill="none" stroke="midnightblue" d="M1070.21,-60.06C1145.28,-53.89 1270.51,-41.65 1387.38,-19.86"/>
<polygon fill="midnightblue" stroke="midnightblue" points="1388.04,-23.3 1397.21,-18 1386.73,-16.42 1388.04,-23.3"/>
</g>
<!-- Node23 -->
<g id="node23" class="node">
<title>Node23</title>
<g id="a_node23"><a xlink:title=" ">
<polygon fill="none" stroke="#bfbfbf" points="1464.5,-0.5 1464.5,-19.5 1505.5,-19.5 1505.5,-0.5 1464.5,-0.5"/>
<text text-anchor="middle" x="1485" y="-7.5" font-family="Helvetica,sans-Serif" font-size="10.00">string</text>
</a>
</g>
</g>
<!-- Node4&#45;&gt;Node23 -->
<g id="edge22" class="edge">
<title>Node4&#45;&gt;Node23</title>
<path fill="none" stroke="midnightblue" d="M1070.02,-62.57C1156.91,-58.48 1313.1,-47.94 1454.1,-20.04"/>
<polygon fill="midnightblue" stroke="midnightblue" points="1455.11,-23.41 1464.22,-18 1453.73,-16.54 1455.11,-23.41"/>
</g>
<!-- Node24 -->
<g id="node24" class="node">
<title>Node24</title>
<g id="a_node24"><a xlink:title=" ">
<polygon fill="none" stroke="#bfbfbf" points="1524,-0.5 1524,-19.5 1566,-19.5 1566,-0.5 1524,-0.5"/>
<text text-anchor="middle" x="1545" y="-7.5" font-family="Helvetica,sans-Serif" font-size="10.00">vector</text>
</a>
</g>
</g>
<!-- Node4&#45;&gt;Node24 -->
<g id="edge23" class="edge">
<title>Node4&#45;&gt;Node24</title>
<path fill="none" stroke="midnightblue" d="M1070.29,-63.45C1166.72,-60.26 1349.78,-50.63 1513.57,-19.89"/>
<polygon fill="midnightblue" stroke="midnightblue" points="1514.66,-23.25 1523.83,-17.93 1513.35,-16.37 1514.66,-23.25"/>
</g>
<!-- Node25 -->
<g id="node25" class="node">
<title>Node25</title>
<g id="a_node25"><a xlink:title=" ">
<polygon fill="none" stroke="#bfbfbf" points="1584,-0.5 1584,-19.5 1628,-19.5 1628,-0.5 1584,-0.5"/>
<text text-anchor="middle" x="1606" y="-7.5" font-family="Helvetica,sans-Serif" font-size="10.00">thread</text>
</a>
</g>
</g>
<!-- Node4&#45;&gt;Node25 -->
<g id="edge24" class="edge">
<title>Node4&#45;&gt;Node25</title>
<path fill="none" stroke="midnightblue" d="M1070.06,-64.14C1175.6,-61.82 1386.85,-53.26 1573.77,-19.86"/>
<polygon fill="midnightblue" stroke="midnightblue" points="1574.56,-23.27 1583.78,-18.04 1573.31,-16.38 1574.56,-23.27"/>
</g>
<!-- Node26 -->
<g id="node26" class="node">
<title>Node26</title>
<g id="a_node26"><a xlink:title=" ">
<polygon fill="none" stroke="#bfbfbf" points="1646,-0.5 1646,-19.5 1690,-19.5 1690,-0.5 1646,-0.5"/>
<text text-anchor="middle" x="1668" y="-7.5" font-family="Helvetica,sans-Serif" font-size="10.00">mutex</text>
</a>
</g>
</g>
<!-- Node4&#45;&gt;Node26 -->
<g id="edge25" class="edge">
<title>Node4&#45;&gt;Node26</title>
<path fill="none" stroke="midnightblue" d="M1070.21,-64.88C1184.77,-63.66 1425.12,-56.69 1635.77,-19.84"/>
<polygon fill="midnightblue" stroke="midnightblue" points="1636.55,-23.26 1645.78,-18.06 1635.32,-16.36 1636.55,-23.26"/>
</g>
<!-- Node27 -->
<g id="node27" class="node">
<title>Node27</title>
<g id="a_node27"><a xlink:title=" ">
<polygon fill="none" stroke="#bfbfbf" points="1708.5,-0.5 1708.5,-19.5 1751.5,-19.5 1751.5,-0.5 1708.5,-0.5"/>
<text text-anchor="middle" x="1730" y="-7.5" font-family="Helvetica,sans-Serif" font-size="10.00">queue</text>
</a>
</g>
</g>
<!-- Node4&#45;&gt;Node27 -->
<g id="edge26" class="edge">
<title>Node4&#45;&gt;Node27</title>
<path fill="none" stroke="midnightblue" d="M1070.28,-65.49C1193.4,-65.35 1463.12,-60.14 1698.35,-19.67"/>
<polygon fill="midnightblue" stroke="midnightblue" points="1699.21,-23.07 1708.46,-17.9 1698.01,-16.18 1699.21,-23.07"/>
</g>
<!-- Node28 -->
<g id="node28" class="node">
<title>Node28</title>
<g id="a_node28"><a xlink:title=" ">
<polygon fill="none" stroke="#bfbfbf" points="1769.5,-0.5 1769.5,-19.5 1804.5,-19.5 1804.5,-0.5 1769.5,-0.5"/>
<text text-anchor="middle" x="1787" y="-7.5" font-family="Helvetica,sans-Serif" font-size="10.00">map</text>
</a>
</g>
</g>
<!-- Node4&#45;&gt;Node28 -->
<g id="edge27" class="edge">
<title>Node4&#45;&gt;Node28</title>
<path fill="none" stroke="midnightblue" d="M1070.14,-63.37C1226.28,-59.2 1611.16,-46.7 1759.04,-19.81"/>
<polygon fill="midnightblue" stroke="midnightblue" points="1760.11,-23.17 1769.28,-17.85 1758.8,-16.3 1760.11,-23.17"/>
</g>
</g>
</svg>
