<?xml version="1.0" encoding="UTF-8" standalone="no"?>
<!DOCTYPE svg PUBLIC "-//W3C//DTD SVG 1.1//EN"
 "http://www.w3.org/Graphics/SVG/1.1/DTD/svg11.dtd">
<!-- Generated by graphviz version 2.43.0 (0)
 -->
<!-- Title: InteractionEntities.cpp Pages: 1 -->
<svg width="1862pt" height="544pt"
 viewBox="0.00 0.00 1861.50 544.00" xmlns="http://www.w3.org/2000/svg" xmlns:xlink="http://www.w3.org/1999/xlink">
<g id="graph0" class="graph" transform="scale(1 1) rotate(0) translate(4 540)">
<title>InteractionEntities.cpp</title>
<!-- Node1 -->
<g id="node1" class="node">
<title>Node1</title>
<g id="a_node1"><a xlink:title=" ">
<polygon fill="#bfbfbf" stroke="black" points="796.5,-536 670.5,-536 670.5,-517 796.5,-517 796.5,-536"/>
<text text-anchor="middle" x="733.5" y="-524" font-family="Helvetica,sans-Serif" font-size="10.00">InteractionEntities.cpp</text>
</a>
</g>
</g>
<!-- Node2 -->
<g id="node2" class="node">
<title>Node2</title>
<g id="a_node2"><a xlink:href="../../d3/d95/a00779.html" target="_top" xlink:title=" ">
<polygon fill="none" stroke="black" points="1604,-481 1461,-481 1461,-451 1604,-451 1604,-481"/>
<text text-anchor="start" x="1469" y="-469" font-family="Helvetica,sans-Serif" font-size="10.00">discordcoreapi/Interaction</text>
<text text-anchor="middle" x="1532.5" y="-458" font-family="Helvetica,sans-Serif" font-size="10.00">Entities.hpp</text>
</a>
</g>
</g>
<!-- Node1&#45;&gt;Node2 -->
<g id="edge1" class="edge">
<title>Node1&#45;&gt;Node2</title>
<path fill="none" stroke="midnightblue" d="M796.53,-520.89C939.95,-510.38 1290.61,-484.71 1450.55,-473"/>
<polygon fill="midnightblue" stroke="midnightblue" points="1451.09,-476.47 1460.81,-472.25 1450.58,-469.49 1451.09,-476.47"/>
</g>
<!-- Node29 -->
<g id="node29" class="node">
<title>Node29</title>
<g id="a_node29"><a xlink:href="../../dd/dd8/a00719.html" target="_top" xlink:title=" ">
<polygon fill="none" stroke="black" points="996.5,-305 858.5,-305 858.5,-286 996.5,-286 996.5,-305"/>
<text text-anchor="middle" x="927.5" y="-293" font-family="Helvetica,sans-Serif" font-size="10.00">discordcoreapi/Https.hpp</text>
</a>
</g>
</g>
<!-- Node1&#45;&gt;Node29 -->
<g id="edge57" class="edge">
<title>Node1&#45;&gt;Node29</title>
<path fill="none" stroke="midnightblue" d="M740.87,-516.8C769.74,-482.72 875.44,-357.96 913.62,-312.88"/>
<polygon fill="midnightblue" stroke="midnightblue" points="916.33,-315.1 920.12,-305.21 910.99,-310.57 916.33,-315.1"/>
</g>
<!-- Node31 -->
<g id="node31" class="node">
<title>Node31</title>
<g id="a_node31"><a xlink:href="../../d3/d2c/a00764.html" target="_top" xlink:title=" ">
<polygon fill="none" stroke="black" points="554.5,-195 378.5,-195 378.5,-176 554.5,-176 554.5,-195"/>
<text text-anchor="middle" x="466.5" y="-183" font-family="Helvetica,sans-Serif" font-size="10.00">discordcoreapi/EventEntities.hpp</text>
</a>
</g>
</g>
<!-- Node1&#45;&gt;Node31 -->
<g id="edge49" class="edge">
<title>Node1&#45;&gt;Node31</title>
<path fill="none" stroke="midnightblue" d="M733.5,-516.84C733.5,-497.21 733.5,-447.82 733.5,-406.5 733.5,-406.5 733.5,-406.5 733.5,-294.5 733.5,-249.22 599.85,-213.95 521.67,-197.19"/>
<polygon fill="midnightblue" stroke="midnightblue" points="522,-193.69 511.49,-195.05 520.55,-200.53 522,-193.69"/>
</g>
<!-- Node45 -->
<g id="node45" class="node">
<title>Node45</title>
<g id="a_node45"><a xlink:href="../../d4/d6a/a00704.html" target="_top" xlink:title=" ">
<polygon fill="none" stroke="black" points="688,-360 521,-360 521,-341 688,-341 688,-360"/>
<text text-anchor="middle" x="604.5" y="-348" font-family="Helvetica,sans-Serif" font-size="10.00">discordcoreapi/ThreadPool.hpp</text>
</a>
</g>
</g>
<!-- Node1&#45;&gt;Node45 -->
<g id="edge50" class="edge">
<title>Node1&#45;&gt;Node45</title>
<path fill="none" stroke="midnightblue" d="M730.41,-516.71C721.2,-490.85 693.51,-415.55 676.5,-396 664.95,-382.72 648.45,-372.13 634.16,-364.61"/>
<polygon fill="midnightblue" stroke="midnightblue" points="635.67,-361.46 625.16,-360.12 632.54,-367.72 635.67,-361.46"/>
</g>
<!-- Node47 -->
<g id="node47" class="node">
<title>Node47</title>
<g id="a_node47"><a xlink:href="../../db/d77/a00683.html" target="_top" xlink:title=" ">
<polygon fill="none" stroke="black" points="667.5,-415 505.5,-415 505.5,-396 667.5,-396 667.5,-415"/>
<text text-anchor="middle" x="586.5" y="-403" font-family="Helvetica,sans-Serif" font-size="10.00">discordcoreapi/CoRoutine.hpp</text>
</a>
</g>
</g>
<!-- Node1&#45;&gt;Node47 -->
<g id="edge54" class="edge">
<title>Node1&#45;&gt;Node47</title>
<path fill="none" stroke="midnightblue" d="M722.93,-516.94C698.26,-496.97 636.61,-447.06 605.33,-421.75"/>
<polygon fill="midnightblue" stroke="midnightblue" points="607.35,-418.87 597.37,-415.3 602.94,-424.31 607.35,-418.87"/>
</g>
<!-- Node3 -->
<g id="node3" class="node">
<title>Node3</title>
<g id="a_node3"><a xlink:href="../../d1/d87/a00689.html" target="_top" xlink:title=" ">
<polygon fill="none" stroke="black" points="1152,-140 1007,-140 1007,-110 1152,-110 1152,-140"/>
<text text-anchor="start" x="1015" y="-128" font-family="Helvetica,sans-Serif" font-size="10.00">discordcoreapi/Foundation</text>
<text text-anchor="middle" x="1079.5" y="-117" font-family="Helvetica,sans-Serif" font-size="10.00">Entities.hpp</text>
</a>
</g>
</g>
<!-- Node2&#45;&gt;Node3 -->
<g id="edge2" class="edge">
<title>Node2&#45;&gt;Node3</title>
<path fill="none" stroke="midnightblue" d="M1604.32,-459.72C1638.2,-453.65 1676.74,-441.01 1702.5,-415 1723.14,-394.16 1720.5,-380.83 1720.5,-351.5 1720.5,-351.5 1720.5,-351.5 1720.5,-239.5 1720.5,-203.3 1701.45,-193.01 1669.5,-176 1583.86,-130.39 1303.7,-124.86 1162.47,-125.1"/>
<polygon fill="midnightblue" stroke="midnightblue" points="1162.12,-121.6 1152.13,-125.13 1162.14,-128.6 1162.12,-121.6"/>
</g>
<!-- Node28 -->
<g id="node28" class="node">
<title>Node28</title>
<g id="a_node28"><a xlink:href="../../d0/d0a/a00743.html" target="_top" xlink:title=" ">
<polygon fill="none" stroke="black" points="1610.5,-360 1418.5,-360 1418.5,-341 1610.5,-341 1610.5,-360"/>
<text text-anchor="middle" x="1514.5" y="-348" font-family="Helvetica,sans-Serif" font-size="10.00">discordcoreapi/MessageEntities.hpp</text>
</a>
</g>
</g>
<!-- Node2&#45;&gt;Node28 -->
<g id="edge27" class="edge">
<title>Node2&#45;&gt;Node28</title>
<path fill="none" stroke="midnightblue" d="M1515.27,-450.73C1505.68,-441.63 1494.68,-428.96 1489.5,-415 1483.6,-399.09 1492.13,-381.1 1500.79,-368.35"/>
<polygon fill="midnightblue" stroke="midnightblue" points="1503.77,-370.2 1506.91,-360.09 1498.14,-366.04 1503.77,-370.2"/>
</g>
<!-- Node44 -->
<g id="node44" class="node">
<title>Node44</title>
<g id="a_node44"><a xlink:href="../../d2/d94/a00716.html" target="_top" xlink:title=" ">
<polygon fill="none" stroke="black" points="1693,-415 1498,-415 1498,-396 1693,-396 1693,-415"/>
<text text-anchor="middle" x="1595.5" y="-403" font-family="Helvetica,sans-Serif" font-size="10.00">discordcoreapi/WebHookEntities.hpp</text>
</a>
</g>
</g>
<!-- Node2&#45;&gt;Node44 -->
<g id="edge46" class="edge">
<title>Node2&#45;&gt;Node44</title>
<path fill="none" stroke="midnightblue" d="M1547.75,-450.84C1557.08,-442.17 1569.03,-431.08 1578.65,-422.15"/>
<polygon fill="midnightblue" stroke="midnightblue" points="1581.11,-424.64 1586.06,-415.27 1576.35,-419.51 1581.11,-424.64"/>
</g>
<!-- Node4 -->
<g id="node4" class="node">
<title>Node4</title>
<g id="a_node4"><a xlink:href="../../d4/deb/a00710.html" target="_top" xlink:title=" ">
<polygon fill="none" stroke="black" points="1154.5,-74 1004.5,-74 1004.5,-55 1154.5,-55 1154.5,-74"/>
<text text-anchor="middle" x="1079.5" y="-62" font-family="Helvetica,sans-Serif" font-size="10.00">discordcoreapi/Utilities.hpp</text>
</a>
</g>
</g>
<!-- Node3&#45;&gt;Node4 -->
<g id="edge3" class="edge">
<title>Node3&#45;&gt;Node4</title>
<path fill="none" stroke="midnightblue" d="M1079.5,-109.84C1079.5,-102.21 1079.5,-92.7 1079.5,-84.45"/>
<polygon fill="midnightblue" stroke="midnightblue" points="1083,-84.27 1079.5,-74.27 1076,-84.27 1083,-84.27"/>
</g>
<!-- Node5 -->
<g id="node5" class="node">
<title>Node5</title>
<g id="a_node5"><a xlink:title=" ">
<polygon fill="none" stroke="#bfbfbf" points="63,-19 0,-19 0,0 63,0 63,-19"/>
<text text-anchor="middle" x="31.5" y="-7" font-family="Helvetica,sans-Serif" font-size="10.00">pthread.h</text>
</a>
</g>
</g>
<!-- Node4&#45;&gt;Node5 -->
<g id="edge4" class="edge">
<title>Node4&#45;&gt;Node5</title>
<path fill="none" stroke="midnightblue" d="M1004.31,-64.28C838.04,-65.12 426.64,-62.31 73.37,-18.86"/>
<polygon fill="midnightblue" stroke="midnightblue" points="73.56,-15.36 63.2,-17.6 72.69,-22.3 73.56,-15.36"/>
</g>
<!-- Node6 -->
<g id="node6" class="node">
<title>Node6</title>
<g id="a_node6"><a xlink:title=" ">
<polygon fill="none" stroke="#bfbfbf" points="149.5,-19 81.5,-19 81.5,0 149.5,0 149.5,-19"/>
<text text-anchor="middle" x="115.5" y="-7" font-family="Helvetica,sans-Serif" font-size="10.00">sys/time.h</text>
</a>
</g>
</g>
<!-- Node4&#45;&gt;Node6 -->
<g id="edge5" class="edge">
<title>Node4&#45;&gt;Node6</title>
<path fill="none" stroke="midnightblue" d="M1004.27,-63.6C848.44,-62.99 478.98,-57.34 160.07,-18.99"/>
<polygon fill="midnightblue" stroke="midnightblue" points="160.04,-15.46 149.69,-17.73 159.2,-22.41 160.04,-15.46"/>
</g>
<!-- Node7 -->
<g id="node7" class="node">
<title>Node7</title>
<g id="a_node7"><a xlink:title=" ">
<polygon fill="none" stroke="#bfbfbf" points="215.5,-19 167.5,-19 167.5,0 215.5,0 215.5,-19"/>
<text text-anchor="middle" x="191.5" y="-7" font-family="Helvetica,sans-Serif" font-size="10.00">time.h</text>
</a>
</g>
</g>
<!-- Node4&#45;&gt;Node7 -->
<g id="edge6" class="edge">
<title>Node4&#45;&gt;Node7</title>
<path fill="none" stroke="midnightblue" d="M1004.24,-61.52C828.11,-56.56 392.09,-42.46 225.63,-18.78"/>
<polygon fill="midnightblue" stroke="midnightblue" points="225.94,-15.29 215.54,-17.28 224.91,-22.21 225.94,-15.29"/>
</g>
<!-- Node8 -->
<g id="node8" class="node">
<title>Node8</title>
<g id="a_node8"><a xlink:title=" ">
<polygon fill="none" stroke="#bfbfbf" points="277.5,-19 233.5,-19 233.5,0 277.5,0 277.5,-19"/>
<text text-anchor="middle" x="255.5" y="-7" font-family="Helvetica,sans-Serif" font-size="10.00">ctime</text>
</a>
</g>
</g>
<!-- Node4&#45;&gt;Node8 -->
<g id="edge7" class="edge">
<title>Node4&#45;&gt;Node8</title>
<path fill="none" stroke="midnightblue" d="M1004.36,-61.31C837.95,-56.15 441.6,-41.99 287.93,-18.81"/>
<polygon fill="midnightblue" stroke="midnightblue" points="288.15,-15.3 277.73,-17.2 287.06,-22.22 288.15,-15.3"/>
</g>
<!-- Node9 -->
<g id="node9" class="node">
<title>Node9</title>
<g id="a_node9"><a xlink:title=" ">
<polygon fill="none" stroke="#bfbfbf" points="403,-19 296,-19 296,0 403,0 403,-19"/>
<text text-anchor="middle" x="349.5" y="-7" font-family="Helvetica,sans-Serif" font-size="10.00">condition_variable</text>
</a>
</g>
</g>
<!-- Node4&#45;&gt;Node9 -->
<g id="edge8" class="edge">
<title>Node4&#45;&gt;Node9</title>
<path fill="none" stroke="midnightblue" d="M1004.34,-60.14C882.56,-54.34 634.36,-40.98 413.26,-19"/>
<polygon fill="midnightblue" stroke="midnightblue" points="413.39,-15.5 403.09,-17.98 412.69,-22.46 413.39,-15.5"/>
</g>
<!-- Node10 -->
<g id="node10" class="node">
<title>Node10</title>
<g id="a_node10"><a xlink:title=" ">
<polygon fill="none" stroke="#bfbfbf" points="531.5,-19 421.5,-19 421.5,0 531.5,0 531.5,-19"/>
<text text-anchor="middle" x="476.5" y="-7" font-family="Helvetica,sans-Serif" font-size="10.00">nlohmann/json.hpp</text>
</a>
</g>
</g>
<!-- Node4&#45;&gt;Node10 -->
<g id="edge9" class="edge">
<title>Node4&#45;&gt;Node10</title>
<path fill="none" stroke="midnightblue" d="M1004.4,-58.48C902.13,-51.39 713.11,-37.33 541.6,-19.07"/>
<polygon fill="midnightblue" stroke="midnightblue" points="541.95,-15.59 531.64,-18 541.21,-22.55 541.95,-15.59"/>
</g>
<!-- Node11 -->
<g id="node11" class="node">
<title>Node11</title>
<g id="a_node11"><a xlink:title=" ">
<polygon fill="none" stroke="#bfbfbf" points="643,-19 550,-19 550,0 643,0 643,-19"/>
<text text-anchor="middle" x="596.5" y="-7" font-family="Helvetica,sans-Serif" font-size="10.00">source_location</text>
</a>
</g>
</g>
<!-- Node4&#45;&gt;Node11 -->
<g id="edge10" class="edge">
<title>Node4&#45;&gt;Node11</title>
<path fill="none" stroke="midnightblue" d="M1004.37,-56.83C920.98,-49.17 782.13,-35.64 653.33,-19.18"/>
<polygon fill="midnightblue" stroke="midnightblue" points="653.65,-15.7 643.29,-17.89 652.76,-22.64 653.65,-15.7"/>
</g>
<!-- Node12 -->
<g id="node12" class="node">
<title>Node12</title>
<g id="a_node12"><a xlink:title=" ">
<polygon fill="none" stroke="#bfbfbf" points="754,-19 661,-19 661,0 754,0 754,-19"/>
<text text-anchor="middle" x="707.5" y="-7" font-family="Helvetica,sans-Serif" font-size="10.00">unordered_map</text>
</a>
</g>
</g>
<!-- Node4&#45;&gt;Node12 -->
<g id="edge11" class="edge">
<title>Node4&#45;&gt;Node12</title>
<path fill="none" stroke="midnightblue" d="M1017.71,-55C956.17,-46.49 858.7,-32.88 764.26,-19.1"/>
<polygon fill="midnightblue" stroke="midnightblue" points="764.65,-15.62 754.25,-17.63 763.63,-22.54 764.65,-15.62"/>
</g>
<!-- Node13 -->
<g id="node13" class="node">
<title>Node13</title>
<g id="a_node13"><a xlink:title=" ">
<polygon fill="none" stroke="#bfbfbf" points="858.5,-19 772.5,-19 772.5,0 858.5,0 858.5,-19"/>
<text text-anchor="middle" x="815.5" y="-7" font-family="Helvetica,sans-Serif" font-size="10.00">shared_mutex</text>
</a>
</g>
</g>
<!-- Node4&#45;&gt;Node13 -->
<g id="edge12" class="edge">
<title>Node4&#45;&gt;Node13</title>
<path fill="none" stroke="midnightblue" d="M1037.08,-54.98C991.13,-45.76 917.75,-31.03 868.15,-21.07"/>
<polygon fill="midnightblue" stroke="midnightblue" points="868.74,-17.62 858.25,-19.08 867.36,-24.48 868.74,-17.62"/>
</g>
<!-- Node14 -->
<g id="node14" class="node">
<title>Node14</title>
<g id="a_node14"><a xlink:title=" ">
<polygon fill="none" stroke="#bfbfbf" points="942,-19 877,-19 877,0 942,0 942,-19"/>
<text text-anchor="middle" x="909.5" y="-7" font-family="Helvetica,sans-Serif" font-size="10.00">functional</text>
</a>
</g>
</g>
<!-- Node4&#45;&gt;Node14 -->
<g id="edge13" class="edge">
<title>Node4&#45;&gt;Node14</title>
<path fill="none" stroke="midnightblue" d="M1052.19,-54.98C1023.65,-46.09 978.67,-32.07 946.86,-22.15"/>
<polygon fill="midnightblue" stroke="midnightblue" points="947.62,-18.72 937.03,-19.08 945.53,-25.4 947.62,-18.72"/>
</g>
<!-- Node15 -->
<g id="node15" class="node">
<title>Node15</title>
<g id="a_node15"><a xlink:title=" ">
<polygon fill="none" stroke="#bfbfbf" points="1031,-19 960,-19 960,0 1031,0 1031,-19"/>
<text text-anchor="middle" x="995.5" y="-7" font-family="Helvetica,sans-Serif" font-size="10.00">semaphore</text>
</a>
</g>
</g>
<!-- Node4&#45;&gt;Node15 -->
<g id="edge14" class="edge">
<title>Node4&#45;&gt;Node15</title>
<path fill="none" stroke="midnightblue" d="M1066,-54.98C1053.1,-46.84 1033.4,-34.41 1018.1,-24.76"/>
<polygon fill="midnightblue" stroke="midnightblue" points="1019.57,-21.55 1009.24,-19.17 1015.83,-27.47 1019.57,-21.55"/>
</g>
<!-- Node16 -->
<g id="node16" class="node">
<title>Node16</title>
<g id="a_node16"><a xlink:title=" ">
<polygon fill="none" stroke="#bfbfbf" points="1109.5,-19 1049.5,-19 1049.5,0 1109.5,0 1109.5,-19"/>
<text text-anchor="middle" x="1079.5" y="-7" font-family="Helvetica,sans-Serif" font-size="10.00">concepts</text>
</a>
</g>
</g>
<!-- Node4&#45;&gt;Node16 -->
<g id="edge15" class="edge">
<title>Node4&#45;&gt;Node16</title>
<path fill="none" stroke="midnightblue" d="M1079.5,-54.75C1079.5,-47.8 1079.5,-37.85 1079.5,-29.13"/>
<polygon fill="midnightblue" stroke="midnightblue" points="1083,-29.09 1079.5,-19.09 1076,-29.09 1083,-29.09"/>
</g>
<!-- Node17 -->
<g id="node17" class="node">
<title>Node17</title>
<g id="a_node17"><a xlink:title=" ">
<polygon fill="none" stroke="#bfbfbf" points="1187.5,-19 1127.5,-19 1127.5,0 1187.5,0 1187.5,-19"/>
<text text-anchor="middle" x="1157.5" y="-7" font-family="Helvetica,sans-Serif" font-size="10.00">iostream</text>
</a>
</g>
</g>
<!-- Node4&#45;&gt;Node17 -->
<g id="edge16" class="edge">
<title>Node4&#45;&gt;Node17</title>
<path fill="none" stroke="midnightblue" d="M1092.03,-54.98C1103.9,-46.92 1121.96,-34.65 1136.11,-25.03"/>
<polygon fill="midnightblue" stroke="midnightblue" points="1138.44,-27.69 1144.74,-19.17 1134.5,-21.9 1138.44,-27.69"/>
</g>
<!-- Node18 -->
<g id="node18" class="node">
<title>Node18</title>
<g id="a_node18"><a xlink:title=" ">
<polygon fill="none" stroke="#bfbfbf" points="1261,-19 1206,-19 1206,0 1261,0 1261,-19"/>
<text text-anchor="middle" x="1233.5" y="-7" font-family="Helvetica,sans-Serif" font-size="10.00">fstream</text>
</a>
</g>
</g>
<!-- Node4&#45;&gt;Node18 -->
<g id="edge17" class="edge">
<title>Node4&#45;&gt;Node18</title>
<path fill="none" stroke="midnightblue" d="M1104.24,-54.98C1129.87,-46.16 1170.13,-32.31 1198.91,-22.41"/>
<polygon fill="midnightblue" stroke="midnightblue" points="1200.25,-25.65 1208.56,-19.08 1197.97,-19.03 1200.25,-25.65"/>
</g>
<!-- Node19 -->
<g id="node19" class="node">
<title>Node19</title>
<g id="a_node19"><a xlink:title=" ">
<polygon fill="none" stroke="#bfbfbf" points="1323.5,-19 1279.5,-19 1279.5,0 1323.5,0 1323.5,-19"/>
<text text-anchor="middle" x="1301.5" y="-7" font-family="Helvetica,sans-Serif" font-size="10.00">bitset</text>
</a>
</g>
</g>
<!-- Node4&#45;&gt;Node19 -->
<g id="edge18" class="edge">
<title>Node4&#45;&gt;Node19</title>
<path fill="none" stroke="midnightblue" d="M1117.43,-54.96C1155.84,-46.24 1216.91,-32.14 1269.5,-19 1269.6,-18.97 1269.7,-18.95 1269.8,-18.92"/>
<polygon fill="midnightblue" stroke="midnightblue" points="1270.67,-22.31 1279.49,-16.44 1268.93,-15.53 1270.67,-22.31"/>
</g>
<!-- Node20 -->
<g id="node20" class="node">
<title>Node20</title>
<g id="a_node20"><a xlink:title=" ">
<polygon fill="none" stroke="#bfbfbf" points="1399.5,-19 1341.5,-19 1341.5,0 1399.5,0 1399.5,-19"/>
<text text-anchor="middle" x="1370.5" y="-7" font-family="Helvetica,sans-Serif" font-size="10.00">memory</text>
</a>
</g>
</g>
<!-- Node4&#45;&gt;Node20 -->
<g id="edge19" class="edge">
<title>Node4&#45;&gt;Node20</title>
<path fill="none" stroke="midnightblue" d="M1131.96,-55C1181.02,-46.88 1256.56,-33.97 1331.41,-19.14"/>
<polygon fill="midnightblue" stroke="midnightblue" points="1332.36,-22.52 1341.48,-17.13 1330.99,-15.66 1332.36,-22.52"/>
</g>
<!-- Node21 -->
<g id="node21" class="node">
<title>Node21</title>
<g id="a_node21"><a xlink:title=" ">
<polygon fill="none" stroke="#bfbfbf" points="1471.5,-19 1417.5,-19 1417.5,0 1471.5,0 1471.5,-19"/>
<text text-anchor="middle" x="1444.5" y="-7" font-family="Helvetica,sans-Serif" font-size="10.00">random</text>
</a>
</g>
</g>
<!-- Node4&#45;&gt;Node21 -->
<g id="edge20" class="edge">
<title>Node4&#45;&gt;Node21</title>
<path fill="none" stroke="midnightblue" d="M1154.64,-55.45C1219.18,-48.05 1314.91,-35.92 1407.34,-19.05"/>
<polygon fill="midnightblue" stroke="midnightblue" points="1408.24,-22.45 1417.43,-17.19 1406.96,-15.56 1408.24,-22.45"/>
</g>
<!-- Node22 -->
<g id="node22" class="node">
<title>Node22</title>
<g id="a_node22"><a xlink:title=" ">
<polygon fill="none" stroke="#bfbfbf" points="1533.5,-19 1489.5,-19 1489.5,0 1533.5,0 1533.5,-19"/>
<text text-anchor="middle" x="1511.5" y="-7" font-family="Helvetica,sans-Serif" font-size="10.00">string</text>
</a>
</g>
</g>
<!-- Node4&#45;&gt;Node22 -->
<g id="edge21" class="edge">
<title>Node4&#45;&gt;Node22</title>
<path fill="none" stroke="midnightblue" d="M1154.67,-58.7C1233.43,-52.87 1360.82,-41.19 1479.28,-18.95"/>
<polygon fill="midnightblue" stroke="midnightblue" points="1480.08,-22.36 1489.25,-17.05 1478.77,-15.49 1480.08,-22.36"/>
</g>
<!-- Node23 -->
<g id="node23" class="node">
<title>Node23</title>
<g id="a_node23"><a xlink:title=" ">
<polygon fill="none" stroke="#bfbfbf" points="1599,-19 1552,-19 1552,0 1599,0 1599,-19"/>
<text text-anchor="middle" x="1575.5" y="-7" font-family="Helvetica,sans-Serif" font-size="10.00">vector</text>
</a>
</g>
</g>
<!-- Node4&#45;&gt;Node23 -->
<g id="edge22" class="edge">
<title>Node4&#45;&gt;Node23</title>
<path fill="none" stroke="midnightblue" d="M1154.56,-59.9C1244.39,-54.78 1399.42,-43.38 1541.59,-18.86"/>
<polygon fill="midnightblue" stroke="midnightblue" points="1542.56,-22.25 1551.8,-17.08 1541.35,-15.35 1542.56,-22.25"/>
</g>
<!-- Node24 -->
<g id="node24" class="node">
<title>Node24</title>
<g id="a_node24"><a xlink:title=" ">
<polygon fill="none" stroke="#bfbfbf" points="1665.5,-19 1617.5,-19 1617.5,0 1665.5,0 1665.5,-19"/>
<text text-anchor="middle" x="1641.5" y="-7" font-family="Helvetica,sans-Serif" font-size="10.00">thread</text>
</a>
</g>
</g>
<!-- Node4&#45;&gt;Node24 -->
<g id="edge23" class="edge">
<title>Node4&#45;&gt;Node24</title>
<path fill="none" stroke="midnightblue" d="M1154.9,-61.14C1255.96,-57.1 1440.94,-46.58 1607.52,-18.87"/>
<polygon fill="midnightblue" stroke="midnightblue" points="1608.17,-22.31 1617.45,-17.19 1607.01,-15.41 1608.17,-22.31"/>
</g>
<!-- Node25 -->
<g id="node25" class="node">
<title>Node25</title>
<g id="a_node25"><a xlink:title=" ">
<polygon fill="none" stroke="#bfbfbf" points="1731.5,-19 1683.5,-19 1683.5,0 1731.5,0 1731.5,-19"/>
<text text-anchor="middle" x="1707.5" y="-7" font-family="Helvetica,sans-Serif" font-size="10.00">mutex</text>
</a>
</g>
</g>
<!-- Node4&#45;&gt;Node25 -->
<g id="edge24" class="edge">
<title>Node4&#45;&gt;Node25</title>
<path fill="none" stroke="midnightblue" d="M1154.68,-62.14C1266.12,-59.19 1481.72,-49.86 1673.47,-18.86"/>
<polygon fill="midnightblue" stroke="midnightblue" points="1674.15,-22.29 1683.45,-17.22 1673.02,-15.38 1674.15,-22.29"/>
</g>
<!-- Node26 -->
<g id="node26" class="node">
<title>Node26</title>
<g id="a_node26"><a xlink:title=" ">
<polygon fill="none" stroke="#bfbfbf" points="1797,-19 1750,-19 1750,0 1797,0 1797,-19"/>
<text text-anchor="middle" x="1773.5" y="-7" font-family="Helvetica,sans-Serif" font-size="10.00">queue</text>
</a>
</g>
</g>
<!-- Node4&#45;&gt;Node26 -->
<g id="edge25" class="edge">
<title>Node4&#45;&gt;Node26</title>
<path fill="none" stroke="midnightblue" d="M1154.85,-62.94C1276.23,-61.05 1522.54,-53.12 1739.82,-18.76"/>
<polygon fill="midnightblue" stroke="midnightblue" points="1740.5,-22.2 1749.82,-17.16 1739.39,-15.29 1740.5,-22.2"/>
</g>
<!-- Node27 -->
<g id="node27" class="node">
<title>Node27</title>
<g id="a_node27"><a xlink:title=" ">
<polygon fill="none" stroke="#bfbfbf" points="1853.5,-19 1815.5,-19 1815.5,0 1853.5,0 1853.5,-19"/>
<text text-anchor="middle" x="1834.5" y="-7" font-family="Helvetica,sans-Serif" font-size="10.00">map</text>
</a>
</g>
</g>
<!-- Node4&#45;&gt;Node27 -->
<g id="edge26" class="edge">
<title>Node4&#45;&gt;Node27</title>
<path fill="none" stroke="midnightblue" d="M1154.66,-61.13C1310.48,-55.85 1665.18,-41.9 1805.26,-18.71"/>
<polygon fill="midnightblue" stroke="midnightblue" points="1806.11,-22.12 1815.36,-16.95 1804.91,-15.22 1806.11,-22.12"/>
</g>
<!-- Node28&#45;&gt;Node3 -->
<g id="edge28" class="edge">
<title>Node28&#45;&gt;Node3</title>
<path fill="none" stroke="midnightblue" d="M1527.74,-340.85C1566.94,-314.23 1676.6,-232 1625.5,-176 1594.93,-142.51 1307.36,-131.17 1162.32,-127.57"/>
<polygon fill="midnightblue" stroke="midnightblue" points="1162.21,-124.06 1152.13,-127.32 1162.04,-131.06 1162.21,-124.06"/>
</g>
<!-- Node28&#45;&gt;Node29 -->
<g id="edge29" class="edge">
<title>Node28&#45;&gt;Node29</title>
<path fill="none" stroke="midnightblue" d="M1420.19,-340.98C1305.59,-330.64 1114.29,-313.37 1006.89,-303.67"/>
<polygon fill="midnightblue" stroke="midnightblue" points="1007.04,-300.17 996.77,-302.75 1006.41,-307.14 1007.04,-300.17"/>
</g>
<!-- Node30 -->
<g id="node30" class="node">
<title>Node30</title>
<g id="a_node30"><a xlink:href="../../dd/d5c/a00752.html" target="_top" xlink:title=" ">
<polygon fill="none" stroke="black" points="1106,-250 943,-250 943,-231 1106,-231 1106,-250"/>
<text text-anchor="middle" x="1024.5" y="-238" font-family="Helvetica,sans-Serif" font-size="10.00">discordcoreapi/SSLClients.hpp</text>
</a>
</g>
</g>
<!-- Node29&#45;&gt;Node30 -->
<g id="edge30" class="edge">
<title>Node29&#45;&gt;Node30</title>
<path fill="none" stroke="midnightblue" d="M943.08,-285.98C958.27,-277.69 981.6,-264.94 999.4,-255.22"/>
<polygon fill="midnightblue" stroke="midnightblue" points="1001.53,-258.04 1008.63,-250.17 998.18,-251.89 1001.53,-258.04"/>
</g>
<!-- Node30&#45;&gt;Node3 -->
<g id="edge31" class="edge">
<title>Node30&#45;&gt;Node3</title>
<path fill="none" stroke="midnightblue" d="M1033.14,-230.68C1041.03,-222.18 1052.5,-208.64 1059.5,-195 1066.74,-180.9 1071.72,-163.81 1074.9,-150.16"/>
<polygon fill="midnightblue" stroke="midnightblue" points="1078.38,-150.59 1077.07,-140.07 1071.54,-149.11 1078.38,-150.59"/>
</g>
<!-- Node30&#45;&gt;Node31 -->
<g id="edge32" class="edge">
<title>Node30&#45;&gt;Node31</title>
<path fill="none" stroke="midnightblue" d="M942.76,-231.74C842.47,-222.21 672.55,-206.07 565.11,-195.87"/>
<polygon fill="midnightblue" stroke="midnightblue" points="565.2,-192.36 554.91,-194.9 564.53,-199.33 565.2,-192.36"/>
</g>
<!-- Node32 -->
<g id="node32" class="node">
<title>Node32</title>
<g id="a_node32"><a xlink:title=" ">
<polygon fill="none" stroke="#bfbfbf" points="816,-195 737,-195 737,-176 816,-176 816,-195"/>
<text text-anchor="middle" x="776.5" y="-183" font-family="Helvetica,sans-Serif" font-size="10.00">openssl/err.h</text>
</a>
</g>
</g>
<!-- Node30&#45;&gt;Node32 -->
<g id="edge34" class="edge">
<title>Node30&#45;&gt;Node32</title>
<path fill="none" stroke="midnightblue" d="M984.65,-230.98C941.54,-221.77 872.72,-207.06 826.13,-197.11"/>
<polygon fill="midnightblue" stroke="midnightblue" points="826.76,-193.66 816.25,-194.99 825.29,-200.51 826.76,-193.66"/>
</g>
<!-- Node33 -->
<g id="node33" class="node">
<title>Node33</title>
<g id="a_node33"><a xlink:title=" ">
<polygon fill="none" stroke="#bfbfbf" points="914.5,-195 834.5,-195 834.5,-176 914.5,-176 914.5,-195"/>
<text text-anchor="middle" x="874.5" y="-183" font-family="Helvetica,sans-Serif" font-size="10.00">openssl/ssl.h</text>
</a>
</g>
</g>
<!-- Node30&#45;&gt;Node33 -->
<g id="edge35" class="edge">
<title>Node30&#45;&gt;Node33</title>
<path fill="none" stroke="midnightblue" d="M1000.4,-230.98C975.62,-222.23 936.8,-208.51 908.81,-198.62"/>
<polygon fill="midnightblue" stroke="midnightblue" points="909.63,-195.2 899.04,-195.17 907.3,-201.8 909.63,-195.2"/>
</g>
<!-- Node34 -->
<g id="node34" class="node">
<title>Node34</title>
<g id="a_node34"><a xlink:title=" ">
<polygon fill="none" stroke="#bfbfbf" points="980,-195 933,-195 933,-176 980,-176 980,-195"/>
<text text-anchor="middle" x="956.5" y="-183" font-family="Helvetica,sans-Serif" font-size="10.00">fcntl.h</text>
</a>
</g>
</g>
<!-- Node30&#45;&gt;Node34 -->
<g id="edge36" class="edge">
<title>Node30&#45;&gt;Node34</title>
<path fill="none" stroke="midnightblue" d="M1013.57,-230.98C1003.42,-223.07 988.08,-211.11 975.85,-201.58"/>
<polygon fill="midnightblue" stroke="midnightblue" points="977.66,-198.56 967.62,-195.17 973.36,-204.08 977.66,-198.56"/>
</g>
<!-- Node35 -->
<g id="node35" class="node">
<title>Node35</title>
<g id="a_node35"><a xlink:title=" ">
<polygon fill="none" stroke="#bfbfbf" points="1051,-195 998,-195 998,-176 1051,-176 1051,-195"/>
<text text-anchor="middle" x="1024.5" y="-183" font-family="Helvetica,sans-Serif" font-size="10.00">netdb.h</text>
</a>
</g>
</g>
<!-- Node30&#45;&gt;Node35 -->
<g id="edge37" class="edge">
<title>Node30&#45;&gt;Node35</title>
<path fill="none" stroke="midnightblue" d="M1024.5,-230.75C1024.5,-223.8 1024.5,-213.85 1024.5,-205.13"/>
<polygon fill="midnightblue" stroke="midnightblue" points="1028,-205.09 1024.5,-195.09 1021,-205.09 1028,-205.09"/>
</g>
<!-- Node36 -->
<g id="node36" class="node">
<title>Node36</title>
<g id="a_node36"><a xlink:title=" ">
<polygon fill="none" stroke="#bfbfbf" points="1179.5,-195 1107.5,-195 1107.5,-176 1179.5,-176 1179.5,-195"/>
<text text-anchor="middle" x="1143.5" y="-183" font-family="Helvetica,sans-Serif" font-size="10.00">netinet/in.h</text>
</a>
</g>
</g>
<!-- Node30&#45;&gt;Node36 -->
<g id="edge38" class="edge">
<title>Node30&#45;&gt;Node36</title>
<path fill="none" stroke="midnightblue" d="M1043.62,-230.98C1062.85,-222.42 1092.73,-209.11 1114.81,-199.28"/>
<polygon fill="midnightblue" stroke="midnightblue" points="1116.32,-202.44 1124.03,-195.17 1113.47,-196.04 1116.32,-202.44"/>
</g>
<!-- Node37 -->
<g id="node37" class="node">
<title>Node37</title>
<g id="a_node37"><a xlink:title=" ">
<polygon fill="none" stroke="#bfbfbf" points="1275.5,-195 1197.5,-195 1197.5,-176 1275.5,-176 1275.5,-195"/>
<text text-anchor="middle" x="1236.5" y="-183" font-family="Helvetica,sans-Serif" font-size="10.00">netinet/tcp.h</text>
</a>
</g>
</g>
<!-- Node30&#45;&gt;Node37 -->
<g id="edge39" class="edge">
<title>Node30&#45;&gt;Node37</title>
<path fill="none" stroke="midnightblue" d="M1058.56,-230.98C1094.92,-221.89 1152.67,-207.46 1192.47,-197.51"/>
<polygon fill="midnightblue" stroke="midnightblue" points="1193.32,-200.9 1202.17,-195.08 1191.62,-194.11 1193.32,-200.9"/>
</g>
<!-- Node38 -->
<g id="node38" class="node">
<title>Node38</title>
<g id="a_node38"><a xlink:title=" ">
<polygon fill="none" stroke="#bfbfbf" points="1347,-195 1294,-195 1294,-176 1347,-176 1347,-195"/>
<text text-anchor="middle" x="1320.5" y="-183" font-family="Helvetica,sans-Serif" font-size="10.00">stdint.h</text>
</a>
</g>
</g>
<!-- Node30&#45;&gt;Node38 -->
<g id="edge40" class="edge">
<title>Node30&#45;&gt;Node38</title>
<path fill="none" stroke="midnightblue" d="M1080.22,-230.99C1130.73,-223.05 1207.44,-210.41 1283.56,-195.08"/>
<polygon fill="midnightblue" stroke="midnightblue" points="1284.7,-198.42 1293.8,-193 1283.31,-191.56 1284.7,-198.42"/>
</g>
<!-- Node39 -->
<g id="node39" class="node">
<title>Node39</title>
<g id="a_node39"><a xlink:title=" ">
<polygon fill="none" stroke="#bfbfbf" points="1434,-195 1365,-195 1365,-176 1434,-176 1434,-195"/>
<text text-anchor="middle" x="1399.5" y="-183" font-family="Helvetica,sans-Serif" font-size="10.00">sys/epoll.h</text>
</a>
</g>
</g>
<!-- Node30&#45;&gt;Node39 -->
<g id="edge41" class="edge">
<title>Node30&#45;&gt;Node39</title>
<path fill="none" stroke="midnightblue" d="M1097,-230.96C1161.88,-223.05 1259.83,-210.42 1354.87,-195.01"/>
<polygon fill="midnightblue" stroke="midnightblue" points="1355.64,-198.43 1364.95,-193.37 1354.51,-191.53 1355.64,-198.43"/>
</g>
<!-- Node40 -->
<g id="node40" class="node">
<title>Node40</title>
<g id="a_node40"><a xlink:title=" ">
<polygon fill="none" stroke="#bfbfbf" points="1521,-195 1452,-195 1452,-176 1521,-176 1521,-195"/>
<text text-anchor="middle" x="1486.5" y="-183" font-family="Helvetica,sans-Serif" font-size="10.00">arpa/inet.h</text>
</a>
</g>
</g>
<!-- Node30&#45;&gt;Node40 -->
<g id="edge42" class="edge">
<title>Node30&#45;&gt;Node40</title>
<path fill="none" stroke="midnightblue" d="M1106.28,-232.99C1188.7,-225.94 1319.74,-213.37 1441.91,-195.13"/>
<polygon fill="midnightblue" stroke="midnightblue" points="1442.45,-198.59 1451.81,-193.63 1441.4,-191.66 1442.45,-198.59"/>
</g>
<!-- Node41 -->
<g id="node41" class="node">
<title>Node41</title>
<g id="a_node41"><a xlink:title=" ">
<polygon fill="none" stroke="#bfbfbf" points="1616,-195 1539,-195 1539,-176 1616,-176 1616,-195"/>
<text text-anchor="middle" x="1577.5" y="-183" font-family="Helvetica,sans-Serif" font-size="10.00">sys/socket.h</text>
</a>
</g>
</g>
<!-- Node30&#45;&gt;Node41 -->
<g id="edge43" class="edge">
<title>Node30&#45;&gt;Node41</title>
<path fill="none" stroke="midnightblue" d="M1106.26,-234.61C1204.35,-228.23 1373.99,-215.55 1528.65,-195.14"/>
<polygon fill="midnightblue" stroke="midnightblue" points="1529.37,-198.58 1538.82,-193.78 1528.44,-191.64 1529.37,-198.58"/>
</g>
<!-- Node42 -->
<g id="node42" class="node">
<title>Node42</title>
<g id="a_node42"><a xlink:title=" ">
<polygon fill="none" stroke="#bfbfbf" points="644.5,-195 572.5,-195 572.5,-176 644.5,-176 644.5,-195"/>
<text text-anchor="middle" x="608.5" y="-183" font-family="Helvetica,sans-Serif" font-size="10.00">sys/types.h</text>
</a>
</g>
</g>
<!-- Node30&#45;&gt;Node42 -->
<g id="edge44" class="edge">
<title>Node30&#45;&gt;Node42</title>
<path fill="none" stroke="midnightblue" d="M942.86,-231.3C869.9,-223.61 759.85,-211.11 654.95,-195.13"/>
<polygon fill="midnightblue" stroke="midnightblue" points="655.23,-191.64 644.81,-193.58 654.17,-198.55 655.23,-191.64"/>
</g>
<!-- Node43 -->
<g id="node43" class="node">
<title>Node43</title>
<g id="a_node43"><a xlink:title=" ">
<polygon fill="none" stroke="#bfbfbf" points="718.5,-195 662.5,-195 662.5,-176 718.5,-176 718.5,-195"/>
<text text-anchor="middle" x="690.5" y="-183" font-family="Helvetica,sans-Serif" font-size="10.00">unistd.h</text>
</a>
</g>
</g>
<!-- Node30&#45;&gt;Node43 -->
<g id="edge45" class="edge">
<title>Node30&#45;&gt;Node43</title>
<path fill="none" stroke="midnightblue" d="M957.61,-230.98C899.55,-223.24 813.03,-210.89 728.73,-195.11"/>
<polygon fill="midnightblue" stroke="midnightblue" points="729.21,-191.64 718.73,-193.22 727.91,-198.52 729.21,-191.64"/>
</g>
<!-- Node31&#45;&gt;Node3 -->
<g id="edge33" class="edge">
<title>Node31&#45;&gt;Node3</title>
<path fill="none" stroke="midnightblue" d="M554.65,-176.09C672.84,-164.81 881.12,-144.93 996.58,-133.91"/>
<polygon fill="midnightblue" stroke="midnightblue" points="997.15,-137.37 1006.78,-132.94 996.49,-130.41 997.15,-137.37"/>
</g>
<!-- Node44&#45;&gt;Node3 -->
<g id="edge47" class="edge">
<title>Node44&#45;&gt;Node3</title>
<path fill="none" stroke="midnightblue" d="M1609.87,-395.79C1634.58,-379.58 1682.5,-342.25 1682.5,-296.5 1682.5,-296.5 1682.5,-296.5 1682.5,-239.5 1682.5,-206.61 1672.37,-193.47 1644.5,-176 1604.65,-151.02 1309.63,-135.48 1162.48,-129.2"/>
<polygon fill="midnightblue" stroke="midnightblue" points="1162.28,-125.69 1152.14,-128.76 1161.99,-132.68 1162.28,-125.69"/>
</g>
<!-- Node44&#45;&gt;Node28 -->
<g id="edge48" class="edge">
<title>Node44&#45;&gt;Node28</title>
<path fill="none" stroke="midnightblue" d="M1582.49,-395.98C1570.04,-387.84 1551.04,-375.41 1536.29,-365.76"/>
<polygon fill="midnightblue" stroke="midnightblue" points="1538.04,-362.72 1527.75,-360.17 1534.2,-368.57 1538.04,-362.72"/>
</g>
<!-- Node45&#45;&gt;Node3 -->
<g id="edge51" class="edge">
<title>Node45&#45;&gt;Node3</title>
<path fill="none" stroke="midnightblue" d="M572.96,-340.98C493.84,-318.2 298.27,-252.42 369.5,-176 411.5,-130.94 818.74,-125.74 996.83,-125.64"/>
<polygon fill="midnightblue" stroke="midnightblue" points="996.94,-129.14 1006.94,-125.64 996.94,-122.14 996.94,-129.14"/>
</g>
<!-- Node45&#45;&gt;Node29 -->
<g id="edge52" class="edge">
<title>Node45&#45;&gt;Node29</title>
<path fill="none" stroke="midnightblue" d="M656.4,-340.98C713.29,-331.65 804.55,-316.67 865.25,-306.71"/>
<polygon fill="midnightblue" stroke="midnightblue" points="866.16,-310.11 875.47,-305.04 865.03,-303.2 866.16,-310.11"/>
</g>
<!-- Node46 -->
<g id="node46" class="node">
<title>Node46</title>
<g id="a_node46"><a xlink:title=" ">
<polygon fill="none" stroke="#bfbfbf" points="635.5,-305 573.5,-305 573.5,-286 635.5,-286 635.5,-305"/>
<text text-anchor="middle" x="604.5" y="-293" font-family="Helvetica,sans-Serif" font-size="10.00">coroutine</text>
</a>
</g>
</g>
<!-- Node45&#45;&gt;Node46 -->
<g id="edge53" class="edge">
<title>Node45&#45;&gt;Node46</title>
<path fill="none" stroke="midnightblue" d="M604.5,-340.75C604.5,-333.8 604.5,-323.85 604.5,-315.13"/>
<polygon fill="midnightblue" stroke="midnightblue" points="608,-315.09 604.5,-305.09 601,-315.09 608,-315.09"/>
</g>
<!-- Node47&#45;&gt;Node3 -->
<g id="edge55" class="edge">
<title>Node47&#45;&gt;Node3</title>
<path fill="none" stroke="midnightblue" d="M539.4,-395.99C461.06,-380.47 312.5,-344.69 312.5,-296.5 312.5,-296.5 312.5,-296.5 312.5,-239.5 312.5,-205.91 324.57,-193.07 353.5,-176 407.74,-144 817.86,-131.51 996.63,-127.56"/>
<polygon fill="midnightblue" stroke="midnightblue" points="996.85,-131.05 1006.77,-127.34 996.7,-124.06 996.85,-131.05"/>
</g>
<!-- Node47&#45;&gt;Node45 -->
<g id="edge56" class="edge">
<title>Node47&#45;&gt;Node45</title>
<path fill="none" stroke="midnightblue" d="M589.47,-395.75C591.86,-388.72 595.29,-378.62 598.27,-369.84"/>
<polygon fill="midnightblue" stroke="midnightblue" points="601.68,-370.68 601.58,-360.09 595.05,-368.43 601.68,-370.68"/>
</g>
</g>
</svg>
