<?xml version="1.0" encoding="UTF-8" standalone="no"?>
<!DOCTYPE svg PUBLIC "-//W3C//DTD SVG 1.1//EN"
 "http://www.w3.org/Graphics/SVG/1.1/DTD/svg11.dtd">
<!-- Generated by graphviz version 2.43.0 (0)
 -->
<!-- Title: DiscordCoreAPI::WebHookData Pages: 1 -->
<svg width="175pt" height="137pt"
 viewBox="0.00 0.00 175.00 137.00" xmlns="http://www.w3.org/2000/svg" xmlns:xlink="http://www.w3.org/1999/xlink">
<g id="graph0" class="graph" transform="scale(1 1) rotate(0) translate(4 133)">
<title>DiscordCoreAPI::WebHookData</title>
<!-- Node1 -->
<g id="node1" class="node">
<title>Node1</title>
<g id="a_node1"><a xlink:title="WebHook data.">
<polygon fill="#bfbfbf" stroke="black" points="167,-74 0,-74 0,-55 167,-55 167,-74"/>
<text text-anchor="middle" x="83.5" y="-62" font-family="Helvetica,sans-Serif" font-size="10.00">DiscordCoreAPI::WebHookData</text>
</a>
</g>
</g>
<!-- Node3 -->
<g id="node3" class="node">
<title>Node3</title>
<g id="a_node3"><a xlink:href="../../d4/df9/a03701.html" target="_top" xlink:title="A single WebHook.">
<polygon fill="none" stroke="black" points="155.5,-19 11.5,-19 11.5,0 155.5,0 155.5,-19"/>
<text text-anchor="middle" x="83.5" y="-7" font-family="Helvetica,sans-Serif" font-size="10.00">DiscordCoreAPI::WebHook</text>
</a>
</g>
</g>
<!-- Node1&#45;&gt;Node3 -->
<g id="edge2" class="edge">
<title>Node1&#45;&gt;Node3</title>
<path fill="none" stroke="midnightblue" d="M83.5,-44.66C83.5,-35.93 83.5,-25.99 83.5,-19.09"/>
<polygon fill="midnightblue" stroke="midnightblue" points="80,-44.75 83.5,-54.75 87,-44.75 80,-44.75"/>
</g>
<!-- Node2 -->
<g id="node2" class="node">
<title>Node2</title>
<g id="a_node2"><a xlink:href="../../df/d4d/a02285.html" target="_top" xlink:title="Base class for all Discord entities.">
<polygon fill="none" stroke="black" points="165,-129 2,-129 2,-110 165,-110 165,-129"/>
<text text-anchor="middle" x="83.5" y="-117" font-family="Helvetica,sans-Serif" font-size="10.00">DiscordCoreAPI::DiscordEntity</text>
</a>
</g>
</g>
<!-- Node2&#45;&gt;Node1 -->
<g id="edge1" class="edge">
<title>Node2&#45;&gt;Node1</title>
<path fill="none" stroke="midnightblue" d="M83.5,-99.66C83.5,-90.93 83.5,-80.99 83.5,-74.09"/>
<polygon fill="midnightblue" stroke="midnightblue" points="80,-99.75 83.5,-109.75 87,-99.75 80,-99.75"/>
</g>
</g>
</svg>
