<?xml version="1.0" encoding="UTF-8" standalone="no"?>
<!DOCTYPE svg PUBLIC "-//W3C//DTD SVG 1.1//EN"
 "http://www.w3.org/Graphics/SVG/1.1/DTD/svg11.dtd">
<!-- Generated by graphviz version 2.43.0 (0)
 -->
<!-- Title: ReactionEntities.hpp Pages: 1 -->
<svg width="2460pt" height="654pt"
 viewBox="0.00 0.00 2460.09 654.00" xmlns="http://www.w3.org/2000/svg" xmlns:xlink="http://www.w3.org/1999/xlink">
<g id="graph0" class="graph" transform="scale(1 1) rotate(0) translate(4 650)">
<title>ReactionEntities.hpp</title>
<!-- Node1 -->
<g id="node1" class="node">
<title>Node1</title>
<g id="a_node1"><a xlink:title=" ">
<polygon fill="#bfbfbf" stroke="black" points="749.59,-646 632.59,-646 632.59,-627 749.59,-627 749.59,-646"/>
<text text-anchor="middle" x="691.09" y="-634" font-family="Helvetica,sans-Serif" font-size="10.00">ReactionEntities.hpp</text>
</a>
</g>
</g>
<!-- Node2 -->
<g id="node2" class="node">
<title>Node2</title>
<g id="a_node2"><a xlink:href="../../d3/d2c/a00764.html" target="_top" xlink:title=" ">
<polygon fill="none" stroke="black" points="1750.59,-140 1605.59,-140 1605.59,-110 1750.59,-110 1750.59,-140"/>
<text text-anchor="start" x="1613.59" y="-128" font-family="Helvetica,sans-Serif" font-size="10.00">discordcoreapi/Foundation</text>
<text text-anchor="middle" x="1678.09" y="-117" font-family="Helvetica,sans-Serif" font-size="10.00">Entities.hpp</text>
</a>
</g>
</g>
<!-- Node1&#45;&gt;Node2 -->
<g id="edge1" class="edge">
<title>Node1&#45;&gt;Node2</title>
<path fill="none" stroke="midnightblue" d="M632.56,-632.02C465.95,-621.32 1.09,-585.77 1.09,-522 1.09,-522 1.09,-522 1.09,-239.5 1.09,-210.04 -3.27,-193.95 20.09,-176 83.04,-127.63 1268.05,-125.49 1595.1,-125.83"/>
<polygon fill="midnightblue" stroke="midnightblue" points="1595.45,-129.33 1605.45,-125.84 1595.46,-122.33 1595.45,-129.33"/>
</g>
<!-- Node27 -->
<g id="node27" class="node">
<title>Node27</title>
<g id="a_node27"><a xlink:href="../../d5/de8/a00749.html" target="_top" xlink:title=" ">
<polygon fill="none" stroke="black" points="1488.59,-591 1317.59,-591 1317.59,-572 1488.59,-572 1488.59,-591"/>
<text text-anchor="middle" x="1403.09" y="-579" font-family="Helvetica,sans-Serif" font-size="10.00">discordcoreapi/UserEntities.hpp</text>
</a>
</g>
</g>
<!-- Node1&#45;&gt;Node27 -->
<g id="edge26" class="edge">
<title>Node1&#45;&gt;Node27</title>
<path fill="none" stroke="midnightblue" d="M749.66,-631.14C872.41,-622 1157.66,-600.77 1307.4,-589.62"/>
<polygon fill="midnightblue" stroke="midnightblue" points="1307.79,-593.1 1317.5,-588.87 1307.27,-586.12 1307.79,-593.1"/>
</g>
<!-- Node3 -->
<g id="node3" class="node">
<title>Node3</title>
<g id="a_node3"><a xlink:href="../../d8/db9/a00725.html" target="_top" xlink:title=" ">
<polygon fill="none" stroke="black" points="1753.09,-74 1603.09,-74 1603.09,-55 1753.09,-55 1753.09,-74"/>
<text text-anchor="middle" x="1678.09" y="-62" font-family="Helvetica,sans-Serif" font-size="10.00">discordcoreapi/Utilities.hpp</text>
</a>
</g>
</g>
<!-- Node2&#45;&gt;Node3 -->
<g id="edge2" class="edge">
<title>Node2&#45;&gt;Node3</title>
<path fill="none" stroke="midnightblue" d="M1678.09,-109.84C1678.09,-102.21 1678.09,-92.7 1678.09,-84.45"/>
<polygon fill="midnightblue" stroke="midnightblue" points="1681.59,-84.27 1678.09,-74.27 1674.59,-84.27 1681.59,-84.27"/>
</g>
<!-- Node4 -->
<g id="node4" class="node">
<title>Node4</title>
<g id="a_node4"><a xlink:title=" ">
<polygon fill="none" stroke="#bfbfbf" points="661.59,-19 598.59,-19 598.59,0 661.59,0 661.59,-19"/>
<text text-anchor="middle" x="630.09" y="-7" font-family="Helvetica,sans-Serif" font-size="10.00">pthread.h</text>
</a>
</g>
</g>
<!-- Node3&#45;&gt;Node4 -->
<g id="edge3" class="edge">
<title>Node3&#45;&gt;Node4</title>
<path fill="none" stroke="midnightblue" d="M1602.9,-64.28C1436.63,-65.12 1025.23,-62.31 671.96,-18.86"/>
<polygon fill="midnightblue" stroke="midnightblue" points="672.15,-15.36 661.79,-17.6 671.28,-22.3 672.15,-15.36"/>
</g>
<!-- Node5 -->
<g id="node5" class="node">
<title>Node5</title>
<g id="a_node5"><a xlink:title=" ">
<polygon fill="none" stroke="#bfbfbf" points="748.09,-19 680.09,-19 680.09,0 748.09,0 748.09,-19"/>
<text text-anchor="middle" x="714.09" y="-7" font-family="Helvetica,sans-Serif" font-size="10.00">sys/time.h</text>
</a>
</g>
</g>
<!-- Node3&#45;&gt;Node5 -->
<g id="edge4" class="edge">
<title>Node3&#45;&gt;Node5</title>
<path fill="none" stroke="midnightblue" d="M1602.86,-63.6C1447.03,-62.99 1077.57,-57.34 758.66,-18.99"/>
<polygon fill="midnightblue" stroke="midnightblue" points="758.63,-15.46 748.28,-17.73 757.79,-22.41 758.63,-15.46"/>
</g>
<!-- Node6 -->
<g id="node6" class="node">
<title>Node6</title>
<g id="a_node6"><a xlink:title=" ">
<polygon fill="none" stroke="#bfbfbf" points="814.09,-19 766.09,-19 766.09,0 814.09,0 814.09,-19"/>
<text text-anchor="middle" x="790.09" y="-7" font-family="Helvetica,sans-Serif" font-size="10.00">time.h</text>
</a>
</g>
</g>
<!-- Node3&#45;&gt;Node6 -->
<g id="edge5" class="edge">
<title>Node3&#45;&gt;Node6</title>
<path fill="none" stroke="midnightblue" d="M1602.83,-61.52C1426.7,-56.56 990.68,-42.46 824.22,-18.78"/>
<polygon fill="midnightblue" stroke="midnightblue" points="824.53,-15.29 814.13,-17.28 823.5,-22.21 824.53,-15.29"/>
</g>
<!-- Node7 -->
<g id="node7" class="node">
<title>Node7</title>
<g id="a_node7"><a xlink:title=" ">
<polygon fill="none" stroke="#bfbfbf" points="876.09,-19 832.09,-19 832.09,0 876.09,0 876.09,-19"/>
<text text-anchor="middle" x="854.09" y="-7" font-family="Helvetica,sans-Serif" font-size="10.00">ctime</text>
</a>
</g>
</g>
<!-- Node3&#45;&gt;Node7 -->
<g id="edge6" class="edge">
<title>Node3&#45;&gt;Node7</title>
<path fill="none" stroke="midnightblue" d="M1602.95,-61.31C1436.54,-56.15 1040.19,-41.99 886.52,-18.81"/>
<polygon fill="midnightblue" stroke="midnightblue" points="886.74,-15.3 876.32,-17.2 885.65,-22.22 886.74,-15.3"/>
</g>
<!-- Node8 -->
<g id="node8" class="node">
<title>Node8</title>
<g id="a_node8"><a xlink:title=" ">
<polygon fill="none" stroke="#bfbfbf" points="1001.59,-19 894.59,-19 894.59,0 1001.59,0 1001.59,-19"/>
<text text-anchor="middle" x="948.09" y="-7" font-family="Helvetica,sans-Serif" font-size="10.00">condition_variable</text>
</a>
</g>
</g>
<!-- Node3&#45;&gt;Node8 -->
<g id="edge7" class="edge">
<title>Node3&#45;&gt;Node8</title>
<path fill="none" stroke="midnightblue" d="M1602.93,-60.14C1481.15,-54.34 1232.95,-40.98 1011.85,-19"/>
<polygon fill="midnightblue" stroke="midnightblue" points="1011.98,-15.5 1001.68,-17.98 1011.28,-22.46 1011.98,-15.5"/>
</g>
<!-- Node9 -->
<g id="node9" class="node">
<title>Node9</title>
<g id="a_node9"><a xlink:title=" ">
<polygon fill="none" stroke="#bfbfbf" points="1130.09,-19 1020.09,-19 1020.09,0 1130.09,0 1130.09,-19"/>
<text text-anchor="middle" x="1075.09" y="-7" font-family="Helvetica,sans-Serif" font-size="10.00">nlohmann/json.hpp</text>
</a>
</g>
</g>
<!-- Node3&#45;&gt;Node9 -->
<g id="edge8" class="edge">
<title>Node3&#45;&gt;Node9</title>
<path fill="none" stroke="midnightblue" d="M1602.99,-58.48C1500.72,-51.39 1311.7,-37.33 1140.19,-19.07"/>
<polygon fill="midnightblue" stroke="midnightblue" points="1140.54,-15.59 1130.23,-18 1139.8,-22.55 1140.54,-15.59"/>
</g>
<!-- Node10 -->
<g id="node10" class="node">
<title>Node10</title>
<g id="a_node10"><a xlink:title=" ">
<polygon fill="none" stroke="#bfbfbf" points="1241.59,-19 1148.59,-19 1148.59,0 1241.59,0 1241.59,-19"/>
<text text-anchor="middle" x="1195.09" y="-7" font-family="Helvetica,sans-Serif" font-size="10.00">source_location</text>
</a>
</g>
</g>
<!-- Node3&#45;&gt;Node10 -->
<g id="edge9" class="edge">
<title>Node3&#45;&gt;Node10</title>
<path fill="none" stroke="midnightblue" d="M1602.96,-56.83C1519.57,-49.17 1380.72,-35.64 1251.92,-19.18"/>
<polygon fill="midnightblue" stroke="midnightblue" points="1252.24,-15.7 1241.88,-17.89 1251.35,-22.64 1252.24,-15.7"/>
</g>
<!-- Node11 -->
<g id="node11" class="node">
<title>Node11</title>
<g id="a_node11"><a xlink:title=" ">
<polygon fill="none" stroke="#bfbfbf" points="1352.59,-19 1259.59,-19 1259.59,0 1352.59,0 1352.59,-19"/>
<text text-anchor="middle" x="1306.09" y="-7" font-family="Helvetica,sans-Serif" font-size="10.00">unordered_map</text>
</a>
</g>
</g>
<!-- Node3&#45;&gt;Node11 -->
<g id="edge10" class="edge">
<title>Node3&#45;&gt;Node11</title>
<path fill="none" stroke="midnightblue" d="M1616.3,-55C1554.76,-46.49 1457.29,-32.88 1362.85,-19.1"/>
<polygon fill="midnightblue" stroke="midnightblue" points="1363.24,-15.62 1352.84,-17.63 1362.22,-22.54 1363.24,-15.62"/>
</g>
<!-- Node12 -->
<g id="node12" class="node">
<title>Node12</title>
<g id="a_node12"><a xlink:title=" ">
<polygon fill="none" stroke="#bfbfbf" points="1457.09,-19 1371.09,-19 1371.09,0 1457.09,0 1457.09,-19"/>
<text text-anchor="middle" x="1414.09" y="-7" font-family="Helvetica,sans-Serif" font-size="10.00">shared_mutex</text>
</a>
</g>
</g>
<!-- Node3&#45;&gt;Node12 -->
<g id="edge11" class="edge">
<title>Node3&#45;&gt;Node12</title>
<path fill="none" stroke="midnightblue" d="M1635.67,-54.98C1589.72,-45.76 1516.34,-31.03 1466.74,-21.07"/>
<polygon fill="midnightblue" stroke="midnightblue" points="1467.33,-17.62 1456.84,-19.08 1465.95,-24.48 1467.33,-17.62"/>
</g>
<!-- Node13 -->
<g id="node13" class="node">
<title>Node13</title>
<g id="a_node13"><a xlink:title=" ">
<polygon fill="none" stroke="#bfbfbf" points="1540.59,-19 1475.59,-19 1475.59,0 1540.59,0 1540.59,-19"/>
<text text-anchor="middle" x="1508.09" y="-7" font-family="Helvetica,sans-Serif" font-size="10.00">functional</text>
</a>
</g>
</g>
<!-- Node3&#45;&gt;Node13 -->
<g id="edge12" class="edge">
<title>Node3&#45;&gt;Node13</title>
<path fill="none" stroke="midnightblue" d="M1650.78,-54.98C1622.24,-46.09 1577.26,-32.07 1545.45,-22.15"/>
<polygon fill="midnightblue" stroke="midnightblue" points="1546.21,-18.72 1535.62,-19.08 1544.12,-25.4 1546.21,-18.72"/>
</g>
<!-- Node14 -->
<g id="node14" class="node">
<title>Node14</title>
<g id="a_node14"><a xlink:title=" ">
<polygon fill="none" stroke="#bfbfbf" points="1629.59,-19 1558.59,-19 1558.59,0 1629.59,0 1629.59,-19"/>
<text text-anchor="middle" x="1594.09" y="-7" font-family="Helvetica,sans-Serif" font-size="10.00">semaphore</text>
</a>
</g>
</g>
<!-- Node3&#45;&gt;Node14 -->
<g id="edge13" class="edge">
<title>Node3&#45;&gt;Node14</title>
<path fill="none" stroke="midnightblue" d="M1664.59,-54.98C1651.69,-46.84 1631.99,-34.41 1616.69,-24.76"/>
<polygon fill="midnightblue" stroke="midnightblue" points="1618.16,-21.55 1607.83,-19.17 1614.42,-27.47 1618.16,-21.55"/>
</g>
<!-- Node15 -->
<g id="node15" class="node">
<title>Node15</title>
<g id="a_node15"><a xlink:title=" ">
<polygon fill="none" stroke="#bfbfbf" points="1708.09,-19 1648.09,-19 1648.09,0 1708.09,0 1708.09,-19"/>
<text text-anchor="middle" x="1678.09" y="-7" font-family="Helvetica,sans-Serif" font-size="10.00">concepts</text>
</a>
</g>
</g>
<!-- Node3&#45;&gt;Node15 -->
<g id="edge14" class="edge">
<title>Node3&#45;&gt;Node15</title>
<path fill="none" stroke="midnightblue" d="M1678.09,-54.75C1678.09,-47.8 1678.09,-37.85 1678.09,-29.13"/>
<polygon fill="midnightblue" stroke="midnightblue" points="1681.59,-29.09 1678.09,-19.09 1674.59,-29.09 1681.59,-29.09"/>
</g>
<!-- Node16 -->
<g id="node16" class="node">
<title>Node16</title>
<g id="a_node16"><a xlink:title=" ">
<polygon fill="none" stroke="#bfbfbf" points="1786.09,-19 1726.09,-19 1726.09,0 1786.09,0 1786.09,-19"/>
<text text-anchor="middle" x="1756.09" y="-7" font-family="Helvetica,sans-Serif" font-size="10.00">iostream</text>
</a>
</g>
</g>
<!-- Node3&#45;&gt;Node16 -->
<g id="edge15" class="edge">
<title>Node3&#45;&gt;Node16</title>
<path fill="none" stroke="midnightblue" d="M1690.62,-54.98C1702.49,-46.92 1720.55,-34.65 1734.7,-25.03"/>
<polygon fill="midnightblue" stroke="midnightblue" points="1737.03,-27.69 1743.33,-19.17 1733.09,-21.9 1737.03,-27.69"/>
</g>
<!-- Node17 -->
<g id="node17" class="node">
<title>Node17</title>
<g id="a_node17"><a xlink:title=" ">
<polygon fill="none" stroke="#bfbfbf" points="1859.59,-19 1804.59,-19 1804.59,0 1859.59,0 1859.59,-19"/>
<text text-anchor="middle" x="1832.09" y="-7" font-family="Helvetica,sans-Serif" font-size="10.00">fstream</text>
</a>
</g>
</g>
<!-- Node3&#45;&gt;Node17 -->
<g id="edge16" class="edge">
<title>Node3&#45;&gt;Node17</title>
<path fill="none" stroke="midnightblue" d="M1702.83,-54.98C1728.46,-46.16 1768.72,-32.31 1797.5,-22.41"/>
<polygon fill="midnightblue" stroke="midnightblue" points="1798.84,-25.65 1807.15,-19.08 1796.56,-19.03 1798.84,-25.65"/>
</g>
<!-- Node18 -->
<g id="node18" class="node">
<title>Node18</title>
<g id="a_node18"><a xlink:title=" ">
<polygon fill="none" stroke="#bfbfbf" points="1922.09,-19 1878.09,-19 1878.09,0 1922.09,0 1922.09,-19"/>
<text text-anchor="middle" x="1900.09" y="-7" font-family="Helvetica,sans-Serif" font-size="10.00">bitset</text>
</a>
</g>
</g>
<!-- Node3&#45;&gt;Node18 -->
<g id="edge17" class="edge">
<title>Node3&#45;&gt;Node18</title>
<path fill="none" stroke="midnightblue" d="M1716.02,-54.96C1754.43,-46.24 1815.5,-32.14 1868.09,-19 1868.19,-18.97 1868.29,-18.95 1868.39,-18.92"/>
<polygon fill="midnightblue" stroke="midnightblue" points="1869.26,-22.31 1878.08,-16.44 1867.52,-15.53 1869.26,-22.31"/>
</g>
<!-- Node19 -->
<g id="node19" class="node">
<title>Node19</title>
<g id="a_node19"><a xlink:title=" ">
<polygon fill="none" stroke="#bfbfbf" points="1998.09,-19 1940.09,-19 1940.09,0 1998.09,0 1998.09,-19"/>
<text text-anchor="middle" x="1969.09" y="-7" font-family="Helvetica,sans-Serif" font-size="10.00">memory</text>
</a>
</g>
</g>
<!-- Node3&#45;&gt;Node19 -->
<g id="edge18" class="edge">
<title>Node3&#45;&gt;Node19</title>
<path fill="none" stroke="midnightblue" d="M1730.55,-55C1779.61,-46.88 1855.15,-33.97 1930,-19.14"/>
<polygon fill="midnightblue" stroke="midnightblue" points="1930.95,-22.52 1940.07,-17.13 1929.58,-15.66 1930.95,-22.52"/>
</g>
<!-- Node20 -->
<g id="node20" class="node">
<title>Node20</title>
<g id="a_node20"><a xlink:title=" ">
<polygon fill="none" stroke="#bfbfbf" points="2070.09,-19 2016.09,-19 2016.09,0 2070.09,0 2070.09,-19"/>
<text text-anchor="middle" x="2043.09" y="-7" font-family="Helvetica,sans-Serif" font-size="10.00">random</text>
</a>
</g>
</g>
<!-- Node3&#45;&gt;Node20 -->
<g id="edge19" class="edge">
<title>Node3&#45;&gt;Node20</title>
<path fill="none" stroke="midnightblue" d="M1753.23,-55.45C1817.77,-48.05 1913.5,-35.92 2005.93,-19.05"/>
<polygon fill="midnightblue" stroke="midnightblue" points="2006.83,-22.45 2016.02,-17.19 2005.55,-15.56 2006.83,-22.45"/>
</g>
<!-- Node21 -->
<g id="node21" class="node">
<title>Node21</title>
<g id="a_node21"><a xlink:title=" ">
<polygon fill="none" stroke="#bfbfbf" points="2132.09,-19 2088.09,-19 2088.09,0 2132.09,0 2132.09,-19"/>
<text text-anchor="middle" x="2110.09" y="-7" font-family="Helvetica,sans-Serif" font-size="10.00">string</text>
</a>
</g>
</g>
<!-- Node3&#45;&gt;Node21 -->
<g id="edge20" class="edge">
<title>Node3&#45;&gt;Node21</title>
<path fill="none" stroke="midnightblue" d="M1753.26,-58.7C1832.02,-52.87 1959.41,-41.19 2077.87,-18.95"/>
<polygon fill="midnightblue" stroke="midnightblue" points="2078.67,-22.36 2087.84,-17.05 2077.36,-15.49 2078.67,-22.36"/>
</g>
<!-- Node22 -->
<g id="node22" class="node">
<title>Node22</title>
<g id="a_node22"><a xlink:title=" ">
<polygon fill="none" stroke="#bfbfbf" points="2197.59,-19 2150.59,-19 2150.59,0 2197.59,0 2197.59,-19"/>
<text text-anchor="middle" x="2174.09" y="-7" font-family="Helvetica,sans-Serif" font-size="10.00">vector</text>
</a>
</g>
</g>
<!-- Node3&#45;&gt;Node22 -->
<g id="edge21" class="edge">
<title>Node3&#45;&gt;Node22</title>
<path fill="none" stroke="midnightblue" d="M1753.15,-59.9C1842.98,-54.78 1998.01,-43.38 2140.18,-18.86"/>
<polygon fill="midnightblue" stroke="midnightblue" points="2141.15,-22.25 2150.39,-17.08 2139.94,-15.35 2141.15,-22.25"/>
</g>
<!-- Node23 -->
<g id="node23" class="node">
<title>Node23</title>
<g id="a_node23"><a xlink:title=" ">
<polygon fill="none" stroke="#bfbfbf" points="2264.09,-19 2216.09,-19 2216.09,0 2264.09,0 2264.09,-19"/>
<text text-anchor="middle" x="2240.09" y="-7" font-family="Helvetica,sans-Serif" font-size="10.00">thread</text>
</a>
</g>
</g>
<!-- Node3&#45;&gt;Node23 -->
<g id="edge22" class="edge">
<title>Node3&#45;&gt;Node23</title>
<path fill="none" stroke="midnightblue" d="M1753.32,-60.97C1856.16,-56.64 2046.14,-45.56 2206.09,-19 2206.19,-18.98 2206.29,-18.97 2206.39,-18.95"/>
<polygon fill="midnightblue" stroke="midnightblue" points="2206.92,-22.41 2216.04,-17.02 2205.55,-15.55 2206.92,-22.41"/>
</g>
<!-- Node24 -->
<g id="node24" class="node">
<title>Node24</title>
<g id="a_node24"><a xlink:title=" ">
<polygon fill="none" stroke="#bfbfbf" points="2330.09,-19 2282.09,-19 2282.09,0 2330.09,0 2330.09,-19"/>
<text text-anchor="middle" x="2306.09" y="-7" font-family="Helvetica,sans-Serif" font-size="10.00">mutex</text>
</a>
</g>
</g>
<!-- Node3&#45;&gt;Node24 -->
<g id="edge23" class="edge">
<title>Node3&#45;&gt;Node24</title>
<path fill="none" stroke="midnightblue" d="M1753.27,-62.14C1864.71,-59.19 2080.31,-49.86 2272.06,-18.86"/>
<polygon fill="midnightblue" stroke="midnightblue" points="2272.74,-22.29 2282.04,-17.22 2271.61,-15.38 2272.74,-22.29"/>
</g>
<!-- Node25 -->
<g id="node25" class="node">
<title>Node25</title>
<g id="a_node25"><a xlink:title=" ">
<polygon fill="none" stroke="#bfbfbf" points="2395.59,-19 2348.59,-19 2348.59,0 2395.59,0 2395.59,-19"/>
<text text-anchor="middle" x="2372.09" y="-7" font-family="Helvetica,sans-Serif" font-size="10.00">queue</text>
</a>
</g>
</g>
<!-- Node3&#45;&gt;Node25 -->
<g id="edge24" class="edge">
<title>Node3&#45;&gt;Node25</title>
<path fill="none" stroke="midnightblue" d="M1753.44,-62.94C1874.82,-61.05 2121.13,-53.12 2338.41,-18.76"/>
<polygon fill="midnightblue" stroke="midnightblue" points="2339.09,-22.2 2348.41,-17.16 2337.98,-15.29 2339.09,-22.2"/>
</g>
<!-- Node26 -->
<g id="node26" class="node">
<title>Node26</title>
<g id="a_node26"><a xlink:title=" ">
<polygon fill="none" stroke="#bfbfbf" points="2452.09,-19 2414.09,-19 2414.09,0 2452.09,0 2452.09,-19"/>
<text text-anchor="middle" x="2433.09" y="-7" font-family="Helvetica,sans-Serif" font-size="10.00">map</text>
</a>
</g>
</g>
<!-- Node3&#45;&gt;Node26 -->
<g id="edge25" class="edge">
<title>Node3&#45;&gt;Node26</title>
<path fill="none" stroke="midnightblue" d="M1753.25,-61.13C1909.07,-55.85 2263.77,-41.9 2403.85,-18.71"/>
<polygon fill="midnightblue" stroke="midnightblue" points="2404.7,-22.12 2413.95,-16.95 2403.5,-15.22 2404.7,-22.12"/>
</g>
<!-- Node27&#45;&gt;Node2 -->
<g id="edge27" class="edge">
<title>Node27&#45;&gt;Node2</title>
<path fill="none" stroke="midnightblue" d="M1488.63,-576.74C1626.63,-568.31 1883.09,-541.83 1883.09,-461.5 1883.09,-461.5 1883.09,-461.5 1883.09,-239.5 1883.09,-180.57 1817.44,-151.99 1760.44,-138.28"/>
<polygon fill="midnightblue" stroke="midnightblue" points="1761.18,-134.86 1750.65,-136.05 1759.63,-141.68 1761.18,-134.86"/>
</g>
<!-- Node28 -->
<g id="node28" class="node">
<title>Node28</title>
<g id="a_node28"><a xlink:href="../../df/dbb/a00698.html" target="_top" xlink:title=" ">
<polygon fill="none" stroke="black" points="1475.09,-536 1331.09,-536 1331.09,-506 1475.09,-506 1475.09,-536"/>
<text text-anchor="start" x="1339.09" y="-524" font-family="Helvetica,sans-Serif" font-size="10.00">discordcoreapi/WebSocket</text>
<text text-anchor="middle" x="1403.09" y="-513" font-family="Helvetica,sans-Serif" font-size="10.00">Entities.hpp</text>
</a>
</g>
</g>
<!-- Node27&#45;&gt;Node28 -->
<g id="edge28" class="edge">
<title>Node27&#45;&gt;Node28</title>
<path fill="none" stroke="midnightblue" d="M1403.09,-571.87C1403.09,-565.11 1403.09,-555.35 1403.09,-546.26"/>
<polygon fill="midnightblue" stroke="midnightblue" points="1406.59,-546.11 1403.09,-536.11 1399.59,-546.11 1406.59,-546.11"/>
</g>
<!-- Node28&#45;&gt;Node2 -->
<g id="edge29" class="edge">
<title>Node28&#45;&gt;Node2</title>
<path fill="none" stroke="midnightblue" d="M1475.58,-516.3C1600.98,-507.9 1845.09,-481.86 1845.09,-406.5 1845.09,-406.5 1845.09,-406.5 1845.09,-239.5 1845.09,-189.26 1792.76,-159.7 1746.68,-143.41"/>
<polygon fill="midnightblue" stroke="midnightblue" points="1747.56,-140.02 1736.97,-140.14 1745.32,-146.65 1747.56,-140.02"/>
</g>
<!-- Node29 -->
<g id="node29" class="node">
<title>Node29</title>
<g id="a_node29"><a xlink:href="../../d3/d95/a00779.html" target="_top" xlink:title=" ">
<polygon fill="none" stroke="black" points="454.59,-250 275.59,-250 275.59,-231 454.59,-231 454.59,-250"/>
<text text-anchor="middle" x="365.09" y="-238" font-family="Helvetica,sans-Serif" font-size="10.00">discordcoreapi/AudioDecoder.hpp</text>
</a>
</g>
</g>
<!-- Node28&#45;&gt;Node29 -->
<g id="edge30" class="edge">
<title>Node28&#45;&gt;Node29</title>
<path fill="none" stroke="midnightblue" d="M1330.87,-518.12C1122.34,-511.73 534.09,-486.62 534.09,-406.5 534.09,-406.5 534.09,-406.5 534.09,-349.5 534.09,-294.45 469.63,-266.2 420.33,-252.65"/>
<polygon fill="midnightblue" stroke="midnightblue" points="420.94,-249.19 410.38,-250.05 419.17,-255.96 420.94,-249.19"/>
</g>
<!-- Node30 -->
<g id="node30" class="node">
<title>Node30</title>
<g id="a_node30"><a xlink:href="../../d2/ddd/a00755.html" target="_top" xlink:title=" ">
<polygon fill="none" stroke="black" points="569.09,-195 393.09,-195 393.09,-176 569.09,-176 569.09,-195"/>
<text text-anchor="middle" x="481.09" y="-183" font-family="Helvetica,sans-Serif" font-size="10.00">discordcoreapi/EventEntities.hpp</text>
</a>
</g>
</g>
<!-- Node28&#45;&gt;Node30 -->
<g id="edge61" class="edge">
<title>Node28&#45;&gt;Node30</title>
<path fill="none" stroke="midnightblue" d="M1330.89,-517.51C1198.67,-510.98 931.09,-487.73 931.09,-406.5 931.09,-406.5 931.09,-406.5 931.09,-294.5 931.09,-256.17 681.04,-214.97 553.73,-196.48"/>
<polygon fill="midnightblue" stroke="midnightblue" points="554.06,-192.99 543.66,-195.03 553.06,-199.92 554.06,-192.99"/>
</g>
<!-- Node33 -->
<g id="node33" class="node">
<title>Node33</title>
<g id="a_node33"><a xlink:href="../../d4/dfa/a00746.html" target="_top" xlink:title=" ">
<polygon fill="none" stroke="black" points="1640.59,-470 1431.59,-470 1431.59,-451 1640.59,-451 1640.59,-470"/>
<text text-anchor="middle" x="1536.09" y="-458" font-family="Helvetica,sans-Serif" font-size="10.00">discordcoreapi/CommandController.hpp</text>
</a>
</g>
</g>
<!-- Node28&#45;&gt;Node33 -->
<g id="edge36" class="edge">
<title>Node28&#45;&gt;Node33</title>
<path fill="none" stroke="midnightblue" d="M1434.95,-505.99C1456.94,-496.31 1485.94,-483.56 1507.25,-474.18"/>
<polygon fill="midnightblue" stroke="midnightblue" points="1508.7,-477.37 1516.45,-470.14 1505.89,-470.96 1508.7,-477.37"/>
</g>
<!-- Node35 -->
<g id="node35" class="node">
<title>Node35</title>
<g id="a_node35"><a xlink:href="../../d1/d56/a00707.html" target="_top" xlink:title=" ">
<polygon fill="none" stroke="black" points="1558.59,-360 1391.59,-360 1391.59,-341 1558.59,-341 1558.59,-360"/>
<text text-anchor="middle" x="1475.09" y="-348" font-family="Helvetica,sans-Serif" font-size="10.00">discordcoreapi/ThreadPool.hpp</text>
</a>
</g>
</g>
<!-- Node28&#45;&gt;Node35 -->
<g id="edge63" class="edge">
<title>Node28&#45;&gt;Node35</title>
<path fill="none" stroke="midnightblue" d="M1404.34,-505.79C1406.93,-481.85 1414.39,-432.52 1434.09,-396 1439.85,-385.32 1448.76,-375.22 1456.8,-367.35"/>
<polygon fill="midnightblue" stroke="midnightblue" points="1459.46,-369.65 1464.41,-360.28 1454.7,-364.53 1459.46,-369.65"/>
</g>
<!-- Node37 -->
<g id="node37" class="node">
<title>Node37</title>
<g id="a_node37"><a xlink:href="../../dc/de4/a00677.html" target="_top" xlink:title=" ">
<polygon fill="none" stroke="black" points="1290.59,-250 1127.59,-250 1127.59,-231 1290.59,-231 1290.59,-250"/>
<text text-anchor="middle" x="1209.09" y="-238" font-family="Helvetica,sans-Serif" font-size="10.00">discordcoreapi/SSLClients.hpp</text>
</a>
</g>
</g>
<!-- Node28&#45;&gt;Node37 -->
<g id="edge62" class="edge">
<title>Node28&#45;&gt;Node37</title>
<path fill="none" stroke="midnightblue" d="M1358.01,-505.97C1315.44,-489.59 1258.09,-457.97 1258.09,-406.5 1258.09,-406.5 1258.09,-406.5 1258.09,-349.5 1258.09,-314.68 1236.71,-278.74 1222.19,-258.35"/>
<polygon fill="midnightblue" stroke="midnightblue" points="1224.88,-256.09 1216.11,-250.13 1219.25,-260.25 1224.88,-256.09"/>
</g>
<!-- Node51 -->
<g id="node51" class="node">
<title>Node51</title>
<g id="a_node51"><a xlink:href="../../d0/d0a/a00743.html" target="_top" xlink:title=" ">
<polygon fill="none" stroke="black" points="1816.59,-415 1661.59,-415 1661.59,-396 1816.59,-396 1816.59,-415"/>
<text text-anchor="middle" x="1739.09" y="-403" font-family="Helvetica,sans-Serif" font-size="10.00">discordcoreapi/ErlPacker.hpp</text>
</a>
</g>
</g>
<!-- Node28&#45;&gt;Node51 -->
<g id="edge59" class="edge">
<title>Node28&#45;&gt;Node51</title>
<path fill="none" stroke="midnightblue" d="M1475.15,-513.29C1525.48,-506.73 1593.37,-494.05 1649.09,-470 1676.6,-458.13 1704.15,-437 1721.39,-422.39"/>
<polygon fill="midnightblue" stroke="midnightblue" points="1724.15,-424.63 1729.4,-415.43 1719.56,-419.35 1724.15,-424.63"/>
</g>
<!-- Node29&#45;&gt;Node2 -->
<g id="edge33" class="edge">
<title>Node29&#45;&gt;Node2</title>
<path fill="none" stroke="midnightblue" d="M364.78,-230.79C364.81,-216.69 367.17,-189.11 384.09,-176 431.98,-138.89 1316.9,-128.82 1595.1,-126.57"/>
<polygon fill="midnightblue" stroke="midnightblue" points="1595.17,-130.07 1605.14,-126.49 1595.11,-123.07 1595.17,-130.07"/>
</g>
<!-- Node29&#45;&gt;Node30 -->
<g id="edge31" class="edge">
<title>Node29&#45;&gt;Node30</title>
<path fill="none" stroke="midnightblue" d="M383.73,-230.98C402.39,-222.46 431.34,-209.23 452.83,-199.41"/>
<polygon fill="midnightblue" stroke="midnightblue" points="454.47,-202.51 462.11,-195.17 451.56,-196.14 454.47,-202.51"/>
</g>
<!-- Node31 -->
<g id="node31" class="node">
<title>Node31</title>
<g id="a_node31"><a xlink:title=" ">
<polygon fill="none" stroke="#bfbfbf" points="160.59,-195 29.59,-195 29.59,-176 160.59,-176 160.59,-195"/>
<text text-anchor="middle" x="95.09" y="-183" font-family="Helvetica,sans-Serif" font-size="10.00">libavformat/avformat.h</text>
</a>
</g>
</g>
<!-- Node29&#45;&gt;Node31 -->
<g id="edge34" class="edge">
<title>Node29&#45;&gt;Node31</title>
<path fill="none" stroke="midnightblue" d="M321.71,-230.98C274.71,-221.76 199.66,-207.03 148.93,-197.07"/>
<polygon fill="midnightblue" stroke="midnightblue" points="149.3,-193.57 138.81,-195.08 147.95,-200.44 149.3,-193.57"/>
</g>
<!-- Node32 -->
<g id="node32" class="node">
<title>Node32</title>
<g id="a_node32"><a xlink:title=" ">
<polygon fill="none" stroke="#bfbfbf" points="337.59,-195 178.59,-195 178.59,-176 337.59,-176 337.59,-195"/>
<text text-anchor="middle" x="258.09" y="-183" font-family="Helvetica,sans-Serif" font-size="10.00">libswresample/swresample.h</text>
</a>
</g>
</g>
<!-- Node29&#45;&gt;Node32 -->
<g id="edge35" class="edge">
<title>Node29&#45;&gt;Node32</title>
<path fill="none" stroke="midnightblue" d="M347.9,-230.98C330.84,-222.54 304.46,-209.47 284.69,-199.68"/>
<polygon fill="midnightblue" stroke="midnightblue" points="286.11,-196.47 275.59,-195.17 283,-202.75 286.11,-196.47"/>
</g>
<!-- Node30&#45;&gt;Node2 -->
<g id="edge32" class="edge">
<title>Node30&#45;&gt;Node2</title>
<path fill="none" stroke="midnightblue" d="M569.11,-176.62C572.14,-176.41 575.14,-176.2 578.09,-176 957.66,-150.75 1411.76,-134.55 1595.2,-128.58"/>
<polygon fill="midnightblue" stroke="midnightblue" points="1595.43,-132.07 1605.31,-128.25 1595.2,-125.08 1595.43,-132.07"/>
</g>
<!-- Node33&#45;&gt;Node2 -->
<g id="edge37" class="edge">
<title>Node33&#45;&gt;Node2</title>
<path fill="none" stroke="midnightblue" d="M1552.64,-450.97C1568.73,-442.48 1593.65,-428.75 1614.09,-415 1676.54,-372.98 1735.09,-371.77 1735.09,-296.5 1735.09,-296.5 1735.09,-296.5 1735.09,-239.5 1735.09,-204.85 1713.61,-169.97 1697.03,-148.2"/>
<polygon fill="midnightblue" stroke="midnightblue" points="1699.69,-145.93 1690.74,-140.26 1694.2,-150.27 1699.69,-145.93"/>
</g>
<!-- Node34 -->
<g id="node34" class="node">
<title>Node34</title>
<g id="a_node34"><a xlink:href="../../d4/d9b/a00680.html" target="_top" xlink:title=" ">
<polygon fill="none" stroke="black" points="1605.09,-415 1443.09,-415 1443.09,-396 1605.09,-396 1605.09,-415"/>
<text text-anchor="middle" x="1524.09" y="-403" font-family="Helvetica,sans-Serif" font-size="10.00">discordcoreapi/CoRoutine.hpp</text>
</a>
</g>
</g>
<!-- Node33&#45;&gt;Node34 -->
<g id="edge38" class="edge">
<title>Node33&#45;&gt;Node34</title>
<path fill="none" stroke="midnightblue" d="M1534.11,-450.75C1532.52,-443.72 1530.23,-433.62 1528.24,-424.84"/>
<polygon fill="midnightblue" stroke="midnightblue" points="1531.66,-424.07 1526.03,-415.09 1524.83,-425.62 1531.66,-424.07"/>
</g>
<!-- Node34&#45;&gt;Node2 -->
<g id="edge39" class="edge">
<title>Node34&#45;&gt;Node2</title>
<path fill="none" stroke="midnightblue" d="M1571.82,-395.97C1623.03,-383.74 1697.09,-355.81 1697.09,-296.5 1697.09,-296.5 1697.09,-296.5 1697.09,-239.5 1697.09,-208.28 1690.01,-172.89 1684.5,-150.05"/>
<polygon fill="midnightblue" stroke="midnightblue" points="1687.85,-149.05 1682.03,-140.21 1681.07,-150.76 1687.85,-149.05"/>
</g>
<!-- Node34&#45;&gt;Node35 -->
<g id="edge40" class="edge">
<title>Node34&#45;&gt;Node35</title>
<path fill="none" stroke="midnightblue" d="M1516,-395.75C1508.93,-388.11 1498.5,-376.82 1489.94,-367.56"/>
<polygon fill="midnightblue" stroke="midnightblue" points="1492.39,-365.06 1483.03,-360.09 1487.25,-369.81 1492.39,-365.06"/>
</g>
<!-- Node35&#45;&gt;Node2 -->
<g id="edge41" class="edge">
<title>Node35&#45;&gt;Node2</title>
<path fill="none" stroke="midnightblue" d="M1494.7,-340.95C1511.34,-333.11 1535.28,-320.4 1553.09,-305 1606,-259.26 1647.57,-186.47 1666.67,-149.38"/>
<polygon fill="midnightblue" stroke="midnightblue" points="1669.85,-150.84 1671.24,-140.34 1663.61,-147.68 1669.85,-150.84"/>
</g>
<!-- Node36 -->
<g id="node36" class="node">
<title>Node36</title>
<g id="a_node36"><a xlink:href="../../d4/d6a/a00704.html" target="_top" xlink:title=" ">
<polygon fill="none" stroke="black" points="1544.09,-305 1406.09,-305 1406.09,-286 1544.09,-286 1544.09,-305"/>
<text text-anchor="middle" x="1475.09" y="-293" font-family="Helvetica,sans-Serif" font-size="10.00">discordcoreapi/Https.hpp</text>
</a>
</g>
</g>
<!-- Node35&#45;&gt;Node36 -->
<g id="edge42" class="edge">
<title>Node35&#45;&gt;Node36</title>
<path fill="none" stroke="midnightblue" d="M1475.09,-340.75C1475.09,-333.8 1475.09,-323.85 1475.09,-315.13"/>
<polygon fill="midnightblue" stroke="midnightblue" points="1478.59,-315.09 1475.09,-305.09 1471.59,-315.09 1478.59,-315.09"/>
</g>
<!-- Node50 -->
<g id="node50" class="node">
<title>Node50</title>
<g id="a_node50"><a xlink:title=" ">
<polygon fill="none" stroke="#bfbfbf" points="1388.09,-305 1326.09,-305 1326.09,-286 1388.09,-286 1388.09,-305"/>
<text text-anchor="middle" x="1357.09" y="-293" font-family="Helvetica,sans-Serif" font-size="10.00">coroutine</text>
</a>
</g>
</g>
<!-- Node35&#45;&gt;Node50 -->
<g id="edge58" class="edge">
<title>Node35&#45;&gt;Node50</title>
<path fill="none" stroke="midnightblue" d="M1456.13,-340.98C1437.06,-332.42 1407.43,-319.11 1385.54,-309.28"/>
<polygon fill="midnightblue" stroke="midnightblue" points="1386.95,-306.07 1376.39,-305.17 1384.08,-312.46 1386.95,-306.07"/>
</g>
<!-- Node36&#45;&gt;Node37 -->
<g id="edge43" class="edge">
<title>Node36&#45;&gt;Node37</title>
<path fill="none" stroke="midnightblue" d="M1432.35,-285.98C1386.05,-276.76 1312.11,-262.03 1262.13,-252.07"/>
<polygon fill="midnightblue" stroke="midnightblue" points="1262.65,-248.6 1252.16,-250.08 1261.29,-255.47 1262.65,-248.6"/>
</g>
<!-- Node37&#45;&gt;Node2 -->
<g id="edge44" class="edge">
<title>Node37&#45;&gt;Node2</title>
<path fill="none" stroke="midnightblue" d="M1220.98,-230.84C1242.84,-215.1 1288.84,-182.75 1307.09,-176 1401.88,-140.92 1518.42,-130.01 1595.3,-126.85"/>
<polygon fill="midnightblue" stroke="midnightblue" points="1595.55,-130.34 1605.41,-126.47 1595.28,-123.35 1595.55,-130.34"/>
</g>
<!-- Node37&#45;&gt;Node30 -->
<g id="edge45" class="edge">
<title>Node37&#45;&gt;Node30</title>
<path fill="none" stroke="midnightblue" d="M1127.38,-234.18C1008.99,-226.38 782.6,-211.08 579.09,-195.07"/>
<polygon fill="midnightblue" stroke="midnightblue" points="579.36,-191.58 569.11,-194.28 578.81,-198.56 579.36,-191.58"/>
</g>
<!-- Node38 -->
<g id="node38" class="node">
<title>Node38</title>
<g id="a_node38"><a xlink:title=" ">
<polygon fill="none" stroke="#bfbfbf" points="1395.59,-195 1316.59,-195 1316.59,-176 1395.59,-176 1395.59,-195"/>
<text text-anchor="middle" x="1356.09" y="-183" font-family="Helvetica,sans-Serif" font-size="10.00">openssl/err.h</text>
</a>
</g>
</g>
<!-- Node37&#45;&gt;Node38 -->
<g id="edge46" class="edge">
<title>Node37&#45;&gt;Node38</title>
<path fill="none" stroke="midnightblue" d="M1232.71,-230.98C1257,-222.23 1295.04,-208.51 1322.46,-198.62"/>
<polygon fill="midnightblue" stroke="midnightblue" points="1323.82,-201.85 1332.04,-195.17 1321.45,-195.27 1323.82,-201.85"/>
</g>
<!-- Node39 -->
<g id="node39" class="node">
<title>Node39</title>
<g id="a_node39"><a xlink:title=" ">
<polygon fill="none" stroke="#bfbfbf" points="1494.09,-195 1414.09,-195 1414.09,-176 1494.09,-176 1494.09,-195"/>
<text text-anchor="middle" x="1454.09" y="-183" font-family="Helvetica,sans-Serif" font-size="10.00">openssl/ssl.h</text>
</a>
</g>
</g>
<!-- Node37&#45;&gt;Node39 -->
<g id="edge47" class="edge">
<title>Node37&#45;&gt;Node39</title>
<path fill="none" stroke="midnightblue" d="M1248.45,-230.98C1290.83,-221.82 1358.35,-207.21 1404.37,-197.26"/>
<polygon fill="midnightblue" stroke="midnightblue" points="1405.38,-200.62 1414.42,-195.08 1403.9,-193.78 1405.38,-200.62"/>
</g>
<!-- Node40 -->
<g id="node40" class="node">
<title>Node40</title>
<g id="a_node40"><a xlink:title=" ">
<polygon fill="none" stroke="#bfbfbf" points="1559.59,-195 1512.59,-195 1512.59,-176 1559.59,-176 1559.59,-195"/>
<text text-anchor="middle" x="1536.09" y="-183" font-family="Helvetica,sans-Serif" font-size="10.00">fcntl.h</text>
</a>
</g>
</g>
<!-- Node37&#45;&gt;Node40 -->
<g id="edge48" class="edge">
<title>Node37&#45;&gt;Node40</title>
<path fill="none" stroke="midnightblue" d="M1278.94,-230.97C1336.4,-223.48 1420.11,-211.5 1502.35,-194.96"/>
<polygon fill="midnightblue" stroke="midnightblue" points="1503.26,-198.34 1512.36,-192.92 1501.87,-191.49 1503.26,-198.34"/>
</g>
<!-- Node41 -->
<g id="node41" class="node">
<title>Node41</title>
<g id="a_node41"><a xlink:title=" ">
<polygon fill="none" stroke="#bfbfbf" points="1630.59,-195 1577.59,-195 1577.59,-176 1630.59,-176 1630.59,-195"/>
<text text-anchor="middle" x="1604.09" y="-183" font-family="Helvetica,sans-Serif" font-size="10.00">netdb.h</text>
</a>
</g>
</g>
<!-- Node37&#45;&gt;Node41 -->
<g id="edge49" class="edge">
<title>Node37&#45;&gt;Node41</title>
<path fill="none" stroke="midnightblue" d="M1290.74,-231.93C1361.4,-224.79 1466.48,-212.78 1567.36,-194.94"/>
<polygon fill="midnightblue" stroke="midnightblue" points="1568.19,-198.34 1577.42,-193.14 1566.96,-191.45 1568.19,-198.34"/>
</g>
<!-- Node42 -->
<g id="node42" class="node">
<title>Node42</title>
<g id="a_node42"><a xlink:title=" ">
<polygon fill="none" stroke="#bfbfbf" points="659.09,-195 587.09,-195 587.09,-176 659.09,-176 659.09,-195"/>
<text text-anchor="middle" x="623.09" y="-183" font-family="Helvetica,sans-Serif" font-size="10.00">netinet/in.h</text>
</a>
</g>
</g>
<!-- Node37&#45;&gt;Node42 -->
<g id="edge50" class="edge">
<title>Node37&#45;&gt;Node42</title>
<path fill="none" stroke="midnightblue" d="M1127.23,-235.44C1023.09,-229.67 837.55,-217.4 669.41,-195.04"/>
<polygon fill="midnightblue" stroke="midnightblue" points="669.76,-191.56 659.39,-193.69 668.83,-198.49 669.76,-191.56"/>
</g>
<!-- Node43 -->
<g id="node43" class="node">
<title>Node43</title>
<g id="a_node43"><a xlink:title=" ">
<polygon fill="none" stroke="#bfbfbf" points="755.09,-195 677.09,-195 677.09,-176 755.09,-176 755.09,-195"/>
<text text-anchor="middle" x="716.09" y="-183" font-family="Helvetica,sans-Serif" font-size="10.00">netinet/tcp.h</text>
</a>
</g>
</g>
<!-- Node37&#45;&gt;Node43 -->
<g id="edge51" class="edge">
<title>Node37&#45;&gt;Node43</title>
<path fill="none" stroke="midnightblue" d="M1127.26,-233.18C1040.01,-226.02 897.58,-213.12 765.26,-195.07"/>
<polygon fill="midnightblue" stroke="midnightblue" points="765.73,-191.6 755.34,-193.7 764.77,-198.53 765.73,-191.6"/>
</g>
<!-- Node44 -->
<g id="node44" class="node">
<title>Node44</title>
<g id="a_node44"><a xlink:title=" ">
<polygon fill="none" stroke="#bfbfbf" points="826.59,-195 773.59,-195 773.59,-176 826.59,-176 826.59,-195"/>
<text text-anchor="middle" x="800.09" y="-183" font-family="Helvetica,sans-Serif" font-size="10.00">stdint.h</text>
</a>
</g>
</g>
<!-- Node37&#45;&gt;Node44 -->
<g id="edge52" class="edge">
<title>Node37&#45;&gt;Node44</title>
<path fill="none" stroke="midnightblue" d="M1127.33,-232.62C1053.58,-225.75 942,-213.76 836.62,-195.1"/>
<polygon fill="midnightblue" stroke="midnightblue" points="837.23,-191.65 826.77,-193.33 836,-198.54 837.23,-191.65"/>
</g>
<!-- Node45 -->
<g id="node45" class="node">
<title>Node45</title>
<g id="a_node45"><a xlink:title=" ">
<polygon fill="none" stroke="#bfbfbf" points="913.59,-195 844.59,-195 844.59,-176 913.59,-176 913.59,-195"/>
<text text-anchor="middle" x="879.09" y="-183" font-family="Helvetica,sans-Serif" font-size="10.00">sys/epoll.h</text>
</a>
</g>
</g>
<!-- Node37&#45;&gt;Node45 -->
<g id="edge53" class="edge">
<title>Node37&#45;&gt;Node45</title>
<path fill="none" stroke="midnightblue" d="M1149.33,-230.97C1093.41,-222.82 1007.29,-209.84 923.71,-195.23"/>
<polygon fill="midnightblue" stroke="midnightblue" points="924.26,-191.77 913.8,-193.49 923.04,-198.67 924.26,-191.77"/>
</g>
<!-- Node46 -->
<g id="node46" class="node">
<title>Node46</title>
<g id="a_node46"><a xlink:title=" ">
<polygon fill="none" stroke="#bfbfbf" points="1000.59,-195 931.59,-195 931.59,-176 1000.59,-176 1000.59,-195"/>
<text text-anchor="middle" x="966.09" y="-183" font-family="Helvetica,sans-Serif" font-size="10.00">arpa/inet.h</text>
</a>
</g>
</g>
<!-- Node37&#45;&gt;Node46 -->
<g id="edge54" class="edge">
<title>Node37&#45;&gt;Node46</title>
<path fill="none" stroke="midnightblue" d="M1170.05,-230.98C1126.52,-221.49 1056.25,-206.16 1010.62,-196.21"/>
<polygon fill="midnightblue" stroke="midnightblue" points="1011.22,-192.76 1000.71,-194.05 1009.73,-199.6 1011.22,-192.76"/>
</g>
<!-- Node47 -->
<g id="node47" class="node">
<title>Node47</title>
<g id="a_node47"><a xlink:title=" ">
<polygon fill="none" stroke="#bfbfbf" points="1095.59,-195 1018.59,-195 1018.59,-176 1095.59,-176 1095.59,-195"/>
<text text-anchor="middle" x="1057.09" y="-183" font-family="Helvetica,sans-Serif" font-size="10.00">sys/socket.h</text>
</a>
</g>
</g>
<!-- Node37&#45;&gt;Node47 -->
<g id="edge55" class="edge">
<title>Node37&#45;&gt;Node47</title>
<path fill="none" stroke="midnightblue" d="M1184.67,-230.98C1159.37,-222.16 1119.64,-208.31 1091.23,-198.41"/>
<polygon fill="midnightblue" stroke="midnightblue" points="1092.3,-195.07 1081.7,-195.08 1089.99,-201.68 1092.3,-195.07"/>
</g>
<!-- Node48 -->
<g id="node48" class="node">
<title>Node48</title>
<g id="a_node48"><a xlink:title=" ">
<polygon fill="none" stroke="#bfbfbf" points="1186.09,-195 1114.09,-195 1114.09,-176 1186.09,-176 1186.09,-195"/>
<text text-anchor="middle" x="1150.09" y="-183" font-family="Helvetica,sans-Serif" font-size="10.00">sys/types.h</text>
</a>
</g>
</g>
<!-- Node37&#45;&gt;Node48 -->
<g id="edge56" class="edge">
<title>Node37&#45;&gt;Node48</title>
<path fill="none" stroke="midnightblue" d="M1199.61,-230.98C1190.89,-223.15 1177.75,-211.34 1167.19,-201.86"/>
<polygon fill="midnightblue" stroke="midnightblue" points="1169.52,-199.25 1159.74,-195.17 1164.84,-204.46 1169.52,-199.25"/>
</g>
<!-- Node49 -->
<g id="node49" class="node">
<title>Node49</title>
<g id="a_node49"><a xlink:title=" ">
<polygon fill="none" stroke="#bfbfbf" points="1260.09,-195 1204.09,-195 1204.09,-176 1260.09,-176 1260.09,-195"/>
<text text-anchor="middle" x="1232.09" y="-183" font-family="Helvetica,sans-Serif" font-size="10.00">unistd.h</text>
</a>
</g>
</g>
<!-- Node37&#45;&gt;Node49 -->
<g id="edge57" class="edge">
<title>Node37&#45;&gt;Node49</title>
<path fill="none" stroke="midnightblue" d="M1212.89,-230.75C1216,-223.57 1220.51,-213.18 1224.38,-204.27"/>
<polygon fill="midnightblue" stroke="midnightblue" points="1227.59,-205.66 1228.36,-195.09 1221.17,-202.87 1227.59,-205.66"/>
</g>
<!-- Node51&#45;&gt;Node2 -->
<g id="edge60" class="edge">
<title>Node51&#45;&gt;Node2</title>
<path fill="none" stroke="midnightblue" d="M1743.82,-395.83C1753.16,-377.87 1773.09,-335.03 1773.09,-296.5 1773.09,-296.5 1773.09,-296.5 1773.09,-239.5 1773.09,-209.33 1767.57,-199.85 1749.09,-176 1739.8,-164.01 1726.85,-153.73 1714.55,-145.66"/>
<polygon fill="midnightblue" stroke="midnightblue" points="1716.11,-142.5 1705.77,-140.18 1712.4,-148.44 1716.11,-142.5"/>
</g>
</g>
</svg>
