<?xml version="1.0" encoding="UTF-8" standalone="no"?>
<!DOCTYPE svg PUBLIC "-//W3C//DTD SVG 1.1//EN"
 "http://www.w3.org/Graphics/SVG/1.1/DTD/svg11.dtd">
<!-- Generated by graphviz version 2.43.0 (0)
 -->
<!-- Title: GuildEntities.hpp Pages: 1 -->
<svg width="1486pt" height="252pt"
 viewBox="0.00 0.00 1486.00 252.00" xmlns="http://www.w3.org/2000/svg" xmlns:xlink="http://www.w3.org/1999/xlink">
<g id="graph0" class="graph" transform="scale(1 1) rotate(0) translate(4 248)">
<title>GuildEntities.hpp</title>
<!-- Node1 -->
<g id="node1" class="node">
<title>Node1</title>
<g id="a_node1"><a xlink:title=" ">
<polygon fill="#bfbfbf" stroke="black" points="864.5,-224.5 864.5,-243.5 964.5,-243.5 964.5,-224.5 864.5,-224.5"/>
<text text-anchor="middle" x="914.5" y="-231.5" font-family="Helvetica,sans-Serif" font-size="10.00">GuildEntities.hpp</text>
</a>
</g>
</g>
<!-- Node2 -->
<g id="node2" class="node">
<title>Node2</title>
<g id="a_node2"><a xlink:href="../../df/dbb/a00698.html" target="_top" xlink:title=" ">
<polygon fill="none" stroke="black" points="662,-112.5 662,-131.5 787,-131.5 787,-112.5 662,-112.5"/>
<text text-anchor="middle" x="724.5" y="-119.5" font-family="Helvetica,sans-Serif" font-size="10.00">DiscordCoreClient.hpp</text>
</a>
</g>
</g>
<!-- Node1&#45;&gt;Node2 -->
<g id="edge1" class="edge">
<title>Node1&#45;&gt;Node2</title>
<path fill="none" stroke="midnightblue" d="M876.33,-221.25C853.72,-213.46 825.01,-202.09 801.5,-188 773.89,-171.45 746.19,-145.11 732.79,-131.61"/>
<polygon fill="midnightblue" stroke="midnightblue" points="875.33,-224.6 885.92,-224.47 877.55,-217.97 875.33,-224.6"/>
</g>
<!-- Node8 -->
<g id="node8" class="node">
<title>Node8</title>
<g id="a_node8"><a xlink:href="../../d3/d60/a00818.html" target="_top" xlink:title=" ">
<polygon fill="none" stroke="black" points="1379,-56.5 1379,-75.5 1478,-75.5 1478,-56.5 1379,-56.5"/>
<text text-anchor="middle" x="1428.5" y="-63.5" font-family="Helvetica,sans-Serif" font-size="10.00">GuildEntities.cpp</text>
</a>
</g>
</g>
<!-- Node1&#45;&gt;Node8 -->
<g id="edge21" class="edge">
<title>Node1&#45;&gt;Node8</title>
<path fill="none" stroke="midnightblue" d="M879.1,-220.73C850.08,-208.77 816.5,-189.31 834.5,-168 843.36,-157.5 1237.86,-96.19 1378.97,-74.56"/>
<polygon fill="midnightblue" stroke="midnightblue" points="878.1,-224.1 888.69,-224.49 880.66,-217.58 878.1,-224.1"/>
</g>
<!-- Node16 -->
<g id="node16" class="node">
<title>Node16</title>
<g id="a_node16"><a xlink:href="../../d1/d56/a00707.html" target="_top" xlink:title=" ">
<polygon fill="none" stroke="black" points="543,-168.5 543,-187.5 650,-187.5 650,-168.5 543,-168.5"/>
<text text-anchor="middle" x="596.5" y="-175.5" font-family="Helvetica,sans-Serif" font-size="10.00">EventManager.hpp</text>
</a>
</g>
</g>
<!-- Node1&#45;&gt;Node16 -->
<g id="edge15" class="edge">
<title>Node1&#45;&gt;Node16</title>
<path fill="none" stroke="midnightblue" d="M854.37,-222.79C794.32,-212.59 703.08,-197.1 646.77,-187.54"/>
<polygon fill="midnightblue" stroke="midnightblue" points="854.02,-226.28 864.46,-224.5 855.19,-219.38 854.02,-226.28"/>
</g>
<!-- Node17 -->
<g id="node17" class="node">
<title>Node17</title>
<g id="a_node17"><a xlink:href="../../df/d0e/a00800.html" target="_top" xlink:title=" ">
<polygon fill="none" stroke="black" points="843.5,-168.5 843.5,-187.5 985.5,-187.5 985.5,-168.5 843.5,-168.5"/>
<text text-anchor="middle" x="914.5" y="-175.5" font-family="Helvetica,sans-Serif" font-size="10.00">DataParsingFunctions.cpp</text>
</a>
</g>
</g>
<!-- Node1&#45;&gt;Node17 -->
<g id="edge19" class="edge">
<title>Node1&#45;&gt;Node17</title>
<path fill="none" stroke="midnightblue" d="M914.5,-213.8C914.5,-204.91 914.5,-194.78 914.5,-187.75"/>
<polygon fill="midnightblue" stroke="midnightblue" points="911,-214.08 914.5,-224.08 918,-214.08 911,-214.08"/>
</g>
<!-- Node18 -->
<g id="node18" class="node">
<title>Node18</title>
<g id="a_node18"><a xlink:href="../../d8/d2d/a00815.html" target="_top" xlink:title=" ">
<polygon fill="none" stroke="black" points="1003.5,-168.5 1003.5,-187.5 1131.5,-187.5 1131.5,-168.5 1003.5,-168.5"/>
<text text-anchor="middle" x="1067.5" y="-175.5" font-family="Helvetica,sans-Serif" font-size="10.00">FoundationEntities.cpp</text>
</a>
</g>
</g>
<!-- Node1&#45;&gt;Node18 -->
<g id="edge20" class="edge">
<title>Node1&#45;&gt;Node18</title>
<path fill="none" stroke="midnightblue" d="M948.39,-221.04C977.18,-210.88 1017.79,-196.55 1043.37,-187.52"/>
<polygon fill="midnightblue" stroke="midnightblue" points="947.01,-217.81 938.74,-224.44 949.34,-224.42 947.01,-217.81"/>
</g>
<!-- Node19 -->
<g id="node19" class="node">
<title>Node19</title>
<g id="a_node19"><a xlink:href="../../d6/d8b/a00821.html" target="_top" xlink:title=" ">
<polygon fill="none" stroke="black" points="1149.5,-168.5 1149.5,-187.5 1289.5,-187.5 1289.5,-168.5 1149.5,-168.5"/>
<text text-anchor="middle" x="1219.5" y="-175.5" font-family="Helvetica,sans-Serif" font-size="10.00">GuildMemberEntities.cpp</text>
</a>
</g>
</g>
<!-- Node1&#45;&gt;Node19 -->
<g id="edge22" class="edge">
<title>Node1&#45;&gt;Node19</title>
<path fill="none" stroke="midnightblue" d="M972.88,-222.66C1030.52,-212.46 1117.62,-197.04 1171.4,-187.52"/>
<polygon fill="midnightblue" stroke="midnightblue" points="972.06,-219.25 962.83,-224.44 973.29,-226.15 972.06,-219.25"/>
</g>
<!-- Node20 -->
<g id="node20" class="node">
<title>Node20</title>
<g id="a_node20"><a xlink:href="../../d3/db2/a00869.html" target="_top" xlink:title=" ">
<polygon fill="none" stroke="black" points="1308,-168.5 1308,-187.5 1383,-187.5 1383,-168.5 1308,-168.5"/>
<text text-anchor="middle" x="1345.5" y="-175.5" font-family="Helvetica,sans-Serif" font-size="10.00">Utilities.cpp</text>
</a>
</g>
</g>
<!-- Node1&#45;&gt;Node20 -->
<g id="edge23" class="edge">
<title>Node1&#45;&gt;Node20</title>
<path fill="none" stroke="midnightblue" d="M974.97,-227.28C1050.78,-219.8 1184.61,-205.55 1298.5,-188 1301.54,-187.53 1304.68,-187.01 1307.83,-186.46"/>
<polygon fill="midnightblue" stroke="midnightblue" points="974.28,-223.83 964.67,-228.29 974.96,-230.8 974.28,-223.83"/>
</g>
<!-- Node3 -->
<g id="node3" class="node">
<title>Node3</title>
<g id="a_node3"><a xlink:href="../../d8/db9/a00725.html" target="_top" xlink:title=" ">
<polygon fill="none" stroke="black" points="270,-56.5 270,-75.5 335,-75.5 335,-56.5 270,-56.5"/>
<text text-anchor="middle" x="302.5" y="-63.5" font-family="Helvetica,sans-Serif" font-size="10.00">Index.hpp</text>
</a>
</g>
</g>
<!-- Node2&#45;&gt;Node3 -->
<g id="edge2" class="edge">
<title>Node2&#45;&gt;Node3</title>
<path fill="none" stroke="midnightblue" d="M651.8,-114.56C574.91,-107.25 450.2,-93.97 343.5,-76 340.77,-75.54 337.95,-75.02 335.12,-74.46"/>
<polygon fill="midnightblue" stroke="midnightblue" points="651.58,-118.06 661.87,-115.51 652.24,-111.09 651.58,-118.06"/>
</g>
<!-- Node5 -->
<g id="node5" class="node">
<title>Node5</title>
<g id="a_node5"><a xlink:href="../../da/d96/a00782.html" target="_top" xlink:title=" ">
<polygon fill="none" stroke="black" points="353,-56.5 353,-75.5 532,-75.5 532,-56.5 353,-56.5"/>
<text text-anchor="middle" x="442.5" y="-63.5" font-family="Helvetica,sans-Serif" font-size="10.00">ApplicationCommandEntities.cpp</text>
</a>
</g>
</g>
<!-- Node2&#45;&gt;Node5 -->
<g id="edge4" class="edge">
<title>Node2&#45;&gt;Node5</title>
<path fill="none" stroke="midnightblue" d="M669.86,-110.54C616.56,-100.33 536.5,-85 486.97,-75.52"/>
<polygon fill="midnightblue" stroke="midnightblue" points="669.34,-114 679.82,-112.44 670.65,-107.13 669.34,-114"/>
</g>
<!-- Node6 -->
<g id="node6" class="node">
<title>Node6</title>
<g id="a_node6"><a xlink:href="../../d5/d72/a00803.html" target="_top" xlink:title=" ">
<polygon fill="none" stroke="black" points="550,-56.5 550,-75.5 675,-75.5 675,-56.5 550,-56.5"/>
<text text-anchor="middle" x="612.5" y="-63.5" font-family="Helvetica,sans-Serif" font-size="10.00">DiscordCoreClient.cpp</text>
</a>
</g>
</g>
<!-- Node2&#45;&gt;Node6 -->
<g id="edge5" class="edge">
<title>Node2&#45;&gt;Node6</title>
<path fill="none" stroke="midnightblue" d="M697.25,-107.86C676.48,-97.85 648.48,-84.35 630.45,-75.65"/>
<polygon fill="midnightblue" stroke="midnightblue" points="695.98,-111.13 706.51,-112.32 699.02,-104.83 695.98,-111.13"/>
</g>
<!-- Node7 -->
<g id="node7" class="node">
<title>Node7</title>
<g id="a_node7"><a xlink:href="../../d8/db7/a00812.html" target="_top" xlink:title=" ">
<polygon fill="none" stroke="black" points="0,-56.5 0,-75.5 107,-75.5 107,-56.5 0,-56.5"/>
<text text-anchor="middle" x="53.5" y="-63.5" font-family="Helvetica,sans-Serif" font-size="10.00">EventManager.cpp</text>
</a>
</g>
</g>
<!-- Node2&#45;&gt;Node7 -->
<g id="edge6" class="edge">
<title>Node2&#45;&gt;Node7</title>
<path fill="none" stroke="midnightblue" d="M651.64,-117.28C537.24,-111.06 308.59,-97.12 115.5,-76 112.8,-75.7 110.03,-75.38 107.24,-75.04"/>
<polygon fill="midnightblue" stroke="midnightblue" points="651.51,-120.78 661.68,-117.82 651.89,-113.79 651.51,-120.78"/>
</g>
<!-- Node2&#45;&gt;Node8 -->
<g id="edge7" class="edge">
<title>Node2&#45;&gt;Node8</title>
<path fill="none" stroke="midnightblue" d="M797.06,-112.41C798.55,-112.27 800.03,-112.13 801.5,-112 1053.43,-89.31 1118,-103.1 1369.5,-76 1372.59,-75.67 1375.77,-75.29 1378.97,-74.88"/>
<polygon fill="midnightblue" stroke="midnightblue" points="796.69,-108.93 787.09,-113.4 797.38,-115.9 796.69,-108.93"/>
</g>
<!-- Node9 -->
<g id="node9" class="node">
<title>Node9</title>
<g id="a_node9"><a xlink:href="../../dc/d1b/a00827.html" target="_top" xlink:title=" ">
<polygon fill="none" stroke="black" points="693,-56.5 693,-75.5 756,-75.5 756,-56.5 693,-56.5"/>
<text text-anchor="middle" x="724.5" y="-63.5" font-family="Helvetica,sans-Serif" font-size="10.00">Https.cpp</text>
</a>
</g>
</g>
<!-- Node2&#45;&gt;Node9 -->
<g id="edge8" class="edge">
<title>Node2&#45;&gt;Node9</title>
<path fill="none" stroke="midnightblue" d="M724.5,-101.8C724.5,-92.91 724.5,-82.78 724.5,-75.75"/>
<polygon fill="midnightblue" stroke="midnightblue" points="721,-102.08 724.5,-112.08 728,-102.08 721,-102.08"/>
</g>
<!-- Node10 -->
<g id="node10" class="node">
<title>Node10</title>
<g id="a_node10"><a xlink:href="../../d3/d13/a00836.html" target="_top" xlink:title=" ">
<polygon fill="none" stroke="black" points="774,-56.5 774,-75.5 891,-75.5 891,-56.5 774,-56.5"/>
<text text-anchor="middle" x="832.5" y="-63.5" font-family="Helvetica,sans-Serif" font-size="10.00">MessageEntities.cpp</text>
</a>
</g>
</g>
<!-- Node2&#45;&gt;Node10 -->
<g id="edge9" class="edge">
<title>Node2&#45;&gt;Node10</title>
<path fill="none" stroke="midnightblue" d="M751.05,-107.73C771.05,-97.73 797.89,-84.31 815.19,-75.65"/>
<polygon fill="midnightblue" stroke="midnightblue" points="749.23,-104.72 741.85,-112.32 752.36,-110.98 749.23,-104.72"/>
</g>
<!-- Node11 -->
<g id="node11" class="node">
<title>Node11</title>
<g id="a_node11"><a xlink:href="../../d7/dcf/a00845.html" target="_top" xlink:title=" ">
<polygon fill="none" stroke="black" points="909,-56.5 909,-75.5 986,-75.5 986,-56.5 909,-56.5"/>
<text text-anchor="middle" x="947.5" y="-63.5" font-family="Helvetica,sans-Serif" font-size="10.00">SongAPI.cpp</text>
</a>
</g>
</g>
<!-- Node2&#45;&gt;Node11 -->
<g id="edge10" class="edge">
<title>Node2&#45;&gt;Node11</title>
<path fill="none" stroke="midnightblue" d="M769.56,-110.09C811.69,-99.89 873.74,-84.86 912.33,-75.52"/>
<polygon fill="midnightblue" stroke="midnightblue" points="768.73,-106.69 759.84,-112.44 770.38,-113.49 768.73,-106.69"/>
</g>
<!-- Node12 -->
<g id="node12" class="node">
<title>Node12</title>
<g id="a_node12"><a xlink:href="../../d9/d30/a00848.html" target="_top" xlink:title=" ">
<polygon fill="none" stroke="black" points="1004.5,-56.5 1004.5,-75.5 1114.5,-75.5 1114.5,-56.5 1004.5,-56.5"/>
<text text-anchor="middle" x="1059.5" y="-63.5" font-family="Helvetica,sans-Serif" font-size="10.00">SoundCloudAPI.cpp</text>
</a>
</g>
</g>
<!-- Node2&#45;&gt;Node12 -->
<g id="edge11" class="edge">
<title>Node2&#45;&gt;Node12</title>
<path fill="none" stroke="midnightblue" d="M787.84,-110.79C851.14,-100.59 947.35,-85.08 1006.67,-75.52"/>
<polygon fill="midnightblue" stroke="midnightblue" points="786.9,-107.4 777.58,-112.44 788.01,-114.31 786.9,-107.4"/>
</g>
<!-- Node13 -->
<g id="node13" class="node">
<title>Node13</title>
<g id="a_node13"><a xlink:href="../../dc/d17/a00872.html" target="_top" xlink:title=" ">
<polygon fill="none" stroke="black" points="1132.5,-56.5 1132.5,-75.5 1250.5,-75.5 1250.5,-56.5 1132.5,-56.5"/>
<text text-anchor="middle" x="1191.5" y="-63.5" font-family="Helvetica,sans-Serif" font-size="10.00">VoiceConnection.cpp</text>
</a>
</g>
</g>
<!-- Node2&#45;&gt;Node13 -->
<g id="edge12" class="edge">
<title>Node2&#45;&gt;Node13</title>
<path fill="none" stroke="midnightblue" d="M797.07,-112.51C798.56,-112.34 800.04,-112.17 801.5,-112 944.57,-95.64 980.56,-93.45 1123.5,-76 1126.34,-75.65 1129.24,-75.29 1132.17,-74.92"/>
<polygon fill="midnightblue" stroke="midnightblue" points="796.65,-109.03 787.11,-113.66 797.45,-115.99 796.65,-109.03"/>
</g>
<!-- Node14 -->
<g id="node14" class="node">
<title>Node14</title>
<g id="a_node14"><a xlink:href="../../d5/d69/a00878.html" target="_top" xlink:title=" ">
<polygon fill="none" stroke="black" points="125,-56.5 125,-75.5 252,-75.5 252,-56.5 125,-56.5"/>
<text text-anchor="middle" x="188.5" y="-63.5" font-family="Helvetica,sans-Serif" font-size="10.00">WebSocketEntities.cpp</text>
</a>
</g>
</g>
<!-- Node2&#45;&gt;Node14 -->
<g id="edge13" class="edge">
<title>Node2&#45;&gt;Node14</title>
<path fill="none" stroke="midnightblue" d="M651.8,-114.58C560.39,-106.36 398.7,-91.34 260.5,-76 257.75,-75.69 254.93,-75.37 252.09,-75.05"/>
<polygon fill="midnightblue" stroke="midnightblue" points="651.5,-118.06 661.78,-115.47 652.13,-111.09 651.5,-118.06"/>
</g>
<!-- Node15 -->
<g id="node15" class="node">
<title>Node15</title>
<g id="a_node15"><a xlink:href="../../df/d41/a00881.html" target="_top" xlink:title=" ">
<polygon fill="none" stroke="black" points="1268.5,-56.5 1268.5,-75.5 1360.5,-75.5 1360.5,-56.5 1268.5,-56.5"/>
<text text-anchor="middle" x="1314.5" y="-63.5" font-family="Helvetica,sans-Serif" font-size="10.00">YouTubeAPI.cpp</text>
</a>
</g>
</g>
<!-- Node2&#45;&gt;Node15 -->
<g id="edge14" class="edge">
<title>Node2&#45;&gt;Node15</title>
<path fill="none" stroke="midnightblue" d="M797.06,-112.44C798.55,-112.29 800.03,-112.14 801.5,-112 1004.72,-92.14 1056.79,-100.51 1259.5,-76 1262.38,-75.65 1265.34,-75.26 1268.33,-74.84"/>
<polygon fill="midnightblue" stroke="midnightblue" points="796.68,-108.96 787.09,-113.48 797.4,-115.92 796.68,-108.96"/>
</g>
<!-- Node4 -->
<g id="node4" class="node">
<title>Node4</title>
<g id="a_node4"><a xlink:href="../../d0/dad/a00806.html" target="_top" xlink:title=" ">
<polygon fill="none" stroke="black" points="265.5,-0.5 265.5,-19.5 339.5,-19.5 339.5,-0.5 265.5,-0.5"/>
<text text-anchor="middle" x="302.5" y="-7.5" font-family="Helvetica,sans-Serif" font-size="10.00">DllMain.cpp</text>
</a>
</g>
</g>
<!-- Node3&#45;&gt;Node4 -->
<g id="edge3" class="edge">
<title>Node3&#45;&gt;Node4</title>
<path fill="none" stroke="midnightblue" d="M302.5,-45.8C302.5,-36.91 302.5,-26.78 302.5,-19.75"/>
<polygon fill="midnightblue" stroke="midnightblue" points="299,-46.08 302.5,-56.08 306,-46.08 299,-46.08"/>
</g>
<!-- Node16&#45;&gt;Node2 -->
<g id="edge16" class="edge">
<title>Node16&#45;&gt;Node2</title>
<path fill="none" stroke="midnightblue" d="M626.12,-164.5C650.12,-154.38 683.28,-140.39 704.31,-131.52"/>
<polygon fill="midnightblue" stroke="midnightblue" points="624.64,-161.33 616.78,-168.44 627.36,-167.78 624.64,-161.33"/>
</g>
<!-- Node16&#45;&gt;Node7 -->
<g id="edge17" class="edge">
<title>Node16&#45;&gt;Node7</title>
<path fill="none" stroke="midnightblue" d="M537.92,-166.73C488.43,-157.93 415.72,-144.7 352.5,-132 258.23,-113.07 147.8,-88.41 91.18,-75.59"/>
<polygon fill="midnightblue" stroke="midnightblue" points="537.35,-170.19 547.8,-168.49 538.57,-163.29 537.35,-170.19"/>
</g>
<!-- Node16&#45;&gt;Node14 -->
<g id="edge18" class="edge">
<title>Node16&#45;&gt;Node14</title>
<path fill="none" stroke="midnightblue" d="M555.14,-165.85C473.49,-143.84 293.2,-95.23 220.16,-75.53"/>
<polygon fill="midnightblue" stroke="midnightblue" points="554.26,-169.24 564.82,-168.46 556.08,-162.48 554.26,-169.24"/>
</g>
</g>
</svg>
