<?xml version="1.0" encoding="UTF-8" standalone="no"?>
<!DOCTYPE svg PUBLIC "-//W3C//DTD SVG 1.1//EN"
 "http://www.w3.org/Graphics/SVG/1.1/DTD/svg11.dtd">
<!-- Generated by graphviz version 3.0.0 (20220226.1711)
 -->
<!-- Title: InputEvents.hpp Pages: 1 -->
<svg width="1798pt" height="554pt"
 viewBox="0.00 0.00 1798.00 554.00" xmlns="http://www.w3.org/2000/svg" xmlns:xlink="http://www.w3.org/1999/xlink">
<g id="graph0" class="graph" transform="scale(1 1) rotate(0) translate(4 550)">
<title>InputEvents.hpp</title>
<!-- Node1 -->
<g id="node1" class="node">
<title>Node1</title>
<g id="a_node1"><a xlink:title=" ">
<polygon fill="#bfbfbf" stroke="black" points="609.5,-526.5 609.5,-545.5 695.5,-545.5 695.5,-526.5 609.5,-526.5"/>
<text text-anchor="middle" x="652.5" y="-533.5" font-family="Helvetica,sans-Serif" font-size="10.00">InputEvents.hpp</text>
</a>
</g>
</g>
<!-- Node2 -->
<g id="node2" class="node">
<title>Node2</title>
<g id="a_node2"><a xlink:href="../../d4/deb/a00710.html" target="_top" xlink:title=" ">
<polygon fill="none" stroke="black" points="962,-112.5 962,-142.5 1093,-142.5 1093,-112.5 962,-112.5"/>
<text text-anchor="start" x="970" y="-130.5" font-family="Helvetica,sans-Serif" font-size="10.00">discordcoreapi/Foundation</text>
<text text-anchor="middle" x="1027.5" y="-119.5" font-family="Helvetica,sans-Serif" font-size="10.00">Entities.hpp</text>
</a>
</g>
</g>
<!-- Node1&#45;&gt;Node2 -->
<g id="edge1" class="edge">
<title>Node1&#45;&gt;Node2</title>
<path fill="none" stroke="midnightblue" d="M622.25,-526.46C577.14,-511.65 497.5,-476.64 497.5,-414 497.5,-414 497.5,-414 497.5,-244 497.5,-207.82 515.01,-196.81 546.5,-179 613.97,-140.84 834.28,-131.46 951.9,-129.19"/>
<polygon fill="midnightblue" stroke="midnightblue" points="951.98,-132.69 961.92,-129.01 951.86,-125.69 951.98,-132.69"/>
</g>
<!-- Node28 -->
<g id="node28" class="node">
<title>Node28</title>
<g id="a_node28"><a xlink:href="../../df/df7/a00731.html" target="_top" xlink:title=" ">
<polygon fill="none" stroke="black" points="588.5,-459.5 588.5,-489.5 716.5,-489.5 716.5,-459.5 588.5,-459.5"/>
<text text-anchor="start" x="596.5" y="-477.5" font-family="Helvetica,sans-Serif" font-size="10.00">discordcoreapi/Interaction</text>
<text text-anchor="middle" x="652.5" y="-466.5" font-family="Helvetica,sans-Serif" font-size="10.00">Entities.hpp</text>
</a>
</g>
</g>
<!-- Node1&#45;&gt;Node28 -->
<g id="edge27" class="edge">
<title>Node1&#45;&gt;Node28</title>
<path fill="none" stroke="midnightblue" d="M652.5,-526.48C652.5,-519.47 652.5,-509.19 652.5,-499.7"/>
<polygon fill="midnightblue" stroke="midnightblue" points="656,-499.52 652.5,-489.52 649,-499.52 656,-499.52"/>
</g>
<!-- Node29 -->
<g id="node29" class="node">
<title>Node29</title>
<g id="a_node29"><a xlink:href="../../d6/dc0/a00734.html" target="_top" xlink:title=" ">
<polygon fill="none" stroke="black" points="720.5,-347.5 720.5,-366.5 894.5,-366.5 894.5,-347.5 720.5,-347.5"/>
<text text-anchor="middle" x="807.5" y="-354.5" font-family="Helvetica,sans-Serif" font-size="10.00">discordcoreapi/MessageEntities.hpp</text>
</a>
</g>
</g>
<!-- Node1&#45;&gt;Node29 -->
<g id="edge51" class="edge">
<title>Node1&#45;&gt;Node29</title>
<path fill="none" stroke="midnightblue" d="M670.63,-526.36C686.26,-518.34 708.88,-505.36 725.5,-490 761.7,-456.56 787.99,-403.63 800.08,-376.06"/>
<polygon fill="midnightblue" stroke="midnightblue" points="803.31,-377.4 804.01,-366.82 796.87,-374.65 803.31,-377.4"/>
</g>
<!-- Node3 -->
<g id="node3" class="node">
<title>Node3</title>
<g id="a_node3"><a xlink:href="../../d5/dae/a00767.html" target="_top" xlink:title=" ">
<polygon fill="none" stroke="black" points="960.5,-56.5 960.5,-75.5 1094.5,-75.5 1094.5,-56.5 960.5,-56.5"/>
<text text-anchor="middle" x="1027.5" y="-63.5" font-family="Helvetica,sans-Serif" font-size="10.00">discordcoreapi/Utilities.hpp</text>
</a>
</g>
</g>
<!-- Node2&#45;&gt;Node3 -->
<g id="edge2" class="edge">
<title>Node2&#45;&gt;Node3</title>
<path fill="none" stroke="midnightblue" d="M1027.5,-112.4C1027.5,-104.47 1027.5,-94.46 1027.5,-85.86"/>
<polygon fill="midnightblue" stroke="midnightblue" points="1031,-85.66 1027.5,-75.66 1024,-85.66 1031,-85.66"/>
</g>
<!-- Node4 -->
<g id="node4" class="node">
<title>Node4</title>
<g id="a_node4"><a xlink:title=" ">
<polygon fill="none" stroke="#bfbfbf" points="0,-0.5 0,-19.5 57,-19.5 57,-0.5 0,-0.5"/>
<text text-anchor="middle" x="28.5" y="-7.5" font-family="Helvetica,sans-Serif" font-size="10.00">pthread.h</text>
</a>
</g>
</g>
<!-- Node3&#45;&gt;Node4 -->
<g id="edge3" class="edge">
<title>Node3&#45;&gt;Node4</title>
<path fill="none" stroke="midnightblue" d="M960.37,-63.48C775.08,-59.03 258.15,-44.84 66.97,-19.72"/>
<polygon fill="midnightblue" stroke="midnightblue" points="67.41,-16.24 57.03,-18.36 66.46,-23.18 67.41,-16.24"/>
</g>
<!-- Node5 -->
<g id="node5" class="node">
<title>Node5</title>
<g id="a_node5"><a xlink:title=" ">
<polygon fill="none" stroke="#bfbfbf" points="75.5,-0.5 75.5,-19.5 137.5,-19.5 137.5,-0.5 75.5,-0.5"/>
<text text-anchor="middle" x="106.5" y="-7.5" font-family="Helvetica,sans-Serif" font-size="10.00">sys/time.h</text>
</a>
</g>
</g>
<!-- Node3&#45;&gt;Node5 -->
<g id="edge4" class="edge">
<title>Node3&#45;&gt;Node5</title>
<path fill="none" stroke="midnightblue" d="M960.27,-65.45C813.99,-65.6 455.87,-61.41 147.87,-19.95"/>
<polygon fill="midnightblue" stroke="midnightblue" points="148.23,-16.47 137.85,-18.58 147.29,-23.4 148.23,-16.47"/>
</g>
<!-- Node6 -->
<g id="node6" class="node">
<title>Node6</title>
<g id="a_node6"><a xlink:title=" ">
<polygon fill="none" stroke="#bfbfbf" points="155.5,-0.5 155.5,-19.5 199.5,-19.5 199.5,-0.5 155.5,-0.5"/>
<text text-anchor="middle" x="177.5" y="-7.5" font-family="Helvetica,sans-Serif" font-size="10.00">time.h</text>
</a>
</g>
</g>
<!-- Node3&#45;&gt;Node6 -->
<g id="edge5" class="edge">
<title>Node3&#45;&gt;Node6</title>
<path fill="none" stroke="midnightblue" d="M960.38,-63.28C795.18,-58.74 371.22,-45.13 209.95,-19.79"/>
<polygon fill="midnightblue" stroke="midnightblue" points="210.15,-16.28 199.71,-18.1 209.01,-23.18 210.15,-16.28"/>
</g>
<!-- Node7 -->
<g id="node7" class="node">
<title>Node7</title>
<g id="a_node7"><a xlink:title=" ">
<polygon fill="none" stroke="#bfbfbf" points="218,-0.5 218,-19.5 259,-19.5 259,-0.5 218,-0.5"/>
<text text-anchor="middle" x="238.5" y="-7.5" font-family="Helvetica,sans-Serif" font-size="10.00">ctime</text>
</a>
</g>
</g>
<!-- Node3&#45;&gt;Node7 -->
<g id="edge6" class="edge">
<title>Node3&#45;&gt;Node7</title>
<path fill="none" stroke="midnightblue" d="M960.23,-63.1C803.79,-58.36 418.13,-44.68 269.54,-19.91"/>
<polygon fill="midnightblue" stroke="midnightblue" points="269.71,-16.38 259.26,-18.1 268.5,-23.28 269.71,-16.38"/>
</g>
<!-- Node8 -->
<g id="node8" class="node">
<title>Node8</title>
<g id="a_node8"><a xlink:title=" ">
<polygon fill="none" stroke="#bfbfbf" points="277,-0.5 277,-19.5 370,-19.5 370,-0.5 277,-0.5"/>
<text text-anchor="middle" x="323.5" y="-7.5" font-family="Helvetica,sans-Serif" font-size="10.00">condition_variable</text>
</a>
</g>
</g>
<!-- Node3&#45;&gt;Node8 -->
<g id="edge7" class="edge">
<title>Node3&#45;&gt;Node8</title>
<path fill="none" stroke="midnightblue" d="M960.15,-62.32C843.98,-57.27 598.27,-44.64 380.24,-19.97"/>
<polygon fill="midnightblue" stroke="midnightblue" points="380.54,-16.49 370.21,-18.83 379.75,-23.44 380.54,-16.49"/>
</g>
<!-- Node9 -->
<g id="node9" class="node">
<title>Node9</title>
<g id="a_node9"><a xlink:title=" ">
<polygon fill="none" stroke="#bfbfbf" points="388.5,-0.5 388.5,-19.5 486.5,-19.5 486.5,-0.5 388.5,-0.5"/>
<text text-anchor="middle" x="437.5" y="-7.5" font-family="Helvetica,sans-Serif" font-size="10.00">nlohmann/json.hpp</text>
</a>
</g>
</g>
<!-- Node3&#45;&gt;Node9 -->
<g id="edge8" class="edge">
<title>Node3&#45;&gt;Node9</title>
<path fill="none" stroke="midnightblue" d="M960.16,-60.81C860.97,-54.31 669.55,-40.48 496.57,-20.05"/>
<polygon fill="midnightblue" stroke="midnightblue" points="496.86,-16.56 486.51,-18.85 496.03,-23.51 496.86,-16.56"/>
</g>
<!-- Node10 -->
<g id="node10" class="node">
<title>Node10</title>
<g id="a_node10"><a xlink:title=" ">
<polygon fill="none" stroke="#bfbfbf" points="505,-0.5 505,-19.5 590,-19.5 590,-0.5 505,-0.5"/>
<text text-anchor="middle" x="547.5" y="-7.5" font-family="Helvetica,sans-Serif" font-size="10.00">source_location</text>
</a>
</g>
</g>
<!-- Node3&#45;&gt;Node10 -->
<g id="edge9" class="edge">
<title>Node3&#45;&gt;Node10</title>
<path fill="none" stroke="midnightblue" d="M960.44,-59.43C877.93,-52.25 733.33,-38.61 600.03,-20.13"/>
<polygon fill="midnightblue" stroke="midnightblue" points="600.43,-16.66 590.04,-18.74 599.46,-23.59 600.43,-16.66"/>
</g>
<!-- Node11 -->
<g id="node11" class="node">
<title>Node11</title>
<g id="a_node11"><a xlink:title=" ">
<polygon fill="none" stroke="#bfbfbf" points="608,-0.5 608,-19.5 691,-19.5 691,-0.5 608,-0.5"/>
<text text-anchor="middle" x="649.5" y="-7.5" font-family="Helvetica,sans-Serif" font-size="10.00">unordered_map</text>
</a>
</g>
</g>
<!-- Node3&#45;&gt;Node11 -->
<g id="edge10" class="edge">
<title>Node3&#45;&gt;Node11</title>
<path fill="none" stroke="midnightblue" d="M960.38,-56.52C896.46,-48.27 797.29,-35.03 701.39,-20.09"/>
<polygon fill="midnightblue" stroke="midnightblue" points="701.65,-16.59 691.23,-18.5 700.56,-23.5 701.65,-16.59"/>
</g>
<!-- Node12 -->
<g id="node12" class="node">
<title>Node12</title>
<g id="a_node12"><a xlink:title=" ">
<polygon fill="none" stroke="#bfbfbf" points="709.5,-0.5 709.5,-19.5 787.5,-19.5 787.5,-0.5 709.5,-0.5"/>
<text text-anchor="middle" x="748.5" y="-7.5" font-family="Helvetica,sans-Serif" font-size="10.00">shared_mutex</text>
</a>
</g>
</g>
<!-- Node3&#45;&gt;Node12 -->
<g id="edge11" class="edge">
<title>Node3&#45;&gt;Node12</title>
<path fill="none" stroke="midnightblue" d="M983.29,-56.44C932.73,-46.66 850.18,-30.68 797.64,-20.51"/>
<polygon fill="midnightblue" stroke="midnightblue" points="798.03,-17.02 787.55,-18.56 796.7,-23.89 798.03,-17.02"/>
</g>
<!-- Node13 -->
<g id="node13" class="node">
<title>Node13</title>
<g id="a_node13"><a xlink:title=" ">
<polygon fill="none" stroke="#bfbfbf" points="805.5,-0.5 805.5,-19.5 863.5,-19.5 863.5,-0.5 805.5,-0.5"/>
<text text-anchor="middle" x="834.5" y="-7.5" font-family="Helvetica,sans-Serif" font-size="10.00">functional</text>
</a>
</g>
</g>
<!-- Node3&#45;&gt;Node13 -->
<g id="edge12" class="edge">
<title>Node3&#45;&gt;Node13</title>
<path fill="none" stroke="midnightblue" d="M996.92,-56.44C963.5,-47.09 909.87,-32.09 873.46,-21.9"/>
<polygon fill="midnightblue" stroke="midnightblue" points="874.25,-18.49 863.67,-19.16 872.36,-25.23 874.25,-18.49"/>
</g>
<!-- Node14 -->
<g id="node14" class="node">
<title>Node14</title>
<g id="a_node14"><a xlink:title=" ">
<polygon fill="none" stroke="#bfbfbf" points="881.5,-0.5 881.5,-19.5 937.5,-19.5 937.5,-0.5 881.5,-0.5"/>
<text text-anchor="middle" x="909.5" y="-7.5" font-family="Helvetica,sans-Serif" font-size="10.00">coroutine</text>
</a>
</g>
</g>
<!-- Node3&#45;&gt;Node14 -->
<g id="edge13" class="edge">
<title>Node3&#45;&gt;Node14</title>
<path fill="none" stroke="midnightblue" d="M1008.8,-56.44C989.56,-47.64 959.35,-33.81 937.3,-23.72"/>
<polygon fill="midnightblue" stroke="midnightblue" points="938.66,-20.5 928.11,-19.52 935.75,-26.86 938.66,-20.5"/>
</g>
<!-- Node15 -->
<g id="node15" class="node">
<title>Node15</title>
<g id="a_node15"><a xlink:title=" ">
<polygon fill="none" stroke="#bfbfbf" points="956,-0.5 956,-19.5 1021,-19.5 1021,-0.5 956,-0.5"/>
<text text-anchor="middle" x="988.5" y="-7.5" font-family="Helvetica,sans-Serif" font-size="10.00">semaphore</text>
</a>
</g>
</g>
<!-- Node3&#45;&gt;Node15 -->
<g id="edge14" class="edge">
<title>Node3&#45;&gt;Node15</title>
<path fill="none" stroke="midnightblue" d="M1021.06,-56.08C1015.55,-48.46 1007.47,-37.26 1000.74,-27.94"/>
<polygon fill="midnightblue" stroke="midnightblue" points="1003.51,-25.81 994.82,-19.75 997.84,-29.91 1003.51,-25.81"/>
</g>
<!-- Node16 -->
<g id="node16" class="node">
<title>Node16</title>
<g id="a_node16"><a xlink:title=" ">
<polygon fill="none" stroke="#bfbfbf" points="1039.5,-0.5 1039.5,-19.5 1095.5,-19.5 1095.5,-0.5 1039.5,-0.5"/>
<text text-anchor="middle" x="1067.5" y="-7.5" font-family="Helvetica,sans-Serif" font-size="10.00">concepts</text>
</a>
</g>
</g>
<!-- Node3&#45;&gt;Node16 -->
<g id="edge15" class="edge">
<title>Node3&#45;&gt;Node16</title>
<path fill="none" stroke="midnightblue" d="M1034.11,-56.08C1039.76,-48.46 1048.04,-37.26 1054.95,-27.94"/>
<polygon fill="midnightblue" stroke="midnightblue" points="1057.88,-29.87 1061.02,-19.75 1052.25,-25.7 1057.88,-29.87"/>
</g>
<!-- Node17 -->
<g id="node17" class="node">
<title>Node17</title>
<g id="a_node17"><a xlink:title=" ">
<polygon fill="none" stroke="#bfbfbf" points="1113.5,-0.5 1113.5,-19.5 1167.5,-19.5 1167.5,-0.5 1113.5,-0.5"/>
<text text-anchor="middle" x="1140.5" y="-7.5" font-family="Helvetica,sans-Serif" font-size="10.00">iostream</text>
</a>
</g>
</g>
<!-- Node3&#45;&gt;Node17 -->
<g id="edge16" class="edge">
<title>Node3&#45;&gt;Node17</title>
<path fill="none" stroke="midnightblue" d="M1045.41,-56.44C1063.75,-47.68 1092.51,-33.94 1113.59,-23.86"/>
<polygon fill="midnightblue" stroke="midnightblue" points="1115.17,-26.99 1122.68,-19.52 1112.15,-20.67 1115.17,-26.99"/>
</g>
<!-- Node18 -->
<g id="node18" class="node">
<title>Node18</title>
<g id="a_node18"><a xlink:title=" ">
<polygon fill="none" stroke="#bfbfbf" points="1186,-0.5 1186,-19.5 1235,-19.5 1235,-0.5 1186,-0.5"/>
<text text-anchor="middle" x="1210.5" y="-7.5" font-family="Helvetica,sans-Serif" font-size="10.00">fstream</text>
</a>
</g>
</g>
<!-- Node3&#45;&gt;Node18 -->
<g id="edge17" class="edge">
<title>Node3&#45;&gt;Node18</title>
<path fill="none" stroke="midnightblue" d="M1056.5,-56.44C1088.97,-46.86 1141.56,-31.34 1176.09,-21.15"/>
<polygon fill="midnightblue" stroke="midnightblue" points="1177.15,-24.49 1185.75,-18.3 1175.17,-17.78 1177.15,-24.49"/>
</g>
<!-- Node19 -->
<g id="node19" class="node">
<title>Node19</title>
<g id="a_node19"><a xlink:title=" ">
<polygon fill="none" stroke="#bfbfbf" points="1253,-0.5 1253,-19.5 1294,-19.5 1294,-0.5 1253,-0.5"/>
<text text-anchor="middle" x="1273.5" y="-7.5" font-family="Helvetica,sans-Serif" font-size="10.00">bitset</text>
</a>
</g>
</g>
<!-- Node3&#45;&gt;Node19 -->
<g id="edge18" class="edge">
<title>Node3&#45;&gt;Node19</title>
<path fill="none" stroke="midnightblue" d="M1075.22,-56.48C1117.23,-48.66 1180.23,-36.2 1243.27,-20.14"/>
<polygon fill="midnightblue" stroke="midnightblue" points="1244.17,-23.52 1252.97,-17.64 1242.42,-16.75 1244.17,-23.52"/>
</g>
<!-- Node20 -->
<g id="node20" class="node">
<title>Node20</title>
<g id="a_node20"><a xlink:title=" ">
<polygon fill="none" stroke="#bfbfbf" points="1312.5,-0.5 1312.5,-19.5 1364.5,-19.5 1364.5,-0.5 1312.5,-0.5"/>
<text text-anchor="middle" x="1338.5" y="-7.5" font-family="Helvetica,sans-Serif" font-size="10.00">memory</text>
</a>
</g>
</g>
<!-- Node3&#45;&gt;Node20 -->
<g id="edge19" class="edge">
<title>Node3&#45;&gt;Node20</title>
<path fill="none" stroke="midnightblue" d="M1089.73,-56.49C1143.56,-48.75 1223.66,-36.36 1302.13,-20.14"/>
<polygon fill="midnightblue" stroke="midnightblue" points="1303.11,-23.51 1312.19,-18.04 1301.68,-16.66 1303.11,-23.51"/>
</g>
<!-- Node21 -->
<g id="node21" class="node">
<title>Node21</title>
<g id="a_node21"><a xlink:title=" ">
<polygon fill="none" stroke="#bfbfbf" points="1383,-0.5 1383,-19.5 1432,-19.5 1432,-0.5 1383,-0.5"/>
<text text-anchor="middle" x="1407.5" y="-7.5" font-family="Helvetica,sans-Serif" font-size="10.00">random</text>
</a>
</g>
</g>
<!-- Node3&#45;&gt;Node21 -->
<g id="edge20" class="edge">
<title>Node3&#45;&gt;Node21</title>
<path fill="none" stroke="midnightblue" d="M1094.57,-58.88C1162.39,-52.1 1270.35,-39.7 1372.81,-19.9"/>
<polygon fill="midnightblue" stroke="midnightblue" points="1373.56,-23.32 1382.7,-17.96 1372.22,-16.45 1373.56,-23.32"/>
</g>
<!-- Node22 -->
<g id="node22" class="node">
<title>Node22</title>
<g id="a_node22"><a xlink:title=" ">
<polygon fill="none" stroke="#bfbfbf" points="1450,-0.5 1450,-19.5 1491,-19.5 1491,-0.5 1450,-0.5"/>
<text text-anchor="middle" x="1470.5" y="-7.5" font-family="Helvetica,sans-Serif" font-size="10.00">string</text>
</a>
</g>
</g>
<!-- Node3&#45;&gt;Node22 -->
<g id="edge21" class="edge">
<title>Node3&#45;&gt;Node22</title>
<path fill="none" stroke="midnightblue" d="M1094.8,-61.68C1175.14,-56.82 1313.55,-45.63 1439.87,-20.01"/>
<polygon fill="midnightblue" stroke="midnightblue" points="1440.63,-23.42 1449.72,-17.98 1439.22,-16.57 1440.63,-23.42"/>
</g>
<!-- Node23 -->
<g id="node23" class="node">
<title>Node23</title>
<g id="a_node23"><a xlink:title=" ">
<polygon fill="none" stroke="#bfbfbf" points="1509.5,-0.5 1509.5,-19.5 1551.5,-19.5 1551.5,-0.5 1509.5,-0.5"/>
<text text-anchor="middle" x="1530.5" y="-7.5" font-family="Helvetica,sans-Serif" font-size="10.00">vector</text>
</a>
</g>
</g>
<!-- Node3&#45;&gt;Node23 -->
<g id="edge22" class="edge">
<title>Node3&#45;&gt;Node23</title>
<path fill="none" stroke="midnightblue" d="M1094.68,-62.76C1184.84,-58.84 1349.99,-48.43 1499.07,-19.91"/>
<polygon fill="midnightblue" stroke="midnightblue" points="1500.18,-23.26 1509.32,-17.91 1498.84,-16.39 1500.18,-23.26"/>
</g>
<!-- Node24 -->
<g id="node24" class="node">
<title>Node24</title>
<g id="a_node24"><a xlink:title=" ">
<polygon fill="none" stroke="#bfbfbf" points="1569.5,-0.5 1569.5,-19.5 1613.5,-19.5 1613.5,-0.5 1569.5,-0.5"/>
<text text-anchor="middle" x="1591.5" y="-7.5" font-family="Helvetica,sans-Serif" font-size="10.00">thread</text>
</a>
</g>
</g>
<!-- Node3&#45;&gt;Node24 -->
<g id="edge23" class="edge">
<title>Node3&#45;&gt;Node24</title>
<path fill="none" stroke="midnightblue" d="M1094.54,-63.59C1194.19,-60.57 1387.25,-51.11 1559.28,-19.87"/>
<polygon fill="midnightblue" stroke="midnightblue" points="1560.08,-23.28 1569.28,-18.02 1558.81,-16.4 1560.08,-23.28"/>
</g>
<!-- Node25 -->
<g id="node25" class="node">
<title>Node25</title>
<g id="a_node25"><a xlink:title=" ">
<polygon fill="none" stroke="#bfbfbf" points="1631.5,-0.5 1631.5,-19.5 1675.5,-19.5 1675.5,-0.5 1631.5,-0.5"/>
<text text-anchor="middle" x="1653.5" y="-7.5" font-family="Helvetica,sans-Serif" font-size="10.00">mutex</text>
</a>
</g>
</g>
<!-- Node3&#45;&gt;Node25 -->
<g id="edge24" class="edge">
<title>Node3&#45;&gt;Node25</title>
<path fill="none" stroke="midnightblue" d="M1094.55,-64.43C1203.49,-62.53 1425.62,-54.54 1621.39,-19.83"/>
<polygon fill="midnightblue" stroke="midnightblue" points="1622.06,-23.26 1631.28,-18.05 1620.82,-16.38 1622.06,-23.26"/>
</g>
<!-- Node26 -->
<g id="node26" class="node">
<title>Node26</title>
<g id="a_node26"><a xlink:title=" ">
<polygon fill="none" stroke="#bfbfbf" points="1694,-0.5 1694,-19.5 1737,-19.5 1737,-0.5 1694,-0.5"/>
<text text-anchor="middle" x="1715.5" y="-7.5" font-family="Helvetica,sans-Serif" font-size="10.00">queue</text>
</a>
</g>
</g>
<!-- Node3&#45;&gt;Node26 -->
<g id="edge25" class="edge">
<title>Node3&#45;&gt;Node26</title>
<path fill="none" stroke="midnightblue" d="M1094.76,-65.12C1212.54,-64.3 1463.7,-57.97 1683.83,-19.68"/>
<polygon fill="midnightblue" stroke="midnightblue" points="1684.72,-23.08 1693.96,-17.89 1683.5,-16.19 1684.72,-23.08"/>
</g>
<!-- Node27 -->
<g id="node27" class="node">
<title>Node27</title>
<g id="a_node27"><a xlink:title=" ">
<polygon fill="none" stroke="#bfbfbf" points="1755,-0.5 1755,-19.5 1790,-19.5 1790,-0.5 1755,-0.5"/>
<text text-anchor="middle" x="1772.5" y="-7.5" font-family="Helvetica,sans-Serif" font-size="10.00">map</text>
</a>
</g>
</g>
<!-- Node3&#45;&gt;Node27 -->
<g id="edge26" class="edge">
<title>Node3&#45;&gt;Node27</title>
<path fill="none" stroke="midnightblue" d="M1094.59,-63.12C1244.69,-58.54 1604.8,-45.43 1744.69,-19.79"/>
<polygon fill="midnightblue" stroke="midnightblue" points="1745.62,-23.18 1754.77,-17.85 1744.29,-16.31 1745.62,-23.18"/>
</g>
<!-- Node28&#45;&gt;Node2 -->
<g id="edge28" class="edge">
<title>Node28&#45;&gt;Node2</title>
<path fill="none" stroke="midnightblue" d="M607.81,-459.45C588.97,-451.48 568.26,-439.69 554.5,-423 535.35,-399.78 535.5,-388.1 535.5,-358 535.5,-358 535.5,-358 535.5,-244 535.5,-210.54 545.44,-197.23 573.5,-179 634.12,-139.61 838.64,-130.71 951.37,-128.85"/>
<polygon fill="midnightblue" stroke="midnightblue" points="951.7,-132.35 961.65,-128.7 951.6,-125.35 951.7,-132.35"/>
</g>
<!-- Node28&#45;&gt;Node29 -->
<g id="edge29" class="edge">
<title>Node28&#45;&gt;Node29</title>
<path fill="none" stroke="midnightblue" d="M687.48,-459.36C707.08,-450.51 731.35,-437.97 750.5,-423 768.16,-409.2 784.6,-389.39 795.25,-375.27"/>
<polygon fill="midnightblue" stroke="midnightblue" points="798.27,-377.07 801.36,-366.94 792.63,-372.93 798.27,-377.07"/>
</g>
<!-- Node45 -->
<g id="node45" class="node">
<title>Node45</title>
<g id="a_node45"><a xlink:href="../../d8/dba/a00773.html" target="_top" xlink:title=" ">
<polygon fill="none" stroke="black" points="564,-403.5 564,-422.5 741,-422.5 741,-403.5 564,-403.5"/>
<text text-anchor="middle" x="652.5" y="-410.5" font-family="Helvetica,sans-Serif" font-size="10.00">discordcoreapi/WebHookEntities.hpp</text>
</a>
</g>
</g>
<!-- Node28&#45;&gt;Node45 -->
<g id="edge48" class="edge">
<title>Node28&#45;&gt;Node45</title>
<path fill="none" stroke="midnightblue" d="M652.5,-459.4C652.5,-451.47 652.5,-441.46 652.5,-432.86"/>
<polygon fill="midnightblue" stroke="midnightblue" points="656,-432.66 652.5,-422.66 649,-432.66 656,-432.66"/>
</g>
<!-- Node29&#45;&gt;Node2 -->
<g id="edge30" class="edge">
<title>Node29&#45;&gt;Node2</title>
<path fill="none" stroke="midnightblue" d="M894.54,-355.49C1109.55,-352.21 1656.49,-330.79 1768.5,-199 1774.26,-192.23 1774.57,-185.5 1768.5,-179 1723.79,-131.14 1283.28,-127.44 1103.41,-127.95"/>
<polygon fill="midnightblue" stroke="midnightblue" points="1103.22,-124.45 1093.23,-127.98 1103.24,-131.45 1103.22,-124.45"/>
</g>
<!-- Node30 -->
<g id="node30" class="node">
<title>Node30</title>
<g id="a_node30"><a xlink:href="../../db/d7c/a00722.html" target="_top" xlink:title=" ">
<polygon fill="none" stroke="black" points="888,-291.5 888,-310.5 1013,-310.5 1013,-291.5 888,-291.5"/>
<text text-anchor="middle" x="950.5" y="-298.5" font-family="Helvetica,sans-Serif" font-size="10.00">discordcoreapi/Https.hpp</text>
</a>
</g>
</g>
<!-- Node29&#45;&gt;Node30 -->
<g id="edge31" class="edge">
<title>Node29&#45;&gt;Node30</title>
<path fill="none" stroke="midnightblue" d="M830.16,-347.44C853.9,-338.48 891.41,-324.31 918.24,-314.18"/>
<polygon fill="midnightblue" stroke="midnightblue" points="919.83,-317.32 927.95,-310.52 917.36,-310.77 919.83,-317.32"/>
</g>
<!-- Node31 -->
<g id="node31" class="node">
<title>Node31</title>
<g id="a_node31"><a xlink:href="../../d5/de8/a00749.html" target="_top" xlink:title=" ">
<polygon fill="none" stroke="black" points="1018.5,-235.5 1018.5,-254.5 1168.5,-254.5 1168.5,-235.5 1018.5,-235.5"/>
<text text-anchor="middle" x="1093.5" y="-242.5" font-family="Helvetica,sans-Serif" font-size="10.00">discordcoreapi/SSLClients.hpp</text>
</a>
</g>
</g>
<!-- Node30&#45;&gt;Node31 -->
<g id="edge32" class="edge">
<title>Node30&#45;&gt;Node31</title>
<path fill="none" stroke="midnightblue" d="M973.16,-291.44C996.9,-282.48 1034.41,-268.31 1061.24,-258.18"/>
<polygon fill="midnightblue" stroke="midnightblue" points="1062.83,-261.32 1070.95,-254.52 1060.36,-254.77 1062.83,-261.32"/>
</g>
<!-- Node31&#45;&gt;Node2 -->
<g id="edge33" class="edge">
<title>Node31&#45;&gt;Node2</title>
<path fill="none" stroke="midnightblue" d="M1168.76,-242.26C1287.99,-238.13 1502.9,-224.36 1462.5,-179 1439.07,-152.69 1221.54,-138.01 1103.26,-131.9"/>
<polygon fill="midnightblue" stroke="midnightblue" points="1103.34,-128.4 1093.17,-131.39 1102.98,-135.4 1103.34,-128.4"/>
</g>
<!-- Node32 -->
<g id="node32" class="node">
<title>Node32</title>
<g id="a_node32"><a xlink:href="../../d4/d6a/a00704.html" target="_top" xlink:title=" ">
<polygon fill="none" stroke="black" points="1509.5,-179.5 1509.5,-198.5 1667.5,-198.5 1667.5,-179.5 1509.5,-179.5"/>
<text text-anchor="middle" x="1588.5" y="-186.5" font-family="Helvetica,sans-Serif" font-size="10.00">discordcoreapi/EventEntities.hpp</text>
</a>
</g>
</g>
<!-- Node31&#45;&gt;Node32 -->
<g id="edge34" class="edge">
<title>Node31&#45;&gt;Node32</title>
<path fill="none" stroke="midnightblue" d="M1168.68,-235.8C1257.79,-226.08 1406.08,-209.9 1500.47,-199.6"/>
<polygon fill="midnightblue" stroke="midnightblue" points="1501.01,-203.07 1510.57,-198.5 1500.25,-196.11 1501.01,-203.07"/>
</g>
<!-- Node33 -->
<g id="node33" class="node">
<title>Node33</title>
<g id="a_node33"><a xlink:title=" ">
<polygon fill="none" stroke="#bfbfbf" points="1686,-179.5 1686,-198.5 1759,-198.5 1759,-179.5 1686,-179.5"/>
<text text-anchor="middle" x="1722.5" y="-186.5" font-family="Helvetica,sans-Serif" font-size="10.00">openssl/err.h</text>
</a>
</g>
</g>
<!-- Node31&#45;&gt;Node33 -->
<g id="edge36" class="edge">
<title>Node31&#45;&gt;Node33</title>
<path fill="none" stroke="midnightblue" d="M1168.8,-240.99C1278.21,-235.99 1487.66,-224.08 1675.83,-198.92"/>
<polygon fill="midnightblue" stroke="midnightblue" points="1676.46,-202.37 1685.91,-197.56 1675.53,-195.43 1676.46,-202.37"/>
</g>
<!-- Node34 -->
<g id="node34" class="node">
<title>Node34</title>
<g id="a_node34"><a xlink:title=" ">
<polygon fill="none" stroke="#bfbfbf" points="601.5,-179.5 601.5,-198.5 675.5,-198.5 675.5,-179.5 601.5,-179.5"/>
<text text-anchor="middle" x="638.5" y="-186.5" font-family="Helvetica,sans-Serif" font-size="10.00">openssl/ssl.h</text>
</a>
</g>
</g>
<!-- Node31&#45;&gt;Node34 -->
<g id="edge37" class="edge">
<title>Node31&#45;&gt;Node34</title>
<path fill="none" stroke="midnightblue" d="M1018.44,-237.52C938.58,-230.22 808.33,-217.15 685.61,-198.89"/>
<polygon fill="midnightblue" stroke="midnightblue" points="686.06,-195.42 675.65,-197.4 685.02,-202.34 686.06,-195.42"/>
</g>
<!-- Node35 -->
<g id="node35" class="node">
<title>Node35</title>
<g id="a_node35"><a xlink:title=" ">
<polygon fill="none" stroke="#bfbfbf" points="694,-179.5 694,-198.5 737,-198.5 737,-179.5 694,-179.5"/>
<text text-anchor="middle" x="715.5" y="-186.5" font-family="Helvetica,sans-Serif" font-size="10.00">fcntl.h</text>
</a>
</g>
</g>
<!-- Node31&#45;&gt;Node35 -->
<g id="edge38" class="edge">
<title>Node31&#45;&gt;Node35</title>
<path fill="none" stroke="midnightblue" d="M1018.49,-237.63C950.11,-231.06 846.22,-219.16 746.97,-198.79"/>
<polygon fill="midnightblue" stroke="midnightblue" points="747.58,-195.34 737.07,-196.72 746.15,-202.19 747.58,-195.34"/>
</g>
<!-- Node36 -->
<g id="node36" class="node">
<title>Node36</title>
<g id="a_node36"><a xlink:title=" ">
<polygon fill="none" stroke="#bfbfbf" points="755,-179.5 755,-198.5 804,-198.5 804,-179.5 755,-179.5"/>
<text text-anchor="middle" x="779.5" y="-186.5" font-family="Helvetica,sans-Serif" font-size="10.00">netdb.h</text>
</a>
</g>
</g>
<!-- Node31&#45;&gt;Node36 -->
<g id="edge39" class="edge">
<title>Node31&#45;&gt;Node36</title>
<path fill="none" stroke="midnightblue" d="M1028.94,-235.48C974.31,-227.85 893.77,-215.61 814.48,-199.03"/>
<polygon fill="midnightblue" stroke="midnightblue" points="814.82,-195.52 804.31,-196.87 813.37,-202.37 814.82,-195.52"/>
</g>
<!-- Node37 -->
<g id="node37" class="node">
<title>Node37</title>
<g id="a_node37"><a xlink:title=" ">
<polygon fill="none" stroke="#bfbfbf" points="822,-179.5 822,-198.5 887,-198.5 887,-179.5 822,-179.5"/>
<text text-anchor="middle" x="854.5" y="-186.5" font-family="Helvetica,sans-Serif" font-size="10.00">netinet/in.h</text>
</a>
</g>
</g>
<!-- Node31&#45;&gt;Node37 -->
<g id="edge40" class="edge">
<title>Node31&#45;&gt;Node37</title>
<path fill="none" stroke="midnightblue" d="M1055.63,-235.44C1012.43,-225.68 941.98,-209.77 896.96,-199.59"/>
<polygon fill="midnightblue" stroke="midnightblue" points="897.73,-196.18 887.2,-197.39 896.18,-203.01 897.73,-196.18"/>
</g>
<!-- Node38 -->
<g id="node38" class="node">
<title>Node38</title>
<g id="a_node38"><a xlink:title=" ">
<polygon fill="none" stroke="#bfbfbf" points="905,-179.5 905,-198.5 976,-198.5 976,-179.5 905,-179.5"/>
<text text-anchor="middle" x="940.5" y="-186.5" font-family="Helvetica,sans-Serif" font-size="10.00">netinet/tcp.h</text>
</a>
</g>
</g>
<!-- Node31&#45;&gt;Node38 -->
<g id="edge41" class="edge">
<title>Node31&#45;&gt;Node38</title>
<path fill="none" stroke="midnightblue" d="M1069.26,-235.44C1043.63,-226.4 1003.01,-212.06 974.26,-201.92"/>
<polygon fill="midnightblue" stroke="midnightblue" points="975.22,-198.54 964.63,-198.52 972.89,-205.15 975.22,-198.54"/>
</g>
<!-- Node39 -->
<g id="node39" class="node">
<title>Node39</title>
<g id="a_node39"><a xlink:title=" ">
<polygon fill="none" stroke="#bfbfbf" points="994,-179.5 994,-198.5 1043,-198.5 1043,-179.5 994,-179.5"/>
<text text-anchor="middle" x="1018.5" y="-186.5" font-family="Helvetica,sans-Serif" font-size="10.00">stdint.h</text>
</a>
</g>
</g>
<!-- Node31&#45;&gt;Node39 -->
<g id="edge42" class="edge">
<title>Node31&#45;&gt;Node39</title>
<path fill="none" stroke="midnightblue" d="M1081.45,-235.32C1070.04,-227.11 1052.67,-214.6 1039.07,-204.81"/>
<polygon fill="midnightblue" stroke="midnightblue" points="1040.93,-201.84 1030.77,-198.83 1036.84,-207.52 1040.93,-201.84"/>
</g>
<!-- Node40 -->
<g id="node40" class="node">
<title>Node40</title>
<g id="a_node40"><a xlink:title=" ">
<polygon fill="none" stroke="#bfbfbf" points="1061.5,-179.5 1061.5,-198.5 1125.5,-198.5 1125.5,-179.5 1061.5,-179.5"/>
<text text-anchor="middle" x="1093.5" y="-186.5" font-family="Helvetica,sans-Serif" font-size="10.00">sys/epoll.h</text>
</a>
</g>
</g>
<!-- Node31&#45;&gt;Node40 -->
<g id="edge43" class="edge">
<title>Node31&#45;&gt;Node40</title>
<path fill="none" stroke="midnightblue" d="M1093.5,-235.08C1093.5,-228.01 1093.5,-217.86 1093.5,-208.99"/>
<polygon fill="midnightblue" stroke="midnightblue" points="1097,-208.75 1093.5,-198.75 1090,-208.75 1097,-208.75"/>
</g>
<!-- Node41 -->
<g id="node41" class="node">
<title>Node41</title>
<g id="a_node41"><a xlink:title=" ">
<polygon fill="none" stroke="#bfbfbf" points="1143.5,-179.5 1143.5,-198.5 1205.5,-198.5 1205.5,-179.5 1143.5,-179.5"/>
<text text-anchor="middle" x="1174.5" y="-186.5" font-family="Helvetica,sans-Serif" font-size="10.00">arpa/inet.h</text>
</a>
</g>
</g>
<!-- Node31&#45;&gt;Node41 -->
<g id="edge44" class="edge">
<title>Node31&#45;&gt;Node41</title>
<path fill="none" stroke="midnightblue" d="M1106.51,-235.32C1119.03,-226.98 1138.18,-214.21 1152.97,-204.35"/>
<polygon fill="midnightblue" stroke="midnightblue" points="1155.14,-207.11 1161.52,-198.65 1151.26,-201.29 1155.14,-207.11"/>
</g>
<!-- Node42 -->
<g id="node42" class="node">
<title>Node42</title>
<g id="a_node42"><a xlink:title=" ">
<polygon fill="none" stroke="#bfbfbf" points="1224,-179.5 1224,-198.5 1297,-198.5 1297,-179.5 1224,-179.5"/>
<text text-anchor="middle" x="1260.5" y="-186.5" font-family="Helvetica,sans-Serif" font-size="10.00">sys/socket.h</text>
</a>
</g>
</g>
<!-- Node31&#45;&gt;Node42 -->
<g id="edge45" class="edge">
<title>Node31&#45;&gt;Node42</title>
<path fill="none" stroke="midnightblue" d="M1119.96,-235.44C1148.18,-226.32 1193.04,-211.81 1224.47,-201.65"/>
<polygon fill="midnightblue" stroke="midnightblue" points="1225.72,-204.92 1234.16,-198.52 1223.57,-198.26 1225.72,-204.92"/>
</g>
<!-- Node43 -->
<g id="node43" class="node">
<title>Node43</title>
<g id="a_node43"><a xlink:title=" ">
<polygon fill="none" stroke="#bfbfbf" points="1315.5,-179.5 1315.5,-198.5 1383.5,-198.5 1383.5,-179.5 1315.5,-179.5"/>
<text text-anchor="middle" x="1349.5" y="-186.5" font-family="Helvetica,sans-Serif" font-size="10.00">sys/types.h</text>
</a>
</g>
</g>
<!-- Node31&#45;&gt;Node43 -->
<g id="edge46" class="edge">
<title>Node31&#45;&gt;Node43</title>
<path fill="none" stroke="midnightblue" d="M1134.06,-235.44C1180.79,-225.59 1257.29,-209.45 1305.45,-199.29"/>
<polygon fill="midnightblue" stroke="midnightblue" points="1306.21,-202.71 1315.27,-197.22 1304.76,-195.86 1306.21,-202.71"/>
</g>
<!-- Node44 -->
<g id="node44" class="node">
<title>Node44</title>
<g id="a_node44"><a xlink:title=" ">
<polygon fill="none" stroke="#bfbfbf" points="1402,-179.5 1402,-198.5 1453,-198.5 1453,-179.5 1402,-179.5"/>
<text text-anchor="middle" x="1427.5" y="-186.5" font-family="Helvetica,sans-Serif" font-size="10.00">unistd.h</text>
</a>
</g>
</g>
<!-- Node31&#45;&gt;Node44 -->
<g id="edge47" class="edge">
<title>Node31&#45;&gt;Node44</title>
<path fill="none" stroke="midnightblue" d="M1163.94,-235.47C1222.44,-227.91 1308,-215.76 1391.99,-198.91"/>
<polygon fill="midnightblue" stroke="midnightblue" points="1392.85,-202.31 1401.96,-196.89 1391.46,-195.45 1392.85,-202.31"/>
</g>
<!-- Node32&#45;&gt;Node2 -->
<g id="edge35" class="edge">
<title>Node32&#45;&gt;Node2</title>
<path fill="none" stroke="midnightblue" d="M1509.31,-179.6C1401.35,-168.15 1209.28,-147.78 1103.17,-136.53"/>
<polygon fill="midnightblue" stroke="midnightblue" points="1103.49,-133.04 1093.18,-135.47 1102.75,-140 1103.49,-133.04"/>
</g>
<!-- Node45&#45;&gt;Node2 -->
<g id="edge49" class="edge">
<title>Node45&#45;&gt;Node2</title>
<path fill="none" stroke="midnightblue" d="M640.16,-403.28C617.94,-386.45 573.5,-347.14 573.5,-302 573.5,-302 573.5,-302 573.5,-244 573.5,-213.9 569.5,-198.41 592.5,-179 645.18,-134.54 841.5,-127.73 951.52,-127.54"/>
<polygon fill="midnightblue" stroke="midnightblue" points="951.57,-131.04 961.57,-127.54 951.57,-124.04 951.57,-131.04"/>
</g>
<!-- Node45&#45;&gt;Node29 -->
<g id="edge50" class="edge">
<title>Node45&#45;&gt;Node29</title>
<path fill="none" stroke="midnightblue" d="M677.06,-403.44C703.02,-394.4 744.17,-380.06 773.3,-369.92"/>
<polygon fill="midnightblue" stroke="midnightblue" points="774.76,-373.11 783.05,-366.52 772.46,-366.5 774.76,-373.11"/>
</g>
</g>
</svg>
