<?xml version="1.0" encoding="UTF-8" standalone="no"?>
<!DOCTYPE svg PUBLIC "-//W3C//DTD SVG 1.1//EN"
 "http://www.w3.org/Graphics/SVG/1.1/DTD/svg11.dtd">
<!-- Generated by graphviz version 2.43.0 (0)
 -->
<!-- Title: InputEvents.hpp Pages: 1 -->
<svg width="1884pt" height="554pt"
 viewBox="0.00 0.00 1883.99 554.00" xmlns="http://www.w3.org/2000/svg" xmlns:xlink="http://www.w3.org/1999/xlink">
<g id="graph0" class="graph" transform="scale(1 1) rotate(0) translate(4 550)">
<title>InputEvents.hpp</title>
<!-- Node1 -->
<g id="node1" class="node">
<title>Node1</title>
<g id="a_node1"><a xlink:title=" ">
<polygon fill="#bfbfbf" stroke="black" points="637,-526.5 637,-545.5 732,-545.5 732,-526.5 637,-526.5"/>
<text text-anchor="middle" x="684.5" y="-533.5" font-family="Helvetica,sans-Serif" font-size="10.00">InputEvents.hpp</text>
</a>
</g>
</g>
<!-- Node2 -->
<g id="node2" class="node">
<title>Node2</title>
<g id="a_node2"><a xlink:href="../../d4/deb/a00710.html" target="_top" xlink:title=" ">
<polygon fill="none" stroke="black" points="1007,-112.5 1007,-142.5 1152,-142.5 1152,-112.5 1007,-112.5"/>
<text text-anchor="start" x="1015" y="-130.5" font-family="Helvetica,sans-Serif" font-size="10.00">discordcoreapi/Foundation</text>
<text text-anchor="middle" x="1079.5" y="-119.5" font-family="Helvetica,sans-Serif" font-size="10.00">Entities.hpp</text>
</a>
</g>
</g>
<!-- Node1&#45;&gt;Node2 -->
<g id="edge1" class="edge">
<title>Node1&#45;&gt;Node2</title>
<path fill="none" stroke="midnightblue" d="M651.12,-526.47C603.43,-512.05 521.5,-477.97 521.5,-414 521.5,-414 521.5,-414 521.5,-244 521.5,-208.09 538.28,-196.74 569.5,-179 640.32,-138.76 870.74,-130.25 996.22,-128.66"/>
<polygon fill="midnightblue" stroke="midnightblue" points="996.59,-132.16 1006.55,-128.55 996.51,-125.16 996.59,-132.16"/>
</g>
<!-- Node27 -->
<g id="node27" class="node">
<title>Node27</title>
<g id="a_node27"><a xlink:href="../../df/df7/a00731.html" target="_top" xlink:title=" ">
<polygon fill="none" stroke="black" points="613,-459.5 613,-489.5 756,-489.5 756,-459.5 613,-459.5"/>
<text text-anchor="start" x="621" y="-477.5" font-family="Helvetica,sans-Serif" font-size="10.00">discordcoreapi/Interaction</text>
<text text-anchor="middle" x="684.5" y="-466.5" font-family="Helvetica,sans-Serif" font-size="10.00">Entities.hpp</text>
</a>
</g>
</g>
<!-- Node1&#45;&gt;Node27 -->
<g id="edge26" class="edge">
<title>Node1&#45;&gt;Node27</title>
<path fill="none" stroke="midnightblue" d="M684.5,-526.48C684.5,-519.47 684.5,-509.19 684.5,-499.7"/>
<polygon fill="midnightblue" stroke="midnightblue" points="688,-499.52 684.5,-489.52 681,-499.52 688,-499.52"/>
</g>
<!-- Node28 -->
<g id="node28" class="node">
<title>Node28</title>
<g id="a_node28"><a xlink:href="../../d6/dc0/a00734.html" target="_top" xlink:title=" ">
<polygon fill="none" stroke="black" points="751.5,-347.5 751.5,-366.5 943.5,-366.5 943.5,-347.5 751.5,-347.5"/>
<text text-anchor="middle" x="847.5" y="-354.5" font-family="Helvetica,sans-Serif" font-size="10.00">discordcoreapi/MessageEntities.hpp</text>
</a>
</g>
</g>
<!-- Node1&#45;&gt;Node28 -->
<g id="edge50" class="edge">
<title>Node1&#45;&gt;Node28</title>
<path fill="none" stroke="midnightblue" d="M705.36,-526.46C722.71,-518.67 747.41,-505.97 765.5,-490 802.62,-457.23 828.67,-403.59 840.43,-375.86"/>
<polygon fill="midnightblue" stroke="midnightblue" points="843.68,-377.17 844.24,-366.59 837.2,-374.52 843.68,-377.17"/>
</g>
<!-- Node3 -->
<g id="node3" class="node">
<title>Node3</title>
<g id="a_node3"><a xlink:href="../../d5/dae/a00767.html" target="_top" xlink:title=" ">
<polygon fill="none" stroke="black" points="1004.5,-56.5 1004.5,-75.5 1154.5,-75.5 1154.5,-56.5 1004.5,-56.5"/>
<text text-anchor="middle" x="1079.5" y="-63.5" font-family="Helvetica,sans-Serif" font-size="10.00">discordcoreapi/Utilities.hpp</text>
</a>
</g>
</g>
<!-- Node2&#45;&gt;Node3 -->
<g id="edge2" class="edge">
<title>Node2&#45;&gt;Node3</title>
<path fill="none" stroke="midnightblue" d="M1079.5,-112.4C1079.5,-104.47 1079.5,-94.46 1079.5,-85.86"/>
<polygon fill="midnightblue" stroke="midnightblue" points="1083,-85.66 1079.5,-75.66 1076,-85.66 1083,-85.66"/>
</g>
<!-- Node4 -->
<g id="node4" class="node">
<title>Node4</title>
<g id="a_node4"><a xlink:title=" ">
<polygon fill="none" stroke="#bfbfbf" points="0,-0.5 0,-19.5 63,-19.5 63,-0.5 0,-0.5"/>
<text text-anchor="middle" x="31.5" y="-7.5" font-family="Helvetica,sans-Serif" font-size="10.00">pthread.h</text>
</a>
</g>
</g>
<!-- Node3&#45;&gt;Node4 -->
<g id="edge3" class="edge">
<title>Node3&#45;&gt;Node4</title>
<path fill="none" stroke="midnightblue" d="M1004.15,-63.31C805.75,-58.59 271.21,-44.11 73.21,-19.8"/>
<polygon fill="midnightblue" stroke="midnightblue" points="73.55,-16.31 63.19,-18.52 72.67,-23.26 73.55,-16.31"/>
</g>
<!-- Node5 -->
<g id="node5" class="node">
<title>Node5</title>
<g id="a_node5"><a xlink:title=" ">
<polygon fill="none" stroke="#bfbfbf" points="81.5,-0.5 81.5,-19.5 149.5,-19.5 149.5,-0.5 81.5,-0.5"/>
<text text-anchor="middle" x="115.5" y="-7.5" font-family="Helvetica,sans-Serif" font-size="10.00">sys/time.h</text>
</a>
</g>
</g>
<!-- Node3&#45;&gt;Node5 -->
<g id="edge4" class="edge">
<title>Node3&#45;&gt;Node5</title>
<path fill="none" stroke="midnightblue" d="M1004.24,-65.32C848.34,-65.13 478.76,-60.16 160.05,-19.98"/>
<polygon fill="midnightblue" stroke="midnightblue" points="160.05,-16.45 149.69,-18.66 159.16,-23.4 160.05,-16.45"/>
</g>
<!-- Node6 -->
<g id="node6" class="node">
<title>Node6</title>
<g id="a_node6"><a xlink:title=" ">
<polygon fill="none" stroke="#bfbfbf" points="167.5,-0.5 167.5,-19.5 215.5,-19.5 215.5,-0.5 167.5,-0.5"/>
<text text-anchor="middle" x="191.5" y="-7.5" font-family="Helvetica,sans-Serif" font-size="10.00">time.h</text>
</a>
</g>
</g>
<!-- Node3&#45;&gt;Node6 -->
<g id="edge5" class="edge">
<title>Node3&#45;&gt;Node6</title>
<path fill="none" stroke="midnightblue" d="M1004.22,-63.1C828.05,-58.33 391.93,-44.55 225.61,-19.76"/>
<polygon fill="midnightblue" stroke="midnightblue" points="225.94,-16.27 215.52,-18.19 224.86,-23.19 225.94,-16.27"/>
</g>
<!-- Node7 -->
<g id="node7" class="node">
<title>Node7</title>
<g id="a_node7"><a xlink:title=" ">
<polygon fill="none" stroke="#bfbfbf" points="233.5,-0.5 233.5,-19.5 277.5,-19.5 277.5,-0.5 233.5,-0.5"/>
<text text-anchor="middle" x="255.5" y="-7.5" font-family="Helvetica,sans-Serif" font-size="10.00">ctime</text>
</a>
</g>
</g>
<!-- Node3&#45;&gt;Node7 -->
<g id="edge6" class="edge">
<title>Node3&#45;&gt;Node7</title>
<path fill="none" stroke="midnightblue" d="M1004.33,-62.9C837.88,-57.91 441.44,-44.04 287.9,-19.79"/>
<polygon fill="midnightblue" stroke="midnightblue" points="288.15,-16.28 277.71,-18.1 287,-23.19 288.15,-16.28"/>
</g>
<!-- Node8 -->
<g id="node8" class="node">
<title>Node8</title>
<g id="a_node8"><a xlink:title=" ">
<polygon fill="none" stroke="#bfbfbf" points="296,-0.5 296,-19.5 403,-19.5 403,-0.5 296,-0.5"/>
<text text-anchor="middle" x="349.5" y="-7.5" font-family="Helvetica,sans-Serif" font-size="10.00">condition_variable</text>
</a>
</g>
</g>
<!-- Node3&#45;&gt;Node8 -->
<g id="edge7" class="edge">
<title>Node3&#45;&gt;Node8</title>
<path fill="none" stroke="midnightblue" d="M1004.32,-61.76C882.52,-56.1 634.28,-42.89 413.25,-19.99"/>
<polygon fill="midnightblue" stroke="midnightblue" points="413.39,-16.49 403.08,-18.93 412.66,-23.45 413.39,-16.49"/>
</g>
<!-- Node9 -->
<g id="node9" class="node">
<title>Node9</title>
<g id="a_node9"><a xlink:title=" ">
<polygon fill="none" stroke="#bfbfbf" points="421.5,-0.5 421.5,-19.5 531.5,-19.5 531.5,-0.5 421.5,-0.5"/>
<text text-anchor="middle" x="476.5" y="-7.5" font-family="Helvetica,sans-Serif" font-size="10.00">nlohmann/json.hpp</text>
</a>
</g>
</g>
<!-- Node3&#45;&gt;Node9 -->
<g id="edge8" class="edge">
<title>Node3&#45;&gt;Node9</title>
<path fill="none" stroke="midnightblue" d="M1004.38,-60.07C902.09,-53.06 713.05,-39.04 541.6,-20.06"/>
<polygon fill="midnightblue" stroke="midnightblue" points="541.96,-16.58 531.63,-18.95 541.18,-23.54 541.96,-16.58"/>
</g>
<!-- Node10 -->
<g id="node10" class="node">
<title>Node10</title>
<g id="a_node10"><a xlink:title=" ">
<polygon fill="none" stroke="#bfbfbf" points="550,-0.5 550,-19.5 643,-19.5 643,-0.5 550,-0.5"/>
<text text-anchor="middle" x="596.5" y="-7.5" font-family="Helvetica,sans-Serif" font-size="10.00">source_location</text>
</a>
</g>
</g>
<!-- Node3&#45;&gt;Node10 -->
<g id="edge9" class="edge">
<title>Node3&#45;&gt;Node10</title>
<path fill="none" stroke="midnightblue" d="M1004.15,-58.31C920.89,-50.63 782.59,-37.04 653.31,-20.04"/>
<polygon fill="midnightblue" stroke="midnightblue" points="653.6,-16.55 643.22,-18.7 652.68,-23.49 653.6,-16.55"/>
</g>
<!-- Node11 -->
<g id="node11" class="node">
<title>Node11</title>
<g id="a_node11"><a xlink:title=" ">
<polygon fill="none" stroke="#bfbfbf" points="661,-0.5 661,-19.5 754,-19.5 754,-0.5 661,-0.5"/>
<text text-anchor="middle" x="707.5" y="-7.5" font-family="Helvetica,sans-Serif" font-size="10.00">unordered_map</text>
</a>
</g>
</g>
<!-- Node3&#45;&gt;Node11 -->
<g id="edge10" class="edge">
<title>Node3&#45;&gt;Node11</title>
<path fill="none" stroke="midnightblue" d="M1017.39,-56.49C955.82,-47.98 858.51,-34.32 764.24,-20.09"/>
<polygon fill="midnightblue" stroke="midnightblue" points="764.65,-16.61 754.24,-18.58 763.6,-23.53 764.65,-16.61"/>
</g>
<!-- Node12 -->
<g id="node12" class="node">
<title>Node12</title>
<g id="a_node12"><a xlink:title=" ">
<polygon fill="none" stroke="#bfbfbf" points="772.5,-0.5 772.5,-19.5 858.5,-19.5 858.5,-0.5 772.5,-0.5"/>
<text text-anchor="middle" x="815.5" y="-7.5" font-family="Helvetica,sans-Serif" font-size="10.00">shared_mutex</text>
</a>
</g>
</g>
<!-- Node3&#45;&gt;Node12 -->
<g id="edge11" class="edge">
<title>Node3&#45;&gt;Node12</title>
<path fill="none" stroke="midnightblue" d="M1037.67,-56.44C991.42,-46.98 916.89,-31.74 867.06,-21.55"/>
<polygon fill="midnightblue" stroke="midnightblue" points="867.63,-18.09 857.14,-19.52 866.23,-24.95 867.63,-18.09"/>
</g>
<!-- Node13 -->
<g id="node13" class="node">
<title>Node13</title>
<g id="a_node13"><a xlink:title=" ">
<polygon fill="none" stroke="#bfbfbf" points="877,-0.5 877,-19.5 942,-19.5 942,-0.5 877,-0.5"/>
<text text-anchor="middle" x="909.5" y="-7.5" font-family="Helvetica,sans-Serif" font-size="10.00">functional</text>
</a>
</g>
</g>
<!-- Node3&#45;&gt;Node13 -->
<g id="edge12" class="edge">
<title>Node3&#45;&gt;Node13</title>
<path fill="none" stroke="midnightblue" d="M1052.56,-56.44C1023.84,-47.32 978.17,-32.81 946.18,-22.65"/>
<polygon fill="midnightblue" stroke="midnightblue" points="946.9,-19.21 936.31,-19.52 944.78,-25.88 946.9,-19.21"/>
</g>
<!-- Node14 -->
<g id="node14" class="node">
<title>Node14</title>
<g id="a_node14"><a xlink:title=" ">
<polygon fill="none" stroke="#bfbfbf" points="960,-0.5 960,-19.5 1031,-19.5 1031,-0.5 960,-0.5"/>
<text text-anchor="middle" x="995.5" y="-7.5" font-family="Helvetica,sans-Serif" font-size="10.00">semaphore</text>
</a>
</g>
</g>
<!-- Node3&#45;&gt;Node14 -->
<g id="edge13" class="edge">
<title>Node3&#45;&gt;Node14</title>
<path fill="none" stroke="midnightblue" d="M1066,-56.32C1052.9,-47.9 1032.79,-34.97 1017.39,-25.07"/>
<polygon fill="midnightblue" stroke="midnightblue" points="1019.27,-22.12 1008.96,-19.65 1015.48,-28.01 1019.27,-22.12"/>
</g>
<!-- Node15 -->
<g id="node15" class="node">
<title>Node15</title>
<g id="a_node15"><a xlink:title=" ">
<polygon fill="none" stroke="#bfbfbf" points="1049.5,-0.5 1049.5,-19.5 1109.5,-19.5 1109.5,-0.5 1049.5,-0.5"/>
<text text-anchor="middle" x="1079.5" y="-7.5" font-family="Helvetica,sans-Serif" font-size="10.00">concepts</text>
</a>
</g>
</g>
<!-- Node3&#45;&gt;Node15 -->
<g id="edge14" class="edge">
<title>Node3&#45;&gt;Node15</title>
<path fill="none" stroke="midnightblue" d="M1079.5,-56.08C1079.5,-49.01 1079.5,-38.86 1079.5,-29.99"/>
<polygon fill="midnightblue" stroke="midnightblue" points="1083,-29.75 1079.5,-19.75 1076,-29.75 1083,-29.75"/>
</g>
<!-- Node16 -->
<g id="node16" class="node">
<title>Node16</title>
<g id="a_node16"><a xlink:title=" ">
<polygon fill="none" stroke="#bfbfbf" points="1127.5,-0.5 1127.5,-19.5 1187.5,-19.5 1187.5,-0.5 1127.5,-0.5"/>
<text text-anchor="middle" x="1157.5" y="-7.5" font-family="Helvetica,sans-Serif" font-size="10.00">iostream</text>
</a>
</g>
</g>
<!-- Node3&#45;&gt;Node16 -->
<g id="edge15" class="edge">
<title>Node3&#45;&gt;Node16</title>
<path fill="none" stroke="midnightblue" d="M1092.03,-56.32C1104.09,-47.98 1122.53,-35.21 1136.77,-25.35"/>
<polygon fill="midnightblue" stroke="midnightblue" points="1138.77,-28.22 1145,-19.65 1134.78,-22.47 1138.77,-28.22"/>
</g>
<!-- Node17 -->
<g id="node17" class="node">
<title>Node17</title>
<g id="a_node17"><a xlink:title=" ">
<polygon fill="none" stroke="#bfbfbf" points="1206,-0.5 1206,-19.5 1261,-19.5 1261,-0.5 1206,-0.5"/>
<text text-anchor="middle" x="1233.5" y="-7.5" font-family="Helvetica,sans-Serif" font-size="10.00">fstream</text>
</a>
</g>
</g>
<!-- Node3&#45;&gt;Node17 -->
<g id="edge16" class="edge">
<title>Node3&#45;&gt;Node17</title>
<path fill="none" stroke="midnightblue" d="M1103.9,-56.44C1129.7,-47.4 1170.58,-33.06 1199.52,-22.92"/>
<polygon fill="midnightblue" stroke="midnightblue" points="1200.93,-26.13 1209.21,-19.52 1198.62,-19.52 1200.93,-26.13"/>
</g>
<!-- Node18 -->
<g id="node18" class="node">
<title>Node18</title>
<g id="a_node18"><a xlink:title=" ">
<polygon fill="none" stroke="#bfbfbf" points="1279.5,-0.5 1279.5,-19.5 1323.5,-19.5 1323.5,-0.5 1279.5,-0.5"/>
<text text-anchor="middle" x="1301.5" y="-7.5" font-family="Helvetica,sans-Serif" font-size="10.00">bitset</text>
</a>
</g>
</g>
<!-- Node3&#45;&gt;Node18 -->
<g id="edge17" class="edge">
<title>Node3&#45;&gt;Node18</title>
<path fill="none" stroke="midnightblue" d="M1118.42,-56.44C1155,-48.26 1211.51,-35.28 1269.17,-20.25"/>
<polygon fill="midnightblue" stroke="midnightblue" points="1270.4,-23.55 1279.19,-17.63 1268.63,-16.78 1270.4,-23.55"/>
</g>
<!-- Node19 -->
<g id="node19" class="node">
<title>Node19</title>
<g id="a_node19"><a xlink:title=" ">
<polygon fill="none" stroke="#bfbfbf" points="1341.5,-0.5 1341.5,-19.5 1399.5,-19.5 1399.5,-0.5 1341.5,-0.5"/>
<text text-anchor="middle" x="1370.5" y="-7.5" font-family="Helvetica,sans-Serif" font-size="10.00">memory</text>
</a>
</g>
</g>
<!-- Node3&#45;&gt;Node19 -->
<g id="edge18" class="edge">
<title>Node3&#45;&gt;Node19</title>
<path fill="none" stroke="midnightblue" d="M1132.48,-56.47C1181.58,-48.37 1256.88,-35.43 1331.45,-20.12"/>
<polygon fill="midnightblue" stroke="midnightblue" points="1332.41,-23.5 1341.49,-18.05 1330.99,-16.65 1332.41,-23.5"/>
</g>
<!-- Node20 -->
<g id="node20" class="node">
<title>Node20</title>
<g id="a_node20"><a xlink:title=" ">
<polygon fill="none" stroke="#bfbfbf" points="1417.5,-0.5 1417.5,-19.5 1471.5,-19.5 1471.5,-0.5 1417.5,-0.5"/>
<text text-anchor="middle" x="1444.5" y="-7.5" font-family="Helvetica,sans-Serif" font-size="10.00">random</text>
</a>
</g>
</g>
<!-- Node3&#45;&gt;Node20 -->
<g id="edge19" class="edge">
<title>Node3&#45;&gt;Node20</title>
<path fill="none" stroke="midnightblue" d="M1154.69,-57.08C1219.27,-49.74 1315.01,-37.56 1407.36,-20.04"/>
<polygon fill="midnightblue" stroke="midnightblue" points="1408.28,-23.42 1417.44,-18.1 1406.96,-16.55 1408.28,-23.42"/>
</g>
<!-- Node21 -->
<g id="node21" class="node">
<title>Node21</title>
<g id="a_node21"><a xlink:title=" ">
<polygon fill="none" stroke="#bfbfbf" points="1489.5,-0.5 1489.5,-19.5 1533.5,-19.5 1533.5,-0.5 1489.5,-0.5"/>
<text text-anchor="middle" x="1511.5" y="-7.5" font-family="Helvetica,sans-Serif" font-size="10.00">string</text>
</a>
</g>
</g>
<!-- Node3&#45;&gt;Node21 -->
<g id="edge20" class="edge">
<title>Node3&#45;&gt;Node21</title>
<path fill="none" stroke="midnightblue" d="M1154.73,-60.41C1233.55,-54.73 1360.98,-43.09 1479.3,-19.93"/>
<polygon fill="midnightblue" stroke="midnightblue" points="1480.14,-23.33 1489.26,-17.95 1478.77,-16.47 1480.14,-23.33"/>
</g>
<!-- Node22 -->
<g id="node22" class="node">
<title>Node22</title>
<g id="a_node22"><a xlink:title=" ">
<polygon fill="none" stroke="#bfbfbf" points="1552,-0.5 1552,-19.5 1599,-19.5 1599,-0.5 1552,-0.5"/>
<text text-anchor="middle" x="1575.5" y="-7.5" font-family="Helvetica,sans-Serif" font-size="10.00">vector</text>
</a>
</g>
</g>
<!-- Node3&#45;&gt;Node22 -->
<g id="edge21" class="edge">
<title>Node3&#45;&gt;Node22</title>
<path fill="none" stroke="midnightblue" d="M1154.62,-61.61C1244.5,-56.69 1399.58,-45.41 1541.62,-19.84"/>
<polygon fill="midnightblue" stroke="midnightblue" points="1542.61,-23.22 1551.82,-17.97 1541.35,-16.33 1542.61,-23.22"/>
</g>
<!-- Node23 -->
<g id="node23" class="node">
<title>Node23</title>
<g id="a_node23"><a xlink:title=" ">
<polygon fill="none" stroke="#bfbfbf" points="1617.5,-0.5 1617.5,-19.5 1665.5,-19.5 1665.5,-0.5 1617.5,-0.5"/>
<text text-anchor="middle" x="1641.5" y="-7.5" font-family="Helvetica,sans-Serif" font-size="10.00">thread</text>
</a>
</g>
</g>
<!-- Node3&#45;&gt;Node23 -->
<g id="edge22" class="edge">
<title>Node3&#45;&gt;Node23</title>
<path fill="none" stroke="midnightblue" d="M1154.52,-62.9C1255.54,-59.11 1440.9,-48.83 1607.53,-19.85"/>
<polygon fill="midnightblue" stroke="midnightblue" points="1608.22,-23.28 1617.46,-18.1 1607.01,-16.39 1608.22,-23.28"/>
</g>
<!-- Node24 -->
<g id="node24" class="node">
<title>Node24</title>
<g id="a_node24"><a xlink:title=" ">
<polygon fill="none" stroke="#bfbfbf" points="1683.5,-0.5 1683.5,-19.5 1731.5,-19.5 1731.5,-0.5 1683.5,-0.5"/>
<text text-anchor="middle" x="1707.5" y="-7.5" font-family="Helvetica,sans-Serif" font-size="10.00">mutex</text>
</a>
</g>
</g>
<!-- Node3&#45;&gt;Node24 -->
<g id="edge23" class="edge">
<title>Node3&#45;&gt;Node24</title>
<path fill="none" stroke="midnightblue" d="M1154.74,-63.9C1266.25,-61.25 1481.94,-52.24 1673.5,-19.84"/>
<polygon fill="midnightblue" stroke="midnightblue" points="1674.21,-23.27 1683.47,-18.12 1673.02,-16.37 1674.21,-23.27"/>
</g>
<!-- Node25 -->
<g id="node25" class="node">
<title>Node25</title>
<g id="a_node25"><a xlink:title=" ">
<polygon fill="none" stroke="#bfbfbf" points="1750,-0.5 1750,-19.5 1797,-19.5 1797,-0.5 1750,-0.5"/>
<text text-anchor="middle" x="1773.5" y="-7.5" font-family="Helvetica,sans-Serif" font-size="10.00">queue</text>
</a>
</g>
</g>
<!-- Node3&#45;&gt;Node25 -->
<g id="edge24" class="edge">
<title>Node3&#45;&gt;Node25</title>
<path fill="none" stroke="midnightblue" d="M1154.91,-64.71C1276.37,-63.18 1522.79,-55.67 1739.85,-19.74"/>
<polygon fill="midnightblue" stroke="midnightblue" points="1740.55,-23.17 1749.83,-18.06 1739.39,-16.26 1740.55,-23.17"/>
</g>
<!-- Node26 -->
<g id="node26" class="node">
<title>Node26</title>
<g id="a_node26"><a xlink:title=" ">
<polygon fill="none" stroke="#bfbfbf" points="1815.5,-0.5 1815.5,-19.5 1853.5,-19.5 1853.5,-0.5 1815.5,-0.5"/>
<text text-anchor="middle" x="1834.5" y="-7.5" font-family="Helvetica,sans-Serif" font-size="10.00">map</text>
</a>
</g>
</g>
<!-- Node3&#45;&gt;Node26 -->
<g id="edge25" class="edge">
<title>Node3&#45;&gt;Node26</title>
<path fill="none" stroke="midnightblue" d="M1154.69,-62.72C1310.57,-57.61 1665.36,-43.94 1805.29,-19.68"/>
<polygon fill="midnightblue" stroke="midnightblue" points="1806.17,-23.08 1815.38,-17.84 1804.92,-16.19 1806.17,-23.08"/>
</g>
<!-- Node27&#45;&gt;Node2 -->
<g id="edge27" class="edge">
<title>Node27&#45;&gt;Node2</title>
<path fill="none" stroke="midnightblue" d="M634.03,-459.4C614.26,-451.58 592.9,-439.92 578.5,-423 558.99,-400.08 559.5,-388.1 559.5,-358 559.5,-358 559.5,-358 559.5,-244 559.5,-210.54 569.38,-197.14 597.5,-179 661.56,-137.66 876.45,-129.54 996.54,-128.33"/>
<polygon fill="midnightblue" stroke="midnightblue" points="996.82,-131.83 1006.79,-128.24 996.76,-124.83 996.82,-131.83"/>
</g>
<!-- Node27&#45;&gt;Node28 -->
<g id="edge28" class="edge">
<title>Node27&#45;&gt;Node28</title>
<path fill="none" stroke="midnightblue" d="M723.4,-459.44C744.43,-450.78 770.18,-438.37 790.5,-423 808.57,-409.33 825.14,-389.18 835.71,-374.95"/>
<polygon fill="midnightblue" stroke="midnightblue" points="838.73,-376.74 841.74,-366.58 833.05,-372.65 838.73,-376.74"/>
</g>
<!-- Node44 -->
<g id="node44" class="node">
<title>Node44</title>
<g id="a_node44"><a xlink:href="../../d8/dba/a00773.html" target="_top" xlink:title=" ">
<polygon fill="none" stroke="black" points="587,-403.5 587,-422.5 782,-422.5 782,-403.5 587,-403.5"/>
<text text-anchor="middle" x="684.5" y="-410.5" font-family="Helvetica,sans-Serif" font-size="10.00">discordcoreapi/WebHookEntities.hpp</text>
</a>
</g>
</g>
<!-- Node27&#45;&gt;Node44 -->
<g id="edge47" class="edge">
<title>Node27&#45;&gt;Node44</title>
<path fill="none" stroke="midnightblue" d="M684.5,-459.4C684.5,-451.47 684.5,-441.46 684.5,-432.86"/>
<polygon fill="midnightblue" stroke="midnightblue" points="688,-432.66 684.5,-422.66 681,-432.66 688,-432.66"/>
</g>
<!-- Node28&#45;&gt;Node2 -->
<g id="edge29" class="edge">
<title>Node28&#45;&gt;Node2</title>
<path fill="none" stroke="midnightblue" d="M943.57,-356.42C1174.84,-355.18 1752.23,-337.95 1871.5,-199 1877.29,-192.26 1877.58,-185.48 1871.5,-179 1847.49,-153.42 1360.2,-136.57 1162.13,-130.76"/>
<polygon fill="midnightblue" stroke="midnightblue" points="1162.16,-127.26 1152.07,-130.46 1161.96,-134.25 1162.16,-127.26"/>
</g>
<!-- Node29 -->
<g id="node29" class="node">
<title>Node29</title>
<g id="a_node29"><a xlink:href="../../db/d7c/a00722.html" target="_top" xlink:title=" ">
<polygon fill="none" stroke="black" points="930.5,-291.5 930.5,-310.5 1068.5,-310.5 1068.5,-291.5 930.5,-291.5"/>
<text text-anchor="middle" x="999.5" y="-298.5" font-family="Helvetica,sans-Serif" font-size="10.00">discordcoreapi/Https.hpp</text>
</a>
</g>
</g>
<!-- Node28&#45;&gt;Node29 -->
<g id="edge30" class="edge">
<title>Node28&#45;&gt;Node29</title>
<path fill="none" stroke="midnightblue" d="M871.58,-347.44C897.04,-338.4 937.39,-324.06 965.96,-313.92"/>
<polygon fill="midnightblue" stroke="midnightblue" points="967.28,-317.16 975.53,-310.52 964.93,-310.57 967.28,-317.16"/>
</g>
<!-- Node30 -->
<g id="node30" class="node">
<title>Node30</title>
<g id="a_node30"><a xlink:href="../../d5/de8/a00749.html" target="_top" xlink:title=" ">
<polygon fill="none" stroke="black" points="1071,-235.5 1071,-254.5 1234,-254.5 1234,-235.5 1071,-235.5"/>
<text text-anchor="middle" x="1152.5" y="-242.5" font-family="Helvetica,sans-Serif" font-size="10.00">discordcoreapi/SSLClients.hpp</text>
</a>
</g>
</g>
<!-- Node29&#45;&gt;Node30 -->
<g id="edge31" class="edge">
<title>Node29&#45;&gt;Node30</title>
<path fill="none" stroke="midnightblue" d="M1023.74,-291.44C1049.37,-282.4 1089.99,-268.06 1118.74,-257.92"/>
<polygon fill="midnightblue" stroke="midnightblue" points="1120.11,-261.15 1128.37,-254.52 1117.78,-254.54 1120.11,-261.15"/>
</g>
<!-- Node30&#45;&gt;Node2 -->
<g id="edge32" class="edge">
<title>Node30&#45;&gt;Node2</title>
<path fill="none" stroke="midnightblue" d="M1234.1,-242.72C1360.54,-239.27 1585.07,-226.46 1542.5,-179 1517.63,-151.27 1288.7,-137.3 1162.34,-131.64"/>
<polygon fill="midnightblue" stroke="midnightblue" points="1162.45,-128.14 1152.31,-131.2 1162.14,-135.14 1162.45,-128.14"/>
</g>
<!-- Node31 -->
<g id="node31" class="node">
<title>Node31</title>
<g id="a_node31"><a xlink:href="../../d4/d6a/a00704.html" target="_top" xlink:title=" ">
<polygon fill="none" stroke="black" points="1589.5,-179.5 1589.5,-198.5 1765.5,-198.5 1765.5,-179.5 1589.5,-179.5"/>
<text text-anchor="middle" x="1677.5" y="-186.5" font-family="Helvetica,sans-Serif" font-size="10.00">discordcoreapi/EventEntities.hpp</text>
</a>
</g>
</g>
<!-- Node30&#45;&gt;Node31 -->
<g id="edge33" class="edge">
<title>Node30&#45;&gt;Node31</title>
<path fill="none" stroke="midnightblue" d="M1234.24,-235.59C1329.12,-225.83 1485.23,-209.78 1584.62,-199.55"/>
<polygon fill="midnightblue" stroke="midnightblue" points="1585.06,-203.03 1594.65,-198.52 1584.34,-196.06 1585.06,-203.03"/>
</g>
<!-- Node32 -->
<g id="node32" class="node">
<title>Node32</title>
<g id="a_node32"><a xlink:title=" ">
<polygon fill="none" stroke="#bfbfbf" points="1783,-179.5 1783,-198.5 1862,-198.5 1862,-179.5 1783,-179.5"/>
<text text-anchor="middle" x="1822.5" y="-186.5" font-family="Helvetica,sans-Serif" font-size="10.00">openssl/err.h</text>
</a>
</g>
</g>
<!-- Node30&#45;&gt;Node32 -->
<g id="edge35" class="edge">
<title>Node30&#45;&gt;Node32</title>
<path fill="none" stroke="midnightblue" d="M1234.3,-241.03C1351.53,-236.12 1574.22,-224.36 1772.71,-199.1"/>
<polygon fill="midnightblue" stroke="midnightblue" points="1773.27,-202.56 1782.74,-197.81 1772.38,-195.62 1773.27,-202.56"/>
</g>
<!-- Node33 -->
<g id="node33" class="node">
<title>Node33</title>
<g id="a_node33"><a xlink:title=" ">
<polygon fill="none" stroke="#bfbfbf" points="625.5,-179.5 625.5,-198.5 705.5,-198.5 705.5,-179.5 625.5,-179.5"/>
<text text-anchor="middle" x="665.5" y="-186.5" font-family="Helvetica,sans-Serif" font-size="10.00">openssl/ssl.h</text>
</a>
</g>
</g>
<!-- Node30&#45;&gt;Node33 -->
<g id="edge36" class="edge">
<title>Node30&#45;&gt;Node33</title>
<path fill="none" stroke="midnightblue" d="M1070.93,-237.45C982.98,-229.96 838.97,-216.44 715.5,-199 715.4,-198.99 715.3,-198.97 715.2,-198.96"/>
<polygon fill="midnightblue" stroke="midnightblue" points="715.99,-195.54 705.57,-197.49 714.93,-202.46 715.99,-195.54"/>
</g>
<!-- Node34 -->
<g id="node34" class="node">
<title>Node34</title>
<g id="a_node34"><a xlink:title=" ">
<polygon fill="none" stroke="#bfbfbf" points="724,-179.5 724,-198.5 771,-198.5 771,-179.5 724,-179.5"/>
<text text-anchor="middle" x="747.5" y="-186.5" font-family="Helvetica,sans-Serif" font-size="10.00">fcntl.h</text>
</a>
</g>
</g>
<!-- Node30&#45;&gt;Node34 -->
<g id="edge37" class="edge">
<title>Node30&#45;&gt;Node34</title>
<path fill="none" stroke="midnightblue" d="M1070.69,-237.56C997.25,-230.99 886.41,-219.12 781.05,-198.83"/>
<polygon fill="midnightblue" stroke="midnightblue" points="781.68,-195.39 771.2,-196.91 780.34,-202.26 781.68,-195.39"/>
</g>
<!-- Node35 -->
<g id="node35" class="node">
<title>Node35</title>
<g id="a_node35"><a xlink:title=" ">
<polygon fill="none" stroke="#bfbfbf" points="789,-179.5 789,-198.5 842,-198.5 842,-179.5 789,-179.5"/>
<text text-anchor="middle" x="815.5" y="-186.5" font-family="Helvetica,sans-Serif" font-size="10.00">netdb.h</text>
</a>
</g>
</g>
<!-- Node30&#45;&gt;Node35 -->
<g id="edge38" class="edge">
<title>Node30&#45;&gt;Node35</title>
<path fill="none" stroke="midnightblue" d="M1082.53,-235.49C1023.64,-227.88 937.04,-215.65 852.23,-198.97"/>
<polygon fill="midnightblue" stroke="midnightblue" points="852.66,-195.49 842.17,-196.97 851.3,-202.36 852.66,-195.49"/>
</g>
<!-- Node36 -->
<g id="node36" class="node">
<title>Node36</title>
<g id="a_node36"><a xlink:title=" ">
<polygon fill="none" stroke="#bfbfbf" points="860.5,-179.5 860.5,-198.5 932.5,-198.5 932.5,-179.5 860.5,-179.5"/>
<text text-anchor="middle" x="896.5" y="-186.5" font-family="Helvetica,sans-Serif" font-size="10.00">netinet/in.h</text>
</a>
</g>
</g>
<!-- Node30&#45;&gt;Node36 -->
<g id="edge39" class="edge">
<title>Node30&#45;&gt;Node36</title>
<path fill="none" stroke="midnightblue" d="M1111.94,-235.44C1065.87,-225.73 990.85,-209.9 942.6,-199.73"/>
<polygon fill="midnightblue" stroke="midnightblue" points="943.24,-196.28 932.74,-197.64 941.8,-203.13 943.24,-196.28"/>
</g>
<!-- Node37 -->
<g id="node37" class="node">
<title>Node37</title>
<g id="a_node37"><a xlink:title=" ">
<polygon fill="none" stroke="#bfbfbf" points="950.5,-179.5 950.5,-198.5 1028.5,-198.5 1028.5,-179.5 950.5,-179.5"/>
<text text-anchor="middle" x="989.5" y="-186.5" font-family="Helvetica,sans-Serif" font-size="10.00">netinet/tcp.h</text>
</a>
</g>
</g>
<!-- Node30&#45;&gt;Node37 -->
<g id="edge40" class="edge">
<title>Node30&#45;&gt;Node37</title>
<path fill="none" stroke="midnightblue" d="M1126.67,-235.44C1099.25,-226.36 1055.72,-211.94 1025.07,-201.78"/>
<polygon fill="midnightblue" stroke="midnightblue" points="1025.8,-198.34 1015.21,-198.52 1023.6,-204.98 1025.8,-198.34"/>
</g>
<!-- Node38 -->
<g id="node38" class="node">
<title>Node38</title>
<g id="a_node38"><a xlink:title=" ">
<polygon fill="none" stroke="#bfbfbf" points="1047,-179.5 1047,-198.5 1100,-198.5 1100,-179.5 1047,-179.5"/>
<text text-anchor="middle" x="1073.5" y="-186.5" font-family="Helvetica,sans-Serif" font-size="10.00">stdint.h</text>
</a>
</g>
</g>
<!-- Node30&#45;&gt;Node38 -->
<g id="edge41" class="edge">
<title>Node30&#45;&gt;Node38</title>
<path fill="none" stroke="midnightblue" d="M1139.81,-235.32C1127.6,-226.98 1108.92,-214.21 1094.5,-204.35"/>
<polygon fill="midnightblue" stroke="midnightblue" points="1096.39,-201.41 1086.16,-198.65 1092.44,-207.19 1096.39,-201.41"/>
</g>
<!-- Node39 -->
<g id="node39" class="node">
<title>Node39</title>
<g id="a_node39"><a xlink:title=" ">
<polygon fill="none" stroke="#bfbfbf" points="1118,-179.5 1118,-198.5 1187,-198.5 1187,-179.5 1118,-179.5"/>
<text text-anchor="middle" x="1152.5" y="-186.5" font-family="Helvetica,sans-Serif" font-size="10.00">sys/epoll.h</text>
</a>
</g>
</g>
<!-- Node30&#45;&gt;Node39 -->
<g id="edge42" class="edge">
<title>Node30&#45;&gt;Node39</title>
<path fill="none" stroke="midnightblue" d="M1152.5,-235.08C1152.5,-228.01 1152.5,-217.86 1152.5,-208.99"/>
<polygon fill="midnightblue" stroke="midnightblue" points="1156,-208.75 1152.5,-198.75 1149,-208.75 1156,-208.75"/>
</g>
<!-- Node40 -->
<g id="node40" class="node">
<title>Node40</title>
<g id="a_node40"><a xlink:title=" ">
<polygon fill="none" stroke="#bfbfbf" points="1205,-179.5 1205,-198.5 1274,-198.5 1274,-179.5 1205,-179.5"/>
<text text-anchor="middle" x="1239.5" y="-186.5" font-family="Helvetica,sans-Serif" font-size="10.00">arpa/inet.h</text>
</a>
</g>
</g>
<!-- Node30&#45;&gt;Node40 -->
<g id="edge43" class="edge">
<title>Node30&#45;&gt;Node40</title>
<path fill="none" stroke="midnightblue" d="M1166.48,-235.32C1180.05,-226.9 1200.88,-213.97 1216.82,-204.07"/>
<polygon fill="midnightblue" stroke="midnightblue" points="1218.91,-206.9 1225.56,-198.65 1215.21,-200.95 1218.91,-206.9"/>
</g>
<!-- Node41 -->
<g id="node41" class="node">
<title>Node41</title>
<g id="a_node41"><a xlink:title=" ">
<polygon fill="none" stroke="#bfbfbf" points="1292,-179.5 1292,-198.5 1369,-198.5 1369,-179.5 1292,-179.5"/>
<text text-anchor="middle" x="1330.5" y="-186.5" font-family="Helvetica,sans-Serif" font-size="10.00">sys/socket.h</text>
</a>
</g>
</g>
<!-- Node30&#45;&gt;Node41 -->
<g id="edge44" class="edge">
<title>Node30&#45;&gt;Node41</title>
<path fill="none" stroke="midnightblue" d="M1180.7,-235.44C1210.91,-226.28 1259.01,-211.69 1292.53,-201.52"/>
<polygon fill="midnightblue" stroke="midnightblue" points="1293.87,-204.77 1302.43,-198.52 1291.84,-198.07 1293.87,-204.77"/>
</g>
<!-- Node42 -->
<g id="node42" class="node">
<title>Node42</title>
<g id="a_node42"><a xlink:title=" ">
<polygon fill="none" stroke="#bfbfbf" points="1387.5,-179.5 1387.5,-198.5 1459.5,-198.5 1459.5,-179.5 1387.5,-179.5"/>
<text text-anchor="middle" x="1423.5" y="-186.5" font-family="Helvetica,sans-Serif" font-size="10.00">sys/types.h</text>
</a>
</g>
</g>
<!-- Node30&#45;&gt;Node42 -->
<g id="edge45" class="edge">
<title>Node30&#45;&gt;Node42</title>
<path fill="none" stroke="midnightblue" d="M1195.41,-235.47C1238.74,-226.85 1307.88,-213.09 1376.96,-199.31"/>
<polygon fill="midnightblue" stroke="midnightblue" points="1378.03,-202.66 1387.15,-197.27 1376.66,-195.8 1378.03,-202.66"/>
</g>
<!-- Node43 -->
<g id="node43" class="node">
<title>Node43</title>
<g id="a_node43"><a xlink:title=" ">
<polygon fill="none" stroke="#bfbfbf" points="1477.5,-179.5 1477.5,-198.5 1533.5,-198.5 1533.5,-179.5 1477.5,-179.5"/>
<text text-anchor="middle" x="1505.5" y="-186.5" font-family="Helvetica,sans-Serif" font-size="10.00">unistd.h</text>
</a>
</g>
</g>
<!-- Node30&#45;&gt;Node43 -->
<g id="edge46" class="edge">
<title>Node30&#45;&gt;Node43</title>
<path fill="none" stroke="midnightblue" d="M1226.9,-235.48C1288.83,-227.91 1379.49,-215.73 1467.41,-199.06"/>
<polygon fill="midnightblue" stroke="midnightblue" points="1468.12,-202.48 1477.28,-197.16 1466.8,-195.61 1468.12,-202.48"/>
</g>
<!-- Node31&#45;&gt;Node2 -->
<g id="edge34" class="edge">
<title>Node31&#45;&gt;Node2</title>
<path fill="none" stroke="midnightblue" d="M1591.82,-179.48C1477.24,-168.07 1275.45,-148 1162.33,-136.74"/>
<polygon fill="midnightblue" stroke="midnightblue" points="1162.64,-133.25 1152.34,-135.75 1161.94,-140.22 1162.64,-133.25"/>
</g>
<!-- Node44&#45;&gt;Node2 -->
<g id="edge48" class="edge">
<title>Node44&#45;&gt;Node2</title>
<path fill="none" stroke="midnightblue" d="M670.52,-403.32C645.93,-386.85 597.5,-348.51 597.5,-302 597.5,-302 597.5,-302 597.5,-244 597.5,-213.9 593.43,-198.33 616.5,-179 644.98,-155.13 871.31,-139.5 996.65,-132.59"/>
<polygon fill="midnightblue" stroke="midnightblue" points="997.18,-136.06 1006.98,-132.02 996.8,-129.07 997.18,-136.06"/>
</g>
<!-- Node44&#45;&gt;Node28 -->
<g id="edge49" class="edge">
<title>Node44&#45;&gt;Node28</title>
<path fill="none" stroke="midnightblue" d="M710.33,-403.44C737.75,-394.36 781.28,-379.94 811.93,-369.78"/>
<polygon fill="midnightblue" stroke="midnightblue" points="813.4,-372.98 821.79,-366.52 811.2,-366.34 813.4,-372.98"/>
</g>
</g>
</svg>
