<?xml version="1.0" encoding="UTF-8" standalone="no"?>
<!DOCTYPE svg PUBLIC "-//W3C//DTD SVG 1.1//EN"
 "http://www.w3.org/Graphics/SVG/1.1/DTD/svg11.dtd">
<!-- Generated by graphviz version 2.43.0 (0)
 -->
<!-- Title: WebSocketEntities.hpp Pages: 1 -->
<svg width="2255pt" height="533pt"
 viewBox="0.00 0.00 2255.08 533.00" xmlns="http://www.w3.org/2000/svg" xmlns:xlink="http://www.w3.org/1999/xlink">
<g id="graph0" class="graph" transform="scale(1 1) rotate(0) translate(4 529)">
<title>WebSocketEntities.hpp</title>
<!-- Node1 -->
<g id="node1" class="node">
<title>Node1</title>
<g id="a_node1"><a xlink:title=" ">
<polygon fill="#bfbfbf" stroke="black" points="1214.08,-525 1086.08,-525 1086.08,-506 1214.08,-506 1214.08,-525"/>
<text text-anchor="middle" x="1150.08" y="-513" font-family="Helvetica,sans-Serif" font-size="10.00">WebSocketEntities.hpp</text>
</a>
</g>
</g>
<!-- Node2 -->
<g id="node2" class="node">
<title>Node2</title>
<g id="a_node2"><a xlink:href="../../db/d7c/a00722.html" target="_top" xlink:title=" ">
<polygon fill="none" stroke="black" points="1545.58,-140 1400.58,-140 1400.58,-110 1545.58,-110 1545.58,-140"/>
<text text-anchor="start" x="1408.58" y="-128" font-family="Helvetica,sans-Serif" font-size="10.00">discordcoreapi/Foundation</text>
<text text-anchor="middle" x="1473.08" y="-117" font-family="Helvetica,sans-Serif" font-size="10.00">Entities.hpp</text>
</a>
</g>
</g>
<!-- Node1&#45;&gt;Node2 -->
<g id="edge1" class="edge">
<title>Node1&#45;&gt;Node2</title>
<path fill="none" stroke="midnightblue" d="M1085.84,-511.86C843.87,-501.48 1.08,-461.41 1.08,-406.5 1.08,-406.5 1.08,-406.5 1.08,-239.5 1.08,-210.04 -3.24,-194 20.08,-176 74.51,-134 1089.12,-127.27 1389.79,-126.2"/>
<polygon fill="midnightblue" stroke="midnightblue" points="1390.2,-129.7 1400.18,-126.17 1390.17,-122.7 1390.2,-129.7"/>
</g>
<!-- Node27 -->
<g id="node27" class="node">
<title>Node27</title>
<g id="a_node27"><a xlink:href="../../dd/dd8/a00719.html" target="_top" xlink:title=" ">
<polygon fill="none" stroke="black" points="454.58,-250 275.58,-250 275.58,-231 454.58,-231 454.58,-250"/>
<text text-anchor="middle" x="365.08" y="-238" font-family="Helvetica,sans-Serif" font-size="10.00">discordcoreapi/AudioDecoder.hpp</text>
</a>
</g>
</g>
<!-- Node1&#45;&gt;Node27 -->
<g id="edge26" class="edge">
<title>Node1&#45;&gt;Node27</title>
<path fill="none" stroke="midnightblue" d="M1085.84,-510.09C926.35,-498.28 525.08,-462.97 525.08,-406.5 525.08,-406.5 525.08,-406.5 525.08,-349.5 525.08,-295.53 461.76,-266.72 414.79,-252.78"/>
<polygon fill="midnightblue" stroke="midnightblue" points="415.62,-249.37 405.04,-250.02 413.71,-256.11 415.62,-249.37"/>
</g>
<!-- Node28 -->
<g id="node28" class="node">
<title>Node28</title>
<g id="a_node28"><a xlink:href="../../d2/d4a/a00758.html" target="_top" xlink:title=" ">
<polygon fill="none" stroke="black" points="569.08,-195 393.08,-195 393.08,-176 569.08,-176 569.08,-195"/>
<text text-anchor="middle" x="481.08" y="-183" font-family="Helvetica,sans-Serif" font-size="10.00">discordcoreapi/EventEntities.hpp</text>
</a>
</g>
</g>
<!-- Node1&#45;&gt;Node28 -->
<g id="edge57" class="edge">
<title>Node1&#45;&gt;Node28</title>
<path fill="none" stroke="midnightblue" d="M1104.45,-505.95C1027.7,-490.26 881.08,-454.06 881.08,-406.5 881.08,-406.5 881.08,-406.5 881.08,-294.5 881.08,-259.93 655.5,-216.37 543.14,-196.83"/>
<polygon fill="midnightblue" stroke="midnightblue" points="543.41,-193.32 532.96,-195.07 542.22,-200.22 543.41,-193.32"/>
</g>
<!-- Node31 -->
<g id="node31" class="node">
<title>Node31</title>
<g id="a_node31"><a xlink:href="../../dd/d5c/a00752.html" target="_top" xlink:title=" ">
<polygon fill="none" stroke="black" points="1622.58,-470 1413.58,-470 1413.58,-451 1622.58,-451 1622.58,-470"/>
<text text-anchor="middle" x="1518.08" y="-458" font-family="Helvetica,sans-Serif" font-size="10.00">discordcoreapi/CommandController.hpp</text>
</a>
</g>
</g>
<!-- Node1&#45;&gt;Node31 -->
<g id="edge32" class="edge">
<title>Node1&#45;&gt;Node31</title>
<path fill="none" stroke="midnightblue" d="M1209.21,-505.98C1274.56,-496.57 1379.72,-481.43 1448.87,-471.47"/>
<polygon fill="midnightblue" stroke="midnightblue" points="1449.4,-474.93 1458.8,-470.04 1448.4,-468 1449.4,-474.93"/>
</g>
<!-- Node33 -->
<g id="node33" class="node">
<title>Node33</title>
<g id="a_node33"><a xlink:href="../../d3/d4f/a00761.html" target="_top" xlink:title=" ">
<polygon fill="none" stroke="black" points="1569.58,-360 1402.58,-360 1402.58,-341 1569.58,-341 1569.58,-360"/>
<text text-anchor="middle" x="1486.08" y="-348" font-family="Helvetica,sans-Serif" font-size="10.00">discordcoreapi/ThreadPool.hpp</text>
</a>
</g>
</g>
<!-- Node1&#45;&gt;Node33 -->
<g id="edge59" class="edge">
<title>Node1&#45;&gt;Node33</title>
<path fill="none" stroke="midnightblue" d="M1167.67,-505.97C1222.88,-479.18 1392.99,-396.66 1459.26,-364.51"/>
<polygon fill="midnightblue" stroke="midnightblue" points="1460.79,-367.66 1468.26,-360.15 1457.73,-361.36 1460.79,-367.66"/>
</g>
<!-- Node35 -->
<g id="node35" class="node">
<title>Node35</title>
<g id="a_node35"><a xlink:href="../../dd/d57/a00701.html" target="_top" xlink:title=" ">
<polygon fill="none" stroke="black" points="1231.58,-250 1068.58,-250 1068.58,-231 1231.58,-231 1231.58,-250"/>
<text text-anchor="middle" x="1150.08" y="-238" font-family="Helvetica,sans-Serif" font-size="10.00">discordcoreapi/SSLClients.hpp</text>
</a>
</g>
</g>
<!-- Node1&#45;&gt;Node35 -->
<g id="edge58" class="edge">
<title>Node1&#45;&gt;Node35</title>
<path fill="none" stroke="midnightblue" d="M1150.08,-505.82C1150.08,-487.48 1150.08,-443.44 1150.08,-406.5 1150.08,-406.5 1150.08,-406.5 1150.08,-349.5 1150.08,-318.19 1150.08,-281.77 1150.08,-260.23"/>
<polygon fill="midnightblue" stroke="midnightblue" points="1153.58,-260.18 1150.08,-250.18 1146.58,-260.18 1153.58,-260.18"/>
</g>
<!-- Node49 -->
<g id="node49" class="node">
<title>Node49</title>
<g id="a_node49"><a xlink:href="../../d4/dfa/a00746.html" target="_top" xlink:title=" ">
<polygon fill="none" stroke="black" points="1918.58,-415 1763.58,-415 1763.58,-396 1918.58,-396 1918.58,-415"/>
<text text-anchor="middle" x="1841.08" y="-403" font-family="Helvetica,sans-Serif" font-size="10.00">discordcoreapi/ErlPacker.hpp</text>
</a>
</g>
</g>
<!-- Node1&#45;&gt;Node49 -->
<g id="edge55" class="edge">
<title>Node1&#45;&gt;Node49</title>
<path fill="none" stroke="midnightblue" d="M1214.46,-512.66C1307.29,-509.07 1483.75,-498.78 1631.08,-470 1695.31,-457.45 1767.93,-433.14 1808.74,-418.51"/>
<polygon fill="midnightblue" stroke="midnightblue" points="1809.95,-421.79 1818.16,-415.1 1807.56,-415.21 1809.95,-421.79"/>
</g>
<!-- Node3 -->
<g id="node3" class="node">
<title>Node3</title>
<g id="a_node3"><a xlink:href="../../d1/d87/a00689.html" target="_top" xlink:title=" ">
<polygon fill="none" stroke="black" points="1548.08,-74 1398.08,-74 1398.08,-55 1548.08,-55 1548.08,-74"/>
<text text-anchor="middle" x="1473.08" y="-62" font-family="Helvetica,sans-Serif" font-size="10.00">discordcoreapi/Utilities.hpp</text>
</a>
</g>
</g>
<!-- Node2&#45;&gt;Node3 -->
<g id="edge2" class="edge">
<title>Node2&#45;&gt;Node3</title>
<path fill="none" stroke="midnightblue" d="M1473.08,-109.84C1473.08,-102.21 1473.08,-92.7 1473.08,-84.45"/>
<polygon fill="midnightblue" stroke="midnightblue" points="1476.58,-84.27 1473.08,-74.27 1469.58,-84.27 1476.58,-84.27"/>
</g>
<!-- Node4 -->
<g id="node4" class="node">
<title>Node4</title>
<g id="a_node4"><a xlink:title=" ">
<polygon fill="none" stroke="#bfbfbf" points="456.58,-19 393.58,-19 393.58,0 456.58,0 456.58,-19"/>
<text text-anchor="middle" x="425.08" y="-7" font-family="Helvetica,sans-Serif" font-size="10.00">pthread.h</text>
</a>
</g>
</g>
<!-- Node3&#45;&gt;Node4 -->
<g id="edge3" class="edge">
<title>Node3&#45;&gt;Node4</title>
<path fill="none" stroke="midnightblue" d="M1397.89,-64.28C1231.62,-65.12 820.22,-62.31 466.95,-18.86"/>
<polygon fill="midnightblue" stroke="midnightblue" points="467.14,-15.36 456.78,-17.6 466.27,-22.3 467.14,-15.36"/>
</g>
<!-- Node5 -->
<g id="node5" class="node">
<title>Node5</title>
<g id="a_node5"><a xlink:title=" ">
<polygon fill="none" stroke="#bfbfbf" points="543.08,-19 475.08,-19 475.08,0 543.08,0 543.08,-19"/>
<text text-anchor="middle" x="509.08" y="-7" font-family="Helvetica,sans-Serif" font-size="10.00">sys/time.h</text>
</a>
</g>
</g>
<!-- Node3&#45;&gt;Node5 -->
<g id="edge4" class="edge">
<title>Node3&#45;&gt;Node5</title>
<path fill="none" stroke="midnightblue" d="M1397.85,-63.6C1242.02,-62.99 872.56,-57.34 553.65,-18.99"/>
<polygon fill="midnightblue" stroke="midnightblue" points="553.62,-15.46 543.28,-17.73 552.78,-22.41 553.62,-15.46"/>
</g>
<!-- Node6 -->
<g id="node6" class="node">
<title>Node6</title>
<g id="a_node6"><a xlink:title=" ">
<polygon fill="none" stroke="#bfbfbf" points="609.08,-19 561.08,-19 561.08,0 609.08,0 609.08,-19"/>
<text text-anchor="middle" x="585.08" y="-7" font-family="Helvetica,sans-Serif" font-size="10.00">time.h</text>
</a>
</g>
</g>
<!-- Node3&#45;&gt;Node6 -->
<g id="edge5" class="edge">
<title>Node3&#45;&gt;Node6</title>
<path fill="none" stroke="midnightblue" d="M1397.82,-61.52C1221.69,-56.56 785.67,-42.46 619.21,-18.78"/>
<polygon fill="midnightblue" stroke="midnightblue" points="619.52,-15.29 609.12,-17.28 618.49,-22.21 619.52,-15.29"/>
</g>
<!-- Node7 -->
<g id="node7" class="node">
<title>Node7</title>
<g id="a_node7"><a xlink:title=" ">
<polygon fill="none" stroke="#bfbfbf" points="671.08,-19 627.08,-19 627.08,0 671.08,0 671.08,-19"/>
<text text-anchor="middle" x="649.08" y="-7" font-family="Helvetica,sans-Serif" font-size="10.00">ctime</text>
</a>
</g>
</g>
<!-- Node3&#45;&gt;Node7 -->
<g id="edge6" class="edge">
<title>Node3&#45;&gt;Node7</title>
<path fill="none" stroke="midnightblue" d="M1397.94,-61.31C1231.53,-56.15 835.18,-41.99 681.51,-18.81"/>
<polygon fill="midnightblue" stroke="midnightblue" points="681.73,-15.3 671.31,-17.2 680.64,-22.22 681.73,-15.3"/>
</g>
<!-- Node8 -->
<g id="node8" class="node">
<title>Node8</title>
<g id="a_node8"><a xlink:title=" ">
<polygon fill="none" stroke="#bfbfbf" points="796.58,-19 689.58,-19 689.58,0 796.58,0 796.58,-19"/>
<text text-anchor="middle" x="743.08" y="-7" font-family="Helvetica,sans-Serif" font-size="10.00">condition_variable</text>
</a>
</g>
</g>
<!-- Node3&#45;&gt;Node8 -->
<g id="edge7" class="edge">
<title>Node3&#45;&gt;Node8</title>
<path fill="none" stroke="midnightblue" d="M1397.92,-60.14C1276.14,-54.34 1027.94,-40.98 806.84,-19"/>
<polygon fill="midnightblue" stroke="midnightblue" points="806.97,-15.5 796.67,-17.98 806.27,-22.46 806.97,-15.5"/>
</g>
<!-- Node9 -->
<g id="node9" class="node">
<title>Node9</title>
<g id="a_node9"><a xlink:title=" ">
<polygon fill="none" stroke="#bfbfbf" points="925.08,-19 815.08,-19 815.08,0 925.08,0 925.08,-19"/>
<text text-anchor="middle" x="870.08" y="-7" font-family="Helvetica,sans-Serif" font-size="10.00">nlohmann/json.hpp</text>
</a>
</g>
</g>
<!-- Node3&#45;&gt;Node9 -->
<g id="edge8" class="edge">
<title>Node3&#45;&gt;Node9</title>
<path fill="none" stroke="midnightblue" d="M1397.98,-58.48C1295.71,-51.39 1106.69,-37.33 935.19,-19.07"/>
<polygon fill="midnightblue" stroke="midnightblue" points="935.53,-15.59 925.22,-18 934.79,-22.55 935.53,-15.59"/>
</g>
<!-- Node10 -->
<g id="node10" class="node">
<title>Node10</title>
<g id="a_node10"><a xlink:title=" ">
<polygon fill="none" stroke="#bfbfbf" points="1036.58,-19 943.58,-19 943.58,0 1036.58,0 1036.58,-19"/>
<text text-anchor="middle" x="990.08" y="-7" font-family="Helvetica,sans-Serif" font-size="10.00">source_location</text>
</a>
</g>
</g>
<!-- Node3&#45;&gt;Node10 -->
<g id="edge9" class="edge">
<title>Node3&#45;&gt;Node10</title>
<path fill="none" stroke="midnightblue" d="M1397.95,-56.83C1314.56,-49.17 1175.71,-35.64 1046.91,-19.18"/>
<polygon fill="midnightblue" stroke="midnightblue" points="1047.23,-15.7 1036.87,-17.89 1046.34,-22.64 1047.23,-15.7"/>
</g>
<!-- Node11 -->
<g id="node11" class="node">
<title>Node11</title>
<g id="a_node11"><a xlink:title=" ">
<polygon fill="none" stroke="#bfbfbf" points="1147.58,-19 1054.58,-19 1054.58,0 1147.58,0 1147.58,-19"/>
<text text-anchor="middle" x="1101.08" y="-7" font-family="Helvetica,sans-Serif" font-size="10.00">unordered_map</text>
</a>
</g>
</g>
<!-- Node3&#45;&gt;Node11 -->
<g id="edge10" class="edge">
<title>Node3&#45;&gt;Node11</title>
<path fill="none" stroke="midnightblue" d="M1411.29,-55C1349.75,-46.49 1252.28,-32.88 1157.84,-19.1"/>
<polygon fill="midnightblue" stroke="midnightblue" points="1158.23,-15.62 1147.83,-17.63 1157.21,-22.54 1158.23,-15.62"/>
</g>
<!-- Node12 -->
<g id="node12" class="node">
<title>Node12</title>
<g id="a_node12"><a xlink:title=" ">
<polygon fill="none" stroke="#bfbfbf" points="1252.08,-19 1166.08,-19 1166.08,0 1252.08,0 1252.08,-19"/>
<text text-anchor="middle" x="1209.08" y="-7" font-family="Helvetica,sans-Serif" font-size="10.00">shared_mutex</text>
</a>
</g>
</g>
<!-- Node3&#45;&gt;Node12 -->
<g id="edge11" class="edge">
<title>Node3&#45;&gt;Node12</title>
<path fill="none" stroke="midnightblue" d="M1430.66,-54.98C1384.71,-45.76 1311.33,-31.03 1261.73,-21.07"/>
<polygon fill="midnightblue" stroke="midnightblue" points="1262.32,-17.62 1251.83,-19.08 1260.94,-24.48 1262.32,-17.62"/>
</g>
<!-- Node13 -->
<g id="node13" class="node">
<title>Node13</title>
<g id="a_node13"><a xlink:title=" ">
<polygon fill="none" stroke="#bfbfbf" points="1335.58,-19 1270.58,-19 1270.58,0 1335.58,0 1335.58,-19"/>
<text text-anchor="middle" x="1303.08" y="-7" font-family="Helvetica,sans-Serif" font-size="10.00">functional</text>
</a>
</g>
</g>
<!-- Node3&#45;&gt;Node13 -->
<g id="edge12" class="edge">
<title>Node3&#45;&gt;Node13</title>
<path fill="none" stroke="midnightblue" d="M1445.77,-54.98C1417.23,-46.09 1372.26,-32.07 1340.44,-22.15"/>
<polygon fill="midnightblue" stroke="midnightblue" points="1341.2,-18.72 1330.61,-19.08 1339.11,-25.4 1341.2,-18.72"/>
</g>
<!-- Node14 -->
<g id="node14" class="node">
<title>Node14</title>
<g id="a_node14"><a xlink:title=" ">
<polygon fill="none" stroke="#bfbfbf" points="1424.58,-19 1353.58,-19 1353.58,0 1424.58,0 1424.58,-19"/>
<text text-anchor="middle" x="1389.08" y="-7" font-family="Helvetica,sans-Serif" font-size="10.00">semaphore</text>
</a>
</g>
</g>
<!-- Node3&#45;&gt;Node14 -->
<g id="edge13" class="edge">
<title>Node3&#45;&gt;Node14</title>
<path fill="none" stroke="midnightblue" d="M1459.58,-54.98C1446.68,-46.84 1426.98,-34.41 1411.68,-24.76"/>
<polygon fill="midnightblue" stroke="midnightblue" points="1413.15,-21.55 1402.82,-19.17 1409.41,-27.47 1413.15,-21.55"/>
</g>
<!-- Node15 -->
<g id="node15" class="node">
<title>Node15</title>
<g id="a_node15"><a xlink:title=" ">
<polygon fill="none" stroke="#bfbfbf" points="1503.08,-19 1443.08,-19 1443.08,0 1503.08,0 1503.08,-19"/>
<text text-anchor="middle" x="1473.08" y="-7" font-family="Helvetica,sans-Serif" font-size="10.00">concepts</text>
</a>
</g>
</g>
<!-- Node3&#45;&gt;Node15 -->
<g id="edge14" class="edge">
<title>Node3&#45;&gt;Node15</title>
<path fill="none" stroke="midnightblue" d="M1473.08,-54.75C1473.08,-47.8 1473.08,-37.85 1473.08,-29.13"/>
<polygon fill="midnightblue" stroke="midnightblue" points="1476.58,-29.09 1473.08,-19.09 1469.58,-29.09 1476.58,-29.09"/>
</g>
<!-- Node16 -->
<g id="node16" class="node">
<title>Node16</title>
<g id="a_node16"><a xlink:title=" ">
<polygon fill="none" stroke="#bfbfbf" points="1581.08,-19 1521.08,-19 1521.08,0 1581.08,0 1581.08,-19"/>
<text text-anchor="middle" x="1551.08" y="-7" font-family="Helvetica,sans-Serif" font-size="10.00">iostream</text>
</a>
</g>
</g>
<!-- Node3&#45;&gt;Node16 -->
<g id="edge15" class="edge">
<title>Node3&#45;&gt;Node16</title>
<path fill="none" stroke="midnightblue" d="M1485.61,-54.98C1497.48,-46.92 1515.54,-34.65 1529.69,-25.03"/>
<polygon fill="midnightblue" stroke="midnightblue" points="1532.02,-27.69 1538.32,-19.17 1528.08,-21.9 1532.02,-27.69"/>
</g>
<!-- Node17 -->
<g id="node17" class="node">
<title>Node17</title>
<g id="a_node17"><a xlink:title=" ">
<polygon fill="none" stroke="#bfbfbf" points="1654.58,-19 1599.58,-19 1599.58,0 1654.58,0 1654.58,-19"/>
<text text-anchor="middle" x="1627.08" y="-7" font-family="Helvetica,sans-Serif" font-size="10.00">fstream</text>
</a>
</g>
</g>
<!-- Node3&#45;&gt;Node17 -->
<g id="edge16" class="edge">
<title>Node3&#45;&gt;Node17</title>
<path fill="none" stroke="midnightblue" d="M1497.82,-54.98C1523.45,-46.16 1563.71,-32.31 1592.49,-22.41"/>
<polygon fill="midnightblue" stroke="midnightblue" points="1593.83,-25.65 1602.14,-19.08 1591.55,-19.03 1593.83,-25.65"/>
</g>
<!-- Node18 -->
<g id="node18" class="node">
<title>Node18</title>
<g id="a_node18"><a xlink:title=" ">
<polygon fill="none" stroke="#bfbfbf" points="1717.08,-19 1673.08,-19 1673.08,0 1717.08,0 1717.08,-19"/>
<text text-anchor="middle" x="1695.08" y="-7" font-family="Helvetica,sans-Serif" font-size="10.00">bitset</text>
</a>
</g>
</g>
<!-- Node3&#45;&gt;Node18 -->
<g id="edge17" class="edge">
<title>Node3&#45;&gt;Node18</title>
<path fill="none" stroke="midnightblue" d="M1511.01,-54.96C1549.42,-46.24 1610.49,-32.14 1663.08,-19 1663.18,-18.97 1663.28,-18.95 1663.38,-18.92"/>
<polygon fill="midnightblue" stroke="midnightblue" points="1664.25,-22.31 1673.07,-16.44 1662.51,-15.53 1664.25,-22.31"/>
</g>
<!-- Node19 -->
<g id="node19" class="node">
<title>Node19</title>
<g id="a_node19"><a xlink:title=" ">
<polygon fill="none" stroke="#bfbfbf" points="1793.08,-19 1735.08,-19 1735.08,0 1793.08,0 1793.08,-19"/>
<text text-anchor="middle" x="1764.08" y="-7" font-family="Helvetica,sans-Serif" font-size="10.00">memory</text>
</a>
</g>
</g>
<!-- Node3&#45;&gt;Node19 -->
<g id="edge18" class="edge">
<title>Node3&#45;&gt;Node19</title>
<path fill="none" stroke="midnightblue" d="M1525.54,-55C1574.6,-46.88 1650.14,-33.97 1724.99,-19.14"/>
<polygon fill="midnightblue" stroke="midnightblue" points="1725.94,-22.52 1735.06,-17.13 1724.57,-15.66 1725.94,-22.52"/>
</g>
<!-- Node20 -->
<g id="node20" class="node">
<title>Node20</title>
<g id="a_node20"><a xlink:title=" ">
<polygon fill="none" stroke="#bfbfbf" points="1865.08,-19 1811.08,-19 1811.08,0 1865.08,0 1865.08,-19"/>
<text text-anchor="middle" x="1838.08" y="-7" font-family="Helvetica,sans-Serif" font-size="10.00">random</text>
</a>
</g>
</g>
<!-- Node3&#45;&gt;Node20 -->
<g id="edge19" class="edge">
<title>Node3&#45;&gt;Node20</title>
<path fill="none" stroke="midnightblue" d="M1548.22,-55.45C1612.77,-48.05 1708.49,-35.92 1800.92,-19.05"/>
<polygon fill="midnightblue" stroke="midnightblue" points="1801.82,-22.45 1811.01,-17.19 1800.54,-15.56 1801.82,-22.45"/>
</g>
<!-- Node21 -->
<g id="node21" class="node">
<title>Node21</title>
<g id="a_node21"><a xlink:title=" ">
<polygon fill="none" stroke="#bfbfbf" points="1927.08,-19 1883.08,-19 1883.08,0 1927.08,0 1927.08,-19"/>
<text text-anchor="middle" x="1905.08" y="-7" font-family="Helvetica,sans-Serif" font-size="10.00">string</text>
</a>
</g>
</g>
<!-- Node3&#45;&gt;Node21 -->
<g id="edge20" class="edge">
<title>Node3&#45;&gt;Node21</title>
<path fill="none" stroke="midnightblue" d="M1548.25,-58.7C1627.01,-52.87 1754.4,-41.19 1872.86,-18.95"/>
<polygon fill="midnightblue" stroke="midnightblue" points="1873.66,-22.36 1882.83,-17.05 1872.35,-15.49 1873.66,-22.36"/>
</g>
<!-- Node22 -->
<g id="node22" class="node">
<title>Node22</title>
<g id="a_node22"><a xlink:title=" ">
<polygon fill="none" stroke="#bfbfbf" points="1992.58,-19 1945.58,-19 1945.58,0 1992.58,0 1992.58,-19"/>
<text text-anchor="middle" x="1969.08" y="-7" font-family="Helvetica,sans-Serif" font-size="10.00">vector</text>
</a>
</g>
</g>
<!-- Node3&#45;&gt;Node22 -->
<g id="edge21" class="edge">
<title>Node3&#45;&gt;Node22</title>
<path fill="none" stroke="midnightblue" d="M1548.14,-59.9C1637.97,-54.78 1793,-43.38 1935.17,-18.86"/>
<polygon fill="midnightblue" stroke="midnightblue" points="1936.14,-22.25 1945.38,-17.08 1934.93,-15.35 1936.14,-22.25"/>
</g>
<!-- Node23 -->
<g id="node23" class="node">
<title>Node23</title>
<g id="a_node23"><a xlink:title=" ">
<polygon fill="none" stroke="#bfbfbf" points="2059.08,-19 2011.08,-19 2011.08,0 2059.08,0 2059.08,-19"/>
<text text-anchor="middle" x="2035.08" y="-7" font-family="Helvetica,sans-Serif" font-size="10.00">thread</text>
</a>
</g>
</g>
<!-- Node3&#45;&gt;Node23 -->
<g id="edge22" class="edge">
<title>Node3&#45;&gt;Node23</title>
<path fill="none" stroke="midnightblue" d="M1548.48,-61.14C1649.54,-57.1 1834.52,-46.58 2001.1,-18.87"/>
<polygon fill="midnightblue" stroke="midnightblue" points="2001.75,-22.31 2011.03,-17.19 2000.59,-15.41 2001.75,-22.31"/>
</g>
<!-- Node24 -->
<g id="node24" class="node">
<title>Node24</title>
<g id="a_node24"><a xlink:title=" ">
<polygon fill="none" stroke="#bfbfbf" points="2125.08,-19 2077.08,-19 2077.08,0 2125.08,0 2125.08,-19"/>
<text text-anchor="middle" x="2101.08" y="-7" font-family="Helvetica,sans-Serif" font-size="10.00">mutex</text>
</a>
</g>
</g>
<!-- Node3&#45;&gt;Node24 -->
<g id="edge23" class="edge">
<title>Node3&#45;&gt;Node24</title>
<path fill="none" stroke="midnightblue" d="M1548.26,-62.14C1659.7,-59.19 1875.3,-49.86 2067.06,-18.86"/>
<polygon fill="midnightblue" stroke="midnightblue" points="2067.73,-22.29 2077.04,-17.22 2066.6,-15.38 2067.73,-22.29"/>
</g>
<!-- Node25 -->
<g id="node25" class="node">
<title>Node25</title>
<g id="a_node25"><a xlink:title=" ">
<polygon fill="none" stroke="#bfbfbf" points="2190.58,-19 2143.58,-19 2143.58,0 2190.58,0 2190.58,-19"/>
<text text-anchor="middle" x="2167.08" y="-7" font-family="Helvetica,sans-Serif" font-size="10.00">queue</text>
</a>
</g>
</g>
<!-- Node3&#45;&gt;Node25 -->
<g id="edge24" class="edge">
<title>Node3&#45;&gt;Node25</title>
<path fill="none" stroke="midnightblue" d="M1548.43,-62.94C1669.81,-61.05 1916.12,-53.12 2133.4,-18.76"/>
<polygon fill="midnightblue" stroke="midnightblue" points="2134.08,-22.2 2143.4,-17.16 2132.97,-15.29 2134.08,-22.2"/>
</g>
<!-- Node26 -->
<g id="node26" class="node">
<title>Node26</title>
<g id="a_node26"><a xlink:title=" ">
<polygon fill="none" stroke="#bfbfbf" points="2247.08,-19 2209.08,-19 2209.08,0 2247.08,0 2247.08,-19"/>
<text text-anchor="middle" x="2228.08" y="-7" font-family="Helvetica,sans-Serif" font-size="10.00">map</text>
</a>
</g>
</g>
<!-- Node3&#45;&gt;Node26 -->
<g id="edge25" class="edge">
<title>Node3&#45;&gt;Node26</title>
<path fill="none" stroke="midnightblue" d="M1548.24,-61.13C1704.06,-55.85 2058.76,-41.9 2198.84,-18.71"/>
<polygon fill="midnightblue" stroke="midnightblue" points="2199.69,-22.12 2208.95,-16.95 2198.49,-15.22 2199.69,-22.12"/>
</g>
<!-- Node27&#45;&gt;Node2 -->
<g id="edge29" class="edge">
<title>Node27&#45;&gt;Node2</title>
<path fill="none" stroke="midnightblue" d="M364.78,-230.81C364.83,-216.73 367.21,-189.17 384.08,-176 423.58,-145.16 1143.23,-131.12 1390.48,-127.2"/>
<polygon fill="midnightblue" stroke="midnightblue" points="1390.54,-130.7 1400.49,-127.04 1390.43,-123.7 1390.54,-130.7"/>
</g>
<!-- Node27&#45;&gt;Node28 -->
<g id="edge27" class="edge">
<title>Node27&#45;&gt;Node28</title>
<path fill="none" stroke="midnightblue" d="M383.72,-230.98C402.38,-222.46 431.33,-209.23 452.82,-199.41"/>
<polygon fill="midnightblue" stroke="midnightblue" points="454.46,-202.51 462.1,-195.17 451.55,-196.14 454.46,-202.51"/>
</g>
<!-- Node29 -->
<g id="node29" class="node">
<title>Node29</title>
<g id="a_node29"><a xlink:title=" ">
<polygon fill="none" stroke="#bfbfbf" points="160.58,-195 29.58,-195 29.58,-176 160.58,-176 160.58,-195"/>
<text text-anchor="middle" x="95.08" y="-183" font-family="Helvetica,sans-Serif" font-size="10.00">libavformat/avformat.h</text>
</a>
</g>
</g>
<!-- Node27&#45;&gt;Node29 -->
<g id="edge30" class="edge">
<title>Node27&#45;&gt;Node29</title>
<path fill="none" stroke="midnightblue" d="M321.7,-230.98C274.7,-221.76 199.65,-207.03 148.92,-197.07"/>
<polygon fill="midnightblue" stroke="midnightblue" points="149.29,-193.57 138.8,-195.08 147.94,-200.44 149.29,-193.57"/>
</g>
<!-- Node30 -->
<g id="node30" class="node">
<title>Node30</title>
<g id="a_node30"><a xlink:title=" ">
<polygon fill="none" stroke="#bfbfbf" points="337.58,-195 178.58,-195 178.58,-176 337.58,-176 337.58,-195"/>
<text text-anchor="middle" x="258.08" y="-183" font-family="Helvetica,sans-Serif" font-size="10.00">libswresample/swresample.h</text>
</a>
</g>
</g>
<!-- Node27&#45;&gt;Node30 -->
<g id="edge31" class="edge">
<title>Node27&#45;&gt;Node30</title>
<path fill="none" stroke="midnightblue" d="M347.89,-230.98C330.83,-222.54 304.45,-209.47 284.69,-199.68"/>
<polygon fill="midnightblue" stroke="midnightblue" points="286.1,-196.47 275.58,-195.17 282.99,-202.75 286.1,-196.47"/>
</g>
<!-- Node28&#45;&gt;Node2 -->
<g id="edge28" class="edge">
<title>Node28&#45;&gt;Node2</title>
<path fill="none" stroke="midnightblue" d="M569.1,-176.66C572.13,-176.43 575.13,-176.21 578.08,-176 876.93,-154.56 1232.47,-137.09 1390.41,-129.74"/>
<polygon fill="midnightblue" stroke="midnightblue" points="1390.7,-133.23 1400.52,-129.27 1390.37,-126.24 1390.7,-133.23"/>
</g>
<!-- Node31&#45;&gt;Node2 -->
<g id="edge33" class="edge">
<title>Node31&#45;&gt;Node2</title>
<path fill="none" stroke="midnightblue" d="M1603.22,-450.96C1664.02,-439.61 1735.08,-413.15 1735.08,-351.5 1735.08,-351.5 1735.08,-351.5 1735.08,-239.5 1735.08,-160.16 1632.66,-135.66 1555.89,-128.44"/>
<polygon fill="midnightblue" stroke="midnightblue" points="1555.98,-124.94 1545.71,-127.57 1555.38,-131.91 1555.98,-124.94"/>
</g>
<!-- Node32 -->
<g id="node32" class="node">
<title>Node32</title>
<g id="a_node32"><a xlink:href="../../d3/d2c/a00764.html" target="_top" xlink:title=" ">
<polygon fill="none" stroke="black" points="1599.08,-415 1437.08,-415 1437.08,-396 1599.08,-396 1599.08,-415"/>
<text text-anchor="middle" x="1518.08" y="-403" font-family="Helvetica,sans-Serif" font-size="10.00">discordcoreapi/CoRoutine.hpp</text>
</a>
</g>
</g>
<!-- Node31&#45;&gt;Node32 -->
<g id="edge34" class="edge">
<title>Node31&#45;&gt;Node32</title>
<path fill="none" stroke="midnightblue" d="M1518.08,-450.75C1518.08,-443.8 1518.08,-433.85 1518.08,-425.13"/>
<polygon fill="midnightblue" stroke="midnightblue" points="1521.58,-425.09 1518.08,-415.09 1514.58,-425.09 1521.58,-425.09"/>
</g>
<!-- Node32&#45;&gt;Node2 -->
<g id="edge35" class="edge">
<title>Node32&#45;&gt;Node2</title>
<path fill="none" stroke="midnightblue" d="M1569.85,-395.96C1622.72,-383.94 1697.08,-356.39 1697.08,-296.5 1697.08,-296.5 1697.08,-296.5 1697.08,-239.5 1697.08,-173.91 1619.71,-146.21 1555.92,-134.52"/>
<polygon fill="midnightblue" stroke="midnightblue" points="1556.26,-131.03 1545.81,-132.78 1555.07,-137.93 1556.26,-131.03"/>
</g>
<!-- Node32&#45;&gt;Node33 -->
<g id="edge36" class="edge">
<title>Node32&#45;&gt;Node33</title>
<path fill="none" stroke="midnightblue" d="M1512.8,-395.75C1508.37,-388.42 1501.92,-377.73 1496.46,-368.7"/>
<polygon fill="midnightblue" stroke="midnightblue" points="1499.43,-366.84 1491.27,-360.09 1493.44,-370.46 1499.43,-366.84"/>
</g>
<!-- Node33&#45;&gt;Node2 -->
<g id="edge37" class="edge">
<title>Node33&#45;&gt;Node2</title>
<path fill="none" stroke="midnightblue" d="M1504.72,-340.92C1555.49,-316.38 1689.15,-243.37 1639.08,-176 1619.64,-149.84 1586.95,-136.87 1555.69,-130.6"/>
<polygon fill="midnightblue" stroke="midnightblue" points="1556.07,-127.12 1545.61,-128.8 1554.84,-134.01 1556.07,-127.12"/>
</g>
<!-- Node34 -->
<g id="node34" class="node">
<title>Node34</title>
<g id="a_node34"><a xlink:href="../../df/d9e/a00686.html" target="_top" xlink:title=" ">
<polygon fill="none" stroke="black" points="1555.08,-305 1417.08,-305 1417.08,-286 1555.08,-286 1555.08,-305"/>
<text text-anchor="middle" x="1486.08" y="-293" font-family="Helvetica,sans-Serif" font-size="10.00">discordcoreapi/Https.hpp</text>
</a>
</g>
</g>
<!-- Node33&#45;&gt;Node34 -->
<g id="edge38" class="edge">
<title>Node33&#45;&gt;Node34</title>
<path fill="none" stroke="midnightblue" d="M1486.08,-340.75C1486.08,-333.8 1486.08,-323.85 1486.08,-315.13"/>
<polygon fill="midnightblue" stroke="midnightblue" points="1489.58,-315.09 1486.08,-305.09 1482.58,-315.09 1489.58,-315.09"/>
</g>
<!-- Node48 -->
<g id="node48" class="node">
<title>Node48</title>
<g id="a_node48"><a xlink:title=" ">
<polygon fill="none" stroke="#bfbfbf" points="1399.08,-305 1337.08,-305 1337.08,-286 1399.08,-286 1399.08,-305"/>
<text text-anchor="middle" x="1368.08" y="-293" font-family="Helvetica,sans-Serif" font-size="10.00">coroutine</text>
</a>
</g>
</g>
<!-- Node33&#45;&gt;Node48 -->
<g id="edge54" class="edge">
<title>Node33&#45;&gt;Node48</title>
<path fill="none" stroke="midnightblue" d="M1467.12,-340.98C1448.05,-332.42 1418.42,-319.11 1396.53,-309.28"/>
<polygon fill="midnightblue" stroke="midnightblue" points="1397.94,-306.07 1387.38,-305.17 1395.07,-312.46 1397.94,-306.07"/>
</g>
<!-- Node34&#45;&gt;Node35 -->
<g id="edge39" class="edge">
<title>Node34&#45;&gt;Node35</title>
<path fill="none" stroke="midnightblue" d="M1432.1,-285.98C1372.79,-276.63 1277.59,-261.61 1214.45,-251.65"/>
<polygon fill="midnightblue" stroke="midnightblue" points="1214.63,-248.14 1204.21,-250.04 1213.54,-255.05 1214.63,-248.14"/>
</g>
<!-- Node35&#45;&gt;Node2 -->
<g id="edge40" class="edge">
<title>Node35&#45;&gt;Node2</title>
<path fill="none" stroke="midnightblue" d="M1175.46,-230.89C1199.77,-222.43 1237.33,-208.83 1269.08,-195 1286.39,-187.46 1289.53,-182.97 1307.08,-176 1339.77,-163.02 1377.2,-151.47 1408.24,-142.75"/>
<polygon fill="midnightblue" stroke="midnightblue" points="1409.37,-146.07 1418.07,-140.02 1407.5,-139.32 1409.37,-146.07"/>
</g>
<!-- Node35&#45;&gt;Node28 -->
<g id="edge41" class="edge">
<title>Node35&#45;&gt;Node28</title>
<path fill="none" stroke="midnightblue" d="M1068.13,-233.38C959.11,-225.18 760.1,-210.01 579.34,-195.1"/>
<polygon fill="midnightblue" stroke="midnightblue" points="579.36,-191.59 569.11,-194.25 578.78,-198.56 579.36,-191.59"/>
</g>
<!-- Node36 -->
<g id="node36" class="node">
<title>Node36</title>
<g id="a_node36"><a xlink:title=" ">
<polygon fill="none" stroke="#bfbfbf" points="1395.58,-195 1316.58,-195 1316.58,-176 1395.58,-176 1395.58,-195"/>
<text text-anchor="middle" x="1356.08" y="-183" font-family="Helvetica,sans-Serif" font-size="10.00">openssl/err.h</text>
</a>
</g>
</g>
<!-- Node35&#45;&gt;Node36 -->
<g id="edge42" class="edge">
<title>Node35&#45;&gt;Node36</title>
<path fill="none" stroke="midnightblue" d="M1183.18,-230.98C1218.36,-221.93 1274.15,-207.58 1312.8,-197.64"/>
<polygon fill="midnightblue" stroke="midnightblue" points="1313.91,-200.96 1322.72,-195.08 1312.17,-194.18 1313.91,-200.96"/>
</g>
<!-- Node37 -->
<g id="node37" class="node">
<title>Node37</title>
<g id="a_node37"><a xlink:title=" ">
<polygon fill="none" stroke="#bfbfbf" points="1494.08,-195 1414.08,-195 1414.08,-176 1494.08,-176 1494.08,-195"/>
<text text-anchor="middle" x="1454.08" y="-183" font-family="Helvetica,sans-Serif" font-size="10.00">openssl/ssl.h</text>
</a>
</g>
</g>
<!-- Node35&#45;&gt;Node37 -->
<g id="edge43" class="edge">
<title>Node35&#45;&gt;Node37</title>
<path fill="none" stroke="midnightblue" d="M1198.92,-230.98C1255.02,-221.21 1346.59,-205.24 1403.43,-195.33"/>
<polygon fill="midnightblue" stroke="midnightblue" points="1404.38,-198.72 1413.63,-193.55 1403.17,-191.82 1404.38,-198.72"/>
</g>
<!-- Node38 -->
<g id="node38" class="node">
<title>Node38</title>
<g id="a_node38"><a xlink:title=" ">
<polygon fill="none" stroke="#bfbfbf" points="1559.58,-195 1512.58,-195 1512.58,-176 1559.58,-176 1559.58,-195"/>
<text text-anchor="middle" x="1536.08" y="-183" font-family="Helvetica,sans-Serif" font-size="10.00">fcntl.h</text>
</a>
</g>
</g>
<!-- Node35&#45;&gt;Node38 -->
<g id="edge44" class="edge">
<title>Node35&#45;&gt;Node38</title>
<path fill="none" stroke="midnightblue" d="M1231.86,-232.16C1301.39,-225.23 1403.99,-213.41 1502.54,-194.87"/>
<polygon fill="midnightblue" stroke="midnightblue" points="1503.2,-198.3 1512.37,-192.99 1501.89,-191.43 1503.2,-198.3"/>
</g>
<!-- Node39 -->
<g id="node39" class="node">
<title>Node39</title>
<g id="a_node39"><a xlink:title=" ">
<polygon fill="none" stroke="#bfbfbf" points="1630.58,-195 1577.58,-195 1577.58,-176 1630.58,-176 1630.58,-195"/>
<text text-anchor="middle" x="1604.08" y="-183" font-family="Helvetica,sans-Serif" font-size="10.00">netdb.h</text>
</a>
</g>
</g>
<!-- Node35&#45;&gt;Node39 -->
<g id="edge45" class="edge">
<title>Node35&#45;&gt;Node39</title>
<path fill="none" stroke="midnightblue" d="M1231.8,-233.86C1314.14,-227.48 1444.96,-215.44 1567.49,-194.88"/>
<polygon fill="midnightblue" stroke="midnightblue" points="1568.15,-198.32 1577.42,-193.19 1566.98,-191.42 1568.15,-198.32"/>
</g>
<!-- Node40 -->
<g id="node40" class="node">
<title>Node40</title>
<g id="a_node40"><a xlink:title=" ">
<polygon fill="none" stroke="#bfbfbf" points="659.08,-195 587.08,-195 587.08,-176 659.08,-176 659.08,-195"/>
<text text-anchor="middle" x="623.08" y="-183" font-family="Helvetica,sans-Serif" font-size="10.00">netinet/in.h</text>
</a>
</g>
</g>
<!-- Node35&#45;&gt;Node40 -->
<g id="edge46" class="edge">
<title>Node35&#45;&gt;Node40</title>
<path fill="none" stroke="midnightblue" d="M1068.36,-234.32C974.43,-227.84 815.44,-215.23 669.42,-195.06"/>
<polygon fill="midnightblue" stroke="midnightblue" points="669.77,-191.58 659.38,-193.66 668.8,-198.51 669.77,-191.58"/>
</g>
<!-- Node41 -->
<g id="node41" class="node">
<title>Node41</title>
<g id="a_node41"><a xlink:title=" ">
<polygon fill="none" stroke="#bfbfbf" points="755.08,-195 677.08,-195 677.08,-176 755.08,-176 755.08,-195"/>
<text text-anchor="middle" x="716.08" y="-183" font-family="Helvetica,sans-Serif" font-size="10.00">netinet/tcp.h</text>
</a>
</g>
</g>
<!-- Node35&#45;&gt;Node41 -->
<g id="edge47" class="edge">
<title>Node35&#45;&gt;Node41</title>
<path fill="none" stroke="midnightblue" d="M1068.57,-231.55C992.61,-223.81 875.96,-211.08 765.1,-195.07"/>
<polygon fill="midnightblue" stroke="midnightblue" points="765.48,-191.59 755.08,-193.61 764.47,-198.51 765.48,-191.59"/>
</g>
<!-- Node42 -->
<g id="node42" class="node">
<title>Node42</title>
<g id="a_node42"><a xlink:title=" ">
<polygon fill="none" stroke="#bfbfbf" points="826.58,-195 773.58,-195 773.58,-176 826.58,-176 826.58,-195"/>
<text text-anchor="middle" x="800.08" y="-183" font-family="Helvetica,sans-Serif" font-size="10.00">stdint.h</text>
</a>
</g>
</g>
<!-- Node35&#45;&gt;Node42 -->
<g id="edge48" class="edge">
<title>Node35&#45;&gt;Node42</title>
<path fill="none" stroke="midnightblue" d="M1074.96,-230.99C1013.3,-223.52 923.54,-211.54 836.79,-195.18"/>
<polygon fill="midnightblue" stroke="midnightblue" points="837.25,-191.7 826.77,-193.27 835.94,-198.58 837.25,-191.7"/>
</g>
<!-- Node43 -->
<g id="node43" class="node">
<title>Node43</title>
<g id="a_node43"><a xlink:title=" ">
<polygon fill="none" stroke="#bfbfbf" points="913.58,-195 844.58,-195 844.58,-176 913.58,-176 913.58,-195"/>
<text text-anchor="middle" x="879.08" y="-183" font-family="Helvetica,sans-Serif" font-size="10.00">sys/epoll.h</text>
</a>
</g>
</g>
<!-- Node35&#45;&gt;Node43 -->
<g id="edge49" class="edge">
<title>Node35&#45;&gt;Node43</title>
<path fill="none" stroke="midnightblue" d="M1105.94,-230.92C1062.16,-222.4 992.87,-208.89 923.97,-195.37"/>
<polygon fill="midnightblue" stroke="midnightblue" points="924.3,-191.87 913.81,-193.37 922.95,-198.73 924.3,-191.87"/>
</g>
<!-- Node44 -->
<g id="node44" class="node">
<title>Node44</title>
<g id="a_node44"><a xlink:title=" ">
<polygon fill="none" stroke="#bfbfbf" points="1000.58,-195 931.58,-195 931.58,-176 1000.58,-176 1000.58,-195"/>
<text text-anchor="middle" x="966.08" y="-183" font-family="Helvetica,sans-Serif" font-size="10.00">arpa/inet.h</text>
</a>
</g>
</g>
<!-- Node35&#45;&gt;Node44 -->
<g id="edge50" class="edge">
<title>Node35&#45;&gt;Node44</title>
<path fill="none" stroke="midnightblue" d="M1120.52,-230.98C1089.36,-222.01 1040.11,-207.82 1005.62,-197.89"/>
<polygon fill="midnightblue" stroke="midnightblue" points="1006.45,-194.49 995.87,-195.08 1004.52,-201.21 1006.45,-194.49"/>
</g>
<!-- Node45 -->
<g id="node45" class="node">
<title>Node45</title>
<g id="a_node45"><a xlink:title=" ">
<polygon fill="none" stroke="#bfbfbf" points="1095.58,-195 1018.58,-195 1018.58,-176 1095.58,-176 1095.58,-195"/>
<text text-anchor="middle" x="1057.08" y="-183" font-family="Helvetica,sans-Serif" font-size="10.00">sys/socket.h</text>
</a>
</g>
</g>
<!-- Node35&#45;&gt;Node45 -->
<g id="edge51" class="edge">
<title>Node35&#45;&gt;Node45</title>
<path fill="none" stroke="midnightblue" d="M1135.14,-230.98C1120.58,-222.69 1098.21,-209.94 1081.15,-200.22"/>
<polygon fill="midnightblue" stroke="midnightblue" points="1082.72,-197.08 1072.29,-195.17 1079.25,-203.16 1082.72,-197.08"/>
</g>
<!-- Node46 -->
<g id="node46" class="node">
<title>Node46</title>
<g id="a_node46"><a xlink:title=" ">
<polygon fill="none" stroke="#bfbfbf" points="1186.08,-195 1114.08,-195 1114.08,-176 1186.08,-176 1186.08,-195"/>
<text text-anchor="middle" x="1150.08" y="-183" font-family="Helvetica,sans-Serif" font-size="10.00">sys/types.h</text>
</a>
</g>
</g>
<!-- Node35&#45;&gt;Node46 -->
<g id="edge52" class="edge">
<title>Node35&#45;&gt;Node46</title>
<path fill="none" stroke="midnightblue" d="M1150.08,-230.75C1150.08,-223.8 1150.08,-213.85 1150.08,-205.13"/>
<polygon fill="midnightblue" stroke="midnightblue" points="1153.58,-205.09 1150.08,-195.09 1146.58,-205.09 1153.58,-205.09"/>
</g>
<!-- Node47 -->
<g id="node47" class="node">
<title>Node47</title>
<g id="a_node47"><a xlink:title=" ">
<polygon fill="none" stroke="#bfbfbf" points="1260.08,-195 1204.08,-195 1204.08,-176 1260.08,-176 1260.08,-195"/>
<text text-anchor="middle" x="1232.08" y="-183" font-family="Helvetica,sans-Serif" font-size="10.00">unistd.h</text>
</a>
</g>
</g>
<!-- Node35&#45;&gt;Node47 -->
<g id="edge53" class="edge">
<title>Node35&#45;&gt;Node47</title>
<path fill="none" stroke="midnightblue" d="M1163.26,-230.98C1175.85,-222.84 1195.08,-210.41 1210.02,-200.76"/>
<polygon fill="midnightblue" stroke="midnightblue" points="1212.17,-203.54 1218.67,-195.17 1208.37,-197.66 1212.17,-203.54"/>
</g>
<!-- Node49&#45;&gt;Node2 -->
<g id="edge56" class="edge">
<title>Node49&#45;&gt;Node2</title>
<path fill="none" stroke="midnightblue" d="M1836.35,-395.83C1827.01,-377.87 1807.08,-335.03 1807.08,-296.5 1807.08,-296.5 1807.08,-296.5 1807.08,-239.5 1807.08,-201.28 1782.53,-194.49 1749.08,-176 1689.68,-143.17 1613.14,-131.26 1555.74,-127.23"/>
<polygon fill="midnightblue" stroke="midnightblue" points="1555.82,-123.73 1545.62,-126.59 1555.37,-130.72 1555.82,-123.73"/>
</g>
</g>
</svg>
