<?xml version="1.0" encoding="UTF-8" standalone="no"?>
<!DOCTYPE svg PUBLIC "-//W3C//DTD SVG 1.1//EN"
 "http://www.w3.org/Graphics/SVG/1.1/DTD/svg11.dtd">
<!-- Generated by graphviz version 3.0.0 (20220226.1711)
 -->
<!-- Title: SoundCloudAPI.hpp Pages: 1 -->
<svg width="1391pt" height="196pt"
 viewBox="0.00 0.00 1390.50 196.00" xmlns="http://www.w3.org/2000/svg" xmlns:xlink="http://www.w3.org/1999/xlink">
<g id="graph0" class="graph" transform="scale(1 1) rotate(0) translate(4 192)">
<title>SoundCloudAPI.hpp</title>
<!-- Node1 -->
<g id="node1" class="node">
<title>Node1</title>
<g id="a_node1"><a xlink:title=" ">
<polygon fill="#bfbfbf" stroke="black" points="732.5,-168.5 732.5,-187.5 836.5,-187.5 836.5,-168.5 732.5,-168.5"/>
<text text-anchor="middle" x="784.5" y="-175.5" font-family="Helvetica,sans-Serif" font-size="10.00">SoundCloudAPI.hpp</text>
</a>
</g>
</g>
<!-- Node2 -->
<g id="node2" class="node">
<title>Node2</title>
<g id="a_node2"><a xlink:href="../../df/dbb/a00698.html" target="_top" xlink:title=" ">
<polygon fill="none" stroke="black" points="686,-112.5 686,-131.5 799,-131.5 799,-112.5 686,-112.5"/>
<text text-anchor="middle" x="742.5" y="-119.5" font-family="Helvetica,sans-Serif" font-size="10.00">DiscordCoreClient.hpp</text>
</a>
</g>
</g>
<!-- Node1&#45;&gt;Node2 -->
<g id="edge1" class="edge">
<title>Node1&#45;&gt;Node2</title>
<path fill="none" stroke="midnightblue" d="M771.39,-160.14C764.07,-150.74 755.26,-139.4 749.31,-131.75"/>
<polygon fill="midnightblue" stroke="midnightblue" points="768.66,-162.34 777.56,-168.08 774.19,-158.04 768.66,-162.34"/>
</g>
<!-- Node6 -->
<g id="node6" class="node">
<title>Node6</title>
<g id="a_node6"><a xlink:href="../../d3/d60/a00818.html" target="_top" xlink:title=" ">
<polygon fill="none" stroke="black" points="0,-56.5 0,-75.5 91,-75.5 91,-56.5 0,-56.5"/>
<text text-anchor="middle" x="45.5" y="-63.5" font-family="Helvetica,sans-Serif" font-size="10.00">GuildEntities.cpp</text>
</a>
</g>
</g>
<!-- Node1&#45;&gt;Node6 -->
<g id="edge15" class="edge">
<title>Node1&#45;&gt;Node6</title>
<path fill="none" stroke="midnightblue" d="M722.33,-168.23C601.99,-151.17 328.84,-112.02 99.5,-76 96.78,-75.57 93.98,-75.13 91.16,-74.67"/>
<polygon fill="midnightblue" stroke="midnightblue" points="722.07,-171.73 732.46,-169.67 723.05,-164.8 722.07,-171.73"/>
</g>
<!-- Node11 -->
<g id="node11" class="node">
<title>Node11</title>
<g id="a_node11"><a xlink:href="../../d7/dcf/a00845.html" target="_top" xlink:title=" ">
<polygon fill="none" stroke="black" points="1186.5,-56.5 1186.5,-75.5 1260.5,-75.5 1260.5,-56.5 1186.5,-56.5"/>
<text text-anchor="middle" x="1223.5" y="-63.5" font-family="Helvetica,sans-Serif" font-size="10.00">SongAPI.cpp</text>
</a>
</g>
</g>
<!-- Node1&#45;&gt;Node11 -->
<g id="edge16" class="edge">
<title>Node1&#45;&gt;Node11</title>
<path fill="none" stroke="midnightblue" d="M828.47,-165.98C916.07,-144.03 1110.69,-95.27 1189.44,-75.53"/>
<polygon fill="midnightblue" stroke="midnightblue" points="827.43,-162.63 818.58,-168.46 829.13,-169.42 827.43,-162.63"/>
</g>
<!-- Node12 -->
<g id="node12" class="node">
<title>Node12</title>
<g id="a_node12"><a xlink:href="../../d9/d30/a00848.html" target="_top" xlink:title=" ">
<polygon fill="none" stroke="black" points="1278.5,-56.5 1278.5,-75.5 1382.5,-75.5 1382.5,-56.5 1278.5,-56.5"/>
<text text-anchor="middle" x="1330.5" y="-63.5" font-family="Helvetica,sans-Serif" font-size="10.00">SoundCloudAPI.cpp</text>
</a>
</g>
</g>
<!-- Node1&#45;&gt;Node12 -->
<g id="edge17" class="edge">
<title>Node1&#45;&gt;Node12</title>
<path fill="none" stroke="midnightblue" d="M839.9,-166.59C887.35,-157.62 957.47,-144.23 1018.5,-132 1116.42,-112.38 1231.37,-88.12 1290.65,-75.51"/>
<polygon fill="midnightblue" stroke="midnightblue" points="839.01,-163.2 829.84,-168.5 840.31,-170.08 839.01,-163.2"/>
</g>
<!-- Node3 -->
<g id="node3" class="node">
<title>Node3</title>
<g id="a_node3"><a xlink:href="../../da/d96/a00782.html" target="_top" xlink:title=" ">
<polygon fill="none" stroke="black" points="109,-56.5 109,-75.5 270,-75.5 270,-56.5 109,-56.5"/>
<text text-anchor="middle" x="189.5" y="-63.5" font-family="Helvetica,sans-Serif" font-size="10.00">ApplicationCommandEntities.cpp</text>
</a>
</g>
</g>
<!-- Node2&#45;&gt;Node3 -->
<g id="edge2" class="edge">
<title>Node2&#45;&gt;Node3</title>
<path fill="none" stroke="midnightblue" d="M675.62,-114.6C585.44,-105.95 419.84,-90 278.5,-76 275.72,-75.72 272.89,-75.44 270.03,-75.16"/>
<polygon fill="midnightblue" stroke="midnightblue" points="675.42,-118.1 685.71,-115.57 676.09,-111.13 675.42,-118.1"/>
</g>
<!-- Node4 -->
<g id="node4" class="node">
<title>Node4</title>
<g id="a_node4"><a xlink:href="../../d5/d72/a00803.html" target="_top" xlink:title=" ">
<polygon fill="none" stroke="black" points="288,-56.5 288,-75.5 401,-75.5 401,-56.5 288,-56.5"/>
<text text-anchor="middle" x="344.5" y="-63.5" font-family="Helvetica,sans-Serif" font-size="10.00">DiscordCoreClient.cpp</text>
</a>
</g>
</g>
<!-- Node2&#45;&gt;Node4 -->
<g id="edge3" class="edge">
<title>Node2&#45;&gt;Node4</title>
<path fill="none" stroke="midnightblue" d="M675.9,-112.06C608.67,-103.03 501.86,-88.63 409.5,-76 406.79,-75.63 404.02,-75.25 401.22,-74.86"/>
<polygon fill="midnightblue" stroke="midnightblue" points="675.55,-115.55 685.93,-113.41 676.48,-108.61 675.55,-115.55"/>
</g>
<!-- Node5 -->
<g id="node5" class="node">
<title>Node5</title>
<g id="a_node5"><a xlink:href="../../d8/db7/a00812.html" target="_top" xlink:title=" ">
<polygon fill="none" stroke="black" points="419,-56.5 419,-75.5 516,-75.5 516,-56.5 419,-56.5"/>
<text text-anchor="middle" x="467.5" y="-63.5" font-family="Helvetica,sans-Serif" font-size="10.00">EventManager.cpp</text>
</a>
</g>
</g>
<!-- Node2&#45;&gt;Node5 -->
<g id="edge4" class="edge">
<title>Node2&#45;&gt;Node5</title>
<path fill="none" stroke="midnightblue" d="M688.89,-110.47C636.92,-100.27 559.06,-84.98 510.87,-75.52"/>
<polygon fill="midnightblue" stroke="midnightblue" points="688.44,-113.95 698.93,-112.44 689.79,-107.08 688.44,-113.95"/>
</g>
<!-- Node2&#45;&gt;Node6 -->
<g id="edge5" class="edge">
<title>Node2&#45;&gt;Node6</title>
<path fill="none" stroke="midnightblue" d="M675.77,-118.43C558.75,-113.45 309.05,-100.74 99.5,-76 96.76,-75.68 93.95,-75.31 91.12,-74.92"/>
<polygon fill="midnightblue" stroke="midnightblue" points="675.86,-121.93 685.99,-118.86 676.15,-114.94 675.86,-121.93"/>
</g>
<!-- Node7 -->
<g id="node7" class="node">
<title>Node7</title>
<g id="a_node7"><a xlink:href="../../dc/d1b/a00827.html" target="_top" xlink:title=" ">
<polygon fill="none" stroke="black" points="534,-56.5 534,-75.5 593,-75.5 593,-56.5 534,-56.5"/>
<text text-anchor="middle" x="563.5" y="-63.5" font-family="Helvetica,sans-Serif" font-size="10.00">Https.cpp</text>
</a>
</g>
</g>
<!-- Node2&#45;&gt;Node7 -->
<g id="edge6" class="edge">
<title>Node2&#45;&gt;Node7</title>
<path fill="none" stroke="midnightblue" d="M704.17,-109.44C670.42,-99.26 622.05,-84.66 591.73,-75.52"/>
<polygon fill="midnightblue" stroke="midnightblue" points="703.55,-112.91 714.14,-112.44 705.57,-106.2 703.55,-112.91"/>
</g>
<!-- Node8 -->
<g id="node8" class="node">
<title>Node8</title>
<g id="a_node8"><a xlink:href="../../d8/db9/a00725.html" target="_top" xlink:title=" ">
<polygon fill="none" stroke="black" points="611,-56.5 611,-75.5 670,-75.5 670,-56.5 611,-56.5"/>
<text text-anchor="middle" x="640.5" y="-63.5" font-family="Helvetica,sans-Serif" font-size="10.00">Index.hpp</text>
</a>
</g>
</g>
<!-- Node2&#45;&gt;Node8 -->
<g id="edge7" class="edge">
<title>Node2&#45;&gt;Node8</title>
<path fill="none" stroke="midnightblue" d="M717.17,-107.59C698.31,-97.61 673.12,-84.27 656.85,-75.65"/>
<polygon fill="midnightblue" stroke="midnightblue" points="715.64,-110.74 726.11,-112.32 718.91,-104.55 715.64,-110.74"/>
</g>
<!-- Node10 -->
<g id="node10" class="node">
<title>Node10</title>
<g id="a_node10"><a xlink:href="../../d3/d13/a00836.html" target="_top" xlink:title=" ">
<polygon fill="none" stroke="black" points="688.5,-56.5 688.5,-75.5 796.5,-75.5 796.5,-56.5 688.5,-56.5"/>
<text text-anchor="middle" x="742.5" y="-63.5" font-family="Helvetica,sans-Serif" font-size="10.00">MessageEntities.cpp</text>
</a>
</g>
</g>
<!-- Node2&#45;&gt;Node10 -->
<g id="edge9" class="edge">
<title>Node2&#45;&gt;Node10</title>
<path fill="none" stroke="midnightblue" d="M742.5,-101.8C742.5,-92.91 742.5,-82.78 742.5,-75.75"/>
<polygon fill="midnightblue" stroke="midnightblue" points="739,-102.08 742.5,-112.08 746,-102.08 739,-102.08"/>
</g>
<!-- Node2&#45;&gt;Node11 -->
<g id="edge10" class="edge">
<title>Node2&#45;&gt;Node11</title>
<path fill="none" stroke="midnightblue" d="M809.11,-115.99C894.66,-109.12 1047.61,-95.38 1177.5,-76 1180.4,-75.57 1183.39,-75.08 1186.39,-74.56"/>
<polygon fill="midnightblue" stroke="midnightblue" points="808.7,-112.51 799.01,-116.79 809.26,-119.49 808.7,-112.51"/>
</g>
<!-- Node2&#45;&gt;Node12 -->
<g id="edge11" class="edge">
<title>Node2&#45;&gt;Node12</title>
<path fill="none" stroke="midnightblue" d="M809.43,-116.61C909.65,-109.73 1104.55,-95.19 1269.5,-76 1272.37,-75.67 1275.31,-75.3 1278.28,-74.92"/>
<polygon fill="midnightblue" stroke="midnightblue" points="808.89,-113.13 799.16,-117.31 809.37,-120.12 808.89,-113.13"/>
</g>
<!-- Node13 -->
<g id="node13" class="node">
<title>Node13</title>
<g id="a_node13"><a xlink:href="../../dc/d17/a00872.html" target="_top" xlink:title=" ">
<polygon fill="none" stroke="black" points="815,-56.5 815,-75.5 924,-75.5 924,-56.5 815,-56.5"/>
<text text-anchor="middle" x="869.5" y="-63.5" font-family="Helvetica,sans-Serif" font-size="10.00">VoiceConnection.cpp</text>
</a>
</g>
</g>
<!-- Node2&#45;&gt;Node13 -->
<g id="edge12" class="edge">
<title>Node2&#45;&gt;Node13</title>
<path fill="none" stroke="midnightblue" d="M771.89,-108.5C795.7,-98.38 828.61,-84.39 849.47,-75.52"/>
<polygon fill="midnightblue" stroke="midnightblue" points="770.46,-105.31 762.62,-112.44 773.2,-111.75 770.46,-105.31"/>
</g>
<!-- Node14 -->
<g id="node14" class="node">
<title>Node14</title>
<g id="a_node14"><a xlink:href="../../d5/d69/a00878.html" target="_top" xlink:title=" ">
<polygon fill="none" stroke="black" points="942,-56.5 942,-75.5 1061,-75.5 1061,-56.5 942,-56.5"/>
<text text-anchor="middle" x="1001.5" y="-63.5" font-family="Helvetica,sans-Serif" font-size="10.00">WebSocketEntities.cpp</text>
</a>
</g>
</g>
<!-- Node2&#45;&gt;Node14 -->
<g id="edge13" class="edge">
<title>Node2&#45;&gt;Node14</title>
<path fill="none" stroke="midnightblue" d="M793.6,-110.35C842.55,-100.14 915.45,-84.94 960.65,-75.52"/>
<polygon fill="midnightblue" stroke="midnightblue" points="792.61,-106.98 783.54,-112.44 794.04,-113.83 792.61,-106.98"/>
</g>
<!-- Node15 -->
<g id="node15" class="node">
<title>Node15</title>
<g id="a_node15"><a xlink:href="../../df/d41/a00881.html" target="_top" xlink:title=" ">
<polygon fill="none" stroke="black" points="1079,-56.5 1079,-75.5 1168,-75.5 1168,-56.5 1079,-56.5"/>
<text text-anchor="middle" x="1123.5" y="-63.5" font-family="Helvetica,sans-Serif" font-size="10.00">YouTubeAPI.cpp</text>
</a>
</g>
</g>
<!-- Node2&#45;&gt;Node15 -->
<g id="edge14" class="edge">
<title>Node2&#45;&gt;Node15</title>
<path fill="none" stroke="midnightblue" d="M809.57,-112.34C875.72,-103.66 979.69,-89.66 1069.5,-76 1072.51,-75.54 1075.61,-75.06 1078.73,-74.56"/>
<polygon fill="midnightblue" stroke="midnightblue" points="808.74,-108.91 799.28,-113.68 809.65,-115.86 808.74,-108.91"/>
</g>
<!-- Node9 -->
<g id="node9" class="node">
<title>Node9</title>
<g id="a_node9"><a xlink:href="../../d0/dad/a00806.html" target="_top" xlink:title=" ">
<polygon fill="none" stroke="black" points="606.5,-0.5 606.5,-19.5 674.5,-19.5 674.5,-0.5 606.5,-0.5"/>
<text text-anchor="middle" x="640.5" y="-7.5" font-family="Helvetica,sans-Serif" font-size="10.00">DllMain.cpp</text>
</a>
</g>
</g>
<!-- Node8&#45;&gt;Node9 -->
<g id="edge8" class="edge">
<title>Node8&#45;&gt;Node9</title>
<path fill="none" stroke="midnightblue" d="M640.5,-45.8C640.5,-36.91 640.5,-26.78 640.5,-19.75"/>
<polygon fill="midnightblue" stroke="midnightblue" points="637,-46.08 640.5,-56.08 644,-46.08 637,-46.08"/>
</g>
</g>
</svg>
