<?xml version="1.0" encoding="UTF-8" standalone="no"?>
<!DOCTYPE svg PUBLIC "-//W3C//DTD SVG 1.1//EN"
 "http://www.w3.org/Graphics/SVG/1.1/DTD/svg11.dtd">
<!-- Generated by graphviz version 2.43.0 (0)
 -->
<!-- Title: WebHookEntities.hpp Pages: 1 -->
<svg width="1487pt" height="302pt"
 viewBox="0.00 0.00 1486.50 302.00" xmlns="http://www.w3.org/2000/svg" xmlns:xlink="http://www.w3.org/1999/xlink">
<g id="graph0" class="graph" transform="scale(1 1) rotate(0) translate(4 298)">
<title>WebHookEntities.hpp</title>
<!-- Node1 -->
<g id="node1" class="node">
<title>Node1</title>
<g id="a_node1"><a xlink:title=" ">
<polygon fill="#bfbfbf" stroke="black" points="1018,-294 897,-294 897,-275 1018,-275 1018,-294"/>
<text text-anchor="middle" x="957.5" y="-282" font-family="Helvetica,sans-Serif" font-size="10.00">WebHookEntities.hpp</text>
</a>
</g>
</g>
<!-- Node2 -->
<g id="node2" class="node">
<title>Node2</title>
<g id="a_node2"><a xlink:href="../../d9/dd4/a00776.html" target="_top" xlink:title=" ">
<polygon fill="none" stroke="black" points="812,-129 687,-129 687,-110 812,-110 812,-129"/>
<text text-anchor="middle" x="749.5" y="-117" font-family="Helvetica,sans-Serif" font-size="10.00">DiscordCoreClient.hpp</text>
</a>
</g>
</g>
<!-- Node1&#45;&gt;Node2 -->
<g id="edge1" class="edge">
<title>Node1&#45;&gt;Node2</title>
<path fill="none" stroke="midnightblue" d="M932.75,-269.84C918.28,-261.52 899.9,-250.32 884.5,-239 833.74,-201.69 779.03,-149.48 758.21,-129.11"/>
<polygon fill="midnightblue" stroke="midnightblue" points="931.19,-272.98 941.62,-274.87 934.65,-266.9 931.19,-272.98"/>
</g>
<!-- Node16 -->
<g id="node16" class="node">
<title>Node16</title>
<g id="a_node16"><a xlink:href="../../d3/d95/a00779.html" target="_top" xlink:title=" ">
<polygon fill="none" stroke="black" points="1021,-239 894,-239 894,-220 1021,-220 1021,-239"/>
<text text-anchor="middle" x="957.5" y="-227" font-family="Helvetica,sans-Serif" font-size="10.00">InteractionEntities.hpp</text>
</a>
</g>
</g>
<!-- Node1&#45;&gt;Node16 -->
<g id="edge15" class="edge">
<title>Node1&#45;&gt;Node16</title>
<path fill="none" stroke="midnightblue" d="M957.5,-264.66C957.5,-255.93 957.5,-245.99 957.5,-239.09"/>
<polygon fill="midnightblue" stroke="midnightblue" points="954,-264.75 957.5,-274.75 961,-264.75 954,-264.75"/>
</g>
<!-- Node23 -->
<g id="node23" class="node">
<title>Node23</title>
<g id="a_node23"><a xlink:href="../../dd/d7e/a00809.html" target="_top" xlink:title=" ">
<polygon fill="none" stroke="black" points="1159.5,-239 1039.5,-239 1039.5,-220 1159.5,-220 1159.5,-239"/>
<text text-anchor="middle" x="1099.5" y="-227" font-family="Helvetica,sans-Serif" font-size="10.00">WebHookEntities.cpp</text>
</a>
</g>
</g>
<!-- Node1&#45;&gt;Node23 -->
<g id="edge27" class="edge">
<title>Node1&#45;&gt;Node23</title>
<path fill="none" stroke="midnightblue" d="M989.86,-271.42C1016.21,-261.59 1052.76,-247.95 1076.27,-239.17"/>
<polygon fill="midnightblue" stroke="midnightblue" points="988.46,-268.21 980.31,-274.98 990.91,-274.77 988.46,-268.21"/>
</g>
<!-- Node3 -->
<g id="node3" class="node">
<title>Node3</title>
<g id="a_node3"><a xlink:href="../../d2/d5e/a00860.html" target="_top" xlink:title=" ">
<polygon fill="none" stroke="black" points="179,-74 0,-74 0,-55 179,-55 179,-74"/>
<text text-anchor="middle" x="89.5" y="-62" font-family="Helvetica,sans-Serif" font-size="10.00">ApplicationCommandEntities.cpp</text>
</a>
</g>
</g>
<!-- Node2&#45;&gt;Node3 -->
<g id="edge2" class="edge">
<title>Node2&#45;&gt;Node3</title>
<path fill="none" stroke="midnightblue" d="M676.64,-112.91C569.46,-104.64 363.02,-88.56 187.5,-74 184.78,-73.77 182.01,-73.54 179.22,-73.31"/>
<polygon fill="midnightblue" stroke="midnightblue" points="676.46,-116.4 686.7,-113.68 676.99,-109.42 676.46,-116.4"/>
</g>
<!-- Node4 -->
<g id="node4" class="node">
<title>Node4</title>
<g id="a_node4"><a xlink:href="../../d0/d11/a00842.html" target="_top" xlink:title=" ">
<polygon fill="none" stroke="black" points="322,-74 197,-74 197,-55 322,-55 322,-74"/>
<text text-anchor="middle" x="259.5" y="-62" font-family="Helvetica,sans-Serif" font-size="10.00">DiscordCoreClient.cpp</text>
</a>
</g>
</g>
<!-- Node2&#45;&gt;Node4 -->
<g id="edge3" class="edge">
<title>Node2&#45;&gt;Node4</title>
<path fill="none" stroke="midnightblue" d="M676.49,-111.04C592.86,-102.43 451.74,-87.7 330.5,-74 327.79,-73.69 325.01,-73.38 322.21,-73.05"/>
<polygon fill="midnightblue" stroke="midnightblue" points="676.34,-114.55 686.65,-112.09 677.06,-107.58 676.34,-114.55"/>
</g>
<!-- Node5 -->
<g id="node5" class="node">
<title>Node5</title>
<g id="a_node5"><a xlink:href="../../df/d41/a00881.html" target="_top" xlink:title=" ">
<polygon fill="none" stroke="black" points="447,-74 340,-74 340,-55 447,-55 447,-74"/>
<text text-anchor="middle" x="393.5" y="-62" font-family="Helvetica,sans-Serif" font-size="10.00">EventManager.cpp</text>
</a>
</g>
</g>
<!-- Node2&#45;&gt;Node5 -->
<g id="edge4" class="edge">
<title>Node2&#45;&gt;Node5</title>
<path fill="none" stroke="midnightblue" d="M682.09,-108.46C613.9,-98.31 509.83,-82.82 447.06,-73.47"/>
<polygon fill="midnightblue" stroke="midnightblue" points="681.9,-111.97 692.3,-109.98 682.93,-105.05 681.9,-111.97"/>
</g>
<!-- Node6 -->
<g id="node6" class="node">
<title>Node6</title>
<g id="a_node6"><a xlink:href="../../d5/d69/a00878.html" target="_top" xlink:title=" ">
<polygon fill="none" stroke="black" points="564,-74 465,-74 465,-55 564,-55 564,-74"/>
<text text-anchor="middle" x="514.5" y="-62" font-family="Helvetica,sans-Serif" font-size="10.00">GuildEntities.cpp</text>
</a>
</g>
</g>
<!-- Node2&#45;&gt;Node6 -->
<g id="edge5" class="edge">
<title>Node2&#45;&gt;Node6</title>
<path fill="none" stroke="midnightblue" d="M701.85,-107.75C657.81,-97.82 593.23,-83.26 552.55,-74.08"/>
<polygon fill="midnightblue" stroke="midnightblue" points="701.22,-111.2 711.74,-109.98 702.76,-104.37 701.22,-111.2"/>
</g>
<!-- Node7 -->
<g id="node7" class="node">
<title>Node7</title>
<g id="a_node7"><a xlink:href="../../d5/d12/a00794.html" target="_top" xlink:title=" ">
<polygon fill="none" stroke="black" points="645,-74 582,-74 582,-55 645,-55 645,-74"/>
<text text-anchor="middle" x="613.5" y="-62" font-family="Helvetica,sans-Serif" font-size="10.00">Https.cpp</text>
</a>
</g>
</g>
<!-- Node2&#45;&gt;Node7 -->
<g id="edge6" class="edge">
<title>Node2&#45;&gt;Node7</title>
<path fill="none" stroke="midnightblue" d="M718.17,-106.29C692.96,-96.47 658.17,-82.91 635.75,-74.17"/>
<polygon fill="midnightblue" stroke="midnightblue" points="717.06,-109.61 727.65,-109.98 719.6,-103.09 717.06,-109.61"/>
</g>
<!-- Node8 -->
<g id="node8" class="node">
<title>Node8</title>
<g id="a_node8"><a xlink:href="../../d5/de8/a00749.html" target="_top" xlink:title=" ">
<polygon fill="none" stroke="black" points="728,-74 663,-74 663,-55 728,-55 728,-74"/>
<text text-anchor="middle" x="695.5" y="-62" font-family="Helvetica,sans-Serif" font-size="10.00">Index.hpp</text>
</a>
</g>
</g>
<!-- Node2&#45;&gt;Node8 -->
<g id="edge7" class="edge">
<title>Node2&#45;&gt;Node8</title>
<path fill="none" stroke="midnightblue" d="M733.22,-102.52C723.7,-93.18 712.06,-81.75 704.25,-74.09"/>
<polygon fill="midnightblue" stroke="midnightblue" points="730.99,-105.24 740.58,-109.75 735.9,-100.25 730.99,-105.24"/>
</g>
<!-- Node10 -->
<g id="node10" class="node">
<title>Node10</title>
<g id="a_node10"><a xlink:href="../../d3/db2/a00869.html" target="_top" xlink:title=" ">
<polygon fill="none" stroke="black" points="863,-74 746,-74 746,-55 863,-55 863,-74"/>
<text text-anchor="middle" x="804.5" y="-62" font-family="Helvetica,sans-Serif" font-size="10.00">MessageEntities.cpp</text>
</a>
</g>
</g>
<!-- Node2&#45;&gt;Node10 -->
<g id="edge9" class="edge">
<title>Node2&#45;&gt;Node10</title>
<path fill="none" stroke="midnightblue" d="M765.79,-102.8C775.54,-93.41 787.55,-81.83 795.59,-74.09"/>
<polygon fill="midnightblue" stroke="midnightblue" points="763.35,-100.29 758.58,-109.75 768.21,-105.33 763.35,-100.29"/>
</g>
<!-- Node11 -->
<g id="node11" class="node">
<title>Node11</title>
<g id="a_node11"><a xlink:href="../../d8/db7/a00812.html" target="_top" xlink:title=" ">
<polygon fill="none" stroke="black" points="958,-74 881,-74 881,-55 958,-55 958,-74"/>
<text text-anchor="middle" x="919.5" y="-62" font-family="Helvetica,sans-Serif" font-size="10.00">SongAPI.cpp</text>
</a>
</g>
</g>
<!-- Node2&#45;&gt;Node11 -->
<g id="edge10" class="edge">
<title>Node2&#45;&gt;Node11</title>
<path fill="none" stroke="midnightblue" d="M786.62,-106.93C818.37,-97.03 863.35,-83.01 891.97,-74.08"/>
<polygon fill="midnightblue" stroke="midnightblue" points="785.32,-103.67 776.81,-109.98 787.4,-110.35 785.32,-103.67"/>
</g>
<!-- Node12 -->
<g id="node12" class="node">
<title>Node12</title>
<g id="a_node12"><a xlink:href="../../d7/d49/a00863.html" target="_top" xlink:title=" ">
<polygon fill="none" stroke="black" points="1086.5,-74 976.5,-74 976.5,-55 1086.5,-55 1086.5,-74"/>
<text text-anchor="middle" x="1031.5" y="-62" font-family="Helvetica,sans-Serif" font-size="10.00">SoundCloudAPI.cpp</text>
</a>
</g>
</g>
<!-- Node2&#45;&gt;Node12 -->
<g id="edge11" class="edge">
<title>Node2&#45;&gt;Node12</title>
<path fill="none" stroke="midnightblue" d="M804.69,-108.13C857.56,-98.19 936.4,-83.37 985.84,-74.08"/>
<polygon fill="midnightblue" stroke="midnightblue" points="803.99,-104.7 794.81,-109.98 805.28,-111.58 803.99,-104.7"/>
</g>
<!-- Node13 -->
<g id="node13" class="node">
<title>Node13</title>
<g id="a_node13"><a xlink:href="../../d1/d93/a00875.html" target="_top" xlink:title=" ">
<polygon fill="none" stroke="black" points="1222.5,-74 1104.5,-74 1104.5,-55 1222.5,-55 1222.5,-74"/>
<text text-anchor="middle" x="1163.5" y="-62" font-family="Helvetica,sans-Serif" font-size="10.00">VoiceConnection.cpp</text>
</a>
</g>
</g>
<!-- Node2&#45;&gt;Node13 -->
<g id="edge12" class="edge">
<title>Node2&#45;&gt;Node13</title>
<path fill="none" stroke="midnightblue" d="M822.41,-109.17C902.66,-98.89 1030.12,-82.58 1104.4,-73.07"/>
<polygon fill="midnightblue" stroke="midnightblue" points="821.85,-105.71 812.38,-110.45 822.74,-112.65 821.85,-105.71"/>
</g>
<!-- Node14 -->
<g id="node14" class="node">
<title>Node14</title>
<g id="a_node14"><a xlink:href="../../d9/daf/a00830.html" target="_top" xlink:title=" ">
<polygon fill="none" stroke="black" points="1368,-74 1241,-74 1241,-55 1368,-55 1368,-74"/>
<text text-anchor="middle" x="1304.5" y="-62" font-family="Helvetica,sans-Serif" font-size="10.00">WebSocketEntities.cpp</text>
</a>
</g>
</g>
<!-- Node2&#45;&gt;Node14 -->
<g id="edge13" class="edge">
<title>Node2&#45;&gt;Node14</title>
<path fill="none" stroke="midnightblue" d="M822.54,-109.92C1005.17,-91.32 1052.81,-92.24 1231.5,-74 1234.55,-73.69 1237.66,-73.36 1240.81,-73.02"/>
<polygon fill="midnightblue" stroke="midnightblue" points="821.91,-106.47 812.32,-110.97 822.62,-113.43 821.91,-106.47"/>
</g>
<!-- Node15 -->
<g id="node15" class="node">
<title>Node15</title>
<g id="a_node15"><a xlink:href="../../d4/d45/a00791.html" target="_top" xlink:title=" ">
<polygon fill="none" stroke="black" points="1478.5,-74 1386.5,-74 1386.5,-55 1478.5,-55 1478.5,-74"/>
<text text-anchor="middle" x="1432.5" y="-62" font-family="Helvetica,sans-Serif" font-size="10.00">YouTubeAPI.cpp</text>
</a>
</g>
</g>
<!-- Node2&#45;&gt;Node15 -->
<g id="edge14" class="edge">
<title>Node2&#45;&gt;Node15</title>
<path fill="none" stroke="midnightblue" d="M822.33,-109.98C1069.8,-87.82 1134.59,-100.58 1377.5,-74 1380.38,-73.68 1383.34,-73.33 1386.33,-72.94"/>
<polygon fill="midnightblue" stroke="midnightblue" points="821.95,-106.5 812.31,-110.89 822.58,-113.47 821.95,-106.5"/>
</g>
<!-- Node9 -->
<g id="node9" class="node">
<title>Node9</title>
<g id="a_node9"><a xlink:href="../../da/d96/a00782.html" target="_top" xlink:title=" ">
<polygon fill="none" stroke="black" points="732.5,-19 658.5,-19 658.5,0 732.5,0 732.5,-19"/>
<text text-anchor="middle" x="695.5" y="-7" font-family="Helvetica,sans-Serif" font-size="10.00">DllMain.cpp</text>
</a>
</g>
</g>
<!-- Node8&#45;&gt;Node9 -->
<g id="edge8" class="edge">
<title>Node8&#45;&gt;Node9</title>
<path fill="none" stroke="midnightblue" d="M695.5,-44.66C695.5,-35.93 695.5,-25.99 695.5,-19.09"/>
<polygon fill="midnightblue" stroke="midnightblue" points="692,-44.75 695.5,-54.75 699,-44.75 692,-44.75"/>
</g>
<!-- Node16&#45;&gt;Node2 -->
<g id="edge17" class="edge">
<title>Node16&#45;&gt;Node2</title>
<path fill="none" stroke="midnightblue" d="M931.78,-215.14C888.44,-192.64 802.06,-147.79 765.96,-129.05"/>
<polygon fill="midnightblue" stroke="midnightblue" points="930.34,-218.34 940.83,-219.84 933.57,-212.13 930.34,-218.34"/>
</g>
<!-- Node17 -->
<g id="node17" class="node">
<title>Node17</title>
<g id="a_node17"><a xlink:href="../../dc/d17/a00872.html" target="_top" xlink:title=" ">
<polygon fill="none" stroke="black" points="972.5,-129 830.5,-129 830.5,-110 972.5,-110 972.5,-129"/>
<text text-anchor="middle" x="901.5" y="-117" font-family="Helvetica,sans-Serif" font-size="10.00">DataParsingFunctions.cpp</text>
</a>
</g>
</g>
<!-- Node16&#45;&gt;Node17 -->
<g id="edge16" class="edge">
<title>Node16&#45;&gt;Node17</title>
<path fill="none" stroke="midnightblue" d="M922.54,-215.82C908.4,-208.76 893.54,-198.42 885.5,-184 875.53,-166.13 887.49,-141.99 895.47,-129.24"/>
<polygon fill="midnightblue" stroke="midnightblue" points="921.1,-219.01 931.65,-219.99 924.01,-212.64 921.1,-219.01"/>
</g>
<!-- Node18 -->
<g id="node18" class="node">
<title>Node18</title>
<g id="a_node18"><a xlink:href="../../da/db8/a00797.html" target="_top" xlink:title=" ">
<polygon fill="none" stroke="black" points="1232.5,-129 1104.5,-129 1104.5,-110 1232.5,-110 1232.5,-129"/>
<text text-anchor="middle" x="1168.5" y="-117" font-family="Helvetica,sans-Serif" font-size="10.00">FoundationEntities.cpp</text>
</a>
</g>
</g>
<!-- Node16&#45;&gt;Node18 -->
<g id="edge18" class="edge">
<title>Node16&#45;&gt;Node18</title>
<path fill="none" stroke="midnightblue" d="M1028.1,-218.32C1072.75,-210.62 1125.19,-198.85 1142.5,-184 1159.14,-169.73 1165.29,-143.17 1167.43,-129.36"/>
<polygon fill="midnightblue" stroke="midnightblue" points="1027.4,-214.89 1018.12,-220 1028.56,-221.79 1027.4,-214.89"/>
</g>
<!-- Node19 -->
<g id="node19" class="node">
<title>Node19</title>
<g id="a_node19"><a xlink:href="../../d5/dae/a00767.html" target="_top" xlink:title=" ">
<polygon fill="none" stroke="black" points="1134,-184 1039,-184 1039,-165 1134,-165 1134,-184"/>
<text text-anchor="middle" x="1086.5" y="-172" font-family="Helvetica,sans-Serif" font-size="10.00">InputEvents.hpp</text>
</a>
</g>
</g>
<!-- Node16&#45;&gt;Node19 -->
<g id="edge19" class="edge">
<title>Node16&#45;&gt;Node19</title>
<path fill="none" stroke="midnightblue" d="M987.54,-216.16C1011.42,-206.35 1044.22,-192.87 1065.4,-184.17"/>
<polygon fill="midnightblue" stroke="midnightblue" points="986.15,-212.95 978.23,-219.98 988.81,-219.42 986.15,-212.95"/>
</g>
<!-- Node21 -->
<g id="node21" class="node">
<title>Node21</title>
<g id="a_node21"><a xlink:href="../../d8/d2d/a00815.html" target="_top" xlink:title=" ">
<polygon fill="none" stroke="black" points="1326,-129 1251,-129 1251,-110 1326,-110 1326,-129"/>
<text text-anchor="middle" x="1288.5" y="-117" font-family="Helvetica,sans-Serif" font-size="10.00">Utilities.cpp</text>
</a>
</g>
</g>
<!-- Node16&#45;&gt;Node21 -->
<g id="edge26" class="edge">
<title>Node16&#45;&gt;Node21</title>
<path fill="none" stroke="midnightblue" d="M1026.4,-218.19C1067.01,-210.99 1119,-199.81 1163.5,-184 1205.7,-169.01 1251.81,-142.76 1274.41,-129.19"/>
<polygon fill="midnightblue" stroke="midnightblue" points="1025.58,-214.78 1016.33,-219.93 1026.78,-221.67 1025.58,-214.78"/>
</g>
<!-- Node22 -->
<g id="node22" class="node">
<title>Node22</title>
<g id="a_node22"><a xlink:href="../../d3/d60/a00818.html" target="_top" xlink:title=" ">
<polygon fill="none" stroke="black" points="1020.5,-184 894.5,-184 894.5,-165 1020.5,-165 1020.5,-184"/>
<text text-anchor="middle" x="957.5" y="-172" font-family="Helvetica,sans-Serif" font-size="10.00">InteractionEntities.cpp</text>
</a>
</g>
</g>
<!-- Node16&#45;&gt;Node22 -->
<g id="edge25" class="edge">
<title>Node16&#45;&gt;Node22</title>
<path fill="none" stroke="midnightblue" d="M957.5,-209.66C957.5,-200.93 957.5,-190.99 957.5,-184.09"/>
<polygon fill="midnightblue" stroke="midnightblue" points="954,-209.75 957.5,-219.75 961,-209.75 954,-209.75"/>
</g>
<!-- Node19&#45;&gt;Node2 -->
<g id="edge21" class="edge">
<title>Node19&#45;&gt;Node2</title>
<path fill="none" stroke="midnightblue" d="M1028.76,-164.42C965.69,-154.5 865.47,-138.74 803.8,-129.04"/>
<polygon fill="midnightblue" stroke="midnightblue" points="1028.51,-167.92 1038.93,-166.02 1029.6,-161.01 1028.51,-167.92"/>
</g>
<!-- Node19&#45;&gt;Node17 -->
<g id="edge20" class="edge">
<title>Node19&#45;&gt;Node17</title>
<path fill="none" stroke="midnightblue" d="M1047,-162.18C1012.4,-152.27 962.87,-138.08 931.46,-129.08"/>
<polygon fill="midnightblue" stroke="midnightblue" points="1046.2,-165.6 1056.78,-164.98 1048.13,-158.87 1046.2,-165.6"/>
</g>
<!-- Node19&#45;&gt;Node18 -->
<g id="edge22" class="edge">
<title>Node19&#45;&gt;Node18</title>
<path fill="none" stroke="midnightblue" d="M1108.28,-159.42C1123.16,-149.81 1142.41,-137.37 1155.09,-129.17"/>
<polygon fill="midnightblue" stroke="midnightblue" points="1106.17,-156.62 1099.67,-164.98 1109.97,-162.5 1106.17,-156.62"/>
</g>
<!-- Node20 -->
<g id="node20" class="node">
<title>Node20</title>
<g id="a_node20"><a xlink:href="../../d6/d8b/a00821.html" target="_top" xlink:title=" ">
<polygon fill="none" stroke="black" points="1086,-129 991,-129 991,-110 1086,-110 1086,-129"/>
<text text-anchor="middle" x="1038.5" y="-117" font-family="Helvetica,sans-Serif" font-size="10.00">InputEvents.cpp</text>
</a>
</g>
</g>
<!-- Node19&#45;&gt;Node20 -->
<g id="edge23" class="edge">
<title>Node19&#45;&gt;Node20</title>
<path fill="none" stroke="midnightblue" d="M1071.77,-157.24C1063.36,-147.95 1053.15,-136.68 1046.28,-129.09"/>
<polygon fill="midnightblue" stroke="midnightblue" points="1069.27,-159.69 1078.57,-164.75 1074.46,-154.99 1069.27,-159.69"/>
</g>
<!-- Node19&#45;&gt;Node21 -->
<g id="edge24" class="edge">
<title>Node19&#45;&gt;Node21</title>
<path fill="none" stroke="midnightblue" d="M1128.66,-162.44C1166.48,-152.52 1221.19,-138.16 1255.79,-129.08"/>
<polygon fill="midnightblue" stroke="midnightblue" points="1127.74,-159.06 1118.95,-164.98 1129.52,-165.83 1127.74,-159.06"/>
</g>
</g>
</svg>
