<?xml version="1.0" encoding="UTF-8" standalone="no"?>
<!DOCTYPE svg PUBLIC "-//W3C//DTD SVG 1.1//EN"
 "http://www.w3.org/Graphics/SVG/1.1/DTD/svg11.dtd">
<!-- Generated by graphviz version 3.0.0 (20220226.1711)
 -->
<!-- Title: RoleEntities.cpp Pages: 1 -->
<svg width="1951pt" height="789pt"
 viewBox="0.00 0.00 1950.50 789.00" xmlns="http://www.w3.org/2000/svg" xmlns:xlink="http://www.w3.org/1999/xlink">
<g id="graph0" class="graph" transform="scale(1 1) rotate(0) translate(4 785)">
<title>RoleEntities.cpp</title>
<!-- Node1 -->
<g id="node1" class="node">
<title>Node1</title>
<g id="a_node1"><a xlink:title=" ">
<polygon fill="#bfbfbf" stroke="black" points="703.5,-761.5 703.5,-780.5 791.5,-780.5 791.5,-761.5 703.5,-761.5"/>
<text text-anchor="middle" x="747.5" y="-768.5" font-family="Helvetica,sans-Serif" font-size="10.00">RoleEntities.cpp</text>
</a>
</g>
</g>
<!-- Node2 -->
<g id="node2" class="node">
<title>Node2</title>
<g id="a_node2"><a xlink:href="../../dc/dce/a00740.html" target="_top" xlink:title=" ">
<polygon fill="none" stroke="black" points="791.5,-705.5 791.5,-724.5 945.5,-724.5 945.5,-705.5 791.5,-705.5"/>
<text text-anchor="middle" x="868.5" y="-712.5" font-family="Helvetica,sans-Serif" font-size="10.00">discordcoreapi/RoleEntities.hpp</text>
</a>
</g>
</g>
<!-- Node1&#45;&gt;Node2 -->
<g id="edge1" class="edge">
<title>Node1&#45;&gt;Node2</title>
<path fill="none" stroke="midnightblue" d="M766.67,-761.44C786.41,-752.64 817.39,-738.81 839.99,-728.72"/>
<polygon fill="midnightblue" stroke="midnightblue" points="841.71,-731.79 849.42,-724.52 838.86,-725.4 841.71,-731.79"/>
</g>
<!-- Node37 -->
<g id="node37" class="node">
<title>Node37</title>
<g id="a_node37"><a xlink:href="../../d5/d5b/a00695.html" target="_top" xlink:title=" ">
<polygon fill="none" stroke="black" points="201.5,-403.5 201.5,-422.5 347.5,-422.5 347.5,-403.5 201.5,-403.5"/>
<text text-anchor="middle" x="274.5" y="-410.5" font-family="Helvetica,sans-Serif" font-size="10.00">discordcoreapi/CoRoutine.hpp</text>
</a>
</g>
</g>
<!-- Node1&#45;&gt;Node37 -->
<g id="edge70" class="edge">
<title>Node1&#45;&gt;Node37</title>
<path fill="none" stroke="midnightblue" d="M703.41,-770.2C571.9,-769.61 191.5,-758.88 191.5,-654.5 191.5,-654.5 191.5,-654.5 191.5,-529.5 191.5,-486.65 229.64,-448.82 254.21,-428.89"/>
<polygon fill="midnightblue" stroke="midnightblue" points="256.53,-431.53 262.25,-422.61 252.22,-426.01 256.53,-431.53"/>
</g>
<!-- Node3 -->
<g id="node3" class="node">
<title>Node3</title>
<g id="a_node3"><a xlink:href="../../d4/deb/a00710.html" target="_top" xlink:title=" ">
<polygon fill="none" stroke="black" points="1254,-112.5 1254,-142.5 1385,-142.5 1385,-112.5 1254,-112.5"/>
<text text-anchor="start" x="1262" y="-130.5" font-family="Helvetica,sans-Serif" font-size="10.00">discordcoreapi/Foundation</text>
<text text-anchor="middle" x="1319.5" y="-119.5" font-family="Helvetica,sans-Serif" font-size="10.00">Entities.hpp</text>
</a>
</g>
</g>
<!-- Node2&#45;&gt;Node3 -->
<g id="edge2" class="edge">
<title>Node2&#45;&gt;Node3</title>
<path fill="none" stroke="midnightblue" d="M945.86,-713.22C1188.8,-709.74 1920.5,-691.13 1920.5,-593 1920.5,-593 1920.5,-593 1920.5,-244 1920.5,-207.82 1903.11,-196.6 1871.5,-179 1791.71,-134.57 1526.79,-128.26 1395.13,-127.97"/>
<polygon fill="midnightblue" stroke="midnightblue" points="1395.12,-124.47 1385.12,-127.96 1395.11,-131.47 1395.12,-124.47"/>
</g>
<!-- Node29 -->
<g id="node29" class="node">
<title>Node29</title>
<g id="a_node29"><a xlink:href="../../d2/d94/a00716.html" target="_top" xlink:title=" ">
<polygon fill="none" stroke="black" points="937.5,-638.5 937.5,-668.5 1077.5,-668.5 1077.5,-638.5 937.5,-638.5"/>
<text text-anchor="start" x="945.5" y="-656.5" font-family="Helvetica,sans-Serif" font-size="10.00">discordcoreapi/GuildMember</text>
<text text-anchor="middle" x="1007.5" y="-645.5" font-family="Helvetica,sans-Serif" font-size="10.00">Entities.hpp</text>
</a>
</g>
</g>
<!-- Node2&#45;&gt;Node29 -->
<g id="edge28" class="edge">
<title>Node2&#45;&gt;Node29</title>
<path fill="none" stroke="midnightblue" d="M888.42,-705.48C908.38,-696.93 939.75,-683.5 965.28,-672.57"/>
<polygon fill="midnightblue" stroke="midnightblue" points="966.92,-675.68 974.74,-668.52 964.17,-669.24 966.92,-675.68"/>
</g>
<!-- Node39 -->
<g id="node39" class="node">
<title>Node39</title>
<g id="a_node39"><a xlink:href="../../db/d7c/a00722.html" target="_top" xlink:title=" ">
<polygon fill="none" stroke="black" points="0,-291.5 0,-310.5 125,-310.5 125,-291.5 0,-291.5"/>
<text text-anchor="middle" x="62.5" y="-298.5" font-family="Helvetica,sans-Serif" font-size="10.00">discordcoreapi/Https.hpp</text>
</a>
</g>
</g>
<!-- Node2&#45;&gt;Node39 -->
<g id="edge69" class="edge">
<title>Node2&#45;&gt;Node39</title>
<path fill="none" stroke="midnightblue" d="M791.26,-710.33C590.99,-699.79 70.5,-665.43 70.5,-593 70.5,-593 70.5,-593 70.5,-412 70.5,-379.86 67.06,-342.58 64.69,-320.72"/>
<polygon fill="midnightblue" stroke="midnightblue" points="68.14,-320.09 63.55,-310.54 61.19,-320.87 68.14,-320.09"/>
</g>
<!-- Node4 -->
<g id="node4" class="node">
<title>Node4</title>
<g id="a_node4"><a xlink:href="../../d5/dae/a00767.html" target="_top" xlink:title=" ">
<polygon fill="none" stroke="black" points="1140.5,-56.5 1140.5,-75.5 1274.5,-75.5 1274.5,-56.5 1140.5,-56.5"/>
<text text-anchor="middle" x="1207.5" y="-63.5" font-family="Helvetica,sans-Serif" font-size="10.00">discordcoreapi/Utilities.hpp</text>
</a>
</g>
</g>
<!-- Node3&#45;&gt;Node4 -->
<g id="edge3" class="edge">
<title>Node3&#45;&gt;Node4</title>
<path fill="none" stroke="midnightblue" d="M1292.96,-112.4C1274.84,-102.77 1250.96,-90.09 1233.06,-80.58"/>
<polygon fill="midnightblue" stroke="midnightblue" points="1234.27,-77.26 1223.8,-75.66 1230.99,-83.44 1234.27,-77.26"/>
</g>
<!-- Node5 -->
<g id="node5" class="node">
<title>Node5</title>
<g id="a_node5"><a xlink:title=" ">
<polygon fill="none" stroke="#bfbfbf" points="1805,-0.5 1805,-19.5 1862,-19.5 1862,-0.5 1805,-0.5"/>
<text text-anchor="middle" x="1833.5" y="-7.5" font-family="Helvetica,sans-Serif" font-size="10.00">pthread.h</text>
</a>
</g>
</g>
<!-- Node4&#45;&gt;Node5 -->
<g id="edge4" class="edge">
<title>Node4&#45;&gt;Node5</title>
<path fill="none" stroke="midnightblue" d="M1274.6,-63.41C1382.49,-60.09 1601.23,-50.13 1794.83,-20.03"/>
<polygon fill="midnightblue" stroke="midnightblue" points="1795.58,-23.46 1804.91,-18.44 1794.49,-16.54 1795.58,-23.46"/>
</g>
<!-- Node6 -->
<g id="node6" class="node">
<title>Node6</title>
<g id="a_node6"><a xlink:title=" ">
<polygon fill="none" stroke="#bfbfbf" points="1880.5,-0.5 1880.5,-19.5 1942.5,-19.5 1942.5,-0.5 1880.5,-0.5"/>
<text text-anchor="middle" x="1911.5" y="-7.5" font-family="Helvetica,sans-Serif" font-size="10.00">sys/time.h</text>
</a>
</g>
</g>
<!-- Node4&#45;&gt;Node6 -->
<g id="edge5" class="edge">
<title>Node4&#45;&gt;Node6</title>
<path fill="none" stroke="midnightblue" d="M1274.78,-63.85C1393.33,-61.08 1647.25,-51.8 1870.22,-19.97"/>
<polygon fill="midnightblue" stroke="midnightblue" points="1870.75,-23.43 1880.14,-18.53 1869.74,-16.5 1870.75,-23.43"/>
</g>
<!-- Node7 -->
<g id="node7" class="node">
<title>Node7</title>
<g id="a_node7"><a xlink:title=" ">
<polygon fill="none" stroke="#bfbfbf" points="236.5,-0.5 236.5,-19.5 280.5,-19.5 280.5,-0.5 236.5,-0.5"/>
<text text-anchor="middle" x="258.5" y="-7.5" font-family="Helvetica,sans-Serif" font-size="10.00">time.h</text>
</a>
</g>
</g>
<!-- Node4&#45;&gt;Node7 -->
<g id="edge6" class="edge">
<title>Node4&#45;&gt;Node7</title>
<path fill="none" stroke="midnightblue" d="M1140.46,-63.67C961.21,-59.8 472.79,-47.17 290.73,-19.53"/>
<polygon fill="midnightblue" stroke="midnightblue" points="291.16,-16.05 280.74,-17.94 290.06,-22.97 291.16,-16.05"/>
</g>
<!-- Node8 -->
<g id="node8" class="node">
<title>Node8</title>
<g id="a_node8"><a xlink:title=" ">
<polygon fill="none" stroke="#bfbfbf" points="299,-0.5 299,-19.5 340,-19.5 340,-0.5 299,-0.5"/>
<text text-anchor="middle" x="319.5" y="-7.5" font-family="Helvetica,sans-Serif" font-size="10.00">ctime</text>
</a>
</g>
</g>
<!-- Node4&#45;&gt;Node8 -->
<g id="edge7" class="edge">
<title>Node4&#45;&gt;Node8</title>
<path fill="none" stroke="midnightblue" d="M1140.37,-63.55C969.38,-59.54 519.64,-46.85 350.04,-19.55"/>
<polygon fill="midnightblue" stroke="midnightblue" points="350.44,-16.07 340,-17.86 349.28,-22.97 350.44,-16.07"/>
</g>
<!-- Node9 -->
<g id="node9" class="node">
<title>Node9</title>
<g id="a_node9"><a xlink:title=" ">
<polygon fill="none" stroke="#bfbfbf" points="358,-0.5 358,-19.5 451,-19.5 451,-0.5 358,-0.5"/>
<text text-anchor="middle" x="404.5" y="-7.5" font-family="Helvetica,sans-Serif" font-size="10.00">condition_variable</text>
</a>
</g>
</g>
<!-- Node4&#45;&gt;Node9 -->
<g id="edge8" class="edge">
<title>Node4&#45;&gt;Node9</title>
<path fill="none" stroke="midnightblue" d="M1140.35,-63.19C1011.02,-59.21 718.24,-47.84 461.47,-19.99"/>
<polygon fill="midnightblue" stroke="midnightblue" points="461.53,-16.47 451.2,-18.86 460.76,-23.43 461.53,-16.47"/>
</g>
<!-- Node10 -->
<g id="node10" class="node">
<title>Node10</title>
<g id="a_node10"><a xlink:title=" ">
<polygon fill="none" stroke="#bfbfbf" points="469.5,-0.5 469.5,-19.5 567.5,-19.5 567.5,-0.5 469.5,-0.5"/>
<text text-anchor="middle" x="518.5" y="-7.5" font-family="Helvetica,sans-Serif" font-size="10.00">nlohmann/json.hpp</text>
</a>
</g>
</g>
<!-- Node4&#45;&gt;Node10 -->
<g id="edge9" class="edge">
<title>Node4&#45;&gt;Node10</title>
<path fill="none" stroke="midnightblue" d="M1140.21,-61.97C1026.61,-56.45 789.39,-43.27 577.77,-19.93"/>
<polygon fill="midnightblue" stroke="midnightblue" points="578.04,-16.44 567.72,-18.81 577.27,-23.39 578.04,-16.44"/>
</g>
<!-- Node11 -->
<g id="node11" class="node">
<title>Node11</title>
<g id="a_node11"><a xlink:title=" ">
<polygon fill="none" stroke="#bfbfbf" points="586,-0.5 586,-19.5 671,-19.5 671,-0.5 586,-0.5"/>
<text text-anchor="middle" x="628.5" y="-7.5" font-family="Helvetica,sans-Serif" font-size="10.00">source_location</text>
</a>
</g>
</g>
<!-- Node4&#45;&gt;Node11 -->
<g id="edge10" class="edge">
<title>Node4&#45;&gt;Node11</title>
<path fill="none" stroke="midnightblue" d="M1140.33,-61.13C1041.9,-55.03 852.5,-41.75 680.99,-19.95"/>
<polygon fill="midnightblue" stroke="midnightblue" points="681.39,-16.47 671.02,-18.67 680.49,-23.41 681.39,-16.47"/>
</g>
<!-- Node12 -->
<g id="node12" class="node">
<title>Node12</title>
<g id="a_node12"><a xlink:title=" ">
<polygon fill="none" stroke="#bfbfbf" points="689,-0.5 689,-19.5 772,-19.5 772,-0.5 689,-0.5"/>
<text text-anchor="middle" x="730.5" y="-7.5" font-family="Helvetica,sans-Serif" font-size="10.00">unordered_map</text>
</a>
</g>
</g>
<!-- Node4&#45;&gt;Node12 -->
<g id="edge11" class="edge">
<title>Node4&#45;&gt;Node12</title>
<path fill="none" stroke="midnightblue" d="M1140.18,-59.34C1058.12,-52.12 915,-38.48 782.16,-20"/>
<polygon fill="midnightblue" stroke="midnightblue" points="782.6,-16.53 772.21,-18.6 781.63,-23.46 782.6,-16.53"/>
</g>
<!-- Node13 -->
<g id="node13" class="node">
<title>Node13</title>
<g id="a_node13"><a xlink:title=" ">
<polygon fill="none" stroke="#bfbfbf" points="790.5,-0.5 790.5,-19.5 868.5,-19.5 868.5,-0.5 790.5,-0.5"/>
<text text-anchor="middle" x="829.5" y="-7.5" font-family="Helvetica,sans-Serif" font-size="10.00">shared_mutex</text>
</a>
</g>
</g>
<!-- Node4&#45;&gt;Node13 -->
<g id="edge12" class="edge">
<title>Node4&#45;&gt;Node13</title>
<path fill="none" stroke="midnightblue" d="M1140.36,-56.84C1075.79,-48.77 975.21,-35.6 878.46,-20.09"/>
<polygon fill="midnightblue" stroke="midnightblue" points="878.93,-16.62 868.5,-18.48 877.82,-23.53 878.93,-16.62"/>
</g>
<!-- Node14 -->
<g id="node14" class="node">
<title>Node14</title>
<g id="a_node14"><a xlink:title=" ">
<polygon fill="none" stroke="#bfbfbf" points="886.5,-0.5 886.5,-19.5 944.5,-19.5 944.5,-0.5 886.5,-0.5"/>
<text text-anchor="middle" x="915.5" y="-7.5" font-family="Helvetica,sans-Serif" font-size="10.00">functional</text>
</a>
</g>
</g>
<!-- Node4&#45;&gt;Node14 -->
<g id="edge13" class="edge">
<title>Node4&#45;&gt;Node14</title>
<path fill="none" stroke="midnightblue" d="M1154.3,-56.49C1105.01,-48.39 1029.41,-35.46 954.58,-20.13"/>
<polygon fill="midnightblue" stroke="midnightblue" points="955.01,-16.64 944.51,-18.05 953.59,-23.5 955.01,-16.64"/>
</g>
<!-- Node15 -->
<g id="node15" class="node">
<title>Node15</title>
<g id="a_node15"><a xlink:title=" ">
<polygon fill="none" stroke="#bfbfbf" points="962.5,-0.5 962.5,-19.5 1018.5,-19.5 1018.5,-0.5 962.5,-0.5"/>
<text text-anchor="middle" x="990.5" y="-7.5" font-family="Helvetica,sans-Serif" font-size="10.00">coroutine</text>
</a>
</g>
</g>
<!-- Node4&#45;&gt;Node15 -->
<g id="edge14" class="edge">
<title>Node4&#45;&gt;Node15</title>
<path fill="none" stroke="midnightblue" d="M1173.12,-56.44C1133.67,-46.63 1069.2,-30.59 1028.36,-20.42"/>
<polygon fill="midnightblue" stroke="midnightblue" points="1029.06,-16.99 1018.51,-17.97 1027.37,-23.78 1029.06,-16.99"/>
</g>
<!-- Node16 -->
<g id="node16" class="node">
<title>Node16</title>
<g id="a_node16"><a xlink:title=" ">
<polygon fill="none" stroke="#bfbfbf" points="121,-0.5 121,-19.5 186,-19.5 186,-0.5 121,-0.5"/>
<text text-anchor="middle" x="153.5" y="-7.5" font-family="Helvetica,sans-Serif" font-size="10.00">semaphore</text>
</a>
</g>
</g>
<!-- Node4&#45;&gt;Node16 -->
<g id="edge15" class="edge">
<title>Node4&#45;&gt;Node16</title>
<path fill="none" stroke="midnightblue" d="M1140.26,-63.65C981.29,-60.09 569.92,-48.64 227.5,-20 217.34,-19.15 206.43,-17.97 196.19,-16.75"/>
<polygon fill="midnightblue" stroke="midnightblue" points="196.58,-13.27 186.23,-15.52 195.73,-20.22 196.58,-13.27"/>
</g>
<!-- Node17 -->
<g id="node17" class="node">
<title>Node17</title>
<g id="a_node17"><a xlink:title=" ">
<polygon fill="none" stroke="#bfbfbf" points="1036.5,-0.5 1036.5,-19.5 1092.5,-19.5 1092.5,-0.5 1036.5,-0.5"/>
<text text-anchor="middle" x="1064.5" y="-7.5" font-family="Helvetica,sans-Serif" font-size="10.00">concepts</text>
</a>
</g>
</g>
<!-- Node4&#45;&gt;Node17 -->
<g id="edge16" class="edge">
<title>Node4&#45;&gt;Node17</title>
<path fill="none" stroke="midnightblue" d="M1184.84,-56.44C1161.1,-47.48 1123.59,-33.31 1096.76,-23.18"/>
<polygon fill="midnightblue" stroke="midnightblue" points="1097.64,-19.77 1087.05,-19.52 1095.17,-26.32 1097.64,-19.77"/>
</g>
<!-- Node18 -->
<g id="node18" class="node">
<title>Node18</title>
<g id="a_node18"><a xlink:title=" ">
<polygon fill="none" stroke="#bfbfbf" points="1110.5,-0.5 1110.5,-19.5 1164.5,-19.5 1164.5,-0.5 1110.5,-0.5"/>
<text text-anchor="middle" x="1137.5" y="-7.5" font-family="Helvetica,sans-Serif" font-size="10.00">iostream</text>
</a>
</g>
</g>
<!-- Node4&#45;&gt;Node18 -->
<g id="edge17" class="edge">
<title>Node4&#45;&gt;Node18</title>
<path fill="none" stroke="midnightblue" d="M1196.25,-56.32C1185.7,-48.18 1169.7,-35.84 1157.06,-26.09"/>
<polygon fill="midnightblue" stroke="midnightblue" points="1159.01,-23.17 1148.95,-19.83 1154.73,-28.71 1159.01,-23.17"/>
</g>
<!-- Node19 -->
<g id="node19" class="node">
<title>Node19</title>
<g id="a_node19"><a xlink:title=" ">
<polygon fill="none" stroke="#bfbfbf" points="1183,-0.5 1183,-19.5 1232,-19.5 1232,-0.5 1183,-0.5"/>
<text text-anchor="middle" x="1207.5" y="-7.5" font-family="Helvetica,sans-Serif" font-size="10.00">fstream</text>
</a>
</g>
</g>
<!-- Node4&#45;&gt;Node19 -->
<g id="edge18" class="edge">
<title>Node4&#45;&gt;Node19</title>
<path fill="none" stroke="midnightblue" d="M1207.5,-56.08C1207.5,-49.01 1207.5,-38.86 1207.5,-29.99"/>
<polygon fill="midnightblue" stroke="midnightblue" points="1211,-29.75 1207.5,-19.75 1204,-29.75 1211,-29.75"/>
</g>
<!-- Node20 -->
<g id="node20" class="node">
<title>Node20</title>
<g id="a_node20"><a xlink:title=" ">
<polygon fill="none" stroke="#bfbfbf" points="1250,-0.5 1250,-19.5 1291,-19.5 1291,-0.5 1250,-0.5"/>
<text text-anchor="middle" x="1270.5" y="-7.5" font-family="Helvetica,sans-Serif" font-size="10.00">bitset</text>
</a>
</g>
</g>
<!-- Node4&#45;&gt;Node20 -->
<g id="edge19" class="edge">
<title>Node4&#45;&gt;Node20</title>
<path fill="none" stroke="midnightblue" d="M1217.62,-56.32C1227.03,-48.26 1241.24,-36.08 1252.57,-26.37"/>
<polygon fill="midnightblue" stroke="midnightblue" points="1254.88,-29 1260.19,-19.83 1250.32,-23.68 1254.88,-29"/>
</g>
<!-- Node21 -->
<g id="node21" class="node">
<title>Node21</title>
<g id="a_node21"><a xlink:title=" ">
<polygon fill="none" stroke="#bfbfbf" points="1309.5,-0.5 1309.5,-19.5 1361.5,-19.5 1361.5,-0.5 1309.5,-0.5"/>
<text text-anchor="middle" x="1335.5" y="-7.5" font-family="Helvetica,sans-Serif" font-size="10.00">memory</text>
</a>
</g>
</g>
<!-- Node4&#45;&gt;Node21 -->
<g id="edge20" class="edge">
<title>Node4&#45;&gt;Node21</title>
<path fill="none" stroke="midnightblue" d="M1227.78,-56.44C1248.85,-47.56 1282.02,-33.56 1305.99,-23.45"/>
<polygon fill="midnightblue" stroke="midnightblue" points="1307.46,-26.63 1315.31,-19.52 1304.74,-20.18 1307.46,-26.63"/>
</g>
<!-- Node22 -->
<g id="node22" class="node">
<title>Node22</title>
<g id="a_node22"><a xlink:title=" ">
<polygon fill="none" stroke="#bfbfbf" points="1380,-0.5 1380,-19.5 1429,-19.5 1429,-0.5 1380,-0.5"/>
<text text-anchor="middle" x="1404.5" y="-7.5" font-family="Helvetica,sans-Serif" font-size="10.00">random</text>
</a>
</g>
</g>
<!-- Node4&#45;&gt;Node22 -->
<g id="edge21" class="edge">
<title>Node4&#45;&gt;Node22</title>
<path fill="none" stroke="midnightblue" d="M1238.72,-56.44C1274.52,-46.63 1333.03,-30.59 1370.11,-20.43"/>
<polygon fill="midnightblue" stroke="midnightblue" points="1371.25,-23.74 1379.97,-17.73 1369.4,-16.99 1371.25,-23.74"/>
</g>
<!-- Node23 -->
<g id="node23" class="node">
<title>Node23</title>
<g id="a_node23"><a xlink:title=" ">
<polygon fill="none" stroke="#bfbfbf" points="1447,-0.5 1447,-19.5 1488,-19.5 1488,-0.5 1447,-0.5"/>
<text text-anchor="middle" x="1467.5" y="-7.5" font-family="Helvetica,sans-Serif" font-size="10.00">string</text>
</a>
</g>
</g>
<!-- Node4&#45;&gt;Node23 -->
<g id="edge22" class="edge">
<title>Node4&#45;&gt;Node23</title>
<path fill="none" stroke="midnightblue" d="M1259.69,-56.5C1304.54,-48.82 1371.08,-36.53 1437.23,-20.12"/>
<polygon fill="midnightblue" stroke="midnightblue" points="1438.14,-23.5 1446.98,-17.67 1436.43,-16.71 1438.14,-23.5"/>
</g>
<!-- Node24 -->
<g id="node24" class="node">
<title>Node24</title>
<g id="a_node24"><a xlink:title=" ">
<polygon fill="none" stroke="#bfbfbf" points="1506.5,-0.5 1506.5,-19.5 1548.5,-19.5 1548.5,-0.5 1506.5,-0.5"/>
<text text-anchor="middle" x="1527.5" y="-7.5" font-family="Helvetica,sans-Serif" font-size="10.00">vector</text>
</a>
</g>
</g>
<!-- Node4&#45;&gt;Node24 -->
<g id="edge23" class="edge">
<title>Node4&#45;&gt;Node24</title>
<path fill="none" stroke="midnightblue" d="M1274.51,-57.26C1331.3,-50.09 1415,-38.11 1496.38,-20"/>
<polygon fill="midnightblue" stroke="midnightblue" points="1497.31,-23.37 1506.29,-17.76 1495.77,-16.55 1497.31,-23.37"/>
</g>
<!-- Node25 -->
<g id="node25" class="node">
<title>Node25</title>
<g id="a_node25"><a xlink:title=" ">
<polygon fill="none" stroke="#bfbfbf" points="1566.5,-0.5 1566.5,-19.5 1610.5,-19.5 1610.5,-0.5 1566.5,-0.5"/>
<text text-anchor="middle" x="1588.5" y="-7.5" font-family="Helvetica,sans-Serif" font-size="10.00">thread</text>
</a>
</g>
</g>
<!-- Node4&#45;&gt;Node25 -->
<g id="edge24" class="edge">
<title>Node4&#45;&gt;Node25</title>
<path fill="none" stroke="midnightblue" d="M1274.78,-59.46C1343.42,-53.12 1453.07,-41.04 1556.29,-19.97"/>
<polygon fill="midnightblue" stroke="midnightblue" points="1557.17,-23.36 1566.25,-17.91 1555.75,-16.51 1557.17,-23.36"/>
</g>
<!-- Node26 -->
<g id="node26" class="node">
<title>Node26</title>
<g id="a_node26"><a xlink:title=" ">
<polygon fill="none" stroke="#bfbfbf" points="1628.5,-0.5 1628.5,-19.5 1672.5,-19.5 1672.5,-0.5 1628.5,-0.5"/>
<text text-anchor="middle" x="1650.5" y="-7.5" font-family="Helvetica,sans-Serif" font-size="10.00">mutex</text>
</a>
</g>
</g>
<!-- Node4&#45;&gt;Node26 -->
<g id="edge25" class="edge">
<title>Node4&#45;&gt;Node26</title>
<path fill="none" stroke="midnightblue" d="M1274.76,-61.25C1354.7,-56 1492.14,-44.42 1618.42,-19.9"/>
<polygon fill="midnightblue" stroke="midnightblue" points="1619.13,-23.33 1628.26,-17.96 1617.77,-16.46 1619.13,-23.33"/>
</g>
<!-- Node27 -->
<g id="node27" class="node">
<title>Node27</title>
<g id="a_node27"><a xlink:title=" ">
<polygon fill="none" stroke="#bfbfbf" points="1691,-0.5 1691,-19.5 1734,-19.5 1734,-0.5 1691,-0.5"/>
<text text-anchor="middle" x="1712.5" y="-7.5" font-family="Helvetica,sans-Serif" font-size="10.00">queue</text>
</a>
</g>
</g>
<!-- Node4&#45;&gt;Node27 -->
<g id="edge26" class="edge">
<title>Node4&#45;&gt;Node27</title>
<path fill="none" stroke="midnightblue" d="M1274.78,-62.59C1365.19,-58.47 1530.88,-47.82 1681.08,-19.7"/>
<polygon fill="midnightblue" stroke="midnightblue" points="1681.78,-23.13 1690.95,-17.82 1680.47,-16.25 1681.78,-23.13"/>
</g>
<!-- Node28 -->
<g id="node28" class="node">
<title>Node28</title>
<g id="a_node28"><a xlink:title=" ">
<polygon fill="none" stroke="#bfbfbf" points="1752,-0.5 1752,-19.5 1787,-19.5 1787,-0.5 1752,-0.5"/>
<text text-anchor="middle" x="1769.5" y="-7.5" font-family="Helvetica,sans-Serif" font-size="10.00">map</text>
</a>
</g>
</g>
<!-- Node4&#45;&gt;Node28 -->
<g id="edge27" class="edge">
<title>Node4&#45;&gt;Node28</title>
<path fill="none" stroke="midnightblue" d="M1274.71,-64.71C1375.06,-63.09 1569.85,-55.43 1741.78,-19.9"/>
<polygon fill="midnightblue" stroke="midnightblue" points="1742.7,-23.28 1751.76,-17.79 1741.26,-16.43 1742.7,-23.28"/>
</g>
<!-- Node29&#45;&gt;Node3 -->
<g id="edge29" class="edge">
<title>Node29&#45;&gt;Node3</title>
<path fill="none" stroke="midnightblue" d="M1077.63,-650.15C1285.26,-642.28 1882.5,-612.59 1882.5,-531.5 1882.5,-531.5 1882.5,-531.5 1882.5,-244 1882.5,-210.98 1874.12,-197.11 1846.5,-179 1809.61,-154.82 1531.77,-138.51 1395.04,-131.86"/>
<polygon fill="midnightblue" stroke="midnightblue" points="1395.2,-128.36 1385.05,-131.38 1394.87,-135.36 1395.2,-128.36"/>
</g>
<!-- Node30 -->
<g id="node30" class="node">
<title>Node30</title>
<g id="a_node30"><a xlink:href="../../d3/d2c/a00764.html" target="_top" xlink:title=" ">
<polygon fill="none" stroke="black" points="1208,-582.5 1208,-601.5 1363,-601.5 1363,-582.5 1208,-582.5"/>
<text text-anchor="middle" x="1285.5" y="-589.5" font-family="Helvetica,sans-Serif" font-size="10.00">discordcoreapi/UserEntities.hpp</text>
</a>
</g>
</g>
<!-- Node29&#45;&gt;Node30 -->
<g id="edge30" class="edge">
<title>Node29&#45;&gt;Node30</title>
<path fill="none" stroke="midnightblue" d="M1073.03,-638.47C1122.88,-627.81 1190.41,-613.35 1235.84,-603.63"/>
<polygon fill="midnightblue" stroke="midnightblue" points="1236.71,-607.02 1245.76,-601.51 1235.24,-600.18 1236.71,-607.02"/>
</g>
<!-- Node29&#45;&gt;Node39 -->
<g id="edge68" class="edge">
<title>Node29&#45;&gt;Node39</title>
<path fill="none" stroke="midnightblue" d="M937.46,-646.92C753.51,-630.98 262.43,-579.77 139.5,-479 90.35,-438.71 110.69,-404.91 84.5,-347 80.37,-337.87 75.51,-327.85 71.4,-319.59"/>
<polygon fill="midnightblue" stroke="midnightblue" points="74.48,-317.92 66.87,-310.55 68.23,-321.06 74.48,-317.92"/>
</g>
<!-- Node30&#45;&gt;Node3 -->
<g id="edge31" class="edge">
<title>Node30&#45;&gt;Node3</title>
<path fill="none" stroke="midnightblue" d="M1363.23,-590.21C1516.82,-586.54 1844.5,-567.31 1844.5,-470 1844.5,-470 1844.5,-470 1844.5,-244 1844.5,-213.9 1848.66,-198.23 1825.5,-179 1793.15,-152.14 1528.65,-137.29 1395.5,-131.45"/>
<polygon fill="midnightblue" stroke="midnightblue" points="1395.5,-127.95 1385.36,-131.01 1395.2,-134.94 1395.5,-127.95"/>
</g>
<!-- Node31 -->
<g id="node31" class="node">
<title>Node31</title>
<g id="a_node31"><a xlink:href="../../d9/dd4/a00776.html" target="_top" xlink:title=" ">
<polygon fill="none" stroke="black" points="1218.5,-515.5 1218.5,-545.5 1352.5,-545.5 1352.5,-515.5 1218.5,-515.5"/>
<text text-anchor="start" x="1226.5" y="-533.5" font-family="Helvetica,sans-Serif" font-size="10.00">discordcoreapi/WebSocket</text>
<text text-anchor="middle" x="1285.5" y="-522.5" font-family="Helvetica,sans-Serif" font-size="10.00">Entities.hpp</text>
</a>
</g>
</g>
<!-- Node30&#45;&gt;Node31 -->
<g id="edge32" class="edge">
<title>Node30&#45;&gt;Node31</title>
<path fill="none" stroke="midnightblue" d="M1285.5,-582.48C1285.5,-575.47 1285.5,-565.19 1285.5,-555.7"/>
<polygon fill="midnightblue" stroke="midnightblue" points="1289,-555.52 1285.5,-545.52 1282,-555.52 1289,-555.52"/>
</g>
<!-- Node31&#45;&gt;Node3 -->
<g id="edge65" class="edge">
<title>Node31&#45;&gt;Node3</title>
<path fill="none" stroke="midnightblue" d="M1218.5,-529.74C975.32,-529.73 153.5,-521.73 153.5,-414 153.5,-414 153.5,-414 153.5,-244 153.5,-204.98 177.2,-195.61 212.5,-179 305.13,-135.43 1008.91,-129.4 1243.6,-128.61"/>
<polygon fill="midnightblue" stroke="midnightblue" points="1243.76,-132.11 1253.75,-128.57 1243.74,-125.11 1243.76,-132.11"/>
</g>
<!-- Node32 -->
<g id="node32" class="node">
<title>Node32</title>
<g id="a_node32"><a xlink:href="../../d4/d9b/a00680.html" target="_top" xlink:title=" ">
<polygon fill="none" stroke="black" points="1508.5,-235.5 1508.5,-254.5 1670.5,-254.5 1670.5,-235.5 1508.5,-235.5"/>
<text text-anchor="middle" x="1589.5" y="-242.5" font-family="Helvetica,sans-Serif" font-size="10.00">discordcoreapi/AudioDecoder.hpp</text>
</a>
</g>
</g>
<!-- Node31&#45;&gt;Node32 -->
<g id="edge33" class="edge">
<title>Node31&#45;&gt;Node32</title>
<path fill="none" stroke="midnightblue" d="M1352.79,-516.4C1437.62,-497.92 1572.5,-461.13 1572.5,-414 1572.5,-414 1572.5,-414 1572.5,-356 1572.5,-323.58 1579.8,-286.42 1584.83,-264.64"/>
<polygon fill="midnightblue" stroke="midnightblue" points="1588.27,-265.31 1587.21,-254.77 1581.47,-263.67 1588.27,-265.31"/>
</g>
<!-- Node33 -->
<g id="node33" class="node">
<title>Node33</title>
<g id="a_node33"><a xlink:href="../../d4/d6a/a00704.html" target="_top" xlink:title=" ">
<polygon fill="none" stroke="black" points="1294.5,-179.5 1294.5,-198.5 1452.5,-198.5 1452.5,-179.5 1294.5,-179.5"/>
<text text-anchor="middle" x="1373.5" y="-186.5" font-family="Helvetica,sans-Serif" font-size="10.00">discordcoreapi/EventEntities.hpp</text>
</a>
</g>
</g>
<!-- Node31&#45;&gt;Node33 -->
<g id="edge64" class="edge">
<title>Node31&#45;&gt;Node33</title>
<path fill="none" stroke="midnightblue" d="M1297.22,-515.19C1313.1,-494.3 1339.5,-453.62 1339.5,-414 1339.5,-414 1339.5,-414 1339.5,-300 1339.5,-266.16 1354.37,-228.97 1364.44,-207.66"/>
<polygon fill="midnightblue" stroke="midnightblue" points="1367.64,-209.08 1368.91,-198.56 1361.36,-205.99 1367.64,-209.08"/>
</g>
<!-- Node36 -->
<g id="node36" class="node">
<title>Node36</title>
<g id="a_node36"><a xlink:href="../../d0/db6/a00692.html" target="_top" xlink:title=" ">
<polygon fill="none" stroke="black" points="1070,-459.5 1070,-478.5 1257,-478.5 1257,-459.5 1070,-459.5"/>
<text text-anchor="middle" x="1163.5" y="-466.5" font-family="Helvetica,sans-Serif" font-size="10.00">discordcoreapi/CommandController.hpp</text>
</a>
</g>
</g>
<!-- Node31&#45;&gt;Node36 -->
<g id="edge39" class="edge">
<title>Node31&#45;&gt;Node36</title>
<path fill="none" stroke="midnightblue" d="M1256.59,-515.4C1236.48,-505.59 1209.88,-492.62 1190.26,-483.05"/>
<polygon fill="midnightblue" stroke="midnightblue" points="1191.77,-479.9 1181.25,-478.66 1188.71,-486.19 1191.77,-479.9"/>
</g>
<!-- Node38 -->
<g id="node38" class="node">
<title>Node38</title>
<g id="a_node38"><a xlink:href="../../d3/d4f/a00761.html" target="_top" xlink:title=" ">
<polygon fill="none" stroke="black" points="219.5,-347.5 219.5,-366.5 369.5,-366.5 369.5,-347.5 219.5,-347.5"/>
<text text-anchor="middle" x="294.5" y="-354.5" font-family="Helvetica,sans-Serif" font-size="10.00">discordcoreapi/ThreadPool.hpp</text>
</a>
</g>
</g>
<!-- Node31&#45;&gt;Node38 -->
<g id="edge67" class="edge">
<title>Node31&#45;&gt;Node38</title>
<path fill="none" stroke="midnightblue" d="M1218.16,-517.85C1034.6,-486.08 527.6,-398.34 353.84,-368.27"/>
<polygon fill="midnightblue" stroke="midnightblue" points="354.31,-364.8 343.86,-366.54 353.11,-371.7 354.31,-364.8"/>
</g>
<!-- Node40 -->
<g id="node40" class="node">
<title>Node40</title>
<g id="a_node40"><a xlink:href="../../d5/de8/a00749.html" target="_top" xlink:title=" ">
<polygon fill="none" stroke="black" points="675.5,-235.5 675.5,-254.5 825.5,-254.5 825.5,-235.5 675.5,-235.5"/>
<text text-anchor="middle" x="750.5" y="-242.5" font-family="Helvetica,sans-Serif" font-size="10.00">discordcoreapi/SSLClients.hpp</text>
</a>
</g>
</g>
<!-- Node31&#45;&gt;Node40 -->
<g id="edge66" class="edge">
<title>Node31&#45;&gt;Node40</title>
<path fill="none" stroke="midnightblue" d="M1285.26,-515.35C1284.26,-499.75 1280.4,-474.8 1266.5,-459 1150.64,-327.24 940.6,-275.32 827.52,-256.2"/>
<polygon fill="midnightblue" stroke="midnightblue" points="827.99,-252.73 817.55,-254.56 826.85,-259.64 827.99,-252.73"/>
</g>
<!-- Node53 -->
<g id="node53" class="node">
<title>Node53</title>
<g id="a_node53"><a xlink:href="../../dd/d57/a00701.html" target="_top" xlink:title=" ">
<polygon fill="none" stroke="black" points="1386.5,-403.5 1386.5,-422.5 1530.5,-422.5 1530.5,-403.5 1386.5,-403.5"/>
<text text-anchor="middle" x="1458.5" y="-410.5" font-family="Helvetica,sans-Serif" font-size="10.00">discordcoreapi/ErlPacker.hpp</text>
</a>
</g>
</g>
<!-- Node31&#45;&gt;Node53 -->
<g id="edge62" class="edge">
<title>Node31&#45;&gt;Node53</title>
<path fill="none" stroke="midnightblue" d="M1306.71,-515.34C1339.87,-493.2 1403.61,-450.64 1436.96,-428.38"/>
<polygon fill="midnightblue" stroke="midnightblue" points="1439.14,-431.13 1445.51,-422.67 1435.25,-425.31 1439.14,-431.13"/>
</g>
<!-- Node32&#45;&gt;Node3 -->
<g id="edge36" class="edge">
<title>Node32&#45;&gt;Node3</title>
<path fill="none" stroke="midnightblue" d="M1579.35,-235.41C1562.66,-221.69 1527.94,-194.76 1494.5,-179 1463.27,-164.28 1426.85,-152.93 1395.34,-144.75"/>
<polygon fill="midnightblue" stroke="midnightblue" points="1395.85,-141.27 1385.3,-142.21 1394.13,-148.06 1395.85,-141.27"/>
</g>
<!-- Node32&#45;&gt;Node33 -->
<g id="edge34" class="edge">
<title>Node32&#45;&gt;Node33</title>
<path fill="none" stroke="midnightblue" d="M1555.27,-235.44C1517.99,-226.12 1458.23,-211.18 1417.49,-201"/>
<polygon fill="midnightblue" stroke="midnightblue" points="1418.12,-197.55 1407.57,-198.52 1416.42,-204.34 1418.12,-197.55"/>
</g>
<!-- Node34 -->
<g id="node34" class="node">
<title>Node34</title>
<g id="a_node34"><a xlink:title=" ">
<polygon fill="none" stroke="#bfbfbf" points="1706.5,-179.5 1706.5,-198.5 1816.5,-198.5 1816.5,-179.5 1706.5,-179.5"/>
<text text-anchor="middle" x="1761.5" y="-186.5" font-family="Helvetica,sans-Serif" font-size="10.00">libavformat/avformat.h</text>
</a>
</g>
</g>
<!-- Node32&#45;&gt;Node34 -->
<g id="edge37" class="edge">
<title>Node32&#45;&gt;Node34</title>
<path fill="none" stroke="midnightblue" d="M1616.75,-235.44C1645.94,-226.28 1692.42,-211.69 1724.81,-201.52"/>
<polygon fill="midnightblue" stroke="midnightblue" points="1725.88,-204.85 1734.37,-198.52 1723.78,-198.17 1725.88,-204.85"/>
</g>
<!-- Node35 -->
<g id="node35" class="node">
<title>Node35</title>
<g id="a_node35"><a xlink:title=" ">
<polygon fill="none" stroke="#bfbfbf" points="1547,-179.5 1547,-198.5 1688,-198.5 1688,-179.5 1547,-179.5"/>
<text text-anchor="middle" x="1617.5" y="-186.5" font-family="Helvetica,sans-Serif" font-size="10.00">libswresample/swresample.h</text>
</a>
</g>
</g>
<!-- Node32&#45;&gt;Node35 -->
<g id="edge38" class="edge">
<title>Node32&#45;&gt;Node35</title>
<path fill="none" stroke="midnightblue" d="M1594.12,-235.08C1597.96,-227.69 1603.52,-216.95 1608.26,-207.81"/>
<polygon fill="midnightblue" stroke="midnightblue" points="1611.47,-209.24 1612.96,-198.75 1605.25,-206.02 1611.47,-209.24"/>
</g>
<!-- Node33&#45;&gt;Node3 -->
<g id="edge35" class="edge">
<title>Node33&#45;&gt;Node3</title>
<path fill="none" stroke="midnightblue" d="M1365.76,-179.48C1358.79,-171.79 1348.24,-160.17 1338.98,-149.96"/>
<polygon fill="midnightblue" stroke="midnightblue" points="1341.54,-147.58 1332.23,-142.52 1336.36,-152.28 1341.54,-147.58"/>
</g>
<!-- Node36&#45;&gt;Node3 -->
<g id="edge61" class="edge">
<title>Node36&#45;&gt;Node3</title>
<path fill="none" stroke="midnightblue" d="M1166.51,-459.21C1178.92,-423.32 1228.22,-284.85 1285.5,-179 1290.65,-169.48 1297.12,-159.49 1303.03,-150.94"/>
<polygon fill="midnightblue" stroke="midnightblue" points="1306,-152.81 1308.91,-142.62 1300.28,-148.77 1306,-152.81"/>
</g>
<!-- Node36&#45;&gt;Node37 -->
<g id="edge40" class="edge">
<title>Node36&#45;&gt;Node37</title>
<path fill="none" stroke="midnightblue" d="M1069.62,-462.3C895.19,-451.7 523.77,-429.14 357.73,-419.06"/>
<polygon fill="midnightblue" stroke="midnightblue" points="357.77,-415.55 347.57,-418.44 357.34,-422.54 357.77,-415.55"/>
</g>
<!-- Node37&#45;&gt;Node3 -->
<g id="edge41" class="edge">
<title>Node37&#45;&gt;Node3</title>
<path fill="none" stroke="midnightblue" d="M256.19,-403.46C241.76,-395.83 222.2,-383.35 210.5,-367 192.98,-342.52 191.5,-332.1 191.5,-302 191.5,-302 191.5,-302 191.5,-244 191.5,-202.51 220.43,-195.5 258.5,-179 348.12,-140.16 1016.12,-131.02 1243.77,-129.02"/>
<polygon fill="midnightblue" stroke="midnightblue" points="1243.98,-132.52 1253.95,-128.94 1243.92,-125.52 1243.98,-132.52"/>
</g>
<!-- Node37&#45;&gt;Node38 -->
<g id="edge42" class="edge">
<title>Node37&#45;&gt;Node38</title>
<path fill="none" stroke="midnightblue" d="M277.8,-403.08C280.48,-395.85 284.35,-385.41 287.69,-376.4"/>
<polygon fill="midnightblue" stroke="midnightblue" points="291.07,-377.34 291.26,-366.75 284.5,-374.91 291.07,-377.34"/>
</g>
<!-- Node38&#45;&gt;Node3 -->
<g id="edge43" class="edge">
<title>Node38&#45;&gt;Node3</title>
<path fill="none" stroke="midnightblue" d="M289.45,-347.14C273.81,-318.4 229.88,-226.88 275.5,-179 308.82,-144.03 1009.16,-132.29 1243.72,-129.34"/>
<polygon fill="midnightblue" stroke="midnightblue" points="1243.91,-132.83 1253.86,-129.21 1243.82,-125.84 1243.91,-132.83"/>
</g>
<!-- Node38&#45;&gt;Node39 -->
<g id="edge44" class="edge">
<title>Node38&#45;&gt;Node39</title>
<path fill="none" stroke="midnightblue" d="M257.74,-347.44C217.44,-338.06 152.69,-322.99 108.92,-312.8"/>
<polygon fill="midnightblue" stroke="midnightblue" points="109.62,-309.37 99.09,-310.52 108.04,-316.19 109.62,-309.37"/>
</g>
<!-- Node39&#45;&gt;Node16 -->
<g id="edge60" class="edge">
<title>Node39&#45;&gt;Node16</title>
<path fill="none" stroke="midnightblue" d="M66.14,-291.34C73.51,-273 89.5,-228.74 89.5,-190 89.5,-190 89.5,-190 89.5,-126.5 89.5,-86.83 118.74,-48.02 137.69,-27.03"/>
<polygon fill="midnightblue" stroke="midnightblue" points="140.32,-29.35 144.6,-19.66 135.21,-24.56 140.32,-29.35"/>
</g>
<!-- Node39&#45;&gt;Node40 -->
<g id="edge45" class="edge">
<title>Node39&#45;&gt;Node40</title>
<path fill="none" stroke="midnightblue" d="M125.07,-295.09C248.76,-285.38 524.7,-263.72 665.02,-252.71"/>
<polygon fill="midnightblue" stroke="midnightblue" points="665.6,-256.17 675.29,-251.9 665.05,-249.2 665.6,-256.17"/>
</g>
<!-- Node40&#45;&gt;Node3 -->
<g id="edge56" class="edge">
<title>Node40&#45;&gt;Node3</title>
<path fill="none" stroke="midnightblue" d="M675.26,-244.47C530.42,-244.1 231.74,-236.51 286.5,-179 319.42,-144.43 1010.83,-132.44 1243.71,-129.38"/>
<polygon fill="midnightblue" stroke="midnightblue" points="1243.83,-132.88 1253.79,-129.25 1243.74,-125.88 1243.83,-132.88"/>
</g>
<!-- Node40&#45;&gt;Node33 -->
<g id="edge57" class="edge">
<title>Node40&#45;&gt;Node33</title>
<path fill="none" stroke="midnightblue" d="M825.65,-237.49C940.86,-227.5 1160.71,-208.44 1283.99,-197.76"/>
<polygon fill="midnightblue" stroke="midnightblue" points="1284.5,-201.23 1294.16,-196.88 1283.89,-194.25 1284.5,-201.23"/>
</g>
<!-- Node41 -->
<g id="node41" class="node">
<title>Node41</title>
<g id="a_node41"><a xlink:title=" ">
<polygon fill="none" stroke="#bfbfbf" points="388,-179.5 388,-198.5 431,-198.5 431,-179.5 388,-179.5"/>
<text text-anchor="middle" x="409.5" y="-186.5" font-family="Helvetica,sans-Serif" font-size="10.00">fcntl.h</text>
</a>
</g>
</g>
<!-- Node40&#45;&gt;Node41 -->
<g id="edge46" class="edge">
<title>Node40&#45;&gt;Node41</title>
<path fill="none" stroke="midnightblue" d="M675.44,-236.05C614.68,-228.94 526.78,-217.13 440.99,-198.83"/>
<polygon fill="midnightblue" stroke="midnightblue" points="441.6,-195.38 431.08,-196.68 440.12,-202.22 441.6,-195.38"/>
</g>
<!-- Node42 -->
<g id="node42" class="node">
<title>Node42</title>
<g id="a_node42"><a xlink:title=" ">
<polygon fill="none" stroke="#bfbfbf" points="449,-179.5 449,-198.5 498,-198.5 498,-179.5 449,-179.5"/>
<text text-anchor="middle" x="473.5" y="-186.5" font-family="Helvetica,sans-Serif" font-size="10.00">netdb.h</text>
</a>
</g>
</g>
<!-- Node40&#45;&gt;Node42 -->
<g id="edge47" class="edge">
<title>Node40&#45;&gt;Node42</title>
<path fill="none" stroke="midnightblue" d="M698.13,-235.48C650.97,-227.54 579.57,-214.87 508.37,-199.06"/>
<polygon fill="midnightblue" stroke="midnightblue" points="508.85,-195.58 498.33,-196.8 507.32,-202.41 508.85,-195.58"/>
</g>
<!-- Node43 -->
<g id="node43" class="node">
<title>Node43</title>
<g id="a_node43"><a xlink:title=" ">
<polygon fill="none" stroke="#bfbfbf" points="516,-179.5 516,-198.5 581,-198.5 581,-179.5 516,-179.5"/>
<text text-anchor="middle" x="548.5" y="-186.5" font-family="Helvetica,sans-Serif" font-size="10.00">netinet/in.h</text>
</a>
</g>
</g>
<!-- Node40&#45;&gt;Node43 -->
<g id="edge48" class="edge">
<title>Node40&#45;&gt;Node43</title>
<path fill="none" stroke="midnightblue" d="M718.49,-235.44C683.77,-226.16 628.21,-211.31 590.12,-201.13"/>
<polygon fill="midnightblue" stroke="midnightblue" points="590.92,-197.72 580.36,-198.52 589.11,-204.48 590.92,-197.72"/>
</g>
<!-- Node44 -->
<g id="node44" class="node">
<title>Node44</title>
<g id="a_node44"><a xlink:title=" ">
<polygon fill="none" stroke="#bfbfbf" points="599,-179.5 599,-198.5 670,-198.5 670,-179.5 599,-179.5"/>
<text text-anchor="middle" x="634.5" y="-186.5" font-family="Helvetica,sans-Serif" font-size="10.00">netinet/tcp.h</text>
</a>
</g>
</g>
<!-- Node40&#45;&gt;Node44 -->
<g id="edge49" class="edge">
<title>Node40&#45;&gt;Node44</title>
<path fill="none" stroke="midnightblue" d="M732.12,-235.44C713.28,-226.68 683.77,-212.94 662.12,-202.86"/>
<polygon fill="midnightblue" stroke="midnightblue" points="663.34,-199.56 652.79,-198.52 660.38,-205.91 663.34,-199.56"/>
</g>
<!-- Node45 -->
<g id="node45" class="node">
<title>Node45</title>
<g id="a_node45"><a xlink:title=" ">
<polygon fill="none" stroke="#bfbfbf" points="688,-179.5 688,-198.5 737,-198.5 737,-179.5 688,-179.5"/>
<text text-anchor="middle" x="712.5" y="-186.5" font-family="Helvetica,sans-Serif" font-size="10.00">stdint.h</text>
</a>
</g>
</g>
<!-- Node40&#45;&gt;Node45 -->
<g id="edge50" class="edge">
<title>Node40&#45;&gt;Node45</title>
<path fill="none" stroke="midnightblue" d="M744.23,-235.08C738.86,-227.46 730.98,-216.26 724.42,-206.94"/>
<polygon fill="midnightblue" stroke="midnightblue" points="727.28,-204.91 718.66,-198.75 721.55,-208.94 727.28,-204.91"/>
</g>
<!-- Node46 -->
<g id="node46" class="node">
<title>Node46</title>
<g id="a_node46"><a xlink:title=" ">
<polygon fill="none" stroke="#bfbfbf" points="755.5,-179.5 755.5,-198.5 819.5,-198.5 819.5,-179.5 755.5,-179.5"/>
<text text-anchor="middle" x="787.5" y="-186.5" font-family="Helvetica,sans-Serif" font-size="10.00">sys/epoll.h</text>
</a>
</g>
</g>
<!-- Node40&#45;&gt;Node46 -->
<g id="edge51" class="edge">
<title>Node40&#45;&gt;Node46</title>
<path fill="none" stroke="midnightblue" d="M756.61,-235.08C761.78,-227.53 769.35,-216.49 775.69,-207.23"/>
<polygon fill="midnightblue" stroke="midnightblue" points="778.74,-208.98 781.5,-198.75 772.96,-205.02 778.74,-208.98"/>
</g>
<!-- Node47 -->
<g id="node47" class="node">
<title>Node47</title>
<g id="a_node47"><a xlink:title=" ">
<polygon fill="none" stroke="#bfbfbf" points="837.5,-179.5 837.5,-198.5 899.5,-198.5 899.5,-179.5 837.5,-179.5"/>
<text text-anchor="middle" x="868.5" y="-186.5" font-family="Helvetica,sans-Serif" font-size="10.00">arpa/inet.h</text>
</a>
</g>
</g>
<!-- Node40&#45;&gt;Node47 -->
<g id="edge52" class="edge">
<title>Node40&#45;&gt;Node47</title>
<path fill="none" stroke="midnightblue" d="M769.2,-235.44C788.44,-226.64 818.65,-212.81 840.7,-202.72"/>
<polygon fill="midnightblue" stroke="midnightblue" points="842.25,-205.86 849.89,-198.52 839.34,-199.5 842.25,-205.86"/>
</g>
<!-- Node48 -->
<g id="node48" class="node">
<title>Node48</title>
<g id="a_node48"><a xlink:title=" ">
<polygon fill="none" stroke="#bfbfbf" points="918,-179.5 918,-198.5 991,-198.5 991,-179.5 918,-179.5"/>
<text text-anchor="middle" x="954.5" y="-186.5" font-family="Helvetica,sans-Serif" font-size="10.00">sys/socket.h</text>
</a>
</g>
</g>
<!-- Node40&#45;&gt;Node48 -->
<g id="edge53" class="edge">
<title>Node40&#45;&gt;Node48</title>
<path fill="none" stroke="midnightblue" d="M782.82,-235.44C817.89,-226.16 874,-211.31 912.46,-201.13"/>
<polygon fill="midnightblue" stroke="midnightblue" points="913.56,-204.46 922.33,-198.52 911.76,-197.69 913.56,-204.46"/>
</g>
<!-- Node49 -->
<g id="node49" class="node">
<title>Node49</title>
<g id="a_node49"><a xlink:title=" ">
<polygon fill="none" stroke="#bfbfbf" points="1009.5,-179.5 1009.5,-198.5 1077.5,-198.5 1077.5,-179.5 1009.5,-179.5"/>
<text text-anchor="middle" x="1043.5" y="-186.5" font-family="Helvetica,sans-Serif" font-size="10.00">sys/types.h</text>
</a>
</g>
</g>
<!-- Node40&#45;&gt;Node49 -->
<g id="edge54" class="edge">
<title>Node40&#45;&gt;Node49</title>
<path fill="none" stroke="midnightblue" d="M800.38,-235.45C848.73,-227.06 924.39,-213.69 999.18,-199.22"/>
<polygon fill="midnightblue" stroke="midnightblue" points="1000.1,-202.6 1009.25,-197.26 998.77,-195.73 1000.1,-202.6"/>
</g>
<!-- Node50 -->
<g id="node50" class="node">
<title>Node50</title>
<g id="a_node50"><a xlink:title=" ">
<polygon fill="none" stroke="#bfbfbf" points="1096,-179.5 1096,-198.5 1147,-198.5 1147,-179.5 1096,-179.5"/>
<text text-anchor="middle" x="1121.5" y="-186.5" font-family="Helvetica,sans-Serif" font-size="10.00">unistd.h</text>
</a>
</g>
</g>
<!-- Node40&#45;&gt;Node50 -->
<g id="edge55" class="edge">
<title>Node40&#45;&gt;Node50</title>
<path fill="none" stroke="midnightblue" d="M825.65,-236.52C891.75,-229.34 990.7,-217.17 1086.15,-198.85"/>
<polygon fill="midnightblue" stroke="midnightblue" points="1086.82,-202.28 1095.97,-196.94 1085.48,-195.41 1086.82,-202.28"/>
</g>
<!-- Node51 -->
<g id="node51" class="node">
<title>Node51</title>
<g id="a_node51"><a xlink:title=" ">
<polygon fill="none" stroke="#bfbfbf" points="1165,-179.5 1165,-198.5 1238,-198.5 1238,-179.5 1165,-179.5"/>
<text text-anchor="middle" x="1201.5" y="-186.5" font-family="Helvetica,sans-Serif" font-size="10.00">openssl/err.h</text>
</a>
</g>
</g>
<!-- Node40&#45;&gt;Node51 -->
<g id="edge58" class="edge">
<title>Node40&#45;&gt;Node51</title>
<path fill="none" stroke="midnightblue" d="M825.59,-237.65C905.04,-230.48 1034.26,-217.56 1154.58,-199.19"/>
<polygon fill="midnightblue" stroke="midnightblue" points="1155.36,-202.61 1164.71,-197.63 1154.29,-195.69 1155.36,-202.61"/>
</g>
<!-- Node52 -->
<g id="node52" class="node">
<title>Node52</title>
<g id="a_node52"><a xlink:title=" ">
<polygon fill="none" stroke="#bfbfbf" points="295.5,-179.5 295.5,-198.5 369.5,-198.5 369.5,-179.5 295.5,-179.5"/>
<text text-anchor="middle" x="332.5" y="-186.5" font-family="Helvetica,sans-Serif" font-size="10.00">openssl/ssl.h</text>
</a>
</g>
</g>
<!-- Node40&#45;&gt;Node52 -->
<g id="edge59" class="edge">
<title>Node40&#45;&gt;Node52</title>
<path fill="none" stroke="midnightblue" d="M675.33,-236.41C602.5,-228.71 488.73,-215.76 379.84,-198.95"/>
<polygon fill="midnightblue" stroke="midnightblue" points="380.08,-195.44 369.66,-197.36 379,-202.36 380.08,-195.44"/>
</g>
<!-- Node53&#45;&gt;Node3 -->
<g id="edge63" class="edge">
<title>Node53&#45;&gt;Node3</title>
<path fill="none" stroke="midnightblue" d="M1461.47,-403.28C1467.47,-384.82 1480.5,-340.37 1480.5,-302 1480.5,-302 1480.5,-302 1480.5,-244 1480.5,-213.9 1482.16,-200.88 1461.5,-179 1443.9,-160.36 1418.96,-148.59 1394.89,-141.16"/>
<polygon fill="midnightblue" stroke="midnightblue" points="1395.58,-137.72 1385.01,-138.33 1393.66,-144.45 1395.58,-137.72"/>
</g>
</g>
</svg>
