<?xml version="1.0" encoding="UTF-8" standalone="no"?>
<!DOCTYPE svg PUBLIC "-//W3C//DTD SVG 1.1//EN"
 "http://www.w3.org/Graphics/SVG/1.1/DTD/svg11.dtd">
<!-- Generated by graphviz version 2.43.0 (0)
 -->
<!-- Title: RoleEntities.cpp Pages: 1 -->
<svg width="2449pt" height="775pt"
 viewBox="0.00 0.00 2449.09 775.00" xmlns="http://www.w3.org/2000/svg" xmlns:xlink="http://www.w3.org/1999/xlink">
<g id="graph0" class="graph" transform="scale(1 1) rotate(0) translate(4 771)">
<title>RoleEntities.cpp</title>
<!-- Node1 -->
<g id="node1" class="node">
<title>Node1</title>
<g id="a_node1"><a xlink:title=" ">
<polygon fill="#bfbfbf" stroke="black" points="1869.59,-767 1774.59,-767 1774.59,-748 1869.59,-748 1869.59,-767"/>
<text text-anchor="middle" x="1822.09" y="-755" font-family="Helvetica,sans-Serif" font-size="10.00">RoleEntities.cpp</text>
</a>
</g>
</g>
<!-- Node2 -->
<g id="node2" class="node">
<title>Node2</title>
<g id="a_node2"><a xlink:href="../../dc/dce/a00740.html" target="_top" xlink:title=" ">
<polygon fill="none" stroke="black" points="1851.09,-712 1681.09,-712 1681.09,-693 1851.09,-693 1851.09,-712"/>
<text text-anchor="middle" x="1766.09" y="-700" font-family="Helvetica,sans-Serif" font-size="10.00">discordcoreapi/RoleEntities.hpp</text>
</a>
</g>
</g>
<!-- Node1&#45;&gt;Node2 -->
<g id="edge1" class="edge">
<title>Node1&#45;&gt;Node2</title>
<path fill="none" stroke="midnightblue" d="M1813.09,-747.98C1804.9,-740.23 1792.58,-728.58 1782.62,-719.14"/>
<polygon fill="midnightblue" stroke="midnightblue" points="1784.92,-716.5 1775.25,-712.17 1780.11,-721.59 1784.92,-716.5"/>
</g>
<!-- Node36 -->
<g id="node36" class="node">
<title>Node36</title>
<g id="a_node36"><a xlink:href="../../d0/db6/a00692.html" target="_top" xlink:title=" ">
<polygon fill="none" stroke="black" points="1579.09,-415 1417.09,-415 1417.09,-396 1579.09,-396 1579.09,-415"/>
<text text-anchor="middle" x="1498.09" y="-403" font-family="Helvetica,sans-Serif" font-size="10.00">discordcoreapi/CoRoutine.hpp</text>
</a>
</g>
</g>
<!-- Node1&#45;&gt;Node36 -->
<g id="edge69" class="edge">
<title>Node1&#45;&gt;Node36</title>
<path fill="none" stroke="midnightblue" d="M1832.86,-747.75C1853.17,-730.2 1895.09,-688.45 1895.09,-643 1895.09,-643 1895.09,-643 1895.09,-580.5 1895.09,-505.5 1654.42,-441.81 1547.86,-417.28"/>
<polygon fill="midnightblue" stroke="midnightblue" points="1548.5,-413.84 1537.97,-415.03 1546.95,-420.67 1548.5,-413.84"/>
</g>
<!-- Node3 -->
<g id="node3" class="node">
<title>Node3</title>
<g id="a_node3"><a xlink:href="../../d4/deb/a00710.html" target="_top" xlink:title=" ">
<polygon fill="none" stroke="black" points="1739.59,-140 1594.59,-140 1594.59,-110 1739.59,-110 1739.59,-140"/>
<text text-anchor="start" x="1602.59" y="-128" font-family="Helvetica,sans-Serif" font-size="10.00">discordcoreapi/Foundation</text>
<text text-anchor="middle" x="1667.09" y="-117" font-family="Helvetica,sans-Serif" font-size="10.00">Entities.hpp</text>
</a>
</g>
</g>
<!-- Node2&#45;&gt;Node3 -->
<g id="edge2" class="edge">
<title>Node2&#45;&gt;Node3</title>
<path fill="none" stroke="midnightblue" d="M1779.1,-692.71C1790.14,-684.63 1805.65,-671.69 1815.09,-657 1878.29,-558.69 1895.09,-523.37 1895.09,-406.5 1895.09,-406.5 1895.09,-406.5 1895.09,-239.5 1895.09,-172.42 1815.02,-144.98 1749.78,-133.76"/>
<polygon fill="midnightblue" stroke="midnightblue" points="1750.29,-130.3 1739.86,-132.16 1749.17,-137.21 1750.29,-130.3"/>
</g>
<!-- Node28 -->
<g id="node28" class="node">
<title>Node28</title>
<g id="a_node28"><a xlink:href="../../d2/d94/a00716.html" target="_top" xlink:title=" ">
<polygon fill="none" stroke="black" points="1806.59,-657 1649.59,-657 1649.59,-627 1806.59,-627 1806.59,-657"/>
<text text-anchor="start" x="1657.59" y="-645" font-family="Helvetica,sans-Serif" font-size="10.00">discordcoreapi/GuildMember</text>
<text text-anchor="middle" x="1728.09" y="-634" font-family="Helvetica,sans-Serif" font-size="10.00">Entities.hpp</text>
</a>
</g>
</g>
<!-- Node2&#45;&gt;Node28 -->
<g id="edge27" class="edge">
<title>Node2&#45;&gt;Node28</title>
<path fill="none" stroke="midnightblue" d="M1760.48,-692.87C1755.85,-685.74 1749.06,-675.28 1742.89,-665.79"/>
<polygon fill="midnightblue" stroke="midnightblue" points="1745.64,-663.59 1737.26,-657.11 1739.77,-667.41 1745.64,-663.59"/>
</g>
<!-- Node38 -->
<g id="node38" class="node">
<title>Node38</title>
<g id="a_node38"><a xlink:href="../../db/d7c/a00722.html" target="_top" xlink:title=" ">
<polygon fill="none" stroke="black" points="661.09,-305 523.09,-305 523.09,-286 661.09,-286 661.09,-305"/>
<text text-anchor="middle" x="592.09" y="-293" font-family="Helvetica,sans-Serif" font-size="10.00">discordcoreapi/Https.hpp</text>
</a>
</g>
</g>
<!-- Node2&#45;&gt;Node38 -->
<g id="edge68" class="edge">
<title>Node2&#45;&gt;Node38</title>
<path fill="none" stroke="midnightblue" d="M1680.86,-702.07C1404.99,-702.8 554.09,-695.88 554.09,-582.5 554.09,-582.5 554.09,-582.5 554.09,-404.5 554.09,-371.02 570.54,-334.84 581.79,-314.01"/>
<polygon fill="midnightblue" stroke="midnightblue" points="584.96,-315.53 586.81,-305.1 578.85,-312.1 584.96,-315.53"/>
</g>
<!-- Node4 -->
<g id="node4" class="node">
<title>Node4</title>
<g id="a_node4"><a xlink:href="../../d5/dae/a00767.html" target="_top" xlink:title=" ">
<polygon fill="none" stroke="black" points="1742.09,-74 1592.09,-74 1592.09,-55 1742.09,-55 1742.09,-74"/>
<text text-anchor="middle" x="1667.09" y="-62" font-family="Helvetica,sans-Serif" font-size="10.00">discordcoreapi/Utilities.hpp</text>
</a>
</g>
</g>
<!-- Node3&#45;&gt;Node4 -->
<g id="edge3" class="edge">
<title>Node3&#45;&gt;Node4</title>
<path fill="none" stroke="midnightblue" d="M1667.09,-109.84C1667.09,-102.21 1667.09,-92.7 1667.09,-84.45"/>
<polygon fill="midnightblue" stroke="midnightblue" points="1670.59,-84.27 1667.09,-74.27 1663.59,-84.27 1670.59,-84.27"/>
</g>
<!-- Node5 -->
<g id="node5" class="node">
<title>Node5</title>
<g id="a_node5"><a xlink:title=" ">
<polygon fill="none" stroke="#bfbfbf" points="650.59,-19 587.59,-19 587.59,0 650.59,0 650.59,-19"/>
<text text-anchor="middle" x="619.09" y="-7" font-family="Helvetica,sans-Serif" font-size="10.00">pthread.h</text>
</a>
</g>
</g>
<!-- Node4&#45;&gt;Node5 -->
<g id="edge4" class="edge">
<title>Node4&#45;&gt;Node5</title>
<path fill="none" stroke="midnightblue" d="M1591.9,-64.28C1425.63,-65.12 1014.23,-62.31 660.96,-18.86"/>
<polygon fill="midnightblue" stroke="midnightblue" points="661.15,-15.36 650.79,-17.6 660.28,-22.3 661.15,-15.36"/>
</g>
<!-- Node6 -->
<g id="node6" class="node">
<title>Node6</title>
<g id="a_node6"><a xlink:title=" ">
<polygon fill="none" stroke="#bfbfbf" points="737.09,-19 669.09,-19 669.09,0 737.09,0 737.09,-19"/>
<text text-anchor="middle" x="703.09" y="-7" font-family="Helvetica,sans-Serif" font-size="10.00">sys/time.h</text>
</a>
</g>
</g>
<!-- Node4&#45;&gt;Node6 -->
<g id="edge5" class="edge">
<title>Node4&#45;&gt;Node6</title>
<path fill="none" stroke="midnightblue" d="M1591.86,-63.6C1436.03,-62.99 1066.57,-57.34 747.66,-18.99"/>
<polygon fill="midnightblue" stroke="midnightblue" points="747.63,-15.46 737.28,-17.73 746.79,-22.41 747.63,-15.46"/>
</g>
<!-- Node7 -->
<g id="node7" class="node">
<title>Node7</title>
<g id="a_node7"><a xlink:title=" ">
<polygon fill="none" stroke="#bfbfbf" points="803.09,-19 755.09,-19 755.09,0 803.09,0 803.09,-19"/>
<text text-anchor="middle" x="779.09" y="-7" font-family="Helvetica,sans-Serif" font-size="10.00">time.h</text>
</a>
</g>
</g>
<!-- Node4&#45;&gt;Node7 -->
<g id="edge6" class="edge">
<title>Node4&#45;&gt;Node7</title>
<path fill="none" stroke="midnightblue" d="M1591.83,-61.52C1415.7,-56.56 979.68,-42.46 813.22,-18.78"/>
<polygon fill="midnightblue" stroke="midnightblue" points="813.53,-15.29 803.13,-17.28 812.5,-22.21 813.53,-15.29"/>
</g>
<!-- Node8 -->
<g id="node8" class="node">
<title>Node8</title>
<g id="a_node8"><a xlink:title=" ">
<polygon fill="none" stroke="#bfbfbf" points="865.09,-19 821.09,-19 821.09,0 865.09,0 865.09,-19"/>
<text text-anchor="middle" x="843.09" y="-7" font-family="Helvetica,sans-Serif" font-size="10.00">ctime</text>
</a>
</g>
</g>
<!-- Node4&#45;&gt;Node8 -->
<g id="edge7" class="edge">
<title>Node4&#45;&gt;Node8</title>
<path fill="none" stroke="midnightblue" d="M1591.95,-61.31C1425.54,-56.15 1029.19,-41.99 875.52,-18.81"/>
<polygon fill="midnightblue" stroke="midnightblue" points="875.74,-15.3 865.32,-17.2 874.65,-22.22 875.74,-15.3"/>
</g>
<!-- Node9 -->
<g id="node9" class="node">
<title>Node9</title>
<g id="a_node9"><a xlink:title=" ">
<polygon fill="none" stroke="#bfbfbf" points="990.59,-19 883.59,-19 883.59,0 990.59,0 990.59,-19"/>
<text text-anchor="middle" x="937.09" y="-7" font-family="Helvetica,sans-Serif" font-size="10.00">condition_variable</text>
</a>
</g>
</g>
<!-- Node4&#45;&gt;Node9 -->
<g id="edge8" class="edge">
<title>Node4&#45;&gt;Node9</title>
<path fill="none" stroke="midnightblue" d="M1591.93,-60.14C1470.15,-54.34 1221.95,-40.98 1000.85,-19"/>
<polygon fill="midnightblue" stroke="midnightblue" points="1000.98,-15.5 990.68,-17.98 1000.28,-22.46 1000.98,-15.5"/>
</g>
<!-- Node10 -->
<g id="node10" class="node">
<title>Node10</title>
<g id="a_node10"><a xlink:title=" ">
<polygon fill="none" stroke="#bfbfbf" points="1119.09,-19 1009.09,-19 1009.09,0 1119.09,0 1119.09,-19"/>
<text text-anchor="middle" x="1064.09" y="-7" font-family="Helvetica,sans-Serif" font-size="10.00">nlohmann/json.hpp</text>
</a>
</g>
</g>
<!-- Node4&#45;&gt;Node10 -->
<g id="edge9" class="edge">
<title>Node4&#45;&gt;Node10</title>
<path fill="none" stroke="midnightblue" d="M1591.99,-58.48C1489.72,-51.39 1300.7,-37.33 1129.19,-19.07"/>
<polygon fill="midnightblue" stroke="midnightblue" points="1129.54,-15.59 1119.23,-18 1128.8,-22.55 1129.54,-15.59"/>
</g>
<!-- Node11 -->
<g id="node11" class="node">
<title>Node11</title>
<g id="a_node11"><a xlink:title=" ">
<polygon fill="none" stroke="#bfbfbf" points="1230.59,-19 1137.59,-19 1137.59,0 1230.59,0 1230.59,-19"/>
<text text-anchor="middle" x="1184.09" y="-7" font-family="Helvetica,sans-Serif" font-size="10.00">source_location</text>
</a>
</g>
</g>
<!-- Node4&#45;&gt;Node11 -->
<g id="edge10" class="edge">
<title>Node4&#45;&gt;Node11</title>
<path fill="none" stroke="midnightblue" d="M1591.96,-56.83C1508.57,-49.17 1369.72,-35.64 1240.92,-19.18"/>
<polygon fill="midnightblue" stroke="midnightblue" points="1241.24,-15.7 1230.88,-17.89 1240.35,-22.64 1241.24,-15.7"/>
</g>
<!-- Node12 -->
<g id="node12" class="node">
<title>Node12</title>
<g id="a_node12"><a xlink:title=" ">
<polygon fill="none" stroke="#bfbfbf" points="1341.59,-19 1248.59,-19 1248.59,0 1341.59,0 1341.59,-19"/>
<text text-anchor="middle" x="1295.09" y="-7" font-family="Helvetica,sans-Serif" font-size="10.00">unordered_map</text>
</a>
</g>
</g>
<!-- Node4&#45;&gt;Node12 -->
<g id="edge11" class="edge">
<title>Node4&#45;&gt;Node12</title>
<path fill="none" stroke="midnightblue" d="M1605.3,-55C1543.76,-46.49 1446.29,-32.88 1351.85,-19.1"/>
<polygon fill="midnightblue" stroke="midnightblue" points="1352.24,-15.62 1341.84,-17.63 1351.22,-22.54 1352.24,-15.62"/>
</g>
<!-- Node13 -->
<g id="node13" class="node">
<title>Node13</title>
<g id="a_node13"><a xlink:title=" ">
<polygon fill="none" stroke="#bfbfbf" points="1446.09,-19 1360.09,-19 1360.09,0 1446.09,0 1446.09,-19"/>
<text text-anchor="middle" x="1403.09" y="-7" font-family="Helvetica,sans-Serif" font-size="10.00">shared_mutex</text>
</a>
</g>
</g>
<!-- Node4&#45;&gt;Node13 -->
<g id="edge12" class="edge">
<title>Node4&#45;&gt;Node13</title>
<path fill="none" stroke="midnightblue" d="M1624.67,-54.98C1578.72,-45.76 1505.34,-31.03 1455.74,-21.07"/>
<polygon fill="midnightblue" stroke="midnightblue" points="1456.33,-17.62 1445.84,-19.08 1454.95,-24.48 1456.33,-17.62"/>
</g>
<!-- Node14 -->
<g id="node14" class="node">
<title>Node14</title>
<g id="a_node14"><a xlink:title=" ">
<polygon fill="none" stroke="#bfbfbf" points="1529.59,-19 1464.59,-19 1464.59,0 1529.59,0 1529.59,-19"/>
<text text-anchor="middle" x="1497.09" y="-7" font-family="Helvetica,sans-Serif" font-size="10.00">functional</text>
</a>
</g>
</g>
<!-- Node4&#45;&gt;Node14 -->
<g id="edge13" class="edge">
<title>Node4&#45;&gt;Node14</title>
<path fill="none" stroke="midnightblue" d="M1639.78,-54.98C1611.24,-46.09 1566.26,-32.07 1534.45,-22.15"/>
<polygon fill="midnightblue" stroke="midnightblue" points="1535.21,-18.72 1524.62,-19.08 1533.12,-25.4 1535.21,-18.72"/>
</g>
<!-- Node15 -->
<g id="node15" class="node">
<title>Node15</title>
<g id="a_node15"><a xlink:title=" ">
<polygon fill="none" stroke="#bfbfbf" points="1618.59,-19 1547.59,-19 1547.59,0 1618.59,0 1618.59,-19"/>
<text text-anchor="middle" x="1583.09" y="-7" font-family="Helvetica,sans-Serif" font-size="10.00">semaphore</text>
</a>
</g>
</g>
<!-- Node4&#45;&gt;Node15 -->
<g id="edge14" class="edge">
<title>Node4&#45;&gt;Node15</title>
<path fill="none" stroke="midnightblue" d="M1653.59,-54.98C1640.69,-46.84 1620.99,-34.41 1605.69,-24.76"/>
<polygon fill="midnightblue" stroke="midnightblue" points="1607.16,-21.55 1596.83,-19.17 1603.42,-27.47 1607.16,-21.55"/>
</g>
<!-- Node16 -->
<g id="node16" class="node">
<title>Node16</title>
<g id="a_node16"><a xlink:title=" ">
<polygon fill="none" stroke="#bfbfbf" points="1697.09,-19 1637.09,-19 1637.09,0 1697.09,0 1697.09,-19"/>
<text text-anchor="middle" x="1667.09" y="-7" font-family="Helvetica,sans-Serif" font-size="10.00">concepts</text>
</a>
</g>
</g>
<!-- Node4&#45;&gt;Node16 -->
<g id="edge15" class="edge">
<title>Node4&#45;&gt;Node16</title>
<path fill="none" stroke="midnightblue" d="M1667.09,-54.75C1667.09,-47.8 1667.09,-37.85 1667.09,-29.13"/>
<polygon fill="midnightblue" stroke="midnightblue" points="1670.59,-29.09 1667.09,-19.09 1663.59,-29.09 1670.59,-29.09"/>
</g>
<!-- Node17 -->
<g id="node17" class="node">
<title>Node17</title>
<g id="a_node17"><a xlink:title=" ">
<polygon fill="none" stroke="#bfbfbf" points="1775.09,-19 1715.09,-19 1715.09,0 1775.09,0 1775.09,-19"/>
<text text-anchor="middle" x="1745.09" y="-7" font-family="Helvetica,sans-Serif" font-size="10.00">iostream</text>
</a>
</g>
</g>
<!-- Node4&#45;&gt;Node17 -->
<g id="edge16" class="edge">
<title>Node4&#45;&gt;Node17</title>
<path fill="none" stroke="midnightblue" d="M1679.62,-54.98C1691.49,-46.92 1709.55,-34.65 1723.7,-25.03"/>
<polygon fill="midnightblue" stroke="midnightblue" points="1726.03,-27.69 1732.33,-19.17 1722.09,-21.9 1726.03,-27.69"/>
</g>
<!-- Node18 -->
<g id="node18" class="node">
<title>Node18</title>
<g id="a_node18"><a xlink:title=" ">
<polygon fill="none" stroke="#bfbfbf" points="1848.59,-19 1793.59,-19 1793.59,0 1848.59,0 1848.59,-19"/>
<text text-anchor="middle" x="1821.09" y="-7" font-family="Helvetica,sans-Serif" font-size="10.00">fstream</text>
</a>
</g>
</g>
<!-- Node4&#45;&gt;Node18 -->
<g id="edge17" class="edge">
<title>Node4&#45;&gt;Node18</title>
<path fill="none" stroke="midnightblue" d="M1691.83,-54.98C1717.46,-46.16 1757.72,-32.31 1786.5,-22.41"/>
<polygon fill="midnightblue" stroke="midnightblue" points="1787.84,-25.65 1796.15,-19.08 1785.56,-19.03 1787.84,-25.65"/>
</g>
<!-- Node19 -->
<g id="node19" class="node">
<title>Node19</title>
<g id="a_node19"><a xlink:title=" ">
<polygon fill="none" stroke="#bfbfbf" points="1911.09,-19 1867.09,-19 1867.09,0 1911.09,0 1911.09,-19"/>
<text text-anchor="middle" x="1889.09" y="-7" font-family="Helvetica,sans-Serif" font-size="10.00">bitset</text>
</a>
</g>
</g>
<!-- Node4&#45;&gt;Node19 -->
<g id="edge18" class="edge">
<title>Node4&#45;&gt;Node19</title>
<path fill="none" stroke="midnightblue" d="M1705.02,-54.96C1743.43,-46.24 1804.5,-32.14 1857.09,-19 1857.19,-18.97 1857.29,-18.95 1857.39,-18.92"/>
<polygon fill="midnightblue" stroke="midnightblue" points="1858.26,-22.31 1867.08,-16.44 1856.52,-15.53 1858.26,-22.31"/>
</g>
<!-- Node20 -->
<g id="node20" class="node">
<title>Node20</title>
<g id="a_node20"><a xlink:title=" ">
<polygon fill="none" stroke="#bfbfbf" points="1987.09,-19 1929.09,-19 1929.09,0 1987.09,0 1987.09,-19"/>
<text text-anchor="middle" x="1958.09" y="-7" font-family="Helvetica,sans-Serif" font-size="10.00">memory</text>
</a>
</g>
</g>
<!-- Node4&#45;&gt;Node20 -->
<g id="edge19" class="edge">
<title>Node4&#45;&gt;Node20</title>
<path fill="none" stroke="midnightblue" d="M1719.55,-55C1768.61,-46.88 1844.15,-33.97 1919,-19.14"/>
<polygon fill="midnightblue" stroke="midnightblue" points="1919.95,-22.52 1929.07,-17.13 1918.58,-15.66 1919.95,-22.52"/>
</g>
<!-- Node21 -->
<g id="node21" class="node">
<title>Node21</title>
<g id="a_node21"><a xlink:title=" ">
<polygon fill="none" stroke="#bfbfbf" points="2059.09,-19 2005.09,-19 2005.09,0 2059.09,0 2059.09,-19"/>
<text text-anchor="middle" x="2032.09" y="-7" font-family="Helvetica,sans-Serif" font-size="10.00">random</text>
</a>
</g>
</g>
<!-- Node4&#45;&gt;Node21 -->
<g id="edge20" class="edge">
<title>Node4&#45;&gt;Node21</title>
<path fill="none" stroke="midnightblue" d="M1742.23,-55.45C1806.77,-48.05 1902.5,-35.92 1994.93,-19.05"/>
<polygon fill="midnightblue" stroke="midnightblue" points="1995.83,-22.45 2005.02,-17.19 1994.55,-15.56 1995.83,-22.45"/>
</g>
<!-- Node22 -->
<g id="node22" class="node">
<title>Node22</title>
<g id="a_node22"><a xlink:title=" ">
<polygon fill="none" stroke="#bfbfbf" points="2121.09,-19 2077.09,-19 2077.09,0 2121.09,0 2121.09,-19"/>
<text text-anchor="middle" x="2099.09" y="-7" font-family="Helvetica,sans-Serif" font-size="10.00">string</text>
</a>
</g>
</g>
<!-- Node4&#45;&gt;Node22 -->
<g id="edge21" class="edge">
<title>Node4&#45;&gt;Node22</title>
<path fill="none" stroke="midnightblue" d="M1742.26,-58.7C1821.02,-52.87 1948.41,-41.19 2066.87,-18.95"/>
<polygon fill="midnightblue" stroke="midnightblue" points="2067.67,-22.36 2076.84,-17.05 2066.36,-15.49 2067.67,-22.36"/>
</g>
<!-- Node23 -->
<g id="node23" class="node">
<title>Node23</title>
<g id="a_node23"><a xlink:title=" ">
<polygon fill="none" stroke="#bfbfbf" points="2186.59,-19 2139.59,-19 2139.59,0 2186.59,0 2186.59,-19"/>
<text text-anchor="middle" x="2163.09" y="-7" font-family="Helvetica,sans-Serif" font-size="10.00">vector</text>
</a>
</g>
</g>
<!-- Node4&#45;&gt;Node23 -->
<g id="edge22" class="edge">
<title>Node4&#45;&gt;Node23</title>
<path fill="none" stroke="midnightblue" d="M1742.15,-59.9C1831.98,-54.78 1987.01,-43.38 2129.18,-18.86"/>
<polygon fill="midnightblue" stroke="midnightblue" points="2130.15,-22.25 2139.39,-17.08 2128.94,-15.35 2130.15,-22.25"/>
</g>
<!-- Node24 -->
<g id="node24" class="node">
<title>Node24</title>
<g id="a_node24"><a xlink:title=" ">
<polygon fill="none" stroke="#bfbfbf" points="2253.09,-19 2205.09,-19 2205.09,0 2253.09,0 2253.09,-19"/>
<text text-anchor="middle" x="2229.09" y="-7" font-family="Helvetica,sans-Serif" font-size="10.00">thread</text>
</a>
</g>
</g>
<!-- Node4&#45;&gt;Node24 -->
<g id="edge23" class="edge">
<title>Node4&#45;&gt;Node24</title>
<path fill="none" stroke="midnightblue" d="M1742.32,-60.97C1845.16,-56.64 2035.14,-45.56 2195.09,-19 2195.19,-18.98 2195.29,-18.97 2195.39,-18.95"/>
<polygon fill="midnightblue" stroke="midnightblue" points="2195.92,-22.41 2205.04,-17.02 2194.55,-15.55 2195.92,-22.41"/>
</g>
<!-- Node25 -->
<g id="node25" class="node">
<title>Node25</title>
<g id="a_node25"><a xlink:title=" ">
<polygon fill="none" stroke="#bfbfbf" points="2319.09,-19 2271.09,-19 2271.09,0 2319.09,0 2319.09,-19"/>
<text text-anchor="middle" x="2295.09" y="-7" font-family="Helvetica,sans-Serif" font-size="10.00">mutex</text>
</a>
</g>
</g>
<!-- Node4&#45;&gt;Node25 -->
<g id="edge24" class="edge">
<title>Node4&#45;&gt;Node25</title>
<path fill="none" stroke="midnightblue" d="M1742.27,-62.14C1853.71,-59.19 2069.31,-49.86 2261.07,-18.86"/>
<polygon fill="midnightblue" stroke="midnightblue" points="2261.74,-22.29 2271.04,-17.22 2260.61,-15.38 2261.74,-22.29"/>
</g>
<!-- Node26 -->
<g id="node26" class="node">
<title>Node26</title>
<g id="a_node26"><a xlink:title=" ">
<polygon fill="none" stroke="#bfbfbf" points="2384.59,-19 2337.59,-19 2337.59,0 2384.59,0 2384.59,-19"/>
<text text-anchor="middle" x="2361.09" y="-7" font-family="Helvetica,sans-Serif" font-size="10.00">queue</text>
</a>
</g>
</g>
<!-- Node4&#45;&gt;Node26 -->
<g id="edge25" class="edge">
<title>Node4&#45;&gt;Node26</title>
<path fill="none" stroke="midnightblue" d="M1742.44,-62.94C1863.82,-61.05 2110.13,-53.12 2327.41,-18.76"/>
<polygon fill="midnightblue" stroke="midnightblue" points="2328.09,-22.2 2337.41,-17.16 2326.98,-15.29 2328.09,-22.2"/>
</g>
<!-- Node27 -->
<g id="node27" class="node">
<title>Node27</title>
<g id="a_node27"><a xlink:title=" ">
<polygon fill="none" stroke="#bfbfbf" points="2441.09,-19 2403.09,-19 2403.09,0 2441.09,0 2441.09,-19"/>
<text text-anchor="middle" x="2422.09" y="-7" font-family="Helvetica,sans-Serif" font-size="10.00">map</text>
</a>
</g>
</g>
<!-- Node4&#45;&gt;Node27 -->
<g id="edge26" class="edge">
<title>Node4&#45;&gt;Node27</title>
<path fill="none" stroke="midnightblue" d="M1742.25,-61.13C1898.07,-55.85 2252.77,-41.9 2392.85,-18.71"/>
<polygon fill="midnightblue" stroke="midnightblue" points="2393.7,-22.12 2402.96,-16.95 2392.5,-15.22 2393.7,-22.12"/>
</g>
<!-- Node28&#45;&gt;Node3 -->
<g id="edge28" class="edge">
<title>Node28&#45;&gt;Node3</title>
<path fill="none" stroke="midnightblue" d="M1756.59,-626.97C1771.24,-618.43 1788.23,-606.22 1799.09,-591 1817.63,-565.01 1819.09,-553.93 1819.09,-522 1819.09,-522 1819.09,-522 1819.09,-239.5 1819.09,-190.97 1768.73,-160.7 1725.98,-143.75"/>
<polygon fill="midnightblue" stroke="midnightblue" points="1727.03,-140.41 1716.44,-140.13 1724.55,-146.95 1727.03,-140.41"/>
</g>
<!-- Node29 -->
<g id="node29" class="node">
<title>Node29</title>
<g id="a_node29"><a xlink:href="../../d3/d2c/a00764.html" target="_top" xlink:title=" ">
<polygon fill="none" stroke="black" points="1790.59,-591 1619.59,-591 1619.59,-572 1790.59,-572 1790.59,-591"/>
<text text-anchor="middle" x="1705.09" y="-579" font-family="Helvetica,sans-Serif" font-size="10.00">discordcoreapi/UserEntities.hpp</text>
</a>
</g>
</g>
<!-- Node28&#45;&gt;Node29 -->
<g id="edge29" class="edge">
<title>Node28&#45;&gt;Node29</title>
<path fill="none" stroke="midnightblue" d="M1722.52,-626.84C1719.42,-618.95 1715.53,-609.05 1712.21,-600.61"/>
<polygon fill="midnightblue" stroke="midnightblue" points="1715.45,-599.29 1708.54,-591.27 1708.94,-601.85 1715.45,-599.29"/>
</g>
<!-- Node28&#45;&gt;Node38 -->
<g id="edge67" class="edge">
<title>Node28&#45;&gt;Node38</title>
<path fill="none" stroke="midnightblue" d="M1649.56,-641.02C1392.42,-640.06 592.09,-628.53 592.09,-522 592.09,-522 592.09,-522 592.09,-404.5 592.09,-373.19 592.09,-336.77 592.09,-315.23"/>
<polygon fill="midnightblue" stroke="midnightblue" points="595.59,-315.18 592.09,-305.18 588.59,-315.18 595.59,-315.18"/>
</g>
<!-- Node29&#45;&gt;Node3 -->
<g id="edge30" class="edge">
<title>Node29&#45;&gt;Node3</title>
<path fill="none" stroke="midnightblue" d="M1715.66,-571.87C1736.54,-553.78 1781.09,-509.55 1781.09,-461.5 1781.09,-461.5 1781.09,-461.5 1781.09,-239.5 1781.09,-196.36 1739.58,-163.95 1706.66,-145.04"/>
<polygon fill="midnightblue" stroke="midnightblue" points="1708.09,-141.83 1697.64,-140.06 1704.7,-147.96 1708.09,-141.83"/>
</g>
<!-- Node30 -->
<g id="node30" class="node">
<title>Node30</title>
<g id="a_node30"><a xlink:href="../../d9/dd4/a00776.html" target="_top" xlink:title=" ">
<polygon fill="none" stroke="black" points="1393.09,-536 1249.09,-536 1249.09,-506 1393.09,-506 1393.09,-536"/>
<text text-anchor="start" x="1257.09" y="-524" font-family="Helvetica,sans-Serif" font-size="10.00">discordcoreapi/WebSocket</text>
<text text-anchor="middle" x="1321.09" y="-513" font-family="Helvetica,sans-Serif" font-size="10.00">Entities.hpp</text>
</a>
</g>
</g>
<!-- Node29&#45;&gt;Node30 -->
<g id="edge31" class="edge">
<title>Node29&#45;&gt;Node30</title>
<path fill="none" stroke="midnightblue" d="M1649.25,-571.99C1584.69,-562.16 1477.79,-545.87 1403.63,-534.57"/>
<polygon fill="midnightblue" stroke="midnightblue" points="1403.8,-531.06 1393.39,-533.01 1402.75,-537.98 1403.8,-531.06"/>
</g>
<!-- Node30&#45;&gt;Node3 -->
<g id="edge32" class="edge">
<title>Node30&#45;&gt;Node3</title>
<path fill="none" stroke="midnightblue" d="M1249.04,-513.28C951.12,-484.2 -160.53,-362.19 20.09,-176 47.58,-147.66 1253.43,-131 1584.03,-126.97"/>
<polygon fill="midnightblue" stroke="midnightblue" points="1584.53,-130.46 1594.49,-126.84 1584.45,-123.46 1584.53,-130.46"/>
</g>
<!-- Node31 -->
<g id="node31" class="node">
<title>Node31</title>
<g id="a_node31"><a xlink:href="../../d4/d9b/a00680.html" target="_top" xlink:title=" ">
<polygon fill="none" stroke="black" points="1391.59,-250 1212.59,-250 1212.59,-231 1391.59,-231 1391.59,-250"/>
<text text-anchor="middle" x="1302.09" y="-238" font-family="Helvetica,sans-Serif" font-size="10.00">discordcoreapi/AudioDecoder.hpp</text>
</a>
</g>
</g>
<!-- Node30&#45;&gt;Node31 -->
<g id="edge33" class="edge">
<title>Node30&#45;&gt;Node31</title>
<path fill="none" stroke="midnightblue" d="M1317.15,-505.79C1311.59,-484.43 1302.09,-442.66 1302.09,-406.5 1302.09,-406.5 1302.09,-406.5 1302.09,-349.5 1302.09,-318.19 1302.09,-281.77 1302.09,-260.23"/>
<polygon fill="midnightblue" stroke="midnightblue" points="1305.59,-260.18 1302.09,-250.18 1298.59,-260.18 1305.59,-260.18"/>
</g>
<!-- Node32 -->
<g id="node32" class="node">
<title>Node32</title>
<g id="a_node32"><a xlink:href="../../d4/d6a/a00704.html" target="_top" xlink:title=" ">
<polygon fill="none" stroke="black" points="1237.09,-195 1061.09,-195 1061.09,-176 1237.09,-176 1237.09,-195"/>
<text text-anchor="middle" x="1149.09" y="-183" font-family="Helvetica,sans-Serif" font-size="10.00">discordcoreapi/EventEntities.hpp</text>
</a>
</g>
</g>
<!-- Node30&#45;&gt;Node32 -->
<g id="edge64" class="edge">
<title>Node30&#45;&gt;Node32</title>
<path fill="none" stroke="midnightblue" d="M1266.92,-505.89C1220.5,-490.15 1161.09,-459.63 1161.09,-406.5 1161.09,-406.5 1161.09,-406.5 1161.09,-294.5 1161.09,-263 1155.98,-226.64 1152.43,-205.16"/>
<polygon fill="midnightblue" stroke="midnightblue" points="1155.85,-204.4 1150.71,-195.14 1148.96,-205.59 1155.85,-204.4"/>
</g>
<!-- Node35 -->
<g id="node35" class="node">
<title>Node35</title>
<g id="a_node35"><a xlink:href="../../d5/d5b/a00695.html" target="_top" xlink:title=" ">
<polygon fill="none" stroke="black" points="1577.59,-470 1368.59,-470 1368.59,-451 1577.59,-451 1577.59,-470"/>
<text text-anchor="middle" x="1473.09" y="-458" font-family="Helvetica,sans-Serif" font-size="10.00">discordcoreapi/CommandController.hpp</text>
</a>
</g>
</g>
<!-- Node30&#45;&gt;Node35 -->
<g id="edge39" class="edge">
<title>Node30&#45;&gt;Node35</title>
<path fill="none" stroke="midnightblue" d="M1357.5,-505.99C1382.97,-496.18 1416.68,-483.21 1441.12,-473.81"/>
<polygon fill="midnightblue" stroke="midnightblue" points="1442.57,-477 1450.64,-470.14 1440.05,-470.46 1442.57,-477"/>
</g>
<!-- Node37 -->
<g id="node37" class="node">
<title>Node37</title>
<g id="a_node37"><a xlink:href="../../d3/d4f/a00761.html" target="_top" xlink:title=" ">
<polygon fill="none" stroke="black" points="1583.59,-360 1416.59,-360 1416.59,-341 1583.59,-341 1583.59,-360"/>
<text text-anchor="middle" x="1500.09" y="-348" font-family="Helvetica,sans-Serif" font-size="10.00">discordcoreapi/ThreadPool.hpp</text>
</a>
</g>
</g>
<!-- Node30&#45;&gt;Node37 -->
<g id="edge66" class="edge">
<title>Node30&#45;&gt;Node37</title>
<path fill="none" stroke="midnightblue" d="M1327.32,-505.93C1339.31,-480.4 1368.01,-426.27 1408.09,-396 1425.85,-382.59 1448.3,-371.63 1466.58,-363.95"/>
<polygon fill="midnightblue" stroke="midnightblue" points="1468.03,-367.14 1475.97,-360.13 1465.39,-360.65 1468.03,-367.14"/>
</g>
<!-- Node39 -->
<g id="node39" class="node">
<title>Node39</title>
<g id="a_node39"><a xlink:href="../../d0/d0a/a00743.html" target="_top" xlink:title=" ">
<polygon fill="none" stroke="black" points="673.59,-250 510.59,-250 510.59,-231 673.59,-231 673.59,-250"/>
<text text-anchor="middle" x="592.09" y="-238" font-family="Helvetica,sans-Serif" font-size="10.00">discordcoreapi/SSLClients.hpp</text>
</a>
</g>
</g>
<!-- Node30&#45;&gt;Node39 -->
<g id="edge65" class="edge">
<title>Node30&#45;&gt;Node39</title>
<path fill="none" stroke="midnightblue" d="M1249.02,-514.26C1134.32,-503.12 923.09,-473.5 923.09,-406.5 923.09,-406.5 923.09,-406.5 923.09,-349.5 923.09,-296.96 770.44,-265.97 672.47,-251.49"/>
<polygon fill="midnightblue" stroke="midnightblue" points="672.69,-247.99 662.29,-250.02 671.68,-254.92 672.69,-247.99"/>
</g>
<!-- Node53 -->
<g id="node53" class="node">
<title>Node53</title>
<g id="a_node53"><a xlink:href="../../dd/d57/a00701.html" target="_top" xlink:title=" ">
<polygon fill="none" stroke="black" points="1752.59,-415 1597.59,-415 1597.59,-396 1752.59,-396 1752.59,-415"/>
<text text-anchor="middle" x="1675.09" y="-403" font-family="Helvetica,sans-Serif" font-size="10.00">discordcoreapi/ErlPacker.hpp</text>
</a>
</g>
</g>
<!-- Node30&#45;&gt;Node53 -->
<g id="edge62" class="edge">
<title>Node30&#45;&gt;Node53</title>
<path fill="none" stroke="midnightblue" d="M1393.27,-514.85C1447.98,-508.96 1524.08,-496.45 1586.09,-470 1613.74,-458.21 1641.25,-436.7 1658.2,-422.01"/>
<polygon fill="midnightblue" stroke="midnightblue" points="1660.9,-424.3 1666.05,-415.04 1656.25,-419.06 1660.9,-424.3"/>
</g>
<!-- Node31&#45;&gt;Node3 -->
<g id="edge36" class="edge">
<title>Node31&#45;&gt;Node3</title>
<path fill="none" stroke="midnightblue" d="M1295,-230.58C1285.23,-217.16 1270.33,-191.67 1284.09,-176 1303.56,-153.82 1477.42,-138.5 1584.09,-131.09"/>
<polygon fill="midnightblue" stroke="midnightblue" points="1584.46,-134.58 1594.2,-130.4 1583.98,-127.59 1584.46,-134.58"/>
</g>
<!-- Node31&#45;&gt;Node32 -->
<g id="edge34" class="edge">
<title>Node31&#45;&gt;Node32</title>
<path fill="none" stroke="midnightblue" d="M1277.51,-230.98C1252.04,-222.16 1212.05,-208.31 1183.46,-198.41"/>
<polygon fill="midnightblue" stroke="midnightblue" points="1184.46,-195.05 1173.87,-195.08 1182.17,-201.66 1184.46,-195.05"/>
</g>
<!-- Node33 -->
<g id="node33" class="node">
<title>Node33</title>
<g id="a_node33"><a xlink:title=" ">
<polygon fill="none" stroke="#bfbfbf" points="1424.59,-195 1293.59,-195 1293.59,-176 1424.59,-176 1424.59,-195"/>
<text text-anchor="middle" x="1359.09" y="-183" font-family="Helvetica,sans-Serif" font-size="10.00">libavformat/avformat.h</text>
</a>
</g>
</g>
<!-- Node31&#45;&gt;Node33 -->
<g id="edge37" class="edge">
<title>Node31&#45;&gt;Node33</title>
<path fill="none" stroke="midnightblue" d="M1311.25,-230.98C1319.59,-223.23 1332.12,-211.58 1342.27,-202.14"/>
<polygon fill="midnightblue" stroke="midnightblue" points="1344.83,-204.54 1349.77,-195.17 1340.06,-199.42 1344.83,-204.54"/>
</g>
<!-- Node34 -->
<g id="node34" class="node">
<title>Node34</title>
<g id="a_node34"><a xlink:title=" ">
<polygon fill="none" stroke="#bfbfbf" points="1601.59,-195 1442.59,-195 1442.59,-176 1601.59,-176 1601.59,-195"/>
<text text-anchor="middle" x="1522.09" y="-183" font-family="Helvetica,sans-Serif" font-size="10.00">libswresample/swresample.h</text>
</a>
</g>
</g>
<!-- Node31&#45;&gt;Node34 -->
<g id="edge38" class="edge">
<title>Node31&#45;&gt;Node34</title>
<path fill="none" stroke="midnightblue" d="M1337.44,-230.98C1375.25,-221.87 1435.35,-207.4 1476.66,-197.45"/>
<polygon fill="midnightblue" stroke="midnightblue" points="1477.56,-200.83 1486.47,-195.08 1475.92,-194.02 1477.56,-200.83"/>
</g>
<!-- Node32&#45;&gt;Node3 -->
<g id="edge35" class="edge">
<title>Node32&#45;&gt;Node3</title>
<path fill="none" stroke="midnightblue" d="M1224.41,-175.99C1320.17,-165.18 1484.96,-146.57 1584.2,-135.36"/>
<polygon fill="midnightblue" stroke="midnightblue" points="1584.64,-138.83 1594.19,-134.23 1583.86,-131.88 1584.64,-138.83"/>
</g>
<!-- Node35&#45;&gt;Node3 -->
<g id="edge40" class="edge">
<title>Node35&#45;&gt;Node3</title>
<path fill="none" stroke="midnightblue" d="M1451.06,-450.9C1436.03,-443.75 1417.24,-431.97 1408.09,-415 1392.49,-386.05 1392.09,-370.27 1407.09,-341 1457.78,-242.1 1528.92,-270.91 1610.09,-195 1625.32,-180.76 1640.24,-162.5 1650.99,-148.34"/>
<polygon fill="midnightblue" stroke="midnightblue" points="1653.94,-150.23 1657.11,-140.12 1648.33,-146.05 1653.94,-150.23"/>
</g>
<!-- Node35&#45;&gt;Node36 -->
<g id="edge41" class="edge">
<title>Node35&#45;&gt;Node36</title>
<path fill="none" stroke="midnightblue" d="M1477.22,-450.75C1480.6,-443.57 1485.51,-433.18 1489.71,-424.27"/>
<polygon fill="midnightblue" stroke="midnightblue" points="1492.94,-425.63 1494.04,-415.09 1486.61,-422.64 1492.94,-425.63"/>
</g>
<!-- Node36&#45;&gt;Node3 -->
<g id="edge42" class="edge">
<title>Node36&#45;&gt;Node3</title>
<path fill="none" stroke="midnightblue" d="M1573.11,-395.96C1632.35,-384.55 1705.09,-358.01 1705.09,-296.5 1705.09,-296.5 1705.09,-296.5 1705.09,-239.5 1705.09,-206.92 1690.83,-171.67 1679.79,-149.24"/>
<polygon fill="midnightblue" stroke="midnightblue" points="1682.82,-147.49 1675.15,-140.18 1676.59,-150.68 1682.82,-147.49"/>
</g>
<!-- Node36&#45;&gt;Node37 -->
<g id="edge43" class="edge">
<title>Node36&#45;&gt;Node37</title>
<path fill="none" stroke="midnightblue" d="M1498.42,-395.75C1498.68,-388.8 1499.06,-378.85 1499.39,-370.13"/>
<polygon fill="midnightblue" stroke="midnightblue" points="1502.89,-370.21 1499.77,-360.09 1495.89,-369.95 1502.89,-370.21"/>
</g>
<!-- Node37&#45;&gt;Node3 -->
<g id="edge44" class="edge">
<title>Node37&#45;&gt;Node3</title>
<path fill="none" stroke="midnightblue" d="M1510.64,-340.88C1536.69,-319.08 1604.71,-258.92 1643.09,-195 1651.47,-181.05 1657.48,-163.75 1661.39,-149.97"/>
<polygon fill="midnightblue" stroke="midnightblue" points="1664.79,-150.78 1663.97,-140.22 1658.02,-148.99 1664.79,-150.78"/>
</g>
<!-- Node37&#45;&gt;Node38 -->
<g id="edge45" class="edge">
<title>Node37&#45;&gt;Node38</title>
<path fill="none" stroke="midnightblue" d="M1416.3,-344.61C1241.83,-334.43 841.69,-311.07 671.28,-301.12"/>
<polygon fill="midnightblue" stroke="midnightblue" points="671.32,-297.62 661.13,-300.53 670.91,-304.61 671.32,-297.62"/>
</g>
<!-- Node52 -->
<g id="node52" class="node">
<title>Node52</title>
<g id="a_node52"><a xlink:title=" ">
<polygon fill="none" stroke="#bfbfbf" points="1677.09,-305 1615.09,-305 1615.09,-286 1677.09,-286 1677.09,-305"/>
<text text-anchor="middle" x="1646.09" y="-293" font-family="Helvetica,sans-Serif" font-size="10.00">coroutine</text>
</a>
</g>
</g>
<!-- Node37&#45;&gt;Node52 -->
<g id="edge61" class="edge">
<title>Node37&#45;&gt;Node52</title>
<path fill="none" stroke="midnightblue" d="M1523.55,-340.98C1547.67,-332.23 1585.46,-318.51 1612.69,-308.62"/>
<polygon fill="midnightblue" stroke="midnightblue" points="1614,-311.87 1622.21,-305.17 1611.61,-305.29 1614,-311.87"/>
</g>
<!-- Node38&#45;&gt;Node39 -->
<g id="edge46" class="edge">
<title>Node38&#45;&gt;Node39</title>
<path fill="none" stroke="midnightblue" d="M592.09,-285.75C592.09,-278.8 592.09,-268.85 592.09,-260.13"/>
<polygon fill="midnightblue" stroke="midnightblue" points="595.59,-260.09 592.09,-250.09 588.59,-260.09 595.59,-260.09"/>
</g>
<!-- Node39&#45;&gt;Node3 -->
<g id="edge47" class="edge">
<title>Node39&#45;&gt;Node3</title>
<path fill="none" stroke="midnightblue" d="M510.54,-239.05C362.12,-237.36 60.13,-229.67 28.09,-195 22.36,-188.8 22.21,-182.06 28.09,-176 55.44,-147.8 1254.77,-131.05 1584.16,-126.98"/>
<polygon fill="midnightblue" stroke="midnightblue" points="1584.62,-130.47 1594.58,-126.85 1584.53,-123.47 1584.62,-130.47"/>
</g>
<!-- Node39&#45;&gt;Node32 -->
<g id="edge48" class="edge">
<title>Node39&#45;&gt;Node32</title>
<path fill="none" stroke="midnightblue" d="M673.68,-231.74C773.79,-222.21 943.41,-206.07 1050.66,-195.87"/>
<polygon fill="midnightblue" stroke="midnightblue" points="1051.22,-199.33 1060.84,-194.9 1050.55,-192.36 1051.22,-199.33"/>
</g>
<!-- Node40 -->
<g id="node40" class="node">
<title>Node40</title>
<g id="a_node40"><a xlink:title=" ">
<polygon fill="none" stroke="#bfbfbf" points="717.59,-195 638.59,-195 638.59,-176 717.59,-176 717.59,-195"/>
<text text-anchor="middle" x="678.09" y="-183" font-family="Helvetica,sans-Serif" font-size="10.00">openssl/err.h</text>
</a>
</g>
</g>
<!-- Node39&#45;&gt;Node40 -->
<g id="edge49" class="edge">
<title>Node39&#45;&gt;Node40</title>
<path fill="none" stroke="midnightblue" d="M605.91,-230.98C619.24,-222.77 639.67,-210.18 655.4,-200.49"/>
<polygon fill="midnightblue" stroke="midnightblue" points="657.34,-203.4 664.02,-195.17 653.67,-197.44 657.34,-203.4"/>
</g>
<!-- Node41 -->
<g id="node41" class="node">
<title>Node41</title>
<g id="a_node41"><a xlink:title=" ">
<polygon fill="none" stroke="#bfbfbf" points="816.09,-195 736.09,-195 736.09,-176 816.09,-176 816.09,-195"/>
<text text-anchor="middle" x="776.09" y="-183" font-family="Helvetica,sans-Serif" font-size="10.00">openssl/ssl.h</text>
</a>
</g>
</g>
<!-- Node39&#45;&gt;Node41 -->
<g id="edge50" class="edge">
<title>Node39&#45;&gt;Node41</title>
<path fill="none" stroke="midnightblue" d="M621.65,-230.98C652.81,-222.01 702.06,-207.82 736.55,-197.89"/>
<polygon fill="midnightblue" stroke="midnightblue" points="737.66,-201.21 746.3,-195.08 735.72,-194.49 737.66,-201.21"/>
</g>
<!-- Node42 -->
<g id="node42" class="node">
<title>Node42</title>
<g id="a_node42"><a xlink:title=" ">
<polygon fill="none" stroke="#bfbfbf" points="881.59,-195 834.59,-195 834.59,-176 881.59,-176 881.59,-195"/>
<text text-anchor="middle" x="858.09" y="-183" font-family="Helvetica,sans-Serif" font-size="10.00">fcntl.h</text>
</a>
</g>
</g>
<!-- Node39&#45;&gt;Node42 -->
<g id="edge51" class="edge">
<title>Node39&#45;&gt;Node42</title>
<path fill="none" stroke="midnightblue" d="M641.82,-230.94C686.91,-222.98 755.4,-210.34 824.19,-195.08"/>
<polygon fill="midnightblue" stroke="midnightblue" points="825.35,-198.41 834.34,-192.81 823.82,-191.58 825.35,-198.41"/>
</g>
<!-- Node43 -->
<g id="node43" class="node">
<title>Node43</title>
<g id="a_node43"><a xlink:title=" ">
<polygon fill="none" stroke="#bfbfbf" points="952.59,-195 899.59,-195 899.59,-176 952.59,-176 952.59,-195"/>
<text text-anchor="middle" x="926.09" y="-183" font-family="Helvetica,sans-Serif" font-size="10.00">netdb.h</text>
</a>
</g>
</g>
<!-- Node39&#45;&gt;Node43 -->
<g id="edge52" class="edge">
<title>Node39&#45;&gt;Node43</title>
<path fill="none" stroke="midnightblue" d="M660.12,-230.99C718.39,-223.32 804.74,-211.07 889.37,-194.99"/>
<polygon fill="midnightblue" stroke="midnightblue" points="890.25,-198.39 899.41,-193.06 888.93,-191.51 890.25,-198.39"/>
</g>
<!-- Node44 -->
<g id="node44" class="node">
<title>Node44</title>
<g id="a_node44"><a xlink:title=" ">
<polygon fill="none" stroke="#bfbfbf" points="1043.09,-195 971.09,-195 971.09,-176 1043.09,-176 1043.09,-195"/>
<text text-anchor="middle" x="1007.09" y="-183" font-family="Helvetica,sans-Serif" font-size="10.00">netinet/in.h</text>
</a>
</g>
</g>
<!-- Node39&#45;&gt;Node44 -->
<g id="edge53" class="edge">
<title>Node39&#45;&gt;Node44</title>
<path fill="none" stroke="midnightblue" d="M673.64,-231.15C748.54,-223.13 862.54,-210.03 961.09,-195 961.19,-194.98 961.29,-194.97 961.39,-194.95"/>
<polygon fill="midnightblue" stroke="midnightblue" points="961.66,-198.46 970.97,-193.4 960.53,-191.55 961.66,-198.46"/>
</g>
<!-- Node45 -->
<g id="node45" class="node">
<title>Node45</title>
<g id="a_node45"><a xlink:title=" ">
<polygon fill="none" stroke="#bfbfbf" points="115.09,-195 37.09,-195 37.09,-176 115.09,-176 115.09,-195"/>
<text text-anchor="middle" x="76.09" y="-183" font-family="Helvetica,sans-Serif" font-size="10.00">netinet/tcp.h</text>
</a>
</g>
</g>
<!-- Node39&#45;&gt;Node45 -->
<g id="edge54" class="edge">
<title>Node39&#45;&gt;Node45</title>
<path fill="none" stroke="midnightblue" d="M510.28,-233.73C418.88,-226.82 266.31,-213.94 125.46,-195.08"/>
<polygon fill="midnightblue" stroke="midnightblue" points="125.72,-191.59 115.34,-193.72 124.78,-198.52 125.72,-191.59"/>
</g>
<!-- Node46 -->
<g id="node46" class="node">
<title>Node46</title>
<g id="a_node46"><a xlink:title=" ">
<polygon fill="none" stroke="#bfbfbf" points="186.59,-195 133.59,-195 133.59,-176 186.59,-176 186.59,-195"/>
<text text-anchor="middle" x="160.09" y="-183" font-family="Helvetica,sans-Serif" font-size="10.00">stdint.h</text>
</a>
</g>
</g>
<!-- Node39&#45;&gt;Node46 -->
<g id="edge55" class="edge">
<title>Node39&#45;&gt;Node46</title>
<path fill="none" stroke="midnightblue" d="M510.3,-233.38C432.01,-226.82 310.46,-214.84 196.7,-195.09"/>
<polygon fill="midnightblue" stroke="midnightblue" points="197.22,-191.63 186.77,-193.35 196.01,-198.53 197.22,-191.63"/>
</g>
<!-- Node47 -->
<g id="node47" class="node">
<title>Node47</title>
<g id="a_node47"><a xlink:title=" ">
<polygon fill="none" stroke="#bfbfbf" points="273.59,-195 204.59,-195 204.59,-176 273.59,-176 273.59,-195"/>
<text text-anchor="middle" x="239.09" y="-183" font-family="Helvetica,sans-Serif" font-size="10.00">sys/epoll.h</text>
</a>
</g>
</g>
<!-- Node39&#45;&gt;Node47 -->
<g id="edge56" class="edge">
<title>Node39&#45;&gt;Node47</title>
<path fill="none" stroke="midnightblue" d="M525.72,-231C465.11,-223 372.8,-210.24 283.79,-195.22"/>
<polygon fill="midnightblue" stroke="midnightblue" points="284.24,-191.75 273.8,-193.52 283.07,-198.65 284.24,-191.75"/>
</g>
<!-- Node48 -->
<g id="node48" class="node">
<title>Node48</title>
<g id="a_node48"><a xlink:title=" ">
<polygon fill="none" stroke="#bfbfbf" points="360.59,-195 291.59,-195 291.59,-176 360.59,-176 360.59,-195"/>
<text text-anchor="middle" x="326.09" y="-183" font-family="Helvetica,sans-Serif" font-size="10.00">arpa/inet.h</text>
</a>
</g>
</g>
<!-- Node39&#45;&gt;Node48 -->
<g id="edge57" class="edge">
<title>Node39&#45;&gt;Node48</title>
<path fill="none" stroke="midnightblue" d="M549.35,-230.98C500.3,-221.21 420.24,-205.26 370.5,-195.35"/>
<polygon fill="midnightblue" stroke="midnightblue" points="371.16,-191.91 360.67,-193.39 369.79,-198.78 371.16,-191.91"/>
</g>
<!-- Node49 -->
<g id="node49" class="node">
<title>Node49</title>
<g id="a_node49"><a xlink:title=" ">
<polygon fill="none" stroke="#bfbfbf" points="455.59,-195 378.59,-195 378.59,-176 455.59,-176 455.59,-195"/>
<text text-anchor="middle" x="417.09" y="-183" font-family="Helvetica,sans-Serif" font-size="10.00">sys/socket.h</text>
</a>
</g>
</g>
<!-- Node39&#45;&gt;Node49 -->
<g id="edge58" class="edge">
<title>Node39&#45;&gt;Node49</title>
<path fill="none" stroke="midnightblue" d="M563.97,-230.98C534.47,-222.05 487.9,-207.94 455.12,-198.02"/>
<polygon fill="midnightblue" stroke="midnightblue" points="456.01,-194.63 445.43,-195.08 453.98,-201.33 456.01,-194.63"/>
</g>
<!-- Node50 -->
<g id="node50" class="node">
<title>Node50</title>
<g id="a_node50"><a xlink:title=" ">
<polygon fill="none" stroke="#bfbfbf" points="546.09,-195 474.09,-195 474.09,-176 546.09,-176 546.09,-195"/>
<text text-anchor="middle" x="510.09" y="-183" font-family="Helvetica,sans-Serif" font-size="10.00">sys/types.h</text>
</a>
</g>
</g>
<!-- Node39&#45;&gt;Node50 -->
<g id="edge59" class="edge">
<title>Node39&#45;&gt;Node50</title>
<path fill="none" stroke="midnightblue" d="M578.92,-230.98C566.32,-222.84 547.09,-210.41 532.15,-200.76"/>
<polygon fill="midnightblue" stroke="midnightblue" points="533.8,-197.66 523.5,-195.17 530,-203.54 533.8,-197.66"/>
</g>
<!-- Node51 -->
<g id="node51" class="node">
<title>Node51</title>
<g id="a_node51"><a xlink:title=" ">
<polygon fill="none" stroke="#bfbfbf" points="620.09,-195 564.09,-195 564.09,-176 620.09,-176 620.09,-195"/>
<text text-anchor="middle" x="592.09" y="-183" font-family="Helvetica,sans-Serif" font-size="10.00">unistd.h</text>
</a>
</g>
</g>
<!-- Node39&#45;&gt;Node51 -->
<g id="edge60" class="edge">
<title>Node39&#45;&gt;Node51</title>
<path fill="none" stroke="midnightblue" d="M592.09,-230.75C592.09,-223.8 592.09,-213.85 592.09,-205.13"/>
<polygon fill="midnightblue" stroke="midnightblue" points="595.59,-205.09 592.09,-195.09 588.59,-205.09 595.59,-205.09"/>
</g>
<!-- Node53&#45;&gt;Node3 -->
<g id="edge63" class="edge">
<title>Node53&#45;&gt;Node3</title>
<path fill="none" stroke="midnightblue" d="M1685.8,-395.96C1695.6,-387.67 1709.94,-374.26 1719.09,-360 1735.39,-334.61 1743.09,-326.67 1743.09,-296.5 1743.09,-296.5 1743.09,-296.5 1743.09,-239.5 1743.09,-209.33 1735.7,-201.18 1719.09,-176 1712.05,-165.33 1702.35,-155.21 1693.24,-146.91"/>
<polygon fill="midnightblue" stroke="midnightblue" points="1695.3,-144.06 1685.46,-140.12 1690.69,-149.33 1695.3,-144.06"/>
</g>
</g>
</svg>
