<?xml version="1.0" encoding="UTF-8" standalone="no"?>
<!DOCTYPE svg PUBLIC "-//W3C//DTD SVG 1.1//EN"
 "http://www.w3.org/Graphics/SVG/1.1/DTD/svg11.dtd">
<!-- Generated by graphviz version 3.0.0 (20220226.1711)
 -->
<!-- Title: RoleEntities.cpp Pages: 1 -->
<svg width="2325pt" height="789pt"
 viewBox="0.00 0.00 2324.50 789.00" xmlns="http://www.w3.org/2000/svg" xmlns:xlink="http://www.w3.org/1999/xlink">
<g id="graph0" class="graph" transform="scale(1 1) rotate(0) translate(4 785)">
<title>RoleEntities.cpp</title>
<!-- Node1 -->
<g id="node1" class="node">
<title>Node1</title>
<g id="a_node1"><a xlink:title=" ">
<polygon fill="#bfbfbf" stroke="black" points="1339.5,-761.5 1339.5,-780.5 1427.5,-780.5 1427.5,-761.5 1339.5,-761.5"/>
<text text-anchor="middle" x="1383.5" y="-768.5" font-family="Helvetica,sans-Serif" font-size="10.00">RoleEntities.cpp</text>
</a>
</g>
</g>
<!-- Node2 -->
<g id="node2" class="node">
<title>Node2</title>
<g id="a_node2"><a xlink:href="../../dc/dce/a00740.html" target="_top" xlink:title=" ">
<polygon fill="none" stroke="black" points="2145.5,-705.5 2145.5,-724.5 2299.5,-724.5 2299.5,-705.5 2145.5,-705.5"/>
<text text-anchor="middle" x="2222.5" y="-712.5" font-family="Helvetica,sans-Serif" font-size="10.00">discordcoreapi/RoleEntities.hpp</text>
</a>
</g>
</g>
<!-- Node1&#45;&gt;Node2 -->
<g id="edge1" class="edge">
<title>Node1&#45;&gt;Node2</title>
<path fill="none" stroke="midnightblue" d="M1427.72,-767.15C1560.58,-758.6 1957.97,-733.03 2135.34,-721.61"/>
<polygon fill="midnightblue" stroke="midnightblue" points="2135.66,-725.1 2145.42,-720.96 2135.22,-718.11 2135.66,-725.1"/>
</g>
<!-- Node37 -->
<g id="node37" class="node">
<title>Node37</title>
<g id="a_node37"><a xlink:href="../../d5/d5b/a00695.html" target="_top" xlink:title=" ">
<polygon fill="none" stroke="black" points="615.5,-403.5 615.5,-422.5 761.5,-422.5 761.5,-403.5 615.5,-403.5"/>
<text text-anchor="middle" x="688.5" y="-410.5" font-family="Helvetica,sans-Serif" font-size="10.00">discordcoreapi/CoRoutine.hpp</text>
</a>
</g>
</g>
<!-- Node1&#45;&gt;Node37 -->
<g id="edge69" class="edge">
<title>Node1&#45;&gt;Node37</title>
<path fill="none" stroke="midnightblue" d="M1339.28,-768.29C1172.03,-761.23 587.5,-731.08 587.5,-654.5 587.5,-654.5 587.5,-654.5 587.5,-529.5 587.5,-483.39 633.67,-446.83 663.58,-427.99"/>
<polygon fill="midnightblue" stroke="midnightblue" points="665.54,-430.9 672.27,-422.72 661.91,-424.91 665.54,-430.9"/>
</g>
<!-- Node3 -->
<g id="node3" class="node">
<title>Node3</title>
<g id="a_node3"><a xlink:href="../../d4/deb/a00710.html" target="_top" xlink:title=" ">
<polygon fill="none" stroke="black" points="962,-112.5 962,-142.5 1093,-142.5 1093,-112.5 962,-112.5"/>
<text text-anchor="start" x="970" y="-130.5" font-family="Helvetica,sans-Serif" font-size="10.00">discordcoreapi/Foundation</text>
<text text-anchor="middle" x="1027.5" y="-119.5" font-family="Helvetica,sans-Serif" font-size="10.00">Entities.hpp</text>
</a>
</g>
</g>
<!-- Node2&#45;&gt;Node3 -->
<g id="edge2" class="edge">
<title>Node2&#45;&gt;Node3</title>
<path fill="none" stroke="midnightblue" d="M2235.97,-705.5C2261.96,-687.93 2316.5,-644.87 2316.5,-593 2316.5,-593 2316.5,-593 2316.5,-244 2316.5,-206.72 2296.84,-195.67 2263.5,-179 2160.13,-127.3 1356.65,-126.84 1103.57,-128"/>
<polygon fill="midnightblue" stroke="midnightblue" points="1103.35,-124.5 1093.37,-128.05 1103.38,-131.5 1103.35,-124.5"/>
</g>
<!-- Node29 -->
<g id="node29" class="node">
<title>Node29</title>
<g id="a_node29"><a xlink:href="../../d2/d94/a00716.html" target="_top" xlink:title=" ">
<polygon fill="none" stroke="black" points="2103.5,-638.5 2103.5,-668.5 2243.5,-668.5 2243.5,-638.5 2103.5,-638.5"/>
<text text-anchor="start" x="2111.5" y="-656.5" font-family="Helvetica,sans-Serif" font-size="10.00">discordcoreapi/GuildMember</text>
<text text-anchor="middle" x="2173.5" y="-645.5" font-family="Helvetica,sans-Serif" font-size="10.00">Entities.hpp</text>
</a>
</g>
</g>
<!-- Node2&#45;&gt;Node29 -->
<g id="edge28" class="edge">
<title>Node2&#45;&gt;Node29</title>
<path fill="none" stroke="midnightblue" d="M2215.48,-705.48C2209.22,-697.87 2199.77,-686.4 2191.42,-676.26"/>
<polygon fill="midnightblue" stroke="midnightblue" points="2194.11,-674.02 2185.05,-668.52 2188.7,-678.47 2194.11,-674.02"/>
</g>
<!-- Node39 -->
<g id="node39" class="node">
<title>Node39</title>
<g id="a_node39"><a xlink:href="../../db/d7c/a00722.html" target="_top" xlink:title=" ">
<polygon fill="none" stroke="black" points="2125,-291.5 2125,-310.5 2250,-310.5 2250,-291.5 2125,-291.5"/>
<text text-anchor="middle" x="2187.5" y="-298.5" font-family="Helvetica,sans-Serif" font-size="10.00">discordcoreapi/Https.hpp</text>
</a>
</g>
</g>
<!-- Node2&#45;&gt;Node39 -->
<g id="edge68" class="edge">
<title>Node2&#45;&gt;Node39</title>
<path fill="none" stroke="midnightblue" d="M2229.68,-705.23C2236.48,-696.53 2246.5,-682.57 2252.5,-669 2266.59,-637.16 2271.5,-627.82 2271.5,-593 2271.5,-593 2271.5,-593 2271.5,-468 2271.5,-407.41 2226.39,-346.48 2202.29,-318.24"/>
<polygon fill="midnightblue" stroke="midnightblue" points="2204.78,-315.78 2195.55,-310.57 2199.52,-320.39 2204.78,-315.78"/>
</g>
<!-- Node4 -->
<g id="node4" class="node">
<title>Node4</title>
<g id="a_node4"><a xlink:href="../../d5/dae/a00767.html" target="_top" xlink:title=" ">
<polygon fill="none" stroke="black" points="960.5,-56.5 960.5,-75.5 1094.5,-75.5 1094.5,-56.5 960.5,-56.5"/>
<text text-anchor="middle" x="1027.5" y="-63.5" font-family="Helvetica,sans-Serif" font-size="10.00">discordcoreapi/Utilities.hpp</text>
</a>
</g>
</g>
<!-- Node3&#45;&gt;Node4 -->
<g id="edge3" class="edge">
<title>Node3&#45;&gt;Node4</title>
<path fill="none" stroke="midnightblue" d="M1027.5,-112.4C1027.5,-104.47 1027.5,-94.46 1027.5,-85.86"/>
<polygon fill="midnightblue" stroke="midnightblue" points="1031,-85.66 1027.5,-75.66 1024,-85.66 1031,-85.66"/>
</g>
<!-- Node5 -->
<g id="node5" class="node">
<title>Node5</title>
<g id="a_node5"><a xlink:title=" ">
<polygon fill="none" stroke="#bfbfbf" points="0,-0.5 0,-19.5 57,-19.5 57,-0.5 0,-0.5"/>
<text text-anchor="middle" x="28.5" y="-7.5" font-family="Helvetica,sans-Serif" font-size="10.00">pthread.h</text>
</a>
</g>
</g>
<!-- Node4&#45;&gt;Node5 -->
<g id="edge4" class="edge">
<title>Node4&#45;&gt;Node5</title>
<path fill="none" stroke="midnightblue" d="M960.37,-63.48C775.08,-59.03 258.15,-44.84 66.97,-19.72"/>
<polygon fill="midnightblue" stroke="midnightblue" points="67.41,-16.24 57.03,-18.36 66.46,-23.18 67.41,-16.24"/>
</g>
<!-- Node6 -->
<g id="node6" class="node">
<title>Node6</title>
<g id="a_node6"><a xlink:title=" ">
<polygon fill="none" stroke="#bfbfbf" points="75.5,-0.5 75.5,-19.5 137.5,-19.5 137.5,-0.5 75.5,-0.5"/>
<text text-anchor="middle" x="106.5" y="-7.5" font-family="Helvetica,sans-Serif" font-size="10.00">sys/time.h</text>
</a>
</g>
</g>
<!-- Node4&#45;&gt;Node6 -->
<g id="edge5" class="edge">
<title>Node4&#45;&gt;Node6</title>
<path fill="none" stroke="midnightblue" d="M960.27,-65.45C813.99,-65.6 455.87,-61.41 147.87,-19.95"/>
<polygon fill="midnightblue" stroke="midnightblue" points="148.23,-16.47 137.85,-18.58 147.29,-23.4 148.23,-16.47"/>
</g>
<!-- Node7 -->
<g id="node7" class="node">
<title>Node7</title>
<g id="a_node7"><a xlink:title=" ">
<polygon fill="none" stroke="#bfbfbf" points="155.5,-0.5 155.5,-19.5 199.5,-19.5 199.5,-0.5 155.5,-0.5"/>
<text text-anchor="middle" x="177.5" y="-7.5" font-family="Helvetica,sans-Serif" font-size="10.00">time.h</text>
</a>
</g>
</g>
<!-- Node4&#45;&gt;Node7 -->
<g id="edge6" class="edge">
<title>Node4&#45;&gt;Node7</title>
<path fill="none" stroke="midnightblue" d="M960.38,-63.28C795.18,-58.74 371.22,-45.13 209.95,-19.79"/>
<polygon fill="midnightblue" stroke="midnightblue" points="210.15,-16.28 199.71,-18.1 209.01,-23.18 210.15,-16.28"/>
</g>
<!-- Node8 -->
<g id="node8" class="node">
<title>Node8</title>
<g id="a_node8"><a xlink:title=" ">
<polygon fill="none" stroke="#bfbfbf" points="218,-0.5 218,-19.5 259,-19.5 259,-0.5 218,-0.5"/>
<text text-anchor="middle" x="238.5" y="-7.5" font-family="Helvetica,sans-Serif" font-size="10.00">ctime</text>
</a>
</g>
</g>
<!-- Node4&#45;&gt;Node8 -->
<g id="edge7" class="edge">
<title>Node4&#45;&gt;Node8</title>
<path fill="none" stroke="midnightblue" d="M960.23,-63.1C803.79,-58.36 418.13,-44.68 269.54,-19.91"/>
<polygon fill="midnightblue" stroke="midnightblue" points="269.71,-16.38 259.26,-18.1 268.5,-23.28 269.71,-16.38"/>
</g>
<!-- Node9 -->
<g id="node9" class="node">
<title>Node9</title>
<g id="a_node9"><a xlink:title=" ">
<polygon fill="none" stroke="#bfbfbf" points="277,-0.5 277,-19.5 370,-19.5 370,-0.5 277,-0.5"/>
<text text-anchor="middle" x="323.5" y="-7.5" font-family="Helvetica,sans-Serif" font-size="10.00">condition_variable</text>
</a>
</g>
</g>
<!-- Node4&#45;&gt;Node9 -->
<g id="edge8" class="edge">
<title>Node4&#45;&gt;Node9</title>
<path fill="none" stroke="midnightblue" d="M960.15,-62.32C843.98,-57.27 598.27,-44.64 380.24,-19.97"/>
<polygon fill="midnightblue" stroke="midnightblue" points="380.54,-16.49 370.21,-18.83 379.75,-23.44 380.54,-16.49"/>
</g>
<!-- Node10 -->
<g id="node10" class="node">
<title>Node10</title>
<g id="a_node10"><a xlink:title=" ">
<polygon fill="none" stroke="#bfbfbf" points="388.5,-0.5 388.5,-19.5 486.5,-19.5 486.5,-0.5 388.5,-0.5"/>
<text text-anchor="middle" x="437.5" y="-7.5" font-family="Helvetica,sans-Serif" font-size="10.00">nlohmann/json.hpp</text>
</a>
</g>
</g>
<!-- Node4&#45;&gt;Node10 -->
<g id="edge9" class="edge">
<title>Node4&#45;&gt;Node10</title>
<path fill="none" stroke="midnightblue" d="M960.16,-60.81C860.97,-54.31 669.55,-40.48 496.57,-20.05"/>
<polygon fill="midnightblue" stroke="midnightblue" points="496.86,-16.56 486.51,-18.85 496.03,-23.51 496.86,-16.56"/>
</g>
<!-- Node11 -->
<g id="node11" class="node">
<title>Node11</title>
<g id="a_node11"><a xlink:title=" ">
<polygon fill="none" stroke="#bfbfbf" points="505,-0.5 505,-19.5 590,-19.5 590,-0.5 505,-0.5"/>
<text text-anchor="middle" x="547.5" y="-7.5" font-family="Helvetica,sans-Serif" font-size="10.00">source_location</text>
</a>
</g>
</g>
<!-- Node4&#45;&gt;Node11 -->
<g id="edge10" class="edge">
<title>Node4&#45;&gt;Node11</title>
<path fill="none" stroke="midnightblue" d="M960.44,-59.43C877.93,-52.25 733.33,-38.61 600.03,-20.13"/>
<polygon fill="midnightblue" stroke="midnightblue" points="600.43,-16.66 590.04,-18.74 599.46,-23.59 600.43,-16.66"/>
</g>
<!-- Node12 -->
<g id="node12" class="node">
<title>Node12</title>
<g id="a_node12"><a xlink:title=" ">
<polygon fill="none" stroke="#bfbfbf" points="608,-0.5 608,-19.5 691,-19.5 691,-0.5 608,-0.5"/>
<text text-anchor="middle" x="649.5" y="-7.5" font-family="Helvetica,sans-Serif" font-size="10.00">unordered_map</text>
</a>
</g>
</g>
<!-- Node4&#45;&gt;Node12 -->
<g id="edge11" class="edge">
<title>Node4&#45;&gt;Node12</title>
<path fill="none" stroke="midnightblue" d="M960.38,-56.52C896.46,-48.27 797.29,-35.03 701.39,-20.09"/>
<polygon fill="midnightblue" stroke="midnightblue" points="701.65,-16.59 691.23,-18.5 700.56,-23.5 701.65,-16.59"/>
</g>
<!-- Node13 -->
<g id="node13" class="node">
<title>Node13</title>
<g id="a_node13"><a xlink:title=" ">
<polygon fill="none" stroke="#bfbfbf" points="709.5,-0.5 709.5,-19.5 787.5,-19.5 787.5,-0.5 709.5,-0.5"/>
<text text-anchor="middle" x="748.5" y="-7.5" font-family="Helvetica,sans-Serif" font-size="10.00">shared_mutex</text>
</a>
</g>
</g>
<!-- Node4&#45;&gt;Node13 -->
<g id="edge12" class="edge">
<title>Node4&#45;&gt;Node13</title>
<path fill="none" stroke="midnightblue" d="M983.29,-56.44C932.73,-46.66 850.18,-30.68 797.64,-20.51"/>
<polygon fill="midnightblue" stroke="midnightblue" points="798.03,-17.02 787.55,-18.56 796.7,-23.89 798.03,-17.02"/>
</g>
<!-- Node14 -->
<g id="node14" class="node">
<title>Node14</title>
<g id="a_node14"><a xlink:title=" ">
<polygon fill="none" stroke="#bfbfbf" points="805.5,-0.5 805.5,-19.5 863.5,-19.5 863.5,-0.5 805.5,-0.5"/>
<text text-anchor="middle" x="834.5" y="-7.5" font-family="Helvetica,sans-Serif" font-size="10.00">functional</text>
</a>
</g>
</g>
<!-- Node4&#45;&gt;Node14 -->
<g id="edge13" class="edge">
<title>Node4&#45;&gt;Node14</title>
<path fill="none" stroke="midnightblue" d="M996.92,-56.44C963.5,-47.09 909.87,-32.09 873.46,-21.9"/>
<polygon fill="midnightblue" stroke="midnightblue" points="874.25,-18.49 863.67,-19.16 872.36,-25.23 874.25,-18.49"/>
</g>
<!-- Node15 -->
<g id="node15" class="node">
<title>Node15</title>
<g id="a_node15"><a xlink:title=" ">
<polygon fill="none" stroke="#bfbfbf" points="881.5,-0.5 881.5,-19.5 937.5,-19.5 937.5,-0.5 881.5,-0.5"/>
<text text-anchor="middle" x="909.5" y="-7.5" font-family="Helvetica,sans-Serif" font-size="10.00">coroutine</text>
</a>
</g>
</g>
<!-- Node4&#45;&gt;Node15 -->
<g id="edge14" class="edge">
<title>Node4&#45;&gt;Node15</title>
<path fill="none" stroke="midnightblue" d="M1008.8,-56.44C989.56,-47.64 959.35,-33.81 937.3,-23.72"/>
<polygon fill="midnightblue" stroke="midnightblue" points="938.66,-20.5 928.11,-19.52 935.75,-26.86 938.66,-20.5"/>
</g>
<!-- Node16 -->
<g id="node16" class="node">
<title>Node16</title>
<g id="a_node16"><a xlink:title=" ">
<polygon fill="none" stroke="#bfbfbf" points="956,-0.5 956,-19.5 1021,-19.5 1021,-0.5 956,-0.5"/>
<text text-anchor="middle" x="988.5" y="-7.5" font-family="Helvetica,sans-Serif" font-size="10.00">semaphore</text>
</a>
</g>
</g>
<!-- Node4&#45;&gt;Node16 -->
<g id="edge15" class="edge">
<title>Node4&#45;&gt;Node16</title>
<path fill="none" stroke="midnightblue" d="M1021.06,-56.08C1015.55,-48.46 1007.47,-37.26 1000.74,-27.94"/>
<polygon fill="midnightblue" stroke="midnightblue" points="1003.51,-25.81 994.82,-19.75 997.84,-29.91 1003.51,-25.81"/>
</g>
<!-- Node17 -->
<g id="node17" class="node">
<title>Node17</title>
<g id="a_node17"><a xlink:title=" ">
<polygon fill="none" stroke="#bfbfbf" points="1039.5,-0.5 1039.5,-19.5 1095.5,-19.5 1095.5,-0.5 1039.5,-0.5"/>
<text text-anchor="middle" x="1067.5" y="-7.5" font-family="Helvetica,sans-Serif" font-size="10.00">concepts</text>
</a>
</g>
</g>
<!-- Node4&#45;&gt;Node17 -->
<g id="edge16" class="edge">
<title>Node4&#45;&gt;Node17</title>
<path fill="none" stroke="midnightblue" d="M1034.11,-56.08C1039.76,-48.46 1048.04,-37.26 1054.95,-27.94"/>
<polygon fill="midnightblue" stroke="midnightblue" points="1057.88,-29.87 1061.02,-19.75 1052.25,-25.7 1057.88,-29.87"/>
</g>
<!-- Node18 -->
<g id="node18" class="node">
<title>Node18</title>
<g id="a_node18"><a xlink:title=" ">
<polygon fill="none" stroke="#bfbfbf" points="1113.5,-0.5 1113.5,-19.5 1167.5,-19.5 1167.5,-0.5 1113.5,-0.5"/>
<text text-anchor="middle" x="1140.5" y="-7.5" font-family="Helvetica,sans-Serif" font-size="10.00">iostream</text>
</a>
</g>
</g>
<!-- Node4&#45;&gt;Node18 -->
<g id="edge17" class="edge">
<title>Node4&#45;&gt;Node18</title>
<path fill="none" stroke="midnightblue" d="M1045.41,-56.44C1063.75,-47.68 1092.51,-33.94 1113.59,-23.86"/>
<polygon fill="midnightblue" stroke="midnightblue" points="1115.17,-26.99 1122.68,-19.52 1112.15,-20.67 1115.17,-26.99"/>
</g>
<!-- Node19 -->
<g id="node19" class="node">
<title>Node19</title>
<g id="a_node19"><a xlink:title=" ">
<polygon fill="none" stroke="#bfbfbf" points="1186,-0.5 1186,-19.5 1235,-19.5 1235,-0.5 1186,-0.5"/>
<text text-anchor="middle" x="1210.5" y="-7.5" font-family="Helvetica,sans-Serif" font-size="10.00">fstream</text>
</a>
</g>
</g>
<!-- Node4&#45;&gt;Node19 -->
<g id="edge18" class="edge">
<title>Node4&#45;&gt;Node19</title>
<path fill="none" stroke="midnightblue" d="M1056.5,-56.44C1088.97,-46.86 1141.56,-31.34 1176.09,-21.15"/>
<polygon fill="midnightblue" stroke="midnightblue" points="1177.15,-24.49 1185.75,-18.3 1175.17,-17.78 1177.15,-24.49"/>
</g>
<!-- Node20 -->
<g id="node20" class="node">
<title>Node20</title>
<g id="a_node20"><a xlink:title=" ">
<polygon fill="none" stroke="#bfbfbf" points="1253,-0.5 1253,-19.5 1294,-19.5 1294,-0.5 1253,-0.5"/>
<text text-anchor="middle" x="1273.5" y="-7.5" font-family="Helvetica,sans-Serif" font-size="10.00">bitset</text>
</a>
</g>
</g>
<!-- Node4&#45;&gt;Node20 -->
<g id="edge19" class="edge">
<title>Node4&#45;&gt;Node20</title>
<path fill="none" stroke="midnightblue" d="M1074.11,-56.49C1115.89,-48.59 1179.04,-36 1243.05,-19.93"/>
<polygon fill="midnightblue" stroke="midnightblue" points="1244.08,-23.28 1252.91,-17.43 1242.35,-16.5 1244.08,-23.28"/>
</g>
<!-- Node21 -->
<g id="node21" class="node">
<title>Node21</title>
<g id="a_node21"><a xlink:title=" ">
<polygon fill="none" stroke="#bfbfbf" points="1312.5,-0.5 1312.5,-19.5 1364.5,-19.5 1364.5,-0.5 1312.5,-0.5"/>
<text text-anchor="middle" x="1338.5" y="-7.5" font-family="Helvetica,sans-Serif" font-size="10.00">memory</text>
</a>
</g>
</g>
<!-- Node4&#45;&gt;Node21 -->
<g id="edge20" class="edge">
<title>Node4&#45;&gt;Node21</title>
<path fill="none" stroke="midnightblue" d="M1088.66,-56.47C1142.27,-48.66 1222.51,-36.17 1302.02,-19.94"/>
<polygon fill="midnightblue" stroke="midnightblue" points="1303.12,-23.29 1312.21,-17.84 1301.71,-16.43 1303.12,-23.29"/>
</g>
<!-- Node22 -->
<g id="node22" class="node">
<title>Node22</title>
<g id="a_node22"><a xlink:title=" ">
<polygon fill="none" stroke="#bfbfbf" points="1383,-0.5 1383,-19.5 1432,-19.5 1432,-0.5 1383,-0.5"/>
<text text-anchor="middle" x="1407.5" y="-7.5" font-family="Helvetica,sans-Serif" font-size="10.00">random</text>
</a>
</g>
</g>
<!-- Node4&#45;&gt;Node22 -->
<g id="edge21" class="edge">
<title>Node4&#45;&gt;Node22</title>
<path fill="none" stroke="midnightblue" d="M1094.57,-58.88C1162.39,-52.1 1270.35,-39.7 1372.81,-19.9"/>
<polygon fill="midnightblue" stroke="midnightblue" points="1373.56,-23.32 1382.7,-17.96 1372.22,-16.45 1373.56,-23.32"/>
</g>
<!-- Node23 -->
<g id="node23" class="node">
<title>Node23</title>
<g id="a_node23"><a xlink:title=" ">
<polygon fill="none" stroke="#bfbfbf" points="1450,-0.5 1450,-19.5 1491,-19.5 1491,-0.5 1450,-0.5"/>
<text text-anchor="middle" x="1470.5" y="-7.5" font-family="Helvetica,sans-Serif" font-size="10.00">string</text>
</a>
</g>
</g>
<!-- Node4&#45;&gt;Node23 -->
<g id="edge22" class="edge">
<title>Node4&#45;&gt;Node23</title>
<path fill="none" stroke="midnightblue" d="M1094.6,-61.47C1174.71,-56.41 1312.75,-45.03 1440.04,-19.71"/>
<polygon fill="midnightblue" stroke="midnightblue" points="1440.86,-23.11 1449.97,-17.7 1439.47,-16.25 1440.86,-23.11"/>
</g>
<!-- Node24 -->
<g id="node24" class="node">
<title>Node24</title>
<g id="a_node24"><a xlink:title=" ">
<polygon fill="none" stroke="#bfbfbf" points="1509.5,-0.5 1509.5,-19.5 1551.5,-19.5 1551.5,-0.5 1509.5,-0.5"/>
<text text-anchor="middle" x="1530.5" y="-7.5" font-family="Helvetica,sans-Serif" font-size="10.00">vector</text>
</a>
</g>
</g>
<!-- Node4&#45;&gt;Node24 -->
<g id="edge23" class="edge">
<title>Node4&#45;&gt;Node24</title>
<path fill="none" stroke="midnightblue" d="M1094.89,-62.55C1186.99,-58.3 1357,-47.23 1499.5,-20 1499.6,-19.98 1499.7,-19.96 1499.8,-19.94"/>
<polygon fill="midnightblue" stroke="midnightblue" points="1500.34,-23.41 1509.28,-17.73 1498.75,-16.59 1500.34,-23.41"/>
</g>
<!-- Node25 -->
<g id="node25" class="node">
<title>Node25</title>
<g id="a_node25"><a xlink:title=" ">
<polygon fill="none" stroke="#bfbfbf" points="1569.5,-0.5 1569.5,-19.5 1613.5,-19.5 1613.5,-0.5 1569.5,-0.5"/>
<text text-anchor="middle" x="1591.5" y="-7.5" font-family="Helvetica,sans-Serif" font-size="10.00">thread</text>
</a>
</g>
</g>
<!-- Node4&#45;&gt;Node25 -->
<g id="edge24" class="edge">
<title>Node4&#45;&gt;Node25</title>
<path fill="none" stroke="midnightblue" d="M1094.54,-63.59C1194.19,-60.57 1387.25,-51.11 1559.28,-19.87"/>
<polygon fill="midnightblue" stroke="midnightblue" points="1560.08,-23.28 1569.28,-18.02 1558.81,-16.4 1560.08,-23.28"/>
</g>
<!-- Node26 -->
<g id="node26" class="node">
<title>Node26</title>
<g id="a_node26"><a xlink:title=" ">
<polygon fill="none" stroke="#bfbfbf" points="1631.5,-0.5 1631.5,-19.5 1675.5,-19.5 1675.5,-0.5 1631.5,-0.5"/>
<text text-anchor="middle" x="1653.5" y="-7.5" font-family="Helvetica,sans-Serif" font-size="10.00">mutex</text>
</a>
</g>
</g>
<!-- Node4&#45;&gt;Node26 -->
<g id="edge25" class="edge">
<title>Node4&#45;&gt;Node26</title>
<path fill="none" stroke="midnightblue" d="M1094.55,-64.43C1203.49,-62.53 1425.62,-54.54 1621.39,-19.83"/>
<polygon fill="midnightblue" stroke="midnightblue" points="1622.06,-23.26 1631.28,-18.05 1620.82,-16.38 1622.06,-23.26"/>
</g>
<!-- Node27 -->
<g id="node27" class="node">
<title>Node27</title>
<g id="a_node27"><a xlink:title=" ">
<polygon fill="none" stroke="#bfbfbf" points="1694,-0.5 1694,-19.5 1737,-19.5 1737,-0.5 1694,-0.5"/>
<text text-anchor="middle" x="1715.5" y="-7.5" font-family="Helvetica,sans-Serif" font-size="10.00">queue</text>
</a>
</g>
</g>
<!-- Node4&#45;&gt;Node27 -->
<g id="edge26" class="edge">
<title>Node4&#45;&gt;Node27</title>
<path fill="none" stroke="midnightblue" d="M1094.76,-65.12C1212.54,-64.3 1463.7,-57.97 1683.83,-19.68"/>
<polygon fill="midnightblue" stroke="midnightblue" points="1684.72,-23.08 1693.96,-17.89 1683.5,-16.19 1684.72,-23.08"/>
</g>
<!-- Node28 -->
<g id="node28" class="node">
<title>Node28</title>
<g id="a_node28"><a xlink:title=" ">
<polygon fill="none" stroke="#bfbfbf" points="1755,-0.5 1755,-19.5 1790,-19.5 1790,-0.5 1755,-0.5"/>
<text text-anchor="middle" x="1772.5" y="-7.5" font-family="Helvetica,sans-Serif" font-size="10.00">map</text>
</a>
</g>
</g>
<!-- Node4&#45;&gt;Node28 -->
<g id="edge27" class="edge">
<title>Node4&#45;&gt;Node28</title>
<path fill="none" stroke="midnightblue" d="M1094.59,-63.12C1244.69,-58.54 1604.8,-45.43 1744.69,-19.79"/>
<polygon fill="midnightblue" stroke="midnightblue" points="1745.62,-23.18 1754.77,-17.85 1744.29,-16.31 1745.62,-23.18"/>
</g>
<!-- Node29&#45;&gt;Node3 -->
<g id="edge29" class="edge">
<title>Node29&#45;&gt;Node3</title>
<path fill="none" stroke="midnightblue" d="M2185.93,-638.36C2203.51,-616.85 2233.5,-573.94 2233.5,-531.5 2233.5,-531.5 2233.5,-531.5 2233.5,-468 2233.5,-391.56 2278.5,-378.44 2278.5,-302 2278.5,-302 2278.5,-302 2278.5,-244 2278.5,-209.61 2266.36,-196.07 2236.5,-179 2187.26,-150.85 1360.49,-134.25 1103.26,-129.75"/>
<polygon fill="midnightblue" stroke="midnightblue" points="1103.32,-126.25 1093.26,-129.58 1103.19,-133.25 1103.32,-126.25"/>
</g>
<!-- Node30 -->
<g id="node30" class="node">
<title>Node30</title>
<g id="a_node30"><a xlink:href="../../d3/d2c/a00764.html" target="_top" xlink:title=" ">
<polygon fill="none" stroke="black" points="906,-582.5 906,-601.5 1061,-601.5 1061,-582.5 906,-582.5"/>
<text text-anchor="middle" x="983.5" y="-589.5" font-family="Helvetica,sans-Serif" font-size="10.00">discordcoreapi/UserEntities.hpp</text>
</a>
</g>
</g>
<!-- Node29&#45;&gt;Node30 -->
<g id="edge30" class="edge">
<title>Node29&#45;&gt;Node30</title>
<path fill="none" stroke="midnightblue" d="M2103.06,-648.98C1897.4,-638.69 1298,-608.73 1071.53,-597.4"/>
<polygon fill="midnightblue" stroke="midnightblue" points="1071.52,-593.9 1061.36,-596.89 1071.17,-600.89 1071.52,-593.9"/>
</g>
<!-- Node29&#45;&gt;Node39 -->
<g id="edge67" class="edge">
<title>Node29&#45;&gt;Node39</title>
<path fill="none" stroke="midnightblue" d="M2174.85,-638.36C2176.88,-615.79 2180.5,-570.22 2180.5,-531.5 2180.5,-531.5 2180.5,-531.5 2180.5,-412 2180.5,-379.88 2183.51,-342.6 2185.58,-320.73"/>
<polygon fill="midnightblue" stroke="midnightblue" points="2189.09,-320.84 2186.58,-310.55 2182.12,-320.15 2189.09,-320.84"/>
</g>
<!-- Node30&#45;&gt;Node3 -->
<g id="edge31" class="edge">
<title>Node30&#45;&gt;Node3</title>
<path fill="none" stroke="midnightblue" d="M905.91,-585.31C781.08,-573.99 549.5,-543.14 549.5,-470 549.5,-470 549.5,-470 549.5,-244 549.5,-207.55 567.8,-196.99 599.5,-179 657.97,-145.81 845.25,-134.33 951.69,-130.44"/>
<polygon fill="midnightblue" stroke="midnightblue" points="951.86,-133.94 961.73,-130.09 951.61,-126.94 951.86,-133.94"/>
</g>
<!-- Node31 -->
<g id="node31" class="node">
<title>Node31</title>
<g id="a_node31"><a xlink:href="../../d9/dd4/a00776.html" target="_top" xlink:title=" ">
<polygon fill="none" stroke="black" points="916.5,-515.5 916.5,-545.5 1050.5,-545.5 1050.5,-515.5 916.5,-515.5"/>
<text text-anchor="start" x="924.5" y="-533.5" font-family="Helvetica,sans-Serif" font-size="10.00">discordcoreapi/WebSocket</text>
<text text-anchor="middle" x="983.5" y="-522.5" font-family="Helvetica,sans-Serif" font-size="10.00">Entities.hpp</text>
</a>
</g>
</g>
<!-- Node30&#45;&gt;Node31 -->
<g id="edge32" class="edge">
<title>Node30&#45;&gt;Node31</title>
<path fill="none" stroke="midnightblue" d="M983.5,-582.48C983.5,-575.47 983.5,-565.19 983.5,-555.7"/>
<polygon fill="midnightblue" stroke="midnightblue" points="987,-555.52 983.5,-545.52 980,-555.52 987,-555.52"/>
</g>
<!-- Node31&#45;&gt;Node3 -->
<g id="edge33" class="edge">
<title>Node31&#45;&gt;Node3</title>
<path fill="none" stroke="midnightblue" d="M916.32,-529.5C803.34,-525.6 587.5,-499.6 587.5,-358 587.5,-358 587.5,-358 587.5,-244 587.5,-209.84 599.69,-197.34 628.5,-179 680.6,-145.83 851.26,-134.39 951.72,-130.48"/>
<polygon fill="midnightblue" stroke="midnightblue" points="951.95,-133.98 961.82,-130.11 951.69,-126.98 951.95,-133.98"/>
</g>
<!-- Node32 -->
<g id="node32" class="node">
<title>Node32</title>
<g id="a_node32"><a xlink:href="../../d4/d9b/a00680.html" target="_top" xlink:title=" ">
<polygon fill="none" stroke="black" points="902.5,-235.5 902.5,-254.5 1064.5,-254.5 1064.5,-235.5 902.5,-235.5"/>
<text text-anchor="middle" x="983.5" y="-242.5" font-family="Helvetica,sans-Serif" font-size="10.00">discordcoreapi/AudioDecoder.hpp</text>
</a>
</g>
</g>
<!-- Node31&#45;&gt;Node32 -->
<g id="edge34" class="edge">
<title>Node31&#45;&gt;Node32</title>
<path fill="none" stroke="midnightblue" d="M983.5,-515.28C983.5,-493.48 983.5,-450.49 983.5,-414 983.5,-414 983.5,-414 983.5,-356 983.5,-323.95 983.5,-286.64 983.5,-264.75"/>
<polygon fill="midnightblue" stroke="midnightblue" points="987,-264.56 983.5,-254.56 980,-264.56 987,-264.56"/>
</g>
<!-- Node33 -->
<g id="node33" class="node">
<title>Node33</title>
<g id="a_node33"><a xlink:href="../../d4/d6a/a00704.html" target="_top" xlink:title=" ">
<polygon fill="none" stroke="black" points="1055.5,-179.5 1055.5,-198.5 1213.5,-198.5 1213.5,-179.5 1055.5,-179.5"/>
<text text-anchor="middle" x="1134.5" y="-186.5" font-family="Helvetica,sans-Serif" font-size="10.00">discordcoreapi/EventEntities.hpp</text>
</a>
</g>
</g>
<!-- Node31&#45;&gt;Node33 -->
<g id="edge64" class="edge">
<title>Node31&#45;&gt;Node33</title>
<path fill="none" stroke="midnightblue" d="M1020.06,-515.45C1058.51,-498.01 1113.5,-464.27 1113.5,-414 1113.5,-414 1113.5,-414 1113.5,-300 1113.5,-267.38 1122.52,-230.28 1128.73,-208.57"/>
<polygon fill="midnightblue" stroke="midnightblue" points="1132.17,-209.32 1131.67,-198.73 1125.46,-207.32 1132.17,-209.32"/>
</g>
<!-- Node36 -->
<g id="node36" class="node">
<title>Node36</title>
<g id="a_node36"><a xlink:href="../../d0/db6/a00692.html" target="_top" xlink:title=" ">
<polygon fill="none" stroke="black" points="696,-459.5 696,-478.5 883,-478.5 883,-459.5 696,-459.5"/>
<text text-anchor="middle" x="789.5" y="-466.5" font-family="Helvetica,sans-Serif" font-size="10.00">discordcoreapi/CommandController.hpp</text>
</a>
</g>
</g>
<!-- Node31&#45;&gt;Node36 -->
<g id="edge40" class="edge">
<title>Node31&#45;&gt;Node36</title>
<path fill="none" stroke="midnightblue" d="M937.52,-515.4C903.86,-505.07 858.72,-491.23 827.18,-481.56"/>
<polygon fill="midnightblue" stroke="midnightblue" points="828.03,-478.16 817.45,-478.57 825.98,-484.85 828.03,-478.16"/>
</g>
<!-- Node38 -->
<g id="node38" class="node">
<title>Node38</title>
<g id="a_node38"><a xlink:href="../../d3/d4f/a00761.html" target="_top" xlink:title=" ">
<polygon fill="none" stroke="black" points="777.5,-347.5 777.5,-366.5 927.5,-366.5 927.5,-347.5 777.5,-347.5"/>
<text text-anchor="middle" x="852.5" y="-354.5" font-family="Helvetica,sans-Serif" font-size="10.00">discordcoreapi/ThreadPool.hpp</text>
</a>
</g>
</g>
<!-- Node31&#45;&gt;Node38 -->
<g id="edge66" class="edge">
<title>Node31&#45;&gt;Node38</title>
<path fill="none" stroke="midnightblue" d="M972.78,-515.47C948.87,-484.17 891.28,-408.76 865.43,-374.93"/>
<polygon fill="midnightblue" stroke="midnightblue" points="867.89,-372.38 859.04,-366.56 862.33,-376.63 867.89,-372.38"/>
</g>
<!-- Node40 -->
<g id="node40" class="node">
<title>Node40</title>
<g id="a_node40"><a xlink:href="../../d5/de8/a00749.html" target="_top" xlink:title=" ">
<polygon fill="none" stroke="black" points="1557.5,-235.5 1557.5,-254.5 1707.5,-254.5 1707.5,-235.5 1557.5,-235.5"/>
<text text-anchor="middle" x="1632.5" y="-242.5" font-family="Helvetica,sans-Serif" font-size="10.00">discordcoreapi/SSLClients.hpp</text>
</a>
</g>
</g>
<!-- Node31&#45;&gt;Node40 -->
<g id="edge65" class="edge">
<title>Node31&#45;&gt;Node40</title>
<path fill="none" stroke="midnightblue" d="M1050.54,-523.53C1162.05,-511.72 1373.5,-480.55 1373.5,-414 1373.5,-414 1373.5,-414 1373.5,-356 1373.5,-278.97 1471.75,-255.1 1547.22,-248.13"/>
<polygon fill="midnightblue" stroke="midnightblue" points="1547.57,-251.61 1557.24,-247.29 1546.98,-244.64 1547.57,-251.61"/>
</g>
<!-- Node53 -->
<g id="node53" class="node">
<title>Node53</title>
<g id="a_node53"><a xlink:href="../../dd/d57/a00701.html" target="_top" xlink:title=" ">
<polygon fill="none" stroke="black" points="1913.5,-403.5 1913.5,-422.5 2057.5,-422.5 2057.5,-403.5 1913.5,-403.5"/>
<text text-anchor="middle" x="1985.5" y="-410.5" font-family="Helvetica,sans-Serif" font-size="10.00">discordcoreapi/ErlPacker.hpp</text>
</a>
</g>
</g>
<!-- Node31&#45;&gt;Node53 -->
<g id="edge62" class="edge">
<title>Node31&#45;&gt;Node53</title>
<path fill="none" stroke="midnightblue" d="M1050.8,-521.74C1228.51,-501.26 1709.93,-445.76 1903.38,-423.47"/>
<polygon fill="midnightblue" stroke="midnightblue" points="1903.95,-426.92 1913.49,-422.3 1903.15,-419.97 1903.95,-426.92"/>
</g>
<!-- Node32&#45;&gt;Node3 -->
<g id="edge37" class="edge">
<title>Node32&#45;&gt;Node3</title>
<path fill="none" stroke="midnightblue" d="M988.86,-235.3C994.15,-226.43 1002.2,-212.14 1007.5,-199 1013.6,-183.86 1018.61,-166.19 1022.09,-152.33"/>
<polygon fill="midnightblue" stroke="midnightblue" points="1025.5,-153.11 1024.45,-142.57 1018.7,-151.47 1025.5,-153.11"/>
</g>
<!-- Node32&#45;&gt;Node33 -->
<g id="edge35" class="edge">
<title>Node32&#45;&gt;Node33</title>
<path fill="none" stroke="midnightblue" d="M1007.43,-235.44C1032.72,-226.4 1072.8,-212.06 1101.18,-201.92"/>
<polygon fill="midnightblue" stroke="midnightblue" points="1102.45,-205.18 1110.69,-198.52 1100.09,-198.59 1102.45,-205.18"/>
</g>
<!-- Node34 -->
<g id="node34" class="node">
<title>Node34</title>
<g id="a_node34"><a xlink:title=" ">
<polygon fill="none" stroke="#bfbfbf" points="729.5,-179.5 729.5,-198.5 839.5,-198.5 839.5,-179.5 729.5,-179.5"/>
<text text-anchor="middle" x="784.5" y="-186.5" font-family="Helvetica,sans-Serif" font-size="10.00">libavformat/avformat.h</text>
</a>
</g>
</g>
<!-- Node32&#45;&gt;Node34 -->
<g id="edge38" class="edge">
<title>Node32&#45;&gt;Node34</title>
<path fill="none" stroke="midnightblue" d="M951.97,-235.44C917.91,-226.2 863.49,-211.44 825.98,-201.26"/>
<polygon fill="midnightblue" stroke="midnightblue" points="826.45,-197.76 815.88,-198.52 824.62,-204.51 826.45,-197.76"/>
</g>
<!-- Node35 -->
<g id="node35" class="node">
<title>Node35</title>
<g id="a_node35"><a xlink:title=" ">
<polygon fill="none" stroke="#bfbfbf" points="858,-179.5 858,-198.5 999,-198.5 999,-179.5 858,-179.5"/>
<text text-anchor="middle" x="928.5" y="-186.5" font-family="Helvetica,sans-Serif" font-size="10.00">libswresample/swresample.h</text>
</a>
</g>
</g>
<!-- Node32&#45;&gt;Node35 -->
<g id="edge39" class="edge">
<title>Node32&#45;&gt;Node35</title>
<path fill="none" stroke="midnightblue" d="M974.42,-235.08C966.33,-227.14 954.3,-215.34 944.59,-205.8"/>
<polygon fill="midnightblue" stroke="midnightblue" points="947,-203.26 937.41,-198.75 942.1,-208.25 947,-203.26"/>
</g>
<!-- Node33&#45;&gt;Node3 -->
<g id="edge36" class="edge">
<title>Node33&#45;&gt;Node3</title>
<path fill="none" stroke="midnightblue" d="M1119.17,-179.48C1104.2,-171.15 1080.92,-158.21 1061.57,-147.45"/>
<polygon fill="midnightblue" stroke="midnightblue" points="1063.16,-144.32 1052.72,-142.52 1059.76,-150.44 1063.16,-144.32"/>
</g>
<!-- Node36&#45;&gt;Node3 -->
<g id="edge41" class="edge">
<title>Node36&#45;&gt;Node3</title>
<path fill="none" stroke="midnightblue" d="M787.31,-459.5C784.02,-447 777.45,-422.99 770.5,-403 736.48,-305.21 639.22,-257.7 706.5,-179 737.41,-142.84 866.9,-132.41 951.68,-129.5"/>
<polygon fill="midnightblue" stroke="midnightblue" points="951.9,-132.99 961.78,-129.18 951.68,-126 951.9,-132.99"/>
</g>
<!-- Node36&#45;&gt;Node37 -->
<g id="edge42" class="edge">
<title>Node36&#45;&gt;Node37</title>
<path fill="none" stroke="midnightblue" d="M773.27,-459.32C757.15,-450.7 732.2,-437.36 713.54,-427.39"/>
<polygon fill="midnightblue" stroke="midnightblue" points="715.16,-424.28 704.69,-422.65 711.86,-430.46 715.16,-424.28"/>
</g>
<!-- Node37&#45;&gt;Node3 -->
<g id="edge43" class="edge">
<title>Node37&#45;&gt;Node3</title>
<path fill="none" stroke="midnightblue" d="M679.2,-403.28C661.68,-385.85 625.5,-344.69 625.5,-302 625.5,-302 625.5,-302 625.5,-244 625.5,-213.2 625.46,-198.24 649.5,-179 694.74,-142.79 854.86,-132.49 951.59,-129.59"/>
<polygon fill="midnightblue" stroke="midnightblue" points="951.72,-133.09 961.62,-129.31 951.52,-126.09 951.72,-133.09"/>
</g>
<!-- Node37&#45;&gt;Node38 -->
<g id="edge44" class="edge">
<title>Node37&#45;&gt;Node38</title>
<path fill="none" stroke="midnightblue" d="M714.49,-403.44C742.2,-394.32 786.25,-379.81 817.12,-369.65"/>
<polygon fill="midnightblue" stroke="midnightblue" points="818.23,-372.97 826.64,-366.52 816.04,-366.32 818.23,-372.97"/>
</g>
<!-- Node38&#45;&gt;Node3 -->
<g id="edge45" class="edge">
<title>Node38&#45;&gt;Node3</title>
<path fill="none" stroke="midnightblue" d="M837.16,-347.42C792.36,-321.3 668.03,-240.81 720.5,-179 749.58,-144.74 870.54,-133.68 951.67,-130.14"/>
<polygon fill="midnightblue" stroke="midnightblue" points="952,-133.63 961.85,-129.72 951.71,-126.63 952,-133.63"/>
</g>
<!-- Node38&#45;&gt;Node39 -->
<g id="edge46" class="edge">
<title>Node38&#45;&gt;Node39</title>
<path fill="none" stroke="midnightblue" d="M927.62,-352.96C1162.83,-343.45 1883.27,-314.31 2114.93,-304.94"/>
<polygon fill="midnightblue" stroke="midnightblue" points="2115.09,-308.43 2124.94,-304.53 2114.81,-301.44 2115.09,-308.43"/>
</g>
<!-- Node39&#45;&gt;Node40 -->
<g id="edge47" class="edge">
<title>Node39&#45;&gt;Node40</title>
<path fill="none" stroke="midnightblue" d="M2124.91,-293.91C2025.26,-284.21 1830.33,-265.25 1717.93,-254.31"/>
<polygon fill="midnightblue" stroke="midnightblue" points="1717.94,-250.8 1707.65,-253.31 1717.26,-257.76 1717.94,-250.8"/>
</g>
<!-- Node40&#45;&gt;Node3 -->
<g id="edge48" class="edge">
<title>Node40&#45;&gt;Node3</title>
<path fill="none" stroke="midnightblue" d="M1557.43,-242.87C1481.09,-239.89 1360.17,-230.1 1260.5,-199 1242.28,-193.32 1240.3,-185.88 1222.5,-179 1184.19,-164.19 1139.98,-152.34 1103.36,-143.85"/>
<polygon fill="midnightblue" stroke="midnightblue" points="1103.77,-140.35 1093.24,-141.54 1102.21,-147.18 1103.77,-140.35"/>
</g>
<!-- Node40&#45;&gt;Node33 -->
<g id="edge49" class="edge">
<title>Node40&#45;&gt;Node33</title>
<path fill="none" stroke="midnightblue" d="M1557.41,-235.86C1467.87,-226.15 1318.43,-209.94 1223.27,-199.63"/>
<polygon fill="midnightblue" stroke="midnightblue" points="1223.41,-196.12 1213.09,-198.52 1222.65,-203.08 1223.41,-196.12"/>
</g>
<!-- Node41 -->
<g id="node41" class="node">
<title>Node41</title>
<g id="a_node41"><a xlink:title=" ">
<polygon fill="none" stroke="#bfbfbf" points="2047,-179.5 2047,-198.5 2120,-198.5 2120,-179.5 2047,-179.5"/>
<text text-anchor="middle" x="2083.5" y="-186.5" font-family="Helvetica,sans-Serif" font-size="10.00">openssl/err.h</text>
</a>
</g>
</g>
<!-- Node40&#45;&gt;Node41 -->
<g id="edge50" class="edge">
<title>Node40&#45;&gt;Node41</title>
<path fill="none" stroke="midnightblue" d="M1707.59,-237.65C1787.04,-230.48 1916.26,-217.56 2036.58,-199.19"/>
<polygon fill="midnightblue" stroke="midnightblue" points="2037.36,-202.61 2046.71,-197.63 2036.29,-195.69 2037.36,-202.61"/>
</g>
<!-- Node42 -->
<g id="node42" class="node">
<title>Node42</title>
<g id="a_node42"><a xlink:title=" ">
<polygon fill="none" stroke="#bfbfbf" points="2138.5,-179.5 2138.5,-198.5 2212.5,-198.5 2212.5,-179.5 2138.5,-179.5"/>
<text text-anchor="middle" x="2175.5" y="-186.5" font-family="Helvetica,sans-Serif" font-size="10.00">openssl/ssl.h</text>
</a>
</g>
</g>
<!-- Node40&#45;&gt;Node42 -->
<g id="edge51" class="edge">
<title>Node40&#45;&gt;Node42</title>
<path fill="none" stroke="midnightblue" d="M1707.72,-239.61C1803.21,-233.49 1973.19,-220.8 2128.21,-199.05"/>
<polygon fill="midnightblue" stroke="midnightblue" points="2128.99,-202.47 2138.4,-197.6 2128.01,-195.54 2128.99,-202.47"/>
</g>
<!-- Node43 -->
<g id="node43" class="node">
<title>Node43</title>
<g id="a_node43"><a xlink:title=" ">
<polygon fill="none" stroke="#bfbfbf" points="1270,-179.5 1270,-198.5 1313,-198.5 1313,-179.5 1270,-179.5"/>
<text text-anchor="middle" x="1291.5" y="-186.5" font-family="Helvetica,sans-Serif" font-size="10.00">fcntl.h</text>
</a>
</g>
</g>
<!-- Node40&#45;&gt;Node43 -->
<g id="edge52" class="edge">
<title>Node40&#45;&gt;Node43</title>
<path fill="none" stroke="midnightblue" d="M1557.48,-236.29C1496.48,-229.31 1408.12,-217.55 1322.87,-199.04"/>
<polygon fill="midnightblue" stroke="midnightblue" points="1323.55,-195.61 1313.03,-196.87 1322.04,-202.45 1323.55,-195.61"/>
</g>
<!-- Node44 -->
<g id="node44" class="node">
<title>Node44</title>
<g id="a_node44"><a xlink:title=" ">
<polygon fill="none" stroke="#bfbfbf" points="1331,-179.5 1331,-198.5 1380,-198.5 1380,-179.5 1331,-179.5"/>
<text text-anchor="middle" x="1355.5" y="-186.5" font-family="Helvetica,sans-Serif" font-size="10.00">netdb.h</text>
</a>
</g>
</g>
<!-- Node40&#45;&gt;Node44 -->
<g id="edge53" class="edge">
<title>Node40&#45;&gt;Node44</title>
<path fill="none" stroke="midnightblue" d="M1578.93,-235.45C1531.54,-227.59 1460.34,-215.04 1390.2,-199.25"/>
<polygon fill="midnightblue" stroke="midnightblue" points="1390.84,-195.81 1380.31,-197.01 1389.28,-202.64 1390.84,-195.81"/>
</g>
<!-- Node45 -->
<g id="node45" class="node">
<title>Node45</title>
<g id="a_node45"><a xlink:title=" ">
<polygon fill="none" stroke="#bfbfbf" points="1398,-179.5 1398,-198.5 1463,-198.5 1463,-179.5 1398,-179.5"/>
<text text-anchor="middle" x="1430.5" y="-186.5" font-family="Helvetica,sans-Serif" font-size="10.00">netinet/in.h</text>
</a>
</g>
</g>
<!-- Node40&#45;&gt;Node45 -->
<g id="edge54" class="edge">
<title>Node40&#45;&gt;Node45</title>
<path fill="none" stroke="midnightblue" d="M1600.49,-235.44C1565.77,-226.16 1510.21,-211.31 1472.12,-201.13"/>
<polygon fill="midnightblue" stroke="midnightblue" points="1472.92,-197.72 1462.36,-198.52 1471.11,-204.48 1472.92,-197.72"/>
</g>
<!-- Node46 -->
<g id="node46" class="node">
<title>Node46</title>
<g id="a_node46"><a xlink:title=" ">
<polygon fill="none" stroke="#bfbfbf" points="1481,-179.5 1481,-198.5 1552,-198.5 1552,-179.5 1481,-179.5"/>
<text text-anchor="middle" x="1516.5" y="-186.5" font-family="Helvetica,sans-Serif" font-size="10.00">netinet/tcp.h</text>
</a>
</g>
</g>
<!-- Node40&#45;&gt;Node46 -->
<g id="edge55" class="edge">
<title>Node40&#45;&gt;Node46</title>
<path fill="none" stroke="midnightblue" d="M1614.12,-235.44C1595.28,-226.68 1565.77,-212.94 1544.12,-202.86"/>
<polygon fill="midnightblue" stroke="midnightblue" points="1545.34,-199.56 1534.79,-198.52 1542.38,-205.91 1545.34,-199.56"/>
</g>
<!-- Node47 -->
<g id="node47" class="node">
<title>Node47</title>
<g id="a_node47"><a xlink:title=" ">
<polygon fill="none" stroke="#bfbfbf" points="1570,-179.5 1570,-198.5 1619,-198.5 1619,-179.5 1570,-179.5"/>
<text text-anchor="middle" x="1594.5" y="-186.5" font-family="Helvetica,sans-Serif" font-size="10.00">stdint.h</text>
</a>
</g>
</g>
<!-- Node40&#45;&gt;Node47 -->
<g id="edge56" class="edge">
<title>Node40&#45;&gt;Node47</title>
<path fill="none" stroke="midnightblue" d="M1626.23,-235.08C1620.86,-227.46 1612.98,-216.26 1606.42,-206.94"/>
<polygon fill="midnightblue" stroke="midnightblue" points="1609.28,-204.91 1600.66,-198.75 1603.55,-208.94 1609.28,-204.91"/>
</g>
<!-- Node48 -->
<g id="node48" class="node">
<title>Node48</title>
<g id="a_node48"><a xlink:title=" ">
<polygon fill="none" stroke="#bfbfbf" points="1637.5,-179.5 1637.5,-198.5 1701.5,-198.5 1701.5,-179.5 1637.5,-179.5"/>
<text text-anchor="middle" x="1669.5" y="-186.5" font-family="Helvetica,sans-Serif" font-size="10.00">sys/epoll.h</text>
</a>
</g>
</g>
<!-- Node40&#45;&gt;Node48 -->
<g id="edge57" class="edge">
<title>Node40&#45;&gt;Node48</title>
<path fill="none" stroke="midnightblue" d="M1638.61,-235.08C1643.78,-227.53 1651.35,-216.49 1657.69,-207.23"/>
<polygon fill="midnightblue" stroke="midnightblue" points="1660.74,-208.98 1663.5,-198.75 1654.96,-205.02 1660.74,-208.98"/>
</g>
<!-- Node49 -->
<g id="node49" class="node">
<title>Node49</title>
<g id="a_node49"><a xlink:title=" ">
<polygon fill="none" stroke="#bfbfbf" points="1719.5,-179.5 1719.5,-198.5 1781.5,-198.5 1781.5,-179.5 1719.5,-179.5"/>
<text text-anchor="middle" x="1750.5" y="-186.5" font-family="Helvetica,sans-Serif" font-size="10.00">arpa/inet.h</text>
</a>
</g>
</g>
<!-- Node40&#45;&gt;Node49 -->
<g id="edge58" class="edge">
<title>Node40&#45;&gt;Node49</title>
<path fill="none" stroke="midnightblue" d="M1651.2,-235.44C1670.44,-226.64 1700.65,-212.81 1722.7,-202.72"/>
<polygon fill="midnightblue" stroke="midnightblue" points="1724.25,-205.86 1731.89,-198.52 1721.34,-199.5 1724.25,-205.86"/>
</g>
<!-- Node50 -->
<g id="node50" class="node">
<title>Node50</title>
<g id="a_node50"><a xlink:title=" ">
<polygon fill="none" stroke="#bfbfbf" points="1800,-179.5 1800,-198.5 1873,-198.5 1873,-179.5 1800,-179.5"/>
<text text-anchor="middle" x="1836.5" y="-186.5" font-family="Helvetica,sans-Serif" font-size="10.00">sys/socket.h</text>
</a>
</g>
</g>
<!-- Node40&#45;&gt;Node50 -->
<g id="edge59" class="edge">
<title>Node40&#45;&gt;Node50</title>
<path fill="none" stroke="midnightblue" d="M1664.82,-235.44C1699.89,-226.16 1756,-211.31 1794.46,-201.13"/>
<polygon fill="midnightblue" stroke="midnightblue" points="1795.56,-204.46 1804.33,-198.52 1793.76,-197.69 1795.56,-204.46"/>
</g>
<!-- Node51 -->
<g id="node51" class="node">
<title>Node51</title>
<g id="a_node51"><a xlink:title=" ">
<polygon fill="none" stroke="#bfbfbf" points="1891.5,-179.5 1891.5,-198.5 1959.5,-198.5 1959.5,-179.5 1891.5,-179.5"/>
<text text-anchor="middle" x="1925.5" y="-186.5" font-family="Helvetica,sans-Serif" font-size="10.00">sys/types.h</text>
</a>
</g>
</g>
<!-- Node40&#45;&gt;Node51 -->
<g id="edge60" class="edge">
<title>Node40&#45;&gt;Node51</title>
<path fill="none" stroke="midnightblue" d="M1682.38,-235.45C1730.73,-227.06 1806.39,-213.69 1881.18,-199.22"/>
<polygon fill="midnightblue" stroke="midnightblue" points="1882.1,-202.6 1891.25,-197.26 1880.77,-195.73 1882.1,-202.6"/>
</g>
<!-- Node52 -->
<g id="node52" class="node">
<title>Node52</title>
<g id="a_node52"><a xlink:title=" ">
<polygon fill="none" stroke="#bfbfbf" points="1978,-179.5 1978,-198.5 2029,-198.5 2029,-179.5 1978,-179.5"/>
<text text-anchor="middle" x="2003.5" y="-186.5" font-family="Helvetica,sans-Serif" font-size="10.00">unistd.h</text>
</a>
</g>
</g>
<!-- Node40&#45;&gt;Node52 -->
<g id="edge61" class="edge">
<title>Node40&#45;&gt;Node52</title>
<path fill="none" stroke="midnightblue" d="M1707.65,-236.52C1773.75,-229.34 1872.7,-217.17 1968.15,-198.85"/>
<polygon fill="midnightblue" stroke="midnightblue" points="1968.82,-202.28 1977.97,-196.94 1967.48,-195.41 1968.82,-202.28"/>
</g>
<!-- Node53&#45;&gt;Node3 -->
<g id="edge63" class="edge">
<title>Node53&#45;&gt;Node3</title>
<path fill="none" stroke="midnightblue" d="M1994.64,-403.41C2015.86,-383.48 2070.24,-332.62 2116.5,-291 2162.63,-249.5 2195.88,-255.51 2221.5,-199 2225.17,-190.9 2227.65,-185.42 2221.5,-179 2182.76,-138.58 1360.26,-130.42 1103.42,-128.85"/>
<polygon fill="midnightblue" stroke="midnightblue" points="1103.09,-125.35 1093.07,-128.79 1103.05,-132.35 1103.09,-125.35"/>
</g>
</g>
</svg>
