<?xml version="1.0" encoding="UTF-8" standalone="no"?>
<!DOCTYPE svg PUBLIC "-//W3C//DTD SVG 1.1//EN"
 "http://www.w3.org/Graphics/SVG/1.1/DTD/svg11.dtd">
<!-- Generated by graphviz version 2.43.0 (0)
 -->
<!-- Title: RoleEntities.cpp Pages: 1 -->
<svg width="2449pt" height="789pt"
 viewBox="0.00 0.00 2449.13 789.00" xmlns="http://www.w3.org/2000/svg" xmlns:xlink="http://www.w3.org/1999/xlink">
<g id="graph0" class="graph" transform="scale(1 1) rotate(0) translate(4 785)">
<title>RoleEntities.cpp</title>
<!-- Node1 -->
<g id="node1" class="node">
<title>Node1</title>
<g id="a_node1"><a xlink:title=" ">
<polygon fill="#bfbfbf" stroke="black" points="1774.63,-761.5 1774.63,-780.5 1869.63,-780.5 1869.63,-761.5 1774.63,-761.5"/>
<text text-anchor="middle" x="1822.13" y="-768.5" font-family="Helvetica,sans-Serif" font-size="10.00">RoleEntities.cpp</text>
</a>
</g>
</g>
<!-- Node2 -->
<g id="node2" class="node">
<title>Node2</title>
<g id="a_node2"><a xlink:href="../../dc/dce/a00740.html" target="_top" xlink:title=" ">
<polygon fill="none" stroke="black" points="1681.13,-705.5 1681.13,-724.5 1851.13,-724.5 1851.13,-705.5 1681.13,-705.5"/>
<text text-anchor="middle" x="1766.13" y="-712.5" font-family="Helvetica,sans-Serif" font-size="10.00">discordcoreapi/RoleEntities.hpp</text>
</a>
</g>
</g>
<!-- Node1&#45;&gt;Node2 -->
<g id="edge1" class="edge">
<title>Node1&#45;&gt;Node2</title>
<path fill="none" stroke="midnightblue" d="M1813.13,-761.32C1804.93,-753.42 1792.62,-741.55 1782.66,-731.94"/>
<polygon fill="midnightblue" stroke="midnightblue" points="1784.92,-729.26 1775.29,-724.83 1780.06,-734.29 1784.92,-729.26"/>
</g>
<!-- Node36 -->
<g id="node36" class="node">
<title>Node36</title>
<g id="a_node36"><a xlink:href="../../d5/d5b/a00695.html" target="_top" xlink:title=" ">
<polygon fill="none" stroke="black" points="1417.13,-403.5 1417.13,-422.5 1579.13,-422.5 1579.13,-403.5 1417.13,-403.5"/>
<text text-anchor="middle" x="1498.13" y="-410.5" font-family="Helvetica,sans-Serif" font-size="10.00">discordcoreapi/CoRoutine.hpp</text>
</a>
</g>
</g>
<!-- Node1&#45;&gt;Node36 -->
<g id="edge69" class="edge">
<title>Node1&#45;&gt;Node36</title>
<path fill="none" stroke="midnightblue" d="M1832.59,-761.33C1852.77,-743.56 1895.13,-700.76 1895.13,-654.5 1895.13,-654.5 1895.13,-654.5 1895.13,-591 1895.13,-515.52 1652.7,-449.92 1546.73,-424.85"/>
<polygon fill="midnightblue" stroke="midnightblue" points="1547.45,-421.43 1536.92,-422.55 1545.86,-428.24 1547.45,-421.43"/>
</g>
<!-- Node3 -->
<g id="node3" class="node">
<title>Node3</title>
<g id="a_node3"><a xlink:href="../../d4/deb/a00710.html" target="_top" xlink:title=" ">
<polygon fill="none" stroke="black" points="1594.63,-112.5 1594.63,-142.5 1739.63,-142.5 1739.63,-112.5 1594.63,-112.5"/>
<text text-anchor="start" x="1602.63" y="-130.5" font-family="Helvetica,sans-Serif" font-size="10.00">discordcoreapi/Foundation</text>
<text text-anchor="middle" x="1667.13" y="-119.5" font-family="Helvetica,sans-Serif" font-size="10.00">Entities.hpp</text>
</a>
</g>
</g>
<!-- Node2&#45;&gt;Node3 -->
<g id="edge2" class="edge">
<title>Node2&#45;&gt;Node3</title>
<path fill="none" stroke="midnightblue" d="M1778.72,-705.41C1789.8,-697.25 1805.59,-684.01 1815.13,-669 1878.82,-568.74 1895.13,-532.78 1895.13,-414 1895.13,-414 1895.13,-414 1895.13,-244 1895.13,-176.68 1815.05,-148.59 1749.81,-136.87"/>
<polygon fill="midnightblue" stroke="midnightblue" points="1750.34,-133.41 1739.9,-135.19 1749.17,-140.31 1750.34,-133.41"/>
</g>
<!-- Node28 -->
<g id="node28" class="node">
<title>Node28</title>
<g id="a_node28"><a xlink:href="../../d2/d94/a00716.html" target="_top" xlink:title=" ">
<polygon fill="none" stroke="black" points="1649.63,-638.5 1649.63,-668.5 1806.63,-668.5 1806.63,-638.5 1649.63,-638.5"/>
<text text-anchor="start" x="1657.63" y="-656.5" font-family="Helvetica,sans-Serif" font-size="10.00">discordcoreapi/GuildMember</text>
<text text-anchor="middle" x="1728.13" y="-645.5" font-family="Helvetica,sans-Serif" font-size="10.00">Entities.hpp</text>
</a>
</g>
</g>
<!-- Node2&#45;&gt;Node28 -->
<g id="edge27" class="edge">
<title>Node2&#45;&gt;Node28</title>
<path fill="none" stroke="midnightblue" d="M1760.68,-705.48C1755.97,-698.09 1748.93,-687.08 1742.61,-677.17"/>
<polygon fill="midnightblue" stroke="midnightblue" points="1745.42,-675.07 1737.08,-668.52 1739.52,-678.83 1745.42,-675.07"/>
</g>
<!-- Node38 -->
<g id="node38" class="node">
<title>Node38</title>
<g id="a_node38"><a xlink:href="../../db/d7c/a00722.html" target="_top" xlink:title=" ">
<polygon fill="none" stroke="black" points="523.13,-291.5 523.13,-310.5 661.13,-310.5 661.13,-291.5 523.13,-291.5"/>
<text text-anchor="middle" x="592.13" y="-298.5" font-family="Helvetica,sans-Serif" font-size="10.00">discordcoreapi/Https.hpp</text>
</a>
</g>
</g>
<!-- Node2&#45;&gt;Node38 -->
<g id="edge68" class="edge">
<title>Node2&#45;&gt;Node38</title>
<path fill="none" stroke="midnightblue" d="M1680.9,-714.43C1405.03,-714.71 554.13,-706.4 554.13,-593 554.13,-593 554.13,-593 554.13,-412 554.13,-377.81 570.73,-340.76 581.99,-319.57"/>
<polygon fill="midnightblue" stroke="midnightblue" points="585.08,-321.22 586.84,-310.77 578.95,-317.83 585.08,-321.22"/>
</g>
<!-- Node4 -->
<g id="node4" class="node">
<title>Node4</title>
<g id="a_node4"><a xlink:href="../../d5/dae/a00767.html" target="_top" xlink:title=" ">
<polygon fill="none" stroke="black" points="1592.13,-56.5 1592.13,-75.5 1742.13,-75.5 1742.13,-56.5 1592.13,-56.5"/>
<text text-anchor="middle" x="1667.13" y="-63.5" font-family="Helvetica,sans-Serif" font-size="10.00">discordcoreapi/Utilities.hpp</text>
</a>
</g>
</g>
<!-- Node3&#45;&gt;Node4 -->
<g id="edge3" class="edge">
<title>Node3&#45;&gt;Node4</title>
<path fill="none" stroke="midnightblue" d="M1667.13,-112.4C1667.13,-104.47 1667.13,-94.46 1667.13,-85.86"/>
<polygon fill="midnightblue" stroke="midnightblue" points="1670.63,-85.66 1667.13,-75.66 1663.63,-85.66 1670.63,-85.66"/>
</g>
<!-- Node5 -->
<g id="node5" class="node">
<title>Node5</title>
<g id="a_node5"><a xlink:title=" ">
<polygon fill="none" stroke="#bfbfbf" points="587.63,-0.5 587.63,-19.5 650.63,-19.5 650.63,-0.5 587.63,-0.5"/>
<text text-anchor="middle" x="619.13" y="-7.5" font-family="Helvetica,sans-Serif" font-size="10.00">pthread.h</text>
</a>
</g>
</g>
<!-- Node4&#45;&gt;Node5 -->
<g id="edge4" class="edge">
<title>Node4&#45;&gt;Node5</title>
<path fill="none" stroke="midnightblue" d="M1591.78,-63.31C1393.37,-58.59 858.84,-44.11 660.84,-19.8"/>
<polygon fill="midnightblue" stroke="midnightblue" points="661.18,-16.31 650.82,-18.52 660.29,-23.26 661.18,-16.31"/>
</g>
<!-- Node6 -->
<g id="node6" class="node">
<title>Node6</title>
<g id="a_node6"><a xlink:title=" ">
<polygon fill="none" stroke="#bfbfbf" points="669.13,-0.5 669.13,-19.5 737.13,-19.5 737.13,-0.5 669.13,-0.5"/>
<text text-anchor="middle" x="703.13" y="-7.5" font-family="Helvetica,sans-Serif" font-size="10.00">sys/time.h</text>
</a>
</g>
</g>
<!-- Node4&#45;&gt;Node6 -->
<g id="edge5" class="edge">
<title>Node4&#45;&gt;Node6</title>
<path fill="none" stroke="midnightblue" d="M1591.86,-65.32C1435.97,-65.13 1066.39,-60.16 747.68,-19.98"/>
<polygon fill="midnightblue" stroke="midnightblue" points="747.68,-16.45 737.31,-18.66 746.79,-23.4 747.68,-16.45"/>
</g>
<!-- Node7 -->
<g id="node7" class="node">
<title>Node7</title>
<g id="a_node7"><a xlink:title=" ">
<polygon fill="none" stroke="#bfbfbf" points="755.13,-0.5 755.13,-19.5 803.13,-19.5 803.13,-0.5 755.13,-0.5"/>
<text text-anchor="middle" x="779.13" y="-7.5" font-family="Helvetica,sans-Serif" font-size="10.00">time.h</text>
</a>
</g>
</g>
<!-- Node4&#45;&gt;Node7 -->
<g id="edge6" class="edge">
<title>Node4&#45;&gt;Node7</title>
<path fill="none" stroke="midnightblue" d="M1591.85,-63.1C1415.67,-58.33 979.56,-44.55 813.24,-19.76"/>
<polygon fill="midnightblue" stroke="midnightblue" points="813.57,-16.27 803.15,-18.19 812.49,-23.19 813.57,-16.27"/>
</g>
<!-- Node8 -->
<g id="node8" class="node">
<title>Node8</title>
<g id="a_node8"><a xlink:title=" ">
<polygon fill="none" stroke="#bfbfbf" points="821.13,-0.5 821.13,-19.5 865.13,-19.5 865.13,-0.5 821.13,-0.5"/>
<text text-anchor="middle" x="843.13" y="-7.5" font-family="Helvetica,sans-Serif" font-size="10.00">ctime</text>
</a>
</g>
</g>
<!-- Node4&#45;&gt;Node8 -->
<g id="edge7" class="edge">
<title>Node4&#45;&gt;Node8</title>
<path fill="none" stroke="midnightblue" d="M1591.96,-62.9C1425.51,-57.91 1029.06,-44.04 875.53,-19.79"/>
<polygon fill="midnightblue" stroke="midnightblue" points="875.78,-16.28 865.34,-18.1 874.63,-23.19 875.78,-16.28"/>
</g>
<!-- Node9 -->
<g id="node9" class="node">
<title>Node9</title>
<g id="a_node9"><a xlink:title=" ">
<polygon fill="none" stroke="#bfbfbf" points="883.63,-0.5 883.63,-19.5 990.63,-19.5 990.63,-0.5 883.63,-0.5"/>
<text text-anchor="middle" x="937.13" y="-7.5" font-family="Helvetica,sans-Serif" font-size="10.00">condition_variable</text>
</a>
</g>
</g>
<!-- Node4&#45;&gt;Node9 -->
<g id="edge8" class="edge">
<title>Node4&#45;&gt;Node9</title>
<path fill="none" stroke="midnightblue" d="M1591.95,-61.76C1470.15,-56.1 1221.91,-42.89 1000.88,-19.99"/>
<polygon fill="midnightblue" stroke="midnightblue" points="1001.02,-16.49 990.71,-18.93 1000.29,-23.45 1001.02,-16.49"/>
</g>
<!-- Node10 -->
<g id="node10" class="node">
<title>Node10</title>
<g id="a_node10"><a xlink:title=" ">
<polygon fill="none" stroke="#bfbfbf" points="1009.13,-0.5 1009.13,-19.5 1119.13,-19.5 1119.13,-0.5 1009.13,-0.5"/>
<text text-anchor="middle" x="1064.13" y="-7.5" font-family="Helvetica,sans-Serif" font-size="10.00">nlohmann/json.hpp</text>
</a>
</g>
</g>
<!-- Node4&#45;&gt;Node10 -->
<g id="edge9" class="edge">
<title>Node4&#45;&gt;Node10</title>
<path fill="none" stroke="midnightblue" d="M1592.01,-60.07C1489.72,-53.06 1300.67,-39.04 1129.23,-20.06"/>
<polygon fill="midnightblue" stroke="midnightblue" points="1129.59,-16.58 1119.26,-18.95 1128.81,-23.54 1129.59,-16.58"/>
</g>
<!-- Node11 -->
<g id="node11" class="node">
<title>Node11</title>
<g id="a_node11"><a xlink:title=" ">
<polygon fill="none" stroke="#bfbfbf" points="1137.63,-0.5 1137.63,-19.5 1230.63,-19.5 1230.63,-0.5 1137.63,-0.5"/>
<text text-anchor="middle" x="1184.13" y="-7.5" font-family="Helvetica,sans-Serif" font-size="10.00">source_location</text>
</a>
</g>
</g>
<!-- Node4&#45;&gt;Node11 -->
<g id="edge10" class="edge">
<title>Node4&#45;&gt;Node11</title>
<path fill="none" stroke="midnightblue" d="M1591.98,-58.42C1508.56,-50.81 1369.7,-37.27 1240.95,-20.18"/>
<polygon fill="midnightblue" stroke="midnightblue" points="1241.28,-16.7 1230.91,-18.84 1240.36,-23.64 1241.28,-16.7"/>
</g>
<!-- Node12 -->
<g id="node12" class="node">
<title>Node12</title>
<g id="a_node12"><a xlink:title=" ">
<polygon fill="none" stroke="#bfbfbf" points="1248.63,-0.5 1248.63,-19.5 1341.63,-19.5 1341.63,-0.5 1248.63,-0.5"/>
<text text-anchor="middle" x="1295.13" y="-7.5" font-family="Helvetica,sans-Serif" font-size="10.00">unordered_map</text>
</a>
</g>
</g>
<!-- Node4&#45;&gt;Node12 -->
<g id="edge11" class="edge">
<title>Node4&#45;&gt;Node12</title>
<path fill="none" stroke="midnightblue" d="M1605.02,-56.49C1543.44,-47.98 1446.13,-34.32 1351.86,-20.09"/>
<polygon fill="midnightblue" stroke="midnightblue" points="1352.28,-16.61 1341.87,-18.58 1351.23,-23.53 1352.28,-16.61"/>
</g>
<!-- Node13 -->
<g id="node13" class="node">
<title>Node13</title>
<g id="a_node13"><a xlink:title=" ">
<polygon fill="none" stroke="#bfbfbf" points="1360.13,-0.5 1360.13,-19.5 1446.13,-19.5 1446.13,-0.5 1360.13,-0.5"/>
<text text-anchor="middle" x="1403.13" y="-7.5" font-family="Helvetica,sans-Serif" font-size="10.00">shared_mutex</text>
</a>
</g>
</g>
<!-- Node4&#45;&gt;Node13 -->
<g id="edge12" class="edge">
<title>Node4&#45;&gt;Node13</title>
<path fill="none" stroke="midnightblue" d="M1625.3,-56.44C1579.05,-46.98 1504.52,-31.74 1454.69,-21.55"/>
<polygon fill="midnightblue" stroke="midnightblue" points="1455.26,-18.09 1444.76,-19.52 1453.86,-24.95 1455.26,-18.09"/>
</g>
<!-- Node14 -->
<g id="node14" class="node">
<title>Node14</title>
<g id="a_node14"><a xlink:title=" ">
<polygon fill="none" stroke="#bfbfbf" points="1464.63,-0.5 1464.63,-19.5 1529.63,-19.5 1529.63,-0.5 1464.63,-0.5"/>
<text text-anchor="middle" x="1497.13" y="-7.5" font-family="Helvetica,sans-Serif" font-size="10.00">functional</text>
</a>
</g>
</g>
<!-- Node4&#45;&gt;Node14 -->
<g id="edge13" class="edge">
<title>Node4&#45;&gt;Node14</title>
<path fill="none" stroke="midnightblue" d="M1640.19,-56.44C1611.47,-47.32 1565.8,-32.81 1533.81,-22.65"/>
<polygon fill="midnightblue" stroke="midnightblue" points="1534.53,-19.21 1523.94,-19.52 1532.41,-25.88 1534.53,-19.21"/>
</g>
<!-- Node15 -->
<g id="node15" class="node">
<title>Node15</title>
<g id="a_node15"><a xlink:title=" ">
<polygon fill="none" stroke="#bfbfbf" points="1547.63,-0.5 1547.63,-19.5 1618.63,-19.5 1618.63,-0.5 1547.63,-0.5"/>
<text text-anchor="middle" x="1583.13" y="-7.5" font-family="Helvetica,sans-Serif" font-size="10.00">semaphore</text>
</a>
</g>
</g>
<!-- Node4&#45;&gt;Node15 -->
<g id="edge14" class="edge">
<title>Node4&#45;&gt;Node15</title>
<path fill="none" stroke="midnightblue" d="M1653.63,-56.32C1640.53,-47.9 1620.42,-34.97 1605.02,-25.07"/>
<polygon fill="midnightblue" stroke="midnightblue" points="1606.9,-22.12 1596.59,-19.65 1603.11,-28.01 1606.9,-22.12"/>
</g>
<!-- Node16 -->
<g id="node16" class="node">
<title>Node16</title>
<g id="a_node16"><a xlink:title=" ">
<polygon fill="none" stroke="#bfbfbf" points="1637.13,-0.5 1637.13,-19.5 1697.13,-19.5 1697.13,-0.5 1637.13,-0.5"/>
<text text-anchor="middle" x="1667.13" y="-7.5" font-family="Helvetica,sans-Serif" font-size="10.00">concepts</text>
</a>
</g>
</g>
<!-- Node4&#45;&gt;Node16 -->
<g id="edge15" class="edge">
<title>Node4&#45;&gt;Node16</title>
<path fill="none" stroke="midnightblue" d="M1667.13,-56.08C1667.13,-49.01 1667.13,-38.86 1667.13,-29.99"/>
<polygon fill="midnightblue" stroke="midnightblue" points="1670.63,-29.75 1667.13,-19.75 1663.63,-29.75 1670.63,-29.75"/>
</g>
<!-- Node17 -->
<g id="node17" class="node">
<title>Node17</title>
<g id="a_node17"><a xlink:title=" ">
<polygon fill="none" stroke="#bfbfbf" points="1715.13,-0.5 1715.13,-19.5 1775.13,-19.5 1775.13,-0.5 1715.13,-0.5"/>
<text text-anchor="middle" x="1745.13" y="-7.5" font-family="Helvetica,sans-Serif" font-size="10.00">iostream</text>
</a>
</g>
</g>
<!-- Node4&#45;&gt;Node17 -->
<g id="edge16" class="edge">
<title>Node4&#45;&gt;Node17</title>
<path fill="none" stroke="midnightblue" d="M1679.66,-56.32C1691.71,-47.98 1710.16,-35.21 1724.4,-25.35"/>
<polygon fill="midnightblue" stroke="midnightblue" points="1726.4,-28.22 1732.63,-19.65 1722.41,-22.47 1726.4,-28.22"/>
</g>
<!-- Node18 -->
<g id="node18" class="node">
<title>Node18</title>
<g id="a_node18"><a xlink:title=" ">
<polygon fill="none" stroke="#bfbfbf" points="1793.63,-0.5 1793.63,-19.5 1848.63,-19.5 1848.63,-0.5 1793.63,-0.5"/>
<text text-anchor="middle" x="1821.13" y="-7.5" font-family="Helvetica,sans-Serif" font-size="10.00">fstream</text>
</a>
</g>
</g>
<!-- Node4&#45;&gt;Node18 -->
<g id="edge17" class="edge">
<title>Node4&#45;&gt;Node18</title>
<path fill="none" stroke="midnightblue" d="M1691.53,-56.44C1717.32,-47.4 1758.2,-33.06 1787.15,-22.92"/>
<polygon fill="midnightblue" stroke="midnightblue" points="1788.56,-26.13 1796.84,-19.52 1786.25,-19.52 1788.56,-26.13"/>
</g>
<!-- Node19 -->
<g id="node19" class="node">
<title>Node19</title>
<g id="a_node19"><a xlink:title=" ">
<polygon fill="none" stroke="#bfbfbf" points="1867.13,-0.5 1867.13,-19.5 1911.13,-19.5 1911.13,-0.5 1867.13,-0.5"/>
<text text-anchor="middle" x="1889.13" y="-7.5" font-family="Helvetica,sans-Serif" font-size="10.00">bitset</text>
</a>
</g>
</g>
<!-- Node4&#45;&gt;Node19 -->
<g id="edge18" class="edge">
<title>Node4&#45;&gt;Node19</title>
<path fill="none" stroke="midnightblue" d="M1705.09,-56.5C1743.53,-47.77 1804.62,-33.6 1857.13,-20 1857.23,-19.97 1857.33,-19.95 1857.43,-19.92"/>
<polygon fill="midnightblue" stroke="midnightblue" points="1858.38,-23.29 1867.13,-17.32 1856.56,-16.53 1858.38,-23.29"/>
</g>
<!-- Node20 -->
<g id="node20" class="node">
<title>Node20</title>
<g id="a_node20"><a xlink:title=" ">
<polygon fill="none" stroke="#bfbfbf" points="1929.13,-0.5 1929.13,-19.5 1987.13,-19.5 1987.13,-0.5 1929.13,-0.5"/>
<text text-anchor="middle" x="1958.13" y="-7.5" font-family="Helvetica,sans-Serif" font-size="10.00">memory</text>
</a>
</g>
</g>
<!-- Node4&#45;&gt;Node20 -->
<g id="edge19" class="edge">
<title>Node4&#45;&gt;Node20</title>
<path fill="none" stroke="midnightblue" d="M1720.11,-56.47C1769.21,-48.37 1844.51,-35.43 1919.08,-20.12"/>
<polygon fill="midnightblue" stroke="midnightblue" points="1920.04,-23.5 1929.12,-18.05 1918.62,-16.65 1920.04,-23.5"/>
</g>
<!-- Node21 -->
<g id="node21" class="node">
<title>Node21</title>
<g id="a_node21"><a xlink:title=" ">
<polygon fill="none" stroke="#bfbfbf" points="2005.13,-0.5 2005.13,-19.5 2059.13,-19.5 2059.13,-0.5 2005.13,-0.5"/>
<text text-anchor="middle" x="2032.13" y="-7.5" font-family="Helvetica,sans-Serif" font-size="10.00">random</text>
</a>
</g>
</g>
<!-- Node4&#45;&gt;Node21 -->
<g id="edge20" class="edge">
<title>Node4&#45;&gt;Node21</title>
<path fill="none" stroke="midnightblue" d="M1742.31,-57.08C1806.89,-49.74 1902.64,-37.56 1994.99,-20.04"/>
<polygon fill="midnightblue" stroke="midnightblue" points="1995.91,-23.42 2005.07,-18.1 1994.59,-16.55 1995.91,-23.42"/>
</g>
<!-- Node22 -->
<g id="node22" class="node">
<title>Node22</title>
<g id="a_node22"><a xlink:title=" ">
<polygon fill="none" stroke="#bfbfbf" points="2077.13,-0.5 2077.13,-19.5 2121.13,-19.5 2121.13,-0.5 2077.13,-0.5"/>
<text text-anchor="middle" x="2099.13" y="-7.5" font-family="Helvetica,sans-Serif" font-size="10.00">string</text>
</a>
</g>
</g>
<!-- Node4&#45;&gt;Node22 -->
<g id="edge21" class="edge">
<title>Node4&#45;&gt;Node22</title>
<path fill="none" stroke="midnightblue" d="M1742.36,-60.41C1821.17,-54.73 1948.6,-43.09 2066.93,-19.93"/>
<polygon fill="midnightblue" stroke="midnightblue" points="2067.77,-23.33 2076.89,-17.95 2066.4,-16.47 2067.77,-23.33"/>
</g>
<!-- Node23 -->
<g id="node23" class="node">
<title>Node23</title>
<g id="a_node23"><a xlink:title=" ">
<polygon fill="none" stroke="#bfbfbf" points="2139.63,-0.5 2139.63,-19.5 2186.63,-19.5 2186.63,-0.5 2139.63,-0.5"/>
<text text-anchor="middle" x="2163.13" y="-7.5" font-family="Helvetica,sans-Serif" font-size="10.00">vector</text>
</a>
</g>
</g>
<!-- Node4&#45;&gt;Node23 -->
<g id="edge22" class="edge">
<title>Node4&#45;&gt;Node23</title>
<path fill="none" stroke="midnightblue" d="M1742.25,-61.61C1832.13,-56.69 1987.21,-45.41 2129.24,-19.84"/>
<polygon fill="midnightblue" stroke="midnightblue" points="2130.24,-23.22 2139.45,-17.97 2128.98,-16.33 2130.24,-23.22"/>
</g>
<!-- Node24 -->
<g id="node24" class="node">
<title>Node24</title>
<g id="a_node24"><a xlink:title=" ">
<polygon fill="none" stroke="#bfbfbf" points="2205.13,-0.5 2205.13,-19.5 2253.13,-19.5 2253.13,-0.5 2205.13,-0.5"/>
<text text-anchor="middle" x="2229.13" y="-7.5" font-family="Helvetica,sans-Serif" font-size="10.00">thread</text>
</a>
</g>
</g>
<!-- Node4&#45;&gt;Node24 -->
<g id="edge23" class="edge">
<title>Node4&#45;&gt;Node24</title>
<path fill="none" stroke="midnightblue" d="M1742.41,-62.69C1845.32,-58.61 2035.37,-47.74 2195.13,-20 2195.23,-19.98 2195.33,-19.96 2195.43,-19.95"/>
<polygon fill="midnightblue" stroke="midnightblue" points="2196.03,-23.4 2205.1,-17.91 2194.59,-16.55 2196.03,-23.4"/>
</g>
<!-- Node25 -->
<g id="node25" class="node">
<title>Node25</title>
<g id="a_node25"><a xlink:title=" ">
<polygon fill="none" stroke="#bfbfbf" points="2271.13,-0.5 2271.13,-19.5 2319.13,-19.5 2319.13,-0.5 2271.13,-0.5"/>
<text text-anchor="middle" x="2295.13" y="-7.5" font-family="Helvetica,sans-Serif" font-size="10.00">mutex</text>
</a>
</g>
</g>
<!-- Node4&#45;&gt;Node25 -->
<g id="edge24" class="edge">
<title>Node4&#45;&gt;Node25</title>
<path fill="none" stroke="midnightblue" d="M1742.36,-63.9C1853.88,-61.25 2069.57,-52.24 2261.13,-19.84"/>
<polygon fill="midnightblue" stroke="midnightblue" points="2261.83,-23.27 2271.1,-18.12 2260.65,-16.37 2261.83,-23.27"/>
</g>
<!-- Node26 -->
<g id="node26" class="node">
<title>Node26</title>
<g id="a_node26"><a xlink:title=" ">
<polygon fill="none" stroke="#bfbfbf" points="2337.63,-0.5 2337.63,-19.5 2384.63,-19.5 2384.63,-0.5 2337.63,-0.5"/>
<text text-anchor="middle" x="2361.13" y="-7.5" font-family="Helvetica,sans-Serif" font-size="10.00">queue</text>
</a>
</g>
</g>
<!-- Node4&#45;&gt;Node26 -->
<g id="edge25" class="edge">
<title>Node4&#45;&gt;Node26</title>
<path fill="none" stroke="midnightblue" d="M1742.54,-64.71C1864,-63.18 2110.41,-55.67 2327.47,-19.74"/>
<polygon fill="midnightblue" stroke="midnightblue" points="2328.18,-23.17 2337.46,-18.06 2327.02,-16.26 2328.18,-23.17"/>
</g>
<!-- Node27 -->
<g id="node27" class="node">
<title>Node27</title>
<g id="a_node27"><a xlink:title=" ">
<polygon fill="none" stroke="#bfbfbf" points="2403.13,-0.5 2403.13,-19.5 2441.13,-19.5 2441.13,-0.5 2403.13,-0.5"/>
<text text-anchor="middle" x="2422.13" y="-7.5" font-family="Helvetica,sans-Serif" font-size="10.00">map</text>
</a>
</g>
</g>
<!-- Node4&#45;&gt;Node27 -->
<g id="edge26" class="edge">
<title>Node4&#45;&gt;Node27</title>
<path fill="none" stroke="midnightblue" d="M1742.32,-62.72C1898.19,-57.61 2252.99,-43.94 2392.92,-19.68"/>
<polygon fill="midnightblue" stroke="midnightblue" points="2393.8,-23.08 2403.01,-17.84 2392.55,-16.19 2393.8,-23.08"/>
</g>
<!-- Node28&#45;&gt;Node3 -->
<g id="edge28" class="edge">
<title>Node28&#45;&gt;Node3</title>
<path fill="none" stroke="midnightblue" d="M1756.31,-638.5C1771.04,-629.85 1788.23,-617.45 1799.13,-602 1817.91,-575.39 1819.13,-564.07 1819.13,-531.5 1819.13,-531.5 1819.13,-531.5 1819.13,-244 1819.13,-194.55 1767.49,-163.5 1724.41,-146.21"/>
<polygon fill="midnightblue" stroke="midnightblue" points="1725.39,-142.84 1714.8,-142.52 1722.88,-149.37 1725.39,-142.84"/>
</g>
<!-- Node29 -->
<g id="node29" class="node">
<title>Node29</title>
<g id="a_node29"><a xlink:href="../../d3/d2c/a00764.html" target="_top" xlink:title=" ">
<polygon fill="none" stroke="black" points="1619.63,-582.5 1619.63,-601.5 1790.63,-601.5 1790.63,-582.5 1619.63,-582.5"/>
<text text-anchor="middle" x="1705.13" y="-589.5" font-family="Helvetica,sans-Serif" font-size="10.00">discordcoreapi/UserEntities.hpp</text>
</a>
</g>
</g>
<!-- Node28&#45;&gt;Node29 -->
<g id="edge29" class="edge">
<title>Node28&#45;&gt;Node29</title>
<path fill="none" stroke="midnightblue" d="M1722.68,-638.4C1719.51,-630.2 1715.48,-619.78 1712.08,-610.99"/>
<polygon fill="midnightblue" stroke="midnightblue" points="1715.35,-609.72 1708.47,-601.66 1708.82,-612.25 1715.35,-609.72"/>
</g>
<!-- Node28&#45;&gt;Node38 -->
<g id="edge67" class="edge">
<title>Node28&#45;&gt;Node38</title>
<path fill="none" stroke="midnightblue" d="M1649.6,-652.38C1392.46,-650.98 592.13,-638.04 592.13,-531.5 592.13,-531.5 592.13,-531.5 592.13,-412 592.13,-379.95 592.13,-342.64 592.13,-320.75"/>
<polygon fill="midnightblue" stroke="midnightblue" points="595.63,-320.56 592.13,-310.56 588.63,-320.56 595.63,-320.56"/>
</g>
<!-- Node29&#45;&gt;Node3 -->
<g id="edge30" class="edge">
<title>Node29&#45;&gt;Node3</title>
<path fill="none" stroke="midnightblue" d="M1715.38,-582.47C1736.12,-564.18 1781.13,-518.87 1781.13,-470 1781.13,-470 1781.13,-470 1781.13,-244 1781.13,-200.22 1739.13,-167.03 1706.11,-147.71"/>
<polygon fill="midnightblue" stroke="midnightblue" points="1707.51,-144.48 1697.08,-142.63 1704.08,-150.58 1707.51,-144.48"/>
</g>
<!-- Node30 -->
<g id="node30" class="node">
<title>Node30</title>
<g id="a_node30"><a xlink:href="../../d9/dd4/a00776.html" target="_top" xlink:title=" ">
<polygon fill="none" stroke="black" points="1249.13,-515.5 1249.13,-545.5 1393.13,-545.5 1393.13,-515.5 1249.13,-515.5"/>
<text text-anchor="start" x="1257.13" y="-533.5" font-family="Helvetica,sans-Serif" font-size="10.00">discordcoreapi/WebSocket</text>
<text text-anchor="middle" x="1321.13" y="-522.5" font-family="Helvetica,sans-Serif" font-size="10.00">Entities.hpp</text>
</a>
</g>
</g>
<!-- Node29&#45;&gt;Node30 -->
<g id="edge31" class="edge">
<title>Node29&#45;&gt;Node30</title>
<path fill="none" stroke="midnightblue" d="M1650.11,-582.48C1585.64,-572.49 1478.17,-555.83 1403.69,-544.29"/>
<polygon fill="midnightblue" stroke="midnightblue" points="1403.83,-540.77 1393.41,-542.7 1402.76,-547.69 1403.83,-540.77"/>
</g>
<!-- Node30&#45;&gt;Node3 -->
<g id="edge32" class="edge">
<title>Node30&#45;&gt;Node3</title>
<path fill="none" stroke="midnightblue" d="M1249.06,-522.48C951.11,-492.16 -160.69,-365.45 20.13,-179 47.62,-150.65 1253.47,-133.63 1584.07,-129.49"/>
<polygon fill="midnightblue" stroke="midnightblue" points="1584.57,-132.99 1594.52,-129.36 1584.48,-125.99 1584.57,-132.99"/>
</g>
<!-- Node31 -->
<g id="node31" class="node">
<title>Node31</title>
<g id="a_node31"><a xlink:href="../../d4/d9b/a00680.html" target="_top" xlink:title=" ">
<polygon fill="none" stroke="black" points="1212.63,-235.5 1212.63,-254.5 1391.63,-254.5 1391.63,-235.5 1212.63,-235.5"/>
<text text-anchor="middle" x="1302.13" y="-242.5" font-family="Helvetica,sans-Serif" font-size="10.00">discordcoreapi/AudioDecoder.hpp</text>
</a>
</g>
</g>
<!-- Node30&#45;&gt;Node31 -->
<g id="edge33" class="edge">
<title>Node30&#45;&gt;Node31</title>
<path fill="none" stroke="midnightblue" d="M1317.28,-515.4C1311.73,-493.76 1302.13,-450.99 1302.13,-414 1302.13,-414 1302.13,-414 1302.13,-356 1302.13,-323.95 1302.13,-286.64 1302.13,-264.75"/>
<polygon fill="midnightblue" stroke="midnightblue" points="1305.63,-264.56 1302.13,-254.56 1298.63,-264.56 1305.63,-264.56"/>
</g>
<!-- Node32 -->
<g id="node32" class="node">
<title>Node32</title>
<g id="a_node32"><a xlink:href="../../d4/d6a/a00704.html" target="_top" xlink:title=" ">
<polygon fill="none" stroke="black" points="1061.13,-179.5 1061.13,-198.5 1237.13,-198.5 1237.13,-179.5 1061.13,-179.5"/>
<text text-anchor="middle" x="1149.13" y="-186.5" font-family="Helvetica,sans-Serif" font-size="10.00">discordcoreapi/EventEntities.hpp</text>
</a>
</g>
</g>
<!-- Node30&#45;&gt;Node32 -->
<g id="edge64" class="edge">
<title>Node30&#45;&gt;Node32</title>
<path fill="none" stroke="midnightblue" d="M1268.74,-515.48C1222.08,-499.44 1161.13,-468.13 1161.13,-414 1161.13,-414 1161.13,-414 1161.13,-300 1161.13,-267.76 1155.97,-230.51 1152.42,-208.68"/>
<polygon fill="midnightblue" stroke="midnightblue" points="1155.82,-207.8 1150.7,-198.52 1148.92,-208.97 1155.82,-207.8"/>
</g>
<!-- Node35 -->
<g id="node35" class="node">
<title>Node35</title>
<g id="a_node35"><a xlink:href="../../d0/db6/a00692.html" target="_top" xlink:title=" ">
<polygon fill="none" stroke="black" points="1368.63,-459.5 1368.63,-478.5 1577.63,-478.5 1577.63,-459.5 1368.63,-459.5"/>
<text text-anchor="middle" x="1473.13" y="-466.5" font-family="Helvetica,sans-Serif" font-size="10.00">discordcoreapi/CommandController.hpp</text>
</a>
</g>
</g>
<!-- Node30&#45;&gt;Node35 -->
<g id="edge39" class="edge">
<title>Node30&#45;&gt;Node35</title>
<path fill="none" stroke="midnightblue" d="M1357.15,-515.4C1382.77,-505.37 1416.85,-492.03 1441.44,-482.4"/>
<polygon fill="midnightblue" stroke="midnightblue" points="1442.97,-485.56 1451.01,-478.66 1440.42,-479.04 1442.97,-485.56"/>
</g>
<!-- Node37 -->
<g id="node37" class="node">
<title>Node37</title>
<g id="a_node37"><a xlink:href="../../d3/d4f/a00761.html" target="_top" xlink:title=" ">
<polygon fill="none" stroke="black" points="1416.63,-347.5 1416.63,-366.5 1583.63,-366.5 1583.63,-347.5 1416.63,-347.5"/>
<text text-anchor="middle" x="1500.13" y="-354.5" font-family="Helvetica,sans-Serif" font-size="10.00">discordcoreapi/ThreadPool.hpp</text>
</a>
</g>
</g>
<!-- Node30&#45;&gt;Node37 -->
<g id="edge66" class="edge">
<title>Node30&#45;&gt;Node37</title>
<path fill="none" stroke="midnightblue" d="M1327.29,-515.16C1339.17,-489.13 1367.71,-433.95 1408.13,-403 1425.96,-389.35 1448.59,-378.21 1466.94,-370.44"/>
<polygon fill="midnightblue" stroke="midnightblue" points="1468.45,-373.6 1476.37,-366.57 1465.79,-367.12 1468.45,-373.6"/>
</g>
<!-- Node39 -->
<g id="node39" class="node">
<title>Node39</title>
<g id="a_node39"><a xlink:href="../../d5/de8/a00749.html" target="_top" xlink:title=" ">
<polygon fill="none" stroke="black" points="510.63,-235.5 510.63,-254.5 673.63,-254.5 673.63,-235.5 510.63,-235.5"/>
<text text-anchor="middle" x="592.13" y="-242.5" font-family="Helvetica,sans-Serif" font-size="10.00">discordcoreapi/SSLClients.hpp</text>
</a>
</g>
</g>
<!-- Node30&#45;&gt;Node39 -->
<g id="edge65" class="edge">
<title>Node30&#45;&gt;Node39</title>
<path fill="none" stroke="midnightblue" d="M1249.05,-523.42C1134.36,-511.73 923.13,-481.09 923.13,-414 923.13,-414 923.13,-414 923.13,-356 923.13,-302.85 767.5,-270.87 669.67,-256.02"/>
<polygon fill="midnightblue" stroke="midnightblue" points="669.92,-252.52 659.51,-254.5 668.89,-259.44 669.92,-252.52"/>
</g>
<!-- Node53 -->
<g id="node53" class="node">
<title>Node53</title>
<g id="a_node53"><a xlink:href="../../dd/d57/a00701.html" target="_top" xlink:title=" ">
<polygon fill="none" stroke="black" points="1597.63,-403.5 1597.63,-422.5 1752.63,-422.5 1752.63,-403.5 1597.63,-403.5"/>
<text text-anchor="middle" x="1675.13" y="-410.5" font-family="Helvetica,sans-Serif" font-size="10.00">discordcoreapi/ErlPacker.hpp</text>
</a>
</g>
</g>
<!-- Node30&#45;&gt;Node53 -->
<g id="edge62" class="edge">
<title>Node30&#45;&gt;Node53</title>
<path fill="none" stroke="midnightblue" d="M1393.39,-524.38C1448.15,-518.48 1524.26,-505.86 1586.13,-479 1613.93,-466.93 1641.4,-444.92 1658.3,-429.88"/>
<polygon fill="midnightblue" stroke="midnightblue" points="1661.1,-432.07 1666.13,-422.74 1656.38,-426.9 1661.1,-432.07"/>
</g>
<!-- Node31&#45;&gt;Node3 -->
<g id="edge36" class="edge">
<title>Node31&#45;&gt;Node3</title>
<path fill="none" stroke="midnightblue" d="M1295.29,-235.31C1285.44,-221.69 1269.92,-195.2 1284.13,-179 1303.59,-156.8 1477.45,-141.25 1584.13,-133.7"/>
<polygon fill="midnightblue" stroke="midnightblue" points="1584.5,-137.19 1594.23,-133 1584.01,-130.2 1584.5,-137.19"/>
</g>
<!-- Node31&#45;&gt;Node32 -->
<g id="edge34" class="edge">
<title>Node31&#45;&gt;Node32</title>
<path fill="none" stroke="midnightblue" d="M1277.88,-235.44C1252.26,-226.4 1211.64,-212.06 1182.89,-201.92"/>
<polygon fill="midnightblue" stroke="midnightblue" points="1183.85,-198.54 1173.26,-198.52 1181.52,-205.15 1183.85,-198.54"/>
</g>
<!-- Node33 -->
<g id="node33" class="node">
<title>Node33</title>
<g id="a_node33"><a xlink:title=" ">
<polygon fill="none" stroke="#bfbfbf" points="1293.63,-179.5 1293.63,-198.5 1424.63,-198.5 1424.63,-179.5 1293.63,-179.5"/>
<text text-anchor="middle" x="1359.13" y="-186.5" font-family="Helvetica,sans-Serif" font-size="10.00">libavformat/avformat.h</text>
</a>
</g>
</g>
<!-- Node31&#45;&gt;Node33 -->
<g id="edge37" class="edge">
<title>Node31&#45;&gt;Node33</title>
<path fill="none" stroke="midnightblue" d="M1311.29,-235.32C1319.63,-227.42 1332.16,-215.55 1342.31,-205.94"/>
<polygon fill="midnightblue" stroke="midnightblue" points="1344.95,-208.25 1349.8,-198.83 1340.14,-203.17 1344.95,-208.25"/>
</g>
<!-- Node34 -->
<g id="node34" class="node">
<title>Node34</title>
<g id="a_node34"><a xlink:title=" ">
<polygon fill="none" stroke="#bfbfbf" points="1442.63,-179.5 1442.63,-198.5 1601.63,-198.5 1601.63,-179.5 1442.63,-179.5"/>
<text text-anchor="middle" x="1522.13" y="-186.5" font-family="Helvetica,sans-Serif" font-size="10.00">libswresample/swresample.h</text>
</a>
</g>
</g>
<!-- Node31&#45;&gt;Node34 -->
<g id="edge38" class="edge">
<title>Node31&#45;&gt;Node34</title>
<path fill="none" stroke="midnightblue" d="M1336.99,-235.44C1375.04,-226.1 1436.09,-211.12 1477.59,-200.93"/>
<polygon fill="midnightblue" stroke="midnightblue" points="1478.55,-204.3 1487.43,-198.52 1476.89,-197.5 1478.55,-204.3"/>
</g>
<!-- Node32&#45;&gt;Node3 -->
<g id="edge35" class="edge">
<title>Node32&#45;&gt;Node3</title>
<path fill="none" stroke="midnightblue" d="M1223.34,-179.48C1318.95,-168.49 1484.66,-149.46 1584.28,-138.02"/>
<polygon fill="midnightblue" stroke="midnightblue" points="1584.77,-141.48 1594.3,-136.87 1583.97,-134.53 1584.77,-141.48"/>
</g>
<!-- Node35&#45;&gt;Node3 -->
<g id="edge40" class="edge">
<title>Node35&#45;&gt;Node3</title>
<path fill="none" stroke="midnightblue" d="M1451.41,-459.4C1436.32,-452.15 1417.33,-440.18 1408.13,-423 1392.18,-393.22 1391.82,-377.11 1407.13,-347 1457.74,-247.47 1529.23,-275.96 1610.13,-199 1625.52,-184.36 1640.53,-165.55 1651.28,-151.05"/>
<polygon fill="midnightblue" stroke="midnightblue" points="1654.34,-152.8 1657.39,-142.65 1648.67,-148.68 1654.34,-152.8"/>
</g>
<!-- Node35&#45;&gt;Node36 -->
<g id="edge41" class="edge">
<title>Node35&#45;&gt;Node36</title>
<path fill="none" stroke="midnightblue" d="M1477.26,-459.08C1480.64,-451.77 1485.54,-441.18 1489.75,-432.1"/>
<polygon fill="midnightblue" stroke="midnightblue" points="1493.05,-433.3 1494.08,-422.75 1486.7,-430.36 1493.05,-433.3"/>
</g>
<!-- Node36&#45;&gt;Node3 -->
<g id="edge42" class="edge">
<title>Node36&#45;&gt;Node3</title>
<path fill="none" stroke="midnightblue" d="M1569.95,-403.49C1629.73,-391.92 1705.13,-364.88 1705.13,-302 1705.13,-302 1705.13,-302 1705.13,-244 1705.13,-210.72 1690.71,-174.62 1679.64,-151.8"/>
<polygon fill="midnightblue" stroke="midnightblue" points="1682.63,-149.95 1675,-142.59 1676.38,-153.1 1682.63,-149.95"/>
</g>
<!-- Node36&#45;&gt;Node37 -->
<g id="edge43" class="edge">
<title>Node36&#45;&gt;Node37</title>
<path fill="none" stroke="midnightblue" d="M1498.46,-403.08C1498.72,-396.01 1499.1,-385.86 1499.42,-376.99"/>
<polygon fill="midnightblue" stroke="midnightblue" points="1502.93,-376.87 1499.8,-366.75 1495.94,-376.61 1502.93,-376.87"/>
</g>
<!-- Node37&#45;&gt;Node3 -->
<g id="edge44" class="edge">
<title>Node37&#45;&gt;Node3</title>
<path fill="none" stroke="midnightblue" d="M1510.7,-347.21C1536.78,-325.01 1604.88,-263.76 1643.13,-199 1651.62,-184.63 1657.65,-166.82 1661.54,-152.7"/>
<polygon fill="midnightblue" stroke="midnightblue" points="1665,-153.3 1664.11,-142.74 1658.22,-151.55 1665,-153.3"/>
</g>
<!-- Node37&#45;&gt;Node38 -->
<g id="edge45" class="edge">
<title>Node37&#45;&gt;Node38</title>
<path fill="none" stroke="midnightblue" d="M1416.33,-351.02C1241.87,-340.64 841.73,-316.84 671.32,-306.71"/>
<polygon fill="midnightblue" stroke="midnightblue" points="671.36,-303.21 661.17,-306.11 670.94,-310.19 671.36,-303.21"/>
</g>
<!-- Node52 -->
<g id="node52" class="node">
<title>Node52</title>
<g id="a_node52"><a xlink:title=" ">
<polygon fill="none" stroke="#bfbfbf" points="1615.13,-291.5 1615.13,-310.5 1677.13,-310.5 1677.13,-291.5 1615.13,-291.5"/>
<text text-anchor="middle" x="1646.13" y="-298.5" font-family="Helvetica,sans-Serif" font-size="10.00">coroutine</text>
</a>
</g>
</g>
<!-- Node37&#45;&gt;Node52 -->
<g id="edge61" class="edge">
<title>Node37&#45;&gt;Node52</title>
<path fill="none" stroke="midnightblue" d="M1523.26,-347.44C1547.61,-338.44 1586.14,-324.19 1613.55,-314.05"/>
<polygon fill="midnightblue" stroke="midnightblue" points="1614.94,-317.27 1623.1,-310.52 1612.51,-310.7 1614.94,-317.27"/>
</g>
<!-- Node38&#45;&gt;Node39 -->
<g id="edge46" class="edge">
<title>Node38&#45;&gt;Node39</title>
<path fill="none" stroke="midnightblue" d="M592.13,-291.08C592.13,-284.01 592.13,-273.86 592.13,-264.99"/>
<polygon fill="midnightblue" stroke="midnightblue" points="595.63,-264.75 592.13,-254.75 588.63,-264.75 595.63,-264.75"/>
</g>
<!-- Node39&#45;&gt;Node3 -->
<g id="edge47" class="edge">
<title>Node39&#45;&gt;Node3</title>
<path fill="none" stroke="midnightblue" d="M510.58,-243.47C362.16,-241.65 60.16,-233.69 28.13,-199 22.1,-192.47 21.94,-185.38 28.13,-179 55.48,-150.8 1254.8,-133.68 1584.19,-129.5"/>
<polygon fill="midnightblue" stroke="midnightblue" points="1584.66,-133 1594.61,-129.37 1584.57,-126 1584.66,-133"/>
</g>
<!-- Node39&#45;&gt;Node32 -->
<g id="edge48" class="edge">
<title>Node39&#45;&gt;Node32</title>
<path fill="none" stroke="midnightblue" d="M673.72,-236.09C773.98,-226.37 943.94,-209.89 1051.17,-199.5"/>
<polygon fill="midnightblue" stroke="midnightblue" points="1051.73,-202.96 1061.34,-198.51 1051.05,-195.99 1051.73,-202.96"/>
</g>
<!-- Node40 -->
<g id="node40" class="node">
<title>Node40</title>
<g id="a_node40"><a xlink:title=" ">
<polygon fill="none" stroke="#bfbfbf" points="638.63,-179.5 638.63,-198.5 717.63,-198.5 717.63,-179.5 638.63,-179.5"/>
<text text-anchor="middle" x="678.13" y="-186.5" font-family="Helvetica,sans-Serif" font-size="10.00">openssl/err.h</text>
</a>
</g>
</g>
<!-- Node39&#45;&gt;Node40 -->
<g id="edge49" class="edge">
<title>Node39&#45;&gt;Node40</title>
<path fill="none" stroke="midnightblue" d="M605.95,-235.32C619.36,-226.9 639.95,-213.97 655.71,-204.07"/>
<polygon fill="midnightblue" stroke="midnightblue" points="657.74,-206.94 664.35,-198.65 654.01,-201.01 657.74,-206.94"/>
</g>
<!-- Node41 -->
<g id="node41" class="node">
<title>Node41</title>
<g id="a_node41"><a xlink:title=" ">
<polygon fill="none" stroke="#bfbfbf" points="736.13,-179.5 736.13,-198.5 816.13,-198.5 816.13,-179.5 736.13,-179.5"/>
<text text-anchor="middle" x="776.13" y="-186.5" font-family="Helvetica,sans-Serif" font-size="10.00">openssl/ssl.h</text>
</a>
</g>
</g>
<!-- Node39&#45;&gt;Node41 -->
<g id="edge50" class="edge">
<title>Node39&#45;&gt;Node41</title>
<path fill="none" stroke="midnightblue" d="M621.28,-235.44C652.64,-226.24 702.66,-211.56 737.32,-201.39"/>
<polygon fill="midnightblue" stroke="midnightblue" points="738.5,-204.69 747.11,-198.52 736.53,-197.97 738.5,-204.69"/>
</g>
<!-- Node42 -->
<g id="node42" class="node">
<title>Node42</title>
<g id="a_node42"><a xlink:title=" ">
<polygon fill="none" stroke="#bfbfbf" points="834.63,-179.5 834.63,-198.5 881.63,-198.5 881.63,-179.5 834.63,-179.5"/>
<text text-anchor="middle" x="858.13" y="-186.5" font-family="Helvetica,sans-Serif" font-size="10.00">fcntl.h</text>
</a>
</g>
</g>
<!-- Node39&#45;&gt;Node42 -->
<g id="edge51" class="edge">
<title>Node39&#45;&gt;Node42</title>
<path fill="none" stroke="midnightblue" d="M642.36,-235.43C687.48,-227.48 755.76,-214.82 824.28,-199.05"/>
<polygon fill="midnightblue" stroke="midnightblue" points="825.44,-202.38 834.39,-196.7 823.86,-195.56 825.44,-202.38"/>
</g>
<!-- Node43 -->
<g id="node43" class="node">
<title>Node43</title>
<g id="a_node43"><a xlink:title=" ">
<polygon fill="none" stroke="#bfbfbf" points="899.63,-179.5 899.63,-198.5 952.63,-198.5 952.63,-179.5 899.63,-179.5"/>
<text text-anchor="middle" x="926.13" y="-186.5" font-family="Helvetica,sans-Serif" font-size="10.00">netdb.h</text>
</a>
</g>
</g>
<!-- Node39&#45;&gt;Node43 -->
<g id="edge52" class="edge">
<title>Node39&#45;&gt;Node43</title>
<path fill="none" stroke="midnightblue" d="M661.1,-235.48C719.4,-227.84 805.3,-215.58 889.47,-198.96"/>
<polygon fill="midnightblue" stroke="midnightblue" points="890.33,-202.36 899.46,-196.97 888.96,-195.49 890.33,-202.36"/>
</g>
<!-- Node44 -->
<g id="node44" class="node">
<title>Node44</title>
<g id="a_node44"><a xlink:title=" ">
<polygon fill="none" stroke="#bfbfbf" points="971.13,-179.5 971.13,-198.5 1043.13,-198.5 1043.13,-179.5 971.13,-179.5"/>
<text text-anchor="middle" x="1007.13" y="-186.5" font-family="Helvetica,sans-Serif" font-size="10.00">netinet/in.h</text>
</a>
</g>
</g>
<!-- Node39&#45;&gt;Node44 -->
<g id="edge53" class="edge">
<title>Node39&#45;&gt;Node44</title>
<path fill="none" stroke="midnightblue" d="M673.71,-235.75C748.64,-227.77 862.65,-214.62 961.13,-199 961.23,-198.98 961.33,-198.97 961.43,-198.95"/>
<polygon fill="midnightblue" stroke="midnightblue" points="961.74,-202.45 971.01,-197.32 960.57,-195.55 961.74,-202.45"/>
</g>
<!-- Node45 -->
<g id="node45" class="node">
<title>Node45</title>
<g id="a_node45"><a xlink:title=" ">
<polygon fill="none" stroke="#bfbfbf" points="37.13,-179.5 37.13,-198.5 115.13,-198.5 115.13,-179.5 37.13,-179.5"/>
<text text-anchor="middle" x="76.13" y="-186.5" font-family="Helvetica,sans-Serif" font-size="10.00">netinet/tcp.h</text>
</a>
</g>
</g>
<!-- Node39&#45;&gt;Node45 -->
<g id="edge54" class="edge">
<title>Node39&#45;&gt;Node45</title>
<path fill="none" stroke="midnightblue" d="M510.28,-238.36C418.85,-231.56 266.25,-218.7 125.49,-199.08"/>
<polygon fill="midnightblue" stroke="midnightblue" points="125.76,-195.58 115.37,-197.65 124.79,-202.51 125.76,-195.58"/>
</g>
<!-- Node46 -->
<g id="node46" class="node">
<title>Node46</title>
<g id="a_node46"><a xlink:title=" ">
<polygon fill="none" stroke="#bfbfbf" points="133.63,-179.5 133.63,-198.5 186.63,-198.5 186.63,-179.5 133.63,-179.5"/>
<text text-anchor="middle" x="160.13" y="-186.5" font-family="Helvetica,sans-Serif" font-size="10.00">stdint.h</text>
</a>
</g>
</g>
<!-- Node39&#45;&gt;Node46 -->
<g id="edge55" class="edge">
<title>Node39&#45;&gt;Node46</title>
<path fill="none" stroke="midnightblue" d="M510.28,-238.06C431.95,-231.62 310.37,-219.63 196.71,-199.08"/>
<polygon fill="midnightblue" stroke="midnightblue" points="197.26,-195.63 186.8,-197.26 196,-202.51 197.26,-195.63"/>
</g>
<!-- Node47 -->
<g id="node47" class="node">
<title>Node47</title>
<g id="a_node47"><a xlink:title=" ">
<polygon fill="none" stroke="#bfbfbf" points="204.63,-179.5 204.63,-198.5 273.63,-198.5 273.63,-179.5 204.63,-179.5"/>
<text text-anchor="middle" x="239.13" y="-186.5" font-family="Helvetica,sans-Serif" font-size="10.00">sys/epoll.h</text>
</a>
</g>
</g>
<!-- Node39&#45;&gt;Node47 -->
<g id="edge56" class="edge">
<title>Node39&#45;&gt;Node47</title>
<path fill="none" stroke="midnightblue" d="M525.11,-235.5C464.47,-227.52 372.47,-214.73 283.78,-199.21"/>
<polygon fill="midnightblue" stroke="midnightblue" points="284.28,-195.75 273.83,-197.46 283.07,-202.64 284.28,-195.75"/>
</g>
<!-- Node48 -->
<g id="node48" class="node">
<title>Node48</title>
<g id="a_node48"><a xlink:title=" ">
<polygon fill="none" stroke="#bfbfbf" points="291.63,-179.5 291.63,-198.5 360.63,-198.5 360.63,-179.5 291.63,-179.5"/>
<text text-anchor="middle" x="326.13" y="-186.5" font-family="Helvetica,sans-Serif" font-size="10.00">arpa/inet.h</text>
</a>
</g>
</g>
<!-- Node39&#45;&gt;Node48 -->
<g id="edge57" class="edge">
<title>Node39&#45;&gt;Node48</title>
<path fill="none" stroke="midnightblue" d="M549.36,-235.46C506.56,-226.9 438.55,-213.24 370.84,-199.34"/>
<polygon fill="midnightblue" stroke="midnightblue" points="371.36,-195.88 360.86,-197.29 369.95,-202.73 371.36,-195.88"/>
</g>
<!-- Node49 -->
<g id="node49" class="node">
<title>Node49</title>
<g id="a_node49"><a xlink:title=" ">
<polygon fill="none" stroke="#bfbfbf" points="378.63,-179.5 378.63,-198.5 455.63,-198.5 455.63,-179.5 378.63,-179.5"/>
<text text-anchor="middle" x="417.13" y="-186.5" font-family="Helvetica,sans-Serif" font-size="10.00">sys/socket.h</text>
</a>
</g>
</g>
<!-- Node39&#45;&gt;Node49 -->
<g id="edge58" class="edge">
<title>Node39&#45;&gt;Node49</title>
<path fill="none" stroke="midnightblue" d="M564.4,-235.44C534.7,-226.28 487.41,-211.69 454.46,-201.52"/>
<polygon fill="midnightblue" stroke="midnightblue" points="455.32,-198.12 444.73,-198.52 453.25,-204.81 455.32,-198.12"/>
</g>
<!-- Node50 -->
<g id="node50" class="node">
<title>Node50</title>
<g id="a_node50"><a xlink:title=" ">
<polygon fill="none" stroke="#bfbfbf" points="474.13,-179.5 474.13,-198.5 546.13,-198.5 546.13,-179.5 474.13,-179.5"/>
<text text-anchor="middle" x="510.13" y="-186.5" font-family="Helvetica,sans-Serif" font-size="10.00">sys/types.h</text>
</a>
</g>
</g>
<!-- Node39&#45;&gt;Node50 -->
<g id="edge59" class="edge">
<title>Node39&#45;&gt;Node50</title>
<path fill="none" stroke="midnightblue" d="M578.95,-235.32C566.28,-226.98 546.89,-214.21 531.92,-204.35"/>
<polygon fill="midnightblue" stroke="midnightblue" points="533.55,-201.23 523.27,-198.65 529.7,-207.08 533.55,-201.23"/>
</g>
<!-- Node51 -->
<g id="node51" class="node">
<title>Node51</title>
<g id="a_node51"><a xlink:title=" ">
<polygon fill="none" stroke="#bfbfbf" points="564.13,-179.5 564.13,-198.5 620.13,-198.5 620.13,-179.5 564.13,-179.5"/>
<text text-anchor="middle" x="592.13" y="-186.5" font-family="Helvetica,sans-Serif" font-size="10.00">unistd.h</text>
</a>
</g>
</g>
<!-- Node39&#45;&gt;Node51 -->
<g id="edge60" class="edge">
<title>Node39&#45;&gt;Node51</title>
<path fill="none" stroke="midnightblue" d="M592.13,-235.08C592.13,-228.01 592.13,-217.86 592.13,-208.99"/>
<polygon fill="midnightblue" stroke="midnightblue" points="595.63,-208.75 592.13,-198.75 588.63,-208.75 595.63,-208.75"/>
</g>
<!-- Node53&#45;&gt;Node3 -->
<g id="edge63" class="edge">
<title>Node53&#45;&gt;Node3</title>
<path fill="none" stroke="midnightblue" d="M1685.85,-403.36C1695.67,-394.96 1710.02,-381.41 1719.13,-367 1735.59,-340.97 1743.13,-332.8 1743.13,-302 1743.13,-302 1743.13,-302 1743.13,-244 1743.13,-213.2 1735.92,-204.81 1719.13,-179 1712.05,-168.12 1702.24,-157.81 1693.04,-149.38"/>
<polygon fill="midnightblue" stroke="midnightblue" points="1695.35,-146.75 1685.53,-142.77 1690.72,-152 1695.35,-146.75"/>
</g>
</g>
</svg>
