<?xml version="1.0" encoding="UTF-8" standalone="no"?>
<!DOCTYPE svg PUBLIC "-//W3C//DTD SVG 1.1//EN"
 "http://www.w3.org/Graphics/SVG/1.1/DTD/svg11.dtd">
<!-- Generated by graphviz version 3.0.0 (20220226.1711)
 -->
<!-- Title: ReactionEntities.cpp Pages: 1 -->
<svg width="1878pt" height="722pt"
 viewBox="0.00 0.00 1878.00 722.00" xmlns="http://www.w3.org/2000/svg" xmlns:xlink="http://www.w3.org/1999/xlink">
<g id="graph0" class="graph" transform="scale(1 1) rotate(0) translate(4 718)">
<title>ReactionEntities.cpp</title>
<!-- Node1 -->
<g id="node1" class="node">
<title>Node1</title>
<g id="a_node1"><a xlink:title=" ">
<polygon fill="#bfbfbf" stroke="black" points="1268,-694.5 1268,-713.5 1375,-713.5 1375,-694.5 1268,-694.5"/>
<text text-anchor="middle" x="1321.5" y="-701.5" font-family="Helvetica,sans-Serif" font-size="10.00">ReactionEntities.cpp</text>
</a>
</g>
</g>
<!-- Node2 -->
<g id="node2" class="node">
<title>Node2</title>
<g id="a_node2"><a xlink:href="$dd/db2/a00737.html" xlink:title=" ">
<polygon fill="none" stroke="black" points="1462,-638.5 1462,-657.5 1635,-657.5 1635,-638.5 1462,-638.5"/>
<text text-anchor="middle" x="1548.5" y="-645.5" font-family="Helvetica,sans-Serif" font-size="10.00">discordcoreapi/ReactionEntities.hpp</text>
</a>
</g>
</g>
<!-- Node1&#45;&gt;Node2 -->
<g id="edge1" class="edge">
<title>Node1&#45;&gt;Node2</title>
<path fill="none" stroke="midnightblue" d="M1357.47,-694.44C1396.82,-685.08 1459.99,-670.06 1502.81,-659.87"/>
<polygon fill="midnightblue" stroke="midnightblue" points="1503.78,-663.24 1512.7,-657.52 1502.16,-656.43 1503.78,-663.24"/>
</g>
<!-- Node18 -->
<g id="node18" class="node">
<title>Node18</title>
<g id="a_node18"><a xlink:title=" ">
<polygon fill="none" stroke="#bfbfbf" points="1821,-0.5 1821,-19.5 1870,-19.5 1870,-0.5 1821,-0.5"/>
<text text-anchor="middle" x="1845.5" y="-7.5" font-family="Helvetica,sans-Serif" font-size="10.00">fstream</text>
</a>
</g>
</g>
<!-- Node1&#45;&gt;Node18 -->
<g id="edge67" class="edge">
<title>Node1&#45;&gt;Node18</title>
<path fill="none" stroke="midnightblue" d="M1375.34,-702.2C1502.63,-698.85 1811.5,-681.6 1811.5,-593 1811.5,-593 1811.5,-593 1811.5,-126.5 1811.5,-90.77 1826.66,-51.26 1836.73,-28.95"/>
<polygon fill="midnightblue" stroke="midnightblue" points="1839.98,-30.27 1841.06,-19.73 1833.64,-27.3 1839.98,-30.27"/>
</g>
<!-- Node35 -->
<g id="node35" class="node">
<title>Node35</title>
<g id="a_node35"><a xlink:href="$d5/d5b/a00695.html" xlink:title=" ">
<polygon fill="none" stroke="black" points="1091.5,-403.5 1091.5,-422.5 1237.5,-422.5 1237.5,-403.5 1091.5,-403.5"/>
<text text-anchor="middle" x="1164.5" y="-410.5" font-family="Helvetica,sans-Serif" font-size="10.00">discordcoreapi/CoRoutine.hpp</text>
</a>
</g>
</g>
<!-- Node1&#45;&gt;Node35 -->
<g id="edge65" class="edge">
<title>Node1&#45;&gt;Node35</title>
<path fill="none" stroke="midnightblue" d="M1268.24,-694.44C1183.02,-679.23 1025.5,-644.19 1025.5,-593 1025.5,-593 1025.5,-593 1025.5,-529.5 1025.5,-476.05 1087.04,-442.59 1128.23,-426.19"/>
<polygon fill="midnightblue" stroke="midnightblue" points="1129.61,-429.41 1137.7,-422.57 1127.11,-422.87 1129.61,-429.41"/>
</g>
<!-- Node37 -->
<g id="node37" class="node">
<title>Node37</title>
<g id="a_node37"><a xlink:href="$db/d7c/a00722.html" xlink:title=" ">
<polygon fill="none" stroke="black" points="910,-291.5 910,-310.5 1035,-310.5 1035,-291.5 910,-291.5"/>
<text text-anchor="middle" x="972.5" y="-298.5" font-family="Helvetica,sans-Serif" font-size="10.00">discordcoreapi/Https.hpp</text>
</a>
</g>
</g>
<!-- Node1&#45;&gt;Node37 -->
<g id="edge66" class="edge">
<title>Node1&#45;&gt;Node37</title>
<path fill="none" stroke="midnightblue" d="M1267.6,-701.89C1142.59,-697.86 843.5,-679.22 843.5,-593 843.5,-593 843.5,-593 843.5,-412 843.5,-362.35 899.52,-330.37 937.73,-314.33"/>
<polygon fill="midnightblue" stroke="midnightblue" points="939.04,-317.57 947.01,-310.59 936.43,-311.08 939.04,-317.57"/>
</g>
<!-- Node3 -->
<g id="node3" class="node">
<title>Node3</title>
<g id="a_node3"><a xlink:href="$d4/deb/a00710.html" xlink:title=" ">
<polygon fill="none" stroke="black" points="1196,-112.5 1196,-142.5 1327,-142.5 1327,-112.5 1196,-112.5"/>
<text text-anchor="start" x="1204" y="-130.5" font-family="Helvetica,sans-Serif" font-size="10.00">discordcoreapi/Foundation</text>
<text text-anchor="middle" x="1261.5" y="-119.5" font-family="Helvetica,sans-Serif" font-size="10.00">Entities.hpp</text>
</a>
</g>
</g>
<!-- Node2&#45;&gt;Node3 -->
<g id="edge2" class="edge">
<title>Node2&#45;&gt;Node3</title>
<path fill="none" stroke="midnightblue" d="M1600.94,-638.46C1657.49,-625.91 1739.5,-596.51 1739.5,-531.5 1739.5,-531.5 1739.5,-531.5 1739.5,-244 1739.5,-204.98 1715.16,-196.91 1680.5,-179 1622.38,-148.98 1441.5,-136.27 1337.38,-131.33"/>
<polygon fill="midnightblue" stroke="midnightblue" points="1337.39,-127.82 1327.24,-130.86 1337.07,-134.82 1337.39,-127.82"/>
</g>
<!-- Node28 -->
<g id="node28" class="node">
<title>Node28</title>
<g id="a_node28"><a xlink:href="$d3/d2c/a00764.html" xlink:title=" ">
<polygon fill="none" stroke="black" points="1471,-582.5 1471,-601.5 1626,-601.5 1626,-582.5 1471,-582.5"/>
<text text-anchor="middle" x="1548.5" y="-589.5" font-family="Helvetica,sans-Serif" font-size="10.00">discordcoreapi/UserEntities.hpp</text>
</a>
</g>
</g>
<!-- Node2&#45;&gt;Node28 -->
<g id="edge27" class="edge">
<title>Node2&#45;&gt;Node28</title>
<path fill="none" stroke="midnightblue" d="M1548.5,-638.08C1548.5,-631.01 1548.5,-620.86 1548.5,-611.99"/>
<polygon fill="midnightblue" stroke="midnightblue" points="1552,-611.75 1548.5,-601.75 1545,-611.75 1552,-611.75"/>
</g>
<!-- Node4 -->
<g id="node4" class="node">
<title>Node4</title>
<g id="a_node4"><a xlink:href="$d5/dae/a00767.html" xlink:title=" ">
<polygon fill="none" stroke="black" points="1095.5,-56.5 1095.5,-75.5 1229.5,-75.5 1229.5,-56.5 1095.5,-56.5"/>
<text text-anchor="middle" x="1162.5" y="-63.5" font-family="Helvetica,sans-Serif" font-size="10.00">discordcoreapi/Utilities.hpp</text>
</a>
</g>
</g>
<!-- Node3&#45;&gt;Node4 -->
<g id="edge3" class="edge">
<title>Node3&#45;&gt;Node4</title>
<path fill="none" stroke="midnightblue" d="M1238.04,-112.4C1222.17,-102.86 1201.31,-90.32 1185.53,-80.84"/>
<polygon fill="midnightblue" stroke="midnightblue" points="1187.28,-77.81 1176.91,-75.66 1183.67,-83.81 1187.28,-77.81"/>
</g>
<!-- Node5 -->
<g id="node5" class="node">
<title>Node5</title>
<g id="a_node5"><a xlink:title=" ">
<polygon fill="none" stroke="#bfbfbf" points="1665,-0.5 1665,-19.5 1722,-19.5 1722,-0.5 1665,-0.5"/>
<text text-anchor="middle" x="1693.5" y="-7.5" font-family="Helvetica,sans-Serif" font-size="10.00">pthread.h</text>
</a>
</g>
</g>
<!-- Node4&#45;&gt;Node5 -->
<g id="edge4" class="edge">
<title>Node4&#45;&gt;Node5</title>
<path fill="none" stroke="midnightblue" d="M1229.62,-62.03C1322.97,-57.21 1497.37,-45.68 1654.57,-20.1"/>
<polygon fill="midnightblue" stroke="midnightblue" points="1655.61,-23.48 1664.9,-18.4 1654.47,-16.57 1655.61,-23.48"/>
</g>
<!-- Node6 -->
<g id="node6" class="node">
<title>Node6</title>
<g id="a_node6"><a xlink:title=" ">
<polygon fill="none" stroke="#bfbfbf" points="1740.5,-0.5 1740.5,-19.5 1802.5,-19.5 1802.5,-0.5 1740.5,-0.5"/>
<text text-anchor="middle" x="1771.5" y="-7.5" font-family="Helvetica,sans-Serif" font-size="10.00">sys/time.h</text>
</a>
</g>
</g>
<!-- Node4&#45;&gt;Node6 -->
<g id="edge5" class="edge">
<title>Node4&#45;&gt;Node6</title>
<path fill="none" stroke="midnightblue" d="M1229.86,-62.78C1334.85,-58.63 1543.95,-47.63 1730.16,-20"/>
<polygon fill="midnightblue" stroke="midnightblue" points="1730.77,-23.45 1740.14,-18.5 1729.73,-16.53 1730.77,-23.45"/>
</g>
<!-- Node7 -->
<g id="node7" class="node">
<title>Node7</title>
<g id="a_node7"><a xlink:title=" ">
<polygon fill="none" stroke="#bfbfbf" points="153.5,-0.5 153.5,-19.5 197.5,-19.5 197.5,-0.5 153.5,-0.5"/>
<text text-anchor="middle" x="175.5" y="-7.5" font-family="Helvetica,sans-Serif" font-size="10.00">time.h</text>
</a>
</g>
</g>
<!-- Node4&#45;&gt;Node7 -->
<g id="edge6" class="edge">
<title>Node4&#45;&gt;Node7</title>
<path fill="none" stroke="midnightblue" d="M1095.32,-63.89C910.62,-60.53 396.9,-48.93 207.81,-19.75"/>
<polygon fill="midnightblue" stroke="midnightblue" points="208.14,-16.26 197.71,-18.13 207.02,-23.17 208.14,-16.26"/>
</g>
<!-- Node8 -->
<g id="node8" class="node">
<title>Node8</title>
<g id="a_node8"><a xlink:title=" ">
<polygon fill="none" stroke="#bfbfbf" points="216,-0.5 216,-19.5 257,-19.5 257,-0.5 216,-0.5"/>
<text text-anchor="middle" x="236.5" y="-7.5" font-family="Helvetica,sans-Serif" font-size="10.00">ctime</text>
</a>
</g>
</g>
<!-- Node4&#45;&gt;Node8 -->
<g id="edge7" class="edge">
<title>Node4&#45;&gt;Node8</title>
<path fill="none" stroke="midnightblue" d="M1095.26,-63.81C918.6,-60.34 443.35,-48.7 267.17,-19.83"/>
<polygon fill="midnightblue" stroke="midnightblue" points="267.7,-16.37 257.25,-18.12 266.52,-23.27 267.7,-16.37"/>
</g>
<!-- Node9 -->
<g id="node9" class="node">
<title>Node9</title>
<g id="a_node9"><a xlink:title=" ">
<polygon fill="none" stroke="#bfbfbf" points="275,-0.5 275,-19.5 368,-19.5 368,-0.5 275,-0.5"/>
<text text-anchor="middle" x="321.5" y="-7.5" font-family="Helvetica,sans-Serif" font-size="10.00">condition_variable</text>
</a>
</g>
</g>
<!-- Node4&#45;&gt;Node9 -->
<g id="edge8" class="edge">
<title>Node4&#45;&gt;Node9</title>
<path fill="none" stroke="midnightblue" d="M1095.37,-63.46C961.15,-59.88 650.02,-49.06 378.26,-19.96"/>
<polygon fill="midnightblue" stroke="midnightblue" points="378.52,-16.47 368.2,-18.87 377.77,-23.43 378.52,-16.47"/>
</g>
<!-- Node10 -->
<g id="node10" class="node">
<title>Node10</title>
<g id="a_node10"><a xlink:title=" ">
<polygon fill="none" stroke="#bfbfbf" points="386.5,-0.5 386.5,-19.5 484.5,-19.5 484.5,-0.5 386.5,-0.5"/>
<text text-anchor="middle" x="435.5" y="-7.5" font-family="Helvetica,sans-Serif" font-size="10.00">nlohmann/json.hpp</text>
</a>
</g>
</g>
<!-- Node4&#45;&gt;Node10 -->
<g id="edge9" class="edge">
<title>Node4&#45;&gt;Node10</title>
<path fill="none" stroke="midnightblue" d="M1095.39,-62.41C976.44,-57.41 720.67,-44.75 494.57,-20.02"/>
<polygon fill="midnightblue" stroke="midnightblue" points="494.83,-16.53 484.51,-18.91 494.06,-23.49 494.83,-16.53"/>
</g>
<!-- Node11 -->
<g id="node11" class="node">
<title>Node11</title>
<g id="a_node11"><a xlink:title=" ">
<polygon fill="none" stroke="#bfbfbf" points="503,-0.5 503,-19.5 588,-19.5 588,-0.5 503,-0.5"/>
<text text-anchor="middle" x="545.5" y="-7.5" font-family="Helvetica,sans-Serif" font-size="10.00">source_location</text>
</a>
</g>
</g>
<!-- Node4&#45;&gt;Node11 -->
<g id="edge10" class="edge">
<title>Node4&#45;&gt;Node11</title>
<path fill="none" stroke="midnightblue" d="M1095.2,-61.73C990.81,-56.2 783.38,-43.37 597.96,-20.08"/>
<polygon fill="midnightblue" stroke="midnightblue" points="598.39,-16.6 588.03,-18.82 597.51,-23.55 598.39,-16.6"/>
</g>
<!-- Node12 -->
<g id="node12" class="node">
<title>Node12</title>
<g id="a_node12"><a xlink:title=" ">
<polygon fill="none" stroke="#bfbfbf" points="606,-0.5 606,-19.5 689,-19.5 689,-0.5 606,-0.5"/>
<text text-anchor="middle" x="647.5" y="-7.5" font-family="Helvetica,sans-Serif" font-size="10.00">unordered_map</text>
</a>
</g>
</g>
<!-- Node4&#45;&gt;Node12 -->
<g id="edge11" class="edge">
<title>Node4&#45;&gt;Node12</title>
<path fill="none" stroke="midnightblue" d="M1095.46,-60.15C1007.11,-53.39 846.64,-39.84 699.34,-20.01"/>
<polygon fill="midnightblue" stroke="midnightblue" points="699.59,-16.51 689.21,-18.63 698.64,-23.45 699.59,-16.51"/>
</g>
<!-- Node13 -->
<g id="node13" class="node">
<title>Node13</title>
<g id="a_node13"><a xlink:title=" ">
<polygon fill="none" stroke="#bfbfbf" points="707.5,-0.5 707.5,-19.5 785.5,-19.5 785.5,-0.5 707.5,-0.5"/>
<text text-anchor="middle" x="746.5" y="-7.5" font-family="Helvetica,sans-Serif" font-size="10.00">shared_mutex</text>
</a>
</g>
</g>
<!-- Node4&#45;&gt;Node13 -->
<g id="edge12" class="edge">
<title>Node4&#45;&gt;Node13</title>
<path fill="none" stroke="midnightblue" d="M1095.17,-58.07C1023.41,-50.39 906.25,-37 795.74,-20.11"/>
<polygon fill="midnightblue" stroke="midnightblue" points="796.17,-16.64 785.76,-18.57 795.11,-23.55 796.17,-16.64"/>
</g>
<!-- Node14 -->
<g id="node14" class="node">
<title>Node14</title>
<g id="a_node14"><a xlink:title=" ">
<polygon fill="none" stroke="#bfbfbf" points="803.5,-0.5 803.5,-19.5 861.5,-19.5 861.5,-0.5 803.5,-0.5"/>
<text text-anchor="middle" x="832.5" y="-7.5" font-family="Helvetica,sans-Serif" font-size="10.00">functional</text>
</a>
</g>
</g>
<!-- Node4&#45;&gt;Node14 -->
<g id="edge13" class="edge">
<title>Node4&#45;&gt;Node14</title>
<path fill="none" stroke="midnightblue" d="M1098.4,-56.47C1041.54,-48.58 956,-35.96 871.83,-19.93"/>
<polygon fill="midnightblue" stroke="midnightblue" points="872.32,-16.46 861.84,-18.01 871,-23.34 872.32,-16.46"/>
</g>
<!-- Node15 -->
<g id="node15" class="node">
<title>Node15</title>
<g id="a_node15"><a xlink:title=" ">
<polygon fill="none" stroke="#bfbfbf" points="880,-0.5 880,-19.5 945,-19.5 945,-0.5 880,-0.5"/>
<text text-anchor="middle" x="912.5" y="-7.5" font-family="Helvetica,sans-Serif" font-size="10.00">semaphore</text>
</a>
</g>
</g>
<!-- Node4&#45;&gt;Node15 -->
<g id="edge14" class="edge">
<title>Node4&#45;&gt;Node15</title>
<path fill="none" stroke="midnightblue" d="M1122.89,-56.44C1077.09,-46.55 1002.02,-30.34 955.02,-20.19"/>
<polygon fill="midnightblue" stroke="midnightblue" points="955.67,-16.74 945.16,-18.05 954.19,-23.59 955.67,-16.74"/>
</g>
<!-- Node16 -->
<g id="node16" class="node">
<title>Node16</title>
<g id="a_node16"><a xlink:title=" ">
<polygon fill="none" stroke="#bfbfbf" points="963.5,-0.5 963.5,-19.5 1019.5,-19.5 1019.5,-0.5 963.5,-0.5"/>
<text text-anchor="middle" x="991.5" y="-7.5" font-family="Helvetica,sans-Serif" font-size="10.00">concepts</text>
</a>
</g>
</g>
<!-- Node4&#45;&gt;Node16 -->
<g id="edge15" class="edge">
<title>Node4&#45;&gt;Node16</title>
<path fill="none" stroke="midnightblue" d="M1135.4,-56.44C1106.51,-47.32 1060.58,-32.81 1028.39,-22.65"/>
<polygon fill="midnightblue" stroke="midnightblue" points="1029.06,-19.19 1018.47,-19.52 1026.95,-25.87 1029.06,-19.19"/>
</g>
<!-- Node17 -->
<g id="node17" class="node">
<title>Node17</title>
<g id="a_node17"><a xlink:title=" ">
<polygon fill="none" stroke="#bfbfbf" points="1037.5,-0.5 1037.5,-19.5 1091.5,-19.5 1091.5,-0.5 1037.5,-0.5"/>
<text text-anchor="middle" x="1064.5" y="-7.5" font-family="Helvetica,sans-Serif" font-size="10.00">iostream</text>
</a>
</g>
</g>
<!-- Node4&#45;&gt;Node17 -->
<g id="edge16" class="edge">
<title>Node4&#45;&gt;Node17</title>
<path fill="none" stroke="midnightblue" d="M1146.75,-56.32C1131.18,-47.74 1107.12,-34.49 1089.04,-24.52"/>
<polygon fill="midnightblue" stroke="midnightblue" points="1090.65,-21.42 1080.21,-19.65 1087.28,-27.55 1090.65,-21.42"/>
</g>
<!-- Node4&#45;&gt;Node18 -->
<g id="edge17" class="edge">
<title>Node4&#45;&gt;Node18</title>
<path fill="none" stroke="midnightblue" d="M1229.79,-64.52C1346.4,-62.78 1593.55,-55.04 1810.74,-19.78"/>
<polygon fill="midnightblue" stroke="midnightblue" points="1811.44,-23.21 1820.74,-18.14 1810.3,-16.31 1811.44,-23.21"/>
</g>
<!-- Node19 -->
<g id="node19" class="node">
<title>Node19</title>
<g id="a_node19"><a xlink:title=" ">
<polygon fill="none" stroke="#bfbfbf" points="1110,-0.5 1110,-19.5 1151,-19.5 1151,-0.5 1110,-0.5"/>
<text text-anchor="middle" x="1130.5" y="-7.5" font-family="Helvetica,sans-Serif" font-size="10.00">bitset</text>
</a>
</g>
</g>
<!-- Node4&#45;&gt;Node19 -->
<g id="edge18" class="edge">
<title>Node4&#45;&gt;Node19</title>
<path fill="none" stroke="midnightblue" d="M1157.22,-56.08C1152.79,-48.61 1146.34,-37.72 1140.88,-28.52"/>
<polygon fill="midnightblue" stroke="midnightblue" points="1143.79,-26.57 1135.69,-19.75 1137.77,-30.14 1143.79,-26.57"/>
</g>
<!-- Node20 -->
<g id="node20" class="node">
<title>Node20</title>
<g id="a_node20"><a xlink:title=" ">
<polygon fill="none" stroke="#bfbfbf" points="1169.5,-0.5 1169.5,-19.5 1221.5,-19.5 1221.5,-0.5 1169.5,-0.5"/>
<text text-anchor="middle" x="1195.5" y="-7.5" font-family="Helvetica,sans-Serif" font-size="10.00">memory</text>
</a>
</g>
</g>
<!-- Node4&#45;&gt;Node20 -->
<g id="edge19" class="edge">
<title>Node4&#45;&gt;Node20</title>
<path fill="none" stroke="midnightblue" d="M1167.95,-56.08C1172.51,-48.61 1179.17,-37.72 1184.79,-28.52"/>
<polygon fill="midnightblue" stroke="midnightblue" points="1187.92,-30.11 1190.15,-19.75 1181.95,-26.46 1187.92,-30.11"/>
</g>
<!-- Node21 -->
<g id="node21" class="node">
<title>Node21</title>
<g id="a_node21"><a xlink:title=" ">
<polygon fill="none" stroke="#bfbfbf" points="1240,-0.5 1240,-19.5 1289,-19.5 1289,-0.5 1240,-0.5"/>
<text text-anchor="middle" x="1264.5" y="-7.5" font-family="Helvetica,sans-Serif" font-size="10.00">random</text>
</a>
</g>
</g>
<!-- Node4&#45;&gt;Node21 -->
<g id="edge20" class="edge">
<title>Node4&#45;&gt;Node21</title>
<path fill="none" stroke="midnightblue" d="M1178.89,-56.32C1195.17,-47.7 1220.37,-34.36 1239.22,-24.39"/>
<polygon fill="midnightblue" stroke="midnightblue" points="1240.95,-27.43 1248.15,-19.65 1237.68,-21.24 1240.95,-27.43"/>
</g>
<!-- Node22 -->
<g id="node22" class="node">
<title>Node22</title>
<g id="a_node22"><a xlink:title=" ">
<polygon fill="none" stroke="#bfbfbf" points="1307,-0.5 1307,-19.5 1348,-19.5 1348,-0.5 1307,-0.5"/>
<text text-anchor="middle" x="1327.5" y="-7.5" font-family="Helvetica,sans-Serif" font-size="10.00">string</text>
</a>
</g>
</g>
<!-- Node4&#45;&gt;Node22 -->
<g id="edge21" class="edge">
<title>Node4&#45;&gt;Node22</title>
<path fill="none" stroke="midnightblue" d="M1188.64,-56.44C1218.04,-46.82 1265.71,-31.22 1296.83,-21.04"/>
<polygon fill="midnightblue" stroke="midnightblue" points="1298.29,-24.24 1306.7,-17.81 1296.11,-17.59 1298.29,-24.24"/>
</g>
<!-- Node23 -->
<g id="node23" class="node">
<title>Node23</title>
<g id="a_node23"><a xlink:title=" ">
<polygon fill="none" stroke="#bfbfbf" points="1366.5,-0.5 1366.5,-19.5 1408.5,-19.5 1408.5,-0.5 1366.5,-0.5"/>
<text text-anchor="middle" x="1387.5" y="-7.5" font-family="Helvetica,sans-Serif" font-size="10.00">vector</text>
</a>
</g>
</g>
<!-- Node4&#45;&gt;Node23 -->
<g id="edge22" class="edge">
<title>Node4&#45;&gt;Node23</title>
<path fill="none" stroke="midnightblue" d="M1203.02,-56.45C1240.51,-48.36 1297.98,-35.51 1356.47,-20.15"/>
<polygon fill="midnightblue" stroke="midnightblue" points="1357.47,-23.51 1366.24,-17.56 1355.68,-16.74 1357.47,-23.51"/>
</g>
<!-- Node24 -->
<g id="node24" class="node">
<title>Node24</title>
<g id="a_node24"><a xlink:title=" ">
<polygon fill="none" stroke="#bfbfbf" points="1426.5,-0.5 1426.5,-19.5 1470.5,-19.5 1470.5,-0.5 1426.5,-0.5"/>
<text text-anchor="middle" x="1448.5" y="-7.5" font-family="Helvetica,sans-Serif" font-size="10.00">thread</text>
</a>
</g>
</g>
<!-- Node4&#45;&gt;Node24 -->
<g id="edge23" class="edge">
<title>Node4&#45;&gt;Node24</title>
<path fill="none" stroke="midnightblue" d="M1221.1,-56.5C1270.79,-48.87 1344.1,-36.64 1416.48,-20.04"/>
<polygon fill="midnightblue" stroke="midnightblue" points="1417.28,-23.45 1426.22,-17.78 1415.69,-16.63 1417.28,-23.45"/>
</g>
<!-- Node25 -->
<g id="node25" class="node">
<title>Node25</title>
<g id="a_node25"><a xlink:title=" ">
<polygon fill="none" stroke="#bfbfbf" points="1488.5,-0.5 1488.5,-19.5 1532.5,-19.5 1532.5,-0.5 1488.5,-0.5"/>
<text text-anchor="middle" x="1510.5" y="-7.5" font-family="Helvetica,sans-Serif" font-size="10.00">mutex</text>
</a>
</g>
</g>
<!-- Node4&#45;&gt;Node25 -->
<g id="edge24" class="edge">
<title>Node4&#45;&gt;Node25</title>
<path fill="none" stroke="midnightblue" d="M1229.78,-58.25C1292.01,-51.36 1387.2,-39.24 1478.3,-20"/>
<polygon fill="midnightblue" stroke="midnightblue" points="1479.2,-23.39 1488.25,-17.87 1477.73,-16.54 1479.2,-23.39"/>
</g>
<!-- Node26 -->
<g id="node26" class="node">
<title>Node26</title>
<g id="a_node26"><a xlink:title=" ">
<polygon fill="none" stroke="#bfbfbf" points="1551,-0.5 1551,-19.5 1594,-19.5 1594,-0.5 1551,-0.5"/>
<text text-anchor="middle" x="1572.5" y="-7.5" font-family="Helvetica,sans-Serif" font-size="10.00">queue</text>
</a>
</g>
</g>
<!-- Node4&#45;&gt;Node26 -->
<g id="edge25" class="edge">
<title>Node4&#45;&gt;Node26</title>
<path fill="none" stroke="midnightblue" d="M1229.78,-60.37C1303.81,-54.52 1426.36,-42.62 1540.94,-19.78"/>
<polygon fill="midnightblue" stroke="midnightblue" points="1541.83,-23.17 1550.93,-17.75 1540.44,-16.31 1541.83,-23.17"/>
</g>
<!-- Node27 -->
<g id="node27" class="node">
<title>Node27</title>
<g id="a_node27"><a xlink:title=" ">
<polygon fill="none" stroke="#bfbfbf" points="1612,-0.5 1612,-19.5 1647,-19.5 1647,-0.5 1612,-0.5"/>
<text text-anchor="middle" x="1629.5" y="-7.5" font-family="Helvetica,sans-Serif" font-size="10.00">map</text>
</a>
</g>
</g>
<!-- Node4&#45;&gt;Node27 -->
<g id="edge26" class="edge">
<title>Node4&#45;&gt;Node27</title>
<path fill="none" stroke="midnightblue" d="M1229.76,-62.97C1314.86,-59.33 1465.83,-49.29 1601.98,-19.9"/>
<polygon fill="midnightblue" stroke="midnightblue" points="1602.74,-23.32 1611.75,-17.75 1601.24,-16.48 1602.74,-23.32"/>
</g>
<!-- Node28&#45;&gt;Node3 -->
<g id="edge28" class="edge">
<title>Node28&#45;&gt;Node3</title>
<path fill="none" stroke="midnightblue" d="M1578,-582.46C1622.46,-567.56 1701.5,-532.31 1701.5,-470 1701.5,-470 1701.5,-470 1701.5,-244 1701.5,-207.82 1683.78,-197.18 1652.5,-179 1600.49,-148.76 1435.56,-136.24 1337.3,-131.36"/>
<polygon fill="midnightblue" stroke="midnightblue" points="1337.28,-127.86 1327.13,-130.87 1336.95,-134.85 1337.28,-127.86"/>
</g>
<!-- Node29 -->
<g id="node29" class="node">
<title>Node29</title>
<g id="a_node29"><a xlink:href="$d9/dd4/a00776.html" xlink:title=" ">
<polygon fill="none" stroke="black" points="1347.5,-515.5 1347.5,-545.5 1481.5,-545.5 1481.5,-515.5 1347.5,-515.5"/>
<text text-anchor="start" x="1355.5" y="-533.5" font-family="Helvetica,sans-Serif" font-size="10.00">discordcoreapi/WebSocket</text>
<text text-anchor="middle" x="1414.5" y="-522.5" font-family="Helvetica,sans-Serif" font-size="10.00">Entities.hpp</text>
</a>
</g>
</g>
<!-- Node28&#45;&gt;Node29 -->
<g id="edge29" class="edge">
<title>Node28&#45;&gt;Node29</title>
<path fill="none" stroke="midnightblue" d="M1529.3,-582.48C1510.13,-573.96 1480.08,-560.62 1455.53,-549.72"/>
<polygon fill="midnightblue" stroke="midnightblue" points="1456.64,-546.38 1446.08,-545.52 1453.8,-552.78 1456.64,-546.38"/>
</g>
<!-- Node29&#45;&gt;Node3 -->
<g id="edge30" class="edge">
<title>Node29&#45;&gt;Node3</title>
<path fill="none" stroke="midnightblue" d="M1481.55,-526.42C1555.31,-519 1663.5,-494.42 1663.5,-414 1663.5,-414 1663.5,-414 1663.5,-244 1663.5,-210.98 1654.74,-197.68 1627.5,-179 1581.74,-147.62 1430.66,-135.59 1337.52,-131.09"/>
<polygon fill="midnightblue" stroke="midnightblue" points="1337.45,-127.58 1327.3,-130.61 1337.12,-134.57 1337.45,-127.58"/>
</g>
<!-- Node30 -->
<g id="node30" class="node">
<title>Node30</title>
<g id="a_node30"><a xlink:href="$d4/d9b/a00680.html" xlink:title=" ">
<polygon fill="none" stroke="black" points="1301.5,-235.5 1301.5,-254.5 1463.5,-254.5 1463.5,-235.5 1301.5,-235.5"/>
<text text-anchor="middle" x="1382.5" y="-242.5" font-family="Helvetica,sans-Serif" font-size="10.00">discordcoreapi/AudioDecoder.hpp</text>
</a>
</g>
</g>
<!-- Node29&#45;&gt;Node30 -->
<g id="edge31" class="edge">
<title>Node29&#45;&gt;Node30</title>
<path fill="none" stroke="midnightblue" d="M1430.91,-515.4C1440.38,-506.14 1451.38,-493.16 1456.5,-479 1459.52,-470.64 1457.98,-467.76 1456.5,-459 1443.81,-383.81 1407.59,-299.74 1391,-263.82"/>
<polygon fill="midnightblue" stroke="midnightblue" points="1394.11,-262.22 1386.7,-254.65 1387.77,-265.19 1394.11,-262.22"/>
</g>
<!-- Node31 -->
<g id="node31" class="node">
<title>Node31</title>
<g id="a_node31"><a xlink:href="$d4/d6a/a00704.html" xlink:title=" ">
<polygon fill="none" stroke="black" points="999.5,-179.5 999.5,-198.5 1157.5,-198.5 1157.5,-179.5 999.5,-179.5"/>
<text text-anchor="middle" x="1078.5" y="-186.5" font-family="Helvetica,sans-Serif" font-size="10.00">discordcoreapi/EventEntities.hpp</text>
</a>
</g>
</g>
<!-- Node29&#45;&gt;Node31 -->
<g id="edge62" class="edge">
<title>Node29&#45;&gt;Node31</title>
<path fill="none" stroke="midnightblue" d="M1347.24,-521.29C1245.32,-506.96 1063.5,-473.1 1063.5,-414 1063.5,-414 1063.5,-414 1063.5,-300 1063.5,-267.5 1070.01,-230.1 1074.45,-208.34"/>
<polygon fill="midnightblue" stroke="midnightblue" points="1077.89,-209.01 1076.54,-198.5 1071.04,-207.56 1077.89,-209.01"/>
</g>
<!-- Node34 -->
<g id="node34" class="node">
<title>Node34</title>
<g id="a_node34"><a xlink:href="$d0/db6/a00692.html" xlink:title=" ">
<polygon fill="none" stroke="black" points="1260,-459.5 1260,-478.5 1447,-478.5 1447,-459.5 1260,-459.5"/>
<text text-anchor="middle" x="1353.5" y="-466.5" font-family="Helvetica,sans-Serif" font-size="10.00">discordcoreapi/CommandController.hpp</text>
</a>
</g>
</g>
<!-- Node29&#45;&gt;Node34 -->
<g id="edge37" class="edge">
<title>Node29&#45;&gt;Node34</title>
<path fill="none" stroke="midnightblue" d="M1400.04,-515.4C1390.91,-506.49 1379.08,-494.95 1369.64,-485.74"/>
<polygon fill="midnightblue" stroke="midnightblue" points="1371.98,-483.13 1362.38,-478.66 1367.09,-488.15 1371.98,-483.13"/>
</g>
<!-- Node36 -->
<g id="node36" class="node">
<title>Node36</title>
<g id="a_node36"><a xlink:href="$d3/d4f/a00761.html" xlink:title=" ">
<polygon fill="none" stroke="black" points="1175.5,-347.5 1175.5,-366.5 1325.5,-366.5 1325.5,-347.5 1175.5,-347.5"/>
<text text-anchor="middle" x="1250.5" y="-354.5" font-family="Helvetica,sans-Serif" font-size="10.00">discordcoreapi/ThreadPool.hpp</text>
</a>
</g>
</g>
<!-- Node29&#45;&gt;Node36 -->
<g id="edge64" class="edge">
<title>Node29&#45;&gt;Node36</title>
<path fill="none" stroke="midnightblue" d="M1347.49,-526.71C1312.97,-521.46 1273.59,-508.72 1251.5,-479 1245.58,-471.04 1247.85,-409 1249.45,-376.98"/>
<polygon fill="midnightblue" stroke="midnightblue" points="1252.96,-376.87 1249.99,-366.7 1245.97,-376.5 1252.96,-376.87"/>
</g>
<!-- Node38 -->
<g id="node38" class="node">
<title>Node38</title>
<g id="a_node38"><a xlink:href="$d5/de8/a00749.html" xlink:title=" ">
<polygon fill="none" stroke="black" points="558.5,-235.5 558.5,-254.5 708.5,-254.5 708.5,-235.5 558.5,-235.5"/>
<text text-anchor="middle" x="633.5" y="-242.5" font-family="Helvetica,sans-Serif" font-size="10.00">discordcoreapi/SSLClients.hpp</text>
</a>
</g>
</g>
<!-- Node29&#45;&gt;Node38 -->
<g id="edge63" class="edge">
<title>Node29&#45;&gt;Node38</title>
<path fill="none" stroke="midnightblue" d="M1347.27,-528.89C1203.98,-525.77 881.5,-508.27 881.5,-414 881.5,-414 881.5,-414 881.5,-356 881.5,-282.9 790.35,-258 718.57,-249.73"/>
<polygon fill="midnightblue" stroke="midnightblue" points="718.89,-246.25 708.58,-248.67 718.16,-253.21 718.89,-246.25"/>
</g>
<!-- Node52 -->
<g id="node52" class="node">
<title>Node52</title>
<g id="a_node52"><a xlink:href="$dd/d57/a00701.html" xlink:title=" ">
<polygon fill="none" stroke="black" points="1491.5,-403.5 1491.5,-422.5 1635.5,-422.5 1635.5,-403.5 1491.5,-403.5"/>
<text text-anchor="middle" x="1563.5" y="-410.5" font-family="Helvetica,sans-Serif" font-size="10.00">discordcoreapi/ErlPacker.hpp</text>
</a>
</g>
</g>
<!-- Node29&#45;&gt;Node52 -->
<g id="edge60" class="edge">
<title>Node29&#45;&gt;Node52</title>
<path fill="none" stroke="midnightblue" d="M1437.01,-515.42C1452.19,-505.67 1472.47,-492.13 1489.5,-479 1510.07,-463.15 1532.28,-443.23 1546.94,-429.64"/>
<polygon fill="midnightblue" stroke="midnightblue" points="1549.33,-432.2 1554.25,-422.82 1544.55,-427.08 1549.33,-432.2"/>
</g>
<!-- Node30&#45;&gt;Node3 -->
<g id="edge34" class="edge">
<title>Node30&#45;&gt;Node3</title>
<path fill="none" stroke="midnightblue" d="M1367.92,-235.39C1354.36,-227.02 1333.98,-213.47 1318.5,-199 1302.98,-184.49 1287.98,-165.68 1277.27,-151.14"/>
<polygon fill="midnightblue" stroke="midnightblue" points="1279.87,-148.77 1271.18,-142.71 1274.2,-152.87 1279.87,-148.77"/>
</g>
<!-- Node30&#45;&gt;Node31 -->
<g id="edge32" class="edge">
<title>Node30&#45;&gt;Node31</title>
<path fill="none" stroke="midnightblue" d="M1334.33,-235.44C1280.63,-225.9 1193.81,-210.48 1136.45,-200.29"/>
<polygon fill="midnightblue" stroke="midnightblue" points="1136.9,-196.82 1126.44,-198.52 1135.68,-203.71 1136.9,-196.82"/>
</g>
<!-- Node32 -->
<g id="node32" class="node">
<title>Node32</title>
<g id="a_node32"><a xlink:title=" ">
<polygon fill="none" stroke="#bfbfbf" points="1327.5,-179.5 1327.5,-198.5 1437.5,-198.5 1437.5,-179.5 1327.5,-179.5"/>
<text text-anchor="middle" x="1382.5" y="-186.5" font-family="Helvetica,sans-Serif" font-size="10.00">libavformat/avformat.h</text>
</a>
</g>
</g>
<!-- Node30&#45;&gt;Node32 -->
<g id="edge35" class="edge">
<title>Node30&#45;&gt;Node32</title>
<path fill="none" stroke="midnightblue" d="M1382.5,-235.08C1382.5,-228.01 1382.5,-217.86 1382.5,-208.99"/>
<polygon fill="midnightblue" stroke="midnightblue" points="1386,-208.75 1382.5,-198.75 1379,-208.75 1386,-208.75"/>
</g>
<!-- Node33 -->
<g id="node33" class="node">
<title>Node33</title>
<g id="a_node33"><a xlink:title=" ">
<polygon fill="none" stroke="#bfbfbf" points="1456,-179.5 1456,-198.5 1597,-198.5 1597,-179.5 1456,-179.5"/>
<text text-anchor="middle" x="1526.5" y="-186.5" font-family="Helvetica,sans-Serif" font-size="10.00">libswresample/swresample.h</text>
</a>
</g>
</g>
<!-- Node30&#45;&gt;Node33 -->
<g id="edge36" class="edge">
<title>Node30&#45;&gt;Node33</title>
<path fill="none" stroke="midnightblue" d="M1405.32,-235.44C1429.33,-226.44 1467.33,-212.19 1494.37,-202.05"/>
<polygon fill="midnightblue" stroke="midnightblue" points="1495.66,-205.3 1503.79,-198.52 1493.2,-198.75 1495.66,-205.3"/>
</g>
<!-- Node31&#45;&gt;Node3 -->
<g id="edge33" class="edge">
<title>Node31&#45;&gt;Node3</title>
<path fill="none" stroke="midnightblue" d="M1104.72,-179.48C1131.7,-170.7 1174.5,-156.79 1208.56,-145.71"/>
<polygon fill="midnightblue" stroke="midnightblue" points="1209.94,-148.94 1218.37,-142.52 1207.78,-142.29 1209.94,-148.94"/>
</g>
<!-- Node34&#45;&gt;Node3 -->
<g id="edge38" class="edge">
<title>Node34&#45;&gt;Node3</title>
<path fill="none" stroke="midnightblue" d="M1352.61,-459.4C1350.46,-439.46 1344.38,-388.58 1334.5,-347 1328.45,-321.57 1327.86,-314.55 1316.5,-291 1308.14,-273.68 1300.24,-272.6 1292.5,-255 1277.61,-221.13 1269.09,-178.88 1264.88,-152.8"/>
<polygon fill="midnightblue" stroke="midnightblue" points="1268.3,-152.04 1263.33,-142.68 1261.39,-153.09 1268.3,-152.04"/>
</g>
<!-- Node34&#45;&gt;Node35 -->
<g id="edge39" class="edge">
<title>Node34&#45;&gt;Node35</title>
<path fill="none" stroke="midnightblue" d="M1323.55,-459.44C1291.34,-450.24 1239.97,-435.56 1204.36,-425.39"/>
<polygon fill="midnightblue" stroke="midnightblue" points="1204.88,-421.9 1194.31,-422.52 1202.96,-428.63 1204.88,-421.9"/>
</g>
<!-- Node35&#45;&gt;Node3 -->
<g id="edge40" class="edge">
<title>Node35&#45;&gt;Node3</title>
<path fill="none" stroke="midnightblue" d="M1163.75,-403.46C1162.87,-390.91 1162.06,-366.83 1166.5,-347 1183.34,-271.84 1225.95,-190.41 1247.93,-151.6"/>
<polygon fill="midnightblue" stroke="midnightblue" points="1251.1,-153.1 1253.04,-142.68 1245.03,-149.61 1251.1,-153.1"/>
</g>
<!-- Node35&#45;&gt;Node36 -->
<g id="edge41" class="edge">
<title>Node35&#45;&gt;Node36</title>
<path fill="none" stroke="midnightblue" d="M1178.32,-403.32C1191.73,-394.9 1212.32,-381.97 1228.09,-372.07"/>
<polygon fill="midnightblue" stroke="midnightblue" points="1230.11,-374.94 1236.72,-366.65 1226.39,-369.01 1230.11,-374.94"/>
</g>
<!-- Node36&#45;&gt;Node3 -->
<g id="edge42" class="edge">
<title>Node36&#45;&gt;Node3</title>
<path fill="none" stroke="midnightblue" d="M1248.51,-347.43C1246.53,-338.42 1243.63,-323.8 1242.5,-311 1239.31,-274.86 1236.7,-247.01 1247.5,-179 1248.88,-170.28 1251.23,-160.92 1253.61,-152.65"/>
<polygon fill="midnightblue" stroke="midnightblue" points="1257.02,-153.48 1256.57,-142.89 1250.32,-151.44 1257.02,-153.48"/>
</g>
<!-- Node36&#45;&gt;Node37 -->
<g id="edge43" class="edge">
<title>Node36&#45;&gt;Node37</title>
<path fill="none" stroke="midnightblue" d="M1206.45,-347.44C1157.65,-337.96 1078.94,-322.67 1026.47,-312.48"/>
<polygon fill="midnightblue" stroke="midnightblue" points="1026.83,-308.99 1016.34,-310.52 1025.49,-315.86 1026.83,-308.99"/>
</g>
<!-- Node51 -->
<g id="node51" class="node">
<title>Node51</title>
<g id="a_node51"><a xlink:title=" ">
<polygon fill="none" stroke="#bfbfbf" points="1251.5,-291.5 1251.5,-310.5 1307.5,-310.5 1307.5,-291.5 1251.5,-291.5"/>
<text text-anchor="middle" x="1279.5" y="-298.5" font-family="Helvetica,sans-Serif" font-size="10.00">coroutine</text>
</a>
</g>
</g>
<!-- Node36&#45;&gt;Node51 -->
<g id="edge59" class="edge">
<title>Node36&#45;&gt;Node51</title>
<path fill="none" stroke="midnightblue" d="M1255.29,-347.08C1259.26,-339.69 1265.03,-328.95 1269.93,-319.81"/>
<polygon fill="midnightblue" stroke="midnightblue" points="1273.15,-321.22 1274.8,-310.75 1266.99,-317.91 1273.15,-321.22"/>
</g>
<!-- Node37&#45;&gt;Node38 -->
<g id="edge44" class="edge">
<title>Node37&#45;&gt;Node38</title>
<path fill="none" stroke="midnightblue" d="M918.78,-291.44C858.53,-281.85 760.89,-266.29 696.93,-256.1"/>
<polygon fill="midnightblue" stroke="midnightblue" points="697.39,-252.63 686.96,-254.52 696.29,-259.55 697.39,-252.63"/>
</g>
<!-- Node38&#45;&gt;Node3 -->
<g id="edge45" class="edge">
<title>Node38&#45;&gt;Node3</title>
<path fill="none" stroke="midnightblue" d="M708.61,-240.69C774.31,-236.09 871.6,-225.12 952.5,-199 970.66,-193.14 972.47,-185.26 990.5,-179 1054.45,-156.79 1130.46,-143.7 1185.68,-136.44"/>
<polygon fill="midnightblue" stroke="midnightblue" points="1186.27,-139.89 1195.75,-135.15 1185.38,-132.95 1186.27,-139.89"/>
</g>
<!-- Node38&#45;&gt;Node31 -->
<g id="edge46" class="edge">
<title>Node38&#45;&gt;Node31</title>
<path fill="none" stroke="midnightblue" d="M704.01,-235.44C784.08,-225.73 914.45,-209.91 998.33,-199.73"/>
<polygon fill="midnightblue" stroke="midnightblue" points="998.81,-203.2 1008.32,-198.52 997.97,-196.25 998.81,-203.2"/>
</g>
<!-- Node39 -->
<g id="node39" class="node">
<title>Node39</title>
<g id="a_node39"><a xlink:title=" ">
<polygon fill="none" stroke="#bfbfbf" points="716,-179.5 716,-198.5 789,-198.5 789,-179.5 716,-179.5"/>
<text text-anchor="middle" x="752.5" y="-186.5" font-family="Helvetica,sans-Serif" font-size="10.00">openssl/err.h</text>
</a>
</g>
</g>
<!-- Node38&#45;&gt;Node39 -->
<g id="edge47" class="edge">
<title>Node38&#45;&gt;Node39</title>
<path fill="none" stroke="midnightblue" d="M652.36,-235.44C671.77,-226.64 702.23,-212.81 724.46,-202.72"/>
<polygon fill="midnightblue" stroke="midnightblue" points="726.07,-205.84 733.73,-198.52 723.18,-199.46 726.07,-205.84"/>
</g>
<!-- Node40 -->
<g id="node40" class="node">
<title>Node40</title>
<g id="a_node40"><a xlink:title=" ">
<polygon fill="none" stroke="#bfbfbf" points="807.5,-179.5 807.5,-198.5 881.5,-198.5 881.5,-179.5 807.5,-179.5"/>
<text text-anchor="middle" x="844.5" y="-186.5" font-family="Helvetica,sans-Serif" font-size="10.00">openssl/ssl.h</text>
</a>
</g>
</g>
<!-- Node38&#45;&gt;Node40 -->
<g id="edge48" class="edge">
<title>Node38&#45;&gt;Node40</title>
<path fill="none" stroke="midnightblue" d="M666.93,-235.44C703.36,-226.12 761.73,-211.18 801.53,-201"/>
<polygon fill="midnightblue" stroke="midnightblue" points="802.4,-204.39 811.22,-198.52 800.67,-197.61 802.4,-204.39"/>
</g>
<!-- Node41 -->
<g id="node41" class="node">
<title>Node41</title>
<g id="a_node41"><a xlink:title=" ">
<polygon fill="none" stroke="#bfbfbf" points="900,-179.5 900,-198.5 943,-198.5 943,-179.5 900,-179.5"/>
<text text-anchor="middle" x="921.5" y="-186.5" font-family="Helvetica,sans-Serif" font-size="10.00">fcntl.h</text>
</a>
</g>
</g>
<!-- Node38&#45;&gt;Node41 -->
<g id="edge49" class="edge">
<title>Node38&#45;&gt;Node41</title>
<path fill="none" stroke="midnightblue" d="M692.82,-235.5C742.9,-227.89 816.65,-215.69 890.02,-198.89"/>
<polygon fill="midnightblue" stroke="midnightblue" points="890.95,-202.27 899.9,-196.6 889.37,-195.45 890.95,-202.27"/>
</g>
<!-- Node42 -->
<g id="node42" class="node">
<title>Node42</title>
<g id="a_node42"><a xlink:title=" ">
<polygon fill="none" stroke="#bfbfbf" points="0,-179.5 0,-198.5 49,-198.5 49,-179.5 0,-179.5"/>
<text text-anchor="middle" x="24.5" y="-186.5" font-family="Helvetica,sans-Serif" font-size="10.00">netdb.h</text>
</a>
</g>
</g>
<!-- Node38&#45;&gt;Node42 -->
<g id="edge50" class="edge">
<title>Node38&#45;&gt;Node42</title>
<path fill="none" stroke="midnightblue" d="M558.38,-242.63C449.88,-239.66 243.03,-230.27 59.37,-199.03"/>
<polygon fill="midnightblue" stroke="midnightblue" points="59.7,-195.54 49.25,-197.29 58.51,-202.44 59.7,-195.54"/>
</g>
<!-- Node43 -->
<g id="node43" class="node">
<title>Node43</title>
<g id="a_node43"><a xlink:title=" ">
<polygon fill="none" stroke="#bfbfbf" points="67,-179.5 67,-198.5 132,-198.5 132,-179.5 67,-179.5"/>
<text text-anchor="middle" x="99.5" y="-186.5" font-family="Helvetica,sans-Serif" font-size="10.00">netinet/in.h</text>
</a>
</g>
</g>
<!-- Node38&#45;&gt;Node43 -->
<g id="edge51" class="edge">
<title>Node38&#45;&gt;Node43</title>
<path fill="none" stroke="midnightblue" d="M558.39,-240.07C463.51,-234.46 295.08,-222.31 142.15,-199.09"/>
<polygon fill="midnightblue" stroke="midnightblue" points="142.52,-195.6 132.1,-197.54 141.46,-202.52 142.52,-195.6"/>
</g>
<!-- Node44 -->
<g id="node44" class="node">
<title>Node44</title>
<g id="a_node44"><a xlink:title=" ">
<polygon fill="none" stroke="#bfbfbf" points="150,-179.5 150,-198.5 221,-198.5 221,-179.5 150,-179.5"/>
<text text-anchor="middle" x="185.5" y="-186.5" font-family="Helvetica,sans-Serif" font-size="10.00">netinet/tcp.h</text>
</a>
</g>
</g>
<!-- Node38&#45;&gt;Node44 -->
<g id="edge52" class="edge">
<title>Node38&#45;&gt;Node44</title>
<path fill="none" stroke="midnightblue" d="M558.4,-237.69C479.29,-230.58 350.91,-217.72 231.52,-199.21"/>
<polygon fill="midnightblue" stroke="midnightblue" points="231.89,-195.73 221.47,-197.63 230.81,-202.64 231.89,-195.73"/>
</g>
<!-- Node45 -->
<g id="node45" class="node">
<title>Node45</title>
<g id="a_node45"><a xlink:title=" ">
<polygon fill="none" stroke="#bfbfbf" points="239,-179.5 239,-198.5 288,-198.5 288,-179.5 239,-179.5"/>
<text text-anchor="middle" x="263.5" y="-186.5" font-family="Helvetica,sans-Serif" font-size="10.00">stdint.h</text>
</a>
</g>
</g>
<!-- Node38&#45;&gt;Node45 -->
<g id="edge53" class="edge">
<title>Node38&#45;&gt;Node45</title>
<path fill="none" stroke="midnightblue" d="M558.32,-236.67C492.27,-229.6 393.44,-217.51 298.38,-198.94"/>
<polygon fill="midnightblue" stroke="midnightblue" points="298.79,-195.46 288.3,-196.95 297.43,-202.33 298.79,-195.46"/>
</g>
<!-- Node46 -->
<g id="node46" class="node">
<title>Node46</title>
<g id="a_node46"><a xlink:title=" ">
<polygon fill="none" stroke="#bfbfbf" points="306.5,-179.5 306.5,-198.5 370.5,-198.5 370.5,-179.5 306.5,-179.5"/>
<text text-anchor="middle" x="338.5" y="-186.5" font-family="Helvetica,sans-Serif" font-size="10.00">sys/epoll.h</text>
</a>
</g>
</g>
<!-- Node38&#45;&gt;Node46 -->
<g id="edge54" class="edge">
<title>Node38&#45;&gt;Node46</title>
<path fill="none" stroke="midnightblue" d="M581.82,-235.48C532.62,-227.22 456.26,-214.04 380.85,-199.21"/>
<polygon fill="midnightblue" stroke="midnightblue" points="381.19,-195.71 370.7,-197.2 379.83,-202.57 381.19,-195.71"/>
</g>
<!-- Node47 -->
<g id="node47" class="node">
<title>Node47</title>
<g id="a_node47"><a xlink:title=" ">
<polygon fill="none" stroke="#bfbfbf" points="388.5,-179.5 388.5,-198.5 450.5,-198.5 450.5,-179.5 388.5,-179.5"/>
<text text-anchor="middle" x="419.5" y="-186.5" font-family="Helvetica,sans-Serif" font-size="10.00">arpa/inet.h</text>
</a>
</g>
</g>
<!-- Node38&#45;&gt;Node47 -->
<g id="edge55" class="edge">
<title>Node38&#45;&gt;Node47</title>
<path fill="none" stroke="midnightblue" d="M599.59,-235.44C561.89,-225.93 501,-210.57 460.61,-200.37"/>
<polygon fill="midnightblue" stroke="midnightblue" points="461.37,-196.95 450.81,-197.9 459.65,-203.74 461.37,-196.95"/>
</g>
<!-- Node48 -->
<g id="node48" class="node">
<title>Node48</title>
<g id="a_node48"><a xlink:title=" ">
<polygon fill="none" stroke="#bfbfbf" points="469,-179.5 469,-198.5 542,-198.5 542,-179.5 469,-179.5"/>
<text text-anchor="middle" x="505.5" y="-186.5" font-family="Helvetica,sans-Serif" font-size="10.00">sys/socket.h</text>
</a>
</g>
</g>
<!-- Node38&#45;&gt;Node48 -->
<g id="edge56" class="edge">
<title>Node38&#45;&gt;Node48</title>
<path fill="none" stroke="midnightblue" d="M613.22,-235.44C592.15,-226.56 558.98,-212.56 535.01,-202.45"/>
<polygon fill="midnightblue" stroke="midnightblue" points="536.26,-199.18 525.69,-198.52 533.54,-205.63 536.26,-199.18"/>
</g>
<!-- Node49 -->
<g id="node49" class="node">
<title>Node49</title>
<g id="a_node49"><a xlink:title=" ">
<polygon fill="none" stroke="#bfbfbf" points="560.5,-179.5 560.5,-198.5 628.5,-198.5 628.5,-179.5 560.5,-179.5"/>
<text text-anchor="middle" x="594.5" y="-186.5" font-family="Helvetica,sans-Serif" font-size="10.00">sys/types.h</text>
</a>
</g>
</g>
<!-- Node38&#45;&gt;Node49 -->
<g id="edge57" class="edge">
<title>Node38&#45;&gt;Node49</title>
<path fill="none" stroke="midnightblue" d="M627.06,-235.08C621.55,-227.46 613.47,-216.26 606.74,-206.94"/>
<polygon fill="midnightblue" stroke="midnightblue" points="609.51,-204.81 600.82,-198.75 603.84,-208.91 609.51,-204.81"/>
</g>
<!-- Node50 -->
<g id="node50" class="node">
<title>Node50</title>
<g id="a_node50"><a xlink:title=" ">
<polygon fill="none" stroke="#bfbfbf" points="647,-179.5 647,-198.5 698,-198.5 698,-179.5 647,-179.5"/>
<text text-anchor="middle" x="672.5" y="-186.5" font-family="Helvetica,sans-Serif" font-size="10.00">unistd.h</text>
</a>
</g>
</g>
<!-- Node38&#45;&gt;Node50 -->
<g id="edge58" class="edge">
<title>Node38&#45;&gt;Node50</title>
<path fill="none" stroke="midnightblue" d="M639.94,-235.08C645.45,-227.46 653.53,-216.26 660.26,-206.94"/>
<polygon fill="midnightblue" stroke="midnightblue" points="663.16,-208.91 666.18,-198.75 657.49,-204.81 663.16,-208.91"/>
</g>
<!-- Node52&#45;&gt;Node3 -->
<g id="edge61" class="edge">
<title>Node52&#45;&gt;Node3</title>
<path fill="none" stroke="midnightblue" d="M1572.65,-403.25C1589.89,-385.77 1625.5,-344.53 1625.5,-302 1625.5,-302 1625.5,-302 1625.5,-244 1625.5,-213.9 1629.21,-198.75 1606.5,-179 1567.41,-145 1426.38,-133.89 1337.19,-130.26"/>
<polygon fill="midnightblue" stroke="midnightblue" points="1337.24,-126.76 1327.12,-129.87 1336.98,-133.76 1337.24,-126.76"/>
</g>
</g>
</svg>
